<?xml version="1.0" encoding="UTF-8"?>
<svg height="762.277" width="530.431" xmlns="http://www.w3.org/2000/svg">
 <g id="page" xmlns:svgx="http://www.xml-cml.org/schema/svgx">
  <g begin="text">
   <text y="62.979" x="76.312,80.743,84.282,87.821,91.806" svgx:width="0.56,0.44,0.44,0.5,0.39" style="fill:rgb(0,0,0);font-family:URWPalladioL-Ital;font-size:7.97px;stroke:none;">Foods</text>
   <text y="62.979" x="98.891,102.876,106.861,110.846" svgx:width="0.5,0.5,0.5,0.5" style="fill:rgb(0,0,0);font-family:URWPalladioL-Bold;font-size:7.97px;stroke:none;">2018</text>
   <text y="62.979" x="114.831" svgx:width="0.25" style="fill:rgb(0,0,0);font-family:URWPalladioL-Roma;font-size:7.97px;stroke:none;">,</text>
   <text y="62.979" x="118.817" svgx:width="0.5" style="fill:rgb(0,0,0);font-family:URWPalladioL-Ital;font-size:7.97px;stroke:none;">7</text>
   <text y="62.979" x="122.802,124.79450000000001,126.787,130.772,134.757,491.809,495.794,499.779,501.772,506.123,508.7531,510.77,514.755" svgx:width="0.25,0.55,0.5,0.5,0.55,0.5,0.5,0.55,0.55,0.33,0.55,0.5,0.5" style="fill:rgb(0,0,0);font-family:URWPalladioL-Roma;font-size:7.97px;stroke:none;">, 30 10 of 14</text>
   <text y="97.848" x="76.535,81.516,84.007,88.988,91.478,94.567,102.318,107.857,111.733,116.156,121.138,125.561,131.1,133.87,139.13,143.553,148.166,150.936,154.8204,157.302,162.841,166.716,171.14,175.195,178.512,181.282,185.705" svgx:width="0.5,0.25,0.5,0.25,0.55,0.78,0.56,0.39,0.44,0.5,0.44,0.56,0.28,0.53,0.44,0.46,0.28,0.39,0.55,0.56,0.39,0.44,0.41,0.33,0.28,0.44,0.56" style="fill:rgb(0,0,0);font-family:URWPalladioL-Ital;font-size:9.96px;stroke:none;">3.4. Unsaponiﬁable Fraction</text>
   <text y="117.335" x="97.795,105.445,111.168,116.537,119.742,125.465,130.175,134.15900000000002,136.537,142.447,147.364,151.248,154.5348,156.931,162.3,165.5868,168.062,171.268,176.991,181.7718,184.179,187.886,192.596,196.765,201.475,206.392,210.089,214.455,220.23180000000002,222.665,230.866,235.783,239.9662,242.43,247.346,253.069,257.986,260.847,266.314,271.231,274.092,279.815,285.3926,287.76,290.966,296.689,301.4698,303.877,312.559,317.476,320.337,326.11379999999997,328.548,332.914,338.283,346.965,352.875,358.244,363.967,368.677,374.4,377.605,381.7882,384.253,389.621,392.9078,395.374,401.303,407.026,411.195,416.112,422.021,427.39,433.113,435.975,441.924,446.84,452.278,455.139,459.9198,462.327,465.602,469.486,474.402,478.768,481.974,484.835,490.204,495.927,500.096,502.586,505.042,507.904,510.362,515.072,517.53" svgx:width="0.78,0.58,0.55,0.33,0.58,0.48,0.4,0.55,0.6,0.5,0.4,0.33,0.55,0.55,0.33,0.55,0.33,0.58,0.48,0.55,0.4,0.48,0.42,0.48,0.5,0.4,0.44,0.58,0.55,0.83,0.5,0.42,0.55,0.5,0.58,0.5,0.29,0.56,0.5,0.29,0.58,0.56,0.55,0.33,0.58,0.48,0.55,0.88,0.5,0.29,0.58,0.55,0.44,0.55,0.88,0.6,0.55,0.58,0.48,0.58,0.33,0.42,0.55,0.55,0.33,0.55,0.6,0.58,0.42,0.5,0.6,0.55,0.58,0.29,0.61,0.5,0.55,0.29,0.48,0.55,0.33,0.4,0.5,0.44,0.33,0.29,0.55,0.58,0.42,0.25,0.55,0.29,0.25,0.48,0.25,0.25" style="fill:rgb(0,0,0);font-family:URWPalladioL-Roma;font-size:9.96px;stroke:none;">Another part of the research was analyzing the main components of unsaponiﬁable fractions, i.e.,</text>
   <text y="130.845" x="76.535,80.725,83.947,88.681,92.407,97.803,100.679,104.8622,107.35,112.291,118.043,124.1186,126.572,131.514,134.389,138.777,144.174,149.925,155.321,158.197,162.388,164.87800000000001,167.942,175.631,178.507,184.002,188.943,191.819,194.695,200.447,205.2278,207.661,213.413,218.908,224.946,228.672,234.068,236.944,242.439,246.63,249.506,253.6892,256.186,264.429,269.37,273.5532,276.041,280.429,285.371,289.274,293.178,296.054,300.788,306.8636,309.307,314.703,320.662,323.9488,326.375,331.771,337.5478,340.003,345.943,351.902,360.629,366.568,372.063,374.939,380.7158,383.182,387.372,392.106,396.84,402.9156,405.359,410.755,413.631,416.507,420.6902,423.178,426.4,431.878,434.286,439.682,445.147,448.369,453.311,456.187,461.9638,464.419,470.457,475.399,478.621,483.601,486.053,489.769,494.503,497.378,502.32,505.542,508.418,514.002" svgx:width="0.42,0.33,0.48,0.4,0.55,0.29,0.42,0.55,0.5,0.58,0.61,0.55,0.5,0.29,0.44,0.55,0.58,0.55,0.29,0.42,0.25,0.55,0.78,0.29,0.56,0.5,0.29,0.29,0.58,0.48,0.55,0.58,0.56,0.61,0.4,0.55,0.29,0.56,0.42,0.29,0.42,0.55,0.83,0.5,0.42,0.55,0.44,0.5,0.4,0.4,0.29,0.48,0.61,0.55,0.55,0.6,0.33,0.55,0.55,0.58,0.55,0.6,0.6,0.88,0.6,0.56,0.29,0.58,0.55,0.42,0.48,0.48,0.61,0.55,0.55,0.29,0.29,0.42,0.55,0.33,0.55,0.55,0.55,0.55,0.33,0.5,0.29,0.58,0.55,0.61,0.5,0.33,0.5,0.55,0.4,0.48,0.29,0.5,0.33,0.29,0.56,0.48" style="fill:rgb(0,0,0);font-family:URWPalladioL-Roma;font-size:9.96px;stroke:none;">sterols and alcohols. Alkaline hydrolysis was carried out on pumpkin seed oils to obtain data relative</text>
   <text y="144.354" x="76.535,79.757,85.235,87.653,90.865,96.617,101.3978,103.851,109.386,115.345,120.287,123.163,126.038,129.26,134.202,137.424,140.299,145.883,150.6638,153.108,157.496,162.892,171.618,177.558,182.954,187.144,190.02,193.242,196.118,201.514,207.29080000000002,209.766,215.162,218.4488,220.944,225.134,228.356,233.09,236.816,242.212,245.10039999999998,247.588,252.53,258.282,264.3576,266.81,271.752,274.628,279.016,284.412,290.164,295.56,298.4484,300.936,304.227,308.131,313.072,317.46,320.682,323.558,328.954,334.706,338.896,341.386,344.46,350.43,356.181,361.676,364.898,370.294,374.485,377.706,382.44,386.166,391.562,394.438,398.6212,401.129,406.881,411.822,417.406,422.1868,424.63,430.096,434.83,439.564,445.3408,447.816,452.006,455.228,461.187,467.226,470.102,474.836,480.9116,483.365,486.656,492.052,496.036,498.456,501.678,507.429,512.163,515.039" svgx:width="0.33,0.55,0.55,0.33,0.58,0.48,0.55,0.56,0.6,0.5,0.29,0.29,0.33,0.5,0.33,0.29,0.56,0.48,0.55,0.44,0.55,0.88,0.6,0.55,0.42,0.29,0.33,0.29,0.55,0.58,0.55,0.55,0.33,0.55,0.42,0.33,0.48,0.4,0.55,0.29,0.55,0.5,0.58,0.61,0.55,0.5,0.29,0.44,0.55,0.58,0.55,0.29,0.55,0.33,0.4,0.5,0.44,0.33,0.29,0.55,0.58,0.42,0.25,0.55,0.6,0.58,0.56,0.33,0.55,0.42,0.33,0.48,0.4,0.55,0.29,0.42,0.55,0.58,0.5,0.56,0.48,0.55,0.55,0.48,0.48,0.58,0.55,0.42,0.33,0.6,0.61,0.29,0.48,0.61,0.55,0.33,0.55,0.4,0.55,0.33,0.58,0.48,0.29,0.4" style="fill:rgb(0,0,0);font-family:URWPalladioL-Roma;font-size:9.96px;stroke:none;">to the qualitative composition of sterol and alcohol fractions. Phytosterols have been studied for their</text>
   <text y="157.864" x="76.535,80.366,85.914,88.871,93.6518,96.696,99.653,105.4298,108.514,111.471,117.02,125.495,130.362,134.376,137.333,143.248,148.82559999999998,151.844,156.356,162.271,167.819,170.776,175.644,179.952,183.265,188.132,191.974,197.522,200.41039999999998,203.426,206.383,211.251,216.992,221.86,224.817,229.125,231.615,236.137,239.562,245.33880000000002,248.423,253.504,259.712,265.921,268.878,272.191,275.148,280.697,286.4738,289.558,292.871,298.349,301.376,304.689,310.603,313.56,317.7432,320.816,326.923,330.754,336.302,342.41,347.277,351.291,354.604,359.146,361.636,364.756,370.863,373.82,378.901,384.815,388.1018,391.075,395.383,398.696,403.564,407.405,412.953,415.91,420.0932,423.166,429.08,434.161,439.902,444.6828,447.717,452.798,458.712,462.025,464.982,470.063,473.376,479.29,484.157,487.998,493.547,499.197,504.064,509.979,512.936,517.447" svgx:width="0.4,0.55,0.29,0.48,0.55,0.29,0.58,0.55,0.29,0.55,0.83,0.48,0.4,0.29,0.58,0.56,0.55,0.44,0.58,0.55,0.29,0.48,0.42,0.33,0.48,0.4,0.55,0.29,0.55,0.29,0.48,0.56,0.48,0.29,0.42,0.25,0.55,0.34,0.58,0.55,0.5,0.61,0.61,0.29,0.33,0.29,0.55,0.58,0.55,0.33,0.55,0.55,0.33,0.58,0.29,0.42,0.55,0.6,0.4,0.55,0.6,0.48,0.4,0.33,0.56,0.25,0.55,0.6,0.29,0.5,0.58,0.33,0.55,0.42,0.33,0.48,0.4,0.55,0.29,0.42,0.55,0.58,0.5,0.56,0.48,0.55,0.5,0.58,0.33,0.29,0.5,0.33,0.58,0.48,0.4,0.55,0.56,0.48,0.58,0.29,0.44,0.25" style="fill:rgb(0,0,0);font-family:URWPalladioL-Roma;font-size:9.96px;stroke:none;">role in lowering cholesterol levels. In addition to this property, plant sterols have antiatherogenic,</text>
   <text y="171.373" x="76.535,81.616,87.53,90.843,93.8,97.184,100.141,106.055,112.234,117.315,126.287,135.26,140.341,143.654,149.202,153.216,157.759,160.249,163.622,168.703,174.617,177.93,180.887,185.399,190.48,196.394,200.906,205.773,209.046,211.536,214.909,219.99,225.904,231.9796,235.273,240.354,246.268,249.581,252.538,258.087,263.33,266.287,272.496,277.577,280.89,283.847,289.395,295.17179999999996,298.46,303.541,308.053,311.365,314.322,320.064,323.021,326.334,329.291,334.158,338.3412,341.627" svgx:width="0.5,0.58,0.33,0.29,0.33,0.29,0.58,0.61,0.5,0.88,0.88,0.5,0.33,0.55,0.4,0.56,0.25,0.55,0.5,0.58,0.33,0.29,0.44,0.5,0.58,0.44,0.48,0.4,0.25,0.55,0.5,0.58,0.61,0.55,0.5,0.58,0.33,0.29,0.55,0.52,0.29,0.61,0.5,0.33,0.29,0.55,0.58,0.55,0.5,0.44,0.33,0.29,0.56,0.29,0.33,0.29,0.48,0.42,0.55,0.33" style="fill:rgb(0,0,0);font-family:URWPalladioL-Roma;font-size:9.96px;stroke:none;">anti-inﬂammatory, anticancer, and antioxidation activities [</text>
   <text y="171.373" x="345.007,349.988" svgx:width="0.5,0.5" style="fill:rgb(8,117,183);font-family:URWPalladioL-Roma;font-size:9.96px;stroke:none;">44</text>
   <text y="171.373" x="354.97,358.354,360.844,365.975,371.29,376.838,382.488,387.356,390.669,396.583,401.45,405.43399999999997,408.614,417.089,420.046,423.359,429.13579999999996,432.434,435.747,441.661,446.4418,449.678,455.593,458.55,464.2,469.97679999999997,473.274,477.786,483.334,489.249,492.561,497.429,503.343,506.62980000000005,509.806,515.354" svgx:width="0.33,0.25,0.55,0.61,0.55,0.56,0.48,0.33,0.58,0.48,0.4,0.55,0.83,0.29,0.33,0.58,0.55,0.33,0.58,0.48,0.55,0.58,0.29,0.56,0.58,0.55,0.44,0.55,0.58,0.33,0.48,0.58,0.33,0.55,0.55,0.33" style="fill:rgb(0,0,0);font-family:URWPalladioL-Roma;font-size:9.96px;stroke:none;">]. Together with the high content of</text>
   <text y="184.882" x="76.535,79.434,82.333,88.131,93.571,96.47,101.242,104.141,108.52340000000001,111.055,116.037,120.46,123.359,129.446,131.936,134.428,138.652,141.9,146.672,150.428,155.867,158.766,162.9492,165.481,169.904,174.886,180.6628,183.175,188.973,193.745,196.644,202.62,205.122,208.021,213.7978,216.31,219.558,225.356,230.1368,232.619,235.867,239.623,244.395,249.376,252.624,261.421,266.193,271.991,275.2778,277.73,283.169,286.4558,288.977,291.876,294.776,300.763,303.662,309.749,313.067,318.048,322.272,326.497,331.936,336.359,339.259,344.24,347.488,352.26,358.3356,360.838,366.925,369.824,374.048,379.488,383.244,389.331,394.103,398.038,402.2212,404.753,408.977,414.984,419.408,425.1848,427.697,432.678,436.8612,439.393,444.374,447.622,453.42,458.192,461.948,467.388,471.612,476.035,478.934,483.707,487.462,492.902,497.126,500.025,504.249" svgx:width="0.29,0.29,0.58,0.55,0.29,0.48,0.29,0.44,0.55,0.5,0.44,0.29,0.61,0.25,0.55,0.42,0.33,0.48,0.4,0.55,0.29,0.42,0.55,0.44,0.5,0.58,0.55,0.58,0.48,0.29,0.6,0.55,0.29,0.58,0.55,0.33,0.58,0.48,0.55,0.33,0.4,0.48,0.5,0.33,0.88,0.48,0.58,0.33,0.55,0.55,0.33,0.55,0.29,0.29,0.6,0.29,0.61,0.33,0.5,0.42,0.42,0.55,0.44,0.29,0.5,0.33,0.48,0.61,0.55,0.61,0.29,0.42,0.55,0.4,0.61,0.48,0.4,0.42,0.55,0.42,0.6,0.44,0.58,0.55,0.5,0.42,0.55,0.5,0.33,0.58,0.48,0.4,0.55,0.42,0.44,0.29,0.48,0.4,0.55,0.42,0.29,0.42,0.25" style="fill:rgb(0,0,0);font-family:URWPalladioL-Roma;font-size:9.96px;stroke:none;">linoleic acid, sterols can help in the treatment of lipid-associated disorders such as atherosclerosis.</text>
   <text y="198.392" x="97.795,101.109,106.88579999999999,109.319,113.685,119.054,124.777,127.983,131.867,136.783,140.952,144.2388,146.646,149.851,155.329,157.708,160.914,166.636,171.4168,173.834,179.203,182.409,188.132,192.842,196.82600000000002,199.223,204.779,209.489,214.956,219.666,222.862,227.779,233.216,236.078,240.8588,243.285,248.654,251.516,254.377,258.5602,261.034,269.235,272.096,275.302" svgx:width="0.34,0.58,0.55,0.44,0.55,0.58,0.33,0.4,0.5,0.42,0.33,0.55,0.33,0.55,0.55,0.33,0.58,0.48,0.55,0.55,0.33,0.58,0.48,0.4,0.55,0.56,0.48,0.56,0.48,0.33,0.5,0.55,0.29,0.48,0.55,0.55,0.29,0.29,0.42,0.55,0.83,0.29,0.33,0.58" style="fill:rgb(0,0,0);font-family:URWPalladioL-Roma;font-size:9.96px;stroke:none;">In contrast to the other vegetable oils with</text>
   <text y="198.392" x="283.635" svgx:width="0.68" style="fill:rgb(0,0,0);font-family:PazoMath;font-size:9.96px;stroke:none;">∆</text>
   <text y="194.775" x="290.494" svgx:width="0.5" style="fill:rgb(0,0,0);font-family:URWPalladioL-Roma;font-size:7.57px;stroke:none;">5</text>
   <text y="198.392" x="294.778,298.052,302.222,305.427,310.137,313.844,319.213,322.075,326.2582,328.732" svgx:width="0.33,0.42,0.33,0.48,0.4,0.55,0.29,0.42,0.55,0.33" style="fill:rgb(0,0,0);font-family:URWPalladioL-Roma;font-size:9.96px;stroke:none;">-sterols (</text>
   <text y="198.392" x="332.005" svgx:width="0.66" style="fill:rgb(0,0,0);font-family:EURM10;font-size:9.96px;stroke:none;">β</text>
   <text y="198.392" x="338.605,341.879,346.049,348.91,352.116,357.485,361.654,364.859,369.569,373.276,378.645,381.507,383.997,386.453,390.819,395.735,404.418,410.328,415.038,419.207,422.412,427.122,430.829,436.198,439.06,441.55,444.006,448.922,454.645,460.7206,463.141,467.31,470.516,473.377,478.844,487.527,492.444,496.613,499.818,504.528,508.236,513.604,516.466" svgx:width="0.33,0.42,0.29,0.33,0.55,0.42,0.33,0.48,0.4,0.55,0.29,0.25,0.55,0.44,0.5,0.88,0.6,0.48,0.42,0.33,0.48,0.4,0.55,0.29,0.25,0.55,0.5,0.58,0.61,0.55,0.42,0.33,0.29,0.56,0.88,0.5,0.42,0.33,0.48,0.4,0.55,0.29,0.33" style="fill:rgb(0,0,0);font-family:URWPalladioL-Roma;font-size:9.96px;stroke:none;">-sitosterol, campesterol, and stigmasterol)</text>
   <text y="211.901" x="76.535,81.616,85.7992,91.178,94.491,100.405,105.1858,110.516,119.489,124.57,126.948,132.496,136.48000000000002,141.764,146.276,151.824,160.797,166.904,172.453,178.367,183.234,189.149,192.461,196.77,199.26000000000002,205.245,214.492,219.36,225.274,230.355,233.24339999999998,238.556,243.423,246.7098,251.99,257.07,260.028,262.51800000000003,267.812" svgx:width="0.5,0.42,0.55,0.33,0.58,0.48,0.55,0.88,0.5,0.23,0.55,0.4,0.55,0.44,0.55,0.88,0.6,0.55,0.58,0.48,0.58,0.33,0.42,0.25,0.55,1.0,0.48,0.58,0.5,0.29,0.55,0.48,0.33,0.55,0.5,0.29,0.25,0.55,0.33" style="fill:rgb(0,0,0);font-family:URWPalladioL-Roma;font-size:9.96px;stroke:none;">as the major components, Wenzl et al. [</text>
   <text y="211.901" x="271.198,276.179" svgx:width="0.5,0.5" style="fill:rgb(8,117,183);font-family:URWPalladioL-Roma;font-size:9.96px;stroke:none;">45</text>
   <text y="211.901" x="281.161,284.44780000000003,289.799,294.107,300.021,305.57,314.045,318.912,324.9876,330.365,333.677,339.592,344.673,347.95980000000003,353.239,359.346,365.474,374.447,380.554,386.204,389.161,394.9378,400.319,404.627,409.495,414.363,420.4386,425.825,431.373,434.331,437.2194,442.531,447.043,452.591,458.506,461.818,466.899,469.856,475.771,479.9542,485.333,489.641,495.749,500.616,505.128,508.085,514.233" svgx:width="0.33,0.55,0.42,0.58,0.55,0.83,0.48,0.61,0.55,0.33,0.58,0.5,0.33,0.55,0.6,0.6,0.88,0.6,0.56,0.29,0.58,0.55,0.42,0.48,0.48,0.61,0.55,0.55,0.29,0.29,0.55,0.44,0.55,0.58,0.33,0.5,0.29,0.58,0.42,0.55,0.42,0.6,0.48,0.44,0.29,0.61,0.44" style="fill:rgb(0,0,0);font-family:URWPalladioL-Roma;font-size:9.96px;stroke:none;">] showed that pumpkin seed oil contains speciﬁc</text>
   <text y="225.411" x="76.66" svgx:width="0.68" style="fill:rgb(0,0,0);font-family:PazoMath;font-size:9.96px;stroke:none;">∆</text>
   <text y="221.794" x="83.519" svgx:width="0.5" style="fill:rgb(0,0,0);font-family:URWPalladioL-Roma;font-size:7.57px;stroke:none;">7</text>
   <text y="225.411" x="87.803,91.187,97.294,103.208,108.858,112.171,117.719,122.028,125.341,130.208,134.039,139.588,142.545,146.854,149.34400000000002,152.28,155.593,161.243,167.35,170.307,174.819,179.9,182.7884,185.651,191.2,194.4868,197.388,202.937,208.851,211.808,217.38559999999998,220.253,225.23299999999998,228.138,231.522,236.39,244.65679999999998,247.669,253.777,256.734,261.815,267.729,271.0158,273.836,277.22,282.301,291.274,294.231,297.188,300.145,305.013,309.1962,312.126,315.51,320.377,322.918,328.568,331.108" svgx:width="0.33,0.6,0.58,0.56,0.33,0.55,0.42,0.33,0.48,0.4,0.55,0.29,0.42,0.25,0.55,0.33,0.56,0.6,0.29,0.44,0.5,0.29,0.55,0.55,0.33,0.55,0.55,0.58,0.29,0.56,0.55,0.5,0.55,0.33,0.48,0.83,0.55,0.6,0.29,0.5,0.58,0.33,0.55,0.33,0.5,0.88,0.29,0.29,0.29,0.48,0.42,0.55,0.33,0.48,0.25,0.56,0.25,0.25" style="fill:rgb(0,0,0);font-family:URWPalladioL-Roma;font-size:9.96px;stroke:none;">-phytosterols, typical of only a few plant families (e.g.,</text>
   <text y="225.411" x="336.525,343.303,348.953,353.089,358.739,362.692,367.397,370.222,373.606,378.117,382.253,386.206,390.718" svgx:width="0.67,0.56,0.41,0.56,0.39,0.46,0.28,0.33,0.44,0.41,0.39,0.44,0.39" style="fill:rgb(0,0,0);font-family:URWPalladioL-Ital;font-size:9.96px;stroke:none;">Cucurbitaceae</text>
   <text y="225.411" x="394.67,398.054,400.544,403.47,406.783,412.697,417.778,421.06480000000005,423.896,430.003,433.834,439.382,445.124,448.081,454.29,459.0708,461.962,466.942,469.837,475.985,481.899,487.549,492.417,496.431,502.538,506.552,509.509,515.423" svgx:width="0.33,0.25,0.55,0.33,0.58,0.5,0.33,0.55,0.6,0.4,0.55,0.56,0.29,0.61,0.48,0.55,0.5,0.55,0.61,0.58,0.56,0.48,0.4,0.6,0.4,0.29,0.58,0.33" style="fill:rgb(0,0,0);font-family:URWPalladioL-Roma;font-size:9.96px;stroke:none;">), that provide a ﬁngerprint</text>
   <text y="238.92" x="76.535,79.849,85.283,89.267,91.713,97.794,102.561,105.806,110.573,114.992,118.237,121.133,126.567,132.3438,134.857,140.292,143.5788,146.104,151.08,157.161,163.163,166.059,169.304,174.071,178.002,182.978,186.223,189.119,194.553,200.346,202.836,205.949,212.05,217.843,222.61,226.83" svgx:width="0.33,0.55,0.4,0.55,0.61,0.48,0.33,0.48,0.44,0.33,0.29,0.55,0.58,0.55,0.55,0.33,0.55,0.5,0.61,0.6,0.29,0.33,0.48,0.4,0.5,0.33,0.29,0.55,0.58,0.25,0.55,0.61,0.58,0.48,0.42,0.48" style="fill:rgb(0,0,0);font-family:URWPalladioL-Roma;font-size:9.96px;stroke:none;">for detection of adulteration. These</text>
   <text y="238.92" x="234.221" svgx:width="0.68" style="fill:rgb(0,0,0);font-family:PazoMath;font-size:9.96px;stroke:none;">∆</text>
   <text y="235.303" x="241.08" svgx:width="0.5" style="fill:rgb(0,0,0);font-family:URWPalladioL-Roma;font-size:7.57px;stroke:none;">7</text>
   <text y="238.92" x="245.364,248.678,252.898,256.143,260.91,264.662,270.096,272.993,277.1762,279.711,284.687,288.439,293.2198,295.704,299.924,305.926,311.907,317.889,323.323,327.543,332.31,338.3856,340.889,344.134,349.612,352.066,357.6,360.496,366.119,370.8998,373.385,376.629,382.422,387.2028,389.687,395.669,401.67,410.458,416.44,421.973,424.87,430.6468,433.16,437.38,442.147,446.915,452.99060000000003,455.504,460.938,463.834,466.7224,469.229,474.209,476.703,482.207,486.974,492.766,497.534,503.555,507.974,510.87,515.847" svgx:width="0.33,0.42,0.33,0.48,0.4,0.55,0.29,0.42,0.55,0.5,0.4,0.48,0.55,0.42,0.6,0.6,0.6,0.55,0.42,0.48,0.61,0.55,0.33,0.55,0.55,0.56,0.29,0.56,0.48,0.55,0.33,0.58,0.48,0.55,0.6,0.6,0.88,0.6,0.56,0.29,0.58,0.55,0.42,0.48,0.48,0.61,0.55,0.55,0.29,0.29,0.55,0.5,0.55,0.55,0.48,0.58,0.48,0.61,0.44,0.29,0.5,0.29" style="fill:rgb(0,0,0);font-family:URWPalladioL-Roma;font-size:9.96px;stroke:none;">-sterols are supposed to give the pumpkin seed oil a beneﬁcial</text>
   <text y="252.429" x="76.535,81.245,84.342,87.617,92.327,96.693,99.9798,102.386,105.248,111.0248,113.468,116.674,122.397,127.1778,129.594,132.8,136.507,141.217,146.134,149.339,158.022,162.732,168.455,171.7418,174.148,179.065,184.787,190.86260000000001,193.283,199.193,202.9,208.269,214.179,219.901,225.369,228.23,233.147,238.22,241.082,245.2652,247.739,253.108,256.39480000000003,258.87,264.878,267.739,271.909,277.277,280.985,286.993,291.703,295.587,299.7702,302.244,307.613,310.8998,313.385,316.59,322.313,327.0938,329.511,335.421,339.128,344.496,348.666,351.871,356.788,359.993,364.7738,367.191,372.658,375.52,380.436,386.159,392.2346,394.655,399.572,405.294,411.3696,413.8,417.006,422.728,427.5088,429.926,435.856,439.74,442.601,448.324,453.241,457.125,462.7026,465.08,470.517,473.379,478.295,484.303,490.311,495.021,499.005,501.393" svgx:width="0.48,0.33,0.33,0.48,0.44,0.33,0.55,0.29,0.58,0.55,0.33,0.58,0.48,0.55,0.33,0.4,0.48,0.5,0.33,0.88,0.48,0.58,0.33,0.55,0.5,0.58,0.61,0.55,0.6,0.4,0.55,0.6,0.58,0.56,0.29,0.5,0.52,0.29,0.42,0.55,0.55,0.33,0.55,0.61,0.29,0.42,0.55,0.4,0.61,0.48,0.4,0.42,0.55,0.55,0.33,0.55,0.33,0.58,0.48,0.55,0.6,0.4,0.55,0.42,0.33,0.5,0.33,0.48,0.55,0.56,0.29,0.5,0.58,0.61,0.55,0.5,0.58,0.61,0.55,0.33,0.58,0.48,0.55,0.6,0.4,0.29,0.58,0.5,0.4,0.56,0.55,0.55,0.29,0.5,0.61,0.61,0.48,0.4,0.55,0.33" style="fill:rgb(0,0,0);font-family:URWPalladioL-Roma;font-size:9.96px;stroke:none;">effect in the treatment and prophylaxis of disorders of the prostate gland and the urinary bladder [</text>
   <text y="252.429" x="504.672,509.653" svgx:width="0.5,0.5" style="fill:rgb(8,117,183);font-family:URWPalladioL-Roma;font-size:9.96px;stroke:none;">46</text>
   <text y="252.429" x="514.635,517.909" svgx:width="0.33,0.25" style="fill:rgb(0,0,0);font-family:URWPalladioL-Roma;font-size:9.96px;stroke:none;">].</text>
   <text y="265.939" x="97.795,101.22,106.9968,111.229,114.542,120.456,123.413,127.5962,131.817,137.924,143.005,149.112,153.98,157.252,159.74200000000002,164.294,168.603,171.916,176.783,180.614,186.162,189.0504,193.215,196.172,202.381,207.248,213.162,216.475,219.432,225.58,230.092,235.173,238.486,241.443,246.991,252.76780000000002,257.001,265.476,270.557,274.7402,278.96,283.472,288.553,292.567,296.581,299.538,304.406,310.4816,314.71,320.258,326.386,329.67280000000005,333.794,339.413,344.99060000000003,349.159,357.613,364.401,372.155,379.359,382.743,392.357,397.691,400.181,404.327,410.536,415.617,420.129,425.9058,430.138,436.246,441.113,446.194,451.77160000000003,455.939,464.414,469.495,473.6782,477.899,482.98,488.894,493.975,496.932,502.582,507.663,512.531" svgx:width="0.34,0.58,0.55,0.33,0.58,0.29,0.42,0.55,0.6,0.5,0.6,0.48,0.4,0.25,0.55,0.42,0.33,0.48,0.4,0.55,0.29,0.55,0.29,0.61,0.48,0.58,0.33,0.29,0.61,0.44,0.5,0.33,0.29,0.55,0.58,0.55,0.83,0.5,0.42,0.55,0.44,0.5,0.4,0.4,0.29,0.48,0.61,0.55,0.55,0.6,0.33,0.55,0.55,0.56,0.55,0.83,0.67,0.76,0.71,0.33,0.95,0.52,0.25,0.55,0.61,0.5,0.44,0.58,0.55,0.6,0.48,0.5,0.56,0.55,0.83,0.5,0.42,0.55,0.5,0.58,0.5,0.29,0.56,0.5,0.48,0.61" style="fill:rgb(0,0,0);font-family:URWPalladioL-Roma;font-size:9.96px;stroke:none;">In this paper, sterol identiﬁcation was carried out by HRGC-MS. Each peak was analyzed</text>
   <text y="279.448" x="76.256,81.997,84.955,89.935,93.663,99.872,104.74,108.052,112.92,117.432,120.745,123.702,129.25,135.0268,138.782,144.33,147.6168,151.342,154.655,160.569,165.3498,169.054,175.161,180.242,184.083,188.951,194.865,198.1518,201.796,210.768,216.317,219.274,224.141,228.653,234.781,237.738,242.819,246.803,250.461,253.418,258.966,264.7428,268.498,273.579,279.493,285.5686,289.33,292.642,298.557,303.3378,307.052,310.436,314.45,319.531,325.181,334.154,339.021,344.935,348.248,353.329,356.642,359.589,365.137,370.9138,374.679,380.786,385.867,389.18,392.493,397.36,401.374,407.1508,410.916,416.465,419.7518,423.466,426.779,432.693,437.4738,441.188,447.418,457.031,462.366,468.4416,472.192,478.401,483.269,487.283,490.24,495.981,501.062,504.375,507.332,513.073,517.941" svgx:width="0.56,0.29,0.5,0.55,0.61,0.48,0.33,0.48,0.44,0.33,0.29,0.55,0.58,0.55,0.55,0.33,0.55,0.33,0.58,0.48,0.55,0.6,0.5,0.4,0.48,0.58,0.33,0.55,0.88,0.55,0.29,0.48,0.44,0.6,0.29,0.5,0.4,0.55,0.29,0.55,0.58,0.55,0.5,0.58,0.61,0.55,0.33,0.58,0.48,0.55,0.33,0.4,0.5,0.56,0.88,0.48,0.58,0.33,0.5,0.33,0.29,0.55,0.58,0.55,0.6,0.5,0.33,0.33,0.48,0.4,0.58,0.55,0.55,0.33,0.55,0.33,0.58,0.48,0.55,0.61,0.95,0.52,0.61,0.55,0.61,0.48,0.4,0.29,0.56,0.5,0.33,0.29,0.56,0.48,0.25" style="fill:rgb(0,0,0);font-family:URWPalladioL-Roma;font-size:9.96px;stroke:none;">via detection of the parent molecular ion and the fragmentation pattern of the TMSE derivative.</text>
   <text y="292.958" x="76.535,79.96,85.73679999999999,93.058,98.139,104.348,110.557,113.514,116.827,119.784,125.332,131.1088,134.844,138.156,143.63400000000001,147.302,150.615,156.529,161.3098,164.984,171.091,174.932,179.8,184.108,188.976,194.89,199.402,204.1828,207.857,213.405,216.6918,220.386,224.695,230.802,235.67,240.181,243.139,249.286,253.6684,257.396,260.353,265.901,271.6778,275.402,278.786,282.8,287.881,293.531,302.504,307.372,313.286,316.599,320.907,323.397,327.319,330.632,336.546,341.3268,345.011,348.842,353.71,356.667,361.748,365.06,368.017,373.759,378.5398,382.224,385.181,391.095,394.408,399.275,405.189,409.498,412.455,415.768,421.3456,425.005,430.553,433.8398,437.535,440.847,446.762,451.5428,455.226,458.184,463.732,469.5088,473.233,476.617,480.631,485.712,491.362,500.335,505.202,511.117,514.429" svgx:width="0.34,0.58,0.55,0.5,0.61,0.61,0.29,0.33,0.29,0.55,0.58,0.55,0.33,0.55,0.55,0.33,0.58,0.48,0.55,0.6,0.4,0.48,0.42,0.48,0.58,0.44,0.48,0.55,0.55,0.33,0.55,0.42,0.6,0.48,0.44,0.29,0.61,0.44,0.55,0.29,0.55,0.58,0.55,0.33,0.4,0.5,0.56,0.88,0.48,0.58,0.33,0.42,0.25,0.55,0.33,0.58,0.48,0.55,0.4,0.48,0.29,0.5,0.33,0.29,0.56,0.48,0.55,0.29,0.58,0.33,0.48,0.58,0.42,0.29,0.33,0.56,0.55,0.55,0.33,0.55,0.33,0.58,0.48,0.55,0.29,0.55,0.58,0.55,0.33,0.4,0.5,0.56,0.88,0.48,0.58,0.33,0.42" style="fill:rgb(0,0,0);font-family:URWPalladioL-Roma;font-size:9.96px;stroke:none;">In addition to the presence of speciﬁc ion fragments, the relative intensity of the ion fragments</text>
   <text y="306.467" x="76.117,84.592,89.673,93.8562,97.538,102.05,107.598,113.513,117.821,120.778,126.987,131.855,135.686,140.553,146.762,149.252,155.593,160.928,166.476,175.449,180.2298,183.873,190.102,199.716,205.051,211.1266,214.816,219.125,222.438,227.305,231.136,236.684,239.642,243.8252,247.507,255.982,260.849,264.69,269.4708,273.115,276.072,282.281,287.148,293.062,296.375,299.332,305.48,310.348,316.4236,320.113,325.733,331.3106,334.939,339.451,344.989,353.962,360.07,365.15,369.164,372.122,376.43,381.979,387.75579999999997,391.449,399.924,402.881,406.194,411.9708,415.665,418.978,424.892,429.6728,433.316,441.761,445.185,450.52,456.5956,460.306,469.279,474.36,478.668,482.8512,486.534,490.842,496.95,501.817,506.329,509.642,513.656" svgx:width="0.83,0.5,0.42,0.55,0.44,0.55,0.58,0.42,0.29,0.61,0.48,0.4,0.48,0.61,0.25,0.55,0.52,0.55,0.88,0.48,0.55,0.61,0.95,0.52,0.61,0.55,0.42,0.33,0.48,0.4,0.55,0.29,0.42,0.55,0.83,0.48,0.4,0.48,0.55,0.29,0.61,0.48,0.58,0.33,0.29,0.61,0.48,0.61,0.55,0.55,0.56,0.55,0.44,0.55,0.88,0.6,0.5,0.4,0.29,0.42,0.55,0.58,0.55,0.83,0.29,0.33,0.58,0.55,0.33,0.58,0.48,0.55,0.83,0.34,0.52,0.61,0.55,0.88,0.5,0.42,0.42,0.55,0.42,0.6,0.48,0.44,0.33,0.4,0.5" style="fill:rgb(0,0,0);font-family:URWPalladioL-Roma;font-size:9.96px;stroke:none;">was considered. Some TMSE sterols were identiﬁed by comparison with the NIST mass spectra</text>
   <text y="319.976" x="76.535,79.492,82.449,88.069,92.083,97.164,101.177,106.827,109.317,114.947,118.26,123.91,130.017,132.974,137.486,142.567,145.4554,150.066,153.45,157.464,162.545,168.195,177.168,182.035,187.95,191.262,196.343,199.656,202.613,208.161,213.9378,218.618,221.575,225.7582,230.436,234.267,239.135,245.242,250.79,254.804,258.117,262.985,269.0606,273.736,276.693,282.46979999999996,287.16,292.474,297.555,303.175,306.132" svgx:width="0.29,0.29,0.55,0.4,0.5,0.4,0.56,0.25,0.55,0.33,0.56,0.6,0.29,0.44,0.5,0.29,0.55,0.33,0.4,0.5,0.56,0.88,0.48,0.58,0.33,0.5,0.33,0.29,0.55,0.58,0.55,0.29,0.42,0.55,0.4,0.48,0.6,0.55,0.4,0.33,0.48,0.61,0.55,0.29,0.58,0.55,0.61,0.5,0.55,0.29,0.48" style="fill:rgb(0,0,0);font-family:URWPalladioL-Roma;font-size:9.96px;stroke:none;">library; typical fragmentation is reported in Table</text>
   <text y="319.976" x="315.542" svgx:width="0.5" style="fill:rgb(8,117,183);font-family:URWPalladioL-Roma;font-size:9.96px;stroke:none;">3</text>
   <text y="319.976" x="320.623,323.113,328.224,331.536,337.085,342.735,347.602,350.915,356.829,361.697,365.681,370.253,378.728,381.685,384.998,390.77479999999997,395.465,399.773,403.086,407.954,411.785,417.333,420.2214,424.832,429.344,434.893,443.866,449.973,455.521,459.83,462.787,466.1,469.057,474.605,480.3818,485.072,488.456,496.8224,501.534,506.615,512.529" svgx:width="0.25,0.55,0.33,0.55,0.56,0.48,0.33,0.58,0.48,0.4,0.55,0.83,0.29,0.33,0.58,0.55,0.42,0.33,0.48,0.4,0.55,0.29,0.55,0.44,0.55,0.88,0.6,0.55,0.42,0.29,0.33,0.29,0.55,0.58,0.55,0.33,0.84,0.55,0.5,0.58,0.61" style="fill:rgb(0,0,0);font-family:URWPalladioL-Roma;font-size:9.96px;stroke:none;">, together with sterol composition (% and</text>
   <text y="333.486" x="76.535,85.508,91.158,97.316,102.397,107.478,112.458,120.241,125.891,129.275,131.76500000000001,138.949,145.178,154.791,160.126,166.2016,170.176,174.485,177.798,182.665,186.496,192.045,195.002,199.1852,203.152,208.802,211.759,217.5,222.2808,226.209,231.189,235.131,244.104,249.652,252.609,257.467,261.979,268.106,271.063,276.144,280.128,283.999,286.956,292.505,298.2818,302.26,305.573,311.487,316.568,319.8548,323.722,326.679,330.8622,334.829,340.743,346.292,349.5788,353.445,358.526,364.146,370.274,376.188,382.397,387.478,393.392,396.704,399.194,403.421,411.896,417.811,420.768,423.725,428.5058,432.434,435.746,441.66,446.4408,450.359,456.507,460.521,464.829,468.11580000000004,471.983,476.292,479.249,484.899,490.813,493.77,499.918,504.43,509.511,515.425" svgx:width="0.88,0.56,0.61,0.5,0.5,0.5,0.55,0.56,0.33,0.25,0.55,0.61,0.95,0.52,0.61,0.55,0.42,0.33,0.48,0.4,0.55,0.29,0.42,0.55,0.56,0.29,0.56,0.48,0.55,0.5,0.55,0.88,0.55,0.29,0.48,0.44,0.6,0.29,0.5,0.4,0.55,0.29,0.55,0.58,0.55,0.33,0.58,0.5,0.33,0.55,0.29,0.42,0.55,0.58,0.55,0.33,0.55,0.5,0.55,0.6,0.58,0.61,0.5,0.58,0.33,0.25,0.55,0.83,0.58,0.29,0.29,0.48,0.55,0.33,0.58,0.48,0.55,0.61,0.4,0.42,0.33,0.55,0.42,0.29,0.56,0.58,0.29,0.61,0.44,0.5,0.58,0.33" style="fill:rgb(0,0,0);font-family:URWPalladioL-Roma;font-size:9.96px;stroke:none;">mg/100 g). TMSE sterols give a molecular ion that is not abundant, while the ﬁrst signiﬁcant</text>
   <text y="346.995" x="76.535,79.492,85.04,90.8168,95.03,100.578,106.197,110.506,115.374,119.388,125.129,129.997,136.07260000000002,140.28,143.237,149.0138,153.227,156.539,162.453,167.2338,171.406,177.32,180.277,185.927,191.7038,195.916,204.889,209.97,214.279,218.4622,222.662,226.676,231.757,237.672,243.322,248.1028,252.264,260.739,265.82,270.0032,274.203,280.331,284.64,290.767,295.848,298.805,301.762,307.3396,311.487,316.355,322.045,328.173,331.13,336.871,341.952,344.91,349.777,355.691,358.9778,363.089,366.402,371.88,376.025,379.409,389.022,392.406,397.487,402.568" svgx:width="0.29,0.55,0.58,0.55,0.55,0.55,0.42,0.48,0.4,0.56,0.48,0.61,0.55,0.29,0.58,0.55,0.33,0.58,0.48,0.55,0.58,0.29,0.56,0.58,0.55,0.88,0.5,0.42,0.42,0.55,0.4,0.5,0.58,0.56,0.48,0.55,0.83,0.5,0.42,0.55,0.6,0.42,0.6,0.5,0.29,0.29,0.56,0.55,0.48,0.56,0.6,0.29,0.56,0.5,0.29,0.48,0.58,0.33,0.55,0.33,0.55,0.55,0.33,0.95,0.33,0.5,0.5,0.33" style="fill:rgb(0,0,0);font-family:URWPalladioL-Roma;font-size:9.96px;stroke:none;">ion observed in the high mass range was usually equivalent to [M-15]</text>
   <text y="343.379" x="405.949" svgx:width="0.61" style="fill:rgb(0,0,0);font-family:URWPalladioL-Roma;font-size:7.57px;stroke:none;">+</text>
   <text y="346.995" x="411.035,413.52500000000003,418.047,424.256,430.383,435.1638,439.326,442.638,448.116,452.272,455.585,461.499,466.2798,470.441,473.398,478.947,483.255,487.4382,491.639,497.187,500.47380000000004,504.646,507.959,513.873" svgx:width="0.25,0.55,0.61,0.6,0.48,0.55,0.33,0.55,0.55,0.33,0.58,0.48,0.55,0.29,0.55,0.42,0.42,0.55,0.55,0.33,0.55,0.33,0.58,0.48" style="fill:rgb(0,0,0);font-family:URWPalladioL-Roma;font-size:9.96px;stroke:none;">, due to the loss of the</text>
   <text y="360.505" x="76.535,85.323,90.09,93.335,99.127,104.661,107.5494,110.046,113.29,118.057,121.989,130.777,133.673,139.466,144.442,147.3304,149.836,155.37,159.122,164.556,170.558,176.539,179.029,182.113,189.935,193.18,198.972,203.74,207.72400000000002,210.169,218.957,223.934,226.83,232.60680000000002,235.11,238.425,242.356,247.332,252.866,261.654,266.421,272.214,275.5008,277.946,280.843,286.277,292.069,296.2522,298.787,304.789,309.009,313.776,317.09,323.092,325.9804,328.476,331.79,337.224,341.20799999999997,343.654,346.55,352.631,357.398,363.191,366.435,369.332,372.646,378.179,381.076,386.868,392.4456,394.89,398.134,403.927,408.7078,411.182,415.402,418.299,424.091,429.625,432.521,437.3018,439.786,444.006,447.251,452.018,455.77,461.204,464.0924,466.589,471.008,476.442,485.23,491.212,496.646,502.647,508.44,514.521" svgx:width="0.88,0.48,0.33,0.58,0.56,0.29,0.55,0.33,0.48,0.4,0.88,0.29,0.58,0.5,0.29,0.55,0.56,0.4,0.55,0.6,0.6,0.25,0.55,0.79,0.33,0.58,0.48,0.4,0.55,0.88,0.5,0.29,0.58,0.55,0.33,0.4,0.5,0.56,0.88,0.48,0.58,0.33,0.55,0.29,0.55,0.58,0.42,0.55,0.6,0.42,0.48,0.33,0.6,0.29,0.55,0.33,0.55,0.4,0.55,0.29,0.61,0.48,0.58,0.33,0.29,0.33,0.56,0.29,0.58,0.56,0.55,0.33,0.58,0.48,0.55,0.42,0.29,0.58,0.56,0.29,0.48,0.55,0.42,0.33,0.48,0.4,0.55,0.29,0.55,0.44,0.55,0.88,0.6,0.55,0.6,0.58,0.61,0.42" style="fill:rgb(0,0,0);font-family:URWPalladioL-Roma;font-size:9.96px;stroke:none;">methyl terminal group. Other main fragment ions useful for identifying the single sterol compounds</text>
   <text y="374.014" x="76.535,81.616,85.447,90.2278,93.434,96.818,106.431,109.815,114.896,119.977" svgx:width="0.5,0.4,0.48,0.55,0.33,0.95,0.33,0.5,0.5,0.33" style="fill:rgb(0,0,0);font-family:URWPalladioL-Roma;font-size:9.96px;stroke:none;">are [M-90]</text>
   <text y="370.397" x="123.357" svgx:width="0.61" style="fill:rgb(0,0,0);font-family:URWPalladioL-Roma;font-size:7.57px;stroke:none;">+</text>
   <text y="374.014" x="128.443,130.93300000000002,134.256,137.639,147.253,150.636,155.717,160.798,165.879" svgx:width="0.25,0.55,0.33,0.95,0.33,0.5,0.5,0.5,0.33" style="fill:rgb(0,0,0);font-family:URWPalladioL-Roma;font-size:9.96px;stroke:none;">, [M-105]</text>
   <text y="370.397" x="169.258" svgx:width="0.61" style="fill:rgb(0,0,0);font-family:URWPalladioL-Roma;font-size:7.57px;stroke:none;">+</text>
   <text y="374.014" x="174.345,176.835,180.158,185.239,191.153,197.2286,200.471,203.855,213.468,216.852,221.933,227.014,232.095" svgx:width="0.25,0.55,0.5,0.58,0.61,0.55,0.33,0.95,0.33,0.5,0.5,0.5,0.33" style="fill:rgb(0,0,0);font-family:URWPalladioL-Roma;font-size:9.96px;stroke:none;">, and [M-129]</text>
   <text y="370.397" x="235.476" svgx:width="0.61" style="fill:rgb(0,0,0);font-family:URWPalladioL-Roma;font-size:7.57px;stroke:none;">+</text>
   <text y="374.014" x="240.562,243.05200000000002,248.051,254.281,260.195,265.062,270.63960000000003,276.941,281.453,287.002,291.016,294.847,299.714,304.023,310.13,315.678,321.593,327.6686,330.911,334.224,339.702,342.892,346.205,352.119,356.8998,360.096,363.053,368.601,372.91,377.0932,380.328,385.876,389.1628,392.37,395.683,401.597,406.3778,409.574,412.887,416.901,419.858,428.831,433.698,437.011,442.925,448.575,451.532,455.841,458.798,461.755,466.836,472.75,478.298,481.256,483.746,487.068,496.041,500.909,504.221,510.136,515.786" svgx:width="0.25,0.55,0.61,0.58,0.48,0.56,0.55,0.44,0.55,0.4,0.4,0.48,0.42,0.6,0.55,0.58,0.61,0.55,0.33,0.55,0.55,0.33,0.58,0.48,0.55,0.29,0.55,0.42,0.42,0.55,0.55,0.33,0.55,0.33,0.58,0.48,0.55,0.33,0.4,0.29,0.88,0.48,0.33,0.58,0.56,0.29,0.42,0.29,0.29,0.5,0.58,0.55,0.29,0.25,0.55,0.88,0.48,0.33,0.58,0.56,0.29" style="fill:rgb(0,0,0);font-family:URWPalladioL-Roma;font-size:9.96px;stroke:none;">. They correspond to the loss of the trimethylsilanol, methyl</text>
   <text y="387.523" x="76.535,82.185,86.016,91.564,97.692,103.66799999999999,107.488,115.963,118.92,122.233,128.0098,131.826,135.138,139.152,142.109,151.082,155.95,159.263,165.177,170.827,173.784,178.093,181.05,184.007,189.088,195.002,200.55,203.507,205.997,210.031,215.112,221.026,227.10160000000002,230.914,234.298,238.312,243.393,249.043,258.016,262.883,268.797,272.11,277.191,280.504,283.461,289.009,294.7858,298.602,304.15,307.4368,311.213,314.526,320.44,325.2208,328.996,334.077,336.617,341.698,345.082,349.594,355.244,359.756,362.713,368.261,374.369,379.236,385.15,388.463,394.377,399.458,405.373,410.921,417.028,422.942,427.81,433.724,438.805,444.719,448.032,453.946,457.777,462.645,468.559,473.3398,477.105,481.414,484.726,488.659,494.787,499.298,502.611,508.739,512.58,517.448" svgx:width="0.56,0.4,0.55,0.6,0.6,0.55,0.83,0.29,0.33,0.58,0.55,0.33,0.4,0.29,0.88,0.48,0.33,0.58,0.56,0.29,0.42,0.29,0.29,0.5,0.58,0.55,0.29,0.25,0.55,0.5,0.58,0.61,0.55,0.33,0.4,0.5,0.56,0.88,0.48,0.58,0.33,0.5,0.33,0.29,0.55,0.58,0.55,0.55,0.33,0.55,0.33,0.58,0.48,0.55,0.5,0.25,0.5,0.33,0.44,0.56,0.44,0.29,0.55,0.6,0.48,0.58,0.33,0.58,0.5,0.58,0.55,0.6,0.58,0.48,0.58,0.5,0.58,0.33,0.58,0.4,0.48,0.58,0.48,0.55,0.42,0.33,0.4,0.6,0.44,0.33,0.6,0.4,0.48,0.25" style="fill:rgb(0,0,0);font-family:URWPalladioL-Roma;font-size:9.96px;stroke:none;">group with trimethylsilanol, and fragmentation of the 1,2-cyclopenthanophenanthrene structure,</text>
   <text y="401.033" x="76.535,80.366,85.234,89.542,95.649,100.517,105.029,108.342,111.299,117.04,121.908,124.865,129.407,131.89700000000002,136.835,143.065,148.979,153.7598,160.035,166.142,169.973,174.841,181.05,186.598,195.571,198.528,204.442,209.523,215.437,218.7238,221.839,226.148,229.461,234.328,238.159,243.708,246.665,250.8482,254.073,259.621,262.9078,266.094,272.303,277.171,281.185,285.016,289.883,293.196,296.509,299.466,305.38,310.36,313.55,319.657,325.785,334.758,340.865,346.515,349.472,355.24879999999996,358.476,362.784,367.652,372.519,378.5946,381.817,387.366,390.323,393.21139999999997,396.369,401.45,405.291" svgx:width="0.4,0.48,0.42,0.6,0.48,0.44,0.33,0.29,0.56,0.48,0.29,0.56,0.25,0.55,0.61,0.58,0.48,0.55,0.6,0.4,0.48,0.61,0.55,0.88,0.29,0.58,0.5,0.58,0.33,0.55,0.42,0.33,0.48,0.4,0.55,0.29,0.42,0.55,0.55,0.33,0.55,0.61,0.48,0.4,0.4,0.48,0.33,0.33,0.29,0.58,0.5,0.55,0.6,0.6,0.88,0.6,0.56,0.29,0.58,0.55,0.42,0.48,0.48,0.61,0.55,0.55,0.29,0.29,0.55,0.5,0.4,0.48" style="fill:rgb(0,0,0);font-family:URWPalladioL-Roma;font-size:9.96px;stroke:none;">respectively. The predominant sterols of Berrettina pumpkin seed oil are</text>
   <text y="401.033" x="413.37" svgx:width="0.68" style="fill:rgb(0,0,0);font-family:PazoMath;font-size:9.96px;stroke:none;">∆</text>
   <text y="397.416" x="420.229" svgx:width="0.5" style="fill:rgb(0,0,0);font-family:URWPalladioL-Roma;font-size:7.57px;stroke:none;">7</text>
   <text y="401.033" x="424.513,427.897,432.206,435.518,440.386,444.217,449.765,452.722,457.031,459.521,462.813,465.77,471.54679999999996,474.774,480.881,485.962,489.976,493.288,496.246,500.757,506.885,509.842,514.923" svgx:width="0.33,0.42,0.33,0.48,0.4,0.55,0.29,0.42,0.25,0.55,0.29,0.58,0.55,0.6,0.5,0.4,0.33,0.29,0.44,0.6,0.29,0.5,0.4" style="fill:rgb(0,0,0);font-family:URWPalladioL-Roma;font-size:9.96px;stroke:none;">-sterols, in particular</text>
   <text y="414.542" x="76.66" svgx:width="0.68" style="fill:rgb(0,0,0);font-family:PazoMath;font-size:9.96px;stroke:none;">∆</text>
   <text y="410.926" x="83.519,87.305,89.198,92.983,96.769,98.662,102.448" svgx:width="0.5,0.25,0.5,0.5,0.25,0.5,0.5" style="fill:rgb(0,0,0);font-family:URWPalladioL-Roma;font-size:7.57px;stroke:none;">7,22,25</text>
   <text y="414.542" x="106.732,110.083,114.349,117.629,120.558,126.152,135.037,140.068,144.335,147.615,152.646,155.926,159.901,162.829,167.649,173.505,178.999,181.927" svgx:width="0.33,0.42,0.33,0.29,0.56,0.88,0.5,0.42,0.33,0.5,0.33,0.4,0.29,0.48,0.58,0.55,0.29,0.25" style="fill:rgb(0,0,0);font-family:URWPalladioL-Roma;font-size:9.96px;stroke:none;">-stigmastatrienol,</text>
   <text y="414.542" x="187.056" svgx:width="0.68" style="fill:rgb(0,0,0);font-family:PazoMath;font-size:9.96px;stroke:none;">∆</text>
   <text y="410.926" x="193.915,197.701,199.594,203.379" svgx:width="0.5,0.25,0.5,0.5" style="fill:rgb(0,0,0);font-family:URWPalladioL-Roma;font-size:7.57px;stroke:none;">7,25</text>
   <text y="414.542" x="207.664,211.015,215.281,218.561,221.49,227.084,235.969,241.0,245.267,248.547,253.578,259.726,262.654,267.474,273.33,278.824,281.752,284.242,286.753,291.784,297.64,303.7156,306.284,310.55,316.598,319.526,325.382,330.413,334.679,337.96,342.78,346.573,352.067,354.995,357.485,359.996,368.388,374.244,377.172,381.64,387.41679999999997,389.991,395.023,399.49,403.958,409.452,415.519,421.376,424.656,429.476,435.5516,438.109,441.46,446.954,450.938,453.414,458.445,464.009,469.503,475.571,478.85780000000005,481.346,486.378,491.409,493.924,498.955,507.3214,509.893,515.387" svgx:width="0.33,0.42,0.33,0.29,0.56,0.88,0.5,0.42,0.33,0.5,0.61,0.29,0.48,0.58,0.55,0.29,0.25,0.55,0.5,0.58,0.61,0.55,0.42,0.6,0.29,0.58,0.5,0.42,0.33,0.48,0.4,0.55,0.29,0.25,0.55,0.83,0.58,0.29,0.44,0.58,0.55,0.5,0.44,0.44,0.55,0.6,0.58,0.33,0.48,0.61,0.55,0.33,0.55,0.4,0.55,0.5,0.55,0.55,0.6,0.33,0.55,0.5,0.5,0.25,0.5,0.84,0.55,0.55,0.33" style="fill:rgb(0,0,0);font-family:URWPalladioL-Roma;font-size:9.96px;stroke:none;">-stigmastadienol, and spinasterol, which accounted for about 76.8% of</text>
   <text y="428.051" x="76.535,79.763,85.527,90.3078,92.756,95.984,101.391,104.619,109.571,112.4594,114.948,119.147,122.375,127.119,130.842,136.249,139.131,143.33,145.82000000000002,148.301,151.598,157.005,159.887,162.769,168.176,176.435,181.178,187.2536,189.714,195.191" svgx:width="0.33,0.58,0.48,0.55,0.33,0.55,0.33,0.5,0.29,0.55,0.42,0.33,0.48,0.4,0.55,0.29,0.42,0.25,0.55,0.33,0.55,0.29,0.29,0.55,0.83,0.48,0.61,0.55,0.55,0.56" style="fill:rgb(0,0,0);font-family:URWPalladioL-Roma;font-size:9.96px;stroke:none;">the total sterols, followed by</text>
   <text y="428.051" x="203.31" svgx:width="0.68" style="fill:rgb(0,0,0);font-family:PazoMath;font-size:9.96px;stroke:none;">∆</text>
   <text y="424.435" x="210.169" svgx:width="0.5" style="fill:rgb(0,0,0);font-family:URWPalladioL-Roma;font-size:7.57px;stroke:none;">7</text>
   <text y="428.051" x="214.453,217.751,222.702,228.297,233.041,238.804,243.755,247.954,251.183,255.926,259.659,265.066,267.95439999999996,270.434,275.385,281.149" svgx:width="0.33,0.5,0.56,0.48,0.58,0.5,0.42,0.33,0.48,0.4,0.55,0.29,0.55,0.5,0.58,0.61" style="fill:rgb(0,0,0);font-family:URWPalladioL-Roma;font-size:9.96px;stroke:none;">-avenasterol and</text>
   <text y="428.051" x="289.814" svgx:width="0.68" style="fill:rgb(0,0,0);font-family:PazoMath;font-size:9.96px;stroke:none;">∆</text>
   <text y="424.435" x="296.673" svgx:width="0.5" style="fill:rgb(0,0,0);font-family:URWPalladioL-Roma;font-size:7.57px;stroke:none;">7</text>
   <text y="428.051" x="300.957,304.255,308.453,311.682,314.563,320.069,328.814,333.765,337.964,341.192,345.936,351.699,357.106,359.988,362.478,365.553,371.624,377.387" svgx:width="0.33,0.42,0.33,0.29,0.56,0.88,0.5,0.42,0.33,0.48,0.58,0.55,0.29,0.25,0.55,0.61,0.58,0.48" style="fill:rgb(0,0,0);font-family:URWPalladioL-Roma;font-size:9.96px;stroke:none;">-stigmastenol. The</text>
   <text y="428.051" x="384.741" svgx:width="0.68" style="fill:rgb(0,0,0);font-family:PazoMath;font-size:9.96px;stroke:none;">∆</text>
   <text y="424.435" x="391.6" svgx:width="0.5" style="fill:rgb(0,0,0);font-family:URWPalladioL-Roma;font-size:7.57px;stroke:none;">5</text>
   <text y="428.051" x="395.884,399.182,403.38,406.609,411.352,415.086,420.493,423.374,427.5572,430.059,438.318,443.061,446.794,451.5748,454.023,457.757,462.5,468.452,472.185,476.929,481.127,485.871,491.634,494.863,499.606,505.6816,508.142,513.619" svgx:width="0.33,0.42,0.33,0.48,0.4,0.55,0.29,0.42,0.55,0.83,0.48,0.4,0.48,0.55,0.4,0.48,0.6,0.4,0.48,0.42,0.48,0.58,0.33,0.48,0.61,0.55,0.55,0.56" style="fill:rgb(0,0,0);font-family:URWPalladioL-Roma;font-size:9.96px;stroke:none;">-sterols were represented by</text>
   <text y="441.561" x="76.535,80.936,85.893,94.646,100.603,105.351,109.554,112.786,117.534,121.271,126.684,129.568,132.05800000000002,134.545,138.748,141.979,144.864,150.375,159.128,164.085,168.288,171.519,176.268,180.005,185.417,188.302,190.792,193.278,198.234,204.004,210.0796,212.558,217.971,223.74,226.624,232.20159999999998,234.634,239.61399999999998,242.088,244.973,247.858,251.089,254.321,257.205,261.9858,264.452,268.853,274.622,280.035,282.919,287.667,291.87,295.102,299.85,303.587,309.0,311.884,314.374,316.861,321.817,326.0002,328.518,331.403,337.1798,339.67,345.082,348.314,354.083,358.831,362.815,365.245,368.546,373.958,379.371,385.427,389.63,392.862,398.839,401.962,405.2488,407.761" svgx:width="0.44,0.5,0.88,0.6,0.48,0.42,0.33,0.48,0.4,0.55,0.29,0.25,0.55,0.42,0.33,0.29,0.56,0.88,0.5,0.42,0.33,0.48,0.4,0.55,0.29,0.25,0.55,0.5,0.58,0.61,0.55,0.55,0.58,0.29,0.56,0.55,0.5,0.55,0.29,0.29,0.33,0.33,0.29,0.48,0.55,0.44,0.58,0.55,0.29,0.48,0.42,0.33,0.48,0.4,0.55,0.29,0.25,0.55,0.5,0.42,0.55,0.29,0.58,0.55,0.55,0.33,0.58,0.48,0.4,0.55,0.33,0.55,0.55,0.61,0.42,0.33,0.6,0.33,0.33,0.55,0.33" style="fill:rgb(0,0,0);font-family:URWPalladioL-Roma;font-size:9.96px;stroke:none;">campesterol, stigmasterol, and only a little cholesterol, as in other foodstuff [</text>
   <text y="441.561" x="411.061,416.042" svgx:width="0.5,0.5" style="fill:rgb(8,117,183);font-family:URWPalladioL-Roma;font-size:9.96px;stroke:none;">47</text>
   <text y="441.561" x="421.024,424.325,426.815,429.916,437.588,440.473,443.595,446.896,451.645,455.382,460.13,465.899,470.3,475.049,479.2322,481.75,487.232,491.98,495.211,503.479,508.227,512.975" svgx:width="0.33,0.25,0.55,0.77,0.29,0.33,0.33,0.48,0.4,0.48,0.58,0.44,0.48,0.42,0.55,0.55,0.48,0.33,0.83,0.48,0.48,0.58" style="fill:rgb(0,0,0);font-family:URWPalladioL-Roma;font-size:9.96px;stroke:none;">]. Differences between</text>
   <text y="455.07" x="76.535,79.815,85.672,90.4528,92.967,97.434,102.928,108.784,112.065,116.885,122.741,126.021,130.20420000000001,132.773,138.267" svgx:width="0.33,0.58,0.48,0.55,0.44,0.55,0.58,0.33,0.48,0.58,0.33,0.42,0.55,0.55,0.33" style="fill:rgb(0,0,0);font-family:URWPalladioL-Roma;font-size:9.96px;stroke:none;">the contents of</text>
   <text y="455.07" x="144.221" svgx:width="0.68" style="fill:rgb(0,0,0);font-family:PazoMath;font-size:9.96px;stroke:none;">∆</text>
   <text y="451.454" x="151.081" svgx:width="0.5" style="fill:rgb(0,0,0);font-family:URWPalladioL-Roma;font-size:7.57px;stroke:none;">5</text>
   <text y="455.07" x="155.365,158.6518,161.191,166.222,172.078" svgx:width="0.33,0.55,0.5,0.58,0.61" style="fill:rgb(0,0,0);font-family:URWPalladioL-Roma;font-size:9.96px;stroke:none;">- and</text>
   <text y="455.07" x="180.835" svgx:width="0.68" style="fill:rgb(0,0,0);font-family:PazoMath;font-size:9.96px;stroke:none;">∆</text>
   <text y="451.454" x="187.695" svgx:width="0.5" style="fill:rgb(0,0,0);font-family:URWPalladioL-Roma;font-size:7.57px;stroke:none;">7</text>
   <text y="455.07" x="191.979,195.33,199.596,202.876,207.696,211.49,216.984,219.912,224.0952,226.663,231.131,236.625,242.693,245.621,251.69660000000002,254.244,259.808,264.5888,267.114,272.145,275.415,278.695,282.67,285.598,291.162,297.23,300.51,305.33,311.4056,313.963,317.244,322.72200000000004,325.213,328.493,334.349,339.1298,341.655,350.54,355.571,358.851,364.918,368.893,371.821,375.101,380.6786,383.171,387.438,390.718,395.749,401.344,406.1248,408.649,414.143,417.4298,419.969,424.235,429.055,433.875,440.023,444.2062,446.775,452.269,456.253,458.719,461.999,467.47700000000003,469.978,473.258,479.115,483.8958,486.41,490.676,496.17,499.098,504.783,509.603,515.459" svgx:width="0.33,0.42,0.33,0.48,0.4,0.55,0.29,0.42,0.55,0.44,0.55,0.6,0.29,0.61,0.55,0.55,0.48,0.55,0.5,0.33,0.33,0.4,0.29,0.55,0.6,0.33,0.48,0.61,0.55,0.33,0.55,0.55,0.33,0.58,0.48,0.55,0.88,0.5,0.33,0.6,0.4,0.29,0.33,0.56,0.55,0.42,0.33,0.5,0.56,0.48,0.55,0.55,0.33,0.55,0.42,0.48,0.48,0.61,0.42,0.55,0.55,0.4,0.55,0.33,0.55,0.55,0.33,0.58,0.48,0.55,0.42,0.55,0.29,0.56,0.48,0.58,0.33" style="fill:rgb(0,0,0);font-family:URWPalladioL-Roma;font-size:9.96px;stroke:none;">-sterols could be attributed to the maturity stage of seeds or to the solvent</text>
   <text y="468.58" x="76.535,82.663,86.971,91.839,97.9146,101.076,104.033,109.8098,112.975,116.288,122.202,126.9828,130.098,134.966,140.209,143.522,147.536,152.617,157.129,160.441,163.398,168.947,174.7238,177.889,183.997,187.828,193.376,197.888,202.755,208.964,215.092,218.923,223.7038,226.819" svgx:width="0.6,0.42,0.48,0.61,0.55,0.29,0.58,0.55,0.33,0.58,0.48,0.55,0.48,0.52,0.33,0.4,0.5,0.44,0.33,0.29,0.55,0.58,0.55,0.6,0.4,0.55,0.44,0.48,0.61,0.6,0.4,0.48,0.55,0.33" style="fill:rgb(0,0,0);font-family:URWPalladioL-Roma;font-size:9.96px;stroke:none;">used in the extraction procedure [</text>
   <text y="468.58" x="230.206,235.187" svgx:width="0.5,0.5" style="fill:rgb(8,117,183);font-family:URWPalladioL-Roma;font-size:9.96px;stroke:none;">15</text>
   <text y="468.58" x="240.169,243.553,246.043,250.788,258.5568,261.722,265.035,270.583,273.896,278.977,281.86539999999997,284.962,289.271,292.584,297.451,301.293,306.841,309.7294,312.826,317.338,322.887,328.801,332.113,336.981,342.895,346.1818,349.226,354.774,358.06080000000003,361.187,366.267,371.348,376.32800000000003,379.458,388.43,394.08,400.239,405.319,410.4,415.38,418.51,424.0876,427.188,432.736,435.693,438.5814,441.679,450.154,455.234,459.4172,462.571,471.544,476.412,481.493,485.801,491.929,495.76,500.627,506.7026,509.865,512.822" svgx:width="0.33,0.25,0.55,0.78,0.55,0.33,0.55,0.33,0.5,0.29,0.55,0.42,0.33,0.48,0.4,0.55,0.29,0.55,0.44,0.55,0.58,0.33,0.48,0.58,0.33,0.55,0.55,0.33,0.55,0.5,0.5,0.5,0.55,0.88,0.56,0.61,0.5,0.5,0.5,0.55,0.56,0.55,0.55,0.29,0.29,0.55,0.83,0.5,0.42,0.55,0.88,0.48,0.5,0.42,0.6,0.4,0.48,0.61,0.55,0.29,0.58" style="fill:rgb(0,0,0);font-family:URWPalladioL-Roma;font-size:9.96px;stroke:none;">]. A total sterol content of 295 mg/100 g oil was measured in</text>
   <text y="482.089" x="76.207,82.985,85.475,88.218,96.124,100.636,105.717,108.542,116.448" svgx:width="0.67,0.25,0.55,0.78,0.44,0.5,0.28,0.78,0.44" style="fill:rgb(0,0,0);font-family:URWPalladioL-Ital;font-size:9.96px;stroke:none;">C. maxima</text>
   <text y="482.089" x="123.66,127.969,132.836,137.704,143.77960000000002,146.605,152.154,155.111,158.068,160.55800000000002,163.413,168.494,173.575,176.115,181.095,183.889,192.862,198.512,204.67,209.751,214.832,219.81199999999998,222.616,228.1936,230.959,239.434,244.515,248.69819999999999,251.516,255.358,260.225,266.332,270.163,275.031,279.34,284.207,290.121,293.434,298.302,304.37760000000003,307.203,312.823" svgx:width="0.42,0.48,0.48,0.61,0.55,0.55,0.29,0.29,0.25,0.55,0.5,0.5,0.25,0.5,0.55,0.88,0.56,0.61,0.5,0.5,0.5,0.55,0.56,0.55,0.83,0.5,0.42,0.55,0.4,0.48,0.6,0.4,0.48,0.42,0.48,0.58,0.33,0.48,0.61,0.55,0.55,0.56" style="fill:rgb(0,0,0);font-family:URWPalladioL-Roma;font-size:9.96px;stroke:none;">seed oil; 15.7 mg/100 g was represented by</text>
   <text y="482.089" x="321.298" svgx:width="0.68" style="fill:rgb(0,0,0);font-family:PazoMath;font-size:9.96px;stroke:none;">∆</text>
   <text y="478.473" x="328.157" svgx:width="0.5" style="fill:rgb(0,0,0);font-family:URWPalladioL-Roma;font-size:7.57px;stroke:none;">5</text>
   <text y="482.089" x="332.441,335.825,340.134,343.446,348.314,352.145,357.693,360.65,364.8332,367.662,372.743,378.657,384.7326,387.559,392.64,397.721,402.802,405.342,410.322,413.116,422.089,427.739,433.897,438.978,444.059,449.03900000000004,451.843,457.42060000000004,460.186,465.805" svgx:width="0.33,0.42,0.33,0.48,0.4,0.55,0.29,0.42,0.55,0.5,0.58,0.61,0.55,0.5,0.5,0.5,0.25,0.5,0.55,0.88,0.56,0.61,0.5,0.5,0.5,0.55,0.56,0.55,0.55,0.56" style="fill:rgb(0,0,0);font-family:URWPalladioL-Roma;font-size:9.96px;stroke:none;">-sterols and 279.3 mg/100 g by</text>
   <text y="482.089" x="474.279" svgx:width="0.68" style="fill:rgb(0,0,0);font-family:PazoMath;font-size:9.96px;stroke:none;">∆</text>
   <text y="478.473" x="481.138" svgx:width="0.5" style="fill:rgb(0,0,0);font-family:URWPalladioL-Roma;font-size:7.57px;stroke:none;">7</text>
   <text y="482.089" x="485.422,488.806,493.115,496.427,501.295,505.126,510.674,513.631,517.94" svgx:width="0.33,0.42,0.33,0.48,0.4,0.55,0.29,0.42,0.25" style="fill:rgb(0,0,0);font-family:URWPalladioL-Roma;font-size:9.96px;stroke:none;">-sterols.</text>
   <text y="495.598" x="76.226,82.455,88.369,93.1498,96.245,99.558,105.106,108.419,113.5,116.3884,119.465,123.977,129.525,135.439,138.752,143.619,149.534,152.8208,155.844,164.319,169.4,173.5832,176.717,179.674,185.45080000000002,188.596,193.677,199.327,203.158,208.025,212.893,221.866,226.733,232.647,235.9338,238.968,247.443,250.4,253.713,259.4898,262.635,268.183,271.496,277.41,282.278,286.262,289.3,293.608,296.921,303.049,309.258,312.215,317.082,321.2652,324.399" svgx:width="0.61,0.58,0.48,0.55,0.33,0.55,0.33,0.5,0.29,0.55,0.44,0.55,0.58,0.33,0.48,0.58,0.33,0.55,0.83,0.5,0.42,0.55,0.29,0.58,0.55,0.5,0.56,0.4,0.48,0.48,0.88,0.48,0.58,0.33,0.55,0.83,0.29,0.33,0.58,0.55,0.55,0.33,0.58,0.48,0.4,0.55,0.42,0.33,0.6,0.61,0.29,0.48,0.42,0.55,0.33" style="fill:rgb(0,0,0);font-family:URWPalladioL-Roma;font-size:9.96px;stroke:none;">The total content was in agreement with other studies [</text>
   <text y="495.598" x="327.78" svgx:width="0.5" style="fill:rgb(8,117,183);font-family:URWPalladioL-Roma;font-size:9.96px;stroke:none;">9</text>
   <text y="495.598" x="332.761" svgx:width="0.25" style="fill:rgb(0,0,0);font-family:URWPalladioL-Roma;font-size:9.96px;stroke:none;">,</text>
   <text y="495.598" x="335.302,340.283" svgx:width="0.5,0.5" style="fill:rgb(8,117,183);font-family:URWPalladioL-Roma;font-size:9.96px;stroke:none;">48</text>
   <text y="495.598" x="345.265,348.649,351.139,354.319,359.187,364.928,369.796,375.5728,378.718,381.675,384.96180000000004,388.067,393.047,396.156,404.631,407.588,413.797,418.5778,421.672,425.686,430.767,436.681,442.331,447.1118,450.206,455.755,459.0418,462.136,467.878,472.959,476.973,479.93,485.011,490.63,493.587,496.544,499.502,502.814,508.39160000000004,511.472,514.429" svgx:width="0.33,0.25,0.55,0.48,0.56,0.48,0.58,0.55,0.29,0.33,0.55,0.5,0.55,0.83,0.29,0.61,0.48,0.55,0.4,0.5,0.58,0.56,0.48,0.55,0.55,0.33,0.55,0.56,0.5,0.4,0.29,0.5,0.55,0.29,0.29,0.29,0.33,0.56,0.55,0.29,0.42" style="fill:rgb(0,0,0);font-family:URWPalladioL-Roma;font-size:9.96px;stroke:none;">], even if a wide range of variability is</text>
   <text y="509.108" x="76.535,80.366,85.234,91.341,96.889,100.903,104.216,109.083,115.15859999999999,117.904" svgx:width="0.4,0.48,0.6,0.55,0.4,0.33,0.48,0.61,0.55,0.33" style="fill:rgb(0,0,0);font-family:URWPalladioL-Roma;font-size:9.96px;stroke:none;">reported [</text>
   <text y="509.108" x="121.288" svgx:width="0.5" style="fill:rgb(8,117,183);font-family:URWPalladioL-Roma;font-size:9.96px;stroke:none;">9</text>
   <text y="509.108" x="126.269,129.653,132.143,135.638,144.093,148.96,154.875,159.386,164.244,166.734,169.426,178.399,183.948,187.779,192.5598,195.258,201.467,206.334,209.647,214.728,217.685,220.642,225.51,231.5856,234.33,239.198,244.441,249.522,258.495,261.452,267.366,272.447,275.76,278.717,284.265,290.18,294.3632,297.09,302.638,305.9248,308.634,311.946,317.861,322.6418,325.329,329.841,335.39,344.363,350.47,356.018,360.327,363.284,366.597,369.554,375.102,380.87879999999996,383.628,389.176,392.4628,395.172,398.485,404.399,409.1798,411.868,416.176,419.489,424.357,428.198,433.746,436.63439999999997,439.305,442.689,446.703,451.784,456.296,459.608,462.565,468.114,473.89079999999996,476.64,482.188,485.4748,488.173,491.486,497.4,500.357,504.5402,507.278,512.826,515.783" svgx:width="0.33,0.25,0.55,0.83,0.48,0.58,0.44,0.48,0.25,0.55,0.88,0.55,0.4,0.48,0.55,0.61,0.48,0.33,0.5,0.29,0.29,0.48,0.61,0.55,0.48,0.52,0.5,0.88,0.29,0.58,0.5,0.33,0.29,0.55,0.58,0.42,0.55,0.55,0.33,0.55,0.33,0.58,0.48,0.55,0.44,0.55,0.88,0.6,0.55,0.42,0.29,0.33,0.29,0.55,0.58,0.55,0.55,0.33,0.55,0.33,0.58,0.48,0.55,0.42,0.33,0.48,0.4,0.55,0.29,0.55,0.33,0.4,0.5,0.44,0.33,0.29,0.55,0.58,0.55,0.55,0.33,0.55,0.33,0.58,0.29,0.42,0.55,0.55,0.29,0.29" style="fill:rgb(0,0,0);font-family:URWPalladioL-Roma;font-size:9.96px;stroke:none;">]. Hence, more detailed examinations of the composition of the sterol fraction of this oil</text>
   <text y="522.617" x="76.535,80.936,86.349,92.326,95.211,101.28659999999999,103.765,109.247,114.0278,116.484,121.896,125.1828,127.695,131.898,137.855,142.604,147.005,149.89,154.846,157.7344,160.229,163.113,168.883,172.114,176.862,180.59,185.338,189.541,192.772,195.262,198.353,203.865,209.277,213.261,218.189,222.937,228.042,232.998,241.751,247.709,250.594,255.342,257.832,260.318,265.275,271.044,276.0,278.885,284.396,288.599,291.484,295.6672,298.185,303.597,306.8838,309.396,314.37600000000003,316.841,325.594,331.006,334.743,339.5238,341.99,346.738,351.853,355.084,359.833,365.602,369.805,372.689,378.29,383.0708,385.527,389.73,394.686,403.439,409.397,412.281,415.166,420.935,426.5126,428.945,431.829,436.0122,438.53,442.267,447.016,452.567,458.544,461.419,465.156,469.904,475.9796,478.459,481.76,487.172,491.156,493.586,499.068,503.816,507.047,510.279,515.027" svgx:width="0.44,0.55,0.6,0.29,0.61,0.55,0.55,0.48,0.55,0.55,0.33,0.55,0.42,0.6,0.48,0.44,0.29,0.5,0.29,0.55,0.29,0.58,0.33,0.48,0.4,0.48,0.42,0.33,0.25,0.55,0.56,0.55,0.4,0.55,0.48,0.52,0.5,0.88,0.6,0.29,0.48,0.25,0.55,0.5,0.58,0.5,0.29,0.56,0.42,0.29,0.42,0.55,0.55,0.33,0.55,0.5,0.55,0.88,0.55,0.4,0.48,0.55,0.48,0.52,0.33,0.48,0.58,0.42,0.29,0.56,0.48,0.55,0.42,0.5,0.88,0.6,0.29,0.29,0.58,0.56,0.55,0.29,0.42,0.55,0.4,0.48,0.56,0.6,0.29,0.4,0.48,0.61,0.55,0.33,0.55,0.4,0.55,0.55,0.48,0.33,0.33,0.48,0.4" style="fill:rgb(0,0,0);font-family:URWPalladioL-Roma;font-size:9.96px;stroke:none;">could be of special interest. For example, analysis of a more extensive sampling is required for better</text>
   <text y="536.127" x="76.535,80.958,86.757,91.738,95.673,100.654,105.078,108.326,113.098,117.033,119.932,124.913,129.895,133.142,136.042,141.481,147.2578,149.77,155.21,158.4968,161.018,167.005,173.013,181.81,187.797,193.336,196.236,202.0128,204.524,208.749,213.521,218.293,224.36860000000001,226.871,232.31,235.209,238.108,242.2912,244.823,249.804,255.603,261.6786,264.18,267.498,272.938,276.92199999999997,279.363,282.611,288.41,293.182,296.081,300.065,302.507,307.488,313.495,316.743,322.541,327.314,333.112,336.36,339.259,343.682,348.663,351.911,354.81,360.25,366.048" svgx:width="0.44,0.58,0.5,0.4,0.5,0.44,0.33,0.48,0.4,0.29,0.5,0.5,0.33,0.29,0.55,0.58,0.55,0.55,0.33,0.55,0.6,0.6,0.88,0.6,0.56,0.29,0.58,0.55,0.42,0.48,0.48,0.61,0.55,0.55,0.29,0.29,0.42,0.55,0.5,0.58,0.61,0.55,0.33,0.55,0.4,0.55,0.33,0.58,0.48,0.29,0.4,0.55,0.5,0.6,0.33,0.58,0.48,0.58,0.33,0.29,0.44,0.5,0.33,0.29,0.55,0.58,0.25" style="fill:rgb(0,0,0);font-family:URWPalladioL-Roma;font-size:9.96px;stroke:none;">characterization of pumpkin seed oils and for their authentication.</text>
   <text y="549.636" x="97.795,104.024,109.938,114.7188,117.814,122.895,125.852,130.364,135.912,141.826,147.375,150.332,153.289,157.67139999999998,160.809,164.193,168.206,173.287,177.799,181.112,184.069,189.617,195.3938,198.54,201.923,207.004,209.961,212.919,219.026,224.94,230.021,233.334,236.291,240.6734,243.811,248.892,254.806,260.8816,264.023,267.335,271.349,274.306,277.619,282.487,286.501,292.608,297.475,303.39,306.347,310.7294,313.866,318.378,321.335,326.416,330.725,335.034,339.901,344.21,347.4968,350.602,359.076,364.157,368.3402,371.474,376.555,379.512,383.821,389.29900000000004,392.377,396.685,399.988,406.116,412.325,415.282,420.149,426.358,428.848,432.039,437.12,440.503,443.816,448.684,452.668,455.706,461.914,466.782,470.796,473.753,479.494,484.575,487.888,490.845,495.926,501.007,504.32,507.277,512.825" svgx:width="0.61,0.58,0.48,0.55,0.5,0.29,0.44,0.55,0.58,0.55,0.29,0.29,0.44,0.55,0.33,0.4,0.5,0.44,0.33,0.29,0.55,0.58,0.55,0.33,0.5,0.29,0.29,0.6,0.58,0.5,0.33,0.29,0.44,0.55,0.5,0.58,0.61,0.55,0.33,0.4,0.29,0.33,0.48,0.4,0.6,0.48,0.58,0.29,0.44,0.55,0.44,0.29,0.5,0.42,0.42,0.48,0.42,0.33,0.55,0.83,0.5,0.42,0.55,0.5,0.29,0.42,0.55,0.55,0.42,0.33,0.6,0.61,0.29,0.48,0.61,0.25,0.55,0.5,0.33,0.33,0.48,0.4,0.55,0.61,0.48,0.4,0.29,0.56,0.5,0.33,0.29,0.5,0.5,0.33,0.29,0.55,0.58" style="fill:rgb(0,0,0);font-family:URWPalladioL-Roma;font-size:9.96px;stroke:none;">The alcoholic fraction (aliphatic and triterpenic classes) was also studied, after derivatization</text>
   <text y="563.145" x="76.535,81.606,85.7892,88.391,94.608,104.202,109.527,115.6026,118.208,123.279,129.182,135.2576,137.853,142.924,148.827,153.898,156.849,162.488,166.788,169.739,173.9222,176.524,182.133,187.7106,190.256,198.694,205.469,213.208,220.398,223.775,233.37,238.694,241.184,243.715,247.021,252.923,257.7038,260.256,263.562,269.201,275.297,278.248,282.751,287.822,290.7104,293.258,296.635,300.641,305.712,311.351,320.306,325.164,331.067,334.373,339.444,342.75,345.702,351.239,357.01579999999996,359.627,362.578,366.7612,369.363,373.186,378.044,384.14,389.677,393.683,396.989,401.847,407.9226,410.529,413.48,419.2568,421.868,427.162,432.233,437.841,440.792" svgx:width="0.5,0.42,0.55,0.61,0.95,0.52,0.61,0.55,0.5,0.58,0.61,0.55,0.5,0.58,0.5,0.29,0.56,0.42,0.29,0.42,0.55,0.55,0.56,0.55,0.83,0.67,0.76,0.71,0.33,0.95,0.52,0.25,0.55,0.33,0.58,0.48,0.55,0.33,0.56,0.6,0.29,0.44,0.5,0.29,0.55,0.33,0.4,0.5,0.56,0.88,0.48,0.58,0.33,0.5,0.33,0.29,0.55,0.58,0.55,0.29,0.42,0.55,0.4,0.48,0.6,0.55,0.4,0.33,0.48,0.61,0.55,0.29,0.58,0.55,0.61,0.5,0.55,0.29,0.48" style="fill:rgb(0,0,0);font-family:URWPalladioL-Roma;font-size:9.96px;stroke:none;">as TMSE and analysis by HRGC-MS; the typical fragmentation is reported in Table</text>
   <text y="563.145" x="448.135" svgx:width="0.5" style="fill:rgb(8,117,183);font-family:URWPalladioL-Roma;font-size:9.96px;stroke:none;">4</text>
   <text y="563.145" x="453.206,455.696,458.226,461.533,467.07,472.709,477.567,480.873,486.776,491.634,495.618,498.125,506.583,509.534,512.841" svgx:width="0.25,0.55,0.33,0.55,0.56,0.48,0.33,0.58,0.48,0.4,0.55,0.83,0.29,0.33,0.58" style="fill:rgb(0,0,0);font-family:URWPalladioL-Roma;font-size:9.96px;stroke:none;">, together with</text>
   <text y="576.655" x="76.535,79.848,85.762,90.5428,94.176,99.257,102.214,106.726,112.274,118.188,123.737,126.6254,130.251,134.762,140.311,149.284,155.391,160.939,165.248,168.205,171.518,174.475,180.023,185.7998,189.484,192.868,201.2344,204.95,210.031,215.945,222.0206,225.711,234.684,240.334,246.492,251.573,256.654,261.634,265.281,270.931,274.315,276.805,283.125,288.46,294.009,302.982,307.7628,311.396,316.477,319.434,322.391,328.498,334.412,339.493,342.806,345.763,350.1454,353.821,358.902,361.859,366.371,371.92,377.834,383.382,386.339,390.5222,394.205,397.589,400.962,404.803,410.352,419.11679999999996,422.871,430.076,435.157,440.137,443.794,447.107,452.58500000000004,456.202,463.407,468.488,473.468,477.115,486.088,490.956,499.929,505.548,510.416,514.43" svgx:width="0.33,0.58,0.48,0.55,0.5,0.29,0.44,0.55,0.58,0.55,0.29,0.55,0.44,0.55,0.88,0.6,0.55,0.42,0.29,0.33,0.29,0.55,0.58,0.55,0.33,0.84,0.55,0.5,0.58,0.61,0.55,0.88,0.56,0.61,0.5,0.5,0.5,0.55,0.56,0.33,0.25,0.55,0.52,0.55,0.88,0.48,0.55,0.5,0.29,0.29,0.6,0.58,0.5,0.33,0.29,0.44,0.55,0.5,0.29,0.44,0.55,0.58,0.55,0.29,0.42,0.55,0.33,0.33,0.4,0.55,0.88,0.55,0.71,0.5,0.5,0.55,0.33,0.55,0.55,0.71,0.5,0.5,0.55,0.88,0.48,0.88,0.55,0.48,0.4,0.42" style="fill:rgb(0,0,0);font-family:URWPalladioL-Roma;font-size:9.96px;stroke:none;">the alcohol composition (% and mg/100 g). Some aliphatic alcohols (from C16 to C25 members</text>
   <text y="590.164" x="76.535,82.083,85.3698,88.597,91.91,97.824,102.6048,105.811,110.892,114.276,119.357,122.314,127.964,133.045,138.959,144.508,147.3964,150.595,156.509,162.057,171.03,176.578,179.536,185.084,190.734,196.282,202.41,206.5932,209.848,214.157,219.024,223.038,225.996,230.863,235.172,238.4588,241.675,250.15,253.107,256.42,262.1968,265.464,271.013,277.221,283.2966,286.56,291.641,297.555,303.6306,306.884,311.751,317.493,322.36,328.1368,331.404,337.319,343.446,352.419,358.039,362.906,366.92,371.1032,374.359,379.907,383.1938,386.421,390.922,396.003,400.017,405.637,411.185,416.9618,420.229,425.31,428.623,434.171,443.144,447.3272,450.583,456.131,459.4178,462.645,465.957,471.872,476.6528,479.859,484.94,487.897,490.854,496.961,502.875,507.956,511.269,514.226" svgx:width="0.55,0.33,0.55,0.33,0.58,0.48,0.55,0.5,0.33,0.5,0.29,0.56,0.5,0.58,0.55,0.29,0.55,0.58,0.55,0.88,0.55,0.29,0.55,0.56,0.55,0.6,0.42,0.55,0.42,0.48,0.4,0.29,0.48,0.42,0.33,0.55,0.83,0.29,0.33,0.58,0.55,0.55,0.61,0.61,0.55,0.5,0.58,0.61,0.55,0.48,0.56,0.48,0.58,0.55,0.58,0.6,0.88,0.55,0.48,0.4,0.42,0.55,0.55,0.33,0.55,0.44,0.5,0.4,0.55,0.55,0.58,0.55,0.5,0.33,0.55,0.88,0.42,0.55,0.55,0.33,0.55,0.33,0.58,0.48,0.55,0.5,0.29,0.29,0.6,0.58,0.5,0.33,0.29,0.44" style="fill:rgb(0,0,0);font-family:URWPalladioL-Roma;font-size:9.96px;stroke:none;">of the 1-alkanol homologous series) with odd and even numbers of carbon atoms of the aliphatic</text>
   <text y="603.674" x="76.535,80.941,86.716,91.677,94.565,100.34179999999999,102.84,111.116,115.869,119.61,124.3908,126.863,129.751,135.814,140.567,146.342,149.576,152.464,158.467,163.22,169.283,171.773,174.869,180.952,186.727,191.5078,193.981,200.063,209.45,214.66,220.7356,223.223,228.184,231.072,235.478,240.895,246.67,252.088,254.976,259.1592,261.684,269.959,274.712,278.453,283.2338,285.707,288.594,294.657,299.41,305.185,308.42,311.307,317.31,322.063,328.1386,330.627,336.114,341.6916,344.132,348.537,353.955,362.717,368.681,373.642,377.561,380.449,384.656,390.064,395.8408,398.34,406.615,409.503,412.737,418.5138,421.013,424.248,430.023,434.8038,437.276,445.522,448.866,454.076,460.15160000000003,462.659,471.421,476.382,480.589,484.7722,487.297,491.504,497.468,502.221,506.626,509.861,513.781" svgx:width="0.44,0.58,0.5,0.29,0.58,0.55,0.83,0.48,0.4,0.48,0.55,0.29,0.61,0.48,0.58,0.33,0.29,0.61,0.48,0.61,0.25,0.55,0.61,0.58,0.48,0.55,0.61,0.95,0.52,0.61,0.55,0.5,0.29,0.44,0.55,0.58,0.55,0.29,0.42,0.55,0.83,0.48,0.4,0.48,0.55,0.29,0.61,0.48,0.58,0.33,0.29,0.61,0.48,0.61,0.55,0.55,0.56,0.55,0.44,0.55,0.88,0.6,0.5,0.4,0.29,0.42,0.55,0.58,0.55,0.83,0.29,0.33,0.58,0.55,0.33,0.58,0.48,0.55,0.83,0.34,0.52,0.61,0.55,0.88,0.5,0.42,0.42,0.55,0.42,0.6,0.48,0.44,0.33,0.4,0.5" style="fill:rgb(0,0,0);font-family:URWPalladioL-Roma;font-size:9.96px;stroke:none;">chain were identiﬁed. The TMSE alcohols were identiﬁed by comparison with the NIST mass spectra</text>
   <text y="617.183" x="76.535,79.492,82.449,88.069,92.083,97.164,101.177,105.72,108.21,114.977,121.207,130.82,136.155,142.2306,146.062,151.143,154.1,158.612,164.161,170.075,175.623,178.58,182.7632,186.598,192.248,195.205,200.947,205.7278,209.513,214.493,218.293,227.266,232.814,235.771,240.639,245.151,251.278,254.235,259.316,263.29999999999995,267.029,269.986,275.535,281.3118,285.148,288.46,294.375,299.456,302.74280000000005,306.467,309.424,313.6072,317.442,323.356,328.894,332.18080000000003,335.916,340.997,346.617,352.744,358.658,364.867,369.948,375.862,379.175,381.665,385.719,394.194,400.109,403.066,406.023,410.8038,414.589,417.902,423.816,428.5968,432.383,438.531,442.544,446.853,450.13980000000004,453.865,458.173,461.131,466.781,472.695,475.652,481.8,486.312,491.393,497.307,500.59380000000004,504.318,507.275,512.824" svgx:width="0.29,0.29,0.55,0.4,0.5,0.4,0.56,0.25,0.55,0.61,0.95,0.52,0.61,0.55,0.5,0.29,0.44,0.55,0.58,0.55,0.29,0.42,0.55,0.56,0.29,0.56,0.48,0.55,0.5,0.55,0.88,0.55,0.29,0.48,0.44,0.6,0.29,0.5,0.4,0.55,0.29,0.55,0.58,0.55,0.33,0.58,0.5,0.33,0.55,0.29,0.42,0.55,0.58,0.55,0.33,0.55,0.5,0.55,0.6,0.58,0.61,0.5,0.58,0.33,0.25,0.55,0.83,0.58,0.29,0.29,0.48,0.55,0.33,0.58,0.48,0.55,0.61,0.4,0.42,0.33,0.55,0.42,0.29,0.56,0.58,0.29,0.61,0.44,0.5,0.58,0.33,0.55,0.29,0.55,0.58" style="fill:rgb(0,0,0);font-family:URWPalladioL-Roma;font-size:9.96px;stroke:none;">library. TMSE alcohols give a molecular ion that is not abundant, while the ﬁrst signiﬁcant ion</text>
   <text y="630.692" x="76.535,82.083,87.703,92.012,96.879,100.893,106.634,111.502,117.57759999999999,120.505,123.462,129.2388,132.171,135.484,141.398,146.1788,149.06,154.974,157.931,163.581,169.3578,172.29,181.263,186.344,190.653,194.8362,197.756,201.77,206.851,212.765,218.415,223.1958,226.077,234.552,239.633,243.8162,246.736,251.603,257.294,263.422,266.379,272.12,277.201,280.158,285.026,290.94,294.2268,297.047,300.36,305.838,308.703,312.087,321.7,325.084,330.165,335.246" svgx:width="0.55,0.55,0.42,0.48,0.4,0.56,0.48,0.61,0.55,0.29,0.58,0.55,0.33,0.58,0.48,0.55,0.58,0.29,0.56,0.58,0.55,0.88,0.5,0.42,0.42,0.55,0.4,0.5,0.58,0.56,0.48,0.55,0.83,0.5,0.42,0.55,0.48,0.56,0.6,0.29,0.56,0.5,0.29,0.48,0.58,0.33,0.55,0.33,0.55,0.55,0.33,0.95,0.33,0.5,0.5,0.33" style="fill:rgb(0,0,0);font-family:URWPalladioL-Roma;font-size:9.96px;stroke:none;">observed in the high mass range was equivalent to [M-15]</text>
   <text y="627.076" x="338.625" svgx:width="0.61" style="fill:rgb(0,0,0);font-family:URWPalladioL-Roma;font-size:7.57px;stroke:none;">+</text>
   <text y="630.692" x="343.712,346.202,349.118,355.327,361.455,366.2358,369.117,372.429,377.907,380.772,384.085,389.999,394.7798,397.661,400.618,406.167,410.475,414.6582,417.578,423.127,426.41380000000004,429.305,432.618,438.532,443.3128,446.194,455.167,460.035,463.347,469.262,474.912,477.80039999999997,480.663,483.976,488.843,492.857,501.83,504.787,510.702,515.783" svgx:width="0.25,0.55,0.61,0.6,0.48,0.55,0.33,0.55,0.55,0.33,0.58,0.48,0.55,0.29,0.55,0.42,0.42,0.55,0.55,0.33,0.55,0.33,0.58,0.48,0.55,0.88,0.48,0.33,0.58,0.56,0.29,0.55,0.33,0.48,0.4,0.88,0.29,0.58,0.5,0.29" style="fill:rgb(0,0,0);font-family:URWPalladioL-Roma;font-size:9.96px;stroke:none;">, due to the loss of the methyl terminal</text>
   <text y="644.202" x="76.535,82.185,86.016,91.564,97.692,103.799,106.289,110.222,115.302,121.217,127.2926,131.023,134.407,144.02,147.404,152.485,157.566,162.647" svgx:width="0.56,0.4,0.55,0.6,0.6,0.25,0.55,0.5,0.58,0.61,0.55,0.33,0.95,0.33,0.5,0.5,0.5,0.33" style="fill:rgb(0,0,0);font-family:URWPalladioL-Roma;font-size:9.96px;stroke:none;">group, and [M-117]</text>
   <text y="640.585" x="166.034" svgx:width="0.61" style="fill:rgb(0,0,0);font-family:URWPalladioL-Roma;font-size:7.57px;stroke:none;">+</text>
   <text y="644.202" x="171.12,173.61,177.542,182.41,188.1,194.228,197.185,202.927,208.008,210.965,215.832,221.746,225.0328,228.656,231.969,237.447,241.115,244.428,250.342,255.1228,258.817,261.774,267.322,271.631,275.81419999999997,279.537,285.085,288.3718,292.066,295.45,298.834,306.039,314.494,319.574" svgx:width="0.25,0.55,0.48,0.56,0.6,0.29,0.56,0.5,0.29,0.48,0.58,0.33,0.55,0.33,0.55,0.55,0.33,0.58,0.48,0.55,0.29,0.55,0.42,0.42,0.55,0.55,0.33,0.55,0.33,0.33,0.71,0.83,0.5,0.33" style="fill:rgb(0,0,0);font-family:URWPalladioL-Roma;font-size:9.96px;stroke:none;">, equivalent to the loss of [(CH3)</text>
   <text y="646.022" x="322.96" svgx:width="0.5" style="fill:rgb(0,0,0);font-family:URWPalladioL-Roma;font-size:7.57px;stroke:none;">3</text>
   <text y="644.202" x="327.244,330.628,335.963,338.92,342.304,350.291" svgx:width="0.33,0.52,0.29,0.33,0.79,0.33" style="fill:rgb(0,0,0);font-family:URWPalladioL-Roma;font-size:9.96px;stroke:none;">-Si-O]</text>
   <text y="640.585" x="353.675" svgx:width="0.61" style="fill:rgb(0,0,0);font-family:URWPalladioL-Roma;font-size:7.57px;stroke:none;">+</text>
   <text y="644.202" x="358.762,361.252,365.184,368.141,370.682,375.549,378.09,380.58,384.502,387.815,393.729,398.5098,402.204,410.191,416.42,426.033,431.368,434.2564,437.923,443.573,447.404,452.952,459.08,465.187,467.677,474.15,483.763,489.311,493.142,498.01,503.558,509.3,514.167,517.449" svgx:width="0.25,0.55,0.29,0.25,0.48,0.25,0.25,0.55,0.33,0.58,0.48,0.55,0.79,0.61,0.95,0.52,0.29,0.55,0.56,0.4,0.55,0.6,0.6,0.25,0.55,0.95,0.55,0.4,0.48,0.55,0.56,0.48,0.4,0.25" style="fill:rgb(0,0,0);font-family:URWPalladioL-Roma;font-size:9.96px;stroke:none;">, i.e., the OTMSi group. Moreover,</text>
   <text y="657.711" x="76.535,84.658,91.18,98.629,105.552,108.803,118.039,123.2182,125.322,130.204,135.886,140.768,143.609,149.038,153.177,156.018,160.2012,162.316,167.647,170.9338,173.055,177.937,180.778,185.113,190.444,196.126,201.457,204.298,208.4812,210.596,215.477,218.728,221.911,226.588,230.572,232.602,238.568,243.693,249.678,254.374,264.128,270.093,274.77,278.627,281.468,286.984,291.866,295.049,297.89,302.771,307.653,310.836,313.677,319.008,324.78479999999996,326.848,330.519,335.195,339.335,345.222,348.064,351.246,355.923,361.9986,364.046,366.887,372.6638,374.727,380.244,385.125,388.982,391.823,397.154,403.041,407.2242,409.338,415.206,419.883,424.764,430.193,434.3762,436.49,444.633,447.474,450.657,456.43379999999996,458.497,467.733,472.9122,475.016,478.268,482.124,487.006,492.434,501.055,505.732,511.414,514.597" svgx:width="0.83,0.67,0.76,0.71,0.33,0.95,0.52,0.55,0.5,0.58,0.5,0.29,0.56,0.42,0.29,0.42,0.55,0.55,0.33,0.55,0.5,0.29,0.44,0.55,0.58,0.55,0.29,0.42,0.55,0.5,0.33,0.33,0.48,0.4,0.55,0.61,0.52,0.61,0.56,0.78,0.61,0.48,0.4,0.29,0.56,0.5,0.33,0.29,0.5,0.5,0.33,0.29,0.55,0.58,0.55,0.4,0.48,0.42,0.6,0.29,0.33,0.48,0.61,0.55,0.29,0.58,0.55,0.56,0.5,0.4,0.29,0.55,0.6,0.42,0.55,0.6,0.48,0.5,0.56,0.42,0.55,0.83,0.29,0.33,0.58,0.55,0.95,0.52,0.55,0.33,0.4,0.5,0.56,0.88,0.48,0.58,0.33,0.42" style="fill:rgb(0,0,0);font-family:URWPalladioL-Roma;font-size:9.96px;stroke:none;">HRGC-MS analysis of alcohols after BSTFAderivatization resulted in various peaks with MS fragments</text>
   <text y="671.221" x="76.535,84.441,87.449" svgx:width="0.78,0.3,0.44" style="fill:rgb(0,0,0);font-family:URWPalladioL-Ital;font-size:9.96px;stroke:none;">m/z</text>
   <text y="671.221" x="94.985,100.066,105.147,107.637,110.848,115.929,121.01,123.5,126.7,131.781,136.862,141.943,144.43300000000002,147.644,152.725,158.639,164.71460000000002,167.876,172.957,178.038,183.018,186.137,190.649,196.563,201.644,205.658,210.739,215.251,218.563,223.431,227.445,230.402,234.711,238.023,240.98,245.492,249.6752,252.829,256.213,261.761,265.745,268.793,276.781,283.01,292.623,297.958,300.8464,303.943,309.593,313.424,318.973,325.1,331.207,335.516,338.00600000000003,342.751,348.98,354.895,359.6758,362.78,368.887,373.755,378.836,384.41360000000003,387.514,392.595" svgx:width="0.5,0.5,0.25,0.55,0.5,0.5,0.25,0.55,0.5,0.5,0.5,0.25,0.55,0.5,0.58,0.61,0.55,0.5,0.5,0.5,0.55,0.44,0.58,0.5,0.4,0.5,0.44,0.33,0.48,0.4,0.29,0.42,0.33,0.29,0.44,0.42,0.55,0.33,0.55,0.4,0.55,0.79,0.61,0.95,0.52,0.29,0.55,0.56,0.4,0.55,0.6,0.6,0.42,0.25,0.55,0.61,0.58,0.48,0.55,0.6,0.48,0.5,0.56,0.55,0.5,0.33" style="fill:rgb(0,0,0);font-family:URWPalladioL-Roma;font-size:9.96px;stroke:none;">73, 75, 103, and 117 characteristics for OTMSi groups. The peak at</text>
   <text y="671.221" x="398.93" svgx:width="0.78" style="fill:rgb(0,0,0);font-family:URWPalladioL-Ital;font-size:9.96px;stroke:none;">m</text>
   <text y="671.221" x="406.836" svgx:width="0.61" style="fill:rgb(0,0,0);font-family:URWPalladioL-Roma;font-size:9.96px;stroke:none;">/</text>
   <text y="671.221" x="412.994" svgx:width="0.44" style="fill:rgb(0,0,0);font-family:URWPalladioL-Ital;font-size:9.96px;stroke:none;">z</text>
   <text y="671.221" x="420.53,425.611,430.692,435.773,438.26300000000003,441.474,445.985,451.534,455.548,459.379,464.246,468.555,474.662,480.211,486.125,492.334,495.291,501.205,506.7826,509.883,513.196" svgx:width="0.5,0.5,0.5,0.25,0.55,0.44,0.55,0.4,0.4,0.48,0.42,0.6,0.55,0.58,0.61,0.29,0.58,0.56,0.55,0.33,0.55" style="fill:rgb(0,0,0);font-family:URWPalladioL-Roma;font-size:9.96px;stroke:none;">129, corresponding to</text>
   <text y="684.73" x="76.535,79.872,83.21,90.316,98.654,103.666" svgx:width="0.33,0.33,0.71,0.83,0.5,0.33" style="fill:rgb(0,0,0);font-family:URWPalladioL-Roma;font-size:9.96px;stroke:none;">[(CH3)</text>
   <text y="686.55" x="107.003" svgx:width="0.5" style="fill:rgb(0,0,0);font-family:URWPalladioL-Roma;font-size:7.57px;stroke:none;">3</text>
   <text y="684.73" x="111.287,114.624,119.886,122.803,126.14" svgx:width="0.33,0.52,0.29,0.33,0.79" style="fill:rgb(0,0,0);font-family:URWPalladioL-Roma;font-size:9.96px;stroke:none;">-Si-O</text>
   <text y="681.114" x="134.018" svgx:width="0.61" style="fill:rgb(0,0,0);font-family:URWPalladioL-Roma;font-size:7.57px;stroke:none;">+</text>
   <text y="684.73" x="139.104,145.178,152.283,160.622,163.96,171.065,179.404,185.478,192.583" svgx:width="0.61,0.71,0.83,0.33,0.71,0.83,0.61,0.71,0.83" style="fill:rgb(0,0,0);font-family:URWPalladioL-Roma;font-size:9.96px;stroke:none;">=CH-CH=CH</text>
   <text y="686.55" x="200.922" svgx:width="0.5" style="fill:rgb(0,0,0);font-family:URWPalladioL-Roma;font-size:7.57px;stroke:none;">2</text>
   <text y="684.73" x="205.206" svgx:width="0.33" style="fill:rgb(0,0,0);font-family:URWPalladioL-Roma;font-size:9.96px;stroke:none;">]</text>
   <text y="681.114" x="208.543" svgx:width="0.61" style="fill:rgb(0,0,0);font-family:URWPalladioL-Roma;font-size:7.57px;stroke:none;">+</text>
   <text y="684.73" x="213.63,216.12,218.621,224.454,229.465,233.6482,236.19,241.733,246.533,251.334,257.1108,259.643,262.559,268.683,273.484,279.317,282.584,285.5,291.564,296.365,302.4406,304.974,309.985,314.1682,316.71,319.977,325.81,330.5908,333.087,336.424,340.383,345.394,350.967,359.816,364.617,370.45,373.7368,376.203,381.675,385.634,388.55,394.123,397.039,402.872,407.884,411.151,414.067,419.9,425.4776,427.948,431.286,435.064,440.537,451.862,455.129,460.962,465.7428,468.248,473.791,477.569,482.37,487.381,492.954,499.077,504.549,512.908" svgx:width="0.25,0.55,0.58,0.5,0.42,0.55,0.55,0.48,0.48,0.58,0.55,0.29,0.61,0.48,0.58,0.33,0.29,0.61,0.48,0.61,0.55,0.5,0.42,0.55,0.33,0.58,0.48,0.55,0.33,0.4,0.5,0.56,0.88,0.48,0.58,0.33,0.55,0.55,0.4,0.29,0.56,0.29,0.58,0.5,0.33,0.29,0.58,0.56,0.55,0.33,0.4,0.55,0.88,0.33,0.58,0.48,0.55,0.55,0.4,0.48,0.5,0.56,0.61,0.55,0.83,0.58" style="fill:rgb(0,0,0);font-family:URWPalladioL-Roma;font-size:9.96px;stroke:none;">, has been identiﬁed as the fragment originating fromthe breakdown</text>
   <text y="698.239" x="76.535,81.985,85.2718,87.815,91.758,94.663,100.473,106.0506,108.519,116.2878,118.781,123.772,126.677,132.128,137.938,143.51559999999998,145.993,154.319,157.224,160.478,166.25480000000002,168.784,172.038,177.848,182.6288,185.135,191.254,200.698,205.87720000000002,208.434,217.249,222.699,225.604,230.386,233.64,238.092,240.58200000000002,243.702,249.253,254.703,260.723,264.707,267.161,275.976,280.967,283.872,289.6488,292.187,295.442,299.385,302.29,305.544,310.326,314.269,320.268,325.05,330.86,333.765,338.1474,340.693,345.684,348.589,353.021,358.471,364.281,369.732,372.637,376.8202,379.375,387.7,392.482,396.245,401.0258,403.523,406.427,412.527,417.308,423.118,426.372,429.277,435.317,440.098,446.198,448.688,451.808,457.328,463.348,466.602,472.152,475.916,481.366,485.599,491.598,496.38,500.323,509.138,514.588,517.493" svgx:width="0.55,0.33,0.55,0.4,0.29,0.58,0.56,0.55,0.78,0.55,0.5,0.29,0.55,0.58,0.56,0.55,0.83,0.29,0.33,0.58,0.55,0.33,0.58,0.48,0.55,0.61,0.95,0.52,0.55,0.88,0.55,0.29,0.48,0.33,0.56,0.25,0.55,0.56,0.55,0.6,0.4,0.55,0.88,0.5,0.29,0.58,0.55,0.33,0.4,0.29,0.33,0.48,0.4,0.6,0.48,0.58,0.29,0.44,0.55,0.5,0.29,0.44,0.55,0.58,0.55,0.29,0.42,0.55,0.83,0.48,0.4,0.48,0.55,0.29,0.61,0.48,0.58,0.33,0.29,0.61,0.48,0.61,0.25,0.55,0.55,0.6,0.33,0.56,0.4,0.55,0.42,0.6,0.48,0.4,0.88,0.55,0.29,0.25" style="fill:rgb(0,0,0);font-family:URWPalladioL-Roma;font-size:9.96px;stroke:none;">of ring A along with the TMS moiety. Four main triterpenic alcohols were identiﬁed: butyrospermol,</text>
   <text y="711.749" x="76.535,82.083,87.703,91.016,97.143,101.452,104.409,107.793,113.341,116.298,119.255,124.804,127.761" svgx:width="0.55,0.55,0.33,0.6,0.42,0.29,0.33,0.55,0.29,0.29,0.55,0.29,0.25" style="fill:rgb(0,0,0);font-family:URWPalladioL-Roma;font-size:9.96px;stroke:none;">obtusifoliol,</text>
   <text y="711.749" x="134.242" svgx:width="0.66" style="fill:rgb(0,0,0);font-family:EURM10;font-size:9.96px;stroke:none;">β</text>
   <text y="711.749" x="140.843,144.227,149.308,158.281,163.931,167.945,170.902,176.816,181.683,184.173,188.167,193.248,199.162,205.23760000000001,209.019,213.531,219.181,223.693,226.65,232.198,237.279,241.293,244.606,249.473,255.387,260.936,263.893,266.383,273.008,279.237,285.151,289.9318,293.667,299.317,304.185,309.7626,313.483,316.867,320.88,325.961,331.611,340.584,345.452,351.366,354.679,359.76,363.073,366.03,371.578,377.35479999999995,381.14,384.097,389.646,395.56,399.7432,403.527,412.002,416.869,420.7,425.4808,429.216,438.189,443.737,446.694,451.562,456.074,462.201,465.158,470.239,474.22299999999996,477.911,480.869,486.417,492.19379999999995,495.979,499.363,508.976" svgx:width="0.33,0.5,0.88,0.56,0.4,0.29,0.58,0.48,0.25,0.55,0.5,0.58,0.61,0.55,0.44,0.56,0.44,0.29,0.55,0.5,0.4,0.33,0.48,0.58,0.55,0.29,0.25,0.55,0.61,0.58,0.48,0.55,0.56,0.48,0.56,0.55,0.33,0.4,0.5,0.56,0.88,0.48,0.58,0.33,0.5,0.33,0.29,0.55,0.58,0.55,0.29,0.55,0.58,0.42,0.55,0.83,0.48,0.4,0.48,0.55,0.88,0.55,0.29,0.48,0.44,0.6,0.29,0.5,0.4,0.55,0.29,0.55,0.58,0.55,0.33,0.95,0.33" style="fill:rgb(0,0,0);font-family:URWPalladioL-Roma;font-size:9.96px;stroke:none;">-amyrine, and cycloartenol. The key fragmentation ions were molecular ion [M]</text>
   <text y="708.132" x="512.359" svgx:width="0.61" style="fill:rgb(0,0,0);font-family:URWPalladioL-Roma;font-size:7.57px;stroke:none;">+</text>
   <text y="711.749" x="517.445" svgx:width="0.25" style="fill:rgb(0,0,0);font-family:URWPalladioL-Roma;font-size:9.96px;stroke:none;">,</text>
   <text y="725.258" x="76.535,79.919,89.532,92.916,97.997,103.078" svgx:width="0.33,0.95,0.33,0.5,0.5,0.33" style="fill:rgb(0,0,0);font-family:URWPalladioL-Roma;font-size:9.96px;stroke:none;">[M-15]</text>
   <text y="721.642" x="106.462" svgx:width="0.61" style="fill:rgb(0,0,0);font-family:URWPalladioL-Roma;font-size:7.57px;stroke:none;">+</text>
   <text y="725.258" x="111.548,114.038,117.625,121.009,130.622,134.006,139.087,144.168" svgx:width="0.25,0.55,0.33,0.95,0.33,0.5,0.5,0.33" style="fill:rgb(0,0,0);font-family:URWPalladioL-Roma;font-size:9.96px;stroke:none;">, [M-90]</text>
   <text y="721.642" x="147.552" svgx:width="0.61" style="fill:rgb(0,0,0);font-family:URWPalladioL-Roma;font-size:7.57px;stroke:none;">+</text>
   <text y="725.258" x="152.639,155.12900000000002,158.716,163.797,169.711,175.78660000000002,179.243,182.627,192.24,195.624,200.705,205.786,210.866" svgx:width="0.25,0.55,0.5,0.58,0.61,0.55,0.33,0.95,0.33,0.5,0.5,0.5,0.33" style="fill:rgb(0,0,0);font-family:URWPalladioL-Roma;font-size:9.96px;stroke:none;">, and [M-105]</text>
   <text y="721.642" x="214.255" svgx:width="0.61" style="fill:rgb(0,0,0);font-family:URWPalladioL-Roma;font-size:7.57px;stroke:none;">+</text>
   <text y="725.258" x="219.342,221.83200000000002,227.482,235.388,238.345,241.302,247.409,253.323,258.404,261.717,264.674,269.0564,272.509,277.59,280.547,285.059,290.607,296.521,302.07,304.9584,308.36,312.872,318.42,324.334,327.647,332.515,338.429,341.7158,345.064,353.539,358.62,362.8032,366.262,371.343,376.424,378.964,384.045,392.581,395.071,398.658,404.206,407.49280000000005,410.913,419.388,425.302,428.26,432.771,438.5478,442.019,447.933,452.8,458.044,463.125,469.334,474.201,478.713,483.794,489.708,495.246,498.13439999999997,501.537,506.618,512.532" svgx:width="0.25,0.55,0.78,0.29,0.29,0.6,0.58,0.5,0.33,0.29,0.44,0.55,0.5,0.29,0.44,0.55,0.58,0.55,0.29,0.55,0.44,0.55,0.58,0.33,0.48,0.58,0.33,0.55,0.83,0.5,0.42,0.55,0.5,0.5,0.25,0.5,0.84,0.25,0.55,0.55,0.33,0.55,0.83,0.58,0.29,0.44,0.58,0.55,0.58,0.48,0.52,0.5,0.61,0.48,0.44,0.5,0.58,0.55,0.29,0.55,0.5,0.58,0.61" style="fill:rgb(0,0,0);font-family:URWPalladioL-Roma;font-size:9.96px;stroke:none;">. Aliphatic alcohol content was 36.8%, of which hexadecanol and</text>
   <text y="738.768" x="76.535,81.991,86.428,89.685,94.681,100.787,105.573,110.01,115.006,120.822,126.278,129.1664,131.684,140.017,144.804,148.571,153.3518,155.845,159.103,164.919,169.6998,172.203,181.026,186.482,190.719,194.0058,196.465,201.461,206.987,213.012,218.828,224.933,229.93,235.745,239.0318,241.501,244.829,249.615,254.611,259.048,264.8248,267.352,272.348,277.874,283.33,289.355,292.64180000000005,295.111,300.107,302.605,307.58500000000004,310.089,318.913,324.469,330.524,335.52,340.517,345.497,348.011,353.58860000000004,356.065,361.521,364.429,367.336,370.664,373.154,375.65,383.984,389.799,392.707,395.615,400.3958,402.9,406.157,410.104,413.012,416.269,421.056,425.003,431.008,435.795,441.61,444.518,448.9004,451.443,456.439,459.347,463.784,469.24,475.055,480.511,483.3994,485.917,490.354,495.81,501.625,504.883,509.669,515.485" svgx:width="0.55,0.44,0.33,0.5,0.61,0.48,0.44,0.5,0.58,0.55,0.29,0.55,0.83,0.48,0.4,0.48,0.55,0.33,0.58,0.48,0.55,0.88,0.55,0.42,0.33,0.55,0.5,0.55,0.6,0.58,0.61,0.5,0.58,0.33,0.55,0.33,0.48,0.5,0.44,0.58,0.55,0.5,0.55,0.55,0.6,0.33,0.55,0.5,0.25,0.5,0.55,0.88,0.56,0.61,0.5,0.5,0.5,0.55,0.56,0.55,0.55,0.29,0.29,0.33,0.25,0.55,0.83,0.58,0.29,0.29,0.48,0.55,0.33,0.4,0.29,0.33,0.48,0.4,0.6,0.48,0.58,0.29,0.44,0.55,0.5,0.29,0.44,0.55,0.58,0.55,0.29,0.55,0.44,0.55,0.58,0.33,0.48,0.58,0.33" style="fill:rgb(0,0,0);font-family:URWPalladioL-Roma;font-size:9.96px;stroke:none;">octadecanol were the most abundant (each about 4.4 mg/100 g oil), while triterpenic alcohol content</text>
   <text y="752.277" x="76.117,84.426,89.407,93.5902,96.122,101.103,104.859,110.299,116.306,122.104,128.1796,130.682,135.663,140.645,143.135,148.117,156.485,158.97500000000002,161.467,166.906,170.1928,172.714,181.023,186.821,189.72,194.144,199.9208,202.433,207.872,213.382,216.629,222.637,226.861,229.76,233.078,238.517,241.416,244.316,249.755,252.64339999999999,255.145,263.454,268.435,272.6182,275.15,278.398,284.196,288.9768,291.459,300.256,305.695,309.919,313.2058,315.658,320.639,326.148,332.156,337.954,344.041,349.022,354.821,358.10780000000005,360.559,363.877,368.858,373.839,376.33,381.31,383.802,392.599,398.138,404.175,409.157,414.138,419.118,421.61,427.18760000000003,429.64,435.079,437.978,440.878,444.195" svgx:width="0.83,0.5,0.42,0.55,0.5,0.4,0.55,0.6,0.58,0.61,0.55,0.5,0.5,0.25,0.5,0.84,0.25,0.55,0.55,0.33,0.55,0.83,0.58,0.29,0.44,0.58,0.55,0.55,0.55,0.33,0.6,0.42,0.29,0.33,0.55,0.29,0.29,0.55,0.29,0.55,0.83,0.5,0.42,0.55,0.33,0.58,0.48,0.55,0.88,0.55,0.42,0.33,0.55,0.5,0.55,0.6,0.58,0.61,0.5,0.58,0.33,0.55,0.33,0.5,0.5,0.25,0.5,0.55,0.88,0.56,0.61,0.5,0.5,0.5,0.55,0.56,0.55,0.55,0.29,0.29,0.33,0.25" style="fill:rgb(0,0,0);font-family:URWPalladioL-Roma;font-size:9.96px;stroke:none;">was around 63.2%, of which obtusifoliol was the most abundant (11.9 mg/100 g oil).</text>
  </g>
 </g>
</svg>
