<?xml version="1.0" encoding="UTF-8"?>
<svg height="775.227" width="530.529" xmlns="http://www.w3.org/2000/svg">
 <g id="page" xmlns:svgx="http://www.xml-cml.org/schema/svgx">
  <g begin="text">
   <text y="62.979" x="76.312,80.743,84.282,87.821,91.806" svgx:width="0.56,0.44,0.44,0.5,0.39" style="fill:rgb(0,0,0);font-family:URWPalladioL-Ital;font-size:7.97px;stroke:none;">Foods</text>
   <text y="62.979" x="98.891,102.876,106.861,110.846" svgx:width="0.5,0.5,0.5,0.5" style="fill:rgb(0,0,0);font-family:URWPalladioL-Bold;font-size:7.97px;stroke:none;">2018</text>
   <text y="62.979" x="114.831" svgx:width="0.25" style="fill:rgb(0,0,0);font-family:URWPalladioL-Roma;font-size:7.97px;stroke:none;">,</text>
   <text y="62.979" x="118.817" svgx:width="0.5" style="fill:rgb(0,0,0);font-family:URWPalladioL-Ital;font-size:7.97px;stroke:none;">7</text>
   <text y="62.979" x="122.802,124.79450000000001,126.787,130.772,134.757,495.794,499.779,501.772,506.123,508.7531,510.77,514.755" svgx:width="0.25,0.55,0.5,0.5,0.55,0.5,0.55,0.55,0.33,0.55,0.5,0.5" style="fill:rgb(0,0,0);font-family:URWPalladioL-Roma;font-size:7.97px;stroke:none;">, 30 6 of 14</text>
   <text y="97.848" x="76.535,81.516,84.007,88.988,93.97,96.46,99.549,106.194,110.617,114.313,118.737,122.054,125.93,131.469,135.892,138.662,143.642,146.134,153.327,158.866,163.289,166.059,171.04,174.916,177.685" svgx:width="0.5,0.25,0.5,0.5,0.25,0.55,0.67,0.44,0.39,0.44,0.33,0.39,0.56,0.44,0.28,0.5,0.55,0.72,0.56,0.44,0.28,0.5,0.39,0.28,0.39" style="fill:rgb(0,0,0);font-family:URWPalladioL-Ital;font-size:9.96px;stroke:none;">2.10. Carotenoid Analysis</text>
   <text y="117.335" x="97.795,104.024,109.938,114.7188,118.596,122.905,127.772,132.64,138.7156,142.639,148.188,151.145,154.0334,157.892,162.404,167.485,171.326,176.875,180.187,185.055,190.969,196.517,199.474,205.683,209.8662,213.782,222.257,227.125,230.956,235.7368,239.614,244.695,250.609,255.69,258.647,264.297,269.378,274.245,280.3206,284.245,289.864,295.4416,299.315,307.769,313.907,320.116,327.1876,331.111,339.586,342.543,345.846,351.6228,355.561,361.769,364.727,370.275,376.484,381.351,384.735,389.816,393.83,397.844,402.925,408.50260000000003,412.365,417.446,423.36,429.4356,433.36,442.333,447.414,451.722,455.9052,459.821,464.13,470.237,475.105,479.616,482.929,486.76,492.309,501.281,506.149,509.462,513.476" svgx:width="0.61,0.58,0.48,0.55,0.42,0.48,0.48,0.61,0.55,0.55,0.29,0.29,0.55,0.44,0.5,0.4,0.55,0.33,0.48,0.58,0.55,0.29,0.61,0.42,0.55,0.83,0.48,0.4,0.48,0.55,0.5,0.58,0.5,0.29,0.56,0.5,0.48,0.61,0.55,0.55,0.56,0.55,0.83,0.6,0.61,0.71,0.55,0.83,0.29,0.33,0.58,0.55,0.61,0.29,0.55,0.61,0.48,0.33,0.5,0.4,0.4,0.5,0.56,0.55,0.5,0.58,0.61,0.55,0.88,0.5,0.42,0.42,0.55,0.42,0.6,0.48,0.44,0.33,0.4,0.55,0.88,0.48,0.33,0.4,0.56" style="fill:rgb(0,0,0);font-family:URWPalladioL-Roma;font-size:9.96px;stroke:none;">The seed oil carotenoids were analyzed by HPLC with diode-array and mass spectrometry</text>
   <text y="130.845" x="76.535,82.653,87.449,90.713,95.509,99.954,103.218,106.132,111.598,117.3748,119.909,124.154,129.721,133.966,137.23,142.026,150.867,155.0502,157.606,160.94,168.689,176.479,184.229,187.563,197.034,202.291,205.625,208.115,210.611,215.838,221.316,223.788,229.805,234.601,238.556,241.89,247.357,251.312,262.636,265.9,271.727,274.641,278.8242,281.379,287.497,292.293,295.557,300.353,304.307,313.148,316.062,321.889,326.895,330.159,333.073,338.54,344.367,346.857,349.353,354.333,356.853,361.098,365.894,370.69,376.7656,379.29,384.757,387.671,390.5594,393.077,397.323,402.329,411.17,417.187,420.091,424.8718,427.38,435.73,440.737,444.9202,447.465,453.582,456.496,459.41,465.447,468.711,473.507,479.5826,482.118,485.452,490.919,496.956,500.911,504.245,509.712,512.626" svgx:width="0.61,0.48,0.33,0.48,0.44,0.33,0.29,0.55,0.58,0.55,0.42,0.56,0.42,0.33,0.48,0.88,0.42,0.55,0.33,0.77,0.78,0.77,0.33,0.95,0.52,0.33,0.25,0.55,0.61,0.55,0.55,0.6,0.48,0.4,0.33,0.55,0.4,0.88,0.33,0.58,0.29,0.42,0.55,0.61,0.48,0.33,0.48,0.4,0.88,0.29,0.58,0.5,0.33,0.29,0.55,0.58,0.25,0.55,0.5,0.55,0.42,0.48,0.48,0.61,0.55,0.55,0.29,0.29,0.55,0.42,0.5,0.88,0.6,0.29,0.48,0.55,0.83,0.5,0.42,0.55,0.61,0.29,0.29,0.6,0.33,0.48,0.61,0.55,0.33,0.55,0.6,0.4,0.33,0.55,0.29,0.61" style="fill:rgb(0,0,0);font-family:URWPalladioL-Roma;font-size:9.96px;stroke:none;">detection systems (DAD-MS). To performthis determination, a seed oil sample was diluted fourfold</text>
   <text y="144.354" x="76.535,81.536,87.358,93.4336,95.96,98.87,104.692,107.032,111.824,116.265,119.526,124.317,130.3926,132.909,135.82,141.641,144.902,150.38,152.854,156.115,161.936,166.7168,169.218,177.54,183.581,189.693,196.7646,199.265,203.506,209.067,213.309,216.569,221.36,230.193,232.68300000000002,235.784,243.646,249.677,254.679,257.589,260.5,263.831,269.432,275.464,280.465,286.286,289.547,292.458,295.719,300.72,303.981,306.891,312.543,317.3238,319.815,325.926,330.717,333.978,338.769,342.72,351.552,354.463,360.284,365.286,368.546,371.457,376.919,382.69579999999996,385.231,390.692,393.97880000000004,396.513,400.954,405.956,409.727,415.188,418.449,423.24,429.061,434.523,437.433,443.545,447.7282,450.266,458.608,463.61,467.7932,470.341,474.782,479.784,483.735,487.686,490.596,495.387,501.4626,503.99,509.451,515.482" svgx:width="0.5,0.58,0.61,0.55,0.29,0.58,0.23,0.48,0.44,0.33,0.48,0.61,0.55,0.29,0.58,0.33,0.55,0.55,0.33,0.58,0.48,0.55,0.83,0.6,0.61,0.71,0.55,0.42,0.56,0.42,0.33,0.48,0.88,0.25,0.55,0.79,0.6,0.5,0.29,0.29,0.33,0.56,0.6,0.5,0.58,0.33,0.29,0.33,0.5,0.33,0.29,0.56,0.48,0.55,0.61,0.48,0.33,0.48,0.4,0.88,0.29,0.58,0.5,0.33,0.29,0.55,0.58,0.55,0.55,0.33,0.55,0.44,0.5,0.4,0.55,0.33,0.48,0.58,0.55,0.29,0.61,0.42,0.55,0.83,0.5,0.42,0.55,0.44,0.5,0.4,0.4,0.29,0.48,0.61,0.55,0.55,0.6,0.33" style="fill:rgb(0,0,0);font-family:URWPalladioL-Roma;font-size:9.96px;stroke:none;">and injected into the HPLC system. Quali-quantitative determination of carotenoids was carried out</text>
   <text y="157.864" x="76.535,82.542,86.767,89.666,95.464,101.0416,103.494,106.742,112.54,117.3208,119.803,128.091,134.109,140.196,147.259,150.577,158.288,166.039,173.75,177.068,186.492,191.6712,194.213,199.842,204.823,207.723,210.622,216.709,221.69,224.938,229.71,235.78560000000002,238.288,247.085,251.857,255.105,260.903,266.342,272.4176,274.92,281.007,285.779,290.004,294.427,298.362,301.261,306.771,311.543,317.6186,320.121,323.02,328.79679999999996,331.309,337.396,340.295,345.276,349.5,352.3884,354.89,359.662,362.9488,365.401,370.382,373.281,375.771,378.262" svgx:width="0.6,0.42,0.29,0.58,0.56,0.55,0.33,0.58,0.48,0.55,0.83,0.6,0.61,0.71,0.33,0.77,0.78,0.77,0.33,0.95,0.52,0.55,0.56,0.5,0.29,0.29,0.61,0.5,0.33,0.48,0.61,0.55,0.88,0.48,0.33,0.58,0.55,0.61,0.55,0.61,0.48,0.42,0.44,0.4,0.29,0.55,0.48,0.61,0.55,0.29,0.58,0.55,0.61,0.29,0.5,0.42,0.29,0.55,0.48,0.33,0.55,0.5,0.29,0.25,0.55,0.33" style="fill:rgb(0,0,0);font-family:URWPalladioL-Roma;font-size:9.96px;stroke:none;">using the HPLC-DAD-MS validated method described in Blasi et al. [</text>
   <text y="157.864" x="381.58,386.561" svgx:width="0.5,0.5" style="fill:rgb(8,117,183);font-family:URWPalladioL-Roma;font-size:9.96px;stroke:none;">31</text>
   <text y="157.864" x="391.542,394.86" svgx:width="0.33,0.25" style="fill:rgb(0,0,0);font-family:URWPalladioL-Roma;font-size:9.96px;stroke:none;">].</text>
   <text y="181.077" x="76.535,81.516,84.007,88.988,93.97,96.46,99.549,105.088,108.405,112.829,116.146,118.916,122.791,126.109,128.878,132.933,137.357,140.1458,142.617,149.81,155.349,159.773,162.542,167.523,171.399,174.168" svgx:width="0.5,0.25,0.5,0.5,0.25,0.55,0.56,0.33,0.44,0.33,0.28,0.39,0.33,0.28,0.41,0.44,0.28,0.55,0.72,0.56,0.44,0.28,0.5,0.39,0.28,0.39" style="fill:rgb(0,0,0);font-family:URWPalladioL-Ital;font-size:9.96px;stroke:none;">2.11. Statistical Analysis</text>
   <text y="200.564" x="97.795,102.669,110.521,113.011,115.547,119.826,123.116,127.95,131.755,137.265,140.202,142.692,145.228,150.274,153.211,157.692,163.202,169.076,174.586,177.523,180.013,182.538,187.585,193.458,199.5336,202.127,206.608,211.654,215.459,220.969,224.259,229.093,234.967,240.477,243.414,249.4896,252.083,256.564,262.074,270.986,277.051,282.561,286.84,289.777,293.067,296.004,301.514,307.2908,309.881,316.047,321.093,324.383,329.363,331.932,336.978,340.783,345.5638,348.12,351.924,356.759,362.824,368.334,372.321,375.611,380.445,386.5206,389.114,394.16,398.3432,400.932,409.843,414.677,419.723,425.4998,428.1,433.802,438.848,441.785,447.87,452.704,456.8872,459.476,464.522,470.396,476.4716,479.065,483.344,486.634,491.68,497.554,503.72,508.766,512.571" svgx:width="0.56,0.78,0.25,0.55,0.42,0.33,0.48,0.4,0.55,0.29,0.25,0.55,0.5,0.29,0.44,0.55,0.58,0.55,0.29,0.25,0.55,0.5,0.58,0.61,0.55,0.44,0.5,0.4,0.55,0.33,0.48,0.58,0.55,0.29,0.61,0.55,0.44,0.55,0.88,0.6,0.55,0.42,0.29,0.33,0.29,0.55,0.58,0.55,0.61,0.5,0.33,0.5,0.55,0.5,0.4,0.48,0.55,0.4,0.48,0.6,0.55,0.4,0.33,0.48,0.61,0.55,0.5,0.42,0.55,0.88,0.48,0.5,0.58,0.55,0.56,0.5,0.29,0.6,0.48,0.42,0.55,0.5,0.58,0.61,0.55,0.42,0.33,0.5,0.58,0.61,0.5,0.4,0.61" style="fill:rgb(0,0,0);font-family:URWPalladioL-Roma;font-size:9.96px;stroke:none;">FA, sterol, alcohol, and carotenoid composition data are reported as mean values and standard</text>
   <text y="214.073" x="76.535,82.695,87.525,93.221,96.155,101.196,104.483,107.417,112.921,118.6978,121.28,124.637,129.93,137.734,141.091,143.58100000000002,146.102,154.49,161.225,168.918,175.9896,178.566,183.607,189.475,194.516,197.45,203.056,207.331,212.16,216.3432,218.925,227.334,232.163,235.964,240.7448,243.284,247.76,252.801,256.784,260.766,263.7,268.529,274.6046,277.18,282.685,288.764,292.05080000000004,294.551,297.485,303.2618,305.843,312.004,318.083,324.142,327.076,330.01,334.487,339.528,342.815,347.644,350.134,353.26,361.063,366.104,369.391,374.37100000000004,376.923,385.331,390.16,393.961,398.7418,401.281,407.34,411.151,416.656,421.133,425.962,430.237,434.512,439.341,445.4166,447.992,453.033,458.9,464.9756,467.551,472.38,478.54,481.474,484.761,489.591,495.6666,498.241,506.65,509.583,512.87" svgx:width="0.61,0.48,0.56,0.29,0.5,0.33,0.29,0.55,0.58,0.55,0.33,0.52,0.77,0.33,0.25,0.55,0.83,0.67,0.76,0.71,0.55,0.5,0.58,0.5,0.29,0.56,0.42,0.48,0.42,0.55,0.83,0.48,0.4,0.48,0.55,0.44,0.5,0.4,0.4,0.29,0.48,0.61,0.55,0.55,0.6,0.33,0.55,0.29,0.58,0.55,0.61,0.6,0.6,0.29,0.29,0.44,0.5,0.33,0.48,0.25,0.55,0.77,0.5,0.33,0.5,0.55,0.83,0.48,0.4,0.48,0.55,0.6,0.4,0.55,0.44,0.48,0.42,0.42,0.48,0.61,0.55,0.5,0.58,0.61,0.55,0.48,0.61,0.29,0.33,0.48,0.61,0.55,0.83,0.29,0.33,0.58" style="fill:rgb(0,0,0);font-family:URWPalladioL-Roma;font-size:9.96px;stroke:none;">deviation (SD). HRGC analyses were carried out in duplicate. Data were processed and edited with</text>
   <text y="227.582" x="76.535,85.96,88.859,93.282,97.038,102.478,106.702,112.141,115.459,118.7458,121.197,127.284,132.425,136.849,141.621,144.5094,147.01,151.992,156.973,161.954,166.934,169.426,172.744,182.168,185.068,189.491,193.247,198.686,202.911,208.35,211.668,214.916,217.406,219.897,226.552,231.324,237.411,246.208,251.648,257.446,263.533,266.023,268.514,277.939,285.69,288.18,290.671,298.422,303.652,311.403,314.721" svgx:width="0.95,0.29,0.44,0.4,0.55,0.42,0.55,0.33,0.33,0.55,0.61,0.52,0.44,0.48,0.29,0.55,0.5,0.5,0.5,0.5,0.55,0.33,0.95,0.29,0.44,0.4,0.55,0.42,0.55,0.33,0.33,0.25,0.55,0.67,0.48,0.61,0.88,0.55,0.58,0.61,0.25,0.55,0.95,0.78,0.25,0.55,0.78,0.52,0.78,0.33,0.25" style="fill:rgb(0,0,0);font-family:URWPalladioL-Roma;font-size:9.96px;stroke:none;">Microsoft Excel 2016 (Microsoft, Redmond, MA, USA).</text>
   <text y="250.795" x="76.535,81.516,84.006,87.095,94.288,99.27,103.693,109.78,113.098,116.415,120.79740000000001,123.329,128.311,134.398,140.4736,142.976,151.274,154.592,159.015,163.439,169.526,173.949,178.373,181.69,187.229" svgx:width="0.5,0.25,0.55,0.72,0.5,0.44,0.61,0.33,0.33,0.44,0.55,0.5,0.61,0.61,0.55,0.83,0.33,0.44,0.44,0.61,0.44,0.44,0.33,0.56,0.61" style="fill:rgb(0,0,0);font-family:URWPalladioL-Bold;font-size:9.96px;stroke:none;">3. Results and Discussion</text>
   <text y="274.008" x="76.535,81.516,84.007,88.988,91.478,94.567,102.318,107.857,111.175,115.05,117.82,121.138,123.907,128.331,133.87,138.293,141.08180000000002,143.553,150.198,154.622,162.373,167.354,171.777,175.653,178.423,181.74,184.51,188.933,194.51059999999998,196.963,201.386,206.926,211.90599999999998,214.397,221.043,225.466,228.236,232.659,236.534,239.304,243.3876,245.849,252.305,256.729,259.498,265.037" svgx:width="0.5,0.25,0.5,0.25,0.55,0.78,0.56,0.33,0.39,0.28,0.33,0.28,0.44,0.56,0.44,0.28,0.55,0.67,0.44,0.78,0.5,0.44,0.39,0.28,0.33,0.28,0.44,0.56,0.55,0.44,0.56,0.5,0.55,0.67,0.44,0.28,0.44,0.39,0.28,0.41,0.55,0.72,0.44,0.28,0.56,0.39" style="fill:rgb(0,0,0);font-family:URWPalladioL-Ital;font-size:9.96px;stroke:none;">3.1. Nutritional Composition and Caloric Value</text>
   <text y="293.495" x="97.795,105.66,110.741,114.054,119.034,121.818,127.366,133.1428,135.963,141.877,148.005,151.317,155.331,158.288,161.601,164.558,170.107,176.021,181.102,183.9904,186.731,191.243,196.792,205.765,211.872,217.42,221.729,224.686,227.999,230.956,236.504,242.2808,245.101,250.182,256.096,262.1716,264.988,269.5,274.581,277.538,283.086,287.1,290.057,294.43940000000003,297.252,302.993,308.074,311.031,317.159,321.9398,324.699,330.247,333.53380000000004,336.314,342.421,348.549,357.522,363.629,369.279,372.236,378.01279999999997,380.833" svgx:width="0.77,0.5,0.33,0.5,0.55,0.55,0.58,0.55,0.58,0.6,0.33,0.4,0.29,0.33,0.29,0.55,0.58,0.5,0.29,0.55,0.44,0.55,0.88,0.6,0.55,0.42,0.29,0.33,0.29,0.55,0.58,0.55,0.5,0.58,0.61,0.55,0.44,0.5,0.29,0.55,0.4,0.29,0.44,0.55,0.56,0.5,0.29,0.6,0.48,0.55,0.55,0.33,0.55,0.6,0.6,0.88,0.6,0.56,0.29,0.58,0.55,0.33" style="fill:rgb(0,0,0);font-family:URWPalladioL-Roma;font-size:9.96px;stroke:none;">Data on nutritional composition and caloric value of pumpkin (</text>
   <text y="293.495" x="384.216,390.994,393.48400000000004,396.217,404.123,408.635,413.716,416.541,424.447" svgx:width="0.67,0.25,0.55,0.78,0.44,0.5,0.28,0.78,0.44" style="fill:rgb(0,0,0);font-family:URWPalladioL-Ital;font-size:9.96px;stroke:none;">C. maxima</text>
   <text y="293.495" x="428.956,431.446,434.23,439.971,445.052,448.325,450.815,454.523,460.732,465.6,469.614,473.445,478.312,481.625,484.938,487.895,493.809,498.89,502.1768,504.957,510.037,513.868" svgx:width="0.25,0.55,0.56,0.5,0.4,0.25,0.55,0.61,0.48,0.4,0.4,0.48,0.33,0.33,0.29,0.58,0.5,0.33,0.55,0.5,0.4,0.48" style="fill:rgb(0,0,0);font-family:URWPalladioL-Roma;font-size:9.96px;stroke:none;">, var. Berrettina) are</text>
   <text y="307.005" x="76.535,80.291,85.063,91.051,96.49,100.425,103.673,108.445,114.52059999999999,117.023,119.922,125.69879999999999,128.201,133.392,138.373,143.882,146.781" svgx:width="0.4,0.48,0.6,0.55,0.4,0.33,0.48,0.61,0.55,0.29,0.58,0.55,0.61,0.5,0.55,0.29,0.48" style="fill:rgb(0,0,0);font-family:URWPalladioL-Roma;font-size:9.96px;stroke:none;">reported in Table</text>
   <text y="307.005" x="154.044" svgx:width="0.5" style="fill:rgb(8,117,183);font-family:URWPalladioL-Roma;font-size:9.96px;stroke:none;">1</text>
   <text y="307.005" x="159.025,161.51500000000001,164.604,170.711,176.51,181.2908,183.762,187.987,192.968,201.765,207.752,210.651,215.424,219.6072,222.138,227.937,232.918,238.99360000000001,241.486,246.46599999999998,248.958,254.756,257.655,263.194,268.9708,271.473,275.897,281.336,287.134,290.382,295.154,300.952,304.2388,306.691,312.13,315.4168,317.929,326.238,331.219,334.467,339.239,343.22299999999996,345.665,348.982,353.963,358.945,361.435,366.417,371.398,379.767,383.084,385.574,388.065,390.965,396.74179999999996,399.243,402.561,407.542,411.966,415.213,417.70300000000003,420.195,425.175,427.657,433.286,438.267,442.202,445.101,449.873,453.121,458.6986,461.151,466.591,469.87780000000004,472.399,478.028,482.8,488.339,493.111,496.359,501.34,506.85,509.749,514.521" svgx:width="0.25,0.55,0.61,0.58,0.48,0.55,0.42,0.5,0.88,0.6,0.29,0.48,0.42,0.55,0.58,0.5,0.61,0.55,0.5,0.55,0.58,0.29,0.56,0.58,0.55,0.44,0.55,0.58,0.33,0.48,0.58,0.33,0.55,0.55,0.33,0.55,0.83,0.5,0.33,0.48,0.4,0.55,0.33,0.5,0.5,0.25,0.5,0.5,0.84,0.33,0.25,0.55,0.29,0.58,0.55,0.33,0.5,0.44,0.33,0.25,0.55,0.5,0.55,0.56,0.5,0.4,0.29,0.48,0.33,0.56,0.55,0.55,0.33,0.55,0.56,0.48,0.56,0.48,0.33,0.5,0.55,0.29,0.48,0.42" style="fill:rgb(0,0,0);font-family:URWPalladioL-Roma;font-size:9.96px;stroke:none;">. The samples had a high content of water (82.50%); in fact, a variety of vegetables</text>
   <text y="320.514" x="76.535,82.449,87.53,93.272,98.0528,101.716,110.191,115.272,118.585,123.452,127.43599999999999,131.043,135.555,141.103,150.076,156.184,161.732,166.041,168.998,172.31,175.268,180.816,186.5928,190.307,193.264,199.04080000000002,202.755,206.068,211.982,216.7628,220.427,224.441,229.522,235.436,241.086,245.8668,249.53,255.079,258.36580000000004,262.04,267.12,272.201,277.282,282.363,287.444,295.98,298.47,304.872,311.101,317.015,321.7958,325.46,331.638,336.506,340.814,346.5908,350.305,353.262,357.4452,361.148,365.66,371.574,376.655,380.669,385.75,390.262,393.575,398.442,402.456,405.413,410.494,415.362,421.43760000000003,425.147,430.767,436.3446,439.994,444.97400000000005,448.652,451.609,457.157,465.42379999999997,469.209,472.593,477.674,480.9608,484.564,489.076,494.624,500.538,503.851,508.719,514.633,517.945" svgx:width="0.58,0.5,0.56,0.48,0.55,0.83,0.5,0.33,0.48,0.4,0.55,0.44,0.55,0.88,0.6,0.55,0.42,0.29,0.33,0.29,0.55,0.58,0.55,0.29,0.58,0.55,0.33,0.58,0.48,0.55,0.4,0.5,0.58,0.56,0.48,0.55,0.55,0.33,0.55,0.5,0.5,0.5,0.5,0.5,0.84,0.25,0.55,0.61,0.58,0.48,0.55,0.61,0.48,0.42,0.58,0.55,0.29,0.42,0.55,0.44,0.58,0.5,0.4,0.5,0.44,0.33,0.48,0.4,0.29,0.5,0.48,0.61,0.55,0.55,0.56,0.55,0.5,0.55,0.29,0.55,0.83,0.55,0.33,0.5,0.33,0.55,0.44,0.55,0.58,0.33,0.48,0.58,0.33,0.25" style="fill:rgb(0,0,0);font-family:URWPalladioL-Roma;font-size:9.96px;stroke:none;">have water composition in the range of 80–90%. The ﬂesh is characterized by a low fat content.</text>
   <text y="334.023" x="76.535,81.87,84.827,93.8,99.907,102.864,107.6448,114.235,118.544,124.672,130.322,135.403,139.417,143.6002,146.967,152.048,157.962,164.0376,167.423,172.504,176.812,182.58880000000002,185.978,190.287,196.201,201.749,210.224,215.092,221.16760000000002,224.553,228.861,231.818,240.791,243.748,246.705,251.786,255.77,259.052,264.793,269.874,272.832,278.959,283.827,288.0102,291.377,294.761,299.842,302.382,307.463,312.544,320.9104,324.332,329.413,335.327,341.4026,344.788,349.869,352.409,357.49,362.571,371.107,373.59700000000004,377.092,380.923,385.791,390.099,396.207,401.074,405.586,408.899,411.856,417.597,422.465,425.422,431.072,434.456,436.946,440.431,448.906,454.82,457.777,460.734,465.5148,468.854,472.166,478.081,482.8618,486.2,492.307,496.138,501.687,504.999,509.867,512.824" svgx:width="0.52,0.29,0.88,0.6,0.29,0.48,0.55,0.42,0.6,0.56,0.5,0.4,0.42,0.55,0.5,0.58,0.61,0.55,0.5,0.42,0.58,0.55,0.42,0.58,0.55,0.83,0.48,0.61,0.55,0.42,0.29,0.88,0.29,0.29,0.5,0.4,0.55,0.56,0.5,0.29,0.6,0.48,0.42,0.55,0.33,0.5,0.25,0.5,0.5,0.84,0.55,0.5,0.58,0.61,0.55,0.5,0.25,0.5,0.5,0.84,0.25,0.55,0.4,0.48,0.42,0.6,0.48,0.44,0.33,0.29,0.56,0.48,0.29,0.56,0.33,0.25,0.55,0.83,0.58,0.29,0.29,0.48,0.55,0.33,0.58,0.48,0.55,0.6,0.4,0.55,0.33,0.48,0.29,0.58" style="fill:rgb(0,0,0);font-family:URWPalladioL-Roma;font-size:9.96px;stroke:none;">Simple sugars and ash showed similar values (0.82% and 0.84%, respectively), while the protein</text>
   <text y="347.533" x="76.535,81.047,86.595,92.509,95.822,100.69,106.604,109.8908,112.437,120.912,125.993,130.1762,132.822,138.736,141.693,147.343,153.257,158.125,162.109,164.659,168.042,173.123,175.664,180.745,185.826,194.362,197.746,200.23600000000002,203.467,211.332,216.413,219.726,224.706,227.337,231.168,236.035,238.993,244.074,247.386,250.343,256.085,260.8658,263.472,266.785,272.26300000000003,274.854,283.827,289.375,292.332,296.641,299.954,306.081,309.922,314.79,317.28000000000003,319.85,324.931,329.24,335.154,337.644,340.225,345.306,351.22,357.29560000000004,359.949,366.056,369.897,375.446,378.759,383.626,386.583,392.3598,395.018,400.099,403.93,408.7108,411.317,414.274,420.0508,422.719,428.369,433.917,439.465,445.5406,448.195,453.275,458.925,462.756,467.624,472.492,481.464,486.332,492.246,495.5328,498.079,506.554,509.511,512.824" svgx:width="0.44,0.55,0.58,0.33,0.48,0.58,0.33,0.55,0.83,0.5,0.42,0.55,0.58,0.29,0.56,0.58,0.48,0.4,0.55,0.33,0.5,0.25,0.5,0.5,0.84,0.33,0.25,0.55,0.77,0.5,0.33,0.5,0.55,0.4,0.48,0.29,0.5,0.33,0.29,0.56,0.48,0.55,0.33,0.55,0.55,0.88,0.55,0.29,0.42,0.33,0.6,0.4,0.48,0.25,0.55,0.5,0.42,0.58,0.25,0.55,0.5,0.58,0.61,0.55,0.6,0.4,0.55,0.33,0.48,0.29,0.58,0.55,0.5,0.4,0.48,0.55,0.29,0.58,0.55,0.56,0.55,0.55,0.61,0.55,0.5,0.56,0.4,0.48,0.48,0.88,0.48,0.58,0.33,0.55,0.83,0.29,0.33,0.58" style="fill:rgb(0,0,0);font-family:URWPalladioL-Roma;font-size:9.96px;stroke:none;">content was higher (1.28%). Data relative to moisture, ash, and protein are in good agreement with</text>
   <text y="361.042" x="76.535,79.848,85.762,91.31,95.619,100.3998,103.555,107.386,112.254,118.361,123.91,127.923,131.236,136.104,142.17960000000002,145.382,151.001,156.5786,159.71,167.087,170.044,178.80880000000002,182.086,186.954,190.2408,193.335,198.416,201.373,203.863,206.973" svgx:width="0.33,0.58,0.55,0.42,0.48,0.55,0.4,0.48,0.6,0.55,0.4,0.33,0.48,0.61,0.55,0.55,0.56,0.55,0.73,0.29,0.88,0.55,0.48,0.33,0.55,0.5,0.29,0.25,0.55,0.33" style="fill:rgb(0,0,0);font-family:URWPalladioL-Roma;font-size:9.96px;stroke:none;">those reported by Kim et al. [</text>
   <text y="361.042" x="210.358,215.339" svgx:width="0.5,0.5" style="fill:rgb(8,117,183);font-family:URWPalladioL-Roma;font-size:9.96px;stroke:none;">32</text>
   <text y="361.042" x="220.321,223.6078,226.774,230.158,235.706,239.69,242.779,250.156,255.705,259.546,264.413,269.494,275.2708,278.467,284.574,290.702,299.675,305.782,311.432,314.389,320.1658,323.372" svgx:width="0.33,0.55,0.33,0.55,0.4,0.55,0.73,0.55,0.4,0.48,0.5,0.58,0.55,0.6,0.6,0.88,0.6,0.56,0.29,0.58,0.55,0.33" style="fill:rgb(0,0,0);font-family:URWPalladioL-Roma;font-size:9.96px;stroke:none;">] for Korean pumpkin (</text>
   <text y="361.042" x="326.755,333.533,336.023,339.142,347.048,351.56,356.641,359.466,367.372" svgx:width="0.67,0.25,0.55,0.78,0.44,0.5,0.28,0.78,0.44" style="fill:rgb(0,0,0);font-family:URWPalladioL-Ital;font-size:9.96px;stroke:none;">C. maxima</text>
   <text y="361.042" x="371.88,375.1668,378.333,384.511,389.379,393.687,399.602,402.092,406.949,414.702,419.57,425.484,430.351,434.365,439.446,442.403,445.36,449.903,452.39300000000003,455.654,458.967,464.881,469.66179999999997,472.818,478.925,482.756,488.304,493.548,496.505,505.478,510.559,513.871" svgx:width="0.33,0.55,0.61,0.48,0.42,0.58,0.25,0.55,0.76,0.48,0.58,0.48,0.4,0.5,0.29,0.29,0.56,0.25,0.55,0.33,0.58,0.48,0.55,0.6,0.4,0.55,0.52,0.29,0.88,0.5,0.33,0.48" style="fill:rgb(0,0,0);font-family:URWPalladioL-Roma;font-size:9.96px;stroke:none;">) ﬂesh. Generally, the proximate</text>
   <text y="374.552" x="76.535,80.87,86.201,94.822,100.69,106.02,110.16,113.001,116.184,119.025,124.356,130.1328,132.44,135.281,139.4642,141.832,146.509,151.547,154.73,158.401,163.077,171.698,176.375,179.216,184.7936,187.056,192.572,197.454,201.311,204.152,209.033,214.433,217.274,222.0548,224.352" svgx:width="0.44,0.55,0.88,0.6,0.55,0.42,0.29,0.33,0.29,0.55,0.58,0.55,0.29,0.42,0.55,0.48,0.52,0.33,0.4,0.48,0.88,0.48,0.29,0.56,0.55,0.56,0.5,0.4,0.29,0.5,0.55,0.29,0.48,0.55,0.33" style="fill:rgb(0,0,0);font-family:URWPalladioL-Roma;font-size:9.96px;stroke:none;">composition is extremely variable [</text>
   <text y="374.552" x="227.602,232.583" svgx:width="0.5,0.5" style="fill:rgb(8,117,183);font-family:URWPalladioL-Roma;font-size:9.96px;stroke:none;">32</text>
   <text y="374.552" x="237.565" svgx:width="0.5" style="fill:rgb(0,0,0);font-family:URWPalladioL-Roma;font-size:9.96px;stroke:none;">–</text>
   <text y="374.552" x="242.447,247.428" svgx:width="0.5,0.5" style="fill:rgb(8,117,183);font-family:URWPalladioL-Roma;font-size:9.96px;stroke:none;">34</text>
   <text y="374.552" x="252.409,255.66,258.15,260.522,266.488,272.375,277.1558,279.453,282.636,288.11400000000003,290.379,293.561,299.244,304.0248,306.322,312.288,315.129,318.204,321.455,326.132,329.813,334.489,340.172,344.507,349.183,353.3662,355.725,360.606,369.227,374.558,380.24,385.8176,388.071,391.254,396.936,401.7168,404.024,408.164,414.031,418.708,423.043,425.884,430.561,434.7442,437.102,441.984,447.666,453.632,459.548,464.879,468.863,471.137,476.654,481.535,485.392,488.233,492.91,496.092,498.934,503.61,507.7932,510.161,515.492" svgx:width="0.33,0.25,0.55,0.61,0.6,0.48,0.55,0.33,0.55,0.55,0.33,0.58,0.48,0.55,0.61,0.29,0.33,0.33,0.48,0.4,0.48,0.58,0.44,0.48,0.42,0.55,0.5,0.88,0.55,0.58,0.56,0.55,0.33,0.58,0.48,0.55,0.42,0.6,0.48,0.44,0.29,0.48,0.42,0.55,0.5,0.58,0.61,0.61,0.55,0.4,0.55,0.56,0.5,0.4,0.29,0.48,0.33,0.29,0.48,0.42,0.55,0.55,0.33" style="fill:rgb(0,0,0);font-family:URWPalladioL-Roma;font-size:9.96px;stroke:none;">], due to the differences among the species and/or varieties of</text>
   <text y="388.061" x="76.207,82.719,88.148,92.121,97.55,101.348,105.868,108.582,111.833" svgx:width="0.67,0.56,0.41,0.56,0.39,0.46,0.28,0.33,0.44" style="fill:rgb(0,0,0);font-family:URWPalladioL-Ital;font-size:9.96px;stroke:none;">Cucurbita</text>
   <text y="388.061" x="118.656,122.796,128.663,134.531,137.02100000000002,140.057,145.486,149.166,154.497,162.64,168.4168,170.812,173.653,179.4298,181.825,187.79,190.631,193.697,196.958,201.635,205.306,209.982,215.665,218.9518,221.337,226.219,229.9,234.576,239.458,243.6412,246.087,251.418,254.7048,257.159,260.342,266.024,270.8048,273.19,281.333,286.664,290.52,293.361,299.327,301.817,304.853,310.838,316.52,321.3008,323.686,326.527,331.858,342.49,346.825,351.707,354.548,359.879,363.736,366.577,370.9594,373.401,378.918,383.799,386.64,392.528,397.3088,399.694,405.025,408.3118,410.756,416.624,422.511,431.132,437.0,442.428,445.269,451.0458,453.441" svgx:width="0.42,0.6,0.6,0.25,0.55,0.56,0.4,0.55,0.83,0.58,0.55,0.29,0.58,0.55,0.61,0.29,0.33,0.33,0.48,0.4,0.48,0.58,0.33,0.55,0.5,0.4,0.48,0.5,0.42,0.55,0.55,0.33,0.55,0.33,0.58,0.48,0.55,0.83,0.55,0.4,0.29,0.61,0.25,0.55,0.61,0.58,0.48,0.55,0.29,0.55,0.83,0.44,0.5,0.29,0.55,0.4,0.29,0.44,0.55,0.56,0.5,0.29,0.6,0.48,0.55,0.55,0.33,0.55,0.6,0.6,0.88,0.6,0.56,0.29,0.58,0.55,0.33" style="fill:rgb(0,0,0);font-family:URWPalladioL-Roma;font-size:9.96px;stroke:none;">spp. grown in different areas of the world. The lowcaloric value of pumpkin (</text>
   <text y="388.061" x="456.696,463.208,465.69800000000004,468.139,475.735,480.069,484.951,487.665,495.261" svgx:width="0.67,0.25,0.55,0.78,0.44,0.5,0.28,0.78,0.44" style="fill:rgb(0,0,0);font-family:URWPalladioL-Ital;font-size:9.96px;stroke:none;">C. maxima</text>
   <text y="388.061" x="499.596,502.086,504.526,510.043,514.924,518.039" svgx:width="0.25,0.55,0.56,0.5,0.4,0.25" style="fill:rgb(0,0,0);font-family:URWPalladioL-Roma;font-size:9.96px;stroke:none;">, var.</text>
   <text y="401.57" x="76.535,82.622,87.394,91.329,95.085,99.857,103.105,106.353,109.252,115.05,120.032,123.3188,125.84,128.739,132.9222,135.454,140.435,145.416,147.907,152.888,157.868,160.36,165.899,170.323,175.304,178.203,184.241,189.222,194.203,199.183,201.675,207.214,209.704,212.196,217.177,221.6,226.024,231.463,235.219,241.306,244.205,250.004,255.58159999999998,258.034,261.281,266.759,269.212,275.299,280.28,283.528,288.50800000000004,291.0,293.899,299.6758,302.188,305.436,311.234,316.0148,318.497,321.396,324.295,327.543,332.315,336.25,341.231,344.479,350.486,354.242,359.0228,361.505" svgx:width="0.61,0.48,0.4,0.4,0.48,0.33,0.33,0.29,0.58,0.5,0.33,0.55,0.29,0.42,0.55,0.5,0.5,0.25,0.5,0.5,0.55,0.56,0.44,0.5,0.29,0.61,0.5,0.5,0.5,0.55,0.56,0.25,0.55,0.5,0.44,0.44,0.55,0.4,0.61,0.29,0.58,0.56,0.55,0.33,0.55,0.55,0.61,0.5,0.33,0.5,0.55,0.29,0.58,0.55,0.33,0.58,0.48,0.55,0.29,0.29,0.33,0.48,0.4,0.5,0.33,0.6,0.4,0.48,0.55,0.33" style="fill:rgb(0,0,0);font-family:URWPalladioL-Roma;font-size:9.96px;stroke:none;">Berrettina) is 25.35 kcal/100 g, according to data in the literature [</text>
   <text y="401.57" x="364.823,369.804" svgx:width="0.5,0.5" style="fill:rgb(8,117,183);font-family:URWPalladioL-Roma;font-size:9.96px;stroke:none;">35</text>
   <text y="401.57" x="374.785" svgx:width="0.25" style="fill:rgb(0,0,0);font-family:URWPalladioL-Roma;font-size:9.96px;stroke:none;">,</text>
   <text y="401.57" x="377.276,382.257" svgx:width="0.5,0.5" style="fill:rgb(8,117,183);font-family:URWPalladioL-Roma;font-size:9.96px;stroke:none;">36</text>
   <text y="401.57" x="387.239,390.556" svgx:width="0.33,0.25" style="fill:rgb(0,0,0);font-family:URWPalladioL-Roma;font-size:9.96px;stroke:none;">].</text>
   <text y="426.307" x="97.499,102.484,106.968,112.446,115.432,119.917,122.157,126.64" svgx:width="0.67,0.5,0.61,0.33,0.5,0.55,0.5,0.25" style="fill:rgb(0,0,0);font-family:URWPalladioL-Bold;font-size:8.97px;stroke:none;">Table 1.</text>
   <text y="426.307" x="131.661,139.12,144.532,147.458,151.003,153.615,156.541,159.153,164.053,169.277,173.764,176.36530000000002,178.62,182.605,187.506,195.431,200.825,205.726,209.531,212.143,215.069,217.681,222.581,227.78359999999998,230.04,233.029,238.019,243.458,247.946,252.433,256.918,259.165,264.1882,266.399,270.698,276.182,278.794,283.758,286.369,290.67460000000005,292.903,298.298,302.785,306.331,309.256,312.2161,314.489,319.39,322.3501,324.622,330.016,335.429,343.354,348.748,353.738,356.35,361.55260000000004,363.809" svgx:width="0.83,0.6,0.33,0.4,0.29,0.33,0.29,0.55,0.58,0.5,0.29,0.55,0.44,0.55,0.88,0.6,0.55,0.42,0.29,0.33,0.29,0.55,0.58,0.55,0.33,0.56,0.61,0.5,0.5,0.5,0.55,0.56,0.55,0.48,0.61,0.29,0.55,0.29,0.48,0.55,0.6,0.5,0.4,0.33,0.33,0.55,0.55,0.33,0.55,0.6,0.6,0.88,0.6,0.56,0.29,0.58,0.55,0.33" style="fill:rgb(0,0,0);font-family:URWPalladioL-Roma;font-size:8.97px;stroke:none;">Nutritional composition (g/100 g edible part) of pumpkin (</text>
   <text y="426.307" x="366.801,372.788,375.0305,377.275,384.258,388.243,392.731,395.226,402.209" svgx:width="0.67,0.25,0.55,0.78,0.44,0.5,0.28,0.78,0.44" style="fill:rgb(0,0,0);font-family:URWPalladioL-Ital;font-size:8.97px;stroke:none;">C. maxima</text>
   <text y="426.307" x="406.191,408.4335,410.679,415.75,420.237,423.118,425.3605,428.136,433.62,437.919,441.464,444.848,449.147,452.073,454.999,457.611,462.834,467.322,470.2821,472.555,475.544,483.469,487.768,492.256" svgx:width="0.25,0.55,0.56,0.5,0.4,0.25,0.55,0.61,0.48,0.4,0.4,0.48,0.33,0.33,0.29,0.58,0.5,0.33,0.55,0.33,0.88,0.48,0.5,0.58" style="fill:rgb(0,0,0);font-family:URWPalladioL-Roma;font-size:8.97px;stroke:none;">, var. Berrettina) (mean</text>
   <text y="439.129" x="97.544,102.61,107.093,109.702,115.109" svgx:width="0.56,0.5,0.29,0.6,0.48" style="fill:rgb(0,0,0);font-family:URWPalladioL-Roma;font-size:8.97px;stroke:none;">value</text>
   <text y="439.129" x="121.757" svgx:width="0.78" style="fill:rgb(0,0,0);font-family:CMSY10;font-size:9.34px;stroke:none;">±</text>
   <text y="439.129" x="131.374,135.176,138.099,142.582,147.8,153.279,157.762,161.142,166.6137,168.863,174.341,178.636,183.702,186.311,190.794,193.717,196.327,201.222,206.4246,208.682,211.668,216.375,223.315,226.301" svgx:width="0.42,0.33,0.5,0.58,0.61,0.5,0.4,0.61,0.55,0.61,0.48,0.56,0.29,0.5,0.33,0.29,0.55,0.58,0.55,0.33,0.52,0.77,0.33,0.25" style="fill:rgb(0,0,0);font-family:URWPalladioL-Roma;font-size:8.97px;stroke:none;">standard deviation (SD),</text>
   <text y="439.129" x="230.783" svgx:width="0.56" style="fill:rgb(0,0,0);font-family:URWPalladioL-Ital;font-size:8.97px;stroke:none;">n</text>
   <text y="439.129" x="238.01,243.4817,245.685,250.168,253.154" svgx:width="0.61,0.55,0.5,0.33,0.25" style="fill:rgb(0,0,0);font-family:URWPalladioL-Roma;font-size:8.97px;stroke:none;">= 3).</text>
  </g>
  <path style="fill:none;stroke:rgb(0,0,0);stroke-width:1.0;" d="M184.540 453.340 L410.740 453.340 "/>
  <g begin="text">
   <text y="464.193" x="216.927,223.401,228.386,236.357,241.836,246.821,252.299,256.783,262.261,265.22110000000004,316.651,325.618,330.101,334.584,340.0557,342.304,348.285,352.768,355.754,361.232" svgx:width="0.72,0.56,0.89,0.61,0.56,0.61,0.5,0.61,0.33,0.55,1.0,0.5,0.5,0.61,0.55,0.78,0.5,0.33,0.61,0.5" style="fill:rgb(0,0,0);font-family:URWPalladioL-Bold;font-size:8.97px;stroke:none;">Component Mean Value</text>
   <text y="464.193" x="368.069" svgx:width="0.89" style="fill:rgb(0,0,0);font-family:CMBSY10;font-size:9.34px;stroke:none;">±</text>
   <text y="464.193" x="378.779,384.257" svgx:width="0.61,0.83" style="fill:rgb(0,0,0);font-family:URWPalladioL-Bold;font-size:8.97px;stroke:none;">SD</text>
  </g>
  <path style="fill:none;stroke:rgb(0,0,0);stroke-width:0.8;" d="M184.540 469.400 L410.740 469.400 "/>
  <g begin="text">
   <text y="480.004" x="201.725,207.203,212.422,216.717,220.097,225.082,230.1052,232.309,235.295,240.281,244.262,248.745,251.354,256.788,261.271,265.754,270.23900000000003,272.479,277.464,280.4241,344.103,348.586,353.069,355.311,359.794" svgx:width="0.61,0.58,0.48,0.4,0.56,0.56,0.55,0.33,0.56,0.44,0.5,0.29,0.61,0.5,0.5,0.5,0.55,0.56,0.33,0.55,0.5,0.5,0.25,0.5,0.5" style="fill:rgb(0,0,0);font-family:URWPalladioL-Roma;font-size:8.97px;stroke:none;">Energy (kcal/100 g) 25.35</text>
   <text y="491.012" x="223.19,231.672,236.568,239.177,242.979,245.902,251.309,254.689,258.9946,330.276,334.759,339.242,341.484,345.967" svgx:width="0.95,0.55,0.29,0.42,0.33,0.6,0.4,0.48,0.55,0.5,0.5,0.25,0.5,0.5" style="fill:rgb(0,0,0);font-family:URWPalladioL-Roma;font-size:8.97px;stroke:none;">Moisture 82.50</text>
   <text y="491.012" x="352.799" svgx:width="0.78" style="fill:rgb(0,0,0);font-family:CMSY10;font-size:9.34px;stroke:none;">±</text>
   <text y="491.012" x="362.416,366.899,369.141,373.624" svgx:width="0.5,0.25,0.5,0.5" style="fill:rgb(0,0,0);font-family:URWPalladioL-Roma;font-size:8.97px;stroke:none;">0.37</text>
   <text y="502.021" x="219.191,226.131,229.673,234.6962,236.9,244.817,249.3,252.223,255.146,259.441,263.029,330.276,334.759,339.242,341.484,345.967" svgx:width="0.77,0.4,0.56,0.55,0.88,0.5,0.33,0.33,0.48,0.4,0.55,0.5,0.5,0.25,0.5,0.5" style="fill:rgb(0,0,0);font-family:URWPalladioL-Roma;font-size:8.97px;stroke:none;">Dry matter 17.50</text>
   <text y="502.021" x="352.799" svgx:width="0.78" style="fill:rgb(0,0,0);font-family:CMSY10;font-size:9.34px;stroke:none;">±</text>
   <text y="502.021" x="362.416,366.899,369.141,373.624" svgx:width="0.5,0.25,0.5,0.5" style="fill:rgb(0,0,0);font-family:URWPalladioL-Roma;font-size:8.97px;stroke:none;">0.14</text>
   <text y="513.03" x="223.423,228.095,232.99,235.913,240.396,242.9973,245.247,249.73,253.532,258.7346,332.517,337.0,339.242,343.725" svgx:width="0.61,0.55,0.33,0.5,0.29,0.55,0.5,0.42,0.58,0.55,0.5,0.25,0.5,0.5" style="fill:rgb(0,0,0);font-family:URWPalladioL-Roma;font-size:8.97px;stroke:none;">Total ash 0.84</text>
   <text y="513.03" x="350.558" svgx:width="0.78" style="fill:rgb(0,0,0);font-family:CMSY10;font-size:9.34px;stroke:none;">±</text>
   <text y="513.03" x="360.174,364.657,366.899,371.382" svgx:width="0.5,0.25,0.5,0.5" style="fill:rgb(0,0,0);font-family:URWPalladioL-Roma;font-size:8.97px;stroke:none;">0.04</text>
   <text y="524.039" x="213.107,219.464,222.934,228.341,233.819,238.1246,240.356,245.745,249.125,254.021,256.944,261.239,263.848,269.05060000000003,332.513,336.996,339.237,343.721" svgx:width="0.71,0.4,0.6,0.61,0.48,0.55,0.6,0.4,0.55,0.33,0.48,0.29,0.58,0.55,0.5,0.25,0.5,0.5" style="fill:rgb(0,0,0);font-family:URWPalladioL-Roma;font-size:8.97px;stroke:none;">Crude protein 1.28</text>
   <text y="524.039" x="350.558" svgx:width="0.78" style="fill:rgb(0,0,0);font-family:CMSY10;font-size:9.34px;stroke:none;">±</text>
   <text y="524.039" x="360.174,364.657,366.899,371.382" svgx:width="0.5,0.25,0.5,0.5" style="fill:rgb(0,0,0);font-family:URWPalladioL-Roma;font-size:8.97px;stroke:none;">0.03</text>
   <text y="535.047" x="222.405,228.762,232.232,237.639,243.117,247.4226,249.654,254.55,257.159,259.7603,332.512,336.996,339.237,343.72" svgx:width="0.71,0.4,0.6,0.61,0.48,0.55,0.55,0.29,0.29,0.55,0.5,0.25,0.5,0.5" style="fill:rgb(0,0,0);font-family:URWPalladioL-Roma;font-size:8.97px;stroke:none;">Crude oil 0.08</text>
   <text y="535.047" x="350.558" svgx:width="0.78" style="fill:rgb(0,0,0);font-family:CMSY10;font-size:9.34px;stroke:none;">±</text>
   <text y="535.047" x="360.174,364.657,366.899,371.382" svgx:width="0.5,0.25,0.5,0.5" style="fill:rgb(0,0,0);font-family:URWPalladioL-Roma;font-size:8.97px;stroke:none;">0.01</text>
   <text y="546.056" x="217.165,221.837,226.732,229.655,234.138,236.73930000000001,238.989,242.791,248.198,253.183,257.666,261.208,264.97540000000004,332.509,336.992,339.234,343.717" svgx:width="0.61,0.55,0.33,0.5,0.29,0.55,0.42,0.6,0.56,0.5,0.4,0.42,0.55,0.5,0.25,0.5,0.5" style="fill:rgb(0,0,0);font-family:URWPalladioL-Roma;font-size:8.97px;stroke:none;">Total sugars 4.90</text>
   <text y="546.056" x="350.558" svgx:width="0.78" style="fill:rgb(0,0,0);font-family:CMSY10;font-size:9.34px;stroke:none;">±</text>
   <text y="546.056" x="360.174,364.657,366.899,371.382" svgx:width="0.5,0.25,0.5,0.5" style="fill:rgb(0,0,0);font-family:URWPalladioL-Roma;font-size:8.97px;stroke:none;">0.09</text>
   <text y="557.065" x="228.74,233.447,236.37,240.854,244.234,248.215,253.4176,332.517,337.0,339.242,343.725" svgx:width="0.52,0.33,0.5,0.4,0.44,0.58,0.55,0.5,0.25,0.5,0.5" style="fill:rgb(0,0,0);font-family:URWPalladioL-Roma;font-size:8.97px;stroke:none;">Starch 4.10</text>
   <text y="557.065" x="350.558" svgx:width="0.78" style="fill:rgb(0,0,0);font-family:CMSY10;font-size:9.34px;stroke:none;">±</text>
   <text y="557.065" x="360.174,364.657,366.899,371.382" svgx:width="0.5,0.25,0.5,0.5" style="fill:rgb(0,0,0);font-family:URWPalladioL-Roma;font-size:8.97px;stroke:none;">0.05</text>
   <text y="568.074" x="213.193,217.9,220.51,228.427,233.816,236.425,240.7306,242.961,246.763,252.17,257.155,261.638,265.18,268.9474,332.509,336.992,339.234,343.717" svgx:width="0.52,0.29,0.88,0.6,0.29,0.48,0.55,0.42,0.6,0.56,0.5,0.4,0.42,0.55,0.5,0.25,0.5,0.5" style="fill:rgb(0,0,0);font-family:URWPalladioL-Roma;font-size:8.97px;stroke:none;">Simple sugars 0.82</text>
   <text y="568.074" x="350.558" svgx:width="0.78" style="fill:rgb(0,0,0);font-family:CMSY10;font-size:9.34px;stroke:none;">±</text>
   <text y="568.074" x="360.174,364.657,366.899,371.382" svgx:width="0.5,0.25,0.5,0.5" style="fill:rgb(0,0,0);font-family:URWPalladioL-Roma;font-size:8.97px;stroke:none;">0.03</text>
  </g>
  <path style="fill:none;stroke:rgb(0,0,0);stroke-width:0.3;" d="M184.540 573.530 L410.740 573.530 "/>
  <g begin="text">
   <text y="597.136" x="76.535,81.516,84.007,88.988,91.478,94.567,100.107,104.53,107.847,111.165,116.14500000000001,118.637,125.83,129.885,132.654,137.634,140.126,146.771,151.195,158.946,163.927,168.35,172.226,174.995,178.313,181.083,185.506,191.0836,193.536,197.959,200.7478,203.219,208.759,212.634,216.51,221.48999999999998,223.981,231.732,234.502,237.272,241.1564,243.638,248.061,253.6,258.58,261.072,268.823,274.362,277.68,281.555,284.325,287.643,290.412,294.836,300.375,304.798,307.5868,310.058,317.809,323.349,327.772,330.542,333.311,336.629,341.60900000000004,344.101,347.418,352.957,357.939,361.814" svgx:width="0.5,0.25,0.5,0.25,0.55,0.56,0.44,0.33,0.33,0.5,0.55,0.72,0.41,0.28,0.5,0.55,0.67,0.44,0.78,0.5,0.44,0.39,0.28,0.33,0.28,0.44,0.56,0.55,0.44,0.28,0.55,0.56,0.39,0.39,0.5,0.55,0.78,0.28,0.28,0.39,0.55,0.44,0.56,0.5,0.55,0.78,0.56,0.33,0.39,0.28,0.33,0.28,0.44,0.56,0.44,0.28,0.55,0.78,0.56,0.44,0.28,0.28,0.33,0.5,0.55,0.33,0.56,0.5,0.39,0.5" style="fill:rgb(0,0,0);font-family:URWPalladioL-Ital;font-size:9.96px;stroke:none;">3.2. Fatty Acid Composition of Seed Oils and Nutritional Quality Index</text>
   <text y="616.623" x="97.795,103.11,108.658,111.971,117.052,119.94040000000001,123.576,128.484,136.39,144.75639999999999,148.492,153.004,158.553,167.526,173.633,179.181,183.49,186.447,189.76,192.717,198.265,204.179,208.488,210.978,214.87,219.382,224.93,228.944,232.775,237.642,241.951,248.058,253.607,259.521,265.73,268.687,274.601,280.1786,283.818,287.131,292.609,296.246,301.113,306.194,310.706,316.4828,320.187,325.105,332.8738,336.578,341.09,346.638,355.611,361.719,367.267,373.181,378.049,383.963,387.24980000000005,390.842,396.391,399.67780000000005,403.341,408.89,411.847,414.73539999999997,418.371,423.452,429.366,435.4416,439.142,444.629,452.535,460.1046,463.855,467.239,471.253,476.334,480.846,484.159,487.116,492.664,498.578,501.068,504.96,510.041,513.872" svgx:width="0.61,0.55,0.33,0.5,0.29,0.55,0.56,0.78,0.84,0.55,0.44,0.55,0.88,0.6,0.55,0.42,0.29,0.33,0.29,0.55,0.58,0.42,0.25,0.55,0.44,0.55,0.4,0.4,0.48,0.42,0.6,0.55,0.58,0.61,0.29,0.58,0.56,0.55,0.33,0.55,0.55,0.48,0.5,0.44,0.58,0.55,0.56,0.78,0.55,0.44,0.55,0.88,0.6,0.55,0.58,0.48,0.58,0.33,0.55,0.55,0.33,0.55,0.55,0.29,0.29,0.55,0.5,0.58,0.61,0.55,0.61,0.78,0.76,0.55,0.33,0.4,0.5,0.44,0.33,0.29,0.55,0.58,0.25,0.55,0.5,0.4,0.48" style="fill:rgb(0,0,0);font-family:URWPalladioL-Roma;font-size:9.96px;stroke:none;">Total FA% compositions, corresponding to each FA component of oil and TAG fraction, are</text>
   <text y="630.133" x="76.535,80.366,85.234,91.341,96.889,100.903,104.216,109.083,115.15859999999999,119.753,122.71,128.4868,133.076,138.39,143.471,149.091,152.048" svgx:width="0.4,0.48,0.6,0.55,0.4,0.33,0.48,0.61,0.55,0.29,0.58,0.55,0.61,0.5,0.55,0.29,0.48" style="fill:rgb(0,0,0);font-family:URWPalladioL-Roma;font-size:9.96px;stroke:none;">reported in Table</text>
   <text y="630.133" x="161.366" svgx:width="0.5" style="fill:rgb(8,117,183);font-family:URWPalladioL-Roma;font-size:9.96px;stroke:none;">2</text>
   <text y="630.133" x="166.447,168.937,177.971,183.306,188.224,195.9928,200.581,209.056,212.013,215.326,221.1028,225.691,230.203,235.283,239.297,244.917,250.465,256.2418,260.841,265.352,271.267,276.348,279.305,285.219,289.4022,293.978,298.287,304.201,309.75,313.763,317.076,321.944,325.928,330.409,333.721,339.635,344.716,350.4928,355.092,360.173,365.153,369.704,374.216,379.297,383.311,388.931,394.479,400.25579999999997,404.854,409.935,413.248,418.796,427.769,432.078,434.568,439.557,444.069,449.15,452.107,455.064,459.932,466.0076,470.602,474.91,480.824,486.373,490.387,493.699,496.98580000000004,501.534,506.615,512.529" svgx:width="0.25,0.55,0.52,0.56,0.78,0.55,0.83,0.29,0.33,0.58,0.55,0.44,0.5,0.4,0.55,0.55,0.58,0.55,0.44,0.58,0.5,0.29,0.58,0.42,0.55,0.42,0.58,0.55,0.4,0.33,0.48,0.4,0.55,0.33,0.58,0.5,0.58,0.55,0.5,0.5,0.55,0.44,0.5,0.4,0.55,0.55,0.58,0.55,0.5,0.33,0.55,0.88,0.42,0.25,0.55,0.44,0.5,0.29,0.29,0.48,0.61,0.55,0.42,0.58,0.55,0.4,0.33,0.33,0.55,0.5,0.58,0.61" style="fill:rgb(0,0,0);font-family:URWPalladioL-Roma;font-size:9.96px;stroke:none;">. SFA with carbon chains shorter than 14 carbon atoms, called short- and</text>
   <text y="643.642" x="76.535,85.508,90.375,96.584,99.541,105.669,114.642,118.026,122.538,128.452,133.533,136.49,142.26680000000002,145.432,150.351,158.257,160.747,163.825,172.3,177.381,181.5642,184.718,190.632,196.181,199.4678,202.522,205.906,211.454,217.581,223.496,229.57160000000002,232.743,235.7,241.4768,244.643,250.75,256.877,265.85,271.958,277.608,280.565,286.3418,289.507,293.816,298.683,303.551,309.6266,312.788,318.336,321.293,324.25,326.74,329.961,335.042,339.2252,342.379,346.891,352.439,358.354,364.501,368.515,377.488,382.356,388.4316,391.593,394.55,400.3268,403.503,409.051,412.364,418.278,423.146,427.13,430.188,436.295,441.376,447.483,452.351,456.365,460.5482,463.701" svgx:width="0.88,0.48,0.61,0.29,0.6,0.88,0.33,0.44,0.58,0.5,0.29,0.58,0.55,0.56,0.78,0.25,0.55,0.83,0.5,0.42,0.55,0.58,0.55,0.33,0.55,0.33,0.55,0.6,0.58,0.61,0.55,0.29,0.58,0.55,0.6,0.6,0.88,0.6,0.56,0.29,0.58,0.55,0.42,0.48,0.48,0.61,0.55,0.55,0.29,0.29,0.25,0.55,0.5,0.42,0.55,0.44,0.55,0.58,0.61,0.4,0.88,0.48,0.61,0.55,0.29,0.58,0.55,0.55,0.33,0.58,0.48,0.4,0.55,0.6,0.5,0.6,0.48,0.4,0.42,0.55,0.33" style="fill:rgb(0,0,0);font-family:URWPalladioL-Roma;font-size:9.96px;stroke:none;">medium-chain FA, was not found in pumpkin seed oil, as conﬁrmed in other papers [</text>
   <text y="643.642" x="467.087,472.068" svgx:width="0.5,0.5" style="fill:rgb(8,117,183);font-family:URWPalladioL-Roma;font-size:9.96px;stroke:none;">14</text>
   <text y="643.642" x="477.05" svgx:width="0.25" style="fill:rgb(0,0,0);font-family:URWPalladioL-Roma;font-size:9.96px;stroke:none;">,</text>
   <text y="643.642" x="479.59,484.571" svgx:width="0.5,0.5" style="fill:rgb(8,117,183);font-family:URWPalladioL-Roma;font-size:9.96px;stroke:none;">20</text>
   <text y="643.642" x="489.553" svgx:width="0.25" style="fill:rgb(0,0,0);font-family:URWPalladioL-Roma;font-size:9.96px;stroke:none;">,</text>
   <text y="643.642" x="492.094,497.075" svgx:width="0.5,0.5" style="fill:rgb(8,117,183);font-family:URWPalladioL-Roma;font-size:9.96px;stroke:none;">37</text>
   <text y="643.642" x="502.056" svgx:width="0.25" style="fill:rgb(0,0,0);font-family:URWPalladioL-Roma;font-size:9.96px;stroke:none;">,</text>
   <text y="643.642" x="504.597,509.578" svgx:width="0.5,0.5" style="fill:rgb(8,117,183);font-family:URWPalladioL-Roma;font-size:9.96px;stroke:none;">38</text>
   <text y="643.642" x="514.559,517.943" svgx:width="0.33,0.25" style="fill:rgb(0,0,0);font-family:URWPalladioL-Roma;font-size:9.96px;stroke:none;">].</text>
   <text y="657.151" x="76.535,81.87,86.778,94.5468,98.312,106.787,111.868,116.0512,119.794,123.625,128.493,134.6,138.441,143.309,147.617,152.485,158.399,161.712,166.579,172.65460000000002,176.406,181.273,185.582,191.689,196.557,201.068,204.026,209.106,212.064,215.021,220.59859999999998,224.288,229.908,235.48559999999998,239.186,245.293,250.374,253.331,262.304,265.261,268.574,271.531,275.9134,279.66,283.044,290.249,295.33,300.411,302.951,308.032,311.3188,315.034,320.115,326.029,332.1046,335.865,340.174,343.487,348.354,353.435,357.449,360.406,364.7884,368.536,371.92,379.124,384.205,389.286,391.827,396.908,400.19480000000004,403.909,408.99,413.502,416.459,422.668,426.977,429.467,433.429,438.51,441.7968,445.441,450.522,455.603,458.143,463.224,471.5904,475.378,480.459,486.373,492.4486,496.209,501.29,503.831,508.912,517.448" svgx:width="0.52,0.56,0.78,0.55,0.83,0.5,0.42,0.55,0.4,0.48,0.6,0.4,0.48,0.42,0.48,0.58,0.33,0.48,0.61,0.55,0.48,0.42,0.6,0.48,0.44,0.29,0.5,0.29,0.29,0.56,0.55,0.55,0.56,0.55,0.6,0.5,0.29,0.88,0.29,0.33,0.29,0.44,0.55,0.33,0.71,0.5,0.5,0.25,0.5,0.33,0.55,0.5,0.58,0.61,0.55,0.42,0.33,0.48,0.5,0.4,0.29,0.44,0.55,0.33,0.71,0.5,0.5,0.25,0.5,0.33,0.55,0.5,0.44,0.29,0.61,0.42,0.25,0.55,0.5,0.33,0.55,0.5,0.5,0.25,0.5,0.84,0.55,0.5,0.58,0.61,0.55,0.5,0.25,0.5,0.84,0.25" style="fill:rgb(0,0,0);font-family:URWPalladioL-Roma;font-size:9.96px;stroke:none;">SFA was represented especially by palmitic (C16:0) and stearic (C18:0) acids, at 14.2% and 5.8%,</text>
   <text y="670.661" x="76.535,80.235,84.935,89.096,94.994,99.694,104.051,107.25,110.106,115.65,120.351,123.206,127.554,130.044,133.118,136.425,139.7118,142.116,144.972,149.1552,151.635,155.335,160.035,165.933,171.291,175.167,178.366,183.067,189.14260000000002,191.555,194.754,200.465,205.372,208.6588,211.073,216.431,219.287,222.143,226.3262,228.796,232.672,235.528,239.885,245.6618,248.099,250.954,256.7308,259.158,267.823,273.279,277.155,280.011,284.172,287.371,290.226,294.6084,297.086,300.354,307.311,312.218,317.124,319.578,324.484,327.7708,330.245,335.151,340.862,346.93760000000003,349.361,355.258,360.165,363.02,371.685,374.541,377.74,380.596,384.9784,387.445,392.352,396.709,399.565,405.561,409.7442,412.224,417.13,420.221,423.489,428.19,432.547,435.83380000000005,438.238,441.438,447.149,451.9298,454.352,458.228,463.134,466.333,469.189,474.66700000000003,477.04,482.398,485.68480000000005,488.168,491.367,496.725,499.924,504.831,507.7194,510.179,513.378" svgx:width="0.4,0.48,0.42,0.6,0.48,0.44,0.33,0.29,0.56,0.48,0.29,0.56,0.25,0.55,0.34,0.33,0.55,0.29,0.42,0.55,0.4,0.48,0.6,0.55,0.4,0.33,0.48,0.61,0.55,0.33,0.58,0.5,0.33,0.55,0.55,0.29,0.29,0.42,0.55,0.4,0.29,0.44,0.58,0.55,0.29,0.58,0.55,0.88,0.56,0.4,0.29,0.42,0.33,0.29,0.44,0.55,0.33,0.71,0.5,0.5,0.25,0.5,0.33,0.55,0.5,0.58,0.61,0.55,0.6,0.5,0.29,0.88,0.29,0.33,0.29,0.44,0.55,0.5,0.44,0.29,0.61,0.42,0.55,0.5,0.33,0.33,0.48,0.44,0.33,0.55,0.33,0.58,0.48,0.55,0.4,0.5,0.33,0.29,0.55,0.55,0.55,0.33,0.55,0.33,0.55,0.33,0.5,0.29,0.55,0.33,0.55" style="fill:rgb(0,0,0);font-family:URWPalladioL-Roma;font-size:9.96px;stroke:none;">respectively. It is reported that oils rich in myristic (C14:0) and palmitic acids affect the ratio of total to</text>
   <text y="684.17" x="76.535,82.246,85.102,90.558,96.269,99.537,105.533,110.233,115.945,120.105,122.961,126.16,131.7376,134.109,136.964,139.82,145.718,151.076,156.973,160.673,166.031,169.23,173.931,176.786,182.5628,184.99,188.258,196.422,204.018,210.014,213.3008,215.774,220.131,225.842,231.2,234.056,238.756,242.917,246.116,250.817,254.506,259.864,262.75239999999997,265.213,270.571,276.282,279.138,284.7156,287.086,292.06600000000003,294.485,297.341,300.197,303.396,306.595,309.45,314.151,316.641,319.097,324.003,329.715,335.7906,338.203,342.364,345.563,350.263,355.17,359.046,361.902,366.2844,368.751,373.658,378.015,380.871,386.9466,389.359,393.52,396.375,399.231,404.687,410.398,413.598,416.453,422.0306,424.402,428.101,432.802,438.798,444.715,449.072,453.773,457.9562,460.426,463.625,469.336,472.192,476.3752,478.845,482.721,487.628,490.827,493.683,499.161,501.533" svgx:width="0.58,0.29,0.56,0.58,0.33,0.61,0.48,0.58,0.42,0.29,0.33,0.56,0.55,0.29,0.29,0.6,0.55,0.6,0.4,0.55,0.33,0.48,0.29,0.58,0.55,0.33,0.83,0.77,0.61,0.33,0.55,0.44,0.58,0.55,0.29,0.48,0.42,0.33,0.48,0.4,0.55,0.29,0.55,0.55,0.58,0.29,0.56,0.55,0.5,0.55,0.29,0.29,0.33,0.33,0.29,0.48,0.25,0.55,0.5,0.58,0.61,0.55,0.42,0.33,0.48,0.5,0.4,0.29,0.44,0.55,0.5,0.44,0.29,0.61,0.55,0.42,0.29,0.29,0.56,0.58,0.33,0.29,0.56,0.55,0.4,0.48,0.61,0.6,0.44,0.48,0.42,0.55,0.33,0.58,0.29,0.42,0.55,0.4,0.5,0.33,0.29,0.55,0.55,0.33" style="fill:rgb(0,0,0);font-family:URWPalladioL-Roma;font-size:9.96px;stroke:none;">high-density lipoprotein (HDL) cholesterol only a little, and stearic acid slightly reduces this ratio [</text>
   <text y="684.17" x="504.8,509.781" svgx:width="0.5,0.5" style="fill:rgb(8,117,183);font-family:URWPalladioL-Roma;font-size:9.96px;stroke:none;">35</text>
   <text y="684.17" x="514.763,518.031" svgx:width="0.33,0.25" style="fill:rgb(0,0,0);font-family:URWPalladioL-Roma;font-size:9.96px;stroke:none;">].</text>
   <text y="697.68" x="76.535,82.498,90.179,94.928,102.6968,105.117,110.054,115.8,121.87559999999999,124.33,133.67,141.351,146.1,153.8688,156.279,159.566,163.466,168.403,172.786,176.005,178.878,184.268,190.015,194.19819999999999,196.699,204.933,209.662,213.384,218.16479999999999,220.611,223.829,229.575,234.3558,236.802,245.52,250.911,255.097,258.3838,260.823,265.76,271.219,277.173,282.919,288.951,293.888,299.634,302.92080000000004,305.35,308.638,313.574,318.511,320.979,325.916,336.707,341.643,347.389,353.4646,355.919,360.856,365.792,368.261,373.197,381.49,383.98,386.456,390.179,394.908,399.094,405.027,409.757,414.14,417.359,420.232,425.81,430.539,433.412,437.796,440.286,442.772,446.059,451.45,455.43399999999997,457.848,463.238,466.111,468.984,471.474,473.95,478.887,483.823,486.291,491.228,502.029,506.965,512.711" svgx:width="0.6,0.78,0.56,0.78,0.55,0.5,0.58,0.61,0.55,0.95,0.78,0.56,0.78,0.55,0.33,0.4,0.5,0.44,0.33,0.29,0.55,0.58,0.42,0.55,0.83,0.48,0.4,0.48,0.55,0.33,0.58,0.48,0.55,0.88,0.55,0.42,0.33,0.55,0.5,0.55,0.6,0.58,0.61,0.5,0.58,0.33,0.55,0.33,0.5,0.5,0.25,0.5,0.84,0.5,0.58,0.61,0.55,0.5,0.5,0.25,0.5,0.84,0.25,0.55,0.4,0.48,0.42,0.6,0.48,0.44,0.33,0.29,0.56,0.48,0.29,0.56,0.25,0.55,0.33,0.55,0.4,0.55,0.55,0.29,0.29,0.25,0.55,0.5,0.5,0.25,0.5,0.84,0.5,0.58,0.61" style="fill:rgb(0,0,0);font-family:URWPalladioL-Roma;font-size:9.96px;stroke:none;">PUFA and MUFA fractions were the most abundant (37.2%and 41.7%, respectively, for oil; 37.8%and</text>
   <text y="711.189" x="76.535,81.551,86.567,89.075,94.092,102.519,105.009,107.515,111.297,116.103,120.356,126.386,131.191,135.646,138.916,141.835,147.504,152.309,155.229,159.703,162.193,164.699,168.04,173.518,177.502,179.958,185.376,193.181,200.836,204.176,206.666,209.173,212.092,217.86880000000002,220.409,223.75,228.766,233.22,236.491,238.98100000000002,241.487,244.757,250.596,255.3768,257.89,266.748,271.764,274.684,280.4608,283.011,287.846,295.6148,298.139,306.506,311.312,315.094,319.8748,322.387,327.865,330.784,335.59,338.509,342.89140000000003,345.452,348.792,355.905,360.922,365.938,368.446" svgx:width="0.5,0.5,0.25,0.5,0.84,0.25,0.55,0.4,0.48,0.42,0.6,0.48,0.44,0.33,0.29,0.56,0.48,0.29,0.56,0.25,0.55,0.33,0.55,0.4,0.55,0.61,0.78,0.76,0.33,0.25,0.55,0.29,0.58,0.55,0.33,0.5,0.44,0.33,0.25,0.55,0.33,0.58,0.48,0.55,0.88,0.5,0.29,0.58,0.55,0.56,0.78,0.55,0.83,0.48,0.4,0.48,0.55,0.55,0.29,0.48,0.29,0.44,0.55,0.33,0.71,0.5,0.5,0.25,0.5" style="fill:rgb(0,0,0);font-family:URWPalladioL-Roma;font-size:9.96px;stroke:none;">43.0%, respectively, for TAG); in fact, the main FA were oleic (C18:1</text>
   <text y="711.189" x="373.459" svgx:width="0.56" style="fill:rgb(0,0,0);font-family:URWPalladioL-Ital;font-size:9.96px;stroke:none;">n</text>
   <text y="711.189" x="379.037,382.378,387.394,390.68080000000003,393.223,398.239,404.078,410.1536,412.695,415.615,418.534,424.373,429.851,432.77,437.576,440.495,444.8774,447.427,450.768,457.881,462.897,467.913,470.421" svgx:width="0.33,0.5,0.33,0.55,0.5,0.58,0.61,0.55,0.29,0.29,0.58,0.55,0.29,0.48,0.29,0.44,0.55,0.33,0.71,0.5,0.5,0.25,0.5" style="fill:rgb(0,0,0);font-family:URWPalladioL-Roma;font-size:9.96px;stroke:none;">-9) and linoleic (C18:2</text>
   <text y="711.189" x="475.441" svgx:width="0.56" style="fill:rgb(0,0,0);font-family:URWPalladioL-Ital;font-size:9.96px;stroke:none;">n</text>
   <text y="711.189" x="481.019,484.36,489.376,492.6628,495.205,500.221,504.675,507.595,513.724,517.978" svgx:width="0.33,0.5,0.33,0.55,0.5,0.44,0.29,0.61,0.42,0.25" style="fill:rgb(0,0,0);font-family:URWPalladioL-Roma;font-size:9.96px;stroke:none;">-6) acids.</text>
   <text y="724.698" x="76.535,82.634,87.416,91.359,95.122,99.904,103.158,106.413,109.318,115.127,120.107,122.614,128.614,134.633,143.448,149.447,154.998,157.903,163.6798,166.198,170.431,175.212,179.994,186.0696,188.589,194.039,196.944,199.83239999999998,202.335,206.567,212.377,217.828,226.153,230.935,237.0106,239.53,244.51,247.007,252.816,255.721,261.272,267.081,271.863,275.847,278.302,282.734,288.184,293.994,297.249,302.03,307.84,311.1268,313.58,319.03,322.3168,324.85,330.301,333.206,337.987,340.892,345.2744,347.81,352.801,357.234,360.138,366.2136,368.733,371.988,377.798,382.789,388.56579999999997,391.094,393.999,396.904,402.714,408.164,411.069,415.851,418.756,423.1384,425.674,430.665,435.097,438.002,444.0776,446.597,449.921,454.913,459.904,462.399,467.391,478.262,483.902,488.134,490.624,493.725,498.716,503.707,506.203,511.194" svgx:width="0.61,0.48,0.4,0.4,0.48,0.33,0.33,0.29,0.58,0.5,0.55,0.6,0.6,0.88,0.6,0.56,0.29,0.58,0.55,0.42,0.48,0.48,0.61,0.55,0.55,0.29,0.29,0.55,0.42,0.58,0.55,0.83,0.48,0.61,0.55,0.5,0.55,0.58,0.29,0.56,0.58,0.48,0.4,0.55,0.44,0.55,0.58,0.33,0.48,0.58,0.33,0.55,0.55,0.33,0.55,0.55,0.29,0.48,0.29,0.44,0.55,0.5,0.44,0.29,0.61,0.55,0.33,0.58,0.5,0.58,0.55,0.29,0.29,0.58,0.55,0.29,0.48,0.29,0.44,0.55,0.5,0.44,0.29,0.61,0.55,0.33,0.5,0.5,0.25,0.5,0.84,0.56,0.42,0.25,0.55,0.5,0.5,0.25,0.5,0.84" style="fill:rgb(0,0,0);font-family:URWPalladioL-Roma;font-size:9.96px;stroke:none;">Berrettina pumpkin seed oil showed a higher content of oleic acid than linoleic acid (41.4%vs. 37.0%</text>
   <text y="738.208" x="76.535,79.919,85.467,89.451,92.286,97.834,100.791,103.748,107.132,109.622,112.63,118.178,123.95479999999999,126.887,130.2,136.114,140.8948,143.786,148.298,153.846,159.761,163.073,167.087,172.168,176.182,180.724,183.214,186.141,192.279,196.12,201.668,206.18,209.137,215.346,220.326,223.221,228.089,231.3758,234.206,239.287,242.244,244.734,247.579" svgx:width="0.33,0.55,0.4,0.55,0.55,0.29,0.29,0.33,0.25,0.55,0.55,0.58,0.55,0.33,0.58,0.48,0.55,0.44,0.55,0.58,0.33,0.4,0.5,0.4,0.56,0.25,0.55,0.6,0.4,0.55,0.44,0.29,0.61,0.5,0.55,0.48,0.33,0.55,0.5,0.29,0.25,0.55,0.33" style="fill:rgb(0,0,0);font-family:URWPalladioL-Roma;font-size:9.96px;stroke:none;">for oil); on the contrary, Procida et al. [</text>
   <text y="738.208" x="250.968,255.949" svgx:width="0.5,0.5" style="fill:rgb(8,117,183);font-family:URWPalladioL-Roma;font-size:9.96px;stroke:none;">20</text>
   <text y="738.208" x="260.931,264.2178,267.12,270.951,275.818,281.925,287.474,291.488,294.8,299.668,305.7436,308.682,313.66200000000003,316.557,322.471,325.428,331.078,336.992,341.86,345.844,348.678,353.19,358.739,364.653,367.966,372.833,378.747,382.03380000000004,384.855,390.403,393.68980000000005,396.592,399.549,402.506,408.42,413.968,416.925,421.793,424.75,429.1324,432.067,437.148,441.659,444.616,450.6916,453.62,457.004,462.085,467.166,469.706,474.787,479.868,484.949,490.03,495.111,497.651,502.732,507.813,516.349" svgx:width="0.33,0.55,0.4,0.48,0.6,0.55,0.4,0.33,0.48,0.61,0.55,0.5,0.55,0.58,0.29,0.56,0.58,0.48,0.4,0.55,0.44,0.55,0.58,0.33,0.48,0.58,0.33,0.55,0.55,0.33,0.55,0.29,0.29,0.58,0.55,0.29,0.48,0.29,0.44,0.55,0.5,0.44,0.29,0.61,0.55,0.33,0.5,0.5,0.25,0.5,0.5,0.5,0.5,0.5,0.25,0.5,0.5,0.84,0.33" style="fill:rgb(0,0,0);font-family:URWPalladioL-Roma;font-size:9.96px;stroke:none;">] reported a higher content of linoleic acid (44.30–51.58%)</text>
   <text y="751.717" x="76.535,79.848,85.762,90.843,96.6198,99.643,105.191,108.149,113.016,115.973,120.3554,123.371,128.452,132.964,135.921,141.9966,145.016,148.4,153.481,158.561,161.102,166.183,171.264,176.345,181.426,186.507,189.047,194.128,199.209,207.745,211.0318,214.005,217.388,222.937,226.92100000000002,229.837,233.15,239.064,242.905,247.772,252.5528,255.516,258.94,262.253,267.334,270.291,273.248,278.329,284.1058,287.129,291.438,296.519,305.492,311.599,314.556,319.424,323.6072,326.618,332.167,335.4538,338.436,344.544,350.671,359.644,365.751,371.401,374.359,380.13579999999996,383.159,386.543,393.747,397.68,403.808,410.016,412.974,418.624,424.538,430.086,432.576,435.604,441.742,446.609,452.717,458.265,460.755,463.793,468.874,474.788,480.8636,483.883,493.496,496.453,502.367,505.68,510.548,514.562,517.945" svgx:width="0.33,0.58,0.5,0.58,0.55,0.55,0.29,0.48,0.29,0.44,0.55,0.5,0.44,0.29,0.61,0.55,0.33,0.5,0.5,0.25,0.5,0.5,0.5,0.5,0.5,0.25,0.5,0.5,0.84,0.33,0.55,0.33,0.55,0.4,0.55,0.33,0.58,0.4,0.48,0.48,0.55,0.34,0.33,0.5,0.29,0.29,0.5,0.58,0.55,0.42,0.5,0.88,0.6,0.29,0.48,0.42,0.55,0.55,0.33,0.55,0.6,0.6,0.88,0.6,0.56,0.29,0.58,0.55,0.33,0.71,0.4,0.6,0.61,0.29,0.56,0.58,0.55,0.25,0.55,0.6,0.48,0.6,0.55,0.25,0.55,0.5,0.58,0.61,0.55,1.0,0.29,0.58,0.33,0.48,0.4,0.33,0.25" style="fill:rgb(0,0,0);font-family:URWPalladioL-Roma;font-size:9.96px;stroke:none;">than oleic acid (34.16–42.59%) for three Italian samples of pumpkin (Crudigno, Pepo, and Winter).</text>
   <text y="765.227" x="76.535,79.946,83.2328,88.226,94.117,99.178,103.3612,105.97,111.557,116.406,121.254,127.0308,129.645,133.461,138.31,144.393,149.92,153.918,157.217,162.066,168.1416,170.74,176.338,181.91559999999998,184.456,188.748,194.274,203.212,207.9928,210.55,215.611,221.715,225.015,230.906,236.432,240.43,244.6132,247.212" svgx:width="0.34,0.33,0.55,0.58,0.5,0.42,0.55,0.55,0.48,0.48,0.58,0.55,0.4,0.48,0.6,0.55,0.4,0.33,0.48,0.61,0.55,0.55,0.56,0.55,0.42,0.55,0.88,0.48,0.55,0.5,0.6,0.33,0.58,0.55,0.4,0.42,0.55,0.33" style="fill:rgb(0,0,0);font-family:URWPalladioL-Roma;font-size:9.96px;stroke:none;">It has been reported by some authors [</text>
   <text y="765.227" x="250.588,255.569" svgx:width="0.5,0.5" style="fill:rgb(8,117,183);font-family:URWPalladioL-Roma;font-size:9.96px;stroke:none;">14</text>
   <text y="765.227" x="260.551,263.8378,266.412,269.711,275.602,280.663,283.94980000000004,286.453,291.98,294.925,299.774,302.719,307.1014,309.703,314.764,319.259,322.204,328.2796,330.889,333.834,338.0172,340.616,343.916,349.807,354.5878,357.145,363.229,367.045,371.893,378.078,383.604,392.542,395.487,401.378,406.439,412.33,415.6168,418.12,423.009,430.7778,433.384,436.755,441.816,446.877,451.938,456.999,462.06,470.562,473.933,476.423,478.953,482.324,487.851,490.796,493.742,499.268,507.71,512.558" svgx:width="0.33,0.55,0.33,0.58,0.5,0.33,0.55,0.55,0.29,0.48,0.29,0.44,0.55,0.5,0.44,0.29,0.61,0.55,0.29,0.42,0.55,0.33,0.58,0.48,0.55,0.6,0.4,0.48,0.61,0.55,0.88,0.29,0.58,0.5,0.58,0.33,0.55,0.56,0.78,0.55,0.33,0.5,0.5,0.5,0.5,0.5,0.84,0.33,0.25,0.55,0.33,0.55,0.29,0.29,0.55,0.83,0.48,0.61" style="fill:rgb(0,0,0);font-family:URWPalladioL-Roma;font-size:9.96px;stroke:none;">] that oleic acid is the predominant FA (41–46%), followed</text>
  </g>
 </g>
</svg>
