<?xml version="1.0" encoding="UTF-8"?>
<svg height="775.6" width="4168.0" xmlns="http://www.w3.org/2000/svg">
 <g>
  <text svgx:width="0.56,0.44,0.44,0.5,0.39" y="63.0" x="76.3,80.7,84.3,87.8,91.8" style="fill:rgb(0,0,0);font-family:URWPalladioL-Ital;font-size:8.0px;stroke:none;" xmlns:svgx="http://www.xml-cml.org/schema/svgx">Foods</text>
  <text svgx:width="0.5,0.5,0.5,0.5" y="63.0" x="96.9,100.9,104.9,108.9" style="fill:rgb(0,0,0);font-family:URWPalladioL-Bold;font-size:8.0px;stroke:none;" xmlns:svgx="http://www.xml-cml.org/schema/svgx">2018</text>
  <text svgx:width="0.25" y="63.0" x="112.8" style="fill:rgb(0,0,0);font-family:URWPalladioL-Roma;font-size:8.0px;stroke:none;" xmlns:svgx="http://www.xml-cml.org/schema/svgx">,</text>
  <text svgx:width="0.5" y="63.0" x="116.8" style="fill:rgb(0,0,0);font-family:URWPalladioL-Ital;font-size:8.0px;stroke:none;" xmlns:svgx="http://www.xml-cml.org/schema/svgx">7</text>
  <text svgx:width="0.25,0.55,0.5,0.5,0.55,0.5,0.55,0.55,0.33,0.55,0.5,0.5" y="63.0" x="120.8,122.8,124.8,128.8,132.8,495.8,499.8,501.8,506.1,508.8,510.8,514.8" style="fill:rgb(0,0,0);font-family:URWPalladioL-Roma;font-size:8.0px;stroke:none;" xmlns:svgx="http://www.xml-cml.org/schema/svgx">, 41 6 of 10</text>
  <text svgx:width="0.56,0.44,0.44,0.5,0.39,0.25" y="74.3" x="87.6,91.8,95.2,98.5,102.3,105.3" style="fill:rgb(0,0,0);font-family:PalatinoLinotype,Italic;font-size:7.6px;stroke:none;" xmlns:svgx="http://www.xml-cml.org/schema/svgx">Foods </text>
  <text svgx:width="0.5,0.5,0.5,0.5" y="74.3" x="107.2,111.0,114.8,118.6" style="fill:rgb(0,0,0);font-family:PalatinoLinotype,Bold;font-size:7.6px;stroke:none;" xmlns:svgx="http://www.xml-cml.org/schema/svgx">2018</text>
  <text svgx:width="0.25,0.25" y="74.3" x="122.4,124.3" style="fill:rgb(0,0,0);font-family:PalatinoLinotype;font-size:7.6px;stroke:none;" xmlns:svgx="http://www.xml-cml.org/schema/svgx">, </text>
  <text svgx:width="0.5" y="74.3" x="126.2" style="fill:rgb(0,0,0);font-family:PalatinoLinotype,Italic;font-size:7.6px;stroke:none;" xmlns:svgx="http://www.xml-cml.org/schema/svgx">7</text>
  <text svgx:width="0.25,0.25,0.52,0.25,0.56,0.79,0.67,0.25,0.6,0.61,0.61,0.67,0.25,0.67,0.61,0.72,0.34,0.61,1.0,0.25,0.55,0.25,0.55,0.5,0.25,0.55,0.33,0.25,0.5,0.5,0.25" y="74.3" x="130.0,131.9,133.8,137.7,139.6,143.8,149.8,154.9,156.7,161.3,166.0,170.6,175.7,177.6,182.7,187.3,192.8,195.3,200.0,207.6,209.5,211.4,213.3,485.8,489.6,491.5,495.6,498.1,500.0,503.8,507.7" style="fill:rgb(0,0,0);font-family:PalatinoLinotype;font-size:7.6px;stroke:none;" xmlns:svgx="http://www.xml-cml.org/schema/svgx">, x FOR PEER REVIEW 6 of 11 </text>
  <text svgx:width="0.56,0.33,0.56,0.61,0.39,0.5,0.25,0.5,0.25" y="494.5" x="107.7,112.5,115.4,120.1,125.3,128.7,132.9,135.6,139.9" style="fill:rgb(0,0,0);font-family:PalatinoLinotype,Bold;font-size:8.6px;stroke:none;" xmlns:svgx="http://www.xml-cml.org/schema/svgx">Figure 1.</text>
  <text svgx:width="0.25,0.83,0.29,0.56,0.58,0.33,0.6,0.48,0.4,0.33,0.55,0.4,0.88,0.5,0.58,0.44,0.48,0.25,0.29,0.29,0.56,0.6,0.29,0.61,0.25,0.44,0.58,0.4,0.55,0.88,0.5,0.33,0.55,0.56,0.4,0.5,0.6,0.58,0.56,0.33,0.78,0.72,0.25,0.33,0.83,0.6,0.61,0.71,0.33,0.78,0.72,0.33,0.25,0.6,0.4,0.55,0.33,0.29,0.29,0.48,0.25,0.55,0.33,0.25,0.33,0.58,0.48,0.25,0.56,0.5,0.4,0.29,0.55,0.6,0.42,0.25,0.6,0.4,0.55,0.6,0.55,0.29,0.29,0.42,0.25" y="494.5" x="142.1,144.7,151.8,154.3,159.1,164.0,166.9,172.0,176.1,179.4,182.3,186.9,190.3,197.8,202.1,207.1,210.9,215.0,217.7,220.2,222.7,227.5,232.6,235.1,240.4,243.0,246.9,251.8,255.2,259.8,267.4,271.6,274.4,279.1,283.8,287.2,291.4,296.5,301.5,306.3,309.1,315.7,321.9,324.6,327.5,334.7,339.8,345.1,351.1,354.0,360.6,366.8,369.6,372.3,377.5,380.9,385.5,388.3,390.8,393.3,397.4,400.1,404.8,407.5,410.2,413.0,418.0,422.1,424.8,429.6,433.9,437.3,439.7,444.4,449.5,453.2,455.9,461.0,464.4,469.0,474.2,478.9,481.4,483.8,487.5" style="fill:rgb(0,0,0);font-family:PalatinoLinotype;font-size:8.6px;stroke:none;" xmlns:svgx="http://www.xml-cml.org/schema/svgx"> High-performance liquid chromatography-UV (HPLC-UV) profile of the various propolis </text>
  <text svgx:width="0.6,0.4,0.48,0.6,0.5,0.4,0.5,0.33,0.29,0.55,0.58,0.42,0.25,0.25,0.6,0.55,0.29,0.56,0.6,0.58,0.48,0.58,0.55,0.29,0.42,0.25,0.42,0.6,0.48,0.44,0.29,0.48,0.42,0.25,0.5,0.4,0.48,0.25,0.58,0.6,0.88,0.55,0.48,0.4,0.48,0.61,0.25,0.5,0.44,0.44,0.55,0.4,0.61,0.29,0.58,0.56,0.29,0.56,0.25,0.5,0.58,0.61,0.25,0.29,0.29,0.42,0.33,0.48,0.61,0.25,0.29,0.58,0.25,0.61,0.5,0.55,0.29,0.48,0.25,0.5,0.25,0.25" y="506.9" x="107.7,112.9,116.3,120.3,125.5,129.8,133.1,137.4,140.2,142.7,147.4,152.3,156.0,158.1,160.3,165.4,170.1,172.6,177.3,182.5,187.5,191.5,196.5,201.2,203.7,207.3,209.5,213.1,218.2,222.3,226.1,228.6,232.7,236.3,238.5,242.8,246.1,250.2,252.4,257.4,262.5,270.1,274.8,278.9,282.2,286.3,291.6,293.7,298.0,301.8,305.6,310.3,313.6,318.9,321.4,326.4,331.1,333.5,338.3,340.4,344.7,349.7,354.9,357.1,359.6,362.0,365.7,368.5,372.6,377.8,379.9,382.4,387.4,389.5,394.8,399.1,403.8,406.3,410.4,412.6,416.8,418.9" style="fill:rgb(0,0,0);font-family:PalatinoLinotype;font-size:8.6px;stroke:none;" xmlns:svgx="http://www.xml-cml.org/schema/svgx">preparations. Polyphenols species are numbered accordingly and listed in Table 1. </text>
  <text class="image" id="image.6.1" width="278" height="189" y="46.2" x="158.0" style="font-size:8.0px;">image.6.1.158_437.46_236</text>
  <text class="image" id="image.6.2" width="279" height="190" y="247.1" x="158.0" style="font-size:8.0px;">image.6.2.158_437.247_437</text>
  <text class="image" id="image.6.3" width="420" height="212" y="478.9" x="87.6" style="font-size:8.0px;">image.6.3.88_508.479_692</text>
  <text svgx:width="0.56,0.33,0.56,0.61,0.39,0.5,0.55,0.5,0.25" y="498.5" x="97.8,102.8,105.8,110.8,116.2,119.7,124.2,126.5,131.0" style="fill:rgb(0,0,0);font-family:URWPalladioL-Bold;font-size:9.0px;stroke:none;" xmlns:svgx="http://www.xml-cml.org/schema/svgx">Figure 1.</text>
  <text svgx:width="0.83,0.29,0.56,0.58,0.33,0.6,0.48,0.4,0.33,0.55,0.4,0.88,0.5,0.58,0.44,0.48,0.55,0.29,0.29,0.56,0.6,0.29,0.61,0.55,0.44,0.58,0.4,0.55,0.88,0.5,0.33,0.55,0.56,0.4,0.5,0.6,0.58,0.56,0.33,0.78,0.72,0.55,0.33,0.83,0.6,0.61,0.71,0.33,0.78,0.72,0.33,0.55,0.6,0.4,0.55,0.61,0.29,0.48,0.55,0.55,0.33,0.55,0.33,0.58,0.48,0.55,0.56,0.5,0.4,0.29,0.55,0.6,0.42,0.55,0.6,0.4,0.55,0.6,0.55,0.29,0.29,0.42" y="498.5" x="136.1,143.7,146.3,151.4,156.8,159.8,165.3,169.7,173.3,176.3,181.3,184.9,193.0,197.6,202.9,207.0,211.3,213.6,216.3,219.0,224.1,229.6,232.3,237.7,240.1,244.2,249.5,253.0,257.9,266.0,270.6,273.6,278.6,283.7,287.3,291.8,297.3,302.6,307.7,310.8,317.9,324.4,326.8,329.8,337.4,343.0,348.5,355.0,358.1,365.2,371.8,374.8,377.1,382.6,386.1,391.1,396.6,399.2,403.6,405.9,410.9,413.9,416.2,419.2,424.5,428.8,431.2,436.3,440.9,444.5,447.2,452.2,457.7,461.5,463.9,469.3,472.8,477.8,483.3,488.3,490.9,493.6" style="fill:rgb(0,0,0);font-family:URWPalladioL-Roma;font-size:9.0px;stroke:none;" xmlns:svgx="http://www.xml-cml.org/schema/svgx">High-performance liquid chromatography-UV (HPLC-UV) proﬁle of the various propolis</text>
  <text svgx:width="0.6,0.4,0.48,0.6,0.5,0.4,0.5,0.33,0.29,0.55,0.58,0.42,0.25,0.55,0.6,0.55,0.29,0.56,0.6,0.58,0.48,0.58,0.55,0.29,0.42,0.55,0.42,0.6,0.48,0.44,0.29,0.48,0.42,0.55,0.5,0.4,0.48,0.55,0.58,0.6,0.88,0.55,0.48,0.4,0.48,0.61,0.55,0.5,0.44,0.44,0.55,0.4,0.61,0.29,0.58,0.56,0.29,0.56,0.55,0.5,0.58,0.61,0.55,0.29,0.29,0.42,0.33,0.48,0.61,0.55,0.29,0.58,0.55,0.61,0.5,0.55,0.29,0.48" y="511.3" x="97.5,102.9,106.3,110.6,116.0,120.5,124.0,128.5,131.4,134.0,138.9,144.1,147.9,150.2,153.0,158.4,163.3,165.9,170.9,176.3,181.5,185.8,191.0,195.9,198.5,202.3,204.5,208.3,213.7,218.0,222.0,224.6,228.9,232.7,234.9,239.4,242.8,247.1,249.3,254.6,260.0,267.9,272.8,277.1,280.5,284.8,290.3,292.5,297.0,301.0,305.0,309.9,313.3,318.7,321.3,326.6,331.5,334.2,339.2,341.4,345.9,351.1,356.6,358.8,361.4,364.0,367.8,370.8,375.0,380.5,382.8,385.4,390.6,392.8,397.5,402.0,406.9,409.6" style="fill:rgb(0,0,0);font-family:URWPalladioL-Roma;font-size:9.0px;stroke:none;" xmlns:svgx="http://www.xml-cml.org/schema/svgx">preparations. Polyphenols species are numbered accordingly and listed in Table</text>
  <text svgx:width="0.5" y="511.3" x="416.1" style="fill:rgb(8,117,183);font-family:URWPalladioL-Roma;font-size:9.0px;stroke:none;" xmlns:svgx="http://www.xml-cml.org/schema/svgx">1</text>
  <text svgx:width="0.25" y="511.3" x="420.6" style="fill:rgb(0,0,0);font-family:URWPalladioL-Roma;font-size:9.0px;stroke:none;" xmlns:svgx="http://www.xml-cml.org/schema/svgx">.</text>
  <text svgx:width="0.56,0.44,0.44,0.5,0.39,0.25" y="83.5" x="87.6,91.8,95.2,98.5,102.3,105.3" style="fill:rgb(0,0,0);font-family:PalatinoLinotype,Italic;font-size:7.6px;stroke:none;" xmlns:svgx="http://www.xml-cml.org/schema/svgx">Foods </text>
  <text svgx:width="0.5,0.5,0.5,0.5" y="83.5" x="107.2,111.0,114.8,118.6" style="fill:rgb(0,0,0);font-family:PalatinoLinotype,Bold;font-size:7.6px;stroke:none;" xmlns:svgx="http://www.xml-cml.org/schema/svgx">2018</text>
  <text svgx:width="0.25,0.25" y="83.5" x="122.4,124.3" style="fill:rgb(0,0,0);font-family:PalatinoLinotype;font-size:7.6px;stroke:none;" xmlns:svgx="http://www.xml-cml.org/schema/svgx">, </text>
  <text svgx:width="0.5" y="83.5" x="126.2" style="fill:rgb(0,0,0);font-family:PalatinoLinotype,Italic;font-size:7.6px;stroke:none;" xmlns:svgx="http://www.xml-cml.org/schema/svgx">7</text>
  <text svgx:width="0.25,0.25,0.52,0.25,0.56,0.79,0.67,0.25,0.6,0.61,0.61,0.67,0.25,0.67,0.61,0.72,0.34,0.61,1.0,0.25,0.55,0.25,0.55,0.5,0.25,0.55,0.33,0.25,0.5,0.5,0.25" y="83.5" x="130.0,131.9,133.8,137.7,139.6,143.8,149.8,154.9,156.7,161.3,166.0,170.6,175.7,177.6,182.7,187.3,192.8,195.3,200.0,207.6,209.5,211.4,213.3,485.8,489.6,491.5,495.6,498.1,500.0,503.8,507.7" style="fill:rgb(0,0,0);font-family:PalatinoLinotype;font-size:7.6px;stroke:none;" xmlns:svgx="http://www.xml-cml.org/schema/svgx">, x FOR PEER REVIEW 6 of 11 </text>
  <text svgx:width="0.56,0.33,0.56,0.61,0.39,0.5,0.25,0.5,0.25" y="503.7" x="107.7,112.5,115.4,120.1,125.3,128.7,132.9,135.6,139.9" style="fill:rgb(0,0,0);font-family:PalatinoLinotype,Bold;font-size:8.6px;stroke:none;" xmlns:svgx="http://www.xml-cml.org/schema/svgx">Figure 1.</text>
  <text svgx:width="0.25,0.83,0.29,0.56,0.58,0.33,0.6,0.48,0.4,0.33,0.55,0.4,0.88,0.5,0.58,0.44,0.48,0.25,0.29,0.29,0.56,0.6,0.29,0.61,0.25,0.44,0.58,0.4,0.55,0.88,0.5,0.33,0.55,0.56,0.4,0.5,0.6,0.58,0.56,0.33,0.78,0.72,0.25,0.33,0.83,0.6,0.61,0.71,0.33,0.78,0.72,0.33,0.25,0.6,0.4,0.55,0.33,0.29,0.29,0.48,0.25,0.55,0.33,0.25,0.33,0.58,0.48,0.25,0.56,0.5,0.4,0.29,0.55,0.6,0.42,0.25,0.6,0.4,0.55,0.6,0.55,0.29,0.29,0.42,0.25" y="503.7" x="142.1,144.7,151.8,154.3,159.1,164.0,166.9,172.0,176.1,179.4,182.3,186.9,190.3,197.8,202.1,207.1,210.9,215.0,217.7,220.2,222.7,227.5,232.6,235.1,240.4,243.0,246.9,251.8,255.2,259.8,267.4,271.6,274.4,279.1,283.8,287.2,291.4,296.5,301.5,306.3,309.1,315.7,321.9,324.6,327.5,334.7,339.8,345.1,351.1,354.0,360.6,366.8,369.6,372.3,377.5,380.9,385.5,388.3,390.8,393.3,397.4,400.1,404.8,407.5,410.2,413.0,418.0,422.1,424.8,429.6,433.9,437.3,439.7,444.4,449.5,453.2,455.9,461.0,464.4,469.0,474.2,478.9,481.4,483.8,487.5" style="fill:rgb(0,0,0);font-family:PalatinoLinotype;font-size:8.6px;stroke:none;" xmlns:svgx="http://www.xml-cml.org/schema/svgx"> High-performance liquid chromatography-UV (HPLC-UV) profile of the various propolis </text>
  <text svgx:width="0.6,0.4,0.48,0.6,0.5,0.4,0.5,0.33,0.29,0.55,0.58,0.42,0.25,0.25,0.6,0.55,0.29,0.56,0.6,0.58,0.48,0.58,0.55,0.29,0.42,0.25,0.42,0.6,0.48,0.44,0.29,0.48,0.42,0.25,0.5,0.4,0.48,0.25,0.58,0.6,0.88,0.55,0.48,0.4,0.48,0.61,0.25,0.5,0.44,0.44,0.55,0.4,0.61,0.29,0.58,0.56,0.29,0.56,0.25,0.5,0.58,0.61,0.25,0.29,0.29,0.42,0.33,0.48,0.61,0.25,0.29,0.58,0.25,0.61,0.5,0.55,0.29,0.48,0.25,0.5,0.25,0.25" y="516.1" x="107.7,112.9,116.3,120.3,125.5,129.8,133.1,137.4,140.2,142.7,147.4,152.3,156.0,158.1,160.3,165.4,170.1,172.6,177.3,182.5,187.5,191.5,196.5,201.2,203.7,207.3,209.5,213.1,218.2,222.3,226.1,228.6,232.7,236.3,238.5,242.8,246.1,250.2,252.4,257.4,262.5,270.1,274.8,278.9,282.2,286.3,291.6,293.7,298.0,301.8,305.6,310.3,313.6,318.9,321.4,326.4,331.1,333.5,338.3,340.4,344.7,349.7,354.9,357.1,359.6,362.0,365.7,368.5,372.6,377.8,379.9,382.4,387.4,389.5,394.8,399.1,403.8,406.3,410.4,412.6,416.8,418.9" style="fill:rgb(0,0,0);font-family:PalatinoLinotype;font-size:8.6px;stroke:none;" xmlns:svgx="http://www.xml-cml.org/schema/svgx">preparations. Polyphenols species are numbered accordingly and listed in Table 1. </text>
  <text class="image" id="image.6.4" width="278" height="189" y="55.4" x="158.0" style="font-size:8.0px;">image.6.4.158_437.55_245</text>
  <text class="image" id="image.6.5" width="279" height="190" y="256.3" x="158.0" style="font-size:8.0px;">image.6.5.158_437.256_446</text>
  <text class="image" id="image.6.6" width="420" height="212" y="488.1" x="87.6" style="font-size:8.0px;">image.6.6.88_508.488_701</text>
  <text svgx:width="0.56,0.33,0.56,0.61,0.39,0.5,0.55,0.5,0.25" y="765.6" x="268.5,273.5,276.4,281.4,286.9,290.4,294.9,297.1,301.6" style="fill:rgb(0,0,0);font-family:URWPalladioL-Bold;font-size:9.0px;stroke:none;" xmlns:svgx="http://www.xml-cml.org/schema/svgx">Figure 2.</text>
  <text svgx:width="0.67,0.44,0.56,0.33,0.25" y="765.6" x="306.6,312.6,316.6,321.6,324.6" style="fill:rgb(0,0,0);font-family:URWPalladioL-Ital;font-size:9.0px;stroke:none;" xmlns:svgx="http://www.xml-cml.org/schema/svgx">Cont.</text>
 </g>
</svg>
