<?xml version="1.0" encoding="UTF-8"?>
<svg height="779.482" width="530.436" xmlns="http://www.w3.org/2000/svg">
 <g id="page" xmlns:svgx="http://www.xml-cml.org/schema/svgx">
  <g begin="text">
   <text y="62.979" x="76.535,79.189,83.62,86.274,88.26650000000001,90.738,93.392,95.3845,97.377,102.247,106.678,110.663,112.879,115.836,119.374,123.806,125.7985,128.269,133.585,136.685,139.786,141.7785,144.249,149.119,153.55,157.24,159.456,161.672,164.9397,166.908,173.109,176.209,179.748,181.964,184.618" svgx:width="0.33,0.56,0.33,0.25,0.55,0.33,0.25,0.55,0.61,0.56,0.5,0.28,0.39,0.44,0.56,0.25,0.55,0.67,0.39,0.39,0.25,0.55,0.61,0.56,0.46,0.28,0.28,0.41,0.55,0.78,0.39,0.44,0.28,0.33,0.5" style="fill:rgb(0,0,0);font-family:URWPalladioL-Ital;font-size:7.97px;stroke:none;">Int. J. Environ. Res. Public Health</text>
   <text y="62.979" x="190.594,194.579,198.564,202.549" svgx:width="0.5,0.5,0.5,0.5" style="fill:rgb(0,0,0);font-family:URWPalladioL-Bold;font-size:7.97px;stroke:none;">2018</text>
   <text y="62.979" x="206.534" svgx:width="0.25" style="fill:rgb(0,0,0);font-family:URWPalladioL-Roma;font-size:7.97px;stroke:none;">,</text>
   <text y="62.979" x="210.52,214.505" svgx:width="0.5,0.5" style="fill:rgb(0,0,0);font-family:URWPalladioL-Ital;font-size:7.97px;stroke:none;">15</text>
   <text y="62.979" x="218.49,220.48250000000002,222.475,226.46,230.445,234.43,495.794,499.779,501.772,506.123,508.7531,510.77,514.755" svgx:width="0.25,0.55,0.5,0.5,0.5,0.55,0.5,0.55,0.55,0.33,0.55,0.5,0.5" style="fill:rgb(0,0,0);font-family:URWPalladioL-Roma;font-size:7.97px;stroke:none;">, 651 3 of 10</text>
   <text y="97.848" x="76.535,79.848,85.326,88.13,93.749,99.298,105.039,107.996,113.91,118.6908,121.511,130.484,133.441,136.398,142.048,144.538,147.383,153.003,156.834,161.701,166.782,171.091,174.3778,177.137,186.11,189.067,192.024,197.6016,200.408,204.92,210.468,216.382,219.695,224.776,227.733,233.647,237.8302,240.69,245.67,248.504,251.461,256.542,260.373,266.023,270.8038,273.624,279.315,285.442,290.523,296.437,299.75,302.707,306.02,311.5976,314.404,319.952,323.2388,326.069,332.177,337.258,340.215,349.188,352.145,355.458,358.415,362.79740000000004,365.66,370.741,375.253,378.21,384.2856,387.152,392.02,396.329,399.641,404.509,408.523,411.48,417.628,422.495,428.5706,431.438,434.395,440.17179999999996,443.043,446.355,452.27,457.0508,459.871,464.179,470.093,473.477,478.457,481.292,487.399,492.947,497.256,500.213,503.526,506.483,512.031,517.946" svgx:width="0.33,0.55,0.55,0.55,0.55,0.56,0.29,0.58,0.48,0.55,0.88,0.29,0.29,0.56,0.25,0.55,0.55,0.4,0.48,0.5,0.42,0.33,0.55,0.88,0.29,0.29,0.56,0.55,0.44,0.55,0.58,0.33,0.5,0.29,0.58,0.42,0.55,0.5,0.55,0.29,0.5,0.4,0.56,0.48,0.55,0.56,0.6,0.5,0.58,0.33,0.29,0.33,0.56,0.55,0.55,0.33,0.55,0.6,0.5,0.29,0.88,0.29,0.33,0.29,0.44,0.55,0.5,0.44,0.29,0.61,0.55,0.48,0.42,0.33,0.48,0.4,0.29,0.61,0.48,0.61,0.55,0.29,0.58,0.55,0.33,0.58,0.48,0.55,0.42,0.58,0.33,0.5,0.55,0.6,0.55,0.42,0.29,0.33,0.29,0.55,0.58,0.25" style="fill:rgb(0,0,0);font-family:URWPalladioL-Roma;font-size:9.96px;stroke:none;">to bovine milk, breast milk contains a large quantity of palmitic acid esteriﬁed in the sn-2 position.</text>
   <text y="111.358" x="76.226,82.333,88.131,91.03,95.2132,97.735,106.532,111.514,117.053,121.825,126.0082,128.53,131.777,137.576,142.3568,144.828,149.81,155.319,159.543,164.983,168.918,174.906,178.153,181.052,186.492,192.2688,194.761,200.201,203.4878,205.999,211.986,216.968,219.867,228.664,231.563,234.811,237.71,242.0924,244.614,249.595,254.018,256.918,262.9936,265.485,270.258,275.239,279.463,282.362,287.134,291.118,293.55,296.868,302.307,306.291,308.723,311.971,317.769,322.5498,325.012,330.81,336.818,340.753,344.977,347.876,350.775,356.574,362.113,364.603,367.084,375.393,381.191,384.09,388.514,394.2908,396.793,400.11,405.091,410.72,416.16,422.167,426.103,430.2862,432.807,436.743,441.724,447.711,450.611,456.6866,459.178,464.718,468.474,473.913,482.222,485.47,491.2468,493.749,496.648,502.4248,504.927,508.174,513.973" svgx:width="0.61,0.58,0.29,0.42,0.55,0.88,0.5,0.56,0.48,0.42,0.55,0.33,0.58,0.48,0.55,0.5,0.55,0.42,0.55,0.4,0.6,0.33,0.29,0.55,0.58,0.55,0.55,0.33,0.55,0.6,0.5,0.29,0.88,0.29,0.33,0.29,0.44,0.55,0.5,0.44,0.29,0.61,0.55,0.48,0.5,0.42,0.29,0.48,0.4,0.55,0.33,0.55,0.4,0.55,0.33,0.58,0.48,0.55,0.58,0.6,0.4,0.42,0.29,0.29,0.58,0.56,0.25,0.55,0.83,0.58,0.29,0.44,0.58,0.55,0.33,0.5,0.56,0.55,0.6,0.4,0.42,0.55,0.4,0.5,0.6,0.29,0.61,0.55,0.56,0.4,0.55,0.83,0.33,0.58,0.55,0.29,0.58,0.55,0.33,0.58,0.48" style="fill:rgb(0,0,0);font-family:URWPalladioL-Roma;font-size:9.96px;stroke:none;">This makes the absorption of palmitic acid easier for the nursling, which favours rapid growth in the</text>
   <text y="124.867" x="76.535,82.562,86.498,90.722,94.0088,96.46,105.257,110.697,116.495,119.743,125.541,129.7242,132.256,137.695,140.9818,143.504,146.403,149.302,152.619,157.3998,159.882" svgx:width="0.61,0.4,0.42,0.33,0.55,0.88,0.55,0.58,0.33,0.58,0.42,0.55,0.55,0.33,0.55,0.29,0.29,0.33,0.48,0.55,0.33" style="fill:rgb(0,0,0);font-family:URWPalladioL-Roma;font-size:9.96px;stroke:none;">ﬁrst months of life [</text>
   <text y="124.867" x="163.2" svgx:width="0.5" style="fill:rgb(8,117,183);font-family:URWPalladioL-Roma;font-size:9.96px;stroke:none;">6</text>
   <text y="124.867" x="168.181" svgx:width="0.25" style="fill:rgb(0,0,0);font-family:URWPalladioL-Roma;font-size:9.96px;stroke:none;">,</text>
   <text y="124.867" x="170.672" svgx:width="0.5" style="fill:rgb(8,117,183);font-family:URWPalladioL-Roma;font-size:9.96px;stroke:none;">7</text>
   <text y="124.867" x="175.653,178.97" svgx:width="0.33,0.25" style="fill:rgb(0,0,0);font-family:URWPalladioL-Roma;font-size:9.96px;stroke:none;">].</text>
   <text y="138.377" x="97.795,103.921,108.992,111.943,120.70779999999999,123.393,128.931,131.882,134.7704,137.318,143.434,149.336,155.533,160.391,164.214,169.853,175.391,178.342,184.245,189.8226,192.379,195.33,201.232,204.539,209.397,213.22,218.078,222.378,225.685,230.543,234.549,237.5,243.636,248.139,253.21,256.516,259.467,265.005,270.7818,273.402,279.498,283.321,288.859,293.362,298.22,304.416,310.532,314.356,319.214,323.3972,326.009,331.911,336.982,341.1652,343.767,348.747,351.333,357.236,362.773,368.676,372.976,377.834,380.785,385.643,390.146,393.452,396.404,402.134,406.9148,409.477,415.673,418.625,422.925,426.231,430.237,433.188,438.797,444.912,448.219,451.17,456.708,462.4848,465.105,470.643,473.9298,476.505,480.805,485.876,489.182,495.298,499.304,504.375,507.681,512.539" svgx:width="0.6,0.5,0.29,0.88,0.55,0.55,0.29,0.29,0.55,0.6,0.58,0.61,0.48,0.4,0.56,0.55,0.29,0.58,0.56,0.55,0.29,0.58,0.33,0.48,0.4,0.48,0.42,0.33,0.48,0.4,0.29,0.61,0.44,0.5,0.33,0.29,0.55,0.58,0.55,0.6,0.4,0.55,0.44,0.48,0.61,0.6,0.4,0.48,0.42,0.55,0.58,0.5,0.42,0.55,0.5,0.55,0.58,0.55,0.58,0.42,0.48,0.29,0.48,0.44,0.33,0.29,0.56,0.48,0.55,0.61,0.29,0.42,0.33,0.4,0.29,0.55,0.6,0.33,0.29,0.55,0.58,0.55,0.55,0.33,0.55,0.42,0.5,0.33,0.6,0.4,0.5,0.33,0.48,0.61" style="fill:rgb(0,0,0);font-family:URWPalladioL-Roma;font-size:9.96px;stroke:none;">Palm oil undergoing interesteriﬁcation procedures has a nonselective distribution of saturated</text>
   <text y="151.886" x="76.535,79.849,84.826,88.07,91.315,96.8926,99.346,104.323,108.742,111.638,117.719,121.9022,124.437,127.333,133.1098,135.634,138.878,144.671,149.4518,151.936,156.156,161.949,165.263,170.243,172.737,178.241,181.137,186.93,193.011,195.907,201.699,207.2766,209.731,215.713,221.147,225.367,228.263,231.508,234.404,239.838,245.6148,248.128,253.563,256.8498,259.385,264.919,267.815,273.348,277.767,282.535,286.287,291.721,294.617,297.107,300.221,307.964,311.278,314.522,319.29,323.274,325.719,328.615,334.408,337.652,342.42,346.172,350.939,355.159,358.404,363.171,367.102,369.998,376.02,380.439,385.415,388.66,391.556,396.99,402.782,405.272,407.769,413.75,418.727,421.623,430.411,433.307,436.552,439.448,443.8304,446.365,451.341,455.76,458.657,464.7326,467.246,470.142,474.3252,476.86,482.652,488.13,490.585,493.481,498.915,504.707,510.241,515.008" svgx:width="0.33,0.5,0.33,0.33,0.56,0.55,0.5,0.44,0.29,0.61,0.42,0.55,0.29,0.58,0.55,0.33,0.58,0.48,0.55,0.42,0.58,0.33,0.5,0.55,0.55,0.29,0.58,0.61,0.29,0.58,0.56,0.55,0.6,0.55,0.42,0.29,0.33,0.29,0.55,0.58,0.55,0.55,0.33,0.55,0.56,0.29,0.56,0.44,0.48,0.4,0.55,0.29,0.25,0.55,0.78,0.33,0.33,0.48,0.4,0.55,0.29,0.58,0.33,0.48,0.4,0.48,0.42,0.33,0.48,0.4,0.29,0.61,0.44,0.5,0.33,0.29,0.55,0.58,0.25,0.55,0.6,0.5,0.29,0.88,0.29,0.33,0.29,0.44,0.55,0.5,0.44,0.29,0.61,0.55,0.29,0.42,0.55,0.58,0.55,0.55,0.29,0.55,0.58,0.56,0.48,0.4" style="fill:rgb(0,0,0);font-family:URWPalladioL-Roma;font-size:9.96px;stroke:none;">fatty acids in the sn-3 binding position of glycerol. After interesteriﬁcation, palmitic acid is no longer</text>
   <text y="165.395" x="76.535,80.844,85.711,88.668,93.536,98.048,101.36,104.318,110.059,114.926,117.884,123.4616,126.359,131.226,136.47,140.981,144.823,149.69,153.003,157.87,163.9456,166.904,169.861,175.6378,178.601,181.913,187.828,192.6088,195.52,198.904,203.985,208.852,213.364,218.232,222.4152,225.376,230.457,236.371,242.44660000000002,245.405,248.362,252.5452,255.495,260.576,266.196,270.504,276.053,280.067,285.686,290.554,296.6296,299.588,308.561,314.109,317.95,322.7308,325.643,330.51,333.711,339.859,344.371,347.328,352.196,358.11,361.422,364.38,369.9576,372.855,378.403,386.878,389.835,395.749,401.32660000000004,404.234,407.547,413.02500000000003,415.92,418.878,422.19,426.3732,429.324,435.431,439.262,444.13,448.438,453.306,459.22,463.732,468.5128,471.435,474.392,480.1688,483.131,486.444,492.358,497.1388,500.05,504.359,510.273,513.657" svgx:width="0.42,0.48,0.29,0.48,0.44,0.33,0.29,0.56,0.48,0.29,0.56,0.55,0.48,0.52,0.44,0.4,0.48,0.33,0.48,0.61,0.55,0.29,0.58,0.55,0.33,0.58,0.48,0.55,0.33,0.5,0.48,0.44,0.48,0.42,0.55,0.5,0.58,0.61,0.55,0.29,0.42,0.55,0.5,0.55,0.42,0.55,0.4,0.55,0.48,0.61,0.55,0.88,0.55,0.4,0.48,0.55,0.48,0.33,0.61,0.44,0.29,0.48,0.58,0.33,0.29,0.56,0.55,0.55,0.83,0.29,0.58,0.56,0.55,0.33,0.55,0.55,0.29,0.33,0.42,0.55,0.6,0.4,0.48,0.42,0.48,0.58,0.44,0.48,0.55,0.29,0.58,0.55,0.33,0.58,0.48,0.55,0.42,0.58,0.33,0.5" style="fill:rgb(0,0,0);font-family:URWPalladioL-Roma;font-size:9.96px;stroke:none;">selectively excreted in the faeces and is absorbed more efﬁciently owing to its presence in the sn-2</text>
   <text y="178.905" x="76.236,82.241,87.697,91.934,94.842,98.1,101.007,106.463,112.279,114.76899999999999,117.895,121.262,127.0388,129.586,132.833,138.649,143.4298,145.944,148.851,151.759,155.017,159.803,163.75,168.746,172.004,178.03,181.797,186.583,189.073,191.579,197.585,202.581,205.489,214.312,217.22,220.478,223.385,227.76739999999998,230.33,235.326,239.763,242.671,248.7466,251.274,256.061,260.298,263.555,268.342,272.289,275.196,281.242,286.028,292.10360000000003,294.632,297.54,303.3168,305.853,309.111,314.927,319.7078,322.221,326.458,332.273,335.601,340.581,343.095,349.101,354.557,358.794,361.701,364.959,367.867,373.323,379.09979999999996,381.636,385.873,390.66,395.446,404.269,408.4522,411.014,416.83,422.276,425.56280000000004,428.041,431.299,436.777,439.253,445.069,450.065,455.711,460.4918,462.995,469.101,472.008,475.776,480.562,484.999,488.28580000000005,490.764,495.551,498.698,502.026,506.812,511.249,514.506" svgx:width="0.6,0.55,0.42,0.29,0.33,0.29,0.55,0.58,0.25,0.55,0.34,0.58,0.55,0.33,0.58,0.48,0.55,0.29,0.29,0.33,0.48,0.4,0.5,0.33,0.6,0.4,0.48,0.25,0.55,0.6,0.5,0.29,0.88,0.29,0.33,0.29,0.44,0.55,0.5,0.44,0.29,0.61,0.55,0.48,0.42,0.33,0.48,0.4,0.29,0.61,0.48,0.61,0.55,0.29,0.58,0.55,0.33,0.58,0.48,0.55,0.42,0.58,0.33,0.5,0.55,0.6,0.55,0.42,0.29,0.33,0.29,0.55,0.58,0.55,0.42,0.48,0.48,0.88,0.42,0.55,0.58,0.55,0.33,0.55,0.33,0.55,0.55,0.58,0.5,0.56,0.48,0.55,0.61,0.29,0.4,0.48,0.44,0.33,0.55,0.48,0.33,0.33,0.48,0.44,0.33,0.42" style="fill:rgb(0,0,0);font-family:URWPalladioL-Roma;font-size:9.96px;stroke:none;">position. In the literature, palmitic acid esteriﬁed in the sn-2 position seems not to have direct effects</text>
   <text y="192.414" x="76.535,81.915,87.6918,90.132,96.054,101.434,105.611,108.823,114.745,118.637,123.563,129.298,135.318,138.185,143.112,146.00039999999998,148.462,151.329,154.196,160.118,164.838,173.538,176.405,181.332,183.822,186.278,191.756,194.623,200.565,204.939,210.319,214.497,219.2778,221.699,230.4,235.119,238.331,243.258,248.707,254.086,256.953,259.821,263.998,275.182,280.561,284.54499999999996,286.946,289.813,295.548,299.725,305.667,308.524,311.391,317.1678,319.619,323.993,329.373,338.073,343.995,348.921,352.626,357.346,363.4216,365.849,374.066,376.934,380.146,385.9228,388.373,394.295,399.221,402.078,410.779,413.646,416.858,419.725,424.10740000000004,426.593,431.519,435.894,438.761,444.83660000000003,447.264,451.984,456.162,459.374,464.093,467.985,470.852,476.813,481.533,487.6086,490.036,492.903,498.6798,501.121,505.299,511.033,514.314" svgx:width="0.55,0.58,0.55,0.6,0.55,0.42,0.33,0.6,0.4,0.5,0.58,0.61,0.29,0.5,0.29,0.55,0.29,0.29,0.6,0.48,0.88,0.29,0.5,0.25,0.55,0.56,0.29,0.6,0.44,0.55,0.42,0.48,0.55,0.88,0.48,0.33,0.5,0.55,0.55,0.29,0.29,0.42,0.88,0.55,0.4,0.55,0.29,0.58,0.42,0.6,0.29,0.29,0.58,0.55,0.44,0.55,0.88,0.6,0.5,0.4,0.48,0.61,0.55,0.83,0.29,0.33,0.58,0.55,0.6,0.5,0.29,0.88,0.29,0.33,0.29,0.44,0.55,0.5,0.44,0.29,0.61,0.55,0.48,0.42,0.33,0.48,0.4,0.29,0.61,0.48,0.61,0.55,0.29,0.58,0.55,0.42,0.58,0.33,0.5" style="fill:rgb(0,0,0);font-family:URWPalladioL-Roma;font-size:9.96px;stroke:none;">on postprandial lipemia, glucose metabolismor insulin compared with palmitic acid esteriﬁed in sn-1</text>
   <text y="205.924" x="76.535,81.975,85.95899999999999,88.4,92.625,98.423,101.74,106.72,109.212" svgx:width="0.55,0.4,0.55,0.42,0.58,0.33,0.5,0.55,0.33" style="fill:rgb(0,0,0);font-family:URWPalladioL-Roma;font-size:9.96px;stroke:none;">or sn-3 [</text>
   <text y="205.924" x="112.53" svgx:width="0.5" style="fill:rgb(8,117,183);font-family:URWPalladioL-Roma;font-size:9.96px;stroke:none;">8</text>
   <text y="205.924" x="117.511" svgx:width="0.25" style="fill:rgb(0,0,0);font-family:URWPalladioL-Roma;font-size:9.96px;stroke:none;">,</text>
   <text y="205.924" x="120.002" svgx:width="0.5" style="fill:rgb(8,117,183);font-family:URWPalladioL-Roma;font-size:9.96px;stroke:none;">9</text>
   <text y="205.924" x="124.983,128.301" svgx:width="0.33,0.25" style="fill:rgb(0,0,0);font-family:URWPalladioL-Roma;font-size:9.96px;stroke:none;">].</text>
   <text y="219.433" x="97.795,103.921,109.458,112.764,117.622,123.525,126.831,129.783,134.854,137.7424,140.3,144.803,148.809,151.76,155.066,158.018,162.521,167.592,170.4804,173.038,178.575,184.184,186.557,191.415,195.918,199.224,202.176,207.713,213.616,217.7992,220.411,223.717,229.19500000000002,231.75,237.845,242.916,245.867,254.6318,257.328,262.865,265.816,268.70439999999996,271.263,276.333,280.157,284.9378,287.51,293.707,298.565,302.571,305.522,311.252,316.11,322.1856,324.802,333.757,338.828,341.779,347.682,350.633,356.2106,358.767,362.144,365.978,371.515,380.27979999999997,382.966,386.272,392.174,396.9548,399.527,405.643,409.943,414.7238,417.296,422.833,426.11980000000005,428.706,434.243,437.194,440.0824,442.641,447.499,452.732,458.827,464.365,468.665,473.523,479.59860000000003,482.225,485.531,491.009,493.563,502.519,507.59,513.492" svgx:width="0.6,0.55,0.33,0.48,0.58,0.33,0.29,0.5,0.29,0.55,0.44,0.4,0.29,0.33,0.29,0.44,0.5,0.29,0.55,0.55,0.55,0.23,0.48,0.44,0.33,0.29,0.55,0.58,0.42,0.55,0.33,0.55,0.55,0.6,0.5,0.29,0.88,0.55,0.55,0.29,0.29,0.55,0.5,0.4,0.48,0.55,0.61,0.48,0.4,0.29,0.56,0.48,0.61,0.55,0.88,0.5,0.29,0.58,0.29,0.56,0.55,0.33,0.4,0.55,0.88,0.55,0.33,0.58,0.48,0.55,0.6,0.42,0.48,0.55,0.55,0.33,0.55,0.55,0.29,0.29,0.55,0.48,0.52,0.6,0.55,0.42,0.48,0.61,0.55,0.33,0.55,0.55,0.88,0.5,0.58,0.56" style="fill:rgb(0,0,0);font-family:URWPalladioL-Roma;font-size:9.96px;stroke:none;">Potential critical objections to palm oil are derived mainly from the use of oil exposed to many</text>
   <text y="232.942" x="76.535,82.449,87.317,92.398,95.71,98.668,104.582,110.1596,113.677,118.757,124.672,130.7476,134.325,138.837,144.386,149.934,155.584,158.541,164.455,170.0326,173.55,178.062,183.712,188.224,191.181,196.049,200.2322,203.802,206.759,212.5358,216.128,219.085,225.0,231.209,237.336,241.635,244.947,248.961,254.5386,258.066,263.147,269.061,275.1366,278.715,283.227,288.308,291.621,296.488,300.502,303.459,309.373,315.023,317.51300000000003,321.243,325.551,328.508,334.422,338.934,343.7148,347.247,350.559,356.474,362.022,366.331,371.1118,374.643,379.155,384.703,390.617,396.826,399.783,403.096,406.053,411.602,417.516,421.6992,425.279,430.36,434.191,438.9718,442.504,447.016,452.564,458.478,464.687,470.815,475.327,478.284,484.025,488.8058,492.337,495.65,501.128,504.643,507.956,513.87" svgx:width="0.58,0.48,0.5,0.33,0.29,0.58,0.56,0.55,0.5,0.58,0.61,0.55,0.44,0.55,0.55,0.56,0.29,0.58,0.56,0.55,0.44,0.56,0.44,0.29,0.48,0.42,0.55,0.29,0.58,0.55,0.29,0.58,0.61,0.6,0.42,0.33,0.4,0.56,0.55,0.5,0.58,0.61,0.55,0.44,0.5,0.33,0.48,0.4,0.29,0.58,0.56,0.25,0.55,0.42,0.29,0.58,0.44,0.48,0.55,0.33,0.58,0.55,0.42,0.48,0.55,0.44,0.55,0.58,0.61,0.29,0.33,0.29,0.55,0.58,0.42,0.55,0.5,0.4,0.48,0.55,0.44,0.55,0.58,0.61,0.6,0.44,0.29,0.56,0.48,0.55,0.33,0.55,0.55,0.33,0.58,0.48" style="fill:rgb(0,0,0);font-family:URWPalladioL-Roma;font-size:9.96px;stroke:none;">heating and cooking cycles in industry and catering, since those conditions are conducive to the</text>
   <text y="246.452" x="76.535,79.853,85.292,89.227,98.024,103.006,106.253,109.153,114.592,120.3688,122.881,128.321,131.6078,134.129,139.568,144.709,147.608,153.695,158.677,161.924,164.824,170.263,176.0398,178.552,184.54,188.295,193.735,199.822,205.83,210.253,213.501,217.725,220.215,222.706,231.015,236.813,239.712,244.136,249.9128,252.425,257.406,261.162,265.9428,268.425,274.432,280.23,283.548,288.529,294.158,299.598,303.533,308.514,314.023,316.923,321.7038,324.185,327.503,332.942,336.926,339.368,342.616,348.414,353.1948,355.677,360.1,365.082,368.838,374.925,377.824,383.264,388.892,393.874,398.098,402.521,408.529,411.428,416.409,420.393,422.835,427.059,432.598,436.823,440.07,444.842,456.13" svgx:width="0.33,0.55,0.4,0.88,0.5,0.33,0.29,0.55,0.58,0.55,0.55,0.33,0.55,0.55,0.52,0.29,0.61,0.5,0.33,0.29,0.55,0.58,0.55,0.6,0.4,0.55,0.61,0.6,0.44,0.33,0.42,0.25,0.55,0.83,0.58,0.29,0.44,0.58,0.55,0.5,0.4,0.48,0.55,0.6,0.58,0.33,0.5,0.56,0.55,0.4,0.5,0.55,0.29,0.48,0.55,0.33,0.55,0.4,0.55,0.33,0.58,0.48,0.55,0.44,0.5,0.4,0.61,0.29,0.55,0.56,0.5,0.42,0.44,0.6,0.29,0.5,0.4,0.55,0.42,0.56,0.42,0.33,0.48,0.88,0.33" style="fill:rgb(0,0,0);font-family:URWPalladioL-Roma;font-size:9.96px;stroke:none;">formation of oxidation products, which are unfavorable for the cardiovascular system[</text>
   <text y="246.452" x="459.448" svgx:width="0.5" style="fill:rgb(8,117,183);font-family:URWPalladioL-Roma;font-size:9.96px;stroke:none;">7</text>
   <text y="246.452" x="464.429" svgx:width="0.25" style="fill:rgb(0,0,0);font-family:URWPalladioL-Roma;font-size:9.96px;stroke:none;">,</text>
   <text y="246.452" x="466.92,471.901" svgx:width="0.5,0.5" style="fill:rgb(8,117,183);font-family:URWPalladioL-Roma;font-size:9.96px;stroke:none;">10</text>
   <text y="246.452" x="476.882,480.2" svgx:width="0.33,0.25" style="fill:rgb(0,0,0);font-family:URWPalladioL-Roma;font-size:9.96px;stroke:none;">].</text>
   <text y="259.961" x="97.795,104.986,111.101,115.107,118.931,123.789,129.691,132.998,135.949,140.482,142.972,145.513,148.819,154.722,159.5028,162.064,165.442,170.979,176.517,182.5926,185.208,188.16,194.062,200.259,206.374,210.675,213.981,217.987,223.56459999999998,226.111,232.206,237.277,242.916,247.0992,249.711,254.011,260.106,264.964,269.467,272.419,277.49,280.3784,282.926,287.997,291.303,294.609,299.467,305.37,308.676,311.627,317.165,322.9418,325.552,328.858,334.336,336.891,339.842,345.745,351.941,358.057,362.357,365.664,369.67,372.621,377.692,380.5804,383.128,386.434,390.44,395.511,401.414,405.714,409.091,414.629,418.635,427.59,432.661,435.967,438.919,444.456,450.2328,452.854,458.949,462.772,468.31,472.813,477.671,481.971,486.271,491.129,495.3122,497.914,502.214,508.33,512.833" svgx:width="0.71,0.6,0.4,0.4,0.48,0.58,0.33,0.29,0.56,0.25,0.55,0.33,0.58,0.48,0.55,0.33,0.55,0.55,0.61,0.55,0.29,0.58,0.61,0.6,0.42,0.33,0.4,0.56,0.55,0.6,0.5,0.56,0.42,0.55,0.42,0.6,0.48,0.44,0.29,0.5,0.29,0.55,0.5,0.33,0.33,0.48,0.58,0.33,0.29,0.55,0.58,0.55,0.33,0.55,0.55,0.29,0.58,0.61,0.6,0.42,0.33,0.4,0.29,0.5,0.29,0.55,0.33,0.4,0.5,0.58,0.42,0.33,0.55,0.4,0.88,0.5,0.33,0.29,0.55,0.58,0.55,0.6,0.4,0.55,0.44,0.48,0.42,0.42,0.48,0.42,0.55,0.42,0.6,0.44,0.58" style="fill:rgb(0,0,0);font-family:URWPalladioL-Roma;font-size:9.96px;stroke:none;">Currently, the food industry pays special attention to industrial transformation processes such</text>
   <text y="273.471" x="76.535,81.616,85.7992,88.821,92.133,97.001,105.974,112.081,116.949,120.963,126.044,129.356,135.484,139.315,144.182,146.672,149.721,154.029,160.157,166.366,172.575,177.442,183.21880000000002,186.253,190.764,196.679,201.76,207.674,213.324,218.191,222.3742,225.396,228.353,234.12980000000002,237.163,243.078,247.945,253.026,256.31280000000004,259.235,264.316,270.23,276.3056,279.335,285.442,289.273,294.141,298.45,302.758,308.886,312.727,317.594,320.084,323.133,328.214,334.128,340.2036,343.233,347.745,351.759,354.716,358.018,360.975,365.487,370.568,373.4564,376.421,380.933,386.482,392.396,395.709,400.789,409.762,412.719,418.634,423.715,427.027,429.984,435.533,441.3098,444.343,447.3,452.168,457.909,462.777,465.734,469.9172,472.939,478.487,481.77380000000005,484.767,490.417,493.374,499.502,504.014,509.562,513.871" svgx:width="0.5,0.42,0.55,0.33,0.48,0.88,0.6,0.48,0.4,0.5,0.33,0.6,0.4,0.48,0.25,0.55,0.42,0.6,0.61,0.61,0.48,0.58,0.55,0.44,0.58,0.5,0.58,0.56,0.48,0.42,0.55,0.29,0.58,0.55,0.58,0.48,0.5,0.33,0.55,0.5,0.58,0.61,0.55,0.6,0.4,0.48,0.42,0.42,0.6,0.4,0.48,0.25,0.55,0.5,0.58,0.61,0.55,0.44,0.4,0.29,0.33,0.29,0.44,0.5,0.29,0.55,0.44,0.55,0.58,0.33,0.5,0.88,0.29,0.58,0.5,0.33,0.29,0.55,0.58,0.55,0.29,0.48,0.56,0.48,0.29,0.42,0.55,0.55,0.33,0.55,0.56,0.29,0.6,0.44,0.55,0.42,0.48" style="fill:rgb(0,0,0);font-family:URWPalladioL-Roma;font-size:9.96px;stroke:none;">as temperature, sudden changes in heat and pressure, and critical contamination levels of glucose</text>
   <text y="286.98" x="76.535,79.919,85.0,88.313,91.625,97.2026,100.466,105.547,110.059,113.016,119.225,123.4082,126.735,130.118,137.872,144.081,147.465,149.955,153.196,158.277,161.661,171.274,178.479,184.616,192.482,194.972,198.213,203.294,206.678,216.291,223.496,229.634,237.30319999999998,240.7,245.781,251.695,257.7706,261.095,264.407,270.322,275.189,278.146,282.13,285.351,290.219,294.527,297.84,302.707,306.721,310.9042,314.231,317.544,323.022,326.283,331.933,338.061,343.141,347.155,352.236,358.151,361.463,366.331,371.1118,374.389,377.702,383.616,388.3968,391.685,397.375,403.503,408.584,411.541,414.498,417.811,423.3886,426.652,432.2,435.4868,438.785,442.098,448.012,452.869,455.826,459.81,463.041,469.148,472.979,478.528,484.737,490.864,495.376,498.689,502.8722,506.199" svgx:width="0.33,0.5,0.33,0.33,0.56,0.55,0.5,0.44,0.29,0.61,0.42,0.55,0.33,0.76,0.61,0.33,0.25,0.55,0.5,0.33,0.95,0.71,0.6,0.77,0.25,0.55,0.5,0.33,0.95,0.71,0.6,0.77,0.55,0.5,0.58,0.61,0.55,0.33,0.58,0.48,0.29,0.4,0.55,0.48,0.42,0.33,0.48,0.4,0.42,0.55,0.33,0.55,0.55,0.56,0.6,0.5,0.4,0.5,0.58,0.33,0.48,0.48,0.55,0.33,0.58,0.48,0.55,0.56,0.6,0.5,0.29,0.29,0.33,0.56,0.55,0.55,0.33,0.55,0.33,0.58,0.48,0.29,0.4,0.55,0.6,0.4,0.55,0.61,0.6,0.44,0.33,0.42,0.55,0.33" style="fill:rgb(0,0,0);font-family:URWPalladioL-Roma;font-size:9.96px;stroke:none;">fatty acids (GE), 3-MCPD, 2-MCPD and their esters to guarantee the quality of their products [</text>
   <text y="286.98" x="509.578" svgx:width="0.5" style="fill:rgb(8,117,183);font-family:URWPalladioL-Roma;font-size:9.96px;stroke:none;">1</text>
   <text y="286.98" x="514.559,517.943" svgx:width="0.33,0.25" style="fill:rgb(0,0,0);font-family:URWPalladioL-Roma;font-size:9.96px;stroke:none;">].</text>
   <text y="300.489" x="76.226,82.394,88.25,93.0308,95.556,99.822,104.853,113.738,118.5188,121.053,127.101,130.894,136.388,142.536,148.604,153.071,156.352,159.28,164.774,170.5508,173.115,177.583,183.077,191.962,198.009,203.04,208.896,211.825,216.644,220.8272,223.406,228.437,232.231,237.0118,239.536,243.329,248.149,253.784,259.852,262.78,266.583,271.403,277.47860000000003,280.036,283.317,288.795,291.296,295.1,299.919,304.186,310.233,315.053,319.521,322.80780000000004,325.286,328.566,334.423,339.2038,341.728,346.548,352.404,358.089,361.017,364.811,370.305,376.161,385.046,389.865,395.722,399.0088,401.497,407.062,412.63960000000003,415.142,420.173,426.321,432.177,436.997,440.971,443.9,449.756,455.3336,457.846,461.126,466.604,469.105,475.153,478.946,484.44,486.795,491.615,496.082,499.362,503.5452,506.124,509.475,514.969" svgx:width="0.61,0.58,0.48,0.55,0.42,0.5,0.88,0.48,0.55,0.6,0.4,0.55,0.61,0.6,0.44,0.33,0.29,0.55,0.58,0.55,0.44,0.55,0.88,0.6,0.5,0.58,0.29,0.48,0.42,0.55,0.5,0.4,0.48,0.55,0.4,0.48,0.56,0.6,0.29,0.4,0.48,0.61,0.55,0.33,0.55,0.55,0.4,0.48,0.42,0.6,0.48,0.44,0.33,0.55,0.33,0.58,0.48,0.55,0.48,0.58,0.56,0.29,0.4,0.55,0.58,0.88,0.48,0.58,0.33,0.55,0.55,0.56,0.55,0.5,0.61,0.58,0.48,0.4,0.29,0.58,0.56,0.55,0.33,0.55,0.55,0.6,0.4,0.55,0.23,0.48,0.44,0.33,0.42,0.55,0.33,0.55,0.4" style="fill:rgb(0,0,0);font-family:URWPalladioL-Roma;font-size:9.96px;stroke:none;">The same production companies are required to respect the environment by adhering to projects for</text>
   <text y="313.999" x="76.535,79.783,85.581,90.3618,92.844,97.068,103.075,107.3,110.547,115.529,118.428,124.226,129.207,134.717,137.616,140.515,143.414,146.662,152.2396,154.692,160.131,163.4178,165.939,171.927,176.908,179.807,191.095,196.534,199.434,202.333,204.823,207.314,215.623,221.062,224.998,230.537,233.436,239.234,244.8116,247.264,250.512,255.951,261.491,266.263,269.51,275.309,280.081,284.065,286.507,289.406,295.1828,297.695,303.493,308.474,311.722,314.621,320.061,325.859,330.84,333.72839999999997,336.23,342.218,347.199,350.098,361.386,366.825,369.724,372.6124,375.114,380.095,382.994,385.894,388.793,393.774,399.572,403.996,408.768,412.992" svgx:width="0.33,0.58,0.48,0.55,0.42,0.6,0.42,0.33,0.5,0.29,0.58,0.5,0.55,0.29,0.29,0.29,0.33,0.56,0.55,0.55,0.33,0.55,0.6,0.5,0.29,0.88,0.55,0.29,0.29,0.25,0.55,0.83,0.55,0.4,0.56,0.29,0.58,0.56,0.55,0.33,0.55,0.56,0.48,0.33,0.58,0.48,0.4,0.55,0.29,0.58,0.55,0.58,0.5,0.33,0.29,0.55,0.58,0.5,0.29,0.55,0.6,0.5,0.29,0.88,0.55,0.29,0.29,0.55,0.5,0.29,0.29,0.29,0.5,0.58,0.44,0.48,0.42,0.25" style="fill:rgb(0,0,0);font-family:URWPalladioL-Roma;font-size:9.96px;stroke:none;">the sustainability of palmoil, working together in national palmoil alliances.</text>
   <text y="337.212" x="76.535,81.516,84.007,88.988,91.478,94.567,100.654,105.078,108.953,112.829,115.598,120.211,122.981,126.8654,129.347,136.54,139.309,142.627,146.502,150.378,155.917,160.34,163.658,166.428,171.409,175.284,179.16,181.65,184.739,191.932,196.913,201.894,206.318,211.857,215.175,219.598,224.579,228.455,232.3394,234.821,239.244,244.783,249.76299999999998,252.255,260.006,262.776,266.651,271.075,276.056,281.037,285.461,291.0,294.317,298.741,303.722,307.598" svgx:width="0.5,0.25,0.5,0.25,0.55,0.61,0.44,0.39,0.39,0.28,0.46,0.28,0.39,0.55,0.72,0.28,0.33,0.39,0.39,0.56,0.44,0.33,0.28,0.5,0.39,0.39,0.25,0.55,0.72,0.5,0.5,0.44,0.56,0.33,0.44,0.5,0.39,0.39,0.55,0.44,0.56,0.5,0.55,0.78,0.28,0.39,0.44,0.5,0.5,0.44,0.56,0.33,0.44,0.5,0.39,0.39" style="fill:rgb(0,0,0);font-family:URWPalladioL-Ital;font-size:9.96px;stroke:none;">3.2. Possible Alternatives: Advantages and Disadvantages</text>
   <text y="356.699" x="97.795,103.329,108.763,114.197,120.2726,122.766,125.662,128.559,134.54,137.436,143.517,147.7002,150.235,155.212,158.964,163.7448,166.219,175.008,179.984,186.065,190.8458,193.33,199.332,205.308,207.801,213.236,216.5228,219.038,224.572,227.468,233.002,237.421,242.188,246.119,249.015,255.096,259.864,264.084,266.574,269.07,275.051,278.983,281.879,287.671,292.09,294.987,300.968,305.944,308.841,311.737,317.31460000000004,319.759,323.003,326.935,329.831,335.364,338.261,343.794,348.213,352.981,356.912,359.808,365.889,370.656,374.876,377.366,380.46,385.685,390.661,393.906,399.907,403.839,408.815,412.059,416.827,422.9026,425.396,428.71,433.686,436.931,440.176,445.7536,448.197,453.174,457.593,460.489,466.57,470.79,473.28000000000003,475.776,480.543,484.763,490.745,495.512,499.931,502.827,507.804,510.7,513.596" svgx:width="0.56,0.55,0.55,0.61,0.55,0.29,0.29,0.6,0.29,0.61,0.42,0.55,0.5,0.4,0.48,0.55,0.88,0.5,0.61,0.48,0.55,0.6,0.6,0.55,0.55,0.33,0.55,0.56,0.29,0.56,0.44,0.48,0.4,0.29,0.61,0.48,0.42,0.25,0.55,0.6,0.4,0.29,0.58,0.44,0.29,0.6,0.5,0.29,0.29,0.56,0.55,0.33,0.4,0.29,0.56,0.29,0.56,0.44,0.48,0.4,0.29,0.61,0.48,0.42,0.25,0.55,0.52,0.5,0.33,0.6,0.4,0.5,0.33,0.48,0.61,0.55,0.33,0.5,0.33,0.33,0.56,0.55,0.5,0.44,0.29,0.61,0.42,0.25,0.55,0.48,0.42,0.6,0.48,0.44,0.29,0.5,0.29,0.29,0.56" style="fill:rgb(0,0,0);font-family:URWPalladioL-Roma;font-size:9.96px;stroke:none;">Food lipids are made up of glycerides, principally triglycerides. Saturated fatty acids, especially</text>
   <text y="370.208" x="76.535,85.306,90.828,94.752,97.642,101.853,105.092,107.982,112.392,114.88199999999999,117.358,123.328,128.294,131.185,139.955,142.846,146.084,148.974,153.35639999999998,155.868,160.834,166.615,172.69060000000002,175.167,179.378,182.616,187.374,192.341,196.264,199.154,203.5364,206.048,211.014,215.424,218.315,224.383,228.595,231.085,233.561,238.528,242.272,247.0528,249.513,252.751,258.532,263.3128,265.773,274.544,279.51,282.401,288.1778,290.665,295.075,300.498,309.268,315.238,320.661,326.651,332.432,338.5,342.6832,345.195,350.618,353.9048,356.409,365.18,370.146,378.917,387.687,392.654,395.5424,398.027,401.335,406.301,409.539,413.751,416.241,418.717,427.001,432.782,435.672,438.563,443.3438,445.804,451.773,457.196,460.087,465.609,471.599,477.38,481.591,486.557,489.796,495.785,499.708,504.675,507.913,512.671" svgx:width="0.88,0.56,0.4,0.29,0.42,0.33,0.29,0.44,0.25,0.55,0.6,0.5,0.29,0.88,0.29,0.33,0.29,0.44,0.55,0.5,0.58,0.61,0.55,0.42,0.33,0.48,0.5,0.4,0.29,0.44,0.55,0.5,0.44,0.29,0.61,0.42,0.25,0.55,0.5,0.4,0.48,0.55,0.33,0.58,0.48,0.55,0.88,0.5,0.29,0.58,0.55,0.44,0.55,0.88,0.6,0.55,0.6,0.58,0.61,0.42,0.55,0.55,0.33,0.55,0.88,0.5,0.88,0.88,0.5,0.29,0.55,0.33,0.5,0.33,0.42,0.25,0.55,0.83,0.58,0.29,0.29,0.48,0.55,0.6,0.55,0.29,0.56,0.6,0.58,0.42,0.5,0.33,0.6,0.4,0.5,0.33,0.48,0.61" style="fill:rgb(0,0,0);font-family:URWPalladioL-Roma;font-size:9.96px;stroke:none;">myristic, palmitic and stearic acids, are the main compounds of mammal fats, while polyunsaturated</text>
   <text y="383.718" x="76.535,79.813,84.734,87.943,92.1262,94.597,99.519,103.229,108.0098,110.434,116.34,120.051,124.766,130.327,135.249,138.113,142.828,148.557,151.8438,154.256,157.12,162.8968,165.329,171.284,175.458,181.2348,183.667,189.041,191.905,194.77,198.9532,201.433" svgx:width="0.33,0.5,0.33,0.42,0.55,0.5,0.4,0.48,0.55,0.6,0.4,0.48,0.56,0.5,0.29,0.48,0.58,0.33,0.55,0.29,0.58,0.55,0.61,0.42,0.58,0.55,0.55,0.29,0.29,0.42,0.55,0.33" style="fill:rgb(0,0,0);font-family:URWPalladioL-Roma;font-size:9.96px;stroke:none;">fats are prevalent in ﬁsh oils [</text>
   <text y="383.718" x="204.708,209.689" svgx:width="0.5,0.5" style="fill:rgb(8,117,183);font-family:URWPalladioL-Roma;font-size:9.96px;stroke:none;">12</text>
   <text y="383.718" x="214.67" svgx:width="0.25" style="fill:rgb(0,0,0);font-family:URWPalladioL-Roma;font-size:9.96px;stroke:none;">,</text>
   <text y="383.718" x="217.131,222.112" svgx:width="0.5,0.5" style="fill:rgb(8,117,183);font-family:URWPalladioL-Roma;font-size:9.96px;stroke:none;">17</text>
   <text y="383.718" x="227.094" svgx:width="0.25" style="fill:rgb(0,0,0);font-family:URWPalladioL-Roma;font-size:9.96px;stroke:none;">,</text>
   <text y="383.718" x="229.554,234.535" svgx:width="0.5,0.5" style="fill:rgb(8,117,183);font-family:URWPalladioL-Roma;font-size:9.96px;stroke:none;">18</text>
   <text y="383.718" x="239.517,242.795,245.285,248.346,255.325,260.699,266.074,271.546,274.411,280.139,285.7166,288.092,293.467,296.331,299.195,303.3782,305.849,311.863,316.578,320.466,323.331,328.892,333.607,339.68260000000004,342.111,345.389,349.09,354.464,365.646,371.207,375.922,381.395,386.109,389.318,394.24,399.683,402.547,407.262,411.4452,413.916,418.286,423.661,429.389,432.598,437.52,440.384,446.1608,448.593,451.457,456.172,460.346,464.519,469.234,473.21799999999996,475.612,481.124,487.06,491.981,497.71,500.919,503.783,506.992,509.856,514.571" svgx:width="0.33,0.25,0.55,0.71,0.55,0.55,0.56,0.29,0.58,0.56,0.55,0.55,0.29,0.29,0.42,0.55,0.61,0.48,0.4,0.29,0.56,0.48,0.61,0.55,0.33,0.4,0.55,0.88,0.56,0.48,0.56,0.48,0.33,0.5,0.55,0.29,0.48,0.42,0.55,0.44,0.55,0.58,0.33,0.5,0.29,0.58,0.55,0.29,0.48,0.42,0.42,0.48,0.4,0.55,0.56,0.6,0.5,0.58,0.33,0.29,0.33,0.29,0.48,0.42" style="fill:rgb(0,0,0);font-family:URWPalladioL-Roma;font-size:9.96px;stroke:none;">]. Cooking oils derived fromvegetables contain lesser quantities</text>
   <text y="397.227" x="76.535,82.029,85.3158,87.875,92.142,97.173,100.453,106.52,110.495,115.526,118.806,123.626,129.7016,132.27,135.62,140.652,143.932,148.198,150.68800000000002,153.813,161.722,164.65,169.47,172.398,176.7804,179.361,184.392,188.86,191.788,197.86360000000002,200.421,206.469,210.272,215.092,220.777,225.808,228.736,231.664,235.8472,238.426,241.354,247.13080000000002,249.696,255.19,258.118,261.046,266.731,271.5118,274.046,279.54,282.468,285.3564,287.892,292.923,298.779,304.8546,307.423,310.351,313.279,319.135,324.629,327.557,332.377,335.305,339.6874,342.268,347.299,351.767,354.695,360.7706,363.338,366.267,372.0438,374.618,379.086,384.58,388.554,394.411,396.901,399.422,403.688,409.755,415.612,421.729,427.223,435.615,440.435,443.665,446.15500000000003,448.676,454.271,458.245,463.276,469.324,474.1048,476.639,480.905,485.725,490.545,496.693,499.183,501.704,506.735,512.591" svgx:width="0.55,0.33,0.55,0.42,0.5,0.33,0.6,0.4,0.5,0.33,0.48,0.61,0.55,0.33,0.5,0.33,0.42,0.25,0.55,0.79,0.29,0.48,0.29,0.44,0.55,0.5,0.44,0.29,0.61,0.55,0.6,0.4,0.48,0.56,0.5,0.29,0.29,0.42,0.55,0.29,0.58,0.55,0.55,0.29,0.29,0.56,0.48,0.55,0.55,0.29,0.29,0.55,0.5,0.58,0.61,0.55,0.29,0.29,0.58,0.55,0.29,0.48,0.29,0.44,0.55,0.5,0.44,0.29,0.61,0.55,0.29,0.58,0.55,0.44,0.55,0.4,0.58,0.25,0.55,0.42,0.6,0.58,0.61,0.55,0.83,0.48,0.4,0.25,0.55,0.56,0.4,0.5,0.6,0.48,0.55,0.42,0.48,0.48,0.61,0.25,0.55,0.5,0.58,0.61" style="fill:rgb(0,0,0);font-family:URWPalladioL-Roma;font-size:9.96px;stroke:none;">of saturated fats. Oleic acid prevails in olive oil and linoleic acid in corn, sunﬂower, grape seed, and</text>
   <text y="410.736" x="76.535,80.738,85.694,88.817,94.844,100.256,108.524,113.272,117.256,119.675,125.088,127.972,130.857,133.347,136.428,143.456,148.869,153.27,158.682,164.442,170.419,173.7058,176.149,181.105,186.874,192.9496,195.419,201.377,206.333,209.218,220.459,225.97,230.718,234.634,240.403,245.152,248.04039999999998,250.524,255.937,258.821,261.7094,264.194,269.963,274.92,280.52,285.3008,287.757,293.526,298.938,302.17,307.126,312.608,315.493,321.0706,323.492,329.262,332.146,337.658,343.427,348.175,352.159,354.579,360.13,366.107,371.064,376.833,380.065,382.949,386.181,389.065,393.814,397.9972,400.505,405.917,409.2038,411.706,415.909,420.866,424.097,430.075,433.99,438.947,442.178,446.926,453.0016,455.471,458.772,463.728,466.96,471.1432,473.651,476.883,482.652,487.608,493.3848,495.866,501.278,504.51,510.279,515.027" svgx:width="0.42,0.5,0.33,0.61,0.55,0.83,0.48,0.4,0.55,0.55,0.29,0.29,0.25,0.55,0.71,0.55,0.44,0.55,0.58,0.6,0.33,0.55,0.5,0.58,0.61,0.55,0.6,0.5,0.29,0.88,0.56,0.48,0.4,0.58,0.48,0.29,0.55,0.55,0.29,0.29,0.55,0.58,0.5,0.56,0.48,0.55,0.58,0.55,0.33,0.5,0.55,0.29,0.56,0.55,0.58,0.29,0.56,0.58,0.48,0.4,0.55,0.56,0.6,0.5,0.58,0.33,0.29,0.33,0.29,0.48,0.42,0.55,0.55,0.33,0.55,0.42,0.5,0.33,0.6,0.4,0.5,0.33,0.48,0.61,0.55,0.33,0.5,0.33,0.42,0.55,0.33,0.58,0.5,0.58,0.55,0.55,0.33,0.58,0.48,0.4" style="fill:rgb(0,0,0);font-family:URWPalladioL-Roma;font-size:9.96px;stroke:none;">safﬂower oil. Coconut and palmkernel oil have notably higher quantities of saturated fats than other</text>
   <text y="424.246" x="76.535,81.882,84.732,87.582,91.734,94.22399999999999,97.297,103.28,106.13,111.83,117.177,120.027,124.718,127.568,131.9504,134.413,139.31,145.009,151.0846,153.49,156.34,159.19,164.89,170.237,173.087,177.777,183.477,186.327,190.7094,193.182,198.079,202.427,205.277,211.261,215.4442,217.91,222.807,226.499,231.2798,233.687,236.948,242.295,248.201,253.9,259.9756,262.381,265.231,271.0078,273.428,278.325,283.74,289.646,295.345,301.329,306.226,311.925,316.273,321.0538,323.462,326.312,332.0888,334.518,338.671,344.018,349.463,354.878,359.569,364.466,370.2428,372.663,378.01,380.86,383.7484,386.207" svgx:width="0.55,0.29,0.29,0.42,0.25,0.55,0.61,0.29,0.58,0.55,0.29,0.48,0.29,0.44,0.55,0.5,0.58,0.61,0.55,0.29,0.29,0.58,0.55,0.29,0.48,0.58,0.29,0.44,0.55,0.5,0.44,0.29,0.61,0.42,0.55,0.5,0.4,0.48,0.55,0.33,0.55,0.6,0.58,0.61,0.55,0.29,0.58,0.55,0.5,0.55,0.6,0.58,0.61,0.5,0.58,0.44,0.48,0.55,0.29,0.58,0.55,0.42,0.55,0.56,0.55,0.48,0.5,0.58,0.55,0.55,0.29,0.29,0.55,0.33" style="fill:rgb(0,0,0);font-family:URWPalladioL-Roma;font-size:9.96px;stroke:none;">oils. Linoleic and linolenic acids are found in abundance in soybean oil [</text>
   <text y="424.246" x="389.468,394.449" svgx:width="0.5,0.5" style="fill:rgb(8,117,183);font-family:URWPalladioL-Roma;font-size:9.96px;stroke:none;">18</text>
   <text y="424.246" x="399.431,402.692,405.182,408.255,413.396,418.743,427.391,432.1718,434.579,440.112,444.803,450.248,454.939,458.132,463.028,468.444,471.294,476.0748,478.482,483.829,486.679,489.529,493.681,496.171,498.636,502.789,508.694,513.042" svgx:width="0.33,0.25,0.55,0.52,0.55,0.88,0.48,0.55,0.56,0.48,0.56,0.48,0.33,0.5,0.55,0.29,0.48,0.55,0.55,0.29,0.29,0.42,0.25,0.55,0.42,0.6,0.44,0.58" style="fill:rgb(0,0,0);font-family:URWPalladioL-Roma;font-size:9.96px;stroke:none;">]. Some vegetable oils, such</text>
   <text y="437.755" x="76.535,81.447,85.6302,88.097,96.771,101.682,105.386,110.847,115.759,119.639,122.497,128.214,132.92,135.41,137.851,143.774,149.491,155.493,160.199,163.902,169.363,174.841,177.212,185.886,190.798,196.515,202.09259999999998,204.461,210.365,214.059,219.422,223.784,228.489,232.654,236.819,241.524,245.7072,248.174,253.538,256.82480000000004,259.294,265.011,270.473,276.475,280.178,285.542,291.003,295.708,301.426,306.337,309.539,312.398,317.761,323.5378,325.954,329.156,334.873,339.785,343.07180000000005,345.472,350.384,353.243,356.101,361.465,372.142,375.345,381.062,385.8428,388.252,394.156,399.519,402.378,407.839,413.763,419.48,423.645,428.556,431.759,437.682,441.562,446.474,449.676,454.381,460.4566,462.859,466.13,471.041,474.244,477.446,483.02360000000004,485.393,490.305,494.666,497.525,503.526,507.7092,510.177,513.379" svgx:width="0.5,0.42,0.55,0.88,0.5,0.4,0.56,0.5,0.4,0.29,0.58,0.48,0.25,0.55,0.6,0.58,0.61,0.48,0.4,0.56,0.55,0.55,0.88,0.5,0.58,0.56,0.55,0.6,0.4,0.55,0.44,0.48,0.42,0.42,0.48,0.42,0.55,0.55,0.33,0.55,0.58,0.56,0.61,0.4,0.55,0.56,0.48,0.58,0.5,0.33,0.29,0.55,0.58,0.55,0.33,0.58,0.5,0.33,0.55,0.5,0.29,0.29,0.55,0.83,0.33,0.58,0.48,0.55,0.6,0.55,0.29,0.56,0.6,0.58,0.42,0.5,0.33,0.6,0.4,0.5,0.33,0.48,0.61,0.55,0.33,0.5,0.33,0.33,0.56,0.55,0.5,0.44,0.29,0.61,0.42,0.55,0.33,0.55" style="fill:rgb(0,0,0);font-family:URWPalladioL-Roma;font-size:9.96px;stroke:none;">as margarine, undergo many processes of hydrogenation that allowthe polyunsaturated fatty acids to</text>
   <text y="451.264" x="76.535,81.516,85.74,89.965,95.972,104.769,109.5498,112.032,115.28,119.215,124.196,129.994,134.1772,136.709,140.933,144.181,148.037,154.044,158.467,161.715,167.723,171.479,176.251,180.475,182.965,185.456,188.355,193.795,198.019,200.918,206.716,212.2936,214.746,217.994,223.792,228.564,231.463,235.447,237.889,243.877,247.633,253.072,259.1,261.999,266.7798,269.261,274.701,277.98780000000005,280.509,289.306,294.078,297.326,302.307,307.817,313.256,316.155,319.054,323.4364,325.969,330.193,335.174,338.492,343.264,346.511,352.08860000000004,354.541,357.859,363.049,368.031,373.54,376.439" svgx:width="0.5,0.42,0.42,0.6,0.88,0.48,0.55,0.33,0.4,0.5,0.58,0.42,0.55,0.42,0.33,0.4,0.6,0.44,0.33,0.6,0.4,0.48,0.42,0.25,0.55,0.29,0.55,0.42,0.29,0.58,0.56,0.55,0.33,0.58,0.48,0.29,0.4,0.55,0.6,0.4,0.55,0.61,0.29,0.48,0.55,0.55,0.33,0.55,0.88,0.48,0.33,0.5,0.55,0.55,0.29,0.29,0.44,0.55,0.42,0.5,0.33,0.48,0.33,0.56,0.55,0.33,0.61,0.5,0.55,0.29,0.48" style="fill:rgb(0,0,0);font-family:URWPalladioL-Roma;font-size:9.96px;stroke:none;">assume trans structures, losing their proﬁle of metabolic safety (Table</text>
   <text y="451.264" x="383.702" svgx:width="0.5" style="fill:rgb(8,117,183);font-family:URWPalladioL-Roma;font-size:9.96px;stroke:none;">1</text>
   <text y="451.264" x="388.683,391.9698,394.491" svgx:width="0.33,0.55,0.33" style="fill:rgb(0,0,0);font-family:URWPalladioL-Roma;font-size:9.96px;stroke:none;">) [</text>
   <text y="451.264" x="397.809" svgx:width="0.5" style="fill:rgb(8,117,183);font-family:URWPalladioL-Roma;font-size:9.96px;stroke:none;">4</text>
   <text y="451.264" x="402.79" svgx:width="0.25" style="fill:rgb(0,0,0);font-family:URWPalladioL-Roma;font-size:9.96px;stroke:none;">,</text>
   <text y="451.264" x="405.281,410.262" svgx:width="0.5,0.5" style="fill:rgb(8,117,183);font-family:URWPalladioL-Roma;font-size:9.96px;stroke:none;">12</text>
   <text y="451.264" x="415.243,418.561" svgx:width="0.33,0.25" style="fill:rgb(0,0,0);font-family:URWPalladioL-Roma;font-size:9.96px;stroke:none;">].</text>
   <text y="475.214" x="182.919,187.904,192.388,197.866,200.852,205.33700000000002,207.577,212.06" svgx:width="0.67,0.5,0.61,0.33,0.5,0.55,0.5,0.25" style="fill:rgb(0,0,0);font-family:URWPalladioL-Bold;font-size:8.97px;stroke:none;">Table 1.</text>
   <text y="475.214" x="217.08,224.02,226.629,229.454,232.439,236.734,240.115,244.41,249.628,252.5881,254.793,258.774,263.669,271.587,276.976,281.871,285.673,288.282,291.205,293.814,298.71,303.929,307.6964,309.972,314.868,317.8281,320.095,325.484,329.967,332.576,342.735,347.631,350.24,352.8413,355.091,359.574,364.792,370.2637,372.513,377.408,380.331,385.55,389.845,393.43300000000005,395.628,398.614,403.097,406.02,409.822" svgx:width="0.77,0.29,0.33,0.33,0.48,0.4,0.48,0.58,0.33,0.55,0.44,0.55,0.88,0.6,0.55,0.42,0.29,0.33,0.29,0.55,0.58,0.42,0.55,0.55,0.33,0.55,0.6,0.5,0.29,0.88,0.55,0.29,0.29,0.55,0.5,0.58,0.61,0.55,0.55,0.33,0.58,0.48,0.4,0.55,0.33,0.5,0.33,0.42,0.25" style="fill:rgb(0,0,0);font-family:URWPalladioL-Roma;font-size:8.97px;stroke:none;">Different compositions of palmoil and other fats.</text>
  </g>
  <path style="fill:none;stroke:rgb(0,0,0);stroke-width:1.0;" d="M94.010 489.320 L501.260 489.320 "/>
  <g begin="text">
   <text y="501.575" x="211.161,215.27,218.632,220.872,228.531,234.133,236.372" svgx:width="0.61,0.5,0.33,0.89,0.83,0.33,0.33" style="fill:rgb(0,0,0);font-family:URWPalladioL-Bold;font-size:6.72px;stroke:none;">PalmOil</text>
   <text y="497.465" x="248.472,252.581,256.32,260.059,264.168,267.53,270.893" svgx:width="0.61,0.56,0.56,0.61,0.5,0.5,0.61" style="fill:rgb(0,0,0);font-family:URWPalladioL-Bold;font-size:6.72px;stroke:none;">Soybean</text>
   <text y="505.684" x="256.696,262.298,264.538" svgx:width="0.83,0.33,0.33" style="fill:rgb(0,0,0);font-family:URWPalladioL-Bold;font-size:6.72px;stroke:none;">Oil</text>
   <text y="497.465" x="287.754,292.609,295.972,300.081,303.82,306.059" svgx:width="0.72,0.5,0.61,0.56,0.33,0.5" style="fill:rgb(0,0,0);font-family:URWPalladioL-Bold;font-size:6.72px;stroke:none;">Canola</text>
   <text y="505.684" x="293.547,299.149,301.388" svgx:width="0.83,0.33,0.33" style="fill:rgb(0,0,0);font-family:URWPalladioL-Bold;font-size:6.72px;stroke:none;">Oil</text>
   <text y="497.465" x="321.496,325.605,329.713,333.822,337.931,341.67,347.272,350.634" svgx:width="0.61,0.61,0.61,0.61,0.56,0.83,0.5,0.39" style="fill:rgb(0,0,0);font-family:URWPalladioL-Bold;font-size:6.72px;stroke:none;">Sunﬂower</text>
   <text y="505.684" x="330.397,335.999,338.239" svgx:width="0.83,0.33,0.33" style="fill:rgb(0,0,0);font-family:URWPalladioL-Bold;font-size:6.72px;stroke:none;">Oil</text>
   <text y="497.465" x="363.697,369.299,371.539,373.778,377.517" svgx:width="0.83,0.33,0.33,0.56,0.5" style="fill:rgb(0,0,0);font-family:URWPalladioL-Bold;font-size:6.72px;stroke:none;">Olive</text>
   <text y="505.684" x="367.248,372.85,375.089" svgx:width="0.83,0.33,0.33" style="fill:rgb(0,0,0);font-family:URWPalladioL-Bold;font-size:6.72px;stroke:none;">Oil</text>
   <text y="497.465" x="396.25,401.106,404.845,407.831,411.57,415.678,419.787" svgx:width="0.72,0.56,0.44,0.56,0.61,0.61,0.33" style="fill:rgb(0,0,0);font-family:URWPalladioL-Bold;font-size:6.72px;stroke:none;">Coconut</text>
   <text y="505.684" x="404.098,409.7,411.94" svgx:width="0.83,0.33,0.33" style="fill:rgb(0,0,0);font-family:URWPalladioL-Bold;font-size:6.72px;stroke:none;">Oil</text>
   <text y="501.575" x="436.463,440.949,445.057,447.297,449.536,452.899,455.5198,468.897,475.622,478.984,481.6,485.339,488.701,491.317,493.557,497.666" svgx:width="0.67,0.61,0.33,0.33,0.5,0.39,0.55,1.0,0.5,0.39,0.56,0.5,0.39,0.33,0.61,0.5" style="fill:rgb(0,0,0);font-family:URWPalladioL-Bold;font-size:6.72px;stroke:none;">Butter Margarine</text>
  </g>
  <path style="fill:none;stroke:rgb(0,0,0);stroke-width:0.6;" d="M94.010 509.550 L501.260 509.550 "/>
  <g begin="text">
   <text y="517.505" x="119.719,123.25,126.612,128.805,132.86,135.516,138.878,141.071,144.292,148.3912,150.082,152.321,155.684,157.876,160.068,163.83120000000002,165.488,168.851,171.837,173.794,177.902,180.72439999999997,216.483,219.845,223.207,226.57,229.932,233.292,253.328,256.69,260.053,263.415,266.777,270.137,293.542,296.905,300.267,303.627,327.032,330.394,333.757,337.119,340.481,343.841,365.565,368.927,372.29,375.652,379.012,400.736,404.098,407.461,410.823,414.185,417.545,437.581,440.943,444.306,447.668,451.031,454.391,479.476,482.839" svgx:width="0.52,0.5,0.33,0.6,0.4,0.5,0.33,0.48,0.61,0.55,0.33,0.5,0.33,0.33,0.56,0.55,0.5,0.44,0.29,0.61,0.42,0.55,0.5,0.5,0.5,0.5,0.5,0.55,0.5,0.5,0.5,0.5,0.5,0.55,0.5,0.5,0.5,0.55,0.5,0.5,0.5,0.5,0.5,0.55,0.5,0.5,0.5,0.5,0.55,0.5,0.5,0.5,0.5,0.5,0.55,0.5,0.5,0.5,0.5,0.5,0.55,0.5,0.5" style="fill:rgb(0,0,0);font-family:URWPalladioL-Roma;font-size:6.72px;stroke:none;">Saturated fatty acids 45–55 11–21 2–8 10–16 9–26 55–75 49–51 28</text>
   <text y="525.761" x="124.517,128.626,131.988,136.044,138.7,140.657,143.6138,145.324,148.686,151.672,153.629,157.7282,159.419,164.187,167.549,170.912,172.593,175.953,217.319,220.682,224.044,227.407,229.088,232.448,255.496,259.571,262.934,264.615,267.975,292.348,296.423,299.786,301.467,304.827,329.2,333.275,336.638,338.319,341.67900000000003,364.364,368.439,371.802,373.483,376.845,380.20500000000004,400.732,404.094,407.456,410.819,414.181,417.541,440.946,444.308,447.671,451.031,476.601,480.676,484.039,485.72" svgx:width="0.61,0.5,0.6,0.4,0.29,0.44,0.55,0.5,0.44,0.29,0.61,0.55,0.71,0.5,0.5,0.25,0.5,0.55,0.5,0.5,0.5,0.25,0.5,0.55,0.61,0.5,0.25,0.5,0.55,0.61,0.5,0.25,0.5,0.55,0.61,0.5,0.25,0.5,0.55,0.61,0.5,0.25,0.5,0.5,0.55,0.5,0.5,0.5,0.5,0.5,0.55,0.5,0.5,0.5,0.55,0.61,0.5,0.25,0.5" style="fill:rgb(0,0,0);font-family:URWPalladioL-Roma;font-size:6.72px;stroke:none;">Lauric acid C12:0 0–0.5 &lt;0.2 &lt;0.2 &lt;0.2 &lt;0.05 44–51 2–4 &lt;0.2</text>
   <text y="534.017" x="121.73,128.092,131.831,134.487,136.444,139.295,141.488,143.445,146.40179999999998,148.112,151.474,154.46,156.417,160.5162,162.207,166.975,170.337,173.7,175.381,178.741,217.323,220.686,222.367,225.729,229.092,232.45200000000003,255.493,259.568,262.931,264.612,267.97200000000004,292.345,296.42,299.783,301.464,304.824,329.197,333.272,336.635,338.316,341.676,366.405,369.768,371.449,374.811,378.171,400.735,404.098,407.46,410.823,414.185,417.545,444.305,447.665,476.598,480.673,484.036,485.717" svgx:width="0.95,0.56,0.4,0.29,0.42,0.33,0.29,0.44,0.55,0.5,0.44,0.29,0.61,0.55,0.71,0.5,0.5,0.25,0.5,0.55,0.5,0.25,0.5,0.5,0.5,0.55,0.61,0.5,0.25,0.5,0.55,0.61,0.5,0.25,0.5,0.55,0.61,0.5,0.25,0.5,0.55,0.5,0.25,0.5,0.5,0.55,0.5,0.5,0.5,0.5,0.5,0.55,0.5,0.55,0.61,0.5,0.25,0.5" style="fill:rgb(0,0,0);font-family:URWPalladioL-Roma;font-size:6.72px;stroke:none;">Myristic acid C14:0 0.5–2 &lt;0.2 &lt;0.2 &lt;0.2 0.05 13–18 8 &lt;0.2</text>
   <text y="542.274" x="121.875,125.937,129.299,131.256,137.194,139.151,141.343,143.3,146.2568,147.967,151.33,154.315,156.272,160.3712,162.062,166.83,170.193,173.555,175.236,178.596,211.436,214.798,218.161,219.842,223.204,226.567,229.929,233.292,234.973,238.33300000000003,255.013,258.375,261.737,265.1,268.46000000000004,293.546,296.908,300.271,303.63100000000003,330.398,333.76,337.122,340.482,363.04,366.402,368.083,371.446,374.808,378.171,381.531,402.414,405.776,409.138,412.501,415.861,442.628,445.99,449.35,479.48,482.842" svgx:width="0.6,0.5,0.29,0.88,0.29,0.33,0.29,0.44,0.55,0.5,0.44,0.29,0.61,0.55,0.71,0.5,0.5,0.25,0.5,0.55,0.5,0.5,0.25,0.5,0.5,0.5,0.5,0.25,0.5,0.55,0.5,0.5,0.5,0.5,0.55,0.5,0.5,0.5,0.55,0.5,0.5,0.5,0.55,0.5,0.25,0.5,0.5,0.5,0.5,0.55,0.5,0.5,0.5,0.5,0.55,0.5,0.5,0.55,0.5,0.5" style="fill:rgb(0,0,0);font-family:URWPalladioL-Roma;font-size:6.72px;stroke:none;">Palmitic acid C16:0 39.5–47.5 8–13 1–5 5–8 7.5–20 8–10 21 20</text>
   <text y="550.531" x="124.127,127.658,129.85,133.071,136.434,139.09,141.047,144.00379999999998,145.714,149.076,152.062,154.019,158.1182,159.809,164.577,167.939,171.302,172.983,176.34300000000002,217.32,220.682,222.363,225.726,229.088,232.448,256.693,260.056,263.418,266.778,293.545,296.908,300.27,303.63,330.397,333.76,337.122,340.482,364.721,368.083,369.764,373.127,376.489,379.849,404.935,408.297,409.978,413.338,444.309,447.66900000000004,481.16" svgx:width="0.52,0.33,0.48,0.5,0.4,0.29,0.44,0.55,0.5,0.44,0.29,0.61,0.55,0.71,0.5,0.5,0.25,0.5,0.55,0.5,0.25,0.5,0.5,0.5,0.55,0.5,0.5,0.5,0.55,0.5,0.5,0.5,0.55,0.5,0.5,0.5,0.55,0.5,0.25,0.5,0.5,0.5,0.55,0.5,0.25,0.5,0.55,0.5,0.55,0.5" style="fill:rgb(0,0,0);font-family:URWPalladioL-Roma;font-size:6.72px;stroke:none;">Stearic acid C18:0 3.5–6 3–6 1–2 4–6 0.5–6 0.5 9 5</text>
   <text y="558.788" x="107.265,113.627,117.298,121.212,124.884,128.939,132.853,135.704,139.067,141.259,145.314,147.97,151.333,153.525,156.746,160.8452,162.536,164.776,168.138,170.33,172.522,176.2852,177.943,181.305,184.291,186.248,190.357,193.1794,216.482,219.845,223.207,226.57,229.932,233.292,253.334,256.697,260.059,263.422,266.784,270.144,290.18,293.542,296.904,300.267,303.629,306.98900000000003,327.032,330.394,333.756,337.119,340.481,343.841,363.884,367.246,370.608,373.971,377.333,380.69300000000004,402.417,405.779,409.142,412.504,415.86400000000003,442.624,445.987,449.34700000000004,474.433,477.795,481.157,484.52,487.882" svgx:width="0.95,0.55,0.58,0.55,0.6,0.58,0.42,0.5,0.33,0.6,0.4,0.5,0.33,0.48,0.61,0.55,0.33,0.5,0.33,0.33,0.56,0.55,0.5,0.44,0.29,0.61,0.42,0.55,0.5,0.5,0.5,0.5,0.5,0.55,0.5,0.5,0.5,0.5,0.5,0.55,0.5,0.5,0.5,0.5,0.5,0.55,0.5,0.5,0.5,0.5,0.5,0.55,0.5,0.5,0.5,0.5,0.5,0.55,0.5,0.5,0.5,0.5,0.55,0.5,0.5,0.55,0.5,0.5,0.5,0.5,0.5" style="fill:rgb(0,0,0);font-family:URWPalladioL-Roma;font-size:6.72px;stroke:none;">Monounsaturated fatty acids 38–45 17–26 56–65 15–26 56–87 7–10 24 30–32</text>
   <text y="567.044" x="121.619,126.905,128.862,132.083,134.04,136.99679999999998,138.707,142.069,145.055,147.012,151.1112,152.802,157.57,160.932,164.295,165.976,169.338,173.252,175.492,178.852,216.479,219.842,223.204,226.567,229.929,233.28900000000002,253.331,256.694,260.056,263.418,266.781,270.141,290.183,293.546,296.908,300.27,303.633,306.993,327.035,330.398,333.76,337.122,340.485,343.845,363.88,367.243,370.605,373.968,377.33,380.69,399.051,402.414,404.095,407.457,410.82,414.182,415.863,419.223,442.628,445.99,449.35,474.436,477.799,481.161,484.523,487.886" svgx:width="0.79,0.29,0.48,0.29,0.44,0.55,0.5,0.44,0.29,0.61,0.55,0.71,0.5,0.5,0.25,0.5,0.58,0.33,0.5,0.55,0.5,0.5,0.5,0.5,0.5,0.55,0.5,0.5,0.5,0.5,0.5,0.55,0.5,0.5,0.5,0.5,0.5,0.55,0.5,0.5,0.5,0.5,0.5,0.55,0.5,0.5,0.5,0.5,0.5,0.55,0.5,0.25,0.5,0.5,0.5,0.25,0.5,0.55,0.5,0.5,0.55,0.5,0.5,0.5,0.5,0.5" style="fill:rgb(0,0,0);font-family:URWPalladioL-Roma;font-size:6.72px;stroke:none;">Oleic acid C18:1n-9 36–44 17–26 55–62 15–25 55–83 5.5–7.5 21 16–20</text>
   <text y="575.3" x="109.36,113.422,117.093,119.05,122.789,126.844,130.758,133.609,136.972,139.164,143.219,145.875,149.238,151.43,154.651,158.7502,160.441,162.681,166.043,168.235,170.428,174.1912,175.848,179.21,182.196,184.153,188.262,191.0844,218.16,221.523,224.885,228.248,231.608,253.331,256.693,260.056,263.418,266.781,270.141,290.183,293.545,296.908,300.27,303.633,306.993,327.035,330.397,333.76,337.122,340.485,343.845,365.561,368.924,372.286,375.649,379.009,404.095,407.457,410.819,414.17900000000003,440.946,444.309,447.671,451.031,474.436,477.798,481.161,484.523,487.886" svgx:width="0.6,0.55,0.29,0.56,0.6,0.58,0.42,0.5,0.33,0.6,0.4,0.5,0.33,0.48,0.61,0.55,0.33,0.5,0.33,0.33,0.56,0.55,0.5,0.44,0.29,0.61,0.42,0.55,0.5,0.5,0.5,0.5,0.55,0.5,0.5,0.5,0.5,0.5,0.55,0.5,0.5,0.5,0.5,0.5,0.55,0.5,0.5,0.5,0.5,0.5,0.55,0.5,0.5,0.5,0.5,0.55,0.5,0.5,0.5,0.55,0.5,0.5,0.5,0.55,0.5,0.5,0.5,0.5,0.5" style="fill:rgb(0,0,0);font-family:URWPalladioL-Roma;font-size:6.72px;stroke:none;">Polyunsaturated fatty acids 9–12 54–72 26–32 62–70 4–22 2–4 2–4 18–20</text>
   <text y="583.557" x="117.436,121.545,123.502,127.416,131.088,133.045,136.266,138.223,141.1798,142.89,146.252,149.238,151.195,155.2942,156.985,161.753,165.115,168.478,170.159,173.521,177.435,179.675,183.03500000000003,218.161,221.523,224.885,228.248,231.608,253.331,256.694,260.056,263.419,266.781,270.141,290.183,293.546,296.908,300.271,303.633,306.993,327.035,330.398,333.76,337.122,340.485,343.845,365.562,368.924,372.286,375.649,379.009,402.898,406.973,410.335,412.017,415.377,440.947,444.309,447.672,451.03200000000004,474.436,477.799,481.161,484.523,487.886" svgx:width="0.61,0.29,0.58,0.55,0.29,0.48,0.29,0.44,0.55,0.5,0.44,0.29,0.61,0.55,0.71,0.5,0.5,0.25,0.5,0.58,0.33,0.5,0.55,0.5,0.5,0.5,0.5,0.55,0.5,0.5,0.5,0.5,0.5,0.55,0.5,0.5,0.5,0.5,0.5,0.55,0.5,0.5,0.5,0.5,0.5,0.55,0.5,0.5,0.5,0.5,0.55,0.61,0.5,0.25,0.5,0.55,0.5,0.5,0.5,0.55,0.5,0.5,0.5,0.5,0.5" style="fill:rgb(0,0,0);font-family:URWPalladioL-Roma;font-size:6.72px;stroke:none;">Linoleic acid C18:2n-6 9–12 50–62 18–22 62–70 3–21 &lt;2.5 1–2 16–18</text>
   <text y="591.814" x="106.183,111.415,113.372,117.413,121.327,124.689,126.929,128.886,130.843,134.756,138.428,140.385,143.606,147.52,149.477,152.4338,154.144,157.506,160.492,162.449,166.5482,168.239,173.007,176.369,179.732,181.413,184.775,188.689,190.929,194.28900000000002,218.648,222.724,226.086,227.767,231.127,255.009,258.372,261.734,265.096,268.456,291.861,295.224,298.586,301.948,305.308,329.197,333.273,336.635,338.316,341.676,368.571,372.646,376.00600000000003,405.423,409.498,412.858,440.943,444.306,447.668,451.028,477.795,481.158,484.52" svgx:width="0.78,0.29,0.6,0.58,0.5,0.33,0.29,0.29,0.58,0.55,0.29,0.48,0.58,0.29,0.44,0.55,0.5,0.44,0.29,0.61,0.55,0.71,0.5,0.5,0.25,0.5,0.58,0.33,0.5,0.55,0.61,0.5,0.25,0.5,0.55,0.5,0.5,0.5,0.5,0.55,0.5,0.5,0.5,0.5,0.55,0.61,0.5,0.25,0.5,0.55,0.61,0.5,0.55,0.61,0.5,0.55,0.5,0.5,0.5,0.55,0.5,0.5,0.5" style="fill:rgb(0,0,0);font-family:URWPalladioL-Roma;font-size:6.72px;stroke:none;">Alpha-linolenic acid C18:3n-3 &lt;0.5 4–10 8–10 &lt;0.2 &lt;1 &lt;1 1–2 1–2</text>
  </g>
  <path style="fill:none;stroke:rgb(0,0,0);stroke-width:0.25;" d="M94.010 595.900 L501.260 595.900 "/>
  <g begin="text">
   <text y="620.879" x="97.795,103.841,109.581,114.3618,116.801,122.729,128.114,132.296,136.478,139.348,144.802,147.672,152.4528,154.882,159.813,162.684,165.899,170.623,174.519,180.259,185.191,188.406,191.276,196.849,201.573,205.7562,208.25,211.466,216.94400000000002,219.346,225.274,230.205,233.076,244.28,249.665,252.535,255.4234,257.891,263.838,268.02,272.8008,275.24,278.11,283.8868,286.346,289.561,295.301,300.0818,302.511,305.795,311.181,316.566,322.6416,325.087,327.957,333.698,339.724,345.671,349.853,353.069,356.965,362.5426,364.944,369.875,373.594,378.3748,380.803,384.019,389.759,394.5398,396.979,400.263,405.648,408.518,411.388,416.774,424.999,427.869,433.61,439.18760000000003,441.589" svgx:width="0.61,0.58,0.48,0.55,0.6,0.55,0.42,0.42,0.29,0.55,0.29,0.48,0.55,0.5,0.29,0.33,0.48,0.4,0.58,0.5,0.33,0.29,0.56,0.48,0.42,0.55,0.33,0.55,0.55,0.6,0.5,0.29,0.88,0.55,0.29,0.29,0.55,0.6,0.42,0.48,0.55,0.29,0.58,0.55,0.33,0.58,0.48,0.55,0.33,0.55,0.55,0.61,0.55,0.29,0.58,0.61,0.6,0.42,0.33,0.4,0.56,0.55,0.5,0.4,0.48,0.55,0.33,0.58,0.48,0.55,0.33,0.55,0.29,0.29,0.55,0.83,0.29,0.58,0.56,0.55,0.33" style="fill:rgb(0,0,0);font-family:URWPalladioL-Roma;font-size:9.96px;stroke:none;">The possible alternatives to palmoil use in the food industry are the following [</text>
   <text y="620.879" x="444.873,449.854" svgx:width="0.5,0.5" style="fill:rgb(8,117,183);font-family:URWPalladioL-Roma;font-size:9.96px;stroke:none;">19</text>
   <text y="620.879" x="454.835,458.119,460.60900000000004,463.682,466.966,471.898,475.18480000000005,477.668,481.85,486.781,489.996,495.944,499.84,504.771,507.987,512.711" svgx:width="0.33,0.25,0.55,0.33,0.5,0.33,0.55,0.42,0.5,0.33,0.6,0.4,0.5,0.33,0.48,0.61" style="fill:rgb(0,0,0);font-family:URWPalladioL-Roma;font-size:9.96px;stroke:none;">]: (1) saturated</text>
   <text y="634.388" x="76.535,81.616,87.53,90.487,99.46,104.541,107.4294,110.191,113.575,118.656,121.969,126.277,128.767,131.551,135.86,141.408,144.365,147.322,153.3976,156.224,161.773,165.757,168.469,172.778,177.645,186.618,189.575,192.959,197.268,202.816,205.773,208.73,214.8056,217.632,222.713,225.9998,228.709,232.55,238.098,243.647,252.4118,255.302,258.615,263.483,272.455,278.563,283.43,287.444,292.525,295.838,301.965,305.796,310.664,313.154,315.948,320.257,326.384,330.896,336.6728,339.493,344.574,348.7572,351.576,357.195,363.323,366.635,369.948,374.816,378.088,380.57800000000003,383.372,386.329,391.41,395.241,401.3166,404.143,409.691,413.67499999999995,416.388,419.701,424.782,427.739,430.696,436.244,444.719,447.209,450.745,454.058,459.972,464.84,470.4176,473.183,479.097,484.178,489.919,494.6998,497.469,503.089,507.956,512.824" svgx:width="0.5,0.58,0.29,0.88,0.5,0.29,0.55,0.33,0.5,0.33,0.42,0.25,0.55,0.42,0.55,0.29,0.29,0.61,0.55,0.55,0.4,0.55,0.42,0.48,0.88,0.29,0.33,0.42,0.55,0.29,0.29,0.61,0.55,0.5,0.33,0.55,0.4,0.55,0.55,0.88,0.55,0.33,0.48,0.88,0.6,0.48,0.4,0.5,0.33,0.6,0.4,0.48,0.25,0.55,0.42,0.6,0.44,0.58,0.55,0.5,0.42,0.55,0.55,0.6,0.33,0.33,0.48,0.4,0.25,0.55,0.29,0.5,0.4,0.61,0.55,0.55,0.4,0.55,0.33,0.5,0.29,0.29,0.55,0.83,0.25,0.55,0.33,0.58,0.48,0.56,0.55,0.58,0.5,0.56,0.48,0.55,0.55,0.48,0.48,0.58" style="fill:rgb(0,0,0);font-family:URWPalladioL-Roma;font-size:9.96px;stroke:none;">animal fats, solid or semi-solid at room temperature, such as butter, lard or tallow: they have been</text>
   <text y="647.898" x="76.535,81.963,85.82,90.702,96.667,102.554,107.436,110.277,113.118,118.6956,120.704,125.381,128.222,131.063,139.684,142.525,148.208,153.089,156.272,160.949,167.02460000000002,169.062,174.393,178.377,180.407,184.547,190.434,195.833,199.973,203.156,205.997,209.18,215.067,218.25,222.927,229.0026,231.05,234.301,239.632,243.616,245.636,248.819,254.501,259.178,262.019,266.003,268.033,273.921,279.603,282.854,287.736,293.252,298.583,304.47,308.327,313.208,318.608,321.449,326.2298,328.273,333.956,338.632,343.514,346.355,349.538,355.3148,357.378,361.713,367.044,372.726,376.865,381.542,387.01,392.897,397.573,403.256,407.591,412.267,416.407,418.897,421.113,424.364,429.246,432.5328,434.655,438.794,443.676,446.859,452.746,456.603,461.484,464.667,469.344,475.4196,477.457,482.974,487.65,493.079,497.755,500.938,505.82,511.219,514.06" svgx:width="0.56,0.4,0.5,0.61,0.6,0.5,0.29,0.29,0.56,0.55,0.48,0.29,0.29,0.88,0.29,0.58,0.5,0.33,0.48,0.61,0.55,0.55,0.4,0.55,0.42,0.6,0.55,0.42,0.33,0.29,0.33,0.6,0.33,0.48,0.61,0.55,0.33,0.55,0.4,0.55,0.33,0.58,0.48,0.29,0.4,0.55,0.6,0.58,0.33,0.5,0.56,0.55,0.6,0.4,0.5,0.55,0.29,0.48,0.55,0.58,0.48,0.5,0.29,0.33,0.58,0.55,0.44,0.55,0.58,0.42,0.48,0.56,0.6,0.48,0.58,0.44,0.48,0.42,0.25,0.55,0.33,0.5,0.33,0.55,0.42,0.5,0.33,0.6,0.4,0.5,0.33,0.48,0.61,0.55,0.56,0.48,0.56,0.48,0.33,0.5,0.55,0.29,0.48" style="fill:rgb(0,0,0);font-family:URWPalladioL-Roma;font-size:9.96px;stroke:none;">gradually eliminated or substituted for their unfavourable health consequences; (2) saturated vegetable</text>
   <text y="661.407" x="76.535,79.786,84.668,87.851,91.99,94.47999999999999,96.813,100.953,106.284,109.125,111.966,118.04159999999999,120.285,125.166,128.4528,130.692,134.373,139.704,145.035,156.009,159.192,163.868,172.489,178.357,183.034,186.89,191.772,194.955,200.842,204.513,209.19,211.68,214.013,218.152,224.04,228.375,234.1518,236.41,241.292,245.4752,247.784,252.119,257.45,261.785,267.116,272.096,274.35,279.749,285.637,288.82,292.002,296.679,300.66299999999995,302.879,306.13,309.313,314.995,319.7758,322.025,330.646,335.977,340.116,343.4028,345.652,350.329,355.367,361.234,365.911,371.593,375.733,378.574,384.09,388.8708,391.12,394.371,399.253,402.436,405.687,408.177,410.5,414.835,420.166,424.501,429.832,435.514,441.401,444.68780000000004,446.937,451.819,457.501,463.5766,465.819,471.687,476.569,479.41,490.384,495.812,500.489,504.345,510.028,514.704,517.546" svgx:width="0.33,0.5,0.33,0.42,0.25,0.55,0.42,0.55,0.29,0.29,0.61,0.55,0.5,0.33,0.55,0.4,0.55,0.55,0.88,0.33,0.48,0.88,0.6,0.48,0.4,0.5,0.33,0.6,0.4,0.48,0.25,0.55,0.42,0.6,0.44,0.58,0.55,0.5,0.42,0.55,0.44,0.55,0.44,0.55,0.5,0.55,0.55,0.6,0.33,0.33,0.48,0.4,0.55,0.33,0.33,0.58,0.48,0.55,0.88,0.55,0.42,0.33,0.55,0.48,0.52,0.6,0.48,0.58,0.42,0.29,0.56,0.48,0.55,0.33,0.5,0.33,0.33,0.25,0.55,0.44,0.55,0.44,0.55,0.58,0.6,0.33,0.55,0.5,0.58,0.61,0.55,0.6,0.5,0.29,0.88,0.56,0.48,0.4,0.58,0.48,0.29,0.25" style="fill:rgb(0,0,0);font-family:URWPalladioL-Roma;font-size:9.96px;stroke:none;">fats, solid at roomtemperature, such as cocoa butter (the most expensive fat), coconut and palmkernel:</text>
   <text y="674.917" x="76.535,79.773,85.554,90.312,93.202,97.18599999999999,99.629,105.618,109.829,114.60979999999999,117.09,119.981,124.1642,126.695,129.586,132.476,141.247,144.137,147.375,152.133,158.20860000000002,160.715,166.138,174.422,177.312,183.093,188.67059999999998,191.119,194.357,199.835,202.283,205.521,211.302,216.06,218.95,222.934,225.377,229.787,235.21,239.133,242.878,247.636,250.526,255.493,258.731,261.621,267.044,272.82079999999996,275.328,283.612,286.503,289.741,295.51779999999997,298.024,300.915,306.696,311.106,314.85,319.608,324.575,328.786,333.544,339.6196,342.116,348.085,350.976,355.942,360.154,368.924,373.891,377.129,380.019,384.4014,386.932,389.823,395.246,403.53,406.837,412.906,417.664,423.445,427.656,430.547,433.785,439.36260000000004,441.81,444.701,447.591,453.561,458.984,464.954,468.698,474.122,477.36,482.117,485.008,490.78479999999996,493.292,496.599,502.668,510.356,516.425" svgx:width="0.33,0.58,0.48,0.29,0.4,0.55,0.6,0.42,0.48,0.55,0.29,0.42,0.55,0.29,0.29,0.88,0.29,0.33,0.48,0.61,0.55,0.55,0.83,0.29,0.58,0.56,0.55,0.33,0.55,0.55,0.33,0.58,0.48,0.29,0.4,0.55,0.44,0.55,0.4,0.4,0.48,0.29,0.5,0.33,0.29,0.55,0.58,0.55,0.83,0.29,0.33,0.58,0.55,0.29,0.58,0.44,0.4,0.48,0.5,0.42,0.48,0.61,0.55,0.6,0.29,0.5,0.42,0.88,0.5,0.33,0.29,0.44,0.55,0.29,0.55,0.83,0.33,0.61,0.48,0.58,0.42,0.29,0.33,0.56,0.55,0.29,0.29,0.6,0.55,0.6,0.4,0.55,0.33,0.48,0.29,0.58,0.55,0.33,0.61,0.77,0.61,0.33" style="fill:rgb(0,0,0);font-family:URWPalladioL-Roma;font-size:9.96px;stroke:none;">their use is limited owing to their correlation with increased plasmatic low-density lipoprotein (LDL)</text>
   <text y="688.426" x="76.535,81.047,86.961,92.509,95.467,100.334,104.643,107.955,112.823,116.654,122.202,125.0904,128.828,131.785,136.653,142.394,147.261,150.219,154.527,157.017,161.305,164.689,169.77,173.0568,176.822,182.371,185.683,191.598,196.465,200.449,204.137,209.879,214.746,220.396,225.264,228.577,233.658,239.277,242.234,247.0148,250.76,256.308,259.265,262.222,266.531,269.021,273.025,277.038,279.996,284.507,290.2838,294.08,297.037,302.81379999999996,306.62,315.592,321.141,327.055,332.603,338.761,344.869,350.417,353.374,359.024,365.152,371.066,375.375,380.456,383.768,389.896,393.91,398.991,402.304,407.171,413.2466,417.038,420.422,425.503,428.816,432.9992,436.783,441.864,447.778,453.85360000000003,457.645,463.823,469.951,472.908,478.9836,482.785,487.866,491.1528,494.837,498.668,504.217,509.765" svgx:width="0.44,0.58,0.55,0.29,0.48,0.42,0.33,0.48,0.4,0.55,0.29,0.55,0.29,0.48,0.56,0.48,0.29,0.42,0.25,0.55,0.33,0.5,0.33,0.55,0.55,0.33,0.58,0.48,0.4,0.55,0.56,0.48,0.56,0.48,0.33,0.5,0.55,0.29,0.48,0.55,0.55,0.29,0.29,0.42,0.25,0.55,0.4,0.29,0.44,0.58,0.55,0.29,0.58,0.55,0.88,0.55,0.58,0.55,0.61,0.6,0.55,0.29,0.56,0.6,0.58,0.42,0.5,0.33,0.6,0.4,0.5,0.33,0.48,0.61,0.55,0.33,0.5,0.33,0.42,0.55,0.5,0.58,0.61,0.55,0.61,0.6,0.29,0.61,0.55,0.5,0.33,0.55,0.4,0.55,0.55,0.88" style="fill:rgb(0,0,0);font-family:URWPalladioL-Roma;font-size:9.96px;stroke:none;">cholesterol levels; (3) other vegetable oils, rich in mono/polyunsaturated fats and ﬂuid at room</text>
   <text y="701.935" x="76.535,79.793,84.579,93.402,99.408,104.194,108.141,113.137,116.395,122.421,126.188,130.974,133.464,135.95,139.278,143.045,148.501,159.792,163.12,166.987,173.012,175.92,179.178,183.3612,185.893,189.22,194.676,197.584,200.492,206.138,210.924,215.161,218.488,220.978,223.465,227.701,232.488,237.274,243.38,247.5632,250.085,253.412,257.649,263.674,269.49,275.565,281.021,289.355,294.141,298.089,302.325,305.653,308.14300000000003,310.629,313.537,318.323,323.879,329.905,338.728,343.514,347.6972,350.219,353.547,359.552,364.339,369.335,375.151,381.176,384.434,388.67,391.16,393.647,397.883,403.339,408.9166,411.373,416.37,422.185,428.2606,430.759,435.545,439.782,445.788,450.574,455.011,457.918,462.915,465.822,468.73,474.30760000000004,476.754,480.701,485.697,491.703,496.489,500.726,505.513,510.299,516.404" svgx:width="0.33,0.48,0.88,0.6,0.48,0.4,0.5,0.33,0.6,0.4,0.48,0.25,0.55,0.33,0.4,0.55,0.88,0.33,0.4,0.6,0.29,0.33,0.42,0.55,0.33,0.55,0.29,0.29,0.56,0.48,0.42,0.33,0.25,0.55,0.42,0.48,0.48,0.61,0.42,0.55,0.33,0.42,0.6,0.58,0.61,0.55,0.83,0.48,0.4,0.42,0.33,0.25,0.55,0.29,0.48,0.56,0.6,0.88,0.48,0.42,0.55,0.33,0.6,0.48,0.5,0.58,0.6,0.33,0.42,0.25,0.55,0.42,0.55,0.56,0.55,0.5,0.58,0.61,0.55,0.48,0.42,0.6,0.48,0.44,0.29,0.5,0.29,0.29,0.56,0.55,0.4,0.5,0.6,0.48,0.42,0.48,0.48,0.61,0.33" style="fill:rgb(0,0,0);font-family:URWPalladioL-Roma;font-size:9.96px;stroke:none;">temperature, fromfruits (olives), seeds (sunﬂowers), legumes (peanuts, soy and especially rapeseed)</text>
   <text y="715.445" x="76.535,81.551,87.39,93.4656,96.008,101.586,105.549,110.565,113.484,119.323,123.50619999999999,126.075,129.415,133.87,139.347,143.31,149.149,151.639,154.145,158.108,161.027,165.482,170.287,173.628,176.118,178.624,184.754,189.559,193.813,199.842,202.762,206.032,210.8128,213.326,216.596,222.435,227.241,230.16,234.144,236.611,242.45,248.499,251.77,255.733,258.652,261.923,264.842,270.32,276.158,281.175,284.0634,286.592,292.21,298.26,303.276,306.195,309.115,312.385,315.305,320.11,324.364,326.854,329.36,332.63,338.469,343.275,348.8526,351.341,356.357,360.139,364.9198,367.433,373.562,376.482,380.735,385.752,391.881,397.55,402.566,408.405,411.675,416.691,422.269,427.075,432.552,438.602,442.7852,445.354,448.273,454.0498,456.6,459.519,465.358,471.488,477.537,481.791,485.062,489.024,491.944,496.96,499.84839999999997,502.367,508.417,512.671,517.476" svgx:width="0.5,0.58,0.61,0.55,0.56,0.4,0.5,0.29,0.58,0.42,0.55,0.33,0.44,0.55,0.4,0.58,0.25,0.55,0.4,0.29,0.44,0.48,0.33,0.25,0.55,0.61,0.48,0.42,0.6,0.29,0.33,0.48,0.55,0.33,0.58,0.48,0.29,0.4,0.55,0.58,0.6,0.33,0.4,0.29,0.33,0.29,0.55,0.58,0.5,0.29,0.55,0.56,0.6,0.5,0.29,0.29,0.33,0.29,0.48,0.42,0.25,0.55,0.33,0.58,0.48,0.56,0.55,0.5,0.4,0.48,0.55,0.61,0.29,0.42,0.5,0.61,0.56,0.5,0.58,0.33,0.5,0.56,0.48,0.55,0.6,0.42,0.55,0.29,0.58,0.55,0.29,0.58,0.61,0.6,0.42,0.33,0.4,0.29,0.5,0.29,0.55,0.6,0.42,0.48,0.25" style="fill:rgb(0,0,0);font-family:URWPalladioL-Roma;font-size:9.96px;stroke:none;">and grains (corn, rice), despite their nutritional qualities, they are disadvantageous in industrial use,</text>
   <text y="728.954" x="76.535,81.975,90.283,93.183,98.981,104.5586,107.011,110.258,115.73599999999999,118.189,123.698,129.138,132.385,138.1618,140.674,143.922,149.72,154.492,157.391,161.375,163.817,168.241,173.68,177.904,181.152,185.3352,187.867,192.848,198.647,204.7226,207.224,210.472,216.27,221.042,223.942,227.92600000000002,230.367,233.267,236.166,244.963,247.862,251.11,255.882,261.9576,264.459,268.684,274.482,279.254,282.153,285.43980000000005,287.961,290.86,293.759,297.077,301.849" svgx:width="0.55,0.83,0.29,0.58,0.56,0.55,0.33,0.55,0.55,0.55,0.55,0.33,0.58,0.55,0.33,0.58,0.48,0.29,0.4,0.55,0.44,0.55,0.42,0.33,0.42,0.55,0.5,0.58,0.61,0.55,0.33,0.58,0.48,0.29,0.4,0.55,0.29,0.29,0.88,0.29,0.33,0.48,0.61,0.55,0.42,0.58,0.48,0.29,0.33,0.55,0.29,0.29,0.33,0.48,0.25" style="fill:rgb(0,0,0);font-family:URWPalladioL-Roma;font-size:9.96px;stroke:none;">owing to both their costs and their limited shelf life.</text>
   <text y="742.464" x="97.795,101.085,106.86179999999999,109.238,113.573,118.903,124.586,128.921,131.762,137.649,141.789,144.63,149.961,155.643,158.133,160.554,163.737,169.419,174.1998,176.566,180.705,186.593,191.992,196.131,199.314,202.155,205.338,211.226,214.408,217.25,222.58,228.35680000000002,230.733,236.064,239.3508,241.785,245.924,250.806,253.989,259.876,263.733,268.615,271.797,276.474,282.5496,284.91,288.161,293.042,296.225,300.4082,302.835,310.978,313.819,317.002,322.7788,325.154,331.041,336.724,340.863,345.745,348.928,354.815,358.672,363.553,366.736,371.413,377.4886,379.848,385.179,390.861,395.538,399.7212,402.148,406.473,411.804,417.691,420.532,426.6076,428.968,434.367,439.1478,441.514,444.765,449.647,455.163,460.494,466.381,470.237,475.119,480.518,483.359,488.1398,490.506,493.757,497.438,502.769,513.86" svgx:width="0.34,0.58,0.55,0.44,0.55,0.58,0.44,0.29,0.6,0.42,0.29,0.55,0.58,0.25,0.55,0.33,0.58,0.48,0.55,0.42,0.6,0.55,0.42,0.33,0.29,0.33,0.6,0.33,0.29,0.55,0.58,0.55,0.55,0.33,0.55,0.42,0.5,0.33,0.6,0.4,0.5,0.33,0.48,0.61,0.55,0.33,0.5,0.33,0.42,0.55,0.83,0.29,0.33,0.58,0.55,0.6,0.58,0.42,0.5,0.33,0.6,0.4,0.5,0.33,0.48,0.61,0.55,0.55,0.58,0.48,0.42,0.55,0.44,0.55,0.6,0.29,0.61,0.55,0.55,0.48,0.55,0.33,0.5,0.56,0.55,0.6,0.4,0.5,0.55,0.29,0.48,0.55,0.33,0.4,0.55,0.88,0.5" style="fill:rgb(0,0,0);font-family:URWPalladioL-Roma;font-size:9.96px;stroke:none;">In conclusion, the substitution of saturated fats with unsaturated ones could be favourable froma</text>
   <text y="755.973" x="76.535,82.449,88.577,91.89,95.903,98.861,102.173,105.13,110.679,116.593,121.674,124.56240000000001,127.375,133.116,136.073,140.941,149.416,155.523,161.071,164.029,169.943,173.245,175.735,178.59,184.21,190.338,193.6248,196.394,199.351,202.6378,205.397,208.355,214.269,220.01,225.559,228.516,234.257,239.125,243.3082,246.177,252.386,257.253,261.765,265.596,270.464,275.545,279.853,284.721,288.9042,291.773,294.73,300.5068,303.378,307.89,311.833,317.96,323.874,328.386,334.3,337.258,343.172,348.029,352.338,356.646,359.136,361.991,368.099,373.18,376.137,381.218,384.53,389.611,395.231,398.188,401.145,404.102,407.415,412.99260000000004,415.809,420.89,426.804,432.8796,435.746,440.055,445.603,454.576,459.3568,462.187,468.295,472.126,476.993,481.302,486.169,490.183,495.925,501.006,504.318,507.275,512.824" svgx:width="0.58,0.6,0.33,0.4,0.29,0.33,0.29,0.55,0.58,0.5,0.29,0.55,0.56,0.29,0.48,0.83,0.6,0.55,0.29,0.58,0.33,0.25,0.55,0.55,0.6,0.33,0.55,0.29,0.33,0.55,0.29,0.58,0.56,0.55,0.29,0.56,0.48,0.42,0.55,0.61,0.48,0.44,0.4,0.48,0.5,0.42,0.48,0.42,0.55,0.29,0.58,0.55,0.44,0.4,0.6,0.58,0.44,0.58,0.29,0.58,0.48,0.42,0.42,0.25,0.55,0.6,0.5,0.29,0.5,0.33,0.5,0.55,0.29,0.29,0.29,0.33,0.56,0.55,0.5,0.58,0.61,0.55,0.42,0.55,0.88,0.48,0.55,0.6,0.4,0.48,0.42,0.48,0.4,0.56,0.5,0.33,0.29,0.55,0.58" style="fill:rgb(0,0,0);font-family:URWPalladioL-Roma;font-size:9.96px;stroke:none;">nutritional viewpoint, but it involves decreases in crunchiness, palatability and some preservation</text>
   <text y="769.482" x="76.236,82.343,86.174,91.723,97.83,102.697,106.711,110.024,112.981,117.849,122.157,124.64699999999999,127.269,131.781,136.862,142.989,147.298,150.255,156.169,161.7466,164.38,169.35999999999999,172.011,176.32,181.188,185.202,188.159,193.026,197.2092,199.885,205.434,208.7208,211.378,217.587,220.544,224.853,229.934,236.143,241.884,246.965,252.879,256.192,261.273,266.923,271.791,276.099,278.589,281.211,286.078,290.387,296.494,301.362,305.874,308.831,313.912,316.869,319.826,325.40360000000004,328.026,330.983,336.7598,339.448,342.761,348.675,353.4558,356.104,362.211,366.042,370.909,377.017,382.098,386.112,391.192,394.505,397.462,403.011,408.7878,411.475,417.024,420.31080000000003,422.969,428.588,433.669,439.319,444.187,448.2,453.7776,456.401,462.508,466.339,471.888,478.097,484.224,488.736,492.049,496.357,498.84700000000004,502.18,505.605,508.89180000000005,511.478,514.435" svgx:width="0.6,0.4,0.55,0.6,0.48,0.4,0.33,0.29,0.48,0.42,0.25,0.55,0.44,0.5,0.6,0.42,0.29,0.58,0.56,0.55,0.5,0.55,0.42,0.48,0.4,0.29,0.48,0.42,0.55,0.55,0.33,0.55,0.61,0.29,0.42,0.5,0.61,0.56,0.5,0.58,0.33,0.5,0.56,0.48,0.42,0.25,0.55,0.48,0.42,0.6,0.48,0.44,0.29,0.5,0.29,0.29,0.56,0.55,0.29,0.58,0.55,0.33,0.58,0.48,0.55,0.6,0.4,0.48,0.6,0.5,0.4,0.5,0.33,0.29,0.55,0.58,0.55,0.55,0.33,0.55,0.55,0.5,0.56,0.48,0.4,0.56,0.55,0.6,0.4,0.55,0.61,0.6,0.44,0.33,0.42,0.25,0.55,0.34,0.33,0.55,0.29,0.42" style="fill:rgb(0,0,0);font-family:URWPalladioL-Roma;font-size:9.96px;stroke:none;">properties, causing a series of disadvantages, especially in the preparation of bakery products. It is</text>
  </g>
 </g>
</svg>
