<?xml version="1.0" encoding="UTF-8"?>
<svg height="764.987" width="530.458" xmlns="http://www.w3.org/2000/svg">
 <g id="page" xmlns:svgx="http://www.xml-cml.org/schema/svgx">
  <g begin="text">
   <text y="62.979" x="76.535,79.189,83.62,86.274,88.26650000000001,90.738,93.392,95.3845,97.377,102.247,106.678,110.663,112.879,115.836,119.374,123.806,125.7985,128.269,133.585,136.685,139.786,141.7785,144.249,149.119,153.55,157.24,159.456,161.672,164.9397,166.908,173.109,176.209,179.748,181.964,184.618" svgx:width="0.33,0.56,0.33,0.25,0.55,0.33,0.25,0.55,0.61,0.56,0.5,0.28,0.39,0.44,0.56,0.25,0.55,0.67,0.39,0.39,0.25,0.55,0.61,0.56,0.46,0.28,0.28,0.41,0.55,0.78,0.39,0.44,0.28,0.33,0.5" style="fill:rgb(0,0,0);font-family:URWPalladioL-Ital;font-size:7.97px;stroke:none;">Int. J. Environ. Res. Public Health</text>
   <text y="62.979" x="190.594,194.579,198.564,202.549" svgx:width="0.5,0.5,0.5,0.5" style="fill:rgb(0,0,0);font-family:URWPalladioL-Bold;font-size:7.97px;stroke:none;">2018</text>
   <text y="62.979" x="206.534" svgx:width="0.25" style="fill:rgb(0,0,0);font-family:URWPalladioL-Roma;font-size:7.97px;stroke:none;">,</text>
   <text y="62.979" x="210.52,214.505" svgx:width="0.5,0.5" style="fill:rgb(0,0,0);font-family:URWPalladioL-Ital;font-size:7.97px;stroke:none;">15</text>
   <text y="62.979" x="218.49,220.48250000000002,222.475,226.46,230.445,234.43,495.794,499.779,501.772,506.123,508.7531,510.77,514.755" svgx:width="0.25,0.55,0.5,0.5,0.5,0.55,0.5,0.55,0.55,0.33,0.55,0.5,0.5" style="fill:rgb(0,0,0);font-family:URWPalladioL-Roma;font-size:7.97px;stroke:none;">, 651 6 of 10</text>
   <text y="97.848" x="76.535,79.809,85.28699999999999,87.782,92.593,95.515,100.325,105.999,111.02,114.294,119.104,125.1796,127.731,131.004,136.488,139.761,144.782,147.6704,150.195,154.654,160.499,165.982,168.904,173.714,177.972,181.246,186.056,189.842,195.325,198.21339999999998,200.748,205.769,211.614,217.6896,220.24,226.376,234.149,240.2246,242.775,247.234,253.079,258.562,261.484,266.294,270.552,273.826,278.636,282.422,287.905,290.79339999999996,293.318,296.24,301.051,306.725,311.535,314.457,318.715,321.205,324.319,332.674,338.157,346.532,351.343,357.016,361.827,365.05,367.54,370.061,373.335,379.18,383.9608,386.481,391.291,394.454,397.798,402.609,407.067,410.341,414.5242,417.09,422.573,425.8598,428.407,434.443,439.464,442.386,453.744,459.227,462.149,465.0374,467.562,473.045,478.8218,481.38,484.654,490.499,495.2798,497.799,500.722,503.644,509.679,512.602" svgx:width="0.33,0.55,0.55,0.48,0.29,0.48,0.56,0.5,0.33,0.48,0.61,0.55,0.33,0.55,0.33,0.5,0.29,0.55,0.44,0.58,0.55,0.29,0.48,0.42,0.33,0.48,0.4,0.55,0.29,0.55,0.5,0.58,0.61,0.55,0.61,0.77,0.61,0.55,0.44,0.58,0.55,0.29,0.48,0.42,0.33,0.48,0.4,0.55,0.29,0.55,0.29,0.48,0.56,0.48,0.29,0.42,0.25,0.55,0.83,0.55,0.83,0.48,0.56,0.48,0.4,0.25,0.55,0.33,0.58,0.48,0.55,0.48,0.33,0.33,0.48,0.44,0.33,0.42,0.55,0.55,0.33,0.55,0.6,0.5,0.29,0.88,0.55,0.29,0.29,0.55,0.55,0.58,0.55,0.33,0.58,0.48,0.55,0.29,0.29,0.6,0.29,0.61" style="fill:rgb(0,0,0);font-family:URWPalladioL-Roma;font-size:9.96px;stroke:none;">to elevated total cholesterol and LDL cholesterol levels. However, the effects of palmoil on the lipid</text>
   <text y="111.358" x="76.236,82.152,85.862,91.237,97.192,100.056,104.8368,107.251,111.966,120.658,125.372,129.083,134.556,139.3368,141.751,145.029,148.74,154.114,165.286,170.266,172.688,181.379,186.094,189.303,194.225,197.502,202.424,208.153,213.074,215.938,221.411,225.585,228.449,232.6322,235.103,240.477,243.7638,246.235,250.409,253.618,259.553,265.567,268.431,273.146,277.3292,279.8,285.174,290.95079999999996,293.383,296.592,302.321,307.1018,309.526,313.227,317.942,323.858,326.722,331.643,336.014,340.728,349.42,354.135,359.863,363.1498,365.563,370.927,374.21380000000005,376.695,382.611,387.532,390.396,401.568,406.943,409.807,412.6954,415.152,423.361,426.225,429.434,435.2108,437.643,446.334,451.709,457.437,462.812,466.089,472.025,477.754,481.927,486.849,490.057,495.993,499.881,504.802,508.011,512.726" svgx:width="0.6,0.4,0.55,0.61,0.29,0.48,0.55,0.48,0.88,0.48,0.4,0.56,0.48,0.55,0.33,0.4,0.55,0.88,0.5,0.55,0.88,0.48,0.33,0.5,0.33,0.5,0.58,0.5,0.29,0.56,0.42,0.29,0.42,0.55,0.55,0.33,0.55,0.42,0.33,0.6,0.61,0.29,0.48,0.42,0.55,0.55,0.58,0.55,0.33,0.58,0.48,0.55,0.4,0.48,0.6,0.29,0.5,0.44,0.48,0.88,0.48,0.58,0.33,0.55,0.55,0.33,0.55,0.6,0.5,0.29,0.88,0.55,0.29,0.29,0.55,0.83,0.29,0.33,0.58,0.55,0.88,0.55,0.58,0.55,0.33,0.6,0.58,0.42,0.5,0.33,0.6,0.4,0.5,0.33,0.48,0.61" style="fill:rgb(0,0,0);font-family:URWPalladioL-Roma;font-size:9.96px;stroke:none;">proﬁle emerge froma meta-analysis of studies on the replacement of palmoil with mono-unsaturated</text>
   <text y="124.867" x="76.535,79.809,84.726,87.932,91.137,96.7146,99.102,104.018,108.384,111.246,117.254,121.423,123.913,126.379,132.289,137.657,140.519,145.986,151.915,157.638,161.808,166.724,169.93,175.859,179.743,184.66,187.865,192.575,198.6506,201.071,204.345,209.262,212.468,216.637,219.127,221.593,230.275,235.743,239.627,242.488,246.657,249.863,252.724,257.1064,259.588,264.504,270.227,276.3026,278.733,281.594,286.511,292.44,296.324,299.186,303.5684,306.039,310.956,315.322,318.183,324.2586,326.689,332.057,336.041,338.439,341.645,345.529,350.445,356.168,360.337,363.612,369.541,375.264,379.433,384.35,387.555,393.485,397.369,402.285,405.491,410.201,416.27660000000003,418.697,421.971,426.888,430.093,434.263,436.753,439.818,443.987,449.917,454.283,460.0598,462.503,466.672,472.602,478.039,482.209,485.414,488.276,491.481,497.411,500.616,503.478,508.846,514.569" svgx:width="0.33,0.5,0.33,0.33,0.56,0.55,0.5,0.44,0.29,0.61,0.42,0.25,0.55,0.6,0.55,0.29,0.56,0.6,0.58,0.42,0.5,0.33,0.6,0.4,0.5,0.33,0.48,0.61,0.55,0.33,0.5,0.33,0.42,0.25,0.55,0.88,0.56,0.4,0.29,0.42,0.33,0.29,0.44,0.55,0.5,0.58,0.61,0.55,0.29,0.5,0.6,0.4,0.29,0.44,0.55,0.5,0.44,0.29,0.61,0.55,0.55,0.4,0.55,0.33,0.4,0.5,0.58,0.42,0.33,0.6,0.58,0.42,0.5,0.33,0.6,0.4,0.5,0.33,0.48,0.61,0.55,0.33,0.5,0.33,0.42,0.25,0.55,0.42,0.6,0.44,0.58,0.55,0.42,0.6,0.55,0.42,0.33,0.29,0.33,0.6,0.33,0.29,0.55,0.58,0.42" style="fill:rgb(0,0,0);font-family:URWPalladioL-Roma;font-size:9.96px;stroke:none;">fatty acids, polyunsaturated fats, myristic and lauric acid or trans-unsaturated fats: such substitutions</text>
   <text y="138.377" x="76.535,82.677,88.155,90.648,96.499,101.987,105.2738,107.747,110.672,116.523,122.665,128.726,133.19,137.9708,140.488,146.167,151.193,155.164,158.089,163.115,166.392,169.317,174.806,180.656,184.8392,187.401,190.327,196.1038,198.66,201.937,207.787,212.5678,215.085,221.227,229.008,235.15,241.241,249.605,257.385,263.4606,266.01,269.981,275.007,278.284,281.209,286.687,289.181" svgx:width="0.61,0.55,0.55,0.58,0.55,0.33,0.55,0.29,0.58,0.61,0.6,0.44,0.48,0.55,0.56,0.5,0.4,0.29,0.5,0.33,0.29,0.55,0.58,0.42,0.55,0.29,0.58,0.55,0.33,0.58,0.48,0.55,0.61,0.77,0.61,0.61,0.83,0.77,0.61,0.55,0.4,0.5,0.33,0.29,0.55,0.55,0.33" style="fill:rgb(0,0,0);font-family:URWPalladioL-Roma;font-size:9.96px;stroke:none;">do not induce variations in the LDL/HDL ratio [</text>
   <text y="138.377" x="292.525,297.506" svgx:width="0.5,0.5" style="fill:rgb(8,117,183);font-family:URWPalladioL-Roma;font-size:9.96px;stroke:none;">31</text>
   <text y="138.377" x="302.488,305.835,308.325,311.435,317.597,323.447,328.2278,330.745,335.56,338.726,342.074,346.889,351.352,354.6388,357.112,362.601,365.8878,368.431,374.472,379.498,382.424,393.783,399.271,402.196,405.0844,407.605,413.093,418.8698,421.426,427.568,435.349,441.4246,443.974,448.437,454.287,459.776,462.701,467.516,471.778,475.055,479.87,483.66,489.148,492.074,497.1,501.915,510.791,513.716" svgx:width="0.33,0.25,0.55,0.61,0.58,0.48,0.55,0.48,0.33,0.33,0.48,0.44,0.33,0.55,0.55,0.33,0.55,0.6,0.5,0.29,0.88,0.55,0.29,0.29,0.55,0.55,0.58,0.55,0.61,0.77,0.61,0.55,0.44,0.58,0.55,0.29,0.48,0.42,0.33,0.48,0.4,0.55,0.29,0.5,0.48,0.88,0.29,0.5" style="fill:rgb(0,0,0);font-family:URWPalladioL-Roma;font-size:9.96px;stroke:none;">]. The effect of palmoil on LDL cholesterolaemia</text>
   <text y="151.886" x="76.535,80.844,85.711,90.579,99.552,103.7352,106.614,109.927,115.405,118.219,123.838,128.6188,131.46,135.972,141.52,147.434,151.743,154.7,160.909,165.776,169.79,174.871,180.491,183.448,189.0256,191.852,194.809,199.676,203.985,208.1682,211.037,214.35,220.264,225.345,231.1218,234.013,238.881,244.124,250.232,255.099,259.611,262.924,267.791,273.8666,276.754" svgx:width="0.42,0.48,0.48,0.88,0.42,0.55,0.33,0.55,0.55,0.55,0.48,0.55,0.44,0.55,0.58,0.42,0.29,0.61,0.48,0.4,0.5,0.55,0.29,0.56,0.55,0.29,0.48,0.42,0.42,0.55,0.33,0.58,0.5,0.58,0.55,0.48,0.52,0.6,0.48,0.44,0.33,0.48,0.61,0.55,0.33" style="fill:rgb(0,0,0);font-family:URWPalladioL-Roma;font-size:9.96px;stroke:none;">seems to be considerably less than expected [</text>
   <text y="151.886" x="280.136,285.117" svgx:width="0.5,0.5" style="fill:rgb(8,117,183);font-family:URWPalladioL-Roma;font-size:9.96px;stroke:none;">32</text>
   <text y="151.886" x="290.099,293.483,295.973,299.895,303.32,309.0968,311.977,316.489,322.038,327.952,332.464,335.421,341.548,345.857,348.814,354.363,360.277,362.767,365.642,371.749,376.83,379.787,388.55179999999996,391.504,397.052,400.01,402.8984,405.721,411.929,417.478,422.345,426.5282,429.408,435.322,440.87,444.15680000000003,446.927,451.794,457.038,461.905,465.919,469.2058,471.986,476.295,479.252,484.902,490.816,493.773,499.921,504.433,509.514,515.428" svgx:width="0.33,0.25,0.55,0.34,0.58,0.55,0.44,0.55,0.58,0.44,0.29,0.6,0.42,0.29,0.55,0.58,0.25,0.55,0.6,0.5,0.29,0.88,0.55,0.55,0.29,0.29,0.55,0.61,0.55,0.48,0.42,0.55,0.58,0.55,0.33,0.55,0.48,0.52,0.48,0.4,0.33,0.55,0.42,0.29,0.56,0.58,0.29,0.61,0.44,0.5,0.58,0.33" style="fill:rgb(0,0,0);font-family:URWPalladioL-Roma;font-size:9.96px;stroke:none;">]. In conclusion, palm oil does not exert signiﬁcant</text>
   <text y="165.395" x="76.535,81.307,84.445,87.763,92.535,96.958,100.206,104.3892,106.921,112.361,118.1378,120.649,123.897,129.695,134.4758,136.958,139.857,142.756,148.744,151.643,157.7186,160.221,166.208,169.964,175.404,181.431,184.33,189.102,193.2852,195.817,201.257,204.5438,207.065,212.604,218.044,224.051,229.849,235.42659999999998,237.879,243.867,248.639,254.078,260.066,262.965,267.7458,270.228,275.667,279.65099999999995,282.093,287.533,290.81980000000004,293.341,299.329,304.101,309.54,315.528,318.427,323.2078,325.69,333.998,336.898,340.145,345.92179999999996,348.434,354.232,359.672,363.607,372.404,377.385,380.2734,382.775,387.199,392.997,398.436,401.336,406.108,410.332,413.58,418.352,422.108,427.547,430.446,435.428,440.2,448.997,451.896,456.877" svgx:width="0.48,0.33,0.33,0.48,0.44,0.33,0.42,0.55,0.55,0.58,0.55,0.33,0.58,0.48,0.55,0.29,0.29,0.6,0.29,0.61,0.55,0.6,0.4,0.55,0.61,0.29,0.48,0.42,0.55,0.55,0.33,0.55,0.56,0.55,0.6,0.58,0.56,0.55,0.6,0.48,0.55,0.6,0.29,0.48,0.55,0.55,0.4,0.55,0.55,0.33,0.55,0.6,0.48,0.55,0.6,0.29,0.48,0.55,0.83,0.29,0.33,0.58,0.55,0.58,0.55,0.4,0.88,0.5,0.29,0.55,0.44,0.58,0.55,0.29,0.48,0.42,0.33,0.48,0.4,0.55,0.29,0.5,0.48,0.88,0.29,0.5,0.25" style="fill:rgb(0,0,0);font-family:URWPalladioL-Roma;font-size:9.96px;stroke:none;">effects on the lipid proﬁles of young people or of people with normal cholesterolaemia.</text>
   <text y="188.608" x="76.535,81.516,84.007,88.988,91.478,94.567,101.212,105.636,109.511,113.207,117.083,119.852,124.276,127.593,130.363,134.786,140.326,144.2104,146.692,153.885,156.654,159.972,164.952,167.444,174.089,178.512,182.388,187.369,190.139,194.562,199.543,203.967,207.842,211.897,217.436,220.206,224.629,228.5134,230.995,238.746,241.516,245.391,249.267,253.69,257.565,261.441" svgx:width="0.5,0.25,0.5,0.25,0.55,0.67,0.44,0.39,0.39,0.39,0.28,0.44,0.33,0.28,0.44,0.56,0.39,0.55,0.72,0.28,0.33,0.5,0.55,0.67,0.44,0.39,0.5,0.28,0.44,0.5,0.44,0.39,0.41,0.56,0.28,0.44,0.39,0.55,0.78,0.28,0.39,0.39,0.44,0.39,0.39,0.39" style="fill:rgb(0,0,0);font-family:URWPalladioL-Ital;font-size:9.96px;stroke:none;">6.2. Correlations with Cardiovascular Diseases</text>
   <text y="208.095" x="97.795,104.024,109.938,114.7188,118.464,124.114,130.242,133.199,139.408,144.275,147.232,150.189,156.104,160.971,165.1542,168.938,173.247,179.374,185.024,190.674,195.542,199.85,203.1368,206.811,210.124,216.038,221.119,224.4058,228.09,232.399,237.48,240.793,246.92,250.934,256.015,259.328,264.195,270.2706,274.062,277.446,282.527,285.8138,289.498,294.01,299.559,305.473,309.781,315.909,324.882,330.989,334.302,337.259,342.807,348.5838,352.37,357.989,362.7698,366.515,370.356,375.224,379.532,382.845,386.859,389.816,394.328,397.641,402.508,408.5836,412.365,415.678,421.156,424.885,429.966,435.047,443.4134,447.241,452.789,456.0758,459.831,463.144,468.692,472.005,477.086,479.9744,483.702,488.213,493.294,496.251,501.8,505.814,508.771,513.638,517.947" svgx:width="0.61,0.58,0.48,0.55,0.56,0.6,0.29,0.61,0.48,0.29,0.29,0.58,0.48,0.42,0.55,0.42,0.6,0.56,0.56,0.48,0.42,0.33,0.55,0.33,0.58,0.5,0.33,0.55,0.42,0.5,0.33,0.6,0.4,0.5,0.33,0.48,0.61,0.55,0.33,0.5,0.33,0.55,0.44,0.55,0.58,0.42,0.6,0.88,0.6,0.33,0.29,0.55,0.58,0.55,0.55,0.48,0.55,0.4,0.48,0.42,0.33,0.4,0.29,0.44,0.33,0.48,0.61,0.55,0.33,0.55,0.55,0.5,0.5,0.84,0.55,0.55,0.33,0.55,0.33,0.55,0.33,0.5,0.29,0.55,0.44,0.5,0.29,0.55,0.4,0.29,0.48,0.42,0.25" style="fill:rgb(0,0,0);font-family:URWPalladioL-Roma;font-size:9.96px;stroke:none;">The guidelines suggest that saturated fat consumption be restricted to 10% of total calories.</text>
   <text y="221.605" x="76.535,84.691,90.044,98.22,102.915,108.454,113.15,116.287,118.777,121.238,124.433,130.139,134.835,138.53,143.3108,145.716,148.569,152.7522,155.225,160.931,166.40900000000002,168.783,172.94,177.292,180.145,184.841,190.546,193.742,196.595,202.526,206.9084,209.378,214.074,219.613,222.465,228.455,233.151,238.856,243.209,247.9898,250.405,253.6,259.306,264.207,267.4938,269.903,274.06,279.971,285.863,291.754,297.097,300.969,304.165,308.3482,310.822,314.017,319.723,324.5038,326.918,330.614,335.31,340.212,343.1004,345.564,350.985,355.681,361.387,366.082,372.013,375.209,379.3922,381.865,387.218,390.50480000000005,392.972,397.129,403.04,407.393,413.16979999999995,415.598,420.57800000000003,423.0,425.852,428.705,437.361,440.214,443.5008,445.91,449.174,454.527,458.51099999999997,460.899,464.095,469.8,474.5808,476.996,480.682,485.377,491.367,497.278,501.631,504.827,507.68,513.032" svgx:width="0.83,0.55,0.83,0.48,0.56,0.48,0.4,0.25,0.55,0.33,0.58,0.48,0.4,0.48,0.55,0.29,0.42,0.55,0.58,0.55,0.55,0.42,0.44,0.29,0.48,0.58,0.33,0.29,0.61,0.44,0.55,0.48,0.56,0.29,0.61,0.48,0.58,0.44,0.48,0.55,0.33,0.58,0.5,0.33,0.55,0.42,0.6,0.6,0.6,0.55,0.4,0.33,0.42,0.55,0.33,0.58,0.48,0.55,0.4,0.48,0.5,0.29,0.55,0.55,0.48,0.58,0.48,0.61,0.33,0.42,0.55,0.55,0.33,0.55,0.42,0.6,0.44,0.58,0.55,0.5,0.55,0.29,0.29,0.88,0.29,0.33,0.55,0.33,0.55,0.4,0.55,0.33,0.58,0.48,0.55,0.4,0.48,0.61,0.6,0.44,0.33,0.29,0.55,0.58" style="fill:rgb(0,0,0);font-family:URWPalladioL-Roma;font-size:9.96px;stroke:none;">However, there is no scientiﬁc evidence that supports the real beneﬁts of such a limit for the reduction</text>
   <text y="235.114" x="76.535,82.083,85.3698,88.983,93.495,98.576,102.417,108.626,111.583,117.132,122.873,127.954,132.263,136.764,142.892,145.849,150.93,154.91400000000002,158.47,164.679,167.636,171.945,176.812,181.893,186.202,190.9828,194.585,200.134,206.048,210.356,215.224,218.537,221.02700000000002,225.101,228.058,231.3448,234.897,237.854,242.0372,245.679,249.988,253.3,256.258,259.215,262.10339999999997,265.688,270.2,275.748,281.662,284.975,288.806,294.354,300.096,304.963,308.977,313.286,316.243,321.324,324.2124,327.797" svgx:width="0.55,0.33,0.55,0.44,0.5,0.4,0.61,0.29,0.55,0.56,0.5,0.42,0.44,0.6,0.29,0.5,0.4,0.55,0.61,0.29,0.42,0.48,0.5,0.42,0.48,0.55,0.55,0.58,0.42,0.48,0.33,0.25,0.55,0.29,0.33,0.55,0.29,0.42,0.55,0.42,0.33,0.29,0.29,0.29,0.55,0.44,0.55,0.58,0.33,0.4,0.55,0.56,0.48,0.4,0.42,0.29,0.5,0.29,0.55,0.33" style="fill:rgb(0,0,0);font-family:URWPalladioL-Roma;font-size:9.96px;stroke:none;">of cardiovascular disease onset; it is still controversial [</text>
   <text y="235.114" x="331.183,336.164" svgx:width="0.5,0.5" style="fill:rgb(8,117,183);font-family:URWPalladioL-Roma;font-size:9.96px;stroke:none;">33</text>
   <text y="235.114" x="341.146,344.53,347.02,353.239,361.0078,364.661,373.633,378.501,381.814,386.895,390.279,395.359,401.274,406.355,409.312,414.962,419.27,422.227,426.4102,430.052,433.365,439.279,444.36,447.64680000000004,451.189,454.573,460.121,464.633,470.76,475.069,479.937,486.0126,489.661,495.21,500.98679999999996,504.65,507.963,513.877" svgx:width="0.33,0.25,0.55,0.78,0.55,0.88,0.48,0.33,0.5,0.33,0.5,0.58,0.5,0.29,0.56,0.42,0.29,0.42,0.55,0.33,0.58,0.5,0.33,0.55,0.33,0.55,0.44,0.6,0.42,0.48,0.61,0.55,0.55,0.58,0.55,0.33,0.58,0.48" style="fill:rgb(0,0,0);font-family:URWPalladioL-Roma;font-size:9.96px;stroke:none;">]. A meta-analysis that focused on the</text>
   <text y="248.624" x="76.535,80.328,85.148,88.076,93.107,96.388,99.316,104.81,110.666,114.932,120.789,123.717,129.693,132.239,137.804,142.624,145.904,154.296,159.116,163.936,169.71280000000002,172.267,176.533,181.565,184.845,190.912,194.887,199.918,203.198,208.018,214.0936,216.652,220.002,225.033,228.314,232.4972,235.055,240.086,245.943,252.01860000000002,254.566,259.034,264.065,267.858,274.006,276.934,282.428,288.113,293.145,297.411,301.879,307.946,310.874,315.905,319.88899999999995,322.355,326.33,329.258,333.524,339.1016,341.594,347.742,350.67,356.7456,359.304,365.16,370.644,373.93080000000003,376.409,379.338,385.486,390.305,396.162,399.442,402.37,405.721,411.2986,413.791,418.822,424.678,430.2556,432.748,437.014,439.942,445.537,451.393,454.321,460.409,464.876,469.908,475.764,479.05080000000004,481.519,484.447,487.376,493.232,498.80960000000005,501.302" svgx:width="0.4,0.48,0.29,0.5,0.33,0.29,0.55,0.58,0.42,0.58,0.29,0.6,0.55,0.55,0.48,0.33,0.83,0.48,0.48,0.58,0.55,0.42,0.5,0.33,0.6,0.4,0.5,0.33,0.48,0.61,0.55,0.33,0.5,0.33,0.42,0.55,0.5,0.58,0.61,0.55,0.44,0.5,0.4,0.61,0.29,0.55,0.56,0.5,0.42,0.44,0.6,0.29,0.5,0.4,0.55,0.4,0.29,0.42,0.56,0.55,0.61,0.29,0.61,0.55,0.58,0.55,0.33,0.55,0.29,0.61,0.48,0.58,0.33,0.29,0.33,0.56,0.55,0.5,0.58,0.56,0.55,0.42,0.29,0.56,0.58,0.29,0.61,0.44,0.5,0.58,0.33,0.55,0.29,0.29,0.58,0.56,0.55,0.33" style="fill:rgb(0,0,0);font-family:URWPalladioL-Roma;font-size:9.96px;stroke:none;">relationship between saturated fats and cardiovascular risk did not identify any signiﬁcant link [</text>
   <text y="248.624" x="504.655,509.636" svgx:width="0.5,0.5" style="fill:rgb(8,117,183);font-family:URWPalladioL-Roma;font-size:9.96px;stroke:none;">34</text>
   <text y="248.624" x="514.617,517.968" svgx:width="0.33,0.25" style="fill:rgb(0,0,0);font-family:URWPalladioL-Roma;font-size:9.96px;stroke:none;">].</text>
   <text y="262.133" x="76.535,79.825,83.1118,85.42,94.041,99.928,104.068,107.3548,109.662,115.061,119.8418,122.14,126.475,131.805,137.488,141.627,144.468,150.434,155.11,158.791,163.468,169.5436,171.845,175.028,180.71,185.592,188.8788,191.186,195.521,200.403,204.074,210.039,212.88,218.211,223.727,228.609,232.749,237.084,242.971,245.812,250.694,254.678,256.962,262.927,265.768,269.908,274.585,279.466,283.606,288.3868,290.694,296.659,301.336,306.852,311.529,314.37,319.701,325.569,334.19,338.866,344.549,347.8358,350.143,352.984,357.1672,359.535,368.156,374.044,376.885,380.058,382.899,386.15,391.032,395.367,398.55,403.88,407.737,410.578,415.46,418.301,420.791,423.183,426.365,432.048,436.724,440.405,445.082,448.333,453.664,457.335,462.011,464.50100000000003,466.883,469.724,473.0108,475.319,478.16,482.3432,484.701,490.667,493.508,496.583,502.49,506.825,512.712,515.554" svgx:width="0.34,0.33,0.55,0.88,0.6,0.42,0.33,0.55,0.55,0.48,0.55,0.44,0.55,0.58,0.42,0.29,0.61,0.48,0.4,0.48,0.61,0.55,0.33,0.58,0.5,0.33,0.55,0.44,0.5,0.4,0.61,0.29,0.55,0.56,0.5,0.42,0.44,0.6,0.29,0.5,0.4,0.55,0.61,0.29,0.42,0.48,0.5,0.42,0.48,0.55,0.61,0.48,0.56,0.48,0.29,0.55,0.6,0.88,0.48,0.58,0.33,0.55,0.29,0.42,0.55,0.88,0.6,0.29,0.33,0.29,0.33,0.5,0.44,0.33,0.55,0.4,0.29,0.5,0.29,0.25,0.55,0.33,0.58,0.48,0.4,0.48,0.33,0.55,0.4,0.48,0.25,0.55,0.29,0.33,0.55,0.29,0.42,0.55,0.61,0.29,0.33,0.61,0.44,0.6,0.29,0.33" style="fill:rgb(0,0,0);font-family:URWPalladioL-Roma;font-size:9.96px;stroke:none;">It must be considered that cardiovascular disease development is multifactorial; therefore, it is difﬁcult</text>
   <text y="275.642" x="76.535,79.76,85.238,87.655,93.62,99.378,105.422,110.161,114.069,118.263,121.488,126.435,132.192,138.26760000000002,140.72,143.945,149.703,154.4838,156.934,160.664,165.403,170.349,173.23739999999998,175.721,179.45,184.852,187.731,192.5118,194.953,200.898,203.777,208.723,214.224,218.963,225.0386,227.5,232.971,238.5486,240.964,246.91,251.856,254.735,265.964,271.365,274.244,277.1324,279.606,284.552,287.431,292.832,298.59,303.329,305.819,308.889,314.389,320.354,324.262,327.487,333.245,337.983,341.967,344.384,348.579,351.804,357.769,363.814,366.693,371.431,375.6142,378.119,383.52,389.29679999999996,391.771,394.996,400.754,403.633,407.8162,410.31,416.256,421.657,424.882,429.621,435.379,438.604,441.483,446.429,449.31739999999996,451.801,455.709,458.587,462.782,468.3596,470.775,475.722,479.451,484.2318,486.673,492.431,497.17,501.908,507.953,512.691" svgx:width="0.33,0.55,0.55,0.6,0.58,0.61,0.48,0.4,0.42,0.33,0.5,0.58,0.61,0.55,0.33,0.58,0.48,0.55,0.4,0.48,0.5,0.29,0.55,0.4,0.55,0.29,0.48,0.55,0.6,0.29,0.5,0.56,0.48,0.61,0.55,0.55,0.56,0.55,0.6,0.5,0.29,0.88,0.55,0.29,0.29,0.55,0.5,0.29,0.55,0.58,0.48,0.25,0.55,0.56,0.6,0.4,0.33,0.58,0.48,0.4,0.55,0.42,0.33,0.6,0.61,0.29,0.48,0.42,0.55,0.55,0.58,0.55,0.33,0.58,0.29,0.42,0.55,0.6,0.55,0.33,0.48,0.58,0.33,0.29,0.5,0.29,0.55,0.4,0.29,0.42,0.56,0.55,0.5,0.4,0.48,0.55,0.58,0.48,0.48,0.61,0.48,0.61" style="fill:rgb(0,0,0);font-family:URWPalladioL-Roma;font-size:9.96px;stroke:none;">to understand the real role played by palmoil alone. Further studies on this potential risk are needed</text>
   <text y="289.152" x="76.535,82.044,86.816,90.134,95.574,99.329,104.10979999999999,106.592,112.679,116.615,121.596,129.905,132.804,138.602,144.1796,146.632,151.613,157.411,162.9886,165.441,169.865,175.304,181.102,185.526,188.425,194.432,198.657,201.556,206.995,212.793" svgx:width="0.55,0.48,0.33,0.55,0.4,0.48,0.55,0.61,0.4,0.5,0.83,0.29,0.58,0.56,0.55,0.5,0.58,0.56,0.55,0.44,0.55,0.58,0.44,0.29,0.6,0.42,0.29,0.55,0.58,0.25" style="fill:rgb(0,0,0);font-family:URWPalladioL-Roma;font-size:9.96px;stroke:none;">before drawing any conclusion.</text>
   <text y="312.365" x="76.535,81.516,84.007,88.988,91.478,94.567,102.318,107.857,111.912,116.336,119.105,123.529,128.51,131.279,135.334,139.758,142.54680000000002,145.018,151.663,154.433,158.308" svgx:width="0.5,0.25,0.5,0.25,0.55,0.78,0.56,0.41,0.44,0.28,0.44,0.5,0.28,0.41,0.44,0.28,0.55,0.67,0.28,0.39,0.44" style="fill:rgb(0,0,0);font-family:URWPalladioL-Ital;font-size:9.96px;stroke:none;">6.3. Oncological Risk</text>
   <text y="331.852" x="97.795,104.024,109.938,114.7188,117.499,120.456,129.429,135.536,138.493,141.45,145.962,151.043,154.356,157.313,162.861,168.776,172.9592,175.787,181.336,184.6228,187.412,193.52,198.601,201.558,210.3228,213.223,218.772,221.729,224.6174,227.379,233.506,237.815,242.5958,245.386,248.77,254.318,258.302,261.025,266.573,272.487,276.999,282.548,285.505,291.053,296.703,299.66,304.172,309.253,312.1414,314.903,318.917,321.874,326.183,331.7606,334.536,339.617,343.448,348.2288,351.008,356.922,362.47,365.75680000000006,368.486,376.961,381.829,384.786,387.6744,390.436,396.086,402.0,407.548,416.023,421.938,424.428,428.177,434.406,440.32,445.1008,447.891,452.403,457.951,463.865,468.174,474.302,483.275,489.382,492.695,495.652,501.2,506.97679999999997,509.807,515.356" svgx:width="0.61,0.58,0.48,0.55,0.29,0.88,0.6,0.29,0.29,0.44,0.5,0.33,0.29,0.55,0.58,0.42,0.55,0.55,0.33,0.55,0.6,0.5,0.29,0.88,0.55,0.55,0.29,0.29,0.55,0.6,0.42,0.48,0.55,0.33,0.55,0.4,0.55,0.55,0.58,0.44,0.55,0.29,0.55,0.56,0.29,0.44,0.5,0.29,0.55,0.4,0.29,0.42,0.56,0.55,0.5,0.4,0.48,0.55,0.58,0.55,0.33,0.55,0.83,0.48,0.29,0.29,0.55,0.56,0.58,0.55,0.83,0.58,0.25,0.55,0.61,0.58,0.48,0.55,0.44,0.55,0.58,0.42,0.6,0.88,0.6,0.33,0.29,0.55,0.58,0.55,0.55,0.33" style="fill:rgb(0,0,0);font-family:URWPalladioL-Roma;font-size:9.96px;stroke:none;">The implications of palm oil use for oncological risk are not well known. The consumption of</text>
   <text y="345.361" x="76.236,82.271,87.293,90.215,101.573,107.056,109.978,112.8664,115.401,121.537,127.02,131.83,136.0132,138.579,144.423,149.906,153.1928,155.671,161.515,166.536,172.21,176.9908,179.521,184.50099999999998,187.033,190.819,195.629,198.551,203.361,209.035,214.057,219.901,223.1878,225.665,228.588,237.455,243.491,248.512,252.97,256.2568,258.745,264.228,270.0048,272.563,275.837,281.681,286.4618,288.982,292.949,295.871,300.129,305.70660000000004,308.213,313.686,316.9728,319.531,323.99,329.011,334.855,339.314,344.124,348.108,350.581" svgx:width="0.6,0.5,0.29,0.88,0.55,0.29,0.29,0.55,0.61,0.55,0.48,0.42,0.55,0.58,0.55,0.33,0.55,0.58,0.5,0.56,0.48,0.55,0.5,0.55,0.4,0.48,0.29,0.48,0.56,0.5,0.58,0.33,0.55,0.29,0.88,0.6,0.5,0.44,0.33,0.55,0.55,0.58,0.55,0.33,0.58,0.48,0.55,0.4,0.29,0.42,0.56,0.55,0.55,0.33,0.55,0.44,0.5,0.58,0.44,0.48,0.4,0.55,0.33" style="fill:rgb(0,0,0);font-family:URWPalladioL-Roma;font-size:9.96px;stroke:none;">palmoil does not have a relevant impact on the risk of cancer [</text>
   <text y="345.361" x="353.927,358.908" svgx:width="0.5,0.5" style="fill:rgb(8,117,183);font-family:URWPalladioL-Roma;font-size:9.96px;stroke:none;">35</text>
   <text y="345.361" x="363.89,367.234,369.724,372.838,378.903,382.699,388.182,391.456,396.266,400.725,403.989,406.911,412.585,417.3658,419.896,424.706,427.87,431.214,436.024,440.483,443.756,447.93919999999997,450.505,453.427,459.2038,461.762,465.558,470.369,473.291,478.312,481.586,484.508,489.981,495.7578,498.326,506.702,509.624,512.898" svgx:width="0.33,0.25,0.55,0.6,0.4,0.55,0.33,0.48,0.44,0.33,0.29,0.56,0.48,0.55,0.48,0.33,0.33,0.48,0.44,0.33,0.42,0.55,0.29,0.58,0.55,0.4,0.48,0.29,0.5,0.33,0.29,0.55,0.58,0.55,0.83,0.29,0.33,0.58" style="fill:rgb(0,0,0);font-family:URWPalladioL-Roma;font-size:9.96px;stroke:none;">]. Protective effects in relation with</text>
   <text y="358.87" x="76.535,79.826,83.552,88.286,93.0668,95.52,99.424,104.365,110.404,113.28,117.668,122.609,125.485,129.6682,132.186,137.127,142.879,148.9546,151.418,156.359,162.111,165.333,168.209,171.5,174.376,180.128,186.136,191.078,199.804,208.531,213.472,216.694,222.09,225.994,231.5716,233.999,238.941,243.329,246.551,249.426,254.823,260.5998,263.075,268.016,271.742,276.5228,278.976,283.918,286.794,290.984,296.462,298.89,303.278,308.22,312.124,316.027,318.903,323.637,329.7126,332.176,337.572,343.531,346.81780000000003,349.263,354.729,360.3066,362.724,371.451,374.326,378.714,382.44,387.836,393.588,399.548,402.769,406.673,409.549,414.283,420.035,423.257,427.447,429.937,432.428,436.618,442.578,446.966,452.7428,455.218,460.159,464.3422,466.86,471.248,476.189,479.905,485.301,488.523,493.257,499.009,504.405,507.281,513.32,517.51" svgx:width="0.33,0.4,0.48,0.48,0.55,0.4,0.5,0.61,0.29,0.44,0.5,0.29,0.42,0.55,0.5,0.58,0.61,0.55,0.5,0.58,0.33,0.29,0.33,0.29,0.58,0.61,0.5,0.88,0.88,0.5,0.33,0.55,0.4,0.56,0.55,0.5,0.44,0.33,0.29,0.55,0.58,0.55,0.5,0.4,0.48,0.55,0.5,0.29,0.42,0.55,0.55,0.44,0.5,0.4,0.4,0.29,0.48,0.61,0.55,0.55,0.6,0.33,0.55,0.55,0.56,0.55,0.88,0.29,0.44,0.4,0.55,0.58,0.6,0.33,0.4,0.29,0.48,0.58,0.33,0.42,0.25,0.55,0.42,0.6,0.44,0.58,0.55,0.5,0.42,0.55,0.44,0.5,0.4,0.55,0.33,0.48,0.58,0.55,0.29,0.61,0.42,0.25" style="fill:rgb(0,0,0);font-family:URWPalladioL-Roma;font-size:9.96px;stroke:none;">free radicals and anti-inﬂammatory action are also carried out by micronutrients, such as carotenoids,</text>
   <text y="372.38" x="76.535,79.848,85.396,89.908,95.456,101.564,107.478,112.345,116.176,121.725,124.682,127.172,130.261,135.342,141.256,147.3316,150.381,153.694,159.242,163.754,169.303,172.615,176.629,179.586,184.454,190.368,195.916,198.874,203.182,205.672,208.751,217.226,223.14,226.097,230.609,236.38580000000002,239.45,244.531,248.362,253.1428,256.156,261.237,266.856,272.984,278.898,285.107,290.188,296.102,299.3888,302.331,305.288,311.0648,314.129,320.236,325.317,328.275,337.03979999999996,340.164,345.712,348.669,351.626,354.116,358.557,367.001,371.869,377.61,382.478,386.492,389.805,395.719,400.586,403.543,408.411,412.719,417.028,419.51800000000003,422.597,425.91,431.824,436.691,441.0,445.7808,448.784,453.296,458.844,467.817,473.924,479.473,485.6,491.514,497.723,501.9062,504.959,510.039,513.87" svgx:width="0.33,0.55,0.44,0.55,0.6,0.58,0.48,0.4,0.55,0.29,0.25,0.55,0.5,0.58,0.61,0.55,0.33,0.55,0.44,0.55,0.33,0.4,0.29,0.48,0.58,0.55,0.29,0.42,0.25,0.55,0.83,0.58,0.29,0.44,0.58,0.55,0.5,0.4,0.48,0.55,0.5,0.55,0.6,0.58,0.61,0.5,0.58,0.33,0.55,0.29,0.58,0.55,0.6,0.5,0.29,0.88,0.55,0.55,0.29,0.29,0.25,0.55,0.83,0.48,0.56,0.48,0.4,0.33,0.58,0.48,0.29,0.48,0.42,0.42,0.25,0.55,0.33,0.58,0.48,0.42,0.48,0.55,0.44,0.55,0.88,0.6,0.55,0.6,0.58,0.61,0.42,0.55,0.5,0.4,0.48" style="fill:rgb(0,0,0);font-family:URWPalladioL-Roma;font-size:9.96px;stroke:none;">tocopherol, and tocotrienols, which are abundant in palm oil. Nevertheless, these compounds are</text>
   <text y="385.889" x="76.535,81.616,87.235,91.544,96.412,102.326,105.6128,109.348,112.305,118.0818,121.928,125.241,131.155,135.9358,139.732,145.839,150.92,153.877,162.64180000000002,166.559,172.107,175.064,177.95239999999998,181.73,187.858,192.167,198.294,203.375,206.332,209.289,214.86659999999998,218.648,224.776,229.085,233.952,240.0276,243.87,246.827,252.6038,256.451,259.763,265.678,270.4588,274.254,277.638,283.186,288.735,294.8106,298.653,301.61,307.524,313.733,319.861,324.169,327.482,331.496,334.453,339.32,343.5032,347.338,350.295,356.0718,359.919,366.127,372.255,376.086,381.634,387.742,392.609,395.099,401.897,405.322,411.0988,414.945,419.457,425.005,430.919,435.431,438.388,444.516,448.824,451.782,457.33,463.244,465.73400000000004,469.799,473.111,479.025,483.893,487.724,492.5048,496.301,499.258,503.4412,507.275,513.19" svgx:width="0.5,0.55,0.42,0.48,0.58,0.33,0.55,0.29,0.58,0.55,0.33,0.58,0.48,0.55,0.6,0.5,0.29,0.88,0.55,0.55,0.29,0.29,0.55,0.6,0.42,0.6,0.5,0.29,0.29,0.56,0.55,0.6,0.42,0.48,0.61,0.55,0.29,0.58,0.55,0.33,0.58,0.48,0.55,0.33,0.55,0.55,0.61,0.55,0.29,0.58,0.61,0.6,0.42,0.33,0.4,0.29,0.48,0.42,0.55,0.29,0.58,0.55,0.61,0.6,0.4,0.55,0.6,0.48,0.25,0.55,0.34,0.58,0.55,0.44,0.55,0.58,0.44,0.29,0.6,0.42,0.29,0.55,0.58,0.25,0.55,0.33,0.58,0.48,0.4,0.48,0.55,0.29,0.42,0.55,0.58,0.55" style="fill:rgb(0,0,0);font-family:URWPalladioL-Roma;font-size:9.96px;stroke:none;">absent in the palm oil usually used in the food industries in Europe. In conclusion, there is no</text>
   <text y="399.399" x="76.535,81.283,86.884,89.769,95.825,100.574,106.343,110.744,115.5248,117.98,121.212,126.981,131.938,135.2248,137.657,141.86,145.092,150.048,155.817,161.874,166.831,170.558,176.6336,179.103,183.504,188.916,194.686,198.889,204.866,213.619,219.577,222.808,225.693,231.105,236.8818,239.362,244.775,248.0618,250.564,256.522,261.478,264.363,275.604,281.016,283.901,286.7894,289.263,292.148,297.9248,300.405,306.363,311.319,315.721,321.232,326.189,331.7,336.448,342.5236,344.993,348.294,353.706,359.119,365.176,369.3592,371.867,377.824,380.709,385.665,391.177,395.3602,397.868,402.848,405.302,409.04,413.788,416.672,421.421,427.021,431.978,437.747,441.03380000000004,443.467,447.204,452.616,455.501,460.2818,462.737,465.622,471.3988,473.879,476.764,482.533,486.934,490.671,495.42,500.376,504.579,507.464,513.233" svgx:width="0.48,0.56,0.29,0.61,0.48,0.58,0.44,0.48,0.55,0.33,0.58,0.5,0.33,0.55,0.42,0.33,0.5,0.58,0.61,0.5,0.4,0.61,0.55,0.44,0.55,0.58,0.42,0.6,0.88,0.6,0.33,0.29,0.55,0.58,0.55,0.55,0.33,0.55,0.6,0.5,0.29,0.88,0.55,0.29,0.29,0.55,0.29,0.58,0.55,0.6,0.5,0.44,0.56,0.5,0.56,0.48,0.61,0.55,0.33,0.55,0.55,0.61,0.42,0.55,0.6,0.29,0.5,0.56,0.42,0.55,0.5,0.55,0.4,0.48,0.29,0.48,0.56,0.5,0.58,0.33,0.55,0.4,0.55,0.29,0.48,0.55,0.29,0.58,0.55,0.29,0.58,0.44,0.4,0.48,0.5,0.42,0.29,0.58,0.56" style="fill:rgb(0,0,0);font-family:URWPalladioL-Roma;font-size:9.96px;stroke:none;">evidence that standard consumption of palmoil in packaged foods plays a relevant role in increasing</text>
   <text y="412.908" x="76.535,81.975,85.95899999999999,88.4,94.488,99.26,103.683,107.439,112.211,117.192,121.417,124.316,130.114,135.6916,138.144,141.392,147.19,151.9708,154.452,158.388,161.287,165.511,171.08859999999999,173.541,178.98,182.2668,184.789,189.212,194.193,199.991,204.415,209.187,212.385" svgx:width="0.55,0.4,0.55,0.61,0.48,0.44,0.4,0.48,0.5,0.42,0.29,0.58,0.56,0.55,0.33,0.58,0.48,0.55,0.4,0.29,0.42,0.56,0.55,0.55,0.33,0.55,0.44,0.5,0.58,0.44,0.48,0.4,0.25" style="fill:rgb(0,0,0);font-family:URWPalladioL-Roma;font-size:9.96px;stroke:none;">or decreasing the risk of cancer.</text>
   <text y="436.121" x="76.535,81.516,84.007,88.988,91.478,94.567,101.212,105.636,109.511,113.207,117.083,119.852,124.276,127.593,130.363,134.786,140.3636,142.816,150.009,152.779,156.096,161.076,163.568,171.319,175.932,179.807,183.683,186.452,189.77" svgx:width="0.5,0.25,0.5,0.25,0.55,0.67,0.44,0.39,0.39,0.39,0.28,0.44,0.33,0.28,0.44,0.56,0.55,0.72,0.28,0.33,0.5,0.55,0.78,0.46,0.39,0.39,0.28,0.33,0.5" style="fill:rgb(0,0,0);font-family:URWPalladioL-Ital;font-size:9.96px;stroke:none;">6.4. Correlation with Obesity</text>
   <text y="455.608" x="97.795,105.5638,108.17,112.011,116.879,121.391,126.258,132.173,135.4598,137.955,142.263,145.576,151.704,157.913,163.4906,166.042,169.426,175.635,179.059,185.197,193.184,200.938,208.844,212.268,220.713,223.9998,226.566" svgx:width="0.78,0.55,0.4,0.48,0.44,0.48,0.58,0.33,0.55,0.42,0.33,0.6,0.61,0.56,0.55,0.33,0.61,0.34,0.6,0.79,0.76,0.78,0.34,0.83,0.33,0.55,0.33" style="fill:rgb(0,0,0);font-family:URWPalladioL-Roma;font-size:9.96px;stroke:none;">A recent study (LIPOGAIN) [</text>
   <text y="455.608" x="229.949,234.93" svgx:width="0.5,0.5" style="fill:rgb(8,117,183);font-family:URWPalladioL-Roma;font-size:9.96px;stroke:none;">36</text>
   <text y="455.608" x="239.912" svgx:width="0.25" style="fill:rgb(0,0,0);font-family:URWPalladioL-Roma;font-size:9.96px;stroke:none;">,</text>
   <text y="455.608" x="242.452,247.433" svgx:width="0.5,0.5" style="fill:rgb(8,117,183);font-family:URWPalladioL-Roma;font-size:9.96px;stroke:none;">37</text>
   <text y="455.608" x="252.415,255.7018,258.268,262.78,268.328,274.243,280.452,286.579,291.091,294.404,299.271,305.3466,307.96,313.508,319.28479999999996,321.892,327.542,333.09,339.218,345.132,350.782,353.272,355.802,361.716,366.583,371.664,374.621,377.934,383.848,388.391,390.88100000000003,393.411,398.492,404.233,409.101,413.115,418.195,423.845,428.713,432.097,440.572,445.439,448.396,454.046,459.961,463.24780000000004,465.743,470.824,476.738,482.8136,485.426,489.735,492.692,495.649,501.299,507.213,510.526,513.483" svgx:width="0.33,0.55,0.44,0.55,0.58,0.61,0.6,0.44,0.33,0.48,0.61,0.55,0.55,0.58,0.55,0.56,0.55,0.6,0.58,0.56,0.25,0.55,0.58,0.48,0.5,0.29,0.33,0.58,0.56,0.25,0.55,0.5,0.56,0.48,0.4,0.5,0.56,0.48,0.33,0.83,0.48,0.29,0.56,0.58,0.33,0.55,0.5,0.58,0.61,0.55,0.42,0.29,0.29,0.56,0.58,0.33,0.29,0.56" style="fill:rgb(0,0,0);font-family:URWPalladioL-Roma;font-size:9.96px;stroke:none;">] conducted on young, healthy, average-weight and slightly</text>
   <text y="469.117" x="76.535,81.866,87.382,92.059,95.915,104.058,108.735,111.576,117.004,122.686,125.9728,128.183,132.323,138.21,143.609,145.894,150.57,154.905,158.088,162.2712,164.542,167.793,173.758,179.089,185.055,190.6326,192.797,201.418,206.3,210.439,214.6222,216.893,219.734,225.416,231.382,236.058,241.2372,243.41,246.661,252.627,261.863,265.153,268.43980000000005,270.718,275.6,280.482,285.363,290.245,295.225,297.441,302.869,308.297,314.214" svgx:width="0.55,0.56,0.48,0.4,0.83,0.48,0.29,0.56,0.58,0.33,0.55,0.42,0.6,0.55,0.23,0.48,0.44,0.33,0.42,0.55,0.33,0.61,0.55,0.61,0.56,0.55,0.88,0.5,0.42,0.42,0.55,0.29,0.58,0.61,0.48,0.52,0.55,0.33,0.61,0.95,0.34,0.33,0.55,0.5,0.5,0.5,0.5,0.5,0.55,0.56,0.56,0.61,0.88" style="fill:rgb(0,0,0);font-family:URWPalladioL-Roma;font-size:9.96px;stroke:none;">overweight subjects (Body mass index (BMI) 18–27 kg/m</text>
   <text y="465.501" x="322.839" svgx:width="0.5" style="fill:rgb(0,0,0);font-family:URWPalladioL-Roma;font-size:7.57px;stroke:none;">2</text>
   <text y="469.117" x="327.123,330.4098,332.688,338.37,341.211,346.64,352.322,355.163,358.004,363.433,369.115,372.298,376.4812,378.752,381.934,387.617,392.498,395.7848,397.995,401.178,406.86,411.6408,413.851,418.186,423.517,429.199,433.339,439.226,447.847,453.715,456.897,459.739,465.069,470.8458,473.066,478.396,481.68280000000004,483.961,489.927,494.603,498.743,502.883,507.559,511.416,514.599" svgx:width="0.33,0.55,0.58,0.29,0.56,0.58,0.29,0.29,0.56,0.58,0.33,0.42,0.55,0.33,0.58,0.5,0.33,0.55,0.33,0.58,0.48,0.55,0.44,0.55,0.58,0.42,0.6,0.88,0.6,0.33,0.29,0.55,0.58,0.55,0.55,0.33,0.55,0.61,0.48,0.42,0.42,0.48,0.4,0.33,0.42" style="fill:rgb(0,0,0);font-family:URWPalladioL-Roma;font-size:9.96px;stroke:none;">) highlights that the consumption of desserts</text>
   <text y="482.627" x="76.236,82.212,85.96,90.722,96.698,101.669,105.418,110.18,116.2556,118.731,127.023,129.916,133.158,138.9348,141.43,147.406,152.377,155.27,166.525,171.954,174.847,177.7354,180.226,184.641,189.612,195.608,199.824,204.586,208.7692,211.277,216.25699999999998,218.725,227.504,232.933,236.681,241.4618,243.929,248.901,252.142,257.929,262.691,266.439,271.868,277.396,282.159,287.946,290.839,295.2214,297.729,300.622,303.516,309.491,314.92,320.896,324.644,330.073,333.314,338.077,340.97,346.7468,349.232,355.208,358.956,364.385,370.4,373.294,378.056,380.546,383.027,388.007,390.474,396.549,401.978,407.974,413.472,416.365,419.259,425.045,430.62260000000003,433.059,438.488,441.7748,444.274,449.892,452.785,457.001,461.415,466.178,470.105,475.077,477.9654,480.456,483.767,488.738,492.0248,494.455,499.426,505.213,511.28860000000003,513.774" svgx:width="0.6,0.4,0.48,0.6,0.5,0.4,0.48,0.61,0.55,0.83,0.29,0.33,0.58,0.55,0.6,0.5,0.29,0.88,0.55,0.29,0.29,0.55,0.44,0.5,0.6,0.42,0.48,0.42,0.55,0.5,0.55,0.88,0.55,0.4,0.48,0.55,0.5,0.33,0.58,0.48,0.4,0.55,0.56,0.48,0.58,0.29,0.44,0.55,0.29,0.29,0.6,0.55,0.6,0.4,0.55,0.33,0.48,0.29,0.58,0.55,0.6,0.4,0.55,0.61,0.29,0.48,0.25,0.55,0.5,0.55,0.61,0.55,0.6,0.55,0.29,0.29,0.58,0.56,0.55,0.55,0.33,0.55,0.56,0.29,0.42,0.44,0.48,0.4,0.5,0.29,0.55,0.33,0.5,0.33,0.55,0.5,0.58,0.61,0.55,0.5" style="fill:rgb(0,0,0);font-family:URWPalladioL-Roma;font-size:9.96px;stroke:none;">prepared with palmoil causes a more atherogenic lipoprotein proﬁle, a doubling of visceral fat and a</text>
   <text y="496.136" x="76.535,80.759,83.658,89.197,94.996,97.895,103.922,108.346,113.327,119.125,122.4118,124.864,127.763,133.561,137.984,141.74,146.512,151.494,155.718,160.4988,162.98,168.42,171.7068,174.228,180.026,184.799,190.786,195.767,199.015,201.914,206.29639999999998,208.828,213.052,216.3,221.072,226.054,229.301,234.741,238.965,241.864,246.0472,248.579,253.002,258.442,267.239,273.227,278.208,281.964,286.736,292.8116,295.314,303.622,306.522,309.769,315.5458,318.058,321.306,327.104,331.8848,334.367,340.374,344.599,349.3798,351.861,357.301,360.5878,363.109,367.333,373.341,379.139,385.196,390.636,398.945,403.717,407.70099999999996,410.143,415.582,418.481,421.38" svgx:width="0.42,0.29,0.56,0.58,0.29,0.61,0.44,0.5,0.58,0.33,0.55,0.29,0.58,0.44,0.4,0.48,0.5,0.42,0.48,0.55,0.55,0.33,0.55,0.58,0.48,0.6,0.5,0.33,0.29,0.44,0.55,0.42,0.33,0.48,0.5,0.33,0.55,0.42,0.29,0.42,0.55,0.44,0.55,0.88,0.6,0.5,0.4,0.48,0.61,0.55,0.83,0.29,0.33,0.58,0.55,0.33,0.58,0.48,0.55,0.6,0.42,0.48,0.55,0.55,0.33,0.55,0.42,0.6,0.58,0.61,0.55,0.83,0.48,0.4,0.55,0.55,0.29,0.29,0.25" style="fill:rgb(0,0,0);font-family:URWPalladioL-Roma;font-size:9.96px;stroke:none;">signiﬁcant increase of hepatic steatosis compared with the use of sunﬂower oil.</text>
   <text y="509.646" x="97.795,102.984,108.943,113.331,119.1078,121.583,126.317,129.43,132.721,137.455,141.843,145.065,149.2482,151.756,156.697,160.423,165.2038,167.667,173.607,177.323,182.719,188.184,193.125,198.591,201.467,207.0446,209.472,213.86,219.256,225.008,230.759,235.493,239.881,243.103,247.837,253.9126,256.376,264.618,267.494,270.716,276.4928,278.968,282.19,287.942,292.7228,295.176,299.564,304.96,310.712,314.902,320.862,329.588,335.528,338.75,341.626,347.022,352.79879999999997,355.284,360.68,363.96680000000003,366.471,369.762,374.704,377.926,381.148,386.72560000000004,389.143,394.084,398.472,401.348,407.387,411.5702,414.077,416.953,422.72979999999995,425.215,430.71,435.444,441.196,445.93,449.834,454.775,457.66339999999997,460.151,465.093,470.845,476.92060000000004,479.384,485.135,490.531,493.81780000000003,496.254,502.193,507.135,510.011" svgx:width="0.52,0.6,0.44,0.58,0.55,0.48,0.33,0.33,0.48,0.44,0.33,0.42,0.55,0.5,0.4,0.48,0.55,0.6,0.4,0.55,0.55,0.5,0.55,0.29,0.56,0.55,0.44,0.55,0.58,0.58,0.48,0.44,0.33,0.48,0.61,0.55,0.83,0.29,0.33,0.58,0.55,0.33,0.58,0.48,0.55,0.44,0.55,0.58,0.42,0.6,0.88,0.6,0.33,0.29,0.55,0.58,0.55,0.55,0.33,0.55,0.33,0.5,0.33,0.33,0.56,0.55,0.5,0.44,0.29,0.61,0.42,0.55,0.29,0.58,0.55,0.56,0.48,0.58,0.48,0.4,0.5,0.29,0.55,0.5,0.58,0.61,0.55,0.58,0.55,0.33,0.55,0.6,0.5,0.29,0.88" style="fill:rgb(0,0,0);font-family:URWPalladioL-Roma;font-size:9.96px;stroke:none;">Such effects are probably connected with the consumption of fatty acids in general and not palm</text>
   <text y="523.155" x="76.535,82.083,85.04,87.92840000000001,90.548,93.505,99.28179999999999,101.98,108.088,113.168,117.182,120.495,123.452,127.964,134.092,137.049,142.13,145.402,147.892,150.513,155.594,159.7772,162.464,166.772,169.729,178.702,181.659,184.616,189.697,193.681,196.262,200.093,204.96,209.269,215.397,218.354,221.667,225.8502,228.536,237.011,241.878,245.71,250.4908,253.138,258.686,264.306,268.614,273.482,277.496,283.237,288.105,294.1806,296.864,305.339,308.296,311.609,317.38579999999996,320.074,323.387,329.301,334.0818,336.729,342.857,347.165,351.9458,354.584,360.132,363.41880000000003,366.077,371.696,377.824,381.137,384.449,389.317,393.301,395.881,398.838,404.6148,407.303,410.616,416.53,421.3108,423.959,430.066,433.023,438.104,442.616,447.3968,450.034,455.582,458.8688,461.527,467.634,472.715,475.672,484.4368,487.196,492.744,495.701,498.5894,501.209" svgx:width="0.55,0.29,0.29,0.55,0.29,0.58,0.55,0.6,0.5,0.4,0.33,0.29,0.44,0.6,0.29,0.5,0.4,0.25,0.55,0.5,0.42,0.55,0.42,0.29,0.88,0.29,0.29,0.5,0.4,0.55,0.4,0.48,0.42,0.6,0.29,0.33,0.42,0.55,0.83,0.48,0.4,0.48,0.55,0.55,0.55,0.42,0.48,0.4,0.56,0.48,0.61,0.55,0.83,0.29,0.33,0.58,0.55,0.33,0.58,0.48,0.55,0.6,0.42,0.48,0.55,0.55,0.33,0.55,0.55,0.6,0.33,0.33,0.48,0.4,0.55,0.29,0.58,0.55,0.33,0.58,0.48,0.55,0.6,0.29,0.5,0.44,0.48,0.55,0.55,0.33,0.55,0.6,0.5,0.29,0.88,0.55,0.55,0.29,0.29,0.55,0.33" style="fill:rgb(0,0,0);font-family:URWPalladioL-Roma;font-size:9.96px;stroke:none;">oil in particular, as similar results were observed with the use of butter in the place of palm oil [</text>
   <text y="523.155" x="504.597,509.578" svgx:width="0.5,0.5" style="fill:rgb(8,117,183);font-family:URWPalladioL-Roma;font-size:9.96px;stroke:none;">38</text>
   <text y="523.155" x="514.559,517.943" svgx:width="0.33,0.25" style="fill:rgb(0,0,0);font-family:URWPalladioL-Roma;font-size:9.96px;stroke:none;">].</text>
   <text y="536.664" x="76.535,84.824,90.263,98.572,103.344,108.973,113.745,116.943,119.43299999999999,121.925,128.012,132.784,138.811,144.609,147.509,150.756,153.655,159.284,164.0648,166.547,172.634,177.615,180.863,185.843,188.335,191.234,197.01080000000002,199.523,202.771,208.569,211.468,215.6512,218.183,221.939,226.711,232.25,237.232,240.988,247.0636,249.565,255.652,261.13,263.583,269.381,274.821,278.10780000000005,280.559,285.331,290.472,293.371,297.595,300.88180000000006,303.334,306.233,312.0098,314.522,317.769,323.568,328.3488,330.83,333.729,336.629,339.876,344.648,348.584,353.565,356.813,362.82,366.576,371.3568,373.839" svgx:width="0.83,0.55,0.83,0.48,0.56,0.48,0.4,0.25,0.55,0.61,0.48,0.61,0.58,0.29,0.33,0.29,0.56,0.48,0.55,0.61,0.5,0.33,0.5,0.55,0.29,0.58,0.55,0.33,0.58,0.29,0.42,0.55,0.4,0.48,0.56,0.5,0.4,0.61,0.55,0.61,0.55,0.55,0.58,0.55,0.33,0.55,0.48,0.52,0.29,0.42,0.33,0.55,0.29,0.58,0.55,0.33,0.58,0.48,0.55,0.29,0.29,0.33,0.48,0.4,0.5,0.33,0.6,0.4,0.48,0.55,0.33" style="fill:rgb(0,0,0);font-family:URWPalladioL-Roma;font-size:9.96px;stroke:none;">However, deﬁnitive data in this regard do not exist in the literature [</text>
   <text y="536.664" x="377.156,382.138" svgx:width="0.5,0.5" style="fill:rgb(8,117,183);font-family:URWPalladioL-Roma;font-size:9.96px;stroke:none;">39</text>
   <text y="536.664" x="387.119,390.437" svgx:width="0.33,0.25" style="fill:rgb(0,0,0);font-family:URWPalladioL-Roma;font-size:9.96px;stroke:none;">].</text>
   <text y="559.877" x="76.535,81.516,84.007,88.988,91.478,94.567,101.212,105.636,109.511,113.207,117.083,119.852,124.276,127.593,130.363,134.786,140.3636,142.816,150.009,152.779,156.096,161.076,163.568,172.973,177.396,181.272,184.589,189.013,191.782,194.552,197.87,202.85,205.341,211.987,216.41,219.727" svgx:width="0.5,0.25,0.5,0.25,0.55,0.67,0.44,0.39,0.39,0.39,0.28,0.44,0.33,0.28,0.44,0.56,0.55,0.72,0.28,0.33,0.5,0.55,0.94,0.44,0.39,0.33,0.44,0.28,0.28,0.33,0.5,0.55,0.67,0.44,0.33,0.39" style="fill:rgb(0,0,0);font-family:URWPalladioL-Ital;font-size:9.96px;stroke:none;">6.5. Correlation with Mortality Rate</text>
   <text y="579.364" x="97.795,104.317,108.994,113.328,118.005,123.687,126.87,129.711,134.037,136.52700000000002,138.498,141.681,147.364,152.1448,153.934,158.074,162.409,165.25,169.927,175.609,178.792,181.633,187.54,191.92239999999998,193.779,196.62,199.461,202.644,207.32,211.177,216.058,219.241,225.129,228.809,233.5898,235.38,241.062,245.944,250.1272,251.988,257.855,262.737,265.578,273.447,278.329,281.512,284.695,289.371,295.054,298.237,301.078,306.409,312.1858,313.995,317.177,322.65500000000003,324.412,327.595,333.277,338.0578,339.848,343.529,348.205,351.047,355.928,359.111,361.952,367.283,372.965,377.105,382.787,385.628,391.604,393.4,398.799,403.476,406.659,414.801,419.478,424.154,429.9308,431.731,435.871,440.752,443.935,449.822,453.679,458.561,461.743,466.42,474.289,477.54,482.422,485.70880000000005,487.509,490.35,496.1268,497.936,503.902,506.743,511.419,514.602" svgx:width="0.67,0.48,0.44,0.48,0.58,0.33,0.29,0.56,0.25,0.55,0.33,0.58,0.48,0.55,0.42,0.44,0.29,0.48,0.58,0.33,0.29,0.61,0.44,0.55,0.29,0.29,0.33,0.48,0.4,0.5,0.33,0.6,0.4,0.48,0.55,0.58,0.5,0.42,0.55,0.6,0.5,0.29,0.61,0.5,0.33,0.33,0.48,0.58,0.33,0.29,0.55,0.58,0.55,0.33,0.55,0.55,0.33,0.58,0.48,0.55,0.4,0.48,0.29,0.5,0.33,0.29,0.55,0.58,0.42,0.58,0.29,0.6,0.55,0.55,0.48,0.33,0.83,0.48,0.48,0.58,0.55,0.42,0.5,0.33,0.6,0.4,0.5,0.33,0.48,0.61,0.33,0.5,0.33,0.55,0.29,0.58,0.55,0.61,0.29,0.48,0.33,0.42" style="fill:rgb(0,0,0);font-family:URWPalladioL-Roma;font-size:9.96px;stroke:none;">Recently, the scientiﬁc literature has paidattention to the relationship between saturatedfat in diets</text>
   <text y="592.874" x="76.535,81.576,87.444,93.5196,96.094,99.381,105.249,110.0298,112.569,121.471,126.976,130.958,134.245,139.286,142.22,145.154,148.441,154.0186,156.537,160.519,165.56,168.847,173.676,176.166,179.282,187.126,191.603,196.079,201.584,205.395,211.555,214.489,220.357,225.9346,228.453,231.74,237.21800000000002,239.735,244.715,247.266,256.169,260.998,264.285,269.326,272.683,277.724,283.592,288.633,291.567,297.173,301.448,304.382,308.5652,311.147,317.206,323.286,328.861,331.795,334.729,339.004,344.871,349.701,355.77660000000003,358.351,361.285,367.0618,369.643,374.684,379.725,384.766,389.74600000000004,392.298" svgx:width="0.5,0.58,0.61,0.55,0.33,0.58,0.48,0.55,0.88,0.55,0.4,0.33,0.5,0.29,0.29,0.33,0.56,0.55,0.4,0.5,0.33,0.48,0.25,0.55,0.78,0.44,0.44,0.55,0.4,0.61,0.29,0.58,0.56,0.55,0.33,0.55,0.55,0.5,0.55,0.88,0.48,0.33,0.5,0.33,0.5,0.58,0.5,0.29,0.56,0.42,0.29,0.42,0.55,0.6,0.6,0.55,0.29,0.29,0.42,0.58,0.48,0.61,0.55,0.29,0.58,0.55,0.5,0.5,0.5,0.5,0.55,0.33" style="fill:rgb(0,0,0);font-family:URWPalladioL-Roma;font-size:9.96px;stroke:none;">and the mortality rate. According to a meta-analysis published in 2015 [</text>
   <text y="592.874" x="395.653,400.634" svgx:width="0.5,0.5" style="fill:rgb(8,117,183);font-family:URWPalladioL-Roma;font-size:9.96px;stroke:none;">12</text>
   <text y="592.874" x="405.616,408.973,411.463,413.984,417.271,423.139,427.9198,430.458,434.935,440.44,444.422,448.223,453.052,455.986,461.027,464.314,467.248,472.753,478.52979999999997,481.111,486.687,491.516,494.803,503.211,508.04,512.87" svgx:width="0.33,0.25,0.55,0.33,0.58,0.48,0.55,0.44,0.55,0.4,0.4,0.48,0.29,0.5,0.33,0.29,0.55,0.58,0.55,0.55,0.48,0.33,0.83,0.48,0.48,0.58" style="fill:rgb(0,0,0);font-family:URWPalladioL-Roma;font-size:9.96px;stroke:none;">], the correlation between</text>
   <text y="606.383" x="76.535,79.848,85.762,90.5428,93.597,98.109,103.657,109.571,113.88,120.007,128.98,135.088,138.4,141.357,146.906,152.68280000000001,155.787,161.336,164.6228,167.687,171.995,177.076,180.389,186.517,190.531,195.612,198.924,203.792,209.8676,212.968,216.352,221.433,224.746,228.9292,232.021,237.102,243.017,249.0926,252.193,257.274,260.231,263.188,266.572,271.084,276.165,282.292,286.601,291.3818,294.436,303.409,308.957,312.971,316.284,321.365,324.322,327.279,330.591,336.1686,339.209,342.166,346.3492,349.442,354.523,359.39,363.221,368.77,371.26,375.832,382.061,387.975,390.933,395.1162,398.208,402.72,408.269,414.183,418.491,421.449,427.657,432.525,436.539,441.62,444.933,447.89,453.438,459.21479999999997,462.32,465.277,469.4602,472.553,477.064,482.613,488.527,494.675,498.689,507.662,512.529" svgx:width="0.33,0.58,0.48,0.55,0.44,0.55,0.58,0.42,0.6,0.88,0.6,0.33,0.29,0.55,0.58,0.55,0.55,0.33,0.55,0.42,0.5,0.33,0.6,0.4,0.5,0.33,0.48,0.61,0.55,0.33,0.5,0.33,0.42,0.55,0.5,0.58,0.61,0.55,0.5,0.29,0.29,0.33,0.44,0.5,0.6,0.42,0.48,0.55,0.88,0.55,0.4,0.33,0.5,0.29,0.29,0.33,0.56,0.55,0.29,0.42,0.55,0.5,0.48,0.4,0.55,0.25,0.55,0.61,0.58,0.29,0.42,0.55,0.44,0.55,0.58,0.42,0.29,0.61,0.48,0.4,0.5,0.33,0.29,0.55,0.58,0.55,0.29,0.42,0.55,0.44,0.55,0.58,0.61,0.4,0.88,0.48,0.61" style="fill:rgb(0,0,0);font-family:URWPalladioL-Roma;font-size:9.96px;stroke:none;">the consumption of saturated fats and all-cause mortality is zero. This consideration is conﬁrmed</text>
   <text y="619.893" x="76.535,82.127,87.7046,90.237,93.533,99.419,104.1998,106.75,112.857,119.612,125.791,133.617,137.025,146.591,152.77,160.4392,163.074,167.361,170.658,176.755,182.934,188.5116,191.044" svgx:width="0.55,0.56,0.55,0.33,0.58,0.48,0.55,0.6,0.67,0.61,0.77,0.34,0.95,0.61,0.77,0.55,0.42,0.33,0.6,0.61,0.56,0.55,0.33" style="fill:rgb(0,0,0);font-family:URWPalladioL-Roma;font-size:9.96px;stroke:none;">by the PREDIMED study [</text>
   <text y="619.893" x="194.414,199.395" svgx:width="0.5,0.5" style="fill:rgb(8,117,183);font-family:URWPalladioL-Roma;font-size:9.96px;stroke:none;">40</text>
   <text y="619.893" x="204.377,207.6638,210.232,214.722,220.243,226.128,232.306,238.404,242.894,246.19,251.034,257.1096,259.7,262.643,268.41979999999995,271.005,275.985,278.549,288.115,292.958,299.137,302.079,305.376,310.22,314.214,318.208,323.264,329.149,333.993,339.049,344.82579999999996,347.422,353.499,359.02,365.098,371.195,374.138,379.194,382.49,385.433,390.954,396.7308,399.327,404.383,407.6698,410.167,416.052,418.995,424.617,430.3938,432.98,437.47,442.526,446.348,452.526,455.469,460.99,466.703,471.759,476.047,480.537,486.634,489.577,494.633,498.61699999999996,501.105,505.099,508.042,512.329,517.951" svgx:width="0.33,0.55,0.44,0.55,0.58,0.61,0.6,0.44,0.33,0.48,0.61,0.55,0.29,0.58,0.55,0.5,0.55,0.95,0.48,0.61,0.29,0.33,0.48,0.4,0.4,0.5,0.58,0.48,0.5,0.58,0.55,0.6,0.55,0.6,0.6,0.29,0.5,0.33,0.29,0.55,0.58,0.55,0.5,0.33,0.55,0.58,0.29,0.56,0.58,0.55,0.44,0.5,0.4,0.61,0.29,0.55,0.56,0.5,0.42,0.44,0.6,0.29,0.5,0.4,0.55,0.4,0.29,0.42,0.56,0.25" style="fill:rgb(0,0,0);font-family:URWPalladioL-Roma;font-size:9.96px;stroke:none;">] conducted in a Mediterranean population at high cardiovascular risk.</text>
   <text y="633.402" x="76.535,84.177,89.894,94.059,98.971,102.173,108.097,111.977,116.888,120.091,124.796,130.8716,133.283,136.486,140.366,145.277,150.994,155.1772,157.654,160.925,165.837,169.039,173.2222,175.69,180.601,184.304,189.0848,191.505,194.707,200.424,205.2048,207.615,212.978,218.695,221.554,227.1316,229.51,232.782,237.693,240.895,244.088,249.66559999999998,252.045,256.956,261.318,264.176,270.178,274.3612,276.828,281.74,285.905,290.07,295.433,299.795,302.653,307.565,310.767,315.473,321.5486,323.97,332.162,335.021,338.223,343.9998,346.425,351.337,357.11379999999997,359.549,362.408,368.125,372.486,376.189,380.895,385.806,389.971,394.676,400.7516,403.164,407.044,409.902,414.067,419.529,422.019,425.069,428.38,434.1568,436.592,439.45,442.309,445.511,450.216,454.097,459.008,462.21,468.134,471.837,476.542,479.032,481.483,487.485,490.344,493.438,496.709,501.414,505.118,509.823,515.54" svgx:width="0.78,0.58,0.42,0.5,0.33,0.6,0.4,0.5,0.33,0.48,0.61,0.55,0.33,0.4,0.5,0.58,0.42,0.55,0.33,0.5,0.33,0.42,0.55,0.5,0.4,0.48,0.55,0.33,0.58,0.48,0.55,0.55,0.58,0.29,0.56,0.55,0.33,0.5,0.33,0.33,0.56,0.55,0.5,0.44,0.29,0.61,0.42,0.55,0.5,0.42,0.42,0.55,0.44,0.29,0.5,0.33,0.48,0.61,0.55,0.83,0.29,0.33,0.58,0.55,0.5,0.58,0.55,0.29,0.58,0.44,0.4,0.48,0.5,0.42,0.48,0.61,0.55,0.4,0.29,0.42,0.56,0.25,0.55,0.34,0.58,0.55,0.29,0.29,0.33,0.48,0.4,0.5,0.33,0.6,0.4,0.48,0.25,0.55,0.61,0.29,0.33,0.33,0.48,0.4,0.48,0.58,0.33" style="fill:rgb(0,0,0);font-family:URWPalladioL-Roma;font-size:9.96px;stroke:none;">Unsaturated trans fats are the only fatty acids associated with an increased risk. In literature, different</text>
   <text y="646.911" x="76.535,80.814,84.104,90.19,96.356,99.293,104.127,108.3102,110.899,116.772,121.818,127.52,132.3008,134.847,139.681,145.383,150.429,153.366,159.452,164.498,167.788,172.622,178.69760000000002,181.281,184.571,190.445,195.2258,197.772,202.606,205.785,209.145,213.979,218.46,221.7468,224.243,229.753,233.03979999999999,235.607,241.309,246.355,250.341,253.278,258.788,264.874,269.0572,271.646,277.812,280.749,285.583,288.873,293.919,297.905,303.4826,306.009,309.37,314.416,317.706,321.8892,324.478,329.988,335.7648,338.355,342.836,348.346,352.151,357.661,363.534,368.58,372.567,378.1446,380.671,389.582,395.092,399.079,402.369,407.415,410.352,413.288,416.579,422.19,424.68,427.811,430.748,436.52479999999997,439.114,445.18,450.226,454.212,457.502,460.439,464.92,471.005,473.942,478.988,482.238,484.728,487.254,490.19,495.9668,498.557,503.603,508.649,513.695" svgx:width="0.42,0.33,0.6,0.61,0.29,0.48,0.42,0.55,0.58,0.5,0.56,0.48,0.55,0.48,0.56,0.5,0.29,0.6,0.5,0.33,0.48,0.61,0.55,0.33,0.58,0.48,0.55,0.48,0.33,0.33,0.48,0.44,0.33,0.55,0.55,0.33,0.55,0.56,0.5,0.4,0.29,0.55,0.6,0.42,0.55,0.61,0.29,0.48,0.33,0.5,0.4,0.56,0.55,0.33,0.5,0.33,0.42,0.55,0.55,0.58,0.55,0.44,0.55,0.4,0.55,0.58,0.5,0.4,0.56,0.55,0.88,0.55,0.4,0.33,0.5,0.29,0.29,0.33,0.56,0.25,0.55,0.29,0.58,0.55,0.6,0.5,0.4,0.33,0.29,0.44,0.6,0.29,0.5,0.4,0.25,0.55,0.29,0.58,0.55,0.5,0.5,0.5,0.5" style="fill:rgb(0,0,0);font-family:URWPalladioL-Roma;font-size:9.96px;stroke:none;">studies have evaluated the effect of various dietary fats on coronary mortality: in particular, in 2016</text>
   <text y="660.421" x="76.226,82.455,88.369,93.1498,96.296,104.74,110.868,114.181,118.194,121.152,128.356,136.344,144.209,150.2846,153.476,159.126,162.957,168.506,174.633,180.609,183.799,188.108,194.022,199.571,208.046,212.913,218.98860000000002,222.181,225.493,231.408,236.489,239.7758,242.86,247.84,251.01,254.394,259.475,265.206,270.754,276.882,280.896,285.977,291.596,294.553,299.3338,302.48,305.437,314.41,320.517,325.598,330.11,333.39680000000004,336.491" svgx:width="0.61,0.58,0.48,0.55,0.83,0.6,0.33,0.4,0.29,0.71,0.79,0.77,0.61,0.55,0.56,0.4,0.55,0.6,0.6,0.55,0.42,0.58,0.55,0.83,0.48,0.61,0.55,0.33,0.58,0.5,0.33,0.55,0.5,0.55,0.33,0.5,0.56,0.55,0.6,0.4,0.5,0.55,0.29,0.48,0.55,0.29,0.88,0.6,0.5,0.44,0.33,0.55,0.33" style="fill:rgb(0,0,0);font-family:URWPalladioL-Roma;font-size:9.96px;stroke:none;">The NutriCODE group showed that a favourable impact (</text>
   <text y="660.421" x="339.995" svgx:width="0.78" style="fill:rgb(0,0,0);font-family:CMSY10;font-size:10.38px;stroke:none;">−</text>
   <text y="660.421" x="348.189,353.27,358.351,366.887,370.1738,373.329,378.878,384.65479999999997,387.851,392.363,397.911,401.742,407.29,413.204,418.285,422.299,427.8766,431.008,439.981,445.529,449.543,452.856,457.937,460.894,463.851,467.164,472.7416,475.873,484.348,489.896,496.024,498.981,505.0566,508.248,513.868" svgx:width="0.5,0.5,0.84,0.33,0.55,0.55,0.58,0.55,0.44,0.55,0.4,0.55,0.58,0.5,0.4,0.56,0.55,0.88,0.55,0.4,0.33,0.5,0.29,0.29,0.33,0.56,0.55,0.83,0.55,0.6,0.29,0.61,0.55,0.55,0.48" style="fill:rgb(0,0,0);font-family:URWPalladioL-Roma;font-size:9.96px;stroke:none;">11%) on coronary mortality would be</text>
   <text y="673.93" x="76.535,82.083,87.703,91.016,96.097,99.054,104.968,109.835,115.91059999999999,118.585,124.204,129.7816,132.405,137.486,143.695,148.562,154.253,160.38,165.461,168.774,173.642,176.599,182.17659999999998,184.789,187.746,193.661,198.172,202.003,206.871,211.952,216.26,219.218,225.132,230.7096,233.332,239.44,244.988,247.945,253.595,259.723,265.637,269.946,275.026,278.339,284.467,288.481,293.562,296.874,301.742,307.951,311.335,314.719,319.8,323.08680000000004,325.653,331.201,340.174,345.042,350.692,355.773,359.157,364.137,366.778,371.29,376.838,382.752,387.061,393.189,402.161,408.269,411.582,414.539,420.087,426.001,428.491,431.102,439.577,445.492,448.449,451.406,456.1868,458.814,462.127,468.041,472.8218,475.459,479.29,484.157,490.366,496.494,501.006,504.319,507.276,512.824" svgx:width="0.55,0.55,0.33,0.5,0.29,0.58,0.48,0.61,0.55,0.55,0.56,0.55,0.5,0.61,0.48,0.56,0.6,0.5,0.33,0.48,0.29,0.56,0.55,0.29,0.58,0.44,0.4,0.48,0.5,0.42,0.29,0.58,0.56,0.55,0.6,0.55,0.29,0.56,0.6,0.58,0.42,0.5,0.33,0.6,0.4,0.5,0.33,0.48,0.61,0.33,0.33,0.5,0.33,0.55,0.55,0.88,0.48,0.56,0.5,0.33,0.5,0.55,0.44,0.55,0.58,0.42,0.6,0.88,0.6,0.33,0.29,0.55,0.58,0.25,0.55,0.83,0.58,0.29,0.29,0.48,0.55,0.33,0.58,0.48,0.55,0.4,0.48,0.61,0.6,0.44,0.33,0.29,0.55,0.58" style="fill:rgb(0,0,0);font-family:URWPalladioL-Roma;font-size:9.96px;stroke:none;">obtained by adequately increasing polyunsaturated-fat omega-6 consumption, while the reduction</text>
   <text y="687.44" x="76.535,81.991,85.2778,87.807,92.043,97.04,100.297,106.323,110.27,115.266,118.523,123.31,129.3856,131.913,135.241,140.237,143.495,147.6782,150.22,158.553,161.461,164.719,170.534,173.442,179.21880000000002,181.746,186.742,191.738,200.1044,202.62,205.528,211.344,217.449,220.357,224.794,229.79,233.047,237.834,243.9096,246.437,251.963,257.5406,260.007,263.265,269.08,273.8608,276.355,281.911,287.936,290.844,296.949,301.736,304.644,307.551,313.367,318.153,322.3362,324.878,333.212,338.668,344.693,347.601,353.6766,356.205,361.661,367.476,370.384,375.96160000000003,378.428,381.686,385.633,390.629,396.444,400.681,403.589,408.585,411.843,416.6238,419.117,422.375,427.853,430.329,435.309,437.813,441.58,446.367,452.472,458.498,462.934,466.192,469.1,474.556,480.33279999999996,482.859,488.315,491.6018,494.131,499.127,507.4934,510.019,512.927" svgx:width="0.55,0.33,0.55,0.42,0.5,0.33,0.6,0.4,0.5,0.33,0.48,0.61,0.55,0.33,0.5,0.33,0.42,0.55,0.83,0.29,0.33,0.58,0.29,0.58,0.55,0.5,0.5,0.84,0.55,0.29,0.58,0.61,0.29,0.44,0.5,0.33,0.48,0.61,0.55,0.55,0.56,0.55,0.33,0.58,0.48,0.55,0.56,0.6,0.29,0.61,0.48,0.29,0.29,0.58,0.48,0.42,0.55,0.83,0.55,0.6,0.29,0.61,0.55,0.55,0.58,0.29,0.56,0.55,0.33,0.4,0.5,0.58,0.42,0.29,0.5,0.33,0.48,0.55,0.33,0.55,0.55,0.5,0.55,0.4,0.48,0.61,0.6,0.44,0.33,0.29,0.55,0.58,0.55,0.55,0.33,0.55,0.5,0.84,0.55,0.29,0.58" style="fill:rgb(0,0,0);font-family:URWPalladioL-Roma;font-size:9.96px;stroke:none;">of saturated fats within 10% indicated by the guidelines would only translate to a reduction of 1% in</text>
   <text y="700.949" x="76.535,79.78,85.572,90.3528,92.837,97.057,102.034,110.822,115.6028,118.087,122.506,127.94,131.693,137.127,142.919,147.895,151.827,157.4046,159.858,168.647,174.081,178.012,181.257,186.233,189.129,192.025,195.27,199.689,202.179,205.292,213.115,218.89180000000002,221.396,226.37599999999998,228.87,234.404,237.3,242.734,248.238,253.214,256.1024,258.608,262.828,267.247,272.224,275.12,279.887,282.377,284.873,288.118,293.91,298.6908,301.176,304.928,309.695,315.776,321.778,326.197,329.441,332.338,337.772,343.54879999999997,346.062,351.496,354.7828,357.309,361.529,366.505,369.75,375.751,379.682,384.659,387.903,392.67,398.7456,401.24,404.554,409.53,412.775,416.9582,419.493,427.793,433.227,439.229,442.125,448.2006,450.704,456.686,460.438,465.872,471.953,477.955,482.374,487.1548,489.639,493.391,498.158,502.378,508.38,511.276,514.521" svgx:width="0.33,0.58,0.48,0.55,0.42,0.5,0.88,0.48,0.55,0.44,0.55,0.4,0.55,0.58,0.5,0.4,0.56,0.55,0.88,0.55,0.4,0.33,0.5,0.29,0.29,0.33,0.56,0.25,0.55,0.79,0.58,0.55,0.5,0.55,0.56,0.29,0.55,0.55,0.5,0.29,0.55,0.42,0.44,0.5,0.29,0.48,0.25,0.55,0.33,0.58,0.48,0.55,0.4,0.48,0.61,0.6,0.44,0.33,0.29,0.55,0.58,0.55,0.55,0.33,0.55,0.42,0.5,0.33,0.6,0.4,0.5,0.33,0.48,0.61,0.55,0.33,0.5,0.33,0.42,0.55,0.83,0.55,0.6,0.29,0.61,0.55,0.6,0.4,0.55,0.61,0.6,0.44,0.48,0.55,0.4,0.48,0.42,0.6,0.29,0.33,0.42" style="fill:rgb(0,0,0);font-family:URWPalladioL-Roma;font-size:9.96px;stroke:none;">the same coronary mortality. On a global scale, the reduction of saturated fats would produce results</text>
   <text y="714.458" x="76.535,82.018,85.3048,87.853,96.72,102.203,108.339,113.149,117.407,120.6938,123.171,126.094,134.961,140.997,146.48,150.446,153.72,158.741,164.586,169.045,173.8258,176.345" svgx:width="0.55,0.33,0.55,0.88,0.55,0.61,0.48,0.42,0.33,0.55,0.29,0.88,0.6,0.55,0.4,0.33,0.5,0.58,0.44,0.48,0.55,0.33" style="fill:rgb(0,0,0);font-family:URWPalladioL-Roma;font-size:9.96px;stroke:none;">of modest importance [</text>
   <text y="714.458" x="179.687,184.668" svgx:width="0.5,0.5" style="fill:rgb(8,117,183);font-family:URWPalladioL-Roma;font-size:9.96px;stroke:none;">41</text>
   <text y="714.458" x="189.649,192.993,195.483,198.597,204.753,210.597,215.3778,217.888,222.698,228.372,233.393,236.316,242.371,247.392,250.666,253.588,259.071,264.8478,267.406,272.89,276.1768,278.724,281.998,287.843,292.6238,295.143,299.954,303.117,306.461,311.271,315.73,319.004,323.1872,325.752,331.235,334.52180000000004,337.07,343.105,348.126,351.049,362.407,367.89,370.812,373.7004,376.225,381.708,387.4848,390.043,394.502,399.523,403.309,409.445,412.367,417.85,423.524,428.545,432.803,437.262,443.317,446.24,451.261,455.245,457.718,463.563,468.373,473.394,476.316,479.59,485.36679999999996,487.925,492.946,498.791,504.8666,507.407,512.89" svgx:width="0.33,0.25,0.55,0.61,0.58,0.48,0.55,0.48,0.56,0.5,0.29,0.6,0.5,0.33,0.29,0.55,0.58,0.55,0.55,0.33,0.55,0.33,0.58,0.48,0.55,0.48,0.33,0.33,0.48,0.44,0.33,0.42,0.55,0.55,0.33,0.55,0.6,0.5,0.29,0.88,0.55,0.29,0.29,0.55,0.55,0.58,0.55,0.44,0.5,0.4,0.61,0.29,0.55,0.56,0.5,0.42,0.44,0.6,0.29,0.5,0.4,0.55,0.58,0.48,0.5,0.29,0.33,0.58,0.55,0.5,0.58,0.61,0.55,0.55,0.58" style="fill:rgb(0,0,0);font-family:URWPalladioL-Roma;font-size:9.96px;stroke:none;">]. The evaluation of the effects of palmoil on cardiovascular health and on</text>
   <text y="727.968" x="76.535,81.496,84.384,87.271,90.576,94.981,99.943,105.926,110.133,114.9138,117.377,126.139,131.557,135.476,138.711,143.672,146.56,149.447,152.682,158.25959999999998,160.69,163.577,167.7602,170.285,179.047,184.465,188.206,192.9868,195.449,199.855,205.273,214.035,219.998,222.886,227.639,232.81820000000002,235.249,238.554,243.971,247.955,250.382,253.616,259.391,264.1718,266.645,269.532,274.494,278.9,284.4776,286.907,292.325,295.6118,298.12,302.327,308.291,313.044,317.449,320.337,326.34,330.7224,333.236,339.299,344.261,347.495,352.457,354.947,358.033,364.116,369.891,374.6718,377.145,382.562,388.337,391.225,396.80260000000004,399.233,402.973,407.726,410.614,415.367,420.973,425.935,431.71,434.9968,437.435,440.323,446.098,452.161,455.048,458.789,463.542,467.948,471.2348,473.673,479.736,484.697,487.932,492.91200000000003,495.394,498.281,502.4642,504.979,508.214,513.989" svgx:width="0.5,0.29,0.29,0.33,0.44,0.5,0.6,0.42,0.48,0.55,0.88,0.55,0.4,0.33,0.5,0.29,0.29,0.33,0.56,0.55,0.29,0.42,0.55,0.88,0.55,0.4,0.48,0.55,0.44,0.55,0.88,0.6,0.29,0.48,0.52,0.55,0.33,0.55,0.4,0.55,0.33,0.58,0.48,0.55,0.29,0.5,0.44,0.56,0.55,0.55,0.33,0.55,0.42,0.6,0.48,0.44,0.29,0.61,0.44,0.55,0.61,0.5,0.33,0.5,0.25,0.55,0.61,0.58,0.48,0.55,0.55,0.58,0.29,0.56,0.55,0.4,0.48,0.29,0.48,0.56,0.5,0.58,0.33,0.55,0.29,0.58,0.61,0.29,0.4,0.48,0.44,0.33,0.55,0.61,0.5,0.33,0.5,0.55,0.29,0.42,0.55,0.33,0.58,0.48" style="fill:rgb(0,0,0);font-family:URWPalladioL-Roma;font-size:9.96px;stroke:none;">all-cause mortality is more complex for the lack of speciﬁc data. The only relevant indirect data is the</text>
   <text y="741.477" x="76.535,81.571,87.141,91.412,96.236,102.098,106.57,111.35079999999999,113.883,119.382,122.6688,125.214,129.686,135.185,139.164,142.961,147.786,150.717,155.753,159.036,161.967,167.467,173.24380000000002,175.817,181.386,186.211,189.495,197.895,202.719,207.544,213.32080000000002,215.884,219.167,225.029,229.8098,232.342,235.273,240.097,245.788,250.613,253.544,257.72720000000004,260.302,265.802,269.08880000000005,271.633,277.687,282.723,285.654,294.548,297.479,300.762,303.693,308.0754,310.653,315.689,320.161,323.092,329.1676,331.724,336.76,342.33,346.601,352.1,356.078,362.132,365.415,368.346,373.846,379.6228,382.196,387.232,393.094,399.1696,401.726,406.198,411.697,415.504,421.004,426.866,431.902,435.88,441.4576,443.958,447.937,450.868,455.138,460.7156,463.226,466.157,471.93379999999996,474.497,479.47700000000003,482.021,486.292,489.575,495.649,501.803,507.3806,509.891,515.39" svgx:width="0.5,0.55,0.42,0.48,0.58,0.44,0.48,0.55,0.55,0.33,0.55,0.44,0.55,0.4,0.4,0.48,0.29,0.5,0.33,0.29,0.55,0.58,0.55,0.55,0.48,0.33,0.83,0.48,0.48,0.58,0.55,0.33,0.58,0.48,0.55,0.29,0.48,0.56,0.48,0.29,0.42,0.55,0.55,0.33,0.55,0.6,0.5,0.29,0.88,0.29,0.33,0.29,0.44,0.55,0.5,0.44,0.29,0.61,0.55,0.5,0.55,0.42,0.55,0.4,0.6,0.33,0.29,0.55,0.58,0.55,0.5,0.58,0.61,0.55,0.44,0.55,0.4,0.55,0.58,0.5,0.4,0.56,0.55,0.4,0.29,0.42,0.56,0.55,0.29,0.58,0.55,0.5,0.55,0.42,0.33,0.6,0.61,0.56,0.55,0.55,0.33" style="fill:rgb(0,0,0);font-family:URWPalladioL-Roma;font-size:9.96px;stroke:none;">absence of correlation between the levels of palmitic acid absorption and coronary risk in a study of</text>
   <text y="754.987" x="76.147,83.898,92.695,97.467,101.402,104.301,108.725,113.706,119.4828,121.995,127.793,133.801,137.736,141.96,146.732,150.956,153.446,155.937,160.919,164.2058,166.657,169.556,174.328,179.31,183.534,186.8208,189.272,192.59,198.029,202.013,204.455,208.879,214.318,220.116,224.341,230.348,239.145,245.133,248.38,251.279,256.719,262.4958,265.008,271.015,276.991,279.494,282.741,288.219,290.672,295.653,300.634,311.493,316.933,320.2198,322.741,325.989,331.429,334.676,339.658,342.5464,345.047,349.471,354.452,357.351,362.791,366.726,369.625,374.397,378.5802,381.112" svgx:width="0.78,0.88,0.48,0.4,0.29,0.44,0.5,0.58,0.55,0.58,0.6,0.4,0.42,0.48,0.42,0.25,0.55,0.5,0.33,0.55,0.29,0.48,0.5,0.42,0.33,0.55,0.33,0.55,0.4,0.55,0.44,0.55,0.58,0.42,0.6,0.88,0.6,0.33,0.29,0.55,0.58,0.55,0.6,0.6,0.55,0.33,0.55,0.55,0.5,0.5,0.84,0.55,0.33,0.55,0.33,0.55,0.33,0.5,0.29,0.55,0.44,0.5,0.29,0.55,0.4,0.29,0.48,0.42,0.55,0.33" style="fill:rgb(0,0,0);font-family:URWPalladioL-Roma;font-size:9.96px;stroke:none;">American nurses, at least for consumption up to 10%of total calories [</text>
   <text y="754.987" x="384.43,389.411" svgx:width="0.5,0.5" style="fill:rgb(8,117,183);font-family:URWPalladioL-Roma;font-size:9.96px;stroke:none;">42</text>
   <text y="754.987" x="394.392" svgx:width="0.25" style="fill:rgb(0,0,0);font-family:URWPalladioL-Roma;font-size:9.96px;stroke:none;">,</text>
   <text y="754.987" x="396.883,401.864" svgx:width="0.5,0.5" style="fill:rgb(8,117,183);font-family:URWPalladioL-Roma;font-size:9.96px;stroke:none;">43</text>
   <text y="754.987" x="406.845,410.163" svgx:width="0.33,0.25" style="fill:rgb(0,0,0);font-family:URWPalladioL-Roma;font-size:9.96px;stroke:none;">].</text>
  </g>
 </g>
</svg>
