<?xml version="1.0" encoding="UTF-8"?>
<svg height="750.489" width="558.8196" xmlns="http://www.w3.org/2000/svg">
 <g id="page" xmlns:svgx="http://www.xml-cml.org/schema/svgx">
  <g begin="text">
   <text y="51.641" x="50.58,55.2612,373.724,376.793,381.771,387.063,390.824,396.25,400.689,403.17900000000003,405.45,410.418,413.406,415.621,422.479,427.905,432.344,434.792,439.363,442.46,445.133,449.372,453.81,456.3,458.571,467.184,471.414,474.517,479.801,484.946,490.176,493.8612,496.089,498.762,504.24,506.475,513.152,518.436,522.666,530.829,533.475,537.076,540.172,544.159" svgx:width="0.47,0.55,0.33,0.51,0.53,0.37,0.55,0.44,0.25,0.55,0.51,0.3,0.55,0.69,0.55,0.44,0.25,0.46,0.31,0.27,0.42,0.44,0.25,0.55,0.89,0.43,0.31,0.53,0.51,0.53,0.37,0.55,0.27,0.55,0.55,0.67,0.53,0.43,0.82,0.27,0.37,0.31,0.37,0.46" style="fill:rgb(23,22,21);font-family:MinionPro-Regular;font-size:9.96px;stroke:none;">2 Journal of Analytical Methods in Chemistry</text>
   <text y="80.954" x="50.58,56.018,60.995,64.0826,65.864,70.355,74.577,77.6646,79.473,83.756,89.183,93.611,96.059,100.62,104.792,109.076,114.3548,116.178,119.04,124.008" svgx:width="0.55,0.51,0.31,0.55,0.46,0.43,0.31,0.55,0.44,0.55,0.44,0.25,0.46,0.42,0.43,0.53,0.55,0.3,0.51,0.37" style="fill:rgb(23,22,21);font-family:MinionPro-Regular;font-size:9.96px;stroke:none;">not yet analyzed for</text>
   <text y="80.954" x="129.573,134.856,137.14679999999998,139.059,143.667,147.654,151.282,154.54,157.51,160.102,165.276,169.524,172.117" svgx:width="0.53,0.23,0.55,0.47,0.4,0.37,0.34,0.31,0.27,0.53,0.42,0.27,0.27" style="fill:rgb(23,22,21);font-family:MinionPro-It;font-size:9.96px;stroke:none;">L. kerstingii</text>
   <text y="80.954" x="176.671,180.384,184.675,188.965,194.195,197.8802,199.694,203.978,209.396,214.67479999999998,216.497,220.21,224.501,228.792,234.0708,235.902,240.871,243.597,246.054,248.3448,250.167,260.805,265.035,268.608,272.838,275.7,280.668,284.241,288.408" svgx:width="0.37,0.43,0.43,0.53,0.37,0.55,0.44,0.55,0.53,0.55,0.37,0.43,0.43,0.53,0.55,0.51,0.27,0.25,0.23,0.55,1.07,0.43,0.37,0.43,0.3,0.51,0.37,0.43,0.23" style="fill:rgb(23,22,21);font-family:MinionPro-Regular;font-size:9.96px;stroke:none;">seeds and seed oil. Therefore,</text>
   <text y="92.321" x="50.58,53.685,59.004,61.671,65.3562,67.377,70.977,73.92,79.208,84.392,88.97359999999999,91.025,93.698,98.928,103.463,107.695,111.295,114.391,117.064,121.724,125.909,128.888,133.172,138.4508,140.471,143.576,148.893,153.1758,155.175,159.325,164.608,168.839,176.995,179.662,183.874,188.302,190.792,192.883,197.094,202.062,210.036,215.346,220.424,224.078,226.634,229.73,232.397,237.366,242.812,245.1028,247.105,250.211,255.494,259.7768,261.767,266.915,272.009,276.581,280.234,282.901,287.112" svgx:width="0.31,0.53,0.27,0.37,0.55,0.37,0.31,0.53,0.53,0.46,0.55,0.27,0.55,0.46,0.43,0.37,0.31,0.27,0.47,0.44,0.31,0.43,0.53,0.55,0.31,0.53,0.43,0.55,0.42,0.53,0.43,0.82,0.27,0.42,0.44,0.25,0.55,0.42,0.51,0.82,0.52,0.51,0.37,0.27,0.31,0.27,0.51,0.55,0.23,0.55,0.31,0.53,0.43,0.55,0.52,0.53,0.46,0.37,0.27,0.42,0.36" style="fill:rgb(23,22,21);font-family:MinionPro-Regular;font-size:9.96px;stroke:none;">this study investigated the chemical composition, the physic-</text>
   <text y="103.689" x="50.58,55.755,59.904,65.226,69.462,77.623,80.295,84.512,88.94,91.42999999999999,95.195,100.297,103.87,108.847,114.157,118.387,122.185,125.282,127.954,132.19,135.848,138.1388,141.842,146.126,151.544,156.8228,160.526,165.791,170.966,174.062,177.824,180.381,183.477,186.15,191.118,196.545,200.973,203.46300000000002,207.174,211.789,216.217,218.62,223.912,228.19480000000001,231.868,236.837" svgx:width="0.51,0.42,0.53,0.43,0.82,0.27,0.42,0.44,0.25,0.55,0.52,0.37,0.51,0.52,0.43,0.37,0.31,0.27,0.43,0.37,0.23,0.55,0.44,0.55,0.53,0.55,0.55,0.53,0.31,0.37,0.27,0.31,0.27,0.51,0.55,0.44,0.25,0.55,0.46,0.44,0.25,0.53,0.43,0.55,0.51,0.3" style="fill:rgb(23,22,21);font-family:MinionPro-Regular;font-size:9.96px;stroke:none;">ochemical properties, and nutritional value of</text>
   <text y="103.689" x="243.524,248.806,251.0968,254.917,259.525,263.512,267.14,270.398,273.368,275.96,281.134,285.383,287.975" svgx:width="0.53,0.23,0.55,0.47,0.4,0.37,0.34,0.31,0.27,0.53,0.42,0.27,0.27" style="fill:rgb(23,22,21);font-family:MinionPro-It;font-size:9.96px;stroke:none;">L. kerstingii</text>
   <text y="115.056" x="50.58,54.315,58.599,62.883,68.112,71.766,74.05680000000001,76.204,86.812,91.09479999999999,93.202,99.965,104.933,108.567,113.547,115.669,119.98,122.653,130.751,134.4362,136.565,139.542,144.6216,146.787,151.017,155.715,160.863,163.383,168.351,171.923,176.2058,178.322,183.633,188.61,191.587,195.817,201.082,204.178,206.878,211.307,213.797,215.969,221.234,224.969,229.199,232.88420000000002,235.023,239.991" svgx:width="0.37,0.43,0.43,0.53,0.37,0.23,0.55,1.07,0.43,0.55,0.69,0.51,0.37,0.5,0.55,0.44,0.27,0.82,0.37,0.55,0.31,0.51,0.55,0.43,0.47,0.52,0.25,0.51,0.37,0.43,0.55,0.52,0.51,0.31,0.43,0.55,0.31,0.27,0.44,0.25,0.55,0.53,0.37,0.43,0.37,0.55,0.51,0.3" style="fill:rgb(23,22,21);font-family:MinionPro-Regular;font-size:9.96px;stroke:none;">seeds. Th ewor kaim st oexplor epotentia luse sof</text>
   <text y="115.056" x="245.108,250.39,252.68079999999998,254.917,259.525,263.512,267.14,270.398,273.368,275.96,281.134,285.383,287.975" svgx:width="0.53,0.23,0.55,0.47,0.4,0.37,0.34,0.31,0.27,0.53,0.42,0.27,0.27" style="fill:rgb(23,22,21);font-family:MinionPro-It;font-size:9.96px;stroke:none;">L. kerstingii</text>
   <text y="126.423" x="50.58,54.282,58.562,62.842,68.071,71.75619999999999,75.677,79.961,85.378,90.6568,94.577,98.279,102.559,106.839,112.1178,116.046,121.015,123.741,126.231,130.203,133.182,138.2616,142.209,147.312,150.884,155.853,163.98,168.958,171.936,176.21880000000002,180.091,183.175,188.458,192.689,195.362,199.0472,202.994,207.206,212.174,217.547,221.148,226.44,234.414,239.526,242.61,245.326,250.294,255.77200000000002,259.663,262.379,267.857,271.775,274.341,279.468,283.728,288.147" svgx:width="0.37,0.43,0.43,0.53,0.37,0.55,0.44,0.55,0.53,0.55,0.37,0.43,0.43,0.53,0.55,0.51,0.27,0.25,0.55,0.31,0.51,0.55,0.52,0.37,0.51,0.82,0.51,0.31,0.43,0.55,0.31,0.53,0.43,0.27,0.37,0.55,0.42,0.51,0.55,0.37,0.53,0.82,0.52,0.31,0.27,0.51,0.55,0.55,0.27,0.55,0.55,0.25,0.51,0.42,0.44,0.25" style="fill:rgb(23,22,21);font-family:MinionPro-Regular;font-size:9.96px;stroke:none;">seeds and seed oil to promote their consumption in local</text>
   <text y="137.791" x="50.58,54.79,59.759,67.914,75.888,81.174,86.62,89.176,92.272,94.938,99.169,102.85419999999999,105.054,109.338,114.784,120.06280000000001,122.299,125.404,130.687,134.917,137.583,141.2682,143.532,146.628,150.321,154.69,159.946,164.2288,166.435,169.414,174.4936,176.758,179.424,184.689,187.668,191.898,195.66,201.087,205.272,208.369,211.035,216.003,221.448,225.877,228.36700000000002,230.611,238.748,243.031,246.695,251.546,255.776,258.81,262.463" svgx:width="0.42,0.51,0.82,0.82,0.53,0.55,0.27,0.31,0.27,0.43,0.37,0.55,0.44,0.55,0.53,0.55,0.31,0.53,0.43,0.27,0.37,0.55,0.31,0.37,0.44,0.53,0.43,0.55,0.31,0.51,0.55,0.27,0.55,0.31,0.43,0.37,0.55,0.44,0.31,0.27,0.51,0.55,0.44,0.25,0.55,0.82,0.44,0.37,0.5,0.43,0.31,0.37,0.23" style="fill:rgb(23,22,21);font-family:MinionPro-Regular;font-size:9.96px;stroke:none;">communities and their trade to international markets.</text>
   <text y="164.816" x="50.58,56.558,59.548,62.479,72.975,78.714,82.755,88.147,93.048,96.635,102.373,105.84140000000001,108.817,114.555,121.43,128.008,130.978,141.472,146.864,150.905,157.767,164.115,170.679" svgx:width="0.5,0.25,0.55,0.88,0.48,0.34,0.45,0.41,0.3,0.48,0.29,0.55,0.48,0.57,0.55,0.55,0.88,0.45,0.34,0.57,0.53,0.55,0.39" style="fill:rgb(23,22,21);font-family:Minion-Black;font-size:11.96px;stroke:none;">2. Material and Methods</text>
   <text y="184.706" x="50.58,55.227,57.562,60.903,63.193799999999996,66.78,72.244,74.691,79.408,84.493,87.58059999999999,91.081,99.514,104.177,107.138,111.117,114.852,117.566,122.336,124.81" svgx:width="0.47,0.23,0.34,0.23,0.55,0.55,0.25,0.49,0.53,0.31,0.55,0.88,0.49,0.31,0.4,0.37,0.27,0.49,0.25,0.23" style="fill:rgb(23,22,21);font-family:MinionPro-It;font-size:9.96px;stroke:none;">2.1. Plant Material.</text>
   <text y="184.706" x="132.13,138.349,140.905,146.222,150.50480000000002,153.962,157.007,160.8,166.092,168.649,171.69,175.3752,178.828,183.796" svgx:width="0.62,0.27,0.52,0.43,0.55,0.3,0.37,0.53,0.27,0.31,0.37,0.55,0.51,0.3" style="fill:rgb(23,22,21);font-family:MinionPro-Regular;font-size:9.96px;stroke:none;">Ripe fruits of</text>
   <text y="184.706" x="190.28,195.562,197.8528,201.439,206.046,210.033,213.662,216.92,219.889,222.482,227.656,231.904,234.497" svgx:width="0.53,0.23,0.55,0.47,0.4,0.37,0.34,0.31,0.27,0.53,0.42,0.27,0.27" style="fill:rgb(23,22,21);font-family:MinionPro-It;font-size:9.96px;stroke:none;">L. kerstingii</text>
   <text y="184.706" x="240.707,244.154,248.771,253.6514,255.35,260.292,264.954,268.44,271.902,278.643,282.873,286.446" svgx:width="0.35,0.45,0.49,0.55,0.5,0.47,0.35,0.55,0.69,0.43,0.37,0.43" style="fill:rgb(23,22,21);font-family:MinionPro-Regular;font-size:9.96px;stroke:none;">(30 kg) were</text>
   <text y="196.073" x="50.581,54.793,59.806,62.371,64.89,69.168,73.426,76.405,80.689,85.9678,89.806,93.991,97.0786,100.885,108.265,110.86,115.144,120.516,125.179,129.5614,133.405,136.852,139.416,143.602,146.684,149.241,152.184,157.476,162.732,167.0148,170.814,174.125,179.039,181.307,185.718,190.2996,192.018,199.299,201.5898,205.428,207.947,212.916,218.288,222.995,225.551,228.494,233.786,239.042,243.3248,247.115,252.066,254.334,259.23,263.8116,265.53,275.248,278.734,282.555,285.228" svgx:width="0.42,0.51,0.25,0.25,0.43,0.42,0.31,0.43,0.53,0.55,0.44,0.31,0.55,0.74,0.26,0.44,0.55,0.47,0.44,0.55,0.35,0.25,0.44,0.31,0.27,0.31,0.53,0.53,0.43,0.55,0.34,0.49,0.23,0.45,0.46,0.55,0.74,0.23,0.55,0.25,0.51,0.55,0.47,0.27,0.31,0.53,0.53,0.43,0.55,0.5,0.23,0.5,0.46,0.55,0.97,0.35,0.55,0.27,0.55" style="fill:rgb(23,22,21);font-family:MinionPro-Regular;font-size:9.96px;stroke:none;">collected at Djanga (latitude 10.37 N; longitude 4.47 W) in</text>
   <text y="207.441" x="50.581,53.686,58.97,63.2528,67.667,72.257,77.549,82.832,87.116,92.57,95.27,99.554,105.032,109.467,113.616,116.136,118.809,126.945,131.131,134.227,136.9,141.0832,145.577,149.763,154.731,160.149,164.4318,168.846,172.293,176.856,181.769,186.954,191.887,196.7674,201.261,204.96,209.244,211.917,217.147,221.7286,226.174,231.457,235.651,240.223,243.90820000000002,248.359,255.209,257.765,260.87,266.1488,270.663,275.595,280.599,285.513" svgx:width="0.31,0.53,0.43,0.55,0.47,0.53,0.53,0.44,0.55,0.27,0.44,0.55,0.55,0.42,0.25,0.27,0.82,0.44,0.31,0.27,0.42,0.55,0.42,0.51,0.55,0.43,0.55,0.35,0.46,0.49,0.52,0.49,0.49,0.55,0.37,0.44,0.27,0.55,0.46,0.55,0.53,0.44,0.46,0.37,0.55,0.69,0.27,0.31,0.53,0.55,0.49,0.49,0.49,0.52" style="fill:rgb(23,22,21);font-family:MinionPro-Regular;font-size:9.96px;stroke:none;">the Sudanian climatic zone (70–90 rainy days with 900–</text>
   <text y="218.808" x="50.581,53.974,58.664,63.644,68.5244,70.214,78.378,86.541,90.027,92.643,95.316,100.794,103.416,107.141,112.118,117.293,120.398,125.492,132.232,136.463,140.063,143.1506,145.76,151.547,156.839,160.502,165.513,168.186,173.612,177.99439999999998,180.623,185.699,190.045,193.77,198.8496,201.501,204.174,209.65200000000002,212.283,215.244,220.536,225.954,230.23680000000002,232.83,237.531,242.409,245.802,250.48319999999998,253.083,257.367,262.784,268.0628,270.696,275.385,280.263,283.467,288.417" svgx:width="0.34,0.47,0.49,0.49,0.55,0.82,0.82,0.35,0.55,0.27,0.55,0.55,0.37,0.51,0.53,0.31,0.53,0.69,0.43,0.37,0.31,0.55,0.59,0.53,0.37,0.5,0.27,0.55,0.44,0.55,0.53,0.44,0.37,0.51,0.55,0.27,0.55,0.55,0.33,0.53,0.55,0.43,0.55,0.47,0.49,0.34,0.47,0.55,0.44,0.55,0.53,0.55,0.47,0.49,0.34,0.5,0.23" style="fill:rgb(23,22,21);font-family:MinionPro-Regular;font-size:9.96px;stroke:none;">1200 mm) in southwest Burkina Faso in June 2012 and 2014.</text>
   <text y="230.175" x="50.581,57.4534,60.112,64.648,69.626,74.918,79.067,84.35,88.577,92.26219999999999,94.914,98.514,103.824,108.108,112.32,114.983,123.136,127.363,132.841,135.462,138.902,142.503,147.813,152.097,156.304,158.967,167.12,171.347,176.82500000000002,179.446,184.711,189.995,198.058,203.206,207.436,211.12120000000002,213.772,218.65,223.574,228.506,231.992,234.599,241.422,245.788,249.47320000000002,252.089,257.342,261.569,266.879,271.953,275.602,278.159,281.137,285.421" svgx:width="0.69,0.55,0.46,0.51,0.53,0.42,0.53,0.43,0.37,0.55,0.37,0.52,0.43,0.42,0.27,0.82,0.43,0.55,0.55,0.35,0.37,0.52,0.43,0.42,0.27,0.82,0.43,0.55,0.55,0.55,0.53,0.82,0.51,0.43,0.37,0.55,0.5,0.49,0.5,0.35,0.55,0.69,0.44,0.37,0.55,0.53,0.43,0.52,0.51,0.37,0.27,0.31,0.43,0.53" style="fill:rgb(23,22,21);font-family:MinionPro-Regular;font-size:9.96px;stroke:none;">A voucher specimen (specimen number 496) was deposited</text>
   <text y="241.543" x="50.581,53.25,58.728,62.322,65.427,70.71,74.99279999999999,78.558,83.841,88.074,91.769,96.881,101.165,104.927,107.483,112.773,120.94019999999999,124.544,129.513,132.501,136.083,139.188,144.472,148.75480000000002,152.32,159.223,164.672,167.273,171.809,176.039,179.675,183.33,185.886,188.956,193.5376,197.146,204.643,209.932,214.304,218.966,223.3484,226.967,230.35340000000002,233.987,239.504,243.1892,246.83,249.9,254.98,258.715,262.948,268.095,273.3738,277.042,283.747,287.143" svgx:width="0.27,0.55,0.55,0.31,0.53,0.43,0.55,0.53,0.43,0.37,0.51,0.44,0.37,0.27,0.53,0.82,0.55,0.51,0.3,0.55,0.31,0.53,0.43,0.55,0.74,0.55,0.27,0.46,0.43,0.37,0.37,0.27,0.31,0.46,0.55,0.75,0.53,0.44,0.47,0.44,0.55,0.34,0.55,0.56,0.37,0.55,0.33,0.51,0.37,0.43,0.52,0.53,0.55,0.67,0.34,0.36" style="fill:rgb(23,22,21);font-family:MinionPro-Regular;font-size:9.96px;stroke:none;">in the herbarium of the University Ouaga I Pr Joseph KI-</text>
   <text y="252.91" x="50.581,56.586,62.243,68.428,74.485,81.955,84.197,87.644,94.988,101.55,108.432,111.877" svgx:width="0.6,0.57,0.62,0.59,0.75,0.55,0.35,0.75,0.74,0.69,0.35,0.23" style="fill:rgb(23,22,21);font-family:MinionPro-Regular;font-size:9.96px;stroke:none;">ZERBO (OUA).</text>
   <text y="277.849" x="50.581,55.234,57.575,62.227,64.5178,69.796,76.122,81.144,85.129,92.798,95.517,99.252,104.022,106.512,111.726,118.045,123.274,128.044,130.375,134.779,138.037,140.756,144.1424,149.351,153.923,156.6122,161.852,164.822,169.844,173.828,179.052,183.777,187.701,191.625,196.719,200.077" svgx:width="0.47,0.23,0.47,0.23,0.55,0.63,0.51,0.4,0.79,0.27,0.38,0.49,0.25,0.55,0.66,0.53,0.49,0.25,0.44,0.34,0.27,0.34,0.55,0.47,0.27,0.55,0.31,0.51,0.4,0.55,0.47,0.4,0.4,0.51,0.34,0.23" style="fill:rgb(23,22,21);font-family:MinionPro-It;font-size:9.96px;stroke:none;">2.2. Chemical Analysis of the Seeds.</text>
   <text y="277.849" x="207.407,218.045,222.3278,227.45,231.145,235.418,239.691,244.9698,250.131,255.234,258.806,263.73,268.428,271.137,279.273,283.459,286.438" svgx:width="1.07,0.43,0.55,0.37,0.43,0.43,0.53,0.55,0.52,0.37,0.51,0.47,0.27,0.82,0.44,0.31,0.43" style="fill:rgb(23,22,21);font-family:MinionPro-Regular;font-size:9.96px;stroke:none;">Th esee dproximate</text>
   <text y="289.217" x="50.581,54.798,59.767,67.741,73.051,78.135,81.794,84.35,87.447,90.12,95.088,100.56599999999999,105.312,112.134,116.51,120.1952,124.98,129.264,134.69,139.119,141.566,146.142,150.33,154.567,159.8458,164.629,167.491,172.504,175.079,177.598,182.522,189.371,192.044,197.417,202.0982,206.876,209.982,215.305,219.58780000000002,224.341,227.941,231.047,235.33,240.748,246.011,250.295,253.868,259.1468,263.93,268.898,276.846,281.063,283.736,288.164" svgx:width="0.42,0.51,0.82,0.52,0.51,0.37,0.27,0.31,0.27,0.51,0.55,0.55,0.69,0.44,0.37,0.55,0.44,0.55,0.44,0.25,0.46,0.42,0.43,0.53,0.55,0.3,0.51,0.25,0.25,0.51,0.69,0.27,0.55,0.47,0.55,0.31,0.53,0.43,0.55,0.37,0.31,0.44,0.55,0.53,0.44,0.37,0.53,0.55,0.51,0.8,0.42,0.27,0.44,0.25" style="fill:rgb(23,22,21);font-family:MinionPro-Regular;font-size:9.96px;stroke:none;">composition was analyzed following the standard official</text>
   <text y="300.584" x="50.581,58.723,62.941,66.046,71.329,76.504,81.733,85.4182,88.681,93.649,96.637,99.905,103.01,108.313,112.5958,115.846,122.569,126.169,129.904,135.079,139.276,141.976,146.161,149.258,151.911,156.879,162.357,165.627,170.595,173.583,176.841,184.284,192.217,196.415,199.114,203.543,206.03300000000002,209.375,216.233,221.666,226.094,228.598,233.154,236.25,238.923,243.162,247.59,250.08,253.396,260.074,265.377,269.594,277.736,280.389,284.029,287.05" svgx:width="0.82,0.43,0.31,0.53,0.51,0.53,0.37,0.55,0.51,0.3,0.55,0.31,0.53,0.43,0.55,0.69,0.37,0.37,0.51,0.42,0.27,0.44,0.31,0.27,0.51,0.55,0.55,0.51,0.3,0.55,0.75,0.8,0.42,0.27,0.44,0.25,0.55,0.69,0.55,0.44,0.25,0.46,0.31,0.27,0.42,0.44,0.25,0.55,0.67,0.53,0.43,0.82,0.27,0.37,0.31,0.37" style="fill:rgb(23,22,21);font-family:MinionPro-Regular;font-size:9.96px;stroke:none;">methods of the Association of Offici alAnalytic alChemists</text>
   <text y="311.951" x="50.581,54.02,60.626,67.71,74.316,80.933,84.41900000000001,88.907,92.336,97.06,100.49,102.7808,107.294,115.445,120.414,123.076,126.676,129.619,134.911,138.484,142.76680000000002,147.223,152.119,156.7006,161.227,165.831,170.197,174.481,179.655,184.938,193.1052,197.619,202.542,207.078,211.305,216.78300000000002,221.276,224.715,232.867,237.093,240.198,245.51,250.685,255.9638,260.459,265.211,269.945,274.472,276.736,280.048,284.951,288.39" svgx:width="0.35,0.69,0.75,0.69,0.67,0.35,0.55,0.34,0.47,0.34,0.23,0.55,0.82,0.51,0.27,0.37,0.31,0.53,0.37,0.43,0.55,0.51,0.46,0.55,0.46,0.44,0.42,0.53,0.53,0.82,0.55,0.51,0.46,0.43,0.55,0.55,0.35,0.82,0.43,0.31,0.53,0.51,0.53,0.55,0.49,0.47,0.45,0.23,0.34,0.49,0.35,0.23" style="fill:rgb(23,22,21);font-family:MinionPro-Regular;font-size:9.96px;stroke:none;">(AOAC) [8]: moisture by vacuum oven (method 925.10),</text>
   <text y="323.319" x="50.581,54.787,58.585,63.867,69.119,73.4018,75.617,78.569,82.754,85.8416,88.055,92.951,97.53259999999999,99.791,104.651,109.575,114.269,119.642,122.154,126.38,129.4676,131.69,139.818,144.044,147.149,152.462,157.636,162.91479999999999,165.142,168.589,176.74,180.967,184.072,189.355,194.53,199.8088,202.044,206.968,211.99,216.894,219.157,223.577,228.436,231.875,234.1658,236.411,239.39,244.368,247.473,251.901,254.39100000000002,256.671,262.126,264.682,267.779,271.351,276.436,281.017,285.247" svgx:width="0.42,0.37,0.53,0.53,0.43,0.55,0.3,0.44,0.31,0.55,0.51,0.46,0.55,0.47,0.51,0.47,0.53,0.25,0.43,0.31,0.55,0.82,0.43,0.31,0.53,0.51,0.53,0.55,0.35,0.82,0.43,0.31,0.53,0.51,0.53,0.55,0.49,0.5,0.49,0.23,0.45,0.49,0.35,0.23,0.55,0.31,0.51,0.31,0.44,0.25,0.55,0.55,0.27,0.31,0.37,0.51,0.47,0.43,0.55" style="fill:rgb(23,22,21);font-family:MinionPro-Regular;font-size:9.96px;stroke:none;">crude fat by Soxhlet method (method 960.39), total nitrogen</text>
   <text y="334.686" x="50.581,55.549,59.2342,63.775,67.988,71.785,77.074,82.332,86.61479999999999,91.107,96.21,99.782,104.76,107.738,111.969,114.637,120.115,124.608,129.504,134.0856,138.62,144.867,147.468,151.7,154.219,159.477,163.906,169.278,171.735,174.0258,178.549,183.814,187.468,190.136,195.509,200.19019999999998,204.698,209.628,211.897,216.632,221.114,225.695,230.066,233.7512,238.256,242.6384,247.166,251.378,256.346,261.576,266.112,270.342,273.978,277.633,280.301,285.269" svgx:width="0.51,0.37,0.55,0.42,0.37,0.53,0.53,0.43,0.55,0.52,0.37,0.51,0.31,0.43,0.27,0.55,0.55,0.51,0.46,0.55,0.67,0.26,0.43,0.25,0.53,0.44,0.53,0.25,0.23,0.55,0.53,0.37,0.27,0.55,0.47,0.55,0.5,0.23,0.47,0.45,0.55,0.44,0.37,0.55,0.44,0.55,0.42,0.51,0.55,0.46,0.43,0.37,0.37,0.27,0.51,0.55" style="fill:rgb(23,22,21);font-family:MinionPro-Regular;font-size:9.96px;stroke:none;">or crude protein by Kjeldahl, using 6.25 as a conversion</text>
   <text y="346.053" x="50.581,53.533,57.906,62.19,65.169,70.138,73.8232,78.661,81.646,86.7256,91.555,95.794,100.223,102.742,107.026,112.372,114.919,119.105,122.084,126.3668,131.147,136.249,139.822,144.799,147.785,152.015,154.688,160.166,164.958,169.17,174.138,179.403,182.382,186.612,191.878,194.9656,199.744,203.191,211.298,215.528,218.633,223.916,229.091,234.3698,239.162,244.022,248.612,253.058,255.326,260.313,265.172,268.62,270.9108,275.721,280.042,285.438" svgx:width="0.3,0.44,0.42,0.31,0.51,0.37,0.55,0.31,0.51,0.55,0.42,0.44,0.25,0.42,0.53,0.25,0.44,0.31,0.43,0.55,0.52,0.37,0.51,0.31,0.43,0.27,0.55,0.55,0.42,0.51,0.55,0.31,0.43,0.55,0.31,0.55,0.35,0.82,0.43,0.31,0.53,0.51,0.53,0.55,0.49,0.46,0.49,0.23,0.49,0.49,0.35,0.23,0.55,0.44,0.55,0.53" style="fill:rgb(23,22,21);font-family:MinionPro-Regular;font-size:9.96px;stroke:none;">factor to calculate protein content (method 979.09), and</text>
   <text y="357.421" x="50.581,54.946,58.593,63.87180000000001,66.81,71.706,76.2876,79.194,81.867,86.583,92.037,94.594,97.69,100.351,105.32,110.79799999999999,113.635,117.082,125.233,129.458,132.563,137.846,143.021,148.29979999999998,151.166,155.919,160.635,165.129,167.391,172.215,176.71,180.148,182.4388,185.331,192.045,196.329,200.028,205.176,210.189,215.283,219.774,225.025,228.712,232.898,235.876,240.1588,243.014,247.226,252.194,257.459,260.438,264.668,269.934,273.02160000000003,275.873,282.689,287.053" svgx:width="0.44,0.37,0.53,0.55,0.51,0.46,0.55,0.27,0.47,0.55,0.27,0.31,0.27,0.51,0.55,0.55,0.35,0.82,0.43,0.31,0.53,0.51,0.53,0.55,0.49,0.47,0.45,0.23,0.49,0.45,0.35,0.23,0.55,0.67,0.44,0.37,0.51,0.51,0.53,0.46,0.53,0.37,0.44,0.31,0.43,0.55,0.42,0.51,0.55,0.31,0.43,0.55,0.31,0.55,0.69,0.44,0.37" style="fill:rgb(23,22,21);font-family:MinionPro-Regular;font-size:9.96px;stroke:none;">ash by ignition (method 923.03). Carbohydrate content was</text>
   <text y="368.788" x="50.581,54.805,58.406,61.502,64.175,72.324,76.51,79.488,83.772,89.05080000000001,92.034,96.93,101.5116,104.518,109.774,112.434,117.933,122.157,125.73,129.954,135.394,139.598,143.88080000000002,146.843,151.811,154.799,157.76,165.909,170.202,174.486,179.964,182.937,187.54,191.968,194.371,199.663,203.887,207.534,209.82479999999998,212.808,215.913,221.223,225.409,228.4966,231.448,234.094,237.74,240.0308,243.024,246.335,251.339,256.2194,259.26,262.707,266.307,271.599,279.76619999999997,282.777,287.746" svgx:width="0.43,0.37,0.31,0.27,0.82,0.44,0.31,0.43,0.53,0.55,0.51,0.46,0.55,0.53,0.27,0.56,0.43,0.37,0.43,0.55,0.42,0.43,0.55,0.51,0.3,0.55,0.82,0.43,0.44,0.55,0.55,0.46,0.44,0.25,0.53,0.43,0.37,0.23,0.55,0.31,0.53,0.44,0.31,0.55,0.27,0.37,0.23,0.55,0.34,0.49,0.49,0.55,0.35,0.37,0.53,0.82,0.55,0.51,0.3" style="fill:rgb(23,22,21);font-family:MinionPro-Regular;font-size:9.96px;stroke:none;">estimated by differenc eo fmea nvalues ,tha tis ,10 0(su mof</text>
   <text y="380.155" x="50.581,55.891,60.121,63.694,67.906,72.137,77.402,80.508,84.827,89.408,93.638,97.3232,99.56,104.528,107.516,109.731,117.858,122.827,125.473,129.073,132.016,137.303,140.876,145.043,147.3338,149.561,154.664,158.237,163.214,166.193,170.424,173.091,178.538,180.8288,183.047,185.564,188.121,193.223,195.896,201.09,203.3808,205.626,209.91,215.327,220.6058,222.842,227.189,230.842,236.159,239.64499999999998,241.856,245.292,250.151,253.585" svgx:width="0.52,0.43,0.37,0.42,0.43,0.55,0.31,0.44,0.47,0.43,0.37,0.55,0.51,0.3,0.55,0.82,0.51,0.27,0.37,0.31,0.53,0.37,0.43,0.23,0.55,0.52,0.37,0.51,0.31,0.43,0.27,0.55,0.23,0.55,0.25,0.27,0.52,0.27,0.53,0.23,0.55,0.44,0.55,0.53,0.55,0.44,0.37,0.53,0.35,0.55,0.34,0.49,0.34,0.23" style="fill:rgb(23,22,21);font-family:MinionPro-Regular;font-size:9.96px;stroke:none;">percentages of moisture, protein, lipid, and ash) [9].</text>
   <text y="405.095" x="50.581,55.235,57.575,62.173,64.4638,66.511,74.962,77.555,82.765,86.752,90.208,94.978,97.46799999999999,99.452,105.806,110.398,115.483,118.452,122.439,127.524,130.6116,132.564,137.157,139.8462,141.846,146.572,150.467,154.362,159.4416,161.419,166.639,169.087,173.68,178.9,182.546" svgx:width="0.47,0.23,0.46,0.23,0.55,0.88,0.27,0.53,0.4,0.37,0.49,0.25,0.55,0.63,0.47,0.53,0.31,0.4,0.53,0.31,0.55,0.47,0.27,0.55,0.47,0.4,0.4,0.51,0.55,0.53,0.25,0.47,0.53,0.37,0.23" style="fill:rgb(23,22,21);font-family:MinionPro-It;font-size:9.96px;stroke:none;">2.3. Mineral Content of Seed Flour.</text>
   <text y="405.095" x="189.848,195.023,200.1026,202.069,207.322,211.548,214.527,218.753,222.515,230.666,233.328,238.77,243.05280000000002,244.97,248.076,253.359,257.6418,259.559,267.723,270.385,275.826,280.053,283.741,288.169" svgx:width="0.62,0.51,0.55,0.53,0.43,0.31,0.43,0.37,0.82,0.27,0.55,0.43,0.55,0.31,0.53,0.43,0.55,0.82,0.27,0.55,0.43,0.37,0.44,0.25" style="fill:rgb(23,22,21);font-family:MinionPro-Regular;font-size:9.96px;stroke:none;">To determine the mineral</text>
   <text y="416.462" x="50.581,54.793,59.762,65.027,68.006,72.236,77.501,80.5886,84.647,89.615,92.603,96.671,100.406,104.663,108.92,114.1988,118.298,123.631,128.608,133.921,136.991,139.2818,143.372,147.7544,151.859,156.405,158.673,163.5534,165.252,169.9332,174.028,177.707,181.991,189.965,195.112,197.632,201.9148,205.975,212.797,217.144,220.82920000000001,224.919,227.592,233.01,237.222,239.915,245.333,249.563,253.262,257.447,260.426,264.683,269.9618,274.034,276.727,282.205,286.294" svgx:width="0.42,0.51,0.55,0.31,0.43,0.55,0.31,0.55,0.51,0.3,0.55,0.37,0.43,0.43,0.53,0.55,0.53,0.51,0.53,0.37,0.23,0.55,0.44,0.55,0.45,0.23,0.49,0.55,0.47,0.55,0.37,0.44,0.82,0.52,0.25,0.43,0.55,0.69,0.44,0.37,0.55,0.27,0.55,0.42,0.27,0.55,0.43,0.37,0.44,0.31,0.43,0.53,0.55,0.27,0.55,0.55,0.44" style="fill:rgb(23,22,21);font-family:MinionPro-Regular;font-size:9.96px;stroke:none;">content of seed flour , a5. 0 gsampl ewa sincinerate di na</text>
   <text y="427.829" x="50.581,53.596,58.888,62.65,68.076,72.45,76.662,80.9448,83.115,87.3,90.38759999999999,92.583,97.048,101.691" svgx:width="0.3,0.53,0.37,0.55,0.44,0.42,0.43,0.55,0.44,0.31,0.55,0.45,0.45,0.49" style="fill:rgb(23,22,21);font-family:MinionPro-Regular;font-size:9.96px;stroke:none;">furnace at 550</text>
   <text y="423.44" x="106.605" svgx:width="0.38" style="fill:rgb(23,22,21);font-family:MinionMath-Capt;font-size:6.97px;stroke:none;">∘</text>
   <text y="427.823" x="109.782,116.45519999999999,118.647,122.931,128.373,133.65179999999998,135.87,138.975,144.259,148.5418,150.72,154.293,158.52,162.169,164.832,169.971,175.254,179.481,183.1662,185.385,192.126,196.353,199.926,204.2088,206.396,211.653,214.316,217.916,221.651,226.664,229.112,233.648,237.932,243.21079999999998,245.438,248.101,253.579,255.787,260.431,265.3114,267.01,275.162,280.5404,282.759,287.727" svgx:width="0.67,0.55,0.44,0.55,0.53,0.55,0.31,0.53,0.43,0.55,0.37,0.43,0.37,0.27,0.53,0.53,0.43,0.37,0.55,0.69,0.43,0.37,0.43,0.55,0.53,0.27,0.37,0.37,0.51,0.25,0.46,0.43,0.53,0.55,0.27,0.55,0.55,0.45,0.49,0.55,0.82,0.54,0.55,0.51,0.3" style="fill:rgb(23,22,21);font-family:MinionPro-Regular;font-size:9.96px;stroke:none;">C and the residues were dissolved in 50 mL of</text>
   <text y="439.19" x="50.58,55.492,57.763,62.245,63.955,75.358,82.99,90.316" svgx:width="0.49,0.23,0.45,0.55,0.89,0.77,0.74,0.75" style="fill:rgb(23,22,21);font-family:MinionPro-Regular;font-size:9.96px;stroke:none;">0.5 MHNO</text>
   <text y="441.584" x="97.758" svgx:width="0.49" style="fill:rgb(23,22,21);font-family:MinionMath-Capt;font-size:6.97px;stroke:none;">3</text>
   <text y="439.19" x="104.184,107.919,112.932,115.343,120.524,123.62,126.293,131.264,136.719,139.00979999999998,141.489,152.127,156.40980000000002,158.886,163.098,168.069,173.487,177.699,181.929,187.194,190.291,193.99,198.175,201.271,203.944,208.916,214.256,217.9412,220.394,225.362,228.35,230.835,237.548,241.922,244.2128,246.719,253.856,258.23,260.5208,263.036,269.74,272.0308,274.546,283.42,288.397" svgx:width="0.37,0.51,0.25,0.53,0.31,0.27,0.51,0.55,0.23,0.55,1.07,0.43,0.55,0.42,0.51,0.55,0.42,0.43,0.55,0.31,0.37,0.44,0.31,0.27,0.51,0.55,0.37,0.55,0.51,0.3,0.55,0.67,0.44,0.23,0.55,0.74,0.44,0.23,0.55,0.67,0.23,0.55,0.89,0.47,0.23" style="fill:rgb(23,22,21);font-family:MinionPro-Regular;font-size:9.96px;stroke:none;">solution. Th econcentration so fCa ,Na ,K ,Mg,</text>
   <text y="450.557" x="50.58,56.718,62.173,64.4638,66.223,70.506,75.928,81.2068,82.957,88.042,92.3248,94.054,100.795,105.025,108.597,112.87979999999999,114.61,119.842,124.048,127.059,131.265,135.027,143.159,145.801,151.222,155.506,160.7848,162.526,167.791,171.42,174.062,179.483,184.1642,185.918,190.103,193.082,198.051,206.214,208.856,213.0392,214.832,218.46,223.77,228.054,232.338,235.434,239.007,243.984,249.132,254.424,259.401,262.412,267.38,275.512,279.718,282.729,286.935" svgx:width="0.6,0.55,0.23,0.55,0.44,0.55,0.53,0.55,0.53,0.43,0.55,0.69,0.43,0.37,0.43,0.55,0.53,0.43,0.31,0.43,0.37,0.82,0.27,0.55,0.43,0.53,0.55,0.53,0.37,0.27,0.55,0.47,0.55,0.44,0.31,0.51,0.82,0.27,0.42,0.55,0.37,0.52,0.43,0.42,0.31,0.37,0.51,0.52,0.53,0.51,0.31,0.51,0.82,0.43,0.31,0.43,0.37" style="fill:rgb(23,22,21);font-family:MinionPro-Regular;font-size:9.96px;stroke:none;">Zn, and Fe were determined using atomic spectrophotometer</text>
   <text y="461.925" x="50.58,54.026,60.039,64.323,68.085,70.754,75.037,80.515,85.343,92.226,99.109,103.609,108.667,113.5474,118.424,123.693,128.414,131.89999999999998,136.703,140.996,146.056,149.791,154.759,158.557,163.669,166.765,169.434,174.402,179.851,182.1418,186.952,189.815,194.828,197.402,199.922,204.845,211.694,214.363,219.736,224.41719999999998,229.241,232.346,237.665,241.9478,246.737,254.895,259.128,262.234,267.517,272.691,277.96979999999996,282.789,287.758" svgx:width="0.35,0.7,0.44,0.37,0.27,0.44,0.55,0.55,0.69,0.69,0.47,0.5,0.49,0.55,0.53,0.47,0.35,0.55,0.44,0.51,0.37,0.51,0.37,0.52,0.31,0.27,0.51,0.55,0.23,0.55,0.3,0.51,0.25,0.25,0.51,0.69,0.27,0.55,0.47,0.55,0.31,0.53,0.43,0.55,0.82,0.43,0.31,0.53,0.51,0.53,0.55,0.51,0.3" style="fill:rgb(23,22,21);font-family:MinionPro-Regular;font-size:9.96px;stroke:none;">(Varian AA240 FS) absorption, following the method of</text>
   <text y="473.292" x="50.58,56.098,58.77,64.279,69.562,73.788,76.45,80.023,85.1026,88.168,92.394,95.4816,98.523,102.952,105.408,107.6988,110.763,114.2,117.512,122.426,125.855,128.1458,131.21,138.0824,141.181,145.42,149.849,152.368,155.03,159.972,163.66,167.845,170.941,173.614,178.583,184.061,187.088,191.372,196.664,200.651,205.187,209.46980000000002,212.494,219.317,223.682,227.3672,230.414,235.517,239.09,243.316,248.59,252.874,256.446,260.73,266.0088,269.064,274.346,277.994,280.656,286.029" svgx:width="0.56,0.27,0.55,0.53,0.43,0.27,0.37,0.51,0.55,0.43,0.31,0.55,0.44,0.25,0.23,0.55,0.34,0.34,0.49,0.34,0.23,0.55,0.69,0.55,0.42,0.44,0.25,0.27,0.51,0.37,0.44,0.31,0.27,0.51,0.55,0.55,0.42,0.53,0.37,0.46,0.43,0.55,0.69,0.44,0.37,0.55,0.52,0.37,0.43,0.52,0.44,0.37,0.43,0.53,0.55,0.53,0.37,0.27,0.55,0.47" style="fill:rgb(23,22,21);font-family:MinionPro-Regular;font-size:9.96px;stroke:none;">Pinheiro et al. [10]. A calibration curve was prepared using</text>
   <text y="484.659" x="50.58,54.178,57.283,61.598,66.989,72.272,76.556,80.128,85.4068,87.643,95.744,99.974,103.079,107.508,109.99799999999999,112.278,116.013,121.035,123.438,128.612,131.709,134.382,139.35,144.741,148.395" svgx:width="0.37,0.31,0.44,0.55,0.53,0.44,0.37,0.53,0.55,0.82,0.43,0.31,0.44,0.25,0.55,0.37,0.51,0.25,0.53,0.31,0.27,0.51,0.55,0.37,0.23" style="fill:rgb(23,22,21);font-family:MinionPro-Regular;font-size:9.96px;stroke:none;">standard metal solutions.</text>
   <text y="509.599" x="50.58,55.234,57.574,62.425,64.7158,66.546,71.272,75.2,79.128,84.2076,85.968,92.287,99.955,102.547,107.777,112.4582,114.238,120.557,124.363,127.045,132.12460000000002,133.886,138.602,143.845,148.9246,150.694,155.42,159.348,163.276,168.3556,170.117,177.209,179.873,182.363,184.139,189.071,193.734,196.794,199.855,204.23739999999998,206.038,212.356,216.163,218.826,223.9056,225.666,231.128,234.584,239.21,244.443,246.867,250.796,254.153" svgx:width="0.47,0.23,0.49,0.23,0.55,0.47,0.4,0.4,0.51,0.55,0.66,0.79,0.27,0.53,0.47,0.55,0.66,0.38,0.27,0.51,0.55,0.49,0.53,0.51,0.55,0.47,0.4,0.4,0.51,0.55,0.71,0.27,0.25,0.55,0.53,0.49,0.31,0.31,0.44,0.55,0.66,0.38,0.27,0.51,0.55,0.55,0.37,0.47,0.53,0.25,0.4,0.34,0.23" style="fill:rgb(23,22,21);font-family:MinionPro-It;font-size:9.96px;stroke:none;">2.4. Seed Amino Acid and Seed Oil Fatty Acid Profiles.</text>
   <text y="509.599" x="261.434,268.883,276.84,281.061,283.738,288.166" svgx:width="0.75,0.8,0.42,0.27,0.44,0.25" style="fill:rgb(23,22,21);font-family:MinionPro-Regular;font-size:9.96px;stroke:none;">Official</text>
   <text y="520.966" x="50.58,58.723,62.94,66.045,71.328,76.503,81.732,85.4172,88.68,93.649,96.637,99.904,103.009,108.312,112.59479999999999,115.845,122.568,126.168,129.903,135.078,139.275,141.975,146.16,149.257,151.91,156.878,162.356,165.626,170.595,173.583,176.84,184.283,192.217,196.414,199.114,203.542,206.032,209.374,216.232,221.665,226.093,228.597,233.153,236.249,238.922,243.161,247.59,250.08,253.395,260.073,265.376,269.593,277.735,280.389,284.028,287.05" svgx:width="0.82,0.43,0.31,0.53,0.51,0.53,0.37,0.55,0.51,0.3,0.55,0.31,0.53,0.43,0.55,0.69,0.37,0.37,0.51,0.42,0.27,0.44,0.31,0.27,0.51,0.55,0.55,0.51,0.3,0.55,0.75,0.8,0.42,0.27,0.44,0.25,0.55,0.69,0.55,0.44,0.25,0.46,0.31,0.27,0.42,0.44,0.25,0.55,0.67,0.53,0.43,0.82,0.27,0.37,0.31,0.37" style="fill:rgb(23,22,21);font-family:MinionPro-Regular;font-size:9.96px;stroke:none;">methods of the Association of Offici alAnalytic alChemists</text>
   <text y="532.333" x="50.58,57.321,61.551,65.124,69.40679999999999,73.214,78.494,82.229,86.513,91.79180000000001,95.63,98.492,103.461,107.1462,111.002,114.108,119.418,123.7008,127.499,132.75,136.974,139.953,144.177,147.939,156.088,158.748,164.188,168.373,171.469,174.142,179.111,184.589,188.399,193.367,196.355,200.163,203.898,208.182,212.465,217.7438,221.582,226.882,231.86,237.14,240.8252,244.691,248.974,257.138,259.798,265.237,270.31660000000005,274.157,278.53,282.735,285.395" svgx:width="0.69,0.43,0.37,0.43,0.55,0.53,0.37,0.43,0.53,0.55,0.3,0.51,0.37,0.55,0.31,0.53,0.43,0.55,0.53,0.43,0.31,0.43,0.37,0.82,0.27,0.55,0.44,0.31,0.27,0.51,0.55,0.55,0.51,0.3,0.55,0.37,0.43,0.43,0.53,0.55,0.53,0.51,0.53,0.37,0.55,0.44,0.82,0.27,0.55,0.51,0.55,0.44,0.42,0.27,0.53" style="fill:rgb(23,22,21);font-family:MinionPro-Regular;font-size:9.96px;stroke:none;">were used for the determination of seed flou ramin oacid</text>
   <text y="543.701" x="50.58,54.024,62.181,66.412,69.517,74.834,80.009,85.2878,87.541,92.401,97.064,101.698,103.967,108.583,113.492,116.97800000000001,119.243,123.527,128.945,134.22379999999998,136.487,140.222,144.453,148.684,153.9628,156.235,161.203,163.93,166.42000000000002,168.736,171.688,175.873,178.816,181.851,186.4326,188.71,193.08,197.291,199.958,205.2368,207.509,210.953,219.11,223.341,226.446,231.763,236.938,242.195,245.8802,248.126,253.058,257.982,262.91,265.179,270.174,275.106,277.3968,279.669,286.446" svgx:width="0.35,0.82,0.43,0.31,0.53,0.51,0.53,0.55,0.49,0.47,0.47,0.23,0.45,0.49,0.35,0.55,0.44,0.55,0.53,0.55,0.37,0.43,0.43,0.53,0.55,0.51,0.27,0.25,0.55,0.3,0.44,0.31,0.31,0.46,0.55,0.44,0.42,0.27,0.53,0.55,0.35,0.82,0.43,0.31,0.53,0.51,0.53,0.37,0.55,0.49,0.49,0.5,0.23,0.49,0.5,0.23,0.55,0.67,0.43" style="fill:rgb(23,22,21);font-family:MinionPro-Regular;font-size:9.96px;stroke:none;">(method 982.30) and seed oil fatty acid (methods 996.06, Ce</text>
   <text y="555.068" x="50.58,55.216,58.765,63.797,68.729,71.0198,74.138,79.061,83.912,88.439,90.714,95.591,100.038,102.3288,105.446,109.73,115.148,120.4268,123.536,128.46,133.302,137.748,140.022,144.369,148.875,152.361,155.463,160.566,164.139,169.107,174.489,177.013,181.25,184.9352,188.026,191.466,194.837,198.207,201.647,203.93779999999998,207.056,212.717,216.318,220.053,224.283,229.548,232.645,235.318,239.746,242.23600000000002,245.398,249.682,257.844,260.517,265.97,271.04960000000005,274.169,278.545,282.763,285.435" svgx:width="0.47,0.36,0.5,0.5,0.23,0.55,0.49,0.5,0.45,0.23,0.5,0.49,0.23,0.55,0.44,0.55,0.53,0.55,0.49,0.5,0.49,0.23,0.45,0.45,0.35,0.55,0.52,0.37,0.51,0.54,0.25,0.43,0.37,0.55,0.34,0.34,0.34,0.34,0.23,0.55,0.57,0.37,0.37,0.43,0.55,0.31,0.27,0.44,0.25,0.55,0.44,0.82,0.27,0.55,0.51,0.55,0.44,0.42,0.27,0.53" style="fill:rgb(23,22,21);font-family:MinionPro-Regular;font-size:9.96px;stroke:none;">2-66, 965.49, and 969.33) profile s[11] .Essentia lamin oacid</text>
   <text y="566.435" x="50.58,54.315,58.527,63.496,67.068,71.35079999999999,73.809,80.631,85.006,88.6912,91.18,95.395,99.823,102.345,106.629,111.975,114.522,118.707,121.686,125.921,131.1998,133.697,140.523,143.079,146.184,151.4628,154.005,157.578,161.808,164.67,168.9,172.473,176.703,182.153,186.369,190.6518,193.109,196.088,201.1676,203.694,206.799,212.12,216.4028,218.861,223.361,229.967,237.41,240.709,250.383,257.898,265.341,268.64,275.973,283.376" svgx:width="0.37,0.42,0.51,0.37,0.43,0.55,0.69,0.44,0.37,0.55,0.42,0.44,0.25,0.42,0.53,0.25,0.44,0.31,0.43,0.53,0.55,0.69,0.27,0.31,0.53,0.55,0.37,0.43,0.3,0.43,0.37,0.43,0.55,0.42,0.43,0.55,0.31,0.51,0.55,0.31,0.53,0.43,0.55,0.53,0.69,0.75,0.33,0.97,0.77,0.75,0.33,0.74,0.74,0.74" style="fill:rgb(23,22,21);font-family:MinionPro-Regular;font-size:9.96px;stroke:none;">score was calculated with reference to the FAO/WHO/UNU</text>
   <text y="577.803" x="50.58,54.169,58.399,61.24,65.47,69.059,73.289,78.707,82.919,87.20179999999999,89.407,93.691,101.855,104.528,109.945,115.02459999999999,117.272,121.645,125.858,128.531,133.8098,136.054,141.329,145.514,148.445,151.424,155.654,159.416,164.894,167.111,170.547,173.94,178.575,181.9614,184.271,188.618,192.3032,194.54,197.402,202.415,204.99,207.509,212.433,219.255,222.909" svgx:width="0.37,0.43,0.3,0.43,0.37,0.43,0.55,0.42,0.43,0.55,0.44,0.82,0.27,0.55,0.51,0.55,0.44,0.42,0.27,0.53,0.55,0.52,0.44,0.31,0.31,0.43,0.37,0.55,0.55,0.34,0.34,0.47,0.34,0.55,0.44,0.37,0.55,0.3,0.51,0.25,0.25,0.51,0.69,0.37,0.23" style="fill:rgb(23,22,21);font-family:MinionPro-Regular;font-size:9.96px;stroke:none;">reference amino acid pattern [12] as follows:</text>
   <text y="607.404" x="65.979,72.857,81.009,83.672,89.115,94.1946,97.503,101.877,106.084,108.747,114.0258,117.324,121.059,125.266,130.234,133.807" svgx:width="0.69,0.82,0.27,0.55,0.51,0.55,0.44,0.42,0.27,0.53,0.55,0.37,0.42,0.51,0.37,0.43" style="fill:rgb(23,22,21);font-family:MinionPro-Regular;font-size:9.96px;stroke:none;">Amino acid score</text>
   <text y="607.404" x="140.797" svgx:width="0.59" style="fill:rgb(23,22,21);font-family:MinionMath-Regular;font-size:9.96px;stroke:none;">=</text>
   <text y="600.915" x="162.188,167.363,171.593,175.193,178.28060000000002,181.565,185.849,194.013,196.686,202.103,207.1826,210.492,214.866,219.078,221.751" svgx:width="0.62,0.43,0.37,0.31,0.55,0.44,0.82,0.27,0.55,0.51,0.55,0.44,0.42,0.27,0.53" style="fill:rgb(23,22,21);font-family:MinionPro-Regular;font-size:9.96px;stroke:none;">Test amino acid</text>
  </g>
  <path style="fill:none;stroke:rgb(23,22,21);stroke-width:1.0;" d="M150.620 604.860 L238.590 604.860 "/>
  <g begin="text">
   <text y="614.447" x="150.615,156.825,161.055,163.917,168.147,171.72,175.95,181.39,185.596,189.8788,193.155,197.439,205.59,208.251,213.691,218.7706,222.08,226.444,230.65,233.311" svgx:width="0.62,0.43,0.3,0.43,0.37,0.43,0.55,0.42,0.43,0.55,0.44,0.82,0.27,0.55,0.51,0.55,0.44,0.42,0.27,0.53" style="fill:rgb(23,22,21);font-family:MinionPro-Regular;font-size:9.96px;stroke:none;">Reference amino acid</text>
   <text y="607.4" x="242.001,247.8774,250.065,254.847,259.629,264.411" svgx:width="0.59,0.55,0.48,0.48,0.48,0.23" style="fill:rgb(23,22,21);font-family:MinionMath-Regular;font-size:9.96px;stroke:none;">× 100.</text>
   <text y="606.735" x="280.422,283.868,287.234" svgx:width="0.35,0.34,0.35" style="fill:rgb(23,22,21);font-family:MinionPro-Regular;font-size:9.96px;stroke:none;">(1)</text>
   <text y="638.181" x="50.581,55.227,57.562,62.139,64.4298,68.187,73.651,78.493,82.89,86.148,88.862,92.597,97.273,100.963,105.986,109.973,117.641,120.323,124.058,128.828,131.318,135.011,141.329,146.558,151.328,153.66,158.061,161.319,164.073,167.45940000000002,171.147,175.719,178.4082,182.118,186.843,190.767,194.692,199.7716,203.449,210.496,213.16,215.635" svgx:width="0.47,0.23,0.46,0.23,0.55,0.55,0.51,0.44,0.34,0.27,0.38,0.47,0.38,0.51,0.4,0.79,0.27,0.38,0.49,0.25,0.55,0.66,0.53,0.49,0.25,0.44,0.34,0.27,0.34,0.55,0.47,0.27,0.55,0.47,0.4,0.4,0.51,0.55,0.71,0.27,0.25,0.23" style="fill:rgb(23,22,21);font-family:MinionPro-It;font-size:9.96px;stroke:none;">2.5. Physicochemical Analysis of Seed Oil.</text>
   <text y="638.181" x="222.976,230.416,238.365,242.577,245.245,249.673,252.163,255.856,264.013,268.245,271.351,276.634,281.808,287.038" svgx:width="0.75,0.8,0.42,0.27,0.44,0.25,0.55,0.82,0.43,0.31,0.53,0.51,0.53,0.37" style="fill:rgb(23,22,21);font-family:MinionPro-Regular;font-size:9.96px;stroke:none;">Offici almethods</text>
   <text y="649.548" x="50.581,55.549,58.537,62.704,65.809,71.093,75.3758,79.535,86.393,94.553,98.789,102.55,105.223,109.439,113.723,119.201,123.379,130.822,133.549,136.03900000000002,140.272,146.898,152.219,156.454,164.614,167.285,170.886,173.926,177.174,179.36520000000002,183.6,188.46,193.635,197.847,200.518,204.753,207.792,212.3736,216.585,223.326,227.556,231.129,235.4118,239.58,244.871,248.606,252.841,258.1198,262.31,265.172,270.14,273.8252,278.043,281.148,286.469" svgx:width="0.51,0.3,0.55,0.31,0.53,0.43,0.55,0.69,0.82,0.43,0.37,0.27,0.42,0.44,0.55,0.55,0.75,0.27,0.25,0.55,0.67,0.53,0.43,0.82,0.27,0.37,0.31,0.37,0.22,0.55,0.47,0.51,0.42,0.27,0.43,0.31,0.46,0.55,0.69,0.43,0.37,0.43,0.55,0.53,0.37,0.43,0.53,0.55,0.3,0.51,0.37,0.55,0.31,0.53,0.43" style="fill:rgb(23,22,21);font-family:MinionPro-Regular;font-size:9.96px;stroke:none;">of the American Oil Chemists’ Society were used for the</text>
   <text y="660.915" x="50.581,55.832,60.057,63.036,67.261,71.023,79.173,81.834,87.275,91.46,94.556,97.229,102.198,107.67599999999999,110.297,115.266,118.254,120.882,129.032,133.257,135.66,138.757,141.418,146.79,151.47119999999998,154.107,159.417,164.385,167.058,172.324,175.41160000000002,178.02,181.458,189.609,193.834,196.939,202.25,207.425,212.7038,215.345,222.123,226.3062,229.008,231.879,235.417,240.151,244.665,248.103,250.3938,253.045,256.617,260.842,263.894,267.581,271.946,276.23,279.326,281.927,286.463" svgx:width="0.53,0.43,0.31,0.43,0.37,0.82,0.27,0.55,0.44,0.31,0.27,0.51,0.55,0.55,0.51,0.3,0.55,0.82,0.43,0.25,0.31,0.27,0.55,0.47,0.55,0.52,0.51,0.27,0.55,0.31,0.55,0.35,0.82,0.43,0.31,0.53,0.51,0.53,0.55,0.67,0.42,0.55,0.34,0.36,0.47,0.45,0.35,0.23,0.55,0.37,0.43,0.3,0.37,0.44,0.42,0.31,0.27,0.46,0.43" style="fill:rgb(23,22,21);font-family:MinionPro-Regular;font-size:9.96px;stroke:none;">determination of melting point (method Cc 1-25), refractive</text>
   <text y="672.283" x="50.581,53.241,58.68,63.93,68.155,72.8362,77.271,80.708,88.858,93.082,96.187,101.497,106.672,111.9508,116.338,123.114,127.2972,131.745,135.678,139.215,143.949,148.462,151.899,154.1898,158.586,161.259,166.434,171.69,174.35,179.79,184.0728,188.429,193.046,197.474,199.877,205.157,209.43980000000002,213.797,217.234,225.383,229.607,232.713,238.023,243.197,248.4758,252.863,259.641,264.9198,269.315,272.187,275.723,280.458,284.971,288.408" svgx:width="0.27,0.55,0.53,0.43,0.47,0.55,0.35,0.82,0.43,0.31,0.53,0.51,0.53,0.55,0.67,0.42,0.55,0.46,0.36,0.47,0.45,0.35,0.23,0.55,0.27,0.51,0.53,0.27,0.55,0.43,0.55,0.46,0.44,0.25,0.53,0.43,0.55,0.35,0.82,0.43,0.31,0.53,0.51,0.53,0.55,0.67,0.53,0.55,0.34,0.36,0.47,0.45,0.35,0.23" style="fill:rgb(23,22,21);font-family:MinionPro-Regular;font-size:9.96px;stroke:none;">index (method Cc 7-25), iodine value (method Cd 1-25),</text>
   <text y="683.65" x="50.581,55.891,60.121,63.693,68.617,73.316,75.983,81.24,85.52279999999999,88.09,92.699,97.128,99.531,104.823,109.10579999999999,111.663,115.11,123.267,127.498,130.603,135.886,141.061,146.3398,148.918,155.695,160.97379999999998,163.561,168.291,171.834,176.254,180.754,184.198" svgx:width="0.52,0.43,0.37,0.51,0.47,0.27,0.53,0.43,0.55,0.46,0.44,0.25,0.53,0.43,0.55,0.35,0.82,0.43,0.31,0.53,0.51,0.53,0.55,0.67,0.53,0.55,0.47,0.36,0.45,0.45,0.35,0.23" style="fill:rgb(23,22,21);font-family:MinionPro-Regular;font-size:9.96px;stroke:none;">peroxide value (method Cd 8-53),</text>
   <text y="683.65" x="189.074" svgx:width="0.59" style="fill:rgb(23,22,21);font-family:MinionMath-Regular;font-size:9.96px;stroke:none;">𝑝</text>
   <text y="683.65" x="194.977,198.518,202.802,208.246,210.91,214.56,217.224,222.478,225.142,230.586,234.86880000000002,237.417,242.024,246.452,248.855,254.147,258.4298,260.988,264.435,271.211,276.4898,279.078,282.389,287.124" svgx:width="0.36,0.44,0.55,0.27,0.37,0.27,0.53,0.27,0.55,0.43,0.55,0.46,0.44,0.25,0.53,0.43,0.55,0.35,0.67,0.53,0.55,0.34,0.47,0.36" style="fill:rgb(23,22,21);font-family:MinionPro-Regular;font-size:9.96px;stroke:none;">-anisidine value (Cd 18-</text>
   <text y="695.017" x="50.581,55.513,60.428,63.873,66.1638,68.859,73.231,77.443,80.111,85.38980000000001,88.085,92.695,97.124,99.527,104.819,109.1018,111.758,115.205,123.362,127.594,130.7,135.983,141.158,146.43679999999998,149.123,155.836,160.2184,162.929,167.43,171.801,175.346,180.188,184.689,188.134,190.42479999999998,193.129,197.413,202.861,208.13979999999998,210.826,214.543,218.728,224.038,229.007,234.454,237.122,242.45,246.662,250.848,253.944,256.612,261.58,267.058,269.726,274.343,278.771,281.174,286.462" svgx:width="0.49,0.49,0.35,0.23,0.55,0.44,0.42,0.27,0.53,0.55,0.46,0.44,0.25,0.53,0.43,0.55,0.35,0.82,0.43,0.31,0.53,0.51,0.53,0.55,0.67,0.44,0.55,0.45,0.44,0.36,0.5,0.45,0.35,0.23,0.55,0.44,0.55,0.53,0.55,0.37,0.44,0.52,0.51,0.55,0.27,0.54,0.42,0.44,0.31,0.27,0.51,0.55,0.55,0.46,0.44,0.25,0.53,0.43" style="fill:rgb(23,22,21);font-family:MinionPro-Regular;font-size:9.96px;stroke:none;">90), acid value (method Ca 3a-63), and saponificatio nvalue</text>
   <text y="706.385" x="50.581,54.028,62.155,66.385,69.491,74.774,79.948,85.2268,88.18,94.958,100.2368,103.19,107.69,111.236,115.97,120.497,123.983,126.923,130.36,133.726,138.235,141.674,143.9648,146.917,157.555,161.83780000000002,164.761,167.74,172.717,175.822,180.251,182.741,185.741,190.665,195.363,198.036,203.319,207.504,210.601,213.274,218.242,223.72,226.663,230.111,236.177,243.557,249.623,256.778,263.295,266.781,269.73,274.347,278.775,281.178,286.47" svgx:width="0.35,0.82,0.43,0.31,0.53,0.51,0.53,0.55,0.67,0.53,0.55,0.45,0.36,0.47,0.45,0.35,0.55,0.34,0.34,0.45,0.34,0.23,0.55,1.07,0.43,0.55,0.31,0.51,0.31,0.44,0.25,0.55,0.51,0.47,0.27,0.53,0.44,0.31,0.27,0.51,0.55,0.55,0.35,0.62,0.75,0.62,0.75,0.65,0.35,0.55,0.46,0.44,0.25,0.53,0.43" style="fill:rgb(23,22,21);font-family:MinionPro-Regular;font-size:9.96px;stroke:none;">(method Cd 3-25) [13]. Th etota loxidatio n(TOTOX )value</text>
   <text y="717.752" x="50.581,57.402,61.773,65.4582,68.163,72.402,76.83,79.35,83.633,88.979,91.497,95.682,98.661,102.945,108.2238,110.946,116.211,119.864,122.531,127.904,132.5852,135.294,140.551,144.782,147.761,151.992,155.754,163.91,166.577,172.024,176.308,181.58679999999998,184.3,188.916,193.345,195.748,201.035,205.266,208.9512,211.647,214.509,219.477,223.1622,225.903,231.213,235.444,239.016,243.94,248.639,251.306,256.563,260.8458,263.538,267.822,273.24" svgx:width="0.69,0.44,0.37,0.55,0.42,0.44,0.25,0.42,0.53,0.25,0.44,0.31,0.43,0.53,0.55,0.53,0.37,0.27,0.55,0.47,0.55,0.53,0.43,0.31,0.43,0.37,0.82,0.27,0.55,0.43,0.53,0.55,0.46,0.44,0.25,0.53,0.43,0.37,0.55,0.3,0.51,0.37,0.55,0.52,0.43,0.37,0.51,0.47,0.27,0.53,0.43,0.55,0.44,0.55,0.53" style="fill:rgb(23,22,21);font-family:MinionPro-Regular;font-size:9.96px;stroke:none;">was calculated using determined values for peroxide and</text>
   <text y="717.752" x="281.226" svgx:width="0.59" style="fill:rgb(23,22,21);font-family:MinionMath-Regular;font-size:9.96px;stroke:none;">𝑝</text>
   <text y="717.752" x="287.13" svgx:width="0.36" style="fill:rgb(23,22,21);font-family:MinionPro-Regular;font-size:9.96px;stroke:none;">-</text>
   <text y="729.119" x="50.581,54.864,60.319,62.986,66.639,69.306,74.564,77.231,82.677,86.9598,89.535,92.982,97.612,103.218,107.89920000000001,110.562,116.33879999999999,118.987,125.214,129.831,133.31699999999998,135.915,139.352,142.556,147.507,150.941,153.2318,155.863,160.453,163.558,167.851,172.793,175.52,178.039,180.595,183.665,188.2466,190.856,197.678,202.049,205.73420000000002,208.34,216.497,220.79,225.16,228.761,234.048,237.62,241.852,247.1308,249.745,256.566,259.123,262.228,267.5068,270.184,274.56640000000004,277.204,281.325,286.203" svgx:width="0.44,0.55,0.27,0.37,0.27,0.53,0.27,0.55,0.43,0.55,0.35,0.47,0.56,0.47,0.55,0.58,0.55,0.69,0.46,0.35,0.55,0.34,0.34,0.5,0.34,0.23,0.55,0.47,0.31,0.44,0.51,0.27,0.25,0.27,0.31,0.46,0.55,0.69,0.44,0.37,0.55,0.82,0.43,0.44,0.37,0.53,0.37,0.43,0.53,0.55,0.69,0.27,0.31,0.53,0.55,0.44,0.55,0.46,0.5,0.45" style="fill:rgb(23,22,21);font-family:MinionPro-Regular;font-size:9.96px;stroke:none;">anisidine (2Px + Av) [14]. Stability was measured with a 743</text>
   <text y="740.487" x="50.581,56.945,61.23,66.676,70.887,73.554,81.711,85.897,88.9846,90.632,93.299,98.673,102.275,105.372,109.171,114.464,122.62,126.851,132.117,135.2046,136.853,140.297,148.91,153.142,156.239,159.812,164.827,170.144,178.3,180.5908,182.27,189.651,193.883,197.645,200.312,204.03,208.217,213.447,215.7378,217.426,221.99,228.811,231.369,234.404,238.586,242.817,246.51,249.028,253.312,258.759,264.016,267.502,269.165,274.431,278.084,280.751,286.125" svgx:width="0.62,0.44,0.55,0.42,0.27,0.82,0.44,0.31,0.55,0.27,0.55,0.37,0.31,0.37,0.53,0.82,0.43,0.55,0.31,0.55,0.35,0.89,0.43,0.31,0.37,0.51,0.53,0.82,0.23,0.55,0.77,0.43,0.37,0.27,0.37,0.44,0.53,0.23,0.55,0.47,0.69,0.27,0.31,0.42,0.43,0.37,0.25,0.44,0.55,0.53,0.35,0.55,0.53,0.37,0.27,0.55,0.47" style="fill:rgb(23,22,21);font-family:MinionPro-Regular;font-size:9.96px;stroke:none;">Rancimat instrument (Metrohm, Herisau, Switzerland) using</text>
   <text y="80.342" x="308.61,313.299,318.365,322.946,327.07,331.3756,333.928,336.962,339.0251,341.526,346.494,349.707,354.134,358.366,360.768,368.11,371.872,374.554,378.4111,380.899,384.751,389.62,394.3741,396.882,404.225,406.627,411.531,415.341,418.666,422.602,424.8445,427.399,431.191,435.655,442.828,447.607,452.179,455.469,457.763,460.545,462.947,467.411,472.244,475.5629,478.058,482.522" svgx:width="0.62,0.56,0.51,0.46,0.48,0.55,0.34,0.23,0.55,0.56,0.37,0.51,0.47,0.27,0.82,0.44,0.31,0.43,0.55,0.44,0.55,0.53,0.55,0.82,0.27,0.55,0.43,0.37,0.44,0.25,0.55,0.42,0.51,0.82,0.52,0.51,0.37,0.27,0.31,0.27,0.51,0.55,0.37,0.55,0.51,0.3" style="fill:rgb(23,22,21);font-family:MinionPro-Regular;font-size:8.97px;stroke:none;">Table 1: Proximate and mineral compositions of</text>
   <text y="80.342" x="487.69,492.487,496.735,501.352,506.058,509.595,513.9903,516.535,520.683,524.274,527.523,530.457,533.13,535.461,540.114,543.93,546.261" svgx:width="0.53,0.49,0.53,0.53,0.4,0.49,0.55,0.47,0.4,0.37,0.34,0.31,0.27,0.53,0.42,0.27,0.27" style="fill:rgb(23,22,21);font-family:MinionPro-It;font-size:8.97px;stroke:none;">Lannea kerstingii</text>
   <text y="90.809" x="308.61,311.935,315.78,319.624,324.332,327.656" svgx:width="0.37,0.43,0.43,0.53,0.37,0.23" style="fill:rgb(23,22,21);font-family:MinionPro-Regular;font-size:8.97px;stroke:none;">seeds.</text>
  </g>
  <path style="fill:none;stroke:rgb(23,22,21);stroke-width:0.5;" d="M308.610 98.070 L548.710 98.070 "/>
  <g begin="text">
   <text y="108.386" x="310.608,316.71,321.174,328.347,333.126,337.591,342.459,346.266,351.001,353.736,357.0549,359.055,362.16,366.354,369.323,372.311,376.811,381.2063,382.734,386.927,390.0665,510.101,515.51,519.487,521.647,526.409,530.216" svgx:width="0.67,0.51,0.82,0.52,0.51,0.55,0.43,0.55,0.31,0.37,0.55,0.35,0.47,0.33,0.34,0.49,0.49,0.55,0.47,0.35,0.55,0.7,0.44,0.25,0.53,0.43,0.37" style="fill:rgb(23,22,21);font-family:MinionPro-Regular;font-size:8.97px;stroke:none;">Components (g/100 g) Values</text>
  </g>
  <path style="fill:none;stroke:rgb(23,22,21);stroke-width:0.41;" d="M308.610 111.720 L548.710 111.720 "/>
  <g begin="text">
   <text y="122.039" x="310.608,318.366,322.83,325.206,328.455,331.101,335.862,339.074,342.9311,502.92,506.97,509.013,513.387" svgx:width="0.89,0.51,0.27,0.37,0.31,0.53,0.37,0.43,0.55,0.45,0.23,0.5,0.34" style="fill:rgb(23,22,21);font-family:MinionPro-Regular;font-size:8.97px;stroke:none;">Moisture 3.61</text>
   <text y="122.039" x="518.463" svgx:width="0.59" style="fill:rgb(23,22,21);font-family:MinionMath-Regular;font-size:8.97px;stroke:none;">±</text>
   <text y="122.039" x="525.761,530.18,532.222,536.444" svgx:width="0.49,0.23,0.47,0.47" style="fill:rgb(23,22,21);font-family:MinionPro-Regular;font-size:8.97px;stroke:none;">0.28</text>
   <text y="135.296" x="310.608,315.576,318.789,323.262,325.944,329.753,332.154,336.987,340.3059,500.229,504.397,508.834,510.876,514.854" svgx:width="0.56,0.37,0.51,0.31,0.43,0.27,0.55,0.37,0.55,0.47,0.5,0.23,0.45,0.49" style="fill:rgb(23,22,21);font-family:MinionPro-Regular;font-size:8.97px;stroke:none;">Proteins 26.39</text>
   <text y="135.296" x="521.271" svgx:width="0.59" style="fill:rgb(23,22,21);font-family:MinionMath-Regular;font-size:8.97px;stroke:none;">±</text>
   <text y="135.296" x="528.57,532.988,535.031,539.008" svgx:width="0.49,0.23,0.45,0.49" style="fill:rgb(23,22,21);font-family:MinionPro-Regular;font-size:8.97px;stroke:none;">0.39</text>
   <text y="148.544" x="310.608,316.571,319.99,324.752,329.486,333.3431,335.318,337.972,341.734,344.469,347.7879,501.456,505.527,508.416,510.46,514.663" svgx:width="0.67,0.37,0.53,0.53,0.43,0.55,0.3,0.44,0.31,0.37,0.55,0.45,0.46,0.23,0.47,0.45" style="fill:rgb(23,22,21);font-family:MinionPro-Regular;font-size:8.97px;stroke:none;">Crude fats 57.85</text>
   <text y="148.544" x="520.776" svgx:width="0.59" style="fill:rgb(23,22,21);font-family:MinionMath-Regular;font-size:8.97px;stroke:none;">±</text>
   <text y="148.544" x="528.075,531.106,533.151,537.705" svgx:width="0.34,0.23,0.5,0.5" style="fill:rgb(23,22,21);font-family:MinionPro-Regular;font-size:8.97px;stroke:none;">1.64</text>
   <text y="161.8" x="310.608,316.656,320.508,323.835,328.47,332.979,337.56,341.601,346.336,349.663,353.425,356.107,359.914,363.2329,500.881,503.869,508.29,510.335,514.757" svgx:width="0.67,0.44,0.37,0.51,0.51,0.53,0.46,0.53,0.37,0.44,0.31,0.43,0.37,0.55,0.34,0.49,0.23,0.49,0.46" style="fill:rgb(23,22,21);font-family:MinionPro-Regular;font-size:8.97px;stroke:none;">Carbohydrates 10.07</text>
   <text y="161.8" x="520.955" svgx:width="0.59" style="fill:rgb(23,22,21);font-family:MinionMath-Regular;font-size:8.97px;stroke:none;">±</text>
   <text y="161.8" x="528.254,532.421,534.462,538.665" svgx:width="0.47,0.23,0.47,0.45" style="fill:rgb(23,22,21);font-family:MinionPro-Regular;font-size:8.97px;stroke:none;">2.85</text>
   <text y="175.057" x="310.608,316.656,319.913,324.6671,502.199,506.366,508.409,512.854" svgx:width="0.69,0.37,0.53,0.55,0.47,0.23,0.49,0.47" style="fill:rgb(23,22,21);font-family:MinionPro-Regular;font-size:8.97px;stroke:none;">Ash 2.08</text>
   <text y="175.057" x="519.156" svgx:width="0.59" style="fill:rgb(23,22,21);font-family:MinionMath-Regular;font-size:8.97px;stroke:none;">±</text>
   <text y="175.057" x="526.454,530.86,532.89,537.036" svgx:width="0.49,0.23,0.46,0.49" style="fill:rgb(23,22,21);font-family:MinionPro-Regular;font-size:8.97px;stroke:none;">0.79</text>
  </g>
  <path style="fill:none;stroke:rgb(23,22,21);stroke-width:0.41;" d="M308.610 178.390 L548.710 178.390 "/>
  <g begin="text">
   <text y="188.711" x="310.608,318.537,320.94,325.846,329.659,332.987,336.925,339.196,342.5149,344.523,347.628,354.899,359.097,362.067,366.516,370.714,373.8535,510.143,515.551,519.489,521.649,526.412,530.225" svgx:width="0.89,0.27,0.55,0.43,0.37,0.44,0.25,0.37,0.55,0.35,0.82,0.47,0.33,0.5,0.47,0.35,0.55,0.7,0.44,0.25,0.53,0.43,0.37" style="fill:rgb(23,22,21);font-family:MinionPro-Regular;font-size:8.97px;stroke:none;">Minerals (mg/kg) Values</text>
  </g>
  <path style="fill:none;stroke:rgb(23,22,21);stroke-width:0.41;" d="M308.610 192.040 L548.710 192.040 "/>
  <g begin="text">
   <text y="202.364" x="310.608,315.369,319.842,322.633,326.539,329.812,333.086,335.381,340.142,347.49739999999997,498.012,502.449,506.147,510.586,512.614,515.627" svgx:width="0.56,0.51,0.31,0.44,0.37,0.37,0.27,0.53,0.82,0.55,0.5,0.46,0.5,0.23,0.34,0.47" style="fill:rgb(23,22,21);font-family:MinionPro-Regular;font-size:8.97px;stroke:none;">Potassium 674.18</text>
   <text y="202.364" x="521.927" svgx:width="0.59" style="fill:rgb(23,22,21);font-family:MinionMath-Regular;font-size:8.97px;stroke:none;">±</text>
   <text y="202.364" x="529.226,533.447,536.336,538.379,541.366" svgx:width="0.47,0.46,0.23,0.34,0.47" style="fill:rgb(23,22,21);font-family:MinionPro-Regular;font-size:8.97px;stroke:none;">27.18</text>
   <text y="215.621" x="310.607,318.466,322.354,326.593,331.462,335.269,338.563,340.836,345.598,352.9534,498.751,502.675,505.653,508.542,510.585,513.618" svgx:width="0.89,0.44,0.47,0.55,0.43,0.37,0.27,0.53,0.82,0.55,0.45,0.34,0.46,0.23,0.34,0.45" style="fill:rgb(23,22,21);font-family:MinionPro-Regular;font-size:8.97px;stroke:none;">Magnesium 317.15</text>
   <text y="215.621" x="519.721" svgx:width="0.59" style="fill:rgb(23,22,21);font-family:MinionMath-Regular;font-size:8.97px;stroke:none;">±</text>
   <text y="215.621" x="527.02,530.038,534.446,536.478,540.501" svgx:width="0.34,0.49,0.23,0.45,0.49" style="fill:rgb(23,22,21);font-family:MinionPro-Regular;font-size:8.97px;stroke:none;">10.59</text>
   <text y="228.878" x="310.607,316.655,320.633,322.9,326.691,328.986,333.747,341.1024,500.697,504.747,509.004,511.047,514.961" svgx:width="0.67,0.44,0.25,0.42,0.27,0.53,0.82,0.55,0.46,0.47,0.23,0.45,0.45" style="fill:rgb(23,22,21);font-family:MinionPro-Regular;font-size:8.97px;stroke:none;">Calcium 78.33</text>
   <text y="228.878" x="521.054" svgx:width="0.59" style="fill:rgb(23,22,21);font-family:MinionMath-Regular;font-size:8.97px;stroke:none;">±</text>
   <text y="228.878" x="528.353,532.807,534.85,538.755" svgx:width="0.5,0.23,0.45,0.47" style="fill:rgb(23,22,21);font-family:MinionPro-Regular;font-size:8.97px;stroke:none;">4.52</text>
   <text y="242.135" x="310.607,316.142,318.545,323.434,327.20140000000004,502.031,506.454,508.483,512.641" svgx:width="0.6,0.27,0.55,0.42,0.55,0.5,0.23,0.45,0.5" style="fill:rgb(23,22,21);font-family:MinionPro-Regular;font-size:8.97px;stroke:none;">Zinc 6.34</text>
   <text y="242.135" x="519.146" svgx:width="0.59" style="fill:rgb(23,22,21);font-family:MinionMath-Regular;font-size:8.97px;stroke:none;">±</text>
   <text y="242.135" x="526.445,530.872,532.924,537.351" svgx:width="0.49,0.23,0.49,0.47" style="fill:rgb(23,22,21);font-family:MinionPro-Regular;font-size:8.97px;stroke:none;">0.08</text>
   <text y="255.382" x="310.606,313.522,316.735,321.199,326.1325,501.92,506.374,508.417,512.98" svgx:width="0.34,0.37,0.51,0.55,0.55,0.5,0.23,0.5,0.5" style="fill:rgb(23,22,21);font-family:MinionPro-Regular;font-size:8.97px;stroke:none;">Iron 4.46</text>
   <text y="255.382" x="519.452" svgx:width="0.59" style="fill:rgb(23,22,21);font-family:MinionMath-Regular;font-size:8.97px;stroke:none;">±</text>
   <text y="255.382" x="526.75,531.169,533.211,537.63" svgx:width="0.49,0.23,0.49,0.45" style="fill:rgb(23,22,21);font-family:MinionPro-Regular;font-size:8.97px;stroke:none;">0.05</text>
   <text y="268.639" x="310.606,314.98,319.633,324.366,326.661,331.421,338.77639999999997,502.133,506.302,508.345,512.935" svgx:width="0.47,0.51,0.53,0.27,0.53,0.82,0.55,0.47,0.23,0.5,0.47" style="fill:rgb(23,22,21);font-family:MinionPro-Regular;font-size:8.97px;stroke:none;">Sodium 2.48</text>
   <text y="268.639" x="519.235" svgx:width="0.59" style="fill:rgb(23,22,21);font-family:MinionMath-Regular;font-size:8.97px;stroke:none;">±</text>
   <text y="268.639" x="526.533,530.952,532.995,537.216" svgx:width="0.49,0.23,0.47,0.47" style="fill:rgb(23,22,21);font-family:MinionPro-Regular;font-size:8.97px;stroke:none;">0.28</text>
  </g>
  <path style="fill:none;stroke:rgb(23,22,21);stroke-width:0.41;" d="M308.610 271.970 L548.710 271.970 "/>
  <g begin="text">
   <text y="281.645" x="308.61,315.504,318.933,322.362,326.74550000000005,328.535,332.225,335.763,337.679,341.909,345.293" svgx:width="0.89,0.43,0.44,0.55,0.55,0.46,0.44,0.25,0.53,0.43,0.37" style="fill:rgb(23,22,21);font-family:MinionPro-Regular;font-size:7.97px;stroke:none;">Mean values</text>
   <text y="281.645" x="350.037" svgx:width="0.61" style="fill:rgb(23,22,21);font-family:MinionMath-Capt;font-size:7.97px;stroke:none;">±</text>
   <text y="281.645" x="356.724,359.627,362.101,365.578,369.915,374.155,377.583,380.437,384.66110000000003,386.448,390.634,394.081,397.799,399.959,403.307,405.773,407.886,411.855,416.23850000000004,418.029,420.315,424.284" svgx:width="0.37,0.31,0.44,0.55,0.53,0.44,0.37,0.53,0.55,0.53,0.43,0.46,0.27,0.44,0.31,0.27,0.51,0.55,0.55,0.3,0.51,0.37" style="fill:rgb(23,22,21);font-family:MinionPro-Regular;font-size:7.97px;stroke:none;">standard deviation for</text>
   <text y="281.645" x="429.021,433.08570000000003,435.345,440.2067,442.458" svgx:width="0.51,0.55,0.61,0.55,0.49" style="fill:rgb(23,22,21);font-family:MinionMath-Capt;font-size:7.97px;stroke:none;"></text>
   <text y="281.645" x="446.337" svgx:width="0.23" style="fill:rgb(23,22,21);font-family:MinionPro-Regular;font-size:7.97px;stroke:none;">.</text>
   <text y="312.902" x="308.61,312.899,318.377,320.828,325.824,328.551,331.041,333.528,337.246,341.534,349.508,354.644,357.165,361.44780000000003,363.879,368.847,371.835,374.265,378.747,380.429,385.407,387.6978,390.159,396.981,401.265,405.027,413.155,417.438,422.7168,425.16,428.114,433.1936,435.665,439.058,443.748" svgx:width="0.44,0.55,0.55,0.51,0.27,0.25,0.55,0.37,0.44,0.82,0.52,0.25,0.43,0.55,0.51,0.3,0.55,0.45,0.55,0.47,0.23,0.55,0.69,0.44,0.37,0.82,0.43,0.53,0.55,0.31,0.51,0.55,0.34,0.47,0.49" style="fill:rgb(23,22,21);font-family:MinionPro-Regular;font-size:9.96px;stroke:none;">an oil sample of 3 g, warmed to 120</text>
   <text y="308.519" x="448.659" svgx:width="0.38" style="fill:rgb(23,22,21);font-family:MinionMath-Capt;font-size:6.97px;stroke:none;">∘</text>
   <text y="312.902" x="451.836,458.5092,460.944,465.228,470.645,475.92379999999997,478.367,482.653,488.13100000000003,490.583,494.868,497.541,501.2262,503.706,509.016,513.94,520.8124,523.237,526.936,531.121,534.072,538.3548,540.777,545.77" svgx:width="0.67,0.55,0.44,0.55,0.53,0.55,0.44,0.55,0.55,0.44,0.27,0.37,0.55,0.53,0.51,0.69,0.55,0.37,0.44,0.31,0.43,0.55,0.51,0.3" style="fill:rgb(23,22,21);font-family:MinionPro-Regular;font-size:9.96px;stroke:none;">C and an air flo wrat eof</text>
   <text y="324.269" x="308.611,313.3,318.1804,319.87,325.226,328.52,333.836,336.1268,338.372,342.962,346.067,350.36,355.301,358.028,360.549,363.105,366.175,370.7566,372.979,379.801,384.171,387.8562,390.093,394.323,399.021,404.124,407.697,411.927,415.527,419.262,423.492,428.7708,431.025,435.395,439.0802,441.307,443.973,449.419,454.558,459.85,464.134,467.23,469.896,474.865,480.343,482.551,485.647,488.313,496.468,500.7508,502.939,506.386,511.702,515.145" svgx:width="0.47,0.49,0.55,0.54,0.33,0.53,0.23,0.55,0.47,0.31,0.44,0.51,0.27,0.25,0.27,0.31,0.46,0.55,0.69,0.44,0.37,0.55,0.43,0.47,0.52,0.37,0.43,0.37,0.37,0.43,0.53,0.55,0.44,0.37,0.55,0.27,0.55,0.53,0.53,0.42,0.31,0.27,0.51,0.55,0.55,0.31,0.27,0.82,0.43,0.55,0.35,0.53,0.35,0.23" style="fill:rgb(23,22,21);font-family:MinionPro-Regular;font-size:9.96px;stroke:none;">20 L/h. Stability was expressed as induction time (h).</text>
   <text y="350.432" x="308.611,313.263,315.604,320.476,322.7668,327.334,332.374,337.019,340.754,345.344,350.087,355.109,359.094,362.55,367.131,369.615,371.9058,376.473,382.827,387.543,390.999,395.562,398.523,402.508,407.738,412.318,415.0,420.061,422.35179999999997,426.929,431.645,436.874,441.95360000000005,446.45,451.004,453.965,457.952,461.408,465.989,468.479,472.982,479.3,484.529,489.299,491.631,496.032,499.29,502.044,505.401" svgx:width="0.47,0.23,0.49,0.23,0.55,0.6,0.47,0.38,0.47,0.49,0.51,0.4,0.37,0.47,0.25,0.23,0.55,0.63,0.49,0.37,0.47,0.31,0.4,0.53,0.47,0.27,0.51,0.23,0.55,0.49,0.53,0.51,0.55,0.47,0.31,0.4,0.37,0.47,0.25,0.55,0.66,0.53,0.49,0.25,0.44,0.34,0.27,0.34,0.23" style="fill:rgb(23,22,21);font-family:MinionPro-It;font-size:9.96px;stroke:none;">2.6. Tocopherol, Carotenoid, and Sterol Analysis.</text>
   <text y="350.432" x="512.732,519.446,523.73,527.429,532.514,535.493,539.723,545.178" svgx:width="0.67,0.44,0.37,0.51,0.31,0.43,0.55,0.36" style="fill:rgb(23,22,21);font-family:MinionPro-Regular;font-size:9.96px;stroke:none;">Caroten-</text>
   <text y="361.799" x="308.611,313.587,316.26,321.489,325.144,327.4348,331.38,334.359,339.534,343.746,348.722,353.87,359.153,363.383,366.975,371.988,374.444,376.7348,380.672,384.941,390.359,395.63779999999997,399.584,403.185,406.163,410.394,413.985,418.998,421.491,425.1762,429.114,435.834,440.064,443.656,447.9388,451.855,456.124,461.551,465.979,468.427,472.999,477.184,481.468,486.7468,490.693,494.878,497.9656,501.88,508.504,512.203,516.472,522.2488,526.238,531.412,535.696,539.846,545.165" svgx:width="0.51,0.27,0.53,0.37,0.23,0.55,0.31,0.51,0.42,0.51,0.52,0.53,0.43,0.37,0.51,0.25,0.23,0.55,0.44,0.55,0.53,0.55,0.37,0.31,0.43,0.37,0.51,0.25,0.37,0.55,0.69,0.43,0.37,0.43,0.55,0.44,0.55,0.44,0.25,0.46,0.42,0.43,0.53,0.55,0.44,0.31,0.55,0.67,0.37,0.44,0.58,0.55,0.62,0.43,0.42,0.53,0.36" style="fill:rgb(23,22,21);font-family:MinionPro-Regular;font-size:9.96px;stroke:none;">oids, tocopherol, and sterols were analyzed at Craf tTech-</text>
   <text y="373.167" x="308.611,314.056,319.069,321.586,326.663,331.379,334.052,338.282,341.9672,344.357,347.588,353.006,357.216,359.5068,361.924,365.367,374.664,377.39,379.883,383.618,388.586,394.032,396.3228,398.721,406.048,412.672,416.115,418.4058,420.831,426.006,431.182,435.392,440.369,445.517,450.8,455.03,458.603,463.616,466.109,469.7942,472.184,478.924,483.155,486.727,491.0098,493.396,497.131,501.361,506.635,510.919,514.618,518.804,521.783,526.066,531.3448000000001,533.753,538.036,543.454" svgx:width="0.55,0.51,0.25,0.51,0.47,0.27,0.43,0.37,0.55,0.34,0.55,0.42,0.23,0.55,0.35,0.97,0.27,0.25,0.37,0.51,0.55,0.23,0.55,0.74,0.67,0.35,0.23,0.55,0.62,0.51,0.42,0.51,0.52,0.53,0.43,0.37,0.51,0.25,0.37,0.55,0.69,0.43,0.37,0.43,0.55,0.37,0.43,0.52,0.44,0.37,0.44,0.31,0.43,0.53,0.55,0.44,0.55,0.53" style="fill:rgb(23,22,21);font-family:MinionPro-Regular;font-size:9.96px;stroke:none;">nologies Inc. (Wilson, NC). Tocopherols were separated and</text>
   <text y="384.543" x="308.611,313.606,318.925,323.209,328.474,331.57,334.243,339.568,343.852,349.13079999999997,350.782,355.678,360.2596,361.942,369.575,375.128,380.411,388.718,393.091,397.301,401.51,406.478,410.051,415.307,417.972,423.345,428.0262,429.681,432.66,437.73960000000005,439.428,446.034,453.657,460.281,464.9622,466.68,474.808,479.037,482.142,487.457,492.632,497.9108,499.562,506.339,510.6218,512.252,516.986,520.528,525.163,530.0434,531.706,535.141,538.504,543.002,546.434" svgx:width="0.51,0.53,0.44,0.55,0.31,0.27,0.54,0.43,0.53,0.55,0.51,0.46,0.55,0.77,0.56,0.54,0.67,0.44,0.42,0.42,0.51,0.37,0.53,0.27,0.55,0.47,0.55,0.31,0.51,0.55,0.69,0.75,0.67,0.47,0.55,0.82,0.43,0.31,0.53,0.51,0.53,0.55,0.67,0.43,0.55,0.47,0.36,0.47,0.49,0.55,0.34,0.34,0.45,0.34,0.23" style="fill:rgb(23,22,21);font-family:MinionPro-Regular;font-size:9.96px;stroke:none;">quantifie db yHPLCaccordin gt oAOC Smetho dC e8-8 9[13].</text>
   <text y="395.91" x="308.611,315.28,319.564,323.136,328.113,331.092,335.322,340.74,345.708,348.422,353.652,357.3372,358.962,365.702,369.932,373.505,377.7878,379.391,383.126,387.356,392.63,396.914,400.613,404.799,407.778,412.055,417.3338,418.968,423.251,428.669,433.9478,435.581,440.576,445.91,450.194,455.46,458.556,461.27,466.598,470.876,476.15479999999997,477.788,482.683,487.2646,488.911,492.484,496.794,501.33,505.561,509.197,512.932,517.21,522.466,526.012,531.159,536.452,540.798,544.498" svgx:width="0.67,0.44,0.37,0.51,0.31,0.43,0.55,0.51,0.27,0.53,0.37,0.55,0.69,0.43,0.37,0.43,0.55,0.37,0.43,0.52,0.44,0.37,0.44,0.31,0.43,0.53,0.55,0.44,0.55,0.53,0.55,0.51,0.53,0.44,0.55,0.31,0.27,0.54,0.43,0.53,0.55,0.51,0.46,0.55,0.37,0.43,0.46,0.43,0.37,0.37,0.43,0.53,0.36,0.52,0.53,0.44,0.37,0.43" style="fill:rgb(23,22,21);font-family:MinionPro-Regular;font-size:9.96px;stroke:none;">Carotenoids were separated and quantifie db yreversed-phase</text>
   <text y="407.278" x="308.611,316.241,321.794,327.077,333.7502,336.546,343.369,345.926,349.031,354.3098,357.185,364.517,370.889,373.463,379.998,382.667,386.3522,389.155,394.415,398.648,401.627,405.86,410.144,413.24,415.913,420.881,426.359,429.161,434.45,438.106,440.775,446.147,450.8282,453.644,458.756,464.045,469.031,471.551,474.22,477.875,483.194,487.427,492.7058,495.509,503.667,507.901,511.006,516.289,521.464,526.72,531.733,534.254,539.334,544.238" svgx:width="0.77,0.56,0.54,0.67,0.55,0.69,0.27,0.31,0.53,0.55,0.74,0.7,0.36,0.7,0.27,0.37,0.55,0.53,0.43,0.31,0.43,0.42,0.31,0.27,0.51,0.55,0.55,0.53,0.37,0.27,0.55,0.47,0.55,0.52,0.53,0.51,0.25,0.27,0.37,0.53,0.43,0.53,0.55,0.82,0.43,0.31,0.53,0.51,0.53,0.51,0.25,0.51,0.47,0.46" style="fill:rgb(23,22,21);font-family:MinionPro-Regular;font-size:9.96px;stroke:none;">HPLC with UV-Vis detection using published methodology</text>
   <text y="418.645" x="308.611,313.566,318.14759999999995,320.271,326.895,330.594,334.862,340.6388,342.791,346.228,349.595,354.113,357.551,359.8418,361.952,366.542,369.521,373.751,377.342,382.355,384.847,388.5322,390.617,397.336,401.566,405.156,409.4388,411.519,415.254,419.484,424.759,429.042,432.742,436.927,439.906,444.19,449.4688,451.579,455.863,461.28,466.55879999999996,468.661,473.646,478.965,483.233,488.498,491.595,494.268,499.596,503.88,509.1588,511.251,516.516,520.17,522.843,528.187,532.8682,534.964,542.083" svgx:width="0.51,0.46,0.55,0.67,0.37,0.44,0.58,0.55,0.34,0.34,0.45,0.34,0.23,0.55,0.47,0.31,0.43,0.37,0.51,0.25,0.37,0.55,0.69,0.43,0.37,0.43,0.55,0.37,0.43,0.52,0.44,0.37,0.44,0.31,0.43,0.53,0.55,0.44,0.55,0.53,0.55,0.51,0.53,0.44,0.55,0.31,0.27,0.54,0.43,0.53,0.55,0.53,0.37,0.27,0.55,0.47,0.55,0.71,0.67" style="fill:rgb(23,22,21);font-family:MinionPro-Regular;font-size:9.96px;stroke:none;">by Craf t[15] .Sterol swer eseparate dan dquantifi edusi ngGC</text>
   <text y="430.012" x="308.611,312.984,317.196,321.409,326.377,329.95,335.206,337.879,343.252,347.9332,350.175,353.153,358.23260000000005,360.495,367.101,374.724,381.349,386.0302,388.331,395.774,403.722,407.934,410.634,415.062,417.552,419.843,428.456,432.686,435.791,441.074,446.25,451.5288,453.771,460.449,465.7278,468.029,472.962,476.507,481.304,484.69039999999995,486.932,490.368,493.68,498.611,502.049" svgx:width="0.44,0.42,0.42,0.51,0.37,0.53,0.27,0.55,0.47,0.55,0.31,0.51,0.55,0.69,0.75,0.67,0.47,0.55,0.75,0.8,0.42,0.27,0.44,0.25,0.55,0.89,0.43,0.31,0.53,0.51,0.53,0.55,0.67,0.53,0.55,0.5,0.36,0.49,0.34,0.55,0.34,0.34,0.5,0.34,0.23" style="fill:rgb(23,22,21);font-family:MinionPro-Regular;font-size:9.96px;stroke:none;">according to AOCS Offici alMeth od Ch6- 91[16].</text>
   <text y="454.187" x="308.611,313.263,315.603,319.086,321.3768,323.029,327.601,330.57,335.233,338.203,340.956,344.214,347.183,349.813,353.529,358.321,360.81100000000004,362.407,368.725,373.935,378.727,381.059,385.46,388.728,391.482,394.839" svgx:width="0.47,0.23,0.47,0.23,0.55,0.47,0.31,0.49,0.31,0.27,0.34,0.31,0.27,0.38,0.49,0.25,0.55,0.66,0.53,0.49,0.25,0.44,0.34,0.27,0.34,0.23" style="fill:rgb(23,22,21);font-family:MinionPro-It;font-size:9.96px;stroke:none;">2.7. Statistical Analysis.</text>
   <text y="454.187" x="402.175,408.385,412.615,416.216,421.562,423.961,427.002,430.6872,432.241,436.525,440.099,444.3818,445.913,450.143,454.842,459.945,463.519,467.749,471.35,475.085,479.369,486.209,490.556,494.2412,495.794,498.899,504.182,508.4648,509.997,518.124,522.417,526.701,533.738,538.022,543.44" svgx:width="0.62,0.43,0.37,0.53,0.25,0.31,0.37,0.55,0.44,0.37,0.43,0.55,0.43,0.47,0.52,0.37,0.43,0.37,0.37,0.43,0.53,0.44,0.37,0.55,0.31,0.53,0.43,0.55,0.82,0.43,0.44,0.55,0.44,0.55,0.53" style="fill:rgb(23,22,21);font-family:MinionPro-Regular;font-size:9.96px;stroke:none;">Results are expressedas the meanand</text>
   <text y="465.554" x="308.611,312.211,315.316,319.6,325.018,330.28,334.564,338.137,343.4158,345.652,350.914,355.225,359.839,362.511,366.697,369.793,372.465,377.433,382.911,385.137,390.106,393.094,395.308,398.414,403.736,407.308,411.592,415.8748,418.072,421.807,426.037,431.311,435.595,439.293,443.478,446.457,450.7398,452.955,458.217,462.453,465.432,469.668,473.43,481.591,484.263,489.715,493.9,496.996,499.669,504.638,510.011,513.669" svgx:width="0.37,0.31,0.44,0.55,0.53,0.44,0.37,0.53,0.55,0.53,0.43,0.46,0.27,0.44,0.31,0.27,0.51,0.55,0.55,0.51,0.3,0.55,0.31,0.53,0.37,0.43,0.43,0.55,0.37,0.43,0.52,0.44,0.37,0.44,0.31,0.43,0.55,0.53,0.43,0.31,0.43,0.37,0.82,0.27,0.55,0.44,0.31,0.27,0.51,0.55,0.37,0.23" style="fill:rgb(23,22,21);font-family:MinionPro-Regular;font-size:9.96px;stroke:none;">standard deviation of three separate determinations.</text>
   <text y="491.804" x="308.61,314.588,317.57800000000003,320.509,328.375,333.767,338.465,345.256,348.723,352.764,357.4284,360.45,366.188,373.062,379.64,382.611,391.422,395.008,399.707,404.847,411.638,416.336,421.035,424.621,430.969" svgx:width="0.5,0.25,0.55,0.66,0.45,0.39,0.57,0.29,0.34,0.39,0.55,0.48,0.57,0.55,0.55,0.74,0.3,0.39,0.43,0.57,0.39,0.39,0.3,0.53,0.57" style="fill:rgb(23,22,21);font-family:Minion-Black;font-size:11.96px;stroke:none;">3. Results and Discussion</text>
   <text y="511.694" x="308.61,313.209,315.549,318.897,321.1878,323.136,328.627,332.083,336.583,341.299,343.924,351.67,356.333,359.294,363.27799999999996,365.171,371.525,376.112,383.79,388.596,393.212,396.475,399.1,402.064,404.746,409.334,414.6128,416.534,421.121,423.8102,425.711,430.437,434.327,438.217,443.311,446.669" svgx:width="0.46,0.23,0.34,0.23,0.55,0.55,0.37,0.47,0.47,0.27,0.79,0.49,0.31,0.4,0.55,0.63,0.47,0.79,0.49,0.47,0.34,0.27,0.31,0.27,0.47,0.53,0.55,0.47,0.27,0.55,0.47,0.4,0.4,0.51,0.34,0.23" style="fill:rgb(23,22,21);font-family:MinionPro-It;font-size:9.96px;stroke:none;">3.1. Proximate Composition of Seeds.</text>
   <text y="511.694" x="453.979,464.617,468.8998,470.719,474.288,478.518,482.119,487.465,489.858,492.899,496.5842,498.425,503.394,506.382,508.209,513.312,516.88,521.834,526.532,529.205,537.341,541.527,544.505" svgx:width="1.07,0.43,0.55,0.37,0.43,0.37,0.53,0.25,0.31,0.37,0.55,0.51,0.3,0.55,0.52,0.37,0.51,0.47,0.27,0.82,0.44,0.31,0.43" style="fill:rgb(23,22,21);font-family:MinionPro-Regular;font-size:9.96px;stroke:none;">Th eresult so fproximate</text>
   <text y="523.061" x="308.61,312.882,318.309,322.737,325.185,329.757,333.411,336.057,339.7422,342.024,347.003" svgx:width="0.44,0.55,0.44,0.25,0.46,0.37,0.27,0.37,0.55,0.51,0.3" style="fill:rgb(23,22,21);font-family:MinionPro-Regular;font-size:9.96px;stroke:none;">analysis of</text>
   <text y="523.061" x="352.287,357.569,359.8598,362.241,366.848,370.835,374.464,377.722,380.691,383.284,388.458,392.706,395.298" svgx:width="0.53,0.23,0.55,0.47,0.4,0.37,0.34,0.31,0.27,0.53,0.42,0.27,0.27" style="fill:rgb(23,22,21);font-family:MinionPro-It;font-size:9.96px;stroke:none;">L. kerstingii</text>
   <text y="523.061" x="400.33,404.065,408.349,412.632,417.862,421.54720000000003,423.837,428.121,431.694,435.9768,438.237,441.866,447.158,452.081,458.931,464.409,466.698,469.37,474.848,477.135,482.365,486.71,491.743,494.236,498.5188,500.743,504.082,506.3728,508.672,519.314,523.5967999999999,525.857,533.989,538.957,541.599,545.228" svgx:width="0.37,0.43,0.43,0.53,0.37,0.55,0.44,0.37,0.43,0.55,0.37,0.53,0.51,0.69,0.55,0.55,0.27,0.55,0.55,0.62,0.44,0.51,0.25,0.43,0.55,0.34,0.23,0.55,1.07,0.43,0.55,0.82,0.51,0.27,0.37,0.36" style="fill:rgb(23,22,21);font-family:MinionPro-Regular;font-size:9.96px;stroke:none;">seeds are shown in Table 1. Th emois-</text>
   <text y="534.429" x="308.61,311.553,316.845,320.418,324.7008,327.591,331.796,336.764,342.03,345.008,349.233,354.499,357.58660000000003,360.474,365.443,368.431,371.329,375.064,379.347,383.631,388.861,392.5462,395.476,402.298,406.663,410.3482,413.26,417.754,420.017,424.877,428.235,435.758,438.04879999999997,440.987,447.881,453.192,455.853,460.003,465.2818,468.274,470.935,474.6202,477.532,480.044,484.967,491.8394,494.741,499.025,504.466,509.7448,512.665,515.77,521.054,525.279,528.851,533.076,535.939,540.907,544.48" svgx:width="0.31,0.53,0.37,0.43,0.55,0.42,0.51,0.55,0.31,0.43,0.55,0.31,0.55,0.51,0.3,0.55,0.37,0.43,0.43,0.53,0.37,0.55,0.69,0.44,0.37,0.55,0.45,0.23,0.5,0.34,0.76,0.23,0.55,0.69,0.53,0.27,0.42,0.53,0.55,0.27,0.37,0.55,0.25,0.51,0.69,0.55,0.44,0.55,0.53,0.55,0.31,0.53,0.43,0.37,0.43,0.3,0.51,0.37,0.43" style="fill:rgb(23,22,21);font-family:MinionPro-Regular;font-size:9.96px;stroke:none;">ture content of seeds was 3.61%, which is low and therefore</text>
   <text y="545.796" x="308.61,313.713,317.943,323.361,327.591,332.919,337.131,339.831,344.246,346.736,349.061,351.923,356.892,360.5772,362.876,367.979,371.552,376.565,379.127,384.096,389.468,394.185,396.897,402.269,406.9502,409.19,412.296,417.579,421.8618,424.094,427.713,432.996,437.19,439.711,442.699,444.949,447.469,450.181,453.043,457.3258,459.568,464.537,467.525,469.766,472.871,478.155,482.4378,484.68,488.378,492.654,496.93,502.159,505.814,508.1048,510.377,521.015,525.2977999999999,527.54,531.238,535.514,539.79,545.019" svgx:width="0.51,0.43,0.55,0.43,0.54,0.42,0.27,0.44,0.25,0.55,0.3,0.51,0.37,0.55,0.52,0.37,0.51,0.25,0.51,0.55,0.47,0.27,0.55,0.47,0.55,0.31,0.53,0.43,0.55,0.37,0.53,0.43,0.25,0.3,0.55,0.25,0.27,0.3,0.43,0.55,0.51,0.3,0.55,0.31,0.53,0.43,0.55,0.37,0.43,0.43,0.53,0.37,0.23,0.55,1.07,0.43,0.55,0.37,0.43,0.43,0.53,0.37" style="fill:rgb(23,22,21);font-family:MinionPro-Regular;font-size:9.96px;stroke:none;">beneficia lfo rprolongin gth eshel flif eo fth eseeds .T heseeds</text>
   <text y="557.163" x="308.61,312.82,317.789,323.054,326.159,330.443,333.116,338.562,342.845,348.1238,352.457,356.112,358.778,363.494,368.939,371.605,376.931,381.142,385.426,390.691,393.7786,398.098,402.382,410.537,415.515,420.801,426.066,429.101,432.7862,437.12,442.088,445.076,449.404,453.615,457.412,462.698,467.955,472.2378,476.567,481.536,484.263,486.753,491.148,494.591,499.11,502.323,504.591,509.263,513.745,515.445,520.104,523.398,526.709,531.713,536.5934,538.302,542.963,546.406" svgx:width="0.42,0.51,0.55,0.31,0.44,0.27,0.55,0.43,0.53,0.55,0.37,0.27,0.47,0.55,0.27,0.54,0.42,0.44,0.55,0.31,0.55,0.44,0.82,0.51,0.53,0.55,0.31,0.37,0.55,0.51,0.3,0.55,0.42,0.37,0.53,0.53,0.43,0.55,0.51,0.27,0.25,0.55,0.35,0.45,0.46,0.23,0.47,0.45,0.55,0.47,0.33,0.34,0.49,0.49,0.55,0.47,0.35,0.23" style="fill:rgb(23,22,21);font-family:MinionPro-Regular;font-size:9.96px;stroke:none;">contained significan tamount so fcrud eoi l(57.8 5g/10 0g),</text>
   <text y="568.54" x="308.61,312.818,316.616,321.9,327.154,331.4368,333.904,339.007,342.579,347.557,350.536,354.766,357.43,362.908,365.377,368.818,373.445,378.37,380.636,385.055,389.9354,391.581,396.237,399.529,402.84,407.845,412.72540000000004,414.433,419.089,422.53,424.82079999999996,427.309,431.593,437.011,442.2898,444.769,449.116,452.766,458.0448,460.595,464.037,468.663,470.929,475.834,480.5152,482.224,486.887,490.178,493.49,498.494,503.37440000000004,505.082,509.739,513.18,515.4707999999999,517.959,528.623,532.9058,535.355,539.722,543.373" svgx:width="0.42,0.37,0.53,0.53,0.43,0.55,0.52,0.37,0.51,0.31,0.43,0.27,0.55,0.55,0.35,0.47,0.5,0.23,0.45,0.49,0.55,0.47,0.33,0.34,0.49,0.49,0.55,0.47,0.35,0.23,0.55,0.44,0.55,0.53,0.55,0.44,0.37,0.53,0.55,0.35,0.47,0.23,0.49,0.47,0.55,0.47,0.33,0.34,0.49,0.49,0.55,0.47,0.35,0.23,0.55,1.07,0.43,0.55,0.44,0.37,0.53" style="fill:rgb(23,22,21);font-family:MinionPro-Regular;font-size:9.96px;stroke:none;">crude protein (26.39 g/100 g), and ash (2.08 g/100 g). Th eash</text>
   <text y="579.907" x="308.61,312.894,318.312,323.5908,327.212,331.424,335.222,340.514,345.765,350.0478,353.649,358.752,362.324,367.302,370.28,374.505,377.165,382.64300000000003,386.246,392.986,397.21,400.783,405.0658,408.658,411.331,416.809,420.43,423.536,428.846,433.1288,436.712,440.398,444.682,450.055,454.636,458.91880000000003,462.511,467.48,470.468,474.068,477.173,482.483,487.554,491.289,495.5718,499.156,502.728,506.958,512.268,517.237,521.034,524.013,528.297,533.5758000000001,537.189,540.051,545.019" svgx:width="0.44,0.55,0.53,0.55,0.42,0.37,0.53,0.53,0.43,0.55,0.52,0.37,0.51,0.31,0.43,0.27,0.55,0.55,0.69,0.43,0.37,0.43,0.55,0.27,0.55,0.55,0.31,0.53,0.43,0.55,0.37,0.44,0.55,0.47,0.43,0.55,0.51,0.3,0.55,0.31,0.53,0.51,0.37,0.43,0.55,0.37,0.43,0.52,0.51,0.37,0.31,0.43,0.53,0.55,0.3,0.51,0.37" style="fill:rgb(23,22,21);font-family:MinionPro-Regular;font-size:9.96px;stroke:none;">and crude protein were in the range of those reported for</text>
   <text y="591.274" x="308.61,314.928,318.384,323.184,326.908,331.832,334.585,337.97139999999996,342.767,347.609,352.136,356.942,361.622,365.807,370.607,374.511" svgx:width="0.66,0.37,0.49,0.38,0.51,0.27,0.34,0.55,0.51,0.44,0.49,0.47,0.42,0.49,0.4,0.49" style="fill:rgb(23,22,21);font-family:MinionPro-It;font-size:9.96px;stroke:none;">Arachis hypogaea</text>
   <text y="591.274" x="384.165,389.529,391.8198,396.576,400.86,406.277" svgx:width="0.54,0.23,0.55,0.44,0.55,0.53" style="fill:rgb(23,22,21);font-family:MinionPro-Regular;font-size:9.96px;stroke:none;">L. and</text>
   <text y="591.274" x="416.341,421.64,425.627,430.707,433.667,438.473,442.164,444.611,448.527,451.497,456.419,459.845,464.72540000000004,469.52,477.287,482.093,485.899,489.355,493.945,498.688,503.559,507.933,510.363,512.81" svgx:width="0.55,0.4,0.53,0.31,0.49,0.38,0.25,0.4,0.31,0.51,0.37,0.49,0.55,0.79,0.49,0.38,0.37,0.47,0.49,0.51,0.44,0.25,0.25,0.49" style="fill:rgb(23,22,21);font-family:MinionPro-It;font-size:9.96px;stroke:none;">Pentaclethra macrophylla</text>
   <text y="591.274" x="522.469,528.526,532.756,538.022,541.127,546.446" svgx:width="0.59,0.43,0.55,0.31,0.53,0.23" style="fill:rgb(23,22,21);font-family:MinionPro-Regular;font-size:9.96px;stroke:none;">Benth.</text>
   <text y="602.642" x="308.61,312.048,315.351,319.976,323.414,325.7048,329.291,339.929,344.2118,347.75,351.962,355.76,361.052,366.308,370.5908,374.138,379.106,381.833,384.32300000000004,387.935,392.147,397.116,402.381,405.36,409.59,414.855,417.9426,421.47,428.293,432.639,436.3242,439.893,445.212,447.885,452.619,457.903,462.133,465.8182,469.422,472.528,477.82,482.104,487.582,491.131,494.236,499.519,504.604,508.339,512.6218,516.16,521.128,524.1160000000001,527.662,531.397,536.365,544.493" svgx:width="0.34,0.34,0.46,0.34,0.23,0.55,1.07,0.43,0.55,0.42,0.37,0.53,0.53,0.43,0.55,0.51,0.27,0.25,0.55,0.42,0.51,0.55,0.31,0.43,0.55,0.31,0.55,0.69,0.44,0.37,0.55,0.53,0.27,0.47,0.53,0.43,0.37,0.55,0.31,0.53,0.44,0.55,0.55,0.31,0.53,0.51,0.37,0.43,0.55,0.51,0.3,0.55,0.37,0.51,0.82,0.43" style="fill:rgb(23,22,21);font-family:MinionPro-Regular;font-size:9.96px;stroke:none;">[17]. Th ecrud eoi lconten twa shighe rtha nthos eo fsome</text>
   <text y="614.009" x="308.61,312.817,317.786,325.938,334.09,338.317,341.89,346.097,348.76,353.189,355.67900000000003,359.974,363.709,367.993,372.277,377.5558,381.826,386.794,389.521,392.035,395.684,397.9748,402.228,407.654,411.938,420.066,424.293,426.74,430.584,432.8748,437.136,440.871,445.795,450.484,455.632,459.925,464.209,469.651,471.9418,476.213,480.42,485.397,488.34,491.319,496.287,501.765,506.007,509.742,514.026,518.31,523.539,527.188,529.4788,533.75,538.034,543.451" svgx:width="0.42,0.51,0.82,0.82,0.43,0.37,0.42,0.27,0.44,0.25,0.55,0.37,0.43,0.43,0.53,0.55,0.51,0.27,0.25,0.37,0.23,0.55,0.55,0.44,0.82,0.43,0.25,0.46,0.23,0.55,0.37,0.51,0.46,0.51,0.43,0.44,0.55,0.23,0.55,0.42,0.51,0.31,0.31,0.51,0.55,0.55,0.37,0.43,0.43,0.53,0.37,0.23,0.55,0.44,0.55,0.53" style="fill:rgb(23,22,21);font-family:MinionPro-Regular;font-size:9.96px;stroke:none;">commercial seed oils, namely, soybean, cotton seeds, and</text>
   <text y="625.376" x="308.61,312.408,317.664,322.668,327.816,332.046,335.7312,337.437,341.132,345.405,349.678,354.907,358.5922,360.244,363.681,366.993,371.736,375.212" svgx:width="0.37,0.53,0.51,0.51,0.43,0.37,0.55,0.37,0.43,0.43,0.53,0.37,0.55,0.34,0.34,0.47,0.34,0.23" style="fill:rgb(23,22,21);font-family:MinionPro-Regular;font-size:9.96px;stroke:none;">rubber seeds [18].</text>
   <text y="625.376" x="379.206,384.488,386.7788,388.529,393.137,397.124,400.752,404.01,406.98,409.572,414.746,418.995,421.587" svgx:width="0.53,0.23,0.55,0.47,0.4,0.37,0.34,0.31,0.27,0.53,0.42,0.27,0.27" style="fill:rgb(23,22,21);font-family:MinionPro-It;font-size:9.96px;stroke:none;">L. kerstingii</text>
   <text y="625.376" x="425.979,429.672,433.943,438.214,443.444,447.1292,448.79,453.218,455.711,459.446,464.52560000000005,466.204,470.417,475.385,480.65,483.726,488.009,490.716,496.134,500.405,505.68379999999996,507.317,510.971,513.644,518.344,523.83,526.537,531.865,536.116,540.4,545.665" svgx:width="0.37,0.43,0.43,0.53,0.37,0.55,0.44,0.25,0.37,0.51,0.55,0.42,0.51,0.55,0.31,0.44,0.27,0.55,0.43,0.53,0.55,0.37,0.27,0.47,0.55,0.27,0.54,0.42,0.44,0.55,0.31" style="fill:rgb(23,22,21);font-family:MinionPro-Regular;font-size:9.96px;stroke:none;">seeds also contained significant</text>
   <text y="636.744" x="308.61,312.894,321.021,325.999,331.291,336.556,339.598,343.2832,347.833,352.801,355.789,360.343,368.506,371.167,376.608,380.833,384.52,388.948,391.441,395.088,397.3788,401.956,412.617,416.8998,421.445,429.596,434.668,438.268,441.3556,445.901,450.193,455.144,460.425,465.866,471.117,475.401,480.666,483.7536,488.307,495.123,499.487,503.17220000000003,507.741,513.051,518.028,521.133,525.498,529.098,532.746,535.302,540.583" svgx:width="0.44,0.82,0.51,0.53,0.55,0.31,0.37,0.55,0.51,0.3,0.55,0.82,0.27,0.55,0.43,0.37,0.44,0.25,0.37,0.23,0.55,1.07,0.43,0.55,0.82,0.51,0.37,0.31,0.55,0.44,0.51,0.53,0.55,0.53,0.44,0.55,0.31,0.55,0.69,0.44,0.37,0.55,0.52,0.51,0.31,0.44,0.37,0.37,0.27,0.53,0.82" style="fill:rgb(23,22,21);font-family:MinionPro-Regular;font-size:9.96px;stroke:none;">amounts of minerals. Th emos tabundan twa spotassium</text>
   <text y="648.111" x="308.61,311.452,316.427,319.001,321.521,326.496,333.214,337.497,342.7758,346.893,351.789,356.37059999999997,360.51,368.647,372.966,377.683,383.1,387.33,390.985,393.548,398.84,407.004,409.2948,413.394,417.633,422.061,424.582,428.794,431.357,436.649,444.813,447.1038,451.221,455.406,458.079,463.497,467.709,469.9998,474.108,476.781,480.37,485.345,490.799,493.08979999999997,497.189,501.456,506.874,512.1528000000001,516.269,520.004,525.18,530.436,533.0,538.292,546.455" svgx:width="0.3,0.51,0.25,0.25,0.51,0.69,0.43,0.53,0.55,0.51,0.46,0.55,0.82,0.44,0.47,0.55,0.43,0.37,0.27,0.53,0.82,0.23,0.55,0.42,0.44,0.25,0.42,0.27,0.53,0.82,0.23,0.55,0.42,0.27,0.55,0.42,0.23,0.55,0.27,0.37,0.51,0.55,0.23,0.55,0.44,0.55,0.53,0.55,0.37,0.51,0.53,0.27,0.53,0.82,0.23" style="fill:rgb(23,22,21);font-family:MinionPro-Regular;font-size:9.96px;stroke:none;">followed by magnesium, calcium, zinc, iron, and sodium.</text>
   <text y="659.478" x="308.61,319.245,323.444,327.179,331.4618,333.92,337.493,341.723,345.344,350.69,353.093,356.135,359.8202,362.299,365.918,371.203,376.127,382.867,387.151,392.4298,394.918,398.023,403.309,407.494" svgx:width="1.07,0.43,0.37,0.43,0.55,0.37,0.43,0.37,0.53,0.25,0.31,0.37,0.55,0.37,0.53,0.51,0.69,0.43,0.53,0.55,0.31,0.53,0.44,0.31" style="fill:rgb(23,22,21);font-family:MinionPro-Regular;font-size:9.96px;stroke:none;">Thes eresult sshowe dthat</text>
   <text y="659.478" x="413.074,418.356,420.6468,423.234,427.841,431.828,435.457,438.715,441.684,444.277,449.451,453.699,456.292" svgx:width="0.53,0.23,0.55,0.47,0.4,0.37,0.34,0.31,0.27,0.53,0.42,0.27,0.27" style="fill:rgb(23,22,21);font-family:MinionPro-It;font-size:9.96px;stroke:none;">L. kerstingii</text>
   <text y="659.478" x="461.512,465.218,469.502,473.786,479.015,482.7002,485.18,489.419,493.703,499.181,501.668,506.779,511.0618,513.529,517.101,521.331,526.044,530.328,533.9,539.156,543.44" svgx:width="0.37,0.43,0.43,0.53,0.37,0.55,0.42,0.44,0.55,0.55,0.51,0.43,0.55,0.37,0.43,0.47,0.44,0.37,0.53,0.43,0.53" style="fill:rgb(23,22,21);font-family:MinionPro-Regular;font-size:9.96px;stroke:none;">seeds can be regarded</text>
   <text y="670.846" x="308.61,312.957,316.6422,318.869,323.25140000000005,325.512,330.092,335.268,340.442,345.7208,347.957,351.692,356.666,361.958,365.546,369.758,374.0408,376.238,381.206,384.194,386.409,391.377,394.104,396.561,398.85179999999997,401.088,406.191,409.779,414.753,417.731,421.961,424.634,430.112,432.33,436.596,442.013,447.29179999999997,449.528,457.691,460.364,465.782,470.012,473.711,478.14,480.632,484.286" svgx:width="0.44,0.37,0.55,0.44,0.55,0.47,0.51,0.51,0.53,0.55,0.37,0.51,0.53,0.37,0.42,0.43,0.55,0.51,0.3,0.55,0.51,0.27,0.25,0.23,0.55,0.52,0.37,0.51,0.31,0.43,0.27,0.55,0.55,0.44,0.55,0.53,0.55,0.82,0.27,0.55,0.43,0.37,0.44,0.25,0.37,0.23" style="fill:rgb(23,22,21);font-family:MinionPro-Regular;font-size:9.96px;stroke:none;">as a good source of oil, protein and minerals.</text>
   <text y="695.02" x="308.61,313.209,315.549,320.202,322.4928,325.791,332.11,339.778,342.401,347.605,352.2862,355.534,361.852,365.659,368.341,373.42060000000004,376.647,383.002,387.587,395.265,400.071,404.687,407.948,410.571,413.533,416.215,420.801,426.0798,429.351,433.936,436.6252,439.876,444.601,448.49,452.378,457.4576,460.685,465.905,468.353,472.939,478.152,481.798" svgx:width="0.46,0.23,0.47,0.23,0.55,0.66,0.79,0.27,0.53,0.47,0.55,0.66,0.38,0.27,0.51,0.55,0.63,0.47,0.79,0.49,0.47,0.34,0.27,0.31,0.27,0.47,0.53,0.55,0.47,0.27,0.55,0.47,0.4,0.4,0.51,0.55,0.53,0.25,0.47,0.53,0.37,0.23" style="fill:rgb(23,22,21);font-family:MinionPro-It;font-size:9.96px;stroke:none;">3.2. Amino Acid Composition of Seed Flour.</text>
   <text y="695.02" x="489.086,494.316,498.609,503.595,506.116,510.3988,512.622,517.3032,520.47,525.73,529.964,535.067,537.737,542.021,545.059" svgx:width="0.62,0.44,0.51,0.25,0.43,0.55,0.47,0.55,0.53,0.43,0.52,0.27,0.42,0.31,0.37" style="fill:rgb(23,22,21);font-family:MinionPro-Regular;font-size:9.96px;stroke:none;">Table 2 depicts</text>
   <text y="706.387" x="308.61,311.715,316.999,321.28180000000003,324.64,328.924,337.079,339.745,345.191,350.2706,353.678,358.047,362.258,364.924,370.20279999999997,373.6,377.81,382.779,390.753,396.063,401.14,404.792,407.348,410.445,413.111,418.079,423.557,426.917,431.885" svgx:width="0.31,0.53,0.43,0.55,0.44,0.82,0.27,0.55,0.51,0.55,0.44,0.42,0.27,0.53,0.55,0.42,0.51,0.82,0.52,0.51,0.37,0.27,0.31,0.27,0.51,0.55,0.55,0.51,0.3" style="fill:rgb(23,22,21);font-family:MinionPro-Regular;font-size:9.96px;stroke:none;">the amino acid composition of</text>
   <text y="706.387" x="438.283,443.565,445.8558,449.362,453.969,457.956,461.585,464.842,467.812,470.405,475.579,479.827,482.419" svgx:width="0.53,0.23,0.55,0.47,0.4,0.37,0.34,0.31,0.27,0.53,0.42,0.27,0.27" style="fill:rgb(23,22,21);font-family:MinionPro-It;font-size:9.96px;stroke:none;">L. kerstingii</text>
   <text y="706.387" x="488.54,492.225,496.488,500.751,506.02979999999997,509.427,514.766,519.743,525.062,528.132,530.4227999999999,533.811,544.449" svgx:width="0.37,0.43,0.43,0.53,0.55,0.53,0.51,0.53,0.37,0.23,0.55,1.07,0.43" style="fill:rgb(23,22,21);font-family:MinionPro-Regular;font-size:9.96px;stroke:none;">seed flour .The</text>
   <text y="717.754" x="308.61,312.183,316.413,320.013,325.359,327.762,330.804,334.4892,340.208,342.881,348.299,353.555,356.228,360.467,364.653,367.632,371.915,377.1938,382.922,386.027,391.32,395.505,398.5926,404.289,407.394,412.677,416.95980000000003,422.658,426.888,430.489,434.224,438.454,443.719,446.815,449.515,453.944,456.434,462.214,466.498,474.662,477.335,482.752,487.83160000000004,493.571,497.944,502.157,504.83,510.059,513.7442,519.473,522.335,527.303,531.065,539.193,543.477" svgx:width="0.37,0.43,0.37,0.53,0.25,0.31,0.37,0.55,0.27,0.55,0.53,0.27,0.42,0.44,0.31,0.43,0.53,0.55,0.31,0.53,0.44,0.31,0.55,0.31,0.53,0.43,0.55,0.43,0.37,0.37,0.43,0.55,0.31,0.27,0.44,0.25,0.55,0.44,0.82,0.27,0.55,0.51,0.55,0.44,0.42,0.27,0.53,0.37,0.55,0.3,0.51,0.37,0.82,0.43,0.53" style="fill:rgb(23,22,21);font-family:MinionPro-Regular;font-size:9.96px;stroke:none;">results indicated that the essential amino acids formed</text>
   <text y="729.122" x="308.61,313.209,318.141,320.41,325.513,330.247,337.8166,341.74,346.708,349.696,353.602,356.707,361.991,366.2738,370.173,373.152,378.129,381.234,385.663,388.153,392.116,396.4,404.563,407.236,412.653,417.73260000000005,421.683,426.056,430.268,432.941,438.21979999999996,442.15,446.362,451.33,456.596,459.574,463.805,469.07,472.1576,476.054,480.337,485.755,491.0338,494.964,503.091,508.176,511.776,514.8636,518.763,525.504,529.734,533.307,537.5898,541.489,545.674" svgx:width="0.45,0.5,0.23,0.5,0.47,0.76,0.55,0.51,0.3,0.55,0.31,0.53,0.43,0.55,0.31,0.51,0.31,0.44,0.25,0.55,0.44,0.82,0.27,0.55,0.51,0.55,0.44,0.42,0.27,0.53,0.55,0.42,0.51,0.55,0.31,0.43,0.55,0.31,0.55,0.44,0.55,0.53,0.55,0.82,0.51,0.37,0.31,0.55,0.69,0.43,0.37,0.43,0.55,0.44,0.31" style="fill:rgb(23,22,21);font-family:MinionPro-Regular;font-size:9.96px;stroke:none;">36.48% of the total amino acid content and most were at</text>
   <text y="740.489" x="308.61,313.916,316.572,321.306,326.59,330.81,334.4952,339.288,341.795,346.105,350.704,354.924,357.431,361.1162,365.864,368.97,374.262,378.546,384.024,388.769,391.425,396.903,401.649,404.754,410.037,414.3198,419.047,422.619,426.903,431.898,437.174,439.831,443.403,447.633,455.779,459.999,465.264,468.306,471.9912,476.712,480.285,484.569,488.781,493.749,501.913,510.058,514.278,519.714,524.96,529.244,534.5228000000001,539.261,544.157" svgx:width="0.53,0.27,0.47,0.53,0.43,0.37,0.55,0.25,0.43,0.46,0.43,0.25,0.37,0.55,0.31,0.53,0.44,0.55,0.55,0.27,0.55,0.55,0.31,0.53,0.43,0.55,0.37,0.43,0.51,0.53,0.27,0.37,0.43,0.82,0.43,0.55,0.31,0.37,0.55,0.37,0.43,0.42,0.51,0.82,0.82,0.43,0.55,0.53,0.43,0.53,0.55,0.51,0.46" style="fill:rgb(23,22,21);font-family:MinionPro-Regular;font-size:9.96px;stroke:none;">higher levels than in the requirements recommended by</text>
  </g>
 </g>
</svg>
