<?xml version="1.0" encoding="UTF-8"?>
<svg height="767.08" width="4046.0" xmlns="http://www.w3.org/2000/svg">
 <g id="page" xmlns:svgx="http://www.xml-cml.org/schema/svgx">
  <path style="fill:rgb(155,154,156);stroke:none;stroke-width:1.0;" d="M576.000 111.770 L200.000 111.770 L200.000 111.270 L576.000 111.270 "/>
  <path style="fill:rgb(58,90,166);stroke:none;stroke-width:1.0;" d="M268.780 216.060 L273.540 216.060 Z"/>
  <path style="fill:rgb(58,90,166);stroke:none;stroke-width:1.0;" d="M280.570 255.060 L285.340 255.060 Z"/>
  <path style="fill:rgb(58,90,166);stroke:none;stroke-width:1.0;" d="M553.490 281.080 L558.260 281.080 Z"/>
  <path style="fill:rgb(58,90,166);stroke:none;stroke-width:1.0;" d="M563.410 281.080 L568.180 281.080 Z"/>
  <path style="fill:rgb(58,90,166);stroke:none;stroke-width:1.0;" d="M564.940 294.070 L569.710 294.070 Z"/>
  <path style="fill:rgb(58,90,166);stroke:none;stroke-width:1.0;" d="M203.410 320.090 L208.180 320.090 Z"/>
  <path style="fill:rgb(58,90,166);stroke:none;stroke-width:1.0;" d="M203.410 359.090 L208.180 359.090 Z"/>
  <path style="fill:rgb(58,90,166);stroke:none;stroke-width:1.0;" d="M210.390 359.090 L215.150 359.090 Z"/>
  <path style="fill:rgb(58,90,166);stroke:none;stroke-width:1.0;" d="M278.140 359.090 L282.900 359.090 Z"/>
  <path style="fill:rgb(58,90,166);stroke:none;stroke-width:1.0;" d="M285.110 359.090 L294.630 359.090 Z"/>
  <path style="fill:rgb(58,90,166);stroke:none;stroke-width:1.0;" d="M345.430 359.090 L354.950 359.090 Z"/>
  <path style="fill:rgb(58,90,166);stroke:none;stroke-width:1.0;" d="M417.600 359.090 L427.120 359.090 Z"/>
  <path style="fill:rgb(58,90,166);stroke:none;stroke-width:1.0;" d="M429.340 359.090 L438.860 359.090 Z"/>
  <path style="fill:rgb(58,90,166);stroke:none;stroke-width:1.0;" d="M505.080 359.090 L514.540 359.090 Z"/>
  <path style="fill:rgb(58,90,166);stroke:none;stroke-width:1.0;" d="M516.810 359.090 L526.340 359.090 Z"/>
  <path style="fill:rgb(58,90,166);stroke:none;stroke-width:1.0;" d="M203.410 372.080 L212.940 372.080 Z"/>
  <path style="fill:rgb(58,90,166);stroke:none;stroke-width:1.0;" d="M262.830 372.080 L267.590 372.080 Z"/>
  <path style="fill:rgb(58,90,166);stroke:none;stroke-width:1.0;" d="M269.800 372.080 L279.330 372.080 Z"/>
  <path style="fill:rgb(58,90,166);stroke:none;stroke-width:1.0;" d="M358.470 372.080 L367.990 372.080 Z"/>
  <path style="fill:rgb(58,90,166);stroke:none;stroke-width:1.0;" d="M370.200 372.080 L379.730 372.080 Z"/>
  <path style="fill:rgb(58,90,166);stroke:none;stroke-width:1.0;" d="M454.220 372.080 L463.750 372.080 Z"/>
  <path style="fill:rgb(58,90,166);stroke:none;stroke-width:1.0;" d="M311.410 385.060 L320.940 385.060 Z"/>
  <path style="fill:rgb(58,90,166);stroke:none;stroke-width:1.0;" d="M419.920 424.060 L429.450 424.060 Z"/>
  <path style="fill:rgb(58,90,166);stroke:none;stroke-width:1.0;" d="M431.720 424.060 L441.240 424.060 Z"/>
  <path style="fill:rgb(58,90,166);stroke:none;stroke-width:1.0;" d="M268.160 437.100 L277.630 437.100 Z"/>
  <path style="fill:rgb(58,90,166);stroke:none;stroke-width:1.0;" d="M203.410 463.070 L212.940 463.070 Z"/>
  <path style="fill:rgb(58,90,166);stroke:none;stroke-width:1.0;" d="M387.500 489.090 L397.020 489.090 Z"/>
  <path style="fill:rgb(58,90,166);stroke:none;stroke-width:1.0;" d="M530.590 528.090 L540.110 528.090 Z"/>
  <path style="fill:rgb(58,90,166);stroke:none;stroke-width:1.0;" d="M545.270 528.090 L554.800 528.090 Z"/>
  <path style="fill:rgb(58,90,166);stroke:none;stroke-width:1.0;" d="M289.420 567.100 L298.940 567.100 Z"/>
  <path style="fill:rgb(58,90,166);stroke:none;stroke-width:1.0;" d="M348.830 606.100 L358.360 606.100 Z"/>
  <path style="fill:rgb(58,90,166);stroke:none;stroke-width:1.0;" d="M360.620 606.100 L370.150 606.100 Z"/>
  <path style="fill:rgb(58,90,166);stroke:none;stroke-width:1.0;" d="M502.640 645.050 L512.160 645.050 Z"/>
  <path style="fill:rgb(58,90,166);stroke:none;stroke-width:1.0;" d="M299.450 684.060 L308.980 684.060 Z"/>
  <path style="fill:rgb(58,90,166);stroke:none;stroke-width:1.0;" d="M532.520 697.100 L542.040 697.100 Z"/>
  <g begin="text">
   <text y="84.246" x="200.012,202.154,210.138,218.121,223.436,228.75,234.064,238.885,241.624,243.766,251.749,257.064,259.205,264.519,267.259,272.573,275.807,280.557,282.84,288.154,292.975,295.715,297.856,302.676,304.817,307.557,309.699,315.013,319.763,322.014,327.329,332.643,337.868,340.099,344.92,350.234,355.459,357.674,362.989,368.214,370.374,372.515,377.83,382.65,387.964,392.785,395.524,397.666,402.98,408.294,411.034,416.348,421.57300000000004,423.835,426.575,431.889,435.024,437.271,440.011,445.325,450.55,452.749,455.488,460.803,464.037,472.02,477.335,479.476,484.79,487.53,489.671,494.986,500.211,502.468,507.782,510.442,512.616,517.93,523.244,530.0840000000001,532.288,537.109,542.423,547.243,552.064,554.205,559.519,564.833" svgx:width="0.22,0.83,0.83,0.55,0.55,0.55,0.5,0.28,0.22,0.83,0.55,0.22,0.55,0.28,0.55,0.33,0.5,0.55,0.55,0.5,0.28,0.22,0.5,0.22,0.28,0.22,0.55,0.5,0.55,0.55,0.55,0.55,0.55,0.5,0.55,0.55,0.55,0.55,0.55,0.55,0.22,0.55,0.5,0.55,0.5,0.28,0.22,0.55,0.55,0.28,0.55,0.55,0.55,0.28,0.55,0.33,0.55,0.28,0.55,0.55,0.55,0.28,0.55,0.33,0.83,0.55,0.22,0.55,0.28,0.22,0.55,0.55,0.55,0.55,0.28,0.55,0.55,0.55,0.72,0.55,0.5,0.55,0.5,0.5,0.22,0.55,0.55,0.5" style="fill:rgb(0,0,0);font-family:Helvetica;font-size:9.5px;stroke:none;">immunostimulatory activities and can be investigated for the formulation of new vaccines</text>
   <text y="98.249" x="200.013,205.327,208.462,210.671,213.41,216.644,218.785,223.606,228.92,234.234,242.218,247.532,252.847,258.161,262.981,265.123,270.437,275.751,277.84099999999995,280.118,285.433,288.667,293.981,299.295,304.115" svgx:width="0.55,0.33,0.55,0.28,0.33,0.22,0.5,0.55,0.55,0.83,0.55,0.55,0.55,0.5,0.22,0.55,0.55,0.22,0.55,0.55,0.33,0.55,0.55,0.5,0.28" style="fill:rgb(0,0,0);font-family:Helvetica;font-size:9.5px;stroke:none;">or trichomonacidal drugs.</text>
  </g>
  <g begin="text">
   <text y="172.006" x="200.012,203.345,210.673,214.63,219.21,226.538,233.867,241.195,247.779,251.736,255.068,262.396" svgx:width="0.28,0.61,0.33,0.38,0.61,0.61,0.61,0.55,0.33,0.28,0.61,0.61" style="fill:rgb(0,0,0);font-family:Helvetica-Bold;font-size:12.0px;stroke:none;">Introduction</text>
  </g>
  <g begin="text">
   <text y="189.014" x="200.012,206.632,211.902,215.613,219.322,223.552,229.033,232.012,234.473,239.012,241.312,243.495,246.475,251.745,256.045,258.178,263.969,267.678,272.008,276.128,278.789,281.249,283.909,288.238,293.738,295.992,301.152,304.862,309.922,315.082,320.142,322.602,325.262,328.862,331.141,333.802,337.40200000000004,339.646,343.875,346.336,350.665,354.266,357.865,360.526,363.396,366.056,370.286,375.586,377.799,380.46,385.96,388.174,392.924,397.724,399.909,405.18,407.84,410.71,413.58,417.81,421.52,425.75,431.23,434.23,436.477,439.456,443.997,449.156,453.387,456.987,459.28700000000003,461.479,465.809,470.039,474.268,479.329,483.039,488.309,490.969,496.449,501.149,503.318,506.298,511.398,513.578,516.239,519.219,522.8190000000001,525.031,530.19,535.461,540.0,543.6,546.26,550.49,554.82,557.28" svgx:width="0.67,0.53,0.38,0.38,0.43,0.55,0.3,0.25,0.46,0.23,0.55,0.3,0.53,0.43,0.55,0.58,0.38,0.44,0.42,0.27,0.25,0.27,0.44,0.55,0.55,0.52,0.38,0.51,0.52,0.51,0.25,0.27,0.36,0.55,0.27,0.36,0.55,0.43,0.25,0.44,0.36,0.36,0.27,0.29,0.27,0.43,0.53,0.55,0.27,0.55,0.55,0.48,0.48,0.55,0.53,0.27,0.29,0.29,0.43,0.38,0.43,0.55,0.3,0.55,0.3,0.46,0.52,0.43,0.36,0.23,0.55,0.44,0.43,0.43,0.51,0.38,0.53,0.27,0.55,0.47,0.55,0.3,0.51,0.55,0.27,0.3,0.36,0.55,0.52,0.53,0.46,0.36,0.27,0.43,0.44,0.25,0.35" style="fill:rgb(0,0,0);font-family:MinionPro-Regular;font-size:10.0px;stroke:none;">Currently, the Brazilian propolis is classified in 13 different types, according to its physical-</text>
   <text y="201.996" x="200.012,204.242,209.512,213.742,221.923,224.582,228.813,233.143,235.643,237.826,242.986,246.695,251.755,256.915,261.146,264.855,267.835,270.495,274.725,278.326,280.62600000000003,282.896,287.956,293.016,295.996,300.326,305.806,308.466,312.697,317.026,319.526,321.73,326.79,330.5,333.161,337.8,340.461,345.961,348.206,352.536,358.017,363.317,365.497,370.138,374.367,379.427,384.068,387.778,392.108,397.268,402.538,405.198,409.498,411.703,416.033,419.742,423.973,428.373,430.523,437.354,442.624,446.854,450.564,454.86400000000003,457.057,462.216,465.927,470.987,476.146,481.207,483.667,486.327,489.927,492.206,496.435,500.766,506.266,508.419,513.479,517.779,519.929,524.159,529.219,531.678,534.138,538.368,542.599,545.578,549.808,555.078,557.3779999999999,559.612,563.003,568.482,571.143" svgx:width="0.43,0.53,0.43,0.82,0.27,0.43,0.44,0.25,0.55,0.52,0.38,0.51,0.52,0.43,0.38,0.3,0.27,0.43,0.36,0.23,0.55,0.51,0.51,0.3,0.44,0.55,0.27,0.43,0.44,0.25,0.55,0.51,0.38,0.27,0.47,0.27,0.55,0.55,0.44,0.55,0.53,0.55,0.47,0.43,0.51,0.47,0.38,0.44,0.52,0.53,0.27,0.43,0.55,0.44,0.38,0.43,0.44,0.55,0.69,0.53,0.43,0.38,0.43,0.55,0.52,0.38,0.51,0.52,0.51,0.25,0.27,0.36,0.55,0.43,0.44,0.55,0.55,0.51,0.43,0.55,0.43,0.51,0.25,0.25,0.43,0.43,0.3,0.43,0.53,0.23,0.55,0.34,0.55,0.27,0.35" style="fill:rgb(0,0,0);font-family:MinionPro-Regular;font-size:10.0px;stroke:none;">chemical properties, botanical origin and geographic area where propolis can be collected. Ini-</text>
   <text y="214.979" x="200.012,202.992,205.652,209.982,212.443,214.902,219.443,221.74300000000002,223.936,229.516,233.846,237.556,242.556,244.742,248.973,251.973,254.154,258.483,260.943,263.243,265.378" svgx:width="0.3,0.27,0.44,0.25,0.25,0.46,0.23,0.55,0.56,0.44,0.38,0.5,0.55,0.43,0.3,0.55,0.44,0.25,0.23,0.55,0.34" style="fill:rgb(0,0,0);font-family:MinionPro-Regular;font-size:10.0px;stroke:none;">tially, Park et al. [</text>
   <text y="214.979" x="268.768" svgx:width="0.48" style="fill:rgb(58,90,166);font-family:MinionPro-Regular;font-size:10.0px;stroke:none;">1</text>
   <text y="214.979" x="273.518,276.91799999999995,279.154,283.384,285.844,290.174,293.774,297.374,300.034,302.904,305.564,309.794,315.094,317.365,322.526,326.236,331.295,336.456,341.516,343.975,346.635,350.235,352.514,356.115,360.444,368.625,373.784,376.245,380.475,384.07500000000005,386.304,389.174,392.884,397.944,408.358,413.628,416.288,419.158,422.028,426.258,429.968,434.198,439.678,442.678,444.924,450.714,454.424,458.754,462.874,465.534,467.994,470.654,474.984,480.484,482.737,486.448,490.677,495.318,497.978,503.038,508.518,512.1179999999999,514.372,517.033,522.533,524.747,529.496,534.2959999999999,536.425,541.065,544.776,549.836,555.106,560.266,563.865" svgx:width="0.34,0.55,0.43,0.25,0.44,0.36,0.36,0.27,0.29,0.27,0.43,0.53,0.55,0.52,0.38,0.51,0.52,0.51,0.25,0.27,0.36,0.55,0.36,0.44,0.82,0.52,0.25,0.43,0.36,0.55,0.29,0.38,0.51,0.82,0.53,0.27,0.29,0.29,0.43,0.38,0.43,0.55,0.3,0.55,0.58,0.38,0.44,0.42,0.27,0.25,0.27,0.44,0.55,0.55,0.38,0.43,0.47,0.27,0.51,0.55,0.36,0.55,0.27,0.55,0.55,0.48,0.48,0.55,0.47,0.38,0.51,0.53,0.52,0.36,0.23" style="fill:rgb(0,0,0);font-family:MinionPro-Regular;font-size:10.0px;stroke:none;">] classified propolis samples fromdifferent Brazilian regions in 12 groups.</text>
   <text y="228.018" x="200.012,206.842,209.712,212.692,216.923,220.632,227.462,231.792,235.503,240.772,244.372,246.67200000000003,248.88,253.28,255.4,260.15" svgx:width="0.69,0.29,0.3,0.43,0.38,0.69,0.44,0.38,0.53,0.36,0.23,0.55,0.44,0.55,0.48,0.48" style="fill:rgb(0,0,0);font-family:MinionPro-Regular;font-size:10.0px;stroke:none;">Afterwards, a 13</text>
  </g>
  <g begin="text">
   <text y="223.54" x="264.926,267.151" svgx:width="0.3,0.53" style="fill:rgb(0,0,0);font-family:MinionPro-Regular;font-size:6.67px;stroke:none;">th</text>
  </g>
  <g begin="text">
   <text y="228.019" x="273.316,276.297,280.836,285.996,290.296,292.478,297.539,300.43899999999996,302.626,307.786,311.496,316.556,321.716,326.776,329.236,331.896,335.49600000000004,337.719,344.548,347.208,350.188,355.488,357.732,362.891,367.121,371.352,376.622,379.082,381.742,386.072,389.872,392.03,396.26,401.531,405.76,413.94,416.601,420.831,425.161,427.661,429.901,434.13,439.19,447.371,452.531,457.591,461.191,463.851,466.831,469.491,474.551,480.051,482.284,489.115,493.445,497.045,499.292,502.162,507.223,512.492,517.973,523.2729999999999,525.484,528.145,533.645,535.859,541.13,543.789,548.329,552.56" svgx:width="0.3,0.46,0.52,0.43,0.55,0.51,0.29,0.55,0.52,0.38,0.51,0.52,0.51,0.25,0.27,0.36,0.55,0.69,0.27,0.3,0.53,0.55,0.52,0.43,0.43,0.53,0.25,0.27,0.44,0.38,0.55,0.43,0.53,0.43,0.82,0.27,0.43,0.44,0.25,0.55,0.43,0.51,0.82,0.52,0.51,0.36,0.27,0.3,0.27,0.51,0.55,0.55,0.69,0.44,0.36,0.55,0.29,0.51,0.53,0.55,0.53,0.55,0.27,0.55,0.55,0.53,0.27,0.46,0.43,0.36" style="fill:rgb(0,0,0);font-family:MinionPro-Regular;font-size:10.0px;stroke:none;">type of propolis with peculiar chemical composition was found in hives</text>
   <text y="241.001" x="200.014,202.474,207.534,211.764,216.094,219.074,223.303,228.603,230.798,235.128,237.587,242.648,248.128,252.768,256.367,259.027,264.298,268.598,270.823,273.802,279.073,283.373,285.505,289.734,294.794,299.125,302.724,305.724,307.956,312.285,317.766,323.06600000000003,325.246,333.427,337.757,343.237,347.876,351.586,356.646,361.187,365.417,369.017,371.281,373.94,379.44,381.656,384.635,389.906,394.206,396.339,402.129,405.839,410.169,414.289,416.948,419.409,422.068,426.398,431.898,434.153,439.633,444.693,448.403,451.383,456.653,460.883,465.213,468.813,471.813,474.065,478.395,483.875,489.175,491.355,498.185,502.516,506.11600000000004,508.363,512.594,516.924,519.384,521.844,526.073,531.3729999999999,533.534,539.324,543.034,547.365,551.484,554.145,556.604,559.265,563.595" svgx:width="0.25,0.51,0.43,0.44,0.3,0.43,0.53,0.55,0.44,0.25,0.51,0.55,0.47,0.36,0.27,0.53,0.43,0.55,0.3,0.53,0.43,0.55,0.43,0.51,0.44,0.36,0.3,0.55,0.44,0.55,0.53,0.55,0.82,0.44,0.55,0.47,0.38,0.51,0.46,0.43,0.36,0.55,0.27,0.55,0.55,0.3,0.53,0.43,0.55,0.58,0.38,0.44,0.42,0.27,0.25,0.27,0.44,0.55,0.55,0.55,0.51,0.38,0.3,0.53,0.43,0.44,0.36,0.3,0.55,0.44,0.55,0.53,0.55,0.69,0.44,0.36,0.55,0.43,0.44,0.25,0.25,0.43,0.53,0.55,0.58,0.38,0.44,0.42,0.27,0.25,0.27,0.44,0.55" style="fill:rgb(0,0,0);font-family:MinionPro-Regular;font-size:10.0px;stroke:none;">located alongside the coast and mangroves in the Brazilian northeast and was called Brazilian</text>
   <text y="253.984" x="200.013,203.723,207.953,213.25300000000001,215.433,220.593,224.303,229.363,234.523,239.583,242.043,244.703,248.303,250.583,253.973,259.763,265.973,271.553,274.953,277.171" svgx:width="0.38,0.43,0.53,0.55,0.52,0.38,0.51,0.52,0.51,0.25,0.27,0.36,0.55,0.34,0.58,0.63,0.56,0.34,0.55,0.34" style="fill:rgb(0,0,0);font-family:MinionPro-Regular;font-size:10.0px;stroke:none;">red propolis (BRP) [</text>
   <text y="253.984" x="280.561" svgx:width="0.48" style="fill:rgb(58,90,166);font-family:MinionPro-Regular;font-size:10.0px;stroke:none;">2</text>
   <text y="253.984" x="285.311,288.701,291.00100000000003,293.158,296.548,302.048,304.27,307.25,312.52,316.82,318.953,321.413,325.743,329.343,332.343,334.543,339.813,344.043,348.273,352.603,357.873,362.103,364.403,366.631,369.611,374.881,379.181,381.315,385.545,390.815,395.045,403.225,405.885,410.115,414.445,416.945,419.185,423.415,428.475,436.655,441.815,446.875,450.475,453.135,456.116,458.776,463.836,469.336,471.569,476.629,479.529,481.717,487.507,493.717,499.317,501.56,506.83,511.16,514.76,516.98,522.04,526.271,530.5,536.0,538.183,541.893,546.123,550.663,554.893,559.224,561.683,565.914" svgx:width="0.34,0.23,0.55,0.34,0.55,0.55,0.3,0.53,0.43,0.55,0.25,0.44,0.36,0.3,0.55,0.53,0.43,0.43,0.44,0.53,0.43,0.23,0.55,0.3,0.53,0.43,0.55,0.43,0.53,0.43,0.82,0.27,0.43,0.44,0.25,0.55,0.43,0.51,0.82,0.52,0.51,0.36,0.27,0.3,0.27,0.51,0.55,0.55,0.51,0.29,0.55,0.58,0.63,0.56,0.55,0.53,0.44,0.36,0.55,0.51,0.43,0.43,0.55,0.55,0.38,0.43,0.46,0.43,0.44,0.25,0.43,0.53" style="fill:rgb(0,0,0);font-family:MinionPro-Regular;font-size:10.0px;stroke:none;">]. In the last decade, the chemical composition of BRP has been revealed</text>
   <text y="267.023" x="200.013,204.343,209.823,215.12300000000002,217.304,221.014,225.244,227.704,232.034,235.014,239.244,244.544,246.728,249.708,254.808,256.989,259.649,262.629,266.22900000000004,268.441,273.501,276.161,281.221,285.551,289.781,292.761,295.421,299.961,302.621,305.601,308.261,312.491,316.091,318.391,320.654,326.754,332.024,336.324,338.512,346.692,351.022,353.682,359.182,361.416,365.646,370.916,375.146,383.326,385.986,390.216,394.546,397.046,399.23,403.46,408.52,416.7,421.86,426.92,432.4,436.63,442.11,445.09,448.69,450.99,453.86,458.92,464.19,469.67,474.97,477.182,479.842,485.342,487.557,493.347,499.557,505.15700000000004,507.342,511.672,515.382,519.6819999999999,521.799,526.029,528.49,532.819,536.419,540.02,542.68,545.549,548.209,552.44,557.74,560.01,564.34" svgx:width="0.44,0.55,0.53,0.55,0.38,0.43,0.25,0.44,0.3,0.43,0.53,0.55,0.3,0.51,0.55,0.27,0.3,0.36,0.55,0.51,0.27,0.51,0.44,0.43,0.3,0.27,0.46,0.27,0.3,0.27,0.43,0.36,0.23,0.55,0.61,0.53,0.43,0.55,0.82,0.44,0.27,0.55,0.55,0.43,0.53,0.43,0.82,0.27,0.43,0.44,0.25,0.55,0.43,0.51,0.82,0.52,0.51,0.55,0.43,0.55,0.3,0.36,0.55,0.29,0.51,0.53,0.55,0.53,0.55,0.27,0.55,0.55,0.58,0.63,0.56,0.55,0.44,0.38,0.43,0.55,0.43,0.25,0.44,0.36,0.36,0.27,0.29,0.27,0.43,0.53,0.55,0.44,0.36" style="fill:rgb(0,0,0);font-family:MinionPro-Regular;font-size:10.0px;stroke:none;">and related to its bioactivities. The main chemical components found in BRP are classified as</text>
   <text y="280.006" x="200.013,202.673,206.273,211.333,214.203,216.663,220.993,225.533,230.593,236.073,240.303,243.903,246.203,248.428,251.298,253.758,258.088,262.628,267.688,273.168,277.398,280.998,283.298,285.504,288.374,290.834,295.164,299.704,304.764,310.244,315.304,317.764,321.364,323.664,325.869,330.199,335.469,339.179,344.24,349.719,353.949,357.549,359.849,362.096,366.326,371.596,375.926,378.386,382.616,387.676,393.156,397.386,400.986,403.286,405.466,410.626,413.606,417.836,421.547,426.606,430.836,435.167,438.876,444.036,448.367,453.846,457.446,459.721,464.052,469.531,474.831,477.069,481.71,486.039,491.52,494.5,499.77,504.83,510.31,514.54,518.14,520.383,525.023,528.733,533.792,539.063,544.223,547.823,550.089" svgx:width="0.27,0.36,0.51,0.29,0.25,0.44,0.46,0.51,0.55,0.43,0.36,0.23,0.55,0.29,0.25,0.44,0.46,0.51,0.55,0.43,0.36,0.23,0.55,0.29,0.25,0.44,0.46,0.51,0.55,0.51,0.25,0.36,0.23,0.55,0.44,0.53,0.38,0.51,0.55,0.43,0.36,0.23,0.55,0.43,0.53,0.44,0.25,0.43,0.51,0.55,0.43,0.36,0.23,0.55,0.52,0.3,0.43,0.38,0.51,0.43,0.44,0.38,0.52,0.44,0.55,0.36,0.55,0.44,0.55,0.53,0.55,0.47,0.44,0.55,0.3,0.53,0.51,0.55,0.43,0.36,0.55,0.47,0.38,0.51,0.53,0.52,0.36,0.55,0.34" style="fill:rgb(0,0,0);font-family:MinionPro-Regular;font-size:10.0px;stroke:none;">isoflavones, flavones, flavonols, aurones, chalcones, pterocarpans and xanthones groups [</text>
   <text y="280.006" x="553.479" svgx:width="0.48" style="fill:rgb(58,90,166);font-family:MinionPro-Regular;font-size:10.0px;stroke:none;">3</text>
   <text y="280.006" x="558.229" svgx:width="0.52" style="fill:rgb(0,0,0);font-family:MinionPro-Regular;font-size:10.0px;stroke:none;">–</text>
   <text y="280.006" x="563.39" svgx:width="0.48" style="fill:rgb(58,90,166);font-family:MinionPro-Regular;font-size:10.0px;stroke:none;">6</text>
   <text y="280.006" x="568.14,571.53" svgx:width="0.34,0.23" style="fill:rgb(0,0,0);font-family:MinionPro-Regular;font-size:10.0px;stroke:none;">].</text>
   <text y="292.988" x="200.014,206.113,211.384,215.684,217.814,222.875,227.935,230.915,235.245,240.725,243.385,247.615,251.945,254.445,256.707,261.767,265.477,268.137,272.776,275.436,280.936,283.124,288.184,291.084,293.272,299.061,305.272,310.872,313.115,319.944,324.275,327.875,330.065,332.725,337.995,342.225,347.706,350.685,353.345,356.216,358.875,363.105,368.40500000000003,370.658,374.987,378.58700000000005,380.806,384.516,388.746,392.346,395.005,400.486,405.546,410.815,414.415,416.691,420.922,425.562,430.832,436.102,440.432,443.412,447.642,451.242,453.484,458.544" svgx:width="0.61,0.53,0.43,0.55,0.51,0.51,0.3,0.44,0.55,0.27,0.43,0.44,0.25,0.55,0.51,0.38,0.27,0.47,0.27,0.55,0.55,0.51,0.29,0.55,0.58,0.63,0.56,0.55,0.69,0.44,0.36,0.55,0.27,0.53,0.43,0.55,0.3,0.27,0.29,0.27,0.43,0.53,0.55,0.44,0.36,0.55,0.38,0.43,0.36,0.27,0.55,0.51,0.53,0.36,0.55,0.43,0.47,0.53,0.53,0.44,0.3,0.43,0.36,0.55,0.51,0.29" style="fill:rgb(0,0,0);font-family:MinionPro-Regular;font-size:10.0px;stroke:none;">The botanical origin of BRP was identified as resinous exudates of</text>
   <text y="292.988" x="463.633,470.732,475.482,477.793,482.573,486.513,490.073,494.313,496.962,501.86199999999997,503.941,507.831,511.542,516.401,519.641,522.562,527.112,531.831,536.661,541.011,543.422,545.752,550.922" svgx:width="0.71,0.49,0.25,0.49,0.4,0.37,0.42,0.27,0.49,0.55,0.4,0.38,0.49,0.34,0.31,0.47,0.49,0.51,0.44,0.25,0.25,0.53,0.79" style="fill:rgb(0,0,0);font-family:MinionPro-It;font-size:10.0px;stroke:none;">Dalbergia ecastophyllum</text>
   <text y="292.988" x="561.541" svgx:width="0.34" style="fill:rgb(0,0,0);font-family:MinionPro-Regular;font-size:10.0px;stroke:none;">[</text>
   <text y="292.988" x="564.931" svgx:width="0.48" style="fill:rgb(58,90,166);font-family:MinionPro-Regular;font-size:10.0px;stroke:none;">7</text>
   <text y="292.988" x="569.681,573.07" svgx:width="0.34,0.23" style="fill:rgb(0,0,0);font-family:MinionPro-Regular;font-size:10.0px;stroke:none;">],</text>
   <text y="306.027" x="200.014,205.284,210.344,217.174,221.404,225.944,230.173,233.883,236.18300000000002,238.395,240.855,243.514,248.475,252.704,255.165,259.765,261.922,266.322,268.441,272.042,276.272,280.501,285.561,291.042,296.342,298.544,303.704,306.164,310.495,315.974,318.974,321.221,324.822,329.982,334.211,338.441,341.102,345.331,348.93100000000004,351.155,356.315,360.645,364.354,367.335,369.995,374.225,376.885,382.044,386.375,389.354,393.585,397.185,399.513,403.844,407.444,409.661,414.721,420.202,424.502,426.669,431.729,434.62899999999996,436.818,439.797,445.068,449.368,451.5,459.68,464.01,466.671,472.171,474.404,478.004,483.065,488.335,492.044,496.275,500.505,504.105,506.322,511.382,514.282,516.47,520.18,524.41,528.01,530.671,536.151,539.751,541.982,544.852,549.912,553.712,555.871,561.661,567.871" svgx:width="0.53,0.51,0.69,0.43,0.46,0.43,0.38,0.23,0.55,0.25,0.27,0.5,0.43,0.25,0.46,0.55,0.44,0.55,0.36,0.43,0.43,0.51,0.55,0.53,0.55,0.52,0.25,0.44,0.55,0.3,0.55,0.36,0.52,0.43,0.43,0.27,0.43,0.36,0.55,0.52,0.44,0.38,0.3,0.27,0.43,0.27,0.52,0.44,0.3,0.43,0.36,0.55,0.44,0.36,0.55,0.51,0.55,0.43,0.55,0.51,0.29,0.55,0.3,0.53,0.43,0.55,0.82,0.44,0.27,0.55,0.55,0.36,0.51,0.53,0.38,0.43,0.43,0.36,0.55,0.51,0.29,0.55,0.38,0.43,0.36,0.27,0.55,0.36,0.55,0.29,0.51,0.38,0.55,0.58,0.63,0.56" style="fill:rgb(0,0,0);font-family:MinionPro-Regular;font-size:10.0px;stroke:none;">however, likely a second plant species participates as one of the main sources of resins for BRP</text>
   <text y="319.01" x="200.013" svgx:width="0.34" style="fill:rgb(0,0,0);font-family:MinionPro-Regular;font-size:10.0px;stroke:none;">[</text>
   <text y="319.01" x="203.403" svgx:width="0.48" style="fill:rgb(58,90,166);font-family:MinionPro-Regular;font-size:10.0px;stroke:none;">5</text>
   <text y="319.01" x="208.153,211.543" svgx:width="0.34,0.23" style="fill:rgb(0,0,0);font-family:MinionPro-Regular;font-size:10.0px;stroke:none;">].</text>
   <text y="331.993" x="211.975,219.325,224.595,228.895,231.081,234.061,239.161,241.342,244.322,249.592,253.89200000000002,256.025,260.565,264.895,268.605,271.265,275.495,278.475,283.07500000000005,285.278,290.338,293.238,295.426,299.656,304.926,309.156,317.336,319.996,324.226,328.556,331.056,333.24,337.47,342.53,350.71,355.87,360.93,366.2,371.68,376.95,380.55,382.846,387.906,390.806,392.993,398.783,404.993,410.593,412.779,415.439,420.919,425.149,430.209,433.919,439.079,444.139,447.849,452.18,455.159,459.389,464.689,466.977,473.807,476.467,479.447,484.717,487.378,492.878,495.097,498.077,503.347,507.647,509.78,513.49,517.72,521.32,523.98,529.48,531.72,539.901,542.56,547.201,550.18,555.451,559.161,563.391" svgx:width="0.74,0.53,0.43,0.55,0.3,0.51,0.55,0.3,0.53,0.43,0.55,0.46,0.44,0.38,0.27,0.43,0.3,0.46,0.55,0.51,0.29,0.55,0.43,0.53,0.43,0.82,0.27,0.43,0.44,0.25,0.55,0.43,0.51,0.82,0.52,0.51,0.53,0.55,0.53,0.36,0.55,0.51,0.29,0.55,0.58,0.63,0.56,0.55,0.27,0.55,0.43,0.51,0.38,0.52,0.51,0.38,0.44,0.3,0.43,0.53,0.55,0.69,0.27,0.3,0.53,0.27,0.55,0.55,0.3,0.53,0.43,0.55,0.38,0.43,0.36,0.27,0.55,0.55,0.82,0.27,0.47,0.3,0.53,0.38,0.43,0.23" style="fill:rgb(0,0,0);font-family:MinionPro-Regular;font-size:10.0px;stroke:none;">Due to the variety of chemical compounds of BRP incorporated within the resin mixture,</text>
   <text y="344.975" x="200.013,204.243,207.843,213.003,217.233,221.463,224.123,228.453,230.913,233.373,237.97299999999998,240.151,245.311,250.581,254.811,260.291,265.351,267.811,270.471,274.771,277.001,281.231,286.291,294.471,299.631,304.691,309.961,315.441,320.711,324.311,326.611,328.818,336.998,341.328,346.808,351.408,353.592,358.652,361.312,366.372,368.832,373.892,378.532,381.192,385.422,389.752,392.252,394.467,398.797,403.027,406.007,408.667,413.207,415.867,418.847,421.507,425.737,429.33700000000005,431.658,436.928,441.258,445.798,450.098,452.237,457.297,461.527,465.757,471.257,473.44,477.15,481.38,486.54,491.6,495.31,498.29,502.521,507.821,510.064,512.524,515.184,520.144,524.444,526.618,530.948,536.428,539.408,542.068,547.128,551.768,554.428,559.698,564.029,569.509" svgx:width="0.43,0.36,0.52,0.43,0.43,0.27,0.44,0.25,0.25,0.46,0.55,0.52,0.53,0.43,0.55,0.51,0.25,0.27,0.43,0.55,0.43,0.51,0.82,0.52,0.51,0.53,0.55,0.53,0.36,0.23,0.55,0.82,0.44,0.55,0.46,0.55,0.51,0.27,0.51,0.25,0.51,0.47,0.27,0.43,0.44,0.25,0.55,0.44,0.43,0.3,0.27,0.46,0.27,0.3,0.27,0.43,0.36,0.55,0.53,0.44,0.46,0.43,0.55,0.51,0.43,0.43,0.55,0.55,0.38,0.43,0.52,0.51,0.38,0.3,0.43,0.53,0.55,0.25,0.27,0.5,0.43,0.55,0.44,0.55,0.3,0.27,0.51,0.47,0.27,0.53,0.44,0.55,0.3" style="fill:rgb(0,0,0);font-family:MinionPro-Regular;font-size:10.0px;stroke:none;">especially phenolic compounds, many biological activities have been reported like antioxidant</text>
   <text y="358.015" x="200.013" svgx:width="0.34" style="fill:rgb(0,0,0);font-family:MinionPro-Regular;font-size:10.0px;stroke:none;">[</text>
   <text y="358.015" x="203.403" svgx:width="0.48" style="fill:rgb(58,90,166);font-family:MinionPro-Regular;font-size:10.0px;stroke:none;">2</text>
   <text y="358.015" x="208.153" svgx:width="0.23" style="fill:rgb(0,0,0);font-family:MinionPro-Regular;font-size:10.0px;stroke:none;">,</text>
   <text y="358.015" x="210.403" svgx:width="0.48" style="fill:rgb(58,90,166);font-family:MinionPro-Regular;font-size:10.0px;stroke:none;">8</text>
   <text y="358.015" x="215.153,218.543,220.84300000000002,223.03,227.36,232.84,235.82,238.48,243.54,247.87,252.1,255.08,259.31,263.02,265.68,270.01,272.51,274.733" svgx:width="0.34,0.23,0.55,0.44,0.55,0.3,0.27,0.51,0.44,0.43,0.3,0.43,0.38,0.27,0.44,0.25,0.55,0.34" style="fill:rgb(0,0,0);font-family:MinionPro-Regular;font-size:10.0px;stroke:none;">], antibacterial [</text>
   <text y="358.015" x="278.123" svgx:width="0.48" style="fill:rgb(58,90,166);font-family:MinionPro-Regular;font-size:10.0px;stroke:none;">9</text>
   <text y="358.015" x="282.873" svgx:width="0.23" style="fill:rgb(0,0,0);font-family:MinionPro-Regular;font-size:10.0px;stroke:none;">,</text>
   <text y="358.015" x="285.123,289.873" svgx:width="0.48,0.48" style="fill:rgb(58,90,166);font-family:MinionPro-Regular;font-size:10.0px;stroke:none;">10</text>
   <text y="358.015" x="294.623,298.013,300.313,302.455,305.325,310.595,316.075,320.715,323.375,327.605,330.265,335.535,339.83500000000004,342.027" svgx:width="0.34,0.23,0.55,0.29,0.53,0.55,0.47,0.27,0.43,0.27,0.53,0.43,0.55,0.34" style="fill:rgb(0,0,0);font-family:MinionPro-Regular;font-size:10.0px;stroke:none;">], fungicide [</text>
   <text y="358.015" x="345.417,350.167" svgx:width="0.48,0.48" style="fill:rgb(58,90,166);font-family:MinionPro-Regular;font-size:10.0px;stroke:none;">11</text>
   <text y="358.015" x="354.917,358.307,360.607,362.776,367.106,372.586,375.566,378.226,383.386,387.716,391.426,395.756,399.356,402.016,404.996,407.656,411.956,414.197" svgx:width="0.34,0.23,0.55,0.44,0.55,0.3,0.27,0.52,0.44,0.38,0.44,0.36,0.27,0.3,0.27,0.43,0.55,0.34" style="fill:rgb(0,0,0);font-family:MinionPro-Regular;font-size:10.0px;stroke:none;">], antiparasitic [</text>
   <text y="358.015" x="417.587,422.337" svgx:width="0.48,0.48" style="fill:rgb(58,90,166);font-family:MinionPro-Regular;font-size:10.0px;stroke:none;">10</text>
   <text y="358.015" x="427.087" svgx:width="0.23" style="fill:rgb(0,0,0);font-family:MinionPro-Regular;font-size:10.0px;stroke:none;">,</text>
   <text y="358.015" x="429.337,434.087" svgx:width="0.48,0.48" style="fill:rgb(58,90,166);font-family:MinionPro-Regular;font-size:10.0px;stroke:none;">12</text>
   <text y="358.015" x="438.837,442.227,444.527,446.681,451.011,456.491,459.471,462.131,467.611,471.841,476.901,482.061,484.521,488.852,492.452,495.112,499.41200000000003,501.673" svgx:width="0.34,0.23,0.55,0.44,0.55,0.3,0.27,0.55,0.43,0.51,0.52,0.25,0.44,0.36,0.27,0.43,0.55,0.34" style="fill:rgb(0,0,0);font-family:MinionPro-Regular;font-size:10.0px;stroke:none;">], antineoplasic [</text>
   <text y="358.015" x="505.063,509.813" svgx:width="0.48,0.48" style="fill:rgb(58,90,166);font-family:MinionPro-Regular;font-size:10.0px;stroke:none;">13</text>
   <text y="358.015" x="514.563" svgx:width="0.23" style="fill:rgb(0,0,0);font-family:MinionPro-Regular;font-size:10.0px;stroke:none;">,</text>
   <text y="358.015" x="516.813,521.563" svgx:width="0.48,0.48" style="fill:rgb(58,90,166);font-family:MinionPro-Regular;font-size:10.0px;stroke:none;">14</text>
   <text y="358.015" x="526.313,529.703,532.0029999999999,534.158,538.489,543.969,546.948,549.609,553.109,557.339,561.669,565.379,568.039,572.269" svgx:width="0.34,0.23,0.55,0.44,0.55,0.3,0.27,0.35,0.43,0.44,0.38,0.27,0.43,0.36" style="fill:rgb(0,0,0);font-family:MinionPro-Regular;font-size:10.0px;stroke:none;">], anti-caries</text>
   <text y="370.997" x="200.013" svgx:width="0.34" style="fill:rgb(0,0,0);font-family:MinionPro-Regular;font-size:10.0px;stroke:none;">[</text>
   <text y="370.997" x="203.403,208.153" svgx:width="0.48,0.48" style="fill:rgb(58,90,166);font-family:MinionPro-Regular;font-size:10.0px;stroke:none;">15</text>
   <text y="370.997" x="212.903,216.293,218.59300000000002,220.763,224.993,229.533,232.513,237.573,240.553,245.613,250.253,252.913,257.213,259.427" svgx:width="0.34,0.23,0.55,0.43,0.46,0.3,0.51,0.3,0.51,0.47,0.27,0.43,0.55,0.34" style="fill:rgb(0,0,0);font-family:MinionPro-Regular;font-size:10.0px;stroke:none;">], cytotoxic [</text>
   <text y="370.997" x="262.817" svgx:width="0.48" style="fill:rgb(58,90,166);font-family:MinionPro-Regular;font-size:10.0px;stroke:none;">2</text>
   <text y="370.997" x="267.567" svgx:width="0.23" style="fill:rgb(0,0,0);font-family:MinionPro-Regular;font-size:10.0px;stroke:none;">,</text>
   <text y="370.997" x="269.817,274.567" svgx:width="0.48,0.48" style="fill:rgb(58,90,166);font-family:MinionPro-Regular;font-size:10.0px;stroke:none;">10</text>
   <text y="370.997" x="279.317,282.707,285.007,287.205,291.535,297.015,299.995,302.655,306.155,308.815,314.295,317.165,319.625,323.955,332.135,336.465,339.445,344.505,348.215,352.815,355.066" svgx:width="0.34,0.23,0.55,0.44,0.55,0.3,0.27,0.35,0.27,0.55,0.29,0.25,0.44,0.82,0.44,0.3,0.51,0.38,0.46,0.55,0.34" style="fill:rgb(0,0,0);font-family:MinionPro-Regular;font-size:10.0px;stroke:none;">], anti-inflamatory [</text>
   <text y="370.997" x="358.456,363.206" svgx:width="0.48,0.48" style="fill:rgb(58,90,166);font-family:MinionPro-Regular;font-size:10.0px;stroke:none;">16</text>
   <text y="370.997" x="367.956" svgx:width="0.23" style="fill:rgb(0,0,0);font-family:MinionPro-Regular;font-size:10.0px;stroke:none;">,</text>
   <text y="370.997" x="370.206,374.956" svgx:width="0.48,0.48" style="fill:rgb(58,90,166);font-family:MinionPro-Regular;font-size:10.0px;stroke:none;">17</text>
   <text y="370.997" x="379.706,383.096,385.396,387.608,391.938,397.418,400.398,403.058,408.538,413.598,417.828,420.488,424.718,428.948,434.108,437.088,439.748,444.288,448.588,450.82" svgx:width="0.34,0.23,0.55,0.44,0.55,0.3,0.27,0.55,0.51,0.43,0.27,0.43,0.43,0.52,0.3,0.27,0.46,0.43,0.55,0.34" style="fill:rgb(0,0,0);font-family:MinionPro-Regular;font-size:10.0px;stroke:none;">], antinociceptive [</text>
   <text y="370.997" x="454.21,458.96" svgx:width="0.48,0.48" style="fill:rgb(58,90,166);font-family:MinionPro-Regular;font-size:10.0px;stroke:none;">18</text>
   <text y="370.997" x="463.71,467.10999999999996,469.358,473.688,479.168,484.468,486.65,493.48,497.81,501.41,503.601,507.931,510.391,513.991,519.091,521.289,526.349,530.579,536.059,540.289,543.16,545.82,550.05,552.71,557.04,559.54,561.767,564.747" svgx:width="0.34,0.55,0.44,0.55,0.53,0.55,0.69,0.44,0.36,0.55,0.44,0.25,0.36,0.51,0.55,0.51,0.43,0.55,0.43,0.29,0.27,0.43,0.27,0.44,0.25,0.55,0.3,0.51" style="fill:rgb(0,0,0);font-family:MinionPro-Regular;font-size:10.0px;stroke:none;">] and was also beneficial to</text>
   <text y="383.98" x="200.013,202.993,208.263,212.56300000000002,214.696,221.526,226.586,231.856,237.336,242.63600000000002,244.857,250.127,254.357,258.687,261.147,263.807,269.287,273.98699999999997,276.15,281.31,285.02,290.08,294.31,298.54,302.14,305.74,308.011" svgx:width="0.3,0.53,0.43,0.55,0.69,0.51,0.53,0.55,0.53,0.55,0.53,0.43,0.44,0.25,0.27,0.55,0.47,0.55,0.52,0.38,0.51,0.43,0.43,0.36,0.36,0.55,0.34" style="fill:rgb(0,0,0);font-family:MinionPro-Regular;font-size:10.0px;stroke:none;">the wound healing process [</text>
   <text y="383.98" x="311.401,316.151" svgx:width="0.48,0.48" style="fill:rgb(58,90,166);font-family:MinionPro-Regular;font-size:10.0px;stroke:none;">19</text>
   <text y="383.98" x="320.901,324.292" svgx:width="0.34,0.23" style="fill:rgb(0,0,0);font-family:MinionPro-Regular;font-size:10.0px;stroke:none;">].</text>
   <text y="397.019" x="211.975,216.725,220.955,225.495,229.725,233.435,237.765,240.265,242.476,246.706,251.346,256.507,260.736,264.447,267.106,275.286,279.516,284.996,287.977,291.577,293.895,298.225,303.706,309.00600000000003,311.186,315.417,317.876,320.536,326.016,328.676,332.906,337.236,339.736,341.97,344.63,350.11,354.65,358.88,362.48,365.461,368.12,372.76,377.09,380.07,382.73,387.79,393.27,396.87,399.173,404.443,408.773,413.313,417.613,419.753,423.352,428.622,433.682,440.512,446.012,448.212,451.193,456.462,460.762,462.953,467.283,472.763,475.742,478.403,483.563,487.893,491.603,495.933,499.533,502.193,505.173,507.833,512.133,514.372,518.703,524.182,529.482,531.663,535.994,541.264,543.823,549.094,553.634,557.964,563.443" svgx:width="0.48,0.43,0.46,0.43,0.38,0.44,0.25,0.55,0.43,0.47,0.52,0.43,0.38,0.27,0.82,0.43,0.55,0.3,0.36,0.55,0.44,0.55,0.53,0.55,0.43,0.25,0.27,0.55,0.27,0.43,0.44,0.25,0.55,0.27,0.55,0.46,0.43,0.36,0.3,0.27,0.47,0.44,0.3,0.27,0.51,0.55,0.36,0.55,0.53,0.44,0.46,0.43,0.55,0.36,0.53,0.51,0.69,0.55,0.55,0.3,0.53,0.43,0.55,0.44,0.55,0.3,0.27,0.52,0.44,0.38,0.44,0.36,0.27,0.3,0.27,0.43,0.55,0.44,0.55,0.53,0.55,0.44,0.53,0.26,0.53,0.46,0.44,0.55,0.3" style="fill:rgb(0,0,0);font-family:MinionPro-Regular;font-size:10.0px;stroke:none;">Several experiments and clinical investigations have shown the antiparasitic and adjuvant</text>
   <text y="410.002" x="200.013,205.173,208.883,213.943,219.103,223.333,227.043,230.023,232.683,236.913,240.513,242.759,247.819,250.719,252.907,255.887,261.157,265.457,267.647,272.917,277.457,282.727,286.438,291.497,295.827,298.287,302.517,307.577,312.847,317.907,320.367,323.027,327.327,329.498,333.728,338.368,341.348,345.058,349.388,353.618,356.618,358.865,363.925,366.825,369.013,374.173,377.883,382.943,388.103,393.163,395.623,398.283,401.88300000000004,404.162,407.552,415.212,420.892,426.472,429.862,432.16200000000003,434.38,442.039,447.72,453.32000000000005,455.526,460.586,463.486,465.673,470.943,473.604,476.474,479.344,483.574,487.284,491.514,496.994,499.994,502.24,505.22,509.76,514.921,519.151,522.751,524.974,530.034,532.934,535.122,540.282,543.992,549.052,554.213,559.272,561.733,564.393" svgx:width="0.52,0.38,0.51,0.52,0.43,0.38,0.3,0.27,0.43,0.36,0.55,0.51,0.29,0.55,0.3,0.53,0.43,0.55,0.53,0.46,0.53,0.38,0.51,0.44,0.25,0.43,0.51,0.53,0.51,0.25,0.27,0.43,0.55,0.43,0.47,0.3,0.38,0.44,0.43,0.3,0.55,0.51,0.29,0.55,0.52,0.38,0.51,0.52,0.51,0.25,0.27,0.36,0.55,0.34,0.77,0.57,0.56,0.34,0.23,0.55,0.77,0.57,0.56,0.55,0.51,0.29,0.55,0.53,0.27,0.29,0.29,0.43,0.38,0.43,0.55,0.3,0.55,0.3,0.46,0.52,0.43,0.36,0.55,0.51,0.29,0.55,0.52,0.38,0.51,0.52,0.51,0.25,0.27,0.36" style="fill:rgb(0,0,0);font-family:MinionPro-Regular;font-size:10.0px;stroke:none;">properties of the hydroalcoholic extract of propolis (HEP). HEP of different types of propolis</text>
   <text y="422.984" x="200.013,203.613,208.883,213.943,220.773,225.003,230.303,232.498,236.828,242.308,245.288,247.948,253.108,257.438,261.148,265.478,269.078,271.738,274.718,279.048,282.758,287.358,289.643,293.873,296.743,299.613,302.273,306.503,310.833,315.063,319.663,321.844,326.174,330.814,335.144,337.804,343.284,346.884" svgx:width="0.36,0.53,0.51,0.69,0.43,0.53,0.55,0.44,0.55,0.3,0.27,0.52,0.44,0.38,0.44,0.36,0.27,0.3,0.44,0.38,0.46,0.55,0.43,0.29,0.29,0.27,0.43,0.44,0.43,0.46,0.55,0.44,0.47,0.44,0.27,0.55,0.36,0.3" style="fill:rgb(0,0,0);font-family:MinionPro-Regular;font-size:10.0px;stroke:none;">showed antiparasitary efficacy against</text>
   <text y="422.984" x="352.118,358.758,361.409,366.108,369.529,374.448,377.098,381.998,384.716,387.126,391.826,399.486,404.206,406.536,409.186" svgx:width="0.68,0.27,0.49,0.37,0.51,0.27,0.49,0.55,0.25,0.49,0.79,0.49,0.25,0.27,0.49" style="fill:rgb(0,0,0);font-family:MinionPro-It;font-size:10.0px;stroke:none;">Giardia lamblia</text>
   <text y="422.984" x="416.521" svgx:width="0.34" style="fill:rgb(0,0,0);font-family:MinionPro-Regular;font-size:10.0px;stroke:none;">[</text>
   <text y="422.984" x="419.911,424.661" svgx:width="0.48,0.48" style="fill:rgb(58,90,166);font-family:MinionPro-Regular;font-size:10.0px;stroke:none;">20</text>
   <text y="422.984" x="429.411" svgx:width="0.23" style="fill:rgb(0,0,0);font-family:MinionPro-Regular;font-size:10.0px;stroke:none;">,</text>
   <text y="422.984" x="431.661,436.411" svgx:width="0.48,0.48" style="fill:rgb(58,90,166);font-family:MinionPro-Regular;font-size:10.0px;stroke:none;">21</text>
   <text y="422.984" x="441.161,444.552" svgx:width="0.34,0.23" style="fill:rgb(0,0,0);font-family:MinionPro-Regular;font-size:10.0px;stroke:none;">],</text>
   <text y="422.984" x="449.063,454.082,458.552,463.282,467.832,472.552,474.962,479.823,483.052,490.822,495.722,499.065,503.205,507.755,512.975,517.896,520.465" svgx:width="0.6,0.47,0.47,0.47,0.49,0.25,0.49,0.34,0.79,0.49,0.55,0.42,0.47,0.53,0.51,0.27,0.27" style="fill:rgb(0,0,0);font-family:MinionPro-It;font-size:10.0px;stroke:none;">Toxoplasma gondii</text>
   <text y="422.984" x="525.597,529.927,535.407" svgx:width="0.44,0.55,0.53" style="fill:rgb(0,0,0);font-family:MinionPro-Regular;font-size:10.0px;stroke:none;">and</text>
   <text y="422.984" x="542.89,548.129,551.839,554.49,558.139,563.149,567.809" svgx:width="0.6,0.37,0.27,0.38,0.51,0.47,0.33" style="fill:rgb(0,0,0);font-family:MinionPro-It;font-size:10.0px;stroke:none;">Tricho-</text>
   <text y="436.023" x="200.013,207.783,212.333,217.553,222.413,225.81300000000002,228.076,232.476,237.186,241.426,243.996,249.216,253.966,256.296,259.026" svgx:width="0.79,0.47,0.53,0.49,0.34,0.55,0.45,0.49,0.42,0.27,0.53,0.49,0.25,0.27,0.34" style="fill:rgb(0,0,0);font-family:MinionPro-It;font-size:10.0px;stroke:none;">monas vaginalis</text>
   <text y="436.023" x="264.756" svgx:width="0.34" style="fill:rgb(0,0,0);font-family:MinionPro-Regular;font-size:10.0px;stroke:none;">[</text>
   <text y="436.023" x="268.146,272.896" svgx:width="0.48,0.48" style="fill:rgb(58,90,166);font-family:MinionPro-Regular;font-size:10.0px;stroke:none;">22</text>
   <text y="436.023" x="277.646,281.036,283.336,285.504,288.894,291.894,294.065,296.725,300.32500000000005,302.569,305.229,313.409,318.569,323.629,327.339,330.319,334.649,340.129,343.129,345.372,348.352,353.452,355.633,360.903,363.563,368.203,373.473,375.933,378.593,383.233,388.503,391.503,393.73,396.71,401.98,406.31" svgx:width="0.34,0.23,0.55,0.34,0.3,0.55,0.27,0.36,0.55,0.27,0.82,0.52,0.51,0.38,0.3,0.44,0.55,0.3,0.55,0.3,0.51,0.55,0.53,0.27,0.47,0.53,0.25,0.27,0.47,0.53,0.3,0.55,0.3,0.53,0.44,0.3" style="fill:rgb(0,0,0);font-family:MinionPro-Regular;font-size:10.0px;stroke:none;">]. It is important to highlight that</text>
   <text y="436.023" x="411.532" svgx:width="0.6" style="fill:rgb(0,0,0);font-family:MinionPro-It;font-size:10.0px;stroke:none;">T</text>
   <text y="436.023" x="417.522" svgx:width="0.23" style="fill:rgb(0,0,0);font-family:MinionPro-Regular;font-size:10.0px;stroke:none;">.</text>
   <text y="436.023" x="421.907,426.307,431.017,435.257,437.827,443.047,447.797,450.127,452.857" svgx:width="0.45,0.49,0.42,0.27,0.53,0.49,0.25,0.27,0.34" style="fill:rgb(0,0,0);font-family:MinionPro-It;font-size:10.0px;stroke:none;">vaginalis</text>
   <text y="436.023" x="458.587,461.247,464.84700000000004,467.034,470.014,475.284,479.584,481.717,485.947,488.927,491.587,496.647,499.107,504.167,508.807,511.468,515.698,520.028,522.528,524.804,529.135,533.775,538.005,543.484,546.484,548.672,553.731" svgx:width="0.27,0.36,0.55,0.3,0.53,0.43,0.55,0.43,0.3,0.27,0.51,0.25,0.51,0.47,0.27,0.43,0.44,0.25,0.55,0.44,0.47,0.43,0.55,0.3,0.55,0.51,0.29" style="fill:rgb(0,0,0);font-family:MinionPro-Regular;font-size:10.0px;stroke:none;">is the etiological agent of</text>
   <text y="449.006" x="200.013,202.993,206.703,209.363,213.593,218.863,223.923,232.103,237.163,242.643,245.303,249.633,253.233,255.893,259.493,261.793,264.076,267.056,272.326,276.62600000000003,278.758,286.938,291.998,295.598,298.598,300.811,305.041,310.102,318.281,326.461,331.521,337.021,339.249,344.729,349.789,355.269,358.77,363.31,365.969,369.68,374.009,376.469,378.769,380.975,384.576,388.805,393.445,398.715,403.045,405.505,407.965,412.565,414.763,417.743,421.453,425.784,431.263,434.863,443.044,445.703,448.684,451.664,455.894,461.194,463.462,468.732,471.393,474.992,479.223,483.553,487.153,491.45300000000003,493.623,497.013,501.763,507.863,515.214,518.614,520.892,523.552,529.052,531.21,534.19,539.46,543.76,545.893,552.724,557.783,561.494,563.953" svgx:width="0.3,0.38,0.27,0.43,0.53,0.51,0.82,0.51,0.55,0.27,0.44,0.36,0.27,0.36,0.23,0.55,0.3,0.53,0.43,0.55,0.82,0.51,0.36,0.3,0.55,0.43,0.51,0.82,0.82,0.51,0.55,0.55,0.55,0.51,0.55,0.35,0.46,0.27,0.38,0.44,0.25,0.23,0.55,0.36,0.43,0.47,0.53,0.44,0.25,0.25,0.46,0.55,0.3,0.38,0.44,0.55,0.36,0.82,0.27,0.3,0.3,0.43,0.53,0.55,0.53,0.27,0.36,0.43,0.44,0.36,0.43,0.55,0.34,0.48,0.61,0.74,0.34,0.55,0.27,0.55,0.55,0.3,0.53,0.43,0.55,0.69,0.51,0.38,0.25,0.53" style="fill:rgb(0,0,0);font-family:MinionPro-Regular;font-size:10.0px;stroke:none;">trichomoniasis, the most common non-viral, sexually transmitted disease (STD) in the world</text>
   <text y="461.989" x="200.013" svgx:width="0.34" style="fill:rgb(0,0,0);font-family:MinionPro-Regular;font-size:10.0px;stroke:none;">[</text>
   <text y="461.989" x="203.403,208.153" svgx:width="0.48,0.48" style="fill:rgb(58,90,166);font-family:MinionPro-Regular;font-size:10.0px;stroke:none;">23</text>
   <text y="461.989" x="212.903,216.293,218.59300000000002,220.763,224.153,229.653,231.874,236.204,241.474,246.744,249.404,252.384,255.044,260.104,265.584,267.884,270.085,278.265,282.495,285.475,289.185,294.245,299.725,302.385,307.655,311.985,316.105,321.165,323.625,327.855,331.355,335.065,339.295,342.895,345.555,349.155,352.135,356.465,361.945,364.945,367.312,373.412,375.712,377.857,382.397,386.727,391.367,394.027,399.507,403.837,406.297,408.957,412.557,414.82,420.09,424.42,428.02000000000004,430.24,435.3,439.53,443.76,449.26,451.5,454.16,462.34,467.5,469.96,472.62,476.85,481.18,484.16,488.391,493.69100000000003,495.947,498.607,504.107,506.265,510.595,516.095,518.284,520.944,526.424,530.654,534.365,538.594,542.924,546.524,549.184,554.664" svgx:width="0.34,0.23,0.55,0.34,0.55,0.55,0.44,0.53,0.53,0.27,0.3,0.27,0.51,0.55,0.23,0.55,0.82,0.43,0.3,0.38,0.51,0.55,0.27,0.53,0.44,0.42,0.51,0.25,0.43,0.35,0.38,0.43,0.36,0.27,0.36,0.3,0.44,0.55,0.3,0.55,0.61,0.23,0.55,0.46,0.44,0.47,0.27,0.55,0.44,0.25,0.27,0.36,0.55,0.53,0.44,0.36,0.55,0.51,0.43,0.43,0.55,0.55,0.27,0.82,0.52,0.25,0.27,0.43,0.44,0.3,0.43,0.53,0.55,0.27,0.55,0.55,0.44,0.55,0.55,0.27,0.55,0.43,0.38,0.43,0.44,0.36,0.27,0.55,0.47" style="fill:rgb(0,0,0);font-family:MinionPro-Regular;font-size:10.0px;stroke:none;">]. In addition, metronidazole-resistant T. vaginalis has been implicated in an increasing</text>
   <text y="474.971" x="200.013,205.493,210.763,218.943,224.003,228.233,232.03300000000002,234.199,239.259,242.159,244.347,248.057,252.287,255.157,258.867,263.197,267.427,270.407,275.467,279.177,283.77700000000004,285.958,290.188,294.518,298.118,302.348,305.948,308.248,310.449,317.279,322.549,325.209,329.439,334.73900000000003,336.925,341.255,344.965,349.265,351.438,356.708,360.308,365.578,369.908,372.368,374.828,379.428,381.598,384.578,388.288,392.518,396.848,399.828,404.058,409.358,411.589,418.419,421.079,424.059,429.35900000000004,431.544,434.204,439.684,443.914,447.624,451.854,456.184,459.784,464.014,469.314,471.569,476.839,481.899,485.499,489.729,493.329,495.55,500.61,503.51,505.698,508.678,513.948,518.2479999999999,520.382,525.652,529.362,534.632,539.272,541.572,543.739,546.199,550.429,554.759,560.029,562.689,568.169" svgx:width="0.55,0.53,0.82,0.51,0.43,0.38,0.55,0.51,0.29,0.55,0.38,0.43,0.29,0.38,0.44,0.43,0.3,0.51,0.38,0.46,0.55,0.43,0.44,0.36,0.43,0.36,0.23,0.55,0.69,0.53,0.27,0.43,0.53,0.55,0.44,0.38,0.43,0.55,0.53,0.36,0.53,0.44,0.25,0.25,0.46,0.55,0.3,0.38,0.43,0.44,0.3,0.43,0.53,0.55,0.69,0.27,0.3,0.53,0.55,0.27,0.55,0.43,0.38,0.43,0.44,0.36,0.43,0.53,0.55,0.53,0.51,0.36,0.43,0.36,0.55,0.51,0.29,0.55,0.3,0.53,0.43,0.55,0.53,0.38,0.53,0.47,0.23,0.55,0.25,0.43,0.44,0.53,0.27,0.55,0.47" style="fill:rgb(0,0,0);font-family:MinionPro-Regular;font-size:10.0px;stroke:none;">number of refractory cases, which are usually treated with increased doses of the drug, leading</text>
   <text y="488.011" x="200.013,202.993,208.093,210.274,214.604,220.104,222.293,224.953,230.433,234.663,238.373,242.603,246.933,250.533,254.833,256.989,259.649,265.149,267.364,270.344,275.614,279.914,282.046,287.106,291.336,295.566,300.836,304.546,308.256,312.486,317.966,322.196,326.49600000000004,328.704,333.764,336.664,338.852,342.452,345.112,350.382,354.682,356.824,361.054,363.924,366.794,371.024,375.254,378.234,381.834,384.093" svgx:width="0.3,0.51,0.55,0.44,0.55,0.55,0.27,0.55,0.43,0.38,0.43,0.44,0.36,0.43,0.55,0.27,0.55,0.55,0.3,0.53,0.43,0.55,0.51,0.43,0.43,0.53,0.38,0.38,0.43,0.55,0.43,0.43,0.55,0.51,0.29,0.55,0.36,0.27,0.53,0.43,0.55,0.43,0.29,0.29,0.43,0.43,0.3,0.36,0.55,0.34" style="fill:rgb(0,0,0);font-family:MinionPro-Regular;font-size:10.0px;stroke:none;">to an increase in the occurrence of side effects [</text>
   <text y="488.011" x="387.483,392.233" svgx:width="0.48,0.48" style="fill:rgb(58,90,166);font-family:MinionPro-Regular;font-size:10.0px;stroke:none;">24</text>
   <text y="488.011" x="396.983,400.373,402.673,404.842,411.462,413.922,418.152,422.482,426.192,428.652,433.192,435.492,437.724,442.054,444.514,447.494,451.724,455.434,460.914,465.244,468.224,470.884,475.424,479.724,481.887,486.117,491.387,495.097,499.427,502.407,505.067,509.607,513.907,516.073,519.053,524.323,528.553,532.263,536.593,541.753,544.413,548.643,552.243,554.511,558.841,562.551" svgx:width="0.34,0.23,0.55,0.67,0.25,0.43,0.44,0.38,0.25,0.46,0.23,0.55,0.44,0.25,0.3,0.43,0.38,0.55,0.44,0.3,0.27,0.46,0.43,0.55,0.43,0.53,0.38,0.44,0.3,0.27,0.46,0.43,0.55,0.3,0.53,0.43,0.38,0.44,0.52,0.27,0.43,0.36,0.55,0.44,0.38,0.43" style="fill:rgb(0,0,0);font-family:MinionPro-Regular;font-size:10.0px;stroke:none;">]. Clearly, alternative curative therapies are</text>
   <text y="500.993" x="200.013,205.493,209.723,213.953,219.223,223.453,228.723,231.02300000000002,233.178,237.508,242.988,248.288,250.526,255.686,259.396,264.456,269.616,274.676,277.136,279.796,283.396,285.618,289.848,298.028,302.258,305.968,310.608,314.838,318.43800000000005,320.71,325.04,328.64000000000004,330.858,335.258,337.435,342.915,347.245,350.225,355.495,359.205,363.535,366.035,368.219,373.379,377.089,382.149,387.419,392.689,396.919,399.919,402.121,404.991,410.051,413.851,416.011,420.341,422.801,425.781,430.011,433.721,439.201,443.531,446.511,449.171,453.711,458.011,460.174,465.444,469.154,474.424,479.064,482.664" svgx:width="0.55,0.43,0.43,0.53,0.43,0.53,0.23,0.55,0.44,0.55,0.53,0.55,0.52,0.38,0.51,0.52,0.51,0.25,0.27,0.36,0.55,0.43,0.82,0.43,0.38,0.47,0.43,0.36,0.55,0.44,0.36,0.55,0.44,0.55,0.55,0.44,0.3,0.53,0.38,0.44,0.25,0.55,0.52,0.38,0.51,0.53,0.53,0.43,0.3,0.55,0.29,0.51,0.38,0.55,0.44,0.25,0.3,0.43,0.38,0.55,0.44,0.3,0.27,0.46,0.43,0.55,0.53,0.38,0.53,0.47,0.36,0.23" style="fill:rgb(0,0,0);font-family:MinionPro-Regular;font-size:10.0px;stroke:none;">needed, and propolis emerges as a natural product for alternative drugs.</text>
   <text y="513.976" x="211.975,220.885,225.945,229.655,233.885,238.945,243.485,247.715,251.425,253.72500000000002,255.912,263.572,269.252,274.85200000000003,277.001,282.271,286.601,290.201,292.364,297.424,301.654,305.884,311.384,313.567,318.837,322.437,326.667,331.967,334.09,337.07,342.17,344.295,347.165,352.225,355.935,364.115,369.385,371.845,376.175,379.155,383.455,385.567,390.107,394.337,397.317,401.547,405.257,407.917,413.397,417.727,421.437,426.03700000000003,428.2,432.74,437.07,441.3,445.53,448.19,453.67,457.9,461.5,463.689,468.019,472.659,476.989,479.649,485.129,488.729,491.729,493.906,498.966,503.296,507.526,510.506,514.736,518.446,521.106,525.436,527.936,530.076,535.136,538.9359999999999,541.018,545.558,548.218,551.928,556.258,558.758,560.917,566.187,568.847,572.447" svgx:width="0.89,0.51,0.38,0.43,0.51,0.46,0.43,0.38,0.23,0.55,0.77,0.57,0.56,0.55,0.53,0.44,0.36,0.55,0.51,0.43,0.43,0.55,0.55,0.53,0.36,0.43,0.53,0.55,0.3,0.51,0.55,0.29,0.51,0.38,0.82,0.53,0.25,0.44,0.3,0.43,0.55,0.46,0.43,0.3,0.43,0.38,0.27,0.55,0.44,0.38,0.46,0.55,0.46,0.44,0.43,0.43,0.27,0.55,0.43,0.36,0.55,0.44,0.47,0.44,0.27,0.55,0.36,0.3,0.55,0.51,0.44,0.43,0.3,0.43,0.38,0.27,0.44,0.25,0.55,0.51,0.38,0.55,0.46,0.27,0.38,0.44,0.25,0.55,0.53,0.27,0.36,0.35" style="fill:rgb(0,0,0);font-family:MinionPro-Regular;font-size:10.0px;stroke:none;">Moreover, HEP has been used to formulate veterinary vaccines against bacterial or viral dis-</text>
   <text y="527.015" x="200.013,204.243,208.573,212.173,216.403,220.003,222.303,224.504,229.564,235.044,239.274,243.574,245.707,249.307,254.367,262.547,266.84700000000004,269.008,274.168,279.438,283.668,289.148,294.208,296.668,299.328,303.628,305.8,310.03,315.09,323.27,328.43,333.49,338.76,344.24,349.51,353.11,355.406,360.676,365.006,368.606,370.827,375.987,379.697,383.927,387.527,391.757,397.237,400.217,404.447,409.747,411.985,414.645,422.825,431.005,436.275,441.755,446.815,454.995,460.055,465.325,470.595,473.055,477.385,480.365,485.425,489.135,493.735,496.004,500.334,504.564,507.544,510.204,514.744,517.404,520.384,524.984,527.185" svgx:width="0.43,0.44,0.36,0.43,0.36,0.23,0.55,0.51,0.55,0.43,0.43,0.55,0.36,0.51,0.82,0.43,0.55,0.52,0.53,0.43,0.55,0.51,0.25,0.27,0.43,0.55,0.43,0.51,0.82,0.52,0.51,0.53,0.55,0.53,0.36,0.55,0.53,0.44,0.36,0.55,0.52,0.38,0.43,0.36,0.43,0.55,0.3,0.43,0.53,0.55,0.27,0.82,0.82,0.53,0.55,0.51,0.82,0.51,0.53,0.53,0.25,0.44,0.3,0.51,0.38,0.46,0.55,0.44,0.43,0.3,0.27,0.46,0.27,0.3,0.46,0.55,0.34" style="fill:rgb(0,0,0);font-family:MinionPro-Regular;font-size:10.0px;stroke:none;">eases, once some phenolic compounds has presented immunomodulatory activity [</text>
   <text y="527.015" x="530.575,535.325" svgx:width="0.48,0.48" style="fill:rgb(58,90,166);font-family:MinionPro-Regular;font-size:10.0px;stroke:none;">25</text>
   <text y="527.015" x="540.075" svgx:width="0.52" style="fill:rgb(0,0,0);font-family:MinionPro-Regular;font-size:10.0px;stroke:none;">–</text>
   <text y="527.015" x="545.235,549.985" svgx:width="0.48,0.48" style="fill:rgb(58,90,166);font-family:MinionPro-Regular;font-size:10.0px;stroke:none;">27</text>
   <text y="527.015" x="554.735,558.125,560.425,562.674,569.504" svgx:width="0.34,0.23,0.55,0.69,0.36" style="fill:rgb(0,0,0);font-family:MinionPro-Regular;font-size:10.0px;stroke:none;">]. As</text>
   <text y="539.998" x="200.013,204.343,209.613,212.173,217.443,221.983,226.313,231.793,234.773,237.073,239.244,244.404,248.114,253.174,258.334,263.394,265.854,268.514,272.11400000000003,274.393,278.623,283.683,289.163,292.033,296.263,299.973,303.57300000000004,305.857,308.837,313.937,316.118,319.098,324.368,328.668,330.802,335.342,339.672,343.902,348.132,350.792,356.272,360.602,363.102,365.328,368.198,373.258,376.968,385.148,390.418,392.878,397.208,400.188,402.848,407.908,413.408,415.671,420.941,425.171,428.771,431.431,435.141,439.471,444.531,446.991,451.291,453.484,458.644,462.354,467.414,472.574,476.804,480.514,483.494,486.154,490.384,493.984,496.284,498.498,502.098,507.368,511.598,516.898,519.078,523.408,527.008,529.226,532.936,537.166,542.436,547.706,551.936,556.166" svgx:width="0.44,0.53,0.26,0.53,0.46,0.44,0.55,0.3,0.23,0.55,0.52,0.38,0.51,0.52,0.51,0.25,0.27,0.36,0.55,0.43,0.51,0.55,0.29,0.43,0.38,0.36,0.55,0.3,0.51,0.55,0.3,0.53,0.43,0.55,0.46,0.44,0.43,0.43,0.27,0.55,0.44,0.25,0.55,0.29,0.51,0.38,0.82,0.53,0.25,0.44,0.3,0.27,0.51,0.55,0.55,0.53,0.43,0.36,0.27,0.38,0.44,0.51,0.25,0.43,0.55,0.52,0.38,0.51,0.52,0.43,0.38,0.3,0.27,0.43,0.36,0.23,0.55,0.36,0.53,0.43,0.53,0.55,0.44,0.36,0.55,0.38,0.43,0.53,0.53,0.43,0.43,0.53" style="fill:rgb(0,0,0);font-family:MinionPro-Regular;font-size:10.0px;stroke:none;">adjuvant, propolis confers to the vaccinal formulation desirable properties, such as reduced</text>
   <text y="552.98" x="200.013,204.553,207.213,210.813,215.043,220.103,223.703,226.363,229.343,233.883,236.18300000000002,238.337,242.977,248.037,253.097,258.397,260.504,264.104,267.084,271.414,276.474,279.134,281.594,284.254,287.234,291.774,294.074,296.276,298.736,303.796,310.69599999999997,312.774,316.484,320.714,325.044,329.274,332.254,337.314,341.954,346.184,351.664,354.324,358.554,361.214,364.194,368.734,371.034,373.208,375.668,380.728,387.628,389.705,392.685,397.745,402.385,405.045,409.275,411.935,414.915,419.455,421.755,423.891,428.221,433.701,439.00100000000003,441.125,443.785,447.38500000000005,449.573,453.903,458.963,461.423,465.723,467.771,470.751,475.851,477.976,480.636,486.116,491.386,496.656,500.886,505.18600000000004,507.286,511.686,513.749,517.459,522.519,527.579,532.849,536.449,539.449,541.641,546.911,552.181,560.361,565.421,569.131,573.461" svgx:width="0.46,0.27,0.36,0.43,0.51,0.36,0.27,0.3,0.46,0.23,0.55,0.47,0.51,0.51,0.53,0.55,0.36,0.3,0.44,0.51,0.27,0.25,0.27,0.3,0.46,0.23,0.55,0.25,0.51,0.69,0.55,0.38,0.43,0.44,0.43,0.3,0.51,0.47,0.43,0.55,0.27,0.43,0.27,0.3,0.46,0.23,0.55,0.25,0.51,0.69,0.55,0.3,0.51,0.47,0.27,0.43,0.27,0.3,0.46,0.23,0.55,0.44,0.55,0.53,0.55,0.27,0.36,0.55,0.44,0.51,0.25,0.43,0.55,0.3,0.51,0.55,0.27,0.55,0.53,0.53,0.43,0.43,0.55,0.44,0.55,0.38,0.51,0.51,0.53,0.36,0.3,0.55,0.53,0.53,0.82,0.51,0.38,0.44,0.25" style="fill:rgb(0,0,0);font-family:MinionPro-Regular;font-size:10.0px;stroke:none;">viscosity, good stability, low reactogenicity, low toxicity, and is able to induce a robust humoral</text>
   <text y="566.02" x="200.013,204.343,209.823,215.12300000000002,217.304,221.534,225.764,228.224,230.684,235.954,238.414,242.744,246.544,248.712,252.422,256.652,260.252,265.412,270.472,275.952,279.552,283.85200000000003,286.015" svgx:width="0.44,0.55,0.53,0.55,0.43,0.43,0.25,0.25,0.53,0.25,0.44,0.38,0.55,0.38,0.43,0.36,0.52,0.51,0.55,0.36,0.43,0.55,0.34" style="fill:rgb(0,0,0);font-family:MinionPro-Regular;font-size:10.0px;stroke:none;">and cellular response [</text>
   <text y="566.02" x="289.405,294.155" svgx:width="0.48,0.48" style="fill:rgb(58,90,166);font-family:MinionPro-Regular;font-size:10.0px;stroke:none;">26</text>
   <text y="566.02" x="298.905,302.295" svgx:width="0.34,0.23" style="fill:rgb(0,0,0);font-family:MinionPro-Regular;font-size:10.0px;stroke:none;">].</text>
   <text y="579.002" x="211.975,218.805,222.405,224.674,229.004,231.874,236.934,240.644,244.874,253.054,257.284,262.764,265.744,268.404,273.464,278.944,283.174,288.444,290.744,292.988,301.168,306.228,309.828,312.828,315.041,320.101,323.001,325.189,328.169,333.439,337.73900000000003,339.873,345.033,348.743,352.973,357.513,360.173,365.233,370.503,374.103,376.383,379.983,382.963,388.233,393.503,396.163,400.393,403.993,406.26,411.53,415.76,419.36,423.59,427.3,429.96,435.02,437.68,443.16,447.86,450.083,453.063,458.333,462.63300000000004,464.766,469.826,472.486,477.546,480.006,485.066,489.706,492.366,496.596,500.926,503.426,505.642,509.972,514.202,517.182,519.842,524.382,527.042,530.022,532.682,536.912,540.5120000000001,542.775,547.835,550.735,552.923,558.713,564.923" svgx:width="0.69,0.36,0.55,0.44,0.29,0.51,0.38,0.43,0.82,0.43,0.55,0.3,0.27,0.51,0.55,0.43,0.53,0.23,0.55,0.82,0.51,0.36,0.3,0.55,0.51,0.29,0.55,0.3,0.53,0.43,0.55,0.52,0.38,0.43,0.46,0.27,0.51,0.53,0.36,0.55,0.36,0.3,0.53,0.53,0.27,0.43,0.36,0.55,0.53,0.43,0.36,0.43,0.38,0.27,0.51,0.27,0.55,0.47,0.55,0.3,0.53,0.43,0.55,0.51,0.27,0.51,0.25,0.51,0.47,0.27,0.43,0.44,0.25,0.55,0.44,0.43,0.3,0.27,0.46,0.27,0.3,0.27,0.43,0.36,0.55,0.51,0.29,0.55,0.58,0.63,0.56" style="fill:rgb(0,0,0);font-family:MinionPro-Regular;font-size:10.0px;stroke:none;">As aforementioned, most of the previous studies describing the biological activities of BRP</text>
   <text y="591.985" x="200.013,205.283,208.883,213.113,216.713,218.948,223.178,226.158,231.428,235.758,241.238,246.298,248.798,250.98,255.31,258.91,261.128,264.108,269.378,273.678,275.81,280.04,284.68,287.66,291.37,295.7,299.93,302.91,305.57,310.63,316.13,318.386,321.986,327.046,329.506,334.046,338.276,343.756,346.736,349.036,351.268,355.598,361.078,366.378,368.559,371.539,376.809,381.10900000000004,383.242,387.472,392.112,395.092,398.802,403.132,407.362,410.342,413.002,418.062,423.562,425.818,433.998,438.228,441.208,446.478,451.538,456.838,459.04,461.7,467.18,470.05,472.51,477.78,482.01,487.49,491.72,495.95,499.55,501.843,507.113,509.773,513.483,517.713,521.943,524.923,527.383,531.9830000000001,534.158,537.138,542.408,546.708,548.841,553.381,556.041,560.271,562.731" svgx:width="0.53,0.36,0.43,0.36,0.55,0.43,0.3,0.53,0.44,0.55,0.51,0.25,0.55,0.44,0.36,0.55,0.3,0.53,0.43,0.55,0.43,0.47,0.3,0.38,0.44,0.43,0.3,0.27,0.51,0.55,0.55,0.36,0.51,0.25,0.46,0.43,0.55,0.3,0.23,0.55,0.44,0.55,0.53,0.55,0.3,0.53,0.43,0.55,0.43,0.47,0.3,0.38,0.44,0.43,0.3,0.27,0.51,0.55,0.55,0.82,0.43,0.3,0.53,0.51,0.53,0.55,0.27,0.55,0.29,0.25,0.53,0.43,0.55,0.43,0.43,0.36,0.55,0.53,0.27,0.38,0.43,0.43,0.3,0.25,0.46,0.55,0.3,0.53,0.43,0.55,0.46,0.27,0.43,0.25,0.53" style="fill:rgb(0,0,0);font-family:MinionPro-Regular;font-size:10.0px;stroke:none;">uses ethanol as the extraction solvent, and the extraction method influences directly the yield</text>
   <text y="605.024" x="200.013,204.343,209.823,215.12300000000002,217.304,220.904,225.134,227.594,231.824,236.054,239.034,241.694,246.234,248.894,251.874,256.474,258.69,261.56,266.62,270.42,272.523,276.123,281.183,289.363,293.663,295.879,300.109,305.169,313.349,318.509,323.569,328.839,334.319,339.589,343.189,345.428" svgx:width="0.44,0.55,0.53,0.55,0.36,0.43,0.25,0.43,0.43,0.3,0.27,0.46,0.27,0.3,0.46,0.55,0.29,0.51,0.38,0.55,0.36,0.51,0.82,0.43,0.55,0.43,0.51,0.82,0.52,0.51,0.53,0.55,0.53,0.36,0.55,0.34" style="fill:rgb(0,0,0);font-family:MinionPro-Regular;font-size:10.0px;stroke:none;">and selectivity for some compounds [</text>
   <text y="605.024" x="348.818,353.568" svgx:width="0.48,0.48" style="fill:rgb(58,90,166);font-family:MinionPro-Regular;font-size:10.0px;stroke:none;">10</text>
   <text y="605.024" x="358.318" svgx:width="0.23" style="fill:rgb(0,0,0);font-family:MinionPro-Regular;font-size:10.0px;stroke:none;">,</text>
   <text y="605.024" x="360.568,365.318" svgx:width="0.48,0.48" style="fill:rgb(58,90,166);font-family:MinionPro-Regular;font-size:10.0px;stroke:none;">28</text>
   <text y="605.024" x="370.068,373.458,375.75800000000004,377.97,384.9,389.96,392.42,396.75,399.73,402.39,404.85,409.15000000000003,411.362,415.592,420.652,428.832,433.992,439.052,444.322,449.802,455.072,458.672,460.968,463.428,466.088,471.048,475.348,477.465,480.445,485.715,490.775,494.375,498.675,500.823,503.693,508.753,514.023,519.503,524.803,527.015,529.675,535.175,537.389,541.619,545.219,548.819,553.049,558.529,561.509,564.169,568.499" svgx:width="0.34,0.23,0.55,0.7,0.51,0.25,0.44,0.3,0.27,0.25,0.43,0.55,0.43,0.51,0.82,0.52,0.51,0.53,0.55,0.53,0.36,0.55,0.25,0.27,0.5,0.43,0.55,0.3,0.53,0.51,0.36,0.43,0.55,0.29,0.51,0.53,0.55,0.53,0.55,0.27,0.55,0.55,0.43,0.36,0.36,0.43,0.55,0.3,0.27,0.44,0.25" style="fill:rgb(0,0,0);font-family:MinionPro-Regular;font-size:10.0px;stroke:none;">]. Volatile compounds like those found in essential</text>
   <text y="618.007" x="200.013,205.073,207.733,210.193,213.793,216.0,220.33,224.04,228.34,230.514,233.174,238.674,240.832,243.292,248.352,255.252,257.386,261.616,266.676,272.156,276.386,280.616,286.096,289.076,292.786,297.116,300.096,302.756,307.816,313.296,316.896,319.236,321.896,327.396,329.555,334.715,338.425,343.485,348.645,353.705,356.165,358.825,362.425,364.725,366.972,372.032,377.302,380.302,382.449,387.609,390.069,394.399,398.999,401.214,405.544,411.044,413.233,415.893,424.073,429.233,434.293,438.003,440.983,445.313,450.793,453.793,456.036,459.746,464.806,467.266,471.56600000000003,473.724,478.784,483.384,485.516,489.746,494.806,500.286,503.266,506.976,509.636,514.696,519.966,522.946,525.606,531.086,535.7860000000001,538.013,540.993,546.0930000000001,548.274,553.434,557.144,562.204,567.364,572.424" svgx:width="0.51,0.27,0.25,0.36,0.55,0.44,0.38,0.43,0.55,0.27,0.55,0.55,0.25,0.51,0.69,0.55,0.43,0.51,0.55,0.43,0.43,0.55,0.3,0.38,0.44,0.3,0.27,0.51,0.55,0.36,0.55,0.27,0.55,0.55,0.52,0.38,0.51,0.52,0.51,0.25,0.27,0.36,0.23,0.55,0.51,0.53,0.3,0.55,0.52,0.25,0.44,0.46,0.55,0.44,0.55,0.55,0.27,0.82,0.52,0.51,0.38,0.3,0.44,0.55,0.3,0.55,0.38,0.51,0.25,0.43,0.55,0.51,0.46,0.55,0.43,0.51,0.55,0.3,0.38,0.27,0.51,0.53,0.3,0.27,0.55,0.47,0.55,0.3,0.51,0.55,0.52,0.38,0.51,0.52,0.51,0.35" style="fill:rgb(0,0,0);font-family:MinionPro-Regular;font-size:10.0px;stroke:none;">oils are in low concentrations in propolis, but play an important role by contributing to propo-</text>
   <text y="630.989" x="200.013,202.473,205.133,208.733,210.955,216.115,218.575,222.805,227.135,230.735,235.065,240.545,243.545,245.764,250.094,253.804,258.864,267.044,271.44399999999996,273.656,277.986,283.466,288.766,290.947,293.607,296.587,300.187,302.399,307.459,310.119,315.179,317.639,322.699,327.339,329.999,334.229,338.559,341.059,343.274,347.604,351.834,354.814,357.474,362.014,364.674,367.654,370.314,374.544,378.144,380.444,382.675,388.885,393.115,396.715,400.945,405.275,408.985,413.215,418.485,422.715,426.425,430.02500000000003,432.338,437.608,441.938,446.478,450.778,452.918,457.248,462.408,467.568,470.028,472.688,476.918,482.218,484.439,488.979,493.309,497.019,499.679,504.739,510.009,513.609,515.846,524.026,528.256,531.236,536.506,541.566,546.836,550.436,552.696,555.676" svgx:width="0.25,0.27,0.36,0.55,0.52,0.25,0.43,0.44,0.36,0.44,0.55,0.3,0.55,0.44,0.38,0.51,0.82,0.44,0.55,0.44,0.55,0.53,0.55,0.27,0.3,0.36,0.55,0.51,0.27,0.51,0.25,0.51,0.47,0.27,0.43,0.44,0.25,0.55,0.44,0.43,0.3,0.27,0.46,0.27,0.3,0.27,0.43,0.36,0.23,0.55,0.63,0.43,0.36,0.43,0.44,0.38,0.43,0.53,0.43,0.38,0.36,0.55,0.53,0.44,0.46,0.43,0.55,0.44,0.52,0.52,0.25,0.27,0.43,0.53,0.55,0.46,0.44,0.38,0.27,0.51,0.53,0.36,0.55,0.82,0.43,0.3,0.53,0.51,0.53,0.36,0.55,0.3,0.51" style="fill:rgb(0,0,0);font-family:MinionPro-Regular;font-size:10.0px;stroke:none;">lis pleasant aroma and its biological activities. Researchers have applied various methods to</text>
   <text y="643.972" x="200.013,205.073,210.133,213.113,217.443,220.103,225.603,227.792,232.952,236.662,241.722,246.882,251.942,254.402,257.062,260.66200000000003,262.942,267.482,272.542,275.002,279.332,282.312,284.972,287.432,291.662,295.262,297.523,301.123,306.393,310.623,315.923,318.159,322.489,326.089,328.307,333.577,336.237,339.837,342.817,345.477,347.937,350.397,352.857,357.187,360.167,362.827,367.887,373.367,376.867,381.097,385.737,388.717,392.427,396.757,400.987,403.967,406.627,411.687,417.187,419.526,424.586,428.386,430.467,435.737,440.277,445.547,449.257,454.317,459.587,462.247,465.847,468.827,471.487,473.947,476.407,480.737,483.717,486.378,491.438,496.938,499.235" svgx:width="0.51,0.51,0.3,0.44,0.27,0.55,0.55,0.52,0.38,0.51,0.52,0.51,0.25,0.27,0.36,0.55,0.46,0.51,0.25,0.44,0.3,0.27,0.25,0.43,0.36,0.55,0.36,0.53,0.43,0.53,0.55,0.44,0.36,0.55,0.53,0.27,0.36,0.3,0.27,0.25,0.25,0.25,0.44,0.3,0.27,0.51,0.55,0.35,0.43,0.47,0.3,0.38,0.44,0.43,0.3,0.27,0.51,0.55,0.55,0.51,0.38,0.55,0.53,0.46,0.53,0.38,0.51,0.53,0.27,0.36,0.3,0.27,0.25,0.25,0.44,0.3,0.27,0.51,0.55,0.55,0.34" style="fill:rgb(0,0,0);font-family:MinionPro-Regular;font-size:10.0px;stroke:none;">obtain propolis volatiles such as distilllation-extraction or hydrodistillation [</text>
   <text y="643.972" x="502.625,507.375" svgx:width="0.48,0.48" style="fill:rgb(58,90,166);font-family:MinionPro-Regular;font-size:10.0px;stroke:none;">29</text>
   <text y="643.972" x="512.125,515.515" svgx:width="0.34,0.23" style="fill:rgb(0,0,0);font-family:MinionPro-Regular;font-size:10.0px;stroke:none;">].</text>
   <text y="657.011" x="211.975,219.435,224.935,227.169,230.149,235.419,239.71900000000002,241.852,246.912,249.892,255.162,259.392,263.192,265.323,270.593,274.923,280.403,285.673,287.973,290.153,293.753,296.733,302.003,307.273,309.933,314.163,317.76300000000003,320.03,322.9,327.96,332.19,337.46,341.06,343.72,349.2,353.9,356.087,361.147,366.647,368.842,373.072,376.672,380.272,384.502,389.982,392.962,395.622,399.952,402.452,404.672,409.732,412.392,414.852,418.452,420.716,425.776,428.676,430.864,436.024,439.734,444.794,449.954,455.014,457.474,460.134,463.73400000000004,466.013,470.553,475.613,478.073,482.403,485.383,488.043,490.503,494.733,498.333,500.596,504.926,508.636,512.936,515.053,518.763,522.993,525.453,529.783,532.763,535.423,539.963,544.193,546.653" svgx:width="0.75,0.55,0.55,0.3,0.53,0.43,0.55,0.51,0.3,0.53,0.43,0.38,0.55,0.53,0.44,0.55,0.53,0.23,0.55,0.36,0.3,0.53,0.53,0.27,0.43,0.36,0.55,0.29,0.51,0.43,0.53,0.36,0.27,0.55,0.47,0.55,0.51,0.55,0.55,0.43,0.36,0.36,0.43,0.55,0.3,0.27,0.44,0.25,0.55,0.51,0.27,0.25,0.36,0.55,0.51,0.29,0.55,0.52,0.38,0.51,0.52,0.51,0.25,0.27,0.36,0.55,0.46,0.51,0.25,0.44,0.3,0.27,0.25,0.43,0.36,0.55,0.44,0.38,0.43,0.55,0.38,0.43,0.25,0.44,0.3,0.27,0.46,0.43,0.25,0.46" style="fill:rgb(0,0,0);font-family:MinionPro-Regular;font-size:10.0px;stroke:none;">On the other hand, studies focusing on essential oils of propolis volatiles are relatively</text>
   <text y="669.994" x="200.013,203.613,207.843,212.173,215.883,220.113,224.343,226.643,228.813,236.993,242.053,245.653,248.653,250.866,255.926,258.82599999999996,261.014,263.994,269.264,273.494,283.917,289.187,293.417,297.747,300.207,302.867,308.347,313.04699999999997,315.268,322.098,324.758,327.738,333.038,335.224,339.554,345.034,348.014,350.674,358.854,361.514,365.744,369.454,374.514,379.574,382.234,386.564,389.064,391.349,396.509,400.219,405.279,410.439,414.669,418.379,421.359,424.019,428.249,431.84900000000005,434.096,438.426,443.066,447.396,450.056,455.536,459.136,462.136,464.369,467.239,472.509,477.989,482.629,487.899,491.499,493.79900000000004,496.004,503.144,506.854,511.184,519.364,522.864,528.024,533.084,536.684,539.344,542.324,544.984,549.524,553.824,556.098,560.428,565.908" svgx:width="0.36,0.43,0.44,0.38,0.43,0.43,0.23,0.55,0.82,0.51,0.36,0.3,0.55,0.51,0.29,0.55,0.3,0.53,0.43,0.82,0.53,0.43,0.44,0.25,0.27,0.55,0.47,0.55,0.69,0.27,0.3,0.53,0.55,0.44,0.55,0.3,0.27,0.82,0.27,0.43,0.38,0.51,0.51,0.27,0.44,0.25,0.55,0.52,0.38,0.51,0.52,0.43,0.38,0.3,0.27,0.43,0.36,0.55,0.44,0.47,0.44,0.27,0.55,0.36,0.3,0.55,0.29,0.53,0.55,0.47,0.53,0.36,0.23,0.55,0.72,0.38,0.44,0.82,0.35,0.52,0.51,0.36,0.27,0.3,0.27,0.46,0.43,0.55,0.44,0.55,0.53" style="fill:rgb(0,0,0);font-family:MinionPro-Regular;font-size:10.0px;stroke:none;">scarce, most of themdealing with antimicrobial properties against fungus, Gram-positive and</text>
   <text y="682.976" x="200.013,207.153,210.863,215.193,223.373,226.873,232.353,236.583,241.223,245.553,248.533,251.193,255.733,260.033,262.261,267.321,271.651,275.881,278.861,283.091,286.801,289.461,293.861,296.049" svgx:width="0.72,0.38,0.44,0.82,0.35,0.55,0.43,0.47,0.44,0.3,0.27,0.46,0.43,0.55,0.51,0.44,0.43,0.3,0.43,0.38,0.27,0.44,0.55,0.34" style="fill:rgb(0,0,0);font-family:MinionPro-Regular;font-size:10.0px;stroke:none;">Gram-negative bacteria [</text>
   <text y="682.976" x="299.439,304.189" svgx:width="0.48,0.48" style="fill:rgb(58,90,166);font-family:MinionPro-Regular;font-size:10.0px;stroke:none;">29</text>
   <text y="682.976" x="308.939,312.329,314.629,316.799,323.729,328.789,331.249,335.579,338.559,341.219,343.679,347.909,351.509,353.762,358.822,361.722,363.91,369.07,372.78,377.84,383.0,388.06,390.52,393.18,396.78000000000003,399.06,401.93,405.64,410.7,421.113,424.713,427.693,430.353,435.833,440.473,442.933,447.163,450.763,454.363,456.659,461.719,465.949,470.179,473.779,475.991,482.821,487.051,490.761,495.06100000000004,497.251,501.581,506.641,509.101,513.401,515.506,518.486,523.586,525.767,529.367,532.347,535.007,543.187,548.457,550.917,555.247,558.227" svgx:width="0.34,0.23,0.55,0.7,0.51,0.25,0.44,0.3,0.27,0.25,0.43,0.36,0.55,0.51,0.29,0.55,0.52,0.38,0.51,0.52,0.51,0.25,0.27,0.36,0.55,0.29,0.38,0.51,0.82,0.36,0.3,0.27,0.55,0.47,0.25,0.43,0.36,0.36,0.55,0.51,0.43,0.43,0.36,0.55,0.69,0.43,0.38,0.43,0.55,0.44,0.51,0.25,0.43,0.55,0.3,0.51,0.55,0.36,0.3,0.27,0.82,0.53,0.25,0.44,0.3,0.43" style="fill:rgb(0,0,0);font-family:MinionPro-Regular;font-size:10.0px;stroke:none;">]. Volatiles of propolis fromstingless bees were able to stimulate</text>
   <text y="696.016" x="200.013,202.993,208.263,212.56300000000002,214.64,217.3,225.48,233.66,238.93,244.41,248.71,250.866,254.466,259.006,262.606,265.586,269.816,280.175,285.235,288.135,290.267,294.497,296.957,302.227,306.457,310.167,312.627,317.22700000000003,319.35,324.51,328.84,331.82,334.48,338.71,344.19,347.17,350.77000000000004,352.969,358.029,362.629,364.761,367.421,372.901,377.131,380.841,385.071,389.401,393.001,395.661,401.141,405.841,408.017,410.997,416.267,420.497,423.157,426.957,429.05,434.53,438.86,441.84,447.11,450.82,455.15,457.65,459.777,464.737,467.397,469.857,472.317,476.547,480.34700000000004,482.454,486.684,490.914,493.374,495.874,497.988,502.318,506.548,509.528,512.188,516.728,519.388,522.368,526.9680000000001,529.112" svgx:width="0.3,0.53,0.43,0.55,0.27,0.82,0.82,0.53,0.55,0.43,0.55,0.36,0.46,0.36,0.3,0.43,0.82,0.51,0.29,0.55,0.43,0.25,0.53,0.43,0.38,0.25,0.46,0.55,0.52,0.44,0.3,0.27,0.43,0.55,0.3,0.36,0.55,0.51,0.46,0.55,0.27,0.55,0.43,0.38,0.43,0.44,0.36,0.27,0.55,0.47,0.55,0.3,0.53,0.43,0.27,0.38,0.55,0.55,0.44,0.3,0.53,0.38,0.44,0.25,0.55,0.5,0.27,0.25,0.25,0.43,0.38,0.55,0.43,0.43,0.25,0.25,0.55,0.44,0.43,0.3,0.27,0.46,0.27,0.3,0.46,0.55,0.34" style="fill:rgb(0,0,0);font-family:MinionPro-Regular;font-size:10.0px;stroke:none;">the immune systemof elderly patients by increasing their natural killer cell activity [</text>
   <text y="696.016" x="532.502,537.252" svgx:width="0.48,0.48" style="fill:rgb(58,90,166);font-family:MinionPro-Regular;font-size:10.0px;stroke:none;">30</text>
   <text y="696.016" x="542.002,545.392,547.692,549.805,555.485,559.085,562.685,566.915,572.395" svgx:width="0.34,0.23,0.55,0.57,0.36,0.36,0.43,0.55,0.35" style="fill:rgb(0,0,0);font-family:MinionPro-Regular;font-size:10.0px;stroke:none;">]. Essen-</text>
   <text y="708.998" x="200.013,202.993,205.653,209.983,212.483,214.64,219.7,222.36,224.82,228.42,230.684,235.744,238.644,240.832,247.452,252.722,255.382,260.862,265.092,268.692,272.992,275.186,280.346,284.056,289.116,294.276,299.336,301.796,304.456,308.05600000000004,310.279,312.939,318.419,323.689,326.349,331.409,334.069,337.049,341.279,346.579,348.83,351.81,357.08,361.38,363.513,368.673,372.383,377.443,379.903,382.563,385.433,389.663,393.373,397.703,400.683,403.343,408.403,413.903,416.181,421.241,424.14099999999996,426.329,431.599,436.869,445.049,449.379,454.879,457.113,461.343,466.403,468.863,473.923,477.633,481.863,486.093,489.073,493.403,495.903,498.158,502.388,506.718,512.198,516.428,520.658,524.458,526.561,530.791,535.021,537.481,539.941,543.541,545.78,550.84" svgx:width="0.3,0.27,0.44,0.25,0.55,0.51,0.27,0.25,0.36,0.55,0.51,0.29,0.55,0.67,0.53,0.27,0.55,0.43,0.36,0.43,0.55,0.52,0.38,0.51,0.52,0.51,0.25,0.27,0.36,0.55,0.27,0.55,0.53,0.27,0.51,0.27,0.3,0.43,0.53,0.55,0.3,0.53,0.43,0.55,0.52,0.38,0.51,0.25,0.27,0.29,0.43,0.38,0.44,0.3,0.27,0.51,0.55,0.55,0.51,0.29,0.55,0.53,0.53,0.82,0.44,0.55,0.55,0.43,0.51,0.25,0.51,0.38,0.43,0.43,0.3,0.44,0.25,0.55,0.43,0.44,0.55,0.43,0.43,0.38,0.55,0.43,0.43,0.25,0.25,0.36,0.55,0.51,0.46" style="fill:rgb(0,0,0);font-family:MinionPro-Regular;font-size:10.0px;stroke:none;">tial oils of Chinese propolis inhibited the proliferation of human colorectal cancer cells by</text>
  </g>
  <path style="fill:rgb(0,0,0);stroke:none;stroke-width:1.0;" d="M576.000 54.900 L36.000 54.900 L36.000 54.400 L576.000 54.400 "/>
  <rect style="stroke:blue;stroke-width:0.3;" x="36.0" y="35.043" height="23.64" width="107.093" title="2"/>
  <text y="35.043" class="image" id="image.2.1" width="107" height="23" x="36.0">image.2.1.36_143.35_59</text>
  <g begin="text">
   <text y="46.205" x="258.746,264.45,268.826,273.202,279.826,281.53,285.49,289.866,291.626,293.272,297.232,301.607,308.231,312.607,316.983,320.943,322.647,324.855,326.559,330.935,335.335,336.982,341.358,345.734,350.13399999999996,351.836,356.212,357.916,362.292,363.995,368.371,372.642,374.346,378.306,382.682,384.442,386.134,390.51,393.134,397.51,401.886,406.262,408.886,411.094,412.798,417.174,421.174,422.815,427.191,429.431,431.148,433.356,437.732,442.132,443.847,448.223,452.183,456.143,460.519,464.895,467.103,468.807,473.183,474.943,476.559,480.935,482.639,484.399,486.084,488.292,490.915,495.291,503.602,508.89,511.514,515.89,519.849,521.553,523.258,524.961,529.337,533.737,535.406,538.03,542.406,546.8059999999999,548.559,552.935,555.559,559.935,564.311,568.687,570.391,572.094" svgx:width="0.72,0.55,0.55,0.83,0.22,0.5,0.55,0.22,0.55,0.5,0.55,0.83,0.55,0.55,0.5,0.22,0.28,0.22,0.55,0.55,0.55,0.55,0.55,0.55,0.55,0.55,0.22,0.55,0.22,0.55,0.55,0.22,0.5,0.55,0.22,0.55,0.55,0.33,0.55,0.55,0.55,0.33,0.28,0.22,0.55,0.5,0.55,0.55,0.28,0.55,0.28,0.55,0.55,0.55,0.55,0.5,0.5,0.55,0.55,0.28,0.22,0.55,0.22,0.55,0.55,0.22,0.22,0.55,0.28,0.33,0.55,0.83,0.67,0.33,0.55,0.5,0.22,0.22,0.22,0.55,0.55,0.55,0.33,0.55,0.55,0.55,0.55,0.33,0.55,0.55,0.55,0.22,0.22,0.5" style="fill:rgb(0,0,0);font-family:Helvetica;font-size:8.0px;stroke:none;">Chemical composition and biological properties of the essential oil fromBrazilian red propolis</text>
  </g>
  <path style="fill:rgb(0,0,0);stroke:none;stroke-width:1.0;" d="M36.000 744.000 L576.000 744.000 L576.000 744.500 L36.000 744.500 "/>
  <path style="fill:rgb(58,90,166);stroke:none;stroke-width:1.0;" d="M81.580 757.080 L237.880 757.080 Z"/>
  <g begin="text">
   <text y="756.0" x="36.0,41.288,45.664,51.872,57.232,58.847,65.055,70.759,76.119,77.782" svgx:width="0.67,0.55,0.78,0.67,0.55,0.78,0.72,0.67,0.55,0.26" style="fill:rgb(0,0,0);font-family:Helvetica;font-size:8.0px;stroke:none;">PLOS ONE |</text>
   <text y="756.0" x="81.58,85.956,88.164,90.372,94.748,98.708,100.916,103.124,105.332,109.708,114.084,115.788,117.996,122.372,124.893,129.269,131.477,135.853,140.229,142.437,146.813,151.189,155.451,159.827,162.035,163.739,168.115,172.491,175.115,179.491,183.867,185.571,187.779,192.155,196.44,200.816,205.191,207.399,211.775,216.151,220.527,224.903,229.151,233.527" svgx:width="0.55,0.28,0.28,0.55,0.5,0.28,0.28,0.28,0.55,0.55,0.22,0.28,0.55,0.33,0.55,0.28,0.55,0.55,0.28,0.55,0.55,0.55,0.55,0.28,0.22,0.55,0.55,0.33,0.55,0.55,0.22,0.28,0.55,0.55,0.55,0.55,0.28,0.55,0.55,0.55,0.55,0.55,0.55,0.55" style="fill:rgb(58,90,166);font-family:Helvetica;font-size:8.0px;stroke:none;">https://doi.org/10.1371/journal.pone.0191797</text>
   <text y="756.0" x="245.876,250.748,255.124,259.5,262.124,266.5,270.875,273.499,277.499,279.155,283.531,285.771,287.488,291.864,296.24,300.616,305.01599999999996,557.118,561.518,563.241,565.481,567.209,571.585" svgx:width="0.61,0.55,0.55,0.33,0.55,0.55,0.33,0.5,0.55,0.55,0.28,0.55,0.55,0.55,0.55,0.55,0.55,0.55,0.55,0.28,0.55,0.55,0.55" style="fill:rgb(0,0,0);font-family:Helvetica;font-size:8.0px;stroke:none;">February 1, 2018 2 / 16</text>
   <text y="83.285" x="36.0,40.216,44.016,50.064,53.864,57.664,59.712,61.76,65.56,69.56,71.036,73.084,76.884,78.932,82.731,85.195,88.995,92.371,94.419,97.681" svgx:width="0.55,0.5,0.78,0.5,0.5,0.28,0.28,0.5,0.5,0.55,0.28,0.5,0.28,0.5,0.33,0.5,0.45,0.28,0.45,0.28" style="fill:rgb(0,0,0);font-family:Helvetica-Condensed-Bold;font-size:8.0px;stroke:none;">Competing interests:</text>
   <text y="83.285" x="101.536,105.336,109.136,112.73599999999999,114.236,117.612,121.412,123.46,127.26,131.06,133.524,137.124,138.556,142.356,145.732,149.108,152.708,154.26,158.06,161.436,164.812,166.356,169.732,172.196,175.572" svgx:width="0.5,0.5,0.45,0.55,0.45,0.5,0.28,0.5,0.5,0.33,0.45,0.55,0.5,0.45,0.45,0.45,0.55,0.5,0.45,0.45,0.22,0.45,0.33,0.45,0.5" style="fill:rgb(0,0,0);font-family:Helvetica-Condensed;font-size:8.0px;stroke:none;">The authors have declared</text>
   <text y="94.284" x="36.0,38.048,41.848,45.224,47.464,48.982,52.782,56.782,58.337,61.713,65.512,71.56,75.36,78.736,80.784,82.328,86.128,90.128,91.615,93.159,96.959,99.007,102.383,104.847,108.223,111.599,113.647" svgx:width="0.28,0.5,0.45,0.28,0.55,0.5,0.5,0.55,0.45,0.5,0.78,0.5,0.45,0.28,0.22,0.5,0.5,0.55,0.22,0.5,0.28,0.45,0.33,0.45,0.45,0.28,0.45" style="fill:rgb(0,0,0);font-family:Helvetica-Condensed;font-size:8.0px;stroke:none;">that no competing interests</text>
  </g>
  <g begin="text">
   <text y="94.284" x="118.714,122.09,125.466,127.01,130.386,132.434" svgx:width="0.45,0.45,0.22,0.45,0.28,0.25" style="fill:rgb(0,0,0);font-family:Helvetica-Condensed;font-size:8.0px;stroke:none;">exist.</text>
  </g>
 </g>
</svg>
