<?xml version="1.0" encoding="UTF-8"?>
<svg height="767.08" width="4046.0" xmlns="http://www.w3.org/2000/svg">
 <g id="page" xmlns:svgx="http://www.xml-cml.org/schema/svgx">
  <path style="fill:rgb(58,90,166);stroke:none;stroke-width:1.0;" d="M401.670 103.350 L550.660 103.350 Z"/>
  <path style="fill:rgb(58,90,166);stroke:none;stroke-width:1.0;" d="M221.500 112.880 L256.420 112.880 Z"/>
  <path style="fill:rgb(58,90,166);stroke:none;stroke-width:1.0;" d="M298.830 154.370 L413.350 154.370 Z"/>
  <path style="fill:rgb(58,90,166);stroke:none;stroke-width:1.0;" d="M438.800 154.370 L473.730 154.370 Z"/>
  <path style="fill:rgb(58,90,166);stroke:none;stroke-width:1.0;" d="M285.730 186.350 L424.350 186.350 Z"/>
  <path style="fill:rgb(58,90,166);stroke:none;stroke-width:1.0;" d="M449.800 186.350 L484.780 186.350 Z"/>
  <path style="fill:rgb(58,90,166);stroke:none;stroke-width:1.0;" d="M346.110 218.380 L484.720 218.380 Z"/>
  <path style="fill:rgb(58,90,166);stroke:none;stroke-width:1.0;" d="M510.180 218.380 L545.100 218.380 Z"/>
  <path style="fill:rgb(58,90,166);stroke:none;stroke-width:1.0;" d="M273.030 250.360 L429.390 250.360 Z"/>
  <path style="fill:rgb(58,90,166);stroke:none;stroke-width:1.0;" d="M454.900 250.360 L489.830 250.360 Z"/>
  <path style="fill:rgb(58,90,166);stroke:none;stroke-width:1.0;" d="M498.780 272.860 L559.620 272.860 Z"/>
  <path style="fill:rgb(58,90,166);stroke:none;stroke-width:1.0;" d="M221.500 282.330 L303.650 282.330 Z"/>
  <path style="fill:rgb(58,90,166);stroke:none;stroke-width:1.0;" d="M329.100 282.330 L364.030 282.330 Z"/>
  <path style="fill:rgb(58,90,166);stroke:none;stroke-width:1.0;" d="M390.220 314.360 L539.210 314.360 Z"/>
  <path style="fill:rgb(58,90,166);stroke:none;stroke-width:1.0;" d="M221.500 323.830 L256.420 323.830 Z"/>
  <path style="fill:rgb(58,90,166);stroke:none;stroke-width:1.0;" d="M452.350 355.860 L552.470 355.860 Z"/>
  <path style="fill:rgb(58,90,166);stroke:none;stroke-width:1.0;" d="M221.500 365.390 L247.690 365.390 Z"/>
  <path style="fill:rgb(58,90,166);stroke:none;stroke-width:1.0;" d="M273.200 365.390 L308.130 365.390 Z"/>
  <path style="fill:rgb(58,90,166);stroke:none;stroke-width:1.0;" d="M238.560 397.360 L392.320 397.360 Z"/>
  <path style="fill:rgb(58,90,166);stroke:none;stroke-width:1.0;" d="M417.830 397.360 L452.750 397.360 Z"/>
  <path style="fill:rgb(58,90,166);stroke:none;stroke-width:1.0;" d="M355.120 429.340 L518.570 429.340 Z"/>
  <path style="fill:rgb(58,90,166);stroke:none;stroke-width:1.0;" d="M221.500 438.860 L256.420 438.860 Z"/>
  <path style="fill:rgb(58,90,166);stroke:none;stroke-width:1.0;" d="M273.030 470.830 L429.390 470.830 Z"/>
  <path style="fill:rgb(58,90,166);stroke:none;stroke-width:1.0;" d="M454.900 470.830 L489.830 470.830 Z"/>
  <path style="fill:rgb(58,90,166);stroke:none;stroke-width:1.0;" d="M471.970 502.870 L568.970 502.870 Z"/>
  <path style="fill:rgb(58,90,166);stroke:none;stroke-width:1.0;" d="M221.500 512.330 L265.210 512.330 Z"/>
  <path style="fill:rgb(58,90,166);stroke:none;stroke-width:1.0;" d="M290.660 512.330 L325.590 512.330 Z"/>
  <path style="fill:rgb(58,90,166);stroke:none;stroke-width:1.0;" d="M308.470 544.370 L449.120 544.370 Z"/>
  <path style="fill:rgb(58,90,166);stroke:none;stroke-width:1.0;" d="M474.580 544.370 L509.560 544.370 Z"/>
  <path style="fill:rgb(58,90,166);stroke:none;stroke-width:1.0;" d="M371.960 576.340 L525.710 576.340 Z"/>
  <path style="fill:rgb(58,90,166);stroke:none;stroke-width:1.0;" d="M221.500 585.860 L256.420 585.860 Z"/>
  <path style="fill:rgb(58,90,166);stroke:none;stroke-width:1.0;" d="M290.100 617.840 L427.750 617.840 Z"/>
  <path style="fill:rgb(58,90,166);stroke:none;stroke-width:1.0;" d="M453.200 617.840 L488.180 617.840 Z"/>
  <path style="fill:rgb(58,90,166);stroke:none;stroke-width:1.0;" d="M383.190 640.350 L541.470 640.350 Z"/>
  <path style="fill:rgb(58,90,166);stroke:none;stroke-width:1.0;" d="M221.500 649.870 L256.420 649.870 Z"/>
  <path style="fill:rgb(58,90,166);stroke:none;stroke-width:1.0;" d="M309.490 681.850 L335.680 681.850 Z"/>
  <g begin="text">
   <text y="83.282" x="204.888,209.264" svgx:width="0.55,0.28" style="fill:rgb(0,0,0);font-family:Helvetica-Bold;font-size:8.0px;stroke:none;">6.</text>
   <text y="83.282" x="221.498,228.122,232.498,236.874,241.25,245.626,250.002,250.582,253.87,258.27,259.993,262.201,267.905,274.113,276.353,278.022,283.31,287.685,290.309,292.517,296.917,298.601,300.809,306.512,312.216,318.84,321.08,322.751,328.455,332.831,336.791,340.751,342.455,349.079,353.455,357.731,359.939,364.339,366.065,370.937,377.145,379.385,381.088,385.464,389.864,391.577,396.865,401.241,405.617,409.577,413.977,415.671,421.375,426.663,428.903,430.581,436.789,438.493,440.197,444.157,448.533,450.237,452.861,457.26099999999997,458.927,462.887,469.511,474.799,477.039,478.714,484.001,486.625,489.249,493.625,498.001,502.40099999999995,504.112,509.815,515.103,520.391,522.631,524.294,528.67,530.91,532.628,537.004,538.708,540.948,542.662,547.95,550.574,554.95,558.91,560.614,562.318,564.022,568.398" svgx:width="0.83,0.55,0.55,0.55,0.55,0.55,0.5,0.33,0.55,0.55,0.28,0.72,0.78,0.28,0.55,0.67,0.55,0.33,0.28,0.55,0.55,0.28,0.72,0.72,0.83,0.28,0.55,0.72,0.55,0.5,0.5,0.22,0.83,0.55,0.55,0.28,0.55,0.55,0.61,0.78,0.28,0.55,0.55,0.55,0.55,0.67,0.55,0.55,0.5,0.55,0.55,0.72,0.67,0.28,0.55,0.78,0.22,0.22,0.5,0.55,0.22,0.33,0.55,0.55,0.5,0.83,0.67,0.28,0.55,0.67,0.33,0.33,0.55,0.55,0.55,0.55,0.72,0.67,0.67,0.28,0.55,0.55,0.28,0.55,0.55,0.22,0.28,0.55,0.67,0.33,0.55,0.5,0.22,0.22,0.22,0.55,0.55" style="fill:rgb(0,0,0);font-family:Helvetica;font-size:8.0px;stroke:none;">Mendonc¸a ICG, Porto ICCM, Nascimento TG, de Souza NS, Oliveira JMS, Arruda RES, et al. Brazilian</text>
   <text y="92.806" x="221.498,224.122,228.498,232.898,234.595,238.971,241.595,245.971,250.347,254.723,256.427,258.131,262.091,264.331,266.003,270.379,274.754,278.714,280.922,285.298,289.258,293.634,298.01,304.496,306.2,310.16,314.536,316.296,317.99,321.95,325.91,328.534,332.91,337.286,341.662,343.366,347.742,352.005,354.245,355.973,360.349,364.725,366.933,368.637,373.013,376.973,378.677,383.053,387.429,391.69,393.93,395.659,400.034,403.994,406.202,407.906,411.866,413.57,415.778,419.778,421.453,425.829,430.205,434.60499999999996,436.307,440.683,442.891,445.099,449.475,453.435,455.675,457.34,461.716,466.092,470.468,472.172,476.548,480.508,482.748,484.439,488.399,492.775,497.151,501.111,505.487,508.127,509.781,513.741,518.117,519.821,521.525,525.485,527.725,529.396,534.684,541.308,548.729,554.433,558.809,565.432" svgx:width="0.33,0.55,0.55,0.55,0.55,0.33,0.55,0.55,0.55,0.22,0.22,0.5,0.28,0.55,0.55,0.55,0.5,0.28,0.55,0.5,0.55,0.55,0.83,0.22,0.5,0.55,0.22,0.55,0.5,0.5,0.33,0.55,0.55,0.55,0.22,0.55,0.55,0.28,0.55,0.55,0.55,0.28,0.22,0.55,0.5,0.22,0.55,0.55,0.55,0.28,0.55,0.55,0.5,0.28,0.22,0.5,0.22,0.28,0.5,0.55,0.55,0.55,0.55,0.55,0.55,0.28,0.28,0.55,0.5,0.28,0.55,0.55,0.55,0.55,0.22,0.55,0.5,0.28,0.55,0.5,0.55,0.55,0.5,0.55,0.33,0.55,0.5,0.55,0.22,0.22,0.5,0.28,0.55,0.67,0.83,0.72,0.72,0.55,0.83,0.33" style="fill:rgb(0,0,0);font-family:Helvetica;font-size:8.0px;stroke:none;">red propolis: phytochemical screening, antioxidant activity and effect against cancer cells. BMCCom-</text>
   <text y="102.274" x="221.498,225.874,227.578,231.954,238.578,242.954,247.33,249.57000000000002,251.206,256.494,258.198,260.406,264.782,267.406,271.806,273.486,280.11,284.486,288.861,291.101,292.818,298.106,299.81,304.186,310.81,315.186,319.58599999999996,321.221,326.925,331.301,335.677,337.885,340.509,344.885,346.589,348.829,350.531,354.907,359.283,363.659,368.035,370.27500000000003,371.904,376.28,380.656,382.896,384.603,388.979,393.355,397.731" svgx:width="0.55,0.22,0.55,0.83,0.55,0.55,0.28,0.55,0.67,0.22,0.28,0.55,0.33,0.55,0.55,0.83,0.55,0.55,0.28,0.55,0.67,0.22,0.55,0.83,0.55,0.55,0.55,0.72,0.55,0.55,0.28,0.33,0.55,0.22,0.28,0.55,0.55,0.55,0.55,0.55,0.28,0.55,0.55,0.55,0.28,0.55,0.55,0.55,0.55,0.28" style="fill:rgb(0,0,0);font-family:Helvetica;font-size:8.0px;stroke:none;">plement Altern Med. BioMed Central; 2015; 15: 357.</text>
   <text y="102.274" x="401.668,406.044,408.252,410.46,414.836,418.796,421.004,423.212,425.42,429.796,434.172,435.876,437.952,442.328,444.952,449.327,451.535,455.911,460.287,462.495,466.871,471.247,475.623,479.999,482.207,486.167,490.392,494.768,499.144,503.52,507.896,510.52,514.895,519.271,523.647,526.271,530.53,534.906,539.282,543.658,546.282" svgx:width="0.55,0.28,0.28,0.55,0.5,0.28,0.28,0.28,0.55,0.55,0.22,0.28,0.55,0.33,0.55,0.28,0.55,0.55,0.28,0.55,0.55,0.55,0.55,0.28,0.5,0.55,0.55,0.55,0.55,0.55,0.33,0.55,0.55,0.55,0.33,0.55,0.55,0.55,0.55,0.33,0.55" style="fill:rgb(58,90,166);font-family:Helvetica;font-size:8.0px;stroke:none;">https://doi.org/10.1186/s12906-015-0888-9</text>
   <text y="102.274" x="552.413,557.701,564.325,566.533,572.237" svgx:width="0.67,0.83,0.28,0.72,0.28" style="fill:rgb(0,0,0);font-family:Helvetica;font-size:8.0px;stroke:none;">PMID:</text>
   <text y="111.798" x="221.498,225.874,230.25,234.626,239.002,243.378,247.754,252.13" svgx:width="0.55,0.55,0.55,0.55,0.55,0.55,0.55,0.55" style="fill:rgb(58,90,166);font-family:Helvetica;font-size:8.0px;stroke:none;">26467757</text>
   <text y="124.781" x="204.888,209.264" svgx:width="0.55,0.28" style="fill:rgb(0,0,0);font-family:Helvetica-Bold;font-size:8.0px;stroke:none;">7.</text>
   <text y="124.781" x="221.498,226.786,228.49,232.45,236.41,238.114,242.49,246.866,248.57,250.274,252.034,253.7,258.988,263.364,265.604,267.307,271.682,276.058,278.266,280.474,282.234,283.861,289.565,291.805,293.555,299.259,303.635,310.259,314.532,318.907,323.283,327.683,329.385,333.761,336.00100000000003,337.718,343.422,347.798,352.174,356.134,358.342,362.718,365.342,370.94,375.316,379.692,381.396,385.796,387.495,393.703,395.943,397.699,403.403,407.779,414.403,418.676,423.07599999999996,424.798,429.67,434.046,436.67,441.046,445.422,449.798,454.174,458.55,462.55,464.2,470.824,473.064,474.745,480.449,484.825,488.785,490.993,493.617,497.992,499.696,501.4,503.15999999999997,504.792,509.168,511.408,513.126,518.83,523.206,527.582,531.958,536.358,538.014,542.39,546.766,551.1659999999999,552.867,557.243,559.867,564.243,568.203,569.907,571.611" svgx:width="0.67,0.22,0.5,0.5,0.22,0.55,0.55,0.22,0.22,0.22,0.55,0.67,0.55,0.28,0.55,0.55,0.55,0.28,0.28,0.22,0.55,0.72,0.28,0.55,0.72,0.55,0.83,0.55,0.55,0.55,0.55,0.55,0.55,0.28,0.55,0.72,0.55,0.55,0.5,0.28,0.55,0.33,0.72,0.55,0.55,0.22,0.55,0.55,0.78,0.28,0.55,0.72,0.55,0.83,0.55,0.55,0.55,0.61,0.55,0.33,0.55,0.55,0.55,0.55,0.55,0.5,0.55,0.83,0.28,0.55,0.72,0.55,0.5,0.28,0.33,0.55,0.22,0.22,0.22,0.55,0.55,0.28,0.55,0.72,0.55,0.55,0.55,0.55,0.55,0.55,0.55,0.55,0.55,0.55,0.33,0.55,0.5,0.22,0.22,0.33" style="fill:rgb(0,0,0);font-family:Helvetica;font-size:8.0px;stroke:none;">Piccinelli AL, Lotti C, Campone L, Cuesta-Rubio O, Campo Fernandez M, Rastrelli L. Cuban and brazil-</text>
   <text y="134.305" x="221.498,223.202,227.578,231.978,233.688,236.312,240.688,245.088,246.784,251.16,253.784,258.159,262.535,266.911,268.615,270.319,274.279,276.519,278.191,282.567,286.943,289.151,293.527,297.903,299.607,303.567,307.943,309.703,311.3,315.676,318.3,320.004,324.379,326.083,330.483,332.163,336.539,340.914,345.31399999999996,347.016,350.976,355.352,361.976,366.352,370.728,373.352,377.728,379.936,381.542,385.502,389.902,391.633,396.009,400.385,404.761,406.465,410.425,414.385,416.089,420.089,421.737,426.113,430.113,431.828,436.204,437.908,442.284,446.66,449.284,453.66,458.036,460.66,462.868,467.148,469.772,476.396,480.772,485.148,489.108,493.508,495.154,496.858,498.562,502.938,507.314,509.018,513.418,515.11,519.07,523.446,526.07,530.446,537.07,541.446,543.654,548.029,552.301,554.925,559.301,563.676,568.052,572.012" svgx:width="0.22,0.55,0.55,0.55,0.33,0.55,0.55,0.55,0.55,0.33,0.55,0.55,0.55,0.22,0.22,0.5,0.28,0.55,0.55,0.55,0.28,0.55,0.55,0.22,0.5,0.55,0.22,0.55,0.55,0.33,0.22,0.55,0.22,0.55,0.55,0.55,0.55,0.55,0.55,0.5,0.55,0.83,0.55,0.55,0.33,0.55,0.28,0.22,0.5,0.55,0.55,0.55,0.55,0.55,0.22,0.5,0.5,0.22,0.5,0.55,0.55,0.5,0.55,0.55,0.22,0.55,0.55,0.33,0.55,0.55,0.33,0.28,0.55,0.33,0.83,0.55,0.55,0.5,0.55,0.55,0.22,0.22,0.55,0.55,0.22,0.55,0.55,0.5,0.55,0.33,0.55,0.83,0.55,0.28,0.55,0.55,0.33,0.55,0.55,0.55,0.5,0.33" style="fill:rgb(0,0,0);font-family:Helvetica;font-size:8.0px;stroke:none;">ian red propolis: botanical origin and comparative analysis by high-performance liquid chromatography-</text>
   <text y="143.772" x="221.498,225.874,230.25,234.626,236.834,241.21,245.586,247.29,251.666,256.042,260.44199999999995,262.091,266.467,269.091,271.715,276.09,280.09,281.763,286.139,290.515,292.723,297.099,301.059,303.267,304.971,309.347,313.723,315.963,317.592,321.968,323.672,328.048,332.008,334.216,336.84,341.216,345.176,349.552,352.062,356.437,360.437,362.153,363.857,368.233,372.609,374.313,378.273,382.649,384.857,386.561,390.839,395.239,396.963,399.171,403.546,407.922,412.298,416.674,424.969,431.592,435.968,439.928,443.928,445.605,449.565,453.941,458.317,462.277,464.485,467.109,471.485,478.109,482.485,484.693,487.217,491.177,493.41700000000003,495.097,499.097,500.824,506.112,510.488,513.112,514.815,518.815,520.495,525.367,529.743,534.119,538.519,540.225,545.929,550.305,554.681,561.201" svgx:width="0.55,0.55,0.55,0.28,0.55,0.55,0.22,0.55,0.55,0.55,0.55,0.55,0.33,0.33,0.55,0.5,0.55,0.55,0.55,0.28,0.55,0.5,0.28,0.22,0.55,0.55,0.28,0.55,0.55,0.22,0.55,0.5,0.28,0.33,0.55,0.5,0.55,0.33,0.55,0.5,0.55,0.22,0.55,0.55,0.22,0.5,0.55,0.28,0.22,0.55,0.55,0.55,0.28,0.55,0.55,0.55,0.55,0.83,0.83,0.55,0.5,0.5,0.55,0.5,0.55,0.55,0.5,0.28,0.33,0.55,0.83,0.55,0.28,0.33,0.5,0.28,0.55,0.5,0.55,0.67,0.55,0.33,0.22,0.5,0.55,0.61,0.55,0.55,0.55,0.55,0.72,0.55,0.55,0.83,0.28" style="fill:rgb(0,0,0);font-family:Helvetica;font-size:8.0px;stroke:none;">photodiode array detection/ electrospray ionization tandemmass spectrometry. J Agric Food Chem.</text>
   <text y="153.297" x="221.498,225.874,230.25,234.626,239.002,241.24200000000002,242.928,247.304,251.68,253.92000000000002,255.628,260.003,264.379,268.755,273.131,277.507,281.763,286.139,290.515,294.891" svgx:width="0.55,0.55,0.55,0.55,0.28,0.55,0.55,0.55,0.28,0.55,0.55,0.55,0.55,0.55,0.55,0.55,0.55,0.55,0.55,0.28" style="fill:rgb(0,0,0);font-family:Helvetica;font-size:8.0px;stroke:none;">2011; 59: 6484–6491.</text>
   <text y="153.297" x="298.828,303.204,305.412,307.62,311.996,315.956,318.164,320.372,322.579,326.955,331.331,333.035,335.243,339.619,342.141,346.517,348.725,353.101,357.477,359.685,364.061,368.437,372.698,377.074,379.282,380.986,383.194,387.57,391.946,396.322,400.698,405.074,409.45" svgx:width="0.55,0.28,0.28,0.55,0.5,0.28,0.28,0.28,0.55,0.55,0.22,0.28,0.55,0.33,0.55,0.28,0.55,0.55,0.28,0.55,0.55,0.55,0.55,0.28,0.22,0.28,0.55,0.55,0.55,0.55,0.55,0.55,0.5" style="fill:rgb(58,90,166);font-family:Helvetica;font-size:8.0px;stroke:none;">https://doi.org/10.1021/jf201280z</text>
   <text y="153.297" x="415.047,420.335,426.959,429.167,434.871" svgx:width="0.67,0.83,0.28,0.72,0.28" style="fill:rgb(0,0,0);font-family:Helvetica;font-size:8.0px;stroke:none;">PMID:</text>
   <text y="153.297" x="438.802,443.178,447.554,451.93,456.306,460.682,465.058,469.434" svgx:width="0.55,0.55,0.55,0.55,0.55,0.55,0.55,0.55" style="fill:rgb(58,90,166);font-family:Helvetica;font-size:8.0px;stroke:none;">21598949</text>
   <text y="166.279" x="204.888,209.264" svgx:width="0.55,0.28" style="fill:rgb(0,0,0);font-family:Helvetica-Bold;font-size:8.0px;stroke:none;">8.</text>
   <text y="166.279" x="221.498,226.37,228.994,233.37,237.33,241.29,245.69,247.351,253.055,259.263,264.551,266.791,268.497,274.705,279.081,281.705,285.665,287.369,291.769,293.441,299.145,304.433,310.137,312.377,314.021,320.229,324.605,331.229,335.605,339.981,342.189,346.589,348.263,354.471,356.711,358.412,363.7,368.076,372.452,376.412,380.81199999999995,382.506,389.13,394.834,401.042,403.282,404.956,410.244,414.62,416.324,420.284,424.66,429.036,433.302,435.942,437.668,444.292,446.532,448.269,454.893,459.269,463.645,466.269,470.669,472.307,477.595,479.83500000000004,481.548,485.924,488.164,489.881,494.257,495.961,498.201,499.916,505.62,509.996,514.372,520.996,522.7,526.66,531.036,532.7959999999999,534.442,538.402,542.778,547.154,549.778,554.154,558.114,560.322,564.698,567.211,568.915" svgx:width="0.61,0.33,0.55,0.5,0.5,0.55,0.55,0.72,0.78,0.67,0.28,0.55,0.78,0.55,0.33,0.5,0.22,0.55,0.55,0.72,0.67,0.72,0.28,0.55,0.78,0.55,0.83,0.55,0.55,0.28,0.55,0.55,0.78,0.28,0.55,0.67,0.55,0.55,0.5,0.55,0.55,0.83,0.72,0.78,0.28,0.55,0.67,0.55,0.22,0.5,0.55,0.55,0.55,0.33,0.55,0.83,0.28,0.55,0.83,0.55,0.55,0.33,0.55,0.55,0.67,0.28,0.55,0.55,0.28,0.55,0.55,0.22,0.28,0.55,0.72,0.55,0.55,0.83,0.22,0.5,0.55,0.22,0.55,0.5,0.55,0.55,0.33,0.55,0.5,0.28,0.55,0.33,0.22,0.33" style="fill:rgb(0,0,0);font-family:Helvetica;font-size:8.0px;stroke:none;">Frozza COS, Garcia CSC, Gambato G, Souza MDO, Salvador M, Moura S, et al. Chemical characteri-</text>
   <text y="175.804" x="221.498,225.458,229.834,232.042,233.746,238.122,242.498,244.738,246.387,250.763,255.139,257.347,259.051,263.427,267.387,269.091,273.466,277.842,282.218,284.458,286.128,290.504,294.88,299.28,300.925,304.885,308.845,311.053,315.429,317.637,322.013,325.973,327.677,331.677,333.353,337.729,341.689,343.897,345.601,349.561,351.265,353.473,355.177,359.553,363.553,365.158,369.534,371.774,373.492,378.78,381.404,385.779,389.739,391.443,393.147,394.851,399.227,403.62699999999995,405.296,407.92,412.296,416.69599999999997,418.392,422.768,425.392,429.768,434.144,438.52,440.224,441.928,445.888,448.128,449.8,454.672,459.048,463.424,467.82399999999996,469.529,475.233,479.609,483.985,492.32,497.192,501.568,505.528,507.232,511.192,515.568,517.271,519.511,521.176,526.464,528.168,532.128,536.504,540.464,542.168,546.544,549.184,550.826,555.202,557.41,561.786" svgx:width="0.5,0.55,0.28,0.22,0.55,0.55,0.28,0.55,0.55,0.55,0.28,0.22,0.55,0.5,0.22,0.55,0.55,0.55,0.28,0.55,0.55,0.55,0.55,0.55,0.5,0.5,0.28,0.55,0.28,0.55,0.5,0.22,0.5,0.55,0.55,0.5,0.28,0.22,0.5,0.22,0.28,0.22,0.55,0.5,0.55,0.55,0.28,0.55,0.67,0.33,0.55,0.5,0.22,0.22,0.22,0.55,0.55,0.55,0.33,0.55,0.55,0.55,0.55,0.33,0.55,0.55,0.55,0.22,0.22,0.5,0.28,0.55,0.61,0.55,0.55,0.55,0.55,0.72,0.55,0.55,0.83,0.61,0.55,0.5,0.22,0.5,0.55,0.22,0.28,0.55,0.67,0.22,0.5,0.55,0.5,0.22,0.55,0.33,0.55,0.55,0.28,0.55,0.28" style="fill:rgb(0,0,0);font-family:Helvetica;font-size:8.0px;stroke:none;">zation, antioxidant and cytotoxic activities of Brazilian red propolis. Food ChemToxicol. Elsevier Ltd;</text>
   <text y="185.272" x="221.498,225.874,230.25,234.626,239.002,241.24200000000002,242.928,247.304,251.68,253.92000000000002,255.628,260.003,264.379,268.755,273.131,277.507,281.763" svgx:width="0.55,0.55,0.55,0.55,0.28,0.55,0.55,0.55,0.28,0.55,0.55,0.55,0.55,0.55,0.55,0.55,0.28" style="fill:rgb(0,0,0);font-family:Helvetica;font-size:8.0px;stroke:none;">2013; 52: 137–42.</text>
   <text y="185.272" x="285.731,290.107,292.315,294.523,298.899,302.859,305.067,307.275,309.483,313.859,318.235,319.939,322.147,326.523,329.045,333.421,335.629,340.005,344.381,346.589,350.965,355.341,359.602,363.978,366.186,367.89,370.098,372.306,376.266,378.474,380.682,385.058,389.434,393.81,398.186,400.394,404.673,409.049,411.257,415.633,420.009" svgx:width="0.55,0.28,0.28,0.55,0.5,0.28,0.28,0.28,0.55,0.55,0.22,0.28,0.55,0.33,0.55,0.28,0.55,0.55,0.28,0.55,0.55,0.55,0.55,0.28,0.22,0.28,0.28,0.5,0.28,0.28,0.55,0.55,0.55,0.55,0.28,0.55,0.55,0.28,0.55,0.55,0.55" style="fill:rgb(58,90,166);font-family:Helvetica;font-size:8.0px;stroke:none;">https://doi.org/10.1016/j.fct.2012.11.013</text>
   <text y="185.272" x="426.102,431.39,438.014,440.222,445.926" svgx:width="0.67,0.83,0.28,0.72,0.28" style="fill:rgb(0,0,0);font-family:Helvetica;font-size:8.0px;stroke:none;">PMID:</text>
   <text y="185.272" x="449.8,454.176,458.552,462.928,467.304,471.68,476.056,480.432" svgx:width="0.55,0.55,0.55,0.55,0.55,0.55,0.55,0.55" style="fill:rgb(58,90,166);font-family:Helvetica;font-size:8.0px;stroke:none;">23174518</text>
   <text y="198.254" x="204.888,209.264" svgx:width="0.55,0.28" style="fill:rgb(0,0,0);font-family:Helvetica-Bold;font-size:8.0px;stroke:none;">9.</text>
   <text y="198.254" x="221.498,227.202,231.578,235.954,240.33,244.706,246.41,248.938,253.338,255.061,261.685,266.973,269.213,270.935,275.806,277.51,281.886,284.094,285.798,290.174,294.57399999999996,296.277,301.565,307.268,309.508,311.187,315.563,319.96299999999997,321.675,326.963,328.667,330.371,334.331,338.731,340.44,345.728,351.432,356.72,358.96000000000004,360.622,366.326,370.702,374.662,376.87,381.27,382.96,389.583,394.871,397.111,398.777,404.065,408.441,410.145,411.849,416.225,420.601,425.001,426.726,432.014,437.302,439.54200000000003,441.24,447.863,452.239,454.447,456.151,460.527,464.527,466.184,471.472,476.344,481.216,483.456,485.12,489.496,491.736,493.453,497.829,499.533,501.773,503.488,508.776,513.151,517.527,521.487,525.863,530.134,534.51,536.27,537.957,541.917,546.293,548.917,550.621,554.997,557.205,558.909,563.284,567.684,569.365,573.741" svgx:width="0.72,0.55,0.55,0.55,0.55,0.22,0.33,0.55,0.55,0.83,0.67,0.28,0.55,0.61,0.22,0.55,0.28,0.22,0.55,0.55,0.55,0.67,0.72,0.28,0.55,0.55,0.55,0.55,0.67,0.22,0.22,0.5,0.55,0.55,0.67,0.72,0.67,0.28,0.55,0.72,0.55,0.5,0.28,0.55,0.55,0.83,0.67,0.28,0.55,0.67,0.55,0.22,0.22,0.55,0.55,0.55,0.55,0.67,0.67,0.28,0.55,0.83,0.55,0.28,0.22,0.55,0.5,0.55,0.67,0.61,0.61,0.28,0.55,0.55,0.28,0.55,0.55,0.22,0.28,0.55,0.67,0.55,0.55,0.5,0.55,0.55,0.55,0.22,0.55,0.5,0.55,0.33,0.22,0.55,0.28,0.22,0.55,0.55,0.55,0.55,0.28" style="fill:rgb(0,0,0);font-family:Helvetica;font-size:8.0px;stroke:none;">Regueira MS, Tintino SR, da Silva ARP, Costa MS, Boligon AA, Matias EFF, et al. Seasonal variation of</text>
   <text y="207.779" x="221.498,226.786,229.41,233.786,237.746,239.45,241.154,242.858,247.234,251.63400000000001,253.304,255.928,260.303,264.703,266.399,270.775,273.399,277.775,282.151,286.527,288.231,289.935,293.895,296.135,297.807,303.095,307.471,309.679,311.383,315.759,320.135,324.095,326.303,330.575,333.199,334.903,339.279,341.039,342.707,347.083,351.043,353.251,354.955,358.915,360.619,362.827,366.787,369.027,370.714,374.674,378.634,383.01,387.386,390.01,394.386,396.09,400.05,402.258,403.962,407.962,409.605,413.981,416.189,418.397,422.773,426.733,428.973,430.638,435.014,439.39,443.78999999999996,445.492,449.867,454.243,458.203,460.411,464.787,468.747,473.123,477.499,483.985,485.689,489.649,494.025,495.78499999999997,497.479,501.439,505.399,508.023,512.399,516.775,521.151,522.855,527.231,531.494,533.734,535.462,540.334,544.71,549.086" svgx:width="0.67,0.33,0.55,0.5,0.22,0.22,0.22,0.55,0.55,0.55,0.33,0.55,0.55,0.55,0.55,0.33,0.55,0.55,0.55,0.22,0.22,0.5,0.28,0.55,0.67,0.55,0.28,0.22,0.55,0.55,0.5,0.28,0.55,0.33,0.22,0.55,0.22,0.55,0.55,0.5,0.28,0.22,0.5,0.22,0.28,0.5,0.28,0.55,0.5,0.5,0.55,0.55,0.33,0.55,0.22,0.5,0.28,0.22,0.5,0.55,0.55,0.28,0.28,0.55,0.5,0.28,0.55,0.55,0.55,0.55,0.55,0.55,0.55,0.5,0.28,0.55,0.5,0.55,0.55,0.83,0.22,0.5,0.55,0.22,0.55,0.5,0.5,0.33,0.55,0.55,0.55,0.22,0.55,0.55,0.28,0.55,0.61,0.55,0.55,0.55" style="fill:rgb(0,0,0);font-family:Helvetica;font-size:8.0px;stroke:none;">Brazilian red propolis: Antibacterial activity, synergistic effect and phytochemical screening. Food</text>
   <text y="217.303" x="221.498,227.202,231.578,235.954,244.289,249.161,253.537,257.497,259.201,263.161,267.537,269.241,271.481,273.146,277.522,281.898,286.273,290.649,292.889,294.576,298.952,303.328,307.704,309.944,311.584,315.96,320.335,324.711,329.087,333.463,337.839,342.215" svgx:width="0.72,0.55,0.55,0.83,0.61,0.55,0.5,0.22,0.5,0.55,0.22,0.28,0.55,0.55,0.55,0.55,0.55,0.28,0.55,0.55,0.55,0.55,0.28,0.55,0.55,0.55,0.55,0.55,0.55,0.55,0.55,0.28" style="fill:rgb(0,0,0);font-family:Helvetica;font-size:8.0px;stroke:none;">ChemToxicol. 2017; 107: 572–580.</text>
   <text y="217.303" x="346.109,350.485,352.693,354.901,359.277,363.237,365.445,367.652,369.86,374.236,378.612,380.316,382.524,386.758,389.382,393.758,395.966,400.342,404.718,406.926,411.302,415.677,420.053,424.429,426.637,428.341,430.549,432.757,436.591,438.799,441.007,445.383,449.759,454.135,458.511,460.719,465.094,469.47,471.57,475.946,480.321" svgx:width="0.55,0.28,0.28,0.55,0.5,0.28,0.28,0.28,0.55,0.55,0.22,0.28,0.55,0.33,0.55,0.28,0.55,0.55,0.28,0.55,0.55,0.55,0.55,0.28,0.22,0.28,0.28,0.5,0.28,0.28,0.55,0.55,0.55,0.55,0.28,0.55,0.55,0.28,0.55,0.55,0.55" style="fill:rgb(58,90,166);font-family:Helvetica;font-size:8.0px;stroke:none;">https://doi.org/10.1016/j.fct.2017.03.052</text>
   <text y="217.303" x="486.424,491.712,498.336,500.544,506.248" svgx:width="0.67,0.83,0.28,0.72,0.28" style="fill:rgb(0,0,0);font-family:Helvetica;font-size:8.0px;stroke:none;">PMID:</text>
   <text y="217.303" x="510.178,514.554,518.93,523.306,527.682,532.058,536.434,540.81" svgx:width="0.55,0.55,0.55,0.55,0.55,0.55,0.55,0.55" style="fill:rgb(58,90,166);font-family:Helvetica;font-size:8.0px;stroke:none;">28359875</text>
   <text y="230.286" x="200.523,204.899,209.275" svgx:width="0.55,0.55,0.28" style="fill:rgb(0,0,0);font-family:Helvetica-Bold;font-size:8.0px;stroke:none;">10.</text>
   <text y="230.286" x="221.498,226.786,228.49,230.194,234.154,238.554,240.264,245.968,251.256,256.959,259.199,260.9,267.524,271.9,275.86,280.236,284.612,288.988,293.388,295.029,300.317,305.605,310.893,313.133,314.815,320.103,324.479,327.103,329.727,334.103,336.31,340.71,342.367,348.575,353.863,356.103,357.788,363.492,367.868,371.828,374.036,378.436,380.124,385.412,390.7,392.94,394.638,399.926,404.302,408.678,411.302,415.677,420.053,424.453,426.102,430.478,436.182,438.422,440.105,445.393,452.017,456.393,459.017,463.393,465.15299999999996,466.808,472.512,478.72,480.96000000000004,482.625,487.001,489.241,490.959,495.335,497.039,499.279,500.993,506.281,510.657,512.865,514.569,518.945,522.905,524.609,528.985,533.361,537.737,539.945,542.1850000000001,543.797,548.173,552.549,554.757,556.461,563.084,564.788" svgx:width="0.67,0.22,0.22,0.5,0.55,0.55,0.72,0.67,0.72,0.28,0.55,0.83,0.55,0.5,0.55,0.55,0.55,0.55,0.55,0.67,0.67,0.67,0.28,0.55,0.67,0.55,0.33,0.33,0.55,0.28,0.55,0.55,0.78,0.67,0.28,0.55,0.72,0.55,0.5,0.28,0.55,0.55,0.67,0.67,0.28,0.55,0.67,0.55,0.55,0.33,0.55,0.55,0.55,0.55,0.55,0.72,0.28,0.55,0.67,0.83,0.55,0.33,0.55,0.22,0.55,0.72,0.78,0.28,0.55,0.55,0.28,0.55,0.55,0.22,0.28,0.55,0.67,0.55,0.28,0.22,0.55,0.5,0.22,0.55,0.55,0.55,0.28,0.28,0.55,0.55,0.55,0.28,0.22,0.83,0.22,0.33" style="fill:rgb(0,0,0);font-family:Helvetica;font-size:8.0px;stroke:none;">Silva RPD, Machado BAS, Barreto GA, Costa SS, Andrade LN, Amaral RG, et al. Antioxidant, antimi-</text>
   <text y="239.754" x="221.498,225.458,228.082,232.458,236.834,238.538,242.914,244.618,246.858,248.541,252.917,257.293,259.501,261.205,265.581,269.957,272.581,276.957,280.799,282.503,284.711,286.415,290.375,292.615,294.349,298.725,303.101,307.501,309.202,313.162,317.122,319.33,323.706,325.914,330.29,334.25,335.848,339.848,341.574,345.95,348.574,352.95,357.325,361.701,364.325,366.533,368.237,372.613,376.613,378.254,382.63,384.87,386.531,390.491,394.867,397.491,399.195,403.57,407.946,411.946,413.63,418.918,421.542,425.918,429.878,431.582,433.286,434.99,439.366,443.76599999999996,445.435,449.811,452.435,456.811,461.187,465.563,467.266,468.97,472.97,474.631,479.007,482.967,485.175,487.799,492.175,496.135,498.343,502.184,504.42400000000004,506.152,511.44,515.816,520.192,525.552,527.186,533.394,537.77,542.146,544.386,546.064,550.44,554.816,559.192,563.568" svgx:width="0.5,0.33,0.55,0.55,0.22,0.55,0.22,0.28,0.55,0.55,0.55,0.28,0.22,0.55,0.55,0.33,0.55,0.5,0.22,0.28,0.22,0.5,0.28,0.55,0.55,0.55,0.55,0.55,0.5,0.5,0.28,0.55,0.28,0.55,0.5,0.22,0.5,0.55,0.55,0.33,0.55,0.55,0.55,0.33,0.28,0.22,0.55,0.5,0.55,0.55,0.28,0.55,0.5,0.55,0.33,0.22,0.55,0.55,0.5,0.55,0.67,0.33,0.55,0.5,0.22,0.22,0.22,0.55,0.55,0.55,0.55,0.33,0.55,0.55,0.55,0.22,0.22,0.5,0.55,0.55,0.5,0.28,0.33,0.55,0.5,0.28,0.5,0.28,0.55,0.67,0.55,0.55,0.67,0.55,0.78,0.55,0.55,0.28,0.55,0.55,0.55,0.55,0.55,0.28" style="fill:rgb(0,0,0);font-family:Helvetica;font-size:8.0px;stroke:none;">crobial, antiparasitic, and cytotoxic properties of various Brazilian propolis extracts. PLoS One. 2017;</text>
   <text y="249.277" x="221.498,225.874,230.25,232.49,234.198,238.574,242.95,247.326,251.702,256.078,260.454,264.83,269.064" svgx:width="0.55,0.55,0.28,0.55,0.55,0.55,0.55,0.55,0.55,0.55,0.55,0.55,0.28" style="fill:rgb(0,0,0);font-family:Helvetica;font-size:8.0px;stroke:none;">12: e0172585.</text>
   <text y="249.277" x="273.032,277.408,279.616,281.824,286.2,290.16,292.368,294.576,296.784,301.16,305.536,307.24,309.448,313.824,316.345,320.721,322.929,327.305,331.681,333.889,338.265,342.641,347.017,351.393,353.479,355.183,359.559,363.935,366.559,370.935,375.311,377.015,379.223,383.599,387.975,392.257,396.633,398.841,403.217,407.593,411.969,416.345,420.721,425.097" svgx:width="0.55,0.28,0.28,0.55,0.5,0.28,0.28,0.28,0.55,0.55,0.22,0.28,0.55,0.33,0.55,0.28,0.55,0.55,0.28,0.55,0.55,0.55,0.55,0.28,0.22,0.55,0.55,0.33,0.55,0.55,0.22,0.28,0.55,0.55,0.55,0.55,0.28,0.55,0.55,0.55,0.55,0.55,0.55,0.55" style="fill:rgb(58,90,166);font-family:Helvetica;font-size:8.0px;stroke:none;">https://doi.org/10.1371/journal.pone.0172585</text>
   <text y="249.277" x="431.148,436.436,443.06,445.268,450.971" svgx:width="0.67,0.83,0.28,0.72,0.28" style="fill:rgb(0,0,0);font-family:Helvetica;font-size:8.0px;stroke:none;">PMID:</text>
   <text y="249.277" x="454.903,459.279,463.654,468.03,472.406,476.782,481.037,485.413" svgx:width="0.55,0.55,0.55,0.55,0.55,0.55,0.55,0.55" style="fill:rgb(58,90,166);font-family:Helvetica;font-size:8.0px;stroke:none;">28358806</text>
   <text y="262.26" x="200.523,204.899,209.275" svgx:width="0.55,0.55,0.28" style="fill:rgb(0,0,0);font-family:Helvetica-Bold;font-size:8.0px;stroke:none;">11.</text>
   <text y="262.26" x="221.498,227.202,231.578,235.538,239.914,243.914,245.593,252.217,257.505,264.129,266.369,268.043,273.331,275.035,276.739,280.699,285.099,286.752,291.624,298.248,303.536,305.776,307.501,311.877,313.581,320.205,324.60499999999996,326.267,331.555,337.762,340.002,341.687,347.391,351.767,356.143,360.519,364.919,366.632,371.92,377.208,381.583,383.82300000000004,385.511,391.719,393.423,395.127,399.086,403.462,405.166,407.79,412.19,413.857,419.145,423.105,425.345,427.009,429.217,433.177,437.553,439.761,441.465,445.841,449.801,454.177,458.553,462.953,464.597,466.805,471.181,473.805,480.429,484.805,489.181,493.557,497.932,502.184,504.392,506.096,510.496,512.219,514.427,517.051,521.427,529.794,532.418,536.794,541.194,542.889,547.265,549.889,554.265,558.641,563.017,564.721,566.425" svgx:width="0.72,0.55,0.5,0.55,0.5,0.55,0.83,0.67,0.83,0.28,0.55,0.67,0.22,0.22,0.5,0.55,0.55,0.61,0.83,0.67,0.28,0.55,0.55,0.22,0.83,0.55,0.55,0.67,0.78,0.28,0.55,0.72,0.55,0.55,0.55,0.55,0.55,0.67,0.67,0.55,0.28,0.55,0.78,0.22,0.22,0.5,0.55,0.22,0.33,0.55,0.55,0.67,0.5,0.28,0.55,0.28,0.5,0.55,0.28,0.22,0.55,0.5,0.55,0.55,0.55,0.55,0.28,0.55,0.33,0.83,0.55,0.55,0.55,0.55,0.55,0.28,0.22,0.55,0.55,0.28,0.33,0.55,0.83,0.33,0.55,0.55,0.55,0.55,0.33,0.55,0.55,0.55,0.22,0.22,0.5" style="fill:rgb(0,0,0);font-family:Helvetica;font-size:8.0px;stroke:none;">Neves MVM, Silva TMS, Lima EO, Cunha EVL, Oliveira EJ. Isoflavone formononetin fromred propolis</text>
   <text y="271.784" x="221.498,225.874,229.834,232.042,236.042,237.713,242.088,246.088,247.804,252.204,253.927,256.135,260.511,264.887,269.263,270.966,274.926,276.63,281.006,285.40599999999995,287.035,291.411,295.787,300.163,301.867,306.243,310.203" svgx:width="0.55,0.5,0.28,0.5,0.55,0.55,0.5,0.55,0.55,0.55,0.28,0.55,0.55,0.55,0.22,0.5,0.22,0.55,0.55,0.55,0.55,0.55,0.55,0.22,0.55,0.5,0.28" style="fill:rgb(0,0,0);font-family:Helvetica;font-size:8.0px;stroke:none;">acts as a fungicide against</text>
   <text y="271.784" x="314.135,319.839,324.215,328.591,332.967,334.671,339.046" svgx:width="0.72,0.55,0.55,0.55,0.22,0.55,0.55" style="fill:rgb(0,0,0);font-family:Helvetica-Oblique;font-size:8.0px;stroke:none;">Candida</text>
   <text y="271.784" x="345.089,349.049,353.425,355.665,357.334,362.622,365.246,369.622,373.582,375.286,376.99,378.694,383.07,387.46999999999997,389.139,393.139,394.865,401.489,403.193,407.153,409.777,414.153,418.529,420.233,424.609,426.216,428.456,430.184,434.56,438.936,443.312,447.688,449.928,451.614,455.99,460.366,462.606,464.314,468.69,473.066,477.442,481.817,486.193,490.569,494.814" svgx:width="0.5,0.55,0.28,0.55,0.67,0.33,0.55,0.5,0.22,0.22,0.22,0.55,0.55,0.55,0.5,0.55,0.83,0.22,0.5,0.33,0.55,0.55,0.22,0.55,0.22,0.28,0.55,0.55,0.55,0.55,0.55,0.28,0.55,0.55,0.55,0.28,0.55,0.55,0.55,0.55,0.55,0.55,0.55,0.55,0.28" style="fill:rgb(0,0,0);font-family:Helvetica;font-size:8.0px;stroke:none;">sp. Brazilian J Microbiol. 2016; 47: 159–166.</text>
   <text y="271.784" x="498.782,503.158,505.366,507.574,511.95,515.91,518.118,520.326,522.534,526.91,531.286,532.99,535.198,539.574,542.096,546.472,548.68,553.056,557.432" svgx:width="0.55,0.28,0.28,0.55,0.5,0.28,0.28,0.28,0.55,0.55,0.22,0.28,0.55,0.33,0.55,0.28,0.55,0.55,0.28" style="fill:rgb(58,90,166);font-family:Helvetica;font-size:8.0px;stroke:none;">https://doi.org/10.</text>
   <text y="281.252" x="221.498,225.874,230.25,234.626,239.002,241.21,242.914,245.122,249.498,251.202,257.725,259.933,264.309,268.685,273.061,277.437,279.645,284.021,288.397,290.493,294.869,299.245" svgx:width="0.55,0.55,0.55,0.55,0.28,0.22,0.28,0.55,0.22,0.83,0.28,0.55,0.55,0.55,0.55,0.28,0.55,0.55,0.28,0.55,0.55,0.55" style="fill:rgb(58,90,166);font-family:Helvetica;font-size:8.0px;stroke:none;">1016/j.bjm.2015.11.009</text>
   <text y="281.252" x="305.347,310.635,317.259,319.467,325.171" svgx:width="0.67,0.83,0.28,0.72,0.28" style="fill:rgb(0,0,0);font-family:Helvetica;font-size:8.0px;stroke:none;">PMID:</text>
   <text y="281.252" x="329.101,333.477,337.853,342.229,346.605,350.981,355.357,359.733" svgx:width="0.55,0.55,0.55,0.55,0.55,0.55,0.55,0.55" style="fill:rgb(58,90,166);font-family:Helvetica;font-size:8.0px;stroke:none;">26887239</text>
   <text y="294.291" x="200.523,204.899,209.275" svgx:width="0.55,0.55,0.28" style="fill:rgb(0,0,0);font-family:Helvetica-Bold;font-size:8.0px;stroke:none;">12.</text>
   <text y="294.291" x="221.498,227.202,231.578,235.538,239.498,241.202,247.826,252.202,256.478,258.686,263.08599999999996,264.812,269.684,275.892,278.132,279.835,285.123,286.827,288.531,292.491,296.89099999999996,298.601,303.888,308.76,311.0,312.66,317.948,321.908,326.284,330.244,334.62,338.996,343.39599999999996,345.089,349.465,354.337,356.577,358.241,363.945,368.321,372.281,376.657,381.05699999999996,382.732,387.108,393.316,395.556,397.246,403.87,408.246,410.87,415.245,419.621,423.621,425.252,430.54,434.916,437.54,439.748,444.14799999999997,445.831,448.039,453.743,459.447,461.687,463.406,470.03,474.406,478.782,481.406,485.806,487.501,492.372,497.244,502.532,506.908,509.148,510.801,515.177,517.417,519.135,523.511,525.215,527.455,529.17,534.458,538.833,540.537,544.497,551.121,555.497,558.121,559.727" svgx:width="0.72,0.55,0.5,0.5,0.22,0.83,0.55,0.55,0.28,0.55,0.55,0.61,0.78,0.28,0.55,0.67,0.22,0.22,0.5,0.55,0.55,0.67,0.61,0.28,0.55,0.67,0.5,0.55,0.5,0.55,0.55,0.55,0.55,0.55,0.61,0.28,0.55,0.72,0.55,0.5,0.55,0.55,0.55,0.55,0.78,0.28,0.55,0.83,0.55,0.33,0.55,0.55,0.5,0.55,0.67,0.55,0.33,0.28,0.55,0.55,0.28,0.72,0.72,0.28,0.55,0.83,0.55,0.55,0.33,0.55,0.55,0.61,0.61,0.67,0.55,0.28,0.55,0.55,0.28,0.55,0.55,0.22,0.28,0.55,0.67,0.55,0.22,0.5,0.83,0.55,0.33,0.22,0.5" style="fill:rgb(0,0,0);font-family:Helvetica;font-size:8.0px;stroke:none;">Nascimento TG, Silva PF, Azevedo LF, Rocha LG, Moraes Porto ICC, Moura TFAL, et al. Polymeric</text>
   <text y="303.759" x="221.498,227.202,231.578,235.954,240.33,244.706,249.082,251.603,253.811,255.515,259.475,261.179,265.555,269.555,271.274,275.65,277.89,279.552,284.84,287.464,291.84,295.8,297.504,299.208,300.912,305.288,309.688,311.356,313.98,318.356,322.756,324.509,328.885,331.509,335.885,340.261,344.637,346.341,348.045,352.045,353.649,358.025,361.985,364.193,366.817,371.193,375.153,377.361,379.601,381.259,385.635,388.259,392.635,397.01,401.386,404.01,408.386,410.594,412.298,416.578,420.954,423.194,424.912,428.872,433.248,437.624,440.248,444.624,448.583,450.791,455.167,457.791,459.495,463.35,467.726,469.934,471.638,476.014,480.389,482.629,484.325,488.701,493.077,495.285,496.989,501.365,505.325,507.029,511.405,515.677,520.053,522.293,524.01,528.386,532.762,537.1619999999999,538.864,540.568,544.944,546.648,550.608,554.984,561.608,565.984,570.36,571.972" svgx:width="0.72,0.55,0.55,0.55,0.55,0.55,0.33,0.28,0.22,0.5,0.22,0.55,0.5,0.55,0.55,0.28,0.55,0.67,0.33,0.55,0.5,0.22,0.22,0.22,0.55,0.55,0.55,0.33,0.55,0.55,0.55,0.55,0.33,0.55,0.55,0.55,0.22,0.22,0.5,0.55,0.55,0.5,0.28,0.33,0.55,0.5,0.28,0.28,0.55,0.55,0.33,0.55,0.55,0.55,0.33,0.55,0.28,0.22,0.55,0.55,0.28,0.55,0.5,0.55,0.55,0.33,0.55,0.5,0.28,0.55,0.33,0.22,0.5,0.55,0.28,0.22,0.55,0.55,0.28,0.55,0.55,0.55,0.28,0.22,0.55,0.5,0.22,0.55,0.55,0.55,0.28,0.55,0.55,0.55,0.55,0.55,0.22,0.55,0.22,0.5,0.55,0.83,0.55,0.55,0.22,0.33" style="fill:rgb(0,0,0);font-family:Helvetica;font-size:8.0px;stroke:none;">Nanoparticles of Brazilian red propolis extract: preparation, characterization, antioxidant and leishmani-</text>
   <text y="313.284" x="221.498,225.458,227.162,231.538,235.914,237.67399999999998,239.356,243.732,247.692,249.9,251.604,255.564,257.268,259.476,263.338,265.57800000000003,267.307,273.01,277.386,281.762,286.138,290.098,294.058,298.434,300.138,304.53799999999995,306.197,311.901,316.277,320.277,321.958,326.334,330.71,332.918,335.126,337.366,339.022,343.398,347.774,352.15,356.526,358.766,360.453,364.828,369.204,371.444,373.152,377.528,381.904,386.279" svgx:width="0.5,0.22,0.55,0.55,0.22,0.55,0.55,0.5,0.28,0.22,0.5,0.22,0.28,0.5,0.28,0.55,0.72,0.55,0.55,0.55,0.5,0.5,0.55,0.22,0.55,0.55,0.72,0.55,0.5,0.55,0.55,0.55,0.28,0.28,0.28,0.55,0.55,0.55,0.55,0.55,0.28,0.55,0.55,0.55,0.28,0.55,0.55,0.55,0.55,0.28" style="fill:rgb(0,0,0);font-family:Helvetica;font-size:8.0px;stroke:none;">cidal activity. Nanoscale Res Lett. 2016; 11: 301.</text>
   <text y="313.284" x="390.216,394.592,396.8,399.008,403.384,407.344,409.552,411.76,413.857,418.233,422.609,424.313,426.521,430.896,433.52,437.896,440.104,444.48,448.856,451.064,455.44,459.721,464.097,468.473,470.681,474.641,479.017,483.393,487.769,492.036,496.412,499.036,503.412,507.788,512.163,514.787,519.163,523.539,527.809,532.185,534.809" svgx:width="0.55,0.28,0.28,0.55,0.5,0.28,0.28,0.28,0.55,0.55,0.22,0.28,0.55,0.33,0.55,0.28,0.55,0.55,0.28,0.55,0.55,0.55,0.55,0.28,0.5,0.55,0.55,0.55,0.55,0.55,0.33,0.55,0.55,0.55,0.33,0.55,0.55,0.55,0.55,0.33,0.55" style="fill:rgb(58,90,166);font-family:Helvetica;font-size:8.0px;stroke:none;">https://doi.org/10.1186/s11671-016-1517-3</text>
   <text y="313.284" x="540.905,546.193,552.817,555.024,560.728" svgx:width="0.67,0.83,0.28,0.72,0.28" style="fill:rgb(0,0,0);font-family:Helvetica;font-size:8.0px;stroke:none;">PMID:</text>
   <text y="322.751" x="221.498,225.874,230.25,234.626,239.002,243.378,247.754,252.13" svgx:width="0.55,0.55,0.55,0.55,0.55,0.55,0.55,0.55" style="fill:rgb(58,90,166);font-family:Helvetica;font-size:8.0px;stroke:none;">27316742</text>
   <text y="335.791" x="200.523,204.899,209.275" svgx:width="0.55,0.55,0.28" style="fill:rgb(0,0,0);font-family:Helvetica-Bold;font-size:8.0px;stroke:none;">13.</text>
   <text y="335.791" x="221.498,226.786,231.162,235.538,239.914,241.618,245.994,247.754,249.392,254.679,260.383,262.623,264.302,270.926,275.302,279.678,282.302,286.702,288.396,292.772,297.17199999999997,298.884,303.26,307.636,312.012,316.412,318.103,323.391,330.015,332.255,333.92,338.792,343.168,347.544,350.168,354.544,361.983,367.687,369.927,371.62,376.908,380.868,385.244,389.62,391.324,393.532,397.492,401.892,403.538,408.826,411.06600000000003,412.78,418.484,422.86,429.484,433.86,438.236,442.236,443.847,449.135,454.007,456.247,457.963,464.587,468.963,471.587,473.795,475.499,479.875,483.875,485.517,491.221,495.596,499.972,502.596,504.3,508.676,513.052,517.428,521.428,523.047,527.918,530.158,531.891,536.267,538.5070000000001,540.225,544.601,546.305,548.545,550.259,555.547,558.171,562.547,566.507,568.211,569.915" svgx:width="0.67,0.55,0.55,0.55,0.22,0.55,0.22,0.55,0.67,0.72,0.28,0.55,0.83,0.55,0.55,0.33,0.55,0.55,0.55,0.55,0.55,0.55,0.55,0.55,0.55,0.55,0.67,0.83,0.28,0.55,0.61,0.55,0.55,0.33,0.55,0.72,0.72,0.28,0.55,0.67,0.5,0.55,0.55,0.22,0.28,0.5,0.55,0.55,0.67,0.28,0.55,0.72,0.55,0.83,0.55,0.55,0.5,0.55,0.67,0.61,0.28,0.55,0.83,0.55,0.33,0.28,0.22,0.55,0.5,0.55,0.72,0.55,0.55,0.33,0.22,0.55,0.55,0.55,0.5,0.55,0.61,0.28,0.55,0.55,0.28,0.55,0.55,0.22,0.28,0.55,0.67,0.33,0.55,0.5,0.22,0.22,0.33" style="fill:rgb(0,0,0);font-family:Helvetica;font-size:8.0px;stroke:none;">Begnini KR, Moura de Leon PM, ThurowH, Schultze E, Campos VF, Martins Rodrigues F, et al. Brazil-</text>
   <text y="345.259" x="221.498,223.202,227.578,231.978,233.688,236.312,240.688,245.088,246.784,251.159,253.783,258.159,262.535,266.911,268.615,270.319,274.319,275.98,277.684,282.06,286.436,290.812,294.772,299.148,303.148,304.78,309.156,313.532,317.908,322.284,324.492,328.868,332.828,334.532,338.492,341.006,342.71,344.414,348.374,352.774,354.5,358.46,362.836,364.54,366.3,367.992,372.368,376.744,381.12,383.328,387.72799999999995,389.423,393.798,398.174,402.57399999999996,404.219,408.595,412.971,416.931,419.555,423.931,428.307,432.267,436.643,440.643,442.259,448.883,450.587,454.963,457.587,461.963,464.171,465.875,470.251,474.65099999999995,476.332,480.708,485.084,487.292,491.668,496.044,498.252,499.956,504.225,505.985,507.74,509.443,513.843,515.563,519.939,521.643,526.019,530.395,534.771,539.034,541.674,543.456,547.416,551.792,556.168,560.128,564.504" svgx:width="0.22,0.55,0.55,0.55,0.33,0.55,0.55,0.55,0.55,0.33,0.55,0.55,0.55,0.22,0.22,0.5,0.55,0.22,0.55,0.55,0.55,0.5,0.55,0.5,0.55,0.55,0.55,0.55,0.55,0.28,0.55,0.5,0.22,0.5,0.33,0.22,0.22,0.5,0.55,0.55,0.5,0.55,0.22,0.22,0.55,0.55,0.55,0.55,0.28,0.55,0.55,0.55,0.55,0.55,0.55,0.55,0.55,0.5,0.33,0.55,0.55,0.5,0.55,0.5,0.55,0.83,0.22,0.55,0.33,0.55,0.28,0.22,0.55,0.55,0.55,0.55,0.55,0.28,0.55,0.55,0.28,0.22,0.55,0.22,0.55,0.22,0.55,0.55,0.55,0.22,0.55,0.55,0.55,0.55,0.33,0.55,0.5,0.55,0.55,0.5,0.55,0.33" style="fill:rgb(0,0,0);font-family:Helvetica;font-size:8.0px;stroke:none;">ian red propolis induces apoptosis-like cell death and decreases migration potential in bladder cancer</text>
   <text y="354.783" x="221.498,225.458,229.834,231.538,233.242,237.202,239.442,241.114,246.402,250.362,252.066,256.442,260.818,265.194,269.154,273.429,276.053,281.341,285.717,289.677,294.053,298.453,300.132,305.836,310.212,316.835,321.211,322.915,327.291,333.915,338.291,342.667,344.907,346.506,351.794,353.498,355.706,360.082,362.706,367.106,368.843,375.467,379.843,384.219,386.459,388.119,392.495,396.87,401.246,405.622,407.862,409.548,413.924,418.3,422.676,427.052,429.29200000000003,430.921,435.297,439.673,444.049,448.425" svgx:width="0.5,0.55,0.22,0.22,0.5,0.28,0.55,0.67,0.5,0.22,0.55,0.55,0.55,0.5,0.55,0.33,0.67,0.55,0.5,0.55,0.55,0.55,0.72,0.55,0.83,0.55,0.22,0.55,0.83,0.55,0.55,0.28,0.55,0.67,0.22,0.28,0.55,0.33,0.55,0.55,0.83,0.55,0.55,0.28,0.55,0.55,0.55,0.55,0.55,0.28,0.55,0.55,0.55,0.55,0.55,0.28,0.55,0.55,0.55,0.55,0.55,0.28" style="fill:rgb(0,0,0);font-family:Helvetica;font-size:8.0px;stroke:none;">cells. Evidence-Based Complement Altern Med. 2014; 2014: 1–13.</text>
   <text y="354.783" x="452.351,456.727,458.935,461.143,465.519,469.479,471.687,473.895,476.103,480.479,484.855,486.559,488.767,493.143,495.664,500.04,502.248,506.624,511.0,513.208,517.584,521.96,526.222,530.598,532.806,537.182,541.557,545.933,550.309" svgx:width="0.55,0.28,0.28,0.55,0.5,0.28,0.28,0.28,0.55,0.55,0.22,0.28,0.55,0.33,0.55,0.28,0.55,0.55,0.28,0.55,0.55,0.55,0.55,0.28,0.55,0.55,0.55,0.55,0.28" style="fill:rgb(58,90,166);font-family:Helvetica;font-size:8.0px;stroke:none;">https://doi.org/10.1155/2014/</text>
   <text y="364.307" x="221.498,225.874,230.25,234.626,239.002,243.378" svgx:width="0.55,0.55,0.55,0.55,0.55,0.55" style="fill:rgb(58,90,166);font-family:Helvetica;font-size:8.0px;stroke:none;">639856</text>
   <text y="364.307" x="249.448,254.736,261.36,263.568,269.272" svgx:width="0.67,0.83,0.28,0.72,0.28" style="fill:rgb(0,0,0);font-family:Helvetica;font-size:8.0px;stroke:none;">PMID:</text>
   <text y="364.307" x="273.202,277.578,281.954,286.33,290.706,295.082,299.337,303.713" svgx:width="0.55,0.55,0.55,0.55,0.55,0.55,0.55,0.55" style="fill:rgb(58,90,166);font-family:Helvetica;font-size:8.0px;stroke:none;">25530785</text>
   <text y="377.289" x="200.523,204.899,209.275" svgx:width="0.55,0.55,0.28" style="fill:rgb(0,0,0);font-family:Helvetica-Bold;font-size:8.0px;stroke:none;">14.</text>
   <text y="377.289" x="221.498,226.37,228.994,233.37,237.33,241.29,245.69,247.351,253.055,259.263,264.551,266.791,268.497,273.785,278.161,282.537,284.745,289.121,293.121,294.745,300.449,305.737,307.97700000000003,309.712,315.416,319.792,322.0,326.376,328.584,330.689,335.089,336.811,341.187,346.891,349.13100000000003,350.871,357.495,359.199,363.575,367.951,370.159,372.367,376.767,378.423,382.799,385.039,386.758,392.046,396.006,400.382,403.006,404.71,409.086,411.326,412.949,417.821,421.781,424.021,425.762,431.05,435.01,439.386,443.762,447.722,452.098,454.722,457.227,458.93,463.306,467.682,470.306,474.682,478.682,480.357,485.645,487.885,489.598,493.974,496.214,497.932,502.308,504.012,506.252,507.967,513.255,517.631,519.839,521.542,523.75,528.126,534.75,539.126,541.766,543.4,547.776,551.736,553.944,555.648,559.608,561.312,563.52,567.52,569.195,573.571" svgx:width="0.61,0.33,0.55,0.5,0.5,0.55,0.55,0.72,0.78,0.67,0.28,0.55,0.67,0.55,0.55,0.28,0.55,0.5,0.55,0.72,0.67,0.28,0.55,0.72,0.55,0.28,0.55,0.28,0.28,0.55,0.55,0.55,0.72,0.28,0.55,0.83,0.22,0.55,0.55,0.28,0.28,0.55,0.55,0.55,0.28,0.55,0.67,0.5,0.55,0.33,0.22,0.55,0.28,0.55,0.61,0.5,0.28,0.55,0.67,0.5,0.55,0.55,0.5,0.55,0.33,0.33,0.22,0.55,0.55,0.33,0.55,0.5,0.55,0.67,0.28,0.55,0.55,0.28,0.55,0.55,0.22,0.28,0.55,0.67,0.55,0.28,0.22,0.28,0.55,0.83,0.55,0.33,0.55,0.55,0.5,0.28,0.22,0.5,0.22,0.28,0.5,0.55,0.55,0.28" style="fill:rgb(0,0,0);font-family:Helvetica;font-size:8.0px;stroke:none;">Frozza COS, Santos DA, Rufatto LC, Minetto L, Scariot FJ, Echeverrigaray S, et al. Antitumor activity of</text>
   <text y="386.757" x="221.498,226.786,229.41,233.786,237.746,239.45,241.154,242.858,247.234,251.63400000000001,253.303,255.927,260.303,264.703,266.399,270.775,273.399,277.775,282.151,286.527,288.231,289.935,293.935,295.596,297.804,300.428,304.804,308.764,310.971,312.675,317.051,321.427,325.427,327.06,331.436,335.812,340.188,341.892,346.268,350.228,352.468,354.103,359.807,364.183,368.559,371.183,375.58299999999997,377.29,381.25,385.626,390.002,393.962,398.338,400.978,402.632,406.592,410.968,412.672,414.432,416.125,417.829,419.533,423.908,428.284,430.524,432.225,437.513,439.217,443.593,450.217,454.593,458.993,460.685,465.973,470.349,474.725,477.349,483.973,488.237,492.197,496.573,498.781,503.157,507.533,510.157,512.3969999999999,514.089,518.465,522.841,527.217,531.593,533.833,535.462,539.838,544.214,546.4540000000001,548.161,552.537,556.913,561.289" svgx:width="0.67,0.33,0.55,0.5,0.22,0.22,0.22,0.55,0.55,0.55,0.33,0.55,0.55,0.55,0.55,0.33,0.55,0.55,0.55,0.22,0.22,0.5,0.55,0.28,0.33,0.55,0.5,0.28,0.22,0.55,0.55,0.5,0.55,0.55,0.55,0.55,0.22,0.55,0.5,0.28,0.55,0.72,0.55,0.55,0.33,0.55,0.55,0.5,0.55,0.55,0.5,0.55,0.33,0.55,0.5,0.55,0.22,0.22,0.55,0.22,0.22,0.55,0.55,0.28,0.55,0.67,0.22,0.55,0.83,0.55,0.55,0.55,0.67,0.55,0.55,0.33,0.83,0.55,0.5,0.55,0.28,0.55,0.55,0.33,0.28,0.55,0.55,0.55,0.55,0.55,0.28,0.55,0.55,0.55,0.28,0.55,0.55,0.55,0.55,0.55" style="fill:rgb(0,0,0);font-family:Helvetica;font-size:8.0px;stroke:none;">Brazilian red propolis fractions against Hep-2 cancer cell line. Biomed Pharmacother. 2017; 91: 951–</text>
   <text y="396.282" x="221.498,225.874,230.25,234.626" svgx:width="0.55,0.55,0.55,0.28" style="fill:rgb(0,0,0);font-family:Helvetica;font-size:8.0px;stroke:none;">963.</text>
   <text y="396.282" x="238.563,242.939,245.147,247.355,251.731,255.691,257.898,260.106,262.314,266.69,270.934,272.638,274.846,279.222,281.846,286.222,288.43,292.806,297.182,299.39,303.766,308.142,312.518,316.799,319.007,320.711,322.918,327.294,328.998,333.374,337.75,342.126,346.502,348.604,352.98,357.356,361.732,366.108,368.316,372.691,377.067,379.275,383.651,388.027" svgx:width="0.55,0.28,0.28,0.55,0.5,0.28,0.28,0.28,0.55,0.55,0.22,0.28,0.55,0.33,0.55,0.28,0.55,0.55,0.28,0.55,0.55,0.55,0.55,0.28,0.22,0.28,0.55,0.22,0.55,0.55,0.55,0.55,0.28,0.55,0.55,0.55,0.55,0.28,0.55,0.55,0.28,0.55,0.55,0.55" style="fill:rgb(58,90,166);font-family:Helvetica;font-size:8.0px;stroke:none;">https://doi.org/10.1016/j.biopha.2017.05.027</text>
   <text y="396.282" x="394.071,399.359,405.983,408.191,413.895" svgx:width="0.67,0.83,0.28,0.72,0.28" style="fill:rgb(0,0,0);font-family:Helvetica;font-size:8.0px;stroke:none;">PMID:</text>
   <text y="396.282" x="417.825,422.201,426.577,430.953,435.329,439.705,443.96,448.336" svgx:width="0.55,0.55,0.55,0.55,0.55,0.55,0.55,0.55" style="fill:rgb(58,90,166);font-family:Helvetica;font-size:8.0px;stroke:none;">28514834</text>
   <text y="409.264" x="200.523,204.899,209.275" svgx:width="0.55,0.55,0.28" style="fill:rgb(0,0,0);font-family:Helvetica-Bold;font-size:8.0px;stroke:none;">15.</text>
   <text y="409.264" x="221.498,226.786,231.162,235.538,239.914,244.29,246.914,252.202,253.813,255.517,259.477,263.87699999999995,265.606,270.894,273.134,274.846,280.134,284.51,288.90999999999997,290.607,296.311,298.551,300.244,305.116,309.492,311.196,315.156,319.532,321.74,323.948,328.34799999999996,330.008,336.632,341.008,343.248,344.975,350.263,351.967,356.343,360.719,364.679,369.055,371.695,373.321,378.609,385.233,387.473,389.195,391.403,395.363,399.739,404.115,408.491,412.451,414.211,415.841,422.464,424.704,426.386,432.09,436.466,440.426,444.802,446.506,450.882,455.282,456.943,462.231,466.607,468.84700000000004,470.549,475.837,478.045,480.253,484.629,488.589,490.829,492.546,496.922,499.16200000000003,500.823,505.199,509.575,513.951,517.911,522.287,526.247,528.455,530.159,532.367,536.743,538.447,546.291,550.251,554.627,558.587,560.795,562.499,564.707,569.083" svgx:width="0.67,0.55,0.55,0.55,0.55,0.33,0.67,0.22,0.22,0.5,0.55,0.55,0.67,0.28,0.55,0.67,0.55,0.55,0.55,0.72,0.28,0.55,0.61,0.55,0.22,0.5,0.55,0.28,0.28,0.55,0.55,0.83,0.55,0.28,0.55,0.67,0.22,0.55,0.55,0.5,0.55,0.33,0.55,0.67,0.83,0.28,0.55,0.28,0.5,0.55,0.55,0.55,0.5,0.22,0.55,0.83,0.28,0.55,0.72,0.55,0.5,0.55,0.22,0.55,0.55,0.55,0.67,0.55,0.28,0.55,0.67,0.28,0.28,0.55,0.5,0.28,0.55,0.55,0.28,0.55,0.55,0.55,0.55,0.5,0.55,0.5,0.28,0.22,0.28,0.55,0.22,1.0,0.5,0.55,0.5,0.28,0.22,0.28,0.55,0.22" style="fill:rgb(0,0,0);font-family:Helvetica;font-size:8.0px;stroke:none;">Bueno-Silva B, Koo H, Falsetta ML, Alencar SM, Ikegaki M, Rosalen PL. Effect of neovestitol—vestitol</text>
   <text y="418.789" x="221.498,225.458,229.834,234.21,236.418,240.794,242.498,246.874,248.578,252.85,257.25,258.972,264.26,266.884,271.26,275.22,276.924,278.628,280.332,284.708,289.108,290.777,293.401,297.777,302.17699999999996,303.93,308.306,310.93,315.306,319.682,324.058,325.762,327.466,331.466,333.07,337.445,341.84499999999997,343.557,347.933,351.893,355.853,360.229,366.853,371.229,372.933,377.309,379.517,381.221,385.597,389.99699999999996,391.633,396.009,398.249,399.967,404.343,406.047,410.423,412.631,414.335,416.039,424.344,426.048,430.448,432.168,436.128,437.832,440.04,442.664,447.06399999999996,448.779,453.155,457.531,461.931,463.633,468.009,472.385,476.345,480.721,482.424,486.8,491.072,497.696,502.072,506.448,508.688,510.404,514.78,517.02,518.738,523.114,527.49,531.866,534.074,538.45,540.21,541.812,545.772,550.148,552.772,554.476,558.852,562.852,564.546,566.25" svgx:width="0.5,0.55,0.55,0.28,0.55,0.22,0.55,0.22,0.55,0.55,0.55,0.67,0.33,0.55,0.5,0.22,0.22,0.22,0.55,0.55,0.55,0.33,0.55,0.55,0.55,0.55,0.33,0.55,0.55,0.55,0.22,0.22,0.5,0.55,0.55,0.55,0.55,0.55,0.5,0.5,0.55,0.83,0.55,0.22,0.55,0.28,0.22,0.55,0.55,0.55,0.55,0.28,0.55,0.55,0.22,0.55,0.28,0.22,0.22,0.83,0.22,0.55,0.55,0.5,0.22,0.28,0.33,0.55,0.55,0.55,0.55,0.55,0.55,0.55,0.55,0.5,0.55,0.22,0.55,0.55,0.83,0.55,0.55,0.28,0.55,0.55,0.28,0.55,0.55,0.55,0.55,0.28,0.55,0.22,0.55,0.5,0.55,0.33,0.22,0.55,0.5,0.55,0.22,0.55" style="fill:rgb(0,0,0);font-family:Helvetica;font-size:8.0px;stroke:none;">containing Brazilian red propolis on accumulation of biofilmin vitro and development of dental caries in</text>
   <text y="428.256" x="221.498,225.458,227.162,231.122,235.498,237.738,239.413,244.701,246.405,250.781,252.989,257.365,261.741,263.445,265.149,269.525,273.901,276.141,277.794,282.17,286.546,290.922,295.298,297.538,299.224,303.6,307.976,310.216,311.867,316.243,320.619,324.994,329.37,333.746,338.122,342.498,346.874,351.25" svgx:width="0.5,0.22,0.5,0.55,0.28,0.55,0.67,0.22,0.55,0.28,0.55,0.55,0.22,0.22,0.55,0.55,0.28,0.55,0.55,0.55,0.55,0.55,0.28,0.55,0.55,0.55,0.28,0.55,0.55,0.55,0.55,0.55,0.55,0.55,0.55,0.55,0.55,0.28" style="fill:rgb(0,0,0);font-family:Helvetica;font-size:8.0px;stroke:none;">vivo. Biofouling. 2013; 29: 1233–1242.</text>
   <text y="428.256" x="355.123,359.499,361.707,363.915,368.291,372.251,374.459,376.667,378.875,383.251,387.626,389.33,391.538,395.914,398.436,402.812,405.02,409.396,413.772,415.98,420.356,424.732,428.994,433.37,435.578,439.954,444.33,448.706,453.082,457.458,461.834,466.21,470.586,472.793,477.013,481.389,485.764,490.14,492.348,496.724,501.1,505.476,509.852,514.228" svgx:width="0.55,0.28,0.28,0.55,0.5,0.28,0.28,0.28,0.55,0.55,0.22,0.28,0.55,0.33,0.55,0.28,0.55,0.55,0.28,0.55,0.55,0.55,0.55,0.28,0.55,0.55,0.55,0.55,0.55,0.55,0.55,0.55,0.28,0.55,0.55,0.55,0.55,0.28,0.55,0.55,0.55,0.55,0.55,0.55" style="fill:rgb(58,90,166);font-family:Helvetica;font-size:8.0px;stroke:none;">https://doi.org/10.1080/08927014.2013.834050</text>
   <text y="428.256" x="520.269,525.557,532.181,534.389,540.093" svgx:width="0.67,0.83,0.28,0.72,0.28" style="fill:rgb(0,0,0);font-family:Helvetica;font-size:8.0px;stroke:none;">PMID:</text>
   <text y="437.781" x="221.498,225.874,230.25,234.626,239.002,243.378,247.754,252.13" svgx:width="0.55,0.55,0.55,0.55,0.55,0.55,0.55,0.55" style="fill:rgb(58,90,166);font-family:Helvetica;font-size:8.0px;stroke:none;">24099330</text>
   <text y="450.763" x="200.523,204.899,209.275" svgx:width="0.55,0.55,0.28" style="fill:rgb(0,0,0);font-family:Helvetica-Bold;font-size:8.0px;stroke:none;">16.</text>
   <text y="450.763" x="221.498,226.786,231.162,235.538,239.914,244.29,246.914,252.202,253.813,255.517,259.477,263.87699999999995,265.606,270.894,273.134,274.846,280.134,284.51,290.214,294.59,301.214,305.59,307.798,312.198,313.851,319.555,321.795,323.489,328.777,333.153,337.529,341.905,344.529,349.817,354.193,358.468,362.844,364.548,371.171,375.547,377.755,382.155,383.81,389.098,394.386,396.62600000000003,398.323,403.611,405.315,409.691,414.067,418.027,422.403,425.043,426.726,432.014,438.638,440.878,442.6,448.304,452.68,456.64,461.016,462.72,467.096,471.496,473.157,478.445,482.821,485.06100000000004,486.764,493.388,497.763,501.723,506.099,508.739,510.404,517.028,522.316,527.604,529.844,531.494,536.782,539.406,543.782,547.742,549.446,551.15,552.854,557.23,561.63,563.299,565.923,570.299" svgx:width="0.67,0.55,0.55,0.55,0.55,0.33,0.67,0.22,0.22,0.5,0.55,0.55,0.67,0.28,0.55,0.67,0.55,0.72,0.55,0.83,0.55,0.28,0.55,0.55,0.72,0.28,0.55,0.67,0.55,0.55,0.55,0.33,0.67,0.55,0.55,0.55,0.22,0.83,0.55,0.28,0.55,0.55,0.67,0.67,0.28,0.55,0.67,0.22,0.55,0.55,0.5,0.55,0.33,0.55,0.67,0.83,0.28,0.55,0.72,0.55,0.5,0.55,0.22,0.55,0.55,0.55,0.67,0.55,0.28,0.55,0.83,0.55,0.5,0.55,0.33,0.55,0.83,0.67,0.67,0.28,0.55,0.67,0.33,0.55,0.5,0.22,0.22,0.22,0.55,0.55,0.55,0.33,0.55,0.55" style="fill:rgb(0,0,0);font-family:Helvetica;font-size:8.0px;stroke:none;">Bueno-Silva B, Kawamoto D, Ando-Suguimoto ES, Alencar SM, Rosalen PL, Mayer MPA. Brazilian red</text>
   <text y="460.288" x="221.498,225.874,228.498,232.874,237.25,241.626,243.33,245.034,249.034,250.695,255.071,257.279,259.487,263.863,268.239,272.615,276.991,279.199,283.464,287.464,289.189,290.893,295.269,297.477,299.181,303.557,310.181,316.805,321.181,323.389,327.627,330.251,334.251,335.961,339.921,341.625,346.001,350.377,354.753,356.456,358.16,362.536,366.936,368.616,372.576,376.952,380.912,384.872,389.248,393.624,398.024,399.683,401.387,405.787,407.507,409.211,413.587,417.547,420.171,424.547,428.507,430.715,432.419,436.379,440.755,442.963,447.339,451.739,453.371,459.995,464.371,468.331,470.955,475.331,479.707,484.083,488.351,492.727,497.103,501.063,503.303,504.962,510.25,514.626,519.002,524.362,525.994,532.202,536.578,540.954,543.194,544.873,549.249,553.625,558.001,562.377" svgx:width="0.55,0.33,0.55,0.55,0.55,0.22,0.22,0.5,0.55,0.55,0.28,0.28,0.55,0.55,0.55,0.55,0.28,0.55,0.5,0.55,0.22,0.55,0.28,0.22,0.55,0.83,0.83,0.55,0.28,0.55,0.33,0.5,0.55,0.5,0.22,0.55,0.55,0.55,0.22,0.22,0.55,0.55,0.55,0.5,0.55,0.5,0.5,0.55,0.55,0.55,0.55,0.22,0.55,0.55,0.22,0.55,0.5,0.33,0.55,0.5,0.28,0.22,0.5,0.55,0.28,0.55,0.55,0.55,0.83,0.55,0.5,0.33,0.55,0.55,0.55,0.55,0.55,0.55,0.5,0.28,0.55,0.67,0.55,0.55,0.67,0.55,0.78,0.55,0.55,0.28,0.55,0.55,0.55,0.55,0.55,0.28" style="fill:rgb(0,0,0);font-family:Helvetica;font-size:8.0px;stroke:none;">propolis attenuates inflammatory signaling cascade in lps-activated macrophages. PLoS One. 2015;</text>
   <text y="469.755" x="221.498,225.874,230.25,232.49,234.198,238.574,242.95,247.326,251.702,256.078,260.454,264.83,269.064" svgx:width="0.55,0.55,0.28,0.55,0.55,0.55,0.55,0.55,0.55,0.55,0.55,0.55,0.28" style="fill:rgb(0,0,0);font-family:Helvetica;font-size:8.0px;stroke:none;">10: e0144954.</text>
   <text y="469.755" x="273.032,277.408,279.616,281.824,286.2,290.16,292.368,294.576,296.784,301.16,305.536,307.24,309.447,313.823,316.345,320.721,322.929,327.305,331.681,333.889,338.265,342.641,347.017,351.393,353.479,355.183,359.559,363.935,366.559,370.935,375.311,377.015,379.223,383.599,387.974,392.257,396.633,398.841,403.217,407.593,411.969,416.345,420.721,425.096" svgx:width="0.55,0.28,0.28,0.55,0.5,0.28,0.28,0.28,0.55,0.55,0.22,0.28,0.55,0.33,0.55,0.28,0.55,0.55,0.28,0.55,0.55,0.55,0.55,0.28,0.22,0.55,0.55,0.33,0.55,0.55,0.22,0.28,0.55,0.55,0.55,0.55,0.28,0.55,0.55,0.55,0.55,0.55,0.55,0.55" style="fill:rgb(58,90,166);font-family:Helvetica;font-size:8.0px;stroke:none;">https://doi.org/10.1371/journal.pone.0144954</text>
   <text y="469.755" x="431.148,436.435,443.059,445.267,450.971" svgx:width="0.67,0.83,0.28,0.72,0.28" style="fill:rgb(0,0,0);font-family:Helvetica;font-size:8.0px;stroke:none;">PMID:</text>
   <text y="469.755" x="454.902,459.278,463.654,468.03,472.406,476.782,481.037,485.413" svgx:width="0.55,0.55,0.55,0.55,0.55,0.55,0.55,0.55" style="fill:rgb(58,90,166);font-family:Helvetica;font-size:8.0px;stroke:none;">26660901</text>
   <text y="482.794" x="200.523,204.899,209.275" svgx:width="0.55,0.55,0.28" style="fill:rgb(0,0,0);font-family:Helvetica-Bold;font-size:8.0px;stroke:none;">17.</text>
   <text y="482.794" x="221.498,226.786,231.162,235.538,239.914,244.29,246.914,252.202,253.813,255.517,259.477,263.87699999999995,265.549,270.837,273.077,274.733,280.021,284.397,290.101,294.476,301.1,305.476,307.684,312.084,313.681,319.385,321.625,323.262,328.55,332.926,337.302,341.677,344.301,349.589,353.965,358.241,362.617,364.321,370.945,375.321,377.529,381.929,383.526,388.814,394.102,396.342,397.982,403.686,408.062,412.022,416.398,419.022,420.726,425.126,426.726,432.43,438.134,443.422,445.66200000000003,447.306,452.594,454.298,458.674,463.05,467.009,471.385,474.025,475.652,480.94,487.564,489.80400000000003,491.469,497.173,501.549,505.509,509.885,511.589,515.965,520.365,521.97,527.258,531.633,533.873,535.462,539.838,542.078,543.74,548.116,549.82,552.0600000000001,553.717,559.005,561.629,566.005,569.965,571.669,573.373" svgx:width="0.67,0.55,0.55,0.55,0.55,0.33,0.67,0.22,0.22,0.5,0.55,0.55,0.67,0.28,0.55,0.67,0.55,0.72,0.55,0.83,0.55,0.28,0.55,0.55,0.72,0.28,0.55,0.67,0.55,0.55,0.55,0.33,0.67,0.55,0.55,0.55,0.22,0.83,0.55,0.28,0.55,0.55,0.67,0.67,0.28,0.55,0.72,0.55,0.5,0.55,0.33,0.22,0.55,0.55,0.72,0.72,0.67,0.28,0.55,0.67,0.22,0.55,0.55,0.5,0.55,0.33,0.55,0.67,0.83,0.28,0.55,0.72,0.55,0.5,0.55,0.22,0.55,0.55,0.55,0.67,0.55,0.28,0.55,0.55,0.28,0.55,0.55,0.22,0.28,0.55,0.67,0.33,0.55,0.5,0.22,0.22,0.33" style="fill:rgb(0,0,0);font-family:Helvetica;font-size:8.0px;stroke:none;">Bueno-Silva B, Kawamoto D, Ando-Suguimoto ES, Casarin RCV, Alencar SM, Rosalen PL, et al. Brazil-</text>
   <text y="492.262" x="221.498,223.202,227.578,231.978,233.688,236.312,240.688,245.088,246.783,251.159,253.783,258.159,262.535,266.911,268.615,270.319,274.319,275.98,280.356,282.564,284.772,289.148,293.108,295.316,299.316,300.982,305.358,309.758,311.47,315.846,320.222,322.846,324.55,326.758,331.134,335.51,339.885,344.261,346.021,347.64,354.264,358.64,362.6,365.224,369.6,373.975,378.351,382.619,386.995,391.395,393.107,397.483,401.443,403.651,405.355,409.315,411.019,413.227,417.089,419.329,421.056,425.432,427.136,429.344,431.968,433.672,437.672,439.368,443.744,447.704,449.408,453.784,458.16,460.40000000000003,462.102,466.062,470.438,472.142,473.902,475.538,479.498,481.202,485.578,489.954,491.658,493.362,495.066,497.274,501.234,503.474,505.132,509.508,512.132,516.508,519.132,520.836,525.212,527.42,529.124,533.5,540.124,546.748,551.124,553.208,557.584,560.208" svgx:width="0.22,0.55,0.55,0.55,0.33,0.55,0.55,0.55,0.55,0.33,0.55,0.55,0.55,0.22,0.22,0.5,0.55,0.55,0.28,0.28,0.55,0.5,0.28,0.5,0.55,0.55,0.55,0.55,0.55,0.55,0.33,0.22,0.28,0.55,0.55,0.55,0.55,0.22,0.55,0.83,0.55,0.5,0.33,0.55,0.55,0.55,0.55,0.55,0.55,0.55,0.55,0.5,0.28,0.22,0.5,0.22,0.28,0.5,0.28,0.55,0.55,0.22,0.28,0.33,0.22,0.5,0.55,0.55,0.5,0.22,0.55,0.55,0.28,0.55,0.5,0.55,0.22,0.22,0.55,0.5,0.22,0.55,0.55,0.22,0.22,0.22,0.28,0.5,0.28,0.55,0.55,0.33,0.55,0.33,0.22,0.55,0.28,0.22,0.55,0.83,0.83,0.55,0.28,0.55,0.33,0.5" style="fill:rgb(0,0,0);font-family:Helvetica;font-size:8.0px;stroke:none;">ian red propolis effects on peritoneal macrophage activity: nitric oxide, cell viability, pro-inflammatory</text>
   <text y="501.786" x="221.498,225.458,229.418,231.626,236.002,239.962,241.666,246.042,250.418,254.418,256.024,260.4,264.776,269.176,270.878,275.253,279.629,284.005,288.405,290.096,294.472,298.432,302.808,305.432,309.808,313.768,317.728,319.432,323.808,328.081,330.321,332.05,336.05,337.775,343.063,345.271,349.647,354.023,358.399,362.664,367.04,371.415,374.039,380.663,385.039,388.999,393.375,395.079,397.319,398.946,403.322,407.698,412.074,416.45,418.69,420.376,424.752,429.128,433.504,435.744,437.441,441.817,446.193,450.569,454.945,459.321,463.697,468.073" svgx:width="0.5,0.5,0.28,0.55,0.5,0.22,0.55,0.55,0.5,0.55,0.55,0.55,0.55,0.55,0.55,0.55,0.55,0.55,0.55,0.55,0.5,0.55,0.33,0.55,0.5,0.5,0.22,0.55,0.55,0.28,0.55,0.5,0.55,0.67,0.28,0.55,0.55,0.55,0.55,0.55,0.55,0.33,0.83,0.55,0.5,0.55,0.22,0.28,0.55,0.55,0.55,0.55,0.55,0.28,0.55,0.55,0.55,0.55,0.28,0.55,0.55,0.55,0.55,0.55,0.55,0.55,0.55,0.28" style="fill:rgb(0,0,0);font-family:Helvetica;font-size:8.0px;stroke:none;">cytokines and gene expression. J Ethnopharmacol. 2017; 207: 100–107.</text>
   <text y="501.786" x="471.967,476.343,478.551,480.759,485.135,489.095,491.303,493.396,495.604,499.98,504.356,506.06,508.268,512.644,515.268,519.644,521.852,526.228,530.604,532.812,537.188,541.472,545.848,550.224,552.432,554.136,556.344,558.048,562.424,566.7" svgx:width="0.55,0.28,0.28,0.55,0.5,0.28,0.28,0.28,0.55,0.55,0.22,0.28,0.55,0.33,0.55,0.28,0.55,0.55,0.28,0.55,0.55,0.55,0.55,0.28,0.22,0.28,0.22,0.55,0.55,0.28" style="fill:rgb(58,90,166);font-family:Helvetica;font-size:8.0px;stroke:none;">https://doi.org/10.1016/j.jep.</text>
   <text y="511.254" x="221.498,225.874,230.25,234.626,239.002,241.21,245.586,249.962,252.056,256.432,260.808" svgx:width="0.55,0.55,0.55,0.55,0.28,0.55,0.55,0.28,0.55,0.55,0.55" style="fill:rgb(58,90,166);font-family:Helvetica;font-size:8.0px;stroke:none;">2017.06.015</text>
   <text y="511.254" x="266.91,272.198,278.821,281.029,286.733" svgx:width="0.67,0.83,0.28,0.72,0.28" style="fill:rgb(0,0,0);font-family:Helvetica;font-size:8.0px;stroke:none;">PMID:</text>
   <text y="511.254" x="290.664,295.04,299.416,303.792,308.167,312.543,316.919,321.295" svgx:width="0.55,0.55,0.55,0.55,0.55,0.55,0.55,0.55" style="fill:rgb(58,90,166);font-family:Helvetica;font-size:8.0px;stroke:none;">28624363</text>
   <text y="524.294" x="200.523,204.899,209.275" svgx:width="0.55,0.55,0.28" style="fill:rgb(0,0,0);font-family:Helvetica-Bold;font-size:8.0px;stroke:none;">18.</text>
   <text y="524.294" x="221.498,227.202,231.578,235.538,239.914,244.29,248.666,250.37,254.33,258.73,260.39,266.094,270.47,272.71000000000004,274.393,279.681,284.057,288.433,290.641,295.016,299.016,300.641,304.601,309.889,312.129,313.851,319.139,323.514,325.218,329.618,331.312,337.016,341.392,343.6,348.0,349.681,355.384,357.624,359.318,364.606,368.982,370.686" svgx:width="0.72,0.55,0.5,0.55,0.55,0.55,0.22,0.5,0.55,0.55,0.72,0.55,0.28,0.55,0.67,0.55,0.55,0.28,0.55,0.5,0.55,0.5,0.67,0.28,0.55,0.67,0.55,0.22,0.55,0.55,0.72,0.55,0.28,0.55,0.55,0.72,0.28,0.55,0.67,0.55,0.22,0.5" style="fill:rgb(0,0,0);font-family:Helvetica;font-size:8.0px;stroke:none;">Cavendish RL, Santos JS, Belo Neto R, Paix</text>
   <text y="524.294" x="374.646" svgx:width="0.56" style="fill:rgb(0,0,0);font-family:ArialMT-Identity-H;font-size:8.0px;stroke:none;">ã</text>
   <text y="524.294" x="379.054,383.45399999999995,385.114,390.402,396.61,398.85,400.534,406.741,408.445,410.149,414.109,418.485,420.189,422.813,427.21299999999997,428.88,432.84,438.128,440.368,442.09,447.378,450.002,454.378,458.754,460.458,464.858,466.524,471.812,477.516,479.75600000000003,481.491,485.867,488.107,489.768,494.144,495.848,498.088,499.803,505.091,509.467,511.674,513.378,517.754,522.13,526.09,527.794,531.754,536.13,540.395,542.603,544.307,548.267,552.667,554.398,558.774,563.15" svgx:width="0.55,0.55,0.67,0.78,0.28,0.55,0.78,0.22,0.22,0.5,0.55,0.22,0.33,0.55,0.55,0.5,0.67,0.28,0.55,0.67,0.33,0.55,0.55,0.22,0.55,0.55,0.67,0.72,0.28,0.55,0.55,0.28,0.55,0.55,0.22,0.28,0.55,0.67,0.55,0.28,0.22,0.55,0.55,0.5,0.22,0.5,0.55,0.55,0.28,0.22,0.5,0.55,0.55,0.55,0.55,0.55" style="fill:rgb(0,0,0);font-family:Helvetica;font-size:8.0px;stroke:none;">o AO, Oliveira JV, Araujo ED, et al. Antinociceptive and</text>
   <text y="533.761" x="221.498,225.874,230.25,232.458,234.162,236.786,238.49,242.866,245.074,246.778,251.154,257.668,264.292,268.668,270.876,275.252,277.876,281.876,283.577,287.953,290.16,292.368,296.744,300.704,302.912,306.912,308.522,312.898,315.13800000000003,316.855,322.143,324.767,329.143,333.103,334.807,336.511,338.215,342.591,346.991,348.66,351.284,355.66,360.06,361.756,366.132,368.756,373.132,377.508,381.884,383.588,385.292,389.292,390.953,395.329,399.289,401.497,404.121,408.497,412.457,414.697,416.351,420.727,425.103,429.503,431.204,433.412,437.788,440.412,447.036,451.412,455.788,460.164,464.426,468.802,471.01,472.714,477.114,478.826,480.53,484.92999999999995,486.65,489.274,493.65,498.026,502.402,506.778,508.986,512.946,515.186,516.867,520.867,522.537,527.825,530.033,534.409,538.785,543.161,547.536,551.912,556.288,558.912,565.536,569.912" svgx:width="0.55,0.55,0.28,0.22,0.33,0.22,0.55,0.28,0.22,0.55,0.83,0.83,0.55,0.28,0.55,0.33,0.5,0.55,0.55,0.28,0.28,0.55,0.5,0.28,0.5,0.55,0.55,0.28,0.55,0.67,0.33,0.55,0.5,0.22,0.22,0.22,0.55,0.55,0.55,0.33,0.55,0.55,0.55,0.55,0.33,0.55,0.55,0.55,0.22,0.22,0.5,0.55,0.55,0.5,0.28,0.33,0.55,0.5,0.28,0.55,0.55,0.55,0.55,0.55,0.28,0.55,0.33,0.83,0.55,0.55,0.55,0.55,0.55,0.28,0.22,0.55,0.55,0.22,0.55,0.55,0.33,0.55,0.55,0.55,0.55,0.28,0.5,0.28,0.55,0.5,0.55,0.67,0.28,0.55,0.55,0.55,0.55,0.55,0.55,0.33,0.83,0.55,0.33" style="fill:rgb(0,0,0);font-family:Helvetica;font-size:8.0px;stroke:none;">anti-inflammatory effects of Brazilian red propolis extract and formononetin in rodents. J Ethnopharma-</text>
   <text y="543.286" x="221.498,225.458,229.834,231.538,233.77800000000002,235.502,239.878,244.254,248.63,253.006,255.246,256.875,261.25,265.626,270.002,272.242,273.939,278.315,282.691,287.067,291.443,295.819,300.195,304.571" svgx:width="0.5,0.55,0.22,0.28,0.55,0.55,0.55,0.55,0.55,0.28,0.55,0.55,0.55,0.55,0.28,0.55,0.55,0.55,0.55,0.55,0.55,0.55,0.55,0.28" style="fill:rgb(0,0,0);font-family:Helvetica;font-size:8.0px;stroke:none;">col. 2015; 173: 127–133.</text>
   <text y="543.286" x="308.465,312.841,315.049,317.257,321.633,325.593,327.801,330.009,332.106,336.482,340.857,342.561,344.769,349.145,351.769,356.145,358.353,362.729,367.105,369.313,373.689,377.971,382.347,386.723,388.93,390.634,392.842,394.546,398.922,403.298,405.409,409.785,414.161,418.537,422.913,425.121,429.497,433.873,436.081,440.457,444.833" svgx:width="0.55,0.28,0.28,0.55,0.5,0.28,0.28,0.28,0.55,0.55,0.22,0.28,0.55,0.33,0.55,0.28,0.55,0.55,0.28,0.55,0.55,0.55,0.55,0.28,0.22,0.28,0.22,0.55,0.55,0.28,0.55,0.55,0.55,0.55,0.28,0.55,0.55,0.28,0.55,0.55,0.55" style="fill:rgb(58,90,166);font-family:Helvetica;font-size:8.0px;stroke:none;">https://doi.org/10.1016/j.jep.2015.07.022</text>
   <text y="543.286" x="450.877,456.165,462.789,464.997,470.701" svgx:width="0.67,0.83,0.28,0.72,0.28" style="fill:rgb(0,0,0);font-family:Helvetica;font-size:8.0px;stroke:none;">PMID:</text>
   <text y="543.286" x="474.574,478.95,483.326,487.702,492.078,496.454,500.83,505.206" svgx:width="0.55,0.55,0.55,0.55,0.55,0.55,0.55,0.55" style="fill:rgb(58,90,166);font-family:Helvetica;font-size:8.0px;stroke:none;">26192808</text>
   <text y="556.268" x="200.523,204.899,209.275" svgx:width="0.55,0.55,0.28" style="fill:rgb(0,0,0);font-family:Helvetica-Bold;font-size:8.0px;stroke:none;">19.</text>
   <text y="556.268" x="221.498,227.202,231.578,234.202" svgx:width="0.72,0.55,0.33,0.33" style="fill:rgb(0,0,0);font-family:Helvetica;font-size:8.0px;stroke:none;">Corr</text>
   <text y="556.268" x="236.826" svgx:width="0.56" style="fill:rgb(0,0,0);font-family:ArialMT-Identity-H;font-size:8.0px;stroke:none;">ê</text>
   <text y="556.268" x="241.234,245.63400000000001,247.294,252.166,257.87,263.158,265.398,267.079,272.367,276.327,280.703,285.079,289.455,293.725,298.101,299.861,301.548,306.42,311.708,313.94800000000004,315.665,322.289,326.665,331.041,333.665,338.041,340.665,346.369,350.645,355.021,359.396,363.396,365.101,370.805,373.045,374.739,381.363,385.739,390.114,392.322,396.698,399.322,404.61,406.314,408.414,412.79,415.414,421.118,425.494,429.454,431.662,436.06199999999995,437.724,443.012,445.252,446.965,452.669,457.045,458.749,463.125,467.501,470.125,474.501,478.877,483.277,484.949,488.909,494.197,496.437,498.102,503.39,506.014,510.39,514.35,516.054,517.758,519.462,523.838,528.2379999999999,529.906,532.53,536.906,541.3059999999999,543.059,547.435,550.059,554.435,558.811,563.187,564.891,566.595" svgx:width="0.55,0.55,0.61,0.72,0.67,0.28,0.55,0.67,0.5,0.55,0.55,0.55,0.55,0.55,0.22,0.55,0.61,0.67,0.28,0.55,0.83,0.55,0.55,0.33,0.55,0.33,0.72,0.55,0.55,0.55,0.5,0.55,0.72,0.28,0.55,0.83,0.55,0.55,0.28,0.55,0.33,0.67,0.22,0.28,0.55,0.33,0.72,0.55,0.5,0.28,0.55,0.55,0.67,0.28,0.55,0.72,0.55,0.22,0.55,0.55,0.33,0.55,0.55,0.55,0.55,0.5,0.67,0.28,0.55,0.67,0.33,0.55,0.5,0.22,0.22,0.22,0.55,0.55,0.55,0.33,0.55,0.55,0.55,0.55,0.33,0.55,0.55,0.55,0.22,0.22,0.5" style="fill:rgb(0,0,0);font-family:Helvetica;font-size:8.0px;stroke:none;">a FRS, Schanuel FS, Moura-Nunes N, Monte-Alto-Costa A, Daleprane JB. Brazilian red propolis</text>
   <text y="565.793" x="221.498,223.202,229.826,234.202,236.826,241.202,245.162,249.538,253.538,255.174,259.134,263.51,265.718,270.094,274.47,278.845,283.221,287.489,291.489,293.215,298.919,303.295,307.671,312.047,316.447,318.103,322.479,326.854,331.23,332.934,334.638,339.014,343.414,345.089,349.049,353.425,357.801,362.176,364.8,369.176,373.136,377.096,378.8,383.073,387.47299999999996,389.195,390.899,395.275,397.483,399.187,403.563,410.187,416.811,421.187,423.395,425.099,429.391,433.767,436.391,440.767,444.727,448.687,453.063,457.022,458.726,463.102,465.31,469.529,473.929,475.652,477.86,480.484,484.86,489.236,493.196,497.156,499.779,501.483,505.859,508.067,509.771,514.147,518.547,520.212,522.42,526.796,530.756,532.964,537.34,539.98,541.642,547.346" svgx:width="0.22,0.83,0.55,0.33,0.55,0.5,0.55,0.5,0.55,0.5,0.55,0.28,0.55,0.55,0.55,0.55,0.55,0.5,0.55,0.72,0.55,0.55,0.55,0.55,0.55,0.55,0.55,0.55,0.22,0.22,0.55,0.55,0.55,0.5,0.55,0.55,0.55,0.33,0.55,0.5,0.5,0.22,0.55,0.55,0.55,0.22,0.55,0.28,0.22,0.55,0.83,0.83,0.55,0.28,0.22,0.55,0.55,0.33,0.55,0.5,0.5,0.55,0.5,0.22,0.55,0.28,0.55,0.55,0.55,0.28,0.33,0.55,0.55,0.5,0.5,0.33,0.22,0.55,0.28,0.22,0.55,0.55,0.55,0.28,0.55,0.5,0.28,0.55,0.33,0.55,0.72,0.61" style="fill:rgb(0,0,0);font-family:Helvetica;font-size:8.0px;stroke:none;">improves cutaneous wound healing suppressing inflammation-associated transcription factor NF</text>
   <text y="565.793" x="552.218" svgx:width="0.5" style="fill:rgb(0,0,0);font-family:ArialMT-Identity-H;font-size:8.0px;stroke:none;">κ</text>
   <text y="565.793" x="556.178,561.466" svgx:width="0.67,0.28" style="fill:rgb(0,0,0);font-family:Helvetica;font-size:8.0px;stroke:none;">B.</text>
   <text y="575.26" x="221.498,226.786,228.49,232.866,239.49,243.866,248.26600000000002,249.959,255.247,259.622,263.998,266.622,273.246,277.511,281.471,285.847,288.055,292.431,296.807,299.431,301.671,303.363,307.739,312.115,316.491,320.867,323.107,324.736,329.112,333.488,335.728,337.435,341.811,346.187,350.563,354.939,359.315,363.691,368.067" svgx:width="0.67,0.22,0.55,0.83,0.55,0.55,0.55,0.67,0.55,0.55,0.33,0.83,0.55,0.5,0.55,0.28,0.55,0.55,0.33,0.28,0.55,0.55,0.55,0.55,0.55,0.28,0.55,0.55,0.55,0.28,0.55,0.55,0.55,0.55,0.55,0.55,0.55,0.55,0.28" style="fill:rgb(0,0,0);font-family:Helvetica;font-size:8.0px;stroke:none;">Biomed Pharmacother. 2017; 86: 162–171.</text>
   <text y="575.26" x="371.961,376.337,378.545,380.753,385.129,389.089,391.297,393.505,395.713,400.089,404.333,406.037,408.245,412.621,415.245,419.62,421.828,426.204,430.58,432.788,437.164,441.54,445.916,450.197,452.405,454.109,456.317,460.693,462.397,466.773,471.149,475.525,479.901,482.001,486.377,490.753,495.129,499.505,501.713,506.089,510.465,512.673,517.049,521.425" svgx:width="0.55,0.28,0.28,0.55,0.5,0.28,0.28,0.28,0.55,0.55,0.22,0.28,0.55,0.33,0.55,0.28,0.55,0.55,0.28,0.55,0.55,0.55,0.55,0.28,0.22,0.28,0.55,0.22,0.55,0.55,0.55,0.55,0.28,0.55,0.55,0.55,0.55,0.28,0.55,0.55,0.28,0.55,0.55,0.55" style="fill:rgb(58,90,166);font-family:Helvetica;font-size:8.0px;stroke:none;">https://doi.org/10.1016/j.biopha.2016.12.018</text>
   <text y="575.26" x="527.469,532.757,539.381,541.589,547.292" svgx:width="0.67,0.83,0.28,0.72,0.28" style="fill:rgb(0,0,0);font-family:Helvetica;font-size:8.0px;stroke:none;">PMID:</text>
   <text y="584.784" x="221.498,225.874,230.25,234.626,239.002,243.378,247.754,252.13" svgx:width="0.55,0.55,0.55,0.55,0.55,0.55,0.55,0.55" style="fill:rgb(58,90,166);font-family:Helvetica;font-size:8.0px;stroke:none;">27978495</text>
   <text y="597.767" x="200.523,204.899,209.275" svgx:width="0.55,0.55,0.28" style="fill:rgb(0,0,0);font-family:Helvetica-Bold;font-size:8.0px;stroke:none;">20.</text>
   <text y="597.767" x="221.498,226.786,228.49,232.866,237.242,241.202,243.826,249.114,251.738,256.024,259.984,264.36,268.736,272.696,274.4,278.79999999999995,280.459,285.747,287.987,289.7,295.404,297.108,301.484,305.484,307.161,313.369,315.60900000000004,317.309,323.013,327.389,331.349,335.309,339.685,344.085,345.769,350.145,352.385,354.103,360.311,364.687,366.391,370.767,372.975,377.351,379.975,384.375,386.021,389.981,392.221,393.958,399.246,400.949,405.325,409.701,413.701,415.331,420.619,422.85900000000004,424.572,430.276,434.651,439.027,440.731,445.107,449.067,451.691,456.563,460.939,465.22,469.596,473.972,478.37199999999996,480.073,485.777,488.017,489.712,494.088,496.32800000000003,498.045,502.421,504.125,506.365,508.08,513.368,517.744,522.12,526.496,529.12,533.496,537.896,539.545,543.921,546.544,550.92,555.296,559.672,561.376,563.08" svgx:width="0.67,0.22,0.55,0.55,0.5,0.33,0.67,0.33,0.55,0.5,0.55,0.55,0.5,0.22,0.55,0.55,0.67,0.28,0.55,0.72,0.22,0.55,0.5,0.55,0.78,0.28,0.55,0.72,0.55,0.5,0.5,0.55,0.55,0.55,0.55,0.28,0.55,0.78,0.55,0.22,0.55,0.28,0.55,0.33,0.55,0.55,0.5,0.28,0.55,0.67,0.22,0.55,0.55,0.5,0.55,0.67,0.28,0.55,0.72,0.55,0.55,0.22,0.55,0.5,0.33,0.61,0.55,0.55,0.55,0.55,0.55,0.55,0.72,0.28,0.55,0.55,0.28,0.55,0.55,0.22,0.28,0.55,0.67,0.55,0.55,0.55,0.33,0.55,0.55,0.55,0.55,0.33,0.55,0.55,0.55,0.22,0.22,0.5" style="fill:rgb(0,0,0);font-family:Helvetica;font-size:8.0px;stroke:none;">Alday-Provencio S, Diaz G, Rascon L, Quintero J, Alday E, Robles-Zepeda R, et al. Sonoran propolis</text>
   <text y="607.291" x="221.498,225.874,230.25,234.65,236.352,240.312,244.688,251.312,255.71200000000002,257.385,261.761,264.00100000000003,265.718,267.422,269.63,273.63,275.3,279.26,283.636,288.012,294.636,296.34,300.3,304.675,306.435,308.068,312.028,316.404,320.78,324.74,326.948,328.652,330.86,335.236,339.612,343.988,346.196,350.196,351.835,353.539,357.915,362.291,363.995,368.371,370.075,372.315,374.002,375.706,380.106,381.825,385.785,387.489,389.697,392.321,396.721,398.38,402.756,405.38,409.756,415.46,417.668,422.068,423.778,428.154" svgx:width="0.55,0.55,0.55,0.55,0.5,0.55,0.83,0.55,0.55,0.55,0.28,0.55,0.22,0.28,0.5,0.55,0.5,0.55,0.55,0.83,0.22,0.5,0.55,0.22,0.55,0.5,0.55,0.55,0.5,0.28,0.22,0.28,0.55,0.55,0.55,0.28,0.5,0.55,0.22,0.55,0.55,0.22,0.55,0.22,0.28,0.55,0.22,0.55,0.55,0.5,0.22,0.28,0.33,0.55,0.55,0.55,0.33,0.55,0.72,0.28,0.55,0.55,0.55,0.28" style="fill:rgb(0,0,0);font-family:Helvetica;font-size:8.0px;stroke:none;">and some of its chemical constituents inhibit in vitro growth of</text>
   <text y="607.291" x="432.112,438.319,440.023,444.399,447.023,451.399,453.103,457.503,459.154,460.858,465.234,471.858,476.234,477.938,479.642" svgx:width="0.78,0.22,0.55,0.33,0.55,0.22,0.55,0.55,0.22,0.55,0.83,0.55,0.22,0.22,0.55" style="fill:rgb(0,0,0);font-family:Helvetica-Oblique;font-size:8.0px;stroke:none;">Giardia lamblia</text>
   <text y="607.291" x="485.743,487.951,490.575,494.951,499.327,503.703,507.967,511.927,516.302,518.006,520.214,524.59,528.55,530.79,532.457,537.745,539.449,543.825,548.201,550.409,554.809,556.496,563.119,567.495,571.871" svgx:width="0.28,0.33,0.55,0.55,0.55,0.55,0.5,0.55,0.22,0.28,0.55,0.5,0.28,0.55,0.67,0.22,0.55,0.55,0.28,0.55,0.55,0.83,0.55,0.55,0.28" style="fill:rgb(0,0,0);font-family:Helvetica;font-size:8.0px;stroke:none;">trophozoites. Planta Med.</text>
   <text y="616.759" x="221.498,225.874,230.25,234.626,239.002,241.24200000000002,242.928,247.304,251.68,253.92000000000002,255.627,260.003,264.379,268.755,273.131,277.507,281.763,286.139" svgx:width="0.55,0.55,0.55,0.55,0.28,0.55,0.55,0.55,0.28,0.55,0.55,0.55,0.55,0.55,0.55,0.55,0.55,0.28" style="fill:rgb(0,0,0);font-family:Helvetica;font-size:8.0px;stroke:none;">2015; 81: 742–747.</text>
   <text y="616.759" x="290.096,294.472,296.68,298.888,303.264,307.224,309.432,311.64,313.848,318.224,322.6,324.304,326.512,330.888,333.41,337.786,339.993,344.369,348.745,350.953,355.329,359.705,363.967,368.343,370.551,374.511,377.135,381.511,385.887,390.262,394.638,397.262,401.638,406.014,410.285,414.661,419.037,423.413" svgx:width="0.55,0.28,0.28,0.55,0.5,0.28,0.28,0.28,0.55,0.55,0.22,0.28,0.55,0.33,0.55,0.28,0.55,0.55,0.28,0.55,0.55,0.55,0.55,0.28,0.5,0.33,0.55,0.55,0.55,0.55,0.33,0.55,0.55,0.55,0.55,0.55,0.55,0.55" style="fill:rgb(58,90,166);font-family:Helvetica;font-size:8.0px;stroke:none;">https://doi.org/10.1055/s-0035-1545982</text>
   <text y="616.759" x="429.504,434.792,441.415,443.623,449.327" svgx:width="0.67,0.83,0.28,0.72,0.28" style="fill:rgb(0,0,0);font-family:Helvetica;font-size:8.0px;stroke:none;">PMID:</text>
   <text y="616.759" x="453.202,457.578,461.954,466.33,470.705,475.081,479.457,483.833" svgx:width="0.55,0.55,0.55,0.55,0.55,0.55,0.55,0.55" style="fill:rgb(58,90,166);font-family:Helvetica;font-size:8.0px;stroke:none;">26008200</text>
   <text y="629.798" x="200.523,204.899,209.275" svgx:width="0.55,0.55,0.28" style="fill:rgb(0,0,0);font-family:Helvetica-Bold;font-size:8.0px;stroke:none;">21.</text>
   <text y="629.798" x="221.498,226.37,228.994,233.37,235.074,237.282,241.658,245.658,247.294,252.582,257.454,259.694,261.41,266.698,271.074,272.778,277.154,281.53,285.906,290.282,292.906,297.306,298.94,303.316,305.556,307.275,312.563,314.771,319.147,321.771,325.73,327.434,331.834,333.523,337.483,344.107,346.34700000000004,348.037,354.244,358.62,360.324,366.948,371.324" svgx:width="0.61,0.33,0.55,0.22,0.28,0.55,0.5,0.55,0.67,0.61,0.28,0.55,0.67,0.55,0.22,0.55,0.55,0.55,0.55,0.33,0.55,0.55,0.55,0.28,0.55,0.67,0.28,0.55,0.33,0.5,0.22,0.55,0.55,0.5,0.83,0.28,0.55,0.78,0.55,0.22,0.83,0.55,0.33" style="fill:rgb(0,0,0);font-family:Helvetica;font-size:8.0px;stroke:none;">Freitas SF, Shinohara L, Sforcin JM, Guimar</text>
   <text y="629.798" x="373.948" svgx:width="0.56" style="fill:rgb(0,0,0);font-family:ArialMT-Identity-H;font-size:8.0px;stroke:none;">ã</text>
   <text y="629.798" x="378.356,382.732,386.732,388.288,393.576,395.81600000000003,397.53,399.738,404.138,405.863,409.823,411.527,413.735,416.359,420.75899999999996,422.474,426.85,429.058,431.266,435.642,439.602,441.81,445.81,447.475,451.851,454.091,455.81,460.186,462.81,467.185,471.561,475.937,477.641,479.345,483.345,484.949,489.325" svgx:width="0.55,0.5,0.55,0.67,0.28,0.55,0.28,0.55,0.55,0.5,0.22,0.28,0.33,0.55,0.55,0.55,0.28,0.28,0.55,0.5,0.28,0.5,0.55,0.55,0.28,0.55,0.55,0.33,0.55,0.55,0.55,0.22,0.22,0.5,0.55,0.55,0.55" style="fill:rgb(0,0,0);font-family:Helvetica;font-size:8.0px;stroke:none;">es S. In vitro effects of propolis on</text>
   <text y="629.798" x="495.437,501.645,503.349,507.725,510.349,514.725,516.429,520.829,522.537,526.913,531.289,535.665,540.041,544.417,548.672,553.048,554.752,556.456" svgx:width="0.78,0.22,0.55,0.33,0.55,0.22,0.55,0.55,0.55,0.55,0.55,0.55,0.55,0.55,0.55,0.22,0.22,0.5" style="fill:rgb(0,0,0);font-family:Helvetica-Oblique;font-size:8.0px;stroke:none;">Giardia duodenalis</text>
   <text y="629.798" x="562.164,564.372,566.996,571.372" svgx:width="0.28,0.33,0.55,0.33" style="fill:rgb(0,0,0);font-family:Helvetica;font-size:8.0px;stroke:none;">tro-</text>
   <text y="639.266" x="221.498,225.874,230.25,234.626,238.586,242.962,244.666,246.874,251.25,255.21,257.45,259.086,264.374,268.75,272.71,274.917,279.293,285.917,290.293,294.669,296.276,300.236,301.94,306.316,310.692,312.932,314.588,318.964,323.34,327.716,332.092,334.332,336.018,340.393,344.769,347.009,348.717,353.093,357.468,361.844,366.22,370.596,374.972,379.348" svgx:width="0.55,0.55,0.55,0.5,0.55,0.22,0.28,0.55,0.5,0.28,0.55,0.67,0.55,0.5,0.28,0.55,0.83,0.55,0.55,0.22,0.5,0.22,0.55,0.55,0.28,0.55,0.55,0.55,0.55,0.55,0.28,0.55,0.55,0.55,0.28,0.55,0.55,0.55,0.55,0.55,0.55,0.55,0.55,0.28" style="fill:rgb(0,0,0);font-family:Helvetica;font-size:8.0px;stroke:none;">phozoites. Phytomedicine. 2006; 13: 170–175.</text>
   <text y="639.266" x="383.186,387.562,389.77,391.978,396.354,400.314,402.521,404.729,406.937,411.313,415.689,417.393,419.601,423.977,426.499,430.875,433.083,437.459,441.835,444.043,448.419,452.794,457.17,461.546,463.633,465.337,467.545,471.921,476.297,480.257,486.88,491.256,495.632,497.84,502.216,506.492,510.868,515.244,517.452,521.828,526.204,528.412,532.788,537.164" svgx:width="0.55,0.28,0.28,0.55,0.5,0.28,0.28,0.28,0.55,0.55,0.22,0.28,0.55,0.33,0.55,0.28,0.55,0.55,0.28,0.55,0.55,0.55,0.55,0.28,0.22,0.28,0.55,0.55,0.5,0.83,0.55,0.55,0.28,0.55,0.55,0.55,0.55,0.28,0.55,0.55,0.28,0.55,0.55,0.55" style="fill:rgb(58,90,166);font-family:Helvetica;font-size:8.0px;stroke:none;">https://doi.org/10.1016/j.phymed.2004.07.008</text>
   <text y="639.266" x="543.229,548.517,555.141,557.349,563.053" svgx:width="0.67,0.83,0.28,0.72,0.28" style="fill:rgb(0,0,0);font-family:Helvetica;font-size:8.0px;stroke:none;">PMID:</text>
   <text y="648.791" x="221.498,225.874,230.25,234.626,239.002,243.378,247.754,252.13" svgx:width="0.55,0.55,0.55,0.55,0.55,0.55,0.55,0.55" style="fill:rgb(58,90,166);font-family:Helvetica;font-size:8.0px;stroke:none;">16428024</text>
   <text y="661.773" x="200.523,204.899,209.275" svgx:width="0.55,0.55,0.28" style="fill:rgb(0,0,0);font-family:Helvetica-Bold;font-size:8.0px;stroke:none;">22.</text>
   <text y="661.773" x="221.498,226.786,228.994,233.37,235.994,239.954,243.914,247.914,249.561,253.521,255.761,257.499,262.786,266.746,271.122,275.498,277.202,278.906,283.18,285.82,287.545,292.833,295.07300000000004,296.786,302.074,306.034,310.41,312.618,314.322,318.698,321.322,325.282,329.242,331.002,332.616,336.576,338.81600000000003,340.553,347.177,351.553,355.513,359.473,365.177,369.577,371.224,377.847,380.087,381.825,387.113,389.321,393.697,395.401,399.361,403.76099999999997,405.409,410.697,412.937,414.65,419.938,421.642,426.018,427.722,432.098,436.474,438.178,442.138,446.514,448.274,449.913,454.289,456.913,461.289,465.665,470.041,472.665,474.873,476.577,480.953,484.953,486.593,490.969,495.345,499.745,501.447,505.407,507.111,508.815,513.191,514.895,518.854,523.23,524.99,526.618,530.994,535.37,539.746,541.45,543.154,547.114,551.49,553.698,555.402,559.67,564.0699999999999,565.793,570.169" svgx:width="0.67,0.28,0.55,0.33,0.5,0.5,0.5,0.55,0.5,0.28,0.55,0.67,0.5,0.55,0.55,0.22,0.22,0.55,0.33,0.55,0.67,0.28,0.55,0.67,0.5,0.55,0.28,0.22,0.55,0.33,0.5,0.5,0.22,0.55,0.5,0.28,0.55,0.83,0.55,0.5,0.5,0.72,0.55,0.55,0.83,0.28,0.55,0.67,0.28,0.55,0.22,0.5,0.55,0.55,0.67,0.28,0.55,0.67,0.22,0.55,0.22,0.55,0.55,0.22,0.5,0.55,0.22,0.55,0.55,0.33,0.55,0.55,0.55,0.33,0.28,0.22,0.55,0.5,0.55,0.55,0.55,0.55,0.55,0.5,0.22,0.22,0.55,0.22,0.5,0.55,0.22,0.55,0.55,0.55,0.55,0.22,0.22,0.5,0.55,0.28,0.22,0.55,0.55,0.55,0.55,0.28" style="fill:rgb(0,0,0);font-family:Helvetica;font-size:8.0px;stroke:none;">Starzyk J, Scheller S, Szaflarski J, Moskwa M, Stojko A. Biological properties and clinical application of</text>
   <text y="671.298" x="221.498,225.874,228.498,232.874,237.25,241.626,243.33,245.034,248.994,251.234,252.907,255.115,257.323,259.563,261.24,266.528,268.736,273.112,277.488,279.192,283.568,287.568,289.246,293.622,298.022,299.734,301.942,306.318,310.71799999999996,312.434,316.81,321.186,323.394,325.098,329.474,332.098,336.358,338.565,342.941,346.901,351.277,355.653,360.053,361.756,366.132,370.092,372.3,374.004,377.964,379.668,381.876,385.876,387.551,391.927,394.16700000000003,395.829,400.205,402.413,406.789,411.165,415.541,419.917,421.67699999999996,423.324,427.7,431.66,433.868,436.492,440.868,444.828,447.068,448.723,453.099,455.339,457.057,461.433,464.057,468.433,472.809,477.185,478.889,480.593,484.552,486.79200000000003,488.464,493.752,496.376,500.336,504.712,509.088,510.792,517.416,519.022,521.23,523.438,527.814,529.518,531.726,536.102,538.725,542.685,546.645,551.021,555.397,559.67,564.046" svgx:width="0.55,0.33,0.55,0.55,0.55,0.22,0.22,0.5,0.28,0.55,0.28,0.28,0.28,0.55,0.67,0.28,0.55,0.55,0.22,0.55,0.5,0.55,0.55,0.55,0.55,0.28,0.55,0.55,0.55,0.55,0.55,0.28,0.22,0.55,0.33,0.55,0.28,0.55,0.5,0.55,0.55,0.55,0.55,0.55,0.5,0.28,0.22,0.5,0.22,0.28,0.5,0.55,0.55,0.28,0.55,0.55,0.28,0.55,0.55,0.55,0.55,0.22,0.55,0.55,0.5,0.28,0.33,0.55,0.5,0.28,0.55,0.55,0.28,0.55,0.55,0.33,0.55,0.55,0.55,0.22,0.22,0.5,0.28,0.55,0.67,0.33,0.5,0.55,0.55,0.22,0.83,0.22,0.28,0.28,0.55,0.22,0.28,0.55,0.33,0.5,0.5,0.55,0.55,0.55,0.55,0.28" style="fill:rgb(0,0,0);font-family:Helvetica;font-size:8.0px;stroke:none;">propolis. II. Studies on the antiprotozoan activity of ethanol extract of propolis. Arzneimittelforschung.</text>
   <text y="680.766" x="221.498,225.874,230.25,234.626,239.002,241.24200000000002,242.928,247.304,251.68,253.92000000000002,255.627,260.003,264.379,268.755,273.131,277.507,281.763,284.003,285.731,291.019,297.643,299.851,305.555" svgx:width="0.55,0.55,0.55,0.55,0.28,0.55,0.55,0.55,0.28,0.55,0.55,0.55,0.55,0.55,0.55,0.55,0.28,0.55,0.67,0.83,0.28,0.72,0.28" style="fill:rgb(0,0,0);font-family:Helvetica;font-size:8.0px;stroke:none;">1977; 27: 1198–9. PMID:</text>
   <text y="680.766" x="309.486,313.862,318.238,322.614,326.99,331.366" svgx:width="0.55,0.55,0.55,0.55,0.55,0.55" style="fill:rgb(58,90,166);font-family:Helvetica;font-size:8.0px;stroke:none;">302709</text>
  </g>
  <path style="fill:rgb(0,0,0);stroke:none;stroke-width:1.0;" d="M576.000 54.900 L36.000 54.900 L36.000 54.400 L576.000 54.400 "/>
  <rect style="stroke:blue;stroke-width:0.3;" x="36.0" y="35.043" height="23.64" width="107.093" title="13"/>
  <text y="35.043" class="image" id="image.13.1" width="107" height="23" x="36.0">image.13.1.36_143.35_59</text>
  <g begin="text">
   <text y="46.205" x="258.746,264.45,268.826,273.202,279.826,281.53,285.49,289.866,291.626,293.272,297.232,301.607,308.231,312.607,316.983,320.943,322.647,324.855,326.559,330.935,335.335,336.982,341.358,345.734,350.13399999999996,351.836,356.212,357.916,362.292,363.995,368.371,372.642,374.346,378.306,382.682,384.442,386.134,390.51,393.134,397.51,401.886,406.262,408.886,411.094,412.798,417.174,421.174,422.815,427.191,429.431,431.148,433.356,437.732,442.132,443.847,448.223,452.183,456.143,460.519,464.895,467.103,468.807,473.183,474.943,476.559,480.935,482.639,484.399,486.084,488.292,490.915,495.291,503.602,508.89,511.514,515.89,519.849,521.553,523.258,524.961,529.337,533.737,535.406,538.03,542.406,546.8059999999999,548.559,552.935,555.559,559.935,564.311,568.687,570.391,572.094" svgx:width="0.72,0.55,0.55,0.83,0.22,0.5,0.55,0.22,0.55,0.5,0.55,0.83,0.55,0.55,0.5,0.22,0.28,0.22,0.55,0.55,0.55,0.55,0.55,0.55,0.55,0.55,0.22,0.55,0.22,0.55,0.55,0.22,0.5,0.55,0.22,0.55,0.55,0.33,0.55,0.55,0.55,0.33,0.28,0.22,0.55,0.5,0.55,0.55,0.28,0.55,0.28,0.55,0.55,0.55,0.55,0.5,0.5,0.55,0.55,0.28,0.22,0.55,0.22,0.55,0.55,0.22,0.22,0.55,0.28,0.33,0.55,0.83,0.67,0.33,0.55,0.5,0.22,0.22,0.22,0.55,0.55,0.55,0.33,0.55,0.55,0.55,0.55,0.33,0.55,0.55,0.55,0.22,0.22,0.5" style="fill:rgb(0,0,0);font-family:Helvetica;font-size:8.0px;stroke:none;">Chemical composition and biological properties of the essential oil fromBrazilian red propolis</text>
  </g>
  <path style="fill:rgb(0,0,0);stroke:none;stroke-width:1.0;" d="M36.000 744.000 L576.000 744.000 L576.000 744.500 L36.000 744.500 "/>
  <path style="fill:rgb(58,90,166);stroke:none;stroke-width:1.0;" d="M81.580 757.080 L237.880 757.080 Z"/>
  <g begin="text">
   <text y="756.0" x="36.0,41.288,45.664,51.872,57.232,58.847,65.055,70.759,76.119,77.782" svgx:width="0.67,0.55,0.78,0.67,0.55,0.78,0.72,0.67,0.55,0.26" style="fill:rgb(0,0,0);font-family:Helvetica;font-size:8.0px;stroke:none;">PLOS ONE |</text>
   <text y="756.0" x="81.58,85.956,88.164,90.372,94.748,98.708,100.916,103.124,105.332,109.708,114.084,115.788,117.996,122.372,124.893,129.269,131.477,135.853,140.229,142.437,146.813,151.189,155.451,159.827,162.035,163.739,168.115,172.491,175.115,179.491,183.867,185.571,187.779,192.155,196.44,200.816,205.191,207.399,211.775,216.151,220.527,224.903,229.151,233.527" svgx:width="0.55,0.28,0.28,0.55,0.5,0.28,0.28,0.28,0.55,0.55,0.22,0.28,0.55,0.33,0.55,0.28,0.55,0.55,0.28,0.55,0.55,0.55,0.55,0.28,0.22,0.55,0.55,0.33,0.55,0.55,0.22,0.28,0.55,0.55,0.55,0.55,0.28,0.55,0.55,0.55,0.55,0.55,0.55,0.55" style="fill:rgb(58,90,166);font-family:Helvetica;font-size:8.0px;stroke:none;">https://doi.org/10.1371/journal.pone.0191797</text>
   <text y="756.0" x="245.876,250.748,255.124,259.5,262.124,266.5,270.875,273.499,277.499,279.155,283.531,285.771,287.488,291.864,296.24,300.616,305.01599999999996,552.81,557.185,561.5849999999999,563.241" svgx:width="0.61,0.55,0.55,0.33,0.55,0.55,0.33,0.5,0.55,0.55,0.28,0.55,0.55,0.55,0.55,0.55,0.55,0.55,0.55,0.55,0.28" style="fill:rgb(0,0,0);font-family:Helvetica;font-size:8.0px;stroke:none;">February 1, 2018 13 /</text>
  </g>
  <g begin="text">
   <text y="756.0" x="567.209,571.585" svgx:width="0.55,0.55" style="fill:rgb(0,0,0);font-family:Helvetica;font-size:8.0px;stroke:none;">16</text>
  </g>
 </g>
</svg>
