<?xml version="1.0" encoding="UTF-8"?>
<svg height="762.55" width="564.64" xmlns="http://www.w3.org/2000/svg">
 <g>
  <line points="40.64 752.55 554.64 752.55" style="fill:none;stroke:rgb(0,0,0);stroke-width:1.0;" signature="ML" x1="40.64" y1="752.55" x2="554.64" y2="752.55" id="line1"/>
  <line points="159.13 366.75 552.64 366.75" style="fill:none;stroke:rgb(131,144,151);stroke-width:0.3;" signature="ML" x1="159.13" y1="366.75" x2="552.64" y2="366.75" id="line2"/>
  <line points="155.64 46.62 192.12 46.62" style="fill:none;stroke:rgb(0,0,0);stroke-width:1.0;" signature="ML" x1="155.64" y1="46.62" x2="192.12" y2="46.62" id="line3"/>
  <line points="155.76 58.12 155.76 46.75" style="fill:none;stroke:rgb(0,0,0);stroke-width:0.25;" signature="ML" x1="155.76" y1="58.12" x2="155.76" y2="46.75" id="line4"/>
  <line points="155.64 58.25 192.12 58.25" style="fill:none;stroke:rgb(0,0,0);stroke-width:0.25;" signature="ML" x1="155.64" y1="58.25" x2="192.12" y2="58.25" id="line5"/>
  <line points="192.12 46.62 269.12 46.62" style="fill:none;stroke:rgb(0,0,0);stroke-width:0.25;" signature="ML" x1="192.12" y1="46.62" x2="269.12" y2="46.62" id="line6"/>
  <line points="192.12 58.12 192.12 46.75" style="fill:none;stroke:rgb(0,0,0);stroke-width:0.25;" signature="ML" x1="192.12" y1="58.12" x2="192.12" y2="46.75" id="line7"/>
  <line points="192.12 58.25 269.12 58.25" style="fill:none;stroke:rgb(0,0,0);stroke-width:0.25;" signature="ML" x1="192.12" y1="58.25" x2="269.12" y2="58.25" id="line8"/>
  <line points="269.12 46.62 355.12 46.62" style="fill:none;stroke:rgb(0,0,0);stroke-width:0.25;" signature="ML" x1="269.12" y1="46.62" x2="355.12" y2="46.62" id="line9"/>
  <line points="269.12 58.12 269.12 46.75" style="fill:none;stroke:rgb(0,0,0);stroke-width:0.25;" signature="ML" x1="269.12" y1="58.12" x2="269.12" y2="46.75" id="line10"/>
  <line points="269.12 58.25 355.12 58.25" style="fill:none;stroke:rgb(0,0,0);stroke-width:0.25;" signature="ML" x1="269.12" y1="58.25" x2="355.12" y2="58.25" id="line11"/>
  <line points="355.12 46.62 447.12 46.62" style="fill:none;stroke:rgb(0,0,0);stroke-width:0.25;" signature="ML" x1="355.12" y1="46.62" x2="447.12" y2="46.62" id="line12"/>
  <line points="355.12 58.12 355.12 46.75" style="fill:none;stroke:rgb(0,0,0);stroke-width:0.25;" signature="ML" x1="355.12" y1="58.12" x2="355.12" y2="46.75" id="line13"/>
  <line points="355.12 58.25 447.12 58.25" style="fill:none;stroke:rgb(0,0,0);stroke-width:0.25;" signature="ML" x1="355.12" y1="58.25" x2="447.12" y2="58.25" id="line14"/>
  <line points="447.12 46.62 554.24 46.62" style="fill:none;stroke:rgb(0,0,0);stroke-width:0.25;" signature="ML" x1="447.12" y1="46.62" x2="554.24" y2="46.62" id="line15"/>
  <line points="447.12 58.12 447.12 46.75" style="fill:none;stroke:rgb(0,0,0);stroke-width:0.25;" signature="ML" x1="447.12" y1="58.12" x2="447.12" y2="46.75" id="line16"/>
  <line points="554.12 58.12 554.12 46.75" style="fill:none;stroke:rgb(0,0,0);stroke-width:0.25;" signature="ML" x1="554.12" y1="58.12" x2="554.12" y2="46.75" id="line17"/>
  <line points="447.12 58.25 554.24 58.25" style="fill:none;stroke:rgb(0,0,0);stroke-width:0.25;" signature="ML" x1="447.12" y1="58.25" x2="554.24" y2="58.25" id="line18"/>
  <line points="155.76 77.25 155.76 58.37" style="fill:none;stroke:rgb(0,0,0);stroke-width:0.25;" signature="ML" x1="155.76" y1="77.25" x2="155.76" y2="58.37" id="line19"/>
  <line points="192.12 77.25 192.12 58.37" style="fill:none;stroke:rgb(0,0,0);stroke-width:0.25;" signature="ML" x1="192.12" y1="77.25" x2="192.12" y2="58.37" id="line20"/>
  <line points="269.12 77.25 269.12 58.37" style="fill:none;stroke:rgb(0,0,0);stroke-width:0.25;" signature="ML" x1="269.12" y1="77.25" x2="269.12" y2="58.37" id="line21"/>
  <line points="355.12 77.25 355.12 58.37" style="fill:none;stroke:rgb(0,0,0);stroke-width:0.25;" signature="ML" x1="355.12" y1="77.25" x2="355.12" y2="58.37" id="line22"/>
  <line points="447.12 77.25 447.12 58.37" style="fill:none;stroke:rgb(0,0,0);stroke-width:0.25;" signature="ML" x1="447.12" y1="77.25" x2="447.12" y2="58.37" id="line23"/>
  <line points="554.12 77.25 554.12 58.37" style="fill:none;stroke:rgb(0,0,0);stroke-width:0.25;" signature="ML" x1="554.12" y1="77.25" x2="554.12" y2="58.37" id="line24"/>
  <line points="155.64 77.37 192.12 77.37" style="fill:none;stroke:rgb(0,0,0);stroke-width:0.25;" signature="ML" x1="155.64" y1="77.37" x2="192.12" y2="77.37" id="line25"/>
  <line points="155.76 88.87 155.76 77.5" style="fill:none;stroke:rgb(0,0,0);stroke-width:0.25;" signature="ML" x1="155.76" y1="88.87" x2="155.76" y2="77.5" id="line26"/>
  <line points="192.12 77.37 269.12 77.37" style="fill:none;stroke:rgb(0,0,0);stroke-width:0.25;" signature="ML" x1="192.12" y1="77.37" x2="269.12" y2="77.37" id="line27"/>
  <line points="192.12 88.87 192.12 77.5" style="fill:none;stroke:rgb(0,0,0);stroke-width:0.25;" signature="ML" x1="192.12" y1="88.87" x2="192.12" y2="77.5" id="line28"/>
  <line points="269.12 77.37 355.12 77.37" style="fill:none;stroke:rgb(0,0,0);stroke-width:0.25;" signature="ML" x1="269.12" y1="77.37" x2="355.12" y2="77.37" id="line29"/>
  <line points="269.12 88.87 269.12 77.5" style="fill:none;stroke:rgb(0,0,0);stroke-width:0.25;" signature="ML" x1="269.12" y1="88.87" x2="269.12" y2="77.5" id="line30"/>
  <line points="355.12 77.37 447.12 77.37" style="fill:none;stroke:rgb(0,0,0);stroke-width:0.25;" signature="ML" x1="355.12" y1="77.37" x2="447.12" y2="77.37" id="line31"/>
  <line points="355.12 88.87 355.12 77.5" style="fill:none;stroke:rgb(0,0,0);stroke-width:0.25;" signature="ML" x1="355.12" y1="88.87" x2="355.12" y2="77.5" id="line32"/>
  <line points="447.12 77.37 554.24 77.37" style="fill:none;stroke:rgb(0,0,0);stroke-width:0.25;" signature="ML" x1="447.12" y1="77.37" x2="554.24" y2="77.37" id="line33"/>
  <line points="447.12 88.87 447.12 77.5" style="fill:none;stroke:rgb(0,0,0);stroke-width:0.25;" signature="ML" x1="447.12" y1="88.87" x2="447.12" y2="77.5" id="line34"/>
  <line points="554.12 88.87 554.12 77.5" style="fill:none;stroke:rgb(0,0,0);stroke-width:0.25;" signature="ML" x1="554.12" y1="88.87" x2="554.12" y2="77.5" id="line35"/>
  <line points="155.64 89.0 192.12 89.0" style="fill:none;stroke:rgb(0,0,0);stroke-width:0.25;" signature="ML" x1="155.64" y1="89.0" x2="192.12" y2="89.0" id="line36"/>
  <line points="155.76 108.0 155.76 89.12" style="fill:none;stroke:rgb(0,0,0);stroke-width:0.25;" signature="ML" x1="155.76" y1="108.0" x2="155.76" y2="89.12" id="line37"/>
  <line points="192.12 89.0 269.12 89.0" style="fill:none;stroke:rgb(0,0,0);stroke-width:0.25;" signature="ML" x1="192.12" y1="89.0" x2="269.12" y2="89.0" id="line38"/>
  <line points="192.12 108.0 192.12 89.12" style="fill:none;stroke:rgb(0,0,0);stroke-width:0.25;" signature="ML" x1="192.12" y1="108.0" x2="192.12" y2="89.12" id="line39"/>
  <line points="269.12 89.0 355.12 89.0" style="fill:none;stroke:rgb(0,0,0);stroke-width:0.25;" signature="ML" x1="269.12" y1="89.0" x2="355.12" y2="89.0" id="line40"/>
  <line points="269.12 108.0 269.12 89.12" style="fill:none;stroke:rgb(0,0,0);stroke-width:0.25;" signature="ML" x1="269.12" y1="108.0" x2="269.12" y2="89.12" id="line41"/>
  <line points="355.12 89.0 447.12 89.0" style="fill:none;stroke:rgb(0,0,0);stroke-width:0.25;" signature="ML" x1="355.12" y1="89.0" x2="447.12" y2="89.0" id="line42"/>
  <line points="355.12 108.0 355.12 89.12" style="fill:none;stroke:rgb(0,0,0);stroke-width:0.25;" signature="ML" x1="355.12" y1="108.0" x2="355.12" y2="89.12" id="line43"/>
  <line points="447.12 89.0 554.24 89.0" style="fill:none;stroke:rgb(0,0,0);stroke-width:0.25;" signature="ML" x1="447.12" y1="89.0" x2="554.24" y2="89.0" id="line44"/>
  <line points="447.12 108.0 447.12 89.12" style="fill:none;stroke:rgb(0,0,0);stroke-width:0.25;" signature="ML" x1="447.12" y1="108.0" x2="447.12" y2="89.12" id="line45"/>
  <line points="554.12 108.0 554.12 89.12" style="fill:none;stroke:rgb(0,0,0);stroke-width:0.25;" signature="ML" x1="554.12" y1="108.0" x2="554.12" y2="89.12" id="line46"/>
  <line points="155.64 108.12 192.12 108.12" style="fill:none;stroke:rgb(0,0,0);stroke-width:0.25;" signature="ML" x1="155.64" y1="108.12" x2="192.12" y2="108.12" id="line47"/>
  <line points="155.76 127.12 155.76 108.25" style="fill:none;stroke:rgb(0,0,0);stroke-width:0.25;" signature="ML" x1="155.76" y1="127.12" x2="155.76" y2="108.25" id="line48"/>
  <line points="192.12 108.12 269.12 108.12" style="fill:none;stroke:rgb(0,0,0);stroke-width:0.25;" signature="ML" x1="192.12" y1="108.12" x2="269.12" y2="108.12" id="line49"/>
  <line points="192.12 127.12 192.12 108.25" style="fill:none;stroke:rgb(0,0,0);stroke-width:0.25;" signature="ML" x1="192.12" y1="127.12" x2="192.12" y2="108.25" id="line50"/>
  <line points="269.12 108.12 355.12 108.12" style="fill:none;stroke:rgb(0,0,0);stroke-width:0.25;" signature="ML" x1="269.12" y1="108.12" x2="355.12" y2="108.12" id="line51"/>
  <line points="269.12 127.12 269.12 108.25" style="fill:none;stroke:rgb(0,0,0);stroke-width:0.25;" signature="ML" x1="269.12" y1="127.12" x2="269.12" y2="108.25" id="line52"/>
  <line points="355.12 108.12 447.12 108.12" style="fill:none;stroke:rgb(0,0,0);stroke-width:0.25;" signature="ML" x1="355.12" y1="108.12" x2="447.12" y2="108.12" id="line53"/>
  <line points="355.12 127.12 355.12 108.25" style="fill:none;stroke:rgb(0,0,0);stroke-width:0.25;" signature="ML" x1="355.12" y1="127.12" x2="355.12" y2="108.25" id="line54"/>
  <line points="447.12 108.12 554.24 108.12" style="fill:none;stroke:rgb(0,0,0);stroke-width:0.25;" signature="ML" x1="447.12" y1="108.12" x2="554.24" y2="108.12" id="line55"/>
  <line points="447.12 127.12 447.12 108.25" style="fill:none;stroke:rgb(0,0,0);stroke-width:0.25;" signature="ML" x1="447.12" y1="127.12" x2="447.12" y2="108.25" id="line56"/>
  <line points="554.12 127.12 554.12 108.25" style="fill:none;stroke:rgb(0,0,0);stroke-width:0.25;" signature="ML" x1="554.12" y1="127.12" x2="554.12" y2="108.25" id="line57"/>
  <line points="155.64 127.25 192.12 127.25" style="fill:none;stroke:rgb(0,0,0);stroke-width:0.25;" signature="ML" x1="155.64" y1="127.25" x2="192.12" y2="127.25" id="line58"/>
  <line points="155.76 146.25 155.76 127.37" style="fill:none;stroke:rgb(0,0,0);stroke-width:0.25;" signature="ML" x1="155.76" y1="146.25" x2="155.76" y2="127.37" id="line59"/>
  <line points="192.12 127.25 269.12 127.25" style="fill:none;stroke:rgb(0,0,0);stroke-width:0.25;" signature="ML" x1="192.12" y1="127.25" x2="269.12" y2="127.25" id="line60"/>
  <line points="192.12 146.25 192.12 127.37" style="fill:none;stroke:rgb(0,0,0);stroke-width:0.25;" signature="ML" x1="192.12" y1="146.25" x2="192.12" y2="127.37" id="line61"/>
  <line points="269.12 127.25 355.12 127.25" style="fill:none;stroke:rgb(0,0,0);stroke-width:0.25;" signature="ML" x1="269.12" y1="127.25" x2="355.12" y2="127.25" id="line62"/>
  <line points="269.12 146.25 269.12 127.37" style="fill:none;stroke:rgb(0,0,0);stroke-width:0.25;" signature="ML" x1="269.12" y1="146.25" x2="269.12" y2="127.37" id="line63"/>
  <line points="355.12 127.25 447.12 127.25" style="fill:none;stroke:rgb(0,0,0);stroke-width:0.25;" signature="ML" x1="355.12" y1="127.25" x2="447.12" y2="127.25" id="line64"/>
  <line points="355.12 146.25 355.12 127.37" style="fill:none;stroke:rgb(0,0,0);stroke-width:0.25;" signature="ML" x1="355.12" y1="146.25" x2="355.12" y2="127.37" id="line65"/>
  <line points="447.12 127.25 554.24 127.25" style="fill:none;stroke:rgb(0,0,0);stroke-width:0.25;" signature="ML" x1="447.12" y1="127.25" x2="554.24" y2="127.25" id="line66"/>
  <line points="447.12 146.25 447.12 127.37" style="fill:none;stroke:rgb(0,0,0);stroke-width:0.25;" signature="ML" x1="447.12" y1="146.25" x2="447.12" y2="127.37" id="line67"/>
  <line points="554.12 146.25 554.12 127.37" style="fill:none;stroke:rgb(0,0,0);stroke-width:0.25;" signature="ML" x1="554.12" y1="146.25" x2="554.12" y2="127.37" id="line68"/>
  <line points="155.64 146.37 192.12 146.37" style="fill:none;stroke:rgb(0,0,0);stroke-width:0.25;" signature="ML" x1="155.64" y1="146.37" x2="192.12" y2="146.37" id="line69"/>
  <line points="155.76 165.37 155.76 146.5" style="fill:none;stroke:rgb(0,0,0);stroke-width:0.25;" signature="ML" x1="155.76" y1="165.37" x2="155.76" y2="146.5" id="line70"/>
  <line points="192.12 146.37 269.12 146.37" style="fill:none;stroke:rgb(0,0,0);stroke-width:0.25;" signature="ML" x1="192.12" y1="146.37" x2="269.12" y2="146.37" id="line71"/>
  <line points="192.12 165.37 192.12 146.5" style="fill:none;stroke:rgb(0,0,0);stroke-width:0.25;" signature="ML" x1="192.12" y1="165.37" x2="192.12" y2="146.5" id="line72"/>
  <line points="269.12 146.37 355.12 146.37" style="fill:none;stroke:rgb(0,0,0);stroke-width:0.25;" signature="ML" x1="269.12" y1="146.37" x2="355.12" y2="146.37" id="line73"/>
  <line points="269.12 165.37 269.12 146.5" style="fill:none;stroke:rgb(0,0,0);stroke-width:0.25;" signature="ML" x1="269.12" y1="165.37" x2="269.12" y2="146.5" id="line74"/>
  <line points="355.12 146.37 447.12 146.37" style="fill:none;stroke:rgb(0,0,0);stroke-width:0.25;" signature="ML" x1="355.12" y1="146.37" x2="447.12" y2="146.37" id="line75"/>
  <line points="355.12 165.37 355.12 146.5" style="fill:none;stroke:rgb(0,0,0);stroke-width:0.25;" signature="ML" x1="355.12" y1="165.37" x2="355.12" y2="146.5" id="line76"/>
  <line points="447.12 146.37 554.24 146.37" style="fill:none;stroke:rgb(0,0,0);stroke-width:0.25;" signature="ML" x1="447.12" y1="146.37" x2="554.24" y2="146.37" id="line77"/>
  <line points="447.12 165.37 447.12 146.5" style="fill:none;stroke:rgb(0,0,0);stroke-width:0.25;" signature="ML" x1="447.12" y1="165.37" x2="447.12" y2="146.5" id="line78"/>
  <line points="554.12 165.37 554.12 146.5" style="fill:none;stroke:rgb(0,0,0);stroke-width:0.25;" signature="ML" x1="554.12" y1="165.37" x2="554.12" y2="146.5" id="line79"/>
  <line points="155.64 165.5 192.12 165.5" style="fill:none;stroke:rgb(0,0,0);stroke-width:0.25;" signature="ML" x1="155.64" y1="165.5" x2="192.12" y2="165.5" id="line80"/>
  <line points="155.76 184.5 155.76 165.62" style="fill:none;stroke:rgb(0,0,0);stroke-width:0.25;" signature="ML" x1="155.76" y1="184.5" x2="155.76" y2="165.62" id="line81"/>
  <line points="192.12 165.5 269.12 165.5" style="fill:none;stroke:rgb(0,0,0);stroke-width:0.25;" signature="ML" x1="192.12" y1="165.5" x2="269.12" y2="165.5" id="line82"/>
  <line points="192.12 184.5 192.12 165.62" style="fill:none;stroke:rgb(0,0,0);stroke-width:0.25;" signature="ML" x1="192.12" y1="184.5" x2="192.12" y2="165.62" id="line83"/>
  <line points="269.12 165.5 355.12 165.5" style="fill:none;stroke:rgb(0,0,0);stroke-width:0.25;" signature="ML" x1="269.12" y1="165.5" x2="355.12" y2="165.5" id="line84"/>
  <line points="269.12 184.5 269.12 165.62" style="fill:none;stroke:rgb(0,0,0);stroke-width:0.25;" signature="ML" x1="269.12" y1="184.5" x2="269.12" y2="165.62" id="line85"/>
  <line points="355.12 165.5 447.12 165.5" style="fill:none;stroke:rgb(0,0,0);stroke-width:0.25;" signature="ML" x1="355.12" y1="165.5" x2="447.12" y2="165.5" id="line86"/>
  <line points="355.12 184.5 355.12 165.62" style="fill:none;stroke:rgb(0,0,0);stroke-width:0.25;" signature="ML" x1="355.12" y1="184.5" x2="355.12" y2="165.62" id="line87"/>
  <line points="447.12 165.5 554.24 165.5" style="fill:none;stroke:rgb(0,0,0);stroke-width:0.25;" signature="ML" x1="447.12" y1="165.5" x2="554.24" y2="165.5" id="line88"/>
  <line points="447.12 184.5 447.12 165.62" style="fill:none;stroke:rgb(0,0,0);stroke-width:0.25;" signature="ML" x1="447.12" y1="184.5" x2="447.12" y2="165.62" id="line89"/>
  <line points="554.12 184.5 554.12 165.62" style="fill:none;stroke:rgb(0,0,0);stroke-width:0.25;" signature="ML" x1="554.12" y1="184.5" x2="554.12" y2="165.62" id="line90"/>
  <line points="155.64 184.62 192.12 184.62" style="fill:none;stroke:rgb(0,0,0);stroke-width:0.25;" signature="ML" x1="155.64" y1="184.62" x2="192.12" y2="184.62" id="line91"/>
  <line points="155.76 203.62 155.76 184.75" style="fill:none;stroke:rgb(0,0,0);stroke-width:0.25;" signature="ML" x1="155.76" y1="203.62" x2="155.76" y2="184.75" id="line92"/>
  <line points="192.12 184.62 269.12 184.62" style="fill:none;stroke:rgb(0,0,0);stroke-width:0.25;" signature="ML" x1="192.12" y1="184.62" x2="269.12" y2="184.62" id="line93"/>
  <line points="192.12 203.62 192.12 184.75" style="fill:none;stroke:rgb(0,0,0);stroke-width:0.25;" signature="ML" x1="192.12" y1="203.62" x2="192.12" y2="184.75" id="line94"/>
  <line points="269.12 184.62 355.12 184.62" style="fill:none;stroke:rgb(0,0,0);stroke-width:0.25;" signature="ML" x1="269.12" y1="184.62" x2="355.12" y2="184.62" id="line95"/>
  <line points="269.12 203.62 269.12 184.75" style="fill:none;stroke:rgb(0,0,0);stroke-width:0.25;" signature="ML" x1="269.12" y1="203.62" x2="269.12" y2="184.75" id="line96"/>
  <line points="355.12 184.62 447.12 184.62" style="fill:none;stroke:rgb(0,0,0);stroke-width:0.25;" signature="ML" x1="355.12" y1="184.62" x2="447.12" y2="184.62" id="line97"/>
  <line points="355.12 203.62 355.12 184.75" style="fill:none;stroke:rgb(0,0,0);stroke-width:0.25;" signature="ML" x1="355.12" y1="203.62" x2="355.12" y2="184.75" id="line98"/>
  <line points="447.12 184.62 554.24 184.62" style="fill:none;stroke:rgb(0,0,0);stroke-width:0.25;" signature="ML" x1="447.12" y1="184.62" x2="554.24" y2="184.62" id="line99"/>
  <line points="447.12 203.62 447.12 184.75" style="fill:none;stroke:rgb(0,0,0);stroke-width:0.25;" signature="ML" x1="447.12" y1="203.62" x2="447.12" y2="184.75" id="line100"/>
  <line points="554.12 203.62 554.12 184.75" style="fill:none;stroke:rgb(0,0,0);stroke-width:0.25;" signature="ML" x1="554.12" y1="203.62" x2="554.12" y2="184.75" id="line101"/>
  <line points="155.64 203.75 192.12 203.75" style="fill:none;stroke:rgb(0,0,0);stroke-width:0.25;" signature="ML" x1="155.64" y1="203.75" x2="192.12" y2="203.75" id="line102"/>
  <line points="155.76 222.75 155.76 203.87" style="fill:none;stroke:rgb(0,0,0);stroke-width:0.25;" signature="ML" x1="155.76" y1="222.75" x2="155.76" y2="203.87" id="line103"/>
  <line points="192.12 203.75 269.12 203.75" style="fill:none;stroke:rgb(0,0,0);stroke-width:0.25;" signature="ML" x1="192.12" y1="203.75" x2="269.12" y2="203.75" id="line104"/>
  <line points="192.12 222.75 192.12 203.87" style="fill:none;stroke:rgb(0,0,0);stroke-width:0.25;" signature="ML" x1="192.12" y1="222.75" x2="192.12" y2="203.87" id="line105"/>
  <line points="269.12 203.75 355.12 203.75" style="fill:none;stroke:rgb(0,0,0);stroke-width:0.25;" signature="ML" x1="269.12" y1="203.75" x2="355.12" y2="203.75" id="line106"/>
  <line points="269.12 222.75 269.12 203.87" style="fill:none;stroke:rgb(0,0,0);stroke-width:0.25;" signature="ML" x1="269.12" y1="222.75" x2="269.12" y2="203.87" id="line107"/>
  <line points="355.12 203.75 447.12 203.75" style="fill:none;stroke:rgb(0,0,0);stroke-width:0.25;" signature="ML" x1="355.12" y1="203.75" x2="447.12" y2="203.75" id="line108"/>
  <line points="355.12 222.75 355.12 203.87" style="fill:none;stroke:rgb(0,0,0);stroke-width:0.25;" signature="ML" x1="355.12" y1="222.75" x2="355.12" y2="203.87" id="line109"/>
  <line points="447.12 203.75 554.24 203.75" style="fill:none;stroke:rgb(0,0,0);stroke-width:0.25;" signature="ML" x1="447.12" y1="203.75" x2="554.24" y2="203.75" id="line110"/>
  <line points="447.12 222.75 447.12 203.87" style="fill:none;stroke:rgb(0,0,0);stroke-width:0.25;" signature="ML" x1="447.12" y1="222.75" x2="447.12" y2="203.87" id="line111"/>
  <line points="554.12 222.75 554.12 203.87" style="fill:none;stroke:rgb(0,0,0);stroke-width:0.25;" signature="ML" x1="554.12" y1="222.75" x2="554.12" y2="203.87" id="line112"/>
  <line points="155.64 222.87 192.12 222.87" style="fill:none;stroke:rgb(0,0,0);stroke-width:0.25;" signature="ML" x1="155.64" y1="222.87" x2="192.12" y2="222.87" id="line113"/>
  <line points="155.76 234.37 155.76 223.0" style="fill:none;stroke:rgb(0,0,0);stroke-width:0.25;" signature="ML" x1="155.76" y1="234.37" x2="155.76" y2="223.0" id="line114"/>
  <line points="192.12 222.87 269.12 222.87" style="fill:none;stroke:rgb(0,0,0);stroke-width:0.25;" signature="ML" x1="192.12" y1="222.87" x2="269.12" y2="222.87" id="line115"/>
  <line points="192.12 234.37 192.12 223.0" style="fill:none;stroke:rgb(0,0,0);stroke-width:0.25;" signature="ML" x1="192.12" y1="234.37" x2="192.12" y2="223.0" id="line116"/>
  <line points="269.12 222.87 355.12 222.87" style="fill:none;stroke:rgb(0,0,0);stroke-width:0.25;" signature="ML" x1="269.12" y1="222.87" x2="355.12" y2="222.87" id="line117"/>
  <line points="269.12 234.37 269.12 223.0" style="fill:none;stroke:rgb(0,0,0);stroke-width:0.25;" signature="ML" x1="269.12" y1="234.37" x2="269.12" y2="223.0" id="line118"/>
  <line points="355.12 222.87 447.12 222.87" style="fill:none;stroke:rgb(0,0,0);stroke-width:0.25;" signature="ML" x1="355.12" y1="222.87" x2="447.12" y2="222.87" id="line119"/>
  <line points="355.12 234.37 355.12 223.0" style="fill:none;stroke:rgb(0,0,0);stroke-width:0.25;" signature="ML" x1="355.12" y1="234.37" x2="355.12" y2="223.0" id="line120"/>
  <line points="447.12 222.87 554.24 222.87" style="fill:none;stroke:rgb(0,0,0);stroke-width:0.25;" signature="ML" x1="447.12" y1="222.87" x2="554.24" y2="222.87" id="line121"/>
  <line points="447.12 234.37 447.12 223.0" style="fill:none;stroke:rgb(0,0,0);stroke-width:0.25;" signature="ML" x1="447.12" y1="234.37" x2="447.12" y2="223.0" id="line122"/>
  <line points="554.12 234.37 554.12 223.0" style="fill:none;stroke:rgb(0,0,0);stroke-width:0.25;" signature="ML" x1="554.12" y1="234.37" x2="554.12" y2="223.0" id="line123"/>
  <line points="155.64 234.5 192.12 234.5" style="fill:none;stroke:rgb(0,0,0);stroke-width:0.25;" signature="ML" x1="155.64" y1="234.5" x2="192.12" y2="234.5" id="line124"/>
  <line points="155.76 253.5 155.76 234.62" style="fill:none;stroke:rgb(0,0,0);stroke-width:0.25;" signature="ML" x1="155.76" y1="253.5" x2="155.76" y2="234.62" id="line125"/>
  <line points="192.12 234.5 269.12 234.5" style="fill:none;stroke:rgb(0,0,0);stroke-width:0.25;" signature="ML" x1="192.12" y1="234.5" x2="269.12" y2="234.5" id="line126"/>
  <line points="192.12 253.5 192.12 234.62" style="fill:none;stroke:rgb(0,0,0);stroke-width:0.25;" signature="ML" x1="192.12" y1="253.5" x2="192.12" y2="234.62" id="line127"/>
  <line points="269.12 234.5 355.12 234.5" style="fill:none;stroke:rgb(0,0,0);stroke-width:0.25;" signature="ML" x1="269.12" y1="234.5" x2="355.12" y2="234.5" id="line128"/>
  <line points="269.12 253.5 269.12 234.62" style="fill:none;stroke:rgb(0,0,0);stroke-width:0.25;" signature="ML" x1="269.12" y1="253.5" x2="269.12" y2="234.62" id="line129"/>
  <line points="355.12 234.5 447.12 234.5" style="fill:none;stroke:rgb(0,0,0);stroke-width:0.25;" signature="ML" x1="355.12" y1="234.5" x2="447.12" y2="234.5" id="line130"/>
  <line points="355.12 253.5 355.12 234.62" style="fill:none;stroke:rgb(0,0,0);stroke-width:0.25;" signature="ML" x1="355.12" y1="253.5" x2="355.12" y2="234.62" id="line131"/>
  <line points="447.12 234.5 554.24 234.5" style="fill:none;stroke:rgb(0,0,0);stroke-width:0.25;" signature="ML" x1="447.12" y1="234.5" x2="554.24" y2="234.5" id="line132"/>
  <line points="447.12 253.5 447.12 234.62" style="fill:none;stroke:rgb(0,0,0);stroke-width:0.25;" signature="ML" x1="447.12" y1="253.5" x2="447.12" y2="234.62" id="line133"/>
  <line points="554.12 253.5 554.12 234.62" style="fill:none;stroke:rgb(0,0,0);stroke-width:0.25;" signature="ML" x1="554.12" y1="253.5" x2="554.12" y2="234.62" id="line134"/>
  <line points="155.64 253.62 192.12 253.62" style="fill:none;stroke:rgb(0,0,0);stroke-width:0.25;" signature="ML" x1="155.64" y1="253.62" x2="192.12" y2="253.62" id="line135"/>
  <line points="155.76 280.12 155.76 253.75" style="fill:none;stroke:rgb(0,0,0);stroke-width:0.25;" signature="ML" x1="155.76" y1="280.12" x2="155.76" y2="253.75" id="line136"/>
  <line points="192.12 253.62 269.12 253.62" style="fill:none;stroke:rgb(0,0,0);stroke-width:0.25;" signature="ML" x1="192.12" y1="253.62" x2="269.12" y2="253.62" id="line137"/>
  <line points="192.12 280.12 192.12 253.75" style="fill:none;stroke:rgb(0,0,0);stroke-width:0.25;" signature="ML" x1="192.12" y1="280.12" x2="192.12" y2="253.75" id="line138"/>
  <line points="269.12 253.62 355.12 253.62" style="fill:none;stroke:rgb(0,0,0);stroke-width:0.25;" signature="ML" x1="269.12" y1="253.62" x2="355.12" y2="253.62" id="line139"/>
  <line points="269.12 280.12 269.12 253.75" style="fill:none;stroke:rgb(0,0,0);stroke-width:0.25;" signature="ML" x1="269.12" y1="280.12" x2="269.12" y2="253.75" id="line140"/>
  <line points="355.12 253.62 447.12 253.62" style="fill:none;stroke:rgb(0,0,0);stroke-width:0.25;" signature="ML" x1="355.12" y1="253.62" x2="447.12" y2="253.62" id="line141"/>
  <line points="355.12 280.12 355.12 253.75" style="fill:none;stroke:rgb(0,0,0);stroke-width:0.25;" signature="ML" x1="355.12" y1="280.12" x2="355.12" y2="253.75" id="line142"/>
  <line points="447.12 253.62 554.24 253.62" style="fill:none;stroke:rgb(0,0,0);stroke-width:0.25;" signature="ML" x1="447.12" y1="253.62" x2="554.24" y2="253.62" id="line143"/>
  <line points="447.12 280.12 447.12 253.75" style="fill:none;stroke:rgb(0,0,0);stroke-width:0.25;" signature="ML" x1="447.12" y1="280.12" x2="447.12" y2="253.75" id="line144"/>
  <line points="554.12 280.12 554.12 253.75" style="fill:none;stroke:rgb(0,0,0);stroke-width:0.25;" signature="ML" x1="554.12" y1="280.12" x2="554.12" y2="253.75" id="line145"/>
  <line points="155.64 280.25 192.12 280.25" style="fill:none;stroke:rgb(0,0,0);stroke-width:0.25;" signature="ML" x1="155.64" y1="280.25" x2="192.12" y2="280.25" id="line146"/>
  <line points="155.76 299.25 155.76 280.37" style="fill:none;stroke:rgb(0,0,0);stroke-width:0.25;" signature="ML" x1="155.76" y1="299.25" x2="155.76" y2="280.37" id="line147"/>
  <line points="192.12 280.25 269.12 280.25" style="fill:none;stroke:rgb(0,0,0);stroke-width:0.25;" signature="ML" x1="192.12" y1="280.25" x2="269.12" y2="280.25" id="line148"/>
  <line points="192.12 299.25 192.12 280.37" style="fill:none;stroke:rgb(0,0,0);stroke-width:0.25;" signature="ML" x1="192.12" y1="299.25" x2="192.12" y2="280.37" id="line149"/>
  <line points="269.12 280.25 355.12 280.25" style="fill:none;stroke:rgb(0,0,0);stroke-width:0.25;" signature="ML" x1="269.12" y1="280.25" x2="355.12" y2="280.25" id="line150"/>
  <line points="269.12 299.25 269.12 280.37" style="fill:none;stroke:rgb(0,0,0);stroke-width:0.25;" signature="ML" x1="269.12" y1="299.25" x2="269.12" y2="280.37" id="line151"/>
  <line points="355.12 280.25 447.12 280.25" style="fill:none;stroke:rgb(0,0,0);stroke-width:0.25;" signature="ML" x1="355.12" y1="280.25" x2="447.12" y2="280.25" id="line152"/>
  <line points="355.12 299.25 355.12 280.37" style="fill:none;stroke:rgb(0,0,0);stroke-width:0.25;" signature="ML" x1="355.12" y1="299.25" x2="355.12" y2="280.37" id="line153"/>
  <line points="447.12 280.25 554.24 280.25" style="fill:none;stroke:rgb(0,0,0);stroke-width:0.25;" signature="ML" x1="447.12" y1="280.25" x2="554.24" y2="280.25" id="line154"/>
  <line points="447.12 299.25 447.12 280.37" style="fill:none;stroke:rgb(0,0,0);stroke-width:0.25;" signature="ML" x1="447.12" y1="299.25" x2="447.12" y2="280.37" id="line155"/>
  <line points="554.12 299.25 554.12 280.37" style="fill:none;stroke:rgb(0,0,0);stroke-width:0.25;" signature="ML" x1="554.12" y1="299.25" x2="554.12" y2="280.37" id="line156"/>
  <line points="155.64 299.37 192.12 299.37" style="fill:none;stroke:rgb(0,0,0);stroke-width:0.25;" signature="ML" x1="155.64" y1="299.37" x2="192.12" y2="299.37" id="line157"/>
  <line points="155.76 318.37 155.76 299.5" style="fill:none;stroke:rgb(0,0,0);stroke-width:0.25;" signature="ML" x1="155.76" y1="318.37" x2="155.76" y2="299.5" id="line158"/>
  <line points="192.12 299.37 269.12 299.37" style="fill:none;stroke:rgb(0,0,0);stroke-width:0.25;" signature="ML" x1="192.12" y1="299.37" x2="269.12" y2="299.37" id="line159"/>
  <line points="192.12 318.37 192.12 299.5" style="fill:none;stroke:rgb(0,0,0);stroke-width:0.25;" signature="ML" x1="192.12" y1="318.37" x2="192.12" y2="299.5" id="line160"/>
  <line points="269.12 299.37 355.12 299.37" style="fill:none;stroke:rgb(0,0,0);stroke-width:0.25;" signature="ML" x1="269.12" y1="299.37" x2="355.12" y2="299.37" id="line161"/>
  <line points="269.12 318.37 269.12 299.5" style="fill:none;stroke:rgb(0,0,0);stroke-width:0.25;" signature="ML" x1="269.12" y1="318.37" x2="269.12" y2="299.5" id="line162"/>
  <line points="355.12 299.37 447.12 299.37" style="fill:none;stroke:rgb(0,0,0);stroke-width:0.25;" signature="ML" x1="355.12" y1="299.37" x2="447.12" y2="299.37" id="line163"/>
  <line points="355.12 318.37 355.12 299.5" style="fill:none;stroke:rgb(0,0,0);stroke-width:0.25;" signature="ML" x1="355.12" y1="318.37" x2="355.12" y2="299.5" id="line164"/>
  <line points="447.12 299.37 554.24 299.37" style="fill:none;stroke:rgb(0,0,0);stroke-width:0.25;" signature="ML" x1="447.12" y1="299.37" x2="554.24" y2="299.37" id="line165"/>
  <line points="447.12 318.37 447.12 299.5" style="fill:none;stroke:rgb(0,0,0);stroke-width:0.25;" signature="ML" x1="447.12" y1="318.37" x2="447.12" y2="299.5" id="line166"/>
  <line points="554.12 318.37 554.12 299.5" style="fill:none;stroke:rgb(0,0,0);stroke-width:0.25;" signature="ML" x1="554.12" y1="318.37" x2="554.12" y2="299.5" id="line167"/>
  <line points="155.64 318.5 192.12 318.5" style="fill:none;stroke:rgb(0,0,0);stroke-width:0.25;" signature="ML" x1="155.64" y1="318.5" x2="192.12" y2="318.5" id="line168"/>
  <line points="155.76 330.0 155.76 318.62" style="fill:none;stroke:rgb(0,0,0);stroke-width:0.25;" signature="ML" x1="155.76" y1="330.0" x2="155.76" y2="318.62" id="line169"/>
  <line points="155.64 330.12 192.12 330.12" style="fill:none;stroke:rgb(0,0,0);stroke-width:0.25;" signature="ML" x1="155.64" y1="330.12" x2="192.12" y2="330.12" id="line170"/>
  <line points="192.12 318.5 269.12 318.5" style="fill:none;stroke:rgb(0,0,0);stroke-width:0.25;" signature="ML" x1="192.12" y1="318.5" x2="269.12" y2="318.5" id="line171"/>
  <line points="192.12 330.0 192.12 318.62" style="fill:none;stroke:rgb(0,0,0);stroke-width:0.25;" signature="ML" x1="192.12" y1="330.0" x2="192.12" y2="318.62" id="line172"/>
  <line points="192.12 330.12 269.12 330.12" style="fill:none;stroke:rgb(0,0,0);stroke-width:0.25;" signature="ML" x1="192.12" y1="330.12" x2="269.12" y2="330.12" id="line173"/>
  <line points="269.12 318.5 355.12 318.5" style="fill:none;stroke:rgb(0,0,0);stroke-width:0.25;" signature="ML" x1="269.12" y1="318.5" x2="355.12" y2="318.5" id="line174"/>
  <line points="269.12 330.0 269.12 318.62" style="fill:none;stroke:rgb(0,0,0);stroke-width:0.25;" signature="ML" x1="269.12" y1="330.0" x2="269.12" y2="318.62" id="line175"/>
  <line points="269.12 330.12 355.12 330.12" style="fill:none;stroke:rgb(0,0,0);stroke-width:0.25;" signature="ML" x1="269.12" y1="330.12" x2="355.12" y2="330.12" id="line176"/>
  <line points="355.12 318.5 447.12 318.5" style="fill:none;stroke:rgb(0,0,0);stroke-width:0.25;" signature="ML" x1="355.12" y1="318.5" x2="447.12" y2="318.5" id="line177"/>
  <line points="355.12 330.0 355.12 318.62" style="fill:none;stroke:rgb(0,0,0);stroke-width:0.25;" signature="ML" x1="355.12" y1="330.0" x2="355.12" y2="318.62" id="line178"/>
  <line points="355.12 330.12 447.12 330.12" style="fill:none;stroke:rgb(0,0,0);stroke-width:0.25;" signature="ML" x1="355.12" y1="330.12" x2="447.12" y2="330.12" id="line179"/>
  <line points="447.12 318.5 554.24 318.5" style="fill:none;stroke:rgb(0,0,0);stroke-width:0.25;" signature="ML" x1="447.12" y1="318.5" x2="554.24" y2="318.5" id="line180"/>
  <line points="447.12 330.0 447.12 318.62" style="fill:none;stroke:rgb(0,0,0);stroke-width:0.25;" signature="ML" x1="447.12" y1="330.0" x2="447.12" y2="318.62" id="line181"/>
  <line points="554.12 330.0 554.12 318.62" style="fill:none;stroke:rgb(0,0,0);stroke-width:0.25;" signature="ML" x1="554.12" y1="330.0" x2="554.12" y2="318.62" id="line182"/>
  <line points="447.12 330.12 554.24 330.12" style="fill:none;stroke:rgb(0,0,0);stroke-width:0.25;" signature="ML" x1="447.12" y1="330.12" x2="554.24" y2="330.12" id="line183"/>
 </g>
</svg>
