<?xml version="1.0" encoding="UTF-8"?>
<svg height="751.655" width="530.522" xmlns="http://www.w3.org/2000/svg">
 <g id="page" xmlns:svgx="http://www.xml-cml.org/schema/svgx">
  <g begin="text">
   <text y="62.979" x="76.288,81.158,85.143,88.682,91.782,97.983,101.521,104.765,107.866,112.297,114.951,117.167,120.41" svgx:width="0.61,0.5,0.44,0.39,0.78,0.44,0.41,0.39,0.56,0.33,0.28,0.41,0.39" style="fill:rgb(0,0,0);font-family:URWPalladioL-Ital;font-size:7.97px;stroke:none;">Pharmaceutics</text>
   <text y="62.979" x="125.503,129.488,133.473,137.458" svgx:width="0.5,0.5,0.5,0.5" style="fill:rgb(0,0,0);font-family:URWPalladioL-Bold;font-size:7.97px;stroke:none;">2017</text>
   <text y="62.979" x="141.443" svgx:width="0.25" style="fill:rgb(0,0,0);font-family:URWPalladioL-Roma;font-size:7.97px;stroke:none;">,</text>
   <text y="62.979" x="145.428" svgx:width="0.5" style="fill:rgb(0,0,0);font-family:URWPalladioL-Ital;font-size:7.97px;stroke:none;">9</text>
   <text y="62.979" x="149.413,151.40550000000002,153.398,157.383,161.36800000000002,495.794,499.779,501.772,506.123,508.7531,510.77,514.755" svgx:width="0.25,0.55,0.5,0.5,0.55,0.5,0.55,0.55,0.33,0.55,0.5,0.5" style="fill:rgb(0,0,0);font-family:URWPalladioL-Roma;font-size:7.97px;stroke:none;">, 48 5 of 12</text>
   <text y="97.848" x="97.795,107.031,111.708,116.589,120.729,126.616,130.297,134.974,143.595,148.272,153.954,157.137,161.3202,163.698,169.028,172.3148,174.701,178.841,184.269,187.11,192.88680000000002,195.214,200.896,206.324,212.29,216.146,221.028,224.211,227.052,232.383,238.15980000000002,240.496,245.378,251.06,257.1356,259.447,264.123,266.965,271.846,275.986,279.169,282.01,286.345,289.186,292.369,297.94660000000005,300.218,308.361,313.038,316.719,321.4998,323.816,329.684,334.361,338.217,341.469,346.799,350.656,359.277,363.954,370.0296,372.34,377.222,380.5088,382.826,388.225,393.107,397.247,401.923,404.764,407.605,413.288,418.0688,420.395,423.647,429.514,433.371,436.212,441.543,445.527,447.821,451.004,456.482,458.756,461.938,467.621,472.4018,474.719,477.902,481.582,486.259,491.141,494.324,502.945,507.621,513.303,516.486" svgx:width="0.95,0.48,0.5,0.42,0.6,0.4,0.48,0.88,0.48,0.58,0.33,0.42,0.55,0.55,0.33,0.55,0.42,0.56,0.29,0.58,0.55,0.58,0.56,0.61,0.4,0.5,0.33,0.29,0.55,0.58,0.55,0.5,0.58,0.61,0.55,0.48,0.29,0.5,0.42,0.33,0.29,0.44,0.29,0.33,0.56,0.55,0.83,0.48,0.4,0.48,0.55,0.6,0.48,0.4,0.33,0.55,0.4,0.88,0.48,0.61,0.55,0.5,0.33,0.55,0.55,0.5,0.42,0.48,0.29,0.29,0.58,0.48,0.55,0.33,0.6,0.4,0.29,0.55,0.4,0.55,0.33,0.55,0.55,0.33,0.58,0.48,0.55,0.33,0.4,0.48,0.5,0.33,0.88,0.48,0.58,0.33,0.33" style="fill:rgb(0,0,0);font-family:URWPalladioL-Roma;font-size:9.96px;stroke:none;">Measurements of skin hydration and elasticity were performed at baseline (prior to the treatment)</text>
   <text y="111.358" x="76.535,81.476,87.228,93.30359999999999,95.757,100.699,103.99,107.212,111.945,115.92899999999999,118.35,123.746,129.497,134.2778,136.722,144.964,149.698,154.432,160.00959999999998,162.427,167.823,171.1098,173.605,176.827,180.553,185.286,190.228,193.45,202.176,206.91,212.662,215.884,218.374,221.458,230.807,235.541,240.482,244.673,250.632,254.358,259.092,267.819,272.552,278.304,281.526,285.7092,288.207,296.449,301.183,304.909,309.6898,312.133,315.355,320.297,325.792,330.526,336.3028,338.778,344.737,350.489,356.527,361.261,365.245,367.656,372.044,377.44,383.192,386.413,390.139,395.535,398.411,401.287,406.021,412.0966,414.55,417.772,422.506,431.232,437.172,441.906,445.81,450.751,453.973,459.932,463.658,468.4388,470.892,474.183,479.125" svgx:width="0.5,0.58,0.61,0.55,0.5,0.33,0.33,0.48,0.4,0.55,0.55,0.58,0.48,0.55,0.83,0.48,0.48,0.56,0.55,0.55,0.33,0.55,0.33,0.4,0.48,0.5,0.33,0.88,0.48,0.58,0.33,0.25,0.55,0.95,0.48,0.5,0.42,0.6,0.4,0.48,0.88,0.48,0.58,0.33,0.42,0.55,0.83,0.48,0.4,0.48,0.55,0.33,0.5,0.56,0.48,0.58,0.55,0.6,0.58,0.61,0.48,0.4,0.55,0.44,0.55,0.58,0.33,0.4,0.55,0.29,0.29,0.48,0.61,0.55,0.33,0.48,0.88,0.6,0.48,0.4,0.5,0.33,0.6,0.4,0.48,0.55,0.33,0.5,0.5" style="fill:rgb(0,0,0);font-family:URWPalladioL-Roma;font-size:9.96px;stroke:none;">and after one week of treatment. Measurements were taken under controlled temperature (22</text>
   <text y="111.358" x="486.681" svgx:width="0.78" style="fill:rgb(0,0,0);font-family:CMSY10;font-size:10.38px;stroke:none;">±</text>
   <text y="111.358" x="497.37" svgx:width="0.5" style="fill:rgb(0,0,0);font-family:URWPalladioL-Roma;font-size:9.96px;stroke:none;">1</text>
   <text y="107.741" x="504.901" svgx:width="0.5" style="fill:rgb(0,0,0);font-family:CMSY10;font-size:7.89px;stroke:none;">◦</text>
   <text y="111.358" x="509.439,516.446" svgx:width="0.71,0.33" style="fill:rgb(0,0,0);font-family:URWPalladioL-Roma;font-size:9.96px;stroke:none;">C)</text>
   <text y="124.867" x="76.535,81.417,87.099,93.1746,95.456,101.139,107.026,115.647,118.488,124.454,127.295,130.477,136.0546,138.298,141.549,146.431" svgx:width="0.5,0.58,0.61,0.55,0.58,0.6,0.88,0.29,0.61,0.29,0.33,0.56,0.55,0.33,0.5,0.5" style="fill:rgb(0,0,0);font-family:URWPalladioL-Roma;font-size:9.96px;stroke:none;">and humidity (35</text>
   <text y="124.867" x="153.836" svgx:width="0.78" style="fill:rgb(0,0,0);font-family:CMSY10;font-size:10.38px;stroke:none;">±</text>
   <text y="124.867" x="164.425,169.307,177.508,180.7948,183.151,187.486,192.817,198.499,204.464,207.306,210.488,213.33,218.66,224.343,228.482,230.972,233.335,238.216,241.468,244.65,249.327,253.311,255.585,260.467,265.447,267.741,276.362,279.203,284.97979999999995,287.277,292.608,295.89480000000003,298.251,303.133,307.468,311.803,314.644,317.485,326.106,330.988,334.171,337.012,341.893,346.775,349.958,352.799,358.13,363.812,366.302,369.309,375.294,380.976,385.7568,388.045,393.561,398.892,401.733,407.62,413.303,416.485,421.162,425.839,429.695,433.8782,436.237,444.379,449.056,452.727,457.5078,459.796,463.476,468.153,473.621,479.508,484.184,488.324,491.507,496.184,502.25960000000003,504.541,510.223,515.554" svgx:width="0.5,0.84,0.33,0.55,0.44,0.55,0.58,0.61,0.29,0.33,0.29,0.55,0.58,0.42,0.25,0.55,0.5,0.33,0.33,0.48,0.4,0.55,0.5,0.5,0.55,0.88,0.29,0.58,0.55,0.55,0.33,0.55,0.5,0.44,0.44,0.29,0.29,0.88,0.5,0.33,0.29,0.5,0.5,0.33,0.29,0.55,0.58,0.25,0.55,0.61,0.58,0.48,0.55,0.56,0.55,0.29,0.6,0.58,0.33,0.48,0.48,0.4,0.42,0.55,0.83,0.48,0.4,0.48,0.55,0.4,0.48,0.56,0.6,0.48,0.42,0.33,0.48,0.61,0.55,0.58,0.55,0.33" style="fill:rgb(0,0,0);font-family:URWPalladioL-Roma;font-size:9.96px;stroke:none;">5%) conditions, after 30 min of acclimatization. The volunteers were requested not</text>
   <text y="138.377" x="76.535,79.718,85.196,87.324,92.205,98.073,103.941,106.782,112.3596,114.485,117.668,123.35,128.1308,130.292,135.72,140.397,143.238,147.4212,149.653,152.836,158.518,163.2988,165.469,174.09,179.421,183.278,188.96,191.801,197.483,203.0606,205.187,210.586,215.262,218.514,223.844,227.515,232.29579999999999,234.467,237.65,243.332,248.1128,250.284,256.19,261.873,266.754,269.6424,271.87,280.491,285.168,290.05,294.189,300.077,303.748,308.424,317.045,321.722,327.404,330.587,333.077,336.045,342.03,347.712,352.4928,354.664,360.551,364.69,369.4708,371.642,376.973,380.25980000000004,382.499,387.83,391.012,396.695,401.371,405.35499999999996,407.493,413.361,417.042,422.372,428.338,434.225,438.56,441.743,445.9262,448.157,456.3,461.182,465.3652,467.596,473.278,478.609,481.8958,484.057,488.939,491.78,494.621,499.952,508.095,512.771" svgx:width="0.33,0.55,0.55,0.5,0.6,0.6,0.29,0.56,0.55,0.33,0.58,0.48,0.55,0.56,0.48,0.29,0.42,0.55,0.33,0.58,0.48,0.55,0.88,0.55,0.4,0.58,0.29,0.58,0.56,0.55,0.55,0.48,0.33,0.55,0.4,0.48,0.55,0.33,0.58,0.48,0.55,0.61,0.58,0.5,0.29,0.55,0.88,0.48,0.5,0.42,0.6,0.4,0.48,0.88,0.48,0.58,0.33,0.25,0.55,0.61,0.58,0.48,0.55,0.6,0.42,0.48,0.55,0.55,0.33,0.55,0.55,0.33,0.58,0.48,0.4,0.55,0.6,0.4,0.55,0.61,0.6,0.44,0.33,0.42,0.55,0.83,0.5,0.42,0.55,0.58,0.55,0.33,0.55,0.5,0.29,0.29,0.55,0.83,0.48,0.61" style="fill:rgb(0,0,0);font-family:URWPalladioL-Roma;font-size:9.96px;stroke:none;">to apply the gels the morning before the ﬁnal measurement. The use of other products was not allowed</text>
   <text y="151.886" x="76.535,79.848,85.762,89.593,95.141,101.269,106.919,112.833,118.382,124.509,127.7958,130.779,134.092,140.006,144.7868,147.831,152.139,155.452,161.58,167.788,172.331,174.821,177.94,183.021,189.128,194.209,198.223,201.5098,204.493,207.877,211.718,217.266,226.0308,229.186,235.101,240.649,244.663,253.636,258.717,261.6054,264.631,270.545,276.195,281.845,284.802,289.67,295.584,300.3648,303.408,306.721,310.552,315.42,320.501,323.813,332.786,337.654,343.568,346.881,349.371,353.913,359.248,364.898,367.855,373.6318,376.716,381.797,387.711,392.792,395.749,401.399,405.708,410.575,414.7582,417.841,426.316,431.184,435.025,439.8058,442.839,448.946,453.814,457.828,461.212,466.76,470.774,479.747,484.615,490.6906,493.781,499.908,504.217,507.174,513.088" svgx:width="0.33,0.58,0.4,0.55,0.6,0.56,0.58,0.55,0.6,0.33,0.55,0.33,0.58,0.48,0.55,0.42,0.33,0.6,0.61,0.56,0.25,0.55,0.5,0.6,0.5,0.4,0.33,0.55,0.33,0.4,0.55,0.88,0.55,0.58,0.55,0.4,0.88,0.5,0.29,0.55,0.58,0.56,0.56,0.29,0.48,0.58,0.48,0.55,0.33,0.4,0.48,0.5,0.33,0.88,0.48,0.58,0.33,0.25,0.55,0.52,0.56,0.29,0.58,0.55,0.5,0.58,0.5,0.29,0.56,0.42,0.48,0.42,0.55,0.83,0.48,0.4,0.48,0.55,0.6,0.48,0.4,0.33,0.55,0.4,0.88,0.48,0.61,0.55,0.6,0.42,0.29,0.58,0.56" style="fill:rgb(0,0,0);font-family:URWPalladioL-Roma;font-size:9.96px;stroke:none;">throughout the study, apart from normal hygiene treatment. Skin analyses were performed using</text>
   <text y="165.395" x="76.535,80.725,86.665,91.399,95.787,98.663,104.642,109.0244,111.53,117.47,121.186,126.582,132.047,136.781,140.9642,143.472,148.868,152.1548,154.659,157.881,163.633,168.4138,170.857,173.733,179.485,183.676,186.897,190.722,196.681,205.408,210.142,215.894,219.1808,221.616,226.804,232.201,235.492,238.7788,241.214,247.183,250.059,256.018,260.2012,262.699,265.99,272.997,277.939,280.814,283.69,288.424,293.919,298.861,302.764,305.6524,308.141,313.329,317.233,320.109,322.599,325.08,331.049,335.991,339.894,348.621,353.562,356.052,358.524,361.854,365.076,370.017,372.893,378.388,381.679,384.169,387.263,393.321,399.073,403.807,407.997,412.7778,415.222,421.161,424.887,430.283,435.749,440.483,444.6662,447.173,453.212,457.946,461.167,465.901,469.805,478.532,481.408,487.16,491.893,497.9686,500.422,504.613,510.108,512.984" svgx:width="0.42,0.6,0.48,0.44,0.29,0.61,0.44,0.55,0.6,0.4,0.55,0.55,0.48,0.42,0.55,0.55,0.33,0.55,0.33,0.58,0.48,0.55,0.29,0.58,0.42,0.33,0.4,0.6,0.88,0.48,0.58,0.33,0.55,0.52,0.55,0.33,0.33,0.55,0.6,0.29,0.6,0.42,0.55,0.33,0.71,0.5,0.29,0.29,0.48,0.56,0.5,0.4,0.29,0.55,0.52,0.4,0.29,0.25,0.55,0.6,0.5,0.4,0.88,0.5,0.25,0.55,0.34,0.33,0.5,0.29,0.56,0.33,0.25,0.55,0.61,0.58,0.48,0.42,0.48,0.55,0.6,0.4,0.55,0.55,0.48,0.42,0.55,0.61,0.48,0.33,0.48,0.4,0.88,0.29,0.58,0.48,0.61,0.55,0.42,0.56,0.29,0.58" style="fill:rgb(0,0,0);font-family:URWPalladioL-Roma;font-size:9.96px;stroke:none;">speciﬁc probes of the instrument Soft Plus (Callegari Srl, Parma, Italy). These probes determined skin</text>
   <text y="178.905" x="76.535,82.24,87.691,93.681,97.553,102.455,105.65,108.503,113.856,119.63279999999999,122.061,127.482,133.0596,135.433,139.785,144.687,150.579,155.48,159.833,162.686,165.881,171.4586,173.832,182.488,187.184,192.085,196.242,202.153,205.839,210.535,219.191,223.887,229.592,232.788,236.9712,239.445,242.297,248.0738,250.503,253.698,259.404,264.1848,266.599,270.472,275.373,281.079,286.529,291.3098,293.725,298.627,303.528,308.43,313.331,318.31100000000004,320.733,326.644,329.095,333.448,335.938,339.016,342.28,347.182,351.054,356.475,359.328,362.524,366.396,371.298,375.17,380.74760000000003,383.12,389.032,394.737,397.59,400.786,404.942,408.22880000000004,410.707,418.882,421.735,424.931,430.70779999999996,433.136,438.11600000000004,440.538,444.224,448.919,453.076,458.429,461.281,467.193,470.388,473.241,478.594,484.3708,486.799,492.151,495.43780000000004,497.916,502.896,505.317,511.229,513.679,518.032" svgx:width="0.58,0.56,0.61,0.4,0.5,0.33,0.29,0.55,0.58,0.55,0.55,0.56,0.55,0.44,0.5,0.6,0.5,0.44,0.29,0.33,0.56,0.55,0.88,0.48,0.5,0.42,0.6,0.4,0.48,0.88,0.48,0.58,0.33,0.42,0.55,0.29,0.58,0.55,0.33,0.58,0.48,0.55,0.4,0.5,0.58,0.56,0.48,0.55,0.5,0.5,0.5,0.5,0.5,0.55,0.6,0.25,0.44,0.25,0.55,0.33,0.5,0.4,0.55,0.29,0.33,0.4,0.5,0.4,0.56,0.55,0.6,0.58,0.29,0.33,0.42,0.33,0.55,0.83,0.29,0.33,0.58,0.55,0.5,0.55,0.4,0.48,0.42,0.55,0.29,0.6,0.33,0.29,0.55,0.58,0.55,0.55,0.33,0.55,0.5,0.55,0.6,0.25,0.44,0.25" style="fill:rgb(0,0,0);font-family:URWPalladioL-Roma;font-size:9.96px;stroke:none;">hydration by capacity measurements in the range 0–100 u.c. (arbitrary units) with a resolution of 1 u.c.</text>
   <text y="192.414" x="76.535,81.531,87.347,93.42259999999999,95.96,100.957,109.32339999999999,111.848,117.854,121.621,126.408,130.844,133.752,137.989,140.897,146.353,152.168,154.65800000000002,157.174,165.508,171.324,174.232,177.139,181.9198,184.434,188.671,191.928,195.695,200.482,204.719,208.955,215.011,221.116,225.903,229.23,234.686,238.633,247.457,252.453,255.71,258.618,264.074,269.8508,272.388,277.844,281.1308,283.679,287.916,293.472,296.38,302.1568,304.693,310.219,315.7966,318.283,322.52,328.546,332.982,336.24,339.148,344.603,350.3798,352.917,357.913,363.919,369.924,372.832,375.74,380.177,385.173,388.431,391.338,396.794,402.57079999999996,405.118,410.114,413.022,415.93,421.386,429.719,434.506,440.5816,443.109,451.933,456.719,461.715,465.952,471.978,475.745,480.531,489.355,494.141,499.957,503.214,507.3972,509.959,515.415" svgx:width="0.5,0.58,0.61,0.55,0.5,0.84,0.55,0.6,0.4,0.48,0.44,0.29,0.42,0.29,0.55,0.58,0.25,0.55,0.83,0.58,0.29,0.29,0.48,0.55,0.42,0.33,0.4,0.48,0.42,0.42,0.61,0.61,0.48,0.33,0.55,0.4,0.88,0.5,0.33,0.29,0.55,0.58,0.55,0.55,0.33,0.55,0.42,0.56,0.29,0.58,0.55,0.55,0.56,0.55,0.42,0.6,0.44,0.33,0.29,0.55,0.58,0.55,0.5,0.6,0.6,0.29,0.29,0.44,0.5,0.33,0.29,0.55,0.58,0.55,0.5,0.29,0.29,0.55,0.83,0.48,0.61,0.55,0.88,0.48,0.5,0.42,0.6,0.4,0.48,0.88,0.48,0.58,0.33,0.42,0.55,0.55,0.33" style="fill:rgb(0,0,0);font-family:URWPalladioL-Roma;font-size:9.96px;stroke:none;">and 5% precision, while stress/deformation of skin by suction application allowed measurements of</text>
   <text y="205.924" x="76.535,80.755,86.289,89.185,94.9618,97.465,102.233,105.129,110.105,114.325,117.57,120.466,124.885,127.781,131.026,136.6036,139.057,141.954,147.73080000000002,150.234,153.479,159.271,164.0518,166.527,170.458,175.434,181.227,186.76,191.5408,194.026,199.002,203.979,208.955,213.935,216.419,222.421,224.909,229.328,231.818,234.911,243.212,246.108,249.353,255.12980000000002,257.633,262.613,265.108,268.86,273.627,277.847,283.281,286.177,292.169,295.413,298.31,303.744,309.5208,312.034,317.468,320.75480000000005,323.271,328.25100000000003,330.745,336.747,339.235,343.654,346.144,349.227,354.204,359.996,366.0716,368.575,373.552,378.528,389.376,395.358,399.11,403.877,408.296,411.192,415.412,418.309,423.743,429.535,432.02500000000003,435.119,441.2,446.176,450.595,456.3718,458.876,467.664,472.431,477.407,481.627,487.629,491.381,496.148,504.936,509.704,515.496" svgx:width="0.42,0.56,0.29,0.58,0.55,0.48,0.29,0.5,0.42,0.33,0.29,0.44,0.29,0.33,0.56,0.55,0.29,0.58,0.55,0.33,0.58,0.48,0.55,0.4,0.5,0.58,0.56,0.48,0.55,0.5,0.5,0.5,0.5,0.55,0.6,0.25,0.44,0.25,0.55,0.83,0.29,0.33,0.58,0.55,0.5,0.55,0.4,0.48,0.42,0.55,0.29,0.6,0.33,0.29,0.55,0.58,0.55,0.55,0.33,0.55,0.5,0.55,0.6,0.25,0.44,0.25,0.55,0.5,0.58,0.61,0.55,0.5,0.5,0.84,0.6,0.4,0.48,0.44,0.29,0.42,0.29,0.55,0.58,0.25,0.55,0.61,0.5,0.44,0.58,0.55,0.88,0.48,0.5,0.42,0.6,0.4,0.48,0.88,0.48,0.58,0.33" style="fill:rgb(0,0,0);font-family:URWPalladioL-Roma;font-size:9.96px;stroke:none;">skin elasticity in the range 0–50 u.c. with a resolution of 1 u.c. and 10%precision. Each measurement</text>
   <text y="219.433" x="76.117,84.426,89.407,93.5902,96.122,102.109,106.882,110.817,114.134,119.574,123.509,132.306,137.078,143.1536,145.656,148.555,154.33180000000002,156.844,160.092,164.027,166.926,172.914,175.813,178.712,183.135,188.117,191.364,196.136" svgx:width="0.83,0.5,0.42,0.55,0.6,0.48,0.4,0.33,0.55,0.4,0.88,0.48,0.61,0.55,0.29,0.58,0.55,0.33,0.4,0.29,0.6,0.29,0.29,0.44,0.5,0.33,0.48,0.25" style="fill:rgb(0,0,0);font-family:URWPalladioL-Roma;font-size:9.96px;stroke:none;">was performed in triplicate.</text>
   <text y="232.942" x="97.795,101.132,106.9088,109.401,112.629,118.393,123.1738,125.632,129.831,134.574,138.971,144.378,150.141,156.2166,158.697,164.649,169.6,173.512,176.7988,179.236,184.643,187.9298,190.446,193.674,199.438,204.2188,206.677,210.875,214.104,220.075,226.126,230.523,233.013,235.504,240.455,243.753,246.981,251.724,255.708,258.142,263.122,265.588,270.995,276.759,281.502,284.8,293.544,298.951,304.715,307.943,313.71979999999996,316.212,324.471,329.422,333.621,339.384,342.682,348.089,354.06,357.289,359.779,362.26,365.488,371.252,376.0328,378.501,382.699,387.651,396.395,401.1758,403.634,407.833,413.804,419.28,421.598,426.341,430.738,433.966,438.1492,440.67,448.929,453.673,457.406,462.1868,464.645,468.378,473.122,478.668,484.639,489.382,493.581,496.809,501.553,507.6286,510.109,513.337" svgx:width="0.34,0.58,0.55,0.33,0.58,0.48,0.55,0.42,0.48,0.44,0.55,0.58,0.61,0.55,0.6,0.5,0.4,0.33,0.55,0.55,0.33,0.55,0.33,0.58,0.48,0.55,0.42,0.33,0.6,0.61,0.56,0.25,0.55,0.5,0.33,0.33,0.48,0.4,0.55,0.5,0.55,0.55,0.58,0.48,0.33,0.88,0.55,0.58,0.33,0.58,0.55,0.83,0.5,0.42,0.58,0.33,0.55,0.6,0.33,0.25,0.55,0.33,0.58,0.48,0.55,0.42,0.5,0.88,0.48,0.55,0.42,0.6,0.55,0.23,0.48,0.44,0.33,0.42,0.55,0.83,0.48,0.4,0.48,0.55,0.4,0.48,0.56,0.6,0.48,0.42,0.33,0.48,0.61,0.55,0.33,0.55" style="fill:rgb(0,0,0);font-family:URWPalladioL-Roma;font-size:9.96px;stroke:none;">In the second part of the study, after a one-month wash-out, the same subjects were requested to</text>
   <text y="246.452" x="76.535,81.526,87.526,93.525,96.43,102.00760000000001,104.466,107.72,113.53,118.3108,120.808,124.571,129.353,138.167,143.158,146.063,151.873,154.778,160.588,166.16559999999998,168.624,171.878,180.203,185.681,188.14,193.69,198.471,201.376,205.5592,208.105,213.096,218.906,224.98160000000001,227.491,230.745,236.555,241.3358,243.822,247.076,251.858,256.091,259.37780000000004,261.841,270.166,275.157,279.3402,281.876,287.875,292.657,296.6,299.924,305.374,309.317,318.132,322.914,328.9896,331.509,334.404,340.1808,342.709,345.963,351.773,356.5538,359.04,363.273,368.264,377.079,381.8598,384.356,388.788,394.239,400.049,406.148,409.053,412.307,415.212,420.663,426.472,430.6552,433.191,438.182,443.992,450.0676,452.577,458.596,462.829,465.734,471.544,477.1216,479.589,482.844,488.654,493.4348,495.921,500.153,505.145,513.959" svgx:width="0.5,0.6,0.6,0.29,0.56,0.55,0.33,0.58,0.48,0.55,0.4,0.48,0.88,0.5,0.29,0.58,0.29,0.58,0.56,0.55,0.33,0.83,0.55,0.55,0.56,0.48,0.29,0.42,0.55,0.5,0.58,0.61,0.55,0.33,0.58,0.48,0.55,0.33,0.48,0.42,0.33,0.55,0.83,0.5,0.42,0.55,0.6,0.48,0.4,0.33,0.55,0.4,0.88,0.48,0.61,0.55,0.29,0.58,0.55,0.33,0.58,0.48,0.55,0.42,0.5,0.88,0.48,0.55,0.44,0.55,0.58,0.61,0.29,0.33,0.29,0.55,0.58,0.42,0.55,0.5,0.58,0.61,0.55,0.6,0.42,0.29,0.58,0.56,0.55,0.33,0.58,0.48,0.55,0.42,0.5,0.88,0.48" style="fill:rgb(0,0,0);font-family:URWPalladioL-Roma;font-size:9.96px;stroke:none;">apply the remaining two gels and the test was performed in the same conditions and using the same</text>
   <text y="259.961" x="76.236,82.224,85.979,91.419,95.842,100.614,106.702,112.709,116.465,121.237,125.4202,127.952,132.933,138.731,144.8066,147.309,150.208,156.007,160.231,163.478,167.334,173.341,182.138,186.91,192.709,195.957,200.938,203.82639999999998,206.328,211.309,217.107,222.088,224.988,230.527,234.751,239.523,243.7062,246.238,252.325,257.097,261.321,265.745,269.68,272.579,278.088,282.86,288.9356,291.438,296.419,301.929,307.368,312.997,317.769" svgx:width="0.6,0.4,0.55,0.44,0.48,0.61,0.6,0.4,0.48,0.42,0.55,0.5,0.58,0.61,0.55,0.29,0.58,0.42,0.33,0.4,0.6,0.88,0.48,0.58,0.33,0.5,0.29,0.55,0.5,0.58,0.5,0.29,0.56,0.42,0.48,0.42,0.55,0.61,0.48,0.42,0.44,0.4,0.29,0.55,0.48,0.61,0.55,0.5,0.55,0.55,0.56,0.48,0.25" style="fill:rgb(0,0,0);font-family:URWPalladioL-Roma;font-size:9.96px;stroke:none;">procedures and instrumental analyses described above.</text>
   <text y="273.471" x="97.795,103.025,106.273,111.254,114.502,117.401,121.626,124.873,127.772,132.196,137.177,140.06539999999998,142.567,147.548,153.346,158.328,161.227,166.766,170.99,173.889,178.0722,180.604,186.044,189.3308,191.852,195.1,200.898,205.6788,208.161,211.917,216.689,220.913,226.92,229.819,233.067,237.2502,239.782,248.091,253.072,257.2552,259.787,265.774,270.546,274.482,277.799,283.239,287.174,295.971,300.743,306.8186,309.321,315.328,319.552,322.452,328.25,333.8276,336.28,341.51,344.758,350.765,356.852,361.625,367.423,370.671,374.895" svgx:width="0.52,0.33,0.5,0.33,0.29,0.42,0.33,0.29,0.44,0.5,0.29,0.55,0.5,0.58,0.5,0.29,0.56,0.42,0.29,0.42,0.55,0.55,0.33,0.55,0.33,0.58,0.48,0.55,0.4,0.48,0.42,0.6,0.29,0.33,0.42,0.55,0.83,0.5,0.42,0.55,0.6,0.48,0.4,0.33,0.55,0.4,0.88,0.48,0.61,0.55,0.6,0.42,0.29,0.58,0.56,0.55,0.52,0.33,0.6,0.61,0.48,0.58,0.33,0.42,0.28" style="fill:rgb(0,0,0);font-family:URWPalladioL-Roma;font-size:9.96px;stroke:none;">Statistical analysis of the results was performed using Students’</text>
   <text y="273.471" x="380.153" svgx:width="0.33" style="fill:rgb(0,0,0);font-family:URWPalladioL-Ital;font-size:9.96px;stroke:none;">t</text>
   <text y="273.471" x="385.961,389.209,393.981,398.205,401.4918,403.944" svgx:width="0.33,0.48,0.42,0.33,0.55,0.33" style="fill:rgb(0,0,0);font-family:URWPalladioL-Roma;font-size:9.96px;stroke:none;">test (</text>
   <text y="273.471" x="407.261" svgx:width="0.5" style="fill:rgb(0,0,0);font-family:URWPalladioL-Ital;font-size:9.96px;stroke:none;">p</text>
   <text y="273.471" x="414.733,420.8086,423.261,428.242,430.733,435.714,440.696,444.013" svgx:width="0.61,0.55,0.5,0.25,0.5,0.5,0.33,0.25" style="fill:rgb(0,0,0);font-family:URWPalladioL-Roma;font-size:9.96px;stroke:none;">&lt; 0.05).</text>
   <text y="296.684" x="76.535,81.516,84.006,87.095,94.288,99.27,103.693,109.78,113.098,116.415,120.79740000000001,123.329,128.311,134.398,140.4736,142.976,151.274,154.592,159.015,163.439,169.526,173.949,178.373,181.69,187.229" svgx:width="0.5,0.25,0.55,0.72,0.5,0.44,0.61,0.33,0.33,0.44,0.55,0.5,0.61,0.61,0.55,0.83,0.33,0.44,0.44,0.61,0.44,0.44,0.33,0.56,0.61" style="fill:rgb(0,0,0);font-family:URWPalladioL-Bold;font-size:9.96px;stroke:none;">3. Results and Discussion</text>
   <text y="319.897" x="76.535,81.516,84.007,88.988,91.478,94.567,100.107,102.876,107.857,110.627,115.607,118.099,125.85,130.273,135.812,140.236,145.217,149.641,153.516,156.834,159.603,163.658,166.428,170.303,174.1874,176.669,183.314,188.295,192.719,196.594,201.018,205.073,208.39,212.266,216.141,218.911,223.334,227.757,231.075,233.845,238.268" svgx:width="0.5,0.25,0.5,0.25,0.55,0.56,0.28,0.5,0.28,0.5,0.55,0.78,0.44,0.56,0.44,0.5,0.44,0.39,0.33,0.28,0.41,0.28,0.39,0.39,0.55,0.67,0.5,0.44,0.39,0.44,0.41,0.33,0.39,0.39,0.28,0.44,0.44,0.33,0.28,0.44,0.56" style="fill:rgb(0,0,0);font-family:URWPalladioL-Ital;font-size:9.96px;stroke:none;">3.1. Lipid Nanoparticles Characterization</text>
   <text y="339.384" x="97.795,105.662,109.8452,112.437,116.249,121.093,127.17,132.692,136.686,139.982,144.826,150.9016,153.492,156.435,162.2118,164.807,168.104,173.989,178.7698,181.31,184.253,187.196,190.492,195.336,199.33,204.386,207.683,213.78,217.602,222.3828,224.924" svgx:width="0.78,0.42,0.55,0.4,0.48,0.6,0.55,0.4,0.33,0.48,0.61,0.55,0.29,0.58,0.55,0.33,0.58,0.48,0.55,0.29,0.29,0.33,0.48,0.4,0.5,0.33,0.6,0.4,0.48,0.55,0.33" style="fill:rgb(0,0,0);font-family:URWPalladioL-Roma;font-size:9.96px;stroke:none;">As reported in the literature [</text>
   <text y="339.384" x="228.294,233.275" svgx:width="0.5,0.5" style="fill:rgb(8,117,183);font-family:URWPalladioL-Roma;font-size:9.96px;stroke:none;">29</text>
   <text y="339.384" x="238.257,241.624,244.114,246.64,249.936,255.822,260.6028,263.153,269.25,273.538,278.3188,280.859,286.38,289.6668,292.235,296.523,302.044,304.986,307.929,314.0046,316.595,319.538,322.48,328.557,331.5,337.679,341.8622,344.454,347.75,353.228,355.749,359.116,364.637,368.632,377.3968,380.048,383.345,389.23,394.0108,396.561,399.504,402.446,408.523,411.466,417.5416,420.132,426.017,431.073,436.958,442.48,446.969,452.025,456.02,460.014,462.957,467.8,471.784,474.282,478.772,484.293,488.105,492.8858,495.436,498.379,503.223,508.279,514.457" svgx:width="0.33,0.25,0.55,0.33,0.58,0.48,0.55,0.6,0.42,0.48,0.55,0.55,0.33,0.55,0.42,0.55,0.29,0.29,0.61,0.55,0.29,0.29,0.6,0.29,0.61,0.42,0.55,0.33,0.55,0.55,0.33,0.55,0.4,0.88,0.55,0.33,0.58,0.48,0.55,0.29,0.29,0.6,0.29,0.61,0.55,0.58,0.5,0.58,0.55,0.44,0.5,0.4,0.4,0.29,0.48,0.4,0.55,0.44,0.55,0.4,0.48,0.55,0.29,0.48,0.5,0.61,0.42" style="fill:rgb(0,0,0);font-family:URWPalladioL-Roma;font-size:9.96px;stroke:none;">], the use of solid lipids to form the lipid nanocarrier core leads</text>
   <text y="352.893" x="76.535,79.793,85.271,87.747,93.562,98.558,104.374,109.83,115.835,120.832,124.779,128.036,130.944,135.381,138.289,143.075,147.2582,149.81,155.915,160.702,166.747,172.563,177.349,183.4246,185.953,190.949,195.1322,197.694,202.94,209.045,217.349,221.5322,224.084,232.418,238.234,241.141,244.049,248.8298,251.334,254.591,260.407,265.1878,267.691,273.717,277.954,282.7348,285.238,290.694,293.98080000000004,296.52,305.343,308.251,313.407,316.665,322.69,326.457,331.244,335.4272,337.978,343.434,346.72080000000005,349.26,353.497,358.953,361.861,364.768,370.8436,373.382,378.378,384.194,390.2696,392.797,395.705,398.613,404.209,410.234,413.142,419.2176,421.745,424.653,427.561,433.567,436.474,442.58,446.7632,449.315,453.082,457.868,462.105,468.131,471.038,474.296,478.4792,481.031,483.939,489.7158,492.252,500.556,506.662,513.746,517.983" svgx:width="0.33,0.55,0.55,0.58,0.5,0.58,0.55,0.6,0.5,0.4,0.33,0.29,0.44,0.29,0.48,0.42,0.55,0.61,0.48,0.61,0.58,0.48,0.61,0.55,0.5,0.42,0.55,0.52,0.61,0.83,0.42,0.55,0.83,0.58,0.29,0.29,0.48,0.55,0.33,0.58,0.48,0.55,0.6,0.42,0.48,0.55,0.55,0.33,0.55,0.88,0.29,0.52,0.33,0.6,0.4,0.48,0.42,0.55,0.55,0.33,0.55,0.42,0.55,0.29,0.29,0.61,0.55,0.5,0.58,0.61,0.55,0.29,0.29,0.56,0.6,0.29,0.61,0.55,0.29,0.29,0.6,0.29,0.61,0.42,0.55,0.4,0.48,0.42,0.6,0.29,0.33,0.42,0.55,0.29,0.58,0.55,0.83,0.61,0.71,0.42,0.25" style="fill:rgb(0,0,0);font-family:URWPalladioL-Roma;font-size:9.96px;stroke:none;">to nanoparticles deﬁned as SLNs while the use of mixtures of solid and liquid lipids results in NLCs.</text>
   <text y="366.402" x="76.226,82.37,88.203,93.003,96.782,101.583,104.92,110.392,114.171,118.971,121.461,123.973,126.889,132.6658,135.208,138.475,144.308,147.224,151.4072,153.96,162.318,167.79,171.749,177.322,179.812,182.323,185.239,188.156,194.179,197.096,203.1716,205.705,211.538,216.549,222.382,227.854,233.878,238.889,242.848,246.115,249.032,253.482,256.398,261.199,265.3822,267.934,270.85,276.323,281.334,287.457,290.374,296.207,301.7846,304.275,308.053,313.526,317.775,322.576,331.426,336.437,340.396,345.97360000000003,348.454,354.577,362.4454,364.951,373.309,378.11,381.888,386.6688,389.175,392.953,397.754,403.326,408.337,412.116,418.24,423.04,429.11560000000003,431.659,436.671,440.8542,443.406,451.734,457.858,464.964,469.213,471.70300000000003,474.204,479.747,484.547,487.464,493.297,498.87460000000004,501.365,504.632,510.465,515.477" svgx:width="0.61,0.58,0.48,0.4,0.48,0.33,0.55,0.4,0.48,0.25,0.55,0.29,0.58,0.55,0.33,0.58,0.29,0.42,0.55,0.83,0.55,0.4,0.56,0.25,0.55,0.29,0.29,0.6,0.29,0.61,0.55,0.58,0.5,0.58,0.55,0.6,0.5,0.4,0.33,0.29,0.44,0.29,0.48,0.42,0.55,0.29,0.55,0.5,0.61,0.29,0.58,0.56,0.55,0.4,0.55,0.42,0.48,0.88,0.5,0.4,0.56,0.55,0.61,0.79,0.55,0.83,0.48,0.4,0.48,0.55,0.4,0.48,0.56,0.5,0.4,0.61,0.48,0.61,0.55,0.5,0.42,0.55,0.83,0.61,0.71,0.42,0.25,0.55,0.55,0.48,0.29,0.58,0.56,0.55,0.33,0.58,0.5,0.33" style="fill:rgb(0,0,0);font-family:URWPalladioL-Roma;font-size:9.96px;stroke:none;">Therefore, in this work, lipid nanoparticles loading rosemary EO were regarded as NLCs, being that</text>
   <text y="379.912" x="76.535,79.783,85.581,90.353,93.252,97.23599999999999,99.678,102.577,105.476,111.464,114.363,120.4386,122.941,128.928,134.727,139.708,143.932,148.7128,151.195,159.504,164.485,168.6682,171.2,176.17999999999998,178.672,187.469,190.368,195.508,198.756,204.764,208.519,213.2998,215.782,221.222,224.5088,227.03,231.254,236.694,239.593,242.492,248.5676,251.07,253.969,256.868,262.855,265.755,271.8306,274.332,277.65,282.073,286.845,290.093,295.632,298.5204,301.022,307.01,311.991,314.89,323.687,326.586,329.834,334.815,338.063,342.835,346.1218,348.643,353.625,359.423,365.4986,368.001,370.9,373.799,379.378,385.385,388.285,394.36060000000003,396.862,399.761,402.661,408.648,411.547,417.62260000000003,420.125,423.443,427.198,432.638,436.862,441.634,450.431,455.413,459.348,464.92560000000003,467.378,473.465,481.295,484.613" svgx:width="0.33,0.58,0.48,0.29,0.4,0.55,0.29,0.29,0.6,0.29,0.61,0.55,0.6,0.58,0.5,0.42,0.48,0.55,0.83,0.5,0.42,0.55,0.5,0.55,0.88,0.29,0.52,0.33,0.6,0.4,0.48,0.55,0.55,0.33,0.55,0.42,0.55,0.29,0.29,0.61,0.55,0.29,0.29,0.6,0.29,0.61,0.55,0.33,0.44,0.48,0.33,0.56,0.29,0.55,0.6,0.5,0.29,0.88,0.29,0.33,0.5,0.33,0.48,0.33,0.55,0.5,0.58,0.61,0.55,0.29,0.29,0.56,0.6,0.29,0.61,0.55,0.29,0.29,0.6,0.29,0.61,0.55,0.33,0.4,0.55,0.42,0.48,0.88,0.5,0.4,0.56,0.55,0.61,0.79,0.33,0.25" style="fill:rgb(0,0,0);font-family:URWPalladioL-Roma;font-size:9.96px;stroke:none;">their lipid phase was a mixture of solid lipid (cetyl palmitate) and liquid lipid (rosemary EO).</text>
   <text y="393.421" x="97.795,105.492,109.6752,112.189,116.384,122.141,127.543,135.793,141.56980000000001,144.054,146.933,152.7098,155.193,160.338,165.284,170.755,173.634" svgx:width="0.78,0.42,0.55,0.42,0.58,0.55,0.83,0.58,0.55,0.29,0.58,0.55,0.61,0.5,0.55,0.29,0.48" style="fill:rgb(0,0,0);font-family:URWPalladioL-Roma;font-size:9.96px;stroke:none;">As shown in Table</text>
   <text y="393.421" x="180.875" svgx:width="0.5" style="fill:rgb(8,117,183);font-family:URWPalladioL-Roma;font-size:9.96px;stroke:none;">3</text>
   <text y="393.421" x="185.822,188.312,190.808,196.773,202.531,205.41,210.811,215.758,221.802,226.541,232.6166,235.088,237.967,240.846,246.791,249.67,255.7456,258.218,263.975,268.922,274.679,280.081,286.027,290.973,294.881,298.106,300.985,305.377,308.256,312.994,317.1772,319.692,324.084,329.486,335.244,338.469,343.415,346.294,352.052,354.93,360.688,366.2656,368.691,374.093,379.85,382.729,388.3066,390.733,393.958,399.705,404.4858,406.947,411.142,416.543,419.422,422.301,428.3766,430.848,433.727,436.606,442.551,445.43,451.5056,453.978,458.37,463.109,466.334,471.834,474.7224,477.216,483.162,488.108,490.987,499.722,502.601,505.826,510.773,513.998" svgx:width="0.25,0.55,0.6,0.58,0.29,0.55,0.5,0.61,0.48,0.61,0.55,0.29,0.29,0.6,0.29,0.61,0.55,0.58,0.5,0.58,0.55,0.6,0.5,0.4,0.33,0.29,0.44,0.29,0.48,0.42,0.55,0.44,0.55,0.58,0.33,0.5,0.29,0.58,0.29,0.58,0.56,0.55,0.55,0.58,0.29,0.56,0.55,0.33,0.58,0.48,0.55,0.42,0.55,0.29,0.29,0.61,0.55,0.29,0.29,0.6,0.29,0.61,0.55,0.44,0.48,0.33,0.56,0.29,0.55,0.6,0.5,0.29,0.88,0.29,0.33,0.5,0.33,0.48" style="fill:rgb(0,0,0);font-family:URWPalladioL-Roma;font-size:9.96px;stroke:none;">, unloaded lipid nanoparticles containing only the solid lipid cetyl palmitate</text>
   <text y="406.931" x="76.207,79.591,84.926,91.135,99.40180000000001,102.079,109.985,113.2718,115.859,120.167,126.081,131.63,140.105,144.972,151.04760000000002,153.681,157.99,166.963,172.043,175.001,177.8894,180.457,184.766,187.723,192.804,197.672,201.8552,204.48,207.864,212.945,218.026,220.566,225.647,230.62699999999998,233.218,239.132,248.105,251.3918,253.989,259.07,264.984,271.0596,273.692,279.607,284.688,288.701,292.532,298.081,306.3478,309.056,315.265,318.222,327.195,332.062,337.976,342.285,345.242,350.79,356.704,361.785,364.6734,367.242,373.451,376.408,380.717,384.03,388.044,391.001,396.62,402.748,406.061,409.018,414.566,420.34279999999995,422.97,426.354,432.461,438.009,440.967,446.617,452.825,455.783,460.091,466.198,471.066,475.08,479.389,482.346,485.658,491.23560000000003,493.808,496.765,502.679,508.888,513.756" svgx:width="0.33,0.52,0.61,0.83,0.55,0.78,0.33,0.55,0.42,0.58,0.55,0.83,0.48,0.61,0.55,0.42,0.88,0.5,0.29,0.29,0.55,0.42,0.29,0.5,0.48,0.42,0.55,0.33,0.5,0.5,0.25,0.5,0.5,0.55,0.58,0.88,0.33,0.55,0.5,0.58,0.61,0.55,0.58,0.5,0.4,0.4,0.55,0.83,0.55,0.61,0.29,0.88,0.48,0.58,0.42,0.29,0.55,0.58,0.5,0.29,0.55,0.61,0.29,0.42,0.33,0.4,0.29,0.55,0.6,0.33,0.29,0.55,0.58,0.55,0.33,0.6,0.55,0.29,0.56,0.61,0.29,0.42,0.6,0.48,0.4,0.42,0.29,0.33,0.56,0.55,0.29,0.58,0.61,0.48,0.52" style="fill:rgb(0,0,0);font-family:URWPalladioL-Roma;font-size:9.96px;stroke:none;">(SLN A) showed small sizes (36.45 nm) and narrow dimensional distribution (polydispersity index</text>
   <text y="420.44" x="76.535,81.561,84.074,89.1,94.126,99.153,102.5,104.99,107.496,110.421,116.1978,118.755,123.781,128.244,132.707,138.196,141.985,148.127,153.153,159.004,163.467,168.2478,170.765,179.149,182.074,185.351,191.1278,193.674,199.715,203.515,208.33,214.01,216.935,222.424,228.485,232.6682,235.22,239.482,242.759,248.821,254.963,257.888,262.703,266.8862,269.448" svgx:width="0.5,0.25,0.5,0.5,0.5,0.33,0.25,0.55,0.29,0.58,0.55,0.5,0.44,0.44,0.55,0.4,0.61,0.5,0.58,0.44,0.48,0.55,0.83,0.29,0.33,0.58,0.55,0.6,0.4,0.48,0.56,0.29,0.55,0.6,0.42,0.55,0.42,0.33,0.6,0.61,0.29,0.48,0.42,0.55,0.33" style="fill:rgb(0,0,0);font-family:URWPalladioL-Roma;font-size:9.96px;stroke:none;">0.208), in accordance with previous studies [</text>
   <text y="420.44" x="272.796,277.777" svgx:width="0.5,0.5" style="fill:rgb(8,117,183);font-family:URWPalladioL-Roma;font-size:9.96px;stroke:none;">27</text>
   <text y="420.44" x="282.758" svgx:width="0.25" style="fill:rgb(0,0,0);font-family:URWPalladioL-Roma;font-size:9.96px;stroke:none;">,</text>
   <text y="420.44" x="285.271,290.252" svgx:width="0.5,0.5" style="fill:rgb(8,117,183);font-family:URWPalladioL-Roma;font-size:9.96px;stroke:none;">30</text>
   <text y="420.44" x="295.234,298.581,301.071,304.181,314.233,320.083,324.898,330.6748,333.232,337.021,342.51,346.772,351.587,360.463,365.489,369.46,375.0376,377.532,383.02,385.946,388.8344,391.344,399.727,404.753,408.9362,411.498,420.375,423.3,428.487,433.302,439.37760000000003,441.927,444.852,450.62879999999996,453.185,459.327,462.252,465.419,468.766,473.581,477.371,482.186,488.036,491.32280000000003,493.786,497.757,502.783,506.06,508.985,514.474" svgx:width="0.33,0.25,0.55,1.0,0.58,0.48,0.58,0.55,0.4,0.55,0.42,0.48,0.88,0.5,0.4,0.56,0.55,0.55,0.29,0.29,0.55,0.83,0.5,0.42,0.55,0.88,0.29,0.52,0.48,0.61,0.55,0.29,0.58,0.55,0.61,0.29,0.33,0.33,0.48,0.4,0.48,0.58,0.33,0.55,0.4,0.5,0.33,0.29,0.55,0.42" style="fill:rgb(0,0,0);font-family:URWPalladioL-Roma;font-size:9.96px;stroke:none;">]. When rosemary oil was mixed in different ratios</text>
   <text y="433.949" x="76.117,84.592,87.549,90.862,96.63879999999999,100.485,104.997,109.865,113.177,118.827,121.7154,125.504,131.611,136.692,139.649,148.622,151.579,154.892,159.973,163.285,168.153,170.643,174.707,183.152,189.361,196.565,200.7482,204.593,213.068,216.025,219.338,225.1148,228.961,235.17,238.127,241.339,244.712,249.58,253.421,258.289,264.203,267.4898,271.225,280.198,285.065,290.146,295.9228,299.769,304.078,307.035,312.116,316.983,321.1662,325.011,330.092,336.006,342.0816,345.924,352.032,357.58,360.537,366.187,372.396,375.353,379.662,385.769,390.636,394.65,398.959,401.916,405.229,410.8066,414.598,417.555,423.469,429.678,434.546,439.789,444.657,448.8402,452.675,461.15,466.017,469.848,474.6288,478.435,483.983,489.603,492.915,497.996,500.953,506.868,511.735,517.944" svgx:width="0.83,0.29,0.33,0.58,0.55,0.44,0.48,0.33,0.56,0.29,0.55,0.6,0.5,0.29,0.88,0.29,0.33,0.5,0.33,0.48,0.25,0.55,0.83,0.61,0.71,0.42,0.55,0.83,0.29,0.33,0.58,0.55,0.61,0.29,0.33,0.33,0.48,0.4,0.48,0.58,0.33,0.55,0.88,0.48,0.5,0.58,0.55,0.42,0.29,0.5,0.48,0.42,0.55,0.5,0.58,0.61,0.55,0.6,0.55,0.29,0.56,0.61,0.29,0.42,0.6,0.48,0.4,0.42,0.29,0.33,0.56,0.55,0.29,0.58,0.61,0.48,0.52,0.48,0.42,0.55,0.83,0.48,0.4,0.48,0.55,0.55,0.55,0.33,0.5,0.29,0.58,0.48,0.61,0.25" style="fill:rgb(0,0,0);font-family:URWPalladioL-Roma;font-size:9.96px;stroke:none;">with cetyl palmitate, NLCs with different mean sizes and polydispersity indexes were obtained.</text>
   <text y="447.459" x="76.037,86.199,92.113,96.981,102.75779999999999,107.102,110.415,116.329,121.10979999999999,125.403,128.716,134.264,137.577,142.658,145.54639999999998,149.822,154.903,163.876,169.424,175.552,181.466,184.7528,188.986,194.534,197.8208,202.135,205.092,208.05,214.157,217.114,223.1896,227.53,233.637,239.551,244.632,248.941,253.7218,258.015,261.399,265.708,271.256,274.213,277.171,283.2466,287.586,290.543,293.501,299.608,302.565,308.6406,312.981,319.088,322.045,328.173,332.3562,336.688,342.237,345.194,348.151,351.43780000000004,355.742,364.217,369.298,373.4812,377.813,386.786,391.867,394.824,400.739,404.051,409.132,412.089,418.004,422.871,428.9466,433.297,437.809,443.357,449.272,453.58,456.883,461.964,467.878,471.1648,475.408,478.792,483.873" svgx:width="1.0,0.58,0.48,0.58,0.55,0.33,0.58,0.48,0.55,0.33,0.55,0.33,0.5,0.29,0.55,0.5,0.88,0.55,0.6,0.58,0.33,0.55,0.55,0.33,0.55,0.29,0.29,0.6,0.29,0.61,0.55,0.6,0.58,0.5,0.42,0.48,0.55,0.33,0.42,0.55,0.29,0.29,0.61,0.55,0.29,0.29,0.6,0.29,0.61,0.55,0.6,0.29,0.6,0.42,0.55,0.55,0.29,0.29,0.33,0.55,0.83,0.5,0.42,0.55,0.88,0.5,0.29,0.58,0.33,0.5,0.29,0.58,0.48,0.61,0.55,0.44,0.55,0.58,0.42,0.33,0.5,0.58,0.33,0.55,0.33,0.5,0.84" style="fill:rgb(0,0,0);font-family:URWPalladioL-Roma;font-size:9.96px;stroke:none;">When the total amount of lipid phase (solid lipid plus oil) was maintained constant (7%</text>
   <text y="447.459" x="496.613" svgx:width="0.72" style="fill:rgb(0,0,0);font-family:URWPalladioL-Ital;font-size:9.96px;stroke:none;">w</text>
   <text y="447.459" x="503.95" svgx:width="0.61" style="fill:rgb(0,0,0);font-family:URWPalladioL-Roma;font-size:9.96px;stroke:none;">/</text>
   <text y="447.459" x="510.108" svgx:width="0.72" style="fill:rgb(0,0,0);font-family:URWPalladioL-Ital;font-size:9.96px;stroke:none;">w</text>
   <text y="447.459" x="517.445" svgx:width="0.25" style="fill:rgb(0,0,0);font-family:URWPalladioL-Roma;font-size:9.96px;stroke:none;">,</text>
   <text y="460.968" x="76.535,84.979,91.188,98.2596,101.33,107.539,113.748,121.735,126.816,131.897,136.978,140.362,142.852,145.961,151.042,156.8188,159.903,162.86,168.774,173.286,177.117,181.985,190.957,195.825,201.739,205.0258,207.989,213.537,216.8238,219.868,225.416,228.373,231.26139999999998,234.267,238.779,244.327,250.242,253.554,258.422,264.336,267.62280000000004,270.596,273.553,278.42,284.4956,287.566,290.879,296.357,299.374,304.455,310.23179999999996,313.306,316.263,322.177,326.689,330.52,335.388,340.469,344.777,349.5578,352.592,358.14,361.4268,364.461,373.434,378.301,383.382,389.1588,392.243,398.351,403.432,407.445,410.758,413.715,418.227,421.184,425.9648,428.989,433.297,436.254,441.335,446.203,448.693,453.184,458.834,464.382,468.366,471.343,474.656,480.57,485.438,489.746,494.5268,497.551,500.508,503.465,509.572,512.529" svgx:width="0.83,0.61,0.71,0.55,0.61,0.61,0.79,0.5,0.5,0.5,0.33,0.25,0.55,0.5,0.58,0.55,0.29,0.58,0.44,0.4,0.48,0.88,0.48,0.58,0.33,0.55,0.55,0.33,0.55,0.55,0.29,0.29,0.55,0.44,0.55,0.58,0.33,0.48,0.58,0.33,0.55,0.29,0.48,0.61,0.55,0.33,0.55,0.55,0.5,0.58,0.55,0.29,0.58,0.44,0.4,0.48,0.5,0.42,0.48,0.55,0.55,0.33,0.55,0.88,0.48,0.5,0.58,0.55,0.6,0.5,0.4,0.33,0.29,0.44,0.29,0.48,0.55,0.42,0.29,0.5,0.48,0.25,0.55,0.56,0.55,0.4,0.55,0.33,0.58,0.48,0.42,0.48,0.55,0.29,0.29,0.6,0.29,0.61" style="fill:rgb(0,0,0);font-family:URWPalladioL-Roma;font-size:9.96px;stroke:none;">NLC BEO1–4), an increment of oil content led to an increase of mean particle size. For these lipid</text>
   <text y="474.477" x="76.535,82.217,87.099,92.781,98.112,103.98,108.861,112.718,115.901,118.742,123.077,125.918,130.595,134.734,137.22400000000002,139.645,145.513,150.844,153.685,159.113,165.079,167.92,172.06,177.927,182.604,186.461,190.6,193.441,196.624,202.20159999999998,204.523,207.364,213.046,219.012,223.688,228.8672,231.196,236.713,241.594,244.435,250.323,254.999,259.1822,261.609,269.752,274.428,278.109,282.8898,285.256,290.938,293.779,299.208,304.89,309.567,313.551,315.884,319.066,324.749,329.63,335.4068,337.783,342.664,345.105,349.987,354.869,359.75,362.24,364.671,367.854,373.536,379.423,383.6062,386.033,388.874,394.557,400.522,403.363,407.698,412.58,415.763,418.604,424.286,429.8636,432.185,435.367,441.05,445.931,449.2178,451.575,454.758,460.44,465.2208,467.587,473.552,476.393,480.533,483.716,487.572,490.413,495.812,501.7,504.883,507.724,513.054" svgx:width="0.58,0.5,0.58,0.55,0.6,0.5,0.4,0.33,0.29,0.44,0.29,0.48,0.42,0.25,0.55,0.6,0.55,0.29,0.56,0.61,0.29,0.42,0.6,0.48,0.4,0.42,0.29,0.33,0.56,0.55,0.29,0.58,0.61,0.48,0.52,0.55,0.56,0.5,0.29,0.6,0.48,0.42,0.55,0.83,0.48,0.4,0.48,0.55,0.58,0.29,0.56,0.58,0.48,0.4,0.55,0.33,0.58,0.5,0.58,0.55,0.5,0.25,0.5,0.5,0.5,0.25,0.55,0.33,0.58,0.6,0.42,0.55,0.29,0.58,0.61,0.29,0.44,0.5,0.33,0.29,0.58,0.56,0.55,0.33,0.58,0.5,0.33,0.55,0.33,0.58,0.48,0.55,0.61,0.29,0.42,0.33,0.4,0.29,0.55,0.6,0.33,0.29,0.55,0.58" style="fill:rgb(0,0,0);font-family:URWPalladioL-Roma;font-size:9.96px;stroke:none;">nanoparticles, polydispersity index values were higher than 0.300, thus indicating that the distribution</text>
   <text y="487.987" x="76.535,82.622,85.521,91.5966,94.099,99.897,105.337,108.6238,111.075,115.499,120.938,126.737,130.961,133.86,138.084,141.3708,143.822,149.262,152.5488,155.07,160.04999999999998,162.542,166.766,169.665,175.464,181.003,183.902,188.6828,191.165,195.389,198.288,203.269,208.0498,210.532,219.329,224.768,230.856,235.628" svgx:width="0.61,0.29,0.61,0.55,0.58,0.55,0.33,0.55,0.44,0.55,0.58,0.42,0.29,0.42,0.33,0.55,0.55,0.33,0.55,0.5,0.55,0.42,0.29,0.58,0.56,0.29,0.48,0.55,0.42,0.29,0.5,0.48,0.55,0.88,0.55,0.61,0.48,0.25" style="fill:rgb(0,0,0);font-family:URWPalladioL-Roma;font-size:9.96px;stroke:none;">did not consist of a single size mode.</text>
   <text y="512.723" x="97.499,102.484,106.968,112.446,115.432,119.917,124.587,129.07" svgx:width="0.67,0.5,0.61,0.33,0.5,0.55,0.5,0.25" style="fill:rgb(0,0,0);font-family:URWPalladioL-Bold;font-size:8.97px;stroke:none;">Table 3.</text>
   <text y="512.723" x="141.381,150.033,154.414,158.987,164.18959999999998,168.983,172.861,175.522,180.095,184.4006,189.14,192.186,198.286,201.331,207.623,212.791" svgx:width="0.95,0.48,0.5,0.58,0.55,0.42,0.29,0.5,0.48,0.55,0.33,0.67,0.33,0.78,0.56,0.48" style="fill:rgb(0,0,0);font-family:URWPalladioL-Roma;font-size:8.97px;stroke:none;">Mean size (Z-Ave</text>
   <text y="512.723" x="221.957" svgx:width="0.78" style="fill:rgb(0,0,0);font-family:CMSY10;font-size:9.34px;stroke:none;">±</text>
   <text y="512.723" x="234.004,237.882,240.863,245.436,250.759,256.347,260.92,264.368,269.8397,274.629,280.217,284.598,289.766,292.427,297.0,299.981,302.643,307.636,312.83860000000004,317.633,320.678,325.48,327.766,334.845,337.131,340.177,343.222,345.4645,350.786,356.282,361.276,363.937,369.022,374.61,377.272,381.15,386.646,391.027,394.64,398.517,401.179,404.16,409.1832,413.919,416.58,421.903,427.491,431.872,436.5364,441.255,444.301,449.825,456.904" svgx:width="0.42,0.33,0.5,0.58,0.61,0.5,0.4,0.61,0.55,0.61,0.48,0.56,0.29,0.5,0.33,0.29,0.55,0.58,0.55,0.33,0.52,0.25,0.77,0.25,0.33,0.33,0.25,0.55,0.6,0.55,0.29,0.56,0.61,0.29,0.42,0.6,0.48,0.4,0.42,0.29,0.33,0.56,0.55,0.29,0.58,0.61,0.48,0.52,0.55,0.33,0.6,0.77,0.34" style="fill:rgb(0,0,0);font-family:URWPalladioL-Roma;font-size:8.97px;stroke:none;">standard deviation (S.D.)), polydispersity index (PDI</text>
   <text y="512.723" x="464.77" svgx:width="0.78" style="fill:rgb(0,0,0);font-family:CMSY10;font-size:9.34px;stroke:none;">±</text>
   <text y="512.723" x="476.816,481.618,483.904,490.983,493.269,496.315" svgx:width="0.52,0.25,0.77,0.25,0.33,0.25" style="fill:rgb(0,0,0);font-family:URWPalladioL-Roma;font-size:8.97px;stroke:none;">S.D.),</text>
   <text y="525.545" x="97.795" svgx:width="0.51" style="fill:rgb(0,0,0);font-family:EURM10;font-size:8.97px;stroke:none;">ζ</text>
   <text y="525.545" x="105.495,110.992,115.985,118.967,123.347,128.67,131.652,134.313,138.886,141.4873,144.657" svgx:width="0.6,0.55,0.33,0.48,0.58,0.33,0.29,0.5,0.29,0.55,0.33" style="fill:rgb(0,0,0);font-family:URWPalladioL-Roma;font-size:8.97px;stroke:none;">potential (</text>
   <text y="525.545" x="147.812" svgx:width="0.78" style="fill:rgb(0,0,0);font-family:CMSY10;font-size:9.34px;stroke:none;">±</text>
   <text y="525.545" x="158.295,163.097,165.383,172.462,174.748,177.7081,180.903,185.476,190.799,196.2707,199.497,204.993,210.316,214.889,218.767,223.0726,226.257,228.918,234.241,239.408,243.789,247.393,251.27,253.932,258.925,264.12760000000003,267.358,270.339,274.72,282.796,288.292,292.673,296.286,300.859,303.84,309.355,312.812,317.11760000000004,320.293,323.339,328.863,331.945,337.551,340.5111,343.706,348.7,351.6601,354.855,360.37,365.693,368.354,373.348,377.921,383.509,387.889,393.3607,396.587,401.16,406.483,411.9547,415.18,418.628,423.622,427.5,431.88,439.956,444.529,448.141,453.1642,456.336,461.33,463.991,466.652,469.698,472.359,477.353,481.926,487.514,491.895" svgx:width="0.52,0.25,0.77,0.25,0.33,0.55,0.5,0.58,0.61,0.55,0.6,0.58,0.5,0.42,0.48,0.55,0.29,0.58,0.56,0.48,0.4,0.42,0.29,0.55,0.58,0.55,0.33,0.48,0.88,0.6,0.48,0.4,0.5,0.33,0.6,0.4,0.48,0.55,0.33,0.6,0.34,0.61,0.33,0.55,0.55,0.33,0.55,0.6,0.58,0.29,0.55,0.5,0.61,0.48,0.61,0.55,0.5,0.58,0.61,0.55,0.4,0.55,0.42,0.48,0.88,0.5,0.4,0.56,0.55,0.55,0.29,0.29,0.33,0.29,0.55,0.5,0.61,0.48,0.61" style="fill:rgb(0,0,0);font-family:URWPalladioL-Roma;font-size:8.97px;stroke:none;">S.D.) and phase inversion temperature (PIT) of unloaded and rosemary oil-loaded</text>
   <text y="538.367" x="97.795,100.404,103.013,108.402,111.011,116.4827,118.732,123.95,128.433,133.652,138.547,143.936,148.419,151.961,154.884,157.493,161.474,164.084,168.379,172.18" svgx:width="0.29,0.29,0.6,0.29,0.61,0.55,0.58,0.5,0.58,0.55,0.6,0.5,0.4,0.33,0.29,0.44,0.29,0.48,0.42,0.25" style="fill:rgb(0,0,0);font-family:URWPalladioL-Roma;font-size:8.97px;stroke:none;">lipid nanoparticles.</text>
  </g>
  <path style="fill:none;stroke:rgb(0,0,0);stroke-width:1.0;" d="M112.540 552.570 L482.740 552.570 "/>
  <g begin="text">
   <text y="563.432" x="131.645,138.119,143.104,148.583,153.068,178.772,184.753,187.739,194.087,199.072,203.55700000000002,205.797,208.783,214.261,222.233,225.19310000000002,260.618,266.096,273.565" svgx:width="0.72,0.56,0.61,0.5,0.55,0.67,0.33,0.78,0.56,0.5,0.55,0.33,0.61,0.89,0.33,0.55,0.61,0.83,0.39" style="fill:rgb(0,0,0);font-family:URWPalladioL-Bold;font-size:8.97px;stroke:none;">Code Z-Ave (nm) PDI</text>
   <text y="563.432" x="315.758" svgx:width="0.52" style="fill:rgb(0,0,0);font-family:EURB10;font-size:8.97px;stroke:none;">ζ</text>
   <text y="563.432" x="322.695,328.173,333.159,336.145,340.628,346.106,349.092,352.078,356.561" svgx:width="0.61,0.56,0.33,0.5,0.61,0.33,0.33,0.5,0.33" style="fill:rgb(0,0,0);font-family:URWPalladioL-Bold;font-size:8.97px;stroke:none;">potential</text>
   <text y="563.432" x="361.9" svgx:width="0.89" style="fill:rgb(0,0,0);font-family:CMBSY10;font-size:9.34px;stroke:none;">±</text>
   <text y="563.432" x="372.61,378.089,380.33,387.799,390.0415,392.282,395.268,403.239,410.215,413.1751,435.68,441.158,444.646,450.65590000000003,452.868" svgx:width="0.61,0.25,0.83,0.25,0.55,0.33,0.89,0.78,0.33,0.55,0.61,0.39,0.67,0.55,0.33" style="fill:rgb(0,0,0);font-family:URWPalladioL-Bold;font-size:8.97px;stroke:none;">S.D. (mV) PIT (</text>
   <text y="560.177" x="455.943" svgx:width="0.57" style="fill:rgb(0,0,0);font-family:CMBSY10;font-size:7.27px;stroke:none;">◦</text>
   <text y="563.432" x="460.699,467.173" svgx:width="0.72,0.33" style="fill:rgb(0,0,0);font-family:URWPalladioL-Bold;font-size:8.97px;stroke:none;">C)</text>
  </g>
  <path style="fill:none;stroke:rgb(0,0,0);stroke-width:0.8;" d="M112.540 568.630 L482.740 568.630 "/>
  <g begin="text">
   <text y="579.242" x="138.868,145.8646,180.32,184.803,189.286,191.528" svgx:width="0.78,0.55,0.5,0.5,0.25,0.5" style="fill:rgb(0,0,0);font-family:URWPalladioL-Roma;font-size:8.97px;stroke:none;">A 36.5</text>
   <text y="579.242" x="198.366" svgx:width="0.78" style="fill:rgb(0,0,0);font-family:CMSY10;font-size:9.34px;stroke:none;">±</text>
   <text y="579.242" x="207.982,212.465,214.707,219.19,223.675,242.682,247.165,249.407,253.89,258.373" svgx:width="0.5,0.25,0.5,0.5,0.55,0.5,0.25,0.5,0.5,0.5" style="fill:rgb(0,0,0);font-family:URWPalladioL-Roma;font-size:8.97px;stroke:none;">1.45 0.208</text>
   <text y="579.242" x="265.207" svgx:width="0.78" style="fill:rgb(0,0,0);font-family:CMSY10;font-size:9.34px;stroke:none;">±</text>
   <text y="579.242" x="274.823,279.306,281.548,286.031,290.514" svgx:width="0.5,0.25,0.5,0.5,0.5" style="fill:rgb(0,0,0);font-family:URWPalladioL-Roma;font-size:8.97px;stroke:none;">0.010</text>
   <text y="579.242" x="339.172" svgx:width="0.78" style="fill:rgb(0,0,0);font-family:CMSY10;font-size:9.34px;stroke:none;">−</text>
   <text y="579.242" x="346.546,351.029,353.271,357.754" svgx:width="0.5,0.25,0.5,0.5" style="fill:rgb(0,0,0);font-family:URWPalladioL-Roma;font-size:8.97px;stroke:none;">1.55</text>
   <text y="579.242" x="364.591" svgx:width="0.78" style="fill:rgb(0,0,0);font-family:CMSY10;font-size:9.34px;stroke:none;">±</text>
   <text y="579.242" x="374.208,378.691,380.933,385.416,389.901,448.441,452.924" svgx:width="0.5,0.25,0.5,0.5,0.55,0.5,0.5" style="fill:rgb(0,0,0);font-family:URWPalladioL-Roma;font-size:8.97px;stroke:none;">0.27 72</text>
   <text y="590.251" x="131.112,136.59,142.069,149.117,153.602,180.32,184.803,189.286,191.528" svgx:width="0.61,0.61,0.79,0.5,0.55,0.5,0.5,0.25,0.5" style="fill:rgb(0,0,0);font-family:URWPalladioL-Roma;font-size:8.97px;stroke:none;">BEO1 26.9</text>
   <text y="590.251" x="198.366" svgx:width="0.78" style="fill:rgb(0,0,0);font-family:CMSY10;font-size:9.34px;stroke:none;">±</text>
   <text y="590.251" x="207.982,212.465,214.707,219.19,223.675,242.682,247.165,249.407,253.89,258.373" svgx:width="0.5,0.25,0.5,0.5,0.55,0.5,0.25,0.5,0.5,0.5" style="fill:rgb(0,0,0);font-family:URWPalladioL-Roma;font-size:8.97px;stroke:none;">1.23 0.341</text>
   <text y="590.251" x="265.207" svgx:width="0.78" style="fill:rgb(0,0,0);font-family:CMSY10;font-size:9.34px;stroke:none;">±</text>
   <text y="590.251" x="274.823,279.306,281.548,286.031,290.514" svgx:width="0.5,0.25,0.5,0.5,0.5" style="fill:rgb(0,0,0);font-family:URWPalladioL-Roma;font-size:8.97px;stroke:none;">0.021</text>
   <text y="590.251" x="339.172" svgx:width="0.78" style="fill:rgb(0,0,0);font-family:CMSY10;font-size:9.34px;stroke:none;">−</text>
   <text y="590.251" x="346.546,351.029,353.271,357.754" svgx:width="0.5,0.25,0.5,0.5" style="fill:rgb(0,0,0);font-family:URWPalladioL-Roma;font-size:8.97px;stroke:none;">1.76</text>
   <text y="590.251" x="364.591" svgx:width="0.78" style="fill:rgb(0,0,0);font-family:CMSY10;font-size:9.34px;stroke:none;">±</text>
   <text y="590.251" x="374.208,378.691,380.933,385.416,389.901,448.441,452.924" svgx:width="0.5,0.25,0.5,0.5,0.55,0.5,0.5" style="fill:rgb(0,0,0);font-family:URWPalladioL-Roma;font-size:8.97px;stroke:none;">0.38 58</text>
   <text y="601.259" x="131.112,136.59,142.069,149.117,153.602,180.32,184.803,189.286,191.528" svgx:width="0.61,0.61,0.79,0.5,0.55,0.5,0.5,0.25,0.5" style="fill:rgb(0,0,0);font-family:URWPalladioL-Roma;font-size:8.97px;stroke:none;">BEO2 27.6</text>
   <text y="601.259" x="198.366" svgx:width="0.78" style="fill:rgb(0,0,0);font-family:CMSY10;font-size:9.34px;stroke:none;">±</text>
   <text y="601.259" x="207.982,212.465,214.707,219.19,223.675,242.682,247.165,249.407,253.89,258.373" svgx:width="0.5,0.25,0.5,0.5,0.55,0.5,0.25,0.5,0.5,0.5" style="fill:rgb(0,0,0);font-family:URWPalladioL-Roma;font-size:8.97px;stroke:none;">1.01 0.368</text>
   <text y="601.259" x="265.207" svgx:width="0.78" style="fill:rgb(0,0,0);font-family:CMSY10;font-size:9.34px;stroke:none;">±</text>
   <text y="601.259" x="274.823,279.306,281.548,286.031,290.514" svgx:width="0.5,0.25,0.5,0.5,0.5" style="fill:rgb(0,0,0);font-family:URWPalladioL-Roma;font-size:8.97px;stroke:none;">0.018</text>
   <text y="601.259" x="339.172" svgx:width="0.78" style="fill:rgb(0,0,0);font-family:CMSY10;font-size:9.34px;stroke:none;">−</text>
   <text y="601.259" x="346.546,351.029,353.271,357.754" svgx:width="0.5,0.25,0.5,0.5" style="fill:rgb(0,0,0);font-family:URWPalladioL-Roma;font-size:8.97px;stroke:none;">2.05</text>
   <text y="601.259" x="364.591" svgx:width="0.78" style="fill:rgb(0,0,0);font-family:CMSY10;font-size:9.34px;stroke:none;">±</text>
   <text y="601.259" x="374.208,378.691,380.933,385.416,389.901,448.441,452.924" svgx:width="0.5,0.25,0.5,0.5,0.55,0.5,0.5" style="fill:rgb(0,0,0);font-family:URWPalladioL-Roma;font-size:8.97px;stroke:none;">0.37 50</text>
   <text y="612.268" x="131.112,136.59,142.069,149.117,153.602,178.154,182.619,187.085,191.55,193.782" svgx:width="0.61,0.61,0.79,0.5,0.55,0.5,0.5,0.5,0.25,0.5" style="fill:rgb(0,0,0);font-family:URWPalladioL-Roma;font-size:8.97px;stroke:none;">BEO3 141.9</text>
   <text y="612.268" x="200.598" svgx:width="0.78" style="fill:rgb(0,0,0);font-family:CMSY10;font-size:9.34px;stroke:none;">±</text>
   <text y="612.268" x="210.212,214.677,216.91,221.375,225.86,242.679,247.162,249.404,253.887,258.37" svgx:width="0.5,0.25,0.5,0.5,0.55,0.5,0.25,0.5,0.5,0.5" style="fill:rgb(0,0,0);font-family:URWPalladioL-Roma;font-size:8.97px;stroke:none;">5.43 0.495</text>
   <text y="612.268" x="265.207" svgx:width="0.78" style="fill:rgb(0,0,0);font-family:CMSY10;font-size:9.34px;stroke:none;">±</text>
   <text y="612.268" x="274.823,279.306,281.548,286.031,290.514" svgx:width="0.5,0.25,0.5,0.5,0.5" style="fill:rgb(0,0,0);font-family:URWPalladioL-Roma;font-size:8.97px;stroke:none;">0.022</text>
   <text y="612.268" x="339.172" svgx:width="0.78" style="fill:rgb(0,0,0);font-family:CMSY10;font-size:9.34px;stroke:none;">−</text>
   <text y="612.268" x="346.546,351.029,353.271,357.754" svgx:width="0.5,0.25,0.5,0.5" style="fill:rgb(0,0,0);font-family:URWPalladioL-Roma;font-size:8.97px;stroke:none;">1.99</text>
   <text y="612.268" x="364.591" svgx:width="0.78" style="fill:rgb(0,0,0);font-family:CMSY10;font-size:9.34px;stroke:none;">±</text>
   <text y="612.268" x="374.208,378.691,380.933,385.416,389.901,448.441,452.924" svgx:width="0.5,0.25,0.5,0.5,0.55,0.5,0.5" style="fill:rgb(0,0,0);font-family:URWPalladioL-Roma;font-size:8.97px;stroke:none;">0.39 45</text>
   <text y="623.277" x="131.112,136.59,142.069,149.117,153.602,178.154,182.619,187.085,191.55,193.782" svgx:width="0.61,0.61,0.79,0.5,0.55,0.5,0.5,0.5,0.25,0.5" style="fill:rgb(0,0,0);font-family:URWPalladioL-Roma;font-size:8.97px;stroke:none;">BEO4 171.7</text>
   <text y="623.277" x="200.598" svgx:width="0.78" style="fill:rgb(0,0,0);font-family:CMSY10;font-size:9.34px;stroke:none;">±</text>
   <text y="623.277" x="210.212,214.677,216.91,221.375,225.86,242.679,247.162,249.404,253.887,258.37" svgx:width="0.5,0.25,0.5,0.5,0.55,0.5,0.25,0.5,0.5,0.5" style="fill:rgb(0,0,0);font-family:URWPalladioL-Roma;font-size:8.97px;stroke:none;">4.66 0.336</text>
   <text y="623.277" x="265.207" svgx:width="0.78" style="fill:rgb(0,0,0);font-family:CMSY10;font-size:9.34px;stroke:none;">±</text>
   <text y="623.277" x="274.823,279.306,281.548,286.031,290.514" svgx:width="0.5,0.25,0.5,0.5,0.5" style="fill:rgb(0,0,0);font-family:URWPalladioL-Roma;font-size:8.97px;stroke:none;">0.019</text>
   <text y="623.277" x="339.172" svgx:width="0.78" style="fill:rgb(0,0,0);font-family:CMSY10;font-size:9.34px;stroke:none;">−</text>
   <text y="623.277" x="346.546,351.029,353.271,357.754" svgx:width="0.5,0.25,0.5,0.5" style="fill:rgb(0,0,0);font-family:URWPalladioL-Roma;font-size:8.97px;stroke:none;">1.78</text>
   <text y="623.277" x="364.591" svgx:width="0.78" style="fill:rgb(0,0,0);font-family:CMSY10;font-size:9.34px;stroke:none;">±</text>
   <text y="623.277" x="374.208,378.691,380.933,385.416,389.901,448.441,452.924" svgx:width="0.5,0.25,0.5,0.5,0.55,0.5,0.5" style="fill:rgb(0,0,0);font-family:URWPalladioL-Roma;font-size:8.97px;stroke:none;">0.45 40</text>
   <text y="634.286" x="130.672,137.029,142.508,149.555,154.04000000000002,180.319,184.802,189.285,191.527" svgx:width="0.71,0.61,0.79,0.5,0.55,0.5,0.5,0.25,0.5" style="fill:rgb(0,0,0);font-family:URWPalladioL-Roma;font-size:8.97px;stroke:none;">CEO1 34.8</text>
   <text y="634.286" x="198.366" svgx:width="0.78" style="fill:rgb(0,0,0);font-family:CMSY10;font-size:9.34px;stroke:none;">±</text>
   <text y="634.286" x="207.982,212.465,214.707,219.19,223.675,242.682,247.165,249.407,253.89,258.373" svgx:width="0.5,0.25,0.5,0.5,0.55,0.5,0.25,0.5,0.5,0.5" style="fill:rgb(0,0,0);font-family:URWPalladioL-Roma;font-size:8.97px;stroke:none;">1.10 0.367</text>
   <text y="634.286" x="265.207" svgx:width="0.78" style="fill:rgb(0,0,0);font-family:CMSY10;font-size:9.34px;stroke:none;">±</text>
   <text y="634.286" x="274.823,279.306,281.548,286.031,290.514" svgx:width="0.5,0.25,0.5,0.5,0.5" style="fill:rgb(0,0,0);font-family:URWPalladioL-Roma;font-size:8.97px;stroke:none;">0.017</text>
   <text y="634.286" x="339.172" svgx:width="0.78" style="fill:rgb(0,0,0);font-family:CMSY10;font-size:9.34px;stroke:none;">−</text>
   <text y="634.286" x="346.546,351.029,353.271,357.754" svgx:width="0.5,0.25,0.5,0.5" style="fill:rgb(0,0,0);font-family:URWPalladioL-Roma;font-size:8.97px;stroke:none;">2.19</text>
   <text y="634.286" x="364.591" svgx:width="0.78" style="fill:rgb(0,0,0);font-family:CMSY10;font-size:9.34px;stroke:none;">±</text>
   <text y="634.286" x="374.208,378.691,380.933,385.416,389.901,448.441,452.924" svgx:width="0.5,0.25,0.5,0.5,0.55,0.5,0.5" style="fill:rgb(0,0,0);font-family:URWPalladioL-Roma;font-size:8.97px;stroke:none;">0.44 70</text>
   <text y="645.294" x="130.672,137.029,142.508,149.555,154.04000000000002,180.319,184.802,189.285,191.527" svgx:width="0.71,0.61,0.79,0.5,0.55,0.5,0.5,0.25,0.5" style="fill:rgb(0,0,0);font-family:URWPalladioL-Roma;font-size:8.97px;stroke:none;">CEO2 31.6</text>
   <text y="645.294" x="198.366" svgx:width="0.78" style="fill:rgb(0,0,0);font-family:CMSY10;font-size:9.34px;stroke:none;">±</text>
   <text y="645.294" x="207.982,212.465,214.707,219.19,223.675,242.682,247.165,249.407,253.89,258.373" svgx:width="0.5,0.25,0.5,0.5,0.55,0.5,0.25,0.5,0.5,0.5" style="fill:rgb(0,0,0);font-family:URWPalladioL-Roma;font-size:8.97px;stroke:none;">1.92 0.325</text>
   <text y="645.294" x="265.207" svgx:width="0.78" style="fill:rgb(0,0,0);font-family:CMSY10;font-size:9.34px;stroke:none;">±</text>
   <text y="645.294" x="274.823,279.306,281.548,286.031,290.514" svgx:width="0.5,0.25,0.5,0.5,0.5" style="fill:rgb(0,0,0);font-family:URWPalladioL-Roma;font-size:8.97px;stroke:none;">0.020</text>
   <text y="645.294" x="339.172" svgx:width="0.78" style="fill:rgb(0,0,0);font-family:CMSY10;font-size:9.34px;stroke:none;">−</text>
   <text y="645.294" x="346.546,351.029,353.271,357.754" svgx:width="0.5,0.25,0.5,0.5" style="fill:rgb(0,0,0);font-family:URWPalladioL-Roma;font-size:8.97px;stroke:none;">1.89</text>
   <text y="645.294" x="364.591" svgx:width="0.78" style="fill:rgb(0,0,0);font-family:CMSY10;font-size:9.34px;stroke:none;">±</text>
   <text y="645.294" x="374.208,378.691,380.933,385.416,389.901,448.441,452.924" svgx:width="0.5,0.25,0.5,0.5,0.55,0.5,0.5" style="fill:rgb(0,0,0);font-family:URWPalladioL-Roma;font-size:8.97px;stroke:none;">0.58 65</text>
   <text y="656.303" x="130.672,137.029,142.508,149.555,154.04000000000002,180.319,184.802,189.285,191.527" svgx:width="0.71,0.61,0.79,0.5,0.55,0.5,0.5,0.25,0.5" style="fill:rgb(0,0,0);font-family:URWPalladioL-Roma;font-size:8.97px;stroke:none;">CEO3 28.1</text>
   <text y="656.303" x="198.366" svgx:width="0.78" style="fill:rgb(0,0,0);font-family:CMSY10;font-size:9.34px;stroke:none;">±</text>
   <text y="656.303" x="207.982,212.465,214.707,219.19,223.675,242.682,247.165,249.407,253.89,258.373" svgx:width="0.5,0.25,0.5,0.5,0.55,0.5,0.25,0.5,0.5,0.5" style="fill:rgb(0,0,0);font-family:URWPalladioL-Roma;font-size:8.97px;stroke:none;">1.02 0.171</text>
   <text y="656.303" x="265.207" svgx:width="0.78" style="fill:rgb(0,0,0);font-family:CMSY10;font-size:9.34px;stroke:none;">±</text>
   <text y="656.303" x="274.823,279.306,281.548,286.031,290.514" svgx:width="0.5,0.25,0.5,0.5,0.5" style="fill:rgb(0,0,0);font-family:URWPalladioL-Roma;font-size:8.97px;stroke:none;">0.011</text>
   <text y="656.303" x="339.172" svgx:width="0.78" style="fill:rgb(0,0,0);font-family:CMSY10;font-size:9.34px;stroke:none;">−</text>
   <text y="656.303" x="346.546,351.029,353.271,357.754" svgx:width="0.5,0.25,0.5,0.5" style="fill:rgb(0,0,0);font-family:URWPalladioL-Roma;font-size:8.97px;stroke:none;">1.93</text>
   <text y="656.303" x="364.591" svgx:width="0.78" style="fill:rgb(0,0,0);font-family:CMSY10;font-size:9.34px;stroke:none;">±</text>
   <text y="656.303" x="374.208,378.691,380.933,385.416,389.901,448.441,452.924" svgx:width="0.5,0.25,0.5,0.5,0.55,0.5,0.5" style="fill:rgb(0,0,0);font-family:URWPalladioL-Roma;font-size:8.97px;stroke:none;">0.66 57</text>
  </g>
  <path style="fill:none;stroke:rgb(0,0,0);stroke-width:0.3;" d="M112.540 661.750 L482.740 661.750 "/>
  <g begin="text">
   <text y="687.617" x="97.795,105.391,109.5742,111.962,114.803,117.644,120.485,126.372,130.512,133.695,137.551,142.433,145.616,150.293,156.36860000000001,158.689,161.53,167.3068,169.643,175.072,177.913,183.341,189.229,192.91" svgx:width="0.78,0.42,0.55,0.29,0.29,0.29,0.6,0.42,0.33,0.4,0.5,0.33,0.48,0.61,0.55,0.29,0.58,0.55,0.56,0.29,0.56,0.6,0.4,0.48" style="fill:rgb(0,0,0);font-family:URWPalladioL-Roma;font-size:9.96px;stroke:none;">As illustrated in Figure</text>
   <text y="687.617" x="200.017" svgx:width="0.5" style="fill:rgb(8,117,183);font-family:URWPalladioL-Roma;font-size:9.96px;stroke:none;">1</text>
   <text y="687.617" x="204.899,207.389,209.781,212.963,221.106,226.584,228.868,234.833,237.675,240.75,244.001,248.678,252.359,257.035,262.717,266.0038,268.331,274.199,279.53,285.398,291.285,294.126,299.008,302.191,305.032,310.363,316.045,320.2282,322.616,327.946,331.23280000000005,333.629,336.47,339.311,345.179,348.02,354.0956,356.416,362.099,366.98,372.662,377.993,383.861,388.743,392.599,395.782,398.623,402.958,405.799,410.476,414.6592,417.047,425.189,429.866,433.547,438.3278,440.654,445.985,451.384,455.524,460.201,464.057,469.573,474.25,480.3256,482.647,485.488,491.2648,493.601,501.714,507.68,514.602" svgx:width="0.25,0.55,0.33,0.83,0.55,0.55,0.61,0.29,0.33,0.33,0.48,0.4,0.48,0.58,0.33,0.55,0.6,0.55,0.6,0.6,0.29,0.5,0.33,0.29,0.55,0.58,0.42,0.55,0.55,0.33,0.55,0.29,0.29,0.6,0.29,0.61,0.55,0.58,0.5,0.58,0.55,0.6,0.5,0.4,0.33,0.29,0.44,0.29,0.48,0.42,0.55,0.83,0.48,0.4,0.48,0.55,0.55,0.55,0.42,0.48,0.4,0.56,0.48,0.61,0.55,0.29,0.58,0.55,0.83,0.61,0.71,0.42" style="fill:rgb(0,0,0);font-family:URWPalladioL-Roma;font-size:9.96px;stroke:none;">, two different populations of lipid nanoparticles were observed in NLCs</text>
   <text y="701.127" x="76.535,82.695,88.855,96.78,101.821,106.862,111.903,114.393,116.914,122.419,128.287,133.0678,135.616,144.025,146.959,150.246,156.02280000000002,158.604,162.879,171.781,176.822,179.756,182.6444,185.18,189.455,192.389,197.43,202.259,206.44219999999999,209.024,212.382,221.284,226.114,231.155,236.9318,239.523,243.798,246.732,251.773,256.5538,259.092,264.134,269.11400000000003,271.665,277.533,286.435,289.72180000000003,292.293,297.334,303.202,309.2776,311.852,315.139,321.007,325.7878,328.327,333.831,337.118,342.986,347.815,351.799,354.288,362.697,365.63,368.917,374.69379999999995,377.285,382.861,385.795,391.4,397.006,401.835,405.81899999999996,408.308,412.583,415.517,420.558,425.387,429.5702,432.152,435.51,444.412,449.242,454.283,460.0598,462.651,466.926,469.86,474.901,479.6818,482.22,487.261,492.303,497.283,499.834,505.702,514.604,517.962" svgx:width="0.61,0.61,0.79,0.5,0.5,0.5,0.25,0.55,0.55,0.58,0.48,0.55,0.83,0.29,0.33,0.58,0.55,0.42,0.88,0.5,0.29,0.29,0.55,0.42,0.29,0.5,0.48,0.42,0.55,0.33,0.88,0.48,0.5,0.58,0.55,0.42,0.29,0.5,0.48,0.55,0.5,0.5,0.55,0.58,0.88,0.33,0.55,0.5,0.58,0.61,0.55,0.33,0.58,0.48,0.55,0.55,0.33,0.58,0.48,0.4,0.55,0.83,0.29,0.33,0.58,0.55,0.55,0.29,0.56,0.56,0.48,0.4,0.55,0.42,0.29,0.5,0.48,0.42,0.55,0.33,0.88,0.48,0.5,0.58,0.55,0.42,0.29,0.5,0.48,0.55,0.5,0.5,0.5,0.55,0.58,0.88,0.33,0.25" style="fill:rgb(0,0,0);font-family:URWPalladioL-Roma;font-size:9.96px;stroke:none;">BEO1–4, one with small sizes (mean size 22 nm) and the other with bigger sizes (mean size 312 nm).</text>
   <text y="714.636" x="76.147,83.898,87.1848,89.646,94.626,97.128,100.027,105.467,113.776,118.538,122.52199999999999,124.974,128.73,134.169,138.393,143.165,151.962,156.944,160.879,166.45659999999998,168.919,175.006,182.8744,185.337,189.76,195.2,200.998,204.246,209.018,214.816,218.1028,220.565,223.882,228.864,233.845,238.826" svgx:width="0.78,0.33,0.55,0.5,0.55,0.29,0.55,0.83,0.48,0.4,0.55,0.4,0.55,0.42,0.48,0.88,0.5,0.4,0.56,0.55,0.61,0.79,0.55,0.44,0.55,0.58,0.33,0.48,0.58,0.33,0.55,0.33,0.5,0.5,0.5,0.84" style="fill:rgb(0,0,0);font-family:URWPalladioL-Roma;font-size:9.96px;stroke:none;">At a lower rosemary EO content (1–2%</text>
   <text y="714.636" x="249.688" svgx:width="0.72" style="fill:rgb(0,0,0);font-family:URWPalladioL-Ital;font-size:9.96px;stroke:none;">w</text>
   <text y="714.636" x="256.881" svgx:width="0.61" style="fill:rgb(0,0,0);font-family:URWPalladioL-Roma;font-size:9.96px;stroke:none;">/</text>
   <text y="714.636" x="262.919" svgx:width="0.72" style="fill:rgb(0,0,0);font-family:URWPalladioL-Ital;font-size:9.96px;stroke:none;">w</text>
   <text y="714.636" x="270.112,273.43,275.92,278.421,281.669,287.467,292.2478,294.74,300.727,305.499,309.255,313.678,318.451,324.249,327.497,332.478,338.017,342.7978,345.28,350.719,354.0058,356.538,360.762,369.559,374.54,377.439,380.3274,382.839,387.063,389.962,394.943,399.716,405.7916,408.303,414.102,419.083,424.881,430.321,436.308,441.289,445.225,448.472,451.372,455.795,458.694,463.466,467.6492,470.181,478.49,483.471,487.6542,490.196,495.994,498.893,504.432,510.231,515.003" svgx:width="0.33,0.25,0.55,0.33,0.58,0.48,0.55,0.6,0.48,0.4,0.44,0.48,0.58,0.33,0.5,0.56,0.48,0.55,0.55,0.33,0.55,0.42,0.88,0.5,0.29,0.29,0.55,0.42,0.29,0.5,0.48,0.61,0.55,0.58,0.5,0.58,0.55,0.6,0.5,0.4,0.33,0.29,0.44,0.29,0.48,0.42,0.55,0.83,0.5,0.42,0.55,0.58,0.29,0.56,0.58,0.48,0.4" style="fill:rgb(0,0,0);font-family:URWPalladioL-Roma;font-size:9.96px;stroke:none;">), the percentage of small sized nanoparticles was higher</text>
   <text y="728.146" x="76.535,79.789,85.599,90.59,96.3668,98.876,102.13,107.94,112.931,116.2178,118.661,124.112,127.3988,129.912,132.816,137.808,141.571,147.121,151.9018,154.379,160.189,165.18,170.99,176.44,182.44,187.431,191.374,194.628,197.533,201.965,204.87,209.652,213.885,216.375,219.465,229.447,235.257,240.039,245.8158,248.324,251.579,257.388,262.1688,264.646,269.637,278.452,283.902,289.921,295.731,299.0178,301.461,306.912,310.1988,312.712,317.493,321.726,325.958,330.74,336.55,339.804,342.709,347.7,350.5884,353.091,358.541,361.446,364.3344,366.827,372.846,377.079,381.861,387.9366,390.436,393.69,399.168,401.616,407.616,411.379,416.161,422.16,427.151,430.915,435.6958,438.172,441.426,447.236,452.018,456.25,461.0308,463.508,469.317,474.309,480.119,485.569,490.001,494.993,498.936,502.879,505.784,510.565,514.508" svgx:width="0.33,0.58,0.5,0.58,0.55,0.33,0.58,0.5,0.33,0.55,0.55,0.33,0.55,0.29,0.5,0.4,0.56,0.48,0.55,0.58,0.5,0.58,0.55,0.6,0.5,0.4,0.33,0.29,0.44,0.29,0.48,0.42,0.25,0.55,1.0,0.58,0.48,0.58,0.55,0.33,0.58,0.48,0.55,0.5,0.88,0.55,0.6,0.58,0.33,0.55,0.55,0.33,0.55,0.48,0.42,0.42,0.48,0.58,0.33,0.29,0.5,0.29,0.55,0.55,0.29,0.29,0.55,0.6,0.42,0.48,0.61,0.55,0.33,0.55,0.55,0.6,0.4,0.48,0.6,0.5,0.4,0.48,0.55,0.33,0.58,0.48,0.42,0.48,0.55,0.58,0.5,0.58,0.55,0.44,0.5,0.4,0.4,0.29,0.48,0.4,0.42" style="fill:rgb(0,0,0);font-family:URWPalladioL-Roma;font-size:9.96px;stroke:none;">than that of large nanoparticles. When the amount of essential oil used to prepare these nanocarriers</text>
   <text y="741.655" x="76.117,84.426,89.407,93.5902,96.122,100.057,105.038,107.938,112.162,116.934,123.00959999999999,125.512,128.759,134.237,136.69,141.671" svgx:width="0.83,0.5,0.42,0.55,0.4,0.5,0.29,0.42,0.48,0.61,0.55,0.33,0.55,0.55,0.5,0.84" style="fill:rgb(0,0,0);font-family:URWPalladioL-Roma;font-size:9.96px;stroke:none;">was raised to 4%</text>
   <text y="741.655" x="152.53" svgx:width="0.72" style="fill:rgb(0,0,0);font-family:URWPalladioL-Ital;font-size:9.96px;stroke:none;">w</text>
   <text y="741.655" x="159.723" svgx:width="0.61" style="fill:rgb(0,0,0);font-family:URWPalladioL-Roma;font-size:9.96px;stroke:none;">/</text>
   <text y="741.655" x="165.76" svgx:width="0.72" style="fill:rgb(0,0,0);font-family:URWPalladioL-Ital;font-size:9.96px;stroke:none;">w</text>
   <text y="741.655" x="172.953,175.443,177.934,181.182,186.98,191.7608,194.243,200.231,205.003,208.759,213.182,217.954,223.752,227.0,231.981,237.521,242.3018,244.783,250.223,253.5098,256.031,258.93,263.911,267.667,273.207,277.9878,280.469,286.268,291.249,297.047,302.487,308.474,313.456,317.391,320.639,323.538,327.961,330.86,335.632,339.8152,342.347,347.856,352.628,357.052,362.033,370.83,375.6108,378.093,384.08,387.836,392.608,398.596,404.036,409.834,415.921,420.693,424.628,429.61,435.408,438.656" svgx:width="0.25,0.55,0.33,0.58,0.48,0.55,0.6,0.48,0.4,0.44,0.48,0.58,0.33,0.5,0.56,0.48,0.55,0.55,0.33,0.55,0.29,0.5,0.4,0.56,0.48,0.55,0.58,0.5,0.58,0.55,0.6,0.5,0.4,0.33,0.29,0.44,0.29,0.48,0.42,0.55,0.55,0.48,0.44,0.5,0.88,0.48,0.55,0.6,0.4,0.48,0.6,0.55,0.58,0.61,0.48,0.4,0.5,0.58,0.33,0.25" style="fill:rgb(0,0,0);font-family:URWPalladioL-Roma;font-size:9.96px;stroke:none;">, the percentage of large nanoparticles became preponderant.</text>
  </g>
 </g>
</svg>
