<?xml version="1.0" encoding="UTF-8"?>
<svg height="757.5" width="4095.1" xmlns="http://www.w3.org/2000/svg">
 <g>
  <text svgx:width="0.83,0.52,0.31,0.3,0.19,0.54,0.52,0.46,0.37,0.54,0.31,0.52,0.54,0.52,0.52,0.48,0.55,0.52,0.3,0.55,0.52,0.19,0.28,0.55,0.59,0.3,0.54,0.54,0.56,0.57,0.54,0.52,0.31,0.83,0.52,0.52,0.56,0.19,0.56,0.56,0.46,0.55,0.52,0.54,0.57,0.55,0.7,0.54,0.52,0.83,0.19,0.48,0.3,0.31,0.46,0.55,0.56,0.26" y="34.9" x="44.8,50.6,54.3,56.4,58.5,59.8,63.5,67.2,70.4,73.0,76.7,78.9,82.5,86.3,89.9,93.5,96.9,98.8,102.4,104.5,106.4,110.1,111.3,113.3,391.8,395.9,398.0,401.7,405.5,409.4,413.4,417.1,420.7,422.9,428.7,432.4,436.0,439.8,441.1,445.0,448.9,452.1,454.1,457.7,461.4,465.4,467.4,472.3,476.0,479.7,485.5,486.8,490.1,492.2,494.4,497.6,499.5,503.4" style="fill:rgb(109,109,108);font-family:HelveticaNeueLTStd-Lt;font-size:7.0px;stroke:none;" xmlns:svgx="http://www.xml-cml.org/schema/svgx">Martínez-Francés et al. Ethnopharmacology and Chemistry of</text>
  <text svgx:width="0.63,0.52,0.19,0.46,0.19,0.52" y="34.9" x="507.2,511.6,515.2,516.5,519.7,521.0" style="fill:rgb(109,109,108);font-family:HelveticaNeueLTStd-LtIt;font-size:7.0px;stroke:none;" xmlns:svgx="http://www.xml-cml.org/schema/svgx">Salvia</text>
  <text svgx:width="0.63,0.57,0.52,0.52,0.19,0.52,0.48" y="34.9" x="526.5,530.9,534.9,538.6,542.2,543.5,547.1" style="fill:rgb(109,109,108);font-family:HelveticaNeueLTStd-Lt;font-size:7.0px;stroke:none;" xmlns:svgx="http://www.xml-cml.org/schema/svgx">Species</text>
  <text svgx:width="0.69,0.27,0.31,0.53,0.55,0.69,0.43,0.31,0.25,0.44,0.55,0.53,0.37,0.55,0.44,0.55,0.53,0.55,0.44,0.55,0.3,0.43,0.37,0.31,0.27,0.25,0.43,0.55,0.52,0.25,0.44,0.27,0.55,0.55,0.47,0.27,0.46,0.27,0.55,0.47,0.55,0.69,0.44,0.46,0.55,0.27,0.55,0.55,0.44,0.55,0.3,0.43,0.69,0.55,0.5,0.27,0.25,0.51,0.82,0.43,0.31,0.43,0.37,0.37" y="69.7" x="44.8,51.3,53.8,56.8,61.8,64.7,71.1,75.2,78.1,80.5,84.6,89.8,94.8,98.3,101.1,105.2,110.4,115.4,118.2,122.4,125.2,128.0,132.0,135.5,138.4,141.0,143.4,147.4,150.2,155.2,157.6,161.7,164.3,169.5,172.3,176.7,179.3,183.6,186.2,191.3,195.8,198.6,205.1,209.3,213.6,216.4,219.0,224.2,227.0,231.1,234.0,236.8,240.8,247.3,250.1,254.8,257.3,259.7,264.6,272.3,276.3,279.2,283.2,286.7" style="fill:rgb(23,22,21);font-family:MinionPro-Regular;font-size:9.5px;stroke:none;" xmlns:svgx="http://www.xml-cml.org/schema/svgx">with wetlands and a fertile plain giving way in a few kilometers</text>
  <text svgx:width="0.31,0.51,0.55,0.44,0.55,0.42,0.37,0.44,0.47,0.47,0.46,0.55,0.27,0.55,0.25,0.44,0.55,0.53,0.55,0.31,0.43,0.37,0.37,0.27,0.31,0.51,0.37,0.46,0.55,0.27,0.55,0.55,0.31,0.53,0.43,0.55,0.97,0.43,0.37,0.31,0.23,0.55,0.69,0.27,0.31,0.53,0.55,0.37,0.51,0.82,0.43,0.55,0.53,0.27,0.47,0.53,0.55,0.52,0.43,0.44,0.5,0.37" y="81.2" x="44.8,47.7,52.5,55.7,59.9,63.1,67.1,70.6,74.7,79.2,83.6,88.0,91.2,93.7,98.9,101.3,105.4,110.6,115.6,118.8,121.7,125.7,129.2,132.7,135.3,138.1,143.0,146.5,150.8,154.0,156.6,161.8,164.9,167.9,172.9,177.0,180.1,189.3,193.3,196.8,199.7,201.9,205.0,211.5,214.0,217.0,222.0,225.2,228.7,233.5,241.3,245.3,248.5,253.5,256.1,260.6,265.6,268.8,273.8,277.8,282.0,286.7" style="fill:rgb(23,22,21);font-family:MinionPro-Regular;font-size:9.5px;stroke:none;" xmlns:svgx="http://www.xml-cml.org/schema/svgx">to a craggy inland territory in the West, with some high peaks</text>
  <text svgx:width="0.35" y="92.6" x="44.8" style="fill:rgb(23,22,21);font-family:MinionPro-Regular;font-size:9.5px;stroke:none;" xmlns:svgx="http://www.xml-cml.org/schema/svgx">(</text>
  <text svgx:width="0.55,0.29,0.49,0.56,0.4,0.44,0.55,0.5" y="92.6" x="48.1,53.3,56.0,60.7,66.0,69.8,73.9,76.0" style="fill:rgb(23,22,21);font-family:MinionPro-Bold;font-size:9.5px;stroke:none;" xmlns:svgx="http://www.xml-cml.org/schema/svgx">Figure 1</text>
  <text svgx:width="0.35,0.23" y="92.6" x="80.7,84.0" style="fill:rgb(23,22,21);font-family:MinionPro-Regular;font-size:9.5px;stroke:none;" xmlns:svgx="http://www.xml-cml.org/schema/svgx">).</text>
  <text svgx:width="0.65,0.35,0.59,0.59,0.61,0.61,0.59,0.57,0.39,0.91,0.57,0.57,0.61,0.26,0.61,0.61,0.26,0.57,0.57,0.26,0.55,0.72,0.57,0.54,0.57,0.57,0.39,0.57,0.59" y="115.3" x="44.8,52.6,56.8,63.9,71.0,78.3,85.6,92.7,99.5,104.2,115.0,121.9,128.7,136.0,139.1,146.4,153.7,156.8,163.7,170.5,173.7,176.9,185.6,192.4,198.9,205.7,212.6,217.0,223.9" style="fill:rgb(23,22,21);font-family:HelveticaNeueLTStd-Bd;font-size:12.0px;stroke:none;" xmlns:svgx="http://www.xml-cml.org/schema/svgx">Ethnopharmacological Research</text>
  <text svgx:width="0.62,0.53,0.43,0.55,0.43,0.31,0.53,0.55,0.51,0.52,0.53,0.44,0.37,0.82,0.44,0.42,0.51,0.25,0.51,0.47,0.27,0.42,0.44,0.25,0.55,0.54,0.43,0.25,0.53,0.55,0.37,0.31,0.53,0.53,0.46,0.55,0.69,0.44,0.37,0.55,0.42,0.44,0.37,0.37,0.27,0.43,0.53,0.55,0.51,0.53,0.31,0.55,0.51,0.43,0.31,0.69,0.43,0.43,0.55" y="126.9" x="44.8,50.7,55.7,59.8,63.0,67.1,70.0,75.0,80.2,85.0,90.0,95.0,99.2,102.7,110.4,114.6,118.6,123.4,125.8,130.6,135.1,137.6,141.6,145.8,148.1,151.5,156.5,160.6,163.0,168.0,171.2,174.7,177.6,182.6,187.6,192.0,195.3,201.7,205.9,209.4,212.7,216.7,220.8,224.4,227.9,230.4,234.4,239.4,242.7,247.5,252.6,255.5,258.7,263.5,267.6,270.5,276.9,281.0,285.0" style="fill:rgb(23,22,21);font-family:MinionPro-Regular;font-size:9.5px;stroke:none;" xmlns:svgx="http://www.xml-cml.org/schema/svgx">The ethnopharmacological ﬁeld study was carried out between</text>
  <text svgx:width="0.48,0.48,0.48,0.48,0.55,0.44,0.55,0.53,0.55,0.48,0.48,0.48,0.48,0.23,0.55,0.69,0.27,0.31,0.53,0.55,0.37,0.43,0.82,0.27,0.36,0.37,0.31,0.37,0.53,0.42,0.31,0.53,0.37,0.43,0.53,0.55,0.27,0.55,0.31,0.43,0.37,0.46,0.27,0.43,0.69,0.37,0.55,0.69,0.27,0.31,0.53,0.55,0.82,0.44,0.25,0.43,0.55,0.44,0.55,0.53" y="138.4" x="44.8,49.4,53.9,58.5,63.0,66.3,70.4,75.6,80.6,83.8,88.4,92.9,97.5,102.0,104.2,107.4,113.9,116.5,119.4,124.4,127.7,131.2,135.2,142.9,145.5,148.8,152.3,155.2,158.7,163.7,167.7,170.6,175.6,179.2,183.2,188.2,191.4,194.0,199.2,202.0,206.1,209.8,214.2,216.8,220.8,227.3,230.8,234.0,240.5,243.0,245.9,251.0,254.3,262.0,266.2,268.6,272.6,275.8,280.0,285.2" style="fill:rgb(23,22,21);font-family:MinionPro-Regular;font-size:9.5px;stroke:none;" xmlns:svgx="http://www.xml-cml.org/schema/svgx">2009 and 2012, with semi-structured interviews with male and</text>
  <text svgx:width="0.3,0.43,0.82,0.44,0.25,0.43,0.55,0.27,0.55,0.3,0.51,0.37,0.82,0.44,0.55,0.31,0.37,0.55,0.37,0.44,0.55,0.53,0.51,0.82,0.25,0.46,0.55,0.37,0.43,0.25,0.43,0.42,0.31,0.43,0.53,0.23,0.55,0.62,0.53,0.43,0.55,0.37,0.31,0.53,0.53,0.46,0.55,0.69,0.44,0.37,0.55,0.42,0.44,0.37,0.37,0.27,0.43,0.53" y="149.8" x="44.8,47.6,51.7,59.4,63.6,66.0,70.0,74.6,77.1,82.3,85.1,89.9,93.4,101.2,105.3,110.5,113.4,116.9,121.5,125.0,129.1,134.3,139.3,144.1,151.9,154.3,158.6,163.2,166.7,170.7,173.1,177.2,181.2,184.1,188.1,193.1,195.3,199.9,205.7,210.8,214.8,219.4,222.8,225.7,230.8,235.8,240.1,244.7,251.2,255.3,258.8,263.4,267.4,271.6,275.1,278.6,281.2,285.2" style="fill:rgb(23,22,21);font-family:MinionPro-Regular;font-size:9.5px;stroke:none;" xmlns:svgx="http://www.xml-cml.org/schema/svgx">female informants randomly selected. The study was carried</text>
  <text svgx:width="0.51,0.53,0.31,0.55,0.27,0.55,0.55,0.44,0.42,0.42,0.51,0.37,0.53,0.44,0.55,0.42,0.43,0.55,0.69,0.27,0.31,0.53,0.55,0.31,0.53,0.43,0.55,0.37,0.43,0.42,0.51,0.82,0.82,0.43,0.55,0.53,0.44,0.31,0.27,0.51,0.55,0.37,0.55,0.51,0.3,0.55,0.31,0.53,0.43,0.55,0.67,0.51,0.53,0.43" y="161.3" x="44.8,49.7,54.7,57.6,63.1,65.6,70.8,76.3,80.4,84.5,88.5,93.3,96.8,101.8,106.0,111.1,115.1,119.2,124.7,131.1,133.7,136.6,141.6,147.2,150.1,155.2,159.2,164.7,168.2,172.3,176.3,181.1,188.8,196.6,200.6,205.8,210.8,215.0,217.9,220.4,225.2,230.4,233.9,239.4,244.2,247.0,252.5,255.4,260.5,264.6,270.0,276.3,281.1,286.1" style="fill:rgb(23,22,21);font-family:MinionPro-Regular;font-size:9.5px;stroke:none;" xmlns:svgx="http://www.xml-cml.org/schema/svgx">out in accordance with the recommendations of the Code</text>
  <text svgx:width="0.51,0.3,0.55,0.57,0.31,0.53,0.27,0.42,0.37,0.55,0.51,0.3,0.55,0.31,0.53,0.43" y="172.7" x="44.8,49.7,52.5,56.4,61.8,64.7,69.7,72.3,76.3,79.8,83.7,88.5,91.4,95.2,98.2,103.2" style="fill:rgb(23,22,21);font-family:MinionPro-Regular;font-size:9.5px;stroke:none;" xmlns:svgx="http://www.xml-cml.org/schema/svgx">of Ethics of the</text>
  <text svgx:width="0.34,0.55,0.31,0.43,0.37,0.55,0.44,0.31,0.27,0.51,0.55,0.44,0.25,0.55,0.47,0.51,0.42,0.27,0.43,0.31,0.46,0.55,0.51,0.3,0.55,0.57,0.31,0.53,0.55,0.51,0.51,0.27,0.51,0.25,0.51,0.47,0.46,0.55,0.35,0.48,0.48,0.48,0.48,0.35" y="172.7" x="111.2,114.4,119.6,122.5,126.5,130.0,135.2,139.3,142.2,144.8,149.6,154.8,158.9,161.3,165.2,169.7,174.5,178.6,181.1,185.1,188.0,192.4,196.3,201.1,203.9,207.8,213.2,216.1,221.2,226.4,231.2,236.0,238.5,243.4,245.8,250.6,255.0,259.4,263.3,266.6,271.1,275.7,280.2,284.7" style="fill:rgb(109,109,108);font-family:MinionPro-Regular;font-size:9.5px;stroke:none;" xmlns:svgx="http://www.xml-cml.org/schema/svgx">International Society of Ethnobiology (2006)</text>
  <text svgx:width="0.23" y="172.7" x="288.0" style="fill:rgb(23,22,21);font-family:MinionPro-Regular;font-size:9.5px;stroke:none;" xmlns:svgx="http://www.xml-cml.org/schema/svgx">.</text>
  <text svgx:width="0.57,0.31,0.53,0.27,0.42,0.37,0.55,0.44,0.52,0.52,0.37,0.51,0.46,0.44,0.25,0.55,0.69,0.44,0.37,0.55,0.55,0.51,0.31,0.55,0.37,0.43,0.51,0.53,0.27,0.37,0.43,0.53,0.55,0.44,0.37,0.55,0.52,0.43,0.37,0.55,0.31,0.53,0.43,0.55,0.44,0.53,0.31,0.53,0.51,0.37,0.22,0.37,0.55,0.27,0.55,0.37,0.31,0.27,0.31,0.53,0.31,0.27,0.51,0.55,0.37" y="184.2" x="44.8,50.2,53.1,58.2,60.7,64.7,68.2,70.8,75.0,79.9,84.9,88.4,93.2,97.6,101.8,104.1,106.8,113.3,117.4,120.9,123.5,128.7,133.5,136.4,139.0,142.5,146.5,151.4,156.4,158.9,162.5,166.5,171.5,174.1,178.2,181.7,184.3,189.3,193.3,196.8,199.4,202.4,207.4,211.5,214.1,218.2,223.2,226.2,231.2,236.1,239.4,240.7,244.2,246.7,249.3,254.5,257.9,260.8,263.4,266.2,271.3,274.2,276.7,281.5,286.7" style="fill:rgb(23,22,21);font-family:MinionPro-Regular;font-size:9.5px;stroke:none;" xmlns:svgx="http://www.xml-cml.org/schema/svgx">Ethics approval was not required as per the author’s institutions</text>
  <text svgx:width="0.47,0.53,0.27,0.53,0.43,0.25,0.27,0.55,0.43,0.37,0.55,0.44,0.55,0.53,0.55,0.55,0.44,0.31,0.27,0.51,0.55,0.44,0.25,0.55,0.37,0.43,0.47,0.53,0.25,0.44,0.31,0.27,0.51,0.55,0.37,0.23,0.55,0.7,0.43,0.37,0.51,0.44,0.25,0.55,0.27,0.55,0.3,0.51,0.37,0.82,0.43,0.53,0.55,0.42,0.51,0.55,0.37,0.43,0.55,0.31" y="195.6" x="44.8,49.3,54.3,56.8,61.8,65.8,68.2,70.8,75.9,79.9,83.4,87.7,91.9,97.0,102.1,106.3,111.5,115.7,118.5,121.1,125.9,131.1,135.2,137.6,141.9,145.4,149.5,153.9,158.9,161.3,165.5,168.3,170.9,175.7,180.9,184.4,186.5,190.8,197.5,201.5,205.0,209.9,214.0,216.4,220.7,223.2,228.4,231.2,236.0,239.5,247.3,251.3,256.3,260.6,264.6,269.4,274.6,278.1,282.1,287.3" style="fill:rgb(23,22,21);font-family:MinionPro-Regular;font-size:9.5px;stroke:none;" xmlns:svgx="http://www.xml-cml.org/schema/svgx">guidelines and national regulations. Verbal informed consent</text>
  <text svgx:width="0.69,0.44,0.37,0.55,0.51,0.51,0.31,0.44,0.27,0.55,0.43,0.53,0.55,0.3,0.37,0.51,0.82,0.55,0.43,0.44,0.42,0.53,0.55,0.27,0.55,0.3,0.51,0.37,0.82,0.44,0.55,0.31,0.55,0.52,0.37,0.27,0.51,0.37,0.55,0.31,0.53,0.43,0.55,0.27,0.55,0.31,0.43,0.37,0.46,0.27,0.43,0.69,0.23,0.55,0.34,0.55" y="69.7" x="305.1,311.6,315.7,319.2,324.8,329.7,334.5,337.4,341.6,344.1,349.3,353.3,358.3,364.0,366.8,370.3,375.1,382.8,388.5,392.5,396.7,400.6,405.6,411.3,413.9,419.0,421.8,426.7,430.2,437.9,442.1,447.2,450.2,455.8,460.7,464.2,466.8,471.6,475.1,480.8,483.7,488.7,492.8,498.4,500.9,506.1,509.0,513.0,516.8,521.2,523.7,527.7,534.2,536.4,542.0,545.3" style="fill:rgb(23,22,21);font-family:MinionPro-Regular;font-size:9.5px;stroke:none;" xmlns:svgx="http://www.xml-cml.org/schema/svgx">was obtained from each informant prior the interview. In</text>
  <text svgx:width="0.31,0.53,0.27,0.37,0.55,0.52,0.37,0.51,0.42,0.43,0.37,0.37,0.23,0.55,0.31,0.53,0.43,0.55,0.51,0.51,0.26,0.43,0.42,0.31,0.27,0.46,0.43,0.37,0.55,0.51,0.3,0.55,0.31,0.53,0.43,0.55,0.37,0.43,0.37,0.43,0.44,0.37,0.42,0.53,0.23,0.55,0.31,0.53,0.43,0.55,0.31,0.51,0.52,0.27,0.42,0.37,0.55,0.44,0.55,0.53" y="81.2" x="305.1,308.0,313.1,315.6,319.1,324.6,329.5,333.0,337.9,341.9,345.9,349.3,352.8,354.9,360.4,363.3,368.4,372.5,377.9,382.7,387.4,389.8,393.9,397.9,400.8,403.3,407.7,411.7,415.2,420.7,425.5,428.3,433.8,436.7,441.7,445.8,451.2,454.8,458.8,462.2,466.3,470.5,473.8,477.8,482.9,485.0,490.5,493.4,498.5,502.5,508.0,510.8,515.7,520.6,523.2,527.2,530.7,536.1,540.3,545.4" style="fill:rgb(23,22,21);font-family:MinionPro-Regular;font-size:9.5px;stroke:none;" xmlns:svgx="http://www.xml-cml.org/schema/svgx">this process, the objectives of the research, the topics and</text>
  <text svgx:width="0.52,0.37,0.51,0.42,0.43,0.53,0.53,0.37,0.43,0.37,0.55,0.3,0.51,0.37,0.55,0.31,0.53,0.43,0.55,0.27,0.55,0.31,0.43,0.37,0.46,0.27,0.43,0.69,0.55,0.44,0.55,0.53,0.55,0.31,0.53,0.43,0.55,0.47,0.43,0.55,0.43,0.37,0.44,0.25,0.55,0.51,0.53,0.31,0.42,0.51,0.82,0.43,0.37,0.55,0.43,0.47,0.52,0.43,0.42,0.31,0.43,0.53" y="92.6" x="305.1,310.1,313.6,318.4,322.4,326.4,331.4,336.4,340.0,344.0,347.5,349.9,352.7,357.5,361.0,363.5,366.5,371.5,375.6,378.0,380.6,385.7,388.6,392.6,396.4,400.8,403.3,407.4,413.9,416.3,420.5,425.7,430.7,433.1,436.1,441.1,445.2,447.6,452.0,456.1,461.2,465.3,468.8,472.9,475.3,477.8,482.6,487.6,490.5,494.5,499.3,507.1,511.1,514.6,517.0,521.0,525.5,530.5,534.5,538.5,541.4,545.4" style="fill:rgb(23,22,21);font-family:MinionPro-Regular;font-size:9.5px;stroke:none;" xmlns:svgx="http://www.xml-cml.org/schema/svgx">procedures for the interview and the general outcomes expected</text>
  <text svgx:width="0.69,0.43,0.37,0.43,0.55,0.52,0.37,0.43,0.37,0.43,0.55,0.31,0.43,0.53,0.55,0.31,0.51,0.55,0.31,0.53,0.43,0.55,0.27,0.55,0.3,0.51,0.37,0.82,0.44,0.55,0.31,0.55,0.44,0.55,0.53,0.55,0.51,0.51,0.31,0.53,0.55,0.42,0.51,0.55,0.54,0.53,0.43,0.55,0.31,0.27,0.44,0.25,0.27,0.31,0.46,0.55,0.44,0.55,0.53" y="104.1" x="305.1,311.6,315.6,319.1,323.2,327.0,331.9,335.4,339.4,342.9,346.9,352.1,355.0,359.0,364.0,367.8,370.7,375.5,379.3,382.2,387.3,391.4,395.1,397.7,402.8,405.6,410.5,414.0,421.7,425.9,431.1,434.0,437.8,441.9,447.1,452.1,455.9,460.7,465.5,468.4,473.5,477.3,481.3,486.1,491.3,496.4,501.4,505.4,510.6,513.5,516.0,520.2,522.5,525.1,528.0,532.3,536.1,540.3,545.4" style="fill:rgb(23,22,21);font-family:MinionPro-Regular;font-size:9.5px;stroke:none;" xmlns:svgx="http://www.xml-cml.org/schema/svgx">were presented to the informant and both conﬁdentiality and</text>
  <text svgx:width="0.42,0.51,0.82,0.52,0.25,0.43,0.31,0.43,0.55,0.44,0.55,0.51,0.55,0.46,0.82,0.27,0.31,0.46,0.55,0.69,0.43,0.37,0.43,0.55,0.47,0.53,0.44,0.37,0.44,0.55,0.31,0.43,0.43,0.53,0.23,0.55,0.62,0.53,0.43,0.55,0.42,0.51,0.55,0.37,0.43,0.55,0.31,0.55,0.51,0.3,0.55,0.31,0.53,0.43" y="115.6" x="305.1,309.1,313.9,321.7,326.6,329.0,333.1,336.0,340.0,346.1,350.2,355.4,360.2,365.4,369.7,377.5,380.0,382.9,387.3,393.3,399.8,403.8,407.4,411.4,417.5,421.9,426.9,431.1,434.6,438.7,443.9,446.8,450.8,454.8,459.8,462.0,468.1,473.9,479.0,483.1,489.1,493.1,497.9,503.1,506.6,510.6,515.8,518.7,524.7,529.6,532.4,538.4,541.4,546.4" style="fill:rgb(23,22,21);font-family:MinionPro-Regular;font-size:9.5px;stroke:none;" xmlns:svgx="http://www.xml-cml.org/schema/svgx">complete anonymity were guaranteed. The consent of the</text>
  <text svgx:width="0.27,0.55,0.3,0.51,0.37,0.82,0.44,0.55,0.31,0.55,0.69,0.44,0.37,0.55,0.44,0.53,0.53,0.27,0.51,0.55,0.37,0.43,0.42,0.51,0.37,0.53,0.43,0.53,0.23,0.55,0.75,0.55,0.25,0.46,0.55,0.55,0.51,0.55,0.36,0.37,0.43,0.55,0.37,0.27,0.31,0.27,0.46,0.43,0.55,0.52,0.43,0.37,0.37,0.51,0.55,0.44,0.25" y="127.0" x="305.1,307.6,312.8,315.6,320.4,324.0,331.7,335.9,341.0,344.0,349.3,355.8,359.9,363.4,368.8,372.9,378.0,383.0,385.5,390.3,395.7,399.2,403.3,407.3,412.1,415.6,420.6,424.6,429.6,431.8,437.2,444.3,449.4,451.8,456.2,461.6,466.7,471.6,476.7,480.1,483.6,487.6,492.8,496.2,498.8,501.7,504.2,508.6,512.7,518.0,522.9,527.0,530.4,533.9,538.7,543.9,548.0" style="fill:rgb(23,22,21);font-family:MinionPro-Regular;font-size:9.5px;stroke:none;" xmlns:svgx="http://www.xml-cml.org/schema/svgx">informant was audio recorded. Only non-sensitive personal</text>
  <text svgx:width="0.53,0.44,0.31,0.44,0.55,0.69,0.43,0.37,0.43,0.55,0.42,0.51,0.25,0.25,0.43,0.42,0.31,0.43,0.53,0.23,0.55,0.69,0.25,0.31,0.53,0.51,0.53,0.47,0.53,0.55,0.43,0.25,0.53,0.43,0.37,0.37,0.55,0.69,0.43,0.37,0.43,0.55,0.31,0.53,0.43,0.55,0.82,0.51,0.37,0.31,0.55,0.27,0.55,0.31,0.43,0.37,0.43,0.37,0.31,0.27,0.55,0.47" y="138.5" x="305.1,310.1,314.3,317.2,321.4,324.7,331.2,335.3,338.8,342.8,346.2,350.2,355.0,357.4,359.8,363.9,367.9,370.7,374.8,379.8,381.9,385.3,391.9,394.2,397.2,402.2,407.1,412.1,416.6,421.6,425.0,429.0,431.4,436.4,440.4,443.9,447.4,450.7,457.2,461.2,464.7,468.8,472.1,475.0,480.1,484.2,487.5,495.2,500.1,503.5,506.5,509.8,512.3,517.5,520.4,524.4,527.9,531.9,535.4,538.3,540.8,546.0" style="fill:rgb(23,22,21);font-family:MinionPro-Regular;font-size:9.5px;stroke:none;" xmlns:svgx="http://www.xml-cml.org/schema/svgx">data were collected. Although elders were the most interesting</text>
  <text svgx:width="0.27,0.55,0.3,0.51,0.37,0.82,0.44,0.55,0.31,0.37,0.23,0.55,0.44,0.55,0.3,0.43,0.69,0.55,0.46,0.51,0.53,0.55,0.47,0.43,0.37,0.55,0.52,0.43,0.51,0.52,0.25,0.43,0.55,0.69,0.43,0.37,0.43,0.55,0.44,0.25,0.37,0.51,0.55,0.27,0.55,0.31,0.43,0.37,0.46,0.27,0.43,0.69,0.43,0.53" y="149.9" x="305.1,307.6,312.8,315.6,320.4,324.0,331.7,335.9,341.0,343.9,347.4,349.6,356.6,360.8,367.8,370.6,374.6,381.1,388.1,392.4,397.3,402.3,407.5,411.9,415.9,419.4,426.5,431.4,435.4,440.3,445.2,447.6,451.7,458.7,465.1,469.2,472.7,476.7,483.7,487.9,490.3,493.7,498.6,505.6,508.1,513.3,516.2,520.2,524.0,528.4,530.9,534.9,541.4,545.4" style="fill:rgb(23,22,21);font-family:MinionPro-Regular;font-size:9.5px;stroke:none;" xmlns:svgx="http://www.xml-cml.org/schema/svgx">informants, a few younger people were also interviewed</text>
  <text svgx:width="0.27,0.55,0.55,0.51,0.37,0.53,0.43,0.37,0.55,0.31,0.51,0.55,0.53,0.43,0.31,0.43,0.37,0.82,0.27,0.55,0.43,0.55,0.31,0.53,0.43,0.55,0.27,0.55,0.31,0.43,0.37,0.47,0.43,0.55,0.43,0.37,0.44,0.31,0.27,0.51,0.55,0.44,0.25,0.55,0.31,0.37,0.44,0.55,0.37,0.82,0.27,0.37,0.37,0.27,0.51,0.55,0.55,0.51,0.3" y="161.4" x="305.1,307.6,312.8,318.0,322.8,326.3,331.3,335.3,338.8,344.0,346.9,351.7,356.9,361.9,365.9,368.8,372.9,376.4,384.1,386.6,391.8,395.9,401.0,403.9,409.0,413.1,418.2,420.7,425.9,428.8,432.8,436.3,440.7,444.7,449.9,453.9,457.4,461.6,464.5,467.0,471.8,477.0,481.2,483.5,488.7,491.6,495.1,499.3,504.4,507.9,515.7,518.2,521.6,525.1,527.6,532.5,537.7,542.8,547.6" style="fill:rgb(23,22,21);font-family:MinionPro-Regular;font-size:9.5px;stroke:none;" xmlns:svgx="http://www.xml-cml.org/schema/svgx">in order to determine the intergenerational transmission of</text>
  <text svgx:width="0.53,0.43,0.37,0.51,0.44,0.25,0.55,0.5,0.55,0.51,0.69,0.25,0.43,0.53,0.47,0.43,0.55,0.35" y="172.8" x="305.1,310.2,314.2,317.7,322.6,326.7,329.1,334.2,338.9,344.1,348.9,355.4,357.8,361.8,366.8,371.2,375.3,380.4" style="fill:rgb(23,22,21);font-family:MinionPro-Regular;font-size:9.5px;stroke:none;" xmlns:svgx="http://www.xml-cml.org/schema/svgx">herbal knowledge (</text>
  <text svgx:width="0.89,0.44,0.37,0.31,0.27,0.55,0.43,0.42,0.36,0.53,0.37,0.44,0.55,0.42,0.43,0.37,0.55,0.43,0.31,0.55,0.44,0.25,0.23,0.23,0.55,0.48,0.48,0.48,0.48" y="172.8" x="383.7,391.9,396.1,399.6,402.5,405.0,410.2,414.3,418.2,421.6,426.6,430.1,434.3,439.5,443.5,447.5,451.0,456.1,460.1,463.0,468.1,472.2,474.6,476.8,479.0,484.1,488.6,493.1,497.7" style="fill:rgb(109,109,108);font-family:MinionPro-Regular;font-size:9.5px;stroke:none;" xmlns:svgx="http://www.xml-cml.org/schema/svgx">Martínez-Francés et al., 2012</text>
  <text svgx:width="0.35,0.23,0.55,0.54,0.27,0.31,0.43,0.37,0.44,0.31,0.53,0.37,0.43" y="172.8" x="502.2,505.5,507.7,512.8,517.9,520.4,523.3,527.3,530.8,535.0,537.9,542.9,546.4" style="fill:rgb(23,22,21);font-family:MinionPro-Regular;font-size:9.5px;stroke:none;" xmlns:svgx="http://www.xml-cml.org/schema/svgx">). Literature</text>
  <text svgx:width="0.37,0.43,0.44,0.37,0.42,0.53,0.55,0.3,0.51,0.37,0.55,0.44,0.53,0.53,0.27,0.31,0.27,0.51,0.55,0.44,0.25,0.55,0.43,0.31,0.53,0.55,0.51,0.52,0.53,0.44,0.37,0.82,0.44,0.42,0.51,0.25,0.51,0.47,0.27,0.42,0.44,0.25,0.55,0.53,0.44,0.31,0.44,0.55,0.53,0.44,0.37,0.55,0.44,0.25,0.37,0.51,0.55,0.51,0.43,0.43,0.55" y="184.3" x="305.1,308.6,312.7,316.8,320.2,324.1,329.2,332.7,335.5,340.3,343.8,347.3,351.5,356.5,361.5,364.0,366.9,369.5,374.3,379.5,383.6,386.0,389.5,393.5,396.5,401.5,406.7,411.5,416.5,421.5,425.7,429.2,436.9,441.1,445.1,449.9,452.3,457.1,461.5,464.1,468.1,472.3,474.6,478.1,483.2,487.3,490.3,494.4,497.9,502.9,507.1,510.6,514.1,518.2,520.6,524.1,528.9,532.4,537.2,541.2,545.3" style="fill:rgb(23,22,21);font-family:MinionPro-Regular;font-size:9.5px;stroke:none;" xmlns:svgx="http://www.xml-cml.org/schema/svgx">search for additional ethnopharmacological data has also been</text>
  <text svgx:width="0.52,0.43,0.37,0.3,0.51,0.37,0.82,0.43,0.53,0.23" y="195.8" x="305.1,310.1,314.1,317.6,320.4,325.3,328.8,336.5,340.5,345.5" style="fill:rgb(23,22,21);font-family:MinionPro-Regular;font-size:9.5px;stroke:none;" xmlns:svgx="http://www.xml-cml.org/schema/svgx">performed.</text>
  <text class="image" id="image.3.1" width="425" height="456" y="249.2" x="85.1" style="font-size:8.0px;">image.3.1.85_510.249_705</text>
  <text svgx:width="0.59,0.29,0.76,0.74,0.72,0.65,0.55,0.56,0.55,0.22" y="704.4" x="50.3,54.4,56.5,61.7,66.9,71.9,76.5,78.4,82.3,84.4" style="fill:rgb(23,22,21);font-family:HelveticaNeueLTStd-Bd;font-size:7.0px;stroke:none;" xmlns:svgx="http://www.xml-cml.org/schema/svgx">FIGURE 1 |</text>
  <text svgx:width="0.83,0.52,0.57,0.55,0.56,0.26,0.55,0.3,0.54,0.52,0.55,0.52,0.56,0.19,0.19,0.52,0.52,0.3,0.19,0.56,0.54,0.55,0.48,0.19,0.3,0.52,0.48,0.55,0.56,0.26,0.55,0.3,0.54,0.52" y="704.4" x="88.1,93.9,97.6,101.5,103.5,107.4,109.2,111.1,113.2,116.9,120.6,122.5,126.1,130.0,131.3,132.6,136.2,139.8,141.9,143.2,147.0,150.8,152.7,156.1,157.4,159.4,163.1,166.4,168.4,172.2,174.0,176.0,178.0,181.8" style="fill:rgb(23,22,21);font-family:HelveticaNeueLTStd-Lt;font-size:7.0px;stroke:none;" xmlns:svgx="http://www.xml-cml.org/schema/svgx">Map of the collection sites of the</text>
  <text svgx:width="0.63,0.52,0.19,0.46,0.19,0.52" y="704.4" x="187.3,191.7,195.4,196.6,199.9,201.2" style="fill:rgb(23,22,21);font-family:HelveticaNeueLTStd-LtIt;font-size:7.0px;stroke:none;" xmlns:svgx="http://www.xml-cml.org/schema/svgx">Salvia</text>
  <text svgx:width="0.3,0.52,0.48,0.52,0.55,0.48,0.3,0.54,0.57,0.19,0.52,0.57,0.55,0.24,0.26,0.56,0.31,0.55,0.19,0.57,0.52,0.54,0.3,0.19,0.44,0.52,0.52,0.3,0.19,0.56,0.54,0.55,0.52,0.56,0.57,0.52,0.48,0.28,0.55,0.48,0.52,0.52" y="704.4" x="206.7,208.8,212.4,215.8,219.4,221.3,224.7,226.7,230.5,234.5,235.8,239.4,243.4,245.3,247.0,248.8,252.7,254.9,256.8,258.1,262.1,265.7,269.5,271.5,272.8,275.9,279.6,283.2,285.2,286.5,290.4,294.2,296.1,299.7,303.6,307.6,311.2,314.6,316.5,318.4,321.8,325.4" style="fill:rgb(23,22,21);font-family:HelveticaNeueLTStd-Lt;font-size:7.0px;stroke:none;" xmlns:svgx="http://www.xml-cml.org/schema/svgx">taxa studied (for identiﬁcation codes, see</text>
  <text svgx:width="0.61,0.57,0.61,0.26,0.57,0.55,0.56" y="704.4" x="331.0,334.5,338.5,342.7,344.5,348.5,350.5" style="fill:rgb(23,22,21);font-family:HelveticaNeueLTStd-Bd;font-size:7.0px;stroke:none;" xmlns:svgx="http://www.xml-cml.org/schema/svgx">Table 1</text>
  <text svgx:width="0.24,0.28" y="704.4" x="354.3,356.0" style="fill:rgb(23,22,21);font-family:HelveticaNeueLTStd-Lt;font-size:7.0px;stroke:none;" xmlns:svgx="http://www.xml-cml.org/schema/svgx">).</text>
  <text svgx:width="0.54,0.31,0.56,0.54,0.3,0.19,0.52,0.31,0.48,0.55,0.19,0.54,0.55,0.63,0.54,0.52,0.31,0.83,0.52,0.52,0.56,0.19,0.56,0.56,0.46,0.55,0.22,0.55,0.74,0.74,0.74,0.28,0.26,0.31,0.56,0.54,0.3,0.19,0.52,0.31,0.48,0.19,0.54,0.28,0.56,0.31,0.56" y="747.5" x="44.8,48.6,50.6,54.5,58.3,60.3,61.6,65.2,67.4,70.8,72.7,74.0,77.8,79.7,84.1,87.8,91.5,93.7,99.5,103.1,106.7,110.6,111.9,115.7,119.6,122.8,124.8,126.3,128.3,133.5,138.6,143.4,145.3,147.1,149.2,153.1,156.8,158.9,160.2,163.8,166.0,169.4,170.6,174.4,176.3,180.2,182.4" style="fill:rgb(109,109,108);font-family:HelveticaNeueLTStd-Lt;font-size:7.0px;stroke:none;" xmlns:svgx="http://www.xml-cml.org/schema/svgx">Frontiers in Pharmacology | www.frontiersin.org</text>
  <text svgx:width="0.56" y="747.5" x="295.7" style="fill:rgb(109,109,108);font-family:HelveticaNeueLTStd-Bd;font-size:7.0px;stroke:none;" xmlns:svgx="http://www.xml-cml.org/schema/svgx">3</text>
  <text svgx:width="0.5,0.54,0.19,0.46,0.55,0.56,0.56,0.56,0.56,0.55,0.22,0.55,0.59,0.56,0.19,0.54,0.83,0.52,0.55,0.56,0.55,0.22,0.55,0.63,0.31,0.3,0.19,0.52,0.19,0.52,0.55,0.56,0.56,0.56" y="747.5" x="450.4,453.9,457.7,459.0,462.2,464.1,468.0,471.9,475.8,479.7,481.6,483.1,485.1,488.8,492.7,494.0,497.7,503.5,507.1,509.1,513.0,514.9,516.4,518.4,522.8,525.0,527.1,528.3,532.0,533.2,536.9,538.8,542.7,546.6" style="fill:rgb(109,109,108);font-family:HelveticaNeueLTStd-Lt;font-size:7.0px;stroke:none;" xmlns:svgx="http://www.xml-cml.org/schema/svgx">July 2017 | Volume 8 | Article 467</text>
 </g>
</svg>
