<?xml version="1.0" encoding="UTF-8"?>
<svg height="755.342" width="554.2855000000001" xmlns="http://www.w3.org/2000/svg">
 <g id="page" xmlns:svgx="http://www.xml-cml.org/schema/svgx">
  <g begin="text">
   <text y="66.274" x="51.024,54.859,59.841,62.64,65.439,69.893,74.874,77.674,80.56,83.359,86.159,91.13900000000001,95.187,98.504,103.486,106.7728,110.834,115.287,120.269,125.25,129.086,133.625,136.942,141.923,146.377,149.176,151.976,156.957,161.93699999999998,165.996,169.832,172.631,175.431,178.23,181.0188,185.101,188.419,192.872,200.653,205.106,207.906,212.886,216.963" svgx:width="0.38,0.5,0.28,0.28,0.45,0.5,0.28,0.28,0.28,0.28,0.5,0.55,0.33,0.5,0.33,0.55,0.45,0.5,0.5,0.38,0.45,0.33,0.5,0.45,0.28,0.28,0.5,0.5,0.55,0.38,0.28,0.28,0.28,0.28,0.55,0.33,0.45,0.78,0.45,0.28,0.5,0.55,0.33" style="fill:rgb(0,0,0);font-family:AdvPTimes;font-size:9.96px;stroke:none;">suitability for conservation still remain [</text>
   <text y="66.274" x="220.308" svgx:width="0.5" style="fill:rgb(0,0,255);font-family:AdvPTimes;font-size:9.96px;stroke:none;">6</text>
   <text y="66.274" x="225.297,228.615,231.10500000000002,235.106,242.259,246.712,251.165,256.147,259.464,264.445,267.363,272.345,277.32500000000005,281.31,284.11" svgx:width="0.33,0.25,0.55,0.72,0.45,0.45,0.5,0.33,0.5,0.28,0.5,0.5,0.55,0.28,0.5" style="fill:rgb(0,0,0);font-family:AdvPTimes;font-size:9.96px;stroke:none;">]. According to</text>
   <text y="78.746" x="51.025,57.66,63.777,70.412,77.67,83.148,90.595,93.913,99.412,102.211,106.047,111.028,115.482,118.885,123.86500000000001,131.3,137.935,142.917,150.697,158.478,161.278,164.077,166.959,171.413,175.895,183.344,186.661,191.643,194.9298,202.392,205.192,210.173,214.655,222.121,228.238,232.692,236.527,239.327,243.78,247.097,252.077,259.595,266.23,270.683,275.664,278.464,281.875,286.328" svgx:width="0.67,0.61,0.67,0.72,0.55,0.55,0.33,0.55,0.28,0.38,0.5,0.45,0.33,0.5,0.55,0.67,0.5,0.78,0.78,0.28,0.28,0.28,0.45,0.45,0.55,0.33,0.5,0.33,0.55,0.28,0.5,0.45,0.55,0.61,0.45,0.38,0.28,0.45,0.33,0.5,0.55,0.67,0.45,0.5,0.28,0.33,0.45,0.28" style="fill:rgb(0,0,0);font-family:AdvPTimes;font-size:9.96px;stroke:none;">CECAF (Fishery Committee for the Eastern Central</text>
   <text y="91.162" x="51.025,58.178,60.977,63.777,68.23,73.211,76.011,78.917,83.37,86.688,89.178,93.43,98.412,103.393,107.846,111.1328,115.484,118.283,123.264,127.718,132.698,136.97,141.951,146.933,151.415,155.679,160.66,165.641,170.623,175.604,178.921,183.457,188.43699999999998,192.699,196.534,201.516,205.969,210.422,213.222,217.675,221.4598,225.863,230.844,234.1308,238.392,243.891,247.727,252.707,256.987,259.787,262.657,267.638,272.092,277.072,281.309,284.108" svgx:width="0.72,0.28,0.28,0.45,0.5,0.28,0.28,0.45,0.33,0.25,0.55,0.5,0.5,0.45,0.33,0.55,0.28,0.5,0.45,0.5,0.55,0.5,0.5,0.45,0.55,0.5,0.5,0.5,0.5,0.33,0.45,0.5,0.55,0.38,0.5,0.45,0.45,0.28,0.45,0.38,0.55,0.5,0.33,0.55,0.55,0.38,0.5,0.55,0.28,0.28,0.5,0.45,0.5,0.55,0.28,0.5" style="fill:rgb(0,0,0);font-family:AdvPTimes;font-size:9.96px;stroke:none;">Atlantic), over than one hundred species of ﬁsh lived in</text>
   <text y="103.634" x="51.025,58.805,63.259,66.576,69.376,74.439,78.92099999999999,83.226,90.379,94.832,97.632,102.085,105.402,109.1868,113.613,118.594,123.575,128.557,133.01,136.2968,140.712,147.347,151.88,156.861,159.661,164.641,168.944,171.743,176.725,180.112,182.911,186.747,191.728,194.528,198.981,201.781,204.58,209.561,214.541,218.946,223.399,228.381,233.361,237.712,243.211,247.047,252.027,256.364,261.345,264.144,269.126,276.906,281.36,285.276" svgx:width="0.78,0.45,0.33,0.28,0.5,0.45,0.55,0.72,0.45,0.28,0.45,0.33,0.38,0.55,0.5,0.5,0.5,0.45,0.33,0.55,0.67,0.45,0.5,0.28,0.5,0.55,0.28,0.5,0.33,0.28,0.38,0.5,0.28,0.45,0.28,0.28,0.5,0.5,0.55,0.45,0.5,0.5,0.55,0.55,0.38,0.5,0.55,0.5,0.28,0.5,0.78,0.45,0.38,0.38" style="fill:rgb(0,0,0);font-family:AdvPTimes;font-size:9.96px;stroke:none;">marine waters under Benin jurisdiction and ﬁsh biomass</text>
   <text y="116.106" x="51.025,58.178,62.631,66.4158,70.414,74.867,78.703,81.502,84.302,92.184,96.637,99.437,103.89,108.87,112.82,117.273,120.06179999999999,123.988,128.969,133.95,138.404,141.6908,145.701,148.501,153.482,157.935,162.915,166.848,171.829,176.81,181.792,186.772,190.715,193.515,198.496,203.477,207.2618,211.295,216.276,219.5628,223.484,228.465,232.919,235.718,240.265,245.246,248.046,252.528,256.422,261.922,265.757,270.737,274.677,279.13,284.111" svgx:width="0.72,0.45,0.38,0.55,0.45,0.38,0.28,0.28,0.78,0.45,0.28,0.45,0.5,0.55,0.45,0.28,0.55,0.5,0.5,0.45,0.33,0.55,0.28,0.5,0.45,0.5,0.55,0.5,0.5,0.5,0.5,0.55,0.28,0.5,0.5,0.38,0.55,0.5,0.33,0.55,0.5,0.45,0.28,0.45,0.5,0.28,0.45,0.55,0.55,0.38,0.5,0.55,0.45,0.5,0.5" style="fill:rgb(0,0,0);font-family:AdvPTimes;font-size:9.96px;stroke:none;">was estimated at over than 9660 tons of pelagic ﬁsh and</text>
   <text y="128.521" x="51.025,55.478,60.459,65.44,70.422,73.21079999999999,76.139,81.121,86.102,91.083,96.063,98.987,101.786,106.767,111.749,115.5338,118.488,123.47,126.7568,129.656,134.638,139.091,146.872,151.325,154.643,158.569,163.022,165.8108,168.717,174.216,178.052,183.03199999999998,185.894" svgx:width="0.45,0.5,0.5,0.5,0.28,0.55,0.5,0.5,0.5,0.5,0.55,0.28,0.5,0.5,0.38,0.55,0.5,0.33,0.55,0.5,0.45,0.78,0.45,0.33,0.38,0.45,0.28,0.55,0.55,0.38,0.5,0.55,0.33" style="fill:rgb(0,0,0);font-family:AdvPTimes;font-size:9.96px;stroke:none;">about 6000 tons of demersal ﬁsh [</text>
   <text y="128.521" x="189.242" svgx:width="0.5" style="fill:rgb(0,0,255);font-family:AdvPTimes;font-size:9.96px;stroke:none;">3</text>
   <text y="128.521" x="194.231,197.549,200.03900000000002,202.904,210.058,217.838,222.916,227.898,232.878,235.729,240.71,245.164,253.02,257.474,260.791,264.627,269.08,271.86879999999996,274.79,280.289,284.124" svgx:width="0.33,0.25,0.55,0.72,0.78,0.5,0.5,0.5,0.55,0.5,0.45,0.78,0.45,0.33,0.38,0.45,0.28,0.55,0.55,0.38,0.5" style="fill:rgb(0,0,0);font-family:AdvPTimes;font-size:9.96px;stroke:none;">]. Among demersal ﬁsh</text>
   <text y="140.994" x="51.026,54.861,59.842,64.296,68.749,71.549,76.002,79.7868,87.479,91.932,95.25,99.732,107.264,110.064,115.045,119.527,127.107,133.224,137.677,141.513,145.349,149.802,153.0888,160.726,167.879,171.196,174.514,177.314,181.767,186.22,191.2,198.823,204.94,209.921,213.239,217.692,222.237,227.218,232.717,237.697,245.254" svgx:width="0.38,0.5,0.45,0.45,0.28,0.45,0.38,0.55,0.45,0.33,0.45,0.55,0.28,0.5,0.45,0.55,0.61,0.45,0.38,0.38,0.45,0.33,0.55,0.72,0.33,0.33,0.28,0.45,0.45,0.5,0.55,0.61,0.5,0.33,0.45,0.45,0.5,0.55,0.5,0.55,0.33" style="fill:rgb(0,0,0);font-family:AdvPTimes;font-size:9.96px;stroke:none;">species are the Lesser African Threadﬁn (</text>
   <text y="140.994" x="248.6,255.753,260.734,263.534,267.987,272.968,275.768,280.749,285.202" svgx:width="0.72,0.5,0.28,0.45,0.5,0.28,0.5,0.45,0.38" style="fill:rgb(0,0,0);font-family:AdvPTimesI;font-size:9.96px;stroke:none;">Galeoides</text>
   <text y="153.466" x="51.026,56.007,60.46,64.913,69.895,74.876,79.938,84.391,87.191,91.644,94.444,99.425" svgx:width="0.5,0.45,0.45,0.5,0.5,0.5,0.45,0.28,0.45,0.28,0.5,0.38" style="fill:rgb(0,0,0);font-family:AdvPTimesI;font-size:9.96px;stroke:none;">decadactylus</text>
   <text y="153.466" x="103.353,106.671,109.161,113.841,117.158,119.958,123.7428,128.58,133.562,138.543,142.379,145.178,148.496,153.477,157.93,161.248,166.229,170.682,174.615,177.40380000000002,182.154,184.954,189.935,193.771,197.606,202.06,205.8448,210.67,215.123,218.441,222.923,227.622,232.603,237.056,240.374,245.35399999999998,250.128,252.928,260.708,265.69,270.671,273.988,276.887,281.34,286.321" svgx:width="0.33,0.25,0.55,0.33,0.28,0.38,0.55,0.5,0.5,0.38,0.28,0.33,0.5,0.45,0.33,0.5,0.45,0.38,0.28,0.55,0.28,0.5,0.38,0.38,0.45,0.38,0.55,0.45,0.33,0.45,0.55,0.5,0.45,0.33,0.5,0.55,0.28,0.78,0.5,0.5,0.33,0.28,0.45,0.5,0.28" style="fill:rgb(0,0,0);font-family:AdvPTimes;font-size:9.96px;stroke:none;">). Its post-harvest losses are very important</text>
   <text y="165.881" x="51.026,56.007,60.46,64.913,69.367,74.44,78.275,82.757,88.159,93.141,96.4278,101.935,104.735,109.716,114.198,119.623,124.669,129.122,132.44,137.42,142.868,146.703,151.685,155.002,157.79080000000002,163.277,168.258,172.712,175.511,180.568,183.886,188.368,193.778,198.759,202.04579999999999,207.554,210.353,213.153,216.93779999999998,222.464,227.963,232.417,236.252,241.234,245.687,249.522,252.012,257.499,264.653,269.106,272.523,275.323,280.304,285.285" svgx:width="0.5,0.45,0.45,0.45,0.5,0.38,0.45,0.55,0.5,0.33,0.55,0.28,0.5,0.45,0.55,0.5,0.45,0.33,0.5,0.55,0.38,0.5,0.33,0.28,0.55,0.5,0.45,0.28,0.5,0.33,0.45,0.55,0.5,0.33,0.55,0.28,0.28,0.38,0.55,0.55,0.45,0.38,0.5,0.45,0.38,0.25,0.55,0.72,0.45,0.33,0.28,0.5,0.5,0.38" style="fill:rgb(0,0,0);font-family:AdvPTimes;font-size:9.96px;stroke:none;">because of the very soft nature of its ﬂeshes. Various</text>
   <text y="178.353" x="51.026,53.825,57.143,61.596,66.049,68.849,76.629,81.185,86.167,88.966,92.7508,96.662,101.116,104.433,108.915,112.82,117.801,122.254,125.572,128.889,133.871,137.188,144.969,149.422,154.402,158.344,161.143,166.123,170.022,173.339,177.793,182.774,187.755,192.302,196.784,200.636,203.435,208.417,212.87,216.706,221.188,225.07,227.87,232.851,236.687,240.522,244.975,248.811,251.30100000000002,255.23,261.347,266.328,270.81,274.675,277.992,282.446,285.763" svgx:width="0.28,0.33,0.45,0.45,0.28,0.78,0.45,0.5,0.28,0.38,0.55,0.45,0.33,0.45,0.55,0.5,0.45,0.33,0.33,0.5,0.33,0.78,0.45,0.5,0.55,0.28,0.5,0.55,0.33,0.45,0.5,0.5,0.45,0.45,0.55,0.28,0.5,0.45,0.38,0.45,0.55,0.28,0.5,0.38,0.38,0.45,0.38,0.25,0.55,0.61,0.5,0.45,0.55,0.33,0.45,0.33,0.33" style="fill:rgb(0,0,0);font-family:AdvPTimes;font-size:9.96px;stroke:none;">treatments are performed to reduce these losses. The fer-</text>
   <text y="190.769" x="51.026,58.806,63.26,68.241,71.04,75.494,78.293,81.185,86.167,91.147,94.791,99.245,104.226,109.206,112.876,117.858,121.175,126.157,129.034,134.015,138.99499999999998,142.64,145.439,150.41899999999998,154.092,159.073,162.391,167.372,172.353,177.334,181.788,186.27,189.921,192.721,197.702,202.155,204.378" svgx:width="0.78,0.45,0.5,0.28,0.45,0.28,0.28,0.5,0.5,0.55,0.45,0.5,0.5,0.55,0.5,0.33,0.5,0.28,0.5,0.5,0.55,0.28,0.5,0.55,0.5,0.33,0.5,0.5,0.5,0.45,0.45,0.55,0.28,0.5,0.45,0.33,0.33" style="fill:rgb(0,0,0);font-family:AdvPTimes;font-size:9.96px;stroke:none;">mentation and drying to produce the‘‘</text>
   <text y="190.769" x="207.724,210.524,215.505,220.486,225.468,230.515,235.496,238.296" svgx:width="0.28,0.5,0.5,0.5,0.5,0.5,0.28,0.5" style="fill:rgb(0,0,0);font-family:AdvPTimesI;font-size:9.96px;stroke:none;">lanhouin</text>
   <text y="190.769" x="243.271,245.482,248.7688,252.454,255.254,259.0388,262.716,267.697,272.678,277.16,280.801,285.782" svgx:width="0.33,0.33,0.55,0.28,0.38,0.55,0.5,0.5,0.45,0.55,0.5,0.33" style="fill:rgb(0,0,0);font-family:AdvPTimes;font-size:9.96px;stroke:none;">’’ is one of</text>
   <text y="203.241" x="51.026,53.825,58.806,63.288,67.75,72.203,77.184,82.166,85.041,88.358,93.34,96.1288,100.575,104.41,107.21,110.527,114.981,117.866,122.319,127.3,130.1,134.553,138.3378,142.924,147.905,151.1918,155.68,158.479,163.46,167.296,171.08079999999998,175.636,178.953,183.407,188.388,193.369,197.822,200.622,203.421,208.403,213.38299999999998,217.928,222.381,227.363,230.68,233.998,238.451,243.432,246.33,249.13,254.10999999999999,258.576,263.558,267.393,271.846,276.826,281.31,284.109" svgx:width="0.28,0.5,0.45,0.55,0.45,0.5,0.5,0.28,0.33,0.5,0.28,0.55,0.38,0.28,0.33,0.45,0.28,0.45,0.5,0.28,0.45,0.38,0.55,0.5,0.33,0.55,0.28,0.5,0.38,0.38,0.55,0.33,0.45,0.5,0.5,0.45,0.28,0.28,0.5,0.5,0.55,0.45,0.5,0.33,0.33,0.45,0.5,0.28,0.28,0.5,0.55,0.5,0.38,0.45,0.5,0.55,0.28,0.5" style="fill:rgb(0,0,0);font-family:AdvPTimes;font-size:9.96px;stroke:none;">the control strategies of loss reduction currently used in</text>
   <text y="215.713" x="51.026,57.661,62.114,67.095,69.895,74.875,79.202" svgx:width="0.67,0.45,0.5,0.28,0.5,0.55,0.33" style="fill:rgb(0,0,0);font-family:AdvPTimes;font-size:9.96px;stroke:none;">Benin [</text>
   <text y="215.713" x="82.546" svgx:width="0.5" style="fill:rgb(0,0,255);font-family:AdvPTimes;font-size:9.96px;stroke:none;">4</text>
   <text y="215.713" x="87.536,90.853,93.34299999999999,97.627,104.78,109.761,117.016,121.469,126.45,130.904,134.221,136.711,141.054,145.536,149.784,152.583,157.565,160.3538,164.694,169.675,172.9618,177.28,182.261,185.578,190.56,195.541,198.341,202.794,210.671,214.45579999999998,218.778,223.759,228.73899999999998,233.064,235.864,240.845,245.327,249.618,257.399,260.198,264.652,267.969,273.032,278.013,280.813,285.794" svgx:width="0.33,0.25,0.55,0.72,0.5,0.72,0.45,0.5,0.45,0.33,0.25,0.55,0.45,0.55,0.28,0.5,0.28,0.55,0.5,0.33,0.55,0.5,0.33,0.5,0.5,0.28,0.45,0.78,0.38,0.55,0.5,0.5,0.55,0.28,0.5,0.45,0.55,0.78,0.28,0.45,0.33,0.5,0.5,0.28,0.5,0.33" style="fill:rgb(0,0,0);font-family:AdvPTimes;font-size:9.96px;stroke:none;">]. However, a lot of problems on the microbio-</text>
   <text y="228.128" x="51.026,53.825,58.806,63.788,66.587,71.04,75.494,78.2828,81.696,86.678,91.659,96.112,98.912,101.711,104.511,109.491,112.877,117.859,121.1458,124.5,127.299,132.281,135.08,138.8648,142.301,145.618,150.072,153.389,161.17,165.623,170.703,173.503,177.956,182.93599999999998,186.294,191.793,195.629,200.60899999999998,203.925,211.078,215.531,219.3158,222.746,226.063,230.517,235.498,240.479,243.797,246.596,251.148,256.128,259.425" svgx:width="0.28,0.5,0.5,0.28,0.45,0.45,0.28,0.55,0.5,0.5,0.45,0.28,0.28,0.28,0.5,0.55,0.5,0.33,0.55,0.28,0.5,0.28,0.38,0.55,0.33,0.45,0.33,0.78,0.45,0.5,0.28,0.45,0.5,0.55,0.55,0.38,0.5,0.55,0.72,0.45,0.38,0.55,0.33,0.45,0.5,0.5,0.33,0.28,0.45,0.5,0.55,0.33" style="fill:rgb(0,0,0);font-family:AdvPTimes;font-size:9.96px;stroke:none;">logical quality of this fermented ﬁsh was reported [</text>
   <text y="228.128" x="262.773" svgx:width="0.5" style="fill:rgb(0,0,255);font-family:AdvPTimes;font-size:9.96px;stroke:none;">3</text>
   <text y="228.128" x="267.762,271.079" svgx:width="0.33,0.25" style="fill:rgb(0,0,0);font-family:AdvPTimes;font-size:9.96px;stroke:none;">].</text>
   <text y="240.601" x="62.364,68.481,73.462,77.944,80.732,84.05,88.503,92.338,95.138,98.456,101.255,105.708,108.508,111.307,116.391,121.373,125.15780000000001,127.957,130.756,138.537,143.518,148.5,152.335,156.869,161.849,164.636,169.617,174.59699999999998,177.335,180.135,185.116,187.993,192.447,195.764,200.745,205.199,207.998,210.798,215.779,220.76,225.214,228.0028,230.852,234.17,239.151,244.133,249.113,251.885,256.867,260.184,265.166,269.619,274.676,277.475,281.311" svgx:width="0.61,0.5,0.45,0.55,0.33,0.45,0.38,0.28,0.33,0.28,0.45,0.28,0.28,0.5,0.5,0.38,0.55,0.28,0.78,0.5,0.5,0.38,0.45,0.5,0.55,0.5,0.5,0.55,0.28,0.5,0.28,0.45,0.33,0.5,0.45,0.28,0.28,0.5,0.5,0.45,0.28,0.55,0.33,0.5,0.5,0.5,0.55,0.5,0.33,0.5,0.45,0.5,0.28,0.38,0.78" style="fill:rgb(0,0,0);font-family:AdvPTimes;font-size:9.96px;stroke:none;">The restrictions imposed by international food organism</text>
   <text y="253.073" x="51.026,56.007,60.986999999999995,63.441,66.24,71.222,75.704,78.124,83.105,86.941,91.423,93.828,98.809,102.0958,104.543,108.996,113.977,118.431,126.313,129.112,133.566,138.019,140.80780000000001,143.264,147.1,152.081,157.062,159.862,164.921,169.374,173.21,176.009,179.79379999999998,182.269,187.25,190.568,195.021,198.936,203.39,206.707,211.688,216.142,218.941,221.741,226.722,231.175,234.9598,237.487,242.533,247.514,251.996,254.381,257.181,262.161,264.586,269.567,274.02,278.474,281.273,284.073" svgx:width="0.5,0.5,0.55,0.28,0.5,0.45,0.55,0.5,0.38,0.45,0.55,0.5,0.33,0.55,0.45,0.5,0.45,0.78,0.28,0.45,0.45,0.28,0.55,0.38,0.5,0.5,0.28,0.5,0.45,0.38,0.28,0.38,0.55,0.5,0.33,0.45,0.38,0.45,0.33,0.5,0.45,0.28,0.28,0.5,0.45,0.38,0.55,0.5,0.5,0.45,0.55,0.28,0.5,0.55,0.5,0.45,0.45,0.28,0.28,0.5" style="fill:rgb(0,0,0);font-family:AdvPTimes;font-size:9.96px;stroke:none;">on the use of chemical synthesis preservatives due to health</text>
   <text y="265.488" x="51.026,55.479,60.46,65.44,68.26,72.713,77.694,82.676,85.551,88.869,93.85,98.831,106.612,111.065,116.046,118.846,123.299,126.0878,128.977,132.295,135.094,138.93,143.911,147.6958,150.577" svgx:width="0.45,0.5,0.5,0.55,0.45,0.5,0.5,0.28,0.33,0.5,0.5,0.78,0.45,0.5,0.28,0.45,0.28,0.55,0.33,0.28,0.38,0.5,0.38,0.55,0.33" style="fill:rgb(0,0,0);font-family:AdvPTimes;font-size:9.96px;stroke:none;">and environmental risks [</text>
   <text y="265.488" x="153.922" svgx:width="0.5" style="fill:rgb(0,0,255);font-family:AdvPTimes;font-size:9.96px;stroke:none;">7</text>
   <text y="265.488" x="158.912,162.1988,165.035,167.834,172.815,177.269,180.586,185.039,189.493,193.437,196.236,201.218,206.199,208.999,213.97899999999998,216.794,221.248,226.229,230.682,235.663,240.645,244.063,248.516,253.497,257.97900000000004,260.787,263.587,268.568,273.05,275.811,280.792,284.628" svgx:width="0.33,0.55,0.28,0.5,0.45,0.33,0.45,0.45,0.38,0.28,0.5,0.5,0.28,0.5,0.55,0.45,0.5,0.45,0.5,0.5,0.33,0.45,0.5,0.45,0.55,0.28,0.5,0.45,0.55,0.5,0.38,0.45" style="fill:rgb(0,0,0);font-family:AdvPTimes;font-size:9.96px;stroke:none;">] increasingly encourage the use</text>
   <text y="277.96" x="51.026,56.007,59.2938,62.931,67.384,71.22,75.055,79.509,84.49,87.289,90.089,94.542,97.3308,101.028,106.009,108.809,111.608,115.39280000000001,118.999,121.799,126.77900000000001,130.395,133.712,138.693,143.675,148.655,152.277,157.259,160.576,165.03,168.865,173.318,176.636,181.617,186.179,188.979,191.778,196.759,201.73899999999998,205.341" svgx:width="0.5,0.33,0.55,0.45,0.38,0.38,0.45,0.5,0.28,0.28,0.45,0.28,0.55,0.5,0.28,0.28,0.38,0.55,0.28,0.5,0.55,0.33,0.5,0.5,0.5,0.55,0.5,0.33,0.45,0.38,0.45,0.33,0.5,0.45,0.28,0.28,0.5,0.5,0.55,0.33" style="fill:rgb(0,0,0);font-family:AdvPTimes;font-size:9.96px;stroke:none;">of essential oils in food preservation [</text>
   <text y="277.96" x="208.631" svgx:width="0.5" style="fill:rgb(0,0,255);font-family:AdvPTimes;font-size:9.96px;stroke:none;">8</text>
   <text y="277.96" x="213.62,216.938,219.428,223.031,229.148,232.984,236.819,241.272,246.254,249.053,251.943,256.397,259.1858,262.772,267.753,270.552,273.352,277.1368,280.8,285.253" svgx:width="0.33,0.25,0.55,0.61,0.38,0.38,0.45,0.5,0.28,0.28,0.45,0.28,0.55,0.5,0.28,0.28,0.38,0.55,0.45,0.38" style="fill:rgb(0,0,0);font-family:AdvPTimes;font-size:9.96px;stroke:none;">]. Essential oils as</text>
   <text y="290.433" x="51.026,58.179,62.632,65.432,68.2208,74.779,79.233,83.01780000000001,89.633,94.614,99.067,102.385,105.184,110.166,114.619,119.599,126.199,130.653,135.634,143.415,148.396,153.377,158.359,163.34,168.321,172.1058,178.753,183.734,188.716,192.551,196.387,200.92,204.755,208.53979999999999,215.093,219.575,226.091,233.244,236.044,241.025,245.507,252.057,255.374,259.828,264.809,269.79,274.27200000000005,280.8,285.781" svgx:width="0.72,0.45,0.28,0.28,0.55,0.45,0.38,0.55,0.5,0.45,0.33,0.28,0.5,0.45,0.5,0.55,0.45,0.5,0.78,0.5,0.5,0.5,0.5,0.5,0.38,0.55,0.5,0.5,0.38,0.38,0.45,0.38,0.38,0.55,0.45,0.55,0.72,0.28,0.5,0.45,0.55,0.33,0.45,0.5,0.5,0.45,0.55,0.5,0.33" style="fill:rgb(0,0,0);font-family:AdvPTimes;font-size:9.96px;stroke:none;">well as derived compounds possess a wide range of</text>
   <text y="302.848" x="51.026,55.479,59.932,62.732,65.531,70.512,73.312,76.197,78.997,83.45,87.2348,93.659,98.64,101.9268,108.341,115.495,120.476,123.275,127.729,132.71,135.20000000000002,141.62,144.419,149.4,153.882,160.271,164.725,169.706,172.506,175.305,183.086,185.885,190.431,193.749,198.73,203.711,206.511,210.964,213.7528,220.138,224.591,229.044,231.929,234.729,239.71,242.51,245.309,250.289,256.648,259.447,263.2318,269.687,277.467,282.449,286.284" svgx:width="0.45,0.45,0.28,0.28,0.5,0.28,0.28,0.28,0.45,0.38,0.55,0.5,0.33,0.55,0.72,0.5,0.28,0.45,0.5,0.25,0.55,0.28,0.5,0.45,0.55,0.45,0.5,0.28,0.28,0.78,0.28,0.45,0.33,0.5,0.5,0.28,0.45,0.28,0.55,0.45,0.45,0.28,0.28,0.5,0.28,0.28,0.5,0.55,0.28,0.38,0.55,0.78,0.5,0.38,0.28" style="fill:rgb(0,0,0);font-family:AdvPTimes;font-size:9.96px;stroke:none;">activities of which, the antimicrobial activity is most</text>
   <text y="315.32" x="51.026,54.861,57.661,62.642,67.623,70.423,74.876,79.85600000000001,83.056" svgx:width="0.38,0.28,0.5,0.5,0.28,0.45,0.5,0.55,0.33" style="fill:rgb(0,0,0);font-family:AdvPTimes;font-size:9.96px;stroke:none;">studied [</text>
   <text y="315.32" x="86.402" svgx:width="0.5" style="fill:rgb(0,0,255);font-family:AdvPTimes;font-size:9.96px;stroke:none;">9</text>
   <text y="315.32" x="91.391" svgx:width="0.25" style="fill:rgb(0,0,0);font-family:AdvPTimes;font-size:9.96px;stroke:none;">,</text>
   <text y="315.32" x="97.061,102.042" svgx:width="0.5,0.5" style="fill:rgb(0,0,255);font-family:AdvPTimes;font-size:9.96px;stroke:none;">10</text>
   <text y="315.32" x="107.038,110.356,112.84599999999999,115.996,122.113,127.094,131.547,134.347,137.6338,140.883,145.337,150.318,155.299,158.099,160.898,165.351,169.805,172.604,175.404,180.385,185.366,189.1508,192.473,196.926,200.71079999999998,203.925,208.906,212.223,216.677,220.512,224.966,228.283,233.264,237.826,240.626,243.425,248.407,252.86,256.64480000000003,259.879,262.679,267.659,270.821,274.139,279.12,284.102" svgx:width="0.33,0.25,0.55,0.61,0.5,0.45,0.28,0.33,0.55,0.45,0.5,0.5,0.28,0.28,0.45,0.45,0.28,0.28,0.5,0.5,0.38,0.55,0.45,0.38,0.55,0.5,0.33,0.45,0.38,0.45,0.33,0.5,0.45,0.28,0.28,0.5,0.45,0.38,0.55,0.28,0.5,0.55,0.33,0.5,0.5,0.5" style="fill:rgb(0,0,0);font-family:AdvPTimes;font-size:9.96px;stroke:none;">]. Their applications as preservatives in food</text>
   <text y="327.792" x="51.026,56.007,59.2938,63.215,67.668,72.649,75.449,78.248,82.084,86.629,91.61,94.41,97.209,101.663,105.4478,109.419,113.873,118.854,123.834,127.787,132.769,135.568,139.404,142.203,147.185,150.578,155.031,159.484,162.284,166.737,171.718,174.518,178.3028,182.326,187.307,191.76,196.742,201.224,205.116,210.097,214.551,219.004,223.98399999999998,227.963,235.116,237.916,242.897,247.351,250.15,255.13,259.087,261.887,266.868,271.85,276.303,280.138,282.938,285.737" svgx:width="0.5,0.33,0.55,0.45,0.5,0.28,0.28,0.38,0.45,0.5,0.28,0.28,0.45,0.38,0.55,0.45,0.5,0.5,0.55,0.5,0.28,0.38,0.28,0.5,0.33,0.45,0.45,0.28,0.45,0.5,0.28,0.38,0.55,0.5,0.45,0.5,0.45,0.55,0.5,0.45,0.45,0.5,0.55,0.72,0.28,0.5,0.45,0.28,0.5,0.55,0.28,0.5,0.5,0.45,0.38,0.28,0.28,0.33" style="fill:rgb(0,0,0);font-family:AdvPTimes;font-size:9.96px;stroke:none;">or antiseptics and disinfectants have been widely investi-</text>
   <text y="340.208" x="51.026,56.007,60.46,63.26,67.713,72.693,75.687" svgx:width="0.5,0.45,0.28,0.45,0.5,0.55,0.33" style="fill:rgb(0,0,0);font-family:AdvPTimes;font-size:9.96px;stroke:none;">gated [</text>
   <text y="340.208" x="79.031,84.013" svgx:width="0.5,0.5" style="fill:rgb(0,0,255);font-family:AdvPTimes;font-size:9.96px;stroke:none;">11</text>
   <text y="340.208" x="89.009,92.327,94.817,97.796,103.295,107.749,112.73,117.183,120.586,125.04,127.8288,130.791,134.627,137.426,142.408,147.459,150.258,154.711,158.4958,161.518,166.499,170.952,175.934,180.416,183.401,186.718,191.171,196.153,200.606,205.059,207.859,212.427,217.40699999999998,220.364,223.163,228.145,232.627,235.558,240.011,244.992,247.792,250.591,258.462,261.261,265.715,269.032,274.013,278.995,281.876,286.329" svgx:width="0.33,0.25,0.55,0.55,0.45,0.5,0.45,0.33,0.45,0.28,0.55,0.38,0.28,0.5,0.5,0.28,0.45,0.38,0.55,0.5,0.45,0.5,0.45,0.55,0.33,0.45,0.5,0.45,0.45,0.28,0.45,0.5,0.55,0.28,0.5,0.45,0.55,0.45,0.5,0.28,0.28,0.78,0.28,0.45,0.33,0.5,0.5,0.28,0.45,0.28" style="fill:rgb(0,0,0);font-family:AdvPTimes;font-size:9.96px;stroke:none;">]. Several studies have revealed the antimicrobial</text>
   <text y="352.68" x="51.025,55.478,60.459,65.43900000000001,71.207,75.66,80.641,83.441,86.24,91.222,96.203,99.099,104.08,108.534,113.515,116.3038,122.06,127.041,130.359,135.34,140.321,144.85,148.168,150.967,153.767,158.22,162.0048,167.811,172.792,176.0788,181.871,186.325,190.16,193.996,198.539,203.52,206.32,209.119,213.572,216.3608,222.122,227.104,229.903,232.702,236.4868,242.304" svgx:width="0.45,0.5,0.5,0.55,0.45,0.5,0.28,0.28,0.5,0.5,0.28,0.5,0.45,0.5,0.28,0.55,0.5,0.33,0.5,0.5,0.45,0.33,0.28,0.28,0.45,0.38,0.55,0.5,0.33,0.55,0.45,0.38,0.38,0.45,0.5,0.28,0.28,0.45,0.28,0.55,0.5,0.28,0.28,0.38,0.55,0.33" style="fill:rgb(0,0,0);font-family:AdvPTimes;font-size:9.96px;stroke:none;">and antioxidant properties of essential oils [</text>
   <text y="352.68" x="245.651,250.632" svgx:width="0.5,0.5" style="fill:rgb(0,0,255);font-family:AdvPTimes;font-size:9.96px;stroke:none;">12</text>
   <text y="352.68" x="255.629,258.9158,264.699,271.853,276.834,279.633,284.087" svgx:width="0.33,0.55,0.72,0.5,0.28,0.45,0.5" style="fill:rgb(0,0,0);font-family:AdvPTimes;font-size:9.96px;stroke:none;">] which</text>
   <text y="365.152" x="51.025,55.478,60.459,65.44,68.24,73.22,77.897,82.878,87.36,91.957,96.41,101.39,106.016,110.469,113.787,117.105,121.558,126.011,128.92,131.72,136.701,141.183,145.758,150.211,153.011,155.81,160.263,163.673,168.654,173.107,175.907,178.706,183.688,188.17,192.812,195.612,200.59199999999998,205.228,208.027,213.008,217.49,222.122,227.103,230.939,235.421,240.037,245.018,248.3048,252.962,256.798,261.779,266.761,269.56,274.541,278.995,281.875,284.674" svgx:width="0.45,0.5,0.5,0.28,0.5,0.55,0.5,0.45,0.55,0.45,0.5,0.55,0.45,0.33,0.33,0.45,0.45,0.28,0.28,0.5,0.45,0.55,0.45,0.28,0.28,0.45,0.33,0.5,0.45,0.28,0.28,0.5,0.45,0.55,0.28,0.5,0.55,0.28,0.5,0.45,0.55,0.5,0.38,0.45,0.55,0.5,0.33,0.55,0.38,0.5,0.5,0.28,0.5,0.45,0.28,0.28,0.45" style="fill:rgb(0,0,0);font-family:AdvPTimes;font-size:9.96px;stroke:none;">could be an effective alternative to the use of synthetic</text>
   <text y="377.567" x="51.025,55.478,60.459,64.912,72.693,75.493,80.051,84.504,87.2928,90.652,95.633,98.951,103.404,107.24,111.693,115.01,119.992,124.554,127.353,130.153,135.134,139.587,143.37179999999998,146.777,149.577,154.557,157.888,161.206,166.187,171.169,176.149,179.488,183.942,188.923,193.904,197.74,202.279,205.596,210.578,215.031,217.83,220.63,225.693,230.674" svgx:width="0.45,0.5,0.45,0.78,0.28,0.45,0.45,0.28,0.55,0.5,0.33,0.45,0.38,0.45,0.33,0.5,0.45,0.28,0.28,0.5,0.45,0.38,0.55,0.28,0.5,0.55,0.33,0.5,0.5,0.5,0.55,0.45,0.5,0.5,0.38,0.45,0.33,0.5,0.45,0.28,0.28,0.5,0.5,0.25" style="fill:rgb(0,0,0);font-family:AdvPTimes;font-size:9.96px;stroke:none;">chemical preservatives in food conservation.</text>
   <text y="390.04" x="62.363,67.862,70.662,75.115,80.096,82.896,86.6808,93.034,98.015,102.468,105.268,110.325,115.306,120.288,123.087,128.068,133.048,139.351,142.15,147.13,153.411,162.228,167.209,170.527,173.326,177.78,182.324,186.777,191.23,195.712,201.939,205.257,209.71,217.586,220.386,223.185,228.165,234.424,237.224,240.023,245.004" svgx:width="0.55,0.28,0.45,0.5,0.28,0.38,0.55,0.5,0.45,0.28,0.5,0.5,0.5,0.28,0.5,0.5,0.55,0.28,0.5,0.55,0.88,0.5,0.33,0.28,0.45,0.45,0.45,0.45,0.45,0.55,0.33,0.45,0.78,0.28,0.28,0.5,0.55,0.28,0.28,0.5,0.45" style="fill:rgb(0,0,0);font-family:AdvPTimes;font-size:9.96px;stroke:none;">Plants belonging to Myrtaceae family like</text>
   <text y="390.04" x="255.742,261.859,264.659,271.899,276.353,281.334,284.134" svgx:width="0.61,0.28,0.72,0.45,0.5,0.28,0.5" style="fill:rgb(0,0,0);font-family:AdvPTimesI;font-size:9.96px;stroke:none;">Pimenta</text>
   <text y="402.512" x="51.025,54.86,59.842,64.295,68.748,75.901,80.883,84.813" svgx:width="0.38,0.5,0.45,0.45,0.72,0.5,0.38,0.5" style="fill:rgb(0,0,0);font-family:AdvPTimesI;font-size:9.96px;stroke:none;">racemosa</text>
   <text y="402.512" x="94.395,99.376,103.829,108.811,113.293,117.866,121.183,125.637,128.436,132.889,135.78,140.762,145.215,150.195,154.772,157.572,162.553,167.035,171.667,176.12,178.919,181.719,186.172,191.153,193.953,196.752,201.734,206.714,211.351,216.332,219.6188,224.276,227.594,232.047,235.883,240.336,244.789,248.107,252.56,257.541,261.995,265.435,269.27,271.76,276.32,281.301,286.282" svgx:width="0.5,0.45,0.5,0.45,0.55,0.33,0.45,0.28,0.45,0.28,0.5,0.45,0.5,0.55,0.28,0.5,0.45,0.55,0.45,0.28,0.28,0.45,0.5,0.28,0.28,0.5,0.5,0.55,0.5,0.33,0.55,0.33,0.45,0.38,0.45,0.45,0.33,0.45,0.5,0.45,0.33,0.38,0.25,0.55,0.5,0.5,0.28" style="fill:rgb(0,0,0);font-family:AdvPTimes;font-size:9.96px;stroke:none;">have retained the attention of researchers, not</text>
   <text y="414.927" x="51.025,56.006,60.987,63.787,68.767,72.568,77.549,82.002,86.456,90.909,95.982,99.817,104.29899999999999,108.058,113.039,116.3258,120.076,122.876,127.857,132.31,135.11,138.3968,142.243,147.224,150.024,155.005,159.98499999999999,163.786,168.768,171.567,176.548,181.077,184.395,188.23,191.03,193.829,198.809,202.62,207.074,212.055,217.035,220.819,223.619,228.6,233.053,235.853,239.1398,242.986,247.967,250.767,254.602,257.402,260.719,263.519,268.5,273.481,276.281,279.08,284.144" svgx:width="0.5,0.5,0.28,0.5,0.55,0.5,0.45,0.45,0.45,0.5,0.38,0.45,0.55,0.5,0.33,0.55,0.28,0.5,0.45,0.28,0.33,0.55,0.5,0.28,0.5,0.5,0.55,0.5,0.28,0.5,0.45,0.33,0.38,0.28,0.28,0.5,0.55,0.45,0.5,0.5,0.55,0.28,0.5,0.45,0.28,0.33,0.55,0.5,0.28,0.38,0.28,0.33,0.28,0.5,0.5,0.28,0.28,0.5,0.5" style="fill:rgb(0,0,0);font-family:AdvPTimes;font-size:9.96px;stroke:none;">only because of their high diversity and their distribution</text>
   <text y="427.399" x="51.025,55.478,58.795,63.777,68.758,73.815,78.795,81.695,84.495,89.476,93.958,96.945,104.098,109.08,112.397,115.197,120.178,122.66799999999999,125.632,130.613,135.594,138.3828,141.336,145.789,148.588,152.504,157.48399999999998,160.384,163.702,168.683,171.9698,175.011,177.811,182.792,187.245,190.045,193.3318,196.327,201.308,205.762,209.079,211.879,216.332,221.313,224.113,228.595,231.59,236.571,240.407,244.889,247.861,250.66,255.64,258.575,263.557,268.538,273.519,278.501,281.3,285.753" svgx:width="0.45,0.33,0.5,0.5,0.5,0.5,0.55,0.28,0.5,0.45,0.55,0.72,0.5,0.33,0.28,0.5,0.25,0.55,0.5,0.5,0.28,0.55,0.45,0.28,0.38,0.5,0.55,0.33,0.5,0.33,0.55,0.28,0.5,0.45,0.28,0.33,0.55,0.5,0.45,0.33,0.28,0.45,0.5,0.28,0.45,0.55,0.5,0.38,0.45,0.55,0.28,0.5,0.55,0.5,0.5,0.5,0.5,0.28,0.45,0.33" style="fill:rgb(0,0,0);font-family:AdvPTimes;font-size:9.96px;stroke:none;">around the world, but also for their variable use in popular</text>
   <text y="439.872" x="51.025,58.805,63.259,68.24,71.039,75.493,78.292,83.274,87.727,91.51180000000001,94.168,96.967,101.947,104.486,107.285,110.603,115.056,119.51,122.2988,124.895,129.877,132.676,136.512,140.965,145.418,149.254,153.808,157.59279999999998,160.157" svgx:width="0.78,0.45,0.5,0.28,0.45,0.28,0.5,0.45,0.38,0.55,0.28,0.5,0.55,0.28,0.33,0.45,0.45,0.28,0.55,0.5,0.28,0.38,0.45,0.45,0.38,0.45,0.38,0.55,0.33" style="fill:rgb(0,0,0);font-family:AdvPTimes;font-size:9.96px;stroke:none;">medicines to treat diseases [</text>
   <text y="439.872" x="163.447,168.428" svgx:width="0.5,0.5" style="fill:rgb(0,0,255);font-family:AdvPTimes;font-size:9.96px;stroke:none;">13</text>
   <text y="439.872" x="173.424,176.742,179.232,181.758,185.075,190.05499999999998,192.586,199.221,203.754,208.736,211.535,216.516,219.006,221.499,224.298,229.279,233.761,236.295,239.095,243.548,248.001,252.982,257.436,261.2208,263.848,268.829,272.11580000000004,274.676,277.475,282.457,285.256" svgx:width="0.33,0.25,0.55,0.33,0.5,0.55,0.67,0.45,0.5,0.28,0.5,0.25,0.55,0.28,0.5,0.45,0.55,0.28,0.45,0.45,0.5,0.45,0.38,0.55,0.5,0.33,0.55,0.28,0.5,0.28,0.38" style="fill:rgb(0,0,0);font-family:AdvPTimes;font-size:9.96px;stroke:none;">]. In Benin, the leaves of this</text>
   <text y="452.287" x="51.025,56.006,58.805,63.259,68.24,71.02879999999999,73.872,78.325,81.643,86.125,88.952,93.934,97.769,102.222,107.202,110.042,112.842,117.822,120.586,125.04,130.021,132.821,135.62,140.601,145.055,148.479,153.459,156.246,161.227,164.544,168.998,173.979,178.432,181.75,186.203,189.003,191.905,196.886,201.867,205.65179999999998,208.515,215.668,220.65,225.103,228.421,232.903,235.727,238.527,243.508,247.99,250.808,254.643,259.624,264.078,268.531,271.33,275.784,279.5688,282.499,285.298" svgx:width="0.5,0.28,0.45,0.5,0.28,0.55,0.45,0.33,0.45,0.55,0.5,0.38,0.45,0.5,0.55,0.28,0.5,0.55,0.45,0.5,0.28,0.28,0.5,0.45,0.33,0.5,0.55,0.5,0.33,0.45,0.5,0.45,0.33,0.45,0.28,0.28,0.5,0.5,0.38,0.55,0.72,0.5,0.45,0.33,0.45,0.55,0.28,0.5,0.45,0.55,0.38,0.5,0.45,0.45,0.28,0.45,0.38,0.55,0.28,0.38" style="fill:rgb(0,0,0);font-family:AdvPTimes;font-size:9.96px;stroke:none;">plant are used in culinary preparations where the species is</text>
   <text y="464.759" x="51.025,56.006,60.987,65.968,73.191,78.171,82.772,87.226,91.0108,95.755,97.909,101.226,104.026,108.479,113.46,116.778,121.323,124.11179999999999,128.75,131.549,136.003,140.456,143.773,146.041,149.358,151.848,156.473,162.59,167.571,172.552,176.33679999999998,181.077,183.877,188.858,193.34,197.972,202.953,206.271,210.724,214.639,219.093,224.074,226.86280000000002,231.534,235.369,238.169,243.15,248.132,253.112,257.782,262.236,265.035,272.816,276.6008,281.31,284.109" svgx:width="0.5,0.5,0.5,0.72,0.5,0.55,0.45,0.38,0.55,0.33,0.33,0.28,0.45,0.5,0.33,0.45,0.28,0.55,0.28,0.45,0.45,0.33,0.33,0.33,0.25,0.55,0.61,0.5,0.5,0.38,0.55,0.28,0.5,0.45,0.55,0.5,0.33,0.45,0.38,0.45,0.5,0.28,0.55,0.38,0.28,0.5,0.5,0.5,0.55,0.45,0.28,0.78,0.38,0.55,0.28,0.5" style="fill:rgb(0,0,0);font-family:AdvPTimes;font-size:9.96px;stroke:none;">known as ‘‘laurel leaf’’. Thus the present study aims to</text>
   <text y="477.231" x="51.025,53.824,58.805,63.787,68.24,72.076,74.875,77.675,82.656,87.109,90.029,94.511,98.08,100.879,105.861,110.343,113.953,118.407,121.724,127.224,131.677,136.13,140.583,145.563,149.216,154.197,157.4838,161.121,163.921,168.902,173.384,176.995,181.448,185.284,189.119,193.572,198.554,201.353,204.153,208.606,211.3948,215.092,220.073,222.872,225.66080000000002,229.264,233.718,238.699,241.498,244.912,249.365,253.818,256.618,261.071,266.05100000000004,269.686,273.003,276.321,281.302" svgx:width="0.28,0.5,0.5,0.45,0.38,0.28,0.28,0.5,0.45,0.28,0.45,0.55,0.28,0.5,0.45,0.55,0.45,0.33,0.55,0.45,0.45,0.45,0.5,0.55,0.5,0.33,0.55,0.28,0.5,0.45,0.55,0.45,0.38,0.38,0.45,0.5,0.28,0.28,0.45,0.28,0.55,0.5,0.28,0.28,0.55,0.45,0.5,0.28,0.33,0.45,0.45,0.28,0.45,0.5,0.55,0.33,0.33,0.5,0.78" style="fill:rgb(0,0,0);font-family:AdvPTimes;font-size:9.96px;stroke:none;">investigate the efﬁcacy of the essential oil extracted from</text>
   <text y="489.647" x="51.025,53.824,58.805,63.287,68.089,70.888,75.341,79.795,84.87,89.323,93.1078,97.965,102.947" svgx:width="0.28,0.5,0.45,0.55,0.28,0.45,0.45,0.5,0.45,0.38,0.55,0.5,0.33" style="fill:rgb(0,0,0);font-family:AdvPTimes;font-size:9.96px;stroke:none;">the leaves of</text>
   <text y="489.647" x="111.119,117.236,120.036,127.189,131.642,136.623,139.423,144.403,149.273,153.108,158.09,162.543,166.996,174.149,179.131,183.061" svgx:width="0.61,0.28,0.72,0.45,0.5,0.28,0.5,0.55,0.38,0.5,0.45,0.45,0.72,0.5,0.38,0.5" style="fill:rgb(0,0,0);font-family:AdvPTimesI;font-size:9.96px;stroke:none;">Pimenta racemosa</text>
   <text y="489.647" x="192.87,195.67,200.64999999999998,205.456,208.255,213.237,217.719,222.577,225.376,233.157,238.138,241.456,246.437,251.489,255.942,263.723,268.176,273.158,275.9468,280.799,285.78" svgx:width="0.28,0.5,0.55,0.28,0.5,0.45,0.55,0.28,0.78,0.5,0.33,0.5,0.5,0.45,0.78,0.45,0.5,0.28,0.55,0.5,0.33" style="fill:rgb(0,0,0);font-family:AdvPTimes;font-size:9.96px;stroke:none;">in the improvement of</text>
   <text y="502.119" x="51.025,56.006,59.323,64.305,69.286,74.267,78.803,81.603,86.584,91.56400000000001,96.661,99.461,103.914,108.367,113.349,118.33,123.42,126.219,131.201,136.182,141.16199999999998,146.267,150.72,155.702,160.682,165.826,168.625,173.606,178.088,183.173,188.155,193.136,195.936,199.253,202.053,204.852,207.652,212.71,217.691,222.144,224.93280000000001,230.057,234.511,239.492,244.47199999999998,249.616,257.397,260.196,264.65,267.967,273.03,278.011,280.811,285.792" svgx:width="0.5,0.33,0.5,0.5,0.5,0.45,0.28,0.5,0.5,0.55,0.28,0.45,0.45,0.5,0.5,0.5,0.28,0.5,0.5,0.5,0.55,0.45,0.5,0.5,0.55,0.28,0.5,0.45,0.55,0.5,0.5,0.28,0.33,0.28,0.28,0.28,0.5,0.5,0.45,0.28,0.55,0.45,0.5,0.5,0.55,0.78,0.28,0.45,0.33,0.5,0.5,0.28,0.5,0.33" style="fill:rgb(0,0,0);font-family:AdvPTimes;font-size:9.96px;stroke:none;">producing technology and the nutritional and microbio-</text>
   <text y="514.591" x="51.025,53.824,58.805,63.787,66.586,71.039,75.493,78.28179999999999,81.695,86.677,91.658,96.111,98.911,101.71,104.51,107.309,111.855,115.63980000000001,118.998,123.98,127.2668,130.677,133.994,138.447,141.765,149.546,153.999,158.98,161.78,166.336,171.316,174.613,180.112,183.948,188.928,192.3,197.8,202.781,207.762,211.08,214.8648,218.265,223.246,226.564,231.545,236.526,241.507,246.043,250.497,255.478" svgx:width="0.28,0.5,0.5,0.28,0.45,0.45,0.28,0.55,0.5,0.5,0.45,0.28,0.28,0.28,0.28,0.45,0.38,0.55,0.5,0.33,0.55,0.33,0.45,0.33,0.78,0.45,0.5,0.28,0.45,0.5,0.55,0.55,0.38,0.5,0.55,0.55,0.5,0.5,0.33,0.38,0.55,0.5,0.33,0.5,0.5,0.5,0.45,0.45,0.5,0.25" style="fill:rgb(0,0,0);font-family:AdvPTimes;font-size:9.96px;stroke:none;">logical qualities of fermented ﬁsh ﬂours produced.</text>
   <text y="551.952" x="51.025,56.004999999999995,61.002,68.155,72.609,76.444,82.035,84.835,88.152,91.9368,95.301,100.283,105.782,111.25999999999999,114.634,121.787,124.586,128.422,132.875,138.375,142.3,146.136,148.935,153.916" svgx:width="0.5,0.55,0.72,0.45,0.38,0.55,0.28,0.33,0.38,0.55,0.5,0.55,0.55,0.55,0.72,0.28,0.38,0.45,0.55,0.38,0.38,0.28,0.5,0.55" style="fill:rgb(0,0,0);font-family:AdvPTimesB;font-size:9.96px;stroke:none;">2 Results and Discussion</text>
   <text y="576.84" x="51.025,57.142,62.123,66.605,72.795,77.776,80.576,85.029,87.828,92.808,98.987,103.968,107.2548,113.443,117.897,121.732,125.568,130.111,135.092,137.891,140.691,145.144,147.93280000000001,154.092,159.073,161.872,164.75,168.5348,174.727,179.708" svgx:width="0.61,0.5,0.45,0.55,0.5,0.28,0.45,0.28,0.5,0.55,0.5,0.33,0.55,0.45,0.38,0.38,0.45,0.5,0.28,0.28,0.45,0.28,0.55,0.5,0.28,0.28,0.38,0.55,0.5,0.33" style="fill:rgb(0,0,0);font-family:AdvPTimes;font-size:9.96px;stroke:none;">The yield of essential oils of</text>
   <text y="576.84" x="189.185,195.302,198.101,205.255,209.708,214.689,217.587,222.56699999999998,228.699,232.534,237.515,241.969,246.422,253.575,258.556,262.487" svgx:width="0.61,0.28,0.72,0.45,0.5,0.28,0.5,0.55,0.38,0.5,0.45,0.45,0.72,0.5,0.38,0.5" style="fill:rgb(0,0,0);font-family:AdvPTimesI;font-size:9.96px;stroke:none;">Pimenta racemosa</text>
   <text y="576.84" x="273.657,280.81,285.263" svgx:width="0.72,0.45,0.38" style="fill:rgb(0,0,0);font-family:AdvPTimes;font-size:9.96px;stroke:none;">was</text>
   <text y="589.313" x="51.025,56.006,58.497,63.478,68.459,76.82,79.30999999999999,82.943,86.26,91.242,94.111,101.264,104.5508,108.227,113.208,118.189,121.507,124.384,129.365,134.345,137.99,142.971,147.953,152.934,156.252,161.233,166.28,169.079,172.915,175.714,178.514,181.313,184.113,188.566,191.451,194.251,199.232,204.213,206.703,210.386,214.84,219.821,224.801,228.471,233.453,236.252,239.04080000000002,242.758,249.911,254.364,258.1488,261.863,266.844,271.297,274.097,276.896,281.878" svgx:width="0.5,0.25,0.5,0.5,0.83,0.25,0.55,0.33,0.5,0.28,0.72,0.33,0.55,0.5,0.5,0.33,0.28,0.5,0.5,0.55,0.5,0.5,0.5,0.33,0.5,0.5,0.28,0.38,0.28,0.28,0.28,0.28,0.45,0.28,0.28,0.5,0.5,0.25,0.55,0.45,0.5,0.5,0.55,0.5,0.28,0.28,0.55,0.72,0.45,0.38,0.55,0.5,0.45,0.28,0.28,0.5,0.72" style="fill:rgb(0,0,0);font-family:AdvPTimes;font-size:9.96px;stroke:none;">2.13%, (v/w) during hydrodistillation, and oil was yellow</text>
   <text y="601.728" x="51.025,53.824,58.804,61.512,65.966,70.947,73.746,78.803,83.785,87.102,89.592,92.296,98.931,103.912,108.365,116.146,118.946,123.399,127.955,130.7438,133.454,137.907,142.889,147.342,150.235,155.216,159.052,161.852,165.6368,168.434,173.415,178.39499999999998,181.076,188.23,194.865,197.744,206.561,212.03900000000002,214.808,219.789,223.0758,225.806,228.606,233.587,238.069,240.773,245.226,250.208,258.064,263.046,268.027,273.008,277.461,282.443,285.242" svgx:width="0.28,0.5,0.55,0.45,0.5,0.28,0.5,0.5,0.33,0.25,0.55,0.67,0.5,0.45,0.78,0.28,0.45,0.45,0.28,0.55,0.45,0.5,0.45,0.28,0.5,0.38,0.28,0.38,0.55,0.5,0.5,0.55,0.72,0.67,0.28,0.88,0.55,0.55,0.5,0.33,0.55,0.28,0.5,0.45,0.55,0.45,0.5,0.78,0.5,0.5,0.5,0.45,0.5,0.28,0.38" style="fill:rgb(0,0,0);font-family:AdvPTimes;font-size:9.96px;stroke:none;">in colour. Chemical analysis by GC/MS of the components</text>
   <text y="614.2" x="51.025,56.006,59.2928,62.59,65.39,70.371,74.853,78.181,83.162,85.961,88.7498,92.014,94.813,99.267,104.247,107.604,110.404,115.384,118.66,121.459,126.441,130.894,135.875,138.675,141.474,147.062,151.515,155.969,158.768,161.568,166.549,171.529,174.841,179.822,183.1088,186.463,191.444,196.42399999999998,199.729,204.183,209.164,216.945,221.926,226.907,231.889,236.342,241.323,244.232,248.0168,251.319,254.636,260.753,265.206,270.188,272.987" svgx:width="0.5,0.33,0.55,0.28,0.5,0.45,0.55,0.5,0.28,0.28,0.55,0.28,0.45,0.5,0.55,0.28,0.5,0.55,0.28,0.5,0.45,0.5,0.28,0.28,0.55,0.45,0.45,0.28,0.28,0.5,0.5,0.55,0.5,0.33,0.55,0.5,0.5,0.55,0.45,0.5,0.78,0.5,0.5,0.5,0.45,0.5,0.28,0.38,0.55,0.33,0.61,0.45,0.5,0.28,0.45" style="fill:rgb(0,0,0);font-family:AdvPTimes;font-size:9.96px;stroke:none;">of the oil led to identiﬁcation of 24 components (Table</text>
   <text y="614.2" x="280.8" svgx:width="0.5" style="fill:rgb(0,0,255);font-family:AdvPTimes;font-size:9.96px;stroke:none;">1</text>
   <text y="614.2" x="285.789" svgx:width="0.33" style="fill:rgb(0,0,0);font-family:AdvPTimes;font-size:9.96px;stroke:none;">)</text>
   <text y="626.672" x="51.025,54.342,58.795,63.777,67.094,71.548,75.383,79.937,84.918,87.718,90.517,95.499,100.479,103.238,108.219,113.2,115.691,120.672,129.033,131.523,134.248,140.365,145.347,149.829,152.559,160.34,164.794,167.593,172.574,175.8608,178.638,183.091,188.072,195.929,200.91,205.891,210.873,215.326,220.307,223.107,226.8918,229.717,234.698,237.9848,240.771,243.571,248.552" svgx:width="0.33,0.45,0.5,0.33,0.45,0.38,0.45,0.5,0.28,0.28,0.5,0.5,0.55,0.5,0.5,0.25,0.5,0.83,0.25,0.55,0.61,0.5,0.45,0.55,0.78,0.45,0.28,0.5,0.33,0.55,0.45,0.5,0.78,0.5,0.5,0.5,0.45,0.5,0.28,0.38,0.55,0.5,0.33,0.55,0.28,0.5,0.45" style="fill:rgb(0,0,0);font-family:AdvPTimes;font-size:9.96px;stroke:none;">representing 96.4%. The major components of the</text>
   <text y="626.672" x="255.742,261.859,264.659,271.899,276.353,281.334,284.134" svgx:width="0.61,0.28,0.72,0.45,0.5,0.28,0.5" style="fill:rgb(0,0,0);font-family:AdvPTimesI;font-size:9.96px;stroke:none;">Pimenta</text>
   <text y="639.088" x="51.025,54.86,59.842,64.295,68.748,75.901,80.883,84.813" svgx:width="0.38,0.5,0.45,0.45,0.72,0.5,0.38,0.5" style="fill:rgb(0,0,0);font-family:AdvPTimesI;font-size:9.96px;stroke:none;">racemosa</text>
   <text y="639.088" x="93.204,98.186,100.985,103.7738,107.264,114.417,118.87,122.187,126.669,130.111,137.892,142.873,146.19,150.644" svgx:width="0.5,0.28,0.28,0.55,0.72,0.45,0.33,0.45,0.55,0.78,0.5,0.33,0.45,0.45" style="fill:rgb(0,0,0);font-family:AdvPTimes;font-size:9.96px;stroke:none;">oil were myrce</text>
   <text y="638.691" x="151.314" svgx:width="0.33" style="fill:rgb(0,0,0);font-family:AdvPTimes;font-size:9.96px;stroke:none;">`</text>
   <text y="639.088" x="155.17,160.151,164.633,168.038,171.356,176.337,181.318,183.809,188.79,197.178,200.495,202.985,206.419,210.873,215.854,220.307,225.288,228.088,232.541,237.522,240.3108,243.836,247.153,252.135,254.625,259.607,267.905,271.1918,274.676,279.129,284.111" svgx:width="0.5,0.45,0.55,0.33,0.5,0.5,0.25,0.5,0.83,0.33,0.25,0.55,0.45,0.5,0.45,0.5,0.28,0.45,0.5,0.28,0.55,0.33,0.5,0.25,0.5,0.83,0.33,0.55,0.45,0.5,0.5" style="fill:rgb(0,0,0);font-family:AdvPTimes;font-size:9.96px;stroke:none;">ne (25.1%), chavicol (7.5%) and</text>
   <text y="651.56" x="51.026,55.479,60.46,65.442,69.895,74.876,79.938,82.7268,85.381,88.698,93.679,98.661,101.151,106.133,114.52,117.838,120.32799999999999,122.968,130.121,132.92,137.901,142.881,145.588,150.569,153.886,158.868,163.849,168.83,172.233,175.032,177.832,182.813,187.794,191.5788,194.286,199.267,202.5538,205.284,209.738,213.055,218.037,225.817,230.271,233.07,235.87,240.352,243.098,247.552,252.533,260.314,265.295,270.276,275.258,280.239,285.22" svgx:width="0.45,0.5,0.5,0.45,0.5,0.5,0.28,0.55,0.33,0.5,0.5,0.25,0.5,0.83,0.33,0.25,0.55,0.72,0.28,0.5,0.5,0.55,0.5,0.33,0.5,0.5,0.5,0.33,0.28,0.28,0.5,0.5,0.38,0.55,0.5,0.33,0.55,0.45,0.33,0.5,0.78,0.45,0.28,0.28,0.45,0.55,0.45,0.5,0.78,0.5,0.5,0.5,0.5,0.5,0.38" style="fill:rgb(0,0,0);font-family:AdvPTimes;font-size:9.96px;stroke:none;">eugenol (51.1%). High proportions of aromatic compounds</text>
   <text y="664.032" x="51.026,54.343,59.324,64.306,66.796,71.778,80.165,83.4518,87.649,90.967,95.948,98.817,101.617,106.598,113.751,118.204,123.184,127.447,132.428,137.408,141.62,146.601,151.582,156.563,159.881,164.862,169.398,173.851,177.169,182.15,187.132,192.112,196.327,204.108,209.089,214.07,219.118,221.917,226.37,229.688,234.669,239.122,244.104,248.654,252.4388,256.704,260.022,265.003,269.984,272.475,277.456,285.755" svgx:width="0.33,0.5,0.5,0.25,0.5,0.83,0.33,0.55,0.33,0.5,0.28,0.28,0.5,0.72,0.45,0.5,0.55,0.5,0.5,0.55,0.5,0.5,0.5,0.33,0.5,0.45,0.45,0.33,0.5,0.5,0.5,0.55,0.78,0.5,0.5,0.5,0.28,0.45,0.33,0.5,0.45,0.5,0.45,0.38,0.55,0.33,0.5,0.5,0.25,0.5,0.83,0.33" style="fill:rgb(0,0,0);font-family:AdvPTimes;font-size:9.96px;stroke:none;">(56.6%) followed by hydrocarbon monoterpenes (29.9%)</text>
   <text y="676.447" x="51.026,58.179,62.632,65.95,70.432,73.93,78.383,81.182,85.018,89.998,93.431,96.231,101.212,105.666,110.723,113.522,116.322,121.821,126.274,131.254,134.76,137.56,142.54,145.985,148.785,153.766,158.248,161.689,166.142,169.978,173.814,178.267,183.248,186.048,188.847,193.3,196.08880000000002,199.616,204.597,207.397,210.196,212.686,216.17,222.287,226.74,231.721,234.521" svgx:width="0.72,0.45,0.33,0.45,0.55,0.45,0.28,0.38,0.5,0.55,0.28,0.5,0.45,0.5,0.28,0.28,0.55,0.45,0.5,0.55,0.28,0.5,0.55,0.28,0.5,0.45,0.55,0.45,0.38,0.38,0.45,0.5,0.28,0.28,0.45,0.28,0.55,0.5,0.28,0.28,0.25,0.55,0.61,0.45,0.5,0.28,0.45" style="fill:rgb(0,0,0);font-family:AdvPTimes;font-size:9.96px;stroke:none;">were also identiﬁed in the essential oil. Table</text>
   <text y="676.447" x="242.363" svgx:width="0.5" style="fill:rgb(0,0,255);font-family:AdvPTimes;font-size:9.96px;stroke:none;">2</text>
   <text y="676.447" x="250.754,255.735,259.053,263.506,267.421,271.875,276.856,279.655,284.109" svgx:width="0.5,0.33,0.45,0.38,0.45,0.5,0.28,0.45,0.5" style="fill:rgb(0,0,0);font-family:AdvPTimes;font-size:9.96px;stroke:none;">presented</text>
   <text y="688.92" x="51.026,53.825,58.806,63.288,68.146,71.464,75.917,79.753,84.734,87.534,90.333,94.1178,99.043,104.025,107.3118,112.196,114.995,119.977,124.459,129.317,134.298,139.279,144.261,148.096,150.896,155.349,160.33,164.784,169.852,174.305,182.086,184.885,189.338,193.792,196.5808,201.486,205.939,210.92,215.374,218.777,223.23,227.683,230.483,234.936,238.254,241.053,244.889,247.688,250.488,255.06,258.8448,263.734,268.715,272.0018,276.887,279.686,284.667" svgx:width="0.28,0.5,0.45,0.55,0.33,0.45,0.38,0.5,0.28,0.28,0.38,0.55,0.5,0.33,0.55,0.28,0.5,0.45,0.55,0.5,0.5,0.5,0.38,0.28,0.45,0.5,0.45,0.5,0.45,0.78,0.28,0.45,0.45,0.28,0.55,0.45,0.5,0.45,0.33,0.45,0.45,0.28,0.45,0.33,0.28,0.38,0.28,0.28,0.45,0.38,0.55,0.5,0.33,0.55,0.28,0.5,0.45" style="fill:rgb(0,0,0);font-family:AdvPTimes;font-size:9.96px;stroke:none;">the results of the physicochemical characteristics of the</text>
   <text y="701.392" x="51.026,56.007,58.806,62.124,65.442,69.895,73.212,77.666,82.647,85.4358,89.917,94.898,98.215,103.197,108.178,113.159,116.94380000000001,121.437,126.419,129.7058,134.137,137.454,141.907,145.225,153.006,157.551,162.532,165.332,169.785,174.765,179.207,184.707,188.542,193.522,197.916,203.416,208.397,213.378,216.66479999999999,221.103,226.084,229.402,234.383,239.365,244.346,248.882,253.335,258.316,260.806,265.21,271.327,276.308,280.761,284.597" svgx:width="0.5,0.28,0.33,0.33,0.45,0.33,0.45,0.5,0.28,0.55,0.5,0.33,0.5,0.5,0.5,0.38,0.55,0.5,0.33,0.55,0.33,0.45,0.33,0.78,0.45,0.5,0.28,0.45,0.5,0.55,0.55,0.38,0.5,0.55,0.55,0.5,0.5,0.33,0.55,0.5,0.33,0.5,0.5,0.5,0.45,0.45,0.5,0.25,0.55,0.61,0.5,0.45,0.38,0.45" style="fill:rgb(0,0,0);font-family:AdvPTimes;font-size:9.96px;stroke:none;">different groups of fermented ﬁsh ﬂour produced. These</text>
   <text y="713.807" x="51.026,54.343,58.796,62.632,67.613,70.413,73.212,76.99680000000001,80.959,83.759,88.74,93.721,96.521,100.974,105.427,108.227,112.68,117.66000000000001,121.608,124.407,129.388,133.842,136.63080000000002,140.486,143.285,148.267,152.749,156.586,164.367,169.348,172.234,176.069,178.869,183.85,187.168,191.65,195.477,200.459,203.7458,207.667,210.984,215.437,218.755,226.536,230.989,235.97,238.77,243.326,248.30599999999998,252.113,257.612,261.448,266.428,270.311,275.811,280.792,285.773" svgx:width="0.33,0.45,0.38,0.5,0.28,0.28,0.38,0.55,0.28,0.5,0.5,0.28,0.45,0.45,0.28,0.45,0.5,0.55,0.28,0.5,0.45,0.28,0.55,0.28,0.5,0.45,0.55,0.78,0.5,0.28,0.38,0.28,0.5,0.33,0.45,0.55,0.5,0.33,0.55,0.33,0.45,0.33,0.78,0.45,0.5,0.28,0.45,0.5,0.55,0.55,0.38,0.5,0.55,0.55,0.5,0.5,0.33" style="fill:rgb(0,0,0);font-family:AdvPTimes;font-size:9.96px;stroke:none;">results indicated that the moisture of fermented ﬁsh ﬂour</text>
   <text y="624.176" x="306.143,311.124,314.442,319.423,324.404,329.386,333.922,338.375,343.355,347.017,354.171,358.624,362.40880000000004,366.123,371.104,375.557,378.357,385.51,389.963,394.525,399.505,403.143,408.124,413.105,415.596,420.577" svgx:width="0.5,0.33,0.5,0.5,0.5,0.45,0.45,0.5,0.55,0.72,0.45,0.38,0.55,0.5,0.45,0.28,0.72,0.45,0.45,0.5,0.55,0.5,0.5,0.25,0.5,0.5" style="fill:rgb(0,0,0);font-family:AdvPTimes;font-size:9.96px;stroke:none;">produced was between 13.26</text>
   <text y="624.176" x="428.882" svgx:width="0.78" style="fill:rgb(0,0,0);font-family:AdvTir_symb;font-size:9.96px;stroke:none;">±</text>
   <text y="624.176" x="439.938,444.919,447.41,452.391,457.37100000000004,461.027,465.481,470.462,475.442,479.113,484.094,489.147,491.637,496.619" svgx:width="0.5,0.25,0.5,0.5,0.55,0.45,0.5,0.5,0.55,0.5,0.5,0.25,0.5,0.5" style="fill:rgb(0,0,0);font-family:AdvPTimes;font-size:9.96px;stroke:none;">0.11 and 14.06</text>
   <text y="624.176" x="504.908" svgx:width="0.78" style="fill:rgb(0,0,0);font-family:AdvTir_symb;font-size:9.96px;stroke:none;">±</text>
   <text y="624.176" x="515.963,520.945,523.435,528.417,533.398,541.758" svgx:width="0.5,0.25,0.5,0.5,0.83,0.25" style="fill:rgb(0,0,0);font-family:AdvPTimes;font-size:9.96px;stroke:none;">0.01%,</text>
   <text y="636.648" x="306.144,313.297,316.096,318.896,323.87600000000003,327.687,332.16900000000004,335.964,340.945,348.1162,351.951,356.932,361.385,364.703,369.684,372.484,377.465,382.445,386.306,389.623,392.941,397.922,405.6908,409.493,414.474,416.965,422.022" svgx:width="0.72,0.28,0.28,0.5,0.55,0.45,0.55,0.5,0.72,0.55,0.5,0.45,0.33,0.5,0.28,0.5,0.5,0.55,0.33,0.33,0.5,0.78,0.55,0.5,0.25,0.5,0.5" style="fill:rgb(0,0,0);font-family:AdvPTimes;font-size:9.96px;stroke:none;">with a pH varying from 6.17</text>
   <text y="636.648" x="430.301" svgx:width="0.78" style="fill:rgb(0,0,0);font-family:AdvTir_symb;font-size:9.96px;stroke:none;">±</text>
   <text y="636.648" x="441.356,446.338,448.828,453.81,458.79,462.615,465.415,470.39500000000004,474.181,479.162,481.653,486.71" svgx:width="0.5,0.25,0.5,0.5,0.55,0.28,0.5,0.55,0.5,0.25,0.5,0.5" style="fill:rgb(0,0,0);font-family:AdvPTimes;font-size:9.96px;stroke:none;">0.02 to 6.22</text>
   <text y="636.648" x="494.988" svgx:width="0.78" style="fill:rgb(0,0,0);font-family:AdvTir_symb;font-size:9.96px;stroke:none;">±</text>
   <text y="636.648" x="506.043,511.025,513.515,518.497,523.478,525.968,529.797,534.251,539.232" svgx:width="0.5,0.25,0.5,0.5,0.25,0.55,0.45,0.5,0.5" style="fill:rgb(0,0,0);font-family:AdvPTimes;font-size:9.96px;stroke:none;">0.04, and</text>
   <text y="649.12" x="306.145,310.598,315.57800000000003,320.374,324.828,329.281,332.08,337.062,339.861,342.661,347.641,352.405,357.451,361.905,364.704,371.857,376.31,380.764,385.744,390.56,395.541,398.032,403.013" svgx:width="0.45,0.5,0.55,0.45,0.45,0.28,0.5,0.28,0.28,0.5,0.55,0.5,0.45,0.28,0.72,0.45,0.45,0.5,0.55,0.5,0.25,0.5,0.5" style="fill:rgb(0,0,0);font-family:AdvPTimes;font-size:9.96px;stroke:none;">an acidity between 1.16</text>
   <text y="649.12" x="411.31" svgx:width="0.78" style="fill:rgb(0,0,0);font-family:AdvTir_symb;font-size:9.96px;stroke:none;">±</text>
   <text y="649.12" x="422.366,427.412,429.902,434.884,439.86400000000003,444.589,449.042,454.024,459.004,463.808,468.789,471.28,476.261" svgx:width="0.5,0.25,0.5,0.5,0.55,0.45,0.5,0.5,0.55,0.5,0.25,0.5,0.5" style="fill:rgb(0,0,0);font-family:AdvPTimes;font-size:9.96px;stroke:none;">0.06 and 1.81</text>
   <text y="649.12" x="484.557" svgx:width="0.78" style="fill:rgb(0,0,0);font-family:AdvTir_symb;font-size:9.96px;stroke:none;">±</text>
   <text y="649.12" x="495.613,500.594,503.085,508.066,513.131,521.43,523.92,528.664,534.782,539.763" svgx:width="0.5,0.25,0.5,0.5,0.83,0.25,0.55,0.61,0.5,0.45" style="fill:rgb(0,0,0);font-family:AdvPTimes;font-size:9.96px;stroke:none;">0.05%. The</text>
   <text y="661.535" x="306.146,309.463,313.917,317.752,322.734,325.533,328.333,332.11780000000005,337.213,342.194,347.176,349.975,354.504,357.304,362.285,366.738,371.718,376.728,381.709,386.69,390.008,392.885,397.866,402.846,407.852,410.651,415.633,420.115,425.086,429.54,434.521,438.974,441.774,446.755,451.208,454.112,456.912,461.893,466.873,471.857,476.903,480.18980000000005,485.18,487.979,492.96,497.442,502.471,507.452,512.433,515.233,518.55,521.35,524.149,526.949,532.008,536.989,541.443" svgx:width="0.33,0.45,0.38,0.5,0.28,0.28,0.38,0.55,0.5,0.5,0.28,0.45,0.28,0.5,0.45,0.5,0.55,0.5,0.5,0.33,0.28,0.5,0.5,0.55,0.28,0.5,0.45,0.55,0.45,0.5,0.45,0.28,0.5,0.45,0.28,0.28,0.5,0.5,0.55,0.5,0.33,0.55,0.28,0.5,0.45,0.55,0.5,0.5,0.28,0.33,0.28,0.28,0.28,0.5,0.5,0.45,0.28" style="fill:rgb(0,0,0);font-family:AdvPTimes;font-size:9.96px;stroke:none;">results obtained during the evaluation of the nutritional</text>
   <text y="674.008" x="306.146,310.599,315.58,320.034,323.351,327.804,332.258,335.172,339.625,342.943,345.742,349.578,352.377,355.177,359.63,363.4148,368.563,373.545,376.83180000000004,381.886,384.686,389.667,394.149,399.178,404.159,406.958,410.276,413.593,418.047,421.458,425.911,430.892,433.6808,438.749,443.73,447.048,452.029,457.01,461.992,465.77680000000004,470.893,475.875,479.1618,484.216,487.534,491.987,495.305,503.085,507.63,512.612,515.411,519.864,524.844,529.911,535.41,539.246" svgx:width="0.45,0.5,0.45,0.33,0.45,0.45,0.28,0.45,0.33,0.28,0.38,0.28,0.28,0.45,0.38,0.55,0.5,0.33,0.55,0.28,0.5,0.45,0.55,0.5,0.28,0.33,0.33,0.45,0.33,0.45,0.5,0.28,0.55,0.5,0.33,0.5,0.5,0.5,0.38,0.55,0.5,0.33,0.55,0.33,0.45,0.33,0.78,0.45,0.5,0.28,0.45,0.5,0.55,0.55,0.38,0.5" style="fill:rgb(0,0,0);font-family:AdvPTimes;font-size:9.96px;stroke:none;">characteristics of the different groups of fermented ﬁsh</text>
   <text y="686.48" x="306.146,311.645,316.626,321.608,324.89480000000003,327.632,332.613,335.931,340.912,345.894,350.875,355.328,359.781,364.761,367.486,370.804,376.921,381.374,386.356,389.155" svgx:width="0.55,0.5,0.5,0.33,0.55,0.5,0.33,0.5,0.5,0.5,0.45,0.45,0.5,0.55,0.33,0.61,0.45,0.5,0.28,0.45" style="fill:rgb(0,0,0);font-family:AdvPTimes;font-size:9.96px;stroke:none;">ﬂour produced (Table</text>
   <text y="686.48" x="396.968" svgx:width="0.5" style="fill:rgb(0,0,255);font-family:AdvPTimes;font-size:9.96px;stroke:none;">3</text>
   <text y="686.494" x="401.953,405.2398,407.962,410.762,415.743,420.724,423.524,427.977,432.43,435.23,439.683,444.663,447.42,450.219,455.201,459.654,462.4428,465.107,468.425,472.878,476.276,484.056,488.51,493.491,496.29,500.744,505.72400000000005,508.42,513.919,517.755,522.735,525.428,530.927,535.909,540.89" svgx:width="0.33,0.55,0.28,0.5,0.5,0.28,0.45,0.45,0.28,0.45,0.5,0.55,0.28,0.5,0.45,0.28,0.55,0.33,0.45,0.33,0.78,0.45,0.5,0.28,0.45,0.5,0.55,0.55,0.38,0.5,0.55,0.55,0.5,0.5,0.33" style="fill:rgb(0,0,0);font-family:AdvPTimes;font-size:9.96px;stroke:none;">) indicated that fermented ﬁsh ﬂour</text>
   <text y="698.91" x="306.142,311.124,315.577,320.558,325.04,330.747,335.728,340.709,345.691,350.671,356.372,361.353,366.334,369.134,372.451,375.251,378.05,380.85,385.831,390.812,395.266,398.0548,403.823,408.804,413.785,416.585,421.038,426.019,428.819,431.618,436.071,438.972,441.462,447.079,454.232,457.113,459.913,464.89300000000003,470.55,475.03200000000004,480.698,485.679,488.997,493.978,496.778,501.231,504.03,509.01,514.713,519.167,524.148,529.129,532.004,536.458,541.439" svgx:width="0.5,0.45,0.5,0.45,0.55,0.5,0.5,0.5,0.5,0.55,0.5,0.5,0.28,0.33,0.28,0.28,0.28,0.5,0.5,0.45,0.28,0.55,0.5,0.5,0.28,0.45,0.5,0.28,0.28,0.45,0.28,0.25,0.55,0.72,0.28,0.28,0.5,0.55,0.45,0.55,0.5,0.33,0.5,0.28,0.45,0.28,0.5,0.55,0.45,0.5,0.5,0.28,0.45,0.5,0.28" style="fill:rgb(0,0,0);font-family:AdvPTimes;font-size:9.96px;stroke:none;">have good nutritional potential, with a protein content</text>
   <text y="711.382" x="306.142,311.124,315.577,318.894,323.876,326.675,331.656,336.636,348.208,351.526,354.843,359.825,367.5938,379.105,384.087,389.068,391.559,396.54" svgx:width="0.5,0.45,0.33,0.5,0.28,0.5,0.5,0.55,0.33,0.33,0.5,0.78,0.55,0.5,0.5,0.25,0.5,0.5" style="fill:rgb(0,0,0);font-family:AdvPTimes;font-size:9.96px;stroke:none;">varying from 22.96</text>
   <text y="711.382" x="404.844" svgx:width="0.78" style="fill:rgb(0,0,0);font-family:AdvTir_symb;font-size:9.96px;stroke:none;">±</text>
   <text y="711.382" x="415.955,420.936,423.427,428.408,433.39,441.6568,453.202,457.655,462.637,467.617,479.111,484.092,489.074,491.64,496.621" svgx:width="0.5,0.25,0.5,0.5,0.83,0.55,0.45,0.5,0.5,0.55,0.5,0.5,0.25,0.5,0.5" style="fill:rgb(0,0,0);font-family:AdvPTimes;font-size:9.96px;stroke:none;">0.02% and 23.26</text>
   <text y="711.382" x="504.906" svgx:width="0.78" style="fill:rgb(0,0,0);font-family:AdvTir_symb;font-size:9.96px;stroke:none;">±</text>
   <text y="711.382" x="515.962,520.943,523.434,528.415,533.396,541.757" svgx:width="0.5,0.25,0.5,0.5,0.83,0.25" style="fill:rgb(0,0,0);font-family:AdvPTimes;font-size:9.96px;stroke:none;">0.11%.</text>
  </g>
  <g begin="text">
   <text y="66.728" x="306.142,311.782,316.016,320.69,323.07,326.8815,329.669" svgx:width="0.67,0.5,0.55,0.28,0.45,0.55,0.5" style="fill:rgb(0,0,0);font-family:AdvPTimesB;font-size:8.47px;stroke:none;">Table 1</text>
   <text y="66.728" x="339.024,344.664,348.898,352.683,359.297,361.676,365.461,369.247,371.6186,374.06,377.845,382.079,388.693,392.927,397.161,400.422,402.801,405.181,407.56,411.794,416.029,418.507,422.741,425.5361,427.975,431.76,435.02,438.28,442.066,446.3,448.679,451.059,454.844,457.2156,459.666,463.9,466.28,468.6516,471.118,475.353" svgx:width="0.67,0.5,0.45,0.78,0.28,0.45,0.45,0.28,0.55,0.45,0.5,0.78,0.5,0.5,0.38,0.28,0.28,0.28,0.5,0.5,0.55,0.5,0.33,0.55,0.45,0.38,0.38,0.45,0.5,0.28,0.28,0.45,0.28,0.55,0.5,0.28,0.28,0.55,0.5,0.33" style="fill:rgb(0,0,0);font-family:AdvPTimes;font-size:8.47px;stroke:none;">Chemical composition of essential oil of</text>
   <text y="66.728" x="480.586,485.785,488.165,494.245,498.03,502.264,504.644,508.879,511.37,514.63,518.865,522.65,526.435,532.515,536.749,540.01" svgx:width="0.61,0.28,0.72,0.45,0.5,0.28,0.5,0.55,0.38,0.5,0.45,0.45,0.72,0.5,0.38,0.5" style="fill:rgb(0,0,0);font-family:AdvPTimesI;font-size:8.47px;stroke:none;">Pimenta racemosa</text>
   <text y="76.706" x="306.142,308.521,312.755,316.989,320.775,324.035,326.415,328.794,333.028,336.814,339.193,342.978" svgx:width="0.28,0.5,0.5,0.45,0.38,0.28,0.28,0.5,0.45,0.28,0.45,0.5" style="fill:rgb(0,0,0);font-family:AdvPTimes;font-size:8.47px;stroke:none;">investigated</text>
   <text y="93.09" x="306.142,311.782,316.016,322.629,326.863,331.098,335.332,339.117,343.351,345.731,348.9496,403.087,409.167,413.401,417.635,421.42,423.8,427.0186,429.902,432.281,436.516,440.75,444.535,448.77000000000004,451.615,454.435,460.515,463.335,466.13009999999997,491.414,496.089,499.874,502.694,506.479,510.264,514.498,516.878,520.663,524.897,528.7085000000001,531.552,534.372,541.426" svgx:width="0.67,0.5,0.78,0.5,0.5,0.5,0.45,0.5,0.28,0.38,0.55,0.72,0.5,0.5,0.45,0.28,0.38,0.55,0.28,0.5,0.5,0.45,0.5,0.55,0.33,0.72,0.33,0.33,0.55,0.55,0.45,0.33,0.45,0.45,0.5,0.28,0.45,0.5,0.45,0.55,0.33,0.83,0.33" style="fill:rgb(0,0,0);font-family:AdvPTimes;font-size:8.47px;stroke:none;">Components Kovats index (KI) Percentage (%)</text>
   <text y="111.855" x="306.142" svgx:width="0.55" style="fill:rgb(0,0,0);font-family:AdvPSMP13;font-size:8.47px;stroke:none;">a</text>
   <text y="111.855" x="310.791,313.611,317.845,320.224,324.458" svgx:width="0.33,0.5,0.28,0.5,0.45" style="fill:rgb(0,0,0);font-family:AdvPTimes;font-size:8.47px;stroke:none;">-pine</text>
   <text y="111.515" x="325.021" svgx:width="0.33" style="fill:rgb(0,0,0);font-family:AdvPTimes;font-size:8.47px;stroke:none;">`</text>
   <text y="111.855" x="328.309,332.543,336.35450000000003,407.338,411.572,415.807,420.04200000000003,495.666,499.9,502.017" svgx:width="0.5,0.45,0.55,0.5,0.5,0.5,0.55,0.5,0.25,0.5" style="fill:rgb(0,0,0);font-family:AdvPTimes;font-size:8.47px;stroke:none;">ne 940 0.4</text>
   <text y="124.611" x="306.142,310.376,314.161,316.541" svgx:width="0.5,0.45,0.28,0.45" style="fill:rgb(0,0,0);font-family:AdvPTimes;font-size:8.47px;stroke:none;">octe</text>
   <text y="124.271" x="317.083" svgx:width="0.33" style="fill:rgb(0,0,0);font-family:AdvPTimes;font-size:8.47px;stroke:none;">`</text>
   <text y="124.611" x="320.372,324.606,327.426,331.66,334.48,338.714,341.0856,407.338,411.573,415.807,420.04200000000003,495.666,499.9,502.017" svgx:width="0.5,0.33,0.5,0.33,0.5,0.28,0.55,0.5,0.5,0.5,0.55,0.5,0.25,0.5" style="fill:rgb(0,0,0);font-family:AdvPTimes;font-size:8.47px;stroke:none;">n-3-ol 974 2.4</text>
   <text y="137.367" x="306.142" svgx:width="0.55" style="fill:rgb(0,0,0);font-family:AdvPSMP13;font-size:8.47px;stroke:none;">b</text>
   <text y="137.367" x="310.791,313.611,317.845,320.224,324.458" svgx:width="0.33,0.5,0.28,0.5,0.45" style="fill:rgb(0,0,0);font-family:AdvPTimes;font-size:8.47px;stroke:none;">-pine</text>
   <text y="137.026" x="325.021" svgx:width="0.33" style="fill:rgb(0,0,0);font-family:AdvPTimes;font-size:8.47px;stroke:none;">`</text>
   <text y="137.367" x="328.309,332.543,336.35450000000003,407.338,411.572,415.807,420.04200000000003,495.666,499.9,502.017" svgx:width="0.5,0.45,0.55,0.5,0.5,0.5,0.55,0.5,0.25,0.5" style="fill:rgb(0,0,0);font-family:AdvPTimes;font-size:8.47px;stroke:none;">ne 982 0.1</text>
   <text y="150.122" x="306.142,312.755,316.99,319.809,323.595" svgx:width="0.78,0.5,0.33,0.45,0.45" style="fill:rgb(0,0,0);font-family:AdvPTimes;font-size:8.47px;stroke:none;">myrce</text>
   <text y="149.782" x="324.17" svgx:width="0.33" style="fill:rgb(0,0,0);font-family:AdvPTimes;font-size:8.47px;stroke:none;">`</text>
   <text y="150.122" x="327.401,331.635,335.4465,407.338,411.572,415.806,420.041,491.413,495.647,499.881,501.998" svgx:width="0.5,0.45,0.55,0.5,0.5,0.5,0.55,0.5,0.5,0.25,0.5" style="fill:rgb(0,0,0);font-family:AdvPTimes;font-size:8.47px;stroke:none;">ne 993 25.1</text>
   <text y="162.878" x="306.142" svgx:width="0.55" style="fill:rgb(0,0,0);font-family:AdvPSMP13;font-size:8.47px;stroke:none;">a</text>
   <text y="162.878" x="310.791,313.611,315.99,319.776,322.595,326.83,329.209,333.443" svgx:width="0.33,0.28,0.45,0.33,0.5,0.28,0.5,0.45" style="fill:rgb(0,0,0);font-family:AdvPTimes;font-size:8.47px;stroke:none;">-terpine</text>
   <text y="162.481" x="334.035" svgx:width="0.33" style="fill:rgb(0,0,0);font-family:AdvPTimes;font-size:8.47px;stroke:none;">`</text>
   <text y="162.878" x="337.267,341.501,345.3125,403.087,407.321,411.555,415.789,420.024,495.666,499.9,502.017" svgx:width="0.5,0.45,0.55,0.5,0.5,0.5,0.5,0.55,0.5,0.25,0.5" style="fill:rgb(0,0,0);font-family:AdvPTimes;font-size:8.47px;stroke:none;">ne 1018 0.1</text>
   <text y="175.634" x="306.143,310.377,313.197,316.982,321.216,327.83" svgx:width="0.5,0.33,0.45,0.5,0.78,0.45" style="fill:rgb(0,0,0);font-family:AdvPTimes;font-size:8.47px;stroke:none;">p-cyme</text>
   <text y="175.237" x="328.367" svgx:width="0.33" style="fill:rgb(0,0,0);font-family:AdvPTimes;font-size:8.47px;stroke:none;">`</text>
   <text y="175.634" x="331.655,335.889,339.70050000000003,403.087,407.321,411.556,415.79,420.02500000000003,495.667,499.901,502.018" svgx:width="0.5,0.45,0.55,0.5,0.5,0.5,0.5,0.55,0.5,0.25,0.5" style="fill:rgb(0,0,0);font-family:AdvPTimes;font-size:8.47px;stroke:none;">ne 1022 0.7</text>
   <text y="188.39" x="306.143,308.522,310.902,317.515,321.75,325.984" svgx:width="0.28,0.28,0.78,0.5,0.5,0.45" style="fill:rgb(0,0,0);font-family:AdvPTimes;font-size:8.47px;stroke:none;">limone</text>
   <text y="187.992" x="326.552" svgx:width="0.33" style="fill:rgb(0,0,0);font-family:AdvPTimes;font-size:8.47px;stroke:none;">`</text>
   <text y="188.39" x="329.783,334.017,337.8285,403.087,407.321,411.556,415.79,420.02500000000003,495.667,499.901,502.018" svgx:width="0.5,0.45,0.55,0.5,0.5,0.5,0.5,0.55,0.5,0.25,0.5" style="fill:rgb(0,0,0);font-family:AdvPTimes;font-size:8.47px;stroke:none;">ne 1034 3.0</text>
   <text y="201.088" x="306.143,310.377,312.494,316.728,319.548,323.333,325.713,329.947" svgx:width="0.5,0.25,0.5,0.33,0.45,0.28,0.5,0.45" style="fill:rgb(0,0,0);font-family:AdvPTimes;font-size:8.47px;stroke:none;">1,8-cine</text>
   <text y="200.748" x="330.521" svgx:width="0.33" style="fill:rgb(0,0,0);font-family:AdvPTimes;font-size:8.47px;stroke:none;">´</text>
   <text y="201.088" x="333.752,337.986,340.366,344.1775,403.087,407.322,411.556,415.79,420.02500000000003,495.667,499.901,502.018" svgx:width="0.5,0.28,0.45,0.55,0.5,0.5,0.5,0.5,0.55,0.5,0.25,0.5" style="fill:rgb(0,0,0);font-family:AdvPTimes;font-size:8.47px;stroke:none;">ole 1041 2.7</text>
   <text y="213.844" x="306.143" svgx:width="0.33" style="fill:rgb(0,0,0);font-family:AdvPTimes;font-size:8.47px;stroke:none;">(</text>
   <text y="213.844" x="308.977" svgx:width="0.61" style="fill:rgb(0,0,0);font-family:AdvPTimesI;font-size:8.47px;stroke:none;">E</text>
   <text y="213.844" x="314.193,317.012" svgx:width="0.33,0.33" style="fill:rgb(0,0,0);font-family:AdvPTimes;font-size:8.47px;stroke:none;">)-</text>
   <text y="213.844" x="319.805" svgx:width="0.55" style="fill:rgb(0,0,0);font-family:AdvPSMP13;font-size:8.47px;stroke:none;">b</text>
   <text y="213.844" x="324.511,327.331,331.565,335.35,337.73,344.344" svgx:width="0.33,0.5,0.45,0.28,0.78,0.45" style="fill:rgb(0,0,0);font-family:AdvPTimes;font-size:8.47px;stroke:none;">-ocime</text>
   <text y="213.504" x="344.863" svgx:width="0.33" style="fill:rgb(0,0,0);font-family:AdvPTimes;font-size:8.47px;stroke:none;">`</text>
   <text y="213.844" x="348.152,352.386,356.19750000000005,403.087,407.321,411.555,415.789,420.024,495.666,499.9,502.017" svgx:width="0.5,0.45,0.55,0.5,0.5,0.5,0.5,0.55,0.5,0.25,0.5" style="fill:rgb(0,0,0);font-family:AdvPTimes;font-size:8.47px;stroke:none;">ne 1043 0.2</text>
   <text y="226.6" x="306.143" svgx:width="0.5" style="fill:rgb(0,0,0);font-family:AdvPSMP13;font-size:8.47px;stroke:none;">c</text>
   <text y="226.6" x="310.395,313.214,315.594,319.379,322.199,326.433,328.813,333.047" svgx:width="0.33,0.28,0.45,0.33,0.5,0.28,0.5,0.45" style="fill:rgb(0,0,0);font-family:AdvPTimes;font-size:8.47px;stroke:none;">-terpine</text>
   <text y="226.259" x="333.582" svgx:width="0.33" style="fill:rgb(0,0,0);font-family:AdvPTimes;font-size:8.47px;stroke:none;">`</text>
   <text y="226.6" x="336.87,341.104,344.9155,403.087,407.322,411.556,415.79,420.02500000000003,495.667,499.901,502.018" svgx:width="0.5,0.45,0.55,0.5,0.5,0.5,0.5,0.55,0.5,0.25,0.5" style="fill:rgb(0,0,0);font-family:AdvPTimes;font-size:8.47px;stroke:none;">ne 1058 0.1</text>
   <text y="239.355" x="306.143,308.522,312.307,315.127,319.362,321.741,325.975,330.209,332.589" svgx:width="0.28,0.45,0.33,0.5,0.28,0.5,0.5,0.28,0.45" style="fill:rgb(0,0,0);font-family:AdvPTimes;font-size:8.47px;stroke:none;">terpinole</text>
   <text y="239.015" x="333.128" svgx:width="0.33" style="fill:rgb(0,0,0);font-family:AdvPTimes;font-size:8.47px;stroke:none;">`</text>
   <text y="239.355" x="336.416,340.651,344.46250000000003,403.087,407.322,411.556,415.79,420.02500000000003,495.667,499.901,502.018" svgx:width="0.5,0.45,0.55,0.5,0.5,0.5,0.5,0.55,0.5,0.25,0.5" style="fill:rgb(0,0,0);font-family:AdvPTimes;font-size:8.47px;stroke:none;">ne 1089 0.2</text>
   <text y="252.111" x="306.143,308.522,310.902,315.136,318.921,321.301,325.535,327.9066,403.088,407.322,411.556,415.79,420.02500000000003,495.667,499.901,502.018" svgx:width="0.28,0.28,0.5,0.45,0.28,0.5,0.28,0.55,0.5,0.5,0.5,0.5,0.55,0.5,0.25,0.5" style="fill:rgb(0,0,0);font-family:AdvPTimes;font-size:8.47px;stroke:none;">linalol 1092 0.6</text>
   <text y="264.867" x="306.143,308.522,312.308,315.127,319.362,321.741,325.975" svgx:width="0.28,0.45,0.33,0.5,0.28,0.5,0.45" style="fill:rgb(0,0,0);font-family:AdvPTimes;font-size:8.47px;stroke:none;">terpine</text>
   <text y="264.526" x="326.552" svgx:width="0.33" style="fill:rgb(0,0,0);font-family:AdvPTimes;font-size:8.47px;stroke:none;">`</text>
   <text y="264.867" x="329.783,334.017,337.803,340.623,344.857,347.677,351.911,354.2826,403.087,407.322,411.556,415.79,420.02500000000003,495.667,499.901,502.018" svgx:width="0.5,0.45,0.33,0.5,0.33,0.5,0.28,0.55,0.5,0.5,0.5,0.5,0.55,0.5,0.25,0.5" style="fill:rgb(0,0,0);font-family:AdvPTimes;font-size:8.47px;stroke:none;">ne-4-ol 1178 0.8</text>
   <text y="277.622" x="306.143" svgx:width="0.55" style="fill:rgb(0,0,0);font-family:AdvPSMP13;font-size:8.47px;stroke:none;">a</text>
   <text y="277.622" x="310.792,313.612,315.991,319.776,322.596,326.831,329.21,333.444" svgx:width="0.33,0.28,0.45,0.33,0.5,0.28,0.5,0.45" style="fill:rgb(0,0,0);font-family:AdvPTimes;font-size:8.47px;stroke:none;">-terpine</text>
   <text y="277.282" x="334.036" svgx:width="0.33" style="fill:rgb(0,0,0);font-family:AdvPTimes;font-size:8.47px;stroke:none;">´</text>
   <text y="277.622" x="337.268,341.502,343.8736,403.088,407.322,411.557,415.791,420.026,495.668,499.902,502.019" svgx:width="0.5,0.28,0.55,0.5,0.5,0.5,0.5,0.55,0.5,0.25,0.5" style="fill:rgb(0,0,0);font-family:AdvPTimes;font-size:8.47px;stroke:none;">ol 1188 0.7</text>
   <text y="290.378" x="306.144,309.929,314.163,317.948,322.182,324.562,328.347,332.581,334.9526,403.088,407.322,411.557,415.791,420.026,495.668,499.902,502.019" svgx:width="0.45,0.5,0.45,0.5,0.28,0.45,0.5,0.28,0.55,0.5,0.5,0.5,0.5,0.55,0.5,0.25,0.5" style="fill:rgb(0,0,0);font-family:AdvPTimes;font-size:8.47px;stroke:none;">chavicol 1250 7.5</text>
   <text y="303.134" x="306.144,309.929,314.163,318.397" svgx:width="0.45,0.5,0.5,0.45" style="fill:rgb(0,0,0);font-family:AdvPTimes;font-size:8.47px;stroke:none;">euge</text>
   <text y="302.793" x="318.956" svgx:width="0.33" style="fill:rgb(0,0,0);font-family:AdvPTimes;font-size:8.47px;stroke:none;">´</text>
   <text y="303.134" x="322.187,326.421,330.656,333.0276,403.088,407.322,411.557,415.791,420.026,491.416,495.65,499.884,502.001" svgx:width="0.5,0.5,0.28,0.55,0.5,0.5,0.5,0.5,0.55,0.5,0.5,0.25,0.5" style="fill:rgb(0,0,0);font-family:AdvPTimes;font-size:8.47px;stroke:none;">nol 1368 51.1</text>
   <text y="315.889" x="306.144" svgx:width="0.55" style="fill:rgb(0,0,0);font-family:AdvPSMP13;font-size:8.47px;stroke:none;">b</text>
   <text y="315.889" x="310.793,313.612,317.398,321.183,324.003,328.237,332.471,336.705,340.939,345.173,347.553,349.933" svgx:width="0.33,0.45,0.45,0.33,0.5,0.5,0.5,0.5,0.5,0.28,0.28,0.45" style="fill:rgb(0,0,0);font-family:AdvPTimes;font-size:8.47px;stroke:none;">-caryophylle</text>
   <text y="315.549" x="350.534" svgx:width="0.33" style="fill:rgb(0,0,0);font-family:AdvPTimes;font-size:8.47px;stroke:none;">`</text>
   <text y="315.889" x="353.765,357.999,361.81050000000005,403.088,407.322,411.557,415.791,420.026,495.668,499.902,502.019" svgx:width="0.5,0.45,0.55,0.5,0.5,0.5,0.5,0.55,0.5,0.25,0.5" style="fill:rgb(0,0,0);font-family:AdvPTimes;font-size:8.47px;stroke:none;">ne 1440 0.1</text>
   <text y="328.645" x="306.144" svgx:width="0.55" style="fill:rgb(0,0,0);font-family:AdvPSMP13;font-size:8.47px;stroke:none;">a</text>
   <text y="328.645" x="310.793,313.613,317.847,322.081,328.694,332.928,335.308" svgx:width="0.33,0.5,0.5,0.78,0.5,0.28,0.45" style="fill:rgb(0,0,0);font-family:AdvPTimes;font-size:8.47px;stroke:none;">-humule</text>
   <text y="328.305" x="335.851" svgx:width="0.33" style="fill:rgb(0,0,0);font-family:AdvPTimes;font-size:8.47px;stroke:none;">`</text>
   <text y="328.645" x="339.139,343.373,347.1845,403.088,407.322,411.557,415.791,420.026,495.668,499.902,502.019" svgx:width="0.5,0.45,0.55,0.5,0.5,0.5,0.5,0.55,0.5,0.25,0.5" style="fill:rgb(0,0,0);font-family:AdvPTimes;font-size:8.47px;stroke:none;">ne 1489 0.1</text>
   <text y="341.401" x="306.144" svgx:width="0.33" style="fill:rgb(0,0,0);font-family:AdvPTimes;font-size:8.47px;stroke:none;">(</text>
   <text y="341.401" x="308.978" svgx:width="0.61" style="fill:rgb(0,0,0);font-family:AdvPTimesI;font-size:8.47px;stroke:none;">E</text>
   <text y="341.401" x="314.193" svgx:width="0.25" style="fill:rgb(0,0,0);font-family:AdvPTimes;font-size:8.47px;stroke:none;">,</text>
   <text y="341.401" x="316.291" svgx:width="0.61" style="fill:rgb(0,0,0);font-family:AdvPTimesI;font-size:8.47px;stroke:none;">E</text>
   <text y="341.401" x="321.507,324.327" svgx:width="0.33,0.33" style="fill:rgb(0,0,0);font-family:AdvPTimes;font-size:8.47px;stroke:none;">)-</text>
   <text y="341.401" x="327.119" svgx:width="0.55" style="fill:rgb(0,0,0);font-family:AdvPSMP13;font-size:8.47px;stroke:none;">a</text>
   <text y="341.401" x="331.825,334.645,337.465,341.25,344.07,348.304,352.09,355.35" svgx:width="0.33,0.33,0.45,0.33,0.5,0.45,0.38,0.45" style="fill:rgb(0,0,0);font-family:AdvPTimes;font-size:8.47px;stroke:none;">-farnese</text>
   <text y="341.06" x="355.92" svgx:width="0.33" style="fill:rgb(0,0,0);font-family:AdvPTimes;font-size:8.47px;stroke:none;">`</text>
   <text y="341.401" x="359.151,363.385,367.1965,403.088,407.323,411.557,415.791,420.026,495.668,499.902,502.019" svgx:width="0.5,0.45,0.55,0.5,0.5,0.5,0.5,0.55,0.5,0.25,0.5" style="fill:rgb(0,0,0);font-family:AdvPTimes;font-size:8.47px;stroke:none;">ne 1502 0.2</text>
   <text y="354.156" x="306.144" svgx:width="0.5" style="fill:rgb(0,0,0);font-family:AdvPSMP13;font-size:8.47px;stroke:none;">d</text>
   <text y="354.156" x="310.396,313.215,317.001,320.786,325.02,327.4,331.634" svgx:width="0.33,0.45,0.45,0.5,0.28,0.5,0.45" style="fill:rgb(0,0,0);font-family:AdvPTimes;font-size:8.47px;stroke:none;">-cadine</text>
   <text y="353.759" x="332.166" svgx:width="0.33" style="fill:rgb(0,0,0);font-family:AdvPTimes;font-size:8.47px;stroke:none;">`</text>
   <text y="354.156" x="335.454,339.688,343.4995,403.088,407.323,411.557,415.791,420.026,495.668,499.902,502.019" svgx:width="0.5,0.45,0.55,0.5,0.5,0.5,0.5,0.55,0.5,0.25,0.5" style="fill:rgb(0,0,0);font-family:AdvPTimes;font-size:8.47px;stroke:none;">ne 1533 0.1</text>
   <text y="366.912" x="306.144,308.523,312.757,315.577,318.397" svgx:width="0.28,0.5,0.33,0.33,0.45" style="fill:rgb(0,0,0);font-family:AdvPTimes;font-size:8.47px;stroke:none;">torre</text>
   <text y="366.515" x="318.956" svgx:width="0.33" style="fill:rgb(0,0,0);font-family:AdvPTimes;font-size:8.47px;stroke:none;">´</text>
   <text y="366.912" x="322.188,326.422,330.656,333.0276,403.089,407.323,411.557,415.791,420.026,495.668,499.902,502.019" svgx:width="0.5,0.5,0.28,0.55,0.5,0.5,0.5,0.5,0.55,0.5,0.25,0.5" style="fill:rgb(0,0,0);font-family:AdvPTimes;font-size:8.47px;stroke:none;">yol 1638 0.1</text>
   <text y="379.668" x="306.144,311.343,314.163,317.948,321.734,325.968,328.347,332.581,336.815,339.1866,403.089,407.323,411.557,415.791,420.026,495.668,499.902,502.019" svgx:width="0.61,0.33,0.45,0.45,0.5,0.28,0.5,0.5,0.28,0.55,0.5,0.5,0.5,0.5,0.55,0.5,0.25,0.5" style="fill:rgb(0,0,0);font-family:AdvPTimes;font-size:8.47px;stroke:none;">T-cadinol 1665 0.1</text>
   <text y="392.367" x="306.144,310.378,312.757,315.137,318.922,321.742,325.976" svgx:width="0.5,0.28,0.28,0.45,0.33,0.5,0.45" style="fill:rgb(0,0,0);font-family:AdvPTimes;font-size:8.47px;stroke:none;">diterpe</text>
   <text y="392.026" x="326.553" svgx:width="0.33" style="fill:rgb(0,0,0);font-family:AdvPTimes;font-size:8.47px;stroke:none;">`</text>
   <text y="392.367" x="329.784,334.018,337.8295,340.613,343.433" svgx:width="0.5,0.45,0.55,0.33,0.88" style="fill:rgb(0,0,0);font-family:AdvPTimes;font-size:8.47px;stroke:none;">ne (M</text>
   <text y="392.367" x="350.987" svgx:width="0.78" style="fill:rgb(0,0,0);font-family:AdvTir_symb;font-size:8.47px;stroke:none;">?</text>
   <text y="392.367" x="357.563,362.323,366.557,370.791,375.025,377.82009999999997,403.088,407.322,411.556,415.79,420.02500000000003,495.667,499.901,502.018" svgx:width="0.56,0.5,0.5,0.5,0.33,0.55,0.5,0.5,0.5,0.5,0.55,0.5,0.25,0.5" style="fill:rgb(0,0,0);font-family:AdvPTimes;font-size:8.47px;stroke:none;">=272) 1941 0.6</text>
   <text y="405.122" x="306.143,310.377,312.757,315.136,318.921,321.741,325.975" svgx:width="0.5,0.28,0.28,0.45,0.33,0.5,0.45" style="fill:rgb(0,0,0);font-family:AdvPTimes;font-size:8.47px;stroke:none;">diterpe</text>
   <text y="404.782" x="326.552" svgx:width="0.33" style="fill:rgb(0,0,0);font-family:AdvPTimes;font-size:8.47px;stroke:none;">`</text>
   <text y="405.122" x="329.784,334.018,337.8295,340.612,343.432" svgx:width="0.5,0.45,0.55,0.33,0.88" style="fill:rgb(0,0,0);font-family:AdvPTimes;font-size:8.47px;stroke:none;">ne (M</text>
   <text y="405.122" x="350.986" svgx:width="0.78" style="fill:rgb(0,0,0);font-family:AdvTir_symb;font-size:8.47px;stroke:none;">?</text>
   <text y="405.122" x="357.563,362.322,366.556,370.79,375.024,377.8191,403.087,407.321,411.555,415.789,420.024,495.666,499.9,502.017" svgx:width="0.56,0.5,0.5,0.5,0.33,0.55,0.5,0.5,0.5,0.5,0.55,0.5,0.25,0.5" style="fill:rgb(0,0,0);font-family:AdvPTimes;font-size:8.47px;stroke:none;">=272) 1981 0.2</text>
   <text y="417.878" x="306.142,311.341,315.576,317.955,321.74,324.1116,491.414,495.648,499.883,502.0" svgx:width="0.61,0.5,0.28,0.45,0.28,0.55,0.5,0.5,0.25,0.5" style="fill:rgb(0,0,0);font-family:AdvPTimes;font-size:8.47px;stroke:none;">Total 96.4</text>
  </g>
  <g begin="text">
   <text y="459.609" x="306.142,311.782,316.016,320.69,323.07,326.8815,329.669" svgx:width="0.67,0.5,0.55,0.28,0.45,0.55,0.5" style="fill:rgb(0,0,0);font-family:AdvPTimesB;font-size:8.47px;stroke:none;">Table 2</text>
   <text y="459.609" x="339.024,343.698,347.932,352.166,355.427,357.806,361.591,365.826,369.611,373.845,377.63,384.244,386.623,390.409,394.194,396.5656,400.82,404.605,408.839,412.624,415.444,419.229,423.015,425.394,429.18,431.999,434.379,437.639,440.019,442.398,446.184,449.4026,453.771,458.005,460.8001,465.053,469.288,471.667,474.487,477.307,481.092,483.912,487.697,491.931,494.3026,498.559,500.938,505.172,509.406,513.192,516.4106,520.726,524.96,527.7551000000001,532.008,534.828,538.613,541.433" svgx:width="0.55,0.5,0.5,0.38,0.28,0.45,0.5,0.45,0.5,0.45,0.78,0.28,0.45,0.45,0.28,0.55,0.45,0.5,0.45,0.33,0.45,0.45,0.28,0.45,0.33,0.28,0.38,0.28,0.28,0.45,0.38,0.55,0.5,0.33,0.55,0.5,0.28,0.33,0.33,0.45,0.33,0.45,0.5,0.28,0.55,0.28,0.5,0.5,0.45,0.38,0.55,0.5,0.33,0.55,0.33,0.45,0.33,0.33" style="fill:rgb(0,0,0);font-family:AdvPTimes;font-size:8.47px;stroke:none;">Physicochemical characteristics of different types of fer-</text>
   <text y="469.588" x="306.142,312.755,316.541,320.775,323.154,326.94,331.175,334.034,338.709,341.969,346.204,349.001,353.675,357.909,362.144,364.964,368.1826,371.055,373.434,377.668,381.902,385.688,388.948,391.328,393.707,397.941,401.727,404.106,407.891" svgx:width="0.78,0.45,0.5,0.28,0.45,0.5,0.55,0.55,0.38,0.5,0.55,0.55,0.5,0.5,0.33,0.38,0.55,0.28,0.5,0.5,0.45,0.38,0.28,0.28,0.5,0.45,0.28,0.45,0.5" style="fill:rgb(0,0,0);font-family:AdvPTimes;font-size:8.47px;stroke:none;">mented ﬁsh ﬂours investigated</text>
   <text y="485.972" x="306.142,310.816,314.601,317.421,324.035,327.82,332.054,334.434,338.219,342.454,345.316,349.991,353.251" svgx:width="0.55,0.45,0.33,0.78,0.45,0.5,0.28,0.45,0.5,0.55,0.55,0.38,0.5" style="fill:rgb(0,0,0);font-family:AdvPTimes;font-size:8.47px;stroke:none;">Fermented ﬁsh</text>
   <text y="495.95" x="306.142,310.816,315.05,319.284,322.104" svgx:width="0.55,0.5,0.5,0.33,0.38" style="fill:rgb(0,0,0);font-family:AdvPTimes;font-size:8.47px;stroke:none;">ﬂours</text>
   <text y="485.972" x="386.078,393.572,397.807,400.186,403.446,405.826,410.06,412.88,416.6915,419.527,422.347,429.401,432.1961,444.471,448.706,454.80440000000004,498.613,504.693,508.478,510.858,515.092,517.472,519.851,524.086,526.903,529.723,536.777" svgx:width="0.88,0.5,0.28,0.38,0.28,0.5,0.33,0.45,0.55,0.33,0.83,0.33,0.55,0.5,0.72,0.55,0.72,0.45,0.28,0.5,0.28,0.28,0.5,0.55,0.33,0.83,0.33" style="fill:rgb(0,0,0);font-family:AdvPTimes;font-size:8.47px;stroke:none;">Moisture (%) pH Acidity (%)</text>
   <text y="514.715" x="306.142,312.2404,386.078,390.312,394.546,396.663,400.897" svgx:width="0.72,0.55,0.5,0.5,0.25,0.5,0.5" style="fill:rgb(0,0,0);font-family:AdvPTimes;font-size:8.47px;stroke:none;">A 13.26</text>
   <text y="514.715" x="407.905" svgx:width="0.78" style="fill:rgb(0,0,0);font-family:AdvTir_symb;font-size:8.47px;stroke:none;">±</text>
   <text y="514.715" x="417.316,421.55,423.667,427.901,432.135,435.9465,444.471,448.706,450.823,455.057" svgx:width="0.5,0.25,0.5,0.5,0.45,0.55,0.5,0.25,0.5,0.5" style="fill:rgb(0,0,0);font-family:AdvPTimes;font-size:8.47px;stroke:none;">0.11a 6.38</text>
   <text y="514.715" x="462.103" svgx:width="0.78" style="fill:rgb(0,0,0);font-family:AdvTir_symb;font-size:8.47px;stroke:none;">±</text>
   <text y="514.715" x="471.514,475.748,477.865,482.099,486.333,490.14450000000005,498.613,502.847,504.964,509.198" svgx:width="0.5,0.25,0.5,0.5,0.45,0.55,0.5,0.25,0.5,0.5" style="fill:rgb(0,0,0);font-family:AdvPTimes;font-size:8.47px;stroke:none;">0.03a 1.47</text>
   <text y="514.715" x="516.245" svgx:width="0.78" style="fill:rgb(0,0,0);font-family:AdvTir_symb;font-size:8.47px;stroke:none;">±</text>
   <text y="514.715" x="525.655,529.889,532.006,536.24,540.474" svgx:width="0.5,0.25,0.5,0.5,0.45" style="fill:rgb(0,0,0);font-family:AdvPTimes;font-size:8.47px;stroke:none;">0.09a</text>
   <text y="527.471" x="306.141,311.8159,386.077,390.311,394.546,396.663,400.897" svgx:width="0.67,0.55,0.5,0.5,0.25,0.5,0.5" style="fill:rgb(0,0,0);font-family:AdvPTimes;font-size:8.47px;stroke:none;">B 13.83</text>
   <text y="527.471" x="407.904" svgx:width="0.78" style="fill:rgb(0,0,0);font-family:AdvTir_symb;font-size:8.47px;stroke:none;">±</text>
   <text y="527.471" x="417.315,421.549,423.666,427.9,432.134,435.94550000000004,444.471,448.705,450.822,455.056" svgx:width="0.5,0.25,0.5,0.5,0.45,0.55,0.5,0.25,0.5,0.5" style="fill:rgb(0,0,0);font-family:AdvPTimes;font-size:8.47px;stroke:none;">0.09a 6.31</text>
   <text y="527.471" x="462.102" svgx:width="0.78" style="fill:rgb(0,0,0);font-family:AdvTir_symb;font-size:8.47px;stroke:none;">±</text>
   <text y="527.471" x="471.513,475.747,477.864,482.098,486.332,490.1435,498.612,502.846,504.963,509.197" svgx:width="0.5,0.25,0.5,0.5,0.45,0.55,0.5,0.25,0.5,0.5" style="fill:rgb(0,0,0);font-family:AdvPTimes;font-size:8.47px;stroke:none;">0.06a 1.29</text>
   <text y="527.471" x="516.244" svgx:width="0.78" style="fill:rgb(0,0,0);font-family:AdvTir_symb;font-size:8.47px;stroke:none;">±</text>
   <text y="527.471" x="525.654,529.888,532.005,536.24,540.474" svgx:width="0.5,0.25,0.5,0.5,0.45" style="fill:rgb(0,0,0);font-family:AdvPTimes;font-size:8.47px;stroke:none;">0.02a</text>
   <text y="540.227" x="306.14,311.81489999999997,386.076,390.311,394.545,396.662,400.896" svgx:width="0.67,0.55,0.5,0.5,0.25,0.5,0.5" style="fill:rgb(0,0,0);font-family:AdvPTimes;font-size:8.47px;stroke:none;">C 13.41</text>
   <text y="540.227" x="407.903" svgx:width="0.78" style="fill:rgb(0,0,0);font-family:AdvTir_symb;font-size:8.47px;stroke:none;">±</text>
   <text y="540.227" x="417.314,421.548,423.665,427.899,432.133,435.9445,444.47,448.704,450.821,455.055" svgx:width="0.5,0.25,0.5,0.5,0.45,0.55,0.5,0.25,0.5,0.5" style="fill:rgb(0,0,0);font-family:AdvPTimes;font-size:8.47px;stroke:none;">0.07a 6.22</text>
   <text y="540.227" x="462.101" svgx:width="0.78" style="fill:rgb(0,0,0);font-family:AdvTir_symb;font-size:8.47px;stroke:none;">±</text>
   <text y="540.227" x="471.512,475.746,477.863,482.097,486.331,490.14250000000004,498.611,502.845,504.962,509.196" svgx:width="0.5,0.25,0.5,0.5,0.45,0.55,0.5,0.25,0.5,0.5" style="fill:rgb(0,0,0);font-family:AdvPTimes;font-size:8.47px;stroke:none;">0.04a 1.16</text>
   <text y="540.227" x="516.243" svgx:width="0.78" style="fill:rgb(0,0,0);font-family:AdvTir_symb;font-size:8.47px;stroke:none;">±</text>
   <text y="540.227" x="525.654,529.888,532.005,536.239,540.473" svgx:width="0.5,0.25,0.5,0.5,0.45" style="fill:rgb(0,0,0);font-family:AdvPTimes;font-size:8.47px;stroke:none;">0.06a</text>
   <text y="552.926" x="306.139,312.23740000000004,315.04,317.86,323.5,327.734,331.968,334.348,337.168,341.402,343.781,346.5761,386.077,390.311,394.545,396.662,400.896" svgx:width="0.72,0.55,0.33,0.67,0.5,0.5,0.28,0.33,0.5,0.28,0.33,0.55,0.5,0.5,0.25,0.5,0.5" style="fill:rgb(0,0,0);font-family:AdvPTimes;font-size:8.47px;stroke:none;">D (Control) 14.06</text>
   <text y="552.926" x="407.902" svgx:width="0.78" style="fill:rgb(0,0,0);font-family:AdvTir_symb;font-size:8.47px;stroke:none;">±</text>
   <text y="552.926" x="417.313,421.547,423.664,427.898,432.132,435.94350000000003,444.469,448.703,450.82,455.054" svgx:width="0.5,0.25,0.5,0.5,0.45,0.55,0.5,0.25,0.5,0.5" style="fill:rgb(0,0,0);font-family:AdvPTimes;font-size:8.47px;stroke:none;">0.01a 6.17</text>
   <text y="552.926" x="462.101" svgx:width="0.78" style="fill:rgb(0,0,0);font-family:AdvTir_symb;font-size:8.47px;stroke:none;">±</text>
   <text y="552.926" x="471.511,475.745,477.862,482.096,486.331,490.14250000000004,498.61,502.844,504.961,509.196" svgx:width="0.5,0.25,0.5,0.5,0.45,0.55,0.5,0.25,0.5,0.5" style="fill:rgb(0,0,0);font-family:AdvPTimes;font-size:8.47px;stroke:none;">0.02a 1.81</text>
   <text y="552.926" x="516.242" svgx:width="0.78" style="fill:rgb(0,0,0);font-family:AdvTir_symb;font-size:8.47px;stroke:none;">±</text>
   <text y="552.926" x="525.653,529.887,532.004,536.238,540.472" svgx:width="0.5,0.25,0.5,0.5,0.45" style="fill:rgb(0,0,0);font-family:AdvPTimes;font-size:8.47px;stroke:none;">0.05a</text>
   <text y="569.65" x="306.138,312.218,316.004,318.383,322.617,326.403,329.6216,331.707,335.492,338.312,342.12350000000004,344.123,350.737,354.522,358.307,362.54200000000003,364.532,367.352" svgx:width="0.72,0.45,0.28,0.5,0.45,0.38,0.55,0.45,0.33,0.45,0.55,0.78,0.45,0.45,0.5,0.55,0.33,0.5" style="fill:rgb(0,0,0);font-family:AdvPTimes;font-size:8.47px;stroke:none;">Values are mean (n</text>
   <text y="569.65" x="374.396" svgx:width="0.78" style="fill:rgb(0,0,0);font-family:AdvTir_symb;font-size:8.47px;stroke:none;">=</text>
   <text y="569.65" x="383.807,388.041" svgx:width="0.5,0.33" style="fill:rgb(0,0,0);font-family:AdvPTimes;font-size:8.47px;stroke:none;">3)</text>
   <text y="569.65" x="393.672" svgx:width="0.78" style="fill:rgb(0,0,0);font-family:AdvTir_symb;font-size:8.47px;stroke:none;">±</text>
   <text y="569.65" x="403.082,407.757,412.956,415.0735,417.029,422.228,426.462,430.2735,432.279,438.893,442.678,446.463,450.697,453.9156,455.976,458.796,463.03,465.41,467.789,472.024,478.104,481.889,486.124,488.122,492.356,496.591,498.609,501.87,505.655,512.269,516.0805,518.055,520.435,524.22,526.599,528.979,532.764,535.5591000000001,537.614,539.994" svgx:width="0.55,0.61,0.25,0.55,0.61,0.5,0.45,0.55,0.78,0.45,0.45,0.5,0.38,0.55,0.33,0.5,0.28,0.28,0.5,0.72,0.45,0.5,0.55,0.5,0.5,0.55,0.38,0.45,0.78,0.45,0.55,0.28,0.45,0.28,0.28,0.45,0.33,0.55,0.28,0.5" style="fill:rgb(0,0,0);font-family:AdvPTimes;font-size:8.47px;stroke:none;">SE. The means followed by same letter in</text>
   <text y="579.628" x="306.137,308.517,312.751,316.5625,318.95,322.21,325.995,332.609,336.4205,338.793,342.578,346.812,349.191,353.426,360.039,364.274,366.742,370.527,373.347,377.1585,379.554,383.788,388.022,390.3936,392.764,396.024,398.404,402.638,406.872,409.251,413.926,417.711,421.496,425.73,428.11,430.49,434.725,437.154,441.388,443.768,446.588,449.408,453.193,456.013,459.798,464.032,466.4036,468.845,472.631,476.416,480.201,484.435,487.255,491.489,493.869,498.103,502.338,504.789,507.168,511.403,513.803,519.883,525.963,532.044,538.124" svgx:width="0.28,0.5,0.45,0.55,0.38,0.45,0.78,0.45,0.55,0.45,0.5,0.28,0.5,0.78,0.5,0.55,0.45,0.33,0.45,0.55,0.5,0.5,0.28,0.55,0.38,0.28,0.5,0.5,0.28,0.55,0.45,0.45,0.5,0.28,0.28,0.5,0.55,0.5,0.28,0.33,0.33,0.45,0.33,0.45,0.5,0.28,0.55,0.45,0.45,0.45,0.5,0.33,0.5,0.28,0.5,0.5,0.55,0.28,0.5,0.55,0.72,0.72,0.72,0.72,0.72" style="fill:rgb(0,0,0);font-family:AdvPTimes;font-size:8.47px;stroke:none;">the same column are not signiﬁcantly different according to ANOVA</text>
   <text y="589.606" x="306.137,309.923,314.157,318.392,321.218,326.417,330.651,334.885,338.671,342.905,345.725,348.9436,351.832,358.446,362.68,365.059,367.439,369.818,374.052,376.432,380.24350000000004,383.069,388.709,392.943,399.557,403.791,407.576,410.396,412.776,416.036,420.27,424.505,427.347,429.727,433.512,436.772,439.152" svgx:width="0.45,0.5,0.5,0.55,0.61,0.5,0.5,0.45,0.5,0.33,0.38,0.55,0.78,0.5,0.28,0.28,0.28,0.5,0.28,0.45,0.55,0.67,0.5,0.78,0.5,0.45,0.33,0.28,0.38,0.5,0.5,0.55,0.28,0.45,0.38,0.28,0.38" style="fill:rgb(0,0,0);font-family:AdvPTimes;font-size:8.47px;stroke:none;">and Tukey’s multiple Comparison tests</text>
  </g>
  <g begin="text">
   <text y="39.969" x="51.024,55.258,59.492,63.727,483.192,488.392,490.5095,493.341,498.015,500.1325,502.978,509.058,513.292,515.672,519.906,524.141,526.959,530.745,533.1166,535.974,539.759,542.138" svgx:width="0.5,0.5,0.5,0.55,0.61,0.25,0.55,0.55,0.25,0.55,0.72,0.5,0.28,0.5,0.5,0.55,0.45,0.28,0.55,0.45,0.28,0.25" style="fill:rgb(0,0,0);font-family:AdvPTimes;font-size:8.47px;stroke:none;">300 E. S. Adjou et al.</text>
   <text y="745.342" x="52.441,59.599,62.857" svgx:width="0.48,0.22,1.97" style="fill:rgb(0,0,0);font-family:AdvSPRING-R;font-size:14.94px;stroke:none;">123</text>
  </g>
 </g>
</svg>
