<?xml version="1.0" encoding="UTF-8"?>
<svg height="48.7" width="466.52" xmlns="http://www.w3.org/2000/svg">
 <g>
  <polygon style="fill:rgb(255,255,255);stroke:none;stroke-width:0.5;" signature="MLLLLLLLZ" points="455.03 36.0 455.36 36.0 456.52 38.7 456.09 38.7 455.82 38.04 454.53 38.04 454.26 38.7 453.84 38.7" id="polygon1"/>
  <polygon style="fill:rgb(149,193,20);stroke:none;stroke-width:0.5;" signature="MLLLLLLLLLZ" points="367.46 27.67 370.57 27.67 370.57 28.3 368.14 28.3 368.14 29.85 370.41 29.85 370.41 30.48 368.14 30.48 368.14 32.62 367.46 32.62" id="polygon2"/>
  <polygon style="fill:rgb(149,193,20);stroke:none;stroke-width:0.5;" signature="MLLLLLLLLLLLZ" points="415.52 27.67 416.4 27.67 419.12 31.74 419.14 31.74 419.14 27.67 419.81 27.67 419.81 32.62 418.95 32.62 416.2 28.55 416.19 28.55 416.19 32.62 415.52 32.62" id="polygon3"/>
 </g>
</svg>
