<?xml version="1.0" encoding="UTF-8"?>
<svg height="774.244" width="4179.426" xmlns="http://www.w3.org/2000/svg">
 <g id="page" xmlns:svgx="http://www.xml-cml.org/schema/svgx">
  <g begin="text">
   <text y="22.46" x="40.638,48.208,55.778,63.055,66.145,71.865,77.215,81.135,86.765,90.565,95.995,99.085,103.915,109.695,118.435,121.635,126.125,130.955,133.725,139.15,144.87,148.79,151.56,155.19,157.96,162.79,166.59,172.02,177.78,183.56,187.36,191.28,195.77" svgx:width="0.71,0.71,0.71,0.26,0.53,0.49,0.35,0.52,0.34,0.5,0.26,0.44,0.53,0.83,0.28,0.4,0.44,0.23,0.5,0.53,0.35,0.23,0.32,0.23,0.44,0.34,0.5,0.53,0.53,0.34,0.35,0.4,0.28" style="fill:rgb(255,255,255);font-family:Corbel2;font-size:10.0px;stroke:none;">www.nature.com/scientificreports/</text>
  </g>
  <g begin="text">
   <text y="764.23" x="550.36" svgx:width="0.43" style="fill:rgb(131,144,151);font-family:Corbel2;font-size:10.0px;stroke:none;">7</text>
  </g>
  <g begin="text">
   <text y="764.244" x="40.794,45.642,50.786,53.186,58.026,64.026,68.898,71.298,75.762,78.162" svgx:width="0.55,0.59,0.25,0.55,0.7,0.56,0.25,0.5,0.25,0.59" style="fill:rgb(131,144,151);font-family:Corbel2;font-size:8.0px;stroke:none;">SCientifiC</text>
   <text y="764.244" x="83.162" svgx:width="0.2" style="fill:rgb(0,0,0);font-family:Corbel2;font-size:8.0px;stroke:none;"> </text>
   <text y="764.244" x="84.762,90.218,95.194,100.434,106.738,112.194,117.186" svgx:width="0.63,0.57,0.6,0.73,0.63,0.57,0.58" style="fill:rgb(131,144,151);font-family:Corbel-Bold2;font-size:8.0px;stroke:none;">REPORTS</text>
   <text y="764.244" x="122.082,123.522,125.338" svgx:width="0.2,0.23,0.2" style="fill:rgb(0,0,0);font-family:Corbel2;font-size:8.0px;stroke:none;"> | </text>
   <text y="764.244" x="126.778,128.234,130.506,134.442,138.378,142.314,146.25,148.522,149.978,153.914,155.602,159.538,163.474,167.41,171.346" svgx:width="0.18,0.28,0.49,0.49,0.49,0.49,0.28,0.18,0.49,0.21,0.49,0.49,0.49,0.49,0.18" style="fill:rgb(0,0,0);font-family:MyriadPro-It;font-size:8.0px;stroke:none;"> (2018) 8:7215 </text>
   <text y="764.244" x="172.802,174.244,176.06,177.502,182.87,188.71,190.678,192.79,196.894,200.998,203.11,207.214,211.318,215.422,219.526,221.726,224.958,229.062,233.166,237.27,241.374,245.478,248.142,252.246,256.35,260.454,263.118,267.222,271.326,275.43,279.534,283.638,286.302" svgx:width="0.2,0.23,0.2,0.67,0.73,0.25,0.26,0.51,0.51,0.26,0.51,0.51,0.51,0.51,0.28,0.4,0.51,0.51,0.51,0.51,0.51,0.33,0.51,0.51,0.51,0.33,0.51,0.51,0.51,0.51,0.51,0.33,0.51" style="fill:rgb(0,0,0);font-family:Corbel;font-size:8.0px;stroke:none;"> | DOI:10.1038/s41598-018-25721-0</text>
  </g>
  <path style="fill:none;stroke:rgb(0,0,0);stroke-width:1.0;" d="M40.640 752.550 L554.640 752.550 "/>
  <g begin="text">
   <text y="676.01" x="155.638,161.654,164.783,168.927,173.639,178.017,179.979,184.331,187.809,190.497,192.823,196.968,199.303,202.071,206.053,208.015,212.304,214.729,218.928,223.347,226.294,229.359,233.566,237.549,240.586,242.704" svgx:width="0.68,0.37,0.47,0.53,0.49,0.23,0.49,0.38,0.31,0.27,0.45,0.27,0.31,0.44,0.23,0.49,0.27,0.47,0.49,0.34,0.34,0.49,0.44,0.34,0.23,0.23" style="fill:rgb(0,0,0);font-family:MinionPro-It;font-size:9.0px;stroke:none;">Group activity bioassays. </text>
   <text y="676.01" x="251.713,261.32,265.15,267.094,271.05,274.924,277.719,280.072,284.271,286.58,289.356,293.492,295.436,299.905,302.322,306.961,310.89,314.152,317.514,321.308,325.444,328.751,330.695,335.456,339.286,346.625,351.112,355.967,359.23,362.024,365.368,369.153,371.849,375.723,380.48,382.424,385.227,390.011,393.795,396.545,398.489,401.292,406.067,409.896,411.84,415.985,419.814,424.706,428.535,431.879,435.88,438.162,440.106,444.061,447.936,450.73,453.085,457.283,459.592,462.368,466.504,468.448,472.934,475.603,477.547,480.35,485.126,488.955,490.899,493.208,497.083,500.688,504.859,508.815,512.644,514.588,518.85,522.076,526.572,531.247,535.968,539.275,541.219,547.388,551.318,554.62" svgx:width="1.07,0.43,0.23,0.44,0.42,0.31,0.27,0.46,0.27,0.31,0.46,0.23,0.51,0.27,0.51,0.44,0.37,0.37,0.44,0.46,0.37,0.23,0.53,0.43,0.82,0.51,0.55,0.37,0.31,0.37,0.44,0.31,0.43,0.53,0.23,0.31,0.53,0.44,0.31,0.23,0.31,0.53,0.43,0.23,0.47,0.43,0.55,0.43,0.37,0.44,0.25,0.23,0.44,0.42,0.31,0.27,0.46,0.27,0.31,0.46,0.23,0.51,0.3,0.23,0.31,0.53,0.43,0.23,0.25,0.44,0.37,0.46,0.44,0.43,0.23,0.47,0.37,0.51,0.53,0.52,0.37,0.23,0.69,0.44,0.37,0.23" style="fill:rgb(0,0,0);font-family:MinionPro-Regular;font-size:9.0px;stroke:none;">The activity bioassays demonstrated that the general activity of the larvae groups was </text>
   <text y="686.009" x="155.638,158.986,161.443,165.743,170.711,173.168,178.028,181.905,185.82,190.616,193.459,195.717,199.893,201.882,205.041,209.81,213.733,218.286,220.608,224.478" svgx:width="0.37,0.27,0.47,0.55,0.27,0.54,0.42,0.44,0.55,0.31,0.25,0.46,0.23,0.35,0.62,0.44,0.51,0.25,0.43,0.23" style="fill:rgb(0,0,0);font-family:MinionPro-Regular;font-size:9.0px;stroke:none;">significantly (Table </text>
   <text y="686.009" x="226.468" svgx:width="0.48" style="fill:rgb(0,0,255);font-family:MinionPro-Regular;font-size:9.0px;stroke:none;">4</text>
   <text y="686.009" x="230.833,233.992,235.981,238.438,243.406,248.138,252.962,256.832,261.763,265.615,269.529,274.326,276.315,280.788,284.964,286.953,289.796,294.61,298.48,300.469,304.339,308.632,313.473,318.108,321.41,326.234,329.5,333.37,335.359,338.094,342.729,344.718,347.56,352.375,356.245,358.234,362.104,365.405,368.824,372.694,377.49,380.324,382.806,386.846,389.168,391.157,395.683,398.184,400.506,402.495,405.654,410.46,412.917,417.199,419.296" svgx:width="0.35,0.23,0.27,0.55,0.53,0.53,0.43,0.55,0.42,0.43,0.53,0.23,0.51,0.46,0.23,0.31,0.53,0.43,0.23,0.43,0.47,0.52,0.51,0.37,0.53,0.37,0.43,0.23,0.31,0.51,0.23,0.31,0.53,0.43,0.23,0.43,0.37,0.37,0.43,0.55,0.31,0.27,0.44,0.25,0.23,0.51,0.27,0.25,0.23,0.35,0.53,0.27,0.47,0.23,0.23" style="fill:rgb(0,0,0);font-family:MinionPro-Regular;font-size:9.0px;stroke:none;">) influenced by the exposure to the essential oil (Fig. </text>
   <text y="686.009" x="421.3,425.665" svgx:width="0.48,0.67" style="fill:rgb(0,0,255);font-family:MinionPro-Regular;font-size:9.0px;stroke:none;">7C</text>
   <text y="686.009" x="431.695,434.854,436.951,438.94,445.014,449.837,453.751,458.646,462.83,466.7,470.048,472.037,474.494,479.462,481.451,485.753,489.019,493.553,498.268,503.029,505.018,509.715,513.548,518.371,522.203,526.442,528.898,533.425,536.809,538.798,543.288,547.427,551.297,554.636" svgx:width="0.35,0.23,0.23,0.67,0.53,0.44,0.55,0.47,0.43,0.37,0.23,0.27,0.55,0.23,0.47,0.37,0.51,0.53,0.52,0.23,0.51,0.43,0.53,0.44,0.46,0.27,0.51,0.37,0.23,0.51,0.46,0.43,0.37,0.23" style="fill:rgb(0,0,0);font-family:MinionPro-Regular;font-size:9.0px;stroke:none;">). Changes in group behavior over </text>
   <text y="696.008" x="155.638,158.428,160.84,168.175,172.0,173.854,179.947,183.772,186.994,190.819,192.673,195.256,199.747,204.526,209.413,214.165,216.019,218.601,223.084,226.423,228.277,232.273,234.594,236.871,238.725,241.416,245.241,248.499,251.19,255.059,259.811,261.665,266.462,270.953,275.57,280.393,282.697,286.477,289.267,291.679,296.161,301.012,304.315,306.169,312.397,317.167,320.992,325.915,327.769,331.594,335.842,340.639,345.229,348.604,352.473,357.225,359.079,361.77,366.36,368.214,372.039,374.343,377.142,381.912,385.737,389.076,390.93,395.7" svgx:width="0.31,0.27,0.82,0.43,0.23,0.69,0.43,0.37,0.43,0.23,0.3,0.51,0.53,0.55,0.53,0.23,0.3,0.51,0.37,0.23,0.44,0.25,0.25,0.23,0.31,0.43,0.37,0.31,0.43,0.53,0.23,0.52,0.51,0.52,0.53,0.25,0.44,0.31,0.27,0.51,0.55,0.37,0.23,0.69,0.53,0.43,0.55,0.23,0.43,0.47,0.52,0.51,0.37,0.43,0.53,0.23,0.31,0.51,0.23,0.43,0.27,0.31,0.53,0.43,0.37,0.23,0.54,0.67" style="fill:rgb(0,0,0);font-family:MinionPro-Regular;font-size:9.0px;stroke:none;">time were found for all tested populations when exposed to either LC</text>
   <text y="697.81" x="401.679,404.487" svgx:width="0.48,0.48" style="fill:rgb(0,0,0);font-family:MinionPro-Regular;font-size:5.85px;stroke:none;">10</text>
   <text y="696.01" x="407.295,409.149,413.631,416.97,418.824,423.594" svgx:width="0.23,0.51,0.37,0.23,0.54,0.67" style="fill:rgb(0,0,0);font-family:MinionPro-Regular;font-size:9.0px;stroke:none;"> or LC</text>
   <text y="697.81" x="429.578,432.386" svgx:width="0.48,0.48" style="fill:rgb(0,0,0);font-family:MinionPro-Regular;font-size:5.85px;stroke:none;">50</text>
   <text y="696.01" x="435.194,437.048,440.855,445.337,452.537,457.298,461.168,464.39,468.26,473.012,474.866,477.557,482.147,484.001,486.799,491.569,495.394,497.248,502.027,506.914,510.739,514.987,519.783,524.373,527.748,531.618,536.37,538.224,542.031,546.513,551.436" svgx:width="0.23,0.42,0.51,0.82,0.52,0.44,0.37,0.43,0.53,0.23,0.31,0.51,0.23,0.31,0.53,0.43,0.23,0.53,0.55,0.43,0.47,0.52,0.51,0.37,0.43,0.53,0.23,0.42,0.51,0.55,0.36" style="fill:rgb(0,0,0);font-family:MinionPro-Regular;font-size:9.0px;stroke:none;"> compared to the unexposed con-</text>
   <text y="706.009" x="155.636,158.426,161.648,166.175,168.398,170.45,172.34,181.943,185.768,187.658,191.978,193.094,197.9,199.79,203.615,207.863,212.659,217.249,220.507,225.286,228.508,232.333,234.223,236.914,241.504,243.394,248.164" svgx:width="0.31,0.37,0.51,0.25,0.23,0.23,1.07,0.43,0.23,0.48,0.23,0.53,0.23,0.43,0.47,0.52,0.51,0.37,0.53,0.37,0.43,0.23,0.31,0.51,0.23,0.54,0.67" style="fill:rgb(0,0,0);font-family:MinionPro-Regular;font-size:9.0px;stroke:none;">trol. The 3 h exposure to LC</text>
   <text y="707.81" x="254.142,256.95" svgx:width="0.48,0.48" style="fill:rgb(0,0,0);font-family:MinionPro-Regular;font-size:5.85px;stroke:none;">50</text>
   <text y="706.01" x="259.758,261.648,266.13,268.794,270.684,273.483,278.253,282.078,283.963,287.788,291.046,294.421,298.246,302.998,305.788,308.227,312.223,314.5,316.39,320.871,323.328,325.605,327.495,331.491,333.768,336.99,340.869,344.82,349.509,353.64,355.53,358.752,362.577,365.835,370.659,372.828,375.519,379.389,384.141,386.031,388.443,393.366,395.256,399.207,401.097,405.849,409.188,413.112,416.37,419.16,421.572,425.379,427.269,430.491,434.361,439.005,443.784,447.654,450.444,452.856,457.338,462.261,464.151,468.633,471.297,473.187,475.985,480.756,484.581,486.466,490.723,493.945,498.436,503.107,507.823,509.713,513.664,517.534,520.324,522.673,526.867,529.17,531.942,535.416,537.468,539.358,548.997,551.382,554.685" svgx:width="0.23,0.51,0.3,0.23,0.31,0.53,0.43,0.23,0.43,0.37,0.37,0.43,0.55,0.31,0.27,0.44,0.25,0.23,0.51,0.27,0.25,0.23,0.44,0.25,0.37,0.43,0.44,0.53,0.46,0.23,0.37,0.43,0.37,0.53,0.25,0.31,0.43,0.53,0.23,0.27,0.55,0.23,0.44,0.23,0.53,0.37,0.44,0.37,0.31,0.27,0.42,0.23,0.37,0.43,0.53,0.53,0.42,0.31,0.27,0.51,0.55,0.23,0.51,0.3,0.23,0.31,0.53,0.43,0.23,0.47,0.37,0.51,0.53,0.52,0.23,0.44,0.42,0.31,0.27,0.46,0.27,0.31,0.46,0.23,0.23,1.07,0.27,0.37,0.23" style="fill:rgb(0,0,0);font-family:MinionPro-Regular;font-size:9.0px;stroke:none;"> of the essential oil already resulted in a drastic reduction of the group activity. This </text>
   <text y="716.009" x="155.637,158.853,162.718,167.357,172.127,175.992,178.777,181.18,185.656,190.57,192.298,198.454,202.373,205.667,207.395,212.186,216.002,219.282,222.576,224.956,228.208,230.894,234.71,239.457,242.193,243.921,247.786,252.964,256.78,260.11,261.838,266.149,267.877,271.742,276.624,281.367,283.095,287.406,291.717,292.914,297.711,299.754,301.482,305.688,308.091,315.453,317.905,320.204,324.069,327.399,329.127,331.912,335.128,338.944,343.826,348.546,351.84,353.568,359.657,363.473,366.689,370.505,372.233,374.811,379.297,384.067,388.948,393.691,395.419,397.997,402.473,405.803,407.531,410.325,415.09,418.906,420.634,423.886,428.624,433.128,435.396,439.212,442.006,446.779,450.77,453.038,454.766,459.509,464.09,467.46,471.276,473.004,477.48,480.135,481.863,486.628" svgx:width="0.37,0.43,0.53,0.53,0.42,0.31,0.27,0.51,0.55,0.23,0.69,0.44,0.37,0.23,0.52,0.43,0.37,0.37,0.27,0.37,0.31,0.43,0.55,0.31,0.23,0.44,0.58,0.43,0.37,0.23,0.48,0.23,0.44,0.55,0.53,0.23,0.48,0.48,0.23,0.53,0.23,0.23,0.47,0.27,0.82,0.27,0.25,0.44,0.37,0.23,0.31,0.37,0.43,0.55,0.53,0.37,0.23,0.69,0.43,0.37,0.43,0.23,0.3,0.51,0.53,0.55,0.53,0.23,0.3,0.51,0.37,0.23,0.31,0.53,0.43,0.23,0.37,0.53,0.51,0.25,0.43,0.31,0.53,0.44,0.25,0.23,0.53,0.51,0.37,0.43,0.23,0.51,0.3,0.23,0.54,0.67" style="fill:rgb(0,0,0);font-family:MinionPro-Regular;font-size:9.0px;stroke:none;">reduction was persistent after 6 and 16 h. Similar trends were found for the sublethal dose of LC</text>
   <text y="717.81" x="492.712,495.514" svgx:width="0.48,0.48" style="fill:rgb(0,0,0);font-family:MinionPro-Regular;font-size:5.85px;stroke:none;">10</text>
   <text y="716.01" x="498.321,500.364,502.092,505.908,509.161,513.952,517.817,521.615,524.048,528.039,530.356,532.565,536.687,538.415,542.28,547.458,551.274,554.613" svgx:width="0.23,0.23,0.43,0.37,0.52,0.43,0.42,0.27,0.44,0.25,0.25,0.46,0.23,0.44,0.58,0.43,0.37,0.23" style="fill:rgb(0,0,0);font-family:MinionPro-Regular;font-size:9.0px;stroke:none;">, especially after </text>
   <text y="726.009" x="155.637,159.957,164.277,165.402,170.208,172.044,176.526,179.19,181.026,184.851,189.099,193.895,198.485,201.743,206.522,209.744,213.515" svgx:width="0.48,0.48,0.23,0.53,0.23,0.51,0.3,0.23,0.43,0.47,0.52,0.51,0.37,0.53,0.37,0.43,0.23" style="fill:rgb(0,0,0);font-family:MinionPro-Regular;font-size:9.0px;stroke:none;">16 h of exposure.</text>
  </g>
  <rect style="stroke:blue;stroke-width:0.3;" x="169.426" y="111.008" height="279.144" width="382.704" title="7"/>
  <text y="111.008" class="image" id="image.7.1" width="382" height="279" x="169.426">image.7.1.169_552.111_390</text>
  <g begin="text">
   <text y="184.634" transform="matrix(-0.00285,-1.0,1.0,-0.00285,-19.52137,349.80226)" rotateDegrees="-90.2" matrix="[-0.0299,10.4767,-10.4767,-0.0299,164.6417,597.7277]" x="164.642" svgx:width="0.5" style="fill:rgb(35,31,32);font-family:ArialMT;font-size:10.48px;stroke:none;">s</text>
   <text y="186.96" transform="matrix(-0.00285,-1.0,1.0,-0.00285,-21.84134,352.1409)" rotateDegrees="-90.2" matrix="[-0.0299,10.4767,-10.4767,-0.0299,164.64833,595.4019]" x="164.648" svgx:width="0.22" style="fill:rgb(35,31,32);font-family:ArialMT;font-size:10.48px;stroke:none;">i</text>
   <text y="192.198" transform="matrix(-0.00285,-1.0,1.0,-0.00285,-27.06428,357.40885)" rotateDegrees="-90.2" matrix="[-0.0299,10.4767,-10.4767,-0.0299,164.66328,590.1636]" x="164.663" svgx:width="0.5" style="fill:rgb(35,31,32);font-family:ArialMT;font-size:10.48px;stroke:none;">s</text>
   <text y="198.023" transform="matrix(-0.00285,-1.0,1.0,-0.00285,-32.87221,363.26748)" rotateDegrees="-90.2" matrix="[-0.0299,10.4767,-10.4767,-0.0299,164.6799,584.3385]" x="164.68" svgx:width="0.56" style="fill:rgb(35,31,32);font-family:ArialMT;font-size:10.48px;stroke:none;">o</text>
   <text y="200.936" transform="matrix(-0.00285,-1.0,1.0,-0.00285,-35.77717,366.19679)" rotateDegrees="-90.2" matrix="[-0.0299,10.4767,-10.4767,-0.0299,164.68822,581.42596]" x="164.688" svgx:width="0.28" style="fill:rgb(35,31,32);font-family:ArialMT;font-size:10.48px;stroke:none;">t</text>
   <text y="206.761" transform="matrix(-0.00285,-1.0,1.0,-0.00285,-41.5851,372.05541)" rotateDegrees="-90.2" matrix="[-0.0299,10.4767,-10.4767,-0.0299,164.70483,575.6009]" x="164.705" svgx:width="0.56" style="fill:rgb(35,31,32);font-family:ArialMT;font-size:10.48px;stroke:none;">p</text>
   <text y="212.586" transform="matrix(-0.00285,-1.0,1.0,-0.00285,-47.39403,377.91304)" rotateDegrees="-90.2" matrix="[-0.0299,10.4767,-10.4767,-0.0299,164.72145,569.7758]" x="164.721" svgx:width="0.56" style="fill:rgb(35,31,32);font-family:ArialMT;font-size:10.48px;stroke:none;">o</text>
   <text y="218.411" transform="matrix(-0.00285,-1.0,1.0,-0.00285,-53.20196,383.77166)" rotateDegrees="-90.2" matrix="[-0.0299,10.4767,-10.4767,-0.0299,164.73807,563.95074]" x="164.738" svgx:width="0.56" style="fill:rgb(35,31,32);font-family:ArialMT;font-size:10.48px;stroke:none;">p</text>
   <text y="224.236" transform="matrix(-0.00285,-1.0,1.0,-0.00285,-59.00989,389.63029)" rotateDegrees="-90.2" matrix="[-0.0299,10.4767,-10.4767,-0.0299,164.75468,558.1257]" x="164.755" svgx:width="0.56" style="fill:rgb(35,31,32);font-family:ArialMT;font-size:10.48px;stroke:none;">a</text>
   <text y="260.296" transform="matrix(-0.00285,-1.0,1.0,-0.00285,-94.50413,426.3572)" rotateDegrees="-90.2" matrix="[-0.0299,10.4767,-10.4767,-0.0299,165.31857,522.06616]" x="165.319" svgx:width="0.5" style="fill:rgb(35,31,32);font-family:ArialMT;font-size:10.48px;stroke:none;">s</text>
   <text y="262.622" transform="matrix(-0.00285,-1.0,1.0,-0.00285,-96.8241,428.69583)" rotateDegrees="-90.2" matrix="[-0.0299,10.4767,-10.4767,-0.0299,165.32521,519.74036]" x="165.325" svgx:width="0.22" style="fill:rgb(35,31,32);font-family:ArialMT;font-size:10.48px;stroke:none;">i</text>
   <text y="267.86" transform="matrix(-0.00285,-1.0,1.0,-0.00285,-102.04704,433.96378)" rotateDegrees="-90.2" matrix="[-0.0299,10.4767,-10.4767,-0.0299,165.34016,514.502]" x="165.34" svgx:width="0.5" style="fill:rgb(35,31,32);font-family:ArialMT;font-size:10.48px;stroke:none;">s</text>
   <text y="273.685" transform="matrix(-0.00285,-1.0,1.0,-0.00285,-107.85497,439.82241)" rotateDegrees="-90.2" matrix="[-0.0299,10.4767,-10.4767,-0.0299,165.35678,508.67697]" x="165.357" svgx:width="0.56" style="fill:rgb(35,31,32);font-family:ArialMT;font-size:10.48px;stroke:none;">o</text>
   <text y="277.174" transform="matrix(-0.00285,-1.0,1.0,-0.00285,-111.33392,443.33136)" rotateDegrees="-90.2" matrix="[-0.0299,10.4767,-10.4767,-0.0299,165.36674,505.18823]" x="165.367" svgx:width="0.33" style="fill:rgb(35,31,32);font-family:ArialMT;font-size:10.48px;stroke:none;">r</text>
   <text y="282.412" transform="matrix(-0.00285,-1.0,1.0,-0.00285,-116.55686,448.59931)" rotateDegrees="-90.2" matrix="[-0.0299,10.4767,-10.4767,-0.0299,165.3817,499.9499]" x="165.382" svgx:width="0.5" style="fill:rgb(35,31,32);font-family:ArialMT;font-size:10.48px;stroke:none;">c</text>
   <text y="288.237" transform="matrix(-0.00285,-1.0,1.0,-0.00285,-122.36579,454.45694)" rotateDegrees="-90.2" matrix="[-0.0299,10.4767,-10.4767,-0.0299,165.39832,494.12485]" x="165.398" svgx:width="0.56" style="fill:rgb(35,31,32);font-family:ArialMT;font-size:10.48px;stroke:none;">e</text>
   <text y="294.062" transform="matrix(-0.00285,-1.0,1.0,-0.00285,-128.17372,460.31556)" rotateDegrees="-90.2" matrix="[-0.0299,10.4767,-10.4767,-0.0299,165.41493,488.2998]" x="165.415" svgx:width="0.56" style="fill:rgb(35,31,32);font-family:ArialMT;font-size:10.48px;stroke:none;">n</text>
   <text y="328.636" transform="matrix(-0.00285,-1.0,1.0,-0.00285,-163.02737,494.70924)" rotateDegrees="-90.2" matrix="[-0.0299,10.4767,-10.4767,-0.0299,165.13644,453.72562]" x="165.136" svgx:width="0.5" style="fill:rgb(35,31,32);font-family:ArialMT;font-size:10.48px;stroke:none;">y</text>
   <text y="334.461" transform="matrix(-0.00285,-1.0,1.0,-0.00285,-168.8353,500.56786)" rotateDegrees="-90.2" matrix="[-0.0299,10.4767,-10.4767,-0.0299,165.15306,447.90057]" x="165.153" svgx:width="0.56" style="fill:rgb(35,31,32);font-family:ArialMT;font-size:10.48px;stroke:none;">a</text>
   <text y="336.787" transform="matrix(-0.00285,-1.0,1.0,-0.00285,-171.15427,502.9075)" rotateDegrees="-90.2" matrix="[-0.0299,10.4767,-10.4767,-0.0299,165.1597,445.57474]" x="165.16" svgx:width="0.22" style="fill:rgb(35,31,32);font-family:ArialMT;font-size:10.48px;stroke:none;">l</text>
   <text y="340.276" transform="matrix(-0.00285,-1.0,1.0,-0.00285,-174.63323,506.41645)" rotateDegrees="-90.2" matrix="[-0.0299,10.4767,-10.4767,-0.0299,165.16966,442.086]" x="165.17" svgx:width="0.33" style="fill:rgb(35,31,32);font-family:ArialMT;font-size:10.48px;stroke:none;">r</text>
   <text y="346.101" transform="matrix(-0.00285,-1.0,1.0,-0.00285,-180.44216,512.27408)" rotateDegrees="-90.2" matrix="[-0.0299,10.4767,-10.4767,-0.0299,165.18628,436.26096]" x="165.186" svgx:width="0.56" style="fill:rgb(35,31,32);font-family:ArialMT;font-size:10.48px;stroke:none;">e</text>
   <text y="351.339" transform="matrix(-0.00285,-1.0,1.0,-0.00285,-185.6651,517.54203)" rotateDegrees="-90.2" matrix="[-0.0299,10.4767,-10.4767,-0.0299,165.20123,431.0226]" x="165.201" svgx:width="0.5" style="fill:rgb(35,31,32);font-family:ArialMT;font-size:10.48px;stroke:none;">v</text>
   <text y="357.164" transform="matrix(-0.00285,-1.0,1.0,-0.00285,-191.47302,523.40065)" rotateDegrees="-90.2" matrix="[-0.0299,10.4767,-10.4767,-0.0299,165.21785,425.19757]" x="165.218" svgx:width="0.56" style="fill:rgb(35,31,32);font-family:ArialMT;font-size:10.48px;stroke:none;">o</text>
   <text y="123.512" transform="matrix(-0.00285,-1.0,1.0,-0.00285,41.90826,288.81282)" rotateDegrees="-90.2" matrix="[-0.0299,10.4767,-10.4767,-0.0299,164.94913,658.8501]" x="164.949" svgx:width="0.56" style="fill:rgb(35,31,32);font-family:ArialMT;font-size:10.48px;stroke:none;">e</text>
   <text y="125.838" transform="matrix(-0.00285,-1.0,1.0,-0.00285,39.58929,291.15246)" rotateDegrees="-90.2" matrix="[-0.0299,10.4767,-10.4767,-0.0299,164.95576,656.5243]" x="164.956" svgx:width="0.22" style="fill:rgb(35,31,32);font-family:ArialMT;font-size:10.48px;stroke:none;">l</text>
   <text y="131.663" transform="matrix(-0.00285,-1.0,1.0,-0.00285,33.78036,297.01009)" rotateDegrees="-90.2" matrix="[-0.0299,10.4767,-10.4767,-0.0299,164.97238,650.6992]" x="164.972" svgx:width="0.56" style="fill:rgb(35,31,32);font-family:ArialMT;font-size:10.48px;stroke:none;">b</text>
   <text y="137.488" transform="matrix(-0.00285,-1.0,1.0,-0.00285,27.97243,302.86871)" rotateDegrees="-90.2" matrix="[-0.0299,10.4767,-10.4767,-0.0299,164.989,644.87415]" x="164.989" svgx:width="0.56" style="fill:rgb(35,31,32);font-family:ArialMT;font-size:10.48px;stroke:none;">a</text>
   <text y="139.814" transform="matrix(-0.00285,-1.0,1.0,-0.00285,25.65346,305.20835)" rotateDegrees="-90.2" matrix="[-0.0299,10.4767,-10.4767,-0.0299,164.99564,642.54834]" x="164.996" svgx:width="0.22" style="fill:rgb(35,31,32);font-family:ArialMT;font-size:10.48px;stroke:none;">i</text>
   <text y="145.052" transform="matrix(-0.00285,-1.0,1.0,-0.00285,20.43052,310.4763)" rotateDegrees="-90.2" matrix="[-0.0299,10.4767,-10.4767,-0.0299,165.01059,637.31]" x="165.011" svgx:width="0.5" style="fill:rgb(35,31,32);font-family:ArialMT;font-size:10.48px;stroke:none;">v</text>
  </g>
  <g begin="text">
   <text y="182.116" transform="matrix(-0.00285,-1.0,1.0,-0.00285,188.07925,551.77524)" rotateDegrees="-90.2" matrix="[-0.0299,10.4767,-10.4767,-0.0299,369.141,600.2457]" x="369.141" svgx:width="0.5" style="fill:rgb(35,31,32);font-family:ArialMT;font-size:10.48px;stroke:none;">s</text>
   <text y="184.442" transform="matrix(-0.00285,-1.0,1.0,-0.00285,185.76028,554.11488)" rotateDegrees="-90.2" matrix="[-0.0299,10.4767,-10.4767,-0.0299,369.14764,597.9199]" x="369.148" svgx:width="0.22" style="fill:rgb(35,31,32);font-family:ArialMT;font-size:10.48px;stroke:none;">i</text>
   <text y="189.68" transform="matrix(-0.00285,-1.0,1.0,-0.00285,180.53734,559.38283)" rotateDegrees="-90.2" matrix="[-0.0299,10.4767,-10.4767,-0.0299,369.1626,592.6816]" x="369.163" svgx:width="0.5" style="fill:rgb(35,31,32);font-family:ArialMT;font-size:10.48px;stroke:none;">s</text>
   <text y="195.505" transform="matrix(-0.00285,-1.0,1.0,-0.00285,174.72841,565.24046)" rotateDegrees="-90.2" matrix="[-0.0299,10.4767,-10.4767,-0.0299,369.17923,586.8565]" x="369.179" svgx:width="0.56" style="fill:rgb(35,31,32);font-family:ArialMT;font-size:10.48px;stroke:none;">o</text>
   <text y="198.418" transform="matrix(-0.00285,-1.0,1.0,-0.00285,171.82445,568.17077)" rotateDegrees="-90.2" matrix="[-0.0299,10.4767,-10.4767,-0.0299,369.18753,583.944]" x="369.188" svgx:width="0.28" style="fill:rgb(35,31,32);font-family:ArialMT;font-size:10.48px;stroke:none;">t</text>
   <text y="204.243" transform="matrix(-0.00285,-1.0,1.0,-0.00285,166.01552,574.02839)" rotateDegrees="-90.2" matrix="[-0.0299,10.4767,-10.4767,-0.0299,369.20416,578.1189]" x="369.204" svgx:width="0.56" style="fill:rgb(35,31,32);font-family:ArialMT;font-size:10.48px;stroke:none;">p</text>
   <text y="210.068" transform="matrix(-0.00285,-1.0,1.0,-0.00285,160.20759,579.88702)" rotateDegrees="-90.2" matrix="[-0.0299,10.4767,-10.4767,-0.0299,369.2208,572.2938]" x="369.221" svgx:width="0.56" style="fill:rgb(35,31,32);font-family:ArialMT;font-size:10.48px;stroke:none;">o</text>
   <text y="215.893" transform="matrix(-0.00285,-1.0,1.0,-0.00285,154.39866,585.74464)" rotateDegrees="-90.2" matrix="[-0.0299,10.4767,-10.4767,-0.0299,369.23743,566.46875]" x="369.237" svgx:width="0.56" style="fill:rgb(35,31,32);font-family:ArialMT;font-size:10.48px;stroke:none;">p</text>
   <text y="221.718" transform="matrix(-0.00285,-1.0,1.0,-0.00285,148.59073,591.60327)" rotateDegrees="-90.2" matrix="[-0.0299,10.4767,-10.4767,-0.0299,369.25406,560.6437]" x="369.254" svgx:width="0.56" style="fill:rgb(35,31,32);font-family:ArialMT;font-size:10.48px;stroke:none;">a</text>
   <text y="257.778" transform="matrix(-0.00285,-1.0,1.0,-0.00285,113.09649,628.33018)" rotateDegrees="-90.2" matrix="[-0.0299,10.4767,-10.4767,-0.0299,369.81796,524.58417]" x="369.818" svgx:width="0.5" style="fill:rgb(35,31,32);font-family:ArialMT;font-size:10.48px;stroke:none;">s</text>
   <text y="260.104" transform="matrix(-0.00285,-1.0,1.0,-0.00285,110.77752,630.66982)" rotateDegrees="-90.2" matrix="[-0.0299,10.4767,-10.4767,-0.0299,369.82462,522.25836]" x="369.825" svgx:width="0.22" style="fill:rgb(35,31,32);font-family:ArialMT;font-size:10.48px;stroke:none;">i</text>
   <text y="265.342" transform="matrix(-0.00285,-1.0,1.0,-0.00285,105.55458,635.93776)" rotateDegrees="-90.2" matrix="[-0.0299,10.4767,-10.4767,-0.0299,369.83957,517.02]" x="369.84" svgx:width="0.5" style="fill:rgb(35,31,32);font-family:ArialMT;font-size:10.48px;stroke:none;">s</text>
   <text y="271.167" transform="matrix(-0.00285,-1.0,1.0,-0.00285,99.74565,641.79539)" rotateDegrees="-90.2" matrix="[-0.0299,10.4767,-10.4767,-0.0299,369.8562,511.19498]" x="369.856" svgx:width="0.56" style="fill:rgb(35,31,32);font-family:ArialMT;font-size:10.48px;stroke:none;">o</text>
   <text y="274.656" transform="matrix(-0.00285,-1.0,1.0,-0.00285,96.26669,645.30435)" rotateDegrees="-90.2" matrix="[-0.0299,10.4767,-10.4767,-0.0299,369.86615,507.70624]" x="369.866" svgx:width="0.33" style="fill:rgb(35,31,32);font-family:ArialMT;font-size:10.48px;stroke:none;">r</text>
   <text y="279.894" transform="matrix(-0.00285,-1.0,1.0,-0.00285,91.04376,650.57229)" rotateDegrees="-90.2" matrix="[-0.0299,10.4767,-10.4767,-0.0299,369.8811,502.4679]" x="369.881" svgx:width="0.5" style="fill:rgb(35,31,32);font-family:ArialMT;font-size:10.48px;stroke:none;">c</text>
   <text y="285.719" transform="matrix(-0.00285,-1.0,1.0,-0.00285,85.23583,656.43092)" rotateDegrees="-90.2" matrix="[-0.0299,10.4767,-10.4767,-0.0299,369.89774,496.64285]" x="369.898" svgx:width="0.56" style="fill:rgb(35,31,32);font-family:ArialMT;font-size:10.48px;stroke:none;">e</text>
   <text y="291.544" transform="matrix(-0.00285,-1.0,1.0,-0.00285,79.4269,662.28854)" rotateDegrees="-90.2" matrix="[-0.0299,10.4767,-10.4767,-0.0299,369.91437,490.8178]" x="369.914" svgx:width="0.56" style="fill:rgb(35,31,32);font-family:ArialMT;font-size:10.48px;stroke:none;">n</text>
   <text y="326.118" transform="matrix(-0.00285,-1.0,1.0,-0.00285,44.57425,696.68322)" rotateDegrees="-90.2" matrix="[-0.0299,10.4767,-10.4767,-0.0299,369.63586,456.24362]" x="369.636" svgx:width="0.5" style="fill:rgb(35,31,32);font-family:ArialMT;font-size:10.48px;stroke:none;">y</text>
   <text y="331.943" transform="matrix(-0.00285,-1.0,1.0,-0.00285,38.76532,702.54084)" rotateDegrees="-90.2" matrix="[-0.0299,10.4767,-10.4767,-0.0299,369.6525,450.41858]" x="369.652" svgx:width="0.56" style="fill:rgb(35,31,32);font-family:ArialMT;font-size:10.48px;stroke:none;">a</text>
   <text y="334.269" transform="matrix(-0.00285,-1.0,1.0,-0.00285,36.44635,704.88048)" rotateDegrees="-90.2" matrix="[-0.0299,10.4767,-10.4767,-0.0299,369.65915,448.09274]" x="369.659" svgx:width="0.22" style="fill:rgb(35,31,32);font-family:ArialMT;font-size:10.48px;stroke:none;">l</text>
   <text y="337.758" transform="matrix(-0.00285,-1.0,1.0,-0.00285,32.96739,708.38944)" rotateDegrees="-90.2" matrix="[-0.0299,10.4767,-10.4767,-0.0299,369.6691,444.604]" x="369.669" svgx:width="0.33" style="fill:rgb(35,31,32);font-family:ArialMT;font-size:10.48px;stroke:none;">r</text>
   <text y="343.583" transform="matrix(-0.00285,-1.0,1.0,-0.00285,27.15946,714.24806)" rotateDegrees="-90.2" matrix="[-0.0299,10.4767,-10.4767,-0.0299,369.68573,438.77896]" x="369.686" svgx:width="0.56" style="fill:rgb(35,31,32);font-family:ArialMT;font-size:10.48px;stroke:none;">e</text>
   <text y="348.821" transform="matrix(-0.00285,-1.0,1.0,-0.00285,21.93653,719.51601)" rotateDegrees="-90.2" matrix="[-0.0299,10.4767,-10.4767,-0.0299,369.70068,433.54062]" x="369.701" svgx:width="0.5" style="fill:rgb(35,31,32);font-family:ArialMT;font-size:10.48px;stroke:none;">v</text>
   <text y="354.646" transform="matrix(-0.00285,-1.0,1.0,-0.00285,16.12759,725.37363)" rotateDegrees="-90.2" matrix="[-0.0299,10.4767,-10.4767,-0.0299,369.71732,427.71558]" x="369.717" svgx:width="0.56" style="fill:rgb(35,31,32);font-family:ArialMT;font-size:10.48px;stroke:none;">o</text>
   <text y="120.994" transform="matrix(-0.00285,-1.0,1.0,-0.00285,249.50988,490.78681)" rotateDegrees="-90.2" matrix="[-0.0299,10.4767,-10.4767,-0.0299,369.4486,661.36804]" x="369.449" svgx:width="0.56" style="fill:rgb(35,31,32);font-family:ArialMT;font-size:10.48px;stroke:none;">e</text>
   <text y="123.32" transform="matrix(-0.00285,-1.0,1.0,-0.00285,247.1899,493.12544)" rotateDegrees="-90.2" matrix="[-0.0299,10.4767,-10.4767,-0.0299,369.45526,659.04224]" x="369.455" svgx:width="0.22" style="fill:rgb(35,31,32);font-family:ArialMT;font-size:10.48px;stroke:none;">l</text>
   <text y="129.145" transform="matrix(-0.00285,-1.0,1.0,-0.00285,241.38198,498.98407)" rotateDegrees="-90.2" matrix="[-0.0299,10.4767,-10.4767,-0.0299,369.4719,653.21716]" x="369.472" svgx:width="0.56" style="fill:rgb(35,31,32);font-family:ArialMT;font-size:10.48px;stroke:none;">b</text>
   <text y="134.97" transform="matrix(-0.00285,-1.0,1.0,-0.00285,235.57405,504.84269)" rotateDegrees="-90.2" matrix="[-0.0299,10.4767,-10.4767,-0.0299,369.48853,647.3921]" x="369.489" svgx:width="0.56" style="fill:rgb(35,31,32);font-family:ArialMT;font-size:10.48px;stroke:none;">a</text>
   <text y="137.296" transform="matrix(-0.00285,-1.0,1.0,-0.00285,233.25408,507.18133)" rotateDegrees="-90.2" matrix="[-0.0299,10.4767,-10.4767,-0.0299,369.49518,645.0663]" x="369.495" svgx:width="0.22" style="fill:rgb(35,31,32);font-family:ArialMT;font-size:10.48px;stroke:none;">i</text>
   <text y="142.534" transform="matrix(-0.00285,-1.0,1.0,-0.00285,228.03114,512.44928)" rotateDegrees="-90.2" matrix="[-0.0299,10.4767,-10.4767,-0.0299,369.51013,639.82794]" x="369.51" svgx:width="0.5" style="fill:rgb(35,31,32);font-family:ArialMT;font-size:10.48px;stroke:none;">v</text>
   <text y="86.039" x="279.306,285.131,288.044,293.869,299.73780000000005,308.347,314.172,317.085" svgx:width="0.56,0.28,0.56,0.56,0.55,0.56,0.28,0.83" style="fill:rgb(35,31,32);font-family:ArialMT;font-size:10.48px;stroke:none;">0.86 g/m</text>
  </g>
  <path style="fill:rgb(35,31,32);stroke:none;stroke-width:0.3;" d="M307.170 81.350 L307.170 84.430 C307.170 84.840 307.190 85.130 307.220 85.290 C307.250 85.410 307.300 85.500 307.350 85.550 C307.420 85.590 307.480 85.620 307.550 85.620 C307.640 85.620 307.720 85.580 307.790 85.500 C307.870 85.400 307.920 85.230 307.950 84.980 L308.160 84.980 C308.100 85.440 307.990 85.760 307.830 85.930 C307.660 86.110 307.450 86.200 307.190 86.200 C306.930 86.200 306.740 86.120 306.590 85.970 C306.440 85.810 306.350 85.540 306.320 85.160 C305.970 85.550 305.640 85.820 305.330 85.970 C305.020 86.120 304.750 86.200 304.530 86.200 C304.370 86.200 304.220 86.170 304.080 86.110 C303.930 86.050 303.780 85.960 303.650 85.840 C303.640 86.340 303.680 86.770 303.770 87.140 C303.850 87.410 303.880 87.590 303.880 87.690 C303.880 87.880 303.820 88.030 303.740 88.130 C303.650 88.250 303.530 88.300 303.420 88.300 C303.290 88.300 303.200 88.260 303.110 88.150 C303.010 88.030 302.960 87.870 302.960 87.670 C302.960 87.580 302.980 87.450 303.020 87.320 C303.110 86.990 303.160 86.710 303.190 86.480 C303.230 86.060 303.250 85.710 303.250 85.430 L303.250 81.350 L304.110 81.350 L304.110 84.300 C304.110 84.650 304.140 84.900 304.190 85.040 C304.250 85.200 304.360 85.330 304.510 85.410 C304.650 85.510 304.810 85.550 304.960 85.550 C305.130 85.550 305.340 85.500 305.580 85.390 C305.830 85.290 306.070 85.110 306.320 84.880 L306.320 81.350 Z"/>
  <g begin="text">
   <text y="86.039" x="325.818" svgx:width="0.56" style="fill:rgb(35,31,32);font-family:ArialMT;font-size:10.48px;stroke:none;">L</text>
   <text y="86.028" x="190.197,195.435,201.26,207.086,209.998,213.487,219.312" svgx:width="0.5,0.56,0.56,0.28,0.33,0.56,0.22" style="fill:rgb(35,31,32);font-family:ArialMT;font-size:10.48px;stroke:none;">control</text>
  </g>
  <g begin="text">
   <text y="56.824" x="209.157,217.143,220.472,223.801,227.788,232.445,239.761,247.077,250.406,257.721,264.379,269.036,276.352,283.009,286.338,292.995,299.653,302.981,306.31" svgx:width="0.67,0.28,0.28,0.33,0.39,0.61,0.61,0.28,0.61,0.56,0.39,0.61,0.56,0.28,0.56,0.56,0.28,0.28,0.56" style="fill:rgb(35,31,32);font-family:Arial-BoldItalicMT;font-size:11.97px;stroke:none;">S. frugiperda cells</text>
  </g>
  <g begin="text">
   <text y="70.001" x="216.823,220.81,224.139,232.125,239.441,248.086,252.073,260.059,267.375,271.362,278.02,284.677,293.322" svgx:width="0.33,0.28,0.67,0.61,0.72,0.33,0.67,0.61,0.33,0.56,0.56,0.72,0.67" style="fill:rgb(35,31,32);font-family:Arial-BoldItalicMT;font-size:11.97px;stroke:none;">(IPLB-SF-21AE</text>
   <text y="70.001" x="301.308" svgx:width="0.33" style="fill:rgb(35,31,32);font-family:Arial-ItalicMT;font-size:11.97px;stroke:none;">)</text>
  </g>
  <g begin="text">
   <text y="56.773" x="409.548,418.193,421.521,424.85,432.166,438.823,449.468,460.112,466.769,470.756,477.414,480.742,484.071,490.728,494.057,500.714,507.371,510.7,514.029" svgx:width="0.72,0.28,0.28,0.61,0.56,0.89,0.89,0.56,0.33,0.56,0.28,0.28,0.56,0.28,0.56,0.56,0.28,0.28,0.56" style="fill:rgb(35,31,32);font-family:Arial-BoldItalicMT;font-size:11.97px;stroke:none;">A. gemmatalis cells</text>
  </g>
  <g begin="text">
   <text y="69.949" x="426.539,430.526,439.171,446.487,453.803,457.79,466.435,475.75,479.737,486.395,493.052" svgx:width="0.33,0.72,0.61,0.61,0.33,0.72,0.78,0.33,0.56,0.56,0.56" style="fill:rgb(35,31,32);font-family:Arial-BoldItalicMT;font-size:11.97px;stroke:none;">(UFL-AG-286</text>
   <text y="69.949" x="499.709" svgx:width="0.33" style="fill:rgb(35,31,32);font-family:Arial-ItalicMT;font-size:11.97px;stroke:none;">)</text>
   <text y="85.802" x="485.681,491.506,494.419,500.244,506.11280000000005,514.722,520.547,523.46" svgx:width="0.56,0.28,0.56,0.56,0.55,0.56,0.28,0.83" style="fill:rgb(35,31,32);font-family:ArialMT;font-size:10.48px;stroke:none;">0.86 g/m</text>
  </g>
  <path style="fill:rgb(35,31,32);stroke:none;stroke-width:0.3;" d="M513.540 81.110 L513.540 84.190 C513.540 84.600 513.560 84.890 513.590 85.050 C513.620 85.170 513.680 85.260 513.730 85.310 C513.790 85.350 513.850 85.380 513.930 85.380 C514.010 85.380 514.100 85.340 514.170 85.260 C514.240 85.160 514.290 85.000 514.330 84.750 L514.540 84.750 C514.470 85.210 514.370 85.520 514.200 85.700 C514.030 85.880 513.820 85.960 513.560 85.960 C513.310 85.960 513.110 85.890 512.960 85.730 C512.820 85.570 512.720 85.300 512.690 84.920 C512.350 85.310 512.010 85.580 511.710 85.730 C511.390 85.890 511.120 85.960 510.900 85.960 C510.740 85.960 510.600 85.930 510.450 85.880 C510.300 85.810 510.160 85.720 510.020 85.600 C510.010 86.110 510.050 86.540 510.150 86.900 C510.220 87.170 510.250 87.350 510.250 87.460 C510.250 87.650 510.200 87.790 510.120 87.900 C510.020 88.010 509.910 88.060 509.790 88.060 C509.670 88.060 509.570 88.020 509.490 87.920 C509.380 87.790 509.330 87.630 509.330 87.440 C509.330 87.340 509.350 87.220 509.390 87.080 C509.490 86.760 509.540 86.470 509.560 86.240 C509.600 85.820 509.620 85.480 509.620 85.200 L509.620 81.110 L510.480 81.110 L510.480 84.060 C510.480 84.410 510.510 84.660 510.570 84.810 C510.630 84.970 510.730 85.090 510.880 85.170 C511.030 85.270 511.180 85.310 511.330 85.310 C511.510 85.310 511.720 85.260 511.960 85.150 C512.200 85.050 512.440 84.870 512.690 84.640 L512.690 81.110 Z"/>
  <g begin="text">
   <text y="85.802" x="532.193" svgx:width="0.56" style="fill:rgb(35,31,32);font-family:ArialMT;font-size:10.48px;stroke:none;">L</text>
   <text y="85.791" x="397.211,402.45,408.275,414.1,417.012,420.501,426.326" svgx:width="0.5,0.56,0.56,0.28,0.33,0.56,0.22" style="fill:rgb(35,31,32);font-family:ArialMT;font-size:10.48px;stroke:none;">control</text>
  </g>
  <path style="fill:none;stroke:rgb(131,144,151);stroke-width:0.3;" d="M159.130 421.050 L552.640 421.050 "/>
  <path style="fill:none;stroke:rgb(131,144,151);stroke-width:1.0;" d="M156.140 421.050 L156.140 421.050 M554.140 421.050 L554.140 421.050 "/>
  <g begin="text">
   <text y="391.045" x="155.638,160.552,163.207,167.662,172.657,176.221,180.154,181.909,186.409" svgx:width="0.55,0.29,0.49,0.56,0.4,0.44,0.22,0.5,0.25" style="fill:rgb(0,0,0);font-family:MinionPro-Bold;font-size:9.0px;stroke:none;">Figure 3.</text>
   <text y="391.045" x="188.695,190.765,193.195,199.081,203.212,205.903,210.394,215.155,218.935,221.734,226.54,228.952,232.759,234.595,238.42,243.388,247.258,251.128,253.873,257.176,259.012,263.495,266.159,267.995,270.794,275.564,279.389,281.225,285.05,288.308,291.683,295.508,300.259,303.049,305.488,309.484,311.761,313.597,318.079,320.536,322.813,324.649,329.131,331.795" svgx:width="0.23,0.55,0.67,0.46,0.31,0.51,0.52,0.44,0.31,0.53,0.27,0.42,0.23,0.43,0.56,0.43,0.42,0.31,0.37,0.23,0.51,0.3,0.23,0.31,0.53,0.43,0.23,0.43,0.37,0.37,0.43,0.55,0.31,0.27,0.44,0.25,0.23,0.51,0.27,0.25,0.23,0.51,0.3,0.23" style="fill:rgb(0,0,0);font-family:MinionPro-Regular;font-size:9.0px;stroke:none;"> Cytopathic effects of the essential oil of </text>
   <text y="391.045" x="333.631,337.726,340.093,344.431,348.697,352.072,356.752,361.477,365.887,367.741,371.575,376.255,378.676,382.942,387.667,391.267,396.055,398.998,401.491" svgx:width="0.47,0.27,0.49,0.49,0.37,0.53,0.53,0.49,0.23,0.42,0.53,0.27,0.49,0.53,0.4,0.53,0.34,0.27,0.34" style="fill:rgb(0,0,0);font-family:MinionPro-It;font-size:9.0px;stroke:none;">Siparuna guianensis</text>
   <text y="391.045" x="404.542,406.378,409.492,413.812,415.864,420.184,424.504,425.629,432.928,437.14,440.119,447.49,452.332,455.446,457.282,461.764,466.687,468.523,471.322,476.092,479.917,481.753,485.947,488.385,492.264,496.728,499.185,501.462,503.766,506.538,510.669" svgx:width="0.23,0.35,0.48,0.23,0.48,0.48,0.23,0.82,0.47,0.33,0.82,0.54,0.35,0.23,0.51,0.55,0.23,0.31,0.53,0.43,0.23,0.46,0.27,0.44,0.51,0.27,0.25,0.27,0.31,0.46,0.23" style="fill:rgb(0,0,0);font-family:MinionPro-Regular;font-size:9.0px;stroke:none;"> (0.86 mg/mL) on the viability </text>
   <text y="401.044" x="155.638,160.12,162.784,164.62,166.897,170.722,175.329,177.741,182.493,186.984,191.601,194.292,198.117,201.456,205.326,210.249,212.085,215.955,220.779,222.948,225.603,230.382,233.604,237.473,242.225,244.061,247.868,251.657,253.979,256.229,259.532,261.368,264.122,267.344,271.826,279.197" svgx:width="0.51,0.3,0.23,0.25,0.43,0.52,0.27,0.53,0.51,0.52,0.31,0.43,0.37,0.44,0.55,0.23,0.42,0.53,0.25,0.31,0.53,0.37,0.43,0.53,0.23,0.42,0.43,0.25,0.25,0.37,0.23,0.3,0.37,0.51,0.82,0.23" style="fill:rgb(0,0,0);font-family:MinionPro-Regular;font-size:9.0px;stroke:none;">of lepidopteran cultured cells from </text>
   <text y="401.044" x="281.033,285.119,289.457,293.651,298.187,302.336,306.602,309.275,312.875,315.997,320.407,322.261,324.772,328.147,332.854,336.688,339.055,343.393,346.993,350.116,354.652" svgx:width="0.47,0.49,0.47,0.51,0.47,0.49,0.31,0.4,0.37,0.49,0.23,0.27,0.37,0.53,0.42,0.27,0.49,0.4,0.37,0.51,0.49" style="fill:rgb(0,0,0);font-family:MinionPro-It;font-size:9.0px;stroke:none;">Spodoptera frugiperda</text>
   <text y="401.044" x="359.074,360.91,364.024,367.093,372.115,376.957,382.249,385.453,389.611,394.192,397.396,401.716,406.036,412.255,417.367,420.481,422.317,426.187,431.074,435.826" svgx:width="0.23,0.35,0.34,0.56,0.54,0.59,0.36,0.47,0.53,0.36,0.48,0.48,0.69,0.57,0.35,0.23,0.44,0.55,0.53,0.23" style="fill:rgb(0,0,0);font-family:MinionPro-Regular;font-size:9.0px;stroke:none;"> (IPLB-SF-21AE) and </text>
   <text y="401.044" x="437.662,443.368,447.958,450.64,453.061,456.436,460.702,463.96,466.903,469.324,473.733,475.587,479.367,482.967,489.897,496.917,501.129,503.802,508.113,510.237,512.73" svgx:width="0.66,0.53,0.31,0.27,0.38,0.49,0.37,0.34,0.27,0.49,0.23,0.42,0.4,0.79,0.79,0.49,0.31,0.49,0.25,0.27,0.34" style="fill:rgb(0,0,0);font-family:MinionPro-It;font-size:9.0px;stroke:none;">Anticarsia gemmatalis</text>
   <text y="401.044" x="515.773" svgx:width="0.23" style="fill:rgb(0,0,0);font-family:MinionPro-Regular;font-size:9.0px;stroke:none;"> </text>
   <text y="411.043" x="155.638,158.752,165.376,170.137,174.898,178.102,184.069,190.504,193.708,198.028,202.348,206.668,209.782,211.618,215.812,218.197,221.455,226.261,230.257,232.534,234.946,238.726,242.595,247.347,249.183,253.962,258.849,263.601,267.426,270.765,272.601,277.291,282.07,286.551,289.773,293.598,296.973,300.78,304.605,309.492,313.299,317.124,318.96,326.331,328.743,332.55,335.771,340.361,343.736,347.543,352.034,356.606,360.08" svgx:width="0.35,0.74,0.53,0.54,0.36,0.69,0.71,0.36,0.48,0.48,0.48,0.35,0.23,0.46,0.27,0.37,0.53,0.44,0.25,0.27,0.42,0.43,0.53,0.23,0.53,0.55,0.53,0.43,0.37,0.23,0.53,0.53,0.51,0.37,0.43,0.37,0.42,0.43,0.55,0.42,0.43,0.23,0.82,0.27,0.42,0.37,0.51,0.37,0.42,0.51,0.52,0.46,0.23" style="fill:rgb(0,0,0);font-family:MinionPro-Regular;font-size:9.0px;stroke:none;">(UFL-AG-286) visualized under fluorescence microscopy.</text>
  </g>
  <path style="fill:none;stroke:rgb(88,89,91);stroke-width:0.25;" d="M502.040 554.370 L502.040 552.970 "/>
  <path style="fill:none;stroke:rgb(35,31,32);stroke-width:0.62;" d="M418.580 552.770 L418.580 551.360 "/>
  <path style="fill:none;stroke:rgb(128,130,133);stroke-width:0.43;" d="M474.080 553.260 L474.080 551.850 "/>
  <path style="fill:none;stroke:rgb(188,189,192);stroke-width:0.62;" d="M446.360 557.960 L446.360 552.390 "/>
  <path style="fill:none;stroke:rgb(35,31,32);stroke-width:0.61;" d="M188.130 585.400 L334.660 585.400 "/>
  <path style="fill:none;stroke:rgb(35,31,32);stroke-width:0.74;" d="M398.040 585.370 L551.640 585.370 "/>
  <path style="fill:none;stroke:rgb(35,31,32);stroke-width:0.79;" d="M210.640 587.260 L210.640 585.620 M251.230 586.880 L251.230 585.230 M295.490 587.260 L295.490 585.620 M334.910 587.260 L334.910 585.620 "/>
  <path style="fill:none;stroke:rgb(35,31,32);stroke-width:0.72;" d="M188.130 585.400 L188.130 457.550 "/>
  <path style="fill:none;stroke:rgb(35,31,32);stroke-width:0.75;" d="M398.030 585.350 L398.030 459.360 "/>
  <path style="fill:none;stroke:rgb(35,31,32);stroke-width:0.78;" d="M186.210 573.710 L188.130 573.710 "/>
  <path style="fill:none;stroke:rgb(35,31,32);stroke-width:0.72;" d="M395.960 585.350 L398.030 585.350 "/>
  <path style="fill:none;stroke:rgb(35,31,32);stroke-width:0.7;" d="M186.210 544.820 L188.130 544.820 "/>
  <path style="fill:none;stroke:rgb(35,31,32);stroke-width:0.72;" d="M395.960 553.840 L398.030 553.840 "/>
  <path style="fill:none;stroke:rgb(35,31,32);stroke-width:0.7;" d="M186.210 515.750 L188.130 515.750 "/>
  <path style="fill:none;stroke:rgb(35,31,32);stroke-width:0.72;" d="M395.960 522.370 L398.030 522.370 "/>
  <path style="fill:none;stroke:rgb(35,31,32);stroke-width:0.7;" d="M186.210 486.650 L188.130 486.650 "/>
  <path style="fill:none;stroke:rgb(35,31,32);stroke-width:0.72;" d="M395.960 490.860 L398.030 490.860 "/>
  <g begin="text">
   <text y="577.165" x="179.106" svgx:width="0.56" style="fill:rgb(35,31,32);font-family:ArialMT;font-size:7.64px;stroke:none;">0</text>
   <text y="588.543" x="388.596" svgx:width="0.56" style="fill:rgb(35,31,32);font-family:ArialMT;font-size:7.64px;stroke:none;">0</text>
   <text y="548.067" x="174.482,179.435" svgx:width="0.56,0.56" style="fill:rgb(35,31,32);font-family:ArialMT;font-size:7.64px;stroke:none;">25</text>
   <text y="557.038" x="383.598,388.551" svgx:width="0.56,0.56" style="fill:rgb(35,31,32);font-family:ArialMT;font-size:7.64px;stroke:none;">25</text>
   <text y="518.992" x="174.482,179.435" svgx:width="0.56,0.56" style="fill:rgb(35,31,32);font-family:ArialMT;font-size:7.64px;stroke:none;">50</text>
   <text y="525.563" x="383.598,388.551" svgx:width="0.56,0.56" style="fill:rgb(35,31,32);font-family:ArialMT;font-size:7.64px;stroke:none;">50</text>
   <text y="490.046" x="174.741,179.694" svgx:width="0.56,0.56" style="fill:rgb(35,31,32);font-family:ArialMT;font-size:7.64px;stroke:none;">75</text>
   <text y="494.226" x="383.874,388.827" svgx:width="0.56,0.56" style="fill:rgb(35,31,32);font-family:ArialMT;font-size:7.64px;stroke:none;">75</text>
   <text y="460.727" x="169.886,174.839,179.792" svgx:width="0.56,0.56,0.56" style="fill:rgb(35,31,32);font-family:ArialMT;font-size:7.64px;stroke:none;">100</text>
   <text y="462.484" x="378.618,383.571,388.525" svgx:width="0.56,0.56,0.56" style="fill:rgb(35,31,32);font-family:ArialMT;font-size:7.64px;stroke:none;">100</text>
  </g>
  <path style="fill:none;stroke:rgb(35,31,32);stroke-width:0.7;" d="M186.210 457.550 L188.130 457.550 "/>
  <path style="fill:none;stroke:rgb(35,31,32);stroke-width:0.72;" d="M395.960 459.360 L398.030 459.360 "/>
  <path style="fill:none;stroke:rgb(43,79,162);stroke-width:0.7;" d="M217.230 566.800 L217.770 566.670 L218.040 566.600 C224.420 565.040 229.820 562.650 234.420 558.450 L234.690 558.190 L234.960 557.930 C244.380 548.700 248.370 533.000 251.620 521.430 L251.890 520.420 L252.150 519.360 L252.420 518.280 L252.690 517.230 L253.000 516.150 C255.500 506.050 257.720 495.880 260.620 485.860 L260.880 484.940 L261.190 484.060 C262.710 479.200 264.890 472.400 268.810 468.520 L269.080 468.260 L269.350 467.990 L269.650 467.800 C273.490 464.340 281.110 465.070 286.270 464.900 L287.110 464.900 M213.320 566.760 L213.590 566.700 C214.600 566.530 215.680 566.230 216.660 565.980 L216.770 565.940 M218.460 565.450 L218.570 565.420 C219.570 565.130 220.680 564.760 221.630 564.360 L221.900 564.270 M223.590 563.540 L223.820 563.450 C224.880 562.980 225.890 562.440 226.880 561.870 L227.030 561.770 M228.720 560.650 L228.790 560.620 C229.820 559.960 230.980 559.030 231.860 558.220 L232.130 557.990 M233.580 556.550 L233.810 556.320 C234.560 555.480 235.310 554.600 235.990 553.720 L236.110 553.590 M237.140 552.150 L237.370 551.790 C237.930 551.130 238.270 550.310 238.790 549.620 L239.060 549.190 M239.860 547.740 L239.900 547.680 C240.390 546.780 240.770 545.840 241.280 544.950 L241.350 544.790 M242.000 543.340 L242.080 543.150 L242.390 542.520 L242.660 541.900 L242.920 541.240 L243.190 540.550 L243.270 540.390 M243.880 538.940 L244.030 538.450 L244.300 537.730 L244.570 536.970 L244.880 536.220 L244.990 535.990 M245.450 534.540 L245.680 533.820 L245.990 533.000 L246.250 532.140 L246.450 531.590 M246.910 530.140 L247.060 529.520 L247.370 528.600 L247.630 527.680 L247.790 527.180 M248.210 525.740 L248.480 524.780 L248.740 523.800 L249.010 522.810 L249.050 522.780 M249.430 521.340 L249.550 520.810 L249.850 519.760 L250.120 518.710 L250.240 518.380 M250.580 516.930 L250.660 516.570 L250.970 515.490 L251.230 514.410 L251.350 513.980 M251.690 512.530 L251.770 512.210 L252.040 511.090 L252.340 509.970 L252.460 509.580 M252.800 508.130 L252.880 507.710 L253.150 506.590 L253.450 505.440 L253.530 505.180 M253.880 503.730 L253.990 503.200 L254.260 502.060 L254.570 500.940 L254.640 500.780 M254.990 499.330 L255.100 498.710 L255.370 497.620 L255.640 496.510 L255.680 496.370 M256.100 494.930 L256.210 494.370 L256.480 493.290 L256.750 492.230 L256.860 491.970 M257.250 490.530 L257.320 490.200 L257.590 489.180 L257.860 488.190 L258.050 487.570 M258.510 486.130 L258.700 485.370 L258.970 484.450 L259.240 483.560 L259.390 483.170 M259.890 481.720 L260.080 481.070 L260.350 480.280 L260.650 479.490 L260.920 478.770 M261.500 477.320 L261.730 476.670 L262.030 476.040 L262.300 475.420 L262.570 474.830 L262.800 474.370 M263.560 472.920 L263.680 472.660 C264.120 471.780 264.770 470.930 265.330 470.100 L265.440 469.970 M266.700 468.520 L267.010 468.260 C267.840 467.410 268.930 466.770 270.030 466.220 L270.110 466.190 M271.800 465.600 L271.990 465.560 C272.980 465.280 273.980 465.130 275.010 465.040 L275.240 465.010 M276.930 464.870 L276.970 464.870 C278.080 464.820 279.180 464.800 280.300 464.780 L280.370 464.780 M220.710 566.730 L220.980 566.670 C221.980 566.430 223.000 566.130 223.970 565.810 L224.160 565.750 M225.850 565.160 L225.880 565.160 C227.010 564.770 228.100 564.310 229.140 563.780 L229.290 563.710 M230.980 562.820 L231.050 562.790 C232.270 562.150 233.240 561.460 234.310 560.660 L234.420 560.560 M236.110 559.210 L236.220 559.110 C237.270 558.200 238.040 557.370 238.940 556.350 L239.060 556.250 M240.240 554.810 L240.320 554.680 C240.970 553.810 241.640 552.880 242.230 551.980 L242.350 551.850 M243.190 550.410 L243.310 550.210 C243.740 549.360 244.260 548.550 244.690 547.710 L244.840 547.450 M245.530 546.010 L245.760 545.480 L246.030 544.890 L246.290 544.300 L246.560 543.670 L246.830 543.050 M247.440 541.610 L247.670 541.010 L247.940 540.320 L248.210 539.600 L248.480 538.880 L248.590 538.650 M249.090 537.200 L249.280 536.580 L249.590 535.790 L249.860 535.000 L250.120 534.250 M250.580 532.800 L250.660 532.440 L250.930 531.590 L251.200 530.670 L251.460 529.850 M251.890 528.400 L252.040 527.910 L252.310 526.920 L252.570 525.970 L252.730 525.440 M253.110 524.000 L253.110 523.970 L253.380 522.950 L253.650 521.900 L253.910 521.040 M254.260 519.600 L254.490 518.780 L254.760 517.690 L255.020 516.640 M255.370 515.200 L255.560 514.380 L255.830 513.260 L256.100 512.240 M256.440 510.800 L256.630 509.880 L256.940 508.730 L257.170 507.840 M257.510 506.390 L257.740 505.310 L258.010 504.160 L258.200 503.440 M258.550 501.990 L258.550 501.890 L258.820 500.740 L259.080 499.630 L259.270 499.040 M259.620 497.590 L259.660 497.390 L259.930 496.280 L260.190 495.190 L260.350 494.640 M260.730 493.190 L260.730 493.060 L261.000 492.010 L261.270 490.960 L261.460 490.230 M261.880 488.790 L262.110 487.970 L262.380 487.020 L262.650 486.060 L262.720 485.830 M263.140 484.390 L263.180 484.260 L263.450 483.370 L263.720 482.520 L263.990 481.690 L264.100 481.430 M264.640 479.990 L264.830 479.360 L265.100 478.640 L265.360 477.920 L265.630 477.230 L265.750 477.030 M266.360 475.590 L266.440 475.360 C266.830 474.470 267.360 473.530 267.820 472.660 L267.850 472.630 M268.730 471.180 L268.890 470.950 C269.480 470.110 270.300 469.160 271.070 468.420 L271.300 468.230 M272.980 467.080 L273.250 466.910 C274.180 466.410 275.180 466.060 276.240 465.830 L276.430 465.760 M278.120 465.500 L278.150 465.500 C279.290 465.340 280.260 465.240 281.410 465.240 L281.560 465.210 "/>
  <path style="fill:none;stroke:rgb(237,28,36);stroke-width:0.54;" d="M211.760 562.430 L212.290 562.400 L212.870 562.360 C233.190 561.070 256.200 559.640 269.540 544.460 L270.110 543.840 L270.650 543.210 L271.220 542.520 C285.040 525.050 289.160 501.400 298.410 482.020 L298.950 480.940 L299.520 479.850 C306.450 467.000 312.460 467.840 326.750 467.730 L328.390 467.730 M203.790 562.200 L204.360 562.160 C205.330 562.120 206.230 562.110 207.200 562.030 L207.240 562.000 M208.920 561.900 L209.460 561.900 C210.400 561.850 211.350 561.790 212.290 561.740 L212.370 561.700 M214.050 561.610 L214.590 561.610 C215.490 561.500 216.490 561.460 217.420 561.380 L217.500 561.340 M219.180 561.210 L219.680 561.180 C220.630 561.120 221.570 561.000 222.510 560.920 L222.630 560.880 M224.310 560.690 L224.770 560.690 C225.730 560.570 226.630 560.410 227.610 560.330 L227.760 560.290 M229.450 560.060 L229.870 560.030 C230.830 559.840 231.740 559.770 232.700 559.570 L232.890 559.540 M234.580 559.240 L235.000 559.180 C235.940 558.990 236.890 558.810 237.830 558.580 L238.020 558.520 M239.710 558.160 L240.090 558.090 C241.030 557.820 241.990 557.610 242.920 557.340 L243.150 557.270 M244.840 556.740 L245.180 556.650 C246.140 556.330 247.060 555.980 248.020 555.660 L248.280 555.530 M249.970 554.840 L250.280 554.740 C251.190 554.300 252.260 553.890 253.110 553.390 L253.420 553.230 M255.100 552.340 L255.410 552.180 C256.350 551.590 257.340 551.000 258.240 550.370 L258.550 550.140 M260.230 548.900 L260.500 548.700 C261.490 547.920 262.420 547.080 263.330 546.230 L263.600 546.000 M265.020 544.560 L265.020 544.530 L265.590 543.940 L266.170 543.280 L266.740 542.620 L267.280 541.960 L267.580 541.600 M268.730 540.160 L269.000 539.800 L269.580 539.010 L270.150 538.190 L270.690 537.370 L270.800 537.200 M271.760 535.760 L271.830 535.630 L272.410 534.670 L272.980 533.720 L273.520 532.800 M274.320 531.360 L274.670 530.700 L275.240 529.610 L275.820 528.500 L275.890 528.400 M276.540 526.950 L276.930 526.170 L277.500 524.950 L277.960 524.000 M278.610 522.550 L278.650 522.420 L279.190 521.170 L279.760 519.830 L279.870 519.600 M280.490 518.150 L280.910 517.070 L281.480 515.620 L281.680 515.200 M282.210 513.750 L282.590 512.700 L283.170 511.220 L283.360 510.790 M283.900 509.350 L284.320 508.200 L284.850 506.660 L284.970 506.390 M285.500 504.950 L286.000 503.530 L286.580 501.990 M287.110 500.550 L287.150 500.420 L287.610 498.870 L288.110 497.590 M288.640 496.140 L288.760 495.820 L289.330 494.310 L289.790 493.190 M290.330 491.740 L290.480 491.350 L291.020 489.940 L291.510 488.790 M292.130 487.340 L292.160 487.180 L292.780 485.860 L293.310 484.580 L293.430 484.390 M294.080 482.940 L294.420 482.190 L295.000 481.040 L295.610 479.980 M296.380 478.540 L296.680 477.980 L297.260 477.060 L297.830 476.210 L298.290 475.580 M299.400 474.140 L299.520 473.970 C300.470 472.890 301.240 472.170 302.390 471.250 L302.470 471.210 M304.150 470.130 L304.690 469.870 C305.600 469.380 306.500 469.070 307.520 468.780 L307.600 468.750 M309.280 468.360 L309.780 468.290 C310.720 468.170 311.660 468.040 312.610 468.000 L312.730 467.960 M314.410 467.860 L314.870 467.860 C315.820 467.800 316.760 467.830 317.710 467.770 L317.860 467.770 M218.840 562.590 L220.520 562.500 L222.170 562.360 L222.280 562.330 M223.970 562.230 L225.500 562.140 L227.180 562.000 L227.410 561.970 M229.100 561.810 L230.510 561.680 L232.160 561.510 L232.540 561.450 M234.230 561.250 L235.490 561.120 L237.180 560.920 L237.670 560.820 M239.360 560.560 L240.470 560.390 L242.150 560.130 L242.810 560.000 M244.490 559.640 L245.490 559.470 L247.130 559.110 L247.940 558.920 M249.620 558.490 L252.150 557.800 L253.070 557.470 M254.750 556.910 L255.480 556.680 L257.130 556.020 L258.200 555.560 M259.880 554.810 L260.460 554.550 L262.140 553.690 L263.330 553.000 M265.010 551.950 L265.470 551.690 L267.120 550.540 L268.460 549.490 M270.150 548.080 L270.450 547.780 L272.140 546.170 L273.130 545.120 M274.400 543.670 L275.430 542.430 L276.730 540.720 M277.770 539.270 L278.760 537.760 L279.680 536.320 M280.560 534.870 L282.090 532.080 L282.210 531.910 M282.930 530.470 L283.780 528.790 L284.390 527.510 M285.040 526.070 L285.420 525.210 L286.340 523.110 M286.990 521.670 L287.110 521.340 L288.100 518.710 M288.680 517.270 L288.680 517.230 L289.830 514.310 M290.360 512.860 L291.440 509.910 M291.970 508.460 L292.010 508.300 L293.040 505.510 M293.540 504.060 L293.700 503.630 L294.610 501.110 M295.110 499.660 L295.340 498.940 L296.180 496.700 M296.720 495.260 L297.030 494.340 L297.830 492.300 M298.370 490.860 L298.670 489.970 L299.550 487.900 M300.130 486.460 L300.360 485.900 L301.470 483.500 M302.120 482.050 L303.650 479.100 M304.530 477.650 L305.340 476.270 L306.560 474.700 M307.790 473.250 L308.670 472.270 L310.390 470.950 L311.000 470.560 M312.690 469.600 L313.680 469.180 L315.370 468.680 L316.130 468.520 M317.820 468.230 L318.700 468.130 L320.350 468.000 L321.260 467.930 "/>
  <g begin="text">
   <text y="599.13" x="202.847,207.8" svgx:width="0.56,0.56" style="fill:rgb(35,31,32);font-family:ArialMT;font-size:7.64px;stroke:none;">10</text>
   <text y="593.781" x="212.756,214.832" svgx:width="0.33,0.56" style="fill:rgb(35,31,32);font-family:ArialMT;font-size:5.35px;stroke:none;">-3</text>
   <text y="599.18" x="243.329,248.282" svgx:width="0.56,0.56" style="fill:rgb(35,31,32);font-family:ArialMT;font-size:7.64px;stroke:none;">10</text>
   <text y="593.831" x="253.238,255.315" svgx:width="0.33,0.56" style="fill:rgb(35,31,32);font-family:ArialMT;font-size:5.35px;stroke:none;">-2</text>
   <text y="599.136" x="284.243,289.196" svgx:width="0.56,0.56" style="fill:rgb(35,31,32);font-family:ArialMT;font-size:7.64px;stroke:none;">10</text>
   <text y="593.787" x="294.152,296.229" svgx:width="0.33,0.56" style="fill:rgb(35,31,32);font-family:ArialMT;font-size:5.35px;stroke:none;">-1</text>
   <text y="599.786" x="323.016,327.969" svgx:width="0.56,0.56" style="fill:rgb(35,31,32);font-family:ArialMT;font-size:7.64px;stroke:none;">10</text>
   <text y="594.437" x="332.925" svgx:width="0.56" style="fill:rgb(35,31,32);font-family:ArialMT;font-size:5.35px;stroke:none;">0</text>
   <text y="460.98" x="191.493,196.841,199.07,201.299,203.969,207.088,211.986,216.885,219.114,224.012,228.47,231.589,236.488" svgx:width="0.67,0.28,0.28,0.33,0.39,0.61,0.61,0.28,0.61,0.56,0.39,0.61,0.56" style="fill:rgb(43,79,162);font-family:Arial-BoldItalicMT;font-size:6.88px;stroke:none;">S. frugiperda</text>
   <text y="460.98" x="243.166,247.624,252.082,254.311,256.539" svgx:width="0.56,0.56,0.28,0.28,0.56" style="fill:rgb(43,79,162);font-family:Arial-BoldMT;font-size:6.88px;stroke:none;">cells</text>
   <text y="467.625" x="191.493,237.533,193.718,195.576,200.032,203.747,208.203,210.428,214.884,218.966,221.191,224.906,228.62,233.077" svgx:width="0.33,0.33,0.28,0.67,0.56,0.67,0.33,0.67,0.61,0.33,0.56,0.56,0.67,0.67" style="fill:rgb(43,79,162);font-family:Arial-ItalicMT;font-size:5.73px;stroke:none;">()IPLB-SF-21AE</text>
  </g>
  <path style="fill:rgb(43,79,162);stroke:none;stroke-width:0.55;" d="M195.280 474.060 L193.820 476.510 L194.070 477.360 C194.170 477.710 194.270 477.930 194.370 478.020 C194.480 478.110 194.620 478.150 194.780 478.150 C194.980 478.150 195.140 478.100 195.250 478.010 C195.370 477.910 195.430 477.750 195.460 477.540 L195.600 477.540 L195.600 477.670 C195.600 477.950 195.500 478.200 195.300 478.410 C195.170 478.560 195.000 478.630 194.790 478.630 C194.650 478.630 194.520 478.590 194.400 478.530 C194.290 478.460 194.190 478.370 194.120 478.230 C194.010 478.020 193.930 477.840 193.880 477.700 L193.640 476.820 L192.590 478.560 L191.910 478.560 L193.410 476.030 L193.110 475.040 C193.060 474.820 192.980 474.670 192.890 474.610 C192.810 474.540 192.680 474.510 192.520 474.510 C192.350 474.510 192.210 474.550 192.100 474.650 C191.990 474.740 191.930 474.890 191.910 475.100 L191.770 475.100 C191.780 474.710 191.870 474.420 192.040 474.220 C192.170 474.070 192.340 474.000 192.540 474.000 C192.750 474.000 192.910 474.070 193.030 474.200 C193.150 474.320 193.240 474.490 193.290 474.710 L193.600 475.730 L194.580 474.060 Z"/>
  <g begin="text">
   <text y="473.32" x="195.894" svgx:width="0.56" style="fill:rgb(43,79,162);font-family:ArialMT;font-size:3.82px;stroke:none;">2</text>
   <text y="478.975" x="198.371,200.151,203.123,207.58,204.609" svgx:width="0.33,0.56,0.28,0.33,0.56" style="fill:rgb(43,79,162);font-family:ArialMT;font-size:4.58px;stroke:none;">(1,)5</text>
   <text y="477.141" x="211.094,219.93,228.598,237.951,241.593,243.326,246.793,216.469,219.936,221.67,225.137,248.533,252.0" svgx:width="0.58,0.28,0.28,0.58,0.28,0.56,0.28,0.56,0.28,0.56,0.56,0.56,0.56" style="fill:rgb(43,79,162);font-family:ArialMT;font-size:5.35px;stroke:none;">=.,= 0.0 3186</text>
   <text y="477.141" x="232.071" svgx:width="0.67" style="fill:rgb(43,79,162);font-family:Arial-ItalicMT;font-size:5.35px;stroke:none;">P</text>
   <text y="485.998" x="191.495,194.962,198.814,206.149,209.252,236.947,239.943,247.342" svgx:width="0.56,0.72,0.55,0.58,0.55,0.56,0.55,0.56" style="fill:rgb(43,79,162);font-family:ArialMT;font-size:5.35px;stroke:none;">LC = L L</text>
   <text y="487.529" x="199.465,201.942" svgx:width="0.56,0.56" style="fill:rgb(43,79,162);font-family:ArialMT;font-size:3.82px;stroke:none;">50</text>
   <text y="486.001" x="211.526,214.993,216.726,220.193,223.66,227.127" svgx:width="0.56,0.28,0.56,0.56,0.56,0.56" style="fill:rgb(43,79,162);font-family:ArialMT;font-size:5.35px;stroke:none;">0.0132</text>
  </g>
  <path style="fill:rgb(43,79,162);stroke:none;stroke-width:0.55;" d="M236.050 482.920 L236.050 484.940 C236.050 485.210 236.060 485.400 236.090 485.510 C236.110 485.590 236.150 485.640 236.190 485.680 C236.240 485.710 236.290 485.730 236.340 485.730 C236.410 485.730 236.470 485.700 236.530 485.640 C236.580 485.580 236.620 485.470 236.650 485.310 L236.810 485.310 C236.760 485.610 236.680 485.820 236.550 485.930 C236.420 486.050 236.260 486.100 236.060 486.100 C235.870 486.100 235.720 486.060 235.600 485.950 C235.490 485.850 235.420 485.670 235.400 485.420 C235.130 485.680 234.870 485.860 234.640 485.950 C234.400 486.060 234.190 486.100 234.020 486.100 C233.900 486.100 233.790 486.080 233.680 486.050 C233.570 486.010 233.450 485.950 233.350 485.870 C233.340 486.200 233.370 486.480 233.450 486.720 C233.500 486.900 233.530 487.020 233.530 487.090 C233.530 487.210 233.490 487.310 233.420 487.380 C233.350 487.450 233.260 487.490 233.170 487.490 C233.080 487.490 233.010 487.460 232.940 487.390 C232.860 487.310 232.820 487.210 232.820 487.070 C232.820 487.010 232.840 486.930 232.870 486.840 C232.940 486.630 232.980 486.440 233.000 486.290 C233.030 486.020 233.050 485.790 233.050 485.600 L233.050 482.920 L233.700 482.920 L233.700 484.860 C233.700 485.090 233.730 485.250 233.770 485.350 C233.820 485.450 233.900 485.530 234.010 485.590 C234.120 485.650 234.240 485.680 234.350 485.680 C234.490 485.680 234.650 485.640 234.830 485.570 C235.020 485.510 235.200 485.390 235.400 485.240 L235.400 482.920 Z"/>
  <g begin="text">
   <text y="486.001" x="240.419,242.152" svgx:width="0.28,0.83" style="fill:rgb(43,79,162);font-family:ArialMT;font-size:5.35px;stroke:none;">/m</text>
   <text y="556.543" x="269.804,275.593,277.821,280.05,284.949,289.407,296.534,303.662,308.12,310.789,315.247,317.476,319.705" svgx:width="0.72,0.28,0.28,0.61,0.56,0.89,0.89,0.56,0.33,0.56,0.28,0.28,0.56" style="fill:rgb(237,28,36);font-family:Arial-BoldItalicMT;font-size:6.88px;stroke:none;">A. gemmatalis</text>
   <text y="556.543" x="326.392,330.849,335.307,337.536,339.765" svgx:width="0.56,0.56,0.28,0.28,0.56" style="fill:rgb(237,28,36);font-family:Arial-BoldMT;font-size:6.88px;stroke:none;">cells</text>
   <text y="563.188" x="269.804,272.029,276.853,280.935,286.874,291.331,302.468,306.183,309.897,284.649,296.522,298.747" svgx:width="0.33,0.72,0.61,0.56,0.67,0.78,0.56,0.56,0.33,0.33,0.33,0.56" style="fill:rgb(237,28,36);font-family:Arial-ItalicMT;font-size:5.73px;stroke:none;">(UFLAG86)--2</text>
  </g>
  <path style="fill:rgb(237,28,36);stroke:none;stroke-width:0.55;" d="M273.590 569.620 L272.130 572.070 L272.380 572.920 C272.480 573.270 272.580 573.490 272.680 573.580 C272.790 573.670 272.920 573.710 273.090 573.710 C273.290 573.710 273.450 573.670 273.560 573.570 C273.680 573.470 273.740 573.320 273.770 573.100 L273.910 573.100 L273.910 573.230 C273.910 573.520 273.810 573.760 273.610 573.980 C273.480 574.120 273.310 574.190 273.100 574.190 C272.960 574.190 272.830 574.160 272.710 574.090 C272.600 574.020 272.500 573.930 272.430 573.800 C272.320 573.580 272.230 573.410 272.200 573.260 L271.950 572.380 L270.900 574.130 L270.220 574.130 L271.720 571.600 L271.420 570.600 C271.370 570.380 271.290 570.230 271.200 570.170 C271.120 570.100 270.990 570.070 270.830 570.070 C270.660 570.070 270.520 570.120 270.410 570.210 C270.300 570.300 270.240 570.450 270.220 570.670 L270.080 570.670 C270.080 570.280 270.180 569.980 270.350 569.780 C270.480 569.640 270.650 569.570 270.850 569.570 C271.050 569.570 271.220 569.630 271.340 569.760 C271.460 569.880 271.540 570.050 271.600 570.270 L271.910 571.290 L272.890 569.620 Z"/>
  <g begin="text">
   <text y="568.884" x="274.204" svgx:width="0.56" style="fill:rgb(237,28,36);font-family:ArialMT;font-size:3.82px;stroke:none;">2</text>
   <text y="574.538" x="276.681,278.461,281.433,285.89,282.919" svgx:width="0.33,0.56,0.28,0.33,0.56" style="fill:rgb(237,28,36);font-family:ArialMT;font-size:4.58px;stroke:none;">(1,)4</text>
   <text y="572.704" x="289.404,298.24,310.375,319.728,323.37,325.103,328.57,294.779,306.914,299.98,303.447,330.31,333.777" svgx:width="0.58,0.28,0.28,0.58,0.28,0.56,0.28,0.56,0.56,0.56,0.56,0.56,0.56" style="fill:rgb(237,28,36);font-family:ArialMT;font-size:5.35px;stroke:none;">=.,= 0.017097</text>
   <text y="572.704" x="313.848" svgx:width="0.67" style="fill:rgb(237,28,36);font-family:Arial-ItalicMT;font-size:5.35px;stroke:none;">P</text>
   <text y="581.561" x="269.805,273.272,277.12399999999997,284.459,287.562,318.724,320.458" svgx:width="0.56,0.72,0.55,0.58,0.55,0.28,0.83" style="fill:rgb(237,28,36);font-family:ArialMT;font-size:5.35px;stroke:none;">LC = /m</text>
   <text y="583.093" x="277.775,280.252" svgx:width="0.56,0.56" style="fill:rgb(237,28,36);font-family:ArialMT;font-size:3.82px;stroke:none;">50</text>
   <text y="581.564" x="289.836,293.303,295.037,298.504,301.971,305.438,308.43399999999997,315.259,318.255,325.66" svgx:width="0.56,0.28,0.56,0.56,0.56,0.56,0.55,0.56,0.55,0.56" style="fill:rgb(237,28,36);font-family:ArialMT;font-size:5.35px;stroke:none;">0.0457 L L</text>
  </g>
  <path style="fill:rgb(237,28,36);stroke:none;stroke-width:0.55;" d="M314.360 578.480 L314.360 580.500 C314.360 580.770 314.370 580.970 314.400 581.070 C314.420 581.150 314.460 581.210 314.500 581.240 C314.550 581.270 314.600 581.290 314.650 581.290 C314.720 581.290 314.780 581.260 314.840 581.210 C314.890 581.140 314.930 581.030 314.960 580.870 L315.120 580.870 C315.070 581.170 314.990 581.380 314.860 581.490 C314.730 581.610 314.570 581.670 314.370 581.670 C314.180 581.670 314.030 581.620 313.910 581.520 C313.800 581.410 313.730 581.230 313.710 580.990 C313.440 581.240 313.180 581.420 312.950 581.520 C312.710 581.620 312.500 581.670 312.330 581.670 C312.210 581.670 312.100 581.650 311.990 581.610 C311.880 581.570 311.760 581.510 311.660 581.430 C311.650 581.760 311.680 582.050 311.760 582.290 C311.810 582.470 311.840 582.580 311.840 582.650 C311.840 582.770 311.800 582.870 311.730 582.940 C311.660 583.020 311.570 583.050 311.480 583.050 C311.390 583.050 311.320 583.020 311.250 582.950 C311.170 582.870 311.130 582.770 311.130 582.640 C311.130 582.570 311.150 582.490 311.180 582.400 C311.250 582.190 311.290 582.000 311.310 581.850 C311.340 581.580 311.360 581.350 311.360 581.160 L311.360 578.480 L312.010 578.480 L312.010 580.420 C312.010 580.650 312.040 580.810 312.080 580.910 C312.130 581.010 312.210 581.100 312.320 581.150 C312.430 581.210 312.550 581.240 312.660 581.240 C312.800 581.240 312.960 581.210 313.140 581.140 C313.330 581.070 313.510 580.950 313.710 580.800 L313.710 578.480 Z"/>
  <path style="fill:none;stroke:rgb(237,28,36);stroke-width:0.55;" d="M244.100 555.040 L247.820 555.040 "/>
  <path style="fill:none;stroke:rgb(43,79,162);stroke-width:0.68;" d="M224.110 560.650 L227.830 560.650 "/>
  <path style="fill:none;stroke:rgb(237,28,36);stroke-width:0.68;" d="M217.810 565.980 L221.540 565.980 "/>
  <path style="fill:none;stroke:rgb(43,79,162);stroke-width:0.68;" d="M233.060 561.180 L236.780 561.180 "/>
  <path style="fill:none;stroke:rgb(237,28,36);stroke-width:0.68;" d="M288.780 498.000 L292.500 498.000 "/>
  <path style="fill:none;stroke:rgb(43,79,162);stroke-width:0.68;" d="M240.490 544.080 L244.210 544.080 "/>
  <path style="fill:none;stroke:rgb(237,28,36);stroke-width:0.68;" d="M309.210 467.430 L312.930 467.430 "/>
  <path style="fill:none;stroke:rgb(43,79,162);stroke-width:0.68;" d="M266.990 466.780 L270.850 466.780 "/>
  <path style="fill:none;stroke:rgb(237,28,36);stroke-width:0.7;" d="M309.190 472.940 L312.920 472.940 "/>
  <path style="fill:none;stroke:rgb(43,79,162);stroke-width:0.68;" d="M266.950 474.640 L270.820 474.640 "/>
  <path style="fill:none;stroke:rgb(237,28,36);stroke-width:0.7;" d="M263.440 550.680 L267.160 550.680 "/>
  <path style="fill:none;stroke:rgb(43,79,162);stroke-width:0.68;" d="M254.260 505.420 L257.980 505.420 "/>
  <path style="fill:none;stroke:rgb(237,28,36);stroke-width:0.68;" d="M263.530 542.820 L267.250 542.820 "/>
  <path style="fill:none;stroke:rgb(43,79,162);stroke-width:0.68;" d="M254.290 497.560 L258.010 497.560 "/>
  <path style="fill:none;stroke:rgb(237,28,36);stroke-width:0.68;" d="M288.850 504.500 L292.580 504.500 "/>
  <path style="fill:none;stroke:rgb(43,79,162);stroke-width:0.68;" d="M240.560 550.590 L244.280 550.590 "/>
  <path style="fill:none;stroke:rgb(237,28,36);stroke-width:0.68;" d="M217.840 556.480 L221.560 556.480 "/>
  <path style="fill:none;stroke:rgb(43,79,162);stroke-width:0.68;" d="M233.080 551.680 L236.800 551.680 "/>
  <path style="fill:none;stroke:rgb(237,28,36);stroke-width:0.68;" d="M297.610 474.370 L301.330 474.370 "/>
  <path style="fill:none;stroke:rgb(43,79,162);stroke-width:0.68;" d="M258.920 473.280 L262.790 473.280 "/>
  <path style="fill:none;stroke:rgb(43,79,162);stroke-width:0.7;" d="M256.890 480.840 L260.610 480.840 "/>
  <path style="fill:none;stroke:rgb(237,28,36);stroke-width:0.68;" d="M245.960 559.420 L245.960 555.020 M245.940 558.460 L245.940 562.870 "/>
  <path style="fill:none;stroke:rgb(43,79,162);stroke-width:0.57;" d="M225.970 565.030 L225.970 560.630 M225.950 564.080 L225.950 568.490 "/>
  <path style="fill:none;stroke:rgb(237,28,36);stroke-width:0.57;" d="M311.010 470.480 L311.010 467.440 M310.990 469.820 L310.990 472.870 "/>
  <path style="fill:none;stroke:rgb(43,79,162);stroke-width:0.61;" d="M268.920 471.160 L268.920 466.760 M268.900 470.210 L268.900 474.620 "/>
  <path style="fill:none;stroke:rgb(237,28,36);stroke-width:0.57;" d="M265.390 547.200 L265.390 542.800 M265.370 546.240 L265.370 550.660 "/>
  <path style="fill:none;stroke:rgb(43,79,162);stroke-width:0.57;" d="M256.150 501.940 L256.150 497.540 M256.120 500.990 L256.120 505.400 "/>
  <path style="fill:none;stroke:rgb(237,28,36);stroke-width:0.57;" d="M290.640 501.630 L290.640 498.000 M290.620 500.850 L290.620 504.490 "/>
  <path style="fill:none;stroke:rgb(43,79,162);stroke-width:0.57;" d="M242.350 547.720 L242.350 544.090 M242.330 546.930 L242.330 550.570 "/>
  <path style="fill:none;stroke:rgb(237,28,36);stroke-width:0.57;" d="M299.550 480.810 L299.550 474.370 M299.520 479.420 L299.520 485.880 "/>
  <path style="fill:none;stroke:rgb(43,79,162);stroke-width:0.54;" d="M260.940 479.730 L260.940 473.290 M260.920 478.340 L260.920 484.800 M258.820 487.290 L258.820 480.840 M258.790 485.890 L258.790 492.350 "/>
  <path style="fill:none;stroke:rgb(237,28,36);stroke-width:0.56;" d="M219.700 561.810 L219.700 556.490 M219.680 560.660 L219.680 566.000 "/>
  <path style="fill:none;stroke:rgb(43,79,162);stroke-width:0.57;" d="M234.940 557.020 L234.940 551.700 M234.920 555.870 L234.920 561.200 "/>
  <path style="fill:none;stroke:rgb(237,28,36);stroke-width:0.57;" d="M244.070 562.900 L247.800 562.900 "/>
  <path style="fill:none;stroke:rgb(43,79,162);stroke-width:0.68;" d="M224.090 568.510 L227.810 568.510 "/>
  <path style="fill:none;stroke:rgb(237,28,36);stroke-width:0.68;" d="M297.680 485.880 L301.410 485.880 "/>
  <path style="fill:none;stroke:rgb(43,79,162);stroke-width:0.68;" d="M259.030 484.800 L262.900 484.800 "/>
  <path style="fill:none;stroke:rgb(43,79,162);stroke-width:0.7;" d="M256.960 492.350 L260.690 492.350 "/>
  <path style="fill:rgb(255,255,255);stroke:none;stroke-width:0.68;" d="M248.280 558.880 C248.280 560.080 247.310 561.050 246.100 561.050 C244.900 561.050 243.930 560.080 243.930 558.880 C243.930 557.670 244.900 556.700 246.100 556.700 C247.310 556.700 248.280 557.670 248.280 558.880 "/>
  <path style="fill:none;stroke:rgb(237,28,36);stroke-width:0.68;" d="M248.280 558.880 C248.280 560.080 247.310 561.050 246.100 561.050 C244.900 561.050 243.930 560.080 243.930 558.880 C243.930 557.670 244.900 556.700 246.100 556.700 C247.310 556.700 248.280 557.670 248.280 558.880 Z"/>
  <path style="fill:rgb(255,255,255);stroke:none;stroke-width:0.57;" d="M301.700 479.850 C301.700 481.060 300.730 482.030 299.520 482.030 C298.320 482.030 297.350 481.060 297.350 479.850 C297.350 478.650 298.320 477.670 299.520 477.670 C300.730 477.670 301.700 478.650 301.700 479.850 "/>
  <path style="fill:none;stroke:rgb(237,28,36);stroke-width:0.57;" d="M301.700 479.850 C301.700 481.060 300.730 482.030 299.520 482.030 C298.320 482.030 297.350 481.060 297.350 479.850 C297.350 478.650 298.320 477.670 299.520 477.670 C300.730 477.670 301.700 478.650 301.700 479.850 Z"/>
  <path style="fill:rgb(255,255,255);stroke:none;stroke-width:0.57;" d="M313.190 470.120 C313.190 471.330 312.210 472.300 311.010 472.300 C309.810 472.300 308.830 471.330 308.830 470.120 C308.830 468.920 309.810 467.950 311.010 467.950 C312.210 467.950 313.190 468.920 313.190 470.120 "/>
  <path style="fill:none;stroke:rgb(237,28,36);stroke-width:0.57;" d="M313.190 470.120 C313.190 471.330 312.210 472.300 311.010 472.300 C309.810 472.300 308.830 471.330 308.830 470.120 C308.830 468.920 309.810 467.950 311.010 467.950 C312.210 467.950 313.190 468.920 313.190 470.120 Z"/>
  <path style="fill:rgb(255,255,255);stroke:none;stroke-width:0.57;" d="M292.730 501.440 C292.730 502.640 291.750 503.620 290.550 503.620 C289.350 503.620 288.370 502.640 288.370 501.440 C288.370 500.240 289.350 499.260 290.550 499.260 C291.750 499.260 292.730 500.240 292.730 501.440 "/>
  <path style="fill:none;stroke:rgb(237,28,36);stroke-width:0.57;" d="M292.730 501.440 C292.730 502.640 291.750 503.620 290.550 503.620 C289.350 503.620 288.370 502.640 288.370 501.440 C288.370 500.240 289.350 499.260 290.550 499.260 C291.750 499.260 292.730 500.240 292.730 501.440 Z"/>
  <path style="fill:rgb(255,255,255);stroke:none;stroke-width:0.57;" d="M221.860 561.020 C221.860 562.220 220.890 563.190 219.690 563.190 C218.480 563.190 217.510 562.220 217.510 561.020 C217.510 559.810 218.480 558.840 219.690 558.840 C220.890 558.840 221.860 559.810 221.860 561.020 "/>
  <path style="fill:none;stroke:rgb(237,28,36);stroke-width:0.57;" d="M221.860 561.020 C221.860 562.220 220.890 563.190 219.690 563.190 C218.480 563.190 217.510 562.220 217.510 561.020 C217.510 559.810 218.480 558.840 219.690 558.840 C220.890 558.840 221.860 559.810 221.860 561.020 Z"/>
  <path style="fill:rgb(255,255,255);stroke:none;stroke-width:0.57;" d="M267.390 546.000 C267.390 547.200 266.420 548.170 265.220 548.170 C264.010 548.170 263.040 547.200 263.040 546.000 C263.040 544.790 264.010 543.820 265.220 543.820 C266.420 543.820 267.390 544.790 267.390 546.000 "/>
  <path style="fill:none;stroke:rgb(237,28,36);stroke-width:0.57;" d="M267.390 546.000 C267.390 547.200 266.420 548.170 265.220 548.170 C264.010 548.170 263.040 547.200 263.040 546.000 C263.040 544.790 264.010 543.820 265.220 543.820 C266.420 543.820 267.390 544.790 267.390 546.000 Z"/>
  <g begin="text">
   <text y="610.551" x="219.24,224.339,228.923,233.508,238.606,243.705,246.254,248.289,253.388,269.709,293.33,298.428,257.982,263.08,265.115" svgx:width="0.56,0.5,0.5,0.56,0.56,0.28,0.22,0.56,0.22,0.33,0.56,0.33,0.56,0.22,0.22" style="fill:rgb(35,31,32);font-family:ArialMT;font-size:9.17px;stroke:none;">essential(L)oil</text>
  </g>
  <path style="fill:rgb(35,31,32);stroke:none;stroke-width:0.57;" d="M277.000 606.440 L277.000 609.140 C277.000 609.500 277.020 609.750 277.040 609.890 C277.070 610.000 277.120 610.070 277.160 610.120 C277.220 610.160 277.270 610.180 277.340 610.180 C277.410 610.180 277.480 610.150 277.550 610.070 C277.610 609.990 277.660 609.840 277.680 609.620 L277.870 609.620 C277.810 610.030 277.720 610.300 277.580 610.460 C277.430 610.610 277.240 610.690 277.020 610.690 C276.800 610.690 276.620 610.620 276.490 610.490 C276.370 610.350 276.280 610.110 276.260 609.780 C275.950 610.120 275.660 610.360 275.390 610.490 C275.120 610.620 274.880 610.690 274.690 610.690 C274.550 610.690 274.420 610.660 274.290 610.610 C274.170 610.560 274.040 610.480 273.920 610.380 C273.910 610.820 273.950 611.190 274.030 611.510 C274.090 611.750 274.120 611.910 274.120 612.000 C274.120 612.160 274.070 612.290 274.000 612.380 C273.920 612.480 273.820 612.530 273.720 612.530 C273.610 612.530 273.520 612.490 273.450 612.400 C273.360 612.290 273.310 612.150 273.310 611.980 C273.310 611.900 273.330 611.790 273.370 611.670 C273.450 611.380 273.500 611.140 273.510 610.930 C273.550 610.570 273.570 610.270 273.570 610.020 L273.570 606.440 L274.320 606.440 L274.320 609.030 C274.320 609.330 274.350 609.550 274.390 609.680 C274.450 609.820 274.540 609.930 274.670 610.000 C274.800 610.080 274.930 610.120 275.060 610.120 C275.220 610.120 275.400 610.070 275.610 609.980 C275.820 609.890 276.030 609.730 276.260 609.530 L276.260 606.440 Z"/>
  <g begin="text">
   <text y="610.551" x="278.037,283.135,285.684" svgx:width="0.56,0.28,0.83" style="fill:rgb(35,31,32);font-family:ArialMT;font-size:9.17px;stroke:none;">L/m</text>
  </g>
  <path style="fill:none;stroke:rgb(35,31,32);stroke-width:0.57;" d="M529.760 553.620 L529.760 552.210 M417.040 551.160 L420.030 551.170 "/>
  <path style="fill:none;stroke:rgb(188,189,192);stroke-width:0.62;" d="M444.790 552.090 L447.780 552.100 "/>
  <path style="fill:none;stroke:rgb(128,130,133);stroke-width:0.62;" d="M472.540 551.650 L475.530 551.660 "/>
  <path style="fill:none;stroke:rgb(88,89,91);stroke-width:0.62;" d="M500.500 552.760 L503.480 552.780 "/>
  <path style="fill:none;stroke:rgb(35,31,32);stroke-width:0.62;" d="M528.220 552.000 L531.210 552.020 "/>
  <g begin="text">
   <text y="598.578" x="418.281" svgx:width="0.56" style="fill:rgb(35,31,32);font-family:ArialMT;font-size:7.64px;stroke:none;">0</text>
   <text y="598.15" x="439.509,443.757,445.881,450.13,454.4084,468.041,472.29,474.414,478.663" svgx:width="0.56,0.28,0.56,0.56,0.55,0.56,0.28,0.56,0.56" style="fill:rgb(35,31,32);font-family:ArialMT;font-size:7.64px;stroke:none;">0.85 1.30</text>
   <text y="597.936" x="495.382,499.63,501.755,506.003" svgx:width="0.56,0.28,0.56,0.56" style="fill:rgb(35,31,32);font-family:ArialMT;font-size:7.64px;stroke:none;">1.70</text>
   <text y="598.15" x="524.312,528.56,530.685,534.933" svgx:width="0.56,0.28,0.56,0.56" style="fill:rgb(35,31,32);font-family:ArialMT;font-size:7.64px;stroke:none;">2.12</text>
  </g>
  <g begin="text">
   <text y="442.878" x="426.285,432.906,438.508,446.66,451.758,457.361,459.91,468.062,473.665,479.268,484.87,489.969,495.067,498.12,500.67" svgx:width="0.72,0.61,0.89,0.56,0.61,0.28,0.89,0.61,0.61,0.61,0.56,0.56,0.33,0.28,0.56" style="fill:rgb(35,31,32);font-family:Arial-BoldItalicMT;font-size:9.17px;stroke:none;">Human monocytic</text>
  </g>
  <g begin="text">
   <text y="453.422" x="433.16,438.258,443.357,445.906,448.455,451.004,453.553,456.103,461.705,466.804,469.353,472.406,478.009,484.125,490.746,495.844" svgx:width="0.56,0.56,0.28,0.28,0.28,0.28,0.28,0.61,0.56,0.28,0.33,0.61,0.67,0.72,0.56,0.33" style="fill:rgb(35,31,32);font-family:Arial-BoldItalicMT;font-size:9.17px;stroke:none;">cell line (TPH1)</text>
  </g>
  <g begin="text">
   <text y="443.041" x="217.785,220.334,225.432,231.035,233.584,239.187,244.789,250.392,253.445,258.544,262.111,267.209,272.812,275.361,280.459,285.558,288.107,290.656,293.205,295.754,298.304,303.906,309.005" svgx:width="0.28,0.56,0.61,0.28,0.61,0.61,0.61,0.33,0.56,0.39,0.56,0.61,0.28,0.56,0.56,0.28,0.28,0.28,0.28,0.28,0.61,0.56,0.56" style="fill:rgb(35,31,32);font-family:Arial-BoldItalicMT;font-size:9.17px;stroke:none;">lepidopteran cell lines</text>
  </g>
  <path style="fill:rgb(255,255,255);stroke:none;stroke-width:0.62;" d="M225.850 562.030 L228.320 564.510 L225.850 566.980 L223.380 564.510 Z"/>
  <path style="fill:none;stroke:rgb(43,79,162);stroke-width:0.62;" d="M225.850 562.030 L228.320 564.510 L225.850 566.980 L223.380 564.510 L225.850 562.030 Z"/>
  <path style="fill:rgb(255,255,255);stroke:none;stroke-width:0.54;" d="M234.940 553.900 L237.410 556.370 L234.940 558.850 L232.470 556.370 Z"/>
  <path style="fill:none;stroke:rgb(43,79,162);stroke-width:0.54;" d="M234.940 553.900 L237.410 556.370 L234.940 558.850 L232.470 556.370 L234.940 553.900 Z"/>
  <path style="fill:rgb(255,255,255);stroke:none;stroke-width:0.54;" d="M242.330 545.280 L244.800 547.750 L242.330 550.230 L239.860 547.750 Z"/>
  <path style="fill:none;stroke:rgb(43,79,162);stroke-width:0.54;" d="M242.330 545.280 L244.800 547.750 L242.330 550.230 L239.860 547.750 L242.330 545.280 Z"/>
  <path style="fill:rgb(255,255,255);stroke:none;stroke-width:0.54;" d="M256.120 498.530 L258.590 501.010 L256.120 503.490 L253.650 501.010 Z"/>
  <path style="fill:none;stroke:rgb(43,79,162);stroke-width:0.54;" d="M256.120 498.530 L258.590 501.010 L256.120 503.490 L253.650 501.010 L256.120 498.530 Z"/>
  <path style="fill:rgb(255,255,255);stroke:none;stroke-width:0.54;" d="M258.800 483.850 L261.270 486.320 L258.800 488.800 L256.330 486.320 Z"/>
  <path style="fill:none;stroke:rgb(43,79,162);stroke-width:0.54;" d="M258.800 483.850 L261.270 486.320 L258.800 488.800 L256.330 486.320 L258.800 483.850 Z"/>
  <path style="fill:rgb(255,255,255);stroke:none;stroke-width:0.54;" d="M260.920 476.290 L263.390 478.770 L260.920 481.250 L258.460 478.770 Z"/>
  <path style="fill:none;stroke:rgb(43,79,162);stroke-width:0.54;" d="M260.920 476.290 L263.390 478.770 L260.920 481.250 L258.460 478.770 L260.920 476.290 Z"/>
  <path style="fill:rgb(255,255,255);stroke:none;stroke-width:0.54;" d="M268.890 468.260 L271.360 470.740 L268.890 473.210 L266.420 470.740 Z"/>
  <path style="fill:none;stroke:rgb(43,79,162);stroke-width:0.54;" d="M268.890 468.260 L271.360 470.740 L268.890 473.210 L266.420 470.740 L268.890 468.260 Z"/>
  <g begin="text">
   <text y="493.333" matrix="[3.0E-4,9.184,-9.1694,-3.0E-4,163.5066,289.0292]" x="163.507" svgx:width="0.33" style="fill:rgb(35,31,32);font-family:ArialMT;font-size:0.0px;stroke:none;">)</text>
   <text y="501.497" matrix="[3.0E-4,9.184,-9.1694,-3.0E-4,163.50635,280.86462]" x="163.506" svgx:width="0.89" style="fill:rgb(35,31,32);font-family:ArialMT;font-size:0.0px;stroke:none;">%</text>
   <text y="504.556" matrix="[3.0E-4,9.184,-9.1694,-3.0E-4,163.50624,277.80637]" x="163.506" svgx:width="0.33" style="fill:rgb(35,31,32);font-family:ArialMT;font-size:0.0px;stroke:none;">(</text>
   <text y="507.109" matrix="[3.0E-4,9.184,-9.1694,-3.0E-4,163.50616,275.2532]" x="163.506" svgx:width="0.28" style="fill:rgb(35,31,32);font-family:ArialMT;font-size:0.0px;stroke:none;"> </text>
   <text y="511.701" matrix="[3.0E-4,9.184,-9.1694,-3.0E-4,163.50601,270.6612]" x="163.506" svgx:width="0.5" style="fill:rgb(35,31,32);font-family:ArialMT;font-size:0.0px;stroke:none;">y</text>
   <text y="514.254" matrix="[3.0E-4,9.184,-9.1694,-3.0E-4,163.50594,268.10803]" x="163.506" svgx:width="0.28" style="fill:rgb(35,31,32);font-family:ArialMT;font-size:0.0px;stroke:none;">t</text>
   <text y="516.293" matrix="[3.0E-4,9.184,-9.1694,-3.0E-4,163.50587,266.06918]" x="163.506" svgx:width="0.22" style="fill:rgb(35,31,32);font-family:ArialMT;font-size:0.0px;stroke:none;">i</text>
   <text y="518.332" matrix="[3.0E-4,9.184,-9.1694,-3.0E-4,163.50581,264.03033]" x="163.506" svgx:width="0.22" style="fill:rgb(35,31,32);font-family:ArialMT;font-size:0.0px;stroke:none;">l</text>
   <text y="523.438" matrix="[3.0E-4,9.184,-9.1694,-3.0E-4,163.50565,258.92404]" x="163.506" svgx:width="0.56" style="fill:rgb(35,31,32);font-family:ArialMT;font-size:0.0px;stroke:none;">a</text>
   <text y="525.991" matrix="[3.0E-4,9.184,-9.1694,-3.0E-4,163.50557,256.37088]" x="163.506" svgx:width="0.28" style="fill:rgb(35,31,32);font-family:ArialMT;font-size:0.0px;stroke:none;">t</text>
   <text y="529.049" matrix="[3.0E-4,9.184,-9.1694,-3.0E-4,163.50546,253.3126]" x="163.505" svgx:width="0.33" style="fill:rgb(35,31,32);font-family:ArialMT;font-size:0.0px;stroke:none;">r</text>
   <text y="534.156" matrix="[3.0E-4,9.184,-9.1694,-3.0E-4,163.5053,248.2063]" x="163.505" svgx:width="0.56" style="fill:rgb(35,31,32);font-family:ArialMT;font-size:0.0px;stroke:none;">o</text>
   <text y="541.806" matrix="[3.0E-4,9.184,-9.1694,-3.0E-4,163.50505,240.55603]" x="163.505" svgx:width="0.83" style="fill:rgb(35,31,32);font-family:ArialMT;font-size:0.0px;stroke:none;">m</text>
  </g>
  <g begin="text">
   <text y="494.029" matrix="[4.0E-4,9.9423,-9.9265,-4.0E-4,371.292,288.3334]" x="371.292" svgx:width="0.33" style="fill:rgb(35,31,32);font-family:ArialMT;font-size:0.0px;stroke:none;">)</text>
   <text y="502.867" matrix="[4.0E-4,9.9423,-9.9265,-4.0E-4,371.29163,279.4947]" x="371.292" svgx:width="0.89" style="fill:rgb(35,31,32);font-family:ArialMT;font-size:0.0px;stroke:none;">%</text>
   <text y="506.178" matrix="[4.0E-4,9.9423,-9.9265,-4.0E-4,371.2915,276.1839]" x="371.292" svgx:width="0.33" style="fill:rgb(35,31,32);font-family:ArialMT;font-size:0.0px;stroke:none;">(</text>
   <text y="508.942" matrix="[4.0E-4,9.9423,-9.9265,-4.0E-4,371.29138,273.41995]" x="371.291" svgx:width="0.28" style="fill:rgb(35,31,32);font-family:ArialMT;font-size:0.0px;stroke:none;"> </text>
   <text y="513.913" matrix="[4.0E-4,9.9423,-9.9265,-4.0E-4,371.29117,268.4488]" x="371.291" svgx:width="0.5" style="fill:rgb(35,31,32);font-family:ArialMT;font-size:0.0px;stroke:none;">y</text>
   <text y="516.677" matrix="[4.0E-4,9.9423,-9.9265,-4.0E-4,371.29105,265.68484]" x="371.291" svgx:width="0.28" style="fill:rgb(35,31,32);font-family:ArialMT;font-size:0.0px;stroke:none;">t</text>
   <text y="518.884" matrix="[4.0E-4,9.9423,-9.9265,-4.0E-4,371.29095,263.47766]" x="371.291" svgx:width="0.22" style="fill:rgb(35,31,32);font-family:ArialMT;font-size:0.0px;stroke:none;">i</text>
   <text y="521.092" matrix="[4.0E-4,9.9423,-9.9265,-4.0E-4,371.29086,261.27048]" x="371.291" svgx:width="0.22" style="fill:rgb(35,31,32);font-family:ArialMT;font-size:0.0px;stroke:none;">l</text>
   <text y="526.619" matrix="[4.0E-4,9.9423,-9.9265,-4.0E-4,371.29065,255.74255]" x="371.291" svgx:width="0.56" style="fill:rgb(35,31,32);font-family:ArialMT;font-size:0.0px;stroke:none;">a</text>
   <text y="529.383" matrix="[4.0E-4,9.9423,-9.9265,-4.0E-4,371.29053,252.97859]" x="371.291" svgx:width="0.28" style="fill:rgb(35,31,32);font-family:ArialMT;font-size:0.0px;stroke:none;">t</text>
   <text y="532.694" matrix="[4.0E-4,9.9423,-9.9265,-4.0E-4,371.2904,249.6678]" x="371.29" svgx:width="0.33" style="fill:rgb(35,31,32);font-family:ArialMT;font-size:0.0px;stroke:none;">r</text>
   <text y="538.222" matrix="[4.0E-4,9.9423,-9.9265,-4.0E-4,371.2902,244.13988]" x="371.29" svgx:width="0.56" style="fill:rgb(35,31,32);font-family:ArialMT;font-size:0.0px;stroke:none;">o</text>
   <text y="546.504" matrix="[4.0E-4,9.9423,-9.9265,-4.0E-4,371.28986,235.85794]" x="371.29" svgx:width="0.83" style="fill:rgb(35,31,32);font-family:ArialMT;font-size:0.0px;stroke:none;">m</text>
  </g>
  <g begin="text">
   <text y="612.2" x="437.512,442.61,447.195,451.78,456.878,461.976,464.525,466.561,471.659,487.972,511.602,516.7,476.253,481.351,483.387" svgx:width="0.56,0.5,0.5,0.56,0.56,0.28,0.22,0.56,0.22,0.33,0.56,0.33,0.56,0.22,0.22" style="fill:rgb(35,31,32);font-family:ArialMT;font-size:9.17px;stroke:none;">essential(L)oil</text>
  </g>
  <path style="fill:rgb(35,31,32);stroke:none;stroke-width:0.57;" d="M495.270 608.090 L495.270 610.790 C495.270 611.150 495.290 611.400 495.310 611.540 C495.340 611.650 495.390 611.720 495.430 611.770 C495.490 611.810 495.540 611.830 495.610 611.830 C495.680 611.830 495.750 611.800 495.820 611.720 C495.880 611.640 495.930 611.490 495.960 611.270 L496.140 611.270 C496.080 611.680 495.990 611.950 495.850 612.110 C495.700 612.260 495.520 612.340 495.290 612.340 C495.070 612.340 494.890 612.270 494.760 612.140 C494.640 612.000 494.550 611.760 494.530 611.430 C494.220 611.770 493.930 612.010 493.670 612.140 C493.390 612.270 493.150 612.340 492.960 612.340 C492.820 612.340 492.690 612.310 492.560 612.260 C492.440 612.210 492.310 612.130 492.190 612.030 C492.180 612.470 492.220 612.840 492.300 613.160 C492.360 613.400 492.390 613.560 492.390 613.650 C492.390 613.810 492.350 613.940 492.270 614.030 C492.190 614.130 492.090 614.180 491.990 614.180 C491.880 614.180 491.800 614.140 491.720 614.050 C491.630 613.940 491.580 613.800 491.580 613.630 C491.580 613.550 491.600 613.440 491.640 613.320 C491.720 613.030 491.770 612.790 491.790 612.580 C491.820 612.220 491.840 611.920 491.840 611.670 L491.840 608.090 L492.590 608.090 L492.590 610.680 C492.590 610.980 492.620 611.200 492.670 611.330 C492.720 611.470 492.810 611.580 492.940 611.650 C493.070 611.730 493.210 611.770 493.330 611.770 C493.490 611.770 493.670 611.720 493.890 611.630 C494.100 611.540 494.310 611.380 494.530 611.180 L494.530 608.090 Z"/>
  <g begin="text">
   <text y="612.2" x="496.308,501.406,503.955" svgx:width="0.56,0.28,0.83" style="fill:rgb(35,31,32);font-family:ArialMT;font-size:9.17px;stroke:none;">L/m</text>
  </g>
  <path style="fill:none;stroke:rgb(35,31,32);stroke-width:0.57;" d="M408.790 552.820 L428.370 552.820 "/>
  <path style="fill:none;stroke:rgb(131,144,151);stroke-width:0.43;" d="M159.130 653.720 L552.640 653.720 "/>
  <path style="fill:none;stroke:rgb(131,144,151);stroke-width:1.0;" d="M156.140 653.720 L156.140 653.720 M554.140 653.720 L554.140 653.720 "/>
  <g begin="text">
   <text y="633.721" x="155.638,160.552,163.207,167.662,172.657,176.221,180.154,181.909,186.409" svgx:width="0.55,0.29,0.49,0.56,0.4,0.44,0.22,0.5,0.25" style="fill:rgb(0,0,0);font-family:MinionPro-Bold;font-size:9.0px;stroke:none;">Figure 4.</text>
   <text y="633.721" x="188.695,190.765,193.195,197.866,202.312,206.56,208.972,212.779,215.083,217.854,221.985,223.821,228.303,230.967,232.803,235.602,240.372,244.197,246.033,249.858,253.115,256.49,260.315,265.067,267.857,270.296,274.292,276.569,278.405,282.886,285.343,287.62,289.456,293.938,296.602" svgx:width="0.23,0.55,0.62,0.51,0.47,0.27,0.42,0.27,0.31,0.46,0.23,0.51,0.3,0.23,0.31,0.53,0.43,0.23,0.43,0.37,0.37,0.43,0.55,0.31,0.27,0.44,0.25,0.23,0.51,0.27,0.25,0.23,0.51,0.3,0.23" style="fill:rgb(0,0,0);font-family:MinionPro-Regular;font-size:9.0px;stroke:none;"> Toxicity of the essential oil of </text>
   <text y="633.721" x="298.438,302.533,304.9,309.238,313.504,316.879,321.559,326.284,330.694,332.548,336.382,341.062,343.482,347.748,352.474,356.074,360.862,363.805,366.297" svgx:width="0.47,0.27,0.49,0.49,0.37,0.53,0.53,0.49,0.23,0.42,0.53,0.27,0.49,0.53,0.4,0.53,0.34,0.27,0.34" style="fill:rgb(0,0,0);font-family:MinionPro-It;font-size:9.0px;stroke:none;">Siparuna guianensis</text>
   <text y="633.721" x="369.352,371.188,373.879,378.469,380.305,382.582,386.407,391.014,393.426,398.178,402.669,407.286,409.977,413.802,417.141,421.011,425.934,427.77,431.577,435.366,437.688,439.938,443.241,445.077,447.831,451.053,455.535,462.906" svgx:width="0.23,0.31,0.51,0.23,0.25,0.43,0.52,0.27,0.53,0.51,0.52,0.31,0.43,0.37,0.44,0.55,0.23,0.42,0.43,0.25,0.25,0.37,0.23,0.3,0.37,0.51,0.82,0.23" style="fill:rgb(0,0,0);font-family:MinionPro-Regular;font-size:9.0px;stroke:none;"> to lepidopteran cells from </text>
   <text y="633.721" x="464.742,468.828,473.166,477.36,481.896,486.044,490.311,492.983,496.583,499.706,504.116,505.97,508.481,511.856,516.563,520.397,522.764,527.102,530.702,533.825,538.361" svgx:width="0.47,0.49,0.47,0.51,0.47,0.49,0.31,0.4,0.37,0.49,0.23,0.27,0.37,0.53,0.42,0.27,0.49,0.4,0.37,0.51,0.49" style="fill:rgb(0,0,0);font-family:MinionPro-It;font-size:9.0px;stroke:none;">Spodoptera frugiperda</text>
   <text y="633.721" x="542.782" svgx:width="0.23" style="fill:rgb(0,0,0);font-family:MinionPro-Regular;font-size:9.0px;stroke:none;"> </text>
   <text y="643.72" x="155.638,158.752,161.821,166.843,171.685,176.977,180.181,184.339,188.92,192.124,196.444,200.764,206.983,212.095,215.209,217.045,220.915,225.802,230.554" svgx:width="0.35,0.34,0.56,0.54,0.59,0.36,0.47,0.53,0.36,0.48,0.48,0.69,0.57,0.35,0.23,0.44,0.55,0.53,0.23" style="fill:rgb(0,0,0);font-family:MinionPro-Regular;font-size:9.0px;stroke:none;">(IPLB-SF-21AE) and </text>
   <text y="643.72" x="232.39,238.096,242.686,245.368,247.789,251.164,255.43,258.688,261.631,264.052,268.462,270.316,274.096,277.696,284.626,291.646,295.858,298.531,302.842,304.966,307.459" svgx:width="0.66,0.53,0.31,0.27,0.38,0.49,0.37,0.34,0.27,0.49,0.23,0.42,0.4,0.79,0.79,0.49,0.31,0.49,0.25,0.27,0.34" style="fill:rgb(0,0,0);font-family:MinionPro-It;font-size:9.0px;stroke:none;">Anticarsia gemmatalis</text>
   <text y="643.72" x="310.501,312.337,315.451,322.075,326.836,331.597,334.801,340.768,347.203,350.407,354.727,359.047,363.367,366.481,368.317,372.187,377.074,381.826,383.662,386.353,390.943,392.779,399.322,404.101,411.445,415.315,420.238,422.074,429.409,433.891,438.778,443.449,447.4,451.531,454.321,456.733,460.54,462.376,466.183,469.972,472.294,474.571,476.407,478.684,481.096,485.983,489.808,491.644,494.758,500.311,505.333,512.227,516.547,519.661" svgx:width="0.23,0.35,0.74,0.53,0.54,0.36,0.69,0.71,0.36,0.48,0.48,0.48,0.35,0.23,0.44,0.55,0.53,0.23,0.31,0.51,0.23,0.77,0.53,0.82,0.44,0.55,0.23,0.82,0.51,0.55,0.51,0.42,0.46,0.31,0.27,0.42,0.23,0.42,0.43,0.25,0.25,0.23,0.25,0.27,0.55,0.43,0.23,0.35,0.62,0.56,0.77,0.48,0.35,0.23" style="fill:rgb(0,0,0);font-family:MinionPro-Regular;font-size:9.0px;stroke:none;"> (UFL-AG-286) and to Human monocytic cell line (TPH1).</text>
  </g>
 </g>
</svg>
