<?xml version="1.0" encoding="UTF-8"?>
<svg height="750.388" width="558.788" xmlns="http://www.w3.org/2000/svg">
 <g id="page" xmlns:svgx="http://www.xml-cml.org/schema/svgx">
  <g begin="text">
   <text y="51.641" x="50.58,53.649,58.627,63.902,67.664,73.098,77.527,80.017,82.279,87.247,90.235,92.459,99.317,104.752,109.18,111.686,116.243,119.34,122.013,126.212,130.64,133.13,135.402,144.014,148.233,151.339,156.644,161.818,167.064,170.7492,172.977,175.632,181.11,183.336,190.014,195.297,199.516,207.66,210.315,213.957,217.053,221.04,225.6216,544.127" svgx:width="0.33,0.51,0.53,0.37,0.55,0.44,0.25,0.55,0.51,0.3,0.55,0.69,0.55,0.44,0.25,0.46,0.31,0.27,0.42,0.44,0.25,0.55,0.89,0.43,0.31,0.53,0.51,0.53,0.37,0.55,0.27,0.55,0.55,0.67,0.53,0.43,0.82,0.27,0.37,0.31,0.37,0.46,0.55,0.46" style="fill:rgb(23,22,21);font-family:MinionPro-Regular2;font-size:9.96px;stroke:none;">Journal of Analytical Methods in Chemistry 7</text>
   <text y="80.954" x="47.853,50.95,54.991,59.451,62.5008,66.526,70.279,72.3421,74.5,78.754,82.694,87.485,89.892,94.8,96.8631,99.012,107.004,109.06710000000001,111.217" svgx:width="0.34,0.47,0.5,0.34,0.55,0.53,0.23,0.55,0.47,0.44,0.53,0.27,0.55,0.23,0.55,0.89,0.23,0.55,0.71" style="fill:rgb(23,22,21);font-family:MinionPro-Regular2;font-size:8.97px;stroke:none;">[24] F. Sahin, M. G</text>
   <text y="80.9" x="118.221" svgx:width="0.4" style="fill:rgb(23,22,21);font-family:MinionPro-Regular2;font-size:8.97px;stroke:none;">¨</text>
   <text y="80.954" x="117.638,122.422,124.713" svgx:width="0.53,0.25,0.25" style="fill:rgb(23,22,21);font-family:MinionPro-Regular2;font-size:8.97px;stroke:none;">ull</text>
   <text y="80.9" x="127.564" svgx:width="0.4" style="fill:rgb(23,22,21);font-family:MinionPro-Regular2;font-size:8.97px;stroke:none;">¨</text>
   <text y="80.954" x="126.981,131.753,135.557,139.31,141.3731,143.532,149.76,151.82309999999998,153.981,160.623,164.475,167.05,170.857,174.069,177.877,181.214,185.1608,187.324,191.146,193.92669999999998,196.051,199.998,202.211,204.266,206.32909999999998,208.478,211.916,217.118,219.532,224.041,226.32,230.904,235.111,237.525,241.328,245.275,247.5175,249.721,253.668,257.52,260.301,262.641,266.803,269.099,271.88,274.283,278.105,281.4239,283.577,288.041" svgx:width="0.53,0.42,0.43,0.23,0.55,0.74,0.23,0.55,0.74,0.44,0.3,0.43,0.37,0.43,0.37,0.44,0.55,0.43,0.31,0.55,0.44,0.25,0.23,0.23,0.55,0.4,0.59,0.27,0.51,0.25,0.51,0.47,0.27,0.42,0.44,0.25,0.55,0.44,0.42,0.31,0.27,0.46,0.27,0.31,0.27,0.43,0.37,0.55,0.51,0.3" style="fill:rgb(23,22,21);font-family:MinionPro-Regular2;font-size:8.97px;stroke:none;">uce, D. Daferera et al., “Biological activities of</text>
   <text y="91.418" x="66.521,69.311,74.064,77.9211,79.581,83.388,86.66,90.026,93.819,98.554,101.335,103.765,107.743,109.9855,111.722,116.186,118.634,120.884,124.2029,125.88,129.731,134.6,139.3541,141.044,148.352,152.145,154.935,159.705,163.557,168.444,172.953,175.1955,176.932,180.739,184.953,187.734,191.043,194.961,198.813,201.59369999999998,203.269,207.733" svgx:width="0.31,0.53,0.43,0.55,0.43,0.37,0.37,0.43,0.55,0.31,0.27,0.44,0.25,0.55,0.51,0.27,0.25,0.37,0.55,0.44,0.55,0.53,0.55,0.82,0.43,0.31,0.53,0.44,0.55,0.51,0.25,0.55,0.43,0.47,0.31,0.37,0.44,0.42,0.31,0.55,0.51,0.3" style="fill:rgb(23,22,21);font-family:MinionPro-Regular2;font-size:8.97px;stroke:none;">the essential oils and methanol extract of</text>
   <text y="91.418" x="212.1,218.48,221.846,224.204,227.966,232.219,236.849,241.487,250.27,254.392,259.126,261.269,265.031,269.284,272.425" svgx:width="0.71,0.37,0.27,0.42,0.49,0.53,0.53,0.79,0.45,0.53,0.25,0.42,0.49,0.37,0.4" style="fill:rgb(23,22,21);font-family:MinionPro-It;font-size:8.97px;stroke:none;">Origanumvulgare</text>
   <text y="91.418" x="277.698,280.946,284.195,288.631" svgx:width="0.37,0.37,0.52,0.23" style="fill:rgb(23,22,21);font-family:MinionPro-Regular2;font-size:8.97px;stroke:none;">ssp.</text>
   <text y="101.873" x="66.512,70.634,75.368,77.51,81.273,85.521,88.635" svgx:width="0.45,0.53,0.25,0.42,0.49,0.37,0.4" style="fill:rgb(23,22,21);font-family:MinionPro-It;font-size:8.97px;stroke:none;">vulgare</text>
   <text y="101.873" x="94.129,96.506,101.4395,103.309,106.1,110.852,114.7091,116.549,121.76,125.671,128.935,131.644,135.429,138.813,143.7465,145.616,151.786,156.665,160.427,163.109,167.656,169.898,172.328,176.2748,178.16,181.373,185.18,189.419,191.822,196.286,201.2195,203.09,207.554,210.245,212.108,216.769,221.53,224.831,229.196,233.075,236.53,237.34" svgx:width="0.27,0.55,0.55,0.31,0.53,0.43,0.55,0.57,0.44,0.37,0.31,0.43,0.37,0.55,0.55,0.69,0.55,0.44,0.31,0.51,0.25,0.27,0.44,0.55,0.37,0.43,0.47,0.27,0.51,0.55,0.55,0.51,0.3,0.55,0.62,0.53,0.37,0.5,0.43,0.46,0.23,0.4" style="fill:rgb(23,22,21);font-family:MinionPro-Regular2;font-size:8.97px;stroke:none;">in the Eastern Anatolia region of Turkey,”</text>
   <text y="101.873" x="242.818,247.255,251.431,255.606,260.1807,262.077,267.802,271.923,276.495,279.168,282.282,286.404" svgx:width="0.53,0.47,0.47,0.51,0.55,0.63,0.47,0.53,0.31,0.37,0.47,0.25" style="fill:rgb(23,22,21);font-family:MinionPro-It;font-size:8.97px;stroke:none;">Food Control</text>
   <text y="101.873" x="288.637" svgx:width="0.23" style="fill:rgb(23,22,21);font-family:MinionPro-Regular2;font-size:8.97px;stroke:none;">,</text>
   <text y="112.327" x="66.521,70.598,75.107,77.321,79.3841,81.407,84.44,88.508,90.5711,92.594,97.463,101.774,103.8371,105.86,108.974,111.03710000000001,113.06,117.659,122.096,124.15910000000001,126.182,130.348,134.74,139.114,143.776,147.79,151.858,154.972,157.0351,159.058,163.269,167.77,172.279,176.733" svgx:width="0.46,0.51,0.25,0.23,0.55,0.34,0.45,0.23,0.55,0.55,0.51,0.23,0.55,0.46,0.23,0.55,0.52,0.52,0.23,0.55,0.45,0.5,0.49,0.52,0.45,0.45,0.46,0.23,0.55,0.47,0.49,0.49,0.5,0.23" style="fill:rgb(23,22,21);font-family:MinionPro-Regular2;font-size:8.97px;stroke:none;">vol. 15, no. 7, pp. 549–557, 2004.</text>
   <text y="125.616" x="48.014,51.112,55.37,59.445,62.4948,66.528,74.522,76.58510000000001,78.608,85.456,89.569,93.421,95.824,99.595,104.302,106.36510000000001,108.397,111.727,115.849,118.495,123.26,127.999,130.407,134.222,137.54090000000002,139.559,144.023,148.9565,150.98,155.57,158.783,163.435,168.061,172.822,176.674,179.4547,181.453,185.918,188.609,190.616,195.062,198.274,202.702,208.867,213.776,216.184,221.017,225.2329,227.254,230.466,234.327,238.26,242.112,244.893,247.301,251.765,256.69849999999997,258.722,263.312,266.525,270.332,275.035,278.887,282.099,285.951" svgx:width="0.34,0.47,0.45,0.34,0.55,0.89,0.23,0.55,0.75,0.46,0.44,0.27,0.42,0.53,0.23,0.55,0.4,0.47,0.31,0.53,0.53,0.27,0.43,0.37,0.55,0.51,0.55,0.55,0.52,0.37,0.51,0.53,0.53,0.42,0.31,0.55,0.51,0.3,0.55,0.51,0.37,0.51,0.69,0.55,0.27,0.55,0.47,0.55,0.37,0.43,0.44,0.42,0.31,0.27,0.51,0.55,0.55,0.52,0.37,0.43,0.52,0.44,0.37,0.43,0.53" style="fill:rgb(23,22,21);font-family:MinionPro-Regular2;font-size:8.97px;stroke:none;">[25] M. Oyaizu, “Studies on product of browning reaction prepared</text>
   <text y="136.07" x="66.521,69.266,72.478,76.943,86.321,90.578,92.738,97.493,101.279,105.846,109.212,113.073,116.925,124.262,126.659,131.557,135.31,136.12" svgx:width="0.3,0.37,0.51,0.82,0.47,0.25,0.53,0.42,0.51,0.37,0.43,0.44,0.82,0.27,0.55,0.43,0.23,0.4" style="fill:rgb(23,22,21);font-family:MinionPro-Regular2;font-size:8.97px;stroke:none;">fromglucoseamine,”</text>
   <text y="136.07" x="141.758,144.377,148.67,152.99,157.239,161.946,165.465,168.517,172.105,174.15,178.263" svgx:width="0.32,0.49,0.49,0.49,0.53,0.4,0.34,0.4,0.55,0.47,0.27" style="fill:rgb(23,22,21);font-family:MinionPro-It;font-size:8.97px;stroke:none;">Japanese of</text>
   <text y="136.07" x="180.69,182.7531,184.776,188.853,193.362,195.576,197.63909999999998,199.662,204.243,208.698,210.7611,212.775,217.374,221.81,223.8731,225.896,230.054,234.472,238.001,242.662,246.586,249.619,253.687,255.7501,257.773,260.716,265.09,269.383,273.82" svgx:width="0.23,0.55,0.46,0.51,0.25,0.23,0.55,0.5,0.5,0.23,0.55,0.52,0.52,0.23,0.55,0.45,0.49,0.46,0.52,0.45,0.34,0.45,0.23,0.55,0.34,0.49,0.47,0.5,0.23" style="fill:rgb(23,22,21);font-family:MinionPro-Regular2;font-size:8.97px;stroke:none;">, vol. 44, pp. 307–315, 1986.</text>
   <text y="149.359" x="47.745,50.845,55.021,59.465,62.5148,66.54,73.414,75.47710000000001,78.031,85.96,88.363,91.696,95.639,97.913,100.323,104.265,108.621,113.182,117.034,120.418,122.8399,125.395,129.247,134.116,138.8701,141.424,145.177,147.24009999999998,149.794,153.987,158.782,162.724,167.519,169.928,174.668,177.018,179.0811,181.643,183.875,190.077,194.811,197.593,199.996,204.423,208.654,211.063,215.804,219.656,224.39,227.17069999999998,229.7,233.632,237.484,240.266,242.606,246.782,249.077,251.839,255.9652,258.527,262.99,265.681,268.219,275.569,277.978,282.889,287.354" svgx:width="0.34,0.47,0.5,0.34,0.55,0.77,0.23,0.55,0.89,0.27,0.37,0.44,0.25,0.27,0.44,0.5,0.51,0.44,0.37,0.27,0.55,0.44,0.55,0.53,0.55,0.53,0.23,0.55,0.47,0.53,0.44,0.53,0.27,0.53,0.27,0.23,0.55,0.4,0.69,0.55,0.31,0.27,0.51,0.47,0.27,0.53,0.44,0.55,0.31,0.55,0.44,0.42,0.31,0.27,0.46,0.27,0.31,0.46,0.55,0.51,0.3,0.55,0.82,0.27,0.55,0.51,0.37" style="fill:rgb(23,22,21);font-family:MinionPro-Regular2;font-size:8.97px;stroke:none;">[26] H. Miraliakbari and F. Shahidi, “Antioxidant activity of minor</text>
   <text y="159.823" x="66.521,70.322,74.786,81.959,86.739,91.203,96.072,99.89,104.625,107.367,110.6859,112.686,117.151,119.842,121.821,124.603,127.815,131.634,135.4911,137.457,142.191,146.844,149.6247,151.596,156.06,158.508,160.749,164.048,164.857" svgx:width="0.42,0.51,0.82,0.52,0.51,0.55,0.43,0.55,0.31,0.37,0.55,0.51,0.3,0.55,0.31,0.37,0.43,0.43,0.55,0.55,0.53,0.31,0.55,0.51,0.27,0.25,0.37,0.23,0.4" style="fill:rgb(23,22,21);font-family:MinionPro-Regular2;font-size:8.97px;stroke:none;">components of tree nut oils,”</text>
   <text y="159.823" x="170.46,174.896,179.074,183.253,187.8277,189.84,195.498,200.044,203.595,210.498,212.982,215.916,218.632,222.097" svgx:width="0.53,0.47,0.47,0.51,0.55,0.63,0.51,0.4,0.79,0.27,0.34,0.31,0.37,0.44" style="fill:rgb(23,22,21);font-family:MinionPro-It;font-size:8.97px;stroke:none;">Food Chemistry</text>
   <text y="159.823" x="226.06,228.1231,230.11,234.187,238.697,240.91,242.9731,244.978,247.999,251.02,254.041,256.1041,258.091,262.986,267.297,269.36010000000005,271.356,275.522,277.5851,279.582,284.18,288.617" svgx:width="0.23,0.55,0.46,0.51,0.25,0.23,0.55,0.34,0.34,0.34,0.23,0.55,0.55,0.51,0.23,0.55,0.47,0.23,0.55,0.52,0.52,0.23" style="fill:rgb(23,22,21);font-family:MinionPro-Regular2;font-size:8.97px;stroke:none;">, vol. 111, no. 2, pp.</text>
   <text y="170.277" x="66.521,71.021,75.235,77.818,82.57,87.07,91.284,94.398,96.4611,98.493,102.706,107.17,111.635,115.892" svgx:width="0.5,0.47,0.34,0.52,0.5,0.47,0.46,0.23,0.55,0.47,0.49,0.49,0.47,0.23" style="fill:rgb(23,22,21);font-family:MinionPro-Regular2;font-size:8.97px;stroke:none;">421–427, 2008.</text>
   <text y="183.566" x="47.961,51.05,55.27,59.426,62.4758,66.509,72.737,74.8001,76.545,79.119,81.1821,82.926,87.665,90.063,94.963,99.864,103.742,107.198" svgx:width="0.34,0.47,0.46,0.34,0.55,0.74,0.23,0.55,0.33,0.23,0.55,0.53,0.27,0.55,0.55,0.43,0.46,0.23" style="fill:rgb(23,22,21);font-family:MinionPro-Regular2;font-size:8.97px;stroke:none;">[27] D. J. Finney,</text>
   <text y="183.566" x="110.994,115.947,119.061,123.156,127.422,129.744,132.5247,134.28,139.968,144.676,148.969,151.066,155.014,157.948,160.432" svgx:width="0.55,0.37,0.47,0.49,0.27,0.31,0.55,0.66,0.53,0.49,0.25,0.44,0.34,0.27,0.34" style="fill:rgb(23,22,21);font-family:MinionPro-It;font-size:8.97px;stroke:none;">Probit Analysis</text>
   <text y="183.566" x="163.457,165.52009999999999,167.255,173.303,177.155,184.409,188.854,192.238,194.636,199.365,203.486,207.3431,209.057,215.267,220.167,222.507,226.584,230.389,233.665,236.96,239.255,242.018,246.1442,247.894,252.863,256.075,259.881,263.166,266.451,268.51410000000004,270.249,276.297,280.149,287.493" svgx:width="0.23,0.55,0.67,0.44,0.82,0.51,0.37,0.27,0.53,0.47,0.43,0.55,0.74,0.55,0.27,0.46,0.43,0.37,0.37,0.27,0.31,0.46,0.55,0.56,0.37,0.43,0.37,0.37,0.23,0.55,0.67,0.44,0.82,0.36" style="fill:rgb(23,22,21);font-family:MinionPro-Regular2;font-size:8.97px;stroke:none;">, Cambridge University Press, Cam-</text>
   <text y="194.02" x="66.521,70.967,74.351,76.756,81.493,85.615,89.368,91.4311,93.454,100.056,106.093,108.15610000000001,110.179,114.229,117.442,122.19609999999999,124.21,128.023,132.76,135.056,137.837,140.243,144.707,149.614,151.6771,153.7,156.643,161.017,165.265,168.299" svgx:width="0.51,0.37,0.27,0.53,0.47,0.43,0.23,0.55,0.74,0.67,0.23,0.55,0.45,0.37,0.53,0.55,0.43,0.53,0.27,0.31,0.27,0.51,0.55,0.23,0.55,0.34,0.49,0.46,0.34,0.23" style="fill:rgb(23,22,21);font-family:MinionPro-Regular2;font-size:8.97px;stroke:none;">bridge, UK, 3rd edition, 1971.</text>
   <text y="207.309" x="47.871,50.955,55.176,59.426,62.4758,66.5,73.917,75.98010000000001,78.335,82.576,84.6391,87.004,92.926,97.435,102.07,106.543,109.189,111.925,113.9881,116.353,118.584,124.7733,127.153,134.46,138.262,141.052,145.832,150.484,155.2381,157.595,160.169,164.633,167.95190000000002,170.339,174.123,178.588,185.761,190.36,195.012,197.794,200.188,205.021,209.2369,211.599,214.39,219.169,223.0261,225.361,229.163,234.113,237.915,241.767,244.548,246.888,250.965,254.772,259.668,263.47,266.752,270.0709,272.431,276.895,279.58599999999996,281.926,285.778" svgx:width="0.34,0.47,0.47,0.34,0.55,0.97,0.23,0.55,0.47,0.23,0.55,0.69,0.51,0.51,0.51,0.31,0.31,0.23,0.55,0.4,0.69,0.55,0.82,0.43,0.31,0.53,0.51,0.53,0.55,0.3,0.51,0.37,0.55,0.42,0.51,0.82,0.52,0.53,0.31,0.27,0.55,0.47,0.55,0.31,0.53,0.43,0.55,0.43,0.56,0.43,0.42,0.31,0.27,0.46,0.43,0.55,0.43,0.37,0.37,0.55,0.51,0.3,0.55,0.44,0.55" style="fill:rgb(23,22,21);font-family:MinionPro-Regular2;font-size:8.97px;stroke:none;">[28] W. S. Abbott, “A method for computing the effectivenes so fan</text>
   <text y="217.772" x="66.521,68.923,73.756,77.122,80.974,84.826,87.607,90.009,93.801,96.203,100.937,104.69,105.5" svgx:width="0.27,0.55,0.37,0.43,0.42,0.31,0.27,0.42,0.27,0.53,0.43,0.23,0.4" style="fill:rgb(23,22,21);font-family:MinionPro-Regular2;font-size:8.97px;stroke:none;">insecticide,”</text>
   <text y="217.772" x="111.138,113.757,117.879,122.566,125.932,130.609,134.91,137.1525,139.195,143.307,145.72889999999998,147.79,152.659,157.23,159.891,164.013,170.977,175.099,177.295,181.506,185.457" svgx:width="0.32,0.47,0.53,0.37,0.53,0.49,0.25,0.55,0.47,0.27,0.55,0.56,0.53,0.31,0.47,0.79,0.47,0.25,0.47,0.42,0.44" style="fill:rgb(23,22,21);font-family:MinionPro-It;font-size:8.97px;stroke:none;">Journal of Entomology</text>
   <text y="217.772" x="189.441,191.5041,193.532,197.609,202.118,204.332,206.39509999999999,208.422,211.41,215.667,217.7301,219.744,224.343,228.78,230.8431,232.87,237.037,241.402,245.47,250.131,254.298,258.735,261.849,263.9121,265.939,268.882,273.157,277.414,281.482" svgx:width="0.23,0.55,0.46,0.51,0.25,0.23,0.55,0.34,0.47,0.23,0.55,0.52,0.52,0.23,0.55,0.47,0.5,0.45,0.52,0.47,0.5,0.46,0.23,0.55,0.34,0.49,0.47,0.45,0.23" style="fill:rgb(23,22,21);font-family:MinionPro-Regular2;font-size:8.97px;stroke:none;">, vol. 18, pp. 265–267, 1925.</text>
   <text y="231.043" x="47.799,50.886,55.049,59.419,62.468799999999995,66.493,74.476,76.5391,78.031,85.789,90.298,95.08,98.932,106.269,113.606,117.536,122.264,124.613,126.6761,128.178,134.367,136.43009999999998,137.922,142.575,147.102,151.737,155.508,160.29,162.35309999999998,163.854,169.551,171.61409999999998,173.106,177.669,181.648,186.175,190.936,194.788,198.172,200.521,202.58409999999998,204.076,210.938,213.00109999999998,214.502,220.929,224.817,229.074,233.826,238.554,240.903,242.96609999999998,244.467,248.319,253.218,257.9721,259.464,267.446,269.50910000000005,271.002,277.751,281.486,286.268,288.617" svgx:width="0.34,0.47,0.49,0.34,0.55,0.89,0.23,0.55,0.89,0.51,0.53,0.44,0.82,0.82,0.44,0.53,0.27,0.23,0.55,0.69,0.23,0.55,0.62,0.51,0.51,0.43,0.53,0.23,0.55,0.62,0.23,0.55,0.53,0.44,0.5,0.53,0.44,0.37,0.27,0.23,0.55,0.77,0.23,0.55,0.74,0.44,0.47,0.53,0.53,0.27,0.23,0.55,0.44,0.55,0.53,0.55,0.89,0.23,0.55,0.75,0.42,0.53,0.27,0.23" style="fill:rgb(23,22,21);font-family:MinionPro-Regular2;font-size:8.97px;stroke:none;">[29] M. Mohammadi, A. Tobeh, R. Fakhari, H. Naghdi, and M. Ochi,</text>
   <text y="241.506" x="66.512,70.31,79.877,83.7341,87.365,91.857,96.61,100.462,105.196,107.977,110.273,113.063,116.825,119.607,121.947,126.024,129.8811,133.521,137.66,140.055,143.858,146.118,150.8721,154.542,159.007,161.698,165.342,167.603,171.406,178.741,183.205,188.13850000000002,191.792,195.869,199.671,202.99,207.624,211.427,216.324,220.2708,223.947" svgx:width="0.4,1.07,0.43,0.55,0.51,0.53,0.44,0.55,0.31,0.27,0.31,0.44,0.31,0.27,0.46,0.43,0.55,0.46,0.27,0.43,0.25,0.53,0.55,0.51,0.3,0.55,0.25,0.43,0.82,0.51,0.55,0.55,0.46,0.43,0.37,0.51,0.43,0.55,0.44,0.55,0.35" style="fill:rgb(23,22,21);font-family:MinionPro-Regular2;font-size:8.97px;stroke:none;">“Th equantitativ eyiel do flemo nverben a(</text>
   <text y="241.506" x="227.055,231.627,233.986,238.261,242.527,244.937,249.3323,253.046,256.434,258.756,261.471,264.837,267.247,271.424,275.941,280.063,283.177" svgx:width="0.53,0.27,0.49,0.49,0.27,0.49,0.55,0.38,0.27,0.31,0.37,0.27,0.47,0.51,0.47,0.37,0.49" style="fill:rgb(23,22,21);font-family:MinionPro-It;font-size:8.97px;stroke:none;">Lippia citriodora</text>
   <text y="241.506" x="287.57" svgx:width="0.35" style="fill:rgb(23,22,21);font-family:MinionPro-Regular2;font-size:8.97px;stroke:none;">)</text>
   <text y="251.961" x="66.512,70.453,73.7719,77.23,79.637,84.546,89.217,93.982,97.798,102.707,106.504,110.319,115.0731,118.545,122.955,127.0812,130.56,135.299,137.706,142.656,146.471,149.684,153.499,158.233,161.0137,164.452,168.898,171.305,175.814,178.087,182.665,186.865,189.273,193.07,197.011,199.2535,202.78,205.354,209.161,212.581,215.362,217.77,220.043,222.45,226.221,230.036,233.312,236.607,237.417" svgx:width="0.44,0.37,0.55,0.27,0.55,0.53,0.53,0.43,0.55,0.42,0.43,0.53,0.55,0.51,0.46,0.55,0.53,0.27,0.56,0.43,0.37,0.43,0.55,0.31,0.55,0.51,0.27,0.51,0.25,0.51,0.47,0.27,0.42,0.44,0.25,0.55,0.3,0.43,0.37,0.31,0.27,0.25,0.27,0.42,0.43,0.37,0.37,0.23,0.4" style="fill:rgb(23,22,21);font-family:MinionPro-Regular2;font-size:8.97px;stroke:none;">as influence db ydiffere ntbiologic alfertilizers,”</text>
   <text y="251.961" x="244.486,247.141,251.713,254.377,257.968,261.334,266.041,270.235,272.908,275.32,279.442,284.149,288.442" svgx:width="0.34,0.53,0.31,0.4,0.37,0.53,0.49,0.31,0.27,0.47,0.53,0.49,0.25" style="fill:rgb(23,22,21);font-family:MinionPro-It;font-size:8.97px;stroke:none;">International</text>
   <text y="262.416" x="66.512,69.131,73.253,77.915,81.281,85.988,90.281,92.52350000000001,94.054,98.167,100.5889,102.137,107.762,111.578,114.692,118.814,123.521,127.643,134.474,138.42079999999999,139.977,144.226,148.933,153.5077,155.028,159.951,162.147,166.395,170.967,173.7477,175.26,180.201,183.315,187.49,191.927,196.67,200.135,202.808,205.22,209.341" svgx:width="0.32,0.47,0.53,0.37,0.53,0.49,0.25,0.55,0.47,0.27,0.55,0.66,0.42,0.37,0.47,0.53,0.47,0.79,0.44,0.55,0.49,0.53,0.51,0.55,0.55,0.25,0.49,0.53,0.31,0.55,0.55,0.37,0.47,0.51,0.53,0.38,0.31,0.27,0.47,0.53" style="fill:rgb(23,22,21);font-family:MinionPro-It;font-size:8.97px;stroke:none;">Journal of Agronomy and Plant Production</text>
   <text y="262.416" x="214.108,216.1711,217.678,221.755,226.265,228.478,230.5411,232.049,236.503,238.56609999999998,240.074,244.673,249.109,251.1721,252.68,256.873,259.933,264.1,268.537,273.198,277.392,280.452,284.619,288.615" svgx:width="0.23,0.55,0.46,0.51,0.25,0.23,0.55,0.5,0.23,0.55,0.52,0.52,0.23,0.55,0.47,0.34,0.47,0.5,0.52,0.47,0.34,0.47,0.49,0.23" style="fill:rgb(23,22,21);font-family:MinionPro-Regular2;font-size:8.97px;stroke:none;">, vol. 4, pp. 2126–2129,</text>
   <text y="272.88" x="66.512,70.703,75.086,78.138,82.212" svgx:width="0.47,0.49,0.34,0.45,0.23" style="fill:rgb(23,22,21);font-family:MinionPro-Regular2;font-size:8.97px;stroke:none;">2013.</text>
   <text y="286.168" x="47.763,50.858,55.015,59.437,62.486799999999995,66.511,71.605,73.66810000000001,75.16,79.411,83.348,87.083,91.565,98.909,102.761,107.667,112.572,114.63510000000001,116.137,119.574,124.668,129.618,133.47,137.322,140.1027,141.562,146.026,148.717,150.193,153.927,158.68,162.491,169.835,172.239,176.033,179.97,182.2125,183.759,187.611,192.48,197.23409999999998,198.726,203.19,206.448,210.645,214.497,219.403,221.807,225.5744,227.107,229.682,233.489,236.909,239.69,242.094,244.363,246.767,250.534,254.346,257.622,260.9409,262.419,266.883,271.81649999999996,273.301,277.44,279.844,283.656,285.925" svgx:width="0.34,0.45,0.49,0.34,0.55,0.57,0.23,0.55,0.47,0.44,0.42,0.5,0.82,0.44,0.55,0.55,0.23,0.55,0.4,0.57,0.56,0.43,0.42,0.31,0.55,0.51,0.3,0.55,0.42,0.53,0.43,0.82,0.27,0.42,0.44,0.25,0.55,0.44,0.55,0.53,0.55,0.51,0.37,0.47,0.44,0.55,0.27,0.42,0.55,0.3,0.43,0.37,0.31,0.27,0.25,0.27,0.42,0.43,0.37,0.37,0.55,0.51,0.55,0.55,0.46,0.27,0.43,0.25,0.53" style="fill:rgb(23,22,21);font-family:MinionPro-Regular2;font-size:8.97px;stroke:none;">[30] E. Sackmann, “Effec to fchemica lan dorgani cfertilizer so nyield</text>
   <text y="296.623" x="66.512,70.364,75.233,79.9871,83.485,87.29,90.574,93.94,97.745,102.479,105.26,107.69,111.62,113.86250000000001,117.407,121.872,124.319,126.56150000000001,130.097,134.562,137.25300000000001,140.727,144.462,149.244,153.096,160.433,164.898,172.235,174.632,176.894,180.7511,184.228,189.001,193.429,199.495,203.299,206.61790000000002,210.148,214.9,218.761,222.691,227.419,230.703,231.513" svgx:width="0.44,0.55,0.53,0.55,0.43,0.37,0.37,0.43,0.55,0.31,0.27,0.44,0.25,0.55,0.51,0.27,0.25,0.55,0.51,0.3,0.55,0.42,0.53,0.44,0.82,0.51,0.82,0.27,0.25,0.43,0.55,0.53,0.51,0.69,0.43,0.37,0.55,0.53,0.43,0.44,0.53,0.37,0.23,0.4" style="fill:rgb(23,22,21);font-family:MinionPro-Regular2;font-size:8.97px;stroke:none;">and essential oil of chamomile flowe rheads,”</text>
   <text y="296.623" x="238.649,246.236,249.773,254.209,256.621,260.05,262.381,267.079,271.4,273.6425,277.169,281.417,286.115" svgx:width="0.88,0.4,0.51,0.27,0.38,0.27,0.53,0.49,0.25,0.55,0.49,0.53,0.51" style="fill:rgb(23,22,21);font-family:MinionPro-It;font-size:8.97px;stroke:none;">Medicinal and</text>
   <text y="307.078" x="66.512,72.2,75.314,79.436,86.429,90.623,93.296,95.708,99.1166,100.523,105.445,107.641,111.895,116.467,119.2477,120.606,124.855,128.283,130.695,134.286,138.994,142.36,145.948,147.337,151.591,156.298,162.238,167.29,169.702,173.806,176.47,180.007,183.292,187.734,192.442,196.563,198.759,202.971,206.921" svgx:width="0.66,0.37,0.47,0.79,0.49,0.31,0.27,0.38,0.55,0.55,0.25,0.49,0.53,0.31,0.55,0.47,0.38,0.27,0.4,0.53,0.38,0.4,0.55,0.49,0.53,0.51,0.58,0.27,0.47,0.31,0.4,0.38,0.51,0.53,0.47,0.25,0.47,0.42,0.44" style="fill:rgb(23,22,21);font-family:MinionPro-It;font-size:8.97px;stroke:none;">Aromatic Plant Science andBiotechnology</text>
   <text y="307.078" x="210.889,212.9521,214.309,218.386,222.895,225.109,227.1721,228.529,232.597,234.6601,236.016,240.615,245.052,247.11509999999998,248.472,252.863,256.914,261.666,266.256,270.513,272.5761,273.933,278.144,282.527,285.56,288.594" svgx:width="0.23,0.55,0.46,0.51,0.25,0.23,0.55,0.45,0.23,0.55,0.52,0.52,0.23,0.55,0.5,0.45,0.52,0.5,0.47,0.23,0.55,0.47,0.49,0.34,0.34,0.23" style="fill:rgb(23,22,21);font-family:MinionPro-Regular2;font-size:8.97px;stroke:none;">, vol. 5, pp. 43–48, 2011.</text>
   <text y="320.366" x="49.386,52.481,56.405,59.438,62.4878,66.512,72.209,74.27210000000001,76.754,83.099,87.862,91.19,94.958" svgx:width="0.34,0.45,0.34,0.34,0.55,0.62,0.23,0.55,0.74,0.53,0.37,0.42,0.46" style="fill:rgb(23,22,21);font-family:MinionPro-Regular2;font-size:8.97px;stroke:none;">[31] R. Nurzy</text>
   <text y="320.312" x="99.724" svgx:width="0.4" style="fill:rgb(23,22,21);font-family:MinionPro-Regular2;font-size:8.97px;stroke:none;">´</text>
   <text y="320.366" x="99.069,103.981,107.279,111.733,115.677,118.187,126.548,128.959,132.776,135.989,140.75,144.694,149.148,151.2111,153.72,157.05,161.154,167.22,171.038,174.856,177.6367,180.103,184.702,188.645,191.943,194.353,196.59550000000002,199.132,202.95,206.248,209.614,213.421,218.155,220.937,223.347,227.29,229.5325,232.069,236.533,238.943,241.18550000000002,243.713,247.513,251.978,259.151,263.93,268.51,271.808,274.103,276.884,279.295,283.759,288.671" svgx:width="0.55,0.37,0.5,0.44,0.36,0.97,0.27,0.43,0.37,0.53,0.44,0.5,0.23,0.55,0.4,0.47,0.69,0.43,0.43,0.31,0.55,0.51,0.44,0.37,0.27,0.25,0.55,0.43,0.37,0.37,0.43,0.55,0.31,0.27,0.44,0.25,0.55,0.51,0.27,0.25,0.55,0.42,0.51,0.82,0.52,0.51,0.37,0.27,0.31,0.27,0.51,0.55,0.23" style="fill:rgb(23,22,21);font-family:MinionPro-Regular2;font-size:8.97px;stroke:none;">nska-Wierdak, “Sweet basil essential oil composition:</text>
   <text y="330.83" x="66.512,72.11,75.881,78.176,81.939,84.72,87.123,91.602,96.412,99.67,104.458,106.767,111.4314,113.624,118.259,122.066,124.829,130.894,134.746,138.553,143.4865,145.627,149.479,154.285,156.445,159.226,161.567,165.715,169.567,172.33,174.3931,176.541,179.101,183.58,185.848,188.278,192.12,195.43890000000002,197.601,200.161,204.013,207.865,212.599,215.002,219.835,224.0509,226.197,232.363,234.672,237.462,242.21609999999998,244.41,249.315,251.623,254.405,257.637,262.209,266.311,270.118,275.0515,277.174,281.026,285.895" svgx:width="0.62,0.43,0.25,0.44,0.31,0.27,0.51,0.55,0.37,0.53,0.27,0.52,0.55,0.51,0.43,0.31,0.69,0.43,0.43,0.55,0.55,0.42,0.53,0.25,0.31,0.27,0.46,0.44,0.37,0.23,0.55,0.3,0.51,0.25,0.27,0.44,0.37,0.55,0.3,0.43,0.43,0.53,0.27,0.55,0.47,0.55,0.69,0.27,0.31,0.53,0.55,0.55,0.27,0.31,0.37,0.51,0.47,0.43,0.55,0.55,0.44,0.55,0.53" style="fill:rgb(23,22,21);font-family:MinionPro-Regular2;font-size:8.97px;stroke:none;">Relationship between cultivar, foliar feeding with nitrogen and</text>
   <text y="341.285" x="66.512,70.976,73.424,75.66650000000001,77.933,81.723,86.187,90.921,93.603,97.41,102.145,104.88,105.69" svgx:width="0.51,0.27,0.25,0.55,0.42,0.51,0.55,0.31,0.43,0.55,0.31,0.23,0.4" style="fill:rgb(23,22,21);font-family:MinionPro-Regular2;font-size:8.97px;stroke:none;">oil content,”</text>
   <text y="341.285" x="111.532,114.151,118.273,122.935,126.301,131.008,135.301,137.5435,139.793,143.906,146.3279,148.594,153.643,156.577,159.628,163.219,167.791,170.464,172.876,177.169,179.41150000000002,181.66,188.041,190.444,192.6865,194.935,200.281,203.8,206.852,210.389,214.637,217.751,221.072" svgx:width="0.32,0.47,0.53,0.37,0.53,0.49,0.25,0.55,0.47,0.27,0.55,0.56,0.34,0.34,0.4,0.53,0.31,0.27,0.49,0.25,0.55,0.71,0.27,0.25,0.55,0.6,0.4,0.34,0.4,0.49,0.37,0.38,0.51" style="fill:rgb(23,22,21);font-family:MinionPro-It;font-size:8.97px;stroke:none;">Journal of Essential Oil Research</text>
   <text y="341.285" x="225.648,227.7111,229.93,234.007,238.516,240.73,242.79309999999998,245.012,249.054,253.508,255.5711,257.791,262.659,266.97,269.03310000000005,271.253,275.303,277.3661,279.585,284.184,288.621" svgx:width="0.23,0.55,0.46,0.51,0.25,0.23,0.55,0.47,0.5,0.23,0.55,0.55,0.51,0.23,0.55,0.45,0.23,0.55,0.52,0.52,0.23" style="fill:rgb(23,22,21);font-family:MinionPro-Regular2;font-size:8.97px;stroke:none;">, vol. 24, no. 3, pp.</text>
   <text y="351.739" x="66.512,70.713,73.691,77.22,81.881,86.082,90.283,93.397,95.46010000000001,97.492,101.693,106.075,109.137,113.338" svgx:width="0.47,0.34,0.46,0.52,0.47,0.47,0.46,0.23,0.55,0.47,0.49,0.34,0.47,0.23" style="fill:rgb(23,22,21);font-family:MinionPro-Regular2;font-size:8.97px;stroke:none;">217–227, 2012.</text>
   <text y="365.028" x="48.257,51.343,55.249,59.411,62.4608,66.494,70.737,72.8001,76.992,81.582,86.055,90.809,94.175,97.979,101.173,104.932,108.861,113.588,117.392,122.173,124.23610000000001,128.446,132.694,134.75709999999998,138.949,145.138,147.2011,151.401,159.393,161.4561,165.639,173.397,178.05,182.811,186.663,190.047,193.259,197.063,200.346,203.531,207.774,211.626,216.524,220.295,224.93,228.385,230.44809999999998,234.658,238.411,240.4741,244.666,249.04,252.844,257.634,262.413,266.777,271.242,276.147,278.2101,282.41,288.599" svgx:width="0.34,0.45,0.47,0.34,0.55,0.47,0.23,0.55,0.63,0.51,0.53,0.37,0.43,0.3,0.42,0.44,0.53,0.43,0.53,0.23,0.55,0.47,0.23,0.55,0.69,0.23,0.55,0.89,0.23,0.55,0.89,0.51,0.53,0.44,0.37,0.37,0.43,0.37,0.36,0.47,0.44,0.55,0.44,0.46,0.46,0.23,0.55,0.53,0.23,0.55,0.47,0.43,0.54,0.53,0.5,0.51,0.55,0.23,0.55,0.69,0.23" style="fill:rgb(23,22,21);font-family:MinionPro-Regular2;font-size:8.97px;stroke:none;">[32] S. Yousefzadeh, S. A. M. Modarres-Sanavy, F. Sefidkon ,A.</text>
   <text y="375.483" x="66.512,72.56,75.852,80.05,83.902,87.231,90.998,94.936,99.673,103.485,108.275,110.33810000000001,114.404,120.597,122.6601,126.698,133.079,137.869,141.807,144.077,147.848,152.001,155.853,160.76,165.439,167.50209999999998,171.568,175.42,180.326,185.0801,189.129,195.165,197.22809999999998,201.275,205.527,209.465,214.201,217.964,220.7,223.409,229.457,232.749,235.154,237.424,241.276,246.183,248.24609999999998,252.302,255.74,260.835,265.785,269.598,273.449,276.186,279.50489999999996,283.539,288.004" svgx:width="0.69,0.37,0.47,0.44,0.37,0.42,0.44,0.53,0.43,0.53,0.23,0.55,0.69,0.23,0.55,0.71,0.53,0.44,0.25,0.44,0.46,0.44,0.55,0.53,0.23,0.55,0.44,0.55,0.53,0.55,0.67,0.23,0.55,0.47,0.44,0.53,0.44,0.31,0.36,0.69,0.37,0.27,0.25,0.44,0.55,0.23,0.55,0.4,0.57,0.56,0.43,0.42,0.31,0.37,0.55,0.51,0.3" style="fill:rgb(23,22,21);font-family:MinionPro-Regular2;font-size:8.97px;stroke:none;">Asgarzadeh, A. Ghalavand, and K. Sadat-Asilan, “Effect sof</text>
   <text y="385.946" x="66.512,72.699,76.456,81.108,84.892,89.356,96.529,101.308,105.872,109.154,111.93469999999999,116.84,120.692,125.587,130.3411,135.262,140.014,143.227,147.088,151.0348,155.953,160.417,165.3505,170.263,173.054,177.806,181.66310000000001,186.553,191.306,195.107,198.425,203.024,206.912,211.033,214.8901,219.781,223.888,226.282,230.083,232.343,237.09709999999998,242.027,245.879,250.774,255.5281,260.44,264.224,268.688,273.423,276.104,279.906,284.64,287.366" svgx:width="0.69,0.42,0.51,0.42,0.51,0.82,0.52,0.51,0.37,0.31,0.55,0.44,0.55,0.53,0.55,0.53,0.37,0.43,0.44,0.55,0.51,0.55,0.55,0.31,0.53,0.43,0.55,0.53,0.43,0.37,0.51,0.44,0.47,0.43,0.55,0.46,0.27,0.43,0.25,0.53,0.55,0.44,0.55,0.53,0.55,0.42,0.51,0.55,0.31,0.43,0.55,0.31,0.37" style="fill:rgb(23,22,21);font-family:MinionPro-Regular2;font-size:8.97px;stroke:none;">Azocompost and urea on the herbage yield and contents</text>
   <text y="396.401" x="66.512,70.347,75.216,79.97009999999999,84.738,88.527,92.999,100.172,104.951,109.523,112.817,115.113,117.894,120.297,124.769,129.572,132.89090000000002,137.645,142.11,144.80100000000002,149.544,153.351,156.599,159.965,163.772,168.507,171.288,173.718,177.696,179.9385,184.752,189.224,191.671,193.912,197.23090000000002,201.985,204.73,207.943,212.414,219.7694,224.537,227.299,233.365,237.93970000000002,242.725,246.847,250.654,255.523,259.994,262.757,266.87,271.649,275.456,278.7749,283.538,288.01" svgx:width="0.44,0.55,0.53,0.55,0.42,0.51,0.82,0.52,0.51,0.37,0.27,0.31,0.27,0.51,0.55,0.37,0.55,0.51,0.3,0.55,0.43,0.37,0.37,0.43,0.55,0.31,0.27,0.44,0.25,0.55,0.51,0.27,0.25,0.37,0.55,0.3,0.37,0.51,0.82,0.55,0.31,0.69,0.51,0.55,0.47,0.43,0.55,0.51,0.31,0.46,0.52,0.43,0.37,0.55,0.51,0.3" style="fill:rgb(23,22,21);font-family:MinionPro-Regular2;font-size:8.97px;stroke:none;">and compositions of essential oils from two genotypes of</text>
   <text y="406.856" x="66.512,71.242,74.564,78.496,82.618,87.082,92.032,96.816,100.677,104.609,109.36309999999999,112.168,115.266,121.852,125.174,129.106,132.894,137.547,141.335,145.141,149.776,154.559,158.538,160.698,165.455,172.81040000000002,175.633,182.941,187.45,189.714,194.444,198.215,202.362,204.761,208.549,212.4958,215.317,220.136,222.176,225.3155,228.089,230.488,235.4215,238.21,240.972,247.038,251.61270000000002,254.436,257.649,261.455,265.694,268.093,272.557,277.39,280.70889999999997,283.501,287.965" svgx:width="0.53,0.37,0.44,0.47,0.51,0.55,0.53,0.43,0.44,0.53,0.55,0.35,0.74,0.37,0.44,0.42,0.51,0.42,0.43,0.52,0.53,0.44,0.25,0.53,0.82,0.55,0.82,0.51,0.25,0.53,0.44,0.46,0.27,0.42,0.44,0.55,0.54,0.23,0.35,0.55,0.27,0.55,0.55,0.31,0.69,0.51,0.55,0.37,0.43,0.47,0.27,0.51,0.55,0.37,0.55,0.51,0.3" style="fill:rgb(23,22,21);font-family:MinionPro-Regular2;font-size:8.97px;stroke:none;">dragonhead (Dracocephalum moldavica L.) in two regions of</text>
   <text y="417.32" x="66.512,69.428,72.758,76.61,81.515,82.324" svgx:width="0.34,0.37,0.44,0.55,0.23,0.4" style="fill:rgb(23,22,21);font-family:MinionPro-Regular2;font-size:8.97px;stroke:none;">Iran,”</text>
   <text y="417.32" x="87.951,92.387,96.566,100.744,105.3187,107.359,113.016,117.562,121.113,128.016,130.5,133.434,136.151,139.615" svgx:width="0.53,0.47,0.47,0.51,0.55,0.63,0.51,0.4,0.79,0.27,0.34,0.31,0.37,0.44" style="fill:rgb(23,22,21);font-family:MinionPro-It;font-size:8.97px;stroke:none;">Food Chemistry</text>
   <text y="417.32" x="143.578,145.6411,147.659,151.736,156.245,158.459,160.5221,162.54,165.573,169.722,173.979,176.0421,178.06,182.928,187.239,189.3021,191.32,195.487,198.681,202.731,204.7941,206.817,211.416,215.853,217.9161,219.933,222.822,227.376,231.795,235.323,239.985,242.874,247.329,250.362,254.412,256.4751,258.493,262.704,267.087,270.12,274.17" svgx:width="0.23,0.55,0.46,0.51,0.25,0.23,0.55,0.34,0.45,0.47,0.23,0.55,0.55,0.51,0.23,0.55,0.47,0.36,0.45,0.23,0.55,0.52,0.52,0.23,0.55,0.34,0.5,0.49,0.46,0.52,0.34,0.5,0.34,0.45,0.23,0.55,0.47,0.49,0.34,0.45,0.23" style="fill:rgb(23,22,21);font-family:MinionPro-Regular2;font-size:8.97px;stroke:none;">, vol. 138, no. 2-3, pp. 1407–1413, 2013.</text>
   <text y="430.608" x="48.373,51.469,55.384,59.434,62.483799999999995,66.517,73.384,75.4471,79.648,86.056,88.1191,92.32,96.514,101.211,105.351,112.668,116.52,121.424,123.48710000000001,127.688,130.262,132.3251,136.526,144.518,146.5811,150.782,157.424,161.2811,165.455,168.217,172.681,177.514,181.997,184.0601,188.261,192.113,196.981,201.7351,205.935,210.579,212.6421,216.843,223.035,225.0981,229.299,233.547,235.6101,239.811,245.409,249.486,253.257,255.525,257.928,262.761,267.243,269.3061,273.507,277.305,286.872" svgx:width="0.34,0.45,0.45,0.34,0.55,0.77,0.23,0.55,0.71,0.23,0.55,0.47,0.55,0.46,0.82,0.44,0.55,0.23,0.55,0.33,0.23,0.55,0.89,0.23,0.55,0.74,0.43,0.55,0.33,0.51,0.55,0.47,0.23,0.55,0.44,0.55,0.53,0.55,0.62,0.23,0.55,0.69,0.23,0.55,0.47,0.23,0.55,0.69,0.46,0.43,0.25,0.27,0.55,0.47,0.23,0.55,0.4,1.07,0.43" style="fill:rgb(23,22,21);font-family:MinionPro-Regular2;font-size:8.97px;stroke:none;">[33] H. G. Snyman, J. M. De Jong, and T. A. S. Aveling, “The</text>
   <text y="441.063" x="66.521,69.816,72.607,76.467,80.913,83.321,85.593,88.001,91.771,95.534,98.315,100.723,105.187,110.12049999999999,112.72,117.183,119.87400000000001,122.466,125.832,129.711,135.848,139.736,143.858,147.7151,150.302,153.56,155.72,160.485,165.224,169.346,173.2031,175.781,179.543,184.142,188.777,191.05,193.457,197.273,202.0271,204.635,207.317,211.89170000000001,214.517,218.405,222.644,226.028,228.431,232.283,237.089,239.249,241.895,246.661,249.992,253.932,256.17449999999997,258.828,261.101,264.953,269.862,274.6161,277.215,281.067,285.936" svgx:width="0.37,0.31,0.44,0.51,0.27,0.25,0.27,0.42,0.44,0.31,0.27,0.51,0.55,0.55,0.51,0.3,0.55,0.37,0.43,0.69,0.44,0.47,0.43,0.55,0.37,0.25,0.53,0.53,0.47,0.43,0.55,0.44,0.52,0.52,0.25,0.27,0.43,0.53,0.55,0.31,0.51,0.55,0.44,0.47,0.37,0.27,0.42,0.53,0.25,0.31,0.53,0.37,0.44,0.25,0.55,0.25,0.44,0.55,0.53,0.55,0.44,0.55,0.53" style="fill:rgb(23,22,21);font-family:MinionPro-Regular2;font-size:8.97px;stroke:none;">stabilization of sewage sludge applied to agricultural land and</text>
   <text y="451.518" x="66.521,69.283,74.035,77.8921,80.497,84.304,89.254,93.106,96.926,99.688,103.0069,105.637,110.101,115.0345,117.661,124.978,128.829,131.232,135.025,138.8821,141.496,144.814,148.651,152.489,157.25,159.546,161.976,166.808,171.002,174.32,175.129" svgx:width="0.31,0.53,0.43,0.55,0.43,0.56,0.43,0.42,0.31,0.37,0.55,0.51,0.55,0.55,0.82,0.44,0.27,0.42,0.43,0.55,0.37,0.43,0.43,0.53,0.25,0.27,0.55,0.47,0.37,0.23,0.4" style="fill:rgb(23,22,21);font-family:MinionPro-Regular2;font-size:8.97px;stroke:none;">the effect so nmaiz eseedlings,”</text>
   <text y="451.518" x="181.399,189.067,193.26,195.924,199.515,202.8339,205.473,209.722,213.15,215.562,219.153,223.861,227.227,230.815,233.473,237.721,242.428,247.0027,249.664,254.2,257.738,261.059,265.486,270.194,274.316,276.512,280.723,284.674" svgx:width="0.95,0.49,0.31,0.4,0.37,0.55,0.47,0.38,0.27,0.4,0.53,0.38,0.4,0.55,0.49,0.53,0.51,0.55,0.6,0.4,0.38,0.51,0.53,0.47,0.25,0.47,0.42,0.44" style="fill:rgb(23,22,21);font-family:MinionPro-It;font-size:8.97px;stroke:none;">Water Science and Technology</text>
   <text y="451.518" x="288.637" svgx:width="0.23" style="fill:rgb(23,22,21);font-family:MinionPro-Regular2;font-size:8.97px;stroke:none;">,</text>
   <text y="461.972" x="66.53,70.607,75.116,77.33,79.3931,81.416,85.565,89.822,91.88510000000001,93.908,98.777,103.088,105.1511,107.165,111.325,113.38810000000001,115.411,120.01,124.447,126.51010000000001,128.524,132.744,136.272,140.934,145.301,149.363,151.4261,153.457,156.4,160.837,165.203,169.454" svgx:width="0.46,0.51,0.25,0.23,0.55,0.45,0.47,0.23,0.55,0.55,0.51,0.23,0.55,0.47,0.23,0.55,0.52,0.52,0.23,0.55,0.47,0.46,0.52,0.49,0.45,0.23,0.55,0.34,0.49,0.49,0.47,0.23" style="fill:rgb(23,22,21);font-family:MinionPro-Regular2;font-size:8.97px;stroke:none;">vol. 38, no. 2, pp. 87–95, 1998.</text>
   <text y="475.261" x="47.745,50.842,54.999,59.454,62.5038,66.528,72.558,74.62110000000001,77.491,82.45,86.212,88.994,91.397,94.78,97.183,100.378,104.752,109.225,114.031,118.514,120.863,122.9261,125.795,130.044,132.1071,134.976,141.411,145.875,149.295,151.977,155.713,157.98,160.383,165.369,167.4321,170.302,174.154,179.022,183.77609999999999,186.645,192.873,194.93609999999998,197.805,205.221,207.2841,210.154,215.113,218.884,225.086,227.353,231.817,234.579,236.6421,239.512,242.949,249.42,251.716,254.497,257.71,262.282,266.404,270.211,275.1445,278.003,280.578,284.385,287.499" svgx:width="0.34,0.45,0.5,0.34,0.55,0.67,0.23,0.55,0.54,0.44,0.31,0.27,0.37,0.27,0.36,0.47,0.51,0.53,0.5,0.27,0.23,0.55,0.47,0.23,0.55,0.74,0.51,0.37,0.31,0.42,0.25,0.27,0.56,0.23,0.55,0.44,0.55,0.53,0.55,0.74,0.23,0.55,0.97,0.23,0.55,0.54,0.44,0.69,0.25,0.51,0.37,0.23,0.55,0.4,0.74,0.27,0.31,0.37,0.51,0.47,0.43,0.55,0.55,0.3,0.43,0.37,0.36" style="fill:rgb(23,22,21);font-family:MinionPro-Regular2;font-size:8.97px;stroke:none;">[34] K. Latiri-Souki, S. Nortcliff ,an dD .W .Lawlor ,“Nitroge nfer-</text>
   <text y="485.724" x="66.53,69.311,71.759,74.025,76.425,80.189,83.997,87.3159,89.694,93.484,97.336,102.2695,104.617,107.017,111.919,115.709,118.922,122.783,126.716,130.082,133.9391,136.256,140.988,144.579,148.70520000000002,151.05,158.391,162.153,164.799,167.481,171.289,174.051,176.11409999999998,178.47,182.709,186.033,189.885,192.286,197.2195,199.557,204.147,207.36,212.013,216.638,221.397,225.249,228.03,230.43,234.895,239.82850000000002,242.158,246.01,250.878,255.63209999999998,257.98,261.31,265.243,269.975,272.375,276.138,278.919,281.319,285.784" svgx:width="0.31,0.27,0.25,0.27,0.42,0.43,0.37,0.55,0.42,0.44,0.55,0.55,0.27,0.55,0.42,0.37,0.43,0.44,0.37,0.43,0.55,0.53,0.37,0.46,0.55,0.82,0.44,0.31,0.31,0.43,0.37,0.23,0.55,0.47,0.37,0.44,0.27,0.55,0.55,0.52,0.37,0.51,0.53,0.53,0.42,0.31,0.27,0.51,0.55,0.55,0.44,0.55,0.53,0.55,0.37,0.44,0.53,0.27,0.44,0.31,0.27,0.51,0.55" style="fill:rgb(23,22,21);font-family:MinionPro-Regular2;font-size:8.97px;stroke:none;">tilizer can increase dry matter, grain production and radiation</text>
   <text y="496.179" x="66.53,70.382,75.251,80.0051,83.405,89.538,93.3,95.982,99.784,103.1029,106.543,111.295,114.661,118.5181,121.888,125.695,132.841,136.625,139.019,142.821,147.716,151.5,153.894,157.696,161.0149,164.419,166.993,171.458,174.7769,178.207,182.833,187.594,191.014,195.775,203.1304,206.531,212.732,217.511,221.372,225.134,227.91469999999998,231.299,236.052,240.947,245.672,249.474,252.7929,256.224,259.59,263.392,270.726,273.12,276.303,280.155,283.539,285.933" svgx:width="0.44,0.55,0.53,0.55,0.69,0.44,0.31,0.43,0.37,0.55,0.53,0.37,0.43,0.55,0.43,0.8,0.42,0.27,0.43,0.55,0.42,0.27,0.43,0.37,0.55,0.3,0.51,0.37,0.55,0.53,0.53,0.37,0.53,0.82,0.55,0.69,0.53,0.43,0.44,0.31,0.55,0.53,0.55,0.53,0.43,0.37,0.55,0.37,0.43,0.82,0.27,0.36,0.44,0.37,0.27,0.53" style="fill:rgb(23,22,21);font-family:MinionPro-Regular2;font-size:8.97px;stroke:none;">and water use efficienci esf ordur umwhe atund ersemi-arid</text>
   <text y="506.634" x="66.53,70.316,74.78,79.677,84.405,86.7,89.481,91.877,96.341,101.174,104.469,105.278" svgx:width="0.42,0.51,0.55,0.53,0.27,0.31,0.27,0.51,0.55,0.37,0.23,0.4" style="fill:rgb(23,22,21);font-family:MinionPro-Regular2;font-size:8.97px;stroke:none;">conditions,”</text>
   <text y="506.634" x="110.806,115.675,120.336,123.451,127.581,131.901,135.439,139.687,144.4411,146.428,149.047,153.169,157.855,161.221,165.899,170.2,172.4425,174.403,178.516,180.93789999999998,182.917,188.541,192.357,195.471,199.593,204.271,208.393,215.223" svgx:width="0.56,0.53,0.37,0.47,0.49,0.4,0.49,0.53,0.55,0.32,0.47,0.53,0.37,0.53,0.49,0.25,0.55,0.47,0.27,0.55,0.66,0.42,0.37,0.47,0.53,0.47,0.79,0.44" style="fill:rgb(23,22,21);font-family:MinionPro-It;font-size:8.97px;stroke:none;">European Journal of Agronomy</text>
   <text y="506.634" x="219.21,221.2731,223.213,227.29,231.8,234.013,236.0761,238.017,242.013,244.0761,246.017,250.885,255.197,257.2601,259.193,262.226,264.2891,266.214,270.812,275.249,277.31210000000004,279.253,283.446,286.029" svgx:width="0.23,0.55,0.46,0.51,0.25,0.23,0.55,0.49,0.23,0.55,0.55,0.51,0.23,0.55,0.34,0.23,0.55,0.52,0.52,0.23,0.55,0.47,0.34,0.52" style="fill:rgb(23,22,21);font-family:MinionPro-Regular2;font-size:8.97px;stroke:none;">, vol. 9, no. 1, pp. 21–</text>
   <text y="517.098" x="66.53,70.688,75.142,77.2051,79.228,82.171,86.608,90.981,95.239" svgx:width="0.45,0.5,0.23,0.55,0.34,0.49,0.49,0.47,0.23" style="fill:rgb(23,22,21);font-family:MinionPro-Regular2;font-size:8.97px;stroke:none;">34, 1998.</text>
   <text y="530.386" x="48.274,51.369,55.374,59.446,62.495799999999996,66.529,71.173,73.23610000000001,75.736,82.252,87.00609999999999,89.532,93.384,98.253,103.0071,105.516,111.438,113.50110000000001,116.001,120.375,124.11,128.898,136.243,138.647,143.382,148.171,152.108,154.268,156.95,160.761,163.524,165.5871,168.096,171.534,178.125,181.338,185.811,190.573,194.83,199.447,202.2277,204.703,208.555,213.461,218.2151,220.714,224.062,228.041,230.31,232.714,237.62,239.915,242.651,247.042,249.1051,251.605,257.79429999999996,260.317,264.111,268.574,275.747,280.491,284.343,287.457" svgx:width="0.34,0.45,0.45,0.34,0.55,0.63,0.23,0.55,0.77,0.53,0.55,0.44,0.55,0.53,0.55,0.74,0.23,0.55,0.47,0.42,0.53,0.82,0.27,0.53,0.53,0.44,0.25,0.31,0.43,0.37,0.23,0.55,0.4,0.74,0.37,0.51,0.53,0.47,0.53,0.31,0.55,0.44,0.55,0.53,0.55,0.37,0.44,0.25,0.27,0.55,0.27,0.31,0.46,0.23,0.55,0.69,0.55,0.42,0.51,0.82,0.52,0.44,0.37,0.36" style="fill:rgb(23,22,21);font-family:MinionPro-Regular2;font-size:8.97px;stroke:none;">[35] Y. Hu and U. Schmidhalter, “Drought and salinity: A compar-</text>
   <text y="540.841" x="66.53,68.936,72.302,76.766,81.6995,84.362,88.827,91.518,94.181,96.972,101.724,105.537,107.943,111.2619,113.964,117.771,122.722,126.574,130.425,133.163,136.48190000000002,139.157,143.621,148.55450000000002,151.227,158.573,160.978,165.886,169.699,173.028,176.967,179.20950000000002,181.927,186.661,191.314,194.095,197.479,199.774,202.556,204.961,209.426,214.3595,217.022,221.486,224.177,226.841,231.476,233.747,237.599,242.333,245.071,248.364,249.174" svgx:width="0.27,0.37,0.51,0.55,0.55,0.51,0.3,0.55,0.31,0.53,0.43,0.27,0.37,0.55,0.43,0.56,0.43,0.42,0.31,0.37,0.55,0.51,0.55,0.55,0.82,0.27,0.55,0.43,0.37,0.44,0.25,0.55,0.55,0.53,0.31,0.37,0.27,0.31,0.27,0.51,0.55,0.55,0.51,0.3,0.55,0.52,0.25,0.44,0.55,0.31,0.37,0.23,0.4" style="fill:rgb(23,22,21);font-family:MinionPro-Regular2;font-size:8.97px;stroke:none;">ison of their effect so nminera lnutritio no fplants,”</text>
   <text y="540.841" x="255.416,258.035,262.157,266.819,270.185,274.892,279.185,281.4275,284.145,288.257" svgx:width="0.32,0.47,0.53,0.37,0.53,0.49,0.25,0.55,0.47,0.27" style="fill:rgb(23,22,21);font-family:MinionPro-It;font-size:8.97px;stroke:none;">Journal of</text>
   <text y="551.296" x="66.53,71.453,73.648,77.903,82.475,85.25569999999999,88.514,94.526,99.166,101.839,105.205,107.527,110.2,112.612,116.734,121.48809999999999,124.779,129.034,133.741,138.31570000000002,141.581,145.829,149.951,152.354,154.59650000000002,157.871,162.119,165.548,167.96,171.551,176.258,179.624" svgx:width="0.55,0.25,0.49,0.53,0.31,0.55,0.7,0.53,0.31,0.37,0.27,0.31,0.27,0.47,0.53,0.55,0.49,0.53,0.51,0.55,0.47,0.47,0.27,0.25,0.55,0.47,0.38,0.27,0.4,0.53,0.38,0.4" style="fill:rgb(23,22,21);font-family:MinionPro-It;font-size:8.97px;stroke:none;">Plant Nutrition and Soil Science</text>
   <text y="551.296" x="183.21,185.2731,188.504,192.581,197.091,199.304,201.3671,204.599,207.587,212.096,216.353,218.4161,221.648,226.517,230.828,232.8911,236.122,240.577,242.6401,245.878,250.477,254.913,256.97610000000003,260.208,264.374,268.829,271.412,276.074,280.241,284.632,288.629" svgx:width="0.23,0.55,0.46,0.51,0.25,0.23,0.55,0.34,0.5,0.47,0.23,0.55,0.55,0.51,0.23,0.55,0.5,0.23,0.55,0.52,0.52,0.23,0.55,0.45,0.5,0.34,0.52,0.45,0.5,0.49,0.23" style="fill:rgb(23,22,21);font-family:MinionPro-Regular2;font-size:8.97px;stroke:none;">, vol. 168, no. 4, pp. 541–549,</text>
   <text y="561.76" x="66.53,70.729,75.179,79.629,83.729" svgx:width="0.47,0.49,0.49,0.45,0.23" style="fill:rgb(23,22,21);font-family:MinionPro-Regular2;font-size:8.97px;stroke:none;">2005.</text>
   <text y="575.03" x="47.781,50.88,55.02,59.464,62.513799999999996,66.538,70.794,72.8571,74.447,79.352,83.159,85.455,88.245,92.826,96.281,98.34410000000001,99.944,107.939,110.0021,111.583,115.832,117.8951,119.486,125.894,129.755,134.354,138.295,140.609,142.883,146.824,151.618,153.6811,155.289,159.141,164.01,168.76409999999998,170.355,176.547,178.6101,180.201,188.195,190.25809999999998,191.84,198.32,202.784,210.101,214.043,217.984,220.0471,221.647,223.879,229.927,233.223,236.589,241.241,245.03,247.439,251.201,253.982,256.323,260.4,264.2571,265.817,268.226,275.399,280.142,284.075,287.927" svgx:width="0.34,0.45,0.5,0.34,0.55,0.47,0.23,0.55,0.54,0.43,0.27,0.31,0.53,0.46,0.23,0.55,0.89,0.23,0.55,0.47,0.23,0.55,0.71,0.44,0.51,0.44,0.25,0.25,0.44,0.53,0.23,0.55,0.44,0.55,0.53,0.55,0.69,0.23,0.55,0.89,0.23,0.55,0.71,0.51,0.82,0.44,0.44,0.23,0.55,0.4,0.69,0.37,0.37,0.51,0.42,0.27,0.44,0.31,0.27,0.46,0.43,0.55,0.27,0.82,0.52,0.44,0.42,0.31" style="fill:rgb(23,22,21);font-family:MinionPro-Regular2;font-size:8.97px;stroke:none;">[36] S. Leithy, M. S. Gaballah, and A. M. Gomaa, “Associative impact</text>
   <text y="585.494" x="66.53,70.994,73.685,75.702,80.147,82.55,87.128,90.3572,92.375,96.227,101.095,105.84909999999999,107.881,112.346,115.604,119.798,123.65,128.559,130.966,134.73340000000002,136.816,139.39,143.197,146.617,149.398,151.806,154.079,156.486,160.257,164.072,167.348,170.66690000000003,172.694,177.158,182.0915,184.115,188.237,192.052,195.383,199.235,204.14,206.435,211.197,220.593,225.227,227.5,231.352,236.086,238.826,242.1449,244.171,248.411,251.623,256.051,262.198,267.13149999999996,269.164,273.929,278.838,283.577,287.392" svgx:width="0.51,0.3,0.55,0.51,0.27,0.51,0.36,0.55,0.44,0.55,0.53,0.55,0.51,0.37,0.47,0.44,0.55,0.27,0.42,0.55,0.3,0.43,0.37,0.31,0.27,0.25,0.27,0.42,0.43,0.37,0.37,0.55,0.51,0.55,0.55,0.47,0.43,0.37,0.44,0.55,0.27,0.53,0.82,0.52,0.25,0.44,0.55,0.31,0.37,0.55,0.47,0.37,0.51,0.69,0.55,0.55,0.53,0.55,0.53,0.43,0.37" style="fill:rgb(23,22,21);font-family:MinionPro-Regular2;font-size:8.97px;stroke:none;">of bio- and organic fertilizers on geraniumplants grown under</text>
   <text y="595.948" x="66.53,69.878,73.856,76.112,78.501,83.392,87.2491,89.306,93.085,97.549,102.44,107.161,109.457,112.238,114.628,119.092,123.983,127.26,128.07,131.658,133.767,136.157" svgx:width="0.37,0.44,0.25,0.27,0.55,0.43,0.55,0.42,0.51,0.55,0.53,0.27,0.31,0.27,0.51,0.55,0.37,0.23,0.4,0.55,0.27,0.55" style="fill:rgb(23,22,21);font-family:MinionPro-Regular2;font-size:8.97px;stroke:none;">saline conditions,” in</text>
   <text y="595.948" x="143.148,148.088,151.202,155.334,158.677,162.181,165.685,170.157,172.523,177.21,181.0,184.0498,186.129,190.261,192.6829,194.815,197.485,201.985,205.573,207.691,210.346,214.918,217.582,221.173,224.539,229.226,233.42,236.09,238.455,242.587,247.275,251.586,253.82850000000002,255.933,258.552,262.674,267.37,270.736,275.424,279.735,281.9775,284.091,288.204" svgx:width="0.55,0.37,0.47,0.38,0.4,0.4,0.51,0.27,0.53,0.42,0.34,0.55,0.47,0.27,0.55,0.31,0.51,0.4,0.55,0.34,0.53,0.31,0.4,0.37,0.53,0.49,0.31,0.27,0.47,0.53,0.49,0.25,0.55,0.32,0.47,0.53,0.37,0.53,0.49,0.25,0.55,0.47,0.27" style="fill:rgb(23,22,21);font-family:MinionPro-It;font-size:8.97px;stroke:none;">Proceedings of the International Journal of</text>
   <text y="606.403" x="66.53,72.218,75.584,79.913,84.431,88.022,94.926,97.338,100.7466,102.81,108.156,111.675,114.726,118.263,122.512,125.626,128.947,133.528" svgx:width="0.66,0.38,0.49,0.51,0.4,0.79,0.27,0.38,0.55,0.6,0.4,0.34,0.4,0.49,0.37,0.38,0.51,0.34" style="fill:rgb(23,22,21);font-family:MinionPro-It;font-size:8.97px;stroke:none;">Academic Researchs</text>
   <text y="606.403" x="136.549,138.6121,140.623,144.7,149.209,151.423,153.4861,155.497,158.531,160.5941,162.605,167.204,171.64,173.70309999999998,175.726,178.705,182.233,186.895,191.134,195.184,197.2471,199.27,203.482,207.982,212.464,216.461" svgx:width="0.23,0.55,0.46,0.51,0.25,0.23,0.55,0.34,0.23,0.55,0.52,0.52,0.23,0.55,0.34,0.46,0.52,0.47,0.45,0.23,0.55,0.47,0.49,0.49,0.49,0.23" style="fill:rgb(23,22,21);font-family:MinionPro-Regular2;font-size:8.97px;stroke:none;">, vol. 1, pp. 17–23, 2009.</text>
   <text y="619.691" x="48.221,51.317,55.285,59.443,62.492799999999995,66.526,71.54,73.60310000000001,76.58,81.43,85.282,90.151,94.885,98.764,102.8902,105.884,109.716,114.585,119.33909999999999,122.315,128.543,130.6061,133.592,139.82,141.88309999999998,144.86,149.711,153.474,156.255,159.585,163.518,165.5811,168.558,171.806,177.773,180.986,185.455,190.1194,193.141,197.735,200.958,205.611,210.236,214.997,218.849,221.631,223.971,228.147,230.446,233.208,236.664,238.72709999999998,241.713,245.565,248.787,253.256,260.573,264.5198,267.503,272.097,275.32,279.789,284.631,286.898" svgx:width="0.34,0.45,0.46,0.34,0.55,0.7,0.23,0.55,0.56,0.44,0.55,0.53,0.43,0.46,0.55,0.44,0.55,0.53,0.55,0.74,0.23,0.55,0.74,0.23,0.55,0.56,0.44,0.31,0.37,0.44,0.23,0.55,0.4,0.67,0.37,0.51,0.52,0.55,0.52,0.37,0.51,0.53,0.53,0.42,0.31,0.27,0.46,0.27,0.31,0.46,0.23,0.55,0.44,0.37,0.51,0.82,0.44,0.55,0.52,0.37,0.51,0.54,0.25,0.43" style="fill:rgb(23,22,21);font-family:MinionPro-Regular2;font-size:8.97px;stroke:none;">[37] V. Pandey and D. D. Patra, “Crop productivity, aroma profile</text>
   <text y="630.155" x="66.53,70.382,75.251,81.37,85.222,89.957,92.738,95.141,99.569,103.799,106.202,110.963,114.815,119.549,122.3297,123.671,127.604,131.456,134.237,136.577,140.753,143.048,145.811,149.93720000000002,151.31,153.713,160.004,164.765,168.536,170.832,174.684,177.941,182.063,186.526,191.431,193.726,198.488,207.217,211.457,214.787,218.558,222.635,226.487,230.996,233.264,237.071,241.904,245.2229,246.583,250.201,252.253" svgx:width="0.44,0.55,0.53,0.44,0.55,0.31,0.27,0.51,0.47,0.27,0.53,0.44,0.55,0.31,0.55,0.44,0.42,0.31,0.27,0.46,0.27,0.31,0.46,0.55,0.27,0.55,0.56,0.43,0.25,0.44,0.37,0.47,0.51,0.55,0.27,0.53,0.82,0.47,0.37,0.44,0.46,0.43,0.51,0.25,0.43,0.55,0.37,0.55,0.54,0.22,0.77" style="fill:rgb(23,22,21);font-family:MinionPro-Regular2;font-size:8.97px;stroke:none;">andantioxidant activity inPelargoniumgraveolens L’H</text>
   <text y="630.101" x="259.227" svgx:width="0.4" style="fill:rgb(23,22,21);font-family:MinionPro-Regular2;font-size:8.97px;stroke:none;">´</text>
   <text y="630.155" x="259.119,262.922,265.685,267.7481,269.113,273.874,278.771,283.497,287.3" svgx:width="0.43,0.37,0.23,0.55,0.53,0.55,0.53,0.43,0.37" style="fill:rgb(23,22,21);font-family:MinionPro-Regular2;font-size:8.97px;stroke:none;">er. under</text>
   <text y="640.61" x="66.53,68.938,73.673,76.355,80.162,84.363,87.695,91.458,94.139,97.955,102.70909999999999,105.606,108.902,113.554,118.153,122.788,124.993,129.1192,132.022,136.486,139.177,142.048,146.205,150.057,153.44,155.843,160.317,165.051,168.3699,171.261,175.726,178.984,183.178,187.03,191.94,194.348,198.11540000000002,201.053,204.905,209.774,214.5281,217.424,221.158,225.952,229.768,237.117,239.525,243.323,247.265,249.5075,252.458,255.033,258.84,262.259,265.041,267.449,269.723,272.131,275.903,279.719,282.995,286.291,287.101" svgx:width="0.27,0.55,0.31,0.43,0.47,0.37,0.44,0.31,0.43,0.53,0.55,0.37,0.53,0.52,0.52,0.25,0.46,0.55,0.51,0.3,0.55,0.46,0.44,0.37,0.27,0.51,0.53,0.37,0.55,0.51,0.37,0.47,0.44,0.55,0.27,0.42,0.55,0.44,0.55,0.53,0.55,0.42,0.53,0.43,0.82,0.27,0.42,0.44,0.25,0.55,0.3,0.43,0.37,0.31,0.27,0.25,0.27,0.42,0.43,0.37,0.37,0.23,0.4" style="fill:rgb(23,22,21);font-family:MinionPro-Regular2;font-size:8.97px;stroke:none;">integrated supply of various organic and chemical fertilizers,”</text>
   <text y="651.065" x="66.53,69.185,73.892,78.329,83.144,86.078,88.751,92.117,94.528,98.822,101.06450000000001,103.106,108.677,111.791,115.921,120.224,123.27380000000001,125.299,129.548,134.255,138.8297,140.861,145.801,148.915,153.091,157.527,162.271,165.735,168.489" svgx:width="0.34,0.53,0.51,0.53,0.34,0.31,0.37,0.27,0.49,0.25,0.55,0.63,0.37,0.47,0.49,0.34,0.55,0.49,0.53,0.51,0.55,0.55,0.37,0.47,0.51,0.53,0.38,0.31,0.34" style="fill:rgb(23,22,21);font-family:MinionPro-It;font-size:8.97px;stroke:none;">Industrial Crops and Products</text>
   <text y="651.065" x="171.518,173.5811,175.599,179.676,184.185,186.399,188.4621,190.481,194.917,198.031,200.0941,202.126,206.725,211.162,213.2251,215.243,219.5,223.568,227.097,231.758,235.925,240.281,244.331,246.39409999999998,248.413,252.624,257.007,260.04,264.108" svgx:width="0.23,0.55,0.46,0.51,0.25,0.23,0.55,0.5,0.46,0.23,0.55,0.52,0.52,0.23,0.55,0.47,0.45,0.46,0.52,0.47,0.5,0.45,0.23,0.55,0.47,0.49,0.34,0.45,0.23" style="fill:rgb(23,22,21);font-family:MinionPro-Regular2;font-size:8.97px;stroke:none;">, vol. 67, pp. 257–263, 2015.</text>
   <text y="664.353" x="47.952,51.043,55.192,59.449,62.498799999999996,66.533,70.781,72.84410000000001,76.262,80.915,84.686,86.953,90.762,94.051,96.11410000000001,99.541,102.115,104.1781,107.587,113.781,115.84410000000001,119.271,124.032,127.841,131.054,134.863,137.264,140.589,144.523,146.5861,150.005,154.827,156.8901,160.308,168.295,170.35809999999998,173.767,179.995,182.0581,185.477,192.173,194.439,196.78,200.857,204.665,207.067,210.391,214.3378,217.772,221.581,224.36169999999998,227.755,231.733,233.947,235.99,238.0531,241.471,244.719,251.415,254.674,258.868,262.72,267.623,270.024,273.7914,277.251,281.103,285.972" svgx:width="0.34,0.45,0.47,0.34,0.55,0.47,0.23,0.55,0.62,0.43,0.25,0.43,0.37,0.23,0.55,0.33,0.23,0.55,0.69,0.23,0.55,0.56,0.43,0.37,0.43,0.27,0.37,0.44,0.23,0.55,0.54,0.23,0.55,0.89,0.23,0.55,0.74,0.23,0.55,0.75,0.25,0.27,0.46,0.43,0.27,0.37,0.44,0.55,0.43,0.31,0.55,0.44,0.25,0.23,0.23,0.55,0.4,0.75,0.37,0.47,0.44,0.55,0.27,0.42,0.55,0.44,0.55,0.53" style="fill:rgb(23,22,21);font-family:MinionPro-Regular2;font-size:8.97px;stroke:none;">[38] S. Teles, J. A. Pereira, L. M. D. Oliveira et al., “Organic and</text>
   <text y="674.817" x="66.539,73.879,76.278,81.179,84.986,88.309,92.242,94.48450000000001,98.776,101.35,105.157,108.577,111.358,113.758,116.023,118.422,122.184,125.947,128.728,131.128,135.592,140.52550000000002,144.763,147.162,152.063,156.734,161.491,165.298,170.2,173.989,177.8461,182.071,186.535,191.4685,195.706,200.152,202.551,207.015,214.355,218.287,221.574,224.89290000000003,229.134,232.986,237.855,242.60909999999998,246.854,250.661,253.948,257.314,261.121,265.856,268.637,271.067,275.0,277.2425,281.534,285.998,288.446" svgx:width="0.82,0.27,0.55,0.43,0.37,0.44,0.25,0.55,0.3,0.43,0.37,0.31,0.27,0.25,0.27,0.42,0.44,0.31,0.27,0.51,0.55,0.55,0.27,0.55,0.53,0.53,0.43,0.55,0.42,0.43,0.55,0.51,0.55,0.55,0.51,0.27,0.51,0.82,0.44,0.37,0.37,0.55,0.44,0.55,0.53,0.55,0.43,0.37,0.37,0.43,0.55,0.31,0.27,0.44,0.25,0.55,0.51,0.27,0.25" style="fill:rgb(23,22,21);font-family:MinionPro-Regular2;font-size:8.97px;stroke:none;">mineral fertilization influenc eo nbiomas san dessentia loil</text>
   <text y="685.272" x="66.539,71.132,74.354,79.007,83.636,88.397,92.249,95.031,97.434,101.902,106.806,108.8691,113.268,117.057,121.525,128.699,133.478,138.05,141.344,143.642,146.423,148.826,153.294,158.22750000000002,162.609,166.441,171.31,176.0641,180.454,184.305,189.04,191.821,194.224,198.652,202.882,205.285,210.046,213.898,218.632,221.4127,225.788,229.72,233.572,236.354,238.694,242.87,245.168,247.93,252.05620000000002,256.453,260.921,263.61199999999997,267.985,272.863,275.161,279.755,284.348,286.778" svgx:width="0.52,0.37,0.51,0.53,0.53,0.42,0.31,0.27,0.51,0.55,0.23,0.55,0.42,0.51,0.82,0.52,0.51,0.37,0.27,0.31,0.27,0.51,0.55,0.55,0.44,0.55,0.53,0.55,0.44,0.55,0.31,0.27,0.51,0.47,0.27,0.53,0.44,0.55,0.31,0.55,0.44,0.42,0.31,0.27,0.46,0.27,0.31,0.46,0.55,0.51,0.3,0.55,0.54,0.27,0.52,0.52,0.27,0.44" style="fill:rgb(23,22,21);font-family:MinionPro-Regular2;font-size:8.97px;stroke:none;">production, composition and antioxidant activity of Lippia</text>
   <text y="695.727" x="66.539,71.003,74.387,76.788,80.983,84.835,89.704,94.168,96.569,101.302,105.111,108.4299,110.763,117.63,119.672,124.793,126.835,132.868,134.91,135.72" svgx:width="0.51,0.37,0.27,0.47,0.44,0.55,0.51,0.27,0.53,0.43,0.37,0.55,0.77,0.23,0.59,0.23,0.67,0.23,0.23,0.4" style="fill:rgb(23,22,21);font-family:MinionPro-Regular2;font-size:8.97px;stroke:none;">origanoides H.B.K.,”</text>
   <text y="695.727" x="141.668,144.323,149.031,153.467,158.282,161.216,163.889,167.255,169.667,173.96,176.20250000000001,178.559,184.13,187.244,191.375,195.677,198.7268,201.067,205.315,210.023,214.5977,216.953,221.893,225.007,229.183,233.62,238.363,241.828,244.581" svgx:width="0.34,0.53,0.51,0.53,0.34,0.31,0.37,0.27,0.49,0.25,0.55,0.63,0.37,0.47,0.49,0.34,0.55,0.49,0.53,0.51,0.55,0.55,0.37,0.47,0.51,0.53,0.38,0.31,0.34" style="fill:rgb(23,22,21);font-family:MinionPro-It;font-size:8.97px;stroke:none;">Industrial Crops and Products</text>
   <text y="695.727" x="247.606,249.6691,251.998,256.075,260.584,262.798,264.8611,267.19,271.213,275.21,277.2731,279.61,284.209,288.646" svgx:width="0.23,0.55,0.46,0.51,0.25,0.23,0.55,0.45,0.49,0.23,0.55,0.52,0.52,0.23" style="fill:rgb(23,22,21);font-family:MinionPro-Regular2;font-size:8.97px;stroke:none;">, vol. 59, pp.</text>
   <text y="706.181" x="66.539,69.559,73.915,78.28,82.931,85.91,89.825,94.252,96.3151,98.338,102.497,106.907,109.796,114.25" svgx:width="0.34,0.5,0.49,0.52,0.34,0.46,0.5,0.23,0.55,0.47,0.49,0.34,0.5,0.23" style="fill:rgb(23,22,21);font-family:MinionPro-Regular2;font-size:8.97px;stroke:none;">169–176, 2014.</text>
   <text y="719.47" x="48.005,51.108,55.086,59.471,62.520799999999994,66.554,72.974,75.03710000000001,77.393,82.774,87.5,92.134,95.942,99.361,102.043,106.61770000000001,108.991,112.843,117.757,122.5111,124.867,132.865,134.9281,137.275,141.919,143.9821,146.337,151.692,155.544,158.879,162.642,165.288,168.078,172.023,174.0861,176.442,178.674,184.839,189.573,192.355,194.767,199.194,203.435,205.847,210.59,214.442,219.177,221.9577,224.288,228.234,232.086,234.829,237.17,241.33,243.625,246.369,250.4952,252.867,257.331,260.022,262.362,265.728,269.5,271.777,275.597,279.449,282.131,285.95" svgx:width="0.34,0.45,0.49,0.34,0.55,0.71,0.23,0.55,0.62,0.53,0.51,0.43,0.37,0.31,0.51,0.55,0.44,0.55,0.53,0.55,0.89,0.23,0.55,0.62,0.23,0.55,0.59,0.44,0.37,0.44,0.31,0.31,0.44,0.23,0.55,0.4,0.69,0.55,0.31,0.27,0.51,0.47,0.27,0.53,0.44,0.55,0.31,0.55,0.44,0.42,0.31,0.27,0.46,0.27,0.31,0.46,0.55,0.51,0.3,0.55,0.37,0.43,0.25,0.43,0.42,0.31,0.43,0.53" style="fill:rgb(23,22,21);font-family:MinionPro-Regular2;font-size:8.97px;stroke:none;">[39] G. Ruberto and M. T. Baratta, “Antioxidant activity of selected</text>
   <text y="729.933" x="66.539,70.345,73.631,76.997,80.804,85.538,88.319,90.718,94.696,96.9385,100.87,105.335,107.783,110.02550000000001,113.957,117.745,122.21,129.383,134.162,138.626,143.495,147.301,152.035,154.766,158.0849,161.975,164.373,169.3065,173.184,175.915,181.98,186.5547,190.458,192.722,195.018,199.607,202.006,206.7601,210.646,217.985,222.638,227.367,231.174,233.4165,237.348,240.642,244.753,248.04,250.721,254.528,261.799,265.094,265.903" svgx:width="0.43,0.37,0.37,0.43,0.55,0.31,0.27,0.44,0.25,0.55,0.51,0.27,0.25,0.55,0.42,0.51,0.82,0.52,0.51,0.55,0.43,0.55,0.31,0.37,0.55,0.27,0.55,0.55,0.31,0.69,0.51,0.55,0.25,0.27,0.52,0.27,0.53,0.55,0.82,0.51,0.53,0.43,0.25,0.55,0.37,0.46,0.37,0.31,0.43,0.82,0.37,0.23,0.4" style="fill:rgb(23,22,21);font-family:MinionPro-Regular2;font-size:8.97px;stroke:none;">essential oil components in two lipid model systems,”</text>
   <text y="729.933" x="273.349,277.786,281.961,286.137" svgx:width="0.53,0.47,0.47,0.51" style="fill:rgb(23,22,21);font-family:MinionPro-It;font-size:8.97px;stroke:none;">Food</text>
   <text y="740.388" x="66.539,72.247,76.765,80.366,87.269,89.731,92.665,95.338,98.803" svgx:width="0.63,0.51,0.4,0.79,0.27,0.34,0.31,0.37,0.44" style="fill:rgb(23,22,21);font-family:MinionPro-It;font-size:8.97px;stroke:none;">Chemistry</text>
   <text y="740.388" x="102.763,104.82610000000001,106.843,110.92,115.429,117.643,119.7061,121.723,126.079,130.075,132.13809999999998,134.161,139.03,143.341,145.4041,147.42,151.587,153.65009999999998,155.667,160.266,164.702,166.7651,168.788,171.776,176.212,179.741,184.402,187.381,191.08,195.534,197.59709999999998,199.62,203.832,208.332,212.832,217.251" svgx:width="0.23,0.55,0.46,0.51,0.25,0.23,0.55,0.5,0.49,0.23,0.55,0.55,0.51,0.23,0.55,0.47,0.23,0.55,0.52,0.52,0.23,0.55,0.34,0.5,0.46,0.52,0.34,0.46,0.5,0.23,0.55,0.47,0.49,0.49,0.49,0.23" style="fill:rgb(23,22,21);font-family:MinionPro-Regular2;font-size:8.97px;stroke:none;">, vol. 69, no. 2, pp. 167–174, 2000.</text>
   <text y="80.856" x="305.422,308.514,313.068,317.488,320.5378,324.562,329.683,331.7461,333.598,338.25,342.06,344.462,348.62,352.43,354.832,358.158,362.093,364.15610000000004,366.008,372.203,374.2661,376.117,383.956,387.808,391.02,395.512,400.272,404.082,407.372,409.43510000000003,411.286,417.253,419.3161,421.159,426.892,430.744,438.052,442.624,445.9429,447.78,451.59,454.3707,456.189,460.168,462.381,464.425,466.48810000000003,468.34,471.777,476.673,481.433,484.646,489.119,493.898,497.759,501.611,506.54449999999997,508.388,513.167,516.977,521.881,526.578,530.718,533.931,538.358,542.473,546.451" svgx:width="0.34,0.5,0.49,0.34,0.55,0.59,0.23,0.55,0.62,0.43,0.27,0.47,0.43,0.27,0.37,0.44,0.23,0.55,0.69,0.23,0.55,0.89,0.44,0.37,0.51,0.53,0.43,0.37,0.23,0.55,0.67,0.23,0.55,0.62,0.44,0.82,0.51,0.37,0.55,0.43,0.31,0.55,0.44,0.25,0.23,0.23,0.55,0.4,0.57,0.53,0.37,0.51,0.52,0.43,0.44,0.55,0.55,0.52,0.43,0.55,0.55,0.46,0.37,0.51,0.46,0.44,0.25" style="fill:rgb(23,22,21);font-family:MinionPro-Regular2;font-size:8.97px;stroke:none;">[40] B. Teixeira, A. Marques, C. Ramos et al., “European pennyroyal</text>
   <text y="91.319" x="324.565" svgx:width="0.35" style="fill:rgb(23,22,21);font-family:MinionPro-Regular2;font-size:8.97px;stroke:none;">(</text>
   <text y="91.31" x="327.667,335.254,338.845,343.417,346.09,350.608,355.0033,358.96,363.226,367.961,370.156,373.667,377.483,379.814,384.476" svgx:width="0.88,0.4,0.53,0.31,0.51,0.49,0.55,0.49,0.53,0.25,0.4,0.42,0.27,0.53,0.79" style="fill:rgb(23,22,21);font-family:MinionPro-It;font-size:8.97px;stroke:none;">Mentha pulegium</text>
   <text y="91.31" x="391.526" svgx:width="0.35" style="fill:rgb(23,22,21);font-family:MinionPro-Regular2;font-size:8.97px;stroke:none;">)</text>
   <text y="91.418" x="398.538,401.282" svgx:width="0.3,0.37" style="fill:rgb(23,22,21);font-family:MinionPro-Regular2;font-size:8.97px;stroke:none;">fr</text>
   <text y="91.421" x="404.496,408.96,416.31539999999995,420.228,424.99,429.454,432.874,435.52,440.281,444.486,448.431,450.709,452.7721,456.685,460.419,465.171,468.991,476.344,478.756,482.557,486.503,488.7455,492.713,496.514,500.979,508.152,512.931,517.513,520.812,523.107,525.888,528.3,532.765,537.6985,541.594,546.058" svgx:width="0.51,0.82,0.55,0.56,0.51,0.37,0.31,0.53,0.47,0.44,0.25,0.23,0.55,0.42,0.53,0.43,0.82,0.27,0.42,0.44,0.25,0.55,0.42,0.51,0.82,0.52,0.51,0.37,0.27,0.31,0.27,0.51,0.55,0.55,0.51,0.3" style="fill:rgb(23,22,21);font-family:MinionPro-Regular2;font-size:8.97px;stroke:none;">om Portugal: chemical composition of</text>
   <text y="101.876" x="324.543,328.364,331.665,335.031,338.839,343.573,346.354,348.768,352.715,354.9575,358.538,363.002,365.416,367.6585,371.239,375.091,379.959,384.7131,388.249,392.101,396.835,399.616,402.03,406.458,410.701,413.114,417.859,421.711,426.446,429.22670000000005,432.737,436.589,441.457,446.2111,449.746,453.598,458.332,461.113,463.526,470.881,473.294,477.098,480.31,484.838,489.283,491.713,495.66,497.90250000000003,501.492,506.082,509.294,513.768,518.547,522.368,525.788,528.569,530.972,534.793,538.1119,541.633,546.097" svgx:width="0.43,0.37,0.37,0.43,0.55,0.31,0.27,0.44,0.25,0.55,0.51,0.27,0.25,0.55,0.44,0.55,0.53,0.55,0.44,0.55,0.31,0.27,0.51,0.47,0.27,0.53,0.44,0.55,0.31,0.55,0.44,0.55,0.53,0.55,0.44,0.55,0.31,0.27,0.82,0.27,0.42,0.37,0.51,0.51,0.27,0.44,0.25,0.55,0.52,0.37,0.51,0.52,0.43,0.37,0.31,0.27,0.43,0.37,0.55,0.51,0.3" style="fill:rgb(23,22,21);font-family:MinionPro-Regular2;font-size:8.97px;stroke:none;">essential oil and antioxidant and antimicrobial properties of</text>
   <text y="112.331" x="324.543,328.343,332.566,335.346,338.676,342.603,346.455,349.18,352.4989,354.084,357.936,362.805,367.5591,369.141,372.948,376.228,379.594,383.395,388.129,390.911,393.341,397.319,399.5615,401.189,405.653,408.101,410.315,411.125" svgx:width="0.43,0.47,0.31,0.37,0.44,0.42,0.31,0.37,0.55,0.44,0.55,0.53,0.55,0.43,0.37,0.37,0.43,0.55,0.31,0.27,0.44,0.25,0.55,0.51,0.27,0.25,0.23,0.4" style="fill:rgb(23,22,21);font-family:MinionPro-Regular2;font-size:8.97px;stroke:none;">extracts and essential oil,”</text>
   <text y="112.331" x="416.323,418.978,423.685,428.122,432.936,435.87,438.543,441.909,444.321,448.614,450.8565,452.457,458.028,461.142,465.273,469.575,472.6248,474.21,478.458,483.165,487.7397,489.34,494.28,497.394,501.57,506.007,510.75,514.214,516.968" svgx:width="0.34,0.53,0.51,0.53,0.34,0.31,0.37,0.27,0.49,0.25,0.55,0.63,0.37,0.47,0.49,0.34,0.55,0.49,0.53,0.51,0.55,0.55,0.37,0.47,0.51,0.53,0.38,0.31,0.34" style="fill:rgb(23,22,21);font-family:MinionPro-It;font-size:8.97px;stroke:none;">Industrial Crops and Products</text>
   <text y="112.331" x="519.992,522.0550999999999,523.633,527.71,532.219,534.433,536.4961,538.073,542.213,546.649" svgx:width="0.23,0.55,0.46,0.51,0.25,0.23,0.55,0.45,0.5,0.23" style="fill:rgb(23,22,21);font-family:MinionPro-Regular2;font-size:8.97px;stroke:none;">, vol. 36,</text>
   <text y="122.786" x="324.543,329.413,333.724,335.7871,337.81,340.843,342.90610000000004,344.92,349.519,353.956,356.01910000000004,358.033,362.258,364.841,369.469,373.694,376.809,378.87210000000005,380.903,385.115,389.501,392.562,396.728" svgx:width="0.55,0.51,0.23,0.55,0.34,0.23,0.55,0.52,0.52,0.23,0.55,0.47,0.34,0.52,0.47,0.46,0.23,0.55,0.47,0.49,0.34,0.47,0.23" style="fill:rgb(23,22,21);font-family:MinionPro-Regular2;font-size:8.97px;stroke:none;">no. 1, pp. 81–87, 2012.</text>
   <text y="135.24" x="306.888,309.982,314.439,317.471,320.5208,324.545,328.796,330.8591,334.196,340.01,344.474,347.687,352.448,356.385,358.654,361.004,363.06710000000004,366.394,372.591,374.6541,377.99,384.038,388.017,392.465,394.869,397.631,399.6941,403.022,409.891,411.95410000000004,415.282,421.98,425.747,429.559,432.321,434.38410000000005,437.712,443.409,445.4721,448.8,454.848,458.785,463.233,470.577,474.515,478.879,482.669,485.018,487.0811,490.417,498.407,500.4701,503.789,509.603,513.41,516.776,521.511,525.323,529.771,531.8340999999999,535.18,539.032,543.938" svgx:width="0.34,0.5,0.34,0.34,0.55,0.47,0.23,0.55,0.67,0.51,0.37,0.53,0.44,0.25,0.27,0.23,0.55,0.69,0.23,0.55,0.67,0.44,0.5,0.27,0.37,0.23,0.55,0.77,0.23,0.55,0.75,0.42,0.43,0.37,0.23,0.55,0.62,0.23,0.55,0.67,0.44,0.5,0.82,0.44,0.5,0.42,0.27,0.23,0.55,0.89,0.23,0.55,0.67,0.43,0.37,0.53,0.43,0.5,0.23,0.55,0.44,0.55,0.53" style="fill:rgb(23,22,21);font-family:MinionPro-Regular2;font-size:8.97px;stroke:none;">[41] S. Kordali, A. Cakir, H. Ozer, R. Cakmakci, M. Kesdek, and</text>
   <text y="145.704" x="324.543,329.636,331.69910000000004,335.882,343.64,347.447,350.132,353.892,355.9551,360.138,362.37,368.516,373.25,376.031,378.434,381.143,385.904,390.758,394.952,398.93,401.144,403.2071,407.381,412.016,416.597,420.71,423.394,427.868,430.552,434.98,439.21,441.613,445.3804,449.614,453.466,458.32,463.0741,467.248,469.651,474.484,477.85,481.702,485.554,488.335,490.738,494.527,496.93,501.692,505.67,507.9125,512.141,516.731,519.944,524.417,529.196,533.003,536.423,539.203,541.606,545.414" svgx:width="0.57,0.23,0.55,0.89,0.43,0.31,0.43,0.23,0.55,0.4,0.69,0.55,0.31,0.27,0.3,0.53,0.55,0.47,0.44,0.25,0.23,0.55,0.52,0.53,0.46,0.31,0.51,0.31,0.51,0.47,0.27,0.42,0.55,0.44,0.55,0.53,0.55,0.27,0.55,0.37,0.43,0.42,0.31,0.27,0.42,0.27,0.53,0.44,0.25,0.55,0.52,0.37,0.51,0.52,0.43,0.37,0.31,0.27,0.43,0.37" style="fill:rgb(23,22,21);font-family:MinionPro-Regular2;font-size:8.97px;stroke:none;">E. Mete, “Antifungal, phytotoxic and insecticidal properties</text>
   <text y="156.159" x="324.543,329.022,331.71299999999997,336.618,340.426,343.674,347.04,350.847,355.582,358.362,360.792,364.77,367.0125,371.988,376.453,378.9,381.1425,386.109,388.486,391.852,396.331,398.627,402.389,405.071,408.923,413.6771,418.597,421.342,424.555,429.034,436.38939999999997,441.319,445.981,450.742,454.036,458.519,460.895,464.152" svgx:width="0.51,0.3,0.55,0.43,0.37,0.37,0.43,0.55,0.31,0.27,0.44,0.25,0.55,0.51,0.27,0.25,0.55,0.27,0.37,0.51,0.25,0.44,0.31,0.43,0.53,0.55,0.3,0.37,0.51,0.82,0.55,0.62,0.53,0.37,0.5,0.27,0.37,0.53" style="fill:rgb(23,22,21);font-family:MinionPro-Regular2;font-size:8.97px;stroke:none;">of essential oil isolated from Turkish</text>
   <text y="156.159" x="473.869,480.234,483.6,485.958,489.721,493.969,498.586,503.247,510.3333,515.298,519.627,523.056,527.709,530.382,532.793,537.312,540.915,545.702" svgx:width="0.71,0.37,0.27,0.42,0.49,0.53,0.53,0.79,0.55,0.49,0.38,0.53,0.31,0.27,0.51,0.4,0.53,0.34" style="fill:rgb(23,22,21);font-family:MinionPro-It;font-size:8.97px;stroke:none;">Origanum acutidens</text>
   <text y="166.613" x="324.543,328.395,333.263,338.01709999999997,341.355,343.649,346.362,349.6809,353.005,355.795,360.583,363.796,367.648,371.5051,374.812,378.601,383.065,390.238,395.018,399.482,404.365,408.154,412.888,415.624,418.893,420.9561,424.302,428.118,431.97,435.561,439.71,443.624,447.396,450.608,455.16,457.407,459.4701,462.816,465.606,470.187,474.327,481.649,486.2,488.4425,491.825,495.677,500.56,505.3141,508.651,513.328,516.499,520.431,524.571,531.893,535.682,540.565,544.355,545.164" svgx:width="0.44,0.55,0.53,0.55,0.27,0.31,0.37,0.55,0.31,0.53,0.37,0.43,0.43,0.55,0.42,0.51,0.82,0.52,0.51,0.55,0.43,0.55,0.31,0.37,0.23,0.55,0.42,0.44,0.37,0.46,0.44,0.42,0.37,0.51,0.25,0.23,0.55,0.31,0.53,0.46,0.82,0.51,0.25,0.55,0.44,0.55,0.53,0.55,0.52,0.36,0.42,0.46,0.82,0.43,0.55,0.43,0.23,0.4" style="fill:rgb(23,22,21);font-family:MinionPro-Regular2;font-size:8.97px;stroke:none;">and its three components, carvacrol, thymol and p-cymene,”</text>
   <text y="177.068" x="324.543,329.592,332.003,336.131,339.245,342.744,345.796,349.923,354.615,357.729,361.095,364.68300000000005,366.729,371.265,374.764,378.102,382.53,387.237,391.365,393.56,397.772,401.723" svgx:width="0.58,0.27,0.47,0.37,0.4,0.34,0.47,0.53,0.37,0.38,0.4,0.55,0.6,0.4,0.38,0.51,0.53,0.47,0.25,0.47,0.42,0.44" style="fill:rgb(23,22,21);font-family:MinionPro-It;font-size:8.97px;stroke:none;">Bioresource Technology</text>
   <text y="177.068" x="405.68,407.7431,409.766,413.843,418.352,420.566,422.6291,424.652,429.088,433.084,435.1471,437.161,442.03,446.341,448.4041,450.427,453.415,457.672,459.73510000000005,461.749,466.348,470.785,472.84810000000004,474.871,479.092,483.142,487.399,491.657,496.318,500.539,504.66,508.989,513.058,515.1211,517.153,521.364,525.864,530.31,534.567" svgx:width="0.23,0.55,0.46,0.51,0.25,0.23,0.55,0.49,0.49,0.23,0.55,0.55,0.51,0.23,0.55,0.34,0.47,0.23,0.55,0.52,0.52,0.23,0.55,0.47,0.46,0.47,0.47,0.52,0.47,0.46,0.49,0.45,0.23,0.55,0.47,0.49,0.49,0.47,0.23" style="fill:rgb(23,22,21);font-family:MinionPro-Regular2;font-size:8.97px;stroke:none;">, vol. 99, no. 18, pp. 8788–8795, 2008.</text>
   <text y="189.523" x="305.704,308.8,313.309,317.476,320.5258,324.551,330.581,332.64410000000004,334.072,340.147,344.395,348.589,352.441,356.032,362.169,366.148,368.361,370.4241,371.854,378.046,380.1091,381.538,386.326,389.71,392.005,396.748,400.51,403.301,408.089,410.438,412.5011,413.93,420.122,422.18510000000003,423.614,429.833,434.621,441.938,445.87,450.55,452.61310000000003,454.041,459.055,461.1181,462.546,467.514,470.844,474.607,476.929,480.691,485.435,489.197,491.977,494.327,496.3901,497.818,504.37,506.4331,507.861,513.288,517.095,520.479,527.795,531.728,533.7910999999999,535.22,539.072,543.94" svgx:width="0.34,0.5,0.47,0.34,0.55,0.67,0.23,0.55,0.69,0.47,0.47,0.44,0.37,0.69,0.44,0.25,0.23,0.55,0.69,0.23,0.55,0.62,0.37,0.27,0.52,0.44,0.31,0.53,0.27,0.23,0.55,0.69,0.23,0.55,0.69,0.53,0.82,0.44,0.53,0.23,0.55,0.7,0.23,0.55,0.56,0.37,0.44,0.26,0.44,0.52,0.44,0.31,0.27,0.23,0.55,0.74,0.23,0.55,0.7,0.43,0.37,0.82,0.44,0.23,0.55,0.44,0.55,0.53" style="fill:rgb(23,22,21);font-family:MinionPro-Regular2;font-size:8.97px;stroke:none;">[42] K. Aggarwal, A. Tripathi, A. Ahmad, V. Prajapati, N. Verma, and</text>
   <text y="199.977" x="324.552,328.794,330.8571,332.592,338.207,342.968,350.304,354.156,356.918,358.9811,360.717,364.515,369.167,373.595,377.825,380.22,384.005,386.3,389.063,393.18919999999997,394.922,399.386,402.077,403.796,406.063,409.247,416.583,420.385,425.12,427.91,432.662,437.171,439.4135,441.186,445.038,449.906,454.6601,456.386,458.681,461.407,464.72589999999997,466.447,471.174,474.976,478.36,480.7,484.844,488.606,491.387,493.727,497.804,501.607,504.9259,506.656,510.543,514.732,518.583,520.978,525.811,529.094,531.8747000000001,533.576,536.15,540.624,545.377" svgx:width="0.47,0.23,0.55,0.67,0.53,0.82,0.44,0.37,0.23,0.55,0.4,0.62,0.51,0.47,0.27,0.42,0.27,0.31,0.46,0.55,0.51,0.3,0.55,0.25,0.36,0.82,0.43,0.55,0.31,0.53,0.51,0.25,0.55,0.44,0.55,0.53,0.55,0.27,0.31,0.37,0.55,0.53,0.43,0.37,0.27,0.46,0.44,0.31,0.27,0.46,0.43,0.37,0.55,0.44,0.47,0.44,0.27,0.55,0.37,0.31,0.55,0.3,0.51,0.53,0.37" style="fill:rgb(23,22,21);font-family:MinionPro-Regular2;font-size:8.97px;stroke:none;">S. Kumar, “Toxicity of l-menthol and its derivatives against four</text>
   <text y="210.441" x="324.552,327.797,330.487,334.952,338.282,342.173,346.325,350.1821,352.265,354.668,359.528,362.894,366.746,370.598,373.288,376.582,377.392" svgx:width="0.37,0.31,0.51,0.37,0.44,0.47,0.43,0.55,0.27,0.55,0.37,0.43,0.42,0.31,0.37,0.23,0.4" style="fill:rgb(23,22,21);font-family:MinionPro-Regular2;font-size:8.97px;stroke:none;">storage insects,”</text>
   <text y="210.441" x="383.093,385.748,390.32,392.984,396.575,399.941,404.648,408.842,411.515,413.918,418.04,422.765,427.058,429.3005,431.441,434.06,438.182,442.843,446.209,450.917,455.21,457.4525,459.584,463.697,466.1189,468.277,473.012,476.126,480.257,484.523,486.926,490.306,494.599,496.8415,498.982,501.637,506.407,509.458,512.996,516.46,519.2407000000001,521.347,525.595,529.024,531.427,534.969,539.694,543.074" svgx:width="0.34,0.53,0.31,0.4,0.37,0.53,0.49,0.31,0.27,0.47,0.53,0.49,0.25,0.55,0.32,0.47,0.53,0.37,0.53,0.49,0.25,0.55,0.47,0.27,0.55,0.6,0.37,0.47,0.49,0.27,0.38,0.49,0.25,0.55,0.34,0.53,0.34,0.4,0.38,0.31,0.55,0.47,0.38,0.27,0.4,0.53,0.38,0.4" style="fill:rgb(23,22,21);font-family:MinionPro-It;font-size:8.97px;stroke:none;">International Journal of Tropical Insect Science</text>
   <text y="210.441" x="546.676" svgx:width="0.23" style="fill:rgb(23,22,21);font-family:MinionPro-Regular2;font-size:8.97px;stroke:none;">,</text>
   <text y="220.896" x="324.552,328.629,333.138,335.352,337.4151,339.438,343.631,346.664,348.7271,350.75,355.619,359.93,361.9931,364.007,368.345,372.395,374.4581,376.481,381.08,385.517,387.5801,389.594,393.805,397.972,402.346,407.007,411.247,415.252,419.32,421.3831,423.415,427.627,432.127,436.51,439.543" svgx:width="0.46,0.51,0.25,0.23,0.55,0.47,0.34,0.23,0.55,0.55,0.51,0.23,0.55,0.49,0.45,0.23,0.55,0.52,0.52,0.23,0.55,0.47,0.47,0.49,0.52,0.47,0.45,0.45,0.23,0.55,0.47,0.49,0.49,0.34,0.23" style="fill:rgb(23,22,21);font-family:MinionPro-Regular2;font-size:8.97px;stroke:none;">vol. 21, no. 03, pp. 229–235, 2001.</text>
   <text y="233.35" x="305.937,309.033,313.425,317.475,320.5248,324.55,329.563,331.6261,336.016,340.867,344.638,348.85,351.117,353.52,358.254,362.728,367.435,369.4981,373.888,376.948,379.0111,383.393,389.315,393.167,396.587,401.366,405.839,410.645,415.262,417.997,421.292,423.668,426.962,429.0251,433.415,439.824,441.88710000000003,446.268,450.867,454.197,458.049,462.953,466.716,469.119,473.691,476.985,479.04810000000003,483.438,489.63,491.6931,496.083,501.663,505.515,512.769,517.404,521.211,524.001,527.979,532.462,534.811,536.8741,541.264,546.673" svgx:width="0.34,0.5,0.45,0.34,0.55,0.7,0.23,0.55,0.56,0.44,0.46,0.25,0.27,0.53,0.51,0.53,0.23,0.55,0.34,0.23,0.55,0.67,0.44,0.37,0.52,0.51,0.53,0.53,0.31,0.37,0.27,0.37,0.23,0.55,0.71,0.23,0.55,0.53,0.37,0.44,0.55,0.42,0.27,0.51,0.37,0.23,0.55,0.69,0.23,0.55,0.6,0.44,0.82,0.51,0.43,0.31,0.44,0.5,0.27,0.23,0.55,0.6,0.23" style="fill:rgb(23,22,21);font-family:MinionPro-Regular2;font-size:8.97px;stroke:none;">[43] V. Pavlidou, I. Karpouhtsis, G. Franzios, A. Zambetaki, Z.</text>
   <text y="243.805" x="324.552,328.925,332.715,337.188,341.95,345.277,349.214,352.506,354.5691,358.212,362.064,366.933,371.6871,375.33,379.137,381.2001,384.825,392.664,396.435,400.611,403.938,407.826,412.023,415.875,420.781,423.184,425.875,430.555,433.846,436.141,440.731,443.135,447.87,452.343,457.051,459.1141,462.766,466.204,469.119,473.952,477.318,481.13,484.982,487.762,490.166,493.96,496.364,501.099,505.036,507.2785,510.958,514.81,519.716,524.4701,528.113,532.235,536.042,540.947,545.521" svgx:width="0.47,0.42,0.51,0.53,0.37,0.44,0.37,0.23,0.55,0.44,0.55,0.53,0.55,0.56,0.23,0.55,0.89,0.44,0.46,0.37,0.44,0.47,0.44,0.55,0.27,0.36,0.62,0.37,0.27,0.52,0.27,0.53,0.51,0.53,0.23,0.55,0.4,0.34,0.55,0.37,0.43,0.42,0.31,0.27,0.42,0.27,0.53,0.44,0.25,0.55,0.44,0.55,0.53,0.55,0.47,0.43,0.55,0.51,0.36" style="fill:rgb(23,22,21);font-family:MinionPro-Regular2;font-size:8.97px;stroke:none;">Scouras, and P. Mavragani-Tsipidou, “Insecticidal and geno-</text>
   <text y="254.26" x="324.552,327.233,331.661,335.891,338.294,342.0614,345.818,349.625,354.561,358.413,362.265,365.001,368.31989999999996,372.03,376.494,379.185,382.884,386.691,389.94,393.306,397.113,401.847,404.629,407.059,411.037,413.2795,417.031,421.51,423.958,426.198,429.51689999999996,433.227,437.706,440.397,444.087,450.404,453.636,457.488,461.26,465.745,469.441,472.789,476.676,480.798,484.552,486.61510000000004,490.339,494.587,498.565,500.74,504.915,507.345,511.2918,515.013,517.758,521.177,525.844,528.626,531.029,534.818,539.39,542.738,546.671" svgx:width="0.31,0.51,0.47,0.27,0.42,0.55,0.43,0.56,0.43,0.42,0.31,0.37,0.55,0.51,0.3,0.55,0.43,0.37,0.37,0.43,0.55,0.31,0.27,0.44,0.25,0.55,0.51,0.27,0.25,0.37,0.55,0.51,0.3,0.55,0.71,0.37,0.43,0.43,0.5,0.55,0.37,0.44,0.47,0.43,0.23,0.55,0.47,0.44,0.25,0.46,0.27,0.44,0.55,0.3,0.37,0.53,0.31,0.27,0.42,0.51,0.37,0.44,0.23" style="fill:rgb(23,22,21);font-family:MinionPro-Regular2;font-size:8.97px;stroke:none;">toxic effect so fessentia loil so fGree ksage ,Salvi afruticosa,</text>
   <text y="264.724" x="324.552,328.403,333.272,338.0261,340.374,347.715,350.117,354.851,357.584,359.6471,361.984,369.742,373.551,378.285,381.076,385.862,389.8088,392.153,396.752,401.558,403.824,407.633,411.828,414.122,418.882,426.223,428.28610000000003,430.633,435.097,440.03049999999996,442.36,448.949,452.161,456.732,460.098,464.572,469.206,473.993,476.394,478.661,482.6078,484.951,492.293,496.102,498.369,502.221,507.124,511.695,515.889,519.823,523.112,525.794,529.603,532.9218999999999,535.3,539.152,544.021" svgx:width="0.44,0.55,0.53,0.55,0.82,0.27,0.55,0.31,0.23,0.55,0.89,0.43,0.55,0.31,0.53,0.44,0.55,0.52,0.53,0.25,0.43,0.47,0.27,0.53,0.82,0.23,0.55,0.51,0.55,0.55,0.74,0.37,0.51,0.37,0.51,0.52,0.53,0.27,0.25,0.44,0.55,0.82,0.43,0.25,0.44,0.55,0.51,0.47,0.44,0.37,0.31,0.43,0.37,0.55,0.44,0.55,0.53" style="fill:rgb(23,22,21);font-family:MinionPro-Regular2;font-size:8.97px;stroke:none;">and mint, Mentha pulegium, on Drosophila melanogaster and</text>
   <text y="275.179" x="324.552,329.906,333.842,337.694,340.476,343.689,348.341,352.134,355.945,359.271,363.2178,365.04,369.549,371.818,375.679,379.615,383.4721,385.258,388.36,394.95,397.245,401.844,404.526,408.336,411.663,415.599,417.6621,419.469,424.122,427.932,432.567,437.355,440.739,443.034,445.815,448.218,452.952,456.888,460.699,463.802,464.611" svgx:width="0.59,0.44,0.42,0.31,0.37,0.51,0.42,0.43,0.37,0.44,0.55,0.51,0.25,0.43,0.44,0.43,0.55,0.35,0.74,0.27,0.52,0.31,0.43,0.37,0.44,0.23,0.55,0.62,0.43,0.52,0.53,0.37,0.27,0.31,0.27,0.53,0.44,0.43,0.35,0.23,0.4" style="fill:rgb(23,22,21);font-family:MinionPro-Regular2;font-size:8.97px;stroke:none;">Bactrocera oleae (Diptera: Tephritidae),”</text>
   <text y="275.179" x="470.031,472.65,476.772,481.434,484.8,489.507,493.8,496.0425,497.868,501.981,504.4029,506.256,511.881,515.697,519.063,521.475,524.904,529.638,531.744,534.417,539.079,542.193,546.486" svgx:width="0.32,0.47,0.53,0.37,0.53,0.49,0.25,0.55,0.47,0.27,0.55,0.66,0.42,0.37,0.27,0.38,0.53,0.25,0.31,0.53,0.37,0.49,0.25" style="fill:rgb(23,22,21);font-family:MinionPro-It;font-size:8.97px;stroke:none;">Journal of Agricultural</text>
   <text y="285.633" x="324.552,328.801,333.508,338.0827,340.123,346.117,349.32,353.64,357.889,362.6431,364.72,369.588,374.16,376.824,380.946,387.939,392.06,394.256,398.468,402.418" svgx:width="0.49,0.53,0.51,0.55,0.71,0.37,0.49,0.49,0.53,0.55,0.56,0.53,0.31,0.47,0.79,0.47,0.25,0.47,0.42,0.44" style="fill:rgb(23,22,21);font-family:MinionPro-It;font-size:8.97px;stroke:none;">and Urban Entomology</text>
   <text y="285.633" x="406.379,408.44210000000004,410.46,414.537,419.047,421.26,423.3231,425.342,429.535,432.569,434.63210000000004,436.65,441.519,445.83,447.8931,449.912,452.945,455.0081,457.026,461.625,466.062,468.12510000000003,470.143,474.121,478.495,483.247,487.639,491.635,493.6981,495.717,499.928,504.428,508.938,513.392" svgx:width="0.23,0.55,0.46,0.51,0.25,0.23,0.55,0.47,0.34,0.23,0.55,0.55,0.51,0.23,0.55,0.34,0.23,0.55,0.52,0.52,0.23,0.55,0.45,0.49,0.52,0.5,0.49,0.23,0.55,0.47,0.49,0.49,0.5,0.23" style="fill:rgb(23,22,21);font-family:MinionPro-Regular2;font-size:8.97px;stroke:none;">, vol. 21, no. 1, pp. 39–49, 2004.</text>
  </g>
 </g>
</svg>
