<?xml version="1.0" encoding="UTF-8"?>
<svg height="769.809" width="530.491" xmlns="http://www.w3.org/2000/svg">
 <g id="page" xmlns:svgx="http://www.xml-cml.org/schema/svgx">
  <g begin="text">
   <text y="62.979" x="76.535,84.059,87.598,90.252,93.352,96.452,98.668,102.207,104.422" svgx:width="0.94,0.44,0.33,0.39,0.39,0.28,0.44,0.28,0.39" style="fill:rgb(0,0,0);font-family:URWPalladioL-Ital;font-size:7.97px;stroke:none;">Materials</text>
   <text y="62.979" x="109.515,113.5,117.485,121.47" svgx:width="0.5,0.5,0.5,0.5" style="fill:rgb(0,0,0);font-family:URWPalladioL-Bold;font-size:7.97px;stroke:none;">2018</text>
   <text y="62.979" x="125.455" svgx:width="0.25" style="fill:rgb(0,0,0);font-family:URWPalladioL-Roma;font-size:7.97px;stroke:none;">,</text>
   <text y="62.979" x="129.44,133.425" svgx:width="0.5,0.5" style="fill:rgb(0,0,0);font-family:URWPalladioL-Ital;font-size:7.97px;stroke:none;">11</text>
   <text y="62.979" x="137.41,139.4025,141.395,145.38,149.365,153.35000000000002,491.809,495.794,499.779,501.772,506.123,508.7531,510.77,514.755" svgx:width="0.25,0.55,0.5,0.5,0.5,0.55,0.5,0.5,0.55,0.55,0.33,0.55,0.5,0.5" style="fill:rgb(0,0,0);font-family:URWPalladioL-Roma;font-size:7.97px;stroke:none;">, 652 11 of 17</text>
   <text y="97.848" x="76.535,79.481,85.372,91.263,94.208,99.805,102.751,106.051,111.577,115.576,121.1536,123.693,128.542,131.74,135.101,139.949,144.444,147.7308,150.243,155.77,161.54680000000002,164.151,167.451,173.342,178.1228,180.68,186.308,190.134,195.661,204.103,207.402,213.1788,215.783,221.31,224.5968,227.171,230.47,236.361,241.1418,243.71,247.01,251.858,256.15,259.45,264.298,270.3736,272.973,278.57,283.631,288.125,291.425,296.274,300.272,303.217,308.278,311.1664,313.714,318.005,321.305,325.303,330.364,333.31,339.201,343.493,345.983,348.523,351.823,357.714,362.4948,365.052,370.113,376.004,379.304,382.25,387.847,392.908,397.402,400.702,405.551,409.549,412.494,417.555,420.4434,422.991,428.052,432.546,435.846,438.791,444.51,447.456,450.755,456.3326,458.883,464.41,467.69680000000005,470.271,473.57,479.461,484.2418,486.81,495.232,503.106,509.19,512.56" svgx:width="0.29,0.58,0.58,0.29,0.55,0.29,0.33,0.55,0.4,0.56,0.55,0.48,0.33,0.33,0.48,0.44,0.33,0.55,0.55,0.58,0.55,0.33,0.58,0.48,0.55,0.56,0.4,0.55,0.83,0.33,0.58,0.55,0.55,0.33,0.55,0.33,0.58,0.48,0.55,0.33,0.48,0.42,0.33,0.48,0.61,0.55,0.55,0.5,0.44,0.33,0.48,0.4,0.29,0.5,0.29,0.55,0.42,0.33,0.4,0.5,0.29,0.58,0.42,0.25,0.55,0.33,0.58,0.48,0.55,0.5,0.58,0.33,0.29,0.55,0.5,0.44,0.33,0.48,0.4,0.29,0.5,0.29,0.55,0.5,0.44,0.33,0.29,0.56,0.29,0.33,0.56,0.55,0.55,0.33,0.55,0.33,0.58,0.48,0.55,0.83,0.78,0.6,0.33,0.61" style="fill:rgb(0,0,0);font-family:URWPalladioL-Roma;font-size:9.96px;stroke:none;">inhibitory effect on the growth of the tested bacterial strains, the antibacterial activity of the HAp-B</text>
   <text y="111.358" x="76.535,81.581,87.455,93.53059999999999,96.124,104.52,112.372,118.437,121.798,127.8736,130.457,134.736,139.782,148.694,154.759,157.696,162.53,166.7132,169.312,177.729,182.775,186.9582,189.546,194.592,197.883,201.173,205.159,208.096,213.677,219.762,223.052,227.886,233.9616,236.555,239.845,245.323,247.849,251.139,257.012,261.7928,264.349,269.93,274.976,279.255,282.192,285.0804,287.622,292.668,298.541,304.6166,307.21,310.147,315.193,320.895,325.729,331.603,337.769,342.603,346.587,349.083,355.249,363.181,367.46,369.95,373.102,380.953,385.434,389.915,395.426,399.23,405.397,408.333,414.207,419.7846,422.321,425.611,431.089,433.614,436.904,442.778,447.5588,450.115,459.026,464.072,469.946,476.031,479.392,484.438,488.919,492.209,498.294,502.099,506.933,511.656,514.462" svgx:width="0.5,0.58,0.61,0.55,0.83,0.78,0.6,0.33,0.61,0.55,0.42,0.5,0.88,0.6,0.29,0.48,0.42,0.55,0.83,0.5,0.42,0.55,0.5,0.33,0.33,0.4,0.29,0.55,0.6,0.33,0.48,0.61,0.55,0.33,0.55,0.55,0.33,0.58,0.48,0.55,0.55,0.5,0.42,0.29,0.29,0.55,0.5,0.58,0.61,0.55,0.29,0.5,0.56,0.48,0.58,0.61,0.48,0.4,0.55,0.61,0.79,0.42,0.25,0.55,0.78,0.44,0.44,0.55,0.4,0.61,0.29,0.58,0.56,0.55,0.33,0.55,0.55,0.33,0.58,0.48,0.55,0.88,0.5,0.58,0.6,0.33,0.5,0.44,0.33,0.6,0.4,0.48,0.4,0.28,0.42" style="fill:rgb(0,0,0);font-family:URWPalladioL-Roma;font-size:9.96px;stroke:none;">and HAp-L samples was attributed to the basil and lavender EOs. According to the manufacturer’s</text>
   <text y="124.867" x="76.535,82.744,87.825,91.138,96.219,98.70899999999999,101.381,104.694,110.608,115.3888,118.067,123.686,128.767,133.076,136.033,138.92139999999998,141.581,146.449,150.757,155.066,159.933,165.848,169.16,172.117,177.198,180.0864,182.747,188.295,191.252,194.1404,196.811,200.195,210.356,215.437,220.518,225.599,230.68,235.761,240.74099999999999,243.433,251.339,254.296,260.505,264.519,267.476,271.988,277.902,281.1888,283.877,290.005,294.314,299.181,305.2566,307.981,310.938,316.71479999999997,319.444,322.757,328.671,331.628,335.8112,338.538,342.847,346.159,352.287,358.496,364.0736,366.737,375.212,380.293,384.4762,387.193,396.166,401.247,404.204,410.118,413.075,418.6526,421.316,425.828,431.377,440.35,446.457,452.005,456.314,461.181,467.2566,469.992,475.54,478.82680000000005,481.515,486.383,492.51,498.16,503.028,508.942,514.49,517.448" svgx:width="0.61,0.5,0.33,0.5,0.25,0.55,0.33,0.58,0.48,0.55,0.55,0.5,0.42,0.29,0.29,0.55,0.48,0.42,0.42,0.48,0.58,0.33,0.29,0.5,0.29,0.55,0.55,0.29,0.29,0.55,0.33,1.0,0.5,0.5,0.5,0.5,0.5,0.5,0.55,0.78,0.29,0.61,0.4,0.29,0.44,0.58,0.33,0.55,0.6,0.42,0.48,0.61,0.55,0.29,0.58,0.55,0.33,0.58,0.29,0.42,0.55,0.42,0.33,0.6,0.61,0.56,0.55,0.83,0.5,0.42,0.55,0.88,0.5,0.29,0.58,0.29,0.56,0.55,0.44,0.55,0.88,0.6,0.55,0.42,0.48,0.61,0.55,0.55,0.33,0.55,0.48,0.6,0.56,0.48,0.58,0.55,0.29,0.25" style="fill:rgb(0,0,0);font-family:URWPalladioL-Roma;font-size:9.96px;stroke:none;">data, the basil essential oil (W212000 Aldrich) used in this study was mainly composed of eugenol,</text>
   <text y="138.377" x="76.535,81.616,86.697,89.237,94.318,102.854,105.344,108.301,111.258,114.215,123.188,128.736,134.651,139.518,145.432,150.3,152.79000000000002,155.665,161.823,166.904,169.445,174.526,183.062,185.55200000000002,188.508,191.466,194.423,200.337,205.418,208.375,213.923,219.472,222.429,224.919,227.804,232.885,237.966,240.507,245.588,254.124,256.614,259.56,264.641,270.555,276.6306,279.528,288.501,293.369,296.681,302.596,308.246,311.13439999999997,313.967,318.479,324.393,329.474,335.215,338.172,342.684,348.232,351.19,353.68,356.565,361.646,364.187,369.268,377.63439999999997,380.568" svgx:width="0.5,0.5,0.25,0.5,0.84,0.25,0.55,0.29,0.29,0.88,0.55,0.58,0.48,0.58,0.48,0.25,0.55,0.61,0.5,0.25,0.5,0.84,0.25,0.55,0.29,0.29,0.58,0.5,0.29,0.55,0.55,0.29,0.25,0.55,0.5,0.5,0.25,0.5,0.84,0.25,0.55,0.5,0.58,0.61,0.55,0.88,0.48,0.33,0.58,0.56,0.29,0.55,0.44,0.58,0.5,0.56,0.29,0.44,0.55,0.29,0.25,0.55,0.5,0.25,0.5,0.84,0.55,0.33" style="fill:rgb(0,0,0);font-family:URWPalladioL-Roma;font-size:9.96px;stroke:none;">32.4%; limonene, &lt;0.1%; linalool, 41.9%; and methyl chavicol, 0.9% [</text>
   <text y="138.377" x="383.951,388.932" svgx:width="0.5,0.5" style="fill:rgb(8,117,183);font-family:URWPalladioL-Roma;font-size:9.96px;stroke:none;">27</text>
   <text y="138.377" x="393.914,397.298,399.788,403.751,409.98,415.894,420.6748,423.526,426.483,431.564,437.305,442.173,448.087,454.296,459.163,463.147,465.941,470.809,475.117,479.426,484.294,490.208,493.52,496.478,501.559,504.4474,507.28,512.828,515.785" svgx:width="0.33,0.25,0.55,0.61,0.58,0.48,0.55,0.29,0.5,0.56,0.48,0.58,0.61,0.48,0.4,0.55,0.48,0.42,0.42,0.48,0.58,0.33,0.29,0.5,0.29,0.55,0.55,0.29,0.29" style="fill:rgb(0,0,0);font-family:URWPalladioL-Roma;font-size:9.96px;stroke:none;">]. The lavender essential oil</text>
   <text y="151.886" x="76.207,79.591,84.672,89.753,94.834,99.915,104.89500000000001,107.78,115.686,118.643,124.852,128.866,131.823,136.335,142.249,145.5358,148.407,156.882,161.963,166.1462,169.056,173.568,179.116,188.089,194.196,198.21,201.167,205.476,210.343,216.4186,219.337,224.885,228.1718,231.043,236.591,242.333,247.2,251.184,253.999,259.08,264.161,269.141,272.026,276.538,282.086,288.0,292.309,295.622,298.579,301.892,308.019,312.887,318.801,322.114,326.422,328.91200000000003,331.818,334.775,340.689,345.201,348.158,354.286,360.495,363.452,369.366,374.9436,377.79,380.747,383.705,389.619,394.7,397.657,403.205,408.754,411.711,414.201,417.107,423.214,428.081,432.095,435.052,438.009,440.967,446.617,449.5054,452.358,457.439,460.396,464.908,470.456,476.37,481.919,484.876,487.366,490.272,493.219,496.176,502.09,507.171,510.128,515.778" svgx:width="0.33,0.5,0.5,0.5,0.5,0.5,0.55,0.78,0.29,0.61,0.4,0.29,0.44,0.58,0.33,0.55,0.83,0.5,0.42,0.55,0.44,0.55,0.88,0.6,0.4,0.29,0.42,0.48,0.61,0.55,0.55,0.33,0.55,0.55,0.56,0.48,0.4,0.55,0.5,0.5,0.5,0.55,0.44,0.55,0.58,0.42,0.33,0.29,0.33,0.6,0.48,0.58,0.33,0.42,0.25,0.55,0.29,0.58,0.44,0.29,0.6,0.61,0.29,0.58,0.56,0.55,0.29,0.29,0.58,0.5,0.29,0.55,0.55,0.29,0.25,0.55,0.6,0.48,0.4,0.29,0.29,0.29,0.56,0.29,0.55,0.5,0.29,0.44,0.55,0.58,0.55,0.29,0.25,0.55,0.29,0.29,0.58,0.5,0.29,0.56,0.29" style="fill:rgb(0,0,0);font-family:URWPalladioL-Roma;font-size:9.96px;stroke:none;">(61718 Aldrich) was comprised of over 100 constituents, including linalool, perillyl alcohol, linalyl</text>
   <text y="165.395" x="76.535,81.501,85.911,90.669,93.907,98.874,102.112,106.87,109.36,111.836,116.246,121.212,129.983,135.952,141.733,147.157,150.345,152.835,155.311,158.202,161.092,169.863,175.286,181.067,185.825,191.605,196.363,198.853,201.33,204.568,209.534,215.315,221.096,223.986,229.767,233.978,236.46800000000002,238.945,242.183,246.106,248.997,252.235,256.993,260.916,266.886,271.643,277.424,282.182,286.393,288.883,291.36,295.77,301.193,307.183,315.953,320.92,324.843,327.733,333.514,337.6972,340.209,345.175,347.658,352.625,355.108,360.074,362.564,365.041,369.451,372.341,378.122,382.88,388.303,391.194,395.951,398.44100000000003,400.928,405.894,411.675,417.7506,420.217,426.256,431.222,436.834,442.258,448.038,453.462,456.352,462.421,466.632,469.122,471.609,476.367,479.605,484.015,486.505,488.981" svgx:width="0.5,0.44,0.48,0.33,0.5,0.33,0.48,0.25,0.55,0.44,0.5,0.88,0.6,0.58,0.55,0.4,0.25,0.55,0.29,0.29,0.88,0.55,0.58,0.48,0.58,0.48,0.25,0.55,0.33,0.5,0.58,0.58,0.29,0.58,0.42,0.25,0.55,0.33,0.4,0.29,0.33,0.48,0.4,0.6,0.48,0.58,0.48,0.42,0.25,0.55,0.44,0.55,0.6,0.88,0.5,0.4,0.29,0.58,0.42,0.55,0.5,0.25,0.5,0.25,0.5,0.25,0.55,0.44,0.29,0.58,0.48,0.55,0.29,0.48,0.25,0.55,0.5,0.58,0.61,0.55,0.61,0.5,0.56,0.55,0.58,0.55,0.29,0.61,0.42,0.25,0.55,0.48,0.33,0.44,0.25,0.55,0.33" style="fill:rgb(0,0,0);font-family:URWPalladioL-Roma;font-size:9.96px;stroke:none;">acetate, camphor, limonene, tannins, triterpenes, coumarins 3,4,5, cineole, and ﬂavonoids, etc. [</text>
   <text y="165.395" x="492.285,497.266" svgx:width="0.5,0.5" style="fill:rgb(8,117,183);font-family:URWPalladioL-Roma;font-size:9.96px;stroke:none;">28</text>
   <text y="165.395" x="502.247" svgx:width="0.25" style="fill:rgb(0,0,0);font-family:URWPalladioL-Roma;font-size:9.96px;stroke:none;">,</text>
   <text y="165.395" x="504.73,509.711" svgx:width="0.5,0.5" style="fill:rgb(8,117,183);font-family:URWPalladioL-Roma;font-size:9.96px;stroke:none;">29</text>
   <text y="165.395" x="514.693,518.001" svgx:width="0.33,0.25" style="fill:rgb(0,0,0);font-family:URWPalladioL-Roma;font-size:9.96px;stroke:none;">].</text>
   <text y="178.905" x="76.535,82.519,87.866,91.058,96.8348,99.246,103.936,108.089,112.241,116.932,122.632,125.824,128.674,133.571,136.4594,138.908,144.255,147.105,149.955,154.107,156.597,159.043,164.929,170.834,174.526,178.874,184.574,189.471,193.623,198.314,204.3896,206.785,210.046,213.738,219.085,230.22,235.362,238.212,243.657,252.304,257.284,259.688,267.307,270.157,276.141,280.009,282.859,287.207,292.907,295.397,297.843,303.542,308.439,314.51460000000003,316.91,321.807,325.9902,328.446,333.42600000000004,335.831,344.478,349.375,351.666,357.013,360.99699999999996,363.369,367.717,373.064,378.764,382.916,386.109,388.959,392.151,398.057,402.748,408.447,411.73380000000003,414.128,416.977,419.827,425.527,430.423,433.273,438.62,443.967,446.817,449.307,451.753,459.921,465.62,468.47,472.818,478.59479999999996,481.006,486.705,491.602,495.7852,498.242,503.657,508.348,513.039" svgx:width="0.61,0.55,0.33,0.58,0.55,0.48,0.42,0.42,0.48,0.58,0.33,0.29,0.5,0.29,0.55,0.55,0.29,0.29,0.42,0.25,0.55,0.6,0.6,0.4,0.44,0.58,0.5,0.42,0.48,0.61,0.55,0.33,0.4,0.55,0.88,0.52,0.29,0.56,0.88,0.5,0.55,0.78,0.29,0.61,0.4,0.29,0.44,0.58,0.25,0.55,0.58,0.5,0.61,0.55,0.5,0.42,0.55,0.5,0.55,0.88,0.5,0.23,0.55,0.4,0.55,0.44,0.55,0.58,0.42,0.33,0.29,0.33,0.6,0.48,0.58,0.33,0.55,0.29,0.29,0.58,0.5,0.29,0.55,0.55,0.29,0.25,0.55,0.83,0.58,0.29,0.44,0.58,0.55,0.58,0.5,0.42,0.55,0.55,0.48,0.48,0.58" style="fill:rgb(0,0,0);font-family:URWPalladioL-Roma;font-size:9.96px;stroke:none;">Both essential oils, purchased fromSigma Aldrich, had as a major constituent linalool, which has been</text>
   <text y="192.414" x="76.535,80.366,85.234,91.341,96.889,100.903,104.216,109.083,115.15859999999999,117.965,121.267,126.74499999999999,129.488,135.596,141.144,145.453,149.761,154.629,158.937,163.1202,165.908,170.88799999999998,173.652,177.96,181.273,185.104,190.653,196.567,202.1446,204.879,209.96,215.874,219.187,222.144,231.117,234.074,238.586,242.427,247.976,253.595,256.552,261.633,264.52139999999997,267.253,272.334,276.845,280.158,283.115,288.857,291.814,295.127,300.7046,303.439" svgx:width="0.4,0.48,0.6,0.55,0.4,0.33,0.48,0.61,0.55,0.33,0.55,0.55,0.6,0.55,0.42,0.42,0.48,0.42,0.42,0.55,0.5,0.55,0.42,0.33,0.4,0.55,0.58,0.56,0.55,0.5,0.58,0.33,0.29,0.88,0.29,0.44,0.4,0.55,0.55,0.29,0.5,0.29,0.55,0.5,0.44,0.33,0.29,0.56,0.29,0.33,0.56,0.55,0.33" style="fill:rgb(0,0,0);font-family:URWPalladioL-Roma;font-size:9.96px;stroke:none;">reported to possess a strong antimicrobial activity [</text>
   <text y="192.414" x="306.823,311.804" svgx:width="0.5,0.5" style="fill:rgb(8,117,183);font-family:URWPalladioL-Roma;font-size:9.96px;stroke:none;">30</text>
   <text y="192.414" x="316.786,320.17,322.66,326.318,331.653,334.966,341.093,347.302,350.259,355.127,359.3102,362.098,365.939,370.806,376.456,381.537,385.368,391.577,394.534,400.449,406.02660000000003,408.761,412.074,417.988,422.7688,425.518,429.826,435.476,441.391,446.258,450.099,455.749,461.32660000000004,464.062,469.681,474.549,477.862,486.337,491.204,496.072,501.8488,504.648,507.961,513.875" svgx:width="0.33,0.25,0.55,0.52,0.33,0.6,0.61,0.29,0.48,0.42,0.55,0.4,0.48,0.56,0.5,0.4,0.61,0.29,0.58,0.56,0.55,0.33,0.58,0.48,0.55,0.42,0.56,0.58,0.48,0.4,0.56,0.56,0.55,0.55,0.48,0.33,0.83,0.48,0.48,0.58,0.55,0.33,0.58,0.48" style="fill:rgb(0,0,0);font-family:URWPalladioL-Roma;font-size:9.96px;stroke:none;">]. Studies regarding the synergy between the</text>
   <text y="205.924" x="76.535,81.047,86.595,95.568,101.675,107.224,113.138,118.006,123.92,127.232,131.4152,134.061,139.61,142.8968,145.504,150.371,154.68,158.988,163.856,169.77,173.083,176.04,181.121,184.078,188.2612,190.907,196.455,199.412,202.369,206.5522,209.198,214.279,218.11,222.8908,225.498,229.806,233.119,236.076,239.033,241.92139999999998,244.51,248.819,253.331,258.412,262.243,266.755,271.622,274.112,277.333,285.788,291.336,299.811,304.679,310.42,315.288,318.56,321.05,323.631,329.545,335.672,344.645,349.513,353.344,358.892,365.02,369.2032,371.848,375.68,380.547,384.856,390.983,393.94,397.253,401.4362,404.082,407.039,412.81579999999997,415.463,418.776,424.69,427.647,431.8302,434.476,439.557,443.388,448.255,453.235,455.856,461.771,466.852,472.593,477.3738,479.981,483.812,488.679,494.786,500.335,504.349,507.662,512.529" svgx:width="0.44,0.55,0.88,0.6,0.55,0.58,0.48,0.58,0.33,0.42,0.55,0.55,0.33,0.55,0.48,0.42,0.42,0.48,0.58,0.33,0.29,0.5,0.29,0.42,0.55,0.55,0.29,0.29,0.42,0.55,0.5,0.4,0.48,0.55,0.42,0.33,0.29,0.29,0.29,0.55,0.42,0.44,0.5,0.4,0.44,0.48,0.25,0.55,0.83,0.55,0.83,0.48,0.56,0.48,0.4,0.25,0.55,0.58,0.6,0.88,0.48,0.4,0.55,0.6,0.42,0.55,0.4,0.48,0.42,0.6,0.29,0.33,0.42,0.55,0.29,0.58,0.55,0.33,0.58,0.29,0.42,0.55,0.5,0.4,0.48,0.5,0.55,0.58,0.5,0.56,0.48,0.55,0.4,0.48,0.6,0.55,0.4,0.33,0.48,0.61" style="fill:rgb(0,0,0);font-family:URWPalladioL-Roma;font-size:9.96px;stroke:none;">components of essentials oils are still scarce. However, numerous results in this area have reported</text>
   <text y="219.433" x="76.535,79.848,85.762,90.843,94.1298,96.655,99.968,105.882,110.6628,113.26,118.341,124.255,127.568,130.525,139.498,142.455,146.967,150.798,156.346,161.966,164.923,170.004,172.89239999999998,175.461,180.542,185.053,188.366,191.323,197.065,200.022,203.335,208.9126,211.484,217.033,220.3198,222.927,227.90699999999998,230.507,236.157,239.114,244.856,249.723,255.49980000000002,258.137,263.005,267.314,271.622,276.49,282.404,285.717,288.674,293.755,296.6434,299.212,304.76,307.717,310.6054,313.184,316.141,320.3242,322.95,327.258,330.571,334.402,339.95,345.865,351.515,354.472,360.0496,362.632,365.589,371.503,377.681,383.809,388.677,394.591,399.103,403.97,410.04560000000004,412.679,418.298,423.8756,426.448,428.826,434.954,439.262,442.5488,445.075,450.623,456.537,461.3178,463.915,469.463,473.447,475.977,479.29,487.765,493.243,495.813,504.786,509.867,512.824" svgx:width="0.33,0.58,0.5,0.33,0.55,0.33,0.58,0.48,0.55,0.5,0.58,0.33,0.29,0.88,0.29,0.44,0.4,0.55,0.55,0.29,0.5,0.29,0.55,0.5,0.44,0.33,0.29,0.56,0.29,0.33,0.56,0.55,0.55,0.33,0.55,0.5,0.55,0.56,0.29,0.56,0.48,0.58,0.55,0.48,0.42,0.42,0.48,0.58,0.33,0.29,0.5,0.29,0.55,0.55,0.29,0.29,0.55,0.29,0.42,0.55,0.42,0.33,0.4,0.55,0.58,0.56,0.29,0.56,0.55,0.29,0.58,0.61,0.6,0.48,0.58,0.44,0.48,0.61,0.55,0.55,0.56,0.55,0.23,0.6,0.42,0.33,0.55,0.55,0.58,0.48,0.55,0.55,0.4,0.55,0.33,0.83,0.55,0.55,0.88,0.5,0.29,0.58" style="fill:rgb(0,0,0);font-family:URWPalladioL-Roma;font-size:9.96px;stroke:none;">that the antimicrobial activity of a given essential oil is strongly inﬂuenced by just one or two main</text>
   <text y="232.942" x="76.535,81.047,86.595,95.568,101.675,107.224,113.138,118.006,123.92,127.232,131.541,134.031,138.4,143.481,149.396,155.4716,159.557,164.638,167.595,171.904,177.382,181.415,187.035,192.6126,196.638,199.951,205.865,210.6458,214.685,217.642,223.557,226.869,231.737,235.751,240.832,245.344,248.656,251.614,257.162,263.076,267.2592,271.338,276.957,281.825,285.138,293.612,298.48,303.348,309.1248,313.225,316.538,322.452,327.2328,331.272,340.245,345.326,347.704,353.252,357.236,361.219,366.3,372.214,378.2896,382.376,391.349,394.306,400.221,405.769,409.753,413.736,418.248,423.796,432.769,438.876,444.425,450.339,455.206,461.121,464.433,468.6162,472.705,478.812,482.643,487.511,491.819,496.687,502.601,505.8878,509.867,512.824" svgx:width="0.44,0.55,0.88,0.6,0.55,0.58,0.48,0.58,0.33,0.42,0.25,0.55,0.5,0.58,0.61,0.55,0.5,0.29,0.42,0.55,0.55,0.55,0.56,0.55,0.33,0.58,0.48,0.55,0.29,0.58,0.33,0.48,0.4,0.5,0.44,0.33,0.29,0.55,0.58,0.42,0.55,0.55,0.48,0.33,0.83,0.48,0.48,0.58,0.55,0.33,0.58,0.48,0.55,0.88,0.5,0.23,0.55,0.4,0.55,0.5,0.58,0.61,0.55,0.88,0.29,0.58,0.55,0.4,0.55,0.44,0.55,0.88,0.6,0.55,0.58,0.48,0.58,0.33,0.42,0.55,0.6,0.4,0.48,0.42,0.48,0.58,0.33,0.55,0.29,0.58" style="fill:rgb(0,0,0);font-family:URWPalladioL-Roma;font-size:9.96px;stroke:none;">components, and also by the interactions between the major and minor components present in</text>
   <text y="246.452" x="76.535,79.848,85.762,90.5428,93.424,98.972,101.929,104.8174,107.691,112.203,117.751,126.724,132.832,138.38,142.689,145.646,148.959,151.916,157.464,163.2408,166.173" svgx:width="0.33,0.58,0.48,0.55,0.55,0.29,0.29,0.55,0.44,0.55,0.88,0.6,0.55,0.42,0.29,0.33,0.29,0.55,0.58,0.55,0.33" style="fill:rgb(0,0,0);font-family:URWPalladioL-Roma;font-size:9.96px;stroke:none;">the oil composition [</text>
   <text y="246.452" x="169.558,174.539" svgx:width="0.5,0.5" style="fill:rgb(8,117,183);font-family:URWPalladioL-Roma;font-size:9.96px;stroke:none;">31</text>
   <text y="246.452" x="179.52,182.904,185.394,189.458,195.688,201.602,206.469,210.3,215.168,218.552,224.1,227.941,232.809,235.299,238.225,241.528,247.442,252.2228,255.114,261.323,264.28,268.589,271.901,274.858,280.773,285.285,288.597,291.554,297.296,302.0768,304.958,310.577,315.445,321.359,326.44,332.181,335.139,340.687,344.671,347.506,353.054,356.3408,359.232,362.545,368.459,373.2398,376.121,381.202,387.116,390.429,393.386,402.359,405.316,409.828,413.669,419.218,424.837,427.794,432.875,435.7634,438.627,443.708,448.22,451.532,454.49,460.231,463.188,466.501,472.0786,474.945,480.494,483.78080000000006,486.682,495.137,503.043,509.15,512.534" svgx:width="0.33,0.25,0.55,0.61,0.58,0.48,0.4,0.48,0.33,0.55,0.4,0.48,0.25,0.55,0.33,0.58,0.48,0.55,0.61,0.29,0.42,0.33,0.29,0.58,0.44,0.33,0.29,0.56,0.48,0.55,0.55,0.48,0.58,0.5,0.56,0.29,0.55,0.4,0.55,0.55,0.33,0.55,0.33,0.58,0.48,0.55,0.5,0.58,0.33,0.29,0.88,0.29,0.44,0.4,0.55,0.55,0.29,0.5,0.29,0.55,0.5,0.44,0.33,0.29,0.56,0.29,0.33,0.56,0.55,0.55,0.33,0.55,0.83,0.78,0.6,0.33,0.61" style="fill:rgb(0,0,0);font-family:URWPalladioL-Roma;font-size:9.96px;stroke:none;">]. Therefore, the distinctive behavior of the antimicrobial activity of HAp-B</text>
   <text y="259.961" x="76.535,81.616,87.53,93.6056,96.452,104.907,112.813,118.92,122.304,128.3796,131.226,135.535,140.616,149.589,155.696,158.653,163.52,167.7032,170.542,175.623,178.936,182.249,186.263,189.22,194.839,200.967,204.28,209.147,215.2226,218.069,221.382,226.86,229.644,232.956,238.871,243.6518,246.451,252.071,257.152,261.46,264.417,267.30539999999996,270.088,275.169,281.083,287.15860000000004,290.005,292.962,298.043,303.784,308.652,314.566,320.775,325.643,329.62699999999995,332.37,338.579,346.566,350.7492,353.588,358.1,363.648,369.776,372.733,378.8086,381.655,387.274,392.0548,394.855,398.696,403.564,406.521,411.602,414.914,419.782,425.8576,428.704,434.324,439.872,443.185,448.9618,451.812,455.125,460.603,463.387,466.699,472.613,477.3938,480.194,486.403,489.36,492.561,495.945,500.813,504.644,509.511,515.425" svgx:width="0.5,0.58,0.61,0.55,0.83,0.78,0.6,0.33,0.61,0.55,0.42,0.5,0.88,0.6,0.29,0.48,0.42,0.55,0.5,0.33,0.33,0.4,0.29,0.55,0.6,0.33,0.48,0.61,0.55,0.33,0.55,0.55,0.33,0.58,0.48,0.55,0.55,0.5,0.42,0.29,0.29,0.55,0.5,0.58,0.61,0.55,0.29,0.5,0.56,0.48,0.58,0.61,0.48,0.4,0.55,0.61,0.79,0.42,0.55,0.44,0.55,0.6,0.29,0.61,0.55,0.55,0.48,0.55,0.4,0.48,0.29,0.5,0.33,0.48,0.61,0.55,0.55,0.55,0.33,0.58,0.55,0.33,0.55,0.55,0.33,0.58,0.48,0.55,0.61,0.29,0.33,0.33,0.48,0.4,0.48,0.58,0.33" style="fill:rgb(0,0,0);font-family:URWPalladioL-Roma;font-size:9.96px;stroke:none;">and HAp-L samples attributed to the basil and lavender EOs could be related both to the different</text>
   <text y="273.471" x="76.535,79.405,85.145,88.361,93.085,96.981,101.912,106.292,109.507,112.377,117.762,123.502,127.6852,130.18,135.634,140.358,143.574,151.799,156.524,161.248,167.0248,169.484,172.699,178.439,183.2198,185.659,188.874,197.1,202.578,204.99,210.376,213.246,216.116,220.2992,222.793,227.172,232.557,238.298,242.48,245.695,248.565,251.78,257.728,262.452,268.192,271.408,275.5912,278.085,286.311,289.181,292.396,298.1728,300.632,303.847,309.587,314.3678,316.807,325.013,332.686,338.662,341.109,347.037,352.422,360.648,366.674,371.399,375.294,379.4772,381.972,386.903,392.643,398.7186,401.165,404.38,409.858,412.271,415.486,421.226,426.0068,428.446,432.628,438.112,443.852,448.576,452.295,457.779,463.3566,465.758,471.212,475.936,479.152,487.377,492.102,496.826,502.6028,505.062,508.277,514.017" svgx:width="0.29,0.58,0.33,0.48,0.4,0.5,0.44,0.33,0.29,0.55,0.58,0.42,0.55,0.55,0.48,0.33,0.83,0.48,0.48,0.58,0.55,0.33,0.58,0.48,0.55,0.33,0.83,0.55,0.55,0.55,0.29,0.29,0.42,0.55,0.44,0.55,0.58,0.42,0.33,0.29,0.33,0.6,0.48,0.58,0.33,0.42,0.55,0.83,0.29,0.33,0.58,0.55,0.33,0.58,0.48,0.55,0.83,0.78,0.6,0.55,0.6,0.55,0.83,0.61,0.48,0.4,0.42,0.55,0.5,0.58,0.61,0.55,0.33,0.55,0.55,0.33,0.58,0.48,0.55,0.42,0.56,0.58,0.48,0.4,0.56,0.56,0.55,0.55,0.48,0.33,0.83,0.48,0.48,0.58,0.55,0.33,0.58,0.48" style="fill:rgb(0,0,0);font-family:URWPalladioL-Roma;font-size:9.96px;stroke:none;">interactions between the two oils constituents with the HAp powders and to the synergy between the</text>
   <text y="286.98" x="76.535,81.038,86.576,92.478,96.778,100.085,103.036,106.342,112.458,117.316,123.218,126.5048,129.019,133.877,136.829,141.687,150.642,155.5,161.403,164.709,168.8922,171.504,177.042,180.3288,182.914,187.772,192.843,197.346,203.1228,205.743,211.281,214.232,217.183,219.673,222.214,226.514,231.372,237.467,242.538,246.544,251.615,254.921,259.779,262.731,267.264,269.754,272.903,279.12,285.023,289.8038,292.375,297.233,300.428,303.805,308.663,313.166,316.473,319.424,325.154,330.012,335.915,340.773,345.073,349.2562,351.868,357.405,360.6918,363.278,368.136,372.436,376.736,381.594,387.496,390.803,393.754,398.825,401.7134,404.271,409.809,412.76,415.711,419.8942,422.506,425.458,431.2348,433.855,436.806,442.709,448.612,451.563,457.171,460.123,463.429,466.38,472.283,477.86060000000003,480.417,486.025,491.096,495.599,498.905,503.763,507.769,510.721,515.792" svgx:width="0.44,0.55,0.58,0.42,0.33,0.29,0.33,0.6,0.48,0.58,0.33,0.55,0.48,0.29,0.48,0.88,0.48,0.58,0.33,0.42,0.55,0.55,0.33,0.55,0.48,0.5,0.44,0.58,0.55,0.55,0.29,0.29,0.25,0.55,0.42,0.48,0.6,0.5,0.4,0.5,0.33,0.48,0.29,0.56,0.25,0.55,0.61,0.58,0.48,0.55,0.48,0.33,0.33,0.48,0.44,0.33,0.29,0.56,0.48,0.58,0.48,0.42,0.42,0.55,0.55,0.33,0.55,0.48,0.42,0.42,0.48,0.58,0.33,0.29,0.5,0.29,0.55,0.55,0.29,0.29,0.42,0.55,0.29,0.58,0.55,0.29,0.58,0.58,0.29,0.55,0.29,0.33,0.29,0.58,0.56,0.55,0.55,0.5,0.44,0.33,0.48,0.4,0.29,0.5,0.29" style="fill:rgb(0,0,0);font-family:URWPalladioL-Roma;font-size:9.96px;stroke:none;">constituent elements of each oil, separately. The effectiveness of essential oils in inhibiting bacterial</text>
   <text y="300.489" x="76.535,82.002,85.709,91.078,99.279,102.485,108.2618,110.705,113.566,117.7492,120.243,124.412,127.618,131.325,136.694,142.417,147.884,150.745,156.3226,158.71,164.718,169.428,175.338,180.048,185.771,191.779,196.489,202.5646,205.004,210.373,216.1498,218.594,221.799,227.522,232.3028,234.74,240.462,245.379,248.584,254.514,258.221,263.0018,265.429,270.797,274.08380000000005,276.579,279.854,285.783,291.506,295.872,299.077,301.939,307.308,313.031,317.947,320.8354,323.306,328.773,332.48,337.849,343.779,349.688,353.8712,356.355,361.272,366.994,373.06960000000004,375.51,380.879,384.763,387.624,392.334,398.057,401.263,406.179,409.385,412.246,417.615,423.338,425.82800000000003,428.923,435.108,440.025,443.909,446.77,452.139,458.069,462.2522,464.735,473.418,478.128,482.494,488.217,493.133,498.856,501.718,505.887,514.569" svgx:width="0.56,0.4,0.55,0.83,0.33,0.58,0.55,0.29,0.42,0.55,0.42,0.33,0.4,0.55,0.58,0.56,0.29,0.56,0.55,0.61,0.48,0.6,0.48,0.58,0.61,0.48,0.61,0.55,0.55,0.58,0.55,0.33,0.58,0.48,0.55,0.58,0.5,0.33,0.6,0.4,0.48,0.55,0.55,0.33,0.55,0.33,0.6,0.58,0.44,0.33,0.29,0.55,0.58,0.5,0.29,0.55,0.56,0.4,0.55,0.6,0.6,0.42,0.55,0.5,0.58,0.61,0.55,0.55,0.4,0.29,0.48,0.58,0.33,0.5,0.33,0.29,0.55,0.58,0.25,0.55,0.72,0.5,0.4,0.29,0.55,0.6,0.42,0.55,0.88,0.48,0.44,0.58,0.5,0.58,0.29,0.42,0.88,0.42" style="fill:rgb(0,0,0);font-family:URWPalladioL-Roma;font-size:9.96px;stroke:none;">growth is strongly depended on the nature of functional groups and orientation. Various mechanisms</text>
   <text y="313.999" x="76.535,81.403,86.646,92.753,95.71,100.791,103.748,109.663,112.62,118.534,124.11160000000001,127.232,130.545,136.459,141.2398,144.376,149.456,155.371,158.683,161.641,170.613,173.571,178.082,181.913,187.462,193.081,196.038,201.119,204.0074,207.125,212.206,216.718,220.03,222.988,228.729,231.686,234.999,240.57659999999998,243.687,249.236,252.5228,255.668,261.877,269.864,274.0472,277.221,283.136,288.216,293.958,298.7388,301.874,307.493,312.361,317.229,323.00579999999997,326.191,330.022,334.89,340.997,346.545,350.559,353.872,358.74,364.8156,367.997,370.954,376.7308,379.907,383.22,389.134,393.9148,397.05,400.007,402.964,406.277,411.144,415.158,420.239,423.552,429.68,433.511,438.378,440.868,445.674,451.883,459.87,464.0532,467.228,471.739,476.82,482.5968,485.783,491.992,494.949,499.258,503.19,509.318,515.425" svgx:width="0.48,0.52,0.6,0.29,0.5,0.29,0.58,0.29,0.58,0.56,0.55,0.33,0.58,0.48,0.55,0.5,0.58,0.33,0.29,0.88,0.29,0.44,0.4,0.55,0.55,0.29,0.5,0.29,0.55,0.5,0.44,0.33,0.29,0.56,0.29,0.33,0.56,0.55,0.55,0.33,0.55,0.61,0.79,0.42,0.55,0.58,0.5,0.56,0.48,0.55,0.55,0.48,0.48,0.58,0.55,0.4,0.48,0.6,0.55,0.4,0.33,0.48,0.61,0.55,0.29,0.58,0.55,0.33,0.58,0.48,0.55,0.29,0.29,0.33,0.48,0.4,0.5,0.33,0.6,0.4,0.48,0.25,0.55,0.61,0.79,0.42,0.55,0.44,0.5,0.58,0.55,0.61,0.29,0.42,0.4,0.6,0.6,0.33" style="fill:rgb(0,0,0);font-family:URWPalladioL-Roma;font-size:9.96px;stroke:none;">explaining the antimicrobial activity of EOs have been reported in the literature. EOs can disrupt</text>
   <text y="327.508" x="76.535,79.848,85.762,90.5428,93.282,97.794,102.661,105.618,108.5064,111.228,120.2,125.068,134.041,139.66,143.674,148.755,154.67,159.4508,162.189,167.738,171.0248,173.774,178.754,181.507,190.48,193.437,197.949,201.78,207.328,212.877,216.708,222.358,227.439,233.353,236.31,240.618,249.3828,252.244,257.863,263.4406,266.165,270.474,273.431,282.404,288.511,291.468,297.04560000000004,299.771,302.728,308.642,313.154,316.985,321.852,326.933,331.242,334.199,340.113,345.6906,348.415,357.388,362.256,371.229,376.848,380.862,385.943,391.857,396.6378,399.377,405.484,410.352,414.366,423.339,428.206,433.287,438.907,441.864,444.821,447.778,451.091,455.633,458.123,460.866,467.075,471.943,476.251,479.564,484.645,490.265,493.222,496.179,499.136,504.217,507.174,513.088" svgx:width="0.33,0.58,0.48,0.55,0.44,0.48,0.29,0.29,0.55,0.88,0.48,0.88,0.55,0.4,0.5,0.58,0.48,0.55,0.55,0.33,0.55,0.5,0.55,0.88,0.29,0.44,0.4,0.55,0.55,0.4,0.56,0.5,0.58,0.29,0.42,0.88,0.55,0.55,0.56,0.55,0.42,0.29,0.88,0.6,0.29,0.56,0.55,0.29,0.58,0.44,0.4,0.48,0.5,0.42,0.29,0.58,0.56,0.55,0.88,0.48,0.88,0.55,0.4,0.5,0.58,0.48,0.55,0.6,0.48,0.4,0.88,0.48,0.5,0.55,0.29,0.29,0.29,0.33,0.56,0.25,0.55,0.61,0.48,0.42,0.33,0.5,0.55,0.29,0.29,0.29,0.5,0.29,0.58,0.56" style="fill:rgb(0,0,0);font-family:URWPalladioL-Roma;font-size:9.96px;stroke:none;">the cell membrane of a microorganism by simply increasing membrane permeability, destabilizing</text>
   <text y="341.018" x="76.535,79.848,85.762,90.5428,93.424,97.936,102.803,105.761,108.718,114.845,117.802,122.883,126.86699999999999,129.702,134.783,138.614,143.126,149.04,151.997,155.31,160.177,164.689,168.002,174.129,177.96,182.7408,185.633,190.145,195.225,201.353,205.651,208.609,214.523,220.1006,222.977,226.29,232.204,236.9848,239.866,245.486,249.317,254.184,259.265,264.915,271.124,276.673,285.148,290.9248,293.866,299.415,302.70180000000005,305.593,314.566,319.434,328.407,334.026,338.04,343.121,349.035,353.8158,356.697,359.654,365.568,368.881,373.749,379.399,383.413,386.37,389.683,394.225,396.71500000000003,399.641,408.116,414.03,416.987,421.499,427.2758,430.218,436.427,439.374,443.683,447.625,453.753,459.86,463.173,467.3562,470.276,479.249,484.33,490.244,495.82160000000005,498.689,504.43,507.387,510.7,515.781" svgx:width="0.33,0.58,0.48,0.55,0.44,0.48,0.29,0.29,0.6,0.29,0.5,0.4,0.55,0.5,0.4,0.44,0.58,0.29,0.33,0.48,0.44,0.33,0.6,0.4,0.48,0.55,0.44,0.5,0.6,0.42,0.29,0.58,0.56,0.55,0.33,0.58,0.48,0.55,0.55,0.4,0.48,0.5,0.56,0.61,0.55,0.83,0.58,0.55,0.55,0.33,0.55,0.88,0.48,0.88,0.55,0.4,0.5,0.58,0.48,0.55,0.29,0.58,0.33,0.48,0.56,0.4,0.29,0.33,0.56,0.25,0.55,0.83,0.58,0.29,0.44,0.58,0.55,0.61,0.29,0.42,0.4,0.6,0.6,0.33,0.42,0.55,0.88,0.5,0.58,0.56,0.55,0.56,0.29,0.33,0.5,0.29" style="fill:rgb(0,0,0);font-family:URWPalladioL-Roma;font-size:9.96px;stroke:none;">the cellular architecture causing the breakdown of membrane integrity, which disrupts many vital</text>
   <text y="354.527" x="76.535,80.87,85.547,88.388,91.229,97.116,99.957,104.839,108.823,111.146,116.028,120.363,123.546,126.387,131.903,134.744,137.927,140.768,145.445,149.6282,152.045" svgx:width="0.44,0.48,0.29,0.29,0.6,0.29,0.5,0.4,0.55,0.5,0.44,0.33,0.29,0.56,0.29,0.33,0.29,0.48,0.42,0.55,0.33" style="fill:rgb(0,0,0);font-family:URWPalladioL-Roma;font-size:9.96px;stroke:none;">cellular activities [</text>
   <text y="354.527" x="155.293,160.274" svgx:width="0.5,0.5" style="fill:rgb(8,117,183);font-family:URWPalladioL-Roma;font-size:9.96px;stroke:none;">32</text>
   <text y="354.527" x="165.255,168.506,170.996,174.022,180.007,185.69,190.366,194.047,198.724,201.975,207.306,210.977,215.653,218.143,220.555,223.737,229.42,234.2008,236.557,241.438,247.121,250.304,253.145,261.766,264.607,268.942,272.613,277.944,283.343,286.184,291.065,293.9534,296.367,301.249,305.584,308.766,311.608,317.124,319.965,323.148,328.72560000000004,331.027,336.358,339.64480000000003,342.059,348.025,355.699,359.8822,362.299,368.264,371.105,374.171,377.432,382.109,385.965,390.1482,392.555,398.521,403.197,409.065,413.742,419.424,425.389,428.231,433.913,439.49060000000003,441.792,447.123,452.89979999999997,455.265,458.448,464.13,468.9108,471.258,474.441,479.869,485.737,490.5178,492.864,498.195,501.4818,503.906,509.872,517.546" svgx:width="0.33,0.25,0.55,0.61,0.58,0.48,0.4,0.48,0.33,0.55,0.4,0.48,0.25,0.55,0.33,0.58,0.48,0.55,0.5,0.58,0.33,0.29,0.88,0.29,0.44,0.4,0.55,0.55,0.29,0.5,0.29,0.55,0.5,0.44,0.33,0.29,0.56,0.29,0.33,0.56,0.55,0.55,0.33,0.55,0.61,0.79,0.42,0.55,0.61,0.29,0.33,0.33,0.48,0.4,0.42,0.55,0.61,0.48,0.6,0.48,0.58,0.61,0.29,0.58,0.56,0.55,0.55,0.58,0.55,0.33,0.58,0.48,0.55,0.33,0.56,0.6,0.48,0.55,0.55,0.33,0.55,0.61,0.79,0.25" style="fill:rgb(0,0,0);font-family:URWPalladioL-Roma;font-size:9.96px;stroke:none;">]. Therefore, the antimicrobial activity of EOs differs depending on the type of EO,</text>
   <text y="368.036" x="76.535,81.546,85.7292,88.281,96.64,101.441,104.357,107.2454,109.749,114.76,118.9432,121.495,124.763,130.596,135.3768,137.872,141.139,146.15,149.929,155.501,160.302,163.569,168.37,174.4456,176.979,185.829,188.745,193.195,196.974,202.446,207.988,210.905,215.916,218.8044,221.308,225.558,228.825,232.784,237.795,240.711,246.544,249.03400000000002,251.536,257.659,262.46,268.483,273.284,279.117,285.241,288.157,293.99,299.5676,302.038,307.511,313.2878,315.829,319.096,324.929,329.73,332.647,336.631,339.091,343.34,346.598,350.486,356.53,360.98,364.247,370.291,374.069,378.8498,381.345,384.683,392.33,396.289,401.3,412.635,418.659,424.131,428.38,431.297,434.564,437.481,443.143,447.944,450.434,452.925,460.572,464.531,469.542,480.878,486.711,491.511,497.084,502.095,505.362,508.279,513.941" svgx:width="0.5,0.42,0.55,0.83,0.48,0.29,0.29,0.55,0.5,0.42,0.55,0.33,0.58,0.48,0.55,0.33,0.5,0.4,0.56,0.48,0.33,0.48,0.61,0.55,0.88,0.29,0.44,0.4,0.55,0.55,0.29,0.5,0.29,0.55,0.42,0.33,0.4,0.5,0.29,0.58,0.25,0.55,0.61,0.48,0.6,0.48,0.58,0.61,0.29,0.58,0.56,0.55,0.55,0.58,0.55,0.33,0.58,0.48,0.29,0.4,0.55,0.42,0.33,0.4,0.6,0.44,0.33,0.6,0.4,0.48,0.55,0.33,0.76,0.4,0.5,0.88,0.6,0.55,0.42,0.29,0.33,0.29,0.56,0.48,0.25,0.55,0.76,0.4,0.5,0.88,0.58,0.48,0.56,0.5,0.33,0.29,0.56,0.48" style="fill:rgb(0,0,0);font-family:URWPalladioL-Roma;font-size:9.96px;stroke:none;">as well as the targeted microbial strain, depending on their structure (Grampositive, Gramnegative</text>
   <text y="381.546" x="76.535,81.616,87.53,93.6056,97.092,100.476,106.604,112.518,118.168,121.125,124.509,126.999,132.74,136.165,139.4518,142.841,148.755,153.836,158.0192,161.498,167.118,171.985,176.853,182.62980000000002,186.131,189.962,194.829,200.936,206.485,210.499,213.811,218.679,224.7546,228.241,231.554,237.468,242.549,245.8358,249.225,253.534,258.615,264.529,270.738,275.819,278.776,287.251,292.799,298.348,304.4236,307.91,312.991,318.905,324.9806,328.478,334.219,339.087,342.4,345.357,351.098,355.966,359.95,363.333,369.542,377.529,381.7122,385.201,391.115,396.196,401.938,406.7188,410.159,414.467,417.78,421.611,427.16,433.074,438.65160000000003,442.087,445.044,450.959,456.873,459.83,465.449,468.406,471.719,477.268,481.282,486.8596,490.285,495.152,498.364,501.737,506.605,511.117,514.43" svgx:width="0.5,0.58,0.61,0.55,0.33,0.6,0.58,0.56,0.29,0.33,0.25,0.55,0.34,0.33,0.55,0.58,0.5,0.42,0.55,0.55,0.48,0.48,0.58,0.55,0.4,0.48,0.6,0.55,0.4,0.33,0.48,0.61,0.55,0.33,0.58,0.5,0.33,0.55,0.42,0.5,0.58,0.61,0.5,0.29,0.83,0.55,0.55,0.61,0.55,0.5,0.58,0.61,0.55,0.56,0.48,0.33,0.29,0.56,0.48,0.4,0.55,0.61,0.79,0.42,0.55,0.58,0.5,0.56,0.48,0.55,0.42,0.33,0.4,0.55,0.58,0.56,0.55,0.29,0.58,0.58,0.29,0.55,0.29,0.33,0.55,0.4,0.56,0.55,0.48,0.33,0.33,0.48,0.44,0.33,0.42" style="fill:rgb(0,0,0);font-family:URWPalladioL-Roma;font-size:9.96px;stroke:none;">and fungi). It has been reported that sandalwood and vetiver EOs have strong inhibitory effects</text>
   <text y="395.055" x="76.535,82.083,87.85979999999999,91.087,94.4,100.314,105.09479999999999,108.281,116.034,120.048,125.129,134.102,137.486,143.593,149.141,153.45,156.407,159.72,162.677,168.418,173.1988,176.375,181.995,187.076,191.587,194.9,199.768,203.782,206.739,211.82,214.70839999999998,217.866,222.175,225.487,229.501,234.582,237.539,243.454,247.762,250.252,253.544,262.019,267.933,270.891,273.848,278.6288,281.804,285.117,291.031,295.899,301.4766,304.648,310.857,316.33500000000004,319.495,325.409,330.957,334.2438,337.359,342.227,347.47,353.384,356.341,361.961,364.918,368.20480000000003,371.32,376.401,382.315,387.8926,391.065,396.145,402.06,405.372,408.33,413.949,419.03,423.542,426.855,431.722,435.736,438.693,443.774,446.6624,449.82,454.901,459.413,462.726,465.683,471.425,474.382,477.694,483.27160000000003,486.434,491.515,497.165,502.245,505.203,511.117,515.425" svgx:width="0.55,0.58,0.55,0.33,0.58,0.48,0.55,0.76,0.4,0.5,0.88,0.33,0.6,0.55,0.42,0.29,0.33,0.29,0.56,0.48,0.55,0.55,0.5,0.44,0.33,0.48,0.4,0.29,0.5,0.29,0.55,0.42,0.33,0.4,0.5,0.29,0.58,0.42,0.25,0.55,0.83,0.58,0.29,0.29,0.48,0.55,0.33,0.58,0.48,0.56,0.55,0.61,0.55,0.55,0.58,0.55,0.33,0.55,0.48,0.52,0.58,0.29,0.55,0.29,0.33,0.55,0.5,0.58,0.56,0.55,0.5,0.58,0.33,0.29,0.55,0.5,0.44,0.33,0.48,0.4,0.29,0.5,0.29,0.55,0.5,0.44,0.33,0.29,0.56,0.29,0.33,0.56,0.55,0.5,0.56,0.5,0.29,0.58,0.42,0.33" style="fill:rgb(0,0,0);font-family:URWPalladioL-Roma;font-size:9.96px;stroke:none;">on the Gram-positive bacterial strains, while they do not exhibit any antibacterial activity against</text>
   <text y="408.565" x="76.535,84.288,88.302,93.383,102.356,105.74,111.654,116.522,122.172,127.253,130.566,133.523,139.264,144.0448,147.637,153.257,158.338,162.85,166.163,171.03,175.044,178.001,183.082,185.97039999999998,189.545,193.854,197.166,201.18,206.261,209.218,215.132,219.3152,222.947" svgx:width="0.76,0.4,0.5,0.88,0.33,0.58,0.48,0.56,0.5,0.33,0.29,0.56,0.48,0.55,0.55,0.5,0.44,0.33,0.48,0.4,0.29,0.5,0.29,0.55,0.42,0.33,0.4,0.5,0.29,0.58,0.42,0.55,0.33" style="fill:rgb(0,0,0);font-family:URWPalladioL-Roma;font-size:9.96px;stroke:none;">Gram-negative bacterial strains [</text>
   <text y="408.565" x="226.328,231.309" svgx:width="0.5,0.5" style="fill:rgb(8,117,183);font-family:URWPalladioL-Roma;font-size:9.96px;stroke:none;">33</text>
   <text y="408.565" x="236.291" svgx:width="0.25" style="fill:rgb(0,0,0);font-family:URWPalladioL-Roma;font-size:9.96px;stroke:none;">,</text>
   <text y="408.565" x="238.831,243.812" svgx:width="0.5,0.5" style="fill:rgb(8,117,183);font-family:URWPalladioL-Roma;font-size:9.96px;stroke:none;">34</text>
   <text y="408.565" x="248.794,252.178,254.668,260.846,268.833,274.6098,278.253,281.566,287.48,292.2608,295.854,301.402,304.715,310.629,315.496,319.47999999999996,323.016,328.93,334.011,339.925,346.134,348.624,352.435,358.644,366.631,370.81419999999997,374.445,379.994,385.613,388.926,394.007,396.964,402.878,407.746,413.8216,417.46,420.844,424.675,430.224,438.98879999999997,442.702,447.214,450.171,456.086,462.0,467.081,476.054,481.602,487.516,490.00600000000003,493.816,498.328,501.285,506.834,512.575,517.443" svgx:width="0.33,0.25,0.55,0.79,0.58,0.55,0.33,0.58,0.48,0.55,0.55,0.33,0.58,0.48,0.4,0.55,0.58,0.5,0.58,0.61,0.25,0.55,0.61,0.79,0.42,0.55,0.55,0.55,0.33,0.5,0.29,0.58,0.48,0.61,0.55,0.33,0.4,0.55,0.88,0.55,0.44,0.29,0.58,0.58,0.5,0.88,0.55,0.58,0.25,0.55,0.44,0.29,0.55,0.56,0.48,0.25" style="fill:rgb(0,0,0);font-family:URWPalladioL-Roma;font-size:9.96px;stroke:none;">]. On the other hand, EOs obtained from cinnamon, clove,</text>
   <text y="422.074" x="76.236,82.343,85.3,94.273,99.141,105.055,108.368,113.916,116.40599999999999,119.18,122.493,128.407,134.057,143.03,147.897,150.387,153.161,158.71,162.541,167.408,173.058,178.139,184.053,189.602,192.092,194.865,199.946,205.861,211.9366,214.752,218.583,224.132,228.44,233.308,242.281,247.362,251.376,256.9536,259.708,265.622,270.703,276.445,281.2258,283.985,289.604,294.472,299.34,305.11679999999996,307.936,311.767,316.635,322.742,328.291,332.305,335.617,340.485,346.5606,349.366,352.679,358.157,360.91,366.53,371.3108,374.07,378.937,382.148,385.522,390.39,394.902,398.214,401.172,406.913,411.6938,414.463,419.544,425.194,430.275,433.232,439.146,443.455" svgx:width="0.6,0.29,0.88,0.48,0.58,0.33,0.55,0.25,0.55,0.33,0.58,0.56,0.88,0.48,0.25,0.55,0.55,0.4,0.48,0.56,0.5,0.58,0.55,0.25,0.55,0.5,0.58,0.61,0.55,0.4,0.55,0.42,0.48,0.88,0.5,0.4,0.56,0.55,0.58,0.5,0.56,0.48,0.55,0.55,0.48,0.48,0.58,0.55,0.4,0.48,0.6,0.55,0.4,0.33,0.48,0.61,0.55,0.33,0.55,0.55,0.55,0.48,0.55,0.48,0.33,0.33,0.48,0.44,0.33,0.29,0.56,0.48,0.55,0.5,0.56,0.5,0.29,0.58,0.42,0.33" style="fill:rgb(0,0,0);font-family:URWPalladioL-Roma;font-size:9.96px;stroke:none;">pimento, thyme, oregano, and rosemary have been reported to be effective against</text>
   <text y="422.074" x="449.442,455.092,459.604,462.429,470.335,474.847,480.497,484.45,487.275,490.1,494.48240000000004,497.284,500.668,505.749,510.83,515.911" svgx:width="0.56,0.44,0.28,0.78,0.44,0.56,0.39,0.28,0.28,0.44,0.55,0.33,0.5,0.5,0.5,0.28" style="fill:rgb(0,0,0);font-family:URWPalladioL-Ital;font-size:9.96px;stroke:none;">Salmonella typhi</text>
   <text y="435.583" x="76.207,79.554,87.224,91.195,96.221,107.58,113.431,118.246,123.835,128.861,132.138,135.063,140.743,145.558,148.905" svgx:width="0.33,0.76,0.4,0.5,0.88,0.58,0.48,0.56,0.5,0.33,0.29,0.56,0.48,0.33,0.25" style="fill:rgb(0,0,0);font-family:URWPalladioL-Roma;font-size:9.96px;stroke:none;">(Gramnegative),</text>
   <text y="435.583" x="153.902,159.491,162.838,167.302,172.328,177.354,182.38,185.175,189.638,193.729,198.192,202.284,206.375,211.964,215.8484,218.357,222.82,228.409,232.139,236.049,241.638" svgx:width="0.56,0.33,0.44,0.5,0.5,0.5,0.28,0.44,0.41,0.44,0.41,0.41,0.56,0.39,0.55,0.44,0.56,0.39,0.39,0.56,0.39" style="fill:rgb(0,0,0);font-family:URWPalladioL-Ital;font-size:9.96px;stroke:none;">Staphylococcus aureus</text>
   <text y="435.583" x="248.033,251.38,259.05,263.021,268.047,279.406,285.448,290.936,295.198,298.123,301.4,304.326,310.005,314.82,318.168,320.658,323.164,328.19,334.04" svgx:width="0.33,0.76,0.4,0.5,0.88,0.6,0.55,0.42,0.29,0.33,0.29,0.56,0.48,0.33,0.25,0.55,0.5,0.58,0.61" style="fill:rgb(0,0,0);font-family:URWPalladioL-Roma;font-size:9.96px;stroke:none;">(Grampositive), and</text>
   <text y="435.583" x="342.667,348.809,352.719,356.63,362.219,367.245,371.708,379.529,383.992,389.581,394.044,397.9284,400.437,404.901,408.811,412.721,418.31,423.336,426.131,431.72,436.183,440.093" svgx:width="0.61,0.39,0.39,0.56,0.5,0.44,0.78,0.44,0.56,0.44,0.39,0.55,0.44,0.39,0.39,0.56,0.5,0.28,0.56,0.44,0.39,0.44" style="fill:rgb(0,0,0);font-family:URWPalladioL-Ital;font-size:9.96px;stroke:none;">Pseudomonas aeruginosa</text>
   <text y="435.583" x="447.039,450.386,458.056,462.027,467.053,478.412,484.263,489.078,494.667,499.693,502.97,505.895,511.575,516.39" svgx:width="0.33,0.76,0.4,0.5,0.88,0.58,0.48,0.56,0.5,0.33,0.29,0.56,0.48,0.33" style="fill:rgb(0,0,0);font-family:URWPalladioL-Roma;font-size:9.96px;stroke:none;">(Gramnegative)</text>
   <text y="449.093" x="76.535,81.995,86.931,91.315,94.533,99.262,103.162,106.035,110.972,113.8604,116.343,120.529,123.747,127.647,132.584,135.457,141.203,145.3862,147.877" svgx:width="0.55,0.5,0.44,0.33,0.48,0.4,0.29,0.5,0.29,0.55,0.42,0.33,0.4,0.5,0.29,0.58,0.42,0.55,0.33" style="fill:rgb(0,0,0);font-family:URWPalladioL-Roma;font-size:9.96px;stroke:none;">bacterial strains [</text>
   <text y="449.093" x="151.169,156.15" svgx:width="0.5,0.5" style="fill:rgb(8,117,183);font-family:URWPalladioL-Roma;font-size:9.96px;stroke:none;">35</text>
   <text y="449.093" x="161.132,164.42,166.91,169.988,179.328,184.718,188.441,193.17,198.56,204.139,208.868,212.027" svgx:width="0.33,0.25,0.55,0.95,0.55,0.4,0.48,0.55,0.56,0.48,0.4,0.25" style="fill:rgb(0,0,0);font-family:URWPalladioL-Roma;font-size:9.96px;stroke:none;">]. Moreover,</text>
   <text y="449.093" x="216.995,226.315,231.252,235.092,238.38,243.869,247.7534,250.208,254.226,258.609,266.291,273.972,279.461,284.95,287.695" svgx:width="0.94,0.5,0.39,0.33,0.56,0.39,0.55,0.41,0.44,0.78,0.78,0.56,0.56,0.28,0.39" style="fill:rgb(0,0,0);font-family:URWPalladioL-Ital;font-size:9.96px;stroke:none;">Myrtus communis</text>
   <text y="449.093" x="294.027,300.059,307.92740000000003,310.317,316.063,321.0,325.1832,327.684,333.144,337.873,342.592,348.36879999999996,350.836,356.868,361.597,365.784,370.167,374.067,376.94,382.4,387.129,393.2046,395.659,400.596,404.7792,407.28,412.739,417.468,420.341,426.087,431.6646,434.065,438.794,441.904,445.192,449.921,454.304,457.523,460.396,465.974,470.7548,473.201,476.074,481.8508,484.318,487.537,493.283,498.0638,500.51,504.893,509.83,514.016" svgx:width="0.61,0.79,0.55,0.58,0.5,0.42,0.55,0.55,0.48,0.48,0.58,0.55,0.61,0.48,0.42,0.44,0.4,0.29,0.55,0.48,0.61,0.55,0.5,0.42,0.55,0.55,0.48,0.29,0.58,0.56,0.55,0.48,0.33,0.33,0.48,0.44,0.33,0.29,0.56,0.48,0.55,0.29,0.58,0.55,0.33,0.58,0.48,0.55,0.44,0.5,0.42,0.48" style="fill:rgb(0,0,0);font-family:URWPalladioL-Roma;font-size:9.96px;stroke:none;">EO has been described as being effective in the case</text>
   <text y="462.602" x="76.535,82.029" svgx:width="0.55,0.33" style="fill:rgb(0,0,0);font-family:URWPalladioL-Roma;font-size:9.96px;stroke:none;">of</text>
   <text y="462.602" x="87.866,93.461,95.951,98.462,102.929,108.524,112.257,116.171,121.766" svgx:width="0.56,0.25,0.55,0.44,0.56,0.39,0.39,0.56,0.39" style="fill:rgb(0,0,0);font-family:URWPalladioL-Ital;font-size:9.96px;stroke:none;">S. aureus</text>
   <text y="462.602" x="125.682" svgx:width="0.25" style="fill:rgb(0,0,0);font-family:URWPalladioL-Roma;font-size:9.96px;stroke:none;">,</text>
   <text y="462.602" x="130.685,136.28,138.77,141.281,149.109,153.577,159.171,163.639,167.734,172.765,176.116,180.584,185.615,189.529,195.123,199.038" svgx:width="0.56,0.25,0.55,0.78,0.44,0.56,0.44,0.41,0.5,0.33,0.44,0.5,0.39,0.56,0.39,0.39" style="fill:rgb(0,0,0);font-family:URWPalladioL-Ital;font-size:9.96px;stroke:none;">L. monocytogenes</text>
   <text y="462.602" x="202.952" svgx:width="0.25" style="fill:rgb(0,0,0);font-family:URWPalladioL-Roma;font-size:9.96px;stroke:none;">,</text>
   <text y="462.602" x="207.955,214.103,219.698,223.048,226.963,230.696,235.163,239.259,243.726,247.822,251.917,257.511,261.39540000000005,263.911,268.942,274.537,278.451,282.919,288.513" svgx:width="0.61,0.56,0.33,0.39,0.39,0.44,0.41,0.44,0.41,0.41,0.56,0.39,0.55,0.5,0.56,0.39,0.44,0.56,0.39" style="fill:rgb(0,0,0);font-family:URWPalladioL-Ital;font-size:9.96px;stroke:none;">Enterococcus durans</text>
   <text y="462.602" x="292.429" svgx:width="0.25" style="fill:rgb(0,0,0);font-family:URWPalladioL-Roma;font-size:9.96px;stroke:none;">,</text>
   <text y="462.602" x="297.431,303.579,306.069,308.58,312.494,318.089,322.748,326.098,328.896,331.693,334.49,338.404,340.894,343.405,352.904,357.935,362.031,366.498,371.157,375.625,379.72,383.071,386.985,390.899,393.696,399.291,407.0598,409.605,412.956,418.55,423.209,427.123,430.856,434.952,440.546,443.343,447.811,451.725,454.523" svgx:width="0.61,0.25,0.55,0.39,0.56,0.46,0.33,0.28,0.28,0.28,0.39,0.25,0.55,0.94,0.5,0.41,0.44,0.46,0.44,0.41,0.33,0.39,0.39,0.28,0.56,0.78,0.55,0.33,0.56,0.46,0.39,0.39,0.41,0.56,0.28,0.44,0.39,0.28,0.39" style="fill:rgb(0,0,0);font-family:URWPalladioL-Ital;font-size:9.96px;stroke:none;">B. subtilis, Mycobacterium tuberculosis</text>
   <text y="462.602" x="458.44" svgx:width="0.25" style="fill:rgb(0,0,0);font-family:URWPalladioL-Roma;font-size:9.96px;stroke:none;">,</text>
   <text y="462.602" x="463.443,468.303,470.793,473.304,477.772,481.686,485.6,491.195,496.226,499.023,504.618,509.085,513.0" svgx:width="0.61,0.25,0.55,0.44,0.39,0.39,0.56,0.5,0.28,0.56,0.44,0.39,0.44" style="fill:rgb(0,0,0);font-family:URWPalladioL-Ital;font-size:9.96px;stroke:none;">P. aeruginosa</text>
   <text y="462.602" x="517.47" svgx:width="0.25" style="fill:rgb(0,0,0);font-family:URWPalladioL-Roma;font-size:9.96px;stroke:none;">,</text>
   <text y="476.112" x="76.256,81.906,84.396,87.302,90.686,95.767,100.848,105.929" svgx:width="0.56,0.25,0.55,0.33,0.5,0.5,0.5,0.28" style="fill:rgb(0,0,0);font-family:URWPalladioL-Ital;font-size:9.96px;stroke:none;">S. typhi</text>
   <text y="476.112" x="108.75" svgx:width="0.25" style="fill:rgb(0,0,0);font-family:URWPalladioL-Roma;font-size:9.96px;stroke:none;">,</text>
   <text y="476.112" x="114.231,120.44,122.92999999999999,125.836,129.972,134.484,137.309" svgx:width="0.61,0.25,0.55,0.41,0.44,0.28,0.28" style="fill:rgb(0,0,0);font-family:URWPalladioL-Ital;font-size:9.96px;stroke:none;">E. coli</text>
   <text y="476.112" x="140.129" svgx:width="0.25" style="fill:rgb(0,0,0);font-family:URWPalladioL-Roma;font-size:9.96px;stroke:none;">,</text>
   <text y="476.112" x="145.611,152.389,154.87900000000002,157.785,162.866,168.516,172.469,178.119,186.025,190.537,196.187,199.001,203.513" svgx:width="0.67,0.25,0.55,0.5,0.56,0.39,0.56,0.78,0.44,0.56,0.28,0.44,0.39" style="fill:rgb(0,0,0);font-family:URWPalladioL-Ital;font-size:9.96px;stroke:none;">K. pneumoniae</text>
   <text y="476.112" x="207.471,209.961,212.948,218.029,223.943" svgx:width="0.25,0.55,0.5,0.58,0.61" style="fill:rgb(0,0,0);font-family:URWPalladioL-Roma;font-size:9.96px;stroke:none;">, and</text>
   <text y="476.112" x="233.008,242.601,247.682,251.818,256.329,261.034,265.546,269.682,273.066,277.019,280.972,283.797,289.447,297.2158,300.198,304.71,309.791,312.616,318.266" svgx:width="0.94,0.5,0.41,0.44,0.46,0.44,0.41,0.33,0.39,0.39,0.28,0.56,0.78,0.55,0.44,0.5,0.28,0.56,0.78" style="fill:rgb(0,0,0);font-family:URWPalladioL-Ital;font-size:9.96px;stroke:none;">Mycobacterium avium</text>
   <text y="476.112" x="329.028,334.648,339.728,344.24,347.553,352.421,356.435,359.392,364.473,367.3614,370.275,374.584,377.896,381.91,386.991,389.948,395.863,400.171,402.661,405.659,414.134,420.048,423.005,427.517,433.2938,436.276,441.896,446.763,449.72,455.269,461.183,466.7606,469.688,475.308,480.856,484.169,489.94579999999996,492.939,496.251,501.729,504.645,507.958,513.872" svgx:width="0.55,0.5,0.44,0.33,0.48,0.4,0.29,0.5,0.29,0.55,0.42,0.33,0.4,0.5,0.29,0.58,0.42,0.25,0.55,0.83,0.58,0.29,0.44,0.58,0.55,0.55,0.48,0.29,0.55,0.58,0.56,0.55,0.55,0.55,0.33,0.58,0.55,0.33,0.55,0.55,0.33,0.58,0.48" style="fill:rgb(0,0,0);font-family:URWPalladioL-Roma;font-size:9.96px;stroke:none;">bacterial strains, which belong both to the</text>
   <text y="489.621" x="76.535,84.038,87.922,92.838,101.521,104.795,110.518,115.228,120.695,125.612,128.818,131.679,137.235,142.0158,144.432,149.349,153.5322,156.006,164.207,168.917,171.778,174.66639999999998,177.128,182.044,186.2272,188.711,191.917,197.639,202.4198,204.837,212.34,216.224,221.14,229.823,233.097,239.007,244.376,248.545,251.407,254.612,257.474,263.029,267.8098,270.227,275.665,280.581,284.947,288.153,292.863,296.747,299.608,304.525,307.41339999999997,309.874,314.043,317.249,321.133,326.05,328.911,334.634,338.8172,341.291" svgx:width="0.76,0.4,0.5,0.88,0.33,0.58,0.48,0.56,0.5,0.33,0.29,0.56,0.48,0.55,0.5,0.42,0.55,0.83,0.48,0.29,0.29,0.55,0.5,0.42,0.55,0.33,0.58,0.48,0.55,0.76,0.4,0.5,0.88,0.33,0.6,0.55,0.42,0.29,0.33,0.29,0.56,0.48,0.55,0.55,0.5,0.44,0.33,0.48,0.4,0.29,0.5,0.29,0.55,0.42,0.33,0.4,0.5,0.29,0.58,0.42,0.55,0.33" style="fill:rgb(0,0,0);font-family:URWPalladioL-Roma;font-size:9.96px;stroke:none;">Gram-negative as well as the Gram-positive bacterial strains [</text>
   <text y="489.621" x="344.565,349.546" svgx:width="0.5,0.5" style="fill:rgb(8,117,183);font-family:URWPalladioL-Roma;font-size:9.96px;stroke:none;">36</text>
   <text y="489.621" x="354.528" svgx:width="0.25" style="fill:rgb(0,0,0);font-family:URWPalladioL-Roma;font-size:9.96px;stroke:none;">,</text>
   <text y="489.621" x="356.986,361.967" svgx:width="0.5,0.5" style="fill:rgb(8,117,183);font-family:URWPalladioL-Roma;font-size:9.96px;stroke:none;">37</text>
   <text y="489.621" x="366.949,370.223,372.713,375.769,381.777,387.333,392.043,397.8198,400.254,403.459,409.182,414.551,420.48,425.948,431.72479999999996,434.158,437.364,443.087,447.797,451.504,456.2848,458.702,463.618,467.325,472.1058,474.523,480.246,486.175,494.858,499.568,503.275,508.644,514.573" svgx:width="0.33,0.25,0.55,0.61,0.56,0.48,0.58,0.55,0.33,0.58,0.55,0.6,0.56,0.58,0.55,0.33,0.58,0.48,0.4,0.48,0.55,0.5,0.4,0.48,0.55,0.58,0.6,0.88,0.48,0.4,0.55,0.6,0.42" style="fill:rgb(0,0,0);font-family:URWPalladioL-Roma;font-size:9.96px;stroke:none;">]. Even though there are numerous</text>
   <text y="503.13" x="76.535,80.844,84.156,90.284,96.493,99.45,104.318,108.5012,111.868,115.699,120.566,126.216,131.297,135.128,141.337,144.294,150.208,155.7856,159.1,162.413,168.327,173.1078,176.436,181.517,187.431,190.744,193.701,199.321,204.402,208.913,212.226,217.094,221.108,224.065,229.146,232.03439999999998,235.344,240.425,244.937,248.25,251.207,256.949,259.906,263.218,268.79560000000004,272.11,277.658,280.94480000000004,284.274,290.483,298.47,302.779,305.269,308.754,312.066,317.981,322.838,326.679,331.4598,334.788,337.745,341.9282,345.286,351.2,356.678,359.99,364.298,370.426,376.045,380.354,383.667,388.748,394.662,397.975,400.932,406.013,408.90139999999997,412.211,417.079,422.82,425.778,431.986,436.854,442.768,447.28,452.0608,455.389,458.702,464.616,469.697,472.98380000000003,476.241,482.45,487.318,493.466,499.38,502.337,505.65,510.517,513.474" svgx:width="0.42,0.33,0.6,0.61,0.29,0.48,0.42,0.55,0.4,0.48,0.56,0.5,0.4,0.61,0.29,0.58,0.56,0.55,0.33,0.58,0.48,0.55,0.5,0.58,0.33,0.29,0.55,0.5,0.44,0.33,0.48,0.4,0.29,0.5,0.29,0.55,0.5,0.44,0.33,0.29,0.56,0.29,0.33,0.56,0.55,0.55,0.33,0.55,0.61,0.79,0.42,0.25,0.55,0.33,0.58,0.48,0.4,0.48,0.55,0.29,0.42,0.55,0.58,0.55,0.55,0.42,0.6,0.55,0.42,0.33,0.5,0.58,0.33,0.29,0.5,0.29,0.55,0.48,0.56,0.29,0.61,0.48,0.58,0.44,0.48,0.55,0.33,0.58,0.5,0.33,0.55,0.61,0.48,0.61,0.58,0.29,0.33,0.48,0.29,0.56" style="fill:rgb(0,0,0);font-family:URWPalladioL-Roma;font-size:9.96px;stroke:none;">studies regarding the antibacterial activity of EOs, there is no substantial evidence that deﬁnitely</text>
   <text y="516.64" x="76.535,80.78,86.818,92.835,98.853,104.319,108.274,111.538,115.7212,118.277,124.394,132.264,136.4472,139.002,145.02,148.795,153.591,157.836,162.632,168.459,171.723,174.637,180.464,186.0416,188.534,192.779,196.043,199.818,205.285,211.112,216.679,221.475,225.459,227.923,232.929,238.756,242.02,244.934,253.775,256.688,261.134,264.909,270.375,275.912,278.826,283.832,286.7204,289.239,294.245,298.69,301.954,304.868,310.525,313.439,316.703,322.2806,324.763,329.769,335.336,340.342,343.256,349.083,353.328,356.6148,359.085,366.725,370.68,375.686,384.527,387.861,393.878,399.345,403.59,406.504,409.768,412.682,418.339,423.1198,425.628,431.165,436.171,440.616,443.88,448.676,452.631,455.545,460.52500000000003,463.044,467.49,472.956,481.797,487.815,492.821,496.606,501.402,507.4776,510.012,513.276" svgx:width="0.42,0.6,0.6,0.6,0.55,0.4,0.33,0.42,0.55,0.61,0.79,0.42,0.55,0.6,0.4,0.48,0.42,0.48,0.58,0.33,0.29,0.58,0.56,0.55,0.42,0.33,0.4,0.55,0.58,0.56,0.48,0.4,0.55,0.5,0.58,0.33,0.29,0.88,0.29,0.44,0.4,0.55,0.55,0.29,0.5,0.29,0.55,0.5,0.44,0.33,0.29,0.56,0.29,0.33,0.56,0.55,0.5,0.56,0.5,0.29,0.58,0.42,0.33,0.55,0.76,0.4,0.5,0.88,0.33,0.6,0.55,0.42,0.29,0.33,0.29,0.56,0.48,0.55,0.55,0.5,0.44,0.33,0.48,0.4,0.29,0.5,0.55,0.44,0.55,0.88,0.6,0.5,0.4,0.48,0.61,0.55,0.33,0.55" style="fill:rgb(0,0,0);font-family:URWPalladioL-Roma;font-size:9.96px;stroke:none;">supports EOs presenting stronger antimicrobial activity against Gram-positive bacteria compared to</text>
   <text y="530.149" x="76.535,84.273,88.279,93.35,102.306,105.683,111.585,116.443,122.082,127.153,130.46,133.411,139.141,143.9218,146.494,152.103,157.173,161.676,164.973,169.831,173.837,176.788,181.859,184.34900000000002,187.488,193.705,199.607,204.3878,206.96,213.157,216.108,219.303,222.68,227.538,231.362,236.22,242.122,245.4088,247.913,253.522,258.38,264.282,269.353,275.083,278.035,283.572,287.556,290.073,295.611,298.8978,301.473,309.911,317.801,323.897,327.274,333.3496,335.965,341.036,346.939,353.01460000000003,355.621,364.059,371.949,378.044,381.422,387.49760000000003,390.113,394.413,399.484,408.44,414.535,417.486,422.344,426.5272,429.139,433.642,439.18,445.295,448.247,454.3226,456.928,461.999,464.95,469.251,474.729,477.283,482.891,487.6718,490.234,496.431,502.547,507.3278,509.899,513.206" svgx:width="0.76,0.4,0.5,0.88,0.33,0.58,0.48,0.56,0.5,0.33,0.29,0.56,0.48,0.55,0.55,0.5,0.44,0.33,0.48,0.4,0.29,0.5,0.25,0.55,0.61,0.58,0.48,0.55,0.61,0.29,0.33,0.33,0.48,0.4,0.48,0.58,0.33,0.55,0.55,0.48,0.58,0.5,0.56,0.29,0.55,0.4,0.55,0.55,0.33,0.55,0.83,0.78,0.6,0.33,0.61,0.55,0.5,0.58,0.61,0.55,0.83,0.78,0.6,0.33,0.61,0.55,0.42,0.5,0.88,0.6,0.29,0.48,0.42,0.55,0.44,0.55,0.6,0.29,0.61,0.55,0.5,0.29,0.42,0.55,0.55,0.55,0.48,0.55,0.61,0.6,0.48,0.55,0.33,0.55" style="fill:rgb(0,0,0);font-family:URWPalladioL-Roma;font-size:9.96px;stroke:none;">Gram-negative bacteria. The different behavior of HAp-B and HAp-L samples could also be due to</text>
   <text y="543.658" x="76.535,82.586,85.467,88.587,91.884,96.628,100.361,105.105,110.868,114.1548,116.582,121.533,127.584,131.783,137.19,141.101,147.053,150.281,153.163,158.57,164.3468,166.819,172.226,178.0028,180.485,183.713,189.477,194.2578,196.706,202.469,207.975,214.026,217.759,223.166,228.276,233.782,238.733,244.685,249.636,252.865,255.746,258.975,263.7558,266.204,270.403,276.374,280.286,283.583,288.535,292.931,297.7118,300.161,305.567,308.85380000000004,311.361,314.589,320.352,325.1328,327.581,330.81,339.069,344.547,346.961,353.012,360.796,364.9792,367.49,370.787,376.264,381.215,385.414,388.296,391.1844,393.663,398.614,404.378,410.4536,412.914,415.796,420.747,426.342,431.086,436.849,442.9,447.643,451.555,454.84180000000003,457.348,462.299,466.4822,468.984,473.381,478.332,484.1088,486.581,492.057,496.8378,499.286,503.485,508.229,512.972" svgx:width="0.61,0.29,0.33,0.33,0.48,0.4,0.48,0.58,0.33,0.55,0.5,0.61,0.42,0.55,0.4,0.6,0.33,0.29,0.55,0.58,0.55,0.55,0.58,0.55,0.33,0.58,0.48,0.55,0.58,0.56,0.61,0.4,0.55,0.52,0.56,0.5,0.6,0.5,0.33,0.29,0.33,0.48,0.55,0.42,0.6,0.4,0.33,0.5,0.44,0.48,0.55,0.55,0.33,0.55,0.33,0.58,0.48,0.55,0.33,0.83,0.55,0.55,0.61,0.79,0.42,0.55,0.33,0.55,0.5,0.42,0.29,0.29,0.55,0.5,0.58,0.61,0.55,0.29,0.5,0.56,0.48,0.58,0.61,0.48,0.4,0.33,0.55,0.5,0.42,0.55,0.44,0.5,0.58,0.55,0.55,0.48,0.55,0.42,0.48,0.48,0.58" style="fill:rgb(0,0,0);font-family:URWPalladioL-Roma;font-size:9.96px;stroke:none;">different adsorption on the hydroxyapatite surface of the two EOs (basil and lavender) as can be seen</text>
   <text y="557.168" x="76.535,79.434,85.21079999999999,87.723,90.971,96.769,101.5498,104.032,108.256,111.504,117.511,123.598,126.497,131.27,135.4532,137.984,143.972,147.728,152.5,156.724,161.496,167.294,170.542,175.314,181.3896,183.892,188.873,194.383,199.822,205.451,210.223" svgx:width="0.29,0.58,0.55,0.33,0.58,0.48,0.55,0.42,0.33,0.6,0.61,0.29,0.48,0.42,0.55,0.6,0.4,0.48,0.42,0.48,0.58,0.33,0.48,0.61,0.55,0.5,0.55,0.55,0.56,0.48,0.25" style="fill:rgb(0,0,0);font-family:URWPalladioL-Roma;font-size:9.96px;stroke:none;">in the studies presented above.</text>
   <text y="570.677" x="97.795,104.024,109.938,114.806,119.115,123.8958,128.626,134.774,140.688,146.897,149.854,155.768,161.418,165.6012,170.371,175.452,179.283,184.0638,188.794,191.751,197.5278,202.31,207.96,213.508,219.056,225.13160000000002,229.909,234.99,240.64,244.471,249.339,254.206,263.179,268.047,273.961,277.24780000000004,281.918,290.393,293.35,296.662,302.43879999999996,307.221,311.529,314.842,320.97,327.178,330.136,335.003,339.1862,343.956,347.787,352.654,358.304,363.385,367.226,373.435,376.392,382.306,387.8836,392.59,395.903,401.817,406.5978,411.329,416.41,422.324,425.637,428.594,434.213,439.294,443.806,447.119,451.986,456.0,458.957,464.038,466.9264,471.639,476.72,481.232,484.545,487.502,493.243,496.2,499.513,505.0906,509.807,515.356" svgx:width="0.61,0.58,0.48,0.42,0.48,0.55,0.61,0.58,0.61,0.29,0.58,0.56,0.42,0.55,0.5,0.4,0.48,0.55,0.29,0.58,0.55,0.56,0.55,0.55,0.61,0.55,0.5,0.56,0.4,0.48,0.48,0.88,0.48,0.58,0.33,0.55,0.83,0.29,0.33,0.58,0.55,0.42,0.33,0.6,0.61,0.29,0.48,0.42,0.55,0.4,0.48,0.56,0.5,0.4,0.61,0.29,0.58,0.56,0.55,0.33,0.58,0.48,0.55,0.5,0.58,0.33,0.29,0.55,0.5,0.44,0.33,0.48,0.4,0.29,0.5,0.29,0.55,0.5,0.44,0.33,0.29,0.56,0.29,0.33,0.56,0.55,0.55,0.33" style="fill:rgb(0,0,0);font-family:URWPalladioL-Roma;font-size:9.96px;stroke:none;">These ﬁndings are in good agreement with studies regarding the antibacterial activity of</text>
   <text y="584.187" x="76.535,79.417,84.368,89.963,94.707,100.47,106.521,111.264,115.24799999999999,117.652,123.702,131.486,133.976,136.447,144.706,150.469,153.351,157.748,163.5248,165.987,174.246,179.198,183.3812,185.882,191.933,196.676,205.42,210.827,216.591,220.789,224.018,227.929,232.881,236.109,240.853,246.92860000000002,249.379,252.607,258.085,260.49,265.233,270.343,276.107,278.988,284.465,287.346,290.63280000000003,293.057,295.956,301.7328,304.245,309.874,312.773,316.021,319.777,325.255,327.696,332.647,337.044,340.273,343.154,348.749,351.631,354.859,360.4366,362.841,367.793,373.299,378.25,381.132,386.895,391.094,394.3808,396.808,406.176,412.791,417.99,425.7588,428.17,431.468,440.212,444.955,448.184,453.947,456.829,461.226,464.107,466.989,469.871,472.753,478.516,481.814,485.547,490.29,494.489,497.371,501.57,504.798,509.75,515.513" svgx:width="0.29,0.5,0.56,0.48,0.58,0.61,0.48,0.4,0.55,0.61,0.79,0.25,0.55,0.83,0.58,0.29,0.44,0.58,0.55,0.83,0.5,0.42,0.55,0.61,0.48,0.88,0.55,0.58,0.42,0.33,0.4,0.5,0.33,0.48,0.61,0.55,0.33,0.55,0.55,0.48,0.52,0.58,0.29,0.55,0.29,0.33,0.55,0.29,0.58,0.55,0.56,0.29,0.33,0.4,0.55,0.55,0.5,0.44,0.33,0.29,0.56,0.29,0.33,0.56,0.55,0.5,0.56,0.5,0.29,0.58,0.42,0.33,0.55,0.95,0.67,0.52,0.78,0.55,0.33,0.88,0.48,0.33,0.58,0.29,0.44,0.29,0.29,0.29,0.29,0.58,0.33,0.4,0.48,0.42,0.29,0.42,0.33,0.5,0.58,0.33" style="fill:rgb(0,0,0);font-family:URWPalladioL-Roma;font-size:9.96px;stroke:none;">lavender EO, which was demonstrated to exhibit in vitro activity against MRSA (methicillin-resistant</text>
   <text y="597.696" x="76.256,81.684,84.936,89.271,94.152,99.034,103.916,106.63,110.965,114.938,119.273,123.247,127.221,132.649,136.5334,138.78,143.115,148.544,152.166,155.964,161.392" svgx:width="0.56,0.33,0.44,0.5,0.5,0.5,0.28,0.44,0.41,0.44,0.41,0.41,0.56,0.39,0.55,0.44,0.56,0.39,0.39,0.56,0.39" style="fill:rgb(0,0,0);font-family:URWPalladioL-Ital;font-size:9.96px;stroke:none;">Staphylococcus aureus</text>
   <text y="597.696" x="165.187,168.4738,170.772,175.448,180.965,185.641,191.4178,193.657,198.539,201.8258,204.055,206.896,212.227,222.703,227.038,232.369,238.051,242.386,247.062,252.745,255.928,259.784,264.666,267.849,270.69,276.021,281.703,285.8862,288.176" svgx:width="0.33,0.55,0.48,0.56,0.48,0.58,0.55,0.5,0.33,0.55,0.29,0.55,0.83,0.44,0.55,0.58,0.44,0.48,0.58,0.33,0.4,0.5,0.33,0.29,0.55,0.58,0.42,0.55,0.33" style="fill:rgb(0,0,0);font-family:URWPalladioL-Roma;font-size:9.96px;stroke:none;">) even at lowconcentrations [</text>
   <text y="597.696" x="291.432,296.413" svgx:width="0.5,0.5" style="fill:rgb(8,117,183);font-family:URWPalladioL-Roma;font-size:9.96px;stroke:none;">38</text>
   <text y="597.696" x="301.395" svgx:width="0.5" style="fill:rgb(0,0,0);font-family:URWPalladioL-Roma;font-size:9.96px;stroke:none;">–</text>
   <text y="597.696" x="306.276,311.257" svgx:width="0.5,0.5" style="fill:rgb(8,117,183);font-family:URWPalladioL-Roma;font-size:9.96px;stroke:none;">44</text>
   <text y="597.696" x="316.239,319.49,321.98,324.967,328.258,334.03479999999996,336.273,339.954,344.631,348.966,353.642,359.325,362.6118,364.841,368.981,372.163,378.051,384.016,386.857,391.534,395.7172,398.007,403.338,409.1148,411.354,414.536,420.219,424.9998,427.229,432.11,437.793,440.976,443.817,452.438,455.279,459.614,463.295,468.625,474.024,476.866,481.747,484.6354,486.922,491.804,496.138,499.321,502.162,507.679,510.52,513.703" svgx:width="0.33,0.25,0.55,0.34,0.58,0.55,0.4,0.48,0.44,0.48,0.58,0.33,0.55,0.42,0.33,0.6,0.61,0.29,0.48,0.42,0.55,0.55,0.58,0.55,0.33,0.58,0.48,0.55,0.5,0.58,0.33,0.29,0.88,0.29,0.44,0.4,0.55,0.55,0.29,0.5,0.29,0.55,0.5,0.44,0.33,0.29,0.56,0.29,0.33,0.56" style="fill:rgb(0,0,0);font-family:URWPalladioL-Roma;font-size:9.96px;stroke:none;">]. In recent studies on the antimicrobial activity</text>
   <text y="611.205" x="76.535,81.866,85.1528,87.46,93.426,101.1,105.2832,107.582,110.834,114.514,119.845,130.809,136.677,139.518,144.4,150.082,153.265,157.44819999999999,159.748,164.63,170.058,174.94,177.781,183.463,187.603,190.8898,193.129,197.269,201.945,204.786,209.463,213.798,216.981,221.657,227.73260000000002,229.966,235.834,240.715,243.898,249.581,254.911,260.34,265.016,270.699,273.54,277.92240000000004,280.218,285.1,290.782,296.8576,299.1,303.24,308.122,313.989,317.66,322.991,328.859,334.541,339.97,343.153,345.994,350.37640000000005,352.672,361.293,364.134,368.469,372.15,377.48,382.811,386.482,391.911,396.792,402.475,405.316,409.455,418.076,422.2592,424.569" svgx:width="0.55,0.33,0.55,0.61,0.79,0.42,0.55,0.33,0.4,0.55,0.88,0.6,0.29,0.5,0.58,0.33,0.42,0.55,0.5,0.56,0.5,0.29,0.58,0.42,0.33,0.55,0.42,0.48,0.29,0.48,0.44,0.33,0.48,0.61,0.55,0.6,0.5,0.33,0.58,0.55,0.56,0.48,0.58,0.29,0.44,0.55,0.5,0.58,0.61,0.55,0.42,0.5,0.6,0.4,0.55,0.6,0.58,0.56,0.33,0.29,0.44,0.55,0.88,0.29,0.44,0.4,0.55,0.55,0.4,0.56,0.5,0.58,0.29,0.42,0.88,0.42,0.55,0.33" style="fill:rgb(0,0,0);font-family:URWPalladioL-Roma;font-size:9.96px;stroke:none;">of EOs fromplants against selected pathogenic and saprophytic microorganisms [</text>
   <text y="611.205" x="427.817,432.798" svgx:width="0.5,0.5" style="fill:rgb(8,117,183);font-family:URWPalladioL-Roma;font-size:9.96px;stroke:none;">44</text>
   <text y="611.205" x="437.779,441.03,443.52,445.844,448.685,451.97180000000003,454.211,462.353,467.235,471.4182,473.718,478.053,483.384,489.066,493.401,496.242,502.129,508.095,512.771" svgx:width="0.33,0.25,0.55,0.29,0.33,0.55,0.83,0.5,0.42,0.55,0.44,0.55,0.58,0.44,0.29,0.6,0.61,0.48,0.61" style="fill:rgb(0,0,0);font-family:URWPalladioL-Roma;font-size:9.96px;stroke:none;">], it was concluded</text>
   <text y="624.715" x="76.535,79.835,85.726,90.787,94.0738,96.566,101.415,105.707,109.998,114.847,120.738,124.038,126.983,132.044,134.9324,137.459,142.986,145.931,148.877,153.0602,155.649,160.497,165.72,169.02,173.018,178.079,182.573,185.873,190.721,196.7966,199.386,202.756,206.572,212.099,220.8638,223.517,229.043,232.859,237.708,243.335,248.396,254.287,259.814,262.30400000000003,264.824,270.422,275.483,279.775,282.72,285.666,288.156,290.676,295.737,301.628,307.7036,310.292,314.787,320.313,324.311,327.257,332.318,338.209,344.393,349.242,353.226,355.71,361.793,364.739,369.8,375.691,378.99,383.1732,385.762,390.61,395.833,401.724,404.67,410.267,413.213,416.49980000000005,418.993,423.973,426.523,432.414,437.941,441.241,444.186,448.68,453.529,458.59,464.187,467.133,471.9138,474.461,477.407,483.298,489.189,492.134,497.732,500.677,503.977,509.503,513.502" svgx:width="0.33,0.58,0.5,0.33,0.55,0.48,0.42,0.42,0.48,0.58,0.33,0.29,0.5,0.29,0.55,0.55,0.29,0.29,0.42,0.55,0.48,0.52,0.33,0.4,0.5,0.44,0.33,0.48,0.61,0.55,0.33,0.4,0.55,0.88,0.55,0.55,0.4,0.48,0.56,0.5,0.58,0.55,0.25,0.55,0.55,0.5,0.42,0.29,0.29,0.25,0.55,0.5,0.58,0.61,0.55,0.44,0.55,0.4,0.29,0.5,0.58,0.61,0.48,0.4,0.55,0.6,0.29,0.5,0.58,0.33,0.42,0.55,0.48,0.52,0.58,0.29,0.55,0.29,0.33,0.55,0.5,0.55,0.58,0.55,0.33,0.29,0.44,0.48,0.5,0.55,0.29,0.48,0.55,0.29,0.58,0.58,0.29,0.55,0.29,0.33,0.55,0.4,0.56" style="fill:rgb(0,0,0);font-family:URWPalladioL-Roma;font-size:9.96px;stroke:none;">that essential oils extracted from oregano, basil, and coriander plants exhibit a noticeable inhibitory</text>
   <text y="638.224" x="76.535,81.403,84.604,87.987,92.855,97.367,100.6538,103.748,108.829,114.479,119.56,122.517,128.432,132.74" svgx:width="0.48,0.33,0.33,0.48,0.44,0.33,0.55,0.5,0.56,0.5,0.29,0.58,0.42,0.33" style="fill:rgb(0,0,0);font-family:URWPalladioL-Roma;font-size:9.96px;stroke:none;">effect against</text>
   <text y="638.224" x="139.119,144.048,146.538,149.647,154.159,158.111,162.064,167.714,172.795,175.62,181.27,185.782,189.735" svgx:width="0.61,0.25,0.55,0.44,0.39,0.39,0.56,0.5,0.28,0.56,0.44,0.39,0.44" style="fill:rgb(0,0,0);font-family:URWPalladioL-Ital;font-size:9.96px;stroke:none;">P. aeruginosa</text>
   <text y="638.224" x="194.251" svgx:width="0.25" style="fill:rgb(0,0,0);font-family:URWPalladioL-Roma;font-size:9.96px;stroke:none;">,</text>
   <text y="638.224" x="200.004,205.654,208.144,211.263,215.775,221.425,225.195,229.148,234.798" svgx:width="0.56,0.25,0.55,0.44,0.56,0.39,0.39,0.56,0.39" style="fill:rgb(0,0,0);font-family:URWPalladioL-Ital;font-size:9.96px;stroke:none;">S. aureus</text>
   <text y="638.224" x="238.753,241.243,244.505,249.586,255.5" svgx:width="0.25,0.55,0.5,0.58,0.61" style="fill:rgb(0,0,0);font-family:URWPalladioL-Roma;font-size:9.96px;stroke:none;">, and</text>
   <text y="638.224" x="264.777,270.447,274.4,278.353,282.306,285.131,290.781,293.606,297.9884,301.187,305.14,310.79,314.174,318.127,321.897,326.409,330.545,335.056,337.881,340.706,344.09,346.915,351.051" svgx:width="0.67,0.39,0.39,0.39,0.28,0.56,0.28,0.44,0.55,0.39,0.56,0.33,0.39,0.39,0.44,0.41,0.44,0.28,0.28,0.33,0.28,0.41,0.44" style="fill:rgb(0,0,0);font-family:URWPalladioL-Ital;font-size:9.96px;stroke:none;">Yersinia enterocolitica</text>
   <text y="638.224" x="358.633,363.501,369.242,374.109,379.88579999999996,383.093,388.173,391.45980000000003,394.555,397.512,403.061,411.32779999999997,414.604,419.116,424.665,430.579,435.091,439.958,445.872,449.185,453.199,458.28,461.593,464.55,470.098,476.013,480.321,482.81100000000004,487.678,495.666,501.4428,504.649,507.961,513.876" svgx:width="0.48,0.56,0.48,0.58,0.55,0.5,0.33,0.55,0.29,0.55,0.83,0.55,0.44,0.55,0.58,0.44,0.48,0.58,0.33,0.4,0.5,0.33,0.29,0.55,0.58,0.42,0.25,0.55,0.79,0.58,0.55,0.33,0.58,0.48" style="fill:rgb(0,0,0);font-family:URWPalladioL-Roma;font-size:9.96px;stroke:none;">even at low concentrations. On the</text>
   <text y="651.734" x="76.535,82.083,85.396,91.31,96.178,100.16199999999999,103.057,108.972,114.053,119.967,126.176,128.666,131.673,141.286,143.776,146.692,152.027,154.985,159.852,165.766,171.416,174.373,179.241,187.716,190.673,195.185,200.165,203.131,207.999,211.2858,214.187,219.268,222.225,224.715,227.632" svgx:width="0.55,0.33,0.58,0.48,0.4,0.55,0.58,0.5,0.58,0.61,0.25,0.55,0.95,0.25,0.55,0.52,0.29,0.48,0.58,0.56,0.29,0.48,0.83,0.29,0.44,0.5,0.55,0.48,0.33,0.55,0.5,0.29,0.25,0.55,0.33" style="fill:rgb(0,0,0);font-family:URWPalladioL-Roma;font-size:9.96px;stroke:none;">other hand, M. Sienkiewicz et al. [</text>
   <text y="651.734" x="231.012,235.993" svgx:width="0.5,0.5" style="fill:rgb(8,117,183);font-family:URWPalladioL-Roma;font-size:9.96px;stroke:none;">41</text>
   <text y="651.734" x="240.974,244.358,246.848,249.855,253.239,258.788,261.745,264.702,270.25,278.725,281.682,287.597,293.1746,296.112,300.421,303.734,309.861,316.07,319.027,323.895,328.0782,331.069,336.617,342.3938,345.397,348.71,354.624,359.4048,362.367,368.495,372.804,377.5848,380.537,386.085,389.3718,392.335,397.202,401.511,405.819,410.687,416.601,419.914,422.871,427.952,430.8404,433.775,439.323,442.28,445.237,449.4202,452.411,457.96,461.2468,464.209,468.04,473.589,477.897,482.765,491.738,496.819,500.833,506.41060000000004,509.348,514.429" svgx:width="0.33,0.25,0.55,0.33,0.55,0.29,0.29,0.55,0.83,0.29,0.58,0.56,0.55,0.42,0.33,0.6,0.61,0.29,0.48,0.42,0.55,0.55,0.58,0.55,0.33,0.58,0.48,0.55,0.6,0.42,0.48,0.55,0.55,0.33,0.55,0.48,0.42,0.42,0.48,0.58,0.33,0.29,0.5,0.29,0.55,0.55,0.29,0.29,0.42,0.55,0.55,0.33,0.55,0.4,0.55,0.42,0.48,0.88,0.5,0.4,0.56,0.55,0.5,0.42" style="fill:rgb(0,0,0);font-family:URWPalladioL-Roma;font-size:9.96px;stroke:none;">], following studies on the use of essential oils of rosemary as</text>
   <text y="665.243" x="76.535,81.403,84.604,87.987,92.855,97.367,100.68,103.637,109.378,114.1588,117.294,122.375,128.289,131.602,134.559,140.179,145.26,149.771,153.084,157.952,161.966,164.923,170.004,172.89239999999998,175.999,181.08,186.73,191.598,197.512,200.825,205.133,207.62300000000002,210.865,214.696,219.563,225.67,231.219,235.233,238.545,243.413,249.48860000000002,252.67,255.983,261.897,266.978,270.26480000000004,273.34,278.959,284.04,288.349,291.306,294.1944,297.301,303.51,311.3784,314.546,319.413,324.657,330.571,333.528,339.148,342.105,345.418,350.285,356.36060000000003,359.543,363.851,367.164,370.995,376.543,382.457,388.0346,391.156,396.237,402.151,405.464,408.421,414.041,419.121,423.633,426.946,431.814,435.828,438.785,443.866,446.7544,449.871,454.952,459.464,462.767,465.724,471.465,474.422,477.735,483.31260000000003,486.434,491.515,497.165,502.245,505.203,511.117,515.425" svgx:width="0.48,0.33,0.33,0.48,0.44,0.33,0.29,0.56,0.48,0.55,0.5,0.58,0.33,0.29,0.55,0.5,0.44,0.33,0.48,0.4,0.29,0.5,0.29,0.55,0.5,0.56,0.48,0.58,0.33,0.42,0.25,0.55,0.4,0.48,0.6,0.55,0.4,0.33,0.48,0.61,0.55,0.33,0.58,0.5,0.33,0.55,0.55,0.5,0.42,0.29,0.29,0.55,0.61,0.79,0.55,0.48,0.52,0.58,0.29,0.55,0.29,0.33,0.48,0.61,0.55,0.42,0.33,0.4,0.55,0.58,0.56,0.55,0.5,0.58,0.33,0.29,0.55,0.5,0.44,0.33,0.48,0.4,0.29,0.5,0.29,0.55,0.5,0.44,0.33,0.29,0.56,0.29,0.33,0.56,0.55,0.5,0.56,0.5,0.29,0.58,0.42,0.33" style="fill:rgb(0,0,0);font-family:URWPalladioL-Roma;font-size:9.96px;stroke:none;">effective antibacterial agents, reported that basil EO exhibited strong antibacterial activity against</text>
   <text y="678.752" x="76.226,82.313,84.803,87.294,91.349,95.773,98.542" svgx:width="0.61,0.25,0.55,0.41,0.44,0.28,0.28" style="fill:rgb(0,0,0);font-family:URWPalladioL-Ital;font-size:9.96px;stroke:none;">E. coli</text>
   <text y="678.752" x="103.803,108.226,111.126,114.025,119.823,122.722,127.145,132.127,135.0154,137.516,141.741,144.988,148.924,153.905,156.804,162.602,166.826" svgx:width="0.44,0.29,0.29,0.58,0.29,0.44,0.5,0.29,0.55,0.42,0.33,0.4,0.5,0.29,0.58,0.42,0.25" style="fill:rgb(0,0,0);font-family:URWPalladioL-Roma;font-size:9.96px;stroke:none;">clinical strains.</text>
   <text y="692.262" x="97.795,104.0,109.891,114.6718,117.229,122.29,128.181,131.481,134.427,140.024,142.969,148.496,151.796,154.741,159.1234,161.715,165.542,170.39,174.682,177.627,181.919,185.219,190.28,196.171,200.665,205.513,209.6962,212.285,217.812,221.0988,223.672,226.972,232.863,237.6438,240.201,243.501,248.35,252.641,255.941,260.79,266.86560000000003,269.454,278.392,281.337,285.831,289.658,295.184,300.711,304.527,310.155,315.216,321.107,324.052,328.344,337.281,341.4642,344.063,349.954,355.015,360.734,365.5148,368.063,373.66,378.508,383.357,389.1338,391.738,394.683,400.574,406.293,411.142,415.433,418.733,421.679,427.307,432.368,435.667,440.516,446.5916,449.19,454.251,460.132,466.2076,468.807,472.623,477.471,483.555,489.081,493.079,496.379,501.228,507.3036,509.902,512.848" svgx:width="0.61,0.58,0.48,0.55,0.5,0.58,0.33,0.29,0.55,0.29,0.55,0.33,0.29,0.44,0.55,0.4,0.48,0.42,0.29,0.42,0.33,0.5,0.58,0.44,0.48,0.42,0.55,0.55,0.33,0.55,0.33,0.58,0.48,0.55,0.33,0.48,0.42,0.33,0.48,0.61,0.55,0.88,0.29,0.44,0.4,0.55,0.55,0.4,0.56,0.5,0.58,0.29,0.42,0.88,0.42,0.55,0.58,0.5,0.56,0.48,0.55,0.55,0.48,0.48,0.58,0.55,0.29,0.58,0.56,0.48,0.42,0.33,0.29,0.56,0.5,0.33,0.48,0.61,0.55,0.5,0.58,0.61,0.55,0.4,0.48,0.6,0.55,0.4,0.33,0.48,0.61,0.55,0.29,0.58" style="fill:rgb(0,0,0);font-family:URWPalladioL-Roma;font-size:9.96px;stroke:none;">The antibiotic resistances of the tested microorganisms have been investigated and reported in</text>
   <text y="705.771" x="76.535,82.449,88.577,97.55,102.417,106.248,111.797,117.924,122.1072,124.763,129.072,132.385,138.512,144.721,147.678,152.546,156.7292,159.374" svgx:width="0.58,0.6,0.88,0.48,0.4,0.55,0.6,0.42,0.55,0.42,0.33,0.6,0.61,0.29,0.48,0.42,0.55,0.33" style="fill:rgb(0,0,0);font-family:URWPalladioL-Roma;font-size:9.96px;stroke:none;">numerous studies [</text>
   <text y="705.771" x="162.757,167.738" svgx:width="0.5,0.5" style="fill:rgb(8,117,183);font-family:URWPalladioL-Roma;font-size:9.96px;stroke:none;">41</text>
   <text y="705.771" x="172.72" svgx:width="0.5" style="fill:rgb(0,0,0);font-family:URWPalladioL-Roma;font-size:9.96px;stroke:none;">–</text>
   <text y="705.771" x="177.801,182.782" svgx:width="0.5,0.5" style="fill:rgb(8,117,183);font-family:URWPalladioL-Roma;font-size:9.96px;stroke:none;">46</text>
   <text y="705.771" x="187.763,191.147,193.637,196.868,200.293,206.06980000000001,208.737,212.05,217.964,222.832,225.789,229.773,232.323,236.154,241.021,245.33,250.197,255.278,259.12,263.631,269.546,272.036,274.616,282.522,285.063,294.31,296.8,299.371,306.748,312.662,317.743,323.5198,326.178,331.045,334.33180000000004,336.878,341.959,344.916,347.406,349.987" svgx:width="0.33,0.25,0.55,0.34,0.58,0.55,0.33,0.58,0.48,0.29,0.4,0.55,0.4,0.48,0.42,0.48,0.5,0.4,0.44,0.58,0.25,0.55,0.78,0.25,1.0,0.25,0.55,0.73,0.58,0.5,0.58,0.55,0.48,0.33,0.55,0.5,0.29,0.25,0.55,0.33" style="fill:rgb(0,0,0);font-family:URWPalladioL-Roma;font-size:9.96px;stroke:none;">]. In their research, A.W. Khan et al. [</text>
   <text y="705.771" x="353.367,358.348" svgx:width="0.5,0.5" style="fill:rgb(8,117,183);font-family:URWPalladioL-Roma;font-size:9.96px;stroke:none;">42</text>
   <text y="705.771" x="363.33,366.6168,369.234,372.191,378.4,383.268,389.182,392.495,395.452,401.6,406.467,412.5426,415.196,420.17600000000004,422.807,427.888,433.437,439.351,444.1318,446.738,455.213,458.171,461.483,467.2598,469.918,474.999,480.7758,483.443,488.524,494.265,499.133,503.137,508.218,513.868" svgx:width="0.33,0.55,0.29,0.61,0.48,0.58,0.33,0.29,0.61,0.48,0.61,0.55,0.5,0.55,0.5,0.55,0.58,0.48,0.55,0.83,0.29,0.33,0.58,0.55,0.5,0.58,0.55,0.5,0.56,0.48,0.4,0.5,0.56,0.48" style="fill:rgb(0,0,0);font-family:URWPalladioL-Roma;font-size:9.96px;stroke:none;">] identiﬁed a zone with an average</text>
   <text y="719.281" x="76.535,79.376,85.058,90.741,93.582,98.981,101.822,105.005,107.846,113.177,118.9538,121.261,127.226,130.067,134.949,143.57,148.247,151.43,156.106,160.09,162.365,167.695,170.9818,173.348,178.23,183.20999999999998,185.513,194.135,205.157,208.409,213.739" svgx:width="0.29,0.58,0.58,0.29,0.55,0.29,0.33,0.29,0.55,0.58,0.55,0.61,0.29,0.5,0.88,0.48,0.33,0.48,0.4,0.55,0.55,0.33,0.55,0.5,0.5,0.55,0.88,0.88,0.33,0.55,0.4" style="fill:rgb(0,0,0);font-family:URWPalladioL-Roma;font-size:9.96px;stroke:none;">inhibition diameter of 23 mmfor</text>
   <text y="719.281" x="219.998,225.963,228.453,230.806,234.78,239.115,241.829" svgx:width="0.61,0.25,0.55,0.41,0.44,0.28,0.28" style="fill:rgb(0,0,0);font-family:URWPalladioL-Ital;font-size:9.96px;stroke:none;">E. coli</text>
   <text y="719.281" x="246.945,253.799,259.784,266.706,273.7776,276.03,280.912,285.793,290.675,295.557,300.53700000000003,302.84,310.983,316.665,321.342,327.11879999999996,329.426,332.609,337.285,341.425,344.608,349.285,355.36060000000003,357.652,362.533,367.962,372.844,375.685,381.367,385.507,388.79380000000003,391.091,395.973,401.655,404.838,407.679,413.078,415.919,421.25,424.433,427.274,431.6564,434.011,439.976,442.817,446.957,451.292,455.4752,457.833,463.164,466.4508,468.817,472.0,476.677,479.86,483.716,488.598,492.933,498.361,502.696,505.537,508.378,514.061" svgx:width="0.78,0.61,0.71,0.71,0.55,0.5,0.5,0.5,0.5,0.5,0.55,0.83,0.58,0.48,0.58,0.55,0.33,0.48,0.42,0.33,0.48,0.61,0.55,0.5,0.56,0.5,0.29,0.58,0.42,0.33,0.55,0.5,0.58,0.33,0.29,0.55,0.29,0.55,0.33,0.29,0.44,0.55,0.61,0.29,0.42,0.44,0.42,0.55,0.55,0.33,0.55,0.33,0.48,0.33,0.4,0.5,0.44,0.56,0.44,0.29,0.29,0.58,0.48" style="fill:rgb(0,0,0);font-family:URWPalladioL-Roma;font-size:9.96px;stroke:none;">ATCC 25922 when tested against antibiotic discs of tetracycline</text>
   <text y="732.79" x="76.207,79.591,84.672" svgx:width="0.33,0.5,0.5" style="fill:rgb(0,0,0);font-family:URWPalladioL-Roma;font-size:9.96px;stroke:none;">(30</text>
   <text y="732.79" x="92.636" svgx:width="0.62" style="fill:rgb(0,0,0);font-family:EURM10;font-size:9.96px;stroke:none;">µ</text>
   <text y="732.79" x="98.79,104.44,107.824,110.314,114.632,124.245,129.794,133.625,138.4058,141.378,144.691,150.605,155.686,161.46280000000002,164.486,167.799,173.713,178.794,182.107,184.597,187.625,190.938,196.852,201.6328,204.605,209.686,215.601,218.913,221.87,227.49,230.447,235.995,239.308,242.265,246.64739999999998,249.663,253.494,258.362,262.67,265.627,269.936,273.249,278.33,284.244,288.756,293.53679999999997,296.509,302.058,305.3448,308.317,314.526,317.483,320.694,324.068,328.936,332.777,337.644,343.559,346.84580000000005,349.747,353.06,358.71,364.817,369.685,373.8682,376.879,382.428,385.7148,388.697,398.311,405.099,410.434,418.2028,421.226,427.14,432.221,436.4042,439.405,445.025,449.892,454.76,460.53679999999997,463.56,466.517,472.431,478.172,483.04,487.349,490.661,493.618,499.268,504.349,507.662,512.53" svgx:width="0.56,0.33,0.25,0.55,0.95,0.55,0.4,0.48,0.55,0.33,0.58,0.5,0.58,0.55,0.33,0.58,0.5,0.33,0.25,0.55,0.33,0.58,0.48,0.55,0.5,0.58,0.33,0.29,0.55,0.29,0.55,0.33,0.29,0.44,0.55,0.4,0.48,0.42,0.29,0.42,0.33,0.5,0.58,0.44,0.48,0.55,0.55,0.33,0.55,0.61,0.29,0.33,0.33,0.48,0.4,0.48,0.58,0.33,0.55,0.33,0.56,0.6,0.48,0.42,0.55,0.55,0.33,0.55,0.95,0.67,0.52,0.78,0.55,0.58,0.5,0.42,0.55,0.55,0.48,0.48,0.58,0.55,0.29,0.58,0.56,0.48,0.42,0.33,0.29,0.56,0.5,0.33,0.48,0.61" style="fill:rgb(0,0,0);font-family:URWPalladioL-Roma;font-size:9.96px;stroke:none;">g). More than that, the antibiotic resistance of different types of MRSA has been investigated</text>
   <text y="746.299" x="76.535,82.155,87.7326,90.823,96.158,100.171,105.252,109.764,112.721,118.636,122.944,128.594,134.17159999999998,137.262,142.13,145.4168,148.461,153.542,156.499,158.989,162.057" svgx:width="0.55,0.56,0.55,0.61,0.4,0.5,0.44,0.29,0.58,0.42,0.56,0.56,0.55,0.48,0.33,0.55,0.5,0.29,0.25,0.55,0.33" style="fill:rgb(0,0,0);font-family:URWPalladioL-Roma;font-size:9.96px;stroke:none;">by Trzcinsky et al. [</text>
   <text y="746.299" x="165.439,170.42" svgx:width="0.5,0.5" style="fill:rgb(8,117,183);font-family:URWPalladioL-Roma;font-size:9.96px;stroke:none;">43</text>
   <text y="746.299" x="175.402,178.786,181.276,186.001,192.23,198.144,203.012,208.5896,211.68,215.988,221.903,227.451,235.926,240.794,246.86960000000002,250.02,253.333,259.247,264.328,267.6148,270.659,273.972,279.886,284.6668,287.772,293.981,296.938,302.019,310.992,315.859,319.172,324.039,328.02299999999997,331.071,336.62,339.90680000000003,343.022,346.335,352.249,357.0298,360.134,363.091,369.006,374.92,377.877,383.496,386.453,389.766,392.723,398.272,404.04879999999997,407.204,412.285,417.833,423.747,428.5278,431.633,434.59,438.7732,441.917,446.429,449.386,454.934,459.243,464.11,467.067,472.6446,475.735,479.566,484.434,487.391,492.472,495.785,500.652,506.7276,509.879,513.192" svgx:width="0.33,0.25,0.55,0.61,0.58,0.48,0.56,0.55,0.42,0.58,0.55,0.83,0.48,0.61,0.55,0.33,0.58,0.5,0.33,0.55,0.33,0.58,0.48,0.55,0.61,0.29,0.5,0.88,0.48,0.33,0.48,0.4,0.55,0.55,0.33,0.55,0.33,0.58,0.48,0.55,0.29,0.58,0.58,0.29,0.55,0.29,0.33,0.29,0.55,0.58,0.55,0.5,0.55,0.58,0.48,0.55,0.29,0.42,0.55,0.44,0.29,0.55,0.42,0.48,0.29,0.56,0.55,0.4,0.48,0.29,0.5,0.33,0.48,0.61,0.55,0.33,0.55" style="fill:rgb(0,0,0);font-family:URWPalladioL-Roma;font-size:9.96px;stroke:none;">]. They showed that the diameter of the inhibition zone is closely related to</text>
   <text y="759.809" x="76.535,81.047,84.004,86.961,92.875,95.832,100.344,105.425,108.3134,111.847,114.805,119.113,124.662,127.619,132.7,136.012,138.969,144.518,150.432,152.922,156.671,160.513,165.38,171.487,177.036,181.05,184.362,187.32,193.234,198.8116,202.339,207.42,213.1968,216.799,221.88,225.711,230.579,235.559,239.125,247.6,250.557,253.87,259.6468,263.249,268.33,274.10679999999996,277.699,282.78,288.521,293.389,297.403,302.484,308.134,312.9148,316.466,319.424,325.338,331.252,334.209,339.829,342.786,346.098,349.055,354.604,360.38079999999997,363.973,370.182,373.139,378.22,387.193,392.06,395.373,400.241,404.22499999999997,407.72,413.268,416.5548,420.117,425.09700000000004,428.663,431.966,437.444,440.98,446.06,451.04,454.607,463.58,472.34479999999996,476.018,484.493,490.407,495.274,501.0508,504.643,507.956,513.87" svgx:width="0.44,0.29,0.29,0.58,0.29,0.44,0.5,0.29,0.55,0.29,0.42,0.55,0.29,0.5,0.33,0.29,0.55,0.58,0.25,0.55,0.4,0.48,0.6,0.55,0.4,0.33,0.29,0.58,0.56,0.55,0.5,0.58,0.55,0.5,0.4,0.48,0.5,0.55,0.83,0.29,0.33,0.58,0.55,0.5,0.58,0.55,0.5,0.56,0.48,0.4,0.5,0.56,0.48,0.55,0.29,0.58,0.58,0.29,0.55,0.29,0.33,0.29,0.55,0.58,0.55,0.61,0.29,0.5,0.88,0.48,0.33,0.48,0.4,0.55,0.55,0.33,0.55,0.5,0.55,0.33,0.55,0.55,0.5,0.5,0.55,0.88,0.88,0.55,0.83,0.58,0.48,0.58,0.55,0.33,0.58,0.48" style="fill:rgb(0,0,0);font-family:URWPalladioL-Roma;font-size:9.96px;stroke:none;">clinical isolation, reporting an area with an average inhibition diameter of 6 to 17 mm when the</text>
  </g>
 </g>
</svg>
