<?xml version="1.0" encoding="UTF-8"?>
<svg height="775.4" width="4470.3" xmlns="http://www.w3.org/2000/svg">
 <g>
  <text svgx:width="0.94,0.44,0.33,0.39,0.39,0.28,0.44,0.28,0.39" y="63.0" x="76.5,84.1,87.6,90.3,93.4,96.5,98.7,102.2,104.4" style="fill:rgb(0,0,0);font-family:URWPalladioL-Ital;font-size:8.0px;stroke:none;" xmlns:svgx="http://www.xml-cml.org/schema/svgx">Materials</text>
  <text svgx:width="0.5,0.5,0.5,0.5" y="63.0" x="109.5,113.5,117.5,121.5" style="fill:rgb(0,0,0);font-family:URWPalladioL-Bold;font-size:8.0px;stroke:none;" xmlns:svgx="http://www.xml-cml.org/schema/svgx">2017</text>
  <text svgx:width="0.25" y="63.0" x="125.5" style="fill:rgb(0,0,0);font-family:URWPalladioL-Roma;font-size:8.0px;stroke:none;" xmlns:svgx="http://www.xml-cml.org/schema/svgx">,</text>
  <text svgx:width="0.5,0.5" y="63.0" x="129.4,133.4" style="fill:rgb(0,0,0);font-family:URWPalladioL-Ital;font-size:8.0px;stroke:none;" xmlns:svgx="http://www.xml-cml.org/schema/svgx">10</text>
  <text svgx:width="0.25,0.55,0.5,0.5,0.55,0.5,0.55,0.55,0.33,0.55,0.5,0.5" y="63.0" x="137.4,139.4,141.4,145.4,149.4,495.8,499.8,501.8,506.1,508.8,510.8,514.8" style="fill:rgb(0,0,0);font-family:URWPalladioL-Roma;font-size:8.0px;stroke:none;" xmlns:svgx="http://www.xml-cml.org/schema/svgx">, 45 5 of 24</text>
  <text svgx:width="0.61,0.58,0.48,0.55,0.4,0.55,0.42,0.48,0.88,0.5,0.4,0.56,0.55,0.55,0.29,0.29,0.55,0.29,0.42,0.55,0.4,0.29,0.44,0.58,0.55,0.29,0.58,0.55,0.29,0.29,0.56,0.58,0.33,0.55,0.88,0.55,0.58,0.55,0.33,0.48,0.4,0.6,0.48,0.58,0.48,0.42,0.25,0.55,0.44,0.55,0.58,0.33,0.5,0.29,0.58,0.29,0.58,0.56,0.55,0.88,0.5,0.29,0.58,0.29,0.56,0.55,0.48,0.6,0.44,0.5,0.29,0.56,0.6,0.33,0.55,0.29,0.25,0.55,0.44,0.5,0.88,0.6,0.58,0.55,0.4,0.25" y="97.8" x="97.8,104.0,109.9,114.7,120.1,123.9,129.5,133.8,138.6,147.6,152.7,156.7,162.3,167.6,173.2,176.1,179.0,184.4,187.3,191.5,196.9,200.9,203.9,208.4,214.2,219.6,222.5,228.3,233.7,236.7,239.6,245.3,251.2,254.5,259.8,268.8,274.3,280.2,285.8,289.1,294.0,298.0,304.1,309.0,314.9,319.7,324.0,326.5,332.6,337.1,342.6,348.5,351.8,356.9,359.9,365.8,368.8,374.7,380.2,385.6,394.6,399.6,402.6,408.5,411.5,417.0,422.4,427.3,433.4,437.9,443.0,445.9,451.6,457.7,461.0,466.6,469.5,472.0,478.0,482.5,487.6,496.6,502.7,508.6,514.2,517.4" style="fill:rgb(0,0,0);font-family:URWPalladioL-Roma;font-size:10.0px;stroke:none;" xmlns:svgx="http://www.xml-cml.org/schema/svgx">The rosemary oil is rich in light monoterpenes, containing mainly eucalyptol, camphor,</text>
  <text svgx:width="0.66" y="111.4" x="76.5" style="fill:rgb(0,0,0);font-family:EURM10;font-size:10.0px;stroke:none;" xmlns:svgx="http://www.xml-cml.org/schema/svgx">α</text>
  <text svgx:width="0.33,0.61" y="111.4" x="83.1,86.4" style="fill:rgb(0,0,0);font-family:URWPalladioL-Roma;font-size:10.0px;stroke:none;" xmlns:svgx="http://www.xml-cml.org/schema/svgx">-/</text>
  <text svgx:width="0.66" y="111.4" x="92.5" style="fill:rgb(0,0,0);font-family:EURM10;font-size:10.0px;stroke:none;" xmlns:svgx="http://www.xml-cml.org/schema/svgx">β</text>
  <text svgx:width="0.33,0.6,0.29,0.58,0.48,0.58,0.48,0.25,0.55,0.44,0.5,0.88,0.6,0.58,0.48,0.58,0.48,0.25,0.55,0.55,0.55,0.4,0.58,0.48,0.55,0.29,0.25,0.55,0.5,0.58,0.61,0.55,0.29,0.29,0.88,0.55,0.58,0.48,0.58,0.48,1.0,0.56,0.29,0.56,0.6,0.4,0.48" y="111.4" x="99.1,102.4,108.4,111.3,117.1,121.8,127.6,132.4,134.9,137.4,141.8,146.8,155.6,161.6,167.4,172.1,177.9,182.7,185.2,187.7,193.2,198.6,202.6,208.4,213.1,218.6,221.5,224.0,226.5,231.4,237.2,243.3,245.8,248.7,251.6,260.4,265.9,271.7,276.4,282.2,287.0,297.0,302.5,305.4,310.9,316.9,320.7" style="fill:rgb(0,0,0);font-family:URWPalladioL-Roma;font-size:10.0px;stroke:none;" xmlns:svgx="http://www.xml-cml.org/schema/svgx">-pinene, camphene, borneol, and limonene—Figure</text>
  <text svgx:width="0.5" y="111.4" x="328.0" style="fill:rgb(0,0,255);font-family:URWPalladioL-Roma;font-size:10.0px;stroke:none;" xmlns:svgx="http://www.xml-cml.org/schema/svgx">3</text>
  <text svgx:width="0.25" y="111.4" x="332.9" style="fill:rgb(0,0,0);font-family:URWPalladioL-Roma;font-size:10.0px;stroke:none;" xmlns:svgx="http://www.xml-cml.org/schema/svgx">.</text>
  <text svgx:width="0.94,0.44,0.33,0.39,0.39,0.28,0.44,0.28,0.39,0.25" y="71.0" x="88.9,96.0,99.4,101.9,104.9,107.8,110.0,113.3,115.4,118.4" style="fill:rgb(0,0,0);font-family:PalatinoLinotype,Italic;font-size:7.6px;stroke:none;" xmlns:svgx="http://www.xml-cml.org/schema/svgx">Materials </text>
  <text svgx:width="0.5,0.5,0.5,0.5" y="71.0" x="120.3,124.1,127.9,131.7" style="fill:rgb(0,0,0);font-family:PalatinoLinotype,Bold;font-size:7.6px;stroke:none;" xmlns:svgx="http://www.xml-cml.org/schema/svgx">2017</text>
  <text svgx:width="0.25,0.25" y="71.0" x="135.5,137.4" style="fill:rgb(0,0,0);font-family:PalatinoLinotype;font-size:7.6px;stroke:none;" xmlns:svgx="http://www.xml-cml.org/schema/svgx">, </text>
  <text svgx:width="0.5,0.5" y="71.0" x="139.3,143.1" style="fill:rgb(0,0,0);font-family:PalatinoLinotype,Italic;font-size:7.6px;stroke:none;" xmlns:svgx="http://www.xml-cml.org/schema/svgx">10</text>
  <text svgx:width="0.25,0.25,0.5,0.5,0.25,0.55,0.5,0.25,0.55,0.33,0.25,0.5,0.5,0.25" y="71.0" x="146.9,148.8,150.6,154.5,158.3,160.2,487.1,490.9,492.8,496.9,499.4,501.3,505.1,509.0" style="fill:rgb(0,0,0);font-family:PalatinoLinotype;font-size:7.6px;stroke:none;" xmlns:svgx="http://www.xml-cml.org/schema/svgx">, 45 5 of 23 </text>
  <text svgx:width="0.61,0.58,0.48,0.25,0.55,0.4,0.55,0.42,0.48,0.88,0.5,0.4,0.56,0.25,0.55,0.55,0.29,0.29,0.25,0.55,0.29,0.42,0.25,0.55,0.4,0.29,0.44,0.58,0.25,0.55,0.29,0.58,0.25,0.55,0.29,0.29,0.56,0.58,0.33,0.25,0.55,0.88,0.55,0.58,0.55,0.33,0.48,0.4,0.6,0.48,0.58,0.48,0.42,0.25,0.25,0.55,0.44,0.55,0.58,0.33,0.5,0.29,0.58,0.29,0.58,0.56,0.25,0.55,0.88,0.5,0.29,0.58,0.29,0.56,0.25,0.55,0.48,0.6,0.44,0.5,0.29,0.56,0.6,0.33,0.55,0.29,0.25,0.25,0.55,0.44,0.5,0.88,0.6,0.58,0.55,0.4,0.25,0.25" y="94.7" x="109.0,114.9,120.4,125.0,127.4,130.4,134.2,139.4,143.4,148.0,156.3,161.1,164.8,170.1,172.5,175.6,180.8,183.5,186.3,188.7,191.7,194.5,198.5,200.9,203.9,207.7,210.5,214.7,220.2,222.6,225.6,228.4,234.0,236.3,239.4,242.1,244.9,250.2,255.7,258.8,261.2,264.3,272.7,277.8,283.3,288.5,291.6,296.2,299.9,305.7,310.2,315.8,320.3,324.4,326.7,329.1,332.2,336.4,341.6,347.1,350.2,355.0,357.7,363.3,366.0,371.5,376.8,379.2,382.2,390.6,395.4,398.2,403.6,406.4,411.7,414.1,417.2,421.7,427.4,431.6,436.4,439.1,444.4,450.1,453.2,458.4,461.2,463.6,465.9,469.0,473.2,478.0,486.4,492.1,497.7,502.9,506.6,509.0" style="fill:rgb(0,0,0);font-family:PalatinoLinotype;font-size:9.5px;stroke:none;" xmlns:svgx="http://www.xml-cml.org/schema/svgx">The rosemary oil is rich in light monoterpenes, containing mainly eucalyptol, camphor, </text>
  <text svgx:width="0.64,0.33,0.32,0.58,0.33,0.6,0.29,0.58,0.48,0.58,0.48,0.25,0.25,0.44,0.5,0.88,0.6,0.58,0.48,0.58,0.48,0.25,0.25,0.55,0.55,0.4,0.58,0.48,0.55,0.29,0.25,0.25,0.5,0.58,0.61,0.25,0.29,0.29,0.88,0.55,0.58,0.48,0.58,0.48,1.0,0.56,0.29,0.56,0.6,0.4,0.48,0.25,0.5,0.25" y="107.5" x="88.9,95.0,98.2,101.2,106.7,109.9,115.6,118.3,123.9,128.4,134.0,138.5,140.9,143.2,147.4,152.2,160.6,166.3,171.8,176.4,181.9,186.5,188.9,191.3,196.4,201.6,205.4,210.9,215.5,220.7,223.4,225.8,228.2,233.0,238.5,244.3,246.7,249.4,252.2,260.6,265.8,271.3,275.9,281.4,286.0,295.5,300.8,303.5,308.8,314.5,318.3,322.8,325.2,329.9" style="fill:rgb(0,0,0);font-family:PalatinoLinotype;font-size:9.5px;stroke:none;" xmlns:svgx="http://www.xml-cml.org/schema/svgx">α-/β-pinene, camphene, borneol, and limonene—Figure 3.</text>
  <text svgx:width="0.56,0.33,0.56,0.61,0.39,0.5,0.25,0.5,0.25" y="391.2" x="155.0,159.8,162.6,167.4,172.6,175.9,180.2,182.4,186.6" style="fill:rgb(0,0,0);font-family:PalatinoLinotype,Bold;font-size:8.6px;stroke:none;" xmlns:svgx="http://www.xml-cml.org/schema/svgx">Figure 3.</text>
  <text svgx:width="0.25,0.61,0.58,0.48,0.25,0.76,0.71,0.33,0.95,0.52,0.77,0.25,0.5,0.58,0.61,0.25,0.76,0.71,0.33,0.56,0.34,0.77,0.25,0.33,0.29,0.58,0.42,0.48,0.4,0.33,0.33,0.25,0.44,0.58,0.4,0.55,0.88,0.5,0.33,0.55,0.56,0.4,0.5,0.88,0.42,0.25,0.55,0.33,0.25,0.4,0.55,0.42,0.48,0.88,0.5,0.4,0.56,0.25,0.55,0.29,0.29,0.25,0.25" y="391.2" x="188.7,190.9,196.1,201.1,205.2,207.3,213.8,219.9,222.8,230.9,235.3,242.0,244.1,248.4,253.4,258.6,260.7,267.3,273.3,276.2,280.9,283.8,290.4,292.6,295.5,297.9,302.9,306.6,310.7,314.0,316.8,319.7,321.7,325.5,330.5,333.9,338.5,346.1,350.3,353.1,357.8,362.5,365.9,370.1,377.7,381.3,383.5,388.2,391.0,393.2,396.5,401.2,404.8,408.9,416.4,420.7,424.1,428.8,431.0,435.7,438.2,440.7,442.8" style="fill:rgb(0,0,0);font-family:PalatinoLinotype;font-size:8.6px;stroke:none;" xmlns:svgx="http://www.xml-cml.org/schema/svgx"> The GC-MSD and GC-FID (insert) chromatograms of rosemary oil. </text>
  <text svgx:width="0.61,0.58,0.48,0.25,0.33,0.48,0.5,0.25,0.33,0.4,0.48,0.48,0.25,0.48,0.42,0.42,0.48,0.58,0.33,0.29,0.5,0.29,0.25,0.55,0.29,0.29,0.25,0.44,0.55,0.58,0.33,0.5,0.29,0.58,0.48,0.61,0.25,0.55,0.55,0.33,0.58,0.25,0.29,0.29,0.56,0.58,0.33,0.25,0.88,0.55,0.58,0.55,0.33,0.48,0.4,0.6,0.48,0.58,0.48,0.42,0.25,0.5,0.58,0.61,0.25,0.58,0.6,0.88,0.48,0.4,0.55,0.6,0.42,0.25,0.42,0.48,0.42,0.56,0.6,0.29,0.33,0.48,0.4,0.6,0.48,0.58,0.48,0.42,0.25,0.25,0.61,0.58,0.48,0.25" y="415.2" x="109.0,114.9,120.4,125.0,127.4,130.5,135.1,139.8,142.3,145.4,149.1,153.7,158.3,160.7,165.2,169.2,173.3,177.8,183.4,186.5,189.2,194.0,196.8,199.2,204.4,207.1,209.9,212.3,216.6,221.7,227.2,230.3,235.1,237.9,243.4,248.0,253.8,256.2,261.5,266.7,269.8,275.3,277.7,280.5,283.3,288.5,294.1,297.2,299.6,308.0,313.2,318.8,324.0,327.1,331.6,335.3,341.0,345.6,351.1,355.7,359.7,362.2,366.9,372.5,378.3,380.7,386.2,391.9,400.3,404.9,408.6,413.8,419.6,423.6,426.0,430.1,434.6,438.7,444.0,449.7,452.5,455.6,460.2,463.9,469.6,474.2,479.7,484.3,488.3,490.7,493.2,499.0,504.5,509.1" style="fill:rgb(0,0,0);font-family:PalatinoLinotype;font-size:9.5px;stroke:none;" xmlns:svgx="http://www.xml-cml.org/schema/svgx">The tea tree essential oil contained both light monoterpenes and numerous sesquiterpenes. The </text>
  <text svgx:width="0.88,0.5,0.29,0.58,0.25,0.44,0.55,0.88,0.6,0.55,0.6,0.58,0.61,0.25,0.29,0.42,0.25,0.5,0.33,0.33,0.48,0.4,0.6,0.29,0.58,0.48,0.55,0.29,0.25,0.25,0.33,0.55,0.29,0.29,0.55,0.83,0.48,0.61,0.25,0.55,0.56,0.25,0.59,0.33,0.33,0.48,0.4,0.6,0.29,0.58,0.48,0.58,0.48,0.25,0.25,0.5,0.33,0.44,0.5,0.4,0.48,0.58,0.48,0.25,0.25,0.64,0.33,0.33,0.48,0.4,0.6,0.29,0.58,0.48,0.55,0.29,0.25,0.25,0.64,0.33,0.33,0.48,0.4,0.6,0.29,0.58,0.48,0.58,0.48,0.25,0.25,0.64,0.33,0.6,0.29,0.58,0.48,0.58,0.48,0.25,0.25" y="428.0" x="88.9,97.2,101.8,104.5,109.9,112.7,116.9,121.9,130.2,135.8,140.9,146.6,152.1,157.8,160.6,163.3,167.2,170.0,174.7,177.8,180.7,185.2,188.8,194.4,197.1,202.5,207.0,212.0,214.7,217.0,219.8,222.9,228.0,230.6,233.3,238.4,246.2,250.6,256.3,259.2,264.3,269.5,272.4,277.9,281.0,284.0,288.4,292.1,297.8,300.4,305.8,310.3,315.8,320.2,322.5,325.3,330.0,333.0,337.2,341.8,345.5,349.9,355.4,359.8,362.1,364.9,370.9,373.9,376.9,381.3,385.0,390.6,393.3,398.7,403.2,408.2,410.9,413.2,416.0,422.0,425.1,428.1,432.5,436.2,441.8,444.5,449.9,454.4,459.8,464.3,466.5,469.4,475.4,478.4,484.1,486.7,492.2,496.6,502.1,506.5,509.0" style="fill:rgb(0,0,0);font-family:PalatinoLinotype;font-size:9.5px;stroke:none;" xmlns:svgx="http://www.xml-cml.org/schema/svgx">main compound is 4-terpineol, followed by γ-terpinene, 2-carene, α-terpineol, α-terpinene, α-pinene, </text>
  <text svgx:width="0.55,0.33,0.44,0.56,0.88,0.48,0.58,0.48,0.25,0.25,0.55,0.29,0.29,0.88,0.55,0.58,0.48,0.58,0.48,0.25,0.25,0.55,0.58,0.33,0.44,0.5,0.4,0.56,0.55,0.6,0.58,0.56,0.29,0.29,0.48,0.58,0.48,0.25,0.25,0.55,0.48,0.6,0.44,0.5,0.29,0.56,0.6,0.33,0.55,0.29,0.25,0.25,0.55,0.5,0.58,0.61,0.25,0.55,0.58,0.33,0.88,0.56,0.4,0.44,0.48,0.58,0.48,1.0,0.56,0.29,0.56,0.6,0.4,0.48,0.25,0.55,0.5,0.25,0.25,0.55,0.52,0.33,0.5,0.58,0.61,0.5,0.4,0.61,0.42,0.25,0.55,0.5,0.42,0.56,0.25,0.55,0.33,0.55,0.4,0.25" y="440.8" x="88.9,94.1,97.2,101.4,106.7,115.1,119.7,125.2,129.8,132.2,134.6,136.9,139.7,142.4,150.8,156.0,161.6,166.1,171.7,176.2,178.6,181.0,183.4,188.9,192.1,196.2,201.0,204.8,210.1,215.3,221.0,226.5,231.8,234.5,237.3,241.9,247.3,251.9,254.2,256.6,259.0,263.6,269.3,273.6,278.3,281.1,286.4,292.1,295.2,300.4,303.1,305.5,307.9,310.2,315.0,320.5,326.3,328.7,331.2,336.7,339.9,348.3,353.6,357.3,361.5,366.0,371.5,376.1,385.6,390.9,393.7,399.0,404.7,408.5,413.1,415.4,417.8,422.5,424.9,427.3,429.7,434.7,437.8,442.6,448.1,453.9,458.7,462.4,468.2,472.2,474.6,477.5,482.2,486.3,491.6,493.9,496.8,500.0,505.2,508.9" style="fill:rgb(0,0,0);font-family:PalatinoLinotype;font-size:9.5px;stroke:none;" xmlns:svgx="http://www.xml-cml.org/schema/svgx">o-cymene, limonene, β-caryophyllene, eucalyptol, and β-myrcene—Figure 4. Standards ask for </text>
  <text svgx:width="0.64,0.33,0.33,0.48,0.4,0.6,0.29,0.58,0.48,0.58,0.48,0.25,0.33,0.5,0.84,0.5,0.5,0.5,0.84,0.33,0.25,0.25,0.83,0.58,0.29,0.44,0.58,0.25,0.83,0.5,0.42,0.25,0.58,0.55,0.33,0.25,0.33,0.55,0.6,0.58,0.61,0.25,0.29,0.58,0.25,0.55,0.6,0.4,0.25,0.33,0.48,0.48,0.25,0.33,0.4,0.48,0.48,0.25,0.42,0.5,0.88,0.6,0.29,0.48,0.25,0.25,0.29,0.58,0.42,0.33,0.48,0.5,0.61,0.25,0.5,0.33,0.44,0.5,0.4,0.48,0.58,0.48,0.25,0.83,0.5,0.42,0.25,0.33,0.55,0.6,0.58,0.61,0.25,0.29,0.58,0.25" y="453.6" x="88.9,95.0,98.1,101.2,105.8,109.5,115.2,118.0,123.5,128.1,133.5,138.1,141.2,144.3,149.1,157.1,161.8,166.6,171.3,179.3,182.5,184.9,187.9,195.9,201.3,204.1,208.3,213.9,216.9,224.9,229.6,233.7,236.7,242.3,247.5,250.5,253.6,256.7,261.9,267.7,273.2,279.0,282.0,284.8,290.3,293.4,298.6,304.3,308.1,311.2,314.3,318.8,323.4,326.5,329.6,333.3,337.9,342.4,345.5,349.5,354.3,362.7,368.4,371.2,375.7,378.1,381.2,384.0,389.4,393.5,396.6,401.1,405.9,411.6,414.2,419.0,422.1,426.3,431.1,434.8,439.4,444.9,449.5,452.6,460.4,465.2,469.2,472.3,475.5,480.6,486.3,491.9,497.7,500.8,503.5,509.0" style="fill:rgb(0,0,0);font-family:PalatinoLinotype;font-size:9.5px;stroke:none;" xmlns:svgx="http://www.xml-cml.org/schema/svgx">α-terpinene (5%–13%), which was not found in our tee tree sample, instead 2-carene was found in </text>
  <text svgx:width="0.58,0.29,0.56,0.58,0.25,0.5,0.88,0.55,0.6,0.58,0.33,0.42,0.25,0.55,0.33,0.25,0.5,0.55,0.55,0.6,0.33,0.25,0.5,0.5,0.84,0.25,0.25,0.78,0.4,0.55,0.88,0.5,0.61,0.48,0.58,0.61,0.4,0.48,0.58,0.48,0.25,0.5,0.58,0.61,0.25,0.52,0.33,0.44,0.5,0.61,0.29,0.58,0.48,0.58,0.48,0.25,0.25,0.88,0.48,0.58,0.33,0.29,0.55,0.58,0.48,0.61,0.25,0.55,0.56,0.25,0.42,0.33,0.5,0.58,0.61,0.5,0.4,0.61,0.42,0.25,0.29,0.58,0.25,0.5,0.88,0.55,0.6,0.58,0.33,0.42,0.25" y="466.4" x="88.9,94.4,97.2,102.5,108.0,111.0,115.8,124.2,129.3,135.1,140.6,143.7,147.7,150.8,156.0,159.2,162.2,166.9,172.2,177.3,183.1,186.1,189.2,193.9,198.6,206.6,209.0,211.5,218.9,222.7,227.9,236.2,241.0,246.8,251.4,256.8,262.7,266.4,271.0,276.5,281.1,284.1,288.9,294.4,300.2,303.2,308.1,311.3,315.5,320.3,326.1,328.8,334.3,338.9,344.4,349.0,351.4,354.4,362.8,367.3,372.8,375.9,378.7,383.9,389.4,394.0,399.8,402.8,408.1,413.4,416.4,420.4,423.5,428.2,433.8,439.5,444.3,448.1,453.9,457.9,460.9,463.7,469.2,472.2,477.0,485.3,490.5,496.3,501.8,504.9,508.9" style="fill:rgb(0,0,0);font-family:PalatinoLinotype;font-size:9.5px;stroke:none;" xmlns:svgx="http://www.xml-cml.org/schema/svgx">high amounts of about 10%. Aromadendrene and δ-cadinene, mentioned by standards in amounts </text>
  <text svgx:width="0.56,0.5,0.4,0.56,0.29,0.58,0.56,0.25,0.33,0.4,0.55,0.88,0.25,0.33,0.4,0.5,0.44,0.48,0.42,0.25,0.6,0.6,0.25,0.33,0.55,0.25,0.5,0.84,0.5,0.5,0.84,0.25,0.83,0.48,0.4,0.48,0.25,0.44,0.55,0.58,0.33,0.29,0.4,0.88,0.48,0.61,0.25,0.29,0.58,0.25,0.33,0.58,0.48,0.25,0.42,0.33,0.6,0.61,0.29,0.48,0.61,0.25,0.42,0.5,0.88,0.6,0.29,0.48,0.25,0.25" y="479.2" x="88.9,94.2,99.0,102.8,108.1,110.9,116.3,121.6,124.0,127.1,130.9,136.1,144.5,146.9,149.9,153.7,158.5,162.7,167.3,171.3,173.6,179.4,185.1,187.5,190.6,195.8,198.1,202.8,210.8,215.6,220.4,228.3,230.7,238.6,243.2,247.0,251.5,253.8,258.0,263.2,268.7,271.9,274.7,278.5,286.9,291.4,297.2,299.6,302.4,307.8,310.2,313.3,318.8,323.4,325.8,329.8,332.9,338.7,344.4,347.2,351.8,357.6,359.9,364.0,368.7,377.1,382.8,385.6,390.2,392.5" style="fill:rgb(0,0,0);font-family:PalatinoLinotype;font-size:9.5px;stroke:none;" xmlns:svgx="http://www.xml-cml.org/schema/svgx">varying from traces up to 7%–8% were confirmed in the studied sample. </text>
  <text svgx:width="0.56,0.33,0.56,0.61,0.39,0.5,0.25,0.5,0.25" y="755.8" x="159.0,163.8,166.7,171.4,176.6,180.0,184.2,186.4,190.7" style="fill:rgb(0,0,0);font-family:PalatinoLinotype,Bold;font-size:8.6px;stroke:none;" xmlns:svgx="http://www.xml-cml.org/schema/svgx">Figure 4.</text>
  <text svgx:width="0.25,0.61,0.58,0.48,0.25,0.76,0.71,0.33,0.95,0.52,0.77,0.25,0.5,0.58,0.61,0.25,0.76,0.71,0.33,0.56,0.34,0.77,0.25,0.33,0.29,0.58,0.42,0.48,0.4,0.33,0.33,0.25,0.44,0.58,0.4,0.55,0.88,0.5,0.33,0.55,0.56,0.4,0.5,0.88,0.42,0.25,0.55,0.33,0.25,0.33,0.48,0.5,0.25,0.33,0.4,0.48,0.48,0.25,0.55,0.29,0.29,0.25,0.25" y="755.8" x="192.8,194.9,200.2,205.2,209.3,211.4,217.9,224.0,226.8,234.9,239.4,246.0,248.2,252.5,257.4,262.7,264.8,271.3,277.4,280.2,285.0,287.9,294.5,296.6,299.5,302.0,307.0,310.6,314.7,318.1,320.9,323.7,325.8,329.6,334.5,337.9,342.6,350.1,354.4,357.2,361.9,366.6,370.0,374.3,381.8,385.5,387.6,392.3,395.2,397.3,400.1,404.2,408.4,410.6,413.4,416.8,420.9,424.9,427.1,431.7,434.2,436.7,438.8" style="fill:rgb(0,0,0);font-family:PalatinoLinotype;font-size:8.6px;stroke:none;" xmlns:svgx="http://www.xml-cml.org/schema/svgx"> The GC-MSD and GC-FID (insert) chromatograms of tea tree oil. </text>
  <text class="image" id="image.5.1" width="346" height="253" y="79.9" x="125.7" style="font-size:8.0px;">image.5.1.126_472.80_334</text>
  <text class="image" id="image.5.2" width="338" height="246" y="451.6" x="129.7" style="font-size:8.0px;">image.5.2.130_468.452_698</text>
  <text class="image" id="image.5.3" width="11" height="16" y="690.4" x="460.3" style="font-size:8.0px;">image.5.3.460_472.690_707</text>
  <text svgx:width="0.56,0.33,0.56,0.61,0.39,0.5,0.55,0.5,0.25" y="392.0" x="146.6,151.6,154.6,159.6,165.1,168.5,173.0,175.3,179.7" style="fill:rgb(0,0,0);font-family:URWPalladioL-Bold;font-size:9.0px;stroke:none;" xmlns:svgx="http://www.xml-cml.org/schema/svgx">Figure 3.</text>
  <text svgx:width="0.61,0.58,0.48,0.55,0.76,0.71,0.33,0.95,0.52,0.77,0.55,0.5,0.58,0.61,0.55,0.76,0.71,0.33,0.56,0.34,0.77,0.55,0.33,0.29,0.58,0.42,0.48,0.4,0.33,0.33,0.55,0.44,0.58,0.4,0.55,0.88,0.5,0.33,0.55,0.56,0.4,0.5,0.88,0.42,0.55,0.55,0.33,0.55,0.4,0.55,0.42,0.48,0.88,0.5,0.4,0.56,0.55,0.55,0.29,0.29,0.25" y="392.0" x="184.8,190.3,195.5,199.8,202.0,208.9,215.2,218.2,226.7,231.4,238.3,240.6,245.1,250.3,255.7,258.0,264.8,271.2,274.2,279.2,282.2,289.1,291.4,294.4,297.0,302.2,306.0,310.3,313.8,316.7,319.7,322.0,326.0,331.2,334.6,339.4,347.4,351.9,354.8,359.7,364.7,368.2,372.7,380.6,384.4,386.6,391.5,394.5,396.8,400.1,405.0,408.8,413.1,421.1,425.5,429.1,434.1,436.3,441.2,443.8,446.4" style="fill:rgb(0,0,0);font-family:URWPalladioL-Roma;font-size:9.0px;stroke:none;" xmlns:svgx="http://www.xml-cml.org/schema/svgx">The GC-MSD and GC-FID (insert) chromatograms of rosemary oil.</text>
  <text svgx:width="0.61,0.58,0.48,0.55,0.33,0.48,0.5,0.55,0.33,0.4,0.48,0.48,0.55,0.48,0.42,0.42,0.48,0.58,0.33,0.29,0.5,0.29,0.55,0.55,0.29,0.29,0.55,0.44,0.55,0.58,0.33,0.5,0.29,0.58,0.48,0.61,0.55,0.55,0.55,0.33,0.58,0.55,0.29,0.29,0.56,0.58,0.33,0.55,0.88,0.55,0.58,0.55,0.33,0.48,0.4,0.6,0.48,0.58,0.48,0.42,0.55,0.5,0.58,0.61,0.55,0.58,0.6,0.88,0.48,0.4,0.55,0.6,0.42,0.55,0.42,0.48,0.42,0.56,0.6,0.29,0.33,0.48,0.4,0.6,0.48,0.58,0.48,0.42,0.25" y="421.3" x="97.8,104.0,109.9,114.7,118.8,122.1,127.0,132.0,136.0,139.3,143.2,148.0,152.8,156.9,161.8,166.1,170.4,175.2,181.2,184.5,187.4,192.5,195.4,199.4,205.0,207.9,210.8,214.9,219.4,225.0,230.9,234.2,239.3,242.2,248.1,253.0,259.1,263.2,268.8,274.4,277.7,283.4,287.6,290.5,293.5,299.1,305.0,308.3,312.3,321.3,326.9,332.8,338.3,341.6,346.5,350.5,356.6,361.5,367.4,372.3,376.5,380.6,385.6,391.6,397.6,401.7,407.7,413.8,422.8,427.6,431.5,437.0,443.1,447.3,451.4,455.7,460.6,464.9,470.6,476.7,479.7,483.0,487.9,491.9,498.0,502.9,508.8,513.6,517.9" style="fill:rgb(0,0,0);font-family:URWPalladioL-Roma;font-size:10.0px;stroke:none;" xmlns:svgx="http://www.xml-cml.org/schema/svgx">The tea tree essential oil contained both light monoterpenes and numerous sesquiterpenes.</text>
  <text svgx:width="0.61,0.58,0.48,0.55,0.88,0.5,0.29,0.58,0.55,0.44,0.55,0.88,0.6,0.55,0.6,0.58,0.61,0.55,0.29,0.42,0.55,0.5,0.33,0.33,0.48,0.4,0.6,0.29,0.58,0.48,0.55,0.29,0.25,0.55,0.33,0.55,0.29,0.29,0.55,0.83,0.48,0.61,0.55,0.55,0.56" y="434.8" x="76.2,82.5,88.4,93.1,97.3,106.2,111.3,114.3,120.0,124.2,128.7,134.2,143.2,149.3,154.9,161.0,166.9,173.0,177.1,180.1,184.3,188.4,193.5,196.9,200.2,205.1,209.1,215.2,218.1,224.1,228.9,234.5,237.4,239.9,244.4,247.7,253.3,256.2,259.2,264.7,273.2,278.1,284.2,288.3,293.9" style="fill:rgb(0,0,0);font-family:URWPalladioL-Roma;font-size:10.0px;stroke:none;" xmlns:svgx="http://www.xml-cml.org/schema/svgx">The main compound is 4-terpineol, followed by</text>
  <text svgx:width="0.61" y="434.8" x="303.6" style="fill:rgb(0,0,0);font-family:EURM10;font-size:10.0px;stroke:none;" xmlns:svgx="http://www.xml-cml.org/schema/svgx">γ</text>
  <text svgx:width="0.33,0.33,0.48,0.4,0.6,0.29,0.58,0.48,0.58,0.48,0.25,0.55,0.5,0.33,0.44,0.5,0.4,0.48,0.58,0.48,0.25" y="434.8" x="309.7,313.0,316.3,321.2,325.2,331.3,334.3,340.2,345.1,351.0,355.9,358.3,362.8,367.9,371.3,375.8,380.8,384.7,389.5,395.5,400.3" style="fill:rgb(0,0,0);font-family:URWPalladioL-Roma;font-size:10.0px;stroke:none;" xmlns:svgx="http://www.xml-cml.org/schema/svgx">-terpinene, 2-carene,</text>
  <text svgx:width="0.66" y="434.8" x="407.3" style="fill:rgb(0,0,0);font-family:EURM10;font-size:10.0px;stroke:none;" xmlns:svgx="http://www.xml-cml.org/schema/svgx">α</text>
  <text svgx:width="0.33,0.33,0.48,0.4,0.6,0.29,0.58,0.48,0.55,0.29,0.25" y="434.8" x="413.8,417.2,420.5,425.4,429.4,435.5,438.5,444.4,449.2,454.8,457.8" style="fill:rgb(0,0,0);font-family:URWPalladioL-Roma;font-size:10.0px;stroke:none;" xmlns:svgx="http://www.xml-cml.org/schema/svgx">-terpineol,</text>
  <text svgx:width="0.66" y="434.8" x="464.7" style="fill:rgb(0,0,0);font-family:EURM10;font-size:10.0px;stroke:none;" xmlns:svgx="http://www.xml-cml.org/schema/svgx">α</text>
  <text svgx:width="0.33,0.33,0.48,0.4,0.6,0.29,0.58,0.48,0.58,0.48,0.25" y="434.8" x="471.2,474.6,477.9,482.8,486.8,492.9,495.9,501.8,506.7,512.6,517.4" style="fill:rgb(0,0,0);font-family:URWPalladioL-Roma;font-size:10.0px;stroke:none;" xmlns:svgx="http://www.xml-cml.org/schema/svgx">-terpinene,</text>
  <text svgx:width="0.66" y="448.4" x="76.5" style="fill:rgb(0,0,0);font-family:EURM10;font-size:10.0px;stroke:none;" xmlns:svgx="http://www.xml-cml.org/schema/svgx">α</text>
  <text svgx:width="0.33,0.6,0.29,0.58,0.48,0.58,0.48,0.25,0.55,0.55,0.33,0.44,0.56,0.88,0.48,0.58,0.48,0.25,0.55,0.29,0.29,0.88,0.55,0.58,0.48,0.58,0.48,0.25" y="448.4" x="83.1,86.4,92.3,95.1,100.8,105.6,111.3,116.0,118.5,120.9,126.3,129.6,133.9,139.4,148.1,152.8,158.5,163.2,165.7,168.2,171.0,173.9,182.5,187.9,193.6,198.3,204.0,208.8" style="fill:rgb(0,0,0);font-family:URWPalladioL-Roma;font-size:10.0px;stroke:none;" xmlns:svgx="http://www.xml-cml.org/schema/svgx">-pinene, o-cymene, limonene,</text>
  <text svgx:width="0.66" y="448.4" x="213.7" style="fill:rgb(0,0,0);font-family:EURM10;font-size:10.0px;stroke:none;" xmlns:svgx="http://www.xml-cml.org/schema/svgx">β</text>
  <text svgx:width="0.33,0.44,0.5,0.4,0.56,0.55,0.6,0.58,0.56,0.29,0.29,0.48,0.58,0.48,0.25,0.55,0.48,0.6,0.44,0.5,0.29,0.56,0.6,0.33,0.55,0.29,0.25,0.55,0.5,0.58,0.61" y="448.4" x="220.3,223.6,227.9,232.9,236.7,242.2,247.6,253.5,259.2,264.6,267.5,270.4,275.1,280.8,285.5,288.0,290.4,295.2,301.1,305.4,310.4,313.2,318.7,324.6,327.8,333.1,336.0,338.5,341.0,345.9,351.6" style="fill:rgb(0,0,0);font-family:URWPalladioL-Roma;font-size:10.0px;stroke:none;" xmlns:svgx="http://www.xml-cml.org/schema/svgx">-caryophyllene, eucalyptol, and</text>
  <text svgx:width="0.66" y="448.4" x="360.1" style="fill:rgb(0,0,0);font-family:EURM10;font-size:10.0px;stroke:none;" xmlns:svgx="http://www.xml-cml.org/schema/svgx">β</text>
  <text svgx:width="0.33,0.88,0.56,0.4,0.44,0.48,0.58,0.48,1.0,0.56,0.29,0.56,0.6,0.4,0.48" y="448.4" x="366.7,370.0,378.6,384.1,387.8,392.2,396.9,402.6,407.3,417.1,422.6,425.4,430.9,436.8,440.5" style="fill:rgb(0,0,0);font-family:URWPalladioL-Roma;font-size:10.0px;stroke:none;" xmlns:svgx="http://www.xml-cml.org/schema/svgx">-myrcene—Figure</text>
  <text svgx:width="0.5" y="448.4" x="447.7" style="fill:rgb(0,0,255);font-family:URWPalladioL-Roma;font-size:10.0px;stroke:none;" xmlns:svgx="http://www.xml-cml.org/schema/svgx">4</text>
  <text svgx:width="0.25,0.55,0.52,0.33,0.5,0.58,0.61,0.5,0.4,0.61,0.42,0.55,0.5,0.42,0.56" y="448.4" x="452.6,455.1,458.2,463.4,466.6,471.5,477.2,483.2,488.1,491.8,497.8,502.0,504.5,509.4,513.6" style="fill:rgb(0,0,0);font-family:URWPalladioL-Roma;font-size:10.0px;stroke:none;" xmlns:svgx="http://www.xml-cml.org/schema/svgx">. Standards ask</text>
  <text svgx:width="0.33,0.55,0.4" y="461.9" x="76.5,79.8,85.2" style="fill:rgb(0,0,0);font-family:URWPalladioL-Roma;font-size:10.0px;stroke:none;" xmlns:svgx="http://www.xml-cml.org/schema/svgx">for</text>
  <text svgx:width="0.66" y="461.9" x="91.6" style="fill:rgb(0,0,0);font-family:EURM10;font-size:10.0px;stroke:none;" xmlns:svgx="http://www.xml-cml.org/schema/svgx">α</text>
  <text svgx:width="0.33,0.33,0.48,0.4,0.6,0.29,0.58,0.48,0.58,0.48,0.55,0.33,0.5,0.84,0.5,0.5,0.5,0.84,0.33,0.25,0.55,0.83,0.58,0.29,0.44,0.58,0.55,0.83,0.5,0.42,0.55,0.58,0.55,0.33,0.55,0.33,0.55,0.6,0.58,0.61,0.55,0.29,0.58,0.55,0.55,0.6,0.4,0.55,0.33,0.48,0.48,0.55,0.33,0.4,0.48,0.48,0.55,0.42,0.5,0.88,0.6,0.29,0.48,0.25,0.55,0.29,0.58,0.42,0.33,0.48,0.5,0.61,0.55,0.5,0.33,0.44,0.5,0.4,0.48,0.58,0.48,0.55,0.83,0.5,0.42,0.55,0.33,0.55,0.6,0.58,0.61,0.55,0.29,0.58" y="461.9" x="98.2,101.5,104.7,109.4,113.3,119.3,122.1,127.9,132.6,138.4,143.2,145.6,148.9,153.9,162.1,167.1,172.0,177.0,185.3,188.6,191.1,193.5,201.8,207.5,210.4,214.8,220.6,223.0,231.3,236.2,240.4,242.9,248.7,254.1,257.3,259.8,263.1,268.5,274.4,280.2,286.3,288.7,291.6,297.4,299.8,305.2,311.2,315.2,317.6,320.8,325.5,330.3,332.8,336.0,339.7,344.5,349.2,351.7,355.9,360.8,369.5,375.5,378.4,383.1,385.6,388.1,390.9,396.7,400.9,404.1,408.8,413.8,419.8,422.3,427.3,430.5,434.9,439.9,443.6,448.3,454.1,458.9,461.3,469.6,474.5,478.7,481.2,484.5,489.9,495.8,501.6,507.7,510.1,513.0" style="fill:rgb(0,0,0);font-family:URWPalladioL-Roma;font-size:10.0px;stroke:none;" xmlns:svgx="http://www.xml-cml.org/schema/svgx">-terpinene (5%–13%), which was not found in our tee tree sample, instead 2-carene was found in</text>
  <text svgx:width="0.58,0.29,0.56,0.58,0.55,0.5,0.88,0.55,0.6,0.58,0.33,0.42,0.55,0.55,0.33,0.55,0.5,0.55,0.55,0.6,0.33,0.55,0.5,0.5,0.84,0.25,0.55,0.78,0.4,0.55,0.88,0.5,0.61,0.48,0.58,0.61,0.4,0.48,0.58,0.48,0.55,0.5,0.58,0.61" y="475.4" x="76.5,82.4,85.4,91.1,96.8,99.6,104.6,113.6,119.2,125.3,131.2,134.5,138.7,141.4,147.0,150.3,153.0,158.0,163.7,169.2,175.3,178.6,181.2,186.3,191.4,199.9,202.4,205.9,213.8,217.6,223.2,232.1,237.2,243.4,248.3,254.2,260.4,264.2,269.1,275.0,279.8,282.5,287.6,293.5" style="fill:rgb(0,0,0);font-family:URWPalladioL-Roma;font-size:10.0px;stroke:none;" xmlns:svgx="http://www.xml-cml.org/schema/svgx">high amounts of about 10%. Aromadendrene and</text>
  <text svgx:width="0.5" y="475.4" x="302.3" style="fill:rgb(0,0,0);font-family:EURM10;font-size:10.0px;stroke:none;" xmlns:svgx="http://www.xml-cml.org/schema/svgx">δ</text>
  <text svgx:width="0.33,0.44,0.5,0.61,0.29,0.58,0.48,0.58,0.48,0.25,0.55,0.88,0.48,0.58,0.33,0.29,0.55,0.58,0.48,0.61,0.55,0.55,0.56,0.55,0.42,0.33,0.5,0.58,0.61,0.5,0.4,0.61,0.42,0.55,0.29,0.58,0.55,0.5,0.88,0.55,0.6,0.58,0.33,0.42" y="475.4" x="307.3,310.7,315.2,320.3,326.5,329.4,335.3,340.2,346.1,351.0,353.5,356.1,365.1,370.0,375.9,379.2,382.2,387.7,393.6,398.5,404.6,407.3,412.9,418.5,421.2,425.5,428.8,433.9,439.8,446.0,451.1,454.9,461.1,465.3,468.0,471.0,476.7,479.5,484.6,493.5,499.1,505.2,511.1,514.4" style="fill:rgb(0,0,0);font-family:URWPalladioL-Roma;font-size:10.0px;stroke:none;" xmlns:svgx="http://www.xml-cml.org/schema/svgx">-cadinene, mentioned by standards in amounts</text>
  <text svgx:width="0.56,0.5,0.4,0.56,0.29,0.58,0.56,0.55,0.33,0.4,0.55,0.88,0.33,0.4,0.5,0.44,0.48,0.42,0.55,0.6,0.6,0.55,0.33,0.55,0.55,0.5,0.84,0.5,0.5,0.84,0.83,0.48,0.4,0.48,0.55,0.44,0.55,0.58,0.61,0.4,0.88,0.48,0.61,0.55,0.29,0.58,0.55,0.33,0.58,0.48,0.55,0.42,0.33,0.6,0.61,0.29,0.48,0.61,0.55,0.42,0.5,0.88,0.6,0.29,0.48,0.25" y="488.9" x="76.3,81.9,86.9,90.8,96.3,99.2,105.0,110.6,113.1,116.4,120.1,125.6,136.9,140.1,144.1,149.0,153.5,158.2,162.4,164.9,171.0,176.9,179.4,182.7,188.2,190.6,195.6,204.0,208.9,213.9,224.8,233.1,237.9,241.6,246.4,248.9,253.3,258.7,264.5,270.6,274.5,283.3,288.1,294.1,296.6,299.5,305.3,307.8,311.1,316.9,321.7,324.1,328.4,331.6,337.6,343.7,346.6,351.4,357.5,360.0,364.2,369.2,378.0,384.0,386.9,391.6" style="fill:rgb(0,0,0);font-family:URWPalladioL-Roma;font-size:10.0px;stroke:none;" xmlns:svgx="http://www.xml-cml.org/schema/svgx">varying fromtraces up to 7%–8%were conﬁrmed in the studied sample.</text>
  <text svgx:width="0.94,0.44,0.33,0.39,0.39,0.28,0.44,0.28,0.39,0.25" y="78.5" x="86.9,94.1,97.5,100.0,103.0,105.9,108.0,111.4,113.5,116.5" style="fill:rgb(0,0,0);font-family:PalatinoLinotype,Italic;font-size:7.6px;stroke:none;" xmlns:svgx="http://www.xml-cml.org/schema/svgx">Materials </text>
  <text svgx:width="0.5,0.5,0.5,0.5" y="78.5" x="118.4,122.2,126.0,129.8" style="fill:rgb(0,0,0);font-family:PalatinoLinotype,Bold;font-size:7.6px;stroke:none;" xmlns:svgx="http://www.xml-cml.org/schema/svgx">2017</text>
  <text svgx:width="0.25,0.25" y="78.5" x="133.6,135.5" style="fill:rgb(0,0,0);font-family:PalatinoLinotype;font-size:7.6px;stroke:none;" xmlns:svgx="http://www.xml-cml.org/schema/svgx">, </text>
  <text svgx:width="0.5,0.5" y="78.5" x="137.4,141.2" style="fill:rgb(0,0,0);font-family:PalatinoLinotype,Italic;font-size:7.6px;stroke:none;" xmlns:svgx="http://www.xml-cml.org/schema/svgx">10</text>
  <text svgx:width="0.25,0.25,0.5,0.5,0.25,0.55,0.5,0.25,0.55,0.33,0.25,0.5,0.5,0.25" y="78.5" x="145.0,146.9,148.7,152.6,156.4,158.3,485.1,489.0,490.8,495.0,497.5,499.4,503.2,507.0" style="fill:rgb(0,0,0);font-family:PalatinoLinotype;font-size:7.6px;stroke:none;" xmlns:svgx="http://www.xml-cml.org/schema/svgx">, 45 5 of 23 </text>
  <text svgx:width="0.61,0.58,0.48,0.25,0.55,0.4,0.55,0.42,0.48,0.88,0.5,0.4,0.56,0.25,0.55,0.55,0.29,0.29,0.25,0.55,0.29,0.42,0.25,0.55,0.4,0.29,0.44,0.58,0.25,0.55,0.29,0.58,0.25,0.55,0.29,0.29,0.56,0.58,0.33,0.25,0.55,0.88,0.55,0.58,0.55,0.33,0.48,0.4,0.6,0.48,0.58,0.48,0.42,0.25,0.25,0.55,0.44,0.55,0.58,0.33,0.5,0.29,0.58,0.29,0.58,0.56,0.25,0.55,0.88,0.5,0.29,0.58,0.29,0.56,0.25,0.55,0.48,0.6,0.44,0.5,0.29,0.56,0.6,0.33,0.55,0.29,0.25,0.25,0.55,0.44,0.5,0.88,0.6,0.58,0.55,0.4,0.25,0.25" y="102.2" x="107.1,113.0,118.5,123.1,125.4,128.5,132.3,137.5,141.5,146.1,154.4,159.2,162.9,168.2,170.6,173.7,178.9,181.6,184.4,186.8,189.8,192.6,196.6,198.9,202.0,205.8,208.6,212.8,218.3,220.6,223.7,226.5,232.0,234.4,237.5,240.2,243.0,248.3,253.8,256.9,259.3,262.3,270.8,275.9,281.4,286.6,289.7,294.3,298.0,303.7,308.3,313.8,318.4,322.4,324.8,327.2,330.2,334.5,339.7,345.2,348.3,353.0,355.8,361.4,364.1,369.6,374.9,377.3,380.3,388.7,393.5,396.2,401.7,404.5,409.8,412.2,415.3,419.8,425.5,429.7,434.5,437.2,442.5,448.2,451.3,456.5,459.3,461.7,464.0,467.1,471.3,476.1,484.5,490.2,495.7,500.9,504.7,507.0" style="fill:rgb(0,0,0);font-family:PalatinoLinotype;font-size:9.5px;stroke:none;" xmlns:svgx="http://www.xml-cml.org/schema/svgx">The rosemary oil is rich in light monoterpenes, containing mainly eucalyptol, camphor, </text>
  <text svgx:width="0.64,0.33,0.32,0.58,0.33,0.6,0.29,0.58,0.48,0.58,0.48,0.25,0.25,0.44,0.5,0.88,0.6,0.58,0.48,0.58,0.48,0.25,0.25,0.55,0.55,0.4,0.58,0.48,0.55,0.29,0.25,0.25,0.5,0.58,0.61,0.25,0.29,0.29,0.88,0.55,0.58,0.48,0.58,0.48,1.0,0.56,0.29,0.56,0.6,0.4,0.48,0.25,0.5,0.25" y="115.0" x="86.9,93.0,96.2,99.3,104.8,107.9,113.7,116.4,122.0,126.5,132.1,136.6,139.0,141.3,145.5,150.3,158.7,164.4,169.9,174.5,180.0,184.6,187.0,189.3,194.5,199.7,203.5,209.0,213.6,218.8,221.5,223.9,226.3,231.1,236.6,242.3,244.7,247.5,250.3,258.7,263.9,269.4,274.0,279.5,284.1,293.6,298.9,301.6,306.9,312.6,316.4,320.9,323.3,328.0" style="fill:rgb(0,0,0);font-family:PalatinoLinotype;font-size:9.5px;stroke:none;" xmlns:svgx="http://www.xml-cml.org/schema/svgx">α-/β-pinene, camphene, borneol, and limonene—Figure 3.</text>
  <text svgx:width="0.56,0.33,0.56,0.61,0.39,0.5,0.25,0.5,0.25" y="398.7" x="153.1,157.8,160.7,165.4,170.7,174.0,178.3,180.4,184.7" style="fill:rgb(0,0,0);font-family:PalatinoLinotype,Bold;font-size:8.6px;stroke:none;" xmlns:svgx="http://www.xml-cml.org/schema/svgx">Figure 3.</text>
  <text svgx:width="0.25,0.61,0.58,0.48,0.25,0.76,0.71,0.33,0.95,0.52,0.77,0.25,0.5,0.58,0.61,0.25,0.76,0.71,0.33,0.56,0.34,0.77,0.25,0.33,0.29,0.58,0.42,0.48,0.4,0.33,0.33,0.25,0.44,0.58,0.4,0.55,0.88,0.5,0.33,0.55,0.56,0.4,0.5,0.88,0.42,0.25,0.55,0.33,0.25,0.4,0.55,0.42,0.48,0.88,0.5,0.4,0.56,0.25,0.55,0.29,0.29,0.25,0.25" y="398.7" x="186.8,189.0,194.2,199.2,203.3,205.4,211.9,218.0,220.8,228.9,233.4,240.1,242.2,246.5,251.5,256.7,258.8,265.3,271.4,274.3,279.0,281.9,288.5,290.7,293.5,296.0,301.0,304.6,308.7,312.1,314.9,317.8,319.8,323.6,328.6,331.9,336.6,344.1,348.4,351.2,355.8,360.6,364.0,368.2,375.8,379.4,381.6,386.2,389.1,391.3,394.6,399.3,402.9,407.0,414.5,418.8,422.2,426.9,429.1,433.7,436.2,438.8,440.9" style="fill:rgb(0,0,0);font-family:PalatinoLinotype;font-size:8.6px;stroke:none;" xmlns:svgx="http://www.xml-cml.org/schema/svgx"> The GC-MSD and GC-FID (insert) chromatograms of rosemary oil. </text>
  <text svgx:width="0.61,0.58,0.48,0.25,0.33,0.48,0.5,0.25,0.33,0.4,0.48,0.48,0.25,0.48,0.42,0.42,0.48,0.58,0.33,0.29,0.5,0.29,0.25,0.55,0.29,0.29,0.25,0.44,0.55,0.58,0.33,0.5,0.29,0.58,0.48,0.61,0.25,0.55,0.55,0.33,0.58,0.25,0.29,0.29,0.56,0.58,0.33,0.25,0.88,0.55,0.58,0.55,0.33,0.48,0.4,0.6,0.48,0.58,0.48,0.42,0.25,0.5,0.58,0.61,0.25,0.58,0.6,0.88,0.48,0.4,0.55,0.6,0.42,0.25,0.42,0.48,0.42,0.56,0.6,0.29,0.33,0.48,0.4,0.6,0.48,0.58,0.48,0.42,0.25,0.25,0.61,0.58,0.48,0.25" y="422.7" x="107.1,113.0,118.5,123.1,125.5,128.6,133.2,137.9,140.4,143.5,147.2,151.8,156.3,158.8,163.3,167.3,171.4,175.9,181.5,184.6,187.3,192.1,194.9,197.3,202.4,205.2,208.0,210.4,214.7,219.8,225.3,228.4,233.2,235.9,241.5,246.0,251.9,254.3,259.6,264.8,267.9,273.4,275.8,278.6,281.3,286.6,292.2,295.3,297.7,306.1,311.3,316.9,322.0,325.2,329.7,333.4,339.1,343.7,349.2,353.8,357.8,360.3,365.0,370.5,376.4,378.8,384.3,390.0,398.4,402.9,406.7,411.9,417.6,421.7,424.1,428.2,432.7,436.7,442.1,447.8,450.6,453.7,458.2,462.0,467.7,472.3,477.8,482.4,486.4,488.8,491.2,497.1,502.5,507.2" style="fill:rgb(0,0,0);font-family:PalatinoLinotype;font-size:9.5px;stroke:none;" xmlns:svgx="http://www.xml-cml.org/schema/svgx">The tea tree essential oil contained both light monoterpenes and numerous sesquiterpenes. The </text>
  <text svgx:width="0.88,0.5,0.29,0.58,0.25,0.44,0.55,0.88,0.6,0.55,0.6,0.58,0.61,0.25,0.29,0.42,0.25,0.5,0.33,0.33,0.48,0.4,0.6,0.29,0.58,0.48,0.55,0.29,0.25,0.25,0.33,0.55,0.29,0.29,0.55,0.83,0.48,0.61,0.25,0.55,0.56,0.25,0.59,0.33,0.33,0.48,0.4,0.6,0.29,0.58,0.48,0.58,0.48,0.25,0.25,0.5,0.33,0.44,0.5,0.4,0.48,0.58,0.48,0.25,0.25,0.64,0.33,0.33,0.48,0.4,0.6,0.29,0.58,0.48,0.55,0.29,0.25,0.25,0.64,0.33,0.33,0.48,0.4,0.6,0.29,0.58,0.48,0.58,0.48,0.25,0.25,0.64,0.33,0.6,0.29,0.58,0.48,0.58,0.48,0.25,0.25" y="435.5" x="86.9,95.2,99.9,102.5,108.0,110.8,114.9,120.0,128.3,133.9,139.0,144.7,150.1,155.8,158.7,161.4,165.3,168.1,172.8,175.8,178.8,183.2,186.9,192.5,195.2,200.6,205.0,210.1,212.8,215.1,217.9,221.0,226.0,228.7,231.4,236.4,244.3,248.7,254.4,257.3,262.4,267.6,270.5,276.0,279.1,282.1,286.5,290.2,295.8,298.5,303.9,308.4,313.9,318.3,320.6,323.4,328.1,331.1,335.2,339.9,343.6,348.0,353.4,357.9,360.2,363.0,369.0,372.0,375.0,379.4,383.1,388.7,391.4,396.8,401.2,406.3,409.0,411.3,414.1,420.1,423.2,426.2,430.6,434.3,439.9,442.6,448.0,452.5,457.9,462.4,464.6,467.5,473.5,476.5,482.1,484.8,490.3,494.7,500.2,504.6,507.1" style="fill:rgb(0,0,0);font-family:PalatinoLinotype;font-size:9.5px;stroke:none;" xmlns:svgx="http://www.xml-cml.org/schema/svgx">main compound is 4-terpineol, followed by γ-terpinene, 2-carene, α-terpineol, α-terpinene, α-pinene, </text>
  <text svgx:width="0.55,0.33,0.44,0.56,0.88,0.48,0.58,0.48,0.25,0.25,0.55,0.29,0.29,0.88,0.55,0.58,0.48,0.58,0.48,0.25,0.25,0.55,0.58,0.33,0.44,0.5,0.4,0.56,0.55,0.6,0.58,0.56,0.29,0.29,0.48,0.58,0.48,0.25,0.25,0.55,0.48,0.6,0.44,0.5,0.29,0.56,0.6,0.33,0.55,0.29,0.25,0.25,0.55,0.5,0.58,0.61,0.25,0.55,0.58,0.33,0.88,0.56,0.4,0.44,0.48,0.58,0.48,1.0,0.56,0.29,0.56,0.6,0.4,0.48,0.25,0.55,0.5,0.25,0.25,0.55,0.52,0.33,0.5,0.58,0.61,0.5,0.4,0.61,0.42,0.25,0.55,0.5,0.42,0.56,0.25,0.55,0.33,0.55,0.4,0.25" y="448.4" x="86.9,92.1,95.3,99.5,104.8,113.2,117.8,123.3,127.9,130.3,132.6,135.0,137.8,140.5,148.9,154.1,159.7,164.2,169.8,174.3,176.7,179.1,181.4,187.0,190.1,194.3,199.1,202.8,208.1,213.3,219.1,224.6,229.8,232.6,235.4,240.0,245.4,250.0,252.3,254.7,257.1,261.7,267.4,271.7,276.4,279.2,284.5,290.2,293.3,298.5,301.2,303.6,306.0,308.3,313.1,318.6,324.4,326.8,329.2,334.8,337.9,346.4,351.6,355.4,359.6,364.1,369.6,374.2,383.7,389.0,391.8,397.1,402.8,406.6,411.1,413.5,415.9,420.6,423.0,425.4,427.8,432.8,435.9,440.7,446.2,452.0,456.8,460.5,466.3,470.3,472.7,475.6,480.3,484.4,489.6,492.0,494.9,498.1,503.3,507.0" style="fill:rgb(0,0,0);font-family:PalatinoLinotype;font-size:9.5px;stroke:none;" xmlns:svgx="http://www.xml-cml.org/schema/svgx">o-cymene, limonene, β-caryophyllene, eucalyptol, and β-myrcene—Figure 4. Standards ask for </text>
  <text svgx:width="0.64,0.33,0.33,0.48,0.4,0.6,0.29,0.58,0.48,0.58,0.48,0.25,0.33,0.5,0.84,0.5,0.5,0.5,0.84,0.33,0.25,0.25,0.83,0.58,0.29,0.44,0.58,0.25,0.83,0.5,0.42,0.25,0.58,0.55,0.33,0.25,0.33,0.55,0.6,0.58,0.61,0.25,0.29,0.58,0.25,0.55,0.6,0.4,0.25,0.33,0.48,0.48,0.25,0.33,0.4,0.48,0.48,0.25,0.42,0.5,0.88,0.6,0.29,0.48,0.25,0.25,0.29,0.58,0.42,0.33,0.48,0.5,0.61,0.25,0.5,0.33,0.44,0.5,0.4,0.48,0.58,0.48,0.25,0.83,0.5,0.42,0.25,0.33,0.55,0.6,0.58,0.61,0.25,0.29,0.58,0.25" y="461.1" x="86.9,93.0,96.2,99.3,103.8,107.6,113.3,116.1,121.6,126.2,131.6,136.2,139.3,142.4,147.2,155.2,159.9,164.7,169.4,177.4,180.6,183.0,186.0,194.0,199.4,202.2,206.4,211.9,215.0,223.0,227.7,231.7,234.8,240.3,245.5,248.6,251.7,254.8,260.0,265.7,271.3,277.1,280.1,282.9,288.4,291.5,296.7,302.4,306.1,309.2,312.3,316.9,321.5,324.5,327.6,331.4,336.0,340.5,343.6,347.6,352.4,360.8,366.5,369.3,373.8,376.2,379.3,382.1,387.5,391.6,394.7,399.2,404.0,409.7,412.3,417.1,420.2,424.4,429.2,432.9,437.5,443.0,447.6,450.7,458.5,463.3,467.3,470.4,473.5,478.7,484.4,489.9,495.8,498.8,501.6,507.1" style="fill:rgb(0,0,0);font-family:PalatinoLinotype;font-size:9.5px;stroke:none;" xmlns:svgx="http://www.xml-cml.org/schema/svgx">α-terpinene (5%–13%), which was not found in our tee tree sample, instead 2-carene was found in </text>
  <text svgx:width="0.58,0.29,0.56,0.58,0.25,0.5,0.88,0.55,0.6,0.58,0.33,0.42,0.25,0.55,0.33,0.25,0.5,0.55,0.55,0.6,0.33,0.25,0.5,0.5,0.84,0.25,0.25,0.78,0.4,0.55,0.88,0.5,0.61,0.48,0.58,0.61,0.4,0.48,0.58,0.48,0.25,0.5,0.58,0.61,0.25,0.52,0.33,0.44,0.5,0.61,0.29,0.58,0.48,0.58,0.48,0.25,0.25,0.88,0.48,0.58,0.33,0.29,0.55,0.58,0.48,0.61,0.25,0.55,0.56,0.25,0.42,0.33,0.5,0.58,0.61,0.5,0.4,0.61,0.42,0.25,0.29,0.58,0.25,0.5,0.88,0.55,0.6,0.58,0.33,0.42,0.25" y="473.9" x="86.9,92.5,95.3,100.6,106.1,109.1,113.9,122.3,127.4,133.2,138.7,141.8,145.8,148.9,154.1,157.2,160.3,165.0,170.3,175.4,181.2,184.2,187.2,192.0,196.7,204.7,207.1,209.6,217.0,220.8,226.0,234.3,239.1,244.9,249.4,254.9,260.7,264.5,269.1,274.6,279.2,282.2,287.0,292.4,298.3,301.3,306.2,309.4,313.6,318.3,324.2,326.9,332.4,337.0,342.5,347.1,349.4,352.5,360.9,365.4,370.9,374.0,376.8,382.0,387.5,392.1,397.9,400.9,406.2,411.5,414.5,418.5,421.5,426.3,431.9,437.6,442.4,446.2,452.0,456.0,459.0,461.8,467.3,470.3,475.0,483.4,488.6,494.4,499.9,503.0,507.0" style="fill:rgb(0,0,0);font-family:PalatinoLinotype;font-size:9.5px;stroke:none;" xmlns:svgx="http://www.xml-cml.org/schema/svgx">high amounts of about 10%. Aromadendrene and δ-cadinene, mentioned by standards in amounts </text>
  <text svgx:width="0.56,0.5,0.4,0.56,0.29,0.58,0.56,0.25,0.33,0.4,0.55,0.88,0.25,0.33,0.4,0.5,0.44,0.48,0.42,0.25,0.6,0.6,0.25,0.33,0.55,0.25,0.5,0.84,0.5,0.5,0.84,0.25,0.83,0.48,0.4,0.48,0.25,0.44,0.55,0.58,0.33,0.29,0.4,0.88,0.48,0.61,0.25,0.29,0.58,0.25,0.33,0.58,0.48,0.25,0.42,0.33,0.6,0.61,0.29,0.48,0.61,0.25,0.42,0.5,0.88,0.6,0.29,0.48,0.25,0.25" y="486.8" x="86.9,92.3,97.1,100.9,106.2,108.9,114.4,119.7,122.0,125.2,129.0,134.2,142.6,144.9,148.0,151.8,156.5,160.8,165.3,169.4,171.7,177.5,183.2,185.6,188.7,193.9,196.2,200.9,208.9,213.7,218.4,226.4,228.8,236.7,241.3,245.0,249.5,251.9,256.1,261.3,266.8,270.0,272.8,276.5,285.0,289.5,295.3,297.7,300.5,305.9,308.3,311.4,316.9,321.5,323.9,327.9,331.0,336.8,342.5,345.3,349.9,355.7,358.0,362.1,366.8,375.2,380.9,383.7,388.3,390.6" style="fill:rgb(0,0,0);font-family:PalatinoLinotype;font-size:9.5px;stroke:none;" xmlns:svgx="http://www.xml-cml.org/schema/svgx">varying from traces up to 7%–8% were confirmed in the studied sample. </text>
  <text svgx:width="0.56,0.33,0.56,0.61,0.39,0.5,0.25,0.5,0.25" y="763.3" x="157.1,161.9,164.7,169.5,174.7,178.0,182.3,184.5,188.8" style="fill:rgb(0,0,0);font-family:PalatinoLinotype,Bold;font-size:8.6px;stroke:none;" xmlns:svgx="http://www.xml-cml.org/schema/svgx">Figure 4.</text>
  <text svgx:width="0.25,0.61,0.58,0.48,0.25,0.76,0.71,0.33,0.95,0.52,0.77,0.25,0.5,0.58,0.61,0.25,0.76,0.71,0.33,0.56,0.34,0.77,0.25,0.33,0.29,0.58,0.42,0.48,0.4,0.33,0.33,0.25,0.44,0.58,0.4,0.55,0.88,0.5,0.33,0.55,0.56,0.4,0.5,0.88,0.42,0.25,0.55,0.33,0.25,0.33,0.48,0.5,0.25,0.33,0.4,0.48,0.48,0.25,0.55,0.29,0.29,0.25,0.25" y="763.3" x="190.9,193.0,198.3,203.2,207.3,209.5,216.0,222.0,224.9,233.0,237.5,244.1,246.3,250.5,255.5,260.8,262.9,269.4,275.5,278.3,283.1,285.9,292.6,294.7,297.6,300.1,305.1,308.7,312.8,316.2,319.0,321.8,323.8,327.6,332.6,336.0,340.7,348.2,352.5,355.3,360.0,364.7,368.1,372.4,379.9,383.6,385.7,390.4,393.2,395.4,398.2,402.3,406.5,408.7,411.5,414.9,419.0,423.0,425.2,429.8,432.3,434.8,436.9" style="fill:rgb(0,0,0);font-family:PalatinoLinotype;font-size:8.6px;stroke:none;" xmlns:svgx="http://www.xml-cml.org/schema/svgx"> The GC-MSD and GC-FID (insert) chromatograms of tea tree oil. </text>
  <text class="image" id="image.5.4" width="346" height="253" y="87.4" x="123.8" style="font-size:8.0px;">image.5.4.124_470.87_341</text>
  <text class="image" id="image.5.5" width="338" height="246" y="459.1" x="127.8" style="font-size:8.0px;">image.5.5.128_466.459_706</text>
  <text class="image" id="image.5.6" width="11" height="16" y="698.0" x="458.4" style="font-size:8.0px;">image.5.6.458_470.698_714</text>
  <text svgx:width="0.56,0.33,0.56,0.61,0.39,0.5,0.55,0.5,0.25" y="765.4" x="150.9,155.8,158.8,163.8,169.3,172.8,177.3,179.5,184.0" style="fill:rgb(0,0,0);font-family:URWPalladioL-Bold;font-size:9.0px;stroke:none;" xmlns:svgx="http://www.xml-cml.org/schema/svgx">Figure 4.</text>
  <text svgx:width="0.61,0.58,0.48,0.55,0.76,0.71,0.33,0.95,0.52,0.77,0.55,0.5,0.58,0.61,0.55,0.76,0.71,0.33,0.56,0.34,0.77,0.55,0.33,0.29,0.58,0.42,0.48,0.4,0.33,0.33,0.55,0.44,0.58,0.4,0.55,0.88,0.5,0.33,0.55,0.56,0.4,0.5,0.88,0.42,0.55,0.55,0.33,0.55,0.33,0.48,0.5,0.55,0.33,0.4,0.48,0.48,0.55,0.55,0.29,0.29,0.25" y="765.4" x="189.0,194.5,199.7,204.0,206.3,213.1,219.5,222.4,230.9,235.6,242.5,244.8,249.3,254.5,260.0,262.2,269.1,275.4,278.4,283.4,286.4,293.3,295.6,298.6,301.2,306.4,310.2,314.5,318.1,321.0,323.9,326.2,330.2,335.4,338.8,343.7,351.6,356.1,359.0,363.9,368.9,372.4,376.9,384.8,388.6,390.9,395.8,398.7,401.0,403.9,408.2,412.7,414.9,417.9,421.2,425.5,429.8,432.1,437.0,439.6,442.2" style="fill:rgb(0,0,0);font-family:URWPalladioL-Roma;font-size:9.0px;stroke:none;" xmlns:svgx="http://www.xml-cml.org/schema/svgx">The GC-MSD and GC-FID (insert) chromatograms of tea tree oil.</text>
 </g>
</svg>
