<?xml version="1.0" encoding="UTF-8"?>
<svg height="824.92" width="553.6" xmlns="http://www.w3.org/2000/svg">
 <g id="page" xmlns:svgx="http://www.xml-cml.org/schema/svgx">
  <g begin="text">
   <text y="19.44" x="26.4" svgx:width="0.25" style="fill:rgb(0,0,0);font-family:Times New Roman;font-size:11.04px;stroke:none;"> </text>
  </g>
  <g begin="text">
   <text y="783.456" x="520.92" svgx:width="0.47" style="fill:rgb(5,74,19);font-family:Calibri,Bold;font-size:8.04px;stroke:none;">|</text>
  </g>
  <g begin="text">
   <text y="783.456" x="524.76,526.8" svgx:width="0.25,0.25" style="fill:rgb(5,74,19);font-family:Times New Roman,Bold;font-size:8.04px;stroke:none;"> </text>
  </g>
  <g begin="text">
   <text y="783.456" x="528.84,532.916,536.88" svgx:width="0.51,0.51,0.51" style="fill:rgb(5,74,19);font-family:Calibri;font-size:8.04px;stroke:none;">113</text>
  </g>
  <g begin="text">
   <text y="783.456" x="540.84" svgx:width="0.25" style="fill:rgb(5,74,19);font-family:Times New Roman;font-size:11.04px;stroke:none;"> </text>
  </g>
  <path style="fill:none;stroke:rgb(0,0,0);stroke-width:1.0;" d="M51.840 68.640 L539.790 68.640 "/>
  <g begin="text">
   <text y="63.24" x="55.224,59.662,63.143,66.271,69.841,76.096,79.585,81.619,85.213,89.281,93.35,95.384,99.348,101.51,103.786,107.749,111.231,113.265,117.228,119.504,121.667,124.794,126.804,130.896,133.059,136.541,140.609,144.677,148.158,152.227,154.261,159.897,162.172,164.447,168.516,170.55,172.713,174.988,179.056,182.184,185.657,189.138,193.207,195.241,199.204,201.48" svgx:width="0.56,0.44,0.39,0.44,0.78,0.44,0.25,0.44,0.5,0.5,0.25,0.5,0.28,0.28,0.5,0.44,0.25,0.5,0.28,0.28,0.39,0.25,0.5,0.28,0.44,0.5,0.5,0.44,0.5,0.25,0.72,0.28,0.28,0.5,0.25,0.28,0.28,0.5,0.39,0.44,0.44,0.5,0.25,0.5,0.28,0.28" style="fill:rgb(5,74,19);font-family:Times New Roman;font-size:8.04px;stroke:none;">Sesame and olive oils blended with linseed oil</text>
  </g>
  <g begin="text">
   <text y="63.24" x="203.81" svgx:width="0.25" style="fill:rgb(5,74,19);font-family:Times New Roman;font-size:8.04px;stroke:none;"> </text>
  </g>
  <g begin="text">
   <text y="784.776" x="336.31,341.222,345.419,349.142,353.339,357.536,360.888,364.836,369.049,370.866,375.159,379.356,383.553,386.423,392.887,396.98,400.332,404.28,408.493,411.251,413.172,416.525,420.722,422.643,424.461,428.995,433.192,435.114,437.035,440.983,443.773,445.678,449.875" svgx:width="0.61,0.53,0.47,0.53,0.53,0.41,0.49,0.53,0.23,0.53,0.53,0.53,0.35,0.8,0.53,0.41,0.49,0.53,0.35,0.25,0.41,0.53,0.25,0.23,0.56,0.53,0.25,0.25,0.49,0.35,0.25,0.53,0.26" style="fill:rgb(5,74,19);font-family:Calibri,BoldItalic;font-size:8.04px;stroke:none;">Advanced Pharmaceutical Bulletin,</text>
  </g>
  <g begin="text">
   <text y="784.776" x="452.02" svgx:width="0.23" style="fill:rgb(5,74,19);font-family:Calibri;font-size:8.04px;stroke:none;"> </text>
  </g>
  <g begin="text">
   <text y="784.776" x="453.82,457.896,461.973,466.049,470.125,472.175" svgx:width="0.51,0.51,0.51,0.51,0.25,0.23" style="fill:rgb(5,74,19);font-family:Calibri;font-size:8.04px;stroke:none;">2018, </text>
  </g>
  <g begin="text">
   <text y="784.776" x="473.98,478.056,480.46,484.537,486.941,488.975,490.792,494.731,498.808" svgx:width="0.51,0.3,0.51,0.3,0.25,0.23,0.51,0.51,0.51" style="fill:rgb(5,74,19);font-family:Calibri;font-size:8.04px;stroke:none;">8(1), 107</text>
  </g>
  <g begin="text">
   <text y="784.776" x="502.92" svgx:width="0.31" style="fill:rgb(5,74,19);font-family:Calibri;font-size:8.04px;stroke:none;">-</text>
  </g>
  <g begin="text">
   <text y="784.776" x="505.32,509.4,513.48" svgx:width="0.51,0.51,0.51" style="fill:rgb(5,74,19);font-family:Calibri;font-size:8.04px;stroke:none;">113</text>
  </g>
  <g begin="text">
   <text y="784.776" x="517.44" svgx:width="0.23" style="fill:rgb(5,74,19);font-family:Calibri;font-size:11.04px;stroke:none;"> </text>
  </g>
  <g begin="text">
   <text y="814.92" x="299.59" svgx:width="0.25" style="fill:rgb(0,0,0);font-family:Times New Roman;font-size:11.04px;stroke:none;"> </text>
  </g>
  <path style="fill:none;stroke:rgb(5,74,19);stroke-width:0.72;" d="M52.560 769.440 L542.410 769.440 "/>
  <path style="fill:none;stroke:rgb(5,74,19);stroke-width:0.72;" d="M51.960 68.520 L542.460 68.520 "/>
  <g begin="text">
   <text y="86.04" x="54.72" svgx:width="0.5" style="fill:rgb(0,0,0);font-family:Times New Roman;font-size:9.96px;stroke:none;">3</text>
  </g>
  <g begin="text">
   <text y="86.04" x="59.784" svgx:width="0.5" style="fill:rgb(0,0,0);font-family:Times New Roman;font-size:9.96px;stroke:none;">1</text>
  </g>
  <g begin="text">
   <text y="86.04" x="64.824,67.334,69.844,75.382,80.391,83.738,87.583,90.351,94.774,98.13,100.76,106.756,112.752,115.261,117.771,123.309,127.731,131.078,134.424,137.193,141.616,144.972,147.602,153.597,160.789,163.308,165.818,173.01,175.778,179.623,184.045,189.095,196.655,201.077,203.846,207.202,209.971,214.393,217.033,221.455,226.395,230.817,234.184,238.606,243.058,245.827,250.249,253.606,256.375,260.209,262.978,265.747,270.169,274.014,276.643,281.673,284.91" svgx:width="0.25,0.25,0.56,0.5,0.33,0.39,0.28,0.44,0.33,0.25,0.61,0.61,0.25,0.25,0.56,0.44,0.33,0.33,0.28,0.44,0.33,0.25,0.61,0.72,0.25,0.25,0.72,0.28,0.39,0.44,0.5,0.78,0.44,0.28,0.33,0.28,0.44,0.25,0.44,0.5,0.44,0.33,0.44,0.44,0.28,0.44,0.33,0.28,0.39,0.28,0.28,0.44,0.39,0.25,0.5,0.33,0.25" style="fill:rgb(0,0,0);font-family:Times New Roman;font-size:9.96px;stroke:none;">. Forster LL, Ferrier LK. Viscometric characteristics of </text>
  </g>
  <g begin="text">
   <text y="97.58" x="72.744,79.706,84.626,89.656,92.425,96.847,99.965,103.809,108.839,113.64,118.67,123.092,127.544,132.464,135.572,143.131,145.9,148.669,153.569,156.079" svgx:width="0.72,0.5,0.5,0.28,0.44,0.25,0.39,0.5,0.5,0.5,0.44,0.44,0.5,0.25,0.78,0.28,0.28,0.5,0.25,0.25" style="fill:rgb(0,0,0);font-family:Times New Roman;font-size:9.96px;stroke:none;">whole soybean milk. </text>
  </g>
  <g begin="text">
   <text y="97.58" x="159.26,163.682,166.81,172.915,177.945,182.975,188.005,191.112,196.142,200.564" svgx:width="0.44,0.25,0.61,0.5,0.5,0.5,0.25,0.5,0.44,0.28" style="fill:rgb(0,0,0);font-family:Times New Roman,Italic;font-size:9.96px;stroke:none;">J Food Sci</text>
  </g>
  <g begin="text">
   <text y="97.58" x="203.45" svgx:width="0.25" style="fill:rgb(0,0,0);font-family:Times New Roman;font-size:9.96px;stroke:none;"> </text>
  </g>
  <g begin="text">
   <text y="97.58" x="206.69,211.72,216.75,221.779,226.809,229.578,234.598,239.628,242.974,248.004,251.351,254.12,259.139,264.169" svgx:width="0.5,0.5,0.5,0.5,0.28,0.5,0.5,0.33,0.5,0.33,0.28,0.5,0.5,0.5" style="fill:rgb(0,0,0);font-family:Times New Roman;font-size:9.96px;stroke:none;">1979;44(2):583</text>
  </g>
  <g begin="text">
   <text y="97.58" x="269.33" svgx:width="0.33" style="fill:rgb(0,0,0);font-family:Times New Roman;font-size:9.96px;stroke:none;">-</text>
  </g>
  <g begin="text">
   <text y="97.58" x="272.57,277.6,282.63,285.14" svgx:width="0.5,0.5,0.25,0.25" style="fill:rgb(0,0,0);font-family:Times New Roman;font-size:9.96px;stroke:none;">90. </text>
  </g>
  <g begin="text">
   <text y="109.1" x="72.744,77.774,82.804,85.572,88.341,90.831,95.871,100.901,103.411,108.441,113.47,118.5,123.53,126.299,129.157,131.667,136.697,141.727,146.757" svgx:width="0.5,0.5,0.28,0.28,0.25,0.5,0.5,0.25,0.5,0.5,0.5,0.5,0.28,0.28,0.25,0.5,0.5,0.5,0.5" style="fill:rgb(0,0,0);font-family:Times New Roman;font-size:9.96px;stroke:none;">doi: 10.1111/j.1365</text>
  </g>
  <g begin="text">
   <text y="109.1" x="151.94" svgx:width="0.33" style="fill:rgb(0,0,0);font-family:Times New Roman;font-size:9.96px;stroke:none;">-</text>
  </g>
  <g begin="text">
   <text y="109.1" x="155.18,160.21,165.24,170.269,175.299,177.809,182.839,187.869,192.899,197.928,200.438,203.207,208.227,213.257,218.287,223.316,228.346,233.376,235.886" svgx:width="0.5,0.5,0.5,0.5,0.25,0.5,0.5,0.5,0.5,0.25,0.28,0.5,0.5,0.5,0.5,0.5,0.5,0.25,0.5" style="fill:rgb(0,0,0);font-family:Times New Roman;font-size:9.96px;stroke:none;">2621.1979.tb03841.x</text>
  </g>
  <g begin="text">
   <text y="109.1" x="241.01" svgx:width="0.25" style="fill:rgb(0,0,0);font-family:Times New Roman;font-size:9.96px;stroke:none;"> </text>
  </g>
  <g begin="text">
   <text y="120.62" x="54.72" svgx:width="0.5" style="fill:rgb(0,0,0);font-family:Times New Roman;font-size:9.96px;stroke:none;">3</text>
  </g>
  <g begin="text">
   <text y="120.62" x="59.784" svgx:width="0.5" style="fill:rgb(0,0,0);font-family:Times New Roman;font-size:9.96px;stroke:none;">2</text>
  </g>
  <g begin="text">
   <text y="120.62" x="64.824,67.334,69.615,76.806,79.575,87.134,89.415,93.369,95.879,98.16,105.351,108.12,115.68,117.961,125.152,132.343,134.873,137.154,143.149,147.572,152.024,154.305,159.842,167.034,169.524,171.824,179.015,184.055,189.085,191.366" svgx:width="0.25,0.25,0.72,0.28,0.78,0.25,0.39,0.25,0.25,0.72,0.28,0.78,0.25,0.72,0.72,0.25,0.25,0.61,0.44,0.44,0.25,0.56,0.72,0.25,0.25,0.72,0.5,0.5,0.25,0.56" style="fill:rgb(0,0,0);font-family:Times New Roman;font-size:9.96px;stroke:none;">. Kim J, Kim DN, Lee SH, Yoo S</text>
  </g>
  <g begin="text">
   <text y="120.62" x="196.97" svgx:width="0.33" style="fill:rgb(0,0,0);font-family:Times New Roman;font-size:9.96px;stroke:none;">-</text>
  </g>
  <g begin="text">
   <text y="120.62" x="200.21,207.401,209.921,212.202,218.198,222.62,227.072,229.353,234.891,237.381,239.672,246.275,251.305,254.651,257.998,262.42,265.189,269.611,272.38,275.149,280.189" svgx:width="0.72,0.25,0.25,0.61,0.44,0.44,0.25,0.56,0.25,0.25,0.67,0.5,0.33,0.33,0.44,0.28,0.44,0.28,0.28,0.5,0.5" style="fill:rgb(0,0,0);font-family:Times New Roman;font-size:9.96px;stroke:none;">H, Lee S. Correlation</text>
  </g>
  <g begin="text">
   <text y="120.62" x="285.19" svgx:width="0.25" style="fill:rgb(0,0,0);font-family:Times New Roman;font-size:9.96px;stroke:none;"> </text>
  </g>
  <g begin="text">
   <text y="132.02" x="72.744,77.774,81.011,83.50099999999999,86.997,90.234,94.656,97.425,100.194,104.994,107.484,110.98,115.403,119.855,122.624,127.644,130.13400000000001,133.63,138.052,143.101,150.661,155.691,160.721,164.565,167.334,170.103,172.872,177.872,182.792,185.282,188.778,193.808,197.045,199.535,203.031,207.951,212.373,217.313,221.736,224.505,228.927,233.986,236.755,241.178,243.668,247.173,252.203,254.972,257.741,261.566,264.056,267.552,274.514,277.283,280.051,284.952" svgx:width="0.5,0.33,0.25,0.55,0.33,0.44,0.28,0.28,0.5,0.25,0.55,0.44,0.44,0.28,0.5,0.25,0.55,0.44,0.5,0.78,0.5,0.5,0.39,0.28,0.28,0.28,0.5,0.5,0.25,0.55,0.5,0.33,0.25,0.55,0.5,0.44,0.5,0.44,0.28,0.44,0.5,0.28,0.44,0.25,0.55,0.5,0.28,0.28,0.39,0.25,0.55,0.72,0.28,0.28,0.5,0.25" style="fill:rgb(0,0,0);font-family:Times New Roman;font-size:9.96px;stroke:none;">of fatty acid composition of vegetable oils with </text>
  </g>
  <g begin="text">
   <text y="86.04" x="328.27,331.617,336.537,340.959,346.009,348.778,353.798,358.718,361.487,365.909,370.331,373.1,375.59000000000003,377.911,382.941,387.363,392.303,396.725,401.665,404.434,409.454,414.374,417.721,420.211,422.631,427.053,431.994,437.023,439.51300000000003,441.814,446.844,449.613,452.382,454.872,457.272,462.192,467.222,469.991,474.413,479.344,483.766,486.296" svgx:width="0.33,0.5,0.44,0.5,0.28,0.5,0.5,0.28,0.44,0.44,0.28,0.25,0.55,0.5,0.44,0.5,0.44,0.5,0.28,0.5,0.5,0.33,0.25,0.55,0.44,0.5,0.5,0.25,0.55,0.5,0.28,0.28,0.25,0.55,0.5,0.5,0.28,0.44,0.5,0.44,0.25,0.25" style="fill:rgb(0,0,0);font-family:Times New Roman;font-size:9.96px;stroke:none;">rheological behaviour and oil uptake. </text>
  </g>
  <g begin="text">
   <text y="86.04" x="491.26,497.366,502.395,507.425,512.455,514.945,517.365,523.969,528.998,533.421" svgx:width="0.61,0.5,0.5,0.5,0.25,0.55,0.67,0.5,0.44,0.72" style="fill:rgb(0,0,0);font-family:Times New Roman,Italic;font-size:9.96px;stroke:none;">Food Chem</text>
  </g>
  <g begin="text">
   <text y="86.04" x="540.72" svgx:width="0.25" style="fill:rgb(0,0,0);font-family:Times New Roman;font-size:9.96px;stroke:none;"> </text>
  </g>
  <g begin="text">
   <text y="97.58" x="328.27,333.3,338.33,343.359,348.389,351.158,356.178,361.208,366.238,369.584,374.614,377.961,380.729,385.749,390.779" svgx:width="0.5,0.5,0.5,0.5,0.28,0.5,0.5,0.5,0.33,0.5,0.33,0.28,0.5,0.5,0.5" style="fill:rgb(0,0,0);font-family:Times New Roman;font-size:9.96px;stroke:none;">2010;118(2):398</text>
  </g>
  <g begin="text">
   <text y="97.58" x="395.98" svgx:width="0.33" style="fill:rgb(0,0,0);font-family:Times New Roman;font-size:9.96px;stroke:none;">-</text>
  </g>
  <g begin="text">
   <text y="97.58" x="399.22,404.25,409.28,414.309,416.819,419.309,525.075,530.104,535.134,537.903,540.672" svgx:width="0.5,0.5,0.5,0.25,0.25,0.55,0.5,0.5,0.28,0.28,0.25" style="fill:rgb(0,0,0);font-family:Times New Roman;font-size:9.96px;stroke:none;">402. doi: </text>
  </g>
  <g begin="text">
   <text y="109.1" x="328.27,333.3,338.33,340.84,345.869,350.899,355.929,360.959,363.728,366.586,369.096,372.333,377.363,382.393,387.423,391.845,396.785,401.207,408.787,411.297,416.327,421.356,426.386,431.416,433.926,438.956,443.986,446.495,451.525,456.555" svgx:width="0.5,0.5,0.25,0.5,0.5,0.5,0.5,0.28,0.28,0.25,0.33,0.5,0.5,0.5,0.44,0.5,0.44,0.78,0.25,0.5,0.5,0.5,0.5,0.25,0.5,0.5,0.25,0.5,0.5,0.5" style="fill:rgb(0,0,0);font-family:Times New Roman;font-size:9.96px;stroke:none;">10.1016/j.foodchem.2009.05.011</text>
  </g>
  <g begin="text">
   <text y="109.1" x="461.86" svgx:width="0.25" style="fill:rgb(0,0,0);font-family:Times New Roman;font-size:9.96px;stroke:none;"> </text>
  </g>
  <g begin="text">
   <text y="143.54" x="54.72" svgx:width="0.25" style="fill:rgb(0,0,0);font-family:Times New Roman;font-size:9.96px;stroke:none;"> </text>
  </g>
 </g>
</svg>
