<?xml version="1.0" encoding="UTF-8"?>
<svg height="764.097" width="530.533" xmlns="http://www.w3.org/2000/svg">
 <g id="page" xmlns:svgx="http://www.xml-cml.org/schema/svgx">
  <g begin="text">
   <text y="62.979" x="76.535,79.189,83.62,86.274,88.26650000000001,90.738,93.392,95.3845,97.377,104.901,108.439,110.655,112.64750000000001,115.118,119.55,122.793,125.009" svgx:width="0.33,0.56,0.33,0.25,0.55,0.33,0.25,0.55,0.94,0.44,0.28,0.25,0.55,0.56,0.41,0.28,0.25" style="fill:rgb(0,0,0);font-family:URWPalladioL-Ital;font-size:7.97px;stroke:none;">Int. J. Mol. Sci.</text>
   <text y="62.979" x="131.943,135.928,139.913,143.898" svgx:width="0.5,0.5,0.5,0.5" style="fill:rgb(0,0,0);font-family:URWPalladioL-Bold;font-size:7.97px;stroke:none;">2018</text>
   <text y="62.979" x="147.883" svgx:width="0.25" style="fill:rgb(0,0,0);font-family:URWPalladioL-Roma;font-size:7.97px;stroke:none;">,</text>
   <text y="62.979" x="151.868,155.853" svgx:width="0.5,0.5" style="fill:rgb(0,0,0);font-family:URWPalladioL-Ital;font-size:7.97px;stroke:none;">19</text>
   <text y="62.979" x="159.838,161.8305,163.823,167.808,171.793,175.77800000000002,495.794,499.779,501.772,506.123,508.7531,510.77,514.755" svgx:width="0.25,0.55,0.5,0.5,0.5,0.55,0.5,0.55,0.55,0.33,0.55,0.5,0.5" style="fill:rgb(0,0,0);font-family:URWPalladioL-Roma;font-size:7.97px;stroke:none;">, 610 8 of 14</text>
   <text y="97.848" x="76.535,81.516,84.006,87.095,95.394,98.712,103.135,107.559,113.646,118.069,122.492,125.81,131.349" svgx:width="0.5,0.25,0.55,0.83,0.33,0.44,0.44,0.61,0.44,0.44,0.33,0.56,0.61" style="fill:rgb(0,0,0);font-family:URWPalladioL-Bold;font-size:9.96px;stroke:none;">3. Discussion</text>
   <text y="117.335" x="97.795,104.024,109.938,114.7188,118.871,122.712,127.579,131.888,138.016,140.973,144.285,148.4682,152.659,158.207,161.4938,165.656,168.969,174.883,177.84,182.0232,186.223,190.532,193.835,199.962,206.171,211.74859999999998,215.896,220.205,226.119,231.667,240.142,245.01,251.0856,255.283,258.596,264.51,269.591,272.87780000000004,276.969,284.875,288.716,294.366,299.447,305.2238,309.426,314.974,317.931,320.8194,324.953,330.034,335.948" svgx:width="0.61,0.58,0.48,0.55,0.4,0.48,0.42,0.6,0.29,0.33,0.42,0.55,0.55,0.33,0.55,0.33,0.58,0.29,0.42,0.55,0.42,0.33,0.6,0.61,0.56,0.55,0.42,0.58,0.55,0.83,0.48,0.61,0.55,0.33,0.58,0.5,0.33,0.55,0.78,0.4,0.56,0.5,0.58,0.55,0.55,0.29,0.29,0.55,0.5,0.58,0.61" style="fill:rgb(0,0,0);font-family:URWPalladioL-Roma;font-size:9.96px;stroke:none;">The results of this study showed that Argan oil and</text>
   <text y="117.335" x="346.228,351.878,356.959,361.471,366.552,371.633,374.458,380.108,387.8768,392.078,396.59,400.37,404.882,412.788,417.3,420.684,423.509,427.645,433.295" svgx:width="0.56,0.5,0.44,0.5,0.5,0.28,0.56,0.78,0.55,0.44,0.39,0.44,0.78,0.44,0.33,0.28,0.41,0.56,0.78" style="fill:rgb(0,0,0);font-family:URWPalladioL-Ital;font-size:9.96px;stroke:none;">Syzygium aromaticum</text>
   <text y="117.335" x="445.265,450.133,454.441,458.75,463.617,469.531,472.844,475.801,480.882,483.7704,487.904,493.452,496.41,499.2984,503.442,509.346,514.427" svgx:width="0.48,0.42,0.42,0.48,0.58,0.33,0.29,0.5,0.29,0.55,0.55,0.29,0.29,0.55,0.58,0.5,0.42" style="fill:rgb(0,0,0);font-family:URWPalladioL-Roma;font-size:9.96px;stroke:none;">essential oil has</text>
   <text y="130.845" x="76.535,81.515,85.152,91.26,95.091,100.639,103.952,108.819,113.331,116.644,119.601,125.342,130.1228,133.746,138.614,141.825,145.199,150.066,154.578,157.8648,161.427,166.975,172.7518,176.426" svgx:width="0.5,0.55,0.6,0.4,0.55,0.33,0.48,0.44,0.33,0.29,0.56,0.48,0.55,0.48,0.33,0.33,0.48,0.44,0.33,0.55,0.55,0.58,0.55,0.83" style="fill:rgb(0,0,0);font-family:URWPalladioL-Roma;font-size:9.96px;stroke:none;">a protective effect on H</text>
   <text y="132.665" x="184.885" svgx:width="0.5" style="fill:rgb(0,0,0);font-family:URWPalladioL-Roma;font-size:7.57px;stroke:none;">2</text>
   <text y="130.845" x="189.169" svgx:width="0.79" style="fill:rgb(0,0,0);font-family:URWPalladioL-Roma;font-size:9.96px;stroke:none;">O</text>
   <text y="132.665" x="197.156" svgx:width="0.5" style="fill:rgb(0,0,0);font-family:URWPalladioL-Roma;font-size:7.57px;stroke:none;">2</text>
   <text y="130.845" x="201.44,204.824,207.781,213.695,219.904,226.032,230.544,235.411,241.4866,245.156,250.776,253.733,259.281,263.793,269.707,274.575,283.548,286.505,291.017,296.098,298.9864,302.591,307.103,313.017,318.098,324.012,329.662,334.53,338.7132,342.375,347.456,353.37,359.4456,363.115,369.029,371.986,376.295,379.608,385.156,391.263,396.344,399.657,405.571,411.12,414.077,419.625,425.275,428.232,432.744,437.825,440.7134,444.318,447.275,453.19,455.567,461.695,465.709,471.2866,474.895,477.852,483.62879999999996,487.303,492.953,495.91,502.119,508.033,512.901,517.443" svgx:width="0.33,0.29,0.58,0.61,0.6,0.44,0.48,0.61,0.55,0.55,0.29,0.55,0.44,0.58,0.48,0.88,0.29,0.44,0.5,0.29,0.55,0.44,0.58,0.5,0.58,0.56,0.48,0.42,0.55,0.5,0.58,0.61,0.55,0.58,0.29,0.42,0.33,0.55,0.6,0.5,0.33,0.58,0.55,0.29,0.55,0.56,0.29,0.44,0.5,0.29,0.55,0.29,0.58,0.23,0.6,0.4,0.56,0.55,0.29,0.58,0.55,0.56,0.29,0.61,0.58,0.48,0.56,0.25" style="fill:rgb(0,0,0);font-family:URWPalladioL-Roma;font-size:9.96px;stroke:none;">-induced biochemical changes and histopathological injury in kidney,</text>
   <text y="144.354" x="76.535,79.405,82.275,87.848,92.572,96.556,98.944,103.875,109.615,115.69059999999999,118.117,123.572,127.467,132.399,135.269,141.009,143.499,146.562,152.608,158.348,163.1288,165.548,169.267,173.991,178.173,184.12,186.99,190.206,194.3892,196.863,202.89,207.614,216.323,221.708,227.448,231.63,234.846,238.741,243.673,246.888,251.613,257.6886,260.115,263.33,269.07,274.002" svgx:width="0.29,0.29,0.56,0.48,0.4,0.55,0.5,0.58,0.61,0.55,0.55,0.4,0.5,0.29,0.58,0.25,0.55,0.61,0.58,0.48,0.55,0.4,0.48,0.42,0.6,0.29,0.33,0.42,0.55,0.61,0.48,0.88,0.55,0.58,0.42,0.33,0.4,0.5,0.33,0.48,0.61,0.55,0.33,0.58,0.5,0.33" style="fill:rgb(0,0,0);font-family:URWPalladioL-Roma;font-size:9.96px;stroke:none;">liver and brain. The results demonstrated that</text>
   <text y="144.354" x="279.691,285.175,290.106,294.485,299.417,304.348,307.09,312.574,320.3428,322.723,327.102,330.762,335.141,342.814,347.193,350.478,353.22,357.234,362.718" svgx:width="0.56,0.5,0.44,0.5,0.5,0.28,0.56,0.78,0.55,0.44,0.39,0.44,0.78,0.44,0.33,0.28,0.41,0.56,0.78" style="fill:rgb(0,0,0);font-family:URWPalladioL-Ital;font-size:9.96px;stroke:none;">Syzygium aromaticum</text>
   <text y="144.354" x="372.866,377.59,381.772,385.954,390.679,396.419,399.634,402.504,407.436,410.32439999999997,412.781,418.167,421.037,423.92539999999997,426.383,432.123,437.054,441.2372,443.712,452.421,457.806,461.524,466.3048,468.724,473.656,479.396,482.611,485.482,490.867,495.956,498.826,504.852,509.784,515.524" svgx:width="0.48,0.42,0.42,0.48,0.58,0.33,0.29,0.5,0.29,0.55,0.55,0.29,0.29,0.55,0.58,0.5,0.42,0.55,0.88,0.55,0.4,0.48,0.55,0.5,0.58,0.33,0.29,0.55,0.52,0.29,0.61,0.5,0.58,0.33" style="fill:rgb(0,0,0);font-family:URWPalladioL-Roma;font-size:9.96px;stroke:none;">essential oil has more antioxidant</text>
   <text y="157.864" x="76.535,81.047,86.595,92.509,95.822,100.69,106.604,109.8908,113.534,116.847,122.761,127.842,133.6188,137.364,145.27,149.101,154.751,159.832,165.6088,169.364,174.912,177.869,180.826,183.316,189.819" svgx:width="0.44,0.55,0.58,0.33,0.48,0.58,0.33,0.55,0.33,0.58,0.5,0.58,0.55,0.78,0.4,0.56,0.5,0.58,0.55,0.55,0.29,0.29,0.25,0.55,0.83" style="fill:rgb(0,0,0);font-family:URWPalladioL-Roma;font-size:9.96px;stroke:none;">content than Argan oil. H</text>
   <text y="159.683" x="198.275" svgx:width="0.5" style="fill:rgb(0,0,0);font-family:URWPalladioL-Roma;font-size:7.57px;stroke:none;">2</text>
   <text y="157.864" x="202.559" svgx:width="0.79" style="fill:rgb(0,0,0);font-family:URWPalladioL-Roma;font-size:9.96px;stroke:none;">O</text>
   <text y="159.683" x="210.546" svgx:width="0.5" style="fill:rgb(0,0,0);font-family:URWPalladioL-Roma;font-size:7.57px;stroke:none;">2</text>
   <text y="157.864" x="218.443,222.955,228.036,234.163,238.472,243.34,247.5232,251.266,255.574,258.531,264.181,270.096,273.043,279.191,283.702,288.783,294.698,297.9848,301.628,304.585,310.499,315.011,318.842,323.71,328.79,333.099,337.8798,341.584,344.541,350.3178,354.063,357.376,363.29,368.0708,371.775,374.732,377.689,383.797,386.754,392.8296,396.57,402.677,407.758,411.772,416.853,425.826,430.693,434.006,438.874,442.888,447.196,449.68600000000004,453.629,456.586,459.543,465.284,470.152,474.13599999999997,477.784,482.651,488.565,493.646,499.296,508.269,513.137,517.445" svgx:width="0.44,0.5,0.6,0.42,0.48,0.42,0.55,0.42,0.29,0.56,0.58,0.29,0.61,0.44,0.5,0.58,0.33,0.55,0.29,0.58,0.44,0.4,0.48,0.5,0.42,0.48,0.55,0.29,0.58,0.55,0.33,0.58,0.48,0.55,0.29,0.29,0.6,0.29,0.61,0.55,0.6,0.5,0.4,0.5,0.88,0.48,0.33,0.48,0.4,0.42,0.25,0.55,0.29,0.29,0.56,0.48,0.4,0.55,0.48,0.58,0.5,0.56,0.88,0.48,0.42,0.25" style="fill:rgb(0,0,0);font-family:URWPalladioL-Roma;font-size:9.96px;stroke:none;">causes signiﬁcant increase in the lipid parameters, liver enzymes,</text>
   <text y="171.373" x="76.535,81.462,87.196,93.27159999999999,95.709,101.158,104.025,109.405,114.784,120.8596,123.307,129.249,132.963,137.683,142.609,145.09900000000002,147.565,151.743,154.61,160.089,165.823,168.69,174.651,179.026,183.953,189.687,192.9738,195.402,198.269,204.003,208.378,212.093,216.812,221.739,225.917,230.6978,233.129,235.996,241.77280000000002,244.223,247.435,253.17,257.9508,260.392,263.259,266.127,271.694,276.413,280.397,282.798,287.724,293.459,299.5346,301.982,307.46,310.327,316.347,322.082,326.802,332.37960000000004,334.773,342.99,347.71,350.577,356.055,361.79,365.002,367.492,369.968,372.835,378.569,382.747,385.614,391.092,396.827,399.694,405.655,410.03,414.956,420.691,423.9778,426.396,429.263,434.997,439.372,443.087,447.806,452.733,456.91,461.6908,464.123,466.99,472.7668,475.227,478.439,484.174,488.9548,491.386,495.564,500.283,504.097,510.038" svgx:width="0.5,0.58,0.61,0.55,0.55,0.29,0.55,0.55,0.61,0.55,0.6,0.4,0.48,0.5,0.25,0.55,0.42,0.29,0.56,0.58,0.29,0.61,0.44,0.5,0.58,0.33,0.55,0.29,0.58,0.44,0.4,0.48,0.5,0.42,0.48,0.55,0.29,0.58,0.55,0.33,0.58,0.48,0.55,0.29,0.29,0.56,0.48,0.4,0.55,0.5,0.58,0.61,0.55,0.56,0.29,0.61,0.58,0.48,0.56,0.55,0.83,0.48,0.29,0.56,0.58,0.33,0.25,0.55,0.29,0.58,0.42,0.29,0.56,0.58,0.29,0.61,0.44,0.5,0.58,0.33,0.55,0.29,0.58,0.44,0.4,0.48,0.5,0.42,0.48,0.55,0.29,0.58,0.55,0.33,0.58,0.48,0.55,0.42,0.48,0.4,0.6,0.88" style="fill:rgb(0,0,0);font-family:URWPalladioL-Roma;font-size:9.96px;stroke:none;">and blood urea, signiﬁcant increase in the liver and kidney weight, insigniﬁcant increase in the serum</text>
   <text y="184.882" x="76.535,80.901,84.608,89.318,94.235,97.44,100.302,106.024,108.886,114.609,119.3898,121.816,126.733,132.456,138.5316,140.961,145.131,147.992,153.459,159.182,162.044,167.993,172.358,177.275,182.998,186.2848,188.701,194.709,199.419,203.785,207.492,212.202,217.119,221.288,226.0688,228.496,231.357,237.1338,239.577,242.783,248.506,253.2868,255.723,258.929,264.298,267.503,272.42,275.3084,277.779,283.689,287.386,292.755,295.96,300.67,303.532,309.30879999999996,311.762,316.679,322.402,328.4776,330.907,335.824,338.685,344.123,350.052,358.735,361.596,367.319,369.809,372.894,378.922,384.645,389.355,393.524,398.3048,400.732" svgx:width="0.44,0.4,0.48,0.5,0.33,0.29,0.58,0.29,0.58,0.48,0.55,0.5,0.58,0.61,0.55,0.42,0.29,0.56,0.58,0.29,0.61,0.44,0.5,0.58,0.33,0.55,0.61,0.48,0.44,0.4,0.48,0.5,0.42,0.48,0.55,0.29,0.58,0.55,0.33,0.58,0.48,0.55,0.33,0.55,0.33,0.5,0.29,0.55,0.6,0.4,0.55,0.33,0.48,0.29,0.58,0.55,0.5,0.58,0.61,0.55,0.5,0.29,0.55,0.6,0.88,0.29,0.58,0.25,0.55,0.61,0.58,0.48,0.42,0.48,0.55,0.83" style="fill:rgb(0,0,0);font-family:URWPalladioL-Roma;font-size:9.96px;stroke:none;">creatinine and signiﬁcant decrease in the total protein and albumin. These H</text>
   <text y="186.702" x="408.91" svgx:width="0.5" style="fill:rgb(0,0,0);font-family:URWPalladioL-Roma;font-size:7.57px;stroke:none;">2</text>
   <text y="184.882" x="413.194" svgx:width="0.79" style="fill:rgb(0,0,0);font-family:URWPalladioL-Roma;font-size:9.96px;stroke:none;">O</text>
   <text y="186.702" x="420.923" svgx:width="0.5" style="fill:rgb(0,0,0);font-family:URWPalladioL-Roma;font-size:7.57px;stroke:none;">2</text>
   <text y="184.882" x="425.207,428.481,431.343,437.066,443.074,449.003,453.369,458.079,464.1546,466.585,472.022,474.884,480.253,484.618,490.341,495.051,503.734,506.595,510.961,515.878" svgx:width="0.33,0.29,0.58,0.61,0.6,0.44,0.48,0.61,0.55,0.55,0.29,0.55,0.44,0.58,0.48,0.88,0.29,0.44,0.5,0.29" style="fill:rgb(0,0,0);font-family:URWPalladioL-Roma;font-size:9.96px;stroke:none;">-induced biochemical</text>
   <text y="198.392" x="76.535,80.958,86.757,91.738,97.536,103.075,107.847,112.0302,114.562,120.36,125.342,130.971,135.7518,138.233,143.743,148.515,153.287,159.06380000000001,161.576,166.557,169.456,172.355,177.127,182.756,185.655,190.637,193.884,198.657,204.73260000000002,207.234,215.543,218.442,221.69,227.4668,229.979,235.986,240.21,244.9908,247.473,252.913" svgx:width="0.44,0.58,0.5,0.58,0.56,0.48,0.42,0.55,0.58,0.5,0.56,0.48,0.55,0.55,0.48,0.48,0.58,0.55,0.5,0.29,0.29,0.48,0.56,0.29,0.5,0.33,0.48,0.61,0.55,0.83,0.29,0.33,0.58,0.55,0.6,0.42,0.48,0.55,0.55,0.33" style="fill:rgb(0,0,0);font-family:URWPalladioL-Roma;font-size:9.96px;stroke:none;">changes have been alleviated with use of</text>
   <text y="198.392" x="258.72,264.259,269.241,273.664,278.645,283.626,286.396,291.935,299.7038,302.177,306.6,310.296,314.72,322.471,326.894,330.212,332.981,337.036,342.575" svgx:width="0.56,0.5,0.44,0.5,0.5,0.28,0.56,0.78,0.55,0.44,0.39,0.44,0.78,0.44,0.33,0.28,0.41,0.56,0.78" style="fill:rgb(0,0,0);font-family:URWPalladioL-Ital;font-size:9.96px;stroke:none;">Syzygium aromaticum</text>
   <text y="198.392" x="352.816,357.588,361.812,366.036,370.809,376.607,379.855,382.754,387.735,390.6234,393.125,398.564,401.463,404.3514,406.853,412.293,416.277,418.719,426.47,430.225,435.765,440.746,446.52279999999996,449.035,454.474,457.374,460.273" svgx:width="0.48,0.42,0.42,0.48,0.58,0.33,0.29,0.5,0.29,0.55,0.55,0.29,0.29,0.55,0.55,0.4,0.55,0.78,0.4,0.56,0.5,0.58,0.55,0.55,0.29,0.29,0.25" style="fill:rgb(0,0,0);font-family:URWPalladioL-Roma;font-size:9.96px;stroke:none;">essential oil or Argan oil.</text>
   <text y="211.901" x="97.795,103.817,109.534,114.3148,116.744,121.105,126.822,131.528,140.201,143.06,147.421,152.333,155.2214,157.696,162.058,167.421,176.095,181.999,187.362,191.527,194.386,197.588,200.447,205.81,211.5868,214.032,219.395" svgx:width="0.61,0.58,0.48,0.55,0.44,0.58,0.48,0.88,0.29,0.44,0.5,0.29,0.55,0.44,0.55,0.88,0.6,0.55,0.42,0.29,0.33,0.29,0.55,0.58,0.55,0.55,0.33" style="fill:rgb(0,0,0);font-family:URWPalladioL-Roma;font-size:9.96px;stroke:none;">The chemical composition of</text>
   <text y="211.901" x="225.177,230.639,235.55,239.912,244.823,249.735,252.466,257.927,265.6958,268.075,272.436,276.08,280.442,288.084,292.446,295.717,298.448,302.446,307.907" svgx:width="0.56,0.5,0.44,0.5,0.5,0.28,0.56,0.78,0.55,0.44,0.39,0.44,0.78,0.44,0.33,0.28,0.41,0.56,0.78" style="fill:rgb(0,0,0);font-family:URWPalladioL-Ital;font-size:9.96px;stroke:none;">Syzygium aromaticum</text>
   <text y="211.901" x="318.055,322.76,326.925,331.09,335.796,341.513,344.715,347.573,352.485,355.3734,357.848,363.212,366.07,368.9584,371.434,375.599,381.316,386.679,394.872,399.577,405.6526,408.084,411.286,417.003,421.915,425.20180000000005,427.632,432.337,438.26,443.722,448.427,454.144,459.508,462.39639999999997,464.871,469.783,475.5,481.5756,484.007,488.712,494.635,500.097,504.802,510.519,515.883" svgx:width="0.48,0.42,0.42,0.48,0.58,0.33,0.29,0.5,0.29,0.55,0.55,0.29,0.29,0.55,0.42,0.58,0.55,0.83,0.48,0.61,0.55,0.33,0.58,0.5,0.33,0.55,0.48,0.6,0.56,0.48,0.58,0.55,0.29,0.55,0.5,0.58,0.61,0.55,0.48,0.6,0.56,0.48,0.58,0.55,0.29" style="fill:rgb(0,0,0);font-family:URWPalladioL-Roma;font-size:9.96px;stroke:none;">essential oil showed that eugenol and eugenol</text>
   <text y="225.411" x="76.535,81.496,85.902,90.655,93.89,98.851,102.086,106.8668,109.33,117.605,122.358,126.099,130.87980000000002,133.343,136.578,142.353,147.1338,149.586,158.348,163.309,166.197,171.9738,174.463,178.868,184.286,193.048,199.012,204.429,210.204,214.957,220.732,223.967,228.174,230.66400000000002,233.146,236.381,242.156,247.117,250.4038,252.842,261.118,266.079,270.2622,272.777,275.665,281.4418,283.93,288.892,294.409,298.15,302.903,307.656,316.417,321.161,326.936,330.2228,332.661,340.937,343.824,347.059,352.8358,355.325,360.742,363.977,369.752,374.505,378.489,380.915,385.123,388.357,394.341,400.404,403.291,408.044,412.2272,414.742" svgx:width="0.5,0.44,0.48,0.33,0.5,0.33,0.48,0.55,0.83,0.48,0.4,0.48,0.55,0.33,0.58,0.48,0.55,0.88,0.5,0.29,0.58,0.55,0.44,0.55,0.88,0.6,0.55,0.58,0.48,0.58,0.33,0.42,0.25,0.55,0.33,0.58,0.5,0.33,0.55,0.83,0.5,0.42,0.55,0.29,0.58,0.55,0.5,0.56,0.4,0.48,0.48,0.88,0.48,0.58,0.33,0.55,0.83,0.29,0.33,0.58,0.55,0.55,0.33,0.58,0.48,0.4,0.55,0.42,0.33,0.6,0.61,0.29,0.48,0.42,0.55,0.33" style="fill:rgb(0,0,0);font-family:URWPalladioL-Roma;font-size:9.96px;stroke:none;">acetate were the main components, that was in agreement with other studies [</text>
   <text y="225.411" x="418.044,423.025" svgx:width="0.5,0.5" style="fill:rgb(8,117,183);font-family:URWPalladioL-Roma;font-size:9.96px;stroke:none;">31</text>
   <text y="225.411" x="428.007" svgx:width="0.25" style="fill:rgb(0,0,0);font-family:URWPalladioL-Roma;font-size:9.96px;stroke:none;">,</text>
   <text y="225.411" x="430.488,435.469" svgx:width="0.5,0.5" style="fill:rgb(8,117,183);font-family:URWPalladioL-Roma;font-size:9.96px;stroke:none;">32</text>
   <text y="225.411" x="440.45,443.754,446.244,449.321,455.404,461.179,465.9598,468.422,473.384,479.159,482.393,485.281,490.699,495.819,498.706,504.769,509.731,515.506" svgx:width="0.33,0.25,0.55,0.61,0.58,0.48,0.55,0.5,0.58,0.33,0.29,0.55,0.52,0.29,0.61,0.5,0.58,0.33" style="fill:rgb(0,0,0);font-family:URWPalladioL-Roma;font-size:9.96px;stroke:none;">]. The antioxidant</text>
   <text y="238.92" x="76.535,81.047,86.595,92.509,95.822,100.69,106.604,109.8908,114.114,117.071" svgx:width="0.44,0.55,0.58,0.33,0.48,0.58,0.33,0.55,0.29,0.58" style="fill:rgb(0,0,0);font-family:URWPalladioL-Roma;font-size:9.96px;stroke:none;">content in</text>
   <text y="238.92" x="127.186,132.836,137.917,142.429,147.51,152.591,155.416,161.066,168.8348,173.168,177.68,181.46,185.972,193.878,198.39,201.774,204.589,208.725,214.375" svgx:width="0.56,0.5,0.44,0.5,0.5,0.28,0.56,0.78,0.55,0.44,0.39,0.44,0.78,0.44,0.33,0.28,0.41,0.56,0.78" style="fill:rgb(0,0,0);font-family:URWPalladioL-Ital;font-size:9.96px;stroke:none;">Syzygium aromaticum</text>
   <text y="238.92" x="226.485,231.353,235.661,239.97,244.837,250.751,254.064,257.021,262.102,264.99039999999997,269.256,274.805,277.762,280.6504,284.916,287.873,292.0562,296.388,302.303,305.26,310.91,316.824,321.691,325.67499999999995,329.902,333.215,339.129,344.21,349.98679999999996,354.321,357.634,363.548,368.629,371.91580000000005,376.139,379.522,385.071,391.198,397.113,403.1886,407.518,410.475,416.2518,420.597,428.503,432.333,437.983,443.064,448.8408,453.175,458.724,461.681,464.638,467.128,475.389,481.618,487.533,492.4,496.241,501.109,504.493,510.041,513.872" svgx:width="0.48,0.42,0.42,0.48,0.58,0.33,0.29,0.5,0.29,0.55,0.55,0.29,0.29,0.55,0.29,0.42,0.55,0.58,0.29,0.56,0.58,0.48,0.4,0.55,0.33,0.58,0.5,0.58,0.55,0.33,0.58,0.5,0.33,0.55,0.33,0.55,0.6,0.58,0.61,0.55,0.29,0.58,0.55,0.78,0.4,0.56,0.5,0.58,0.55,0.55,0.29,0.29,0.25,0.55,0.61,0.58,0.48,0.4,0.48,0.33,0.55,0.4,0.48" style="fill:rgb(0,0,0);font-family:URWPalladioL-Roma;font-size:9.96px;stroke:none;">essential oil is higher than that found in Argan oil. Therefore</text>
   <text y="252.429" x="76.256,81.823,86.829,91.275,96.281,101.287,104.07,109.637,117.4058,119.92,124.366,128.08,132.526,140.315,144.761,148.095,150.879,154.954,160.52" svgx:width="0.56,0.5,0.44,0.5,0.5,0.28,0.56,0.78,0.55,0.44,0.39,0.44,0.78,0.44,0.33,0.28,0.41,0.56,0.78" style="fill:rgb(0,0,0);font-family:URWPalladioL-Ital;font-size:9.96px;stroke:none;">Syzygium aromaticum</text>
   <text y="252.429" x="170.802,175.598,179.843,184.088,188.884,194.712,197.976,200.889,205.896,208.78439999999998,211.302,216.769,219.683,222.57139999999998,225.089,233.93,236.844,242.411,248.238,251.5248,253.995,259.532,264.3128,266.811,275.652,281.119,284.903,289.6838,292.183,298.2,303.667,312.017,316.813,320.768,324.102,330.14,333.0284,335.546,340.552,344.7352,347.291,352.297,358.0738,360.617,365.624,371.451,374.715,377.628,383.095,388.262,391.175,397.293,402.299,408.126,411.4128,413.883,417.147,422.975,427.981,433.7578,436.301,444.091,447.865,453.432,458.438,464.21479999999997,466.759,472.226,475.139,478.053,480.543,483.049,488.055,493.882,499.9576,502.493,505.757,511.584,514.498" svgx:width="0.48,0.42,0.42,0.48,0.58,0.33,0.29,0.5,0.29,0.55,0.55,0.29,0.29,0.55,0.88,0.29,0.56,0.58,0.33,0.55,0.55,0.48,0.55,0.88,0.55,0.4,0.48,0.55,0.6,0.55,0.83,0.48,0.4,0.33,0.6,0.29,0.55,0.5,0.42,0.55,0.5,0.58,0.55,0.5,0.58,0.33,0.29,0.55,0.52,0.29,0.61,0.5,0.58,0.33,0.55,0.33,0.58,0.5,0.58,0.55,0.78,0.4,0.56,0.5,0.58,0.55,0.55,0.29,0.29,0.25,0.55,0.5,0.58,0.61,0.55,0.33,0.58,0.29,0.42" style="fill:rgb(0,0,0);font-family:URWPalladioL-Roma;font-size:9.96px;stroke:none;">essential oil might be more powerful as an antioxidant than Argan oil, and this</text>
   <text y="265.939" x="76.236,82.313,86.126,91.647,97.724,102.568,106.562,109.859,115.4366,117.968,126.897,132.419,136.706,139.9928,142.49,145.433,148.375,153.998,158.841,161.784,167.36159999999998,169.894,176.072,182.17,186.9508,189.501,192.798,198.276,200.806,204.103,209.988,214.7688,217.319,221.809,227.694,232.538,241.467,244.409,248.899,253.955,256.84340000000003,259.385,263.875,269.396,278.325,284.402,289.924,294.211,297.154,300.45,303.393,308.914,314.69079999999997,317.287,322.808" svgx:width="0.6,0.4,0.55,0.6,0.48,0.4,0.33,0.56,0.55,0.88,0.55,0.42,0.33,0.55,0.29,0.29,0.56,0.48,0.29,0.56,0.55,0.61,0.6,0.48,0.55,0.33,0.55,0.55,0.33,0.58,0.48,0.55,0.44,0.58,0.48,0.88,0.29,0.44,0.5,0.29,0.55,0.44,0.55,0.88,0.6,0.55,0.42,0.29,0.33,0.29,0.55,0.58,0.55,0.55,0.33" style="fill:rgb(0,0,0);font-family:URWPalladioL-Roma;font-size:9.96px;stroke:none;">property most likely due to the chemical composition of</text>
   <text y="265.939" x="328.663,334.285,339.341,343.831,348.887,353.943,356.754,362.377,370.1458,372.731,377.221,380.973,385.462,393.329,397.819,401.187,403.998,408.113,413.736" svgx:width="0.56,0.5,0.44,0.5,0.5,0.28,0.56,0.78,0.55,0.44,0.39,0.44,0.78,0.44,0.33,0.28,0.41,0.56,0.78" style="fill:rgb(0,0,0);font-family:URWPalladioL-Ital;font-size:9.96px;stroke:none;">Syzygium aromaticum</text>
   <text y="265.939" x="424.092,428.936,433.223,437.511,442.354,448.24,451.536,454.479,459.535,462.4234,464.965,470.486,473.429,476.371,478.861,481.387,489.82,495.705,498.648,503.138,508.91479999999996,511.51,514.453" svgx:width="0.48,0.42,0.42,0.48,0.58,0.33,0.29,0.5,0.29,0.55,0.55,0.29,0.29,0.25,0.55,0.83,0.58,0.29,0.44,0.58,0.55,0.29,0.42" style="fill:rgb(0,0,0);font-family:URWPalladioL-Roma;font-size:9.96px;stroke:none;">essential oil, which is</text>
   <text y="279.448" x="76.535,80.47,83.369,87.793,93.5698,96.082,98.981,104.75779999999999,107.27,112.042,118.049,123.588,128.36,134.159,139.598,142.4864,144.988,148.306,153.287,158.268,160.759,165.74,170.721,179.09,182.3768,184.898,193.207,196.106,199.354,205.13080000000002,207.643,212.623,215.115,221.102,226.542,229.79,234.562,240.36,243.6468,246.098,251.08,256.878,260.126,263.025,268.464,273.605,276.504,282.591,287.573,293.371,296.6578,299.109,304.091,308.514,311.762,314.661,320.29,323.189,326.437,332.01460000000003,334.467" svgx:width="0.4,0.29,0.44,0.58,0.55,0.29,0.58,0.55,0.48,0.6,0.56,0.48,0.58,0.55,0.29,0.55,0.33,0.5,0.5,0.25,0.5,0.5,0.84,0.33,0.55,0.83,0.29,0.33,0.58,0.55,0.5,0.55,0.6,0.55,0.33,0.48,0.58,0.33,0.55,0.5,0.58,0.33,0.29,0.55,0.52,0.29,0.61,0.5,0.58,0.33,0.55,0.5,0.44,0.33,0.29,0.56,0.29,0.33,0.56,0.55,0.33" style="fill:rgb(0,0,0);font-family:URWPalladioL-Roma;font-size:9.96px;stroke:none;">rich in eugenol (87.03%) with a potent antioxidant activity [</text>
   <text y="279.448" x="337.784,342.765" svgx:width="0.5,0.5" style="fill:rgb(8,117,183);font-family:URWPalladioL-Roma;font-size:9.96px;stroke:none;">33</text>
   <text y="279.448" x="347.747" svgx:width="0.25" style="fill:rgb(0,0,0);font-family:URWPalladioL-Roma;font-size:9.96px;stroke:none;">,</text>
   <text y="279.448" x="350.237,355.219" svgx:width="0.5,0.5" style="fill:rgb(8,117,183);font-family:URWPalladioL-Roma;font-size:9.96px;stroke:none;">34</text>
   <text y="279.448" x="360.2,363.517" svgx:width="0.33,0.25" style="fill:rgb(0,0,0);font-family:URWPalladioL-Roma;font-size:9.96px;stroke:none;">].</text>
   <text y="292.958" x="97.795,103.902,109.7,114.4808,116.953,119.852,125.6288,128.141,133.77,136.669,142.298,147.776,150.208,154.432,157.68,163.688,169.775,175.3526,177.795,183.882,188.654,197.451,202.89,208.689,212.913,216.161,220.096,225.077,228.325,233.097,239.17260000000002,241.665,244.913,250.711,255.692,258.97880000000004,261.411" svgx:width="0.61,0.58,0.48,0.55,0.29,0.58,0.55,0.56,0.29,0.56,0.55,0.55,0.42,0.33,0.6,0.61,0.56,0.55,0.61,0.48,0.88,0.55,0.58,0.42,0.33,0.4,0.5,0.33,0.48,0.61,0.55,0.33,0.58,0.5,0.33,0.55,0.83" style="fill:rgb(0,0,0);font-family:URWPalladioL-Roma;font-size:9.96px;stroke:none;">The in vivo study demonstrated that H</text>
   <text y="294.777" x="269.702" svgx:width="0.5" style="fill:rgb(0,0,0);font-family:URWPalladioL-Roma;font-size:7.57px;stroke:none;">2</text>
   <text y="292.957" x="273.986" svgx:width="0.79" style="fill:rgb(0,0,0);font-family:URWPalladioL-Roma;font-size:9.96px;stroke:none;">O</text>
   <text y="294.777" x="281.817" svgx:width="0.5" style="fill:rgb(0,0,0);font-family:URWPalladioL-Roma;font-size:7.57px;stroke:none;">2</text>
   <text y="292.957" x="288.578,294.117,297.016,302.645,307.417,313.19379999999995,315.696,318.595,324.3718,326.864,330.112,335.91,340.6908,343.163,349.25,353.186,356.085,361.883,367.422,370.321,376.119,381.69660000000005,384.139,392.448,397.429,400.677,405.449,409.433,411.855,415.173,420.154,422.645,427.626,435.995,439.28180000000003,441.793,446.216,451.198,457.205,461.429,466.201,470.3842,472.906,477.13,480.029,485.569,491.367,494.266,500.293,504.717,509.698,515.496" svgx:width="0.56,0.29,0.56,0.48,0.58,0.55,0.29,0.58,0.55,0.33,0.58,0.48,0.55,0.61,0.4,0.29,0.58,0.56,0.29,0.58,0.56,0.55,0.83,0.5,0.33,0.48,0.4,0.55,0.33,0.5,0.25,0.5,0.84,0.33,0.55,0.44,0.5,0.6,0.42,0.48,0.42,0.55,0.42,0.29,0.56,0.58,0.29,0.61,0.44,0.5,0.58,0.33" style="fill:rgb(0,0,0);font-family:URWPalladioL-Roma;font-size:9.96px;stroke:none;">given in the drinking water (0.5%) causes signiﬁcant</text>
   <text y="306.467" x="76.535,79.376,85.058,89.393,93.074,97.751,102.632,106.772,111.5528,113.489,116.33,122.10679999999999,124.063,131.659,136.785,142.8606,144.82,149.702,155.384,161.4596,163.399,170.995,176.219,181.471,183.961,185.953,191.918,196.595,200.93,204.611,209.287,214.169,218.309,222.985,227.1682,229.175,232.358,237.689,240.872,245.753,248.64139999999998,250.645,256.513,260.184,265.514,268.697,273.374,276.215,281.99179999999996,283.948,288.829,294.512,300.5876,302.527,307.409,310.25,315.649,321.536,330.157,332.999,338.681,341.171,343.26,348.142,353.824,359.8996,361.83,366.711,372.4878,374.444,379.121,381.962,386.638,392.155,397.036,400.219,403.06,408.391,414.1678,416.124,421.455,424.7418,426.756,432.155,434.996,440.327,445.658,451.7336,453.664,459.551,463.232,467.908,472.88800000000003,474.84,477.682,482.358,487.875,492.551,495.392,499.5752,501.572" svgx:width="0.29,0.58,0.44,0.4,0.48,0.5,0.42,0.48,0.55,0.29,0.58,0.55,0.78,0.52,0.61,0.55,0.5,0.58,0.61,0.55,0.78,0.61,0.61,0.25,0.55,0.61,0.48,0.44,0.4,0.48,0.5,0.42,0.48,0.42,0.55,0.33,0.55,0.33,0.5,0.29,0.55,0.6,0.4,0.55,0.33,0.48,0.29,0.58,0.55,0.5,0.58,0.61,0.55,0.5,0.29,0.55,0.6,0.88,0.29,0.58,0.25,0.55,0.5,0.58,0.61,0.55,0.5,0.58,0.55,0.48,0.29,0.48,0.56,0.5,0.33,0.29,0.55,0.58,0.55,0.55,0.33,0.55,0.55,0.29,0.55,0.55,0.61,0.55,0.6,0.4,0.48,0.5,0.55,0.29,0.48,0.56,0.48,0.29,0.42,0.55,0.33" style="fill:rgb(0,0,0);font-family:URWPalladioL-Roma;font-size:9.96px;stroke:none;">increase in AST and ALT, decreases total protein and albumin, and an elevation of blood urea levels [</text>
   <text y="306.467" x="504.829,509.81" svgx:width="0.5,0.5" style="fill:rgb(8,117,183);font-family:URWPalladioL-Roma;font-size:9.96px;stroke:none;">35</text>
   <text y="306.467" x="514.792,518.043" svgx:width="0.33,0.25" style="fill:rgb(0,0,0);font-family:URWPalladioL-Roma;font-size:9.96px;stroke:none;">].</text>
   <text y="319.976" x="76.147,84.053,89.967,95.515,98.828,104.742,109.61,113.594,116.774,121.083,124.395,130.523,136.732,142.3096,145.542,149.851,155.765,161.314,169.788,174.656,180.73160000000001,184.015,187.328,193.242,198.323,201.6098,204.796,209.877,216.086,225.059,228.016,233.93,236.887,241.196,244.509,248.523,253.603,256.916,259.873,265.422,271.1988,274.486,280.034,283.3208,286.579" svgx:width="0.78,0.58,0.55,0.33,0.58,0.48,0.4,0.55,0.42,0.33,0.6,0.61,0.56,0.55,0.42,0.58,0.55,0.83,0.48,0.61,0.55,0.33,0.58,0.5,0.33,0.55,0.5,0.61,0.88,0.29,0.58,0.29,0.42,0.33,0.4,0.5,0.33,0.29,0.55,0.58,0.55,0.55,0.33,0.55,0.83" style="fill:rgb(0,0,0);font-family:URWPalladioL-Roma;font-size:9.96px;stroke:none;">Another study showed that administration of H</text>
   <text y="321.796" x="295.032" svgx:width="0.5" style="fill:rgb(0,0,0);font-family:URWPalladioL-Roma;font-size:7.57px;stroke:none;">2</text>
   <text y="319.976" x="299.316" svgx:width="0.79" style="fill:rgb(0,0,0);font-family:URWPalladioL-Roma;font-size:9.96px;stroke:none;">O</text>
   <text y="321.796" x="307.303" svgx:width="0.5" style="fill:rgb(0,0,0);font-family:URWPalladioL-Roma;font-size:7.57px;stroke:none;">2</text>
   <text y="319.976" x="314.742,318.126,323.207,325.747,330.828,339.364,342.6508,345.898,348.855,354.6318,357.93,364.139,368.153,371.11,377.024,382.674,385.631,391.545,397.12260000000003,400.345,408.82,413.901,417.214,422.082,426.066,429.256,432.213,437.9898,441.277,445.291,450.372,453.685,457.8682,461.154,464.538,470.086,474.07,477.25,482.331,487.31100000000004,490.573,499.048,503.915,508.783,514.433" svgx:width="0.33,0.5,0.25,0.5,0.84,0.33,0.55,0.29,0.58,0.55,0.61,0.4,0.29,0.58,0.56,0.29,0.58,0.56,0.55,0.83,0.5,0.33,0.48,0.4,0.55,0.29,0.58,0.55,0.4,0.5,0.33,0.42,0.55,0.33,0.55,0.4,0.55,0.5,0.5,0.55,0.83,0.48,0.48,0.56,0.42" style="fill:rgb(0,0,0);font-family:URWPalladioL-Roma;font-size:9.96px;stroke:none;">(0.1%) in drinking water in rats for 25 weeks</text>
   <text y="333.486" x="76.535,79.492,85.406,91.615,97.743,102.255,107.122,113.1976,117.254,122.334,128.1108,132.181,135.138,141.053,145.564,149.395,154.263,159.344,163.653,168.4338,172.443,175.4,181.17680000000001,185.236,188.549,194.463,199.2438,203.263,212.236,217.317,220.274,225.823,231.737,237.946,240.903,245.984,248.941,255.15,260.017,265.932,271.582,277.79,282.5708,286.58,289.538,294.405,300.147,305.014,307.971,312.28,314.77,319.098,323.61,328.691,332.004,337.085,340.042,345.123,349.432,354.2128,358.232,363.313,367.824,371.137,374.094,379.836,382.793,386.106,390.648,393.13800000000003,397.467,401.775,407.903,414.01,418.878,422.719,428.267,433.511,436.468,442.677,447.4578,451.467,457.676,460.633,464.941,473.914,480.042,483.355,488.436,492.744,497.5248,501.534,506.615,512.529" svgx:width="0.29,0.58,0.61,0.6,0.44,0.48,0.61,0.55,0.5,0.58,0.55,0.29,0.58,0.44,0.4,0.48,0.5,0.42,0.48,0.55,0.29,0.58,0.55,0.33,0.58,0.48,0.55,0.88,0.5,0.29,0.55,0.58,0.61,0.29,0.5,0.29,0.61,0.48,0.58,0.56,0.61,0.48,0.55,0.29,0.48,0.56,0.48,0.29,0.42,0.25,0.55,0.44,0.5,0.33,0.5,0.29,0.5,0.42,0.48,0.55,0.5,0.44,0.33,0.29,0.56,0.29,0.33,0.56,0.25,0.55,0.42,0.6,0.6,0.48,0.4,0.55,0.52,0.29,0.61,0.48,0.55,0.61,0.29,0.42,0.88,0.6,0.33,0.5,0.42,0.48,0.55,0.5,0.58,0.61" style="fill:rgb(0,0,0);font-family:URWPalladioL-Roma;font-size:9.96px;stroke:none;">induced an increase in the malondialdehyde levels, catalase activity, superoxide dismutase and</text>
   <text y="346.995" x="76.535,82.074,84.973,90.981,94.229,99.21,102.458,108.256,111.155,116.595,122.393,127.1738,129.656,135.643,140.415,144.171,149.611,154.751,157.65,163.738,168.719,172.943,177.7238,180.206,183.105,188.8818,191.394,196.833,200.589,206.128,211.11,216.908,221.0912,223.623" svgx:width="0.56,0.29,0.6,0.33,0.5,0.33,0.58,0.29,0.55,0.58,0.48,0.55,0.6,0.48,0.4,0.55,0.52,0.29,0.61,0.5,0.42,0.48,0.55,0.29,0.58,0.55,0.55,0.4,0.56,0.5,0.58,0.42,0.55,0.33" style="fill:rgb(0,0,0);font-family:URWPalladioL-Roma;font-size:9.96px;stroke:none;">glutathione peroxidase in organs [</text>
   <text y="346.995" x="226.94,231.922" svgx:width="0.5,0.5" style="fill:rgb(8,117,183);font-family:URWPalladioL-Roma;font-size:9.96px;stroke:none;">36</text>
   <text y="346.995" x="236.903,240.22" svgx:width="0.33,0.25" style="fill:rgb(0,0,0);font-family:URWPalladioL-Roma;font-size:9.96px;stroke:none;">].</text>
   <text y="360.505" x="97.795,101.183,106.9598,109.516,112.793,118.643,123.4238,125.951,131.993,135.783,140.598,144.86,149.675,155.525,158.8118,161.285,165.547,168.824,174.886,181.028,186.60559999999998,189.11,195.252,200.278,203.203,206.128,211.70559999999998,214.2,219.226,225.368,234.244,237.17,243.02,245.945,250.207,253.484,257.455,262.481,265.758,268.683,274.172,279.9488,282.505,287.994,291.28080000000006,293.834,297.182,302.208,310.652,313.9388,316.482,321.97,325.25680000000006,327.801" svgx:width="0.34,0.58,0.55,0.33,0.58,0.48,0.55,0.6,0.4,0.48,0.42,0.48,0.58,0.33,0.55,0.42,0.33,0.6,0.61,0.56,0.55,0.61,0.5,0.29,0.29,0.56,0.55,0.5,0.61,0.88,0.29,0.58,0.29,0.42,0.33,0.4,0.5,0.33,0.29,0.55,0.58,0.55,0.55,0.33,0.55,0.33,0.5,0.84,0.33,0.55,0.55,0.33,0.55,0.83" style="fill:rgb(0,0,0);font-family:URWPalladioL-Roma;font-size:9.96px;stroke:none;">In the present study daily administration of (1%) of H</text>
   <text y="362.324" x="336.168" svgx:width="0.5" style="fill:rgb(0,0,0);font-family:URWPalladioL-Roma;font-size:7.57px;stroke:none;">2</text>
   <text y="360.505" x="340.452" svgx:width="0.79" style="fill:rgb(0,0,0);font-family:URWPalladioL-Roma;font-size:9.96px;stroke:none;">O</text>
   <text y="362.324" x="348.354" svgx:width="0.5" style="fill:rgb(0,0,0);font-family:URWPalladioL-Roma;font-size:7.57px;stroke:none;">2</text>
   <text y="360.505" x="355.124,360.683,366.2606,368.755,374.344,379.37,385.05,390.076,395.665,400.4458,402.973,407.235,410.16,415.749,421.6,424.525,430.606,435.07,440.096,445.946,449.223,452.148,457.72560000000004,460.22,463.145,468.996,473.459,477.249,482.064,487.09,491.352,496.167,502.2426,504.802,508.079,513.929" svgx:width="0.55,0.56,0.55,0.56,0.5,0.56,0.5,0.56,0.48,0.55,0.42,0.29,0.56,0.58,0.29,0.61,0.44,0.5,0.58,0.33,0.29,0.56,0.55,0.29,0.58,0.44,0.4,0.48,0.5,0.42,0.48,0.61,0.55,0.33,0.58,0.48" style="fill:rgb(0,0,0);font-family:URWPalladioL-Roma;font-size:9.96px;stroke:none;">by gavage signiﬁcantly increased the</text>
   <text y="374.014" x="76.535,79.376,84.053,89.569,94.246,97.087,101.2702,103.394,108.725,112.0118,114.134,120.099,127.656,135.779,138.269,140.387,147.983,153.216,158.459,160.949,163.068,170.663,175.789,181.032,183.52200000000002,185.64,191.323,196.653,204.796,209.473,214.989,219.666,222.78,225.27,227.457,231.313,236.195,239.378,243.56119999999999,245.675,249.356,254.033,258.368,263.044,265.885,271.402,274.243,279.925,285.50260000000003,287.521" svgx:width="0.29,0.48,0.56,0.48,0.29,0.42,0.55,0.55,0.33,0.55,0.61,0.77,0.83,0.25,0.55,0.78,0.61,0.61,0.25,0.55,0.78,0.52,0.61,0.25,0.55,0.58,0.55,0.83,0.48,0.56,0.48,0.4,0.25,0.55,0.4,0.5,0.33,0.42,0.55,0.4,0.48,0.44,0.48,0.29,0.56,0.29,0.58,0.56,0.55,0.83" style="fill:rgb(0,0,0);font-family:URWPalladioL-Roma;font-size:9.96px;stroke:none;">levels of LDH, ALT, AST, however, rats receiving H</text>
   <text y="375.834" x="295.642" svgx:width="0.5" style="fill:rgb(0,0,0);font-family:URWPalladioL-Roma;font-size:7.57px;stroke:none;">2</text>
   <text y="374.014" x="299.926" svgx:width="0.79" style="fill:rgb(0,0,0);font-family:URWPalladioL-Roma;font-size:9.96px;stroke:none;">O</text>
   <text y="375.834" x="307.6" svgx:width="0.5" style="fill:rgb(0,0,0);font-family:URWPalladioL-Roma;font-size:7.57px;stroke:none;">2</text>
   <text y="374.014" x="314.049,322.192,325.033,328.216,333.9928,336.065,343.661,347.332,352.761,357.642,363.4188,365.492,370.823,373.664,376.5524,378.673,384.003" svgx:width="0.83,0.29,0.33,0.58,0.55,0.78,0.4,0.56,0.5,0.58,0.55,0.55,0.29,0.29,0.55,0.55,0.4" style="fill:rgb(0,0,0);font-family:URWPalladioL-Roma;font-size:9.96px;stroke:none;">with Argan oil or</text>
   <text y="374.014" x="390.021,395.449,400.331,404.666,409.548,414.429,417.144,422.572,432.335,436.67,440.283,444.618,452.214,456.548,459.8,462.514,466.488,471.916" svgx:width="0.56,0.5,0.44,0.5,0.5,0.28,0.56,0.78,0.44,0.39,0.44,0.78,0.44,0.33,0.28,0.41,0.56,0.78" style="fill:rgb(0,0,0);font-family:URWPalladioL-Ital;font-size:9.96px;stroke:none;">Syzygiumaromaticum</text>
   <text y="374.014" x="481.679,486.356,490.495,494.635,499.312,504.994,508.177,511.018,515.899" svgx:width="0.48,0.42,0.42,0.48,0.58,0.33,0.29,0.5,0.29" style="fill:rgb(0,0,0);font-family:URWPalladioL-Roma;font-size:9.96px;stroke:none;">essential</text>
   <text y="387.523" x="76.535,81.991,84.899,87.7874,90.295,95.081,103.904,109.93,112.838,117.075,119.982,126.028,130.814,136.8896,139.418,142.326,148.1028,150.629,158.403,162.171,167.726,172.723,178.49980000000002,181.036,186.492,189.4,192.2884,194.796,200.612,205.608,211.6836,214.201,217.109,222.565,230.899,235.685,239.669,242.131,245.038,249.825,255.47,260.257,263.165,267.3482,269.89,275.346,278.63280000000003,281.161,287.267,295.001,303.315,305.805,308.311,316.085,321.451,327.52660000000003,330.064,335.061,340.876,346.9516,349.48,357.254,362.5,368.5756,371.114,374.021,379.7978,382.335,386.772,392.228,401.051,407.057,412.053,416.0,418.908,423.144,428.6,434.3768,436.904,445.238,448.146,451.403,457.1798,459.707" svgx:width="0.55,0.29,0.29,0.55,0.48,0.88,0.6,0.29,0.42,0.29,0.61,0.48,0.61,0.55,0.29,0.58,0.55,0.78,0.4,0.56,0.5,0.58,0.55,0.55,0.29,0.29,0.55,0.58,0.5,0.61,0.55,0.29,0.55,0.83,0.48,0.4,0.55,0.29,0.48,0.56,0.48,0.29,0.42,0.55,0.55,0.33,0.55,0.61,0.77,0.83,0.25,0.55,0.78,0.61,0.61,0.55,0.5,0.58,0.61,0.55,0.78,0.52,0.61,0.55,0.29,0.58,0.55,0.44,0.55,0.88,0.6,0.5,0.4,0.29,0.42,0.55,0.58,0.55,0.83,0.29,0.33,0.58,0.55,0.83" style="fill:rgb(0,0,0);font-family:URWPalladioL-Roma;font-size:9.96px;stroke:none;">oil emulsiﬁed in Argan oil had lower levels of LDH, ALT and AST in comparison with H</text>
   <text y="389.343" x="468.025" svgx:width="0.5" style="fill:rgb(0,0,0);font-family:URWPalladioL-Roma;font-size:7.57px;stroke:none;">2</text>
   <text y="387.523" x="472.308" svgx:width="0.79" style="fill:rgb(0,0,0);font-family:URWPalladioL-Roma;font-size:9.96px;stroke:none;">O</text>
   <text y="389.343" x="480.163" svgx:width="0.5" style="fill:rgb(0,0,0);font-family:URWPalladioL-Roma;font-size:7.57px;stroke:none;">2</text>
   <text y="387.523" x="486.939,492.495,496.262,501.718,507.743,513.749,517.986" svgx:width="0.56,0.4,0.55,0.6,0.6,0.42,0.25" style="fill:rgb(0,0,0);font-family:URWPalladioL-Roma;font-size:9.96px;stroke:none;">groups.</text>
   <text y="401.033" x="76.226,82.394,88.25,93.0308,95.556,98.484,104.34,108.807,112.601,117.421,122.452,126.718,131.49880000000002,134.023,139.517,142.8038,145.353,153.182,158.595,164.6706,167.249,172.28,178.136,184.2116,186.77,194.598,199.881,205.9566,208.534,211.462,215.6452,218.214,223.245,229.0218,231.587,234.515,240.371,246.519,251.339,256.5182,259.016,264.51,267.7968,270.346,273.275,276.203,281.888,286.708,290.692,293.168,299.316,304.347,313.232,318.263,323.857,328.6378,331.173,336.204,342.06,348.1356,350.693,355.724,358.652,361.933,366.753,370.727,375.758,379.039,381.967,387.461,393.317,397.5002,400.069,405.563,408.8498,411.399,414.327,417.255,422.94,427.76,431.74399999999997,434.22,437.57,443.638,449.494,453.962,457.242,460.17,465.664,471.44079999999997,474.006,480.154,486.221,491.0018,493.526,496.807,502.285,504.786,508.066,513.923" svgx:width="0.61,0.58,0.48,0.55,0.29,0.58,0.44,0.4,0.48,0.5,0.42,0.48,0.55,0.55,0.33,0.55,0.78,0.61,0.61,0.55,0.5,0.58,0.61,0.55,0.78,0.52,0.61,0.55,0.29,0.42,0.55,0.5,0.58,0.55,0.29,0.58,0.61,0.48,0.52,0.55,0.55,0.33,0.55,0.29,0.29,0.56,0.48,0.4,0.55,0.61,0.5,0.88,0.5,0.56,0.48,0.55,0.5,0.58,0.61,0.55,0.5,0.29,0.33,0.48,0.4,0.5,0.33,0.29,0.55,0.58,0.42,0.55,0.55,0.33,0.55,0.29,0.29,0.56,0.48,0.4,0.55,0.33,0.6,0.58,0.44,0.33,0.29,0.55,0.58,0.55,0.61,0.6,0.48,0.55,0.33,0.55,0.55,0.33,0.58,0.48" style="fill:rgb(0,0,0);font-family:URWPalladioL-Roma;font-size:9.96px;stroke:none;">The increase of ALT and AST is an index of liver damage and alterations of liver function due to the</text>
   <text y="414.542" x="76.535,80.291,85.063,87.962,92.734,97.715,101.94,106.7208,109.202,114.642,117.9288,120.45,123.698,129.496,134.268,138.492,143.2728,145.755,150.527,156.325,161.307,166.846,175.643,180.415,184.5982,187.13,190.029,195.827,199.075,204.553,207.005,210.253,216.051,220.8318,223.314,228.823,231.722,237.162,242.602,248.689,252.913,256.161,259.917,264.689,269.67,280.958,284.275,288.031,293.471,304.758,308.006,313.804,318.5848,321.067,325.49,331.03,334.277,339.717,343.941,349.381,352.26939999999996,354.77" svgx:width="0.4,0.48,0.29,0.48,0.5,0.42,0.48,0.55,0.55,0.33,0.55,0.33,0.58,0.48,0.42,0.48,0.55,0.48,0.58,0.5,0.56,0.88,0.48,0.42,0.55,0.29,0.58,0.33,0.55,0.55,0.33,0.58,0.48,0.55,0.55,0.29,0.55,0.55,0.61,0.42,0.33,0.4,0.48,0.5,0.88,0.33,0.4,0.55,0.88,0.33,0.58,0.48,0.55,0.44,0.56,0.33,0.55,0.42,0.55,0.29,0.55,0.33" style="fill:rgb(0,0,0);font-family:URWPalladioL-Roma;font-size:9.96px;stroke:none;">release of these enzymes into the bloodstreamfromthe cytosol [</text>
   <text y="414.542" x="358.088,363.069" svgx:width="0.5,0.5" style="fill:rgb(8,117,183);font-family:URWPalladioL-Roma;font-size:9.96px;stroke:none;">37</text>
   <text y="414.542" x="368.051" svgx:width="0.25" style="fill:rgb(0,0,0);font-family:URWPalladioL-Roma;font-size:9.96px;stroke:none;">,</text>
   <text y="414.542" x="370.541,375.523" svgx:width="0.5,0.5" style="fill:rgb(8,117,183);font-family:URWPalladioL-Roma;font-size:9.96px;stroke:none;">38</text>
   <text y="414.542" x="380.504,383.821" svgx:width="0.33,0.25" style="fill:rgb(0,0,0);font-family:URWPalladioL-Roma;font-size:9.96px;stroke:none;">].</text>
   <text y="428.051" x="97.795,103.78,109.462,114.2428,116.375,120.055,124.732,128.872,134.759,137.6,140.783,144.9662,147.158,152.04,154.881,159.021,164.499,166.597,170.737,176.419,181.75,189.893,194.569,200.6446,202.771,205.953,211.636,216.517,219.8038,221.936" svgx:width="0.61,0.58,0.48,0.55,0.4,0.48,0.42,0.6,0.29,0.33,0.42,0.55,0.5,0.29,0.42,0.55,0.55,0.42,0.58,0.55,0.83,0.48,0.61,0.55,0.33,0.58,0.5,0.33,0.55,0.83" style="fill:rgb(0,0,0);font-family:URWPalladioL-Roma;font-size:9.96px;stroke:none;">The results also showed that H</text>
   <text y="429.871" x="230.061" svgx:width="0.5" style="fill:rgb(0,0,0);font-family:URWPalladioL-Roma;font-size:7.57px;stroke:none;">2</text>
   <text y="428.051" x="234.345" svgx:width="0.79" style="fill:rgb(0,0,0);font-family:URWPalladioL-Roma;font-size:9.96px;stroke:none;">O</text>
   <text y="429.871" x="242.019" svgx:width="0.5" style="fill:rgb(0,0,0);font-family:URWPalladioL-Roma;font-size:7.57px;stroke:none;">2</text>
   <text y="428.051" x="248.542,252.877,257.759,263.646,267.786,272.462,276.6452,278.838,283.81800000000004,285.965,291.93,296.607,300.942,304.613,309.29,314.171,318.311,323.0918,325.233,328.074,333.8508,335.992,340.874,343.715,349.114,355.002,363.623,366.464,372.2408,374.382,379.263,384.946,391.02160000000003,393.147,396.33,401.661,404.843,409.725,412.6134,414.812,420.68,424.351,429.681,432.864,437.541,440.382,446.1588,448.31,451.151,455.828,461.344,466.021,468.862,473.001,475.491,477.727,483.126,489.013,492.2998,494.432,497.273,503.0498,505.201,508.384,514.066" svgx:width="0.44,0.5,0.6,0.42,0.48,0.42,0.55,0.5,0.55,0.61,0.48,0.44,0.4,0.48,0.5,0.42,0.48,0.55,0.29,0.58,0.55,0.5,0.29,0.55,0.6,0.88,0.29,0.58,0.55,0.5,0.58,0.61,0.55,0.33,0.55,0.33,0.5,0.29,0.55,0.6,0.4,0.55,0.33,0.48,0.29,0.58,0.55,0.29,0.48,0.56,0.48,0.29,0.42,0.25,0.55,0.55,0.6,0.33,0.55,0.29,0.58,0.55,0.33,0.58,0.48" style="fill:rgb(0,0,0);font-family:URWPalladioL-Roma;font-size:9.96px;stroke:none;">causes a decrease in albumin and total protein levels, but in the</text>
   <text y="441.561" x="76.535,79.718,83.399,88.075,92.957,96.14,100.816,106.8916,109.066,114.495,118.176,123.506,129.394,135.262,139.4452,141.696,144.878,150.561,155.237,158.908,163.6888,165.879,168.721,172.9042,175.155,180.135,182.331,185.513,190.844,194.027,198.909,201.79739999999998,204.044,209.912,213.583,218.914,222.097,226.773,231.108,234.291,237.132,242.463,248.2398,250.44,255.321,260.75,265.632,268.473,274.155,278.295,281.58180000000004,283.772,286.955,292.637,297.4178,299.608,305.573,308.414,317.036,319.877,325.559,331.446,334.629,337.47,342.801,348.57779999999997,350.768,356.099,359.3858,361.644,366.526,369.367,374.766,380.654,389.275,392.116,397.89279999999997,400.092,402.933,408.7098,410.91,414.093,419.775,424.5558,426.746,432.175,435.846,441.176,447.064,453.04,455.226,463.369,469.051,471.892,476.227,482.00379999999996,484.204,487.875,492.551,496.886,501.563,504.404,509.92,514.597" svgx:width="0.33,0.4,0.48,0.5,0.33,0.48,0.61,0.55,0.56,0.4,0.55,0.6,0.6,0.42,0.55,0.33,0.58,0.48,0.4,0.48,0.55,0.29,0.42,0.55,0.5,0.55,0.33,0.55,0.33,0.5,0.29,0.55,0.6,0.4,0.55,0.33,0.48,0.44,0.33,0.29,0.55,0.58,0.55,0.5,0.56,0.5,0.29,0.58,0.42,0.33,0.55,0.33,0.58,0.48,0.55,0.61,0.29,0.88,0.29,0.58,0.6,0.33,0.29,0.55,0.58,0.55,0.55,0.33,0.55,0.5,0.29,0.55,0.6,0.88,0.29,0.58,0.55,0.29,0.58,0.55,0.33,0.58,0.48,0.55,0.56,0.4,0.55,0.6,0.6,0.55,0.83,0.58,0.29,0.44,0.58,0.55,0.4,0.48,0.44,0.48,0.29,0.56,0.48,0.42" style="fill:rgb(0,0,0);font-family:URWPalladioL-Roma;font-size:9.96px;stroke:none;">treated groups there is a total protection against the diminution of albumin in the group which receives</text>
   <text y="455.07" x="76.535,79.835,85.726,90.5068,93.054,100.929,104.745,110.373,115.434,121.21079999999999,123.805,129.331,132.277,135.16539999999998,137.712,142.773,145.719,151.245,157.136,161.9168,164.465,169.526,175.417,181.4926,184.081,187.027,192.8038,195.398,198.697,204.588,209.3688,211.917,217.545,221.361,226.887,232.991,239.074,241.56400000000002,244.084,247.384,253.275,258.336,261.62280000000004,264.116,267.942,272.79,277.285,282.133,285.079,290.798,295.646,299.8292,302.418,310.292,314.108,319.736,324.797,330.5738,333.168,338.695,341.64,344.5284,347.066,355.507,358.453,361.753" svgx:width="0.33,0.58,0.48,0.55,0.78,0.4,0.56,0.5,0.58,0.55,0.55,0.29,0.29,0.55,0.5,0.29,0.55,0.58,0.48,0.55,0.5,0.58,0.61,0.55,0.29,0.58,0.55,0.33,0.58,0.48,0.55,0.56,0.4,0.55,0.6,0.6,0.25,0.55,0.33,0.58,0.5,0.33,0.55,0.4,0.48,0.44,0.48,0.29,0.56,0.48,0.42,0.55,0.78,0.4,0.56,0.5,0.58,0.55,0.55,0.29,0.29,0.55,0.83,0.29,0.33,0.58" style="fill:rgb(0,0,0);font-family:URWPalladioL-Roma;font-size:9.96px;stroke:none;">the Argan oil alone and in the group, that receives Argan oil with</text>
   <text y="455.07" x="370.127,375.755,380.816,385.31,390.371,395.432,398.246,403.874,411.6428,414.229,418.723,422.478,426.972,434.847,439.341,442.712,445.526,449.645,455.273" svgx:width="0.56,0.5,0.44,0.5,0.5,0.28,0.56,0.78,0.55,0.44,0.39,0.44,0.78,0.44,0.33,0.28,0.41,0.56,0.78" style="fill:rgb(0,0,0);font-family:URWPalladioL-Ital;font-size:9.96px;stroke:none;">Syzygium aromaticum</text>
   <text y="455.07" x="465.632,470.48,474.772,479.064,483.912,489.803,493.103,496.049,501.11,503.9984,506.535,512.062,515.007,517.953" svgx:width="0.48,0.42,0.42,0.48,0.58,0.33,0.29,0.5,0.29,0.55,0.55,0.29,0.29,0.25" style="fill:rgb(0,0,0);font-family:URWPalladioL-Roma;font-size:9.96px;stroke:none;">essential oil.</text>
   <text y="468.58" x="76.535,84.716,90.085,98.286,102.996,108.552,113.262,116.408,118.898,121.354,124.56,130.283,135.0638,137.471,143.38,147.087,152.456,155.662,160.372,164.738,167.943,170.805,176.174,181.95080000000002,184.374,189.291,194.758,199.675,202.536,208.259,212.428,215.7148,218.122,221.327,227.05,231.8308,234.238,240.246,243.107,251.79,254.652,260.374,266.304,269.509,272.371,277.74,283.5168,285.94,291.309,294.59580000000005,297.072,300.277,305.646,308.852,313.768,316.65639999999996,319.107,325.017,328.724,334.093,337.299,342.009,344.87,350.6468,353.071,355.932,360.1152,362.589,368.027,372.737,375.943,379.148,383.858,387.842,390.22,398.421,401.283,404.488,410.2648,412.699,420.349,424.046,429.513,434.43,440.2068,442.641,448.009,450.871,453.75939999999997,456.21,460.379,466.309,472.218,478.128,480.99,485.7,494.382,499.092,504.815,508.021,512.731" svgx:width="0.83,0.55,0.83,0.48,0.56,0.48,0.4,0.25,0.55,0.33,0.58,0.48,0.55,0.6,0.4,0.55,0.33,0.48,0.44,0.33,0.29,0.55,0.58,0.55,0.5,0.56,0.5,0.29,0.58,0.42,0.33,0.55,0.33,0.58,0.48,0.55,0.61,0.29,0.88,0.29,0.58,0.6,0.33,0.29,0.55,0.58,0.55,0.55,0.33,0.55,0.33,0.55,0.33,0.5,0.29,0.55,0.6,0.4,0.55,0.33,0.48,0.29,0.58,0.55,0.29,0.42,0.55,0.55,0.48,0.33,0.33,0.48,0.4,0.55,0.83,0.29,0.33,0.58,0.55,0.78,0.4,0.56,0.5,0.58,0.55,0.55,0.29,0.29,0.55,0.42,0.6,0.6,0.6,0.29,0.48,0.88,0.48,0.58,0.33,0.48,0.61" style="fill:rgb(0,0,0);font-family:URWPalladioL-Roma;font-size:9.96px;stroke:none;">However, the protection against the diminution of total protein is better with Argan oil supplemented</text>
   <text y="482.089" x="76.117,84.55,87.493,90.79" svgx:width="0.83,0.29,0.33,0.58" style="fill:rgb(0,0,0);font-family:URWPalladioL-Roma;font-size:9.96px;stroke:none;">with</text>
   <text y="482.089" x="99.173,104.795,109.851,114.341,119.397,124.453,127.264,132.887,140.6558,143.251,147.741,151.493,155.982,163.85,168.339,171.707,174.518,178.633,184.256" svgx:width="0.56,0.5,0.44,0.5,0.5,0.28,0.56,0.78,0.55,0.44,0.39,0.44,0.78,0.44,0.33,0.28,0.41,0.56,0.78" style="fill:rgb(0,0,0);font-family:URWPalladioL-Ital;font-size:9.96px;stroke:none;">Syzygium aromaticum</text>
   <text y="482.089" x="194.625,199.469,203.756,208.044,212.887,218.773,222.069,225.012,230.068,232.9564,235.508,241.029,243.972,246.8604,249.412,252.709,258.594,263.65,269.42679999999996,272.033,279.9,283.722,289.344,294.4,300.17679999999996,302.783,308.305,311.247,314.1354,316.687,321.743,324.686,330.207,336.092,340.936,343.426,346.579,352.777,358.662,363.4428,366.004,372.182,377.026,381.516,385.328,390.172,395.228,399.515,404.2958,406.856,409.799,415.57579999999996,418.182,423.238,426.181,431.772,437.87,446.799,449.742,455.5188,458.124,461.067,465.911,471.624,476.468,479.41,483.5932,486.195,495.124,500.18,505.7576,508.3,513.892" svgx:width="0.48,0.42,0.42,0.48,0.58,0.33,0.29,0.5,0.29,0.55,0.55,0.29,0.29,0.55,0.33,0.58,0.5,0.58,0.55,0.78,0.4,0.56,0.5,0.58,0.55,0.55,0.29,0.29,0.55,0.5,0.29,0.55,0.58,0.48,0.25,0.55,0.61,0.58,0.48,0.55,0.61,0.48,0.44,0.4,0.48,0.5,0.42,0.48,0.55,0.29,0.58,0.55,0.5,0.29,0.55,0.6,0.88,0.29,0.58,0.55,0.29,0.48,0.56,0.48,0.29,0.42,0.55,0.88,0.5,0.56,0.55,0.55,0.48" style="fill:rgb(0,0,0);font-family:URWPalladioL-Roma;font-size:9.96px;stroke:none;">essential oil than Argan oil alone. The decrease in albumin levels may be</text>
   <text y="495.598" x="76.535,82.622,88.63,93.4108,95.892,99.14,104.618,107.07,109.969,115.768,121.825,126.806,135.603,144.4,149.382,152.629,155.528,160.968,166.7448,169.257,174.696,178.68,181.122,184.021,186.921,192.549,197.322,201.306,203.747,207.065,212.046,214.945,217.844,223.852,227.608,232.3888,234.871" svgx:width="0.61,0.6,0.48,0.55,0.33,0.55,0.55,0.29,0.58,0.61,0.5,0.88,0.88,0.5,0.33,0.29,0.55,0.58,0.55,0.55,0.4,0.55,0.29,0.29,0.56,0.48,0.4,0.55,0.33,0.5,0.29,0.29,0.6,0.4,0.48,0.55,0.33" style="fill:rgb(0,0,0);font-family:URWPalladioL-Roma;font-size:9.96px;stroke:none;">due to inﬂammation or liver failure [</text>
   <text y="495.598" x="238.188,243.169" svgx:width="0.5,0.5" style="fill:rgb(8,117,183);font-family:URWPalladioL-Roma;font-size:9.96px;stroke:none;">39</text>
   <text y="495.598" x="248.151,251.468" svgx:width="0.33,0.25" style="fill:rgb(0,0,0);font-family:URWPalladioL-Roma;font-size:9.96px;stroke:none;">].</text>
   <text y="509.108" x="97.795,103.888,106.79,112.235,117.68,123.7556,126.277,131.054,133.956,138.732,143.16,146.411,150.171,155.616,158.518,164.063,167.314,172.0948,174.594,177.915,186.202" svgx:width="0.61,0.29,0.55,0.55,0.61,0.55,0.48,0.29,0.48,0.44,0.33,0.4,0.55,0.29,0.56,0.33,0.48,0.55,0.33,0.83,0.5" style="fill:rgb(0,0,0);font-family:URWPalladioL-Roma;font-size:9.96px;stroke:none;">Blood electrolyte (Na</text>
   <text y="505.491" x="191.185" svgx:width="0.61" style="fill:rgb(0,0,0);font-family:URWPalladioL-Roma;font-size:7.57px;stroke:none;">+</text>
   <text y="509.108" x="196.271,198.761,201.267" svgx:width="0.25,0.55,0.73" style="fill:rgb(0,0,0);font-family:URWPalladioL-Roma;font-size:9.96px;stroke:none;">, K</text>
   <text y="505.491" x="208.509" svgx:width="0.61" style="fill:rgb(0,0,0);font-family:URWPalladioL-Roma;font-size:7.57px;stroke:none;">+</text>
   <text y="509.108" x="213.595,216.085,218.591,225.662" svgx:width="0.25,0.55,0.71,0.29" style="fill:rgb(0,0,0);font-family:URWPalladioL-Roma;font-size:9.96px;stroke:none;">, Cl</text>
   <text y="505.491" x="228.66" svgx:width="0.78" style="fill:rgb(0,0,0);font-family:CMSY10;font-size:7.89px;stroke:none;">−</text>
   <text y="509.108" x="235.385,238.6718,241.209,246.195,251.999,258.0746,260.596,265.023,268.783,273.56,278.546,281.797,284.699,290.503,293.405,299.209,303.9898,306.489,309.391,314.168,319.803,324.58,327.482,331.6652,334.203,342.52,347.297,351.057,355.8378,358.337,364.141,369.586,372.87280000000004,375.34,379.768,385.572,390.558,396.362,401.907,406.684,412.75960000000003,415.28,419.508,422.41,427.955,433.759,436.661,442.694,447.122,452.109,457.913,461.164,464.066,469.6436,472.114,478.207,484.22,488.159,491.061,496.865,502.4426,504.903,508.154,513.958" svgx:width="0.33,0.55,0.5,0.58,0.61,0.55,0.44,0.4,0.48,0.5,0.33,0.29,0.58,0.29,0.58,0.48,0.55,0.29,0.48,0.56,0.48,0.29,0.42,0.55,0.83,0.48,0.4,0.48,0.55,0.58,0.55,0.33,0.55,0.44,0.58,0.5,0.58,0.56,0.48,0.61,0.55,0.42,0.29,0.56,0.58,0.29,0.61,0.44,0.5,0.58,0.33,0.29,0.56,0.55,0.61,0.6,0.4,0.29,0.58,0.56,0.55,0.33,0.58,0.48" style="fill:rgb(0,0,0);font-family:URWPalladioL-Roma;font-size:9.96px;stroke:none;">) and creatinine levels were not changed signiﬁcantly during the</text>
   <text y="522.617" x="76.535,81.398,86.636,92.737,97.6,101.61,104.564,113.528,118.391,124.3,127.609,131.914,134.404,136.959,142.573,148.695,151.9818,154.512,160.126,163.08,168.623,174.166,180.2416,182.866,188.987,192.815,197.678,202.658,205.261,209.768,215.311,221.22,225.727,230.59,236.498,239.808,243.818,248.894,252.203,255.158,260.7,266.47679999999997,269.116,277.583,282.659,286.8422,289.461,293.765,296.719,302.364,308.272,311.226,317.368,321.876,326.952,332.86,336.17,339.124,344.70160000000004,347.276,350.23,356.138,360.646,364.473,369.336,374.412,378.716,383.579,389.6546,392.289,395.243,401.0198,403.649,406.959,412.867,417.6478,420.237,425.882,429.709,435.252,441.374,447.35,449.982,453.81,458.672,463.18,468.043,470.997,476.733,479.687,485.595,491.17260000000005,493.747" svgx:width="0.48,0.52,0.6,0.48,0.4,0.29,0.88,0.48,0.58,0.33,0.42,0.25,0.55,0.55,0.6,0.33,0.55,0.55,0.29,0.55,0.55,0.61,0.55,0.6,0.4,0.48,0.5,0.55,0.44,0.55,0.58,0.44,0.48,0.58,0.33,0.4,0.5,0.33,0.29,0.55,0.58,0.55,0.83,0.5,0.42,0.55,0.42,0.29,0.56,0.58,0.29,0.61,0.44,0.5,0.58,0.33,0.29,0.56,0.55,0.29,0.58,0.44,0.4,0.48,0.5,0.42,0.48,0.61,0.55,0.29,0.58,0.55,0.33,0.58,0.48,0.55,0.56,0.4,0.55,0.6,0.6,0.55,0.4,0.48,0.44,0.48,0.29,0.56,0.29,0.58,0.56,0.55,0.83" style="fill:rgb(0,0,0);font-family:URWPalladioL-Roma;font-size:9.96px;stroke:none;">experiments, but blood urea concentration was signiﬁcantly increased in the group receiving H</text>
   <text y="524.437" x="502.193" svgx:width="0.5" style="fill:rgb(0,0,0);font-family:URWPalladioL-Roma;font-size:7.57px;stroke:none;">2</text>
   <text y="522.617" x="506.477" svgx:width="0.79" style="fill:rgb(0,0,0);font-family:URWPalladioL-Roma;font-size:9.96px;stroke:none;">O</text>
   <text y="524.437" x="514.456" svgx:width="0.5" style="fill:rgb(0,0,0);font-family:URWPalladioL-Roma;font-size:7.57px;stroke:none;">2</text>
   <text y="536.127" x="76.535,81.556,84.478,89.962,95.806,100.616,103.106,106.21,112.346,115.268,120.751,126.234,132.3096,134.861,140.916,144.702,149.512,154.492,157.014,159.936,164.1192,166.685,171.665,174.186,182.562,187.583,191.841,195.114,199.8948,202.415,208.451,212.237,217.72,223.856,229.911,234.37,237.6568,240.124,245.607,248.8938,251.442,257.477,261.263,266.746,270.02,274.83,277.753,283.52979999999997,286.088,294.955,299.765,303.039,308.06,313.604,319.087,322.009,324.931,329.189,338.057,340.547,343.058,347.316,352.899,358.744,362.018,367.862,372.672,376.93,379.853,384.874,389.684,395.75960000000003,398.3,401.223,406.9998,409.558,412.832,418.676,423.4568,425.967,428.889,431.811,437.485,442.296,446.28,448.753,453.774,459.619,465.69460000000004,468.235,473.045,478.227,482.686,486.472,491.282,494.556,499.366,505.4416,507.992,513.546" svgx:width="0.5,0.29,0.55,0.58,0.48,0.25,0.55,0.61,0.29,0.55,0.55,0.61,0.55,0.6,0.4,0.48,0.5,0.55,0.29,0.42,0.55,0.5,0.55,0.83,0.5,0.42,0.33,0.48,0.55,0.6,0.4,0.55,0.61,0.6,0.44,0.33,0.55,0.55,0.33,0.55,0.6,0.4,0.55,0.33,0.48,0.29,0.58,0.55,0.88,0.48,0.33,0.5,0.55,0.55,0.29,0.29,0.42,0.88,0.25,0.55,0.42,0.56,0.58,0.33,0.58,0.48,0.42,0.29,0.5,0.48,0.61,0.55,0.29,0.58,0.55,0.33,0.58,0.48,0.55,0.29,0.29,0.56,0.48,0.4,0.55,0.5,0.58,0.61,0.55,0.48,0.52,0.44,0.4,0.48,0.33,0.48,0.61,0.55,0.55,0.56" style="fill:rgb(0,0,0);font-family:URWPalladioL-Roma;font-size:9.96px;stroke:none;">alone. Blood urea is a waste product of protein metabolism, synthesized in the liver and excreted by</text>
   <text y="549.636" x="76.535,79.848,85.762,90.5428,93.536,99.186,102.143,108.352,114.266,119.133,123.676,126.166,130.535,136.764,142.679,147.546,151.377,156.245,159.628,165.177,169.018,173.886,176.376,179.424,185.338,188.295,193.945,199.7218,202.766,208.385,211.342,216.891,222.439,228.5146,231.544,237.672,241.513,246.38,251.35999999999999,254.357,258.869,264.418,270.545,273.502,279.5776,282.617,288.237,293.0178,296.001,302.209,308.337,313.1178,316.111,319.424,324.902,327.878,331.709,336.577,342.491,347.572,350.4604,353.425,359.634,364.715,373.688,378.769,384.419,389.1998,392.193,400.668,406.582,409.539,414.051,419.82779999999997,422.871,431.346,436.427,440.6102,443.632,449.546,455.094,458.3808,461.313,466.181,471.922,474.879,481.088,485.956,491.87,495.15680000000003,498.079,506.554,509.511,512.824" svgx:width="0.33,0.58,0.48,0.55,0.56,0.29,0.61,0.58,0.48,0.56,0.25,0.55,0.61,0.58,0.48,0.4,0.48,0.33,0.55,0.4,0.48,0.25,0.55,0.58,0.29,0.56,0.58,0.55,0.55,0.29,0.55,0.55,0.61,0.55,0.6,0.4,0.48,0.5,0.55,0.44,0.55,0.6,0.29,0.61,0.55,0.55,0.48,0.55,0.61,0.6,0.48,0.55,0.33,0.55,0.55,0.4,0.48,0.58,0.5,0.29,0.55,0.61,0.5,0.88,0.5,0.56,0.48,0.55,0.83,0.58,0.29,0.44,0.58,0.55,0.83,0.5,0.42,0.55,0.58,0.55,0.33,0.55,0.48,0.56,0.29,0.61,0.48,0.58,0.33,0.55,0.83,0.29,0.33,0.58" style="fill:rgb(0,0,0);font-family:URWPalladioL-Roma;font-size:9.96px;stroke:none;">the kidney. Therefore, high blood urea could be due to renal damage which was not evident with</text>
   <text y="563.145" x="76.535,80.696,83.895,88.801,94.228,97.084,101.8648,104.277,109.183,114.895,120.97059999999999,123.393,129.104,134.462,138.338,147.003,151.91,154.7984,157.258,163.156,166.011,170.918,175.079,183.744,188.724,191.143,195.5,199.2,203.9,208.807,212.006,214.861,220.573,223.428,229.14,233.84,236.33,239.394,244.85,250.768,254.644,257.843,263.554,268.255,272.131,280.796,286.154,289.854,294.554,297.044,299.5,302.699,308.41,313.1908,315.603,320.304,323.159,327.86,333.404,338.311,341.51,346.211,352.2866,354.709,357.564,360.42,365.964,370.665,374.649,377.034,381.734,387.445,392.352,397.808,406.473,411.174,415.3572,417.827,420.683,426.394,432.39,435.245,439.602,444.509,447.708,452.4888,454.911,459.817,465.244,470.955,476.313,480.18,488.845,493.751,496.63939999999997,499.109,501.965,504.821,510.365,515.065" svgx:width="0.42,0.33,0.5,0.55,0.29,0.48,0.55,0.5,0.58,0.61,0.55,0.58,0.55,0.4,0.88,0.5,0.29,0.55,0.6,0.29,0.5,0.42,0.88,0.5,0.55,0.44,0.4,0.48,0.5,0.33,0.29,0.58,0.29,0.58,0.48,0.25,0.55,0.56,0.6,0.4,0.33,0.58,0.48,0.4,0.88,0.55,0.4,0.48,0.25,0.55,0.33,0.58,0.48,0.55,0.48,0.29,0.48,0.56,0.5,0.33,0.48,0.61,0.55,0.29,0.29,0.56,0.48,0.4,0.55,0.48,0.58,0.5,0.56,0.88,0.48,0.42,0.55,0.29,0.58,0.61,0.29,0.44,0.5,0.33,0.48,0.55,0.5,0.55,0.58,0.55,0.4,0.88,0.5,0.29,0.55,0.29,0.29,0.56,0.48,0.4" style="fill:rgb(0,0,0);font-family:URWPalladioL-Roma;font-size:9.96px;stroke:none;">stable and normal plasma creatinine. Furthermore, the elevated liver enzymes indicate abnormal liver</text>
   <text y="576.655" x="76.535,79.806,85.729,91.447,95.808,99.01,101.869,107.232,113.0088,115.435,123.627,129.344,134.049,137.753,142.53379999999999,144.943,147.802,153.165,163.843,169.275,172.134,177.497,182.86,188.93560000000002,191.357,197.281,200.974,205.68,210.66,213.076,215.935,220.1182,222.595,227.3,232.369,238.273,242.978,247.339,250.542,255.247,261.249,263.73900000000003,266.789,272.811,278.528,283.233,286.936,291.642,294.913,300.276,303.97,308.675,311.165,313.626,322.3,327.005,331.366,337.083,341.995,347.712,350.571,354.736,365.895,371.258,374.5448,377.014,381.72,384.578,389.284,394.834,399.745,402.948,407.653,413.72860000000003,416.14,421.572,424.431,429.794,435.158,441.2336,443.645,449.568,453.271,457.977,462.957,465.373,473.566,476.424,479.627,485.4038,487.839,491.041,496.758,501.5388,503.949,509.872,514.037" svgx:width="0.33,0.6,0.58,0.44,0.33,0.29,0.55,0.58,0.55,0.83,0.58,0.48,0.4,0.48,0.55,0.29,0.55,0.83,0.55,0.29,0.55,0.55,0.61,0.55,0.6,0.4,0.48,0.5,0.55,0.29,0.42,0.55,0.48,0.52,0.6,0.48,0.44,0.33,0.48,0.61,0.25,0.55,0.61,0.58,0.48,0.4,0.48,0.33,0.55,0.4,0.48,0.25,0.55,0.88,0.48,0.44,0.58,0.5,0.58,0.29,0.42,0.88,0.55,0.33,0.55,0.48,0.29,0.48,0.56,0.5,0.33,0.48,0.61,0.55,0.55,0.29,0.55,0.55,0.61,0.55,0.6,0.4,0.48,0.5,0.55,0.83,0.29,0.33,0.58,0.55,0.33,0.58,0.48,0.55,0.6,0.42,0.48" style="fill:rgb(0,0,0);font-family:URWPalladioL-Roma;font-size:9.96px;stroke:none;">function where lowblood urea is expected. Therefore, mechanismof elevated blood urea with the use</text>
   <text y="590.164" x="76.535,81.975,85.2618,87.783" svgx:width="0.55,0.33,0.55,0.83" style="fill:rgb(0,0,0);font-family:URWPalladioL-Roma;font-size:9.96px;stroke:none;">of H</text>
   <text y="591.984" x="96.072" svgx:width="0.5" style="fill:rgb(0,0,0);font-family:URWPalladioL-Roma;font-size:7.57px;stroke:none;">2</text>
   <text y="590.164" x="100.356" svgx:width="0.79" style="fill:rgb(0,0,0);font-family:URWPalladioL-Roma;font-size:9.96px;stroke:none;">O</text>
   <text y="591.984" x="108.186" svgx:width="0.5" style="fill:rgb(0,0,0);font-family:URWPalladioL-Roma;font-size:7.57px;stroke:none;">2</text>
   <text y="590.164" x="114.961,120.759,125.531,130.303,136.391,140.5742,143.105,146.423,152.43,156.366,159.613,165.412,170.184,174.168,176.61,181.382,186.522,192.51,197.282,201.217,204.116,212.913,217.685,223.484,226.731,230.956" svgx:width="0.58,0.48,0.48,0.61,0.42,0.55,0.33,0.6,0.4,0.33,0.58,0.48,0.4,0.55,0.48,0.52,0.6,0.48,0.4,0.29,0.88,0.48,0.58,0.33,0.42,0.25" style="fill:rgb(0,0,0);font-family:URWPalladioL-Roma;font-size:9.96px;stroke:none;">needs further experiments.</text>
   <text y="603.674" x="97.795,104.583,109.451,115.101,120.182,124.013,130.221,133.179,139.093,144.67059999999998,147.415,150.728,156.642,161.4228,164.193,167.15,170.107,176.214,179.171,185.2466,188.053,194.16,197.991,203.539,209.687,212.644,217.4248,220.184,223.497,229.411,234.1918,236.951,240.792,245.66,249.969,256.096,259.053,262.366,266.5492,269.347,273.656,279.57,285.118,293.593,298.461,304.5366,307.342,310.655,316.569,321.65,324.9368,327.636" svgx:width="0.67,0.48,0.56,0.5,0.4,0.61,0.29,0.58,0.56,0.55,0.33,0.58,0.48,0.55,0.29,0.29,0.6,0.29,0.61,0.55,0.6,0.4,0.55,0.61,0.29,0.48,0.55,0.33,0.58,0.48,0.55,0.4,0.48,0.42,0.6,0.29,0.33,0.42,0.55,0.42,0.58,0.55,0.83,0.48,0.61,0.55,0.33,0.58,0.5,0.33,0.55,0.83" style="fill:rgb(0,0,0);font-family:URWPalladioL-Roma;font-size:9.96px;stroke:none;">Regarding the lipid proﬁle the results showed that H</text>
   <text y="605.494" x="336.09" svgx:width="0.5" style="fill:rgb(0,0,0);font-family:URWPalladioL-Roma;font-size:7.57px;stroke:none;">2</text>
   <text y="603.674" x="340.374" svgx:width="0.79" style="fill:rgb(0,0,0);font-family:URWPalladioL-Roma;font-size:9.96px;stroke:none;">O</text>
   <text y="605.494" x="348.361" svgx:width="0.5" style="fill:rgb(0,0,0);font-family:URWPalladioL-Roma;font-size:7.57px;stroke:none;">2</text>
   <text y="603.674" x="355.319,359.831,364.912,371.039,375.348,380.216,384.3992,387.197,393.406,399.056,403.364,406.321,409.278,415.386,418.343,424.552,429.419,438.392,441.349,446.329,449.103,457.578,460.535,463.848,469.6248,472.434,477.41400000000004,480.188,486.397,491.264,495.776,499.617,504.485,509.566,513.874" svgx:width="0.44,0.5,0.6,0.42,0.48,0.42,0.55,0.61,0.56,0.42,0.29,0.29,0.6,0.29,0.61,0.48,0.88,0.29,0.5,0.55,0.83,0.29,0.33,0.58,0.55,0.5,0.55,0.61,0.48,0.44,0.4,0.48,0.5,0.42,0.48" style="fill:rgb(0,0,0);font-family:URWPalladioL-Roma;font-size:9.96px;stroke:none;">causes dyslipidemia with a decrease</text>
   <text y="617.183" x="76.535,79.478,85.25479999999999,87.86,91.157,97.042,101.8228,104.384,107.326,112.17,117.883,122.727,125.61540000000001,128.177,133.698,136.9848,139.563,147.977,155.803,161.982,165.349,172.42059999999998,175.016,180.072,185.957,192.0326,194.634,199.69,205.4668,208.083,211.025,216.91,221.4,225.212,230.056,235.112,239.4,244.1808,246.741,249.683,255.4598,258.066,261.363,267.248,272.0288,274.589,277.532,282.376,288.089,292.933,295.875,300.0582,302.671,308.192,311.47880000000004,314.057,320.255,327.425,329.915,332.45,338.629,346.456,352.634,356.001,363.171,365.661,368.197,373.253,379.138,385.2136,387.824,395.125,401.303,409.13,415.309,417.79900000000004,420.334,428.768,434.653,439.497,443.309,448.152,453.209,457.3922,459.994,465.515,468.811,474.697,479.54,483.524,486.032,491.655,495.477,500.998,507.096,513.173,517.46" svgx:width="0.29,0.58,0.55,0.33,0.58,0.48,0.55,0.29,0.48,0.56,0.48,0.29,0.55,0.55,0.33,0.55,0.83,0.77,0.61,0.33,0.71,0.55,0.5,0.58,0.61,0.55,0.5,0.58,0.55,0.29,0.58,0.44,0.4,0.48,0.5,0.42,0.48,0.55,0.29,0.58,0.55,0.33,0.58,0.48,0.55,0.29,0.48,0.56,0.48,0.29,0.42,0.55,0.55,0.33,0.55,0.61,0.71,0.25,0.55,0.61,0.77,0.61,0.33,0.71,0.25,0.55,0.5,0.58,0.61,0.55,0.72,0.61,0.77,0.61,0.25,0.55,0.83,0.58,0.48,0.4,0.48,0.5,0.42,0.55,0.55,0.33,0.58,0.48,0.4,0.55,0.56,0.4,0.55,0.6,0.6,0.42,0.25" style="fill:rgb(0,0,0);font-family:URWPalladioL-Roma;font-size:9.96px;stroke:none;">in the level of HDL-C and an increase in the levels of TC, LDL-C, and VLDL, whereas other groups,</text>
   <text y="630.692" x="76.117,84.26,89.942,92.783,97.118,102.89479999999999,105.056,108.727,113.403,117.738,122.415,125.256,130.772,135.449,141.52460000000002,143.67" svgx:width="0.83,0.58,0.29,0.44,0.58,0.55,0.4,0.48,0.44,0.48,0.29,0.56,0.48,0.61,0.55,0.83" style="fill:rgb(0,0,0);font-family:URWPalladioL-Roma;font-size:9.96px;stroke:none;">which received H</text>
   <text y="632.512" x="151.793" svgx:width="0.5" style="fill:rgb(0,0,0);font-family:URWPalladioL-Roma;font-size:7.57px;stroke:none;">2</text>
   <text y="630.692" x="156.077" svgx:width="0.79" style="fill:rgb(0,0,0);font-family:URWPalladioL-Roma;font-size:9.96px;stroke:none;">O</text>
   <text y="632.512" x="163.751" svgx:width="0.5" style="fill:rgb(0,0,0);font-family:URWPalladioL-Roma;font-size:7.57px;stroke:none;">2</text>
   <text y="630.692" x="170.288,174.623,179.954,188.575,193.974,196.815,202.497,207.174,213.24960000000002,215.395,223.537,226.378,229.561,235.33780000000002,237.489,245.085,248.766,254.194,259.076,264.8528,267.014,272.344,275.185,278.0734,280.272,285.603,289.587,291.715,299.857,302.699,305.881,311.65779999999995,313.819,321.415,325.096,330.514,335.396,341.1728,343.334,348.664,351.506,354.39439999999996,356.602,361.484,367.166" svgx:width="0.44,0.55,0.88,0.55,0.29,0.58,0.48,0.61,0.55,0.83,0.29,0.33,0.58,0.55,0.78,0.4,0.56,0.5,0.58,0.55,0.55,0.29,0.29,0.55,0.55,0.4,0.55,0.83,0.29,0.33,0.58,0.55,0.78,0.4,0.56,0.5,0.58,0.55,0.55,0.29,0.29,0.55,0.5,0.58,0.61" style="fill:rgb(0,0,0);font-family:URWPalladioL-Roma;font-size:9.96px;stroke:none;">combined with Argan oil or with Argan oil and</text>
   <text y="630.692" x="375.384,380.812,385.694,390.029,394.911,399.792,402.507,407.935,417.786,422.121,425.734,430.069,437.664,441.999,445.251,447.965,451.938,457.367" svgx:width="0.56,0.5,0.44,0.5,0.5,0.28,0.56,0.78,0.44,0.39,0.44,0.78,0.44,0.33,0.28,0.41,0.56,0.78" style="fill:rgb(0,0,0);font-family:URWPalladioL-Ital;font-size:9.96px;stroke:none;">Syzygiumaromaticum</text>
   <text y="630.692" x="467.218,471.895,476.034,480.174,484.851,490.533,493.716,496.557,501.439,504.3274,506.535,511.866,514.707,517.548" svgx:width="0.48,0.42,0.42,0.48,0.58,0.33,0.29,0.5,0.29,0.55,0.55,0.29,0.29,0.25" style="fill:rgb(0,0,0);font-family:URWPalladioL-Roma;font-size:9.96px;stroke:none;">essential oil,</text>
   <text y="644.202" x="76.535,82.561,85.431,91.50659999999999,93.943,99.683,105.069,108.3558,110.779,114.961,120.701,126.087,136.798,140.98,143.85,152.559,155.429,158.299,163.231,167.215,169.612,175.638,181.122,185.304,188.174,191.044,196.972,199.842,205.868,210.593,219.302,222.172,227.103,229.59300000000002,232.656,235.98,239.2668,241.691,244.551,248.7342,251.228,259.454,264.178,267.048,269.9364,272.404,277.888,283.628,289.013,297.239,303.01579999999996,305.465,308.68,314.42,319.352,322.6388,325.062,330.448,335.537,338.407,344.433,349.365,352.58,355.45,361.023,365.8038,368.233,372.414,375.63,379.348,384.073,388.254,392.4372,394.922,399.301,404.232,410.0088,412.458,415.328,421.069,427.095,433.042,437.421,442.2018,444.641,447.511,450.381,456.309,459.179,465.2546,467.691,476.4,481.124,484.34,489.271,494.725,500.11,502.981,505.851,510.033" svgx:width="0.61,0.29,0.61,0.55,0.58,0.55,0.33,0.55,0.42,0.58,0.55,0.83,0.42,0.29,0.88,0.29,0.29,0.5,0.4,0.55,0.61,0.56,0.42,0.29,0.29,0.6,0.29,0.61,0.48,0.88,0.29,0.5,0.25,0.55,0.34,0.33,0.55,0.29,0.42,0.55,0.83,0.48,0.29,0.29,0.55,0.56,0.58,0.55,0.83,0.58,0.55,0.33,0.58,0.5,0.33,0.55,0.55,0.52,0.29,0.61,0.5,0.33,0.29,0.56,0.48,0.55,0.42,0.33,0.4,0.48,0.42,0.42,0.55,0.44,0.5,0.58,0.55,0.29,0.58,0.61,0.6,0.44,0.48,0.55,0.29,0.29,0.6,0.29,0.61,0.55,0.88,0.48,0.33,0.5,0.55,0.55,0.29,0.29,0.42,0.88" style="fill:rgb(0,0,0);font-family:URWPalladioL-Roma;font-size:9.96px;stroke:none;">did not showsimilar dyslipidemia. It is well known that oxidative stress can induce lipid metabolism</text>
   <text y="657.711" x="76.535,82.525,85.377,89.534,94.887,98.582,104.572,109.268,113.252,115.62,120.522,126.227,132.3026,134.697,137.55,140.403,146.295,149.147,155.2226,157.627,163.519,168.215,171.901,177.253,182.312,185.164,191.154,196.056,199.251,202.104,207.457,213.2338,215.652,220.554,226.259,232.3346,234.729,237.925,243.631,246.483,250.6662,253.12,257.473,262.825,271.481,277.373,280.226,283.079,287.431,292.333,295.529,298.381,303.734,309.51079999999996,311.929,316.282,321.184,326.9608,329.369,333.722,338.624,344.535,348.691,353.4718,355.867,364.524,369.425,375.131,380.7086,383.071,389.061,391.914,396.07,400.766,405.668,409.824,414.52,418.7032,421.157,425.313,431.225,435.577,441.3538,443.773,448.674,452.8572,455.311,459.664,464.565,468.261,474.251,477.104,482.456,487.995,492.897,497.053,501.406,507.317,510.17,515.071" svgx:width="0.61,0.29,0.42,0.55,0.4,0.61,0.48,0.4,0.55,0.5,0.58,0.61,0.55,0.29,0.29,0.6,0.29,0.61,0.55,0.6,0.48,0.4,0.55,0.52,0.29,0.61,0.5,0.33,0.29,0.55,0.58,0.55,0.5,0.58,0.61,0.55,0.33,0.58,0.29,0.42,0.55,0.44,0.55,0.88,0.6,0.29,0.29,0.44,0.5,0.33,0.29,0.55,0.58,0.55,0.44,0.5,0.58,0.55,0.44,0.5,0.6,0.42,0.48,0.55,0.88,0.5,0.58,0.56,0.55,0.61,0.29,0.42,0.48,0.5,0.42,0.48,0.42,0.55,0.42,0.6,0.44,0.58,0.55,0.5,0.42,0.55,0.44,0.5,0.4,0.61,0.29,0.55,0.56,0.5,0.42,0.44,0.6,0.29,0.5,0.4" style="fill:rgb(0,0,0);font-family:URWPalladioL-Roma;font-size:9.96px;stroke:none;">disorder and lipid peroxidation and this complication can cause many diseases such as cardiovascular</text>
   <text y="671.221" x="76.535,82.622,85.521,89.745,94.518,99.499,103.723,108.495,112.6782,115.21" svgx:width="0.61,0.29,0.42,0.48,0.5,0.42,0.48,0.42,0.55,0.33" style="fill:rgb(0,0,0);font-family:URWPalladioL-Roma;font-size:9.96px;stroke:none;">diseases [</text>
   <text y="671.221" x="118.527" svgx:width="0.5" style="fill:rgb(8,117,183);font-family:URWPalladioL-Roma;font-size:9.96px;stroke:none;">5</text>
   <text y="671.221" x="123.509,126.826" svgx:width="0.33,0.25" style="fill:rgb(0,0,0);font-family:URWPalladioL-Roma;font-size:9.96px;stroke:none;">].</text>
   <text y="684.73" x="97.795,104.583,109.451,115.101,120.182,124.013,130.221,133.179,139.093,144.67059999999998,147.293,150.606,156.52,161.3008,163.928,169.477,173.318,178.968,184.049,189.82580000000002,192.503,200.978,205.846,208.803,214.453,220.367,223.6538,226.22,229.533,235.447,240.2278,242.866,246.697,251.564,255.873,262.0,264.957,268.27,272.4532,275.129,279.438,285.352,290.901,299.376,304.243,310.3186,312.993,316.305,322.219,327.3,330.58680000000004,333.154" svgx:width="0.67,0.48,0.56,0.5,0.4,0.61,0.29,0.58,0.56,0.55,0.33,0.58,0.48,0.55,0.55,0.4,0.56,0.5,0.58,0.55,0.83,0.48,0.29,0.56,0.58,0.33,0.55,0.33,0.58,0.48,0.55,0.4,0.48,0.42,0.6,0.29,0.33,0.42,0.55,0.42,0.58,0.55,0.83,0.48,0.61,0.55,0.33,0.58,0.5,0.33,0.55,0.83" style="fill:rgb(0,0,0);font-family:URWPalladioL-Roma;font-size:9.96px;stroke:none;">Regarding the organ weight the results showed that H</text>
   <text y="686.55" x="341.613" svgx:width="0.5" style="fill:rgb(0,0,0);font-family:URWPalladioL-Roma;font-size:7.57px;stroke:none;">2</text>
   <text y="684.73" x="345.897" svgx:width="0.79" style="fill:rgb(0,0,0);font-family:URWPalladioL-Roma;font-size:9.96px;stroke:none;">O</text>
   <text y="686.55" x="353.884" svgx:width="0.5" style="fill:rgb(0,0,0);font-family:URWPalladioL-Roma;font-size:7.57px;stroke:none;">2</text>
   <text y="684.73" x="360.713,365.022,367.979,373.629,379.543,382.5,388.648,393.16,398.241,404.155,407.468,410.425,416.00260000000003,418.615,421.572,427.487,431.998,435.84,440.707,445.788,450.097,454.964,459.1472,461.813,465.126,471.04,475.8208,478.458,481.415,484.373,490.114,494.982,498.966,501.536,506.617,512.531" svgx:width="0.42,0.29,0.56,0.58,0.29,0.61,0.44,0.5,0.58,0.33,0.29,0.56,0.55,0.29,0.58,0.44,0.4,0.48,0.5,0.42,0.48,0.42,0.55,0.33,0.58,0.48,0.55,0.29,0.29,0.56,0.48,0.4,0.55,0.5,0.58,0.61" style="fill:rgb(0,0,0);font-family:URWPalladioL-Roma;font-size:9.96px;stroke:none;">signiﬁcantly increases the liver and</text>
   <text y="698.239" x="76.535,82.085,84.99,91.09,96.899,101.681,107.2586,109.707,118.032,122.814,125.719,131.269,137.079,140.3658,142.809,147.8,153.61,159.68560000000002,162.195,165.958,170.74,173.645,178.636,181.891,184.795,190.436,195.2168,197.693,206.018,210.8,213.705,219.255,225.065,228.319,232.5022,235.027,243.353,249.163,252.068,254.973,259.7538,262.23,265.135,268.4218,270.865,276.964,281.746,286.178,289.941,294.723,299.714,303.947,308.728,312.9112,315.437,318.691,324.501,329.2818,331.768,337.288,341.232,346.223,349.128,354.90479999999997,357.413,365.739,370.52,373.425,378.975,384.785,388.07180000000005,390.515,395.507,401.316,407.3916,409.891,413.146,418.955,423.7358,426.213,431.733,435.676,440.667,443.572,449.3488,451.858,455.621,460.403,463.308,468.299,471.553,474.458,480.098,484.8788,487.366,495.691,500.473,503.378,508.928,514.738,517.992" svgx:width="0.56,0.29,0.61,0.58,0.48,0.56,0.55,0.83,0.48,0.29,0.56,0.58,0.33,0.55,0.5,0.58,0.61,0.55,0.4,0.48,0.29,0.5,0.33,0.29,0.56,0.48,0.55,0.83,0.48,0.29,0.56,0.58,0.33,0.42,0.55,0.83,0.58,0.29,0.29,0.48,0.55,0.29,0.33,0.55,0.61,0.48,0.44,0.4,0.48,0.5,0.42,0.48,0.42,0.55,0.33,0.58,0.48,0.55,0.55,0.4,0.5,0.29,0.58,0.55,0.83,0.48,0.29,0.56,0.58,0.33,0.55,0.5,0.58,0.61,0.55,0.33,0.58,0.48,0.55,0.55,0.4,0.5,0.29,0.58,0.55,0.4,0.48,0.29,0.5,0.33,0.29,0.56,0.48,0.55,0.83,0.48,0.29,0.56,0.58,0.33,0.25" style="fill:rgb(0,0,0);font-family:URWPalladioL-Roma;font-size:9.96px;stroke:none;">kidney weight and relative weights while it decreases the brain weight and the brain relative weight.</text>
   <text y="711.749" x="76.226,82.211,87.893,90.734,94.9172,96.895,105.038,109.919,114.1022,116.09,120.971,123.813,127.952,133.43,135.304,140.635,146.034,150.174,154.85,158.707,164.223,168.9,174.97560000000001,176.896,185.039,187.88,191.063,196.8398,198.766,201.949,207.631,212.4118,214.329,218.663,223.994,227.245,232.127,238.093,246.714,249.555,255.237,258.078,262.218,265.401,269.257,274.139,277.322,280.163,285.494,291.2708,293.207,298.537,301.8238,303.81" svgx:width="0.61,0.58,0.29,0.42,0.55,0.83,0.5,0.42,0.55,0.5,0.29,0.42,0.55,0.55,0.55,0.55,0.42,0.48,0.4,0.56,0.48,0.61,0.55,0.83,0.29,0.33,0.58,0.55,0.33,0.58,0.48,0.55,0.44,0.55,0.33,0.5,0.61,0.88,0.29,0.58,0.29,0.42,0.33,0.4,0.5,0.33,0.29,0.55,0.58,0.55,0.55,0.33,0.55,0.83" style="fill:rgb(0,0,0);font-family:URWPalladioL-Roma;font-size:9.96px;stroke:none;">This was also observed with the co-administration of H</text>
   <text y="713.569" x="311.933" svgx:width="0.5" style="fill:rgb(0,0,0);font-family:URWPalladioL-Roma;font-size:7.57px;stroke:none;">2</text>
   <text y="711.749" x="316.216" svgx:width="0.79" style="fill:rgb(0,0,0);font-family:URWPalladioL-Roma;font-size:9.96px;stroke:none;">O</text>
   <text y="713.569" x="323.89" svgx:width="0.5" style="fill:rgb(0,0,0);font-family:URWPalladioL-Roma;font-size:7.57px;stroke:none;">2</text>
   <text y="711.749" x="330.199,338.342,341.183,344.366,350.14279999999997,352.069,359.665,363.346,368.774,373.656,379.4328,381.359,386.69,389.531,392.372,394.862,397.752,405.875,411.206,419.348,424.025,429.541,434.218,437.332,439.822,441.892,446.227,451.557,454.809,459.69,465.656,474.277,477.118,482.8,485.641,489.781,492.964,496.82,501.702,504.885,507.726,513.057" svgx:width="0.83,0.29,0.33,0.58,0.55,0.78,0.4,0.56,0.5,0.58,0.55,0.55,0.29,0.29,0.25,0.55,0.83,0.55,0.83,0.48,0.56,0.48,0.4,0.25,0.55,0.44,0.55,0.33,0.5,0.61,0.88,0.29,0.58,0.29,0.42,0.33,0.4,0.5,0.33,0.29,0.55,0.58" style="fill:rgb(0,0,0);font-family:URWPalladioL-Roma;font-size:9.96px;stroke:none;">with Argan oil. However, co-administration</text>
   <text y="725.258" x="76.117,84.26,87.101,90.284,96.0608,98.27,101.453,107.135" svgx:width="0.83,0.29,0.33,0.58,0.55,0.33,0.58,0.48" style="fill:rgb(0,0,0);font-family:URWPalladioL-Roma;font-size:9.96px;stroke:none;">with the</text>
   <text y="725.258" x="114.11,119.538,124.42,128.755,133.637,138.518,141.233,146.661,156.561,160.896,164.508,168.843,176.439,180.774,184.025,186.74,190.713,196.142" svgx:width="0.56,0.5,0.44,0.5,0.5,0.28,0.56,0.78,0.44,0.39,0.44,0.78,0.44,0.33,0.28,0.41,0.56,0.78" style="fill:rgb(0,0,0);font-family:URWPalladioL-Ital;font-size:9.96px;stroke:none;">Syzygiumaromaticum</text>
   <text y="725.258" x="206.042,210.719,214.858,218.998,223.675,229.357,232.54,235.381,240.263,243.1514,245.408,250.739,253.58,256.46840000000003,258.715,263.597,269.279,275.3546,277.549,285.145,288.825,294.254,299.136,304.9128,307.122,312.453,315.294,318.1824,320.429,326.395,329.236,335.3116,337.505,343.188,348.518,351.8048,354.005,358.887,361.953,365.214,369.89,374.225,377.51180000000005,379.703,382.885,388.568,393.3488,395.549,399.229,403.906,406.747,411.629,414.812,417.653,423.169,427.9498,430.14,438.283,442.959,445.8,451.229,456.911,460.19780000000003,462.398,467.729,471.0158,473.284,476.467,482.149,486.9298,489.13,494.559,497.4,503.365,509.047,513.724,518.039" svgx:width="0.48,0.42,0.42,0.48,0.58,0.33,0.29,0.5,0.29,0.55,0.55,0.29,0.29,0.55,0.5,0.58,0.61,0.55,0.78,0.4,0.56,0.5,0.58,0.55,0.55,0.29,0.29,0.55,0.61,0.29,0.61,0.55,0.58,0.55,0.33,0.55,0.5,0.33,0.33,0.48,0.44,0.33,0.55,0.33,0.58,0.48,0.55,0.4,0.48,0.29,0.5,0.33,0.29,0.56,0.48,0.55,0.83,0.48,0.29,0.56,0.58,0.33,0.55,0.55,0.33,0.55,0.33,0.58,0.48,0.55,0.56,0.29,0.61,0.58,0.48,0.56,0.25" style="fill:rgb(0,0,0);font-family:URWPalladioL-Roma;font-size:9.96px;stroke:none;">essential oil and Argan oil did not affect the relative weight of the kidney.</text>
   <text y="738.768" x="76.226,82.211,87.893,92.6738,94.913,99.248,104.93,109.812,115.494,120.923,125.599,129.78220000000002,132.082,134.923,140.6998,142.949,146.132,151.814,156.5948,158.834,166.976,171.653,174.494,179.923,185.605,188.788,192.9712,195.28,200.162,205.844,211.9196,214.153,217.824,222.5,225.342,230.223,233.406,236.247,241.764,246.5448,248.783,256.926,261.603,264.444,269.872,275.555,278.737,282.9202,285.23,290.561,293.8478,296.155,299.338,305.02,309.8008,312.04,317.371,321.042,326.47,331.352,337.034,341.2172,343.527,352.148,357.03,362.6076,364.801,370.2,374.9808,377.22,383.186,389.073,393.8538,396.093,399.276,404.754,406.95,412.632,415.473,419.613,422.796,428.126,433.994,438.876,442.059,447.741,453.072,455.913,461.244,466.672,469.513,473.848,478.73,481.6184,483.914,488.249,493.931,498.813,504.495,509.924,514.6" svgx:width="0.61,0.58,0.48,0.55,0.44,0.58,0.5,0.58,0.56,0.48,0.42,0.55,0.29,0.58,0.55,0.33,0.58,0.48,0.55,0.83,0.48,0.29,0.56,0.58,0.33,0.42,0.55,0.5,0.58,0.61,0.55,0.4,0.48,0.29,0.5,0.33,0.29,0.56,0.48,0.55,0.83,0.48,0.29,0.56,0.58,0.33,0.42,0.55,0.55,0.33,0.55,0.33,0.58,0.48,0.55,0.55,0.4,0.56,0.5,0.58,0.42,0.55,0.88,0.5,0.56,0.55,0.55,0.48,0.55,0.61,0.6,0.48,0.55,0.33,0.55,0.55,0.58,0.29,0.42,0.33,0.55,0.6,0.5,0.33,0.58,0.55,0.29,0.55,0.56,0.29,0.44,0.5,0.29,0.55,0.44,0.58,0.5,0.58,0.56,0.48,0.42" style="fill:rgb(0,0,0);font-family:URWPalladioL-Roma;font-size:9.96px;stroke:none;">The changes in the weights and relative weights of the organs may be due to histopathological changes</text>
   <text y="752.277" x="76.535,80.958,85.94,91.947,96.171,100.943,107.01859999999999,109.521,115.03,120.6076,123.06" svgx:width="0.44,0.5,0.6,0.42,0.48,0.61,0.55,0.55,0.56,0.55,0.83" style="fill:rgb(0,0,0);font-family:URWPalladioL-Roma;font-size:9.96px;stroke:none;">caused by H</text>
   <text y="754.097" x="131.349" svgx:width="0.5" style="fill:rgb(0,0,0);font-family:URWPalladioL-Roma;font-size:7.57px;stroke:none;">2</text>
   <text y="752.277" x="135.633" svgx:width="0.79" style="fill:rgb(0,0,0);font-family:URWPalladioL-Roma;font-size:9.96px;stroke:none;">O</text>
   <text y="754.097" x="143.464,147.25" svgx:width="0.5,0.25" style="fill:rgb(0,0,0);font-family:URWPalladioL-Roma;font-size:7.57px;stroke:none;">2.</text>
  </g>
 </g>
</svg>
