<?xml version="1.0" encoding="UTF-8"?>
<svg height="335.5" width="4087.6" xmlns="http://www.w3.org/2000/svg">
 <g>
  <text svgx:width="0.94,0.39,0.5,0.28,0.41,0.28,0.56,0.39,0.39" y="63.0" x="76.5,84.1,87.2,91.1,93.4,96.6,98.8,103.3,106.4" style="fill:rgb(0,0,0);font-family:URWPalladioL-Ital;font-size:8.0px;stroke:none;" xmlns:svgx="http://www.xml-cml.org/schema/svgx">Medicines</text>
  <text svgx:width="0.5,0.5,0.5,0.5" y="63.0" x="111.4,115.4,119.4,123.4" style="fill:rgb(0,0,0);font-family:URWPalladioL-Bold;font-size:8.0px;stroke:none;" xmlns:svgx="http://www.xml-cml.org/schema/svgx">2017</text>
  <text svgx:width="0.25" y="63.0" x="127.4" style="fill:rgb(0,0,0);font-family:URWPalladioL-Roma;font-size:8.0px;stroke:none;" xmlns:svgx="http://www.xml-cml.org/schema/svgx">,</text>
  <text svgx:width="0.5" y="63.0" x="131.4" style="fill:rgb(0,0,0);font-family:URWPalladioL-Ital;font-size:8.0px;stroke:none;" xmlns:svgx="http://www.xml-cml.org/schema/svgx">4</text>
  <text svgx:width="0.25,0.55,0.5,0.5,0.55,0.5,0.5,0.55,0.55,0.33,0.55,0.5,0.5" y="63.0" x="135.4,137.3,139.3,143.3,147.3,491.8,495.8,499.8,501.8,506.1,508.8,510.8,514.8" style="fill:rgb(0,0,0);font-family:URWPalladioL-Roma;font-size:8.0px;stroke:none;" xmlns:svgx="http://www.xml-cml.org/schema/svgx">, 81 13 of 13</text>
  <text svgx:width="0.5,0.5,0.25,0.55,0.61,0.48,0.58,0.55,0.29,0.33,0.25,0.55,0.52,0.25,0.71,0.25,0.25,0.55,0.73,0.48,0.88,0.6,0.25,0.55,0.71,0.25,0.33,0.25,0.25,0.55,0.61,0.29,0.29,0.5,0.42,0.25,0.55,0.71,0.25,0.56,0.25,0.25,0.55,0.78,0.55,0.6,0.29,0.5,0.58,0.5,0.29,0.6,0.25,0.55,1.0,0.25,0.25,0.55,0.83,0.48,0.4,0.88,0.5,0.58,0.25,0.55,0.33,0.25,0.6,0.25,0.25,0.55,0.95,0.29,0.56,0.4,0.48,0.58,0.58,0.48,0.25,0.55,0.52,0.25,0.25,0.55,0.61,0.48,0.33,0.48,0.56,0.4,0.48,0.25,0.55,0.78,0.25,0.25" y="97.8" x="76.5,81.0,85.5,87.7,98.1,103.6,108.0,113.3,118.3,121.0,124.0,126.2,132.3,137.1,139.4,145.8,148.1,150.4,158.3,164.9,169.3,177.4,182.9,185.1,191.2,197.7,200.0,203.0,205.3,207.5,215.5,221.1,223.7,226.4,231.0,234.8,237.1,243.1,249.6,251.9,256.2,258.4,260.7,268.6,275.7,280.8,286.3,288.9,293.5,298.8,303.4,306.1,311.6,313.8,319.9,328.2,330.5,332.7,340.7,348.3,352.6,356.3,364.3,368.9,374.2,376.5,382.5,385.6,387.8,392.2,394.5,396.7,404.7,413.3,416.0,421.1,424.5,428.9,434.2,439.6,443.9,446.2,452.2,457.0,459.3,461.6,469.5,475.1,479.5,482.5,486.9,492.0,495.5,499.9,502.1,508.2,515.3,517.6" style="fill:rgb(0,0,0);font-family:URWPalladioL-Roma;font-size:9.0px;stroke:none;" xmlns:svgx="http://www.xml-cml.org/schema/svgx">57. Benoit, S.C.; Kemp, C.J.; Elias, C.F.; Abplanalp, W.; Herman, J.P.; Migrenne, S.; Lefevre, A.;</text>
  <text svgx:width="0.71,0.4,0.6,0.44,0.29,0.5,0.58,0.29,0.33,0.76,0.6,0.56,0.29,0.29,0.48,0.29,0.88,0.5,0.44,0.44,0.29,0.25,0.55,0.71,0.25,0.25,0.55,0.95,0.5,0.56,0.58,0.5,0.58,0.25,0.55,0.71,0.25,0.25,0.55,0.67,0.6,0.25,0.55,0.56,0.25,0.25,0.55,0.48,0.33,0.55,0.5,0.29,0.25,0.55,0.6,0.5,0.29,0.88,0.29,0.33,0.29,0.44,0.55,0.5,0.44,0.29,0.61,0.55,0.88,0.48,0.61,0.29,0.5,0.33,0.48,0.42,0.55,0.58,0.56,0.6,0.55,0.33,0.58,0.5,0.29,0.5,0.88,0.29,0.44,0.55,0.29,0.58,0.42,0.6,0.29,0.29,0.58,0.55,0.4,0.48,0.42,0.29,0.42,0.33,0.5,0.58,0.44,0.48" y="110.8" x="98.1,104.4,107.8,113.2,117.2,119.8,124.3,129.5,132.1,135.1,141.9,147.3,152.2,154.8,157.4,161.7,164.3,172.2,176.7,180.7,184.6,187.2,189.5,191.7,198.0,200.3,202.5,204.7,213.2,217.7,222.6,227.8,232.3,237.5,239.7,242.0,248.3,250.5,252.8,255.0,260.2,265.5,267.8,270.0,274.1,276.4,278.6,280.9,285.1,288.1,290.3,294.7,297.3,299.6,302.4,307.8,312.2,314.8,322.7,325.3,328.2,330.8,334.8,337.0,341.5,345.5,348.1,353.5,355.8,363.7,367.9,373.4,376.0,380.5,383.4,387.7,391.4,393.7,398.9,403.9,409.2,414.1,417.0,422.2,426.7,429.3,433.8,441.7,444.3,448.2,450.5,453.1,458.3,462.0,467.4,470.0,472.6,477.8,480.1,483.4,487.7,491.5,494.1,497.9,500.8,505.3,510.5,514.5" style="fill:rgb(0,0,0);font-family:URWPalladioL-Roma;font-size:9.0px;stroke:none;" xmlns:svgx="http://www.xml-cml.org/schema/svgx">Cruciani-Guglielmacci, C.; Magnan, C.; Yu, F.; et al. Palmitic acid mediates hypothalamic insulin resistance</text>
  <text svgx:width="0.55,0.56,0.55,0.5,0.29,0.33,0.48,0.4,0.29,0.58,0.56,0.55,0.6,0.73,0.71,0.33" y="123.7" x="98.1,103.1,108.1,110.9,115.5,118.2,121.2,125.5,129.2,131.8,137.1,142.2,145.0,150.5,157.1,163.6" style="fill:rgb(0,0,0);font-family:URWPalladioL-Roma;font-size:9.0px;stroke:none;" xmlns:svgx="http://www.xml-cml.org/schema/svgx">by altering PKC-</text>
  <text svgx:width="0.55" y="123.7" x="166.7" style="fill:rgb(0,0,0);font-family:EURM10;font-size:9.0px;stroke:none;" xmlns:svgx="http://www.xml-cml.org/schema/svgx">θ</text>
  <text svgx:width="0.42,0.6,0.55,0.44,0.48,0.29,0.29,0.6,0.29,0.5,0.4,0.55,0.29,0.55,0.44,0.5,0.29,0.29,0.5,0.5,0.33,0.29,0.55,0.58,0.55,0.29,0.58,0.55,0.4,0.55,0.61,0.48,0.58,0.33,0.42,0.25" y="123.7" x="174.4,178.3,183.8,188.8,192.9,197.3,200.0,202.6,208.1,210.8,215.4,218.9,221.7,224.4,229.4,233.4,238.0,240.7,243.3,247.9,252.5,255.5,258.1,263.1,268.3,271.2,273.9,279.1,281.9,285.4,290.4,296.0,300.4,305.7,308.7,312.5" style="fill:rgb(0,0,0);font-family:URWPalladioL-Roma;font-size:9.0px;stroke:none;" xmlns:svgx="http://www.xml-cml.org/schema/svgx">subcellular localization in rodents.</text>
  <text svgx:width="0.33,0.25,0.55,0.67,0.28,0.28,0.56,0.25,0.55,0.33,0.56,0.5,0.39,0.39,0.33,0.28,0.5,0.25" y="123.7" x="319.1,322.2,324.4,327.2,333.3,335.9,338.4,343.5,345.7,350.1,353.1,358.2,362.8,366.4,369.9,373.0,375.5,380.1" style="fill:rgb(0,0,0);font-family:URWPalladioL-Ital;font-size:9.0px;stroke:none;" xmlns:svgx="http://www.xml-cml.org/schema/svgx">J. Clin. Investig.</text>
  <text svgx:width="0.5,0.5,0.5,0.5" y="123.7" x="386.7,391.2,395.6,400.1" style="fill:rgb(0,0,0);font-family:URWPalladioL-Bold;font-size:9.0px;stroke:none;" xmlns:svgx="http://www.xml-cml.org/schema/svgx">2009</text>
  <text svgx:width="0.25" y="123.7" x="404.6" style="fill:rgb(0,0,0);font-family:URWPalladioL-Roma;font-size:9.0px;stroke:none;" xmlns:svgx="http://www.xml-cml.org/schema/svgx">,</text>
  <text svgx:width="0.5,0.5,0.5" y="123.7" x="409.8,414.4,418.9" style="fill:rgb(0,0,0);font-family:URWPalladioL-Ital;font-size:9.0px;stroke:none;" xmlns:svgx="http://www.xml-cml.org/schema/svgx">119</text>
  <text svgx:width="0.25,0.55,0.5,0.5,0.5,0.5,0.5,0.5,0.5,0.5,0.5,0.25,0.55,0.33" y="123.7" x="423.5,425.7,428.7,433.2,437.8,442.4,447.0,451.5,456.1,460.7,465.3,469.8,472.1,476.4" style="fill:rgb(0,0,0);font-family:URWPalladioL-Roma;font-size:9.0px;stroke:none;" xmlns:svgx="http://www.xml-cml.org/schema/svgx">, 2577–2589. [</text>
  <text svgx:width="0.71,0.4,0.55,0.42,0.42,0.67,0.48,0.33" y="123.7" x="479.5,486.0,489.4,494.4,498.3,502.2,508.3,512.7" style="fill:rgb(8,117,183);font-family:URWPalladioL-Roma;font-size:9.0px;stroke:none;" xmlns:svgx="http://www.xml-cml.org/schema/svgx">CrossRef</text>
  <text svgx:width="0.33" y="123.7" x="515.7" style="fill:rgb(0,0,0);font-family:URWPalladioL-Roma;font-size:9.0px;stroke:none;" xmlns:svgx="http://www.xml-cml.org/schema/svgx">]</text>
  <text svgx:width="0.33" y="136.6" x="98.1" style="fill:rgb(0,0,0);font-family:URWPalladioL-Roma;font-size:9.0px;stroke:none;" xmlns:svgx="http://www.xml-cml.org/schema/svgx">[</text>
  <text svgx:width="0.6,0.6,0.55,0.95,0.48,0.61" y="136.6" x="101.0,106.5,111.9,116.8,125.3,129.6" style="fill:rgb(8,117,183);font-family:URWPalladioL-Roma;font-size:9.0px;stroke:none;" xmlns:svgx="http://www.xml-cml.org/schema/svgx">PubMed</text>
  <text svgx:width="0.33" y="136.6" x="135.1" style="fill:rgb(0,0,0);font-family:URWPalladioL-Roma;font-size:9.0px;stroke:none;" xmlns:svgx="http://www.xml-cml.org/schema/svgx">]</text>
  <text svgx:width="0.5,0.5,0.25,0.55,0.78,0.56,0.4,0.55,0.4,0.5,0.88,0.55,0.55,0.4,0.33,0.58,0.56,0.25,0.55,0.76,0.25,0.25,0.55,0.71,0.58,0.5,0.58,0.61,0.4,0.5,0.42,0.48,0.56,0.5,0.4,0.5,0.58,0.25,0.55,0.95,0.25,0.25,0.55,0.72,0.48,0.58,0.56,0.5,0.33,0.48,0.42,0.5,0.29,0.6,0.25,0.55,0.72,0.25,0.25,0.55,0.83,0.42,0.6,0.25,0.55,0.95,0.25,0.33,0.25,0.55,0.78,0.58,0.33,0.29,0.55,0.5,0.44,0.33,0.48,0.4,0.29,0.5,0.29,0.55,0.5,0.58,0.61,0.55,0.5,0.58,0.33,0.29,0.33,0.6,0.58,0.56,0.5,0.29,0.55,0.5,0.44,0.33,0.29,0.56,0.29,0.33,0.29,0.48,0.42" y="149.5" x="76.5,81.0,85.5,87.7,98.1,105.1,110.1,113.5,118.4,121.9,126.5,134.4,139.3,144.3,147.8,150.7,156.0,160.0,162.3,164.5,171.4,173.6,175.9,178.2,184.5,189.8,194.3,199.5,205.0,208.6,213.1,216.9,221.2,226.3,230.8,234.3,238.8,244.1,246.3,248.6,257.1,259.4,261.6,263.9,269.4,273.7,278.9,284.0,288.5,291.4,295.7,299.5,304.0,306.7,312.1,314.3,316.6,321.9,324.2,326.4,328.7,336.2,340.0,345.5,347.7,350.0,358.5,360.7,363.7,366.0,368.3,375.3,380.5,383.4,386.1,391.1,395.6,399.6,402.5,406.8,410.4,413.0,417.5,420.1,422.4,426.9,432.1,437.6,439.9,444.4,449.6,452.6,455.2,458.2,463.6,468.9,473.9,478.4,481.0,483.3,487.8,491.8,494.7,497.3,502.4,505.0,508.0,510.6,514.9" style="fill:rgb(0,0,0);font-family:URWPalladioL-Roma;font-size:9.0px;stroke:none;" xmlns:svgx="http://www.xml-cml.org/schema/svgx">58. Agroramoorthy, G.; Chandrasekaran, M.; Venkatesalu, V.; Hsu, M.J. Antibacterial and antifungal activities</text>
  <text svgx:width="0.55,0.33,0.55,0.33,0.5,0.33,0.33,0.56,0.55,0.5,0.44,0.29,0.61,0.55,0.88,0.48,0.33,0.58,0.56,0.29,0.55,0.48,0.42,0.33,0.48,0.4,0.42,0.55,0.55,0.33,0.55,0.33,0.58,0.48,0.55,0.55,0.29,0.29,0.58,0.61,0.33,0.56,0.55,0.6,0.4,0.33,0.48,0.56,0.48,0.55,0.88,0.5,0.58,0.56,0.4,0.55,0.56,0.48,0.55,0.33,0.4,0.55,0.88,0.55,0.34,0.58,0.61,0.29,0.5,0.25" y="162.4" x="98.1,103.0,106.0,108.3,111.3,115.9,118.8,121.8,126.8,129.1,133.7,137.7,140.3,145.8,148.1,156.2,160.5,163.5,168.8,173.9,176.5,178.7,183.1,187.0,189.9,194.3,197.9,201.6,204.0,208.9,211.9,214.2,217.2,222.5,226.8,229.1,234.1,236.8,239.4,244.7,250.3,253.3,258.4,263.3,268.8,272.2,275.3,279.6,284.7,289.0,291.3,299.3,303.9,309.2,314.2,317.7,322.6,327.8,332.1,334.4,337.4,340.8,345.8,353.7,356.1,359.1,364.4,370.0,372.7,377.2" style="fill:rgb(0,0,0);font-family:URWPalladioL-Roma;font-size:9.0px;stroke:none;" xmlns:svgx="http://www.xml-cml.org/schema/svgx">of fatty acid methyl esters of the blind-your-eye mangrove from India.</text>
  <text svgx:width="0.61,0.39,0.44,0.44,0.25,0.55,0.33,0.25,0.55,0.94,0.28,0.41,0.39,0.44,0.46,0.44,0.28,0.25" y="162.4" x="382.3,387.8,391.4,395.4,399.4,401.7,404.5,407.5,409.8,412.0,420.6,423.2,426.9,430.2,434.3,438.5,442.5,445.1" style="fill:rgb(0,0,0);font-family:URWPalladioL-Ital;font-size:9.0px;stroke:none;" xmlns:svgx="http://www.xml-cml.org/schema/svgx">Braz. J. Microbol.</text>
  <text svgx:width="0.5,0.5,0.5,0.5" y="162.4" x="450.1,454.6,459.1,463.6" style="fill:rgb(0,0,0);font-family:URWPalladioL-Bold;font-size:9.0px;stroke:none;" xmlns:svgx="http://www.xml-cml.org/schema/svgx">2007</text>
  <text svgx:width="0.25" y="162.4" x="468.1" style="fill:rgb(0,0,0);font-family:URWPalladioL-Roma;font-size:9.0px;stroke:none;" xmlns:svgx="http://www.xml-cml.org/schema/svgx">,</text>
  <text svgx:width="0.5,0.5" y="162.4" x="472.6,477.1" style="fill:rgb(0,0,0);font-family:URWPalladioL-Ital;font-size:9.0px;stroke:none;" xmlns:svgx="http://www.xml-cml.org/schema/svgx">38</text>
  <text svgx:width="0.25,0.55,0.5,0.5,0.5,0.5,0.5,0.5,0.5,0.25" y="162.4" x="481.7,483.9,486.2,490.7,495.3,499.8,504.4,508.9,513.5,518.0" style="fill:rgb(0,0,0);font-family:URWPalladioL-Roma;font-size:9.0px;stroke:none;" xmlns:svgx="http://www.xml-cml.org/schema/svgx">, 739–742.</text>
  <text svgx:width="0.33" y="175.3" x="98.1" style="fill:rgb(0,0,0);font-family:URWPalladioL-Roma;font-size:9.0px;stroke:none;" xmlns:svgx="http://www.xml-cml.org/schema/svgx">[</text>
  <text svgx:width="0.71,0.4,0.55,0.42,0.42,0.67,0.48,0.33" y="175.3" x="101.0,107.4,110.8,115.7,119.5,123.3,129.3,133.6" style="fill:rgb(8,117,183);font-family:URWPalladioL-Roma;font-size:9.0px;stroke:none;" xmlns:svgx="http://www.xml-cml.org/schema/svgx">CrossRef</text>
  <text svgx:width="0.33" y="175.3" x="136.5" style="fill:rgb(0,0,0);font-family:URWPalladioL-Roma;font-size:9.0px;stroke:none;" xmlns:svgx="http://www.xml-cml.org/schema/svgx">]</text>
  <text svgx:width="0.5,0.5,0.25,0.55,0.6,0.5,0.6,0.5,0.44,0.58,0.4,0.29,0.42,0.33,0.55,0.42,0.25,0.55,0.77,0.25,0.6,0.25,0.25,0.55,0.73,0.5,0.4,0.5,0.88,0.5,0.58,0.55,0.29,0.29,0.25,0.55,0.73,0.25,0.34,0.25,0.25,0.55,0.52,0.33,0.5,0.88,0.55,0.6,0.55,0.6,0.29,0.55,0.42,0.25,0.55,0.77,0.25,0.71,0.25,0.25,0.55,0.52,0.6,0.29,0.4,0.55,0.6,0.61,0.29,0.25,0.55,0.95,0.25,0.78,0.25,0.55,0.61,0.58,0.48,0.55,0.4,0.48,0.29,0.5,0.33,0.29,0.55,0.58,0.42,0.58,0.29,0.6,0.55,0.55,0.48,0.33,0.83,0.48,0.48,0.58,0.55,0.33,0.58,0.48" y="188.2" x="76.5,81.0,85.5,87.7,98.1,103.6,108.1,113.6,118.2,122.3,127.6,131.2,133.9,137.8,140.7,145.7,149.6,151.8,155.2,162.3,164.6,168.9,171.2,173.5,177.4,184.0,188.6,192.2,196.8,204.8,209.4,214.7,219.7,222.4,225.0,227.3,230.6,237.3,239.6,242.6,244.9,247.2,251.1,255.9,258.8,263.4,271.5,276.5,282.0,287.0,292.5,295.2,300.1,304.0,306.3,309.6,316.7,319.0,325.5,327.8,330.0,333.9,338.7,344.2,346.8,350.3,355.3,360.8,366.4,369.1,371.3,374.7,383.3,385.6,392.7,394.9,398.3,403.9,409.2,413.5,416.9,420.4,424.8,427.4,432.0,435.0,437.6,442.6,447.9,451.8,457.1,459.8,465.2,468.6,473.7,478.1,481.0,488.7,493.0,497.4,502.6,506.1,509.0,514.4" style="fill:rgb(0,0,0);font-family:URWPalladioL-Roma;font-size:9.0px;stroke:none;" xmlns:svgx="http://www.xml-cml.org/schema/svgx">59. Papachristos, D.P.; Karamanoli, K.I.; Stamopoulos, D.C.; Spiroudi, M.U. The relationship between the</text>
  <text svgx:width="0.44,0.58,0.48,0.88,0.29,0.44,0.5,0.29,0.55,0.44,0.55,0.88,0.6,0.55,0.42,0.29,0.33,0.29,0.55,0.58,0.55,0.55,0.33,0.55,0.33,0.58,0.4,0.48,0.48,0.55,0.48,0.42,0.42,0.48,0.58,0.33,0.29,0.5,0.29,0.55,0.55,0.29,0.29,0.42,0.55,0.5,0.58,0.61,0.55,0.33,0.58,0.48,0.29,0.4,0.55,0.29,0.58,0.42,0.48,0.44,0.33,0.29,0.44,0.29,0.61,0.5,0.29,0.55,0.5,0.44,0.33,0.29,0.56,0.29,0.33,0.56,0.55,0.5,0.56,0.5,0.29,0.58,0.42,0.33" y="201.1" x="98.1,102.1,107.4,111.8,119.9,122.6,126.6,131.2,133.8,136.3,140.3,145.3,153.4,158.9,163.9,167.8,170.4,173.4,176.1,181.1,186.3,188.8,193.8,196.8,199.3,202.2,207.6,211.0,215.4,219.7,222.2,226.6,230.5,234.3,238.7,244.0,247.0,249.7,254.3,256.9,259.3,264.3,267.0,269.7,273.4,276.0,280.5,285.9,291.3,293.9,296.9,302.2,306.6,309.2,312.8,315.3,317.9,323.2,327.1,331.5,335.6,338.5,341.2,345.3,347.9,353.5,358.1,360.7,363.2,367.7,371.8,374.8,377.4,382.6,385.3,388.2,393.3,395.8,400.3,405.4,410.0,412.6,418.0,421.8" style="fill:rgb(0,0,0);font-family:URWPalladioL-Roma;font-size:9.0px;stroke:none;" xmlns:svgx="http://www.xml-cml.org/schema/svgx">chemical composition of three essential oils and their insecticidal activity against</text>
  <text svgx:width="0.72,0.41,0.44,0.56,0.33,0.5,0.44,0.39,0.41,0.39,0.28,0.28,0.5,0.39,0.39,0.55,0.44,0.46,0.33,0.39,0.41,0.33,0.56,0.39" y="201.1" x="427.3,433.9,437.6,441.6,446.7,449.8,454.3,458.4,462.0,465.7,469.2,471.8,474.3,478.9,482.5,486.0,488.4,492.5,496.7,499.8,503.3,507.1,510.1,515.2" style="fill:rgb(0,0,0);font-family:URWPalladioL-Ital;font-size:9.0px;stroke:none;" xmlns:svgx="http://www.xml-cml.org/schema/svgx">Acanthoscelides obtectus</text>
  <text svgx:width="0.33,0.52,0.5,0.56,0.33,0.25" y="214.1" x="97.8,100.7,105.4,109.9,114.9,117.9" style="fill:rgb(0,0,0);font-family:URWPalladioL-Roma;font-size:9.0px;stroke:none;" xmlns:svgx="http://www.xml-cml.org/schema/svgx">(Say).</text>
  <text svgx:width="0.61,0.39,0.39,0.33,0.55,0.94,0.44,0.56,0.44,0.5,0.25,0.55,0.56,0.41,0.28,0.25" y="214.1" x="122.9,128.4,131.9,135.4,138.3,140.6,149.1,153.1,158.0,162.0,166.5,168.7,171.5,176.5,180.2,182.6" style="fill:rgb(0,0,0);font-family:URWPalladioL-Ital;font-size:9.0px;stroke:none;" xmlns:svgx="http://www.xml-cml.org/schema/svgx">Pest Manag. Sci.</text>
  <text svgx:width="0.5,0.5,0.5,0.5" y="214.1" x="187.7,192.2,196.6,201.1" style="fill:rgb(0,0,0);font-family:URWPalladioL-Bold;font-size:9.0px;stroke:none;" xmlns:svgx="http://www.xml-cml.org/schema/svgx">2004</text>
  <text svgx:width="0.25" y="214.1" x="205.6" style="fill:rgb(0,0,0);font-family:URWPalladioL-Roma;font-size:9.0px;stroke:none;" xmlns:svgx="http://www.xml-cml.org/schema/svgx">,</text>
  <text svgx:width="0.5,0.5" y="214.1" x="210.1,214.6" style="fill:rgb(0,0,0);font-family:URWPalladioL-Ital;font-size:9.0px;stroke:none;" xmlns:svgx="http://www.xml-cml.org/schema/svgx">60</text>
  <text svgx:width="0.25,0.55,0.5,0.5,0.5,0.5,0.5,0.5,0.5,0.25,0.55,0.33" y="214.1" x="219.1,221.3,223.5,228.0,232.5,237.0,241.5,246.0,250.4,254.9,257.2,259.9" style="fill:rgb(0,0,0);font-family:URWPalladioL-Roma;font-size:9.0px;stroke:none;" xmlns:svgx="http://www.xml-cml.org/schema/svgx">, 514–520. [</text>
  <text svgx:width="0.71,0.4,0.55,0.42,0.42,0.67,0.48,0.33" y="214.1" x="262.9,269.3,272.7,277.6,281.4,285.2,291.2,295.4" style="fill:rgb(8,117,183);font-family:URWPalladioL-Roma;font-size:9.0px;stroke:none;" xmlns:svgx="http://www.xml-cml.org/schema/svgx">CrossRef</text>
  <text svgx:width="0.33,0.55,0.33" y="214.1" x="298.4,301.4,303.7" style="fill:rgb(0,0,0);font-family:URWPalladioL-Roma;font-size:9.0px;stroke:none;" xmlns:svgx="http://www.xml-cml.org/schema/svgx">] [</text>
  <text svgx:width="0.6,0.6,0.55,0.95,0.48,0.61" y="214.1" x="306.6,312.1,317.5,322.4,330.9,335.2" style="fill:rgb(8,117,183);font-family:URWPalladioL-Roma;font-size:9.0px;stroke:none;" xmlns:svgx="http://www.xml-cml.org/schema/svgx">PubMed</text>
  <text svgx:width="0.33" y="214.1" x="340.7" style="fill:rgb(0,0,0);font-family:URWPalladioL-Roma;font-size:9.0px;stroke:none;" xmlns:svgx="http://www.xml-cml.org/schema/svgx">]</text>
  <text svgx:width="0.5,0.5,0.25,0.55,0.61,0.48,0.48,0.29,0.5,0.25,0.55,0.83,0.25,0.73,0.25,0.25,0.55,0.52,0.5,0.6,0.58,0.5,0.25,0.55,0.72,0.25,0.6,0.25,0.55,0.71,0.29,0.55,0.56,0.48,0.25" y="227.0" x="76.5,81.0,85.5,87.7,98.1,103.5,107.8,112.1,114.7,119.2,121.5,123.7,131.1,133.4,139.9,142.1,144.4,146.6,151.3,155.8,161.2,166.4,170.9,173.1,175.4,180.7,182.9,187.2,189.4,191.7,198.0,200.6,205.5,210.6,214.9" style="fill:rgb(0,0,0);font-family:URWPalladioL-Roma;font-size:9.0px;stroke:none;" xmlns:svgx="http://www.xml-cml.org/schema/svgx">60. Leela, N.K.; Sapna, V.P. Clove.</text>
  <text svgx:width="0.67,0.5,0.39,0.78,0.25,0.55,0.56,0.61,0.33" y="227.0" x="219.9,225.9,230.4,233.9,240.9,243.1,245.9,250.9,256.3" style="fill:rgb(0,0,0);font-family:URWPalladioL-Ital;font-size:9.0px;stroke:none;" xmlns:svgx="http://www.xml-cml.org/schema/svgx">Chem. SPI</text>
  <text svgx:width="0.5,0.5,0.5,0.5" y="227.0" x="261.8,266.2,270.7,275.2" style="fill:rgb(0,0,0);font-family:URWPalladioL-Bold;font-size:9.0px;stroke:none;" xmlns:svgx="http://www.xml-cml.org/schema/svgx">2008</text>
  <text svgx:width="0.25" y="227.0" x="279.7" style="fill:rgb(0,0,0);font-family:URWPalladioL-Roma;font-size:9.0px;stroke:none;" xmlns:svgx="http://www.xml-cml.org/schema/svgx">,</text>
  <text svgx:width="0.5" y="227.0" x="284.2" style="fill:rgb(0,0,0);font-family:URWPalladioL-Ital;font-size:9.0px;stroke:none;" xmlns:svgx="http://www.xml-cml.org/schema/svgx">8</text>
  <text svgx:width="0.25,0.55,0.5,0.5,0.5,0.5,0.5,0.5,0.5,0.25" y="227.0" x="288.7,290.9,293.1,297.6,302.1,306.6,311.1,315.6,320.0,324.5" style="fill:rgb(0,0,0);font-family:URWPalladioL-Roma;font-size:9.0px;stroke:none;" xmlns:svgx="http://www.xml-cml.org/schema/svgx">, 146–165.</text>
  <text svgx:width="0.5,0.5,0.25,0.55,0.76,0.55,0.58,0.5,0.5,0.29,0.48,0.5,0.33,0.67,0.29,0.56,0.48,0.4,0.5,0.25,0.55,0.33,0.25,0.25,0.55,0.77,0.6,0.44,0.48,0.25,0.55,0.71,0.25,0.25,0.55,0.56,0.5,0.29,0.44,0.55,0.58,0.29,0.48,0.4,0.29,0.25,0.55,0.77,0.25,0.25,0.55,0.56,0.48,0.4,0.4,0.5,0.4,0.29,0.25,0.55,0.71,0.25,0.25,0.55,0.76,0.58,0.48,0.5,0.5,0.29,0.25,0.55,0.61,0.25,0.25,0.55,0.6,0.29,0.4,0.5,0.42,0.25,0.55,0.78,0.25,0.25,0.55,0.61,0.29,0.58,0.48,0.25,0.55,0.95,0.25,0.67,0.25,0.55,0.71,0.55,0.5,0.52,0.29,0.5,0.29,0.55,0.88,0.29,0.44,0.4,0.55,0.83,0.5,0.56,0.48" y="239.9" x="76.5,81.0,85.5,87.7,98.1,104.9,109.7,114.9,119.4,123.8,126.4,130.7,135.2,138.1,144.1,146.7,151.7,156.0,159.5,164.0,166.2,168.5,171.4,173.7,175.9,178.2,185.1,190.5,194.4,198.7,200.9,203.2,209.5,211.7,214.0,216.2,221.2,225.6,228.2,232.2,237.1,242.2,244.8,249.1,252.6,255.2,257.5,259.7,266.6,268.9,271.1,273.3,278.3,282.6,286.1,289.6,294.1,297.6,300.2,302.4,304.7,311.0,313.2,315.5,317.7,324.5,329.7,334.0,338.5,342.9,345.5,347.8,350.0,355.5,357.7,359.9,362.2,367.6,370.2,373.7,378.1,381.9,384.2,386.4,393.3,395.6,397.8,400.1,405.0,407.6,412.8,417.1,419.3,421.6,430.0,432.3,438.2,440.5,442.7,449.0,453.9,458.3,463.0,465.5,470.0,472.6,474.9,482.7,485.3,489.3,492.7,497.5,505.0,509.4,514.5" style="fill:rgb(0,0,0);font-family:URWPalladioL-Roma;font-size:9.0px;stroke:none;" xmlns:svgx="http://www.xml-cml.org/schema/svgx">61. Gonzalez-Rivera, J.; Duce, C.; Falconieri, D.; Ferrari, C.; Ghezzi, L.; Piras, A.; Tine, M.R. Coaxial microwave</text>
  <text svgx:width="0.5,0.42,0.42,0.29,0.42,0.33,0.48,0.61,0.55,0.58,0.56,0.61,0.4,0.55,0.61,0.29,0.42,0.33,0.29,0.29,0.29,0.5,0.33,0.29,0.55,0.58,0.55,0.55,0.33,0.55,0.48,0.42,0.42,0.48,0.58,0.33,0.29,0.5,0.29,0.55,0.55,0.29,0.29,0.42,0.55,0.33,0.4,0.55,0.88,0.61,0.56,0.48,0.55,0.61,0.29,0.33,0.33,0.48,0.4,0.48,0.58,0.33,0.55,0.58,0.48,0.4,0.55,0.42,0.55,0.33,0.29,0.5,0.56,0.48,0.58,0.61,0.48,0.4,0.25,0.55,0.4,0.55,0.42,0.48,0.88,0.5,0.4,0.56,0.25,0.55,0.42,0.5,0.56,0.48,0.25,0.55,0.33,0.48,0.58,0.58,0.48,0.29,0.55,0.42,0.48,0.48,0.61,0.42" y="252.8" x="98.1,102.6,106.4,110.3,112.9,116.7,119.7,124.0,129.5,131.8,137.1,142.1,147.6,151.0,156.0,161.5,164.2,168.0,171.0,173.6,176.2,178.9,183.4,186.3,189.0,193.9,199.1,201.4,206.4,209.3,211.6,216.0,219.8,223.6,228.0,233.2,236.2,238.8,243.4,246.0,248.2,253.2,255.8,258.4,262.2,264.5,267.5,270.9,275.9,286.1,291.6,296.7,301.0,303.3,308.8,311.5,314.3,317.3,321.7,325.1,329.4,334.7,337.6,339.9,345.1,349.5,353.1,358.1,361.8,364.1,367.2,369.8,374.3,379.4,383.8,389.0,394.6,398.9,401.8,404.1,406.3,409.8,414.7,418.5,422.9,430.9,435.4,439.0,443.0,445.3,447.5,451.3,455.9,460.9,465.2,467.5,469.7,472.8,477.1,482.4,487.6,492.0,494.6,496.9,500.7,505.0,509.4,514.9" style="fill:rgb(0,0,0);font-family:URWPalladioL-Roma;font-size:9.0px;stroke:none;" xmlns:svgx="http://www.xml-cml.org/schema/svgx">assisted hydrodistillation of essential oils fromﬁve different herbs (lavender, rosemary, sage, fennel seeds</text>
  <text svgx:width="0.5,0.58,0.61,0.55,0.44,0.29,0.55,0.56,0.48,0.55,0.55,0.6,0.61,0.42,0.33,0.25,0.55,0.71,0.58,0.48,0.88,0.29,0.44,0.5,0.29,0.55,0.44,0.55,0.88,0.6,0.55,0.42,0.29,0.33,0.29,0.55,0.58,0.55,0.5,0.58,0.61,0.55,0.33,0.58,0.48,0.4,0.88,0.5,0.29,0.55,0.5,0.58,0.5,0.29,0.56,0.42,0.29,0.42,0.25" y="265.7" x="98.1,102.6,107.9,113.4,116.2,120.3,122.9,127.9,133.1,137.4,140.2,145.2,150.7,156.3,160.2,163.2,165.5,169.2,175.7,181.0,185.4,193.4,196.1,200.2,204.7,207.3,210.1,214.1,219.1,227.2,232.7,237.7,241.6,244.2,247.2,249.9,254.9,260.1,262.9,267.5,272.8,278.3,281.0,284.0,289.4,293.7,297.3,305.4,310.0,312.6,315.3,319.9,325.2,329.8,332.5,337.6,341.4,344.1,348.0" style="fill:rgb(0,0,0);font-family:URWPalladioL-Roma;font-size:9.0px;stroke:none;" xmlns:svgx="http://www.xml-cml.org/schema/svgx">and clove buds): Chemical composition and thermal analysis.</text>
  <text svgx:width="0.33,0.56,0.56,0.44,0.5,0.25,0.55,0.56,0.44,0.44,0.5,0.55,0.56,0.41,0.28,0.25,0.55,0.61,0.78,0.39,0.39,0.5,0.25,0.55,0.61,0.39,0.41,0.5,0.56,0.44,0.28,0.25" y="265.7" x="354.4,357.4,362.5,367.6,371.6,375.7,378.0,382.1,387.2,391.2,395.3,399.8,402.6,407.6,411.4,413.9,416.1,420.3,425.9,433.0,436.5,439.9,444.5,446.8,450.9,455.5,459.1,462.8,467.4,472.4,476.5,479.0" style="fill:rgb(0,0,0);font-family:URWPalladioL-Ital;font-size:9.0px;stroke:none;" xmlns:svgx="http://www.xml-cml.org/schema/svgx">Innov. Food Sci. Emerg. Technol.</text>
  <text svgx:width="0.5,0.5,0.5,0.5" y="265.7" x="485.4,489.9,494.4,498.9" style="fill:rgb(0,0,0);font-family:URWPalladioL-Bold;font-size:9.0px;stroke:none;" xmlns:svgx="http://www.xml-cml.org/schema/svgx">2016</text>
  <text svgx:width="0.25" y="265.7" x="503.4" style="fill:rgb(0,0,0);font-family:URWPalladioL-Roma;font-size:9.0px;stroke:none;" xmlns:svgx="http://www.xml-cml.org/schema/svgx">,</text>
  <text svgx:width="0.5,0.5" y="265.7" x="508.4,513.0" style="fill:rgb(0,0,0);font-family:URWPalladioL-Ital;font-size:9.0px;stroke:none;" xmlns:svgx="http://www.xml-cml.org/schema/svgx">33</text>
  <text svgx:width="0.25" y="265.7" x="517.6" style="fill:rgb(0,0,0);font-family:URWPalladioL-Roma;font-size:9.0px;stroke:none;" xmlns:svgx="http://www.xml-cml.org/schema/svgx">,</text>
  <text svgx:width="0.5,0.5,0.5,0.5,0.5,0.5,0.5,0.25,0.55,0.33" y="278.6" x="98.1,102.5,107.0,111.5,116.0,120.5,124.9,129.4,131.7,134.5" style="fill:rgb(0,0,0);font-family:URWPalladioL-Roma;font-size:9.0px;stroke:none;" xmlns:svgx="http://www.xml-cml.org/schema/svgx">308–318. [</text>
  <text svgx:width="0.71,0.4,0.55,0.42,0.42,0.67,0.48,0.33" y="278.6" x="137.4,143.8,147.2,152.1,155.9,159.7,165.7,170.0" style="fill:rgb(8,117,183);font-family:URWPalladioL-Roma;font-size:9.0px;stroke:none;" xmlns:svgx="http://www.xml-cml.org/schema/svgx">CrossRef</text>
  <text svgx:width="0.33" y="278.6" x="172.9" style="fill:rgb(0,0,0);font-family:URWPalladioL-Roma;font-size:9.0px;stroke:none;" xmlns:svgx="http://www.xml-cml.org/schema/svgx">]</text>
  <text class="image" id="image.13.1" width="83" height="29" y="251.4" x="77.6" style="font-size:8.0px;">image.13.1.78_161.251_280</text>
  <text svgx:width="0.75,0.55,0.5,0.5,0.5,0.5,0.55,0.55,0.56,0.55,0.33,0.58,0.48,0.55,0.5,0.6,0.33,0.58,0.55,0.4,0.42,0.25,0.55,0.61,0.29,0.44,0.48,0.58,0.42,0.48,0.48,0.55,0.95,0.77,0.6,0.34,0.25,0.55,0.61,0.5,0.42,0.48,0.29,0.25,0.55,0.52,0.83,0.29,0.33,0.5,0.48,0.4,0.29,0.5,0.58,0.61,0.25,0.55,0.61,0.58,0.29,0.42,0.55,0.5,0.4,0.33,0.29,0.44,0.29,0.48,0.55,0.29,0.42,0.55,0.5,0.58,0.55,0.55,0.6,0.48,0.58,0.55,0.5,0.44,0.44,0.48,0.42,0.42" y="299.7" x="168.1,174.8,177.0,181.5,186.1,190.6,195.1,197.4,202.4,207.5,209.7,212.7,218.0,222.3,224.6,229.1,234.6,237.5,242.8,247.8,251.3,255.2,257.4,260.3,265.8,268.4,272.5,276.8,282.1,285.9,290.3,294.6,296.9,305.5,312.5,318.0,321.0,323.3,325.6,331.1,335.6,339.5,343.8,346.5,348.7,351.0,355.8,363.3,366.0,368.9,373.5,377.8,381.4,384.0,388.6,393.8,399.4,401.6,404.5,410.0,415.3,417.9,421.7,424.0,428.6,432.2,435.1,437.8,441.8,444.4,448.7,451.0,453.7,457.4,459.8,464.3,469.5,471.8,476.8,482.2,486.6,491.8,494.1,498.6,502.7,506.7,511.0,514.9" style="fill:rgb(0,0,0);font-family:URWPalladioL-Roma;font-size:9.0px;stroke:none;" xmlns:svgx="http://www.xml-cml.org/schema/svgx">© 2017 by the authors. Licensee MDPI, Basel, Switzerland. This article is an open access</text>
  <text svgx:width="0.5,0.4,0.33,0.29,0.44,0.29,0.48,0.55,0.61,0.29,0.42,0.33,0.4,0.29,0.55,0.6,0.33,0.48,0.61,0.55,0.6,0.58,0.61,0.48,0.4,0.55,0.33,0.58,0.48,0.55,0.33,0.48,0.4,0.88,0.42,0.55,0.5,0.58,0.61,0.55,0.44,0.55,0.58,0.61,0.29,0.33,0.29,0.55,0.58,0.42,0.55,0.55,0.33,0.55,0.33,0.58,0.48,0.55,0.71,0.4,0.48,0.5,0.33,0.29,0.56,0.48,0.55,0.71,0.55,0.88,0.88,0.55,0.58,0.42,0.55,0.78,0.33,0.33,0.4,0.29,0.55,0.6,0.33,0.29,0.55,0.58" y="312.6" x="169.4,173.9,177.5,180.4,183.0,187.0,189.6,193.9,196.1,201.6,204.3,208.1,211.0,214.6,217.2,222.1,227.6,230.5,234.8,240.3,242.5,248.0,253.2,258.7,263.0,266.6,268.8,271.7,276.9,281.2,283.5,286.4,290.7,294.3,302.2,306.0,308.2,312.7,318.0,323.5,325.7,329.7,334.6,339.8,345.3,348.0,350.9,353.5,358.4,363.6,367.4,369.7,374.6,377.6,379.8,382.8,388.0,392.3,394.5,400.9,404.3,408.6,413.1,416.0,418.7,423.7,428.0,430.3,436.6,441.6,449.5,457.4,462.3,467.6,471.4,473.6,480.6,483.6,486.5,490.0,492.6,497.6,503.0,506.0,508.6,513.5" style="fill:rgb(0,0,0);font-family:URWPalladioL-Roma;font-size:9.0px;stroke:none;" xmlns:svgx="http://www.xml-cml.org/schema/svgx">article distributed under the terms and conditions of the Creative Commons Attribution</text>
  <text svgx:width="0.33,0.71,0.71,0.55,0.61,0.67,0.33,0.55,0.29,0.29,0.44,0.48,0.58,0.42,0.48,0.55,0.33,0.58,0.33,0.33,0.6,0.25,0.61,0.61,0.44,0.4,0.48,0.5,0.33,0.29,0.56,0.48,0.44,0.55,0.88,0.88,0.55,0.58,0.42,0.25,0.55,0.4,0.56,0.61,0.29,0.29,0.44,0.48,0.58,0.42,0.48,0.42,0.61,0.55,0.56,0.61,0.5,0.25,0.5,0.61,0.33,0.25" y="325.5" x="169.1,172.1,178.4,184.8,187.0,192.5,198.5,201.5,203.7,206.3,209.0,212.9,217.2,222.4,226.2,230.6,232.8,235.8,241.0,243.9,246.8,252.2,254.5,259.9,265.3,269.3,272.7,277.0,281.5,284.4,287.0,292.1,296.4,300.3,305.2,313.2,321.1,326.0,331.2,335.0,337.2,342.1,345.5,350.5,355.9,358.5,361.1,365.1,369.4,374.6,378.4,382.7,386.5,392.0,396.9,401.9,407.4,411.8,414.1,418.6,424.0,427.0" style="fill:rgb(0,0,0);font-family:URWPalladioL-Roma;font-size:9.0px;stroke:none;" xmlns:svgx="http://www.xml-cml.org/schema/svgx">(CC BY) license (http://creativecommons.org/licenses/by/4.0/).</text>
 </g>
</svg>
