<?xml version="1.0" encoding="UTF-8"?>
<svg height="740.5" width="4151.7" xmlns="http://www.w3.org/2000/svg">
 <g>
  <text svgx:width="0.32,0.5,0.5,0.32" y="63.7" x="141.7,144.9,149.9,154.9" style="fill:rgb(0,0,0);font-family:AdvOTb0c9bf5d;font-size:10.0px;stroke:none;" xmlns:svgx="http://www.xml-cml.org/schema/svgx">[10]</text>
  <text svgx:width="0.72,0.25,0.55,0.67,0.27,0.44,0.5,0.27,0.25,0.55,0.55,0.25,0.55,0.72,0.44,0.44,0.27,0.5,0.44,0.32,0.25,0.55,0.88,0.25,0.55,0.6,0.27,0.5,0.44,0.32,0.55,0.25,0.55,0.55,0.25,0.55,0.6,0.5,0.5,0.44,0.5,0.27,0.27,0.25,0.55,0.72,0.25,0.55,0.72,0.44,0.5,0.27,0.5,0.44,0.25,0.55,0.6,0.6,0.44,0.44,0.27,0.38,0.55,0.5,0.32,0.55,0.32,0.5,0.44,0.38,0.27,0.27,0.5,0.5" y="63.7" x="162.1,169.3,171.8,175.6,182.3,185.0,189.3,194.3,197.0,199.5,203.4,208.9,211.3,215.2,222.4,226.7,231.1,233.8,238.7,243.1,246.3,248.8,252.7,261.6,264.0,267.9,273.9,276.6,281.6,285.9,289.2,294.7,297.2,301.0,306.5,309.0,312.8,318.8,323.8,328.9,333.2,338.2,340.9,343.6,346.1,350.0,357.1,359.6,363.5,370.6,375.0,379.9,382.6,387.6,392.0,394.5,398.3,404.4,410.4,414.8,419.1,421.8,425.6,429.5,434.5,437.7,441.5,444.7,449.7,454.1,457.9,460.7,463.4,468.4" style="fill:rgb(0,122,173);font-family:AdvOTb0c9bf5d;font-size:10.0px;stroke:none;" xmlns:svgx="http://www.xml-cml.org/schema/svgx">H. Rizki, F. Kzaiber, M. Elharﬁ, S. Ennahli, H. Hanine, Eﬀects of roasting</text>
  <text svgx:width="0.27,0.44,0.77,0.5,0.44,0.32,0.44,0.27,0.5,0.32,0.44,0.55,0.44,0.5,0.5,0.55,0.27,0.27,0.77,0.44,0.55,0.5,0.5,0.55,0.27,0.5,0.44,0.55,0.5,0.5,0.5,0.38,0.27,0.44,0.5,0.44,0.5,0.44,0.77,0.27,0.44,0.44,0.27,0.55,0.5,0.32,0.5,0.5,0.44,0.32,0.27,0.27,0.44,0.38,0.55,0.5,0.32,0.55,0.38,0.44,0.38,0.44,0.77,0.44,0.55,0.32" y="78.7" x="162.1,164.8,169.2,176.9,181.9,186.3,189.5,193.8,196.5,201.5,204.7,209.1,212.1,216.5,221.5,226.5,229.5,232.2,234.9,242.5,246.9,250.0,254.9,259.9,263.0,265.7,270.7,275.1,278.0,283.0,288.0,293.0,296.8,299.6,303.9,308.9,313.3,318.2,322.6,330.3,333.0,337.4,341.7,344.4,347.5,352.4,355.7,360.6,365.6,370.0,373.3,376.0,378.6,383.0,386.8,389.9,394.9,398.1,401.1,404.9,409.3,413.1,417.5,425.2,429.6,432.6" style="fill:rgb(0,122,173);font-family:AdvOTb0c9bf5d;font-size:10.0px;stroke:none;" xmlns:svgx="http://www.xml-cml.org/schema/svgx">temperature and time on the physicochemical properties of sesame (</text>
  <text svgx:width="0.5,0.44,0.38,0.5,0.72,0.5,0.72" y="78.7" x="435.9,440.8,445.2,449.0,454.0,461.2,466.1" style="fill:rgb(0,122,173);font-family:AdvOT6bc95374.I;font-size:10.0px;stroke:none;" xmlns:svgx="http://www.xml-cml.org/schema/svgx">Sesamum</text>
  <text svgx:width="0.27,0.5,0.5,0.27,0.44,0.5,0.72,0.55,0.55,0.25" y="93.7" x="162.1,164.8,169.8,174.8,177.6,181.9,186.9,194.1,197.4,202.9" style="fill:rgb(0,122,173);font-family:AdvOT6bc95374.I;font-size:10.0px;stroke:none;" xmlns:svgx="http://www.xml-cml.org/schema/svgx">indicum L.</text>
  <text svgx:width="0.32,0.55,0.38,0.44,0.44,0.5,0.38,0.25,0.55,0.32,0.36,0.32,0.72,0.55,0.55,0.5,0.5,0.55,0.32,0.5,0.5,0.5,0.5,0.32,0.55,0.5,0.5,0.5" y="93.7" x="205.4,208.6,211.9,215.8,220.1,224.5,229.4,233.3,235.8,239.2,242.4,246.0,249.2,256.4,261.9,265.3,270.2,275.2,278.6,281.8,286.8,291.8,296.7,301.7,304.9,308.3,313.3,318.3" style="fill:rgb(0,122,173);font-family:AdvOTb0c9bf5d;font-size:10.0px;stroke:none;" xmlns:svgx="http://www.xml-cml.org/schema/svgx">) seeds, IJIAS 11 (2015) 148</text>
  <text svgx:width="0.75" y="93.7" x="323.3" style="fill:rgb(0,122,173);font-family:AdvPS44A44B;font-size:10.0px;stroke:none;" xmlns:svgx="http://www.xml-cml.org/schema/svgx">e</text>
  <text svgx:width="0.5,0.5,0.5" y="93.7" x="330.7,335.7,340.7" style="fill:rgb(0,122,173);font-family:AdvOTb0c9bf5d;font-size:10.0px;stroke:none;" xmlns:svgx="http://www.xml-cml.org/schema/svgx">155</text>
  <text svgx:width="0.25" y="93.7" x="345.7" style="fill:rgb(0,0,0);font-family:AdvOTb0c9bf5d;font-size:10.0px;stroke:none;" xmlns:svgx="http://www.xml-cml.org/schema/svgx">.</text>
  <text svgx:width="0.32,0.5,0.5,0.32" y="116.1" x="141.7,144.9,149.9,154.9" style="fill:rgb(0,0,0);font-family:AdvOTb0c9bf5d;font-size:10.0px;stroke:none;" xmlns:svgx="http://www.xml-cml.org/schema/svgx">[11]</text>
  <text svgx:width="0.72,0.25,0.55,0.6,0.44,0.5,0.5,0.44,0.5,0.5,0.25,0.55,0.67,0.25,0.55,0.55,0.5,0.5,0.5,0.44,0.25,0.55,0.67,0.25,0.55,0.6,0.27,0.44,0.5,0.44,0.5,0.44,0.5,0.25,0.55,0.55,0.25,0.6,0.25,0.55,0.72,0.27,0.27,0.5,0.44,0.5,0.5,0.25,0.55,0.6,0.25,0.55,0.72,0.44,0.77,0.44,0.44,0.32,0.44,0.25" y="116.1" x="162.1,169.3,171.8,180.9,186.9,191.3,196.3,201.3,205.7,210.6,215.6,218.1,227.2,233.9,236.4,245.5,251.0,256.0,260.9,265.9,270.3,272.8,281.9,288.6,291.1,300.1,306.1,308.9,313.3,318.3,322.6,327.6,331.9,336.9,339.4,348.5,354.0,356.5,362.6,365.0,374.2,381.3,384.0,386.7,391.7,396.0,401.0,406.1,408.6,417.7,423.7,426.2,435.3,442.5,446.9,454.5,458.9,463.2,466.4,470.8" style="fill:rgb(0,122,173);font-family:AdvOTb0c9bf5d;font-size:10.0px;stroke:none;" xmlns:svgx="http://www.xml-cml.org/schema/svgx">N. Tenyang, R. Ponka, B. Tiencheu, F.T. Djikeng, T. Azmeera,</text>
  <text svgx:width="0.88,0.25,0.55,0.25,0.6,0.25,0.55,0.72,0.44,0.32,0.5,0.5,0.44,0.25,0.55,0.67,0.25,0.67,0.25,0.72,0.25,0.55,0.55,0.32,0.44,0.38,0.44,0.5,0.25,0.55,0.72,0.25,0.88,0.25,0.55,0.94,0.5,0.77,0.44,0.5,0.27,0.25,0.55,0.6,0.6,0.44,0.44,0.27,0.38,0.55,0.5,0.32,0.55,0.5,0.5,0.27,0.27,0.27,0.5,0.5,0.55,0.44,0.5,0.5,0.55,0.32,0.5,0.44,0.38,0.27,0.27,0.5,0.5" y="131.0" x="162.1,171.0,173.5,178.9,181.4,187.5,190.0,192.8,199.9,204.3,207.6,212.5,217.5,221.9,224.4,227.1,233.7,236.2,242.9,245.4,252.6,255.1,257.9,263.4,266.6,271.0,274.8,279.1,284.1,286.6,289.4,296.6,299.1,308.0,310.4,313.2,322.5,327.5,335.2,339.6,344.6,347.3,349.7,352.6,358.6,364.6,368.9,373.3,376.0,379.8,382.7,387.7,390.8,393.6,398.6,403.6,406.3,409.0,411.7,416.7,421.7,424.5,428.8,433.8,438.8,441.6,444.8,449.8,454.1,458.0,460.6,463.3,468.3" style="fill:rgb(0,122,173);font-family:AdvOTb0c9bf5d;font-size:10.0px;stroke:none;" xmlns:svgx="http://www.xml-cml.org/schema/svgx">M.S.L. Karuna, R.B.N. Prasad, H.M. Womeni, Eﬀects of boiling and roasting</text>
  <text svgx:width="0.5,0.5,0.55,0.5,0.32,0.5,0.5,0.27,0.77,0.44,0.27,0.44,0.55,0.44,0.5,0.77,0.5,0.5,0.38,0.27,0.27,0.27,0.5,0.5,0.25,0.55,0.27,0.27,0.5,0.27,0.5,0.55,0.5,0.5,0.27,0.5,0.44,0.27,0.27,0.5,0.5,0.25,0.55,0.32,0.44,0.27,0.27,0.5,0.55,0.44,0.44,0.27,0.5,0.55,0.5,0.32,0.5,0.55,0.27,0.44,0.55,0.44,0.5,0.5,0.55,0.77,0.27,0.5,0.44,0.32,0.44,0.27,0.55,0.44,0.5,0.5,0.32" y="145.9" x="162.1,167.1,172.1,175.1,180.0,183.3,188.2,193.2,196.0,203.7,208.0,210.7,215.1,218.1,222.5,227.4,235.1,240.1,245.1,248.9,251.6,254.4,257.1,262.1,267.0,269.5,272.5,275.2,277.9,282.9,285.6,290.6,293.6,298.5,303.5,306.2,311.2,315.5,318.2,320.9,325.9,331.0,333.5,336.4,339.6,344.0,346.7,349.5,354.4,357.4,361.7,366.1,368.8,373.8,376.8,381.8,385.0,390.0,395.5,398.2,402.6,405.5,409.9,414.9,419.8,422.8,430.5,433.2,438.2,442.5,445.7,450.1,452.8,455.8,460.2,465.1,470.1" style="fill:rgb(0,122,173);font-family:AdvOTb0c9bf5d;font-size:10.0px;stroke:none;" xmlns:svgx="http://www.xml-cml.org/schema/svgx">on proximate composition, lipid oxidation, fatty acid proﬁle and mineral con-</text>
  <text svgx:width="0.27,0.44,0.5,0.27,0.55,0.5,0.32,0.55,0.27,0.72,0.5,0.55,0.38,0.44,0.38,0.44,0.77,0.44,0.55,0.5,0.44,0.32,0.27,0.44,0.27,0.27,0.44,0.38,0.55,0.44,0.5,0.77,0.77,0.44,0.32,0.44,0.27,0.44,0.27,0.27,0.44,0.44,0.5,0.55,0.44,0.5,0.5,0.55,0.44,0.5,0.5,0.38,0.5,0.77,0.44,0.5,0.55,0.27,0.5,0.55,0.55,0.44,0.32,0.32,0.72,0.5,0.32,0.27,0.5,0.55,0.67,0.44,0.32" y="160.9" x="162.1,164.8,169.2,174.2,176.9,180.2,185.2,188.3,191.7,194.4,201.5,206.5,209.8,213.7,218.0,221.8,226.2,234.0,238.4,241.6,246.6,251.0,254.2,256.9,261.2,263.9,266.6,270.9,274.7,278.1,282.5,287.5,295.1,302.9,307.3,310.5,314.8,317.5,321.9,324.6,327.2,331.6,336.1,341.1,344.4,348.7,353.7,358.7,362.0,366.3,371.3,376.3,380.1,385.1,392.8,397.1,402.1,405.5,408.2,413.1,416.5,422.0,426.3,429.5,432.7,439.9,444.9,448.1,450.9,455.9,459.2,465.8,470.1" style="fill:rgb(0,122,173);font-family:AdvOTb0c9bf5d;font-size:10.0px;stroke:none;" xmlns:svgx="http://www.xml-cml.org/schema/svgx">tent of two sesame varieties commercialized and consumed in Far-North Re-</text>
  <text svgx:width="0.5,0.27,0.5,0.5,0.55,0.5,0.32,0.55,0.67,0.44,0.77,0.44,0.32,0.5,0.5,0.5,0.25,0.55,0.55,0.5,0.5,0.5,0.55,0.67,0.5,0.44,0.77,0.25,0.55,0.5,0.5,0.5,0.55,0.32,0.5,0.5,0.5,0.5,0.32,0.55,0.5,0.5,0.5,0.5" y="175.8" x="162.1,167.1,169.8,174.8,179.8,183.1,188.1,191.3,194.7,201.3,205.7,213.3,217.7,220.9,226.0,231.0,235.9,238.4,241.8,247.3,252.3,257.3,262.2,265.5,272.2,277.2,281.6,289.3,291.8,295.1,300.1,305.0,310.0,313.4,316.6,321.6,326.6,331.5,336.5,339.7,343.1,348.1,353.1,358.0" style="fill:rgb(0,122,173);font-family:AdvOTb0c9bf5d;font-size:10.0px;stroke:none;" xmlns:svgx="http://www.xml-cml.org/schema/svgx">gion of Cameroon, Food Chem. 221 (2017) 1308</text>
  <text svgx:width="0.75" y="175.8" x="363.1" style="fill:rgb(0,122,173);font-family:AdvPS44A44B;font-size:10.0px;stroke:none;" xmlns:svgx="http://www.xml-cml.org/schema/svgx">e</text>
  <text svgx:width="0.5,0.5,0.5,0.5" y="175.8" x="370.6,375.6,380.6,385.5" style="fill:rgb(0,122,173);font-family:AdvOTb0c9bf5d;font-size:10.0px;stroke:none;" xmlns:svgx="http://www.xml-cml.org/schema/svgx">1316</text>
  <text svgx:width="0.25" y="175.8" x="390.6" style="fill:rgb(0,0,0);font-family:AdvOTb0c9bf5d;font-size:10.0px;stroke:none;" xmlns:svgx="http://www.xml-cml.org/schema/svgx">.</text>
  <text svgx:width="0.32,0.5,0.5,0.32" y="198.3" x="141.7,144.9,149.9,154.9" style="fill:rgb(0,0,0);font-family:AdvOTb0c9bf5d;font-size:10.0px;stroke:none;" xmlns:svgx="http://www.xml-cml.org/schema/svgx">[12]</text>
  <text svgx:width="0.32,0.25,0.55,0.25,0.55,0.67,0.5,0.44,0.5,0.44,0.25,0.55,0.6,0.25,0.67,0.25,0.67,0.25,0.55,0.55,0.44,0.5,0.27,0.44,0.5,0.44,0.25,0.55,0.55,0.25,0.6,0.25,0.55,0.55,0.5,0.44,0.32,0.44,0.38,0.25,0.55,0.6,0.25,0.55,0.25,0.55,0.67,0.27,0.38,0.5,0.5,0.25,0.55,0.6,0.6,0.44,0.44,0.27,0.55,0.5,0.32,0.55,0.27,0.5,0.44,0.55,0.67,0.5,0.44,0.38,0.27,0.27,0.5,0.5" y="198.3" x="162.1,165.4,167.8,173.3,175.8,179.7,186.4,191.3,195.8,200.7,205.1,207.6,211.5,217.5,220.0,226.6,229.1,235.7,238.2,242.1,247.6,252.0,257.0,259.7,264.0,269.0,273.4,275.9,279.8,285.3,287.8,293.8,296.3,300.2,305.7,310.7,315.0,318.2,322.6,326.4,328.9,332.8,338.9,341.4,346.9,349.3,353.3,359.9,362.6,366.4,371.4,376.4,378.9,382.8,388.8,394.8,399.2,403.6,406.3,410.1,415.1,418.3,422.2,424.9,429.9,434.2,438.1,444.8,449.7,454.1,457.9,460.6,463.4,468.4" style="fill:rgb(0,122,173);font-family:AdvOTb0c9bf5d;font-size:10.0px;stroke:none;" xmlns:svgx="http://www.xml-cml.org/schema/svgx">I.S. Rocha, L.R.R. Santana, S.E. Soares, E.S. Bispo, Eﬀect of the Roasting</text>
  <text svgx:width="0.6,0.44,0.77,0.5,0.44,0.32,0.44,0.27,0.5,0.32,0.44,0.55,0.44,0.5,0.5,0.55,0.6,0.27,0.77,0.44,0.55,0.5,0.32,0.55,0.44,0.5,0.44,0.5,0.44,0.55,0.67,0.44,0.44,0.5,0.38,0.55,0.5,0.5,0.55,0.27,0.5,0.44,0.55,0.55,0.44,0.5,0.38,0.5,0.32,0.5,0.55,0.67,0.5,0.44,0.32,0.44,0.44,0.27,0.44,0.32,0.27,0.38,0.27,0.27,0.44,0.38,0.55,0.44,0.5,0.5" y="213.2" x="162.1,168.2,172.5,180.2,185.2,189.5,192.7,197.2,199.9,204.8,208.1,212.4,216.8,221.1,226.2,231.2,235.5,241.5,244.2,251.9,256.3,260.7,265.7,268.8,273.2,277.6,282.5,287.0,292.0,296.3,300.6,307.3,311.6,316.1,321.0,324.8,329.2,334.2,339.2,343.6,346.2,351.2,355.6,360.0,365.5,369.9,374.8,378.7,383.6,386.9,391.8,396.2,402.9,407.8,412.3,415.5,419.8,424.2,426.9,431.2,434.4,437.1,441.0,443.8,446.5,450.8,454.6,459.0,463.4,468.4" style="fill:rgb(0,122,173);font-family:AdvOTb0c9bf5d;font-size:10.0px;stroke:none;" xmlns:svgx="http://www.xml-cml.org/schema/svgx">Temperature and Time of cocoa Beans on the Sensory Characteristics and</text>
  <text svgx:width="0.72,0.44,0.44,0.44,0.5,0.27,0.44,0.5,0.27,0.27,0.27,0.27,0.5,0.55,0.5,0.32,0.55,0.67,0.5,0.5,0.44,0.5,0.27,0.44,0.27,0.44,0.25,0.55,0.55,0.5,0.5,0.5,0.55,0.55,0.44,0.27,0.25,0.55,0.6,0.44,0.44,0.5,0.5,0.5,0.27,0.25,0.55,0.67,0.44,0.77,0.5,0.27,0.5,0.44,0.38,0.25,0.55,0.5,0.5,0.5,0.5,0.25,0.55,0.5,0.5,0.55,0.5,0.25" y="228.1" x="162.1,169.3,173.6,178.0,182.4,187.4,190.1,194.5,199.4,202.1,204.8,207.6,210.3,215.3,218.6,223.6,226.8,230.1,236.8,241.7,246.8,251.1,256.1,258.8,263.2,265.9,270.2,272.7,276.1,281.6,286.6,291.6,296.5,299.9,305.4,309.8,312.4,314.9,318.3,324.3,328.6,333.1,338.1,343.0,348.0,350.7,353.2,356.5,363.2,367.5,375.2,380.2,383.0,387.9,392.3,396.1,398.6,402.0,406.9,411.9,417.0,422.0,424.4,427.7,432.7,437.7,441.1,446.1" style="fill:rgb(0,122,173);font-family:AdvOTb0c9bf5d;font-size:10.0px;stroke:none;" xmlns:svgx="http://www.xml-cml.org/schema/svgx">Acceptability of Chocolate, Food Sci. Technol, Campinas, 2017, 10 p.</text>
  <text svgx:width="0.32,0.5,0.5,0.32" y="250.5" x="141.7,144.9,149.9,154.9" style="fill:rgb(0,0,0);font-family:AdvOTb0c9bf5d;font-size:10.0px;stroke:none;" xmlns:svgx="http://www.xml-cml.org/schema/svgx">[13]</text>
  <text svgx:width="0.72,0.25,0.88,0.25,0.55,0.94,0.5,0.77,0.44,0.5,0.27,0.25,0.55,0.72,0.25,0.55,0.25,0.55,0.6,0.5,0.5,0.32,0.44,0.44,0.5,0.25,0.55,0.67,0.25,0.55,0.72,0.5,0.27,0.44,0.5,0.44,0.5,0.5,0.27,0.5,0.25,0.55,0.88,0.25,0.55,0.25,0.6,0.25,0.55,0.72,0.44,0.32,0.5,0.5,0.44,0.25,0.55,0.67,0.25,0.67,0.25,0.72,0.25,0.55,0.55,0.32,0.44,0.38,0.44,0.5,0.25" y="250.5" x="162.1,169.3,171.8,180.7,183.2,186.1,195.4,200.4,208.1,212.5,217.5,220.2,222.6,225.6,232.7,235.2,240.7,243.2,246.2,252.2,257.2,262.2,265.4,269.8,274.1,279.1,281.6,284.6,291.2,293.7,296.7,303.8,308.8,311.5,315.9,320.8,325.2,330.2,335.1,337.9,342.9,345.4,348.4,357.2,359.7,365.2,367.7,373.7,376.2,379.2,386.3,390.7,393.9,398.9,403.8,408.2,410.7,413.7,420.3,422.8,429.4,431.9,439.1,441.6,444.6,450.1,453.3,457.6,461.5,465.8,470.8" style="fill:rgb(0,122,173);font-family:AdvOTb0c9bf5d;font-size:10.0px;stroke:none;" xmlns:svgx="http://www.xml-cml.org/schema/svgx">H.M. Womeni, D.F. Tonfack, B. Anjaneyulu, M.S.L. Karuna, R.B.N. Prasad,</text>
  <text svgx:width="0.88,0.25,0.55,0.6,0.27,0.5,0.5,0.44,0.32,0.25,0.55,0.72,0.5,0.27,0.5,0.44,0.27,0.27,0.5,0.44,0.55,0.38,0.27,0.44,0.5,0.27,0.27,0.27,0.44,0.44,0.27,0.27,0.5,0.5,0.55,0.5,0.32,0.55,0.67,0.67,0.72,0.55,0.5,0.44,0.27,0.77,0.55,0.5,0.27,0.44,0.27,0.5,0.55,0.5,0.5,0.5,0.44,0.32,0.55,0.32,0.5,0.32,0.44,0.44,0.5,0.55,0.38,0.27,0.5,0.32,0.44,0.5,0.44" y="265.5" x="162.1,171.0,173.4,177.4,183.5,186.2,191.1,196.1,200.5,203.7,206.2,210.2,217.3,222.3,225.1,230.1,234.4,237.1,239.8,244.8,249.1,253.1,257.0,259.7,264.0,269.0,271.7,274.4,277.2,281.5,285.9,288.6,291.3,296.2,301.2,305.2,310.2,313.4,317.4,324.0,330.6,337.8,341.9,346.8,351.2,353.9,361.6,365.6,370.5,373.2,377.6,380.3,385.2,389.3,394.2,399.2,404.2,408.5,411.7,415.8,419.0,424.0,427.2,431.5,435.9,440.9,444.9,448.7,451.4,456.4,459.7,464.0,469.0" style="fill:rgb(0,122,173);font-family:AdvOTb0c9bf5d;font-size:10.0px;stroke:none;" xmlns:svgx="http://www.xml-cml.org/schema/svgx">M. Linder, Oxidative stabilization of RBD palm olein under forced storage</text>
  <text svgx:width="0.44,0.5,0.5,0.5,0.27,0.27,0.27,0.5,0.5,0.38,0.55,0.5,0.5,0.55,0.5,0.27,0.5,0.55,0.67,0.44,0.77,0.44,0.32,0.5,0.5,0.5,0.27,0.44,0.5,0.55,0.5,0.32,0.44,0.44,0.5,0.55,0.27,0.44,0.44,0.55,0.27,0.44,0.44,0.5,0.44,0.38,0.55,0.77,0.44,0.27,0.5,0.44,0.5,0.5,0.27,0.27,0.44,0.55,0.44,0.5,0.27,0.32,0.44,0.44,0.27,0.25,0.55,0.72,0.55,0.55,0.55,0.36,0.25" y="280.5" x="162.1,166.5,171.5,176.5,181.4,184.1,186.9,189.6,194.6,199.6,203.4,207.3,212.3,217.2,221.1,226.1,228.8,233.8,237.7,244.3,248.6,256.3,260.7,263.9,269.0,273.9,278.9,281.6,286.0,290.9,294.8,299.8,303.0,307.3,311.7,316.7,320.6,323.3,327.6,332.0,335.9,338.6,342.9,347.3,352.3,356.6,360.4,364.4,372.1,376.4,379.1,384.1,388.5,393.5,398.4,401.1,403.8,408.2,412.1,416.5,421.4,424.1,427.3,431.8,436.1,438.8,441.3,445.2,452.4,457.9,463.3,467.2,470.8" style="fill:rgb(0,122,173);font-family:AdvOTb0c9bf5d;font-size:10.0px;stroke:none;" xmlns:svgx="http://www.xml-cml.org/schema/svgx">conditions by old Cameroonian green tea leaves methanolic extract, NFS J.</text>
  <text svgx:width="0.5,0.55,0.32,0.5,0.5,0.5,0.5,0.32,0.55,0.5,0.5" y="295.4" x="162.1,167.1,170.5,173.7,178.7,183.6,188.6,193.6,196.8,200.2,205.2" style="fill:rgb(0,122,173);font-family:AdvOTb0c9bf5d;font-size:10.0px;stroke:none;" xmlns:svgx="http://www.xml-cml.org/schema/svgx">3 (2016) 33</text>
  <text svgx:width="0.75" y="295.4" x="210.2" style="fill:rgb(0,122,173);font-family:AdvPS44A44B;font-size:10.0px;stroke:none;" xmlns:svgx="http://www.xml-cml.org/schema/svgx">e</text>
  <text svgx:width="0.5,0.5" y="295.4" x="217.6,222.6" style="fill:rgb(0,122,173);font-family:AdvOTb0c9bf5d;font-size:10.0px;stroke:none;" xmlns:svgx="http://www.xml-cml.org/schema/svgx">40</text>
  <text svgx:width="0.25" y="295.4" x="227.6" style="fill:rgb(0,0,0);font-family:AdvOTb0c9bf5d;font-size:10.0px;stroke:none;" xmlns:svgx="http://www.xml-cml.org/schema/svgx">.</text>
  <text svgx:width="0.32,0.5,0.5,0.32" y="317.8" x="141.7,144.9,149.9,154.9" style="fill:rgb(0,0,0);font-family:AdvOTb0c9bf5d;font-size:10.0px;stroke:none;" xmlns:svgx="http://www.xml-cml.org/schema/svgx">[14]</text>
  <text svgx:width="0.6,0.25,0.72,0.25,0.55,0.67,0.27,0.27,0.5,0.5,0.25,0.55,0.94,0.25,0.36,0.25,0.55,0.72,0.5,0.44,0.32,0.25,0.55,0.72,0.55,0.32,0.44,0.5,0.27,0.5,0.55,0.77,0.44,0.27,0.5,0.5,0.5,0.55,0.32,0.5,0.32,0.55,0.27,0.5,0.27,0.44,0.27,0.55,0.27,0.27,0.5,0.27,0.5,0.55,0.44,0.5,0.27,0.32,0.44,0.44,0.27,0.27,0.5,0.5,0.55,0.44,0.5,0.5,0.55,0.5,0.5,0.32,0.27,0.55,0.44,0.44,0.32" y="317.8" x="162.1,168.2,170.7,177.8,180.3,183.4,190.0,192.7,195.4,200.4,205.4,207.9,211.0,220.4,222.9,226.5,229.0,232.1,239.3,244.2,248.6,251.9,254.4,257.4,264.6,267.7,270.9,275.3,280.2,282.9,287.9,291.1,298.7,303.1,305.8,310.8,315.7,320.7,323.9,327.1,332.1,335.3,338.4,341.1,346.1,348.8,353.1,355.8,358.9,361.6,364.3,369.3,372.0,377.0,380.1,384.5,389.5,392.2,395.4,399.7,404.1,406.8,409.5,414.4,419.4,422.6,426.9,431.9,436.9,440.0,445.0,450.0,453.2,455.9,461.4,465.8,470.1" style="fill:rgb(0,122,173);font-family:AdvOTb0c9bf5d;font-size:10.0px;stroke:none;" xmlns:svgx="http://www.xml-cml.org/schema/svgx">E.G. Bligh, W.J. Dyer, A rapid method for total lipid extraction and puriﬁca-</text>
  <text svgx:width="0.27,0.27,0.5,0.5,0.25,0.55,0.67,0.44,0.5,0.25,0.55,0.36,0.25,0.55,0.55,0.5,0.5,0.38,0.27,0.5,0.27,0.25,0.55,0.55,0.5,0.44,0.32,0.77,0.44,0.44,0.5,0.27,0.25,0.55,0.5,0.5,0.55,0.32,0.5,0.5,0.5,0.5,0.32,0.55,0.5,0.5" y="332.7" x="162.1,164.8,167.5,172.5,177.6,180.1,183.3,190.0,194.3,199.4,201.9,205.2,208.8,211.3,214.6,220.1,225.1,230.1,233.9,236.6,241.7,244.4,246.9,250.2,255.7,260.7,265.0,268.2,276.0,280.3,284.7,289.7,292.4,294.8,298.2,303.2,308.2,311.5,314.7,319.7,324.7,329.7,334.7,337.8,341.2,346.2" style="fill:rgb(0,122,173);font-family:AdvOTb0c9bf5d;font-size:10.0px;stroke:none;" xmlns:svgx="http://www.xml-cml.org/schema/svgx">tion, Can. J. Physiol. Pharmacol. 37 (1959) 11</text>
  <text svgx:width="0.75" y="332.7" x="351.2" style="fill:rgb(0,122,173);font-family:AdvPS44A44B;font-size:10.0px;stroke:none;" xmlns:svgx="http://www.xml-cml.org/schema/svgx">e</text>
  <text svgx:width="0.5,0.5,0.5" y="332.7" x="358.7,363.7,368.7" style="fill:rgb(0,122,173);font-family:AdvOTb0c9bf5d;font-size:10.0px;stroke:none;" xmlns:svgx="http://www.xml-cml.org/schema/svgx">917</text>
  <text svgx:width="0.25" y="332.7" x="373.7" style="fill:rgb(0,0,0);font-family:AdvOTb0c9bf5d;font-size:10.0px;stroke:none;" xmlns:svgx="http://www.xml-cml.org/schema/svgx">.</text>
  <text svgx:width="0.32,0.5,0.5,0.32" y="355.2" x="141.7,144.9,149.9,154.9" style="fill:rgb(0,0,0);font-family:AdvOTb0c9bf5d;font-size:10.0px;stroke:none;" xmlns:svgx="http://www.xml-cml.org/schema/svgx">[15]</text>
  <text svgx:width="0.72,0.25,0.55,0.72,0.44,0.5,0.25,0.55,0.88,0.25,0.55,0.72,0.5,0.27,0.44,0.5,0.5,0.44,0.32,0.25,0.55,0.72,0.25,0.55,0.36,0.44,0.5,0.5,0.38,0.38,0.5,0.5,0.25,0.55,0.6,0.25,0.55,0.67,0.27" y="355.2" x="162.1,169.3,171.8,174.8,181.9,186.3,191.3,193.8,196.8,205.6,208.1,211.1,218.2,223.2,225.9,230.2,235.2,240.3,244.7,247.9,250.4,253.4,260.5,263.0,266.0,269.6,274.0,279.0,283.9,287.8,291.6,296.6,301.7,304.2,307.1,313.1,315.6,318.6,325.2" style="fill:rgb(0,122,173);font-family:AdvOTb0c9bf5d;font-size:10.0px;stroke:none;" xmlns:svgx="http://www.xml-cml.org/schema/svgx">X. Gao, M. Ohlander, N. Jeppsson, L. Bj</text>
  <text svgx:width="0.5" y="354.9" x="328.0" style="fill:rgb(0,122,173);font-family:AdvP4C4E59;font-size:10.0px;stroke:none;" xmlns:svgx="http://www.xml-cml.org/schema/svgx">€</text>
  <text svgx:width="0.5,0.32,0.5,0.25,0.55,0.72,0.25,0.55,0.6,0.32,0.44,0.27,0.5,0.5,0.5,0.38,0.5,0.27,0.25,0.55,0.67,0.5,0.44,0.5,0.5,0.44,0.38,0.55,0.27,0.5,0.55,0.44,0.5,0.27,0.27,0.32" y="355.2" x="328.0,333.0,336.2,341.1,343.6,346.6,353.8,356.3,359.3,365.3,368.5,372.8,375.5,380.5,385.5,390.6,394.4,399.4,402.1,404.5,407.6,414.2,419.2,423.5,428.5,433.5,437.9,441.7,444.7,447.4,452.4,455.4,459.8,464.7,467.4,470.1" style="fill:rgb(0,122,173);font-family:AdvOTb0c9bf5d;font-size:10.0px;stroke:none;" xmlns:svgx="http://www.xml-cml.org/schema/svgx">ork, V. Trajkovski, Changes in anti-</text>
  <text svgx:width="0.5,0.5,0.27,0.5,0.44,0.5,0.27,0.55,0.44,0.6,0.44,0.44,0.27,0.38,0.55,0.44,0.5,0.5,0.55,0.27,0.5,0.44,0.27,0.32,0.55,0.32,0.44,0.27,0.44,0.27,0.27,0.5,0.5,0.38,0.5,0.27,0.5,0.55,0.27,0.5,0.55,0.5,0.5,0.5,0.27,0.5,0.5,0.5,0.27,0.32,0.27,0.44,0.5,0.27,0.38,0.55,0.27,0.5,0.55,0.32,0.32,0.5,0.27,0.27,0.38,0.55,0.5,0.32,0.55,0.38,0.44,0.44,0.55,0.5,0.5,0.44,0.5,0.32" y="370.1" x="162.1,167.1,172.1,174.8,179.8,184.1,189.2,191.9,195.5,199.9,206.0,210.3,214.7,217.4,221.1,224.9,229.3,234.2,239.2,242.9,245.6,250.5,254.9,257.7,260.9,264.5,267.7,272.1,274.8,279.1,281.9,284.6,289.6,294.6,298.4,303.4,306.1,311.1,314.8,317.4,322.4,326.2,331.1,336.1,341.1,343.8,348.8,353.8,358.8,361.5,364.7,367.4,371.7,376.7,379.4,383.2,387.0,389.7,394.7,398.3,401.5,404.7,409.7,412.5,415.2,419.0,422.7,427.7,430.9,434.6,438.4,442.7,447.1,450.8,455.8,460.8,465.1,470.1" style="fill:rgb(0,122,173);font-family:AdvOTb0c9bf5d;font-size:10.0px;stroke:none;" xmlns:svgx="http://www.xml-cml.org/schema/svgx">oxidant eﬀects and their relationship to phytonutrients in fruits of sea buck-</text>
  <text svgx:width="0.27,0.5,0.5,0.32,0.5,0.55,0.32" y="385.1" x="162.1,164.8,169.8,174.8,178.0,183.0,190.4" style="fill:rgb(0,122,173);font-family:AdvOTb0c9bf5d;font-size:10.0px;stroke:none;" xmlns:svgx="http://www.xml-cml.org/schema/svgx">thorn (</text>
  <text svgx:width="0.72,0.27,0.5,0.5,0.5,0.5,0.5,0.5,0.44,0.55,0.38,0.5,0.5,0.72,0.5,0.5,0.27,0.5,0.44,0.38" y="385.1" x="193.6,200.8,203.5,208.4,213.4,218.4,223.5,228.5,233.4,237.8,245.1,249.0,254.0,258.9,266.2,271.2,276.1,278.8,283.8,288.2" style="fill:rgb(0,122,173);font-family:AdvOT6bc95374.I;font-size:10.0px;stroke:none;" xmlns:svgx="http://www.xml-cml.org/schema/svgx">Hippophae rhamnoides</text>
  <text svgx:width="0.6,0.32,0.55,0.5,0.5,0.32,0.27,0.5,0.5,0.55,0.77,0.44,0.27,0.5,0.32,0.44,0.27,0.27,0.5,0.5,0.25,0.55,0.67,0.44,0.5,0.25,0.55,0.36,0.25,0.55,0.55,0.5,0.5,0.38,0.27,0.5,0.27,0.25" y="385.1" x="299.4,305.4,308.6,316.0,321.0,326.0,329.2,331.9,336.9,341.8,349.2,356.9,361.3,363.9,368.9,372.1,376.5,379.2,382.0,387.0,392.0,394.5,401.8,408.4,412.8,417.8,420.3,427.6,431.3,433.8,441.1,446.6,451.6,456.7,460.5,463.2,468.2,470.9" style="fill:rgb(0,122,173);font-family:AdvOTb0c9bf5d;font-size:10.0px;stroke:none;" xmlns:svgx="http://www.xml-cml.org/schema/svgx">L) during maturation, Can. J. Physiol.</text>
  <text svgx:width="0.55,0.5,0.44,0.32,0.77,0.44,0.44,0.5,0.27,0.25,0.55,0.5,0.5,0.55,0.32,0.5,0.5,0.5,0.5,0.32,0.55,0.5,0.5,0.5,0.5" y="400.0" x="162.1,167.6,172.6,177.0,180.2,187.9,192.3,196.6,201.6,204.3,206.8,210.2,215.1,220.1,223.5,226.7,231.7,236.7,241.6,246.6,249.8,253.2,258.2,263.2,268.1" style="fill:rgb(0,122,173);font-family:AdvOTb0c9bf5d;font-size:10.0px;stroke:none;" xmlns:svgx="http://www.xml-cml.org/schema/svgx">Pharmacol. 48 (2000) 1485</text>
  <text svgx:width="0.75" y="400.0" x="273.1" style="fill:rgb(0,122,173);font-family:AdvPS44A44B;font-size:10.0px;stroke:none;" xmlns:svgx="http://www.xml-cml.org/schema/svgx">e</text>
  <text svgx:width="0.5,0.5,0.5,0.5" y="400.0" x="280.7,285.7,290.7,295.6" style="fill:rgb(0,122,173);font-family:AdvOTb0c9bf5d;font-size:10.0px;stroke:none;" xmlns:svgx="http://www.xml-cml.org/schema/svgx">1490</text>
  <text svgx:width="0.25" y="400.0" x="300.6" style="fill:rgb(0,0,0);font-family:AdvOTb0c9bf5d;font-size:10.0px;stroke:none;" xmlns:svgx="http://www.xml-cml.org/schema/svgx">.</text>
  <text svgx:width="0.32,0.5,0.5,0.32" y="422.4" x="141.7,144.9,149.9,154.9" style="fill:rgb(0,0,0);font-family:AdvOTb0c9bf5d;font-size:10.0px;stroke:none;" xmlns:svgx="http://www.xml-cml.org/schema/svgx">[16]</text>
  <text svgx:width="0.72,0.25,0.55,0.67,0.32,0.44,0.44,0.44,0.25,0.55,0.67,0.25,0.55,0.55,0.5,0.32,0.27,0.27,0.5,0.5,0.25,0.55,0.88,0.25,0.55,0.55,0.5,0.27,0.27,0.27,0.27,0.25,0.55,0.32,0.25,0.55,0.88,0.5,0.32,0.44,0.27,0.27,0.27,0.25,0.55,0.36,0.25,0.55,0.88,0.44,0.5,0.5,0.44,0.44,0.25,0.55,0.72,0.5,0.27,0.27,0.5,0.5,0.27,0.5,0.44,0.5,0.27,0.55,0.44,0.44,0.27,0.27,0.5,0.27,0.27,0.5,0.55,0.5,0.32" y="422.4" x="162.1,169.3,171.8,174.9,181.5,184.7,189.1,193.5,197.8,200.3,203.4,210.1,212.5,215.7,221.2,226.1,229.4,232.0,234.7,239.7,244.7,247.2,250.4,259.2,261.7,264.8,270.3,275.2,277.9,280.6,283.3,286.0,288.5,291.6,294.8,297.3,300.4,309.2,314.2,317.4,321.8,324.5,327.2,330.0,332.4,335.5,339.1,341.6,344.7,353.5,357.9,362.8,367.8,372.2,376.6,379.1,382.2,389.3,394.3,397.1,399.8,404.7,409.7,412.4,417.4,421.8,426.7,429.4,432.6,436.9,441.3,444.0,446.7,451.7,454.4,457.1,462.1,465.2,470.1" style="fill:rgb(0,122,173);font-family:AdvOTb0c9bf5d;font-size:10.0px;stroke:none;" xmlns:svgx="http://www.xml-cml.org/schema/svgx">A. Braca, C. Sortino, M. Politi, I. Morelli, J. Mendez, Antioxidant activity of</text>
  <text svgx:width="0.55,0.44,0.5,0.5,0.5,0.5,0.27,0.5,0.38,0.55,0.32,0.32,0.5,0.77" y="437.3" x="162.1,167.6,172.0,177.0,182.0,186.9,191.9,194.7,199.7,203.5,211.6,214.8,218.1,223.0" style="fill:rgb(0,122,173);font-family:AdvOTb0c9bf5d;font-size:10.0px;stroke:none;" xmlns:svgx="http://www.xml-cml.org/schema/svgx">ﬂavonoids from</text>
  <text svgx:width="0.55,0.27,0.44,0.5,0.5,0.27,0.5,0.55,0.27,0.27,0.44,0.5,0.5,0.27,0.5,0.44,0.5,0.5,0.38,0.5" y="437.3" x="238.9,244.4,247.1,251.4,256.4,261.4,264.2,269.2,277.3,280.0,282.7,287.0,292.1,297.1,299.8,304.7,309.1,314.1,319.1,323.0" style="fill:rgb(0,122,173);font-family:AdvOT6bc95374.I;font-size:10.0px;stroke:none;" xmlns:svgx="http://www.xml-cml.org/schema/svgx">Licania licaniaeﬂora</text>
  <text svgx:width="0.25,0.55,0.36,0.25,0.55,0.6,0.27,0.5,0.5,0.5,0.5,0.5,0.44,0.32,0.77,0.44,0.44,0.5,0.27,0.25,0.55,0.5,0.5,0.55,0.32,0.5,0.5,0.5,0.5,0.32" y="437.3" x="327.9,330.4,338.6,342.2,344.7,352.8,358.8,361.6,366.6,371.6,376.5,381.5,386.5,390.8,394.1,401.8,406.2,410.5,415.5,418.2,420.7,428.8,433.9,438.9,447.0,450.2,455.2,460.1,465.1,470.1" style="fill:rgb(0,122,173);font-family:AdvOTb0c9bf5d;font-size:10.0px;stroke:none;" xmlns:svgx="http://www.xml-cml.org/schema/svgx">, J. Ethnopharmacol. 79 (2002)</text>
  <text svgx:width="0.5,0.5,0.5" y="452.3" x="162.1,167.1,172.1" style="fill:rgb(0,122,173);font-family:AdvOTb0c9bf5d;font-size:10.0px;stroke:none;" xmlns:svgx="http://www.xml-cml.org/schema/svgx">379</text>
  <text svgx:width="0.75" y="452.3" x="177.1" style="fill:rgb(0,122,173);font-family:AdvPS44A44B;font-size:10.0px;stroke:none;" xmlns:svgx="http://www.xml-cml.org/schema/svgx">e</text>
  <text svgx:width="0.5,0.5,0.5" y="452.3" x="184.6,189.6,194.6" style="fill:rgb(0,122,173);font-family:AdvOTb0c9bf5d;font-size:10.0px;stroke:none;" xmlns:svgx="http://www.xml-cml.org/schema/svgx">381</text>
  <text svgx:width="0.25" y="452.3" x="199.6" style="fill:rgb(0,0,0);font-family:AdvOTb0c9bf5d;font-size:10.0px;stroke:none;" xmlns:svgx="http://www.xml-cml.org/schema/svgx">.</text>
  <text svgx:width="0.32,0.5,0.5,0.32" y="474.7" x="141.7,144.9,149.9,154.9" style="fill:rgb(0,0,0);font-family:AdvOTb0c9bf5d;font-size:10.0px;stroke:none;" xmlns:svgx="http://www.xml-cml.org/schema/svgx">[17]</text>
  <text svgx:width="0.32,0.72,0.55,0.25,0.55,0.32,0.5,0.27,0.44,0.32,0.5,0.44,0.27,0.27,0.5,0.5,0.44,0.27,0.55,0.32,0.72,0.55,0.55,0.55,0.27,0.44,0.5,0.5,0.44,0.32,0.5,0.55,0.5,0.5,0.72,0.25,0.55,0.67,0.44,0.27,0.5,0.27,0.5,0.77,0.25,0.55,0.67,0.32,0.5,0.38,0.38,0.44,0.27,0.38,0.25,0.55,0.5,0.5,0.5,0.5" y="474.7" x="162.1,165.4,172.5,178.0,180.5,183.9,187.1,192.0,194.7,199.1,202.4,207.4,211.7,214.4,217.1,222.1,227.1,231.4,234.1,237.5,240.8,247.9,253.4,256.8,262.3,265.0,269.3,274.3,279.3,283.6,286.9,291.9,295.2,300.2,305.2,312.3,314.8,318.2,324.8,329.2,331.8,336.9,339.6,344.6,352.3,354.8,358.1,364.8,368.0,373.0,376.8,380.6,385.0,387.7,391.5,394.0,397.4,402.4,407.4,412.4" style="fill:rgb(0,122,173);font-family:AdvOTb0c9bf5d;font-size:10.0px;stroke:none;" xmlns:svgx="http://www.xml-cml.org/schema/svgx">IDF, International IDF Standard 74A, Belgium, Brussels, 1991</text>
  <text svgx:width="0.25" y="474.7" x="417.4" style="fill:rgb(0,0,0);font-family:AdvOTb0c9bf5d;font-size:10.0px;stroke:none;" xmlns:svgx="http://www.xml-cml.org/schema/svgx">.</text>
  <text svgx:width="0.32,0.5,0.5,0.32" y="497.1" x="141.7,144.9,149.9,154.9" style="fill:rgb(0,0,0);font-family:AdvOTb0c9bf5d;font-size:10.0px;stroke:none;" xmlns:svgx="http://www.xml-cml.org/schema/svgx">[18]</text>
  <text svgx:width="0.72,0.72,0.67,0.55,0.25,0.55,0.72,0.82,0.44,0.27,0.44,0.27,0.55,0.88,0.44,0.27,0.5,0.5,0.5,0.38,0.55,0.44,0.5,0.5,0.55,0.67,0.44,0.44,0.5,0.77,0.77,0.44,0.5,0.5,0.44,0.5,0.55,0.55,0.32,0.44,0.44,0.27,0.27,0.44,0.44,0.38,0.55,0.5,0.32,0.55,0.27,0.5,0.44,0.55,0.72,0.77,0.44,0.32,0.27,0.44,0.44,0.5,0.55,0.72,0.27,0.27" y="497.1" x="162.1,169.3,176.5,183.2,188.7,191.2,195.3,202.5,210.7,215.0,217.7,222.1,224.8,228.9,237.7,242.0,244.7,249.8,254.8,259.8,263.5,267.7,272.1,277.1,282.1,286.2,292.8,297.2,301.5,306.5,314.2,322.0,326.3,331.3,336.3,340.6,345.6,349.7,355.2,358.4,362.9,367.2,369.9,372.6,377.0,381.3,385.1,389.3,394.3,397.5,401.7,404.4,409.3,413.7,417.8,425.0,432.7,437.0,440.2,443.0,447.4,451.7,456.7,460.8,468.0,470.6" style="fill:rgb(0,122,173);font-family:AdvOTb0c9bf5d;font-size:10.0px;stroke:none;" xmlns:svgx="http://www.xml-cml.org/schema/svgx">AOCS, Oﬃcial Methods and Recommended Practices of the American Oil</text>
  <text svgx:width="0.67,0.5,0.44,0.77,0.27,0.38,0.27,0.32,0.38,0.55,0.55,0.5,0.44,0.27,0.44,0.27,0.5,0.25,0.55,0.5,0.27,0.5,0.55,0.44,0.5,0.25,0.25,0.55,0.72,0.77,0.44,0.32,0.27,0.44,0.44,0.5,0.55,0.72,0.27,0.27,0.55,0.67,0.5,0.44,0.77,0.27,0.38,0.27,0.32,0.38,0.55,0.55,0.5,0.44,0.27,0.44,0.27,0.5,0.25,0.55,0.67,0.5,0.44,0.77,0.5,0.44,0.27,0.5,0.5,0.25" y="512.1" x="162.1,168.8,173.8,178.2,185.9,188.6,192.4,195.1,198.3,202.1,207.2,212.7,217.7,222.1,224.7,229.1,231.8,236.8,239.3,244.4,249.3,252.0,257.0,262.0,266.4,271.4,273.9,276.4,281.4,288.6,296.3,300.6,303.8,306.6,311.0,315.3,320.3,325.3,332.5,335.2,337.9,342.9,349.6,354.6,358.9,366.6,369.4,373.2,375.9,379.1,382.9,388.0,393.5,398.5,402.8,405.5,409.9,412.6,417.6,420.0,425.1,431.8,436.8,441.1,448.8,453.8,458.1,460.9,465.9,470.9" style="fill:rgb(0,122,173);font-family:AdvOTb0c9bf5d;font-size:10.0px;stroke:none;" xmlns:svgx="http://www.xml-cml.org/schema/svgx">Chemist’s Society, 5th ed., American Oil Chemist’s Society, Champaign,</text>
  <text svgx:width="0.32,0.6,0.25,0.55,0.72,0.55,0.72,0.25,0.55,0.5,0.5,0.5,0.5,0.25,0.55,0.88,0.44,0.27,0.5,0.5,0.5,0.38,0.55,0.67,0.5,0.55,0.5" y="527.0" x="162.1,165.4,171.4,173.9,177.2,184.4,189.9,197.0,199.5,202.9,207.9,212.9,217.9,222.8,225.3,228.7,237.5,241.9,244.6,249.5,254.5,259.5,263.3,266.7,273.4,278.4,281.7" style="fill:rgb(0,122,173);font-family:AdvOTb0c9bf5d;font-size:10.0px;stroke:none;" xmlns:svgx="http://www.xml-cml.org/schema/svgx">IL, USA, 2003. Methods Cd 8</text>
  <text svgx:width="0.75" y="527.0" x="286.7" style="fill:rgb(0,122,173);font-family:AdvPS44A44B;font-size:10.0px;stroke:none;" xmlns:svgx="http://www.xml-cml.org/schema/svgx">e</text>
  <text svgx:width="0.5,0.5,0.25,0.55,0.67,0.5,0.55,0.5,0.5" y="527.0" x="294.2,299.2,304.1,306.6,309.9,316.6,321.6,324.9,329.9" style="fill:rgb(0,122,173);font-family:AdvOTb0c9bf5d;font-size:10.0px;stroke:none;" xmlns:svgx="http://www.xml-cml.org/schema/svgx">53, Cd 18</text>
  <text svgx:width="0.75" y="527.0" x="334.9" style="fill:rgb(0,122,173);font-family:AdvPS44A44B;font-size:10.0px;stroke:none;" xmlns:svgx="http://www.xml-cml.org/schema/svgx">e</text>
  <text svgx:width="0.5,0.5,0.25,0.55,0.67,0.5,0.55,0.5,0.5" y="527.0" x="342.4,347.4,352.4,354.9,358.2,364.8,369.8,373.2,378.1" style="fill:rgb(0,122,173);font-family:AdvOTb0c9bf5d;font-size:10.0px;stroke:none;" xmlns:svgx="http://www.xml-cml.org/schema/svgx">90, Cd 19</text>
  <text svgx:width="0.75" y="527.0" x="383.1" style="fill:rgb(0,122,173);font-family:AdvPS44A44B;font-size:10.0px;stroke:none;" xmlns:svgx="http://www.xml-cml.org/schema/svgx">e</text>
  <text svgx:width="0.5,0.5" y="527.0" x="390.6,395.6" style="fill:rgb(0,122,173);font-family:AdvOTb0c9bf5d;font-size:10.0px;stroke:none;" xmlns:svgx="http://www.xml-cml.org/schema/svgx">90</text>
  <text svgx:width="0.25" y="527.0" x="400.6" style="fill:rgb(0,0,0);font-family:AdvOTb0c9bf5d;font-size:10.0px;stroke:none;" xmlns:svgx="http://www.xml-cml.org/schema/svgx">.</text>
  <text svgx:width="0.32,0.5,0.5,0.32" y="549.4" x="141.7,144.9,149.9,154.9" style="fill:rgb(0,0,0);font-family:AdvOTb0c9bf5d;font-size:10.0px;stroke:none;" xmlns:svgx="http://www.xml-cml.org/schema/svgx">[19]</text>
  <text svgx:width="0.72,0.25,0.72,0.25,0.55,0.72,0.32,0.44,0.5,0.44,0.32,0.25,0.55,0.88,0.25,0.55,0.72,0.44,0.5,0.27,0.44,0.5,0.25,0.55,0.88,0.44,0.27,0.5,0.5,0.5,0.27,0.44,0.27,0.5,0.44,0.5,0.5,0.5,0.44,0.55,0.5,0.44,0.27,0.44,0.32,0.77,0.27,0.5,0.44,0.27,0.27,0.5,0.5,0.55,0.44,0.38,0.55,0.27,0.5,0.5,0.44,0.5,0.55,0.5,0.32,0.55,0.27,0.27,0.5,0.27,0.5" y="549.4" x="162.1,169.3,171.8,178.9,181.4,185.8,192.9,196.1,200.6,205.6,209.9,213.1,215.6,220.0,228.8,231.3,235.6,242.8,247.1,252.1,254.9,259.2,264.2,266.7,271.1,279.9,284.2,286.9,292.0,297.0,301.9,304.6,309.0,311.7,316.6,321.0,326.0,331.0,335.9,340.3,344.7,349.7,354.0,356.7,361.1,364.4,372.0,374.7,379.8,384.1,386.8,389.5,394.5,399.5,403.8,408.2,412.0,416.4,419.0,424.0,429.0,433.4,438.3,442.7,447.7,450.9,455.3,458.0,460.7,465.7,468.4" style="fill:rgb(0,122,173);font-family:AdvOTb0c9bf5d;font-size:10.0px;stroke:none;" xmlns:svgx="http://www.xml-cml.org/schema/svgx">H.H. Draper, M. Hadley, Malondialdehyde determination as index of lipid</text>
  <text svgx:width="0.5,0.44,0.32,0.5,0.5,0.27,0.5,0.44,0.27,0.27,0.5,0.5,0.25,0.55,0.88,0.44,0.27,0.5,0.5,0.5,0.38,0.55,0.6,0.5,0.44,0.5,0.77,0.5,0.27,0.25,0.55,0.5,0.5,0.5,0.55,0.32,0.5,0.5,0.5,0.5,0.32,0.55,0.5,0.5,0.5" y="564.4" x="162.1,167.1,171.5,174.7,179.7,184.7,187.4,192.4,196.8,199.5,202.1,207.1,212.1,214.6,218.0,226.8,231.2,233.8,238.8,243.9,248.9,252.7,256.0,262.0,267.0,271.4,276.4,284.0,289.0,291.8,294.3,297.6,302.6,307.6,312.6,315.9,319.1,324.1,329.1,334.0,339.0,342.2,345.7,350.6,355.6" style="fill:rgb(0,122,173);font-family:AdvOTb0c9bf5d;font-size:10.0px;stroke:none;" xmlns:svgx="http://www.xml-cml.org/schema/svgx">peroxidation, Methods Enzymol. 186 (1990) 421</text>
  <text svgx:width="0.75" y="564.4" x="360.6" style="fill:rgb(0,122,173);font-family:AdvPS44A44B;font-size:10.0px;stroke:none;" xmlns:svgx="http://www.xml-cml.org/schema/svgx">e</text>
  <text svgx:width="0.5,0.5,0.5" y="564.4" x="368.1,373.1,378.1" style="fill:rgb(0,122,173);font-family:AdvOTb0c9bf5d;font-size:10.0px;stroke:none;" xmlns:svgx="http://www.xml-cml.org/schema/svgx">431</text>
  <text svgx:width="0.25" y="564.4" x="383.1" style="fill:rgb(0,0,0);font-family:AdvOTb0c9bf5d;font-size:10.0px;stroke:none;" xmlns:svgx="http://www.xml-cml.org/schema/svgx">.</text>
  <text svgx:width="0.32,0.5,0.5,0.32" y="586.8" x="141.7,144.9,149.9,154.9" style="fill:rgb(0,0,0);font-family:AdvOTb0c9bf5d;font-size:10.0px;stroke:none;" xmlns:svgx="http://www.xml-cml.org/schema/svgx">[20]</text>
  <text svgx:width="0.72,0.72,0.72,0.67,0.25,0.55,0.72,0.82,0.44,0.27,0.44,0.27,0.55,0.88,0.44,0.27,0.5,0.5,0.5,0.38,0.55,0.5,0.32,0.55,0.72,0.5,0.44,0.27,0.5,0.38,0.27,0.38,0.25,0.55,0.5,0.5,0.27,0.5,0.55,0.44,0.5,0.25,0.25,0.55,0.72,0.38,0.38,0.5,0.44,0.27,0.44,0.27,0.27,0.5,0.5,0.55,0.5,0.32,0.55,0.72,0.82,0.44,0.27,0.44,0.27,0.55,0.72,0.5,0.44,0.27,0.5,0.27,0.32" y="586.8" x="162.1,169.3,176.5,183.7,190.3,192.8,195.3,202.5,210.7,215.0,217.7,222.1,224.8,227.2,236.0,240.4,243.1,248.1,253.1,258.1,261.9,264.4,269.4,272.6,275.0,282.2,287.2,291.5,294.3,299.3,303.1,305.8,309.6,312.1,314.6,319.6,324.6,327.2,332.2,334.7,339.1,344.0,346.5,349.0,351.5,358.6,362.5,366.3,371.3,375.7,378.3,382.8,385.5,388.2,393.1,398.1,400.6,405.6,408.8,411.2,418.4,426.7,431.0,433.7,438.1,440.8,443.2,450.4,455.4,459.7,462.4,467.4,470.1" style="fill:rgb(0,122,173);font-family:AdvOTb0c9bf5d;font-size:10.0px;stroke:none;" xmlns:svgx="http://www.xml-cml.org/schema/svgx">AOAC, Oﬃcial Methods of Analysis, 16th ed., Association of Oﬃcial Analyt-</text>
  <text svgx:width="0.27,0.44,0.44,0.27,0.55,0.67,0.5,0.44,0.77,0.27,0.38,0.27,0.38,0.25,0.55,0.94,0.44,0.38,0.5,0.27,0.5,0.5,0.27,0.5,0.5,0.25,0.55,0.72,0.67,0.25,0.55,0.5,0.5,0.5,0.5" y="601.7" x="162.1,164.8,169.2,173.5,176.2,179.6,186.2,191.2,195.6,203.3,206.0,209.8,212.5,216.4,218.9,222.2,231.6,235.9,239.8,244.7,247.5,252.5,257.5,260.2,265.2,270.1,272.6,276.0,283.1,289.8,292.3,295.7,300.6,305.6,310.6" style="fill:rgb(0,122,173);font-family:AdvOTb0c9bf5d;font-size:10.0px;stroke:none;" xmlns:svgx="http://www.xml-cml.org/schema/svgx">ical Chemists, Washington, DC, 1990</text>
  <text svgx:width="0.25" y="601.7" x="315.6" style="fill:rgb(0,0,0);font-family:AdvOTb0c9bf5d;font-size:10.0px;stroke:none;" xmlns:svgx="http://www.xml-cml.org/schema/svgx">.</text>
  <text svgx:width="0.32,0.5,0.5,0.32" y="624.1" x="141.7,144.9,149.9,154.9" style="fill:rgb(0,0,0);font-family:AdvOTb0c9bf5d;font-size:10.0px;stroke:none;" xmlns:svgx="http://www.xml-cml.org/schema/svgx">[21]</text>
  <text svgx:width="0.6,0.25,0.72,0.25,0.55,0.72,0.5,0.5,0.44,0.27,0.5,0.44,0.25,0.55,0.6,0.25,0.72,0.25,0.55,0.72,0.5,0.5,0.44,0.27,0.5,0.5,0.5,0.5,0.25,0.55,0.88,0.25,0.72,0.25,0.55,0.88,0.5,0.5,0.44,0.5,0.5,0.25,0.55,0.6,0.6,0.44,0.44,0.27,0.55,0.5,0.32,0.55,0.5,0.44,0.44,0.27,0.55,0.5,0.32,0.5,0.44,0.44,0.38,0.38,0.27,0.5,0.5,0.55,0.5,0.5" y="624.1" x="162.1,168.2,170.7,177.8,180.3,183.9,191.0,196.0,201.0,205.3,208.0,213.0,217.3,219.8,223.4,229.4,231.9,239.1,241.6,245.1,252.2,257.2,262.2,266.6,269.3,274.3,279.3,284.3,289.2,291.7,295.3,304.1,306.6,313.8,316.3,319.8,328.6,333.6,338.6,342.9,347.9,353.0,355.5,359.0,365.0,371.0,375.4,379.7,382.4,386.0,390.9,394.1,397.6,402.6,407.0,411.3,414.0,417.6,422.6,425.8,430.8,435.1,439.5,443.4,447.2,449.9,454.9,459.9,463.4,468.4" style="fill:rgb(0,122,173);font-family:AdvOTb0c9bf5d;font-size:10.0px;stroke:none;" xmlns:svgx="http://www.xml-cml.org/schema/svgx">E.N. Onyeike, E.A. Anyalogbu, M.O. Monanu, Eﬀect of heat processing on</text>
  <text svgx:width="0.27,0.5,0.44,0.55,0.5,0.32,0.5,0.5,0.27,0.77,0.44,0.27,0.44,0.55,0.44,0.5,0.77,0.5,0.5,0.38,0.27,0.27,0.27,0.5,0.5,0.55,0.44,0.5,0.5,0.55,0.44,0.5,0.44,0.32,0.5,0.5,0.55,0.5,0.44,0.27,0.5,0.44,0.38,0.55,0.5,0.32,0.55,0.72,0.32,0.32,0.27,0.44,0.44,0.5,0.55,0.72,0.44,0.27,0.5,0.5,0.27,0.55,0.32" y="639.1" x="162.1,164.8,169.8,174.2,177.8,182.9,186.1,191.1,196.1,198.8,206.4,210.8,213.5,217.8,221.6,225.9,230.9,238.6,243.5,248.6,252.4,255.1,257.8,260.5,265.5,270.5,274.2,278.6,283.6,288.5,292.2,296.6,301.6,306.0,309.2,314.1,319.1,322.8,327.8,332.1,334.8,339.8,344.2,348.0,351.7,356.8,360.0,363.6,370.8,374.0,377.2,379.9,384.2,388.6,393.6,397.4,404.5,408.9,411.6,416.5,421.5,424.2,427.9" style="fill:rgb(0,122,173);font-family:AdvOTb0c9bf5d;font-size:10.0px;stroke:none;" xmlns:svgx="http://www.xml-cml.org/schema/svgx">the proximate composition and energy values of African walnut (</text>
  <text svgx:width="0.6,0.27,0.5,0.44,0.44,0.5,0.44,0.27,0.27,0.5" y="639.1" x="431.1,437.2,439.9,444.8,449.2,453.5,458.5,462.9,465.7,468.4" style="fill:rgb(0,122,173);font-family:AdvOT6bc95374.I;font-size:10.0px;stroke:none;" xmlns:svgx="http://www.xml-cml.org/schema/svgx">Plukenetia</text>
  <text svgx:width="0.44,0.5,0.5,0.5,0.5,0.5,0.5,0.38,0.5" y="654.0" x="162.1,166.5,171.5,176.5,181.4,186.4,191.4,196.4,200.3" style="fill:rgb(0,122,173);font-family:AdvOT6bc95374.I;font-size:10.0px;stroke:none;" xmlns:svgx="http://www.xml-cml.org/schema/svgx">conophora</text>
  <text svgx:width="0.32,0.55,0.44,0.5,0.5,0.55,0.72,0.32,0.32,0.27,0.44,0.44,0.5,0.55,0.6,0.27,0.44,0.77,0.27,0.55,0.32,0.67,0.44,0.5,0.44,0.32,0.27,0.5,0.77,0.55,0.38,0.44,0.5,0.72,0.44,0.27,0.5,0.32,0.5,0.32,0.27,0.5,0.27,0.27,0.32,0.55,0.44,0.5,0.5,0.38,0.5,0.77,0.44,0.5,0.55,0.44,0.38,0.55,0.77,0.44,0.38,0.32" y="654.0" x="205.3,208.5,211.9,216.3,221.3,226.2,229.6,236.8,240.0,243.2,245.9,250.2,254.6,259.6,263.1,269.1,271.8,276.1,283.8,286.5,289.9,293.1,299.8,304.1,309.1,313.5,316.7,319.4,324.4,332.0,335.5,339.3,343.7,348.7,355.8,360.2,362.9,367.9,371.2,376.1,379.4,382.0,387.0,389.7,392.4,395.6,399.1,403.4,408.4,413.4,417.2,422.2,430.0,434.3,439.3,442.7,447.0,450.8,454.2,461.9,466.2,470.1" style="fill:rgb(0,122,173);font-family:AdvOTb0c9bf5d;font-size:10.0px;stroke:none;" xmlns:svgx="http://www.xml-cml.org/schema/svgx">) and African Elemi (Canarium schweinfurthii) consumed as mas-</text>
  <text svgx:width="0.27,0.27,0.44,0.44,0.27,0.5,0.32,0.27,0.44,0.38,0.55,0.27,0.5,0.55,0.72,0.27,0.5,0.44,0.32,0.27,0.44,0.25,0.55,0.32,0.36,0.55,0.6,0.67,0.55,0.5,0.55,0.32,0.5,0.5,0.5,0.5,0.32,0.55,0.5,0.5,0.5" y="669.0" x="162.1,164.8,167.5,171.9,176.3,179.0,184.0,187.2,189.9,194.2,198.0,201.4,204.1,209.1,212.5,219.6,222.3,227.3,231.7,234.9,237.6,241.9,244.4,247.8,251.0,254.6,260.1,266.2,272.8,276.2,281.2,284.5,287.7,292.7,297.7,302.6,307.6,310.8,314.2,319.2,324.2" style="fill:rgb(0,122,173);font-family:AdvOTb0c9bf5d;font-size:10.0px;stroke:none;" xmlns:svgx="http://www.xml-cml.org/schema/svgx">ticatories in Nigeria, IJSTR 4 (2015) 295</text>
  <text svgx:width="0.75" y="669.0" x="329.2" style="fill:rgb(0,122,173);font-family:AdvPS44A44B;font-size:10.0px;stroke:none;" xmlns:svgx="http://www.xml-cml.org/schema/svgx">e</text>
  <text svgx:width="0.5,0.5,0.5" y="669.0" x="336.7,341.7,346.7" style="fill:rgb(0,122,173);font-family:AdvOTb0c9bf5d;font-size:10.0px;stroke:none;" xmlns:svgx="http://www.xml-cml.org/schema/svgx">301</text>
  <text svgx:width="0.25" y="669.0" x="351.7" style="fill:rgb(0,0,0);font-family:AdvOTb0c9bf5d;font-size:10.0px;stroke:none;" xmlns:svgx="http://www.xml-cml.org/schema/svgx">.</text>
  <text svgx:width="0.5,0.5" y="710.6" x="42.5,45.8" style="fill:rgb(0,0,0);font-family:AdvOTe3b1fbf3.B;font-size:6.5px;stroke:none;" xmlns:svgx="http://www.xml-cml.org/schema/svgx">15</text>
  <text svgx:width="0.5,0.27,0.27,0.5,0.38,0.27,0.27,0.27,0.5,0.5,0.27,0.25,0.5,0.32,0.5,0.27,0.5,0.5,0.25,0.5,0.5,0.5,0.5,0.27,0.27,0.25,0.5,0.44,0.27,0.27,0.5,0.5,0.5,0.25,0.5,0.5,0.5,0.5,0.25,0.44,0.5,0.5,0.5,0.5,0.5" y="710.6" x="62.4,65.6,67.3,69.1,72.3,74.8,76.6,78.3,80.1,83.3,86.5,88.3,89.9,93.2,95.2,98.5,100.2,103.5,106.7,108.3,111.6,114.8,118.0,121.3,123.0,124.7,126.3,129.5,132.4,134.1,135.9,139.1,142.3,145.6,147.2,150.4,153.7,156.9,160.1,161.8,164.6,167.8,171.1,174.3,177.5" style="fill:rgb(0,122,173);font-family:AdvOTb0c9bf5d;font-size:6.5px;stroke:none;" xmlns:svgx="http://www.xml-cml.org/schema/svgx">https://doi.org/10.1016/j.heliyon.2018.e00533</text>
  <text svgx:width="0.5,0.5,0.5,0.5,0.32,0.5,0.5,0.5,0.5,0.27" y="720.6" x="62.4,65.6,68.8,72.1,75.3,77.4,80.6,83.9,87.1,90.4" style="fill:rgb(0,0,0);font-family:AdvOTb0c9bf5d;font-size:6.5px;stroke:none;" xmlns:svgx="http://www.xml-cml.org/schema/svgx">2405-8440/</text>
  <text code="1" svgx:width="0.79" y="720.6" x="92.1" style="fill:rgb(0,0,0);font-family:AdvPSSym;font-size:6.5px;stroke:none;" xmlns:svgx="http://www.xml-cml.org/schema/svgx">?</text>
  <text svgx:width="0.5,0.5,0.5,0.5,0.55,0.6,0.5,0.44,0.55,0.72,0.5,0.27,0.5,0.5,0.32,0.38,0.25,0.55,0.55,0.5,0.5,0.27,0.27,0.38,0.5,0.44,0.5,0.55,0.5,0.5,0.55,0.6,0.27,0.38,0.44,0.5,0.27,0.44,0.32,0.55,0.6,0.27,0.5,0.25,0.55,0.6,0.5,0.27,0.38,0.55,0.27,0.38,0.55,0.44,0.5,0.55,0.5,0.5,0.44,0.5,0.55,0.44,0.44,0.44,0.44,0.38,0.38,0.55,0.44,0.32,0.27,0.27,0.44,0.27,0.44,0.55,0.5,0.5,0.5,0.44,0.32,0.55,0.27,0.5,0.44,0.55,0.67,0.67,0.55,0.67,0.72,0.32,0.72,0.67,0.32,0.72,0.72,0.55,0.27,0.27,0.44,0.44,0.5,0.38,0.44" y="720.6" x="99.3,102.6,105.8,109.0,112.3,114.4,118.3,121.6,124.4,126.5,131.2,134.4,136.2,139.4,142.7,144.7,147.2,148.8,151.0,154.5,157.8,161.0,162.8,164.5,167.0,170.3,173.1,176.3,178.4,181.7,184.9,187.0,190.9,192.7,195.2,198.0,201.3,203.0,205.8,207.9,210.1,214.0,215.8,219.0,220.6,222.7,226.7,229.9,231.6,234.1,236.3,238.0,240.5,242.7,245.5,248.8,250.9,254.1,257.3,260.2,263.4,265.6,268.4,271.2,274.0,276.9,279.4,281.8,284.0,286.9,288.9,290.7,292.4,295.3,297.0,299.9,302.0,305.2,308.5,311.7,314.5,316.6,318.8,320.5,323.8,326.6,328.7,333.0,337.4,339.5,343.8,348.4,350.5,355.2,359.5,361.6,366.2,370.9,373.0,374.8,376.5,379.4,382.2,385.4,387.9" style="fill:rgb(0,0,0);font-family:AdvOTb0c9bf5d;font-size:6.5px;stroke:none;" xmlns:svgx="http://www.xml-cml.org/schema/svgx">2018 The Authors. Published by Elsevier Ltd. This is an open access article under the CC BY-NC-ND license</text>
  <text svgx:width="0.32" y="730.5" x="62.4" style="fill:rgb(0,0,0);font-family:AdvOTb0c9bf5d;font-size:6.5px;stroke:none;" xmlns:svgx="http://www.xml-cml.org/schema/svgx">(</text>
  <text svgx:width="0.5,0.27,0.27,0.5,0.27,0.27,0.27,0.44,0.32,0.44,0.44,0.27,0.27,0.5,0.44,0.44,0.5,0.77,0.77,0.5,0.5,0.38,0.25,0.5,0.32,0.5,0.27,0.27,0.27,0.44,0.44,0.5,0.38,0.44,0.38,0.27,0.5,0.5,0.32,0.5,0.44,0.32,0.5,0.5,0.27,0.5,0.25,0.5,0.27" y="730.5" x="64.5,67.7,69.4,71.2,74.4,76.2,77.9,79.7,82.5,84.6,87.4,90.3,92.0,93.7,97.0,99.8,102.6,105.9,110.9,115.9,119.1,122.3,124.8,126.4,129.6,131.7,135.0,136.7,138.5,140.2,143.0,145.9,149.1,151.6,154.4,156.9,158.7,161.9,165.1,167.2,170.5,173.3,175.3,178.5,181.8,183.5,186.8,188.4,191.6" style="fill:rgb(0,122,173);font-family:AdvOTb0c9bf5d;font-size:6.5px;stroke:none;" xmlns:svgx="http://www.xml-cml.org/schema/svgx">http://creativecommons.org/licenses/by-nc-nd/4.0/</text>
  <text svgx:width="0.32,0.25" y="730.5" x="193.4,195.5" style="fill:rgb(0,0,0);font-family:AdvOTb0c9bf5d;font-size:6.5px;stroke:none;" xmlns:svgx="http://www.xml-cml.org/schema/svgx">).</text>
  <text class="image" id="image.15.1" width="56" height="19" y="75.7" x="141.7" style="font-size:8.0px;">image.15.1.142_198.76_95</text>
  <text svgx:width="0.6,0.38,0.27,0.27,0.44,0.27,0.44,0.55,0.67,0.5" y="37.9" x="422.9,426.8,429.3,431.1,432.8,435.7,437.4,440.3,442.4,446.7" style="fill:rgb(0,0,0);font-family:AdvOT6bc95374.I;font-size:6.5px;stroke:none;" xmlns:svgx="http://www.xml-cml.org/schema/svgx">Article No</text>
  <text svgx:width="1.0" y="37.9" x="449.0" style="fill:rgb(0,0,0);font-family:AdvPS3FDD77;font-size:6.5px;stroke:none;" xmlns:svgx="http://www.xml-cml.org/schema/svgx">w</text>
  <text svgx:width="0.44,0.5,0.5,0.5,0.5,0.5" y="37.9" x="454.4,457.2,460.5,463.7,466.9,470.2" style="fill:rgb(0,0,0);font-family:AdvOT6bc95374.I;font-size:6.5px;stroke:none;" xmlns:svgx="http://www.xml-cml.org/schema/svgx">e00533</text>
 </g>
</svg>
