<?xml version="1.0" encoding="UTF-8"?>
<svg height="633.225" width="432.249" xmlns="http://www.w3.org/2000/svg">
 <g id="page" xmlns:svgx="http://www.xml-cml.org/schema/svgx">
  <g begin="text">
   <text y="267.534" x="51.647,55.866,58.353,62.05,66.9117,69.562,76.682,81.042,84.245,88.4691,91.048,94.446,98.806,102.777,107.476,110.72,115.652,120.012,124.794,127.444,129.931,134.79270000000002,137.422,140.514,145.537,149.7611,152.332,157.314,162.337,165.428,168.827,173.187,177.48,180.394,184.754,189.536,192.185,196.545,201.568,206.061,208.548,211.744,216.443,221.466,229.15,233.51,238.533,241.4819,244.114,246.874,251.574,254.8417,257.437,262.0596,263.616,271.3,273.786,278.809,280.6421,283.23,285.717,290.57869999999997,293.208,296.3,301.323,305.5471,308.118,313.075,316.474,320.833,324.53,328.89,333.913,337.883,342.1071,344.627,349.327,351.9571,354.605,358.74940000000004,361.352,365.322,370.022,375.045,378.136,381.42,386.12,388.511,391.058,394.755,399.454,401.933,406.914,410.006,412.493,417.192" svgx:width="0.51,0.3,0.45,0.61,0.55,0.86,0.53,0.41,0.53,0.55,0.41,0.53,0.48,0.57,0.41,0.6,0.53,0.6,0.55,0.3,0.61,0.55,0.37,0.61,0.53,0.55,0.6,0.61,0.37,0.41,0.53,0.52,0.37,0.53,0.6,0.55,0.53,0.61,0.54,0.3,0.41,0.57,0.61,0.93,0.53,0.61,0.37,0.55,0.33,0.57,0.41,0.55,0.58,0.55,0.93,0.3,0.61,0.23,0.55,0.3,0.61,0.55,0.37,0.61,0.53,0.55,0.6,0.41,0.53,0.45,0.53,0.61,0.48,0.53,0.55,0.57,0.33,0.55,0.52,0.55,0.48,0.57,0.61,0.37,0.41,0.57,0.3,0.55,0.45,0.57,0.3,0.6,0.37,0.3,0.57,0.61" style="fill:rgb(0,0,0);font-family:AdvOT863180fb;font-size:7.97px;stroke:none;">Fish were recorded in the untreated environment for 3 min, in the presence of a control solution</text>
   <text y="278.022" x="39.685,42.752,47.683,50.17,53.867,56.959,59.445,61.924,64.402,68.762,73.544,77.667,84.641,88.934,92.026,96.386,99.784,102.7329,106.75,109.51,114.21,117.4777,121.604,126.2266,127.783,135.467,137.954,142.977,144.8101,148.929,153.222,158.245,163.02700000000002,167.187,172.346,177.369,181.663,184.141,186.62,190.714,192.5471,196.667,199.154,204.0157,208.175,211.267,216.29,220.51409999999998,224.616,229.573,232.971,237.331,241.028,245.388,250.411,254.381,258.6051,262.656,267.356,269.9861,274.108,278.246,280.194,284.8166,286.354,294.037,298.022,302.17,309.854,314.214,319.146,321.632,325.926,327.7591,331.877,338.997,344.02,346.506,350.477,355.33869999999996,359.485,366.401,370.695,374.2815,378.42,381.512,385.805,390.414,394.774,399.6357,403.761,406.521,409.92,414.62" svgx:width="0.37,0.6,0.3,0.45,0.37,0.3,0.3,0.3,0.53,0.6,0.55,0.86,0.52,0.37,0.53,0.41,0.37,0.55,0.33,0.57,0.41,0.55,0.58,0.55,0.93,0.3,0.61,0.23,0.55,0.52,0.61,0.6,0.55,0.62,0.61,0.52,0.3,0.3,0.55,0.23,0.55,0.3,0.61,0.55,0.37,0.61,0.53,0.55,0.6,0.41,0.53,0.45,0.53,0.61,0.48,0.53,0.55,0.57,0.33,0.55,0.58,0.23,0.58,0.55,0.93,0.5,0.55,0.93,0.53,0.6,0.3,0.52,0.23,0.55,0.86,0.61,0.3,0.48,0.61,0.55,0.86,0.52,0.45,0.55,0.37,0.52,0.56,0.53,0.61,0.55,0.33,0.41,0.57,0.93" style="fill:rgb(0,0,0);font-family:AdvOT863180fb;font-size:7.97px;stroke:none;">(distilled water) for 3 min, and ﬁnally, in the presence of 1.5 mL media, which was taken from</text>
   <text y="288.453" x="39.685,44.045,49.001,51.488,54.58,59.603,63.963,66.441,68.928,73.221,75.61200000000001,79.085,83.055,87.415,89.893,92.372,95.9585,99.493,103.787,106.637,109.728,114.088,117.3557,120.753,125.552,130.1746,131.694,136.5557,140.085,144.784,147.4141,150.969,154.94,159.921,162.4,165.491,170.473,173.871,178.0951,181.526" svgx:width="0.53,0.6,0.3,0.37,0.61,0.53,0.3,0.3,0.52,0.3,0.55,0.48,0.53,0.3,0.3,0.45,0.55,0.52,0.33,0.37,0.53,0.41,0.55,0.58,0.58,0.55,0.61,0.55,0.57,0.33,0.55,0.48,0.6,0.3,0.37,0.6,0.41,0.53,0.55,0.37" style="fill:rgb(0,0,0);font-family:AdvOT863180fb;font-size:7.97px;stroke:none;">epithelial cells after 24 h of culture (</text>
   <text y="288.453" x="184.592,188.811,191.298,195.79,197.6231,201.146" svgx:width="0.51,0.3,0.54,0.23,0.55,0.58" style="fill:rgb(0,99,155);font-family:AdvOT863180fb;font-size:7.97px;stroke:none;">Fig. 2</text>
   <text y="288.453" x="206.192,206.192,206.192,206.192,206.192,206.192,206.192,206.192,206.192,206.192,206.192,206.192" svgx:width="0.0,0.0,0.0,0.0,0.0,0.0,0.0,0.0,0.0,0.0,0.0,0.0" style="fill:rgb(0,0,0);font-family:AdvP48722B;font-size:7.97px;stroke:none;">[13_TD$DIFF]</text>
   <text y="288.453" x="206.192,209.25,211.0831,214.583,218.943,223.302,227.273,231.973,236.996,241.927,245.5135,249.051,253.751,256.3811,259.879,264.811,269.105,272.503,275.595,278.081,283.104,287.4078,291.003,295.802,300.162,305.185,309.314,313.806,316.293,320.993,324.2607,327.795,332.594,336.9775,340.267,344.627,348.921,352.891,357.7527,361.303,366.462,370.159,375.0207,378.595,383.576,388.599,393.531,397.891,401.1587,404.616,408.976,413.269,417.24" svgx:width="0.37,0.23,0.55,0.53,0.53,0.48,0.57,0.61,0.6,0.45,0.55,0.57,0.33,0.55,0.6,0.52,0.41,0.37,0.3,0.61,0.54,0.55,0.58,0.53,0.61,0.52,0.54,0.3,0.57,0.41,0.55,0.58,0.55,0.55,0.53,0.52,0.48,0.61,0.55,0.62,0.45,0.61,0.55,0.6,0.61,0.6,0.53,0.41,0.55,0.53,0.52,0.48,0.61" style="fill:rgb(0,0,0);font-family:AdvOT863180fb;font-size:7.97px;stroke:none;">). Seconds of darting behavior by each ﬁsh under each</text>
   <text y="298.941" x="39.684,43.654,48.354,53.377,58.309,60.796,63.887,66.374,71.074,75.9357,80.501,87.475,91.768,95.3545,100.117,104.087,108.381,110.859,114.829,119.811,122.289,126.583,129.675,134.035,138.817,143.542,146.302,149.7,154.4,161.81210000000002,166.672,169.763,174.786,179.0101,183.792,188.724,191.211,195.703,198.19,201.282,205.575,207.96599999999998,212.704,216.103,220.463,224.433,229.133,232.376,237.308" svgx:width="0.48,0.57,0.61,0.6,0.3,0.37,0.3,0.57,0.61,0.55,0.86,0.52,0.45,0.55,0.48,0.52,0.3,0.48,0.6,0.3,0.52,0.37,0.53,0.6,0.55,0.33,0.41,0.57,0.93,0.55,0.37,0.61,0.53,0.55,0.6,0.3,0.54,0.3,0.37,0.52,0.3,0.55,0.41,0.53,0.48,0.57,0.41,0.6,0.23" style="fill:rgb(0,0,0);font-family:AdvOT863180fb;font-size:7.97px;stroke:none;">condition was calculated from the digital record.</text>
   <text y="298.941" x="239.243,239.243,239.243,239.243,239.243,239.243,239.243,239.243,239.243,239.243,239.243,239.243" svgx:width="0.0,0.0,0.0,0.0,0.0,0.0,0.0,0.0,0.0,0.0,0.0,0.0" style="fill:rgb(0,0,0);font-family:AdvP48722B;font-size:7.97px;stroke:none;">[14_TD$DIFF]</text>
   <text y="298.941" x="243.949,246.519,251.38070000000002,256.195,260.895,265.876,269.14369999999997,273.94,281.623,286.323,291.255,295.615,298.093,299.9261,304.722,309.654,313.948,317.346,320.438,322.925,327.948,332.2518,337.093,344.009,348.302,351.8885,356.708,359.8,364.823,369.0471,373.829,381.512,386.212,389.909,392.8579,397.639,401.038,405.737,410.536,415.518,419.215" svgx:width="0.31,0.61,0.55,0.57,0.6,0.41,0.55,0.93,0.57,0.6,0.53,0.3,0.23,0.55,0.6,0.52,0.41,0.37,0.3,0.61,0.54,0.55,0.86,0.52,0.45,0.55,0.37,0.61,0.53,0.55,0.93,0.57,0.45,0.37,0.55,0.41,0.57,0.58,0.6,0.45,0.37" style="fill:rgb(0,0,0);font-family:AdvOT863180fb;font-size:7.97px;stroke:none;">In our model, darting was the most robust</text>
   <text y="309.373" x="39.684,43.978,49.001,52.092,54.579,59.536,62.934,67.179,72.111,76.404,79.496,84.196,87.594,91.97749999999999,94.731,99.53,103.89,108.913,113.042,117.534,120.021,124.72,127.9877,130.673,135.372,140.172,143.868,148.228,151.627,156.119,160.479,165.411,167.2441,169.903,175.846,178.332,181.093,183.853,188.213,191.611,195.971,200.994,203.9429,206.639,210.335,215.292,219.652,223.622,226.109,230.469,234.0555,236.798,244.482,248.647,253.0305,255.677,259.872,264.472,269.495,271.982,276.781,279.268,282.21689999999995,284.872,289.572,292.664,297.687,302.047,305.3147,308.002,312.802,317.161,322.185,326.313,330.806,333.292,337.992,341.39,344.9765,347.742,355.426,360.126,363.524,367.7481,370.419,375.375,378.774,383.474,391.157,393.644,398.667,403.027,408.05,411.142,413.447,417.642" svgx:width="0.52,0.61,0.37,0.3,0.6,0.41,0.53,0.6,0.52,0.37,0.57,0.41,0.55,0.55,0.58,0.53,0.61,0.52,0.54,0.3,0.57,0.41,0.55,0.57,0.58,0.45,0.53,0.41,0.54,0.53,0.6,0.23,0.55,0.72,0.3,0.33,0.33,0.53,0.41,0.53,0.61,0.37,0.55,0.45,0.6,0.53,0.48,0.3,0.53,0.45,0.55,0.93,0.52,0.55,0.55,0.53,0.56,0.61,0.3,0.58,0.3,0.37,0.55,0.57,0.37,0.61,0.53,0.41,0.55,0.58,0.53,0.61,0.52,0.54,0.3,0.57,0.41,0.45,0.55,0.93,0.57,0.41,0.53,0.55,0.6,0.41,0.57,0.93,0.3,0.61,0.53,0.61,0.37,0.3,0.55,0.23" style="fill:rgb(0,0,0);font-family:AdvOT863180fb;font-size:7.97px;stroke:none;">antipredatory behavior observed. Different species may exhibit other behaviors more prominently.</text>
   <text y="309.373" x="422.249,422.249,422.249,422.249,422.249,422.249,422.249,422.249,422.249,422.249,422.249,422.249" svgx:width="0.0,0.0,0.0,0.0,0.0,0.0,0.0,0.0,0.0,0.0,0.0,0.0" style="fill:rgb(0,0,0);font-family:AdvP48722B;font-size:7.97px;stroke:none;">[15_TD$DIFF]</text>
   <text y="319.861" x="39.684,44.309,49.332,53.692,57.09,61.45,64.211,68.91,72.111,76.47,78.3031,80.104,84.81,89.791,94.085,99.108,102.2,104.686,107.447,111.8305,113.666,116.757,121.78,126.0041,127.839,135.522,140.222,143.919,146.86790000000002,148.701,152.671,157.371,162.394,166.091,168.577,172.274,175.366,179.726,184.749,187.84,190.141,194.5245,196.207,200.402,205.002,209.959,213.358,217.717,221.414,225.111,229.471,234.25300000000001,236.004,240.298,245.321,248.413,250.899,255.856,259.134,263.494,268.426,272.719,275.811,280.511,283.909,288.2925,290.087,294.886,299.246,304.269,308.341,312.834,315.32,320.02,323.024" svgx:width="0.56,0.61,0.53,0.41,0.53,0.33,0.57,0.41,0.53,0.23,0.55,0.59,0.6,0.52,0.61,0.37,0.3,0.33,0.55,0.55,0.37,0.61,0.53,0.55,0.93,0.57,0.45,0.37,0.55,0.48,0.57,0.61,0.45,0.3,0.45,0.37,0.53,0.61,0.37,0.3,0.55,0.55,0.53,0.56,0.6,0.41,0.53,0.45,0.45,0.53,0.6,0.55,0.52,0.61,0.37,0.3,0.6,0.41,0.53,0.6,0.52,0.37,0.57,0.41,0.55,0.55,0.58,0.53,0.61,0.52,0.54,0.3,0.57,0.41,0.23" style="fill:rgb(0,0,0);font-family:AdvOT863180fb;font-size:7.97px;stroke:none;">Therefore, quantify the most consistently expressed antipredatory behavior.</text>
   <text y="319.861" x="324.963,324.963,324.963,324.963,324.963,324.963,324.963,324.963,324.963,324.963,324.963,324.963" svgx:width="0.0,0.0,0.0,0.0,0.0,0.0,0.0,0.0,0.0,0.0,0.0,0.0" style="fill:rgb(0,0,0);font-family:AdvP48722B;font-size:7.97px;stroke:none;">[16_TD$DIFF]</text>
   <text y="319.861" x="326.664,332.607,336.9,340.299,343.391,345.877,350.9,355.2038,357.05,361.849,366.209,371.232,375.361,379.853,382.34,387.039,390.3067,392.141,394.901,399.601,402.8687,404.613,408.973,413.267,417.237" svgx:width="0.72,0.52,0.41,0.37,0.3,0.61,0.54,0.55,0.58,0.53,0.61,0.52,0.54,0.3,0.57,0.41,0.55,0.33,0.57,0.41,0.55,0.53,0.52,0.48,0.61" style="fill:rgb(0,0,0);font-family:AdvOT863180fb;font-size:7.97px;stroke:none;">Darting behavior for each</text>
   <text y="330.292" x="39.684,44.843,48.54,53.4017,55.217,62.133,66.427,70.01350000000001,71.771,79.454,83.814,88.108,91.805,96.786,100.06,104.42,109.351,112.1405,113.892,118.915,121.402,126.425,130.6491,132.43,135.522,138.92,141.407,145.7,148.179,151.7655,153.462,160.582,164.942,168.145,172.3691,174.154,178.124,182.824,190.508,195.464,197.943,202.303,205.277,209.637,214.569,216.4021,218.146,224.089,228.383,231.474,235.61839999999998,237.194,244.315,248.674,251.934" svgx:width="0.62,0.45,0.61,0.55,0.86,0.52,0.45,0.55,0.93,0.53,0.52,0.45,0.6,0.41,0.53,0.6,0.35,0.55,0.61,0.3,0.61,0.53,0.55,0.37,0.41,0.3,0.52,0.3,0.45,0.55,0.86,0.53,0.41,0.53,0.55,0.48,0.57,0.93,0.6,0.3,0.53,0.37,0.53,0.6,0.23,0.55,0.72,0.52,0.37,0.52,0.55,0.86,0.53,0.41,0.53" style="fill:rgb(0,0,0);font-family:AdvOT863180fb;font-size:7.97px;stroke:none;">ﬁsh was measured; nine trials were completed. Data were</text>
   <text y="330.292" x="257.895,257.895,257.895,257.895,257.895,257.895,257.895,257.895,257.895,257.895,257.895,257.895" svgx:width="0.0,0.0,0.0,0.0,0.0,0.0,0.0,0.0,0.0,0.0,0.0,0.0" style="fill:rgb(0,0,0);font-family:AdvP48722B;font-size:7.97px;stroke:none;">[17_TD$DIFF]</text>
   <text y="330.292" x="257.895,262.189,267.212,271.505,273.983,278.526,282.662,287.022,291.804,293.497,298.479,302.175,304.662,309.685,313.9888,315.776" svgx:width="0.52,0.61,0.52,0.3,0.55,0.5,0.53,0.6,0.55,0.6,0.45,0.3,0.61,0.54,0.55,0.52" style="fill:rgb(0,0,0);font-family:AdvOT863180fb;font-size:7.97px;stroke:none;">analyzed using a</text>
   <text y="330.292" x="321.731" svgx:width="0.35" style="fill:rgb(0,0,0);font-family:AdvOTf2586c63.I;font-size:7.97px;stroke:none;">t</text>
   <text y="330.292" x="324.622,328.029,331.121,335.481,339.177,342.1259,343.841,346.327,351.1887,352.968,358.804,362.202,366.496,371.336,376.359,381.034,385.328,390.10999999999996,391.802,396.477,399.875,402.362,406.059,413.743,415.5761,417.313" svgx:width="0.41,0.37,0.53,0.45,0.37,0.55,0.3,0.61,0.55,0.7,0.41,0.52,0.6,0.61,0.56,0.52,0.6,0.55,0.56,0.41,0.3,0.45,0.93,0.23,0.55,0.6" style="fill:rgb(0,0,0);font-family:AdvOT863180fb;font-size:7.97px;stroke:none;">-test in GraphPad Prism. p</text>
   <text y="340.78" x="39.683,43.992,48.285,50.764,55.745,60.105,63.6915,66.555,71.254" svgx:width="0.54,0.52,0.3,0.6,0.53,0.45,0.55,0.57,0.33" style="fill:rgb(0,0,0);font-family:AdvOT863180fb;font-size:7.97px;stroke:none;">values of</text>
   <text y="340.78" code="5" x="76.817" svgx:width="0.77" style="fill:rgb(0,0,0);font-family:AdvP4C4E74;font-size:7.97px;stroke:none;">?</text>
   <text y="340.78" x="83.167,87.95,89.897,94.68,99.30260000000001,102.272,109.392,113.752,116.955,121.1791,124.098,128.068,132.768,137.791,141.488,143.974,148.906,153.266,156.665,161.025,165.80700000000002,168.6,172.297,175.389,179.683,182.774,185.261,188.958,192.049,194.536,198.506,202.8,205.278,207.757,212.1405,214.917,218.613,221.1,225.593,230.616,233.063,238.279,242.25,246.543,251.566,254.658" svgx:width="0.58,0.23,0.58,0.58,0.55,0.86,0.53,0.41,0.53,0.55,0.48,0.57,0.61,0.45,0.3,0.6,0.53,0.41,0.53,0.6,0.55,0.45,0.37,0.52,0.37,0.3,0.45,0.37,0.3,0.48,0.52,0.3,0.3,0.55,0.55,0.45,0.3,0.54,0.61,0.3,0.62,0.48,0.52,0.61,0.37,0.23" style="fill:rgb(0,0,0);font-family:AdvOT863180fb;font-size:7.97px;stroke:none;">0.05 were considered statistically signiﬁcant.</text>
   <text y="351.211" x="51.646,57.589,61.883,65.281,68.373,70.86,75.883,80.18679999999999,83.563,88.362,92.722,97.745,101.874,106.366,108.853,113.553,116.8207,120.072,122.559,127.4207,130.789,135.948,139.645,144.50670000000002,147.854,154.827,159.121,162.7075,165.995,169.692,172.179,176.671,181.694,184.138,189.354,193.324,197.618,202.641,205.733,208.211,212.5945,215.828,218.315,223.338,227.308,230.707,235.067,239.242,242.939,247.298,252.08,255.399,258.159,262.859,265.337,267.816,272.515,279.636,282.122,287.145,291.4488,294.743,299.036,303.968,308.9,311.387,314.478,316.965,321.665,326.5267,329.891,334.591,337.22110000000004,340.493,344.463,348.823,351.301,353.692,356.99,360.96,365.942,368.42,371.512,376.493,379.892,384.1161,387.32,395.003,399.363,404.295,406.782,410.9264,414.248,418.542" svgx:width="0.72,0.52,0.41,0.37,0.3,0.61,0.54,0.55,0.58,0.53,0.61,0.52,0.54,0.3,0.57,0.41,0.55,0.3,0.61,0.55,0.62,0.45,0.61,0.55,0.86,0.52,0.45,0.55,0.45,0.3,0.54,0.61,0.3,0.62,0.48,0.52,0.61,0.37,0.3,0.55,0.55,0.3,0.61,0.48,0.41,0.53,0.52,0.45,0.53,0.6,0.55,0.33,0.57,0.3,0.3,0.57,0.86,0.3,0.61,0.54,0.55,0.52,0.6,0.6,0.3,0.37,0.3,0.57,0.61,0.55,0.57,0.33,0.55,0.48,0.53,0.3,0.3,0.55,0.48,0.6,0.3,0.37,0.6,0.41,0.53,0.55,0.93,0.53,0.6,0.3,0.52,0.55,0.52,0.45" style="fill:rgb(0,0,0);font-family:AdvOT863180fb;font-size:7.97px;stroke:none;">Darting behavior in ﬁsh was signiﬁcantly increased following addition of cell culture media as</text>
   <text y="361.699" x="39.685,43.655,48.355,56.039,60.995,65.289,68.687,73.047,77.829,82.373,85.465,90.0079,94.562,99.493,103.787,107.185,110.277,112.764,117.787,122.0908,126.706,131.505,135.865,140.888,145.016,149.509,151.995,156.695,159.96269999999998,164.518,168.812,171.661,174.753,178.975,182.24269999999999,186.798,191.092,196.024,200.956,203.442,206.534,209.021,213.72,218.5817,223.194,227.894,230.5241,235.155,240.087,242.574,246.271,249.362,251.849,254.327,256.806,261.166,265.948,270.53,277.504,281.797,284.889,289.125,292.3927,297.006" svgx:width="0.48,0.57,0.93,0.6,0.52,0.41,0.53,0.6,0.55,0.37,0.57,0.55,0.6,0.52,0.41,0.37,0.3,0.61,0.54,0.55,0.58,0.53,0.61,0.52,0.54,0.3,0.57,0.41,0.55,0.52,0.33,0.37,0.53,0.41,0.55,0.52,0.6,0.6,0.3,0.37,0.3,0.57,0.61,0.55,0.57,0.33,0.55,0.6,0.3,0.45,0.37,0.3,0.3,0.3,0.53,0.6,0.55,0.86,0.52,0.37,0.53,0.41,0.55,0.37" style="fill:rgb(0,0,0);font-family:AdvOT863180fb;font-size:7.97px;stroke:none;">compared to darting behavior after addition of distilled water (</text>
   <text y="361.699" x="300.076,304.295,306.781,311.274,313.1071,317.707" svgx:width="0.51,0.3,0.54,0.23,0.55,0.58" style="fill:rgb(0,99,155);font-family:AdvOT863180fb;font-size:7.97px;stroke:none;">Fig. 3</text>
   <text y="361.699" x="322.753,325.812,327.6451,332.278,337.21,341.57,345.267,350.224,354.924,359.947,363.643,368.003,371.5895,376.157,383.277,387.637,390.84,395.0641,399.684,403.978,407.948,412.929,416.021,420.381" svgx:width="0.37,0.23,0.55,0.62,0.53,0.45,0.6,0.57,0.61,0.45,0.53,0.45,0.55,0.86,0.53,0.41,0.53,0.55,0.52,0.48,0.6,0.37,0.53,0.23" style="fill:rgb(0,0,0);font-family:AdvOT863180fb;font-size:7.97px;stroke:none;">). Responses were acute,</text>
   <text y="372.131" x="39.685,44.484,48.844,53.336,55.823,60.846,65.869,68.356,73.379,77.6828,80.616,83.102,90.786,98.47,102.83,107.762,110.248,114.542,117.633,121.993,124.324,128.7075,131.467,135.761,138.611,141.702,145.924,149.1917,152.047,156.341,161.272,166.204,168.691,171.783,174.269,178.969,183.8307,186.741,191.441,194.0711,197.059,200.151,205.174,209.3981,212.253,219.936,224.296,229.228,231.715,235.8594,238.784,241.876,246.4189,249.159,252.251,257.274,261.4981,264.409,267.501,271.794,276.817,281.28020000000004,284.194,288.488,293.511,298.293,301.202,303.681,307.974,311.671,314.763,317.249,322.272,326.5758,329.547,333.841,338.798,343.754,347.153,351.6,356.2,358.687,366.37,370.664,373.756,378.116,380.398,384.78150000000005,387.712,392.511,397.1336,398.653,402.35" svgx:width="0.58,0.53,0.54,0.3,0.61,0.61,0.3,0.61,0.54,0.55,0.3,0.93,0.93,0.53,0.6,0.3,0.52,0.37,0.53,0.3,0.55,0.55,0.52,0.33,0.37,0.53,0.41,0.55,0.52,0.6,0.6,0.3,0.37,0.3,0.57,0.61,0.55,0.57,0.33,0.55,0.37,0.61,0.53,0.55,0.93,0.53,0.6,0.3,0.52,0.55,0.37,0.57,0.55,0.37,0.61,0.53,0.55,0.37,0.52,0.61,0.56,0.55,0.52,0.61,0.6,0.55,0.3,0.52,0.45,0.37,0.3,0.61,0.54,0.55,0.52,0.6,0.6,0.41,0.57,0.56,0.3,0.93,0.52,0.37,0.53,0.3,0.55,0.55,0.58,0.58,0.55,0.45,0.23" style="fill:rgb(0,0,0);font-family:AdvOT863180fb;font-size:7.97px;stroke:none;">beginning immediately after addition of the media to the tank and lasting approximately 40 s.</text>
   <text y="393.05" x="39.685,45.255,50.41,55.566,58.268,61.567,64.269,69.284,74.697,79.239,81.7894,84.584,87.286,92.698,95.831,100.846,104.593,112.707,117.25,120.549,123.251,128.266" svgx:width="0.67,0.62,0.62,0.33,0.4,0.33,0.61,0.65,0.55,0.32,0.55,0.33,0.65,0.38,0.61,0.45,0.98,0.55,0.4,0.33,0.61,0.65" style="fill:rgb(0,0,0);font-family:AdvOT18499c10.B;font-size:7.97px;stroke:none;">Additional information</text>
   <text y="413.97" x="51.647,57.151,59.638,63.334,65.821,70.521,75.3827,77.498,79.985,83.5715,85.662,89.80640000000001,91.955,96.563,100.799,105.1825,107.262,110.958,114.05,117.449,121.742,124.666,129.026,133.518,137.9015,140.029,144.828,149.2115,151.254,158.374,163.397,165.883,169.854,174.71570000000003,176.878,179.364,184.387,189.319,191.674,196.167,198.653,203.585,208.567,212.86,215.251,217.355,221.649,226.313,231.294,235.588,238.68,241.166,244.9916,247.119,250.815,255.772,260.132,264.102,266.589,270.949,274.5355,276.598,280.736,285.229,289.929,292.415,297.197,299.218,304.174,307.573,311.933,316.865,321.158,324.105,328.805,332.203,335.9,337.7331,339.808,345.991,350.691,357.665,362.025,366.396,370.756,373.709,375.5421,377.678,380.165,385.0267,387.145,389.624,394.323,401.261,404.668,407.146,409.633,414.125,419.148" svgx:width="0.66,0.3,0.45,0.3,0.57,0.61,0.55,0.3,0.45,0.55,0.52,0.55,0.56,0.53,0.55,0.55,0.45,0.37,0.41,0.52,0.37,0.53,0.54,0.55,0.55,0.58,0.55,0.55,0.86,0.61,0.3,0.48,0.61,0.55,0.3,0.61,0.6,0.3,0.54,0.3,0.6,0.6,0.52,0.3,0.55,0.52,0.59,0.6,0.52,0.37,0.3,0.48,0.55,0.45,0.6,0.53,0.48,0.3,0.53,0.45,0.55,0.52,0.54,0.57,0.3,0.6,0.55,0.6,0.41,0.53,0.6,0.52,0.37,0.57,0.41,0.45,0.23,0.55,0.75,0.57,0.86,0.53,0.54,0.53,0.41,0.23,0.55,0.3,0.61,0.55,0.3,0.57,0.86,0.41,0.3,0.3,0.54,0.61,0.37" style="fill:rgb(0,0,0);font-family:AdvOT863180fb;font-size:7.97px;stroke:none;">Vision is a key strategy by which individual aquatic species avoid predators. However, in low-light</text>
   <text y="424.458" x="39.685,44.385,47.652699999999996,50.967,54.058,59.04,62.438,67.238,69.724,74.506,77.838,81.808,86.508,91.531,96.463,98.95,102.041,104.528,109.228,114.251,117.8375,121.093,124.185,129.208,133.4321,136.74,139.227,144.25,146.786,151.768,155.166,159.708,163.115,165.602,170.625,175.556,180.538,184.508,188.868,193.65,196.888,200.287,204.647,207.125,211.485,215.779,219.475,223.6991,226.935,231.634,234.26409999999998,237.536,241.506,246.529,250.889,258.573,261.06,265.03,269.323,271.714,275.009,282.693,287.052,290.749,294.446,298.806,303.829,308.322,312.681,316.08,319.6665,322.856,327.813,330.291,334.585,338.9685,342.018,346.1624,349.501,354.11,358.345,362.72850000000005,366.056,368.542,373.40369999999996,376.77,381.064,383.542,386.021,390.603,397.723,400.21,405.233,409.5368,412.939,417.233" svgx:width="0.57,0.41,0.55,0.37,0.6,0.41,0.58,0.3,0.6,0.55,0.48,0.57,0.61,0.6,0.3,0.37,0.3,0.57,0.61,0.45,0.55,0.37,0.61,0.53,0.55,0.3,0.61,0.31,0.6,0.41,0.55,0.41,0.3,0.61,0.6,0.6,0.48,0.53,0.6,0.55,0.41,0.53,0.3,0.53,0.52,0.45,0.53,0.55,0.57,0.33,0.55,0.48,0.61,0.53,0.93,0.3,0.48,0.52,0.3,0.55,0.93,0.53,0.45,0.45,0.53,0.61,0.54,0.53,0.41,0.45,0.55,0.6,0.3,0.52,0.55,0.55,0.52,0.55,0.56,0.53,0.55,0.55,0.3,0.61,0.55,0.52,0.3,0.3,0.57,0.86,0.3,0.61,0.54,0.55,0.52,0.61" style="fill:rgb(0,0,0);font-family:AdvOT863180fb;font-size:7.97px;stroke:none;">or turbid conditions the injury-induced release of chemical messengers play a key in allowing an</text>
   <text y="434.889" x="39.685,42.171,47.194,52.126,54.613,59.105,61.592,66.524,71.505,75.683,78.07400000000001,81.069,84.161,88.7039,91.67,95.641,100.341,108.024,115.708,120.69,125.713,128.199,132.17,136.463,139.555,143.7791,146.717,149.809,154.832,158.23,162.59,166.884,169.8329,172.795,175.887,180.4299,183.397,187.367,192.067,197.09,200.787,205.743,210.103,214.074,216.511,221.727,225.697,229.2835,232.272,235.339,238.621,242.981,247.473,249.96,254.32,261.297,265.657,270.43899999999996,273.486,278.285" svgx:width="0.3,0.61,0.6,0.3,0.54,0.3,0.6,0.6,0.52,0.3,0.55,0.37,0.57,0.55,0.48,0.57,0.93,0.93,0.6,0.61,0.3,0.48,0.52,0.37,0.53,0.55,0.37,0.61,0.41,0.53,0.52,0.37,0.55,0.37,0.57,0.55,0.48,0.57,0.61,0.45,0.6,0.53,0.48,0.3,0.62,0.48,0.45,0.55,0.37,0.41,0.53,0.54,0.3,0.53,0.86,0.53,0.6,0.55,0.58,0.55" style="fill:rgb(0,0,0);font-family:AdvOT863180fb;font-size:7.97px;stroke:none;">individual to communicate threat to conspeciﬁcs (reviewed by</text>
   <text y="434.889" x="285.62,288.612,293.412" svgx:width="0.36,0.58,0.36" style="fill:rgb(0,99,155);font-family:AdvOT863180fb;font-size:7.97px;stroke:none;">[1]</text>
   <text y="434.889" x="296.675,299.733,301.5661,304.555,310.026,317.709,322.409,327.432,331.73580000000004,334.829,339.988,343.685,348.5467,351.61,354.096,358.9577,361.985,365.077,370.1,374.32410000000004,377.348,381.045,386.026,390.983,395.343,398.741,403.441,406.657,411.589,415.949" svgx:width="0.37,0.23,0.55,0.66,0.93,0.57,0.61,0.54,0.55,0.62,0.45,0.61,0.55,0.3,0.61,0.55,0.37,0.61,0.53,0.55,0.45,0.6,0.6,0.53,0.41,0.57,0.41,0.6,0.53,0.41" style="fill:rgb(0,0,0);font-family:AdvOT863180fb;font-size:7.97px;stroke:none;">). Among ﬁsh in the superorder</text>
   <text y="434.889" x="422.249,422.249,422.249,422.249,422.249,422.249,422.249,422.249,422.249,422.249,422.249" svgx:width="0.0,0.0,0.0,0.0,0.0,0.0,0.0,0.0,0.0,0.0,0.0" style="fill:rgb(0,0,0);font-family:AdvP48722B;font-size:7.97px;stroke:none;">[6_TD$DIFF]</text>
   <text y="445.377" x="39.685,45.62,49.316,52.408,56.702,60.1,62.587,67.286,72.243,76.987,81.529,85.226,87.713,89.5461,91.953,96.247,101.27,105.563,108.655,113.355,121.038,123.525,127.495,131.789,134.267,136.568,140.9515,143.485,148.416,150.903,154.6,157.692,160.178,165.201,169.172,172.1209,174.608,178.579,181.057,186.038,190.66060000000002,193.26,197.23,201.59,204.068,206.547,210.1335,212.592,215.078,219.93970000000002,222.456,225.548,230.571,234.7951,237.31,241.67,246.626,249.113,254.045,258.405,261.803,269.487,271.973,275.5595,278.071,283.027,286.291,290.99,295.922,300.904,304.874,309.09810000000004,311.631,315.925,320.7867,323.31,327.604,330.082,334.376,337.774,345.1861,347.857,351.554,356.536,361.335,365.032,368.124,372.417,377.44,381.41,385.77,387.6031,390.035,397.155,402.178,404.665,408.635,413.4967,416.056,418.543" svgx:width="0.72,0.45,0.37,0.52,0.41,0.3,0.57,0.6,0.61,0.55,0.45,0.3,0.23,0.55,0.52,0.61,0.52,0.37,0.57,0.93,0.3,0.48,0.52,0.3,0.3,0.55,0.55,0.6,0.3,0.45,0.37,0.3,0.61,0.48,0.37,0.55,0.48,0.3,0.6,0.58,0.55,0.48,0.53,0.3,0.3,0.45,0.55,0.3,0.61,0.55,0.37,0.61,0.53,0.55,0.53,0.6,0.3,0.6,0.53,0.41,0.93,0.3,0.45,0.55,0.6,0.41,0.57,0.6,0.6,0.48,0.53,0.55,0.52,0.61,0.55,0.52,0.3,0.52,0.41,0.93,0.55,0.45,0.6,0.58,0.45,0.37,0.52,0.61,0.48,0.53,0.23,0.55,0.86,0.61,0.3,0.48,0.61,0.55,0.3,0.45" style="fill:rgb(0,0,0);font-family:AdvOT863180fb;font-size:7.97px;stroke:none;">Ostariophysi, anatomically distinct club cells in the epidermis produce an alarm substance, which is</text>
   <text y="455.808" x="39.685,43.083,47.443,49.921,54.281,58.575,62.272,66.632,71.414,73.926,76.412,79.0421,81.692,84.784,89.807,94.507,98.204,102.4281,104.992,108.963,113.322,115.801,118.279,121.8655,124.437,128.73,132.129,136.35309999999998,138.836,143.768,148.062,155.745,160.039,164.404,168.764,173.54600000000002,176.139,179.206,182.604,186.964,191.457,193.943,198.135,205.255,209.615,214.39700000000002,216.9,221.699" svgx:width="0.41,0.53,0.3,0.53,0.52,0.45,0.53,0.6,0.55,0.3,0.33,0.55,0.37,0.61,0.57,0.45,0.53,0.55,0.48,0.53,0.3,0.3,0.45,0.55,0.52,0.41,0.53,0.55,0.6,0.52,0.93,0.52,0.54,0.53,0.6,0.55,0.37,0.41,0.53,0.54,0.3,0.53,0.86,0.53,0.6,0.55,0.58,0.55" style="fill:rgb(0,0,0);font-family:AdvOT863180fb;font-size:7.97px;stroke:none;">released if those cells are damaged (reviewed by</text>
   <text y="455.808" x="228.586,231.578,236.377,238.317,243.116" svgx:width="0.36,0.58,0.23,0.58,0.36" style="fill:rgb(0,99,155);font-family:AdvOT863180fb;font-size:7.97px;stroke:none;">[2,3]</text>
   <text y="455.808" x="246.104,249.163,250.9961,253.587,258.212,263.235,267.45910000000003,270.028,274.322,276.8,281.094,284.492,291.9041,294.575,298.272,303.254,308.053,311.75,314.841,319.135,324.158,328.128,332.3521,334.939,338.031,343.054,347.414,352.2757,354.895,359.694,362.181,367.204,372.135,375.7215,378.252,381.343,385.8859,388.4,393.099,395.578,398.338,402.632,406.602,409.694,414.393,417.792" svgx:width="0.37,0.23,0.55,0.56,0.61,0.53,0.55,0.52,0.3,0.52,0.41,0.93,0.55,0.45,0.6,0.58,0.45,0.37,0.52,0.61,0.48,0.53,0.55,0.37,0.61,0.53,0.61,0.55,0.58,0.3,0.61,0.6,0.45,0.55,0.37,0.57,0.55,0.57,0.3,0.33,0.52,0.48,0.37,0.57,0.41,0.55" style="fill:rgb(0,0,0);font-family:AdvOT863180fb;font-size:7.97px;stroke:none;">). The alarm substance then binds to olfactory</text>
   <text y="466.296" x="39.685,43.083,47.443,51.413,55.773,60.547,63.639,68.338,71.737,75.3235,77.214,81.914,84.5441,86.568,90.538,95.238,100.261,103.958,108.914,113.274,117.245,119.735,124.894,128.865,132.562,134.3951,136.403,139.801,144.161,147.741,152.722,155.201,158.292,160.779,165.802,170.1058,172.175,174.661,179.52270000000001,181.586,185.7304,187.765,191.163,195.457,200.48,204.772,208.99609999999998,211.065,215.764,218.3941,220.362,224.656,229.679,232.771,235.257,238.664,243.621,247.019,251.379,256.311,260.604,263.56,268.26,271.658,276.04150000000004,278.073,282.872,287.232,292.255,296.384,300.876,303.363,308.063,311.461,315.0475,317.02,320.086,322.573,327.596,331.566,334.045,339.026,343.958,346.445,351.468,355.77180000000004,357.837,360.597,363.996,368.355,372.715,376.852,379.338,384.361,388.854,390.6871,392.589,397.52,401.814,405.212,408.304,410.791,415.814,420.306" svgx:width="0.41,0.53,0.48,0.53,0.6,0.37,0.57,0.41,0.45,0.55,0.57,0.33,0.55,0.48,0.57,0.61,0.45,0.6,0.53,0.48,0.3,0.62,0.48,0.45,0.23,0.55,0.41,0.53,0.45,0.6,0.3,0.37,0.3,0.61,0.54,0.55,0.3,0.61,0.55,0.52,0.55,0.41,0.52,0.61,0.54,0.53,0.55,0.57,0.33,0.55,0.52,0.61,0.37,0.3,0.41,0.6,0.41,0.53,0.6,0.52,0.37,0.57,0.41,0.55,0.55,0.58,0.53,0.61,0.52,0.54,0.3,0.57,0.41,0.45,0.55,0.37,0.3,0.61,0.48,0.3,0.6,0.6,0.3,0.61,0.54,0.55,0.33,0.41,0.53,0.53,0.5,0.3,0.61,0.54,0.23,0.55,0.6,0.52,0.41,0.37,0.3,0.61,0.54,0.23" style="fill:rgb(0,0,0);font-family:AdvOT863180fb;font-size:7.97px;stroke:none;">receptors of conspeciﬁcs, resulting in a range of anti-predatory behaviors (including freezing, darting,</text>
   <text y="476.728" x="39.685,43.382,47.352,52.375,57.075,61.774,64.253,66.739,71.762,76.255,78.0881,79.765,82.525,86.885,91.245,96.177,98.664,103.687,108.179,110.0121,111.626,115.919,120.942,125.72399999999999,127.442,132.465,134.952,139.884,142.371,147.394,151.886,154.8349,156.468,163.588,168.611,171.098,175.068,179.92970000000003,181.639,189.322,193.616,197.9995,199.667,204.624,208.983,212.382,216.079,218.565,222.262,225.2109,226.878,229.638,234.338,237.60569999999998,239.294,244.276,249.05800000000002,250.689,253.781,258.3239,259.931,264.55359999999996,266.11,270.9717,272.686,276.98,279.829,282.921,287.281,290.5487,292.132,299.252,301.738,304.83,309.853,314.785,318.183,322.234,329.208,333.501,335.892,337.485,342.185,344.81510000000003,346.612,349.704,354.727,358.9511,360.615,364.909,367.387,371.681,375.079,384.312,388.009,392.991,397.79,401.487,404.578,408.872,413.895,417.865" svgx:width="0.45,0.48,0.61,0.57,0.57,0.3,0.3,0.61,0.54,0.23,0.55,0.33,0.53,0.53,0.6,0.3,0.61,0.54,0.23,0.55,0.52,0.61,0.6,0.55,0.61,0.3,0.6,0.3,0.61,0.54,0.37,0.55,0.86,0.61,0.3,0.48,0.61,0.55,0.93,0.52,0.55,0.55,0.6,0.53,0.41,0.45,0.3,0.45,0.37,0.55,0.33,0.57,0.41,0.55,0.6,0.6,0.55,0.37,0.57,0.55,0.58,0.55,0.61,0.55,0.52,0.33,0.37,0.53,0.41,0.55,0.86,0.3,0.37,0.61,0.6,0.41,0.52,0.86,0.52,0.3,0.55,0.57,0.33,0.55,0.37,0.61,0.53,0.55,0.52,0.3,0.52,0.41,0.93,0.45,0.6,0.58,0.45,0.37,0.52,0.61,0.48,0.53" style="fill:rgb(0,0,0);font-family:AdvOT863180fb;font-size:7.97px;stroke:none;">schooling, feeding, and hiding) which may persist for up to 4 h after withdrawal of the alarmsubstance</text>
   <text y="487.216" x="39.685,42.677,47.476" svgx:width="0.36,0.58,0.36" style="fill:rgb(0,99,155);font-family:AdvOT863180fb;font-size:7.97px;stroke:none;">[4]</text>
   <text y="487.216" x="50.74,52.573100000000004,55.218,59.843,64.866,69.0901,71.829,76.785,80.184,84.414,88.385,90.871,94.568,98.7921,101.535,105.505,110.205,117.889,122.845,127.545,131.242,133.729,136.82,139.307,144.007,148.86870000000002,151.593,156.292,158.9221,161.683,164.775,169.798,174.0221,176.707,181.001,183.479,187.772,191.171,198.5831,201.424,205.121,210.102,214.902,218.598,221.69,225.984,231.007,234.977,239.2011,241.902,244.388,247.9745,250.632,255.614,260.637,265.245,270.268,274.968,282.088,286.9497,289.635,293.929,298.952,303.734,306.416,309.508,314.531,319.512,323.209,325.0421,327.731,331.8754,334.591,339.548,344.529,347.928,350.419,355.578,359.938,364.71999999999997,367.426,372.383,375.782,380.141,385.098,389.392,392.653,396.947,400.039,402.525,407.225,412.0867,414.763,419.463" svgx:width="0.23,0.55,0.56,0.61,0.53,0.55,0.6,0.41,0.53,0.48,0.3,0.45,0.53,0.55,0.48,0.57,0.93,0.6,0.57,0.45,0.3,0.37,0.3,0.57,0.61,0.55,0.57,0.33,0.55,0.37,0.61,0.53,0.55,0.52,0.3,0.52,0.41,0.93,0.55,0.45,0.6,0.58,0.45,0.37,0.52,0.61,0.48,0.53,0.55,0.3,0.45,0.55,0.6,0.61,0.56,0.61,0.57,0.86,0.61,0.55,0.52,0.61,0.6,0.55,0.37,0.61,0.6,0.45,0.23,0.55,0.52,0.55,0.6,0.6,0.41,0.3,0.62,0.53,0.6,0.55,0.6,0.41,0.53,0.6,0.52,0.41,0.52,0.37,0.3,0.57,0.61,0.55,0.57,0.33" style="fill:rgb(0,0,0);font-family:AdvOT863180fb;font-size:7.97px;stroke:none;">. The precise composition of the alarm substance is unknown and thus, a puriﬁed preparation of</text>
   <text y="497.647" x="39.684,43.978,46.456,50.749,54.148,61.560100000000006,65.365,69.062,74.043,78.843,82.54,85.631,89.925,94.948,98.918,103.1421,106.749,109.236,112.8225,116.444,121.467,126.167,129.1159,132.714,136.684,141.384,149.068,156.752,161.112,164.51,168.48,170.967,175.261,177.613,180.091,184.4745,187.931,192.013,196.379,200.672,203.159,205.637,209.931,214.73,217.208,221.568,223.4011,226.992,233.175,237.875,244.849,249.209,253.58,257.94,260.949,262.7821,266.392,271.324,275.683,278.775,283.002,286.401,294.085,296.571,301.594,304.081,309.104,313.4078,317.131,320.222,325.245,329.4691,333.118,338.075,341.473,345.833,349.803,352.29,355.987,360.21110000000004,363.787,367.758,372.458,380.141,385.098,389.798,393.495,395.981,399.073,401.56,406.259,411.1207,414.753,419.453" svgx:width="0.52,0.3,0.52,0.41,0.93,0.55,0.45,0.6,0.58,0.45,0.37,0.52,0.61,0.48,0.53,0.55,0.3,0.45,0.55,0.61,0.57,0.37,0.55,0.48,0.57,0.93,0.93,0.53,0.41,0.48,0.3,0.52,0.3,0.3,0.55,0.55,0.52,0.54,0.52,0.3,0.3,0.52,0.58,0.3,0.53,0.23,0.55,0.75,0.57,0.86,0.53,0.54,0.53,0.41,0.23,0.55,0.6,0.53,0.37,0.53,0.41,0.93,0.3,0.61,0.3,0.61,0.54,0.55,0.37,0.61,0.53,0.55,0.6,0.41,0.53,0.48,0.3,0.45,0.53,0.55,0.48,0.57,0.93,0.6,0.57,0.45,0.3,0.37,0.3,0.57,0.61,0.55,0.57,0.33" style="fill:rgb(0,0,0);font-family:AdvOT863180fb;font-size:7.97px;stroke:none;">alarm substance is not commercially available. However, determining the precise composition of</text>
   <text y="508.135" x="39.684,43.978,46.456,50.749,54.148,61.560100000000006,64.628,68.325,73.307,78.106,81.803,84.894,89.188,94.211,98.181,102.4051,105.332,107.819,111.4055,114.29,118.583,123.4447,126.422,130.716,134.686,137.778,140.141,144.633,148.8571,151.706,156.0,159.398,163.758,167.9024,170.755,175.454,178.0841,181.016,184.713,187.805,192.786,197.718" svgx:width="0.52,0.3,0.52,0.41,0.93,0.55,0.45,0.6,0.58,0.45,0.37,0.52,0.61,0.48,0.53,0.55,0.3,0.45,0.55,0.52,0.61,0.55,0.52,0.48,0.37,0.3,0.54,0.53,0.55,0.52,0.41,0.53,0.52,0.55,0.57,0.33,0.55,0.45,0.37,0.6,0.6,0.55" style="fill:rgb(0,0,0);font-family:AdvOT863180fb;font-size:7.97px;stroke:none;">alarm substance is an active area of study</text>
   <text y="508.135" x="205.057,208.049,212.849,214.788,219.587" svgx:width="0.36,0.58,0.23,0.58,0.36" style="fill:rgb(0,99,155);font-family:AdvOT863180fb;font-size:7.97px;stroke:none;">[5,6]</text>
   <text y="508.135" x="222.575,224.4081,227.337,235.079,239.779,243.476,246.4249,249.333,252.732,257.092,261.062,265.422,270.445,273.537,275.864,280.059,281.8921,284.765,288.735,293.758,298.458,303.481,308.413,311.811,316.511,318.997,322.089,324.576,329.4377,332.328,336.622,341.645,346.42699999999996,349.336,354.098,358.64,363.597,368.157,372.758,377.051,382.074,385.166,390.189,392.676,397.699,401.92310000000003,404.836,409.635" svgx:width="0.23,0.55,0.93,0.57,0.45,0.37,0.55,0.41,0.53,0.48,0.53,0.61,0.37,0.3,0.55,0.23,0.55,0.48,0.61,0.57,0.61,0.6,0.41,0.57,0.3,0.37,0.3,0.61,0.55,0.52,0.61,0.6,0.55,0.61,0.55,0.6,0.57,0.56,0.52,0.61,0.37,0.61,0.3,0.61,0.53,0.55,0.58,0.41" style="fill:rgb(0,0,0);font-family:AdvOT863180fb;font-size:7.97px;stroke:none;">. Most recently, chondroitin and hypoxanthine 3-</text>
   <text y="508.135" x="413.064" svgx:width="0.7" style="fill:rgb(0,0,0);font-family:AdvOTf2586c63.I;font-size:7.97px;stroke:none;">N</text>
   <text y="508.135" x="418.846" svgx:width="0.41" style="fill:rgb(0,0,0);font-family:AdvOT863180fb;font-size:7.97px;stroke:none;">-</text>
   <text y="518.567" x="39.683,44.219,48.819,51.306,56.237,60.4611,63.947,68.97,73.131,77.497,81.7211,85.263,90.062,94.422,98.782,103.6437,107.203,110.9,115.923,120.622,127.612,132.4737,136.059,139.15,143.6929,147.113,149.6,154.623,159.555,164.536,168.507,172.7311,176.253,180.546,185.569,188.661,191.148,194.554,199.511,202.909,207.149,212.081,216.375,219.466,224.166,227.564,231.9475,235.438,240.237,244.597,249.62,253.749,258.241,260.728,265.428,268.826,272.4125,275.858,278.345,283.2067,286.752,291.967,295.664" svgx:width="0.57,0.56,0.3,0.6,0.53,0.55,0.61,0.52,0.54,0.53,0.55,0.58,0.53,0.53,0.61,0.55,0.45,0.61,0.57,0.86,0.61,0.55,0.37,0.57,0.55,0.3,0.61,0.6,0.6,0.48,0.53,0.55,0.52,0.61,0.37,0.3,0.41,0.6,0.41,0.53,0.6,0.52,0.37,0.57,0.41,0.55,0.55,0.58,0.53,0.61,0.52,0.54,0.3,0.57,0.41,0.45,0.55,0.3,0.61,0.55,0.62,0.45,0.61" style="fill:rgb(0,0,0);font-family:AdvOT863180fb;font-size:7.97px;stroke:none;">oxide have been shown to induce anti-predatory behaviors in ﬁsh</text>
   <text y="518.567" x="304.043,307.035,311.129,313.068,317.868" svgx:width="0.36,0.58,0.23,0.58,0.36" style="fill:rgb(0,99,155);font-family:AdvOT863180fb;font-size:7.97px;stroke:none;">[7,8]</text>
   <text y="518.567" x="320.881,322.7141,326.21,330.835,335.858,338.344,341.9305,345.428,349.125,354.106,358.599,363.091,367.451,371.148,374.113,377.6995,381.2,384.292,389.315,393.608,396.5569,400.079,404.372,406.85,411.144,414.543" svgx:width="0.23,0.55,0.56,0.61,0.3,0.45,0.55,0.45,0.6,0.54,0.54,0.53,0.45,0.37,0.45,0.55,0.37,0.61,0.52,0.37,0.55,0.52,0.3,0.52,0.41,0.93" style="fill:rgb(0,0,0);font-family:AdvOT863180fb;font-size:7.97px;stroke:none;">. This suggests that alarm</text>
   <text y="529.055" x="39.683,43.38,48.361,53.161,56.857,59.949,64.243,69.266,73.236,77.46010000000001,81.124,85.094,89.794,94.817,97.909,102.202,104.689,109.712,113.2985,116.896,119.987,125.01,129.37,133.067,137.2911,140.932,144.903,149.603,157.286,162.243,166.943,171.924,176.947,181.879,185.4655,189.063,193.357,196.9435,200.571,204.865,208.835,211.927,214.29,218.783,223.00709999999998,226.592,229.079,234.102,238.594,241.993,246.353,251.285,253.771,258.131,263.154,266.246,269.8325,273.362,278.061,281.32869999999997,284.87,289.57,292.661,297.569,301.929,305.19669999999996,308.737,312.708,317.731,322.091,329.774,332.261,336.231,340.525,343.003,346.5895,350.235,353.327,358.35,362.644,365.5929,369.227,373.52,376.919,381.1431,384.704,388.4,390.887,398.571,401.057,403.536,407.829,411.0967,414.75,417.236" svgx:width="0.45,0.6,0.58,0.45,0.37,0.52,0.61,0.48,0.53,0.55,0.48,0.57,0.61,0.37,0.52,0.3,0.61,0.45,0.55,0.37,0.61,0.53,0.45,0.53,0.55,0.48,0.57,0.93,0.6,0.57,0.6,0.61,0.6,0.45,0.55,0.52,0.45,0.55,0.52,0.48,0.37,0.3,0.54,0.53,0.55,0.3,0.61,0.54,0.41,0.53,0.6,0.3,0.53,0.61,0.37,0.45,0.55,0.57,0.41,0.55,0.57,0.37,0.61,0.53,0.41,0.55,0.48,0.61,0.53,0.93,0.3,0.48,0.52,0.3,0.45,0.55,0.37,0.61,0.52,0.37,0.55,0.52,0.41,0.53,0.55,0.45,0.3,0.93,0.3,0.3,0.52,0.41,0.55,0.3,0.61" style="fill:rgb(0,0,0);font-family:AdvOT863180fb;font-size:7.97px;stroke:none;">substance contains these compounds as active ingredients or other chemicals that are similar in</text>
   <text y="539.486" x="39.683,43.38,46.472,49.87,54.852,58.822,61.914,66.895,70.294,74.654,76.4871,79.594,82.163,87.0247,90.252,95.051,97.538,102.238,106.531,110.228,113.925,118.219,122.566,126.263" svgx:width="0.45,0.37,0.41,0.6,0.48,0.37,0.6,0.41,0.53,0.23,0.55,0.31,0.61,0.55,0.58,0.3,0.57,0.52,0.45,0.45,0.52,0.55,0.45,0.23" style="fill:rgb(0,0,0);font-family:AdvOT863180fb;font-size:7.97px;stroke:none;">structure. In bioassays,</text>
   <text y="539.486" x="128.237,128.237,128.237,128.237,128.237,128.237,128.237,128.237,128.237,128.237,128.237,128.237" svgx:width="0.0,0.0,0.0,0.0,0.0,0.0,0.0,0.0,0.0,0.0,0.0,0.0" style="fill:rgb(0,0,0);font-family:AdvP48722B;font-size:7.97px;stroke:none;">[18_TD$DIFF]</text>
   <text y="539.486" x="131.298,136.457,140.154,145.0157,148.249,152.609,157.566,160.052,163.144,168.167,172.527,175.005,177.492,182.473,189.88510000000002,193.205,195.692,199.2785,202.502,207.484,211.181,216.162,220.456,222.934,225.292,229.6755,232.888,237.87,241.567,245.927,250.709,253.921,258.215,261.8015,265.033,269.17740000000003,272.351,275.922,280.945,285.239,288.331,293.312,296.711,301.004,303.419,306.8461,309.995,313.692,318.392,323.373,326.771,330.742,334.96610000000004,338.114,342.814,345.44410000000005,348.602,352.895,355.374,359.667,363.066,370.4781,373.829,377.526,382.508,387.307,391.004,394.096,398.389,403.412,407.383,411.742,413.5751,416.801" svgx:width="0.62,0.45,0.61,0.55,0.53,0.6,0.3,0.37,0.61,0.53,0.3,0.3,0.6,0.93,0.55,0.3,0.45,0.55,0.6,0.45,0.6,0.52,0.3,0.3,0.55,0.55,0.6,0.45,0.53,0.6,0.55,0.52,0.45,0.55,0.52,0.55,0.43,0.61,0.52,0.37,0.6,0.41,0.52,0.3,0.43,0.55,0.45,0.57,0.6,0.41,0.48,0.53,0.55,0.57,0.33,0.55,0.52,0.3,0.52,0.41,0.93,0.55,0.45,0.6,0.58,0.45,0.37,0.52,0.61,0.48,0.53,0.23,0.55,0.66" style="fill:rgb(0,0,0);font-family:AdvOT863180fb;font-size:7.97px;stroke:none;">ﬁsh epithelium is usually used as a “natural” source of alarm substance. A</text>
   <text y="549.974" x="39.683,44.64,48.038,52.398,56.095,60.065,63.464,65.95,70.75,75.109,79.89099999999999,81.974,85.671,90.031,94.001,97.093,99.58,104.279,109.1407,111.34,116.04,118.6701,120.807,124.504,129.113,131.599,136.4607,138.665,141.151,144.7375,146.885,150.283,154.643,162.327,166.84,171.332,175.692,180.47400000000002,182.6,186.894,191.917,196.699,198.87,203.893,208.593,216.277,220.977,225.345,229.705,234.728,237.214,241.35,245.71,250.49200000000002,252.67,255.156,260.0177,261.967,268.941,273.234,276.197,280.557,283.956,286.7455,288.849,294.008,297.704,302.5657,304.779,308.974,313.574,318.531,323.23,326.927,331.287,336.06899999999996,338.227,341.318,345.86089999999996,347.864,350.956,355.979,360.2031,362.377,366.074,370.773,373.252,378.233,381.325,383.812,388.511,393.3727,395.598,399.736,404.336,409.359,411.846,416.645,419.132" svgx:width="0.6,0.41,0.53,0.45,0.48,0.41,0.3,0.58,0.53,0.6,0.55,0.45,0.53,0.48,0.37,0.3,0.57,0.61,0.55,0.57,0.33,0.55,0.45,0.56,0.3,0.61,0.55,0.3,0.45,0.55,0.41,0.53,0.93,0.57,0.54,0.53,0.6,0.55,0.52,0.61,0.6,0.55,0.61,0.57,0.93,0.57,0.54,0.53,0.61,0.3,0.5,0.53,0.6,0.55,0.3,0.61,0.55,0.86,0.52,0.37,0.53,0.41,0.35,0.55,0.62,0.45,0.61,0.55,0.53,0.56,0.6,0.57,0.45,0.53,0.6,0.55,0.37,0.57,0.55,0.37,0.61,0.53,0.55,0.45,0.57,0.3,0.6,0.37,0.3,0.57,0.61,0.55,0.53,0.56,0.61,0.3,0.58,0.3,0.37" style="fill:rgb(0,0,0);font-family:AdvOT863180fb;font-size:7.97px;stroke:none;">prescribed section of skin is removed and homogenized in water; ﬁsh exposed to the solution exhibit</text>
   <text y="560.405" x="39.682,43.976,48.999,52.091,54.577,57.984,62.941,66.339,70.699,75.631,79.924,82.824,87.524,90.7917,93.822,98.621,102.981,108.004,112.077,116.569,119.056,123.756" svgx:width="0.52,0.61,0.37,0.3,0.41,0.6,0.41,0.53,0.6,0.52,0.37,0.57,0.41,0.55,0.58,0.53,0.61,0.52,0.54,0.3,0.57,0.41" style="fill:rgb(0,0,0);font-family:AdvOT863180fb;font-size:7.97px;stroke:none;">anti-predator behavior</text>
   <text y="560.405" x="130.051,130.051,130.051,130.051,130.051,130.051,130.051,130.051,130.051,130.051,130.051,130.051" svgx:width="0.0,0.0,0.0,0.0,0.0,0.0,0.0,0.0,0.0,0.0,0.0,0.0" style="fill:rgb(0,99,155);font-family:AdvP48722B;font-size:7.97px;stroke:none;">[19_TD$DIFF]</text>
   <text y="560.405" x="130.051,133.043,137.137,138.498,142.75,147.533" svgx:width="0.36,0.58,0.23,0.58,0.58,0.36" style="fill:rgb(0,99,155);font-family:AdvOT863180fb;font-size:7.97px;stroke:none;">[7,10]</text>
   <text y="560.405" x="150.517,152.3501,155.336,160.807,163.285,166.377,170.736,174.135,179.158,183.451,186.402,190.762,193.241,197.344,199.1771,202.105,205.802,210.825,215.119,217.597,220.076,224.775,231.6292,234.703,237.189,242.212,246.183,248.669,252.366,254.853,259.553,264.576,268.1625,271.098,275.392,278.79,283.01410000000004,285.952,293.635,297.929,302.861,307.0851,310.102,312.589,317.4507,320.477,323.569,328.592,332.8161,335.784,340.144,345.101,347.587,352.519,356.879,360.277,367.961,370.448,374.0345,376.998,381.292,386.315,391.097,394.126,399.229,404.21,407.907,412.93,417.29" svgx:width="0.23,0.55,0.66,0.3,0.37,0.53,0.41,0.61,0.52,0.37,0.53,0.3,0.55,0.23,0.55,0.45,0.61,0.52,0.3,0.3,0.57,0.86,0.55,0.3,0.61,0.48,0.3,0.45,0.3,0.57,0.61,0.45,0.55,0.52,0.41,0.53,0.55,0.93,0.52,0.6,0.53,0.55,0.3,0.61,0.55,0.37,0.61,0.53,0.55,0.53,0.6,0.3,0.6,0.53,0.41,0.93,0.3,0.45,0.55,0.52,0.61,0.6,0.55,0.62,0.6,0.45,0.61,0.53,0.6" style="fill:rgb(0,0,0);font-family:AdvOT863180fb;font-size:7.97px;stroke:none;">. Alternately, shallow incisions are made in the epidermis and ﬂushed</text>
   <text y="570.893" x="39.681,46.802,49.288,52.38,57.2417,59.523,66.497,70.79,73.753,78.113,81.512,84.3015,86.509,89.601,94.624,97.11,100.6965,102.95,106.647,111.346,113.825,118.806,121.898,124.385,129.084,133.94570000000002,136.228,138.714,143.737,148.669,153.651,157.621,161.981,165.5675,167.805,172.098,177.121,180.213,182.7,186.106,191.063,194.335,198.695,203.627,207.921,211.013,215.712,218.97969999999998,221.151,225.95,230.31,235.333,239.461,243.954,246.441,251.14,254.40769999999998,256.582,260.875,264.4615,266.73,273.85,278.21,280.562" svgx:width="0.86,0.3,0.37,0.61,0.55,0.86,0.52,0.37,0.53,0.41,0.35,0.55,0.37,0.61,0.3,0.45,0.55,0.45,0.57,0.3,0.6,0.37,0.3,0.57,0.61,0.55,0.3,0.61,0.6,0.6,0.48,0.53,0.45,0.55,0.52,0.61,0.37,0.3,0.41,0.6,0.41,0.53,0.6,0.52,0.37,0.57,0.41,0.55,0.58,0.53,0.61,0.52,0.54,0.3,0.57,0.41,0.55,0.52,0.45,0.55,0.86,0.53,0.3,0.3" style="fill:rgb(0,0,0);font-family:AdvOT863180fb;font-size:7.97px;stroke:none;">with water; this solution induces anti-predator behavior as well</text>
   <text y="570.893" x="285.219,288.211,293.01" svgx:width="0.36,0.58,0.36" style="fill:rgb(0,99,155);font-family:AdvOT863180fb;font-size:7.97px;stroke:none;">[9]</text>
   <text y="570.893" x="296.217,298.0501,300.3,304.925,309.948,314.1721,316.457,320.751,323.511,328.21,331.609,335.969,343.653,348.012,353.035,356.127,358.614,363.314,368.337,372.58,377.36199999999997,379.667,384.624,388.022,392.722,396.693,401.052,405.984,410.966,414.192,418.552" svgx:width="0.23,0.55,0.56,0.61,0.53,0.55,0.52,0.33,0.57,0.41,0.53,0.93,0.53,0.61,0.37,0.3,0.57,0.61,0.53,0.6,0.55,0.6,0.41,0.57,0.48,0.53,0.6,0.6,0.41,0.53,0.45" style="fill:rgb(0,0,0);font-family:AdvOT863180fb;font-size:7.97px;stroke:none;">. The aforementioned procedures</text>
   <text y="581.325" x="39.681,43.975,47.373,51.5971,53.968,58.328,61.088,63.848,68.208,72.179,75.27,77.757,82.03,86.2541,88.72,93.013,95.9619,98.301,102.496,107.096,110.188,113.586,117.88,121.85,124.942,127.428,132.451,136.7548,139.174,143.468,145.946,150.24,153.638,161.05010000000001,163.608,167.305,172.286,177.086,180.783,183.874,188.168,193.191,197.161,201.3851,203.859,208.658,213.639,216.58790000000002,218.995,222.086,227.109,231.3331,233.799,238.957,242.654,247.5157,250.012,252.772,256.171,260.871,270.478,277.598,282.621,285.108,289.078,293.93969999999996,296.443,299.535,304.558,308.801,313.1845,315.491,319.785,323.183,327.4071,329.721,334.42,339.22,342.311,346.605,349.092,354.115,358.475,363.257,365.719,373.403,378.384,382.081,385.0299,387.489,392.288,396.51210000000003,398.94,403.549,406.036,408.514,410.992,415.352,420.284" svgx:width="0.52,0.41,0.53,0.55,0.53,0.33,0.33,0.53,0.48,0.37,0.3,0.54,0.53,0.55,0.52,0.37,0.55,0.53,0.56,0.37,0.41,0.52,0.48,0.37,0.3,0.61,0.54,0.55,0.52,0.3,0.52,0.41,0.93,0.55,0.45,0.6,0.58,0.45,0.37,0.52,0.61,0.48,0.53,0.55,0.58,0.6,0.37,0.55,0.37,0.61,0.53,0.55,0.62,0.45,0.61,0.55,0.33,0.41,0.57,0.93,0.86,0.61,0.3,0.48,0.61,0.55,0.37,0.61,0.53,0.55,0.55,0.52,0.41,0.53,0.55,0.57,0.58,0.37,0.52,0.3,0.61,0.53,0.6,0.55,0.93,0.6,0.45,0.37,0.55,0.58,0.53,0.55,0.56,0.3,0.3,0.3,0.53,0.6,0.23" style="fill:rgb(0,0,0);font-family:AdvOT863180fb;font-size:7.97px;stroke:none;">are effective at extracting alarm substance but the ﬁsh fromwhich they are obtained must be killed.</text>
   <text y="591.813" x="51.644,57.338,62.129,66.738,70.716,74.007,77.389,80.323,84.741,89.532,94.141,96.511,101.302,105.36670000000001,107.427,111.928,115.907,120.582,125.0,129.285,131.656,136.074,139.117,143.535,145.6869,147.678,150.853,154.831,158.213,162.822,167.239,172.03,175.412,179.391,182.65869999999998,184.697,187.631,191.8551,193.824,198.242,200.513,204.931,208.222,215.0762,217.238,220.619,225.41,229.911,233.293,236.227,240.645,245.436,249.166,252.9916,255.05,257.421,262.04359999999997,264.073,268.834,272.216,276.891,280.87,284.1377,286.125,288.496,291.7637,293.778,297.16,299.53,303.791,308.582,310.957,315.663,319.393,323.811,328.602,331.39149999999995,333.407,337.908,341.886,345.616,350.034,354.825,358.207,362.0326,364.076,367.01,371.685,375.664,379.8084,381.877,385.168,389.147,393.755,396.901,400.879,404.261,408.24,413.031,415.8205,417.82" svgx:width="0.69,0.58,0.56,0.48,0.4,0.41,0.35,0.53,0.58,0.56,0.29,0.58,0.51,0.55,0.54,0.48,0.56,0.53,0.52,0.29,0.53,0.4,0.53,0.27,0.55,0.4,0.48,0.41,0.56,0.53,0.58,0.41,0.48,0.41,0.55,0.35,0.53,0.55,0.53,0.27,0.53,0.4,0.86,0.55,0.41,0.58,0.54,0.41,0.35,0.53,0.58,0.45,0.48,0.55,0.29,0.58,0.55,0.57,0.41,0.56,0.48,0.41,0.55,0.29,0.41,0.55,0.41,0.29,0.51,0.58,0.29,0.57,0.45,0.53,0.58,0.35,0.55,0.54,0.48,0.45,0.53,0.58,0.41,0.48,0.55,0.35,0.56,0.48,0.52,0.55,0.4,0.48,0.56,0.4,0.48,0.41,0.48,0.58,0.35,0.55,0.53" style="fill:rgb(0,0,0);font-family:AdvOTf2586c63.I;font-size:7.97px;stroke:none;">Understanding behavioral responses to alarm substance in ﬁshes is signiﬁcant because they represent a</text>
   <text y="602.301" x="39.681,44.443,47.734,51.116,53.905499999999996,57.313,60.694,63.629,67.607,72.0702,75.453,77.824,82.4466,85.885,90.676,95.467,100.075,104.054,107.345,110.726,113.661,118.079,122.87,127.478,129.849,134.64,138.70469999999997,142.178,145.113,149.787,153.61260000000001,157.032,161.823,165.801,170.592,173.699,178.117,180.2689,183.677,188.095,192.886,197.3492,200.741,205.35,210.025,214.368,217.75,220.12,224.538,226.809,231.227,235.488,237.858,241.588,246.006,248.1579,251.479,258.641,262.62,266.219,270.894,275.312,280.103,282.474,285.856,293.017,296.2847,299.667,302.601,307.276,311.694,314.4835,317.922,325.083,329.062,333.67,336.041,340.459,343.393,347.2186,350.633,353.119,357.098,361.516,364.704,367.81,372.228,377.019,381.48220000000003,384.931,389.349,394.14,398.21,400.58,404.559,407.493,411.6374,415.091,417.461" svgx:width="0.57,0.4,0.41,0.35,0.55,0.41,0.35,0.48,0.56,0.55,0.29,0.58,0.55,0.58,0.58,0.56,0.48,0.4,0.41,0.35,0.53,0.58,0.56,0.29,0.58,0.51,0.55,0.35,0.56,0.48,0.55,0.58,0.48,0.58,0.4,0.53,0.27,0.55,0.53,0.58,0.56,0.55,0.56,0.56,0.52,0.41,0.29,0.53,0.27,0.53,0.51,0.29,0.45,0.53,0.27,0.55,0.86,0.48,0.45,0.56,0.53,0.58,0.29,0.41,0.86,0.41,0.55,0.35,0.56,0.53,0.35,0.55,0.86,0.48,0.56,0.29,0.53,0.35,0.48,0.55,0.3,0.48,0.53,0.4,0.55,0.53,0.58,0.56,0.55,0.53,0.58,0.49,0.29,0.48,0.35,0.52,0.55,0.29,0.58" style="fill:rgb(0,0,0);font-family:AdvOTf2586c63.I;font-size:7.97px;stroke:none;">ﬁrst step in understanding the neural and physiological mechanisms that mediate fear and anxiety in</text>
   <text y="612.732" x="39.681,44.356,49.147,56.309,60.727,65.518" svgx:width="0.56,0.58,0.86,0.53,0.58,0.41" style="fill:rgb(0,0,0);font-family:AdvOTf2586c63.I;font-size:7.97px;stroke:none;">humans</text>
   <text y="612.737" x="68.882,70.7151,72.454,77.079,82.102,86.3261,88.044,95.728,100.088,103.179,108.202,112.902,117.684,119.451,126.571,130.7951,132.434,137.39,140.789,145.149,148.846,153.206,158.229,161.17790000000002,162.82,165.306,170.16770000000002,171.947,175.039,180.062,182.549,186.1355,187.821,195.505,199.799,204.822,209.803,213.5,217.47,220.869,223.355,228.312,231.26090000000002,232.89,237.183,239.662,242.14,246.84,253.809,257.39549999999997,259.082,261.842,266.542,269.80969999999996,271.554,274.646,279.669,283.8931,285.613,290.545,294.905,299.397,303.757,306.236,310.935,315.892,323.576,327.936,332.959,335.9079,337.485,342.185,344.81510000000003,346.556,350.7004,352.452,356.148,361.13,364.827,367.918,372.212,374.699,379.722,384.015,388.815,391.293,395.5171,397.237,400.934,405.633,410.615,414.013,417.984" svgx:width="0.23,0.55,0.56,0.61,0.53,0.55,0.93,0.53,0.37,0.61,0.57,0.6,0.55,0.86,0.53,0.55,0.6,0.41,0.53,0.45,0.53,0.61,0.37,0.55,0.3,0.61,0.55,0.37,0.61,0.3,0.45,0.55,0.93,0.52,0.61,0.6,0.45,0.48,0.41,0.3,0.6,0.37,0.55,0.52,0.3,0.3,0.57,0.86,0.45,0.55,0.33,0.57,0.41,0.55,0.37,0.61,0.53,0.55,0.6,0.53,0.54,0.53,0.3,0.57,0.6,0.93,0.53,0.61,0.37,0.55,0.57,0.33,0.55,0.52,0.55,0.45,0.6,0.45,0.37,0.52,0.3,0.61,0.52,0.58,0.3,0.53,0.55,0.45,0.57,0.6,0.41,0.48,0.53" style="fill:rgb(0,0,0);font-family:AdvOT863180fb;font-size:7.97px;stroke:none;">. The method we present in this manuscript allows for the development of a sustainable source</text>
   <text y="623.225" x="39.685,44.384,47.0141,50.059,54.352,56.831,61.124,64.523,71.93509999999999,75.117,78.814,83.795,88.594,92.291,95.383,99.676,104.699,108.67,112.89410000000001,115.934,118.694,123.394,126.66170000000001,129.71,134.692,138.388,142.6121,145.697,148.183,153.0447,156.072,160.042,165.065,169.425,177.109,179.595,183.566,187.859,190.25,193.261,197.231,202.254,206.548,209.946,214.24,218.21,221.153,225.513,228.911,231.398,235.534,239.828,242.919,245.406,250.106,254.9677,258.059,262.352,267.375,272.157,275.179,279.979,282.465,287.165,291.458,295.155,298.852,303.146,307.55,311.1365,314.126,321.246,323.733,326.824,331.847,336.547,341.529,344.4779,347.574,352.182,354.669,357.147,359.626,362.112,367.135,371.4388,374.502,377.593,382.616,386.8401,389.922,393.32,397.68,401.26,405.62,409.914,413.312,417.283" svgx:width="0.57,0.33,0.55,0.52,0.3,0.52,0.41,0.93,0.55,0.45,0.6,0.58,0.45,0.37,0.52,0.61,0.48,0.53,0.55,0.33,0.57,0.41,0.55,0.6,0.45,0.53,0.55,0.3,0.61,0.55,0.48,0.61,0.53,0.93,0.3,0.48,0.52,0.3,0.55,0.48,0.61,0.52,0.41,0.52,0.48,0.37,0.53,0.41,0.3,0.5,0.52,0.37,0.3,0.57,0.61,0.55,0.52,0.61,0.6,0.55,0.58,0.3,0.57,0.52,0.45,0.45,0.52,0.55,0.45,0.55,0.86,0.3,0.37,0.61,0.57,0.6,0.37,0.55,0.56,0.3,0.3,0.3,0.3,0.61,0.54,0.55,0.37,0.61,0.53,0.55,0.41,0.53,0.45,0.53,0.52,0.41,0.48,0.61" style="fill:rgb(0,0,0);font-family:AdvOT863180fb;font-size:7.97px;stroke:none;">of alarm substance for use in chemical characterization and bioassays without killing the research</text>
   <text y="58.11" x="39.685,39.685,39.685,39.685,39.685,39.685,39.685,39.685,39.685,39.685,39.685,39.685,39.685,39.685,39.685,39.685" svgx:width="0.0,0.0,0.0,0.0,0.0,0.0,0.0,0.0,0.0,0.0,0.0,0.0,0.0,0.0,0.0,0.0" style="fill:rgb(0,0,0);font-family:AdvP48722B;font-size:11.96px;stroke:none;">[(Fig._3)TD$FIG]</text>
  </g>
  <path style="fill:none;stroke:rgb(4,5,8);stroke-width:1.0;" d="M181.670 164.960 L181.670 164.960 L181.670 168.630 L234.090 168.630 L234.090 164.960 "/>
  <path style="fill:none;stroke:rgb(4,5,8);stroke-width:2.1;" d="M194.800 171.880 L221.060 171.880 L194.800 171.880 "/>
  <path style="fill:none;stroke:rgb(4,5,8);stroke-width:2.1;" d="M207.930 171.880 L207.930 168.630 "/>
  <path style="fill:none;stroke:rgb(4,5,8);stroke-width:2.1;" d="M260.440 164.960 L260.440 164.960 L260.440 119.750 L312.870 119.750 L312.870 164.960 "/>
  <path style="fill:none;stroke:rgb(4,5,8);stroke-width:2.1;" d="M273.570 99.250 L299.830 99.250 L273.570 99.250 "/>
  <path style="fill:none;stroke:rgb(4,5,8);stroke-width:2.1;" d="M286.700 99.250 L286.700 119.750 "/>
  <path style="fill:none;stroke:rgb(4,5,8);stroke-width:2.1;" d="M168.540 165.310 L326.070 165.310 "/>
  <path style="fill:none;stroke:rgb(4,5,8);stroke-width:1.4;" d="M207.930 165.310 L207.930 168.280 "/>
  <g begin="text">
   <text y="187.824" x="193.728,199.475,204.337,209.199,211.891,214.985,219.847" svgx:width="0.72,0.61,0.61,0.33,0.39,0.61,0.28" style="fill:rgb(4,5,8);font-family:Arial-BoldMT;font-size:7.97px;stroke:none;">Control</text>
  </g>
  <path style="fill:none;stroke:rgb(4,5,8);stroke-width:1.4;" d="M286.700 165.310 L286.700 168.280 "/>
  <g begin="text">
   <text y="187.824" x="260.442,266.175,271.023,273.219,275.912,280.761,283.841,288.335,290.508,297.0,301.495,306.344,308.54" svgx:width="0.72,0.61,0.28,0.33,0.61,0.39,0.56,0.28,0.83,0.56,0.61,0.28,0.56" style="fill:rgb(4,5,8);font-family:Arial-BoldMT;font-size:7.97px;stroke:none;">Culture Media</text>
  </g>
  <path style="fill:none;stroke:rgb(4,5,8);stroke-width:1.4;" d="M168.540 186.340 L168.540 81.200 "/>
  <path style="fill:none;stroke:rgb(4,5,8);stroke-width:1.4;" d="M168.540 186.340 L165.570 186.340 "/>
  <g begin="text">
   <text y="188.905" x="151.357,154.049,158.2" svgx:width="0.33,0.56,0.56" style="fill:rgb(4,5,8);font-family:Arial-BoldMT;font-size:7.97px;stroke:none;">-20</text>
  </g>
  <path style="fill:none;stroke:rgb(4,5,8);stroke-width:1.4;" d="M168.540 165.310 L165.570 165.310 "/>
  <g begin="text">
   <text y="167.81" x="158.208" svgx:width="0.56" style="fill:rgb(4,5,8);font-family:Arial-BoldMT;font-size:7.97px;stroke:none;">0</text>
  </g>
  <path style="fill:none;stroke:rgb(4,5,8);stroke-width:1.4;" d="M168.540 144.280 L165.570 144.280 "/>
  <g begin="text">
   <text y="146.714" x="153.881,158.215" svgx:width="0.56,0.56" style="fill:rgb(4,5,8);font-family:Arial-BoldMT;font-size:7.97px;stroke:none;">20</text>
  </g>
  <path style="fill:none;stroke:rgb(4,5,8);stroke-width:1.4;" d="M168.540 123.250 L165.570 123.250 "/>
  <g begin="text">
   <text y="125.798" x="153.881,158.215" svgx:width="0.56,0.56" style="fill:rgb(4,5,8);font-family:Arial-BoldMT;font-size:7.97px;stroke:none;">40</text>
  </g>
  <path style="fill:none;stroke:rgb(4,5,8);stroke-width:1.4;" d="M168.540 102.220 L165.570 102.220 "/>
  <g begin="text">
   <text y="104.703" x="153.881,158.215" svgx:width="0.56,0.56" style="fill:rgb(4,5,8);font-family:Arial-BoldMT;font-size:7.97px;stroke:none;">60</text>
  </g>
  <path style="fill:none;stroke:rgb(4,5,8);stroke-width:1.4;" d="M168.540 81.200 L165.570 81.200 "/>
  <g begin="text">
   <text y="83.606" x="153.881,158.215" svgx:width="0.56,0.56" style="fill:rgb(4,5,8);font-family:Arial-BoldMT;font-size:7.97px;stroke:none;">80</text>
  </g>
  <path style="fill:rgb(4,5,8);stroke:none;stroke-width:1.4;" d="M228.410 200.080 L228.410 194.880 L226.550 194.880 L226.550 193.810 L231.530 193.810 L231.530 194.880 L229.680 194.880 L229.680 200.080 L228.410 200.080 "/>
  <path style="fill:rgb(4,5,8);stroke:none;stroke-width:1.4;" d="M233.380 200.080 L232.180 200.080 L232.180 195.540 L233.300 195.540 L233.300 196.190 C233.490 195.880 233.660 195.680 233.810 195.580 C233.960 195.490 234.140 195.440 234.330 195.440 C234.610 195.440 234.870 195.510 235.120 195.670 L234.750 196.710 C234.550 196.580 234.360 196.520 234.190 196.520 C234.020 196.520 233.880 196.560 233.760 196.660 C233.640 196.750 233.550 196.920 233.480 197.160 C233.420 197.400 233.380 197.910 233.380 198.680 L233.380 200.080 "/>
  <path style="fill:rgb(4,5,8);stroke:none;stroke-width:1.4;" d="M238.520 197.420 C238.510 197.080 238.420 196.810 238.250 196.630 C238.080 196.450 237.870 196.360 237.630 196.360 C237.370 196.360 237.150 196.460 236.980 196.650 C236.810 196.840 236.720 197.100 236.730 197.420 L238.520 197.420 ZM238.450 198.640 L239.650 198.840 C239.500 199.280 239.250 199.610 238.920 199.840 C238.590 200.070 238.170 200.190 237.680 200.190 C236.880 200.190 236.300 199.930 235.920 199.410 C235.620 199.000 235.470 198.480 235.470 197.850 C235.470 197.100 235.670 196.510 236.060 196.080 C236.460 195.650 236.950 195.440 237.550 195.440 C238.230 195.440 238.760 195.660 239.150 196.110 C239.540 196.560 239.730 197.240 239.710 198.160 L236.710 198.160 C236.710 198.520 236.810 198.790 236.990 198.990 C237.180 199.190 237.410 199.290 237.690 199.290 C237.880 199.290 238.030 199.240 238.160 199.140 C238.290 199.030 238.390 198.870 238.450 198.640 "/>
  <path style="fill:rgb(4,5,8);stroke:none;stroke-width:1.4;" d="M243.020 197.900 C242.870 197.960 242.630 198.020 242.290 198.090 C241.960 198.160 241.740 198.230 241.640 198.300 C241.480 198.410 241.400 198.550 241.400 198.720 C241.400 198.890 241.460 199.030 241.590 199.160 C241.720 199.280 241.880 199.340 242.070 199.340 C242.290 199.340 242.490 199.270 242.690 199.130 C242.830 199.020 242.930 198.890 242.980 198.730 C243.010 198.630 243.020 198.430 243.020 198.140 L243.020 197.900 ZM241.420 196.930 L240.320 196.730 C240.450 196.290 240.660 195.970 240.960 195.760 C241.260 195.550 241.700 195.440 242.290 195.440 C242.830 195.440 243.230 195.500 243.490 195.630 C243.750 195.760 243.930 195.920 244.040 196.110 C244.150 196.310 244.200 196.670 244.200 197.190 L244.190 198.590 C244.190 198.990 244.210 199.290 244.250 199.480 C244.290 199.670 244.360 199.870 244.460 200.090 L243.280 200.090 C243.240 200.010 243.210 199.890 243.160 199.730 C243.140 199.660 243.130 199.610 243.120 199.590 C242.910 199.790 242.690 199.940 242.460 200.040 C242.220 200.140 241.980 200.190 241.710 200.190 C241.240 200.190 240.880 200.060 240.600 199.810 C240.340 199.550 240.200 199.230 240.200 198.840 C240.200 198.590 240.260 198.360 240.390 198.160 C240.510 197.960 240.680 197.800 240.900 197.700 C241.120 197.590 241.440 197.500 241.860 197.420 C242.420 197.310 242.810 197.210 243.020 197.120 L243.020 197.000 C243.020 196.770 242.960 196.610 242.850 196.510 C242.740 196.410 242.520 196.360 242.210 196.360 C241.990 196.360 241.820 196.400 241.710 196.490 C241.590 196.570 241.490 196.720 241.420 196.930 "/>
  <path style="fill:rgb(4,5,8);stroke:none;stroke-width:1.4;" d="M247.470 195.540 L247.470 196.500 L246.650 196.500 L246.650 198.330 C246.650 198.700 246.650 198.920 246.670 198.980 C246.690 199.040 246.720 199.090 246.780 199.130 C246.830 199.170 246.900 199.190 246.980 199.190 C247.090 199.190 247.250 199.150 247.460 199.070 L247.570 200.010 C247.290 200.130 246.970 200.190 246.620 200.190 C246.400 200.190 246.210 200.150 246.030 200.080 C245.860 200.010 245.730 199.910 245.650 199.800 C245.570 199.680 245.510 199.520 245.480 199.330 C245.450 199.190 245.440 198.910 245.440 198.480 L245.440 196.500 L244.890 196.500 L244.890 195.540 L245.440 195.540 L245.440 194.640 L246.650 193.940 L246.650 195.540 L247.470 195.540 "/>
  <path style="fill:rgb(4,5,8);stroke:none;stroke-width:1.4;" d="M248.350 195.540 L249.460 195.540 L249.460 196.160 C249.850 195.680 250.320 195.440 250.870 195.440 C251.160 195.440 251.410 195.500 251.630 195.620 C251.840 195.740 252.020 195.920 252.150 196.160 C252.350 195.920 252.570 195.740 252.800 195.620 C253.030 195.500 253.280 195.440 253.540 195.440 C253.870 195.440 254.150 195.510 254.390 195.640 C254.620 195.780 254.790 195.980 254.900 196.240 C254.990 196.430 255.030 196.750 255.030 197.180 L255.030 200.080 L253.830 200.080 L253.830 197.490 C253.830 197.040 253.780 196.750 253.700 196.620 C253.590 196.440 253.420 196.360 253.190 196.360 C253.020 196.360 252.860 196.410 252.710 196.510 C252.570 196.620 252.460 196.770 252.390 196.960 C252.330 197.160 252.290 197.480 252.290 197.900 L252.290 200.080 L251.100 200.080 L251.100 197.600 C251.100 197.150 251.070 196.870 251.030 196.740 C250.990 196.610 250.920 196.520 250.830 196.450 C250.740 196.390 250.620 196.360 250.470 196.360 C250.280 196.360 250.110 196.410 249.970 196.510 C249.820 196.610 249.710 196.750 249.650 196.940 C249.580 197.130 249.550 197.440 249.550 197.880 L249.550 200.080 L248.350 200.080 L248.350 195.540 "/>
  <path style="fill:rgb(4,5,8);stroke:none;stroke-width:1.4;" d="M258.540 197.420 C258.530 197.080 258.440 196.810 258.270 196.630 C258.100 196.450 257.890 196.360 257.640 196.360 C257.380 196.360 257.160 196.460 256.990 196.650 C256.820 196.840 256.740 197.100 256.740 197.420 L258.540 197.420 ZM258.470 198.640 L259.660 198.840 C259.510 199.280 259.270 199.610 258.930 199.840 C258.600 200.070 258.190 200.190 257.690 200.190 C256.900 200.190 256.320 199.930 255.940 199.410 C255.640 199.000 255.490 198.480 255.490 197.850 C255.490 197.100 255.680 196.510 256.080 196.080 C256.470 195.650 256.970 195.440 257.570 195.440 C258.240 195.440 258.780 195.660 259.170 196.110 C259.560 196.560 259.740 197.240 259.730 198.160 L256.720 198.160 C256.730 198.520 256.820 198.790 257.010 198.990 C257.190 199.190 257.430 199.290 257.700 199.290 C257.890 199.290 258.050 199.240 258.180 199.140 C258.300 199.030 258.400 198.870 258.470 198.640 "/>
  <path style="fill:rgb(4,5,8);stroke:none;stroke-width:1.4;" d="M264.660 200.080 L263.460 200.080 L263.460 197.770 C263.460 197.280 263.430 196.960 263.380 196.820 C263.330 196.670 263.250 196.560 263.130 196.480 C263.020 196.400 262.880 196.360 262.720 196.360 C262.510 196.360 262.320 196.420 262.160 196.530 C261.990 196.640 261.880 196.800 261.820 196.980 C261.760 197.170 261.720 197.520 261.720 198.030 L261.720 200.080 L260.520 200.080 L260.520 195.540 L261.640 195.540 L261.640 196.210 C262.040 195.700 262.530 195.440 263.140 195.440 C263.400 195.440 263.640 195.490 263.860 195.580 C264.080 195.680 264.250 195.800 264.360 195.950 C264.470 196.100 264.550 196.260 264.590 196.450 C264.640 196.640 264.660 196.910 264.660 197.260 L264.660 200.080 "/>
  <path style="fill:rgb(4,5,8);stroke:none;stroke-width:1.4;" d="M267.860 195.540 L267.860 196.500 L267.030 196.500 L267.030 198.330 C267.030 198.700 267.040 198.920 267.060 198.980 C267.070 199.040 267.110 199.090 267.170 199.130 C267.220 199.170 267.290 199.190 267.370 199.190 C267.480 199.190 267.640 199.150 267.850 199.070 L267.950 200.010 C267.670 200.130 267.360 200.190 267.000 200.190 C266.790 200.190 266.590 200.150 266.420 200.080 C266.250 200.010 266.120 199.910 266.040 199.800 C265.960 199.680 265.900 199.520 265.870 199.330 C265.840 199.190 265.830 198.910 265.830 198.480 L265.830 196.500 L265.280 196.500 L265.280 195.540 L265.830 195.540 L265.830 194.640 L267.030 193.940 L267.030 195.540 L267.860 195.540 "/>
  <path style="fill:rgb(4,5,8);stroke:none;stroke-width:1.4;" d="M136.380 168.620 L140.530 168.620 L140.530 167.670 C140.530 167.320 140.510 167.060 140.470 166.910 C140.420 166.700 140.340 166.530 140.210 166.400 C140.090 166.260 139.890 166.150 139.610 166.070 C139.330 165.980 138.940 165.940 138.460 165.940 C137.970 165.940 137.600 165.980 137.340 166.070 C137.080 166.150 136.880 166.270 136.740 166.420 C136.590 166.580 136.490 166.770 136.440 167.010 C136.400 167.190 136.380 167.530 136.380 168.050 L136.380 168.620 ZM135.320 169.880 L135.320 167.570 C135.320 167.050 135.360 166.650 135.440 166.380 C135.550 166.010 135.740 165.690 136.020 165.430 C136.290 165.170 136.630 164.970 137.030 164.830 C137.430 164.700 137.930 164.630 138.510 164.630 C139.030 164.630 139.480 164.690 139.850 164.820 C140.310 164.980 140.680 165.200 140.960 165.490 C141.170 165.710 141.340 166.010 141.460 166.380 C141.550 166.660 141.590 167.030 141.590 167.500 L141.590 169.880 L135.320 169.880 "/>
  <path style="fill:rgb(4,5,8);stroke:none;stroke-width:1.4;" d="M139.410 161.070 C139.460 161.220 139.520 161.470 139.590 161.800 C139.660 162.130 139.730 162.350 139.800 162.450 C139.910 162.610 140.050 162.690 140.230 162.690 C140.390 162.690 140.540 162.630 140.660 162.500 C140.790 162.380 140.850 162.220 140.850 162.020 C140.850 161.810 140.770 161.600 140.630 161.400 C140.520 161.260 140.390 161.160 140.240 161.120 C140.130 161.090 139.940 161.070 139.650 161.070 L139.410 161.070 ZM138.430 162.680 L138.240 163.770 C137.800 163.640 137.470 163.430 137.260 163.130 C137.050 162.830 136.940 162.390 136.940 161.800 C136.940 161.260 137.010 160.870 137.140 160.600 C137.260 160.340 137.420 160.160 137.620 160.050 C137.810 159.940 138.170 159.890 138.690 159.890 L140.100 159.900 C140.500 159.900 140.790 159.880 140.980 159.840 C141.170 159.810 141.370 159.730 141.590 159.630 L141.590 160.820 C141.510 160.850 141.390 160.890 141.240 160.930 C141.160 160.950 141.120 160.970 141.100 160.980 C141.290 161.180 141.440 161.400 141.540 161.630 C141.640 161.870 141.690 162.120 141.690 162.380 C141.690 162.850 141.570 163.220 141.310 163.490 C141.060 163.760 140.740 163.890 140.350 163.890 C140.090 163.890 139.860 163.830 139.660 163.710 C139.460 163.580 139.310 163.410 139.200 163.190 C139.100 162.970 139.000 162.650 138.920 162.240 C138.820 161.670 138.720 161.290 138.630 161.070 L138.510 161.070 C138.280 161.070 138.110 161.130 138.010 161.240 C137.910 161.350 137.860 161.570 137.860 161.890 C137.860 162.100 137.910 162.270 137.990 162.390 C138.080 162.510 138.220 162.600 138.430 162.680 "/>
  <path style="fill:rgb(4,5,8);stroke:none;stroke-width:1.4;" d="M141.590 157.730 L141.590 158.930 L137.050 158.930 L137.050 157.820 L137.690 157.820 C137.390 157.620 137.190 157.450 137.090 157.300 C136.990 157.150 136.940 156.970 136.940 156.780 C136.940 156.510 137.020 156.240 137.170 155.990 L138.220 156.360 C138.090 156.560 138.020 156.750 138.020 156.930 C138.020 157.090 138.070 157.240 138.160 157.350 C138.250 157.470 138.420 157.560 138.660 157.630 C138.910 157.700 139.410 157.730 140.190 157.730 L141.590 157.730 "/>
  <path style="fill:rgb(4,5,8);stroke:none;stroke-width:1.4;" d="M137.050 153.210 L138.010 153.210 L138.010 154.030 L139.840 154.030 C140.210 154.030 140.420 154.020 140.490 154.010 C140.550 153.990 140.600 153.950 140.640 153.900 C140.680 153.840 140.700 153.780 140.700 153.700 C140.700 153.590 140.660 153.420 140.580 153.210 L141.510 153.110 C141.630 153.390 141.690 153.710 141.690 154.060 C141.690 154.280 141.660 154.470 141.580 154.650 C141.510 154.820 141.420 154.950 141.300 155.030 C141.190 155.110 141.030 155.160 140.830 155.200 C140.690 155.220 140.410 155.230 139.990 155.230 L138.010 155.230 L138.010 155.790 L137.050 155.790 L137.050 155.230 L136.150 155.230 L135.440 154.030 L137.050 154.030 L137.050 153.210 "/>
  <path style="fill:rgb(4,5,8);stroke:none;stroke-width:1.4;" d="M141.590 152.230 M136.430 152.230 "/>
  <path style="fill:rgb(4,5,8);stroke:none;stroke-width:1.4;" d="M141.590 145.410 L141.590 146.610 L139.270 146.610 C138.780 146.610 138.460 146.640 138.320 146.690 C138.180 146.740 138.060 146.820 137.980 146.940 C137.900 147.050 137.860 147.190 137.860 147.350 C137.860 147.560 137.920 147.750 138.040 147.920 C138.150 148.080 138.300 148.190 138.490 148.260 C138.680 148.320 139.020 148.350 139.530 148.350 L141.590 148.350 L141.590 149.550 L137.050 149.550 L137.050 148.430 L137.710 148.430 C137.200 148.040 136.940 147.540 136.940 146.940 C136.940 146.670 136.990 146.430 137.090 146.210 C137.180 145.990 137.300 145.830 137.450 145.710 C137.600 145.600 137.770 145.520 137.960 145.480 C138.150 145.430 138.420 145.410 138.770 145.410 L141.590 145.410 "/>
  <path style="fill:rgb(4,5,8);stroke:none;stroke-width:1.4;" d="M139.230 143.340 C139.710 143.340 140.060 143.240 140.280 143.060 C140.510 142.870 140.620 142.640 140.620 142.370 C140.620 142.070 140.500 141.820 140.280 141.620 C140.050 141.420 139.710 141.320 139.260 141.320 C138.780 141.320 138.440 141.420 138.210 141.610 C137.980 141.800 137.870 142.050 137.870 142.340 C137.870 142.630 137.980 142.870 138.200 143.060 C138.420 143.240 138.770 143.340 139.230 143.340 ZM141.890 144.410 L142.060 143.040 C142.220 143.010 142.330 142.960 142.390 142.880 C142.470 142.770 142.510 142.590 142.510 142.340 C142.510 142.030 142.470 141.790 142.370 141.640 C142.310 141.530 142.210 141.450 142.070 141.400 C141.970 141.360 141.790 141.340 141.520 141.340 L140.850 141.340 C141.350 141.700 141.590 142.150 141.590 142.700 C141.590 143.310 141.330 143.790 140.820 144.150 C140.410 144.430 139.900 144.570 139.290 144.570 C138.530 144.570 137.950 144.380 137.550 144.020 C137.150 143.650 136.950 143.200 136.950 142.650 C136.950 142.090 137.190 141.630 137.690 141.260 L137.050 141.260 L137.050 140.140 L141.120 140.140 C141.660 140.140 142.060 140.180 142.330 140.270 C142.590 140.360 142.800 140.480 142.950 140.640 C143.100 140.800 143.220 141.020 143.310 141.280 C143.390 141.550 143.430 141.890 143.430 142.290 C143.430 143.060 143.300 143.610 143.040 143.930 C142.770 144.250 142.440 144.410 142.040 144.410 C142.000 144.410 141.950 144.410 141.890 144.410 "/>
  <path style="fill:rgb(4,5,8);stroke:none;stroke-width:1.4;" d="M143.430 134.540 L143.430 135.370 C142.780 135.810 142.090 136.140 141.380 136.370 C140.670 136.590 139.980 136.710 139.320 136.710 C138.500 136.710 137.720 136.570 136.980 136.280 C136.340 136.040 135.750 135.730 135.210 135.350 L135.210 134.530 C136.080 134.920 136.810 135.190 137.420 135.340 C138.020 135.480 138.670 135.560 139.350 135.560 C139.810 135.560 140.290 135.510 140.780 135.430 C141.270 135.340 141.740 135.220 142.180 135.070 C142.470 134.970 142.890 134.800 143.430 134.540 "/>
  <path style="fill:rgb(4,5,8);stroke:none;stroke-width:1.4;" d="M140.290 133.910 L140.110 132.700 C140.350 132.650 140.520 132.540 140.640 132.390 C140.760 132.230 140.820 132.010 140.820 131.730 C140.820 131.420 140.770 131.190 140.650 131.030 C140.570 130.920 140.470 130.870 140.330 130.870 C140.240 130.870 140.170 130.900 140.110 130.960 C140.050 131.020 140.000 131.150 139.950 131.360 C139.730 132.330 139.540 132.940 139.360 133.200 C139.120 133.560 138.780 133.740 138.340 133.740 C137.950 133.740 137.620 133.580 137.350 133.270 C137.080 132.960 136.940 132.480 136.940 131.830 C136.940 131.210 137.050 130.750 137.250 130.440 C137.450 130.140 137.750 129.930 138.150 129.820 L138.360 130.950 C138.180 131.000 138.040 131.090 137.950 131.230 C137.860 131.360 137.810 131.560 137.810 131.810 C137.810 132.120 137.850 132.350 137.940 132.490 C138.010 132.580 138.090 132.620 138.190 132.620 C138.270 132.620 138.340 132.580 138.400 132.500 C138.480 132.400 138.600 132.020 138.740 131.380 C138.890 130.740 139.070 130.300 139.280 130.040 C139.490 129.790 139.790 129.670 140.170 129.670 C140.590 129.670 140.940 129.840 141.240 130.190 C141.540 130.530 141.690 131.050 141.690 131.730 C141.690 132.350 141.570 132.840 141.320 133.200 C141.070 133.560 140.730 133.790 140.290 133.910 "/>
  <path style="fill:rgb(4,5,8);stroke:none;stroke-width:1.4;" d="M138.930 125.920 C138.580 125.920 138.320 126.020 138.140 126.190 C137.950 126.360 137.860 126.570 137.860 126.810 C137.860 127.070 137.960 127.290 138.150 127.460 C138.340 127.630 138.600 127.710 138.930 127.710 L138.930 125.920 ZM140.140 125.980 L140.350 124.790 C140.780 124.940 141.120 125.190 141.350 125.520 C141.580 125.850 141.690 126.270 141.690 126.760 C141.690 127.550 141.430 128.140 140.920 128.520 C140.510 128.820 139.980 128.960 139.350 128.960 C138.600 128.960 138.010 128.770 137.580 128.370 C137.160 127.980 136.940 127.480 136.940 126.880 C136.940 126.210 137.170 125.670 137.610 125.280 C138.060 124.890 138.740 124.710 139.670 124.720 L139.670 127.730 C140.020 127.720 140.300 127.630 140.500 127.440 C140.700 127.260 140.790 127.030 140.790 126.750 C140.790 126.560 140.740 126.400 140.640 126.280 C140.540 126.150 140.370 126.050 140.140 125.980 "/>
  <path style="fill:rgb(4,5,8);stroke:none;stroke-width:1.4;" d="M138.390 119.960 L138.610 121.150 C138.370 121.190 138.190 121.280 138.070 121.420 C137.950 121.560 137.890 121.740 137.890 121.970 C137.890 122.270 137.990 122.510 138.200 122.680 C138.410 122.860 138.750 122.950 139.240 122.950 C139.780 122.950 140.160 122.860 140.380 122.680 C140.600 122.500 140.710 122.260 140.710 121.950 C140.710 121.720 140.650 121.540 140.520 121.390 C140.390 121.240 140.170 121.140 139.850 121.080 L140.050 119.900 C140.590 120.030 141.000 120.260 141.280 120.610 C141.560 120.960 141.690 121.420 141.690 122.010 C141.690 122.670 141.480 123.200 141.060 123.590 C140.650 123.990 140.070 124.190 139.320 124.190 C138.570 124.190 137.990 123.990 137.570 123.590 C137.150 123.200 136.950 122.660 136.950 121.980 C136.950 121.430 137.060 120.990 137.300 120.670 C137.540 120.340 137.900 120.110 138.390 119.960 "/>
  <path style="fill:rgb(4,5,8);stroke:none;stroke-width:1.4;" d="M139.320 118.270 C139.770 118.270 140.120 118.170 140.350 117.950 C140.590 117.740 140.710 117.480 140.710 117.160 C140.710 116.850 140.590 116.590 140.350 116.370 C140.120 116.160 139.770 116.060 139.310 116.060 C138.870 116.060 138.520 116.160 138.280 116.370 C138.040 116.590 137.920 116.850 137.920 117.160 C137.920 117.480 138.040 117.740 138.280 117.950 C138.520 118.170 138.870 118.270 139.320 118.270 ZM139.260 119.510 C138.860 119.510 138.470 119.410 138.100 119.210 C137.720 119.010 137.440 118.730 137.240 118.380 C137.040 118.010 136.950 117.610 136.950 117.170 C136.950 116.480 137.170 115.920 137.610 115.480 C138.060 115.040 138.630 114.820 139.310 114.820 C139.990 114.820 140.560 115.040 141.010 115.490 C141.470 115.930 141.690 116.490 141.690 117.160 C141.690 117.580 141.600 117.970 141.410 118.350 C141.220 118.730 140.950 119.010 140.580 119.210 C140.220 119.410 139.780 119.510 139.260 119.510 "/>
  <path style="fill:rgb(4,5,8);stroke:none;stroke-width:1.4;" d="M141.590 109.860 L141.590 111.060 L139.270 111.060 C138.780 111.060 138.460 111.080 138.320 111.140 C138.180 111.190 138.060 111.270 137.980 111.390 C137.900 111.500 137.860 111.640 137.860 111.800 C137.860 112.010 137.920 112.200 138.040 112.360 C138.150 112.530 138.300 112.640 138.490 112.700 C138.680 112.760 139.020 112.790 139.530 112.790 L141.590 112.790 L141.590 113.990 L137.050 113.990 L137.050 112.880 L137.710 112.880 C137.200 112.480 136.940 111.980 136.940 111.380 C136.940 111.120 136.990 110.880 137.090 110.660 C137.180 110.440 137.300 110.270 137.450 110.160 C137.600 110.040 137.770 109.970 137.960 109.920 C138.150 109.880 138.420 109.860 138.770 109.860 L141.590 109.860 "/>
  <path style="fill:rgb(4,5,8);stroke:none;stroke-width:1.4;" d="M139.220 107.970 C139.710 107.970 140.060 107.900 140.270 107.770 C140.590 107.580 140.740 107.310 140.740 106.960 C140.740 106.680 140.630 106.450 140.390 106.250 C140.160 106.060 139.800 105.960 139.340 105.960 C138.810 105.960 138.440 106.060 138.210 106.240 C137.980 106.430 137.860 106.670 137.860 106.970 C137.860 107.250 137.980 107.490 138.200 107.680 C138.430 107.880 138.770 107.970 139.220 107.970 ZM141.590 104.770 L141.590 105.880 L140.920 105.880 C141.180 106.070 141.380 106.290 141.500 106.540 C141.630 106.790 141.690 107.040 141.690 107.300 C141.690 107.820 141.480 108.270 141.060 108.640 C140.640 109.010 140.050 109.200 139.300 109.200 C138.530 109.200 137.950 109.020 137.550 108.660 C137.150 108.290 136.940 107.840 136.940 107.280 C136.940 106.780 137.160 106.340 137.580 105.970 L135.320 105.970 L135.320 104.770 L141.590 104.770 "/>
  <path style="fill:rgb(4,5,8);stroke:none;stroke-width:1.4;" d="M140.290 103.950 L140.110 102.750 C140.350 102.700 140.520 102.590 140.640 102.430 C140.760 102.280 140.820 102.060 140.820 101.780 C140.820 101.470 140.770 101.230 140.650 101.080 C140.570 100.970 140.470 100.920 140.330 100.920 C140.240 100.920 140.170 100.950 140.110 101.000 C140.050 101.060 140.000 101.200 139.950 101.410 C139.730 102.370 139.540 102.990 139.360 103.250 C139.120 103.610 138.780 103.790 138.340 103.790 C137.950 103.790 137.620 103.630 137.350 103.320 C137.080 103.010 136.940 102.530 136.940 101.880 C136.940 101.250 137.050 100.790 137.250 100.490 C137.450 100.190 137.750 99.980 138.150 99.870 L138.360 101.000 C138.180 101.050 138.040 101.140 137.950 101.270 C137.860 101.410 137.810 101.600 137.810 101.850 C137.810 102.170 137.850 102.400 137.940 102.530 C138.010 102.620 138.090 102.670 138.190 102.670 C138.270 102.670 138.340 102.630 138.400 102.550 C138.480 102.440 138.600 102.070 138.740 101.430 C138.890 100.790 139.070 100.340 139.280 100.090 C139.490 99.840 139.790 99.710 140.170 99.710 C140.590 99.710 140.940 99.890 141.240 100.230 C141.540 100.580 141.690 101.100 141.690 101.780 C141.690 102.400 141.570 102.880 141.320 103.240 C141.070 103.610 140.730 103.840 140.290 103.950 "/>
  <path style="fill:rgb(4,5,8);stroke:none;stroke-width:1.4;" d="M143.430 99.350 C142.930 99.120 142.540 98.950 142.270 98.850 C142.000 98.760 141.680 98.670 141.330 98.580 C140.980 98.500 140.640 98.440 140.320 98.400 C140.000 98.360 139.680 98.340 139.350 98.340 C138.670 98.340 138.020 98.410 137.420 98.560 C136.810 98.700 136.080 98.970 135.210 99.360 L135.210 98.550 C135.830 98.120 136.480 97.780 137.160 97.540 C137.850 97.310 138.550 97.190 139.260 97.190 C139.850 97.190 140.490 97.280 141.170 97.470 C141.940 97.680 142.690 98.030 143.430 98.520 L143.430 99.350 "/>
  <path style="fill:rgb(4,5,8);stroke:none;stroke-width:1.4;" d="M288.870 69.480 C288.940 69.510 288.970 69.560 288.960 69.640 C288.960 69.720 288.910 69.840 288.810 70.010 C288.720 70.170 288.640 70.270 288.570 70.320 C288.500 70.360 288.440 70.360 288.390 70.310 L287.400 69.520 L287.600 70.770 C287.620 70.840 287.590 70.890 287.520 70.930 C287.440 70.970 287.310 70.980 287.120 70.980 C286.930 70.980 286.790 70.970 286.720 70.930 C286.650 70.890 286.620 70.840 286.640 70.770 L286.840 69.520 L285.850 70.310 C285.800 70.360 285.740 70.360 285.670 70.310 C285.610 70.270 285.520 70.170 285.420 70.000 C285.330 69.840 285.280 69.720 285.280 69.640 C285.270 69.560 285.300 69.510 285.360 69.480 L286.550 69.030 L285.360 68.570 C285.300 68.550 285.270 68.490 285.280 68.410 C285.280 68.340 285.330 68.210 285.420 68.050 C285.520 67.880 285.600 67.780 285.670 67.730 C285.740 67.690 285.800 67.690 285.850 67.740 L286.840 68.530 L286.640 67.280 C286.620 67.220 286.650 67.160 286.720 67.130 C286.790 67.090 286.930 67.070 287.120 67.070 C287.310 67.070 287.440 67.090 287.520 67.130 C287.590 67.160 287.620 67.220 287.600 67.280 L287.400 68.530 L288.390 67.740 C288.440 67.690 288.500 67.690 288.570 67.740 C288.630 67.780 288.710 67.890 288.810 68.050 C288.910 68.210 288.960 68.340 288.960 68.410 C288.970 68.490 288.940 68.550 288.870 68.570 L287.690 69.030 L288.870 69.480 "/>
  <g begin="text">
   <text y="214.299" x="39.685,43.339,45.5,49.253,50.9118,52.327,56.186" svgx:width="0.55,0.33,0.57,0.26,0.55,0.58,0.26" style="fill:rgb(0,0,0);font-family:AdvOT18499c10.B;font-size:6.38px;stroke:none;">Fig. 3.</text>
   <text y="214.299" x="61.228,64.968,67.687,69.676,75.823,79.258,81.976,85.485,86.853,90.029,93.516,95.499,97.413,98.928,102.104,106.089,108.072,110.545,114.53,117.249,120.6304,122.057,128.204,131.692,135.637,137.627,140.9446,142.466,144.455,148.473,152.419,156.404,159.58,163.068,165.93900000000002,167.409,171.355,174.79,177.508,179.981,181.971,185.989,189.4342,190.993,194.832,198.32,202.338,205.619,209.213,211.202,214.962,217.5778,219.111,221.1,224.99179999999998,226.481,230.473,233.192,236.679,240.167,243.7398,245.189,249.181,253.199,257.185,261.024,262.4914,264.01,266.079,270.064,273.658,277.146,281.164,283.153,285.136,288.5174,289.975,293.966,296.685,300.173,303.66,307.2328,308.683,312.674,316.693,320.678" svgx:width="0.56,0.41,0.3,0.93,0.52,0.41,0.55,0.55,0.48,0.53,0.3,0.3,0.55,0.48,0.6,0.3,0.37,0.6,0.41,0.53,0.55,0.93,0.53,0.6,0.3,0.52,0.55,0.3,0.61,0.6,0.6,0.48,0.53,0.45,0.55,0.6,0.52,0.41,0.37,0.3,0.61,0.54,0.55,0.58,0.53,0.61,0.52,0.54,0.3,0.57,0.41,0.55,0.3,0.61,0.55,0.6,0.41,0.53,0.53,0.56,0.55,0.6,0.61,0.6,0.58,0.23,0.55,0.31,0.6,0.54,0.53,0.61,0.3,0.3,0.53,0.55,0.6,0.41,0.53,0.53,0.56,0.55,0.6,0.61,0.6,0.58" style="fill:rgb(0,0,0);font-family:AdvOT863180fb;font-size:6.38px;stroke:none;">Primary cell culture media induces darting behavior in Creek Chub. Juvenile Creek Chub</text>
   <text y="214.299" x="325.927,325.927,325.927,325.927,325.927,325.927,325.927,325.927,325.927,325.927,325.927" svgx:width="0.0,0.0,0.0,0.0,0.0,0.0,0.0,0.0,0.0,0.0,0.0" style="fill:rgb(0,0,0);font-family:AdvP48722B;font-size:6.38px;stroke:none;">[5_TD$DIFF]</text>
   <text y="214.299" x="325.927,331.623,335.111,337.663,341.0444,342.538,346.298,350.137,353.094,356.582,359.301,362.895,366.383,370.21099999999996,371.677,373.666,377.5578,379.104,381.577,385.595,388.9764,390.499,393.934,397.773,400.73,404.218,408.236,411.412,414.79339999999996,416.293,420.052" svgx:width="0.86,0.53,0.41,0.53,0.55,0.57,0.58,0.45,0.53,0.41,0.54,0.53,0.6,0.55,0.3,0.61,0.55,0.37,0.61,0.53,0.55,0.52,0.58,0.45,0.53,0.61,0.48,0.53,0.55,0.57,0.33" style="fill:rgb(0,0,0);font-family:AdvOT863180fb;font-size:6.38px;stroke:none;">were observed in the absence of</text>
   <text y="222.917" x="39.685,42.158,44.877,48.365,51.799,54.273,60.42,63.907,67.926,70.399,71.8664,73.699,75.688,79.5798,81.466,83.939,87.957,91.3384,93.257,97.222,99.941,103.429,106.386,109.874,113.892,117.068,120.4494,122.283,126.043,128.1484,130.05,133.3676,135.265,138.442,142.201,146.219,148.693,151.411,155.171,157.08499999999998,158.905,161.863,165.622,167.605,171.59,174.063,176.053,179.812,183.7038,185.606,188.06,192.005,193.994,196.952,199.425,201.414,203.397,205.379,208.867,212.695,214.575,220.131,223.566,226.039,229.527,232.245,234.692,236.1594,237.988,241.423,245.441,249.269,251.198,253.187,257.0788,258.964,261.438,265.456,268.8374,270.756,274.721,277.44,280.927,283.885,287.373,291.391,294.567,297.9484,299.781,303.541,305.64639999999997,307.548,310.836,312.395,316.0954,317.356,323.502,326.692,328.58,334.728,338.216,342.161,344.15,347.4676,349.386,351.594,354.313,358.073,364.0064,365.94,369.116,373.102,375.084,377.557,381.543,384.261,387.749,391.577,393.435,396.923,400.888,402.877,405.35,409.369,412.856,414.839,416.828,420.263" svgx:width="0.37,0.41,0.53,0.52,0.37,0.93,0.53,0.61,0.37,0.23,0.55,0.3,0.61,0.55,0.37,0.61,0.53,0.55,0.6,0.41,0.53,0.45,0.53,0.61,0.48,0.53,0.55,0.57,0.33,0.55,0.52,0.55,0.48,0.57,0.61,0.37,0.41,0.57,0.3,0.55,0.45,0.57,0.3,0.6,0.37,0.3,0.57,0.61,0.55,0.37,0.6,0.3,0.45,0.37,0.3,0.3,0.3,0.53,0.6,0.55,0.86,0.52,0.37,0.53,0.41,0.37,0.23,0.55,0.52,0.61,0.6,0.55,0.3,0.61,0.55,0.37,0.61,0.53,0.55,0.6,0.41,0.53,0.45,0.53,0.61,0.48,0.53,0.55,0.57,0.33,0.55,0.58,0.23,0.58,0.55,0.93,0.5,0.55,0.93,0.53,0.6,0.3,0.52,0.55,0.33,0.41,0.57,0.93,0.55,0.48,0.6,0.3,0.37,0.6,0.41,0.53,0.6,0.55,0.53,0.6,0.3,0.37,0.61,0.53,0.3,0.3,0.52,0.3" style="fill:rgb(0,0,0);font-family:AdvOT863180fb;font-size:6.38px;stroke:none;">treatment, in the presence of a control solution (distilled water), and in the presence of 1.5 mL media from cultured epithelial</text>
   <text y="231.477" x="39.685,42.861,46.349,48.332,50.314,53.185,54.538,56.991,60.426,62.701,65.174,68.662,71.2778,72.565,76.404,80.1044,81.296,85.314,87.761,89.2284,90.593,95.341,99.18,102.137,105.625,108.344,111.795,115.23,117.703,119.692,123.452,127.3438,128.745,131.219,133.208,139.355,142.7364,144.052,149.608,153.043,155.91400000000002,157.261,160.606,164.445,168.1454,169.393,172.35,173.8174,175.175,178.663,182.151,185.327,189.087,193.105,197.051,199.922,201.309,205.069,207.1744,208.509,212.455,215.889,218.608,221.081,223.07,227.089,230.5342,231.979,235.818,239.306,243.324,246.605,250.199,252.188,255.948,258.5638,259.928,265.484,268.918,271.789,273.194,276.482,280.076,283.564,286.119,289.554,293.148,296.636,300.464,301.766,303.974,307.734,310.34979999999996,311.743,315.4434,316.846,319.319,322.038,324.027,327.462,329.444,332.402,334.635,336.007,342.154,345.641,349.076,353.094,355.965,357.322,363.018,366.506,369.224,372.6054,373.876,377.052,380.812,386.959,390.924,394.359,397.077,400.565,404.393,405.679,409.664,412.622,414.611,418.629" svgx:width="0.48,0.53,0.3,0.3,0.45,0.55,0.37,0.52,0.33,0.37,0.53,0.41,0.55,0.58,0.58,0.55,0.61,0.37,0.23,0.55,0.72,0.58,0.45,0.53,0.41,0.54,0.52,0.37,0.3,0.57,0.61,0.55,0.37,0.3,0.93,0.53,0.55,0.86,0.52,0.45,0.55,0.58,0.58,0.58,0.55,0.45,0.23,0.55,0.53,0.53,0.48,0.57,0.61,0.6,0.45,0.55,0.57,0.33,0.55,0.6,0.52,0.41,0.37,0.3,0.61,0.54,0.55,0.58,0.53,0.61,0.52,0.54,0.3,0.57,0.41,0.55,0.86,0.52,0.45,0.55,0.52,0.54,0.53,0.41,0.52,0.54,0.53,0.6,0.55,0.33,0.57,0.41,0.55,0.58,0.55,0.37,0.41,0.3,0.52,0.3,0.45,0.35,0.55,0.93,0.53,0.52,0.61,0.45,0.55,0.86,0.53,0.41,0.53,0.55,0.48,0.57,0.93,0.6,0.52,0.41,0.53,0.6,0.55,0.6,0.45,0.3,0.61,0.54" style="fill:rgb(0,0,0);font-family:AdvOT863180fb;font-size:6.38px;stroke:none;">cells (after 24 h). Observation time was 180 s. Seconds of darting behavior was averaged for 9 trials; means were compared using</text>
   <text y="240.037" x="39.685" svgx:width="0.52" style="fill:rgb(0,0,0);font-family:AdvOT863180fb;font-size:6.38px;stroke:none;">a</text>
   <text y="240.037" x="45.354" svgx:width="0.35" style="fill:rgb(0,0,0);font-family:AdvOTf2586c63.I;font-size:6.38px;stroke:none;">t</text>
   <text y="240.037" x="47.678,50.404,52.877,56.365,59.322,61.795,63.2624,65.48,68.264,69.7314,72.056,75.013,77.003,80.596,84.615,86.57,90.708,93.885,97.319,101.338,103.811,105.793,109.302,111.57,115.516,117.505,119.713,121.921,125.409,128.127,131.615,135.633,137.99360000000001,140.256,142.464,145.182,148.942,154.8754,157.207,160.383,164.142,168.161,170.634,173.353,177.112,179.095,180.5624,182.831" svgx:width="0.41,0.37,0.53,0.45,0.37,0.23,0.55,0.42,0.23,0.55,0.45,0.3,0.54,0.61,0.3,0.62,0.48,0.52,0.61,0.37,0.3,0.55,0.55,0.6,0.3,0.33,0.33,0.53,0.41,0.53,0.61,0.37,0.55,0.33,0.41,0.57,0.93,0.55,0.48,0.57,0.61,0.37,0.41,0.57,0.3,0.23,0.55,0.6" style="fill:rgb(0,0,0);font-family:AdvOT863180fb;font-size:6.38px;stroke:none;">-test. *, signiﬁcantly different from control, p</text>
   <text y="240.037" x="187.88" svgx:width="0.77" style="fill:rgb(0,0,0);font-family:AdvP4C4E51;font-size:6.38px;stroke:none;">&lt;</text>
   <text y="240.037" x="194.116,197.942,199.501,203.327,207.166" svgx:width="0.58,0.23,0.58,0.58,0.23" style="fill:rgb(0,0,0);font-family:AdvOT863180fb;font-size:6.38px;stroke:none;">0.05.</text>
   <text y="50.059" x="39.685,43.597,47.436" svgx:width="0.58,0.58,0.58" style="fill:rgb(0,0,0);font-family:AdvOT863180fb;font-size:6.38px;stroke:none;">484</text>
   <text y="50.059" x="163.389,168.13,169.649,173.82,175.2874,177.562,182.303,184.199,188.032,190.379,193.25,195.59,198.773,201.006,203.3,206.834,208.651,210.1184,211.293,213.2708,214.468,220.37,223.553,225.9,229.64,233.174,236.861,239.566,243.4578,245.762,249.27100000000002,251.658,254.132,257.799,261.182,264.3,267.967,270.3914,272.691,276.357,280.024,283.692,287.547,291.214,294.881" svgx:width="0.71,0.23,0.61,0.23,0.55,0.71,0.29,0.58,0.35,0.45,0.55,0.48,0.35,0.55,0.53,0.27,0.23,0.55,0.31,0.55,0.89,0.48,0.35,0.56,0.53,0.56,0.41,0.61,0.55,0.55,0.55,0.37,0.55,0.55,0.55,0.55,0.38,0.55,0.55,0.55,0.55,0.58,0.55,0.55,0.55" style="fill:rgb(0,0,0);font-family:AdvOTf2586c63.I;font-size:6.38px;stroke:none;">H.A. Hintz et al. / MethodsX 4 (2017) 480–485</text>
  </g>
 </g>
</svg>
