<?xml version="1.0" encoding="UTF-8"?>
<svg height="766.34" width="530.3204999999999" xmlns="http://www.w3.org/2000/svg">
 <g id="page" xmlns:svgx="http://www.xml-cml.org/schema/svgx">
  <g begin="text">
   <text y="62.979" x="76.535,84.059,87.159,91.144,93.36,96.604,98.819,103.251,106.351" svgx:width="0.94,0.39,0.5,0.28,0.41,0.28,0.56,0.39,0.39" style="fill:rgb(0,0,0);font-family:URWPalladioL-Ital;font-size:7.97px;stroke:none;">Medicines</text>
   <text y="62.979" x="111.444,115.429,119.414,123.399" svgx:width="0.5,0.5,0.5,0.5" style="fill:rgb(0,0,0);font-family:URWPalladioL-Bold;font-size:7.97px;stroke:none;">2017</text>
   <text y="62.979" x="127.384" svgx:width="0.25" style="fill:rgb(0,0,0);font-family:URWPalladioL-Roma;font-size:7.97px;stroke:none;">,</text>
   <text y="62.979" x="131.369" svgx:width="0.5" style="fill:rgb(0,0,0);font-family:URWPalladioL-Ital;font-size:7.97px;stroke:none;">4</text>
   <text y="62.979" x="135.354,137.34650000000002,139.339,143.324,147.30900000000003,499.779,503.764,505.757,510.108,512.7381,514.755" svgx:width="0.25,0.55,0.5,0.5,0.55,0.5,0.55,0.55,0.33,0.55,0.5" style="fill:rgb(0,0,0);font-family:URWPalladioL-Roma;font-size:7.97px;stroke:none;">, 26 8 of 9</text>
   <text y="97.848" x="76.535,81.018,83.26050000000001,98.05,103.638,108.211,112.089,117.174,122.689,128.011,130.673,132.9155,135.191,143.843,146.129,148.3715,150.647,156.235,160.808,165.866,170.438,172.6805,174.956,179.758,182.044,184.28650000000002,186.572,193.211,195.873,201.196,203.336,208.329,210.57150000000001,212.847,217.951,220.237,222.4795,224.755,231.943,237.029,242.543,244.7855,247.061,254.671,256.9135,259.189,263.99,268.563,271.224,273.886,279.209,281.87,284.852,289.87519999999995,292.168,294.83,300.152,304.213,307.67,312.051,316.624,320.492,324.873,328.6404,330.983,333.964,339.287,343.5926,345.899,348.881,352.493,355.155,358.136,362.517,366.13,371.626,376.007,381.33,386.323,388.985,394.4567,396.804,400.865,405.859,411.181,414.163,418.544,423.867,426.82710000000003,429.08,434.073,437.0331,439.35,443.83500000000004,446.155,450.033,454.605,457.267,460.2271,462.48,466.358,470.738,474.799,478.256,482.637,485.618,490.612,494.20000000000005,496.456,501.029,506.352,511.8237,514.171" svgx:width="0.5,0.25,0.55,0.61,0.5,0.42,0.56,0.6,0.58,0.29,0.25,0.55,0.95,0.25,0.25,0.55,0.61,0.5,0.55,0.5,0.25,0.55,0.52,0.25,0.25,0.55,0.73,0.29,0.58,0.23,0.55,0.25,0.55,0.67,0.25,0.25,0.55,0.79,0.56,0.6,0.25,0.55,0.83,0.25,0.55,0.52,0.5,0.29,0.29,0.58,0.29,0.33,0.56,0.55,0.29,0.58,0.44,0.4,0.48,0.5,0.42,0.48,0.42,0.55,0.33,0.58,0.48,0.55,0.33,0.4,0.29,0.33,0.48,0.4,0.6,0.48,0.58,0.55,0.29,0.61,0.55,0.44,0.55,0.58,0.33,0.48,0.58,0.33,0.55,0.55,0.33,0.55,0.5,0.55,0.42,0.5,0.29,0.33,0.55,0.42,0.48,0.44,0.4,0.48,0.33,0.55,0.4,0.55,0.5,0.58,0.61,0.55,0.5" style="fill:rgb(0,0,0);font-family:URWPalladioL-Roma;font-size:8.97px;stroke:none;">7. Basyuni, M.; Baba, S.; Kinjo, Y.; Oku, H. Salinity increases the triterpenoid content of a salt secretor and a</text>
   <text y="110.76" x="98.05,103.268,108.164,113.383,116.368,120.17,124.653,127.263,130.22310000000002,132.427,136.229,140.524,144.505,147.885,152.18,155.103,159.999,163.587,165.782,173.7,178.183,183.401,188.387,191.767,196.663,201.729,206.023" svgx:width="0.58,0.55,0.58,0.33,0.42,0.5,0.29,0.33,0.55,0.42,0.48,0.44,0.4,0.48,0.33,0.55,0.4,0.55,0.88,0.5,0.58,0.56,0.4,0.55,0.56,0.48,0.25" style="fill:rgb(0,0,0);font-family:URWPalladioL-Roma;font-size:8.97px;stroke:none;">non-salt secretor mangrove.</text>
   <text y="110.76" x="211.044,217.518,221.669,226.655,230.636,233.621,235.86350000000002,238.643,244.121,248.102,251.088" svgx:width="0.72,0.46,0.56,0.44,0.33,0.25,0.55,0.61,0.44,0.33,0.25" style="fill:rgb(0,0,0);font-family:URWPalladioL-Ital;font-size:8.97px;stroke:none;">Aquat. Bot.</text>
   <text y="110.76" x="256.108,260.591,265.074,269.558" svgx:width="0.5,0.5,0.5,0.5" style="fill:rgb(0,0,0);font-family:URWPalladioL-Bold;font-size:8.97px;stroke:none;">2012</text>
   <text y="110.76" x="274.041" svgx:width="0.25" style="fill:rgb(0,0,0);font-family:URWPalladioL-Roma;font-size:8.97px;stroke:none;">,</text>
   <text y="110.76" x="278.524,283.007" svgx:width="0.5,0.5" style="fill:rgb(0,0,0);font-family:URWPalladioL-Ital;font-size:8.97px;stroke:none;">97</text>
   <text y="110.76" x="287.49,289.7325,291.973,296.456,300.94,305.423,309.906,314.389,316.6315,319.41" svgx:width="0.25,0.55,0.5,0.5,0.5,0.5,0.5,0.25,0.55,0.33" style="fill:rgb(0,0,0);font-family:URWPalladioL-Roma;font-size:8.97px;stroke:none;">, 17–23. [</text>
   <text y="110.76" x="322.396,328.753,332.134,337.029,340.831,344.633,350.622,354.917" svgx:width="0.71,0.4,0.55,0.42,0.42,0.67,0.48,0.33" style="fill:rgb(0,0,255);font-family:URWPalladioL-Roma;font-size:8.97px;stroke:none;">CrossRef</text>
   <text y="110.76" x="357.903" svgx:width="0.33" style="fill:rgb(0,0,0);font-family:URWPalladioL-Roma;font-size:8.97px;stroke:none;">]</text>
   <text y="123.672" x="76.535,81.018,83.26050000000001,98.05,102.852,107.424,112.747,115.729,120.722,124.6,126.8425,130.124,134.926,137.212,143.696,145.983,148.2255,152.001,157.086,161.466,165.079,168.527,172.908,175.569,179.182,183.755,185.9975,189.279,193.541,195.827,200.629,202.915,205.1575,208.933,216.012,220.585,228.66" svgx:width="0.5,0.25,0.55,0.52,0.5,0.58,0.33,0.55,0.42,0.25,0.55,0.52,0.25,0.71,0.25,0.25,0.55,0.56,0.48,0.4,0.4,0.48,0.29,0.4,0.5,0.25,0.55,0.56,0.25,0.52,0.25,0.25,0.55,0.77,0.5,0.88,0.29" style="fill:rgb(0,0,0);font-family:URWPalladioL-Roma;font-size:8.97px;stroke:none;">8. Santos, S.C.; Ferreira, F.S.; Dami</text>
   <text y="123.672" x="231.319" svgx:width="0.5" style="fill:rgb(0,0,0);font-family:VnURWPalladioL;font-size:8.97px;stroke:none;">ã</text>
   <text y="123.672" x="235.892,240.886,243.1285,246.41,253.525,255.811,263.0,265.286,267.5285,271.304,278.383,282.956,291.032" svgx:width="0.55,0.25,0.55,0.78,0.25,0.79,0.25,0.25,0.55,0.77,0.5,0.88,0.29" style="fill:rgb(0,0,0);font-family:URWPalladioL-Roma;font-size:8.97px;stroke:none;">o, A.O.; Dami</text>
   <text y="123.672" x="293.691" svgx:width="0.5" style="fill:rgb(0,0,0);font-family:VnURWPalladioL;font-size:8.97px;stroke:none;">ã</text>
   <text y="123.672" x="298.264,303.258,305.5005,308.782,315.897,318.183,325.372,327.658,329.9005,333.676,339.264,343.837,347.45,350.898,355.891,359.769,362.0115,365.293,370.232,372.518,376.78,379.066,381.3085,385.084,391.194,396.187,400.065,403.943,406.604,409.65,416.765,419.427,424.594,429.167,431.4095,434.691,437.736,440.023,446.507,448.794,451.0365,454.811,459.896,464.277,467.89,473.213,477.785,483.108,488.696,493.077,497.65,499.8925,503.174,508.762,511.048,518.027" svgx:width="0.55,0.25,0.55,0.78,0.25,0.79,0.25,0.25,0.55,0.61,0.5,0.4,0.4,0.55,0.42,0.25,0.55,0.61,0.25,0.56,0.25,0.25,0.55,0.67,0.55,0.42,0.42,0.29,0.33,0.78,0.29,0.56,0.5,0.25,0.55,0.33,0.25,0.71,0.25,0.25,0.55,0.56,0.48,0.4,0.58,0.5,0.58,0.61,0.48,0.5,0.25,0.55,0.61,0.25,0.76,0.25" style="fill:rgb(0,0,0);font-family:URWPalladioL-Roma;font-size:8.97px;stroke:none;">o, A.O.; Barros, T.F.; Rossi-Alva, J.C.; Fernandez, L.G.</text>
   <text y="136.583" x="97.701,103.904,109.006,113.52,116.148,118.775,123.29" svgx:width="0.78,0.56,0.5,0.29,0.29,0.5,0.44" style="fill:rgb(0,0,0);font-family:URWPalladioL-Roma;font-size:8.97px;stroke:none;">Avaliaç</text>
   <text y="136.583" x="127.295" svgx:width="0.5" style="fill:rgb(0,0,0);font-family:VnURWPalladioL;font-size:8.97px;stroke:none;">ã</text>
   <text y="136.583" x="131.809,136.7425,138.978,144.495,148.98000000000002,151.24,155.754,158.698,161.325,166.427,169.054,174.571,179.086,184.603,188.9086,191.167,195.681,200.936,203.88,206.507,211.5,216.015,220.024,222.967,227.292,230.859,233.486,238.001,243.256,247.741,250.01,255.527,260.457,264.2244,266.515,270.84,275.499,278.443,282.009,286.524,289.467,294.397,298.1644,300.465,305.982" svgx:width="0.55,0.55,0.61,0.5,0.55,0.5,0.33,0.29,0.56,0.29,0.61,0.5,0.61,0.48,0.55,0.5,0.58,0.33,0.29,0.55,0.5,0.44,0.33,0.48,0.4,0.29,0.5,0.58,0.5,0.55,0.61,0.55,0.42,0.55,0.48,0.52,0.33,0.4,0.5,0.33,0.55,0.42,0.55,0.61,0.48" style="fill:rgb(0,0,0);font-family:URWPalladioL-Roma;font-size:8.97px;stroke:none;">o da atividade antibacteriana dos extratos de</text>
   <text y="136.583" x="312.542,318.727,323.242,325.752,329.427,332.939,337.959,342.979,345.489,349.4358,351.738,355.25,358.925,363.439,367.448,372.469,375.981,379.493,382.003,386.012,391.032" svgx:width="0.72,0.5,0.28,0.41,0.39,0.56,0.56,0.28,0.44,0.55,0.39,0.41,0.5,0.44,0.56,0.39,0.39,0.28,0.44,0.56,0.44" style="fill:rgb(0,0,0);font-family:URWPalladioL-Ital;font-size:8.97px;stroke:none;">Avicennia schaueriana</text>
   <text y="136.583" x="397.276,402.016,404.96,409.474,414.901,417.8611,420.147,427.1436,429.402,434.919,439.244,443.569,447.577,452.832,460.805,463.0475,465.843,470.168,474.8324,477.067,485.608,490.538,493.166,498.683,503.008,508.263,513.283,517.608" svgx:width="0.52,0.33,0.5,0.6,0.33,0.55,0.78,0.55,0.61,0.48,0.48,0.44,0.58,0.88,0.25,0.55,0.48,0.52,0.55,0.95,0.55,0.29,0.61,0.48,0.58,0.56,0.48,0.25" style="fill:rgb(0,0,0);font-family:URWPalladioL-Roma;font-size:8.97px;stroke:none;">Stapf &amp; Leechm. ex Moldenke,</text>
   <text y="149.495" x="97.728,103.206,107.501,111.043,116.002,120.296,125.515,129.998,133.979,138.274,142.757,147.052" svgx:width="0.72,0.48,0.4,0.55,0.48,0.58,0.5,0.44,0.48,0.5,0.48,0.25" style="fill:rgb(0,0,0);font-family:URWPalladioL-Roma;font-size:8.97px;stroke:none;">Verbenaceae.</text>
   <text y="149.495" x="152.072,157.55,161.038,165.019,169.001,171.2435,174.022,177.008,179.25050000000002,181.491,186.969,191.452,195.434,198.921,205.897,209.878,213.528,217.509,221.992" svgx:width="0.61,0.39,0.44,0.44,0.25,0.55,0.33,0.25,0.55,0.61,0.5,0.44,0.39,0.78,0.44,0.41,0.44,0.5,0.25" style="fill:rgb(0,0,0);font-family:URWPalladioL-Ital;font-size:8.97px;stroke:none;">Braz. J. Pharmacog.</text>
   <text y="149.495" x="227.013,231.496,235.979,240.463" svgx:width="0.5,0.5,0.5,0.5" style="fill:rgb(0,0,0);font-family:URWPalladioL-Bold;font-size:8.97px;stroke:none;">2010</text>
   <text y="149.495" x="244.945" svgx:width="0.25" style="fill:rgb(0,0,0);font-family:URWPalladioL-Roma;font-size:8.97px;stroke:none;">,</text>
   <text y="149.495" x="249.428,253.911" svgx:width="0.5,0.5" style="fill:rgb(0,0,0);font-family:URWPalladioL-Ital;font-size:8.97px;stroke:none;">20</text>
   <text y="149.495" x="258.395,260.6375,262.878,267.361,271.845,276.328,280.811,285.294,289.778,294.261" svgx:width="0.25,0.55,0.5,0.5,0.5,0.5,0.5,0.5,0.5,0.25" style="fill:rgb(0,0,0);font-family:URWPalladioL-Roma;font-size:8.97px;stroke:none;">, 124–129.</text>
   <text y="162.406" x="76.535,81.018,83.26050000000001,98.05,101.096,106.089,111.412,115.793,119.671,121.91350000000001,125.313,133.636,135.922,140.294,142.581,144.8235,148.781,154.369,159.363,164.421,169.414,172.46,178.048,182.108,187.431,191.812,196.979,201.36,204.973,208.585,211.247,213.48950000000002,216.89,221.837,224.124,226.3665,230.325,238.977,241.638,243.8805,247.29,254.479,256.765,259.0075,262.966,269.45,274.773,279.346,282.007,284.2495,287.659,295.269,297.555,299.7975,303.756,309.344,313.725,318.105,320.3475,323.748,330.827,333.114,335.3565,339.324,344.125,349.119,353.499,355.639,360.212,363.825,366.806,371.8,374.0425,377.443,384.522,386.808,393.887,396.173,398.4155,402.383,408.868,413.861,417.309,422.897,427.278,429.939,432.601,434.8435,438.244,445.222,447.508,454.624,456.91,459.15250000000003,463.12,468.644,473.025,477.598,482.171,487.686,490.667,495.661,497.9035,501.304,504.349,506.635,515.287,517.574" svgx:width="0.5,0.25,0.55,0.33,0.55,0.58,0.48,0.42,0.25,0.55,1.0,0.25,0.6,0.25,0.25,0.55,0.61,0.55,0.55,0.55,0.33,0.61,0.44,0.58,0.48,0.56,0.48,0.4,0.4,0.29,0.25,0.55,0.61,0.25,0.25,0.55,0.95,0.29,0.25,0.55,0.79,0.25,0.25,0.55,0.71,0.58,0.5,0.29,0.25,0.55,0.83,0.25,0.25,0.55,0.61,0.48,0.48,0.25,0.55,0.77,0.25,0.25,0.55,0.52,0.55,0.48,0.23,0.5,0.4,0.33,0.55,0.25,0.55,0.77,0.25,0.77,0.25,0.25,0.55,0.71,0.55,0.4,0.61,0.48,0.29,0.29,0.25,0.55,0.76,0.25,0.78,0.25,0.25,0.55,0.6,0.48,0.5,0.5,0.6,0.33,0.55,0.25,0.55,0.33,0.25,0.95,0.25,0.25" style="fill:rgb(0,0,0);font-family:URWPalladioL-Roma;font-size:8.97px;stroke:none;">9. Jones, W.P.; Lobo-Echeverri, T.; Mi, Q.; Chai, H.; Lee, D.; Soejarto, D.D.; Cordell, G.A.; Pezzuto, J.M.;</text>
   <text y="175.318" x="98.05,102.663,109.992,114.385,119.499,123.225,128.023,133.137,135.3795,137.355,141.968,144.165,152.477,154.674,156.9165,158.971,165.35,167.907,173.021,177.907,183.021,187.819,191.29,196.404,198.6465,200.621,207.423,209.6655,211.64,218.477,223.591,226.455,229.012,231.877,237.176,244.935,249.732,253.32,255.224,259.618,263.519,266.384,268.941,273.906,276.463,279.327,284.3502,286.243,291.04,294.00010000000003,295.988,300.381,303.307,307.209,312.323,314.88,319.677,322.981,327.779,333.148,337.357,342.155,346.689,351.574,354.132,358.525,363.806,368.2,372.101,377.215,382.013,384.57,386.8125,388.84,393.325,395.255,400.369,404.763,410.044,415.158,418.022,423.136,427.934,432.855,438.153,440.711,445.825,450.622,455.736,460.0416,461.966,464.893,468.205,473.003" svgx:width="0.52,0.83,0.5,0.58,0.42,0.55,0.58,0.25,0.55,0.52,0.25,0.95,0.25,0.25,0.55,0.73,0.29,0.58,0.56,0.58,0.55,0.4,0.58,0.25,0.55,0.77,0.25,0.55,0.78,0.58,0.33,0.29,0.33,0.6,0.88,0.55,0.4,0.55,0.5,0.44,0.33,0.29,0.56,0.29,0.33,0.56,0.55,0.55,0.33,0.55,0.5,0.33,0.44,0.58,0.29,0.55,0.4,0.55,0.61,0.48,0.55,0.52,0.56,0.29,0.5,0.6,0.5,0.44,0.58,0.55,0.29,0.25,0.55,0.5,0.55,0.58,0.5,0.6,0.58,0.33,0.58,0.55,0.56,0.6,0.29,0.58,0.55,0.58,0.48,0.55,0.33,0.4,0.55,0.88" style="fill:rgb(0,0,0);font-family:URWPalladioL-Roma;font-size:8.97px;stroke:none;">Swanson, S.M.; Kinghorn, D. Antitumor activity of 3-chlorodeoxylapachol, a naphthoquinone from</text>
   <text y="175.318" x="482.782,488.792,493.186,495.629,499.205,502.623,507.509,512.394,514.837" svgx:width="0.72,0.5,0.28,0.41,0.39,0.56,0.56,0.28,0.44" style="fill:rgb(0,0,0);font-family:URWPalladioL-Ital;font-size:8.97px;stroke:none;">Avicennia</text>
   <text y="188.23" x="98.05,102.515,105.989,109.463,116.411,118.894,123.859,127.824,132.79" svgx:width="0.5,0.39,0.39,0.78,0.28,0.56,0.44,0.56,0.39" style="fill:rgb(0,0,0);font-family:URWPalladioL-Ital;font-size:8.97px;stroke:none;">germinans</text>
   <text y="188.23" x="138.492,142.457,147.333,149.932,152.531,156.809,160.774,163.685,167.963,173.4347,175.652,178.626,181.984,186.86,196.978,201.443,206.6456,208.874,213.151,217.759,223.127,227.404,230.932,233.531,241.416,245.694,250.892,253.803,258.268,260.86929999999995,263.091,268.458,271.057,275.933,278.8931,281.077,283.676,288.8786,291.097,294.884,299.76,305.145,308.056,313.254,317.531,321.059,326.26160000000004,328.489,333.454,336.053,340.929,344.457,347.056,352.512,356.977" svgx:width="0.44,0.55,0.29,0.29,0.48,0.44,0.33,0.48,0.61,0.55,0.33,0.4,0.55,0.88,0.5,0.58,0.55,0.48,0.52,0.6,0.48,0.4,0.29,0.88,0.48,0.58,0.33,0.5,0.29,0.55,0.6,0.29,0.55,0.33,0.55,0.29,0.58,0.55,0.42,0.55,0.6,0.33,0.58,0.48,0.4,0.58,0.55,0.56,0.29,0.55,0.4,0.29,0.61,0.5,0.25" style="fill:rgb(0,0,0);font-family:URWPalladioL-Roma;font-size:8.97px;stroke:none;">collected froman experimental plot in southern Florida.</text>
   <text y="188.23" x="361.982,364.956,367.1985,369.421,374.878,379.343,383.308,386.782,393.73,395.9725,398.731,404.188,408.653,412.618,416.092,423.04,427.005,430.64,434.605,437.088" svgx:width="0.33,0.25,0.55,0.61,0.5,0.44,0.39,0.78,0.25,0.55,0.61,0.5,0.44,0.39,0.78,0.44,0.41,0.44,0.28,0.25" style="fill:rgb(0,0,0);font-family:URWPalladioL-Ital;font-size:8.97px;stroke:none;">J. Pharm. Pharmacol.</text>
   <text y="188.23" x="442.098,446.581,451.064,455.548" svgx:width="0.5,0.5,0.5,0.5" style="fill:rgb(0,0,0);font-family:URWPalladioL-Bold;font-size:8.97px;stroke:none;">2005</text>
   <text y="188.23" x="460.031" svgx:width="0.25" style="fill:rgb(0,0,0);font-family:URWPalladioL-Roma;font-size:8.97px;stroke:none;">,</text>
   <text y="188.23" x="464.495,468.96" svgx:width="0.5,0.5" style="fill:rgb(0,0,0);font-family:URWPalladioL-Ital;font-size:8.97px;stroke:none;">57</text>
   <text y="188.23" x="473.425,475.6675,477.89,482.356,486.821,491.286,495.751,500.217,504.682,509.147,513.612,518.078" svgx:width="0.25,0.55,0.5,0.5,0.5,0.5,0.5,0.5,0.5,0.5,0.5,0.25" style="fill:rgb(0,0,0);font-family:URWPalladioL-Roma;font-size:8.97px;stroke:none;">, 1101–1108.</text>
   <text y="201.141" x="98.05" svgx:width="0.33" style="fill:rgb(0,0,0);font-family:URWPalladioL-Roma;font-size:8.97px;stroke:none;">[</text>
   <text y="201.141" x="101.036,107.393,110.773,115.669,119.471,123.272,129.262,133.557" svgx:width="0.71,0.4,0.55,0.42,0.42,0.67,0.48,0.33" style="fill:rgb(0,0,255);font-family:URWPalladioL-Roma;font-size:8.97px;stroke:none;">CrossRef</text>
   <text y="201.141" x="136.543,139.50310000000002,141.77" svgx:width="0.33,0.55,0.33" style="fill:rgb(0,0,0);font-family:URWPalladioL-Roma;font-size:8.97px;stroke:none;">] [</text>
   <text y="201.141" x="144.756,150.172,155.578,160.537,169.019,173.314" svgx:width="0.6,0.6,0.55,0.95,0.48,0.61" style="fill:rgb(0,0,255);font-family:URWPalladioL-Roma;font-size:8.97px;stroke:none;">PubMed</text>
   <text y="201.141" x="178.792" svgx:width="0.33" style="fill:rgb(0,0,0);font-family:URWPalladioL-Roma;font-size:8.97px;stroke:none;">]</text>
   <text y="214.053" x="76.535,81.018,85.501,87.74350000000001,98.05,102.852,108.174,112.747,116.36,120.933,123.978,126.2205,129.411,136.526,138.813,141.0555,144.712,150.3,152.961,156.006,163.122,168.445,172.322,176.895,180.508,183.169,185.41150000000002,188.602,197.254,199.54,206.656,208.942,211.1845,214.832,219.633,224.206,226.868,231.248,236.571,238.8135,242.013,249.613,251.899,259.015,261.301,269.953,272.1955,275.386,282.986,287.367,294.81210000000004,298.14,303.701,308.274,313.441,318.435,323.757,328.751,331.412,337.0,340.7674,344.034,347.079,350.527,355.521" svgx:width="0.5,0.5,0.25,0.55,0.52,0.58,0.5,0.4,0.5,0.33,0.25,0.55,0.78,0.25,0.25,0.55,0.61,0.29,0.33,0.78,0.58,0.42,0.5,0.4,0.29,0.25,0.55,0.95,0.25,0.78,0.25,0.25,0.55,0.52,0.5,0.29,0.48,0.58,0.25,0.55,0.83,0.25,0.78,0.25,0.95,0.25,0.55,0.83,0.48,0.83,0.55,0.61,0.5,0.56,0.55,0.58,0.55,0.29,0.61,0.42,0.55,0.33,0.4,0.55,0.88" style="fill:rgb(0,0,0);font-family:URWPalladioL-Roma;font-size:8.97px;stroke:none;">10. Sharaf, A.; El-Ansari, M.A.; Saleh, N.A.M. New ﬂavonoids from</text>
   <text y="214.053" x="366.748,373.022,377.595,380.137,383.86,387.417,392.502,397.587,400.13,404.0768,407.337,414.452,418.513,422.07,424.613,429.698" svgx:width="0.72,0.5,0.28,0.41,0.39,0.56,0.56,0.28,0.44,0.55,0.78,0.44,0.39,0.28,0.56,0.44" style="fill:rgb(0,0,0);font-family:URWPalladioL-Ital;font-size:8.97px;stroke:none;">Avicennia marina</text>
   <text y="214.053" x="433.759" svgx:width="0.25" style="fill:rgb(0,0,0);font-family:URWPalladioL-Roma;font-size:8.97px;stroke:none;">.</text>
   <text y="214.053" x="441.551,446.636,449.179,452.224,456.285,459.33,462.888,466.446,470.506,475.079,477.622" svgx:width="0.56,0.28,0.33,0.44,0.33,0.39,0.39,0.44,0.5,0.28,0.44" style="fill:rgb(0,0,0);font-family:URWPalladioL-Ital;font-size:8.97px;stroke:none;">Fitoterapia</text>
   <text y="214.053" x="484.832,489.315,493.798,498.282" svgx:width="0.5,0.5,0.5,0.5" style="fill:rgb(0,0,0);font-family:URWPalladioL-Bold;font-size:8.97px;stroke:none;">2000</text>
   <text y="214.053" x="502.765" svgx:width="0.25" style="fill:rgb(0,0,0);font-family:URWPalladioL-Roma;font-size:8.97px;stroke:none;">,</text>
   <text y="214.053" x="508.429,513.002" svgx:width="0.5,0.5" style="fill:rgb(0,0,0);font-family:URWPalladioL-Ital;font-size:8.97px;stroke:none;">71</text>
   <text y="214.053" x="517.575" svgx:width="0.25" style="fill:rgb(0,0,0);font-family:URWPalladioL-Roma;font-size:8.97px;stroke:none;">,</text>
   <text y="226.964" x="98.05,102.533,107.016,111.5,115.983,120.466,124.949,129.432,131.6745,134.454" svgx:width="0.5,0.5,0.5,0.5,0.5,0.5,0.5,0.25,0.55,0.33" style="fill:rgb(0,0,0);font-family:URWPalladioL-Roma;font-size:8.97px;stroke:none;">274–277. [</text>
   <text y="226.964" x="137.439,143.797,147.177,152.073,155.874,159.676,165.666,169.961" svgx:width="0.71,0.4,0.55,0.42,0.42,0.67,0.48,0.33" style="fill:rgb(0,0,255);font-family:URWPalladioL-Roma;font-size:8.97px;stroke:none;">CrossRef</text>
   <text y="226.964" x="172.946" svgx:width="0.33" style="fill:rgb(0,0,0);font-family:URWPalladioL-Roma;font-size:8.97px;stroke:none;">]</text>
   <text y="239.876" x="76.535,81.018,85.501,87.74350000000001,98.05,106.702,111.275,116.598,119.259,121.92,126.493,129.155,131.3975,134.404,141.52,143.806,146.04850000000002,149.422,154.223,158.101,162.674,165.335,167.997,172.569,174.8115,177.819,182.758,185.044,187.28650000000002,190.66,196.76,201.141,204.589,210.177,215.17,217.4125,220.42,226.52,228.807,231.0495,234.422,241.537,249.613,253.994,259.079,263.652,265.8945,268.901,275.88,278.166,280.4085,283.781,292.433,296.814,300.262,305.85,310.231,315.316,317.977,322.971,326.849,329.0915,332.098,337.686,339.973,342.2155,345.588,348.634,353.627,358.95,364.273,366.51550000000003,369.523,374.324,376.611,382.199,384.4415,387.448,393.036,398.204,402.777,405.438,410.953,415.526,418.507,421.169,426.491,431.51419999999996,434.54,437.521,442.844,447.1496,450.197,454.77,460.093,463.074,465.736,470.793,475.366,479.418,482.399,486.78,490.393,493.054,497.627,500.2283,503.261,507.834,513.156" svgx:width="0.5,0.5,0.25,0.55,0.95,0.5,0.58,0.29,0.29,0.5,0.29,0.25,0.55,0.78,0.25,0.25,0.55,0.61,0.42,0.5,0.29,0.29,0.5,0.25,0.55,0.61,0.25,0.25,0.55,0.67,0.48,0.4,0.61,0.55,0.25,0.55,0.67,0.25,0.25,0.55,0.78,0.88,0.48,0.56,0.5,0.25,0.55,0.76,0.25,0.25,0.55,0.95,0.48,0.4,0.61,0.48,0.56,0.29,0.55,0.42,0.25,0.55,0.61,0.25,0.25,0.55,0.33,0.55,0.58,0.58,0.25,0.55,0.52,0.25,0.61,0.25,0.55,0.61,0.56,0.5,0.29,0.6,0.5,0.33,0.29,0.58,0.56,0.55,0.33,0.58,0.48,0.55,0.5,0.58,0.33,0.29,0.55,0.5,0.44,0.33,0.48,0.4,0.29,0.5,0.29,0.55,0.5,0.58,0.61" style="fill:rgb(0,0,0);font-family:URWPalladioL-Roma;font-size:8.97px;stroke:none;">11. Manilal, A.; Tsalla, T.; Zerdo, Z.; Ameya, G.; Merdekios, B.; John, S.E. Evaluating the antibacterial and</text>
   <text y="252.788" x="98.05,102.533,107.752,110.675,113.284,117.265,121.748,126.967,132.445,135.054,140.533,145.016,147.6173,149.867,155.256,160.151,163.074,167.369,172.588,176.569,181.5922,183.796,188.691,191.6511,193.919,201.836,206.319,211.538,216.523,219.903,224.799,229.865,234.16" svgx:width="0.5,0.58,0.33,0.29,0.44,0.5,0.58,0.61,0.29,0.61,0.5,0.29,0.55,0.6,0.55,0.33,0.48,0.58,0.44,0.56,0.55,0.55,0.33,0.55,0.88,0.5,0.58,0.56,0.4,0.55,0.56,0.48,0.25" style="fill:rgb(0,0,0);font-family:URWPalladioL-Roma;font-size:8.97px;stroke:none;">anticandidal potency of mangrove,</text>
   <text y="252.788" x="238.642,244.784,249.267,251.76,255.409,258.897,263.882,268.868,271.36,275.3068,277.583,284.559,288.54,292.028,294.521,299.506" svgx:width="0.72,0.5,0.28,0.41,0.39,0.56,0.56,0.28,0.44,0.55,0.78,0.44,0.39,0.28,0.56,0.44" style="fill:rgb(0,0,0);font-family:URWPalladioL-Ital;font-size:8.97px;stroke:none;">Avicennia marina</text>
   <text y="252.788" x="303.486" svgx:width="0.25" style="fill:rgb(0,0,0);font-family:URWPalladioL-Roma;font-size:8.97px;stroke:none;">.</text>
   <text y="252.788" x="308.507,314.981,318.469,320.961,324.942,329.9652,332.169,337.648,341.629,345.278,347.5205,350.299,353.285,355.52750000000003,357.768,362.252,365.578,369.559,374.042,376.2845,379.064,386.039,388.532,392.02" svgx:width="0.72,0.39,0.28,0.44,0.56,0.55,0.61,0.44,0.41,0.25,0.55,0.33,0.25,0.55,0.61,0.39,0.44,0.5,0.25,0.55,0.78,0.28,0.39,0.25" style="fill:rgb(0,0,0);font-family:URWPalladioL-Ital;font-size:8.97px;stroke:none;">Asian Pac. J. Trop. Dis.</text>
   <text y="252.788" x="397.04,401.523,406.006,410.49" svgx:width="0.5,0.5,0.5,0.5" style="fill:rgb(0,0,0);font-family:URWPalladioL-Bold;font-size:8.97px;stroke:none;">2016</text>
   <text y="252.788" x="414.972" svgx:width="0.25" style="fill:rgb(0,0,0);font-family:URWPalladioL-Roma;font-size:8.97px;stroke:none;">,</text>
   <text y="252.788" x="419.456" svgx:width="0.5" style="fill:rgb(0,0,0);font-family:URWPalladioL-Ital;font-size:8.97px;stroke:none;">6</text>
   <text y="252.788" x="423.939,426.1815,428.422,432.905,437.389,441.872,446.355,450.838,455.321,459.805,462.0475,464.826" svgx:width="0.25,0.55,0.5,0.5,0.5,0.5,0.5,0.5,0.5,0.25,0.55,0.33" style="fill:rgb(0,0,0);font-family:URWPalladioL-Roma;font-size:8.97px;stroke:none;">, 136–140. [</text>
   <text y="252.788" x="467.812,474.169,477.549,482.445,486.247,490.048,496.038,500.333" svgx:width="0.71,0.4,0.55,0.42,0.42,0.67,0.48,0.33" style="fill:rgb(0,0,255);font-family:URWPalladioL-Roma;font-size:8.97px;stroke:none;">CrossRef</text>
   <text y="252.788" x="503.319" svgx:width="0.33" style="fill:rgb(0,0,0);font-family:URWPalladioL-Roma;font-size:8.97px;stroke:none;">]</text>
   <text y="265.699" x="76.535,81.018,85.501,87.74350000000001,98.05,105.028,110.543,115.537,117.77950000000001,121.234,127.335,129.621,131.86350000000002,135.895,141.995,147.318,151.699,157.022,159.2645,162.719,167.658,169.945,172.1875,176.228,184.541,188.922,194.245,197.29,202.878,207.872,213.195,218.28,220.5225,223.978,228.779,231.0215,234.477,240.961,246.284,250.857,254.469,259.042,263.103,266.085,270.465,274.078,276.739,280.617,283.599,286.26,290.321,294.08840000000004,297.601,302.594,305.5541,309.051,313.112,318.435,322.815,330.891,333.553,337.613,342.186,344.78729999999996,348.259,352.32,357.313,362.636,366.514,369.486,372.147,375.129,380.644,385.025,390.347,393.329,397.0964,400.618,405.612,408.57210000000003,412.069,417.236,422.229,424.891,429.464,432.445,435.107,437.768,442.0736,445.551,450.545,453.206,455.8073,459.279,462.324,465.772,470.766,478.6596,482.253,484.914,489.295,493.868,499.035,503.416,507.1834,510.705,515.699" svgx:width="0.5,0.5,0.25,0.55,0.76,0.6,0.55,0.25,0.55,0.67,0.25,0.25,0.55,0.67,0.58,0.48,0.58,0.25,0.55,0.61,0.25,0.25,0.55,1.0,0.48,0.58,0.33,0.61,0.55,0.58,0.56,0.25,0.55,0.52,0.25,0.55,0.71,0.58,0.5,0.4,0.5,0.44,0.33,0.48,0.4,0.29,0.42,0.33,0.29,0.44,0.42,0.55,0.55,0.33,0.55,0.44,0.58,0.48,0.88,0.29,0.44,0.5,0.29,0.55,0.44,0.55,0.58,0.42,0.33,0.29,0.33,0.6,0.48,0.58,0.33,0.42,0.55,0.55,0.33,0.55,0.56,0.55,0.29,0.5,0.33,0.29,0.29,0.48,0.55,0.55,0.29,0.29,0.55,0.33,0.4,0.55,0.88,0.55,0.29,0.48,0.5,0.56,0.48,0.42,0.55,0.55,0.33" style="fill:rgb(0,0,0);font-family:URWPalladioL-Roma;font-size:8.97px;stroke:none;">12. Guo, X.; Zhen, T.; Wen-dong, S. Characteristics of chemical constituents of volatile oil from leaves of</text>
   <text y="278.611" x="98.05,106.126,110.699,116.021,121.106,124.554,129.548,134.715,139.0206,141.904,147.4,150.062,154.635,159.957" svgx:width="0.88,0.5,0.58,0.56,0.4,0.55,0.56,0.48,0.55,0.6,0.29,0.5,0.58,0.33" style="fill:rgb(0,0,0);font-family:URWPalladioL-Roma;font-size:8.97px;stroke:none;">mangrove plant</text>
   <text y="278.611" x="165.749,172.023,176.596,179.138,182.861,186.418,191.503,196.588,199.131,203.0778,205.999,213.115,217.175,220.733,223.276,228.361" svgx:width="0.72,0.5,0.28,0.41,0.39,0.56,0.56,0.28,0.44,0.55,0.78,0.44,0.39,0.28,0.56,0.44" style="fill:rgb(0,0,0);font-family:URWPalladioL-Ital;font-size:8.97px;stroke:none;">Avicennia marina</text>
   <text y="278.611" x="235.225,240.283,245.3062,248.175,253.26,257.833,261.60040000000004,264.519,268.579,273.902,277.35,282.344,290.419,294.992,297.974,302.967,308.052,311.665,316.238,321.734,327.057,332.142,337.685,345.76,350.333,354.211,357.9784,360.896,364.774,370.271,374.652,378.712,381.694,385.142,390.135,398.211,402.592,405.573,409.186,413.283" svgx:width="0.55,0.56,0.55,0.56,0.5,0.42,0.55,0.44,0.58,0.4,0.55,0.88,0.5,0.33,0.55,0.56,0.4,0.5,0.6,0.58,0.56,0.61,0.88,0.5,0.42,0.42,0.55,0.42,0.6,0.48,0.44,0.33,0.4,0.55,0.88,0.48,0.33,0.4,0.56,0.25" style="fill:rgb(0,0,0);font-family:URWPalladioL-Roma;font-size:8.97px;stroke:none;">by gas chromatography/mass spectrometry.</text>
   <text y="278.611" x="420.043,424.634,428.027,432.088,436.661,438.9035,443.429,450.544,454.266,457.824,461.885,466.97,471.03,475.603,478.493" svgx:width="0.61,0.39,0.44,0.5,0.25,0.55,0.78,0.41,0.39,0.44,0.56,0.44,0.5,0.39,0.25" style="fill:rgb(0,0,0);font-family:URWPalladioL-Ital;font-size:8.97px;stroke:none;">Trop. Oceanogr.</text>
   <text y="278.611" x="485.261,489.744,494.227,498.711" svgx:width="0.5,0.5,0.5,0.5" style="fill:rgb(0,0,0);font-family:URWPalladioL-Bold;font-size:8.97px;stroke:none;">2008</text>
   <text y="278.611" x="503.194" svgx:width="0.25" style="fill:rgb(0,0,0);font-family:URWPalladioL-Roma;font-size:8.97px;stroke:none;">,</text>
   <text y="278.611" x="508.429,513.002" svgx:width="0.5,0.5" style="fill:rgb(0,0,0);font-family:URWPalladioL-Ital;font-size:8.97px;stroke:none;">27</text>
   <text y="278.611" x="517.575" svgx:width="0.25" style="fill:rgb(0,0,0);font-family:URWPalladioL-Roma;font-size:8.97px;stroke:none;">,</text>
   <text y="291.522" x="98.05,102.533,107.016,111.5,115.983,120.466" svgx:width="0.5,0.5,0.5,0.5,0.5,0.25" style="fill:rgb(0,0,0);font-family:URWPalladioL-Roma;font-size:8.97px;stroke:none;">57–59.</text>
   <text y="304.434" x="76.535,81.018,85.501,87.74350000000001,98.05,105.659,111.174,115.747,121.07,126.155,128.3975,130.911,136.499,138.785,141.0275,143.651,149.751,155.074,160.589,162.8315,165.344,169.606,171.893,174.1355,176.758,184.367,189.882,194.455,199.778,204.863,207.1055,209.619,218.271,220.5135,223.026,229.995,236.48,242.022,250.674,255.3384,257.945,262.518,267.841,272.413,275.075,280.16,284.038,286.699,290.4664,293.046,298.04,301.00010000000003,303.555,306.536,311.859,316.1646,318.709,322.77,328.093,332.473,340.549,343.21,347.271,351.844,354.4453,356.966,361.026,366.02,371.343,375.221,378.202,380.863,383.845,389.36,393.741,399.063,402.045,405.8124,408.392,413.386,416.34610000000004,418.901,421.882,427.205,431.5106,434.055,438.436,442.314,446.191,450.572,455.895,458.876,461.538,466.111,468.71229999999997,471.242,476.235,478.896,481.4973,484.018,487.064,490.521,495.514,503.4076,506.059,509.041,514.364" svgx:width="0.5,0.5,0.25,0.55,0.83,0.6,0.5,0.58,0.56,0.25,0.55,0.61,0.25,0.25,0.55,0.67,0.58,0.6,0.25,0.55,0.56,0.25,0.25,0.55,0.83,0.6,0.5,0.58,0.56,0.25,0.55,0.95,0.25,0.55,0.76,0.71,0.61,0.95,0.52,0.55,0.5,0.58,0.5,0.29,0.56,0.42,0.29,0.42,0.55,0.55,0.33,0.55,0.33,0.58,0.48,0.55,0.44,0.58,0.48,0.88,0.29,0.44,0.5,0.29,0.55,0.44,0.55,0.58,0.42,0.33,0.29,0.33,0.6,0.48,0.58,0.33,0.42,0.55,0.55,0.33,0.55,0.33,0.58,0.48,0.55,0.48,0.42,0.42,0.48,0.58,0.33,0.29,0.5,0.29,0.55,0.55,0.29,0.29,0.55,0.33,0.4,0.55,0.88,0.55,0.33,0.58,0.48" style="fill:rgb(0,0,0);font-family:URWPalladioL-Roma;font-size:8.97px;stroke:none;">13. Huang, L.; Zhu, F.; Huang, M. GC/MS analysis of the chemical constituents of the essential oil from the</text>
   <text y="317.346" x="98.05,101.036,104.506,109.913,112.522,115.445,119.21239999999999,121.488,126.384" svgx:width="0.33,0.4,0.6,0.29,0.33,0.42,0.55,0.55,0.33" style="fill:rgb(0,0,0);font-family:URWPalladioL-Roma;font-size:8.97px;stroke:none;">fruits of</text>
   <text y="317.346" x="131.611,137.753,142.236,144.729,148.378,151.866,156.851,161.837,164.329,168.2758,170.552,177.528,181.509,184.997,187.49,192.475" svgx:width="0.72,0.5,0.28,0.41,0.39,0.56,0.56,0.28,0.44,0.55,0.78,0.44,0.39,0.28,0.56,0.44" style="fill:rgb(0,0,0);font-family:URWPalladioL-Ital;font-size:8.97px;stroke:none;">Avicennia marina</text>
   <text y="317.346" x="196.455" svgx:width="0.25" style="fill:rgb(0,0,0);font-family:URWPalladioL-Roma;font-size:8.97px;stroke:none;">.</text>
   <text y="317.346" x="201.476,206.461,208.954,213.939,217.4373,219.669,225.649,230.133,233.621,240.596" svgx:width="0.56,0.28,0.56,0.39,0.55,0.67,0.5,0.39,0.78,0.25" style="fill:rgb(0,0,0);font-family:URWPalladioL-Ital;font-size:8.97px;stroke:none;">Fine Chem.</text>
   <text y="317.346" x="245.617,250.1,254.583,259.067" svgx:width="0.5,0.5,0.5,0.5" style="fill:rgb(0,0,0);font-family:URWPalladioL-Bold;font-size:8.97px;stroke:none;">2009</text>
   <text y="317.346" x="263.55" svgx:width="0.25" style="fill:rgb(0,0,0);font-family:URWPalladioL-Roma;font-size:8.97px;stroke:none;">,</text>
   <text y="317.346" x="268.033" svgx:width="0.5" style="fill:rgb(0,0,0);font-family:URWPalladioL-Ital;font-size:8.97px;stroke:none;">3</text>
   <text y="317.346" x="272.516,274.7585,276.999,281.482,285.966" svgx:width="0.25,0.55,0.5,0.5,0.25" style="fill:rgb(0,0,0);font-family:URWPalladioL-Roma;font-size:8.97px;stroke:none;">, 11.</text>
   <text y="330.257" x="76.535,81.018,85.501,87.74350000000001,98.05,104.886,110.255,114.649,122.408,126.133,128.3755,130.193,136.054,138.251,142.407" svgx:width="0.5,0.5,0.25,0.55,0.78,0.61,0.5,0.88,0.42,0.25,0.55,0.67,0.25,0.6,0.25" style="fill:rgb(0,0,0);font-family:URWPalladioL-Roma;font-size:8.97px;stroke:none;">14. Adams, R.P.</text>
   <text y="330.257" x="146.461,149.387,153.781,157.199,162.084,165.011,167.453,172.093,175.669,179.571,182.497,184.94,188.841,193.8642,195.581,199.482,201.9936,203.788,209.157,212.575,215.993,219.411,224.297,227.223,229.666,233.567,236.0786,237.864,244.7,247.143,249.6546,251.449,257.31,261.211,268.048,272.441,276.343,281.228,284.647,289.532,292.458,295.95630000000006,297.73,301.799,306.284,308.055,314.4,318.301,321.7993,323.573,329.434,333.828,337.088,340.989,347.826,351.727,354.653,358.555,362.948,366.366,370.268,374.661,379.055,383.448,386.049,394.344,398.246,401.655,405.15329999999994,406.936,411.822,416.215,419.633,423.21,426.136,429.396,433.297,440.134,443.552,446.478,449.896" svgx:width="0.33,0.5,0.39,0.56,0.33,0.28,0.53,0.41,0.44,0.33,0.28,0.44,0.56,0.55,0.44,0.28,0.55,0.61,0.39,0.39,0.39,0.56,0.33,0.28,0.44,0.28,0.55,0.78,0.28,0.28,0.55,0.67,0.44,0.78,0.5,0.44,0.56,0.39,0.56,0.33,0.39,0.55,0.46,0.5,0.55,0.72,0.44,0.39,0.55,0.67,0.5,0.39,0.44,0.78,0.44,0.33,0.44,0.5,0.39,0.44,0.5,0.5,0.5,0.3,0.94,0.44,0.39,0.39,0.55,0.56,0.5,0.39,0.41,0.33,0.39,0.44,0.78,0.39,0.33,0.39,0.5" style="fill:rgb(0,0,0);font-family:URWPalladioL-Ital;font-size:8.97px;stroke:none;">Identiﬁcation of Essential Oil Components by Gas Chromatography/Mass Spectrometry</text>
   <text y="330.257" x="454.285,456.52750000000003,458.415,462.808,465.673,470.8756,472.65,476.859,482.228,484.425,486.6675,488.607,495.444,498.001,500.558,505.856,509.16,513.369" svgx:width="0.25,0.55,0.5,0.33,0.58,0.55,0.48,0.61,0.25,0.25,0.55,0.78,0.29,0.29,0.6,0.4,0.48,0.61" style="fill:rgb(0,0,0);font-family:URWPalladioL-Roma;font-size:8.97px;stroke:none;">, 4th ed.; Allured</text>
   <text y="343.169" x="98.05,103.466,108.872,113.831,116.44,119.049,122.851,128.07,130.679,135.897,140.9202,143.124,149.481,154.377,157.919,163.307,168.203,171.745,176.228,179.151,181.76,186.656,191.874,194.1165,196.896,203.253,208.471,211.08,215.062,219.545,224.53,229.426,231.6685,233.909,236.931,242.409,244.6515,246.892,253.868,258.576,265.551,267.7935,270.035,274.518,279.001,283.484,287.967,290.2095,292.451,297.839,300.0815,302.323,306.806,311.289,315.772" svgx:width="0.6,0.6,0.55,0.29,0.29,0.42,0.58,0.29,0.58,0.56,0.55,0.71,0.55,0.4,0.6,0.55,0.4,0.5,0.33,0.29,0.55,0.58,0.25,0.55,0.71,0.58,0.29,0.44,0.5,0.56,0.55,0.25,0.55,0.34,0.61,0.25,0.55,0.78,0.52,0.78,0.25,0.55,0.5,0.5,0.5,0.5,0.25,0.55,0.6,0.25,0.55,0.5,0.5,0.5,0.25" style="fill:rgb(0,0,0);font-family:URWPalladioL-Roma;font-size:8.97px;stroke:none;">Publishing Corporation: Chicago, IL, USA, 2007; p. 804.</text>
   <text y="356.08" x="76.535,81.018,85.501,87.74350000000001,98.05,105.65,108.732,113.534,118.472,120.7145,123.283,130.883,135.456,138.438,141.099,146.092,151.415,155.988,158.5893,161.174,164.256,169.579,173.457,176.438,179.099,182.081,187.596,190.577,194.8826,197.473,202.467,205.42710000000002,208.036,212.838,215.82,220.392,225.715,231.303,235.876,239.324,244.912,248.67940000000002,251.314,255.887,261.21,266.6817,269.313,274.096,278.477,282.538,287.86,293.183,298.177,300.838,305.832,310.917,315.005,317.2475,320.904,328.019,330.306,335.107,337.34950000000003,339.918,346.997,351.377,356.874,361.447,365.059,368.041,376.117,380.497,385.82,388.7801,391.326,396.32,399.2801,401.88,408.365,413.358,421.434,429.509,433.89,437.338,441.399,445.78,448.0225,451.688,457.98,463.147,467.72,470.382,473.043,477.616,482.674,485.335,489.6406,492.231,497.224,502.547,505.209,507.87,513.193,517.574" svgx:width="0.5,0.5,0.25,0.55,0.83,0.34,0.52,0.61,0.25,0.55,0.83,0.5,0.33,0.29,0.55,0.58,0.5,0.29,0.55,0.34,0.58,0.42,0.33,0.29,0.33,0.6,0.33,0.48,0.55,0.55,0.33,0.55,0.52,0.33,0.5,0.58,0.61,0.5,0.4,0.61,0.42,0.55,0.5,0.58,0.61,0.55,0.61,0.48,0.44,0.58,0.58,0.55,0.29,0.55,0.56,0.56,0.25,0.55,0.78,0.25,0.52,0.25,0.55,0.77,0.48,0.6,0.5,0.4,0.33,0.88,0.48,0.58,0.33,0.55,0.55,0.33,0.55,0.71,0.55,0.88,0.88,0.48,0.4,0.44,0.48,0.25,0.55,0.78,0.56,0.5,0.29,0.29,0.5,0.55,0.29,0.48,0.55,0.55,0.58,0.29,0.29,0.58,0.48,0.25" style="fill:rgb(0,0,0);font-family:URWPalladioL-Roma;font-size:8.97px;stroke:none;">15. NIST. National Institute of Standards and Technology. U.S. Department of Commerce. Available online:</text>
   <text y="368.992" x="97.674,105.152,109.447,114.405,119.364,124.259,129.155,134.14,136.382,141.6,144.21,148.011,150.934,153.176,158.161,163.057" svgx:width="0.83,0.48,0.55,0.55,0.55,0.55,0.56,0.25,0.58,0.29,0.42,0.33,0.25,0.56,0.55,0.56" style="fill:rgb(0,0,255);font-family:URWPalladioL-Roma;font-size:8.97px;stroke:none;">webbook.nist.gov</text>
   <text y="368.992" x="170.365,173.35,177.834,181.815,185.796,190.091,193.892,197.694,201.989,207.4607,209.709,214.605,219.80759999999998,222.065,226.548,231.03300000000002,233.273,236.259,241.665,244.275,249.2982,251.502,255.985,260.468,264.951,269.434,272.42" svgx:width="0.33,0.5,0.44,0.44,0.48,0.42,0.42,0.48,0.61,0.55,0.55,0.58,0.55,0.5,0.5,0.55,0.33,0.6,0.29,0.56,0.55,0.5,0.5,0.5,0.5,0.33,0.25" style="fill:rgb(0,0,0);font-family:URWPalladioL-Roma;font-size:8.97px;stroke:none;">(accessed on 14 July 2016).</text>
   <text y="381.904" x="76.535,81.018,85.501,87.74350000000001,98.05,104.344,109.767,114.428,117.419,119.6615,121.884,128.178,130.761,133.344,138.51,141.093,145.035,149.473,152.07430000000002,154.302,158.74,163.907,169.3787,171.576,177.0,181.438,186.347,191.194,194.7,199.138,202.032,206.879,210.385,215.4082,217.558,222.218,225.112,229.55,234.716,240.14,244.578,247.925,253.349,257.1164,259.358,262.35,267.516,271.28,274.173,276.757,279.65,285.003,287.897,292.2026,294.395,297.351,304.328,306.911,312.3827,314.58,321.957,328.25,334.544,339.968,344.6324,346.874,354.25,358.689,361.583,364.166,369.012,374.179,378.617,381.2183,383.437,389.731,394.577,402.416,410.254,412.837,415.731,418.625,422.877,427.18260000000004,429.374,432.33,437.177,440.76500000000004,442.929,449.223,451.806,454.389,459.555,462.138,466.08,470.518,473.11929999999995,475.347,480.771,485.209,490.118,494.965,498.471,502.909,505.803,510.65,514.156" svgx:width="0.5,0.5,0.25,0.55,0.71,0.61,0.52,0.34,0.25,0.55,0.71,0.29,0.29,0.58,0.29,0.44,0.5,0.29,0.55,0.5,0.58,0.61,0.55,0.61,0.5,0.55,0.55,0.4,0.5,0.33,0.55,0.4,0.56,0.55,0.52,0.33,0.5,0.58,0.61,0.5,0.4,0.61,0.42,0.55,0.34,0.58,0.42,0.33,0.29,0.33,0.6,0.33,0.48,0.55,0.33,0.79,0.29,0.61,0.55,0.83,0.71,0.71,0.61,0.52,0.55,0.83,0.5,0.33,0.29,0.55,0.58,0.5,0.29,0.55,0.71,0.55,0.88,0.88,0.29,0.33,0.33,0.48,0.48,0.55,0.33,0.55,0.4,0.55,0.71,0.29,0.29,0.58,0.29,0.44,0.5,0.29,0.55,0.61,0.5,0.55,0.55,0.4,0.5,0.33,0.55,0.4,0.56" style="fill:rgb(0,0,0);font-family:URWPalladioL-Roma;font-size:8.97px;stroke:none;">16. CLSI. Clinical and Laboratory Standards Institute (Old NCCLS National Committee for Clinical Laboratory</text>
   <text y="394.815" x="98.05,102.663,105.528,109.921,115.035,120.404,124.798,128.111,133.479,137.205,140.131,142.3735,145.14" svgx:width="0.52,0.33,0.5,0.58,0.61,0.5,0.4,0.61,0.42,0.33,0.25,0.55,0.95" style="fill:rgb(0,0,0);font-family:URWPalladioL-Roma;font-size:8.97px;stroke:none;">Standards). M</text>
   <text y="394.815" x="153.448" svgx:width="0.48" style="fill:rgb(0,0,0);font-family:VnURWPalladioL;font-size:8.97px;stroke:none;">é</text>
   <text y="394.815" x="157.657,160.522,165.319,170.688,175.6215,177.735,183.104,187.4096,189.572,195.441,199.65,202.577,206.786" svgx:width="0.33,0.55,0.61,0.55,0.55,0.61,0.48,0.55,0.67,0.48,0.33,0.48,0.4" style="fill:rgb(0,0,0);font-family:URWPalladioL-Roma;font-size:8.97px;stroke:none;">todo de Refer</text>
   <text y="394.815" x="210.252" svgx:width="0.48" style="fill:rgb(0,0,0);font-family:VnURWPalladioL;font-size:8.97px;stroke:none;">ê</text>
   <text y="394.815" x="214.461,219.575,223.477,226.034,230.519,232.677,237.984,242.378,245.848,250.33300000000003,252.5,257.061,261.27,264.995,267.86,272.069,275.8364,278.044,283.413,287.71860000000004,289.872,296.673,299.23,301.787,307.086,309.643" svgx:width="0.58,0.44,0.29,0.5,0.55,0.6,0.5,0.4,0.5,0.55,0.61,0.48,0.42,0.33,0.48,0.42,0.55,0.61,0.48,0.55,0.77,0.29,0.29,0.6,0.29,0.44" style="fill:rgb(0,0,0);font-family:URWPalladioL-Roma;font-size:8.97px;stroke:none;">ncia Para Testes de Diluiç</text>
   <text y="394.815" x="313.545" svgx:width="0.5" style="fill:rgb(0,0,0);font-family:VnURWPalladioL;font-size:8.97px;stroke:none;">ã</text>
   <text y="394.815" x="317.938,322.87149999999997,324.985,329.194,339.211,345.441,349.835,352.392,357.761,362.6945,364.808,370.116,374.509,377.98,382.46500000000003,384.623,389.108,391.266,398.067,402.276,405.141,409.35,412.821,420.58,423.137,428.251,432.644" svgx:width="0.55,0.55,0.48,0.88,0.71,0.5,0.29,0.61,0.55,0.55,0.6,0.5,0.4,0.5,0.55,0.5,0.55,0.77,0.48,0.33,0.48,0.4,0.88,0.29,0.58,0.5,0.44" style="fill:rgb(0,0,0);font-family:URWPalladioL-Roma;font-size:8.97px;stroke:none;">o emCaldo Para a Determinaç</text>
   <text y="394.815" x="436.548" svgx:width="0.5" style="fill:rgb(0,0,0);font-family:VnURWPalladioL;font-size:8.97px;stroke:none;">ã</text>
   <text y="394.815" x="440.942,445.8755,447.989,453.358,457.843,460.01,464.623,468.832,473.946,477.672,480.229,485.079,487.636,490.193,492.751,498.119,502.513,507.882,512.1876,514.349" svgx:width="0.55,0.55,0.61,0.5,0.55,0.52,0.48,0.58,0.42,0.29,0.55,0.29,0.29,0.29,0.61,0.5,0.61,0.48,0.55,0.5" style="fill:rgb(0,0,0);font-family:URWPalladioL-Roma;font-size:8.97px;stroke:none;">o da Sensibilidade a</text>
   <text y="407.727" x="97.773,102.556,106.937,110.55,115.122,120.619,123.28,127.765,130.176,137.292,142.615,145.596,148.257" svgx:width="0.61,0.48,0.4,0.5,0.6,0.29,0.5,0.55,0.78,0.58,0.33,0.29,0.33" style="fill:rgb(0,0,0);font-family:URWPalladioL-Roma;font-size:8.97px;stroke:none;">Terapia Antif</text>
   <text y="407.727" x="151.303" svgx:width="0.6" style="fill:rgb(0,0,0);font-family:VnURWPalladioL;font-size:8.97px;stroke:none;">ú</text>
   <text y="407.727" x="156.818,162.141,167.226,169.887,173.948,178.43300000000002,180.844,186.432,191.425,195.19240000000002,197.635,202.72,208.235,213.558,218.643,223.637,227.4044,229.837,234.922,237.584,240.245,244.818,252.894,257.275,262.597,265.579,270.573,274.45,279.444,283.322,285.5645,288.562,296.153,301.147,304.759,312.835,317.32,319.74,326.855,332.352,335.8,340.793,345.961,350.534,356.122,360.695,362.9375,366.017,373.096,378.09,382.15,387.665,395.741,400.122,405.445,408.4051,410.749,419.401,423.974,428.547,431.592,438.708,440.95050000000003,443.326,447.899,452.472,457.045,461.618,463.8605,466.245,470.818,475.391,477.6335,480.714,487.006,492.174,496.746,499.408,502.069,506.642,511.7,514.361" svgx:width="0.58,0.56,0.29,0.44,0.5,0.55,0.61,0.55,0.42,0.55,0.56,0.6,0.58,0.56,0.55,0.42,0.55,0.56,0.29,0.29,0.5,0.88,0.48,0.58,0.33,0.55,0.42,0.55,0.42,0.25,0.55,0.83,0.55,0.4,0.88,0.5,0.55,0.78,0.6,0.4,0.55,0.56,0.5,0.61,0.5,0.25,0.55,0.77,0.55,0.44,0.6,0.88,0.48,0.58,0.33,0.55,0.95,0.5,0.5,0.33,0.78,0.25,0.55,0.5,0.5,0.5,0.5,0.25,0.55,0.5,0.5,0.25,0.55,0.78,0.56,0.5,0.29,0.29,0.5,0.55,0.29,0.48" style="fill:rgb(0,0,0);font-family:URWPalladioL-Roma;font-size:8.97px;stroke:none;">ngica dos Fungos Filamentosos: Norma Aprovada. Document M38-A, 2002, 22. Available</text>
   <text y="420.638" x="98.05,102.946,108.164,110.773,113.383,118.601,122.896" svgx:width="0.55,0.58,0.29,0.29,0.58,0.48,0.25" style="fill:rgb(0,0,0);font-family:URWPalladioL-Roma;font-size:8.97px;stroke:none;">online:</text>
   <text y="420.638" x="127.917,132.4,137.619,142.685,145.294,149.096,153.579,155.821,160.806,165.702,169.772,172.014,176.972" svgx:width="0.5,0.58,0.56,0.29,0.42,0.5,0.25,0.56,0.55,0.56,0.25,0.55,0.4" style="fill:rgb(0,0,255);font-family:URWPalladioL-Roma;font-size:8.97px;stroke:none;">anvisa.gov.br</text>
   <text y="420.638" x="182.756,185.741,190.225,194.206,198.187,202.482,206.283,210.085,214.38,219.8517,222.1,226.583,231.068,233.308,240.284,245.673,249.215,251.824,254.42530000000002,256.675,261.158,265.641,270.124,274.607,277.593" svgx:width="0.33,0.5,0.44,0.44,0.48,0.42,0.42,0.48,0.61,0.55,0.5,0.5,0.55,0.78,0.6,0.4,0.29,0.29,0.55,0.5,0.5,0.5,0.5,0.33,0.25" style="fill:rgb(0,0,0);font-family:URWPalladioL-Roma;font-size:8.97px;stroke:none;">(accessed 21 April 2016).</text>
   <text y="433.55" x="76.535,81.018,85.501,87.74350000000001,98.05,104.375,109.826,114.51,117.517,119.7595,122.004,128.33,130.926,133.522,138.715,141.311,145.272,149.733,152.3343,154.586,159.047,164.239,169.7107,171.947,177.398,181.859,186.793,191.664,195.188,199.649,202.557,207.428,210.952,215.9752,218.17,222.854,225.762,230.223,235.415,240.866,245.327,248.691,254.142,257.9094,260.182,263.188,268.381,272.163,275.072,277.668,280.576,285.956,288.864,293.1696,295.395,298.366,303.237,305.833,311.3047,313.542,320.955,327.281,333.606,339.057,343.7214,345.998,353.412,357.873,360.781,363.377,368.249,373.441,377.902,380.50329999999997,382.755,389.081,393.952,401.829,409.707,412.303,415.212,418.12,422.394,426.69960000000003,428.924,431.895,436.766,440.35400000000004,442.548,448.873,451.469,454.065,459.258,461.854,465.815,470.276,472.8773,475.129,480.58,485.041,489.975,494.846,498.37,502.831,505.739,510.61,514.134" svgx:width="0.5,0.5,0.25,0.55,0.71,0.61,0.52,0.34,0.25,0.55,0.71,0.29,0.29,0.58,0.29,0.44,0.5,0.29,0.55,0.5,0.58,0.61,0.55,0.61,0.5,0.55,0.55,0.4,0.5,0.33,0.55,0.4,0.56,0.55,0.52,0.33,0.5,0.58,0.61,0.5,0.4,0.61,0.42,0.55,0.34,0.58,0.42,0.33,0.29,0.33,0.6,0.33,0.48,0.55,0.33,0.55,0.29,0.61,0.55,0.83,0.71,0.71,0.61,0.52,0.55,0.83,0.5,0.33,0.29,0.55,0.58,0.5,0.29,0.55,0.71,0.55,0.88,0.88,0.29,0.33,0.33,0.48,0.48,0.55,0.33,0.55,0.4,0.55,0.71,0.29,0.29,0.58,0.29,0.44,0.5,0.29,0.55,0.61,0.5,0.55,0.55,0.4,0.5,0.33,0.55,0.4,0.56" style="fill:rgb(0,0,0);font-family:URWPalladioL-Roma;font-size:8.97px;stroke:none;">17. CLSI. Clinical and Laboratory Standards Institute (old NCCLS National Committee for Clinical Laboratory</text>
   <text y="446.462" x="98.05,102.691,105.574,109.994,115.139,120.541,124.962,128.295,133.696,137.445,140.389,142.63150000000002,145.419,153.783,158.018,160.9,165.727,171.129,175.956,178.528,183.356,188.271,190.844,195.329,197.519,204.361,209.189,212.9564,215.2,219.789,224.024,227.772,230.654,234.889,238.65640000000002,240.901,246.303,250.6086,252.792,257.433,261.668,266.813,270.562,273.135,278.024,280.596,283.169,285.742,291.143,295.564,300.966,305.27160000000003,307.455,311.94,314.13,321.008,325.923,330.158,335.304,338.186,342.421,346.1884,348.423,355.302,360.447,363.329,365.902,373.708,376.281,380.206,383.539,388.367,393.256,395.828,400.249,405.394,410.221,413.9884,416.224,421.564,426.391,429.97900000000004,432.138,438.981,441.553,444.126,449.457,452.03" svgx:width="0.52,0.33,0.5,0.58,0.61,0.5,0.4,0.61,0.42,0.33,0.25,0.55,0.95,0.48,0.33,0.55,0.61,0.55,0.29,0.55,0.56,0.29,0.5,0.55,0.77,0.55,0.42,0.55,0.61,0.48,0.42,0.33,0.48,0.42,0.55,0.61,0.48,0.55,0.52,0.48,0.58,0.42,0.29,0.55,0.29,0.29,0.29,0.61,0.5,0.61,0.48,0.55,0.5,0.55,0.78,0.56,0.48,0.58,0.33,0.48,0.42,0.55,0.78,0.58,0.33,0.29,0.88,0.29,0.44,0.4,0.55,0.55,0.29,0.5,0.58,0.55,0.42,0.55,0.6,0.55,0.4,0.55,0.77,0.29,0.29,0.6,0.29,0.44" style="fill:rgb(0,0,0);font-family:URWPalladioL-Roma;font-size:8.97px;stroke:none;">Standards). Metodologia Dos Testes de Sensibilidade a Agentes Antimicrobianos Por Diluiç</text>
   <text y="446.462" x="455.958" svgx:width="0.5" style="fill:rgb(0,0,0);font-family:VnURWPalladioL;font-size:8.97px;stroke:none;">ã</text>
   <text y="446.462" x="460.378,465.31149999999997,467.46,472.799,477.22,480.712,485.197,487.387,492.789,497.209,501.134" svgx:width="0.55,0.55,0.6,0.5,0.4,0.5,0.55,0.61,0.5,0.44,0.33" style="fill:rgb(0,0,0);font-family:URWPalladioL-Roma;font-size:8.97px;stroke:none;">o Para Bact</text>
   <text y="446.462" x="504.02" svgx:width="0.48" style="fill:rgb(0,0,0);font-family:VnURWPalladioL;font-size:8.97px;stroke:none;">é</text>
   <text y="446.462" x="508.255,511.747,514.32" svgx:width="0.4,0.29,0.5" style="fill:rgb(0,0,0);font-family:URWPalladioL-Roma;font-size:8.97px;stroke:none;">ria</text>
   <text y="459.373" x="98.05,103.611,107.9166,110.218,116.67,120.101,124.461,128.32,132.36,135.009,143.045,147.404,152.701,155.668,160.60150000000002,162.885,169.965,174.325" svgx:width="0.61,0.48,0.55,0.71,0.4,0.48,0.42,0.44,0.29,0.88,0.48,0.58,0.33,0.55,0.55,0.78,0.48,0.4" style="fill:rgb(0,0,0);font-family:URWPalladioL-Roma;font-size:8.97px;stroke:none;">de Crescimento Aer</text>
   <text y="459.373" x="177.923" svgx:width="0.55" style="fill:rgb(0,0,0);font-family:VnURWPalladioL;font-size:8.97px;stroke:none;">ó</text>
   <text y="459.373" x="182.892,187.925,190.573,194.614,199.583,201.8255,204.652,212.215,217.184,220.779,228.815,233.3,235.613,242.694,248.164,251.595,256.564,261.706,266.256,271.817,276.367,278.6095,281.446,288.49,293.459,297.5,302.987,311.023,315.383,320.68,323.6401,325.894,334.504,339.054,342.085,349.165,353.716,355.9585,358.239,362.789,367.34,371.89,376.441,378.6835,380.973,385.523,390.074,392.3165,395.152,401.405,406.547,411.097,413.745,416.394,420.944,425.977,428.625,432.9306,435.232,440.202,445.498,448.147,450.795,456.092,460.451" svgx:width="0.55,0.29,0.44,0.55,0.25,0.55,0.83,0.55,0.4,0.88,0.5,0.55,0.78,0.6,0.4,0.55,0.56,0.5,0.61,0.5,0.25,0.55,0.77,0.55,0.44,0.6,0.88,0.48,0.58,0.33,0.55,0.95,0.5,0.33,0.78,0.5,0.25,0.55,0.5,0.5,0.5,0.5,0.25,0.55,0.5,0.5,0.25,0.55,0.78,0.56,0.5,0.29,0.29,0.5,0.55,0.29,0.48,0.55,0.55,0.58,0.29,0.29,0.58,0.48,0.25" style="fill:rgb(0,0,0);font-family:URWPalladioL-Roma;font-size:8.97px;stroke:none;">bico: Norma Aprovada. Document M7-A6, 2003, 23. Available online:</text>
   <text y="459.373" x="465.52,470.071,475.367,480.509,483.158,487.017,491.567,493.842,498.902,503.871,508.021,510.297,515.32" svgx:width="0.5,0.58,0.56,0.29,0.42,0.5,0.25,0.56,0.55,0.56,0.25,0.55,0.4" style="fill:rgb(0,0,255);font-family:URWPalladioL-Roma;font-size:8.97px;stroke:none;">anvisa.gov.br</text>
   <text y="472.285" x="97.755,100.741,105.224,109.205,113.186,117.481,121.283,125.085,129.379,134.8507,137.1,141.583,146.068,148.308,155.283,160.672,164.214,166.823,169.42430000000002,171.674,176.157,180.64,185.124,189.607,192.593" svgx:width="0.33,0.5,0.44,0.44,0.48,0.42,0.42,0.48,0.61,0.55,0.5,0.5,0.55,0.78,0.6,0.4,0.29,0.29,0.55,0.5,0.5,0.5,0.5,0.33,0.25" style="fill:rgb(0,0,0);font-family:URWPalladioL-Roma;font-size:8.97px;stroke:none;">(accessed 21 April 2016).</text>
   <text y="485.196" x="76.535,81.018,85.501,87.74350000000001,98.05,106.702,112.217,115.829,120.402,125.487,130.06,138.136,140.797,143.0395,146.129,152.613,154.9,157.1425,160.634,166.222,170.795,175.88,180.874,183.1165,186.215,189.26,191.547,199.156,201.442,208.421,210.707,212.9495,216.441,221.966,226.346,229.959,234.532,239.105,243.677,248.671,250.9135,254.003,258.265,260.551,264.813,267.1,269.34250000000003,272.834,277.919,282.3,285.912,289.36,293.741,296.403,300.015,304.588,306.83050000000003,309.92,316.56,318.846,323.648,325.934,328.17650000000003,331.678,337.266,339.927,348.003,352.576,354.81850000000003,357.908,366.56,368.846,374.434,376.72,382.308,384.595,386.83750000000003,390.329,398.981,403.975,407.423,411.803,417.126,422.12,424.3625,427.452,431.823,434.11,440.219,442.506,450.115,452.401,454.6435,458.136,463.413,468.406,473.921,479.244,484.329,486.5715,489.661,498.313,500.599,507.084,509.37,518.022" svgx:width="0.5,0.5,0.25,0.55,0.95,0.6,0.4,0.5,0.56,0.5,0.88,0.29,0.25,0.55,0.71,0.25,0.25,0.55,0.61,0.5,0.56,0.55,0.25,0.55,0.33,0.25,0.83,0.25,0.76,0.25,0.25,0.55,0.6,0.48,0.4,0.5,0.5,0.5,0.55,0.25,0.55,0.56,0.25,0.56,0.25,0.25,0.55,0.56,0.48,0.4,0.4,0.48,0.29,0.4,0.5,0.25,0.55,0.73,0.25,0.52,0.25,0.25,0.55,0.61,0.29,0.88,0.5,0.25,0.55,0.95,0.25,0.61,0.25,0.61,0.25,0.25,0.55,0.95,0.55,0.4,0.48,0.58,0.55,0.25,0.55,0.6,0.25,0.67,0.25,0.83,0.25,0.25,0.55,0.67,0.55,0.6,0.58,0.56,0.25,0.55,0.95,0.25,0.71,0.25,0.95,0.25" style="fill:rgb(0,0,0);font-family:URWPalladioL-Roma;font-size:8.97px;stroke:none;">18. Murakami, C.; Lago, J.H.G.; Perazzo, F.F.; Ferreira, K.S.; Lima, M.E.L.; Moreno, P.R.H.; Young, M.C.M.</text>
   <text y="498.108" x="98.05,104.28,109.394,113.603,121.362,123.919,127.821,132.214,134.8153,136.775,140.676,145.474,153.233,158.514,163.312,167.037,169.594,172.459,175.016,179.814,185.01659999999998,186.922,191.316,196.43,201.9017,203.802,208.196,213.31,216.175,218.732,226.491,229.048,232.949,236.253,241.051,245.91,248.467,252.861,255.4623,257.421,261.815,265.716,268.581,271.138,276.102,278.659,281.524,286.5472,288.413,293.211,296.1711,298.132,302.341,306.066,309.792,314.001,319.115,321.98,324.537,328.93,331.5313,333.491,338.288,340.846,343.403,347.17040000000003,349.132,352.058,355.362,360.159" svgx:width="0.71,0.58,0.48,0.88,0.29,0.44,0.5,0.29,0.55,0.44,0.55,0.88,0.6,0.55,0.42,0.29,0.33,0.29,0.55,0.58,0.55,0.5,0.58,0.61,0.55,0.5,0.58,0.33,0.29,0.88,0.29,0.44,0.4,0.55,0.55,0.29,0.5,0.29,0.55,0.5,0.44,0.33,0.29,0.56,0.29,0.33,0.56,0.55,0.55,0.33,0.55,0.48,0.42,0.42,0.48,0.58,0.33,0.29,0.5,0.29,0.55,0.55,0.29,0.29,0.42,0.55,0.33,0.4,0.55,0.88" style="fill:rgb(0,0,0);font-family:URWPalladioL-Roma;font-size:8.97px;stroke:none;">Chemical composition and antimicrobial activity of essential oils from</text>
   <text y="498.108" x="369.92,375.781,380.175,383.435,387.336,394.172,398.074,400.517,404.418,407.836,412.722,416.6688,418.618,421.061,424.962,428.38,432.774,435.217,439.61,443.512,446.438" svgx:width="0.67,0.5,0.39,0.44,0.78,0.44,0.28,0.44,0.39,0.56,0.44,0.55,0.28,0.44,0.39,0.5,0.28,0.5,0.44,0.33,0.44" style="fill:rgb(0,0,0);font-family:URWPalladioL-Ital;font-size:8.97px;stroke:none;">Chromolaena laevigata</text>
   <text y="498.108" x="452.34,457.709,463.008,466.478,469.035,474.15,479.17319999999995,481.039,486.381,491.179,498.507,502.716,506.187,508.744,513.858" svgx:width="0.61,0.6,0.4,0.29,0.58,0.56,0.55,0.61,0.55,0.83,0.48,0.4,0.29,0.58,0.56" style="fill:rgb(0,0,0);font-family:URWPalladioL-Roma;font-size:8.97px;stroke:none;">during ﬂowering</text>
   <text y="511.02" x="98.05,102.533,107.752,113.2237,115.472,118.458,121.928,127.334,129.943,132.867,135.476,140.694,145.7172,147.921,151.723,154.646,159.129,164.114,168.409,172.211" svgx:width="0.5,0.58,0.61,0.55,0.33,0.4,0.6,0.29,0.33,0.29,0.58,0.56,0.55,0.42,0.33,0.5,0.56,0.48,0.42,0.25" style="fill:rgb(0,0,0);font-family:URWPalladioL-Roma;font-size:8.97px;stroke:none;">and fruiting stages.</text>
   <text y="511.02" x="177.232,183.213,187.696,191.184,198.16,200.4025,203.181,208.659,211.152,215.133,219.616,222.109,226.592,230.08,233.568,237.056" svgx:width="0.67,0.5,0.39,0.78,0.25,0.55,0.61,0.28,0.44,0.5,0.28,0.5,0.39,0.39,0.39,0.25" style="fill:rgb(0,0,0);font-family:URWPalladioL-Ital;font-size:8.97px;stroke:none;">Chem. Biodivers.</text>
   <text y="511.02" x="242.076,246.559,251.042,255.526" svgx:width="0.5,0.5,0.5,0.5" style="fill:rgb(0,0,0);font-family:URWPalladioL-Bold;font-size:8.97px;stroke:none;">2013</text>
   <text y="511.02" x="260.008" svgx:width="0.25" style="fill:rgb(0,0,0);font-family:URWPalladioL-Roma;font-size:8.97px;stroke:none;">,</text>
   <text y="511.02" x="264.492,268.975" svgx:width="0.5,0.5" style="fill:rgb(0,0,0);font-family:URWPalladioL-Ital;font-size:8.97px;stroke:none;">10</text>
   <text y="511.02" x="273.458,275.70050000000003,277.941,282.424,286.908,291.391,295.874,300.357,304.841,309.324,311.5665,314.345" svgx:width="0.25,0.55,0.5,0.5,0.5,0.5,0.5,0.5,0.5,0.25,0.55,0.33" style="fill:rgb(0,0,0);font-family:URWPalladioL-Roma;font-size:8.97px;stroke:none;">, 621–627. [</text>
   <text y="511.02" x="317.331,323.688,327.068,331.964,335.766,339.567,345.557,349.852" svgx:width="0.71,0.4,0.55,0.42,0.42,0.67,0.48,0.33" style="fill:rgb(0,0,255);font-family:URWPalladioL-Roma;font-size:8.97px;stroke:none;">CrossRef</text>
   <text y="511.02" x="352.838,355.79810000000003,358.065" svgx:width="0.33,0.55,0.33" style="fill:rgb(0,0,0);font-family:URWPalladioL-Roma;font-size:8.97px;stroke:none;">] [</text>
   <text y="511.02" x="361.051,366.467,371.873,376.832,385.314,389.609" svgx:width="0.6,0.6,0.55,0.95,0.48,0.61" style="fill:rgb(0,0,255);font-family:URWPalladioL-Roma;font-size:8.97px;stroke:none;">PubMed</text>
   <text y="511.02" x="395.087" svgx:width="0.33" style="fill:rgb(0,0,0);font-family:URWPalladioL-Roma;font-size:8.97px;stroke:none;">]</text>
   <text y="523.931" x="76.535,81.018,85.501,87.74350000000001,98.05,104.928,110.099,114.542,119.482,123.925,129.097,131.682,134.579,139.751,142.336,144.57850000000002,146.797,154.181,156.402,161.832,164.053,166.2955,168.522,174.974,180.332,188.178,192.621,195.464,197.7065,199.925,204.714,206.935,211.716,213.937,220.85,223.072,225.3145,227.532,235.938,241.296,244.806,247.703,252.874,256.82,259.0625,261.289,267.225,269.446,276.226,278.447,280.6895,282.908,289.359,293.802,296.699,301.87,304.456,307.806,312.062,315.83,320.272,325.444,327.6865,329.905,336.356,338.5985,340.825,343.82,347.587,352.439,355.025,359.467,362.364,364.95,369.801,375.0036,377.212,382.064,385.02410000000003,387.262,391.705,396.876,399.773,402.359,407.272,411.715,415.661,418.557,422.814,426.323,428.909,433.352,435.938,439.7054,441.953,444.912,448.253,453.105,463.199,466.096,471.267,475.5726,477.763,485.609,490.052,495.223,500.164,503.513,508.365,513.385,517.642" svgx:width="0.5,0.5,0.25,0.55,0.77,0.58,0.5,0.56,0.5,0.58,0.29,0.33,0.58,0.29,0.25,0.55,0.83,0.25,0.61,0.25,0.25,0.55,0.73,0.6,0.88,0.5,0.4,0.25,0.55,0.61,0.25,0.61,0.25,0.78,0.25,0.25,0.55,0.95,0.6,0.4,0.33,0.58,0.56,0.25,0.55,0.67,0.25,0.76,0.25,0.25,0.55,0.73,0.5,0.33,0.58,0.29,0.4,0.48,0.42,0.5,0.58,0.25,0.55,0.73,0.25,0.55,0.34,0.42,0.55,0.29,0.5,0.33,0.29,0.55,0.58,0.55,0.55,0.33,0.55,0.5,0.58,0.33,0.29,0.55,0.5,0.44,0.33,0.48,0.4,0.29,0.5,0.29,0.42,0.55,0.33,0.4,0.55,0.88,0.33,0.58,0.48,0.55,0.88,0.5,0.58,0.56,0.4,0.55,0.56,0.48,0.25" style="fill:rgb(0,0,0);font-family:URWPalladioL-Roma;font-size:8.97px;stroke:none;">19. Dhayanithi, N.B.; Kumar, T.T.A.; Murthy, R.G.; Kathiresan, K. Isolation of antibacterials fromthe mangrove,</text>
   <text y="536.843" x="97.728,103.738,108.132,110.575,114.151,117.569,122.455,127.34,129.783,133.72979999999998,135.592,142.428,146.329,149.747,152.19,157.076" svgx:width="0.72,0.5,0.28,0.41,0.39,0.56,0.56,0.28,0.44,0.55,0.78,0.44,0.39,0.28,0.56,0.44" style="fill:rgb(0,0,0);font-family:URWPalladioL-Ital;font-size:8.97px;stroke:none;">Avicennia marina</text>
   <text y="536.843" x="162.875,167.269,172.383,177.8547,179.65,182.514,187.628,191.837,194.394,197.982,199.772,204.165,208.067,210.931,213.489,218.453,221.01,223.875,228.8982,230.658,235.052,239.938,244.331,246.888,252.002,255.728,258.6881,260.491,268.25,273.548,276.105,278.97,281.5713,283.434,288.803,292.203,297.502,302.5252,304.285,307.598,311.807,315.533,318.09,321.816,324.68,329.074,334.188" svgx:width="0.5,0.58,0.61,0.55,0.33,0.58,0.48,0.29,0.4,0.55,0.5,0.44,0.33,0.29,0.56,0.29,0.33,0.56,0.55,0.5,0.56,0.5,0.29,0.58,0.42,0.33,0.55,0.88,0.6,0.29,0.33,0.29,0.55,0.61,0.4,0.6,0.56,0.55,0.4,0.48,0.42,0.29,0.42,0.33,0.5,0.58,0.33" style="fill:rgb(0,0,0);font-family:URWPalladioL-Roma;font-size:8.97px;stroke:none;">and their activity against multi drug resistant</text>
   <text y="536.843" x="338.951,343.837,346.763,350.664,355.058,359.451,363.845,366.288,370.189,373.765,377.667,381.243,384.819,389.705,393.2033,395.021,398.923,403.808,407.068,410.487,415.372" svgx:width="0.56,0.33,0.44,0.5,0.5,0.5,0.28,0.44,0.41,0.44,0.41,0.41,0.56,0.39,0.55,0.44,0.56,0.39,0.39,0.56,0.39" style="fill:rgb(0,0,0);font-family:URWPalladioL-Ital;font-size:8.97px;stroke:none;">Staphylococcus aureus</text>
   <text y="536.843" x="418.789" svgx:width="0.25" style="fill:rgb(0,0,0);font-family:URWPalladioL-Roma;font-size:8.97px;stroke:none;">.</text>
   <text y="536.843" x="423.652,429.996,433.414,435.857,439.759,444.7822,446.542,451.911,455.813,459.389,461.6315,464.257,467.183,469.4255,471.278,475.654,478.914,482.815,487.209,489.4515,491.304,496.673,499.115,503.017,509.853,513.271,517.665" svgx:width="0.72,0.39,0.28,0.44,0.56,0.55,0.61,0.44,0.41,0.25,0.55,0.33,0.25,0.55,0.61,0.39,0.44,0.5,0.25,0.55,0.61,0.28,0.44,0.78,0.39,0.5,0.25" style="fill:rgb(0,0,0);font-family:URWPalladioL-Ital;font-size:8.97px;stroke:none;">Asian Pac. J. Trop. Biomed.</text>
   <text y="549.754" x="98.05,102.533,107.016,111.5" svgx:width="0.5,0.5,0.5,0.5" style="fill:rgb(0,0,0);font-family:URWPalladioL-Bold;font-size:8.97px;stroke:none;">2012</text>
   <text y="549.754" x="115.983" svgx:width="0.25" style="fill:rgb(0,0,0);font-family:URWPalladioL-Roma;font-size:8.97px;stroke:none;">,</text>
   <text y="549.754" x="120.466" svgx:width="0.5" style="fill:rgb(0,0,0);font-family:URWPalladioL-Ital;font-size:8.97px;stroke:none;">2</text>
   <text y="549.754" x="124.95,127.19250000000001,129.433,133.916,138.4,142.883,147.366,151.849,156.332,160.816,165.299,169.782,172.02450000000002,174.803" svgx:width="0.25,0.55,0.5,0.5,0.5,0.5,0.5,0.5,0.5,0.5,0.5,0.25,0.55,0.33" style="fill:rgb(0,0,0);font-family:URWPalladioL-Roma;font-size:8.97px;stroke:none;">, 1892–1895. [</text>
   <text y="549.754" x="177.789,184.146,187.527,192.422,196.224,200.026,206.015,210.31" svgx:width="0.71,0.4,0.55,0.42,0.42,0.67,0.48,0.33" style="fill:rgb(0,0,255);font-family:URWPalladioL-Roma;font-size:8.97px;stroke:none;">CrossRef</text>
   <text y="549.754" x="213.296" svgx:width="0.33" style="fill:rgb(0,0,0);font-family:URWPalladioL-Roma;font-size:8.97px;stroke:none;">]</text>
   <text y="562.666" x="76.535,81.018,85.501,87.74350000000001,98.05,102.852,105.513" svgx:width="0.5,0.5,0.25,0.55,0.52,0.29,0.88" style="fill:rgb(0,0,0);font-family:URWPalladioL-Roma;font-size:8.97px;stroke:none;">20. Sim</text>
   <text y="562.666" x="113.589" svgx:width="0.55" style="fill:rgb(0,0,0);font-family:VnURWPalladioL;font-size:8.97px;stroke:none;">õ</text>
   <text y="562.666" x="118.582,122.963,126.841,129.0835,131.523,138.008,140.294,148.946,151.232,158.421,160.707,162.9495,165.454,170.255,174.316,179.639,184.02,189.343,194.428,198.808,201.47,203.7125,206.152,211.74,214.027,218.389,220.676,222.9185,225.432,232.41,237.403,241.281,249.357,253.93,259.252,264.575,266.8175,269.258,276.236,278.523,280.76550000000003,283.269,291.921,296.302,298.963,301.625,306.618,308.8605,311.301,314.346,316.633,323.117,325.404,329.766,332.052,334.2945,336.808,345.46,349.841,355.164,358.145,362.718,364.9605,367.401,372.98,375.266,382.381,384.668,386.9105,389.424,394.948,399.329,402.31,405.767,410.761,415.928,418.589,422.65,427.735,429.9775,432.409,436.78,439.067,445.176" svgx:width="0.48,0.42,0.25,0.55,0.71,0.25,0.95,0.25,0.79,0.25,0.25,0.55,0.52,0.44,0.58,0.48,0.58,0.56,0.48,0.29,0.25,0.55,0.61,0.25,0.6,0.25,0.25,0.55,0.76,0.55,0.42,0.88,0.5,0.58,0.58,0.25,0.55,0.76,0.25,0.25,0.55,0.95,0.48,0.29,0.29,0.55,0.25,0.55,0.33,0.25,0.71,0.25,0.6,0.25,0.25,0.55,0.95,0.48,0.58,0.33,0.5,0.25,0.55,0.61,0.25,0.78,0.25,0.25,0.55,0.6,0.48,0.33,0.4,0.55,0.56,0.29,0.44,0.56,0.25,0.55,0.6,0.25,0.67,0.25" style="fill:rgb(0,0,0);font-family:URWPalladioL-Roma;font-size:8.97px;stroke:none;">es, C.M.O.; Schenkel, E.P.; Gosmann, G.; Mello, J.C.P.; Mentz, L.A.; Petrovick, P.R.</text>
   <text y="562.666" x="449.85,454.935,458.996,462.553,469.669,473.729,477.452,481.513,486.085,491.17,495.231,498.789,501.331,505.392,507.6345,510.111,514.684" svgx:width="0.56,0.44,0.39,0.78,0.44,0.41,0.44,0.5,0.56,0.44,0.39,0.28,0.44,0.25,0.55,0.5,0.44" style="fill:rgb(0,0,0);font-family:URWPalladioL-Ital;font-size:8.97px;stroke:none;">Farmacognosia, da</text>
   <text y="575.578" x="97.773,103.251,105.744,109.725,114.711,117.696,121.6428,123.919,127.9,131.8468,134.123,142.587,146.075,150.558,153.051,156.7,160.681,167.657,171.145,176.13,179.116" svgx:width="0.61,0.28,0.44,0.56,0.33,0.44,0.55,0.44,0.44,0.55,0.94,0.39,0.5,0.28,0.41,0.44,0.78,0.39,0.56,0.33,0.44" style="fill:rgb(0,0,0);font-family:URWPalladioL-Ital;font-size:8.97px;stroke:none;">Planta ao Medicamento</text>
   <text y="575.578" x="183.095,185.3375,187.578,192.061,194.984,200.1866,202.445,206.739,212.218,214.46,216.70250000000001,218.943,225.919,230.904,236.893,243.735,248.442,250.6845,252.925,258.341,263.237,266.779,269.702,274.6355,276.839,283.815,286.424,290.719,295.704,299.084,303.379,305.6215,307.863,313.852,318.559,320.80150000000003,323.043,328.521,332.063,336.546,341.029,343.639,346.248,348.4905,350.731,355.214,359.697,364.181,368.664,370.9065,373.147,378.536,380.7785,383.019,387.502,391.985,396.469,400.952" svgx:width="0.25,0.55,0.5,0.33,0.58,0.55,0.48,0.61,0.25,0.25,0.55,0.78,0.56,0.67,0.76,0.52,0.25,0.55,0.6,0.55,0.4,0.33,0.55,0.55,0.78,0.29,0.48,0.56,0.4,0.48,0.25,0.55,0.67,0.52,0.25,0.55,0.61,0.4,0.5,0.5,0.29,0.29,0.25,0.55,0.5,0.5,0.5,0.5,0.25,0.55,0.6,0.25,0.55,0.5,0.5,0.5,0.5,0.25" style="fill:rgb(0,0,0);font-family:URWPalladioL-Roma;font-size:8.97px;stroke:none;">, 5th ed.; UFRGS: Porto Alegre, RS, Brazil, 2003; p. 1102.</text>
   <text y="588.489" x="76.535,81.018,85.501,87.74350000000001,98.05,104.69,109.263,113.323,118.646,122.094,127.088,132.081,134.3235,137.322,144.437,146.724,148.9665,152.312,158.951,163.524,167.585,172.908,176.365,181.358,186.352,188.5945,191.583,195.955,198.19750000000002,201.196,206.281,210.853,213.835,216.816,221.8392,224.846,229.419,233.48,236.141,241.729,244.775,250.363,254.744,258.356,261.018,266.185,270.566,276.0377,279.108,282.986,285.647,290.732,296.055,300.628,303.289,307.0564,310.121,312.783,317.98560000000003,321.05,326.547,329.208,333.781,339.104,342.0641,345.04,350.628,355.008,358.054,362.435,367.758,371.635,376.016" svgx:width="0.5,0.5,0.25,0.55,0.73,0.5,0.44,0.58,0.4,0.55,0.55,0.25,0.55,0.78,0.25,0.25,0.55,0.73,0.5,0.44,0.58,0.4,0.55,0.55,0.25,0.55,0.6,0.25,0.55,0.56,0.5,0.33,0.33,0.56,0.55,0.5,0.44,0.29,0.61,0.33,0.61,0.48,0.4,0.29,0.56,0.48,0.61,0.55,0.42,0.29,0.56,0.58,0.5,0.29,0.42,0.55,0.29,0.58,0.55,0.6,0.29,0.5,0.58,0.33,0.55,0.61,0.48,0.33,0.48,0.58,0.42,0.48,0.25" style="fill:rgb(0,0,0);font-family:URWPalladioL-Roma;font-size:8.97px;stroke:none;">21. Kachroo, A.; Kachroo, P. Fatty acid-derived signals in plant defense.</text>
   <text y="588.489" x="383.208,389.811,394.896,399.981,405.066,407.3085,412.264,418.364,421.922,426.001,428.2435,433.189,438.777,443.35,447.923,450.969,455.029,459.602,463.663,466.709,471.281,475.342,477.885" svgx:width="0.72,0.56,0.56,0.56,0.25,0.55,0.67,0.39,0.5,0.25,0.55,0.61,0.5,0.5,0.33,0.44,0.5,0.44,0.33,0.5,0.44,0.28,0.25" style="fill:rgb(0,0,0);font-family:URWPalladioL-Ital;font-size:8.97px;stroke:none;">Annu. Rev. Phytopathol.</text>
   <text y="588.489" x="485.081,489.564,494.047,498.531" svgx:width="0.5,0.5,0.5,0.5" style="fill:rgb(0,0,0);font-family:URWPalladioL-Bold;font-size:8.97px;stroke:none;">2009</text>
   <text y="588.489" x="503.014" svgx:width="0.25" style="fill:rgb(0,0,0);font-family:URWPalladioL-Roma;font-size:8.97px;stroke:none;">,</text>
   <text y="588.489" x="508.429,513.002" svgx:width="0.5,0.5" style="fill:rgb(0,0,0);font-family:URWPalladioL-Ital;font-size:8.97px;stroke:none;">47</text>
   <text y="588.489" x="517.575" svgx:width="0.25" style="fill:rgb(0,0,0);font-family:URWPalladioL-Roma;font-size:8.97px;stroke:none;">,</text>
   <text y="601.401" x="97.602,102.085,106.568,111.052,115.535,120.018,124.501,128.984,131.22650000000002,134.006" svgx:width="0.5,0.5,0.5,0.5,0.5,0.5,0.5,0.25,0.55,0.33" style="fill:rgb(0,0,0);font-family:URWPalladioL-Roma;font-size:8.97px;stroke:none;">153–176. [</text>
   <text y="601.401" x="136.991,143.349,146.729,151.625,155.426,159.228,165.218,169.513" svgx:width="0.71,0.4,0.55,0.42,0.42,0.67,0.48,0.33" style="fill:rgb(0,0,255);font-family:URWPalladioL-Roma;font-size:8.97px;stroke:none;">CrossRef</text>
   <text y="601.401" x="172.498,175.4581,177.726" svgx:width="0.33,0.55,0.33" style="fill:rgb(0,0,0);font-family:URWPalladioL-Roma;font-size:8.97px;stroke:none;">] [</text>
   <text y="601.401" x="180.712,186.127,191.534,196.492,204.975,209.27" svgx:width="0.6,0.6,0.55,0.95,0.48,0.61" style="fill:rgb(0,0,255);font-family:URWPalladioL-Roma;font-size:8.97px;stroke:none;">PubMed</text>
   <text y="601.401" x="214.748" svgx:width="0.33" style="fill:rgb(0,0,0);font-family:URWPalladioL-Roma;font-size:8.97px;stroke:none;">]</text>
   <text y="614.312" x="76.535,81.018,85.501,87.74350000000001,98.05,105.458,109.723,114.905,118.422,122.375,124.6175,126.853,133.647,135.873,141.313,143.539,145.7815,148.026,156.449,161.31,169.172,171.763,176.945,179.1875,181.424,187.371,189.597,196.524,198.75,200.9925,203.238,210.636,215.088,217.679,220.528,222.7705,225.007,233.43,235.656,242.449,244.675,246.91750000000002,249.162,256.054,260.319,267.744,270.335,273.238,276.141,278.3835,280.619,287.51,289.736,295.177,297.4195,299.655,306.582,311.764,314.667,317.258,322.119,326.713,329.304,334.744,339.196,344.378,347.3381,349.533,353.985,359.167,364.6387,366.86,370.813,375.763,379.717,382.308,387.169,392.03,396.625,401.575,406.525,410.79,415.972,420.424,424.199,428.50460000000004,430.717,435.168,439.122,442.024,444.615,449.646,452.237,455.139,457.73,461.995,465.7624,468.023,472.884,475.8441,478.102,481.067,485.518,488.421,491.324,496.3472,498.527,502.979,506.932,509.523,514.963" svgx:width="0.5,0.5,0.25,0.55,0.83,0.48,0.58,0.4,0.56,0.25,0.55,0.76,0.25,0.61,0.25,0.25,0.55,0.95,0.55,0.88,0.29,0.58,0.25,0.55,0.67,0.25,0.78,0.25,0.25,0.55,0.83,0.5,0.29,0.4,0.25,0.55,0.95,0.25,0.76,0.25,0.25,0.55,0.77,0.48,0.83,0.29,0.33,0.33,0.25,0.55,0.77,0.25,0.61,0.25,0.55,0.78,0.58,0.33,0.29,0.55,0.52,0.29,0.61,0.5,0.58,0.33,0.55,0.5,0.58,0.61,0.55,0.44,0.56,0.44,0.29,0.55,0.55,0.52,0.56,0.56,0.48,0.58,0.5,0.42,0.48,0.55,0.5,0.44,0.33,0.29,0.56,0.29,0.33,0.29,0.48,0.42,0.55,0.55,0.33,0.55,0.33,0.5,0.33,0.33,0.56,0.55,0.5,0.44,0.29,0.61,0.42" style="fill:rgb(0,0,0);font-family:URWPalladioL-Roma;font-size:8.97px;stroke:none;">22. Henry, G.E.; Momin, R.A.; Nair, M.G.; Dewitt, D.L. Antioxidant and cyclooxygenase activities of fatty acids</text>
   <text y="627.224" x="98.05,101.036,105.931,111.338,116.557,122.0287,124.277,126.886,132.08859999999999,134.346,137.332,142.227,147.123,152.602" svgx:width="0.33,0.55,0.6,0.58,0.61,0.55,0.29,0.58,0.55,0.33,0.55,0.55,0.61,0.25" style="fill:rgb(0,0,0);font-family:URWPalladioL-Roma;font-size:8.97px;stroke:none;">found in food.</text>
   <text y="627.224" x="157.623,160.609,162.85150000000002,165.092,171.566,176.049,179.537,182.03,185.679,187.9215,190.7,195.685,199.666,203.648,208.133,210.372,216.353,220.836,224.324,231.3" svgx:width="0.33,0.25,0.55,0.72,0.5,0.39,0.28,0.41,0.25,0.55,0.56,0.44,0.44,0.5,0.55,0.67,0.5,0.39,0.78,0.25" style="fill:rgb(0,0,0);font-family:URWPalladioL-Ital;font-size:8.97px;stroke:none;">J. Agric. Food Chem.</text>
   <text y="627.224" x="236.32,240.803,245.286,249.77" svgx:width="0.5,0.5,0.5,0.5" style="fill:rgb(0,0,0);font-family:URWPalladioL-Bold;font-size:8.97px;stroke:none;">2002</text>
   <text y="627.224" x="254.252" svgx:width="0.25" style="fill:rgb(0,0,0);font-family:URWPalladioL-Roma;font-size:8.97px;stroke:none;">,</text>
   <text y="627.224" x="258.736,263.219" svgx:width="0.5,0.5" style="fill:rgb(0,0,0);font-family:URWPalladioL-Ital;font-size:8.97px;stroke:none;">50</text>
   <text y="627.224" x="267.702,269.9445,272.185,276.668,281.152,285.635,290.118,294.601,299.085,303.568,308.051,312.534,314.7765,317.555" svgx:width="0.25,0.55,0.5,0.5,0.5,0.5,0.5,0.5,0.5,0.5,0.5,0.25,0.55,0.33" style="fill:rgb(0,0,0);font-family:URWPalladioL-Roma;font-size:8.97px;stroke:none;">, 2231–2234. [</text>
   <text y="627.224" x="320.541,326.898,330.279,335.174,338.976,342.778,348.767,353.062" svgx:width="0.71,0.4,0.55,0.42,0.42,0.67,0.48,0.33" style="fill:rgb(0,0,255);font-family:URWPalladioL-Roma;font-size:8.97px;stroke:none;">CrossRef</text>
   <text y="627.224" x="356.048,359.0081,361.276" svgx:width="0.33,0.55,0.33" style="fill:rgb(0,0,0);font-family:URWPalladioL-Roma;font-size:8.97px;stroke:none;">] [</text>
   <text y="627.224" x="364.261,369.677,375.084,380.042,388.524,392.819" svgx:width="0.6,0.6,0.55,0.95,0.48,0.61" style="fill:rgb(0,0,255);font-family:URWPalladioL-Roma;font-size:8.97px;stroke:none;">PubMed</text>
   <text y="627.224" x="398.298" svgx:width="0.33" style="fill:rgb(0,0,0);font-family:URWPalladioL-Roma;font-size:8.97px;stroke:none;">]</text>
   <text y="640.136" x="76.535,81.018,85.501,87.74350000000001,98.05,102.852,107.424,111.037,113.698,118.783,123.356,128.679,133.764,138.337,140.5795,144.044,151.644,153.93,159.518,161.805,164.0475,168.097,175.213,179.273,183.846,186.791,189.0335,192.498,198.086,200.372,207.561,209.847,212.08950000000002,216.14,222.779,227.352,232.437,236.498,240.879,243.1215,246.577,250.948,253.235,255.47750000000002,259.527,266.505,271.499,276.584,279.565,285.08,288.693,293.778,296.0205,299.475,305.585,307.871,312.673,314.959,317.2015,321.251,326.053,331.568,339.644,344.701,350.216,352.877,355.1195,358.584,366.194,368.48,370.7225,374.772,381.888,385.336,390.924,395.497,397.7395,401.203,408.804,411.09,413.3325,417.382,424.022,426.684,430.296,438.372,441.033,445.606,448.267,453.352,458.867,461.529,463.7715,467.227,472.028,474.2705,477.735,482.82,487.393,490.374,493.356,498.37919999999997,501.861,506.434,510.495,513.156" svgx:width="0.5,0.5,0.25,0.55,0.52,0.5,0.4,0.29,0.56,0.5,0.58,0.56,0.5,0.25,0.55,0.83,0.25,0.61,0.25,0.25,0.55,0.78,0.44,0.5,0.4,0.25,0.55,0.61,0.25,0.79,0.25,0.25,0.55,0.73,0.5,0.56,0.44,0.48,0.25,0.55,0.6,0.25,0.25,0.55,0.76,0.55,0.56,0.33,0.6,0.4,0.56,0.25,0.55,0.67,0.25,0.52,0.25,0.25,0.55,0.52,0.6,0.88,0.55,0.6,0.29,0.25,0.55,0.83,0.25,0.25,0.55,0.78,0.4,0.61,0.5,0.25,0.55,0.83,0.25,0.25,0.55,0.73,0.29,0.4,0.88,0.29,0.5,0.29,0.56,0.6,0.29,0.25,0.55,0.52,0.25,0.55,0.56,0.5,0.33,0.33,0.56,0.55,0.5,0.44,0.29,0.61" style="fill:rgb(0,0,0);font-family:URWPalladioL-Roma;font-size:8.97px;stroke:none;">23. Sarikahya, N.B.; Ucar, E.O.; Kayce, P.; Gokturk, R.S.; Sumbul, H.; Arda, N.; Kirmizigul, S. Fatty acid</text>
   <text y="653.047" x="98.05,102.031,106.927,114.844,120.233,125.129,128.93,131.54,134.463,137.072,141.967,147.1696,149.427,153.911,159.129,164.6007,166.849,171.332,176.551,179.474,182.083,186.979,191.605,194.215,199.693,204.176,209.395,212.35510000000002,214.559,219.948,224.844,227.767,232.062,237.28,240.203,242.813,247.296,249.8973,252.147,257.042,260.0021,262.27,265.193,269.488" svgx:width="0.44,0.55,0.88,0.6,0.55,0.42,0.29,0.33,0.29,0.55,0.58,0.55,0.5,0.58,0.61,0.55,0.5,0.58,0.33,0.29,0.55,0.52,0.29,0.61,0.5,0.58,0.33,0.55,0.6,0.55,0.33,0.48,0.58,0.33,0.29,0.5,0.29,0.55,0.55,0.33,0.55,0.33,0.48,0.58" style="fill:rgb(0,0,0);font-family:URWPalladioL-Roma;font-size:8.97px;stroke:none;">composition and antioxidant potential of ten</text>
   <text y="653.047" x="276.945,282.926,286.414,290.897,295.38,299.361,301.854,305.835,309.323,311.815" svgx:width="0.67,0.39,0.5,0.5,0.44,0.28,0.44,0.39,0.28,0.44" style="fill:rgb(0,0,0);font-family:URWPalladioL-Ital;font-size:8.97px;stroke:none;">Cephalaria</text>
   <text y="653.047" x="318.038,321.84,327.229,331.523,335.505,338.114,342.409,346.21" svgx:width="0.42,0.6,0.48,0.44,0.29,0.48,0.42,0.25" style="fill:rgb(0,0,0);font-family:URWPalladioL-Roma;font-size:8.97px;stroke:none;">species.</text>
   <text y="653.047" x="351.231,357.212,360.699,364.349,366.5915,369.37,376.346,380.327,383.313,385.5555,388.334,393.812,397.139,401.12,405.603" svgx:width="0.67,0.39,0.41,0.25,0.55,0.78,0.44,0.33,0.25,0.55,0.61,0.39,0.44,0.5,0.25" style="fill:rgb(0,0,0);font-family:URWPalladioL-Ital;font-size:8.97px;stroke:none;">Rec. Nat. Prod.</text>
   <text y="653.047" x="410.623,415.106,419.589,424.073" svgx:width="0.5,0.5,0.5,0.5" style="fill:rgb(0,0,0);font-family:URWPalladioL-Bold;font-size:8.97px;stroke:none;">2015</text>
   <text y="653.047" x="428.556" svgx:width="0.25" style="fill:rgb(0,0,0);font-family:URWPalladioL-Roma;font-size:8.97px;stroke:none;">,</text>
   <text y="653.047" x="433.039,437.522" svgx:width="0.5,0.5" style="fill:rgb(0,0,0);font-family:URWPalladioL-Ital;font-size:8.97px;stroke:none;">09</text>
   <text y="653.047" x="442.006,444.2485,446.489,450.972,455.456,459.939,464.422,468.905,473.388,477.872" svgx:width="0.25,0.55,0.5,0.5,0.5,0.5,0.5,0.5,0.5,0.25" style="fill:rgb(0,0,0);font-family:URWPalladioL-Roma;font-size:8.97px;stroke:none;">, 116–123.</text>
   <text y="665.959" x="76.535,81.018,85.501,87.74350000000001,98.05,105.028,110.543,113.204,117.265,119.927,125.249,127.4915,130.243,133.325,135.5675,138.328,145.443,150.766,153.747,156.409,161.402,166.122,168.783,174.371,178.944,184.267,187.2271,189.955,194.528,198.589,201.57,204.232,209.399,212.061,215.042,220.0652,222.843,227.837,230.7971,233.59,237.97,243.485,248.57,252.951,258.274,263.268,265.929,268.1715,271.929,278.9256,281.76,285.638,288.62,292.159,297.674,301.734,304.716,310.231,313.679,318.06,321.105,325.678,329.739,332.72,335.382,340.549,343.21,346.192,351.2152,353.993,357.441,361.822,364.483,369.056,372.038,374.699,379.693,385.015,388.893,394.216,396.877,402.259,405.081,408.959,411.94,417.455,423.043,427.131" svgx:width="0.5,0.5,0.25,0.55,0.76,0.6,0.29,0.44,0.29,0.58,0.25,0.55,0.34,0.25,0.55,0.78,0.58,0.33,0.29,0.55,0.52,0.29,0.61,0.5,0.58,0.33,0.55,0.5,0.44,0.33,0.29,0.56,0.29,0.33,0.56,0.55,0.55,0.33,0.55,0.48,0.6,0.56,0.48,0.58,0.55,0.29,0.25,0.55,0.78,0.55,0.42,0.33,0.4,0.6,0.44,0.33,0.6,0.4,0.48,0.33,0.5,0.44,0.33,0.29,0.56,0.29,0.33,0.56,0.55,0.4,0.48,0.29,0.5,0.33,0.29,0.55,0.58,0.42,0.58,0.29,0.6,0.55,0.42,0.33,0.6,0.61,0.56,0.25" style="fill:rgb(0,0,0);font-family:URWPalladioL-Roma;font-size:8.97px;stroke:none;">24. Gulçin, I. Antioxidant activity of eugenol: A structure-activity relationship study.</text>
   <text y="665.959" x="433.61,436.656,438.8985,441.649,450.283,453.84,458.413,460.6555,464.888,469.973,474.034,478.095" svgx:width="0.33,0.25,0.55,0.94,0.39,0.5,0.25,0.55,0.56,0.44,0.44,0.5" style="fill:rgb(0,0,0);font-family:URWPalladioL-Ital;font-size:8.97px;stroke:none;">J. Med. Food</text>
   <text y="665.959" x="485.381,489.864,494.347,498.831" svgx:width="0.5,0.5,0.5,0.5" style="fill:rgb(0,0,0);font-family:URWPalladioL-Bold;font-size:8.97px;stroke:none;">2011</text>
   <text y="665.959" x="503.314" svgx:width="0.25" style="fill:rgb(0,0,0);font-family:URWPalladioL-Roma;font-size:8.97px;stroke:none;">,</text>
   <text y="665.959" x="508.429,513.002" svgx:width="0.5,0.5" style="fill:rgb(0,0,0);font-family:URWPalladioL-Ital;font-size:8.97px;stroke:none;">14</text>
   <text y="665.959" x="517.575" svgx:width="0.25" style="fill:rgb(0,0,0);font-family:URWPalladioL-Roma;font-size:8.97px;stroke:none;">,</text>
   <text y="678.871" x="98.05,102.533,107.016,111.5,115.983,120.466,124.949,129.432,131.6745,134.454" svgx:width="0.5,0.5,0.5,0.5,0.5,0.5,0.5,0.25,0.55,0.33" style="fill:rgb(0,0,0);font-family:URWPalladioL-Roma;font-size:8.97px;stroke:none;">975–985. [</text>
   <text y="678.871" x="137.439,143.797,147.177,152.073,155.874,159.676,165.666,169.961" svgx:width="0.71,0.4,0.55,0.42,0.42,0.67,0.48,0.33" style="fill:rgb(0,0,255);font-family:URWPalladioL-Roma;font-size:8.97px;stroke:none;">CrossRef</text>
   <text y="678.871" x="172.946,175.9061,178.174" svgx:width="0.33,0.55,0.33" style="fill:rgb(0,0,0);font-family:URWPalladioL-Roma;font-size:8.97px;stroke:none;">] [</text>
   <text y="678.871" x="181.16,186.575,191.982,196.94,205.423,209.718" svgx:width="0.6,0.6,0.55,0.95,0.48,0.61" style="fill:rgb(0,0,255);font-family:URWPalladioL-Roma;font-size:8.97px;stroke:none;">PubMed</text>
   <text y="678.871" x="215.196" svgx:width="0.33" style="fill:rgb(0,0,0);font-family:URWPalladioL-Roma;font-size:8.97px;stroke:none;">]</text>
   <text y="691.782" x="76.535,81.018,85.501,87.74350000000001,98.05,105.165,110.488,113.47,118.793,123.786,129.109,133.197,135.4395,138.566,145.205,147.492,151.854,154.141,156.3835,159.921,167.0,171.38,176.374,179.035,184.55,187.596,192.397,197.391,202.449,207.442,212.527,218.042,223.365,225.60750000000002,228.724,233.526,235.812,242.928,245.214,247.4565,250.994,255.796,260.368,263.03,267.411,272.733,274.9755,278.102,286.754,289.04,296.156,298.3985,301.515,307.999,312.993,321.069,326.565,330.013,334.394,339.717,344.098,349.42,353.298,355.96,361.127,365.43260000000004,368.581,373.154,377.031,380.909,385.29,389.168,393.045,401.121,405.502,410.825,413.7851,416.888,421.882,424.8421,428.0,432.573,437.896,440.878,443.539,448.533,453.252,455.913,461.501,466.074,471.397,474.3571,477.451,482.024,486.085,489.067,491.728,496.895,499.557,502.538,507.5612,510.705,515.699" svgx:width="0.5,0.5,0.25,0.55,0.78,0.58,0.33,0.58,0.55,0.58,0.56,0.25,0.55,0.73,0.25,0.6,0.25,0.25,0.55,0.77,0.48,0.55,0.29,0.6,0.33,0.52,0.55,0.55,0.55,0.56,0.6,0.58,0.25,0.55,0.52,0.25,0.78,0.25,0.25,0.55,0.52,0.5,0.29,0.48,0.58,0.25,0.55,0.95,0.25,0.78,0.25,0.55,0.71,0.55,0.88,0.6,0.4,0.48,0.58,0.48,0.58,0.42,0.29,0.56,0.48,0.55,0.5,0.42,0.42,0.48,0.42,0.42,0.88,0.48,0.58,0.33,0.55,0.55,0.33,0.55,0.5,0.58,0.33,0.29,0.55,0.52,0.29,0.61,0.5,0.58,0.33,0.55,0.5,0.44,0.33,0.29,0.56,0.29,0.33,0.56,0.55,0.55,0.33" style="fill:rgb(0,0,0);font-family:URWPalladioL-Roma;font-size:8.97px;stroke:none;">25. Anthony, K.P.; Deolu-Sobogun, S.A.; Saleh, M.A. Comprehensive assessment of antioxidant activity of</text>
   <text y="704.694" x="98.05,102.345,106.147,109.948,114.243,119.462,122.385,124.994,129.477,132.0783,134.328,139.224,141.833,144.442,148.244" svgx:width="0.48,0.42,0.42,0.48,0.58,0.33,0.29,0.5,0.29,0.55,0.55,0.29,0.29,0.42,0.25" style="fill:rgb(0,0,0);font-family:URWPalladioL-Roma;font-size:8.97px;stroke:none;">essential oils.</text>
   <text y="704.694" x="153.265,156.251,158.4935,160.734,165.719,169.7,173.681,178.16600000000003,180.406,185.392,189.041,191.534" svgx:width="0.33,0.25,0.55,0.56,0.44,0.44,0.5,0.55,0.56,0.41,0.28,0.25" style="fill:rgb(0,0,0);font-family:URWPalladioL-Ital;font-size:8.97px;stroke:none;">J. Food Sci.</text>
   <text y="704.694" x="196.554,201.037,205.52,210.004" svgx:width="0.5,0.5,0.5,0.5" style="fill:rgb(0,0,0);font-family:URWPalladioL-Bold;font-size:8.97px;stroke:none;">2012</text>
   <text y="704.694" x="214.487" svgx:width="0.25" style="fill:rgb(0,0,0);font-family:URWPalladioL-Roma;font-size:8.97px;stroke:none;">,</text>
   <text y="704.694" x="218.97,223.453" svgx:width="0.5,0.5" style="fill:rgb(0,0,0);font-family:URWPalladioL-Ital;font-size:8.97px;stroke:none;">77</text>
   <text y="704.694" x="227.936,230.1785,232.419,236.902,241.386,245.869,250.352,254.835,259.318,263.802,266.0445,268.823" svgx:width="0.25,0.55,0.5,0.5,0.5,0.5,0.5,0.5,0.5,0.25,0.55,0.33" style="fill:rgb(0,0,0);font-family:URWPalladioL-Roma;font-size:8.97px;stroke:none;">, 839–843. [</text>
   <text y="704.694" x="271.809,278.166,281.546,286.442,290.244,294.045,300.035,304.33" svgx:width="0.71,0.4,0.55,0.42,0.42,0.67,0.48,0.33" style="fill:rgb(0,0,255);font-family:URWPalladioL-Roma;font-size:8.97px;stroke:none;">CrossRef</text>
   <text y="704.694" x="307.316,310.2761,312.543" svgx:width="0.33,0.55,0.33" style="fill:rgb(0,0,0);font-family:URWPalladioL-Roma;font-size:8.97px;stroke:none;">] [</text>
   <text y="704.694" x="315.529,320.944,326.351,331.31,339.792,344.087" svgx:width="0.6,0.6,0.55,0.95,0.48,0.61" style="fill:rgb(0,0,255);font-family:URWPalladioL-Roma;font-size:8.97px;stroke:none;">PubMed</text>
   <text y="704.694" x="349.565" svgx:width="0.33" style="fill:rgb(0,0,0);font-family:URWPalladioL-Roma;font-size:8.97px;stroke:none;">]</text>
   <text y="717.605" x="76.535,81.018,85.501,87.74350000000001,98.05,103.638,106.299,111.622,115.683,119.771,122.01350000000001,125.359,134.011,136.297,140.669,142.956,145.1985,149.065,154.589,159.162,164.677,167.338,172.835,176.447,179.109,184.194,188.766,191.0085,194.355,200.994,203.281,205.5235,209.399,218.051,223.045,228.368,232.94,238.263,240.5055,243.851,249.302,251.589,257.698,259.9405,263.281,266.303,271.5056,273.763,278.829,281.438,284.361,287.741,292.67449999999997,295.938,300.511,305.834,308.815,311.477,316.47,321.189,323.851,329.439,334.012,339.335,342.2951,345.618,350.19,354.251,357.233,359.894,365.061,367.723,370.704,375.7272,379.091,384.085" svgx:width="0.5,0.5,0.25,0.55,0.61,0.29,0.58,0.44,0.56,0.25,0.55,0.95,0.25,0.6,0.25,0.25,0.55,0.6,0.5,0.6,0.29,0.6,0.4,0.29,0.56,0.5,0.25,0.55,0.73,0.25,0.25,0.55,0.95,0.55,0.58,0.5,0.58,0.25,0.55,0.72,0.25,0.67,0.25,0.55,0.34,0.58,0.55,0.56,0.29,0.33,0.4,0.55,0.55,0.5,0.58,0.33,0.29,0.55,0.52,0.29,0.61,0.5,0.58,0.33,0.55,0.5,0.44,0.33,0.29,0.56,0.29,0.33,0.56,0.55,0.55,0.33" style="fill:rgb(0,0,0);font-family:URWPalladioL-Roma;font-size:8.97px;stroke:none;">26. Lincy, M.P.; Paulpriya, K.; Mohan, V.R. In vitro antioxidant activity of</text>
   <text y="717.605" x="390.428,396.702,401.275,403.817,407.54,411.097,416.182,421.267,423.81,427.7568,431.172,438.288,442.348,445.906,448.448,453.534" svgx:width="0.72,0.5,0.28,0.41,0.39,0.56,0.56,0.28,0.44,0.55,0.78,0.44,0.39,0.28,0.56,0.44" style="fill:rgb(0,0,0);font-family:URWPalladioL-Ital;font-size:8.97px;stroke:none;">Avicennia marina</text>
   <text y="717.605" x="460.891,463.937,469.022,474.015,477.628,481.505,485.383,490.468,493.42810000000003,496.815,502.925,505.586,509.967,513.415" svgx:width="0.33,0.56,0.55,0.4,0.42,0.42,0.56,0.33,0.55,0.72,0.29,0.48,0.4,0.58" style="fill:rgb(0,0,0);font-family:URWPalladioL-Roma;font-size:8.97px;stroke:none;">(Forssk) Vierh</text>
   <text y="730.517" x="97.781,103.17,108.388,112.683,118.09,126.007,130.49,133.413,138.309,143.698,148.916,153.812,157.192,162.088,166.3936,168.625,171.61,177.761,182.827,185.437,189.418,193.713,198.931,204.149,206.759,211.242,215.223,219.518,224.001,228.296,231.282" svgx:width="0.6,0.58,0.48,0.6,0.88,0.5,0.33,0.55,0.6,0.58,0.55,0.4,0.55,0.48,0.55,0.33,0.78,0.56,0.29,0.44,0.48,0.58,0.58,0.29,0.5,0.44,0.48,0.5,0.48,0.33,0.25" style="fill:rgb(0,0,0);font-family:URWPalladioL-Roma;font-size:8.97px;stroke:none;">pneumatophoroe (Avicenniaceae).</text>
   <text y="730.517" x="236.301,241.286,244.936,247.428,249.6705,252.449,258.43,261.918,265.406,267.6485,270.427,276.408,279.896,284.379" svgx:width="0.56,0.41,0.28,0.25,0.55,0.67,0.39,0.39,0.25,0.55,0.67,0.39,0.5,0.25" style="fill:rgb(0,0,0);font-family:URWPalladioL-Ital;font-size:8.97px;stroke:none;">Sci. Res. Rep.</text>
   <text y="730.517" x="289.4,293.883,298.366,302.85" svgx:width="0.5,0.5,0.5,0.5" style="fill:rgb(0,0,0);font-family:URWPalladioL-Bold;font-size:8.97px;stroke:none;">2013</text>
   <text y="730.517" x="307.332" svgx:width="0.25" style="fill:rgb(0,0,0);font-family:URWPalladioL-Roma;font-size:8.97px;stroke:none;">,</text>
   <text y="730.517" x="311.815,316.298" svgx:width="0.5,0.5" style="fill:rgb(0,0,0);font-family:URWPalladioL-Ital;font-size:8.97px;stroke:none;">03</text>
   <text y="730.517" x="320.782,323.0245,325.265,329.748,334.232,338.715,343.198,347.681,352.164,356.648" svgx:width="0.25,0.55,0.5,0.5,0.5,0.5,0.5,0.5,0.5,0.25" style="fill:rgb(0,0,0);font-family:URWPalladioL-Roma;font-size:8.97px;stroke:none;">, 106–114.</text>
   <text y="743.429" x="76.535,81.018,85.501,87.74350000000001,98.05,102.79,107.115,109.743,114.844,119.359,123.187,128.632,133.887,139.404,144.659,149.173,152.74,155.367,157.6095,159.855,165.371,167.629,169.8715,172.116,177.642,181.967,189.94,194.933,200.378,202.6205,204.865,210.382,212.639,214.88150000000002,217.127,223.158,225.786,231.041,235.97,238.598,243.113,245.3555,247.6,250.607,252.864,255.1065,257.352,260.358,264.683,269.703,274.218,278.046,283.491,289.008,294.263,298.777,301.0195,303.265,308.005,310.262,312.5045,314.75,321.639,326.569,331.671,334.298,339.553,345.07,349.584,353.413,357.927,365.9,369.927,372.1695,374.415,379.29,381.5325,383.778,388.518,392.527,395.931,400.256,404.581,409.836,412.464,417.719,422.74219999999997,424.969,429.899,432.8591,435.136,439.65,444.905,447.849,450.476,455.406,460.065,462.693,468.21,472.724,477.979,480.9391,483.153,488.57,493.5,496.444,500.769,506.024,508.967,511.595,516.109" svgx:width="0.5,0.5,0.25,0.55,0.52,0.48,0.29,0.56,0.5,0.42,0.6,0.58,0.61,0.58,0.5,0.4,0.29,0.25,0.55,0.61,0.25,0.25,0.55,0.72,0.48,0.88,0.55,0.6,0.25,0.55,0.61,0.25,0.25,0.55,0.72,0.29,0.58,0.55,0.29,0.5,0.25,0.55,0.33,0.25,0.25,0.55,0.33,0.48,0.56,0.5,0.42,0.6,0.61,0.58,0.5,0.25,0.55,0.52,0.25,0.25,0.55,0.76,0.55,0.56,0.29,0.58,0.61,0.5,0.42,0.5,0.88,0.56,0.25,0.55,0.61,0.25,0.55,0.52,0.44,0.4,0.48,0.48,0.58,0.29,0.58,0.56,0.55,0.55,0.33,0.55,0.5,0.58,0.33,0.29,0.55,0.52,0.29,0.61,0.5,0.58,0.33,0.55,0.6,0.55,0.33,0.48,0.58,0.33,0.29,0.5,0.29" style="fill:rgb(0,0,0);font-family:URWPalladioL-Roma;font-size:8.97px;stroke:none;">27. Selvasundhari, L.; Vembu, B.; Vinola, J.; Jeyasudha, S.; Govindasamy, T. Screening of antioxidant potential</text>
   <text y="756.34" x="98.05,102.031,106.927,114.844,120.233,125.129,130.535,135.754,141.232,144.9994,147.276,150.261,153.642,158.537" svgx:width="0.44,0.55,0.88,0.6,0.55,0.6,0.58,0.61,0.42,0.55,0.33,0.4,0.55,0.88" style="fill:rgb(0,0,0);font-family:URWPalladioL-Roma;font-size:8.97px;stroke:none;">compounds from</text>
   <text y="756.34" x="168.696,174.838,179.321,181.814,185.463,188.951,193.936,198.922,201.414,205.36079999999998,207.637,214.613,218.594,222.082,224.575,229.56" svgx:width="0.72,0.5,0.28,0.41,0.39,0.56,0.56,0.28,0.44,0.55,0.78,0.44,0.39,0.28,0.56,0.44" style="fill:rgb(0,0,0);font-family:URWPalladioL-Ital;font-size:8.97px;stroke:none;">Avicennia marina</text>
   <text y="756.34" x="235.781,240.739,245.223,248.764,253.75" svgx:width="0.55,0.5,0.4,0.56,0.25" style="fill:rgb(0,0,0);font-family:URWPalladioL-Roma;font-size:8.97px;stroke:none;">bark.</text>
   <text y="756.34" x="258.771,261.757,264.743,270.723" svgx:width="0.33,0.33,0.67,0.67" style="fill:rgb(0,0,0);font-family:URWPalladioL-Ital;font-size:8.97px;stroke:none;">IJCR</text>
   <text y="756.34" x="278.945,283.428,287.911,292.395" svgx:width="0.5,0.5,0.5,0.5" style="fill:rgb(0,0,0);font-family:URWPalladioL-Bold;font-size:8.97px;stroke:none;">2014</text>
   <text y="756.34" x="296.878" svgx:width="0.25" style="fill:rgb(0,0,0);font-family:URWPalladioL-Roma;font-size:8.97px;stroke:none;">,</text>
   <text y="756.34" x="301.361" svgx:width="0.5" style="fill:rgb(0,0,0);font-family:URWPalladioL-Ital;font-size:8.97px;stroke:none;">6</text>
   <text y="756.34" x="305.844,308.0865,310.327,314.81,319.294,323.777,328.26,332.743,337.227,341.71,346.193,350.676" svgx:width="0.25,0.55,0.5,0.5,0.5,0.5,0.5,0.5,0.5,0.5,0.5,0.25" style="fill:rgb(0,0,0);font-family:URWPalladioL-Roma;font-size:8.97px;stroke:none;">, 5490–5496.</text>
  </g>
 </g>
</svg>
