<?xml version="1.0" encoding="UTF-8"?>
<svg height="770.179" width="506.8889133405555" xmlns="http://www.w3.org/2000/svg">
 <g style="fill:none;">
  <text x="99.213,104.668,107.698,113.15299999999999,118.607,126.941,129.971,134.274,140.032,146.092,150.394,154.697,157.727,163.182,169.242,172.875,178.945,183.784,188.057,191.7,201.701,206.55,210.792,216.852,222.612,228.672,231.703,237.155,242.004,248.064,251.697,257.757,263.817,269.877,273.521,280.944,285.217,290.672,295.521,301.581,307.641,310.672,314.974,319.277" y="29.30499999999995" svg_rhmargin="324.126" style="fill:#4d4d4d;font-family:QISGBS+LMRoman10-Regular;font-size:10.91px;font-style:NORMAL;font-weight:normal;">6.5 Diskussion der Methodiken und Ergebnisse</text>
  <text x="99.213,107.546,110.577,115.426,118.961,127.142,131.992,136.234,141.083,145.932,149.467,153.769,158.012,162.861,165.892,168.922,173.771,179.831,183.366,186.396,195.486,199.032,205.092,209.335,214.789,219.032,225.092,229.395,232.929,241.414,247.474,252.929,256.463,260.706,265.555,270.099,276.159,282.219,285.249,289.552,294.106,300.166,303.701,308.003,312.246,317.7,323.76,326.791,329.821,334.67,338.205,346.387,351.236,355.479,360.328,365.17699999999996,368.711,377.802,380.832,385.075,388.609,394.669,399.519,405.579,409.124,412.155,418.215,421.749,427.809,432.658,436.93100000000004,440.466,447.89,452.163,457.617,463.375,466.406,470.709,474.243,480.303,486.363,489.393,492.424" y="66.06399999999996" svg_rhmargin="496.06" style="fill:#000000;font-family:QISGBS+LMRoman10-Regular;font-size:10.91px;font-style:NORMAL;font-weight:normal;">Die Netze stellen im Status Quo technisch stabile Netze mit den in der Praxis übli-</text>
  <text x="99.213,103.757,109.817,114.666,120.726,124.271,132.301,137.15,141.453,146.302,150.575,156.028,160.877,166.937,170.482,176.542,181.997,186.27,189.30100000000002,192.846,201.179,204.21,209.059,212.593,221.079,227.139,232.593,235.624,238.654,242.897,248.351,252.594,256.139,262.199,267.048,271.321,274.867,283.049,287.898,292.14,296.99,303.049,308.504,312.747,317.596,323.656,327.19,333.556,338.405,343.254,349.314,354.768,357.799,360.83,365.373,371.433,374.979,381.039,385.888,390.161,393.706,398.555,401.586,406.435,412.193,416.435,420.708,423.728,428.042,432.585,438.645,443.494,449.55400000000003,453.089,460.816,465.665,469.907,474.181,477.211,482.06,488.12,492.423" y="82.49900000000002" svg_rhmargin="496.059" style="fill:#000000;font-family:QISGBS+LMRoman10-Regular;font-size:10.91px;font-style:NORMAL;font-weight:normal;">chen Reserven dar. Die Qualität der Netzdaten bezüglich der elektrischen Betriebs-</text>
  <text x="99.213,108.304,111.334,115.577,119.819,124.668,127.69900000000001,130.622,136.682,142.137,146.38,149.303,155.363,160.818,169.908,172.939,177.182,180.094,185.549,191.609,194.941,200.396,204.669,210.74,216.8,222.86,225.773,231.833,236.682,240.95499999999998,243.879,249.939,252.969,257.818,262.091,265.015,270.467,275.922,280.195,285.65,290.499,296.559,302.013,311.104,320.194,325.043,331.103,335.952,342.012,344.936,354.027,359.481,365.541,370.39,374.633,380.087,384.36,389.21,395.27,398.193,405.92,410.769,418.342,423.191,427.465,431.707,437.767,443.827,449.282,452.205,458.265,463.114,467.387,470.311,478.493,483.331,487.574,492.423" y="98.93399999999997" svg_rhmargin="496.059" style="fill:#000000;font-family:QISGBS+LMRoman10-Regular;font-size:10.91px;font-style:NORMAL;font-weight:normal;">mittel hat damit aufgrund der hier vorgenommenen monetären Bewertung der Netz-</text>
  <text x="99.213,104.668,110.728,115.03,121.09,126.545,132.605,141.695,147.15,152.604,158.664,164.119,170.179,179.269,184.118,190.178,194.389,200.144,206.204,210.477,214.688,219.537,222.568,228.628,233.477,239.537,243.748,249.202,254.051,258.324,261.355,267.415,272.869,277.718,283.778,287.989,295.413,298.444,304.504,310.564,316.624,320.926,325.229,329.44,334.894,340.954,344.28700000000003,348.498,354.558,357.588,362.437,366.648,374.828,380.283,384.585,388.828,393.677,399.737,402.76800000000003,406.978,413.038,418.493,422.704,428.764,431.794,436.643,440.854,446.309,452.369,457.823,462.672,466.975,471.824,476.067,480.916,485.158,490.007" y="115.36900000000003" svg_rhmargin="496.067" style="fill:#000000;font-family:QISGBS+LMRoman10-Regular;font-size:10.91px;font-style:NORMAL;font-weight:normal;">ausbaumaßnahmen nur einen geringen Einﬂuss auf die Kosten, da die angesetzten</text>
  <text x="99.213,106.031,110.88,113.911,118.153,124.213,130.273,135.728,140.03,145.483,150.937,155.24,159.482,164.332,170.392,173.522,176.553,181.402,187.462,190.493,195.947,198.978,202.008,206.552,212.612,215.732,221.792,227.246,231.801,237.861,240.981,247.041,253.101,258.556,264.616,270.381,276.441,282.501,287.956,292.258,297.107,303.462,308.311,314.371,319.21999999999997,322.351,326.653,331.803,339.681,342.712,347.561,350.692,353.722,359.782,364.055,368.904,373.177,376.297,382.357,388.723,393.572,397.845,400.876,405.149,411.209,414.239,418.542,423.085,429.145,433.995,440.055,443.185,448.935,454.995,459.844,464.117,467.248,473.308,479.062,483.305,488.154,492.427" y="131.80499999999995" svg_rhmargin="496.063" style="fill:#000000;font-family:QISGBS+LMRoman10-Regular;font-size:10.91px;font-style:NORMAL;font-weight:normal;">Leitungskosten lediglich nach Spannungsebene sowie ihrer überirdischen oder unter-</text>
  <text x="99.213,102.244,106.517,112.577,115.607,119.91,124.453,130.513,135.362,141.422,144.586,151.404,156.859,162.313,167.16199999999998,170.326,176.386,182.141,186.383,191.232,195.505,199.808,204.352,210.412,213.442,218.291,224.351,229.2,235.26,238.424,245.997,250.846,255.119,261.179,266.028,272.088,275.119,278.283,286.159,292.219,296.763,302.823,305.986,312.046,315.077,319.926,323.089,331.575,336.424,342.484,348.544,353.998,358.271,363.726,369.18,374.029,377.193,383.253,388.102,392.405,395.557,403.739,409.505,413.747,418.586,421.616,424.647,428.95,432.113,437.567,443.627,446.791,454.215,458.488,464.548,470.306,475.76,482.126,486.975,490.005" y="148.24" svg_rhmargin="496.065" style="fill:#000000;font-family:QISGBS+LMRoman10-Regular;font-size:10.91px;font-style:NORMAL;font-weight:normal;">irdischen Lage unterschieden werden. Auch die Kenngröße des Anteils an Erdkabeln</text>
  <text x="99.213,105.273,110.122,114.395,118.355,126.537,131.386,135.629,140.467,146.538,151.992,156.235,161.073,167.133,171.093,177.153,182.608,186.851,190.81,196.565,202.625,206.898,210.858,215.707,218.737,224.797,229.647,235.707,239.656,245.11,249.959,254.232,257.263,263.323,268.777,273.627,279.687,283.647,291.07,294.101,300.161,306.221,312.281,316.583,320.886,324.846,330.3,336.36,339.69300000000004,343.653,349.713,352.744,357.593,361.542,366.391,370.664,374.937,379.786,384.33,390.39,396.461,401.299,405.542,410.391,416.451,420.411,428.971,433.82,438.123,443.577,452.362,456.605,462.665,467.514,471.756,476.606,482.06,488.12,492.423" y="164.67499999999995" svg_rhmargin="496.059" style="fill:#000000;font-family:QISGBS+LMRoman10-Regular;font-size:10.91px;font-style:NORMAL;font-weight:normal;">der Netzdaten hat nur einen geringen Einﬂuss auf die errechneten Gesamtnetzaus-</text>
  <text x="99.213,105.273,110.728,116.788,122.24,127.694,131.997,136.24,141.089,147.149,150.18,153.539,159.599,165.054,168.425,174.63,178.903,183.752,186.783,189.813,194.662,197.693,201.935,207.995,214.055,219.51,224.359,230.419,233.779,240.144,244.993,248.024,251.384,259.26,265.32,269.623,273.865,279.32,285.38,289.683,294.237,300.297,303.657,307.96,312.202,317.051,321.294,325.597,328.956,335.016,341.076,345.35,349.893,355.953,359.313,366.737,371.01,377.07,382.828,388.282,394.648,399.497,402.528,405.887,410.736,415.01,419.312,424.161,428.404,433.253,437.496,440.855,448.429,453.278,457.551,463.611,468.46,474.52,477.88,483.94,490.0" y="181.11" svg_rhmargin="496.06" style="fill:#000000;font-family:QISGBS+LMRoman10-Regular;font-size:10.91px;font-style:NORMAL;font-weight:normal;">baukosten, da Freileitungen bei Austausch stets durch Erdkabel ersetzt werden und</text>
  <text x="99.213,103.516,108.97,118.061,121.091,125.33399999999999,129.403,134.857,140.917,146.372,151.221,155.494,159.563,162.594,171.684,175.742,181.958,187.413,190.444,193.474,198.32299999999998,202.392,207.845,213.299,219.359,223.428,229.633,233.906,238.756,241.786,244.817,249.666,252.696,256.939,262.999,269.059,274.513,278.816,284.279,289.117,293.391,297.704,301.947,307.401,311.663,317.421,323.492,329.552,335.007,339.065,343.367,347.61,352.459,356.702,361.005,365.073,373.253,378.707,383.01,387.252,392.102,398.162,402.231,405.563,411.623,415.896,419.966,427.389,431.662,437.722,443.177,447.45,453.815,458.665,461.695,465.938,470.787,476.847,480.916,486.37,492.43" y="197.54499999999996" svg_rhmargin="496.066" style="fill:#000000;font-family:QISGBS+LMRoman10-Regular;font-size:10.91px;font-style:NORMAL;font-weight:normal;">somit außer im Falle von Freileitungsverstärkung stets Kosten für Erdarbeiten an-</text>
  <text x="99.213,104.668,109.517,113.819,118.668,122.911,127.76,132.00300000000001,135.635,143.208,148.057,152.331,158.391,163.24,169.3" y="213.98000000000002" svg_rhmargin="172.331" style="fill:#000000;font-family:QISGBS+LMRoman10-Regular;font-size:10.91px;font-style:NORMAL;font-weight:normal;">gesetzt werden.</text>
  <text svg_rhmargin="138.417" x="99.213,107.546,110.577,115.426,120.204,126.264,129.295,134.144,138.417" y="239.92399999999998" style="fill:#000000;font-family:QISGBS+LMRoman10-Regular;font-size:10.91px;font-style:NORMAL;font-weight:normal;">Die hier </text>
  <text svg_rhmargin="326.032" x="143.2,149.298,156.268,162.541,168.291,177.003,182.753,189.723,196.693,202.443,207.321,213.071,218.57,228.388,234.138,239.017,244.592,250.691,257.66,262.609,269.579,275.677,282.647,289.616,293.101,299.199,305.82,312.79,319.759,326.03200000000004" y="239.92399999999998" style="fill:#000000;font-family:WWLKHN+LMRoman10-Bold;font-size:10.91px;font-style:NORMAL;font-weight:BOLD;">angewendete Netzausbauplanung </text>
  <text x="330.931,335.234,339.476,344.325,347.356,350.386,354.629,359.407,364.256,367.287,373.347,378.19599999999997,382.974,388.437,393.286,397.559,402.398,405.428,411.488,414.832,420.286,424.83,430.585,434.827,439.676,442.707,447.485,451.787,456.03,461.485,467.545,473.605,479.059,483.332,489.392,492.423" y="239.92399999999998" svg_rhmargin="496.059" style="fill:#000000;font-family:QISGBS+LMRoman10-Regular;font-size:10.91px;font-style:NORMAL;font-weight:normal;">stellt eine vereinfachte, standardi-</text>
  <text x="99.213,103.516,106.546,111.395,115.668,119.911,124.76,128.993,136.869,142.929,147.232,153.292,158.746,164.806,170.866,173.897,179.351,185.117,191.177,197.237,202.692,206.924,212.984,218.438,222.712,225.743,229.975,237.548,242.397,245.428,249.971,256.031,260.88,265.113,271.173,276.628,280.93,283.961,288.81,293.083,297.932,303.992,310.052,314.285,319.739,325.799,329.132,333.376,336.406,341.861,347.315,352.77,355.801,360.033,366.093,372.153,378.213,382.446,385.476,390.931,393.962,398.194,403.647,409.101,414.856,420.319,425.157,430.923,435.165,438.196,443.65,449.71,454.559,457.59,460.62,465.47,468.50100000000003,472.733,476.975,481.824,486.368,492.428" y="256.35900000000004" svg_rhmargin="496.064" style="fill:#000000;font-family:QISGBS+LMRoman10-Regular;font-size:10.91px;font-style:NORMAL;font-weight:normal;">sierte Ausbauplanung dar, welche basierend auf [138] und [4] konventionelle, tech-</text>
  <text x="99.213,105.273,108.304,112.606,117.15,123.21000000000001,126.362,130.665,133.696,139.756,145.521,150.973,156.428,159.458,162.489,167.338,170.491,177.915,180.945,186.4,192.154,198.214,204.274,209.729,214.031,220.091,224.364,229.819,234.668,239.517,243.82,248.122,252.971,256.124,262.184,267.033,271.30600000000004,274.459,281.724,286.573,290.847,295.089,299.938,302.969,305.999,312.059,316.908,321.151,326.0,332.365,337.215,341.457,345.73,350.579,353.61,359.975,364.824,369.09700000000004,372.25,376.493,384.675,392.856,400.583,404.826,407.968,415.846,418.877,423.726,429.786,434.635,438.908,443.211,449.271,452.301,457.15,462.605,467.454,470.484,474.727,477.88,483.94,490.0" y="272.794" svg_rhmargin="496.06" style="fill:#000000;font-family:QISGBS+LMRoman10-Regular;font-size:10.91px;font-style:NORMAL;font-weight:normal;">nisch sinnvolle Planungsprozesse der Verteilnetzbetreiber (VNB) wiederspiegelt und</text>
  <text x="99.213,103.516,108.97,118.061,121.091,125.33399999999999,128.225,133.679,136.71,141.013,143.903,148.176,153.025,158.48,161.51,164.541,168.844,173.086,176.117,180.419,184.963,191.023,193.914,199.368,205.428,210.883,215.732,220.035,224.884,230.944,235.793,241.853,244.744,252.622,255.653,259.926,265.986,269.017,271.907,280.089,284.392,290.757,295.606,301.364,305.607,310.456,313.347,321.225,324.256,329.10499999999996,331.985,338.056,343.813,349.873,355.328,364.419,367.449,371.752,376.295,382.355,387.204,390.095,396.155,400.398,405.852,411.912,414.943,417.973,421.004,425.247,430.701,434.944,437.835,443.584,449.644,454.493,458.766,461.657,467.717,470.747,475.596,478.487,486.364,492.424" y="289.229" svg_rhmargin="496.06" style="fill:#000000;font-family:QISGBS+LMRoman10-Regular;font-size:10.91px;font-style:NORMAL;font-weight:normal;">somit als realistisch angesehen wird. Aspekte wie dynamische Stabilität oder die Ad-</text>
  <text x="99.213,104.668,110.728,114.97,118.001,123.455,129.515,132.646,138.098,143.553,149.613,152.755,158.815,163.358,169.113,175.173,179.416,184.265,189.717,195.172,201.232,206.081,210.93,216.99,221.232,226.081,232.141,235.172,238.314,245.887,250.736,253.767,258.31,264.37,269.219,272.35,277.199,283.259,287.562,293.016,297.259,302.108,305.139,308.169,312.713,318.773,323.622,326.753,334.932,340.387,344.7,348.943,353.781,359.841,362.983,368.435,373.284,377.558,383.618,387.891,392.193,397.648,402.191,408.251,413.1,419.16,422.291,427.744,433.198,439.269,445.329,450.178,456.238,459.269,462.4,469.973,474.822,479.095,485.155,490.004" y="305.664" svg_rhmargin="496.064" style="fill:#000000;font-family:QISGBS+LMRoman10-Regular;font-size:10.91px;font-style:NORMAL;font-weight:normal;">aption von Schutzkonzepten, welche zusätzliche Kosten verursachen können, werden</text>
  <text x="99.213,104.665,109.514,113.788,119.848,125.302,129.846,135.906,138.936,144.391,148.693,152.996,156.026,161.481,165.724" y="322.099" svg_rhmargin="168.755" style="fill:#000000;font-family:QISGBS+LMRoman10-Regular;font-size:10.91px;font-style:NORMAL;font-weight:normal;">vernachlässigt.</text>
  <text x="99.213,109.52,114.369,117.4,121.642,126.491,130.753,136.824,139.844,145.904,150.017,157.895,160.915,165.188,171.248,175.35,178.38,184.44,188.542,194.602,199.451,203.724,207.826,213.886,216.917,221.766,226.039,230.141,235.595,241.655,247.11,251.959,259.532,264.381,270.441,276.512,281.35,285.593,290.442,296.502,300.604,308.785,313.635,317.877,322.726,328.181,334.241,338.543,344.603,350.058,356.129,362.189,365.219,370.674,376.428,382.488,388.548,394.003,398.105,404.165,407.195,412.044,416.146,424.631,430.691,434.934,437.964,447.055,450.085,454.935,459.208,465.268,471.328,476.78299999999996,480.884,486.944,491.793" y="348.043" svg_rhmargin="496.066" style="fill:#000000;font-family:QISGBS+LMRoman10-Regular;font-size:10.91px;font-style:NORMAL;font-weight:normal;">Weiterhin wird in der hier angewendeten Netzausbauplanung die Optimierung der</text>
  <text x="99.213,106.94,111.789,116.032,120.305,123.335,128.184,134.244,138.547,144.607,150.667,156.727,162.485,166.727,171.576,175.231,181.291,186.14,190.41299999999998,194.078,202.26,208.32,211.956,221.957,228.017,231.653,238.615,242.888,248.342,254.402,258.716,262.049,267.503,271.776,280.867,286.321,290.564,296.019,300.292,305.13,311.201,314.232,317.886,325.459,330.308,333.339,337.882,343.942,348.791,352.446,357.295,360.325,366.385,370.051,375.503,380.958,385.26,389.503,394.352,400.412,405.867,411.927,417.987,422.289,426.532,429.562,435.017,439.866,444.169,447.834,457.834,460.865,465.107,469.35,474.188,477.219,480.884,485.733,491.793" y="364.478" svg_rhmargin="496.066" style="fill:#000000;font-family:QISGBS+LMRoman10-Regular;font-size:10.91px;font-style:NORMAL;font-weight:normal;">Betriebspunkte der HS-MS-Transformatoren, welche ein kostengünstiges Mittel zur</text>
  <text x="99.213,106.489,111.338,115.612,121.966,126.815,131.118,135.42,140.269,144.542,150.602,156.662,162.11700000000002,165.182,171.242,176.092,180.395,183.449,191.63,196.48,200.722,205.571,210.42,216.48,220.783,225.025,230.48,236.54,242.6,247.449,251.752,254.806,260.866,266.926,272.986,276.052,282.112,287.566,296.657,299.687,303.93,306.984,311.833,317.893,322.166,325.221,332.497,337.347,341.62,345.893,348.923,354.983,360.438,365.287,369.56,375.62,381.68,387.135,390.189,395.641,401.096,407.156,410.211,418.392,423.241,427.484,432.333,437.788,443.848,448.15,454.21,459.665,465.725,472.09,476.939,482.999,488.454,492.727" y="380.913" svg_rhmargin="496.06" style="fill:#000000;font-family:QISGBS+LMRoman10-Regular;font-size:10.91px;font-style:NORMAL;font-weight:normal;">Verbesserung des Netzzustandes und damit zur Verringerung von Netzausbaubedarf</text>
  <text x="99.213,105.273,110.728,115.001,119.303,123.546,128.395,131.425,134.456,138.698,141.729,145.885,151.945,154.976,159.52,165.274,169.517,173.673,180.039,184.888,189.161,195.221,199.764,205.522,209.825,212.855,217.399,223.164,227.407,230.437,235.892,240.135,243.166,247.321,255.198,261.258,265.802,271.862,276.018,282.078,285.108,289.957,294.114,304.114,309.569,315.023,318.054,321.084,325.628,331.688,337.14,341.99,345.02,349.263,353.419,358.268,361.299,367.359,372.208,376.48100000000005,380.637,386.697,392.455,398.515,403.97,413.06,416.091,420.393,424.937,430.997,435.846,441.906,446.062,453.939,459.999,463.331,467.574,472.423,475.454,478.484,484.544,490.604" y="397.348" svg_rhmargin="496.059" style="fill:#000000;font-family:QISGBS+LMRoman10-Regular;font-size:10.91px;font-style:NORMAL;font-weight:normal;">darstellt, nicht berücksichtigt. Auch die Möglichkeit einer dynamischen Aufteilung</text>
  <text x="99.213,105.273,110.122,114.425,118.799,124.859,130.919,136.374,142.434,148.188,154.248,160.308,165.763,170.076,176.136,181.591,187.651,193.711,198.56,202.863,207.237,213.297,218.752,223.295,229.355,233.73,241.153,249.33499999999998,253.71,259.164,264.619,270.073,275.528,280.983,285.357,288.388,293.842,299.297,302.32800000000003,306.702,315.792,318.823,323.065,327.308,332.157,335.188,339.491,343.865,351.438,356.287,359.318,363.861,369.921,374.77,379.043,383.418,391.6,396.449,400.691,405.54,410.995,417.055,421.358,427.418,432.872,438.932,445.298,450.147,456.207,461.661,465.934,469.26700000000005,473.642,479.096,485.156,491.216" y="413.783" svg_rhmargin="496.065" style="fill:#000000;font-family:QISGBS+LMRoman10-Regular;font-size:10.91px;font-style:NORMAL;font-weight:normal;">des Spannungsbandes nach EN 50160 [90] mittels welcher Netzausbaubedarf ohne</text>
  <text x="99.213,104.062,110.122,114.425,119.879,124.122,128.971,132.001,135.032,139.576,145.636,150.48499999999999,154.03,157.969,163.735,169.187,174.036,178.339,182.581,185.612,189.855,192.885,198.34,204.4,209.249,215.309,218.854,223.127,227.976,234.036,240.096,244.945,247.976,252.825,257.098,261.341,264.886,272.47,277.319,281.592,287.652,292.501,298.561,302.107,307.865,313.319,319.379,325.439,328.47,332.015,339.894,342.924,347.198,353.258,356.814,362.874,365.904,370.754,375.027,378.058,381.603,386.452,392.817,397.666,403.726,408.029,413.484,417.029,424.907,427.938,432.787,436.332,442.392,448.758,453.607,457.88,465.759,468.789,473.638,479.093,483.942,490.002" y="430.218" svg_rhmargin="496.062" style="fill:#000000;font-family:QISGBS+LMRoman10-Regular;font-size:10.91px;font-style:NORMAL;font-weight:normal;">zusätzliche Investitionen reduziert werden kann, wird hier, ebenso wie überwiegend</text>
  <text x="99.213,102.244,108.304,111.936,117.996,122.845,127.118,130.762,138.186,142.459,147.913,153.671,156.702,161.004,164.035,167.668,173.728,176.758,181.302,187.056,191.299,194.943,201.308,206.157,210.4,214.673,220.127,224.671,230.425,234.668,239.517,243.76" y="446.654" svg_rhmargin="246.791" style="fill:#000000;font-family:QISGBS+LMRoman10-Regular;font-size:10.91px;font-style:NORMAL;font-weight:normal;">in der Praxis, nicht betrachtet.</text>
  <text x="99.213,110.425,113.456,118.305,120.825,123.856,129.916,132.446,140.932,146.386,152.446,155.477,159.719,164.568,167.59900000000002,170.13,175.584,178.615,184.069,187.1,192.555,195.075,199.924,204.197,207.227,212.682,218.742,222.984,227.833,232.107,236.349,239.38,241.911,247.971,254.031,260.091,264.94,269.183,271.702,274.733,280.793,283.324,289.384,294.233,300.293,302.824,308.884,311.914,316.752,321.02500000000003,323.556,329.616,335.676,339.949,344.493,350.553,356.008,360.857,364.189,370.249,376.309,380.583,384.825,389.674,395.734,398.265,406.447,412.202,416.444,421.293,425.566,429.869,435.929,440.472,446.238,452.298,458.358,463.812,468.662,474.722,477.242,482.705,488.159,492.432" y="472.597" svg_rhmargin="496.068" style="fill:#000000;font-family:QISGBS+LMRoman10-Regular;font-size:10.91px;font-style:NORMAL;font-weight:normal;">Wie in Kapitel 6.1.1 erläutert, ﬁndet in den hier durchgeführten Untersuchungen vor-</text>
  <text x="99.213,104.668,110.728,115.03,119.333,123.876,129.936,135.391,141.451,146.3,152.36,158.42,163.26899999999998,167.469,175.651,180.5,184.742,189.592,195.652,198.682,204.137,209.891,215.951,222.011,227.466,231.655,239.837,245.602,253.175,258.024,264.084,270.144,276.204,282.264,287.719,290.75,294.949,302.523,307.372,310.402,314.946,321.006,325.85499999999996,330.044,334.893,340.953,345.153,350.002,353.033,359.093,363.942,368.21500000000003,372.404,380.586,386.34,390.583,395.432,399.705,404.008,408.551,414.611,420.066,424.308,429.158,435.217,441.277,446.73199999999997,450.932,456.992,461.841,466.11400000000003,470.303,478.485,483.334,487.577,492.426" y="489.032" svg_rhmargin="496.062" style="fill:#000000;font-family:QISGBS+LMRoman10-Regular;font-size:10.91px;font-style:NORMAL;font-weight:normal;">ausschauende Netzplanung Anwendung, welche zu einer Unterschätzung der Netz-</text>
  <text x="99.213,104.668,110.728,115.03,121.09,126.545,132.605,138.057,143.512,147.814,152.057,156.906,162.966,168.18,171.513,177.573,183.633,187.906,192.149,195.18,200.405,208.587,214.341,218.584,223.433,227.706,232.008,238.068,242.612,248.367,254.437,260.497,265.952,270.801,276.861,282.065,288.125,292.974,297.247,302.462,308.522,313.371,319.431,324.885,328.521,335.798,340.647,344.92,349.162,354.0,357.031,360.062,366.122,370.971,375.213,380.062,384.365,388.607,394.667,400.738,403.769,408.618,413.822,416.852,422.307,425.338,430.552,435.401,441.461,444.794,450.248,453.279,458.733,463.582,468.786,471.817,474.847,479.696,485.151,490.0" y="505.467" svg_rhmargin="496.06" style="fill:#000000;font-family:QISGBS+LMRoman10-Regular;font-size:10.91px;font-style:NORMAL;font-weight:normal;">ausbaukosten führt. Untersuchungen der dena-Verteilnetzstudie [4] zufolge liegen</text>
  <text x="99.213,105.273,108.304,113.153,116.567,124.747,130.201,134.504,138.746,143.596,149.656,153.07,159.436,164.285,167.316,170.719,176.182,181.637,185.91,191.364,197.424,201.727,206.029,210.573,216.633,222.088,228.148,232.997,239.057,245.117,249.966,254.239,257.653,265.835,270.684,274.927,279.776,285.836,288.867,294.321,300.076,306.136,312.196,317.651,321.065,324.095,330.15500000000003,333.57,339.63,344.479,348.752,352.167,360.348,366.408,369.823,375.278,380.733,382.543,391.633,395.048,399.351,404.5,412.378,415.409,420.258,423.672,426.703,432.763,436.178,442.238,447.087,451.36,454.774,464.775,470.835,474.249,479.704,485.159,486.969" y="521.902" svg_rhmargin="496.06" style="fill:#000000;font-family:QISGBS+LMRoman10-Regular;font-size:10.91px;font-style:NORMAL;font-weight:normal;">die Kosten bei vorausschauender Netzplanung in der NS 11 % sowie in der MS 18 %</text>
  <text x="99.213,105.273,111.028,115.27,120.119,124.392,128.036,134.096,138.945,145.005,148.638,156.817,162.272,166.574,170.817,175.666,181.726,185.37,191.43,196.279,200.552,204.185,212.367,218.121,222.364,227.213,231.486,235.788,241.848,246.392,252.157,258.217,264.277,269.732,274.581,280.641,284.274,293.364,296.395,300.638,304.27,310.33,315.179,321.239,324.883,330.943,335.185,341.245,345.488,350.337,353.67,359.124,365.184,369.458,374.307,380.367,383.999,389.454,394.908,400.363,405.818,409.45,415.51,421.581,427.641,431.274,436.728,442.183,447.638,453.092" y="538.338" svg_rhmargin="456.123" style="fill:#000000;font-family:QISGBS+LMRoman10-Regular;font-size:10.91px;font-style:NORMAL;font-weight:normal;">unter den Kosten der Untersuchungen mit den Stützjahren 2015 und 2020.</text>
  <text x="99.213,105.88,111.94,116.213,118.874,126.601,131.45,139.024,143.873,148.146,152.388,158.448,164.508,169.96300000000002,172.625,178.696,183.534,187.837,190.509,197.627,203.082,207.324,212.173,218.233,223.083,226.113,231.568,234.598,238.901,241.563,247.623,252.472,256.745,259.407,265.772,270.621,273.652,279.712,284.561,290.621,293.283,300.404,303.435,308.284,314.041,317.072,323.132,326.163,329.193,332.224,336.466,341.921,346.163,350.466,355.92,361.98,366.223,369.254,374.708,380.768,385.617,391.677,394.339,402.521,408.581,412.854,417.703,423.158,428.007,431.037,437.097,443.157,448.61199999999997,451.274,457.344,463.404,469.464,472.126,478.186,484.552,489.401,492.431" y="564.281" svg_rhmargin="496.067" style="fill:#000000;font-family:QISGBS+LMRoman10-Regular;font-size:10.91px;font-style:NORMAL;font-weight:normal;">Zur Bewertung des Potenzials der beiden Flexibilitätsoptionen Abregelung und Spei-</text>
  <text x="99.213,103.757,109.817,114.666,118.939,121.969,127.724,131.966,136.816,142.27,146.543,151.998,156.24,159.271,164.725,170.785,173.294,178.144,184.204,188.477,190.997,199.027,203.876,209.936,215.996,221.754,225.996,229.027,234.481,240.541,243.051,248.503,253.957,260.017,262.527,270.708,275.557,279.8,284.649,290.104,296.164,300.466,306.526,311.981,318.041,323.504,328.959,333.261,337.504,342.353,348.413,350.922,358.8,364.86,369.134,375.194,380.043,386.103,388.612,396.794,401.643,407.703,411.976,415.006,419.309,423.551,426.582,432.034,436.883,442.943,445.452,450.302,456.067,460.004,467.883,470.913,475.457,480.909,485.758,488.789,493.031" y="580.716" svg_rhmargin="496.062" style="fill:#000000;font-family:QISGBS+LMRoman10-Regular;font-size:10.91px;font-style:NORMAL;font-weight:normal;">cherintegration zur Reduktion von Netzausbaukosten wurden Heuristiken entwickelt,</text>
  <text x="99.213,106.786,111.635,114.666,119.209,125.269,130.118,134.897,139.746,145.806,154.89600000000002,159.664,166.33,169.361,174.21,177.241,182.008,188.068,193.522,199.888,204.737,210.797,213.828,218.605,225.871,231.325,235.598,241.053,246.508,252.873,257.722,263.782,268.549,274.004,280.075,284.378,289.145,295.205,300.054,306.114,310.881,316.941,322.396,326.669,332.729,339.094,343.943,348.216,351.247,354.277,359.126,364.581,369.43,375.49,381.55,386.399,392.459,397.227,403.297,409.357,414.812,420.872,426.626,432.686,438.746,444.201,448.504,453.353,459.718,464.567,470.627,475.476,481.536,486.304,490.606" y="597.1510000000001" svg_rhmargin="496.061" style="fill:#000000;font-family:QISGBS+LMRoman10-Regular;font-size:10.91px;font-style:NORMAL;font-weight:normal;">welche zum Ziel haben, Vorgaben aus den darüberliegenden Spannungsebenen so</text>
  <text x="99.213,104.062,107.093,113.153,118.002,124.062,128.364,133.213,137.456,142.305,147.154,153.214,156.245,161.285,167.345,172.799,177.102,181.405,186.444,194.626,199.475,203.718,208.567,214.021,220.081,224.384,230.444,235.899,241.969,247.422,252.876,257.179,261.421,266.271,272.331,277.371,286.461,291.916,297.673,300.704,309.795,315.249,318.28000000000003,323.32,327.593,332.442,338.502,344.562,349.411,352.441,357.291,361.564,365.807,370.846,378.419,383.268,387.542,393.602,398.451,404.511,409.551,413.793,418.096,421.126,425.975,432.035,436.884,441.935,450.42,455.875,461.935,464.966,469.208,474.057,477.088,482.128,487.582,490.613" y="613.586" svg_rhmargin="496.068" style="fill:#000000;font-family:QISGBS+LMRoman10-Regular;font-size:10.91px;font-style:NORMAL;font-weight:normal;">einzusetzen, dass Netzausbaukosten maximal reduziert werden (siehe Kapitel 6.2</text>
  <text x="99.213,105.273,111.333,117.393,121.364,126.818,129.849,135.304,139.546,142.577,146.558,154.892,160.347,164.317,170.377,173.408,178.25699999999998,182.239,190.115,196.175,200.478,208.051,212.9,217.173,221.416,227.476,233.536,238.99,243.839,249.899,253.881,259.336,262.366,266.669,272.12399999999997,276.094,281.549,287.609,290.942,294.923,303.105,307.954,314.014,318.287,321.318,325.62,329.863,332.894,338.346,343.195,349.255,353.226,359.286,364.74,369.043,372.074,376.923,381.196,386.045,392.105,395.136,399.117,406.996,410.026,414.299,420.359,424.33,430.39,435.845,440.148,444.118,452.309,457.763,462.066,466.309,471.158,477.218,481.52,486.369,492.429" y="630.021" svg_rhmargin="496.065" style="fill:#000000;font-family:QISGBS+LMRoman10-Regular;font-size:10.91px;font-style:NORMAL;font-weight:normal;">und 6.3). Da die Auswertungen also auf Heuristiken basieren, wird das Kostensen-</text>
  <text x="99.213,104.971,111.031,117.091,122.545,126.848,133.213,138.668,142.91,147.76,153.82,158.669,161.699,167.154,170.185,173.053,179.113,182.144,186.993,191.296,196.145,200.418,203.287,213.287,218.742,224.196,230.256,235.711,241.771,250.861,255.71,261.77,264.64,271.005,276.46,280.702,285.551,291.611,296.46,299.491,304.34,307.37,310.401,313.27,319.33,325.096,329.338,334.176,338.449,342.763,347.306,353.366,358.821,363.064,367.913,372.155,375.186,378.055,384.721,390.781,395.05400000000003,397.924,405.651,410.5,414.802,419.045,422.075,431.166,439.962,446.022,452.082,457.537,460.405,466.465,471.315,475.618,478.486,483.939,489.393,492.424" y="646.457" svg_rhmargin="496.06" style="fill:#000000;font-family:QISGBS+LMRoman10-Regular;font-size:10.91px;font-style:NORMAL;font-weight:normal;">kungspotenzial dieser Maßnahmen potenziell unterschätzt. Zur Bestimmung des vol-</text>
  <text x="99.213,102.244,107.093,113.153,116.305,124.485,129.94,134.242,138.485,143.334,149.394,153.696,158.545,164.605,170.363,176.423,182.483,187.938,192.24,198.606,204.06,208.303,213.152,219.212,224.061,227.092,232.546,235.577,239.88,243.032,249.397,254.247,260.307,265.761,270.034,273.367,276.52,281.369,285.672,288.824,293.673,296.704,302.764,307.613,311.886,315.028,321.099,324.118,328.673,334.427,338.67,342.306,345.336,348.367,354.427,359.276,364.731,369.004,373.853,379.913,383.066,391.551,397.611,401.853,404.884,413.974,417.005,421.854,426.127,432.187,438.247,443.702,446.733,449.885,457.458,462.307,465.338,469.881,475.941,480.78999999999996,483.943,486.974" y="662.892" svg_rhmargin="496.065" style="fill:#000000;font-family:QISGBS+LMRoman10-Regular;font-size:10.91px;font-style:NORMAL;font-weight:normal;">len Kostensenkungspotenzials bedarf es einer nicht-linearen Optimierung, welche im</text>
  <text x="99.213,107.243,112.698,118.758,127.848,132.697,138.757,142.696,148.756,153.605,157.908,161.856,169.28,173.553,179.313,182.646,187.495,193.253,197.495,202.344,206.647,210.585,216.645,219.676,224.219,229.974,234.21699999999998,238.165,244.225,253.316,258.771,263.62,267.922,272.771,277.014,281.863,286.106,290.044,297.617,302.466,306.739,312.799,317.648,323.708,327.657,333.109,338.564,344.624,350.379,354.621,359.47,362.50100000000003,366.45,374.177,379.026,383.875,389.935,395.39,398.42,401.451,405.994,412.05400000000003,415.992,422.052,426.902,431.175,435.124,445.124,449.973,454.216,460.276,466.025,472.096,476.945,480.883,485.732,491.792" y="679.327" svg_rhmargin="496.065" style="fill:#000000;font-family:QISGBS+LMRoman10-Regular;font-size:10.91px;font-style:NORMAL;font-weight:normal;">Rahmen des Projektes nicht umgesetzt werden konnte. Bezüglich der Methode zur</text>
  <text x="99.213,105.273,111.638,116.488,119.518,124.062,130.122,134.971,139.244,142.274,148.029,152.272,157.121,162.575,166.848,172.303,176.545,179.576,185.03,191.09,194.952,202.831,208.891,213.164,219.224,224.07299999999998,227.924,232.773,238.833,244.893,249.742,258.832,262.694,269.06,273.909,278.182,283.031,286.062,290.304,294.60699999999997,298.458,301.488,307.548,311.41,319.895,325.35,331.41,334.44,338.683,343.532,346.563,350.424,355.879,358.909,364.364,368.215,373.67,379.73,385.184,390.033,399.124,403.973,408.246,414.004,418.246,421.277,425.139,431.199,436.653,440.956,445.259,449.12,455.18,458.211,463.06,467.362,472.211,476.062,480.911,486.971" y="695.762" svg_rhmargin="496.062" style="fill:#000000;font-family:QISGBS+LMRoman10-Regular;font-size:10.91px;font-style:NORMAL;font-weight:normal;">Speicherintegration wurde zudem bereits in Kapitel 6.3 angemerkt, dass diese zum</text>
  <text x="99.213,104.062,107.093,113.153,118.002,124.062,126.778,132.233,138.293,141.625,147.08,151.353,157.413,163.473,169.53300000000002,172.249,178.309,183.158,187.43099999999998,190.137,197.413,202.262,206.536,211.385,214.415,220.475,223.808,229.262,233.806,239.572,245.632,251.692,257.147,259.852,264.701,267.731,273.791,278.64,282.913,285.63,291.084,297.144,301.447,305.749,310.293,316.353,319.384,322.414,327.263,332.718,335.748,338.779,343.333,349.393,354.243,360.303,363.008,366.947,372.713,376.955,381.804,387.259,391.532,396.987,401.229,404.26,409.714,415.774,418.48,423.943,429.397,435.457,438.163,444.223,450.588,455.437,458.468,463.012,469.072,473.921,478.194,484.254,486.97,490.001" y="712.197" svg_rhmargin="496.061" style="fill:#000000;font-family:QISGBS+LMRoman10-Regular;font-size:10.91px;font-style:NORMAL;font-weight:normal;">einen aufgrund der Vereinfachung einer ausschließlichen Integration von Speichern in</text>
  <text x="479.699,485.154,490.608" y="760.179" svg_rhmargin="496.063" style="fill:#4d4d4d;font-family:QISGBS+LMRoman10-Regular;font-size:10.91px;font-style:NORMAL;font-weight:normal;">145</text>
 </g>
</svg>
