<?xml version="1.0" encoding="UTF-8"?>
<svg height="770.179" width="506.24732453" xmlns="http://www.w3.org/2000/svg">
 <g style="fill:none;">
  <text x="426.366,431.82099999999997,437.275,445.457,450.306,454.549,459.398,468.488,474.248,480.308,485.157,488.188,491.218" y="29.30499999999995" svg_rhmargin="496.067" style="fill:#4d4d4d;font-family:QISGBS+LMRoman10-Regular;font-size:10.91px;font-style:NORMAL;font-weight:normal;">4 Netzmodelle</text>
  <path d="M99.212 34.734 L496.062 34.734 " style="fill:none;stroke:#000000;stroke-width:1.0;"/>
  <rect style="stroke:blue;stroke-width:0.3;" x="218.269" y="93.21" height="224.479" width="158.742" title="86"/>
  <text x="218.269" y="93.21" class="image" id="image.86.1" width="158" height="224">image.86.1.218_377.93_318</text>
  <text x="133.987,142.169,148.229,154.289,157.319,160.35,166.41,172.47,178.53,183.985,187.617,193.072,196.102,201.557,204.588,208.231,215.496,220.346,224.619,228.861,233.71,236.741,239.771,245.831,251.891,257.346,260.99,266.442,271.897,277.957,281.589,284.62,290.68,294.982,299.225,304.679,307.71,310.741,313.771,318.62,322.893,327.136,331.985,338.045,341.689,348.507,353.345,356.375,360.689,364.931,370.991,377.051,382.506,387.355,393.415,397.048,400.078,409.16799999999995,412.802,420.983,426.438,432.498,436.134,444.316,449.165,453.408,458.257" y="337.136" svg_rhmargin="461.288" style="fill:#000000;font-family:QISGBS+LMRoman10-Regular;font-size:10.91px;font-style:NORMAL;font-weight:normal;">Abbildung 4.3: Verteilung von installierten Leistungen im HöS-Netz.</text>
  <rect style="stroke:blue;stroke-width:0.3;" x="158.741" y="426.484" height="196.446" width="277.797" title="86"/>
  <text x="158.741" y="426.484" class="image" id="image.86.2" width="277" height="196">image.86.2.159_437.426_623</text>
  <text x="99.213,107.395,113.455,119.515,122.545,125.576,131.636,137.696,143.756,149.211,152.843,158.298,161.328,166.783,169.814,173.457,179.517,184.972,188.002,192.851,196.184,201.638,205.912,215.002,220.457,224.699,227.73,233.184,239.244,244.093,250.153,255.237,258.268,264.328,269.4,277.582,283.037,287.31,293.37,299.43,304.279,310.339,314.581,318.895,323.439,329.499,332.529,337.984,344.044,350.104,355.187,359.43,365.49,370.339,373.369,376.4,382.46,385.491,390.945,397.005,401.854,406.927,414.048,417.079,422.533,427.088,433.148,437.997,444.057,448.3,453.372,459.432,465.492,471.552,476.636,482.696,488.151,492.424" y="642.377" svg_rhmargin="496.06" style="fill:#000000;font-family:QISGBS+LMRoman10-Regular;font-size:10.91px;font-style:NORMAL;font-weight:normal;">Abbildung 4.4: Salzformationen in Norddeutschland (hellblaue Flächen) und dar-</text>
  <text x="173.454,179.514,185.879,190.729,195.002,198.032,201.063,205.912,211.366,216.215,222.275,228.335,233.184,236.501,244.683,255.89499999999998,259.211,263.454,268.909,273.182,278.636,284.696,290.151,295.0,298.316,306.498,309.529,314.378,318.651,323.5,328.044,333.496,338.345,342.588,345.915,351.369,354.4,358.703,362.019,368.079,372.928,378.988,384.746,390.806,396.26,400.533,405.382,408.699,417.184,421.457,425.7,430.549,433.865,437.198,443.258,447.531,450.847,456.907,462.673,466.915,471.764,476.038,479.068,483.341,489.401,492.432" y="655.9259999999999" svg_rhmargin="496.068" style="fill:#000000;font-family:QISGBS+LMRoman10-Regular;font-size:10.91px;font-style:NORMAL;font-weight:normal;">überliegende UW (orange Vierecke) als denkbare Orte für unterirdi-</text>
  <text x="173.454,177.757,182.3,188.36,193.209,196.853,207.149,212.603,216.906,221.209,226.058,230.331,234.633,238.876,244.33,250.694,254.996,261.362,266.211,269.241,273.785,279.845,284.694,288.96700000000004,292.611,301.701,304.732,308.975,312.607,320.789,326.849,331.152,335.695,341.755,344.786,350.846,355.148,359.451,363.094,368.549,374.609,378.242,384.302,389.756,394.05899999999997,397.692,403.762,408.005,412.267,417.722,426.812,432.883,437.721,441.964,446.813,450.457,453.487,458.942,464.396,467.427" y="669.475" svg_rhmargin="470.458" style="fill:#000000;font-family:QISGBS+LMRoman10-Regular;font-size:10.91px;font-style:NORMAL;font-weight:normal;">sche Wasserstoﬀspeicher mit Anschluss an das Stromnetz [66].</text>
  <text x="99.213,104.668" y="760.179" svg_rhmargin="110.123" style="fill:#4d4d4d;font-family:QISGBS+LMRoman10-Regular;font-size:10.91px;font-style:NORMAL;font-weight:normal;">62</text>
 </g>
</svg>
