<?xml version="1.0" encoding="UTF-8"?>
<svg height="770.179" width="507.7055374539285" xmlns="http://www.w3.org/2000/svg">
 <g style="fill:none;">
  <text x="343.396,348.851,354.305,365.517,368.548,372.851,377.153,382.002,388.062,392.365,396.908,402.968,408.423,411.756,415.998,419.029,422.059,426.614,432.674,437.52299999999997,441.156,448.432,453.27,457.543,465.127,469.976,474.25,478.492,484.552,490.612" y="29.30499999999995" svg_rhmargin="496.067" style="fill:#4d4d4d;font-family:QISGBS+LMRoman10-Regular;font-size:10.91px;font-style:NORMAL;font-weight:normal;">8 Wissenschaftliche Verwertung</text>
  <text x="99.213,105.88,111.94,116.213,120.26,128.593,133.442,142.533,147.988,154.048,158.35,162.593,166.866,172.32,176.563,179.593,185.048,191.108,195.166,201.226,206.075,210.34799999999998,214.396,222.274,225.305,229.578,233.82,238.123,242.677,248.737,254.192,257.525,261.767,264.798,267.828,272.372,278.432,283.281,289.341,293.388,300.665,305.514,309.787,317.36,322.209,326.482,330.725,336.785,342.845,348.299,352.602,361.692,367.147,372.602,375.632,378.663,383.206,389.266,394.729,399.579,402.598,406.841,411.69,417.75,421.808,429.687,435.747,440.02,446.08,450.929,454.976,461.047,466.502,470.805,474.851,481.824,487.574,493.028" y="66.06399999999996" svg_rhmargin="496.059" style="fill:#000000;font-family:QISGBS+LMRoman10-Regular;font-size:10.91px;font-style:NORMAL;font-weight:normal;">Zur Demonstration der wirtschaftlichen Verwertungsmöglichkeiten wurde das Tool</text>
  <text svg_rhmargin="134.832" x="99.213,104.231,111.197,115.241,120.816,129.256,134.832" y="82.49900000000002" style="fill:#000000;font-family:RSQXPN+LMRoman10-Italic;font-size:10.91px;font-style:italic;font-weight:normal;">eTraGo </text>
  <text x="137.824,140.855,146.915,149.62,154.469,157.5,163.56,168.409,177.499,180.205,188.387,194.141,201.714,206.563,212.623,218.683,224.743,230.803,236.258,240.56,243.904,249.359,252.389,255.42000000000002,258.114,262.963,265.994,272.054,277.508,282.358,286.66,291.509,295.752,300.601,304.843,307.874,310.59,318.924,321.954,326.803,331.106,335.955,340.228,342.934,350.812,356.872,361.145,367.205,372.054,374.749,379.598,385.658,389.971,395.426,404.516,413.607,418.445,424.505,427.211,436.301,439.332,443.575,446.28,452.34,457.189,461.46200000000005,464.167,472.349,480.074,488.634" y="82.49900000000002" svg_rhmargin="496.058" style="fill:#000000;font-family:QISGBS+LMRoman10-Regular;font-size:10.91px;font-style:NORMAL;font-weight:normal;">in einem Anwendungsfall eingesetzt. Dieser wurde zusammen mit der ARGE</text>
  <text x="99.213,107.395,112.244,116.486,121.33500000000001,124.074,131.497,137.557,142.406,146.68,152.134,155.165,160.01399999999998,162.752,171.312,180.108,186.168,194.35,197.088,205.57299999999998,208.312,216.19,221.645,224.67600000000002,227.424,235.604,244.16400000000002,246.913,251.763,257.517,261.454,269.333,272.363,276.907,282.359,287.208,290.239,294.48199999999997,297.231,303.291,309.351,315.411,318.149,324.514,329.363,334.818,339.091,345.456,350.305,353.336,357.579,362.428,366.67,369.701,372.439,380.772,383.803,388.652,391.401,398.825,403.098,408.552,413.402,419.462,425.522,428.552,432.855,437.157,442.006,444.744,450.804,453.835,458.684,462.957,467.806,473.866,476.604,480.907,483.938,489.998" y="98.93399999999997" svg_rhmargin="496.058" style="fill:#000000;font-family:QISGBS+LMRoman10-Regular;font-size:10.91px;font-style:NORMAL;font-weight:normal;">Netz Energie GmbH &amp; Co. KG entwickelt und bearbeitet. Die Ergebnisse hierzu sind</text>
  <text x="99.213,105.578,110.428,114.701,119.55,122.58,126.823,131.126,134.758,137.789,143.849,147.481,155.967,161.421,167.481,170.512,174.754,179.603,182.63400000000001,186.277,191.732,194.763,200.217,203.248,208.703,212.335,218.7,223.549,227.852,232.396,238.456,242.729,245.759,250.608,256.974,261.823,267.883" y="115.36900000000003" svg_rhmargin="270.914" style="fill:#000000;font-family:QISGBS+LMRoman10-Regular;font-size:10.91px;font-style:NORMAL;font-weight:normal;">bereits in Kapitel 5.4.5 beschrieben.</text>
  <text x="99.213,107.546,110.577,115.426,118.415,122.718,127.261,133.321,139.381,144.23,147.261,150.292,155.141,158.13,164.19,170.25,176.31,179.299,183.541,187.814,193.269,199.329,203.632,209.692,215.146,219.419,224.268,230.023,234.265,239.11399999999998,242.104,249.38,254.229,258.502,263.957,270.32,275.169,280.924,285.166,288.197,291.227,295.771,301.525,307.585,313.645,319.09999999999997,322.089,328.149,332.998,337.271,340.26,347.233,352.993,358.448,361.479,365.781,368.812,371.801,380.134,385.589,389.831,394.68,400.74,403.719,409.79,415.85,421.91,424.899,432.322,436.595,442.05,446.899,452.959,459.019,462.05,466.352,470.655,475.50399999999996,478.493,483.331,486.362,492.433" y="140.13" svg_rhmargin="496.069" style="fill:#000000;font-family:QISGBS+LMRoman10-Regular;font-size:10.91px;font-style:NORMAL;font-weight:normal;">Die schnelle und transparente Veröﬀentlichung der Tools, Daten und Ergebnisse ein-</text>
  <text x="99.213,105.273,110.122,114.395,119.85,124.699,130.759,135.608,141.668,147.728,151.306,160.397,163.427,167.67,171.259,177.319,182.168,191.258,194.837,202.26,208.32,213.775,219.229,224.684,229.533,238.624,243.473,249.227,253.47,257.059,260.089,266.149,269.728,275.788,280.637,286.697,290.286,296.346,302.1,306.343,311.192,315.465,319.768,324.311,330.371,333.402,338.251,344.311,347.341,350.372,354.916,360.976,365.825,371.885,375.474,383.656,388.505,392.747,397.596,405.169,410.019,414.292,419.744,424.593,430.653,434.242,439.695,445.149,451.209,456.964,461.206,466.055,469.644,473.947,478.491,484.551,490.005" y="156.56500000000005" svg_rhmargin="496.065" style="fill:#000000;font-family:QISGBS+LMRoman10-Regular;font-size:10.91px;font-style:NORMAL;font-weight:normal;">hergehend mit dem Engagement in den unterschiedlichen Netzwerken konnte schon</text>
  <text x="99.213,106.786,112.241,118.301,122.574,127.423,133.483,139.543,143.634,149.694,154.543,158.816,162.907,170.331,174.604,180.364,183.696,188.545,194.303,198.546,201.576,207.031,213.091,216.424,221.273,226.122,229.152,233.39499999999998,237.486,242.335,245.365,251.425,256.274,260.365,266.425,275.516,278.849,284.303,290.363,295.818,300.091,304.94,307.971,312.514,318.574,323.423,327.514,334.791,339.64,343.913,351.486,356.335,360.608,364.851,370.911,376.971,382.426,386.516,391.968,396.818,401.091,405.393,409.937,415.997,419.027,423.876,429.936,434.786,440.846,445.695,449.968,454.059,461.032,465.881,468.911,471.942,476.791,480.882,486.942,491.791" y="173.0" svg_rhmargin="496.064" style="fill:#000000;font-family:QISGBS+LMRoman10-Regular;font-size:10.91px;font-style:NORMAL;font-weight:normal;">während der Projektlaufzeit eine umfangreiche Verwertung verschiedener Teile der</text>
  <text x="99.213,104.789,109.808,114.826,120.959,129.068,134.086,142.525" y="189.43499999999995" svg_rhmargin="148.101" style="fill:#000000;font-family:RSQXPN+LMRoman10-Italic;font-size:10.91px;font-style:italic;font-weight:normal;">open_eGo</text>
  <text x="148.386,152.022,159.446,163.719,169.479,172.811,177.661,183.418,187.661,192.51,196.783,202.238,207.087,213.147,219.207,222.237,226.54,230.842,235.691,239.041,242.071,248.131,251.491,256.946,263.006,269.066,273.915,278.188,283.037,289.097,292.457,299.881,304.154,309.914,313.246,318.096,323.853,328.096,332.945,339.005,342.354,347.203,351.476,356.325,359.356,364.205,367.236,372.085,378.145,381.176,384.535,392.869,395.899,400.748,405.051,409.9,413.249,420.525,425.98,430.253,436.313,441.768,448.133,452.982,459.04200000000003,462.402,469.975,474.824,479.098,485.158,490.007" y="189.43499999999995" svg_rhmargin="496.067" style="fill:#000000;font-family:QISGBS+LMRoman10-Regular;font-size:10.91px;font-style:NORMAL;font-weight:normal;">-Projektergebnisse in anderen Projekten erzielen. Diese Vorhaben werden</text>
  <text x="99.213,102.244,108.304,111.936,120.421,125.876,131.936,134.966,139.209,144.058,147.089,150.732,156.187,159.217,164.67200000000003,168.305,174.063,180.123,184.396,189.24499999999998,192.877,198.33,203.784,208.057,213.512,218.361,222.664,226.906,231.755,234.786,237.816,242.059" y="205.87" svg_rhmargin="245.09" style="fill:#000000;font-family:QISGBS+LMRoman10-Regular;font-size:10.91px;font-style:NORMAL;font-weight:normal;">in Kapitel 8.4 kurz vorgestellt.</text>
  <text x="99.213,107.103,111.486,119.376,127.267,136.473,140.138,148.029,155.361,163.411,170.584,177.916,183.256,190.788,198.837,204.887,210.686,218.218,221.883,227.682,235.014,240.813,248.14499999999998,253.41,267.87,275.33,280.669,288.282,294.331,302.381,310.271,318.321,324.37100000000004,329.622,337.671,345.721,353.771,359.036,368.236,376.285,382.084,389.544,394.884,398.549,406.081,409.747" y="252.44799999999998" svg_rhmargin="415.797" style="fill:#000000;font-family:AJYLBH+LMSans10-Bold;font-size:14.35px;font-style:NORMAL;font-weight:BOLD;">8.1 Eigenveranstaltete Workshops und Tutorials</text>
  <text x="99.213,103.152,112.242,117.196,125.226,130.68,136.74,145.831,150.68,156.74,161.682,167.753,172.591,176.894,181.846,189.27,193.543,199.303,202.636,207.485,213.242,217.485,222.334,226.637,231.589,239.468,245.528,249.801,255.861,260.71,266.77,271.723,277.175,282.024,286.297,290.6,295.144,301.204,304.234,309.083,315.143,319.992,326.052,330.901,335.854,346.15,351.605,355.878,361.636,365.938,371.998,377.453,383.513,387.816,392.768,398.828,404.888,409.161,413.705,419.765,425.219,430.068,433.401,439.461,445.532,449.794,454.037,457.068,462.02,468.08,477.16999999999996,482.123,488.183,491.214" y="288.024" svg_rhmargin="496.063" style="fill:#000000;font-family:QISGBS+LMRoman10-Regular;font-size:10.91px;font-style:NORMAL;font-weight:normal;">Im Rahmen des Projektes wurden verschiedene Workshops durchgeführt, um die</text>
  <text x="99.213,106.186,110.459,115.914,121.974,126.276,132.336,137.791,142.064,146.913,152.973,157.822,162.044,165.377,171.437,175.71,179.932,184.234,189.383,197.262,200.292,205.141,209.363,219.364,222.394,226.637,230.939,236.999,241.272,246.727,251.271,257.331,262.18,266.401,272.461,278.521,282.795,287.338,293.398,297.631,303.985,309.44,313.683,318.532,324.592,329.441,332.471,337.32,340.351,343.382,348.231,352.452,360.634,366.694,370.937,375.786,380.635,384.908,389.13,393.979,400.039,404.261,409.715,414.564,422.138,427.592,433.652,437.925,440.956,445.805,448.835,453.138,457.381,462.23,468.29,471.321,475.553,483.886,486.917,491.755" y="304.459" svg_rhmargin="496.058" style="fill:#000000;font-family:QISGBS+LMRoman10-Regular;font-size:10.91px;font-style:NORMAL;font-weight:normal;">Transparenz für sowie Mitsprache durch potenzielle Nutzer zu gewährleisten. Dies</text>
  <text x="99.213,104.062,108.335,114.395,119.85,125.604,129.847,135.585,141.645,144.676,149.52499999999998,155.263,163.445,169.505,173.807,178.362,184.422,187.452,193.512,197.815,202.117,205.45,210.905,216.965,219.995,225.45,230.902,235.751,238.782,243.025,248.763,254.823,259.672,263.94500000000005,269.683,277.107,281.38,286.834,291.683,297.743,303.803,306.834,311.136,315.439,320.288,326.026,332.086,338.146,344.206,349.944,354.794,360.559,364.802,369.104,375.164,379.437,382.468,387.011,392.766,397.009,402.747,408.807,413.656,422.746,428.484,436.97,443.335,448.184,454.244,457.88,463.94,468.789,471.82,476.669,482.729,487.578,492.427" y="320.894" svg_rhmargin="496.063" style="fill:#000000;font-family:QISGBS+LMRoman10-Regular;font-size:10.91px;font-style:NORMAL;font-weight:normal;">erhöht die Anschlussfähigkeit der Ergebnisse und entspricht dem Open-Science-</text>
  <text x="99.213,107.395,113.455,117.757,123.212,127.454,132.304" y="337.329" svg_rhmargin="135.335" style="fill:#000000;font-family:QISGBS+LMRoman10-Regular;font-size:10.91px;font-style:NORMAL;font-weight:normal;">Ansatz.</text>
  <text svg_rhmargin="311.044" x="99.213,105.788,109.441,116.016,119.668,126.24300000000001,132.819,144.881,151.085,155.535,161.879,166.92,173.628,180.204,186.912,191.299,196.995,203.703,208.153,212.528,220.936,227.644,232.686,239.261,245.371,250.413,255.245,261.522,264.576,269.408,276.117,282.825,289.4,293.776,300.484,306.594,311.044" y="377.899" style="fill:#000000;font-family:AJYLBH+LMSans10-Bold;font-size:11.96px;font-style:NORMAL;font-weight:BOLD;">8.1.1 Workshop zur Ausgestaltung der </text>
  <text x="315.43,324.927,332.006,338.116,344.824,352.496,359.204,365.314,369.764,376.339,382.317,390.719,393.774,400.05,404.882,408.901,415.105,419.555" y="377.899" svg_rhmargin="429.917" style="fill:#000000;font-family:GZSITQ+LMSans10-BoldOblique;font-size:11.96px;font-style:NORMAL;font-weight:BOLD;">OpenEnergyPlatform</text>
  <text svg_rhmargin="207.076" x="99.213,105.88,111.94,116.213,120.358,128.234,134.294,138.597,144.052,148.901,153.203,157.446,162.9,165.931,170.173,176.233,182.293,187.74800000000002,191.893,197.953,202.803,207.076" y="409.717" style="fill:#000000;font-family:QISGBS+LMRoman10-Regular;font-size:10.91px;font-style:NORMAL;font-weight:normal;">Zur Ausgestaltung der </text>
  <text svg_rhmargin="234.377" x="211.213,219.577,226.977,234.377" y="409.717" style="fill:#000000;font-family:RSQXPN+LMRoman10-Italic;font-size:10.91px;font-style:italic;font-weight:normal;">OEP </text>
  <text x="239.381,242.714,248.168,254.228,260.288,265.137,271.197,275.343,280.192,287.765,292.614,295.645,299.79,310.086,315.541,319.814,325.572,329.874,335.934,341.389,347.449,351.752,355.897,360.199,364.442,369.896,374.139,378.381,381.412,385.557,390.407,396.467,405.55699999999996,409.692,414.541,417.571,423.631,428.48,434.54,438.686,444.14,453.22999999999996,457.376,462.831,468.285,471.31600000000003,475.461,481.521,486.371,492.431" y="409.717" svg_rhmargin="496.067" style="fill:#000000;font-family:QISGBS+LMRoman10-Regular;font-size:10.91px;font-style:NORMAL;font-weight:normal;">fanden zwei Workshops statt, zum einen am 10. Sep-</text>
  <text x="99.213,103.456,108.305,117.09,123.455,128.304,132.577,136.101,141.556,147.01,152.465,157.92000000000002,161.454,170.544,173.575,177.81799999999998,181.341,187.401,192.25,198.31,201.845,209.268,215.026,221.381,226.23,230.503,234.745,238.685,244.745,250.805,255.654,261.714,265.248,271.308,276.157,280.43,283.954,290.014,295.772,300.075,304.317,309.166,318.257,323.711,329.771,332.802,338.56,342.862,347.711,351.246,354.276,360.336,363.86,371.587,376.436,380.709,383.74,386.77,392.83,395.861,399.384,404.234,410.294,419.38399999999996,422.919,428.373,434.433,440.493,445.342,449.615,454.464,460.524,464.048,469.503,478.59299999999996,482.128,487.582,493.037" y="426.152" svg_rhmargin="496.068" style="fill:#000000;font-family:QISGBS+LMRoman10-Regular;font-size:10.91px;font-style:NORMAL;font-weight:normal;">tember 2015 mit den ExpertInnen der Systemanlyse in Berlin, zum anderen am 16.</text>
  <text svg_rhmargin="358.882" x="99.213,107.698,113.456,117.698,123.153,129.518,134.368,138.641,143.092,148.546,154.001,159.455,164.91000000000003,169.361,172.391,181.481,185.933,193.963,199.417,205.477,214.568,219.417,225.477,229.928,235.999,240.837,245.10999999999999,249.572,257.299,261.572,266.421,271.876,277.633,281.269,289.755,295.815,300.058,304.508,313.068,317.341,322.796,328.856,334.916,339.219,343.669,349.729,354.579,358.882" y="442.588" style="fill:#000000;font-family:QISGBS+LMRoman10-Regular;font-size:10.91px;font-style:NORMAL;font-weight:normal;">Oktober 2015 im Rahmen der Break-Out Groups des </text>
  <text svg_rhmargin="404.598" x="363.335,368.911,373.93,378.948,385.081,394.003,399.022,404.598" y="442.588" style="fill:#000000;font-family:RSQXPN+LMRoman10-Italic;font-size:10.91px;font-style:italic;font-weight:normal;">openmod </text>
  <text x="409.885,420.192,425.646,429.92,434.222,440.282,445.737,451.797,456.1,460.55,463.581,469.641,474.092,480.91,486.364,492.424" y="442.588" svg_rhmargin="496.06" style="fill:#000000;font-family:QISGBS+LMRoman10-Regular;font-size:10.91px;font-style:NORMAL;font-weight:normal;">Worshops in Lon-</text>
  <text svg_rhmargin="335.448" x="99.213,105.273,110.728,116.788,119.819,122.404,126.343,135.433,138.008,145.432,149.705,155.159,160.008,166.068,172.128,175.159,179.462,182.047,189.925,195.985,200.259,206.319,211.168,217.228,219.802,228.893,234.347,239.802,242.832,245.863,250.417,256.477,261.32599999999996,263.901,270.117,276.177,282.237,287.995,292.237,295.268,300.723,306.783,311.632,317.692,320.266,326.326,331.175,335.44800000000004" y="459.023" style="fill:#000000;font-family:QISGBS+LMRoman10-Regular;font-size:10.91px;font-style:NORMAL;font-weight:normal;">don. Im Ergebnis wurden mögliche Funktionen der </text>
  <text svg_rhmargin="361.192" x="338.028,346.392,353.792,361.19199999999995" y="459.023" style="fill:#000000;font-family:RSQXPN+LMRoman10-Italic;font-size:10.91px;font-style:italic;font-weight:normal;">OEP </text>
  <text x="364.633,372.512,375.542,380.39099999999996,382.966,389.331,394.18,397.211,401.513,407.573,410.604,415.453,418.484,422.786,430.359,435.208,438.239,442.541,447.39,449.976,458.461,463.916,466.946,471.795,477.855,483.915,488.764,493.037" y="459.023" svg_rhmargin="496.068" style="fill:#000000;font-family:QISGBS+LMRoman10-Regular;font-size:10.91px;font-style:NORMAL;font-weight:normal;">wie beispielsweise Kalender,</text>
  <text x="99.213,109.52,114.369,120.429,125.881,131.336,137.396,140.729,145.578,149.851,154.7,160.76,165.609,169.882,175.337,181.397,190.487,195.336,198.36700000000002,201.225,207.285,213.345,217.889,223.949,227.281,233.341,239.401,245.159,249.402,252.432,257.887,263.958,268.796,274.867,277.898,280.756,289.089,294.544,298.786,303.635,309.695,315.15,321.21,324.24,329.695,335.15,339.999,343.03000000000003,345.887,354.372,360.432,365.282,368.312,371.343,376.192,381.952,388.012,392.861,395.892,398.75,405.723,411.783,416.025,421.48,425.753,428.783,434.238,437.268,441.571,444.60200000000003,447.46,455.336,461.396,465.699,471.153,476.608,482.668,488.122,492.425" y="475.458" svg_rhmargin="496.061" style="fill:#000000;font-family:QISGBS+LMRoman10-Regular;font-size:10.91px;font-style:NORMAL;font-weight:normal;">Webkonferenzräume, Suchfunktionen, Datenablage, Quellcode, Tutorials, Ausgangs-</text>
  <text x="99.213,105.273,110.728,119.818,124.667,130.727,136.182,141.636,146.485,149.51600000000002,153.04,161.6,164.62,170.074,174.388,178.69,184.145,188.418,191.449,194.961,203.141,208.595,217.686,226.482,232.542,238.602,241.632,247.39,252.845,257.087,260.118,265.572,271.632,275.935,283.508,288.357,293.812,298.661,302.173,308.233,314.293,320.353,323.877,331.756,337.516,343.576,348.425,352.061,360.394,365.849,371.607,377.667,386.757,391.606,397.361,401.603,407.058,411.3,414.331,419.786,425.846,429.369,435.429,440.884,446.642,452.702,461.792,466.641,472.396,476.638,479.669,484.518,488.791,493.034" y="491.893" svg_rhmargin="496.065" style="fill:#000000;font-family:QISGBS+LMRoman10-Regular;font-size:10.91px;font-style:NORMAL;font-weight:normal;">homepage, Glossar, Kommunikationswege und Code-Dokumentation dokumentiert.</text>
  <text x="99.213,106.105,112.165,116.438,120.049,126.109,129.14,133.98899999999998,137.6,143.054,147.904,153.964,159.418,165.478,171.233,175.475,180.324,186.38400000000001,189.995,196.2,202.26,208.32,214.078,218.321,221.351,226.806,232.866,237.715,243.775,247.386,255.264,261.324,265.597,271.657,276.507,282.567,286.177,292.543,297.392,301.695,305.937,310.786,316.846,321.695,327.755,333.815,338.664,342.275,349.393,354.848,359.121,363.364,368.818,371.849,376.698,380.298,385.752,390.602,394.904,400.359,409.449,418.54,423.389,426.419,430.662,434.273,440.333,446.393,452.453,456.064,460.913,466.973,471.822,474.852,480.912,486.367,492.427" y="508.328" svg_rhmargin="496.063" style="fill:#000000;font-family:QISGBS+LMRoman10-Regular;font-size:10.91px;font-style:NORMAL;font-weight:normal;">Für die genannten Funktionen wurden bestehende Portale gesammelt und zueinan-</text>
  <text x="99.213,105.273,110.122,114.395,118.028,121.058,127.11800000000001,130.762,138.489,143.338,148.187,154.247,159.70200000000003,163.335,168.789,173.638,177.941,182.79,187.032,191.881,196.124" y="524.7629999999999" svg_rhmargin="199.155" style="fill:#000000;font-family:QISGBS+LMRoman10-Regular;font-size:10.91px;font-style:NORMAL;font-weight:normal;">der in Bezug gesetzt.</text>
  <text x="99.213,105.788,109.441,116.016,119.668,126.24300000000001,132.819,144.881,151.085,155.535,161.879,166.92,173.628,180.204,186.912,191.953,196.341,202.036,208.744,213.194,217.57,225.248,229.698,235.975,242.683,247.724,254.432,260.338,264.788,270.898,277.606,283.301,287.689,294.397,301.105,307.81300000000005,312.189,320.591,326.701,333.051,337.501,344.435,351.143,357.851,363.546,366.601,372.711,377.161,383.869,389.787,394.236,400.209,406.32,409.374" y="565.333" svg_rhmargin="414.206" style="fill:#000000;font-family:AJYLBH+LMSans10-Bold;font-size:11.96px;font-style:NORMAL;font-weight:BOLD;">8.1.2 Workshops zur Transparenz und Reproduzierbarkeit</text>
  <text svg_rhmargin="226.157" x="99.213,110.208,115.881,119.941,125.73,130.33,136.451,142.451,148.572,152.982,158.557,161.345,164.132,169.39,177.39,182.648,185.446,191.567,196.825,204.825,210.401,214.461,217.248,220.036,226.157" y="597.1510000000001" style="fill:#000000;font-family:AJYLBH+LMSans10-Bold;font-size:10.91px;font-style:NORMAL;font-weight:BOLD;">Workshopteil A in Berlin </text>
  <text x="237.064,243.731,249.791,254.58,260.64,265.489,274.57899999999995,279.357,289.664,295.119,299.392,305.15,309.452,315.512,320.967,327.027,331.805,337.26,346.34999999999997,351.139,356.594,362.048,365.079,369.868,378.05,383.199,388.651,393.501,402.286,408.651,413.5,417.773,422.562,428.017,433.471,438.926,444.381,449.159,454.917,460.371,469.462,474.311,480.371,485.16,490.614" y="597.1510000000001" svg_rhmargin="496.069" style="fill:#000000;font-family:QISGBS+LMRoman10-Regular;font-size:10.91px;font-style:NORMAL;font-weight:normal;">Zu dem Workshop am 19. November 2015 kamen 17</text>
  <text x="99.213,106.637,112.394,118.76,123.609,127.882,132.125,136.064,142.124,148.184,153.033,159.093,162.148,167.602,173.662,177.965,181.019,186.483,191.332,195.594,199.907,204.451,210.511,213.541,218.391,224.451,229.3,235.36,240.209,246.269,249.323,257.05,261.899,266.172,271.021,274.052,278.596,284.656,289.505,295.565,298.619,304.679,309.528,313.80100000000004,316.856,322.916,328.674,332.976,337.219,342.068,351.159,356.613,362.673,368.128,371.158,376.916,381.219,386.068,389.133,393.982,400.042,404.345,409.799,418.89,427.98,432.829,438.889,441.92,444.975,452.398,455.429,461.489,466.338,472.398,475.452,480.907,486.362,492.432" y="613.586" svg_rhmargin="496.068" style="fill:#000000;font-family:QISGBS+LMRoman10-Regular;font-size:10.91px;font-style:NORMAL;font-weight:normal;">ExpertInnen aus verschiedenen Bereichen der Systemanalyse zusammen. Einen gan-</text>
  <text x="99.213,104.062,108.911,114.971,119.073,126.046,131.501,136.95600000000002,141.057,144.088,149.542,155.602,161.05700000000002,165.169,173.048,179.108,183.381,189.441,194.29,198.392,203.847,209.907,214.019,220.079,224.928,229.201,233.303,241.333,246.183,252.243,256.516,262.276,268.336,274.396,279.245,282.275,287.124,291.397,297.457,302.912,307.185,312.637,317.487,320.517,324.76,328.861,334.921,339.771,344.04400000000004,348.156,355.58,359.853,365.308,370.157,376.217,382.277,385.307,389.61,393.912,398.76099999999997,402.863,408.316,413.77,419.83,423.943,431.367,437.427,442.276,446.549,452.003,455.034,459.883,464.186,469.943,474.246,478.488,483.338,492.428" y="630.021" svg_rhmargin="496.064" style="fill:#000000;font-family:QISGBS+LMRoman10-Regular;font-size:10.91px;font-style:NORMAL;font-weight:normal;">zen Tag lang wurde an der Reproduzierbarkeit der Ergebnisse von Energiesystem-</text>
  <text x="99.213,103.516,106.546,115.331,121.391,124.422,129.876,134.119,137.149,142.604,148.664,153.513,159.573,164.002,170.062,176.122,182.18200000000002,186.611,192.671,197.52,201.793,206.222,214.404,223.495,227.797,232.646,236.889,241.738,247.798,253.858,259.313,263.742,269.196,275.256,279.499,284.348,288.62100000000004,293.05,300.929,303.959,308.262,312.564,317.413,323.473,327.776,332.32,338.38,343.834,347.167,351.41,354.44,357.471,362.014,368.074,372.923,377.196,381.626,389.049,393.322,398.777,404.535,407.565,411.868,416.297,421.751,426.601,432.055,436.328,442.694,447.543,450.573,454.816,459.665,463.907,466.938,471.367,479.701,485.155,490.004" y="646.457" svg_rhmargin="496.064" style="fill:#000000;font-family:QISGBS+LMRoman10-Regular;font-size:10.91px;font-style:NORMAL;font-weight:normal;">simulationen und der Umsetzung guter wissenschaftlicher Praxis gearbeitet. Dazu</text>
  <text x="99.213,105.273,108.304,113.153,118.907,123.15,127.999,134.059,137.408,144.684,150.139,154.412,158.655,162.928,168.382,173.837,178.68599999999998,182.035,188.095,192.944,197.24699999999999,200.596,208.019,212.292,218.041,221.385,226.223,231.981,236.224,240.466,244.739,250.194,255.648,260.497,264.771,269.074,272.422,278.028,284.088,287.119,290.15,294.704,300.764,304.113,308.356,315.779,320.022,325.628,329.871,332.902,336.25,342.31,347.159,351.462,354.811,363.296,368.751,373.013,376.043,380.346,384.619,390.69,396.75,401.599,405.872,409.21,413.15,419.21,423.523,427.766,430.796,435.039,441.099,445.341,449.644,452.993,456.326,462.386,466.65900000000005,470.008,476.97,481.819,486.363,492.423" y="662.892" svg_rhmargin="496.059" style="fill:#000000;font-family:QISGBS+LMRoman10-Regular;font-size:10.91px;font-style:NORMAL;font-weight:normal;">dienten Vorträge des Projektträgers Jülich (PtJ), des Karlsruher Instituts für Tech-</text>
  <text x="99.213,105.273,110.728,113.758,119.213,124.667,127.698,132.547,137.096,143.156,149.216,155.276,159.836,165.896,170.745,175.048,179.597,189.904,195.964,202.024,208.389,213.238,217.511,221.754,227.208,230.239,234.788,238.727,244.787,249.09,253.332,256.363,260.605,266.665,270.908,275.211,279.771,283.103,289.163,293.43600000000004,297.985,306.471,309.501,312.532,321.622,327.077,330.108,334.667,342.849,351.634,359.207,364.056,367.087,371.329,374.36,378.92,386.344,392.404,397.253,401.526,406.98,410.011,414.86,419.409,423.712,428.861,436.739,439.77,444.61899999999997,449.179,455.239,460.088,464.391,468.94,477.273,482.122,488.182,492.425" y="679.327" svg_rhmargin="496.061" style="fill:#000000;font-family:QISGBS+LMRoman10-Regular;font-size:10.91px;font-style:NORMAL;font-weight:normal;">nologie und des Wuppertal Instituts für Klima, Umwelt, Energie sowie des Deut-</text>
  <text x="99.213,103.516,108.059,114.119,118.968,125.028,130.297,136.964,141.813,147.579,151.821,156.094,162.154,171.245,175.548,180.816,184.149,190.209,194.482,199.751,206.569,212.629,215.962,220.205,223.841,229.11,235.17,241.23,247.29,252.559,260.589,266.044,272.104,281.194,284.527,289.981,296.041,300.315,304.557,307.588,312.868,320.441,325.29,328.32,332.864,338.924,343.77299999999997,349.042,354.497,357.527,361.83,367.099,371.038,377.098,383.158,389.218,393.461,398.73,402.063,408.134,412.40700000000004,417.676,423.736,426.766,431.615,436.884,442.337,447.791,453.851,458.154,462.397,466.67,472.73,478.487,482.73,485.761,491.213" y="695.762" svg_rhmargin="496.062" style="fill:#000000;font-family:QISGBS+LMRoman10-Regular;font-size:10.91px;font-style:NORMAL;font-weight:normal;">schen Zentrums für Luft- und Raumfahrt, welche als Input für die konstruktive</text>
  <text x="99.213,107.395,111.668,118.033,122.882,125.913,130.156,135.414,140.868,146.928,152.197,158.257,163.106,169.166,174.425,178.727,184.798,190.253,194.495,199.333,203.607,208.456,214.516,219.785,229.785,235.545,241.605,246.454,249.485,253.121,259.326,264.78,269.629,273.872,278.175,284.235,289.084,293.933,298.175,302.478,307.747,313.201,318.051,323.805,329.865,334.108,338.957,343.2,348.468,356.347,362.407,366.68,372.74,377.589,383.649,386.68,391.949,399.225,404.074,408.347,413.802,420.165,425.014,430.769,435.011,438.042,441.072,445.616,451.371,455.614,460.882,468.761,474.821,479.094,485.154,490.003" y="712.197" svg_rhmargin="496.063" style="fill:#000000;font-family:QISGBS+LMRoman10-Regular;font-size:10.91px;font-style:NORMAL;font-weight:normal;">Arbeit an den späteren Model-Factsheets genutzt wurden. Veröﬀentlicht wurden</text>
  <text x="99.213,104.668,110.122" y="760.179" svg_rhmargin="115.577" style="fill:#4d4d4d;font-family:QISGBS+LMRoman10-Regular;font-size:10.91px;font-style:NORMAL;font-weight:normal;">178</text>
 </g>
</svg>
