<?xml version="1.0" encoding="UTF-8"?>
<svg height="770.179" width="506.248339466988" xmlns="http://www.w3.org/2000/svg">
 <g style="fill:none;">
  <text x="99.213,104.668,107.698,113.15299999999999,118.607,126.789,131.638,135.881,140.73,146.79,152.244,156.487,161.336,167.396,176.486,182.246,188.306,193.156,196.186,199.217,202.849,208.909,213.758,218.031,221.664,229.846,235.301,241.361,244.99699999999999,248.64,254.7,260.76,266.82,270.453,278.635,284.695,288.331,295.755,302.12,306.969,313.029" y="29.30499999999995" svg_rhmargin="317.878" style="fill:#4d4d4d;font-family:QISGBS+LMRoman10-Regular;font-size:10.91px;font-style:NORMAL;font-weight:normal;">4.1 Netzdatenmodell der HöS- und HS-Ebene</text>
  <text x="164.143,172.37,178.468,183.634,189.732,200.187,205.937,210.815,216.566,221.733,340.085,349.569,356.539,362.115,368.213,375.183" y="64.44200000000001" svg_rhmargin="378.667" style="fill:#000000;font-family:WWLKHN+LMRoman10-Bold;font-size:10.91px;font-style:NORMAL;font-weight:BOLD;">Parameter Anzahl</text>
  <text x="164.143,172.628,178.688,184.143,188.385,193.234,199.294,403.862,409.316,414.771,420.225,425.68" y="78.38999999999999" svg_rhmargin="431.135" style="fill:#000000;font-family:QISGBS+LMRoman10-Regular;font-size:10.91px;font-style:NORMAL;font-weight:normal;">Knoten 11305</text>
  <text x="164.143,169.719,175.294,180.312,185.888,192.02100000000002,287.629,293.204,297.665,306.586,314.392,322.831,331.753,336.772,342.348,355.133,360.709,365.728,370.746,376.879,384.988,390.006,398.445,404.021,407.926,414.06,416.847,420.471,425.489" y="91.93899999999996" svg_rhmargin="430.089" style="fill:#000000;font-family:RSQXPN+LMRoman10-Italic;font-size:10.91px;font-style:italic;font-weight:normal;">davon osmTGmod open_eGo ﬁlter</text>
  <text x="196.126,204.308,209.157,213.399,218.249,224.006,230.066,235.521,239.763,244.613,250.673,321.364,326.818,332.273,337.727,343.18199999999996,409.313,414.767,420.222,425.676" y="105.48800000000006" svg_rhmargin="431.131" style="fill:#000000;font-family:QISGBS+LMRoman10-Regular;font-size:10.91px;font-style:NORMAL;font-weight:normal;">Netzknoten 4538 4197</text>
  <text x="196.126,206.126,212.186,218.55,223.399,229.459,321.357,326.812,332.266,337.721,343.176,409.317,414.772,420.226,425.681" y="119.03800000000001" svg_rhmargin="431.136" style="fill:#000000;font-family:QISGBS+LMRoman10-Regular;font-size:10.91px;font-style:NORMAL;font-weight:normal;">Muﬀen 6756 7108</text>
  <text x="164.143,171.87,176.719,180.962,185.235,188.265,193.114,199.174,203.477,212.567,215.598,219.84,224.083,228.932,231.963,403.857,409.312,414.766,420.221,425.676" y="132.985" svg_rhmargin="431.131" style="fill:#000000;font-family:QISGBS+LMRoman10-Regular;font-size:10.91px;font-style:NORMAL;font-weight:normal;">Betriebsmittel 19695</text>
  <text svg_rhmargin="192.021" x="164.143,169.719,175.294,180.312,185.888,192.02100000000002" y="160.08399999999995" style="fill:#000000;font-family:RSQXPN+LMRoman10-Italic;font-size:10.91px;font-style:italic;font-weight:normal;">davon </text>
  <text x="196.126,202.342,206.615,211.464,214.495,217.525,222.363,225.394,229.637,235.707,241.767,247.222,252.071,258.131,403.855,409.309,414.764,420.219,425.673" y="160.08399999999995" svg_rhmargin="431.128" style="fill:#000000;font-family:QISGBS+LMRoman10-Regular;font-size:10.91px;font-style:NORMAL;font-weight:normal;">Freileitungen 18296</text>
  <text x="196.126,204.611,210.066,216.431,221.28,224.311,414.773,420.227,425.682" y="173.63300000000004" svg_rhmargin="431.137" style="fill:#000000;font-family:QISGBS+LMRoman10-Regular;font-size:10.91px;font-style:NORMAL;font-weight:normal;">Kabel 871</text>
  <text x="196.126,203.099,207.372,212.827,218.887,223.189,226.522,231.977,236.25,245.34,250.795,255.037,260.492,264.765,269.614,275.674,414.765,420.22,425.674" y="187.18200000000002" svg_rhmargin="431.129" style="fill:#000000;font-family:QISGBS+LMRoman10-Regular;font-size:10.91px;font-style:NORMAL;font-weight:normal;">Transformatoren 526</text>
  <text x="164.143,172.476,180.355,183.991,190.809,195.658,198.689,202.931,208.991,215.051,220.506,225.355,231.415,425.673" y="200.731" svg_rhmargin="431.128" style="fill:#000000;font-family:QISGBS+LMRoman10-Regular;font-size:10.91px;font-style:NORMAL;font-weight:normal;">DC-Leitungen 2</text>
  <text x="99.213,106.186,111.641,117.995,122.844,125.875,128.905,133.754,137.398,142.853,145.883,151.338,154.369,158.001,166.183,172.548,177.397,181.671,187.73,190.761,193.792,198.335,204.09300000000002,209.297,215.357,221.722,226.571,230.844,236.059,242.119,247.573,251.876,257.08,261.353,266.202,270.504,276.564,279.595,283.837,286.868,291.717,295.99,300.839,306.899,312.959,317.808,323.012,331.194,336.043,340.285,345.135,354.225,359.985,366.045,370.894,373.925,376.956,382.17,388.23,393.079,397.35200000000003,402.556,410.738,416.498,421.041,427.101,431.404,435.646,439.28200000000004,444.497,450.557,456.617,462.677,467.88,476.062,481.822,486.366,492.426" y="215.67499999999995" svg_rhmargin="496.062" style="fill:#000000;font-family:QISGBS+LMRoman10-Regular;font-size:10.91px;font-style:NORMAL;font-weight:normal;">Tabelle 4.2: Überblick über das resultierende Netzmodell der Höchst- und Hoch-</text>
  <text x="158.0,162.303,168.363,173.817,179.877,185.632,191.692,197.763,203.217,207.52,212.369,218.723,223.572,229.632,234.481,237.972,242.215,248.275,253.729,258.032,261.063,265.912,270.185,275.034,281.094,287.154,290.645,296.099,302.159,305.492,308.983,312.013,317.468,320.499,323.989,333.08,336.111,340.354,343.833,349.288,355.046,359.288,365.348,370.803,373.833,376.864,381.166,384.197,389.046,393.319,397.562,402.411,408.471,411.962,422.268,427.118,431.391,435.633,440.482,446.54200000000003,450.033,456.093,460.942,465.21500000000003,468.695,475.972,480.821,485.094,489.397,492.427" y="229.22400000000005" svg_rhmargin="496.063" style="fill:#000000;font-family:QISGBS+LMRoman10-Regular;font-size:10.91px;font-style:NORMAL;font-weight:normal;">spannungsebene (basierend auf [2] mit aktualisierten Werten der Versi-</text>
  <text x="158.0,163.455,169.51500000000001,173.147,178.905,184.36,187.39,192.845,195.875,201.33,205.572" y="242.774" svg_rhmargin="208.603" style="fill:#000000;font-family:QISGBS+LMRoman10-Regular;font-size:10.91px;font-style:NORMAL;font-weight:normal;">on v0.4.5).</text>
  <text x="99.213,103.152,109.212,115.272,120.121,124.394,130.454,135.909,138.94,145.0,148.534,154.594,159.443,163.746,167.28,174.704,178.977,184.737,188.07,192.919,198.677,202.919,207.222,210.756,218.329,223.179,227.452,233.512,238.361,244.421,247.966,254.026,259.781,264.023,268.872,273.14500000000004,276.68,282.135,288.195,294.255,299.104,303.377,308.226,317.316,320.851,328.729,331.76,336.063,340.365,345.214,351.274,355.577,360.12,366.18,371.635,374.968,379.21,382.241,385.271,389.815,395.886,400.735,404.27,410.475,414.748,420.202,425.657,430.506,436.566,440.1,444.95,451.01,460.09999999999997,463.635,468.484,474.544,480.302,486.362,492.432" y="289.646" svg_rhmargin="496.068" style="fill:#000000;font-family:QISGBS+LMRoman10-Regular;font-size:10.91px;font-style:NORMAL;font-weight:normal;">Innerhalb des Projekts werden unter anderem wissenschaftliche Fragen zum zukün-</text>
  <text x="99.213,105.273,110.728,114.97,119.819,125.879,130.865,139.046,143.896,148.138,152.987,158.442,164.502,168.804,174.875,180.33,186.39000000000001,191.375,196.83,202.89,206.22299999999998,211.219,217.279,222.128,226.40099999999998,231.386,239.568,245.023,251.083,254.719,259.704,265.775,271.835,277.895,282.881,291.063,297.122,300.759,308.182,314.548,319.397,325.457,330.306,335.291,340.746,346.806,351.079,355.928,360.231,364.533,367.564,372.413,376.686,380.928,383.959,388.966,397.148,400.179,405.017,409.29,414.139,420.199,425.195,429.498,432.528,438.588,444.648,449.634,454.483,460.543,464.856,470.311,474.554,479.392,482.422,485.453,490.007" y="306.081" svg_rhmargin="496.067" style="fill:#000000;font-family:QISGBS+LMRoman10-Regular;font-size:10.91px;font-style:NORMAL;font-weight:normal;">ﬁgten Netzausbau auf der HöS- und HS-Ebene adressiert. Hierzu sind zusätzlich</text>
  <text svg_rhmargin="174.873" x="99.213,104.062,110.122,119.212,123.325,129.385,134.234,138.508,143.357,148.206,151.236,155.479,158.509,163.964,168.813,174.873" y="322.516" style="fill:#000000;font-family:QISGBS+LMRoman10-Regular;font-size:10.91px;font-style:NORMAL;font-weight:normal;">zum derzeitigen </text>
  <text x="178.984,185.117,188.741,194.317,197.941,203.796,208.257,212.598,220.962,226.817" y="322.516" svg_rhmargin="232.393" style="fill:#000000;font-family:RSQXPN+LMRoman10-Italic;font-size:10.91px;font-style:italic;font-weight:normal;">Status Quo</text>
  <text x="232.679,236.315,242.375,247.224,252.073,258.133,263.588,267.861,270.891,276.346,280.459,288.641,294.701,300.761,306.215,312.275,321.366,326.215,332.275,336.387,339.72,345.78,350.053,354.166,359.015,366.588,371.437,374.468,378.581,385.247,391.318,397.076,403.136,409.196,412.529,416.771,421.074,425.376,430.225,435.074,441.134,446.589,450.862,453.893,458.742,464.802,468.914" y="322.516" svg_rhmargin="473.157" style="fill:#000000;font-family:QISGBS+LMRoman10-Regular;font-size:10.91px;font-style:NORMAL;font-weight:normal;">-Szenario Annahmen für zwei Zukunftsszenarien (</text>
  <text x="473.153,481.262,488.661" y="322.516" svg_rhmargin="496.061" style="fill:#000000;font-family:RSQXPN+LMRoman10-Italic;font-size:10.91px;font-style:italic;font-weight:normal;">NEP</text>
  <text x="99.213,104.789,110.364,115.94" y="338.951" svg_rhmargin="121.516" style="fill:#000000;font-family:RSQXPN+LMRoman10-Italic;font-size:10.91px;font-style:italic;font-weight:normal;">2035</text>
  <text svg_rhmargin="124.546" x="121.515,124.546" y="338.951" style="fill:#000000;font-family:QISGBS+LMRoman10-Regular;font-size:10.91px;font-style:NORMAL;font-weight:normal;">, </text>
  <text svg_rhmargin="163.464" x="127.704,132.722,141.161,146.737,152.313,157.888,163.464" y="338.951" style="fill:#000000;font-family:RSQXPN+LMRoman10-Italic;font-size:10.91px;font-style:italic;font-weight:normal;">eGo100 </text>
  <text x="164.939,169.182,172.345,177.8,182.638,186.88,191.154,196.608,202.971,207.821,213.881,217.044,224.617,230.072,234.345,240.405,245.254,251.314,254.345,257.508,265.842,271.29699999999997,274.449,280.509,285.358,289.63100000000003,292.795,300.977,305.826,310.068,314.917,320.372,326.432,330.734,336.794,342.249,348.309,351.473,356.311,362.382,368.442,373.896,379.351,384.2,390.26,395.109,399.382,402.535,410.262,415.111,419.413,423.656,429.111,435.171,441.23,445.473,450.322,453.353,456.384,459.547,465.607,470.456,474.72900000000004,477.882,486.367,492.427" y="338.951" svg_rhmargin="496.063" style="fill:#000000;font-family:QISGBS+LMRoman10-Regular;font-size:10.91px;font-style:NORMAL;font-weight:normal;">) getroﬀen worden. Da der Netzausbau endogener Bestandteil der Op-</text>
  <text x="99.213,103.456,106.486,115.577,118.607,123.456,127.729,133.789,139.849,145.304,148.708,151.738,156.041,160.284,163.687,169.747,175.807,181.867,185.281,191.341,200.431,203.836,208.685,211.715,217.775,222.624,226.028,232.088,237.543,243.603,248.452,251.855,259.132,263.981,268.254,273.708,276.739,281.577,284.608,289.162,294.917,300.977,306.431,310.704,316.157,321.006,324.036,328.279,331.683,337.743,342.592,346.865,350.268,355.732,360.57,364.843,369.156,373.7,379.76,382.791,387.64,393.7,398.549,404.609,409.458,415.51800000000003,418.921,424.981,429.831,434.68,440.74,446.194,450.467,453.498,458.347,464.407,467.811,472.66,478.72,482.123,487.578,492.427" y="355.387" svg_rhmargin="496.063" style="fill:#000000;font-family:QISGBS+LMRoman10-Regular;font-size:10.91px;font-style:NORMAL;font-weight:normal;">timierung ist und um eine hohe Vergleichbarkeit der verschiedenen Szenarien zu ge-</text>
  <text x="99.213,106.786,112.241,118.301,122.574,125.604,130.453,133.484,137.787,142.029,146.878,152.938,155.969,159.241,167.12,170.151,174.424,180.484,183.756,189.816,192.847,197.696,200.958,209.14,213.989,218.231,223.08,227.383,231.626,235.899,241.959,247.716,251.959,258.019,262.29200000000003,265.565,268.898,274.958,279.23100000000005,282.503,288.563,291.594,296.443,299.705,306.371,312.431,318.189,324.249,330.32,333.653,337.895,342.198,346.5,351.35,356.199,362.259,367.713,371.986,375.017,379.866,385.926,389.188,395.248,398.278,402.822,408.587,412.83,416.092,420.941,426.699,432.153,437.608,442.457,448.517,451.79,457.244,462.093,467.548,473.608,479.668,484.517,488.79,493.033" y="371.822" svg_rhmargin="496.064" style="fill:#000000;font-family:QISGBS+LMRoman10-Regular;font-size:10.91px;font-style:NORMAL;font-weight:normal;">währleisten, wird die Netzstruktur für die Zukunftsszenarien nicht exogen geändert.</text>
  <text x="99.213,107.546,112.396,116.669,121.545,127.0,131.273,137.333,143.393,149.453,152.483,157.332,162.787,167.636,173.696,179.756,184.605,189.481,197.663,203.418,207.66,212.509,216.783,221.085,225.629,231.689,234.719,239.568,245.62800000000001,250.505,253.535,256.566,261.415,266.869,271.112,275.988,279.019,285.079,289.955,296.015,300.864,306.924,311.801,319.224,323.498,328.347,333.196,339.256,344.71,350.77,356.83,362.285,366.587,372.647,378.102,382.344,387.194,393.254,398.13,404.19,410.25,416.31,421.186,427.246,432.095,438.15500000000003,443.032,447.881,453.635,457.878,463.938,469.393,478.483,487.574,492.423" y="388.257" svg_rhmargin="496.059" style="fill:#000000;font-family:QISGBS+LMRoman10-Regular;font-size:10.91px;font-style:NORMAL;font-weight:normal;">Der grundlegende Unterschied liegt in den Erzeugungsdaten und den entnomme-</text>
  <text x="99.213,105.273,110.122,116.182,120.579,126.031,131.485,137.251,142.703,147.552,153.307,157.549,160.58,166.035,172.095,176.944,179.974,183.005,187.854,193.91400000000002,198.31,205.734,211.794,216.643,220.916,226.371,229.401,234.25,240.008,246.068,250.917,253.948,256.978,261.827,267.887,270.918,275.325,283.507,292.597,296.994,303.054,307.903,313.963,320.023,325.783,330.327,336.387,340.783,346.843,351.387,357.447,360.477,366.537,370.84,375.142,378.475,383.93,386.96,392.415,397.264,401.537,407.597,413.657,419.111,423.96,430.02,434.428,439.277,445.337,454.42699999999996,458.824,466.247,469.278,475.338,481.398,487.458,491.76" y="404.692" svg_rhmargin="496.063" style="fill:#000000;font-family:QISGBS+LMRoman10-Regular;font-size:10.91px;font-style:NORMAL;font-weight:normal;">nen konventionellen Energiequellen. Um dennoch Schlussfolgerungen zum Einﬂuss</text>
  <text x="99.213,104.665,110.12,116.18,120.293,125.747,130.596,136.656,139.687,145.141,150.907,155.149,159.999,166.059,170.171,174.414,180.474,186.534,192.594,196.707,200.949,205.798,208.829,211.859,219.432,224.281,227.312,231.615,236.464,240.576,246.942,251.791,256.064,260.913,263.944,268.186,272.489,276.602,282.661,291.752,297.207,302.056,306.358,311.207,315.45,320.299,324.542,329.391,335.451,339.694,343.806,349.866,354.715,360.775,365.624,371.684,375.808,381.868,386.11,390.383,395.838,404.623,408.866,413.139,418.593,422.896,427.198,432.047,438.107,442.22,447.069,453.129,457.242,462.091,466.364,475.455,480.909,486.364,489.394,492.425" y="421.127" svg_rhmargin="496.061" style="fill:#000000;font-family:QISGBS+LMRoman10-Regular;font-size:10.91px;font-style:NORMAL;font-weight:normal;">von geplanten (und teilweise bereits umgesetzten) neuen Stromtrassen zu ermögli-</text>
  <text x="99.213,103.757,109.817,114.666,120.726,123.757,127.149,132.601,138.056,144.116,150.176,155.025,161.085,164.478,170.538,173.568,178.417,182.72,187.569,190.951,196.405,202.465,206.708,209.739,215.193,221.253,226.708,229.739,233.131,238.585,241.616,245.919,249.3,256.884,261.733,264.764,269.007,273.845,278.118,282.967,287.27,290.662,296.722,301.571,306.42,312.48,317.935,322.208,325.239,330.69399999999996,334.086,339.54,345.6,349.903,355.358,360.207,367.78,373.234,379.294,382.325,386.568,389.949,397.533,402.382,406.655,412.715,417.564,423.624,426.65500000000003,430.037,438.37,443.825,447.158,453.218,457.49100000000004,460.883,468.762,474.822,479.095,485.155,490.004" y="437.562" svg_rhmargin="496.064" style="fill:#000000;font-family:QISGBS+LMRoman10-Regular;font-size:10.91px;font-style:NORMAL;font-weight:normal;">chen, können diese optional als weiteres Szenario ausgewählt werden. Dafür wurden</text>
  <text svg_rhmargin="280.071" x="99.213,104.062,111.635,116.484,119.515,122.362,128.422,133.271,138.12,144.18,149.635,153.908,156.939,161.788,167.848,170.695,175.544,181.309,185.247,193.125,196.156,200.699,206.152,211.001,214.031,218.274,221.305,224.163,228.102,237.192,240.04,246.1,250.949,255.798,261.858,267.312,271.586,274.616,280.07099999999997" y="453.997" style="fill:#000000;font-family:QISGBS+LMRoman10-Regular;font-size:10.91px;font-style:NORMAL;font-weight:normal;">zwei Szenarien entwickelt. Im Szenario </text>
  <text svg_rhmargin="375.923" x="282.921,289.054,294.072,299.648,305.224,310.799,316.375,321.951,330.059,334.521,340.097,346.23,352.363,356.963,365.885,370.347,375.923" y="453.997" style="fill:#000000;font-family:RSQXPN+LMRoman10-Italic;font-size:10.91px;font-style:italic;font-weight:normal;">nep2035_conﬁrmed </text>
  <text x="379.606,383.909,386.939,392.999,399.059,401.906,407.361,410.392,413.422,418.271,421.118,429.006,435.066,439.368,445.428,450.883,456.943,463.003,467.276,473.036,476.369,481.218,486.976,491.218" y="453.997" svg_rhmargin="496.067" style="fill:#000000;font-family:QISGBS+LMRoman10-Regular;font-size:10.91px;font-style:NORMAL;font-weight:normal;">sind alle Ausbauprojekte</text>
  <text x="99.213,104.062,109.817,114.059,120.119,125.574,128.604,132.847,137.696,143.756,146.787,150.114,156.174,159.204,164.053,167.381,173.746,178.595,182.868,187.717,190.748,194.991,199.294,202.62,208.084,213.538,219.598,222.925,228.985,233.835,238.108,241.435,249.162,257.344,262.193,266.435,271.284,279.466,282.793,289.159,294.008,298.311,302.553,308.008,312.25,315.281,320.735,324.978,328.305,332.608,335.638,341.698,347.758,351.086,357.146,363.206,369.266,372.593,376.895,379.926,384.48,390.54,393.868,396.898,402.958,406.285,412.345,417.195,421.468,424.795,432.977,442.067,446.37,451.219,455.462,460.311,466.371,472.431,477.88599999999997,481.212,487.578,492.427" y="470.432" svg_rhmargin="496.063" style="fill:#000000;font-family:QISGBS+LMRoman10-Regular;font-size:10.91px;font-style:NORMAL;font-weight:normal;">enthalten, die bereits von der BNetzA bestätigt sind und sich in der Umsetzung be-</text>
  <text svg_rhmargin="195.967" x="99.213,105.273,111.333,117.393,122.242,128.302,131.333,134.584,142.917,148.372,152.675,155.936,161.996,166.845,171.694,177.754,183.209,187.482,190.512,195.967" y="486.868" style="fill:#000000;font-family:QISGBS+LMRoman10-Regular;font-size:10.91px;font-style:NORMAL;font-weight:normal;">ﬁnden. Das Szenario </text>
  <text svg_rhmargin="256.948" x="199.216,205.349,210.367,215.943,221.519,227.094,232.67,238.245,246.354,251.372,256.94800000000004" y="486.868" style="fill:#000000;font-family:RSQXPN+LMRoman10-Italic;font-size:10.91px;font-style:italic;font-weight:normal;">nep2035_b2 </text>
  <text x="261.677,266.526,272.281,276.523,282.583,288.038,291.068,295.311,298.562,303.411,309.471,313.773,319.228,323.471,328.32,331.35,334.381,338.935,344.995,348.246,353.701,356.731,359.762,364.611,367.862,375.435,380.284,383.315,387.557,392.406,396.679,401.528,407.588,410.839,416.294,421.143,427.203,430.233,435.688,441.443,445.685,450.534,456.594,459.856,466.818,471.091,476.546,480.848,485.151,490.0" y="486.868" svg_rhmargin="496.06" style="fill:#000000;font-family:QISGBS+LMRoman10-Regular;font-size:10.91px;font-style:NORMAL;font-weight:normal;">enthält zusätzlich alle weiteren geplanten Trassen</text>
  <text svg_rhmargin="114.425" x="99.213,105.273,110.122,114.425" y="503.303" style="fill:#000000;font-family:QISGBS+LMRoman10-Regular;font-size:10.91px;font-style:NORMAL;font-weight:normal;">des </text>
  <text x="118.061,126.17,133.569,140.969,144.874,150.45,156.026,161.601,167.177,171.08,177.213,181.674,186.692,192.825,198.401,203.001,206.347,211.923,215.826,223.505" y="503.303" svg_rhmargin="229.081" style="fill:#000000;font-family:RSQXPN+LMRoman10-Italic;font-size:10.91px;font-style:italic;font-weight:normal;">NEP 2035-Szenario-B2</text>
  <text x="229.078" y="503.303" svg_rhmargin="232.109" style="fill:#000000;font-family:QISGBS+LMRoman10-Regular;font-size:10.91px;font-style:NORMAL;font-weight:normal;">.</text>
  <text x="99.213,107.546,110.577,115.426,119.921,122.951,132.041,136.536,144.718,152.142,159.566,164.06,169.515,174.364,180.424,183.454,188.909,194.663,198.906,203.755,209.815,214.309,221.733,226.006,231.766,235.099,239.948,245.706,249.948,254.797,259.292,265.657,270.507,274.809,279.353,285.413,289.686,294.535,297.565,303.931,308.78,314.84,319.335,324.789,328.122,332.365,336.859,342.919,345.949,350.493,356.259,360.502,364.996,370.75,376.81,381.083,385.578,391.638,396.487,402.547,407.041,414.768,420.223,426.283,430.777,436.837,441.687,447.747,452.596,456.869,461.363,468.181,473.031,476.061,480.304,486.364,492.424" y="533.7919999999999" svg_rhmargin="496.06" style="fill:#000000;font-family:QISGBS+LMRoman10-Regular;font-size:10.91px;font-style:NORMAL;font-weight:normal;">Die im NEP geplanten Projekte beschreiben oft nicht nur den Bau neuer Leitun-</text>
  <text x="99.213,104.668,109.517,115.577,118.608,123.604,126.634,132.694,137.69,143.448,146.479,151.328,154.359,159.208,165.268,170.264,177.156,182.611,185.641,188.672,193.521,199.581,204.577,208.88,214.335,217.365,220.396,225.234,231.294,236.29,242.656,247.505,251.807,256.05,260.899,266.959,271.808,277.868,283.928,288.777,293.773,300.747,305.02,310.474,314.777,319.079,323.928,329.988,334.985,341.045,350.135,355.59,360.439,366.499,371.953,378.013,382.256,387.252,394.826,399.675,403.948,410.008,414.857,420.917,423.948,428.944,437.277,440.308,445.157,449.46,454.456,459.305,463.578,466.911,472.365,476.638,482.698,487.547,491.82" y="550.227" svg_rhmargin="496.063" style="fill:#000000;font-family:QISGBS+LMRoman10-Regular;font-size:10.91px;font-style:NORMAL;font-weight:normal;">gen, in vielen Fällen sollen bestehende Trassen umgebaut werden. Dies erfordert</text>
  <text x="99.213,105.273,110.122,116.182,119.902,127.627,133.687,138.241,143.999,150.059,155.514,161.574,165.294,170.746,176.201,182.261,185.981,193.708,198.557,202.859,207.102,212.556,218.616,224.676,228.979,232.009,236.859,239.889,244.132,250.192,256.252,261.706,266.555,272.615,276.346,282.406,288.466,294.526,298.246,301.277,305.579,309.822,313.542,316.572,322.632,326.352,332.412,337.261,343.321,347.041,354.768,359.617,363.891,368.74,373.283,379.343,385.109,391.169,397.229,402.683,407.532,413.592,417.312,423.372,428.221,432.524,436.244,444.426,449.275,453.518,458.367,463.821,469.881,474.184,480.244,485.698,491.758" y="566.662" svg_rhmargin="496.061" style="fill:#000000;font-family:QISGBS+LMRoman10-Regular;font-size:10.91px;font-style:NORMAL;font-weight:normal;">den Rückbau von Bestandsleitungen und ist in den Berechnungen des Netzausbaus</text>
  <text x="99.213,105.273,110.728,115.271,121.331,126.568,132.628,137.477,146.567,151.814,159.996,167.42,174.844,180.08,186.445,191.295,195.568,201.628,206.171,211.929,216.232,219.262,223.806,229.56,233.803,236.833,242.288,246.531,249.562,254.808,263.142,267.991,272.294,277.541,287.837,292.686,295.716,299.959,304.808,309.081,313.93,319.99,325.227,330.69,336.144,342.204,348.264,353.114,359.174,364.41,369.864,375.924,380.167,383.198,388.652,394.712,400.167,403.198,408.434,414.494,417.524,422.373,427.61,435.791,441.851,446.154,450.708,456.768,459.799,465.859,470.162,474.464,479.313,484.55,490.004" y="583.097" svg_rhmargin="496.064" style="fill:#000000;font-family:QISGBS+LMRoman10-Regular;font-size:10.91px;font-style:NORMAL;font-weight:normal;">nach dem NEP berücksichtigt. Des Weiteren können optional die Anschlüsse an</text>
  <text x="99.213,105.273,108.304,113.153,117.091,125.273,130.727,135.271,141.025,147.085,152.54,156.813,159.844,165.298,171.358,177.418,182.267,186.54,190.478,198.205,203.054,206.085,211.54,214.57,219.419,225.479,229.417,235.477,241.537,247.597,251.536,259.717,265.172,269.445,277.018,281.867,287.322,292.171,298.231,302.169,307.624,312.473,320.046,325.5,331.56,334.591,338.834,342.772,348.832,354.892,360.952,364.89,370.95,376.704,380.947,385.796,390.069,394.372,400.432,404.975,410.741,414.984,418.921,426.495,431.344,435.617,441.677,446.526,452.586,455.617,459.555,467.888,470.919,475.768,479.695,488.785,491.816" y="599.532" svg_rhmargin="496.059" style="fill:#000000;font-family:QISGBS+LMRoman10-Regular;font-size:10.91px;font-style:NORMAL;font-weight:normal;">die Nachbarländer Belgien und Norwegen gewählt und untersucht werden. Die mit</text>
  <text x="99.213,105.273,110.122,116.182,119.357,124.206,129.964,135.418,140.873,145.722,151.782,156.631,162.691,165.876,173.753,179.813,184.115,190.175,195.63,201.69,205.326,211.386,216.235,221.084,227.144,232.598,236.872,239.902,244.751,250.811,253.986,258.835,264.6,268.843,273.145,277.388,282.237,288.297,293.146,299.206,305.266,310.115,316.175,319.35,327.532,333.592,339.652,344.501,348.774,354.834,360.894,366.348,371.197,377.257,380.443,385.897,394.98699999999997,398.163,405.889,410.739,415.041,419.284,424.738,430.798,436.858,441.161,447.221,452.07,456.312,461.161,464.336,468.639,471.669,477.729,483.789,486.975,490.005" y="615.967" svg_rhmargin="496.065" style="fill:#000000;font-family:QISGBS+LMRoman10-Regular;font-size:10.91px;font-style:NORMAL;font-weight:normal;">den exogenen Ausbau-Szenarien entstehenden Änderungen am Bestandsnetz sind in</text>
  <text x="99.213,107.395,113.455,119.515,122.545,125.576,131.636,137.696,143.756,149.211,152.843,158.298,161.328,166.78300000000002,170.426,176.486,181.941,186.214,191.669,196.518,200.82,205.063,209.912,212.942,215.973,220.216" y="632.403" svg_rhmargin="223.247" style="fill:#000000;font-family:QISGBS+LMRoman10-Regular;font-size:10.91px;font-style:NORMAL;font-weight:normal;">Abbildung 4.1 dargestellt.</text>
  <text x="99.213,107.546,110.577,115.426,118.841,123.69,126.72,131.569,137.327,141.57,145.843,148.873,153.176,157.72,163.78,168.629,174.689,178.103,185.221,190.676,194.949,200.404,209.494,214.343,218.586,223.435,227.708,231.123,237.183,242.032,246.305,249.719,257.596,263.656,267.958,274.018,279.473,285.533,288.563,293.412,296.443,300.685,306.745,312.805,318.26,323.109,329.169,332.584,340.168,345.017,349.29,355.35,360.199,366.259,369.673,373.976,379.125,386.698,391.547,394.578,398.82099999999997,402.235,411.326,416.78,422.235,425.265,428.296,432.839,438.899,442.314,447.768,453.828,459.888,465.343,471.403,477.463,480.878,486.938,491.787" y="662.892" svg_rhmargin="496.06" style="fill:#000000;font-family:QISGBS+LMRoman10-Regular;font-size:10.91px;font-style:NORMAL;font-weight:normal;">Die elektrischen Parameter der Ausbauleitungen werden soweit möglich anhand der</text>
  <text x="99.213,104.668,109.517,115.577,118.607,124.062,129.816,134.059,138.908,144.968,148.95,156.677,161.526,165.828,170.677,173.708,176.739,182.799,188.859,194.31400000000002,198.284,201.617,206.466,210.768,215.011,220.465,225.315,228.345,233.194,238.649,242.891,245.922,249.904,255.964,258.994,263.843,267.814,276.299,281.754,287.814,290.844,295.087,300.542,303.572,309.024,314.479,318.782,323.024,327.873,333.933,337.915,342.764,348.519,352.761,357.064,363.124,367.397,372.246,376.79,382.85,387.699,393.759,397.74,403.8,408.65,414.71,418.68,421.711,430.801,434.783,442.965,450.389,457.813,461.783,465.116,469.965,473.947,480.007,485.462,490.005" y="679.327" svg_rhmargin="496.065" style="fill:#000000;font-family:QISGBS+LMRoman10-Regular;font-size:10.91px;font-style:NORMAL;font-weight:normal;">geplanten Beseilung festgelegt, die Kapitalkosten entsprechen den im NEP je nach</text>
  <text x="99.213,107.395,115.574,122.545,130.727,134.363,142.848,148.303,152.545,157.394,162.849,168.304,172.577,175.607,180.456,184.46,189.914,195.974,201.429,206.278,211.733,216.582,222.947,227.796,233.856,238.705,244.76500000000001,248.769,259.065,263.914,268.187,272.43,277.279,283.339,286.37,290.373,296.433,299.464,304.313,308.316,312.589,317.439,321.982,328.042,332.891,337.164,341.719,347.779,350.809,355.659,359.932,364.174,369.012,375.072,379.087,389.383,394.232,398.505,402.748,407.597,411.6,415.903,421.052,428.931,431.961,436.81,440.814,445.663,448.694,454.754,459.603,463.606,471.179,476.028,479.059,483.302,488.151,492.424" y="695.762" svg_rhmargin="496.06" style="fill:#000000;font-family:QISGBS+LMRoman10-Regular;font-size:10.91px;font-style:NORMAL;font-weight:normal;">NOVA-Kategorie angegebenen Werten, die recherchierten Werte sowie eine weiter-</text>
  <text svg_rhmargin="446.002" x="99.213,104.668,109.517,115.577,120.426,126.486,132.546,137.39499999999998,141.028,148.755,153.604,157.906,162.45,168.521,172.783,177.632,180.663,186.723,192.793,198.853,204.30800000000002,207.941,214.001,218.85,223.123,226.756,236.756,241.605,245.848,251.908,257.668,263.728,266.758,272.51599999999996,276.149,280.451,283.482,289.542,295.602,299.245,302.276,308.336,311.969,314.999,320.454,325.908,328.939,332.572,338.632,344.086,348.359,353.814,358.663,361.694,366.543,371.997,376.24,379.883,385.943,392.003,398.063,401.696,406.545,410.818,413.849,419.303,425.363,429.606,434.455,438.728,442.971,446.002" y="760.179" style="fill:#000000;font-family:QISGBS+LMRoman10-Regular;font-size:10.91px;font-style:NORMAL;font-weight:normal;">gehende Beschreibung der Methodik sind in [57] dargelegt und erläutert. </text>
  <text x="485.154,490.609" y="760.179" svg_rhmargin="496.064" style="fill:#4d4d4d;font-family:QISGBS+LMRoman10-Regular;font-size:10.91px;font-style:NORMAL;font-weight:normal;">57</text>
 </g>
</svg>
