<?xml version="1.0" encoding="UTF-8"?>
<svg height="770.179" width="507.72490691" xmlns="http://www.w3.org/2000/svg">
 <g style="fill:none;">
  <text x="401.517,408.335,411.366,415.608,420.457,424.73,430.185,434.428,440.488,444.761,450.213,455.062,459.335,464.184,469.033,472.064,476.608,482.668,488.728,491.758" y="29.30499999999995" svg_rhmargin="496.061" style="fill:#4d4d4d;font-family:QISGBS+LMRoman10-Regular;font-size:10.91px;font-style:NORMAL;font-weight:normal;">Literaturverzeichnis</text>
  <text x="104.667,107.698,113.152,118.607,121.638,127.092,135.577,141.637,147.091,151.364,155.637,158.987,167.472,170.50300000000001,173.851,180.518,183.548,192.639,201.73,206.579,210.852,219.942,225.397,231.457,237.517,240.866,248.593,251.624,254.973,263.458,266.488,270.761,275.305,281.365,287.425,292.274,296.547,299.896,308.23,311.261,314.609,320.669,327.035,331.884,336.427,342.185,351.276,356.73,362.79,368.85,372.199,382.2,385.231,388.579,394.639,400.699,403.73,408.579,413.123,418.575,423.424,427.697,436.788,442.242,448.302,454.362,457.711,465.742,468.773,472.121,483.334,486.364,492.424" y="66.06399999999996" svg_rhmargin="496.06" style="fill:#000000;font-family:QISGBS+LMRoman10-Regular;font-size:10.91px;font-style:NORMAL;font-weight:normal;">[44] Knorr K, Zimmermann B, Kirchner D, Speckmann M, Spieckermann R, Wid-</text>
  <text x="127.091,133.151,138.0,141.031,144.936,154.936,157.967,161.872,172.168,178.228,184.288,190.359,195.198,199.471,202.501,205.532,210.086,216.14600000000002,220.052,230.052,233.083,236.977,246.978,252.432,256.987,262.439,267.288,273.348,277.651,282.5,288.56,292.465,300.495,303.526,307.431,315.462,320.916,326.976,331.249,334.28,339.73499999999996,343.629,352.114,355.145,359.05,365.11,369.353,374.202,377.232,383.292,388.745,393.594,397.499,404.621,407.652,411.557,421.863,427.318,430.349,433.681,437.954,444.014,453.104,457.01,463.518,466.549,470.454,477.272,482.121,487.573,492.422" y="82.49900000000002" svg_rhmargin="496.058" style="fill:#000000;font-family:QISGBS+LMRoman10-Regular;font-size:10.91px;font-style:NORMAL;font-weight:normal;">del M, Wunderlich M, Mackensen R, Rohrig K, Steinke F, Wolfrum P, Leve-</text>
  <text x="127.091,131.364,134.395,140.455,145.909,151.969,157.424,163.484,167.787,171.146,179.025,182.056,185.426,192.244,197.699,203.154,208.003,212.27599999999998,215.636,223.514,226.54500000000002,229.905,238.087,243.541,246.874,255.965,261.419,267.479,273.539,276.899,283.717,286.748,290.119,297.24,300.271,303.301,308.15,312.999,318.757,322.117,330.451,333.482,336.841,345.402,350.856,357.222,362.071,365.10200000000003,368.461,376.34,379.371,382.73,391.216,397.276,401.578,405.881,410.73,415.003,420.163,428.041,431.401,439.128,442.159,445.519,453.701,456.731,461.275,467.033,470.063,475.518,481.578,485.881,489.24" y="98.93399999999997" svg_rhmargin="496.058" style="fill:#000000;font-family:QISGBS+LMRoman10-Regular;font-size:10.91px;font-style:NORMAL;font-weight:normal;">ringhaus T, Lager T, Hofmann L, Filzek D, Göbel T, Kusserow B, Nicklaus L</text>
  <text x="127.091,132.546,138.606,144.666,148.298,156.328,159.359,163.602,167.844,172.693,176.966,180.61,188.03400000000002,191.666,197.121,202.575,208.03,213.485,217.117,225.308,230.762,239.547,245.607,248.638,254.396,258.669,264.123,267.456,271.393,278.966,283.815,288.089,293.847,297.49,302.945,306.577,312.032,315.665,323.846,329.906,334.209,338.753,344.824,347.854,353.914,358.217,362.519,368.874,373.723,377.996,381.026,385.581,391.336" y="115.36900000000003" svg_rhmargin="395.579" style="fill:#000000;font-family:QISGBS+LMRoman10-Regular;font-size:10.91px;font-style:NORMAL;font-weight:normal;">and Ritter P 2014 Kombikraftwerk 2 – Abschlussbericht</text>
  <text x="104.667,107.698,113.152,118.607,121.638,127.092,135.652,140.501,145.954,150.803,155.076,159.614,167.341,171.879,177.334,183.394,189.454,193.992,202.022,207.782,212.326,217.778,222.627,225.65800000000002,230.196,237.923,242.461,247.915,253.37,258.825,264.28,268.817,273.666,279.121,284.576,288.878,293.121,301.454,306.909,311.151,314.787,320.24199999999996,324.78,332.659,341.144,347.204,357.204,365.689,369.325,377.204,384.022,394.022,398.56,406.437,410.679,419.77,425.224,429.527,435.587,441.647,446.496,450.769,453.8,458.649,463.187,471.217,476.066,480.915,486.37,492.43" y="142.72199999999998" svg_rhmargin="496.066" style="fill:#000000;font-family:QISGBS+LMRoman10-Regular;font-size:10.91px;font-style:NORMAL;font-weight:normal;">[45] Geyer B and Rockel B 2013 coastDat-2 COSMO-CLM Atmospheric Recon-</text>
  <text svg_rhmargin="457.106" x="127.091,131.394,135.636,139.909,145.969,150.818,155.061,158.091,163.546,169.606,172.637,177.229,187.536,192.991,197.264,200.294,206.354,210.947,219.281,224.735,228.978,234.43300000000002,239.025,246.903,251.753,257.507,261.75,266.599,270.872,275.465,278.808,284.263,288.536,293.129,301.007,304.038,307.068,316.159,321.613,325.856,330.705,335.298,339.54,350.753,359.086,366.965,374.843,379.086,383.678,389.133,393.376,397.968,406.302,414.787,422.817,429.483,434.076,442.258,450.288,457.106" y="159.15700000000004" style="fill:#000000;font-family:QISGBS+LMRoman10-Regular;font-size:10.91px;font-style:NORMAL;font-weight:normal;">struction. World Data Center for Climate (WDCC) at DKRZ URL </text>
  <text x="461.699,467.426,473.154,478.881,484.608,490.335" y="159.15700000000004" svg_rhmargin="496.062" style="fill:#000000;font-family:XHTPUD+LMMono10-Regular;font-size:10.91px;font-style:NORMAL;font-weight:normal;">https:</text>
  <text x="127.091,132.818,138.546,144.273,150.0,155.727,161.455,167.182,172.909,178.637,184.364,190.091,195.818,201.546,207.273,213.0,218.727,224.455,230.182,235.909,241.637,247.364,253.091,258.818,264.546,270.273,276.0,281.727,287.455,293.182,298.909,304.637,310.866,316.593,322.32,328.047,333.775,339.502,345.229,350.956,357.175,362.902,368.629" y="175.59199999999998" svg_rhmargin="374.356" style="fill:#000000;font-family:XHTPUD+LMMono10-Regular;font-size:10.91px;font-style:NORMAL;font-weight:normal;">//doi.org/10.1594/WDCC/coastDat-2_COSMO-CLM</text>
  <text x="104.667,107.698,113.152,118.607,121.638,127.092,135.652,140.501,145.954,150.803,155.076,160.039,167.766,172.73,178.185,183.639,189.094,194.549,199.512,207.694,210.724,216.179,222.239,225.875,230.148,234.997,239.299,244.754,247.785,253.845,258.087,261.118,266.572,272.632,277.596,283.05,287.293,296.383,301.838,306.141,312.201,318.261,323.11,327.383,330.413,335.262,340.226,344.499,349.348,354.197,359.652,365.712,370.014,374.257,378.53,384.59,389.439,393.682,396.712,402.167,408.227,413.191,416.523,421.978,426.25100000000003,431.225,438.649,444.709,448.982,454.437,460.791,465.64,470.604,476.059,481.513,486.968,492.422" y="202.94500000000005" svg_rhmargin="496.058" style="fill:#000000;font-family:QISGBS+LMRoman10-Regular;font-size:10.91px;font-style:NORMAL;font-weight:normal;">[46] Geyer B 2014 High-resolution atmospheric reconstruction for Europe 1948-</text>
  <text svg_rhmargin="203.361" x="127.091,132.546,138.0,143.455,148.909,151.94,155.572,160.422,165.876,171.331,175.633,179.876,188.209,193.664,197.906,203.36100000000002" y="219.38" style="fill:#000000;font-family:QISGBS+LMRoman10-Regular;font-size:10.91px;font-style:NORMAL;font-weight:normal;">2012: coastDat2 </text>
  <text svg_rhmargin="337.076" x="207.001,214.401,219.976,224.577,228.201,233.777,237.682,243.815,249.111,253.572,257.196,262.214,271.135,275.041,281.174,286.192,289.538,294.556,300.689,305.14,310.15799999999996,314.064,322.3,327.876,331.5,337.076" y="219.38" style="fill:#000000;font-family:RSQXPN+LMRoman10-Italic;font-size:10.91px;font-style:italic;font-weight:normal;">Earth System Science Data </text>
  <text svg_rhmargin="347.442" x="341.169,347.442" y="219.38" style="fill:#000000;font-family:WWLKHN+LMRoman10-Bold;font-size:10.91px;font-style:NORMAL;font-weight:BOLD;">6 </text>
  <text x="351.078,356.533,361.987" y="219.38" svg_rhmargin="367.442" style="fill:#000000;font-family:QISGBS+LMRoman10-Regular;font-size:10.91px;font-style:NORMAL;font-weight:normal;">147</text>
  <text x="104.667,107.698,113.152,118.607,121.638,127.092,132.546,138.001,146.183,151.032,155.305,159.547,164.396,173.571,180.544,184.817,190.272,196.332,200.634,209.725,212.755,217.058,221.361,224.391,229.846,235.906,245.08,253.641,262.426,268.497,276.678,279.709,288.883,297.065,306.156,312.216,316.489,319.52,324.974,331.034,340.209,348.769,357.554,363.614,371.796,374.827,384.012,390.974,395.823,401.883,407.943,412.792,420.66999999999996,429.845,437.724,443.784,452.269,461.444,470.004,478.789,484.849,493.031" y="246.73199999999997" svg_rhmargin="496.062" style="fill:#000000;font-family:QISGBS+LMRoman10-Regular;font-size:10.91px;font-style:NORMAL;font-weight:normal;">[47] 50Hertz Transmission GmbH, Amprion GmbH, TenneT TSO GmbH,</text>
  <text x="127.091,134.064,138.337,143.792,149.852,154.154,160.214,165.063,169.306,177.033,188.24499999999998,197.922,206.482,215.267,221.338,229.51999999999998,239.196,243.439,251.621,259.802,267.529,271.772,281.459,286.914,292.368,297.823,303.27799999999996,312.965,321.146,325.996,330.238,335.087,339.925,345.691,349.628,357.507,360.537,365.081,370.839,373.869,379.929,385.989,391.444,395.746,401.806,404.837,410.291,416.351,426.039,431.493,436.948,442.402,447.857,450.88800000000003,460.575,467.241,474.825,479.674,482.705,486.947,491.786" y="263.16700000000003" svg_rhmargin="496.059" style="fill:#000000;font-family:QISGBS+LMRoman10-Regular;font-size:10.91px;font-style:NORMAL;font-weight:normal;">TransnetBW GmbH (ÜNB) 2014 Netzentwicklungsplan 2014. Zweiter</text>
  <text x="127.091,134.515,140.269,144.217,152.096,158.156,162.429,165.762,175.133,181.193,186.042,190.345,199.726,207.908,212.757,216.999,221.849,226.698,232.452,236.389,244.268,247.298,251.842,257.6,260.63,266.69,272.75,278.205,282.507,288.567,291.598,297.053,303.113,307.416,316.797,322.857,327.1,331.373,336.827,345.917,355.289,361.349,366.198,370.471,379.853,388.034,394.4,399.249,403.522,407.765,412.038,417.492,422.947,429.007,435.067,440.521,444.824,450.884,455.733,459.976,464.825,471.179,476.028,480.271,484.544,489.393,492.424" y="279.60299999999995" svg_rhmargin="496.06" style="fill:#000000;font-family:QISGBS+LMRoman10-Regular;font-size:10.91px;font-style:NORMAL;font-weight:normal;">Entwurf des Netzentwicklungsplans Strom der Übertragungsnetzbetrei-</text>
  <text svg_rhmargin="461.316" x="127.091,133.456,138.306,142.579,148.699,155.661,160.51,165.054,171.114,174.145,180.264,184.537,189.386,195.446,198.477,204.597,212.93,215.961,220.81,226.93,232.688,235.718,240.567,244.84,250.95,257.01,261.859,267.919,272.161,276.475,281.018,287.078,291.927,297.987,304.107,312.289,318.644,323.493,327.766,332.009,336.282,341.736,347.191,353.251,359.311,364.765,369.068,375.128,379.977,384.22,389.069,395.434,400.283,404.526,408.799,413.648,416.678,423.044,427.893,432.166,438.286,446.468,454.498,461.316" y="296.038" style="fill:#000000;font-family:QISGBS+LMRoman10-Regular;font-size:10.91px;font-style:NORMAL;font-weight:normal;">ber Tech. rep. Die vier deutschen Übertragungsnetzbetreiber URL </text>
  <text x="467.427,473.154,478.882,484.609,490.336" y="296.038" svg_rhmargin="496.063" style="fill:#000000;font-family:XHTPUD+LMMono10-Regular;font-size:10.91px;font-style:NORMAL;font-weight:normal;">http:</text>
  <text x="127.091,132.818,138.546,144.273,150.0,155.727,161.455,167.182,172.909,178.637,184.364,190.091,195.818,201.546,207.273,213.0,218.727,224.455,230.182,235.909,241.637,247.364,253.091,258.818,264.546,270.273,276.0,281.727,287.455,293.182,298.909,304.637,310.364,316.091,321.818,327.546,333.273,339.0,344.727,350.455,356.182,361.909,367.636,373.364,379.091,384.818,390.546,396.273,402.0,407.727,413.455,419.182,424.909,430.636,436.364,442.091,447.818,453.545,459.273,465.0,470.727" y="312.473" svg_rhmargin="476.454" style="fill:#000000;font-family:XHTPUD+LMMono10-Regular;font-size:10.91px;font-style:NORMAL;font-weight:normal;">//www.netzentwicklungsplan.de/sites/default/files/paragraphs-</text>
  <text x="127.091,132.818,138.546,144.273,150.0,155.727,161.455,167.182,172.909,178.637,184.364,190.091,195.818,201.546,207.273,213.0,218.727,224.455,230.182,235.909,241.637,247.364,253.091,258.818,264.546,270.273,276.0,281.727,287.455,293.182,298.909,304.637,310.364,316.091,321.818,327.546,333.273,339.0,344.727,350.455,356.182,361.909,367.636" y="328.908" svg_rhmargin="373.363" style="fill:#000000;font-family:XHTPUD+LMMono10-Regular;font-size:10.91px;font-style:NORMAL;font-weight:normal;">files/20141103_nep_2014_2_entwurf_teil1.pdf</text>
  <text x="104.667,107.698,113.152,118.607,121.638,127.092,132.546,138.001,146.183,151.032,155.305,159.547,164.396,173.571,180.544,184.817,190.272,196.332,200.634,209.725,212.755,217.058,221.361,224.391,229.846,235.906,245.08,253.641,262.426,268.497,276.678,279.709,288.883,297.065,306.156,312.216,316.489,319.52,324.974,331.034,340.209,348.769,357.554,363.614,371.796,374.827,384.012,390.974,395.823,401.883,407.943,412.792,420.66999999999996,429.845,437.724,443.784,452.269,461.444,470.004,478.789,484.849,493.031" y="356.26" svg_rhmargin="496.062" style="fill:#000000;font-family:QISGBS+LMRoman10-Regular;font-size:10.91px;font-style:NORMAL;font-weight:normal;">[48] 50Hertz Transmission GmbH, Amprion GmbH, TenneT TSO GmbH,</text>
  <text x="127.091,134.064,138.337,143.792,149.852,154.154,160.214,165.063,169.306,177.033,188.24499999999998,194.409,202.969,211.754,217.814,225.99599999999998,232.16,236.402,244.584,252.766,260.493,264.736,270.91,276.365,281.819,287.274,292.729,298.892,307.074,311.923,316.165,321.014,325.864,331.618,335.555,343.434,346.464,351.008,356.766,359.796,365.867,371.927,377.382,381.684,387.744,390.775,396.229,402.289,408.453,413.908,419.362,424.817,430.271,433.302,439.465,446.9,451.173,455.476,459.718,464.567,468.84000000000003,475.004,482.428,488.182,492.425" y="372.696" svg_rhmargin="496.061" style="fill:#000000;font-family:QISGBS+LMRoman10-Regular;font-size:10.91px;font-style:NORMAL;font-weight:normal;">TransnetBW GmbH (ÜNB) 2012 Netzentwicklungsplan 2012. Erster Ent-</text>
  <text x="127.091,134.97,141.03,145.303,148.636,159.064,165.124,169.974,174.277,184.705,192.887,197.736,201.979,206.828,211.677,217.442,221.379,229.258,232.289,236.832,242.59,245.621,251.681,257.741,263.195,267.498,273.558,276.588,282.043,288.103,292.406,302.834,308.894,313.137,317.41,322.865,331.955,342.395,348.455,353.304,357.577,368.006,376.188,382.543,387.392,391.665,395.908,400.181,405.635,411.09,417.15,423.21,428.664,432.967,439.038,443.876,448.119,452.968,459.333,464.182,468.425,472.698,477.547,480.577,486.943,491.792" y="389.131" svg_rhmargin="496.065" style="fill:#000000;font-family:QISGBS+LMRoman10-Regular;font-size:10.91px;font-style:NORMAL;font-weight:normal;">wurf des Netzentwicklungsplans Strom der Übertragungsnetzbetreiber</text>
  <text svg_rhmargin="458.232" x="127.091,134.064,138.913,143.457,149.517,152.548,161.755,166.028,170.877,176.937,179.96800000000002,189.164,197.497,200.528,205.37699999999998,214.584,220.342,223.372,228.222,232.495,241.702,247.762,252.611,258.671,262.914,267.216,271.76,277.82,282.669,288.729,297.936,306.118,312.473,317.322,321.595,325.837,330.11,335.565,341.02,347.079,353.139,358.594,362.908,368.967,373.817,378.059,382.897,389.263,394.112,398.354,402.628,407.477,410.507,416.873,421.722,425.995,435.202,443.384,451.414,458.23199999999997" y="405.566" style="fill:#000000;font-family:QISGBS+LMRoman10-Regular;font-size:10.91px;font-style:NORMAL;font-weight:normal;">Tech. rep. Die vier deutschen Übertragungsnetzbetreiber URL </text>
  <text x="467.427,473.154,478.882,484.609,490.336" y="405.566" svg_rhmargin="496.063" style="fill:#000000;font-family:XHTPUD+LMMono10-Regular;font-size:10.91px;font-style:NORMAL;font-weight:normal;">http:</text>
  <text x="127.091,132.818,138.546,144.273,150.0,155.727,161.455,167.182,172.909,178.637,184.364,190.091,195.818,201.546,207.273,213.0,218.727,224.455,230.182,235.909,241.637,247.364,253.091,258.818,264.546,270.273,276.0,281.727,287.455,293.182,298.909,304.637,310.364,316.091,321.818,327.546,333.273,339.0,344.727,350.455,356.182,361.909,367.636,373.364,379.091,384.818,390.546,396.273,402.0,407.727,413.455,419.182,424.909,430.636,436.364,442.091,447.818,453.545,459.273,465.0,470.727" y="422.001" svg_rhmargin="476.454" style="fill:#000000;font-family:XHTPUD+LMMono10-Regular;font-size:10.91px;font-style:NORMAL;font-weight:normal;">//www.netzentwicklungsplan.de/sites/default/files/paragraphs-</text>
  <text x="127.091,132.818,138.546,144.273,150.0,155.727,161.455,167.182,172.909,178.637,184.364,190.091,195.818,201.546,207.273,213.0,218.727,224.455,230.182,235.909,241.637,247.364,253.091,258.818,264.546,270.273,276.0,281.727,287.455,293.182,298.909,304.637,310.364,316.091,321.818,327.546,333.273,339.0,344.727,350.455,356.182,361.909,367.636,373.364,379.091,384.818,390.546" y="438.436" svg_rhmargin="396.273" style="fill:#000000;font-family:XHTPUD+LMMono10-Regular;font-size:10.91px;font-style:NORMAL;font-weight:normal;">files/nep_2012_1_entwurf_teil_1_kap_1_bis_8.pdf</text>
  <text x="104.667,107.698,113.152,118.607,121.638,127.092,135.577,139.85,142.88,147.73,153.79,156.855,165.03699999999998,168.113,173.568,179.628,185.688,188.753,194.513,199.362,208.453,213.907,217.24,220.306,226.366,231.215,236.667,241.516,244.547,250.001,256.061,259.092,265.152,270.60699999999997,273.683,279.137,283.41,288.865,294.925,300.985,304.05,309.505,314.96,320.414,325.86899999999997,328.945,332.278,337.127,341.976,348.036,351.066,357.126,360.157,363.188,369.248,372.313,377.768,380.833,385.076,388.106,397.197,402.046,405.122,409.425,414.274,418.547,421.577,426.426,430.729,433.794,439.249,442.58200000000005,445.647,451.413,457.171,460.236,465.691,469.964,473.029,480.908,483.938,489.998" y="465.789" svg_rhmargin="496.058" style="fill:#000000;font-family:QISGBS+LMRoman10-Regular;font-size:10.91px;font-style:NORMAL;font-weight:normal;">[49] Krien U and oemof developing group 2016 feedinlib – time series of pv or wind</text>
  <text svg_rhmargin="214.452" x="127.091,133.456,138.606,146.179,151.028,155.301,158.944,165.004,168.035,173.49,179.244,183.487,187.79,191.422,199.604,207.634,214.452" y="482.224" style="fill:#000000;font-family:QISGBS+LMRoman10-Regular;font-size:10.91px;font-style:NORMAL;font-weight:normal;">power plants URL </text>
  <text x="218.091,223.818,229.546,235.273,241.0,246.727,252.455,258.182,263.909,269.636,275.364,281.091,286.818,292.546,298.273,304.0,309.727,315.455,321.182,326.909,332.636,338.364,344.091,349.818,355.545,361.273,367.0,372.727,378.454,384.182,389.909,395.636,401.364,407.091" y="482.224" svg_rhmargin="412.818" style="fill:#000000;font-family:XHTPUD+LMMono10-Regular;font-size:10.91px;font-style:NORMAL;font-weight:normal;">https://github.com/oemof/feedinlib</text>
  <text x="104.667,107.698,113.152,118.607,121.638,127.092,133.308,137.581,143.035,149.095,155.155,161.215,166.67,170.003,174.852,179.125,190.667,194.606,202.03,209.454,220.984,226.439,231.893,237.348,242.80300000000003,254.344,265.557,268.587,274.647,280.707,289.798,295.252,301.312,304.343,308.585,314.04,318.31300000000005,329.855,334.097,338.037,345.46,352.895,357.137,360.168,371.71,381.71,387.165,391.438,397.196,401.438,406.893,412.647,416.89,421.739,424.769,427.8,432.649,444.191,450.251,455.1,459.37300000000005,470.915,478.793,481.824,486.368,492.428" y="509.576" svg_rhmargin="496.064" style="fill:#000000;font-family:QISGBS+LMRoman10-Regular;font-size:10.91px;font-style:NORMAL;font-weight:normal;">[50] Fraunhofer IEE 2018 Windmonitor (IEE): Marktanteile der wich-</text>
  <text x="127.091,131.334,134.364,139.819,144.121,148.364,153.213,159.273,177.044,185.529,191.892,196.195,202.255,207.709,211.982,216.831,220.467,231.68,234.71,240.77,246.83,251.679,257.739,262.589,266.862,272.316,275.347,280.196,285.65,291.71,294.741,300.195,305.65,310.499,316.559,322.619,327.468,331.741,336.044,340.286,345.136,348.166,351.197,356.046,360.319,378.09,385.674,390.512,393.542,397.49,405.064,409.913,412.943,417.186,434.957,441.017,446.471,451.015,457.075,474.857,481.523,486.978,493.038" y="526.011" svg_rhmargin="496.069" style="fill:#000000;font-family:QISGBS+LMRoman10-Regular;font-size:10.91px;font-style:NORMAL;font-weight:normal;">tigsten Oﬀshore-Windenergieanlagenhersteller weltweit nach Zahl</text>
  <text x="127.091,133.151,138.0,142.273,151.033,159.215,165.275,168.306,173.76,179.215,184.064,190.124,198.895,201.925,211.01500000000001,219.776,225.382,230.837,236.896,241.16899999999998,249.93,255.384,260.839,266.293,271.748,280.519,287.481,292.33,296.885,302.945,305.976,314.735,319.008,323.857,329.917,332.948,341.708,347.924,352.197,357.651,363.711,369.771,375.831,381.286,384.619,389.468,393.74100000000004,402.501,406.44,412.5,416.803,421.045,424.076,428.318,434.389,438.632,447.392,450.725,456.785,461.05800000000005,469.818,477.241,483.301,488.15,492.424" y="542.446" svg_rhmargin="496.06" style="fill:#000000;font-family:QISGBS+LMRoman10-Regular;font-size:10.91px;font-style:NORMAL;font-weight:normal;">der Anlagen im Jahr 2016 Tech. rep. Fraunhofer Institut für Ener-</text>
  <text svg_rhmargin="454.079" x="127.091,132.546,135.576,140.425,148.304,151.334,155.607,159.85,164.152,168.696,174.756,180.211,183.543,187.786,201.15,207.21,213.27,219.33,232.682,240.106,246.166,251.015,255.288,260.743,263.773,268.622,272.925,278.683,282.985,287.228,292.077,300.862,305.105,309.954,314.497,320.568,326.628,329.659,335.417,348.769,353.012,356.951,364.375,371.798,376.041,389.394,397.879,403.333,407.636,411.938,416.788,419.819,433.171,439.231,447.261,454.079" y="558.8820000000001" style="fill:#000000;font-family:QISGBS+LMRoman10-Regular;font-size:10.91px;font-style:NORMAL;font-weight:normal;">giewirtschaft und Energiesystemtechnik (IEE) Kassel uRL </text>
  <text x="467.427,473.154,478.882,484.609,490.336" y="558.8820000000001" svg_rhmargin="496.063" style="fill:#000000;font-family:XHTPUD+LMMono10-Regular;font-size:10.91px;font-style:NORMAL;font-weight:normal;">http:</text>
  <text x="127.091,132.818,138.546,144.273,150.0,155.727,161.455,167.182,172.909,178.637,184.364,190.091,195.818,201.546,207.273,213.0,218.727,224.455,230.182,235.909,241.637,247.364,253.091,258.818,264.546,270.273,276.0,281.727,287.455,293.182,298.909,304.637,310.364,316.091,321.818,327.546,333.273,339.0,344.727,350.455,356.182,361.909,367.636,373.364,379.091,384.818,390.546,396.273,402.0,407.727,413.455,419.182,424.909,430.636,436.364,442.091,447.818,453.545,459.273,465.0" y="575.317" svg_rhmargin="470.727" style="fill:#000000;font-family:XHTPUD+LMMono10-Regular;font-size:10.91px;font-style:NORMAL;font-weight:normal;">//windmonitor.iee.fraunhofer.de/windmonitor_de/4_Offshore/2_</text>
  <text x="127.091,132.818,138.546,144.273,150.0,155.727,161.455,167.182,172.909,178.637,184.364,190.091,195.818,201.546,207.273,213.0,218.727,224.455,230.182,235.909,241.637,247.364,253.091,258.818,264.546,270.273,276.0,281.727,287.455,293.182,298.909,304.637,310.364,316.091,321.818,327.546,333.273" y="591.752" svg_rhmargin="339.0" style="fill:#000000;font-family:XHTPUD+LMMono10-Regular;font-size:10.91px;font-style:NORMAL;font-weight:normal;">technik/4_anlagenhersteller_weltweit/</text>
  <text svg_rhmargin="452.478" x="104.667,107.698,113.152,118.607,121.638,127.092,138.304,141.335,145.608,149.85,155.91,158.899,167.081,170.081,175.536,180.99,186.445,191.9,194.889,203.07,208.828,213.071,219.131,223.98,227.01,230.041,234.89,237.879,244.095,249.55,255.307,259.55,264.399,270.459,273.448,278.297,284.357,288.63000000000005,291.62,299.054,305.114,310.569,314.811,319.96,325.413,330.867,333.898,338.14,343.595,346.625,352.383,355.372,358.403,364.463,367.463,375.796,380.645,386.705,390.948,395.251,399.794,405.854,408.885,414.339,420.399,426.459,429.448,437.63,445.66,452.478" y="619.104" style="fill:#000000;font-family:QISGBS+LMRoman10-Regular;font-size:10.91px;font-style:NORMAL;font-weight:normal;">[51] Wirth H 2018 Aktuelle Fakten zur Photovoltaik in Deutschland URL </text>
  <text x="455.474,461.201,466.929,472.656,478.383,484.11,489.838" y="619.104" svg_rhmargin="495.565" style="fill:#000000;font-family:XHTPUD+LMMono10-Regular;font-size:10.91px;font-style:NORMAL;font-weight:normal;">www.pv-</text>
  <text x="127.091,132.818,138.546,144.273,150.0,155.727,161.455,167.182,172.909" y="635.539" svg_rhmargin="178.636" style="fill:#000000;font-family:XHTPUD+LMMono10-Regular;font-size:10.91px;font-style:NORMAL;font-weight:normal;">fakten.de</text>
  <text svg_rhmargin="195.654" x="104.667,107.698,113.152,118.607,121.638,127.092,138.304,141.335,146.184,150.486,155.33499999999998,161.03,168.151,173.835,179.29,184.744,190.199,195.65400000000002" y="662.892" style="fill:#000000;font-family:QISGBS+LMRoman10-Regular;font-size:10.91px;font-style:NORMAL;font-weight:normal;">[52] Wiese F 2015 </text>
  <text x="201.349,205.393,210.411,216.544,221.564,227.139,231.6,236.061,241.853,245.756,251.549,258.95,263.968,270.101,275.12,282.368,287.943,292.961,295.749,300.767,306.56,313.959,320.092,325.111,329.155,334.173,339.469,345.262,352.672,358.248,361.872,367.448,374.696,380.271,385.568,390.029,395.821,401.954,405.3,414.221,420.076,422.864,428.439,432.063,435.409,440.985,447.118,452.911,459.044,464.34,468.801,472.425,477.443,486.364,492.157" y="662.892" svg_rhmargin="496.06" style="fill:#000000;font-family:RSQXPN+LMRoman10-Italic;font-size:10.91px;font-style:italic;font-weight:normal;">renpass - Renewable Energy Pathways Simulation System -</text>
  <text svg_rhmargin="469.992" x="127.091,135.455,140.474,145.492,151.625,157.855,163.988,169.563,175.418,179.462,183.924,188.942,195.171,200.747,205.20800000000003,211.437,217.013,223.14600000000002,229.375,234.95,240.526,246.102,250.146,255.165,260.741,265.759,271.33500000000004,277.564,281.188,286.764,292.992,301.914,306.376,311.394,315.01800000000003,321.247,326.265,331.841,337.416,340.203,341.044,343.831,348.849,354.982,360.0,365.018,369.479,375.708,379.054,385.18699999999995,391.416,396.434,402.568,407.586,411.63,416.648,421.944,428.173,437.095,442.114,447.69,452.708,455.495,458.841,464.974,469.99199999999996" y="679.327" style="fill:#000000;font-family:RSQXPN+LMRoman10-Italic;font-size:10.91px;font-style:italic;font-weight:normal;">Open Source as an approach to meet chal lenges in energy modeling </text>
  <text x="476.76,485.093,488.124,492.427" y="679.327" svg_rhmargin="496.063" style="fill:#000000;font-family:QISGBS+LMRoman10-Regular;font-size:10.91px;font-style:NORMAL;font-weight:normal;">Dis-</text>
  <text svg_rhmargin="342.298" x="127.091,131.394,136.243,140.516,144.758,150.213,154.455,157.486,162.94,169.0,172.862,180.286,186.346,190.619,196.074,202.134,207.588,211.224,219.406,225.466,228.497,233.949,238.798,243.071,247.374,250.404,254.647,260.101,264.344,268.206,275.327,278.358,283.196,289.267,293.569,299.629,305.689,309.962,315.417,319.268,327.45,335.48,342.298" y="695.762" style="fill:#000000;font-family:QISGBS+LMRoman10-Regular;font-size:10.91px;font-style:NORMAL;font-weight:normal;">sertation Europa-Universität Flensburg URL </text>
  <text x="346.158,351.885,357.613,363.34,369.067,374.794,380.522,386.249,391.976,397.703,403.431,409.158,414.885,420.612,426.34,432.067,437.794,443.522,449.751,455.478,461.205,466.932,472.66,478.387,484.114,489.841" y="695.762" svg_rhmargin="495.568" style="fill:#000000;font-family:XHTPUD+LMMono10-Regular;font-size:10.91px;font-style:NORMAL;font-weight:normal;">http://www.reiner-lemoine-</text>
  <text x="127.091,132.818,138.546,144.273,150.0,155.727,161.455,167.182,172.909,178.637,184.364,190.091,195.818,201.546,207.273,213.0,218.727,224.455,230.182,235.909,241.637,247.364,253.091,258.818,264.546,270.273,276.0,281.728,287.455,293.182,298.909,304.637,310.364,316.091,321.818,327.546,333.273,339.0,344.727,350.455,356.182,361.909,367.636,373.364,379.091,384.818,390.546,396.273,402.0,407.727,413.455,419.182,424.909,430.636,436.364,442.091,447.818,453.545,459.273,465.0" y="712.197" svg_rhmargin="470.727" style="fill:#000000;font-family:XHTPUD+LMMono10-Regular;font-size:10.91px;font-style:NORMAL;font-weight:normal;">stiftung.de/pdf/dissertationen/Dissertation_Frauke_Wiese.pdf</text>
  <text x="99.212,104.667,110.121" y="760.179" svg_rhmargin="115.576" style="fill:#4d4d4d;font-family:QISGBS+LMRoman10-Regular;font-size:10.91px;font-style:NORMAL;font-weight:normal;">212</text>
 </g>
</svg>
