<?xml version="1.0" encoding="UTF-8"?>
<svg height="770.179" width="506.91972455514286" xmlns="http://www.w3.org/2000/svg">
 <g style="fill:none;">
  <text x="99.213,104.668,107.698,113.15299999999999,118.607,126.789,131.638,135.881,140.73,146.184,152.244,156.547,162.607,168.061" y="29.30499999999995" svg_rhmargin="174.121" style="fill:#4d4d4d;font-family:QISGBS+LMRoman10-Regular;font-size:10.91px;font-style:NORMAL;font-weight:normal;">6.1 Netzausbau</text>
  <text x="99.213,108.304,113.758,119.516,122.546,131.637,137.092,140.122,144.971,149.244,154.655,162.835,168.289,172.592,176.835,181.684,187.744,190.775,196.185,203.758,208.607,211.638,216.181,222.241,227.09,232.501,238.561,244.621,248.895,253.438,259.498,264.909,270.361,275.816,281.571,287.023,291.872,297.637,301.88,304.911,310.365,316.425,321.274,324.305,327.335,332.184,338.244,343.644,351.826,356.675,360.918,365.767,371.221,377.281,381.584,387.644,393.099,399.159,404.57,409.419,415.173,419.416,423.718,427.961,432.81,438.87,443.719,449.779,452.81,458.231,466.565,469.595,474.444,479.855,487.582,492.431" y="66.06399999999996" svg_rhmargin="496.067" style="fill:#000000;font-family:QISGBS+LMRoman10-Regular;font-size:10.91px;font-style:NORMAL;font-weight:normal;">maximaler Kosten, welche durch konventionellen Netzausbau entstehen. Die Be-</text>
  <text x="99.213,103.516,107.758,110.789,119.879,128.664,134.724,140.784,146.239,149.893,155.953,160.802,165.105,168.749,176.93,181.78,186.022,190.871,196.326,202.386,206.688,212.748,218.203,224.263,230.628,235.477,241.537,246.992,251.265,254.598,258.901,262.544,267.999,274.059,277.39200000000005,281.035,288.762,294.216,298.519,301.549,305.852,309.507,314.959,320.413,326.473,330.117,336.784,341.633,344.663,348.906,353.179,358.028,361.059,367.119,371.968,378.028,381.671,389.55,392.58,396.854,402.914,406.557,412.01,416.859,421.132,428.716,433.565,439.625,445.685,450.534,454.776,457.807,461.451,467.511,476.601,480.245,486.305,491.759" y="82.49900000000002" svg_rhmargin="496.062" style="fill:#000000;font-family:QISGBS+LMRoman10-Regular;font-size:10.91px;font-style:NORMAL;font-weight:normal;">stimmung des Netzausbaubedarfs auf Basis von Zeitreihen wird verwendet, um das</text>
  <text x="99.213,106.637,109.667,115.727,120.03,126.09,131.544,135.817,142.183,147.637,151.88,156.729,162.789,167.638,170.669,176.123,179.154,182.185,185.348,192.921,197.77,200.801,205.344,211.404,216.253,220.55599999999998,223.72,228.022,231.053,235.607,241.667,244.831,250.891,256.951,261.224,265.768,271.828,274.991,279.84,282.871,288.931,293.78,296.944,303.004,307.853,312.095,316.944,321.793,328.159,333.008,339.068,343.917,349.672,355.732,362.097,366.946,371.219,376.674,380.947,385.796,388.827,392.159,397.008,403.068,409.128,413.977,417.141,425.323,430.172,434.415,439.264,445.324,448.354,453.809,459.563,465.623,471.683,477.138,480.301,486.361,492.432" y="98.93399999999997" svg_rhmargin="496.068" style="fill:#000000;font-family:QISGBS+LMRoman10-Regular;font-size:10.91px;font-style:NORMAL;font-weight:normal;">Einsparpotenzial, welches sich durch eine netzebenenübergreifende Netzplanung un-</text>
  <text x="99.213,103.456,108.305,112.578,115.458,123.185,128.034,132.307,138.367,142.91,148.668,152.971,156.001,160.545,166.3,170.542,173.573,179.027,185.087,191.147,196.602,199.482,204.945,210.4,216.46,219.34,227.521,233.581,237.855,242.704,248.158,252.996,256.027,262.098,268.158,273.613,276.481,282.552,288.612,294.672,297.552,303.612,309.967,314.816,317.847,322.401,328.461,333.31,337.572,343.027,349.098,353.4,359.46,364.915,370.975,373.855,378.704,382.977,388.432,393.27,399.635,404.484,410.544,413.575,416.455,421.304,427.364,430.244,436.609,441.459,445.761,450.004,453.034,462.125,471.215,476.064,482.124" y="115.36900000000003" svg_rhmargin="485.155" style="fill:#000000;font-family:QISGBS+LMRoman10-Regular;font-size:10.91px;font-style:NORMAL;font-weight:normal;">ter Berücksichtigung von Abregelung und Speicherausbau ergeben, zu bestimmen.</text>
  <text x="99.213,107.546,110.577,115.426,119.244,127.123,130.153,134.697,140.452,144.694,147.725,153.179,157.482,161.724,166.573,172.633,176.452,180.694,185.543,190.087,196.147,202.207,205.237,209.54,214.084,220.144,224.993,231.053,234.871,242.901,248.356,254.416,260.476,266.841,271.69,277.75,280.781,286.841,292.295,298.355,304.415,309.87,314.719,320.779,324.597,330.952,335.801,338.832,342.649,348.709,353.559,357.83200000000005,361.65,369.832,374.681,378.923,383.772,389.227,395.287,399.59,405.65,411.104,417.164,423.224,426.255,431.709,437.464,443.524,449.584,455.039,458.856,463.159,466.19,472.25,478.31,482.128,488.188,491.218" y="147.875" svg_rhmargin="496.067" style="fill:#000000;font-family:QISGBS+LMRoman10-Regular;font-size:10.91px;font-style:NORMAL;font-weight:normal;">Die wichtigsten technischen Randbedingungen bei der Netzausbauplanung sind die</text>
  <text x="99.213,103.456,109.516,114.365,118.638,127.728,130.759,135.061,139.605,145.665,150.51399999999998,153.961,161.688,166.537,169.568,175.022,179.325,183.568,189.628,195.082,199.355,204.808,209.657,212.687,216.93,220.377,225.829,231.284,237.344,240.791,248.518,253.367,257.61,261.883,264.913,269.763,275.823,280.125,289.216,292.246,296.489,300.731,305.58,308.611,314.671,318.118,322.421,327.57,335.448,338.479,343.328,346.775,351.624,354.644,360.715,365.553,371.624,377.684,383.139,386.169,390.412,395.261,401.321,407.381,412.22999999999996,415.666,421.726,427.786,433.241,439.301,445.066,451.126,457.186,462.641,466.943,472.398,476.671,481.52,487.58,492.429" y="164.30999999999995" svg_rhmargin="496.065" style="fill:#000000;font-family:QISGBS+LMRoman10-Regular;font-size:10.91px;font-style:NORMAL;font-weight:normal;">thermische Belastbarkeit von Betriebsmitteln sowie einzuhaltende Spannungsgrenz-</text>
  <text svg_rhmargin="187.572" x="99.213,106.786,111.635,115.908,120.151,125.0,128.316,131.347,136.801,139.832,142.863,146.179,153.602,157.876,160.906,166.361,172.421,178.481,182.723,187.572" y="180.745" style="fill:#000000;font-family:QISGBS+LMRoman10-Regular;font-size:10.91px;font-style:NORMAL;font-weight:normal;">werte [5]. Erlaubte </text>
  <text svg_rhmargin="325.116" x="190.882,197.852,204.822,210.92,217.89,224.51,231.48,238.45,244.723,249.671,255.769,262.39,271.102,276.852,280.337,285.563,292.184,299.154,306.124,312.396,318.146,325.11600000000004" y="180.745" style="fill:#000000;font-family:WWLKHN+LMRoman10-Bold;font-size:10.91px;font-style:NORMAL;font-weight:BOLD;">Spannungsabweichungen </text>
  <text x="328.476,332.779,335.809,341.869,347.92900000000003,351.245,354.276,360.336,363.652,369.712,374.561,378.834,382.14,390.473,394.413,402.595,405.911,413.335,421.517,424.833,430.287,435.742,441.196,446.651,452.106,455.411,458.442,463.896,469.351,472.382,475.698,479.03,483.879,488.182,492.425" y="180.745" svg_rhmargin="496.061" style="fill:#000000;font-family:QISGBS+LMRoman10-Regular;font-size:10.91px;font-style:NORMAL;font-weight:normal;">sind in der DIN EN 50160 [90] fest-</text>
  <text x="99.213,104.668,109.517,112.547,117.396,122.851,127.093,130.124,135.578,143.912,148.761,157.852,163.912,169.366,173.91,179.97,185.413,189.716,192.746,198.806,204.866,210.321,213.352,222.442,227.886,233.946,240.006,245.46,250.309,254.612,258.854,264.309,268.582,272.825,277.674,283.734,289.177,296.904,301.753,305.996,310.269,313.3,318.149,324.209,329.652,332.683,338.743,344.187,350.247,355.096,359.369,364.823,374.824,380.884,386.327,392.387,398.447,404.507,409.951,418.133,424.193,429.636,435.696,441.756,447.211,453.271,459.036,465.096,471.156,476.611,480.913,486.368,492.428" y="197.17999999999995" svg_rhmargin="496.064" style="fill:#000000;font-family:QISGBS+LMRoman10-Regular;font-size:10.91px;font-style:NORMAL;font-weight:normal;">gelegt. Demnach sind im ungestörten Betrieb in der MS und NS Spannungsab-</text>
  <text x="99.213,106.786,111.635,114.666,119.209,124.975,131.035,137.095,142.549,147.398,153.458,157.746,163.209,168.664,174.724,179.011,185.071,189.92,194.19299999999998,198.491,206.673,211.522,217.582,223.642,227.945,234.005,239.459,245.519,251.274,257.334,263.394,268.849,273.147,278.599,284.053,290.113,294.412,300.472,303.502,307.805,312.103,316.952,323.012,327.31,332.765,338.21999999999997,340.03,349.11999999999995,353.419,358.268,362.541,365.572,371.026,377.086,383.146,387.389,390.42,394.718,401.384,407.444,413.504,418.353,427.443,431.742,437.802,442.651,448.711,454.771,457.802,462.651,466.924,471.773,477.833,482.12,488.18,491.211" y="213.615" svg_rhmargin="496.06" style="fill:#000000;font-family:QISGBS+LMRoman10-Regular;font-size:10.91px;font-style:NORMAL;font-weight:normal;">weichungen von der Nennspannung von bis zu 10 % erlaubt. Zudem deﬁnieren die</text>
  <text x="99.213,107.243,110.274,114.817,120.572,124.814,127.845,130.876,136.936,139.966,144.815,150.875,154.595,157.626,163.08,168.535,171.566,175.274,181.334,187.394,193.454,197.164,200.194,205.649,211.103,216.558,219.589,223.297,229.357,235.417,239.69,244.234,250.294,254.014,261.438,265.711,270.56,275.398,281.469,286.924,292.984,299.044,304.498,308.801,314.255,320.315,323.346,328.8,334.255,339.104,345.164,348.873,351.904,357.964,361.673,367.733,372.582,376.855,380.564,390.564,396.624,400.334,406.394,412.464,418.524,422.234,432.234,438.294,442.003,447.455,452.304,456.578,462.638,466.911,471.213,476.668,481.211,486.977,491.219" y="230.04999999999995" svg_rhmargin="496.068" style="fill:#000000;font-family:QISGBS+LMRoman10-Regular;font-size:10.91px;font-style:NORMAL;font-weight:normal;">Richtlinien [89] und [135] durch Erzeugungsanlagen in der MS und MS verursachte</text>
  <text x="99.213,104.062,110.122,113.153,118.607,122.91,127.212,130.243,135.697,140.546,144.179,150.239,156.299,161.754,167.814,173.579,179.639,185.699,191.154,195.456,201.516,206.971,213.031,219.091,224.545,230.3,237.873,242.722,245.753,250.307,256.062,262.122,268.182,273.636,278.485,284.545,288.178,293.63,299.085,305.145,308.789,314.24399999999997,316.065,325.155,328.788,334.848,339.697,347.576,350.607,354.239,359.69399999999996,361.516,370.606" y="246.485" svg_rhmargin="373.637" style="fill:#000000;font-family:QISGBS+LMRoman10-Regular;font-size:10.91px;font-style:NORMAL;font-weight:normal;">zulässige Spannungsbandabweichungen von 2 % bzw. 3 %.</text>
  <text svg_rhmargin="309.993" x="99.213,107.94,114.91,120.66,125.827,136.281,139.765,144.714,149.94,156.91,162.66,165.78,174.704,180.454,185.333,190.499,193.984,199.734,206.704,211.652,222.106,225.59,230.469,235.348,241.098,244.582,251.901,257.651,261.136,267.234,272.182,277.061,284.031,291.0,297.273,303.023,309.99300000000005" y="278.991" style="fill:#000000;font-family:WWLKHN+LMRoman10-Bold;font-size:10.91px;font-style:NORMAL;font-weight:BOLD;">Thermische Betriebsmittelbelastungen </text>
  <text x="312.747,317.05,320.08,326.14,332.2,334.916,340.976,344.007,349.462,352.493,355.208,358.239,364.299,367.004,373.064,377.914,383.974,386.69,394.872,400.326,404.599,413.69,418.539,424.599,427.304,435.638,439.577,447.759,450.475,457.899,466.081,468.786,474.241,479.695,485.15,490.605" y="278.991" svg_rhmargin="496.06" style="fill:#000000;font-family:QISGBS+LMRoman10-Regular;font-size:10.91px;font-style:NORMAL;font-weight:normal;">sind u.a. in den Normen DIN EN 60076</text>
  <text x="99.213,102.244,107.698,113.153,118.607,121.638,126.503,132.563,138.623,144.683,149.549,157.882,161.821,170.003,174.869,183.05,191.384,198.808,203.673,209.128,214.582,220.037,225.491,230.946,236.4,241.855,247.31,252.175,255.205,260.66,266.115,271.569,274.6,279.465,285.525,290.374,296.434,302.494,305.525,310.374,314.647,318.889,321.92,326.785,333.452,339.512,343.815,349.269,353.512,358.361,361.391,364.422,368.966,375.026,379.891,385.951,390.8,396.86,402.92,405.951,410.8,415.073,419.922,425.982,430.847,439.029,443.878,448.121,452.97,459.335,464.184,468.427,472.7,477.549,480.58,486.945,491.794" y="295.426" svg_rhmargin="496.067" style="fill:#000000;font-family:QISGBS+LMRoman10-Regular;font-size:10.91px;font-style:NORMAL;font-weight:normal;">[136] und DIN VDE 0276–603 [137] deﬁniert. Zusätzlich deﬁnieren Netzbetreiber</text>
  <text x="99.213,108.304,113.758,119.516,122.546,131.637,137.092,140.122,144.971,149.204,156.931,161.78,166.022,170.296,173.326,178.175,184.235,188.538,197.628,200.659,204.901,209.144,213.993,217.024,223.389,228.238,231.269,236.723,241.026,245.268,251.328,257.388,262.843,267.692,273.752,276.783,281.026,287.086,296.176,300.409,305.864,311.924,316.227,320.5,325.349,328.379,332.923,338.983,343.832,349.892,355.963,360.812,365.045,373.075,377.924,382.227,387.076,391.349,396.801,401.65,407.71,411.954,415.287,421.347,425.62,429.852,435.912,440.762,446.822,451.065,455.308,461.368,465.004,470.458,474.701,478.337,484.553,490.007,493.038" y="311.861" svg_rhmargin="496.069" style="fill:#000000;font-family:QISGBS+LMRoman10-Regular;font-size:10.91px;font-style:NORMAL;font-weight:normal;">maximale Betriebsmittelbelastungen, um ausreichende Reserven für den (n-1)-Fall</text>
  <text x="99.213,105.578,110.428,114.701,119.55,122.58,126.823,131.672,137.732,143.792,149.246,152.277,156.52,161.369,167.429,170.46,173.405,181.738,184.769,189.618,192.563,196.806,202.866,206.502,211.956,216.199,219.835,224.137,227.168,231.712,237.772,242.621,246.894,251.743,254.688,261.954,266.803,271.076,275.379,280.833,285.106,290.561,296.621,302.681,308.13599999999997,311.081,314.111,318.414,322.657,325.602,330.451,333.482,339.54200000000003,342.487,347.942,354.002,359.456,364.305,371.878,377.333,383.393,389.453,393.695,398.544,402.817,405.763,413.187,416.217,421.672,427.426,433.486,439.546,445.001,449.303,454.758,459.031,465.091,471.151,477.211,481.514,486.968,491.211" y="328.296" svg_rhmargin="496.06" style="fill:#000000;font-family:QISGBS+LMRoman10-Regular;font-size:10.91px;font-style:NORMAL;font-weight:normal;">bereitzuhalten. Die (n-1)-sichere Versorgung ist ein angewandter Planungsgrundsatz</text>
  <text x="99.213,102.546,108.606,112.87899999999999,115.715,122.533,127.988,132.29,136.533,141.382,147.442,150.278,153.309,159.369,162.216,168.276,173.125,177.398,180.235,190.235,196.295,199.326,202.162,210.041,213.071,217.344,223.404,226.241,231.695,238.061,242.91,247.183,250.019,256.079,260.928,265.201,270.05,274.9,277.93,282.173,285.009,291.069,294.1,298.643,304.409,308.652,311.488,314.82,320.88,325.153,327.99,334.808,340.263,344.565,348.808,353.657,359.717,362.553,365.584,371.644,374.491,380.551,385.4,389.673,392.509,400.691,406.751,409.588,413.89,419.039,426.918,429.948,434.79699999999997,437.645,445.068,449.342,454.18,459.029,465.089,470.543,476.614,482.674,488.129,492.431" y="344.731" svg_rhmargin="496.067" style="fill:#000000;font-family:QISGBS+LMRoman10-Regular;font-size:10.91px;font-style:NORMAL;font-weight:normal;">für Lasten in der MS, wird aber derzeit nicht für Lasten in der NS sowie Erzeugungs-</text>
  <text x="99.213,104.668,110.728,113.758,119.213,124.667,129.516,135.576,139.209,142.24,148.3,151.943,158.003,162.852,167.125,170.758,180.758,186.818,190.451,196.511,202.571,208.631,212.275,220.457,226.517,230.149,235.604,241.664,247.119,251.968,259.541,264.39,270.45,276.51,281.359,285.602,289.245,292.276,297.73,300.761" y="361.166" svg_rhmargin="303.792" style="fill:#000000;font-family:QISGBS+LMRoman10-Regular;font-size:10.91px;font-style:NORMAL;font-weight:normal;">anlagen in der MS und NS angewendet [4].</text>
  <text x="99.213,107.546,110.577,115.426,120.695,126.755,129.786,134.635,138.908,144.177,149.629,154.478,158.752,166.325,171.174,177.234,183.294,188.143,192.385,197.235,203.29500000000002,208.564,213.413,219.473,222.503,227.958,232.26,236.563,239.593,245.048,249.897,255.957,261.226,268.953,273.802,278.045,282.318,285.348,290.197,296.257,300.56,309.651,312.681,316.924,321.166,326.015,329.046,335.411,340.26,343.291,348.746,353.048,357.291,363.351,369.411,374.865,379.714,385.774,391.043,397.103,403.163,409.223,414.492,420.552,426.612,432.067,438.127,443.882,449.942,456.002,461.456,465.759,471.213,476.968,484.552,489.401,492.431" y="393.671" svg_rhmargin="496.067" style="fill:#000000;font-family:QISGBS+LMRoman10-Regular;font-size:10.91px;font-style:NORMAL;font-weight:normal;">Die hier verwendeten zulässigen Betriebsmittelbelastungen und Spannungsabwei-</text>
  <text x="99.213,103.757,109.511,115.571,121.631,127.086,131.935,137.995,143.057,147.359,150.39,156.45,162.51,167.572,170.602,176.662,181.724,187.784,192.633,198.693,203.755,210.728,216.183,222.548,227.397,230.428,233.447,238.296,244.356,249.418,254.873,257.903,263.358,268.42,274.48,280.54,286.6,291.661,297.116,300.147,305.602,310.663,316.117,322.177,325.51,330.965,335.814,338.844,341.875,346.178,350.42,355.269,359.512,362.543,367.615,375.948,381.403,387.758,392.607,395.63800000000003,400.699,408.272,413.121,417.394,423.454,428.303,434.363,439.425,442.758,447.60699999999997,452.669,458.729,464.183,468.727,474.787,479.849,487.576,492.425" y="410.107" svg_rhmargin="496.061" style="fill:#000000;font-family:QISGBS+LMRoman10-Regular;font-size:10.91px;font-style:NORMAL;font-weight:normal;">chungen sind in den Tabellen 6.3 und 6.2 aufgelistet. Dabei werden je nach Be-</text>
  <text x="99.213,103.456,107.729,110.759,115.608,121.668,125.971,129.304,134.758,137.789,140.82,145.379,151.439,157.194,161.436,166.285,170.558,174.861,179.405,185.465,188.495,193.344,199.404,202.435,205.465,210.02,216.08,220.929,225.489,233.216,238.065,242.308,246.57,249.6,254.449,260.509,264.812,273.903,276.933,281.176,285.418,290.267,293.298,299.663,304.512,307.543,312.997,317.3,321.543,327.603,333.663,339.117,343.966,350.026,354.586,359.435,365.495,370.95,375.799,378.829,384.284,388.587,392.889,397.738,403.798,406.829,411.389,417.449,420.479,425.934,428.96500000000003,433.535,438.99,445.05,448.383,453.837,458.11,464.17,470.23,476.29,480.85,486.91,491.759" y="426.542" svg_rhmargin="496.062" style="fill:#000000;font-family:QISGBS+LMRoman10-Regular;font-size:10.91px;font-style:NORMAL;font-weight:normal;">triebsfall unterschiedliche Betriebsmittelbelastungen zugelassen, u.a. aufgrund des</text>
  <text x="99.213,104.668,109.517,115.577,121.031,127.091,132.846,137.088,141.937,147.997,151.02800000000002,156.035,161.49,167.55,173.004,177.853,185.426,190.881,196.941,203.012,207.255,212.093,218.153,223.16,230.584,233.614,239.069,244.834,250.894,256.954,262.409,266.711,272.166,276.439,282.499,288.559,294.619,298.921,304.376,308.619,313.468,318.317,322.62,327.627,333.687,338.536,342.839,347.845,352.088,358.148,361.784,367.239,371.481,375.117,379.42,382.45,386.994,393.054,397.903,402.176,407.025,413.085,418.092,426.274,432.334,436.637,441.18,447.24,450.271,456.331,460.634,464.936,469.785,474.088,479.095,484.547,490.002" y="442.977" svg_rhmargin="496.062" style="fill:#000000;font-family:QISGBS+LMRoman10-Regular;font-size:10.91px;font-style:NORMAL;font-weight:normal;">genannten, angewandten Planungsgrundsatzes des (n-1)-sicheren Anschlusses von</text>
  <text x="99.213,106.489,111.338,115.612,121.672,125.945,131.399,137.459,142.003,148.063,152.912,157.185,163.245,166.878,169.908,175.968,179.601,185.672,190.51,194.783,198.427,208.427,214.487" y="459.412" svg_rhmargin="217.518" style="fill:#000000;font-family:QISGBS+LMRoman10-Regular;font-size:10.91px;font-style:NORMAL;font-weight:normal;">Verbrauchern in der MS.</text>
  <text x="180.94,190.758,196.508,201.387,206.963,212.713,220.032,225.782,232.752,238.502,250.458,258.125,265.095,268.579,274.677,279.626,284.574,288.059,294.331,300.081,304.26,311.23,318.199,324.298,331.267,337.888,344.858,351.828,358.1,363.049,369.147,376.117,383.087,388.837,394.003,400.973,407.943" y="483.154" svg_rhmargin="414.216" style="fill:#000000;font-family:WWLKHN+LMRoman10-Bold;font-size:10.91px;font-style:NORMAL;font-weight:BOLD;">Netzebene Zulässige Spannungsänderung</text>
  <text x="180.94,190.94,197.0,343.433,347.069,352.524,355.554,361.009,370.099,373.732,379.187,382.819,391.305,396.759,399.79,405.244" y="497.102" svg_rhmargin="414.335" style="fill:#000000;font-family:QISGBS+LMRoman10-Regular;font-size:10.91px;font-style:NORMAL;font-weight:normal;">MS -1,5% / +5,0%</text>
  <text x="180.94,190.94,197.0,200.636,208.818,214.87800000000001,343.431,347.067,352.522,355.552,361.007,370.097,373.73,379.185,382.817,391.302,396.757,399.787,405.242" y="510.651" svg_rhmargin="414.333" style="fill:#000000;font-family:QISGBS+LMRoman10-Regular;font-size:10.91px;font-style:NORMAL;font-weight:normal;">MS-NS -2,0% / +1,5%</text>
  <text x="180.94,189.122,195.18200000000002,343.426,347.062,352.516,355.547,361.001,370.09099999999995,373.735,379.19,382.823,391.308,396.762,399.793,405.247" y="524.2" svg_rhmargin="414.338" style="fill:#000000;font-family:QISGBS+LMRoman10-Regular;font-size:10.91px;font-style:NORMAL;font-weight:normal;">NS -6,5% / +3,5%</text>
  <text x="150.32,157.293,162.748,169.113,173.951,176.982,180.012,184.861,188.505,193.96,196.99,202.445,205.476,209.108,216.384,221.233,225.507,233.08,237.929,243.989,250.049,254.898,259.14,263.989,267.622,273.682,279.742,285.197,291.257,297.011,303.082,309.142,314.597,318.899,324.959,330.414,336.474,342.534,347.988,354.048,357.381,361.624,366.473,369.503,372.534,378.594,384.654,390.109,393.741,399.801,405.256,409.799,415.859,419.503,422.534,427.988,433.443,438.897,441.928" y="551.0989999999999" svg_rhmargin="444.959" style="fill:#000000;font-family:QISGBS+LMRoman10-Regular;font-size:10.91px;font-style:NORMAL;font-weight:normal;">Tabelle 6.2: Verwendete Spannungsbandaufteilung nach [138].</text>
  <text x="159.534,168.458,174.208,179.086,184.253,187.737,193.487,200.457,205.406,215.86,219.344,224.223,229.101,234.852,238.336,280.729,287.698,292.577,298.675,303.842,310.464,313.948,320.046,324.994,329.873,333.706,339.805,343.289,346.77299999999997,358.752,367.812,374.781,380.008,386.63,391.578,398.897,404.647,408.132,413.08,418.83,422.664,428.762,432.246" y="602.7280000000001" svg_rhmargin="435.73" style="fill:#000000;font-family:WWLKHN+LMRoman10-Bold;font-size:10.91px;font-style:NORMAL;font-weight:BOLD;">Betriebsmittel Starklastfall Rückspeisefall</text>
  <text x="159.534,168.019,173.474,179.839,184.688,187.719,190.75,194.382,204.382,210.442,326.788,332.242,337.697,346.787,410.289,415.744,421.199,426.653" y="616.6759999999999" svg_rhmargin="435.744" style="fill:#000000;font-family:QISGBS+LMRoman10-Regular;font-size:10.91px;font-style:NORMAL;font-weight:normal;">Kabel, MS 50% 100%</text>
  <text x="159.534,168.019,173.474,179.839,184.688,187.719,190.75,194.382,202.564,208.624,321.337,326.791,332.246,337.7,346.78999999999996,410.293,415.747,421.202,426.656" y="630.225" svg_rhmargin="435.747" style="fill:#000000;font-family:QISGBS+LMRoman10-Regular;font-size:10.91px;font-style:NORMAL;font-weight:normal;">Kabel, NS 100% 100%</text>
  <text x="159.534,166.507,170.78,176.235,182.295,186.597,189.93,195.385,199.658,208.748,214.203,218.445,223.9,228.173,231.204,234.836,243.018,249.078,252.714,262.714,268.774,326.789,332.244,337.698,346.78799999999995,410.291,415.745,421.2,426.654" y="644.172" svg_rhmargin="435.745" style="fill:#000000;font-family:QISGBS+LMRoman10-Regular;font-size:10.91px;font-style:NORMAL;font-weight:normal;">Transformator, HS-MS 50% 100%</text>
  <text x="159.534,166.507,170.78,176.235,182.295,186.597,189.93,195.385,199.658,208.748,214.203,218.445,223.9,228.173,231.204,234.836,244.837,250.897,254.533,262.714,268.774,321.334,326.789,332.244,337.698,346.78799999999995,410.291,415.745,421.2,426.654" y="657.722" svg_rhmargin="435.745" style="fill:#000000;font-family:QISGBS+LMRoman10-Regular;font-size:10.91px;font-style:NORMAL;font-weight:normal;">Transformator, MS-NS 100% 100%</text>
  <text x="99.213,106.186,111.641,117.995,122.844,125.875,128.905,133.754,137.398,142.853,145.883,151.338,154.369,158.001,165.277,170.127,174.4,181.973,186.822,192.882,198.942,203.791,208.033,212.88199999999998,215.741,220.59,226.65,229.68,235.135,239.437,243.74,246.771,252.225,257.074,259.932,267.659,272.508,276.751,281.024,284.055,288.904,294.964,299.266,308.357,311.387,315.63,319.872,324.722,327.752,334.118,338.967,341.997,347.452,351.754,355.997,362.057,368.117,373.571,378.42,384.48,387.339,390.369,399.459,402.329,408.389,414.449,419.903,424.752,429.055,433.298,438.752,443.025,447.268,452.117,458.177,461.035,468.762,473.611,477.854,482.127,485.157,490.006" y="684.621" svg_rhmargin="496.066" style="fill:#000000;font-family:QISGBS+LMRoman10-Regular;font-size:10.91px;font-style:NORMAL;font-weight:normal;">Tabelle 6.3: Verwendete zulässige Betriebsmittelbelastungen im ungestörten Betrieb</text>
  <text svg_rhmargin="209.218" x="158.0,164.06,169.515,174.058,180.118,183.762,186.792,192.247,197.701,203.156,206.187,209.21800000000002" y="760.179" style="fill:#000000;font-family:QISGBS+LMRoman10-Regular;font-size:10.91px;font-style:NORMAL;font-weight:normal;">nach [138]. </text>
  <text x="479.699,485.154,490.608" y="760.179" svg_rhmargin="496.063" style="fill:#4d4d4d;font-family:QISGBS+LMRoman10-Regular;font-size:10.91px;font-style:NORMAL;font-weight:normal;">125</text>
 </g>
</svg>
