<?xml version="1.0" encoding="UTF-8"?>
<svg height="770.179" width="506.635603524" xmlns="http://www.w3.org/2000/svg">
 <g style="fill:none;">
  <text x="401.517,408.335,411.366,415.608,420.457,424.73,430.185,434.428,440.488,444.761,450.213,455.062,459.335,464.184,469.033,472.064,476.608,482.668,488.728,491.758" y="29.30499999999995" svg_rhmargin="496.061" style="fill:#4d4d4d;font-family:QISGBS+LMRoman10-Regular;font-size:10.91px;font-style:NORMAL;font-weight:normal;">Literaturverzeichnis</text>
  <text svg_rhmargin="295.163" x="127.091,134.492,139.51,144.528,147.874,152.892,160.14,164.601,167.947,173.172,180.572,186.705,191.723,195.767,200.785,206.081,211.307,216.883,223.016,228.59199999999998,233.817,241.217,247.35,252.368,255.714,259.758,265.333,271.466,280.388,285.406,291.539,295.163" y="66.06399999999996" style="fill:#000000;font-family:RSQXPN+LMRoman10-Italic;font-size:10.91px;font-style:italic;font-weight:normal;">Reviews: Energy and Environment </text>
  <text svg_rhmargin="307.253" x="300.98,307.25300000000004" y="66.06399999999996" style="fill:#000000;font-family:WWLKHN+LMRoman10-Bold;font-size:10.91px;font-style:NORMAL;font-weight:BOLD;">3 </text>
  <text svg_rhmargin="456.633" x="312.325,317.78,323.234,328.689,334.143,339.598,345.052,350.507,355.58,359.519,365.579,371.639,379.821,384.893,390.348,395.803,401.257,406.712,412.166,417.621,423.075,428.53,433.603,441.784,449.815,456.633" y="66.06399999999996" style="fill:#000000;font-family:QISGBS+LMRoman10-Regular;font-size:10.91px;font-style:NORMAL;font-weight:normal;">490–504 ISSN 20418396 URL </text>
  <text x="461.699,467.426,473.154,478.881,484.608,490.335" y="66.06399999999996" svg_rhmargin="496.062" style="fill:#000000;font-family:XHTPUD+LMMono10-Regular;font-size:10.91px;font-style:NORMAL;font-weight:normal;">https:</text>
  <text x="127.091,132.818,138.546,144.273,150.0,155.727,161.455,167.182,172.909,178.637,184.364,190.091,195.818,201.546,207.273,213.0,218.727,224.455,230.182,235.909,241.637,247.364,253.091,258.818,264.546,270.273" y="82.49900000000002" svg_rhmargin="276.0" style="fill:#000000;font-family:XHTPUD+LMMono10-Regular;font-size:10.91px;font-style:NORMAL;font-weight:normal;">//doi.org/10.1002/wene.109</text>
  <text x="110.122,113.153,118.607,121.638,127.092,135.577,141.032,144.062,150.122,154.971,164.062,168.911,174.363,179.213,183.486,189.529,197.408,200.439,206.493,212.553,218.008,222.25,228.31,233.159,239.214,249.214,252.245,258.288,266.47,269.501,272.531,278.897,283.746,288.019,292.262,298.305,304.365,310.42,315.874,321.934,327.994,334.038,345.25,348.281,354.341,359.795,364.644,370.399,376.459,381.913,386.468,392.528,398.572,406.45,412.494,417.948,423.403,428.857,434.312,440.367,444.609,451.731,454.761,459.004,463.853,469.913,474.215,480.275,486.335,490.608" y="105.74300000000005" svg_rhmargin="496.063" style="fill:#000000;font-family:QISGBS+LMRoman10-Regular;font-size:10.91px;font-style:NORMAL;font-weight:normal;">[7] Kaldemeyer C, Söthe M, Hilpert S and Wingenbach C 2017 (Fl)ensburg</text>
  <text svg_rhmargin="424.626" x="127.091,131.334,138.757,144.817,149.06,153.909,158.182,163.636,169.394,172.1,176.342,182.402,186.645,191.494,196.343,202.403,207.858,212.131,215.161,220.616,224.919,227.635,231.271,233.976,242.158,249.582,257.006,259.711,265.771,270.62,275.469,281.529,286.983,291.257,294.287,299.742,304.045,306.761,310.093,315.548,319.821,322.526,327.981,333.436,338.89,344.345,349.799,355.254,360.708,366.163,371.617,377.072,382.527,387.981,393.436,398.89099999999996,401.596,409.778,417.808,424.626" y="122.178" style="fill:#000000;font-family:QISGBS+LMRoman10-Regular;font-size:10.91px;font-style:NORMAL;font-weight:normal;">(En)ergy (S)cenarios - NEP Scenarios for 2014/2025/2035 URL </text>
  <text x="427.336,433.063,438.791,444.518,450.245,455.972,461.7,467.427,473.154,478.881,484.609,490.336" y="122.178" svg_rhmargin="496.063" style="fill:#000000;font-family:XHTPUD+LMMono10-Regular;font-size:10.91px;font-style:NORMAL;font-weight:normal;">https://osf.</text>
  <text x="127.091,132.818,138.546,144.273,150.0,155.727,161.455,167.182,172.909" y="138.61300000000006" svg_rhmargin="178.636" style="fill:#000000;font-family:XHTPUD+LMMono10-Regular;font-size:10.91px;font-style:NORMAL;font-weight:normal;">io/rz7fq/</text>
  <text x="110.122,113.153,118.607,121.638,127.092,135.653,140.502,144.775,150.835,156.289,162.349,165.38,170.229,174.472,178.89,186.76799999999997,191.175,196.63,202.69,208.75,213.168,221.653,227.713,233.773,238.62199999999999,243.041,250.162,254.58,260.035,265.489,270.944,276.399,280.806,289.139,294.594,298.836,304.291,308.709,314.769,319.042,324.191,329.949,332.98,339.051,343.889,349.949,354.367,360.132,365.89,370.297,378.783,385.148,389.997,396.057,400.475,407.593,412.743,420.327,425.176,429.449,433.856,439.916,445.674,449.976,454.219,459.068,468.15799999999996,472.577,480.91,486.365,490.607" y="161.85699999999997" svg_rhmargin="496.062" style="fill:#000000;font-family:QISGBS+LMRoman10-Regular;font-size:10.91px;font-style:NORMAL;font-weight:normal;">[8] Gerbaulet C and Kunz F 2016 Data provided by Open Power System Data</text>
  <text x="127.091,130.727,134.371,142.704,148.159,152.401,157.85600000000002,161.51,168.628,174.083,178.627,184.385,189.839,195.294,200.143,203.786,211.665,217.119,222.885,228.337,233.186,238.941,243.183,246.214,251.669,257.729,263.183,266.214,269.857,276.223,281.372,288.956,293.805,298.07800000000003,301.722,307.782,310.812,316.267,322.021,326.264,330.566,333.597,337.241,342.704,347.553,351.815,356.129,359.159,364.614,370.674,374.317,379.772,385.227,390.681,396.136,399.772,405.226,410.681,414.317,419.771,425.226,428.257,431.9,439.324,443.597,446.627,455.718,461.172,465.446,471.204,474.847,480.907,486.362,490.604" y="178.29200000000003" svg_rhmargin="496.059" style="fill:#000000;font-family:QISGBS+LMRoman10-Regular;font-size:10.91px;font-style:NORMAL;font-weight:normal;">- Data Package Conventional power plants, version 2016-02-08. Primary data</text>
  <text x="127.091,130.424,134.697,140.151,149.241,154.576,162.303,170.485,175.323,179.566,184.415,192.59699999999998,197.931,206.417,210.69,216.144,219.477,223.414,230.987,235.836,240.109,245.867,250.17,253.2,256.231,260.533,264.776,269.625,272.656,277.99,286.172,294.957,302.53,307.379,310.41,314.652,320.712,326.772,332.832,338.892,343.741,348.044,353.498,362.284,366.527,371.861,380.194,385.649,389.891,394.74,400.495,406.555,412.009,418.069,423.827,429.162,437.647,441.92,447.375,450.707,454.644,462.217,467.067,471.34,476.792,481.64099999999996,486.976,490.006" y="194.72699999999998" svg_rhmargin="496.066" style="fill:#000000;font-family:QISGBS+LMRoman10-Regular;font-size:10.91px;font-style:NORMAL;font-weight:normal;">from BNetzA Kraftwerksliste, Umweltbundesamt Datenbank Kraftwerke in</text>
  <text svg_rhmargin="212.761" x="127.091,135.424,140.274,146.334,150.576,154.879,159.422,165.482,168.513,173.967,180.027,186.087,189.731,197.913,205.943,212.76100000000002" y="211.16200000000003" style="fill:#000000;font-family:QISGBS+LMRoman10-Regular;font-size:10.91px;font-style:NORMAL;font-weight:normal;">Deutschland URL </text>
  <text x="216.394,222.121,227.849,233.576,239.303,245.03,250.758,256.485,262.212,267.939,273.667,279.394,285.623,291.35,297.078,302.805,308.532,314.259,320.478,326.205,331.932,337.659,343.387,349.114,354.841,361.07,366.798,372.525,378.252,383.979,389.707,395.434,401.161,406.888" y="211.16200000000003" svg_rhmargin="412.615" style="fill:#000000;font-family:XHTPUD+LMMono10-Regular;font-size:10.91px;font-style:NORMAL;font-weight:normal;">http://open-power-system-data.org/</text>
  <text x="110.122,113.153,118.607,121.638,127.092,134.819,140.879,146.939,152.391,157.23999999999998,160.546,171.75799999999998,175.064,183.397,186.703,192.157,197.612,203.066,208.52100000000002,211.815,220.149,225.604,229.846,235.30100000000002,238.606,244.666,248.939,254.088,259.846,262.877,268.937,273.786,279.846,283.151,288.906,294.664,297.969,306.454,312.82,317.669,323.729,327.034,334.152,339.301,346.885,351.724,355.997,359.302,365.362,371.12,375.422,379.665,384.514,393.604,396.91,405.244,410.698,414.941,420.39599999999996,423.701,427.33700000000005,430.642,438.976,444.43,448.673,454.128,457.422,464.551,470.005,474.549,480.307,485.762,491.216" y="234.40599999999995" svg_rhmargin="496.065" style="fill:#000000;font-family:QISGBS+LMRoman10-Regular;font-size:10.91px;font-style:NORMAL;font-weight:normal;">[9] Bunke W D 2016 Data provided by Open Power System Data - Data Package</text>
  <text x="127.091,135.121,139.97,146.03,150.879,158.452,163.907,169.967,172.998,177.84699999999998,180.476,186.841,191.99,199.574,204.412,208.685,211.315,217.386,220.416,225.871,231.625,235.868,240.17,243.201,245.83,250.679,256.134,260.407,263.437,269.195,271.824,277.277,282.126,286.399,290.701,293.732,299.186,305.246,307.875,313.33,318.785,324.239,329.694,333.33,338.784,344.239,347.875,353.329,358.784,361.815,364.444,371.867,376.14,379.171,388.261,393.716,397.989,403.74699999999996,406.376,412.436,417.891,422.133,427.58799999999997,430.217,433.56,437.833,443.288,452.378,455.008,462.735,470.916,475.766,480.008,484.846,493.028" y="250.841" svg_rhmargin="496.059" style="fill:#000000;font-family:QISGBS+LMRoman10-Regular;font-size:10.91px;font-style:NORMAL;font-weight:normal;">Renewable power plants, early version 2016-02-10. Primary data from BNetzA,</text>
  <text x="127.091,134.818,143.0,147.849,152.091,156.94,165.122,173.304,180.728,188.91,191.941,195.889,202.862,207.135,212.59,218.65,222.953,229.013,233.862,238.104,245.831,257.043,260.074,264.023,270.996,275.845,281.905,287.965,292.814,300.693,303.724,307.673,315.854,324.945,331.005,335.278,338.309,343.763,349.823,352.854,356.803,362.257,367.712,375.894,380.743,385.016,389.258,394.108,397.139,401.098,409.28,414.129,418.372,423.21,427.452,431.725,437.18,443.24,447.553,453.613,459.068,463.341,468.19,474.25,479.099,482.119,488.19,493.028" y="267.27599999999995" svg_rhmargin="496.059" style="fill:#000000;font-family:QISGBS+LMRoman10-Regular;font-size:10.91px;font-style:NORMAL;font-weight:normal;">BNetzA_PV, TransnetBW, TenneT, Amprion, 50Hertz, Netztransparenz.de,</text>
  <text x="127.091,134.209,139.664,143.966,148.209,151.239,156.088,159.119,163.362,168.211,173.665,179.725,182.756,187.605,193.665,196.665,204.998,209.847,215.907,220.15,224.453,228.996,235.056,238.087,243.541,249.601,255.661,258.692,261.692,269.115,275.175,280.025,284.298,289.752,292.783,298.843,303.692,307.934,310.965,317.025,322.783,325.814,328.813,336.237,342.297,347.146,351.419,356.874,359.904,364.207,368.144,373.902,378.175,383.024,386.054,390.357,395.206,401.266,404.297,407.297,415.857,420.706,426.161,434.342,439.797,448.888,453.737,458.039,461.07,464.059,470.275,474.548,479.397,485.457,490.001" y="283.711" svg_rhmargin="496.061" style="fill:#000000;font-family:QISGBS+LMRoman10-Regular;font-size:10.91px;font-style:NORMAL;font-weight:normal;">Postleitzahlen Deutschland, Energinet.dk, Energistyrelsen, GeoNames, French</text>
  <text x="127.091,137.091,140.122,146.182,149.212,153.515,157.758,162.607,166.88,172.638,178.038,183.492,186.825,192.236,196.478,202.538,207.387,212.787,220.211,225.966,231.723,234.754,239.027,244.482,250.542,259.632,264.481,270.247,274.489,277.52,282.92,290.343,296.403,301.253,305.526,310.98,316.738,322.138,327.593,333.653,339.713,345.124,349.366,355.426,360.275,365.675,371.735,376.584,382.039,385.07,390.48,398.965,405.32,410.169,416.229,424.562,430.017,434.26,439.714,445.774,451.229,454.572,458.815,461.846,467.245,475.427,479.7,484.549,490.004" y="300.146" svg_rhmargin="496.064" style="fill:#000000;font-family:QISGBS+LMRoman10-Regular;font-size:10.91px;font-style:NORMAL;font-weight:normal;">Ministery of the Environment, Energy and the Sea, OpenDataSoft, Urzad</text>
  <text svg_rhmargin="288.635" x="127.091,135.121,139.97,145.425,151.485,154.515,159.97,164.819,168.152,171.183,174.815,182.239,188.299,193.148,197.421,202.875,207.725,211.662,217.419,223.177,226.208,229.851,234.094,242.276,250.306,257.73,261.973,265.605,273.787,281.817,288.635" y="316.582" style="fill:#000000;font-family:QISGBS+LMRoman10-Regular;font-size:10.91px;font-style:NORMAL;font-weight:normal;">Regulacji Energetyki (URE) URL </text>
  <text x="292.273,298.0,303.728,309.455,315.182,320.909,326.637,332.364,338.091,343.818,349.546,355.273,361.502,367.229,372.957,378.684,384.411,390.138,396.357,402.084,407.811,413.538,419.266,424.993,430.72,436.949,442.676,448.404,454.131,459.858,465.586,471.313,477.04,482.767" y="316.582" svg_rhmargin="488.494" style="fill:#000000;font-family:XHTPUD+LMMono10-Regular;font-size:10.91px;font-style:NORMAL;font-weight:normal;">http://open-power-system-data.org/</text>
  <text x="104.667,107.698,113.152,118.607,121.638,127.092,134.515,142.697,150.576,156.636,165.121,168.757,176.181,179.977,185.431,190.886,196.341,201.79600000000002,205.591,211.651,216.501,221.35,227.41,232.864,237.137,240.168,245.62300000000002,249.419,257.904,263.964,268.206,271.237,276.997,282.451,288.209,292.006,300.491,304.276,312.163,318.223,323.073,328.83,334.89,340.345,345.194,350.952,354.748,360.953,366.408,370.681,375.53,380.379,385.834,390.136,394.379,398.175,402.418,408.478,416.963,425.448,433.63,440.751,444.99399999999997,448.79,454.245,459.699,465.154,470.608,474.244,479.699,485.154,490.608" y="339.825" svg_rhmargin="496.063" style="fill:#000000;font-family:QISGBS+LMRoman10-Regular;font-size:10.91px;font-style:NORMAL;font-weight:normal;">[10] ENTSO-E 2015 Scenario Outlook &amp; Adequacy Forecast (SO&amp;AF) 2014-2030</text>
  <text x="127.091,135.424,140.879,145.122,150.576,154.879,159.728,163.971,168.694,175.656,180.505,185.06,191.12,194.151,198.863,203.136,207.985,214.045,217.076,221.799,229.223,237.405,245.283,251.343,259.829,263.465,270.88899999999995,275.612,281.067,285.79,293.214,299.274,303.547,309.001,315.367,320.205,325.66,331.72,336.443,344.625,349.474,353.411,360.995,366.45,370.723,376.481,381.193,386.648,389.98100000000005,394.704,401.677,405.95,411.405,417.465,421.768,430.858,433.889,438.191,442.494,445.524,450.979,457.039,461.763,467.823,473.58,477.883,482.125,486.975" y="356.26" svg_rhmargin="496.066" style="fill:#000000;font-family:QISGBS+LMRoman10-Regular;font-size:10.91px;font-style:NORMAL;font-weight:normal;">Dataset Tech. rep. ENTSO-E – European Network of Transmission System</text>
  <text svg_rhmargin="290.667" x="127.091,135.576,141.942,146.791,151.064,156.518,160.761,166.215,170.488,174.791,184.958,188.291,193.746,198.019,208.197,215.621,218.651,223.5,228.349,232.592,236.865,239.895,244.745,247.775,251.712,257.46999999999997,267.637,275.819,283.849,290.667" y="372.695" style="fill:#000000;font-family:QISGBS+LMRoman10-Regular;font-size:10.91px;font-style:NORMAL;font-weight:normal;">Operators for Electricity URL </text>
  <text x="300.838,306.565,312.293,318.02,323.747,329.474,335.202,340.929,346.656,352.383,358.111,363.838,369.565,375.292,381.02,386.747,392.474,398.202,403.929,409.656,415.383,421.111,426.838,432.565,438.292,444.02,449.747,455.474,461.201,466.929,472.656,478.383,484.11,489.838" y="372.695" svg_rhmargin="495.565" style="fill:#000000;font-family:XHTPUD+LMMono10-Regular;font-size:10.91px;font-style:NORMAL;font-weight:normal;">www.entsoe.eu/publications/system-</text>
  <text x="127.091,132.818,138.546,144.273,150.0,155.727,161.455,167.182,172.909,178.637,184.364,190.091,196.32,202.047,207.775,213.502,219.229,224.957,230.684,236.411,242.138,247.866,253.593,259.32,265.048,270.775,276.502,282.229,287.957,294.175,299.902,305.629,311.357,317.084,322.811,328.538,334.266,339.993,345.72,351.447,357.175,362.902,368.629,374.356,380.586,386.313,392.04,397.767,403.495,409.724,415.451,421.178,426.905,432.633,438.36,444.087,449.815,455.542,461.269,466.996" y="389.131" svg_rhmargin="472.723" style="fill:#000000;font-family:XHTPUD+LMMono10-Regular;font-size:10.91px;font-style:NORMAL;font-weight:normal;">development-reports/adequacy-forecasts/soaf-2014-2030/Pages/</text>
  <text x="127.091,132.818,138.546,144.273,150.0,155.727,161.455,167.182,172.909,178.637,184.364,190.091" y="405.566" svg_rhmargin="195.818" style="fill:#000000;font-family:XHTPUD+LMMono10-Regular;font-size:10.91px;font-style:NORMAL;font-weight:normal;">default.aspx</text>
  <text x="104.667,107.698,113.152,118.607,121.638,127.092,134.515,142.697,150.576,156.636,165.121,168.757,176.181,181.384,186.233,189.869,198.051,201.082,206.536,212.302,219.875,225.024,230.782,236.236,241.691,247.145,252.60000000000002,257.814,265.238,269.511,275.26,278.593,283.442,288.291,292.534,297.748,306.309,310.582,316.036,322.096,328.156,333.36,338.814,344.269,349.724,355.179,360.393,365.242,368.878,377.06,380.999,389.559,397.741,407.743,415.008,423.19,428.404,433.859,439.314,444.768,450.22299999999996,455.426,465.427,471.187,477.247,483.307,486.337,491.792" y="428.809" svg_rhmargin="496.065" style="fill:#000000;font-family:QISGBS+LMRoman10-Regular;font-size:10.91px;font-style:NORMAL;font-weight:normal;">[11] ENTSO-E e-Highway2050 Project Group 2015 e-HIGHWAY 2050 Modular</text>
  <text x="127.091,135.424,140.274,145.726,150.575,153.606,159.06,165.12,174.211,179.06,184.814,189.057,192.275,199.699,202.729,208.184,214.244,217.451,222.906,226.239,229.457,233.699,239.759,244.60799999999998,247.815,254.945,260.399,266.459,270.095,277.519,283.579,287.852,293.306,299.672,304.521,309.976,316.036,319.243,326.216,330.489,335.944,342.004,346.306,355.397,358.427,362.73,367.032,370.063,375.517,381.577,384.785,390.845,396.602,400.916,405.158,409.997,419.087,422.305,427.76,433.215,438.669,444.12399999999997,447.331,450.96700000000004,454.185,460.245,465.7,469.942,475.397,481.457,486.911,491.214" y="445.245" svg_rhmargin="496.063" style="fill:#000000;font-family:QISGBS+LMRoman10-Regular;font-size:10.91px;font-style:NORMAL;font-weight:normal;">Development Plan of the Pan-European Transmission System 2050 - database</text>
  <text svg_rhmargin="214.437" x="127.091,133.456,138.306,142.579,148.797,153.646,159.1,165.16,170.915,175.158,179.431,185.18900000000002,191.407,199.589,207.619,214.437" y="461.68" style="fill:#000000;font-family:QISGBS+LMRoman10-Regular;font-size:10.91px;font-style:NORMAL;font-weight:normal;">per country URL </text>
  <text x="220.656,226.383,232.111,237.838,243.565,249.292,255.02,260.747,266.474,272.202,277.929,283.656,289.383,295.612,301.34,307.067,312.794,318.521,324.249,329.976,335.703,341.431,347.158,352.885,358.612,364.34,370.067,375.794,381.521,387.249,392.976,398.703,404.43,410.158,415.885,421.612,427.339,433.067,438.794,444.521,450.249,455.976,461.703,467.43,473.158,478.885,484.612,490.339" y="461.68" svg_rhmargin="496.066" style="fill:#000000;font-family:XHTPUD+LMMono10-Regular;font-size:10.91px;font-style:NORMAL;font-weight:normal;">http://www.e-highway2050.eu/fileadmin/documents/</text>
  <text x="127.091,132.818,138.546,144.273,150.0,155.727,161.455,167.182,172.909,178.637,184.866,190.593,196.32,202.047,207.775,213.502,219.229,224.957,230.684,236.411,242.138,247.866,253.593,259.32,265.048,270.775,276.502,282.229,287.957,293.684,299.411,305.138,310.866,316.593,322.32,328.047,333.775,339.502,345.229,351.447,357.175,362.902,368.629,374.356,380.084,385.811,391.538,397.266,402.993,408.72,414.447,420.175" y="478.115" svg_rhmargin="425.902" style="fill:#000000;font-family:XHTPUD+LMMono10-Regular;font-size:10.91px;font-style:NORMAL;font-weight:normal;">Results/e-Highway_database_per_country-08022016.xlsx</text>
  <text svg_rhmargin="239.208" x="104.667,107.698,113.152,118.607,121.638,127.092,138.304,141.335,147.395,152.849,157.698,163.453,169.513,174.967,179.511,185.571,196.491,206.491,217.39,222.844,228.299,233.753,239.208" y="501.359" style="fill:#000000;font-family:QISGBS+LMRoman10-Regular;font-size:10.91px;font-style:NORMAL;font-weight:normal;">[12] Wingenbach M 2018 </text>
  <text x="250.125,254.33,260.464,264.088,268.549,273.568,277.612,283.187,286.811,290.157,295.733,301.866,312.459,316.919,322.495,326.956,330.301,335.877,338.664,342.568,348.143,353.161,358.737,361.524,366.544,371.562,374.908,379.368,384.387,389.962,394.98,399.58000000000004,410.174,416.466,422.042,427.06,430.684,436.259,440.303,445.322,451.455,462.047,465.393,471.52599999999995,482.119,487.695,491.041" y="501.359" svg_rhmargin="496.059" style="fill:#000000;font-family:RSQXPN+LMRoman10-Italic;font-size:10.91px;font-style:italic;font-weight:normal;">Integration sozial-ökologischer Faktoren in die</text>
  <text x="127.091,134.491,140.624,145.642,149.686,154.704,158.05,163.068,167.529,172.825,177.286,180.91,185.928,194.85,203.771,208.79,214.366,219.384,222.171,223.011,225.799,229.145,234.163,238.763,244.618,250.751,255.769,265.915,269.81800000000004,279.964,285.539,294.46,304.606,312.285,317.303,320.649,325.11,330.685,334.031,339.049,341.83599999999996,351.982,357.0,362.576,368.709,378.855,386.254,392.387,396.011,403.259,406.605,411.623,416.642,419.429,425.284,431.417,436.435,440.896,446.471,449.817,455.393,460.969,465.987,472.12,482.265,485.611,491.466" y="517.794" svg_rhmargin="496.066" style="fill:#000000;font-family:RSQXPN+LMRoman10-Italic;font-size:10.91px;font-style:italic;font-weight:normal;">Energiesystemmodel lierung - am Beispiel von Entwicklungspfaden für</text>
  <text svg_rhmargin="328.277" x="127.091,132.667,137.685,143.818,152.6,163.497,166.843,172.976,178.551,183.57,189.703,194.721,198.765,203.783,207.129,211.591,217.166,223.021,227.482,231.944,237.52,243.375,252.156,255.502,261.635,270.417,278.653,283.672,289.526,293.15,297.611,302.629,308.205,310.992,316.568,322.701,328.27700000000004" y="534.229" style="fill:#000000;font-family:RSQXPN+LMRoman10-Italic;font-size:10.91px;font-style:italic;font-weight:normal;">den Windenergieausbau in Deutschland </text>
  <text x="338.059,346.392,349.423,353.726,358.028,362.877,367.15,371.393,376.847,381.09,384.121,389.575,395.635,404.581,412.004,418.064,422.337,427.792,433.852,439.306,442.942,451.124,457.184,460.215,465.667,470.516,474.789,479.092,482.122,486.365,491.82" y="534.229" svg_rhmargin="496.063" style="fill:#000000;font-family:QISGBS+LMRoman10-Regular;font-size:10.91px;font-style:NORMAL;font-weight:normal;">Dissertation Europa-Universität</text>
  <text svg_rhmargin="211.863" x="127.091,134.212,137.243,142.092,148.152,152.455,158.515,164.575,168.848,174.30300000000003,188.833,197.015,205.045,211.863" y="550.664" style="fill:#000000;font-family:QISGBS+LMRoman10-Regular;font-size:10.91px;font-style:NORMAL;font-weight:normal;">Flensburg URL </text>
  <text x="226.384,232.111,237.839,243.566,249.293,255.02,260.748,266.475,272.202,277.929,283.657,289.384,295.111,300.839,306.566,312.293,318.522,324.249,329.977,335.704,341.431,347.158,352.886,358.613,364.34,370.068,375.795,381.522,387.249,392.977,398.704,404.431,410.158,415.886,421.613,427.34,433.067,438.795,444.522,450.249,455.977,461.704,467.431,473.158,478.886,484.613,490.34" y="550.664" svg_rhmargin="496.067" style="fill:#000000;font-family:XHTPUD+LMMono10-Regular;font-size:10.91px;font-style:NORMAL;font-weight:normal;">https://www.zhb-flensburg.de/fileadmin/content/</text>
  <text x="127.091,132.818,138.546,144.273,150.0,155.727,161.455,167.182,173.411,179.138,184.866,190.593,196.32,202.047,207.775,213.502,219.229,224.957,230.684,236.411,242.138,247.866,253.593,259.32,265.048,270.775,276.502,282.229,287.957,293.684,299.411,305.138,310.866,316.593,322.32,328.047,333.775,339.502,345.229,350.956,356.684,362.411,368.138,373.866,379.593,385.32,391.047,396.775,402.502,408.229,413.956,419.684,425.411,431.138,436.865,442.593,448.32,454.047,459.775,465.502,471.229,476.956" y="567.0989999999999" svg_rhmargin="482.683" style="fill:#000000;font-family:XHTPUD+LMMono10-Regular;font-size:10.91px;font-style:NORMAL;font-weight:normal;">spezial-einrichtungen/zhb/dokumente/dissertationen/wingenbach/</text>
  <text x="127.091,132.818,138.546,144.273,150.0,155.727,161.455,167.182,172.909,178.637,184.364,190.593,196.32,202.047,207.775,213.502,219.229,224.957,230.684,236.411,242.138,247.866,253.593,259.32,265.048,270.775,276.502" y="583.534" svg_rhmargin="282.229" style="fill:#000000;font-family:XHTPUD+LMMono10-Regular;font-size:10.91px;font-style:NORMAL;font-weight:normal;">wingenbach-dissertation.pdf</text>
  <text x="104.667,107.698,113.152,118.607,121.638,127.092,134.819,140.879,146.939,152.391,157.23999999999998,160.164,171.37599999999998,174.3,182.633,185.66400000000002,188.587,194.647,200.102,204.345,210.415,215.26399999999998,218.188,228.189,231.22,234.143,242.021,248.081,252.354,255.385,259.688,263.931,266.854,276.854,279.778,285.232,291.292,297.352,300.276,308.761,314.216,317.246,323.306,328.155,337.246,342.095,347.547,352.396,356.66900000000004,359.593,367.471,370.395,375.85,381.304,386.759,392.214,395.137,399.38,406.501,409.532,413.774,418.623,424.683,428.986,435.046,441.106,445.379,450.834,453.757,458.0,465.423,471.483,475.726,480.575,484.848,490.303" y="606.778" svg_rhmargin="496.061" style="fill:#000000;font-family:QISGBS+LMRoman10-Regular;font-size:10.91px;font-style:NORMAL;font-weight:normal;">[13] Bunke W D, Söthe M, Christ M and Kaldemeyer C 2017 (Fl)ensburg (En)ergy</text>
  <text svg_rhmargin="407.29" x="127.091,131.334,137.394,141.636,146.485,151.334,157.394,162.849,167.122,170.152,175.607,179.91,182.779,186.415,189.273,194.727,201.093,205.942,212.002,220.184,225.033,233.593,239.048,241.906,247.966,252.815,257.664,263.724,269.179,273.452,276.482,281.937,286.24,289.109,292.441,297.896,302.16900000000004,305.038,310.493,315.947,321.402,326.856,332.311,337.765,343.22,348.674,354.129,359.584,365.038,370.493,375.947,381.402,384.26,392.442,400.472,407.28999999999996" y="623.213" style="fill:#000000;font-family:QISGBS+LMRoman10-Regular;font-size:10.91px;font-style:NORMAL;font-weight:normal;">(S)cenarios - open_eGo Scenarios for 2014/2035/2050 URL </text>
  <text x="410.154,415.881,421.609,427.336,433.063,438.79,444.518,450.245,455.972,461.699,467.427,473.154,478.881,484.608,490.336" y="623.213" svg_rhmargin="496.063" style="fill:#000000;font-family:XHTPUD+LMMono10-Regular;font-size:10.91px;font-style:NORMAL;font-weight:normal;">https://osf.io/</text>
  <text x="127.091,132.818,138.546,144.273,150.0,155.727" y="639.648" svg_rhmargin="161.454" style="fill:#000000;font-family:XHTPUD+LMMono10-Regular;font-size:10.91px;font-style:NORMAL;font-weight:normal;">bpf36/</text>
  <text x="104.667,107.698,113.152,118.607,121.638,127.092,134.819,140.879,146.939,152.999,157.848,162.15,171.241,174.271,180.331,183.362,187.665,191.907,196.756,201.029,204.06,210.12,219.21,223.563,226.896,232.956,237.22899999999998,241.571,252.783,255.814,260.087,264.329,268.632,273.186,279.246,284.701,288.034,292.277,296.618,302.678,308.738,314.798,319.151,326.574,332.634,337.483,341.757,347.211,350.242,355.091,359.444,367.17,377.171,388.383,391.414,395.756,401.21,406.665,412.119,417.574,421.927,430.487,435.336,439.639,445.093,453.878,458.121,463.575,469.635,473.938,479.392,484.847,491.212" y="662.892" svg_rhmargin="496.061" style="fill:#000000;font-family:QISGBS+LMRoman10-Regular;font-size:10.91px;font-style:NORMAL;font-weight:normal;">[14] Bundesministerium für Wirtschaft und Energie BMWi 2017 Gesamtausgabe</text>
  <text x="127.091,133.151,138.0,142.273,147.64,155.064,161.124,165.973,170.246,175.701,178.731,183.58,189.64,195.095,199.338,204.187,210.247,215.614,219.25,224.628,232.962,238.416,242.659,247.508,253.568,257.87,263.325,272.415,281.506,284.537,290.597,296.657,302.11199999999997,307.478,313.538,318.387,322.69,328.057,335.784,345.785,356.997,360.028,365.395,369.637,375.697,381.757,386.606,391.456,395.699,401.065,406.52,411.974,416.217,426.962,433.936,438.774,443.328,449.388,452.419,457.786,462.059,466.908,472.968,475.999,481.366,487.582,492.431" y="679.327" svg_rhmargin="496.067" style="fill:#000000;font-family:QISGBS+LMRoman10-Regular;font-size:10.91px;font-style:NORMAL;font-weight:normal;">der Energiedaten - Datensammlung des BMWi (Sheet 20) Tech. rep. Fe-</text>
  <text svg_rhmargin="383.43" x="127.091,133.151,138.0,142.273,147.728,150.75900000000001,154.566,164.566,167.596,173.656,176.687,180.99,185.232,189.505,195.263,199.081,202.414,207.869,212.142,215.949,223.373,228.222,233.676,239.736,245.191,254.281,257.312,262.161,265.968,274.15,280.513,285.968,288.998,293.271,297.574,301.392,306.847,312.907,318.967,322.774,330.198,336.258,341.107,345.38,350.834,356.592,360.4,368.581,376.612,383.43" y="695.762" style="fill:#000000;font-family:QISGBS+LMRoman10-Regular;font-size:10.91px;font-style:NORMAL;font-weight:normal;">deral Ministry for Economic Aﬀairs and Energy URL </text>
  <text x="387.245,392.972,398.7,404.427,410.154,415.881,421.609,427.336,433.063,438.79,444.518,450.245,455.972,461.699,467.427,473.154,478.881,484.608,490.336" y="695.762" svg_rhmargin="496.063" style="fill:#000000;font-family:XHTPUD+LMMono10-Regular;font-size:10.91px;font-style:NORMAL;font-weight:normal;">http://www.bmwi.de/</text>
  <text x="127.091,132.818,138.546,144.273,150.0,155.727,161.455,167.182,172.909,178.637,184.364,190.091,195.818,201.546,207.273,213.0,218.727,224.455,230.182,235.909,241.637,247.364,253.091,258.818,264.546,270.273,276.0,281.727,287.455,293.182,298.909,304.637,310.364,316.091,321.818,327.546,333.273,339.0,344.727,350.455,356.182,361.909,368.138,373.866,379.593,385.32,391.047,396.775,402.502,408.229,413.956,419.684,425.411,431.138,436.865,442.593,448.32,454.047,459.775,465.502" y="712.197" svg_rhmargin="471.229" style="fill:#000000;font-family:XHTPUD+LMMono10-Regular;font-size:10.91px;font-style:NORMAL;font-weight:normal;">Redaktion/DE/Artikel/Energie/energiedaten-gesamtausgabe.html</text>
  <text x="99.212,104.667,110.121" y="760.179" svg_rhmargin="115.576" style="fill:#4d4d4d;font-family:QISGBS+LMRoman10-Regular;font-size:10.91px;font-style:NORMAL;font-weight:normal;">208</text>
 </g>
</svg>
