<?xml version="1.0" encoding="UTF-8"?>
<svg height="770.179" width="506.29347291129875" xmlns="http://www.w3.org/2000/svg">
 <g style="fill:none;">
  <text x="99.213,104.668,107.698,113.15299999999999,118.607,125.425,128.456,133.305,138.154,144.214,149.063,153.912" y="29.30499999999995" svg_rhmargin="159.972" style="fill:#4d4d4d;font-family:QISGBS+LMRoman10-Regular;font-size:10.91px;font-style:NORMAL;font-weight:normal;">2.4 Lizenzen</text>
  <text x="99.213,109.213,114.668,120.122,123.153,126.184,130.727,136.787,142.24,147.089,150.119,154.362,159.211,165.27100000000002,168.675,174.735,179.584,183.887,187.29,193.956,200.016,205.471,209.744,212.775,219.138,223.441,226.855,232.309,238.369,241.702,245.106,250.56,256.62,262.68,267.529,271.803,276.652,280.055,288.389,293.843,298.086,302.935,308.69,314.75,320.204,326.264,331.716,336.566,342.626,346.029,352.089,358.149,364.209,367.624,372.462,375.492,381.563,386.412,389.816,394.654,400.42,404.662,408.965,415.025,419.298,424.147,428.691,434.751,439.6,445.66,451.72,456.569,459.972,467.249,472.098,476.371,483.944,489.399,492.429" y="66.06399999999996" svg_rhmargin="496.065" style="fill:#000000;font-family:QISGBS+LMRoman10-Regular;font-size:10.91px;font-style:NORMAL;font-weight:normal;">Möglichkeiten des Zugriﬀs auf andere Datenbanken und eine entsprechende Verwal-</text>
  <text x="99.213,103.456,109.516,115.576,121.03099999999999,124.663,130.126,135.581,141.641,145.273,151.94,158.0,163.454,168.909,174.969,180.424,184.726,190.786,196.241,200.483,205.332,211.392" y="82.49900000000002" svg_rhmargin="214.423" style="fill:#000000;font-family:QISGBS+LMRoman10-Regular;font-size:10.91px;font-style:NORMAL;font-weight:normal;">tung von Zugangsdaten.</text>
  <text svg_rhmargin="223.261" x="99.213,107.546,110.577,115.426,118.884,127.218,132.672,136.915,141.764,147.824,152.126,156.681,162.741,168.801,171.832,176.074,180.317,184.619,188.862,193.711,196.741,199.772,204.62099999999998,208.079,214.139,218.988,223.261" y="107.15200000000004" style="fill:#000000;font-family:QISGBS+LMRoman10-Regular;font-size:10.91px;font-style:NORMAL;font-weight:normal;">Die Datenschnittstelle der </text>
  <text svg_rhmargin="249.891" x="226.727,235.091,242.491,249.89100000000002" y="107.15200000000004" style="fill:#000000;font-family:RSQXPN+LMRoman10-Italic;font-size:10.91px;font-style:italic;font-weight:normal;">OEP </text>
  <text x="254.217,259.066,263.339,266.37,271.824,277.884,283.944,288.187,291.656,297.111,303.171,307.714,313.774,317.232,323.292,328.747,333.05,336.519,344.7,350.46,355.004,361.064,364.095,369.549,375.609,380.458,386.51800000000003,389.987,396.047,402.107,408.16700000000003,411.625,418.902,423.751,428.024,435.597,441.052,444.082,448.325,453.174,459.234,462.703,467.552,470.583,476.037,480.886,486.946,491.795" y="107.15200000000004" svg_rhmargin="496.068" style="fill:#000000;font-family:QISGBS+LMRoman10-Regular;font-size:10.91px;font-style:NORMAL;font-weight:normal;">erlaubt auch das Hochladen und Verwalten eigener</text>
  <text x="99.213,107.546,113.001,117.244,122.093,128.153,132.455,137.91,142.152,147.001,151.85,154.881,158.394,164.0,168.849,174.909,179.758,184.031,187.544,195.726,201.786,206.028,210.877,215.727,221.786,227.846,232.696,235.727,239.25,245.31,250.159,254.432,257.945,262.794,265.824,271.884,276.733,282.793,286.306,292.366,297.215,303.275,308.124,314.184,317.697,326.03,331.485,335.728,340.577,346.637,350.939,356.394,360.636,365.485,368.998,374.461,379.311,383.584,389.038,395.401,400.251,406.005,410.248,413.278,416.309,420.852,426.607,430.849,433.88,437.393,443.453,448.907,453.15,456.674,462.128,468.188,472.431,477.885,486.976,492.43" y="123.58699999999999" svg_rhmargin="496.066" style="fill:#000000;font-family:QISGBS+LMRoman10-Regular;font-size:10.91px;font-style:NORMAL;font-weight:normal;">Datensätze. Jeder Nutzende, der einen neuen Datensatz veröﬀentlicht, hat automa-</text>
  <text x="99.213,103.456,106.486,110.789,115.332,121.392,125.658,133.534,139.594,148.685,151.715,157.775,160.806,165.108,169.351,173.624,179.079,183.321,186.352,191.806,197.866,202.169,206.442,211.291,215.835,221.6,225.843,230.69199999999998,234.946,238.279,244.339,248.612,252.877,258.937,261.968,266.817,271.12,275.969,282.029,286.294,294.628,300.082,304.325,309.174,315.234,319.536,324.991,329.234,334.08299999999997,338.348,344.408,350.468,356.528,360.794,366.551,372.006,378.066,384.126,388.391,391.422,397.482,403.54200000000003,407.797,414.162,419.011,422.042,425.072,429.921,435.981,439.012,444.467,448.732,454.184,459.033,463.306,468.761,474.821,480.881,485.73,490.003" y="140.02200000000005" svg_rhmargin="496.063" style="fill:#000000;font-family:QISGBS+LMRoman10-Regular;font-size:10.91px;font-style:NORMAL;font-weight:normal;">tisch Administrationsrechte für diesen Datensatz und kann ihn beliebig verändern</text>
  <text x="99.213,105.273,111.333,117.393,122.662,128.117,134.177,138.731,144.791,150.06,157.939,160.969,165.818,171.878,176.728,181.001,186.27,189.3,194.755,199.057,203.601,209.661,214.51,220.57,223.601,228.881,237.063,246.153,251.433,257.493,260.524,265.373,270.642,277.918,283.373,286.403,289.434,295.494,298.524,302.767,308.221,312.464,317.733,323.793,328.642,332.915,338.184,343.034,346.064,351.519,356.368,362.428,367.277,373.337,378.606,386.939,392.394,396.636,401.486,407.546,412.826,417.675,423.735,429.004,434.458,439.307,446.88,452.335,458.395,462.668,465.699,470.548,473.578,477.881,482.123,486.973,493.033" y="156.457" svg_rhmargin="496.064" style="fill:#000000;font-family:QISGBS+LMRoman10-Regular;font-size:10.91px;font-style:NORMAL;font-weight:normal;">und auch wieder löschen. Um die Validität der eigenen Daten zu gewährleisten,</text>
  <text x="99.213,104.665,110.12,116.18,122.24,127.089,133.149,137.644,143.096,147.945,152.218,156.521,161.064,167.124,170.155,175.004,181.064,185.913,191.973,196.822,201.317,209.347,214.185,218.74,224.494,228.737,233.58599999999998,238.069,242.312,247.161,250.192,257.919,260.95,265.444,271.504,276.047,282.107,286.38,291.229,294.26,300.32,304.593,309.442,313.986,319.74,323.983,328.832,331.863,336.357,343.175,348.63,352.932,357.476,363.536,367.809,372.658,377.202,382.956,387.199,392.048,396.291,400.785,404.118,410.178,414.451,418.935,423.784,426.814,432.874,437.723,443.783,448.278,456.611,462.066,466.308,471.158,477.218,481.52,486.975,491.217" y="172.89200000000005" svg_rhmargin="496.066" style="fill:#000000;font-family:QISGBS+LMRoman10-Regular;font-size:10.91px;font-style:NORMAL;font-weight:normal;">können verschiedene Rechte (z.B. Schreibrechte, Löschrechte) für einen Datensatz</text>
  <text x="99.213,104.665,109.514,113.788,119.242,124.091,130.457,135.306,141.366,145.184,152.757,157.606,161.879,167.939,172.788,178.848,181.87900000000002,185.708,193.89,196.92,201.769,206.043,212.103,218.163,222.436,226.979,233.03900000000002,236.857,239.888,244.191,248.434,252.251,257.1,261.403,265.232,270.687,276.747,281.29,287.35,291.168,294.199,300.259,304.077,310.744,316.804,322.561,328.621,334.681,338.025,342.268,346.086,355.176,360.631,366.086,369.116,372.147,376.69,382.75,385.781,389.599,395.659,401.114,405.416,409.719,413.548,421.73,427.79,432.032,436.881,441.73,447.79,453.85,458.699,462.518,465.548,471.608,475.881,480.72999999999996,484.548,489.398,492.428" y="189.32799999999997" svg_rhmargin="496.064" style="fill:#000000;font-family:QISGBS+LMRoman10-Regular;font-size:10.91px;font-style:NORMAL;font-weight:normal;">vergeben werden. Hierdurch ist es auch in Zukunft möglich, dass Nutzende ihre ei-</text>
  <text svg_rhmargin="222.265" x="99.213,104.668,109.517,115.577,120.426,126.486,130.86,139.194,144.648,148.891,153.729,159.8,164.103,169.557,173.8,178.649,183.498,187.861,193.316,199.376,202.709,207.083,213.143,217.992,222.265" y="205.76300000000003" style="fill:#000000;font-family:QISGBS+LMRoman10-Regular;font-size:10.91px;font-style:NORMAL;font-weight:normal;">genen Datensätze auf der </text>
  <text svg_rhmargin="249.796" x="226.632,234.996,242.396,249.796" y="205.76300000000003" style="fill:#000000;font-family:RSQXPN+LMRoman10-Italic;font-size:10.91px;font-style:italic;font-weight:normal;">OEP </text>
  <text x="255.027,261.087,265.936,270.209,274.584,283.069,289.432,294.27,300.036,304.278,307.309,310.339,314.883,320.943,326.395,331.245,334.275,338.518,342.892,348.345,353.194,357.467,360.799,366.859,372.314,378.374,383.829,388.10200000000003,392.465,401.556,407.01,411.565,417.625,422.474,428.534,431.565,435.939,444.273,447.303,452.152,456.455,460.818,465.121,469.364,474.213,477.243,482.698,487.547,491.82" y="205.76300000000003" svg_rhmargin="496.063" style="fill:#000000;font-family:QISGBS+LMRoman10-Regular;font-size:10.91px;font-style:NORMAL;font-weight:normal;">der Öﬀentlichkeit verfügbar machen. Dies steigert</text>
  <text x="99.213,105.273,108.304,112.847,118.602,122.845,126.084,131.85,137.91,142.183,145.423,151.483,154.513,159.362,162.592,169.565,173.838,179.292,185.352,189.655,195.715,201.169,205.443,210.292,216.352,221.201,224.441,230.501,235.35,239.623,242.863,247.712,250.743,256.197,261.046,267.106,271.955,278.015,281.255,287.471,292.926,297.188,301.501,306.045,311.8,317.86,323.92,329.374,333.677,337.95,342.799,347.101,353.161,356.192,360.435,365.889,370.132,374.981,378.012,381.251,385.554,391.008,397.068,403.128,407.978,412.251,418.311,421.551,427.003,431.852,436.125,442.185,445.216,451.276,457.336,462.185,466.458,470.701,473.94,479.395,485.455,489.999" y="222.19799999999998" svg_rhmargin="496.059" style="fill:#000000;font-family:QISGBS+LMRoman10-Regular;font-size:10.91px;font-style:NORMAL;font-weight:normal;">nicht nur die Transparenz der eigenen Forschungsresultate, sondern verhindert auch</text>
  <text x="99.213,104.668,109.517,114.971,119.82,126.186,131.035,137.095,141.944,148.004,151.337,156.791,159.822,162.852,167.155,170.186,173.818,179.878,185.333,189.635,193.938,197.581,203.036,209.096,215.156,218.187,221.217,225.761,231.821,236.67,240.303,248.636,254.091,258.333,263.182,269.242,272.875,281.965,286.815,292.875,297.148,300.48,305.935,310.489,316.549,320.182,325.031,329.304,335.364,340.819,347.184,352.033,358.093,361.726,369.299,374.148,378.421,384.481,389.331,395.391" y="238.63300000000004" svg_rhmargin="398.422" style="fill:#000000;font-family:QISGBS+LMRoman10-Regular;font-size:10.91px;font-style:NORMAL;font-weight:normal;">gegebenenfalls, dass ähnliche Daten mehrfach erhoben werden.</text>
  <text x="99.213,107.546,110.577,115.426,118.83,123.679,129.433,133.37,141.249,144.28,148.834,154.287,159.136,162.166,166.409,171.25799999999998,174.661,182.995,188.449,192.692,197.541,203.601,207.904,212.447,218.507,224.567,227.598,231.84,236.083,240.385,244.628,249.477,252.508,255.538,260.387,263.791,269.549,275.003,281.063,287.123,290.527,296.587,302.647,306.92,311.464,317.524,320.938,323.969,330.029,334.302,339.14,345.2,348.615,354.675,358.948,364.402,369.857,374.13,379.585,388.675,397.766,400.796,405.645,409.907,414.221,420.281,424.554,430.009,434.552,440.612,445.461,451.216,457.276,463.336,468.79,474.85,480.91,486.365,492.425" y="263.28599999999994" svg_rhmargin="496.061" style="fill:#000000;font-family:QISGBS+LMRoman10-Regular;font-size:10.91px;font-style:NORMAL;font-weight:normal;">Die entwickelte Datenschnittstelle kann durch ihren programmiersprachenunabhän-</text>
  <text x="99.213,104.668,107.698,113.153,118.002,124.062,128.142,136.02,142.08,147.535,151.808,157.262,163.02,167.263,172.112,176.385,180.465,185.92,191.98,196.523,202.583,206.663,209.694,215.754,219.834,225.288,231.359,237.419,242.268,246.531,251.38,257.44,261.531,268.954,275.014,279.863,284.136,289.591,292.621,297.46,301.773,307.531,311.833,316.076,320.925,330.016,339.106,344.855,350.915,355.764,358.795,361.826,366.675,372.735,376.815,382.269,387.118,392.884,398.944,403.186,408.035,412.278,416.358,423.931,428.78,433.053,439.113,443.962,450.022,453.053,457.133,463.193,468.64799999999997,472.727,478.485,483.94,490.0" y="279.721" svg_rhmargin="496.06" style="fill:#000000;font-family:QISGBS+LMRoman10-Regular;font-size:10.91px;font-style:NORMAL;font-weight:normal;">gigen Charakter auch in anderen Energiesystemmodellen genutzt werden. So kann</text>
  <text svg_rhmargin="113.153" x="99.213,105.273,108.304,113.153" y="296.156" style="fill:#000000;font-family:QISGBS+LMRoman10-Regular;font-size:10.91px;font-style:NORMAL;font-weight:normal;">die </text>
  <text svg_rhmargin="139.804" x="116.64,125.004,132.404,139.804" y="296.156" style="fill:#000000;font-family:RSQXPN+LMRoman10-Italic;font-size:10.91px;font-style:italic;font-weight:normal;">OEP </text>
  <text x="144.153,149.608,152.638,156.941,160.432,165.281,168.311,174.371,179.22,182.7,187.549,190.58,196.64,199.973,205.427,209.982,216.042,220.891,224.371,232.704,238.159,242.401,247.25,253.31,257.613,262.168,268.228,274.288,277.318,281.561,285.803,290.106,294.348,299.197,302.228,305.258,310.10699999999997,313.588,316.92,322.98,327.25300000000004,330.744,340.745,346.505,352.565,357.414,360.444,363.475,368.324,371.804,377.875,380.895,385.744,391.804,396.653,402.713,405.744,409.234,415.294,418.325,423.174,426.665,432.119,438.179,442.723,448.783,452.274,458.334,461.364,466.21299999999997,469.704,477.884,483.339,492.429" y="296.156" svg_rhmargin="496.065" style="fill:#000000;font-family:QISGBS+LMRoman10-Regular;font-size:10.91px;font-style:NORMAL;font-weight:normal;">als eine einfache Datenschnittstelle für Modelle dienen, die auch die Kom-</text>
  <text x="99.213,107.998,114.058,120.118,123.149,128.906,134.361,138.604,141.634,147.089,153.149,156.443,162.503,168.858,173.707,177.98,181.274,186.727,191.576,195.849,200.152,204.695,210.755,213.786,218.635,224.695,229.544,235.604,240.453,243.737,254.044,258.893,263.166,268.924,273.773,278.622,284.682,290.136,294.985,298.269,304.329,310.389,316.449,319.733,327.156,331.429,336.884,342.339,346.612,352.066,361.157,370.247,373.278,378.127,382.4,386.703,392.763,397.036,402.49,407.034,413.094,417.943,424.003,427.298,433.358,436.388,442.143,449.716,454.565,460.02,463.303,468.152,472.425,481.516,486.97,492.425" y="312.591" svg_rhmargin="496.061" style="fill:#000000;font-family:QISGBS+LMRoman10-Regular;font-size:10.91px;font-style:NORMAL;font-weight:normal;">munikation über verschiedene Werkzeuge und Programmiersprachen hinweg ermög-</text>
  <text x="99.213,102.244,105.274,109.818,115.572,119.815,122.846,127.885,135.764,138.794,143.643,148.673,151.703,157.763,162.792,170.974,177.034,183.094,186.125,189.155,195.215,201.275,207.346,212.80100000000002,217.83,223.284,226.315,231.77,236.799,241.101,246.859,249.889,254.739,259.588,262.618,267.467,271.74,275.983,279.014,284.053,290.113,295.568,304.659,307.689,311.932,316.961,324.839,327.87,332.143,338.203,343.243,349.303,354.152,358.425,363.454,369.514,374.969,379.211,382.242,387.696,392.545,397.575,405.756,410.03,416.395,421.244,424.275,428.517,432.82,438.274,444.334,447.667,455.24,460.695,466.755,472.815,475.846,480.885,486.945,491.794" y="329.026" svg_rhmargin="496.067" style="fill:#000000;font-family:QISGBS+LMRoman10-Regular;font-size:10.91px;font-style:NORMAL;font-weight:normal;">licht, wie in Abbildung 2.6 skizziert. Somit wird der nötige Arbeitsaufwand, der</text>
  <text x="99.213,102.546,108.606,112.87899999999999,116.817,122.877,125.908,130.757,134.695,141.971,146.82,151.093,156.548,162.911,167.76,173.515,177.757,180.788,183.819,188.362,194.117,200.188,206.248,211.703,215.64,221.7,227.76,233.82,237.759,246.092,251.547,257.304,263.364,272.455,277.304,283.059,287.301,292.756,296.998,300.029,305.483,311.543,315.481,321.541,326.391,330.66400000000004,334.602,339.451,342.481,347.936,352.785,358.845,363.694,369.754,373.703,382.037,387.491,391.734,396.572,402.632,406.581,412.641,418.096,422.338,425.369,430.824,434.762,437.792,442.095,446.337,449.368,453.306,458.155,462.428,468.488,473.337,479.397,482.428,485.458,490.002" y="345.461" svg_rhmargin="496.062" style="fill:#000000;font-family:QISGBS+LMRoman10-Regular;font-size:10.91px;font-style:NORMAL;font-weight:normal;">für die Veröﬀentlichung und Dokumentation der eigenen Daten nötig ist, erheblich</text>
  <text x="99.213,103.486,108.335,114.395,120.455,125.304,128.335,133.184,137.457,141.7" y="361.896" svg_rhmargin="144.731" style="fill:#000000;font-family:QISGBS+LMRoman10-Regular;font-size:10.91px;font-style:NORMAL;font-weight:normal;">reduziert.</text>
  <text x="99.213,107.103,111.486,119.376,127.267,135.595,139.26,146.095,153.427,161.477,168.311,175.644" y="408.306" svg_rhmargin="183.694" style="fill:#000000;font-family:AJYLBH+LMSans10-Bold;font-size:14.35px;font-style:NORMAL;font-weight:BOLD;">2.4 Lizenzen</text>
  <text x="99.213,107.546,110.577,115.426,118.961,125.779,128.809,133.648,138.497,144.557,149.406,152.436,157.285,161.558,167.618,173.678,179.133,182.668,188.12,193.574,199.63400000000001,203.169,209.229,214.684,218.016,221.953,229.527,234.981,239.254,244.10299999999998,247.638,253.698,259.758,265.818,269.352,277.686,283.14,287.383,292.232,298.29200000000003,301.816,304.846,310.906,316.966,321.815,326.088,332.148,337.603,340.633,346.693,350.228,355.077,358.108,364.168,369.017,373.32,376.854,385.339,391.704,396.543,402.613,406.25,412.31,417.764,423.824,428.097,432.946,437.795,441.43100000000004,444.955,451.015,457.075,463.135,466.67,475.155,481.52,486.369,492.429" y="443.761" svg_rhmargin="496.065" style="fill:#000000;font-family:QISGBS+LMRoman10-Regular;font-size:10.91px;font-style:NORMAL;font-weight:normal;">Die Lizenzierung von Software und Daten innerhalb eines Open-Source- und Open-</text>
  <text x="99.213,107.546,113.001,117.244,122.698,126.334,133.758,138.031,143.791,147.124,151.973,157.73,161.973,166.822,171.125,174.747,179.049,185.109,188.14,192.989,196.019,200.262,203.873,208.722,211.752,217.812,222.661,226.283,232.649,237.498,243.558,248.407,254.467,258.709,263.559,269.619,275.679,280.52799999999996,284.149,292.18,297.634,300.665,303.695,308.544,311.575,315.186,323.519,326.55,331.399,335.021,340.475,343.506,346.536,351.385,354.416,360.476,363.507,368.961,373.81,377.432,384.708,389.547,393.82,399.274,405.638,410.487,416.252,420.495,423.525,426.556,431.099,436.854,442.914,448.974,454.429,458.05,463.503,468.957,475.017,478.639,486.973,492.427" y="460.196" svg_rhmargin="496.063" style="fill:#000000;font-family:QISGBS+LMRoman10-Regular;font-size:10.91px;font-style:NORMAL;font-weight:normal;">Data-Projektes spielt eine bedeutende Rolle. Die alleinige Veröﬀentlichung von Da-</text>
  <text x="99.213,103.456,108.305,114.36500000000001,117.605,123.665,129.725,135.785,139.025,145.085,150.539,153.872,157.809,165.393,170.848,175.121,179.97,183.21,187.483,192.332,195.363,199.906,205.661,209.904,213.143,219.203,222.234,227.083,231.356,237.721,242.571,245.602,248.841,254.901,257.932,262.475,268.23,272.473,275.712,281.167,287.227,291.529,294.56,297.8,304.467,310.537,319.62699999999995,322.868,330.595,335.433,338.464,342.777,348.837,351.868,356.706,359.737,362.976,366.007,370.32,374.563,377.803,383.863,386.893,391.74199999999996,394.983,403.164,409.224,413.467,418.316,424.376,430.436,435.89099999999996,439.131,444.583,450.037,456.097,459.337,462.67,466.943,471.792,480.883,486.943,491.792" y="476.631" svg_rhmargin="496.065" style="fill:#000000;font-family:QISGBS+LMRoman10-Regular;font-size:10.91px;font-style:NORMAL;font-weight:normal;">ten und Software reicht hierbei nicht aus. Zum Beispiel ist die Nutzung von fremder</text>
  <text svg_rhmargin="140.147" x="99.213,105.273,110.728,114.06,117.997,125.581,131.036,135.298,140.147" y="493.066" style="fill:#000000;font-family:QISGBS+LMRoman10-Regular;font-size:10.91px;font-style:NORMAL;font-weight:normal;">Software </text>
  <text svg_rhmargin="207.531" x="143.356,147.817,153.162,156.664,162.24,167.815,172.833,176.346,184.455,189.055,194.631,203.07,207.531" y="493.066" style="fill:#000000;font-family:RSQXPN+LMRoman10-Italic;font-size:10.91px;font-style:italic;font-weight:normal;">(§ 69c UrhG) </text>
  <text x="210.739,216.194,222.254,228.314,233.16299999999998,236.37,241.219,244.25,250.31,255.764,260.613,264.886,270.341,276.401,285.186,289.428,294.277,297.485,305.667,311.727,315.969,320.818,326.878,332.938,338.393,342.695,346.969,351.818,356.361,362.116,366.358,371.207,374.415,379.867,384.716,388.989,395.355,400.809,405.052,409.901,415.961,418.992,422.199,430.075,436.135,440.438,446.498,451.952,458.012,467.103,471.952,478.012,481.219,487.574,492.423" y="493.066" svg_rhmargin="496.059" style="fill:#000000;font-family:QISGBS+LMRoman10-Regular;font-size:10.91px;font-style:NORMAL;font-weight:normal;">ohne eingeräumte Nutzungsrechte verboten. Ausnahmen be-</text>
  <text x="99.213,103.516,107.758,112.607,118.667,123.516,129.576,133.242,139.607,144.456,147.487,151.163,156.618,161.467,165.769,170.618,174.861,179.71,182.741,185.771,190.315,196.375,201.224,205.49699999999999,209.162,215.222,221.282,227.342,231.019,236.471,241.32,245.593,249.836,254.109,259.564,265.018,268.049,271.079,275.623,281.683,286.532,290.805,294.471,301.894,306.167,309.198,314.652,320.712,326.772,332.832,335.863,340.166,343.197,346.872,354.296,357.327,363.387,368.236,371.901,377.356,380.386,383.417,388.871,393.72,402.811,407.66,410.691,416.751,421.59999999999997,425.276,433.306,438.155,443.61,448.459,451.49,457.55,463.61,469.065,472.73,478.487,483.942,490.002" y="509.502" svg_rhmargin="496.062" style="fill:#000000;font-family:QISGBS+LMRoman10-Regular;font-size:10.91px;font-style:NORMAL;font-weight:normal;">stehen bei gesetzlicher und vertraglicher Erlaubnis. Eine allgemeine Regelung kann</text>
  <text x="99.213,105.273,111.638,116.488,120.761,123.902,129.962,132.993,137.84199999999998,140.984,148.26,153.109,157.383,162.837,168.292,174.657,179.506,182.648,188.1,193.555,199.615,202.768,209.586,212.616,217.465,222.315,228.375,233.224,238.073,244.133,247.275,252.124,256.397,260.67,265.519,268.549,273.093,278.848,283.091,286.243,293.816,298.665,302.938,308.998,313.847,319.907,322.938,326.091,330.03,336.09,339.232,345.292,350.141,356.201,359.343,365.403,370.857,375.412,381.472,385.774,390.017,394.866,400.926,404.068,410.433,415.282,418.313,424.373,429.222,435.282,438.424,446.605,452.665,456.968,461.523,467.583,473.643,476.673,480.916,485.158,490.007" y="525.937" svg_rhmargin="496.067" style="fill:#000000;font-family:QISGBS+LMRoman10-Regular;font-size:10.91px;font-style:NORMAL;font-weight:normal;">über die Vergabe von Lizenzen erreicht werden. In den nächsten beiden Abschnitten</text>
  <text x="99.213,107.092,110.122,114.395,120.455,124.088,130.148,133.178,138.027,141.671,148.489,151.52,156.369,161.207,167.278,172.116,179.7,185.155,191.215,194.246,197.878,201.211,207.271,211.54399999999998,215.177,221.237,224.267,229.11599999999999,232.76,237.609,243.364,247.301,255.179,258.21,262.754,268.217,273.066,276.086,280.328,285.17699999999996,288.821,294.881,300.335,303.668,307.605,315.178,320.633,324.906,329.755,333.399,339.459,345.519,351.579,355.211,363.545,368.999,373.242,378.091,384.151,387.784,394.149,398.998,403.301,407.845,413.905,418.178,421.208,426.057,432.423,437.272,443.332" y="542.3720000000001" svg_rhmargin="446.363" style="fill:#000000;font-family:QISGBS+LMRoman10-Regular;font-size:10.91px;font-style:NORMAL;font-weight:normal;">wird die Lizenzwahl für die entwickelte Software und Daten beschrieben.</text>
  <text x="99.213,105.788,109.441,116.016,119.668,126.24300000000001,132.819,139.759,142.814,148.509,154.619,161.327,167.023,175.565,181.841,188.549,191.604,195.98,199.998,206.706,211.15599999999998,215.543,222.849,229.424,236.132,240.582,246.427,252.537,258.382,265.328,272.036" y="582.773" svg_rhmargin="278.146" style="fill:#000000;font-family:AJYLBH+LMSans10-Bold;font-size:11.96px;font-style:NORMAL;font-weight:BOLD;">2.4.1 Lizenzwahl für Sourcecode</text>
  <text x="99.213,106.031,109.062,113.911,118.76,124.82,129.669,134.518,140.578,144.604,150.664,153.694,158.543,164.603,169.452,175.512,179.538,184.387,190.447,194.72,198.745,206.169,209.2,215.26,219.533,224.987,231.047,239.832,245.892,251.952,257.407,261.432,266.885,272.339,278.399,282.425,290.607,296.667,300.909,305.758,311.818,317.878,323.333,327.635,331.908,336.757,341.301,347.067,351.309,356.158,362.218,366.244,371.698,374.729,379.032,383.057,388.509,393.358,397.631,401.874,406.147,411.602,417.056,420.087,423.117,427.661,433.721,438.57,442.595,451.156,456.005,460.307,464.55,470.004,474.247,478.49,484.55,490.61" y="614.471" svg_rhmargin="496.065" style="fill:#000000;font-family:QISGBS+LMRoman10-Regular;font-size:10.91px;font-style:NORMAL;font-weight:normal;">Lizenzen dienen zur Einräumung von Nutzungsrechten als vertragliche Gestattung</text>
  <text x="99.213,105.273,110.122,114.395,119.25,125.31,130.764,134.097,138.034,145.618,151.073,155.346,160.195,165.949,172.009,176.252,181.101,187.161,193.221,198.676,201.707,206.572,214.905,217.936,222.785,227.639,237.64,240.67,246.73,252.79,257.639,261.942,266.184,271.639,277.699,281.032,286.486,290.759,296.819,301.668,305.942,312.002,318.062,323.517,328.371,333.825,339.885,344.74,353.225,359.59,364.439,370.499,374.135,380.195,385.65,391.71,395.983,400.832,405.681,409.317,415.377,420.832,424.165,428.113,435.686,441.14,445.413,450.262,455.117,459.359,465.419,468.45,473.299,478.154,483.911,486.942,491.791" y="630.906" svg_rhmargin="496.064" style="fill:#000000;font-family:QISGBS+LMRoman10-Regular;font-size:10.91px;font-style:NORMAL;font-weight:normal;">der Softwarenutzung. Die Mindestanforderung an Open-Source-Software (die vier</text>
  <text svg_rhmargin="275.764" x="99.213,105.429,109.702,114.551,117.582,123.642,128.491,131.51,135.753,140.602,146.662,150.905,154.548,158.851,161.881,167.941,174.001,177.634,183.694,189.149,195.514,200.363,203.394,207.027,213.087,218.541,222.844,226.487,234.517,239.367,243.91,249.665,253.908,257.551,262.4,268.46,272.733,275.764" y="760.179" style="fill:#000000;font-family:QISGBS+LMRoman10-Regular;font-size:10.91px;font-style:NORMAL;font-weight:normal;">Freiheiten) sind dabei das Recht zur: </text>
  <text x="485.154,490.609" y="760.179" svg_rhmargin="496.064" style="fill:#4d4d4d;font-family:QISGBS+LMRoman10-Regular;font-size:10.91px;font-style:NORMAL;font-weight:normal;">21</text>
 </g>
</svg>
