<?xml version="1.0" encoding="UTF-8"?>
<svg height="770.179" width="507.275" xmlns="http://www.w3.org/2000/svg">
 <g style="fill:none;">
  <text x="99.213,104.668,107.698,113.15299999999999,118.607,126.031,130.304,135.758,140.608,146.668,152.728,155.758,160.061,164.363" y="29.30499999999995" svg_rhmargin="169.212" style="fill:#4d4d4d;font-family:QISGBS+LMRoman10-Regular;font-size:10.91px;font-style:NORMAL;font-weight:normal;">7.4 Ergebnisse</text>
  <text x="99.213,104.971,111.031,115.333,119.636,122.666,127.516,131.789,136.638,142.698,146.549,150.851,153.882,158.425,164.485,168.336,174.396,179.851,186.205,191.054,194.085,197.936,203.39,209.45,212.783,216.634,222.694,225.725,230.57399999999998,234.414,240.779,245.628,249.901,254.75,259.294,265.354,271.414,276.263,280.506,285.355,291.415,295.266,303.826,308.675,312.978,318.432,327.217,331.46,336.912,342.367,346.669,350.912,355.761,361.821,365.672,369.005,373.854,377.705,383.765,389.825,395.279,401.339,407.094,413.154,419.214,424.668,428.971,433.82,440.185,445.035,451.095,455.944,459.795,465.855,471.915,477.975,481.826,486.972,492.427" y="66.06399999999996" svg_rhmargin="496.063" style="fill:#000000;font-family:QISGBS+LMRoman10-Regular;font-size:10.91px;font-style:NORMAL;font-weight:normal;">kussieren sich dabei auf die berechneten Gesamtkosten je Spannungsebene und va-</text>
  <text x="99.213,103.486,106.517,109.547,114.396,118.669,123.518,129.578,133.211,139.271,142.302,147.15099999999998,150.784,154.116,159.571,162.601,168.056,172.905,178.965,185.036,189.874,195.934,199.578,205.638,210.487,216.547,220.849,223.88,228.123,231.153,236.911,239.941,244.184,249.639,253.881,258.73,264.79" y="82.49900000000002" svg_rhmargin="267.821" style="fill:#000000;font-family:QISGBS+LMRoman10-Regular;font-size:10.91px;font-style:NORMAL;font-weight:normal;">riieren die folgenden Sensitivitäten:</text>
  <text svg_rhmargin="121.031" x="112.546,121.031" y="115.16600000000005" style="fill:#000000;font-family:QISGBS+LMRoman10-Regular;font-size:10.91px;font-style:NORMAL;font-weight:normal;">• </text>
  <text x="126.485,134.364,137.394,143.454,147.757,151.999,156.848,161.121,164.152,170.212" y="115.16600000000005" svg_rhmargin="175.667" style="fill:#000000;font-family:QISGBS+LMRoman10-Regular;font-size:10.91px;font-style:NORMAL;font-weight:normal;">Clustering</text>
  <text svg_rhmargin="121.031" x="112.546,121.031" y="132.59699999999998" style="fill:#000000;font-family:QISGBS+LMRoman10-Regular;font-size:10.91px;font-style:NORMAL;font-weight:normal;">• </text>
  <text x="126.485,134.364,138.637,144.091,148.394,152.696,156.332,164.059,169.514,173.787,179.847,184.696,188.969,192.605,201.09,206.545,212.605,218.059,222.908,225.939,230.181,235.636,239.879,244.728" y="132.59699999999998" svg_rhmargin="250.788" style="fill:#000000;font-family:QISGBS+LMRoman10-Regular;font-size:10.91px;font-style:NORMAL;font-weight:normal;">Cross-Border-Kapazitäten</text>
  <text svg_rhmargin="121.031" x="112.546,121.031" y="150.029" style="fill:#000000;font-family:QISGBS+LMRoman10-Regular;font-size:10.91px;font-style:NORMAL;font-weight:normal;">• </text>
  <text x="126.485,131.503,139.74,143.085,147.546,155.985" y="150.029" svg_rhmargin="161.561" style="fill:#000000;font-family:RSQXPN+LMRoman10-Italic;font-size:10.91px;font-style:italic;font-weight:normal;">eDisGo</text>
  <text x="161.847,165.483,172.601,178.056,182.329,187.783,196.874,201.723,205.966,210.815" y="150.029" svg_rhmargin="215.088" style="fill:#000000;font-family:QISGBS+LMRoman10-Regular;font-size:10.91px;font-style:NORMAL;font-weight:normal;">-Parameter</text>
  <text svg_rhmargin="121.031" x="112.546,121.031" y="167.46000000000004" style="fill:#000000;font-family:QISGBS+LMRoman10-Regular;font-size:10.91px;font-style:NORMAL;font-weight:normal;">• </text>
  <text x="126.485,135.045,139.894,144.197,149.652,158.437,162.679,168.132,172.981,177.254,183.314,187.587,193.041,199.101,203.656" y="167.46000000000004" svg_rhmargin="209.716" style="fill:#000000;font-family:QISGBS+LMRoman10-Regular;font-size:10.91px;font-style:NORMAL;font-weight:normal;">Gesamtverbrauch</text>
  <text svg_rhmargin="121.031" x="112.546,121.031" y="184.89099999999996" style="fill:#000000;font-family:QISGBS+LMRoman10-Regular;font-size:10.91px;font-style:NORMAL;font-weight:normal;">• </text>
  <text x="126.485,135.045,139.318,145.378,151.438,157.498,161.801,166.65,171.499,177.559,183.014,187.287,190.317,195.166" y="184.89099999999996" svg_rhmargin="201.226" style="fill:#000000;font-family:QISGBS+LMRoman10-Regular;font-size:10.91px;font-style:NORMAL;font-weight:normal;">Grundszenarien</text>
  <text svg_rhmargin="121.031" x="112.546,121.031" y="202.32299999999998" style="fill:#000000;font-family:QISGBS+LMRoman10-Regular;font-size:10.91px;font-style:NORMAL;font-weight:normal;">• </text>
  <text x="126.485,132.545,138.0,141.03,146.482,151.332,155.605,159.248,164.703,168.336,174.552,180.006,184.268,193.064,199.124,202.155,205.185,210.035,214.308,220.368,226.428,231.883,235.515,241.575,246.424,250.727,254.359,262.844,268.904,273.147,276.177,285.268,288.299,293.148,297.421,303.481,309.541,314.995,319.309,325.369,329.642,335.096,341.156,344.187,349.025,358.116" y="202.32299999999998" svg_rhmargin="362.419" style="fill:#000000;font-family:QISGBS+LMRoman10-Regular;font-size:10.91px;font-style:NORMAL;font-weight:normal;">Solver / Formulierung des Optimierungsproblems</text>
  <text svg_rhmargin="121.031" x="112.546,121.031" y="219.75400000000002" style="fill:#000000;font-family:QISGBS+LMRoman10-Regular;font-size:10.91px;font-style:NORMAL;font-weight:normal;">• </text>
  <text x="126.485,132.545,138.91,143.76,146.79,151.334,157.394,162.243,166.516,172.881,177.73,181.973,186.246,189.277,194.126,200.186,204.488,209.941,215.395,219.698,223.94,228.789" y="219.75400000000002" svg_rhmargin="234.849" style="fill:#000000;font-family:QISGBS+LMRoman10-Regular;font-size:10.91px;font-style:NORMAL;font-weight:normal;">Speicherbetriebskosten</text>
  <text x="99.213,107.546,110.577,115.426,118.393,121.424,127.484,132.333,138.099,142.341,145.361,151.432,156.27,159.3,164.149,168.423,172.665,177.514,183.574,186.552,192.612,197.461,203.521,207.824,210.855,215.097,218.128,223.885,226.916,231.159,236.613,240.856,245.705,251.76500000000001,254.732,260.187,266.247,270.52,275.369,279.671,283.974,287.004,291.853,296.127,300.976,307.036,310.014,315.466,320.315,324.588,328.891,333.435,339.495,342.525,347.374,353.434,358.283,364.343,369.192,372.16,379.133,383.982,387.012,390.043,394.892,397.859,403.919,408.768,413.07099999999997,416.049,420.898,429.459,434.914,437.88,447.881,453.641,459.701,464.55,467.58,470.611,474.914,477.881,483.941,490.001" y="252.42100000000005" svg_rhmargin="496.061" style="fill:#000000;font-family:QISGBS+LMRoman10-Regular;font-size:10.91px;font-style:NORMAL;font-weight:normal;">Die identiﬁzierten Sensitivitäten adressieren verschiedene Teile des eGo Modells und</text>
  <text x="99.213,106.786,111.635,115.908,121.968,126.817,132.87699999999998,136.51,139.541,145.601,149.223,155.283,160.132,164.405,168.037,171.37,176.825,179.855,185.31,190.159,196.219,202.279,207.128,213.188,216.81,224.992,231.052,236.506,239.537,245.295,249.597,254.446,258.079,264.139,269.593,275.653,280.503,284.776,288.397,294.763,299.612,303.915,308.458,314.518,318.791,321.822,326.671,333.036,337.885,343.945,346.976,350.609,358.791,361.821,366.124,369.746,377.776,382.625,385.958,390.807,395.08,399.929,405.989,410.838,415.111,419.96,424.504,430.564,436.329,442.389,448.449,453.904,457.526,465.404,468.435,472.708,478.76800000000003,482.4,485.733,491.793" y="268.856" svg_rhmargin="496.066" style="fill:#000000;font-family:QISGBS+LMRoman10-Regular;font-size:10.91px;font-style:NORMAL;font-weight:normal;">werden in der folgenden Analyse näher beschrieben. Als Referenzrechnung wird für</text>
  <text x="99.213,105.273,108.304,113.153,117.625,125.959,131.413,135.656,140.505,146.565,150.868,156.322,160.565,165.414,170.866,175.715,179.988,184.291,187.321,192.776,198.836,203.32,209.077,214.532,217.563,223.017,226.048,231.50300000000001,235.975,242.035,247.489,251.792,256.265,261.114,269.674,275.12899999999996,279.612,285.067,290.522,295.976,299.612,305.672,310.521,315.37,321.43,326.885,331.158,334.188,339.643,344.116,347.448,353.508,357.781,362.254,368.314,373.163,379.223,383.696,389.151,394.605,397.636,402.119,412.12,417.574,421.847,426.69599999999997,431.169,440.26,443.29,447.533,452.017,456.866,459.896,465.956,470.805,475.07800000000003,479.551,487.581,492.43" y="285.29100000000005" svg_rhmargin="496.066" style="fill:#000000;font-family:QISGBS+LMRoman10-Regular;font-size:10.91px;font-style:NORMAL;font-weight:normal;">die Datensatzversion v0.4.5 das eGo 100-Szenario für den 04. März mit einer Re-</text>
  <text x="99.213,105.273,111.333,117.091,121.333,124.364,129.818,135.87800000000001,139.849,145.909,150.758,155.031,159.003,163.276,168.73,174.79,183.881,186.911,189.942,194.485,200.545,205.395,211.455,215.425,223.605,229.06,238.15,244.21,247.241,252.09,257.848,260.878,265.121,270.575,274.818,278.789,283.031,288.789,292.425,301.516,306.365,311.819,317.879,322.182,325.818,333.696,336.727,342.787,347.09,351.332,356.181,360.454,363.485,369.545,374.999,379.242,383.213,388.667,394.727,398.06,402.031,407.486,412.94,418.395,422.366,430.851,436.911,442.365,446.608,451.457,457.517,461.488,467.853,472.702,476.976,481.825,486.368,492.428" y="301.726" svg_rhmargin="496.064" style="fill:#000000;font-family:QISGBS+LMRoman10-Regular;font-size:10.91px;font-style:NORMAL;font-weight:normal;">duktion der räumlichen Komplexität (k-means-Clustering) auf 100 Knoten berech-</text>
  <text svg_rhmargin="215.272" x="99.213,105.273,110.122,114.365,117.396,120.788,129.121,133.97,138.243,141.636,148.455,153.304,156.334,160.637,164.879,170.939,176.999,182.454,186.756,190.089,195.544,201.301,205.544,210.999,215.272" y="318.161" style="fill:#000000;font-family:QISGBS+LMRoman10-Regular;font-size:10.91px;font-style:NORMAL;font-weight:normal;">net. Der Leistungsfaktor </text>
  <text x="218.665,223.386,228.674" y="318.161" svg_rhmargin="233.787" style="fill:#000000;font-family:EQJYNO+LMMathItalic10-Regular;font-size:10.91px;font-style:italic;font-weight:normal;">cos</text>
  <text x="233.788" y="318.161" svg_rhmargin="238.031" style="fill:#000000;font-family:QISGBS+LMRoman10-Regular;font-size:10.91px;font-style:NORMAL;font-weight:normal;">(</text>
  <text x="238.03" y="318.161" svg_rhmargin="244.53" style="fill:#000000;font-family:EQJYNO+LMMathItalic10-Regular;font-size:10.91px;font-style:italic;font-weight:normal;">φ</text>
  <text svg_rhmargin="248.773" x="244.53,248.773" y="318.161" style="fill:#000000;font-family:QISGBS+LMRoman10-Regular;font-size:10.91px;font-style:NORMAL;font-weight:normal;">) </text>
  <text svg_rhmargin="323.56" x="252.165,260.044,263.074,267.347,273.407,276.8,282.86,285.89,290.74,295.013,301.378,306.227,309.258,312.65,317.5,323.56" y="318.161" style="fill:#000000;font-family:QISGBS+LMRoman10-Regular;font-size:10.91px;font-style:NORMAL;font-weight:normal;">wird hierbei zu </text>
  <text x="326.949" y="318.161" svg_rhmargin="332.404" style="fill:#000000;font-family:QISGBS+LMRoman10-Regular;font-size:10.91px;font-style:NORMAL;font-weight:normal;">0</text>
  <text svg_rhmargin="335.434" x="332.403,335.434" y="318.161" style="fill:#000000;font-family:EQJYNO+LMMathItalic10-Regular;font-size:10.91px;font-style:italic;font-weight:normal;">, </text>
  <text svg_rhmargin="342.707" x="337.252,342.707" y="318.161" style="fill:#000000;font-family:QISGBS+LMRoman10-Regular;font-size:10.91px;font-style:NORMAL;font-weight:normal;">9 </text>
  <text x="346.099,351.554,357.614,363.068,367.917,373.977,379.432,388.522,397.613,402.462,408.522,411.915,421.005,424.036,428.279,431.671,436.52,444.093,448.942,451.973,455.366,463.244,466.275,472.335,476.637,480.88,485.729,490.002" y="318.161" svg_rhmargin="496.062" style="fill:#000000;font-family:QISGBS+LMRoman10-Regular;font-size:10.91px;font-style:NORMAL;font-weight:normal;">angenommen mit zwei Clustern</text>
  <text x="99.213,103.456,109.516,114.97,123.152,128.606,132.88,135.91,141.97,146.273,150.516,155.588,161.648,166.497,170.8,175.872,185.873,191.933,195.569,200.631,206.691,212.761,218.821,223.883,232.065,238.125,241.761,249.943,254.792,259.035,263.884,268.733,273.035,276.06600000000003,281.149,289.483,294.938,299.241,304.313,309.767,314.04,320.1,326.16,332.22,336.523,341.978,346.22,351.069,354.1,357.13,361.674,367.734,372.58299999999997,377.656,384.921,390.376,394.649,400.103,404.953,411.013,415.862,421.922,426.994,433.36,438.209,441.239,447.299,453.359,458.814,461.845,466.087,470.936,475.179,480.241,486.301,491.755" y="334.597" svg_rhmargin="496.058" style="fill:#000000;font-family:QISGBS+LMRoman10-Regular;font-size:10.91px;font-style:NORMAL;font-weight:normal;">(no_grids) des MS- und NS-Netzes. Das grundsätzliche Vorgehen beinhaltet das</text>
  <text x="99.213,106.637,109.667,115.727,118.758,123.607,127.909,132.758,138.818,142.986,148.438,153.893,159.953,164.12,168.393,173.242,179.302,183.575,189.324,195.384,201.444,206.293,209.324,214.173,218.446,224.506,229.961,234.234,239.083,245.143,249.31,257.644,263.098,267.341,272.19,278.25,282.417,285.448,291.508,297.265,300.296,306.356,310.659,313.689,319.141,323.99,328.158,334.218,339.067,343.34000000000003,347.496,352.951,358.405,363.85999999999996,368.027,373.785,377.421,386.512,391.361,396.815,402.875,407.178,411.345,419.83,425.89,431.345,435.587,440.436,446.496,449.527,453.683,458.532,461.563,467.623,472.472,476.745,480.912,486.367,492.427" y="351.032" svg_rhmargin="496.063" style="fill:#000000;font-family:QISGBS+LMRoman10-Regular;font-size:10.91px;font-style:NORMAL;font-weight:normal;">Einlesen von reproduzierbaren Daten inklusive der 100 k-means Knoten, einer an-</text>
  <text x="99.213,103.516,108.059,114.119,117.15,120.18,125.029,130.484,135.333,141.393,147.453,152.302,158.362,162.54,169.358,177.844,185.267,192.389,196.025,204.055,208.904,213.448,219.508,225.262,231.322,237.382,242.83700000000002,247.015,256.105,259.136,263.379,267.557,273.617,279.971,284.82,287.851,292.395,298.465,303.304,307.577,311.213,315.391,321.451,327.511,333.571,337.749,345.931,350.78,355.023,359.872,365.326,371.386,375.689,381.749,387.203,393.263,397.431,401.673,405.976,411.136,419.014,422.045,426.894,431.061,438.485,445.606,449.242,457.272,462.122,466.665,472.725,478.491,484.551,490.611" y="367.467" svg_rhmargin="496.066" style="fill:#000000;font-family:QISGBS+LMRoman10-Regular;font-size:10.91px;font-style:NORMAL;font-weight:normal;">schließenden LOPF-Rechnung mit Speicher- und Netzausbau (sowie PF-Rechnung</text>
  <text x="99.213,105.273,111.333,117.393,122.018,130.352,133.382,137.685,143.14,148.594,154.049,158.322,163.171,168.625,174.08,178.322,181.353,186.808,192.868,197.111,201.746,204.777,210.837,215.462,221.522,226.372,230.645,235.27,243.452,248.907,254.967,258.603,266.784,272.855,276.491,283.915,290.269,295.119,301.179,306.02799999999996,310.664,316.724,322.784,328.844,333.469,338.319,341.349,347.409,352.258,356.531,361.157,366.006,372.066,375.096,379.399,384.853,390.308,393.944,398.257,403.096,406.126,410.369,413.399,418.854,423.703,429.763,434.399,440.459,445.308,451.368,455.642,458.672,462.975,467.217,470.248,474.55,479.094,485.154,490.003" y="383.902" svg_rhmargin="496.063" style="fill:#000000;font-family:QISGBS+LMRoman10-Regular;font-size:10.91px;font-style:NORMAL;font-weight:normal;">und Disaggregation) in der HöS-HS-Ebene und einer edisgo-seitigen heuristischen</text>
  <text x="99.213,106.94,111.789,116.062,120.911,125.455,131.515,137.269,143.329,149.389,154.84400000000002,159.96,166.02,170.869,175.172,180.288,188.47,193.319,197.562,202.411,207.865,213.925,218.228,224.288,229.742,235.802,240.105,245.221,248.252,254.312,259.428,265.488,270.337,274.61,279.727,289.727,295.787,299.423,304.54,310.6,316.66,322.72,327.836,336.018,342.078,345.714,353.137,359.503,364.352,370.412,375.26099999999997,380.377,384.62,390.68,396.435,400.677,405.526,409.79900000000004,414.916,422.643,427.492,431.765,437.825,442.368,448.126,452.429,455.459,460.003,465.758,470.0,473.031,478.485,484.545,490.605" y="400.337" svg_rhmargin="496.06" style="fill:#000000;font-family:QISGBS+LMRoman10-Regular;font-size:10.91px;font-style:NORMAL;font-weight:normal;">Berechnung des Netzausbaus in der MS- und NS-Ebene (unter Berücksichtigung</text>
  <text x="99.213,104.665,110.12,116.18,121.514,129.696,135.756,140.029,144.878,150.333,155.182,158.213,164.273,170.333,175.788,181.122,187.182,193.242,199.302,204.636,210.696,217.062,221.911,224.941,229.485,235.545,240.394,244.667,250.122,256.182,260.484,266.544,271.999,278.059,282.301,285.332,290.677,297.57,303.63,307.903,313.237,320.056,324.905,329.147,333.996,338.239,343.088,347.361,352.21,356.513,361.847,369.42,374.27,378.543,384.603,389.452,395.512,400.846,406.301,409.331,413.634,418.968,426.847,429.878,435.938,440.24,444.483,449.332,453.605,459.059,463.302,467.545,471.818,474.848,480.908,486.968,491.211" y="416.772" svg_rhmargin="496.06" style="fill:#000000;font-family:QISGBS+LMRoman10-Regular;font-size:10.91px;font-style:NORMAL;font-weight:normal;">von Abregelung und Speicherausbau). Für Letzteres werden als Clusterattribute</text>
  <text x="99.213,103.456,109.213,114.668,117.698,120.729,123.402,131.887,137.341,143.401,146.432,150.674,155.524,158.555,161.227,166.681,169.712,175.166,179.409,182.082,186.384,191.533,199.117,204.572,210.632,213.663,216.335,221.184,225.457,233.031,237.88,240.91,245.153,250.002,254.275,260.335,265.789,270.063,274.912,279.185,281.857,287.917,294.272,299.121,302.152,306.706,312.766,317.615,321.878,324.909,327.592,332.43,338.195,342.438,345.771,350.62,354.893,360.647,364.89,369.739,374.042,378.284,383.133,387.406,390.079,398.564,404.624,410.079,414.321,419.17,425.23,427.903,433.358,436.388,440.691,443.363,448.818,454.878,459.422,465.482,468.154,474.214,479.669,482.699,488.154,492.427" y="433.207" svg_rhmargin="496.063" style="fill:#000000;font-family:QISGBS+LMRoman10-Regular;font-size:10.91px;font-style:NORMAL;font-weight:normal;">(vgl. Kapitel 7.2) sowohl erweiterbarer Speicher, entferntester Knoten als auch Solar-</text>
  <text x="99.213,105.273,111.333,117.393,121.026,132.238,135.269,141.329,147.4,153.157,158.612,164.672,170.126,174.976,177.995,182.238,187.692,191.935,196.784,202.844,206.488,211.94,216.789,221.062,228.635,233.484,239.544,245.604,250.453,254.696" y="449.642" svg_rhmargin="257.727" style="fill:#000000;font-family:QISGBS+LMRoman10-Regular;font-size:10.91px;font-style:NORMAL;font-weight:normal;">und Windkapazitäten verwendet.</text>
  <text x="99.213,107.395,110.425,114.728,119.735,127.001,132.455,136.728,142.788,148.543,152.785,157.634,161.908,166.21,172.27,176.825,182.579,188.639,194.699,200.15400000000002,205.161,212.734,217.583,221.856,227.916,232.765,238.825,243.822,249.882,252.912,257.761,262.769,267.618,273.372,277.309,285.188,288.219,292.762,298.225,303.075,306.105,310.348,315.186,321.246,326.253,334.813,339.087,345.147,351.207,357.267,361.569,366.418,371.267,377.327,382.782,387.055,390.085,394.935,400.995,406.002,410.244,414.547,417.577,422.427,428.487,433.336,438.332,445.305,450.76,457.125,461.974,465.005,468.035,472.884,477.881,483.335,486.366,491.82" y="482.309" svg_rhmargin="496.063" style="fill:#000000;font-family:QISGBS+LMRoman10-Regular;font-size:10.91px;font-style:NORMAL;font-weight:normal;">Als Voruntersuchung werden die entwickelten Grundszenarien (siehe Tabelle 7.3)</text>
  <text x="99.213,104.36,109.814,114.088,117.118,120.149,124.998,129.271,133.513,136.544,140.351,148.533,151.564,156.413,160.686,167.051,171.9,174.931,178.727,181.758,186.06,190.303,194.11,198.959,201.99,208.05,212.899,216.695,220.998,225.24,230.089,234.332,237.363,242.817,247.666,250.697,254.504,258.807,261.837,267.292,273.352,276.382,282.442,288.2,293.655,299.409,303.652,308.501,312.308,319.732,324.005,330.065,335.519,341.274,347.334,353.394,358.849,362.656,368.716,373.565,377.838,381.634,390.195,395.044,399.346,404.801,413.597,417.839,423.292,428.746,433.049,437.291,442.141,448.201,452.008,455.038,461.098,465.401,471.755,476.605,480.907,486.362,492.433" y="498.744" svg_rhmargin="496.069" style="fill:#000000;font-family:QISGBS+LMRoman10-Regular;font-size:10.91px;font-style:NORMAL;font-weight:normal;">variiert. Hierbei ist eine stetige, signiﬁkante Erhöhung der Gesamtkosten insbeson-</text>
  <text x="99.213,105.273,110.122,114.395,119.244,122.048,125.078,131.138,133.953,140.013,144.862,149.135,151.95,160.132,165.586,171.646,175.282,183.464,189.524,193.16,200.584,206.949,211.798,217.858,222.707,225.511,231.571,237.631,241.904,246.448,252.508,255.322,261.382,266.231,272.291,275.106,279.408,283.651,288.5,291.531,296.985,301.834,307.894,313.954,318.803,324.863,327.667,335.849,341.614,345.857,350.706,353.736,356.767,359.571,362.601,368.661,372.964,377.206,382.661,385.691,388.722,391.752,396.602,400.875,405.117,409.966,414.23900000000003,417.054,424.478,431.901,440.083,442.887,448.339,453.794,462.88399999999996,465.699,471.759,476.001,481.456,485.698,491.758" y="515.179" svg_rhmargin="496.061" style="fill:#000000;font-family:QISGBS+LMRoman10-Regular;font-size:10.91px;font-style:NORMAL;font-weight:normal;">dere in der HöS-HS-Ebene durch den steigenden Anteil installierter EEA vom Status</text>
  <text x="99.213,107.698,113.758,119.213,122.849,125.88000000000001,129.697,135.757,142.123,146.972,151.245,155.052,161.112,166.567,170.87,174.688,182.869,190.293,197.717,201.535,206.989,212.444,217.899,223.353,226.989,230.796,235.645,241.705,250.79500000000002,254.614,259.463,268.024,273.479,277.285,282.74,288.195,293.649,297.296,303.356,308.205,313.043,319.114,324.569,328.831,331.862,337.317,341.134,345.983,352.043,355.862,362.227,367.076,372.531,378.591,384.045,388.589,394.343,398.586,403.435,409.495,412.526,416.344,424.677,427.708,432.557,436.364,444.546,447.577,453.637,458.486,464.546,470.606,476.06,482.12,491.211" y="531.614" svg_rhmargin="496.06" style="fill:#000000;font-family:QISGBS+LMRoman10-Regular;font-size:10.91px;font-style:NORMAL;font-weight:normal;">Quo-, über das NEP 2035- zum eGo 100-Szenario zu beobachten. Die Hinzunahme</text>
  <text x="99.213,104.062,107.093,113.153,118.002,122.851,125.881,131.941,136.79,141.063,144.533,151.351,156.2,159.23,163.473,169.533,175.593,181.048,185.897,191.957,195.426,201.486,207.546,213.606,217.075,225.56,231.62,237.075,241.317,246.166,252.226,255.695,261.15,267.221,271.524,274.992,281.052,285.901,294.991,298.461,306.188,311.643,315.279,321.339,326.188,331.037,337.097,342.551,346.824,349.855,355.31,358.779,364.839,369.688,373.991,377.459,385.641,393.065,400.489,403.958" y="548.05" svg_rhmargin="408.201" style="fill:#000000;font-family:QISGBS+LMRoman10-Regular;font-size:10.91px;font-style:NORMAL;font-weight:normal;">einzelner Leitungen und Knoten aus dem B2-Szenario des NEP (</text>
  <text svg_rhmargin="465.935" x="408.203,414.336,419.354,424.93,430.506,436.081,441.657,447.233,455.341,460.359,465.935" y="548.05" style="fill:#000000;font-family:RSQXPN+LMRoman10-Italic;font-size:10.91px;font-style:italic;font-weight:normal;">nep2035_b2 </text>
  <text x="467.411,471.654,475.123,480.883,486.943,491.792" y="548.05" svg_rhmargin="496.065" style="fill:#000000;font-family:QISGBS+LMRoman10-Regular;font-size:10.91px;font-style:NORMAL;font-weight:normal;">) oder</text>
  <text x="99.213,104.668,110.728,115.03099999999999,117.616,123.676,128.525,134.585,137.181,142.633,148.088,154.148,156.733,162.804,167.642,171.915,174.512,182.239,190.421,195.27,199.512,204.361,212.54299999999998,215.129,221.494,226.343,230.616,235.465,238.496,242.739,247.042,249.627,255.992,260.841,265.144,269.386,274.841,279.083,282.114,287.568,291.811,296.66,302.72,305.305,311.972,318.032,324.092,329.547,335.607,339.849,344.698,350.758,353.355,359.415,362.445,366.748,369.333,374.788,380.242,385.697,391.152,393.748" y="564.485" svg_rhmargin="397.991" style="fill:#000000;font-family:QISGBS+LMRoman10-Regular;font-size:10.91px;font-style:NORMAL;font-weight:normal;">aus den von der BNetzA bereits bestätigten Zubauten bis 2035 (</text>
  <text x="397.986,404.119,409.137,414.713,420.289,425.864,431.44,437.016,445.124,449.586,455.162,461.295,467.428,472.028,480.95,485.412" y="564.485" svg_rhmargin="490.988" style="fill:#000000;font-family:RSQXPN+LMRoman10-Italic;font-size:10.91px;font-style:italic;font-weight:normal;">nep2035_conﬁrmed</text>
  <text x="491.82" y="564.485" svg_rhmargin="496.063" style="fill:#000000;font-family:QISGBS+LMRoman10-Regular;font-size:10.91px;font-style:NORMAL;font-weight:normal;">)</text>
  <text x="99.213,102.244,111.334,113.941,121.218,126.067,130.34,135.794,138.825,143.674,146.705,151.248,157.308,159.916,164.765,170.825,179.915,182.533,188.593,193.442,199.502,203.745,206.776,212.23,217.079,223.139,225.746,231.806,236.049,241.504,245.746,251.806,256.10900000000004,258.727,267.212,273.272,278.727,281.334,286.183,291.032,294.063,299.517,304.366,310.426,313.044,319.104,324.559,330.013,334.863,340.317,345.166,351.226,353.833,358.683,361.713,367.773,372.622,375.229,382.506,387.355,391.628,400.719,403.749,409.809,415.869,420.718,424.991,431.051,437.111,442.566,445.184,451.244,456.082,460.355,462.974,471.153,476.608,480.91,485.153,490.002" y="580.92" svg_rhmargin="496.062" style="fill:#000000;font-family:QISGBS+LMRoman10-Regular;font-size:10.91px;font-style:NORMAL;font-weight:normal;">im Vergleich zum heutigen Status Quo zeigen dagegen eine Verminderung der Kosten</text>
  <text x="99.213,105.273,111.333,117.393,121.026,127.086,132.54,141.631,144.661,148.904,152.548,157.397,160.427,166.487,171.336,177.39600000000002,181.029,187.395,192.849,197.152,200.182,204.425,207.455,212.908,217.757,223.817,227.449,234.884,237.915,243.975,250.035,256.095,260.397,264.7,268.332,274.392,279.241,283.514,287.147,292.611,297.46,301.733,307.187,313.247,316.278,321.732,326.035,330.338,334.58,339.429,345.489,349.122,359.122,364.577,370.031,376.091,381.546,387.606,396.696,401.546,407.606" y="597.355" svg_rhmargin="410.637" style="fill:#000000;font-family:QISGBS+LMRoman10-Regular;font-size:10.91px;font-style:NORMAL;font-weight:normal;">und damit einen positiven Einﬂuss der veranlassten Maßnahmen.</text>
  <text x="99.213,106.105,112.165,116.438,120.977,127.037,130.067,134.916,139.454,147.028,151.877,154.907,159.15,163.999,168.272,173.727,178.576,184.636,189.485,195.545,201.605,206.454,212.514,217.052,225.234,231.294,236.748,239.779,245.537,249.839,254.688,260.748,265.276,271.336,274.366,279.215,284.981,289.224,293.751,299.811,305.265,309.568,314.106,318.955,327.515,332.96999999999997,337.508,342.963,348.417,353.872,357.508,363.568,368.417,373.266,379.326,384.78,389.054,392.084,397.539,402.077,407.531,410.562,414.865,419.392,427.422,432.271,435.604,440.453,444.726,449.575,455.635,460.484,464.787,470.545,474.847,479.09,483.939,493.029" y="630.0219999999999" svg_rhmargin="496.06" style="fill:#000000;font-family:QISGBS+LMRoman10-Regular;font-size:10.91px;font-style:NORMAL;font-weight:normal;">Für die weitergehenden Analysen dient das eGo 100-Szenario als Referenzsystem.</text>
  <text x="99.213,107.395,116.485,120.565,125.414,129.352,136.925,142.379,145.41,150.864,155.713,159.793,167.975,173.741,181.314,186.163,189.193,193.737,199.492,205.552,211.612,217.066,221.915,227.975,232.055,235.086,244.17600000000002,248.256,256.287,261.741,267.801,276.892,281.741,287.801,291.881,297.335,300.366,303.396,308.851,313.7,322.791,327.64,330.67,336.73,340.81,346.565,352.636,361.726,366.564,370.838,373.868,378.171,382.725,388.785,393.634,397.90700000000004,401.987,410.169,416.229,421.684,426.533,432.593,438.047,444.107,447.138,452.593,458.045,462.894,465.925,470.167,475.016,481.076,485.156,490.005" y="646.457" svg_rhmargin="496.065" style="fill:#000000;font-family:QISGBS+LMRoman10-Regular;font-size:10.91px;font-style:NORMAL;font-weight:normal;">Um etwaige Abweichungen im Rahmen allgemein numerischer Ungenauigkeiten zu</text>
  <text x="99.213,105.578,110.428,118.001,122.85,127.123,131.365,136.215,142.275,145.306,148.763,156.642,162.702,166.975,173.035,177.884,181.342,186.191,189.222,195.282,200.131,203.6,208.449,212.722,218.782,223.631,229.691,233.934,238.783,242.241,249.968,254.817,259.09,263.939,268.483,274.543,280.297,286.357,292.417,297.87199999999996,301.341,307.401,312.25,316.553,320.011,328.041,332.89,336.223,341.072,345.345,350.194,356.254,361.103,365.406,371.164,375.466,379.709,384.558,393.64799999999997,397.107,403.167,409.227,413.5,418.043,424.114,429.569,434.407,437.751,443.811,449.871,454.144,458.386,461.41700000000003,464.875,473.208,478.663,482.121,488.181,491.212" y="662.892" svg_rhmargin="496.061" style="fill:#000000;font-family:QISGBS+LMRoman10-Regular;font-size:10.91px;font-style:NORMAL;font-weight:normal;">bewerten, wurde eine erneute Berechnung des Referenzsystem durchgeführt. Da die</text>
  <text x="99.213,107.393,112.847,117.15,121.392,126.241,131.996,139.58,144.429,148.702,152.945,157.79399999999998,162.747,168.807,174.261,180.627,185.476,188.507,193.47,198.319,204.077,209.531,215.289,219.53199999999998,224.495,228.768,233.617,239.677,243.951,249.7,255.76,261.82,266.669,269.699,274.548,278.821,283.064,288.028,295.906,301.966,306.239,312.299,317.148,323.208,326.23900000000003,331.203,336.655,342.11,348.17,354.23,359.079,365.139,370.102,375.857,381.917,391.007,395.856,400.13,403.16,407.463,412.017,418.077,422.926,427.879,436.061,441.826,449.399,454.248,457.279,461.823,467.577,473.637,479.697,485.152,490.001" y="679.327" svg_rhmargin="496.061" style="fill:#000000;font-family:QISGBS+LMRoman10-Regular;font-size:10.91px;font-style:NORMAL;font-weight:normal;">Kostenwerte dabei exakt reproduziert wurden, können numerische Abweichungen</text>
  <text x="99.213,105.273,110.728,116.788,121.637,126.486,132.546,135.84,141.295,147.355,151.657,157.112,161.961,166.264,170.807,176.867,179.898,185.352,189.655,193.957,198.807,204.867,208.161,215.734,220.583,224.856,230.916,235.765,241.825,244.856,248.151,255.574,258.605,264.665,269.514,272.797,278.857,283.707,287.949,293.404,296.434,299.465,302.495,305.526,310.375,314.648,318.891,323.74,327.023,334.911,340.971,347.031,350.061,354.364,358.606,364.666,370.726,376.181,379.475,385.535,390.384,394.65700000000004,397.941,404.001,408.85,414.91,419.213,422.243,426.486,429.516,435.274,438.305,442.547,448.002,452.244,456.547,461.396,464.427,470.487,476.547,482.607,486.909,491.212" y="695.762" svg_rhmargin="496.061" style="fill:#000000;font-family:QISGBS+LMRoman10-Regular;font-size:10.91px;font-style:NORMAL;font-weight:normal;">nahezu ausgeschlossen werden. Eine detaillierte Auﬂistung der Sensitivitätseinﬂüsse</text>
  <text x="99.213,102.244,107.698,112.001,116.303,120.54599999999999,124.986,129.288,132.319,136.863,142.923,147.363,154.336,159.79,166.156,171.005,174.035,177.066,181.915,186.355,191.809,194.84,200.29500000000002,204.735,209.584,215.338,219.581,225.641,230.49,236.55,245.64,250.489,256.549,259.58,264.031,272.364,275.395,280.24399999999997,284.684,289.533,293.795,298.644,301.675,306.524,309.555,313.797,318.646,324.706,329.146,336.57,340.843,346.298,351.147,357.207,363.267,366.297,370.6,374.913,379.762,384.202,389.04,393.89,396.92,402.375,407.224,413.284,417.724,422.573,428.633,437.72299999999996,442.174,449.136,453.986,457.016,460.047,464.487,468.789,471.82,477.274,483.334,486.365,492.425" y="712.197" svg_rhmargin="496.061" style="fill:#000000;font-family:QISGBS+LMRoman10-Regular;font-size:10.91px;font-style:NORMAL;font-weight:normal;">lässt sich Tabelle 7.4 entnehmen. Die erzielten Ergebnisse zeigen zum Teil signiﬁ-</text>
  <text x="479.699,485.154,490.608" y="760.179" svg_rhmargin="496.063" style="fill:#4d4d4d;font-family:QISGBS+LMRoman10-Regular;font-size:10.91px;font-style:NORMAL;font-weight:normal;">165</text>
 </g>
</svg>
