<?xml version="1.0" encoding="UTF-8"?>
<svg height="778.496" width="530.522" xmlns="http://www.w3.org/2000/svg">
 <g id="page" xmlns:svgx="http://www.xml-cml.org/schema/svgx">
  <g begin="text">
   <text y="62.979" x="76.288,81.158,85.143,88.682,91.782,97.983,101.521,104.765,107.866,112.297,114.951,117.167,120.41,123.949,126.165" svgx:width="0.61,0.5,0.44,0.39,0.78,0.44,0.41,0.39,0.56,0.33,0.28,0.41,0.44,0.28,0.39" style="fill:rgb(0,0,0);font-family:URWPalladioL-Ital;font-size:7.97px;stroke:none;">Pharmaceuticals</text>
   <text y="62.979" x="131.257,135.242,139.227,143.212" svgx:width="0.5,0.5,0.5,0.5" style="fill:rgb(0,0,0);font-family:URWPalladioL-Bold;font-size:7.97px;stroke:none;">2017</text>
   <text y="62.979" x="147.198" svgx:width="0.25" style="fill:rgb(0,0,0);font-family:URWPalladioL-Roma;font-size:7.97px;stroke:none;">,</text>
   <text y="62.979" x="151.183,155.168" svgx:width="0.5,0.5" style="fill:rgb(0,0,0);font-family:URWPalladioL-Ital;font-size:7.97px;stroke:none;">10</text>
   <text y="62.979" x="159.153,161.1455,163.138,167.123,171.108,495.794,499.779,501.772,506.123,508.7531,510.77,514.755" svgx:width="0.25,0.55,0.5,0.5,0.55,0.5,0.55,0.55,0.33,0.55,0.5,0.5" style="fill:rgb(0,0,0);font-family:URWPalladioL-Roma;font-size:7.97px;stroke:none;">, 84 9 of 12</text>
   <text y="97.848" x="76.535,81.536,84.037,89.038,94.039,99.019,101.531" svgx:width="0.5,0.25,0.5,0.5,0.5,0.55,0.33" style="fill:rgb(0,0,0);font-family:URWPalladioL-Roma;font-size:9.96px;stroke:none;">5:100 (</text>
   <text y="97.848" x="104.859" svgx:width="0.5" style="fill:rgb(0,0,0);font-family:URWPalladioL-Ital;font-size:9.96px;stroke:none;">v</text>
   <text y="97.848" x="109.86" svgx:width="0.61" style="fill:rgb(0,0,0);font-family:URWPalladioL-Roma;font-size:9.96px;stroke:none;">/</text>
   <text y="97.848" x="115.922" svgx:width="0.5" style="fill:rgb(0,0,0);font-family:URWPalladioL-Ital;font-size:9.96px;stroke:none;">v</text>
   <text y="97.848" x="120.923,124.2098,126.744,129.655,135.4318,137.957,144.069,146.979,151.42,157.242,160.153,165.614,169.385,174.846,183.678,188.47,191.73,197.552,202.553,208.374,213.1548,215.656,218.987,224.548,227.459,231.7,237.522,242.313,246.297,248.754,254.006,258.447,261.357,266.149,271.97,275.231,278.141,284.193,288.634,291.124,293.615,298.616,303.618,306.118,311.12,319.4864,322.012,328.024,334.055,338.006,340.917,344.178,349.739,353.0258,355.56,360.562,366.383,372.4586,374.975" svgx:width="0.33,0.55,0.29,0.58,0.55,0.61,0.29,0.44,0.58,0.29,0.55,0.4,0.55,0.88,0.48,0.33,0.58,0.5,0.58,0.48,0.55,0.33,0.56,0.29,0.42,0.58,0.48,0.4,0.55,0.52,0.44,0.29,0.48,0.58,0.33,0.29,0.61,0.44,0.25,0.55,0.5,0.5,0.25,0.5,0.84,0.55,0.6,0.6,0.4,0.29,0.33,0.56,0.33,0.55,0.5,0.58,0.61,0.55,0.5" style="fill:rgb(0,0,0);font-family:URWPalladioL-Roma;font-size:9.96px;stroke:none;">) in dichloromethane (Fisher Scientiﬁc, 99.9% purity) and 1</text>
   <text y="97.848" x="382.466" svgx:width="0.62" style="fill:rgb(0,0,0);font-family:EURM10;font-size:9.96px;stroke:none;">µ</text>
   <text y="97.848" x="388.62,394.6956,397.222,402.683,405.9698,408.495,411.756,417.577,422.3578,424.859,429.1,434.561,437.472,443.503,446.764,449.675,455.136,460.9128,463.448,471.79,476.792,480.9752,483.513,486.424,492.245,494.586,499.377,503.818,507.079,511.87,517.982" svgx:width="0.61,0.55,0.55,0.33,0.55,0.33,0.58,0.48,0.55,0.42,0.55,0.29,0.6,0.33,0.29,0.55,0.58,0.55,0.83,0.5,0.42,0.55,0.29,0.58,0.23,0.48,0.44,0.33,0.48,0.61,0.25" style="fill:rgb(0,0,0);font-family:URWPalladioL-Roma;font-size:9.96px;stroke:none;">L of the solution was injected.</text>
   <text y="111.358" x="76.535,82.616,88.409,93.385,99.177,102.422,105.318,110.752,119.54,124.308,128.239,131.135,135.554,140.53,143.427,146.323,151.9006,154.355,160.336,166.338,170.09,174.8708,177.365,181.585,184.83,189.806,195.598,201.679,206.656,210.408,216.489,220.709,223.199,225.695,231.697,235.916,240.684,246.7596,249.263,252.508,257.986,260.45,266.531,271.298,274.543,279.31,283.241,292.029,294.926,300.718,305.4988,307.983,311.228,317.021,321.8018,324.286,329.053,331.949,337.951,341.195,344.092,349.526,355.3028,357.826,363.26,367.013,373.094,377.861,381.84499999999997,384.29,389.725,393.01180000000005,395.537,400.304,406.097,411.073,416.865,420.11,423.006,428.44,437.228,441.996,445.927,450.147,452.637,455.143,463.444,468.211,471.963,476.7438,479.229,484.205,489.828,494.804,497.701,500.597,505.573,511.077,513.973" svgx:width="0.61,0.58,0.5,0.58,0.33,0.29,0.55,0.88,0.48,0.4,0.29,0.44,0.5,0.29,0.29,0.56,0.55,0.6,0.6,0.4,0.48,0.55,0.42,0.33,0.5,0.58,0.61,0.5,0.4,0.61,0.42,0.25,0.55,0.6,0.42,0.48,0.61,0.55,0.33,0.55,0.55,0.61,0.48,0.33,0.48,0.4,0.88,0.29,0.58,0.48,0.55,0.33,0.58,0.48,0.55,0.48,0.29,0.6,0.33,0.29,0.55,0.58,0.55,0.55,0.4,0.61,0.48,0.4,0.55,0.55,0.33,0.55,0.48,0.58,0.5,0.58,0.33,0.29,0.55,0.88,0.48,0.4,0.42,0.25,0.55,0.83,0.48,0.4,0.48,0.55,0.5,0.56,0.5,0.29,0.29,0.5,0.55,0.29,0.48" style="fill:rgb(0,0,0);font-family:URWPalladioL-Roma;font-size:9.96px;stroke:none;">Enantiomerically pure standards, used to determine the elution order of enantiomers, were available</text>
   <text y="124.867" x="76.535,79.434,85.21079999999999,87.723,93.163,98.961,103.7418,106.224,111.663,114.9498,117.471,120.719,126.517,131.2978,133.78,138.761,144.769,148.017,153.815,159.254,163.19,167.414,170.2028,172.674,175.573,180.554,186.064,191.503,195.439,200.42,203.668,209.107,213.042,218.6196,221.072,224.39,231.453,233.944,240.031,242.522,245.839" svgx:width="0.29,0.58,0.55,0.55,0.58,0.48,0.55,0.55,0.33,0.55,0.33,0.58,0.48,0.55,0.5,0.6,0.33,0.58,0.55,0.4,0.42,0.28,0.55,0.29,0.5,0.55,0.55,0.4,0.5,0.33,0.55,0.4,0.56,0.55,0.33,0.71,0.25,0.61,0.25,0.33,0.25" style="fill:rgb(0,0,0);font-family:URWPalladioL-Roma;font-size:9.96px;stroke:none;">in one of the authors’ laboratory (C.B.).</text>
   <text y="148.08" x="76.535,81.516,84.007,88.988,91.478,94.567,97.885,101.76,106.184,108.953,113.377,116.694,119.464,123.887,129.4646,131.917,136.34,141.88,146.85999999999999,149.352,152.669,157.65,161.526,167.065,170.383,173.152,178.413,182.467,186.891,190.208,192.978,197.401,202.9786,205.431,209.855,212.6438,215.115,222.308,226.363,230.786,234.482,238.358,243.897,248.32,253.859,257.7434,260.225" svgx:width="0.5,0.25,0.5,0.25,0.55,0.33,0.39,0.44,0.28,0.44,0.33,0.28,0.44,0.56,0.55,0.44,0.56,0.5,0.55,0.33,0.5,0.39,0.56,0.33,0.28,0.53,0.41,0.44,0.33,0.28,0.44,0.56,0.55,0.44,0.28,0.55,0.72,0.41,0.44,0.39,0.39,0.56,0.44,0.56,0.39,0.55,0.61" style="fill:rgb(0,0,0);font-family:URWPalladioL-Ital;font-size:9.96px;stroke:none;">3.7. Isolation and Identiﬁcation of Acorenone B</text>
   <text y="167.567" x="97.795,104.024,109.938,114.7188,118.749,123.616,127.925,132.234,137.101,143.015,146.328,149.285,154.366,157.2544,161.256,166.804,169.761,172.64939999999999,176.661,182.209" svgx:width="0.61,0.58,0.48,0.55,0.48,0.42,0.42,0.48,0.58,0.33,0.29,0.5,0.29,0.55,0.55,0.29,0.29,0.55,0.55,0.33" style="fill:rgb(0,0,0);font-family:URWPalladioL-Roma;font-size:9.96px;stroke:none;">The essential oil of</text>
   <text y="167.567" x="189.535,197.441,199.931,203.924,209.005,211.83,215.783,219.736,223.689,227.825,231.209" svgx:width="0.78,0.25,0.55,0.5,0.28,0.39,0.39,0.39,0.41,0.33,0.44" style="fill:rgb(0,0,0);font-family:URWPalladioL-Ital;font-size:9.96px;stroke:none;">N. dissecta</text>
   <text y="167.567" x="239.657,243.041,248.021,252.065,257.715,261.0018,265.031,273.506,278.587,282.7702,286.839,291.147,297.275,302.894,305.272,310.14,314.651,317.964,322.832,328.9076,332.983,336.296,341.774,345.787,350.299,355.848,358.805,364.932,373.905,379.68179999999995,383.752,388.264,394.178,398.019,403.568,412.541,417.622,420.934,426.483,432.133,436.147,441.228,447.335,453.249,458.82660000000004,462.832,468.38,474.121,478.989,482.97299999999996,486.946,491.92600000000004,495.969,500.278,503.235,506.192,509.149,513.661" svgx:width="0.33,0.5,0.55,0.56,0.33,0.55,0.83,0.5,0.42,0.55,0.42,0.6,0.55,0.23,0.48,0.44,0.33,0.48,0.61,0.55,0.33,0.55,0.55,0.44,0.55,0.29,0.6,0.88,0.58,0.55,0.44,0.58,0.4,0.55,0.88,0.5,0.33,0.55,0.56,0.4,0.5,0.6,0.58,0.56,0.55,0.55,0.56,0.48,0.4,0.55,0.5,0.55,0.42,0.29,0.29,0.29,0.44,0.5" style="fill:rgb(0,0,0);font-family:URWPalladioL-Roma;font-size:9.96px;stroke:none;">(5 g) was subjected to column chromatography over a silica</text>
   <text y="181.077" x="76.535,82.185,87.053,89.9414,93.454,101.208,106.289,111.269,114.815,119.327,124.875,127.832,133.96,142.933,148.847,151.33700000000002,155.066,160.147,166.254,172.361,175.318,180.968,183.925,189.84,195.4176,198.935,204.015,209.7918,213.364,218.913,221.87,224.827,230.985,235.294,238.251,241.208,244.165,248.677,253.65699999999998,257.203,265.678,270.545,273.502,279.152,285.066,288.3528,291.824,295.838,300.919,304.232,307.189,312.66700000000003,316.182,321.73,325.01680000000005,328.559,333.64,336.18,341.261,346.342,351.423,353.913,357.642,366.117,369.074,372.387,378.1638,381.746,386.726,390.262,399.235,402.192,407.435,410.748,416.876,420.717,425.4978,429.029,434.578,437.8648,441.396,449.851,454.718,459.962,462.502,470.408,474.92,482.907,489.116,492.4028,495.874,500.955,506.036,508.576,513.657" svgx:width="0.56,0.48,0.29,0.55,0.76,0.5,0.5,0.55,0.44,0.55,0.29,0.6,0.88,0.58,0.25,0.55,0.5,0.6,0.6,0.29,0.56,0.29,0.58,0.56,0.55,0.5,0.58,0.55,0.55,0.29,0.29,0.61,0.42,0.29,0.29,0.29,0.44,0.5,0.55,0.83,0.48,0.29,0.56,0.58,0.33,0.55,0.4,0.5,0.33,0.29,0.55,0.55,0.55,0.33,0.55,0.5,0.25,0.5,0.5,0.5,0.25,0.55,0.83,0.29,0.33,0.58,0.55,0.5,0.55,0.88,0.29,0.52,0.33,0.6,0.4,0.48,0.55,0.55,0.33,0.55,0.83,0.48,0.52,0.25,0.78,0.44,0.79,0.61,0.33,0.55,0.5,0.5,0.25,0.5,0.5" style="fill:rgb(0,0,0);font-family:URWPalladioL-Roma;font-size:9.96px;stroke:none;">gel G60 column, applying an oil/silica weight ratio of 1:200, with a mixture of Hex:AcOEt 90:10</text>
   <text y="194.586" x="76.207,79.578,82.523,86.815,92.341,96.836,100.834,105.895,109.195,112.14,116.5224,119.124,123.973,126.918,133.022,136.322,139.267,144.794,150.685,154.055,156.54500000000002,159.076,164.602,170.2,173.5,178.561,181.506,187.397,190.343,196.234,201.8116,204.352,209.332,211.903,215.202,220.729,224.029,229.09,231.9784,234.525,240.052,243.3388,245.912,252.036,257.755,262.5358,265.094,268.464,272.452,277.513,282.008,285.307,288.253,293.779,299.67,303.8532,306.452,311.513,317.404,323.4796,326.079,331.14,334.338,337.699,343.225,347.051,353.236,356.182,362.073,367.6506,370.19,375.251,379.746,385.272,389.088,393.937,399.828,405.354,411.245,416.0258,418.584,424.6596,427.258,432.319,436.5022,439.101,444.081,446.652,452.735,458.839,462.655,467.4358,469.993,474.488,480.014,488.952,495.035,500.562,506.665,512.556" svgx:width="0.33,0.29,0.42,0.55,0.44,0.4,0.5,0.33,0.29,0.44,0.55,0.48,0.29,0.6,0.33,0.29,0.55,0.58,0.33,0.25,0.55,0.55,0.55,0.33,0.5,0.29,0.58,0.29,0.58,0.56,0.55,0.5,0.55,0.33,0.55,0.33,0.5,0.29,0.55,0.55,0.33,0.55,0.61,0.56,0.48,0.55,0.33,0.4,0.5,0.44,0.33,0.29,0.55,0.58,0.42,0.55,0.5,0.58,0.61,0.55,0.5,0.33,0.33,0.55,0.4,0.61,0.29,0.58,0.56,0.55,0.5,0.44,0.55,0.4,0.48,0.58,0.55,0.58,0.48,0.55,0.61,0.55,0.5,0.42,0.55,0.5,0.55,0.6,0.6,0.4,0.48,0.55,0.44,0.55,0.88,0.6,0.55,0.6,0.58,0.61" style="fill:rgb(0,0,0);font-family:URWPalladioL-Roma;font-size:9.96px;stroke:none;">(isocratic elution), obtaining a total of ﬁve fractions and affording acorenone B as a pure compound</text>
   <text y="208.095" x="76.207,79.591,84.672,87.212,92.293,97.27300000000001,101.51,107.16,110.544,113.03399999999999,117.23,123.46,129.374,134.1548,138.377,141.334,147.543,152.411,158.325,161.638,164.595,170.743,175.255,180.335,183.648,186.605,192.154,197.9308,202.214,210.689,215.77,219.9532,224.214,230.322,235.189,239.203,242.587,248.135,252.149,261.122,265.99,272.0656,276.345,281.964,287.5416,291.75,296.059,302.166,307.033,311.545,314.858,318.689,324.237,328.546,333.058,338.606,344.714,347.671,352.0534,356.329,359.641,364.509,369.021,374.935,380.849,383.806,389.497,395.624,400.492,404.6752,408.936,413.245,419.373,423.885,429.66179999999997,433.945,439.026,443.2092,447.47,453.679,457.104,460.488,470.101,475.436" svgx:width="0.33,0.5,0.25,0.5,0.5,0.55,0.56,0.33,0.25,0.55,0.61,0.58,0.48,0.55,0.29,0.61,0.48,0.58,0.33,0.29,0.61,0.44,0.5,0.33,0.29,0.55,0.58,0.55,0.83,0.5,0.42,0.55,0.6,0.48,0.4,0.33,0.55,0.4,0.88,0.48,0.61,0.55,0.55,0.56,0.55,0.42,0.6,0.48,0.44,0.33,0.4,0.55,0.42,0.44,0.55,0.6,0.29,0.44,0.55,0.33,0.48,0.44,0.58,0.58,0.29,0.56,0.6,0.48,0.42,0.55,0.42,0.6,0.44,0.58,0.55,0.5,0.42,0.55,0.61,0.34,0.33,0.95,0.52,0.25" style="fill:rgb(0,0,0);font-family:URWPalladioL-Roma;font-size:9.96px;stroke:none;">(1.48 g). The identiﬁcation was performed by spectroscopic techniques such as EI-MS,</text>
   <text y="204.479" x="482.117" svgx:width="0.5" style="fill:rgb(0,0,0);font-family:URWPalladioL-Roma;font-size:7.57px;stroke:none;">1</text>
   <text y="208.095" x="486.401,494.856,497.346,501.532,506.613,512.527" svgx:width="0.83,0.25,0.55,0.5,0.58,0.61" style="fill:rgb(0,0,0);font-family:URWPalladioL-Roma;font-size:9.96px;stroke:none;">H, and</text>
   <text y="217.988" x="76.157,79.943" svgx:width="0.5,0.5" style="fill:rgb(0,0,0);font-family:URWPalladioL-Roma;font-size:7.57px;stroke:none;">13</text>
   <text y="221.605" x="84.226,91.2976,93.695,101.883,111.204,117.785" svgx:width="0.71,0.55,0.83,0.95,0.67,0.25" style="fill:rgb(0,0,0);font-family:URWPalladioL-Roma;font-size:9.96px;stroke:none;">C NMR.</text>
   <text y="217.988" x="122.735" svgx:width="0.5" style="fill:rgb(0,0,0);font-family:URWPalladioL-Roma;font-size:7.57px;stroke:none;">1</text>
   <text y="221.605" x="127.018,137.699,142.625,148.36" svgx:width="0.83,0.5,0.58,0.61" style="fill:rgb(0,0,0);font-family:URWPalladioL-Roma;font-size:9.96px;stroke:none;">Hand</text>
   <text y="217.988" x="156.866,160.652" svgx:width="0.5,0.5" style="fill:rgb(0,0,0);font-family:URWPalladioL-Roma;font-size:7.57px;stroke:none;">13</text>
   <text y="221.605" x="164.935,172.0066,174.404,182.592,191.913,198.58620000000002,200.977,205.155,211.077,215.796,220.171,223.383,227.275,232.255,234.684,242.902,247.621,251.336,256.1168,258.539,263.465,267.84,273.358,279.299,282.166,285.881,290.6,296.67560000000003,299.103,305.045,309.223,312.09,317.824,323.40160000000003,325.785,330.76500000000004,333.195,339.205,346.871,353.453,356.773,364.439,375.11,383.298,392.618,399.2912,401.683,405.861,411.783,416.502,420.877,424.089,427.804,433.183,441.884,446.603,449.815,454.535,458.519,460.91,464.191,469.117,474.044,479.024,481.453,490.774,498.972,503.952,506.391,509.672,515.052" svgx:width="0.71,0.55,0.83,0.95,0.67,0.55,0.42,0.6,0.48,0.44,0.33,0.4,0.5,0.55,0.83,0.48,0.4,0.48,0.55,0.5,0.44,0.56,0.6,0.29,0.4,0.48,0.61,0.55,0.6,0.42,0.29,0.58,0.56,0.55,0.5,0.55,0.72,0.78,0.67,0.34,0.78,0.83,0.83,0.95,0.67,0.55,0.42,0.6,0.48,0.44,0.33,0.4,0.55,0.88,0.48,0.33,0.48,0.4,0.55,0.33,0.5,0.5,0.5,0.55,0.95,0.83,0.5,0.55,0.33,0.55,0.4" style="fill:rgb(0,0,0);font-family:URWPalladioL-Roma;font-size:9.96px;stroke:none;">C NMR spectra were acquired using a VARIANNMR spectrometer (400 MHz for</text>
   <text y="231.498" x="76.157" svgx:width="0.5" style="fill:rgb(0,0,0);font-family:URWPalladioL-Roma;font-size:7.57px;stroke:none;">1</text>
   <text y="235.114" x="80.441,91.166,96.117,101.881,107.9566,110.417,115.368,120.32,125.3,127.757,137.125,145.364,150.344,152.801,156.099,161.506" svgx:width="0.83,0.5,0.58,0.61,0.55,0.5,0.5,0.5,0.55,0.95,0.83,0.5,0.55,0.33,0.55,0.4" style="fill:rgb(0,0,0);font-family:URWPalladioL-Roma;font-size:9.96px;stroke:none;">Hand 100 MHz for</text>
   <text y="231.498" x="167.901,171.687" svgx:width="0.5,0.5" style="fill:rgb(0,0,0);font-family:URWPalladioL-Roma;font-size:7.57px;stroke:none;">13</text>
   <text y="235.114" x="175.97,182.991,186.289,188.779,191.25,194.478,199.222,202.45,206.362,211.313,220.057,224.801,228.029,233.793,239.299,242.18,246.379,249.261,252.143,257.094,262.857,267.6378,270.086,278.345,283.297,287.4802,289.981,295.953,300.151,304.895,310.9706,313.431,318.382,322.5652,325.067,330.018,335.79479999999995,338.267,341.149,346.912,350.141,354.884,358.796,364.559,369.511,372.3994,374.878,379.077,382.305,387.257,393.02,399.071,404.022,407.755,413.806,416.296,418.767,423.719,429.482,435.55760000000004,438.018,442.415,448.179,452.922,461.666,464.548,468.945,473.896,476.7844,479.264,483.463,489.226,492.108,495.405,498.624,502.8072,505.308,510.26,513.993" svgx:width="0.71,0.33,0.25,0.55,0.33,0.48,0.33,0.4,0.5,0.88,0.48,0.33,0.58,0.56,0.29,0.42,0.29,0.29,0.5,0.58,0.48,0.55,0.83,0.5,0.42,0.55,0.6,0.42,0.48,0.61,0.55,0.5,0.42,0.55,0.5,0.58,0.55,0.29,0.58,0.33,0.48,0.4,0.58,0.5,0.29,0.55,0.42,0.33,0.5,0.58,0.61,0.5,0.4,0.61,0.25,0.55,0.5,0.58,0.61,0.55,0.44,0.58,0.48,0.88,0.29,0.44,0.5,0.29,0.55,0.42,0.58,0.29,0.33,0.33,0.42,0.55,0.5,0.4,0.48" style="fill:rgb(0,0,0);font-family:URWPalladioL-Roma;font-size:9.96px;stroke:none;">C), tetramethylsilane was used as an internal standard, and chemical shifts are</text>
   <text y="248.624" x="76.535,82.074,84.973,90.602,95.374,101.15079999999999,103.663,106.562" svgx:width="0.56,0.29,0.56,0.48,0.58,0.55,0.29,0.58" style="fill:rgb(0,0,0);font-family:URWPalladioL-Roma;font-size:9.96px;stroke:none;">given in</text>
   <text y="248.624" x="114.851" svgx:width="0.5" style="fill:rgb(0,0,0);font-family:EURM10;font-size:9.96px;stroke:none;">δ</text>
   <text y="248.624" x="122.333,125.651,131.638,137.626,146.423,149.74" svgx:width="0.33,0.6,0.6,0.88,0.33,0.25" style="fill:rgb(0,0,0);font-family:URWPalladioL-Roma;font-size:9.96px;stroke:none;">(ppm).</text>
   <text y="271.837" x="76.535,81.516,84.007,88.988,91.478,94.567,101.76,107.3,110.617,113.387,121.138,123.907,127.962,131.658,136.081,140.694,143.464,147.887,150.6758,153.147,160.34,164.395,167.713,170.482,175.464,178.233,181.551" svgx:width="0.5,0.25,0.5,0.25,0.55,0.72,0.56,0.33,0.28,0.78,0.28,0.41,0.39,0.44,0.46,0.28,0.44,0.28,0.55,0.72,0.41,0.33,0.28,0.5,0.28,0.33,0.5" style="fill:rgb(0,0,0);font-family:URWPalladioL-Ital;font-size:9.96px;stroke:none;">3.8. Antimicrobial Activity</text>
   <text y="291.324" x="97.795,103.445,106.402,112.144,116.9248,120.679,126.787,131.868,135.18,141.095,146.643,152.293,157.161,163.075,166.032,170.4144,174.202,179.821,184.902,189.414,192.727,197.595,201.608,204.566,209.546,213.315,216.699,223.873,230.102,237.307,244.512,247.896" svgx:width="0.56,0.29,0.56,0.48,0.55,0.6,0.5,0.33,0.58,0.55,0.56,0.48,0.58,0.29,0.44,0.55,0.55,0.5,0.44,0.33,0.48,0.4,0.29,0.5,0.55,0.33,0.78,0.61,0.71,0.71,0.33,0.25" style="fill:rgb(0,0,0);font-family:URWPalladioL-Roma;font-size:9.96px;stroke:none;">Five pathogenic bacteria (ATCC):</text>
   <text y="291.324" x="254.099,259.749,263.133,267.645,272.726,277.807,282.888,285.713,290.224,294.36,298.872,303.008,307.144,312.794,316.6784,320.415,324.927,330.577,334.347,338.3,343.95" svgx:width="0.56,0.33,0.44,0.5,0.5,0.5,0.28,0.44,0.41,0.44,0.41,0.41,0.56,0.39,0.55,0.44,0.56,0.39,0.39,0.56,0.39" style="fill:rgb(0,0,0);font-family:URWPalladioL-Ital;font-size:9.96px;stroke:none;">Staphylococcus aureus</text>
   <text y="291.324" x="351.569,358.733,364.962,372.167,379.23859999999996,383.04,388.121,393.202,398.283,403.364,408.445" svgx:width="0.78,0.61,0.71,0.71,0.55,0.5,0.5,0.5,0.5,0.5,0.25" style="fill:rgb(0,0,0);font-family:URWPalladioL-Roma;font-size:9.96px;stroke:none;">ATCC 25923,</text>
   <text y="291.324" x="414.947,421.156,423.646,427.365,430.19,434.702,438.655,442.79,447.302,450.127,452.952" svgx:width="0.61,0.25,0.55,0.28,0.44,0.39,0.41,0.44,0.28,0.28,0.39" style="fill:rgb(0,0,0);font-family:URWPalladioL-Ital;font-size:9.96px;stroke:none;">E. faecalis</text>
   <text y="291.324" x="460.568,467.732,473.961,481.166,488.2376,492.039,497.12,502.201,507.282,512.363,517.444" svgx:width="0.78,0.61,0.71,0.71,0.55,0.5,0.5,0.5,0.5,0.5,0.25" style="fill:rgb(0,0,0);font-family:URWPalladioL-Roma;font-size:9.96px;stroke:none;">ATCC 29212,</text>
   <text y="304.833" x="76.226,82.435,86.388,90.341,95.991,101.072,105.584,113.49,118.001,123.651,128.163,132.0474,136.994,141.506,145.459,149.412,155.062,160.143,162.968,168.618,173.129,177.082" svgx:width="0.61,0.39,0.39,0.56,0.5,0.44,0.78,0.44,0.56,0.44,0.39,0.55,0.44,0.39,0.39,0.56,0.5,0.28,0.56,0.44,0.39,0.44" style="fill:rgb(0,0,0);font-family:URWPalladioL-Ital;font-size:9.96px;stroke:none;">Pseudomonas aeruginosa</text>
   <text y="304.833" x="186.468,193.632,199.861,207.066,214.1376,219.149,224.229,229.31,234.391,239.472,244.553" svgx:width="0.78,0.61,0.71,0.71,0.55,0.5,0.5,0.5,0.5,0.5,0.25" style="fill:rgb(0,0,0);font-family:URWPalladioL-Roma;font-size:9.96px;stroke:none;">ATCC 27853,</text>
   <text y="304.833" x="252.566,258.775,262.728,266.864,271.945,275.898,279.851,282.676,286.811,291.892,294.717,299.0994,304.107,308.243,312.755,315.58" svgx:width="0.61,0.39,0.41,0.5,0.39,0.39,0.28,0.41,0.5,0.28,0.44,0.55,0.41,0.44,0.28,0.28" style="fill:rgb(0,0,0);font-family:URWPalladioL-Ital;font-size:9.96px;stroke:none;">Escherichia coli</text>
   <text y="304.833" x="323.278,330.442,336.671,343.876,350.94759999999997,355.958,361.039,366.12,371.201,376.282,381.363" svgx:width="0.78,0.61,0.71,0.71,0.55,0.5,0.5,0.5,0.5,0.5,0.25" style="fill:rgb(0,0,0);font-family:URWPalladioL-Roma;font-size:9.96px;stroke:none;">ATCC 25922,</text>
   <text y="304.833" x="389.376,395.585,399.355,403.867,407.251,411.204,416.854,420.7384,425.684,430.765,436.415,439.24,444.321,448.833,452.786,455.611" svgx:width="0.61,0.39,0.44,0.33,0.39,0.56,0.39,0.55,0.5,0.56,0.28,0.5,0.44,0.39,0.28,0.39" style="fill:rgb(0,0,0);font-family:URWPalladioL-Ital;font-size:9.96px;stroke:none;">Proteus vulgaris</text>
   <text y="304.833" x="464.441,471.605,477.834,485.039,492.1106,497.121,502.202,507.283,512.364,517.445" svgx:width="0.78,0.61,0.71,0.71,0.55,0.5,0.5,0.5,0.5,0.25" style="fill:rgb(0,0,0);font-family:URWPalladioL-Roma;font-size:9.96px;stroke:none;">ATCC 8427,</text>
   <text y="318.342" x="76.535,81.616,87.53" svgx:width="0.5,0.58,0.61" style="fill:rgb(0,0,0);font-family:URWPalladioL-Roma;font-size:9.96px;stroke:none;">and</text>
   <text y="318.342" x="97.492,104.27,107.095,111.048,115.753,119.706,122.531,126.484,129.309,132.134,136.51639999999998,140.395,145.476,151.126,155.079,160.729,168.635,173.147,178.797,181.622,186.134" svgx:width="0.67,0.28,0.39,0.46,0.39,0.28,0.39,0.28,0.28,0.44,0.55,0.5,0.56,0.39,0.56,0.78,0.44,0.56,0.28,0.44,0.39" style="fill:rgb(0,0,0);font-family:URWPalladioL-Ital;font-size:9.96px;stroke:none;">Klebsiella pneumoniae</text>
   <text y="318.342" x="193.841,201.005,207.234,214.439,221.51059999999998,225.404,230.485,235.566,240.647,245.62699999999998,249.477,257.952,262.82,266.651,271.4318,275.278,278.235,284.149,288.661,291.618,297.746,303.955,308.822,314.8976,318.781,321.738,327.5148,331.402,334.715,340.629,345.4098,349.246,352.203,358.117,363.859,368.726,373.035,376.348,379.305,384.955,390.036,393.349,396.306,401.854,407.768,410.258,414.069,419.719,425.267,429.251,433.031,438.112,441.069,443.9574,447.776,453.395,458.476,462.988,466.301,471.168,475.182,478.139,483.22,485.71000000000004,489.825,494.693,499.936,504.448,509.316,515.423" svgx:width="0.78,0.61,0.71,0.71,0.55,0.5,0.5,0.5,0.5,0.55,0.83,0.48,0.4,0.48,0.55,0.29,0.58,0.44,0.29,0.6,0.61,0.48,0.61,0.55,0.29,0.58,0.55,0.33,0.58,0.48,0.55,0.29,0.58,0.56,0.48,0.42,0.33,0.29,0.56,0.5,0.33,0.29,0.55,0.58,0.25,0.55,0.56,0.55,0.4,0.55,0.5,0.29,0.29,0.55,0.55,0.5,0.44,0.33,0.48,0.4,0.29,0.5,0.25,0.55,0.48,0.52,0.44,0.48,0.6,0.33" style="fill:rgb(0,0,0);font-family:URWPalladioL-Roma;font-size:9.96px;stroke:none;">ATCC 9997 were included in the investigation. For all bacteria, except</text>
   <text y="331.852" x="76.535,79.859,85.31" svgx:width="0.33,0.55,0.4" style="fill:rgb(0,0,0);font-family:URWPalladioL-Roma;font-size:9.96px;stroke:none;">for</text>
   <text y="331.852" x="91.739,97.838,100.32799999999999,102.82,105.595,110.027,113.91,117.973,122.405,125.18,127.956" svgx:width="0.61,0.25,0.55,0.28,0.44,0.39,0.41,0.44,0.28,0.28,0.39" style="fill:rgb(0,0,0);font-family:URWPalladioL-Ital;font-size:9.96px;stroke:none;">E. faecalis</text>
   <text y="331.852" x="131.839,134.329,136.82,141.79999999999998,144.297,150.107,154.889,159.88,163.823,167.077,170.401,176.211,180.993,185.984,189.927,193.2138,195.667,198.572,204.382,207.706,213.726,217.958,220.863,226.314,232.0908,234.609,240.129,243.893,249.343,252.598,258.3748,260.893,264.217,270.317,278.622,281.986,285.31,293.037,296.401,301.951,309.029,316.875,319.365,321.856,329.583,332.947,338.497,345.575,353.421,355.911,358.402,363.643,369.643,374.634,378.577,384.127,388.36,390.85,393.341,402.785,410.511,413.00100000000003,415.502,423.269,428.51,436.276,439.56280000000004,442.086,450.411,455.403,459.5862,462.121,468.14,472.373,477.155,483.254,485.744,488.834,496.601,499.506,502.39439999999996,504.896,508.15,513.96" svgx:width="0.25,0.55,0.5,0.55,0.58,0.48,0.5,0.4,0.33,0.33,0.58,0.48,0.5,0.4,0.33,0.55,0.29,0.58,0.33,0.6,0.42,0.29,0.55,0.58,0.55,0.55,0.4,0.55,0.33,0.58,0.55,0.33,0.61,0.83,0.34,0.33,0.77,0.34,0.56,0.71,0.79,0.25,0.55,0.77,0.34,0.56,0.71,0.79,0.25,0.55,0.52,0.6,0.5,0.4,0.56,0.42,0.25,0.55,0.95,0.77,0.25,0.55,0.78,0.52,0.78,0.33,0.55,0.83,0.5,0.42,0.55,0.6,0.42,0.48,0.61,0.25,0.55,0.78,0.29,0.29,0.55,0.33,0.58,0.48" style="fill:rgb(0,0,0);font-family:URWPalladioL-Roma;font-size:9.96px;stroke:none;">, a heart-heart infusion broth (BHI-DIFCO, DIFCO, Sparks, MD, USA) was used. All the</text>
   <text y="345.361" x="76.535,80.675,83.858,87.714,92.596,95.437,101.119,105.3022,107.69,115.832,120.509,124.18,128.9608,131.288,139.909,144.791,147.632,153.314,156.497,161.378,164.22,169.902,174.579,180.65460000000002,182.965,187.847" svgx:width="0.42,0.33,0.4,0.5,0.29,0.58,0.42,0.55,0.83,0.48,0.4,0.48,0.55,0.88,0.5,0.29,0.58,0.33,0.5,0.29,0.58,0.48,0.61,0.55,0.5,0.33" style="fill:rgb(0,0,0);font-family:URWPalladioL-Roma;font-size:9.96px;stroke:none;">strains were maintained at</text>
   <text y="345.361" x="193.582" svgx:width="0.78" style="fill:rgb(0,0,0);font-family:CMSY10;font-size:10.38px;stroke:none;">−</text>
   <text y="345.361" x="201.776,206.658" svgx:width="0.5,0.5" style="fill:rgb(0,0,0);font-family:URWPalladioL-Roma;font-size:9.96px;stroke:none;">80</text>
   <text y="341.745" x="214.06" svgx:width="0.5" style="fill:rgb(0,0,0);font-family:CMSY10;font-size:7.89px;stroke:none;">◦</text>
   <text y="345.361" x="218.598,225.6696,227.951,233.829,239.511,242.694,245.535,248.4234,250.807,256.695,260.834,265.511,268.00100000000003,270.393,278.535,284.217,288.894,294.6708,296.998,300.181,305.863,310.539,316.1166,318.399,326.542,331.218,334.889,339.6698,341.997,350.14,352.981,356.164,361.846,367.811,371.668,376.549,384.692,390.4688,392.796,395.979,401.457,403.74,409.608,413.289,417.966,423.833,428.715,432.386,437.1668,439.494,444.825,450.341,455.017,458.874,464.556,467.397,472.826,478.508,481.7948,484.112,488.447,494.335,497.176,500.358,506.246,509.927,514.603" svgx:width="0.71,0.55,0.6,0.58,0.33,0.29,0.29,0.55,0.6,0.42,0.48,0.25,0.55,0.83,0.58,0.48,0.58,0.55,0.33,0.58,0.48,0.56,0.55,0.83,0.48,0.4,0.48,0.55,0.83,0.29,0.33,0.58,0.61,0.4,0.5,0.83,0.58,0.55,0.33,0.55,0.55,0.6,0.4,0.48,0.6,0.5,0.4,0.48,0.55,0.55,0.56,0.48,0.4,0.58,0.29,0.56,0.58,0.33,0.55,0.44,0.6,0.29,0.33,0.6,0.4,0.48,0.42" style="fill:rgb(0,0,0);font-family:URWPalladioL-Roma;font-size:9.96px;stroke:none;">C until use, when they were withdrawn to prepare overnight cultures</text>
   <text y="358.87" x="76.535,81.616,84.9028,88.12,93.2" svgx:width="0.5,0.33,0.55,0.5,0.5" style="fill:rgb(0,0,0);font-family:URWPalladioL-Roma;font-size:9.96px;stroke:none;">at 37</text>
   <text y="355.254" x="101.565" svgx:width="0.5" style="fill:rgb(0,0,0);font-family:CMSY10;font-size:7.89px;stroke:none;">◦</text>
   <text y="358.87" x="106.103,113.1746,116.499,119.882,125.431,129.415,132.636,137.717,142.697,145.988,151.902,154.392,157.634,167.247,170.671,177.74259999999998,181.057,186.798,191.879,194.836,200.964,205.831,210.0142,213.331,221.806,226.673,230.515,235.29579999999999,238.573,244.782,249.649,252.962,257.819,261.833,270.806,273.763,279.678,284.545,290.6206,293.945,299.564,305.14160000000004,308.405,311.718,317.632,322.4128,325.69,334.663,337.62,342.132,345.974,351.522,354.906,361.115,364.072,367.019,373.146,376.459,379.416,384.965,390.74179999999996,394.07,399.689,403.53,409.079,412.391,418.1678,421.496,430.469,435.337,438.65,444.564,450.112,456.321,458.81100000000004,462.225,468.353,472.661,475.618,481.533,487.11060000000003,490.373,495.353,498.635,504.783,510.697,515.778" svgx:width="0.71,0.55,0.33,0.55,0.4,0.55,0.5,0.5,0.55,0.58,0.25,0.55,0.95,0.34,0.71,0.55,0.56,0.5,0.29,0.6,0.48,0.42,0.55,0.83,0.48,0.4,0.48,0.55,0.61,0.48,0.33,0.48,0.4,0.88,0.29,0.58,0.48,0.61,0.55,0.55,0.56,0.55,0.33,0.58,0.48,0.55,0.88,0.29,0.44,0.4,0.55,0.33,0.61,0.29,0.29,0.6,0.33,0.29,0.55,0.58,0.55,0.55,0.4,0.55,0.33,0.58,0.55,0.88,0.48,0.33,0.58,0.55,0.61,0.25,0.55,0.6,0.42,0.29,0.58,0.56,0.55,0.5,0.55,0.61,0.58,0.5,0.29" style="fill:rgb(0,0,0);font-family:URWPalladioL-Roma;font-size:9.96px;stroke:none;">C for 16 h. MIC values were determined by the micro-dilution broth method, using a ﬁnal</text>
   <text y="372.38" x="76.535,80.958,86.398,92.196,96.62,101.392,107.19,110.438,114.373,119.354,122.602,125.501,130.941,136.7178,139.24,144.679,147.9658,150.497,155.479,161.516,166.497,171.479,176.459,178.96,186.024,191.563,199.314,205.351,214.148,220.236,222.726,225.227,232.938,242.362,247.593,255.4614,257.934,262.158,267.598,270.497,276.504,279.752,282.651,288.091,293.889,298.0722,300.614,306.053,309.3398,311.871,315.119,320.917,325.6978,328.19,332.414,337.396,346.193,352.18,355.079,359.8598,362.352,370.661,375.433,379.189,383.9698,386.461,392.449,396.205,400.977,406.965,411.946,415.702,420.474,426.5496,429.062,434.043,437.32980000000003,439.791,444.771,447.273,451.697,457.136,462.934,467.358,472.13,477.928,481.176,485.111,490.092,493.34,496.239,501.679,507.45579999999995,509.988,515.427" svgx:width="0.44,0.55,0.58,0.44,0.48,0.58,0.33,0.4,0.5,0.33,0.29,0.55,0.58,0.55,0.55,0.33,0.55,0.5,0.61,0.5,0.5,0.5,0.55,0.71,0.56,0.78,0.61,0.88,0.61,0.25,0.55,0.77,0.95,0.52,0.79,0.55,0.42,0.55,0.29,0.6,0.33,0.29,0.55,0.58,0.42,0.55,0.55,0.33,0.55,0.33,0.58,0.48,0.55,0.42,0.5,0.88,0.6,0.29,0.48,0.55,0.83,0.48,0.4,0.48,0.55,0.6,0.4,0.48,0.6,0.5,0.4,0.48,0.61,0.55,0.5,0.33,0.55,0.5,0.55,0.44,0.55,0.58,0.44,0.48,0.58,0.33,0.4,0.5,0.33,0.29,0.55,0.58,0.55,0.55,0.33" style="fill:rgb(0,0,0);font-family:URWPalladioL-Roma;font-size:9.96px;stroke:none;">concentration of 5/105 CFU/mL. DMSO solutions of the sample were prepared at a concentration of</text>
   <text y="385.889" x="76.535,81.427,86.40700000000001,88.823,97.461,102.901,108.83,117.468,123.446,125.93599999999999,128.386,135.998,140.146,144.294,149.186,154.625,158.8082,161.278,169.437,174.123,177.811,182.5918,184.992,189.336,194.228,198.092,201.957,204.803,209.49,215.56560000000002,217.972,223.313,229.213,232.4998,234.897,237.744,243.5208,245.942,250.834,255.725,258.983,267.142,271.829,274.676,277.5644,280.027,285.907,288.754,293.645,296.835,301.521,305.7042,308.164,313.055,318.749,324.82460000000003,327.231,332.211,334.618,337.807,345.966,351.308,354.566,357.824,363.165,366.012,372.0876,374.494,378.642,383.329,387.193,390.04,394.932,397.8204,400.283,406.261,409.107,411.954,417.854,421.043,423.89,429.232,435.0088,437.42,445.58,450.471,454.6542,457.124,463.023,467.171,471.857,477.93260000000004,480.339,483.529,489.007,491.365,496.707,502.117,505.306,510.198,513.045" svgx:width="0.5,0.5,0.55,0.88,0.56,0.61,0.88,0.61,0.25,0.55,0.78,0.42,0.42,0.5,0.56,0.42,0.55,0.83,0.48,0.4,0.48,0.55,0.44,0.5,0.4,0.4,0.29,0.48,0.61,0.55,0.55,0.6,0.33,0.55,0.29,0.58,0.55,0.5,0.5,0.33,0.83,0.48,0.29,0.29,0.55,0.6,0.29,0.5,0.33,0.48,0.42,0.55,0.5,0.58,0.61,0.55,0.5,0.55,0.33,0.83,0.55,0.33,0.33,0.55,0.29,0.61,0.55,0.42,0.48,0.4,0.29,0.5,0.29,0.55,0.61,0.29,0.29,0.6,0.33,0.29,0.55,0.58,0.55,0.83,0.5,0.42,0.55,0.6,0.42,0.48,0.61,0.55,0.33,0.55,0.55,0.55,0.55,0.33,0.5,0.29,0.58" style="fill:rgb(0,0,0);font-family:URWPalladioL-Roma;font-size:9.96px;stroke:none;">20 mg/mL. Assays were carried out in 96-well plates and a two-fold serial dilution was used to obtain</text>
   <text y="399.399" x="76.535,82.519,87.21,91.558,95.25,99.941,104.837,108.99,111.84,117.539,123.1166,125.482,129.83,135.177,140.877,145.225,149.916,155.615,158.808,162.676,167.573,170.766,173.615,178.962,184.662,188.8452,191.322,194.573,198.265,203.612,214.767,219.663,224.56,229.456,234.43599999999998,236.85,240.043,245.52100000000002,247.887,252.784,255.232,260.129,265.025,270.005,272.429,281.077,286.522,292.456,301.104,307.087,309.577,312.033,318.036,323.736,328.5168,330.934,333.784,339.483,343.832,349.737,355.153,360.049,363.242,366.092,371.439,377.2158,379.636,387.803,392.7,396.8832,399.359,405.245,409.936,413.804,417.065,422.413,426.281,434.928,439.619,445.69460000000004,448.1,452.997,456.28380000000004,458.687,463.583" svgx:width="0.61,0.48,0.44,0.4,0.48,0.5,0.42,0.29,0.58,0.56,0.55,0.44,0.55,0.58,0.44,0.48,0.58,0.33,0.4,0.5,0.33,0.29,0.55,0.58,0.42,0.55,0.33,0.4,0.55,0.88,0.5,0.5,0.5,0.5,0.55,0.33,0.55,0.55,0.5,0.25,0.5,0.5,0.5,0.55,0.88,0.56,0.61,0.88,0.61,0.25,0.55,0.61,0.58,0.48,0.55,0.29,0.58,0.44,0.6,0.55,0.5,0.33,0.29,0.55,0.58,0.55,0.83,0.5,0.42,0.55,0.6,0.48,0.4,0.33,0.55,0.4,0.88,0.48,0.61,0.55,0.5,0.33,0.55,0.5,0.5" style="fill:rgb(0,0,0);font-family:URWPalladioL-Roma;font-size:9.96px;stroke:none;">decreasing concentrations from1000 to 0.024 mg/mL. The incubation was performed at 37</text>
   <text y="395.782" x="471.08" svgx:width="0.5" style="fill:rgb(0,0,0);font-family:CMSY10;font-size:7.89px;stroke:none;">◦</text>
   <text y="399.399" x="475.618,482.6896,485.059,488.32,493.667,497.65099999999995,500.042,504.939,509.91900000000004,512.333,518.032" svgx:width="0.71,0.55,0.33,0.55,0.4,0.55,0.5,0.5,0.55,0.58,0.25" style="fill:rgb(0,0,0);font-family:URWPalladioL-Roma;font-size:9.96px;stroke:none;">C for 24 h.</text>
   <text y="412.908" x="76.535,84.022,88.723,94.434,97.633,102.54,111.205,114.061,118.418,121.273,127.04979999999999,129.477,137.661,142.568,146.7512,149.211,155.129,159.289,163.99,170.06560000000002,172.478,177.458,179.868,185.765,191.123,195.284,198.14,201.339,204.194,209.739,214.5198,216.932,221.289,226.647,232.358,235.557,239.257,244.615,247.5034,249.953,258.137,260.993,264.192,269.9688,272.396,277.302,283.0788,285.496,294.78,298.087,305.1586,307.537,313.081,317.988,320.844,326.761,331.5418,333.954,339.312,342.59880000000004,345.062,349.969,352.422,357.329,362.309,364.728,373.393,378.849,384.796,393.461,399.457,401.947,404.393,409.093,414.157,418.514,423.214,429.112,432.39880000000005,434.804,438.072,443.43" svgx:width="0.76,0.48,0.58,0.33,0.5,0.88,0.29,0.44,0.29,0.58,0.55,0.83,0.5,0.42,0.55,0.6,0.42,0.48,0.61,0.55,0.5,0.55,0.6,0.55,0.42,0.29,0.33,0.29,0.56,0.48,0.55,0.44,0.55,0.58,0.33,0.4,0.55,0.29,0.55,0.83,0.29,0.33,0.58,0.55,0.5,0.58,0.55,0.95,0.34,0.71,0.55,0.56,0.5,0.29,0.6,0.48,0.55,0.55,0.33,0.55,0.5,0.25,0.5,0.5,0.55,0.88,0.56,0.61,0.88,0.61,0.25,0.55,0.48,0.52,0.44,0.48,0.6,0.33,0.55,0.33,0.55,0.4" style="fill:rgb(0,0,0);font-family:URWPalladioL-Roma;font-size:9.96px;stroke:none;">Gentamicin was used a positive control with an MIC value of 0.40 mg/mL, except for</text>
   <text y="412.908" x="449.794,455.79,458.28000000000003,460.736,463.464,467.821,471.638,475.632,479.989,482.717,485.445" svgx:width="0.61,0.25,0.55,0.28,0.44,0.39,0.41,0.44,0.28,0.28,0.39" style="fill:rgb(0,0,0);font-family:URWPalladioL-Ital;font-size:9.96px;stroke:none;">E. faecalis</text>
   <text y="412.908" x="491.747,499.931,505.642,510.343,514.043" svgx:width="0.83,0.58,0.48,0.4,0.48" style="fill:rgb(0,0,0);font-family:URWPalladioL-Roma;font-size:9.96px;stroke:none;">where</text>
   <text y="426.417" x="76.535,81.516,90.313,96.301,99.2,103.623,106.522,109.422,112.321,115.22,120.9968,123.509,126.826,136.251,139.608,146.6796,149.162,154.144,156.634,161.616,166.596,169.088,177.884,183.424,189.461,198.258,204.345,207.6318,210.153,218.462,223.443,227.6262,230.158,236.166,240.39,245.162,251.249" svgx:width="0.5,0.88,0.6,0.29,0.44,0.29,0.29,0.29,0.29,0.58,0.55,0.33,0.95,0.34,0.71,0.55,0.5,0.25,0.5,0.5,0.55,0.88,0.56,0.61,0.88,0.61,0.33,0.55,0.83,0.5,0.42,0.55,0.6,0.42,0.48,0.61,0.25" style="fill:rgb(0,0,0);font-family:URWPalladioL-Roma;font-size:9.96px;stroke:none;">ampicillin (MIC 1.56 mg/mL) was used.</text>
   <text y="449.63" x="76.535,81.516,84.007,88.988,91.478,94.567,101.212,106.194,110.617,113.387,116.156,121.695,125.571,129.446,132.764,136.639,140.515,144.938,148.814,152.6984,155.18,158.497,164.037,169.018,171.787,176.4,179.17,182.487,185.257,189.68,195.2576,197.71,202.691,206.567,210.442" svgx:width="0.5,0.25,0.5,0.25,0.55,0.67,0.5,0.44,0.28,0.28,0.56,0.39,0.39,0.33,0.39,0.39,0.44,0.39,0.39,0.55,0.33,0.56,0.5,0.28,0.46,0.28,0.33,0.28,0.44,0.56,0.55,0.61,0.39,0.39,0.33" style="fill:rgb(0,0,0);font-family:URWPalladioL-Ital;font-size:9.96px;stroke:none;">3.9. Cholinesterase Inhibition Test</text>
   <text y="469.117" x="97.795,103.884,109.665,114.4458,116.906,121.316,127.096,132.52,135.41,138.301,144.081,148.839,153.051,156.289,161.047,164.97,169.936,174.148,178.9288,181.389,184.696,191.739,197.519,203.588,206.8748,209.379,214.345,218.756,221.994,224.884,230.496,233.386,236.625,239.515,244.273,248.4562,250.967,259.251,264.009,267.754,272.5348,274.995,279.961,284.172,288.384,293.35,298.873,303.631,309.7066,312.183,315.49,320.914,323.804,326.694,332.118,340.401,343.292,349.073,354.6506,357.079,362.059,364.538,368.948,374.371,377.262,382.685,386.608,389.499,398.269,403.027,406.265,410.189,413.079,417.4614,419.972,425.942,429.687,435.11,438.348,443.771,448.181,453.605,456.4934,458.978,463.945,470.013,474.98,480.949,484.187,488.945,495.0206,497.497,500.805,504.55,509.973" svgx:width="0.61,0.58,0.48,0.55,0.44,0.58,0.55,0.29,0.29,0.58,0.48,0.42,0.33,0.48,0.4,0.5,0.42,0.48,0.55,0.33,0.71,0.58,0.61,0.33,0.55,0.5,0.44,0.33,0.29,0.56,0.29,0.33,0.29,0.48,0.42,0.55,0.83,0.48,0.4,0.48,0.55,0.5,0.42,0.42,0.5,0.56,0.48,0.61,0.55,0.33,0.55,0.29,0.29,0.55,0.83,0.29,0.58,0.56,0.55,0.5,0.55,0.44,0.55,0.29,0.55,0.4,0.29,0.88,0.48,0.33,0.4,0.29,0.44,0.55,0.6,0.4,0.55,0.33,0.55,0.44,0.55,0.29,0.55,0.5,0.61,0.5,0.6,0.33,0.48,0.61,0.55,0.33,0.4,0.55,0.88" style="fill:rgb(0,0,0);font-family:URWPalladioL-Roma;font-size:9.96px;stroke:none;">The cholinesterase (ChE) activities were assayed following a colorimetric protocol adapted from</text>
   <text y="482.627" x="76.535,82.72,85.665,88.611,97.548,102.609,108.38579999999999,110.97,115.819,119.1058,121.598,126.659,129.605,132.095,134.605" svgx:width="0.61,0.29,0.29,0.88,0.5,0.58,0.55,0.48,0.33,0.55,0.5,0.29,0.25,0.55,0.33" style="fill:rgb(0,0,0);font-family:URWPalladioL-Roma;font-size:9.96px;stroke:none;">Ellman et al. [</text>
   <text y="482.627" x="137.977,142.958" svgx:width="0.5,0.5" style="fill:rgb(8,117,183);font-family:URWPalladioL-Roma;font-size:9.96px;stroke:none;">43</text>
   <text y="482.627" x="147.94" svgx:width="0.25" style="fill:rgb(0,0,0);font-family:URWPalladioL-Roma;font-size:9.96px;stroke:none;">,</text>
   <text y="482.627" x="150.47,155.451" svgx:width="0.5,0.5" style="fill:rgb(8,117,183);font-family:URWPalladioL-Roma;font-size:9.96px;stroke:none;">44</text>
   <text y="482.627" x="160.433,163.804,166.294,169.421,176.598,182.489,188.673,192.8562,195.435,200.283,203.472,209.596,214.09,217.035,221.884,227.775,231.074,234.02,239.5976,242.118,246.612,251.673,254.972,260.033,262.979,268.607,273.668,278.4488,280.996,284.296,290.187,294.9678,297.505,303.396,309.024,315.208,319.025,324.551,327.497,333.124,337.416,340.362,344.5452,347.133,352.66,355.94680000000005,358.5,363.561,368.055,372.904,376.204,381.832,384.777,388.077,393.968,396.913,402.44,406.934,412.825,418.352,421.297,424.243,430.134,434.9148,437.452,440.822,447.958,454.163,461.34,467.231,470.601,473.091,475.612,478.912,484.803,489.5838,492.131,496.423,502.526,505.472,508.842,514.946" svgx:width="0.33,0.25,0.55,0.71,0.58,0.61,0.42,0.55,0.48,0.33,0.61,0.44,0.29,0.48,0.58,0.33,0.29,0.56,0.55,0.44,0.5,0.33,0.5,0.29,0.56,0.5,0.48,0.55,0.33,0.58,0.48,0.55,0.58,0.56,0.61,0.4,0.55,0.29,0.56,0.42,0.29,0.42,0.55,0.55,0.33,0.55,0.5,0.44,0.48,0.33,0.56,0.29,0.33,0.58,0.29,0.55,0.44,0.58,0.55,0.29,0.29,0.58,0.48,0.55,0.33,0.78,0.61,0.71,0.58,0.33,0.25,0.55,0.33,0.58,0.48,0.55,0.42,0.6,0.29,0.33,0.6,0.4" style="fill:rgb(0,0,0);font-family:URWPalladioL-Roma;font-size:9.96px;stroke:none;">]. ChEs efﬁciently catalyze the hydrolysis of acetylthiocholine (ATCh), the sulfur</text>
   <text y="496.136" x="76.535,81.616,87.53,92.611,95.568,101.117,106.69460000000001,109.49,115.038,118.3248,121.146,124.458,130.372,135.1528,137.974,143.888,148.969,152.281,158.409,162.423,167.504,170.39239999999998,173.184,177.493,183.621,189.24,193.549,196.861,200.875,205.956,209.269,214.0498,216.86,222.408,225.6948,228.516,231.828,237.743,242.61,246.919,251.6998,254.51,259.377,265.291,270.372,276.022,284.995,289.863,294.171,296.661,300.512,308.418,314.526,320.074,325.8508,328.711,334.626,340.276,346.485,350.316,355.864,358.821,364.471,368.78,371.737,376.045,378.535,381.37,384.683,390.597,393.554,397.7372,400.586,404.895,411.022,416.642,420.951,424.263,428.277,433.358,436.671,441.4518,444.272,449.353,455.267,460.348,463.305,468.854,474.4316,477.227,483.334,487.165,492.714,498.922,505.05,509.562,514.43" svgx:width="0.5,0.58,0.5,0.29,0.55,0.56,0.55,0.55,0.33,0.55,0.33,0.58,0.48,0.55,0.58,0.5,0.33,0.6,0.4,0.5,0.29,0.55,0.42,0.6,0.55,0.42,0.33,0.4,0.5,0.33,0.48,0.55,0.55,0.33,0.55,0.33,0.58,0.48,0.42,0.48,0.55,0.48,0.58,0.5,0.56,0.88,0.48,0.42,0.25,0.55,0.78,0.6,0.55,0.58,0.55,0.58,0.56,0.61,0.4,0.55,0.29,0.56,0.42,0.29,0.42,0.25,0.55,0.33,0.58,0.29,0.42,0.55,0.42,0.6,0.55,0.42,0.33,0.4,0.5,0.33,0.48,0.55,0.5,0.58,0.5,0.29,0.55,0.56,0.55,0.6,0.4,0.55,0.61,0.6,0.44,0.48,0.42" style="fill:rgb(0,0,0);font-family:URWPalladioL-Roma;font-size:9.96px;stroke:none;">analog of the natural substrate of these enzymes. Upon hydrolysis, this substrate analog produces</text>
   <text y="509.646" x="76.535,81.486,85.883,90.627,93.855,98.806,102.035,106.8158,109.264,112.146,117.553,123.32979999999999,125.802,130.753,136.516,142.5916,145.043,148.271,154.035,156.916,162.323,166.72,172.483,177.89,180.772,183.654,189.417,194.161,196.651,199.726,205.797,211.56,214.442,219.849,224.246,230.009,235.416,238.298,241.179,246.943,251.686,254.17600000000002,256.648,259.529,265.3058,267.768,270.997,276.76,281.5408,283.989,289.941,293.674,298.418,302.616,307.36,313.123,317.52,322.3008,324.749,330.156,333.44280000000003,335.939,339.168,344.931,349.7118,352.15,357.914,360.796,366.302,372.065,374.947,380.5246,382.938,386.672,391.415,396.367,400.763,403.992,406.873,412.469,417.2498,419.698,425.748,428.63,431.858,437.622,440.503,445.91,451.387,454.268,458.467,464.231,467.112,470.341,474.064,479.471,484.947,489.691,495.454,500.406,505.813,510.764,513.992" svgx:width="0.5,0.44,0.48,0.33,0.5,0.33,0.48,0.55,0.29,0.55,0.58,0.55,0.5,0.58,0.61,0.55,0.33,0.58,0.29,0.55,0.44,0.58,0.55,0.29,0.29,0.58,0.48,0.25,0.55,0.61,0.58,0.29,0.55,0.44,0.58,0.55,0.29,0.29,0.58,0.48,0.25,0.55,0.29,0.58,0.55,0.33,0.58,0.48,0.55,0.6,0.4,0.48,0.42,0.48,0.58,0.44,0.48,0.55,0.55,0.33,0.55,0.33,0.58,0.48,0.55,0.58,0.29,0.56,0.58,0.29,0.56,0.55,0.4,0.48,0.5,0.44,0.33,0.29,0.56,0.48,0.55,0.61,0.29,0.33,0.58,0.29,0.55,0.55,0.29,0.42,0.58,0.29,0.33,0.4,0.55,0.55,0.48,0.58,0.5,0.55,0.5,0.33,0.48" style="fill:rgb(0,0,0);font-family:URWPalladioL-Roma;font-size:9.96px;stroke:none;">acetate ion and thiocholine. Thiocholine, in the presence of the highly reactive dithiobisnitrobenzoate</text>
   <text y="523.155" x="76.207,79.548,87.313,93.463,101.799,107.929,111.2158,113.758,116.677,122.155,127.994,130.484,132.99,138.568,143.374,149.212,154.018,157.981,162.997,166.267,171.073,175.2562,177.815,182.795,185.329,190.907,195.712,198.632,201.551,207.029,215.29579999999999,217.884,222.338,227.816,230.735,236.213,239.433,241.923,244.439,252.806,258.645,261.564,266.019,271.7958,274.346,278.8,283.816,289.59279999999995,292.143,297.691,302.4718,304.984,310.602,316.652,321.668,327.507,330.777,333.697,336.967,341.984,345.254,348.174,353.842,358.647,361.567,367.1446,369.633,378.491,383.969,389.808,392.727,395.998,401.475,405.257,410.063,416.1386,418.681,424.229,429.8066,432.305,436.558,442.588,447.393,451.848,455.118,458.9,464.378,470.407,476.246,481.724,484.994,490.472,499.331,504.136,507.407,511.369,514.289" svgx:width="0.33,0.77,0.61,0.83,0.61,0.33,0.55,0.29,0.55,0.58,0.25,0.55,0.56,0.48,0.58,0.48,0.4,0.5,0.33,0.48,0.42,0.55,0.5,0.55,0.56,0.48,0.29,0.29,0.55,0.83,0.55,0.44,0.55,0.29,0.55,0.4,0.25,0.55,0.83,0.58,0.29,0.44,0.58,0.55,0.44,0.5,0.58,0.55,0.55,0.48,0.55,0.56,0.6,0.5,0.58,0.33,0.29,0.33,0.5,0.33,0.29,0.56,0.48,0.29,0.56,0.55,0.88,0.55,0.58,0.29,0.33,0.55,0.4,0.48,0.61,0.55,0.55,0.56,0.55,0.42,0.6,0.48,0.44,0.33,0.4,0.55,0.6,0.58,0.55,0.33,0.55,0.88,0.48,0.33,0.4,0.29,0.44" style="fill:rgb(0,0,0);font-family:URWPalladioL-Roma;font-size:9.96px;stroke:none;">(DTNB) ion, generates a yellow color, which can be quantitatively monitored by spectrophotometric</text>
   <text y="536.664" x="76.535,81.616,87.235,91.544,97.092,101.106,107.214,110.526,113.484,119.032,124.80879999999999,127.487,132.567,135.8538,138.411,143.491,148.572,153.552,156.194,162.108,171.081,173.571,176.853,184.759,187.716,190.6044,193.213,197.044,201.912,206.993,212.643,217.51,223.425,226.737,230.9202,233.586,242.061,246.929,250.76,255.5408,258.168,263.716,269.336,272.649,277.73,280.687,286.601,291.468,297.5436,300.218,303.602,307.433,312.981,321.7458,324.494,327.807,333.721,338.5018,341.119,346.454,349.411,355.061,364.034,369.115,372.499,380.405,383.362,389.571,393.585,396.542,401.054,406.83079999999995,409.508,412.821,416.835,421.916,428.125,431.082,436.996,442.5736,445.187,451.101,456.649,462.777,467.085,471.953,474.443,477.715,485.4838,488.161,491.474,497.124,503.231,506.188,510.7,515.781" svgx:width="0.5,0.55,0.42,0.55,0.4,0.6,0.33,0.29,0.55,0.58,0.55,0.5,0.33,0.55,0.5,0.5,0.5,0.55,0.58,0.88,0.25,0.55,0.78,0.29,0.29,0.55,0.4,0.48,0.5,0.56,0.48,0.58,0.33,0.42,0.55,0.83,0.48,0.4,0.48,0.55,0.55,0.55,0.33,0.5,0.29,0.58,0.48,0.61,0.55,0.33,0.4,0.55,0.88,0.55,0.33,0.58,0.48,0.55,0.52,0.29,0.56,0.88,0.5,0.33,0.78,0.29,0.61,0.4,0.29,0.44,0.58,0.55,0.33,0.4,0.5,0.61,0.29,0.58,0.56,0.55,0.58,0.55,0.6,0.42,0.48,0.25,0.55,0.78,0.55,0.33,0.56,0.6,0.29,0.44,0.5,0.29" style="fill:rgb(0,0,0);font-family:URWPalladioL-Roma;font-size:9.96px;stroke:none;">absorption at 412 nm. All reagents were obtained from the Sigma-Aldrich trading house. A typical</text>
   <text y="550.174" x="76.535,81.417,86.298" svgx:width="0.5,0.5,0.5" style="fill:rgb(0,0,0);font-family:URWPalladioL-Roma;font-size:9.96px;stroke:none;">200</text>
   <text y="550.174" x="93.424" svgx:width="0.62" style="fill:rgb(0,0,0);font-family:EURM10;font-size:9.96px;stroke:none;">µ</text>
   <text y="550.174" x="99.578,105.6536,107.789,110.63,116.312,121.995,124.836,130.235,133.076,136.259,139.1,144.431,150.20780000000002,152.349,157.231,161.37,165.51,170.392,175.96959999999999,178.066,183.582,188.913,191.754,197.641,206.262,211.0428,213.184,217.519,222.85,228.532,231.715,236.597,239.438,245.12,249.797,255.8726,258.008,263.876,269.558,274.889,279.028,284.896,290.578,295.46,298.643,303.42379999999997,305.565,310.964,316.852,319.917,323.178,327.855,331.526,336.203,342.2786,344.413,348.553,353.435,356.276,359.117,364.799,369.5798,371.722,375.861,381.192,384.033,389.92,393.103,395.944,401.275,407.05179999999996,409.203,412.454,418.322,428.681,433.563,436.003,440.885,444.136,446.62600000000003,448.871,456.428,462.413,470.527,476.6026,478.738,481.989,486.87,489.311,494.291,496.439,505.06,514.296,517.547" svgx:width="0.61,0.55,0.29,0.58,0.58,0.29,0.55,0.29,0.33,0.29,0.55,0.58,0.55,0.5,0.42,0.42,0.5,0.56,0.55,0.56,0.55,0.29,0.6,0.88,0.48,0.55,0.44,0.55,0.58,0.33,0.5,0.29,0.58,0.48,0.61,0.55,0.6,0.58,0.55,0.42,0.6,0.58,0.5,0.33,0.48,0.55,0.55,0.6,0.33,0.33,0.48,0.4,0.48,0.61,0.55,0.42,0.5,0.29,0.29,0.58,0.48,0.55,0.42,0.55,0.29,0.6,0.33,0.29,0.55,0.58,0.55,0.33,0.6,0.83,0.5,0.25,0.5,0.33,0.25,0.55,0.77,0.61,0.83,0.61,0.55,0.33,0.5,0.25,0.5,0.55,0.88,0.95,0.33,0.25" style="fill:rgb(0,0,0);font-family:URWPalladioL-Roma;font-size:9.96px;stroke:none;">L inhibition assay volume contained phosphate buffered saline solution (pH7.4), DTNB (1.5 mM),</text>
   <text y="563.683" x="76.535,79.809,84.619,88.877,92.1638,94.631,98.889,103.91,112.778,118.813,121.735,126.5158,129.026,131.948,137.72480000000002,140.284,148.056,157.556,162.828,170.6964,173.202,176.546,181.567" svgx:width="0.33,0.48,0.42,0.33,0.55,0.42,0.5,0.88,0.6,0.29,0.48,0.55,0.29,0.58,0.55,0.77,0.95,0.52,0.79,0.55,0.33,0.5,0.84" style="fill:rgb(0,0,0);font-family:URWPalladioL-Roma;font-size:9.96px;stroke:none;">test sample in DMSO (1%</text>
   <text y="563.683" x="192.484,197.505,200.478" svgx:width="0.5,0.3,0.5" style="fill:rgb(0,0,0);font-family:URWPalladioL-Ital;font-size:9.96px;stroke:none;">v/v</text>
   <text y="563.683" x="207.982,214.058,219.902,224.923,227.846,231.19,233.68,236.783,242.919,248.402,251.676,257.45279999999997,260.001,265.022,269.481,274.291,277.565,283.149,286.071,290.53,296.374,301.857,304.78,307.702,313.547,318.357,322.615,325.889,330.699,334.666,339.687,343.945,348.7258,351.245,354.59,358.375,363.859" svgx:width="0.61,0.58,0.5,0.29,0.33,0.25,0.55,0.61,0.55,0.33,0.58,0.55,0.5,0.44,0.48,0.33,0.56,0.29,0.44,0.58,0.55,0.29,0.29,0.58,0.48,0.42,0.33,0.48,0.4,0.5,0.42,0.48,0.55,0.33,0.4,0.55,0.88" style="fill:rgb(0,0,0);font-family:URWPalladioL-Roma;font-size:9.96px;stroke:none;">ﬁnal). Both acetylcholinesterase from</text>
   <text y="563.683" x="375.206,381.342,384.134,388.04,392.127,395.471,399.197,403.656,408.677,413.698,418.157,422.063,427.647,431.5314,434.034,437.94,440.732,444.638,448.726,452.07,455.976,458.768,462.855,468.439" svgx:width="0.61,0.28,0.39,0.41,0.33,0.39,0.44,0.5,0.5,0.44,0.39,0.56,0.39,0.55,0.39,0.28,0.39,0.41,0.33,0.39,0.28,0.41,0.56,0.39" style="fill:rgb(0,0,0);font-family:URWPalladioL-Ital;font-size:9.96px;stroke:none;">Electrophorus electricus</text>
   <text y="563.683" x="474.83,478.174,483.436,489.02,495.055,499.8358,502.346,508.863,512.207,517.48" svgx:width="0.33,0.61,0.56,0.6,0.48,0.55,0.72,0.33,0.52,0.25" style="fill:rgb(0,0,0);font-family:URWPalladioL-Roma;font-size:9.96px;stroke:none;">(Type V-S,</text>
   <text y="577.193" x="76.535,79.492,85.142,90.69,96.798,102.712,105.669,108.626,111.583,116.664,121.532,127.60759999999999,130.596,136.703,142.252,150.727,156.936,161.803,165.085,167.57500000000002,170.573,175.654,180.735,185.715,188.671,196.577,202.735,211.708,217.2856,220.213,224.522,230.07,233.028,235.985,242.194,244.684,247.681,252.661,255.617,260.698,265.779,270.759,273.716,281.621,287.78,296.753,302.3306,305.258,311.365,315.206,320.755,324.068,328.935,331.892,337.806,341.0928,344.046,349.127,355.041,361.1166,364.105,369.725,375.852,379.165,384.815,388.829,394.479,397.436,401.948,407.862,413.41,416.368,419.325,425.239,430.106,434.415,437.728,442.595,446.609,451.69,455.999,460.7798,463.722,467.106,470.937,476.485,485.2498,488.313,493.181,498.872,504.999,507.956,513.871" svgx:width="0.29,0.56,0.55,0.6,0.58,0.29,0.29,0.29,0.5,0.48,0.61,0.55,0.6,0.55,0.83,0.61,0.48,0.4,0.25,0.55,0.5,0.5,0.5,0.55,0.78,0.61,0.88,0.56,0.55,0.42,0.55,0.29,0.29,0.61,0.25,0.55,0.5,0.55,0.5,0.5,0.5,0.55,0.78,0.61,0.88,0.56,0.55,0.6,0.4,0.55,0.33,0.48,0.29,0.58,0.33,0.55,0.5,0.58,0.61,0.55,0.55,0.6,0.33,0.56,0.4,0.56,0.29,0.44,0.58,0.55,0.29,0.29,0.58,0.48,0.42,0.33,0.48,0.4,0.5,0.42,0.48,0.55,0.33,0.4,0.55,0.88,0.55,0.48,0.56,0.6,0.29,0.58,0.48" style="fill:rgb(0,0,0);font-family:URWPalladioL-Roma;font-size:9.96px;stroke:none;">lyophilized powder, 744 U/mg solid, 1 272 U/mg protein) and butyrylcholinesterase from equine</text>
   <text y="590.702" x="76.535,80.844,85.711,89.644,95.771,104.5358,108.535,111.919,114.876,120.526,126.074,132.181,138.095,141.053,144.01,146.967,152.048,156.915,162.9906,166.914,173.022,178.57,187.045,193.254,198.122,201.404" svgx:width="0.42,0.48,0.4,0.6,0.88,0.55,0.33,0.29,0.56,0.55,0.6,0.58,0.29,0.29,0.29,0.5,0.48,0.61,0.55,0.6,0.55,0.83,0.61,0.48,0.4,0.25" style="fill:rgb(0,0,0);font-family:URWPalladioL-Roma;font-size:9.96px;stroke:none;">serum (lyophilized powder,</text>
   <text y="590.702" x="208.186" svgx:width="0.78" style="fill:rgb(0,0,0);font-family:CMSY10;font-size:10.38px;stroke:none;">≥</text>
   <text y="590.702" x="216.38,221.461,226.542,231.522,235.413,241.541,247.455,250.412,253.725,258.033,264.192,273.164,278.7416,282.605,288.712,292.553,298.102,301.414,306.282,309.239,315.153,318.43980000000005,322.327,330.802,335.67,339.501,344.2818,348.159,354.368,357.325,361.633,365.942,371.49,374.448,380.189,385.057,391.1326,395.066,398.023,403.7998,407.728,413.865,420.074,425.2532,429.2,435.307,443.5738,447.552,452.633,455.173,460.153,464.045,469.126,475.04,481.11560000000003,485.039,491.167,495.475,500.343,506.4186,510.342,515.423" svgx:width="0.5,0.5,0.5,0.55,0.6,0.58,0.29,0.33,0.42,0.61,0.88,0.56,0.55,0.6,0.4,0.55,0.33,0.48,0.29,0.58,0.33,0.55,0.83,0.48,0.4,0.48,0.55,0.61,0.29,0.42,0.42,0.55,0.29,0.56,0.48,0.61,0.55,0.29,0.58,0.55,0.6,0.61,0.52,0.55,0.6,0.83,0.55,0.5,0.25,0.5,0.55,0.5,0.58,0.61,0.55,0.6,0.42,0.48,0.61,0.55,0.5,0.33" style="fill:rgb(0,0,0);font-family:URWPalladioL-Roma;font-size:9.96px;stroke:none;">900 units/mg protein) were dissolved in PBS pH 7.4 and used at</text>
   <text y="604.211" x="76.535,81.417,86.397,88.368,96.989,104.585,110.502,119.123,125.1986,127.148,130.399,135.73,139.714,141.657,144.83,150.512,155.2928,157.258,162.14,166.28,170.419,175.301,179.626,182.116,184.127,191.723,194.974,198.157,202.834,206.818,208.76,213.642,218.62199999999999,220.583,229.204,232.046,237.8228,239.798,245.128,248.41479999999999,250.44,256.308,259.988,264.665,267.916,270.757,276.44,280.774,286.662,292.061,296.943,300.125,302.967,308.297,313.98,316.47,318.568,321.751,327.434,332.2148,334.18,338.32,344.207,349.596,353.736,356.919,360.775,365.657,368.84,373.6208,375.586,380.468,384.803,389.48,392.663,398.091,400.932,404.115,409.797,412.638,417.969,422.304,427.986,433.317,436.158,438.999,444.682,449.4628,451.418,454.259,459.59,465.556,468.397,474.362,479.1428,481.109,484.36,489.241,491.682,496.66200000000003,498.624,507.245,516.481" svgx:width="0.5,0.5,0.55,0.88,0.78,0.61,0.88,0.61,0.55,0.33,0.55,0.4,0.55,0.33,0.58,0.48,0.55,0.5,0.42,0.42,0.5,0.56,0.25,0.55,0.78,0.33,0.33,0.48,0.4,0.55,0.5,0.5,0.55,0.88,0.29,0.58,0.55,0.55,0.33,0.55,0.6,0.4,0.48,0.33,0.29,0.58,0.44,0.6,0.55,0.5,0.33,0.29,0.55,0.58,0.25,0.55,0.33,0.58,0.48,0.55,0.42,0.6,0.55,0.42,0.33,0.4,0.5,0.33,0.48,0.55,0.5,0.44,0.48,0.33,0.56,0.29,0.33,0.58,0.29,0.55,0.44,0.58,0.55,0.29,0.29,0.58,0.48,0.55,0.29,0.55,0.61,0.29,0.61,0.48,0.55,0.33,0.5,0.25,0.5,0.55,0.88,0.95,0.33" style="fill:rgb(0,0,0);font-family:URWPalladioL-Roma;font-size:9.96px;stroke:none;">25 mU/mL for the assay. After 10 min of pre-incubation, the substrate acetylthiocholine iodide (1.5 mM)</text>
   <text y="617.721" x="76.117,84.359,89.301,93.4842,95.982,100.923,106.962,113.0,117.734,123.80959999999999,126.273,129.495,134.973,137.381,141.571,144.793,149.735,153.638,156.9248,159.351,162.573,168.324,173.1048,175.549,179.275,184.009,188.95,193.338,196.56,199.436,204.832,210.584,213.074,215.545,223.194,229.154,233.057,235.933,241.685,247.2626,249.681,254.661,257.112,262.8888,265.355,270.751,274.0378,276.542,279.418,285.17,289.558,295.517,300.983,305.924,309.146,312.022,317.418,323.1948,325.66,330.602,333.8888,336.314,341.255" svgx:width="0.83,0.5,0.42,0.55,0.5,0.61,0.61,0.48,0.61,0.55,0.33,0.55,0.55,0.42,0.33,0.5,0.4,0.33,0.55,0.33,0.58,0.48,0.55,0.4,0.48,0.5,0.44,0.33,0.29,0.55,0.58,0.25,0.55,0.77,0.6,0.4,0.29,0.58,0.56,0.55,0.5,0.55,0.58,0.55,0.55,0.33,0.55,0.29,0.58,0.44,0.6,0.55,0.5,0.33,0.29,0.55,0.58,0.55,0.5,0.33,0.55,0.5,0.5" style="fill:rgb(0,0,0);font-family:URWPalladioL-Roma;font-size:9.96px;stroke:none;">was added to start the reaction. During 1 h of incubation at 30</text>
   <text y="614.104" x="348.786" svgx:width="0.5" style="fill:rgb(0,0,0);font-family:CMSY10;font-size:7.89px;stroke:none;">◦</text>
   <text y="617.721" x="353.323,360.33,362.82,365.291,370.233,375.174,378.465,386.707,391.441,394.317,397.2054,399.694,408.42,411.296,415.684,419.4,424.796,428.018,430.894,434.116,438.85,442.834,445.254,453.98,459.94,462.816,466.037,468.913,474.853,477.729,482.67,485.892,490.626,494.8092,497.307,505.549,510.283,514.009" svgx:width="0.71,0.25,0.55,0.5,0.5,0.33,0.83,0.48,0.29,0.29,0.55,0.88,0.29,0.44,0.4,0.55,0.33,0.29,0.33,0.48,0.4,0.55,0.88,0.6,0.29,0.33,0.29,0.6,0.29,0.5,0.33,0.48,0.42,0.55,0.83,0.48,0.4,0.48" style="fill:rgb(0,0,0);font-family:URWPalladioL-Roma;font-size:9.96px;stroke:none;">C, 96-well microtiter multiplates were</text>
   <text y="631.23" x="76.535,80.366,85.234,90.314,96.38959999999999,99.115,104.663,110.43979999999999,113.168,118.14800000000001,120.841,126.978,132.893,137.76,141.774,146.855,151.164,154.476,159.557,163.571,169.221,174.4002,177.148,180.531,186.74,196.353,203.92260000000002,206.688,212.897,217.978,223.597,226.91,231.778,236.289,242.204,245.4908,248.179,254.388,259.255,262.568,267.436,271.947,275.26,278.217,283.766,289.5428,292.271,296.58,302.23,306.538,309.851,314.719,323.692,326.182,329.616,337.522,340.479,343.3674,346.027,355.0,359.868,364.949,369.257,375.385,379.216,384.083,393.056,397.924,403.838,407.151,411.3342,414.051,422.526,427.393,431.224,436.0048,438.683,447.656,452.737,458.946,463.7268,466.405,469.362,475.1388,477.867,481.18,485.194,488.151,494.258,497.215,500.172,504.684,509.765,513.078,517.946" svgx:width="0.4,0.48,0.5,0.61,0.55,0.55,0.58,0.55,0.5,0.55,0.6,0.58,0.48,0.4,0.5,0.42,0.33,0.5,0.4,0.56,0.52,0.55,0.33,0.61,0.95,0.76,0.55,0.61,0.5,0.55,0.33,0.48,0.44,0.58,0.33,0.55,0.61,0.48,0.33,0.48,0.44,0.33,0.29,0.55,0.58,0.55,0.42,0.56,0.42,0.33,0.48,0.88,0.25,0.55,0.78,0.29,0.29,0.55,0.88,0.48,0.5,0.42,0.6,0.4,0.48,0.88,0.48,0.58,0.33,0.42,0.55,0.83,0.48,0.4,0.48,0.55,0.88,0.5,0.61,0.48,0.55,0.29,0.58,0.55,0.33,0.4,0.29,0.6,0.29,0.29,0.44,0.5,0.33,0.48,0.25" style="fill:rgb(0,0,0);font-family:URWPalladioL-Roma;font-size:9.96px;stroke:none;">read on a PherastarFS (BMG Labtech) detection system. All measurements were made in triplicate.</text>
   <text y="644.74" x="76.037,86.199,92.113,96.981,102.75779999999999,106.218,112.325,117.873,122.182,126.491,129.448,135.067,138.024,142.892,145.382,148.969,152.271,158.185,162.9658,166.386,169.811" svgx:width="1.0,0.58,0.48,0.58,0.55,0.6,0.55,0.42,0.42,0.29,0.55,0.29,0.48,0.25,0.55,0.33,0.58,0.48,0.55,0.34,0.71" style="fill:rgb(0,0,0);font-family:URWPalladioL-Roma;font-size:9.96px;stroke:none;">When possible, the IC</text>
   <text y="646.56" x="177.01,180.796" svgx:width="0.5,0.5" style="fill:rgb(0,0,0);font-family:URWPalladioL-Roma;font-size:7.57px;stroke:none;">50</text>
   <text y="644.74" x="188.403,194.144,199.225,202.182,208.31,213.178,217.3612,220.809,229.284,234.152,237.983,242.7638,246.173,250.685,255.766,258.723,263.235,269.362,272.32,277.4,280.713,285.581,291.6566,295.113,301.24,305.549,308.506,314.42,319.99760000000003,323.393,326.706,332.62,337.4008,340.81,348.564,357.008,364.914,371.052,377.261,385.248,391.3236,394.8,400.908,405.989,410.5,416.15,421.231,426.881,431.66179999999997,435.072,440.62,446.3968,449.857,452.814,455.771,461.686,466.4668,469.876" svgx:width="0.56,0.5,0.29,0.6,0.48,0.42,0.55,0.83,0.48,0.4,0.48,0.55,0.44,0.5,0.29,0.44,0.6,0.29,0.5,0.33,0.48,0.61,0.55,0.6,0.42,0.29,0.58,0.56,0.55,0.33,0.58,0.48,0.55,0.76,0.83,0.78,0.6,0.61,0.79,0.61,0.55,0.6,0.5,0.44,0.56,0.5,0.56,0.48,0.55,0.55,0.58,0.55,0.29,0.29,0.58,0.48,0.55,0.33" style="fill:rgb(0,0,0);font-family:URWPalladioL-Roma;font-size:9.96px;stroke:none;">values were calculated using the GNUPLOT package on line (</text>
   <text y="644.74" x="473.26,481.735,490.21,497.77,500.311,503.268,507.78,512.861,517.942" svgx:width="0.83,0.83,0.83,0.25,0.29,0.44,0.5,0.5,0.25" style="fill:rgb(8,117,183);font-family:URWPalladioL-Roma;font-size:9.96px;stroke:none;">www.ic50.</text>
   <text y="658.249" x="76.535,79.848" svgx:width="0.33,0.56" style="fill:rgb(8,117,183);font-family:URWPalladioL-Roma;font-size:9.96px;stroke:none;">tk</text>
   <text y="658.249" x="85.498" svgx:width="0.25" style="fill:rgb(0,0,0);font-family:URWPalladioL-Roma;font-size:9.96px;stroke:none;">,</text>
   <text y="658.249" x="91.351,99.826,108.301,115.851,118.392,124.042,129.956,136.083,142.191,145.148,150.696,154.009,156.549,159.507,165.421,168.805" svgx:width="0.83,0.83,0.83,0.25,0.56,0.58,0.6,0.6,0.29,0.55,0.33,0.25,0.29,0.58,0.33,0.55" style="fill:rgb(8,117,183);font-family:URWPalladioL-Roma;font-size:9.96px;stroke:none;">www.gnuplot.info</text>
   <text y="658.249" x="174.353,177.737,180.227,183.428,191.293,196.841,202.755,207.623,213.73,218.598,223.679,226.636,229.52439999999999,232.733,241.208,246.289,250.4722,253.748,259.875,264.184,269.051,275.1266,278.4,283.481,287.6642,290.94,294.771,299.638,303.022,307.89,311.721,316.588,322.503,327.014,331.7948,335.032,342.237,348.151,354.2266,357.5,360.457,366.371,372.285,375.243,380.862,383.819,387.132,392.68,396.664,399.844,408.319,411.276,414.589,420.3658,423.643,428.724,434.50079999999997,437.789,441.213" svgx:width="0.33,0.25,0.55,0.77,0.55,0.58,0.48,0.6,0.48,0.5,0.29,0.29,0.55,0.83,0.5,0.42,0.55,0.6,0.42,0.48,0.61,0.55,0.5,0.42,0.55,0.4,0.48,0.33,0.48,0.4,0.48,0.58,0.44,0.48,0.55,0.71,0.58,0.61,0.55,0.29,0.58,0.58,0.29,0.55,0.29,0.33,0.55,0.4,0.55,0.83,0.29,0.33,0.58,0.55,0.5,0.58,0.55,0.34,0.71" style="fill:rgb(0,0,0);font-family:URWPalladioL-Roma;font-size:9.96px;stroke:none;">). Donepezil was used as reference ChE inhibitor with an IC</text>
   <text y="660.069" x="448.416,452.202" svgx:width="0.5,0.5" style="fill:rgb(0,0,0);font-family:URWPalladioL-Roma;font-size:7.57px;stroke:none;">50</text>
   <text y="658.249" x="459.631,465.7066,468.929,474.01,479.091,484.071,487.322,493.236,502.698,505.989,509.373,514.922" svgx:width="0.61,0.55,0.5,0.5,0.5,0.55,0.58,0.95,0.55,0.33,0.55,0.4" style="fill:rgb(0,0,0);font-family:URWPalladioL-Roma;font-size:9.96px;stroke:none;">= 100 nM for</text>
   <text y="671.758" x="76.147,84.053,91.258,97.172,103.24759999999999,107.222,112.303,118.217,124.2926,128.267,133.348,138.429,143.51,148.48999999999998,152.432,158.346,167.808,171.801,175.184,180.733,184.717,188.588,194.797,202.002,207.916,214.125,216.615,220.517,223.941,229.7178,233.696,237.009,242.923,245.88,250.0632,254.03,259.111,263.42,267.728,272.809,277.352,279.842,284.079,292.554,297.3348,301.263,307.471,310.429,316.5046,320.479,326.393,331.941,335.2278,339.095,343.963,349.206,353.718,356.675,362.803,369.012,373.7928,377.72,381.033,386.947,391.7278,395.656,401.763,407.312,411.62,415.929,418.886,424.506,427.463,430.42,433.377,436.69,442.2676,446.181,451.729,455.0158,458.954,462.338,467.419,470.376,474.685,479.552,482.936,489.044,494.592,498.901,501.858,505.17,508.127,513.869" svgx:width="0.78,0.71,0.58,0.61,0.55,0.5,0.58,0.61,0.55,0.5,0.5,0.5,0.5,0.55,0.58,0.95,0.55,0.33,0.55,0.4,0.55,0.61,0.71,0.58,0.61,0.25,0.55,0.34,0.58,0.55,0.33,0.58,0.29,0.42,0.55,0.5,0.42,0.42,0.5,0.56,0.25,0.55,0.83,0.48,0.55,0.61,0.29,0.61,0.55,0.58,0.55,0.33,0.55,0.48,0.52,0.44,0.29,0.6,0.61,0.48,0.55,0.33,0.58,0.48,0.55,0.6,0.55,0.42,0.42,0.29,0.55,0.29,0.29,0.29,0.33,0.56,0.55,0.55,0.33,0.55,0.33,0.5,0.29,0.42,0.48,0.33,0.6,0.55,0.42,0.29,0.33,0.29,0.56,0.48" style="fill:rgb(0,0,0);font-family:URWPalladioL-Roma;font-size:9.96px;stroke:none;">AChE and 8500 nM for BChE. In this assay, we did not exclude the possibility of false-positive</text>
   <text y="685.268" x="76.535,79.481,85.372,91.263,94.208,99.805,102.751,106.051,108.996,114.523,120.29979999999999,122.904,126.73,131.578,135.87,141.974,144.919,148.219,152.4022,155.001,161.084,164.9,169.749,175.467,178.413,183.94,190.043,194.335,197.28,202.8576,205.408,211.593,216.441,220.733,225.227,229.225,232.161,237.758,242.607,248.6826,251.291,254.662,260.189,264.173,266.677,272.568,275.513,281.141,286.9178,289.532,294.026,299.553,305.444,309.938,314.787,320.678,323.967,327.965,333.026,336.326,339.272,344.798,350.689,354.8722,357.481,360.852,366.986,372.047,377.108" svgx:width="0.29,0.58,0.58,0.29,0.55,0.29,0.33,0.29,0.55,0.58,0.55,0.4,0.48,0.42,0.6,0.29,0.33,0.42,0.55,0.6,0.4,0.48,0.56,0.29,0.55,0.6,0.42,0.29,0.56,0.55,0.61,0.48,0.42,0.44,0.4,0.29,0.55,0.48,0.61,0.55,0.33,0.55,0.4,0.55,0.58,0.29,0.56,0.58,0.55,0.44,0.55,0.58,0.44,0.48,0.58,0.33,0.4,0.5,0.33,0.29,0.55,0.58,0.42,0.55,0.33,0.61,0.5,0.5,0.5" style="fill:rgb(0,0,0);font-family:URWPalladioL-Roma;font-size:9.96px;stroke:none;">inhibition results previously described for high concentrations (&gt;100</text>
   <text y="685.268" x="384.661" svgx:width="0.62" style="fill:rgb(0,0,0);font-family:EURM10;font-size:9.96px;stroke:none;">µ</text>
   <text y="685.268" x="390.815,396.443,402.577,411.514,417.699,420.98580000000004,423.56,429.086,432.37280000000004,434.957,440.018,448.956,451.901,457.792,462.5728,465.131,470.657,474.64099999999996,477.146,482.207,485.152,491.337,496.185,502.076,507.704,513.888" svgx:width="0.56,0.61,0.88,0.61,0.33,0.55,0.55,0.33,0.55,0.5,0.88,0.29,0.58,0.48,0.55,0.55,0.4,0.55,0.5,0.29,0.61,0.48,0.58,0.56,0.61,0.48" style="fill:rgb(0,0,0);font-family:URWPalladioL-Roma;font-size:9.96px;stroke:none;">g/mL) of amine or aldehyde</text>
   <text y="698.777" x="76.535,80.976,86.437,95.27,101.281,106.742,112.774,118.595,124.707,128.8902,131.428" svgx:width="0.44,0.55,0.88,0.6,0.55,0.6,0.58,0.61,0.42,0.55,0.33" style="fill:rgb(0,0,0);font-family:URWPalladioL-Roma;font-size:9.96px;stroke:none;">compounds [</text>
   <text y="698.777" x="134.762,139.743" svgx:width="0.5,0.5" style="fill:rgb(8,117,183);font-family:URWPalladioL-Roma;font-size:9.96px;stroke:none;">45</text>
   <text y="698.777" x="144.725" svgx:width="0.25" style="fill:rgb(0,0,0);font-family:URWPalladioL-Roma;font-size:9.96px;stroke:none;">,</text>
   <text y="698.777" x="147.226,152.207" svgx:width="0.5,0.5" style="fill:rgb(8,117,183);font-family:URWPalladioL-Roma;font-size:9.96px;stroke:none;">46</text>
   <text y="698.777" x="157.188,160.519,163.00900000000001,165.5,171.031,177.063,180.3498,182.814,186.075,191.897,196.6778,199.168,202.079,207.08,211.521,217.09859999999998,219.563,225.025,228.3118,230.846,233.757,239.578,245.4,248.31,253.842,256.752,260.013,262.924,268.385,274.16179999999997,276.687,282.149,287.68,291.921,296.712,300.663,306.314,311.106,317.1816,319.698,323.029,328.49,332.474,334.921,338.182,344.004,348.7848,351.285,356.077,360.318,364.559,369.35,375.171,378.432,381.343,386.344,389.2324,391.735,397.197,400.107,402.9954,405.499,411.15,415.941,419.892,424.133,430.165,434.3482,436.896,440.157,445.979,450.7598,453.25,461.032,468.124,473.945,480.0206,482.538,486.779,490.039,493.81,499.272,505.093,510.654,513.565" svgx:width="0.33,0.25,0.55,0.55,0.6,0.33,0.55,0.33,0.58,0.48,0.55,0.29,0.5,0.44,0.56,0.55,0.55,0.33,0.55,0.29,0.58,0.58,0.29,0.55,0.29,0.33,0.29,0.55,0.58,0.55,0.55,0.55,0.42,0.48,0.4,0.56,0.48,0.61,0.55,0.33,0.55,0.4,0.55,0.33,0.58,0.48,0.55,0.48,0.42,0.42,0.48,0.58,0.33,0.29,0.5,0.29,0.55,0.55,0.29,0.29,0.55,0.56,0.48,0.4,0.42,0.6,0.42,0.55,0.33,0.58,0.48,0.55,0.78,0.71,0.58,0.61,0.55,0.42,0.33,0.4,0.55,0.58,0.56,0.29,0.56" style="fill:rgb(0,0,0);font-family:URWPalladioL-Roma;font-size:9.96px;stroke:none;">], but the lack of inhibition observed for the essential oil versus the AChE strongly</text>
   <text y="712.287" x="76.535,85.332,88.231,94.029,96.928,105.725,108.625,113.606,118.378,124.4536,126.956,130.204,136.002,138.901,143.0842,145.616,151.603,157.043,161.267,165.491,168.39,173.899,176.799,179.698,182.597,185.845,190.278" svgx:width="0.88,0.29,0.58,0.29,0.88,0.29,0.5,0.48,0.61,0.55,0.33,0.58,0.29,0.42,0.55,0.6,0.55,0.42,0.42,0.29,0.55,0.29,0.29,0.29,0.33,0.56,0.25" style="fill:rgb(0,0,0);font-family:URWPalladioL-Roma;font-size:9.96px;stroke:none;">minimized this possibility.</text>
   <text y="735.5" x="76.535,81.516,84.006,87.095,94.288,99.828,105.915,110.338,113.656,119.743,124.166,127.484,133.023,139.11" svgx:width="0.5,0.25,0.55,0.72,0.56,0.61,0.44,0.33,0.61,0.44,0.33,0.56,0.61,0.44" style="fill:rgb(0,0,0);font-family:URWPalladioL-Bold;font-size:9.96px;stroke:none;">4. Conclusions</text>
   <text y="754.987" x="97.795,103.865,109.629,114.4098,116.858,122.81,128.573,134.079,138.278,141.159,145.556,150.508,153.3964,155.865,161.817,165.55,170.957,176.909,181.652,185.564,188.792,191.674,196.417,200.616,203.10600000000002,205.577,209.974,215.738,220.481,229.225,232.107,236.504,241.455,244.3434,246.813,251.21,256.617,265.361,271.312,276.719,280.918,283.8,287.028,289.91,295.317,301.08,303.57,306.042,311.518,314.4,319.806,322.688,328.095,333.601,336.483,340.88,345.831,348.7194,351.189,356.14,360.537,363.765,366.647,372.242,375.124,378.352,382.759,385.249,387.72,392.671,398.435,404.5106,406.961,411.705,417.468,422.42,428.183,431.411,434.293,439.7,448.444,453.188,457.099,459.981,464.3634,466.863,472.914,475.796,479.995,483.223,487.135,490.016,495.493,501.464,504.692,507.574,512.981" svgx:width="0.61,0.58,0.48,0.55,0.6,0.58,0.56,0.42,0.29,0.44,0.5,0.29,0.55,0.6,0.4,0.55,0.6,0.48,0.4,0.33,0.29,0.48,0.42,0.25,0.55,0.44,0.58,0.48,0.88,0.29,0.44,0.5,0.29,0.55,0.44,0.55,0.88,0.6,0.55,0.42,0.29,0.33,0.29,0.55,0.58,0.25,0.55,0.55,0.29,0.55,0.29,0.55,0.56,0.29,0.44,0.5,0.29,0.55,0.5,0.44,0.33,0.29,0.56,0.29,0.33,0.56,0.25,0.55,0.5,0.58,0.61,0.55,0.48,0.58,0.5,0.58,0.33,0.29,0.55,0.88,0.48,0.4,0.29,0.44,0.55,0.61,0.29,0.42,0.33,0.4,0.29,0.55,0.6,0.33,0.29,0.55,0.58" style="fill:rgb(0,0,0);font-family:URWPalladioL-Roma;font-size:9.96px;stroke:none;">The physical properties, chemical composition, biological activity, and enantiomeric distribution</text>
   <text y="768.496" x="76.535,82.083,85.3698,88.699,92.012,97.926,102.7068,106.035,110.902,115.211,119.52,124.387,130.301,133.614,136.571,141.652,144.54039999999998,147.841,153.389,156.346,159.2344,162.535,168.744,171.701,176.009,179.322,182.279,185.236,188.193,193.061,199.13660000000002,202.511,205.895,209.726,215.275" svgx:width="0.55,0.33,0.55,0.33,0.58,0.48,0.55,0.48,0.42,0.42,0.48,0.58,0.33,0.29,0.5,0.29,0.55,0.55,0.29,0.29,0.55,0.61,0.29,0.42,0.33,0.29,0.29,0.29,0.48,0.61,0.55,0.33,0.4,0.55,0.88" style="fill:rgb(0,0,0);font-family:URWPalladioL-Roma;font-size:9.96px;stroke:none;">of the essential oil distilled from</text>
   <text y="768.496" x="227.482,235.388,238.213,243.294,248.375,252.887,257.968,261.921,265.304,269.816,275.3936,278.698,283.779,286.604,290.557,294.51,298.463,302.598,305.982" svgx:width="0.78,0.28,0.5,0.5,0.44,0.5,0.39,0.33,0.44,0.56,0.55,0.5,0.28,0.39,0.39,0.39,0.41,0.33,0.44" style="fill:rgb(0,0,0);font-family:URWPalladioL-Ital;font-size:9.96px;stroke:none;">Niphogeton dissecta</text>
   <text y="768.496" x="313.732,322.207,327.074,330.906,335.6868,339.015,345.224,350.091,353.404,358.271,362.285,371.258,374.215,380.13,384.997,391.0726,394.437,397.821,403.37,407.354,410.615,413.928,419.842,424.6228,427.951,434.099,438.113,442.422,445.70880000000005,448.966,452.279,455.236,464.209,469.076,471.56600000000003,474.848,480.498,486.047,490.06,493.373,499.023,502.407,507.955,513.87" svgx:width="0.83,0.48,0.4,0.48,0.55,0.61,0.48,0.33,0.48,0.4,0.88,0.29,0.58,0.48,0.61,0.55,0.33,0.55,0.4,0.55,0.33,0.58,0.48,0.55,0.61,0.4,0.42,0.33,0.55,0.33,0.29,0.88,0.48,0.25,0.55,0.56,0.55,0.4,0.33,0.56,0.33,0.55,0.58,0.48" style="fill:rgb(0,0,0);font-family:URWPalladioL-Roma;font-size:9.96px;stroke:none;">were determined for the ﬁrst time. Forty-one</text>
  </g>
 </g>
</svg>
