<?xml version="1.0" encoding="UTF-8"?>
<svg height="813.22" width="537.497" xmlns="http://www.w3.org/2000/svg">
 <g id="page" xmlns:svgx="http://www.xml-cml.org/schema/svgx">
  <g begin="text">
   <text y="44.76" x="325.14,330.936,336.732,343.059,348.334,351.494,353.895,358.108,362.852,367.595,371.287,376.031,380.774,383.414,385.874,390.617,395.361,400.105,404.849,408.01,412.753,417.497,420.658,425.402,430.145,434.889,438.05,442.85,447.593,452.337,454.738,459.481,461.882,465.042,469.786,474.53,480.857,483.257,488.001,492.745,497.489,502.288,505.449,510.193,514.937,519.68,524.424" svgx:width="0.61,0.61,0.67,0.56,0.33,0.25,0.44,0.5,0.5,0.39,0.5,0.5,0.28,0.25,0.5,0.5,0.5,0.5,0.33,0.5,0.5,0.33,0.5,0.5,0.5,0.33,0.5,0.5,0.5,0.25,0.5,0.25,0.33,0.5,0.5,0.67,0.25,0.5,0.5,0.5,0.5,0.33,0.5,0.5,0.5,0.5,0.25" style="fill:rgb(0,0,0);font-family:TimesNewRomanPS-ItalicMT;font-size:9.48px;stroke:none;">EXCLI Journal 2017;16:160-173 – ISSN 1611-2156 </text>
   <text y="55.68" x="186.18,191.977,196.191,200.405,204.619,207.259,211.473,215.687,220.432,223.593,225.994,232.844,237.058,241.319,245.58,252.418,257.163,261.377,265.069,267.47,272.215,276.96,279.335,281.736,286.481,291.225,295.97,300.715,303.09,305.491,310.236,314.449,318.663,322.877,327.622,330.262,334.523,339.268,342.43,344.831,350.628,354.72,359.466,363.16,367.905,372.651,376.344,380.559,382.96,387.705,392.451,394.827,397.227,401.973,406.718,411.464,416.21,418.585,420.986,425.731,430.477,435.223,437.864,440.505,444.199,448.998,453.2,457.945,461.108,463.508,471.411,476.157,479.85,484.065,488.811,491.211,495.957,500.702,503.078,505.478,510.224,514.97,519.715,524.461" svgx:width="0.61,0.44,0.44,0.44,0.28,0.44,0.44,0.5,0.33,0.25,0.72,0.44,0.44,0.44,0.72,0.5,0.44,0.39,0.25,0.5,0.5,0.25,0.25,0.5,0.5,0.5,0.5,0.25,0.25,0.5,0.44,0.44,0.44,0.5,0.28,0.44,0.5,0.33,0.25,0.61,0.44,0.5,0.39,0.5,0.5,0.39,0.44,0.25,0.5,0.5,0.25,0.25,0.5,0.5,0.5,0.5,0.25,0.25,0.5,0.5,0.5,0.28,0.28,0.39,0.5,0.44,0.5,0.33,0.25,0.83,0.5,0.39,0.44,0.5,0.25,0.5,0.5,0.25,0.25,0.5,0.5,0.5,0.5,0.25" style="fill:rgb(0,0,0);font-family:TimesNewRomanPS-ItalicMT;font-size:9.48px;stroke:none;">Received: December 09, 2016, accepted: February 11, 2017, published: March 06, 2017 </text>
   <text y="70.74" x="70.92" svgx:width="0.25" style="fill:rgb(0,0,0);font-family:TimesNewRomanPSMT;font-size:6.0px;stroke:none;"> </text>
  </g>
  <g begin="text">
   <text y="776.88" x="70.92" svgx:width="0.25" style="fill:rgb(0,0,0);font-family:TimesNewRomanPSMT;font-size:6.0px;stroke:none;"> </text>
   <text y="803.22" x="288.66,294.66,300.66,306.66" svgx:width="0.5,0.5,0.5,0.25" style="fill:rgb(0,0,0);font-family:TimesNewRomanPSMT;font-size:12.0px;stroke:none;">163 </text>
  </g>
  <g begin="text">
   <text y="96.18" x="70.92,77.593,80.93,86.932,92.933,96.27,101.599,104.936,110.266,113.266,119.267,124.596,127.933,133.934,136.934,142.936,148.265,152.934,158.935,164.264,167.602,173.603,179.604,182.941,186.278,192.28" svgx:width="0.56,0.28,0.5,0.5,0.28,0.44,0.28,0.44,0.25,0.5,0.44,0.28,0.5,0.25,0.5,0.44,0.39,0.5,0.44,0.28,0.5,0.5,0.28,0.28,0.5,0.5" style="fill:rgb(0,0,0);font-family:TimesNewRomanPS-ItalicMT;font-size:12.0px;stroke:none;">Linoleic acid peroxidation</text>
   <text y="96.18" x="198.24,200.76" svgx:width="0.25,0.25" style="fill:rgb(0,0,0);font-family:TimesNewRomanPS-ItalicMT;font-size:10.02px;stroke:none;"> </text>
   <text y="109.86" x="88.8,92.809,98.822,101.822,103.072,106.421,112.361,115.71,120.391,123.391,124.64,129.982,134.599,139.28,144.563,150.576,153.589,156.589,157.838,161.188,167.201,172.542,175.542,176.791,182.132,188.072,191.422,194.771,200.711,206.724,210.073,216.086,221.428,227.441,230.79,233.79,235.039,240.38,245.722,251.735,257.017,262.36,265.709,269.058,275.071,278.071,279.32,285.334,289.234" svgx:width="0.33,0.5,0.25,0.55,0.28,0.5,0.28,0.39,0.25,0.55,0.44,0.39,0.39,0.44,0.5,0.25,0.25,0.55,0.28,0.5,0.44,0.25,0.55,0.44,0.5,0.28,0.28,0.5,0.5,0.28,0.5,0.44,0.5,0.28,0.25,0.55,0.44,0.44,0.5,0.44,0.44,0.28,0.28,0.5,0.25,0.55,0.5,0.33,0.25" style="fill:rgb(0,0,0);font-family:TimesNewRomanPSMT;font-size:12.0px;stroke:none;">In this assay, the antioxidant capacity of </text>
   <text y="123.66" x="70.92,77.597,83.602,90.938,99.607,102.847,108.852,114.857,118.097,121.438,127.442,133.447,136.788,142.793,146.134,149.474,152.815,158.82,164.825,168.065,174.07,178.07,181.31,184.651,187.992,193.997,197.338,203.342,206.582,212.587,217.92,221.921,227.926,233.93,237.271,243.276,248.609,251.95,255.29,261.295,267.3,270.54,279.209,284.542,289.214" svgx:width="0.56,0.5,0.61,0.72,0.25,0.5,0.5,0.25,0.28,0.5,0.5,0.28,0.5,0.28,0.28,0.28,0.5,0.5,0.25,0.5,0.33,0.25,0.28,0.28,0.5,0.28,0.5,0.25,0.5,0.44,0.33,0.5,0.5,0.28,0.5,0.44,0.28,0.28,0.5,0.5,0.25,0.72,0.44,0.39,0.25" style="fill:rgb(0,0,0);font-family:TimesNewRomanPSMT;font-size:12.0px;stroke:none;">SoEO on inhibition of lipid peroxidation was </text>
   <text y="137.46" x="70.92,76.258,80.935,85.613,90.95,95.628,100.306,105.643,111.653,114.073,118.079,126.752,132.762,136.108,138.528,143.866,147.211,149.632,154.969,158.315,161.324,164.334,166.8,172.799,178.798,184.796,190.795,194.79,197.789,200.234,206.233,209.232,215.231,221.23,227.228,233.227,235.673,241.672,244.117,250.116,254.111,256.556,263.887,272.55,277.877,283.204,289.202" svgx:width="0.44,0.39,0.39,0.44,0.39,0.39,0.44,0.5,0.25,0.33,0.72,0.5,0.28,0.25,0.44,0.28,0.25,0.44,0.28,0.25,0.25,0.25,0.5,0.5,0.5,0.5,0.33,0.25,0.25,0.5,0.25,0.5,0.5,0.5,0.5,0.25,0.5,0.25,0.5,0.33,0.25,0.61,0.72,0.44,0.44,0.5,0.25" style="fill:rgb(0,0,0);font-family:TimesNewRomanPSMT;font-size:12.0px;stroke:none;">assessed (Hui et al., 2010). 0.2804 g of Tween </text>
   <text y="151.26" x="70.92,76.922,82.925,86.756,92.087,98.089,104.092,107.923,113.926,116.928,122.93,128.933,134.935,140.938,144.769,150.772,154.603,160.606,164.604,168.436,171.774,175.112,181.115,187.117,190.456,195.786,199.124,204.455,208.286,213.617,218.947,222.286,228.288,232.12,240.786,246.116,250.115,255.445,259.277,268.519,271.882,277.884,283.214,289.217" svgx:width="0.5,0.5,0.25,0.44,0.5,0.5,0.25,0.5,0.25,0.5,0.5,0.5,0.5,0.25,0.5,0.25,0.5,0.33,0.25,0.28,0.28,0.5,0.5,0.28,0.44,0.28,0.44,0.25,0.44,0.44,0.28,0.5,0.25,0.72,0.44,0.33,0.44,0.25,0.78,0.28,0.5,0.44,0.5,0.25" style="fill:rgb(0,0,0);font-family:TimesNewRomanPSMT;font-size:12.0px;stroke:none;">20 and 0.2804 g of linoleic acid were mixed </text>
   <text y="165.06" x="70.92,74.254,80.251,82.765,88.763,94.76,97.274,106.517,113.839,116.353,122.351,126.344,128.858,135.528,143.53,150.199,152.713,156.707,162.704,168.702,174.7,177.214,186.547,197.213,200.21,202.724,208.722,217.384,219.898,225.895,228.893,234.89,238.884,241.398,244.732,250.729,253.243,259.241,263.234,268.56,274.558,279.883,283.877,289.202" svgx:width="0.28,0.5,0.25,0.5,0.5,0.25,0.78,0.61,0.25,0.5,0.33,0.25,0.56,0.67,0.56,0.25,0.33,0.5,0.5,0.5,0.25,0.78,0.89,0.25,0.25,0.5,0.72,0.25,0.5,0.25,0.5,0.33,0.25,0.28,0.5,0.25,0.5,0.33,0.44,0.5,0.44,0.33,0.44,0.25" style="fill:rgb(0,0,0);font-family:TimesNewRomanPSMT;font-size:12.0px;stroke:none;">in 50 mL of PBS (200 mM, pH 7.0) to prepare </text>
   <text y="178.86" x="70.92,74.258,80.261,85.591,88.882,92.22,95.558,101.561,107.563,110.902,116.232,119.57,124.901,128.191,133.522,138.852,142.19,148.193,151.483,156.814,166.056,172.058,175.397,180.067,183.406,189.408,195.41,198.413,201.703,207.706,210.708,216.71,220.001,229.243,236.566,239.856,245.858,249.857,253.147,256.486,259.824,265.826,271.829,275.167,280.498,283.836,289.238" svgx:width="0.28,0.5,0.44,0.25,0.28,0.28,0.5,0.5,0.28,0.44,0.28,0.44,0.25,0.44,0.44,0.28,0.5,0.25,0.44,0.78,0.5,0.28,0.39,0.28,0.5,0.5,0.25,0.25,0.5,0.25,0.5,0.25,0.78,0.61,0.25,0.5,0.33,0.25,0.28,0.28,0.5,0.5,0.28,0.44,0.28,0.44,0.25" style="fill:rgb(0,0,0);font-family:TimesNewRomanPSMT;font-size:12.0px;stroke:none;">the linoleic acid emulsion. 2.5 mL of linoleic </text>
   <text y="192.66" x="70.92,76.25,81.581,84.919,90.922,93.516,98.846,108.089,114.091,117.43,122.1,125.438,131.441,137.443,140.038,145.368,151.37,157.373,159.967,165.97,168.564,177.806,185.129,187.723,193.726,197.724,200.318,206.993,214.999,221.674,224.268,228.266,234.269,240.271,246.274,248.868,258.11,268.788,271.79,274.385,280.505,289.202" svgx:width="0.44,0.44,0.28,0.5,0.25,0.44,0.78,0.5,0.28,0.39,0.28,0.5,0.5,0.25,0.44,0.5,0.5,0.25,0.5,0.25,0.78,0.61,0.25,0.5,0.33,0.25,0.56,0.67,0.56,0.25,0.33,0.5,0.5,0.5,0.25,0.78,0.89,0.25,0.25,0.5,0.72,0.25" style="fill:rgb(0,0,0);font-family:TimesNewRomanPSMT;font-size:12.0px;stroke:none;">acid emulsion and 2 mL of PBS (200 mM, pH </text>
   <text y="206.46" x="70.92,76.918,79.915,85.913,89.906,92.906,94.106,102.768,108.094,112.087,117.413,120.413,121.613,126.938,132.936,138.934,144.259,150.257,153.257,154.457,157.79,163.788,166.788,167.988,173.986,176.983,182.981,185.981,187.181,196.514,203.844,206.844,208.044,214.042,218.035,221.035,222.235,228.233,231.566,235.56,239.554,244.956,248.95,254.275,260.273,263.606,266.606,267.806,273.132,279.13,285.127" svgx:width="0.5,0.25,0.5,0.33,0.25,0.55,0.72,0.44,0.33,0.44,0.25,0.55,0.44,0.5,0.5,0.44,0.5,0.25,0.55,0.28,0.5,0.25,0.55,0.5,0.25,0.5,0.25,0.55,0.78,0.61,0.25,0.55,0.5,0.33,0.25,0.55,0.5,0.28,0.33,0.33,0.44,0.33,0.44,0.5,0.28,0.25,0.55,0.44,0.5,0.5,0.33" style="fill:rgb(0,0,0);font-family:TimesNewRomanPSMT;font-size:12.0px;stroke:none;">7.0) were added to 0.5 mL of different con-</text>
   <text y="220.26" x="70.92,76.246,81.571,87.569,90.902,94.896,100.222,103.555,106.889,112.886,118.884,123.55,126.07,132.067,136.061,138.581,145.25,151.248,158.578,167.239,169.759,173.753,179.75,182.748,188.746,191.743,194.263,200.261,203.258,209.256,215.254,218.251,220.771,226.769,229.766,235.764,238.762,241.282,247.279,249.799,259.133,265.13,268.553,277.795,285.125,289.205" svgx:width="0.44,0.44,0.5,0.28,0.33,0.44,0.28,0.28,0.5,0.5,0.39,0.25,0.5,0.33,0.25,0.56,0.5,0.61,0.72,0.25,0.33,0.5,0.25,0.5,0.25,0.25,0.5,0.25,0.5,0.5,0.25,0.25,0.5,0.25,0.5,0.25,0.25,0.5,0.25,0.78,0.5,0.28,0.78,0.61,0.33,0.25" style="fill:rgb(0,0,0);font-family:TimesNewRomanPSMT;font-size:12.0px;stroke:none;">centrations of SoEO (0.1, 0.25, 0.5, 1 mg/mL) </text>
   <text y="234.06" x="70.92,76.254,82.26,88.266,92.053,95.395,101.401,106.735,110.522,119.765,123.127,129.133,132.475,138.481,142.483,147.817,151.604,160.274,165.608,170.282,174.07,177.412,183.418,188.752,194.758,200.764,206.098,209.44,214.774,220.78,224.567,228.569,234.575,238.577,242.364,248.37,254.376,258.163,267.406,270.768,276.774,280.561,285.895,289.237" svgx:width="0.44,0.5,0.5,0.25,0.28,0.5,0.44,0.25,0.78,0.28,0.5,0.28,0.5,0.33,0.44,0.25,0.72,0.44,0.39,0.25,0.28,0.5,0.44,0.5,0.5,0.44,0.28,0.44,0.5,0.25,0.33,0.5,0.33,0.25,0.5,0.5,0.25,0.78,0.28,0.5,0.25,0.44,0.28,0.25" style="fill:rgb(0,0,0);font-family:TimesNewRomanPSMT;font-size:12.0px;stroke:none;">and the mixture was incubated for 30 min at </text>
   <text y="247.86" x="70.92,76.915,82.91,86.57,91.366,99.365,103.025,106.356,112.351,116.011,119.342,125.338,130.661,134.321,140.316,145.639,149.63,155.626,158.621,162.281,169.608,175.603,180.926,186.922,189.917,193.577,199.572,205.567,211.562,215.222,222.13,229.457,233.117,239.112,243.103,246.763,250.186,256.186,261.509,265.169,269.16,274.483,279.806,285.13" svgx:width="0.5,0.5,0.25,0.4,0.67,0.25,0.28,0.5,0.25,0.28,0.5,0.44,0.25,0.5,0.44,0.33,0.5,0.25,0.25,0.61,0.5,0.44,0.5,0.25,0.25,0.5,0.5,0.5,0.25,0.58,0.61,0.25,0.5,0.33,0.25,0.28,0.5,0.44,0.25,0.33,0.44,0.44,0.44,0.33" style="fill:rgb(0,0,0);font-family:TimesNewRomanPSMT;font-size:12.0px;stroke:none;">37 °C in the dark. Then, 100 µL of the reac-</text>
   <text y="261.66" x="70.92,74.258,77.597,83.599,89.602,93.461,102.703,106.066,112.068,115.406,121.409,125.407,130.738,133.74,137.599,143.602,149.604,155.606,159.466,166.38,173.714,177.574,183.576,187.574,191.434,196.764,206.102,215.441,221.443,227.446,230.784,236.786,246.029,249.888,253.226,259.229,262.567,268.57,273.9,279.902,285.233" svgx:width="0.28,0.28,0.5,0.5,0.25,0.78,0.28,0.5,0.28,0.5,0.33,0.44,0.25,0.25,0.5,0.5,0.5,0.25,0.58,0.61,0.25,0.5,0.33,0.25,0.44,0.78,0.78,0.5,0.5,0.28,0.5,0.78,0.25,0.28,0.5,0.28,0.5,0.44,0.5,0.44,0.33" style="fill:rgb(0,0,0);font-family:TimesNewRomanPSMT;font-size:12.0px;stroke:none;">tion mixture, 100 µL of ammonium thiocya-</text>
   <text y="275.46" x="70.92,76.915,82.238,85.57,90.893,93.893,95.633,100.296,106.291,109.622,115.618,118.949,122.28,128.275,134.27,137.27,139.01,143.002,148.997,154.992,157.992,167.983,171.974,174.974,176.714,182.038,188.033,194.028,197.028,198.768,204.763,210.758,216.754,219.754,221.494,228.401,235.728,238.728,240.468,246.463,250.454,253.454,255.194,259.186,264.509,268.5,272.491,278.486,284.482,289.219" svgx:width="0.5,0.44,0.28,0.44,0.25,0.55,0.39,0.5,0.28,0.5,0.28,0.28,0.5,0.5,0.25,0.55,0.33,0.5,0.5,0.25,0.83,0.33,0.25,0.55,0.44,0.5,0.5,0.25,0.55,0.5,0.5,0.5,0.25,0.55,0.58,0.61,0.25,0.55,0.5,0.33,0.25,0.55,0.33,0.44,0.33,0.33,0.5,0.5,0.39,0.25" style="fill:rgb(0,0,0);font-family:TimesNewRomanPSMT;font-size:12.0px;stroke:none;">nate solution (30 %) and 100 µL of ferrous </text>
   <text y="289.26" x="70.92,76.258,82.267,85.613,91.622,95.582,98.945,104.954,110.292,113.292,117.661,122.339,128.348,131.694,137.704,141.049,144.395,150.404,156.414,159.414,163.783,167.789,173.798,179.808,182.808,187.177,196.42,207.097,210.443,213.443,217.812,221.158,227.167,230.167,234.536,243.21,251.224,254.569,258.575,261.575,265.944,274.618,279.955,283.961,289.243" svgx:width="0.44,0.5,0.28,0.5,0.33,0.28,0.5,0.44,0.25,0.55,0.39,0.5,0.28,0.5,0.28,0.28,0.5,0.5,0.25,0.55,0.33,0.5,0.5,0.25,0.55,0.78,0.89,0.28,0.25,0.55,0.28,0.5,0.25,0.55,0.72,0.67,0.28,0.33,0.25,0.55,0.72,0.44,0.33,0.44,0.25" style="fill:rgb(0,0,0);font-family:TimesNewRomanPSMT;font-size:12.0px;stroke:none;">chloride solution (20 mM/ in HCl) were </text>
   <text y="303.06" x="70.92,76.256,82.265,88.273,93.61,99.618,102.446,105.791,111.799,114.628,120.636,123.644,129.653,132.481,141.724,149.046,151.874,157.883,161.887,164.716,170.052,173.396,179.405,184.741,190.75,196.758,200.102,202.931,206.935,212.944,218.952,221.952,231.956,235.961,238.969,241.798,250.375,254.335,257.68,263.016,267.02,269.849,274.525,277.87,281.214,285.218" svgx:width="0.44,0.5,0.5,0.44,0.5,0.25,0.28,0.5,0.25,0.5,0.25,0.5,0.25,0.78,0.61,0.25,0.5,0.33,0.25,0.44,0.28,0.5,0.44,0.5,0.5,0.28,0.25,0.33,0.5,0.5,0.25,0.83,0.33,0.25,0.25,0.72,0.33,0.28,0.44,0.33,0.25,0.39,0.28,0.28,0.33,0.33" style="fill:rgb(0,0,0);font-family:TimesNewRomanPSMT;font-size:12.0px;stroke:none;">added to 9.7 mL of ethanol (75 %). After stir-</text>
   <text y="316.859" x="70.92,74.922,78.264,84.27,90.276,94.124,98.126,104.132,108.134,111.983,117.989,121.837,131.179,134.521,140.527,144.376,147.718,153.724,159.058,162.906,168.24,174.246,178.92,184.926,188.928,194.934,200.268,206.274,211.608,216.942,220.79,229.46,234.794,239.468,243.317,252.559,257.893,263.227,267.901,273.907,277.909,283.243,289.249" svgx:width="0.33,0.28,0.5,0.5,0.25,0.33,0.5,0.33,0.25,0.5,0.25,0.78,0.28,0.5,0.25,0.28,0.5,0.44,0.25,0.44,0.5,0.39,0.5,0.33,0.5,0.44,0.5,0.44,0.44,0.25,0.72,0.44,0.39,0.25,0.78,0.44,0.44,0.39,0.5,0.33,0.44,0.5,0.25" style="fill:rgb(0,0,0);font-family:TimesNewRomanPSMT;font-size:12.0px;stroke:none;">ring for 3 min the absorbance was measured </text>
   <text y="330.659" x="70.92,76.252,79.591,83.071,89.075,95.078,101.082,104.562,110.566,119.808,122.812,126.3,132.6,136.598,143.933,149.935,155.266,161.268,167.27,173.273,178.603,182.602,188.604,191.942,195.41,204.077,209.407,214.078,217.546,223.548,228.218,233.549,239.551,243.019,248.35,253.02,256.488,261.818,265.286,271.289,277.291,281.962,285.3" svgx:width="0.44,0.28,0.25,0.5,0.5,0.5,0.25,0.5,0.78,0.25,0.25,0.52,0.33,0.61,0.5,0.44,0.5,0.5,0.5,0.44,0.33,0.5,0.28,0.25,0.72,0.44,0.39,0.25,0.5,0.39,0.44,0.5,0.25,0.44,0.39,0.25,0.44,0.25,0.5,0.5,0.39,0.28,0.33" style="fill:rgb(0,0,0);font-family:TimesNewRomanPSMT;font-size:12.0px;stroke:none;">at 500 nm. α-Tocopherol was used as a posi-</text>
   <text y="344.459" x="70.92,74.261,77.602,83.606,88.939,92.168,97.501,103.506,109.511,112.852,116.852,122.857,126.198,129.427,134.1,140.105,143.446,149.45,152.791,156.132,162.137,168.142,171.371,180.04,183.38,186.721,192.726,198.731,204.736,208.076,211.306,216.638,222.643,228.648,231.989,237.994,243.999,247.228,253.905,259.909,267.246,275.915,279.144,285.149,289.229" svgx:width="0.28,0.28,0.5,0.44,0.25,0.44,0.5,0.5,0.28,0.33,0.5,0.28,0.25,0.39,0.5,0.28,0.5,0.28,0.28,0.5,0.5,0.25,0.72,0.28,0.28,0.5,0.5,0.5,0.28,0.25,0.44,0.5,0.5,0.28,0.5,0.5,0.25,0.56,0.5,0.61,0.72,0.25,0.5,0.33,0.25" style="fill:rgb(0,0,0);font-family:TimesNewRomanPSMT;font-size:12.0px;stroke:none;">tive control solution without adding SoEO or </text>
   <text y="358.259" x="70.92,77.22,81.221,84.562,90.566,95.899,101.904,107.909,113.914,119.246,123.247,129.252,132.593,135.653,144.322,149.654,154.327,157.387,163.392,168.065,173.398,179.402,182.462,187.795,192.468,195.528,201.533,204.874,210.206,216.211,222.216,225.221,228.281,235.618,241.622,246.955,250.015,256.02,261.353,265.354,270.686,276.019,282.024,285.365" svgx:width="0.52,0.33,0.28,0.5,0.44,0.5,0.5,0.5,0.44,0.33,0.5,0.28,0.25,0.72,0.44,0.39,0.25,0.5,0.39,0.44,0.5,0.25,0.44,0.39,0.25,0.5,0.28,0.44,0.5,0.5,0.25,0.25,0.61,0.5,0.44,0.25,0.5,0.44,0.33,0.44,0.44,0.5,0.28,0.33" style="fill:rgb(0,0,0);font-family:TimesNewRomanPSMT;font-size:12.0px;stroke:none;">α-tocopherol was used as blank. The percent-</text>
   <text y="372.059" x="70.92,76.258,82.267,87.605,89.986,95.995,100.001,102.382,107.719,113.729,117.074,120.42,126.36,132.37,135.715,141.725,147.062,153.072,156.418,158.798,164.136,169.474,172.819,176.165,182.1,185.435,188.77,194.768,197.168,205.831,211.158,215.825,218.225,224.224,229.55,232.885,238.212,242.207,251.449,254.784,260.783,266.11,272.108,274.508,280.507,285.174" svgx:width="0.44,0.5,0.44,0.25,0.5,0.33,0.25,0.44,0.5,0.28,0.28,0.5,0.5,0.28,0.5,0.44,0.5,0.28,0.25,0.44,0.44,0.28,0.28,0.5,0.28,0.28,0.5,0.25,0.72,0.44,0.39,0.25,0.5,0.44,0.28,0.44,0.33,0.78,0.28,0.5,0.44,0.5,0.25,0.5,0.39,0.33" style="fill:rgb(0,0,0);font-family:TimesNewRomanPSMT;font-size:12.0px;stroke:none;">age of antioxidant activity was determined us-</text>
   <text y="385.859" x="70.92,74.257,80.258,86.26,89.26,92.597,98.598,103.927,106.927,110.924,116.926,120.263,123.6,129.601,138.266,141.604,147.605,153.606,156.606,163.939,169.94,172.942,175.942,179.939,185.94,189.937,193.274" svgx:width="0.28,0.5,0.5,0.25,0.28,0.5,0.44,0.25,0.33,0.5,0.28,0.28,0.5,0.72,0.28,0.5,0.5,0.25,0.61,0.5,0.25,0.25,0.33,0.5,0.33,0.28,0.25" style="fill:rgb(0,0,0);font-family:TimesNewRomanPSMT;font-size:12.0px;stroke:none;">ing the following Eq. (2): </text>
   <text y="405.659" x="106.38,113.713,117.05,123.052,129.053,132.39,137.719,141.056,146.386,149.386,154.715,160.044,163.381,169.382,172.382,178.384,183.713,187.68,193.679,199.678,203.012,209.011,214.338,217.673,221.008,227.006,233.005,236.005,239.34,245.339,251.338,254.672,260.671,264.006,267.341,270.676,276.674,282.673" svgx:width="0.61,0.28,0.5,0.5,0.28,0.44,0.28,0.44,0.25,0.44,0.44,0.28,0.5,0.25,0.5,0.44,0.33,0.5,0.5,0.28,0.5,0.44,0.28,0.28,0.5,0.5,0.25,0.28,0.5,0.5,0.28,0.5,0.28,0.28,0.28,0.5,0.5,0.25" style="fill:rgb(0,0,0);font-family:TimesNewRomanPSMT;font-size:12.0px;stroke:none;">Linoleic acid peroxidation inhibition </text>
   <text y="419.459" x="70.92,74.93,77.93,87.941,91.951,94.951,101.734,104.734,108.744,112.754" svgx:width="0.33,0.25,0.83,0.33,0.25,0.56,0.25,0.33,0.33,0.72" style="fill:rgb(0,0,0);font-family:TimesNewRomanPSMT;font-size:12.0px;stroke:none;">( %) = [(A</text>
   <text y="419.94" x="121.38,124.926,128.918,132.91,135.131,137.791,141.783,144.004" svgx:width="0.44,0.5,0.5,0.28,0.33,0.5,0.28,0.25" style="fill:rgb(0,0,0);font-family:TimesNewRomanPSMT;font-size:7.98px;stroke:none;">control </text>
   <text y="419.46" x="145.98,150.0" svgx:width="0.33,0.72" style="fill:rgb(0,0,0);font-family:TimesNewRomanPSMT;font-size:12.0px;stroke:none;">-A</text>
   <text y="419.94" x="158.64,160.866,164.418,167.53" svgx:width="0.28,0.44,0.39,0.28" style="fill:rgb(0,0,0);font-family:TimesNewRomanPSMT;font-size:7.98px;stroke:none;">test</text>
   <text y="419.46" x="169.74,173.761,176.731,180.092,183.062" svgx:width="0.33,0.25,0.28,0.25,0.25" style="fill:rgb(0,0,0);font-family:TimesNewRomanPSMT;font-size:12.0px;stroke:none;">) / </text>
   <text y="433.26" x="70.92,73.92,76.92,79.92,82.92,85.92,88.92,91.92,94.92,97.92,100.92,103.92,106.92,110.92" svgx:width="0.25,0.25,0.25,0.25,0.25,0.25,0.25,0.25,0.25,0.25,0.25,0.25,0.33,0.72" style="fill:rgb(0,0,0);font-family:TimesNewRomanPSMT;font-size:12.0px;stroke:none;"> (A</text>
   <text y="433.74" x="119.58,123.134,127.135,131.137,133.366,136.006,140.026,142.256" svgx:width="0.44,0.5,0.5,0.28,0.33,0.5,0.28,0.25" style="fill:rgb(0,0,0);font-family:TimesNewRomanPSMT;font-size:7.98px;stroke:none;">control </text>
   <text y="433.26" x="144.24,148.26" svgx:width="0.33,0.72" style="fill:rgb(0,0,0);font-family:TimesNewRomanPSMT;font-size:12.0px;stroke:none;">-A</text>
   <text y="433.74" x="156.9,160.906,163.14,166.699,170.705" svgx:width="0.5,0.28,0.44,0.5,0.5" style="fill:rgb(0,0,0);font-family:TimesNewRomanPSMT;font-size:7.98px;stroke:none;">blank</text>
   <text y="433.26" x="174.72,178.714,182.707,185.707,192.473,195.473,201.47,207.468,213.466,216.466,275.206,279.199,285.197,289.19" svgx:width="0.33,0.33,0.25,0.56,0.25,0.5,0.5,0.5,0.25,0.55,0.33,0.5,0.33,0.25" style="fill:rgb(0,0,0);font-family:TimesNewRomanPSMT;font-size:12.0px;stroke:none;">)] × 100 (2) </text>
   <text y="453.06" x="88.8,97.471,103.478,108.814,112.817,118.152,121.152,124.572" svgx:width="0.72,0.5,0.44,0.33,0.44,0.25,0.55,0.72" style="fill:rgb(0,0,0);font-family:TimesNewRomanPSMT;font-size:12.0px;stroke:none;">where A</text>
   <text y="453.54" x="133.2,135.426,138.978,142.09" svgx:width="0.28,0.44,0.39,0.28" style="fill:rgb(0,0,0);font-family:TimesNewRomanPSMT;font-size:7.98px;stroke:none;">test</text>
   <text y="453.06" x="144.36,147.36,150.78,154.123,158.798,161.798,165.218,168.562,174.569,179.904,182.904,186.324,191.659,197.666,202.342,208.349,212.352,218.359,223.694,229.702,235.037,240.372,243.372,246.792,252.799,258.134,261.478,267.485,272.82,275.82,279.24,285.247,289.25" svgx:width="0.25,0.55,0.28,0.39,0.25,0.55,0.28,0.5,0.44,0.25,0.55,0.44,0.5,0.39,0.5,0.33,0.5,0.44,0.5,0.44,0.44,0.25,0.55,0.5,0.44,0.28,0.5,0.44,0.25,0.55,0.5,0.33,0.25" style="fill:rgb(0,0,0);font-family:TimesNewRomanPSMT;font-size:12.0px;stroke:none;"> is the absorbance value of </text>
   <text y="466.86" x="70.92,77.588,83.585,90.913,99.574,103.054,107.718,113.12,122.363,128.363,131.785,137.128,140.124,143.604" svgx:width="0.56,0.5,0.61,0.72,0.25,0.39,0.44,0.78,0.5,0.28,0.44,0.25,0.25,0.72" style="fill:rgb(0,0,0);font-family:TimesNewRomanPSMT;font-size:12.0px;stroke:none;">SoEO sample, A</text>
   <text y="467.34" x="152.22,155.779,159.785,163.791,166.025,168.665,172.686" svgx:width="0.44,0.5,0.5,0.28,0.33,0.5,0.28" style="fill:rgb(0,0,0);font-family:TimesNewRomanPSMT;font-size:7.98px;stroke:none;">control</text>
   <text y="466.86" x="174.9,178.364,181.706,186.38,189.845,193.187,199.193,204.527,207.991,213.325,219.331,224.005,229.945,233.947,239.953,245.287,251.293,256.627,261.961,265.426,271.432,275.434,278.88,285.18" svgx:width="0.25,0.28,0.39,0.25,0.28,0.5,0.44,0.25,0.44,0.5,0.39,0.5,0.33,0.5,0.44,0.5,0.44,0.44,0.25,0.5,0.33,0.25,0.52,0.33" style="fill:rgb(0,0,0);font-family:TimesNewRomanPSMT;font-size:12.0px;stroke:none;"> is the absorbance of α-</text>
   <text y="480.66" x="70.92,74.262,80.268,85.602,91.608,97.614,103.62,108.954,112.956,118.962,122.304,125.304,128.364,133.698,139.704,145.71,148.71,151.77" svgx:width="0.28,0.5,0.44,0.5,0.5,0.5,0.44,0.33,0.5,0.28,0.25,0.55,0.44,0.5,0.5,0.25,0.55,0.72" style="fill:rgb(0,0,0);font-family:TimesNewRomanPSMT;font-size:12.0px;stroke:none;">tocopherol and A</text>
   <text y="481.14" x="160.38,164.386,166.62,170.179,174.185" svgx:width="0.5,0.28,0.44,0.5,0.5" style="fill:rgb(0,0,0);font-family:TimesNewRomanPSMT;font-size:7.98px;stroke:none;">blank</text>
   <text y="480.66" x="178.2,181.2,184.26,187.604,192.281,195.281,198.341,201.685,207.694,213.03,216.03,219.09,224.426,230.435,235.111,241.12,245.124,251.132,256.469,262.477,267.814,273.15,276.15,279.21,285.218,289.223" svgx:width="0.25,0.55,0.28,0.39,0.25,0.55,0.28,0.5,0.44,0.25,0.55,0.44,0.5,0.39,0.5,0.33,0.5,0.44,0.5,0.44,0.44,0.25,0.55,0.5,0.33,0.25" style="fill:rgb(0,0,0);font-family:TimesNewRomanPSMT;font-size:12.0px;stroke:none;"> is the absorbance of </text>
   <text y="494.46" x="70.92,76.916,80.249,85.573,91.57,97.566,100.562" svgx:width="0.5,0.28,0.44,0.5,0.5,0.25,0.25" style="fill:rgb(0,0,0);font-family:TimesNewRomanPSMT;font-size:12.0px;stroke:none;">blank. </text>
   <text y="508.32" x="70.92" svgx:width="0.25" style="fill:rgb(0,0,0);font-family:TimesNewRomanPS-ItalicMT;font-size:12.0px;stroke:none;"> </text>
   <text y="522.18" x="70.92,78.93,85.608,88.95,92.292,101.634,104.976,110.258,114.932,120.938,126.944,130.286,136.292,139.634,142.604,148.61,153.944,157.286,160.628,165.962,169.304,172.646,177.98,180.95" svgx:width="0.67,0.56,0.28,0.28,0.78,0.28,0.44,0.39,0.5,0.5,0.28,0.5,0.28,0.25,0.5,0.44,0.28,0.28,0.44,0.28,0.28,0.44,0.25,0.25" style="fill:rgb(0,0,0);font-family:TimesNewRomanPS-BoldItalicMT;font-size:12.0px;stroke:none;">Antimicrobial activity </text>
   <text y="541.92" x="70.92,80.916,84.252,89.58,94.248,100.248,106.248,110.916,116.916,122.916,128.916,132.252,136.92,145.584,150.252,153.252,159.252,165.252,171.252,174.252,180.252,184.92,190.92,198.924,202.26,208.26,211.26,216.588,222.588,228.588,234.588,237.924,241.26,244.596,250.596,256.596,261.264,264.264" svgx:width="0.83,0.28,0.44,0.39,0.5,0.5,0.39,0.5,0.5,0.5,0.28,0.39,0.72,0.39,0.25,0.5,0.5,0.5,0.25,0.5,0.39,0.5,0.67,0.28,0.5,0.25,0.44,0.5,0.5,0.5,0.28,0.28,0.28,0.5,0.5,0.39,0.25,0.25" style="fill:rgb(0,0,0);font-family:TimesNewRomanPS-ItalicMT;font-size:12.0px;stroke:none;">Microorganisms and growth conditions </text>
   <text y="555.66" x="88.8,96.805,102.134,107.464,110.801,116.13,120.127,123.464,128.794,131.794,133.174,138.503,144.504,150.505,153.505,154.885,158.882,164.884,170.885,176.886,180.223,183.223,184.603,189.272,192.6,196.59,201.912,205.242,211.236,215.898,218.898,220.278,228.936,234.258,238.248,243.57,246.57,247.95,253.944,259.938,263.268,268.59,271.92,277.914,283.236,289.23" svgx:width="0.67,0.44,0.44,0.28,0.44,0.33,0.28,0.44,0.25,0.55,0.44,0.5,0.5,0.25,0.55,0.33,0.5,0.5,0.5,0.28,0.25,0.55,0.39,0.28,0.33,0.44,0.28,0.5,0.39,0.25,0.55,0.72,0.44,0.33,0.44,0.25,0.55,0.5,0.5,0.28,0.44,0.28,0.5,0.44,0.5,0.25" style="fill:rgb(0,0,0);font-family:TimesNewRomanPSMT;font-size:12.0px;stroke:none;">Bacteria and fungi strains were obtained </text>
   <text y="569.46" x="70.92,74.88,78.9,84.917,94.159,97.159,110.459,113.812,119.828,123.181,128.526,132.539,138.556,143.9,147.253,150.606,156.623,162.64,167.984,171.337,174.337,187.637,192.982,198.998,202.351,205.704,211.644,215.657,221.002,224.002,237.301,242.646,248.586,251.939,255.292,260.636,265.919,269.272,272.624,278.641,284.658,289.276" svgx:width="0.33,0.33,0.5,0.78,0.25,0.55,0.28,0.5,0.28,0.44,0.33,0.5,0.44,0.28,0.28,0.5,0.5,0.44,0.28,0.25,0.55,0.44,0.5,0.28,0.28,0.5,0.33,0.44,0.25,0.55,0.44,0.5,0.28,0.28,0.44,0.44,0.28,0.28,0.5,0.5,0.39,0.25" style="fill:rgb(0,0,0);font-family:TimesNewRomanPSMT;font-size:12.0px;stroke:none;">from international culture collections </text>
   <text y="583.26" x="70.92,74.921,83.59,90.926,98.935,106.944,110.945,113.465,118.798,124.802,130.807,133.327,136.668,142.673,148.006,150.526,153.866,159.871,165.204,170.537,173.878,176.398,181.73,187.62,190.956,194.292,200.292,204.288,209.616,212.136,217.464,223.464,226.8,230.136,235.464,240.792,244.128,247.464,253.464,259.464,261.984,267.984,271.98,274.5,277.836,283.836,289.238" svgx:width="0.33,0.72,0.61,0.67,0.67,0.33,0.25,0.44,0.5,0.5,0.25,0.28,0.5,0.44,0.25,0.28,0.5,0.44,0.44,0.28,0.25,0.44,0.5,0.28,0.28,0.5,0.33,0.44,0.25,0.44,0.5,0.28,0.28,0.44,0.44,0.28,0.28,0.5,0.5,0.25,0.5,0.33,0.25,0.28,0.5,0.44,0.25" style="fill:rgb(0,0,0);font-family:TimesNewRomanPSMT;font-size:12.0px;stroke:none;">(ATCC) and the local culture collection of the </text>
   <text y="597.06" x="70.92,78.926,84.257,90.259,93.598,97.596,102.926,105.926,109.226,115.229,119.227,122.227,125.527,133.534,136.872,142.874,146.213,151.543,156.874,162.876,168.878,174.881,178.219,184.2,190.206,196.212,199.212,202.531,208.537,212.539,215.539,218.858,225.536,229.538,234.872,240.878,243.884,246.884,250.204,257.542,263.548,269.554,272.896,277.57,280.912,286.246,289.252" svgx:width="0.67,0.44,0.5,0.28,0.33,0.44,0.25,0.55,0.5,0.33,0.25,0.55,0.67,0.28,0.5,0.28,0.44,0.44,0.5,0.5,0.5,0.28,0.5,0.5,0.5,0.25,0.55,0.5,0.33,0.25,0.55,0.56,0.33,0.44,0.5,0.25,0.25,0.55,0.61,0.5,0.5,0.28,0.39,0.28,0.44,0.25,0.25" style="fill:rgb(0,0,0);font-family:TimesNewRomanPSMT;font-size:12.0px;stroke:none;">Centre of Biotechnology of Sfax, Tunisia. </text>
   <text y="610.86" x="70.92,78.251,84.25,89.576,92.576,95.156,101.155,106.482,111.809,115.144,120.47,124.465,127.8,133.127,136.462,139.462,142.042,146.708,150.043,154.038,159.365,162.7,168.698,173.365,176.365,178.945,184.944,189.6,194.93,200.933,203.933,206.483,209.821,215.824,218.824,221.374,224.712,230.714,234.053,238.723,241.723,244.273,248.944,252.282,258.284,264.287,270.289,273.289,275.839,279.178,285.18" svgx:width="0.61,0.5,0.44,0.25,0.55,0.5,0.44,0.44,0.28,0.44,0.33,0.28,0.44,0.28,0.25,0.55,0.39,0.28,0.33,0.44,0.28,0.5,0.39,0.25,0.55,0.5,0.39,0.44,0.5,0.25,0.55,0.28,0.5,0.25,0.55,0.28,0.5,0.28,0.39,0.25,0.55,0.39,0.28,0.5,0.5,0.5,0.25,0.55,0.28,0.5,0.33" style="fill:rgb(0,0,0);font-family:TimesNewRomanPSMT;font-size:12.0px;stroke:none;">The bacterial strains used in this study in-</text>
   <text y="624.66" x="70.92,76.26,79.608,85.62,91.632,96.972,102.984,106.332" svgx:width="0.44,0.28,0.5,0.5,0.44,0.5,0.28,0.25" style="fill:rgb(0,0,0);font-family:TimesNewRomanPSMT;font-size:12.0px;stroke:none;">cluded: </text>
   <text y="624.66" x="115.14,122.472,128.472,133.8,137.136,140.472,143.808,149.808,154.476,157.476,163.296,167.964,173.964,179.964,183.3,186.636,189.972,193.308" svgx:width="0.61,0.5,0.44,0.28,0.28,0.28,0.5,0.39,0.25,0.55,0.39,0.5,0.5,0.28,0.28,0.28,0.28,0.39" style="fill:rgb(0,0,0);font-family:TimesNewRomanPS-ItalicMT;font-size:12.0px;stroke:none;">Bacillus subtilis</text>
   <text y="624.66" x="197.94,200.94" svgx:width="0.25,0.25" style="fill:rgb(0,0,0);font-family:TimesNewRomanPSMT;font-size:12.0px;stroke:none;">, </text>
   <text y="624.66" x="209.76,217.105,223.118,228.401,231.75,235.099,238.448,244.388,249.07,252.07,257.89,263.231,268.572,273.253,278.594,284.608" svgx:width="0.61,0.5,0.44,0.28,0.28,0.28,0.5,0.39,0.25,0.55,0.44,0.44,0.39,0.44,0.5,0.39" style="fill:rgb(0,0,0);font-family:TimesNewRomanPS-ItalicMT;font-size:12.0px;stroke:none;">Bacillus cereus</text>
   <text y="624.66" x="289.2" svgx:width="0.25" style="fill:rgb(0,0,0);font-family:TimesNewRomanPSMT;font-size:12.0px;stroke:none;"> </text>
   <text y="638.46" x="70.92,79.58,86.909,94.909,102.91,106.39,112.386,118.382,124.379,130.375,136.372,139.368" svgx:width="0.72,0.61,0.67,0.67,0.25,0.5,0.5,0.5,0.5,0.5,0.25,0.25" style="fill:rgb(0,0,0);font-family:TimesNewRomanPSMT;font-size:12.0px;stroke:none;">ATCC 14579, </text>
   <text y="638.46" x="142.86,148.861,152.198,158.2,164.201,170.202,175.531,178.868,184.87,190.199,196.2,201.529,206.858,212.86,217.529,221.009,227.01,233.011,237.68,243.01,249.011" svgx:width="0.5,0.28,0.5,0.5,0.5,0.44,0.28,0.5,0.44,0.5,0.44,0.44,0.5,0.39,0.25,0.5,0.5,0.39,0.44,0.5,0.39" style="fill:rgb(0,0,0);font-family:TimesNewRomanPS-ItalicMT;font-size:12.0px;stroke:none;">Staphylococcus aureus</text>
   <text y="638.46" x="253.68,257.16,265.798,273.12,281.16,289.2" svgx:width="0.25,0.72,0.61,0.67,0.67,0.25" style="fill:rgb(0,0,0);font-family:TimesNewRomanPSMT;font-size:12.0px;stroke:none;"> ATCC </text>
   <text y="652.26" x="70.92,76.92,82.92,88.92,94.92,100.92,103.92,107.46" svgx:width="0.5,0.5,0.5,0.5,0.5,0.25,0.25,0.25" style="fill:rgb(0,0,0);font-family:TimesNewRomanPSMT;font-size:12.0px;stroke:none;">25923, </text>
   <text y="652.26" x="111.0,120.997,124.334,129.664,134.333,140.334,145.663,151.664,156.994,162.323,168.324,172.993,176.533,179.87,185.872,189.209,194.538,200.539" svgx:width="0.83,0.28,0.44,0.39,0.5,0.44,0.5,0.44,0.44,0.5,0.39,0.25,0.28,0.5,0.28,0.44,0.5,0.39" style="fill:rgb(0,0,0);font-family:TimesNewRomanPS-ItalicMT;font-size:12.0px;stroke:none;">Micrococcus luteus</text>
   <text y="652.26" x="205.2,208.74,217.41,224.748,232.758,240.768,244.308,250.314,256.32,262.326,268.332,271.872,277.206,283.212,289.218" svgx:width="0.25,0.72,0.61,0.67,0.67,0.25,0.5,0.5,0.5,0.5,0.25,0.44,0.5,0.5,0.25" style="fill:rgb(0,0,0);font-family:TimesNewRomanPSMT;font-size:12.0px;stroke:none;"> ATCC 1880 and </text>
   <text y="666.06" x="70.92,79.594,83.599,88.937,98.179,102.185,108.194,113.532,119.542,124.879,128.225,131.57,137.58,142.918,145.918,146.818,152.827,158.165,163.502,166.848,172.186,176.191,179.537,184.874,188.22" svgx:width="0.72,0.33,0.44,0.78,0.33,0.5,0.44,0.5,0.44,0.28,0.28,0.5,0.44,0.25,0.55,0.5,0.44,0.44,0.28,0.44,0.33,0.28,0.44,0.28,0.25" style="fill:rgb(0,0,0);font-family:TimesNewRomanPSMT;font-size:12.0px;stroke:none;">Gram-negative bacteria: </text>
   <text y="666.06" x="192.0,198.002,204.005,207.343,216.01,222.012,228.014,233.345,236.683,240.022,246.024,249.864,255.194,261.197,264.535,269.866,274.536,277.874,283.205,289.207" svgx:width="0.5,0.5,0.28,0.72,0.5,0.5,0.44,0.28,0.28,0.5,0.25,0.44,0.5,0.28,0.44,0.39,0.28,0.44,0.5,0.25" style="fill:rgb(0,0,0);font-family:TimesNewRomanPS-ItalicMT;font-size:12.0px;stroke:none;">Salmonella enterica </text>
   <text y="679.86" x="70.92,75.599,80.938,84.944,90.955,94.302,100.313,106.324,111.662" svgx:width="0.39,0.44,0.33,0.5,0.28,0.5,0.5,0.44,0.25" style="fill:rgb(0,0,0);font-family:TimesNewRomanPSMT;font-size:12.0px;stroke:none;">serotype </text>
   <text y="679.86" x="117.3,124.644,130.584,133.932,139.272,143.952,147.3,150.648,153.996,159.936,163.284" svgx:width="0.61,0.5,0.28,0.44,0.39,0.28,0.28,0.28,0.5,0.28,0.39" style="fill:rgb(0,0,0);font-family:TimesNewRomanPS-ItalicMT;font-size:12.0px;stroke:none;">Enteritidis</text>
   <text y="679.86" x="167.94,170.94,173.58" svgx:width="0.25,0.55,0.33" style="fill:rgb(0,0,0);font-family:TimesNewRomanPSMT;font-size:12.0px;stroke:none;"> (</text>
   <text y="679.86" x="177.6,183.612,189.552,192.9,201.576,207.588,213.6,218.94,222.288,225.636,231.648,234.648,237.288,242.628,248.568,251.916,257.256,261.936,265.284,268.632,271.98,277.92,281.268" svgx:width="0.5,0.5,0.28,0.72,0.5,0.5,0.44,0.28,0.28,0.5,0.25,0.55,0.44,0.5,0.28,0.44,0.39,0.28,0.28,0.28,0.5,0.28,0.39" style="fill:rgb(0,0,0);font-family:TimesNewRomanPS-ItalicMT;font-size:12.0px;stroke:none;">Salmonella enteritidis</text>
   <text y="679.86" x="285.9,289.202" svgx:width="0.28,0.25" style="fill:rgb(0,0,0);font-family:TimesNewRomanPSMT;font-size:12.0px;stroke:none;">; </text>
   <text y="693.66" x="70.92,74.915,80.914,86.912,92.911,96.151,99.486,104.153,110.152,113.486,118.813,122.148,127.475,131.47,134.468" svgx:width="0.33,0.5,0.5,0.5,0.25,0.28,0.39,0.5,0.28,0.44,0.28,0.44,0.33,0.25,0.25" style="fill:rgb(0,0,0);font-family:TimesNewRomanPSMT;font-size:12.0px;stroke:none;">food isolate), </text>
   <text y="693.66" x="137.7,145.021,148.01,151.25,156.568,162.557,165.882" svgx:width="0.61,0.25,0.25,0.44,0.5,0.28,0.28" style="fill:rgb(0,0,0);font-family:TimesNewRomanPS-ItalicMT;font-size:12.0px;stroke:none;">E. coli</text>
   <text y="693.66" x="169.26,172.5,181.153,188.416,196.409,204.402,207.642,213.631,219.62,225.61,231.599,237.588,240.577" svgx:width="0.25,0.72,0.61,0.67,0.67,0.25,0.5,0.5,0.5,0.5,0.5,0.25,0.25" style="fill:rgb(0,0,0);font-family:TimesNewRomanPSMT;font-size:12.0px;stroke:none;"> ATCC 25922, </text>
   <text y="693.66" x="243.84,251.174,257.177,261.847,267.85,273.852,279.854,285.185" svgx:width="0.61,0.5,0.39,0.5,0.5,0.5,0.44,0.33" style="fill:rgb(0,0,0);font-family:TimesNewRomanPS-ItalicMT;font-size:12.0px;stroke:none;">Agrobac-</text>
   <text y="707.46" x="70.92,74.266,79.603,84.281,87.626,93.636,102.31,105.31,106.33,109.675,115.685,124.358,129.696,133.042,139.051,144.389,147.734,153.072,159.012" svgx:width="0.28,0.44,0.39,0.28,0.5,0.72,0.25,0.55,0.28,0.5,0.72,0.44,0.28,0.5,0.44,0.28,0.44,0.5,0.39" style="fill:rgb(0,0,0);font-family:TimesNewRomanPS-ItalicMT;font-size:12.0px;stroke:none;">terium tumefaciens</text>
   <text y="707.46" x="163.68,166.68,167.744,173.07,179.068,185.065,188.065,189.13,192.463,198.461,203.786,206.786,207.851,211.844,217.842,221.176,224.509,230.507,239.168,242.502,248.5,254.497,257.497,258.562,262.555,268.553,274.55,280.548,285.874,289.207" svgx:width="0.25,0.55,0.44,0.5,0.5,0.25,0.55,0.28,0.5,0.44,0.25,0.55,0.33,0.5,0.28,0.28,0.5,0.72,0.28,0.5,0.5,0.25,0.55,0.33,0.5,0.5,0.5,0.44,0.28,0.25" style="fill:rgb(0,0,0);font-family:TimesNewRomanPSMT;font-size:12.0px;stroke:none;"> and the following fungal </text>
   <text y="721.26" x="70.92,75.598,78.943,82.949,88.286,91.632,97.642,102.319,105.665" svgx:width="0.39,0.28,0.33,0.44,0.28,0.5,0.39,0.28,0.25" style="fill:rgb(0,0,0);font-family:TimesNewRomanPSMT;font-size:12.0px;stroke:none;">strains: </text>
   <text y="721.26" x="108.18,115.524,120.204,126.144,131.426,136.106,142.118,145.466,148.814,152.162,158.102,162.782,165.302,171.314,174.662,180.674,185.957" svgx:width="0.61,0.39,0.5,0.44,0.39,0.5,0.28,0.28,0.28,0.5,0.39,0.25,0.5,0.28,0.5,0.44,0.39" style="fill:rgb(0,0,0);font-family:TimesNewRomanPS-ItalicMT;font-size:12.0px;stroke:none;">Aspergillus niger</text>
   <text y="721.26" x="190.56,193.08,201.083,208.414,219.08,221.6,227.599,233.598,239.597,245.596,251.594,254.593" svgx:width="0.25,0.67,0.61,0.89,0.25,0.5,0.5,0.5,0.5,0.5,0.25,0.25" style="fill:rgb(0,0,0);font-family:TimesNewRomanPSMT;font-size:12.0px;stroke:none;"> CTM 10099, </text>
   <text y="721.26" x="257.1,264.436,269.107,275.111,280.442,285.18" svgx:width="0.61,0.39,0.5,0.44,0.39,0.33" style="fill:rgb(0,0,0);font-family:TimesNewRomanPS-ItalicMT;font-size:12.0px;stroke:none;">Asper-</text>
   <text y="735.06" x="70.92,76.936,80.287,83.639,86.99,93.006,97.69,100.69,101.95,105.301,108.653,114.593,119.936,125.952" svgx:width="0.5,0.28,0.28,0.28,0.5,0.39,0.25,0.55,0.28,0.28,0.5,0.44,0.5,0.39" style="fill:rgb(0,0,0);font-family:TimesNewRomanPS-ItalicMT;font-size:12.0px;stroke:none;">gillus flavus</text>
   <text y="735.06" x="130.56,133.56,134.88,138.881,142.882,148.886,154.891,160.896,163.896,165.216,168.557,173.23,179.234,182.575,187.908,191.249,196.582,200.582,203.587" svgx:width="0.25,0.55,0.33,0.33,0.5,0.5,0.5,0.25,0.55,0.28,0.39,0.5,0.28,0.44,0.28,0.44,0.33,0.25,0.25" style="fill:rgb(0,0,0);font-family:TimesNewRomanPSMT;font-size:12.0px;stroke:none;"> (food isolate), </text>
   <text y="735.06" x="207.9,215.245,221.258,224.608,229.289,234.571,237.92,241.27,245.951,248.951,250.211,255.552,258.901,264.914,270.256,274.937,280.278" svgx:width="0.61,0.5,0.28,0.39,0.44,0.28,0.28,0.39,0.25,0.55,0.44,0.28,0.5,0.44,0.39,0.44,0.5" style="fill:rgb(0,0,0);font-family:TimesNewRomanPS-ItalicMT;font-size:12.0px;stroke:none;">Botrytis cinerea</text>
   <text y="735.06" x="286.26,289.2" svgx:width="0.25,0.25" style="fill:rgb(0,0,0);font-family:TimesNewRomanPSMT;font-size:12.0px;stroke:none;">, </text>
   <text y="748.86" x="70.92,78.26,84.269,87.613,92.29,98.298,103.634,106.979,112.987,118.927,122.29,128.23,131.23,138.01,142.686,148.694,152.039,158.047,163.987" svgx:width="0.61,0.5,0.28,0.39,0.5,0.44,0.28,0.5,0.5,0.28,0.5,0.25,0.55,0.39,0.5,0.28,0.5,0.5,0.28" style="fill:rgb(0,0,0);font-family:TimesNewRomanPS-ItalicMT;font-size:12.0px;stroke:none;">Rhizoctonia solani</text>
   <text y="748.86" x="167.34,170.34" svgx:width="0.25,0.25" style="fill:rgb(0,0,0);font-family:TimesNewRomanPSMT;font-size:12.0px;stroke:none;">, </text>
   <text y="748.86" x="180.12,187.382,193.382,198.05,204.05,208.718,212.054,218.054,226.718,229.718,236.498,242.498,247.826,253.154,257.822,263.822,269.822,274.49,280.49" svgx:width="0.61,0.5,0.39,0.5,0.39,0.28,0.5,0.72,0.25,0.55,0.5,0.44,0.44,0.39,0.5,0.5,0.39,0.5,0.72" style="fill:rgb(0,0,0);font-family:TimesNewRomanPS-ItalicMT;font-size:12.0px;stroke:none;">Fusarium oxysporum</text>
   <text y="748.86" x="289.2" svgx:width="0.25" style="fill:rgb(0,0,0);font-family:TimesNewRomanPSMT;font-size:12.0px;stroke:none;"> </text>
   <text y="96.12" x="306.12,310.118,318.125,325.459,336.13,342.132,348.134,354.137,360.139,366.142,370.14,373.143,375.603,380.933,386.935,392.938" svgx:width="0.33,0.67,0.61,0.89,0.5,0.5,0.5,0.5,0.5,0.33,0.25,0.25,0.44,0.5,0.5,0.25" style="fill:rgb(0,0,0);font-family:TimesNewRomanPSMT;font-size:12.0px;stroke:none;">(CTM10402), and </text>
   <text y="96.12" x="395.4,402.742,406.087,409.433,414.77,419.448,425.388,431.398,436.075,439.421,445.431,447.891,453.9,457.246,460.591,465.873,470.55,476.56,482.569,485.915" svgx:width="0.61,0.28,0.28,0.44,0.39,0.5,0.5,0.39,0.28,0.5,0.25,0.5,0.28,0.28,0.44,0.39,0.5,0.5,0.28,0.5" style="fill:rgb(0,0,0);font-family:TimesNewRomanPS-ItalicMT;font-size:12.0px;stroke:none;">Alternaria alternata</text>
   <text y="96.12" x="491.88,494.34,498.352,506.371,513.719,524.402" svgx:width="0.25,0.33,0.67,0.61,0.89,0.25" style="fill:rgb(0,0,0);font-family:TimesNewRomanPSMT;font-size:12.0px;stroke:none;"> (CTM </text>
   <text y="109.86" x="306.12,312.124,318.127,324.131,330.134,336.138,340.138,343.141,346.141" svgx:width="0.5,0.5,0.5,0.5,0.5,0.33,0.25,0.25,0.25" style="fill:rgb(0,0,0);font-family:TimesNewRomanPSMT;font-size:12.0px;stroke:none;">10230). </text>
   <text y="123.66" x="324.0,332.015,337.354,342.692,346.039,351.378,355.385,358.732,364.07,367.07,370.01,378.685,384.024,388.031,393.37,396.37,399.31,408.552,413.894,417.241,423.252,426.599,431.938,435.284,441.295,446.634,452.645,455.645,458.585,463.924,468.603,471.603,474.543,479.221,482.568,488.579,493.918,499.858,502.858,505.798,511.137,517.147,520.494" svgx:width="0.67,0.44,0.44,0.28,0.44,0.33,0.28,0.44,0.25,0.55,0.72,0.44,0.33,0.44,0.25,0.55,0.78,0.44,0.28,0.5,0.28,0.44,0.28,0.5,0.44,0.5,0.25,0.55,0.44,0.39,0.25,0.55,0.39,0.28,0.5,0.44,0.5,0.25,0.55,0.44,0.5,0.28,0.33" style="fill:rgb(0,0,0);font-family:TimesNewRomanPSMT;font-size:12.0px;stroke:none;">Bacteria were maintained as stock cul-</text>
   <text y="137.46" x="306.12,309.468,315.48,319.488,324.828,329.508,332.184,337.524,340.872,343.548,347.556,353.568,359.58,362.256,366.997,374.977,377.653,381.001,387.013,389.689,397.033,403.045,407.053,410.4,415.726,418.406,426.408,431.734,435.727,439.061,445.058,451.056,454.389,457.07,463.068,467.061,473.059,476.393,482.39,485.071,494.313,499.656,505.653,508.987,515.107,524.409" svgx:width="0.28,0.5,0.33,0.44,0.39,0.25,0.44,0.28,0.25,0.33,0.5,0.5,0.25,0.4,0.67,0.25,0.28,0.5,0.25,0.61,0.5,0.33,0.28,0.44,0.25,0.67,0.44,0.33,0.28,0.5,0.5,0.28,0.25,0.5,0.33,0.5,0.28,0.5,0.25,0.78,0.44,0.5,0.28,0.5,0.78,0.25" style="fill:rgb(0,0,0);font-family:TimesNewRomanPSMT;font-size:12.0px;stroke:none;">tures at -80 °C in Luria Bertoni broth medium </text>
   <text y="151.26" x="306.12,310.123,317.462,325.474,329.477,332.484,335.112,339.787,345.794,351.802,357.809,361.152,366.487,375.73,381.065,387.072,390.415,395.75,401.758,404.386,413.057,416.4,419.743,425.75,428.378,434.386,440.393,443.393,453.396,456.024,460.027,466.034,469.378,475.385,479.388,482.016,488.023,491.366,497.374,502.709,508.044,512.047,518.054,521.398,524.405" svgx:width="0.33,0.61,0.67,0.33,0.25,0.25,0.39,0.5,0.5,0.5,0.28,0.44,0.78,0.44,0.5,0.28,0.44,0.5,0.25,0.72,0.28,0.28,0.5,0.25,0.5,0.5,0.25,0.83,0.25,0.33,0.5,0.28,0.5,0.33,0.25,0.5,0.28,0.5,0.44,0.44,0.33,0.5,0.28,0.25,0.25" style="fill:rgb(0,0,0);font-family:TimesNewRomanPSMT;font-size:12.0px;stroke:none;">(LB), supplemented with 20 % (v/v) glycerol. </text>
   <text y="165.06" x="306.12,313.454,319.457,324.787,327.787,330.497,334.495,340.498,346.5,352.502,355.841,358.841,361.55,370.217,375.547,379.546,384.876,387.876,390.586,396.588,400.587,406.589,415.255,421.258,424.258,426.967,432.97,438.972,441.972,444.682,451.356,457.359,460.697,466.027,469.366,475.368,478.368,481.078,489.744,495.075,501.077,504.415,508.414,514.416,519.087,524.417" svgx:width="0.61,0.5,0.44,0.25,0.55,0.33,0.5,0.5,0.5,0.28,0.25,0.55,0.72,0.44,0.33,0.44,0.25,0.55,0.5,0.33,0.5,0.72,0.5,0.25,0.55,0.5,0.5,0.25,0.55,0.56,0.5,0.28,0.44,0.28,0.5,0.25,0.55,0.72,0.44,0.5,0.28,0.33,0.5,0.39,0.44,0.25" style="fill:rgb(0,0,0);font-family:TimesNewRomanPSMT;font-size:12.0px;stroke:none;">The fungi were grown on Potato Dextrose </text>
   <text y="178.86" x="306.12,314.783,320.782,326.108,330.103,333.247,337.242,343.913,352.576,361.238,365.319,368.463,373.789,377.124,380.268,386.267,392.266,395.41,400.209,408.211,411.355,415.35,421.349,425.344,428.46,434.462,437.612,443.615,448.945,454.948,459.618,462.768,468.098,474.101,480.103,483.253,487.924,491.262,497.264,501.263,506.593,512.596,515.746,521.076,524.414" svgx:width="0.72,0.5,0.44,0.33,0.25,0.33,0.56,0.72,0.72,0.33,0.25,0.44,0.28,0.25,0.5,0.5,0.25,0.4,0.67,0.25,0.33,0.5,0.33,0.25,0.5,0.25,0.5,0.44,0.5,0.39,0.25,0.44,0.5,0.5,0.25,0.39,0.28,0.5,0.33,0.44,0.5,0.25,0.44,0.28,0.25" style="fill:rgb(0,0,0);font-family:TimesNewRomanPSMT;font-size:12.0px;stroke:none;">Agar (PDA) at 25 °C for 7 days and stored at </text>
   <text y="192.66" x="306.12,312.126,315.126,319.932,327.942,330.942,336.948,342.954,346.296,349.638,352.98,355.98,361.986,366.604,371.938,374.944,377.944" svgx:width="0.5,0.25,0.4,0.67,0.25,0.5,0.5,0.28,0.28,0.28,0.25,0.5,0.39,0.44,0.25,0.25,0.25" style="fill:rgb(0,0,0);font-family:TimesNewRomanPSMT;font-size:12.0px;stroke:none;">4 °C until use. </text>
   <text y="206.46" x="324.0,331.338,337.344,342.678,345.678,347.778,351.12,357.126,363.132,366.474,371.808,377.142,380.484,386.49,390.492,393.492,395.592,401.598,405.6,411.606,416.94,422.946,426.288,430.962,440.205,444.879,447.879,449.979,453.981,459.987,465.321,470.655,473.997,479.331,483.333,486.675,492.009,496.011,499.011,501.111,509.781,515.115,519.117,524.451" svgx:width="0.61,0.5,0.44,0.25,0.55,0.28,0.5,0.5,0.28,0.44,0.44,0.28,0.5,0.33,0.25,0.55,0.5,0.33,0.5,0.44,0.5,0.28,0.39,0.78,0.39,0.25,0.55,0.33,0.5,0.44,0.44,0.28,0.44,0.33,0.28,0.44,0.33,0.25,0.55,0.72,0.44,0.33,0.44,0.25" style="fill:rgb(0,0,0);font-family:TimesNewRomanPSMT;font-size:12.0px;stroke:none;">The indicator organisms (bacteria) were </text>
   <text y="220.26" x="306.12,312.125,316.126,322.13,330.799,336.804,340.397,343.738,349.742,353.335,359.34,362.933,372.274,379.61,383.203,390.54,398.549,402.142,408.146,412.147,418.152,421.493,427.497,431.09,437.095,443.1,448.433,452.433,458.438,461.779,467.784,473.789,477.129,480.722,486.055,489.396,492.989,498.993,504.998,508.591,513.396,521.405,524.409" svgx:width="0.5,0.33,0.5,0.72,0.5,0.25,0.28,0.5,0.25,0.5,0.25,0.78,0.61,0.25,0.61,0.67,0.25,0.5,0.33,0.5,0.28,0.5,0.25,0.5,0.5,0.44,0.33,0.5,0.28,0.5,0.5,0.28,0.25,0.44,0.28,0.25,0.5,0.5,0.25,0.4,0.67,0.25,0.25" style="fill:rgb(0,0,0);font-family:TimesNewRomanPSMT;font-size:12.0px;stroke:none;">grown in 3 mL LB broth overnight at 37 °C. </text>
   <text y="234.06" x="306.12,312.799,318.806,322.81,326.099,329.442,335.449,340.784,344.074,347.417,352.752,357.427,360.77,363.778,367.067,371.07,374.413,380.42,385.756,389.099,392.388,395.731,401.738,407.746,413.081,419.088,422.431,428.439,437.782,441.071,446.406,452.413,458.421,463.756,469.091,475.098,478.441,482.445,487.78,491.123,494.466,500.473,506.481,511.156,514.445,520.452,524.455" svgx:width="0.56,0.5,0.33,0.25,0.28,0.5,0.44,0.25,0.28,0.44,0.39,0.28,0.25,0.25,0.33,0.28,0.5,0.44,0.28,0.25,0.28,0.5,0.5,0.44,0.5,0.28,0.5,0.78,0.25,0.44,0.5,0.5,0.44,0.44,0.5,0.28,0.33,0.44,0.28,0.28,0.5,0.5,0.39,0.25,0.5,0.33,0.25" style="fill:rgb(0,0,0);font-family:TimesNewRomanPSMT;font-size:12.0px;stroke:none;">For the test, final inoculum concentrations of </text>
   <text y="247.859" x="306.12,312.12" svgx:width="0.5,0.5" style="fill:rgb(0,0,0);font-family:TimesNewRomanPSMT;font-size:12.0px;stroke:none;">10</text>
   <text y="243.36" x="318.12" svgx:width="0.5" style="fill:rgb(0,0,0);font-family:TimesNewRomanPSMT;font-size:7.98px;stroke:none;">6</text>
   <text y="247.86" x="322.14,324.6,332.599,339.266,347.926,351.257,360.588,367.915,370.375,379.034,384.358,388.349,393.672,396.132,402.127,406.79,412.114,418.109,421.104,423.564,430.231,436.227,442.222,448.217,453.54,456.871,459.331,463.995,469.99,475.985,479.976,485.299,487.759,492.423,498.418,503.081,509.076,514.399,520.395" svgx:width="0.25,0.67,0.56,0.72,0.28,0.78,0.61,0.25,0.72,0.44,0.33,0.44,0.25,0.5,0.39,0.44,0.5,0.25,0.25,0.56,0.5,0.5,0.5,0.44,0.28,0.25,0.39,0.5,0.5,0.33,0.44,0.25,0.39,0.5,0.39,0.5,0.44,0.5,0.33" style="fill:rgb(0,0,0);font-family:TimesNewRomanPSMT;font-size:12.0px;stroke:none;"> CFU/mL were used. Fungal spore suspen-</text>
   <text y="261.66" x="306.12,310.794,314.136,320.142,326.148,330.822,334.002,342.672,348.006,352.008,357.342,360.522,365.856,371.862,375.204,378.546,383.88,389.214,392.556,397.89,403.896,407.076,411.078,415.08,421.02,430.323,433.503,436.845,442.851,448.185,451.365,456.039,462.045,466.047,470.049,475.383,480.717,486.051,489.231,495.237,499.239,502.419,507.093,513.099,518.433,524.439" svgx:width="0.39,0.28,0.5,0.5,0.39,0.25,0.72,0.44,0.33,0.44,0.25,0.44,0.5,0.28,0.28,0.44,0.44,0.28,0.44,0.5,0.25,0.33,0.33,0.5,0.78,0.25,0.28,0.5,0.44,0.25,0.39,0.5,0.33,0.33,0.44,0.44,0.44,0.25,0.5,0.33,0.25,0.39,0.5,0.44,0.5,0.25" style="fill:rgb(0,0,0);font-family:TimesNewRomanPSMT;font-size:12.0px;stroke:none;">sions were collected from the surface of such </text>
   <text y="275.46" x="306.12,310.122,316.128,322.134,328.14,333.474,336.816,339.216,344.55,350.556,353.898,359.904,365.91,369.252,374.586,379.26,381.66,387.666,393.672,396.072,402.078,407.412,413.418,416.76,420.102,426.108,428.508,433.182,438.516,442.518,447.852,453.858,457.2,463.206,469.212,471.612,480.282,483.624,486.966,492.972,495.372,500.706,503.106,506.448,512.454,518.46,524.466" svgx:width="0.33,0.5,0.5,0.5,0.44,0.28,0.25,0.44,0.5,0.28,0.5,0.5,0.28,0.44,0.39,0.25,0.5,0.5,0.25,0.5,0.44,0.5,0.28,0.28,0.5,0.25,0.39,0.44,0.33,0.44,0.5,0.28,0.5,0.5,0.25,0.72,0.28,0.28,0.5,0.25,0.44,0.25,0.28,0.5,0.5,0.5,0.25" style="fill:rgb(0,0,0);font-family:TimesNewRomanPSMT;font-size:12.0px;stroke:none;">fungal colonies by gently scraping with a loop </text>
   <text y="289.26" x="306.12,311.447,317.446,323.444,326.264,330.931,336.93,341.597,347.596,352.923,358.921,364.92,370.247,376.246,379.066,382.401,388.399,391.219,397.218,400.038,409.281,416.603,419.423,426.094,432.093,435.427,440.754,444.089,450.088,452.908,461.571,466.898,472.896,476.231,480.226,486.225,490.892,496.218,499.038,505.037,509.032,515.031,518.366,524.364" svgx:width="0.44,0.5,0.5,0.25,0.39,0.5,0.39,0.5,0.44,0.5,0.5,0.44,0.5,0.25,0.28,0.5,0.25,0.5,0.25,0.78,0.61,0.25,0.56,0.5,0.28,0.44,0.28,0.5,0.25,0.72,0.44,0.5,0.28,0.33,0.5,0.39,0.44,0.25,0.5,0.33,0.5,0.28,0.5,0.25" style="fill:rgb(0,0,0);font-family:TimesNewRomanPSMT;font-size:12.0px;stroke:none;">and suspended in 3 mL Potato Dextrose broth </text>
   <text y="303.06" x="306.12,310.123,316.802,325.474,333.485,337.488,340.495,343.495,346.867,354.206,360.214,363.557,368.232,371.232,374.604,379.279,385.286,389.962,395.969,401.304,407.311,411.986,415.33,421.27,427.27,430.27,433.642,442.313,447.648,452.323,455.323,458.695,467.938,471.3,477.307,482.643,488.65,491.65,495.022,501.029,504.372,510.379,516.387,520.39" svgx:width="0.33,0.56,0.72,0.67,0.33,0.25,0.25,0.55,0.61,0.5,0.28,0.39,0.25,0.55,0.39,0.5,0.39,0.5,0.44,0.5,0.39,0.28,0.5,0.5,0.25,0.55,0.72,0.44,0.39,0.25,0.55,0.78,0.28,0.5,0.44,0.5,0.25,0.55,0.5,0.28,0.5,0.5,0.33,0.33" style="fill:rgb(0,0,0);font-family:TimesNewRomanPSMT;font-size:12.0px;stroke:none;">(PDB). This suspension was mixed vigor-</text>
   <text y="316.86" x="306.12,312.121,318.122,322.792,326.129,332.13,335.85,341.851,347.852,351.572,357.574,363.575,367.572,370.909,376.238,382.24,385.577,391.578,397.579,401.299,405.296,411.297,415.295,419.015,425.016,431.017,435.014,441.015,447.017,450.737,459.979,463.341,469.343,472.344,476.064,483.397,489.398,494.727,498.447,503.117,509.118,515.119,519.116,524.445" svgx:width="0.5,0.5,0.39,0.28,0.5,0.25,0.5,0.5,0.25,0.5,0.5,0.33,0.28,0.44,0.5,0.28,0.5,0.5,0.25,0.33,0.5,0.33,0.25,0.5,0.5,0.33,0.5,0.5,0.25,0.78,0.28,0.5,0.25,0.25,0.61,0.5,0.44,0.25,0.39,0.5,0.5,0.33,0.44,0.25" style="fill:rgb(0,0,0);font-family:TimesNewRomanPSMT;font-size:12.0px;stroke:none;">ously by vortexing for 15-20 min. The spore </text>
   <text y="330.66" x="306.12,310.79,316.793,321.463,327.466,332.796,338.798,343.469,346.807,352.81,358.812,361.992,366.663,370.001,376.003,381.334,387.336,390.516,399.183,404.513,409.183,412.363,418.366,421.704,425.043,431.045,434.383,439.714,445.716,448.896,452.235,458.237,461.417,467.419,473.422,476.76,482.091,485.429,491.432,494.612,499.942,503.122,508.452,514.455,520.457" svgx:width="0.39,0.5,0.39,0.5,0.44,0.5,0.39,0.28,0.5,0.5,0.25,0.39,0.28,0.5,0.44,0.5,0.25,0.72,0.44,0.39,0.25,0.5,0.28,0.28,0.5,0.28,0.44,0.5,0.25,0.28,0.5,0.25,0.5,0.5,0.28,0.44,0.28,0.5,0.25,0.44,0.25,0.44,0.5,0.5,0.33" style="fill:rgb(0,0,0);font-family:TimesNewRomanPSMT;font-size:12.0px;stroke:none;">suspension stock was diluted to obtain a con-</text>
   <text y="344.46" x="306.12,311.447,316.774,322.772,326.107,330.102,335.429,338.764,342.099,348.097,354.096,357.096,360.396,366.395,370.39,373.39,376.69,382.689" svgx:width="0.44,0.44,0.5,0.28,0.33,0.44,0.28,0.28,0.5,0.5,0.25,0.55,0.5,0.33,0.25,0.55,0.5,0.5" style="fill:rgb(0,0,0);font-family:TimesNewRomanPSMT;font-size:12.0px;stroke:none;">centration of 10</text>
   <text y="339.96" x="388.68" svgx:width="0.5" style="fill:rgb(0,0,0);font-family:TimesNewRomanPSMT;font-size:7.98px;stroke:none;">6</text>
   <text y="344.46" x="392.7,395.7,399.0,403.686,409.704,415.722,419.736,425.082,429.768,433.122,442.364,449.714,452.714,456.014,460.094,469.337,474.683,480.029,484.715,490.733,494.747,500.093,506.111,509.111,512.411,518.429,524.447" svgx:width="0.25,0.55,0.39,0.5,0.5,0.33,0.44,0.39,0.28,0.78,0.61,0.25,0.55,0.33,0.78,0.44,0.44,0.39,0.5,0.33,0.44,0.5,0.25,0.55,0.5,0.5,0.25" style="fill:rgb(0,0,0);font-family:TimesNewRomanPSMT;font-size:12.0px;stroke:none;"> spores/mL (measured by </text>
   <text y="358.26" x="306.12,316.796,322.133,325.477,330.814,335.49,340.108,345.444,350.78,353.75,359.759,363.103,368.44,374.448,379.784,383.789,386.797,389.767" svgx:width="0.89,0.44,0.28,0.44,0.39,0.39,0.44,0.44,0.25,0.5,0.28,0.44,0.5,0.44,0.33,0.25,0.25,0.25" style="fill:rgb(0,0,0);font-family:TimesNewRomanPSMT;font-size:12.0px;stroke:none;">Malassez blade). </text>
   <text y="378.12" x="306.12,313.457,319.462,325.466,330.139,333.139,339.144,342.485,345.826,349.166,355.106,359.779,363.12,369.125,375.129,378.129,386.798,392.131,395.472,401.477,407.481,413.486,416.486" svgx:width="0.61,0.5,0.5,0.39,0.25,0.5,0.28,0.28,0.28,0.5,0.39,0.28,0.5,0.5,0.25,0.72,0.44,0.28,0.5,0.5,0.5,0.25,0.25" style="fill:rgb(0,0,0);font-family:TimesNewRomanPS-ItalicMT;font-size:12.0px;stroke:none;">Agar diffusion method </text>
   <text y="391.86" x="324.0,331.344,337.356,342.696,345.696,346.896,352.236,358.248,361.596,364.944,374.186,377.534,382.874,386.882,392.894,398.906,402.254,407.537,410.899,413.899,415.099,420.439,425.779,429.127,432.475,438.415,441.763,445.111,448.459,453.799,458.479,461.479,462.679,468.691,472.651,475.651,476.851,480.199,486.211,491.551,494.551,495.751,502.435,508.447,515.791,524.467" svgx:width="0.61,0.5,0.44,0.25,0.55,0.44,0.5,0.28,0.28,0.78,0.28,0.44,0.33,0.5,0.5,0.28,0.44,0.28,0.25,0.55,0.44,0.44,0.28,0.28,0.5,0.28,0.28,0.28,0.44,0.39,0.25,0.55,0.5,0.33,0.25,0.55,0.28,0.5,0.44,0.25,0.55,0.56,0.5,0.61,0.72,0.25" style="fill:rgb(0,0,0);font-family:TimesNewRomanPSMT;font-size:12.0px;stroke:none;">The antimicrobial activities of the SoEO </text>
   <text y="405.66" x="306.12,314.792,320.129,324.133,329.47,332.47,337.21,342.546,347.222,351.84,357.182,361.859,366.476,371.813,377.821" svgx:width="0.72,0.44,0.33,0.44,0.25,0.55,0.44,0.39,0.39,0.44,0.39,0.39,0.44,0.5,0.25" style="fill:rgb(0,0,0);font-family:TimesNewRomanPSMT;font-size:12.0px;stroke:none;">were assessed </text>
   <text y="405.66" x="385.56,388.908,394.848,397.848,402.588,407.928,411.276,414.624,419.304" svgx:width="0.28,0.5,0.25,0.55,0.44,0.28,0.28,0.39,0.5" style="fill:rgb(0,0,0);font-family:TimesNewRomanPS-ItalicMT;font-size:12.0px;stroke:none;">in vitro</text>
   <text y="405.66" x="425.22,428.22,432.94,438.942,444.944,447.944,452.664,461.33,466.661,469.999,473.338,476.338,481.057,487.06,490.398,494.397,498.395,504.397,509.068,512.406,518.409,524.411" svgx:width="0.25,0.55,0.5,0.5,0.25,0.55,0.72,0.44,0.28,0.28,0.25,0.55,0.5,0.28,0.33,0.33,0.5,0.39,0.28,0.5,0.5,0.25" style="fill:rgb(0,0,0);font-family:TimesNewRomanPSMT;font-size:12.0px;stroke:none;"> by well diffusion </text>
   <text y="419.46" x="306.12,315.362,320.705,324.041,330.041,336.041,342.041,344.921,348.917,357.581,363.581,369.581,374.909,380.909,383.789,389.117,392.453,395.333,400.661,403.997,406.997,409.997,412.877,418.877,424.8,430.792,436.783,440.771,443.762,446.663,455.318,458.646,461.974,467.965,470.866,475.525,481.517,490.759,496.102,499.002,508.244,514.236,520.228" svgx:width="0.78,0.44,0.28,0.5,0.5,0.5,0.25,0.33,0.72,0.5,0.5,0.44,0.5,0.25,0.44,0.28,0.25,0.44,0.28,0.25,0.25,0.25,0.5,0.5,0.5,0.5,0.33,0.25,0.25,0.72,0.28,0.28,0.5,0.25,0.39,0.5,0.78,0.44,0.25,0.78,0.5,0.5,0.33" style="fill:rgb(0,0,0);font-family:TimesNewRomanPSMT;font-size:12.0px;stroke:none;">method (Güven et al., 2006), with some mod-</text>
   <text y="433.26" x="306.12,309.461,313.462,316.802,322.135,327.468,330.809,334.15,340.154,346.159,350.832,353.837,356.837,358.157,365.419,371.419,376.752,379.752,381.072,387.749,393.753,401.09,409.759,412.759,414.079,422.748,428.04,432.72,435.72,437.04,443.052,446.4,451.08,455.76,461.7,465.048,471.06,476.4,482.34,485.34,486.66,490.008,496.02,499.02,500.34,505.68,509.028,515.04,520.38" svgx:width="0.28,0.33,0.28,0.44,0.44,0.28,0.28,0.5,0.5,0.39,0.25,0.25,0.55,0.61,0.5,0.44,0.25,0.55,0.56,0.5,0.61,0.72,0.25,0.55,0.72,0.44,0.39,0.25,0.55,0.5,0.28,0.39,0.39,0.5,0.28,0.5,0.44,0.5,0.25,0.55,0.28,0.5,0.25,0.55,0.44,0.28,0.5,0.44,0.33" style="fill:rgb(0,0,0);font-family:TimesNewRomanPSMT;font-size:12.0px;stroke:none;">ifications. The SoEO was dissolved in etha-</text>
   <text y="447.06" x="306.12,312.13,318.139,321.485,324.83,333.504,338.842,342.187,347.47,351.49,354.49,357.769,361.729,367.729,371.075,377.084,381.09,384.09,387.37,390.715,396.725,399.725,403.005,408.287,411.287,414.566,418.526,421.829,427.839,433.176,436.522,439.522,442.801,448.139,454.148,460.089,465.426,470.764,476.773,480.119,484.125,489.462,492.808,496.153,502.163,508.173,511.173,514.452,520.462,524.467" svgx:width="0.5,0.5,0.28,0.28,0.72,0.44,0.28,0.44,0.33,0.25,0.55,0.33,0.5,0.28,0.5,0.33,0.25,0.55,0.28,0.5,0.25,0.55,0.44,0.25,0.55,0.33,0.28,0.5,0.44,0.28,0.25,0.55,0.44,0.5,0.5,0.44,0.44,0.5,0.28,0.33,0.44,0.28,0.28,0.5,0.5,0.25,0.55,0.5,0.33,0.25" style="fill:rgb(0,0,0);font-family:TimesNewRomanPSMT;font-size:12.0px;stroke:none;">nol/water (v/v) to a final concentration of </text>
   <text y="460.86" x="306.12,312.121,318.122,321.182,330.425,336.425,339.847,349.09,356.423,360.312,365.641,371.642,377.644,381.533,384.87,390.871,396.2,402.201,406.091,410.088,413.425,416.762,420.099,425.429,429.426,434.755,440.756,444.645,447.983,453.984,457.981,463.982,469.983,475.985,481.986,485.875,491.204,495.093,499.762,503.1,508.429,512.426,515.763,519.101,524.43" svgx:width="0.5,0.5,0.25,0.78,0.5,0.28,0.78,0.61,0.25,0.44,0.5,0.5,0.25,0.28,0.5,0.44,0.5,0.25,0.33,0.28,0.28,0.28,0.44,0.33,0.44,0.5,0.25,0.28,0.5,0.33,0.5,0.5,0.5,0.5,0.25,0.44,0.25,0.39,0.28,0.44,0.33,0.28,0.28,0.44,0.25" style="fill:rgb(0,0,0);font-family:TimesNewRomanPSMT;font-size:12.0px;stroke:none;">10 mg/mL and then filtered through a sterile </text>
   <text y="474.66" x="306.12,316.798,320.143,323.489,326.834,330.18,336.19,342.199,346.205,351.542,353.882,363.228,368.566,377.808,383.808,387.814,393.151,399.161,404.498,406.838,410.844,414.19,417.535,420.881,426.218,430.224,432.564,436.57,442.579,445.925,451.262,460.505,465.846,469.192,474.529,478.535,480.875,486.884,489.894,495.904,501.913,504.253,511.175,520.417,524.497" svgx:width="0.89,0.28,0.28,0.28,0.28,0.5,0.5,0.33,0.44,0.25,0.78,0.44,0.78,0.5,0.33,0.44,0.5,0.44,0.25,0.33,0.28,0.28,0.28,0.44,0.33,0.25,0.33,0.5,0.28,0.44,0.78,0.44,0.28,0.44,0.33,0.25,0.5,0.25,0.5,0.5,0.25,0.58,0.78,0.33,0.25" style="fill:rgb(0,0,0);font-family:TimesNewRomanPSMT;font-size:12.0px;stroke:none;">Millipore membrane filter (diameter 0.45 µm) </text>
   <text y="488.46" x="306.12,311.446,317.443,323.441,326.561,332.558,337.224,342.55,348.547,351.667,355.661,361.658,365.652,368.772,374.097,379.423,382.757,386.09,392.088,395.421,398.755,404.753,407.873,413.198,417.864,422.529,427.855,433.853,436.85,439.97,445.968,451.965,457.963,461.1,467.52,474.856,477.976,483.979,487.979,491.099,494.438,500.442,506.446,509.785,515.117,520.448" svgx:width="0.44,0.5,0.5,0.25,0.5,0.39,0.44,0.5,0.25,0.33,0.5,0.33,0.25,0.44,0.44,0.28,0.28,0.5,0.28,0.28,0.5,0.25,0.44,0.39,0.39,0.44,0.5,0.25,0.25,0.5,0.5,0.5,0.25,0.54,0.61,0.25,0.5,0.33,0.25,0.28,0.5,0.5,0.28,0.44,0.44,0.33" style="fill:rgb(0,0,0);font-family:TimesNewRomanPSMT;font-size:12.0px;stroke:none;">and used for activity assay. 100 μL of indica-</text>
   <text y="502.26" x="306.12,309.462,315.468,319.47,323.37,328.044,331.386,335.388,340.722,344.064,350.07,353.07,353.97,357.972,363.306,369.312,375.318,379.32,385.326,391.332,394.674,403.917,409.259,412.601,417.935,421.277,427.283,431.183,437.189" svgx:width="0.28,0.5,0.33,0.25,0.39,0.28,0.33,0.44,0.28,0.5,0.25,0.55,0.33,0.44,0.5,0.5,0.33,0.5,0.5,0.28,0.78,0.44,0.28,0.44,0.28,0.5,0.25,0.5,0.5" style="fill:rgb(0,0,0);font-family:TimesNewRomanPSMT;font-size:12.0px;stroke:none;">tor strain (approximately 10</text>
   <text y="497.76" x="443.16,447.18" svgx:width="0.5,0.25" style="fill:rgb(0,0,0);font-family:TimesNewRomanPSMT;font-size:7.98px;stroke:none;">6 </text>
   <text y="502.26" x="449.76,457.763,464.48,473.143,476.478,485.813,493.144,497.138,500.138,501.038,509.701,515.028,519.023,524.425" svgx:width="0.67,0.56,0.72,0.28,0.78,0.61,0.33,0.25,0.55,0.72,0.44,0.33,0.44,0.25" style="fill:rgb(0,0,0);font-family:TimesNewRomanPSMT;font-size:12.0px;stroke:none;">CFU/mL) were </text>
   <text y="516.06" x="306.12,312.124,315.463,320.135,326.138,329.478,334.81,340.813,346.145,352.148,355.148,357.557,363.56,369.564,372.564,374.972,380.976,384.316,389.647,392.987,398.318,401.318,403.727,407.726,411.066,414.406,417.745,423.077,429.08,432.08,434.489,443.156,446.496,449.836,455.839,458.839,461.248,468.583,476.591,479.591,481.999,488.003,492.002,495.002,497.411,504.086,512.754,521.422,524.425" svgx:width="0.5,0.28,0.39,0.5,0.28,0.44,0.5,0.44,0.5,0.25,0.55,0.5,0.5,0.25,0.55,0.5,0.28,0.44,0.28,0.44,0.25,0.55,0.33,0.28,0.28,0.28,0.44,0.5,0.25,0.55,0.72,0.28,0.28,0.5,0.25,0.55,0.61,0.67,0.25,0.55,0.5,0.33,0.25,0.55,0.56,0.72,0.72,0.25,0.25" style="fill:rgb(0,0,0);font-family:TimesNewRomanPSMT;font-size:12.0px;stroke:none;">displayed on plate filled with LB or PDA. </text>
   <text y="529.86" x="306.12,317.402,322.745,326.093,329.441,334.121,337.121,338.543,342.551,348.563,354.575,357.575,358.997,368.345,377.693,380.693,382.115,388.127,391.475,396.815,406.057,411.397,414.745,420.085,424.093,428.101,431.101,432.523,441.199,446.539,450.547,455.829,458.829,460.251,466.263,470.223,473.571,476.919,480.267,485.607,491.619,494.619,496.041,499.389,505.401,508.401,509.823,513.171,519.183,524.466" svgx:width="0.94,0.44,0.28,0.28,0.39,0.25,0.55,0.33,0.5,0.5,0.25,0.55,0.78,0.78,0.25,0.55,0.5,0.28,0.44,0.78,0.44,0.28,0.44,0.33,0.33,0.25,0.55,0.72,0.44,0.33,0.44,0.25,0.55,0.5,0.33,0.28,0.28,0.28,0.44,0.5,0.25,0.55,0.28,0.5,0.25,0.55,0.28,0.5,0.44,0.25" style="fill:rgb(0,0,0);font-family:TimesNewRomanPSMT;font-size:12.0px;stroke:none;">Wells (06 mm diameter) were drilled in the </text>
   <text y="543.66" x="306.12,311.455,317.462,322.798,326.801,329.801,330.811,336.818,340.162,345.497,348.84,354.175,358.85,361.85,362.861,371.532,374.875,378.218,384.226,387.226,388.236,393.571,396.571,397.582,402.257,405.6,410.935,414.938,418.282,421.625,426.96,429.96,430.97,437.65,442.985,447.66,451.003,456.339,462.346,466.349,469.349,470.359,476.367,479.71,485.717,491.052,494.395,497.739,503.074,506.074,507.084,512.419,518.427,524.434" svgx:width="0.44,0.5,0.44,0.33,0.25,0.55,0.5,0.28,0.44,0.28,0.44,0.39,0.25,0.55,0.72,0.28,0.28,0.5,0.25,0.55,0.44,0.25,0.55,0.39,0.28,0.44,0.33,0.28,0.28,0.44,0.25,0.55,0.56,0.44,0.39,0.28,0.44,0.5,0.33,0.25,0.55,0.5,0.28,0.5,0.44,0.28,0.28,0.44,0.25,0.55,0.44,0.5,0.5,0.25" style="fill:rgb(0,0,0);font-family:TimesNewRomanPSMT;font-size:12.0px;stroke:none;">agar plates with a sterile Pasteur pipette and </text>
  </g>
  <g begin="text">
   <text y="557.46" x="306.12,309.444,315.432,320.748,326.736,329.904,335.892,341.88,345.048,351.948,359.268,362.436,368.424,372.408,375.576,382.236,388.224,395.544,404.196,407.364,416.016,421.44,425.441,430.774,433.954,439.286,445.291,451.231,456.574,462.578,465.758,469.099,475.039,478.219,481.56,487.565,492.898,496.078,504.746,510.079,513.42,516.761,521.434,524.438" svgx:width="0.28,0.5,0.44,0.5,0.25,0.5,0.5,0.25,0.58,0.61,0.25,0.5,0.33,0.25,0.56,0.5,0.61,0.72,0.25,0.72,0.44,0.33,0.44,0.25,0.44,0.5,0.5,0.44,0.5,0.25,0.28,0.5,0.25,0.28,0.5,0.44,0.25,0.72,0.44,0.28,0.28,0.39,0.25,0.25" style="fill:rgb(0,0,0);font-family:TimesNewRomanPSMT;font-size:12.0px;stroke:none;">then 50 µL of SoEO were added to the wells. </text>
   <text y="571.26" x="306.12,313.458,319.464,324.798,327.618,333.624,336.966,342.3,345.642,350.976,355.65,358.47,367.14,372.474,376.476,381.81,384.63,387.972,393.912,399.246,405.252,411.258,416.592,419.934,425.268,431.274,434.094,439.428,442.77,445.59,448.932,454.872,460.206,463.026,469.032,475.038,478.38,481.722,490.965,496.299,499.641,502.461,505.803,511.137,520.379" svgx:width="0.61,0.5,0.44,0.25,0.5,0.28,0.44,0.28,0.44,0.39,0.25,0.72,0.44,0.33,0.44,0.25,0.28,0.5,0.44,0.5,0.5,0.44,0.28,0.44,0.5,0.25,0.44,0.28,0.25,0.28,0.5,0.44,0.25,0.5,0.5,0.28,0.28,0.78,0.44,0.28,0.25,0.28,0.44,0.78,0.33" style="fill:rgb(0,0,0);font-family:TimesNewRomanPSMT;font-size:12.0px;stroke:none;">The plates were incubated at the optimal tem-</text>
   <text y="585.06" x="306.12,312.119,317.446,321.44,326.767,330.102,336.101,340.096,345.422,348.362,354.361,358.356,361.296,364.631,370.63,375.957,378.897,382.231,388.23,394.229,397.564,402.891,408.217,411.552,417.6,421.601,424.522,430.526,434.527,440.532,445.865,451.87,455.21,459.883,469.126,472.046,477.379,483.384,489.389,492.31,495.65,501.655,507.66,511.001,517.005,520.346" svgx:width="0.5,0.44,0.33,0.44,0.28,0.5,0.33,0.44,0.25,0.5,0.33,0.25,0.28,0.5,0.44,0.25,0.28,0.5,0.5,0.28,0.44,0.44,0.28,0.5,0.33,0.25,0.5,0.33,0.5,0.44,0.5,0.28,0.39,0.78,0.25,0.44,0.5,0.5,0.25,0.28,0.5,0.5,0.28,0.5,0.28,0.33" style="fill:rgb(0,0,0);font-family:TimesNewRomanPSMT;font-size:12.0px;stroke:none;">perature of the indicator organism and inhibi-</text>
   <text y="598.86" x="306.12,309.464,312.809,318.817,324.826,327.826,328.786,334.122,340.13,346.07,351.413,354.413,355.373,361.381,364.726,370.062,379.304,384.641,387.985,393.322,397.326,402.002,405.002,405.962,414.635,419.971,423.975,429.312,432.312,433.272,442.514,447.855,453.192,457.868,463.877,467.881,473.217,479.226,482.226,483.186,488.522,492.527,495.871,501.207,505.212,508.212,509.172,514.508,520.448" svgx:width="0.28,0.28,0.5,0.5,0.25,0.55,0.44,0.5,0.5,0.44,0.25,0.55,0.5,0.28,0.44,0.78,0.44,0.28,0.44,0.33,0.39,0.25,0.55,0.72,0.44,0.33,0.44,0.25,0.55,0.78,0.44,0.44,0.39,0.5,0.33,0.44,0.5,0.25,0.55,0.44,0.33,0.28,0.44,0.33,0.25,0.55,0.44,0.5,0.33" style="fill:rgb(0,0,0);font-family:TimesNewRomanPSMT;font-size:12.0px;stroke:none;">tion zone diameters were measured after ap-</text>
   <text y="612.66" x="306.12,312.128,316.133,322.141,328.15,332.154,335.498,340.835,344.179,349.516,352.516,353.632,356.976,360.32,369.563,374.905,377.905,379.021,384.358,389.034,392.034,393.15,399.158,404.495,409.171,414.507,418.512,421.856,427.865,433.201,439.209,442.209,443.325,448.662,454.67,460.679,466.687,472.023,475.032,478.032,479.148,487.82,493.157,499.165,502.509,507.846,517.088,520.433" svgx:width="0.5,0.33,0.5,0.5,0.33,0.28,0.44,0.28,0.44,0.25,0.55,0.28,0.28,0.78,0.44,0.25,0.55,0.44,0.39,0.25,0.55,0.5,0.44,0.39,0.44,0.33,0.28,0.5,0.44,0.5,0.25,0.55,0.44,0.5,0.5,0.5,0.44,0.25,0.25,0.55,0.72,0.44,0.5,0.28,0.44,0.78,0.28,0.33" style="fill:rgb(0,0,0);font-family:TimesNewRomanPSMT;font-size:12.0px;stroke:none;">propriate time as described above. Gentami-</text>
   <text y="626.46" x="306.12,311.459,314.806,320.816,324.236,328.243,334.254,340.194,343.62,350.04,356.048,359.393,368.065,373.402,376.746,380.09,384.767,388.727,392.136,400.808,406.145,410.821,414.23,420.17,424.848,430.184,436.193,439.602,444.938,449.615,453.024,458.36,461.77,467.778,473.786,478.404,481.748,485.093,488.437,494.377,499.713,503.123,508.459,514.467,520.407" svgx:width="0.44,0.28,0.5,0.25,0.33,0.5,0.5,0.25,0.54,0.5,0.28,0.72,0.44,0.28,0.28,0.39,0.33,0.25,0.72,0.44,0.39,0.25,0.5,0.39,0.44,0.5,0.25,0.44,0.39,0.25,0.44,0.25,0.5,0.5,0.39,0.28,0.28,0.28,0.5,0.44,0.25,0.44,0.5,0.5,0.33" style="fill:rgb(0,0,0);font-family:TimesNewRomanPSMT;font-size:12.0px;stroke:none;">cin (10 μg/wells) was used as a positive con-</text>
   <text y="640.26" x="306.12,309.472,313.483,319.499,322.85,326.558,329.91,335.926,339.634,344.977,350.993,354.344,357.696,363.636,368.98,374.323,377.675,382.957,386.977,390.329,395.611,398.963,402.671,406.022,411.366,415.984,419.346,423.964,426.964,430.672,439.351,445.367,448.718,452.07,457.413,461.121,466.465,475.707,481.723,487.739,493.754,497.106,502.449,506.409,509.761,515.105,518.456,524.472" svgx:width="0.28,0.33,0.5,0.28,0.25,0.28,0.5,0.25,0.44,0.5,0.28,0.28,0.5,0.44,0.44,0.28,0.44,0.33,0.28,0.44,0.28,0.25,0.28,0.44,0.39,0.28,0.39,0.25,0.25,0.72,0.5,0.28,0.28,0.44,0.25,0.44,0.78,0.5,0.5,0.5,0.28,0.44,0.33,0.28,0.44,0.28,0.5,0.25" style="fill:rgb(0,0,0);font-family:TimesNewRomanPSMT;font-size:12.0px;stroke:none;">trol in antibacterial tests, while amphotericin </text>
   <text y="654.06" x="306.12,314.12,316.76,320.753,326.749,332.746,335.4,341.82,347.824,351.163,359.831,365.162,368.502,371.842,376.513,380.513,383.153,391.82,397.152,401.824,404.464,410.467,415.139,420.47,426.474,429.114,434.446,439.117,441.757,447.089,449.729,455.733,461.736,466.408,469.747,473.087,476.427,482.43,487.762,490.402,495.733,501.737,507.741,511.08,515.08,521.083,524.423" svgx:width="0.67,0.25,0.33,0.5,0.5,0.25,0.54,0.5,0.28,0.72,0.44,0.28,0.28,0.39,0.33,0.25,0.72,0.44,0.39,0.25,0.5,0.39,0.44,0.5,0.25,0.44,0.39,0.25,0.44,0.25,0.5,0.5,0.39,0.28,0.28,0.28,0.5,0.44,0.25,0.44,0.5,0.5,0.28,0.33,0.5,0.28,0.25" style="fill:rgb(0,0,0);font-family:TimesNewRomanPSMT;font-size:12.0px;stroke:none;">B (20 μg/wells) was used as a positive control </text>
   <text y="667.86" x="306.12,309.451,315.446,318.446,320.006,325.33,331.325,334.656,337.987,341.978,347.974,353.969,359.964,365.287,368.618,371.618,373.178,378.502,383.825,387.156,390.487,396.483,399.814,403.145,409.14,412.135,415.135,416.7,425.365,430.694,436.696,442.025,445.362,448.699,454.7,460.03,463.03,464.56,469.889,475.89,481.891,485.228,489.225,495.227,498.564,501.564,503.094,508.423,514.424,520.425" svgx:width="0.28,0.5,0.25,0.55,0.44,0.5,0.28,0.28,0.33,0.5,0.5,0.5,0.44,0.28,0.25,0.55,0.44,0.44,0.28,0.28,0.5,0.28,0.28,0.5,0.25,0.25,0.55,0.72,0.44,0.5,0.44,0.28,0.28,0.5,0.44,0.25,0.55,0.44,0.5,0.5,0.28,0.33,0.5,0.28,0.25,0.55,0.44,0.5,0.5,0.33" style="fill:rgb(0,0,0);font-family:TimesNewRomanPSMT;font-size:12.0px;stroke:none;">in antifungal activity. Negative control con-</text>
   <text y="681.66" x="306.12,310.789,314.126,318.796,322.133,327.462,333.463,336.463,337.715,343.716,347.713,350.713,351.965,357.966,363.967,366.967,376.964,379.964,381.216,386.545,389.882,395.883,401.213,407.214,413.215,416.552,419.552,420.804,429.469,435.47,438.807,444.137,450.138,453.138,454.389,457.727,462.396,465.396,466.647,472.648,477.318,482.647,488.648,491.648,492.9,496.237,502.238,505.238,506.49,512.491,515.828,520.497" svgx:width="0.39,0.28,0.39,0.28,0.44,0.5,0.25,0.55,0.5,0.33,0.25,0.55,0.5,0.5,0.25,0.83,0.25,0.55,0.44,0.28,0.5,0.44,0.5,0.5,0.28,0.25,0.55,0.72,0.5,0.28,0.44,0.5,0.25,0.55,0.28,0.39,0.25,0.55,0.5,0.39,0.44,0.5,0.25,0.55,0.28,0.5,0.25,0.55,0.5,0.28,0.39,0.33" style="fill:rgb(0,0,0);font-family:TimesNewRomanPSMT;font-size:12.0px;stroke:none;">sisted of 50 % ethanol which is used to dis-</text>
   <text y="695.46" x="306.12,310.792,316.795,320.135,326.138,331.47,335.25,338.59,344.593,349.925,353.705,360.38,366.384,373.72,382.387,385.391,389.171,396.506,402.51,407.842,411.622,416.953,422.957,428.96,434.292,438.292,441.631,450.874,456.216,462.22,465.559,470.231,474.011,482.678,488.01,492.01,497.341,501.121,507.125,513.128,519.132,524.464" svgx:width="0.39,0.5,0.28,0.5,0.44,0.25,0.28,0.5,0.44,0.25,0.56,0.5,0.61,0.72,0.25,0.25,0.61,0.5,0.44,0.25,0.44,0.5,0.5,0.44,0.33,0.28,0.78,0.44,0.5,0.28,0.39,0.25,0.72,0.44,0.33,0.44,0.25,0.5,0.5,0.5,0.44,0.25" style="fill:rgb(0,0,0);font-family:TimesNewRomanPSMT;font-size:12.0px;stroke:none;">solve the SoEO. The experiments were done </text>
   <text y="709.26" x="306.12,309.463,315.47,318.446,321.79,325.793,329.136,335.143,338.486,341.83,347.165,352.5,355.843,361.178,364.154,369.49,375.497,381.504,384.48,388.483,393.818,399.826,405.161,410.442,413.805,419.14,425.08,428.056,431.399,440.07,443.413,448.749,454.084,457.091,460.067" svgx:width="0.28,0.5,0.25,0.28,0.33,0.28,0.5,0.28,0.28,0.44,0.44,0.28,0.44,0.25,0.44,0.5,0.5,0.25,0.33,0.44,0.5,0.44,0.44,0.28,0.44,0.5,0.25,0.28,0.72,0.28,0.44,0.44,0.25,0.25,0.25" style="fill:rgb(0,0,0);font-family:TimesNewRomanPSMT;font-size:12.0px;stroke:none;">in triplicate and repeated twice. </text>
  </g>
 </g>
</svg>
