<?xml version="1.0" encoding="UTF-8"?>
<svg height="798.04" width="4064.06" xmlns="http://www.w3.org/2000/svg">
 <g id="page" xmlns:svgx="http://www.xml-cml.org/schema/svgx">
  <g begin="text">
   <text y="788.04" x="23.58,29.58" svgx:width="0.5,0.5" style="fill:rgb(0,0,0);font-family:TimesNewRomanPSMT;font-size:12.0px;stroke:none;">26</text>
   <text y="788.04" x="35.58" svgx:width="0.25" style="fill:rgb(255,255,255);font-family:TimesNewRomanPSMT;font-size:12.0px;stroke:none;"> </text>
   <text y="64.68" x="93.78,100.893,102.811,106.431,109.431,114.033,120.596,125.585,130.142,134.482,137.959,143.893,146.587,149.348,151.266,153.959,157.04,161.381,166.387,168.667,175.114,179.401,184.407,187.407,192.009,195.485,201.608,203.526,206.22,209.3,211.218,213.257,215.239,220.228,223.309,225.227,229.905,234.586,236.866,241.467,244.116,246.396,251.24,253.934,256.628,260.968,265.678,268.759,270.677,275.715,277.753,279.974,286.501,288.419,290.458,292.68,295.327,298.325,302.925,310.477,312.756,318.103,322.703,325.395,329.656,337.208,342.194,345.192,349.477,351.278,353.558,358.896,363.496,371.048,376.124,381.111,384.109,386.027,388.729,393.329,398.037,400.316,406.878,408.796,411.875,416.556,418.836,423.454,426.452,431.438,436.443,438.424,441.546,443.464,448.082,452.79,457.777,459.815,462.094,468.215,470.133,472.825,475.904,477.822,479.86,481.899,486.877,489.956,491.873,496.473" svgx:width="0.79,0.22,0.4,0.33,0.51,0.73,0.55,0.51,0.48,0.39,0.66,0.3,0.3,0.22,0.3,0.34,0.48,0.56,0.25,0.72,0.48,0.56,0.33,0.51,0.39,0.68,0.22,0.3,0.34,0.22,0.22,0.22,0.55,0.34,0.22,0.51,0.52,0.25,0.51,0.29,0.25,0.54,0.3,0.3,0.48,0.52,0.34,0.22,0.55,0.22,0.25,0.73,0.22,0.22,0.25,0.29,0.33,0.51,0.84,0.25,0.59,0.51,0.3,0.48,0.84,0.55,0.33,0.48,0.2,0.25,0.59,0.51,0.84,0.56,0.55,0.33,0.22,0.3,0.51,0.52,0.25,0.73,0.22,0.34,0.52,0.25,0.51,0.33,0.55,0.56,0.22,0.34,0.22,0.51,0.52,0.55,0.22,0.25,0.68,0.22,0.3,0.34,0.22,0.22,0.22,0.55,0.34,0.22,0.51,0.52" style="fill:rgb(0,0,0);font-family:BerlinSansFB-Reg;font-size:9.0px;stroke:none;">Microwave-Assisted Hydro-Distillation of Essential Oil from Rosemary: Comparison with Traditional Distillation</text>
   <text y="64.68" x="501.18" svgx:width="0.25" style="fill:rgb(0,0,0);font-family:TimesNewRomanPSMT;font-size:12.0px;stroke:none;"> </text>
   <text y="783.36" transform="matrix(1.0,0.0,0.0,1.0,0.0,0.0)" rotateDegrees="0" matrix="[9.0,0.0,3.0781,9.0,153.12,58.6404]" x="153.12,159.058,163.619,165.537,169.138,173.519,178.199,182.879,187.857,190.137,192.536,197.154,202.156,205.155,209.896,214.874,216.887,219.107,223.739,226.38,228.6,235.744,240.064,245.043,246.961,250.613,255.59,257.604,259.883,265.416,267.334,271.966,275.028,279.349,282.949,287.629,292.309,296.927,298.941,303.573,308.253,312.513,314.374,316.654,322.233,326.851,328.864,330.785,333.065,335.527,340.925,342.786,345.066,351.561,356.193,358.115,360.394,362.916,364.777,367.057,369.457,374.434,379.115,384.098,389.076,392.075,396.335,399.813,406.956,411.934,414.934,418.534,423.214,425.494,429.892,435.299,437.821" svgx:width="0.66,0.51,0.22,0.4,0.48,0.52,0.52,0.55,0.25,0.27,0.51,0.55,0.33,0.52,0.55,0.22,0.25,0.51,0.29,0.25,0.79,0.48,0.56,0.22,0.4,0.55,0.22,0.25,0.61,0.22,0.51,0.34,0.48,0.4,0.52,0.52,0.51,0.22,0.51,0.52,0.48,0.22,0.25,0.62,0.51,0.22,0.22,0.25,0.28,0.6,0.22,0.25,0.72,0.51,0.22,0.25,0.28,0.22,0.25,0.27,0.55,0.52,0.55,0.55,0.33,0.48,0.39,0.79,0.55,0.33,0.4,0.52,0.25,0.49,0.6,0.28,0.46" style="fill:rgb(0,0,0);font-family:BerlinSansFB-Reg;font-size:9.0px;stroke:none;">Avicenna Journal of Medical Biotechnology, Vol. 10, No. 1, January-March 2018</text>
   <text y="783.36" x="441.9" svgx:width="0.25" style="fill:rgb(0,0,0);font-family:TimesNewRomanPSMT;font-size:12.0px;stroke:none;"> </text>
   <text y="786.6" x="29.58" svgx:width="0.25" style="fill:rgb(255,255,255);font-family:TimesNewRomanPSMT;font-size:12.0px;stroke:none;"> </text>
   <text y="787.74" x="20.1" svgx:width="0.25" style="fill:rgb(0,0,0);font-family:TimesNewRomanPSMT;font-size:12.0px;stroke:none;"> </text>
  </g>
  <g begin="text">
   <text y="787.74" x="19.86" svgx:width="0.25" style="fill:rgb(0,0,0);font-family:TimesNewRomanPSMT;font-size:12.0px;stroke:none;"> </text>
   <text y="784.56" x="25.32,29.701" svgx:width="0.49,0.51" style="fill:rgb(255,255,255);font-family:BerlinSansFB-Reg;font-size:9.0px;stroke:none;">26</text>
   <text y="784.56" x="34.32" svgx:width="0.25" style="fill:rgb(255,255,255);font-family:TimesNewRomanPSMT;font-size:12.0px;stroke:none;"> </text>
   <text y="565.8" x="56.7,61.136,64.459,68.895,73.935,76.708,81.144,83.649,86.184,90.62,95.66,100.096,105.136,110.176,114.618,118.502,121.00699999999999,123.603,126.375,131.415,133.92,136.515,139.288,144.328,148.764,151.269,153.804,158.24,162.124,166.009,170.445,175.485,178.258,181.03,185.466,188.239,190.744,193.339,198.379,201.151,203.924,206.429,209.024,213.46,218.5,226.181,231.221,236.261,240.16,242.933,245.705,248.478,253.518,258.558,261.078,263.58299999999997,266.178,270.614,273.387,276.159" svgx:width="0.44,0.33,0.44,0.5,0.28,0.44,0.25,0.55,0.44,0.5,0.44,0.5,0.5,0.44,0.39,0.25,0.55,0.28,0.5,0.25,0.55,0.28,0.5,0.44,0.25,0.55,0.44,0.39,0.39,0.44,0.5,0.28,0.28,0.44,0.28,0.25,0.55,0.5,0.28,0.28,0.25,0.55,0.44,0.5,0.78,0.5,0.5,0.39,0.28,0.28,0.28,0.5,0.5,0.25,0.25,0.55,0.44,0.28,0.28,0.33" style="fill:rgb(0,0,0);font-family:TimesNewRomanPSMT;font-size:10.02px;stroke:none;">erable changes in the essential oil composition, alt-</text>
   <text y="577.26" x="56.7,61.726,66.752,71.778,76.804,81.83,84.335,85.43,88.192,93.232,97.697,100.202,101.297,106.323,110.788,114.141,118.606,123.07,128.097,130.858,135.3,140.326,144.791,148.705,151.21,152.305,157.331,160.684,163.189,164.284,168.198,173.224,180.905,185.347,187.852,188.947,193.412,198.438,206.119,211.145,216.171,221.197,225.662,230.688,233.45,237.364,239.869,240.964,245.99,250.455,255.481,259.946,264.972,269.998,274.463,279.489" svgx:width="0.5,0.5,0.5,0.5,0.5,0.25,0.55,0.28,0.5,0.44,0.25,0.55,0.5,0.44,0.33,0.44,0.44,0.5,0.28,0.44,0.5,0.44,0.39,0.25,0.55,0.5,0.33,0.25,0.55,0.39,0.5,0.78,0.44,0.25,0.55,0.44,0.5,0.78,0.5,0.5,0.5,0.44,0.5,0.28,0.39,0.25,0.55,0.5,0.44,0.5,0.44,0.5,0.5,0.44,0.5,0.25" style="fill:rgb(0,0,0);font-family:TimesNewRomanPSMT;font-size:10.02px;stroke:none;">hough the percentages of some components depended </text>
   <text y="588.78" x="56.7,61.727,66.754,69.274,72.036,77.076,81.542,84.062,86.823,91.289,95.755,100.782,105.809,108.571,113.598,118.625,123.09,125.611,130.076,135.103,140.131,142.892,145.654,150.095,155.122,157.644,160.165" svgx:width="0.5,0.5,0.25,0.28,0.5,0.44,0.25,0.28,0.44,0.44,0.5,0.5,0.28,0.5,0.5,0.44,0.25,0.44,0.5,0.5,0.28,0.28,0.44,0.5,0.25,0.25,0.25" style="fill:rgb(0,0,0);font-family:TimesNewRomanPSMT;font-size:10.02px;stroke:none;">on the technique applied. </text>
   <text y="600.3" x="68.58,75.24,80.272,85.304,89.775,94.246,99.278,102.039,105.399,109.87,112.632,115.393,120.425,125.457,127.977,133.009,136.368,138.888,143.92,148.952,153.932,158.964,163.435,168.467,172.938,175.699,180.141,185.173,187.693,192.164,197.196,204.878,209.91,214.942,219.974,225.006,230.038,233.958,236.418,240.889,245.921,250.953,253.413,261.094,266.126,271.158,276.19" svgx:width="0.67,0.5,0.5,0.44,0.44,0.5,0.28,0.33,0.44,0.28,0.28,0.5,0.5,0.25,0.5,0.33,0.25,0.5,0.5,0.5,0.5,0.44,0.5,0.44,0.28,0.44,0.5,0.25,0.44,0.5,0.78,0.5,0.5,0.5,0.5,0.5,0.39,0.25,0.44,0.5,0.5,0.25,0.78,0.5,0.5,0.5,0.33" style="fill:rgb(0,0,0);font-family:TimesNewRomanPSMT;font-size:10.02px;stroke:none;">Concentration of oxygenated compounds and mono-</text>
   <text y="611.759" x="56.7,59.462,63.903,67.253,72.276,76.738,81.761,86.223,89.223,94.246,99.226,104.249,107.599,112.622,117.084,121.545,124.895,129.918,134.941,139.964,143.875,146.935,149.697,154.737,159.199,162.548,167.01,171.472,175.383,179.845,184.868,187.868,192.891,197.871,200.931,205.954,210.977,219.337,222.337,226.798,231.822,236.845,239.905,244.928,249.39,253.852,257.201,261.663,266.125,270.036,274.498,279.521" svgx:width="0.28,0.44,0.33,0.5,0.44,0.5,0.44,0.25,0.5,0.5,0.5,0.33,0.5,0.44,0.44,0.33,0.5,0.5,0.5,0.39,0.25,0.28,0.5,0.44,0.33,0.44,0.44,0.39,0.44,0.5,0.25,0.5,0.5,0.25,0.5,0.5,0.83,0.25,0.44,0.5,0.5,0.25,0.5,0.44,0.44,0.33,0.44,0.44,0.39,0.44,0.5,0.25" style="fill:rgb(0,0,0);font-family:TimesNewRomanPSMT;font-size:10.02px;stroke:none;">terpene hydrocarbons increased by 17% and decreased </text>
   <text y="623.279" x="56.7,61.725,66.705,69.21,71.145,76.17,81.195,83.715,88.74,97.102,99.607,101.602,108.851,111.613,114.374,119.414,121.919,123.854,126.616,131.656,136.12,138.625,140.62,143.381,148.421,152.885,156.237,160.701,165.165,169.077,171.839,176.864,181.889,184.394,186.389,191.414,194.766,197.271,199.205,204.23,209.255,217.617,220.12199999999999,222.117,227.142,230.494,232.999,234.994,242.675,245.437,249.901,253.252,258.277,265.527,269.991,275.016,279.48" svgx:width="0.5,0.5,0.25,0.55,0.5,0.5,0.25,0.5,0.83,0.25,0.55,0.72,0.28,0.28,0.5,0.25,0.55,0.28,0.5,0.44,0.25,0.55,0.28,0.5,0.44,0.33,0.44,0.44,0.39,0.28,0.5,0.5,0.25,0.55,0.5,0.33,0.25,0.55,0.5,0.5,0.83,0.25,0.55,0.5,0.33,0.25,0.55,0.78,0.28,0.44,0.33,0.5,0.72,0.44,0.5,0.44,0.25" style="fill:rgb(0,0,0);font-family:TimesNewRomanPSMT;font-size:10.02px;stroke:none;">by 17.7% with the increasing of 50% of microwave </text>
   <text y="634.799" x="56.7,61.725,66.75,74.0,78.463,81.815,84.995,89.459,94.484,102.166,107.206,111.67,115.021,117.783,122.808,127.833,131.013,133.775,138.815,141.995,149.245,156.494,159.675,167.356,171.798,174.559,179.584,184.609,189.634,192.154,195.335,201.995,206.437,210.35,213.111,218.136,222.6,226.513,229.033,232.213,234.975,240.015,244.479,247.659,252.123,257.148,262.173,266.637,271.101,276.126" svgx:width="0.5,0.5,0.72,0.44,0.33,0.25,0.44,0.5,0.78,0.5,0.44,0.33,0.28,0.5,0.5,0.25,0.28,0.5,0.25,0.72,0.72,0.25,0.78,0.44,0.28,0.5,0.5,0.5,0.25,0.25,0.67,0.44,0.39,0.28,0.5,0.44,0.39,0.25,0.25,0.28,0.5,0.44,0.25,0.44,0.5,0.5,0.44,0.44,0.5,0.33" style="fill:rgb(0,0,0);font-family:TimesNewRomanPSMT;font-size:10.02px;stroke:none;">power comparing to HD method. Besides, the concen-</text>
   <text y="646.259" x="56.7,59.462,62.821,67.284,70.046,72.807,77.831,82.855,86.767,89.27199999999999,91.387,96.411,99.762,102.267,104.382,107.144,112.184,116.647,120.558,125.021,127.526,129.642,134.104,139.129,146.81,151.834,156.858,161.882,166.906,171.93,175.842,178.347,180.522,185.546,190.009,194.472,197.823,202.286,206.749,210.66,215.123,220.147,222.652,224.767,229.792,234.771,237.27599999999998,239.392,244.416,246.935,251.959,260.319,262.824,265.0,269.463,274.487,279.511" svgx:width="0.28,0.33,0.44,0.28,0.28,0.5,0.5,0.39,0.25,0.55,0.5,0.33,0.25,0.55,0.28,0.5,0.44,0.39,0.44,0.25,0.55,0.44,0.5,0.78,0.5,0.5,0.5,0.5,0.5,0.39,0.25,0.55,0.5,0.44,0.44,0.33,0.44,0.44,0.39,0.44,0.5,0.25,0.55,0.5,0.5,0.25,0.55,0.5,0.25,0.5,0.83,0.25,0.55,0.44,0.5,0.5,0.25" style="fill:rgb(0,0,0);font-family:TimesNewRomanPSMT;font-size:10.02px;stroke:none;">trations of these compounds decreased by 5.8% and </text>
   <text y="657.779" x="56.7,59.493,64.51,68.965,72.309,76.765,81.221,85.126,89.582,94.599,97.104,98.799,103.816,108.796,111.301,113.055,118.073,120.585,125.602,133.955,136.46,138.156,140.948,145.965,148.47,150.226,153.018,158.035,162.491,164.996,166.692,171.709,175.052,179.508,183.413,187.869,192.886,197.342,201.798,204.303,206.058,211.075,214.419,216.924,218.619,222.524,226.98,229.772,232.565,235.07,236.825,239.618,244.635,247.14,248.895,257.773,265.015,272.256,279.498" svgx:width="0.28,0.5,0.44,0.33,0.44,0.44,0.39,0.44,0.5,0.25,0.55,0.5,0.5,0.25,0.55,0.5,0.25,0.5,0.83,0.25,0.55,0.28,0.5,0.25,0.55,0.28,0.5,0.44,0.25,0.55,0.5,0.33,0.44,0.39,0.44,0.5,0.44,0.44,0.25,0.55,0.5,0.33,0.25,0.55,0.39,0.44,0.28,0.28,0.25,0.55,0.28,0.5,0.25,0.55,0.89,0.72,0.72,0.72,0.25" style="fill:rgb(0,0,0);font-family:TimesNewRomanPSMT;font-size:10.02px;stroke:none;">increased by 8.3% in the presence of salt in MAHD </text>
   <text y="669.299" x="56.7,64.381,68.823,71.585,76.606,81.627,86.648,89.164,91.684,95.031,99.491,103.4,108.421,112.881,117.341,120.103,122.864,127.904,132.364,135.126,140.105,142.626" svgx:width="0.78,0.44,0.28,0.5,0.5,0.5,0.25,0.25,0.33,0.44,0.39,0.5,0.44,0.44,0.28,0.28,0.5,0.44,0.28,0.5,0.25,0.25" style="fill:rgb(0,0,0);font-family:TimesNewRomanPSMT;font-size:10.02px;stroke:none;">method, respectively. </text>
   <text y="680.759" x="68.58,75.271,79.728,84.185,88.642,93.66,97.566,102.022,104.663,109.681,113.025,115.666,120.123,123.467,128.485,136.167,140.623,143.137,145.837,149.182,151.975,156.432,161.45,166.468,169.813,172.453,176.91,181.928,186.946,189.586,192.38,197.398,201.855,205.199,209.656,214.674,219.131,224.149,226.943,229.736,234.193,236.894,241.912,245.256,250.274,255.292,259.749,263.094,265.888,268.681,273.138,277.044,279.557" svgx:width="0.67,0.44,0.44,0.44,0.5,0.39,0.44,0.25,0.5,0.33,0.25,0.44,0.33,0.5,0.78,0.44,0.25,0.25,0.33,0.28,0.44,0.5,0.5,0.33,0.25,0.44,0.5,0.5,0.25,0.28,0.5,0.44,0.33,0.44,0.5,0.44,0.5,0.28,0.28,0.44,0.25,0.5,0.33,0.5,0.5,0.44,0.33,0.28,0.28,0.44,0.39,0.25,0.25" style="fill:rgb(0,0,0);font-family:TimesNewRomanPSMT;font-size:10.02px;stroke:none;">Because of aroma, flavor and therapeutic properties, </text>
   <text y="692.279" x="56.7,61.724,66.748,71.728,76.752,81.215,86.239,90.702,93.463,97.905,102.929,105.434,106.709,111.172,116.196,123.877,128.901,133.925,138.949,143.973,148.997,152.909,155.414,156.749,161.212,165.674,170.699,173.204,174.538,179.562,184.025,186.53,187.865,192.889,196.801,201.264,206.288,208.793,210.127,214.59,218.502,221.007,222.342,230.023,234.486,238.949,242.861,247.885,251.235,255.698,263.379,267.842,272.866,275.628,279.527" svgx:width="0.5,0.5,0.5,0.5,0.44,0.5,0.44,0.28,0.44,0.5,0.25,0.55,0.44,0.5,0.78,0.5,0.5,0.5,0.5,0.5,0.39,0.25,0.55,0.44,0.44,0.5,0.25,0.55,0.5,0.44,0.25,0.55,0.5,0.39,0.44,0.5,0.25,0.55,0.44,0.39,0.25,0.55,0.78,0.44,0.44,0.39,0.5,0.33,0.44,0.78,0.44,0.5,0.28,0.39,0.25" style="fill:rgb(0,0,0);font-family:TimesNewRomanPSMT;font-size:10.02px;stroke:none;">oxygenated compounds can be used as measurements </text>
   <text y="703.739" x="56.7,61.714,65.055,68.115,72.568,76.469,80.371,84.824,89.838,92.628,95.417,99.87,102.66,105.78,110.794,113.584,116.373,119.493,124.507,129.521,133.974,136.764,139.553,142.343,147.357,149.866,152.926,161.838,166.852,171.866,176.88,179.669,184.122,187.463,192.477,196.93,201.944,206.397,209.517,214.531,219.545,224.559,227.9,232.914,237.367,241.819,245.16,250.174,255.188,260.202,264.104,267.224,271.677,275.018,279.471" svgx:width="0.5,0.33,0.25,0.44,0.39,0.39,0.44,0.5,0.28,0.28,0.44,0.28,0.25,0.5,0.28,0.28,0.25,0.5,0.5,0.44,0.28,0.28,0.28,0.5,0.25,0.25,0.89,0.5,0.5,0.5,0.28,0.44,0.33,0.5,0.44,0.5,0.44,0.25,0.5,0.5,0.5,0.33,0.5,0.44,0.44,0.33,0.5,0.5,0.5,0.39,0.25,0.44,0.33,0.44,0.25" style="fill:rgb(0,0,0);font-family:TimesNewRomanPSMT;font-size:10.02px;stroke:none;">of essential oil quality. Monoterpene hydrocarbons are </text>
   <text y="715.259" x="56.7,59.462,63.903,67.818,71.733,74.238,75.393,80.42,84.886,87.648,92.688,97.154,102.181,104.942,109.384,111.889,113.044,115.806,120.846,125.312,130.339,132.844,133.999,139.026,144.053,149.033,154.06,158.526,163.553,168.019,170.781,175.223,180.25,182.755,183.91,188.376,193.403,201.084,206.111,211.138,216.165,221.192,226.219,230.134,232.63899999999998,233.795,236.556,241.596,244.101,245.256,248.018,252.46,255.814,263.495,267.41,269.915,271.13,276.157,279.511" svgx:width="0.28,0.44,0.39,0.39,0.25,0.55,0.5,0.44,0.28,0.5,0.44,0.5,0.28,0.44,0.25,0.55,0.28,0.5,0.44,0.5,0.25,0.55,0.5,0.5,0.5,0.5,0.44,0.5,0.44,0.28,0.44,0.5,0.25,0.55,0.44,0.5,0.78,0.5,0.5,0.5,0.5,0.5,0.39,0.25,0.55,0.28,0.5,0.25,0.55,0.28,0.44,0.33,0.78,0.39,0.25,0.55,0.5,0.33,0.25" style="fill:rgb(0,0,0);font-family:TimesNewRomanPSMT;font-size:10.02px;stroke:none;">less valuable than oxygenated compounds in terms of </text>
   <text y="726.779" x="56.7,59.476,64.516,68.954,71.73,75.057,77.577,82.016,87.056,92.096,94.857,98.184,100.959,105.999,111.039,113.815,116.591,121.631,126.671,129.191,131.966,137.006,139.526,142.302,147.342,151.781,154.301,157.627,160.954,165.393,170.433,173.793,178.232,183.272,187.711,192.149,194.669,199.709,203.069,205.589,208.365,213.405,217.844,220.364,224.803,228.69,232.578,237.017,242.057,244.833,247.608,252.047,254.823,257.343,262.383,265.158,267.934" svgx:width="0.28,0.5,0.44,0.28,0.33,0.25,0.44,0.5,0.5,0.28,0.33,0.28,0.5,0.5,0.28,0.28,0.5,0.5,0.25,0.28,0.5,0.25,0.28,0.5,0.44,0.25,0.33,0.33,0.44,0.5,0.33,0.44,0.5,0.44,0.44,0.25,0.5,0.33,0.25,0.28,0.5,0.44,0.25,0.44,0.39,0.39,0.44,0.5,0.28,0.28,0.44,0.28,0.25,0.5,0.28,0.28,0.25" style="fill:rgb(0,0,0);font-family:TimesNewRomanPSMT;font-size:10.02px;stroke:none;">their contribution to the fragrance of the essential oil </text>
   <text y="722.28" x="270.48,273.72" svgx:width="0.5,0.5" style="fill:rgb(0,0,0);font-family:TimesNewRomanPSMT;font-size:6.48px;stroke:none;">31</text>
   <text y="726.78" x="276.96,279.48" svgx:width="0.25,0.25" style="fill:rgb(0,0,0);font-family:TimesNewRomanPSMT;font-size:10.02px;stroke:none;">. </text>
   <text y="738.24" x="56.7,62.291,67.322,69.847,72.35199999999999,74.527,77.288,82.328,86.797,89.30199999999999,91.538,96.568,99.329,104.359,109.389,113.858,117.215,119.72,121.895,126.364,134.046,139.076,144.106,149.136,151.897,154.402,156.638,161.668,165.025,167.53,169.705,174.735,179.765,184.745,189.775,194.244,199.274,203.743,206.504,210.946,215.976,218.481,220.717,225.186,230.216,237.897,242.927,247.957,252.987,258.017,263.047,266.965,269.46999999999997,271.706,274.467,279.507" svgx:width="0.56,0.5,0.25,0.25,0.55,0.28,0.5,0.44,0.25,0.55,0.5,0.28,0.5,0.5,0.44,0.33,0.25,0.55,0.44,0.78,0.5,0.5,0.5,0.28,0.25,0.55,0.5,0.33,0.25,0.55,0.5,0.5,0.5,0.5,0.44,0.5,0.44,0.28,0.44,0.5,0.25,0.55,0.44,0.5,0.78,0.5,0.5,0.5,0.5,0.5,0.39,0.25,0.55,0.28,0.5,0.25" style="fill:rgb(0,0,0);font-family:TimesNewRomanPSMT;font-size:10.02px;stroke:none;">So, the higher amount of oxygenated compounds in </text>
   <text y="749.76" x="56.7,65.616,72.859,80.101,87.343,89.864,92.657,97.675,102.693,105.487,109.944,114.4,117.194,121.651,125.557,128.077,130.87,135.888,140.345,142.865,147.883,150.677,155.695,160.713,165.17,168.515,171.035,176.053,181.071,185.46,188.241,191.021,193.802,198.807,201.327,206.332,209.664,212.184,216.628,220.52,224.413,228.857,233.862,236.643,239.423,243.867,246.647,249.168,254.173,256.953,259.734,262.234" svgx:width="0.89,0.72,0.72,0.72,0.25,0.28,0.5,0.5,0.28,0.44,0.44,0.28,0.44,0.39,0.25,0.28,0.5,0.44,0.25,0.5,0.28,0.5,0.5,0.44,0.33,0.25,0.5,0.5,0.44,0.28,0.28,0.28,0.5,0.25,0.5,0.33,0.25,0.44,0.39,0.39,0.44,0.5,0.28,0.28,0.44,0.28,0.25,0.5,0.28,0.28,0.25,0.25" style="fill:rgb(0,0,0);font-family:TimesNewRomanPSMT;font-size:10.02px;stroke:none;">MAHD indicates the higher quality of essential oil. </text>
   <text y="753.0" x="56.7" svgx:width="0.25" style="fill:rgb(0,0,0);font-family:TimesNewRomanPSMT;font-size:1.02px;stroke:none;"> </text>
   <text y="344.4" x="315.48,321.486,325.988,329.492,331.997,334.249,336.529,340.528,343.033,347.031,351.534,356.541,359.045,361.55,366.557,370.555,374.059,377.563,379.843,384.345,389.352,393.855,396.134,399.638,404.141,407.14,411.139,413.644,417.642,419.922,423.921,428.424,433.43,436.934,439.439,443.941,447.94,451.444,455.946,458.451,460.956,465.458,470.465" svgx:width="0.67,0.5,0.39,0.28,0.25,0.25,0.44,0.28,0.44,0.5,0.56,0.28,0.28,0.56,0.44,0.39,0.39,0.25,0.5,0.56,0.5,0.25,0.39,0.5,0.33,0.44,0.28,0.44,0.25,0.44,0.5,0.56,0.39,0.28,0.5,0.44,0.39,0.5,0.28,0.28,0.5,0.56,0.39" style="fill:rgb(0,0,0);font-family:TimesNewRomanPS-BoldItalicMT;font-size:9.0px;stroke:none;">Cost, cleanliness and safety considerations</text>
   <text y="344.4" x="473.94" svgx:width="0.25" style="fill:rgb(0,0,0);font-family:TimesNewRomanPS-BoldItalicMT;font-size:10.02px;stroke:none;"> </text>
   <text y="355.5" x="327.36,333.486,338.499,342.951,345.456,347.27,350.61,355.062,360.075,365.088,369.54,373.991,379.004,381.509,383.384,387.836,392.849,396.75,399.538,402.043,403.858,408.871,412.211,414.716,416.59,421.042,426.055,428.844,432.183,436.635,441.087,443.876,446.664,451.677,456.69,459.195,461.01,463.799,467.699,470.204,472.079,476.531,479.32,483.771,488.223,491.563,494.352,499.365,501.87,503.744,508.196,513.209,518.222,522.674,527.687,530.476,534.927" svgx:width="0.61,0.5,0.44,0.25,0.55,0.33,0.44,0.5,0.5,0.44,0.44,0.5,0.25,0.55,0.44,0.5,0.39,0.28,0.25,0.55,0.5,0.33,0.25,0.55,0.44,0.5,0.28,0.33,0.44,0.44,0.28,0.28,0.5,0.5,0.25,0.55,0.28,0.39,0.25,0.55,0.44,0.28,0.44,0.44,0.33,0.28,0.5,0.25,0.55,0.44,0.5,0.5,0.44,0.5,0.28,0.44,0.33" style="fill:rgb(0,0,0);font-family:TimesNewRomanPSMT;font-size:10.02px;stroke:none;">The reduced cost of extraction is clearly advanta-</text>
   <text y="367.02" x="315.481,320.507,324.972,329.998,335.024,338.938,341.443,342.237,345.59,350.616,353.969,356.474,357.268,364.949,367.711,372.176,375.529,380.555,387.805,392.27,397.296,401.761,404.266,405.061,412.742,417.184,419.945,424.971,429.997,435.023,437.528,438.323,441.084,446.125,448.63,449.424,452.186,456.628,459.98,467.662,471.575,474.08,474.875,479.901,483.254,485.759,486.553,489.315,492.076,499.758,504.223,506.728,507.522,511.987,517.013,522.039,524.544,525.399,529.864,534.89" svgx:width="0.5,0.44,0.5,0.5,0.39,0.25,0.55,0.33,0.5,0.33,0.25,0.55,0.78,0.28,0.44,0.33,0.5,0.72,0.44,0.5,0.44,0.25,0.55,0.78,0.44,0.28,0.5,0.5,0.5,0.25,0.55,0.28,0.5,0.25,0.55,0.28,0.44,0.33,0.78,0.39,0.25,0.55,0.5,0.33,0.25,0.55,0.28,0.28,0.78,0.44,0.25,0.55,0.44,0.5,0.5,0.25,0.55,0.44,0.5,0.33" style="fill:rgb(0,0,0);font-family:TimesNewRomanPSMT;font-size:10.02px;stroke:none;">geous for microwave method in terms of time and en-</text>
   <text y="378.54" x="315.481,319.934,323.274,328.288,333.302,335.811,338.316,339.771,345.897,350.911,355.364,357.86899999999997,359.324,362.114,364.903,372.585,377.038,379.543,380.997,386.011,390.464,394.917,399.931,404.384,409.398,411.903,413.358,416.699,421.713,425.053,427.558,429.013,431.803,436.861,441.312,443.817,445.272,449.723,454.735,462.416,467.456,470.244,474.695,477.482,481.933,484.438,485.893,490.344,495.356,498.143,501.482,505.933,510.384,513.171,515.959,520.971,525.983,528.4879999999999,529.943,534.955,538.294" svgx:width="0.44,0.33,0.5,0.5,0.25,0.25,0.55,0.61,0.5,0.44,0.25,0.55,0.28,0.28,0.78,0.44,0.25,0.55,0.5,0.44,0.44,0.5,0.44,0.5,0.25,0.55,0.33,0.5,0.33,0.25,0.55,0.28,0.5,0.44,0.25,0.55,0.44,0.5,0.78,0.5,0.28,0.44,0.28,0.44,0.25,0.55,0.44,0.5,0.28,0.33,0.44,0.44,0.28,0.28,0.5,0.5,0.25,0.55,0.5,0.33,0.25" style="fill:rgb(0,0,0);font-family:TimesNewRomanPSMT;font-size:10.02px;stroke:none;">ergy. The time needed for the complete extraction of </text>
   <text y="390.0" x="315.481,318.832,323.857,327.77,332.234,339.915,344.357,347.709,352.689,355.509,359.972,363.885,367.798,372.262,377.287,380.048,382.81,387.252,390.013,392.833,397.858,400.62,403.381,406.261,413.51,417.974,421.887,424.707,428.058,433.083,438.108,443.133,448.158,450.978,455.442,459.355,462.235,467.26,472.285" svgx:width="0.33,0.5,0.39,0.44,0.78,0.44,0.33,0.5,0.25,0.44,0.39,0.39,0.44,0.5,0.28,0.28,0.44,0.28,0.25,0.5,0.28,0.28,0.25,0.72,0.44,0.39,0.25,0.33,0.5,0.5,0.5,0.5,0.25,0.44,0.39,0.25,0.5,0.5,0.25" style="fill:rgb(0,0,0);font-family:TimesNewRomanPSMT;font-size:10.02px;stroke:none;">rosemary essential oil was found as 30 </text>
   <text y="390.0" x="475.08,482.315,485.1" svgx:width="0.72,0.28,0.5" style="fill:rgb(0,0,0);font-family:TimesNewRomanPS-ItalicMT;font-size:10.02px;stroke:none;">min</text>
   <text y="390.0" x="490.14,492.96,496.321,501.355,504.715,507.595,516.474,523.732,530.991,538.249" svgx:width="0.25,0.33,0.5,0.33,0.25,0.89,0.72,0.72,0.72,0.25" style="fill:rgb(0,0,0);font-family:TimesNewRomanPSMT;font-size:10.02px;stroke:none;"> for MAHD </text>
   <text y="401.52" x="315.481,319.954,324.988,330.022,332.527,333.741,338.775,343.809" svgx:width="0.44,0.5,0.5,0.25,0.55,0.5,0.5,0.25" style="fill:rgb(0,0,0);font-family:TimesNewRomanPSMT;font-size:10.02px;stroke:none;">and 90 </text>
   <text y="401.52" x="347.521,354.755,357.541" svgx:width="0.72,0.28,0.5" style="fill:rgb(0,0,0);font-family:TimesNewRomanPS-ItalicMT;font-size:10.02px;stroke:none;">min</text>
   <text y="401.52" x="362.581,365.086,366.301,369.645,374.662,378.006,380.51099999999997,381.726,388.967,396.209,398.721,401.226,402.5,408.63,413.647,418.103,420.608,421.823,426.279,431.296,434.089,437.432,441.888,446.344,449.137,451.929,456.946,461.963,464.468,465.684,468.476,471.269,478.95,483.406,485.911,487.126,494.368,498.824,502.729,505.234,506.508,509.852,514.308,519.325,524.342,528.798,533.254,538.271" svgx:width="0.25,0.55,0.33,0.5,0.33,0.25,0.55,0.72,0.72,0.25,0.25,0.55,0.61,0.5,0.44,0.25,0.55,0.44,0.5,0.28,0.33,0.44,0.44,0.28,0.28,0.5,0.5,0.25,0.55,0.28,0.28,0.78,0.44,0.25,0.55,0.72,0.44,0.39,0.25,0.55,0.33,0.44,0.5,0.5,0.44,0.44,0.5,0.25" style="fill:rgb(0,0,0);font-family:TimesNewRomanPSMT;font-size:10.02px;stroke:none;"> for HD. The extraction time was reduced </text>
   <text y="413.04" x="315.481,320.508,325.488,328.488,332.954,337.981,343.008,348.035,350.796,353.856,358.883,363.91,372.274,375.334,380.361,385.341,388.401,393.428,397.343,400.105,405.132,410.159,413.159,420.84,423.602,428.068,431.421,436.448,443.7,448.166,453.193,457.659,460.181,463.241,469.38,474.407,478.873,481.933,485.287,489.753,494.219,498.133,503.16,508.188,511.248,514.601,519.628,522.982,526.042,528.804,533.844,538.31" svgx:width="0.5,0.5,0.25,0.44,0.5,0.5,0.5,0.28,0.25,0.5,0.5,0.83,0.25,0.5,0.5,0.25,0.5,0.39,0.28,0.5,0.5,0.25,0.78,0.28,0.44,0.33,0.5,0.72,0.44,0.5,0.44,0.25,0.25,0.61,0.5,0.44,0.25,0.33,0.44,0.44,0.39,0.5,0.5,0.25,0.33,0.5,0.33,0.25,0.28,0.5,0.44,0.25" style="fill:rgb(0,0,0);font-family:TimesNewRomanPSMT;font-size:10.02px;stroke:none;">by about 67% by using microwave. The reason for the </text>
   <text y="424.5" x="315.481,318.828,323.288,328.309,333.33,337.79,340.552,343.313,348.334,353.355,355.86,357.016,359.777,364.817,367.322,368.538,371.299,376.339,380.799,383.304,384.52,389.541,392.888,397.909,402.369,406.829,410.738,414.647,417.408,422.429,427.45,429.955,431.171,433.932,436.694,444.375,448.835,451.34,452.495,455.257,459.156,461.661,462.876,465.637,470.678,475.137,477.642,478.858,483.879,488.339,492.799,495.56,498.065,499.281,504.302,508.762,513.783,518.242,521.59,526.05,528.811,533.253,538.274" svgx:width="0.33,0.44,0.5,0.5,0.44,0.28,0.28,0.5,0.5,0.25,0.55,0.28,0.5,0.25,0.55,0.28,0.5,0.44,0.25,0.55,0.5,0.33,0.5,0.44,0.44,0.39,0.39,0.28,0.5,0.5,0.25,0.55,0.28,0.28,0.78,0.44,0.25,0.55,0.28,0.39,0.25,0.55,0.28,0.5,0.44,0.25,0.55,0.5,0.44,0.44,0.28,0.25,0.55,0.5,0.44,0.5,0.44,0.33,0.44,0.28,0.44,0.5,0.25" style="fill:rgb(0,0,0);font-family:TimesNewRomanPSMT;font-size:10.02px;stroke:none;">reduction in the processing time is the heat generated </text>
   <text y="436.02" x="315.481,320.509,325.489,327.99399999999997,329.569,337.25,340.012,344.479,347.833,352.861,360.114,364.581,369.609,374.076,376.581,378.216,383.244,387.711,392.178,394.939,397.701,402.729,407.757,410.262,411.897,419.15,424.178,426.939,431.381,436.409,438.914,440.549,443.904,448.371,452.287,457.315,460.076,462.838,466.737,469.242,470.877,473.638,478.678,481.183,482.819,487.847,490.608,495.636,500.664,503.169,504.805,509.833,513.187,517.654,521.57,525.486,530.514,533.869,538.336" svgx:width="0.5,0.5,0.25,0.55,0.78,0.28,0.44,0.33,0.5,0.72,0.44,0.5,0.44,0.25,0.55,0.5,0.44,0.44,0.28,0.28,0.5,0.5,0.25,0.55,0.72,0.5,0.28,0.44,0.5,0.25,0.55,0.33,0.44,0.39,0.5,0.28,0.28,0.39,0.25,0.55,0.28,0.5,0.25,0.55,0.5,0.28,0.5,0.5,0.25,0.55,0.5,0.33,0.44,0.39,0.39,0.5,0.33,0.44,0.25" style="fill:rgb(0,0,0);font-family:TimesNewRomanPSMT;font-size:10.02px;stroke:none;">by microwave heating which results in high pressure </text>
   <text y="447.54" x="315.481,320.501,323.847,328.306,333.326,336.088,340.53,345.55,348.311,351.191,353.953,358.993,362.9,365.662,370.682,375.141,378.081,380.842,385.882,390.341,393.281,398.301,401.648,406.668,411.688,416.708,421.167,423.928,426.448,429.388,438.267,441.028,445.487,448.834,453.854,461.098,465.557,470.577,475.036,478.944,481.884,484.646,489.686,492.447,496.889,500.236,504.695,509.153,511.915,514.855,518.763,523.222,525.983,530.442,534.901" svgx:width="0.5,0.33,0.44,0.5,0.28,0.44,0.5,0.28,0.25,0.28,0.5,0.39,0.28,0.5,0.44,0.25,0.28,0.5,0.44,0.25,0.5,0.33,0.5,0.5,0.5,0.44,0.28,0.25,0.25,0.89,0.28,0.44,0.33,0.5,0.72,0.44,0.5,0.44,0.39,0.25,0.28,0.5,0.28,0.44,0.33,0.44,0.44,0.28,0.25,0.39,0.44,0.28,0.44,0.44,0.33" style="fill:rgb(0,0,0);font-family:TimesNewRomanPSMT;font-size:10.02px;stroke:none;">gradient inside the product. Microwaves interact selec-</text>
   <text y="458.999" x="315.481,318.256,321.032,326.072,330.511,333.286,338.286,340.791,343.566,350.79,353.566,356.341,361.381,363.88599999999997,366.721,369.496,374.537,378.975,381.48,384.315,387.642,390.968,395.407,399.846,402.351,405.186,412.41,416.849,419.625,424.063,427.39,429.895,432.67,440.351,445.391,448.167,452.605,457.044,462.084,464.86,469.299,473.186,475.691,478.526,483.566,486.926,491.365,495.253,499.691,504.731,507.507,510.012,512.847,515.622,520.662,523.167,526.002,528.777,533.818,538.256" svgx:width="0.28,0.28,0.5,0.44,0.28,0.5,0.25,0.55,0.72,0.28,0.28,0.5,0.25,0.55,0.28,0.5,0.44,0.25,0.55,0.33,0.33,0.44,0.44,0.25,0.55,0.72,0.44,0.28,0.44,0.33,0.25,0.55,0.78,0.5,0.28,0.44,0.44,0.5,0.28,0.44,0.39,0.25,0.55,0.5,0.33,0.44,0.39,0.44,0.5,0.28,0.25,0.55,0.28,0.5,0.25,0.55,0.28,0.5,0.44,0.25" style="fill:rgb(0,0,0);font-family:TimesNewRomanPSMT;font-size:10.02px;stroke:none;">tively with the free water molecules present in the </text>
   <text y="470.519" x="315.481,320.502,323.263,327.723,332.744,337.765,340.27,342.325,346.785,351.806,356.827,359.332,361.387,366.408,370.868,374.777,379.237,384.258,387.019,391.479,394.827,397.332,399.387,403.296,408.276,412.185,414.946,419.406,427.087,430.996,433.501,435.556,442.802,447.823,450.584,455.026,460.047,462.552,464.607,467.369,471.829,476.289,481.31,485.218,487.723,489.779,492.54,497.58,500.085,502.14,504.902,509.942,514.402,518.862,521.623,524.385,528.844,533.304,538.325" svgx:width="0.5,0.28,0.44,0.5,0.5,0.25,0.55,0.44,0.5,0.5,0.25,0.55,0.5,0.44,0.39,0.44,0.5,0.28,0.44,0.33,0.25,0.55,0.39,0.5,0.39,0.28,0.44,0.78,0.39,0.25,0.55,0.72,0.5,0.28,0.44,0.5,0.25,0.55,0.28,0.44,0.44,0.5,0.39,0.25,0.55,0.28,0.5,0.25,0.55,0.28,0.5,0.44,0.44,0.28,0.28,0.44,0.44,0.5,0.25" style="fill:rgb(0,0,0);font-family:TimesNewRomanPSMT;font-size:10.02px;stroke:none;">gland and vascular systems which leads to localized </text>
   <text y="482.039" x="315.481,320.509,324.976,329.443,332.204,334.966,339.994,345.022" svgx:width="0.5,0.44,0.44,0.28,0.28,0.5,0.5,0.25" style="fill:rgb(0,0,0);font-family:TimesNewRomanPSMT;font-size:10.02px;stroke:none;">heating </text>
   <text y="477.54" x="348.66,351.9" svgx:width="0.5,0.5" style="fill:rgb(0,0,0);font-family:TimesNewRomanPSMT;font-size:6.48px;stroke:none;">32</text>
   <text y="482.04" x="355.14,357.656,360.161,361.316,368.562,372.471,374.976,376.131,380.591,383.096,384.251,387.599,392.059,395.968,400.989,403.75,406.512,409.017,410.172,415.193,418.541,421.046,422.201,424.962,430.002,432.764,437.206,440.554,445.575,450.034,452.796,455.301,456.456,460.365,465.386,470.407,474.867,478.215,483.236,487.696,492.156,494.917,497.679,502.7,507.721,510.237,512.7420000000001,513.897,518.357,520.862,522.017,527.038,530.386,534.846" svgx:width="0.25,0.25,0.55,0.72,0.39,0.25,0.55,0.44,0.25,0.55,0.33,0.44,0.39,0.5,0.28,0.28,0.25,0.55,0.5,0.33,0.25,0.55,0.28,0.5,0.28,0.44,0.33,0.5,0.44,0.28,0.25,0.55,0.39,0.5,0.5,0.44,0.33,0.5,0.44,0.44,0.28,0.28,0.5,0.5,0.25,0.25,0.55,0.44,0.25,0.55,0.5,0.33,0.44,0.33" style="fill:rgb(0,0,0);font-family:TimesNewRomanPSMT;font-size:10.02px;stroke:none;">. As a result of internal superheating, a dra-</text>
   <text y="493.5" x="315.48,323.161,327.603,330.365,333.126,337.568,340.327,344.794,349.822,354.85,359.317,364.345,368.261,371.023,376.051,381.079,383.898,388.365,393.393,398.421,401.181,405.648,410.676,415.704,419.62,424.087,429.115,434.143,438.539,443.58,446.353,449.127,454.125,456.944,460.269,465.309,470.349,473.111,478.151,481.51,485.947,488.707,493.747,497.106,499.926,504.363,508.8,511.573,514.347,517.167,524.389,528.826,531.599,534.373,538.259" svgx:width="0.78,0.44,0.28,0.28,0.44,0.25,0.44,0.5,0.5,0.44,0.5,0.39,0.28,0.5,0.5,0.25,0.44,0.5,0.5,0.25,0.44,0.5,0.5,0.39,0.44,0.5,0.5,0.44,0.5,0.28,0.28,0.5,0.25,0.33,0.5,0.5,0.28,0.5,0.33,0.44,0.25,0.5,0.33,0.25,0.44,0.44,0.28,0.28,0.25,0.72,0.44,0.28,0.28,0.39,0.25" style="fill:rgb(0,0,0);font-family:TimesNewRomanPSMT;font-size:10.02px;stroke:none;">matic expansion and consequently rupture of cell walls </text>
   <text y="505.02" x="315.48,320.52,324.96,329.4,334.44,337.767,341.656,344.176,348.616,351.393,354.169,359.209,366.435,369.211,374.251,379.291,381.811,384.588,389.628,394.068,396.588,401.028,406.068,408.844,412.172,416.612,421.052,423.828,426.605,431.645,436.685,439.205,444.245,447.605,450.125,454.564,458.453,462.342,466.782,471.822,474.598,477.375,481.815,484.591,487.111,492.152,494.928,497.705,500.201" svgx:width="0.5,0.44,0.44,0.5,0.33,0.39,0.25,0.44,0.28,0.28,0.5,0.72,0.28,0.5,0.5,0.25,0.28,0.5,0.44,0.25,0.44,0.5,0.28,0.33,0.44,0.44,0.28,0.28,0.5,0.5,0.25,0.5,0.33,0.25,0.44,0.39,0.39,0.44,0.5,0.28,0.28,0.44,0.28,0.25,0.5,0.28,0.28,0.25,0.25" style="fill:rgb(0,0,0);font-family:TimesNewRomanPSMT;font-size:10.02px;stroke:none;">occurs allowing the extraction of essential oil. </text>
   <text y="516.54" x="327.36,333.489,338.506,342.962,345.467,346.382,350.837,355.854,360.31,363.654,368.671,373.688,376.193,377.168,380.512,384.968,389.985,395.002,397.794,401.138,405.594,413.275,417.717,422.734,425.527,429.431,431.936,432.911,435.704,440.721,443.226,444.201,449.218,453.674,457.018,460.361,465.378,468.722,476.403,478.908,479.883,482.676,487.693,492.149,494.654,495.629,500.085,505.102,507.894,511.238,515.694,520.15,522.942,525.735,530.752,535.769,538.281" svgx:width="0.61,0.5,0.44,0.25,0.55,0.44,0.5,0.44,0.33,0.5,0.5,0.25,0.55,0.33,0.44,0.5,0.5,0.28,0.33,0.44,0.78,0.44,0.5,0.28,0.39,0.25,0.55,0.28,0.5,0.25,0.55,0.5,0.44,0.33,0.33,0.5,0.33,0.78,0.25,0.55,0.28,0.5,0.44,0.25,0.55,0.44,0.5,0.28,0.33,0.44,0.44,0.28,0.28,0.5,0.5,0.25,0.25" style="fill:rgb(0,0,0);font-family:TimesNewRomanPSMT;font-size:10.02px;stroke:none;">The energy requirements to perform the extraction, </text>
   <text y="527.999" x="315.48,320.508,324.975,328.891,333.358,338.386,340.891,344.506,349.534,354.562,357.067,360.742,368.424,372.865,377.893,380.655,388.336,393.376,401.058,403.563,407.238,412.266,417.294,424.547,429.014,432.368,434.873,438.488,442.955,447.983,453.011,456.927,461.955,469.637,474.665,477.426,480.188,485.216,490.244,492.749,496.424,501.452,504.807,507.312,510.987,515.454,518.216,522.682,527.149,529.911,533.266,538.294" svgx:width="0.5,0.44,0.39,0.44,0.5,0.25,0.55,0.5,0.5,0.25,0.55,0.78,0.44,0.5,0.28,0.78,0.5,0.78,0.25,0.55,0.5,0.5,0.72,0.44,0.33,0.25,0.55,0.44,0.5,0.5,0.39,0.5,0.78,0.5,0.28,0.28,0.5,0.5,0.25,0.55,0.5,0.33,0.25,0.55,0.44,0.28,0.44,0.44,0.28,0.33,0.5,0.25" style="fill:rgb(0,0,0);font-family:TimesNewRomanPSMT;font-size:10.02px;stroke:none;">based on maximum power consumption of electro </text>
   <text y="539.519" x="315.48,323.162,327.605,332.633,335.437,338.24,342.707,345.212,346.488,349.842,354.871,358.225,360.73,362.066,369.318,376.571,379.076,380.351,384.818,389.846,394.874,397.379,398.715,406.397,409.16,413.627,416.982,422.01,429.262,433.729,438.757,443.224,445.729,447.065,452.093,457.121,461.588,466.616,469.121,470.396,473.751,478.779,482.134,484.639,485.974,494.854,502.107,509.359,516.612,519.117,520.452,524.919,529.947,534.975" svgx:width="0.78,0.44,0.5,0.28,0.28,0.44,0.25,0.55,0.33,0.5,0.33,0.25,0.55,0.72,0.72,0.25,0.55,0.44,0.5,0.5,0.25,0.55,0.78,0.28,0.44,0.33,0.5,0.72,0.44,0.5,0.44,0.25,0.55,0.5,0.5,0.44,0.5,0.25,0.55,0.33,0.5,0.33,0.25,0.55,0.89,0.72,0.72,0.72,0.25,0.55,0.44,0.5,0.5,0.33" style="fill:rgb(0,0,0);font-family:TimesNewRomanPSMT;font-size:10.02px;stroke:none;">mantle for HD and microwave oven for MAHD con-</text>
   <text y="551.039" x="315.48,319.396,322.158,327.186,331.653,335.008,337.77,342.798,347.826,350.331,351.187,353.95,358.991,363.458,365.963,366.879,369.641,374.682,377.445,381.887,384.65,387.155,388.071,393.099,397.566,400.921,403.683,408.711,413.739,416.24399999999997,417.16,422.188,425.543,428.048,428.964,433.43,435.935,436.851,440.206,445.234,447.997,450.759,453.264,454.18,457.535,462.002,466.468,471.496,476.525,480.991,484.346,489.327,491.85,494.355,495.271,502.523,506.99,510.345,514.812,517.317,518.233,523.261,528.289,533.317,538.345" svgx:width="0.39,0.28,0.5,0.44,0.33,0.28,0.5,0.5,0.25,0.55,0.28,0.5,0.44,0.25,0.55,0.28,0.5,0.28,0.44,0.28,0.25,0.55,0.5,0.44,0.33,0.28,0.5,0.5,0.25,0.55,0.5,0.33,0.25,0.55,0.44,0.25,0.55,0.33,0.5,0.28,0.28,0.25,0.55,0.33,0.44,0.44,0.5,0.5,0.44,0.33,0.5,0.25,0.25,0.55,0.72,0.44,0.33,0.44,0.25,0.55,0.5,0.5,0.5,0.5,0.25" style="fill:rgb(0,0,0);font-family:TimesNewRomanPSMT;font-size:10.02px;stroke:none;">sidering the total period of a full recovery, were 1500 </text>
   <text y="562.499" x="315.48" svgx:width="0.83" style="fill:rgb(0,0,0);font-family:TimesNewRomanPS-ItalicMT;font-size:10.02px;stroke:none;">W</text>
   <text y="562.499" x="323.82,326.52,329.882,334.917,338.278,341.039,348.298,355.558,358.258,362.732,367.767,372.802,375.563,380.598,385.633,390.668" svgx:width="0.25,0.33,0.5,0.33,0.25,0.72,0.72,0.25,0.44,0.5,0.5,0.25,0.5,0.5,0.5,0.25" style="fill:rgb(0,0,0);font-family:TimesNewRomanPSMT;font-size:10.02px;stroke:none;"> for HD and 180 </text>
   <text y="562.499" x="393.359" svgx:width="0.83" style="fill:rgb(0,0,0);font-family:TimesNewRomanPS-ItalicMT;font-size:10.02px;stroke:none;">W</text>
   <text y="562.499" x="401.699,404.458,407.804,412.823,416.169,418.869,427.748,434.991,442.235,449.478,451.992,454.752,460.883,465.902,468.697,472.604,475.304,478.099,483.118,488.137,490.931,495.389,499.847,502.642,507.099,511.006,513.766,518.224,520.983,524.89,529.909,534.928" svgx:width="0.25,0.33,0.5,0.33,0.25,0.89,0.72,0.72,0.72,0.25,0.25,0.61,0.5,0.28,0.39,0.25,0.28,0.5,0.5,0.28,0.44,0.44,0.28,0.44,0.39,0.25,0.44,0.25,0.39,0.5,0.5,0.33" style="fill:rgb(0,0,0);font-family:TimesNewRomanPSMT;font-size:10.02px;stroke:none;"> for MAHD. This indicates a sub-</text>
   <text y="574.019" x="315.479,319.366,322.14,326.578,331.618,334.393,337.167,341.605,344.38,346.885,351.219,355.106,359.544,364.584,367.345,372.385,377.426,379.931,384.265,387.04,392.08,394.585,398.919,401.694,406.734,411.172,413.677,418.012,422.449,427.49,430.264,433.59,438.028,442.465,445.24,448.015,453.055,458.095,460.6,464.934,469.372,474.412,478.299,481.074,483.579,487.913,495.137,500.177,504.615,509.655,512.16,516.494,521.534,525.433,528.208,533.248,538.288" svgx:width="0.39,0.28,0.44,0.5,0.28,0.28,0.44,0.28,0.25,0.55,0.39,0.44,0.5,0.28,0.5,0.5,0.25,0.55,0.28,0.5,0.25,0.55,0.28,0.5,0.44,0.25,0.55,0.44,0.5,0.28,0.33,0.44,0.44,0.28,0.28,0.5,0.5,0.25,0.55,0.44,0.5,0.39,0.28,0.25,0.55,0.72,0.5,0.44,0.5,0.25,0.55,0.5,0.39,0.28,0.5,0.5,0.25" style="fill:rgb(0,0,0);font-family:TimesNewRomanPSMT;font-size:10.02px;stroke:none;">stantial saving in the extraction cost when using </text>
   <text y="585.479" x="315.479,324.358,331.605,338.853,346.1,348.62,351.419,356.442,360.352,363.151,367.613,372.075,377.098,379.618,384.641,387.991,390.511,397.758,405.006,407.524" svgx:width="0.89,0.72,0.72,0.72,0.25,0.28,0.5,0.39,0.28,0.44,0.44,0.5,0.25,0.5,0.33,0.25,0.72,0.72,0.25,0.25" style="fill:rgb(0,0,0);font-family:TimesNewRomanPSMT;font-size:10.02px;stroke:none;">MAHD instead of HD. </text>
   <text y="596.999" x="327.359,333.483,338.495,342.946,345.451,346.785,351.236,355.687,358.475,362.926,367.938,370.725,375.176,377.964,382.415,387.427,389.932,391.326,396.338,401.35,405.801,410.813,413.601,416.388,419.176,424.188,426.693,428.028,433.04,436.318,438.823,440.218,444.676,449.134,452.479,457.498,462.517,467.536,470.041,471.376,476.395,479.19,484.209,489.228,492.022,497.041,501.499,504.004,505.399,508.745,513.202,515.997,520.455,524.913,528.82,533.277,538.297" svgx:width="0.61,0.5,0.44,0.25,0.55,0.44,0.44,0.28,0.44,0.5,0.28,0.44,0.28,0.44,0.5,0.25,0.55,0.5,0.5,0.44,0.5,0.28,0.28,0.28,0.5,0.25,0.55,0.5,0.33,0.25,0.55,0.44,0.44,0.33,0.5,0.5,0.5,0.25,0.55,0.5,0.28,0.5,0.5,0.28,0.5,0.44,0.25,0.55,0.33,0.44,0.28,0.44,0.44,0.39,0.44,0.5,0.25" style="fill:rgb(0,0,0);font-family:TimesNewRomanPSMT;font-size:10.02px;stroke:none;">The calculated quantity of carbon dioxide released </text>
   <text y="608.519" x="315.478,318.239,323.279,326.041,331.081,333.601,336.363,341.403,345.865,348.385,352.846,355.608,363.289,368.329,372.24,377.263,382.286,386.748,390.098,394.56,397.08,399.841,403.74,406.26,411.283,414.045,419.068,424.091,428.553,431.902,434.422,437.184,442.224,444.744,447.505,452.546,457.007,459.527,463.989,468.451,472.362,476.824,479.344,484.367,487.717,490.237,497.484,504.732,507.252,510.601,515.624,520.647,525.67,530.693" svgx:width="0.28,0.5,0.28,0.5,0.25,0.28,0.5,0.44,0.25,0.44,0.28,0.78,0.5,0.39,0.5,0.5,0.44,0.33,0.44,0.25,0.28,0.39,0.25,0.5,0.28,0.5,0.5,0.44,0.33,0.25,0.28,0.5,0.25,0.28,0.5,0.44,0.25,0.44,0.44,0.39,0.44,0.25,0.5,0.33,0.25,0.72,0.72,0.25,0.33,0.5,0.5,0.5,0.5,0.25" style="fill:rgb(0,0,0);font-family:TimesNewRomanPSMT;font-size:10.02px;stroke:none;">into the atmosphere is higher in the case of HD (1200 </text>
   <text y="608.519" x="533.217" svgx:width="0.5" style="fill:rgb(0,0,0);font-family:TimesNewRomanPS-ItalicMT;font-size:10.02px;stroke:none;">g</text>
   <text y="608.519" x="538.258" svgx:width="0.25" style="fill:rgb(0,0,0);font-family:TimesNewRomanPSMT;font-size:10.02px;stroke:none;"> </text>
   <text y="619.979" x="315.478,322.138" svgx:width="0.67,0.72" style="fill:rgb(0,0,0);font-family:TimesNewRomanPSMT;font-size:10.02px;stroke:none;">CO</text>
   <text y="621.48" x="329.4" svgx:width="0.5" style="fill:rgb(0,0,0);font-family:TimesNewRomanPSMT;font-size:6.48px;stroke:none;">2</text>
   <text y="619.98" x="332.64,336.001,339.001,341.762,346.802,351.275,356.309,359.369,362.73,367.764,371.125,374.125,383.004,390.262,397.521,404.779,407.839,411.2,416.234,421.268,426.302" svgx:width="0.33,0.25,0.28,0.5,0.44,0.5,0.25,0.33,0.5,0.33,0.25,0.89,0.72,0.72,0.72,0.25,0.33,0.5,0.5,0.5,0.25" style="fill:rgb(0,0,0);font-family:TimesNewRomanPSMT;font-size:10.02px;stroke:none;">) than for MAHD (144 </text>
   <text y="619.98" x="429.3" svgx:width="0.5" style="fill:rgb(0,0,0);font-family:TimesNewRomanPS-ItalicMT;font-size:10.02px;stroke:none;">g</text>
   <text y="619.98" x="434.34,437.4,444.06" svgx:width="0.25,0.67,0.72" style="fill:rgb(0,0,0);font-family:TimesNewRomanPSMT;font-size:10.02px;stroke:none;"> CO</text>
   <text y="621.48" x="451.32" svgx:width="0.5" style="fill:rgb(0,0,0);font-family:TimesNewRomanPSMT;font-size:6.48px;stroke:none;">2</text>
   <text y="619.98" x="454.56,457.898,460.404,463.404,469.527,474.538,478.988,482.887,487.336,490.397,494.846,499.296,502.083,506.533,511.544,514.33,518.78,521.567,524.353,529.364,534.375,538.274" svgx:width="0.33,0.25,0.25,0.61,0.5,0.44,0.39,0.44,0.25,0.44,0.44,0.28,0.44,0.5,0.28,0.44,0.28,0.28,0.5,0.5,0.39,0.25" style="fill:rgb(0,0,0);font-family:TimesNewRomanPSMT;font-size:10.02px;stroke:none;">). These calculations </text>
   <text y="631.5" x="315.48,322.72,327.174,330.515,334.969,337.969,345.651,350.092,355.107,359.561,362.621,367.075,371.529,375.983,380.998,384.34,389.355,392.145,397.16,402.175,405.236,408.026,413.041,416.101,418.892,423.907,428.361,431.361,434.151,436.942,439.732,444.186,447.528,451.982,454.772,459.787,463.129,467.583,470.374,473.434,476.224,481.239,484.299,489.314,494.329,497.12,501.574,504.364,509.379,512.44,517.455" svgx:width="0.72,0.44,0.33,0.44,0.25,0.78,0.44,0.5,0.44,0.25,0.44,0.44,0.44,0.5,0.33,0.5,0.28,0.5,0.5,0.25,0.28,0.5,0.25,0.28,0.5,0.44,0.25,0.28,0.28,0.28,0.44,0.33,0.44,0.28,0.5,0.33,0.44,0.28,0.25,0.28,0.5,0.25,0.5,0.5,0.28,0.44,0.28,0.5,0.25,0.5,0.25" style="fill:rgb(0,0,0);font-family:TimesNewRomanPSMT;font-size:10.02px;stroke:none;">were made according to the literature: to obtain 1 </text>
   <text y="631.5" x="520.44,524.882,533.222" svgx:width="0.44,0.83,0.5" style="fill:rgb(0,0,0);font-family:TimesNewRomanPS-ItalicMT;font-size:10.02px;stroke:none;">kWh</text>
   <text y="631.5" x="538.26" svgx:width="0.25" style="fill:rgb(0,0,0);font-family:TimesNewRomanPSMT;font-size:10.02px;stroke:none;"> </text>
   <text y="643.02" x="315.48,318.835,322.19,327.218,334.899,337.404,338.919,343.386,348.414,352.881,355.643,358.14799999999997,359.663,364.691,368.045,370.55,372.065,377.093,379.855,384.883,389.35,392.705,395.21,396.725,400.079,405.107,409.023,412.939,415.701,418.462,420.967,422.482,425.837,430.865,435.332,438.093,440.616,443.121,444.636,449.664,454.692,459.72" svgx:width="0.33,0.33,0.5,0.78,0.25,0.55,0.44,0.5,0.44,0.28,0.25,0.55,0.5,0.33,0.25,0.55,0.5,0.28,0.5,0.44,0.33,0.25,0.55,0.33,0.5,0.39,0.39,0.28,0.28,0.25,0.55,0.33,0.5,0.44,0.28,0.25,0.25,0.55,0.5,0.5,0.5,0.25" style="fill:rgb(0,0,0);font-family:TimesNewRomanPSMT;font-size:10.02px;stroke:none;">from coal or other fossil fuel, 800 </text>
   <text y="643.02" x="463.74" svgx:width="0.5" style="fill:rgb(0,0,0);font-family:TimesNewRomanPS-ItalicMT;font-size:10.02px;stroke:none;">g</text>
   <text y="643.02" x="468.78,471.28499999999997,472.8,479.461" svgx:width="0.25,0.55,0.67,0.72" style="fill:rgb(0,0,0);font-family:TimesNewRomanPSMT;font-size:10.02px;stroke:none;"> CO</text>
   <text y="644.52" x="486.72" svgx:width="0.5" style="fill:rgb(0,0,0);font-family:TimesNewRomanPSMT;font-size:6.48px;stroke:none;">2</text>
   <text y="643.02" x="489.96,492.465,493.98,501.206,503.984,506.762,509.539,512.044,513.559,518.599,523.041,525.546,527.121,530.45,534.891" svgx:width="0.25,0.55,0.72,0.28,0.28,0.28,0.25,0.55,0.5,0.44,0.25,0.55,0.33,0.44,0.33" style="fill:rgb(0,0,0);font-family:TimesNewRomanPSMT;font-size:10.02px;stroke:none;"> will be re-</text>
   <text y="654.48" x="315.48,318.241,322.704,327.167,331.079,335.542,340.566,343.086,345.847,350.887,353.649,358.689,361.209,363.97,369.01,373.473,375.993,380.456,383.218,390.899,395.939,399.851,404.875,409.899,414.362,417.713,422.176,424.696,429.72,434.744,438.094,440.856,445.88,450.904,453.424,457.887,462.911,470.592,475.616,480.64,484.552,487.314,490.075,495.099,500.123" svgx:width="0.28,0.44,0.44,0.39,0.44,0.5,0.25,0.28,0.5,0.28,0.5,0.25,0.28,0.5,0.44,0.25,0.44,0.28,0.78,0.5,0.39,0.5,0.5,0.44,0.33,0.44,0.25,0.5,0.5,0.33,0.28,0.5,0.5,0.25,0.44,0.5,0.78,0.5,0.5,0.39,0.28,0.28,0.5,0.5,0.25" style="fill:rgb(0,0,0);font-family:TimesNewRomanPSMT;font-size:10.02px;stroke:none;">leased into the atmosphere during combustion </text>
   <text y="649.98" x="502.62,505.86" svgx:width="0.5,0.5" style="fill:rgb(0,0,0);font-family:TimesNewRomanPSMT;font-size:6.48px;stroke:none;">27</text>
   <text y="654.48" x="509.1,511.62,514.14" svgx:width="0.25,0.25,0.25" style="fill:rgb(0,0,0);font-family:TimesNewRomanPSMT;font-size:10.02px;stroke:none;">. </text>
   <text y="666.0" x="327.36,333.5,338.527,342.992,346.346,350.812,354.166,359.193,362.547,367.012,369.534,372.039,373.075,381.953,389.205,396.456,403.708,406.213,407.308,410.069,413.968,416.473,417.508,422.535,425.889,430.916,435.943,440.97,444.885,449.351,454.378,456.883,457.978,462.444,466.359,468.864,469.899,474.365,479.392,481.897,482.992,487.097,491.563,496.59,501.617,504.379,507.732,512.759,517.786,525.468,529.934,534.961" svgx:width="0.61,0.5,0.44,0.33,0.44,0.33,0.5,0.33,0.44,0.25,0.25,0.55,0.89,0.72,0.72,0.72,0.25,0.55,0.28,0.39,0.25,0.55,0.5,0.33,0.5,0.5,0.5,0.39,0.44,0.5,0.25,0.55,0.44,0.39,0.25,0.55,0.44,0.5,0.25,0.55,0.41,0.44,0.5,0.5,0.28,0.33,0.5,0.5,0.78,0.44,0.5,0.33" style="fill:rgb(0,0,0);font-family:TimesNewRomanPSMT;font-size:10.02px;stroke:none;">Therefore, MAHD is proposed as an "environmen-</text>
   <text y="677.52" x="315.481,318.242,322.684,325.445,328.207,333.187,335.692,336.787,340.141,343.494,346.256,350.722,355.749,360.776,363.537,368.517,372.596,375.101,376.256,380.722,385.749,388.51,391.87,396.336,400.802,403.563,406.325,411.352,416.379,418.884,420.039,427.721,432.162,434.924,439.951,444.978,450.005,452.51,453.605,457.52,462.547,465.309,468.07,472.512,477.539,480.301,484.766,487.271,488.427,491.78,496.807,500.161,502.666,503.822,508.287,512.202,516.117,520.583,525.61,528.372,531.133,535.575,538.336" svgx:width="0.28,0.44,0.28,0.28,0.5,0.25,0.55,0.33,0.33,0.28,0.44,0.5,0.5,0.28,0.5,0.41,0.25,0.55,0.44,0.5,0.28,0.33,0.44,0.44,0.28,0.28,0.5,0.5,0.25,0.55,0.78,0.44,0.28,0.5,0.5,0.5,0.25,0.55,0.39,0.5,0.28,0.28,0.44,0.5,0.28,0.44,0.25,0.55,0.33,0.5,0.33,0.25,0.55,0.44,0.39,0.39,0.44,0.5,0.28,0.28,0.44,0.28,0.25" style="fill:rgb(0,0,0);font-family:TimesNewRomanPSMT;font-size:10.02px;stroke:none;">tally friendly" extraction method suitable for essential </text>
   <text y="688.98" x="315.481,320.521,323.295,326.07,328.59,333.028,338.068,340.842,344.168,348.606,353.044,355.818,358.593,363.633,368.673,371.193,373.713" svgx:width="0.5,0.28,0.28,0.25,0.44,0.5,0.28,0.33,0.44,0.44,0.28,0.28,0.5,0.5,0.25,0.25,0.25" style="fill:rgb(0,0,0);font-family:TimesNewRomanPSMT;font-size:10.02px;stroke:none;">oil extraction. </text>
   <text y="701.46" x="315.48" svgx:width="0.25" style="fill:rgb(0,0,0);font-family:TimesNewRomanPSMT;font-size:10.98px;stroke:none;"> </text>
   <text y="713.28" x="402.96,410.201,415.181,420.76,425.215,428.008,433.586,437.491,440.283,445.301" svgx:width="0.72,0.5,0.56,0.44,0.28,0.56,0.39,0.28,0.5,0.56" style="fill:rgb(0,0,100);font-family:TimesNewRomanPS-BoldMT;font-size:10.02px;stroke:none;">Conclusion</text>
   <text y="713.28" x="450.78" svgx:width="0.25" style="fill:rgb(0,0,0);font-family:TimesNewRomanPS-BoldMT;font-size:10.02px;stroke:none;"> </text>
   <text y="717.24" x="315.48" svgx:width="0.25" style="fill:rgb(0,0,0);font-family:TimesNewRomanPSMT;font-size:1.98px;stroke:none;"> </text>
   <text y="726.96" x="327.36,334.607,337.112,338.627,342.538,345.3,352.981,355.743,358.504,362.946,366.296,368.801,370.376,374.838,379.861,382.622,385.982,390.444,394.906,397.667,400.429,405.452,410.475,412.98,414.555,419.535,422.297,426.758,429.52,434.543,437.048,438.623,445.871,450.332,454.243,456.748,458.323,462.785,467.247,472.27,475.032,479.474,484.497,488.959,493.982,496.487,498.062,502.524,505.285,507.79,509.365,513.276,516.038,521.061,526.084,528.845,532.195,534.956" svgx:width="0.72,0.25,0.55,0.39,0.28,0.78,0.28,0.28,0.44,0.33,0.25,0.55,0.44,0.5,0.28,0.33,0.44,0.44,0.28,0.28,0.5,0.5,0.25,0.55,0.5,0.28,0.44,0.28,0.5,0.25,0.55,0.72,0.44,0.39,0.25,0.55,0.44,0.44,0.5,0.28,0.44,0.5,0.44,0.5,0.25,0.55,0.44,0.28,0.25,0.55,0.39,0.28,0.5,0.5,0.28,0.33,0.28,0.33" style="fill:rgb(0,0,0);font-family:TimesNewRomanPSMT;font-size:10.02px;stroke:none;">A similar extraction yield was achieved at signifi-</text>
   <text y="738.42" x="315.48,319.935,324.39,329.406,332.198,334.989,339.969,342.474,343.869,347.773,352.789,357.805,361.147,363.939,368.394,371.737,374.242,375.636,380.091,385.107,387.899,391.242,395.696,400.151,402.943,405.734,410.75,415.767,418.272,419.666,422.458,425.249,432.931,437.386,439.891,441.285,448.526,453.542,457.997,463.013,465.518,466.913,471.929,475.832,478.624,483.64,488.656,491.161,492.556,501.435,508.675,515.915,523.156,525.661,527.116,529.907,534.923" svgx:width="0.44,0.44,0.5,0.28,0.28,0.5,0.25,0.55,0.39,0.5,0.5,0.33,0.28,0.44,0.33,0.25,0.55,0.44,0.5,0.28,0.33,0.44,0.44,0.28,0.28,0.5,0.5,0.25,0.55,0.28,0.28,0.78,0.44,0.25,0.55,0.72,0.5,0.44,0.5,0.25,0.55,0.5,0.39,0.28,0.5,0.5,0.25,0.55,0.89,0.72,0.72,0.72,0.25,0.55,0.28,0.5,0.33" style="fill:rgb(0,0,0);font-family:TimesNewRomanPSMT;font-size:10.02px;stroke:none;">cantly shorter extraction time when using MAHD in-</text>
   <text y="749.94" x="315.48,319.398,322.16,326.629,331.097,336.128,338.828,343.858,347.215,349.915,357.169,364.424,366.949,369.649,373.006,378.036,380.736,385.205,390.235,395.265,398.027,400.788,403.55,408.58,413.61,416.135,418.835,427.714,434.969,442.223,449.478,452.178,459.859,464.301,467.063,472.093,477.123,482.153,484.853,489.883,493.24,496.597,501.066,504.422,508.34,511.04,513.802,521.483,526.513,531.543,534.9" svgx:width="0.39,0.28,0.44,0.44,0.5,0.25,0.5,0.33,0.25,0.72,0.72,0.25,0.25,0.33,0.5,0.25,0.44,0.5,0.5,0.28,0.28,0.28,0.5,0.5,0.25,0.25,0.89,0.72,0.72,0.72,0.25,0.78,0.44,0.28,0.5,0.5,0.5,0.25,0.5,0.33,0.33,0.44,0.33,0.39,0.25,0.28,0.78,0.5,0.5,0.33,0.33" style="fill:rgb(0,0,0);font-family:TimesNewRomanPSMT;font-size:10.02px;stroke:none;">stead of HD. In addition, MAHD method offers impor-</text>
   <text y="314.64" x="196.44,200.898,203.138,207.15,211.162,213.801,217.366,219.346,223.357,225.337,227.317,232.661,236.673,239.313,243.393,249.514,253.056,255.296,259.307,263.319,265.959,269.523,273.535,277.546,281.506,283.486,287.497,290.176,292.156,297.5,301.512,304.638,308.202,314.324,317.865,320.505,324.525,326.505,330.07,333.196,336.321,339.886,343.898,346.138,348.378,351.942,354.182,356.162,360.174,362.414,364.654,366.633,370.645,374.656,376.636,383.715,389.474,395.257,401.04,403.056" svgx:width="0.56,0.28,0.5,0.5,0.33,0.44,0.25,0.5,0.25,0.25,0.67,0.5,0.33,0.5,0.78,0.44,0.28,0.5,0.5,0.33,0.44,0.5,0.5,0.5,0.25,0.5,0.33,0.25,0.67,0.5,0.39,0.44,0.78,0.44,0.33,0.5,0.25,0.44,0.39,0.39,0.44,0.5,0.28,0.28,0.44,0.28,0.25,0.5,0.28,0.28,0.25,0.5,0.5,0.25,0.89,0.72,0.72,0.72,0.25,0.25" style="fill:rgb(0,0,0);font-family:TimesNewRomanPSMT;font-size:7.98px;stroke:none;">Figure 4. Chromatography of Rosemary essential oil by MAHD. </text>
  </g>
  <rect style="stroke:blue;stroke-width:0.3;" x="54.06" y="293.58" height="179.64" width="225.12" title="5"/>
  <text y="293.58" class="image" id="image.5.1" width="225" height="179" x="54.06">image.5.1.54_279.294_473</text>
  <g begin="text">
   <text y="522.6" x="54.06,58.51,60.742,64.746,68.75,71.389,74.946,76.941,78.366,82.37,84.35,86.345,87.77,93.106,97.11,103.171,107.192,110.748,113.388,115.62,118.738,122.741,126.745,128.74,130.165,134.169,137.726,139.958,145.733,149.289,152.846,156.85,158.845,160.27,163.827,167.83,171.387,177.448,179.68,183.237,186.794,189.026,191.02100000000002,192.446,196.003,200.006,206.068,210.071,214.075,217.193,219.425,221.657,223.889,227.892,231.896,235.014,237.00900000000001,238.434,242.438,245.108,247.103,248.529,251.168,255.189,258.307,261.863,267.925,271.466,274.106,278.066" svgx:width="0.56,0.28,0.5,0.5,0.33,0.44,0.25,0.55,0.5,0.25,0.25,0.55,0.67,0.5,0.78,0.5,0.44,0.33,0.28,0.39,0.5,0.5,0.25,0.55,0.5,0.44,0.28,0.72,0.44,0.44,0.5,0.25,0.55,0.44,0.5,0.44,0.78,0.28,0.44,0.44,0.28,0.25,0.55,0.44,0.5,0.78,0.5,0.5,0.39,0.28,0.28,0.28,0.5,0.5,0.39,0.25,0.55,0.5,0.33,0.25,0.55,0.33,0.5,0.39,0.44,0.78,0.44,0.33,0.5,0.25" style="fill:rgb(0,0,0);font-family:TimesNewRomanPSMT;font-size:7.98px;stroke:none;">Figure 5. Comparison between chemical compositions of rosemary </text>
   <text y="531.78" x="54.06,57.617,61.62,63.852,66.491,70.048,73.605,75.837,78.954,80.933,83.165,86.283,90.287,92.519,96.075,98.307,101.864,105.868,107.847,110.079,114.082,116.721,120.725,124.728,128.732,132.736,134.715,136.947,140.95,144.507,146.486,150.49,152.722,155.392,158.063,161.62,164.259,167.8,171.803,174.035,176.014,180.018,182.657,186.66,190.217,193.774,196.892,200.009,203.566,206.684,208.663" svgx:width="0.44,0.5,0.28,0.33,0.44,0.44,0.28,0.39,0.25,0.28,0.39,0.5,0.28,0.44,0.28,0.44,0.5,0.25,0.28,0.5,0.33,0.5,0.5,0.5,0.5,0.25,0.28,0.5,0.44,0.25,0.5,0.28,0.33,0.33,0.44,0.33,0.44,0.5,0.28,0.25,0.5,0.33,0.5,0.44,0.44,0.39,0.39,0.44,0.39,0.25,0.25" style="fill:rgb(0,0,0);font-family:TimesNewRomanPSMT;font-size:7.98px;stroke:none;">extracts isolated through the different processes. </text>
   <text y="541.26" x="54.06,59.835,65.171,69.686,73.689,77.649,81.669,84.309,88.329,91.886,95.443,98.082,102.086,106.09,110.093,113.211,115.191,117.171,122.946,128.721,133.235,137.239,141.242,145.202,149.206,152.762,156.766,160.322,162.555,166.111,170.115,172.095" svgx:width="0.72,0.67,0.56,0.5,0.5,0.5,0.33,0.5,0.44,0.44,0.33,0.5,0.5,0.5,0.39,0.25,0.25,0.72,0.72,0.56,0.5,0.5,0.5,0.5,0.44,0.5,0.44,0.28,0.44,0.5,0.25,0.25" style="fill:rgb(0,0,0);font-family:TimesNewRomanPSMT;font-size:7.98px;stroke:none;">HC=hydrocarbons, OX=oxygenated. </text>
  </g>
  <rect style="stroke:blue;stroke-width:0.3;" x="45.96" y="40.62" height="224.1" width="497.76" title="5"/>
  <text y="40.62" class="image" id="image.5.2" width="497" height="224" x="45.96">image.5.2.46_544.41_265</text>
 </g>
</svg>
