<?xml version="1.0" encoding="UTF-8"?>
<svg height="138.5" width="560.4799999999999" xmlns="http://www.w3.org/2000/svg">
 <g>
  <text svgx:width="0.58,0.58,0.58,0.58,0.75,0.25" y="29.4" x="46.5,50.5,54.6,58.7,62.7,68.2" style="fill:rgb(23,22,21);font-family:Lato-Semibold;font-size:7.0px;stroke:none;" xmlns:svgx="http://www.xml-cml.org/schema/svgx">1178  </text>
  <text svgx:width="0.26" y="31.2" x="69.9" style="fill:rgb(23,22,21);font-family:Lato-Semibold;font-size:13.0px;stroke:none;" xmlns:svgx="http://www.xml-cml.org/schema/svgx">|</text>
  <text svgx:width="0.75,0.25,0.75,0.5" y="29.4" x="71.5,77.3,78.3,83.6" style="fill:rgb(23,22,21);font-family:Lato-Semibold;font-size:7.0px;stroke:none;" xmlns:svgx="http://www.xml-cml.org/schema/svgx">    </text>
  <text svgx:width="0.28,0.62,0.58,0.76,0.68,0.73,0.65,0.58,0.26" y="29.4" x="499.7,501.7,506.0,510.1,515.4,520.0,525.1,529.6,533.7" style="fill:rgb(23,22,21);font-family:Lato-Regular-SC700;font-size:7.0px;stroke:none;" xmlns:svgx="http://www.xml-cml.org/schema/svgx">IYENAGBE </text>
  <text svgx:width="0.58,0.59" y="29.4" x="535.5,538.3" style="fill:rgb(23,22,21);font-family:Lato-Regular-SC700;font-size:4.9px;stroke:none;" xmlns:svgx="http://www.xml-cml.org/schema/svgx">Et</text>
  <text svgx:width="0.68,0.51" y="29.4" x="543.0,546.3" style="fill:rgb(23,22,21);font-family:Lato-Regular-SC700;font-size:4.9px;stroke:none;" xmlns:svgx="http://www.xml-cml.org/schema/svgx">Al</text>
  <text svgx:width="0.24" y="29.4" x="548.8" style="fill:rgb(23,22,21);font-family:Lato-Regular-SC700;font-size:7.0px;stroke:none;" xmlns:svgx="http://www.xml-cml.org/schema/svgx">.</text>
  <text svgx:width="1.03,0.5,0.56,0.24,0.23,0.26,0.28,0.24,0.26,0.68,0.24,0.23,0.26,0.54,0.57,0.52,0.24,0.23,0.26,0.76,0.24,0.26,0.54,0.24,0.23,0.26,0.71,0.26,0.73,0.24,0.24,0.24,0.23,0.26,0.65,0.24,0.26,0.54,0.24,0.26,0.27,0.58,0.58,0.58,0.58,0.27,0.24,0.26,0.6,0.56,0.51,0.43,0.24,0.48,0.57,0.37,0.26,0.48,0.56,0.53,0.82,0.24,0.48,0.5,0.24,0.26,0.5,0.56,0.56,0.26,0.35,0.56,0.56,0.48,0.36,0.24,0.57,0.56,0.5,0.24,0.26" y="55.0" x="46.5,53.8,57.5,61.7,63.5,65.2,67.2,69.3,71.1,72.9,77.9,79.7,81.4,83.4,87.5,91.7,95.6,97.4,99.1,101.1,106.7,108.4,110.5,114.5,116.3,118.0,120.0,125.4,127.4,132.8,134.6,136.4,138.2,139.9,141.9,146.7,148.5,150.5,154.6,156.3,158.4,160.4,164.7,169.1,173.4,177.8,179.8,181.5,183.6,188.0,192.1,195.9,199.2,201.0,204.5,208.7,211.5,211.5,215.1,219.3,223.3,229.4,231.2,234.8,238.5,240.3,242.3,246.1,250.2,254.4,256.5,259.1,263.3,267.4,271.0,273.7,275.5,279.8,283.9,287.7,289.4" style="fill:rgb(23,22,21);font-family:Lato-Regular;font-size:7.5px;stroke:none;" xmlns:svgx="http://www.xml-cml.org/schema/svgx">Wani, I. A., Sogi, D. S., &amp; Gill, B. S. (2015). Physico- chemical and functional </text>
  <text svgx:width="0.56,0.36,0.57,0.56,0.53,0.36,0.36,0.24,0.53,0.43,0.26,0.57,0.35,0.26,0.56,0.5,0.36,0.24,0.52,0.53,0.26,0.5,0.56,0.56,0.26,0.56,0.51,0.56,0.36,0.57,0.24,0.51,0.43,0.53,0.56,0.26,0.56,0.36,0.57,0.36,0.53,0.24,0.56,0.26,0.24,0.43,0.57,0.24,0.5,0.36,0.53,0.43,0.26,0.35,0.36,0.57,0.82,0.26,0.28,0.56,0.56,0.24,0.5,0.56,0.26,0.56,0.24,0.5,0.48,0.51,0.26" y="65.5" x="59.5,63.7,66.2,70.5,74.7,78.7,81.4,84.1,85.9,89.8,93.1,95.4,99.5,102.0,104.3,108.5,112.2,114.9,116.7,120.4,124.4,126.7,130.4,134.6,138.8,141.1,145.2,148.9,153.1,155.7,160.0,161.7,165.5,168.8,172.7,176.9,179.2,183.4,186.0,190.2,192.9,196.8,198.6,202.8,205.1,206.9,210.2,214.4,216.2,219.9,222.5,226.5,229.7,232.0,234.6,237.2,241.5,247.6,249.9,252.0,256.2,260.4,262.2,265.9,270.1,272.4,276.6,278.3,282.1,285.6,289.5" style="fill:rgb(23,22,21);font-family:Lato-Regular;font-size:7.5px;stroke:none;" xmlns:svgx="http://www.xml-cml.org/schema/svgx">properties of native and hydrolysed protein isolates from Indian black </text>
  <text svgx:width="0.52,0.36,0.5,0.82,0.26,0.27" y="76.0" x="59.5,63.4,66.0,69.8,75.9,78.4" style="fill:rgb(23,22,21);font-family:Lato-Regular;font-size:7.5px;stroke:none;" xmlns:svgx="http://www.xml-cml.org/schema/svgx">gram (</text>
  <text svgx:width="0.56,0.53,0.51,0.4,0.48,0.52,0.22,0.53,0.4,0.23,0.79,0.53,0.53,0.48,0.52" y="76.0" x="80.4,84.5,88.5,92.3,95.3,98.9,102.8,104.5,108.5,111.5,113.7,119.6,123.6,127.6,131.1" style="fill:rgb(23,22,21);font-family:Lato-Italic;font-size:7.5px;stroke:none;" xmlns:svgx="http://www.xml-cml.org/schema/svgx">Phaseolus mungo</text>
  <text svgx:width="0.26,0.51,0.24,0.27,0.26,0.48,0.56,0.24,0.36,0.24,0.52,0.5,0.36,0.43,0.24,0.26" y="76.0" x="135.0,137.4,141.3,143.1,145.1,147.5,151.1,155.3,157.0,159.7,161.5,165.3,169.0,171.7,175.0,176.8" style="fill:rgb(23,22,21);font-family:Lato-Regular;font-size:7.5px;stroke:none;" xmlns:svgx="http://www.xml-cml.org/schema/svgx"> L.) cultivars. </text>
  <text svgx:width="0.47,0.95,0.55,0.35,0.23,0.53,0.52,0.52,0.53,0.23,0.51,0.45,0.23,0.48,0.53,0.45,0.48,0.23,0.51,0.53,0.53,0.23,0.55,0.48,0.45,0.53,0.53,0.52,0.22,0.52,0.48,0.48" y="76.0" x="179.2,182.4,189.5,193.2,195.8,195.8,199.4,203.3,207.2,211.2,213.4,217.2,220.6,222.3,225.9,229.9,233.2,236.8,239.1,242.9,246.9,250.9,252.9,256.1,259.7,263.1,267.1,271.1,275.0,276.7,280.5,284.2" style="fill:rgb(23,22,21);font-family:Lato-Italic;font-size:7.5px;stroke:none;" xmlns:svgx="http://www.xml-cml.org/schema/svgx">LWT- Food Science and Technology</text>
  <text svgx:width="0.23,0.26" y="76.0" x="287.8,289.5" style="fill:rgb(23,22,21);font-family:Lato-Regular;font-size:7.5px;stroke:none;" xmlns:svgx="http://www.xml-cml.org/schema/svgx">, </text>
  <text svgx:width="0.53,0.58" y="86.5" x="59.5,63.5" style="fill:rgb(23,22,21);font-family:Lato-Italic;font-size:7.5px;stroke:none;" xmlns:svgx="http://www.xml-cml.org/schema/svgx">60</text>
  <text svgx:width="0.27,0.58,0.27,0.23,0.26,0.58,0.58,0.58,0.58,0.58,0.58,0.58,0.24" y="86.5" x="67.8,69.8,74.2,76.2,77.9,79.8,84.1,88.5,92.8,97.2,101.5,105.9,110.2" style="fill:rgb(23,22,21);font-family:Lato-Regular;font-size:7.5px;stroke:none;" xmlns:svgx="http://www.xml-cml.org/schema/svgx">(2), 848–854.</text>
  <text svgx:width="0.62,0.5,0.56,0.52,0.23,0.26,0.51,0.24,0.23,0.26,0.67,0.56,0.53,0.56,0.23,0.26,0.42,0.24,0.26,0.76,0.24,0.23,0.26,0.6,0.56,0.5,0.56,0.52,0.23,0.26,0.76,0.24,0.23,0.26,0.8,0.24,0.56,0.23,0.26,1.03,0.24,0.23,0.26,0.51,0.24,0.56,0.23,0.26,0.8,0.24,0.26,0.76,0.24,0.23,0.26,0.6,0.53,0.56,0.52,0.23,0.26,0.65,0.24,0.23,0.26,0.75,0.26,0.62,0.5,0.56,0.52,0.23,0.26,0.76,0.24,0.26,0.66,0.24,0.26" y="97.0" x="46.5,50.3,54.0,58.2,62.1,63.8,66.1,69.9,71.7,73.4,75.6,80.6,84.8,88.8,93.0,94.7,96.7,99.8,101.6,103.8,109.5,111.3,113.0,115.2,119.7,123.9,127.6,131.8,135.7,137.4,139.6,145.4,147.1,148.8,151.1,157.0,158.8,163.0,164.7,166.8,174.2,176.0,177.7,179.9,183.8,185.6,189.7,191.4,193.7,199.5,201.3,203.5,209.2,211.0,212.7,215.0,219.3,223.2,227.4,231.3,233.0,235.2,240.1,241.9,243.6,245.8,251.4,253.4,257.2,261.0,265.1,269.0,270.7,273.0,278.7,280.5,282.7,287.7,289.5" style="fill:rgb(23,22,21);font-family:Lato-Regular;font-size:7.5px;stroke:none;" xmlns:svgx="http://www.xml-cml.org/schema/svgx">Yang, L., Chen, J. H., Zhang, H., Qiu, W., Liu, Q. H., Peng, X., … Yang, H. K. </text>
  <text svgx:width="0.27,0.58,0.58,0.58,0.58,0.27,0.24,0.26,0.68,0.24,0.51,0.5,0.24,0.24,0.26,0.36,0.36,0.53,0.5,0.36,0.82,0.53,0.56,0.36,0.26,0.5,0.35,0.35,0.53,0.48,0.36,0.43,0.26,0.24,0.56,0.26,0.52,0.24,0.36,0.36,0.57,0.26,0.56,0.24,0.52,0.53,0.43,0.36,0.24,0.56,0.24,0.24,0.24,0.36,0.51,0.26,0.5,0.56,0.56,0.26,0.56,0.24,0.24,0.53,0.26,0.5,0.48,0.24,0.56,0.26,0.56,0.24,0.56,0.56,0.37" y="107.5" x="59.5,61.5,65.8,70.2,74.5,78.9,80.9,82.6,84.5,89.6,91.4,95.2,98.9,100.7,102.5,104.6,107.3,109.9,113.9,117.5,120.2,126.4,130.3,134.5,137.2,139.3,143.0,145.6,148.1,152.1,155.7,158.3,161.6,163.7,165.5,169.7,171.7,175.6,177.4,180.1,182.6,186.9,189.0,193.2,195.0,198.9,202.8,206.1,208.8,210.6,214.8,216.6,218.3,220.1,222.8,226.5,228.7,232.4,236.6,240.8,242.9,247.1,248.9,250.7,254.7,256.8,260.5,264.1,265.9,270.1,272.3,276.5,278.3,282.5,286.7" style="fill:rgb(23,22,21);font-family:Lato-Regular;font-size:7.5px;stroke:none;" xmlns:svgx="http://www.xml-cml.org/schema/svgx">(2012). Alkali treatment affects in vitro digestibility and bile acid bind-</text>
  <text svgx:width="0.24,0.56,0.52,0.26,0.5,0.48,0.36,0.24,0.52,0.24,0.36,0.51,0.26,0.57,0.35,0.26,0.36,0.24,0.48,0.53,0.26,0.56,0.36,0.57,0.36,0.53,0.24,0.56,0.26,0.56,0.56,0.53,0.26,0.36,0.57,0.26,0.52,0.5,0.36,0.51,0.24,0.56,0.52,0.26,0.24,0.36,0.43,0.26,0.36,0.5,0.36,0.24,0.57,0.26,0.57,0.35,0.26,0.5,0.36,0.52,0.24,0.56,0.24,0.56,0.53,0.26,0.36,0.57,0.26,0.24,0.51,0.43,0.24,0.56,0.53,0.24,0.26" y="118.0" x="59.5,61.3,65.4,69.3,71.5,75.2,78.8,81.5,83.3,87.1,88.9,91.6,95.3,97.5,101.6,104.1,106.3,109.0,110.8,114.3,118.3,120.4,124.6,127.2,131.4,134.0,138.0,139.8,144.0,146.1,150.3,154.5,158.5,160.6,163.3,167.5,169.5,173.3,177.0,179.7,183.6,185.4,189.6,193.5,195.6,197.4,200.1,203.3,205.5,208.1,211.8,214.5,216.3,220.6,222.7,226.9,229.4,231.5,235.2,237.9,241.8,243.6,247.8,249.6,253.7,257.7,259.8,262.5,266.8,268.9,270.7,274.5,277.7,279.5,283.7,287.7,289.4" style="fill:rgb(23,22,21);font-family:Lato-Regular;font-size:7.5px;stroke:none;" xmlns:svgx="http://www.xml-cml.org/schema/svgx">ing activity of rice protein due to varying its ratio of arginine to lysine. </text>
  <text svgx:width="0.53,0.52,0.52,0.53,0.23,0.62,0.53,0.48,0.79,0.23,0.4,0.35,0.34,0.48" y="128.5" x="59.5,63.1,67.0,70.9,74.8,76.6,81.3,85.3,88.8,94.7,96.5,99.5,102.1,104.7" style="fill:rgb(23,22,21);font-family:Lato-Italic;font-size:7.5px;stroke:none;" xmlns:svgx="http://www.xml-cml.org/schema/svgx">Food Chemistry</text>
  <text svgx:width="0.23,0.26" y="128.5" x="108.3,110.0" style="fill:rgb(23,22,21);font-family:Lato-Regular;font-size:7.5px;stroke:none;" xmlns:svgx="http://www.xml-cml.org/schema/svgx">, </text>
  <text svgx:width="0.58,0.58,0.58" y="128.5" x="111.9,116.2,120.6" style="fill:rgb(23,22,21);font-family:Lato-Italic;font-size:7.5px;stroke:none;" xmlns:svgx="http://www.xml-cml.org/schema/svgx">132</text>
  <text svgx:width="0.27,0.58,0.27,0.23,0.26,0.58,0.58,0.58,0.58,0.58,0.58,0.58,0.24" y="128.5" x="124.9,127.0,131.3,133.3,135.0,136.9,141.3,145.6,150.0,154.3,158.7,163.0,167.4" style="fill:rgb(23,22,21);font-family:Lato-Regular;font-size:7.5px;stroke:none;" xmlns:svgx="http://www.xml-cml.org/schema/svgx">(2), 925–930.</text>
  <text svgx:width="0.77,0.57,0.8,0.24,0.37,0.57,0.24,0.48,0.25,0.37,0.53,0.24,0.37,0.56,0.25,0.44,0.24,0.51,0.37,0.37,0.25,0.48,0.25,0.53,0.26" y="66.5" x="319.5,325.5,330.0,336.3,338.1,341.0,345.4,347.3,351.0,352.9,355.8,359.9,361.8,364.6,369.0,370.9,374.3,376.1,380.1,382.9,385.8,387.7,391.4,393.3,397.4" style="fill:rgb(23,22,21);font-family:Lato-Bold;font-size:8.0px;stroke:none;" xmlns:svgx="http://www.xml-cml.org/schema/svgx">How to cite this article:</text>
  <text svgx:width="0.26,0.28,0.51,0.53,0.56,0.5,0.52,0.56,0.53,0.26,0.76,0.8,0.23,0.26,0.93,0.5,0.24,0.57,0.82,0.57,0.26,0.54,0.68,0.23,0.26,0.28,0.56,0.57,0.79,0.56,0.26,0.68,0.8,0.23,0.26" y="66.5" x="399.4,401.3,403.4,407.4,411.5,415.9,419.7,423.8,428.1,432.2,434.2,440.1,446.4,448.1,450.0,457.3,461.2,463.0,467.4,473.8,478.2,480.2,484.4,489.7,491.4,493.3,495.4,499.8,504.2,510.4,514.7,516.6,521.9,528.2,530.0" style="fill:rgb(23,22,21);font-family:Lato-Regular;font-size:8.0px;stroke:none;" xmlns:svgx="http://www.xml-cml.org/schema/svgx"> Iyenagbe DO, Malomo SA, Idowu AO, </text>
  <text svgx:width="0.65,0.5,0.56,0.53,0.24,0.57,0.26,0.68,0.68,0.23,0.26,0.56,0.5,0.52,0.56,0.53,0.82,0.24,0.26,0.59,0.76,0.24,0.26,0.58,0.35,0.35,0.53,0.48,0.36,0.43,0.26,0.57,0.35,0.26,0.36,0.56,0.53,0.36,0.82,0.5,0.24,0.26,0.56,0.36,0.57,0.48,0.53,0.43,0.43,0.24,0.56,0.52,0.26,0.57,0.56,0.26,0.36,0.56,0.53,0.26" y="79.5" x="319.5,324.5,328.4,332.8,336.9,338.7,343.1,345.0,350.3,355.6,357.3,359.2,363.6,367.5,371.5,375.9,380.0,386.4,388.2,390.2,394.8,400.7,402.5,404.4,408.9,411.6,414.3,418.4,422.1,424.8,428.2,430.1,434.5,437.2,439.1,441.9,446.2,450.3,453.1,459.6,463.4,465.2,467.1,471.5,474.3,478.7,482.4,486.5,489.8,493.2,495.0,499.3,503.4,505.3,509.7,514.1,516.0,518.7,523.1,527.3" style="fill:rgb(23,22,21);font-family:Lato-Regular;font-size:8.0px;stroke:none;" xmlns:svgx="http://www.xml-cml.org/schema/svgx">Badejo AA, Fagbemi TN. Effects of thermal processing on the </text>
  <text svgx:width="0.56,0.56,0.36,0.36,0.24,0.36,0.24,0.57,0.56,0.5,0.24,0.26,0.5,0.56,0.56,0.26,0.35,0.56,0.56,0.48,0.36,0.24,0.57,0.56,0.5,0.24,0.26,0.56,0.36,0.57,0.56,0.53,0.36,0.36,0.24,0.53,0.43,0.26,0.57,0.35,0.26,0.56,0.53,0.35,0.5,0.36,0.36,0.53,0.56,0.26,0.48,0.57,0.56,0.57,0.56,0.56,0.57,0.36,0.26,0.56,0.56,0.36,0.26" y="92.5" x="319.5,323.8,328.2,330.9,333.7,335.5,338.2,340.0,344.5,348.8,352.7,354.4,356.4,360.2,364.6,368.9,370.8,373.5,377.9,382.2,385.9,388.6,390.4,394.9,399.2,403.1,404.8,406.8,411.1,413.9,418.3,422.7,426.8,429.6,432.3,434.1,438.2,441.6,443.5,447.9,450.6,452.5,456.9,461.0,463.7,467.5,470.3,473.0,477.1,481.5,483.4,487.1,491.5,495.9,500.3,504.6,509.0,513.4,516.2,518.1,522.5,526.8,529.7" style="fill:rgb(23,22,21);font-family:Lato-Regular;font-size:8.0px;stroke:none;" xmlns:svgx="http://www.xml-cml.org/schema/svgx">nutritional and functional properties of defatted conophor nut </text>
  <text svgx:width="0.27" y="105.5" x="319.5" style="fill:rgb(23,22,21);font-family:Lato-Regular;font-size:8.0px;stroke:none;" xmlns:svgx="http://www.xml-cml.org/schema/svgx">(</text>
  <text svgx:width="0.55,0.48,0.35,0.34,0.51,0.45,0.51,0.34,0.53,0.23,0.53,0.23,0.53,0.79,0.23,0.45,0.52,0.53,0.52,0.53,0.53,0.52,0.34,0.53,0.79" y="105.5" x="321.5,325.8,329.5,332.2,334.8,338.8,342.3,346.2,348.8,353.0,354.7,358.8,360.5,364.6,370.8,372.5,376.1,380.1,384.2,388.2,392.3,396.5,400.5,403.1,407.2" style="fill:rgb(23,22,21);font-family:Lato-Italic;font-size:8.0px;stroke:none;" xmlns:svgx="http://www.xml-cml.org/schema/svgx">Tetracarpidium conophorum</text>
  <text svgx:width="0.27,0.26,0.35,0.24,0.57,0.56,0.36,0.26,0.5,0.56,0.56,0.26,0.56,0.36,0.57,0.36,0.53,0.24,0.56,0.26,0.24,0.43,0.57,0.24,0.5,0.36,0.53,0.43,0.24,0.26" y="105.5" x="413.4,415.4,417.3,420.0,421.8,426.2,430.5,433.3,435.3,439.1,443.5,447.8,449.7,454.1,456.9,461.3,464.1,468.2,470.0,474.3,476.2,478.0,481.4,485.8,487.6,491.4,494.2,498.3,501.6,503.4" style="fill:rgb(23,22,21);font-family:Lato-Regular;font-size:8.0px;stroke:none;" xmlns:svgx="http://www.xml-cml.org/schema/svgx">) flour and protein isolates. </text>
  <text svgx:width="0.53,0.52,0.52,0.53,0.23,0.51,0.45,0.23,0.23" y="105.5" x="505.3,509.4,513.5,517.5,521.6,523.4,527.3,530.8,532.6" style="fill:rgb(23,22,21);font-family:Lato-Italic;font-size:8.0px;stroke:none;" xmlns:svgx="http://www.xml-cml.org/schema/svgx">Food Sci </text>
  <text svgx:width="0.71,0.53,0.35,0.34" y="118.5" x="319.5,325.0,329.2,331.9" style="fill:rgb(23,22,21);font-family:Lato-Italic;font-size:8.0px;stroke:none;" xmlns:svgx="http://www.xml-cml.org/schema/svgx">Nutr</text>
  <text svgx:width="0.24,0.26,0.58,0.58,0.58,0.58,0.26,0.58,0.25,0.58,0.58,0.58,0.58,0.58,0.58,0.58,0.58,0.58,0.24,0.26" y="118.5" x="334.5,336.3,338.2,342.7,347.2,351.7,356.3,358.2,362.8,364.6,369.2,373.7,378.2,382.7,387.2,391.8,396.3,400.8,405.3,407.1" style="fill:rgb(23,22,21);font-family:Lato-Regular;font-size:8.0px;stroke:none;" xmlns:svgx="http://www.xml-cml.org/schema/svgx">. 2017;5:1170–1178. </text>
  <text svgx:width="0.56,0.36,0.36,0.56,0.43,0.25,0.45,0.45,0.56,0.57,0.24,0.24,0.57,0.36,0.52,0.45,0.58,0.58,0.24,0.58,0.58,0.58,0.58,0.45,0.35,0.43,0.56,0.58,0.24,0.58,0.58,0.58" y="118.5" x="409.0,413.4,416.1,418.8,423.2,426.5,428.4,431.9,435.4,439.8,444.2,446.0,447.8,452.2,455.0,459.0,462.5,467.0,471.5,473.3,477.8,482.4,486.9,491.4,494.9,497.6,500.9,505.3,509.8,511.5,516.1,520.6" style="fill:rgb(0,0,255);font-family:Lato-Regular;font-size:8.0px;stroke:none;" xmlns:svgx="http://www.xml-cml.org/schema/svgx">https://doi.org/10.1002/fsn3.508</text>
 </g>
</svg>
