<?xml version="1.0" encoding="UTF-8"?>
<svg height="767.08" width="4046.0" xmlns="http://www.w3.org/2000/svg">
 <g id="page" xmlns:svgx="http://www.xml-cml.org/schema/svgx">
  <path style="fill:rgb(58,90,166);stroke:none;stroke-width:1.0;" d="M499.580 111.680 L519.190 111.680 Z"/>
  <path style="fill:rgb(58,90,166);stroke:none;stroke-width:1.0;" d="M329.840 565.570 L475.820 565.570 Z"/>
  <path style="fill:rgb(58,90,166);stroke:none;stroke-width:1.0;" d="M501.280 565.570 L536.260 565.570 Z"/>
  <path style="fill:rgb(58,90,166);stroke:none;stroke-width:1.0;" d="M319.860 633.090 L454.900 633.090 Z"/>
  <path style="fill:rgb(58,90,166);stroke:none;stroke-width:1.0;" d="M480.420 633.090 L515.340 633.090 Z"/>
  <path style="fill:rgb(58,90,166);stroke:none;stroke-width:1.0;" d="M500.320 655.600 L561.150 655.600 Z"/>
  <path style="fill:rgb(58,90,166);stroke:none;stroke-width:1.0;" d="M221.500 665.060 L316.290 665.060 Z"/>
  <path style="fill:rgb(58,90,166);stroke:none;stroke-width:1.0;" d="M341.740 665.060 L376.670 665.060 Z"/>
  <g begin="text">
   <text y="84.586" x="200.012,204.242,209.302,217.482,222.643,226.973,230.682,234.913,240.21300000000002,242.419,245.398,250.498,252.68,257.43,262.18,266.93,270.839,277.46,279.76,281.99,288.09,293.359,297.659,299.79,303.391,308.55,312.781,317.01,319.991,323.701,328.031,330.531,332.729,336.96,342.229,346.56,352.039,356.68,360.909,364.509,366.802,371.132,374.732,378.332,383.392,387.622,390.282,394.612,397.592,401.822,407.122,409.32,416.151,418.81,421.791,427.091,429.333,434.914,441.534,446.334,448.495,452.826,458.306,463.606,465.786,471.367,477.987,482.78700000000003,485.005,489.336,493.046,497.346,499.463,504.943,510.003,513.0029999999999,515.222,519.453,524.513,528.222,531.932,536.162,538.622,542.952,545.932,550.162,555.432" svgx:width="0.43,0.51,0.82,0.52,0.44,0.38,0.43,0.53,0.55,0.3,0.51,0.55,0.48,0.48,0.48,0.4,0.67,0.23,0.55,0.61,0.53,0.43,0.55,0.36,0.52,0.43,0.43,0.3,0.38,0.44,0.25,0.55,0.43,0.53,0.44,0.55,0.47,0.43,0.36,0.55,0.44,0.36,0.36,0.51,0.43,0.27,0.44,0.3,0.43,0.53,0.55,0.69,0.27,0.3,0.53,0.55,0.56,0.67,0.48,0.55,0.44,0.55,0.53,0.55,0.56,0.67,0.48,0.55,0.44,0.38,0.43,0.55,0.55,0.51,0.3,0.55,0.43,0.51,0.38,0.38,0.43,0.25,0.44,0.3,0.43,0.53,0.23" style="fill:rgb(0,0,0);font-family:MinionPro-Regular;font-size:10.0px;stroke:none;">compared to 150˚C. The spectral changes associated with PC1 and PC2 are not correlated,</text>
   <text y="97.625" x="200.012,202.992,208.262,212.492,216.202,220.432,223.302,228.362,232.072,236.372,238.563,242.163,246.393,251.452,255.162,259.462,261.581,266.74,269.201,274.26,277.26,279.495,284.555,288.784,291.764,298.594,302.824,307.055,312.555,314.758,320.337,326.957,331.757,333.977,341.077,343.217,348.797,355.417,360.217,362.38,366.609,371.669,379.85,385.01,387.47,391.7,394.68,398.91,401.37,405.97,408.188,411.788,416.018,421.178,425.508,429.218,433.548,436.528,440.82800000000003,442.997,448.057,453.117,456.096,461.396,463.633,468.903,473.233,476.213,480.613,482.737,486.338,490.568,493.548,495.848,498.044,504.145,509.415,512.075,515.6750000000001,517.888,522.118,526.758,531.918,534.378,538.708,544.188,548.517,551.497,554.157,559.217" svgx:width="0.3,0.53,0.43,0.38,0.43,0.29,0.51,0.38,0.43,0.55,0.36,0.43,0.51,0.38,0.43,0.55,0.52,0.25,0.51,0.3,0.55,0.51,0.43,0.3,0.69,0.43,0.43,0.55,0.55,0.56,0.67,0.48,0.55,0.71,0.55,0.56,0.67,0.48,0.55,0.43,0.51,0.82,0.52,0.25,0.43,0.3,0.43,0.25,0.46,0.55,0.36,0.43,0.52,0.44,0.38,0.44,0.3,0.43,0.55,0.51,0.51,0.3,0.53,0.55,0.53,0.44,0.3,0.44,0.55,0.36,0.43,0.3,0.23,0.55,0.61,0.53,0.27,0.36,0.55,0.43,0.47,0.52,0.25,0.44,0.55,0.44,0.3,0.27,0.51,0.55" style="fill:rgb(0,0,0);font-family:MinionPro-Regular;font-size:10.0px;stroke:none;">therefore score plot between PC1 &amp; PC2 completely separate both data set. This explanation</text>
   <text y="110.607" x="200.013,202.993,208.263,212.493,216.203,220.433,223.303,228.363,232.073,236.37300000000002,238.563,242.163,247.433,252.073,256.713,260.943,264.543,267.523,271.753,277.053,279.269,282.249,287.519,291.849,294.849,297.07,300.049,305.32,309.62,311.754,315.984,318.444,322.773,326.374,329.974,332.634,335.504,338.164,342.393,346.724,349.703,352.364,357.424,362.924,365.215,370.275,373.17499999999995,375.363,380.633,383.293,386.163,389.033,393.263,396.973,401.203,406.683,409.683,411.929,417.198,421.529,424.509,428.909,431.035,435.674,439.385,444.445,449.715,454.875,458.475,460.742,464.341,469.612,474.672,481.502,487.002,489.258,491.918" svgx:width="0.3,0.53,0.43,0.38,0.43,0.29,0.51,0.38,0.43,0.55,0.36,0.53,0.47,0.47,0.43,0.36,0.3,0.43,0.53,0.55,0.3,0.53,0.44,0.3,0.55,0.3,0.53,0.43,0.55,0.43,0.25,0.44,0.36,0.36,0.27,0.29,0.27,0.43,0.44,0.3,0.27,0.51,0.55,0.55,0.51,0.29,0.55,0.53,0.27,0.29,0.29,0.43,0.38,0.43,0.55,0.3,0.55,0.53,0.44,0.3,0.44,0.55,0.47,0.38,0.51,0.53,0.52,0.36,0.55,0.36,0.53,0.51,0.69,0.55,0.55,0.27,0.55" style="fill:rgb(0,0,0);font-family:MinionPro-Regular;font-size:10.0px;stroke:none;">therefore suggested that the classification of different data groups shown in</text>
   <text y="110.607" x="499.576,504.846,507.505,512.205,514.372" svgx:width="0.53,0.27,0.47,0.55,0.48" style="fill:rgb(58,90,166);font-family:MinionPro-Regular;font-size:10.0px;stroke:none;">Fig 8</text>
   <text y="110.607" x="521.346,524.005,527.605,529.849,534.909,539.24,542.839,547.07,552.37,554.568,559.628" svgx:width="0.27,0.36,0.55,0.51,0.44,0.36,0.43,0.53,0.55,0.51,0.55" style="fill:rgb(0,0,0);font-family:MinionPro-Regular;font-size:10.0px;stroke:none;">is based on</text>
   <text y="123.59" x="200.012,202.992,208.262,212.562,214.695,222.875,227.936,230.395,234.625,238.855,244.125,246.585,250.915,254.715,256.874,261.104,266.374,270.704,276.185,280.824,285.055,288.65500000000003,290.947,297.776,303.047,305.706,309.936,315.236,317.422,321.753,326.912,332.073,336.302,340.633,344.342,348.573,353.873,356.086,361.357,366.626,370.926,373.094,376.075,381.175,383.356,388.625,392.856,397.186,400.166,402.826,408.306,413.006,415.216,420.276,423.176,425.365,430.005,435.275,439.505,443.805,445.945,449.544,453.875,462.055,467.215,469.675,473.905,477.505,479.805,482.0,488.101,493.371,497.601,501.201,505.50100000000003,507.682,510.553,513.213,518.693,523.963,526.623,532.103,536.743,540.3430000000001,542.606,546.206,551.476,556.116,560.756,564.986,568.586" svgx:width="0.3,0.53,0.43,0.55,0.82,0.51,0.25,0.43,0.43,0.53,0.25,0.44,0.38,0.55,0.43,0.53,0.44,0.55,0.47,0.43,0.36,0.55,0.69,0.53,0.27,0.43,0.53,0.55,0.44,0.52,0.52,0.43,0.44,0.38,0.43,0.53,0.55,0.53,0.53,0.43,0.55,0.3,0.51,0.55,0.53,0.43,0.44,0.3,0.27,0.55,0.47,0.55,0.51,0.29,0.55,0.47,0.53,0.43,0.43,0.55,0.36,0.44,0.82,0.52,0.25,0.43,0.36,0.23,0.55,0.61,0.53,0.43,0.36,0.43,0.55,0.29,0.27,0.55,0.53,0.27,0.55,0.47,0.36,0.55,0.36,0.53,0.47,0.47,0.43,0.36,0.3" style="fill:rgb(0,0,0);font-family:MinionPro-Regular;font-size:10.0px;stroke:none;">the molecular changes which appeared due to heating of ghee samples. These findings suggest</text>
   <text y="136.573" x="200.012,202.992,208.262,212.592,215.592,217.757,220.736,224.966,233.146,238.306,242.536,246.246,250.576,253.556,258.826,262.536,266.836,269.063,272.773,277.103,282.583,287.224,291.524,293.668,296.538,300.248,305.308,315.779,320.529,325.279,330.079,332.219,335.199,340.29900000000004,342.48,347.23,351.98,356.73,360.641,367.341,369.523,377.703,382.033,386.63300000000004,388.799,393.859,398.159,400.307,405.577,409.177,413.407,418.707,420.887,423.757,428.817,432.617,434.776,438.376,442.706,445.576,449.87600000000003,452.01,454.881,458.591,463.131,465.791,471.271,475.911,479.201,483.431,488.491,493.551,498.511,501.171,506.651,511.351,513.578,520.409,523.068,526.049,531.3489999999999,533.592,538.652,543.922,546.792,549.661,553.992,556.451" svgx:width="0.3,0.53,0.44,0.3,0.55,0.3,0.43,0.82,0.52,0.43,0.38,0.44,0.3,0.53,0.38,0.43,0.55,0.38,0.44,0.55,0.47,0.43,0.55,0.29,0.38,0.51,0.82,0.48,0.48,0.48,0.55,0.3,0.51,0.55,0.48,0.48,0.48,0.4,0.67,0.55,0.82,0.44,0.46,0.55,0.51,0.43,0.55,0.53,0.36,0.43,0.53,0.55,0.29,0.51,0.38,0.55,0.36,0.44,0.29,0.43,0.55,0.29,0.38,0.46,0.27,0.55,0.47,0.33,0.43,0.51,0.51,0.5,0.27,0.55,0.47,0.55,0.69,0.27,0.3,0.53,0.55,0.51,0.53,0.29,0.29,0.44,0.25,0.51" style="fill:rgb(0,0,0);font-family:MinionPro-Regular;font-size:10.0px;stroke:none;">that temperature range from140 to 170˚C may be used for safe frying/cooking with buffalo</text>
   <text y="149.612" x="200.013,204.653,209.923,214.153,218.453,220.592,227.422,230.082,233.062,238.332,243.392,248.662,251.662,253.927,259.197,264.677,269.947,274.177,277.887,282.527,287.587,290.247,295.727,300.42699999999996,302.626,306.956,312.116,317.276,320.986,325.216,329.446,332.106,336.436,341.496,343.956,348.25600000000003,350.475,354.705,359.975,364.305,369.785,374.425,378.655,382.255,384.49,387.15,392.65,394.865,397.525,400.505,404.105,406.317,411.797,416.127,419.107,424.377,428.087,432.417,434.917,437.101,445.281,450.341,452.801,457.031,461.261,466.531,468.991,473.321,477.12100000000004,479.337,482.937,485.917,489.627,494.897,499.127,502.107,507.377,511.087,515.387,517.548,521.878,527.358,532.6579999999999,534.839,537.709,542.769,547.829" svgx:width="0.47,0.53,0.43,0.43,0.55,0.69,0.27,0.3,0.53,0.51,0.53,0.3,0.55,0.53,0.55,0.53,0.43,0.38,0.47,0.51,0.27,0.55,0.47,0.55,0.44,0.52,0.52,0.38,0.43,0.43,0.27,0.44,0.51,0.25,0.43,0.55,0.43,0.53,0.44,0.55,0.47,0.43,0.36,0.55,0.27,0.55,0.55,0.27,0.3,0.36,0.55,0.55,0.44,0.3,0.53,0.38,0.44,0.25,0.55,0.82,0.51,0.25,0.43,0.43,0.53,0.25,0.44,0.38,0.55,0.36,0.3,0.38,0.53,0.43,0.3,0.53,0.38,0.43,0.55,0.44,0.55,0.53,0.55,0.29,0.51,0.51,0.53" style="fill:rgb(0,0,0);font-family:MinionPro-Regular;font-size:10.0px;stroke:none;">ghee without undergoing appreciable changes in its natural molecular structure and food</text>
   <text y="162.594" x="200.013,202.673,208.153,212.793,216.503,220.733,226.003,228.663,232.893,238.373,241.353,244.953,247.237,251.567,254.027,257.627,262.72700000000003,264.925,268.635,272.865,281.045,285.375,288.035,293.535,295.766,299.366,303.696,306.566,310.866,313.001,318.271,323.751,329.021,333.251,337.051,339.193,344.353,348.063,353.123,358.283,362.513,366.313,368.446,373.716,377.946,382.276,385.256,387.916,393.396,398.096,400.307,404.537,409.597,415.077,420.347,423.007,425.987,428.647,433.707,439.187,442.787" svgx:width="0.27,0.55,0.47,0.38,0.43,0.53,0.27,0.43,0.55,0.3,0.36,0.55,0.44,0.25,0.36,0.51,0.55,0.38,0.43,0.82,0.44,0.27,0.55,0.55,0.36,0.44,0.29,0.43,0.55,0.53,0.55,0.53,0.43,0.38,0.55,0.52,0.38,0.51,0.52,0.43,0.38,0.55,0.53,0.43,0.44,0.3,0.27,0.55,0.47,0.55,0.43,0.51,0.55,0.53,0.27,0.3,0.27,0.51,0.55,0.36,0.23" style="fill:rgb(0,0,0);font-family:MinionPro-Regular;font-size:10.0px;stroke:none;">ingredients also remain safe under proper heating conditions.</text>
  </g>
  <g begin="text">
   <text y="191.452" x="200.012,208.589,215.917,223.245,229.83,233.162,240.491,247.075,250.407,257.736" svgx:width="0.72,0.61,0.61,0.55,0.28,0.61,0.55,0.28,0.61,0.61" style="fill:rgb(0,0,0);font-family:Helvetica-Bold;font-size:12.0px;stroke:none;">Conclusion</text>
  </g>
  <g begin="text">
   <text y="208.46" x="200.012,205.283,207.742,213.012,218.072,221.783,226.012,229.612,233.842,238.072,243.552,247.783,252.083,254.266,257.866,263.026,267.257,271.486,274.466,278.176,283.236,286.836,291.066,296.126,301.286,305.886,308.124,313.395,317.724,321.324,323.545,328.605,332.836,337.065,342.565,344.748,348.979,357.159,362.318,364.779,369.839,374.379,378.609,383.909,386.19,389.06,394.12,397.92,400.023,403.004,408.273,412.57300000000004,414.706,418.937,424.207,428.536,432.247,436.577,440.807,443.787,448.017,451.727,454.387,458.507,462.837,465.817,468.477,473.537,479.037,481.378,486.438,489.33799999999997,491.526,496.586,501.856,504.726,507.596,511.926,514.386,519.486,521.685,526.326,531.596,535.826,540.126,542.265,545.135,550.195,553.995,556.154,559.135,564.405" svgx:width="0.53,0.25,0.53,0.51,0.38,0.43,0.36,0.43,0.43,0.55,0.43,0.43,0.55,0.36,0.52,0.43,0.43,0.3,0.38,0.51,0.36,0.43,0.51,0.52,0.46,0.55,0.53,0.44,0.36,0.55,0.51,0.43,0.43,0.55,0.55,0.43,0.82,0.52,0.25,0.51,0.46,0.43,0.53,0.55,0.29,0.51,0.38,0.55,0.3,0.53,0.43,0.55,0.43,0.53,0.44,0.38,0.44,0.43,0.3,0.43,0.38,0.27,0.42,0.44,0.3,0.27,0.51,0.55,0.55,0.51,0.29,0.55,0.51,0.53,0.29,0.29,0.44,0.25,0.51,0.55,0.47,0.53,0.43,0.43,0.55,0.29,0.51,0.38,0.55,0.3,0.53,0.43" style="fill:rgb(0,0,0);font-family:MinionPro-Regular;font-size:10.0px;stroke:none;">Fluorescence spectroscopy has been employed for the characterization of buffalo ghee for the</text>
   <text y="221.442" x="200.012,202.882,205.542,209.253,212.852,215.852,218.04,221.02,223.68,231.861,236.09,238.39000000000001,240.604,243.993,246.993,249.164,255.995,260.324,263.92400000000004,266.172,269.043,274.103,279.372,284.853,290.153,292.365,295.344,300.615,304.945,307.945,310.165,315.435,319.665,323.266,325.966,328.138,332.777,338.047,342.277,346.577,348.716,351.376,354.976,357.22,361.451,366.93,370.641,373.3,377.531,382.801,387.031,392.331,394.524,401.354,404.014,406.995,412.295,414.536,421.156,426.526,433.357,435.65700000000004,437.837,442.377,445.037,448.017,452.347,460.528,463.188,468.668,472.168,479.068,481.263,485.594,491.073,496.373,498.555,502.155,510.336,514.665,517.125,519.625,521.855,526.915,532.185,536.515,541.995,544.975,547.635,550.615,553.275,557.505,561.105,563.354,568.414" svgx:width="0.29,0.27,0.38,0.36,0.3,0.55,0.3,0.27,0.82,0.43,0.23,0.55,0.34,0.3,0.55,0.69,0.44,0.36,0.55,0.29,0.51,0.53,0.55,0.53,0.55,0.3,0.53,0.44,0.3,0.55,0.53,0.43,0.36,0.27,0.55,0.47,0.53,0.43,0.43,0.55,0.27,0.36,0.55,0.43,0.55,0.38,0.27,0.43,0.53,0.43,0.53,0.55,0.69,0.27,0.3,0.53,0.55,0.67,0.54,0.69,0.23,0.55,0.46,0.27,0.3,0.44,0.82,0.27,0.55,0.35,0.69,0.55,0.44,0.55,0.53,0.55,0.36,0.82,0.44,0.25,0.25,0.55,0.51,0.53,0.44,0.55,0.3,0.27,0.3,0.27,0.43,0.36,0.55,0.51,0.29" style="fill:rgb(0,0,0);font-family:MinionPro-Regular;font-size:10.0px;stroke:none;">first time. It was found that desi ghee is enriched with CLA, vitamin-A and small quantities of</text>
   <text y="234.425" x="200.012,204.552,207.212,210.192,214.522,222.702,225.362,230.862,233.12,240.47,242.77,244.912,250.612,252.792,257.122,262.602,267.902,270.083,276.813,279.113,281.309,284.699,290.199,292.364,296.694,301.964,307.234,309.894,312.874,315.534,320.594,326.074,328.374,330.631,334.861,343.041,345.701,349.301,352.901,355.561,360.621,366.121,368.388,371.988,377.148,381.378,385.608,388.588,392.298,396.628,399.128,401.327,405.037,409.267,413.907,416.567,421.627,427.127,429.333,432.203,435.913,440.973,451.386,456.136,460.886,465.636,470.796,475.546,480.296,485.096,487.329,492.809,503.203,508.473,512.803,516.403,518.624,523.684,527.914,532.144,537.644,539.827,544.157,547.757,551.357,554.017,558.657,564.137,568.367" svgx:width="0.46,0.27,0.3,0.44,0.82,0.27,0.55,0.55,0.74,0.23,0.55,0.57,0.55,0.44,0.55,0.53,0.55,0.68,0.23,0.55,0.34,0.55,0.55,0.44,0.53,0.53,0.27,0.3,0.27,0.51,0.55,0.23,0.55,0.43,0.82,0.27,0.36,0.36,0.27,0.51,0.55,0.55,0.36,0.52,0.43,0.43,0.3,0.38,0.44,0.25,0.55,0.38,0.43,0.47,0.27,0.51,0.55,0.55,0.29,0.38,0.51,0.82,0.48,0.48,0.48,0.52,0.48,0.48,0.48,0.55,0.55,0.82,0.53,0.44,0.36,0.55,0.51,0.43,0.43,0.55,0.55,0.44,0.36,0.36,0.27,0.47,0.55,0.43,0.53" style="fill:rgb(0,0,0);font-family:MinionPro-Regular;font-size:10.0px;stroke:none;">vitamin D, E and K. In addition, emission spectral region from620–700 nmhas been assigned</text>
   <text y="247.464" x="200.012,202.992,208.09199999999998,210.273,214.503,219.773,222.233,227.293,231.003,236.063,241.223,246.493,251.033,253.493,255.953,258.253,260.446,263.836,266.836,269.063,275.893,280.223,283.82300000000004,286.014,291.074,296.134,299.734,303.964,307.674,312.214,316.444,321.744,323.998,326.978,332.248,336.578,339.578,341.743,347.013,352.21299999999997,354.442,357.422,362.52200000000005,364.647,369.04699999999997,371.223,374.203,378.433,386.613,391.773,396.003,399.713,404.043,407.023,412.293,416.003,420.303,422.473,427.533,430.433,432.621,437.371,442.121,446.871,450.781,457.401,459.701,461.931,467.201,471.431,475.031,477.731,479.903,484.543,489.813,494.043,498.343,500.539,504.249,508.479,516.659,520.989,523.649,529.129,532.729,534.951,538.551,541.531,545.861,550.921,553.381" svgx:width="0.3,0.51,0.55,0.43,0.53,0.25,0.51,0.38,0.51,0.52,0.53,0.46,0.25,0.25,0.23,0.55,0.34,0.3,0.55,0.69,0.44,0.36,0.55,0.51,0.51,0.36,0.43,0.38,0.46,0.43,0.53,0.55,0.3,0.53,0.44,0.3,0.55,0.53,0.52,0.55,0.3,0.51,0.55,0.44,0.55,0.3,0.43,0.82,0.52,0.43,0.38,0.44,0.3,0.53,0.38,0.43,0.55,0.51,0.29,0.55,0.48,0.48,0.48,0.4,0.67,0.23,0.55,0.53,0.43,0.36,0.27,0.55,0.47,0.53,0.43,0.43,0.55,0.38,0.43,0.82,0.44,0.27,0.55,0.36,0.55,0.36,0.3,0.44,0.51,0.25,0.43" style="fill:rgb(0,0,0);font-family:MinionPro-Regular;font-size:10.0px;stroke:none;">to chlorophyll. It was observed that up to a temperature of 150˚C, desi ghee remains stable</text>
   <text y="260.447" x="200.012,206.842,212.112,216.342,221.842,224.049,229.319,233.549,237.879,240.859,245.089,250.389,252.565,255.435,260.495,264.295,266.455,270.85499999999996,272.975,275.955,278.615,286.795,291.095,293.271,298.431,302.661,306.371,309.031,314.091,319.391,321.617,326.677,329.577,331.765,334.635,337.295,341.835,346.135,348.319,356.499,359.159,364.639,369.909,372.889,377.119,380.719,383.019,385.226,392.886,397.116,401.446,404.426,407.086,412.566,417.26599999999996,419.468,424.528,427.428,429.616,434.886,439.116,442.716,445.416,447.588,452.228,457.498,461.728,466.028,468.167,471.037,474.747,479.807,490.221,494.971,499.721,504.471,509.631,514.381,519.131,523.881,527.791,534.4910000000001,536.709,541.979,547.039,551.269,554.869,557.118,562.598,567.658" svgx:width="0.69,0.53,0.43,0.55,0.55,0.53,0.43,0.44,0.3,0.43,0.53,0.55,0.29,0.51,0.38,0.55,0.44,0.55,0.3,0.27,0.82,0.43,0.55,0.52,0.43,0.38,0.27,0.51,0.53,0.55,0.51,0.29,0.55,0.29,0.27,0.46,0.43,0.55,0.82,0.27,0.55,0.53,0.3,0.43,0.36,0.23,0.55,0.77,0.43,0.44,0.3,0.27,0.55,0.47,0.55,0.51,0.29,0.55,0.53,0.43,0.36,0.27,0.55,0.47,0.53,0.43,0.43,0.55,0.29,0.38,0.51,0.82,0.48,0.48,0.48,0.52,0.48,0.48,0.48,0.4,0.67,0.55,0.53,0.51,0.43,0.36,0.55,0.55,0.51,0.3" style="fill:rgb(0,0,0);font-family:MinionPro-Regular;font-size:10.0px;stroke:none;">when heated for a time period of five minutes. Heating of desi ghee from140–150˚C does not</text>
   <text y="273.429" x="200.012,204.342,207.212,210.082,214.312,218.542,221.542,223.766,226.426,229.406,233.006,235.218,240.698,245.028,248.008,253.278,256.988,261.318,263.818,266.002,274.182,279.242,281.702,285.932,290.162,295.432,297.892,302.222,306.022,308.181,312.411,317.471,325.651,330.811,335.871,339.471,342.131,345.111,347.771,352.831,358.331,360.622,364.952,370.432,375.732,377.969,380.949,386.219,388.879,392.47900000000004,394.694,397.674,401.904,410.084,415.244,419.474,423.184,427.514,430.494,435.764,439.474,443.774,445.944,449.654,453.984,459.464,464.104,468.404,470.605,474.835,479.165,484.665,486.876,491.936,496.236,498.384,503.654,507.254,511.484,516.784,518.964,521.834,526.894,530.694,532.797,538.067,543.127,548.397,551.997,556.227,561.497,566.557,569.017" svgx:width="0.44,0.29,0.29,0.43,0.43,0.3,0.55,0.27,0.3,0.36,0.55,0.55,0.44,0.3,0.53,0.38,0.44,0.25,0.55,0.82,0.51,0.25,0.43,0.43,0.53,0.25,0.44,0.38,0.55,0.43,0.51,0.82,0.52,0.51,0.36,0.27,0.3,0.27,0.51,0.55,0.55,0.44,0.55,0.53,0.55,0.3,0.53,0.27,0.36,0.55,0.3,0.43,0.82,0.52,0.43,0.38,0.44,0.3,0.53,0.38,0.43,0.55,0.38,0.44,0.55,0.47,0.43,0.55,0.43,0.44,0.55,0.55,0.51,0.43,0.55,0.53,0.36,0.43,0.53,0.55,0.29,0.51,0.38,0.55,0.53,0.51,0.53,0.36,0.43,0.53,0.51,0.25,0.53" style="fill:rgb(0,0,0);font-family:MinionPro-Regular;font-size:10.0px;stroke:none;">affect its natural molecular composition and this temperature range can be used for household</text>
   <text y="286.468" x="200.012,204.242,209.302,214.362,219.322,221.982,227.462,232.102,235.392,238.262,241.972,246.512,249.172,254.652,259.352,261.58,266.74,272.01,275.72,280.88,285.94,289.54,293.77,297.37,299.67,301.888,309.548,314.608,321.438,325.668,330.208,334.438,338.148,340.44800000000004,342.65,347.92,353.12,355.349,358.329,363.42900000000003,365.554,368.534,372.764,380.944,386.104,390.334,394.044,398.374,401.354,406.625,410.334,414.634,416.861,421.921,424.82099999999997,427.008,431.758,436.508,441.258,445.168,451.788,454.088,456.319,460.959,466.229,470.459,474.759,476.898,481.128,485.458,490.958,493.169,498.229,502.529,504.677,509.947,513.547,517.777,523.077,525.257,528.127,533.187,536.987,539.09,543.32,548.38,553.44,558.4,561.06,566.54,571.18" svgx:width="0.43,0.51,0.51,0.5,0.27,0.55,0.47,0.33,0.29,0.38,0.46,0.27,0.55,0.47,0.55,0.52,0.53,0.38,0.52,0.51,0.36,0.43,0.36,0.23,0.55,0.77,0.51,0.69,0.43,0.46,0.43,0.38,0.23,0.55,0.53,0.52,0.55,0.3,0.51,0.55,0.3,0.43,0.82,0.52,0.43,0.38,0.44,0.3,0.53,0.38,0.43,0.55,0.51,0.29,0.55,0.48,0.48,0.48,0.4,0.67,0.23,0.55,0.47,0.53,0.43,0.43,0.55,0.43,0.44,0.55,0.55,0.51,0.43,0.55,0.53,0.36,0.43,0.53,0.55,0.29,0.51,0.38,0.55,0.43,0.51,0.51,0.5,0.27,0.55,0.47,0.33" style="fill:rgb(0,0,0);font-family:MinionPro-Regular;font-size:10.0px;stroke:none;">cooking/frying purposes. However, up to temperature of 170˚C, ghee can be used for cooking/</text>
   <text y="299.451" x="200.012,202.882,206.592,211.132,213.792,219.272,223.97199999999998,226.147,232.977,235.637,238.617,243.917,246.103,248.563,252.793,256.393,259.993,262.26,267.53,271.76,274.74,278.97,282.68,285.34,290.4,294.11,298.44,301.42,304.08,309.14,314.64,316.912,321.972,324.87199999999996,327.06,331.6,335.93,338.39,343.66,347.99,353.05,355.51,359.81,361.982,364.642,370.122,374.762,378.472,382.702,387.972,390.633,394.862,400.343,403.323,406.923,409.223,411.418,418.248,423.308,428.368,432.908,437.208,439.424,442.404,446.634,454.814,459.974,464.204,467.914,472.245,475.224,480.495,484.205,488.505,490.674,495.734,498.63399999999996,500.822,505.572,510.322,515.072,518.982,525.602,527.9019999999999,530.132,532.792,535.792,537.956,543.226,547.456,550.436,554.666,558.376,561.036,566.096" svgx:width="0.29,0.38,0.46,0.27,0.55,0.47,0.55,0.69,0.27,0.3,0.53,0.55,0.25,0.43,0.36,0.36,0.55,0.53,0.43,0.3,0.43,0.38,0.27,0.51,0.38,0.44,0.3,0.27,0.51,0.55,0.55,0.51,0.29,0.55,0.46,0.44,0.25,0.53,0.44,0.51,0.25,0.43,0.55,0.27,0.55,0.47,0.38,0.43,0.53,0.27,0.43,0.55,0.3,0.36,0.23,0.55,0.69,0.51,0.51,0.46,0.43,0.55,0.3,0.43,0.82,0.52,0.43,0.38,0.44,0.3,0.53,0.38,0.43,0.55,0.51,0.29,0.55,0.48,0.48,0.48,0.4,0.67,0.23,0.55,0.27,0.3,0.55,0.53,0.43,0.3,0.43,0.38,0.27,0.51,0.35" style="fill:rgb(0,0,0);font-family:MinionPro-Regular;font-size:10.0px;stroke:none;">frying with less deterioration of valuable ingredients. Above temperature of 180˚C, it deterio-</text>
   <text y="312.434" x="200.012,203.722,208.052,211.032,215.262,218.862,221.101,229.281,234.341,238.051,242.351,244.515,248.845,254.325,259.625,261.806,269.986,275.046,278.756,283.056,285.22,289.55,295.03,300.33,302.512,307.572,311.802,316.032,321.092,329.272,333.502,337.10200000000003,339.362,343.072,347.402,352.882,357.112,359.772,365.072,367.311,371.641,374.641,376.836,381.586,386.336,391.086,394.996,401.616" svgx:width="0.38,0.44,0.3,0.43,0.36,0.55,0.82,0.51,0.38,0.43,0.55,0.44,0.55,0.53,0.55,0.82,0.51,0.38,0.43,0.55,0.44,0.55,0.53,0.55,0.51,0.43,0.43,0.51,0.82,0.43,0.36,0.55,0.38,0.44,0.55,0.43,0.27,0.53,0.55,0.44,0.3,0.55,0.48,0.48,0.48,0.4,0.67,0.23" style="fill:rgb(0,0,0);font-family:MinionPro-Regular;font-size:10.0px;stroke:none;">rates more and more and becomes rancid at 250˚C.</text>
  </g>
  <g begin="text">
   <text y="341.291" x="200.012,208.589,215.173,221.758,229.086,236.414,245.747,249.079,255.663,262.992,270.32,280.9,287.485,294.746,298.702" svgx:width="0.72,0.55,0.55,0.61,0.61,0.78,0.28,0.55,0.61,0.61,0.88,0.55,0.61,0.33,0.55" style="fill:rgb(0,0,0);font-family:Helvetica-Bold;font-size:12.0px;stroke:none;">Acknowledgments</text>
  </g>
  <g begin="text">
   <text y="358.299" x="200.012,208.923,212.632,214.93200000000002,217.076,224.426,228.757,233.296,237.526,241.757,247.05700000000002,249.277,256.107,261.378,269.557,273.888,279.188,281.422,284.082,287.682,289.927,294.466,298.697,302.406,307.00600000000003,309.146,313.785,317.495,321.826,324.805,329.035,331.905,337.175,339.675,341.914,344.893,349.993,352.118,359.469,363.798,366.779,369.438,374.499,379.979,384.309,386.809,389.081,392.471,397.952,401.552,404.532,407.192,410.172,415.442,418.422,422.72200000000004,424.911,429.971,432.871,435.06,440.43,444.76,448.359,452.59,456.299,459.899,462.102,466.432,471.911,477.211,479.45,486.909,492.07,495.049,498.76,503.82,509.3,511.96,516.19,519.7900000000001,522.026,525.416,532.766,536.156,541.526,548.986,554.565" svgx:width="0.89,0.38,0.23,0.55,0.74,0.44,0.46,0.43,0.43,0.53,0.55,0.69,0.53,0.82,0.44,0.53,0.55,0.27,0.36,0.55,0.46,0.43,0.38,0.46,0.55,0.47,0.38,0.44,0.3,0.43,0.29,0.53,0.25,0.55,0.3,0.51,0.55,0.74,0.44,0.3,0.27,0.51,0.55,0.44,0.25,0.55,0.34,0.55,0.36,0.3,0.27,0.3,0.53,0.3,0.43,0.55,0.51,0.29,0.55,0.54,0.44,0.36,0.43,0.38,0.36,0.55,0.44,0.55,0.53,0.55,0.75,0.52,0.3,0.38,0.51,0.55,0.27,0.43,0.36,0.55,0.34,0.74,0.34,0.54,0.75,0.56,0.34" style="fill:rgb(0,0,0);font-family:MinionPro-Regular;font-size:10.0px;stroke:none;">Mr. Naveed Ahmad is very grateful to National Institute of Lasers and Optronics (NILOP)</text>
   <text y="371.281" x="200.012,203.402,207.003,209.462,213.792,221.973,226.302,231.363,235.693,240.99300000000002,243.212,246.081,251.141,254.941,257.102,262.262,265.971,271.031,275.572,278.232,283.501,286.161,291.641,296.341,298.543,301.523,306.794,311.094,313.227,318.707,322.938,327.168,331.398,334.997,338.598,342.927,346.638,351.238,353.479,357.188,361.419,365.018,369.249,373.578,377.289,381.519,386.819,389.024,391.895,396.224,400.455,403.115,405.575,408.235,411.215,413.875,418.105,421.705" svgx:width="0.34,0.36,0.25,0.44,0.82,0.44,0.51,0.44,0.53,0.55,0.29,0.51,0.38,0.55,0.52,0.38,0.51,0.46,0.27,0.53,0.27,0.55,0.47,0.55,0.3,0.53,0.43,0.55,0.55,0.43,0.43,0.43,0.36,0.36,0.44,0.38,0.46,0.55,0.38,0.43,0.36,0.43,0.44,0.38,0.43,0.53,0.55,0.29,0.44,0.43,0.27,0.25,0.27,0.3,0.27,0.43,0.36,0.23" style="fill:rgb(0,0,0);font-family:MinionPro-Regular;font-size:10.0px;stroke:none;">Islamabad for providing the necessary research facilities.</text>
  </g>
  <g begin="text">
   <text y="400.139" x="200.012,208.589,215.917,219.874,227.202,234.53,239.09,241.737,250.314,257.642,264.97,268.927,273.507,276.839,284.168,291.496,295.453,298.785,306.113,313.442" svgx:width="0.72,0.61,0.33,0.61,0.61,0.38,0.55,0.72,0.61,0.61,0.33,0.38,0.28,0.61,0.61,0.33,0.28,0.61,0.61,0.55" style="fill:rgb(0,0,0);font-family:Helvetica-Bold;font-size:12.0px;stroke:none;">Author Contributions</text>
  </g>
  <g begin="text">
   <text y="417.147" x="200.012,204.973,210.452,215.932,220.262,224.283,228.923,231.792,235.602,238.473,243.632,249.212" svgx:width="0.5,0.55,0.55,0.44,0.41,0.47,0.29,0.38,0.29,0.52,0.56,0.25" style="fill:rgb(0,0,0);font-family:MinionPro-Bold;font-size:10.0px;stroke:none;">Supervision:</text>
   <text y="417.147" x="253.983,262.893,265.193,267.362,272.112,276.443,278.902,283.133,287.362,295.543" svgx:width="0.89,0.23,0.55,0.48,0.44,0.25,0.43,0.43,0.82,0.23" style="fill:rgb(0,0,0);font-family:MinionPro-Regular;font-size:10.0px;stroke:none;">M. Saleem.</text>
   <text y="435.174" x="200.012,209.762,213.783,216.652,220.042,222.912,228.492,233.392,235.615,240.715,242.871,248.031,252.051,254.921,259.771,262.642,268.221,272.862,275.66200000000003,277.908,283.388,287.408,292.047,295.338,298.728" svgx:width="0.98,0.41,0.29,0.34,0.29,0.56,0.49,0.55,0.51,0.55,0.52,0.41,0.29,0.49,0.29,0.56,0.47,0.28,0.55,0.55,0.41,0.47,0.33,0.34,0.25" style="fill:rgb(0,0,0);font-family:MinionPro-Bold;font-size:10.0px;stroke:none;">Writing – original draft:</text>
   <text y="435.174" x="303.419,310.77,315.099,319.639,323.87,328.099,333.399,335.62,342.451,347.721,355.901,360.231,365.5,367.8,370.033,378.943,381.243,383.412,388.163,392.492,394.953,399.182,403.413,411.593" svgx:width="0.74,0.44,0.46,0.43,0.43,0.53,0.55,0.69,0.53,0.82,0.44,0.53,0.23,0.55,0.89,0.23,0.55,0.48,0.44,0.25,0.43,0.43,0.82,0.23" style="fill:rgb(0,0,0);font-family:MinionPro-Regular;font-size:10.0px;stroke:none;">Naveed Ahmad, M. Saleem.</text>
   <text y="453.146" x="200.012,209.762,213.783,216.652,220.042,222.912,228.492,233.392,235.615,240.715,242.871,246.891,251.221,255.861,258.732,263.061,269.96099999999996,272.125,281.479,285.81,291.289,294.159,297.549,300.419,305.999,310.849" svgx:width="0.98,0.41,0.29,0.34,0.29,0.56,0.49,0.55,0.51,0.55,0.41,0.44,0.47,0.29,0.44,0.69,0.55,0.72,0.44,0.55,0.29,0.34,0.29,0.56,0.49,0.25" style="fill:rgb(0,0,0);font-family:MinionPro-Bold;font-size:10.0px;stroke:none;">Writing – review &amp;editing:</text>
   <text y="453.146" x="315.608,324.518,326.818,328.987,333.737,338.068,340.527,344.758,348.987,357.168" svgx:width="0.89,0.23,0.55,0.48,0.44,0.25,0.43,0.43,0.82,0.23" style="fill:rgb(0,0,0);font-family:MinionPro-Regular;font-size:10.0px;stroke:none;">M. Saleem.</text>
  </g>
  <g begin="text">
   <text y="486.992" x="200.012,208.589,215.173,219.13,225.714,230.294,236.879,244.207,250.791,257.376" svgx:width="0.72,0.55,0.33,0.55,0.38,0.55,0.61,0.55,0.55,0.55" style="fill:rgb(0,0,0);font-family:Helvetica-Bold;font-size:12.0px;stroke:none;">References</text>
  </g>
  <g begin="text">
   <text y="500.485" x="204.888,209.264" svgx:width="0.55,0.28" style="fill:rgb(0,0,0);font-family:Helvetica-Bold;font-size:8.0px;stroke:none;">1.</text>
   <text y="500.485" x="221.498,227.706,232.082,236.458,240.834,245.21,246.914,248.67399999999998,250.299,256.003,261.707,263.947,265.663,269.622,273.998,275.702,280.102,281.82,288.444,293.732,295.97200000000004,297.637,303.844,308.22,312.596,316.972,319.212,320.881,323.089,325.297,329.297,330.972,336.676,341.052,345.428,352.052,353.756,357.716,359.924,362.548,366.508,368.748,370.373,375.661,378.285,382.661,386.621,390.997,394.957,398.917,400.621,404.997,409.397,411.022,415.398,419.774,424.174,425.876,430.748,435.124,439.084,443.46,447.835,452.211,453.915,458.291,462.667,466.524,468.764,470.493,474.493,476.219,481.923,486.299,488.003,490.627,494.627,496.288,501.576,505.536,507.24,509.48,511.198,516.486,518.19,522.15,526.526,530.486,532.19,536.566,539.091,541.331,543.059,547.435,551.811,556.187,560.563,562.803,564.489,568.865,573.241" svgx:width="0.78,0.55,0.55,0.55,0.55,0.22,0.22,0.55,0.72,0.72,0.28,0.55,0.5,0.55,0.22,0.55,0.55,0.83,0.67,0.28,0.55,0.78,0.55,0.55,0.55,0.28,0.55,0.28,0.28,0.5,0.55,0.72,0.55,0.55,0.83,0.22,0.5,0.28,0.33,0.5,0.28,0.55,0.67,0.33,0.55,0.5,0.55,0.5,0.5,0.22,0.55,0.55,0.55,0.55,0.55,0.55,0.55,0.61,0.55,0.5,0.55,0.55,0.55,0.22,0.55,0.55,0.5,0.28,0.55,0.5,0.55,0.72,0.55,0.22,0.33,0.5,0.55,0.67,0.5,0.22,0.28,0.55,0.67,0.22,0.5,0.55,0.5,0.22,0.55,0.33,0.28,0.55,0.55,0.55,0.55,0.55,0.28,0.55,0.55,0.55,0.28" style="fill:rgb(0,0,0);font-family:Helvetica;font-size:8.0px;stroke:none;">Ganguli NC, Jain MK. Ghee: Its Chemistry, Processing and Technology. J Dairy Sci. Elsevier; 1973; 56:</text>
   <text y="510.009" x="221.498,225.874,230.25,234.626,239.002,243.378" svgx:width="0.55,0.55,0.55,0.55,0.55,0.28" style="fill:rgb(0,0,0);font-family:Helvetica;font-size:8.0px;stroke:none;">19–25.</text>
   <text y="522.992" x="204.888,209.264" svgx:width="0.55,0.28" style="fill:rgb(0,0,0);font-family:Helvetica-Bold;font-size:8.0px;stroke:none;">2.</text>
   <text y="522.992" x="221.498,226.786,230.746,235.122,237.746,242.122,246.498,248.202,252.578,256.954,258.714,260.333,266.957,271.333,273.57300000000004,275.243,280.531,284.907,287.531,291.907,296.283,300.659,307.283,311.13,315.506,319.90599999999995,321.618,327.322,332.61,334.85,336.585,342.289,346.665,349.289,353.249,357.625,362.001,366.001,367.596,371.556,373.796,375.532,380.892,382.563,385.187,389.563,393.523,395.227,399.602,406.997,411.373,415.749,420.125,424.501,427.125,429.365,431.035,436.739,441.115,443.739,446.363,450.739,455.115,457.355,459.041,463.001,467.377,471.753,477.457,479.161,483.537,487.913,492.289,496.68899999999996,498.329,502.705,504.945,506.663,511.039,515.415,519.791,524.191,525.825,530.201,534.577,538.977,540.678,543.302,547.678,549.382,553.758,555.966,560.342" svgx:width="0.67,0.5,0.55,0.33,0.55,0.55,0.22,0.55,0.55,0.22,0.55,0.83,0.55,0.28,0.55,0.67,0.55,0.33,0.55,0.55,0.55,0.83,0.5,0.55,0.55,0.55,0.72,0.67,0.28,0.55,0.72,0.55,0.33,0.5,0.55,0.55,0.5,0.55,0.5,0.28,0.55,0.67,0.55,0.33,0.55,0.5,0.22,0.55,0.72,0.55,0.55,0.55,0.55,0.33,0.28,0.55,0.72,0.55,0.33,0.33,0.55,0.55,0.28,0.55,0.5,0.55,0.55,0.72,0.22,0.55,0.55,0.55,0.55,0.55,0.55,0.28,0.55,0.55,0.55,0.55,0.55,0.55,0.55,0.55,0.55,0.55,0.33,0.55,0.22,0.55,0.28,0.55,0.55" style="fill:rgb(0,0,0);font-family:Helvetica;font-size:8.0px;stroke:none;">Sserunjogi ML, Abrahamsen RK, Narvhus J. A reviewpaper: Current knowledge of ghee and related</text>
   <text y="532.516" x="221.498,225.874,228.498,232.874,237.25,241.626,245.586,247.794,251.754,253.994,255.627,257.835,262.211,264.451,266.172,271.876,276.252,277.956,280.58,284.58,286.241,290.201,292.44100000000003,294.179,298.555,302.931,307.307,311.683,313.923,315.551,319.927,322.16700000000003,323.886,328.262,332.638,337.014,341.39,345.766,350.141,354.517" svgx:width="0.55,0.33,0.55,0.55,0.55,0.5,0.28,0.5,0.28,0.55,0.28,0.55,0.28,0.55,0.72,0.55,0.22,0.33,0.5,0.55,0.5,0.28,0.55,0.55,0.55,0.55,0.55,0.28,0.55,0.55,0.28,0.55,0.55,0.55,0.55,0.55,0.55,0.55,0.55,0.28" style="fill:rgb(0,0,0);font-family:Helvetica;font-size:8.0px;stroke:none;">products. Int Dairy J. 1998; 8: 677–688.</text>
   <text y="545.499" x="204.888,209.264" svgx:width="0.55,0.28" style="fill:rgb(0,0,0);font-family:Helvetica-Bold;font-size:8.0px;stroke:none;">3.</text>
   <text y="545.499" x="221.498,227.202,231.578,233.282,237.658,242.034,246.41,250.786,255.061,257.685,262.061,263.82099999999997,265.492,270.78,273.02,274.733,280.021,284.397,288.773,294.477,298.852,300.61199999999997,302.285,307.989,310.229,311.924,316.795,320.755,325.131,329.507,331.267,332.956,338.244,340.48400000000004,342.198,347.485,349.693,354.069,358.445,360.653,365.029,369.429,371.054,376.758,378.998,380.691,386.395,390.771,394.731,398.731,400.421,405.709,407.949,409.661,415.365,417.069,421.445,425.84499999999997,427.52,431.48,435.856,440.232,441.936,446.311,450.687,455.063,457.271,461.647,466.04699999999997,467.715,469.419,471.123,475.499,479.875,481.579,485.955,487.659,491.659,493.34,497.716,501.676,503.38,507.78,509.44,513.816,518.192,520.816,522.52,526.48,530.856,535.232,539.632,541.301,545.677,550.053,554.429" svgx:width="0.72,0.55,0.22,0.55,0.55,0.55,0.55,0.55,0.33,0.55,0.22,0.55,0.67,0.28,0.55,0.67,0.55,0.55,0.72,0.55,0.22,0.55,0.72,0.28,0.55,0.61,0.5,0.55,0.55,0.22,0.55,0.67,0.28,0.55,0.67,0.28,0.55,0.55,0.28,0.55,0.55,0.55,0.72,0.28,0.55,0.72,0.55,0.5,0.5,0.55,0.67,0.28,0.55,0.72,0.22,0.55,0.55,0.55,0.5,0.55,0.55,0.22,0.55,0.55,0.55,0.28,0.55,0.55,0.55,0.22,0.22,0.55,0.55,0.22,0.55,0.22,0.5,0.55,0.55,0.5,0.22,0.55,0.55,0.55,0.55,0.33,0.22,0.5,0.55,0.55,0.55,0.55,0.55,0.55,0.55,0.55" style="fill:rgb(0,0,0);font-family:Helvetica;font-size:8.0px;stroke:none;">Chinnadurai K, Kanwal H, Tyagi A, Stanton C, Ross P. High conjugated linoleic acid enriched ghee</text>
   <text y="555.023" x="221.498,224.122,228.082,229.786,234.162,236.786,238.49,240.698,242.402,246.778,251.178,252.85,257.226,261.602,263.81,266.018,270.394,273.018,275.65799999999996,277.341,279.045,283.421,287.381,290.005,294.381,298.756,302.716,307.092,311.092,312.717,314.925,319.301,323.70099999999996,325.416,329.792,334.168,336.376,338.08,342.456,346.416,348.12,352.496,356.767,361.143,363.383,365.101,369.477,373.853,378.253,379.955,384.331,388.707,390.915,392.619,396.994,399.202,403.578,407.847,410.471,414.847,419.223,423.599,427.975,429.679,433.679,435.344,439.72,444.095,446.303,450.679,455.055,459.015,463.015,464.654,466.358,470.758,472.477,474.685,479.061,485.685,490.06,491.764,496.164,497.876,505.411,507.115,511.075,513.283,517.659,520.299,521.97,524.594,528.97,531.178,535.138,537.378,539.034,543.41,545.114,549.49,551.194,555.57" svgx:width="0.33,0.5,0.22,0.55,0.33,0.22,0.28,0.22,0.55,0.55,0.55,0.55,0.55,0.28,0.28,0.55,0.33,0.33,0.55,0.22,0.55,0.5,0.33,0.55,0.55,0.5,0.55,0.5,0.55,0.28,0.55,0.55,0.55,0.55,0.55,0.28,0.22,0.55,0.5,0.22,0.55,0.55,0.55,0.28,0.55,0.55,0.55,0.55,0.55,0.55,0.55,0.28,0.22,0.55,0.28,0.55,0.55,0.33,0.55,0.55,0.55,0.55,0.22,0.5,0.55,0.55,0.55,0.28,0.55,0.55,0.5,0.5,0.55,0.22,0.55,0.55,0.28,0.55,0.83,0.55,0.22,0.55,0.55,0.95,0.22,0.5,0.28,0.55,0.33,0.55,0.33,0.55,0.28,0.5,0.28,0.55,0.55,0.22,0.55,0.22,0.55,0.5" style="fill:rgb(0,0,0);font-family:Helvetica;font-size:8.0px;stroke:none;">(clarified butter) increases the antioxidant and antiatherogenic potency in female Wistar rats. Lipids</text>
   <text y="564.491" x="221.498,227.202,231.578,235.954,237.658,239.866,244.26600000000002,245.933,251.637,253.341,257.301,259.541,261.24,265.616,269.992,274.368,278.744,280.98400000000004,282.67,287.046,291.422,293.66200000000003,295.369,299.745,304.121,308.497,312.873,317.249,321.504,325.88" svgx:width="0.72,0.55,0.55,0.22,0.28,0.55,0.55,0.72,0.22,0.5,0.28,0.55,0.55,0.55,0.55,0.55,0.28,0.55,0.55,0.55,0.28,0.55,0.55,0.55,0.55,0.55,0.55,0.55,0.55,0.28" style="fill:rgb(0,0,0);font-family:Helvetica;font-size:8.0px;stroke:none;">Health Dis. 2013; 12: 121–129.</text>
   <text y="564.491" x="329.838,334.214,336.422,338.63,343.006,346.966,349.174,351.382,353.59,357.966,362.342,364.046,366.254,370.63,373.152,377.527,379.735,384.111,388.487,390.695,395.071,399.447,403.823,408.199,410.285,414.661,419.037,423.413,427.789,430.413,434.789,439.165,443.541,448.723,451.347,455.722,460.098,462.722,467.098,471.474" svgx:width="0.55,0.28,0.28,0.55,0.5,0.28,0.28,0.28,0.55,0.55,0.22,0.28,0.55,0.33,0.55,0.28,0.55,0.55,0.28,0.55,0.55,0.55,0.55,0.28,0.55,0.55,0.55,0.55,0.33,0.55,0.55,0.55,0.67,0.33,0.55,0.55,0.33,0.55,0.55,0.55" style="fill:rgb(58,90,166);font-family:Helvetica;font-size:8.0px;stroke:none;">https://doi.org/10.1186/1476-511X-12-121</text>
   <text y="564.491" x="477.522,482.81,489.434,491.642,497.346" svgx:width="0.67,0.83,0.28,0.72,0.28" style="fill:rgb(0,0,0);font-family:Helvetica;font-size:8.0px;stroke:none;">PMID:</text>
   <text y="564.491" x="501.277,505.653,510.029,514.405,518.781,523.157,527.533,531.909" svgx:width="0.55,0.55,0.55,0.55,0.55,0.55,0.55,0.55" style="fill:rgb(58,90,166);font-family:Helvetica;font-size:8.0px;stroke:none;">23923985</text>
   <text y="577.473" x="204.888,209.264" svgx:width="0.55,0.28" style="fill:rgb(0,0,0);font-family:Helvetica-Bold;font-size:8.0px;stroke:none;">4.</text>
   <text y="577.473" x="221.498,227.202,228.906,230.61,234.986,239.386,241.057,246.761,249.001,250.752,256.04,260.416,264.792,269.19199999999995,270.878,276.166,278.406,280.119,285.407,287.111,288.871,290.55,296.254,298.494,300.188,305.476,307.18,308.884,313.259,315.019,316.742,323.366,325.606,327.287,332.575,336.951,338.655,343.031,347.407,355.69,362.314,364.55400000000003,366.292,368.5,372.875,377.251,381.627,383.835,385.539,387.747,389.451,393.411,397.787,399.995,401.611,405.987,410.387,412.099,416.475,418.71500000000003,420.433,424.393,428.769,436.194,440.57,444.946,449.346,451.047,455.423,459.799,462.007,464.215,468.591,470.295,474.695,476.332,482.956,484.66,486.364,490.364,492.092,496.468,500.844,504.804,509.18,513.58,515.223,519.599,523.999,525.711,530.999,535.375,537.583,541.983,543.683,547.643,552.019,554.643,559.019,561.227,565.603,569.979" svgx:width="0.72,0.22,0.22,0.55,0.55,0.55,0.72,0.28,0.55,0.67,0.55,0.55,0.55,0.55,0.67,0.28,0.55,0.67,0.22,0.22,0.55,0.72,0.28,0.55,0.67,0.22,0.22,0.55,0.22,0.55,0.83,0.28,0.55,0.67,0.55,0.22,0.55,0.55,0.83,0.83,0.28,0.55,0.28,0.55,0.55,0.55,0.28,0.22,0.28,0.22,0.5,0.55,0.28,0.22,0.55,0.55,0.55,0.55,0.28,0.55,0.5,0.55,0.72,0.55,0.55,0.55,0.55,0.55,0.55,0.28,0.28,0.55,0.22,0.55,0.55,0.83,0.22,0.22,0.5,0.55,0.55,0.55,0.5,0.55,0.55,0.55,0.55,0.55,0.55,0.67,0.55,0.28,0.55,0.55,0.5,0.55,0.33,0.55,0.28,0.55,0.55,0.55" style="fill:rgb(0,0,0);font-family:Helvetica;font-size:8.0px;stroke:none;">Ullah R, Khan S, Ali H, Bilal M, SaleemM. Identification of cowand buffalo milk based on Beta carotene</text>
   <text y="586.998" x="221.498,225.874,230.25,234.65,236.352,240.312,242.016,244.224,248.6,255.224,256.928,261.304,263.928,270.878,274.837,279.213,283.589,287.549,291.925,296.301,298.509,301.133,305.404,307.611,309.315,313.691,318.09099999999995,319.803,324.179,328.139,329.843,334.219,338.61899999999997,340.326,342.534,344.238,348.614,352.99,355.614,359.99,363.95,367.91,372.286,376.553,380.513,384.91299999999995,386.644,390.604,394.98,399.356,403.316,405.524,408.148,412.524,416.351,420.311,424.687,429.063,433.023,435.26300000000003,436.931,442.219,446.595,450.971,456.331,458.02,464.228,468.604,472.98,475.22,476.899,481.275,485.651,490.027,494.403,496.64300000000003,498.272,502.648,507.024,509.264,510.971,515.347,519.723,524.099,528.475" svgx:width="0.55,0.55,0.55,0.55,0.5,0.22,0.28,0.55,0.83,0.22,0.55,0.33,0.67,0.5,0.55,0.55,0.5,0.55,0.55,0.28,0.33,0.55,0.28,0.22,0.55,0.55,0.55,0.55,0.5,0.22,0.55,0.55,0.55,0.28,0.22,0.55,0.55,0.33,0.55,0.5,0.5,0.55,0.55,0.5,0.55,0.55,0.5,0.55,0.55,0.5,0.28,0.33,0.55,0.5,0.5,0.55,0.55,0.5,0.28,0.55,0.67,0.55,0.55,0.67,0.55,0.78,0.55,0.55,0.28,0.55,0.55,0.55,0.55,0.55,0.28,0.55,0.55,0.55,0.28,0.55,0.55,0.55,0.55,0.55,0.28" style="fill:rgb(0,0,0);font-family:Helvetica;font-size:8.0px;stroke:none;">and vitamin-Aconcentration using fluorescence spectroscopy. PLoS One. 2017; 12: 1–10.</text>
   <text y="599.981" x="204.888,209.264" svgx:width="0.55,0.28" style="fill:rgb(0,0,0);font-family:Helvetica-Bold;font-size:8.0px;stroke:none;">5.</text>
   <text y="599.981" x="221.498,227.202,231.578,234.202,238.578,240.282,244.68200000000002,246.387,251.747,253.416,259.12,263.496,265.2,267.44,269.12,274.408,278.784,283.16,284.864,288.824,292.784,294.488,298.488,300.132,304.508,306.748,308.465,312.425,316.801,321.177,322.881,327.257,331.633,335.904,338.112,342.488,346.888,348.604,350.308,352.012,356.388,360.764,362.468,366.844,368.548,372.548,374.228,378.604,382.564,384.268,388.644,392.644,394.298,398.674,402.674,404.389,409.261,413.637,418.013,420.636,422.34,426.716,429.356,431.035,433.243,435.867,440.243,444.619,448.579,450.786,455.162,457.786,466.07,471.774,476.15,482.774,487.15,491.54999999999995,493.227,497.187,501.563,505.939,509.899,512.107,514.731,519.106,523.066,526.902,531.278,535.653,539.613,542.237,547.941,552.317,556.277,558.485,562.861,565.485,569.762" svgx:width="0.72,0.55,0.33,0.55,0.22,0.55,0.55,0.67,0.55,0.72,0.55,0.22,0.28,0.55,0.67,0.55,0.55,0.22,0.5,0.5,0.22,0.5,0.55,0.55,0.28,0.55,0.5,0.55,0.55,0.22,0.55,0.55,0.55,0.28,0.55,0.55,0.55,0.22,0.22,0.55,0.55,0.22,0.55,0.22,0.5,0.55,0.55,0.5,0.22,0.55,0.5,0.55,0.55,0.5,0.55,0.61,0.55,0.55,0.33,0.22,0.55,0.33,0.55,0.28,0.33,0.55,0.55,0.5,0.28,0.55,0.33,0.83,0.72,0.55,0.83,0.55,0.55,0.55,0.5,0.55,0.55,0.5,0.28,0.33,0.55,0.5,0.5,0.55,0.55,0.5,0.33,0.72,0.55,0.5,0.28,0.55,0.33,0.55,0.22" style="fill:rgb(0,0,0);font-family:Helvetica;font-size:8.0px;stroke:none;">Carpio B Del. Analysis of conjugated linoleic acids by Fourier transformRaman spectroscopy(Doctoral</text>
   <text y="609.505" x="221.498,226.37,230.746,235.122,239.082,240.786,244.746,247.37,249.61,251.262,256.134,260.51,264.886,268.846,270.55,274.51,276.75,278.418,284.122,289.826,294.202,296.442,298.147,303.851,308.227,309.931,313.891,318.267,320.891,324.736,326.44,328.648" svgx:width="0.61,0.55,0.55,0.5,0.22,0.5,0.33,0.28,0.55,0.61,0.55,0.55,0.5,0.22,0.5,0.28,0.55,0.72,0.72,0.55,0.28,0.55,0.72,0.55,0.22,0.5,0.55,0.33,0.5,0.22,0.28,0.55" style="fill:rgb(0,0,0);font-family:Helvetica;font-size:8.0px;stroke:none;">Thesis). Thesis, UCL. Universite</text>
   <text y="609.278" x="329.554" svgx:width="0.33" style="fill:rgb(0,0,0);font-family:Helvetica;font-size:8.0px;stroke:none;">´</text>
   <text y="609.505" x="334.77,338.73,343.106,345.314,349.69,354.066,355.77,357.474,361.85,366.226,370.626,372.301,376.677,381.077,382.789,387.165,391.541,395.917,399.877,404.253,405.957,410.229,412.469,414.197,418.573,422.948,427.324,431.7" svgx:width="0.5,0.55,0.28,0.55,0.55,0.22,0.22,0.55,0.55,0.55,0.55,0.55,0.55,0.55,0.55,0.55,0.55,0.5,0.55,0.22,0.55,0.28,0.55,0.55,0.55,0.55,0.55,0.28" style="fill:rgb(0,0,0);font-family:Helvetica;font-size:8.0px;stroke:none;">catholique de Louvain. 2010.</text>
   <text y="622.488" x="204.888,209.264" svgx:width="0.55,0.28" style="fill:rgb(0,0,0);font-family:Helvetica-Bold;font-size:8.0px;stroke:none;">6.</text>
   <text y="622.488" x="221.498,229.034,233.41,235.114,239.49,243.866,248.242,256.535,260.91,266.614,268.854,270.538,276.242,280.617,284.993,288.993,290.664,297.288,302.576,304.81600000000003,306.537,311.825,314.033,317.993,319.697,324.073,328.033,332.409,336.80899999999997,338.455,344.159,348.535,350.77500000000003,352.459,358.163,362.539,366.915,368.619,372.995,377.371,381.747,383.955,388.231,392.631,394.354,396.058,397.762,402.138,406.514,408.218,412.594,414.298,418.298,419.98,424.356,428.316,430.02,434.396,436.636,438.348,440.052,446.676,451.052,452.756,454.46,458.42,462.796,465.004,466.708,471.084,475.369,479.369,481.037,483.245,487.621,490.26099999999997,491.979,496.355,500.731,507.355,511.731,516.131,517.831,522.207,526.583,530.959,532.663,534.871,539.247,541.487,543.116,548.404,552.78,557.156,559.78,566.403,570.779" svgx:width="0.95,0.55,0.22,0.55,0.55,0.55,0.83,0.55,0.72,0.28,0.55,0.72,0.55,0.55,0.5,0.55,0.83,0.67,0.28,0.55,0.67,0.28,0.5,0.22,0.55,0.5,0.55,0.55,0.55,0.72,0.55,0.28,0.55,0.72,0.55,0.55,0.22,0.55,0.55,0.55,0.28,0.55,0.55,0.55,0.22,0.22,0.55,0.55,0.22,0.55,0.22,0.5,0.55,0.55,0.5,0.22,0.55,0.28,0.55,0.22,0.83,0.55,0.22,0.22,0.5,0.55,0.28,0.22,0.55,0.55,0.5,0.55,0.28,0.55,0.33,0.55,0.55,0.55,0.83,0.55,0.55,0.55,0.55,0.55,0.55,0.22,0.28,0.55,0.28,0.55,0.67,0.55,0.55,0.33,0.83,0.55,0.33" style="fill:rgb(0,0,0);font-family:Helvetica;font-size:8.0px;stroke:none;">WhighamLD, Cook ME, Atkinson RL. Conjugated linoleic acid: implications for human health. Pharma-</text>
   <text y="632.011" x="221.498,225.458,229.834,231.594,233.291,238.995,243.371,247.331,249.571,251.262,255.638,260.014,264.39,268.766,271.00600000000003,272.635,277.011,281.387,283.627,285.334,289.71,294.086,298.462,302.838,307.214,311.59,315.966" svgx:width="0.5,0.55,0.22,0.55,0.72,0.55,0.5,0.28,0.55,0.55,0.55,0.55,0.55,0.28,0.55,0.55,0.55,0.28,0.55,0.55,0.55,0.55,0.55,0.55,0.55,0.55,0.28" style="fill:rgb(0,0,0);font-family:Helvetica;font-size:8.0px;stroke:none;">col Res. 2000; 42: 503–510.</text>
   <text y="632.011" x="319.86,324.236,326.444,328.652,333.028,336.988,339.196,341.404,343.501,347.877,352.253,353.957,356.165,360.541,363.165,367.541,369.749,374.125,378.501,380.709,385.085,389.366,393.742,398.118,400.326,404.701,409.077,411.701,415.661,417.869,422.134,426.51,430.886,435.262,437.47,441.846,446.222,450.598" svgx:width="0.55,0.28,0.28,0.55,0.5,0.28,0.28,0.28,0.55,0.55,0.22,0.28,0.55,0.33,0.55,0.28,0.55,0.55,0.28,0.55,0.55,0.55,0.55,0.28,0.55,0.55,0.33,0.5,0.28,0.55,0.55,0.55,0.55,0.28,0.55,0.55,0.55,0.55" style="fill:rgb(58,90,166);font-family:Helvetica;font-size:8.0px;stroke:none;">https://doi.org/10.1006/phrs.2000.0735</text>
   <text y="632.011" x="456.66,461.948,468.572,470.78,476.484" svgx:width="0.67,0.83,0.28,0.72,0.28" style="fill:rgb(0,0,0);font-family:Helvetica;font-size:8.0px;stroke:none;">PMID:</text>
   <text y="632.011" x="480.414,484.79,489.166,493.542,497.918,502.294,506.549,510.925" svgx:width="0.55,0.55,0.55,0.55,0.55,0.55,0.55,0.55" style="fill:rgb(58,90,166);font-family:Helvetica;font-size:8.0px;stroke:none;">11058400</text>
   <text y="644.995" x="204.888,209.264" svgx:width="0.55,0.28" style="fill:rgb(0,0,0);font-family:Helvetica-Bold;font-size:8.0px;stroke:none;">7.</text>
   <text y="644.995" x="221.498,228.122,232.082,237.786,240.41,244.786,247.41,249.114,253.514,255.174,260.046,265.334,267.574,269.29,274.578,278.954,283.33,287.29,291.666,295.936,300.312,304.312,306.027,311.315,317.939,320.17900000000003,321.845,329.381,333.757,335.461,337.165,341.541,345.501,349.90099999999995,351.609,355.568,362.192,369.728,371.968,373.605,378.893,380.597,384.973,389.349,393.349,395.034,400.738,402.978,404.673,409.049,410.753,414.713,416.417,420.792,425.168,429.128,431.336,435.712,439.992,444.392,446.115,452.738,458.026,463.314,465.55400000000003,467.261,472.965,477.341,483.965,488.341,492.741,494.417,498.793,503.169,507.545,509.249,511.457,515.857,517.49,521.866,524.074,526.282,530.658,534.618,536.826,540.826,542.493,546.869,549.109,550.826,554.786,559.162,563.538,565.242,569.618" svgx:width="0.83,0.5,0.72,0.33,0.55,0.33,0.22,0.55,0.55,0.61,0.67,0.28,0.55,0.67,0.55,0.55,0.5,0.55,0.55,0.55,0.5,0.55,0.67,0.83,0.28,0.55,0.95,0.55,0.22,0.22,0.55,0.5,0.55,0.55,0.5,0.83,0.95,0.28,0.55,0.67,0.22,0.55,0.55,0.5,0.55,0.72,0.28,0.55,0.55,0.22,0.5,0.22,0.55,0.55,0.5,0.28,0.55,0.55,0.55,0.55,0.83,0.67,0.67,0.28,0.55,0.72,0.55,0.83,0.55,0.55,0.55,0.55,0.55,0.55,0.22,0.28,0.55,0.55,0.55,0.28,0.28,0.55,0.5,0.28,0.5,0.55,0.55,0.28,0.55,0.5,0.55,0.55,0.22,0.55,0.33" style="fill:rgb(0,0,0);font-family:Helvetica;font-size:8.0px;stroke:none;">McCrorie TA, Keaveney EM, Wallace JMW, Binns N, Livingstone MBE. Human health effects of conju-</text>
   <text y="654.518" x="221.498,225.874,230.25,232.458,236.834,241.234,242.928,244.632,246.336,250.712,255.088,256.792,261.168,262.872,266.872,268.554,272.93,276.889,278.593,282.993,284.654,286.862,289.486,293.862,302.229,308.853,310.557,312.261,316.261,317.933,322.309,326.685,331.085,332.786,336.746,341.122,345.498,349.874,351.578,355.954,362.578,366.954,371.224,373.431,377.391,379.63100000000003,381.315,387.019,391.395,393.603,396.243,397.982,403.686,408.062,412.062,413.743,419.447,423.823,427.783,430.023,431.715,436.091,440.467,444.843,449.219,451.459,453.088,457.464,461.84,464.08,465.787,470.163,474.539,478.915,483.291,487.667,492.043,496.419" svgx:width="0.55,0.55,0.28,0.55,0.55,0.55,0.22,0.22,0.55,0.55,0.22,0.55,0.22,0.5,0.55,0.55,0.5,0.22,0.55,0.55,0.28,0.33,0.55,0.83,0.83,0.22,0.22,0.5,0.55,0.55,0.55,0.55,0.55,0.5,0.55,0.55,0.55,0.22,0.55,0.83,0.55,0.55,0.28,0.5,0.28,0.55,0.72,0.55,0.28,0.33,0.55,0.72,0.55,0.5,0.55,0.72,0.55,0.5,0.28,0.55,0.55,0.55,0.55,0.55,0.28,0.55,0.55,0.55,0.28,0.55,0.55,0.55,0.55,0.55,0.55,0.55,0.55,0.28" style="fill:rgb(0,0,0);font-family:Helvetica;font-size:8.0px;stroke:none;">gated linoleic acid frommilk and supplements. Nutr Res Rev. 2011; 24: 206–227.</text>
   <text y="654.518" x="500.313,504.689,506.897,509.105,513.481,517.441,519.649,521.857,524.065,528.319,532.695,534.399,536.607,540.983,543.607,547.983,550.191,554.567,558.943" svgx:width="0.55,0.28,0.28,0.55,0.5,0.28,0.28,0.28,0.55,0.55,0.22,0.28,0.55,0.33,0.55,0.28,0.55,0.55,0.28" style="fill:rgb(58,90,166);font-family:Helvetica;font-size:8.0px;stroke:none;">https://doi.org/10.</text>
   <text y="663.986" x="221.498,225.874,230.25,234.626,239.002,241.21,246.498,250.874,255.25,259.626,264.002,268.27,272.646,277.021,281.397,285.773,290.149,294.405,298.781,303.157,307.533,311.909" svgx:width="0.55,0.55,0.55,0.55,0.28,0.67,0.55,0.55,0.55,0.55,0.55,0.55,0.55,0.55,0.55,0.55,0.55,0.55,0.55,0.55,0.55,0.55" style="fill:rgb(58,90,166);font-family:Helvetica;font-size:8.0px;stroke:none;">1017/S0954422411000114</text>
   <text y="663.986" x="317.99,323.278,329.902,332.11,337.814" svgx:width="0.67,0.83,0.28,0.72,0.28" style="fill:rgb(0,0,0);font-family:Helvetica;font-size:8.0px;stroke:none;">PMID:</text>
   <text y="663.986" x="341.744,346.12,350.496,354.872,359.248,363.624,368.0,372.244" svgx:width="0.55,0.55,0.55,0.55,0.55,0.55,0.55,0.55" style="fill:rgb(58,90,166);font-family:Helvetica;font-size:8.0px;stroke:none;">22296934</text>
   <text y="677.025" x="204.888,209.264" svgx:width="0.55,0.28" style="fill:rgb(0,0,0);font-family:Helvetica-Bold;font-size:8.0px;stroke:none;">8.</text>
   <text y="677.025" x="221.498,227.202,228.906,232.866,237.242,238.946,243.322,247.698,251.698,253.36,258.648,260.856,266.144,270.104,272.728,274.432,278.808,282.67,284.374,288.75,290.454,294.454,296.163,301.451,306.739,308.979,310.676,315.548,317.252,321.628,326.004,328.628,333.004,336.964,340.924,345.202,349.578,353.538,357.938,359.659,364.947,369.323,373.699,377.659,379.867,382.491,386.89099999999996,388.515,395.139,399.515,403.891,407.851,412.227,414.851,419.227,425.851,430.227,434.493,436.733,438.461,442.837,445.077,446.795,453.003,454.707,456.411,460.371,464.77099999999996,466.467,472.675,474.379,476.139,477.806,482.182,486.558,490.95799999999997,492.66,498.867,501.076,505.451,509.827,512.467,514.146,519.434,523.81,528.185,532.561,534.769,539.145,543.521,545.225,549.625,551.28,557.488,559.192,560.896,564.855,567.095,568.798" svgx:width="0.72,0.22,0.5,0.55,0.22,0.55,0.55,0.5,0.55,0.67,0.28,0.67,0.5,0.33,0.22,0.55,0.5,0.22,0.55,0.22,0.5,0.55,0.67,0.67,0.28,0.55,0.61,0.22,0.55,0.55,0.33,0.55,0.5,0.5,0.55,0.55,0.5,0.55,0.55,0.67,0.55,0.55,0.5,0.28,0.33,0.55,0.55,0.83,0.55,0.55,0.5,0.55,0.33,0.55,0.83,0.55,0.55,0.28,0.55,0.55,0.28,0.55,0.78,0.22,0.22,0.5,0.55,0.55,0.78,0.22,0.22,0.55,0.55,0.55,0.55,0.55,0.78,0.28,0.55,0.55,0.33,0.55,0.67,0.55,0.55,0.55,0.28,0.55,0.55,0.22,0.55,0.55,0.78,0.22,0.22,0.5,0.28,0.55,0.5" style="fill:rgb(0,0,0);font-family:Helvetica;font-size:8.0px;stroke:none;">Nikolaos B.Kyriakidis PS. Fluorescence Spectra Measurement of Olive Oil and Other Vegetable Oils. J</text>
   <text y="686.493" x="221.498,226.786,232.994,238.282,245.707,247.915,252.291,254.499,258.874,261.498,265.874,270.141,271.845,276.221,280.597,282.805,284.509,288.885,293.26,297.636,299.34,301.58,303.249,307.625,312.001,316.377,320.753,322.993,324.679,329.055,333.431,335.671,337.378,341.754,346.13,350.506,354.882,359.258,363.514,367.89,372.266,376.642" svgx:width="0.67,0.78,0.67,0.72,0.28,0.55,0.28,0.55,0.33,0.55,0.55,0.22,0.55,0.55,0.28,0.22,0.55,0.55,0.55,0.22,0.28,0.55,0.55,0.55,0.55,0.55,0.28,0.55,0.55,0.55,0.28,0.55,0.55,0.55,0.55,0.55,0.55,0.55,0.55,0.55,0.55,0.28" style="fill:rgb(0,0,0);font-family:Helvetica;font-size:8.0px;stroke:none;">AOACInternalnational. 2000; 83: 1435–1439.</text>
   <text y="699.476" x="204.888,209.264" svgx:width="0.55,0.28" style="fill:rgb(0,0,0);font-family:Helvetica-Bold;font-size:8.0px;stroke:none;">9.</text>
   <text y="699.476" x="221.498,227.706,229.41,231.114,235.49,239.866,242.49,244.73000000000002,246.387,251.675,253.91500000000002,255.627,260.915,265.291,269.667,274.043,278.419,282.67,287.046,291.422,295.822,297.524,304.148,306.38800000000003,308.068,314.276,318.652,323.028,324.732,326.436,328.14,332.53999999999996,334.203,339.907,342.147,343.841,350.049,354.425,358.801,363.177,367.577,369.24,375.863,381.151,383.391,385.057,391.681,396.057,397.761,402.137,403.897,405.523,410.811,413.051,414.764,419.14,423.516,427.476,431.852,436.227,440.603,443.243,444.867,449.747,451.501,456.789,461.165,465.541,467.781,469.416,473.792,476.032,477.749,482.125,483.829,486.069,487.727,493.431,497.807,502.183,504.807,509.183,513.143,515.351,519.726,522.253,523.957,527.917,532.293,534.501,536.205,540.581,544.981,546.688,551.064,553.304,554.964,560.252,564.628,569.004,573.38" svgx:width="0.78,0.22,0.22,0.55,0.55,0.33,0.28,0.55,0.67,0.28,0.55,0.67,0.55,0.55,0.55,0.55,0.55,0.55,0.55,0.55,0.55,0.83,0.28,0.55,0.78,0.55,0.55,0.22,0.22,0.22,0.55,0.55,0.72,0.28,0.55,0.78,0.55,0.55,0.55,0.55,0.55,0.83,0.67,0.28,0.55,0.83,0.55,0.22,0.55,0.22,0.55,0.67,0.28,0.55,0.55,0.55,0.5,0.55,0.55,0.55,0.33,0.55,0.61,0.55,0.67,0.55,0.55,0.28,0.55,0.55,0.28,0.55,0.55,0.22,0.28,0.55,0.72,0.55,0.55,0.33,0.55,0.5,0.28,0.55,0.33,0.22,0.5,0.55,0.28,0.22,0.55,0.55,0.55,0.55,0.28,0.55,0.67,0.55,0.55,0.55,0.33" style="fill:rgb(0,0,0);font-family:Helvetica;font-size:8.0px;stroke:none;">Gilbert Y, Kongbonga M, Ghalila H, Onana MB, Majdi Y, Lakhdar Z Ben, et al. Characterization of Vege-</text>
   <text y="709.0" x="221.498,223.706,228.082,232.458,234.162,238.562,240.264,246.471,248.175,249.879,253.879,255.571,259.946,263.946,265.606,270.478,272.182,276.557,280.933,283.557,287.933,291.893,295.853,300.229,304.496,308.456,312.856,314.588,319.876,324.252,328.628,332.588,334.796,337.42,341.796,345.756,349.716,353.989,358.365,362.325,364.565,366.235,371.107,375.483,379.859,384.25899999999996,385.964,391.668,396.044,398.252,400.892,402.575,407.863,411.823,413.527,415.767,417.485,421.861,426.237,430.613,434.989,437.229,438.915,443.291,445.531,447.249,451.625,456.001,460.377,464.753,469.129,473.384,477.76" svgx:width="0.28,0.55,0.55,0.22,0.55,0.55,0.78,0.22,0.22,0.5,0.55,0.55,0.5,0.55,0.61,0.22,0.55,0.55,0.33,0.55,0.5,0.5,0.55,0.55,0.5,0.55,0.55,0.67,0.55,0.55,0.5,0.28,0.33,0.55,0.5,0.5,0.55,0.55,0.5,0.28,0.55,0.61,0.55,0.55,0.55,0.55,0.72,0.55,0.28,0.33,0.55,0.67,0.5,0.22,0.28,0.55,0.55,0.55,0.55,0.55,0.28,0.55,0.55,0.28,0.55,0.55,0.55,0.55,0.55,0.55,0.55,0.55,0.28" style="fill:rgb(0,0,0);font-family:Helvetica;font-size:8.0px;stroke:none;">table Oils by Fluorescence Spectroscopy. Food Nutr Sci. 2011; 2: 692–699.</text>
  </g>
  <path style="fill:rgb(0,0,0);stroke:none;stroke-width:1.0;" d="M576.000 54.900 L36.000 54.900 L36.000 54.400 L576.000 54.400 "/>
  <rect style="stroke:blue;stroke-width:0.3;" x="36.0" y="35.043" height="23.64" width="107.093" title="15"/>
  <text y="35.043" class="image" id="image.15.1" width="107" height="23" x="36.0">image.15.1.36_143.35_59</text>
  <g begin="text">
   <text y="46.205" x="363.175,368.879,373.255,377.631,379.839,381.543,385.919,390.31899999999996,391.974,396.35,398.558,400.766,405.142,409.102,411.31,415.31,416.976,421.352,425.75199999999995,427.407,431.783,436.159,440.119,441.879,443.564,447.94,452.316,456.692,461.092,462.783,467.159,471.119,472.823,477.199,481.599,483.306,485.514,487.218,491.594,495.97,498.594,502.97,506.93,510.89,515.266,519.533,523.493,527.893,529.567,533.527,537.903,542.279,546.239,548.447,551.071,555.447,559.407,563.367,567.743,572.119" svgx:width="0.72,0.55,0.55,0.28,0.22,0.55,0.55,0.55,0.55,0.28,0.28,0.55,0.5,0.28,0.5,0.55,0.55,0.55,0.55,0.55,0.55,0.5,0.22,0.55,0.55,0.55,0.55,0.55,0.55,0.55,0.5,0.22,0.55,0.55,0.55,0.28,0.22,0.55,0.55,0.33,0.55,0.5,0.5,0.55,0.55,0.5,0.55,0.55,0.5,0.55,0.55,0.5,0.28,0.33,0.55,0.5,0.5,0.55,0.55,0.5" style="fill:rgb(0,0,0);font-family:Helvetica;font-size:8.0px;stroke:none;">Heating effects on desi ghee using fluorescence spectroscopy</text>
  </g>
  <path style="fill:rgb(0,0,0);stroke:none;stroke-width:1.0;" d="M36.000 744.000 L576.000 744.000 L576.000 744.500 L36.000 744.500 "/>
  <path style="fill:rgb(58,90,166);stroke:none;stroke-width:1.0;" d="M81.580 757.080 L237.880 757.080 Z"/>
  <g begin="text">
   <text y="756.0" x="36.0,41.288,45.664,51.872,57.232,58.847,65.055,70.759,76.119,77.782" svgx:width="0.67,0.55,0.78,0.67,0.55,0.78,0.72,0.67,0.55,0.26" style="fill:rgb(0,0,0);font-family:Helvetica;font-size:8.0px;stroke:none;">PLOS ONE |</text>
   <text y="756.0" x="81.58,85.956,88.164,90.372,94.748,98.708,100.916,103.124,105.332,109.708,114.084,115.788,117.996,122.372,124.893,129.269,131.477,135.853,140.229,142.437,146.813,151.189,155.451,159.827,162.035,163.739,168.115,172.491,175.115,179.491,183.867,185.571,187.779,192.155,196.44,200.816,205.191,207.399,211.775,216.151,220.527,224.903,229.151,233.527" svgx:width="0.55,0.28,0.28,0.55,0.5,0.28,0.28,0.28,0.55,0.55,0.22,0.28,0.55,0.33,0.55,0.28,0.55,0.55,0.28,0.55,0.55,0.55,0.55,0.28,0.22,0.55,0.55,0.33,0.55,0.55,0.22,0.28,0.55,0.55,0.55,0.55,0.28,0.55,0.55,0.55,0.55,0.55,0.55,0.55" style="fill:rgb(58,90,166);font-family:Helvetica;font-size:8.0px;stroke:none;">https://doi.org/10.1371/journal.pone.0197340</text>
   <text y="756.0" x="245.876,252.5,256.876,260.876,262.6,266.976,271.352,273.592,275.243,279.619,283.995,288.37,292.77,552.81,557.185,561.5849999999999,563.241" svgx:width="0.83,0.55,0.5,0.55,0.55,0.55,0.28,0.55,0.55,0.55,0.55,0.55,0.55,0.55,0.55,0.55,0.28" style="fill:rgb(0,0,0);font-family:Helvetica;font-size:8.0px;stroke:none;">May 11, 2018 15 /</text>
  </g>
  <g begin="text">
   <text y="756.0" x="567.209,571.585" svgx:width="0.55,0.55" style="fill:rgb(0,0,0);font-family:Helvetica;font-size:8.0px;stroke:none;">17</text>
  </g>
 </g>
</svg>
