<?xml version="1.0" encoding="UTF-8"?>
<svg height="768.175" width="530.436" xmlns="http://www.w3.org/2000/svg">
 <g id="page" xmlns:svgx="http://www.xml-cml.org/schema/svgx">
  <g begin="text">
   <text y="62.979" x="76.535,79.189,83.62,86.274,88.26650000000001,90.738,93.392,95.3845,97.377,104.901,108.439,110.655,112.64750000000001,115.118,119.55,122.793,125.009" svgx:width="0.33,0.56,0.33,0.25,0.55,0.33,0.25,0.55,0.94,0.44,0.28,0.25,0.55,0.56,0.41,0.28,0.25" style="fill:rgb(0,0,0);font-family:URWPalladioL-Ital;font-size:7.97px;stroke:none;">Int. J. Mol. Sci.</text>
   <text y="62.979" x="129.472,133.457,137.442,141.427" svgx:width="0.5,0.5,0.5,0.5" style="fill:rgb(0,0,0);font-family:URWPalladioL-Bold;font-size:7.97px;stroke:none;">2017</text>
   <text y="62.979" x="145.412" svgx:width="0.25" style="fill:rgb(0,0,0);font-family:URWPalladioL-Roma;font-size:7.97px;stroke:none;">,</text>
   <text y="62.979" x="149.398,153.383" svgx:width="0.5,0.5" style="fill:rgb(0,0,0);font-family:URWPalladioL-Ital;font-size:7.97px;stroke:none;">18</text>
   <text y="62.979" x="157.368,159.3605,161.353,165.338,169.323,173.308,177.293,495.794,499.779,501.772,506.123,508.7531,510.77,514.755" svgx:width="0.25,0.55,0.5,0.5,0.5,0.5,0.55,0.5,0.55,0.55,0.33,0.55,0.5,0.5" style="fill:rgb(0,0,0);font-family:URWPalladioL-Roma;font-size:7.97px;stroke:none;">, 1212 2 of 13</text>
   <text y="97.848" x="97.795,107.408,112.956,116.787,121.5678,124.175,127.488,133.402,138.483,144.2598,146.917,151.998,157.079,162.059,164.67,167.983,173.633,179.74,184.608,188.7912,191.436,196.985,200.2718,202.889,207.756,212.065,216.374,221.241,227.155,230.468,233.425,238.506,241.3944,243.973,249.522,252.479,255.436,259.61920000000003,262.265,267.346,271.177,275.9578,278.564,283.076,288.624,297.597,306.57,311.438,315.269,319.781,322.738,327.819,330.776,333.733,338.814,343.681,349.7566,352.41,357.491,363.405,369.32,375.447,380.528,383.485,386.442,392.0196,394.613,400.161,405.9378,408.585,411.898,417.812,422.5928,425.2,428.157,434.071,437.384,442.251,446.265,452.179,457.26,460.573,463.53,469.079,474.993,480.074,482.9624,485.551,494.524,499.605,503.619,509.269,514.136,517.449" svgx:width="0.95,0.55,0.4,0.48,0.55,0.33,0.58,0.5,0.58,0.55,0.5,0.5,0.5,0.55,0.33,0.56,0.6,0.48,0.42,0.55,0.55,0.33,0.55,0.48,0.42,0.42,0.48,0.58,0.33,0.29,0.5,0.29,0.55,0.55,0.29,0.29,0.42,0.55,0.5,0.4,0.48,0.55,0.44,0.55,0.88,0.88,0.48,0.4,0.44,0.29,0.5,0.29,0.29,0.5,0.48,0.61,0.55,0.5,0.58,0.58,0.6,0.5,0.29,0.29,0.56,0.55,0.55,0.58,0.55,0.33,0.58,0.48,0.55,0.29,0.58,0.33,0.48,0.4,0.58,0.5,0.33,0.29,0.55,0.58,0.5,0.29,0.55,0.88,0.5,0.4,0.56,0.48,0.33,0.25" style="fill:rgb(0,0,0);font-family:URWPalladioL-Roma;font-size:9.96px;stroke:none;">More than 250 types of essential oils are commercialized annually on the international market,</text>
   <text y="111.358" x="76.535,80.844,86.392,95.365,100.1458,103.23,108.779,112.0658,115.15,123.625,129.539,132.496,137.008,142.78480000000002,145.92,151.001,154.832,159.6128,162.697,167.565,176.538,182.645,185.602,191.15,196.8,201.668,207.74360000000001,210.864,213.822,219.5988,222.734,227.814,231.645,237.194,246.167,251.248,254.56,260.475,265.342,269.356,274.437,280.544,286.1216,289.192,294.273,300.187,306.2626,309.384,312.768,318.316,322.29999999999995,325.328,328.64,334.555,339.3358,342.42,345.733,349.564,354.431,359.512,362.825,371.798,376.665,382.579,385.86580000000004,388.88,394.428,397.7148,400.81,405.118,409.986,415.727,420.595,424.609,429.69,432.5784,435.645,441.854,444.811,449.119,453.987,459.068,463.376,468.244,472.4272,475.54,478.497,484.411,488.923,491.88,498.008,504.217,507.174,513.088" svgx:width="0.42,0.55,0.88,0.48,0.55,0.55,0.33,0.55,0.83,0.58,0.29,0.44,0.58,0.55,0.5,0.4,0.48,0.55,0.48,0.88,0.6,0.29,0.55,0.56,0.48,0.61,0.55,0.29,0.58,0.55,0.5,0.4,0.55,0.88,0.5,0.33,0.58,0.48,0.4,0.5,0.6,0.56,0.55,0.5,0.58,0.61,0.55,0.33,0.55,0.4,0.55,0.33,0.58,0.48,0.55,0.33,0.4,0.48,0.5,0.33,0.88,0.48,0.58,0.33,0.55,0.55,0.33,0.55,0.42,0.48,0.56,0.48,0.4,0.5,0.29,0.55,0.61,0.29,0.42,0.48,0.5,0.42,0.48,0.42,0.55,0.29,0.58,0.44,0.29,0.6,0.61,0.29,0.58,0.56" style="fill:rgb(0,0,0);font-family:URWPalladioL-Roma;font-size:9.96px;stroke:none;">some of which are employed in aromatherapy and for the treatment of several diseases including</text>
   <text y="124.867" x="76.535,81.047,86.128,89.959,96.168,99.125,104.673,110.415,115.496,119.804,124.316,130.444,133.401,138.482,142.466,146.753,151.834,157.749,163.8246,168.205,174.119,178.987,185.114,188.956,194.504,197.461,203.009,208.659,211.617,216.128,221.209,224.0974,228.414,234.623,237.58,241.889,246.756,251.837,256.146,261.013,265.322,267.812,272.557,278.766,281.723,286.804,292.424,297.291,300.604,305.471,309.78,312.27,317.005,322.086,328.0,334.0756,338.467,342.979,348.06,353.974,358.486,363.353,367.337,371.615" svgx:width="0.44,0.5,0.4,0.61,0.29,0.55,0.56,0.5,0.42,0.44,0.6,0.29,0.5,0.4,0.55,0.5,0.58,0.61,0.55,0.58,0.48,0.6,0.4,0.55,0.29,0.55,0.56,0.29,0.44,0.5,0.29,0.55,0.61,0.29,0.42,0.48,0.5,0.42,0.48,0.42,0.25,0.55,0.61,0.29,0.5,0.55,0.48,0.33,0.48,0.42,0.25,0.55,0.5,0.58,0.61,0.55,0.44,0.5,0.58,0.44,0.48,0.4,0.55,0.33" style="fill:rgb(0,0,0);font-family:URWPalladioL-Roma;font-size:9.96px;stroke:none;">cardiovascular and neurological diseases, diabetes, and cancer [</text>
   <text y="124.867" x="375.002" svgx:width="0.5" style="fill:rgb(0,0,255);font-family:URWPalladioL-Roma;font-size:9.96px;stroke:none;">1</text>
   <text y="124.867" x="379.983,383.367,385.857,390.155,399.768,405.316,409.158,414.025,419.574,425.315,430.183,433.455,435.945,440.69,444.003,449.917,454.6978,459.032,464.113,470.027,473.34,476.297,485.27,488.227,492.739,496.58,502.128,507.748,510.705,515.786" svgx:width="0.33,0.25,0.55,0.95,0.55,0.4,0.48,0.55,0.56,0.48,0.4,0.25,0.55,0.33,0.58,0.48,0.55,0.5,0.58,0.33,0.29,0.88,0.29,0.44,0.4,0.55,0.55,0.29,0.5,0.29" style="fill:rgb(0,0,0);font-family:URWPalladioL-Roma;font-size:9.96px;stroke:none;">]. Moreover, the antimicrobial</text>
   <text y="138.377" x="76.236,82.152,85.862,91.237,97.152,101.867,105.755,108.964,111.828,116.543,120.7262,123.207,128.581,131.8678,134.349,139.064,143.238,147.411,152.126,157.855,161.063,163.928,168.849,171.73739999999998,174.204,179.578,182.442,185.307,189.4902,191.971,197.699,202.621,208.182,212.9628,215.397,220.84,225.555,230.27,236.04680000000002,238.489,246.698,249.562,255.576,260.291,263.155,268.7326,271.118,274.829,279.544,283.914,289.289,294.761,300.49,303.354,308.276,312.991,319.0666,321.495" svgx:width="0.6,0.4,0.55,0.6,0.48,0.4,0.33,0.29,0.48,0.42,0.55,0.55,0.33,0.55,0.48,0.42,0.42,0.48,0.58,0.33,0.29,0.5,0.29,0.55,0.55,0.29,0.29,0.42,0.55,0.58,0.5,0.56,0.48,0.55,0.55,0.48,0.48,0.58,0.55,0.83,0.29,0.61,0.48,0.29,0.56,0.55,0.4,0.48,0.44,0.55,0.56,0.58,0.29,0.5,0.48,0.61,0.55,0.33" style="fill:rgb(0,0,0);font-family:URWPalladioL-Roma;font-size:9.96px;stroke:none;">properties of essential oils have been widely recognized [</text>
   <text y="138.377" x="324.772" svgx:width="0.5" style="fill:rgb(0,0,255);font-family:URWPalladioL-Roma;font-size:9.96px;stroke:none;">3</text>
   <text y="138.377" x="329.753" svgx:width="0.5" style="fill:rgb(0,0,0);font-family:URWPalladioL-Roma;font-size:9.96px;stroke:none;">–</text>
   <text y="138.377" x="334.675" svgx:width="0.5" style="fill:rgb(0,0,255);font-family:URWPalladioL-Roma;font-size:9.96px;stroke:none;">6</text>
   <text y="138.377" x="339.656,342.94280000000003,345.424,348.633,354.362,359.283,365.012,370.484,374.6672,377.148,380.357,385.83500000000004,388.232,392.405,397.12,402.671,407.386,411.274,416.196,419.0844,421.56,425.733,428.942,434.878,440.892,443.756,448.471,452.6542,455.135,463.344,469.072,471.937,476.307,482.0838,484.526,488.699,494.428,499.802,508.012,512.726" svgx:width="0.33,0.55,0.33,0.58,0.5,0.58,0.56,0.42,0.55,0.33,0.55,0.55,0.42,0.48,0.56,0.48,0.4,0.5,0.29,0.55,0.42,0.33,0.6,0.61,0.29,0.48,0.42,0.55,0.83,0.58,0.29,0.44,0.58,0.55,0.42,0.58,0.55,0.83,0.48,0.61" style="fill:rgb(0,0,0);font-family:URWPalladioL-Roma;font-size:9.96px;stroke:none;">] thanks to several studies which showed</text>
   <text y="151.886" x="76.535,81.515,85.335,89.644,95.294,101.208,106.076,109.907,115.557,118.514,122.822,126.135,129.092,133.4744,137.323,142.191,145.392,148.776,153.643,158.155,161.4418,165.187,170.735,174.0218,177.828,182.137,187.004,192.746,197.613,201.627,206.708,209.5964,213.385,217.896,223.445,232.418,238.525,244.073,249.988,254.855,260.769,264.082,268.2652,272.11,277.658,280.94480000000004,284.751,289.619,293.927,298.236,303.104,309.018,312.331,315.288,320.369,323.2574,327.045,332.593,335.55,338.507,342.6902,346.535,351.616,357.266,362.347,365.304,371.218,375.527,378.8138,382.549,388.29,393.371,397.385,400.342,405.891,412.018,416.2012,420.046,425.96,432.088,441.061,446.142,451.9188,455.775,461.882,466.963,470.276,476.19,481.739,487.389,492.256,498.17,502.3532,506.198" svgx:width="0.5,0.55,0.42,0.56,0.58,0.48,0.4,0.56,0.29,0.42,0.33,0.29,0.44,0.55,0.48,0.33,0.33,0.48,0.44,0.33,0.55,0.55,0.33,0.55,0.42,0.48,0.56,0.48,0.4,0.5,0.29,0.55,0.44,0.55,0.88,0.6,0.55,0.58,0.48,0.58,0.33,0.42,0.55,0.55,0.33,0.55,0.48,0.42,0.42,0.48,0.58,0.33,0.29,0.5,0.29,0.55,0.55,0.29,0.29,0.42,0.55,0.5,0.56,0.5,0.29,0.58,0.42,0.33,0.55,0.56,0.5,0.4,0.29,0.55,0.6,0.42,0.55,0.58,0.6,0.88,0.5,0.58,0.55,0.6,0.5,0.33,0.58,0.55,0.56,0.48,0.58,0.42,0.55,0.33" style="fill:rgb(0,0,0);font-family:URWPalladioL-Roma;font-size:9.96px;stroke:none;">a synergistic effect of several components of essential oils against various human pathogens [</text>
   <text y="151.886" x="509.578" svgx:width="0.5" style="fill:rgb(0,0,255);font-family:URWPalladioL-Roma;font-size:9.96px;stroke:none;">1</text>
   <text y="151.886" x="514.559,517.943" svgx:width="0.33,0.25" style="fill:rgb(0,0,0);font-family:URWPalladioL-Roma;font-size:9.96px;stroke:none;">].</text>
   <text y="165.395" x="76.535,82.628,86.857,91.085,95.862,101.666,104.917,107.819,112.805,115.69340000000001,118.21,123.655,126.557,129.459,133.6422,136.181,141.985,146.971,152.606,157.3868,159.886,165.4,170.177,174.954,180.73080000000002,183.251,189.265,193.493,198.27,204.34560000000002,206.866,211.095,213.997,219.801,224.229,229.0098,231.499,236.485,242.289,246.717,249.619,254.396,260.2,263.4868,265.954,269.205,272.107,280.913,285.69,289.918,292.408,294.904,297.806,303.58279999999996,306.113,309.434,314.879,317.781,323.3586,325.819,334.625,339.402,345.495,348.397,352.825,355.727,361.531,366.3118,368.811,372.062,377.866,381.626,387.071,393.084,398.629,404.433,409.878,415.891,419.17780000000005,421.635,424.887,430.691,435.4718,437.971,446.288,451.733,455.672,458.574,464.667,467.157,469.663,472.914,478.392,480.852,486.846,490.606,495.382,499.611,504.388,508.327,513.961" svgx:width="0.61,0.42,0.42,0.48,0.58,0.33,0.29,0.5,0.29,0.55,0.55,0.29,0.29,0.42,0.55,0.58,0.5,0.56,0.48,0.55,0.55,0.48,0.48,0.58,0.55,0.6,0.42,0.48,0.61,0.55,0.42,0.29,0.58,0.44,0.48,0.55,0.5,0.58,0.44,0.29,0.48,0.58,0.33,0.55,0.33,0.29,0.88,0.48,0.42,0.25,0.55,0.29,0.58,0.55,0.33,0.55,0.29,0.56,0.55,0.88,0.48,0.61,0.29,0.44,0.29,0.58,0.48,0.55,0.33,0.58,0.4,0.55,0.6,0.56,0.58,0.55,0.6,0.33,0.55,0.33,0.58,0.48,0.55,0.83,0.55,0.4,0.29,0.61,0.25,0.55,0.33,0.55,0.55,0.6,0.4,0.48,0.42,0.48,0.4,0.56,0.48" style="fill:rgb(0,0,0);font-family:URWPalladioL-Roma;font-size:9.96px;stroke:none;">Essential oils have been used since ancient times, in folk medicine throughout the world, to preserve</text>
   <text y="178.905" x="76.535,81.515,84.029,89.585,95.041,100.497,106.5726,109.101,114.916,119.703,124.699,127.607,130.864,136.6408,139.188,143.425,146.672,151.669,154.926,160.952,165.1352,167.696" svgx:width="0.5,0.55,0.56,0.55,0.55,0.61,0.55,0.58,0.48,0.5,0.29,0.33,0.58,0.55,0.42,0.33,0.5,0.33,0.6,0.42,0.55,0.33" style="fill:rgb(0,0,0);font-family:URWPalladioL-Roma;font-size:9.96px;stroke:none;">a good health status [</text>
   <text y="178.905" x="171.021" svgx:width="0.5" style="fill:rgb(0,0,255);font-family:URWPalladioL-Roma;font-size:9.96px;stroke:none;">6</text>
   <text y="178.905" x="176.002" svgx:width="0.5" style="fill:rgb(0,0,0);font-family:URWPalladioL-Roma;font-size:9.96px;stroke:none;">–</text>
   <text y="178.905" x="180.998" svgx:width="0.5" style="fill:rgb(0,0,255);font-family:URWPalladioL-Roma;font-size:9.96px;stroke:none;">9</text>
   <text y="178.905" x="185.979,189.307,191.797,194.303,200.338,204.105,208.892,213.129,217.915,223.731,226.988,229.896,234.353,236.84300000000002,239.349,243.586,248.372,254.018,258.804,262.751,267.748,270.6364,273.153,279.159,282.926,288.382,294.387,299.174,303.121,306.378,309.286,314.073,318.2562,320.808,325.804,331.619,337.69460000000004,340.223,343.48,349.296,354.083,358.03,363.026,369.031,373.818,379.843,383.101,386.009,390.39140000000003,392.953,397.74,400.887,404.215,409.001,413.438,416.685,420.8682,423.43,429.246,434.242,439.888,444.6688,447.173,452.698,457.485,462.271,468.0478,470.585,475.581,479.818,484.255,488.202,491.11,496.635,501.422,507.49760000000003,510.025,513.283" svgx:width="0.33,0.25,0.55,0.6,0.4,0.48,0.42,0.48,0.58,0.33,0.29,0.56,0.25,0.55,0.42,0.48,0.56,0.48,0.4,0.5,0.29,0.55,0.6,0.4,0.55,0.6,0.48,0.4,0.33,0.29,0.48,0.42,0.55,0.5,0.58,0.61,0.55,0.33,0.58,0.48,0.4,0.5,0.6,0.48,0.6,0.33,0.29,0.44,0.55,0.48,0.33,0.33,0.48,0.44,0.33,0.42,0.55,0.58,0.5,0.56,0.48,0.55,0.55,0.48,0.48,0.58,0.55,0.5,0.42,0.44,0.4,0.29,0.55,0.48,0.61,0.55,0.33,0.55" style="fill:rgb(0,0,0);font-family:URWPalladioL-Roma;font-size:9.96px;stroke:none;">]. Presently, several properties and therapeutic effects have been ascribed to</text>
   <text y="192.414" x="76.535,81.278,85.477,89.676,94.42,100.183,103.411,106.293,111.244,114.1324,116.612,122.019,124.9,127.782,131.9652,134.467,138.665,144.637,149.034,154.8108,157.273,162.224,166.4072,168.909,173.86,179.623,182.852,185.733,191.21,194.091,199.498,202.727,205.608,210.005,212.495,214.967,218.799,224.77,230.247,234.99,238.288,243.239,247.636,250.518,255.261,261.025,264.253,266.743,269.214,274.166,279.929,284.881,289.624,293.823,297.051,302.815,307.558,310.786,313.668,318.065,320.555,323.026,327.978,333.741,336.969,339.851,344.05,350.002,354.953,359.152,367.896,373.303,379.354,382.235,386.632,389.122,391.583,397.06,402.011,404.893,413.637,419.143,422.441,427.184,432.294,438.246,442.989,447.386,450.614,456.021,459.933,464.884,470.648,473.876,476.366,478.837,482.571,487.314,493.266,498.009,500.891,503.773,508.516,514.279,517.508" svgx:width="0.48,0.42,0.42,0.48,0.58,0.33,0.29,0.5,0.29,0.55,0.55,0.29,0.29,0.42,0.55,0.42,0.6,0.44,0.58,0.55,0.5,0.42,0.55,0.5,0.58,0.33,0.29,0.55,0.29,0.55,0.33,0.29,0.44,0.25,0.55,0.4,0.6,0.55,0.48,0.33,0.5,0.44,0.29,0.48,0.58,0.33,0.25,0.55,0.5,0.58,0.5,0.48,0.42,0.33,0.58,0.48,0.33,0.29,0.44,0.25,0.55,0.5,0.58,0.33,0.29,0.42,0.6,0.5,0.42,0.88,0.55,0.61,0.29,0.44,0.25,0.55,0.55,0.5,0.29,0.88,0.56,0.33,0.48,0.52,0.6,0.48,0.44,0.33,0.55,0.4,0.5,0.58,0.33,0.25,0.55,0.4,0.48,0.6,0.48,0.29,0.29,0.48,0.58,0.33,0.25" style="fill:rgb(0,0,0);font-family:URWPalladioL-Roma;font-size:9.96px;stroke:none;">essential oils such as antibiotic, rubefacient, anaesthetic, antispasmodic, balmy-expectorant, repellent,</text>
   <text y="205.924" x="76.535,80.958,85.94,89.875,98.672,101.571,107.369,112.351,115.598,118.497,124.126,128.898,131.388,133.88,138.861,143.0442,145.576,153.885,158.657,161.556,164.4444,166.946,171.927,176.1102,178.642,184.151,188.923,194.721,199.493,205.521,209.944,212.843,217.825,220.71339999999998,223.214,227.986,231.125,234.442,239.214,243.638,246.885,251.0682,253.6,259.04,264.8168,267.329,270.576,276.375,281.1558,283.637,288.061,292.833,298.631,301.879,305.814,310.796,313.6844,316.185,321.167,326.965,333.0406,335.543,341.53,346.302,350.237,353.137,359.124,364.922,369.694,373.63,378.611,381.4994,384.001,389.799,394.571,398.506,404.135,409.575,415.582,419.7652,422.297,426.521,432.06,436.285,439.532,444.304,455.592" svgx:width="0.44,0.5,0.4,0.88,0.29,0.58,0.5,0.33,0.29,0.56,0.48,0.25,0.55,0.5,0.42,0.55,0.83,0.48,0.29,0.29,0.55,0.5,0.42,0.55,0.55,0.48,0.58,0.48,0.61,0.44,0.29,0.5,0.29,0.55,0.48,0.33,0.33,0.48,0.44,0.33,0.42,0.55,0.55,0.58,0.55,0.33,0.58,0.48,0.55,0.44,0.48,0.58,0.33,0.4,0.5,0.29,0.55,0.5,0.58,0.61,0.55,0.6,0.48,0.4,0.29,0.6,0.58,0.48,0.4,0.5,0.29,0.55,0.58,0.48,0.4,0.56,0.55,0.6,0.42,0.55,0.42,0.56,0.42,0.33,0.48,0.88,0.33" style="fill:rgb(0,0,0);font-family:URWPalladioL-Roma;font-size:9.96px;stroke:none;">carminative, as well as beneﬁcial effects on the central and peripheral nervous system[</text>
   <text y="205.924" x="458.91,463.891" svgx:width="0.5,0.5" style="fill:rgb(0,0,255);font-family:URWPalladioL-Roma;font-size:9.96px;stroke:none;">10</text>
   <text y="205.924" x="468.872" svgx:width="0.5" style="fill:rgb(0,0,0);font-family:URWPalladioL-Roma;font-size:9.96px;stroke:none;">–</text>
   <text y="205.924" x="473.853,478.835" svgx:width="0.5,0.5" style="fill:rgb(0,0,255);font-family:URWPalladioL-Roma;font-size:9.96px;stroke:none;">15</text>
   <text y="205.924" x="483.816,487.134" svgx:width="0.33,0.25" style="fill:rgb(0,0,0);font-family:URWPalladioL-Roma;font-size:9.96px;stroke:none;">].</text>
   <text y="219.433" x="97.795,104.53,109.359,113.836,118.665,124.533,127.82,130.754,135.25,137.74,140.261,145.302,151.17,154.457,157.391,166.293,169.227,173.704,177.504,183.009,188.585,191.519,196.56,199.4484,201.984,208.144,212.046,218.125,223.7026,226.211,230.012,234.842,239.117,242.05,246.325,249.612,254.653,260.521,264.997,269.7778,272.317,278.185,283.226,287.4092,289.981,295.556,299.367,304.872,310.952,316.557,322.425,325.71180000000004,328.192,331.993,336.823,341.097,345.927,350.968,354.769,359.245,365.113,369.942,373.925,378.1082,380.69,383.977,389.455,391.962,396.791,402.488,407.529,410.463,416.542,421.583,424.87,429.6508,432.19,438.057,443.562,449.259,454.088,456.9764,459.502,464.543,470.411,473.698,476.632,485.534,488.468,492.945,496.756,502.26,507.836,510.77,515.811" svgx:width="0.67,0.48,0.44,0.48,0.58,0.33,0.29,0.56,0.25,0.55,0.5,0.58,0.33,0.29,0.88,0.29,0.44,0.4,0.55,0.55,0.29,0.5,0.29,0.55,0.61,0.4,0.6,0.56,0.55,0.4,0.48,0.42,0.29,0.42,0.33,0.5,0.58,0.44,0.48,0.55,0.58,0.5,0.42,0.55,0.55,0.4,0.55,0.6,0.56,0.58,0.33,0.55,0.4,0.48,0.42,0.48,0.5,0.4,0.44,0.58,0.48,0.4,0.42,0.55,0.33,0.55,0.55,0.48,0.56,0.5,0.29,0.6,0.5,0.33,0.48,0.55,0.58,0.55,0.56,0.48,0.29,0.55,0.5,0.58,0.33,0.29,0.88,0.29,0.44,0.4,0.55,0.55,0.29,0.5,0.29" style="fill:rgb(0,0,0);font-family:URWPalladioL-Roma;font-size:9.96px;stroke:none;">Recently, antimicrobial drug resistance has brought researchers to evaluate novel antimicrobial</text>
   <text y="232.942" x="76.535,79.376,84.053,88.934,95.00959999999999,96.94,105.561,110.892,113.733,118.41,122.745,128.632,131.473,136.15,140.3332,142.33,145.513,150.991,152.884,156.067,159.748,164.425,169.306,172.5928,174.53,180.046,184.928,188.784,191.625,196.956,202.843,207.0262,209.024,214.706,220.593,229.214,234.096,239.8728,241.829,247.696,252.578,255.761,261.443,266.774,272.202,276.879,282.561,286.701,289.19100000000003,291.182,296.308,301.736,307.419,310.602,316.284,320.96,324.143,326.984,331.3664,333.36,339.325,343.104,348.991,354.419,358.6022,360.6,366.282,371.164,376.68,381.4608,383.397,388.728,391.979,395.162,399.839,405.6158,407.561,410.813,415.694,418.535,421.376,426.053,432.1286,434.059,437.242,442.924,445.765,449.9482,451.945,457.374,462.705,467.586,470.427,472.91700000000003,475.007,477.848,481.13480000000004,483.139,488.822,494.152,497.4388,499.376,502.627,507.958,511.942,513.855" svgx:width="0.29,0.48,0.5,0.61,0.55,0.88,0.55,0.29,0.48,0.44,0.6,0.29,0.48,0.42,0.55,0.33,0.55,0.55,0.33,0.4,0.48,0.5,0.33,0.55,0.56,0.5,0.4,0.29,0.55,0.6,0.42,0.55,0.58,0.6,0.88,0.5,0.58,0.55,0.6,0.5,0.33,0.58,0.55,0.56,0.48,0.58,0.42,0.25,0.55,0.52,0.56,0.58,0.33,0.58,0.48,0.33,0.29,0.44,0.55,0.61,0.4,0.6,0.56,0.42,0.55,0.58,0.5,0.56,0.48,0.55,0.55,0.33,0.33,0.48,0.58,0.55,0.33,0.5,0.29,0.29,0.48,0.61,0.55,0.33,0.58,0.29,0.42,0.55,0.56,0.55,0.5,0.29,0.25,0.55,0.29,0.33,0.55,0.58,0.55,0.33,0.55,0.33,0.55,0.4,0.55,0.5" style="fill:rgb(0,0,0);font-family:URWPalladioL-Roma;font-size:9.96px;stroke:none;">lead molecules to treat various human pathogens. Synthetic drugs have often failed this goal, if not for a</text>
   <text y="246.452" x="76.535,79.376,84.258,88.593,94.17060000000001,96.433,101.763,105.0498,107.436,112.113,115.178,121.095,125.43,130.312,134.646,138.962,141.452,143.834,149.233,153.91,158.244,163.126,169.013,173.153,177.9338,180.251,185.582,188.8688,191.245,194.427,200.11,204.8908,207.198,212.626,216.307,220.984,225.865,229.048,233.725,237.709,239.993,243.849,246.691,250.83,256.4076,258.68,261.863,267.341,269.605,277.748,283.43,286.271,290.606,296.3828,298.7,301.883,307.565,312.3458,314.663,320.531,325.413,328.595,331.437,336.113,341.795,345.08180000000004,347.39,355.533,360.414,364.5972,366.965,371.642,376.68,382.548,387.878,392.018,396.695,402.7706,405.081,408.333,413.214,417.549,423.437,426.619,431.3998,433.708,438.589,444.272,450.3476,452.649,456.983,462.666,466.347,471.677,477.36,480.201,484.58340000000004,486.947,490.13,495.461,500.499,503.34,507.675,510.516,513.699" svgx:width="0.29,0.5,0.44,0.56,0.55,0.55,0.33,0.55,0.48,0.33,0.61,0.44,0.5,0.44,0.56,0.25,0.55,0.55,0.48,0.44,0.5,0.6,0.42,0.48,0.55,0.55,0.33,0.55,0.33,0.58,0.48,0.55,0.56,0.4,0.48,0.5,0.33,0.48,0.4,0.55,0.4,0.29,0.42,0.56,0.55,0.33,0.55,0.55,0.83,0.58,0.29,0.44,0.58,0.55,0.33,0.58,0.48,0.55,0.6,0.5,0.33,0.29,0.48,0.58,0.33,0.55,0.83,0.5,0.42,0.55,0.48,0.52,0.6,0.55,0.42,0.48,0.61,0.55,0.33,0.5,0.44,0.6,0.33,0.48,0.55,0.5,0.58,0.61,0.55,0.44,0.58,0.4,0.55,0.58,0.29,0.44,0.55,0.33,0.55,0.52,0.29,0.44,0.29,0.33,0.56" style="fill:rgb(0,0,0);font-family:URWPalladioL-Roma;font-size:9.96px;stroke:none;">lack of efﬁcacy, because of the greater risk to which the patient was exposed (acute and chronic toxicity</text>
   <text y="259.961" x="76.535,81.611,87.519,93.5946,96.22,101.082,106.991,112.726,115.681,119.518,125.061,130.969,139.934,144.796,150.705,154.014,159.09,161.9784,164.542,170.45,175.526,180.602,185.678,189.505,195.5806,198.205,204.307,209.85,213.159,218.022,223.93,227.24,230.194,235.27,238.224,241.605,244.095,246.65,249.604,254.467,259.543,265.746,268.7,274.609,280.1866,282.75,286.06,291.968,296.7488,299.328,303.166,308.029,312.333,317.196,322.272,326.099,330.606,336.515,341.378,345.388,349.5712,352.189,355.499,360.97700000000003,363.539,369.153,374.016,377.325,380.635,385.498,389.48199999999997,392.015,396.878,402.116,408.218,411.172,416.715,420.542,425.3228,427.902,433.811,438.887,442.196,448.318,452.328,457.404,460.2924,462.855,466.693,471.555,480.519,485.382,491.585,494.539,499.402,503.5852,506.204" svgx:width="0.5,0.58,0.61,0.55,0.48,0.58,0.56,0.29,0.4,0.55,0.58,0.88,0.48,0.58,0.33,0.5,0.29,0.55,0.58,0.5,0.5,0.5,0.4,0.61,0.55,0.6,0.55,0.33,0.48,0.58,0.33,0.29,0.5,0.29,0.33,0.25,0.55,0.29,0.48,0.5,0.61,0.29,0.58,0.56,0.55,0.33,0.58,0.48,0.55,0.4,0.48,0.42,0.48,0.5,0.4,0.44,0.58,0.48,0.4,0.42,0.55,0.33,0.55,0.55,0.55,0.48,0.33,0.33,0.48,0.4,0.55,0.48,0.52,0.6,0.29,0.55,0.4,0.48,0.55,0.58,0.5,0.33,0.6,0.4,0.5,0.29,0.55,0.4,0.48,0.88,0.48,0.61,0.29,0.48,0.42,0.55,0.33" style="fill:rgb(0,0,0);font-family:URWPalladioL-Roma;font-size:9.96px;stroke:none;">and environmental hazard potential), leading the researchers to better explore natural remedies [</text>
   <text y="259.961" x="509.584" svgx:width="0.5" style="fill:rgb(0,0,255);font-family:URWPalladioL-Roma;font-size:9.96px;stroke:none;">1</text>
   <text y="259.961" x="514.565,517.946" svgx:width="0.33,0.25" style="fill:rgb(0,0,0);font-family:URWPalladioL-Roma;font-size:9.96px;stroke:none;">].</text>
   <text y="273.471" x="76.535,81.963,85.644,90.975,102.037,105.22,110.902,113.743,117.9262,120.324,126.191,131.522,134.363,140.046,143.3328,145.669,151.0,154.2868,156.692,162.208,165.05,169.726,176.951,179.441,181.842,185.025,190.708,195.4888,197.825,201.965,205.148,211.035,217.0,222.5776,224.87,230.2,233.4868,235.902,240.569,244.709,248.848,253.525,259.207,262.39,265.231,270.113,273.0014,275.405,280.735,283.577,286.418,290.6012,292.998,298.68,303.562,307.7452,310.143,316.03,321.712,327.678,332.354,336.025,341.454,346.784,352.467,357.2478,359.584,364.564,366.916,370.587,375.264,383.885,388.767,392.623,398.052,402.934,408.333,411.174,415.9548,418.291,423.72,427.4,432.731,440.874,444.057,449.739,452.229,454.63,459.512,465.194,471.2696,473.601,482.222,487.103,492.786,498.3636,500.655,506.337,511.014" svgx:width="0.56,0.4,0.55,0.88,0.33,0.58,0.29,0.42,0.55,0.6,0.55,0.29,0.58,0.33,0.55,0.55,0.33,0.55,0.56,0.29,0.48,0.83,0.25,0.55,0.33,0.58,0.48,0.55,0.42,0.33,0.6,0.61,0.56,0.55,0.55,0.33,0.55,0.48,0.42,0.42,0.48,0.58,0.33,0.29,0.5,0.29,0.55,0.55,0.29,0.29,0.42,0.55,0.58,0.5,0.42,0.55,0.6,0.58,0.61,0.48,0.4,0.56,0.55,0.58,0.48,0.55,0.5,0.55,0.4,0.48,0.88,0.5,0.4,0.56,0.5,0.55,0.29,0.48,0.55,0.56,0.4,0.55,0.83,0.33,0.58,0.25,0.55,0.5,0.58,0.61,0.55,0.88,0.5,0.58,0.56,0.55,0.58,0.48,0.83" style="fill:rgb(0,0,0);font-family:URWPalladioL-Roma;font-size:9.96px;stroke:none;">Fromthis point of view, the study of essential oils has undergone a remarkable growth, and many new</text>
   <text y="286.98" x="76.236,82.23,85.132,90.118,95.922,99.173,103.3562,105.884,111.878,115.638,121.083,127.176,133.189,137.617,140.519,146.323,151.9006,154.361,159.138,163.366,167.595,172.371,178.176,181.427,184.329,189.315,192.2034,194.7,200.145,203.047,205.9354,208.432,214.236,219.223,224.857,229.6378,232.117,237.632,242.409,247.186,252.96280000000002,255.483,260.26,265.894,270.88,273.782,279.796,284.782,288.033,292.81,298.8856,301.386" svgx:width="0.6,0.29,0.5,0.58,0.33,0.42,0.55,0.6,0.4,0.55,0.61,0.6,0.44,0.29,0.58,0.56,0.55,0.48,0.42,0.42,0.48,0.58,0.33,0.29,0.5,0.29,0.55,0.55,0.29,0.29,0.55,0.58,0.5,0.56,0.48,0.55,0.55,0.48,0.48,0.58,0.55,0.48,0.56,0.5,0.29,0.6,0.5,0.33,0.48,0.61,0.55,0.33" style="fill:rgb(0,0,0);font-family:URWPalladioL-Roma;font-size:9.96px;stroke:none;">plants producing essential oil have been evaluated [</text>
   <text y="286.98" x="304.707,309.688" svgx:width="0.5,0.5" style="fill:rgb(0,0,255);font-family:URWPalladioL-Roma;font-size:9.96px;stroke:none;">16</text>
   <text y="286.98" x="314.669" svgx:width="0.5" style="fill:rgb(0,0,0);font-family:URWPalladioL-Roma;font-size:9.96px;stroke:none;">–</text>
   <text y="286.98" x="319.655,324.636" svgx:width="0.5,0.5" style="fill:rgb(0,0,255);font-family:URWPalladioL-Roma;font-size:9.96px;stroke:none;">20</text>
   <text y="286.98" x="329.618,332.939,335.42900000000003,338.523,346.282,355.088,360.533,366.337,371.9146,374.365,377.616,383.42,388.197,392.425,397.202,399.692,402.178,405.429,411.233,416.0138,418.493,423.48,429.493,432.744,438.548,443.993,447.932,452.1152,454.654,460.747,465.524,469.952,472.854,478.947,483.724,489.7996,492.3,495.551,501.029,503.48,509.473,515.487" svgx:width="0.33,0.25,0.55,0.78,0.88,0.55,0.58,0.56,0.55,0.33,0.58,0.48,0.42,0.48,0.25,0.55,0.33,0.58,0.48,0.55,0.5,0.6,0.33,0.58,0.55,0.4,0.42,0.55,0.61,0.48,0.44,0.29,0.61,0.48,0.61,0.55,0.33,0.55,0.55,0.6,0.6,0.33" style="fill:rgb(0,0,0);font-family:URWPalladioL-Roma;font-size:9.96px;stroke:none;">]. Among these, the authors decided to put</text>
   <text y="300.489" x="76.535,79.747,85.482,90.201,93.068,97.05199999999999,99.443,104.37,107.582,110.794,115.514,121.248,124.46,127.327,132.707,138.4838,140.924,146.304" svgx:width="0.33,0.58,0.48,0.29,0.4,0.55,0.5,0.33,0.33,0.48,0.58,0.33,0.29,0.55,0.58,0.55,0.55,0.58" style="fill:rgb(0,0,0);font-family:URWPalladioL-Roma;font-size:9.96px;stroke:none;">their attention on</text>
   <text y="300.489" x="154.52,160.54,163.279,167.112,170.393,174.768,178.778,181.517,185.89939999999999,188.375,193.301,197.134,200.967" svgx:width="0.61,0.28,0.39,0.33,0.44,0.41,0.28,0.44,0.55,0.5,0.39,0.39,0.44" style="fill:rgb(0,0,0);font-family:URWPalladioL-Ital;font-size:9.96px;stroke:none;">Pistacia vera</text>
   <text y="300.489" x="207.824,213.844,216.307,218.797,221.254,226.23399999999998,228.663,234.398,240.339,243.6258,246.034,249.246,252.961,257.68,262.4608,264.883,268.095,273.829,278.756,282.0428,284.451,289.9,294.619,297.486,302.866,308.601,314.079,318.2622,320.74,323.952,329.43,331.814,335.026,340.761,345.5418,347.963,355.629,361.364,366.29,370.665,375.591,379.306,385.326,388.193,393.12,397.495,402.204,407.141,411.9218,414.333,417.614,422.541,431.241,434.108,436.976,442.5536,444.937" svgx:width="0.61,0.25,0.25,0.55,0.5,0.55,0.58,0.6,0.33,0.55,0.33,0.4,0.48,0.48,0.55,0.33,0.58,0.5,0.33,0.55,0.55,0.48,0.29,0.55,0.58,0.56,0.42,0.55,0.33,0.55,0.55,0.33,0.58,0.48,0.55,0.78,0.58,0.5,0.44,0.5,0.4,0.61,0.29,0.5,0.44,0.48,0.5,0.48,0.55,0.33,0.5,0.88,0.29,0.29,0.56,0.55,0.33" style="fill:rgb(0,0,0);font-family:URWPalladioL-Roma;font-size:9.96px;stroke:none;">L., a nut tree that belongs to the Anacardiaceae family [</text>
   <text y="300.489" x="448.222,453.203" svgx:width="0.5,0.5" style="fill:rgb(0,0,255);font-family:URWPalladioL-Roma;font-size:9.96px;stroke:none;">21</text>
   <text y="300.489" x="458.185,461.47180000000003,463.949,468.324,474.265,477.132,480.344,483.212,488.779,493.705,496.917,501.637,507.7126,510.14,513.007" svgx:width="0.33,0.55,0.44,0.6,0.29,0.33,0.29,0.56,0.5,0.33,0.48,0.61,0.55,0.29,0.58" style="fill:rgb(0,0,0);font-family:URWPalladioL-Roma;font-size:9.96px;stroke:none;">] cultivated in</text>
   <text y="313.999" x="76.535,79.892,83.828,88.809,94.607,97.097,99.588,104.799,110.806,114.742,120.281,125.053,129.486,131.976,134.467,137.715,143.514,148.2948,150.776,158.527,163.758,171.508,173.99800000000002,176.49,181.72,187.259,191.195,194.094,199.075,201.565,204.056,207.414,210.661,215.643,218.542,222.975,225.465,227.956,233.167,239.174,244.973,247.872,252.096,254.995,259.976,262.466,264.958,269.939,275.737,281.81260000000003,284.315,291.916,295.672,300.444,305.216,309.64,314.412" svgx:width="0.34,0.4,0.5,0.58,0.25,0.55,0.61,0.6,0.4,0.56,0.48,0.56,0.25,0.55,0.33,0.58,0.48,0.55,0.78,0.52,0.78,0.25,0.55,0.52,0.56,0.4,0.29,0.5,0.25,0.55,0.34,0.33,0.5,0.29,0.56,0.25,0.55,0.61,0.6,0.58,0.29,0.42,0.29,0.5,0.25,0.55,0.5,0.58,0.61,0.55,0.76,0.4,0.48,0.48,0.44,0.48,0.25" style="fill:rgb(0,0,0);font-family:URWPalladioL-Roma;font-size:9.96px;stroke:none;">Iran, Turkey, the USA, Syria, Italy, Tunisia, and Greece.</text>
   <text y="327.508" x="97.795,101.22,106.9968,111.005,114.43,117.743,122.824,125.781,130.323,132.81300000000002,137.071,143.178,146.135,150.444,153.756,158.837,163.349,169.263,172.22,177.698,181.64,186.152,189.983,195.532,201.639,205.8222,209.819,214.9,218.731,223.5118,227.47,230.783,236.433,242.54,245.497,250.009,255.09,258.047,261.004,266.58160000000004,270.516,275.851,278.808,283.32,286.277,289.234,292.191,297.272,303.186,305.676,309.944,318.917,323.998,326.955,332.869,335.826,341.40360000000004,345.338,350.988,354.829,360.377,368.852,374.62879999999996,378.628,381.585,387.36179999999996,391.371,394.684,400.598,405.3788,409.337,412.64,417.507,421.521,425.535,428.492,431.805,437.353,441.367,446.94460000000004,450.889,456.437,459.72380000000004,463.693,469.902,473.733,479.281,485.195,488.508,493.2888,497.247,500.631,507.836,514.065,517.449" svgx:width="0.34,0.58,0.55,0.34,0.33,0.5,0.29,0.56,0.25,0.55,0.6,0.29,0.42,0.33,0.5,0.44,0.58,0.29,0.55,0.55,0.44,0.4,0.55,0.6,0.42,0.55,0.5,0.4,0.48,0.55,0.33,0.56,0.6,0.29,0.44,0.5,0.29,0.29,0.56,0.55,0.52,0.29,0.44,0.29,0.29,0.29,0.5,0.58,0.25,0.55,0.88,0.5,0.29,0.58,0.29,0.56,0.55,0.56,0.4,0.55,0.83,0.58,0.55,0.29,0.58,0.55,0.33,0.58,0.48,0.55,0.33,0.48,0.4,0.4,0.29,0.33,0.55,0.4,0.56,0.55,0.55,0.33,0.55,0.61,0.4,0.55,0.58,0.33,0.48,0.55,0.33,0.71,0.61,0.33,0.25" style="fill:rgb(0,0,0);font-family:URWPalladioL-Roma;font-size:9.96px;stroke:none;">In Italy, pistachio crops are typically Sicilian, mainly grown in the territory of Bronte (CT),</text>
   <text y="341.018" x="76.535,80.844,83.801,87.113,93.241,98.322,101.635,106.502,112.57759999999999,117.447,122.995,128.7718,133.634,136.947,142.861,147.6418,152.464,157.332,162.413,166.721,170.034,174.902,178.916,184.6928,189.555,195.662,200.743,204.757,208.0438,212.805,218.354,221.6408,226.463,231.798,234.755,239.267,242.224,245.181,250.7586,255.566,260.647,266.562,272.6376,277.506,282.018,287.932,293.013,297.027,302.108,306.609,309.922,314.79,318.804,321.761,326.842,331.709,337.7846,342.654,348.273,353.85060000000004,358.658,361.616,366.697,372.438,377.519,380.903,384.917,387.874,392.386,398.1628,403.025,407.334,412.882,415.839,418.796,422.9792,427.84,432.921,438.835,444.9106,449.77,455.511,460.379,464.393,469.9706,474.778,480.885,485.966,489.98,493.293,496.25,500.762,506.889,509.846,514.927" svgx:width="0.42,0.29,0.33,0.6,0.5,0.33,0.48,0.61,0.55,0.55,0.58,0.55,0.33,0.58,0.48,0.55,0.48,0.5,0.42,0.33,0.48,0.4,0.58,0.55,0.6,0.5,0.4,0.33,0.55,0.55,0.33,0.55,0.52,0.29,0.44,0.29,0.29,0.56,0.55,0.5,0.58,0.61,0.55,0.44,0.58,0.5,0.4,0.5,0.44,0.33,0.48,0.4,0.29,0.5,0.48,0.61,0.55,0.55,0.56,0.55,0.29,0.5,0.56,0.5,0.33,0.4,0.29,0.44,0.58,0.55,0.42,0.55,0.29,0.29,0.42,0.55,0.5,0.58,0.61,0.55,0.56,0.48,0.4,0.56,0.55,0.6,0.5,0.4,0.33,0.29,0.44,0.6,0.29,0.5,0.4" style="fill:rgb(0,0,0);font-family:URWPalladioL-Roma;font-size:9.96px;stroke:none;">situated on the eastern part of Sicily and characterized by lava-rich soils and very particular</text>
   <text y="354.527" x="76.535,81.047,84.004,86.961,95.934,101.015,104.328,107.285,111.6674,114.439,118.951,124.499,130.413,136.622,139.579,142.892,145.849,151.397,157.312,161.4952,164.252" svgx:width="0.44,0.29,0.29,0.88,0.5,0.33,0.29,0.44,0.55,0.44,0.55,0.58,0.61,0.29,0.33,0.29,0.55,0.58,0.42,0.55,0.33" style="fill:rgb(0,0,0);font-family:URWPalladioL-Roma;font-size:9.96px;stroke:none;">climatic conditions [</text>
   <text y="354.527" x="167.64,172.621" svgx:width="0.5,0.5" style="fill:rgb(0,0,255);font-family:URWPalladioL-Roma;font-size:9.96px;stroke:none;">21</text>
   <text y="354.527" x="177.602" svgx:width="0.25" style="fill:rgb(0,0,0);font-family:URWPalladioL-Roma;font-size:9.96px;stroke:none;">,</text>
   <text y="354.527" x="180.143,185.124" svgx:width="0.5,0.5" style="fill:rgb(0,0,255);font-family:URWPalladioL-Roma;font-size:9.96px;stroke:none;">22</text>
   <text y="354.527" x="190.105,193.3918,196.131,204.606,210.52,213.477,217.989,223.7658,226.535,231.047,236.595,242.51,245.894,250.761,254.745,257.417,260.73,266.208,268.92,272.233,278.147,282.9278,285.647,291.754,294.711,299.02,302.332,307.413,311.925,317.839,320.797,326.27500000000003,328.987,334.901,341.029,344.342,348.5252,351.292,355.601,361.729,367.836,372.703,376.717,379.674,385.223,389.207,391.869,397.417,401.258,406.908,411.989,417.903,423.452,426.409,431.276,437.383,440.696,443.653,448.03540000000004,450.797,455.878,461.792,467.8676,470.643,476.557,482.685,485.998,490.012,492.969,496.282,499.239,504.787,510.701,515.782" svgx:width="0.33,0.55,0.83,0.58,0.29,0.44,0.58,0.55,0.44,0.55,0.58,0.33,0.48,0.4,0.55,0.33,0.55,0.55,0.33,0.58,0.48,0.55,0.6,0.29,0.42,0.33,0.5,0.44,0.58,0.29,0.55,0.55,0.58,0.6,0.33,0.42,0.55,0.42,0.6,0.6,0.48,0.4,0.29,0.55,0.4,0.55,0.55,0.4,0.56,0.5,0.58,0.55,0.29,0.48,0.6,0.33,0.29,0.44,0.55,0.5,0.58,0.61,0.55,0.58,0.6,0.33,0.4,0.29,0.33,0.29,0.55,0.58,0.5,0.29" style="fill:rgb(0,0,0);font-family:URWPalladioL-Roma;font-size:9.96px;stroke:none;">] which confer to the pistachio nuts superior organoleptic and nutritional</text>
   <text y="368.036" x="76.535,81.047,86.961,92.042,96.056,101.137,105.649,108.961,113.829,117.843,120.8,125.109,128.421,131.379,135.89,140.199,142.68900000000002,147.333,152.983,158.531,162.51500000000001,167.148,170.461,176.375,179.332,183.5152,188.234,192.065,196.933,202.014,206.322,211.871,217.785,220.275,225.447,228.76,234.674,239.4548,244.145,250.353,256.481,260.312,265.86,271.968,276.835,281.916,287.6928,292.424,300.329,306.244,309.201,314.749,320.5258,325.267,329.098,333.965,338.477,344.025,349.675,355.59,358.547,363.628,368.495,374.5706,379.297,382.61,388.524,393.3048,397.995,403.736,408.817,412.831,415.788,420.656,423.969,429.5466,434.212,440.421,444.252,449.8,455.714,459.027,463.8078,468.498,473.579,477.7622,482.481,487.461,492.155,500.02,502.561,510.548,513.088,517.946" svgx:width="0.44,0.58,0.5,0.4,0.5,0.44,0.33,0.48,0.4,0.29,0.42,0.33,0.29,0.44,0.42,0.25,0.55,0.56,0.55,0.4,0.55,0.33,0.58,0.29,0.42,0.55,0.4,0.48,0.5,0.42,0.55,0.58,0.25,0.55,0.33,0.58,0.48,0.55,0.61,0.6,0.4,0.55,0.6,0.48,0.5,0.58,0.55,0.78,0.58,0.29,0.55,0.58,0.55,0.4,0.48,0.44,0.55,0.56,0.58,0.29,0.5,0.48,0.61,0.55,0.33,0.58,0.48,0.55,0.56,0.5,0.4,0.29,0.48,0.33,0.56,0.55,0.61,0.4,0.55,0.58,0.33,0.48,0.55,0.5,0.42,0.55,0.5,0.55,0.77,0.25,0.79,0.25,0.6,0.25" style="fill:rgb(0,0,0);font-family:URWPalladioL-Roma;font-size:9.96px;stroke:none;">characteristics. For this reason, the European Union recognized the variety Bronte as a D.O.P.</text>
   <text y="381.546" x="76.207,79.591,85.729,89.56,95.108,98.421,103.288,107.8,111.113,115.98,122.0556,126.264,134.13,138.997,143.306,146.263,151.913,157.827,162.908,166.221,169.178,174.726,180.5028,184.715,190.264,193.5508,197.722,205.71,209.724,212.681,218.331,221.288,227.202,230.4888,234.651,240.758,244.599,250.147,256.356,262.484,266.996,270.309,272.79900000000004,276.914,283.051,286.009,290.317,293.63,298.711,303.223,309.137,312.094,317.572,321.717,327.632,333.759,337.072,341.2552,345.455,350.536,354.367,359.1478,363.31,367.822,373.37,379.284,383.593,386.55,392.759,397.626,401.457,406.325,412.4006,416.609,421.589,425.764,429.778,432.735,437.247,443.0238,447.236,451.545,457.093,463.221,467.052,471.564,476.3448,480.506,486.055,489.34180000000003,493.513,502.486,507.567,513.481" svgx:width="0.33,0.6,0.4,0.55,0.33,0.48,0.44,0.33,0.48,0.61,0.55,0.77,0.48,0.42,0.29,0.56,0.58,0.5,0.33,0.29,0.55,0.58,0.55,0.55,0.33,0.55,0.79,0.4,0.29,0.56,0.29,0.58,0.33,0.55,0.6,0.4,0.55,0.61,0.6,0.44,0.33,0.25,0.55,0.6,0.29,0.42,0.33,0.5,0.44,0.58,0.29,0.55,0.55,0.58,0.6,0.33,0.42,0.55,0.5,0.4,0.48,0.55,0.44,0.55,0.58,0.42,0.29,0.61,0.48,0.4,0.48,0.61,0.55,0.5,0.55,0.4,0.29,0.44,0.58,0.55,0.42,0.55,0.6,0.4,0.44,0.48,0.55,0.55,0.33,0.55,0.88,0.5,0.58,0.56" style="fill:rgb(0,0,0);font-family:URWPalladioL-Roma;font-size:9.96px;stroke:none;">(Protected Designation of Origin) product. Pistachio nuts are considered a rich source of many</text>
   <text y="395.055" x="76.535,79.492,88.465,94.572,100.121,104.135,107.447,112.528,118.442,121.72879999999999,126.816,132.435,135.392,140.941,144.325,150.452,156.367,160.878,164.191,167.148,172.697,178.611,183.692,186.5804,191.709,196.221,201.77,210.743,216.85,222.398,228.526,234.44,240.649,244.8322,250.028,253.331,259.245,264.326,267.61280000000005,272.71,277.79,281.622,286.4028,291.55,297.677,301.986,306.853,310.237,316.365,319.2534,324.383,327.767,333.315,337.299,342.4,345.712,351.627,356.4078,361.555,367.469,373.596,382.569,387.65,393.42679999999996,398.625,404.834,407.791,412.659,415.9458,421.032,426.113,432.027,438.1026,443.297,448.947,454.861,460.409,468.884,474.6608,479.869,483.253,488.801,492.78499999999997,497.876,501.189,507.103,511.97,514.927" svgx:width="0.29,0.88,0.6,0.55,0.4,0.33,0.5,0.58,0.33,0.55,0.55,0.29,0.55,0.33,0.6,0.58,0.44,0.33,0.29,0.55,0.58,0.5,0.29,0.55,0.44,0.55,0.88,0.6,0.55,0.6,0.58,0.61,0.42,0.55,0.33,0.58,0.5,0.33,0.55,0.5,0.4,0.48,0.55,0.6,0.42,0.48,0.33,0.6,0.29,0.55,0.33,0.55,0.4,0.55,0.33,0.58,0.48,0.55,0.58,0.6,0.88,0.5,0.58,0.55,0.61,0.29,0.48,0.33,0.55,0.5,0.58,0.61,0.55,0.56,0.58,0.55,0.83,0.58,0.55,0.33,0.55,0.4,0.55,0.33,0.58,0.48,0.29,0.4" style="fill:rgb(0,0,0);font-family:URWPalladioL-Roma;font-size:9.96px;stroke:none;">important biofunctional compounds that are useful for the human diet and known for their</text>
   <text y="408.565" x="76.256,81.997,87.078,91.092,94.049,99.598,105.725,109.9082,114.973,121.08,126.994,132.075,136.089,145.062,150.143,154.655,160.203,163.16,168.709,174.359,177.316,181.827,186.908,189.79639999999998,194.804,200.911,204.742,210.291,216.398,221.266,225.28,228.592,231.549,236.417,240.6002,245.664,249.973,256.1,260.612,266.3888,271.465,276.546,280.7292,285.793,290.874,296.788,300.101,303.058,312.031,314.988,319.5,323.331,328.88,334.499,337.456,342.537,345.494,347.98400000000004,353.583,358.664,364.578,367.891,370.848,374.232,377.189,383.103,389.282,394.363,403.336,412.308,417.389,420.702,426.25,430.264,434.807,437.297,442.906,445.863,451.777,456.086,460.953,465.465,468.778,471.735,476.247,479.194,485.403,490.484,493.441,495.931,501.54,506.621,512.535" svgx:width="0.56,0.5,0.4,0.29,0.55,0.6,0.42,0.55,0.6,0.58,0.5,0.4,0.88,0.5,0.44,0.55,0.29,0.55,0.56,0.29,0.44,0.5,0.29,0.55,0.6,0.4,0.55,0.6,0.48,0.4,0.33,0.29,0.48,0.42,0.55,0.42,0.6,0.44,0.58,0.55,0.5,0.42,0.55,0.5,0.58,0.33,0.29,0.88,0.29,0.44,0.4,0.55,0.55,0.29,0.5,0.29,0.25,0.55,0.5,0.58,0.33,0.29,0.33,0.29,0.58,0.61,0.5,0.88,0.88,0.5,0.33,0.55,0.4,0.56,0.25,0.55,0.29,0.58,0.42,0.48,0.44,0.33,0.29,0.44,0.29,0.61,0.5,0.29,0.25,0.55,0.5,0.58,0.61" style="fill:rgb(0,0,0);font-family:URWPalladioL-Roma;font-size:9.96px;stroke:none;">various pharmacological properties such as antimicrobial, anti-inﬂammatory, insecticidal, and</text>
   <text y="422.074" x="76.535,81.417,87.099,90.282,93.123,96.374,102.056,107.387,111.722,114.563,118.898,123.575,129.443,132.625,135.467,140.983,145.7638,147.993,152.875,157.21,160.392,163.224,168.74,171.581,174.764,177.605,182.282,186.4652,188.755" svgx:width="0.5,0.58,0.33,0.29,0.33,0.58,0.55,0.44,0.29,0.44,0.48,0.6,0.33,0.29,0.56,0.48,0.55,0.5,0.44,0.33,0.29,0.56,0.29,0.33,0.29,0.48,0.42,0.55,0.33" style="fill:rgb(0,0,0);font-family:URWPalladioL-Roma;font-size:9.96px;stroke:none;">anti-nociceptive activities [</text>
   <text y="422.074" x="192.007,196.988" svgx:width="0.5,0.5" style="fill:rgb(0,0,255);font-family:URWPalladioL-Roma;font-size:9.96px;stroke:none;">23</text>
   <text y="422.074" x="201.969,205.22,207.71,210.697,217.219,221.896,226.231,230.908,236.59,239.773,242.614,246.939,249.429,251.733,259.875,264.6558,266.885,271.767,277.449,282.331,285.172,290.601,294.74,299.417,305.4926,307.716,312.598,318.28,324.3556,326.569,332.534,337.211,341.351,345.685,349.542,352.383,357.782,362.459,368.5346,370.758,373.941,379.623,384.4038,386.623,392.305,398.193,401.376,405.232,410.114,414.449,419.125,425.013,428.196,431.037,435.372,440.253,443.094,445.584,447.898,452.78,458.462,461.645,464.486,469.817,474.855,477.696,483.661,488.543,494.225,497.408,499.898,502.212,507.093,512.775" svgx:width="0.33,0.25,0.55,0.67,0.48,0.44,0.48,0.58,0.33,0.29,0.56,0.25,0.55,0.83,0.48,0.55,0.5,0.58,0.5,0.29,0.56,0.42,0.48,0.61,0.55,0.5,0.58,0.61,0.55,0.61,0.48,0.42,0.44,0.4,0.29,0.55,0.48,0.61,0.55,0.33,0.58,0.48,0.55,0.58,0.6,0.33,0.4,0.5,0.44,0.48,0.6,0.33,0.29,0.44,0.5,0.29,0.25,0.55,0.5,0.58,0.33,0.29,0.55,0.52,0.29,0.61,0.5,0.58,0.33,0.25,0.55,0.5,0.58,0.61" style="fill:rgb(0,0,0);font-family:URWPalladioL-Roma;font-size:9.96px;stroke:none;">]. Recently, we analysed and described the nutraceutical, antioxidant, and</text>
   <text y="435.583" x="76.535,81.038,86.677,89.983,95.521,101.616,105.439,110.977,114.283,119.141,123.644,126.951,129.902,135.632,140.4128,142.965,148.036,152.539,155.845,158.796,164.526,167.478,170.784,176.36159999999998,178.897,184.435,187.7218,190.287,194.79,198.715,204.83,211.027,215.8078,218.36,224.455,230.358,235.216,241.118,246.656,249.607,253.7902,256.382,261.453,267.355,273.4306,276.027,281.098,287.0,290.306,296.209,301.747,306.25,311.889,316.959,322.862,325.813,331.716,336.016,339.393,343.399,346.351,350.854,356.63079999999997,359.231,364.089,369.322,372.628,376.635,381.706,386.209,389.515,393.6982,396.29,402.486,407.344,411.35,414.302,420.032,424.89,430.9656,433.561,436.938,440.772,446.31,455.0748,457.74,461.746,464.697,470.792,475.5728,478.125,484.22,487.171,491.472,494.778,499.849,504.352,510.254,513.206" svgx:width="0.44,0.56,0.33,0.55,0.6,0.4,0.55,0.33,0.48,0.44,0.33,0.29,0.56,0.48,0.55,0.5,0.44,0.33,0.29,0.56,0.29,0.33,0.56,0.55,0.55,0.33,0.55,0.44,0.4,0.6,0.61,0.48,0.55,0.6,0.58,0.48,0.58,0.55,0.29,0.42,0.55,0.5,0.58,0.61,0.55,0.5,0.58,0.33,0.58,0.55,0.44,0.56,0.5,0.58,0.29,0.58,0.42,0.33,0.4,0.29,0.44,0.58,0.55,0.48,0.52,0.33,0.4,0.5,0.44,0.33,0.42,0.55,0.61,0.48,0.4,0.29,0.56,0.48,0.61,0.55,0.33,0.4,0.55,0.88,0.55,0.4,0.29,0.6,0.48,0.55,0.6,0.29,0.42,0.33,0.5,0.44,0.58,0.29,0.55" style="fill:rgb(0,0,0);font-family:URWPalladioL-Roma;font-size:9.96px;stroke:none;">cytoprotective activity of crude phenols and anthocyanins-rich extracts derived from ripe pistachio</text>
   <text y="449.093" x="76.535,82.449,88.577,91.534,94.491,98.6742,101.594" svgx:width="0.58,0.6,0.29,0.29,0.42,0.55,0.33" style="fill:rgb(0,0,0);font-family:URWPalladioL-Roma;font-size:9.96px;stroke:none;">hulls (</text>
   <text y="449.093" x="104.981,111.19,114.015,117.968,121.352,125.864,129.999,132.824,137.2064,140.131,145.212,149.165,153.118" svgx:width="0.61,0.28,0.39,0.33,0.44,0.41,0.28,0.44,0.55,0.5,0.39,0.39,0.44" style="fill:rgb(0,0,0);font-family:URWPalladioL-Ital;font-size:9.96px;stroke:none;">Pistacia vera</text>
   <text y="449.093" x="160.429,166.638,169.178,171.668,174.595,180.336,185.417,189.431,192.388,197.256,200.568,206.1456,209.013,215.222,219.053,224.601,230.515,233.828,238.696,242.079,244.56900000000002,247.496,252.476,255.371,260.991,266.641,270.025,276.132,279.973,285.521,291.73,297.858,302.37,305.65680000000003,308.477,314.025,317.3118,320.204,323.517,329.431,334.2118,337.103,343.21,346.167,350.476,353.779,358.859,363.371,369.286,372.243,377.721,380.596,383.553,389.467,395.676,401.803,406.112,409.425,413.439,419.01660000000004,421.883" svgx:width="0.61,0.25,0.25,0.55,0.56,0.5,0.4,0.29,0.48,0.33,0.56,0.55,0.61,0.4,0.55,0.58,0.33,0.48,0.33,0.25,0.55,0.5,0.55,0.55,0.56,0.33,0.6,0.4,0.55,0.61,0.6,0.44,0.33,0.55,0.55,0.33,0.55,0.33,0.58,0.48,0.55,0.6,0.29,0.42,0.33,0.5,0.44,0.58,0.29,0.55,0.55,0.29,0.58,0.61,0.6,0.42,0.33,0.4,0.56,0.55,0.33" style="fill:rgb(0,0,0);font-family:URWPalladioL-Roma;font-size:9.96px;stroke:none;">L., variety Bronte), a by-product of the pistachio industry [</text>
   <text y="449.093" x="425.267,430.248" svgx:width="0.5,0.5" style="fill:rgb(0,0,255);font-family:URWPalladioL-Roma;font-size:9.96px;stroke:none;">23</text>
   <text y="449.093" x="435.23" svgx:width="0.25" style="fill:rgb(0,0,0);font-family:URWPalladioL-Roma;font-size:9.96px;stroke:none;">,</text>
   <text y="449.093" x="437.77,442.751" svgx:width="0.5,0.5" style="fill:rgb(0,0,255);font-family:URWPalladioL-Roma;font-size:9.96px;stroke:none;">24</text>
   <text y="449.093" x="447.733,451.117,453.607,457.661,463.89,469.805,474.672,478.981,483.7618,486.653,490.962,494.274,500.402,506.611,509.568,514.435" svgx:width="0.33,0.25,0.55,0.61,0.58,0.48,0.42,0.48,0.55,0.42,0.33,0.6,0.61,0.29,0.48,0.42" style="fill:rgb(0,0,0);font-family:URWPalladioL-Roma;font-size:9.96px;stroke:none;">]. These studies</text>
   <text y="462.602" x="76.535,85.508,90.589,96.503,101.584,107.234,112.101,118.1766,120.81,124.123,129.601,132.181,135.138,141.347,146.215,152.129,155.442,158.399,161.783,167.36059999999998,169.933,173.245,179.16,182.117,186.3002,188.925,197.898,202.979,206.292,210.306,213.263,218.4422,221.016,226.097,230.2802,232.906,237.886,240.486,246.594,250.435,255.983,264.956,267.913,272.222,275.179,281.093,286.67060000000004,289.243,293.551,299.1,305.227,309.058,313.57,318.3508,320.948,326.496,329.7828,332.38,338.294,343.162,348.243,351.2,354.512,360.427,366.00460000000004,368.587,373.098,378.647,387.62,393.727,399.265,405.393,411.307,417.516,421.825,424.315,427.495,433.724,439.638,444.4188,447.016,450.847,455.714,460.023,466.15,469.108,472.42,476.6032,479.229,484.777,490.397,493.709,498.79,501.747,507.662,512.529" svgx:width="0.88,0.5,0.58,0.5,0.56,0.48,0.61,0.55,0.33,0.55,0.55,0.29,0.61,0.48,0.58,0.33,0.29,0.33,0.56,0.55,0.33,0.58,0.29,0.42,0.55,0.88,0.5,0.33,0.4,0.29,0.52,0.55,0.5,0.42,0.55,0.5,0.55,0.6,0.4,0.55,0.88,0.29,0.42,0.29,0.58,0.56,0.55,0.42,0.55,0.6,0.4,0.44,0.48,0.55,0.55,0.33,0.55,0.58,0.48,0.5,0.29,0.33,0.58,0.56,0.55,0.44,0.55,0.88,0.6,0.55,0.6,0.58,0.61,0.42,0.25,0.55,0.61,0.58,0.48,0.55,0.4,0.48,0.42,0.6,0.29,0.33,0.42,0.55,0.55,0.55,0.33,0.5,0.29,0.58,0.48,0.61" style="fill:rgb(0,0,0);font-family:URWPalladioL-Roma;font-size:9.96px;stroke:none;">managed to identify this matrix as a promising source of healthy compounds. The results obtained</text>
   <text y="476.112" x="76.535,82.449,85.406,91.056,96.97,99.928,102.885,108.535,114.449,117.762,122.629,128.7046,132.181,137.262,143.176,146.489,149.446,154.995,160.238,163.195,169.404,174.485,180.399,183.6858,187.045,192.126,198.04,204.1156,207.592,212.104,217.754,221.067,226.615,232.723,236.554,242.102,245.415,250.282,254.794,258.107,261.064,266.806,271.5868,275.016,281.124,284.965,290.513,296.61,301.478,305.492,308.804,311.762,316.629,320.8122,324.281,330.49,333.447,337.288,342.156,346.668,349.98,352.937,358.51460000000003,361.92,366.432,371.981,375.995,379.836,384.703,387.66,392.741,396.054,400.922,406.99760000000003,410.464,413.776,419.254,422.668,425.981,431.895,436.6758,440.106,446.02,448.977,454.627,460.4038,463.884,467.197,472.735,476.048,481.129,484.0174,487.43,493.537,499.451,504.319,510.233,515.781" svgx:width="0.58,0.29,0.56,0.58,0.29,0.29,0.56,0.58,0.33,0.48,0.61,0.55,0.5,0.58,0.33,0.29,0.55,0.52,0.29,0.61,0.5,0.58,0.33,0.55,0.5,0.58,0.61,0.55,0.44,0.56,0.33,0.55,0.6,0.4,0.55,0.33,0.48,0.44,0.33,0.29,0.56,0.48,0.55,0.6,0.4,0.55,0.6,0.48,0.4,0.33,0.29,0.48,0.42,0.55,0.61,0.29,0.4,0.48,0.44,0.33,0.29,0.56,0.55,0.44,0.55,0.4,0.4,0.48,0.29,0.5,0.33,0.48,0.61,0.55,0.33,0.55,0.55,0.33,0.58,0.48,0.55,0.58,0.29,0.56,0.58,0.55,0.33,0.55,0.33,0.5,0.29,0.55,0.6,0.58,0.48,0.58,0.55,0.29" style="fill:rgb(0,0,0);font-family:URWPalladioL-Roma;font-size:9.96px;stroke:none;">highlighted antioxidant and cytoprotective properties directly correlated to the high total phenol</text>
   <text y="489.621" x="76.535,80.941,86.359,92.134,95.368,100.121,105.896,109.131,111.621,114.103,116.99,122.76679999999999,125.266,131.229,136.191,140.11,143.345,146.232,150.638,156.622,159.509,164.47,168.454,170.881,176.914,181.875,187.481,192.899,198.674,204.092,206.979,211.187,213.67700000000002,216.158,222.122,227.897,232.65,238.425,243.842,246.73,249.618,254.00039999999998,256.514,261.475,265.881,268.768,274.831,277.321,279.812,284.774,290.549,296.6246,299.102,305.135,310.097,315.703,320.664,326.439,329.744,334.705,338.009,343.427,346.315,350.4982,353.013,357.974,363.749,369.812,372.302,374.793,379.754,388.516,393.934,399.709,405.2866,407.717,412.678,418.453,421.688,427.463,432.881,437.286,442.803,447.765,453.54,456.427,462.202,466.41,468.90000000000003,471.381,474.616,480.094,482.534,485.769,491.544,496.3248,498.788,504.563,507.45,512.967" svgx:width="0.44,0.55,0.58,0.33,0.48,0.58,0.33,0.25,0.55,0.29,0.58,0.55,0.6,0.5,0.4,0.33,0.29,0.44,0.6,0.29,0.5,0.4,0.55,0.61,0.5,0.56,0.55,0.58,0.55,0.29,0.42,0.25,0.55,0.6,0.58,0.48,0.58,0.55,0.29,0.29,0.44,0.55,0.5,0.44,0.29,0.61,0.25,0.55,0.5,0.58,0.61,0.55,0.61,0.5,0.56,0.5,0.58,0.33,0.5,0.33,0.55,0.29,0.42,0.55,0.5,0.58,0.61,0.25,0.55,0.5,0.88,0.55,0.58,0.56,0.55,0.5,0.58,0.33,0.58,0.55,0.44,0.56,0.5,0.58,0.29,0.58,0.42,0.25,0.55,0.33,0.55,0.55,0.33,0.58,0.48,0.55,0.58,0.29,0.56,0.58" style="fill:rgb(0,0,0);font-family:URWPalladioL-Roma;font-size:9.96px;stroke:none;">content, in particular ﬂavonols, phenolic acid, and ﬂavan-3-ols and, among anthocyanins, to the high</text>
   <text y="503.13" x="76.535,80.945,86.368,92.149,95.387,100.145,105.926,109.2128,111.667,117.09,120.3768,122.891,127.301,132.824,137.79,143.571,146.461,152.53,158.053,163.834,167.141,172.108" svgx:width="0.44,0.55,0.58,0.33,0.48,0.58,0.33,0.55,0.55,0.33,0.55,0.44,0.56,0.5,0.58,0.29,0.61,0.56,0.58,0.33,0.5,0.33" style="fill:rgb(0,0,0);font-family:URWPalladioL-Roma;font-size:9.96px;stroke:none;">content of cyanidyn-3-</text>
   <text y="503.13" x="175.42" svgx:width="0.78" style="fill:rgb(0,0,0);font-family:URWPalladioL-Ital;font-size:9.96px;stroke:none;">O</text>
   <text y="503.13" x="183.147,186.455,191.977,196.944,199.834,204.8,209.21,212.449,217.872,222.083,224.974,231.043,235.8238,238.303" svgx:width="0.33,0.56,0.5,0.29,0.5,0.44,0.33,0.55,0.42,0.29,0.61,0.48,0.55,0.33" style="fill:rgb(0,0,0);font-family:URWPalladioL-Roma;font-size:9.96px;stroke:none;">-galactoside [</text>
   <text y="503.13" x="241.608,246.589" svgx:width="0.5,0.5" style="fill:rgb(0,0,255);font-family:URWPalladioL-Roma;font-size:9.96px;stroke:none;">23</text>
   <text y="503.13" x="251.571" svgx:width="0.25" style="fill:rgb(0,0,0);font-family:URWPalladioL-Roma;font-size:9.96px;stroke:none;">,</text>
   <text y="503.13" x="254.054,259.035" svgx:width="0.5,0.5" style="fill:rgb(0,0,255);font-family:URWPalladioL-Roma;font-size:9.96px;stroke:none;">24</text>
   <text y="503.13" x="264.017,267.325,269.815,272.927,279.015,284.796,289.5768,292.057,298.027,301.771,306.529,310.74,315.498,321.279,325.689,330.4698,332.94,338.363,341.6498,344.174,347.412,353.193,357.951,362.162,366.9428,369.423,373.833,379.256,388.027,393.997,399.42,405.409,411.19,417.259,421.4422,423.964,432.734,437.7,443.223,447.981,452.1642,454.695,460.665,463.555,467.767,471.005,475.971,480.381,486.162,489.053,494.531,496.979,502.76,508.749,511.64,514.53" svgx:width="0.33,0.25,0.55,0.61,0.58,0.48,0.55,0.6,0.4,0.48,0.42,0.48,0.58,0.44,0.48,0.55,0.55,0.33,0.55,0.33,0.58,0.48,0.42,0.48,0.55,0.44,0.55,0.88,0.6,0.55,0.6,0.58,0.61,0.42,0.55,0.88,0.5,0.56,0.48,0.42,0.55,0.6,0.29,0.42,0.33,0.5,0.44,0.58,0.29,0.55,0.55,0.58,0.6,0.29,0.29,0.42" style="fill:rgb(0,0,0);font-family:URWPalladioL-Roma;font-size:9.96px;stroke:none;">]. The presence of these compounds makes pistachio hulls</text>
   <text y="516.64" x="76.535,81.616,87.3928,90.172,95.253,98.566,101.879,105.893,110.974,115.485,118.798,121.755,127.497,132.2778,135.016,139.325,144.873,151.001,154.832,159.344,164.1248,166.864,172.412,175.6988,178.438,184.352,189.22,194.301,197.258,200.571,206.485,209.869,215.976,219.807,225.355,234.328,239.877,243.189,246.146,252.061,257.6386,260.363,264.875,270.423,279.396,285.503,291.052,297.179,303.093,309.302,313.611,316.101,318.834,327.309,333.223,336.18,340.692,346.4688,349.249,354.33,358.171,362.9518,365.68,371.788,377.336,380.649,385.516,391.43,394.743,397.7,402.781,405.738,408.695,414.2726,416.987,422.902,427.769,430.726,436.834,440.217,446.345,449.2334,451.954,457.035,462.685,467.766,470.723,476.638,480.946,484.23280000000005,486.901,491.21,496.077,501.819,506.686,510.7,515.781" svgx:width="0.5,0.58,0.55,0.5,0.33,0.33,0.4,0.5,0.44,0.33,0.29,0.56,0.48,0.55,0.42,0.55,0.6,0.4,0.44,0.48,0.55,0.55,0.33,0.55,0.58,0.48,0.5,0.29,0.33,0.58,0.33,0.6,0.4,0.55,0.88,0.55,0.33,0.29,0.58,0.56,0.55,0.44,0.55,0.88,0.6,0.55,0.6,0.58,0.61,0.42,0.25,0.55,0.83,0.58,0.29,0.44,0.58,0.55,0.5,0.4,0.48,0.55,0.6,0.55,0.33,0.48,0.58,0.33,0.29,0.5,0.29,0.29,0.56,0.55,0.58,0.48,0.29,0.6,0.33,0.6,0.29,0.55,0.5,0.56,0.5,0.29,0.58,0.42,0.33,0.55,0.42,0.48,0.56,0.48,0.4,0.5,0.29" style="fill:rgb(0,0,0);font-family:URWPalladioL-Roma;font-size:9.96px;stroke:none;">an attractive source of health-promoting compounds, which are potentially helpful against several</text>
   <text y="530.149" x="76.535,81.975,87.115,90.014,96.102,101.083,104.331,107.23,112.859,117.6398,120.121,124.346,127.593,131.349,136.121,140.345,144.57,147.887,151.643,156.415,159.314,164.296,167.543,172.315,178.3906,180.893,186.98,189.879,194.104,198.876,203.857,208.081,212.853,217.077" svgx:width="0.55,0.52,0.29,0.61,0.5,0.33,0.29,0.56,0.48,0.55,0.42,0.33,0.4,0.48,0.42,0.42,0.33,0.4,0.48,0.29,0.5,0.33,0.48,0.61,0.55,0.61,0.29,0.42,0.48,0.5,0.42,0.48,0.42,0.25" style="fill:rgb(0,0,0);font-family:URWPalladioL-Roma;font-size:9.96px;stroke:none;">oxidative stress-related diseases.</text>
   <text y="543.658" x="97.795,105.352,110.028,114.168,120.036,122.877,126.06,130.8408,132.943,136.126,141.808,146.5888,148.691,156.834,161.511,164.352,167.193,170.444,175.872,181.555,186.886,195.028,200.8048,202.917,207.594,210.776,216.459,222.141,227.472,233.34,239.022,243.903,247.76,256.381,261.263,265.598,270.928,273.77,279.1,284.529,287.37,291.705,296.587,299.4754,301.624,305.305,309.982,312.823,317.5,323.016,327.898,333.58,337.915,342.6958,344.798,350.129,353.41580000000005,355.586,359.726,365.057,373.678,378.4588,380.561,385.238,389.377,393.517,398.194,403.876,407.059,409.9,414.782,417.6704,419.829,425.16,428.001,430.842,435.0252,437.179,443.144,447.821,451.677,454.518,460.035,464.711,470.7866,472.883,476.134,479.815,485.146,495.973,500.113,505.444,514.065" svgx:width="0.77,0.48,0.42,0.6,0.29,0.33,0.48,0.55,0.33,0.58,0.48,0.55,0.83,0.48,0.29,0.29,0.33,0.56,0.58,0.55,0.83,0.58,0.55,0.48,0.33,0.58,0.58,0.55,0.6,0.58,0.5,0.4,0.88,0.5,0.44,0.55,0.29,0.55,0.56,0.29,0.44,0.5,0.29,0.55,0.4,0.48,0.29,0.48,0.56,0.5,0.58,0.44,0.48,0.55,0.55,0.33,0.55,0.42,0.55,0.88,0.48,0.55,0.48,0.42,0.42,0.48,0.58,0.33,0.29,0.5,0.29,0.55,0.55,0.29,0.29,0.42,0.55,0.61,0.48,0.4,0.29,0.56,0.48,0.61,0.55,0.33,0.4,0.55,0.88,0.42,0.55,0.88,0.48" style="fill:rgb(0,0,0);font-family:URWPalladioL-Roma;font-size:9.96px;stroke:none;">Despite the well-known ethnopharmacological relevance of some essential oils derived fromsome</text>
   <text y="557.168" x="76.535,80.708,86.624,91.339,95.709,98.574,103.288,107.4712,109.962,115.336,118.6228,121.124,124.333,130.062,134.8428,137.276,142.749,147.464,153.193,159.128" svgx:width="0.42,0.6,0.48,0.44,0.29,0.48,0.42,0.55,0.55,0.33,0.55,0.33,0.58,0.48,0.55,0.56,0.48,0.58,0.6,0.42" style="fill:rgb(0,0,0);font-family:URWPalladioL-Roma;font-size:9.96px;stroke:none;">species of the genus</text>
   <text y="557.168" x="165.806,171.82,174.556,178.385,181.663,186.033,190.04,192.776" svgx:width="0.61,0.28,0.39,0.33,0.44,0.41,0.28,0.44" style="fill:rgb(0,0,0);font-family:URWPalladioL-Ital;font-size:9.96px;stroke:none;">Pistacia</text>
   <text y="557.168" x="199.65" svgx:width="0.33" style="fill:rgb(0,0,0);font-family:URWPalladioL-Roma;font-size:9.96px;stroke:none;">(</text>
   <text y="557.168" x="202.928,207.653,210.143,212.623,216.994,220.271,223.008,227.378,232.851,236.129,238.865,242.871" svgx:width="0.61,0.25,0.55,0.44,0.33,0.28,0.44,0.56,0.33,0.28,0.41,0.44" style="fill:rgb(0,0,0);font-family:URWPalladioL-Ital;font-size:9.96px;stroke:none;">P. atlantica</text>
   <text y="557.168" x="249.743,257.362,262.076,266.25,269.5368,272.028,276.949,282.678" svgx:width="0.77,0.48,0.42,0.33,0.55,0.5,0.58,0.61" style="fill:rgb(0,0,0);font-family:URWPalladioL-Roma;font-size:9.96px;stroke:none;">Desf and</text>
   <text y="557.168" x="291.199,295.924,298.414,300.894,303.631,309.104,312.381,316.21,321.132,324.961,328.79,332.619,335.355,343.013" svgx:width="0.61,0.25,0.55,0.28,0.56,0.33,0.39,0.5,0.39,0.39,0.39,0.28,0.78,0.44" style="fill:rgb(0,0,0);font-family:URWPalladioL-Ital;font-size:9.96px;stroke:none;">P. integerrima</text>
   <text y="557.168" x="349.885,353.163,355.624,361.638,364.128,366.598,371.766,374.975,379.69,387.899,392.82,396.708,399.99480000000005,402.427,407.142,412.3212,414.721,420.735,424.623,429.545,435.273,441.288,444.152,448.325,451.6118,454.103,459.025,464.497,469.419,472.283,478.012,482.185,485.47180000000003,487.904,492.078,496.792,502.354,507.069,510.957,515.878" svgx:width="0.33,0.25,0.61,0.25,0.55,0.52,0.33,0.48,0.83,0.5,0.4,0.33,0.55,0.48,0.52,0.55,0.61,0.4,0.5,0.58,0.61,0.29,0.42,0.33,0.55,0.5,0.56,0.5,0.29,0.58,0.42,0.33,0.55,0.42,0.48,0.56,0.48,0.4,0.5,0.29" style="fill:rgb(0,0,0);font-family:URWPalladioL-Roma;font-size:9.96px;stroke:none;">J.L. Stewart ex Brandis) against several</text>
   <text y="570.677" x="76.535,82.525,85.377,89.534,94.23,99.131,103.288,107.984,112.14,114.63,117.071,122.963,127.865,131.737,134.933,137.785,142.138,148.049,150.902,155.804,159.676,162.529,168.1066,170.469,173.665,179.371,184.723,188.88,193.6608,196.056,200.957,204.035,207.31,212.005,216.358,219.554,222.407,228.112,233.68959999999998,236.043,239.239,244.944,249.7248,252.12,255.816,260.512,264.668,270.56,273.413,277.285,282.186,285.382,290.735,294.607,300.18460000000005,302.538,307.44,313.145,319.2206,321.615,324.811,330.516,335.2968,337.692,343.143,348.044,352.201,355.397,359.093,364.445,367.298,373.003,376.199,380.895,385.051,388.247,391.1,396.805,401.707,404.5954,407.04,410.236,414.108,419.01,423.362,426.64880000000005,429.038" svgx:width="0.61,0.29,0.42,0.48,0.5,0.42,0.48,0.42,0.25,0.55,0.6,0.5,0.4,0.33,0.29,0.44,0.6,0.29,0.5,0.4,0.29,0.56,0.55,0.33,0.58,0.55,0.42,0.48,0.55,0.5,0.33,0.33,0.48,0.44,0.33,0.29,0.58,0.56,0.55,0.33,0.58,0.48,0.55,0.4,0.48,0.42,0.6,0.29,0.4,0.5,0.33,0.55,0.4,0.56,0.55,0.5,0.58,0.61,0.55,0.33,0.58,0.48,0.55,0.56,0.5,0.42,0.33,0.4,0.55,0.29,0.58,0.33,0.48,0.42,0.33,0.29,0.58,0.5,0.29,0.55,0.33,0.4,0.5,0.44,0.33,0.55,0.33" style="fill:rgb(0,0,0);font-family:URWPalladioL-Roma;font-size:9.96px;stroke:none;">diseases, particularly those affecting the respiratory and the gastrointestinal tract [</text>
   <text y="570.677" x="432.308,437.289" svgx:width="0.5,0.5" style="fill:rgb(0,0,255);font-family:URWPalladioL-Roma;font-size:9.96px;stroke:none;">25</text>
   <text y="570.677" x="442.27" svgx:width="0.5" style="fill:rgb(0,0,0);font-family:URWPalladioL-Roma;font-size:9.96px;stroke:none;">–</text>
   <text y="570.677" x="447.172,452.153" svgx:width="0.5,0.5" style="fill:rgb(0,0,255);font-family:URWPalladioL-Roma;font-size:9.96px;stroke:none;">28</text>
   <text y="570.677" x="457.135,460.399,462.889,465.33,471.036,476.514,478.879,481.731,484.584,487.78,492.476,496.348,501.249,504.445,510.347,514.043" svgx:width="0.33,0.25,0.55,0.58,0.55,0.55,0.29,0.29,0.33,0.48,0.4,0.5,0.33,0.6,0.4,0.48" style="fill:rgb(0,0,0);font-family:URWPalladioL-Roma;font-size:9.96px;stroke:none;">], no literature</text>
   <text y="584.187" x="76.535,82.622,87.603,90.851,95.831,98.323,102.747,108.186,113.984,118.408,123.18,127.115,132.913,135.812,141.611,147.18859999999998,149.641,152.888,158.687,163.4678,165.949,171.748,177.755,180.654,183.5424,186.044,190.816,195.04,199.264,204.036,209.835,213.082,215.981,220.963,223.85139999999998,226.352,231.792,234.691,237.5794,240.081,244.504,249.944,258.741,264.728,270.168,274.392,277.291,280.539,283.438,288.878,294.65479999999997,297.167,302.148,307.946,314.02160000000003,316.524,322.033,324.932,330.372,333.271,338.711,344.25,347.149,351.572,356.554,359.44239999999996,361.943,367.931,371.687,377.126,383.114,387.886,391.821,395.069,397.968,402.74,406.9232,409.455,414.895" svgx:width="0.61,0.5,0.33,0.5,0.55,0.44,0.55,0.58,0.44,0.48,0.4,0.58,0.29,0.58,0.56,0.55,0.33,0.58,0.48,0.55,0.58,0.6,0.29,0.29,0.55,0.48,0.42,0.42,0.48,0.58,0.33,0.29,0.5,0.29,0.55,0.55,0.29,0.29,0.55,0.44,0.55,0.88,0.6,0.55,0.42,0.29,0.33,0.29,0.55,0.58,0.55,0.5,0.58,0.61,0.55,0.55,0.29,0.55,0.29,0.55,0.56,0.29,0.44,0.5,0.29,0.55,0.6,0.4,0.55,0.6,0.48,0.4,0.33,0.29,0.48,0.42,0.55,0.55,0.33" style="fill:rgb(0,0,0);font-family:URWPalladioL-Roma;font-size:9.96px;stroke:none;">data concerning the hull essential oil composition and biological properties of</text>
   <text y="584.187" x="420.707,426.794,429.564,433.439,436.757,441.18,445.235,448.005,452.3874,454.919,459.9,463.775,467.651" svgx:width="0.61,0.28,0.39,0.33,0.44,0.41,0.28,0.44,0.55,0.5,0.39,0.39,0.44" style="fill:rgb(0,0,0);font-family:URWPalladioL-Ital;font-size:9.96px;stroke:none;">Pistacia vera</text>
   <text y="584.187" x="474.566,480.653,483.144,485.634,488.125,493.754,498.735,502.671,505.57,510.342,513.59" svgx:width="0.61,0.25,0.25,0.55,0.56,0.5,0.4,0.29,0.48,0.33,0.56" style="fill:rgb(0,0,0);font-family:URWPalladioL-Roma;font-size:9.96px;stroke:none;">L., variety</text>
   <text y="597.696" x="76.535,82.622,86.378,91.818,97.616,100.864,105.636,108.12599999999999,110.617,115.598,119.354,124.1348,126.617,129.865,135.304,141.392,146.373,151.95059999999998,154.403,159.384,165.013,169.994,172.893,175.792,180.774,186.283,189.182,193.954" svgx:width="0.61,0.4,0.55,0.58,0.33,0.48,0.25,0.55,0.5,0.4,0.48,0.55,0.33,0.55,0.61,0.5,0.56,0.55,0.5,0.56,0.5,0.29,0.29,0.5,0.55,0.29,0.48,0.25" style="fill:rgb(0,0,0);font-family:URWPalladioL-Roma;font-size:9.96px;stroke:none;">Bronte, are today available.</text>
   <text y="611.205" x="97.72,105.697,110.432,115.802,118.496,124.032,129.6096,131.56,135.748,140.933,146.468,150.462,153.156,158.975,163.505,167.04,171.57,177.6456,179.634,182.671,188.207,192.9878,194.982,199.718,204.97,210.155,215.525,220.055,222.54500000000002,224.643,232.64,237.42079999999999,239.415,244.951,249.686,255.056,259.83680000000004,261.832,264.937,270.121,274.10499999999996,276.077,279.113,284.649,289.4298,291.435,294.539,297.234,300.934,304.927,308.21380000000005,310.219,313.256,315.95,324.425,329.2058,331.201,336.922,341.452,345.162,348.267,353.451,357.161,365.636,370.166,375.985,378.475,380.564,385.54400000000004,387.555,393.276,398.812,404.094,407.12,412.305,416.493,422.029,426.559,435.034,437.728,441.917,446.652,449.5404,451.602,455.791,461.326,466.062,469.772,474.507,478.695,481.732,486.262,489.972,492.667,497.402,502.137,505.174,507.868,513.053" svgx:width="0.83,0.5,0.56,0.29,0.58,0.56,0.55,0.44,0.55,0.58,0.42,0.29,0.61,0.48,0.4,0.48,0.61,0.55,0.33,0.58,0.48,0.55,0.5,0.55,0.55,0.56,0.48,0.25,0.55,0.83,0.48,0.55,0.58,0.5,0.56,0.48,0.55,0.33,0.55,0.4,0.55,0.33,0.58,0.48,0.55,0.33,0.29,0.4,0.42,0.33,0.55,0.33,0.29,0.88,0.48,0.55,0.6,0.48,0.4,0.33,0.55,0.4,0.88,0.48,0.61,0.25,0.55,0.5,0.55,0.6,0.58,0.56,0.33,0.55,0.44,0.58,0.48,0.88,0.29,0.44,0.5,0.29,0.55,0.44,0.58,0.5,0.4,0.5,0.44,0.33,0.48,0.4,0.29,0.5,0.5,0.33,0.29,0.55,0.58" style="fill:rgb(0,0,0);font-family:URWPalladioL-Roma;font-size:9.96px;stroke:none;">Having considered the above, we have for the first time performed, a phytochemical characterization</text>
   <text y="624.715" x="76.54,81.936,85.2228,91.569,95.431,98.236,104.19,108.9708,115.318,121.272,124.077,128.233,131.394,136.322,140.682,146.443,149.248,154.726,161.046,166.808,172.783,175.588,178.47639999999998,184.794,189.509,193.665,197.822,202.537,208.298,211.459,214.263,219.192,222.0804,228.399,233.795,236.599,239.48739999999998,245.816,249.047,254.443,257.248,260.053,265.449,273.771,278.486,284.5616,290.945,296.412,301.9896,308.311,311.472,317.233,322.0138,328.361,333.076,338.665,343.593,346.398,352.373,357.302,360.462,363.267,368.662,374.43879999999996,380.826,386.222,389.5088,395.856,400.784,406.546,409.706,412.511,417.907,422.998,425.802,431.859,436.787,442.549,445.71,448.2,455.495,459.855,465.352,468.513,473.909,479.863,483.542,488.938,492.098,496.813,501.173,504.333,507.138,512.727,517.442" svgx:width="0.55,0.33,0.55,0.4,0.29,0.6,0.48,0.55,0.6,0.29,0.42,0.33,0.5,0.44,0.58,0.29,0.55,0.55,0.58,0.6,0.29,0.29,0.55,0.48,0.42,0.42,0.48,0.58,0.33,0.29,0.5,0.29,0.55,0.55,0.29,0.29,0.55,0.33,0.55,0.29,0.29,0.55,0.83,0.48,0.61,0.55,0.55,0.56,0.55,0.33,0.58,0.48,0.55,0.48,0.56,0.5,0.29,0.6,0.5,0.33,0.29,0.55,0.58,0.55,0.55,0.33,0.55,0.5,0.58,0.33,0.29,0.55,0.52,0.29,0.61,0.5,0.58,0.33,0.25,0.55,0.44,0.56,0.33,0.55,0.6,0.4,0.55,0.33,0.48,0.44,0.33,0.29,0.56,0.48,0.25" style="fill:rgb(0,0,0);font-family:URWPalladioL-Roma;font-size:9.96px;stroke:none;">of ripe pistachio hull essential oil followed by the evaluation of antioxidant, cytoprotective,</text>
   <text y="638.224" x="76.54,81.275,86.811,92.8866,94.827,99.562,105.098,108.134,110.829,116.55,121.08,124.615,129.799,134.69,137.385,143.204,147.939,150.976,153.67,159.04,163.8208,165.767,171.489,175.013,180.197,185.919,190.449,194.159,197.195,199.89,204.42,208.6032,210.61,213.647,219.182,222.717,227.901,233.642,238.924,244.70080000000002,246.656,250.845,255.375,258.07,260.764,263.869,266.974,270.508,275.038,279.8188,281.765,286.501,292.036,298.1116,300.052,304.241,308.771,311.465,314.16,317.265,322.518,327.253,331.246,335.776,341.8516,343.792,348.527,352.52,356.513,361.249,366.531,370.524,373.014,375.09,381.075,386.757,391.5378,393.67,398.551,404.234,407.416,410.258,418.879,421.72,426.055,429.726,435.056,440.456,443.297,448.178,451.0664,453.255,458.137,462.472,465.655,468.496,474.012,476.853,480.036,485.6136,487.701,492.582,498.011,502.892,505.733,511.416,515.555" svgx:width="0.5,0.58,0.61,0.55,0.5,0.58,0.33,0.29,0.6,0.48,0.4,0.55,0.52,0.29,0.61,0.5,0.33,0.29,0.56,0.48,0.55,0.6,0.4,0.55,0.6,0.48,0.4,0.33,0.29,0.48,0.42,0.55,0.33,0.58,0.4,0.55,0.6,0.56,0.58,0.55,0.44,0.48,0.29,0.29,0.33,0.33,0.4,0.48,0.48,0.55,0.5,0.58,0.61,0.55,0.44,0.48,0.29,0.29,0.33,0.55,0.5,0.42,0.48,0.61,0.55,0.5,0.42,0.42,0.5,0.56,0.42,0.25,0.55,0.61,0.58,0.48,0.55,0.5,0.58,0.33,0.29,0.88,0.29,0.44,0.4,0.55,0.55,0.29,0.5,0.29,0.55,0.5,0.44,0.33,0.29,0.56,0.29,0.33,0.56,0.55,0.5,0.56,0.5,0.29,0.58,0.42,0.33" style="fill:rgb(0,0,0);font-family:URWPalladioL-Roma;font-size:9.96px;stroke:none;">and antiperoxidative properties through cell-free and cell-based assays. The antimicrobial activity against</text>
   <text y="651.734" x="76.535,80.759,86.199,94.996,99.7768,102.258,109.86,113.795,118.776,127.573,130.891,136.878,142.318,146.542,149.441,152.689,155.588,161.217,165.9978,168.48,173.461,179.259,185.3346,187.837,195.439,199.374,204.355,213.152,216.47,222.268,227.04,232.579,237.56,240.808,243.707,249.336,254.1168,256.599,260.823,264.071,269.052,274.85,280.938,285.919,289.675,295.7506,298.253,303.234,309.032,315.1076,317.61,322.033,324.932,327.832,333.63,336.529,340.952,345.934,348.8224,351.323,356.833,361.814,366.237,369.485,374.257,378.193,381.092,386.073,388.96139999999997,391.463,397.261,402.242,406.4252,408.957,413.938,416.837,421.062,426.54,428.992,434.501,439.273,444.045,449.8218,452.334,455.233,461.032,466.66,471.433,475.657,478.904,481.804,487.343,492.324,495.572,500.344,506.431" svgx:width="0.42,0.55,0.88,0.48,0.55,0.76,0.4,0.5,0.88,0.33,0.6,0.55,0.42,0.29,0.33,0.29,0.56,0.48,0.55,0.5,0.58,0.61,0.55,0.76,0.4,0.5,0.88,0.33,0.58,0.48,0.56,0.5,0.33,0.29,0.56,0.48,0.55,0.42,0.33,0.5,0.58,0.61,0.5,0.4,0.61,0.55,0.5,0.58,0.61,0.55,0.44,0.29,0.29,0.58,0.29,0.44,0.5,0.29,0.55,0.55,0.5,0.44,0.33,0.48,0.4,0.29,0.5,0.29,0.55,0.58,0.5,0.42,0.55,0.5,0.29,0.42,0.55,0.55,0.55,0.48,0.48,0.58,0.55,0.29,0.58,0.56,0.48,0.42,0.33,0.29,0.56,0.5,0.33,0.48,0.61,0.25" style="fill:rgb(0,0,0);font-family:URWPalladioL-Roma;font-size:9.96px;stroke:none;">some Gram-positive and Gram-negative standard and clinical bacterial has also been investigated.</text>
   <text y="674.947" x="76.535,81.516,84.006,87.095,94.288,99.27,103.693,109.78,113.098,116.415,120.79740000000001,123.329,128.311,134.398,140.4736,142.976,151.274,154.592,159.015,163.439,169.526,173.949,178.373,181.69,187.229" svgx:width="0.5,0.25,0.55,0.72,0.5,0.44,0.61,0.33,0.33,0.44,0.55,0.5,0.61,0.61,0.55,0.83,0.33,0.44,0.44,0.61,0.44,0.44,0.33,0.56,0.61" style="fill:rgb(0,0,0);font-family:URWPalladioL-Bold;font-size:9.96px;stroke:none;">2. Results and Discussion</text>
   <text y="698.16" x="76.535,81.516,84.007,88.988,91.478,94.567,100.654,104.53,108.405,112.281,117.82,121.138,123.907,128.331,131.1198,133.591,141.342,144.111,146.8998,149.372,156.017,160.44,168.191,173.172,177.596,181.471,184.241,187.558,190.328,194.751" svgx:width="0.5,0.25,0.5,0.25,0.55,0.61,0.39,0.39,0.39,0.56,0.33,0.28,0.44,0.28,0.55,0.78,0.28,0.28,0.55,0.67,0.44,0.78,0.5,0.44,0.39,0.28,0.33,0.28,0.44,0.56" style="fill:rgb(0,0,0);font-family:URWPalladioL-Ital;font-size:9.96px;stroke:none;">2.1. Essential Oil Composition</text>
   <text y="717.647" x="97.72,103.6,109.176,113.9568,116.187,121.506,124.22,128.783,131.497,137.57260000000002,139.796,145.017,148.3038,150.592,156.168,161.95,164.664,167.55239999999998,169.826,174.389,178.41,182.432,186.995,192.57,195.628,198.342,203.111,205.99939999999998,208.273,213.495,216.209,219.0974,221.361,226.583" svgx:width="0.61,0.58,0.48,0.55,0.56,0.29,0.48,0.29,0.61,0.55,0.55,0.33,0.55,0.58,0.6,0.29,0.29,0.55,0.48,0.42,0.42,0.48,0.58,0.33,0.29,0.5,0.29,0.55,0.55,0.29,0.29,0.55,0.55,0.33" style="fill:rgb(0,0,0);font-family:URWPalladioL-Roma;font-size:9.96px;stroke:none;">The yield of hull essential oil of</text>
   <text y="717.647" x="232.158,238.019,240.605,244.282,247.409,251.628,255.482,258.068,262.4504,264.735,269.504,273.182,276.859" svgx:width="0.61,0.28,0.39,0.33,0.44,0.41,0.28,0.44,0.55,0.5,0.39,0.39,0.44" style="fill:rgb(0,0,0);font-family:URWPalladioL-Ital;font-size:9.96px;stroke:none;">Pistacia vera</text>
   <text y="717.647" x="283.521,289.382,291.872,294.141,299.549,304.318,308.055,310.768,315.331,318.389,323.9666,326.147,332.008,335.568,340.789,346.364,349.422,354.2028,356.433,359.56,367.594,373.454,381.036,384.32280000000003,386.611,394.664,399.434,403.6172,405.894,410.663,412.974,417.743,422.512,433.072" svgx:width="0.61,0.25,0.55,0.56,0.5,0.4,0.29,0.48,0.33,0.56,0.55,0.61,0.4,0.55,0.58,0.33,0.48,0.55,0.33,0.83,0.61,0.79,0.33,0.55,0.83,0.5,0.42,0.55,0.5,0.25,0.5,0.5,0.84,0.33" style="fill:rgb(0,0,0);font-family:URWPalladioL-Roma;font-size:9.96px;stroke:none;">L. variety Bronte (HEO) was 0.25%(</text>
   <text y="717.647" x="436.2" svgx:width="0.5" style="fill:rgb(0,0,0);font-family:URWPalladioL-Ital;font-size:9.96px;stroke:none;">v</text>
   <text y="717.647" x="440.969" svgx:width="0.61" style="fill:rgb(0,0,0);font-family:URWPalladioL-Roma;font-size:9.96px;stroke:none;">/</text>
   <text y="717.647" x="446.78" svgx:width="0.72" style="fill:rgb(0,0,0);font-family:URWPalladioL-Ital;font-size:9.96px;stroke:none;">w</text>
   <text y="717.647" x="456.178,459.305,462.865,467.427,471.449,477.2258,479.463,487.998,492.767,495.825,500.388,504.124,506.838,511.607,514.321,517.527" svgx:width="0.33,0.4,0.48,0.42,0.58,0.55,0.88,0.5,0.33,0.48,0.4,0.29,0.5,0.29,0.33,0.25" style="fill:rgb(0,0,0);font-family:URWPalladioL-Roma;font-size:9.96px;stroke:none;">fresh material),</text>
   <text y="731.156" x="76.117,84.592,89.46,92.417,95.3054,98.758,103.839,109.458,115.006,120.748,125.5288,128.989,134.537,137.85,143.764,148.632,152.646,156.8292,160.338,164.169,169.037,175.144,180.693,184.707,188.019,192.887,198.9626,202.48,205.437,211.21380000000002,214.735,217.692,220.649,223.952,228.819,232.833,237.914,241.227,247.354,251.195,255.9758,259.437,262.821,268.979,274.06,276.6,281.681,286.661,290.146,293.459,296.416,305.389,310.256,314.565,317.8518,321.333" svgx:width="0.83,0.48,0.29,0.29,0.55,0.5,0.55,0.55,0.56,0.48,0.55,0.55,0.33,0.58,0.48,0.4,0.42,0.55,0.4,0.48,0.6,0.55,0.4,0.33,0.48,0.61,0.55,0.29,0.58,0.55,0.29,0.29,0.33,0.48,0.4,0.5,0.33,0.6,0.4,0.48,0.55,0.33,0.61,0.5,0.25,0.5,0.5,0.55,0.33,0.29,0.88,0.48,0.42,0.33,0.55,0.33" style="fill:rgb(0,0,0);font-family:URWPalladioL-Roma;font-size:9.96px;stroke:none;">well above others reported in literature (&gt;3.50 times) [</text>
   <text y="731.156" x="324.714,329.695" svgx:width="0.5,0.5" style="fill:rgb(0,0,255);font-family:URWPalladioL-Roma;font-size:9.96px;stroke:none;">20</text>
   <text y="731.156" x="334.677,338.061,340.551,344.209,350.418,355.285,364.258,369.807,375.721,380.029,383.342,387.356,392.437,395.74,398.697,404.611,410.1886,413.645,419.559,425.107,433.3738,436.966,440.279,446.193,450.9738,454.434,460.643,464.485,470.033,475.947,479.26,484.0408,487.501,493.243,498.324,502.337,505.295,510.162,513.475" svgx:width="0.33,0.25,0.55,0.61,0.48,0.88,0.55,0.58,0.42,0.33,0.4,0.5,0.33,0.29,0.58,0.56,0.55,0.58,0.55,0.83,0.55,0.33,0.58,0.48,0.55,0.61,0.4,0.55,0.58,0.33,0.48,0.55,0.56,0.5,0.4,0.29,0.48,0.33,0.56" style="fill:rgb(0,0,0);font-family:URWPalladioL-Roma;font-size:9.96px;stroke:none;">], demonstrating how the Bronte variety</text>
   <text y="744.665" x="76.236,82.104,87.435,91.574,95.714,100.391,104.53,108.67,113.346,117.5292,119.839,124.819,127.064,135.685,141.572,145.907,151.68380000000002,153.942,159.625,162.466,167.894,173.577,178.253,182.237,184.453,188.788,194.119,199.801,202.984,207.66,213.343,216.6298,218.878,224.209,227.4958,229.813,234.49,238.63,242.769,247.446,253.128,256.311,259.143,264.024,266.9124,269.218,274.549,277.39,280.231,282.721,285.054,290.922,294.593,299.924,305.323,310.205,315.604,318.445,324.0226,326.226,332.192,338.079,342.8598,345.099,348.282,353.76,355.966,360.301,365.983,370.865,374.721,379.603,383.938,387.121,391.797,395.654,398.495,402.634,405.817,408.658,413.04040000000003,415.337,421.204,425.881,431.846,437.177,441.512,444.353,447.194,455.815,460.697,463.88,466.721,471.1034,473.409,477.744,483.075,488.757,494.722,497.563,500.746,503.587,508.918,514.6" svgx:width="0.6,0.55,0.42,0.42,0.48,0.42,0.42,0.48,0.42,0.55,0.5,0.55,0.88,0.6,0.44,0.58,0.55,0.58,0.29,0.56,0.58,0.48,0.4,0.55,0.44,0.55,0.58,0.33,0.48,0.58,0.33,0.55,0.55,0.33,0.55,0.48,0.42,0.42,0.48,0.58,0.33,0.29,0.5,0.29,0.55,0.55,0.29,0.29,0.25,0.55,0.6,0.4,0.55,0.55,0.5,0.55,0.29,0.56,0.55,0.61,0.6,0.48,0.55,0.33,0.55,0.55,0.44,0.58,0.5,0.4,0.5,0.44,0.33,0.48,0.4,0.29,0.42,0.33,0.29,0.44,0.55,0.6,0.48,0.61,0.55,0.44,0.29,0.29,0.88,0.5,0.33,0.29,0.44,0.55,0.44,0.55,0.58,0.61,0.29,0.33,0.29,0.55,0.58,0.42" style="fill:rgb(0,0,0);font-family:URWPalladioL-Roma;font-size:9.96px;stroke:none;">possesses a much higher content of essential oil, probably due to characteristic pedoclimatic conditions</text>
   <text y="758.175" x="76.535,82.083,85.3698,88.231,93.881,97.712,103.261,111.736,115.048,120.8248,123.716,128.797,134.712,140.7876,143.685,149.792,153.623,159.171,164.791,169.872,175.491,178.448,184.0256,186.862,190.175,195.65300000000002,198.477,201.79,207.704,212.4848,215.336,220.203,225.447,228.76,232.773,237.854,242.366,245.679,248.636,254.184,259.9608,262.853,267.364,272.445,276.459,280.473,283.43,288.298,294.3736,297.271,302.819,308.947,312.23380000000003,315.024,317.981,326.954,335.926,340.794,347.003,349.96,355.041,358.354,363.221,366.178,371.7556,374.582,379.663,383.047,386.36,391.227,395.21099999999996,398.005,403.919,409.0,413.014,418.756,423.623,427.932,431.245,433.735,436.61,445.085,450.999,453.956,458.468,464.2448,467.136,472.217,475.174,478.131,483.68,492.155,497.022,503.0976,505.995,509.379,514.927" svgx:width="0.55,0.33,0.55,0.56,0.4,0.55,0.83,0.33,0.58,0.55,0.5,0.58,0.61,0.55,0.6,0.4,0.55,0.55,0.5,0.55,0.29,0.56,0.55,0.33,0.55,0.55,0.33,0.58,0.48,0.55,0.48,0.52,0.33,0.4,0.5,0.44,0.33,0.29,0.55,0.58,0.55,0.44,0.5,0.4,0.4,0.29,0.48,0.61,0.55,0.55,0.6,0.33,0.55,0.29,0.88,0.88,0.48,0.61,0.29,0.5,0.33,0.48,0.29,0.56,0.55,0.5,0.33,0.33,0.48,0.4,0.55,0.58,0.5,0.4,0.56,0.48,0.42,0.33,0.25,0.55,0.83,0.58,0.29,0.44,0.58,0.55,0.5,0.29,0.29,0.55,0.83,0.48,0.61,0.55,0.33,0.55,0.4" style="fill:rgb(0,0,0);font-family:URWPalladioL-Roma;font-size:9.96px;stroke:none;">of growth and probably to the extraction carried out immediately after harvest, which allowed for</text>
  </g>
 </g>
</svg>
