<?xml version="1.0" encoding="UTF-8"?>
<svg height="765.6" width="4055.4" xmlns="http://www.w3.org/2000/svg">
 <g>
  <text svgx:width="0.55,0.52,0.55,0.53,0.31,0.56,0.56,0.84,0.55,0.53,0.36,0.31,0.56,0.54,0.33,0.31,0.32,0.54,0.36,0.31,0.46,0.23,0.33,0.52,0.33,0.23,0.54,0.56,0.31,0.55,0.56,0.36,0.55,0.54,0.45,0.53,0.45" y="754.7" x="429.9,433.7,437.4,441.2,444.9,447.1,451.0,454.9,460.7,464.6,468.3,470.8,473.1,476.9,480.8,483.0,485.3,487.5,491.3,493.8,496.0,499.2,500.8,503.2,506.9,509.2,510.7,514.6,518.4,520.7,524.5,528.4,530.9,534.7,538.5,541.7,545.4" style="fill:rgb(0,0,0);font-family:Tahoma;font-size:7.0px;stroke:none;" xmlns:svgx="http://www.xml-cml.org/schema/svgx">Page number not for citation purposes</text>
  <text svgx:width="0.55" y="755.6" x="562.3" style="fill:rgb(0,0,0);font-family:Tahoma;font-size:8.0px;stroke:none;" xmlns:svgx="http://www.xml-cml.org/schema/svgx">7</text>
  <text class="image" id="image.7.1" width="527" height="468" y="80.0" x="45.4" style="font-size:8.0px;">image.7.1.45_573.80_548</text>
  <text svgx:width="0.58,0.3,0.63,0.64,0.43,0.59,0.29,0.64" y="552.9" x="45.4,50.0,52.5,57.5,62.6,66.1,70.9,73.2" style="fill:rgb(0,0,0);font-family:Tahoma-Bold;font-size:8.0px;stroke:none;" xmlns:svgx="http://www.xml-cml.org/schema/svgx">Figure 3</text>
  <text svgx:width="0.35,0.31,0.58,0.54,0.33,0.52,0.23,0.31,0.23,0.54,0.56,0.23,0.46,0.31,0.46,0.56,0.36,0.54,0.84,0.52,0.33,0.54,0.55,0.36,0.52,0.84,0.31,0.38,0.58,0.37,0.6,0.38,0.35,0.31,0.77,0.42,0.55" y="552.9" x="78.4,81.1,83.7,88.4,92.7,95.3,99.5,101.3,103.8,105.6,109.9,114.4,116.2,119.9,122.4,126.1,130.6,133.5,137.8,144.5,148.7,151.3,155.6,160.1,163.0,167.3,174.0,176.5,179.6,184.3,187.3,192.1,195.1,198.0,200.4,206.6,210.0" style="fill:rgb(0,0,0);font-family:Tahoma;font-size:8.0px;stroke:none;" xmlns:svgx="http://www.xml-cml.org/schema/svgx">: Total ionic chromatogram (TIC); MJP</text>
  <text svgx:width="0.36" y="552.9" x="214.5" style="fill:rgb(0,0,0);font-family:Tahoma;font-size:8.0px;stroke:none;" xmlns:svgx="http://www.xml-cml.org/schema/svgx">-</text>
  <text svgx:width="0.62,0.35,0.31,0.59,0.52,0.32,0.32,0.23,0.36,0.31,0.23,0.23,0.84,0.53,0.31,0.54,0.23,0.23,0.31,0.32,0.36,0.54,0.84,0.31,0.33,0.56,0.53" y="552.9" x="217.4,222.3,225.2,227.7,232.4,236.6,239.1,241.6,243.4,246.3,248.8,250.6,252.4,259.1,263.3,265.8,270.2,272.0,273.8,276.3,278.8,281.7,286.1,292.8,295.4,298.0,302.4" style="fill:rgb(0,0,0);font-family:Tahoma;font-size:8.0px;stroke:none;" xmlns:svgx="http://www.xml-cml.org/schema/svgx">R: Kaffir lime oil from the</text>
  <text svgx:width="0.33,0.74,0.23,0.55,0.35,0.31,0.52" y="552.9" x="309.2,311.8,317.8,319.6,324.0,326.9,329.4" style="fill:rgb(0,0,0);font-family:Tahoma;font-size:8.0px;stroke:none;" xmlns:svgx="http://www.xml-cml.org/schema/svgx">twig; F</text>
  <text svgx:width="0.36" y="552.9" x="333.7" style="fill:rgb(0,0,0);font-family:Tahoma;font-size:8.0px;stroke:none;" xmlns:svgx="http://www.xml-cml.org/schema/svgx">-</text>
  <text svgx:width="0.55,0.35,0.31,0.52" y="552.9" x="336.6,340.9,343.7,346.3" style="fill:rgb(0,0,0);font-family:Tahoma;font-size:8.0px;stroke:none;" xmlns:svgx="http://www.xml-cml.org/schema/svgx">1; F</text>
  <text svgx:width="0.36" y="552.9" x="350.5" style="fill:rgb(0,0,0);font-family:Tahoma;font-size:8.0px;stroke:none;" xmlns:svgx="http://www.xml-cml.org/schema/svgx">-</text>
  <text svgx:width="0.55,0.35,0.31,0.52" y="552.9" x="353.4,357.7,360.5,363.1" style="fill:rgb(0,0,0);font-family:Tahoma;font-size:8.0px;stroke:none;" xmlns:svgx="http://www.xml-cml.org/schema/svgx">5; F</text>
  <text svgx:width="0.36" y="552.9" x="367.3" style="fill:rgb(0,0,0);font-family:Tahoma;font-size:8.0px;stroke:none;" xmlns:svgx="http://www.xml-cml.org/schema/svgx">-</text>
  <text svgx:width="0.55,0.35,0.31,0.52,0.36,0.52,0.46,0.33,0.23,0.54,0.56" y="552.9" x="370.0,374.5,377.3,379.8,384.0,386.9,391.0,394.7,397.4,399.2,403.5" style="fill:rgb(0,0,0);font-family:Tahoma;font-size:8.0px;stroke:none;" xmlns:svgx="http://www.xml-cml.org/schema/svgx">8: Fraction</text>
  <text svgx:width="0.36" y="552.9" x="408.0" style="fill:rgb(0,0,0);font-family:Tahoma;font-size:8.0px;stroke:none;" xmlns:svgx="http://www.xml-cml.org/schema/svgx">-</text>
  <text svgx:width="0.55,0.3,0.31,0.52,0.36,0.52,0.46,0.33,0.23,0.54,0.56" y="552.9" x="410.8,415.3,417.7,420.2,424.4,427.3,431.5,435.2,437.8,439.6,443.9" style="fill:rgb(0,0,0);font-family:Tahoma;font-size:8.0px;stroke:none;" xmlns:svgx="http://www.xml-cml.org/schema/svgx">1, Fraction</text>
  <text svgx:width="0.36" y="552.9" x="448.4" style="fill:rgb(0,0,0);font-family:Tahoma;font-size:8.0px;stroke:none;" xmlns:svgx="http://www.xml-cml.org/schema/svgx">-</text>
  <text svgx:width="0.55,0.31,0.55,0.52,0.56,0.31,0.52,0.36,0.52,0.46,0.33,0.23,0.54,0.56" y="552.9" x="451.3,455.7,458.2,462.7,466.9,471.3,473.8,478.0,480.9,485.1,488.9,491.5,493.3,497.6" style="fill:rgb(0,0,0);font-family:Tahoma;font-size:8.0px;stroke:none;" xmlns:svgx="http://www.xml-cml.org/schema/svgx">5 dan Fraction</text>
  <text svgx:width="0.36" y="552.9" x="502.1" style="fill:rgb(0,0,0);font-family:Tahoma;font-size:8.0px;stroke:none;" xmlns:svgx="http://www.xml-cml.org/schema/svgx">-</text>
  <text svgx:width="0.55" y="552.9" x="504.9" style="fill:rgb(0,0,0);font-family:Tahoma;font-size:8.0px;stroke:none;" xmlns:svgx="http://www.xml-cml.org/schema/svgx">8</text>
 </g>
</svg>
