<?xml version="1.0" encoding="UTF-8"?>
<svg height="491.34" width="4087.56" xmlns="http://www.w3.org/2000/svg">
 <g id="page" xmlns:svgx="http://www.xml-cml.org/schema/svgx">
  <g begin="text">
   <text y="62.979" x="76.535,79.189,83.62,86.274,88.26650000000001,90.738,93.392,95.3845,97.377,104.901,108.439,110.655,112.64750000000001,115.118,119.55,122.793,125.009" svgx:width="0.33,0.56,0.33,0.25,0.55,0.33,0.25,0.55,0.94,0.44,0.28,0.25,0.55,0.56,0.41,0.28,0.25" style="fill:rgb(0,0,0);font-family:URWPalladioL-Ital;font-size:7.97px;stroke:none;">Int. J. Mol. Sci.</text>
   <text y="62.979" x="131.943,135.928,139.913,143.898" svgx:width="0.5,0.5,0.5,0.5" style="fill:rgb(0,0,0);font-family:URWPalladioL-Bold;font-size:7.97px;stroke:none;">2018</text>
   <text y="62.979" x="147.883" svgx:width="0.25" style="fill:rgb(0,0,0);font-family:URWPalladioL-Roma;font-size:7.97px;stroke:none;">,</text>
   <text y="62.979" x="151.868,155.853" svgx:width="0.5,0.5" style="fill:rgb(0,0,0);font-family:URWPalladioL-Ital;font-size:7.97px;stroke:none;">19</text>
   <text y="62.979" x="159.838,161.8305,163.823,167.808,171.793,491.809,495.794,499.779,501.772,506.123,508.7531,510.77,514.755" svgx:width="0.25,0.55,0.5,0.5,0.55,0.5,0.5,0.55,0.55,0.33,0.55,0.5,0.5" style="fill:rgb(0,0,0);font-family:URWPalladioL-Roma;font-size:7.97px;stroke:none;">, 33 13 of 13</text>
   <text y="97.848" x="76.535,81.018,85.501,87.74350000000001,98.05,105.028,108.641,111.302,114.183,119.716,125.039,127.28150000000001,131.231,136.032,138.319,145.297,147.583,149.8255,154.616,163.314,168.399,171.06,173.722,176.383,180.764,183.00650000000002,186.956,191.757,194.044,201.022,203.308,205.5505,210.332,218.984,223.557,227.169,232.254,237.577,242.15,250.226,252.4685,256.427,259.472,261.759,267.347,269.5895,273.538,279.648,284.641,287.303,291.6086,295.589,300.582,303.5421,307.542,310.524,315.846,320.15160000000003,324.132,329.126,334.641,337.622,342.003,345.591,349.521,357.597,361.977,370.053,375.111,378.723,383.296,388.619,392.92460000000005,396.905,401.898" svgx:width="0.5,0.5,0.25,0.55,0.76,0.4,0.29,0.33,0.61,0.58,0.25,0.55,0.52,0.25,0.76,0.25,0.25,0.55,1.0,0.56,0.29,0.29,0.29,0.48,0.25,0.55,0.52,0.25,0.76,0.25,0.25,0.55,0.95,0.5,0.4,0.56,0.58,0.5,0.88,0.25,0.55,0.33,0.25,0.61,0.25,0.55,0.67,0.55,0.29,0.48,0.55,0.55,0.33,0.55,0.33,0.58,0.48,0.55,0.55,0.6,0.33,0.48,0.4,0.55,0.88,0.48,0.88,0.55,0.4,0.5,0.58,0.48,0.55,0.55,0.33" style="fill:rgb(0,0,0);font-family:URWPalladioL-Roma;font-size:8.97px;stroke:none;">58. Grifﬁn, S.G.; Wyllie, S.G.; Markham, J.L. Role of the outer membrane of</text>
   <text y="97.848" x="408.856,414.444,418.002,421.724,426.297,429.855,433.412,435.955,439.677,444.25,446.792,450.73879999999997,454.758,458.481,462.541,465.084" svgx:width="0.61,0.39,0.41,0.5,0.39,0.39,0.28,0.41,0.5,0.28,0.44,0.55,0.41,0.44,0.28,0.28" style="fill:rgb(0,0,0);font-family:URWPalladioL-Ital;font-size:8.97px;stroke:none;">Escherichia coli</text>
   <text y="97.848" x="471.537,478.652,485.631,490.203,494.776,499.261,503.254,507.827,513.15" svgx:width="0.78,0.76,0.5,0.5,0.5,0.55,0.5,0.58,0.61" style="fill:rgb(0,0,0);font-family:URWPalladioL-Roma;font-size:8.97px;stroke:none;">AG100 and</text>
   <text y="110.76" x="97.773,103.361,106.919,110.476,115.561,120.134,124.195,131.31,135.371,140.456,144.517,148.0153,150.699,154.76,158.318,161.875,166.96,171.533,174.076,179.161,183.221,186.779" svgx:width="0.61,0.39,0.39,0.56,0.5,0.44,0.78,0.44,0.56,0.44,0.39,0.55,0.44,0.39,0.39,0.56,0.5,0.28,0.56,0.44,0.39,0.44" style="fill:rgb(0,0,0);font-family:URWPalladioL-Ital;font-size:8.97px;stroke:none;">Pseudomonas aeruginosa</text>
   <text y="110.76" x="193.464,201.064,207.548,213.155,219.5237,222.264,226.837,231.41,235.982,240.467,243.18,247.753,253.076,258.5477,261.289,267.398,271.779,275.657,278.318,282.196,285.177,289.75,295.073,299.134,303.514,309.057,313.858,319.373,323.251,327.312,331.692,337.189,340.171,342.832,347.889,350.551,353.212,355.874,358.855,363.8782,366.565,369.547,374.4805,377.165,385.817,390.81,396.133,401.127,404.108,408.489,412.102,417.598,421.979,427.302,431.683,435.4504,438.185,443.179,446.1391,448.849,453.651,456.312,464.388,467.049,469.711,474.283,477.87100000000004,480.521,487.005,492.328,496.709,504.784,507.446,511.506,516.079" svgx:width="0.83,0.71,0.61,0.71,0.55,0.5,0.5,0.5,0.5,0.55,0.5,0.58,0.61,0.55,0.67,0.48,0.42,0.29,0.42,0.33,0.5,0.58,0.44,0.48,0.61,0.52,0.6,0.42,0.44,0.48,0.6,0.33,0.29,0.55,0.29,0.29,0.29,0.33,0.56,0.55,0.33,0.55,0.55,0.95,0.55,0.58,0.55,0.33,0.48,0.4,0.6,0.48,0.58,0.48,0.42,0.55,0.55,0.33,0.55,0.52,0.29,0.88,0.29,0.29,0.5,0.4,0.55,0.71,0.58,0.48,0.88,0.29,0.44,0.5,0.29" style="fill:rgb(0,0,0);font-family:URWPalladioL-Roma;font-size:8.97px;stroke:none;">NCTC 6749 and Resistance/Susceptibility to Monoterpenes of Similar Chemical</text>
   <text y="123.672" x="98.05,102.757,105.68,109.15,114.557,118.538,121.461,126.868,130.248,134.543" svgx:width="0.52,0.33,0.4,0.6,0.44,0.33,0.6,0.4,0.48,0.25" style="fill:rgb(0,0,0);font-family:URWPalladioL-Roma;font-size:8.97px;stroke:none;">Structure.</text>
   <text y="123.672" x="139.564,142.55,144.79250000000002,147.033,152.511,155.999,159.487,162.975,167.961,170.946,173.1885,175.968,182.943,185.436,187.9476,190.17,196.151,199.639,203.127" svgx:width="0.33,0.25,0.55,0.61,0.39,0.39,0.39,0.56,0.33,0.25,0.55,0.78,0.28,0.28,0.55,0.67,0.39,0.39,0.25" style="fill:rgb(0,0,0);font-family:URWPalladioL-Ital;font-size:8.97px;stroke:none;">J. Essent. Oil Res.</text>
   <text y="123.672" x="208.147,212.63,217.113,221.597" svgx:width="0.5,0.5,0.5,0.5" style="fill:rgb(0,0,0);font-family:URWPalladioL-Bold;font-size:8.97px;stroke:none;">2001</text>
   <text y="123.672" x="226.08" svgx:width="0.25" style="fill:rgb(0,0,0);font-family:URWPalladioL-Roma;font-size:8.97px;stroke:none;">,</text>
   <text y="123.672" x="230.563,235.046" svgx:width="0.5,0.5" style="fill:rgb(0,0,0);font-family:URWPalladioL-Ital;font-size:8.97px;stroke:none;">13</text>
   <text y="123.672" x="239.529,241.7715,244.012,248.495,252.979,257.462,261.945,266.428,270.911,275.395,277.6375,280.416" svgx:width="0.25,0.55,0.5,0.5,0.5,0.5,0.5,0.5,0.5,0.25,0.55,0.33" style="fill:rgb(0,0,0);font-family:URWPalladioL-Roma;font-size:8.97px;stroke:none;">, 380–386. [</text>
   <text y="123.672" x="283.402,289.759,293.139,298.035,301.837,305.638,311.628,315.923" svgx:width="0.71,0.4,0.55,0.42,0.42,0.67,0.48,0.33" style="fill:rgb(8,117,183);font-family:URWPalladioL-Roma;font-size:8.97px;stroke:none;">CrossRef</text>
   <text y="123.672" x="318.909" svgx:width="0.33" style="fill:rgb(0,0,0);font-family:URWPalladioL-Roma;font-size:8.97px;stroke:none;">]</text>
   <text y="136.583" x="76.535,81.018,85.501,87.74350000000001,98.05,103.638,108.632,113.954,119.039,124.097,129.091,132.072,135.054,140.047,148.123,150.3655,153.043,159.528,161.814,164.86,167.146,169.3885,172.268,178.752,183.325,186.937,190.815,195.809,201.132,203.3745,206.052,212.536,214.823,219.075,221.362,223.6045,226.483,234.093,238.666,246.741,254.817,259.198,262.143,264.3855,267.063,273.703,275.989,283.105,285.391,287.6335,290.513,299.165,303.545,307.926,310.1685,312.847,318.435,320.721,323.767,326.053,328.2955,331.175,337.284,339.945,342.607,346.988,351.076,353.31850000000003,355.996,360.935,363.221,368.672,370.91450000000003,373.593,378.376,383.369,386.031,390.412,394.024,398.597,403.92,407.98,412.28560000000004,414.995,419.989" svgx:width="0.5,0.5,0.25,0.55,0.61,0.55,0.58,0.56,0.55,0.55,0.33,0.33,0.55,0.88,0.25,0.55,0.71,0.25,0.33,0.25,0.25,0.55,0.71,0.5,0.4,0.42,0.55,0.58,0.25,0.55,0.71,0.25,0.56,0.25,0.25,0.55,0.83,0.5,0.88,0.88,0.48,0.4,0.25,0.55,0.73,0.25,0.78,0.25,0.25,0.55,0.95,0.48,0.48,0.25,0.55,0.61,0.25,0.33,0.25,0.25,0.55,0.67,0.29,0.29,0.48,0.56,0.25,0.55,0.61,0.25,0.72,0.25,0.55,0.61,0.55,0.29,0.48,0.4,0.5,0.58,0.44,0.48,0.55,0.55,0.33" style="fill:rgb(0,0,0);font-family:URWPalladioL-Roma;font-size:8.97px;stroke:none;">59. Longbottom, C.J.; Carson, C.F.; Hammer, K.A.; Mee, B.J.; Riley, T.V. Tolerance of</text>
   <text y="136.583" x="425.665,431.253,434.811,438.368,443.453,448.026,452.087,459.202,463.263,468.348,472.409,475.90729999999996,478.6,482.661,486.219,489.777,494.862,499.434,501.977,507.062,511.123,514.68" svgx:width="0.61,0.39,0.39,0.56,0.5,0.44,0.78,0.44,0.56,0.44,0.39,0.55,0.44,0.39,0.39,0.56,0.5,0.28,0.56,0.44,0.39,0.44" style="fill:rgb(0,0,0);font-family:URWPalladioL-Ital;font-size:8.97px;stroke:none;">Pseudomonas aeruginosa</text>
   <text y="149.495" x="98.05,100.999" svgx:width="0.33,0.55" style="fill:rgb(0,0,0);font-family:URWPalladioL-Roma;font-size:8.97px;stroke:none;">to</text>
   <text y="149.495" x="108.194,116.734,120.254,122.769,126.786,129.301,132.82,137.85,141.533,145.47979999999998,147.802,151.819,154.334,157.347,160.866,164.385,169.416,171.931,174.446,178.463,180.978,183.493" svgx:width="0.94,0.39,0.28,0.44,0.28,0.39,0.56,0.41,0.44,0.55,0.44,0.28,0.33,0.39,0.39,0.56,0.28,0.28,0.44,0.28,0.28,0.44" style="fill:rgb(0,0,0);font-family:URWPalladioL-Ital;font-size:8.97px;stroke:none;">Melaleuca alternifolia</text>
   <text y="149.495" x="189.763,192.776,195.725,200.059,204.544,206.835,209.784,213.195,217.529,221.862,224.8221,227.128,232.067,234.7,237.3013,239.594,242.227,245.9944,248.316,252.839,256.675,260.511,265.451,269.468,272.101,276.624,279.574,283.907,289.3787,291.688,299.233,301.866,304.815,310.0176,312.333,315.282,320.548,324.85360000000003,327.134,332.074,337.529,340.479,344.812,348.40000000000003,350.638,358.627,362.961,370.949,375.952,379.526,384.049,389.315,393.6206,395.901,400.425,405.69,411.1617,413.471,417.804,423.069,427.403,430.823,435.853,440.883,443.896,449.424,453.757,459.195,463.528,468.794,474.321,478.655,483.92,486.8801,489.122,493.139,497.473,500.105,502.738,508.194,510.826,515.35" svgx:width="0.33,0.33,0.48,0.5,0.55,0.33,0.4,0.48,0.48,0.33,0.55,0.55,0.29,0.29,0.55,0.29,0.42,0.55,0.5,0.42,0.42,0.55,0.44,0.29,0.5,0.33,0.48,0.61,0.55,0.83,0.29,0.33,0.58,0.55,0.33,0.58,0.48,0.55,0.55,0.6,0.33,0.48,0.4,0.55,0.88,0.48,0.88,0.55,0.4,0.5,0.58,0.48,0.55,0.5,0.58,0.61,0.55,0.48,0.58,0.48,0.4,0.56,0.56,0.33,0.61,0.48,0.6,0.48,0.58,0.61,0.48,0.58,0.33,0.55,0.44,0.48,0.29,0.29,0.6,0.29,0.5,0.4" style="fill:rgb(0,0,0);font-family:URWPalladioL-Roma;font-size:8.97px;stroke:none;">(tea tree) oil is associated with the outer membrane and energy-dependent cellular</text>
   <text y="162.406" x="97.781,103.17,106.55,111.446,115.427,119.722,123.524,127.325,131.62,135.422" svgx:width="0.6,0.4,0.55,0.44,0.48,0.42,0.42,0.48,0.42,0.25" style="fill:rgb(0,0,0);font-family:URWPalladioL-Roma;font-size:8.97px;stroke:none;">processes.</text>
   <text y="162.406" x="140.443,143.429,145.6715,147.912,154.386,159.371,162.357,164.85,171.825,174.318,177.967,181.294,185.275,189.426,191.6685,194.448,200.428,204.911,208.399,215.375,219.356,222.342,226.825,230.313,233.138" svgx:width="0.33,0.25,0.55,0.72,0.56,0.33,0.28,0.78,0.28,0.41,0.39,0.44,0.46,0.25,0.55,0.67,0.5,0.39,0.78,0.44,0.33,0.5,0.39,0.39,0.25" style="fill:rgb(0,0,0);font-family:URWPalladioL-Ital;font-size:8.97px;stroke:none;">J. Antimicrob. Chemother.</text>
   <text y="162.406" x="238.157,242.64,247.123,251.607" svgx:width="0.5,0.5,0.5,0.5" style="fill:rgb(0,0,0);font-family:URWPalladioL-Bold;font-size:8.97px;stroke:none;">2004</text>
   <text y="162.406" x="256.09" svgx:width="0.25" style="fill:rgb(0,0,0);font-family:URWPalladioL-Roma;font-size:8.97px;stroke:none;">,</text>
   <text y="162.406" x="260.573,265.056" svgx:width="0.5,0.5" style="fill:rgb(0,0,0);font-family:URWPalladioL-Ital;font-size:8.97px;stroke:none;">54</text>
   <text y="162.406" x="269.54,271.7825,274.023,278.506,282.99,287.473,291.956,296.439,300.922,305.406,307.6485,310.427" svgx:width="0.25,0.55,0.5,0.5,0.5,0.5,0.5,0.5,0.5,0.25,0.55,0.33" style="fill:rgb(0,0,0);font-family:URWPalladioL-Roma;font-size:8.97px;stroke:none;">, 386–392. [</text>
   <text y="162.406" x="313.413,319.77,323.15,328.046,331.848,335.649,341.639,345.934" svgx:width="0.71,0.4,0.55,0.42,0.42,0.67,0.48,0.33" style="fill:rgb(8,117,183);font-family:URWPalladioL-Roma;font-size:8.97px;stroke:none;">CrossRef</text>
   <text y="162.406" x="348.92,351.8801,354.147" svgx:width="0.33,0.55,0.33" style="fill:rgb(0,0,0);font-family:URWPalladioL-Roma;font-size:8.97px;stroke:none;">] [</text>
   <text y="162.406" x="357.133,362.549,367.955,372.914,381.396,385.691" svgx:width="0.6,0.6,0.55,0.95,0.48,0.61" style="fill:rgb(8,117,183);font-family:URWPalladioL-Roma;font-size:8.97px;stroke:none;">PubMed</text>
   <text y="162.406" x="391.169" svgx:width="0.33" style="fill:rgb(0,0,0);font-family:URWPalladioL-Roma;font-size:8.97px;stroke:none;">]</text>
   <text y="175.318" x="76.535,81.018,85.501,87.74350000000001,98.05,103.83,108.403,113.60560000000001,116.232,123.311,127.691,132.8936,135.52,142.599,147.592,152.586,155.247,157.48950000000002,160.049,167.658,169.945,172.1875,174.865,181.505,185.117,189.69,192.672,197.245,199.4875,202.046,206.409,208.6515,211.201,218.1976,220.822,225.907,230.288,235.611,239.992,243.604,248.177,250.839,253.5,258.073,262.646,265.627,268.289,273.282,278.4846,281.12,286.114,289.0741,291.665,294.647,299.969,304.2746,306.856,310.304,314.685,317.666,322.047,327.37,330.352,333.013,338.006,343.2086,345.844,348.506,353.829,359.417,363.797,368.4614,371.023,374.9,379.985,383.863,386.845,391.225,399.1186,401.807,404.468,409.791,413.852,416.513,422.028,427.616,430.278,435.6,440.6232,443.191,445.853,448.514,453.837,458.218,462.791,466.379,468.909,471.891,476.272,484.347,489.844,494.225,497.837,502.41,505.392,510.906,514.363" svgx:width="0.5,0.5,0.25,0.55,0.72,0.5,0.58,0.55,0.77,0.48,0.58,0.55,0.77,0.55,0.55,0.29,0.25,0.55,0.83,0.25,0.25,0.55,0.73,0.4,0.5,0.33,0.5,0.25,0.55,0.6,0.25,0.55,0.78,0.55,0.56,0.48,0.58,0.48,0.4,0.5,0.29,0.29,0.5,0.5,0.33,0.29,0.55,0.58,0.55,0.55,0.33,0.55,0.33,0.58,0.48,0.55,0.4,0.48,0.33,0.48,0.58,0.33,0.29,0.55,0.58,0.55,0.29,0.58,0.61,0.48,0.52,0.55,0.42,0.56,0.42,0.33,0.48,0.88,0.55,0.29,0.58,0.44,0.29,0.6,0.61,0.29,0.58,0.56,0.55,0.29,0.29,0.58,0.48,0.5,0.4,0.55,0.33,0.48,0.88,0.6,0.48,0.4,0.5,0.33,0.6,0.4,0.48" style="fill:rgb(0,0,0);font-family:URWPalladioL-Roma;font-size:8.97px;stroke:none;">60. Van Den Dool, H.; Kratz, P. A generalization of the retention index system including linear temperature</text>
   <text y="188.23" x="97.781,103.17,106.55,111.446,116.431,119.973,124.456,132.373,140.291,144.586,150.0577,152.306,157.291,161.774,165.576,168.562,171.171,173.78,178.801,184.208,186.817,192.2887,194.537,199.926,204.409,207.951,210.874,213.483,216.406,219.016,223.911,229.1136,231.371,235.352,240.571,243.951,248.847,256.764,261.247,264.17,269.066,274.051,277.593,282.076,287.465,292.684,296.674" svgx:width="0.6,0.4,0.55,0.56,0.4,0.5,0.88,0.88,0.48,0.61,0.55,0.56,0.5,0.42,0.33,0.29,0.29,0.56,0.6,0.29,0.61,0.55,0.6,0.5,0.4,0.33,0.29,0.33,0.29,0.55,0.58,0.55,0.44,0.58,0.4,0.55,0.88,0.5,0.33,0.55,0.56,0.4,0.5,0.6,0.58,0.56,0.25" style="fill:rgb(0,0,0);font-family:URWPalladioL-Roma;font-size:8.97px;stroke:none;">programmed gas-liquid partition chromatography.</text>
   <text y="188.23" x="301.693,304.679,306.9215,309.162,315.143,319.626,322.952,326.933,333.909,337.89,340.876,344.857,349.34,352.165,354.4075,357.186" svgx:width="0.33,0.25,0.55,0.67,0.5,0.39,0.44,0.78,0.44,0.33,0.44,0.5,0.39,0.25,0.55,0.72" style="fill:rgb(0,0,0);font-family:URWPalladioL-Ital;font-size:8.97px;stroke:none;">J. Chromatogr. A</text>
   <text y="188.23" x="365.9,370.383,374.866,379.35" svgx:width="0.5,0.5,0.5,0.5" style="fill:rgb(0,0,0);font-family:URWPalladioL-Bold;font-size:8.97px;stroke:none;">1963</text>
   <text y="188.23" x="383.833" svgx:width="0.25" style="fill:rgb(0,0,0);font-family:URWPalladioL-Roma;font-size:8.97px;stroke:none;">,</text>
   <text y="188.23" x="388.316,392.799" svgx:width="0.5,0.5" style="fill:rgb(0,0,0);font-family:URWPalladioL-Ital;font-size:8.97px;stroke:none;">11</text>
   <text y="188.23" x="397.282,399.5245,401.765,406.248,410.732,415.215,419.698,424.181,428.664,433.148,435.39050000000003,438.169" svgx:width="0.25,0.55,0.5,0.5,0.5,0.5,0.5,0.5,0.5,0.25,0.55,0.33" style="fill:rgb(0,0,0);font-family:URWPalladioL-Roma;font-size:8.97px;stroke:none;">, 463–471. [</text>
   <text y="188.23" x="441.155,447.512,450.892,455.788,459.59,463.391,469.381,473.676" svgx:width="0.71,0.4,0.55,0.42,0.42,0.67,0.48,0.33" style="fill:rgb(8,117,183);font-family:URWPalladioL-Roma;font-size:8.97px;stroke:none;">CrossRef</text>
   <text y="188.23" x="476.662" svgx:width="0.33" style="fill:rgb(0,0,0);font-family:URWPalladioL-Roma;font-size:8.97px;stroke:none;">]</text>
   <text y="201.141" x="76.535,81.018,85.501,87.74350000000001,98.05,101.011,107.918,112.803,115.8528,117.759,125.72,130.518,133.989,138.875,141.432,146.546,151.5692,153.426,160.131,163.435,168.232,173.531,178.913,180.807,185.604,190.8066,192.713,201.026,205.235,208.099,213.213,218.011,223.38,227.1474,229.1,233.898,236.8581,238.819,245.655,250.769,255.163,257.72,262.606,266.331,268.888,272.614,274.8565,277.508,284.213,289.512,292.069,297.437,301.646,304.204,306.761,311.875,316.084,319.8514,321.804,324.73,329.528,333.11600000000004,334.985,337.849,342.963,347.26860000000005,349.167,354.088,359.386,363.78,368.894,371.758,374.316,377.18,381.574,384.438,386.995,391.96,396.2656,398.164,403.049,407.443,411.2104,413.163,417.065,422.179,425.491,430.289,438.048,442.442,445.306,450.104,454.981,458.452,462.845,468.126,473.24,478.2632,480.121,484.918,487.8781,489.839,494.804,499.601,502.159,506.552,509.417,511.974,514.531" svgx:width="0.5,0.5,0.25,0.55,0.34,0.79,0.56,0.34,0.55,1.0,0.55,0.4,0.56,0.29,0.58,0.56,0.55,0.76,0.4,0.55,0.6,0.6,0.55,0.55,0.58,0.55,0.95,0.48,0.33,0.58,0.55,0.61,0.42,0.55,0.55,0.33,0.55,0.78,0.58,0.5,0.29,0.56,0.42,0.29,0.42,0.25,0.55,0.76,0.6,0.29,0.61,0.48,0.29,0.29,0.58,0.48,0.42,0.55,0.33,0.55,0.4,0.55,0.33,0.58,0.48,0.55,0.56,0.6,0.5,0.58,0.33,0.29,0.33,0.5,0.33,0.29,0.56,0.48,0.55,0.56,0.5,0.42,0.55,0.44,0.58,0.4,0.55,0.88,0.5,0.33,0.55,0.56,0.4,0.5,0.6,0.58,0.56,0.55,0.55,0.33,0.55,0.56,0.55,0.29,0.5,0.33,0.29,0.29,0.48" style="fill:rgb(0,0,0);font-family:URWPalladioL-Roma;font-size:8.97px;stroke:none;">61. IOFI Working Group on Methods of Analysis. Guidelines for the quantitative gas chromatography of volatile</text>
   <text y="214.053" x="98.05,103.393,107.786,112.751,117.549,122.847,126.318,128.875,133.989,139.0122,141.063,144.788,150.087,154.946,158.672,161.537,165.93,171.044,174.946,179.155,182.88,185.1225,187.274,190.2,193.513,198.311,208.258,211.122,216.236,220.5416,222.633,230.594,235.392,238.863,243.749,246.306,251.42,256.4432,258.493,265.198,268.51,273.308,278.607,283.98900000000003,286.076,290.874,296.07660000000004,298.176,306.488,310.697,313.562,318.676,323.474,328.842,332.6094,334.756,339.554,342.5141,344.668,351.504,356.618,361.012,363.569,368.455,372.18,374.737,378.50440000000003,380.651,385.449,388.4091,390.563,393.427,398.542,402.8476,404.939,407.9,413.014,415.878,420.087,423.558,428.672,433.066,435.931,438.488,443.285,448.399,452.793,455.3943,457.538,464.445,467.757,472.643,477.036,482.15,484.708,489.101,493.495,496.359,498.916,503.714,508.9166,511.016,515.814" svgx:width="0.61,0.5,0.56,0.55,0.6,0.4,0.29,0.58,0.56,0.55,0.42,0.6,0.55,0.42,0.33,0.5,0.58,0.44,0.48,0.42,0.25,0.55,0.33,0.4,0.55,0.88,0.33,0.58,0.48,0.55,1.0,0.55,0.4,0.56,0.29,0.58,0.56,0.55,0.76,0.4,0.55,0.6,0.6,0.55,0.55,0.58,0.55,0.95,0.48,0.33,0.58,0.55,0.61,0.42,0.55,0.55,0.33,0.55,0.78,0.58,0.5,0.29,0.56,0.42,0.29,0.42,0.55,0.55,0.33,0.55,0.33,0.58,0.48,0.55,0.34,0.58,0.33,0.48,0.4,0.58,0.5,0.33,0.29,0.55,0.58,0.5,0.29,0.55,0.79,0.4,0.56,0.5,0.58,0.29,0.5,0.5,0.33,0.29,0.55,0.58,0.55,0.55,0.33" style="fill:rgb(0,0,0);font-family:URWPalladioL-Roma;font-size:8.97px;stroke:none;">ﬂavouring substances, fromthe Working Group on Methods of Analysis of the International Organization of</text>
   <text y="226.964" x="98.05,100.973,106.191,110.4966,112.728,117.713,120.323,124.806,129.872,134.767,138.355,140.551,143.572,148.791,154.269,159.676,163.478,166.401,169.943,174.96620000000001,177.17,180.155,183.177,190.225,195.21,198.232,201.217" svgx:width="0.33,0.58,0.48,0.55,0.56,0.29,0.5,0.56,0.55,0.4,0.55,0.34,0.58,0.61,0.6,0.42,0.33,0.4,0.56,0.55,0.33,0.34,0.79,0.56,0.34,0.33,0.25" style="fill:rgb(0,0,0);font-family:URWPalladioL-Roma;font-size:8.97px;stroke:none;">the Flavor Industry (IOFI).</text>
   <text y="226.964" x="205.7,210.685,213.178,217.159,221.642,225.623,230.609,234.1073,236.338,241.324,244.811,248.793,253.276,256.1,258.34250000000003,261.121,264.107" svgx:width="0.56,0.28,0.44,0.5,0.44,0.56,0.39,0.55,0.56,0.39,0.44,0.5,0.39,0.25,0.55,0.33,0.25" style="fill:rgb(0,0,0);font-family:URWPalladioL-Ital;font-size:8.97px;stroke:none;">Flavour Fragr. J.</text>
   <text y="226.964" x="268.589,273.072,277.555,282.039" svgx:width="0.5,0.5,0.5,0.5" style="fill:rgb(0,0,0);font-family:URWPalladioL-Bold;font-size:8.97px;stroke:none;">2011</text>
   <text y="226.964" x="286.522" svgx:width="0.25" style="fill:rgb(0,0,0);font-family:URWPalladioL-Roma;font-size:8.97px;stroke:none;">,</text>
   <text y="226.964" x="291.005,295.488" svgx:width="0.5,0.5" style="fill:rgb(0,0,0);font-family:URWPalladioL-Ital;font-size:8.97px;stroke:none;">26</text>
   <text y="226.964" x="299.971,302.2135,304.454,308.937,313.421,317.904,322.387,326.87,331.354,335.837" svgx:width="0.25,0.55,0.5,0.5,0.5,0.5,0.5,0.5,0.5,0.25" style="fill:rgb(0,0,0);font-family:URWPalladioL-Roma;font-size:8.97px;stroke:none;">, 297–299.</text>
   <text y="239.876" x="76.535,81.018,85.501,87.74350000000001,98.05,103.638,106.299,111.384,114.046,118.427,121.875,126.868,129.1105,132.282,138.767,141.053,146.641,148.928,153.29,155.577,157.8195,161.43,167.018,172.012,175.7794,179.017,185.126,189.507,192.169,196.046,198.2885,201.452,207.04,209.326,216.441,218.728,220.97050000000002,224.581,230.105,234.678,238.291,241.903,244.565,247.226,252.549,257.122,259.3645,262.536,269.514,271.801,277.389,279.675,281.9175,285.519,290.604,293.266,295.927,301.25,306.243,308.4855,311.658,320.31,322.596,328.184,330.47,332.71250000000003,336.324,342.808,347.381,352.704,357.085,359.746,364.319,366.5615,369.724,378.376,380.662,387.147,389.3895,392.561,399.045,404.039,412.114,417.611,422.184,425.796,430.369" svgx:width="0.5,0.5,0.25,0.55,0.61,0.29,0.56,0.29,0.48,0.4,0.55,0.25,0.55,0.71,0.25,0.61,0.25,0.6,0.25,0.25,0.55,0.61,0.55,0.42,0.55,0.67,0.48,0.29,0.42,0.25,0.55,0.61,0.25,0.78,0.25,0.25,0.55,0.6,0.5,0.4,0.4,0.29,0.29,0.58,0.5,0.25,0.55,0.76,0.25,0.61,0.25,0.25,0.55,0.56,0.29,0.29,0.58,0.55,0.25,0.55,0.95,0.25,0.61,0.25,0.25,0.55,0.71,0.5,0.58,0.48,0.29,0.5,0.25,0.55,0.95,0.25,0.71,0.25,0.55,0.71,0.55,0.88,0.6,0.5,0.4,0.5,0.44" style="fill:rgb(0,0,0);font-family:URWPalladioL-Roma;font-size:8.97px;stroke:none;">62. Ligiero, C.B.P.; dos Reis, L.A.; Parrilha, G.L.; Filho, M.B.; Canela, M.C. Comparaç</text>
   <text y="239.876" x="434.426" svgx:width="0.5" style="fill:rgb(0,0,0);font-family:VnURWPalladioL;font-size:8.97px;stroke:none;">ã</text>
   <text y="239.876" x="438.999,443.9325,447.12,451.501,456.824,459.806,463.253,467.5586,470.753" svgx:width="0.55,0.55,0.48,0.58,0.33,0.4,0.48,0.55,0.88" style="fill:rgb(0,0,0);font-family:URWPalladioL-Roma;font-size:8.97px;stroke:none;">o entre m</text>
   <text y="239.876" x="478.833" svgx:width="0.48" style="fill:rgb(0,0,0);font-family:VnURWPalladioL;font-size:8.97px;stroke:none;">é</text>
   <text y="239.876" x="483.214,486.195,491.189,496.777,501.771,505.5384,508.767,514.355" svgx:width="0.33,0.55,0.61,0.55,0.42,0.55,0.61,0.48" style="fill:rgb(0,0,0);font-family:URWPalladioL-Roma;font-size:8.97px;stroke:none;">todos de</text>
   <text y="252.788" x="97.799,102.921,108.435,113.008,118.331,121.313,123.974,129.507,133.568,138.141" svgx:width="0.56,0.6,0.5,0.58,0.33,0.29,0.61,0.44,0.5,0.44" style="fill:rgb(0,0,0);font-family:URWPalladioL-Roma;font-size:8.97px;stroke:none;">quantiﬁcaç</text>
   <text y="252.788" x="142.201" svgx:width="0.5" style="fill:rgb(0,0,0);font-family:VnURWPalladioL;font-size:8.97px;stroke:none;">ã</text>
   <text y="252.788" x="146.774,151.7075,154.456,158.837,166.73059999999998,169.611,173.672,177.12,182.113,190.189,194.762,197.743,202.737,207.822,211.434,216.007,221.54,226.025,228.811,233.896,238.469,242.347,247.34,251.218,255.791,258.0335,261.754,268.869,276.7626,279.634,284.015,288.734,294.231,298.611,302.224,304.885,312.961,317.342,322.665,325.646,330.5795,333.338,338.834,343.407,347.02,351.505,354.281,358.342,363.857,367.469,371.347,376.341,380.1084,382.917,388.505,392.8106,395.574,400.696" svgx:width="0.55,0.55,0.48,0.88,0.55,0.44,0.4,0.55,0.88,0.5,0.33,0.55,0.56,0.4,0.5,0.61,0.5,0.55,0.56,0.5,0.42,0.55,0.42,0.5,0.25,0.55,0.78,0.88,0.55,0.48,0.52,0.6,0.48,0.4,0.29,0.88,0.48,0.58,0.33,0.55,0.55,0.6,0.5,0.4,0.5,0.55,0.44,0.6,0.4,0.42,0.55,0.42,0.55,0.61,0.48,0.55,0.56,0.6" style="fill:rgb(0,0,0);font-family:URWPalladioL-Roma;font-size:8.97px;stroke:none;">o em cromatograﬁa gasosa: Um experimento para cursos de qu</text>
   <text y="252.788" x="406.211" svgx:width="0.29" style="fill:rgb(0,0,0);font-family:VnURWPalladioL;font-size:8.97px;stroke:none;">í</text>
   <text y="252.788" x="408.835,416.911,419.572,423.633,428.206" svgx:width="0.88,0.29,0.44,0.5,0.25" style="fill:rgb(0,0,0);font-family:URWPalladioL-Roma;font-size:8.97px;stroke:none;">mica.</text>
   <text y="252.788" x="434.625,441.74,446.825,449.368,456.483,458.7255,462.904,470.019,474.08,478.653" svgx:width="0.78,0.56,0.28,0.78,0.25,0.55,0.78,0.44,0.5,0.44" style="fill:rgb(0,0,0);font-family:URWPalladioL-Ital;font-size:8.97px;stroke:none;">Quim. Nova</text>
   <text y="252.788" x="485.404,489.887,494.37,498.854" svgx:width="0.5,0.5,0.5,0.5" style="fill:rgb(0,0,0);font-family:URWPalladioL-Bold;font-size:8.97px;stroke:none;">2009</text>
   <text y="252.788" x="503.337" svgx:width="0.25" style="fill:rgb(0,0,0);font-family:URWPalladioL-Roma;font-size:8.97px;stroke:none;">,</text>
   <text y="252.788" x="508.429,513.002" svgx:width="0.5,0.5" style="fill:rgb(0,0,0);font-family:URWPalladioL-Ital;font-size:8.97px;stroke:none;">32</text>
   <text y="252.788" x="517.575" svgx:width="0.25" style="fill:rgb(0,0,0);font-family:URWPalladioL-Roma;font-size:8.97px;stroke:none;">,</text>
   <text y="265.699" x="97.602,102.085,106.568,111.052,115.535,120.018,124.501,128.984,133.468,137.951,140.1935,142.972" svgx:width="0.5,0.5,0.5,0.5,0.5,0.5,0.5,0.5,0.5,0.25,0.55,0.33" style="fill:rgb(0,0,0);font-family:URWPalladioL-Roma;font-size:8.97px;stroke:none;">1338–1341. [</text>
   <text y="265.699" x="145.958,152.315,155.695,160.591,164.393,168.195,174.184,178.479" svgx:width="0.71,0.4,0.55,0.42,0.42,0.67,0.48,0.33" style="fill:rgb(8,117,183);font-family:URWPalladioL-Roma;font-size:8.97px;stroke:none;">CrossRef</text>
   <text y="265.699" x="181.465" svgx:width="0.33" style="fill:rgb(0,0,0);font-family:URWPalladioL-Roma;font-size:8.97px;stroke:none;">]</text>
   <text y="278.611" x="76.535,81.018,85.501,87.74350000000001,98.05,104.159,109.153" svgx:width="0.5,0.5,0.25,0.55,0.67,0.55,0.29" style="fill:rgb(0,0,0);font-family:URWPalladioL-Roma;font-size:8.97px;stroke:none;">63. Rol</text>
   <text y="278.611" x="111.815" svgx:width="0.55" style="fill:rgb(0,0,0);font-family:VnURWPalladioL;font-size:8.97px;stroke:none;">ó</text>
   <text y="278.611" x="116.808,122.131,124.3735,126.987,135.639,137.925,140.16750000000002,142.956,148.562,152.943,158.028,162.601,164.8435,167.457,173.941,176.228,178.47050000000002,181.249,186.837,190.715,194.775,199.348,202.961,205.622,210.616,212.85850000000002,215.481,218.527,220.813,227.929,230.215,232.4575,235.236" svgx:width="0.58,0.25,0.55,0.95,0.25,0.25,0.55,0.72,0.48,0.56,0.5,0.25,0.55,0.71,0.25,0.25,0.55,0.61,0.42,0.44,0.5,0.4,0.29,0.55,0.25,0.55,0.33,0.25,0.78,0.25,0.25,0.55,0.76" style="fill:rgb(0,0,0);font-family:URWPalladioL-Roma;font-size:8.97px;stroke:none;">n, M.; Vega, C.; Escario, J.A.; G</text>
   <text y="278.611" x="242.214" svgx:width="0.55" style="fill:rgb(0,0,0);font-family:VnURWPalladioL;font-size:8.97px;stroke:none;">ó</text>
   <text y="278.611" x="247.207,255.283,259.663,264.236,267.282,272.87,277.443,281.055,284.668,287.329,292.323,294.5655,297.179,304.295,306.5375,309.151,316.23,320.611,325.778,330.159,332.82,337.814,343.31,351.386,355.767,361.09,364.0501,366.65,371.644,374.6041,377.259,380.707,385.088,388.966,393.539,398.112,403.626,407.239,409.9,415.1026,417.793,425.869,428.53,432.591,436.048,441.042,444.023,446.684,449.666,454.047,457.63500000000005,460.229,464.802,468.68,472.558,477.131,482.15419999999995,484.785,487.831,492.825,496.413,499.016,504.595,508.144,513.659" svgx:width="0.88,0.48,0.5,0.33,0.61,0.5,0.4,0.4,0.29,0.55,0.25,0.55,0.78,0.25,0.55,0.77,0.48,0.56,0.48,0.29,0.55,0.6,0.88,0.48,0.58,0.33,0.55,0.55,0.33,0.55,0.4,0.48,0.42,0.5,0.5,0.6,0.4,0.29,0.58,0.55,0.88,0.29,0.44,0.4,0.55,0.33,0.29,0.33,0.48,0.4,0.55,0.5,0.42,0.42,0.5,0.56,0.55,0.33,0.55,0.4,0.55,0.61,0.4,0.6,0.56" style="fill:rgb(0,0,0);font-family:URWPalladioL-Roma;font-size:8.97px;stroke:none;">mez-Barrio, A. Development of resazurin microtiter assay for drug</text>
   <text y="291.522" x="98.05,101.814,106.066,111.232,114.996,117.579,122.488,125.071,127.654,130.237,133.131,138.1542,140.303,143.197,147.449,151.213,154.107,156.69,161.856,166.8792,169.037,173.884" svgx:width="0.42,0.48,0.58,0.42,0.29,0.55,0.29,0.29,0.29,0.33,0.56,0.55,0.33,0.48,0.42,0.33,0.29,0.58,0.56,0.55,0.55,0.33" style="fill:rgb(0,0,0);font-family:URWPalladioL-Roma;font-size:8.97px;stroke:none;">sensibility testing of</text>
   <text y="291.522" x="179.079,183.508,186.962,191.4,195.838,199.78,204.715,208.656,212.109,216.051,222.957,226.9038,229.135,232.748,236.201,241.136,245.078" svgx:width="0.61,0.39,0.5,0.5,0.44,0.56,0.44,0.39,0.44,0.78,0.44,0.55,0.41,0.39,0.56,0.44,0.28" style="fill:rgb(0,0,0);font-family:URWPalladioL-Ital;font-size:8.97px;stroke:none;">Trypanosoma cruzi</text>
   <text y="291.522" x="249.788,254.04,259.375,261.958,269.796,274.235,277.998,280.892,283.475,288.411,293.257,296.151,300.403,304.167" svgx:width="0.48,0.6,0.29,0.88,0.5,0.42,0.33,0.29,0.56,0.55,0.33,0.48,0.42,0.25" style="fill:rgb(0,0,0);font-family:URWPalladioL-Roma;font-size:8.97px;stroke:none;">epimastigotes.</text>
   <text y="291.522" x="309.165,314.589,318.53,321.983,325.924,329.377,331.845,334.801,338.742,341.21,343.4525,346.208,352.128,355.582,359.035" svgx:width="0.61,0.44,0.39,0.44,0.39,0.28,0.33,0.44,0.28,0.25,0.55,0.67,0.39,0.39,0.25" style="fill:rgb(0,0,0);font-family:URWPalladioL-Ital;font-size:8.97px;stroke:none;">Parasitol. Res.</text>
   <text y="291.522" x="364.033,368.516,372.999,377.483" svgx:width="0.5,0.5,0.5,0.5" style="fill:rgb(0,0,0);font-family:URWPalladioL-Bold;font-size:8.97px;stroke:none;">2006</text>
   <text y="291.522" x="381.966" svgx:width="0.25" style="fill:rgb(0,0,0);font-family:URWPalladioL-Roma;font-size:8.97px;stroke:none;">,</text>
   <text y="291.522" x="386.426,390.864" svgx:width="0.5,0.5" style="fill:rgb(0,0,0);font-family:URWPalladioL-Ital;font-size:8.97px;stroke:none;">99</text>
   <text y="291.522" x="395.303,397.5455,399.759,404.197,408.636,413.074,417.513,421.951,426.389,430.828,433.0705,435.834" svgx:width="0.25,0.55,0.5,0.5,0.5,0.5,0.5,0.5,0.5,0.25,0.55,0.33" style="fill:rgb(0,0,0);font-family:URWPalladioL-Roma;font-size:8.97px;stroke:none;">, 103–107. [</text>
   <text y="291.522" x="438.79,445.084,448.421,453.268,457.032,460.795,466.725,470.977" svgx:width="0.71,0.4,0.55,0.42,0.42,0.67,0.48,0.33" style="fill:rgb(8,117,183);font-family:URWPalladioL-Roma;font-size:8.97px;stroke:none;">CrossRef</text>
   <text y="291.522" x="473.933,476.8931,479.135" svgx:width="0.33,0.55,0.33" style="fill:rgb(0,0,0);font-family:URWPalladioL-Roma;font-size:8.97px;stroke:none;">] [</text>
   <text y="291.522" x="482.091,487.452,492.805,497.714,506.111,510.363" svgx:width="0.6,0.6,0.55,0.95,0.48,0.61" style="fill:rgb(8,117,183);font-family:URWPalladioL-Roma;font-size:8.97px;stroke:none;">PubMed</text>
   <text y="291.522" x="515.787" svgx:width="0.33" style="fill:rgb(0,0,0);font-family:URWPalladioL-Roma;font-size:8.97px;stroke:none;">]</text>
   <text y="304.434" x="76.535,81.018,85.501,87.74350000000001,98.05,104.363,108.814,112.59,116.854,119.0965,121.315,127.263,129.489,132.454,134.68,136.9225,139.14,144.091,147.608,152.059,157.241,161.693,166.617,169.208,173.66,179.029,181.2715,183.48,188.155,190.381,197.174,199.4,201.6425,203.861,211.936,216.388,221.57,226.521,228.7635,230.981,235.923,238.149,240.3915,242.609,248.922,254.104,258.965,261.2075,263.426,268.101,270.326,277.734,279.96,282.2025,284.421,289.095,293.957,298.222,300.305,304.757,308.274,311.176,316.038,318.2805,320.49,327.381,329.607,336.498,338.724,340.9665,343.185,348.563,353.015,358.384,360.974,363.565,365.8075,368.026,374.82,377.046,381.168,383.4105,385.629,391.069,393.971,399.153,404.335,409.197,414.548,419.73,424.181,427.698,435.56,440.012,443.965,448.827,451.418,456.279,461.229,463.82,467.774,472.225,474.8263,477.042,481.307,486.338,490.79,493.381,498.749,503.201,506.104,508.695,513.556" svgx:width="0.5,0.5,0.25,0.55,0.71,0.5,0.42,0.48,0.25,0.55,0.67,0.25,0.33,0.25,0.25,0.55,0.56,0.4,0.5,0.58,0.5,0.55,0.29,0.5,0.6,0.25,0.55,0.52,0.25,0.76,0.25,0.25,0.55,1.0,0.5,0.58,0.56,0.25,0.55,0.67,0.25,0.25,0.55,0.71,0.58,0.55,0.25,0.55,0.52,0.25,0.83,0.25,0.25,0.55,0.52,0.55,0.48,0.23,0.5,0.4,0.33,0.55,0.25,0.55,0.77,0.25,0.77,0.25,0.25,0.55,0.6,0.5,0.6,0.29,0.29,0.25,0.55,0.76,0.25,0.56,0.25,0.55,0.61,0.33,0.58,0.58,0.55,0.6,0.58,0.5,0.4,0.88,0.5,0.44,0.55,0.29,0.55,0.56,0.29,0.44,0.5,0.29,0.55,0.48,0.56,0.5,0.29,0.6,0.5,0.33,0.29,0.55,0.58" style="fill:rgb(0,0,0);font-family:URWPalladioL-Roma;font-size:8.97px;stroke:none;">64. Case, R.J.; Franzblau, S.G.; Wang, Y.; Cho, S.H.; Soejarto, D.D.; Pauli, G.F. Ethnopharmacological evaluation</text>
   <text y="317.346" x="98.05,103.044,106.0041,108.339,111.32,116.643,120.9486,123.265,125.926,131.249,134.295,139.288,142.901,150.976,155.549,160.872,163.83210000000003,166.103,170.164,175.158,180.48,184.358,188.739,194.062,197.94,203.455,207.22240000000002,209.582,217.658,222.651,228.239,232.62,235.2213,237.522,242.516,247.71859999999998,250.089,254.661,259.984,262.966,265.627,268.673,271.654,277.169,282.227,286.607,290.055,294.116,299.631,302.292,307.286,311.164,313.825,317.5924,319.953,324.013,326.675,331.248,333.909,341.985,345.7524,348.112,352.685,360.761,365.755,371.077,376.1002,378.403,381.385,386.707,391.0126,393.338,401.99,406.563,411.886,417.4,421.278" svgx:width="0.55,0.33,0.55,0.33,0.58,0.48,0.55,0.29,0.58,0.33,0.55,0.4,0.88,0.5,0.58,0.33,0.55,0.44,0.55,0.58,0.42,0.48,0.58,0.42,0.6,0.42,0.55,0.88,0.55,0.61,0.48,0.29,0.55,0.55,0.58,0.55,0.5,0.58,0.33,0.29,0.33,0.33,0.6,0.55,0.48,0.4,0.44,0.6,0.29,0.55,0.42,0.29,0.42,0.55,0.44,0.29,0.5,0.29,0.88,0.42,0.55,0.5,0.88,0.55,0.58,0.56,0.55,0.33,0.58,0.48,0.55,0.95,0.5,0.58,0.6,0.42,0.25" style="fill:rgb(0,0,0);font-family:URWPalladioL-Roma;font-size:8.97px;stroke:none;">of the informant consensus model on anti-tuberculosis claims among the Manus.</text>
   <text y="317.346" x="426.363,429.409,431.6515,433.945,439.533,442.578,447.151,452.236,456.297,460.87,465.443,469.503,473.061,480.177,484.237,487.96,492.02,494.563" svgx:width="0.33,0.25,0.55,0.61,0.33,0.5,0.56,0.44,0.5,0.5,0.44,0.39,0.78,0.44,0.41,0.44,0.28,0.25" style="fill:rgb(0,0,0);font-family:URWPalladioL-Ital;font-size:8.97px;stroke:none;">J. Ethnopharmacol.</text>
   <text y="317.346" x="499.642,504.125,508.608,513.092" svgx:width="0.5,0.5,0.5,0.5" style="fill:rgb(0,0,0);font-family:URWPalladioL-Bold;font-size:8.97px;stroke:none;">2006</text>
   <text y="317.346" x="517.575" svgx:width="0.25" style="fill:rgb(0,0,0);font-family:URWPalladioL-Roma;font-size:8.97px;stroke:none;">,</text>
   <text y="330.257" x="97.602,102.085,106.568" svgx:width="0.5,0.5,0.5" style="fill:rgb(0,0,0);font-family:URWPalladioL-Ital;font-size:8.97px;stroke:none;">106</text>
   <text y="330.257" x="111.052,113.29450000000001,115.535,120.018,124.502,128.985,133.468,137.951,140.1935,142.972" svgx:width="0.25,0.55,0.5,0.5,0.5,0.5,0.5,0.25,0.55,0.33" style="fill:rgb(0,0,0);font-family:URWPalladioL-Roma;font-size:8.97px;stroke:none;">, 82–89. [</text>
   <text y="330.257" x="145.958,152.315,155.696,160.591,164.393,168.195,174.184,178.479" svgx:width="0.71,0.4,0.55,0.42,0.42,0.67,0.48,0.33" style="fill:rgb(8,117,183);font-family:URWPalladioL-Roma;font-size:8.97px;stroke:none;">CrossRef</text>
   <text y="330.257" x="181.465,184.42510000000001,186.693" svgx:width="0.33,0.55,0.33" style="fill:rgb(0,0,0);font-family:URWPalladioL-Roma;font-size:8.97px;stroke:none;">] [</text>
   <text y="330.257" x="189.678,195.094,200.501,205.459,213.941,218.236" svgx:width="0.6,0.6,0.55,0.95,0.48,0.61" style="fill:rgb(8,117,183);font-family:URWPalladioL-Roma;font-size:8.97px;stroke:none;">PubMed</text>
   <text y="330.257" x="223.715" svgx:width="0.33" style="fill:rgb(0,0,0);font-family:URWPalladioL-Roma;font-size:8.97px;stroke:none;">]</text>
   <text y="343.169" x="76.535,81.018,85.501,87.74350000000001,98.05,104.528,107.187,109.846,115.163,117.822,121.879,126.447,129.0483,131.363,135.931,141.249,146.7207,149.079,154.661,159.23,164.282,169.271,172.88,177.448,180.427,185.416,189.025,194.0482,196.362,201.158,204.137,208.705,214.023,219.605,224.174,227.618,233.201,236.9684,239.332,242.411,247.728,251.602,254.581,257.24,260.218,265.728,268.706,273.01160000000004,275.331,278.373,284.851,290.434,295.23,298.31,301.352" svgx:width="0.5,0.5,0.25,0.55,0.71,0.29,0.29,0.58,0.29,0.44,0.5,0.29,0.55,0.5,0.58,0.61,0.55,0.61,0.5,0.55,0.55,0.4,0.5,0.33,0.55,0.4,0.56,0.55,0.52,0.33,0.5,0.58,0.61,0.5,0.4,0.61,0.42,0.55,0.34,0.58,0.42,0.33,0.29,0.33,0.6,0.33,0.48,0.55,0.33,0.71,0.61,0.52,0.34,0.33,0.25" style="fill:rgb(0,0,0);font-family:URWPalladioL-Roma;font-size:8.97px;stroke:none;">65. Clinical and Laboratory Standards Institute (CLSI).</text>
   <text y="343.169" x="305.891,314.516,319.084,323.653,326.695,333.292,337.777,340.117,346.212,349.766,352.306,355.86,359.25,362.804,367.884,371.603,375.10130000000004,377.404,386.03,389.584,392.626,397.195,401.251,405.736,408.077,410.617,414.673,418.1713,420.484,426.067,429.457,433.513,436.556,441.041,443.372,450.48,453.02,455.56,460.64,463.683,466.223,470.28,475.30319999999995,477.616,484.213,489.293,492.336,494.876,497.416,502.496,507.576,512.144,516.201" svgx:width="0.94,0.5,0.5,0.33,0.72,0.5,0.55,0.67,0.39,0.28,0.39,0.39,0.39,0.56,0.41,0.39,0.55,0.94,0.39,0.33,0.5,0.44,0.5,0.55,0.28,0.44,0.39,0.55,0.61,0.39,0.44,0.33,0.5,0.55,0.78,0.28,0.28,0.56,0.33,0.28,0.44,0.56,0.55,0.72,0.56,0.33,0.28,0.28,0.56,0.56,0.5,0.44,0.28" style="fill:rgb(0,0,0);font-family:URWPalladioL-Ital;font-size:8.97px;stroke:none;">M27-A3 Reference Method for Broth Dilution Antifungal</text>
   <text y="356.08" x="97.799,102.784,107.77,111.258,114.907,118.395,122.878,125.864,128.356,132.508,135.001,137.493,139.986,142.972,147.45700000000002,149.697,154.18,157.668,161.156,164.141,166.634,171.619,176.104,178.344,182.325,184.83659999999998,187.06,192.045,195.533,199.514,203.002,205.988,209.476,211.7185,213.959,220.432,224.916,229.399,232.725,236.706,241.19,244.678,249.163,251.402,256.388,259.374,263.355,268.34,272.823,276.804,280.292" svgx:width="0.56,0.56,0.39,0.41,0.39,0.5,0.33,0.28,0.46,0.28,0.28,0.28,0.33,0.5,0.55,0.61,0.39,0.39,0.33,0.28,0.56,0.5,0.55,0.44,0.28,0.55,0.67,0.39,0.44,0.39,0.33,0.39,0.25,0.55,0.72,0.5,0.5,0.39,0.44,0.5,0.39,0.5,0.55,0.56,0.33,0.44,0.56,0.5,0.44,0.39,0.5" style="fill:rgb(0,0,0);font-family:URWPalladioL-Ital;font-size:8.97px;stroke:none;">Susceptibility Testing of Yeasts; Approved Standard</text>
   <text y="356.08" x="284.773,287.01550000000003,289.256,293.739,297.12,302.5917,304.84,309.135,314.613,316.855,319.0975,321.338,327.695,333.174,337.881,340.903,343.1455,345.386,353.527,358.011,362.996,368.214,372.509,374.7515,376.992,381.583,388.559,390.80150000000003,393.042,400.018,404.726,411.701,413.94350000000003,416.185,420.668,425.151,429.634,434.117" svgx:width="0.25,0.55,0.5,0.4,0.61,0.55,0.48,0.61,0.25,0.25,0.55,0.71,0.61,0.52,0.34,0.25,0.55,1.0,0.5,0.56,0.58,0.48,0.25,0.55,0.6,0.78,0.25,0.55,0.78,0.52,0.78,0.25,0.55,0.5,0.5,0.5,0.5,0.25" style="fill:rgb(0,0,0);font-family:URWPalladioL-Roma;font-size:8.97px;stroke:none;">, 3rd ed.; CLSI: Wayne, PA, USA, 2008.</text>
   <text y="368.992" x="76.535,81.018,85.501,87.74350000000001,98.05,104.528,107.187,109.846,115.163,117.822,121.879,126.447,129.0483,131.363,135.931,141.249,146.7207,149.079,154.661,159.23,164.282,169.271,172.88,177.448,180.427,185.416,189.025,194.0482,196.362,201.158,204.137,208.705,214.023,219.605,224.174,227.618,233.201,236.9684,239.332,242.411,247.728,251.602,254.581,257.24,260.218,265.728,268.706,273.01160000000004,275.331,278.373,284.851,290.434,295.23,298.31,301.352" svgx:width="0.5,0.5,0.25,0.55,0.71,0.29,0.29,0.58,0.29,0.44,0.5,0.29,0.55,0.5,0.58,0.61,0.55,0.61,0.5,0.55,0.55,0.4,0.5,0.33,0.55,0.4,0.56,0.55,0.52,0.33,0.5,0.58,0.61,0.5,0.4,0.61,0.42,0.55,0.34,0.58,0.42,0.33,0.29,0.33,0.6,0.33,0.48,0.55,0.33,0.71,0.61,0.52,0.34,0.33,0.25" style="fill:rgb(0,0,0);font-family:URWPalladioL-Roma;font-size:8.97px;stroke:none;">66. Clinical and Laboratory Standards Institute (CLSI).</text>
   <text y="368.992" x="305.891,314.516,319.084,323.653,326.695,333.292,337.777,340.117,346.212,349.766,352.306,355.86,359.25,362.804,367.884,371.603,375.10130000000004,377.404,386.03,389.584,392.626,397.195,401.251,405.736,408.077,410.617,414.673,418.1713,420.484,426.067,429.457,433.513,436.556,441.041,443.372,450.48,453.02,455.56,460.64,463.683,466.223,470.28,475.30319999999995,477.616,484.213,489.293,492.336,494.876,497.416,502.496,507.576,512.144,516.201" svgx:width="0.94,0.5,0.5,0.33,0.72,0.5,0.55,0.67,0.39,0.28,0.39,0.39,0.39,0.56,0.41,0.39,0.55,0.94,0.39,0.33,0.5,0.44,0.5,0.55,0.28,0.44,0.39,0.55,0.61,0.39,0.44,0.33,0.5,0.55,0.78,0.28,0.28,0.56,0.33,0.28,0.44,0.56,0.55,0.72,0.56,0.33,0.28,0.28,0.56,0.56,0.5,0.44,0.28" style="fill:rgb(0,0,0);font-family:URWPalladioL-Ital;font-size:8.97px;stroke:none;">M38-A2 Reference Method for Broth Dilution Antifungal</text>
   <text y="381.904" x="97.799,102.784,107.77,111.258,114.907,118.395,122.878,125.864,128.356,132.508,135.001,137.493,139.986,142.972,147.45700000000002,149.697,154.18,157.668,161.156,164.141,166.634,171.619,176.104,178.344,182.325,184.83659999999998,187.06,192.045,194.537,197.03,201.011,207.987,211.475,216.46,219.446,223.427,228.413,231.9113,234.142,239.127,244.113,249.098,253.581,256.074,258.3165,260.557,267.031,271.514,275.997,279.324,283.305,287.788,291.276,295.761,298.001,302.986,305.972,309.953,314.938,319.422,323.403,326.891" svgx:width="0.56,0.56,0.39,0.41,0.39,0.5,0.33,0.28,0.46,0.28,0.28,0.28,0.33,0.5,0.55,0.61,0.39,0.39,0.33,0.28,0.56,0.5,0.55,0.44,0.28,0.55,0.56,0.28,0.28,0.44,0.78,0.39,0.56,0.33,0.44,0.56,0.39,0.55,0.56,0.56,0.56,0.5,0.28,0.25,0.55,0.72,0.5,0.5,0.39,0.44,0.5,0.39,0.5,0.55,0.56,0.33,0.44,0.56,0.5,0.44,0.39,0.5" style="fill:rgb(0,0,0);font-family:URWPalladioL-Ital;font-size:8.97px;stroke:none;">Susceptibility Testing of Filamentous Fungi; Approved Standard</text>
   <text y="381.904" x="331.37,333.6125,335.853,340.336,345.555,351.0267,353.275,357.57,363.048,365.29,367.5325,369.773,376.13,381.609,386.316,389.338,391.58050000000003,393.821,401.963,406.446,411.431,416.65,420.944,423.1865,425.428,430.018,436.994,439.23650000000004,441.477,448.453,453.161,460.137,462.3795,464.62,469.103,473.586,478.069,482.553" svgx:width="0.25,0.55,0.5,0.58,0.61,0.55,0.48,0.61,0.25,0.25,0.55,0.71,0.61,0.52,0.34,0.25,0.55,1.0,0.5,0.56,0.58,0.48,0.25,0.55,0.6,0.78,0.25,0.55,0.78,0.52,0.78,0.25,0.55,0.5,0.5,0.5,0.5,0.25" style="fill:rgb(0,0,0);font-family:URWPalladioL-Roma;font-size:8.97px;stroke:none;">, 2nd ed.; CLSI: Wayne, PA, USA, 2008.</text>
   <text y="394.815" x="76.535,81.018,85.501,87.74350000000001,98.05,104.67,109.649,114.956,119.324,127.376,131.936,137.243,139.4855,141.757,147.328,149.608,157.906,160.186,162.4285,164.7,171.794,174.448,177.101,181.469,186.776,189.01850000000002,191.299,196.087,198.366,205.424,207.704,209.94650000000001,212.218,215.254,219.814,225.121,230.693,235.252,237.49450000000002,239.766,248.064,250.344,258.97,261.25,263.4925,265.773,270.56,274.609,279.907,283.354,287.722,291.77,296.84,301.208,306.516,311.558,315.926,319.364,324.434,328.802,331.738,333.9805,336.261,340.611,342.891,349.356,351.635,353.8775,356.149,364.776,367.429,372.736,378.044,380.2865,382.557,390.855,393.135,399.6,401.88,404.1225,406.394,409.43,412.376" svgx:width="0.5,0.5,0.25,0.55,0.73,0.55,0.58,0.48,0.88,0.5,0.58,0.25,0.55,0.61,0.25,1.0,0.25,0.25,0.55,0.78,0.29,0.29,0.48,0.58,0.25,0.55,0.52,0.25,0.77,0.25,0.25,0.55,0.33,0.5,0.58,0.61,0.5,0.25,0.55,1.0,0.25,0.95,0.25,0.25,0.55,0.52,0.44,0.58,0.4,0.48,0.44,0.56,0.48,0.58,0.55,0.48,0.4,0.56,0.48,0.4,0.25,0.55,0.6,0.25,0.71,0.25,0.25,0.55,1.0,0.29,0.58,0.58,0.25,0.55,1.0,0.25,0.71,0.25,0.25,0.55,0.33,0.4,0.25" style="fill:rgb(0,0,0);font-family:URWPalladioL-Roma;font-size:8.97px;stroke:none;">67. Koneman, E.W.; Allen, S.D.; Janda, W.M.; Schreckenberger, P.C.; Winn, W.C., Jr.</text>
   <text y="394.815" x="417.43,423.512,427.561,430.096,434.145,437.64329999999995,439.926,446.51,449.546,452.082,456.13,459.62829999999997,461.921,465.969,471.04,475.52500000000003,477.833,482.411,485.958,490.517,493.554,497.776,501.825,505.873,509.8198,512.156,516.205" svgx:width="0.67,0.44,0.28,0.44,0.39,0.55,0.72,0.33,0.28,0.44,0.39,0.55,0.44,0.56,0.5,0.55,0.61,0.39,0.5,0.33,0.46,0.44,0.44,0.44,0.55,0.44,0.28" style="fill:rgb(0,0,0);font-family:URWPalladioL-Ital;font-size:8.97px;stroke:none;">Color Atlas and Textbook of</text>
   <text y="407.727" x="97.701,104.677,107.17,111.151,115.634,120.619,124.6,128.088,131.074,133.567,137.2447,139.458,147.922,150.414,154.064,157.39,161.371,165.523,168.016,171.997,174.489,178.47,182.954" svgx:width="0.78,0.28,0.44,0.5,0.56,0.44,0.39,0.33,0.28,0.41,0.55,0.94,0.28,0.41,0.39,0.44,0.46,0.28,0.44,0.28,0.44,0.5,0.5" style="fill:rgb(0,0,0);font-family:URWPalladioL-Ital;font-size:8.97px;stroke:none;">Diagnostic Microbiology</text>
   <text y="407.727" x="187.435,189.6775,191.918,196.401,199.324,204.5266,206.785,211.079,216.558,218.799,221.0415,223.283,228.761,231.37,236.759,242.148,244.757,249.976,253.957,258.852,261.775,264.698,266.9405,269.72,275.135,280.354,282.963,285.572,290.055,295.534,299.829,302.438,307.827,313.045,315.655,320.138,322.3805,324.621,329.212,336.188,338.4305,340.671,347.647,352.354,359.33,361.5725,363.813,368.296,372.78,377.263,381.746" svgx:width="0.25,0.55,0.5,0.33,0.58,0.55,0.48,0.61,0.25,0.25,0.55,0.61,0.29,0.6,0.6,0.29,0.58,0.44,0.55,0.33,0.33,0.25,0.55,0.6,0.58,0.29,0.29,0.5,0.61,0.48,0.29,0.6,0.58,0.29,0.5,0.25,0.55,0.6,0.78,0.25,0.55,0.78,0.52,0.78,0.25,0.55,0.5,0.5,0.5,0.5,0.25" style="fill:rgb(0,0,0);font-family:URWPalladioL-Roma;font-size:8.97px;stroke:none;">, 6th ed.; Lippincott: Philadelphia, PA, USA, 2005.</text>
   <text y="420.638" x="76.535,81.018,85.501,87.74350000000001,98.05,104.534,107.196,109.857,115.18,117.841,121.902,126.475,129.0763,133.224,137.797,143.12,148.5917,152.796,158.384,162.957,168.015,173.008,176.621,181.194,184.175,189.169,192.781,197.8042,201.955,206.756,209.738,214.31,219.633,225.221,229.794,233.251,238.839,242.6064,246.805,249.887,255.21,259.088,262.069,264.731,267.712,273.227,276.209,280.51460000000003,284.678,287.723,294.208,299.796,304.597,307.679,310.725" svgx:width="0.5,0.5,0.25,0.55,0.71,0.29,0.29,0.58,0.29,0.44,0.5,0.29,0.55,0.5,0.58,0.61,0.55,0.61,0.5,0.55,0.55,0.4,0.5,0.33,0.55,0.4,0.56,0.55,0.52,0.33,0.5,0.58,0.61,0.5,0.4,0.61,0.42,0.55,0.34,0.58,0.42,0.33,0.29,0.33,0.6,0.33,0.48,0.55,0.33,0.71,0.61,0.52,0.34,0.33,0.25" style="fill:rgb(0,0,0);font-family:URWPalladioL-Roma;font-size:8.97px;stroke:none;">68. Clinical and Laboratory Standards Institute (CLSI).</text>
   <text y="420.638" x="317.099,325.733,330.305,334.878,339.451,342.497,347.582,352.155,356.64,360.816,366.404,369.961,373.519,376.062,380.122,383.68,390.795,394.856,399.941,403.663,407.1613,411.309,416.394,419.44,423.5,428.585,433.158,437.219,440.777,445.35,448.8483,452.995,455.538,459.599,463.0973,467.244,473.848,478.933,481.978,484.521,491.636,494.179,497.901,501.303,505.364,509.598,512.141,516.202" svgx:width="0.94,0.5,0.5,0.5,0.33,0.56,0.5,0.5,0.55,0.61,0.39,0.39,0.28,0.44,0.39,0.78,0.44,0.56,0.41,0.39,0.55,0.56,0.33,0.44,0.56,0.5,0.44,0.39,0.5,0.39,0.55,0.28,0.44,0.39,0.55,0.72,0.56,0.33,0.28,0.78,0.28,0.41,0.39,0.44,0.46,0.28,0.44,0.28" style="fill:rgb(0,0,0);font-family:URWPalladioL-Ital;font-size:8.97px;stroke:none;">M100-S24 Performance Standards for Antimicrobial</text>
   <text y="433.55" x="97.799,102.784,107.77,111.258,114.907,118.395,122.878,125.864,128.356,132.508,135.001,137.493,139.986,142.972,147.45700000000002,149.697,154.18,157.668,161.156,164.141,166.634,171.619,176.103,178.34550000000002,180.586,185.239,191.713,195.201,200.186,203.172,207.655,210.641,215.626,219.608,224.593,228.081,231.067,235.55200000000002,237.791,240.777,245.763,248.255,252.236,255.724,262.7,266.681,269.667,272.16,276.141,281.126,285.107,287.6186,289.841,294.827,299.812,304.295,308.778,311.271,314.759,321.735,325.223,330.208" svgx:width="0.56,0.56,0.39,0.41,0.39,0.5,0.33,0.28,0.46,0.28,0.28,0.28,0.33,0.5,0.55,0.61,0.39,0.39,0.33,0.28,0.56,0.5,0.25,0.55,0.61,0.72,0.39,0.56,0.33,0.5,0.33,0.56,0.44,0.56,0.39,0.33,0.5,0.55,0.33,0.56,0.28,0.44,0.39,0.78,0.44,0.33,0.28,0.44,0.56,0.44,0.28,0.55,0.56,0.56,0.5,0.5,0.28,0.39,0.78,0.39,0.56,0.33" style="fill:rgb(0,0,0);font-family:URWPalladioL-Ital;font-size:8.97px;stroke:none;">Susceptibility Testing; Twenty-Fourth Informational Supplement</text>
   <text y="433.55" x="333.19,335.4325,337.673,344.03,349.509,354.216,357.238,359.4805,361.721,369.863,374.346,379.331,384.55,388.844,391.0865,393.328,397.918,404.894,407.1365,409.378,416.353,421.061,428.037,430.2795,432.52,437.003,441.486,445.969,450.453" svgx:width="0.25,0.55,0.71,0.61,0.52,0.34,0.25,0.55,1.0,0.5,0.56,0.58,0.48,0.25,0.55,0.6,0.78,0.25,0.55,0.78,0.52,0.78,0.25,0.55,0.5,0.5,0.5,0.5,0.25" style="fill:rgb(0,0,0);font-family:URWPalladioL-Roma;font-size:8.97px;stroke:none;">; CLSI: Wayne, PA, USA, 2014.</text>
  </g>
  <rect style="stroke:blue;stroke-width:0.3;" x="77.56" y="407.175" height="29.098" width="83.136" title="13"/>
  <text y="407.175" class="image" id="image.13.1" width="83" height="29" x="77.56">image.13.1.78_161.407_436</text>
  <g begin="text">
   <text y="455.517" x="168.065,174.7925,177.012,181.549,186.086,190.623,195.108,197.41,202.428,207.4512,209.724,212.682,217.963,222.2686,224.551,229.088,234.559,237.517,242.798,247.753,251.337,255.185,257.4275,260.257,265.801,268.442,272.47,276.817,282.098,285.945,290.292,294.5976,296.889,305.473,312.496,317.977,321.034,323.2765,325.553,331.098,335.635,339.482,343.828,346.469,348.7115,350.988,355.752,363.319,365.96,368.918,373.455,377.801,381.386,384.026,388.563,393.844,399.388,401.6305,404.452,410.014,415.295,417.936,421.7034,424.033,428.57,432.155,435.113,437.753,441.782,444.423,448.72860000000003,451.02,453.66,457.42740000000003,459.758,464.295,469.49760000000003,471.817,476.772,482.225,486.571,491.77360000000004,494.103,498.64,502.669,506.698,511.044,514.891" svgx:width="0.75,0.55,0.5,0.5,0.5,0.5,0.55,0.55,0.56,0.55,0.33,0.58,0.48,0.55,0.5,0.6,0.33,0.58,0.55,0.4,0.42,0.25,0.55,0.61,0.29,0.44,0.48,0.58,0.42,0.48,0.48,0.55,0.95,0.77,0.6,0.34,0.25,0.55,0.61,0.5,0.42,0.48,0.29,0.25,0.55,0.52,0.83,0.29,0.33,0.5,0.48,0.4,0.29,0.5,0.58,0.61,0.25,0.55,0.61,0.58,0.29,0.42,0.55,0.5,0.4,0.33,0.29,0.44,0.29,0.48,0.55,0.29,0.42,0.55,0.5,0.58,0.55,0.55,0.6,0.48,0.58,0.55,0.5,0.44,0.44,0.48,0.42,0.42" style="fill:rgb(0,0,0);font-family:URWPalladioL-Roma;font-size:8.97px;stroke:none;">© 2017 by the authors. Licensee MDPI, Basel, Switzerland. This article is an open access</text>
   <text y="468.429" x="169.401,173.898,177.45,180.382,182.999,186.992,189.609,193.9146,196.147,201.642,204.259,208.072,211.004,214.556,217.173,222.147,227.57,230.501,234.809,240.2807,242.534,247.957,253.192,258.686,262.994,266.58200000000005,268.777,271.709,276.943,281.2486,283.472,286.404,290.712,294.264,302.205,305.9724,308.249,312.745,317.979,323.4507,325.705,329.698,334.608,339.842,345.337,347.954,350.886,353.503,358.413,363.647,367.4144,369.691,374.601,377.5611,379.826,382.758,387.992,392.29760000000005,394.53,400.907,404.297,408.605,413.102,416.033,418.65,423.732,428.03760000000005,430.27,436.646,441.556,449.497,457.439,462.349,467.583,471.35040000000004,473.626,480.623,483.555,486.478,490.03,492.647,497.621,503.044,505.975,508.592,513.503" svgx:width="0.5,0.4,0.33,0.29,0.44,0.29,0.48,0.55,0.61,0.29,0.42,0.33,0.4,0.29,0.55,0.6,0.33,0.48,0.61,0.55,0.6,0.58,0.61,0.48,0.4,0.55,0.33,0.58,0.48,0.55,0.33,0.48,0.4,0.88,0.42,0.55,0.5,0.58,0.61,0.55,0.44,0.55,0.58,0.61,0.29,0.33,0.29,0.55,0.58,0.42,0.55,0.55,0.33,0.55,0.33,0.58,0.48,0.55,0.71,0.4,0.48,0.5,0.33,0.29,0.56,0.48,0.55,0.71,0.55,0.88,0.88,0.55,0.58,0.42,0.55,0.78,0.33,0.33,0.4,0.29,0.55,0.6,0.33,0.29,0.55,0.58" style="fill:rgb(0,0,0);font-family:URWPalladioL-Roma;font-size:8.97px;stroke:none;">article distributed under the terms and conditions of the Creative Commons Attribution</text>
   <text y="481.34" x="169.105,172.091,178.448,184.8167,187.047,192.525,198.506,201.4661,203.733,206.342,208.952,212.933,217.228,222.446,226.248,230.5536,232.784,235.77,240.989,243.912,246.835,252.224,254.465,259.899,265.332,269.313,272.694,276.989,281.472,284.395,287.004,292.07,296.365,300.346,305.242,313.159,321.076,325.972,331.191,334.992,337.234,342.13,345.51,350.495,355.929,358.538,361.147,365.128,369.423,374.642,378.443,382.738,386.54,391.974,396.932,401.917,407.351,411.834,414.076,418.559,423.993,426.978" svgx:width="0.33,0.71,0.71,0.55,0.61,0.67,0.33,0.55,0.29,0.29,0.44,0.48,0.58,0.42,0.48,0.55,0.33,0.58,0.33,0.33,0.6,0.25,0.61,0.61,0.44,0.4,0.48,0.5,0.33,0.29,0.56,0.48,0.44,0.55,0.88,0.88,0.55,0.58,0.42,0.25,0.55,0.4,0.56,0.61,0.29,0.29,0.44,0.48,0.58,0.42,0.48,0.42,0.61,0.55,0.56,0.61,0.5,0.25,0.5,0.61,0.33,0.25" style="fill:rgb(0,0,0);font-family:URWPalladioL-Roma;font-size:8.97px;stroke:none;">(CC BY) license (http://creativecommons.org/licenses/by/4.0/).</text>
  </g>
 </g>
</svg>
