<?xml version="1.0" encoding="UTF-8"?>
<svg height="643.058" width="400.895" xmlns="http://www.w3.org/2000/svg">
 <g id="page" xmlns:svgx="http://www.xml-cml.org/schema/svgx">
  <path style="fill:none;stroke:rgb(0,0,0);stroke-width:1.0;" d="M51.020 45.930 L388.350 45.930 "/>
  <g begin="text">
   <text y="633.058" x="347.754,354.864,359.109" svgx:width="0.47,0.28,1.97" style="fill:rgb(0,0,0);font-family:Springnew-Regular;font-size:15.0px;stroke:none;">1 3</text>
  </g>
  <g begin="text">
   <text y="39.057" x="51.024,55.656,59.656,63.656,65.656,70.992,74.992,77.864,80.528,82.528,87.864,91.864,95.416,101.64,103.64,106.304,111.2,113.864,115.864,118.528,122.528,126.528,130.528,134.528,137.192,139.192,143.192,147.192,151.192,153.416" svgx:width="0.61,0.5,0.5,0.25,0.67,0.5,0.33,0.33,0.25,0.67,0.5,0.44,0.78,0.25,0.33,0.61,0.33,0.25,0.33,0.5,0.5,0.5,0.5,0.33,0.25,0.5,0.5,0.5,0.28,0.5" style="fill:rgb(0,0,0);font-family:STIX-Regular;font-size:8.0px;stroke:none;">Top Curr Chem (Z) (2018) 376:3</text>
   <text y="39.697" x="332.32,336.696,340.248,344.128,347.68,349.68,353.68,357.68,359.68,363.68,366.344,368.344,372.344,376.344" svgx:width="0.56,0.44,0.5,0.44,0.25,0.5,0.5,0.25,0.5,0.33,0.25,0.5,0.5,0.25" style="fill:rgb(0,0,0);font-family:STIX-Regular;font-size:8.0px;stroke:none;">Page 41 of 54 </text>
   <text y="39.697" x="384.344" svgx:width="0.5" style="fill:rgb(0,0,0);font-family:STIX-Bold;font-size:8.0px;stroke:none;">3</text>
   <text y="65.61" x="51.024" svgx:width="0.33" style="fill:rgb(0,0,0);font-family:STIX-Regular;font-size:10.0px;stroke:none;">[</text>
   <text y="65.61" x="54.354,59.354" svgx:width="0.5,0.5" style="fill:rgb(0,0,255);font-family:STIX-Regular;font-size:10.0px;stroke:none;">71</text>
   <text y="65.61" x="64.354" svgx:width="0.5" style="fill:rgb(0,0,0);font-family:STIX-Regular;font-size:10.0px;stroke:none;">–</text>
   <text y="65.61" x="69.354,74.354" svgx:width="0.5,0.5" style="fill:rgb(0,0,255);font-family:STIX-Regular;font-size:10.0px;stroke:none;">79</text>
   <text y="65.61" x="79.354,82.684,85.184,87.614,92.054,95.944,98.374,101.154,105.044,107.474,110.334,115.334,119.774,122.204,126.644,131.084,134.974,139.414,141.844,146.844,150.174,152.604,157.044,161.484,164.754,169.674,172.454,176.894,181.894,186.894,189.674,194.674,197.104,200.994,205.434,210.434,214.874,218.183,222.623,225.403,228.183,233.183,238.183,240.613,243.943,247.213,252.213,259.993,262.423,267.423,272.423,280.203,284.643,289.743,293.053,297.493,302.493,306.933,309.713,314.153,316.583,321.583,326.023,330.463,333.243,337.133,339.563,344.563,348.453,351.233,356.233,361.233,363.663,368.663,371.443,377.493,381.933,385.014" svgx:width="0.33,0.25,0.25,0.44,0.39,0.25,0.28,0.39,0.25,0.28,0.5,0.44,0.25,0.44,0.44,0.39,0.44,0.25,0.5,0.33,0.25,0.44,0.44,0.33,0.5,0.28,0.44,0.5,0.5,0.28,0.5,0.25,0.39,0.44,0.5,0.44,0.33,0.44,0.28,0.28,0.5,0.5,0.25,0.33,0.33,0.5,0.78,0.25,0.5,0.5,0.78,0.44,0.5,0.33,0.44,0.5,0.44,0.28,0.44,0.25,0.5,0.44,0.44,0.28,0.39,0.25,0.5,0.39,0.28,0.5,0.5,0.25,0.5,0.28,0.61,0.44,0.33,0.33" style="fill:rgb(0,0,0);font-family:STIX-Regular;font-size:10.0px;stroke:none;">], as is the case of carotenoid separation from pomegranate peels using differ-</text>
   <text y="77.61" x="51.024,55.464,60.464,63.244,65.744,70.504,74.944,79.794,84.144,87.024,91.464,96.464,99.244,103.684,106.184,111.184,113.964,116.744,120.634,123.134,127.574,131.464,133.964,137.854,142.854,145.424,150.184,154.624,159.624,162.404,166.294,168.794" svgx:width="0.44,0.5,0.28,0.25,0.5,0.44,0.5,0.44,0.28,0.44,0.5,0.28,0.44,0.25,0.5,0.28,0.28,0.39,0.25,0.44,0.39,0.25,0.39,0.5,0.28,0.5,0.44,0.5,0.28,0.39,0.25,0.33" style="fill:rgb(0,0,0);font-family:STIX-Regular;font-size:10.0px;stroke:none;">ent vegetable oils as solvents [</text>
   <text y="77.61" x="172.124,177.124" svgx:width="0.5,0.5" style="fill:rgb(0,0,255);font-family:STIX-Regular;font-size:10.0px;stroke:none;">72</text>
   <text y="77.61" x="182.124,185.454,187.954,190.454,196.014,201.014,206.014,211.574,216.354,223.394,227.834,231.164,233.664,238.104,243.104,248.104,250.604,254.494,259.274,264.274,269.274,273.714,278.154,283.154,285.654,290.654,293.434,296.214,300.104,302.604,309.644,314.084,317.394,321.834,324.334,329.334,333.224,337.664,342.664,345.164,349.604,353.494,355.994,359.884,364.884,367.454,372.214,376.654,381.654,384.434,388.324" svgx:width="0.33,0.25,0.25,0.56,0.5,0.5,0.56,0.5,0.72,0.44,0.33,0.25,0.44,0.5,0.5,0.25,0.39,0.5,0.5,0.5,0.44,0.44,0.5,0.25,0.5,0.28,0.28,0.39,0.25,0.72,0.44,0.33,0.44,0.25,0.5,0.39,0.44,0.5,0.25,0.44,0.39,0.25,0.39,0.5,0.28,0.5,0.44,0.5,0.28,0.39,0.25" style="fill:rgb(0,0,0);font-family:STIX-Regular;font-size:10.0px;stroke:none;">]. Sunflower and soybean oils were used as solvents </text>
   <text y="89.61" x="51.024,55.464,60.464,65.464,67.964,69.134,74.134,78.574,81.884,86.324,94.104,98.454,101.234,105.674,109.004,112.894,115.394,116.564,120.454,125.454,129.734,134.734,137.234,138.404,142.844,146.734,149.234,150.404,153.184,155.964,163.744,168.184,170.684,173.184,174.354,177.134,181.574,189.324,194.324,198.764,202.073,206.513,209.293,214.293,217.603,222.043,224.543,227.043,228.213,232.103,237.103,239.883,242.663,247.663,250.443,255.443,258.223,261.003,263.503,264.673,267.983,272.423,275.203,277.983,282.983,285.483,286.653,291.653,295.543,299.983,304.983,307.483,308.653,315.693,320.133,323.442,327.882,330.382,331.552,335.992,340.992,345.432,348.002,353.002,357.442,361.882,366.882,369.382,370.552,374.992,379.992,384.992" svgx:width="0.44,0.5,0.5,0.25,0.55,0.5,0.44,0.33,0.44,0.78,0.44,0.28,0.44,0.33,0.39,0.25,0.55,0.39,0.5,0.44,0.5,0.25,0.55,0.44,0.39,0.25,0.55,0.28,0.28,0.78,0.44,0.25,0.25,0.55,0.28,0.44,0.78,0.5,0.44,0.33,0.44,0.28,0.5,0.33,0.44,0.25,0.25,0.55,0.39,0.5,0.28,0.28,0.5,0.28,0.5,0.28,0.28,0.25,0.55,0.33,0.44,0.28,0.28,0.5,0.25,0.55,0.5,0.39,0.44,0.5,0.25,0.55,0.72,0.44,0.33,0.44,0.25,0.55,0.44,0.5,0.44,0.28,0.5,0.44,0.44,0.5,0.25,0.55,0.44,0.5,0.5,0.33" style="fill:rgb(0,0,0);font-family:STIX-Regular;font-size:10.0px;stroke:none;">and parameters such as time, temperature, solid/oil ratio used were analyzed con-</text>
   <text y="101.61" x="51.024,54.914,57.694,62.694,67.134,70.654,73.434,78.434,83.434,85.934,86.974,89.834,94.834,99.274,101.774,102.814,107.814,110.594,115.034,117.814,122.814,125.314,127.814,128.854,132.184,134.964,137.464,138.504,145.444,149.884,153.774,156.274,157.314,160.324,165.324,170.324,175.324,180.324,182.824,183.864,186.724,191.724,196.164,198.944,201.444,202.484,205.344,210.344,214.784,217.284,218.324,223.324,228.314,231.094,233.874,241.654,246.654,254.434,256.93399999999997,257.974,265.754,268.534,271.314,276.314,278.814,279.854,284.854,289.854,294.294,297.604,302.044,304.824,307.604,312.604,317.604,320.104,321.144,325.584,330.584,335.584,340.584,343.364,346.144,348.924,353.924,358.924,362.814,365.314,366.354,373.394,377.834,381.144,385.584,388.364" svgx:width="0.39,0.28,0.5,0.44,0.33,0.28,0.5,0.5,0.25,0.55,0.28,0.5,0.44,0.25,0.55,0.5,0.28,0.44,0.28,0.5,0.25,0.25,0.55,0.33,0.28,0.25,0.55,0.72,0.44,0.39,0.25,0.55,0.33,0.5,0.5,0.5,0.5,0.25,0.55,0.28,0.5,0.44,0.28,0.25,0.55,0.28,0.5,0.44,0.25,0.55,0.5,0.5,0.28,0.28,0.78,0.5,0.78,0.25,0.55,0.78,0.28,0.28,0.5,0.25,0.55,0.5,0.5,0.44,0.33,0.44,0.28,0.28,0.5,0.5,0.25,0.55,0.44,0.5,0.5,0.5,0.28,0.28,0.28,0.5,0.5,0.39,0.25,0.55,0.72,0.44,0.33,0.44,0.28,0.25" style="fill:rgb(0,0,0);font-family:STIX-Regular;font-size:10.0px;stroke:none;">sidering the yield. It was found that the optimum mild operating conditions were: </text>
   <text y="113.61" x="51.024,55.254,60.254,63.034,66.344,70.784,75.224,78.004,80.784,85.784,90.784,93.284,95.034,97.814,102.254,110.004,115.004,119.444,122.754,127.194,129.974,134.974,138.283,142.723,145.223,147.723,149.473,154.473,159.473,161.973,166.973,169.473,171.22,175.22,181.89,184.67,187.17,188.92,193.92,198.36,202.8,205.58,208.36,212.25,217.25,219.819,224.579,229.019,234.019,236.799,239.299,241.049,244.359,248.799,251.579,254.359,259.359,261.859,264.359,266.109,271.109,273.609,278.609,283.609,286.389,288.889,290.639,295.079,302.828,307.828,310.608,313.388,316.168,321.168,326.168,330.608,333.108,334.858,337.638,341.887,346.648,351.088,353.868,356.368,358.868,360.618,365.618,370.618,373.118,378.118,385.588,388.368" svgx:width="0.44,0.5,0.28,0.33,0.44,0.44,0.28,0.28,0.5,0.5,0.25,0.55,0.28,0.44,0.78,0.5,0.44,0.33,0.44,0.28,0.5,0.33,0.44,0.25,0.25,0.55,0.5,0.5,0.25,0.5,0.25,0.55,0.4,0.67,0.28,0.25,0.55,0.5,0.44,0.44,0.28,0.28,0.39,0.5,0.28,0.5,0.44,0.5,0.28,0.25,0.55,0.33,0.44,0.28,0.28,0.5,0.25,0.25,0.55,0.5,0.25,0.5,0.5,0.28,0.25,0.55,0.44,0.78,0.5,0.28,0.28,0.28,0.5,0.5,0.44,0.25,0.55,0.28,0.44,0.5,0.44,0.28,0.25,0.25,0.55,0.5,0.5,0.25,0.5,0.75,0.28,0.25" style="fill:rgb(0,0,0);font-family:STIX-Regular;font-size:10.0px;stroke:none;">extraction temperature, 51.5  °C; peel/solvent ratio, 0.10; amplitude level, 58.8%; </text>
   <text y="125.61" x="51.024,54.914,59.914,62.484,67.244,71.684,76.684,79.464,81.964,84.464,85.264,89.154,94.154,99.154,104.714,109.493,116.533,120.973,124.303,126.803,127.603,132.603,135.383,138.163,140.663,143.163,143.963,151.013,156.013,161.013,163.793,166.573,169.353,174.353,179.353,183.793,186.573,189.143,193.613,196.113,198.613,199.413,203.853,206.353,207.153,211.043,216.043,221.043,224.933,229.373,234.243,239.243,243.683,248.683,251.463,253.963,254.763,258.653,263.093,268.093,272.533,275.843,280.283,283.063,285.843,290.843,295.843,298.343,299.143,304.143,307.473,309.973,310.773,315.773,318.553,321.333,323.833,324.633,329.073,334.073,339.073,341.573,342.373,346.813,351.253,354.523,359.443,362.223,366.663,371.663,376.663,379.443,384.443,388.333" svgx:width="0.39,0.5,0.28,0.5,0.44,0.5,0.28,0.25,0.25,0.55,0.39,0.5,0.5,0.56,0.5,0.72,0.44,0.33,0.25,0.55,0.5,0.28,0.28,0.25,0.25,0.55,0.72,0.5,0.5,0.28,0.28,0.28,0.5,0.5,0.44,0.28,0.28,0.5,0.25,0.25,0.55,0.44,0.25,0.55,0.39,0.5,0.5,0.39,0.44,0.5,0.5,0.44,0.5,0.28,0.25,0.55,0.39,0.44,0.5,0.44,0.33,0.44,0.28,0.28,0.5,0.5,0.25,0.55,0.5,0.33,0.25,0.55,0.5,0.28,0.28,0.25,0.55,0.44,0.5,0.5,0.25,0.55,0.44,0.44,0.33,0.5,0.28,0.44,0.5,0.5,0.28,0.5,0.39,0.25" style="fill:rgb(0,0,0);font-family:STIX-Regular;font-size:10.0px;stroke:none;">solvent, sunflower oil. Additionally, a subsequent separation of oil and carotenoids </text>
   <text y="137.61" x="51.024,57.964,62.404,66.294,68.819,73.819,78.739,81.519,84.049,89.049,93.489,97.929,102.369,106.259,110.149,114.589,118.128,122.598,125.098,127.628,131.518,134.298,139.298,143.738,148.178,150.703,153.563,158.563,163.003,165.533,170.533,173.313,178.313,186.093,190.533,195.533,198.313,202.753,207.753,210.278,215.278,218.058,220.838,223.368,227.808,232.248,237.248,239.778,244.778,249.218,251.743,256.743,260.633,265.073,270.073,272.603,277.043,280.933,283.458,287.898,290.428,294.868,299.308,302.577,307.497,310.277,314.717,319.717,324.717,327.497,332.497,335.027,338.917,343.917,348.917,352.227,356.667,361.107,363.632,366.412,371.412,373.942,378.942,381.722,385.052" svgx:width="0.72,0.44,0.39,0.25,0.5,0.5,0.28,0.25,0.5,0.44,0.44,0.44,0.39,0.39,0.44,0.33,0.5,0.25,0.25,0.39,0.28,0.5,0.44,0.44,0.25,0.28,0.5,0.44,0.25,0.5,0.28,0.5,0.78,0.44,0.5,0.28,0.44,0.5,0.25,0.5,0.28,0.28,0.25,0.44,0.44,0.5,0.25,0.5,0.44,0.25,0.5,0.39,0.44,0.5,0.25,0.44,0.39,0.25,0.44,0.25,0.44,0.44,0.33,0.5,0.28,0.44,0.5,0.5,0.28,0.5,0.25,0.39,0.5,0.5,0.33,0.44,0.44,0.25,0.28,0.5,0.25,0.5,0.28,0.33,0.33" style="fill:rgb(0,0,0);font-family:STIX-Regular;font-size:10.0px;stroke:none;">was not necessary, since the pigmented oil can be used as a carotenoid source in dif-</text>
   <text y="149.61" x="51.024,54.014,58.454,61.764,66.204,71.204,73.984,76.484,80.924,85.924,93.704,101.484,105.924,109.233,113.673,116.453,120.893,123.673,126.173,131.173,134.443,139.443,144.443,149.443,153.883,156.663,160.553,163.053,165.833,170.833,173.333,176.193,181.193,183.973,187.863,190.363,193.373,198.373,201.902,209.682,214.122,216.902" svgx:width="0.33,0.44,0.33,0.44,0.5,0.28,0.25,0.44,0.5,0.78,0.78,0.44,0.33,0.44,0.28,0.44,0.28,0.25,0.5,0.33,0.5,0.5,0.5,0.44,0.28,0.39,0.25,0.28,0.5,0.25,0.28,0.5,0.28,0.39,0.25,0.33,0.5,0.33,0.78,0.44,0.28,0.25" style="fill:rgb(0,0,0);font-family:STIX-Regular;font-size:10.0px;stroke:none;">ferent commercial products in this format.</text>
   <text y="161.61" x="62.364,68.474,73.474,77.914,80.414,81.454,86.554,89.863,94.303,98.743,103.743,106.243,107.283,110.593,115.033,119.473,124.253,129.013,133.453,136.993,141.993,144.493,145.533,150.533,153.863,156.363,157.403,161.843,166.283,169.063,171.843,176.843,179.623,184.623,188.513,192.953,195.453,196.493,199.823,203.093,208.093,215.873,218.373,219.413,224.413,227.193,229.973,232.473,233.513,238.513,242.953,245.733,253.513,256.01300000000003,257.053,262.053,267.053,272.053,276.332,281.332,285.772,289.662,292.162,293.202,298.002,303.002,305.502,306.542,310.982,315.982,318.742,323.742,328.182,330.962,335.082,339.842,344.282,347.612,352.612,357.052,360.942,365.382,370.382,372.882,373.922,378.362,383.362,388.362" svgx:width="0.61,0.5,0.44,0.25,0.55,0.5,0.33,0.44,0.44,0.5,0.25,0.55,0.33,0.44,0.44,0.5,0.5,0.44,0.33,0.5,0.25,0.55,0.5,0.33,0.25,0.55,0.44,0.44,0.28,0.28,0.5,0.28,0.5,0.39,0.44,0.25,0.55,0.33,0.33,0.5,0.78,0.25,0.55,0.5,0.28,0.28,0.25,0.55,0.5,0.44,0.28,0.78,0.25,0.55,0.5,0.5,0.5,0.44,0.5,0.44,0.39,0.25,0.55,0.5,0.5,0.25,0.55,0.44,0.5,0.28,0.5,0.44,0.28,0.44,0.5,0.44,0.33,0.5,0.44,0.39,0.44,0.5,0.25,0.55,0.44,0.5,0.5,0.25" style="fill:rgb(0,0,0);font-family:STIX-Regular;font-size:10.0px;stroke:none;">The green recovery of cellulose from oil palm bunches by autoclave-based and </text>
   <text y="173.61" x="51.024,56.024,58.804,61.584,64.894,69.334,73.224,78.224,83.224,86.004,90.444,94.884,97.664,100.444,105.444,110.444,113.204,118.204,121.514,125.954,129.284,132.064,135.374,139.814,144.254,147.034,154.814,159.254,164.254,167.034,170.924,173.684,180.724,185.164,188.474,192.914,195.674,199.564,204.564,209.004,213.444,217.884,221.774,225.664,228.994,233.994,236.774,239.343,244.343,247.103,252.103,256.353,261.113,265.553,268.333,273.333,278.333,282.773,287.773,290.533,293.294,298.294,301.054,304.364,308.804,313.804,316.584,321.024,325.464,329.904,332.664,335.525,340.525,344.965,347.725,352.725,357.725,362.725,366.055,371.155,374.465,378.905,383.345,388.345" svgx:width="0.5,0.28,0.28,0.33,0.44,0.39,0.5,0.5,0.28,0.44,0.44,0.28,0.28,0.5,0.5,0.25,0.5,0.33,0.44,0.33,0.28,0.33,0.44,0.44,0.28,0.78,0.44,0.5,0.28,0.39,0.25,0.72,0.44,0.33,0.44,0.25,0.39,0.5,0.44,0.44,0.44,0.39,0.39,0.33,0.5,0.28,0.28,0.5,0.25,0.5,0.44,0.5,0.44,0.28,0.5,0.5,0.44,0.5,0.25,0.28,0.5,0.25,0.33,0.44,0.5,0.28,0.44,0.44,0.44,0.25,0.28,0.5,0.44,0.25,0.5,0.5,0.5,0.33,0.5,0.33,0.44,0.44,0.5,0.25" style="fill:rgb(0,0,0);font-family:STIX-Regular;font-size:10.0px;stroke:none;">ultrasonication pre-treatments were successfully developed to replace the non-green </text>
   <text y="185.61" x="51.024,55.304,60.304,63.084,68.084,71.604,74.384,77.164,81.604,84.104,85.524,93.304,97.654,100.514,105.514,110.514,115.514,118.014,119.434" svgx:width="0.44,0.5,0.28,0.5,0.33,0.28,0.28,0.44,0.25,0.55,0.78,0.44,0.28,0.5,0.5,0.5,0.25,0.55,0.33" style="fill:rgb(0,0,0);font-family:STIX-Regular;font-size:10.0px;stroke:none;">chlorite method [</text>
   <text y="185.61" x="122.764,127.764" svgx:width="0.5,0.5" style="fill:rgb(0,0,255);font-family:STIX-Regular;font-size:10.0px;stroke:none;">73</text>
   <text y="185.61" x="132.764,136.094,138.594,141.094,142.514,149.734,154.734,157.234,158.654,163.654,166.434,169.214,172.524,176.964,180.854,185.854,190.854,193.634,198.074,200.574,201.994,206.994,210.264,215.264,219.704,224.144,228.034,231.924,234.424,235.844,243.064,245.844,248.704,253.704,256.204,257.624,262.424,267.424,272.424,275.694,280.694,285.544,289.984,294.984,297.484,298.904,303.904,308.344,311.614,316.394,321.394,324.174,329.174,333.614,336.114,337.534,342.534,345.314,349.754,352.534,357.534,361.974,366.974,369.474,370.894,375.894,380.894,388.364" svgx:width="0.33,0.25,0.25,0.55,0.72,0.5,0.25,0.55,0.5,0.28,0.28,0.33,0.44,0.39,0.5,0.5,0.28,0.44,0.25,0.55,0.5,0.33,0.5,0.44,0.44,0.39,0.39,0.25,0.55,0.72,0.28,0.28,0.5,0.25,0.55,0.5,0.5,0.5,0.33,0.5,0.5,0.44,0.5,0.25,0.55,0.5,0.44,0.33,0.5,0.5,0.28,0.5,0.44,0.25,0.55,0.5,0.28,0.44,0.28,0.5,0.44,0.5,0.25,0.55,0.5,0.5,0.75,0.25" style="fill:rgb(0,0,0);font-family:STIX-Regular;font-size:10.0px;stroke:none;">]. An ultrasonic process with hydrogen peroxide yielded 49% </text>
   <text y="197.61" x="51.024,55.464,59.904,62.684,65.464,70.464,73.244,78.244,82.134,86.574,88.994,96.214,98.994,101.854,106.854,109.274,114.274,116.774,121.774,126.774,134.244,136.664,141.104,143.884,148.884,153.884,158.324,161.654,166.094,170.534,173.314,176.094,181.094,183.874,188.874,192.764,197.204,199.624,204.064,209.064,214.064,216.844,221.284,226.284,229.064,231.484,235.924,240.924,245.924,248.344,253.344,258.344,260.844,265.844,273.314,275.734,280.174,283.713,288.584,292.393,295.273,299.713,302.493,305.273,308.053,313.053,315.833,318.613,323.083,325.583,328.003,332.443,336.333,338.753,343.193,348.193,355.943,360.943,365.383,368.693,373.133,378.133,380.553,383.313,388.313" svgx:width="0.44,0.44,0.28,0.28,0.5,0.28,0.5,0.39,0.44,0.25,0.72,0.28,0.28,0.5,0.25,0.5,0.25,0.5,0.5,0.75,0.25,0.44,0.28,0.5,0.5,0.44,0.33,0.44,0.44,0.28,0.28,0.5,0.28,0.5,0.39,0.44,0.25,0.44,0.5,0.5,0.28,0.44,0.5,0.28,0.25,0.44,0.5,0.5,0.25,0.5,0.5,0.25,0.5,0.75,0.25,0.44,0.33,0.5,0.39,0.28,0.44,0.28,0.28,0.28,0.5,0.28,0.28,0.5,0.25,0.25,0.44,0.39,0.25,0.44,0.5,0.78,0.5,0.44,0.33,0.44,0.5,0.25,0.28,0.5,0.25" style="fill:rgb(0,0,0);font-family:STIX-Regular;font-size:10.0px;stroke:none;">cellulose with 9.13% alpha-cellulose content and 68.7% crystallinity, as compared to </text>
   <text y="209.61" x="51.024,56.024,61.024,68.494,71.358,75.798,80.238,83.018,85.798,90.798,93.578,98.578,102.468,106.908,109.772,116.992,119.772,122.632,127.632,130.497,134.937,139.937,142.801,147.241,152.241,155.001,160.001,164.441,167.221,171.341,176.101,180.541,183.405,186.185,189.495,193.935,198.375,201.155,208.935,213.375,218.375,221.155,223.655,226.519,232.629,237.629,242.069,244.933,249.373,253.813,256.593,259.373,264.373,267.153,272.153,276.043,280.483,283.263,288.263,293.263,295.833,300.833,305.833,309.103,314.103,319.033,323.853,326.633,331.073,336.073,340.513,343.377,347.817,352.817,360.567,365.567,370.567,374.457,377.237,380.017,384.457,388.347" svgx:width="0.5,0.5,0.75,0.25,0.44,0.44,0.28,0.28,0.5,0.28,0.5,0.39,0.44,0.25,0.72,0.28,0.28,0.5,0.25,0.44,0.5,0.25,0.44,0.5,0.28,0.5,0.44,0.28,0.44,0.5,0.44,0.25,0.28,0.33,0.44,0.44,0.28,0.78,0.44,0.5,0.28,0.25,0.25,0.61,0.5,0.44,0.25,0.44,0.44,0.28,0.28,0.5,0.28,0.5,0.39,0.44,0.28,0.5,0.5,0.28,0.5,0.5,0.33,0.5,0.5,0.5,0.28,0.44,0.5,0.44,0.25,0.44,0.5,0.78,0.5,0.5,0.39,0.28,0.28,0.44,0.39,0.25" style="fill:rgb(0,0,0);font-family:STIX-Regular;font-size:10.0px;stroke:none;">64% cellulose with an autoclave treatment. The cellulose/polypropylene composites </text>
   <text y="221.61" x="51.024,55.874,60.314,65.314,69.754,73.064,77.504,80.284,84.724,89.724,92.259,99.479,102.259,105.119,110.119,112.654,117.654,120.434,125.434,130.434,132.974,135.754,140.194,145.194,149.084,151.864,154.644,159.084,161.619,165.429,168.209,171.519,175.959,180.959,185.959,188.819,193.819,196.319,198.854,203.854,206.634,211.634,216.634,219.174,222.034,227.034,231.474,235.003,242.783,247.223,250.003,252.543,256.353,259.233,263.673,268.673,271.453,274.233,277.013,279.793,284.263,286.763,289.298,293.738,298.738,303.738,306.273,309.053,313.834,321.054,323.589,330.529,334.969,337.749,342.189,345.519,348.054,352.494,357.494,362.494,365.029,370.029,372.809,377.249,381.139,385.579,388.359" svgx:width="0.5,0.44,0.5,0.44,0.33,0.44,0.28,0.44,0.5,0.25,0.72,0.28,0.28,0.5,0.25,0.5,0.28,0.5,0.5,0.25,0.28,0.44,0.5,0.39,0.28,0.28,0.44,0.25,0.39,0.28,0.33,0.44,0.5,0.5,0.28,0.5,0.25,0.25,0.5,0.28,0.5,0.5,0.25,0.28,0.5,0.44,0.33,0.78,0.44,0.28,0.25,0.39,0.28,0.44,0.5,0.28,0.28,0.28,0.28,0.5,0.25,0.25,0.44,0.5,0.5,0.25,0.28,0.5,0.72,0.25,0.72,0.44,0.28,0.44,0.33,0.25,0.44,0.5,0.5,0.25,0.5,0.28,0.44,0.39,0.44,0.28,0.25" style="fill:rgb(0,0,0);font-family:STIX-Regular;font-size:10.0px;stroke:none;">generated with high tensile strength, high thermal stability, and low water and diesel </text>
   <text y="233.61" x="51.024,54.914,59.914,63.494,68.484,71.264,74.044,79.044,84.044,86.634,90.524,95.524,100.304,107.344,111.784,116.784,119.374,124.474,127.784,132.224,136.664,139.444,142.034,147.034,151.954,154.734,159.174,164.174,166.954,169.734,174.174,176.954,180.844,183.434,186.444,191.444,194.774,197.364,201.804,206.804,211.493,216.254,220.694,224.024,227.914,230.694,235.694,240.694,243.284,246.064,251.064,253.824,258.824,261.414,265.854,270.294,275.294,278.624,283.064,288.064,295.814,300.814,305.814,309.704,312.484,315.264,319.704,322.294,327.294,330.564,335.564,340.564,345.564,350.004,352.784,356.674,359.264,363.154,368.154,372.434,377.434,380.024,384.464,388.354" svgx:width="0.39,0.5,0.33,0.5,0.28,0.28,0.5,0.5,0.25,0.39,0.5,0.5,0.72,0.44,0.5,0.25,0.5,0.33,0.44,0.44,0.28,0.25,0.5,0.5,0.28,0.44,0.5,0.28,0.28,0.44,0.28,0.39,0.25,0.33,0.5,0.33,0.25,0.44,0.5,0.5,0.5,0.44,0.33,0.39,0.28,0.5,0.5,0.25,0.28,0.5,0.28,0.5,0.25,0.44,0.44,0.5,0.33,0.44,0.5,0.78,0.5,0.5,0.39,0.28,0.28,0.44,0.25,0.5,0.33,0.5,0.5,0.5,0.44,0.28,0.39,0.25,0.39,0.5,0.44,0.5,0.25,0.44,0.39,0.25" style="fill:rgb(0,0,0);font-family:STIX-Regular;font-size:10.0px;stroke:none;">sorption showed great potentials for conversion into eco-composite products such as </text>
   <text y="245.61" x="51.024,56.024,61.024,63.594,68.594,76.374,80.814,84.334,87.114,91.554,94.639,102.419,106.859,109.639,114.079,117.598,120.378,124.818,127.598,130.683,133.463,138.463,142.353,147.353,150.133,154.573,157.353,161.793,166.793,169.878,174.318,178.758,183.758,186.538,190.978,194.868,197.952,200.962,205.962,209.292,212.377,217.377,220.157,225.157,230.157,233.242,237.973,242.973,245.753,248.632,253.072,257.922,262.362,265.447,269.887,274.887,279.887,282.667,287.667,292.107,296.547,300.067,302.847,307.847,312.847,315.347,318.432,322.872,327.872,330.631,335.631,343.411,348.332,351.112,353.892,358.652,363.092,366.177,371.177,375.617,379.176,381.956,385.846,388.346" svgx:width="0.5,0.5,0.28,0.5,0.78,0.44,0.33,0.28,0.44,0.25,0.78,0.44,0.28,0.44,0.33,0.28,0.44,0.28,0.25,0.28,0.5,0.39,0.5,0.28,0.44,0.28,0.44,0.5,0.25,0.44,0.44,0.5,0.28,0.44,0.39,0.25,0.33,0.5,0.33,0.25,0.5,0.28,0.5,0.5,0.25,0.5,0.5,0.28,0.28,0.44,0.5,0.44,0.25,0.44,0.5,0.5,0.28,0.5,0.44,0.44,0.33,0.28,0.5,0.5,0.25,0.25,0.44,0.5,0.28,0.5,0.78,0.5,0.28,0.28,0.5,0.44,0.25,0.5,0.44,0.33,0.28,0.39,0.25,0.25" style="fill:rgb(0,0,0);font-family:STIX-Regular;font-size:10.0px;stroke:none;">polymeric material insulated cables for high voltage engineering, automotive parts, </text>
   <text y="257.61" x="51.024,54.914,59.914,64.914,68.474,71.254,75.144,77.644,80.404,85.404,90.404,93.184,97.074,99.574,104.014,109.014,114.014,116.514,121.433,124.293,129.293,133.733,137.063,139.563,144.563,149.563,154.563,158.453,162.893,167.893,172.893,175.673,180.673,183.173,188.173,191.503,194.003,199.003,207.323,211.763,216.203,218.703,221.483,224.263,228.703,236.483,240.373" svgx:width="0.39,0.5,0.5,0.33,0.28,0.39,0.25,0.28,0.5,0.5,0.28,0.39,0.25,0.44,0.5,0.5,0.25,0.5,0.28,0.5,0.44,0.33,0.25,0.5,0.5,0.5,0.39,0.44,0.5,0.5,0.28,0.5,0.25,0.5,0.33,0.25,0.5,0.83,0.44,0.44,0.25,0.28,0.28,0.44,0.78,0.39,0.25" style="fill:rgb(0,0,0);font-family:STIX-Regular;font-size:10.0px;stroke:none;">sports tools and other household or office items.</text>
   <text y="269.61" x="62.364,69.584,74.584,79.504,82.364,87.364,91.804,95.134,97.634,99.584,104.584,107.364,112.364,117.364,119.934,124.934,127.434,129.384,133.824,136.604,139.384,143.824,148.824,151.324,153.274,158.374,161.684,166.124,170.564,175.564,178.064,180.014,184.454,189.454,194.454,196.954,198.904,202.794,207.794,211.604,214.484,218.924,221.704,226.704,231.144,236.144,238.924,243.364,245.864,247.814,250.594,255.034,259.314,264.314,269.314,272.094,276.964,281.964,286.404,288.904,290.854,293.614,298.614,301.114,303.064,305.844,309.734,314.734,317.514,321.954,324.734,329.174,331.674,333.624,338.624,341.794,346.684,351.124,356.124,358.904,363.344,365.844,367.794,372.234,377.234,385.014" svgx:width="0.72,0.5,0.5,0.28,0.5,0.44,0.33,0.25,0.55,0.5,0.28,0.5,0.5,0.28,0.5,0.25,0.55,0.44,0.28,0.28,0.44,0.5,0.25,0.55,0.5,0.33,0.44,0.44,0.5,0.25,0.55,0.44,0.5,0.5,0.25,0.55,0.39,0.5,0.39,0.28,0.44,0.28,0.5,0.44,0.5,0.28,0.44,0.25,0.55,0.28,0.44,0.44,0.5,0.5,0.28,0.5,0.5,0.44,0.25,0.55,0.28,0.5,0.25,0.55,0.28,0.39,0.5,0.28,0.44,0.28,0.44,0.25,0.55,0.5,0.33,0.5,0.44,0.5,0.28,0.44,0.25,0.55,0.44,0.5,0.78,0.33" style="fill:rgb(0,0,0);font-family:STIX-Regular;font-size:10.0px;stroke:none;">Another highly cited green and sustainable technique to isolate organic com-</text>
   <text y="281.61" x="51.024,56.024,61.024,66.024,71.024,76.024,79.914,82.414,83.384,86.714,89.984,94.984,102.764,105.264,106.234,111.234,114.014,119.014,122.344,127.344,131.784,135.674,140.114,145.114,147.614,148.584,155.524,159.964,163.774,166.554,170.994,173.494,174.464,177.244,181.134,183.634,184.604,189.604,194.044,197.934,202.374,207.374,209.874,210.844,215.844,220.844,223.344,224.314,228.204,233.204,238.204,242.644,245.954,250.394,253.914,256.694,259.474,262.254,266.694,271.134,273.914,276.414,277.384,282.944,287.944,290.724,295.724,298.224,299.194,304.194,307.464,312.464,316.904,321.344,325.234,329.124,331.904,336.904,341.904,344.404,345.374,348.704,354.214,356.994,361.994,364.494" svgx:width="0.5,0.5,0.5,0.5,0.5,0.39,0.25,0.55,0.33,0.33,0.5,0.78,0.25,0.55,0.5,0.28,0.5,0.33,0.5,0.44,0.39,0.44,0.5,0.25,0.55,0.72,0.44,0.39,0.28,0.44,0.25,0.55,0.28,0.39,0.25,0.55,0.5,0.44,0.39,0.44,0.5,0.25,0.55,0.5,0.5,0.25,0.55,0.39,0.5,0.5,0.44,0.33,0.44,0.33,0.28,0.28,0.28,0.44,0.44,0.28,0.25,0.55,0.56,0.5,0.28,0.5,0.25,0.55,0.5,0.33,0.5,0.44,0.44,0.39,0.39,0.28,0.5,0.5,0.25,0.55,0.33,0.56,0.28,0.5,0.25,0.25" style="fill:rgb(0,0,0);font-family:STIX-Regular;font-size:10.0px;stroke:none;">pounds from bio-based waste is based on supercritical fluid processing (Fig. </text>
   <text y="281.61" x="367.944" svgx:width="0.5" style="fill:rgb(0,0,255);font-family:STIX-Regular;font-size:10.0px;stroke:none;">5</text>
   <text y="281.61" x="372.944,376.274,378.774,381.274,382.244,385.574,388.354" svgx:width="0.33,0.25,0.25,0.55,0.33,0.28,0.25" style="fill:rgb(0,0,0);font-family:STIX-Regular;font-size:10.0px;stroke:none;">). It </text>
   <text y="293.61" x="51.024,53.804,57.694,60.194,61.114,68.334,71.114,76.114,80.554,83.124,88.124,90.624,91.544,96.544,101.544,106.325,113.545,118.545,121.045,121.965,124.825,129.825,134.265,137.045,139.545,140.465,144.355,149.355,154.355,158.165,161.045,165.485,170.485,174.925,179.365,183.255,185.755,186.675,191.115,193.895,196.395,197.315,200.095,204.535,212.285,217.285,221.725,225.035,229.475,232.255,237.255,240.565,245.005,248.895,251.395,252.315,256.755,261.755,266.755,269.255,270.175,275.175,278.485,282.925,286.815,290.705,295.705,299.015,303.455,307.345,309.845,310.765,315.765,320.205,324.645,327.975,330.475,331.395,336.395,339.725,342.225,343.145,347.585,352.585,357.365,362.125,366.565,369.065,369.985,372.845,377.845,382.285,385.065,388.395" svgx:width="0.28,0.39,0.25,0.55,0.72,0.28,0.5,0.44,0.28,0.5,0.25,0.55,0.5,0.5,0.5,0.72,0.5,0.25,0.55,0.28,0.5,0.44,0.28,0.25,0.55,0.39,0.5,0.5,0.39,0.28,0.44,0.5,0.44,0.44,0.39,0.25,0.55,0.44,0.28,0.25,0.55,0.28,0.44,0.78,0.5,0.44,0.33,0.44,0.28,0.5,0.33,0.44,0.39,0.25,0.55,0.44,0.5,0.5,0.25,0.55,0.5,0.33,0.44,0.39,0.39,0.5,0.33,0.44,0.39,0.25,0.55,0.5,0.44,0.44,0.33,0.25,0.55,0.5,0.33,0.25,0.55,0.44,0.5,0.5,0.5,0.44,0.25,0.55,0.28,0.5,0.44,0.28,0.33,0.25" style="fill:rgb(0,0,0);font-family:STIX-Regular;font-size:10.0px;stroke:none;">is widely known that substances at temperatures and pressures near or above their </text>
   <text y="305.61" x="51.024,55.464,58.984,61.764,64.544,67.324,71.764,76.204,78.984,81.564,86.564,91.564,94.344,99.344,102.124,106.014,108.594,113.594,117.714,122.474,126.914,129.494,133.723,138.484,142.924,147.364,152.353,155.133,157.913,162.913,167.913,172.353,175.133,177.713,181.603,186.603,189.173,193.933,198.373,203.373,206.153,208.733,213.013,218.013,222.453,225.763,230.203,234.643,237.423,241.863,245.382,248.162,251.972,254.752,257.532,261.972,265.862,268.442,271.451,276.451,279.781,282.361,286.801,291.801,296.241,298.811,303.811,306.591,309.371,313.811,318.251,321.031,323.611,328.611,333.611,337.191,342.191,347.191,351.081,355.521,359.411,361.911,364.491,370.601,375.601,380.041,383.931,388.371" svgx:width="0.44,0.33,0.28,0.28,0.28,0.44,0.44,0.28,0.25,0.5,0.5,0.28,0.5,0.28,0.39,0.25,0.5,0.44,0.5,0.44,0.25,0.44,0.5,0.44,0.44,0.5,0.28,0.28,0.5,0.5,0.44,0.28,0.25,0.39,0.5,0.28,0.5,0.44,0.5,0.28,0.25,0.44,0.5,0.44,0.33,0.44,0.44,0.28,0.44,0.33,0.28,0.39,0.28,0.28,0.44,0.39,0.25,0.33,0.5,0.33,0.25,0.44,0.5,0.44,0.28,0.5,0.28,0.28,0.44,0.44,0.28,0.25,0.5,0.5,0.33,0.5,0.5,0.39,0.44,0.39,0.25,0.25,0.61,0.5,0.44,0.39,0.44,0.25" style="fill:rgb(0,0,0);font-family:STIX-Regular;font-size:10.0px;stroke:none;">critical points have exceptional solvent characteristics for analytical purposes. These </text>
   <text y="317.61" x="51.024,54.914,59.914,64.914,69.354,72.664,77.104,80.624,83.404,86.184,88.964,93.404,97.844,100.624,103.124,103.914,109.474,114.474,117.254,122.254,126.144,128.644,129.434,134.434,139.434,143.324,147.214,151.654,155.544,159.434,161.934,162.724,165.504,168.284,173.154,178.154,180.934,185.934,189.264,192.044,194.824,199.694,204.134,206.634,207.424,211.314,216.314,218.884,223.684,228.124,230.904,233.684,238.684,243.684,246.184,246.974,251.414,256.414,261.414,263.914,264.704,269.594,274.034,277.924,281.254,284.034,286.814,291.684,296.124,298.624,299.414,304.414,307.194,313.244,318.244,322.134,324.914,329.914,332.694,335.474,340.474,342.974,343.764,348.764,353.544,360.584,365.024,368.094,370.594,373.094,373.884,378.324,383.324,388.324" svgx:width="0.39,0.5,0.5,0.44,0.33,0.44,0.33,0.28,0.28,0.28,0.44,0.44,0.28,0.25,0.55,0.56,0.5,0.28,0.5,0.39,0.25,0.55,0.5,0.5,0.39,0.39,0.44,0.39,0.39,0.25,0.55,0.28,0.28,0.5,0.5,0.28,0.5,0.33,0.28,0.28,0.5,0.44,0.25,0.55,0.39,0.5,0.28,0.5,0.44,0.28,0.28,0.5,0.5,0.25,0.55,0.44,0.5,0.5,0.25,0.55,0.5,0.44,0.39,0.33,0.28,0.28,0.5,0.44,0.25,0.55,0.5,0.28,0.61,0.5,0.39,0.28,0.5,0.28,0.28,0.5,0.25,0.55,0.5,0.5,0.72,0.44,0.33,0.25,0.25,0.55,0.44,0.5,0.5,0.25" style="fill:rgb(0,0,0);font-family:STIX-Regular;font-size:10.0px;stroke:none;">supercritical fluids possess liquid-like solvating and gas-like diffusivit y power , and </text>
   <text y="329.61" x="51.024,55.944,58.804,63.804,68.244,71.574,74.334,77.114,82.114,87.114,91.554,95.994,100.994,103.774,108.214,110.974,115.974,119.243,124.243,129.243,133.683,137.243,140.023,142.803,147.243,151.133,153.893,156.753,161.753,166.193,168.973,171.733,176.173,180.613,185.613,188.373,193.373,197.813,200.573,205.013,210.013,212.793,217.793,221.602,224.382,228.822,233.822,236.582,241.382,245.822,249.362,254.362,257.142,262.142,267.142,269.902,272.682,277.122,284.872,289.872,294.312,297.622,302.062,304.842,309.842,313.152,317.592,320.092,322.847,327.847,331.157,335.597,339.487,343.377,348.377,351.687,356.127,358.887,363.327,368.327,373.327,376.087,378.947,383.947,388.387" svgx:width="0.5,0.28,0.5,0.44,0.33,0.25,0.28,0.5,0.5,0.44,0.44,0.5,0.28,0.44,0.25,0.5,0.33,0.5,0.5,0.44,0.33,0.28,0.28,0.44,0.39,0.25,0.28,0.5,0.44,0.28,0.25,0.44,0.44,0.5,0.25,0.5,0.44,0.25,0.44,0.5,0.28,0.5,0.39,0.28,0.44,0.5,0.25,0.5,0.44,0.33,0.5,0.28,0.5,0.5,0.25,0.28,0.44,0.78,0.5,0.44,0.33,0.44,0.28,0.5,0.33,0.44,0.25,0.25,0.5,0.33,0.44,0.39,0.39,0.5,0.33,0.44,0.25,0.44,0.5,0.5,0.25,0.28,0.5,0.44,0.25" style="fill:rgb(0,0,0);font-family:STIX-Regular;font-size:10.0px;stroke:none;">other tuneable properties that can be adjusted varying temperature, pressure and the </text>
   <text y="341.61" x="51.024,55.464,60.464,65.464,68.244,71.024,73.804,78.804,83.804,86.774,91.774,95.104,98.074,102.994,105.854,110.854,115.294,118.624,121.594,126.034,131.034,138.784,143.784,148.784,153.784,158.224,163.224,166.004,169.894,172.864,177.304,181.744,184.524,187.304,192.304,197.304,200.274,204.714,208.604,211.574,216.014,218.984,226.764,231.764,236.764,239.544,245.124,249.564,252.414,254.914,257.884,265.104,270.104,274.544,277.514,280.274,285.274,288.244,291.024,293.804,297.694,300.664,305.554,309.994,313.884,317.214,319.994,322.774,327.644,332.084,335.054,337.834,342.614,349.834,352.804,357.804,360.584,364.474,368.914,373.914,377.804,380.584,383.364,388.364" svgx:width="0.44,0.5,0.5,0.28,0.28,0.28,0.5,0.5,0.25,0.5,0.33,0.25,0.5,0.28,0.5,0.44,0.33,0.25,0.44,0.5,0.78,0.5,0.5,0.5,0.44,0.5,0.28,0.39,0.25,0.44,0.44,0.28,0.28,0.5,0.5,0.25,0.44,0.39,0.25,0.44,0.25,0.78,0.5,0.5,0.28,0.56,0.44,0.33,0.25,0.25,0.72,0.5,0.44,0.25,0.28,0.5,0.25,0.28,0.28,0.39,0.25,0.5,0.44,0.39,0.33,0.28,0.28,0.5,0.44,0.25,0.28,0.5,0.72,0.25,0.5,0.28,0.39,0.44,0.5,0.39,0.28,0.28,0.5,0.25" style="fill:rgb(0,0,0);font-family:STIX-Regular;font-size:10.0px;stroke:none;">addition of other components acting as a modifier. Due to its gas-like low viscosity </text>
   <text y="353.61" x="51.024,55.464,60.464,65.464,67.964,68.724,73.724,76.504,81.504,86.504,89.004,89.764,94.764,97.544,103.594,108.594,112.484,115.264,120.264,123.044,125.824,130.294,132.794,135.294,136.054,138.914,143.914,148.354,150.854,151.614,155.504,160.504,165.504,169.944,173.254,177.694,181.214,183.994,186.774,189.554,193.994,198.434,201.214,203.714,204.474,210.034,215.034,217.814,222.814,225.314,226.074,230.514,234.954,239.954,242.454,243.214,247.654,252.094,255.984,258.764,261.334,266.334,268.834,269.594,274.594,279.034,284.034,288.384,291.164,294.474,298.914,301.694,306.134,308.634,309.394,312.174,317.174,319.934,324.934,327.434,328.194,333.194,335.974,340.414,345.414,348.194,350.694,351.454,359.234,363.674,366.454,370.894,374.414,377.194,381.634,384.414,388.304" svgx:width="0.44,0.5,0.5,0.25,0.55,0.5,0.28,0.5,0.5,0.25,0.55,0.5,0.28,0.61,0.5,0.39,0.28,0.5,0.28,0.28,0.5,0.25,0.25,0.55,0.28,0.5,0.44,0.25,0.55,0.39,0.5,0.5,0.44,0.33,0.44,0.33,0.28,0.28,0.28,0.44,0.44,0.28,0.25,0.55,0.56,0.5,0.28,0.5,0.25,0.55,0.44,0.44,0.5,0.25,0.55,0.44,0.44,0.39,0.28,0.28,0.5,0.25,0.55,0.5,0.44,0.5,0.44,0.28,0.33,0.44,0.28,0.44,0.25,0.55,0.28,0.5,0.28,0.5,0.25,0.55,0.5,0.28,0.44,0.5,0.28,0.25,0.55,0.78,0.44,0.28,0.44,0.33,0.28,0.44,0.28,0.39,0.25" style="fill:rgb(0,0,0);font-family:STIX-Regular;font-size:10.0px;stroke:none;">and high diffusivity, the supercritical flui d ca n easil y penetrat e int o plan t materials </text>
   <text y="365.61" x="51.024,58.244,61.024,63.884,68.884,71.794,76.234,79.144,82.214,86.654,90.464,93.244,96.154,103.934,108.374,112.264,116.154,119.064,121.844,125.154,129.594,134.594,138.484,141.474,145.914,149.244,152.154,155.464,159.904,162.684,167.124,169.624,172.534,177.944,182.944,186.834,190.724,193.504,198.504,201.074,205.544,208.044,210.954,213.814,218.814,223.254,226.164,233.944,238.944,242.754,245.534,248.444,251.224,258.974,263.974,268.974,272.534,275.414,279.854,284.854,287.634,290.544,295.544,298.814,303.814,308.814,313.254,316.814,319.594,324.594,327.504,332.504,335.834,338.744,342.634,347.634,352.634,357.074,360.383,364.823,368.343,371.123,373.903,376.683,381.123,385.563,388.343" svgx:width="0.72,0.28,0.28,0.5,0.25,0.44,0.25,0.33,0.44,0.39,0.28,0.25,0.78,0.44,0.39,0.39,0.25,0.28,0.33,0.44,0.5,0.39,0.33,0.44,0.33,0.25,0.33,0.44,0.28,0.44,0.25,0.25,0.56,0.5,0.39,0.39,0.28,0.5,0.28,0.5,0.25,0.25,0.28,0.5,0.44,0.25,0.78,0.5,0.39,0.28,0.25,0.28,0.78,0.5,0.5,0.33,0.28,0.44,0.5,0.28,0.25,0.5,0.33,0.5,0.5,0.44,0.33,0.28,0.5,0.25,0.5,0.33,0.25,0.39,0.5,0.5,0.44,0.33,0.44,0.33,0.28,0.28,0.28,0.44,0.44,0.28,0.25" style="fill:rgb(0,0,0);font-family:STIX-Regular;font-size:10.0px;stroke:none;">with a fast mass transfer rate. Possibly, the most important property of supercritical </text>
   <text y="377.61" x="51.024,56.584,61.584,64.364,69.364,73.254,75.754,76.664,79.674,84.674,88.004,90.504,91.414,95.304,99.744,104.744,109.184,112.493,116.933,119.713,122.493,127.493,132.493,134.993,135.903,140.903,144.173,149.173,153.613,158.053,161.943,165.833,170.273,174.163,176.663,177.573,180.353,184.243,186.743,187.653,192.653,195.433,201.483,206.483,210.373,213.153,218.153,223.153,225.653,228.153,229.063,234.063,239.063,241.943,246.383,249.163,254.163,256.943,261.943,266.943,269.443,270.353,274.243,279.243,282.023,287.023,292.023,294.803,297.583,300.363,303.143,308.143,310.643,311.553,315.993,320.993,325.993,328.493,329.403,334.403,337.183,343.233,348.233,352.123,354.903,359.903,364.903,367.403,368.313,373.313,378.313,383.313,388.313" svgx:width="0.56,0.5,0.28,0.5,0.39,0.25,0.55,0.33,0.5,0.33,0.25,0.55,0.39,0.44,0.5,0.44,0.33,0.44,0.28,0.28,0.5,0.5,0.25,0.55,0.5,0.33,0.5,0.44,0.44,0.39,0.39,0.44,0.39,0.25,0.55,0.28,0.39,0.25,0.55,0.5,0.28,0.61,0.5,0.39,0.28,0.5,0.5,0.25,0.25,0.55,0.5,0.5,0.28,0.44,0.28,0.5,0.28,0.5,0.5,0.25,0.55,0.39,0.5,0.28,0.5,0.5,0.28,0.28,0.28,0.28,0.5,0.25,0.55,0.44,0.5,0.5,0.25,0.55,0.5,0.28,0.61,0.5,0.39,0.28,0.5,0.5,0.25,0.55,0.5,0.5,0.5,0.5,0.25" style="fill:rgb(0,0,0);font-family:STIX-Regular;font-size:10.0px;stroke:none;">fluids for separation processes is diffusion , obtainin g solubilit y an d diffusi on good </text>
   <text y="389.61" x="51.024,55.464,60.464,65.464,70.464,75.464,80.464,83.494,86.254,91.254,94.284,99.284,102.554,107.334,112.334,115.114,120.114,124.554,127.584,132.455,137.455,141.895,146.895,149.675,152.455,155.334,159.774,162.554,165.334,170.094,174.534,177.564,181.794,186.794,189.574,192.884,197.324,201.764,204.544,207.324,212.324,217.324,220.354,225.354,228.134,232.574,235.354,240.354,243.384" svgx:width="0.44,0.5,0.5,0.5,0.5,0.5,0.25,0.28,0.5,0.25,0.5,0.33,0.5,0.5,0.28,0.5,0.44,0.25,0.5,0.5,0.44,0.5,0.28,0.28,0.28,0.44,0.28,0.28,0.5,0.44,0.25,0.44,0.5,0.28,0.33,0.44,0.44,0.28,0.28,0.5,0.5,0.25,0.5,0.28,0.44,0.28,0.5,0.25,0.33" style="fill:rgb(0,0,0);font-family:STIX-Regular;font-size:10.0px;stroke:none;">enough to provide quantitative extraction yield [</text>
   <text y="389.61" x="246.714,251.714" svgx:width="0.5,0.5" style="fill:rgb(0,0,255);font-family:STIX-Regular;font-size:10.0px;stroke:none;">80</text>
   <text y="389.61" x="256.714,259.214" svgx:width="0.25,0.25" style="fill:rgb(0,0,0);font-family:STIX-Regular;font-size:10.0px;stroke:none;">, </text>
   <text y="389.61" x="262.224,267.224" svgx:width="0.5,0.5" style="fill:rgb(0,0,255);font-family:STIX-Regular;font-size:10.0px;stroke:none;">81</text>
   <text y="389.61" x="272.224,275.554,278.054,281.084,287.754,292.194,295.524,300.524,305.524,310.524,313.554,318.554,321.334,326.115,331.115,333.895,338.895,343.335,346.365,346.354,349.684,353.574,358.014,364.604" svgx:width="0.33,0.25,0.25,0.67,0.44,0.33,0.5,0.5,0.5,0.25,0.5,0.28,0.5,0.5,0.28,0.5,0.44,0.25,0.25,0.33,0.39,0.44,0.67,0.72" style="fill:rgb(0,0,0);font-family:STIX-Regular;font-size:10.0px;stroke:none;">]. Carbon dioxide (scCO</text>
   <text y="392.11" x="371.82" svgx:width="0.5" style="fill:rgb(0,0,0);font-family:STIX-Regular;font-size:7.0px;stroke:none;">2</text>
   <text y="389.61" x="375.32,378.65,381.68,384.46,388.35" svgx:width="0.33,0.25,0.28,0.39,0.25" style="fill:rgb(0,0,0);font-family:STIX-Regular;font-size:10.0px;stroke:none;">) is </text>
   <text y="401.61" x="51.02,53.88,58.88,63.32,65.82,66.7,72.26,77.26,80.04,85.04,87.54,88.42,96.2,101.2,105.01,107.79,110.29,111.17,118.39,121.17,126.17,130.61,133.18,138.18,140.68,141.56,146.56,150.45,154.89,159.89,162.39,163.27,166.28,171.28,174.61,177.11,177.99,182.22,187.22,190.0,193.31,197.75,202.19,204.97,207.75,212.75,217.75,221.64,224.14,226.64,227.52,234.74,237.52,240.38,245.38,247.88,248.76,253.2,256.719,259.499,262.279,265.059,269.499,273.939,276.719,279.219,280.099,285.099,289.539,292.849,297.289,305.069,309.419,312.199,316.639,319.969,323.859,326.359,327.239,332.239,335.569,338.069,338.949,343.949,348.949,351.449,356.449,358.949,359.83,363.83,370.5,373.0,373.88,378.32,383.32,388.32" svgx:width="0.28,0.5,0.44,0.25,0.55,0.56,0.5,0.28,0.5,0.25,0.55,0.78,0.5,0.39,0.28,0.25,0.55,0.72,0.28,0.5,0.44,0.28,0.5,0.25,0.55,0.5,0.39,0.44,0.5,0.25,0.55,0.33,0.5,0.33,0.25,0.55,0.44,0.5,0.28,0.33,0.44,0.44,0.28,0.28,0.5,0.5,0.39,0.25,0.25,0.55,0.72,0.28,0.28,0.5,0.25,0.55,0.44,0.33,0.28,0.28,0.28,0.44,0.44,0.28,0.25,0.55,0.5,0.44,0.33,0.44,0.78,0.44,0.28,0.44,0.33,0.39,0.25,0.55,0.5,0.33,0.25,0.55,0.5,0.5,0.25,0.5,0.25,0.55,0.4,0.67,0.25,0.55,0.44,0.5,0.5,0.25" style="fill:rgb(0,0,0);font-family:STIX-Regular;font-size:10.0px;stroke:none;">the fluid most widely used for extractions, with critical parameters of 31.1  °C and </text>
   <text y="413.61" x="51.02,56.02,61.02,64.064,68.504,71.284,79.064,82.104,85.434,90.434,92.934,97.934,102.934,105.979,114.869,120.338,124.778,128.108,130.608,133.648,138.088,140.868,143.908,147.218,151.658,154.438,158.878,161.658,164.438,169.197,173.637,176.207,181.207,184.247,187.027,191.807,199.027,202.067,207.067,212.067,216.507,219.817,224.257,227.037,229.817,234.817,239.817,242.857,247.297,252.297,257.297,262.297,265.077,267.857,270.637,275.637,280.637,284.527,287.027,290.067,293.397,296.177,299.217,304.217,308.657,313.657,317.777,322.537,326.977,330.867,333.907,338.347,342.237,345.277,349.717,352.757,357.757,362.757,367.747,372.747,377.747,380.527,384.967,388.297" svgx:width="0.5,0.5,0.25,0.44,0.28,0.78,0.25,0.33,0.5,0.25,0.5,0.5,0.25,0.89,0.56,0.44,0.33,0.25,0.25,0.44,0.28,0.25,0.33,0.44,0.28,0.44,0.28,0.28,0.5,0.44,0.28,0.5,0.25,0.28,0.5,0.72,0.25,0.5,0.5,0.44,0.33,0.44,0.28,0.28,0.5,0.5,0.25,0.44,0.5,0.5,0.5,0.28,0.28,0.28,0.5,0.5,0.39,0.25,0.25,0.33,0.28,0.25,0.5,0.44,0.5,0.44,0.5,0.44,0.39,0.25,0.44,0.39,0.25,0.44,0.25,0.5,0.5,0.5,0.5,0.5,0.28,0.44,0.33,0.25" style="fill:rgb(0,0,0);font-family:STIX-Regular;font-size:10.0px;stroke:none;">73 atm (7.39 MPa), at relatively low operating conditions. It behaves as a nonpolar </text>
   <text y="425.61" x="51.02,56.02,59.35,61.85,63.13,68.13,73.13,75.91,80.35,83.869,86.649,91.089,95.529,100.529,103.309,107.749,110.249,111.529,115.419,120.419,122.989,127.749,132.189,137.189,139.969,142.469,143.749,148.189,153.189,158.189,160.689,161.969,164.749,169.529,176.749,179.249,180.529,188.309,193.309,196.089,200.529,203.859,206.359,207.639,215.419,219.859,223.749,227.639,230.139,231.419,235.859,238.639,243.079,248.079,253.079,258.079,260.859,264.749,267.249,268.529,271.859,276.299,281.299,284.629,288.519,293.519,296.088,300.849,305.289,310.289,313.069,316.959,320.289,322.789,324.069,328.509,331.819,336.259,338.759,340.039,345.039,348.469,351.249,355.689,360.689,363.189,364.469,368.909,373.909,378.909,383.349,388.349" svgx:width="0.5,0.33,0.25,0.55,0.5,0.5,0.28,0.44,0.33,0.28,0.44,0.44,0.5,0.28,0.44,0.25,0.55,0.39,0.5,0.28,0.5,0.44,0.5,0.28,0.25,0.55,0.44,0.5,0.5,0.25,0.55,0.28,0.5,0.72,0.25,0.55,0.78,0.5,0.28,0.44,0.33,0.25,0.55,0.78,0.44,0.39,0.39,0.25,0.55,0.44,0.28,0.44,0.5,0.5,0.5,0.28,0.39,0.25,0.55,0.33,0.44,0.5,0.33,0.39,0.5,0.28,0.5,0.44,0.5,0.28,0.39,0.33,0.25,0.55,0.44,0.33,0.44,0.25,0.55,0.5,0.33,0.28,0.44,0.5,0.25,0.55,0.44,0.5,0.5,0.44,0.5,0.25" style="fill:rgb(0,0,0);font-family:STIX-Regular;font-size:10.0px;stroke:none;">or polarizable solvent and low molar mass alcohols (co-solvents) are often added </text>
   <text y="437.61" x="51.02,53.8,58.8,61.3,62.55,66.44,74.22,78.66,81.44,84.22,86.72,87.97,92.84,97.84,102.28,107.28,110.06,112.84,115.62,118.4,122.84,126.73,129.23000000000002,130.48,133.24,138.24,140.74,141.99,149.77,154.77,159.77,162.55,165.88,170.88,173.38,174.63,177.49,182.49,186.93,189.43,190.68,194.57,199.57,202.14,206.9,211.34,216.34,219.12,221.62,222.87,227.87,232.87,235.65,240.09,243.61,246.39,249.17,253.46,255.96,258.46000000000004,259.71,266.38,270.82,275.26,279.7,284.7,288.59,293.03,295.53,296.78,301.22,305.66,308.99,313.99,318.99,323.99,326.49,327.74,332.74,335.52,340.301,345.301,348.081,353.081,357.521,360.021,361.271,365.711,370.151,375.151,377.651,378.901,383.901,388.341" svgx:width="0.28,0.5,0.25,0.55,0.39,0.78,0.44,0.28,0.28,0.25,0.55,0.5,0.5,0.44,0.5,0.28,0.28,0.28,0.28,0.44,0.39,0.25,0.55,0.28,0.5,0.25,0.55,0.78,0.5,0.5,0.28,0.33,0.5,0.25,0.55,0.28,0.5,0.44,0.25,0.55,0.39,0.5,0.28,0.5,0.44,0.5,0.28,0.25,0.55,0.5,0.5,0.28,0.44,0.33,0.28,0.28,0.5,0.25,0.25,0.55,0.67,0.44,0.44,0.44,0.5,0.39,0.44,0.25,0.55,0.44,0.44,0.33,0.5,0.5,0.5,0.25,0.55,0.5,0.28,0.5,0.5,0.28,0.5,0.44,0.25,0.55,0.44,0.44,0.5,0.25,0.55,0.5,0.44,0.25" style="fill:rgb(0,0,0);font-family:STIX-Regular;font-size:10.0px;stroke:none;">in small quantities to modify the solvent polarity. Because carbon dioxide can be </text>
   <text y="449.61" x="51.02,56.02,60.46,65.46,68.77,73.21,77.1,80.99,85.99,89.509,92.289,96.729,101.169,106.169,108.669,109.859,112.619,117.619,120.119,121.309,124.169,129.169,133.609,136.109,137.299,142.189,146.629,150.519,154.959,159.959,164.959,168.849,171.349,172.539,176.349,179.229,183.669,186.449,190.889,193.389,195.889,197.079,199.939,204.939,209.379,211.879,213.069,216.959,221.959,224.529,229.289,233.729,238.729,241.509,244.009,245.199,247.979,251.869,254.369,255.559,259.999,264.439,268.329,271.109,273.679,278.679,281.179,282.369,285.679,290.119,297.899,302.679,307.439,311.879,316.879,319.379,320.569,325.009,330.009,335.009,337.509,338.699,342.589,347.589,352.589,357.029,360.339,364.779,368.299,371.079,373.859,376.639,381.079,385.519,388.299" svgx:width="0.5,0.44,0.5,0.33,0.44,0.39,0.39,0.5,0.33,0.28,0.44,0.44,0.5,0.25,0.55,0.28,0.5,0.25,0.55,0.28,0.5,0.44,0.25,0.55,0.5,0.44,0.39,0.44,0.5,0.5,0.39,0.25,0.55,0.39,0.28,0.44,0.28,0.44,0.25,0.25,0.55,0.28,0.5,0.44,0.25,0.55,0.39,0.5,0.28,0.5,0.44,0.5,0.28,0.25,0.55,0.28,0.39,0.25,0.55,0.44,0.44,0.39,0.28,0.28,0.5,0.25,0.55,0.33,0.44,0.78,0.5,0.5,0.44,0.5,0.25,0.55,0.44,0.5,0.5,0.25,0.55,0.39,0.5,0.5,0.44,0.33,0.44,0.33,0.28,0.28,0.28,0.44,0.44,0.28,0.25" style="fill:rgb(0,0,0);font-family:STIX-Regular;font-size:10.0px;stroke:none;">depressurized to the gaseous state, the solvent is easily removed and supercritical </text>
   <text y="461.61" x="51.02,56.58,61.58,64.36,69.36,72.69,77.69,82.13,86.02,90.46,95.46,98.55,102.44,106.88,111.88,116.32,119.629,124.069,126.849,129.629,134.629,139.629,142.719,150.499,154.849,157.709,162.709,167.709,172.709,176.599,179.689,184.129,187.439,191.879,194.969,199.409,203.849,207.739,210.519,213.089,218.089,221.179,225.619,230.619,235.619,240.619,243.399,247.839,252.839,255.929,263.149,265.929,268.789,273.789,276.879,280.769,285.769,290.769,294.659,299.099,303.969,308.969,313.409,318.409,321.189,324.279,328.719,333.719,338.159,340.729,345.599,349.489,352.269,356.159,358.659,361.749,367.859,372.859,377.299,380.609,385.049" svgx:width="0.56,0.5,0.28,0.5,0.33,0.5,0.44,0.39,0.44,0.5,0.25,0.39,0.44,0.5,0.44,0.33,0.44,0.28,0.28,0.5,0.5,0.25,0.78,0.44,0.28,0.5,0.5,0.5,0.39,0.25,0.44,0.33,0.44,0.25,0.44,0.44,0.39,0.28,0.28,0.5,0.25,0.44,0.5,0.5,0.5,0.28,0.44,0.5,0.25,0.72,0.28,0.28,0.5,0.25,0.39,0.5,0.5,0.39,0.44,0.5,0.5,0.44,0.5,0.28,0.25,0.44,0.5,0.44,0.28,0.5,0.39,0.28,0.39,0.25,0.25,0.61,0.5,0.44,0.33,0.44,0.33" style="fill:rgb(0,0,0);font-family:STIX-Regular;font-size:10.0px;stroke:none;">fluid-based separation methods are easily coupled with subsequent analysis. There-</text>
   <text y="473.61" x="51.02,54.03,59.03,62.34,66.78,69.28,72.06,72.06,75.95,80.39,86.98" svgx:width="0.33,0.5,0.33,0.44,0.25,0.25,0.25,0.39,0.44,0.67,0.72" style="fill:rgb(0,0,0);font-family:STIX-Regular;font-size:10.0px;stroke:none;">fore, scCO</text>
   <text y="476.11" x="94.199" svgx:width="0.5" style="fill:rgb(0,0,0);font-family:STIX-Regular;font-size:7.0px;stroke:none;">2</text>
   <text y="473.61" x="97.699,100.479,105.479,108.749,113.529,118.529,121.309,126.309,130.749,134.639,137.419,145.199,147.979,151.869,156.309,159.089,164.089,166.869,169.649,172.429,175.209,180.209,182.984,185.745,190.745,193.52,196.38,201.38,205.82,208.6,216.38,220.74,223.52,228.52,232.04,234.82,237.6,242.6,245.38,250.38,253.71,256.49,261.49,265.93,268.71,273.71,277.02,281.46,284.24,287.015,292.015,295.285,300.285,305.285,310.285,314.725,317.505,321.395,323.895,326.675,330.795,335.595,340.035,342.815,345.595,350.035,355.035,357.815,360.595,363.375,366.155,371.155,373.935,378.375,383.375,388.375" svgx:width="0.25,0.5,0.33,0.5,0.5,0.28,0.5,0.44,0.39,0.25,0.78,0.28,0.39,0.44,0.28,0.5,0.28,0.28,0.28,0.28,0.5,0.25,0.28,0.5,0.25,0.28,0.5,0.44,0.25,0.78,0.44,0.28,0.5,0.33,0.28,0.28,0.5,0.25,0.5,0.33,0.25,0.5,0.44,0.28,0.5,0.33,0.44,0.28,0.25,0.5,0.33,0.5,0.5,0.5,0.44,0.28,0.39,0.25,0.25,0.44,0.5,0.44,0.28,0.28,0.44,0.5,0.28,0.28,0.28,0.28,0.5,0.25,0.44,0.5,0.5,0.25" style="fill:rgb(0,0,0);font-family:STIX-Regular;font-size:10.0px;stroke:none;"> provides miscibility to the majority of natural products, availability and </text>
   <text y="485.61" x="51.019,53.799,58.579,65.799,68.299,70.149,74.589,79.589,83.398,86.178,88.678,91.178,93.028,96.338,100.778,103.558,106.338,110.778,115.778,118.348,123.348,125.848,127.698,132.698,135.478,140.478,145.478,147.978,149.828,154.828,159.828,163.348,166.128,168.908,173.378,175.878,178.378,180.228,185.228,189.668,194.647,197.427,200.207,205.207,207.987,212.987,215.767,220.207,222.707,224.557,227.317,232.097,237.097,239.877,244.317,247.097,249.877,254.347,256.847,259.347,261.197,264.267,268.707,273.147,275.927,278.707,281.487,284.267,289.267,291.767,293.617,296.627,301.627,304.957,307.457,309.307,312.616,317.056,324.836,329.617,334.417,338.857,341.637,344.137,345.987,350.427,355.427,360.427,362.927,364.777,368.086,372.526,377.526,381.416,385.856,388.356" svgx:width="0.28,0.5,0.72,0.25,0.55,0.44,0.5,0.39,0.28,0.25,0.25,0.55,0.33,0.44,0.28,0.28,0.44,0.5,0.28,0.5,0.25,0.55,0.5,0.28,0.5,0.5,0.25,0.55,0.5,0.5,0.33,0.28,0.28,0.5,0.25,0.25,0.55,0.5,0.44,0.5,0.28,0.28,0.5,0.28,0.5,0.28,0.44,0.25,0.55,0.28,0.5,0.5,0.28,0.44,0.28,0.28,0.5,0.25,0.25,0.55,0.33,0.44,0.44,0.28,0.28,0.28,0.28,0.5,0.25,0.55,0.33,0.5,0.33,0.25,0.55,0.33,0.44,0.78,0.5,0.5,0.44,0.28,0.25,0.55,0.44,0.5,0.5,0.25,0.55,0.33,0.44,0.5,0.39,0.44,0.25,0.25" style="fill:rgb(0,0,0);font-family:STIX-Regular;font-size:10.0px;stroke:none;">low cost, reliably high purity, negligible toxicity, facility for removal and reuse, </text>
   <text y="497.61" x="51.019,54.329,58.769,62.659,67.659,70.439,73.219,75.999,80.999,85.999,88.869,91.649,96.649,99.519,107.299,111.739,116.499,121.499,124.369,128.809,133.809,138.609,143.049,148.049,150.929,155.369,160.219,164.659,168.549,171.419,174.429,179.429,182.759,185.629,190.629,195.409,202.629,207.629,211.439,214.219,217.529,221.969,226.409,234.189,237.059,242.059,245.329,250.329,254.769,259.209,263.099,266.989,269.769,274.769,279.769,282.639,285.419,290.419,293.289,296.069,300.509,304.038,311.818,315.708,318.578,323.578,326.908,329.778,334.778,338.048,343.048,348.048,353.048,357.488,360.268,363.138,368.138,373.138,376.658,379.438,385.018" svgx:width="0.33,0.44,0.39,0.5,0.28,0.28,0.28,0.5,0.5,0.25,0.28,0.5,0.25,0.78,0.44,0.5,0.5,0.25,0.44,0.5,0.5,0.44,0.5,0.28,0.44,0.5,0.44,0.39,0.25,0.33,0.5,0.33,0.25,0.5,0.5,0.72,0.5,0.39,0.28,0.33,0.44,0.44,0.78,0.25,0.5,0.33,0.5,0.44,0.44,0.39,0.39,0.28,0.5,0.5,0.25,0.28,0.5,0.25,0.28,0.44,0.33,0.78,0.39,0.25,0.5,0.33,0.25,0.5,0.33,0.5,0.5,0.5,0.44,0.28,0.25,0.5,0.5,0.33,0.28,0.56,0.33" style="fill:rgb(0,0,0);font-family:STIX-Regular;font-size:10.0px;stroke:none;">resulting in many advantages for downstream processing in terms of product purifi-</text>
   <text y="509.61" x="51.019,55.459,59.899,62.679,65.459,70.459,75.459,77.959,82.399,87.399,92.399,95.179,100.179,103.509,106.009,110.449,114.889,117.768,122.208,124.778,129.648,133.458,136.238,138.738,142.048,146.488,150.928,155.778,160.218,162.998,165.778,170.778,175.778,178.278" svgx:width="0.44,0.44,0.28,0.28,0.5,0.5,0.25,0.44,0.5,0.5,0.28,0.5,0.33,0.25,0.44,0.44,0.28,0.44,0.28,0.5,0.39,0.28,0.25,0.33,0.44,0.44,0.5,0.44,0.28,0.28,0.5,0.5,0.25,0.33" style="fill:rgb(0,0,0);font-family:STIX-Regular;font-size:10.0px;stroke:none;">cation and/or catalyst recycling [</text>
   <text y="509.61" x="181.608,186.608" svgx:width="0.5,0.5" style="fill:rgb(0,0,255);font-family:STIX-Regular;font-size:10.0px;stroke:none;">80</text>
   <text y="509.61" x="191.608,194.938" svgx:width="0.33,0.25" style="fill:rgb(0,0,0);font-family:STIX-Regular;font-size:10.0px;stroke:none;">].</text>
   <text y="521.61" x="62.359,68.469,73.469,77.909,80.409,81.779,86.219,91.219,96.219,99.489,104.489,108.929,113.209,118.209,120.709,122.079,127.079,130.969,133.749,138.749,143.749,146.249,147.619,147.629,151.519,155.959,162.549" svgx:width="0.61,0.5,0.44,0.25,0.55,0.44,0.5,0.5,0.33,0.5,0.44,0.44,0.5,0.25,0.55,0.5,0.39,0.28,0.5,0.5,0.25,0.55,0.25,0.39,0.44,0.67,0.72" style="fill:rgb(0,0,0);font-family:STIX-Regular;font-size:10.0px;stroke:none;">The approach using scCO</text>
   <text y="524.11" x="169.768" svgx:width="0.5" style="fill:rgb(0,0,0);font-family:STIX-Regular;font-size:7.0px;stroke:none;">2</text>
   <text y="521.61" x="173.268,175.768,177.138,182.138,186.578,190.468,192.968,194.338,199.338,203.778,208.218,213.218,215.718,217.088,224.308,227.088,232.088,236.528,239.098,244.098,246.598,247.968,252.968,256.858,261.298,266.298,268.798,270.168,273.178,278.178,281.508,284.008,285.378,288.158,292.048,297.048,299.828,304.268,307.048,309.828,314.828,319.828,322.328,323.698,328.138,333.138,338.138,340.638,342.008,347.008,352.008,355.528,358.308,363.888,368.328,372.768,375.548,378.328,383.328,388.328" svgx:width="0.25,0.55,0.5,0.44,0.39,0.25,0.55,0.5,0.44,0.44,0.5,0.25,0.55,0.72,0.28,0.5,0.44,0.28,0.5,0.25,0.55,0.5,0.39,0.44,0.5,0.25,0.55,0.33,0.5,0.33,0.25,0.55,0.28,0.39,0.5,0.28,0.44,0.28,0.28,0.5,0.5,0.25,0.55,0.44,0.5,0.5,0.25,0.55,0.5,0.5,0.33,0.28,0.56,0.44,0.44,0.28,0.28,0.5,0.5,0.25" style="fill:rgb(0,0,0);font-family:STIX-Regular;font-size:10.0px;stroke:none;"> has been widely used for isolation and purification </text>
   <text y="533.61" x="51.028,56.028,59.358,61.858,63.428,67.708,72.708,75.488,80.488,83.758,88.758,93.758,98.559,103.379,106.159,108.938,112.828,115.328,117.828,119.398,123.839,128.279,131.548,136.469,139.249,143.689,148.689,153.689,156.469,161.469,165.359,167.859,170.359,171.929,174.709,177.489,182.489,185.269,190.269,194.159,196.659,199.159,200.729,205.169,207.949,212.959,217.399,220.179,225.179,227.959,232.959,236.849,239.349,241.849,243.419,247.859,252.859,255.639,258.419,263.199,268.199,270.979,275.979,280.419,285.419,288.199,292.089,294.589,296.159,299.489,302.759,307.759,315.539,318.039,319.609,327.389,331.829,334.609,338.129,340.909,345.349,349.789,353.679,356.179,357.749,361.639,366.639,370.919,375.919,378.419,379.989,384.429,388.319" svgx:width="0.5,0.33,0.25,0.55,0.44,0.5,0.28,0.5,0.33,0.5,0.5,0.5,0.5,0.28,0.28,0.39,0.25,0.25,0.55,0.44,0.44,0.33,0.5,0.28,0.44,0.5,0.5,0.28,0.5,0.39,0.25,0.25,0.55,0.28,0.28,0.5,0.28,0.5,0.39,0.25,0.25,0.55,0.44,0.28,0.5,0.44,0.28,0.5,0.28,0.5,0.39,0.25,0.25,0.55,0.44,0.5,0.28,0.28,0.5,0.5,0.28,0.5,0.44,0.5,0.28,0.39,0.25,0.55,0.33,0.33,0.5,0.78,0.25,0.55,0.78,0.44,0.28,0.33,0.28,0.44,0.44,0.39,0.25,0.55,0.39,0.5,0.44,0.5,0.25,0.55,0.44,0.39,0.25" style="fill:rgb(0,0,0);font-family:STIX-Regular;font-size:10.0px;stroke:none;">of chlorophylls, carotenoids, lipids, alkaloids, antioxidants from matrices such as </text>
   <text y="545.61" x="51.028,56.608,59.388,62.168,66.608,69.938,72.438,73.203,75.983,80.424,84.864,87.364,89.864,90.629,94.519,99.519,103.089,108.089,112.529,116.969,119.469,120.234,125.234,129.674,132.934,137.982,140.482,142.982,143.753,146.512,151.512,159.292,163.732,166.492,171.492,173.992,174.757,179.197,184.197,189.197,191.697,192.462,196.902,199.682,204.682,209.122,212.452,217.452,221.893,225.482,229.022,234.022,236.522,237.287,242.287,247.287,255.067,259.507,263.947,268.387,270.887,273.387,274.151,279.251,282.561,287.001,292.001,296.441,298.941,301.441,302.206,307.206,311.646,315.536,319.427,322.207,327.767,332.767,336.077,340.517,343.017,345.517,346.281,350.721,355.721,361.771,366.211,370.651,373.151,373.916,378.356,383.356,388.356" svgx:width="0.56,0.28,0.28,0.44,0.33,0.25,0.55,0.28,0.44,0.44,0.25,0.25,0.55,0.39,0.5,0.33,0.5,0.44,0.44,0.25,0.55,0.5,0.44,0.33,0.5,0.25,0.25,0.55,0.28,0.5,0.78,0.44,0.28,0.5,0.25,0.55,0.44,0.5,0.5,0.25,0.55,0.44,0.28,0.5,0.44,0.33,0.5,0.44,0.33,0.33,0.5,0.25,0.55,0.5,0.5,0.78,0.44,0.44,0.44,0.25,0.25,0.55,0.5,0.33,0.44,0.5,0.44,0.25,0.25,0.55,0.5,0.44,0.39,0.39,0.28,0.56,0.5,0.33,0.44,0.25,0.25,0.55,0.44,0.5,0.61,0.44,0.44,0.25,0.55,0.44,0.5,0.5,0.25" style="fill:rgb(0,0,0);font-family:STIX-Regular;font-size:10.0px;stroke:none;">filter tea, spruce bark, tomato and elderberry pomace, grape, passiflora , coff ee and </text>
   <text y="557.61" x="51.028,55.468,60.468,65.468,70.468,74.908,78.798,82.688,87.688,90.712,94.602,99.042,103.482,108.482,111.507,118.447,122.887,126.697,129.477,133.917,136.941" svgx:width="0.44,0.5,0.5,0.5,0.44,0.39,0.39,0.5,0.25,0.39,0.44,0.44,0.5,0.25,0.72,0.44,0.39,0.28,0.44,0.25,0.33" style="fill:rgb(0,0,0);font-family:STIX-Regular;font-size:10.0px;stroke:none;">cupuassu seed waste [</text>
   <text y="557.61" x="140.271,145.271" svgx:width="0.5,0.5" style="fill:rgb(0,0,255);font-family:STIX-Regular;font-size:10.0px;stroke:none;">82</text>
   <text y="557.61" x="150.271" svgx:width="0.5" style="fill:rgb(0,0,0);font-family:STIX-Regular;font-size:10.0px;stroke:none;">–</text>
   <text y="557.61" x="155.271,160.271" svgx:width="0.5,0.5" style="fill:rgb(0,0,255);font-family:STIX-Regular;font-size:10.0px;stroke:none;">99</text>
   <text y="557.61" x="165.271,168.602,171.102,174.126,177.456,182.456,185.48,189.921,194.921,199.921,202.701,205.48,208.26,213.26,218.26,221.285,224.045,229.045,232.069,234.929,239.929,244.369,247.394,252.394,257.384,260.164,262.944,270.724,273.504,277.944,282.384,285.164,287.944,292.944,297.944,300.968,305.968,309.298,312.323,315.183,320.183,324.623,327.648,331.538,335.978,340.978,345.418,348.727,353.167,355.947,358.727,363.727,368.727,371.752,376.752,380.022,385.022" svgx:width="0.33,0.25,0.25,0.33,0.5,0.25,0.44,0.5,0.5,0.28,0.28,0.28,0.5,0.5,0.25,0.28,0.5,0.25,0.28,0.5,0.44,0.25,0.5,0.5,0.28,0.28,0.78,0.28,0.44,0.44,0.28,0.28,0.5,0.5,0.25,0.5,0.33,0.25,0.28,0.5,0.44,0.25,0.39,0.44,0.5,0.44,0.33,0.44,0.28,0.28,0.5,0.5,0.25,0.5,0.33,0.5,0.33" style="fill:rgb(0,0,0);font-family:STIX-Regular;font-size:10.0px;stroke:none;">]. In addition to the optimization of the separation pro-</text>
   <text y="569.61" x="51.028,55.468,59.908,63.798,67.688,70.188,73.088,76.978,81.978,89.758,94.198,97.098,100.908,103.688,108.688,113.688,116.468,120.908,124.798,127.698,132.138,134.918,138.808,143.808,146.708,151.148,153.928,161.708,164.608,167.368,172.368,175.268,179.518,184.318,188.758,191.538,196.538,200.978,203.758,208.198,211.098,213.958,218.958,223.398,226.298,229.078,233.518,237.798,242.798,247.798,252.798,256.128,260.568,265.008,270.008,275.008,280.008,287.788,290.568,295.008,297.908,302.908,305.688,310.128,315.128,317.908,320.688,323.468,326.248,331.248,334.148,339.148,342.478,345.378,348.158,352.598,355.768,360.618,365.058,368.388,372.278,376.718,381.158,383.938,388.378" svgx:width="0.44,0.44,0.39,0.39,0.25,0.25,0.39,0.5,0.78,0.44,0.25,0.39,0.28,0.5,0.5,0.28,0.44,0.39,0.25,0.44,0.28,0.39,0.5,0.25,0.44,0.28,0.78,0.25,0.28,0.5,0.25,0.44,0.5,0.44,0.28,0.5,0.44,0.28,0.44,0.25,0.28,0.5,0.44,0.25,0.28,0.44,0.44,0.5,0.5,0.5,0.33,0.44,0.44,0.5,0.5,0.5,0.78,0.28,0.44,0.25,0.5,0.28,0.44,0.5,0.28,0.28,0.28,0.28,0.5,0.25,0.5,0.33,0.25,0.28,0.44,0.33,0.5,0.44,0.33,0.39,0.44,0.44,0.28,0.44,0.25" style="fill:rgb(0,0,0);font-family:STIX-Regular;font-size:10.0px;stroke:none;">cess, some studies also aim to evaluate the techno-economic viability of large-scale </text>
   <text y="581.61" x="51.028,55.468,60.468,68.248,76.028,80.468,83.779,88.219,90.999,95.439,98.219,100.719,102.023,107.023,110.293,115.293,120.293,125.293,129.733,132.513,135.293,140.293,145.293,147.793,150.293,151.598,154.607,159.607,162.938,165.438,166.742,170.972,175.862,180.302,188.052,193.052,195.832,200.272,202.772,205.272,206.577,209.337,214.337,216.837,218.142,223.142,228.142,231.022,235.462,238.242,243.242,245.742,247.047,251.487,256.487,261.487,266.487,270.927,274.818,278.708,283.708,286.208,287.513,292.513,297.513,300.293,303.073,307.513,310.842,313.342,314.647,317.977,321.247,326.247,334.027,336.527,337.832,342.272,347.272,350.052,355.052,358.382,363.382,366.692,371.132,375.022,378.912,383.352,388.352" svgx:width="0.44,0.5,0.78,0.78,0.44,0.33,0.44,0.28,0.44,0.28,0.25,0.55,0.5,0.33,0.5,0.5,0.5,0.44,0.28,0.28,0.5,0.5,0.25,0.25,0.55,0.33,0.5,0.33,0.25,0.55,0.44,0.5,0.44,0.78,0.5,0.28,0.44,0.25,0.25,0.55,0.28,0.5,0.25,0.55,0.5,0.5,0.28,0.44,0.28,0.5,0.25,0.55,0.44,0.5,0.5,0.5,0.44,0.39,0.39,0.5,0.25,0.55,0.5,0.5,0.28,0.28,0.44,0.33,0.25,0.55,0.33,0.33,0.5,0.78,0.25,0.55,0.44,0.5,0.28,0.5,0.33,0.5,0.33,0.44,0.39,0.39,0.44,0.5,0.25" style="fill:rgb(0,0,0);font-family:STIX-Regular;font-size:10.0px;stroke:none;">commercial production, for example, to obtain cupuassu butter from cold-pressed </text>
   <text y="593.61" x="51.028,54.918,59.358,63.798,68.798,71.688,74.998,79.438,83.328,86.108,91.108,96.108,100.549,104.438,106.938,109.828,114.269,117.049,120.938,125.938,128.829,133.079,137.879,142.319,145.099,150.099,154.539,157.319,160.099,165.099,170.099,172.989,175.849,180.849,185.289,188.179,190.959,195.959,201.519,206.519,210.959,215.959,220.399,224.839,227.729,232.729,236.059,238.949,241.809,246.809,251.249,254.779,262.559,267.559,272.559,277.559,282.559,286.999,294.779,297.559,301.999,304.889,309.329,314.329,319.329,322.219,327.219,329.999,334.999,339.349,342.129,344.909,349.349,352.239,357.039,361.479,364.999,367.779,372.219,377.219,379.999,384.439,388.329" svgx:width="0.39,0.44,0.44,0.5,0.25,0.33,0.44,0.39,0.28,0.5,0.5,0.44,0.39,0.25,0.25,0.44,0.28,0.39,0.5,0.25,0.44,0.5,0.44,0.28,0.5,0.44,0.28,0.28,0.5,0.5,0.25,0.28,0.5,0.44,0.25,0.28,0.5,0.56,0.5,0.44,0.5,0.44,0.44,0.25,0.5,0.33,0.25,0.28,0.5,0.44,0.33,0.78,0.5,0.5,0.5,0.5,0.44,0.78,0.28,0.44,0.25,0.44,0.5,0.5,0.25,0.5,0.28,0.5,0.44,0.28,0.28,0.44,0.25,0.5,0.44,0.33,0.28,0.44,0.5,0.28,0.44,0.39,0.25" style="fill:rgb(0,0,0);font-family:STIX-Regular;font-size:10.0px;stroke:none;">seed residues, also evaluating the influence of thermodynamic and kinetic variables </text>
   <text y="605.61" x="51.028,56.028,59.358,61.858,62.998,67.998,70.778,75.218,77.998,82.998,85.498,87.998,89.138,93.418,98.418,102.858,110.638,113.418,117.858,122.299,125.078,127.578,128.719,133.159,138.159,145.909,150.909,155.909,159.799,162.579,165.359,168.139,173.139,178.139,180.639,181.779,186.219,191.219,196.219,198.719,199.859,204.859,208.129,213.129,218.129,223.129,227.569,230.349,233.129,238.129,243.129,245.629,246.769,251.209,256.208,260.019,262.799,266.689,269.189,270.329,275.329,278.659,281.159,282.299,285.159,290.159,294.599,297.099,298.239,302.469,307.469,310.249,313.559,317.999,322.439,325.219,329.109,331.609,332.749" svgx:width="0.5,0.33,0.25,0.55,0.5,0.28,0.44,0.28,0.5,0.25,0.25,0.55,0.44,0.5,0.44,0.78,0.28,0.44,0.44,0.28,0.25,0.55,0.44,0.5,0.78,0.5,0.5,0.39,0.28,0.28,0.28,0.5,0.5,0.25,0.55,0.44,0.5,0.5,0.25,0.55,0.5,0.33,0.5,0.5,0.5,0.44,0.28,0.28,0.5,0.5,0.25,0.55,0.44,0.5,0.39,0.28,0.39,0.25,0.55,0.5,0.33,0.25,0.55,0.28,0.5,0.44,0.25,0.55,0.44,0.5,0.28,0.33,0.44,0.44,0.28,0.39,0.25,0.55,0.33" style="fill:rgb(0,0,0);font-family:STIX-Regular;font-size:10.0px;stroke:none;">of yield, chemical composition and production costs of the extracts [</text>
   <text y="605.61" x="336.079,341.079" svgx:width="0.5,0.5" style="fill:rgb(0,0,255);font-family:STIX-Regular;font-size:10.0px;stroke:none;">86</text>
   <text y="605.61" x="346.079,349.409,351.909,354.409,355.549,362.769,367.759,370.539,373.319,381.099,385.539,388.319" svgx:width="0.33,0.25,0.25,0.55,0.72,0.5,0.28,0.28,0.78,0.44,0.28,0.25" style="fill:rgb(0,0,0);font-family:STIX-Regular;font-size:10.0px;stroke:none;">]. Optimal </text>
  </g>
 </g>
</svg>
