<?xml version="1.0" encoding="UTF-8"?>
<svg height="643.058" width="400.889" xmlns="http://www.w3.org/2000/svg">
 <g id="page" xmlns:svgx="http://www.xml-cml.org/schema/svgx">
  <path style="fill:none;stroke:rgb(0,0,0);stroke-width:1.0;" d="M51.020 45.930 L388.350 45.930 "/>
  <g begin="text">
   <text y="633.058" x="347.754,354.864,359.109" svgx:width="0.47,0.28,1.97" style="fill:rgb(0,0,0);font-family:Springnew-Regular;font-size:15.0px;stroke:none;">1 3</text>
  </g>
  <g begin="text">
   <text y="39.057" x="51.024,55.656,59.656,63.656,65.656,70.992,74.992,77.864,80.528,82.528,87.864,91.864,95.416,101.64,103.64,106.304,111.2,113.864,115.864,118.528,122.528,126.528,130.528,134.528,137.192,139.192,143.192,147.192,151.192,153.416" svgx:width="0.61,0.5,0.5,0.25,0.67,0.5,0.33,0.33,0.25,0.67,0.5,0.44,0.78,0.25,0.33,0.61,0.33,0.25,0.33,0.5,0.5,0.5,0.5,0.33,0.25,0.5,0.5,0.5,0.28,0.5" style="fill:rgb(0,0,0);font-family:STIX-Regular;font-size:8.0px;stroke:none;">Top Curr Chem (Z) (2018) 376:3</text>
   <text y="39.697" x="332.32,336.696,340.248,344.128,347.68,349.68,353.68,357.68,359.68,363.68,366.344,368.344,372.344,376.344" svgx:width="0.56,0.44,0.5,0.44,0.25,0.5,0.5,0.25,0.5,0.33,0.25,0.5,0.5,0.25" style="fill:rgb(0,0,0);font-family:STIX-Regular;font-size:8.0px;stroke:none;">Page 39 of 54 </text>
   <text y="39.697" x="384.344" svgx:width="0.5" style="fill:rgb(0,0,0);font-family:STIX-Bold;font-size:8.0px;stroke:none;">3</text>
   <text y="65.61" x="51.024,55.874,60.314,65.314,69.754,73.064,77.504,80.284,82.784,83.604,86.934,90.204,95.204,102.984,105.484,106.304,113.244,117.684,120.464,125.464,130.464,133.244,135.744,136.564,141.664,144.974,149.414,153.854,158.854,161.354,162.174,167.174,172.174,176.064,181.114,183.614,186.114,186.934,191.374,194.684,199.124,204.124,209.124,213.564,217.154,220.693,225.693,228.193,229.013,234.013,239.013,246.793,251.233,255.673,260.113,262.613,265.113,265.933,270.933,273.713,278.153,282.373,287.373,289.873,290.693,293.473,297.913,302.353,304.853,305.673,310.113,315.113,320.113,322.613,323.433,328.433,332.873,337.873,342.313,347.313,351.753,354.253,355.073,360.073,363.343,368.343,372.783,377.223,381.113,385.003" svgx:width="0.5,0.44,0.5,0.44,0.33,0.44,0.28,0.25,0.55,0.33,0.33,0.5,0.78,0.25,0.55,0.72,0.44,0.28,0.5,0.5,0.28,0.25,0.55,0.5,0.33,0.44,0.44,0.5,0.25,0.55,0.5,0.5,0.39,0.5,0.25,0.25,0.55,0.44,0.33,0.44,0.5,0.5,0.44,0.33,0.33,0.5,0.25,0.55,0.5,0.5,0.78,0.44,0.44,0.44,0.25,0.25,0.55,0.5,0.28,0.44,0.44,0.5,0.25,0.55,0.28,0.44,0.44,0.25,0.55,0.44,0.5,0.5,0.25,0.55,0.5,0.44,0.5,0.44,0.5,0.44,0.25,0.55,0.5,0.33,0.5,0.44,0.44,0.39,0.39,0.33" style="fill:rgb(0,0,0);font-family:STIX-Regular;font-size:10.0px;stroke:none;">general from walnut green husk, cranberry pomace, black tea and banana process-</text>
   <text y="77.61" x="51.024,53.804,58.804,63.804,66.869,73.809,78.249,82.059,84.839,89.279,92.609,95.109,98.174,105.294,109.734,114.174,119.174,122.484,127.484,130.264,135.264,140.264,143.329,146.089,151.089,154.159,157.019,162.019,166.459,170.349,174.789,177.854,181.664,184.444,189.444,194.444,197.224,201.664,205.554,208.054,211.119,216.119,220.009,222.789,227.789,232.789,235.854,242.794,247.234,250.014,254.454,257.524,260.024,263.089,270.869,275.219,278.079,283.079,287.519,292.519,297.519,300.299,302.799,305.864,310.214,313.074,318.074,322.514,327.514,332.514,335.294,338.364,343.364,346.694,349.759,354.199,357.264,365.044,367.824,372.824,375.604,380.604,383.914,388.354" svgx:width="0.28,0.5,0.5,0.25,0.72,0.44,0.39,0.28,0.44,0.33,0.25,0.25,0.72,0.44,0.44,0.5,0.33,0.5,0.28,0.5,0.5,0.25,0.28,0.5,0.25,0.28,0.5,0.44,0.39,0.44,0.25,0.39,0.28,0.5,0.5,0.28,0.44,0.39,0.25,0.25,0.5,0.39,0.28,0.5,0.5,0.25,0.72,0.44,0.28,0.44,0.33,0.25,0.25,0.78,0.44,0.28,0.5,0.44,0.5,0.5,0.28,0.25,0.25,0.44,0.28,0.5,0.44,0.5,0.5,0.28,0.25,0.5,0.33,0.25,0.44,0.25,0.78,0.28,0.5,0.28,0.5,0.33,0.44,0.25" style="fill:rgb(0,0,0);font-family:STIX-Regular;font-size:10.0px;stroke:none;">ing waste). According to these studies, using water, methanol, ethanol or a mixture </text>
   <text y="89.61" x="51.024,56.024,59.354,62.224,65.084,70.084,74.524,82.304,85.174,89.614,92.394,95.264,100.264,105.264,110.264,115.264,120.264,125.264,128.131,132.131,138.801,141.671,146.111,150.551,155.551,158.421,163.421,167.861,170.731,175.171,178.041,180.821,185.601,192.581,195.911,200.351,205.351,209.161,211.941,214.441,217.311,222.311,226.751,231.751,234.531,239.531,244.531,247.401,251.841,254.621,257.401,261.841,265.38,270.38,274.82,277.6,280.38,285.14,289.58,292.45,295.46,300.46,303.79,306.66,309.52,314.52,318.96,321.83,325.14,329.58,334.02,338.8,343.56,348.0,351.539,356.539,359.409,364.409,367.739,370.609,375.609,378.389,383.389,388.389" svgx:width="0.5,0.33,0.25,0.28,0.5,0.44,0.78,0.25,0.44,0.28,0.25,0.5,0.5,0.5,0.5,0.5,0.5,0.25,0.4,0.67,0.25,0.44,0.44,0.5,0.25,0.5,0.44,0.25,0.44,0.25,0.28,0.5,0.72,0.33,0.44,0.5,0.39,0.28,0.25,0.25,0.5,0.44,0.5,0.28,0.5,0.5,0.25,0.44,0.28,0.28,0.44,0.33,0.5,0.44,0.28,0.28,0.5,0.44,0.25,0.33,0.5,0.33,0.25,0.28,0.5,0.44,0.25,0.33,0.44,0.44,0.5,0.5,0.44,0.33,0.5,0.25,0.5,0.33,0.25,0.5,0.28,0.5,0.5,0.25" style="fill:rgb(0,0,0);font-family:STIX-Regular;font-size:10.0px;stroke:none;">of them at 70–100 °C can be a low-cost, benign alternative for the recovery of high </text>
   <text y="101.61" x="51.024,55.464,60.464,65.464,69.904,74.904,78.234,83.034,87.474,90.254,95.254,99.694,102.194,104.204,108.644,113.644,121.394,126.394,131.394,136.394,141.394,146.394,150.284,152.784,154.794,159.794,164.234,167.754,170.534,175.294,179.734,184.734,187.234,189.244,192.574,195.844,200.844,208.624,211.124,213.134,216.443,220.883,224.773,227.553,232.553,237.553,241.993,244.773,247.273,249.283,254.283,257.063,262.063,269.843,274.283,278.173,282.063,284.563,286.573" svgx:width="0.44,0.5,0.5,0.44,0.5,0.33,0.5,0.44,0.28,0.5,0.44,0.25,0.55,0.44,0.5,0.78,0.5,0.5,0.5,0.5,0.5,0.39,0.25,0.55,0.5,0.44,0.33,0.28,0.5,0.44,0.5,0.25,0.55,0.33,0.33,0.5,0.78,0.25,0.55,0.33,0.44,0.39,0.28,0.5,0.5,0.44,0.28,0.25,0.55,0.5,0.28,0.5,0.78,0.44,0.39,0.39,0.25,0.55,0.33" style="fill:rgb(0,0,0);font-family:STIX-Regular;font-size:10.0px;stroke:none;">added-value compounds derived from residual biomass [</text>
   <text y="101.61" x="289.903,294.903" svgx:width="0.5,0.5" style="fill:rgb(0,0,255);font-family:STIX-Regular;font-size:10.0px;stroke:none;">46</text>
   <text y="101.61" x="299.903" svgx:width="0.5" style="fill:rgb(0,0,0);font-family:STIX-Regular;font-size:10.0px;stroke:none;">–</text>
   <text y="101.61" x="304.903,309.903" svgx:width="0.5,0.5" style="fill:rgb(0,0,255);font-family:STIX-Regular;font-size:10.0px;stroke:none;">49</text>
   <text y="101.61" x="314.903,318.233,320.733,323.233,325.243,330.803,335.243,339.683,342.463,345.243,350.243,355.243,358.573,363.573,368.573,371.073,373.083,380.023,384.463,388.353" svgx:width="0.33,0.25,0.25,0.55,0.56,0.44,0.44,0.28,0.28,0.5,0.5,0.33,0.5,0.5,0.25,0.55,0.72,0.44,0.39,0.25" style="fill:rgb(0,0,0);font-family:STIX-Regular;font-size:10.0px;stroke:none;">]. Scaling-up was </text>
   <text y="113.61" x="51.024,55.464,58.244,62.134,67.134,69.634,70.994,74.803,77.583,82.583,87.583,90.363,94.803,99.803,102.303,104.803,106.163,113.383,118.383,123.383,127.273,131.713,134.213,135.573,138.882,143.322,147.212,152.212,154.992,157.772,161.662,164.162,165.522,169.412,174.412,179.192,186.232,190.672,195.672,198.172,199.532,202.292,207.292,209.792,211.152,216.152,220.592,223.092,224.452,229.452,233.342,237.782,241.112,246.112,248.892,251.392,252.752,255.532,260.532,263.032,264.392,269.392,273.742,276.522,280.962,284.492,292.272,295.052,300.052,302.832,307.832,312.832,315.332,316.692,319.472,324.472,329.472,334.472,338.282,341.062,344.582,347.362,351.802,354.582,357.082,358.442,363.442,366.712,371.712,376.152,380.592,384.482,388.372" svgx:width="0.44,0.28,0.39,0.5,0.25,0.55,0.39,0.28,0.5,0.5,0.28,0.44,0.5,0.25,0.25,0.55,0.72,0.5,0.5,0.39,0.44,0.25,0.55,0.33,0.44,0.39,0.5,0.28,0.28,0.39,0.25,0.55,0.39,0.5,0.5,0.72,0.44,0.5,0.25,0.55,0.28,0.5,0.25,0.55,0.5,0.44,0.25,0.55,0.5,0.39,0.44,0.33,0.5,0.28,0.25,0.55,0.28,0.5,0.25,0.55,0.5,0.44,0.28,0.44,0.33,0.78,0.28,0.5,0.28,0.5,0.5,0.25,0.55,0.28,0.5,0.5,0.5,0.39,0.28,0.33,0.28,0.44,0.28,0.25,0.55,0.5,0.33,0.5,0.44,0.44,0.39,0.39,0.25" style="fill:rgb(0,0,0);font-family:STIX-Regular;font-size:10.0px;stroke:none;">also studied, whose results showed to be useful in determining industrial process </text>
   <text y="125.61" x="51.024,54.014,58.454,62.894,66.784,69.564,74.564,77.344,80.124,82.904,85.684,90.684,93.184,94.494,98.934,103.934,108.934,111.434,112.744,115.604,120.604,125.044,127.544,128.854,133.294,137.734,142.734,147.734,152.734,160.514,163.294,167.734,170.234,171.544,176.344,180.784,183.564,188.564,193.004,195.504,196.814,201.814,205.144,207.644,208.954,213.954,218.954,221.524,226.524,231.524,236.524,240.964,245.964,250.964,253.744,257.634,260.134,261.444,264.454,269.454,272.784,275.284,276.594,281.034,286.034,293.814,301.594,306.034,309.344,313.784,316.564,321.004,323.784,326.284,327.594,332.594,336.484,340.924,343.424,345.924,347.234,350.014,355.014,359.454,362.764,367.204,371.644,375.534,378.314,383.314,388.314" svgx:width="0.33,0.44,0.44,0.39,0.28,0.5,0.28,0.28,0.28,0.28,0.5,0.25,0.55,0.44,0.5,0.5,0.25,0.55,0.28,0.5,0.44,0.25,0.55,0.44,0.44,0.5,0.5,0.5,0.78,0.28,0.44,0.25,0.55,0.5,0.44,0.28,0.5,0.44,0.25,0.55,0.5,0.33,0.25,0.55,0.5,0.5,0.28,0.5,0.5,0.5,0.44,0.5,0.5,0.28,0.39,0.25,0.55,0.33,0.5,0.33,0.25,0.55,0.44,0.5,0.78,0.78,0.44,0.33,0.44,0.28,0.44,0.28,0.25,0.55,0.5,0.39,0.44,0.25,0.25,0.55,0.28,0.5,0.44,0.33,0.44,0.44,0.39,0.28,0.5,0.5,0.25" style="fill:rgb(0,0,0);font-family:STIX-Regular;font-size:10.0px;stroke:none;">feasibility and the economic value of polyphenols for commercial use, increasing </text>
   <text y="137.61" x="51.024,53.884,58.884,63.324,65.824,70.604,75.364,79.804,83.114,87.554,90.334,93.114,95.614,100.614,103.884,108.884,114.464,117.344,121.784,126.784,129.564,132.344,135.124,137.904,142.904,145.404,150.404,153.734,156.234,159.093,164.093,168.533,171.033,175.473,178.783,183.223,188.223,193.223,197.663,201.252,204.792,209.792,212.292,215.072,220.072,225.072,230.072,233.882,236.662,240.202,245.202,247.702" svgx:width="0.28,0.5,0.44,0.25,0.5,0.5,0.44,0.33,0.44,0.28,0.28,0.25,0.5,0.33,0.5,0.56,0.28,0.44,0.5,0.28,0.28,0.28,0.28,0.5,0.25,0.5,0.33,0.25,0.28,0.5,0.44,0.25,0.44,0.33,0.44,0.5,0.5,0.44,0.33,0.33,0.5,0.25,0.28,0.5,0.5,0.5,0.39,0.28,0.33,0.5,0.25,0.33" style="fill:rgb(0,0,0);font-family:STIX-Regular;font-size:10.0px;stroke:none;">the overall profitability of the cranberry industry [</text>
   <text y="137.61" x="251.032,256.032" svgx:width="0.5,0.5" style="fill:rgb(0,0,255);font-family:STIX-Regular;font-size:10.0px;stroke:none;">48</text>
   <text y="137.61" x="261.032,264.362" svgx:width="0.33,0.25" style="fill:rgb(0,0,0);font-family:STIX-Regular;font-size:10.0px;stroke:none;">].</text>
   <text y="149.61" x="62.364,71.804,76.804,81.244,86.244,90.494,95.254,99.694,103.024,105.524,108.184,113.184,118.184,122.074,125.964,128.744,133.744,136.524,140.964,143.464,145.964,148.624,153.624,156.404,161.404,166.404,170.844,174.174,176.674,179.334,182.114,186.554,194.304,199.304,203.744,207.054,211.494,214.274,219.274,222.584,227.024,230.914,233.414,236.074,240.514,243.294,246.074,250.854,258.074,260.574,263.234,266.243,271.243,274.573,277.073,279.733,284.733,287.513,292.513,297.513,301.953,305.283,307.783,310.443,318.223,322.663,326.553,330.443,332.943,335.603,338.383,341.693,346.133,351.133,355.023,358.013,362.453,365.783,368.283,370.943,373.723,378.723,381.223,383.883,388.323" svgx:width="0.94,0.5,0.44,0.5,0.44,0.5,0.44,0.33,0.25,0.55,0.5,0.5,0.39,0.39,0.28,0.5,0.28,0.44,0.25,0.25,0.55,0.5,0.28,0.5,0.5,0.44,0.33,0.25,0.55,0.28,0.44,0.78,0.5,0.44,0.33,0.44,0.28,0.5,0.33,0.44,0.39,0.25,0.55,0.44,0.28,0.28,0.5,0.72,0.25,0.55,0.33,0.5,0.33,0.25,0.55,0.5,0.28,0.5,0.5,0.44,0.33,0.25,0.55,0.78,0.44,0.39,0.39,0.25,0.55,0.28,0.33,0.44,0.5,0.39,0.33,0.44,0.33,0.25,0.55,0.28,0.5,0.25,0.55,0.44,0.25" style="fill:rgb(0,0,0);font-family:STIX-Regular;font-size:10.0px;stroke:none;">Whenever possible, higher temperatures allow for higher mass transfer in a </text>
   <text y="161.61" x="51.024,54.914,59.914,64.914,68.474,71.254,75.694,79.024,82.019,84.799,87.579,95.359,99.799,102.793,110.013,112.793,115.653,120.653,123.648,126.428,131.208,138.248,142.688,146.018,149.013,153.453,158.453,162.893,166.063,171.063,176.063,179.058,183.498,188.498,193.498,197.388,202.388,210.138,215.128,217.908,220.688,225.688,230.688,233.683,236.463,241.463,244.458,249.308,253.748,258.748,263.188,266.497,270.937,273.717,276.217,279.212,282.522,286.962,290.852,295.852,298.632,301.412,304.192,309.192,314.192,317.187,319.967,324.967,327.962,332.962,337.312,340.092,342.872,347.312,350.642,353.637,356.947,361.387,365.827,370.607,375.367,379.807,383.347,388.347" svgx:width="0.39,0.5,0.5,0.33,0.28,0.44,0.33,0.25,0.28,0.28,0.78,0.44,0.25,0.72,0.28,0.28,0.5,0.25,0.28,0.5,0.72,0.44,0.33,0.25,0.44,0.5,0.44,0.33,0.5,0.5,0.25,0.44,0.5,0.5,0.39,0.5,0.78,0.5,0.28,0.28,0.5,0.5,0.25,0.28,0.5,0.25,0.5,0.44,0.5,0.44,0.33,0.44,0.28,0.25,0.25,0.33,0.44,0.39,0.5,0.28,0.28,0.28,0.5,0.5,0.25,0.28,0.5,0.25,0.5,0.44,0.28,0.28,0.44,0.33,0.25,0.33,0.44,0.44,0.5,0.5,0.44,0.33,0.5,0.25" style="fill:rgb(0,0,0);font-family:STIX-Regular;font-size:10.0px;stroke:none;">shorter time with lower energy consumption in general, resulting in better recovery </text>
   <text y="173.61" x="51.024,55.464,63.784,68.224,71.004,75.444,80.444,84.884,89.884,92.384,93.364,96.224,101.224,105.664,110.664,113.164,114.144,118.584,123.584,128.274,133.034,137.474,142.474,145.254,148.034,153.034,158.034,162.474,165.254,167.754,168.734,172.624,177.494,181.304,184.084,188.524,196.304,200.194,202.694,203.674" svgx:width="0.44,0.83,0.44,0.28,0.44,0.5,0.44,0.5,0.25,0.55,0.28,0.5,0.44,0.5,0.25,0.55,0.44,0.5,0.5,0.5,0.44,0.5,0.28,0.28,0.5,0.5,0.44,0.28,0.25,0.55,0.39,0.5,0.39,0.28,0.44,0.78,0.39,0.25,0.55,0.33" style="fill:rgb(0,0,0);font-family:STIX-Regular;font-size:10.0px;stroke:none;">efficienc y tha n conventiona l system s [</text>
   <text y="173.61" x="207.004,212.004" svgx:width="0.5,0.5" style="fill:rgb(0,0,255);font-family:STIX-Regular;font-size:10.0px;stroke:none;">50</text>
   <text y="173.61" x="217.004,220.334,222.834,225.334,226.314,233.534,237.424,239.924,240.904,245.904,250.904,254.794,259.234,262.763,267.523,271.963,276.963,279.463,280.443,283.223,288.223,290.723,291.703,297.213,299.993,304.993,307.493" svgx:width="0.33,0.25,0.25,0.55,0.72,0.39,0.25,0.55,0.5,0.5,0.39,0.44,0.33,0.5,0.44,0.5,0.25,0.55,0.28,0.5,0.25,0.55,0.56,0.28,0.5,0.25,0.25" style="fill:rgb(0,0,0);font-family:STIX-Regular;font-size:10.0px;stroke:none;">]. As observed in Fig. </text>
   <text y="173.61" x="310.964" svgx:width="0.5" style="fill:rgb(0,0,255);font-family:STIX-Regular;font-size:10.0px;stroke:none;">5</text>
   <text y="173.61" x="315.964,318.464,320.964,321.944,324.804,329.804,334.244,336.744,337.724,341.614,346.054,350.494,355.494,360.494,365.494,367.994,368.974,376.754,381.754,385.564,388.344" svgx:width="0.25,0.25,0.55,0.28,0.5,0.44,0.25,0.55,0.39,0.44,0.44,0.5,0.5,0.5,0.25,0.55,0.78,0.5,0.39,0.28,0.25" style="fill:rgb(0,0,0);font-family:STIX-Regular;font-size:10.0px;stroke:none;">, the second most </text>
   <text y="185.61" x="51.024,55.464,58.244,61.024,65.464,70.464,72.964,74.014,79.114,82.424,86.864,91.304,96.304,98.804,99.854,104.294,109.294,114.294,116.794,117.844,121.734,126.734,130.544,133.424,137.864,140.644,145.644,150.084,155.084,157.864,162.304,164.804,165.854,169.744,174.184,179.184,183.624,186.934,191.374,194.154,196.934,201.934,206.934,209.434,210.484,215.484,218.754,223.754,228.194,232.634,236.524,240.414,242.914,243.964,246.744,250.634,253.134,254.184,259.184,263.624,267.514,271.954,276.954,279.454,280.504,285.504,290.504,293.004,294.054,301.834,304.614,309.054,312.324,317.104,324.044,328.164,332.924,337.364,339.864,340.914,345.914,350.354,354.794,357.574,360.354,365.354,370.354,372.854,373.904,378.344,383.344,388.344" svgx:width="0.44,0.28,0.28,0.44,0.5,0.25,0.55,0.5,0.33,0.44,0.44,0.5,0.25,0.55,0.44,0.5,0.5,0.25,0.55,0.39,0.5,0.39,0.28,0.44,0.28,0.5,0.44,0.5,0.28,0.44,0.25,0.55,0.39,0.44,0.5,0.44,0.33,0.44,0.28,0.28,0.5,0.5,0.25,0.55,0.5,0.33,0.5,0.44,0.44,0.39,0.39,0.25,0.55,0.28,0.39,0.25,0.55,0.5,0.44,0.39,0.44,0.5,0.25,0.55,0.5,0.5,0.25,0.55,0.78,0.28,0.44,0.33,0.5,0.72,0.44,0.5,0.44,0.25,0.55,0.5,0.44,0.44,0.28,0.28,0.5,0.5,0.25,0.55,0.44,0.5,0.5,0.25" style="fill:rgb(0,0,0);font-family:STIX-Regular;font-size:10.0px;stroke:none;">cited green and sustainable separation process is based on microwave heating and </text>
   <text y="197.61" x="51.024,55.464,59.904,64.904,67.404,69.458,74.458,78.898,81.398,83.453,87.893,92.893,97.893,101.783,104.563,109.563,114.003,117.312,121.752,126.752,129.252,131.307,135.747,138.247,140.301,145.301,150.301,155.301,158.631,163.071,168.071,172.761,177.521,181.961,186.961,189.741,192.521,197.521,202.521,206.961,209.741,212.241,214.296,217.076,221.516,225.795,230.795,235.795,238.575,243.446,248.446,252.886,255.386,257.44,262.44,267.22,274.16,278.6,283.6,287.77,292.64,296.53,299.03,301.53,303.584,310.804,315.244,319.684,322.464,325.244,330.244,335.244,337.744,339.799,342.579,346.469,348.969,351.023,356.023,360.463,364.353,368.793,373.793,376.293,378.347,383.347,388.347" svgx:width="0.44,0.44,0.5,0.25,0.55,0.5,0.44,0.25,0.55,0.44,0.5,0.5,0.39,0.28,0.5,0.44,0.33,0.44,0.5,0.25,0.55,0.44,0.25,0.55,0.5,0.5,0.5,0.33,0.44,0.5,0.5,0.5,0.44,0.5,0.28,0.28,0.5,0.5,0.44,0.28,0.25,0.55,0.28,0.44,0.44,0.5,0.5,0.28,0.5,0.5,0.44,0.25,0.55,0.5,0.5,0.72,0.44,0.5,0.44,0.5,0.39,0.25,0.25,0.55,0.72,0.44,0.44,0.28,0.28,0.5,0.5,0.25,0.55,0.28,0.39,0.25,0.55,0.5,0.44,0.39,0.44,0.5,0.25,0.55,0.5,0.5,0.25" style="fill:rgb(0,0,0);font-family:STIX-Regular;font-size:10.0px;stroke:none;">can be considered a non-conventional technique nowadays. Heating is based on </text>
   <text y="209.61" x="51.024,56.024,61.024,66.024,69.354,72.134,77.134,82.134,84.914,89.354,92.134,97.134,102.134,104.634,105.584,110.024,112.804,117.244,121.684,124.464,127.734,132.734,140.514,144.954,149.954,154.954,159.304,162.084,164.864,169.304,171.804,172.754,179.694,183.814,188.574,193.014,196.904,199.404,201.904,202.854,208.964,213.964,218.964,222.854,227.294,229.794,230.744,235.744,240.094,242.874,249.914,254.354,258.794,263.794,266.294,267.244,272.244,274.744,279.744,284.744,289.744,292.244,293.194,297.634,302.634,307.634,310.134,311.084,316.084,318.584,323.584,328.584,331.084,332.036,339.256,346.476,350.916,353.416,354.366,358.806,362.115,366.555,369.055,370.005,375.005,378.895,383.335,388.335" svgx:width="0.5,0.5,0.5,0.33,0.28,0.5,0.5,0.28,0.44,0.28,0.5,0.5,0.25,0.55,0.44,0.28,0.44,0.44,0.28,0.33,0.5,0.78,0.44,0.5,0.5,0.44,0.28,0.28,0.44,0.25,0.55,0.72,0.44,0.5,0.44,0.39,0.25,0.25,0.55,0.61,0.5,0.5,0.39,0.44,0.25,0.55,0.5,0.44,0.28,0.72,0.44,0.44,0.5,0.25,0.55,0.5,0.25,0.5,0.5,0.5,0.25,0.55,0.44,0.5,0.5,0.25,0.55,0.5,0.25,0.5,0.5,0.25,0.55,0.72,0.72,0.44,0.25,0.55,0.44,0.33,0.44,0.25,0.55,0.5,0.39,0.44,0.5,0.25" style="fill:rgb(0,0,0);font-family:STIX-Regular;font-size:10.0px;stroke:none;">non-ionizing electromagnetic waves. Those between 0.915 and 2.45  GHz are used </text>
   <text y="221.61" x="51.024,54.034,59.034,62.364,64.864,66.924,69.704,74.704,79.704,84.704,88.514,91.294,94.814,97.594,102.034,104.814,107.314,109.814,111.874,115.764,120.204,122.984,127.424,132.424,135.204,137.984,143.564,148.004,150.504,152.564,157.004,162.004,167.004,169.504,171.564,179.344,183.784,188.784,191.564,196.004,200.444,203.224,205.724,207.784,212.224,217.224,222.224,225.004,227.784,232.224,236.664,239.444,242.224,247.224,252.224,256.114,258.614,261.114,263.174,269.284,274.284,278.724,281.224,283.284,288.064,292.825,297.265,300.574,305.014,307.794,310.574,313.074,315.134,320.134,323.654,326.434,331.434,335.874,338.654,343.654,346.434,350.874,353.374,355.434,360.434,363.764,366.264,368.324,373.324,377.764,382.204,384.984" svgx:width="0.33,0.5,0.33,0.25,0.55,0.28,0.5,0.5,0.5,0.39,0.28,0.33,0.28,0.44,0.28,0.25,0.25,0.55,0.39,0.44,0.28,0.44,0.5,0.28,0.28,0.56,0.44,0.25,0.55,0.44,0.5,0.5,0.25,0.55,0.78,0.44,0.5,0.28,0.44,0.44,0.28,0.25,0.55,0.44,0.5,0.5,0.28,0.28,0.44,0.44,0.28,0.28,0.5,0.5,0.39,0.25,0.25,0.55,0.61,0.5,0.44,0.25,0.55,0.5,0.5,0.44,0.33,0.44,0.28,0.28,0.25,0.55,0.5,0.33,0.28,0.5,0.44,0.28,0.5,0.28,0.44,0.25,0.55,0.5,0.33,0.25,0.55,0.5,0.44,0.44,0.28,0.33" style="fill:rgb(0,0,0);font-family:STIX-Regular;font-size:10.0px;stroke:none;">for industrial, scientific and medical applications. The overall principle of heat-</text>
   <text y="233.61" x="51.024,53.804,58.804,63.804,66.304,67.094,69.874,73.764,76.264,77.054,80.324,85.324,90.244,93.024,97.464,102.464,104.964,105.749,108.529,113.529,116.029,116.819,119.599,122.379,126.269,128.769,129.559,134.559,137.339,140.649,145.089,149.529,152.309,154.809,155.594,158.374,166.125,171.125,175.565,180.005,182.785,185.285,186.07,193.29,196.07,198.93,203.93,206.43,207.22,212.22,217.22,220.0,224.44,227.77,230.27,231.055,238.835,243.275,246.055,250.495,254.015,256.795,261.235,264.015,267.905,270.685,274.575,279.575,282.145,286.905,291.345,296.345,299.125,303.015,305.515,306.305,310.745,315.745,320.745,323.245,324.03,326.81,330.7,333.2,333.99,338.99,343.43,348.43,352.87,357.87,362.87,367.31,372.31,375.09,377.59,378.38,383.38,388.38" svgx:width="0.28,0.5,0.5,0.25,0.55,0.28,0.39,0.25,0.55,0.33,0.5,0.5,0.28,0.44,0.5,0.25,0.55,0.28,0.5,0.25,0.55,0.28,0.28,0.39,0.25,0.55,0.5,0.28,0.33,0.44,0.44,0.28,0.25,0.55,0.28,0.78,0.5,0.44,0.44,0.28,0.25,0.55,0.72,0.28,0.28,0.5,0.25,0.55,0.5,0.5,0.28,0.44,0.33,0.25,0.55,0.78,0.44,0.28,0.44,0.33,0.28,0.44,0.28,0.39,0.28,0.39,0.5,0.28,0.5,0.44,0.5,0.28,0.39,0.25,0.55,0.44,0.5,0.5,0.25,0.55,0.28,0.39,0.25,0.55,0.5,0.44,0.5,0.44,0.5,0.5,0.44,0.5,0.28,0.25,0.55,0.5,0.5,0.25" style="fill:rgb(0,0,0);font-family:STIX-Regular;font-size:10.0px;stroke:none;">ing is rooted in its direct impact with polar materials/solvents and is dependent on </text>
   <text y="245.61" x="51.024,53.804,58.804,63.804,66.584,71.024,73.524,74.464,78.904,83.904,88.904,93.904,98.904,103.344,106.124,108.904,113.904,118.904,121.404,122.344,126.784,131.784,136.784,139.284,140.219,145.219,147.999,152.999,157.999,160.779,165.219,167.719,168.659,171.929,176.849,179.729,184.169,186.949,189.729,194.729,199.729,202.229,204.729,205.664,210.664,215.104,219.544,224.544,228.134,231.654,234.434,239.434,244.434,246.934,247.869,251.759,254.539,262.319,267.319,270.099,272.979,277.419,282.419,286.859,291.859,296.859,300.749,303.319,308.319,310.819,311.754,314.534,319.534,322.034,322.974,330.754,335.754,339.564,342.344,344.844,345.784,350.224,354.664,358.554,362.994,366.884,369.384,371.884,372.819,378.929,383.929,388.369" svgx:width="0.28,0.5,0.5,0.28,0.44,0.25,0.55,0.44,0.5,0.5,0.5,0.5,0.44,0.28,0.28,0.5,0.5,0.25,0.55,0.44,0.5,0.5,0.25,0.55,0.5,0.28,0.5,0.5,0.28,0.44,0.25,0.55,0.33,0.5,0.28,0.44,0.28,0.28,0.5,0.5,0.25,0.25,0.55,0.5,0.44,0.44,0.5,0.33,0.33,0.28,0.5,0.5,0.25,0.55,0.39,0.28,0.78,0.5,0.28,0.28,0.44,0.5,0.44,0.5,0.5,0.39,0.28,0.5,0.25,0.55,0.28,0.5,0.25,0.55,0.78,0.5,0.39,0.28,0.25,0.55,0.44,0.44,0.39,0.44,0.39,0.25,0.25,0.55,0.61,0.5,0.44,0.25" style="fill:rgb(0,0,0);font-family:STIX-Regular;font-size:10.0px;stroke:none;">ionic conduction and dipole rotation, occurring simultaneously in most cases. The </text>
   <text y="257.61" x="51.024,53.804,58.804,63.244,66.554,70.994,75.434,79.324,83.764,88.764,91.264,92.384,95.164,99.604,107.354,112.354,116.794,120.104,124.544,127.324,132.324,135.634,140.074,142.574,143.694,148.134,152.574,157.574,160.074,161.194,165.974,170.734,175.174,178.484,182.924,187.924,195.704,200.144,202.644,203.764,206.623,211.623,216.063,218.563,219.683,224.683,229.123,231.903,236.903,240.213,244.653,247.433,249.933,251.053,256.053,259.323,264.323,269.323,274.323,278.763,281.543,284.873,292.653,297.093,299.873,303.393,306.173,311.173,313.673,314.793,317.573,322.573,325.353,329.793,333.102,337.542,341.982,344.762,347.542,352.542,357.542,360.042,361.162,365.602,370.042,375.042,378.932,383.372,388.372" svgx:width="0.28,0.5,0.44,0.33,0.44,0.44,0.39,0.44,0.5,0.25,0.55,0.28,0.44,0.78,0.5,0.44,0.33,0.44,0.28,0.5,0.33,0.44,0.25,0.55,0.44,0.44,0.5,0.25,0.55,0.5,0.5,0.44,0.33,0.44,0.5,0.78,0.44,0.25,0.55,0.28,0.5,0.44,0.25,0.55,0.5,0.44,0.28,0.5,0.33,0.44,0.28,0.25,0.55,0.5,0.33,0.5,0.5,0.5,0.44,0.28,0.33,0.78,0.44,0.28,0.33,0.28,0.5,0.25,0.55,0.28,0.5,0.28,0.44,0.33,0.44,0.44,0.28,0.28,0.5,0.5,0.25,0.55,0.44,0.44,0.5,0.39,0.44,0.5,0.25" style="fill:rgb(0,0,0);font-family:STIX-Regular;font-size:10.0px;stroke:none;">increased temperature can overcome the natural product-matrix interaction caused </text>
   <text y="269.61" x="51.024,55.824,60.824,63.324,64.989,71.409,75.849,80.849,83.349,85.014,90.014,94.454,97.784,100.284,101.949,110.788,115.228,119.668,122.448,126.338,128.838,130.503,133.513,138.513,141.823,146.263,150.703,154.593,157.093,159.593,161.257,166.257,169.037,174.037,179.037,181.817,186.257,188.757,190.422,194.862,197.642,200.422,203.732,208.172,212.612,215.392,218.172,223.172,228.172,230.672,233.172,234.837,239.637,244.637,249.637,252.907,257.907,262.757,267.197,272.197,274.697,276.362,281.362,286.362,291.362,296.362,299.142,304.142,309.142,311.642,313.306,318.306,321.636,324.136,325.801,328.661,333.661,338.101,340.601,342.266,346.706,351.706,359.456,364.456,369.456,374.456,379.456,384.456,388.346" svgx:width="0.5,0.5,0.25,0.55,0.72,0.44,0.5,0.25,0.55,0.5,0.44,0.33,0.25,0.55,0.94,0.44,0.44,0.28,0.39,0.25,0.55,0.33,0.5,0.33,0.44,0.44,0.39,0.25,0.25,0.55,0.5,0.28,0.5,0.5,0.28,0.44,0.25,0.55,0.44,0.28,0.28,0.33,0.44,0.44,0.28,0.28,0.5,0.5,0.25,0.25,0.55,0.5,0.5,0.5,0.33,0.5,0.5,0.44,0.5,0.25,0.55,0.5,0.5,0.5,0.5,0.28,0.5,0.5,0.25,0.55,0.5,0.33,0.25,0.55,0.28,0.5,0.44,0.25,0.55,0.44,0.5,0.78,0.5,0.5,0.5,0.5,0.5,0.39,0.25" style="fill:rgb(0,0,0);font-family:STIX-Regular;font-size:10.0px;stroke:none;">by Van der Waals forces, dipole attraction, hydrogen bonding of the compounds </text>
   <text y="281.61" x="51.024,56.024,59.354,61.854,63.819,66.599,71.599,74.379,78.819,82.129,86.569,90.379,93.159,95.659,97.624,102.064,107.064,112.064,114.564,116.534,120.974,125.414,128.194,130.974,135.734,140.174,142.674,144.639,148.529,151.309,154.089,158.529,162.419,164.919,166.884,169.664,174.664,177.164,179.134,181.994,186.994,191.434,193.934,195.899,203.679,208.119,210.899,214.419,217.199,222.199,224.699,227.199,229.164,235.274,240.274,244.714,248.024,252.464,255.474,260.474,263.784,268.224,270.724,273.224,275.189,278.049,283.049,287.489,291.018,298.798,303.238,306.018,308.518,310.488,314.928,319.928,324.368,327.538,332.538,337.538,340.038,342.003,346.443,350.883,355.883,358.383,360.348,365.348,368.128,372.018,375.588,380.588,385.578,388.358" svgx:width="0.5,0.33,0.25,0.55,0.28,0.5,0.28,0.44,0.33,0.44,0.39,0.28,0.25,0.55,0.44,0.5,0.5,0.25,0.55,0.44,0.44,0.28,0.28,0.5,0.44,0.25,0.55,0.39,0.28,0.28,0.44,0.39,0.25,0.55,0.28,0.5,0.25,0.55,0.28,0.5,0.44,0.25,0.55,0.78,0.44,0.28,0.33,0.28,0.5,0.25,0.25,0.55,0.61,0.5,0.44,0.33,0.44,0.33,0.5,0.33,0.44,0.25,0.25,0.55,0.28,0.5,0.44,0.33,0.78,0.44,0.28,0.25,0.55,0.44,0.5,0.44,0.33,0.5,0.5,0.25,0.55,0.44,0.44,0.5,0.25,0.55,0.5,0.28,0.39,0.33,0.5,0.5,0.28,0.25" style="fill:rgb(0,0,0);font-family:STIX-Regular;font-size:10.0px;stroke:none;">of interest and active sites in the matrix. Therefore, thermal energy can disrupt </text>
   <text y="293.61" x="51.024,56.024,60.944,63.804,68.804,71.304,72.654,76.544,81.544,84.324,89.324,92.104,96.544,101.544,105.434,110.434,113.214,118.214,120.994,125.434,127.934,129.284,133.724,138.724,143.724,146.224,147.574,151.464,156.464,159.244,164.244,167.024,171.464,176.464,184.244,188.684,191.464,194.983,197.763,202.763,205.263,206.613,209.393,214.393,217.173,221.613,224.922,229.362,233.802,236.582,239.362,244.362,249.362,253.252,255.752,258.252,259.602,264.602,267.872,272.652,277.652,280.432,285.432,288.212,293.212,298.212,300.712,302.062,304.922,309.922,314.362,316.862,318.212,322.652,327.092,329.872,332.652,337.452,341.892,344.672,347.452,352.452,357.452,359.952,361.302,365.742,370.742,375.182,378.352,383.352,388.352" svgx:width="0.5,0.5,0.28,0.5,0.25,0.55,0.39,0.5,0.28,0.5,0.28,0.44,0.5,0.39,0.5,0.28,0.5,0.28,0.44,0.25,0.55,0.44,0.5,0.5,0.25,0.55,0.39,0.5,0.28,0.5,0.28,0.44,0.5,0.78,0.44,0.28,0.33,0.28,0.5,0.25,0.55,0.28,0.5,0.28,0.44,0.33,0.44,0.44,0.28,0.28,0.5,0.5,0.39,0.25,0.25,0.55,0.5,0.33,0.5,0.5,0.28,0.5,0.28,0.5,0.5,0.25,0.55,0.28,0.5,0.44,0.25,0.55,0.44,0.44,0.28,0.28,0.5,0.44,0.28,0.28,0.5,0.5,0.25,0.55,0.44,0.5,0.44,0.33,0.5,0.5,0.25" style="fill:rgb(0,0,0);font-family:STIX-Regular;font-size:10.0px;stroke:none;">both solute–solute and solute–matrix interactions, providing the activation energy </text>
   <text y="305.61" x="51.024,54.334,58.774,63.644,68.644,71.424,74.734,79.174,84.174,86.674,87.634,90.644,95.644,98.974,101.474,102.434,105.294,110.294,114.734,117.234,118.194,123.194,127.634,131.524,136.524,140.104,145.094,147.874,150.654,155.654,160.654,163.154,164.114,169.114,172.384,177.384,181.824,186.264,190.154,194.044,196.544,199.044,200.004,206.114,211.114,215.554,218.054,219.014,226.794,231.234,235.124,239.014,241.514,242.474,245.254,248.564,253.004,258.004,261.894,264.884,269.324,272.654,275.154,276.114,281.114,284.444,286.944,287.904,290.764,295.764,300.204,302.704,303.664,308.104,313.104,320.854,325.854,330.854,335.854,340.854,345.854,349.744,352.244,353.204,356.534,359.804,364.804,372.584,375.084,376.044,378.904,383.904,388.344" svgx:width="0.33,0.44,0.5,0.5,0.28,0.33,0.44,0.5,0.25,0.55,0.33,0.5,0.33,0.25,0.55,0.28,0.5,0.44,0.25,0.55,0.5,0.44,0.39,0.5,0.33,0.5,0.28,0.28,0.5,0.5,0.25,0.55,0.5,0.33,0.5,0.44,0.44,0.39,0.39,0.25,0.25,0.55,0.61,0.5,0.44,0.25,0.55,0.78,0.44,0.39,0.39,0.25,0.55,0.28,0.33,0.44,0.5,0.39,0.33,0.44,0.33,0.25,0.55,0.5,0.33,0.25,0.55,0.28,0.5,0.44,0.25,0.55,0.44,0.5,0.78,0.5,0.5,0.5,0.5,0.5,0.39,0.25,0.55,0.33,0.33,0.5,0.78,0.25,0.55,0.28,0.5,0.44,0.25" style="fill:rgb(0,0,0);font-family:STIX-Regular;font-size:10.0px;stroke:none;">required for the desorption process. The mass transfer of the compounds from the </text>
   <text y="317.61" x="51.024,54.334,58.444,65.664,68.259,76.039,80.479,83.259,87.699,91.219,93.999,98.439,101.219,103.814,106.574,111.574,114.174,117.034,122.034,126.474,129.069,132.959,137.959,140.529,145.289,149.729,154.729,157.509,160.109,162.889,166.779,169.374,173.814,176.594,180.484,185.484,188.079,192.519,196.959,201.399,206.399,214.149,219.149,221.929,224.709,228.599,233.599,238.039,243.039,245.634,250.434,255.434,258.034,262.474,267.474,272.164,276.924,281.364,285.804,288.584,291.364,296.364,301.364,303.959,308.399,313.399,318.399,320.994,325.994,328.774,334.824,339.824,343.714,346.494,351.494,356.494,359.094,366.874,371.314,375.594,380.594,385.034" svgx:width="0.33,0.44,0.72,0.25,0.78,0.44,0.28,0.44,0.33,0.28,0.44,0.28,0.25,0.28,0.5,0.25,0.28,0.5,0.44,0.25,0.39,0.5,0.28,0.5,0.44,0.5,0.28,0.25,0.28,0.39,0.25,0.44,0.28,0.39,0.5,0.25,0.44,0.44,0.44,0.5,0.78,0.5,0.28,0.28,0.39,0.5,0.44,0.5,0.25,0.5,0.5,0.25,0.44,0.5,0.5,0.5,0.44,0.44,0.28,0.28,0.5,0.5,0.25,0.44,0.5,0.5,0.25,0.5,0.28,0.61,0.5,0.39,0.28,0.5,0.5,0.25,0.78,0.44,0.44,0.5,0.44,0.33" style="fill:rgb(0,0,0);font-family:STIX-Regular;font-size:10.0px;stroke:none;">raw material to the solvent is also accomplished by convection and diffusion mecha-</text>
   <text y="329.61" x="51.024,56.024,58.804,62.694,70.474,74.364,76.864,79.474,83.914,88.354,93.354,97.244,100.024,105.024,110.024,112.634,115.494,120.494,124.934,127.544,131.774,136.774,141.774,144.554,149.554,153.444,156.224,161.224,166.224,168.829,173.829,177.159,179.769,184.769,187.549,191.989,196.989,199.769,202.379,206.819,211.259,214.039,216.819,220.709,223.314,227.754,232.754,237.754,240.364,243.674,248.114,250.894,255.334,259.774,263.664,266.444,271.444,276.444,279.049,281.909,286.909,291.349,294.129,297.459,300.064,304.504,309.504,314.504,317.284,321.724,326.724,329.504,332.114,334.894,339.894,342.654,347.654,350.264,353.124,358.124,362.564,365.168,367.948,370.728,375.599,380.599,383.379,388.379" svgx:width="0.5,0.28,0.39,0.78,0.39,0.25,0.25,0.44,0.44,0.5,0.39,0.28,0.5,0.5,0.25,0.28,0.5,0.44,0.25,0.44,0.5,0.5,0.28,0.5,0.39,0.28,0.5,0.5,0.25,0.5,0.33,0.25,0.5,0.28,0.44,0.5,0.28,0.25,0.44,0.44,0.28,0.28,0.39,0.25,0.44,0.5,0.5,0.25,0.33,0.44,0.28,0.44,0.44,0.39,0.28,0.5,0.5,0.25,0.28,0.5,0.44,0.28,0.33,0.25,0.44,0.5,0.5,0.28,0.44,0.5,0.28,0.25,0.28,0.5,0.28,0.5,0.25,0.28,0.5,0.44,0.25,0.28,0.28,0.5,0.5,0.28,0.5,0.25" style="fill:rgb(0,0,0);font-family:STIX-Regular;font-size:10.0px;stroke:none;">nisms, causing the explosion of plant cells and releasing their content into the liquid </text>
   <text y="341.61" x="51.024,56.024,61.024,65.464,69.354,73.794,76.294" svgx:width="0.5,0.5,0.44,0.39,0.44,0.25,0.33" style="fill:rgb(0,0,0);font-family:STIX-Regular;font-size:10.0px;stroke:none;">phase [</text>
   <text y="341.61" x="79.624,84.624" svgx:width="0.5,0.5" style="fill:rgb(0,0,255);font-family:STIX-Regular;font-size:10.0px;stroke:none;">51</text>
   <text y="341.61" x="89.624,92.954" svgx:width="0.33,0.25" style="fill:rgb(0,0,0);font-family:STIX-Regular;font-size:10.0px;stroke:none;">].</text>
   <text y="353.61" x="62.364,68.474,73.474,77.914,80.424,84.864,89.304,94.304,97.634,100.964,104.484,107.264,111.704,116.704,121.704,124.274,129.274,131.784,135.093,139.533,147.313,152.093,156.893,161.333,164.113,166.623,171.623,174.953,177.463,181.903,185.793,189.683,194.123,199.123,201.903,204.683,209.123,211.903,214.413,219.413,222.193,224.973,228.863,231.363,233.873,238.873,243.313,247.753,250.533,253.313,258.313,260.823,265.263,270.263,275.263,277.773,282.773,287.773,290.343,295.343,300.343,305.343,309.783,314.783,319.783,322.563,326.453,328.963,332.293,335.563,340.563,348.343,350.853,355.293,357.803,362.803,367.803,375.583,380.583,385.023,388.353" svgx:width="0.61,0.5,0.44,0.25,0.44,0.44,0.5,0.33,0.33,0.33,0.28,0.44,0.5,0.5,0.28,0.5,0.25,0.33,0.44,0.78,0.5,0.5,0.44,0.28,0.25,0.5,0.33,0.25,0.44,0.39,0.39,0.44,0.5,0.28,0.28,0.44,0.28,0.25,0.5,0.28,0.28,0.39,0.25,0.25,0.5,0.44,0.44,0.28,0.28,0.5,0.25,0.44,0.5,0.5,0.25,0.5,0.5,0.28,0.5,0.5,0.5,0.44,0.5,0.5,0.28,0.39,0.25,0.33,0.33,0.5,0.78,0.25,0.44,0.25,0.5,0.5,0.78,0.5,0.44,0.33,0.25" style="fill:rgb(0,0,0);font-family:STIX-Regular;font-size:10.0px;stroke:none;">The eco-friendly removal of essential oils, pectin and polyphenols from a number </text>
   <text y="365.61" x="51.024,56.024,59.354,61.854,62.794,67.794,70.574,75.014,80.014,82.794,85.294,86.234,89.544,93.654,100.874,103.374,104.314,112.094,116.534,119.314,123.754,127.274,130.054,134.494,137.274,141.164,143.664,144.604,152.384,156.824,161.824,164.604,169.044,171.824,176.264,181.264,183.764,184.704,189.505,194.505,197.005,197.945,205.725,208.505,212.945,216.214,220.994,227.934,232.054,236.814,241.254,243.754,244.694,247.474,251.064,254.374,258.814,263.814,266.594,271.034,273.814,276.594,281.594,286.594,289.094,290.034,295.034,299.474,303.364,305.864,306.804,311.804,316.244,320.684,325.684,328.184,329.124,334.124,338.564,342.454,346.894,350.414,353.194,358.194,362.634,367.634,370.134,371.074,375.854,380.615,385.055,388.385" svgx:width="0.5,0.33,0.25,0.55,0.5,0.28,0.44,0.5,0.28,0.25,0.55,0.33,0.44,0.72,0.25,0.55,0.78,0.44,0.28,0.44,0.33,0.28,0.44,0.28,0.39,0.25,0.55,0.78,0.44,0.5,0.28,0.44,0.28,0.44,0.5,0.25,0.55,0.5,0.5,0.25,0.55,0.78,0.28,0.44,0.33,0.5,0.72,0.44,0.5,0.44,0.25,0.55,0.28,0.33,0.33,0.44,0.5,0.28,0.44,0.28,0.28,0.5,0.5,0.25,0.55,0.5,0.44,0.39,0.25,0.55,0.5,0.44,0.44,0.5,0.25,0.55,0.5,0.44,0.39,0.44,0.33,0.28,0.5,0.44,0.5,0.25,0.55,0.5,0.5,0.44,0.33,0.25" style="fill:rgb(0,0,0);font-family:STIX-Regular;font-size:10.0px;stroke:none;">of plant raw materials mediated by microwave irradiation has been described over </text>
   <text y="377.61" x="51.024,53.884,58.884,63.324,65.824,66.894,69.674,74.114,77.924,80.704,83.204,84.274,89.044,93.484,97.924,101.254,105.144,107.644,110.144,111.214,116.214,120.384,125.384,128.164,133.164,138.164,140.664,141.734,145.624,150.624,155.064,159.504,162.284,166.724,169.504,172.004,173.074,177.514,180.294,183.074,187.514,192.514,195.294,198.074,203.074,208.074,210.574,211.644,214.404,219.404,221.904,222.974,227.414,230.194,232.974,236.544,241.544,245.434,247.934,249.004,255.943,260.383,264.193,266.973,271.413,273.913,274.983" svgx:width="0.28,0.5,0.44,0.25,0.55,0.28,0.44,0.39,0.28,0.25,0.55,0.5,0.44,0.44,0.33,0.39,0.25,0.25,0.55,0.5,0.44,0.5,0.28,0.5,0.5,0.25,0.55,0.39,0.5,0.44,0.44,0.28,0.44,0.28,0.25,0.55,0.44,0.28,0.28,0.44,0.5,0.28,0.28,0.5,0.5,0.25,0.55,0.28,0.5,0.25,0.55,0.44,0.28,0.28,0.33,0.5,0.39,0.25,0.55,0.72,0.44,0.39,0.28,0.44,0.25,0.55,0.33" style="fill:rgb(0,0,0);font-family:STIX-Regular;font-size:10.0px;stroke:none;">the last years, paying special attention to citrus waste [</text>
   <text y="377.61" x="278.313,283.313" svgx:width="0.5,0.5" style="fill:rgb(0,0,255);font-family:STIX-Regular;font-size:10.0px;stroke:none;">52</text>
   <text y="377.61" x="288.313" svgx:width="0.5" style="fill:rgb(0,0,0);font-family:STIX-Regular;font-size:10.0px;stroke:none;">–</text>
   <text y="377.61" x="293.313,298.313" svgx:width="0.5,0.5" style="fill:rgb(0,0,255);font-family:STIX-Regular;font-size:10.0px;stroke:none;">66</text>
   <text y="377.61" x="303.313,306.643,309.143,311.643,312.713,316.043,321.043,323.543,324.613,327.683,332.123,336.563,339.343,341.843,344.343,345.413,348.273,353.273,357.713,360.213,361.283,366.283,369.593,374.033,379.033,383.883,388.323" svgx:width="0.33,0.25,0.25,0.55,0.33,0.5,0.25,0.55,0.33,0.44,0.44,0.28,0.25,0.25,0.55,0.28,0.5,0.44,0.25,0.55,0.5,0.33,0.44,0.5,0.5,0.44,0.25" style="fill:rgb(0,0,0);font-family:STIX-Regular;font-size:10.0px;stroke:none;">]. In fact, the orange </text>
   <text y="389.61" x="51.024,53.804,58.804,61.584,66.024,70.464,73.454,78.454,81.724,86.724,91.164,95.604,99.494,103.384,106.164,111.164,116.164,119.154,121.934,126.934,131.934,136.934,140.744,143.524,147.064,152.064,155.054,159.494,163.934,168.934,171.924,176.924,181.364,184.354,188.794,193.794,198.794,202.684,205.464,210.464,214.904,218.213,222.653,227.653,230.643,238.423,243.423,246.733,251.173,254.163,257.023,262.023,266.463,271.463,274.453,278.893,281.883,286.883,291.883,296.883,301.883,304.873,309.313,313.753,317.643,322.083,325.073,328.883,331.663,336.663,341.663,345.953,348.453,351.443,357.553,362.553,365.333,369.223,372.213,376.103,380.543,384.983" svgx:width="0.28,0.5,0.28,0.44,0.44,0.25,0.5,0.33,0.5,0.44,0.44,0.39,0.39,0.28,0.5,0.5,0.25,0.28,0.5,0.5,0.5,0.39,0.28,0.33,0.5,0.25,0.44,0.44,0.5,0.25,0.5,0.44,0.25,0.44,0.5,0.5,0.39,0.28,0.5,0.44,0.33,0.44,0.5,0.25,0.78,0.5,0.33,0.44,0.25,0.28,0.5,0.44,0.5,0.25,0.44,0.25,0.5,0.5,0.5,0.5,0.25,0.44,0.44,0.39,0.44,0.25,0.39,0.28,0.5,0.5,0.5,0.25,0.25,0.61,0.5,0.28,0.39,0.25,0.39,0.44,0.44,0.33" style="fill:rgb(0,0,0);font-family:STIX-Regular;font-size:10.0px;stroke:none;">juice processing industry can be considered more than a good case study. This sec-</text>
   <text y="401.61" x="51.024,53.784,58.784,62.114,65.034,67.814,71.704,74.624,79.624,82.404,87.404,92.404,94.974,99.974,102.894,109.834,114.274,118.083,120.863,125.303,128.633,133.633,136.413,138.913,141.833,146.683,151.123,156.123,160.563,163.872,168.312,171.092,173.872,178.872,183.872,186.792,191.792,196.792,204.262,207.182,212.182,215.512,218.432,225.372,229.812,233.622,236.402,240.842,243.762,247.092,250.362,255.362,263.142,266.062,268.922,273.922,278.362,281.282,284.042,288.962,291.842,296.282,299.062,301.982,305.312,308.881,313.881,316.661,319.441,322.221,326.031,328.911,333.351,336.911,339.691,342.471,347.471,352.471,355.391,363.171,367.611,370.391,374.831,378.35,381.13,385.57,388.35" svgx:width="0.28,0.5,0.33,0.25,0.28,0.39,0.25,0.5,0.28,0.5,0.5,0.28,0.5,0.25,0.72,0.44,0.39,0.28,0.44,0.33,0.5,0.28,0.25,0.25,0.5,0.44,0.5,0.44,0.33,0.44,0.28,0.28,0.5,0.5,0.25,0.5,0.5,0.75,0.25,0.5,0.33,0.25,0.72,0.44,0.39,0.28,0.44,0.25,0.33,0.33,0.5,0.78,0.25,0.28,0.5,0.44,0.25,0.28,0.5,0.28,0.44,0.28,0.25,0.33,0.33,0.5,0.28,0.28,0.28,0.39,0.28,0.44,0.33,0.28,0.28,0.5,0.5,0.25,0.78,0.44,0.28,0.44,0.33,0.28,0.44,0.28,0.25" style="fill:rgb(0,0,0);font-family:STIX-Regular;font-size:10.0px;stroke:none;">tor is highly wasteful, generating 50% of waste from the total fruit/starting material </text>
   <text y="413.61" x="51.024,54.354,58.794,61.294,66.294,68.794,71.294,73.794,74.874,79.874,84.314,88.754,91.534,94.034,96.534,97.614,102.614,107.054,111.944,116.384,120.274,124.164,128.604,131.104,133.604,134.684,138.574,143.014,147.454,152.454,156.344,158.844,159.924,164.364,169.364,174.364,176.864,177.944,182.714,187.154,189.934,192.714,197.494,204.714,207.214,208.294,215.234,219.674,222.454,226.894,230.224,233.554,236.054,238.554,239.634,246.854,250.124,255.124,260.124,265.124,270.124,272.624,273.704,278.704,283.704,286.204,287.284,295.064,297.844,300.624,303.404,306.184,311.184,316.184,318.684,319.764,322.524,327.524,332.524,337.524,341.964,345.854,348.354,349.434,354.434,357.764,360.264,361.344,366.344,369.654,374.094,379.094,383.944,388.384" svgx:width="0.33,0.44,0.25,0.5,0.25,0.25,0.25,0.55,0.5,0.44,0.44,0.28,0.25,0.25,0.55,0.5,0.44,0.5,0.44,0.39,0.39,0.44,0.25,0.25,0.55,0.39,0.44,0.44,0.5,0.39,0.25,0.55,0.44,0.5,0.5,0.25,0.55,0.5,0.44,0.28,0.28,0.5,0.72,0.25,0.55,0.72,0.44,0.28,0.44,0.33,0.33,0.25,0.25,0.55,0.72,0.33,0.5,0.5,0.5,0.5,0.25,0.55,0.5,0.5,0.25,0.55,0.78,0.28,0.28,0.28,0.28,0.5,0.5,0.25,0.55,0.28,0.5,0.5,0.5,0.44,0.39,0.25,0.55,0.5,0.33,0.25,0.55,0.5,0.33,0.44,0.5,0.5,0.44,0.25" style="fill:rgb(0,0,0);font-family:STIX-Regular;font-size:10.0px;stroke:none;">(e.g., peel, bagasse, seeds and yellow water). Around 20 million tonnes of orange </text>
   <text y="425.61" x="51.024,56.024,60.464,64.904,67.684,70.214,75.214,79.654,82.984,85.514,90.285,94.725,99.165,102.495,105.025,109.465,112.774,117.214,119.744,124.744,128.014,133.014,138.014,143.014,147.454,151.894,156.894,159.424,166.384,171.384,174.644,177.424,182.424,189.644,192.424,197.424,201.864,204.364,206.894,214.114,219.114,221.894,226.174,231.174,233.704,238.144,243.144,248.144,252.034,254.814,258.624,261.404,263.934,268.934,272.264,274.794,281.734,286.174,288.954,293.394,296.724,299.254,302.584,307.584,312.584,320.054,323.384,325.914,330.354,335.354,340.354,342.884,346.774,351.774,356.664,361.104,364.434,368.324,370.824,373.354,377.794,382.234,385.014" svgx:width="0.5,0.44,0.44,0.28,0.25,0.5,0.44,0.33,0.25,0.5,0.44,0.44,0.33,0.25,0.44,0.33,0.44,0.25,0.5,0.33,0.5,0.5,0.5,0.44,0.44,0.5,0.25,0.72,0.5,0.33,0.28,0.5,0.72,0.28,0.5,0.44,0.25,0.25,0.72,0.5,0.28,0.44,0.5,0.25,0.44,0.5,0.5,0.39,0.28,0.39,0.28,0.25,0.5,0.33,0.25,0.72,0.44,0.28,0.44,0.33,0.25,0.33,0.5,0.5,0.75,0.33,0.25,0.44,0.5,0.5,0.25,0.39,0.5,0.5,0.44,0.33,0.39,0.25,0.25,0.44,0.44,0.28,0.33" style="fill:rgb(0,0,0);font-family:STIX-Regular;font-size:10.0px;stroke:none;">peel per year are produced worldwide, which consist of water (80%) and sugars, cel-</text>
   <text y="437.61" x="51.024,53.804,58.804,61.584,66.584,70.474,74.914,77.414,80.304,85.304,89.744,97.524,100.304,104.744,109.184,111.964,114.744,119.744,122.524,127.524,131.414,135.854,138.354,141.244,146.244,150.684,155.124,157.904,160.684,165.684,168.574,173.014,178.014,183.014" svgx:width="0.28,0.5,0.28,0.5,0.39,0.44,0.25,0.25,0.5,0.44,0.78,0.28,0.44,0.44,0.28,0.28,0.5,0.28,0.5,0.39,0.44,0.25,0.25,0.5,0.44,0.44,0.28,0.28,0.5,0.25,0.44,0.5,0.5,0.25" style="fill:rgb(0,0,0);font-family:STIX-Regular;font-size:10.0px;stroke:none;">lulose, hemicellulose, pectin and </text>
  </g>
  <g begin="text">
   <text y="437.61" x="185.896" svgx:width="0.72" style="fill:rgb(0,0,0);font-family:STIX-Regular-SC700;font-size:7.0px;stroke:none;">d</text>
  </g>
  <g begin="text">
   <text y="437.61" x="190.95,194.28,197.06,199.84,207.62,212.62,217.62,222.06,227.06,231.5,234.39,237.72,242.72,247.72,255.19,258.52,261.02,263.91,270.44,274.88,279.32,283.76,288.76,291.54,294.11,298.58,301.08,303.97,306.75,309.53,312.42,319.36,323.8,327.69,330.58,334.47,339.47,344.25,351.47,356.47,359.36,364.36,368.25,371.03,376.03,381.03,383.92,388.36" svgx:width="0.33,0.28,0.28,0.78,0.5,0.5,0.44,0.5,0.44,0.25,0.33,0.5,0.5,0.75,0.33,0.25,0.25,0.67,0.44,0.44,0.44,0.5,0.28,0.28,0.5,0.25,0.25,0.28,0.28,0.25,0.72,0.44,0.39,0.25,0.39,0.5,0.5,0.72,0.5,0.25,0.5,0.39,0.28,0.5,0.5,0.25,0.44,0.25" style="fill:rgb(0,0,0);font-family:STIX-Regular;font-size:10.0px;stroke:none;">-limonene (20%). Recently, it was shown using a </text>
   <text y="449.61" x="51.02,58.8,63.24,66.1,71.1,75.54,83.32,87.76,90.54,93.32,97.76,102.2,104.98,107.48,108.715,116.495,121.495,126.495,130.935,133.715,136.215,137.449,140.31,145.31,149.75,152.53" svgx:width="0.78,0.44,0.28,0.5,0.44,0.78,0.44,0.28,0.28,0.44,0.44,0.28,0.25,0.55,0.78,0.5,0.5,0.44,0.28,0.25,0.55,0.28,0.5,0.44,0.28,0.25" style="fill:rgb(0,0,0);font-family:STIX-Regular;font-size:10.0px;stroke:none;">mathematical model that </text>
  </g>
  <g begin="text">
   <text y="449.61" x="156.268" svgx:width="0.72" style="fill:rgb(0,0,0);font-family:STIX-Regular-SC700;font-size:7.0px;stroke:none;">d</text>
  </g>
  <g begin="text">
   <text y="449.61" x="161.322,164.652,167.432,170.212,177.992,182.992,187.992,192.432,197.432,201.872,204.372,205.607,209.837,214.837,217.617,220.927,225.367,229.807,232.587,235.367,240.367,245.367,247.867,249.102,253.542,258.542,263.542,267.432,270.212,274.021,276.801,281.241,286.241,288.741,289.981,294.981,298.311,300.811,302.046,306.486,308.986,310.221,313.001,319.961,324.961,327.461,328.696,332.506,335.386,339.826,344.676,349.116,351.616,352.851,357.851,360.631,366.681,371.681,375.571,378.351,383.351,388.351" svgx:width="0.33,0.28,0.28,0.78,0.5,0.5,0.44,0.5,0.44,0.25,0.55,0.44,0.5,0.28,0.33,0.44,0.44,0.28,0.28,0.5,0.5,0.25,0.55,0.44,0.5,0.5,0.39,0.28,0.39,0.28,0.44,0.5,0.25,0.55,0.5,0.33,0.25,0.55,0.44,0.25,0.55,0.28,0.72,0.5,0.25,0.55,0.39,0.28,0.44,0.5,0.44,0.25,0.55,0.5,0.28,0.61,0.5,0.39,0.28,0.5,0.5,0.25" style="fill:rgb(0,0,0);font-family:STIX-Regular;font-size:10.0px;stroke:none;">-limonene extraction consisted of a two stage diffusion </text>
   <text y="461.61" x="51.022,56.022,59.292,64.292,68.732,73.172,77.062,80.952,83.452,84.597,87.607,92.607,95.937,98.437,99.587,104.027,106.527,107.677,115.457,118.237,122.677,125.947,130.727,137.667,141.787,146.547,150.987,153.487,154.637,157.967,166.857,176.297,179.627,182.127,183.272,188.272,192.712,197.152,199.932,202.712,207.712,212.712,215.212,216.362,220.802,225.802,230.802,234.072,239.072,243.512,247.792,252.792,255.572,258.072,259.222,262.002,267.002,269.782,272.562,275.342,279.782,282.562,285.062,286.207,290.437,295.437,298.217,301.527,305.967,310.407,313.187,315.967,320.967,325.967,328.467,329.617,332.947,336.217,341.217,348.997,351.497,352.647,355.507,360.507,364.947,367.447,368.597,372.826,377.826,380.606,385.046" svgx:width="0.5,0.33,0.5,0.44,0.44,0.39,0.39,0.25,0.55,0.33,0.5,0.33,0.25,0.55,0.44,0.25,0.55,0.78,0.28,0.44,0.33,0.5,0.72,0.44,0.5,0.44,0.25,0.55,0.33,0.89,0.94,0.33,0.25,0.55,0.5,0.44,0.44,0.28,0.28,0.5,0.5,0.25,0.55,0.44,0.5,0.5,0.33,0.5,0.44,0.44,0.5,0.28,0.25,0.55,0.28,0.5,0.28,0.28,0.28,0.44,0.28,0.25,0.55,0.44,0.5,0.28,0.33,0.44,0.44,0.28,0.28,0.5,0.5,0.25,0.55,0.33,0.33,0.5,0.78,0.25,0.55,0.28,0.5,0.44,0.25,0.55,0.44,0.5,0.28,0.44,0.33" style="fill:rgb(0,0,0);font-family:STIX-Regular;font-size:10.0px;stroke:none;">process for a microwave (MW) heating approach: initial extraction from the exte-</text>
   <text y="473.61" x="51.022,54.542,57.322,62.322,65.652,68.392,73.392,76.722,79.462,83.902,88.342,91.122,93.902,97.792,100.532,103.542,108.542,111.322,114.102,118.882,125.922,130.362,135.362,138.102,142.902,147.902,150.642,153.422,156.732,161.172,166.172,170.062,173.392,181.172,185.612,193.392,198.392,201.701,206.141,211.141,215.581,218.321,223.321,226.101,232.151,237.151,241.041,243.821,248.821,253.821,256.321,259.061,265.731,270.731,278.481,283.481,287.921,291.231,295.671,300.671,303.411,306.171,311.171,313.911,318.831,321.691,326.691,331.131,334.461,337.201,341.641,346.641,351.331,356.091,360.531,365.531,368.311,371.091,376.091,381.091,385.531,388.311" svgx:width="0.33,0.28,0.5,0.33,0.25,0.5,0.33,0.25,0.44,0.44,0.28,0.28,0.39,0.25,0.33,0.5,0.28,0.28,0.5,0.72,0.44,0.5,0.25,0.5,0.5,0.25,0.28,0.33,0.44,0.5,0.39,0.33,0.78,0.44,0.78,0.5,0.33,0.44,0.5,0.44,0.25,0.5,0.28,0.61,0.5,0.39,0.28,0.5,0.5,0.25,0.25,0.67,0.5,0.78,0.5,0.44,0.33,0.44,0.5,0.25,0.28,0.5,0.25,0.5,0.28,0.5,0.44,0.33,0.25,0.44,0.5,0.5,0.5,0.44,0.5,0.28,0.28,0.5,0.5,0.44,0.28,0.25" style="fill:rgb(0,0,0);font-family:STIX-Regular;font-size:10.0px;stroke:none;">rior of cells followed by trans-membrane diffusion. Compared to other conventional </text>
   <text y="485.61" x="51.022,55.252,60.252,63.032,66.342,70.782,75.222,78.002,80.782,85.782,90.782,93.282,94.272,102.052,106.402,109.262,114.262,119.262,124.262,128.152,130.652,133.152,134.142,136.922,139.702,142.202,143.192,150.132,154.572,158.462,160.962,161.952,164.962,169.962,174.962,179.962,184.962,187.462,188.452,191.312,196.312,200.752,203.532,206.032,207.022,209.882,214.882,219.322,221.822,222.812,230.592,233.372,237.812,241.082,245.862,252.802,256.922,261.682,266.122,268.622,269.612,272.392,275.702,280.142,284.582,287.362,295.142,299.582,304.582,307.362,309.862,310.852,317.792,322.232,326.122,328.622,329.612,337.392,342.392,345.702,350.142,352.642,353.632,358.072,366.392,370.832,373.612,378.052,383.052,385.832,388.332" svgx:width="0.44,0.5,0.28,0.33,0.44,0.44,0.28,0.28,0.5,0.5,0.25,0.55,0.78,0.44,0.28,0.5,0.5,0.5,0.39,0.25,0.25,0.55,0.28,0.28,0.25,0.55,0.72,0.44,0.39,0.25,0.55,0.33,0.5,0.5,0.5,0.5,0.25,0.55,0.28,0.5,0.44,0.28,0.25,0.55,0.28,0.5,0.44,0.25,0.55,0.78,0.28,0.44,0.33,0.5,0.72,0.44,0.5,0.44,0.25,0.55,0.28,0.33,0.44,0.44,0.28,0.78,0.44,0.5,0.28,0.25,0.55,0.72,0.44,0.39,0.25,0.55,0.78,0.5,0.33,0.44,0.25,0.55,0.44,0.83,0.44,0.28,0.44,0.5,0.28,0.25,0.25" style="fill:rgb(0,0,0);font-family:STIX-Regular;font-size:10.0px;stroke:none;">extraction methods, it was found that the microwave treatment was more efficient, </text>
   <text y="497.61" x="51.022,54.332,58.772,62.662,67.662,70.442,73.222,76.002,81.002,86.002,88.372,91.152,96.152,98.522,102.962,105.332,110.332,113.112,118.112,123.112,127.552,130.882,133.252,138.032,142.792,147.232,150.542,154.982,157.762,160.542,162.912,167.912,170.692,175.132,177.912,182.912,185.282,190.282,195.282,199.722,202.092,204.852,209.852,212.222,215.082,220.082,224.522,226.892,231.332,235.772,240.212,244.652,248.542,252.432,254.802,257.562,262.562,264.932,269.372,271.742,276.742,279.522,284.522,289.522,293.962,297.292,299.662,304.102,311.882,316.882,321.882,326.882,329.662,332.032,337.032,340.362" svgx:width="0.33,0.44,0.39,0.5,0.28,0.28,0.28,0.5,0.5,0.25,0.28,0.5,0.25,0.44,0.25,0.5,0.28,0.5,0.5,0.44,0.33,0.25,0.5,0.5,0.44,0.33,0.44,0.28,0.28,0.25,0.5,0.28,0.44,0.28,0.5,0.25,0.5,0.5,0.44,0.25,0.28,0.5,0.25,0.28,0.5,0.44,0.25,0.44,0.44,0.44,0.44,0.39,0.39,0.25,0.28,0.5,0.25,0.44,0.25,0.5,0.28,0.5,0.5,0.44,0.33,0.25,0.44,0.78,0.5,0.5,0.5,0.28,0.25,0.5,0.33,0.25" style="fill:rgb(0,0,0);font-family:STIX-Regular;font-size:10.0px;stroke:none;">resulting in a higher overall yield due to the access to a higher amount of </text>
  </g>
  <g begin="text">
   <text y="497.61" x="342.743" svgx:width="0.72" style="fill:rgb(0,0,0);font-family:STIX-Regular-SC700;font-size:7.0px;stroke:none;">d</text>
  </g>
  <g begin="text">
   <text y="497.61" x="347.797,351.127,353.907,356.687,364.467,369.467,374.467,378.907,383.907,388.347" svgx:width="0.33,0.28,0.28,0.78,0.5,0.5,0.44,0.5,0.44,0.25" style="fill:rgb(0,0,0);font-family:STIX-Regular;font-size:10.0px;stroke:none;">-limonene </text>
   <text y="509.61" x="51.027" svgx:width="0.33" style="fill:rgb(0,0,0);font-family:STIX-Regular;font-size:10.0px;stroke:none;">[</text>
   <text y="509.61" x="54.357,59.357" svgx:width="0.5,0.5" style="fill:rgb(0,0,255);font-family:STIX-Regular;font-size:10.0px;stroke:none;">59</text>
   <text y="509.61" x="64.357,67.687" svgx:width="0.33,0.25" style="fill:rgb(0,0,0);font-family:STIX-Regular;font-size:10.0px;stroke:none;">].</text>
   <text y="521.61" x="62.367,68.477,73.477,77.917,80.417,82.357,86.247,91.247,95.687,100.127,104.567,108.457,112.347,115.677,120.677,123.457,125.957,127.897,135.677,138.457,142.897,146.167,150.947,157.887,162.007,166.767,171.207,174.537,178.977,182.867,186.757,189.537,193.346,196.126,200.566,205.566,208.066,210.006,213.896,218.896,221.466,226.226,230.666,235.666,238.446,241.776,245.106,248.416,252.856,257.296,259.796,261.736,269.516,274.516,279.516,282.296,287.876,292.316,296.756,299.536,302.316,307.316,312.316,314.816,316.756,321.756,325.086,327.586,329.526,334.526,338.966,343.406,346.186,348.966,353.966,356.466,358.406,363.406,367.846,371.365,374.145,378.905,383.345,388.345" svgx:width="0.61,0.5,0.44,0.25,0.55,0.39,0.5,0.44,0.44,0.44,0.39,0.39,0.33,0.5,0.28,0.25,0.55,0.78,0.28,0.44,0.33,0.5,0.72,0.44,0.5,0.44,0.33,0.44,0.39,0.39,0.28,0.39,0.28,0.44,0.5,0.25,0.55,0.39,0.5,0.28,0.5,0.44,0.5,0.28,0.33,0.33,0.33,0.44,0.44,0.25,0.55,0.78,0.5,0.5,0.28,0.56,0.44,0.44,0.28,0.28,0.5,0.5,0.25,0.55,0.5,0.33,0.25,0.55,0.5,0.44,0.44,0.28,0.28,0.5,0.25,0.55,0.5,0.44,0.33,0.28,0.5,0.44,0.5,0.25" style="fill:rgb(0,0,0);font-family:STIX-Regular;font-size:10.0px;stroke:none;">The successful microwave-assisted solvent-free modification of pectin derived </text>
   <text y="533.61" x="51.027,54.357,57.627,62.627,70.407,72.907,74.667,79.107,81.887,84.667,88.237,93.237,97.127,99.627,101.387,108.327,112.767,116.576,119.356,123.796,126.296,128.056,133.056,137.496,141.386,143.886,145.646,150.086,152.866,156.756,161.756,164.256,166.016,171.016,175.456,179.896,184.896,187.396,189.156,192.466,196.906,201.906,206.906,210.465,213.245,217.685,222.685,225.185,226.945" svgx:width="0.33,0.33,0.5,0.78,0.25,0.55,0.44,0.28,0.28,0.33,0.5,0.39,0.25,0.55,0.72,0.44,0.39,0.28,0.44,0.25,0.55,0.5,0.44,0.39,0.25,0.55,0.44,0.28,0.39,0.5,0.25,0.55,0.5,0.44,0.44,0.5,0.25,0.55,0.33,0.44,0.5,0.5,0.33,0.28,0.44,0.5,0.25,0.55,0.33" style="fill:rgb(0,0,0);font-family:STIX-Regular;font-size:10.0px;stroke:none;">from citrus waste has also been reported [</text>
   <text y="533.61" x="230.275,235.275" svgx:width="0.5,0.5" style="fill:rgb(0,0,255);font-family:STIX-Regular;font-size:10.0px;stroke:none;">53</text>
   <text y="533.61" x="240.275,243.605,246.105,248.605,250.365,256.475,261.475,265.915,269.805,274.245,276.745,278.505,282.945,287.945,292.945,296.215,301.215,305.655,309.935,314.935,319.375,323.265,325.765,327.525,332.525,337.445,340.225,342.725,344.485,349.485,354.485,357.054,362.054,364.554,366.314,370.754,373.534,376.314,381.094,388.314" svgx:width="0.33,0.25,0.25,0.55,0.61,0.5,0.44,0.39,0.44,0.25,0.55,0.44,0.5,0.5,0.33,0.5,0.44,0.44,0.5,0.44,0.39,0.25,0.55,0.5,0.5,0.28,0.25,0.55,0.5,0.5,0.28,0.5,0.25,0.55,0.44,0.28,0.28,0.5,0.72,0.25" style="fill:rgb(0,0,0);font-family:STIX-Regular;font-size:10.0px;stroke:none;">]. These approaches not only allow </text>
   <text y="545.61" x="51.027,54.037,59.037,62.367,65.407,68.267,73.267,77.707,80.747,84.637,89.077,94.077,98.517,101.827,106.267,109.047,111.827,116.827,121.827,124.867,129.867,133.197,136.237,139.097,144.097,148.537,151.577,159.357,163.717,166.497,171.497,174.827,177.867,182.307,187.307,195.057,200.057,205.057,210.057,214.497,219.497,222.277,226.167,229.207,234.207,237.537,240.577,245.017,247.797,250.577,254.146,259.146,263.036,266.076,271.076,275.516,279.956,282.736,285.236,288.276,293.276,298.276,301.056,304.096,306.956,311.956,316.186,321.186,324.226,328.666,331.446,335.336,340.336,343.376,347.816,352.816,357.816,360.856,364.186,369.186,372.746,375.606,380.606,385.046,388.376" svgx:width="0.33,0.5,0.33,0.25,0.28,0.5,0.44,0.25,0.39,0.44,0.5,0.44,0.33,0.44,0.28,0.28,0.5,0.5,0.25,0.5,0.33,0.25,0.28,0.5,0.44,0.25,0.78,0.44,0.28,0.5,0.33,0.25,0.44,0.5,0.78,0.5,0.5,0.5,0.44,0.5,0.28,0.39,0.25,0.5,0.33,0.25,0.44,0.28,0.28,0.33,0.5,0.39,0.25,0.5,0.44,0.44,0.28,0.25,0.25,0.5,0.5,0.28,0.25,0.28,0.5,0.44,0.5,0.25,0.44,0.28,0.39,0.5,0.25,0.44,0.5,0.5,0.25,0.33,0.5,0.33,0.28,0.5,0.44,0.33,0.25" style="fill:rgb(0,0,0);font-family:STIX-Regular;font-size:10.0px;stroke:none;">for the separation of the major components of citrus peel, but they also add further </text>
   <text y="557.61" x="51.027,55.827,60.267,63.047,68.047,72.487,74.987,76.447,79.307,84.307,87.577,92.577,97.577,102.577,107.577,110.077,111.537,114.397,119.397,123.837,126.337,127.792,132.792,136.062,141.062,146.062,151.062,155.502,158.282,161.062,166.062,171.062,173.562,175.022,180.022,183.352,185.852,187.312,192.232,195.092,200.092,204.532,207.862,210.362,211.822,216.822,219.602,224.602,229.602,232.102,233.562,238.362,242.802,245.582,250.582,255.022,258.352,262.792,267.792,272.792,277.232,282.232,284.732,286.187,291.187,294.457,299.457,304.457,309.457,313.897,316.677,320.567,323.067,325.567,327.027,330.917,335.917,340.197,345.197,347.697,349.157,353.597,357.487,359.987,361.442,366.442,370.882,375.322,378.102,380.882,385.882,388.382" svgx:width="0.5,0.44,0.28,0.5,0.44,0.25,0.55,0.28,0.5,0.33,0.5,0.5,0.5,0.5,0.25,0.55,0.28,0.5,0.44,0.25,0.55,0.5,0.33,0.5,0.5,0.5,0.44,0.28,0.28,0.5,0.5,0.25,0.55,0.5,0.33,0.25,0.55,0.5,0.28,0.5,0.44,0.33,0.25,0.55,0.5,0.28,0.5,0.5,0.25,0.55,0.5,0.44,0.28,0.5,0.44,0.33,0.44,0.5,0.5,0.44,0.5,0.25,0.55,0.5,0.33,0.5,0.5,0.5,0.44,0.28,0.39,0.25,0.25,0.55,0.39,0.5,0.44,0.5,0.25,0.55,0.44,0.39,0.25,0.55,0.5,0.44,0.44,0.28,0.28,0.5,0.25,0.25" style="fill:rgb(0,0,0);font-family:STIX-Regular;font-size:10.0px;stroke:none;">value through the production of other high value-added products, such as pectin, </text>
  </g>
  <g begin="text">
   <text y="569.61" x="51.024" svgx:width="0.72" style="fill:rgb(0,0,0);font-family:STIX-Regular-SC700;font-size:7.0px;stroke:none;">d</text>
  </g>
  <g begin="text">
   <text y="569.61" x="56.077,59.408,62.188,64.967,72.747,77.747,82.747,87.188,92.188,96.628,99.128,100.088,104.528,109.528,114.528,117.028,117.988,122.428,124.928,125.888,129.197,133.637,136.947,141.387,143.887,144.847,147.857,152.857,156.387,164.167,166.667,167.627,172.627,175.957,178.457,179.417,187.197,191.637,195.527,200.527,205.527,210.527,213.797,218.797,223.797,227.687,230.187,231.147,235.587,240.027,242.807,245.587,250.587,253.367,258.367,262.257,266.697,269.197,270.157,277.377,282.377,285.157,289.436,294.436,296.936,297.896,302.336,305.645,310.085,312.585,313.544,318.544,321.814,326.814,331.814,336.814,341.254,345.694,350.694,353.194,354.154,356.934,361.934,364.434,365.394,369.834,372.334,373.294,377.184,379.964,384.964" svgx:width="0.33,0.28,0.28,0.78,0.5,0.5,0.44,0.5,0.44,0.25,0.55,0.44,0.5,0.5,0.25,0.55,0.44,0.25,0.55,0.33,0.44,0.33,0.44,0.25,0.55,0.33,0.5,0.33,0.78,0.25,0.55,0.5,0.33,0.25,0.55,0.78,0.44,0.39,0.5,0.5,0.5,0.33,0.5,0.5,0.39,0.25,0.55,0.44,0.44,0.28,0.28,0.5,0.28,0.5,0.39,0.44,0.25,0.55,0.72,0.5,0.28,0.44,0.5,0.25,0.55,0.44,0.33,0.44,0.25,0.55,0.5,0.33,0.5,0.5,0.5,0.44,0.44,0.5,0.25,0.55,0.28,0.5,0.25,0.55,0.44,0.25,0.55,0.39,0.28,0.5,0.33" style="fill:rgb(0,0,0);font-family:STIX-Regular;font-size:10.0px;stroke:none;">-limonene and a rare form of mesoporous cellulose which are produced in a sin-</text>
   <text y="581.61" x="51.028,56.007,58.787,63.227,66.287,70.097,72.877,77.317,82.317,84.817,87.877,95.097,97.877,100.737,105.737,110.737,115.737,118.517,121.577,126.017,131.017,136.017,140.457,145.457,148.517,152.957,157.397,160.177,165.177,168.237" svgx:width="0.5,0.28,0.44,0.25,0.39,0.28,0.44,0.5,0.25,0.25,0.72,0.28,0.28,0.5,0.5,0.5,0.28,0.25,0.44,0.5,0.5,0.44,0.5,0.25,0.44,0.44,0.28,0.5,0.25,0.33" style="fill:rgb(0,0,0);font-family:STIX-Regular;font-size:10.0px;stroke:none;">gle step, without added acid [</text>
   <text y="581.61" x="171.567,176.567" svgx:width="0.5,0.5" style="fill:rgb(0,0,255);font-family:STIX-Regular;font-size:10.0px;stroke:none;">67</text>
   <text y="581.61" x="181.567,184.897,187.397,190.457,197.677,200.457,205.457,210.457,215.457,218.517,221.377,226.377,230.817,234.707,239.147,242.207,244.987,247.767,252.767,257.207,261.098,263.598,266.658,269.517,274.517,278.957,282.017,286.457,291.457,296.457,300.897,305.337,310.327,313.107,316.167,321.167,324.497,327.557,332.557,336.096,340.917,344.247,349.247,352.027,357.027,360.336,364.776,370.356,375.356,379.796,383.336,388.336" svgx:width="0.33,0.25,0.25,0.72,0.28,0.5,0.5,0.5,0.25,0.28,0.5,0.44,0.39,0.44,0.25,0.28,0.28,0.5,0.44,0.39,0.25,0.25,0.28,0.5,0.44,0.25,0.44,0.5,0.5,0.44,0.44,0.5,0.28,0.25,0.5,0.33,0.25,0.5,0.33,0.5,0.33,0.5,0.28,0.5,0.33,0.44,0.56,0.5,0.44,0.33,0.5,0.25" style="fill:rgb(0,0,0);font-family:STIX-Regular;font-size:10.0px;stroke:none;">]. Along these lines, the concept of dry-biorefinery </text>
   <text y="593.61" x="51.028,53.807,57.697,60.197,62.197,67.087,71.527,74.307,79.307,82.087,87.087,92.087,94.587,96.587,104.367,109.367,117.147,121.587,126.587,129.367,134.367,142.147,144.647,147.147,149.147,153.037,155.817,160.817,165.257,169.697,172.197,174.197,178.997,183.438,186.217,191.217,195.658,200.658,203.438,207.878,210.378,212.378,217.378,220.648,225.648,230.648,235.648,240.088,242.868,246.758,249.258,251.258,255.698,260.138,265.138,267.638,269.638,274.638,279.078,281.578,283.578,286.888,291.328,295.768,300.547,305.307,309.747,313.056,317.496,322.496,324.996,326.996,330.326,333.596,338.596,346.376,348.876,350.876,355.876,358.656,363.096,368.096,370.876,373.376,375.376,380.176,384.996" svgx:width="0.28,0.39,0.25,0.55,0.5,0.44,0.28,0.5,0.28,0.5,0.5,0.25,0.55,0.78,0.5,0.78,0.44,0.5,0.28,0.5,0.78,0.25,0.25,0.55,0.39,0.28,0.5,0.44,0.44,0.25,0.55,0.5,0.44,0.28,0.5,0.44,0.5,0.28,0.44,0.25,0.55,0.5,0.33,0.5,0.5,0.5,0.44,0.28,0.39,0.25,0.55,0.44,0.44,0.5,0.25,0.55,0.5,0.44,0.25,0.55,0.33,0.44,0.44,0.5,0.5,0.44,0.33,0.44,0.5,0.25,0.55,0.33,0.33,0.5,0.78,0.25,0.55,0.5,0.28,0.44,0.5,0.28,0.25,0.55,0.5,0.5,0.33" style="fill:rgb(0,0,0);font-family:STIX-Regular;font-size:10.0px;stroke:none;">is gaining momentum, since valuable products can be recovered from plant by-</text>
   <text y="605.61" x="51.028,56.028,59.297,64.298,69.298,74.298,78.738,81.518,85.408,88.247,95.467,98.247,101.107,106.107,111.107,116.107,118.887,121.727,126.167,131.167,136.167,138.947,143.947,148.947,151.787,155.677,160.677,163.247,168.007,172.447,177.447,180.227,184.117,186.957,191.957,195.287,198.127,205.067,209.507,212.287,216.727,219.797,222.297,225.137,230.137,234.027,236.807,241.807,246.807,249.647,254.747,258.057,262.497,266.938,271.938,274.777,279.777,283.047,288.047,292.487,296.927,300.818,304.708,309.148,313.038,315.878,319.768,324.768,329.048,334.048,336.888,341.328,345.218,348.058,356.948,366.388,369.228" svgx:width="0.5,0.33,0.5,0.5,0.5,0.44,0.28,0.39,0.25,0.72,0.28,0.28,0.5,0.5,0.5,0.28,0.25,0.44,0.5,0.5,0.28,0.5,0.5,0.25,0.39,0.5,0.28,0.5,0.44,0.5,0.28,0.39,0.25,0.5,0.33,0.25,0.72,0.44,0.28,0.44,0.33,0.25,0.25,0.5,0.39,0.28,0.5,0.5,0.25,0.5,0.33,0.44,0.44,0.5,0.25,0.5,0.33,0.5,0.44,0.44,0.39,0.39,0.44,0.39,0.25,0.39,0.5,0.44,0.5,0.25,0.44,0.39,0.25,0.89,0.94,0.25,0.33" style="fill:rgb(0,0,0);font-family:STIX-Regular;font-size:10.0px;stroke:none;">products without adding solvents or water, using green processes such as MW [</text>
   <text y="605.61" x="372.558,377.558" svgx:width="0.5,0.5" style="fill:rgb(0,0,255);font-family:STIX-Regular;font-size:10.0px;stroke:none;">56</text>
   <text y="605.61" x="382.558,385.888,388.388" svgx:width="0.33,0.25,0.25" style="fill:rgb(0,0,0);font-family:STIX-Regular;font-size:10.0px;stroke:none;">]. </text>
  </g>
 </g>
</svg>
