<?xml version="1.0" encoding="UTF-8"?>
<svg height="643.058" width="400.379" xmlns="http://www.w3.org/2000/svg">
 <g id="page" xmlns:svgx="http://www.xml-cml.org/schema/svgx">
  <g begin="text">
   <text y="39.057" x="281.955,286.587,290.587,294.587,296.587,301.923,305.923,308.795,311.459,313.459,318.795,322.795,326.347,332.571,334.571,337.235,342.131,344.795,346.795,349.459,353.459,357.459,361.459,365.459,368.123,370.123,374.123,378.123,382.123,384.347" svgx:width="0.61,0.5,0.5,0.25,0.67,0.5,0.33,0.33,0.25,0.67,0.5,0.44,0.78,0.25,0.33,0.61,0.33,0.25,0.33,0.5,0.5,0.5,0.5,0.33,0.25,0.5,0.5,0.5,0.28,0.5" style="fill:rgb(0,0,0);font-family:STIX-Regular;font-size:8.0px;stroke:none;">Top Curr Chem (Z) (2018) 376:3</text>
  </g>
  <path style="fill:none;stroke:rgb(0,0,0);stroke-width:1.0;" d="M51.020 45.790 L388.350 45.790 "/>
  <g begin="text">
   <text y="633.058" x="52.498,59.608,63.538" svgx:width="0.47,0.28,1.97" style="fill:rgb(0,0,0);font-family:Springnew-Regular;font-size:15.0px;stroke:none;">1 3</text>
  </g>
  <g begin="text">
   <text y="39.128" x="51.024" svgx:width="0.5" style="fill:rgb(0,0,0);font-family:STIX-Bold;font-size:8.0px;stroke:none;">3</text>
   <text y="39.128" x="55.024,57.024,63.024,67.4,70.952,74.832,78.384,80.384,84.384,88.384,90.384,94.384,97.048,99.048,103.048" svgx:width="0.25,0.55,0.56,0.44,0.5,0.44,0.25,0.5,0.5,0.25,0.5,0.33,0.25,0.5,0.5" style="fill:rgb(0,0,0);font-family:STIX-Regular;font-size:8.0px;stroke:none;"> Page 54 of 54</text>
   <text y="64.112" x="51.024,51.824,55.824,59.824,63.824,65.824,67.824,71.528,76.416,80.416,83.968,87.52,91.52,95.52,98.184,102.632,106.184,110.184,113.607,117.607,121.159,124.711,126.711,127.895,130.879,132.879,134.879,136.059,141.835,144.059,147.611,153.835,157.835,161.387,165.387,168.939,171.163,173.387,175.611,177.611,178.791,183.679,185.679,187.679,188.859,194.635,198.635,200.859,203.507,207.059,211.059,213.283,216.835,219.947,222.611,227.067,229.291,233.291,236.843,238.843,240.022,245.358,247.358,249.358,250.542,255.878,259.43,262.301,264.949,268.429,270.733,274.285,278.285,280.509,282.509,283.689,288.577,290.577,292.577,293.761,299.097,302.649,306.649,310.649,312.873,316.873,319.097,321.097,322.277,328.037,330.037,332.037,333.217,337.665,341.217,345.217,349.217,351.865,355.417,358.081,363.417,366.969,369.84,372.488,375.968,378.192,381.744,384.36,388.36" svgx:width="0.25,0.5,0.5,0.5,0.25,0.25,0.55,0.61,0.5,0.44,0.44,0.5,0.5,0.33,0.56,0.44,0.5,0.44,0.5,0.44,0.44,0.25,0.55,0.37,0.25,0.25,0.55,0.72,0.28,0.44,0.78,0.5,0.44,0.5,0.44,0.28,0.28,0.28,0.25,0.55,0.61,0.25,0.25,0.55,0.72,0.5,0.28,0.33,0.44,0.5,0.28,0.44,0.39,0.33,0.56,0.28,0.5,0.44,0.25,0.55,0.67,0.25,0.25,0.55,0.67,0.44,0.33,0.33,0.44,0.28,0.44,0.5,0.28,0.25,0.55,0.61,0.25,0.25,0.55,0.67,0.44,0.5,0.5,0.28,0.5,0.28,0.25,0.55,0.72,0.25,0.25,0.55,0.56,0.44,0.5,0.5,0.33,0.44,0.33,0.67,0.44,0.33,0.33,0.44,0.28,0.44,0.33,0.5,0.25" style="fill:rgb(0,0,0);font-family:STIX-Regular;font-size:8.0px;stroke:none;"> 207. Lozano-Sánchez J, Giambanelli E, Quirantes-Piné R, Cerretani L, Bendini A, Segura-Carretero </text>
   <text y="73.608" x="71.528,77.288,79.288,81.436,85.852,89.404,92.236,96.236,99.788,103.788,107.788,111.34,114.892,117.556,123.332,127.332,129.556,131.78,135.332,138.203,140.851,144.403,147.955,150.103,155.879,158.031,160.695,164.695,168.695,172.695,176.695,179.359,181.507,188.579,192.131,195.179,197.403,200.955,204.067,206.215,210.095,213.647,217.647,221.199,223.847,227.399,229.623,233.175,237.175,239.323,243.323,247.323,250.139,252.363,256.363,260.363,262.515,264.803,268.803,272.355,274.503,277.551,279.759,283.759,286.407,289.959,293.839,297.391,299.539,303.539,306.203,308.355,311.739,315.739,317.963,320.611,324.163,326.311,330.311,332.535,335.071,339.071,341.295,345.295,347.447,351.447,353.671,355.895,359.703,363.255,365.403,369.403,371.627,373.851,376.003,379.555,382.667,384.815,388.367" svgx:width="0.72,0.25,0.25,0.56,0.44,0.33,0.5,0.44,0.5,0.5,0.44,0.44,0.33,0.72,0.5,0.28,0.28,0.44,0.33,0.33,0.44,0.44,0.25,0.72,0.25,0.33,0.5,0.5,0.5,0.5,0.33,0.25,0.94,0.44,0.39,0.28,0.44,0.39,0.25,0.5,0.44,0.5,0.44,0.33,0.44,0.28,0.44,0.5,0.25,0.5,0.5,0.33,0.28,0.5,0.5,0.25,0.28,0.5,0.44,0.25,0.39,0.28,0.5,0.33,0.44,0.5,0.44,0.25,0.5,0.33,0.25,0.44,0.5,0.28,0.33,0.44,0.25,0.5,0.28,0.33,0.5,0.28,0.5,0.25,0.5,0.28,0.28,0.5,0.44,0.25,0.5,0.28,0.28,0.25,0.44,0.39,0.25,0.44,0.25" style="fill:rgb(0,0,0);font-family:STIX-Regular;font-size:8.0px;stroke:none;">A, Fernández-Gutiérrez A (2011) Wastes generated during the storage of extra virgin olive oil as a </text>
   <text y="83.104" x="71.528,75.528,79.08,81.304,85.304,87.952,91.504,93.728,95.728,98.84,102.84,106.84,109.488,113.04,116.592,118.592,122.592,125.256,127.256,131.256,135.256,138.808,142.808,146.808,149.032,151.256,154.808,156.808,160.36,164.36,170.559,174.559,178.559,182.559,186.559,190.559,193.671,195.671,197.671,200.655,202.655,208.334,212.414,215.23,217.454,221.006,223.006,227.414,231.414,235.414,239.414,241.414,246.75,250.75,254.302,260.526,262.526,266.526,270.526,272.75,276.75,280.75,284.75,288.75,292.75,296.75,300.75,304.75,308.75,312.75" svgx:width="0.5,0.44,0.28,0.5,0.33,0.44,0.28,0.25,0.39,0.5,0.5,0.33,0.44,0.44,0.25,0.5,0.33,0.25,0.5,0.5,0.44,0.5,0.5,0.28,0.28,0.44,0.25,0.44,0.5,0.78,0.5,0.5,0.5,0.5,0.5,0.39,0.25,0.25,0.37,0.25,0.72,0.5,0.33,0.28,0.44,0.25,0.56,0.5,0.5,0.5,0.25,0.67,0.5,0.44,0.78,0.25,0.5,0.5,0.28,0.5,0.5,0.5,0.5,0.5,0.5,0.5,0.5,0.5,0.5,0.5" style="fill:rgb(0,0,0);font-family:STIX-Regular;font-size:8.0px;stroke:none;">natural source of phenolic compounds. J Agric Food Chem 59:11491–11500</text>
   <text y="92.6" x="51.024,51.824,55.824,59.824,63.824,65.824,67.824,71.528,76.864,80.864,84.416,90.64,94.192,96.416,99.08,104.856,107.08,110.632,114.632,118.632,120.856,122.856,124.216,129.112,131.112,133.112,134.472,138.888,142.44,145.087,149.087,152.639,154.863,156.863,158.223,165.335,171.095,173.095,175.095,176.455,181.087,185.087,191.311,194.863,198.863,200.863,202.223,207.199,209.199,211.199,212.559,217.895,221.895,225.447,231.671,235.223,237.447,239.447,240.807,245.255,247.255,248.615,251.279,255.279,259.279,263.279,267.279,269.943,271.943,273.303,278.639,282.191,284.807,288.743,290.967,294.519,298.519,302.519,304.743,308.743,310.743,312.103,315.487,319.487,321.711,324.359,327.911,331.463,333.687,335.911,339.911,343.911,345.911,347.271,349.935,352.551,356.551,362.775,364.775,366.135,368.343,372.343,378.567,382.119,384.327,388.327" svgx:width="0.25,0.5,0.5,0.5,0.25,0.25,0.55,0.67,0.5,0.44,0.78,0.44,0.28,0.33,0.72,0.28,0.44,0.5,0.5,0.28,0.25,0.55,0.61,0.25,0.25,0.55,0.56,0.44,0.33,0.5,0.44,0.28,0.25,0.55,0.89,0.72,0.25,0.25,0.55,0.61,0.5,0.78,0.44,0.5,0.25,0.55,0.72,0.25,0.25,0.55,0.67,0.5,0.44,0.78,0.44,0.28,0.25,0.55,0.56,0.25,0.55,0.33,0.5,0.5,0.5,0.5,0.33,0.25,0.55,0.67,0.44,0.33,0.5,0.28,0.44,0.5,0.5,0.28,0.5,0.25,0.55,0.44,0.5,0.28,0.33,0.44,0.44,0.28,0.28,0.5,0.5,0.25,0.55,0.33,0.33,0.5,0.78,0.25,0.55,0.28,0.5,0.78,0.44,0.28,0.5,0.25" style="fill:rgb(0,0,0);font-family:STIX-Regular;font-size:8.0px;stroke:none;"> 208. Chemat-Djenni Z, Ferhat MA, Tomao V, Chemat F (2010) Carotenoid extraction from tomato </text>
   <text y="102.096" x="71.528,75.528,78.64,80.864,84.864,88.864,90.864,94.416,96.416,100.496,103.144,106.696,110.248,114.248,116.248,119.36,123.36,125.415,129.223,132.775,136.775,138.999,140.999,143.647,147.199,150.311,154.311,156.535,158.759,160.983,164.983,168.983,170.983,173.647,176.263,180.263,186.487,188.487,192.487,195.135,198.687,202.687,206.567,210.119,212.119,216.119,218.734,222.734,226.286,229.838,232.95,236.062,238.286,242.286,246.286,248.286,253.838,257.39,260.438,262.662,266.214,268.214,270.214,273.198,275.198,280.086,283.198,286.31,289.862,293.862,296.086,298.086,303.862,306.086,308.31,310.31,315.646,319.198,322.75,325.414,327.414,331.87,334.094,337.646,341.646,343.87,346.982,348.982,352.982,356.982,359.206,363.206,367.206,371.206,375.206,379.206,383.206" svgx:width="0.5,0.39,0.28,0.5,0.5,0.25,0.44,0.25,0.5,0.33,0.44,0.44,0.5,0.25,0.39,0.5,0.28,0.5,0.44,0.5,0.28,0.25,0.33,0.44,0.39,0.5,0.28,0.28,0.28,0.5,0.5,0.25,0.33,0.33,0.5,0.78,0.25,0.5,0.33,0.44,0.5,0.5,0.44,0.25,0.5,0.33,0.5,0.44,0.44,0.39,0.39,0.28,0.5,0.5,0.25,0.72,0.44,0.39,0.28,0.44,0.25,0.25,0.37,0.25,0.61,0.39,0.39,0.44,0.5,0.28,0.25,0.72,0.28,0.28,0.25,0.67,0.44,0.44,0.33,0.25,0.56,0.28,0.44,0.5,0.28,0.39,0.25,0.5,0.5,0.28,0.5,0.5,0.5,0.5,0.5,0.5,0.5" style="fill:rgb(0,0,0);font-family:STIX-Regular;font-size:8.0px;stroke:none;">using a green solvent resulting from orange processing waste. J Essent Oil Bear Plants 13:139–147</text>
   <text y="111.592" x="51.024,51.824,55.824,59.824,63.824,65.824,67.824,71.528,76.128,79.24,83.24,87.248,90.584,94.464,98.016,104.24,107.792,109.792,111.528,118.64,120.64,122.64,124.376,128.824,132.376,135.488,139.04,143.04,145.264,147.264,149.0,153.672,155.672,157.672,159.408,164.544,168.096,174.32,177.872,184.096,188.032,190.24,194.24,196.24,197.976,203.752,205.752,207.752,209.488,215.272,218.56,224.111,227.663,233.887,237.887,240.535,244.087,246.087,247.823,252.999,254.999,256.999,258.735,261.399,264.823,268.823,271.047,275.055,278.343,283.895,287.447,289.447,291.183,296.519,298.519,300.255,302.919,306.919,310.919,314.919,318.919,321.583,323.583,325.319,332.431,334.655,338.207,340.823,344.647,350.199,353.495,357.303,360.855,363.519,367.071,370.183,373.295,375.519,378.566,380.79,384.342,388.342" svgx:width="0.25,0.5,0.5,0.5,0.25,0.25,0.55,0.61,0.39,0.5,0.5,0.44,0.5,0.44,0.78,0.44,0.25,0.55,0.89,0.25,0.25,0.55,0.56,0.44,0.39,0.44,0.5,0.28,0.25,0.55,0.61,0.25,0.25,0.55,0.72,0.44,0.78,0.44,0.78,0.5,0.28,0.5,0.25,0.55,0.72,0.25,0.25,0.55,0.72,0.44,0.72,0.44,0.78,0.5,0.33,0.44,0.25,0.55,0.72,0.25,0.25,0.55,0.33,0.44,0.5,0.28,0.5,0.44,0.72,0.44,0.25,0.55,0.67,0.25,0.55,0.33,0.5,0.5,0.5,0.5,0.33,0.25,0.55,0.89,0.28,0.44,0.33,0.5,0.72,0.44,0.5,0.44,0.33,0.44,0.39,0.39,0.28,0.39,0.28,0.44,0.5,0.25" style="fill:rgb(0,0,0);font-family:STIX-Regular;font-size:8.0px;stroke:none;"> 209. Tsukayama M, Sasaki T, Yamamoto K, Kawamura Y, Ichikawa R (2010) Microwave-assisted </text>
   <text y="121.088" x="71.528,74.912,78.912,81.136,83.784,87.336,90.888,93.112,95.336,99.336,103.336,105.456,109.008,113.008,117.008,119.128,125.352,128.831,131.119,134.96,138.816,141.04,144.592,146.816,149.04,153.04,157.04,159.16,163.16,165.824,167.944,171.944,175.056,178.608,181.272,185.272,187.496,189.616,194.064,197.36,201.144,205.144,209.144,212.696,215.808,217.928,220.592,223.208,227.208,233.432,235.552,241.104,244.656,247.703,249.927,253.479,255.599,259.599,263.151,266.703,268.927,272.039,274.159,278.159,280.823,282.943,286.495,288.719,290.943,293.798,297.798,300.91,303.03,306.142,310.142,314.142,317.694,321.118,325.118,327.342,329.342,331.462,337.238,339.462,343.462,347.462,351.462,355.462,357.582,362.03,366.03,370.03,374.142,378.142,382.142,384.366,388.366" svgx:width="0.44,0.5,0.28,0.33,0.44,0.44,0.28,0.28,0.5,0.5,0.25,0.44,0.5,0.5,0.25,0.78,0.44,0.28,0.5,0.5,0.28,0.44,0.28,0.28,0.5,0.5,0.25,0.5,0.33,0.25,0.5,0.39,0.44,0.33,0.5,0.28,0.25,0.56,0.44,0.5,0.5,0.5,0.44,0.39,0.25,0.33,0.33,0.5,0.78,0.25,0.72,0.44,0.39,0.28,0.44,0.25,0.5,0.44,0.44,0.28,0.39,0.25,0.5,0.33,0.25,0.44,0.28,0.28,0.33,0.5,0.39,0.25,0.39,0.5,0.5,0.44,0.44,0.5,0.28,0.25,0.25,0.72,0.28,0.5,0.5,0.5,0.5,0.25,0.56,0.5,0.5,0.5,0.5,0.5,0.28,0.5,0.25" style="fill:rgb(0,0,0);font-family:STIX-Regular;font-size:8.0px;stroke:none;">extraction and methylation of useful flavones from waste peels of citrus sudachi. Nippon Shokuhin </text>
   <text y="130.584" x="71.528,77.312,80.864,84.776,88.328,92.439,96.439,98.439,104.095,108.095,112.007,115.559,119.671,123.671,125.671,131.455,135.007,137.231,140.343,144.343,146.567,148.567,152.567,156.567,158.791,162.791,166.791,170.791,174.791,178.791,182.791" svgx:width="0.72,0.44,0.5,0.44,0.5,0.5,0.25,0.72,0.5,0.5,0.44,0.5,0.5,0.25,0.72,0.44,0.28,0.39,0.5,0.28,0.25,0.5,0.5,0.28,0.5,0.5,0.5,0.5,0.5,0.5,0.5" style="fill:rgb(0,0,0);font-family:STIX-Regular;font-size:8.0px;stroke:none;">Kagaku Kogaku Kaishi 57:427–433</text>
   <text y="140.08" x="51.024,51.824,55.824,59.824,63.824,65.824,67.824,71.528,77.144,79.368,82.92,85.144,87.792,91.344,93.344,95.264,102.376,108.136,110.136,112.136,114.056,121.168,124.72,127.368,130.92,134.032,137.456,141.456,143.68,147.68,149.68,151.6,158.712,160.712,162.712,164.632,169.008,172.56,176.544,178.768,180.992,184.992,188.104,191.656,193.656,195.576,200.912,208.024,210.024,212.024,213.944,218.272,222.272,226.272,229.824,232.872,235.176,238.728,240.728,242.648,247.984,249.984,251.984,253.904,259.68,263.232,265.232,267.152,271.6,273.824,280.048,283.6,286.712,288.712,290.632,296.408,302.088,304.088,306.088,308.008,313.152,317.152,320.528,324.424,327.976,331.976,335.976,339.528,342.951,346.951,348.951,350.871,353.535,356.199,358.199,360.199,362.119,367.895,374.119,378.119,382.119,386.119,388.343" svgx:width="0.25,0.5,0.5,0.5,0.25,0.25,0.55,0.72,0.28,0.44,0.28,0.33,0.44,0.25,0.55,0.89,0.72,0.25,0.25,0.55,0.89,0.44,0.33,0.44,0.39,0.44,0.5,0.28,0.5,0.25,0.55,0.89,0.25,0.25,0.55,0.56,0.44,0.5,0.28,0.28,0.5,0.39,0.44,0.25,0.55,0.67,0.89,0.25,0.25,0.55,0.56,0.5,0.5,0.44,0.39,0.28,0.44,0.25,0.55,0.67,0.25,0.25,0.55,0.72,0.44,0.25,0.55,0.56,0.28,0.78,0.44,0.39,0.25,0.55,0.72,0.72,0.25,0.25,0.55,0.67,0.5,0.44,0.5,0.44,0.5,0.5,0.44,0.44,0.5,0.25,0.55,0.33,0.33,0.25,0.25,0.55,0.72,0.78,0.5,0.5,0.5,0.28,0.25" style="fill:rgb(0,0,0);font-family:STIX-Regular;font-size:8.0px;stroke:none;"> 210. Vieira MA, Maraschin M, Pagliosa CM, Podestá R, De Simas KN, Rockenbach II, Amboni </text>
   <text y="149.576" x="71.528,76.864,82.64,89.752,95.088,97.088,99.056,104.832,111.056,114.608,118.608,120.832,124.384,126.352,131.24,136.576,138.544,141.208,145.208,149.208,153.208,157.208,159.872,161.84,166.296,170.296,173.848,177.848,181.848,184.072,186.296,189.848,191.816,195.368,198.92,201.144,205.144,208.256,210.224,213.776,217.776,221.776,223.744,229.968,233.448,235.736,239.576,243.432,245.656,249.568,253.12,257.12,259.408,263.408,265.632,269.632,273.184,276.296,278.264,281.816,285.816,292.016,296.016,300.016,303.128,305.352,307.576,309.8,313.8,317.8,319.768,323.32,327.32,331.32,333.288,336.84,340.84,343.064,345.288,349.112,353.112,355.336,359.336,362.888,366.888,369.112,371.08,375.08,377.696,381.696,385.696" svgx:width="0.67,0.72,0.89,0.67,0.25,0.25,0.72,0.78,0.44,0.5,0.28,0.44,0.25,0.61,0.67,0.25,0.33,0.5,0.5,0.5,0.5,0.33,0.25,0.56,0.5,0.44,0.5,0.5,0.28,0.28,0.44,0.25,0.44,0.44,0.28,0.5,0.39,0.25,0.44,0.5,0.5,0.25,0.78,0.44,0.28,0.5,0.5,0.28,0.5,0.44,0.5,0.28,0.5,0.28,0.5,0.44,0.39,0.25,0.44,0.5,0.78,0.5,0.5,0.39,0.28,0.28,0.28,0.5,0.5,0.25,0.44,0.5,0.5,0.25,0.44,0.5,0.28,0.28,0.5,0.5,0.28,0.5,0.44,0.5,0.28,0.25,0.5,0.33,0.5,0.5,0.33" style="fill:rgb(0,0,0);font-family:STIX-Regular;font-size:8.0px;stroke:none;">RDMC, Amante ER (2010) Phenolic acids and methylxanthines composition and antioxidant prop-</text>
   <text y="159.072" x="71.528,75.08,77.928,80.152,82.376,85.928,89.04,91.04,95.04,97.704,99.704,105.928,109.48,111.704,115.256,117.256" svgx:width="0.44,0.33,0.28,0.28,0.44,0.39,0.25,0.5,0.33,0.25,0.78,0.44,0.28,0.44,0.25,0.33" style="fill:rgb(0,0,0);font-family:STIX-Regular;font-size:8.0px;stroke:none;">erties of mate (</text>
   <text y="159.072" x="119.92,122.584,124.808,128.264,131.816,133.816,137.848,141.856,144.743,148.751,152.751,156.751,160.759,163.935,166.159,169.711,173.711,176.823,179.047" svgx:width="0.33,0.28,0.44,0.44,0.25,0.5,0.5,0.39,0.5,0.5,0.5,0.5,0.39,0.28,0.44,0.5,0.39,0.28,0.39" style="fill:rgb(0,0,0);font-family:STIX-Italic;font-size:8.0px;stroke:none;">Ilex paraguariensis</text>
   <text y="159.072" x="182.159,184.823,186.823,189.471,193.023,196.135,198.359,202.359,206.359,209.911,211.911,213.911,216.895,218.895,223.302,227.302,231.302,235.302,237.302,241.75,245.302,247.526,249.526,253.526,257.526,259.75,265.086,269.086,273.086,277.086,281.086,286.422,290.422,294.422" svgx:width="0.33,0.25,0.33,0.44,0.39,0.28,0.5,0.5,0.44,0.25,0.25,0.37,0.25,0.56,0.5,0.5,0.5,0.25,0.56,0.44,0.28,0.25,0.5,0.5,0.28,0.67,0.5,0.5,0.5,0.5,0.67,0.5,0.5,0.5" style="fill:rgb(0,0,0);font-family:STIX-Regular;font-size:8.0px;stroke:none;">) residue. J Food Sci 75:C280–C285</text>
   <text y="168.568" x="51.024,51.824,55.824,59.824,63.824,65.824,67.824,71.528,75.976,79.976,83.976,86.28,93.352,96.904,99.128,102.68,105.327,109.327,113.327,117.327,120.439,123.991,125.911,131.687,133.687,135.607,142.679,146.231,150.231,152.151,154.815,156.815,158.735,166.183,168.407,172.407,174.631,177.743,181.743,185.743,189.743,191.663,196.999,198.999,200.919,208.031,211.583,213.807,216.015,220.015,224.015,225.935,230.823,236.599,238.599,240.519,247.591,251.143,255.143,259.143,264.695,268.247,270.167,274.615,276.535,279.199,283.199,287.199,291.199,295.199,297.863,299.783,304.671,308.511,312.063,314.287,318.287,321.839,324.063,326.287,330.287,334.287,336.207,340.207,342.871,344.791,347.079,351.079,354.631,356.551,359.935,363.935,366.159,368.807,372.359,375.911,378.135,380.359,384.359,388.359" svgx:width="0.25,0.5,0.5,0.5,0.25,0.25,0.55,0.56,0.5,0.5,0.33,0.94,0.44,0.28,0.44,0.33,0.5,0.5,0.5,0.39,0.44,0.25,0.72,0.25,0.25,0.94,0.44,0.5,0.25,0.33,0.25,0.25,0.94,0.28,0.5,0.28,0.39,0.5,0.5,0.5,0.25,0.67,0.25,0.25,0.89,0.44,0.28,0.28,0.5,0.5,0.25,0.61,0.72,0.25,0.25,0.94,0.44,0.5,0.5,0.72,0.44,0.25,0.56,0.25,0.33,0.5,0.5,0.5,0.5,0.33,0.25,0.61,0.5,0.44,0.28,0.5,0.44,0.28,0.28,0.5,0.5,0.25,0.5,0.33,0.25,0.28,0.5,0.44,0.25,0.44,0.5,0.28,0.33,0.44,0.44,0.28,0.28,0.5,0.5,0.25" style="fill:rgb(0,0,0);font-family:STIX-Regular;font-size:8.0px;stroke:none;"> 211. Sun-Waterhouse D, Wen I, Wibisono R, Melton LD, Wadhwa S (2009) Evaluation of the extraction </text>
   <text y="178.064" x="71.528,75.08,81.736,85.288,87.512,91.064,95.064,98.616,102.616,104.696,107.104,111.104,113.768,115.848,119.848,123.848,125.904,129.904,133.904,137.904,141.456,145.456,149.456,151.68,153.76,157.144,161.144,163.368,166.016,169.568,173.12,175.344,178.456,180.536,183.2,185.815,189.815,196.039,198.119,201.959,205.815,208.479,212.479,215.095,219.095,223.095,227.095,230.647,232.871,235.983,238.063,242.063,244.727,246.807,250.887,253.535,257.087,260.639,264.639,266.719,270.719,272.943,278.719,280.943,283.607,286.463,290.463,292.687,294.911,296.991,299.215,303.215,305.439,308.991,311.215,315.215,319.215,321.215,323.295,325.959,329.959,332.183,334.263,337.247,339.327,343.735,347.735,351.735,355.735,357.815,362.263,365.815,368.039,370.119,374.679,378.231,381.654,385.654" svgx:width="0.44,0.83,0.44,0.28,0.44,0.5,0.44,0.5,0.25,0.33,0.5,0.33,0.25,0.5,0.5,0.28,0.5,0.5,0.5,0.44,0.5,0.5,0.28,0.25,0.44,0.5,0.28,0.33,0.44,0.44,0.28,0.39,0.25,0.33,0.33,0.5,0.78,0.25,0.5,0.5,0.33,0.5,0.33,0.5,0.5,0.5,0.44,0.28,0.39,0.25,0.5,0.33,0.25,0.5,0.33,0.44,0.44,0.5,0.25,0.5,0.28,0.72,0.28,0.33,0.33,0.5,0.28,0.28,0.25,0.28,0.5,0.28,0.44,0.28,0.5,0.5,0.25,0.25,0.33,0.5,0.28,0.25,0.37,0.25,0.56,0.5,0.5,0.5,0.25,0.56,0.44,0.28,0.25,0.61,0.44,0.44,0.5,0.33" style="fill:rgb(0,0,0);font-family:STIX-Regular;font-size:8.0px;stroke:none;">efficiency for polyphenol extracts from by-products of green kiwifruit juicing. Int J Food Sci Tech-</text>
   <text y="187.56" x="71.528,75.528,79.528,81.752,83.752,87.752,91.752,93.976,97.976,101.976,105.976,109.976,113.976,117.976,121.976,125.976" svgx:width="0.5,0.5,0.28,0.25,0.5,0.5,0.28,0.5,0.5,0.5,0.5,0.5,0.5,0.5,0.5,0.5" style="fill:rgb(0,0,0);font-family:STIX-Regular;font-size:8.0px;stroke:none;">nol 44:2644–2652</text>
   <text y="197.056" x="51.024,51.824,55.824,59.824,63.824,65.824,67.824,71.528,76.864,80.864,84.416,86.64,88.584,93.92,95.92,97.864,103.64,107.64,111.192,113.416,115.64,117.864,119.808,125.584,130.04,134.248,140.007,142.007,143.951,149.735,153.287,156.102,158.326,164.55,166.494,172.27,178.046,179.99,182.654,186.654,190.654,194.654,198.654,201.318,203.262,208.15,212.15,216.15,218.374,222.374,225.19,227.414,231.414,235.414,237.358,239.646,243.646,247.198,249.142,252.694,256.694,258.918,261.142,264.966,268.966,271.19,275.19,278.742,282.742,284.966,286.91,290.91,294.846,297.07,300.622,304.622,306.846,309.07,312.622,314.846,316.79,320.79,323.454,325.398,327.622,329.846,333.846,337.846,340.07,344.07,346.014,348.238,351.35,355.35,357.574,361.126,363.35,366.902,370.902,372.846,375.51,378.126,382.126,388.35" svgx:width="0.25,0.5,0.5,0.5,0.25,0.25,0.55,0.67,0.5,0.44,0.28,0.25,0.67,0.25,0.25,0.72,0.5,0.44,0.28,0.28,0.28,0.25,0.72,0.56,0.56,0.72,0.25,0.25,0.72,0.44,0.33,0.28,0.78,0.25,0.72,0.72,0.25,0.33,0.5,0.5,0.5,0.5,0.33,0.25,0.61,0.5,0.5,0.28,0.5,0.33,0.28,0.5,0.5,0.25,0.28,0.5,0.44,0.25,0.44,0.5,0.28,0.28,0.5,0.5,0.28,0.5,0.44,0.5,0.28,0.25,0.5,0.5,0.28,0.44,0.5,0.28,0.28,0.44,0.28,0.25,0.5,0.33,0.25,0.28,0.28,0.5,0.5,0.28,0.5,0.25,0.28,0.39,0.5,0.28,0.44,0.28,0.44,0.5,0.25,0.33,0.33,0.5,0.78,0.25" style="fill:rgb(0,0,0);font-family:STIX-Regular;font-size:8.0px;stroke:none;"> 212. Bhat R, Khalil HPSA, Karim AA (2009) Exploring the antioxidant potential of lignin isolated from </text>
   <text y="206.552" x="71.528,75.528,77.752,81.304,84.68,88.68,90.68,92.904,95.128,99.024,103.024,107.024,109.688,111.688,115.688,118.352,120.352,124.352,126.576,128.8,130.8,134.8,138.352,140.576,146.8,148.8,154.351,157.903,160.951,163.175,166.727,168.727,170.727,176.063,178.063,183.399,185.399,190.735,192.959,196.959,199.183,201.183,205.183,209.183,213.183,215.407,219.407,223.407,227.407,231.407,235.407,239.407" svgx:width="0.5,0.28,0.44,0.44,0.5,0.25,0.28,0.28,0.5,0.5,0.5,0.33,0.25,0.5,0.33,0.25,0.5,0.28,0.28,0.25,0.5,0.44,0.28,0.78,0.25,0.72,0.44,0.39,0.28,0.44,0.25,0.25,0.67,0.25,0.67,0.25,0.67,0.28,0.5,0.28,0.25,0.5,0.5,0.5,0.28,0.5,0.5,0.5,0.5,0.5,0.5,0.5" style="fill:rgb(0,0,0);font-family:STIX-Regular;font-size:8.0px;stroke:none;">black liquor of oil palm waste. C R Biol 332:827–831</text>
   <text y="216.048" x="51.024,51.824,55.824,59.824,63.824,65.824,67.824,71.528,78.976,80.928,83.152,87.152,91.064,94.616,98.168,100.816,104.816,106.936,112.712,114.712,116.832,122.168,125.024,129.024,133.024,135.232,139.232,143.232,145.352,151.128,153.248,155.912,159.912,163.912,167.912,171.912,174.576,176.696,181.584,185.584,189.136,191.256,195.256,199.248,201.472,203.696,209.92,212.144,215.696,219.248,221.472,223.696,227.696,231.696,233.816,237.816,240.48,242.6,245.984,249.984,252.208,254.856,258.408,261.96,264.184,266.408,270.408,274.408,276.528,280.528,283.192,285.312,288.864,292.864,295.088,297.312,301.136,305.136,307.36,311.36,314.912,318.912,321.136,324.248,326.368,329.032,331.648,335.648,341.872,343.992,347.544,351.544,355.544,357.768,361.32,363.44,367.44,371.44,377.664,381.216,384.768,388.32" svgx:width="0.25,0.5,0.5,0.5,0.25,0.25,0.55,0.94,0.28,0.28,0.5,0.5,0.44,0.44,0.33,0.5,0.25,0.72,0.25,0.25,0.67,0.33,0.5,0.5,0.28,0.5,0.5,0.25,0.72,0.25,0.33,0.5,0.5,0.5,0.5,0.33,0.25,0.61,0.5,0.44,0.25,0.5,0.5,0.28,0.28,0.78,0.28,0.44,0.44,0.28,0.28,0.5,0.5,0.25,0.5,0.33,0.25,0.44,0.5,0.28,0.33,0.44,0.44,0.28,0.28,0.5,0.5,0.25,0.5,0.33,0.25,0.44,0.5,0.28,0.28,0.5,0.5,0.28,0.5,0.44,0.5,0.28,0.39,0.25,0.33,0.33,0.5,0.78,0.25,0.44,0.5,0.5,0.28,0.44,0.25,0.5,0.5,0.78,0.44,0.44,0.44,0.25" style="fill:rgb(0,0,0);font-family:STIX-Regular;font-size:8.0px;stroke:none;"> 213. Wijngaard H, Brunton N (2009) The optimization of extraction of antioxidants from apple pomace </text>
   <text y="225.544" x="71.528,75.368,79.368,81.368,85.368,88.016,91.568,94.68,97.792,101.792,104.608,106.832,110.384,113.936,117.936,119.936,122.16,124.384,128.28,132.28,134.504,138.504,141.616,143.616,145.616,148.6,150.6,156.279,160.359,163.175,165.399,168.951,170.951,175.359,179.359,183.359,187.359,189.359,194.695,198.695,202.247,208.471,210.471,214.471,218.471,220.695,224.695,228.695,232.695,236.695,240.695,244.695,248.695,252.695,256.695,260.695" svgx:width="0.5,0.5,0.25,0.5,0.33,0.44,0.39,0.39,0.5,0.33,0.28,0.44,0.44,0.5,0.25,0.28,0.28,0.5,0.5,0.28,0.5,0.39,0.25,0.25,0.37,0.25,0.72,0.5,0.33,0.28,0.44,0.25,0.56,0.5,0.5,0.5,0.25,0.67,0.5,0.44,0.78,0.25,0.5,0.5,0.28,0.5,0.5,0.5,0.5,0.5,0.5,0.5,0.5,0.5,0.5,0.5" style="fill:rgb(0,0,0);font-family:STIX-Regular;font-size:8.0px;stroke:none;">by pressurized liquids. J Agric Food Chem 57:10625–10631</text>
   <text y="235.04" x="51.024,51.824,55.824,59.824,63.824,65.824,67.824,71.528,76.416,78.64,82.192,86.192,90.192,92.192,93.264,99.04,101.04,103.04,104.108,108.996,111.22,113.22,114.292,119.628,121.628,123.628,124.7,130.004,134.004,137.556,141.556,143.556,144.624,150.4,152.4,154.4,155.472,160.928,163.744,165.968,169.52,172.632,176.184,180.015,184.015,188.015,192.015,194.015,195.087,199.535,201.535,202.607,205.271,209.271,213.271,217.271,221.271,223.935,225.935,227.007,231.455,235.007,239.007,242.559,245.207,248.759,250.983,253.207,257.207,261.207,263.207,264.275,267.827,271.827,275.827,277.827,278.899,282.899,286.899,289.715,291.939,296.403,299.955,303.507,305.731,307.955,311.955,315.955,317.955,319.023,323.023,325.687,327.687,328.759,331.871,335.871,338.095,340.503,344.503,347.151,350.703,354.703,358.703,362.255,366.255,369.807,371.807,372.875,375.539,378.155,382.155,388.379" svgx:width="0.25,0.5,0.5,0.5,0.25,0.25,0.55,0.61,0.28,0.44,0.5,0.5,0.25,0.55,0.72,0.25,0.25,0.55,0.61,0.28,0.25,0.55,0.67,0.25,0.25,0.55,0.72,0.5,0.44,0.5,0.25,0.55,0.72,0.25,0.25,0.55,0.72,0.33,0.28,0.44,0.39,0.44,0.5,0.5,0.5,0.5,0.25,0.55,0.56,0.25,0.55,0.33,0.5,0.5,0.5,0.5,0.33,0.25,0.55,0.56,0.44,0.5,0.44,0.33,0.44,0.28,0.28,0.5,0.5,0.25,0.55,0.44,0.5,0.5,0.25,0.55,0.5,0.5,0.33,0.28,0.56,0.44,0.44,0.28,0.28,0.5,0.5,0.25,0.55,0.5,0.33,0.25,0.55,0.39,0.5,0.28,0.33,0.5,0.33,0.44,0.5,0.5,0.44,0.5,0.44,0.25,0.55,0.33,0.33,0.5,0.78,0.25" style="fill:rgb(0,0,0);font-family:STIX-Regular;font-size:8.0px;stroke:none;"> 214. Liang H, Li C, Yuan Q, Vriesekoop F (2007) Separation and purification of sulforaphane from </text>
   <text y="244.536" x="71.528,75.528,78.144,82.144,85.696,89.248,93.248,95.472,97.696,100.004,103.116,106.668,110.22,114.22,117.332,119.64,123.48,127.48,129.788,132.9,136.9,139.124,141.348,145.348,147.656,151.656,155.656,159.208,162.32,165.872,168.18,171.564,175.564,177.788,180.436,183.988,187.54,189.764,191.988,195.988,199.988,202.3,205.852,209.852,213.852,216.16,220.16,222.808,226.36,230.36,233.912,236.559,240.111,242.335,244.559,248.367,251.919,254.227,258.227,260.451,264.451,268.451,271.115,275.115,278.667,281.483,283.891,287.891,290.715,296.939,300.491,304.491,308.043,311.595,313.902,316.126,318.35,322.247,326.247,328.471,332.471,334.779,338.203,342.203,344.819,348.819,355.043,358.595,360.803,364.803,368.883,371.53,375.082,379.082,382.922,386.354,388.354" svgx:width="0.5,0.33,0.5,0.44,0.44,0.5,0.28,0.28,0.25,0.39,0.44,0.44,0.5,0.39,0.25,0.5,0.5,0.25,0.39,0.5,0.28,0.28,0.5,0.25,0.5,0.5,0.44,0.39,0.44,0.25,0.44,0.5,0.28,0.33,0.44,0.44,0.28,0.28,0.5,0.5,0.25,0.44,0.5,0.5,0.25,0.5,0.33,0.44,0.5,0.44,0.33,0.44,0.28,0.28,0.5,0.44,0.25,0.5,0.28,0.5,0.5,0.33,0.5,0.44,0.33,0.33,0.5,0.33,0.78,0.44,0.5,0.44,0.44,0.25,0.28,0.28,0.5,0.5,0.28,0.5,0.25,0.44,0.5,0.33,0.5,0.78,0.44,0.28,0.5,0.5,0.33,0.44,0.5,0.5,0.5,0.25,0.25" style="fill:rgb(0,0,0);font-family:STIX-Regular;font-size:8.0px;stroke:none;">broccoli seeds by solid phase extraction and preparative high-performance liquid chromatography. </text>
   <text y="254.032" x="71.528,74.512,76.512,82.192,86.272,89.088,91.312,94.864,96.864,101.272,105.272,109.272,113.272,115.272,120.608,124.608,128.16,134.384,136.384,140.384,144.384,146.608,150.608,154.608,158.608,162.608,166.608,170.608,174.608,178.608" svgx:width="0.37,0.25,0.72,0.5,0.33,0.28,0.44,0.25,0.56,0.5,0.5,0.5,0.25,0.67,0.5,0.44,0.78,0.25,0.5,0.5,0.28,0.5,0.5,0.5,0.5,0.5,0.5,0.5,0.5,0.5" style="fill:rgb(0,0,0);font-family:STIX-Regular;font-size:8.0px;stroke:none;">J Agric Food Chem 55:8047–8053</text>
   <text y="263.528" x="51.024,51.824,55.824,59.824,63.824,65.824,67.824,71.528,75.976,79.528,83.528,87.528,89.752,91.752,92.952,98.712,100.712,102.712,103.912,109.112,113.112,117.112,119.336,123.336,125.336,126.536,132.312,134.312,135.512,138.176,142.176,146.176,150.176,154.176,156.84,158.84,160.04,164.488,168.488,170.712,172.936,176.936,180.936,183.16,185.384,189.28,193.28,195.504,199.504,201.504,202.704,206.088,210.088,212.312,214.96,218.512,222.064,224.288,226.512,230.512,234.512,236.512,237.712,241.712,244.376,246.376,247.576,251.128,254.68,259.52,263.072,265.296,269.296,272.848,274.848,276.048,278.712,281.327,285.327,291.551,293.551,294.751,296.975,300.527,304.079,306.079,307.279,312.831,316.383,319.431,321.655,325.207,327.207,328.407,332.407,335.519,337.743,341.743,345.743,347.743,348.943,352.943,356.495,358.719,360.943,364.495,367.326,371.326,373.326,374.526,376.75,380.75,384.75,388.302" svgx:width="0.25,0.5,0.5,0.5,0.25,0.25,0.55,0.56,0.44,0.5,0.5,0.28,0.25,0.55,0.72,0.25,0.25,0.55,0.72,0.5,0.5,0.28,0.5,0.25,0.55,0.72,0.25,0.55,0.33,0.5,0.5,0.5,0.5,0.33,0.25,0.55,0.56,0.5,0.28,0.28,0.5,0.5,0.28,0.28,0.5,0.5,0.28,0.5,0.25,0.55,0.44,0.5,0.28,0.33,0.44,0.44,0.28,0.28,0.5,0.5,0.25,0.55,0.5,0.33,0.25,0.55,0.44,0.44,0.61,0.44,0.28,0.5,0.44,0.25,0.55,0.33,0.33,0.5,0.78,0.25,0.55,0.28,0.44,0.44,0.25,0.55,0.72,0.44,0.39,0.28,0.44,0.25,0.55,0.5,0.39,0.28,0.5,0.5,0.25,0.55,0.5,0.44,0.28,0.28,0.44,0.33,0.5,0.25,0.55,0.28,0.5,0.5,0.44,0.25" style="fill:rgb(0,0,0);font-family:STIX-Regular;font-size:8.0px;stroke:none;"> 215. Senol A, Aydin A (2006) Solid–liquid extraction of caffeine from tea waste using battery type </text>
   <text y="273.024" x="71.528,74.912,78.912,81.136,83.784,87.336,90.888,93.095,97.095,99.695,101.919,103.919,107.919,110.535,114.535,118.087,121.639,124.751,127.863,129.863,133.863,137.855,140.079,142.303,148.527,150.751,154.303,157.855,160.079,162.303,166.303,170.303,172.303,174.303,177.287,179.287,183.695,187.695,191.695,195.695,197.695,202.583,206.583,210.583,212.583,216.583,220.583,222.807,226.807,230.807,234.807,238.807,242.807,246.807" svgx:width="0.44,0.5,0.28,0.33,0.44,0.44,0.28,0.5,0.33,0.28,0.25,0.5,0.33,0.5,0.44,0.44,0.39,0.39,0.25,0.5,0.5,0.28,0.28,0.78,0.28,0.44,0.44,0.28,0.28,0.5,0.5,0.25,0.25,0.37,0.25,0.56,0.5,0.5,0.5,0.25,0.61,0.5,0.5,0.25,0.5,0.5,0.28,0.5,0.5,0.5,0.5,0.5,0.5,0.5" style="fill:rgb(0,0,0);font-family:STIX-Regular;font-size:8.0px;stroke:none;">extractor: process optimization. J Food Eng 75:565–573</text>
  </g>
 </g>
</svg>
