<?xml version="1.0" encoding="UTF-8"?>
<svg height="767.08" width="586.0" xmlns="http://www.w3.org/2000/svg">
 <g>
  <line points="399.63 369.47 419.19 369.47" style="fill:rgb(58,90,166);stroke:none;stroke-width:1.0;" signature="MLZ" x1="399.63" y1="369.47" x2="419.19" y2="369.47" id="line1"/>
  <line points="446.12 442.26 465.68 442.26" style="fill:rgb(58,90,166);stroke:none;stroke-width:1.0;" signature="MLZ" x1="446.12" y1="442.26" x2="465.68" y2="442.26" id="line2"/>
  <line points="200.01 554.06 219.57 554.06" style="fill:rgb(58,90,166);stroke:none;stroke-width:1.0;" signature="MLZ" x1="200.01" y1="554.06" x2="219.57" y2="554.06" id="line3"/>
  <line points="262.77 658.09 335.06 658.09" style="fill:rgb(58,90,166);stroke:none;stroke-width:1.0;" signature="MLZ" x1="262.77" y1="658.09" x2="335.06" y2="658.09" id="line4"/>
  <line class="lineFromShape" signature="MLLL" style="fill:rgb(155,154,156);stroke:none;stroke-width:0.0;" x1="200.0" y1="316.36" x2="576.0" y2="316.36" id="line5"/>
  <line points="200.01 329.67 352.52 329.67" style="fill:rgb(58,90,166);stroke:none;stroke-width:1.0;" signature="MLZ" x1="200.01" y1="329.67" x2="352.52" y2="329.67" id="line6"/>
  <line class="lineFromShape" signature="MLLL" style="fill:rgb(0,0,0);stroke:none;stroke-width:0.0;" x1="36.0" y1="54.65" x2="576.0" y2="54.65" id="line7"/>
  <line class="lineFromShape" signature="MLLL" style="fill:rgb(0,0,0);stroke:none;stroke-width:0.0;" x1="576.0" y1="744.25" x2="36.0" y2="744.25" id="line8"/>
  <line points="81.58 757.08 237.88 757.08" style="fill:rgb(58,90,166);stroke:none;stroke-width:1.0;" signature="MLZ" x1="81.58" y1="757.08" x2="237.88" y2="757.08" id="line9"/>
 </g>
</svg>
