<?xml version="1.0" encoding="UTF-8"?>
<svg height="773.9" width="4080.9" xmlns="http://www.w3.org/2000/svg">
 <g>
  <text svgx:width="0.5,0.25,0.72,0.44,0.33,0.56,0.44,0.5,0.56,0.5,0.56" y="44.4" x="70.9,75.5,77.8,84.3,88.2,91.2,96.1,100.1,104.6,109.6,114.1" style="fill:rgb(0,0,0);font-family:TimesNewRomanPS-BoldMT;font-size:9.0px;stroke:none;" xmlns:svgx="http://www.xml-cml.org/schema/svgx">J Arthropod</text>
  <text svgx:width="0.33" y="44.4" x="119.1" style="fill:rgb(0,0,0);font-family:TimesNewRomanPS-BoldMT;font-size:9.0px;stroke:none;" xmlns:svgx="http://www.xml-cml.org/schema/svgx">-</text>
  <text svgx:width="0.67,0.5,0.44,0.56,0.44,0.25,0.72,0.28,0.39,0.25" y="44.4" x="122.1,128.2,132.6,136.7,141.6,145.6,147.8,154.3,156.8,160.3" style="fill:rgb(0,0,0);font-family:TimesNewRomanPS-BoldMT;font-size:9.0px;stroke:none;" xmlns:svgx="http://www.xml-cml.org/schema/svgx">Borne Dis,</text>
  <text svgx:width="0.5,0.56,0.56,0.44,0.25,0.5,0.5,0.5,0.5,0.25,0.25,0.5,0.5,0.33,0.5,0.33,0.33,0.25" y="44.4" x="164.9,169.5,174.4,179.4,183.4,185.6,190.2,194.7,199.3,203.7,206.0,208.3,212.7,217.3,220.1,224.7,227.7,230.7" style="fill:rgb(0,0,0);font-family:TimesNewRomanPS-BoldMT;font-size:9.0px;stroke:none;" xmlns:svgx="http://www.xml-cml.org/schema/svgx">June 2017, 11(2): </text>
  <text svgx:width="0.5" y="44.4" x="233.1" style="fill:rgb(0,0,0);font-family:TimesNewRomanPS-BoldMT;font-size:9.0px;stroke:none;" xmlns:svgx="http://www.xml-cml.org/schema/svgx">2</text>
  <text svgx:width="0.5" y="44.4" x="237.5" style="fill:rgb(0,0,0);font-family:TimesNewRomanPS-BoldMT;font-size:9.0px;stroke:none;" xmlns:svgx="http://www.xml-cml.org/schema/svgx">2</text>
  <text svgx:width="0.5" y="44.4" x="242.1" style="fill:rgb(0,0,0);font-family:TimesNewRomanPS-BoldMT;font-size:9.0px;stroke:none;" xmlns:svgx="http://www.xml-cml.org/schema/svgx">6</text>
  <text svgx:width="0.5" y="44.4" x="246.5" style="fill:rgb(0,0,0);font-family:TimesNewRomanPS-BoldMT;font-size:9.0px;stroke:none;" xmlns:svgx="http://www.xml-cml.org/schema/svgx">–</text>
  <text svgx:width="0.5" y="44.4" x="251.1" style="fill:rgb(0,0,0);font-family:TimesNewRomanPS-BoldMT;font-size:9.0px;stroke:none;" xmlns:svgx="http://www.xml-cml.org/schema/svgx">2</text>
  <text svgx:width="0.5" y="44.4" x="255.5" style="fill:rgb(0,0,0);font-family:TimesNewRomanPS-BoldMT;font-size:9.0px;stroke:none;" xmlns:svgx="http://www.xml-cml.org/schema/svgx">3</text>
  <text svgx:width="0.5" y="44.4" x="260.1" style="fill:rgb(0,0,0);font-family:TimesNewRomanPS-BoldMT;font-size:9.0px;stroke:none;" xmlns:svgx="http://www.xml-cml.org/schema/svgx">5</text>
  <text svgx:width="0.56,0.39,0.25,0.94,0.5,0.56,0.5,0.83,0.83,0.44,0.56" y="44.4" x="352.4,357.4,360.9,363.1,371.7,376.1,381.1,385.6,393.1,400.4,404.4" style="fill:rgb(0,0,0);font-family:TimesNewRomanPS-BoldMT;font-size:9.0px;stroke:none;" xmlns:svgx="http://www.xml-cml.org/schema/svgx">SI Mohammed</text>
  <text svgx:width="0.44,0.33,0.25,0.5,0.28,0.25" y="44.4" x="411.8,415.8,418.7,421.0,425.5,428.0" style="fill:rgb(0,0,0);font-family:TimesNewRomanPS-BoldMT;font-size:9.0px;stroke:none;" xmlns:svgx="http://www.xml-cml.org/schema/svgx">et al.</text>
  <text svgx:width="0.33,0.25" y="44.4" x="430.3,433.4" style="fill:rgb(0,0,0);font-family:TimesNewRomanPS-BoldMT;font-size:9.0px;stroke:none;" xmlns:svgx="http://www.xml-cml.org/schema/svgx">: </text>
  <text svgx:width="0.67,0.5,0.5,0.28,0.56,0.5,0.33,0.28,0.5,0.56,0.25,0.5,0.33,0.25" y="44.4" x="435.7,441.7,446.1,450.5,453.0,458.1,462.5,465.5,468.0,472.6,477.5,479.8,484.2,487.2" style="fill:rgb(0,0,0);font-family:TimesNewRomanPS-BoldMT;font-size:9.0px;stroke:none;" xmlns:svgx="http://www.xml-cml.org/schema/svgx">Evaluation of </text>
  <text svgx:width="0.67,0.5,0.44,0.5,0.28,0.44,0.28,0.56,0.5,0.28,0.25" y="44.4" x="489.6,495.6,500.1,504.1,508.5,511.0,515.0,517.6,522.6,527.0,529.5" style="fill:rgb(0,0,0);font-family:TimesNewRomanPS-BoldMT;font-size:9.0px;stroke:none;" xmlns:svgx="http://www.xml-cml.org/schema/svgx">Larvicidal </text>
  <text svgx:width="1.0" y="44.4" x="531.8" style="fill:rgb(0,0,0);font-family:TimesNewRomanPS-BoldMT;font-size:9.0px;stroke:none;" xmlns:svgx="http://www.xml-cml.org/schema/svgx">…</text>
  <text svgx:width="0.5,0.5,0.5" y="739.4" x="297.1,303.1,309.1" style="fill:rgb(0,0,0);font-family:TimesNewRomanPSMT;font-size:12.0px;stroke:none;" xmlns:svgx="http://www.xml-cml.org/schema/svgx">231</text>
  <text svgx:width="0.5,0.28,0.28,0.5,0.28,0.28,0.28,0.28,0.44,0.5,0.25,0.28,0.5,0.78,0.39,0.25,0.44,0.44,0.25,0.28,0.33" y="752.3" x="408.9,413.8,416.6,419.4,424.4,427.1,429.9,432.7,435.5,439.9,445.0,447.5,450.3,455.2,462.9,466.7,469.2,473.6,478.1,480.6,483.4" style="fill:rgb(0,0,0);font-family:TimesNewRomanPSMT;font-size:10.0px;stroke:none;" xmlns:svgx="http://www.xml-cml.org/schema/svgx">http://jad.tums.ac.ir</text>
  <text svgx:width="0.56,0.5,0.5,0.28,0.28,0.39,0.5,0.44,0.5,0.25,0.72,0.5,0.28,0.28,0.5,0.44,0.28,0.25,0.89,0.44,0.5,0.25,0.5,0.5,0.25,0.25,0.5,0.5,0.5,0.5" y="763.9" x="408.8,414.4,419.3,424.4,427.1,429.9,433.7,438.7,443.1,448.1,450.6,457.8,462.8,465.6,468.4,473.3,477.7,480.5,483.0,491.9,496.4,501.4,503.9,508.9,513.9,516.4,518.9,524.0,529.0,533.9" style="fill:rgb(0,0,0);font-family:TimesNewRomanPSMT;font-size:10.0px;stroke:none;" xmlns:svgx="http://www.xml-cml.org/schema/svgx">Published Online: May 27, 2017</text>
  <text svgx:width="0.61,0.28,0.5,0.25,0.25,0.5,0.25" y="639.3" x="77.7,84.9,88.2,94.2,97.2,100.2,106.2" style="fill:rgb(0,0,0);font-family:TimesNewRomanPS-BoldMT;font-size:12.0px;stroke:none;" xmlns:svgx="http://www.xml-cml.org/schema/svgx">Fig. 1.</text>
  <text svgx:width="0.72,0.44,0.39,0.25,0.44,0.5,0.33,0.5,0.78,0.44,0.28,0.5,0.5,0.33,0.44,0.5,0.5,0.5" y="637.2" x="112.2,119.4,123.8,127.7,130.2,134.8,139.7,143.0,148.2,155.7,160.2,162.9,168.1,173.0,176.4,180.8,185.8,190.9" style="fill:rgb(0,0,0);font-family:TimesNewRomanPSMT;font-size:10.0px;stroke:none;" xmlns:svgx="http://www.xml-cml.org/schema/svgx">Gas chromatography</text>
  <text svgx:width="0.5" y="637.2" x="195.9" style="fill:rgb(0,0,0);font-family:TimesNewRomanPSMT;font-size:10.0px;stroke:none;" xmlns:svgx="http://www.xml-cml.org/schema/svgx">–</text>
  <text svgx:width="0.78,0.44,0.39,0.39,0.25,0.39,0.5,0.44,0.44,0.28,0.33,0.5,0.78,0.44,0.28,0.33,0.5,0.25,0.5,0.33,0.5,0.33,0.28,0.28,0.44,0.25,0.5,0.33,0.25,0.44,0.39,0.39,0.44,0.5,0.28,0.28,0.44,0.28,0.25,0.5,0.28,0.28,0.25,0.5,0.5,0.28,0.44,0.28,0.5,0.44,0.5,0.25,0.33,0.33,0.5,0.78,0.25,0.28,0.44,0.44,0.5,0.44,0.39,0.25,0.5,0.33,0.25" y="637.2" x="200.9,208.5,213.0,216.9,220.7,223.4,227.2,232.2,236.7,241.1,243.9,247.2,252.4,259.9,264.3,267.1,270.6,275.4,277.9,282.9,286.3,291.3,294.5,297.3,300.1,304.5,307.0,312.0,315.3,317.9,322.3,326.2,330.0,334.6,339.5,342.3,345.0,349.5,352.2,354.7,359.8,362.5,365.3,367.8,372.8,377.9,380.6,385.1,387.8,392.8,397.2,402.2,404.7,408.0,411.3,416.5,424.0,426.5,429.3,433.7,438.3,443.2,447.6,451.5,454.0,459.0,462.3" style="fill:rgb(0,0,0);font-family:TimesNewRomanPSMT;font-size:10.0px;stroke:none;" xmlns:svgx="http://www.xml-cml.org/schema/svgx">mass spectrometry profile of essential oil obtained from leaves of </text>
  <text svgx:width="0.67,0.5,0.44,0.44,0.28,0.5,0.28,0.5,0.25,0.5,0.39,0.5,0.5,0.5,0.28,0.39" y="637.2" x="465.2,471.8,476.9,481.3,485.7,488.5,493.5,496.3,501.3,503.8,508.8,512.7,517.7,522.7,527.8,530.5" style="fill:rgb(0,0,0);font-family:TimesNewRomanPS-ItalicMT;font-size:10.0px;stroke:none;" xmlns:svgx="http://www.xml-cml.org/schema/svgx">Coccinia grandis</text>
  <text svgx:width="0.72,0.28,0.39,0.44,0.56,0.39,0.39,0.28,0.5,0.56,0.25" y="675.8" x="70.9,81.0,85.0,90.5,96.7,104.4,109.9,115.3,119.1,126.2,134.0" style="fill:rgb(0,0,0);font-family:TimesNewRomanPS-BoldMT;font-size:14.0px;stroke:none;" xmlns:svgx="http://www.xml-cml.org/schema/svgx">Discussion </text>
  <text svgx:width="0.56,0.44,0.5,0.44,0.33,0.44,0.28,0.25,0.55,0.44,0.5,0.28,0.5,0.5,0.33,0.39,0.25,0.55,0.5,0.44,0.5,0.44,0.25,0.55,0.33,0.44,0.5,0.5,0.33,0.28,0.44,0.5,0.25,0.55,0.5,0.28,0.33,0.33,0.44,0.33,0.44,0.5,0.28,0.25" y="703.5" x="85.1,91.8,97.1,103.1,108.4,112.4,117.6,120.9,123.9,127.9,133.2,139.2,142.5,148.5,154.5,158.5,163.2,166.2,170.1,176.1,181.4,187.5,192.8,195.8,199.8,203.8,209.1,215.1,221.1,225.1,228.4,233.7,239.7,242.7,246.7,252.7,256.0,260.0,263.9,269.3,273.3,278.6,284.6,288.0" style="fill:rgb(0,0,0);font-family:TimesNewRomanPSMT;font-size:12.0px;stroke:none;" xmlns:svgx="http://www.xml-cml.org/schema/svgx">Several authors have reported different </text>
  <text svgx:width="0.44,0.5,0.78,0.5,0.5,0.39,0.28,0.28,0.28,0.5,0.5,0.39,0.25,0.5,0.33,0.25,0.44,0.39,0.39,0.44,0.5,0.28,0.28,0.44,0.28,0.25,0.5,0.28,0.28,0.39,0.25,0.5,0.5,0.28,0.44,0.28,0.5,0.44,0.5,0.25,0.33,0.33,0.5,0.78" y="717.3" x="70.9,76.3,82.4,91.9,98.0,104.1,108.9,112.2,115.7,119.2,125.3,131.3,136.1,139.2,145.3,149.4,152.5,157.9,162.7,167.5,172.8,178.8,182.3,185.8,191.1,194.5,197.6,203.7,207.2,210.6,215.4,218.5,224.6,230.6,234.0,239.4,242.9,249.0,254.4,260.5,263.6,267.7,271.8,277.9" style="fill:rgb(0,0,0);font-family:TimesNewRomanPSMT;font-size:12.0px;stroke:none;" xmlns:svgx="http://www.xml-cml.org/schema/svgx">compositions of essential oils obtained from</text>
  <text svgx:width="0.5,0.28,0.33,0.33,0.44,0.33,0.44,0.5,0.28,0.25,0.55,0.5" y="701.3" x="324.1,330.1,333.4,337.4,341.4,346.6,350.6,355.9,361.9,365.2,368.2,371.8" style="fill:rgb(0,0,0);font-family:TimesNewRomanPSMT;font-size:12.0px;stroke:none;" xmlns:svgx="http://www.xml-cml.org/schema/svgx">different p</text>
  <text svgx:width="0.28,0.44,0.5,0.28,0.25,0.55,0.39,0.5,0.44,0.44,0.28,0.44,0.39,0.25" y="701.3" x="377.8,381.2,386.5,392.5,395.8,398.8,402.4,407.1,413.1,418.4,423.7,427.0,432.3,437.0" style="fill:rgb(0,0,0);font-family:TimesNewRomanPSMT;font-size:12.0px;stroke:none;" xmlns:svgx="http://www.xml-cml.org/schema/svgx">lant species </text>
  <text svgx:width="0.33,0.72,0.5,0.5,0.28,0.5,0.5,0.33,0.44,0.28,0.44,0.5" y="701.3" x="443.7,447.7,456.3,462.3,468.3,471.6,477.6,483.6,487.6,492.9,496.2,501.6" style="fill:rgb(0,0,0);font-family:TimesNewRomanPSMT;font-size:12.0px;stroke:none;" xmlns:svgx="http://www.xml-cml.org/schema/svgx">(Govindrajan</text>
  <text svgx:width="0.5,0.5,0.5,0.5,0.25" y="701.3" x="514.2,520.2,526.2,532.2,538.2" style="fill:rgb(0,0,0);font-family:TimesNewRomanPSMT;font-size:12.0px;stroke:none;" xmlns:svgx="http://www.xml-cml.org/schema/svgx">2010,</text>
  <text svgx:width="0.56,0.44,0.5,0.28,0.5,0.28,0.28,0.5,0.5" y="715.1" x="324.1,330.8,336.1,342.1,345.4,351.4,354.8,358.1,364.1" style="fill:rgb(0,0,0);font-family:TimesNewRomanPSMT;font-size:12.0px;stroke:none;" xmlns:svgx="http://www.xml-cml.org/schema/svgx">Senthilku</text>
  <text svgx:width="0.78,0.44,0.33,0.25,0.44,0.5,0.5,0.25,0.72,0.44,0.5,0.5,0.44,0.28,0.44,0.39,0.44,0.28,0.5,0.25,0.25,0.5,0.5,0.5,0.5,0.25" y="715.1" x="370.2,379.5,384.8,388.8,392.3,397.6,403.6,409.6,413.2,421.9,427.1,433.1,439.1,444.5,447.9,453.2,457.8,463.1,466.5,472.5,475.5,479.1,485.1,491.1,497.1,503.1" style="fill:rgb(0,0,0);font-family:TimesNewRomanPSMT;font-size:12.0px;stroke:none;" xmlns:svgx="http://www.xml-cml.org/schema/svgx">mar and Venkatesalu, 2010,</text>
  <text svgx:width="0.61,0.5,0.5,0.25,0.44,0.28,0.25" y="715.1" x="509.7,516.9,522.9,528.9,532.5,537.8,541.3" style="fill:rgb(0,0,0);font-family:TimesNewRomanPSMT;font-size:12.0px;stroke:none;" xmlns:svgx="http://www.xml-cml.org/schema/svgx">Zhu et </text>
  <text class="image" id="image.6.1" width="470" height="533" y="92.9" x="70.9" style="font-size:8.0px;">image.6.1.71_542.93_626</text>
 </g>
</svg>
