<?xml version="1.0" encoding="UTF-8"?>
<svg height="762.55" width="564.64" xmlns="http://www.w3.org/2000/svg">
 <g>
  <line points="40.64 752.55 554.64 752.55" style="fill:none;stroke:rgb(0,0,0);stroke-width:1.0;" signature="ML" x1="40.64" y1="752.55" x2="554.64" y2="752.55" id="line1"/>
  <line points="159.13 184.62 552.64 184.62" style="fill:none;stroke:rgb(131,144,151);stroke-width:0.3;" signature="ML" x1="159.13" y1="184.62" x2="552.64" y2="184.62" id="line2"/>
  <line points="155.64 46.62 190.24 46.62" style="fill:none;stroke:rgb(0,0,0);stroke-width:1.0;" signature="ML" x1="155.64" y1="46.62" x2="190.24" y2="46.62" id="line3"/>
  <line points="155.76 58.12 155.76 46.75" style="fill:none;stroke:rgb(0,0,0);stroke-width:0.25;" signature="ML" x1="155.76" y1="58.12" x2="155.76" y2="46.75" id="line4"/>
  <line points="155.64 58.25 190.24 58.25" style="fill:none;stroke:rgb(0,0,0);stroke-width:0.25;" signature="ML" x1="155.64" y1="58.25" x2="190.24" y2="58.25" id="line5"/>
  <line points="190.24 46.62 221.07 46.62" style="fill:none;stroke:rgb(0,0,0);stroke-width:0.25;" signature="ML" x1="190.24" y1="46.62" x2="221.07" y2="46.62" id="line6"/>
  <line points="190.24 58.12 190.24 46.75" style="fill:none;stroke:rgb(0,0,0);stroke-width:0.25;" signature="ML" x1="190.24" y1="58.12" x2="190.24" y2="46.75" id="line7"/>
  <line points="190.24 58.25 221.07 58.25" style="fill:none;stroke:rgb(0,0,0);stroke-width:0.25;" signature="ML" x1="190.24" y1="58.25" x2="221.07" y2="58.25" id="line8"/>
  <line points="221.08 46.62 255.55 46.62" style="fill:none;stroke:rgb(0,0,0);stroke-width:0.25;" signature="ML" x1="221.08" y1="46.62" x2="255.55" y2="46.62" id="line9"/>
  <line points="221.08 58.12 221.08 46.75" style="fill:none;stroke:rgb(0,0,0);stroke-width:0.25;" signature="ML" x1="221.08" y1="58.12" x2="221.08" y2="46.75" id="line10"/>
  <line points="221.08 58.25 255.55 58.25" style="fill:none;stroke:rgb(0,0,0);stroke-width:0.25;" signature="ML" x1="221.08" y1="58.25" x2="255.55" y2="58.25" id="line11"/>
  <line points="255.55 46.62 313.16 46.62" style="fill:none;stroke:rgb(0,0,0);stroke-width:0.25;" signature="ML" x1="255.55" y1="46.62" x2="313.16" y2="46.62" id="line12"/>
  <line points="255.55 58.12 255.55 46.75" style="fill:none;stroke:rgb(0,0,0);stroke-width:0.25;" signature="ML" x1="255.55" y1="58.12" x2="255.55" y2="46.75" id="line13"/>
  <line points="255.55 58.25 313.16 58.25" style="fill:none;stroke:rgb(0,0,0);stroke-width:0.25;" signature="ML" x1="255.55" y1="58.25" x2="313.16" y2="58.25" id="line14"/>
  <line points="313.16 46.62 355.89 46.62" style="fill:none;stroke:rgb(0,0,0);stroke-width:0.25;" signature="ML" x1="313.16" y1="46.62" x2="355.89" y2="46.62" id="line15"/>
  <line points="313.16 58.12 313.16 46.75" style="fill:none;stroke:rgb(0,0,0);stroke-width:0.25;" signature="ML" x1="313.16" y1="58.12" x2="313.16" y2="46.75" id="line16"/>
  <line points="355.76 58.12 355.76 46.75" style="fill:none;stroke:rgb(0,0,0);stroke-width:0.25;" signature="ML" x1="355.76" y1="58.12" x2="355.76" y2="46.75" id="line17"/>
  <line points="313.16 58.25 355.89 58.25" style="fill:none;stroke:rgb(0,0,0);stroke-width:0.25;" signature="ML" x1="313.16" y1="58.25" x2="355.89" y2="58.25" id="line18"/>
  <line points="155.76 69.87 155.76 58.37" style="fill:none;stroke:rgb(0,0,0);stroke-width:0.25;" signature="ML" x1="155.76" y1="69.87" x2="155.76" y2="58.37" id="line19"/>
  <line points="155.76 81.37 155.76 69.87" style="fill:none;stroke:rgb(0,0,0);stroke-width:0.25;" signature="ML" x1="155.76" y1="81.37" x2="155.76" y2="69.87" id="line20"/>
  <line points="190.24 69.75 190.24 58.37" style="fill:none;stroke:rgb(0,0,0);stroke-width:0.25;" signature="ML" x1="190.24" y1="69.75" x2="190.24" y2="58.37" id="line21"/>
  <line points="221.08 69.75 221.08 58.37" style="fill:none;stroke:rgb(0,0,0);stroke-width:0.25;" signature="ML" x1="221.08" y1="69.75" x2="221.08" y2="58.37" id="line22"/>
  <line points="255.55 69.75 255.55 58.37" style="fill:none;stroke:rgb(0,0,0);stroke-width:0.25;" signature="ML" x1="255.55" y1="69.75" x2="255.55" y2="58.37" id="line23"/>
  <line points="313.16 69.75 313.16 58.37" style="fill:none;stroke:rgb(0,0,0);stroke-width:0.25;" signature="ML" x1="313.16" y1="69.75" x2="313.16" y2="58.37" id="line24"/>
  <line points="355.76 69.87 355.76 58.37" style="fill:none;stroke:rgb(0,0,0);stroke-width:0.25;" signature="ML" x1="355.76" y1="69.87" x2="355.76" y2="58.37" id="line25"/>
  <line points="355.76 81.37 355.76 69.87" style="fill:none;stroke:rgb(0,0,0);stroke-width:0.25;" signature="ML" x1="355.76" y1="81.37" x2="355.76" y2="69.87" id="line26"/>
  <line points="190.12 69.87 221.07 69.87" style="fill:none;stroke:rgb(0,0,0);stroke-width:0.25;" signature="ML" x1="190.12" y1="69.87" x2="221.07" y2="69.87" id="line27"/>
  <line points="190.24 81.37 190.24 70.0" style="fill:none;stroke:rgb(0,0,0);stroke-width:0.25;" signature="ML" x1="190.24" y1="81.37" x2="190.24" y2="70.0" id="line28"/>
  <line points="221.08 69.87 255.55 69.87" style="fill:none;stroke:rgb(0,0,0);stroke-width:0.25;" signature="ML" x1="221.08" y1="69.87" x2="255.55" y2="69.87" id="line29"/>
  <line points="221.08 81.37 221.08 70.0" style="fill:none;stroke:rgb(0,0,0);stroke-width:0.25;" signature="ML" x1="221.08" y1="81.37" x2="221.08" y2="70.0" id="line30"/>
  <line points="255.55 69.87 313.28 69.87" style="fill:none;stroke:rgb(0,0,0);stroke-width:0.25;" signature="ML" x1="255.55" y1="69.87" x2="313.28" y2="69.87" id="line31"/>
  <line points="255.55 81.37 255.55 70.0" style="fill:none;stroke:rgb(0,0,0);stroke-width:0.25;" signature="ML" x1="255.55" y1="81.37" x2="255.55" y2="70.0" id="line32"/>
  <line points="313.16 81.37 313.16 70.0" style="fill:none;stroke:rgb(0,0,0);stroke-width:0.25;" signature="ML" x1="313.16" y1="81.37" x2="313.16" y2="70.0" id="line33"/>
  <line points="155.64 81.5 190.24 81.5" style="fill:none;stroke:rgb(0,0,0);stroke-width:0.25;" signature="ML" x1="155.64" y1="81.5" x2="190.24" y2="81.5" id="line34"/>
  <line points="155.76 93.12 155.76 81.62" style="fill:none;stroke:rgb(0,0,0);stroke-width:0.25;" signature="ML" x1="155.76" y1="93.12" x2="155.76" y2="81.62" id="line35"/>
  <line points="155.76 104.62 155.76 93.12" style="fill:none;stroke:rgb(0,0,0);stroke-width:0.25;" signature="ML" x1="155.76" y1="104.62" x2="155.76" y2="93.12" id="line36"/>
  <line points="190.24 81.5 221.07 81.5" style="fill:none;stroke:rgb(0,0,0);stroke-width:0.25;" signature="ML" x1="190.24" y1="81.5" x2="221.07" y2="81.5" id="line37"/>
  <line points="190.24 93.0 190.24 81.62" style="fill:none;stroke:rgb(0,0,0);stroke-width:0.25;" signature="ML" x1="190.24" y1="93.0" x2="190.24" y2="81.62" id="line38"/>
  <line points="221.08 81.5 255.55 81.5" style="fill:none;stroke:rgb(0,0,0);stroke-width:0.25;" signature="ML" x1="221.08" y1="81.5" x2="255.55" y2="81.5" id="line39"/>
  <line points="221.08 93.0 221.08 81.62" style="fill:none;stroke:rgb(0,0,0);stroke-width:0.25;" signature="ML" x1="221.08" y1="93.0" x2="221.08" y2="81.62" id="line40"/>
  <line points="255.55 81.5 313.16 81.5" style="fill:none;stroke:rgb(0,0,0);stroke-width:0.25;" signature="ML" x1="255.55" y1="81.5" x2="313.16" y2="81.5" id="line41"/>
  <line points="255.55 93.0 255.55 81.62" style="fill:none;stroke:rgb(0,0,0);stroke-width:0.25;" signature="ML" x1="255.55" y1="93.0" x2="255.55" y2="81.62" id="line42"/>
  <line points="313.16 81.5 355.89 81.5" style="fill:none;stroke:rgb(0,0,0);stroke-width:0.25;" signature="ML" x1="313.16" y1="81.5" x2="355.89" y2="81.5" id="line43"/>
  <line points="313.16 93.0 313.16 81.62" style="fill:none;stroke:rgb(0,0,0);stroke-width:0.25;" signature="ML" x1="313.16" y1="93.0" x2="313.16" y2="81.62" id="line44"/>
  <line points="355.76 93.12 355.76 81.62" style="fill:none;stroke:rgb(0,0,0);stroke-width:0.25;" signature="ML" x1="355.76" y1="93.12" x2="355.76" y2="81.62" id="line45"/>
  <line points="355.76 104.62 355.76 93.12" style="fill:none;stroke:rgb(0,0,0);stroke-width:0.25;" signature="ML" x1="355.76" y1="104.62" x2="355.76" y2="93.12" id="line46"/>
  <line points="190.12 93.12 221.07 93.12" style="fill:none;stroke:rgb(0,0,0);stroke-width:0.25;" signature="ML" x1="190.12" y1="93.12" x2="221.07" y2="93.12" id="line47"/>
  <line points="190.24 104.62 190.24 93.25" style="fill:none;stroke:rgb(0,0,0);stroke-width:0.25;" signature="ML" x1="190.24" y1="104.62" x2="190.24" y2="93.25" id="line48"/>
  <line points="221.08 93.12 255.55 93.12" style="fill:none;stroke:rgb(0,0,0);stroke-width:0.25;" signature="ML" x1="221.08" y1="93.12" x2="255.55" y2="93.12" id="line49"/>
  <line points="221.08 104.62 221.08 93.25" style="fill:none;stroke:rgb(0,0,0);stroke-width:0.25;" signature="ML" x1="221.08" y1="104.62" x2="221.08" y2="93.25" id="line50"/>
  <line points="255.55 93.12 313.28 93.12" style="fill:none;stroke:rgb(0,0,0);stroke-width:0.25;" signature="ML" x1="255.55" y1="93.12" x2="313.28" y2="93.12" id="line51"/>
  <line points="255.55 104.62 255.55 93.25" style="fill:none;stroke:rgb(0,0,0);stroke-width:0.25;" signature="ML" x1="255.55" y1="104.62" x2="255.55" y2="93.25" id="line52"/>
  <line points="313.16 104.62 313.16 93.25" style="fill:none;stroke:rgb(0,0,0);stroke-width:0.25;" signature="ML" x1="313.16" y1="104.62" x2="313.16" y2="93.25" id="line53"/>
  <line points="155.64 104.75 190.24 104.75" style="fill:none;stroke:rgb(0,0,0);stroke-width:0.25;" signature="ML" x1="155.64" y1="104.75" x2="190.24" y2="104.75" id="line54"/>
  <line points="155.76 116.37 155.76 104.87" style="fill:none;stroke:rgb(0,0,0);stroke-width:0.25;" signature="ML" x1="155.76" y1="116.37" x2="155.76" y2="104.87" id="line55"/>
  <line points="155.76 127.87 155.76 116.37" style="fill:none;stroke:rgb(0,0,0);stroke-width:0.25;" signature="ML" x1="155.76" y1="127.87" x2="155.76" y2="116.37" id="line56"/>
  <line points="155.64 128.0 190.24 128.0" style="fill:none;stroke:rgb(0,0,0);stroke-width:0.25;" signature="ML" x1="155.64" y1="128.0" x2="190.24" y2="128.0" id="line57"/>
  <line points="190.24 104.75 221.07 104.75" style="fill:none;stroke:rgb(0,0,0);stroke-width:0.25;" signature="ML" x1="190.24" y1="104.75" x2="221.07" y2="104.75" id="line58"/>
  <line points="190.24 116.25 190.24 104.87" style="fill:none;stroke:rgb(0,0,0);stroke-width:0.25;" signature="ML" x1="190.24" y1="116.25" x2="190.24" y2="104.87" id="line59"/>
  <line points="221.08 104.75 255.55 104.75" style="fill:none;stroke:rgb(0,0,0);stroke-width:0.25;" signature="ML" x1="221.08" y1="104.75" x2="255.55" y2="104.75" id="line60"/>
  <line points="221.08 116.25 221.08 104.87" style="fill:none;stroke:rgb(0,0,0);stroke-width:0.25;" signature="ML" x1="221.08" y1="116.25" x2="221.08" y2="104.87" id="line61"/>
  <line points="255.55 104.75 313.16 104.75" style="fill:none;stroke:rgb(0,0,0);stroke-width:0.25;" signature="ML" x1="255.55" y1="104.75" x2="313.16" y2="104.75" id="line62"/>
  <line points="255.55 116.25 255.55 104.87" style="fill:none;stroke:rgb(0,0,0);stroke-width:0.25;" signature="ML" x1="255.55" y1="116.25" x2="255.55" y2="104.87" id="line63"/>
  <line points="313.16 104.75 355.89 104.75" style="fill:none;stroke:rgb(0,0,0);stroke-width:0.25;" signature="ML" x1="313.16" y1="104.75" x2="355.89" y2="104.75" id="line64"/>
  <line points="313.16 116.25 313.16 104.87" style="fill:none;stroke:rgb(0,0,0);stroke-width:0.25;" signature="ML" x1="313.16" y1="116.25" x2="313.16" y2="104.87" id="line65"/>
  <line points="355.76 116.37 355.76 104.87" style="fill:none;stroke:rgb(0,0,0);stroke-width:0.25;" signature="ML" x1="355.76" y1="116.37" x2="355.76" y2="104.87" id="line66"/>
  <line points="355.76 127.87 355.76 116.37" style="fill:none;stroke:rgb(0,0,0);stroke-width:0.25;" signature="ML" x1="355.76" y1="127.87" x2="355.76" y2="116.37" id="line67"/>
  <line points="313.16 128.0 355.89 128.0" style="fill:none;stroke:rgb(0,0,0);stroke-width:0.25;" signature="ML" x1="313.16" y1="128.0" x2="355.89" y2="128.0" id="line68"/>
  <line points="190.12 116.37 221.07 116.37" style="fill:none;stroke:rgb(0,0,0);stroke-width:0.25;" signature="ML" x1="190.12" y1="116.37" x2="221.07" y2="116.37" id="line69"/>
  <line points="190.24 127.87 190.24 116.5" style="fill:none;stroke:rgb(0,0,0);stroke-width:0.25;" signature="ML" x1="190.24" y1="127.87" x2="190.24" y2="116.5" id="line70"/>
  <line points="190.24 128.0 221.07 128.0" style="fill:none;stroke:rgb(0,0,0);stroke-width:0.25;" signature="ML" x1="190.24" y1="128.0" x2="221.07" y2="128.0" id="line71"/>
  <line points="221.08 116.37 255.55 116.37" style="fill:none;stroke:rgb(0,0,0);stroke-width:0.25;" signature="ML" x1="221.08" y1="116.37" x2="255.55" y2="116.37" id="line72"/>
  <line points="221.08 127.87 221.08 116.5" style="fill:none;stroke:rgb(0,0,0);stroke-width:0.25;" signature="ML" x1="221.08" y1="127.87" x2="221.08" y2="116.5" id="line73"/>
  <line points="221.08 128.0 255.55 128.0" style="fill:none;stroke:rgb(0,0,0);stroke-width:0.25;" signature="ML" x1="221.08" y1="128.0" x2="255.55" y2="128.0" id="line74"/>
  <line points="255.55 116.37 313.28 116.37" style="fill:none;stroke:rgb(0,0,0);stroke-width:0.25;" signature="ML" x1="255.55" y1="116.37" x2="313.28" y2="116.37" id="line75"/>
  <line points="255.55 127.87 255.55 116.5" style="fill:none;stroke:rgb(0,0,0);stroke-width:0.25;" signature="ML" x1="255.55" y1="127.87" x2="255.55" y2="116.5" id="line76"/>
  <line points="313.16 127.87 313.16 116.5" style="fill:none;stroke:rgb(0,0,0);stroke-width:0.25;" signature="ML" x1="313.16" y1="127.87" x2="313.16" y2="116.5" id="line77"/>
  <line points="255.55 128.0 313.16 128.0" style="fill:none;stroke:rgb(0,0,0);stroke-width:0.25;" signature="ML" x1="255.55" y1="128.0" x2="313.16" y2="128.0" id="line78"/>
 </g>
</svg>
