<?xml version="1.0" encoding="UTF-8"?>
<svg height="813.0" width="4066.7" xmlns="http://www.w3.org/2000/svg">
 <g>
  <text svgx:width="0.32,0.51,0.51,0.34,0.51,0.51,0.23,0.23,0.51,0.31,0.23,0.86,0.48,0.51,0.23,0.42,0.23,0.51,0.48,0.23,0.51,0.51,0.51,0.23,0.42,0.23,0.31,0.48,0.23,0.57,0.51,0.23,0.51,0.79,0.48,0.23,0.51,0.25,0.23" y="44.6" x="319.7,322.6,327.2,331.8,334.9,339.6,344.2,346.2,348.3,352.9,355.6,357.7,365.4,369.7,374.3,376.4,380.1,382.2,386.8,391.1,393.1,397.7,402.4,407.0,409.0,412.8,414.9,417.6,421.9,424.0,429.1,433.7,435.7,440.4,447.5,451.8,453.9,458.4,460.7" style="fill:rgb(7,118,49);font-family:Calibri,Italic;font-size:9.0px;stroke:none;" xmlns:svgx="http://www.xml-cml.org/schema/svgx">Journal of Medicine and Life Volume 7, </text>
  <text svgx:width="0.47,0.53,0.49,0.41,0.25,0.53,0.25,0.23,0.27,0.39,0.39,0.53,0.49,0.23,0.51" y="44.6" x="462.7,466.9,471.7,476.1,479.8,482.0,486.8,489.0,491.1,493.5,497.0,500.5,505.2,509.7,511.7" style="fill:rgb(7,118,49);font-family:Calibri,BoldItalic;font-size:9.0px;stroke:none;" xmlns:svgx="http://www.xml-cml.org/schema/svgx">Special Issue 3</text>
  <text svgx:width="0.25,0.23,0.51,0.51,0.51,0.51,0.23" y="44.6" x="516.2,518.5,520.5,525.1,529.6,534.2,538.7" style="fill:rgb(7,118,49);font-family:Calibri,Italic;font-size:9.0px;stroke:none;" xmlns:svgx="http://www.xml-cml.org/schema/svgx">, 2014 </text>
  <text svgx:width="0.51,0.51,0.23" y="803.0" x="292.6,297.7,302.8" style="fill:rgb(0,0,0);font-family:Calibri,Italic;font-size:10.0px;stroke:none;" xmlns:svgx="http://www.xml-cml.org/schema/svgx">58 </text>
  <text svgx:width="0.5,0.46,0.5,0.23,0.46,0.23,0.46,0.23,0.23" y="67.0" x="209.2,214.7,219.7,225.2,227.7,232.7,235.2,240.2,242.7" style="fill:rgb(0,0,0);font-family:ArialNarrow,Bold;font-size:11.0px;stroke:none;" xmlns:svgx="http://www.xml-cml.org/schema/svgx">Table 1. </text>
  <text svgx:width="0.59,0.46,0.46,0.68,0.18,0.41,0.46,0.18,0.23,0.41,0.46,0.68,0.46,0.46,0.41,0.18,0.23,0.18,0.46,0.46,0.23,0.46,0.23,0.23,0.23,0.46,0.41,0.68,0.46,0.23,0.55,0.64,0.23" y="67.0" x="245.3,251.8,256.8,261.8,269.4,271.4,275.9,280.9,282.9,285.4,289.9,294.9,302.5,307.5,312.5,317.0,319.0,321.5,323.5,328.6,333.6,336.1,341.1,343.6,346.1,348.6,353.6,358.1,365.6,370.6,373.2,379.2,386.2" style="fill:rgb(0,0,0);font-family:ArialNarrow;font-size:11.0px;stroke:none;" xmlns:svgx="http://www.xml-cml.org/schema/svgx">Chemical composition of thyme EO </text>
  <text svgx:width="0.59,0.5,0.23,0.23,0.55,0.59,0.5,0.23,0.27,0.73,0.23,0.5,0.27,0.23,0.55,0.59,0.32,0.46,0.46,0.23,0.73,0.23,0.5,0.27,0.23,0.27,0.5,0.27,0.46,0.23,0.23,0.55,0.59,0.5,0.5,0.46,0.27,0.23,0.27,0.5,0.46,0.5,0.27,0.46,0.32,0.23" y="81.1" x="56.7,63.2,68.7,71.2,73.7,95.9,102.4,108.0,110.5,113.5,121.5,124.0,129.5,132.6,135.1,172.3,178.8,182.3,187.3,192.3,194.9,202.9,205.4,210.9,213.9,216.5,219.5,225.0,228.0,233.0,235.5,238.0,295.1,301.6,307.1,312.6,317.6,320.6,323.1,326.1,331.6,336.6,342.1,345.2,350.2,353.7" style="fill:rgb(0,0,0);font-family:ArialNarrow,Bold;font-size:11.0px;stroke:none;" xmlns:svgx="http://www.xml-cml.org/schema/svgx">No. RT (min) Area % of total Constituents* </text>
  <text svgx:width="0.46,0.23,0.55,0.46,0.23,0.46,0.46,0.23,0.55,0.46,0.23,0.46,0.46,0.23,0.55,0.46,0.18,0.46,0.46,0.46,0.27,0.5,0.46,0.46,0.18,0.46,0.46,0.46,0.23" y="95.2" x="56.7,61.7,64.3,95.9,100.9,103.4,108.5,113.5,116.0,172.2,177.2,179.7,184.8,189.8,192.3,295.0,300.0,302.0,307.0,312.1,317.1,320.0,325.5,330.6,335.6,337.6,342.6,347.6,352.7" style="fill:rgb(0,0,0);font-family:ArialNarrow;font-size:11.0px;stroke:none;" xmlns:svgx="http://www.xml-cml.org/schema/svgx">1 5.39 1.06 alpha-Thujene </text>
  <text svgx:width="0.46,0.23,0.55,0.46,0.23,0.46,0.46,0.23,0.55,0.46,0.23,0.46,0.46,0.23,0.55,0.46,0.18,0.46,0.46,0.46,0.27,0.55,0.18,0.46,0.46,0.46,0.46,0.23" y="108.3" x="56.7,61.7,64.3,95.9,100.9,103.4,108.5,113.5,116.0,172.3,177.2,179.8,184.8,189.8,192.4,295.0,300.0,302.0,307.0,312.0,317.0,320.0,326.1,328.1,333.1,338.1,343.1,348.2" style="fill:rgb(0,0,0);font-family:ArialNarrow;font-size:11.0px;stroke:none;" xmlns:svgx="http://www.xml-cml.org/schema/svgx">2 5.63 1.07 alpha-Pinene </text>
  <text svgx:width="0.46,0.23,0.55,0.46,0.23,0.46,0.46,0.23,0.55,0.46,0.23,0.46,0.46,0.23,0.55,0.46,0.46,0.23,0.46,0.27,0.55,0.18,0.46,0.46,0.46,0.46,0.23" y="121.4" x="56.7,61.7,64.3,95.9,100.9,103.4,108.5,113.5,116.0,172.3,177.2,179.8,184.8,189.8,192.4,295.0,300.0,305.0,307.5,312.5,315.5,321.6,323.6,328.6,333.6,338.6,343.7" style="fill:rgb(0,0,0);font-family:ArialNarrow;font-size:11.0px;stroke:none;" xmlns:svgx="http://www.xml-cml.org/schema/svgx">3 6.89 0.37 beta-Pinene </text>
  <text svgx:width="0.46,0.23,0.55,0.46,0.23,0.46,0.46,0.23,0.55,0.46,0.23,0.46,0.46,0.23,0.55,0.46,0.46,0.23,0.46,0.27,0.68,0.41,0.27,0.41,0.46,0.46,0.46,0.23" y="134.6" x="56.7,61.7,64.3,95.9,100.9,103.4,108.5,113.5,116.0,172.2,177.2,179.7,184.8,189.8,192.3,295.0,300.0,305.0,307.5,312.5,315.5,323.0,327.6,330.6,335.1,340.2,345.1,350.2" style="fill:rgb(0,0,0);font-family:ArialNarrow;font-size:11.0px;stroke:none;" xmlns:svgx="http://www.xml-cml.org/schema/svgx">4 6.97 1.53 beta-Myrcene </text>
  <text svgx:width="0.46,0.23,0.55,0.46,0.23,0.46,0.46,0.23,0.55,0.46,0.23,0.46,0.46,0.23,0.55,0.46,0.18,0.46,0.46,0.46,0.27,0.55,0.46,0.46,0.18,0.18,0.46,0.46,0.46,0.27,0.46,0.46,0.46,0.23" y="147.7" x="56.7,61.7,64.3,95.9,100.9,103.4,108.5,113.5,116.0,172.3,177.2,179.8,184.8,189.8,192.4,295.0,300.0,302.0,307.0,312.0,317.0,320.0,326.1,331.0,336.1,338.1,340.1,345.1,350.2,355.2,358.2,363.2,368.3,373.3" style="fill:rgb(0,0,0);font-family:ArialNarrow;font-size:11.0px;stroke:none;" xmlns:svgx="http://www.xml-cml.org/schema/svgx">5 7.53 0.33 alpha-Phellandrene </text>
  <text svgx:width="0.46,0.23,0.55,0.46,0.23,0.46,0.46,0.23,0.55,0.46,0.23,0.46,0.46,0.23,0.55,0.59,0.46,0.27,0.46,0.46,0.46,0.48,0.46,0.27,0.46,0.27,0.48,0.23" y="160.8" x="56.7,61.7,64.3,95.9,100.9,103.4,108.5,113.5,116.0,172.2,177.2,179.7,184.8,189.8,192.3,295.0,301.5,306.5,309.5,314.5,319.6,324.5,329.8,334.8,337.9,342.8,345.8,351.2" style="fill:rgb(0,0,0);font-family:ArialNarrow;font-size:11.0px;stroke:none;" xmlns:svgx="http://www.xml-cml.org/schema/svgx">6 7.77 3.76 Carene&lt;δ-2-&gt; </text>
  <text svgx:width="0.46,0.23,0.55,0.46,0.23,0.46,0.46,0.23,0.55,0.46,0.23,0.46,0.46,0.23,0.55,0.59,0.27,0.46,0.18,0.68,0.46,0.46,0.46,0.46,0.46,0.23" y="173.9" x="56.7,61.7,64.3,95.9,100.9,103.4,108.5,113.5,116.0,172.2,177.2,179.7,184.8,189.8,192.3,295.0,301.5,304.5,309.6,311.6,319.1,324.1,329.2,334.1,339.2,344.2" style="fill:rgb(0,0,0);font-family:ArialNarrow;font-size:11.0px;stroke:none;" xmlns:svgx="http://www.xml-cml.org/schema/svgx">7 8.04 0.29 D-Limonene </text>
  <text svgx:width="0.46,0.23,0.55,0.46,0.23,0.46,0.46,0.23,0.55,0.46,0.23,0.46,0.46,0.23,0.55,0.46,0.46,0.23,0.46,0.27,0.55,0.46,0.46,0.18,0.18,0.46,0.46,0.46,0.27,0.46,0.46,0.46,0.23" y="187.1" x="56.7,61.7,64.3,95.9,100.9,103.4,108.5,113.5,116.1,172.3,177.2,179.8,184.8,189.9,192.4,295.0,300.0,305.0,307.6,312.6,315.6,321.6,326.6,331.6,333.7,335.7,340.7,345.7,350.7,353.7,358.7,363.7,368.8" style="fill:rgb(0,0,0);font-family:ArialNarrow;font-size:11.0px;stroke:none;" xmlns:svgx="http://www.xml-cml.org/schema/svgx">8 8.26 0.21 beta-Phellandrene </text>
  <text svgx:width="0.46,0.23,0.55,0.46,0.23,0.46,0.46,0.23" y="200.2" x="56.7,61.7,64.3,95.9,100.9,103.4,108.5,113.5" style="fill:rgb(0,0,0);font-family:ArialNarrow;font-size:11.0px;stroke:none;" xmlns:svgx="http://www.xml-cml.org/schema/svgx">9 8.46 </text>
  <text svgx:width="0.46,0.23,0.46,0.46,0.23" y="200.2" x="172.3,177.2,179.8,184.8,189.8" style="fill:rgb(0,0,0);font-family:ArialNarrow,Bold;font-size:11.0px;stroke:none;" xmlns:svgx="http://www.xml-cml.org/schema/svgx">8.41 </text>
  <text svgx:width="0.5,0.46,0.32,0.46,0.27,0.59,0.46,0.73,0.46,0.5,0.46" y="200.2" x="295.0,300.5,305.5,309.1,314.0,317.0,323.6,328.6,336.6,341.6,347.1" style="fill:rgb(0,0,0);font-family:ArialNarrow,Bold;font-size:11.0px;stroke:none;" xmlns:svgx="http://www.xml-cml.org/schema/svgx">para-Cymene</text>
  <text svgx:width="0.46,0.46,0.23,0.55,0.46,0.23,0.46,0.46,0.23" y="213.3" x="56.7,61.7,66.7,69.3,96.0,100.9,103.4,108.5,113.5" style="fill:rgb(0,0,0);font-family:ArialNarrow;font-size:11.0px;stroke:none;" xmlns:svgx="http://www.xml-cml.org/schema/svgx">10 8.96 </text>
  <text svgx:width="0.46,0.46,0.23,0.46,0.46,0.23" y="213.3" x="172.3,177.2,182.2,184.8,189.8,194.8" style="fill:rgb(0,0,0);font-family:ArialNarrow,Bold;font-size:11.0px;stroke:none;" xmlns:svgx="http://www.xml-cml.org/schema/svgx">30.90 </text>
  <text svgx:width="0.5,0.46,0.73,0.73,0.46,0.27,0.5,0.46,0.32,0.5,0.23,0.5,0.46,0.5,0.46" y="213.3" x="295.0,300.5,305.5,313.6,321.5,326.5,329.5,335.1,340.1,343.6,349.1,351.7,357.2,362.2,367.7" style="fill:rgb(0,0,0);font-family:ArialNarrow,Bold;font-size:11.0px;stroke:none;" xmlns:svgx="http://www.xml-cml.org/schema/svgx">gamma-Terpinene</text>
  <text svgx:width="0.46,0.46,0.23,0.55,0.46,0.23,0.46,0.46,0.23,0.55,0.46,0.23,0.46,0.46,0.23,0.55,0.5,0.46,0.27,0.46,0.18,0.46,0.46,0.46,0.18,0.23" y="226.4" x="56.7,61.7,66.7,69.3,96.0,100.9,103.4,108.5,113.5,116.0,172.3,177.3,179.7,184.8,189.8,192.3,295.0,300.5,305.5,308.5,313.5,315.5,320.5,325.5,330.6,332.6" style="fill:rgb(0,0,0);font-family:ArialNarrow;font-size:11.0px;stroke:none;" xmlns:svgx="http://www.xml-cml.org/schema/svgx">11 9.48 0.47 Terpineol </text>
  <text svgx:width="0.46,0.46,0.23,0.55,0.46,0.46,0.23,0.46,0.46,0.23,0.55,0.46,0.23,0.46,0.46,0.23,0.55,0.5,0.46,0.27,0.46,0.18,0.46,0.46,0.46,0.27,0.46,0.27,0.46,0.18,0.23" y="239.5" x="56.7,61.7,66.7,69.3,95.9,100.9,105.9,108.5,113.5,118.5,121.0,172.3,177.3,179.8,184.8,189.8,192.4,295.0,300.5,305.5,308.5,313.4,315.5,320.5,325.5,330.5,333.6,338.5,341.6,346.6,348.6" style="fill:rgb(0,0,0);font-family:ArialNarrow;font-size:11.0px;stroke:none;" xmlns:svgx="http://www.xml-cml.org/schema/svgx">12 12.55 0.46 Terpinen-4-ol </text>
  <text svgx:width="0.46,0.46,0.23,0.55,0.46,0.46,0.23,0.46,0.46,0.23" y="252.7" x="56.7,61.7,66.7,69.2,95.9,100.9,105.9,108.5,113.5,118.5" style="fill:rgb(0,0,0);font-family:ArialNarrow;font-size:11.0px;stroke:none;" xmlns:svgx="http://www.xml-cml.org/schema/svgx">13 16.17 </text>
  <text svgx:width="0.46,0.46,0.23,0.46,0.46,0.23,0.55,0.5,0.5,0.46,0.73,0.5,0.23" y="252.7" x="172.3,177.3,182.2,184.8,189.8,194.9,197.4,295.1,300.5,306.0,311.0,319.0,324.5" style="fill:rgb(0,0,0);font-family:ArialNarrow,Bold;font-size:11.0px;stroke:none;" xmlns:svgx="http://www.xml-cml.org/schema/svgx">47.59 Thymol</text>
  <text svgx:width="0.46,0.46,0.23,0.55,0.46,0.46,0.23,0.46,0.46,0.23,0.55,0.46,0.23,0.46,0.46,0.23,0.55,0.59,0.46,0.27,0.41,0.46,0.46,0.46,0.41,0.18,0.18,0.46,0.46,0.46,0.23" y="265.8" x="56.7,61.7,66.7,69.3,95.9,100.9,105.9,108.5,113.5,118.5,121.0,172.3,177.3,179.8,184.8,189.8,192.4,295.0,301.5,306.5,309.5,314.0,319.1,324.0,329.0,333.6,335.6,337.6,342.6,347.6,352.7" style="fill:rgb(0,0,0);font-family:ArialNarrow;font-size:11.0px;stroke:none;" xmlns:svgx="http://www.xml-cml.org/schema/svgx">14 17.32 2.68 Caryophyllene </text>
  <text svgx:width="0.46,0.46,0.23,0.55,0.46,0.46,0.23,0.46,0.46,0.23,0.55,0.46,0.23,0.46,0.46,0.23,0.55,0.59,0.41,0.41,0.18,0.46,0.46,0.46,0.41,0.46,0.46,0.46,0.23,0.23,0.46,0.27,0.68,0.46,0.23,0.46,0.41,0.18,0.27,0.46,0.27,0.27,0.46,0.27,0.68,0.46,0.23,0.46,0.41,0.18,0.27,0.46,0.27,0.68,0.46,0.23,0.46,0.41,0.18,0.46,0.46,0.46,0.27,0.46,0.27,0.46,0.46,0.41,0.46,0.46,0.41,0.18,0.27,0.23" y="278.9" x="56.7,61.7,66.7,69.3,96.0,100.9,105.9,108.5,113.5,118.5,121.1,172.3,177.3,179.8,184.8,189.9,192.4,295.0,301.5,306.0,310.5,312.5,317.5,322.6,327.6,332.1,337.1,342.1,347.1,349.6,352.2,357.2,360.2,367.6,372.6,375.2,380.2,384.7,386.7,389.7,394.7,397.7,400.7,405.7,408.8,416.3,421.3,423.7,428.7,433.3,435.3,438.3,443.3,446.3,453.8,458.7,461.3,466.4,470.9,472.8,477.9,482.9,487.9,490.9,495.9,499.0,504.0,509.0,513.5,518.6,523.6,528.1,530.1,533.1" style="fill:rgb(0,0,0);font-family:ArialNarrow;font-size:11.0px;stroke:none;" xmlns:svgx="http://www.xml-cml.org/schema/svgx">15 19.03 0.78 Cyclohexene, 1-methyl-4-(5-methyl-1-methylene-4-hexenyl) </text>
  <text svgx:width="0.5,0.5,0.27,0.46,0.23,0.23,0.55,0.46,0.46,0.23,0.46,0.46,0.73,0.23" y="293.0" x="56.7,62.2,67.7,70.7,75.7,78.2,80.7,172.2,177.2,182.2,184.7,189.7,194.8,202.8" style="fill:rgb(0,0,0);font-family:ArialNarrow,Bold;font-size:11.0px;stroke:none;" xmlns:svgx="http://www.xml-cml.org/schema/svgx">Total 99.91% </text>
  <text svgx:width="0.32,0.59,0.46,0.46,0.41,0.23,0.18,0.23,0.46,0.46,0.46,0.23,0.41,0.23,0.46,0.27,0.46,0.41,0.46,0.46,0.23,0.46,0.46,0.23,0.18,0.46,0.23,0.23,0.46,0.46,0.23,0.46,0.27,0.46,0.46,0.27,0.23,0.46,0.23,0.23,0.46,0.18,0.46,0.23,0.18,0.46,0.46,0.23,0.23,0.27,0.46,0.68,0.23,0.23,0.46,0.46,0.23,0.55,0.5,0.23,0.46,0.46,0.23,0.68,0.55,0.23,0.41,0.46,0.18,0.46,0.68,0.46,0.23,0.23" y="307.1" x="56.7,60.2,66.7,71.7,76.7,81.2,83.8,85.8,88.3,93.3,98.3,103.3,105.8,110.3,112.9,117.9,120.9,125.9,130.4,135.5,140.4,142.9,148.0,153.0,155.5,157.5,162.5,165.0,167.5,172.6,177.6,180.1,185.1,188.1,193.2,198.1,201.1,203.7,208.6,211.1,213.7,218.7,220.7,225.7,228.3,230.3,235.3,240.3,242.8,245.3,248.3,253.3,260.8,263.3,265.8,270.8,275.8,278.4,284.4,289.9,292.4,297.4,302.4,305.0,312.5,318.5,321.0,325.5,330.5,332.6,337.5,345.1,350.1,352.7" style="fill:rgb(0,0,0);font-family:ArialNarrow;font-size:11.0px;stroke:none;" xmlns:svgx="http://www.xml-cml.org/schema/svgx">*Constituents presented in the order of elution from the VF 35 MS column. </text>
  <text svgx:width="0.5,0.46,0.46,0.23,0.18,0.46,0.46,0.18,0.46,0.18,0.23,0.18,0.46,0.46,0.23,0.46,0.23,0.23,0.23,0.46,0.46,0.23,0.46,0.27,0.46,0.59,0.23,0.46,0.23,0.46,0.23,0.23,0.55,0.23,0.23,0.41,0.46,0.18,0.18,0.23,0.23,0.55,0.23,0.23,0.46,0.46,0.46,0.46,0.68,0.46,0.46,0.18,0.46,0.46,0.23,0.23,0.55,0.23,0.23,0.46,0.46,0.27,0.46,0.46,0.41,0.23,0.23,0.55,0.23,0.23,0.46,0.46,0.27,0.46,0.46,0.18,0.46,0.46,0.41,0.46,0.23,0.46,0.46,0.46,0.23,0.55,0.23,0.23,0.23,0.46,0.46,0.41,0.46,0.18,0.18,0.41,0.23,0.59,0.46,0.41,0.23,0.46,0.27,0.46,0.41,0.18,0.46,0.46,0.41,0.18,0.41,0.23" y="332.4" x="92.7,98.2,103.2,108.2,111.1,113.2,118.1,123.2,125.2,130.2,132.2,134.7,136.6,141.7,146.7,149.6,154.6,157.1,160.0,162.5,167.5,172.5,175.4,180.4,183.5,188.5,195.0,197.6,202.5,205.5,210.5,213.0,216.0,222.0,224.5,227.4,231.9,236.9,238.9,240.9,243.3,246.3,252.3,254.8,257.7,262.7,267.7,272.7,277.7,285.3,290.3,295.3,297.3,302.3,307.3,309.8,312.8,318.8,321.3,324.3,329.2,334.2,337.3,342.3,347.3,351.8,354.3,357.2,363.2,365.7,368.7,373.6,378.6,381.7,386.7,391.7,393.7,398.7,403.7,408.3,413.3,416.2,421.2,426.3,431.2,434.2,440.2,442.8,445.7,448.2,453.2,458.2,462.6,467.7,469.7,471.7,476.1,479.1,485.6,490.6,495.1,498.0,503.1,506.1,511.1,515.5,517.6,522.6,527.6,532.1,534.1,538.6" style="fill:rgb(0,0,0);font-family:ArialNarrow;font-size:11.0px;stroke:none;" xmlns:svgx="http://www.xml-cml.org/schema/svgx">The inhibition of the growth of E. coli, K. pneumoniae, S. aureus, P. aeruginosa and E. faecalis was previously </text>
  <text svgx:width="0.27,0.46,0.46,0.46,0.27,0.23,0.46,0.46,0.23,0.23" y="345.0" x="56.7,59.7,64.7,69.7,74.7,77.7,80.2,85.2,90.2,93.4" style="fill:rgb(0,0,0);font-family:ArialNarrow;font-size:11.0px;stroke:none;" xmlns:svgx="http://www.xml-cml.org/schema/svgx">reported [</text>
  <text svgx:width="0.46,0.23,0.46,0.23,0.46" y="345.0" x="95.9,100.9,103.5,108.5,111.0" style="fill:rgb(0,0,0);font-family:ArialNarrow,Bold;font-size:11.0px;stroke:none;" xmlns:svgx="http://www.xml-cml.org/schema/svgx">4,7,9</text>
  <text svgx:width="0.23,0.23,0.46,0.18,0.46,0.46,0.46,0.23,0.59,0.18,0.23,0.46,0.23,0.23,0.46,0.46,0.23,0.46,0.23,0.23,0.18,0.41,0.46,0.41,0.41,0.23,0.46,0.46,0.46,0.18,0.46,0.41,0.23,0.23,0.59,0.23,0.23,0.46,0.18,0.46,0.18,0.41,0.46,0.46,0.41" y="345.0" x="116.0,118.5,121.7,126.7,128.7,133.7,138.8,143.8,146.9,153.4,155.4,158.0,163.0,166.2,168.7,173.7,178.7,181.9,186.9,189.4,191.9,193.9,198.4,203.4,207.9,212.4,215.6,220.6,225.7,230.7,232.7,237.7,242.2,244.7,247.9,254.3,256.8,260.0,265.1,267.0,272.1,274.1,278.6,283.6,288.6" style="fill:rgb(0,0,0);font-family:ArialNarrow;font-size:11.0px;stroke:none;" xmlns:svgx="http://www.xml-cml.org/schema/svgx">] along with the efficacy against C. albicans</text>
  <text svgx:width="0.23" y="345.0" x="296.3" style="fill:rgb(0,0,0);font-family:ArialNarrow;font-size:11.0px;stroke:none;" xmlns:svgx="http://www.xml-cml.org/schema/svgx">[</text>
  <text svgx:width="0.46,0.23,0.46,0.46,0.23,0.46,0.46" y="345.0" x="298.9,303.8,306.3,311.3,316.3,318.9,323.9" style="fill:rgb(0,0,0);font-family:ArialNarrow,Bold;font-size:11.0px;stroke:none;" xmlns:svgx="http://www.xml-cml.org/schema/svgx">9,16,17</text>
  <text svgx:width="0.23,0.23,0.46,0.46,0.46,0.23,0.55,0.23,0.23,0.23,0.41,0.46,0.46,0.18,0.68,0.46,0.27,0.18,0.46,0.68" y="345.0" x="328.9,331.4,334.6,339.6,344.6,349.6,352.9,358.9,361.3,364.5,367.0,371.5,376.5,381.5,383.5,391.0,396.0,399.1,401.1,406.1" style="fill:rgb(0,0,0);font-family:ArialNarrow;font-size:11.0px;stroke:none;" xmlns:svgx="http://www.xml-cml.org/schema/svgx">] and S. typhimurium</text>
  <text svgx:width="0.23" y="345.0" x="416.9" style="fill:rgb(0,0,0);font-family:ArialNarrow;font-size:11.0px;stroke:none;" xmlns:svgx="http://www.xml-cml.org/schema/svgx">[</text>
  <text svgx:width="0.46,0.23,0.46" y="345.0" x="419.4,424.4,426.9" style="fill:rgb(0,0,0);font-family:ArialNarrow,Bold;font-size:11.0px;stroke:none;" xmlns:svgx="http://www.xml-cml.org/schema/svgx">4,9</text>
  <text svgx:width="0.23,0.23,0.23,0.27,0.46,0.41,0.46,0.46,0.41,0.23,0.18,0.41,0.46,0.18,0.41,0.23,0.23,0.23,0.46,0.23,0.41,0.46,0.46,0.23,0.27,0.46,0.41,0.23,0.23,0.23" y="345.0" x="431.9,434.4,436.9,440.1,443.1,448.1,452.6,457.6,462.6,467.1,469.7,471.7,476.2,481.2,483.2,487.8,490.3,493.4,495.9,501.0,504.2,508.7,513.7,518.7,521.2,524.2,529.2,533.7,536.3,538.8" style="fill:rgb(0,0,0);font-family:ArialNarrow;font-size:11.0px;stroke:none;" xmlns:svgx="http://www.xml-cml.org/schema/svgx">], respectively. In contrast, </text>
  <text svgx:width="0.41,0.46,0.68,0.46,0.23,0.41,0.23,0.46,0.46,0.18,0.46,0.41,0.23,0.27,0.46,0.46,0.46,0.27,0.23,0.23,0.23,0.46,0.46,0.23,0.18,0.46,0.46,0.23,0.23,0.18,0.41,0.18,0.46,0.46,0.41,0.41,0.23,0.46,0.23,0.23,0.23,0.46,0.41,0.68,0.46,0.23,0.55,0.64,0.23,0.46,0.46,0.46,0.18,0.46,0.41,0.23,0.23,0.55,0.23,0.23,0.41,0.46,0.18,0.18,0.23,0.23" y="357.7" x="56.7,61.2,66.2,73.8,78.8,81.3,85.8,88.3,93.3,98.3,100.3,105.3,109.8,112.3,115.4,120.4,125.4,130.4,133.4,135.9,138.4,140.9,145.9,151.0,153.5,155.5,160.5,165.6,168.1,170.6,172.6,177.1,179.1,184.1,189.1,193.6,198.1,200.6,205.7,208.2,210.7,213.2,218.2,222.7,230.2,235.2,237.7,243.7,250.7,253.3,258.3,263.3,268.3,270.3,275.3,279.8,282.3,284.8,290.8,293.3,295.8,300.3,305.4,307.4,309.4,311.9" style="fill:rgb(0,0,0);font-family:ArialNarrow;font-size:11.0px;stroke:none;" xmlns:svgx="http://www.xml-cml.org/schema/svgx">some studies report the inefficiency of thyme EO against E. coli [</text>
  <text svgx:width="0.46,0.46,0.23,0.46,0.46" y="357.7" x="314.4,319.4,324.4,326.9,332.0" style="fill:rgb(0,0,0);font-family:ArialNarrow,Bold;font-size:11.0px;stroke:none;" xmlns:svgx="http://www.xml-cml.org/schema/svgx">16,17</text>
  <text svgx:width="0.23,0.23,0.23,0.55,0.23,0.23,0.46,0.46,0.27,0.46,0.46,0.41,0.23,0.23" y="357.7" x="337.0,339.5,342.0,344.5,350.5,353.0,355.5,360.6,365.6,368.6,373.6,378.6,383.1,385.6" style="fill:rgb(0,0,0);font-family:ArialNarrow;font-size:11.0px;stroke:none;" xmlns:svgx="http://www.xml-cml.org/schema/svgx">], S. aureus [</text>
  <text svgx:width="0.46,0.46" y="357.7" x="388.1,393.2" style="fill:rgb(0,0,0);font-family:ArialNarrow,Bold;font-size:11.0px;stroke:none;" xmlns:svgx="http://www.xml-cml.org/schema/svgx">16</text>
  <text svgx:width="0.23,0.23,0.46,0.46,0.46,0.23,0.55,0.23,0.23,0.46,0.46,0.46,0.46,0.68,0.46,0.46,0.18,0.46,0.46,0.23,0.23" y="357.7" x="398.2,400.7,403.2,408.2,413.2,418.2,420.7,426.7,429.3,431.8,436.8,441.8,446.8,451.8,459.4,464.4,469.4,471.4,476.5,481.4,484.0" style="fill:rgb(0,0,0);font-family:ArialNarrow;font-size:11.0px;stroke:none;" xmlns:svgx="http://www.xml-cml.org/schema/svgx">] and K. pneumoniae [</text>
  <text svgx:width="0.46,0.46" y="357.7" x="486.5,491.5" style="fill:rgb(0,0,0);font-family:ArialNarrow,Bold;font-size:11.0px;stroke:none;" xmlns:svgx="http://www.xml-cml.org/schema/svgx">16</text>
  <text svgx:width="0.23,0.23,0.23" y="357.7" x="496.4,499.0,501.5" style="fill:rgb(0,0,0);font-family:ArialNarrow;font-size:11.0px;stroke:none;" xmlns:svgx="http://www.xml-cml.org/schema/svgx">]. </text>
  <text class="image" id="image.3.1" width="483" height="366" y="330.6" x="56.7" style="font-size:8.0px;">image.3.1.57_540.331_697</text>
  <text svgx:width="0.5,0.23,0.5,0.23,0.23,0.46,0.23" y="749.6" x="103.9,109.4,111.9,117.4,119.9,122.5,127.5" style="fill:rgb(0,0,0);font-family:ArialNarrow,Bold;font-size:11.0px;stroke:none;" xmlns:svgx="http://www.xml-cml.org/schema/svgx">Fig. 1 </text>
  <text svgx:width="0.5,0.46,0.46,0.23,0.46,0.46,0.23,0.18,0.68,0.18,0.41,0.27,0.46,0.46,0.18,0.46,0.18,0.23,0.46,0.41,0.23,0.18,0.41,0.18,0.23,0.41,0.23,0.46,0.23,0.23,0.23,0.46,0.41,0.68,0.46,0.23,0.46,0.18,0.18,0.23,0.23,0.46,0.23,0.23,0.46,0.18,0.23,0.23,0.46,0.27,0.46,0.46,0.23,0.23,0.46,0.68,0.46,0.46,0.46,0.23,0.41,0.23,0.23,0.46,0.41,0.46,0.27,0.46,0.41,0.41,0.46,0.46,0.23,0.46,0.41,0.23,0.46,0.23,0.68,0.46,0.46,0.46,0.23,0.18,0.46,0.46,0.18,0.46,0.18,0.23,0.18,0.46,0.46,0.23,0.23" y="749.6" x="130.0,135.5,140.5,145.5,148.0,153.1,158.1,160.5,162.6,170.1,172.1,176.6,179.6,184.6,189.6,191.6,196.6,198.6,201.2,206.2,210.7,213.1,215.1,219.7,221.7,224.2,228.7,231.2,236.2,238.7,241.3,243.8,248.8,253.2,260.7,265.7,268.3,273.3,275.4,277.3,279.8,282.4,287.4,289.9,292.4,297.4,299.4,301.9,304.4,309.4,312.4,317.5,322.5,325.0,327.5,332.5,340.0,345.0,350.1,355.1,357.6,362.1,364.6,367.1,372.1,376.6,381.6,384.6,389.7,394.2,398.7,403.7,408.7,411.3,416.3,420.8,423.3,428.3,430.8,438.4,443.4,448.4,453.4,455.9,457.9,462.9,468.0,469.9,475.0,477.0,479.5,481.4,486.5,491.5,494.0" style="fill:rgb(0,0,0);font-family:ArialNarrow;font-size:11.0px;stroke:none;" xmlns:svgx="http://www.xml-cml.org/schema/svgx">The antimicrobial activity of thyme oil, at different amounts, expressed as a mean inhibition </text>
  <text svgx:width="0.41,0.46,0.46,0.46,0.23,0.23,0.46,0.27,0.23,0.46,0.46,0.41,0.46,0.23,0.46,0.23,0.23,0.23,0.46,0.46,0.23,0.46,0.18,0.46,0.46,0.23,0.27,0.46,0.46,0.46,0.46,0.23,0.46,0.46,0.23,0.68,0.46,0.46,0.41,0.46,0.27,0.46,0.68,0.46,0.46,0.23,0.41,0.23" y="762.3" x="197.9,202.4,207.4,212.5,217.4,220.0,222.4,227.4,230.4,233.0,238.0,243.0,247.5,252.5,255.1,260.1,262.6,265.1,267.6,272.6,277.6,280.1,285.1,287.2,292.1,297.1,299.7,302.7,307.7,312.7,317.7,322.7,325.3,330.3,335.3,337.8,345.4,350.3,355.4,359.9,364.9,367.9,373.0,380.5,385.4,390.4,392.9,397.5" style="fill:rgb(0,0,0);font-family:ArialNarrow;font-size:11.0px;stroke:none;" xmlns:svgx="http://www.xml-cml.org/schema/svgx">zone for each of the nine repeated measurements </text>
 </g>
</svg>
