<?xml version="1.0" encoding="UTF-8"?>
<svg height="766.263" width="4485.879" xmlns="http://www.w3.org/2000/svg">
 <g id="page" xmlns:svgx="http://www.xml-cml.org/schema/svgx">
  <g begin="text">
   <text y="62.979" x="76.535,84.059,87.598,90.252,93.352,96.452,98.668,102.207,104.422" svgx:width="0.94,0.44,0.33,0.39,0.39,0.28,0.44,0.28,0.39" style="fill:rgb(0,0,0);font-family:URWPalladioL-Ital;font-size:7.97px;stroke:none;">Materials</text>
   <text y="62.979" x="109.515,113.5,117.485,121.47" svgx:width="0.5,0.5,0.5,0.5" style="fill:rgb(0,0,0);font-family:URWPalladioL-Bold;font-size:7.97px;stroke:none;">2017</text>
   <text y="62.979" x="125.455" svgx:width="0.25" style="fill:rgb(0,0,0);font-family:URWPalladioL-Roma;font-size:7.97px;stroke:none;">,</text>
   <text y="62.979" x="129.44,133.425" svgx:width="0.5,0.5" style="fill:rgb(0,0,0);font-family:URWPalladioL-Ital;font-size:7.97px;stroke:none;">10</text>
   <text y="62.979" x="137.41,139.4025,141.395,145.38,149.365,495.794,499.779,501.772,506.123,508.7531,510.77,514.755" svgx:width="0.25,0.55,0.5,0.5,0.55,0.5,0.55,0.55,0.33,0.55,0.5,0.5" style="fill:rgb(0,0,0);font-family:URWPalladioL-Roma;font-size:7.97px;stroke:none;">, 45 4 of 24</text>
   <text y="97.848" x="97.795,104.024,109.938,114.7188,117.834,122.702,127.01,131.319,136.186,142.101,145.413,148.371,153.451,156.33939999999998,159.427,162.739,168.654,174.304,183.276,188.0568,191.172,196.721,199.678,202.5664,205.653,210.165,215.713,221.627,224.94,230.021,232.978,238.892,243.0752,246.229,251.097,255.405,261.513,266.38,270.892,273.849,278.93,281.887,284.844,290.4216,293.512,296.825,302.739,308.389,317.362,322.91,325.868,328.358,331.568,337.676,341.06,345.571,351.221,360.194,365.062,370.976,375.844" svgx:width="0.61,0.58,0.48,0.55,0.48,0.42,0.42,0.48,0.58,0.33,0.29,0.5,0.29,0.55,0.33,0.58,0.56,0.88,0.48,0.55,0.55,0.29,0.29,0.55,0.44,0.55,0.58,0.33,0.5,0.29,0.58,0.42,0.55,0.48,0.42,0.6,0.48,0.44,0.29,0.5,0.29,0.29,0.56,0.55,0.33,0.58,0.56,0.88,0.55,0.29,0.25,0.55,0.6,0.33,0.44,0.56,0.88,0.48,0.58,0.48,0.25" style="fill:rgb(0,0,0);font-family:URWPalladioL-Roma;font-size:9.96px;stroke:none;">The essential thyme oil contains especially thymol, p-cymene,</text>
   <text y="97.848" x="381.538" svgx:width="0.61" style="fill:rgb(0,0,0);font-family:EURM10;font-size:9.96px;stroke:none;">γ</text>
   <text y="97.848" x="387.6,390.984,394.297,399.164,403.178,409.285,412.243,418.157,423.024,428.938,433.806,436.296,439.507,442.464,445.421,451.335,456.416,459.373,464.922,467.879,470.369,473.569,476.526,480.835,486.383,489.696,495.61,501.26,510.233,515.782" svgx:width="0.33,0.33,0.48,0.4,0.6,0.29,0.58,0.48,0.58,0.48,0.25,0.55,0.29,0.29,0.58,0.5,0.29,0.55,0.29,0.25,0.55,0.29,0.42,0.55,0.33,0.58,0.56,0.88,0.55,0.29" style="fill:rgb(0,0,0);font-family:URWPalladioL-Roma;font-size:9.96px;stroke:none;">-terpinene, linalol, isothymol</text>
   <text y="111.358" x="76.207,79.525,83.948,88.929,92.864,98.493,103.475,107.898,111.654,117.094,119.993,126.03,131.539,134.438,139.878,144.102,149.542,152.441,155.758,158.24800000000002,160.74,165.721,171.519" svgx:width="0.33,0.44,0.5,0.4,0.56,0.5,0.44,0.4,0.55,0.29,0.61,0.55,0.29,0.55,0.42,0.55,0.29,0.33,0.25,0.55,0.5,0.58,0.61" style="fill:rgb(0,0,0);font-family:URWPalladioL-Roma;font-size:9.96px;stroke:none;">(carvacrol/biosol), and</text>
   <text y="111.358" x="180.096" svgx:width="0.66" style="fill:rgb(0,0,0);font-family:EURM10;font-size:9.96px;stroke:none;">β</text>
   <text y="111.358" x="186.696,190.014,198.811,204.35,208.106,212.529,217.301,223.099,227.871,237.834,243.373,246.272,251.812,257.819,261.575" svgx:width="0.33,0.88,0.56,0.4,0.44,0.48,0.58,0.48,1.0,0.56,0.29,0.56,0.6,0.4,0.48" style="fill:rgb(0,0,0);font-family:URWPalladioL-Roma;font-size:9.96px;stroke:none;">-myrcene—Figure</text>
   <text y="111.358" x="268.838" svgx:width="0.5" style="fill:rgb(0,0,255);font-family:URWPalladioL-Roma;font-size:9.96px;stroke:none;">1</text>
   <text y="111.358" x="273.819" svgx:width="0.25" style="fill:rgb(0,0,0);font-family:URWPalladioL-Roma;font-size:9.96px;stroke:none;">.</text>
  </g>
  <g begin="text">
   <text y="77.781" x="87.652,94.813,98.186,100.718,103.674,106.63,108.745,112.118,114.233,117.189" svgx:width="0.94,0.44,0.33,0.39,0.39,0.28,0.44,0.28,0.39,0.25" style="fill:rgb(0,0,0);font-family:PalatinoLinotype,Italic;font-size:7.58px;stroke:none;">Materials </text>
   <text y="77.781" x="119.059,122.878,126.697,130.516" svgx:width="0.5,0.5,0.5,0.5" style="fill:rgb(0,0,0);font-family:PalatinoLinotype,Bold;font-size:7.58px;stroke:none;">2017</text>
   <text y="77.781" x="134.335,136.216" svgx:width="0.25,0.25" style="fill:rgb(0,0,0);font-family:PalatinoLinotype;font-size:7.58px;stroke:none;">, </text>
   <text y="77.781" x="138.097,141.916" svgx:width="0.5,0.5" style="fill:rgb(0,0,0);font-family:PalatinoLinotype,Italic;font-size:7.58px;stroke:none;">10</text>
   <text y="77.781" x="145.678,147.558,149.439,153.258,157.078,158.973,485.853,489.671,491.552,495.718,498.226,500.107,503.925,507.743" svgx:width="0.25,0.25,0.5,0.5,0.25,0.55,0.5,0.25,0.55,0.33,0.25,0.5,0.5,0.25" style="fill:rgb(0,0,0);font-family:PalatinoLinotype;font-size:7.58px;stroke:none;">, 45 4 of 23 </text>
   <text y="101.493" x="107.83,113.659,119.193,123.747,126.127,127.281,131.835,135.865,139.896,144.45,149.984,153.003,155.768,160.522,163.287,165.667,166.821,169.919,175.453,180.74,189.138,193.692,196.072,197.226,202.417,205.182,207.948,210.328,211.481,215.702,220.833,226.367,229.465,234.219,236.984,242.518,246.549,248.929,250.026,254.58,258.61,264.325,268.879,273.041,275.777,280.53,283.296,286.061,291.347,293.727,294.881,297.979,303.513,308.8,317.198,322.329,325.121,327.496,329.876,330.973,336.688,339.853,344.074,349.36,357.759,362.313,367.847,372.401,374.776,377.156,378.35,383.993,387.128,390.205,394.773,398.542,404.271,407.05,412.599,417.167,422.715,427.283,429.673,432.053,433.15,435.929,438.708,444.18,448.948,451.727,456.858,459.65,462.04,464.42,465.516,468.296,472.341,477.546,480.623,486.171,491.472,499.796,504.984,507.763" svgx:width="0.61,0.58,0.48,0.25,0.55,0.48,0.42,0.42,0.48,0.58,0.33,0.29,0.5,0.29,0.25,0.55,0.33,0.58,0.56,0.88,0.48,0.25,0.55,0.55,0.29,0.29,0.25,0.55,0.44,0.55,0.58,0.33,0.5,0.29,0.58,0.42,0.25,0.55,0.48,0.42,0.6,0.48,0.44,0.29,0.5,0.29,0.29,0.56,0.25,0.55,0.33,0.58,0.56,0.88,0.55,0.29,0.25,0.25,0.55,0.6,0.33,0.44,0.56,0.88,0.48,0.58,0.48,0.25,0.25,0.55,0.59,0.33,0.33,0.48,0.4,0.6,0.29,0.58,0.48,0.58,0.48,0.25,0.25,0.55,0.29,0.29,0.58,0.5,0.29,0.55,0.29,0.25,0.25,0.55,0.29,0.42,0.55,0.33,0.58,0.56,0.88,0.55,0.29,0.25" style="fill:rgb(0,0,0);font-family:PalatinoLinotype;font-size:9.52px;stroke:none;">The essential thyme oil contains especially thymol, p-cymene, γ-terpinene, linalol, isothymol </text>
   <text y="114.318" x="87.652,90.832,95.068,99.837,103.607,108.909,113.697,117.933,121.703,126.833,129.626,132.644,137.886,140.667,145.797,149.843,155.05,157.83,160.965,163.356,165.692,170.462,176.011,181.836,184.209,189.681,192.855,201.261,206.556,210.32,214.549,219.112,224.654,229.217,238.737,243.98,246.753,251.996,257.696,261.457,266.02,268.414,273.145,275.482" svgx:width="0.33,0.44,0.5,0.4,0.56,0.5,0.44,0.4,0.55,0.29,0.32,0.55,0.29,0.55,0.42,0.55,0.29,0.33,0.25,0.25,0.5,0.58,0.61,0.25,0.58,0.33,0.88,0.56,0.4,0.44,0.48,0.58,0.48,1.0,0.56,0.29,0.56,0.6,0.4,0.48,0.25,0.5,0.25,0.25" style="fill:rgb(0,0,0);font-family:PalatinoLinotype;font-size:9.52px;stroke:none;">(carvacrol/biosol), and β-myrcene—Figure 1. </text>
   <text y="393.618" x="481.064" svgx:width="0.25" style="fill:rgb(0,0,0);font-family:PalatinoLinotype;font-size:9.52px;stroke:none;"> </text>
   <text y="409.065" x="159.586,164.36,167.211,171.968,177.195,180.524,184.803,186.968,191.247" svgx:width="0.56,0.33,0.56,0.61,0.39,0.5,0.25,0.5,0.25" style="fill:rgb(0,0,0);font-family:PalatinoLinotype,Bold;font-size:8.55px;stroke:none;">Figure 1.</text>
   <text y="409.065" x="193.33,195.495,200.739,205.717,209.815,211.924,218.449,224.513,227.363,235.453,239.944,246.563,248.729,253.006,257.985,263.211,265.32,271.845,277.909,280.759,285.515,288.4,295.019,297.185,300.035,302.526,307.505,311.133,315.231,318.611,321.401,324.145,326.31,330.114,335.098,338.483,343.159,350.685,354.96,357.755,362.431,367.161,370.524,374.807,382.333,385.966,388.131,392.807,395.663,397.828,400.624,405.607,410.337,417.863,421.966,424.132,428.808,431.259,433.755,435.864" svgx:width="0.25,0.61,0.58,0.48,0.25,0.76,0.71,0.33,0.95,0.52,0.77,0.25,0.5,0.58,0.61,0.25,0.76,0.71,0.33,0.56,0.34,0.77,0.25,0.33,0.29,0.58,0.42,0.48,0.4,0.33,0.33,0.25,0.44,0.58,0.4,0.55,0.88,0.5,0.33,0.55,0.56,0.4,0.5,0.88,0.42,0.25,0.55,0.33,0.25,0.33,0.58,0.56,0.88,0.48,0.25,0.55,0.29,0.29,0.25,0.25" style="fill:rgb(0,0,0);font-family:PalatinoLinotype;font-size:8.55px;stroke:none;"> The GC-MSD and GC-FID (insert) chromatograms of thyme oil. </text>
   <text y="433.005" x="107.83,113.667,119.21,123.772,126.152,127.592,131.821,134.595,139.795,145.176,149.738,152.118,153.558,158.06,162.109,166.101,170.66,176.203,179.279,182.053,186.815,189.551,191.93099999999998,193.37,198.57,201.306,204.08,206.46,207.899,213.37,218.158,223.917,226.297,227.736,230.812,236.341,240.903,243.283,244.723,248.762,251.536,259.942,265.666,268.439,272.942,276.981,280.057,282.437,283.877,288.106,293.306,301.713,307.437,312.637,316.676,319.45,322.526,325.299,330.5,336.042,338.379,340.759,342.198,347.465,352.228,356.267,360.829,366.588,368.968,370.407,375.607,381.15,383.53,384.969,389.532,395.231,400.527,405.089,410.632,415.832,418.606,421.624,426.186,431.886,437.181,441.744,447.286,452.417,455.191,457.57099999999997,459.01,463.772,467.934,472.497,475.573,480.335,483.412,487.974,490.354,491.737,496.499,502.042,507.8" svgx:width="0.61,0.58,0.48,0.25,0.55,0.44,0.29,0.55,0.56,0.48,0.25,0.55,0.48,0.42,0.42,0.48,0.58,0.33,0.29,0.5,0.29,0.25,0.55,0.55,0.29,0.29,0.25,0.55,0.58,0.5,0.61,0.25,0.55,0.33,0.58,0.48,0.25,0.55,0.42,0.29,0.88,0.6,0.29,0.48,0.42,0.33,0.25,0.55,0.44,0.55,0.88,0.6,0.55,0.42,0.29,0.33,0.29,0.55,0.58,0.25,0.25,0.55,0.55,0.5,0.42,0.48,0.61,0.25,0.55,0.55,0.58,0.25,0.55,0.48,0.6,0.56,0.48,0.58,0.55,0.29,0.32,0.48,0.6,0.56,0.48,0.58,0.55,0.29,0.25,0.55,0.5,0.44,0.48,0.33,0.5,0.33,0.48,0.25,0.55,0.5,0.58,0.61,0.25" style="fill:rgb(0,0,0);font-family:PalatinoLinotype;font-size:9.52px;stroke:none;">The clove essential oil had the simplest composition, based on eugenol/eugenol acetate and </text>
   <text y="445.83" x="87.652,93.181,96.373,99.394,105.494,108.667,112.896,117.627,121.389,126.684,131.884,137.607,143.079,148.374,151.148,153.921,158.484,163.955,168.515,170.898,173.235,177.997,182.227,186.457,191.657,199.98,205.68,210.442,215.985,218.759,223.321,229.08,231.474,236.741,242.036,244.373,248.412,252.974,258.276,262.836,266.599,271.33,274.104,276.498,281.698,284.774,290.317,294.879,298.643,300.98,305.019,309.581,313.573,318.93,324.63,327.422,330.499,335.058,338.822,344.545,349.108,354.65,359.213,363.204,372.724,378.02,380.793,386.036,391.779,395.542,400.044,402.438,407.169" svgx:width="0.58,0.33,0.32,0.64,0.33,0.44,0.5,0.4,0.56,0.55,0.6,0.58,0.56,0.29,0.29,0.48,0.58,0.48,0.25,0.25,0.5,0.44,0.44,0.55,0.88,0.6,0.5,0.58,0.29,0.48,0.61,0.25,0.55,0.56,0.25,0.42,0.48,0.56,0.48,0.4,0.5,0.29,0.25,0.55,0.33,0.58,0.48,0.4,0.25,0.42,0.48,0.42,0.56,0.6,0.29,0.33,0.48,0.4,0.6,0.48,0.58,0.48,0.42,1.0,0.56,0.29,0.56,0.6,0.4,0.48,0.25,0.5,0.25" style="fill:rgb(0,0,0);font-family:PalatinoLinotype;font-size:9.52px;stroke:none;">β-/α-caryophyllene, accompanied by several other sesquiterpenes—Figure 2.</text>
   <text y="445.83" x="409.531" svgx:width="0.25" style="fill:rgb(0,0,0);font-family:PalatinoLinotype;font-size:11.4px;stroke:none;"> </text>
   <text y="732.768" x="487.222" svgx:width="0.25" style="fill:rgb(0,0,0);font-family:PalatinoLinotype;font-size:9.52px;stroke:none;"> </text>
   <text y="748.215" x="161.695,166.469,169.32,174.077,179.304,182.633,186.912,189.077,193.356" svgx:width="0.56,0.33,0.56,0.61,0.39,0.5,0.25,0.5,0.25" style="fill:rgb(0,0,0);font-family:PalatinoLinotype,Bold;font-size:8.55px;stroke:none;">Figure 2.</text>
   <text y="748.215" x="195.439,197.604,202.848,207.826,211.924,214.033,220.558,226.622,229.472,237.562,242.053,248.672,250.838,255.115,260.094,265.32,267.429,273.954,280.018,282.868,287.624,290.509,297.128,299.294,302.144,304.635,309.614,313.242,317.34,320.72,323.51,326.254,328.419,332.226,337.212,340.6,345.278,352.804,357.079,359.877,364.556,369.285,372.648,376.933,384.46,388.095,390.261,394.939,397.797,399.906,403.713,406.212,410.89,415.731,419.778,421.943,426.622,429.073,431.572,433.681" svgx:width="0.25,0.61,0.58,0.48,0.25,0.76,0.71,0.33,0.95,0.52,0.77,0.25,0.5,0.58,0.61,0.25,0.76,0.71,0.33,0.56,0.34,0.77,0.25,0.33,0.29,0.58,0.42,0.48,0.4,0.33,0.33,0.25,0.44,0.58,0.4,0.55,0.88,0.5,0.33,0.55,0.56,0.4,0.5,0.88,0.42,0.25,0.55,0.33,0.25,0.44,0.29,0.55,0.56,0.48,0.25,0.55,0.29,0.29,0.25,0.25" style="fill:rgb(0,0,0);font-family:PalatinoLinotype;font-size:8.55px;stroke:none;"> The GC-MSD and GC-FID (insert) chromatograms of clove oil. </text>
  </g>
  <rect style="stroke:blue;stroke-width:0.3;" x="114.1" y="86.222" height="264.936" width="367.308" title="4"/>
  <text y="86.222" class="image" id="image.4.1" width="367" height="264" x="114.1">image.4.1.114_481.86_351</text>
  <rect style="stroke:blue;stroke-width:0.3;" x="108.172" y="418.19" height="272.688" width="378.366" title="4"/>
  <text y="418.19" class="image" id="image.4.2" width="378" height="272" x="108.172">image.4.2.108_487.418_691</text>
  <rect style="stroke:blue;stroke-width:0.3;" x="475.879" y="340.727" height="16.302" width="11.913" title="4"/>
  <text y="340.727" class="image" id="image.4.3" width="11" height="16" x="475.879">image.4.3.476_488.341_357</text>
  <g begin="text">
   <text y="410.949" x="152.599,157.584,160.57,165.555,171.034,174.522,179.007,181.247,185.73" svgx:width="0.56,0.33,0.56,0.61,0.39,0.5,0.55,0.5,0.25" style="fill:rgb(0,0,0);font-family:URWPalladioL-Bold;font-size:8.97px;stroke:none;">Figure 1.</text>
   <text y="410.949" x="190.751,196.247,201.466,205.7716,208.002,214.844,221.201,224.187,232.669,237.376,244.2829,246.558,251.041,256.26,261.7317,263.98,270.821,277.178,280.164,285.149,288.171,295.0779,297.353,300.338,302.948,308.166,311.968,316.263,319.804,322.727,325.6871,327.955,331.936,337.154,340.535,345.43,353.348,357.831,360.754,365.65,370.635,374.177,378.66,386.577,390.3444,392.62,397.516,400.47610000000003,402.744,405.667,410.885,415.87,423.788,428.09360000000004,430.324,435.22,437.829,440.438" svgx:width="0.61,0.58,0.48,0.55,0.76,0.71,0.33,0.95,0.52,0.77,0.55,0.5,0.58,0.61,0.55,0.76,0.71,0.33,0.56,0.34,0.77,0.55,0.33,0.29,0.58,0.42,0.48,0.4,0.33,0.33,0.55,0.44,0.58,0.4,0.55,0.88,0.5,0.33,0.55,0.56,0.4,0.5,0.88,0.42,0.55,0.55,0.33,0.55,0.33,0.58,0.56,0.88,0.48,0.55,0.55,0.29,0.29,0.25" style="fill:rgb(0,0,0);font-family:URWPalladioL-Roma;font-size:8.97px;stroke:none;">The GC-MSD and GC-FID (insert) chromatograms of thyme oil.</text>
   <text y="440.26" x="97.795,104.024,109.938,114.7188,118.048,122.559,125.517,131.065,136.806,141.5868,144.926,149.793,154.102,158.41,163.278,169.192,172.505,175.462,180.543,183.4314,186.742,192.29,195.247,198.1354,201.456,207.37,212.451,218.5266,221.902,225.214,231.129,235.9098,239.248,243.557,246.514,255.487,261.594,264.551,269.418,273.727,277.0138,280.281,284.793,290.342,299.315,305.422,310.97,315.279,318.236,321.549,324.506,330.054,335.968,338.458,341.944,347.563,352.644,356.953,361.82,367.8956,371.281,376.829,382.6058,385.985,390.853,396.98,402.63,407.498,413.412,418.96,421.917,428.075,432.943,439.071,444.721,449.588,455.502,461.051,463.9394,467.259,472.34,476.852,481.72,485.033,490.114,493.426,498.2068,501.535,506.616,512.531" svgx:width="0.61,0.58,0.48,0.55,0.44,0.29,0.55,0.56,0.48,0.55,0.48,0.42,0.42,0.48,0.58,0.33,0.29,0.5,0.29,0.55,0.55,0.29,0.29,0.55,0.58,0.5,0.61,0.55,0.33,0.58,0.48,0.55,0.42,0.29,0.88,0.6,0.29,0.48,0.42,0.33,0.55,0.44,0.55,0.88,0.6,0.55,0.42,0.29,0.33,0.29,0.55,0.58,0.25,0.55,0.55,0.5,0.42,0.48,0.61,0.55,0.55,0.58,0.55,0.48,0.6,0.56,0.48,0.58,0.55,0.29,0.61,0.48,0.6,0.56,0.48,0.58,0.55,0.29,0.55,0.5,0.44,0.48,0.33,0.5,0.33,0.48,0.55,0.5,0.58,0.61" style="fill:rgb(0,0,0);font-family:URWPalladioL-Roma;font-size:9.96px;stroke:none;">The clove essential oil had the simplest composition, based on eugenol/eugenol acetate and</text>
   <text y="453.77" x="76.535" svgx:width="0.66" style="fill:rgb(0,0,0);font-family:EURM10;font-size:9.96px;stroke:none;">β</text>
   <text y="453.77" x="83.136,86.454" svgx:width="0.33,0.61" style="fill:rgb(0,0,0);font-family:URWPalladioL-Roma;font-size:9.96px;stroke:none;">-/</text>
   <text y="453.77" x="92.49" svgx:width="0.66" style="fill:rgb(0,0,0);font-family:EURM10;font-size:9.96px;stroke:none;">α</text>
   <text y="453.77" x="99.05,102.368,106.791,111.772,115.707,121.247,126.686,132.674,138.472,144.011,146.91,149.809,154.582,160.38,165.152,167.642,170.133,175.114,179.538,183.961,189.401,198.198,204.185,209.167,214.965,217.864,222.636,228.7116,231.214,236.723,242.3006,244.753,248.977,253.749,259.378,264.15,268.085,273.067,275.9554,278.456,283.896,287.144,292.942,297.714,301.698,304.14,308.364,313.136,317.36,322.94,328.947,331.846,335.094,339.866,343.801,349.789,354.561,360.359,365.131,369.355,379.318,384.857,387.756,393.295,399.303,403.059" svgx:width="0.33,0.44,0.5,0.4,0.56,0.55,0.6,0.58,0.56,0.29,0.29,0.48,0.58,0.48,0.25,0.55,0.5,0.44,0.44,0.55,0.88,0.6,0.5,0.58,0.29,0.48,0.61,0.55,0.55,0.56,0.55,0.42,0.48,0.56,0.48,0.4,0.5,0.29,0.55,0.55,0.33,0.58,0.48,0.4,0.55,0.42,0.48,0.42,0.56,0.6,0.29,0.33,0.48,0.4,0.6,0.48,0.58,0.48,0.42,1.0,0.56,0.29,0.56,0.6,0.4,0.48" style="fill:rgb(0,0,0);font-family:URWPalladioL-Roma;font-size:9.96px;stroke:none;">-caryophyllene, accompanied by several other sesquiterpenes—Figure</text>
   <text y="453.77" x="410.322" svgx:width="0.5" style="fill:rgb(0,0,255);font-family:URWPalladioL-Roma;font-size:9.96px;stroke:none;">2</text>
   <text y="453.77" x="415.303" svgx:width="0.25" style="fill:rgb(0,0,0);font-family:URWPalladioL-Roma;font-size:9.96px;stroke:none;">.</text>
  </g>
  <g begin="text">
   <text y="83.583" x="87.444,94.606,97.979,100.511,103.467,106.423,108.538,111.911,114.026,116.982" svgx:width="0.94,0.44,0.33,0.39,0.39,0.28,0.44,0.28,0.39,0.25" style="fill:rgb(0,0,0);font-family:PalatinoLinotype,Italic;font-size:7.58px;stroke:none;">Materials </text>
   <text y="83.583" x="118.852,122.671,126.49,130.309" svgx:width="0.5,0.5,0.5,0.5" style="fill:rgb(0,0,0);font-family:PalatinoLinotype,Bold;font-size:7.58px;stroke:none;">2017</text>
   <text y="83.583" x="134.128,136.009" svgx:width="0.25,0.25" style="fill:rgb(0,0,0);font-family:PalatinoLinotype;font-size:7.58px;stroke:none;">, </text>
   <text y="83.583" x="137.889,141.709" svgx:width="0.5,0.5" style="fill:rgb(0,0,0);font-family:PalatinoLinotype,Italic;font-size:7.58px;stroke:none;">10</text>
   <text y="83.583" x="145.47,147.351,149.232,153.051,156.87,158.76500000000001,485.646,489.464,491.345,495.511,498.019,499.9,503.718,507.535" svgx:width="0.25,0.25,0.5,0.5,0.25,0.55,0.5,0.25,0.55,0.33,0.25,0.5,0.5,0.25" style="fill:rgb(0,0,0);font-family:PalatinoLinotype;font-size:7.58px;stroke:none;">, 45 4 of 23 </text>
   <text y="107.295" x="107.622,113.451,118.985,123.539,125.919,127.073,131.627,135.658,139.689,144.243,149.777,152.796,155.561,160.315,163.08,165.46,166.614,169.712,175.246,180.533,188.931,193.485,195.865,197.019,202.21,204.975,207.74,210.12,211.274,215.495,220.626,226.16,229.258,234.012,236.777,242.311,246.342,248.722,249.818,254.372,258.403,264.118,268.672,272.834,275.569,280.323,283.088,285.853,291.14,293.52,294.674,297.772,303.306,308.593,316.991,322.121,324.914,327.289,329.669,330.766,336.481,339.646,343.867,349.153,357.551,362.105,367.639,372.193,374.568,376.948,378.143,383.786,386.921,389.997,394.566,398.335,404.064,406.843,412.391,416.96,422.508,427.076,429.465,431.84499999999997,432.942,435.722,438.501,443.972,448.74,451.52,456.65,459.443,461.832,464.212,465.309,468.089,472.133,477.339,480.415,485.964,491.265,499.589,504.776,507.556" svgx:width="0.61,0.58,0.48,0.25,0.55,0.48,0.42,0.42,0.48,0.58,0.33,0.29,0.5,0.29,0.25,0.55,0.33,0.58,0.56,0.88,0.48,0.25,0.55,0.55,0.29,0.29,0.25,0.55,0.44,0.55,0.58,0.33,0.5,0.29,0.58,0.42,0.25,0.55,0.48,0.42,0.6,0.48,0.44,0.29,0.5,0.29,0.29,0.56,0.25,0.55,0.33,0.58,0.56,0.88,0.55,0.29,0.25,0.25,0.55,0.6,0.33,0.44,0.56,0.88,0.48,0.58,0.48,0.25,0.25,0.55,0.59,0.33,0.33,0.48,0.4,0.6,0.29,0.58,0.48,0.58,0.48,0.25,0.25,0.55,0.29,0.29,0.58,0.5,0.29,0.55,0.29,0.25,0.25,0.55,0.29,0.42,0.55,0.33,0.58,0.56,0.88,0.55,0.29,0.25" style="fill:rgb(0,0,0);font-family:PalatinoLinotype;font-size:9.52px;stroke:none;">The essential thyme oil contains especially thymol, p-cymene, γ-terpinene, linalol, isothymol </text>
   <text y="120.12" x="87.444,90.624,94.861,99.63,103.4,108.701,113.489,117.726,121.496,126.626,129.419,132.437,137.679,140.459,145.59,149.636,154.843,157.623,160.758,163.148,165.485,170.254,175.804,181.629,184.002,189.474,192.647,201.054,206.349,210.112,214.342,218.905,224.447,229.01,238.53,243.773,246.546,251.789,257.489,261.25,265.813,268.207,272.938,275.274" svgx:width="0.33,0.44,0.5,0.4,0.56,0.5,0.44,0.4,0.55,0.29,0.32,0.55,0.29,0.55,0.42,0.55,0.29,0.33,0.25,0.25,0.5,0.58,0.61,0.25,0.58,0.33,0.88,0.56,0.4,0.44,0.48,0.58,0.48,1.0,0.56,0.29,0.56,0.6,0.4,0.48,0.25,0.5,0.25,0.25" style="fill:rgb(0,0,0);font-family:PalatinoLinotype;font-size:9.52px;stroke:none;">(carvacrol/biosol), and β-myrcene—Figure 1. </text>
   <text y="399.42" x="480.857" svgx:width="0.25" style="fill:rgb(0,0,0);font-family:PalatinoLinotype;font-size:9.52px;stroke:none;"> </text>
   <text y="414.867" x="159.378,164.152,167.004,171.76,176.988,180.317,184.596,186.761,191.04" svgx:width="0.56,0.33,0.56,0.61,0.39,0.5,0.25,0.5,0.25" style="fill:rgb(0,0,0);font-family:PalatinoLinotype,Bold;font-size:8.55px;stroke:none;">Figure 1.</text>
   <text y="414.867" x="193.122,195.288,200.531,205.51,209.608,211.717,218.242,224.306,227.156,235.245,239.737,246.356,248.522,252.799,257.777,263.004,265.113,271.638,277.702,280.552,285.308,288.193,294.812,296.978,299.828,302.319,307.297,310.925,315.024,318.404,321.194,323.937,326.103,329.907,334.891,338.276,342.952,350.478,354.753,357.548,362.224,366.954,370.317,374.599,382.125,385.759,387.924,392.6,395.455,397.621,400.417,405.4,410.13,417.656,421.759,423.925,428.6,431.051,433.548,435.657" svgx:width="0.25,0.61,0.58,0.48,0.25,0.76,0.71,0.33,0.95,0.52,0.77,0.25,0.5,0.58,0.61,0.25,0.76,0.71,0.33,0.56,0.34,0.77,0.25,0.33,0.29,0.58,0.42,0.48,0.4,0.33,0.33,0.25,0.44,0.58,0.4,0.55,0.88,0.5,0.33,0.55,0.56,0.4,0.5,0.88,0.42,0.25,0.55,0.33,0.25,0.33,0.58,0.56,0.88,0.48,0.25,0.55,0.29,0.29,0.25,0.25" style="fill:rgb(0,0,0);font-family:PalatinoLinotype;font-size:8.55px;stroke:none;"> The GC-MSD and GC-FID (insert) chromatograms of thyme oil. </text>
   <text y="438.807" x="107.622,113.46,119.003,123.565,125.945,127.384,131.614,134.388,139.588,144.969,149.531,151.911,153.35,157.853,161.902,165.893,170.453,175.996,179.072,181.846,186.608,189.344,191.724,193.163,198.363,201.099,203.872,206.252,207.692,213.163,217.951,223.71,226.09,227.529,230.605,236.134,240.696,243.076,244.516,248.555,251.328,259.735,265.458,268.232,272.735,276.774,279.85,282.23,283.67,287.899,293.099,301.506,307.229,312.429,316.469,319.242,322.319,325.092,330.292,335.835,338.172,340.552,341.991,347.258,352.02,356.06,360.622,366.381,368.76099999999997,370.2,375.4,380.943,383.323,384.762,389.325,395.024,400.319,404.882,410.425,415.625,418.398,421.417,425.979,431.679,436.974,441.536,447.079,452.21,454.983,457.363,458.803,463.565,467.727,472.29,475.366,480.128,483.204,487.767,490.147,491.529,496.292,501.834,507.593" svgx:width="0.61,0.58,0.48,0.25,0.55,0.44,0.29,0.55,0.56,0.48,0.25,0.55,0.48,0.42,0.42,0.48,0.58,0.33,0.29,0.5,0.29,0.25,0.55,0.55,0.29,0.29,0.25,0.55,0.58,0.5,0.61,0.25,0.55,0.33,0.58,0.48,0.25,0.55,0.42,0.29,0.88,0.6,0.29,0.48,0.42,0.33,0.25,0.55,0.44,0.55,0.88,0.6,0.55,0.42,0.29,0.33,0.29,0.55,0.58,0.25,0.25,0.55,0.55,0.5,0.42,0.48,0.61,0.25,0.55,0.55,0.58,0.25,0.55,0.48,0.6,0.56,0.48,0.58,0.55,0.29,0.32,0.48,0.6,0.56,0.48,0.58,0.55,0.29,0.25,0.55,0.5,0.44,0.48,0.33,0.5,0.33,0.48,0.25,0.55,0.5,0.58,0.61,0.25" style="fill:rgb(0,0,0);font-family:PalatinoLinotype;font-size:9.52px;stroke:none;">The clove essential oil had the simplest composition, based on eugenol/eugenol acetate and </text>
   <text y="451.632" x="87.444,92.974,96.166,99.187,105.286,108.46,112.689,117.42,121.182,126.477,131.677,137.4,142.871,148.167,150.94,153.714,158.277,163.748,168.307,170.691,173.028,177.79,182.02,186.249,191.449,199.773,205.473,210.235,215.778,218.551,223.114,228.873,231.267,236.533,241.829,244.165,248.205,252.767,258.069,262.629,266.392,271.123,273.897,276.291,281.491,284.567,290.11,294.672,298.435,300.772,304.812,309.374,313.366,318.723,324.422,327.215,330.291,334.851,338.614,344.338,348.9,354.443,359.005,362.997,372.517,377.812,380.586,385.829,391.571,395.335,399.837,402.231,406.962" svgx:width="0.58,0.33,0.32,0.64,0.33,0.44,0.5,0.4,0.56,0.55,0.6,0.58,0.56,0.29,0.29,0.48,0.58,0.48,0.25,0.25,0.5,0.44,0.44,0.55,0.88,0.6,0.5,0.58,0.29,0.48,0.61,0.25,0.55,0.56,0.25,0.42,0.48,0.56,0.48,0.4,0.5,0.29,0.25,0.55,0.33,0.58,0.48,0.4,0.25,0.42,0.48,0.42,0.56,0.6,0.29,0.33,0.48,0.4,0.6,0.48,0.58,0.48,0.42,1.0,0.56,0.29,0.56,0.6,0.4,0.48,0.25,0.5,0.25" style="fill:rgb(0,0,0);font-family:PalatinoLinotype;font-size:9.52px;stroke:none;">β-/α-caryophyllene, accompanied by several other sesquiterpenes—Figure 2.</text>
   <text y="451.632" x="409.323" svgx:width="0.25" style="fill:rgb(0,0,0);font-family:PalatinoLinotype;font-size:11.4px;stroke:none;"> </text>
   <text y="738.57" x="487.014" svgx:width="0.25" style="fill:rgb(0,0,0);font-family:PalatinoLinotype;font-size:9.52px;stroke:none;"> </text>
   <text y="754.017" x="161.487,166.261,169.113,173.869,179.097,182.426,186.705,188.87,193.149" svgx:width="0.56,0.33,0.56,0.61,0.39,0.5,0.25,0.5,0.25" style="fill:rgb(0,0,0);font-family:PalatinoLinotype,Bold;font-size:8.55px;stroke:none;">Figure 2.</text>
   <text y="754.017" x="195.231,197.397,202.64,207.619,211.717,213.826,220.351,226.415,229.265,237.354,241.846,248.465,250.631,254.908,259.886,265.113,267.222,273.747,279.811,282.661,287.417,290.302,296.921,299.087,301.937,304.428,309.407,313.035,317.133,320.513,323.303,326.046,328.212,332.019,337.005,340.393,345.071,352.597,356.872,359.67,364.348,369.078,372.441,376.726,384.252,387.888,390.054,394.732,397.59,399.699,403.506,406.005,410.683,415.524,419.571,421.736,426.415,428.866,431.365,433.474" svgx:width="0.25,0.61,0.58,0.48,0.25,0.76,0.71,0.33,0.95,0.52,0.77,0.25,0.5,0.58,0.61,0.25,0.76,0.71,0.33,0.56,0.34,0.77,0.25,0.33,0.29,0.58,0.42,0.48,0.4,0.33,0.33,0.25,0.44,0.58,0.4,0.55,0.88,0.5,0.33,0.55,0.56,0.4,0.5,0.88,0.42,0.25,0.55,0.33,0.25,0.44,0.29,0.55,0.56,0.48,0.25,0.55,0.29,0.29,0.25,0.25" style="fill:rgb(0,0,0);font-family:PalatinoLinotype;font-size:8.55px;stroke:none;"> The GC-MSD and GC-FID (insert) chromatograms of clove oil. </text>
  </g>
  <rect style="stroke:blue;stroke-width:0.3;" x="113.892" y="92.024" height="264.936" width="367.308" title="4"/>
  <text y="92.024" class="image" id="image.4.4" width="367" height="264" x="113.892">image.4.4.114_481.92_357</text>
  <rect style="stroke:blue;stroke-width:0.3;" x="107.964" y="423.992" height="272.688" width="378.366" title="4"/>
  <text y="423.992" class="image" id="image.4.5" width="378" height="272" x="107.964">image.4.5.108_486.424_697</text>
  <rect style="stroke:blue;stroke-width:0.3;" x="475.671" y="346.529" height="16.302" width="11.913" title="4"/>
  <text y="346.529" class="image" id="image.4.6" width="11" height="16" x="475.671">image.4.6.476_488.347_363</text>
  <g begin="text">
   <text y="756.263" x="154.845,159.83,162.816,167.801,173.28,176.768,181.25300000000001,183.493,187.976" svgx:width="0.56,0.33,0.56,0.61,0.39,0.5,0.55,0.5,0.25" style="fill:rgb(0,0,0);font-family:URWPalladioL-Bold;font-size:8.97px;stroke:none;">Figure 2.</text>
   <text y="756.263" x="192.997,198.493,203.712,208.0176,210.248,217.09,223.447,226.433,234.915,239.622,246.52890000000002,248.804,253.287,258.505,263.9767,266.226,273.067,279.424,282.41,287.395,290.417,297.3239,299.599,302.584,305.194,310.412,314.214,318.509,322.05,324.973,327.9331,330.201,334.182,339.4,342.781,347.676,355.594,360.077,363.0,367.896,372.881,376.423,380.906,388.823,392.5904,394.866,399.762,402.7221,404.99,408.971,411.58,416.475,421.542,425.8476,428.078,432.974,435.583,438.192" svgx:width="0.61,0.58,0.48,0.55,0.76,0.71,0.33,0.95,0.52,0.77,0.55,0.5,0.58,0.61,0.55,0.76,0.71,0.33,0.56,0.34,0.77,0.55,0.33,0.29,0.58,0.42,0.48,0.4,0.33,0.33,0.55,0.44,0.58,0.4,0.55,0.88,0.5,0.33,0.55,0.56,0.4,0.5,0.88,0.42,0.55,0.55,0.33,0.55,0.44,0.29,0.55,0.56,0.48,0.55,0.55,0.29,0.29,0.25" style="fill:rgb(0,0,0);font-family:URWPalladioL-Roma;font-size:8.97px;stroke:none;">The GC-MSD and GC-FID (insert) chromatograms of clove oil.</text>
  </g>
 </g>
</svg>
