<?xml version="1.0" encoding="UTF-8"?>
<svg height="764.007" width="4192.248" xmlns="http://www.w3.org/2000/svg">
 <g id="page" xmlns:svgx="http://www.xml-cml.org/schema/svgx">
  <g begin="text">
   <text y="62.979" x="76.312,80.743,84.282,87.821,91.806" svgx:width="0.56,0.44,0.44,0.5,0.39" style="fill:rgb(0,0,0);font-family:URWPalladioL-Ital;font-size:7.97px;stroke:none;">Foods</text>
   <text y="62.979" x="96.899,100.884,104.869,108.854" svgx:width="0.5,0.5,0.5,0.5" style="fill:rgb(0,0,0);font-family:URWPalladioL-Bold;font-size:7.97px;stroke:none;">2017</text>
   <text y="62.979" x="112.839" svgx:width="0.25" style="fill:rgb(0,0,0);font-family:URWPalladioL-Roma;font-size:7.97px;stroke:none;">,</text>
   <text y="62.979" x="116.824" svgx:width="0.5" style="fill:rgb(0,0,0);font-family:URWPalladioL-Ital;font-size:7.97px;stroke:none;">6</text>
   <text y="62.979" x="120.809,122.8015,124.794,128.779,132.764,495.794,499.779,501.772,506.123,508.7531,510.77,514.755" svgx:width="0.25,0.55,0.5,0.5,0.55,0.5,0.55,0.55,0.33,0.55,0.5,0.5" style="fill:rgb(0,0,0);font-family:URWPalladioL-Roma;font-size:7.97px;stroke:none;">, 73 4 of 11</text>
   <text y="97.848" x="97.795,104.024,109.938,114.7188,123.596,132.569,137.65,140.028,145.576,149.56,158.38,162.892,168.44,177.413,183.52,189.069,194.983,199.85,205.765,209.077,213.2602,222.176,230.651,235.519,239.35" svgx:width="0.61,0.58,0.48,0.55,0.88,0.5,0.23,0.55,0.4,0.55,0.44,0.55,0.88,0.6,0.55,0.58,0.48,0.58,0.33,0.42,0.55,0.83,0.48,0.4,0.48" style="fill:rgb(0,0,0);font-family:URWPalladioL-Roma;font-size:9.96px;stroke:none;">The major components were</text>
   <text y="97.848" x="253.01,256.394,260.347,264.859,270.509" svgx:width="0.33,0.39,0.44,0.56,0.39" style="fill:rgb(0,0,0);font-family:URWPalladioL-Ital;font-size:9.96px;stroke:none;">trans</text>
   <text y="97.848" x="274.462,277.846,282.927,288.841,293.709,297.021,302.936,308.484,311.441,316.2218,325.099" svgx:width="0.33,0.5,0.58,0.48,0.33,0.58,0.55,0.29,0.48,0.55,0.33" style="fill:rgb(0,0,0);font-family:URWPalladioL-Roma;font-size:9.96px;stroke:none;">-anethole (</text>
   <text y="97.848" x="328.482" svgx:width="0.5" style="fill:rgb(0,0,0);font-family:URWPalladioL-Bold;font-size:9.96px;stroke:none;">1</text>
   <text y="97.848" x="333.463,336.74980000000005,345.637,349.021,354.102,359.183,361.723,366.804,375.34,378.724" svgx:width="0.33,0.55,0.33,0.5,0.5,0.25,0.5,0.84,0.33,0.25" style="fill:rgb(0,0,0);font-family:URWPalladioL-Roma;font-size:9.96px;stroke:none;">) (36.8%),</text>
   <text y="97.848" x="391.63" svgx:width="0.5" style="fill:rgb(0,0,0);font-family:URWPalladioL-Ital;font-size:9.96px;stroke:none;">p</text>
   <text y="97.848" x="396.71,400.094,405.175,411.089,414.046,418.355,423.436,426.393,432.602,437.469,443.383,449.033,455.242,460.0228,468.9" svgx:width="0.33,0.5,0.58,0.29,0.42,0.5,0.29,0.61,0.48,0.58,0.56,0.61,0.48,0.55,0.33" style="fill:rgb(0,0,0);font-family:URWPalladioL-Roma;font-size:9.96px;stroke:none;">-anisaldehyde (</text>
   <text y="97.848" x="472.284" svgx:width="0.5" style="fill:rgb(0,0,0);font-family:URWPalladioL-Bold;font-size:9.96px;stroke:none;">2</text>
   <text y="97.848" x="477.265,480.5518,489.439,492.823,497.904,500.444,505.525,514.061,517.445" svgx:width="0.33,0.55,0.33,0.5,0.25,0.5,0.84,0.33,0.25" style="fill:rgb(0,0,0);font-family:URWPalladioL-Roma;font-size:9.96px;stroke:none;">) (7.7%),</text>
   <text y="111.358" x="76.535" svgx:width="0.66" style="fill:rgb(0,0,0);font-family:EURM10;font-size:9.96px;stroke:none;">α</text>
   <text y="111.358" x="83.095,86.479,91.346,94.659,100.573,106.223,109.18" svgx:width="0.33,0.48,0.33,0.58,0.56,0.29,0.33" style="fill:rgb(0,0,0);font-family:URWPalladioL-Roma;font-size:9.96px;stroke:none;">-ethyl-</text>
   <text y="111.358" x="112.564" svgx:width="0.5" style="fill:rgb(0,0,0);font-family:URWPalladioL-Ital;font-size:9.96px;stroke:none;">p</text>
   <text y="111.358" x="117.645,121.029,130.002,134.869,138.182,144.096,149.645,154.888,160.538,166.158,171.025,176.939,182.02,187.67,190.55839999999998,197.436,202.517,205.474,209.986,215.534,221.448,226.997,229.8854,236.772" svgx:width="0.33,0.88,0.48,0.33,0.58,0.55,0.52,0.56,0.55,0.48,0.58,0.5,0.56,0.29,0.55,0.5,0.29,0.44,0.55,0.58,0.55,0.29,0.55,0.33" style="fill:rgb(0,0,0);font-family:URWPalladioL-Roma;font-size:9.96px;stroke:none;">-methoxybenzyl alcohol (</text>
   <text y="111.358" x="240.152" svgx:width="0.5" style="fill:rgb(0,0,0);font-family:URWPalladioL-Bold;font-size:9.96px;stroke:none;">3</text>
   <text y="111.358" x="245.133,248.4198,255.325,258.709,263.79,266.331,271.412,279.948,283.331,285.821,293.768,298.28,303.36,307.374,313.116,318.664,324.578,329.3588,336.254,339.638,344.719,347.26,352.341,360.877,364.26,366.75,374.697,379.778,383.162,389.269,395.183,400.051,405.965,411.615,414.572,420.679,425.547,431.461,434.774,439.854,443.238,448.319,450.86,455.941,459.325,465.534,468.491,474.141,480.055,484.8358,491.731,495.115,500.196,502.736,507.817,516.353" svgx:width="0.33,0.55,0.33,0.5,0.25,0.5,0.84,0.33,0.25,0.55,0.44,0.5,0.4,0.56,0.55,0.58,0.48,0.55,0.33,0.5,0.25,0.5,0.84,0.33,0.25,0.55,0.5,0.33,0.6,0.58,0.48,0.58,0.56,0.29,0.6,0.48,0.58,0.33,0.5,0.33,0.5,0.25,0.5,0.33,0.61,0.29,0.56,0.58,0.48,0.55,0.33,0.5,0.25,0.5,0.84,0.33" style="fill:rgb(0,0,0);font-family:URWPalladioL-Roma;font-size:9.96px;stroke:none;">) (9.1%), carvone (4.9%), 1-phenylpenta-2,4-diyne (4.7%)</text>
   <text y="124.867" x="76.535,81.616,87.53,93.6056,99.643,103.027,107.894,113.809,118.321,124.235,129.885,132.77339999999998,138.746,144.365,150.493,153.806,158.887,164.801,170.349,175.43,178.743,183.5238,189.514,192.898,197.979,200.52,205.601,214.137,217.521,220.011,233.393,239.623,245.537,250.3178,256.308,265.281,270.362,273.319,279.0958,285.137,288.45,294.364,298.195,303.063,307.8438,313.835,318.346,323.895,332.868,338.975,344.523,350.651,356.565,362.774,366.9572,372.987" svgx:width="0.5,0.58,0.61,0.55,0.33,0.48,0.58,0.44,0.58,0.56,0.29,0.55,0.55,0.6,0.33,0.5,0.58,0.55,0.5,0.33,0.48,0.55,0.33,0.5,0.25,0.5,0.84,0.33,0.25,0.55,0.61,0.58,0.48,0.55,0.88,0.5,0.29,0.58,0.55,0.33,0.58,0.4,0.48,0.48,0.55,0.44,0.55,0.88,0.6,0.55,0.6,0.58,0.61,0.42,0.55,0.33" style="fill:rgb(0,0,0);font-family:URWPalladioL-Roma;font-size:9.96px;stroke:none;">and fenchyl butanoate (4.2%). The main three compounds (</text>
   <text y="124.867" x="376.369,379.753,383.706,388.218,393.868" svgx:width="0.33,0.39,0.44,0.56,0.39" style="fill:rgb(0,0,0);font-family:URWPalladioL-Ital;font-size:9.96px;stroke:none;">trans</text>
   <text y="124.867" x="397.821,401.205,406.286,412.2,417.068,420.38,426.295,431.843,434.8,439.668" svgx:width="0.33,0.5,0.58,0.48,0.33,0.58,0.55,0.29,0.48,0.25" style="fill:rgb(0,0,0);font-family:URWPalladioL-Roma;font-size:9.96px;stroke:none;">-anethole,</text>
   <text y="124.867" x="448.965" svgx:width="0.5" style="fill:rgb(0,0,0);font-family:URWPalladioL-Ital;font-size:9.96px;stroke:none;">p</text>
   <text y="124.867" x="454.046,457.43,462.511,468.425,471.382,475.691,480.772,483.729,489.938,494.805,500.719,506.369,512.578,517.446" svgx:width="0.33,0.5,0.58,0.29,0.42,0.5,0.29,0.61,0.48,0.58,0.56,0.61,0.48,0.25" style="fill:rgb(0,0,0);font-family:URWPalladioL-Roma;font-size:9.96px;stroke:none;">-anisaldehyde,</text>
   <text y="138.377" x="76.535" svgx:width="0.66" style="fill:rgb(0,0,0);font-family:EURM10;font-size:9.96px;stroke:none;">α</text>
   <text y="138.377" x="83.095,86.413,91.185,94.432,100.231,105.77,108.669" svgx:width="0.33,0.48,0.33,0.58,0.56,0.29,0.33" style="fill:rgb(0,0,0);font-family:URWPalladioL-Roma;font-size:9.96px;stroke:none;">-ethyl-</text>
   <text y="138.377" x="111.986" svgx:width="0.5" style="fill:rgb(0,0,0);font-family:URWPalladioL-Ital;font-size:9.96px;stroke:none;">p</text>
   <text y="138.377" x="116.968,120.286,129.083,133.855,137.102,142.901,148.34,153.481,159.02,164.529,169.302,175.1,180.081,185.62,188.5084,191.01,195.991,198.89,203.314,208.753,214.552,219.991,222.89,226.1768,228.699,233.68,237.436,242.2168,244.698,250.208,255.647,258.895,264.67179999999996,267.184,271.956,275.204,281.002,285.774,289.709,293.934,296.42400000000004,298.915,304.713,309.694,315.323,318.222,324.021,329.59860000000003,332.051,340.848,345.62,348.867,354.666,360.105,365.246,370.8236,373.276,376.593,382.601,388.399,392.822,396.07,398.969,404.409,410.207,415.188,418.0764,420.578,426.117,429.873,435.313,441.32,447.308,451.4912,454.023,457.34,462.571,466.994,472.792,477.564,486.361" svgx:width="0.33,0.88,0.48,0.33,0.58,0.55,0.52,0.56,0.55,0.48,0.58,0.5,0.56,0.29,0.55,0.5,0.29,0.44,0.55,0.58,0.55,0.29,0.33,0.55,0.5,0.4,0.48,0.55,0.55,0.55,0.33,0.58,0.55,0.48,0.33,0.58,0.48,0.4,0.42,0.25,0.55,0.58,0.5,0.56,0.29,0.58,0.56,0.55,0.88,0.48,0.33,0.58,0.55,0.52,0.56,0.55,0.33,0.6,0.58,0.44,0.33,0.29,0.55,0.58,0.5,0.29,0.55,0.56,0.4,0.55,0.6,0.6,0.42,0.55,0.33,0.52,0.44,0.58,0.48,0.88,0.48" style="fill:rgb(0,0,0);font-family:URWPalladioL-Roma;font-size:9.96px;stroke:none;">-methoxybenzyl alcohol) are both ethers, having methoxy functional groups (Scheme</text>
   <text y="138.377" x="493.624" svgx:width="0.5" style="fill:rgb(8,117,183);font-family:URWPalladioL-Roma;font-size:9.96px;stroke:none;">1</text>
   <text y="138.377" x="498.605,501.923" svgx:width="0.33,0.25" style="fill:rgb(0,0,0);font-family:URWPalladioL-Roma;font-size:9.96px;stroke:none;">).</text>
   <text y="163.113" x="97.499,102.484,106.968,112.446,115.432,119.917,121.744,126.227" svgx:width="0.67,0.5,0.61,0.33,0.5,0.55,0.5,0.25" style="fill:rgb(0,0,0);font-family:URWPalladioL-Bold;font-size:8.97px;stroke:none;">Table 1.</text>
   <text y="163.113" x="131.109,137.339,142.453,146.662,154.421,156.978,160.88,165.273,167.8743,169.658,173.559,178.357,186.116,191.397,196.195,199.921,202.478,205.342,207.899,212.697,217.8996,219.639,224.437,227.39710000000002,229.19,232.055,237.169,241.4746,243.206,247.415,251.14,254.866,259.075,264.189,267.054,269.611,274.004,276.6053,278.389,283.187,285.744,288.3453,290.129,294.926" svgx:width="0.71,0.58,0.48,0.88,0.29,0.44,0.5,0.29,0.55,0.44,0.55,0.88,0.6,0.55,0.42,0.29,0.33,0.29,0.55,0.58,0.55,0.55,0.33,0.55,0.33,0.58,0.48,0.55,0.48,0.42,0.42,0.48,0.58,0.33,0.29,0.5,0.29,0.55,0.55,0.29,0.29,0.55,0.55,0.33" style="fill:rgb(0,0,0);font-family:URWPalladioL-Roma;font-size:8.97px;stroke:none;">Chemical composition of the essential oil of</text>
   <text y="163.113" x="299.676,304.562,308.463,311.881,316.767,319.21,322.786,327.672,330.114,335.0,343.664,348.058,352.943,355.386,359.78,363.681,366.941" svgx:width="0.56,0.44,0.39,0.56,0.28,0.41,0.56,0.28,0.56,0.78,0.5,0.56,0.28,0.5,0.44,0.39,0.39" style="fill:rgb(0,0,0);font-family:URWPalladioL-Ital;font-size:8.97px;stroke:none;">Foeniculumvulgare</text>
   <text y="163.113" x="372.182,376.576,380.477,384.378,389.176,392.489,397.858,400.415,405.529,410.55219999999997,412.242,415.107,420.0405,421.732,426.21700000000004,427.953,434.658,440.027,446.257,449.174,457.487,462.1514,463.928,468.321,473.435,477.829,480.386,485.271,488.997,491.554,495.28" svgx:width="0.5,0.44,0.44,0.55,0.4,0.61,0.29,0.58,0.56,0.55,0.33,0.55,0.55,0.5,0.55,0.76,0.61,0.71,0.33,0.95,0.52,0.55,0.5,0.58,0.5,0.29,0.56,0.42,0.29,0.42,0.25" style="fill:rgb(0,0,0);font-family:URWPalladioL-Roma;font-size:8.97px;stroke:none;">according to a GLC-MS analysis.</text>
  </g>
  <path style="fill:none;stroke:rgb(0,0,0);stroke-width:1.0;" d="M141.340 177.320 L453.940 177.320 "/>
  <g begin="text">
   <text y="188.177" x="193.056,199.53,204.515,212.486,217.965,222.95,228.428,233.907,239.385,243.3318,314.47,324.683,328.6298,363.436,369.416,375.4259,377.638,381.619,385.5658,415.396,421.87,425.3683,427.599,431.58,435.561" svgx:width="0.72,0.56,0.89,0.61,0.56,0.61,0.61,0.61,0.44,0.55,0.89,0.44,0.55,0.72,0.67,0.55,0.44,0.44,0.55,0.72,0.39,0.55,0.44,0.44,0.44" style="fill:rgb(0,0,0);font-family:URWPalladioL-Bold;font-size:8.97px;stroke:none;">Compounds %* RT ** RI ***</text>
  </g>
  <path style="fill:none;stroke:rgb(0,0,0);stroke-width:0.8;" d="M141.340 193.380 L453.940 193.380 "/>
  <g begin="text">
   <text y="203.988" x="198.006,200.992,204.48,208.461,213.446" svgx:width="0.33,0.39,0.44,0.56,0.39" style="fill:rgb(0,0,0);font-family:URWPalladioL-Ital;font-size:8.97px;stroke:none;">trans</text>
   <text y="203.988" x="216.934,219.92,226.896,232.114,236.409,239.332,244.551,249.446,252.055,256.36060000000003,313.717,318.201,322.684,324.925,329.41,362.181,366.664,371.147,373.389,377.872,382.355,386.84000000000003,418.499,422.982,427.465,431.948" svgx:width="0.33,0.78,0.58,0.48,0.33,0.58,0.55,0.29,0.48,0.55,0.5,0.5,0.25,0.5,0.55,0.5,0.5,0.25,0.5,0.5,0.5,0.55,0.5,0.5,0.5,0.5" style="fill:rgb(0,0,0);font-family:URWPalladioL-Roma;font-size:8.97px;stroke:none;">-Anethole 36.8 36.022 1286</text>
   <text y="214.996" x="147.313" svgx:width="0.66" style="fill:rgb(0,0,0);font-family:EURM10;font-size:8.97px;stroke:none;">α</text>
   <text y="214.996" x="153.217,156.203,161.681,164.604,169.823,174.808,177.417" svgx:width="0.33,0.61,0.33,0.58,0.56,0.29,0.33" style="fill:rgb(0,0,0);font-family:URWPalladioL-Roma;font-size:8.97px;stroke:none;">-Ethyl-</text>
   <text y="214.996" x="180.403" svgx:width="0.5" style="fill:rgb(0,0,0);font-family:URWPalladioL-Ital;font-size:8.97px;stroke:none;">p</text>
   <text y="214.996" x="184.886,187.872,195.789,200.084,203.007,208.226,213.121,217.748,222.733,227.692,231.987,237.205,241.688,246.673,249.2743,251.524,256.008,258.617,262.598,267.493,272.712,277.608,280.2093,313.715,318.198,320.44,324.923,329.408,362.188,366.671,371.154,373.396,377.879,382.362,386.84700000000004,418.497,422.98,427.463,431.946" svgx:width="0.33,0.88,0.48,0.33,0.58,0.55,0.52,0.56,0.55,0.48,0.58,0.5,0.56,0.29,0.55,0.5,0.29,0.44,0.55,0.58,0.55,0.29,0.55,0.5,0.25,0.5,0.5,0.55,0.5,0.5,0.25,0.5,0.5,0.5,0.55,0.5,0.5,0.5,0.5" style="fill:rgb(0,0,0);font-family:URWPalladioL-Roma;font-size:8.97px;stroke:none;">-methoxybenzyl alcohol 9.10 54.059 1569</text>
   <text y="226.005" x="147.313" svgx:width="0.5" style="fill:rgb(0,0,0);font-family:URWPalladioL-Ital;font-size:8.97px;stroke:none;">p</text>
   <text y="226.005" x="151.796,154.782,161.758,166.976,169.585,173.387,177.87,180.48,185.958,190.253,195.471,200.457,205.935,210.2406,313.72,318.203,320.445,324.928,329.413,362.184,366.667,371.15,373.392,377.875,382.358,386.843,418.502,422.985,427.468,431.951" svgx:width="0.33,0.78,0.58,0.29,0.42,0.5,0.29,0.61,0.48,0.58,0.56,0.61,0.48,0.55,0.5,0.25,0.5,0.5,0.55,0.5,0.5,0.25,0.5,0.5,0.5,0.55,0.5,0.5,0.5,0.5" style="fill:rgb(0,0,0);font-family:URWPalladioL-Roma;font-size:8.97px;stroke:none;">-Anisaldehyde 7.73 33.825 1254</text>
   <text y="237.014" x="147.313,153.67,158.153,161.695,166.761,171.657,176.875,181.1806,313.72,318.204,320.445,324.928,329.413,362.184,366.667,371.15,373.392,377.875,382.358,386.843,418.502,422.985,427.468,431.951" svgx:width="0.71,0.5,0.4,0.56,0.55,0.58,0.48,0.55,0.5,0.25,0.5,0.5,0.55,0.5,0.5,0.25,0.5,0.5,0.5,0.55,0.5,0.5,0.5,0.5" style="fill:rgb(0,0,0);font-family:URWPalladioL-Roma;font-size:8.97px;stroke:none;">Carvone 4.87 33.119 1243</text>
   <text y="248.023" x="147.313,151.796,154.782,160.198,165.416,169.711,174.93,179.915,182.524,187.913,192.208,197.426,200.349,204.832,207.818,212.301,214.543,219.026,222.012,227.491,230.1,235.085,240.304,244.6096,313.72,318.204,320.445,324.928,329.413,362.184,366.667,371.15,373.392,377.875,382.358,386.843,418.502,422.985,427.468,431.951" svgx:width="0.5,0.33,0.6,0.58,0.48,0.58,0.56,0.29,0.6,0.48,0.58,0.33,0.5,0.33,0.5,0.25,0.5,0.33,0.61,0.29,0.56,0.58,0.48,0.55,0.5,0.25,0.5,0.5,0.55,0.5,0.5,0.25,0.5,0.5,0.5,0.55,0.5,0.5,0.5,0.5" style="fill:rgb(0,0,0);font-family:URWPalladioL-Roma;font-size:8.97px;stroke:none;">1-Phenylpenta-2,4-diyne 4.75 35.875 1283</text>
   <text y="259.031" x="147.313,152.298,156.593,161.812,165.793,171.011,175.997,178.59830000000002,180.847,185.806,191.213,194.136,198.619,203.837,208.733,213.216,216.139,220.4446,313.72,318.204,320.445,324.928,329.413,362.184,366.667,371.15,373.392,377.875,382.358,386.843,418.502,422.985,427.468,431.951" svgx:width="0.56,0.48,0.58,0.44,0.58,0.56,0.29,0.55,0.55,0.6,0.33,0.5,0.58,0.55,0.5,0.33,0.48,0.55,0.5,0.25,0.5,0.5,0.55,0.5,0.5,0.25,0.5,0.5,0.5,0.55,0.5,0.5,0.5,0.5" style="fill:rgb(0,0,0);font-family:URWPalladioL-Roma;font-size:8.97px;stroke:none;">Fenchyl butanoate 4.23 46.653 1448</text>
   <text y="270.04" x="147.313,154.764,159.059,163.955,171.872,176.167,181.385,184.308,189.527,194.422,197.0233,313.72,318.204,320.445,324.928,329.413,362.184,366.667,371.15,373.392,377.875,382.358,386.843,418.502,422.985,427.468,431.951" svgx:width="0.83,0.48,0.55,0.88,0.48,0.58,0.33,0.58,0.55,0.29,0.55,0.5,0.25,0.5,0.5,0.55,0.5,0.5,0.25,0.5,0.5,0.5,0.55,0.5,0.5,0.5,0.5" style="fill:rgb(0,0,0);font-family:URWPalladioL-Roma;font-size:8.97px;stroke:none;">Neomenthol 3.62 28.027 1170</text>
   <text y="281.049" x="147.313,150.299" svgx:width="0.33,0.5" style="fill:rgb(0,0,0);font-family:URWPalladioL-Roma;font-size:8.97px;stroke:none;">(2</text>
   <text y="281.049" x="154.782" svgx:width="0.61" style="fill:rgb(0,0,0);font-family:URWPalladioL-Ital;font-size:8.97px;stroke:none;">E</text>
   <text y="281.049" x="160.26,163.246,166.232,173.172,178.067,183.546,187.841,191.822,196.117,201.335,205.818,208.41930000000002,313.72,318.203,320.445,324.928,329.413,362.183,366.667,371.15,373.391,377.875,382.358,386.843,418.501,422.984,427.468,431.951" svgx:width="0.33,0.33,0.77,0.55,0.61,0.48,0.44,0.48,0.58,0.5,0.29,0.55,0.5,0.25,0.5,0.5,0.55,0.5,0.5,0.25,0.5,0.5,0.5,0.55,0.5,0.5,0.5,0.5" style="fill:rgb(0,0,0);font-family:URWPalladioL-Roma;font-size:8.97px;stroke:none;">)-Dodecenal 3.44 47.807 1467</text>
   <text y="292.058" x="147.313" svgx:width="0.66" style="fill:rgb(0,0,0);font-family:EURM10;font-size:8.97px;stroke:none;">β</text>
   <text y="292.058" x="153.253,156.239,161.717,164.64,169.859,174.844,177.453" svgx:width="0.33,0.61,0.33,0.58,0.56,0.29,0.33" style="fill:rgb(0,0,0);font-family:URWPalladioL-Roma;font-size:8.97px;stroke:none;">-Ethyl-</text>
   <text y="292.058" x="180.439" svgx:width="0.5" style="fill:rgb(0,0,0);font-family:URWPalladioL-Ital;font-size:8.97px;stroke:none;">p</text>
   <text y="292.058" x="184.922,187.908,195.825,200.12,203.043,208.262,213.157,217.784,222.769,227.728,232.023,237.241,241.724,246.709,249.3103,251.56,256.044,258.653,262.634,267.529,272.748,277.644,280.2453,313.715,318.199,320.44,324.923,329.408,362.188,366.671,371.154,373.396,377.879,382.362,386.84700000000004,418.497,422.98,427.463,431.946" svgx:width="0.33,0.88,0.48,0.33,0.58,0.55,0.52,0.56,0.55,0.48,0.58,0.5,0.56,0.29,0.55,0.5,0.29,0.44,0.55,0.58,0.55,0.29,0.55,0.5,0.25,0.5,0.5,0.55,0.5,0.5,0.25,0.5,0.5,0.5,0.55,0.5,0.5,0.5,0.5" style="fill:rgb(0,0,0);font-family:URWPalladioL-Roma;font-size:8.97px;stroke:none;">-methoxybenzyl alcohol 3.27 54.498 1577</text>
   <text y="303.066" x="147.313,150.299,153.787,157.768,162.753" svgx:width="0.33,0.39,0.44,0.56,0.39" style="fill:rgb(0,0,0);font-family:URWPalladioL-Ital;font-size:8.97px;stroke:none;">trans</text>
   <text y="303.066" x="166.241,169.227,174.723,179.942,185.348,187.447,192.342,197.561,201.8666,313.72,318.204,320.445,324.928,329.413,362.184,366.667,371.15,373.392,377.875,382.358,386.843,418.502,422.985,427.468,431.951" svgx:width="0.33,0.61,0.58,0.6,0.23,0.55,0.58,0.48,0.55,0.5,0.25,0.5,0.5,0.55,0.5,0.5,0.25,0.5,0.5,0.5,0.55,0.5,0.5,0.5,0.5" style="fill:rgb(0,0,0);font-family:URWPalladioL-Roma;font-size:8.97px;stroke:none;">-Thujone 2.95 24.404 1118</text>
   <text y="314.075" x="147.313,152.298,156.593,161.812,165.793,171.011,175.907,181.125,185.4306,313.72,318.204,320.445,324.928,329.413,362.184,366.667,371.15,373.392,377.875,382.358,386.843,418.502,422.985,427.468,431.951" svgx:width="0.56,0.48,0.58,0.44,0.58,0.55,0.58,0.48,0.55,0.5,0.25,0.5,0.5,0.55,0.5,0.5,0.25,0.5,0.5,0.5,0.55,0.5,0.5,0.5,0.5" style="fill:rgb(0,0,0);font-family:URWPalladioL-Roma;font-size:8.97px;stroke:none;">Fenchone 2.75 22.408 1089</text>
   <text y="325.084" x="147.313,153.67,158.153,161.695,166.761,171.244,175.225,178.606,183.501,186.1023,313.72,318.204,320.445,324.928,329.413,362.184,366.667,371.15,373.392,377.875,382.358,386.843,418.502,422.985,427.468,431.951" svgx:width="0.71,0.5,0.4,0.56,0.5,0.44,0.4,0.55,0.29,0.55,0.5,0.25,0.5,0.5,0.55,0.5,0.5,0.25,0.5,0.5,0.5,0.55,0.5,0.5,0.5,0.5" style="fill:rgb(0,0,0);font-family:URWPalladioL-Roma;font-size:8.97px;stroke:none;">Carvacrol 2.15 36.802 1297</text>
   <text y="336.093" x="147.313,152.791,155.401,160.619,165.102,167.712,172.697,175.2983,177.548,182.031,186.012,190.307,193.23,197.713,200.636,204.9416,313.72,318.204,320.445,324.928,329.413,362.184,366.667,371.15,373.392,377.875,382.358,386.843,418.502,422.985,427.468,431.951" svgx:width="0.61,0.29,0.58,0.5,0.29,0.56,0.29,0.55,0.5,0.44,0.48,0.33,0.5,0.33,0.48,0.55,0.5,0.25,0.5,0.5,0.55,0.5,0.5,0.25,0.5,0.5,0.5,0.55,0.5,0.5,0.5,0.5" style="fill:rgb(0,0,0);font-family:URWPalladioL-Roma;font-size:8.97px;stroke:none;">Linalyl acetate 1.88 33.503 1249</text>
   <text y="347.101" x="147.313,154.289,159.507,162.117,167.595,171.89,177.108,180.031,182.641,188.065,192.36,197.8317,313.72,318.204,320.445,324.928,329.413,362.184,366.667,371.15,373.392,377.875,382.358,386.843,418.502,422.985,427.468,431.951" svgx:width="0.78,0.58,0.29,0.61,0.48,0.58,0.33,0.29,0.61,0.48,0.61,0.55,0.5,0.25,0.5,0.5,0.55,0.5,0.5,0.25,0.5,0.5,0.5,0.55,0.5,0.5,0.5,0.5" style="fill:rgb(0,0,0);font-family:URWPalladioL-Roma;font-size:8.97px;stroke:none;">Unidentiﬁed 1.39 42.318 1380</text>
   <text y="358.11" x="147.313" svgx:width="0.33" style="fill:rgb(0,0,0);font-family:URWPalladioL-Roma;font-size:8.97px;stroke:none;">(</text>
   <text y="358.11" x="150.299" svgx:width="0.61" style="fill:rgb(0,0,0);font-family:URWPalladioL-Ital;font-size:8.97px;stroke:none;">E</text>
   <text y="358.11" x="155.777,158.763,161.749,168.106,173.324,176.866,181.851,185.653,190.136,195.355,198.278,203.496,207.791,213.01,217.995,220.5963,222.846,227.329,231.31,235.605,238.528,243.011,245.934,250.2396,313.72,318.203,320.445,324.928,329.413,362.184,366.667,371.15,373.392,377.875,382.358,386.843,418.502,422.985,427.468,431.951" svgx:width="0.33,0.33,0.71,0.58,0.4,0.56,0.42,0.5,0.58,0.33,0.58,0.48,0.58,0.56,0.29,0.55,0.5,0.44,0.48,0.33,0.5,0.33,0.48,0.55,0.5,0.25,0.5,0.5,0.55,0.5,0.5,0.25,0.5,0.5,0.5,0.55,0.5,0.5,0.5,0.5" style="fill:rgb(0,0,0);font-family:URWPalladioL-Roma;font-size:8.97px;stroke:none;">)-Chrysanthenyl acetate 1.38 34.015 1256</text>
   <text y="369.119" x="147.313,152.809,158.028,163.013,170.93,175.826,178.4273,313.72,318.204,320.445,324.928,329.413,362.184,366.667,371.15,373.392,377.875,382.358,386.843,418.502,422.985,427.468,431.951" svgx:width="0.61,0.58,0.56,0.88,0.55,0.29,0.55,0.5,0.25,0.5,0.5,0.55,0.5,0.5,0.25,0.5,0.5,0.5,0.55,0.5,0.5,0.5,0.5" style="fill:rgb(0,0,0);font-family:URWPalladioL-Roma;font-size:8.97px;stroke:none;">Thymol 1.03 36.255 1289</text>
   <text y="380.128" x="147.313,152.298,156.593,161.812,165.793,171.011,175.996,178.59730000000002,180.847,183.457,187.258,192.154,197.112,202.519,205.442,209.925,215.144,220.039,224.523,227.446,231.7516,313.72,318.204,320.445,324.928,329.413,362.184,366.667,371.15,373.392,377.875,382.358,386.843,418.502,422.985,427.468,431.951" svgx:width="0.56,0.48,0.58,0.44,0.58,0.56,0.29,0.55,0.29,0.42,0.55,0.55,0.6,0.33,0.5,0.58,0.55,0.5,0.33,0.48,0.55,0.5,0.25,0.5,0.5,0.55,0.5,0.5,0.25,0.5,0.5,0.5,0.55,0.5,0.5,0.5,0.5" style="fill:rgb(0,0,0);font-family:URWPalladioL-Roma;font-size:8.97px;stroke:none;">Fenchyl isobutanoate 1.03 47.726 1465</text>
   <text y="391.136" x="147.313" svgx:width="0.33" style="fill:rgb(0,0,0);font-family:URWPalladioL-Roma;font-size:8.97px;stroke:none;">(</text>
   <text y="391.136" x="150.299" svgx:width="0.61" style="fill:rgb(0,0,0);font-family:URWPalladioL-Ital;font-size:8.97px;stroke:none;">E</text>
   <text y="391.136" x="155.777,158.763" svgx:width="0.33,0.33" style="fill:rgb(0,0,0);font-family:URWPalladioL-Roma;font-size:8.97px;stroke:none;">)-</text>
   <text y="391.136" x="161.749" svgx:width="0.66" style="fill:rgb(0,0,0);font-family:EURM10;font-size:8.97px;stroke:none;">β</text>
   <text y="391.136" x="167.689,170.675,175.346,179.641,183.183,188.572,191.181,196.399,200.694,205.59,208.1913,313.716,318.199,320.441,324.924,329.409,362.188,366.671,371.155,373.396,377.879,382.363,386.848,418.497,422.98,427.464,431.947" svgx:width="0.33,0.61,0.48,0.4,0.6,0.29,0.58,0.48,0.55,0.29,0.55,0.5,0.25,0.5,0.5,0.55,0.5,0.5,0.25,0.5,0.5,0.5,0.55,0.5,0.5,0.5,0.5" style="fill:rgb(0,0,0);font-family:URWPalladioL-Roma;font-size:8.97px;stroke:none;">-Terpineol 1.00 28.642 1179</text>
   <text y="402.145" x="147.313,152.791,155.401,160.619,165.102,167.712,172.607,177.503,180.1043,313.72,318.204,320.445,324.928,329.413,362.184,366.667,371.15,373.392,377.875,382.358,386.843,418.502,422.985,427.468,431.951" svgx:width="0.61,0.29,0.58,0.5,0.29,0.55,0.55,0.29,0.55,0.5,0.25,0.5,0.5,0.55,0.5,0.5,0.25,0.5,0.5,0.5,0.55,0.5,0.5,0.5,0.5" style="fill:rgb(0,0,0);font-family:URWPalladioL-Roma;font-size:8.97px;stroke:none;">Linalool 0.75 23.139 1100</text>
   <text y="413.154" x="147.313,150.962,153.455" svgx:width="0.41,0.28,0.39" style="fill:rgb(0,0,0);font-family:URWPalladioL-Ital;font-size:8.97px;stroke:none;">cis</text>
   <text y="413.154" x="156.943,159.929,165.425,170.644,176.05,178.149,183.044,188.263,192.5686,313.721,318.204,320.445,324.929,329.414,362.184,366.667,371.15,373.392,377.875,382.358,386.843,418.502,422.985,427.468,431.952" svgx:width="0.33,0.61,0.58,0.6,0.23,0.55,0.58,0.48,0.55,0.5,0.25,0.5,0.5,0.55,0.5,0.5,0.25,0.5,0.5,0.5,0.55,0.5,0.5,0.5,0.5" style="fill:rgb(0,0,0);font-family:URWPalladioL-Roma;font-size:8.97px;stroke:none;">-Thujone 0.74 23.624 1107</text>
   <text y="424.163" x="147.313" svgx:width="0.33" style="fill:rgb(0,0,0);font-family:URWPalladioL-Roma;font-size:8.97px;stroke:none;">(</text>
   <text y="424.163" x="150.299" svgx:width="0.61" style="fill:rgb(0,0,0);font-family:URWPalladioL-Ital;font-size:8.97px;stroke:none;">E</text>
   <text y="424.163" x="155.777,158.763,161.749,168.689,171.298,176.516,181.502,186.98,190.36,195.256,199.237,203.72,207.262,212.328,217.224,222.442,226.7476,313.72,318.203,320.445,324.928,329.413,362.184,366.667,371.15,373.392,377.875,382.358,386.843,418.501,422.985,427.468,431.951" svgx:width="0.33,0.33,0.77,0.29,0.58,0.56,0.61,0.4,0.55,0.44,0.5,0.4,0.56,0.55,0.58,0.48,0.55,0.5,0.25,0.5,0.5,0.55,0.5,0.5,0.25,0.5,0.5,0.5,0.55,0.5,0.5,0.5,0.5" style="fill:rgb(0,0,0);font-family:URWPalladioL-Roma;font-size:8.97px;stroke:none;">)-Dihydrocarvone 0.64 30.422 1204</text>
   <text y="435.171" x="147.313,154.289,159.507,162.117,167.595,171.89,177.108,180.031,182.641,188.065,192.36,197.8317,313.72,318.204,320.445,324.928,329.413,362.184,366.667,371.15,373.392,377.875,382.358,386.843,418.502,422.985,427.468,431.951" svgx:width="0.78,0.58,0.29,0.61,0.48,0.58,0.33,0.29,0.61,0.48,0.61,0.55,0.5,0.25,0.5,0.5,0.55,0.5,0.5,0.25,0.5,0.5,0.5,0.55,0.5,0.5,0.5,0.5" style="fill:rgb(0,0,0);font-family:URWPalladioL-Roma;font-size:8.97px;stroke:none;">Unidentiﬁed 0.64 48.021 1470</text>
   <text y="446.18" x="147.313,154.154,158.449,161.991,166.474,171.693,174.302,178.785,181.3863,313.72,318.204,320.445,324.928,329.413,362.184,366.667,371.15,373.392,377.875,382.358,386.843,418.502,422.985,427.468,431.951" svgx:width="0.76,0.48,0.4,0.5,0.58,0.29,0.5,0.29,0.55,0.5,0.25,0.5,0.5,0.55,0.5,0.5,0.25,0.5,0.5,0.5,0.55,0.5,0.5,0.5,0.5" style="fill:rgb(0,0,0);font-family:URWPalladioL-Roma;font-size:8.97px;stroke:none;">Geranial 0.56 34.747 1267</text>
   <text y="457.189" x="147.313,155.795,160.781,164.322,167.245,171.54,176.759,181.744,184.3453,186.595,191.078,195.059,199.354,202.277,206.76,209.683,213.9886,313.72,318.204,320.445,324.928,329.413,362.184,366.667,371.15,373.392,377.875,382.358,386.843,418.502,422.985,427.468,431.951" svgx:width="0.95,0.56,0.4,0.33,0.48,0.58,0.56,0.29,0.55,0.5,0.44,0.48,0.33,0.5,0.33,0.48,0.55,0.5,0.25,0.5,0.5,0.55,0.5,0.5,0.25,0.5,0.5,0.5,0.55,0.5,0.5,0.5,0.5" style="fill:rgb(0,0,0);font-family:URWPalladioL-Roma;font-size:8.97px;stroke:none;">Myrtenyl acetate 0.54 36.160 1288</text>
   <text y="468.198" x="147.313,150.801,155.284" svgx:width="0.39,0.5,0.44" style="fill:rgb(0,0,0);font-family:URWPalladioL-Ital;font-size:8.97px;stroke:none;">exo</text>
   <text y="468.198" x="159.265,162.251,167.236,171.531,176.749,180.731,185.949,190.934,193.5353,195.785,200.268,204.249,208.544,211.467,215.951,218.874,223.1796,313.72,318.203,320.445,324.928,329.413,362.184,366.667,371.15,373.392,377.875,382.358,386.843,418.502,422.985,427.468,431.951" svgx:width="0.33,0.56,0.48,0.58,0.44,0.58,0.56,0.29,0.55,0.5,0.44,0.48,0.33,0.5,0.33,0.48,0.55,0.5,0.25,0.5,0.5,0.55,0.5,0.5,0.25,0.5,0.5,0.5,0.55,0.5,0.5,0.5,0.5" style="fill:rgb(0,0,0);font-family:URWPalladioL-Roma;font-size:8.97px;stroke:none;">-Fenchyl acetate 0.48 32.269 1231</text>
   <text y="479.206" x="147.313,152.729,157.024,162.242,165.165,169.648,172.634,177.117,179.359,183.842,186.828,192.306,194.916,199.901,205.119,210.105,212.714,217.672,221.967,227.186,231.669,235.964,241.182,245.4876,313.72,318.204,320.445,324.928,329.413,362.184,366.667,371.15,373.392,377.875,382.358,386.843,418.502,422.985,427.468,431.951" svgx:width="0.6,0.48,0.58,0.33,0.5,0.33,0.5,0.25,0.5,0.33,0.61,0.29,0.56,0.58,0.56,0.29,0.55,0.48,0.58,0.5,0.48,0.58,0.48,0.55,0.5,0.25,0.5,0.5,0.55,0.5,0.5,0.25,0.5,0.5,0.5,0.55,0.5,0.5,0.5,0.5" style="fill:rgb(0,0,0);font-family:URWPalladioL-Roma;font-size:8.97px;stroke:none;">Penta-1,3-diynylbenzene 0.46 40.505 1353</text>
   <text y="490.215" x="147.313,154.253,156.862,159.471,162.0723,164.322,168.617,171.54,176.759,181.054,184.642,313.72,318.204,320.445,324.928,329.413,362.184,366.667,371.15,373.392,377.875,382.358,386.843,418.502,422.985,427.468,431.951" svgx:width="0.77,0.29,0.29,0.29,0.55,0.48,0.33,0.58,0.48,0.4,0.55,0.5,0.25,0.5,0.5,0.55,0.5,0.5,0.25,0.5,0.5,0.5,0.55,0.5,0.5,0.5,0.5" style="fill:rgb(0,0,0);font-family:URWPalladioL-Roma;font-size:8.97px;stroke:none;">Dill ether 0.44 29.148 1186</text>
   <text y="501.224" x="147.313,155.795,160.09,163.013,168.232,173.217,175.826,179.807,185.026,189.509,194.575,197.184,201.165,206.061,208.66230000000002,210.912,213.897,219.331,223.626,227.428,230.351,233.893,238.376,243.361,248.257,250.866,255.161,258.1211,313.72,318.204,320.445,324.928,329.413,362.184,366.667,371.15,373.392,377.875,382.358,386.843,418.502,422.985,427.468,431.951" svgx:width="0.95,0.48,0.33,0.58,0.56,0.29,0.44,0.58,0.5,0.56,0.29,0.44,0.55,0.29,0.55,0.33,0.61,0.48,0.42,0.33,0.4,0.5,0.56,0.55,0.29,0.48,0.33,0.55,0.5,0.25,0.5,0.5,0.55,0.5,0.5,0.25,0.5,0.5,0.5,0.55,0.5,0.5,0.5,0.5" style="fill:rgb(0,0,0);font-family:URWPalladioL-Roma;font-size:8.97px;stroke:none;">Methylchavicol (=estragole) 0.42 29.973 1198</text>
   <text y="512.233" x="147.313,154.289,159.507,162.117,167.595,171.89,177.108,180.031,182.641,188.065,192.36,197.8317,313.72,318.204,320.445,324.928,329.413,362.184,366.667,371.15,373.392,377.875,382.358,386.843,418.502,422.985,427.468,431.951" svgx:width="0.78,0.58,0.29,0.61,0.48,0.58,0.33,0.29,0.61,0.48,0.61,0.55,0.5,0.25,0.5,0.5,0.55,0.5,0.5,0.25,0.5,0.5,0.5,0.55,0.5,0.5,0.5,0.5" style="fill:rgb(0,0,0);font-family:URWPalladioL-Roma;font-size:8.97px;stroke:none;">Unidentiﬁed 0.30 53.885 1567</text>
   <text y="523.241" x="147.313,153.67,158.153,161.695,166.68,171.576,176.965,182.183,187.169,189.778,192.387,196.682,201.9,206.2056,208.437,213.333,217.959,220.568,226.047,230.3526,313.72,318.204,320.445,324.928,329.413,362.184,366.667,371.15,373.392,377.875,382.358,386.843,418.502,422.985,427.468,431.951" svgx:width="0.71,0.5,0.4,0.56,0.55,0.6,0.58,0.56,0.29,0.29,0.48,0.58,0.48,0.55,0.55,0.52,0.29,0.61,0.48,0.55,0.5,0.25,0.5,0.5,0.55,0.5,0.5,0.25,0.5,0.5,0.5,0.55,0.5,0.5,0.5,0.5" style="fill:rgb(0,0,0);font-family:URWPalladioL-Roma;font-size:8.97px;stroke:none;">Caryophyllene oxide 0.25 54.759 1581</text>
   <text y="534.25" x="147.313,153.67,158.153,166.071,171.459,176.678,181.574,185.162,313.72,318.204,320.445,324.928,329.413,362.184,366.667,371.15,373.392,377.875,382.358,386.843,418.502,422.985,427.468,431.951" svgx:width="0.71,0.5,0.88,0.6,0.58,0.55,0.4,0.55,0.5,0.25,0.5,0.5,0.55,0.5,0.5,0.25,0.5,0.5,0.5,0.55,0.5,0.5,0.5,0.5" style="fill:rgb(0,0,0);font-family:URWPalladioL-Roma;font-size:8.97px;stroke:none;">Camphor 0.23 26.445 1147</text>
   <text y="545.259" x="147.313,149.806,153.294" svgx:width="0.28,0.39,0.44" style="fill:rgb(0,0,0);font-family:URWPalladioL-Ital;font-size:8.97px;stroke:none;">iso</text>
   <text y="545.259" x="157.274,160.26,168.742,173.037,178.255,181.178,186.397,191.292,196.511,200.8166,313.72,318.203,320.445,324.928,329.413,362.183,366.666,371.15,373.391,377.874,382.358,386.843,418.501,422.984,427.468,431.951" svgx:width="0.33,0.95,0.48,0.58,0.33,0.58,0.55,0.58,0.48,0.55,0.5,0.25,0.5,0.5,0.55,0.5,0.5,0.25,0.5,0.5,0.5,0.55,0.5,0.5,0.5,0.5" style="fill:rgb(0,0,0);font-family:URWPalladioL-Roma;font-size:8.97px;stroke:none;">-Menthone 0.10 27.050 1156</text>
   <text y="556.268" x="147.313,151.796,154.782,162.242,166.537,171.164,175.647,181.125,185.42,189.401,193.696,198.915,203.2206,313.72,318.204,320.445,324.928,329.413,362.184,366.667,371.15,373.392,377.875,382.358,386.843,418.502,422.985,427.468,431.951" svgx:width="0.5,0.33,0.83,0.48,0.52,0.5,0.61,0.48,0.44,0.48,0.58,0.48,0.55,0.5,0.25,0.5,0.5,0.55,0.5,0.5,0.25,0.5,0.5,0.5,0.55,0.5,0.5,0.5,0.5" style="fill:rgb(0,0,0);font-family:URWPalladioL-Roma;font-size:8.97px;stroke:none;">1-Hexadecene 0.08 48.270 1474</text>
   <text y="567.276" x="147.313,152.298,156.781,160.269,165.748,170.231,175.71,180.19500000000002,182.434,187.913,192.898,198.377,201.865,206.85,210.831,215.314,218.802,224.281,229.266,234.744,238.725,240.9675,313.72,318.204,320.445,324.928" svgx:width="0.67,0.5,0.39,0.61,0.5,0.61,0.5,0.55,0.61,0.56,0.61,0.39,0.56,0.44,0.5,0.39,0.61,0.56,0.61,0.44,0.25,0.55,0.5,0.25,0.5,0.5" style="fill:rgb(0,0,0);font-family:URWPalladioL-Bold;font-size:8.97px;stroke:none;">Terpene hydrocarbons: 5.21</text>
   <text y="578.285" x="147.313,154.782,159.265,164.251,169.236,173.719,179.197,183.681,186.667,191.15,196.6217,198.87,201.856,206.339,209.827,215.305,219.788,225.267,230.252,233.238,238.716,242.698,244.94050000000001,311.479,315.962,320.445,322.687,327.17" svgx:width="0.83,0.5,0.56,0.56,0.5,0.61,0.5,0.33,0.5,0.61,0.55,0.33,0.5,0.39,0.61,0.5,0.61,0.56,0.33,0.61,0.44,0.25,0.55,0.5,0.5,0.25,0.5,0.5" style="fill:rgb(0,0,0);font-family:URWPalladioL-Bold;font-size:8.97px;stroke:none;">Oxygenated terpenoids: 85.78</text>
   <text y="589.294" x="147.313,154.782,157.768,163.246,167.729,171.217,175.198,177.44050000000001,313.72,318.204,320.445,324.928" svgx:width="0.83,0.33,0.61,0.5,0.39,0.44,0.25,0.55,0.5,0.25,0.5,0.5" style="fill:rgb(0,0,0);font-family:URWPalladioL-Bold;font-size:8.97px;stroke:none;">Others: 6.70</text>
   <text y="600.303" x="147.313,152.298,157.284,160.269,164.753,167.7131,169.98,172.966,178.444,182.928,188.406,191.392,194.378,199.856,204.339,209.818,212.06050000000002,311.479,315.962,320.445,322.687,327.17" svgx:width="0.67,0.56,0.33,0.5,0.33,0.55,0.33,0.61,0.5,0.61,0.33,0.33,0.61,0.5,0.61,0.25,0.55,0.5,0.5,0.25,0.5,0.5" style="fill:rgb(0,0,0);font-family:URWPalladioL-Bold;font-size:8.97px;stroke:none;">Total identiﬁed: 97.67</text>
  </g>
  <path style="fill:none;stroke:rgb(0,0,0);stroke-width:0.3;" d="M141.340 605.750 L453.940 605.750 "/>
  <g begin="text">
   <text y="614.82" x="129.614,132.72230000000002,134.707,138.859,143.211,145.809,149.794,152.1053,154.106,158.896,162.714,166.699,171.1622,173.123,177.108,180.113,183.93,187.91500000000002,189.908,196.555,200.54,203.88739999999999,205.912,209.291,213.109,215.7391,217.699,220.298,224.6815,226.642,230.627,234.612,238.597,245.292,247.2845,249.277,252.377,255.4853,257.47,262.794,266.612,269.21,273.028,277.667,280.265,282.584,286.936,291.55859999999996,293.567,296.165,298.485,305.522,309.34,311.3325,313.325,316.425,319.526,322.6343,324.618,330.405,334.756,339.26,343.245,345.843,349.1904,351.215,354.219,358.037,360.635,364.453,369.092,371.69,374.009,378.361,382.98359999999997,384.992,387.311,391.95,396.82,400.637,404.7814,406.743,409.062,413.6846,415.693,421.009,425.879,428.533,432.51800000000003,434.51,438.049,442.401,444.72,449.526,456.564,461.202" svgx:width="0.39,0.55,0.61,0.55,0.33,0.5,0.29,0.55,0.6,0.48,0.5,0.56,0.55,0.5,0.4,0.48,0.5,0.55,0.83,0.5,0.42,0.55,0.42,0.48,0.33,0.55,0.33,0.55,0.55,0.5,0.5,0.5,0.84,0.25,0.55,0.39,0.39,0.55,0.67,0.48,0.33,0.48,0.58,0.33,0.29,0.55,0.58,0.55,0.33,0.29,0.88,0.48,0.25,0.55,0.39,0.39,0.39,0.55,0.73,0.55,0.56,0.5,0.33,0.42,0.55,0.4,0.48,0.33,0.48,0.58,0.33,0.29,0.55,0.58,0.55,0.29,0.58,0.61,0.48,0.52,0.55,0.29,0.58,0.55,0.67,0.61,0.33,0.5,0.55,0.44,0.55,0.29,0.6,0.88,0.58,0.25" style="fill:rgb(0,0,0);font-family:URWPalladioL-Roma;font-size:7.97px;stroke:none;">* Total peak area was set to 100%; ** Retention time; *** Kovats retention index in ZB-5 column.</text>
  </g>
  <g begin="text">
   <text y="59.807" x="87.388,91.531,94.892,98.133,101.913,104.848" svgx:width="0.56,0.44,0.44,0.5,0.39,0.25" style="fill:rgb(0,0,0);font-family:PalatinoLinotype-Italic;font-size:7.51px;stroke:none;">Foods </text>
   <text y="59.807" x="106.708,110.488,114.268,118.048" svgx:width="0.5,0.5,0.5,0.5" style="fill:rgb(0,0,0);font-family:PalatinoLinotype-Bold;font-size:7.51px;stroke:none;">2017</text>
   <text y="59.807" x="121.827,123.687" svgx:width="0.25,0.25" style="fill:rgb(0,0,0);font-family:PalatinoLinotype-Roman;font-size:7.51px;stroke:none;">, </text>
   <text y="59.807" x="125.547" svgx:width="0.5" style="fill:rgb(0,0,0);font-family:PalatinoLinotype-Italic;font-size:7.51px;stroke:none;">6</text>
   <text y="59.807" x="129.387,131.246,133.106,136.886,140.666,142.5435,144.026,145.9035,481.704,485.485,487.344,491.425,493.944,495.804,499.584,503.364" svgx:width="0.25,0.25,0.5,0.5,0.25,0.55,0.25,0.55,0.5,0.25,0.55,0.33,0.25,0.5,0.5,0.25" style="fill:rgb(0,0,0);font-family:PalatinoLinotype-Roman;font-size:7.51px;stroke:none;">, 73    4 of 11 </text>
   <text y="754.007" x="87.388" svgx:width="0.25" style="fill:rgb(0,0,0);font-family:TimesNewRomanPSMT;font-size:8.47px;stroke:none;"> </text>
   <text y="83.267" x="87.388,90.448,95.008,100.468,104.609,110.129,115.287,118.048,120.4055,127.828,133.037,138.718,141.717,146.517,152.0,157.101,161.81,164.88,169.468,171.82549999999998,179.128,182.257,186.96,189.306,194.009,201.918,205.046,207.447,209.8045,217.168,222.87,228.39,232.948,235.3055,242.668,251.012,255.745,258.508,263.968,266.32550000000003,273.688,276.749,282.223,285.935,290.495,294.988,297.3455,304.768,308.91,314.072,322.413,328.053,333.214,338.914,344.357,350.073,354.028,356.38550000000004,363.748" svgx:width="0.33,0.48,0.58,0.44,0.58,0.56,0.29,0.25,0.55,0.55,0.6,0.33,0.5,0.58,0.55,0.5,0.33,0.48,0.25,0.55,0.33,0.5,0.25,0.5,0.84,0.33,0.25,0.25,0.55,0.61,0.58,0.48,0.25,0.55,0.88,0.5,0.29,0.58,0.25,0.55,0.33,0.58,0.4,0.48,0.48,0.25,0.55,0.44,0.55,0.88,0.6,0.55,0.6,0.58,0.61,0.42,0.25,0.55,0.33" style="fill:rgb(0,0,0);font-family:PalatinoLinotype-Roman;font-size:9.43px;stroke:none;">fenchyl  butanoate  (4.2%).  The  main  three  compounds  (</text>
   <text y="83.267" x="366.928,369.988,373.646,377.848,383.067" svgx:width="0.33,0.39,0.44,0.56,0.39" style="fill:rgb(0,0,0);font-family:PalatinoLinotype-Italic;font-size:9.43px;stroke:none;">trans</text>
   <text y="83.267" x="386.788,389.848,394.566,400.057,404.577,407.655,413.115,418.277,421.025,425.545,427.887" svgx:width="0.33,0.5,0.58,0.48,0.33,0.58,0.55,0.29,0.48,0.25,0.25" style="fill:rgb(0,0,0);font-family:PalatinoLinotype-Roman;font-size:9.43px;stroke:none;">‐anethole, </text>
   <text y="83.267" x="437.547" svgx:width="0.5" style="fill:rgb(0,0,0);font-family:PalatinoLinotype-Italic;font-size:9.43px;stroke:none;">p</text>
   <text y="83.267" x="442.287,445.408,450.138,455.642,458.402,462.304,467.034,469.854,475.555,480.055,485.515,490.734,496.51,501.043,503.368" svgx:width="0.33,0.5,0.58,0.29,0.42,0.5,0.29,0.61,0.48,0.58,0.56,0.61,0.48,0.25,0.25" style="fill:rgb(0,0,0);font-family:PalatinoLinotype-Roman;font-size:9.43px;stroke:none;">‐anisaldehyde, </text>
   <text y="95.987" x="87.388,93.332,96.448,100.948,104.005,109.524,114.743,117.508" svgx:width="0.64,0.33,0.48,0.33,0.58,0.56,0.29,0.33" style="fill:rgb(0,0,0);font-family:PalatinoLinotype-Roman;font-size:9.43px;stroke:none;">α‐ethyl‐</text>
   <text y="95.987" x="120.629" svgx:width="0.5" style="fill:rgb(0,0,0);font-family:PalatinoLinotype-Italic;font-size:9.43px;stroke:none;">p</text>
   <text y="95.987" x="125.368,128.428,136.83,141.329,144.387,149.848,155.009,159.867,165.026,170.244,174.743,180.203,184.943,190.162,192.928,195.208,200.009,202.769,206.91,212.071,217.532,222.693,225.453,228.569,230.849,235.574,239.309,243.869,246.149,251.357,256.457,259.525,264.989,267.329,271.823,274.876,280.342,284.902,288.604,292.581,294.988,297.328,302.794,307.534,312.839,315.562,321.081,326.248,328.588,336.907,341.416,344.484,349.965,355.106,359.965,365.189,367.589,370.725,376.407,381.89,386.073,389.143,391.884,397.028,402.512,407.223,409.949,412.289,417.511,421.216,426.344,432.01,437.657,441.689,444.028,447.088,452.009,456.211,461.671,466.171,474.572,479.069,481.408,486.148,489.208,491.548,493.9055,495.748" svgx:width="0.33,0.88,0.48,0.33,0.58,0.55,0.52,0.56,0.55,0.48,0.58,0.5,0.56,0.29,0.25,0.5,0.29,0.44,0.55,0.58,0.55,0.29,0.33,0.25,0.5,0.4,0.48,0.25,0.55,0.55,0.33,0.58,0.25,0.48,0.33,0.58,0.48,0.4,0.42,0.25,0.25,0.58,0.5,0.56,0.29,0.58,0.56,0.25,0.88,0.48,0.33,0.58,0.55,0.52,0.56,0.25,0.33,0.6,0.58,0.44,0.33,0.29,0.55,0.58,0.5,0.29,0.25,0.56,0.4,0.55,0.6,0.6,0.42,0.25,0.33,0.52,0.44,0.58,0.48,0.88,0.48,0.25,0.5,0.33,0.25,0.25,0.55,0.25" style="fill:rgb(0,0,0);font-family:PalatinoLinotype-Roman;font-size:9.43px;stroke:none;">‐methoxybenzyl alcohol) are both ethers, having methoxy functional groups (Scheme 1).   </text>
   <text y="119.747" x="107.368,113.002,117.222,122.383,125.189,129.388,131.5055,133.047,137.307,139.467" svgx:width="0.67,0.5,0.61,0.33,0.5,0.25,0.55,0.5,0.25,0.25" style="fill:rgb(0,0,0);font-family:PalatinoLinotype-Bold;font-size:8.47px;stroke:none;">Table  1. </text>
   <text y="119.747" x="143.068,149.085,154.026,158.096,165.586,168.064,171.837,176.084,178.528,180.6455,182.008,185.802,190.459,197.9,202.939,207.596,211.22,213.62,216.379,218.876,223.534,228.448,230.56550000000001,231.928,236.549,239.369,241.4865,242.909,245.664,250.587,254.669,256.7865,258.209,262.245,265.846,269.507,273.527,278.435,281.175,283.695,287.895,290.429,292.5465,293.909,298.529,301.049,303.508,305.6255,306.988,311.609,314.488" svgx:width="0.71,0.58,0.48,0.88,0.29,0.44,0.5,0.29,0.25,0.55,0.44,0.55,0.88,0.6,0.55,0.42,0.29,0.33,0.29,0.55,0.58,0.25,0.55,0.55,0.33,0.25,0.55,0.33,0.58,0.48,0.25,0.55,0.48,0.42,0.42,0.48,0.58,0.33,0.29,0.5,0.29,0.25,0.55,0.55,0.29,0.29,0.25,0.55,0.55,0.33,0.25" style="fill:rgb(0,0,0);font-family:PalatinoLinotype-Roman;font-size:8.47px;stroke:none;">Chemical  composition  of  the  essential  oil  of </text>
   <text y="119.747" x="317.968,322.64,326.481,329.739,334.477,336.758,340.24,345.039,347.32,351.991,358.589,360.7065,361.769,365.949,370.748,373.049,377.309,381.09,384.329" svgx:width="0.56,0.44,0.39,0.56,0.28,0.41,0.56,0.28,0.56,0.78,0.25,0.55,0.5,0.56,0.28,0.5,0.44,0.39,0.39" style="fill:rgb(0,0,0);font-family:PalatinoLinotype-Italic;font-size:8.47px;stroke:none;">Foeniculum  vulgare</text>
   <text y="119.747" x="387.689,389.8065,391.169,395.41,399.177,402.945,407.576,410.928,416.109,418.581,423.516,428.189,430.3065,431.729,434.488,439.109,441.2265,442.59,446.85,448.96750000000003,450.33,456.868,462.03,468.029,470.909,478.891,483.389" svgx:width="0.25,0.55,0.5,0.44,0.44,0.55,0.4,0.61,0.29,0.58,0.56,0.25,0.55,0.33,0.55,0.25,0.55,0.5,0.25,0.55,0.76,0.61,0.71,0.33,0.95,0.52,0.25" style="fill:rgb(0,0,0);font-family:PalatinoLinotype-Roman;font-size:8.47px;stroke:none;">  according  to  a  GLC‐MS </text>
   <text y="131.987" x="107.37,111.578,116.481,120.741,123.201,127.883,131.484,134.004,137.605,139.71" svgx:width="0.5,0.58,0.5,0.29,0.56,0.42,0.29,0.42,0.25,0.25" style="fill:rgb(0,0,0);font-family:PalatinoLinotype-Roman;font-size:8.47px;stroke:none;">analysis. </text>
   <text y="150.167" x="172.53,178.662,183.388,190.935,196.127,200.853,205.955,211.147,216.249,220.049,222.1665,291.689,299.189,301.289" svgx:width="0.72,0.56,0.89,0.61,0.56,0.61,0.61,0.61,0.44,0.25,0.55,0.89,0.25,0.44" style="fill:rgb(0,0,0);font-family:PalatinoLinotype-Bold;font-size:8.47px;stroke:none;">Compounds  % *</text>
   <text y="147.767" x="305.068" svgx:width="0.25" style="fill:rgb(0,0,0);font-family:PalatinoLinotype-Bold;font-size:5.19px;stroke:none;"> </text>
   <text y="150.167" x="348.628,354.629,360.268,362.368,366.15,369.928,372.0455,416.068,422.129,425.368,427.468,431.25,435.031" svgx:width="0.71,0.67,0.25,0.44,0.44,0.25,0.55,0.71,0.39,0.25,0.44,0.44,0.44" style="fill:rgb(0,0,0);font-family:PalatinoLinotype-Bold;font-size:8.47px;stroke:none;">RT **  RI ***</text>
   <text y="147.767" x="438.808" svgx:width="0.25" style="fill:rgb(0,0,0);font-family:PalatinoLinotype-Bold;font-size:5.19px;stroke:none;"> </text>
  </g>
  <g begin="text">
   <text y="162.347" x="130.228,133.046,136.285,140.043,144.749" svgx:width="0.33,0.39,0.44,0.56,0.39" style="fill:rgb(0,0,0);font-family:PalatinoLinotype-Italic;font-size:8.47px;stroke:none;">trans</text>
   <text y="162.347" x="148.048,150.868,157.456,162.385,166.442,169.203,174.132,178.756,181.221,185.307,187.4245,189.087,191.2045,290.967,295.227,299.427,301.527,305.787,307.9045,347.667,351.872,356.132,358.219,362.423,366.683,370.888,373.0055,419.008,423.208,427.468,431.728,435.928" svgx:width="0.33,0.78,0.58,0.48,0.33,0.58,0.55,0.29,0.48,0.25,0.55,0.25,0.55,0.5,0.5,0.25,0.5,0.25,0.55,0.5,0.5,0.25,0.5,0.5,0.5,0.25,0.55,0.5,0.5,0.5,0.5,0.25" style="fill:rgb(0,0,0);font-family:PalatinoLinotype-Roman;font-size:8.47px;stroke:none;">‐Anethole    36.8  36.022  1286 </text>
  </g>
  <g begin="text">
   <text y="173.987" x="130.228,135.631,138.448,143.608,146.355,151.27,155.964,158.428" svgx:width="0.64,0.33,0.61,0.33,0.58,0.56,0.29,0.33" style="fill:rgb(0,0,0);font-family:PalatinoLinotype-Roman;font-size:8.47px;stroke:none;">α‐Ethyl‐</text>
   <text y="173.987" x="161.248" svgx:width="0.5" style="fill:rgb(0,0,0);font-family:PalatinoLinotype-Italic;font-size:8.47px;stroke:none;">p</text>
   <text y="173.987" x="165.508,168.328,175.787,179.866,182.609,187.589,192.194,196.573,201.264,205.928,210.008,214.928,219.144,223.834,226.348,228.448,232.662,235.182,238.963,243.584,248.493,253.096,255.567,257.6845,290.967,295.227,297.267,301.527,305.787,307.9045,347.667,351.872,356.132,358.219,362.423,366.683,370.888,373.0055,419.008,423.208,427.468,431.728,435.928" svgx:width="0.33,0.88,0.48,0.33,0.58,0.55,0.52,0.56,0.55,0.48,0.58,0.5,0.56,0.29,0.25,0.5,0.29,0.44,0.55,0.58,0.55,0.29,0.25,0.55,0.5,0.25,0.5,0.5,0.25,0.55,0.5,0.5,0.25,0.5,0.5,0.5,0.25,0.55,0.5,0.5,0.5,0.5,0.25" style="fill:rgb(0,0,0);font-family:PalatinoLinotype-Roman;font-size:8.47px;stroke:none;">‐methoxybenzyl alcohol  9.10  54.059  1569 </text>
   <text y="185.567" x="130.228" svgx:width="0.5" style="fill:rgb(0,0,0);font-family:PalatinoLinotype-Italic;font-size:8.47px;stroke:none;">p</text>
   <text y="185.567" x="134.428,137.248,143.854,148.801,151.283,154.892,159.092,161.612,166.714,170.793,175.74,180.418,185.611,189.628,191.7455,193.407,195.52450000000002,290.967,295.227,297.267,301.527,305.787,307.9045,347.668,351.872,356.132,358.219,362.423,366.683,370.888,373.0055,419.008,423.208,427.468,431.728,435.928" svgx:width="0.33,0.78,0.58,0.29,0.42,0.5,0.29,0.61,0.48,0.58,0.56,0.61,0.48,0.25,0.55,0.25,0.55,0.5,0.25,0.5,0.5,0.25,0.55,0.5,0.5,0.25,0.5,0.5,0.5,0.25,0.55,0.5,0.5,0.5,0.5,0.25" style="fill:rgb(0,0,0);font-family:PalatinoLinotype-Roman;font-size:8.47px;stroke:none;">‐Anisaldehyde    7.73  33.825  1254 </text>
   <text y="197.507" x="130.228,136.168,140.428,143.788,148.588,153.269,158.129,162.148,164.2655,290.968,295.228,297.268,301.528,305.788,307.9055,347.668,351.873,356.133,358.22,362.424,366.684,370.889,373.0065,419.009,423.209,427.469,431.729,435.929" svgx:width="0.71,0.5,0.4,0.56,0.55,0.58,0.48,0.25,0.55,0.5,0.25,0.5,0.5,0.25,0.55,0.5,0.5,0.25,0.5,0.5,0.5,0.25,0.55,0.5,0.5,0.5,0.5,0.25" style="fill:rgb(0,0,0);font-family:PalatinoLinotype-Roman;font-size:8.47px;stroke:none;">Carvone  4.87  33.119  1243 </text>
   <text y="209.987" x="130.229,134.429,137.249,142.347,147.259,151.299,156.211,160.903,163.422,168.495,172.535,177.447,180.191,184.468,187.348,191.557,193.648,197.908,200.728,205.851,208.37,213.028,217.947,222.028,224.1455,290.968,295.228,297.267,301.527,305.787,307.9045,347.668,351.872,356.132,358.219,362.423,366.683,370.888,373.0055,419.008,423.208,427.468,431.728,435.928" svgx:width="0.5,0.33,0.6,0.58,0.48,0.58,0.56,0.29,0.6,0.48,0.58,0.33,0.5,0.33,0.5,0.25,0.5,0.33,0.61,0.29,0.56,0.58,0.48,0.25,0.55,0.5,0.25,0.5,0.5,0.25,0.55,0.5,0.5,0.25,0.5,0.5,0.5,0.25,0.55,0.5,0.5,0.5,0.5,0.25" style="fill:rgb(0,0,0);font-family:PalatinoLinotype-Roman;font-size:8.47px;stroke:none;">1‐Phenylpenta‐2,4‐diyne  4.75  35.875  1283 </text>
   <text y="222.108" x="130.228,134.921,138.962,143.874,147.619,152.532,157.224,159.748,161.848,166.523,171.563,174.316,178.636,183.616,188.237,192.463,195.215,199.288,201.40550000000002,290.968,295.228,297.268,301.528,305.788,307.9055,347.668,351.873,356.133,358.22,362.424,366.684,370.889,373.0065,419.009,423.209,427.469,431.729,435.929" svgx:width="0.56,0.48,0.58,0.44,0.58,0.56,0.29,0.25,0.55,0.6,0.33,0.5,0.58,0.55,0.5,0.33,0.48,0.25,0.55,0.5,0.25,0.5,0.5,0.25,0.55,0.5,0.5,0.25,0.5,0.5,0.5,0.25,0.55,0.5,0.5,0.5,0.5,0.25" style="fill:rgb(0,0,0);font-family:PalatinoLinotype-Roman;font-size:8.47px;stroke:none;">Fenchyl butanoate  4.23  46.653  1448 </text>
   <text y="233.988" x="130.229,137.189,141.268,145.886,153.358,157.409,162.332,165.087,170.01,174.628,177.149,179.2665,290.969,295.229,297.269,301.529,305.789,307.9065,347.669,351.873,356.133,358.221,362.425,366.685,370.89,373.0075,419.01,423.21,427.47,431.73,435.93" svgx:width="0.83,0.48,0.55,0.88,0.48,0.58,0.33,0.58,0.55,0.29,0.25,0.55,0.5,0.25,0.5,0.5,0.25,0.55,0.5,0.5,0.25,0.5,0.5,0.5,0.25,0.55,0.5,0.5,0.5,0.5,0.25" style="fill:rgb(0,0,0);font-family:PalatinoLinotype-Roman;font-size:8.47px;stroke:none;">Neomenthol  3.62  28.027  1170 </text>
   <text y="245.867" x="130.23,133.05" svgx:width="0.33,0.5" style="fill:rgb(0,0,0);font-family:PalatinoLinotype-Roman;font-size:8.47px;stroke:none;">(2</text>
   <text y="245.867" x="137.25" svgx:width="0.61" style="fill:rgb(0,0,0);font-family:PalatinoLinotype-Italic;font-size:8.47px;stroke:none;">E</text>
   <text y="245.867" x="142.41,145.23,148.05,154.604,159.227,164.401,168.456,172.216,176.272,181.2,185.434,187.889,190.00650000000002,290.969,295.229,297.269,301.529,305.789,307.9065,347.669,351.874,356.133,358.221,362.425,366.685,370.89,373.0075,419.01,423.21,427.47,431.73,435.93" svgx:width="0.33,0.33,0.77,0.55,0.61,0.48,0.44,0.48,0.58,0.5,0.29,0.25,0.55,0.5,0.25,0.5,0.5,0.25,0.55,0.5,0.5,0.25,0.5,0.5,0.5,0.25,0.55,0.5,0.5,0.5,0.5,0.25" style="fill:rgb(0,0,0);font-family:PalatinoLinotype-Roman;font-size:8.47px;stroke:none;">)‐Dodecenal  3.44  47.807  1467 </text>
   <text y="257.687" x="130.23,135.086,137.97,143.072,145.831,150.81,155.489,158.01" svgx:width="0.58,0.33,0.61,0.33,0.58,0.56,0.29,0.33" style="fill:rgb(0,0,0);font-family:PalatinoLinotype-Roman;font-size:8.47px;stroke:none;">β‐Ethyl‐</text>
   <text y="257.687" x="160.83" svgx:width="0.5" style="fill:rgb(0,0,0);font-family:PalatinoLinotype-Italic;font-size:8.47px;stroke:none;">p</text>
   <text y="257.687" x="165.03,167.849,175.31,179.39,182.134,187.114,191.721,196.16,200.851,205.518,209.558,214.47,218.73,223.408,225.87,227.969,232.208,234.677,238.442,243.07,248.004,252.632,255.149,257.2665,290.969,295.229,297.269,301.529,305.789,307.9065,347.669,351.874,356.134,358.221,362.425,366.685,370.89,373.0075,419.01,423.21,427.47,431.73,435.93" svgx:width="0.33,0.88,0.48,0.33,0.58,0.55,0.52,0.56,0.55,0.48,0.58,0.5,0.56,0.29,0.25,0.5,0.29,0.44,0.55,0.58,0.55,0.29,0.25,0.55,0.5,0.25,0.5,0.5,0.25,0.55,0.5,0.5,0.25,0.5,0.5,0.5,0.25,0.55,0.5,0.5,0.5,0.5,0.25" style="fill:rgb(0,0,0);font-family:PalatinoLinotype-Roman;font-size:8.47px;stroke:none;">‐methoxybenzyl alcohol  3.27  54.498  1577 </text>
   <text y="269.867" x="130.23,133.048,136.287,140.045,144.751" svgx:width="0.33,0.39,0.44,0.56,0.39" style="fill:rgb(0,0,0);font-family:PalatinoLinotype-Italic;font-size:8.47px;stroke:none;">trans</text>
   <text y="269.867" x="148.05,150.93,156.094,160.996,166.076,168.031,172.711,177.631,181.71,183.82750000000001,185.49,187.60750000000002,290.97,295.23,297.27,301.53,305.79,307.9075,347.67,351.874,356.134,358.222,362.426,366.686,370.891,373.0085,419.011,423.211,427.471,431.731,435.928" svgx:width="0.33,0.61,0.58,0.6,0.23,0.55,0.58,0.48,0.25,0.55,0.25,0.55,0.5,0.25,0.5,0.5,0.25,0.55,0.5,0.5,0.25,0.5,0.5,0.5,0.25,0.55,0.5,0.5,0.5,0.5,0.25" style="fill:rgb(0,0,0);font-family:PalatinoLinotype-Roman;font-size:8.47px;stroke:none;">‐Thujone    2.95  24.404  1118 </text>
   <text y="282.347" x="130.228,134.926,138.972,143.89,147.639,152.557,157.17,162.088,166.169,168.28650000000002,290.969,295.229,297.268,301.528,305.788,307.9055,347.669,351.873,356.133,358.22,362.424,366.684,370.889,373.0065,419.009,423.209,427.469,431.729,435.929" svgx:width="0.56,0.48,0.58,0.44,0.58,0.55,0.58,0.48,0.25,0.55,0.5,0.25,0.5,0.5,0.25,0.55,0.5,0.5,0.25,0.5,0.5,0.5,0.25,0.55,0.5,0.5,0.5,0.5,0.25" style="fill:rgb(0,0,0);font-family:PalatinoLinotype-Roman;font-size:8.47px;stroke:none;">Fenchone  2.75  22.408  1089 </text>
   <text y="294.767" x="130.229,136.169,140.429,143.8,148.611,152.871,156.592,159.963,164.612,167.01,169.1275,290.97,295.23,297.269,301.529,305.789,307.9065,347.67,351.874,356.134,358.221,362.425,366.685,370.89,373.0075,419.01,423.21,427.47,431.73,435.93" svgx:width="0.71,0.5,0.4,0.56,0.5,0.44,0.4,0.55,0.29,0.25,0.55,0.5,0.25,0.5,0.5,0.25,0.55,0.5,0.5,0.25,0.5,0.5,0.5,0.25,0.55,0.5,0.5,0.5,0.5,0.25" style="fill:rgb(0,0,0);font-family:PalatinoLinotype-Roman;font-size:8.47px;stroke:none;">Carvacrol  2.15  36.802  1297 </text>
   <text y="306.947" x="130.23,135.332,137.852,142.771,146.971,149.431,154.169,156.63,158.73,162.93,166.712,170.791,173.55,177.81,180.569,184.65,186.7675,290.97,295.23,297.269,301.529,305.789,307.9065,347.67,351.874,356.134,358.221,362.425,366.685,370.89,373.0075,419.01,423.21,427.47,431.73,435.93" svgx:width="0.61,0.29,0.58,0.5,0.29,0.56,0.29,0.25,0.5,0.44,0.48,0.33,0.5,0.33,0.48,0.25,0.55,0.5,0.25,0.5,0.5,0.25,0.55,0.5,0.5,0.25,0.5,0.5,0.5,0.25,0.55,0.5,0.5,0.5,0.5,0.25" style="fill:rgb(0,0,0);font-family:PalatinoLinotype-Roman;font-size:8.47px;stroke:none;">Linalyl acetate  1.88  33.503  1249 </text>
   <text y="318.827" x="130.23,136.826,141.763,144.235,149.418,153.438,158.358,161.126,163.599,166.427,168.9,172.964,178.05,180.16750000000002,290.97,295.23,297.27,301.53,305.79,307.9075,347.671,351.875,356.135,358.222,362.426,366.686,370.891,373.0085,419.011,423.211,427.471,431.731,435.931" svgx:width="0.78,0.58,0.29,0.61,0.48,0.58,0.33,0.29,0.33,0.29,0.48,0.61,0.25,0.55,0.5,0.25,0.5,0.5,0.25,0.55,0.5,0.5,0.25,0.5,0.5,0.5,0.25,0.55,0.5,0.5,0.5,0.5,0.25" style="fill:rgb(0,0,0);font-family:PalatinoLinotype-Roman;font-size:8.47px;stroke:none;">Unidentified  1.39  42.318  1380 </text>
   <text y="330.707" x="130.231" svgx:width="0.33" style="fill:rgb(0,0,0);font-family:PalatinoLinotype-Roman;font-size:8.47px;stroke:none;">(</text>
   <text y="330.707" x="133.051" svgx:width="0.61" style="fill:rgb(0,0,0);font-family:PalatinoLinotype-Italic;font-size:8.47px;stroke:none;">E</text>
   <text y="330.707" x="138.151,140.97,143.79,149.784,154.703,158.038,162.737,166.398,170.598,175.517,178.268,183.187,187.327,192.245,196.944,199.41,201.51,205.71,209.491,213.571,216.329,220.589,223.348,227.43,229.5475,231.209,233.3265,290.97,295.23,297.269,301.529,305.789,307.9065,347.67,351.874,356.134,358.221,362.425,366.685,370.89,373.0075,419.01,423.21,427.47,431.73,435.93" svgx:width="0.33,0.33,0.71,0.58,0.4,0.56,0.42,0.5,0.58,0.33,0.58,0.48,0.58,0.56,0.29,0.25,0.5,0.44,0.48,0.33,0.5,0.33,0.48,0.25,0.55,0.25,0.55,0.5,0.25,0.5,0.5,0.25,0.55,0.5,0.5,0.25,0.5,0.5,0.5,0.25,0.55,0.5,0.5,0.5,0.5,0.25" style="fill:rgb(0,0,0);font-family:PalatinoLinotype-Roman;font-size:8.47px;stroke:none;">)‐Chrysanthenyl acetate    1.38  34.015  1256 </text>
   <text y="342.527" x="130.23,135.332,140.312,144.99,152.431,157.052,159.63,161.7475,290.971,295.231,297.27,301.53,305.79,307.9075,347.671,351.875,356.135,358.222,362.426,366.686,370.891,373.0085,419.011,423.211,427.471,431.731,435.931" svgx:width="0.61,0.58,0.56,0.88,0.55,0.29,0.25,0.55,0.5,0.25,0.5,0.5,0.25,0.55,0.5,0.5,0.25,0.5,0.5,0.5,0.25,0.55,0.5,0.5,0.5,0.5,0.25" style="fill:rgb(0,0,0);font-family:PalatinoLinotype-Roman;font-size:8.47px;stroke:none;">Thymol  1.03  36.255  1289 </text>
   <text y="354.647" x="130.231,134.924,138.965,143.877,147.622,152.535,157.227,159.751,161.851,164.313,167.901,172.521,177.201,182.305,185.063,189.294,194.219,198.84,203.071,205.829,209.911,212.0285,290.971,295.231,297.271,301.531,305.791,307.9085,347.672,351.876,356.136,358.223,362.427,366.687,370.892,373.0095,419.012,423.212,427.472,431.732,435.932" svgx:width="0.56,0.48,0.58,0.44,0.58,0.56,0.29,0.25,0.29,0.42,0.55,0.55,0.6,0.33,0.5,0.58,0.55,0.5,0.33,0.48,0.25,0.55,0.5,0.25,0.5,0.5,0.25,0.55,0.5,0.5,0.25,0.5,0.5,0.5,0.25,0.55,0.5,0.5,0.5,0.5,0.25" style="fill:rgb(0,0,0);font-family:PalatinoLinotype-Roman;font-size:8.47px;stroke:none;">Fenchyl isobutanoate  1.03  47.726  1465 </text>
   <text y="367.127" x="130.232" svgx:width="0.33" style="fill:rgb(0,0,0);font-family:PalatinoLinotype-Roman;font-size:8.47px;stroke:none;">(</text>
   <text y="367.127" x="133.052" svgx:width="0.61" style="fill:rgb(0,0,0);font-family:PalatinoLinotype-Italic;font-size:8.47px;stroke:none;">E</text>
   <text y="367.127" x="138.152,140.971,143.781,148.707,151.591,156.764,160.844,164.204,169.303,171.749,176.659,180.739,185.36,187.771,189.8885,191.551,193.6685,290.971,295.231,297.271,301.531,305.791,307.9085,347.672,351.876,356.136,358.223,362.427,366.687,370.892,373.0095,419.012,423.212,427.472,431.732,435.932" svgx:width="0.33,0.33,0.58,0.33,0.61,0.48,0.4,0.6,0.29,0.58,0.48,0.55,0.29,0.25,0.55,0.25,0.55,0.5,0.25,0.5,0.5,0.25,0.55,0.5,0.5,0.25,0.5,0.5,0.5,0.25,0.55,0.5,0.5,0.5,0.5,0.25" style="fill:rgb(0,0,0);font-family:PalatinoLinotype-Roman;font-size:8.47px;stroke:none;">)‐β‐Terpineol    1.00  28.642  1179 </text>
   <text y="379.608" x="130.232,135.334,137.854,142.773,146.973,149.433,154.114,158.735,161.192,163.3095,290.972,295.232,297.271,301.531,305.791,307.9085,347.672,351.876,356.136,358.223,362.427,366.687,370.892,373.0095,419.012,423.212,427.472,431.732,435.932" svgx:width="0.61,0.29,0.58,0.5,0.29,0.55,0.55,0.29,0.25,0.55,0.5,0.25,0.5,0.5,0.25,0.55,0.5,0.5,0.25,0.5,0.5,0.5,0.25,0.55,0.5,0.5,0.5,0.5,0.25" style="fill:rgb(0,0,0);font-family:PalatinoLinotype-Roman;font-size:8.47px;stroke:none;">Linalool  0.75  23.139  1100 </text>
   <text y="391.787" x="130.232,133.66,135.995" svgx:width="0.41,0.28,0.39" style="fill:rgb(0,0,0);font-family:PalatinoLinotype-Italic;font-size:8.47px;stroke:none;">cis</text>
   <text y="391.787" x="139.232,142.112,147.28,152.26,157.343,159.301,163.901,168.807,172.952,175.0695,176.732,178.8495,290.972,295.232,297.272,301.532,305.792,307.9095,347.672,351.877,356.137,358.224,362.428,366.688,370.893,373.0105,419.013,423.213,427.473,431.733,435.933" svgx:width="0.33,0.61,0.58,0.6,0.23,0.55,0.58,0.48,0.25,0.55,0.25,0.55,0.5,0.25,0.5,0.5,0.25,0.55,0.5,0.5,0.25,0.5,0.5,0.5,0.25,0.55,0.5,0.5,0.5,0.5,0.25" style="fill:rgb(0,0,0);font-family:PalatinoLinotype-Roman;font-size:8.47px;stroke:none;">‐Thujone    0.74  23.624  1107 </text>
   <text y="403.607" x="130.233" svgx:width="0.33" style="fill:rgb(0,0,0);font-family:PalatinoLinotype-Roman;font-size:8.47px;stroke:none;">(</text>
   <text y="403.607" x="133.053" svgx:width="0.61" style="fill:rgb(0,0,0);font-family:PalatinoLinotype-Italic;font-size:8.47px;stroke:none;">E</text>
   <text y="403.607" x="138.153,140.972,143.788,150.341,152.861,157.788,162.495,167.597,171.017,175.639,179.398,183.631,186.975,191.758,196.38,201.308,205.408,207.5255,290.968,295.228,297.267,301.527,305.787,307.9045,347.668,351.872,356.132,358.219,362.423,366.683,370.888,373.0055,419.008,423.208,427.468,431.728,435.928" svgx:width="0.33,0.33,0.77,0.29,0.58,0.56,0.61,0.4,0.55,0.44,0.5,0.4,0.56,0.55,0.58,0.48,0.25,0.55,0.5,0.25,0.5,0.5,0.25,0.55,0.5,0.5,0.25,0.5,0.5,0.5,0.25,0.55,0.5,0.5,0.5,0.5,0.25" style="fill:rgb(0,0,0);font-family:PalatinoLinotype-Roman;font-size:8.47px;stroke:none;">)‐Dihydrocarvone  0.64  30.422  1204 </text>
   <text y="415.487" x="130.228,136.824,141.761,144.233,149.416,153.436,158.355,161.124,163.597,166.425,168.898,172.962,178.048,180.1655,290.968,295.228,297.268,301.528,305.788,307.9055,347.668,351.873,356.133,358.22,362.424,366.684,370.889,373.0065,419.009,423.209,427.469,431.729,435.929" svgx:width="0.78,0.58,0.29,0.61,0.48,0.58,0.33,0.29,0.33,0.29,0.48,0.61,0.25,0.55,0.5,0.25,0.5,0.5,0.25,0.55,0.5,0.5,0.25,0.5,0.5,0.5,0.25,0.55,0.5,0.5,0.5,0.5,0.25" style="fill:rgb(0,0,0);font-family:PalatinoLinotype-Roman;font-size:8.47px;stroke:none;">Unidentified  0.64  48.021  1470 </text>
   <text y="427.307" x="130.229,136.711,140.788,144.154,148.409,153.268,155.788,159.928,162.389,164.50650000000002,290.969,295.229,297.269,301.529,305.789,307.9065,347.669,351.874,356.133,358.221,362.425,366.685,370.89,373.0075,419.01,423.21,427.47,431.73,435.93" svgx:width="0.76,0.48,0.4,0.5,0.58,0.29,0.5,0.29,0.25,0.55,0.5,0.25,0.5,0.5,0.25,0.55,0.5,0.5,0.25,0.5,0.5,0.5,0.25,0.55,0.5,0.5,0.5,0.5,0.25" style="fill:rgb(0,0,0);font-family:PalatinoLinotype-Roman;font-size:8.47px;stroke:none;">Geranial  0.56  34.747  1267 </text>
   <text y="439.547" x="130.23,138.151,142.83,146.25,149.008,153.088,158.008,162.686,165.15,167.25,171.45,175.231,179.311,182.07,186.39,189.149,193.23,195.3475,290.97,295.23,297.27,301.53,305.79,307.9075,347.67,351.874,356.134,358.222,362.426,366.686,370.891,373.0085,419.011,423.211,427.471,431.731,435.93" svgx:width="0.95,0.56,0.4,0.33,0.48,0.58,0.56,0.29,0.25,0.5,0.44,0.48,0.33,0.5,0.33,0.48,0.25,0.55,0.5,0.25,0.5,0.5,0.25,0.55,0.5,0.5,0.25,0.5,0.5,0.5,0.25,0.55,0.5,0.5,0.5,0.5,0.25" style="fill:rgb(0,0,0);font-family:PalatinoLinotype-Roman;font-size:8.47px;stroke:none;">Myrtenyl acetate  0.54  36.160  1288 </text>
   <text y="451.967" x="130.231,133.47,137.73" svgx:width="0.39,0.5,0.44" style="fill:rgb(0,0,0);font-family:PalatinoLinotype-Italic;font-size:8.47px;stroke:none;">exo</text>
   <text y="451.967" x="141.511,144.331,149.003,153.083,157.975,161.757,166.65,171.388,173.851,175.951,180.151,183.933,188.012,190.771,195.031,197.79,201.871,203.98850000000002,205.591,207.70850000000002,290.971,295.231,297.271,301.531,305.791,307.9085,347.671,351.875,356.135,358.223,362.427,366.687,370.892,373.0095,419.012,423.211,427.471,431.731,435.931" svgx:width="0.33,0.56,0.48,0.58,0.44,0.58,0.56,0.29,0.25,0.5,0.44,0.48,0.33,0.5,0.33,0.48,0.25,0.55,0.25,0.55,0.5,0.25,0.5,0.5,0.25,0.55,0.5,0.5,0.25,0.5,0.5,0.5,0.25,0.55,0.5,0.5,0.5,0.5,0.25" style="fill:rgb(0,0,0);font-family:PalatinoLinotype-Roman;font-size:8.47px;stroke:none;">‐Fenchyl acetate    0.48  32.269  1231 </text>
   <text y="464.387" x="130.232,135.272,139.351,144.271,147.03,151.292,154.112,158.32,160.412,164.672,167.551,172.653,175.173,179.879,184.806,189.512,191.974,196.655,200.709,205.636,209.868,213.922,218.848,222.871,224.98850000000002,290.971,295.231,297.271,301.531,305.791,307.9085,347.671,351.875,356.135,358.223,362.427,366.687,370.892,373.0095,419.012,423.211,427.471,431.732,435.931" svgx:width="0.6,0.48,0.58,0.33,0.5,0.33,0.5,0.25,0.5,0.33,0.61,0.29,0.56,0.58,0.56,0.29,0.55,0.48,0.58,0.5,0.48,0.58,0.48,0.25,0.55,0.5,0.25,0.5,0.5,0.25,0.55,0.5,0.5,0.25,0.5,0.5,0.5,0.25,0.55,0.5,0.5,0.5,0.5,0.25" style="fill:rgb(0,0,0);font-family:PalatinoLinotype-Roman;font-size:8.47px;stroke:none;">Penta‐1,3‐diynylbenzene  0.46  40.505  1353 </text>
   <text y="476.627" x="130.232,136.776,139.231,141.751,144.212,146.312,150.379,153.15,158.009,162.089,165.452,167.5695,290.971,295.231,297.271,301.531,305.791,307.9085,347.671,351.875,356.135,358.223,362.427,366.687,370.892,373.0095,419.012,423.212,427.472,431.732,435.931" svgx:width="0.77,0.29,0.29,0.29,0.25,0.48,0.33,0.58,0.48,0.4,0.25,0.55,0.5,0.25,0.5,0.5,0.25,0.55,0.5,0.5,0.25,0.5,0.5,0.5,0.25,0.55,0.5,0.5,0.5,0.5,0.25" style="fill:rgb(0,0,0);font-family:PalatinoLinotype-Roman;font-size:8.47px;stroke:none;">Dill ether  0.44  29.148  1186 </text>
   <text y="488.446" x="130.232,138.153,142.233,144.992,149.911,154.589,157.049,160.891,165.75,170.01,174.811,177.271,181.052,185.673,188.192,190.292,193.112,197.312,199.412,203.485,207.092,209.87,213.29,217.489,222.168,226.808,229.289,233.362,236.132,238.2495,290.972,295.232,297.272,301.532,305.792,307.9095,347.672,351.876,356.136,358.223,362.428,366.688,370.893,373.0105,419.013,423.212,427.472,431.732,435.932" svgx:width="0.95,0.48,0.33,0.58,0.56,0.29,0.44,0.58,0.5,0.56,0.29,0.44,0.55,0.29,0.25,0.33,0.5,0.25,0.48,0.42,0.33,0.4,0.5,0.56,0.55,0.29,0.48,0.33,0.25,0.55,0.5,0.25,0.5,0.5,0.25,0.55,0.5,0.5,0.25,0.5,0.5,0.5,0.25,0.55,0.5,0.5,0.5,0.5,0.25" style="fill:rgb(0,0,0);font-family:PalatinoLinotype-Roman;font-size:8.47px;stroke:none;">Methylchavicol (= estragole)  0.42  29.973  1198 </text>
   <text y="500.326" x="130.233,136.829,141.765,144.238,149.42,153.44,158.36,161.129,163.601,166.43,168.902,172.966,178.053,180.1705,290.973,295.233,297.273,301.533,305.793,307.9105,347.673,351.877,356.137,358.224,362.428,366.688,370.893,373.0105,419.013,423.213,427.473,431.733,435.933" svgx:width="0.78,0.58,0.29,0.61,0.48,0.58,0.33,0.29,0.33,0.29,0.48,0.61,0.25,0.55,0.5,0.25,0.5,0.5,0.25,0.55,0.5,0.5,0.25,0.5,0.5,0.5,0.25,0.55,0.5,0.5,0.5,0.5,0.25" style="fill:rgb(0,0,0);font-family:PalatinoLinotype-Roman;font-size:8.47px;stroke:none;">Unidentified  0.30  53.885  1567 </text>
   <text y="512.146" x="130.234,136.174,140.434,143.793,148.472,153.153,158.192,163.111,167.79,170.309,172.769,176.849,181.769,185.794,187.954,192.572,197.011,199.47,204.638,208.594,210.7115,290.975,295.235,297.275,301.535,305.795,307.9125,347.675,351.879,356.139,358.226,362.43,366.69,370.895,373.0125,419.015,423.215,427.475,431.735,435.935" svgx:width="0.71,0.5,0.4,0.56,0.55,0.6,0.58,0.56,0.29,0.29,0.48,0.58,0.48,0.25,0.55,0.52,0.29,0.61,0.48,0.25,0.55,0.5,0.25,0.5,0.5,0.25,0.55,0.5,0.5,0.25,0.5,0.5,0.5,0.25,0.55,0.5,0.5,0.5,0.5,0.25" style="fill:rgb(0,0,0);font-family:PalatinoLinotype-Roman;font-size:8.47px;stroke:none;">Caryophyllene oxide  0.25  54.759  1581 </text>
   <text y="524.326" x="130.235,136.189,140.449,147.876,152.975,157.894,162.515,165.875,167.9925,290.975,295.235,297.275,301.535" svgx:width="0.71,0.5,0.88,0.6,0.58,0.55,0.4,0.25,0.55,0.5,0.25,0.5,0.5" style="fill:rgb(0,0,0);font-family:PalatinoLinotype-Roman;font-size:8.47px;stroke:none;">Camphor  0.23</text>
   <text y="524.327" x="305.788,307.9055,347.668,351.872,356.132,358.22,362.424,366.684,370.889,373.0065,419.009,423.209,427.469,431.729,435.928" svgx:width="0.25,0.55,0.5,0.5,0.25,0.5,0.5,0.5,0.25,0.55,0.5,0.5,0.5,0.5,0.25" style="fill:rgb(0,0,0);font-family:PalatinoLinotype-Roman;font-size:8.47px;stroke:none;">  26.445  1147 </text>
   <text y="536.807" x="130.229,132.51,135.809" svgx:width="0.28,0.39,0.44" style="fill:rgb(0,0,0);font-family:PalatinoLinotype-Italic;font-size:8.47px;stroke:none;">iso</text>
   <text y="536.807" x="139.589,142.408,150.414,154.465,159.388,162.143,167.066,171.684,176.607,180.748,182.8655,184.528,186.6455,290.968,295.228,297.268,301.528,305.788,307.9055,347.668,351.872,356.132,358.22,362.424,366.684,370.889,373.0065,419.009,423.209,427.469,431.729,435.928" svgx:width="0.33,0.95,0.48,0.58,0.33,0.58,0.55,0.58,0.48,0.25,0.55,0.25,0.55,0.5,0.25,0.5,0.5,0.25,0.55,0.5,0.5,0.25,0.5,0.5,0.5,0.25,0.55,0.5,0.5,0.5,0.5,0.25" style="fill:rgb(0,0,0);font-family:PalatinoLinotype-Roman;font-size:8.47px;stroke:none;">‐Menthone    0.10  27.050  1156 </text>
   <text y="549.227" x="130.229,134.429,137.248,144.286,148.365,152.727,156.987,162.089,166.168,169.95,174.03,178.95,182.969,185.0865,290.968,295.228,297.268,301.528,305.788,307.9055,347.668,351.872,356.132,358.22,362.424,366.684,370.889,373.0065,419.009,423.209,427.469,431.729,435.928" svgx:width="0.5,0.33,0.83,0.48,0.52,0.5,0.61,0.48,0.44,0.48,0.58,0.48,0.25,0.55,0.5,0.25,0.5,0.5,0.25,0.55,0.5,0.5,0.25,0.5,0.5,0.5,0.25,0.55,0.5,0.5,0.5,0.5,0.25" style="fill:rgb(0,0,0);font-family:PalatinoLinotype-Roman;font-size:8.47px;stroke:none;">1‐Hexadecene  0.08  48.270  1474 </text>
   <text y="561.348" x="130.229,135.869,140.095,143.381,148.483,152.803,157.964,162.149,164.309,169.471,174.209,179.323,182.682,187.421,191.202,195.377,198.676,203.837,208.575,213.69,217.471,219.629,221.7465,290.969,295.229,297.269,301.529,305.789" svgx:width="0.67,0.5,0.39,0.61,0.5,0.61,0.5,0.25,0.61,0.56,0.61,0.39,0.56,0.44,0.5,0.39,0.61,0.56,0.61,0.44,0.25,0.25,0.55,0.5,0.25,0.5,0.5,0.25" style="fill:rgb(0,0,0);font-family:PalatinoLinotype-Bold;font-size:8.47px;stroke:none;">Terpene hydrocarbons:  5.21 </text>
   <text y="573.167" x="130.229,137.189,141.449,146.181,150.863,155.121,160.223,164.48,167.323,171.581,176.729,178.829,181.644,185.874,189.164,194.265,198.585,203.746,208.45,211.33,216.431,220.213,222.389,224.50650000000002,288.869,293.129,297.329,299.429,303.689,307.889" svgx:width="0.83,0.5,0.56,0.56,0.5,0.61,0.5,0.33,0.5,0.61,0.25,0.33,0.5,0.39,0.61,0.5,0.61,0.56,0.33,0.61,0.44,0.25,0.25,0.55,0.5,0.5,0.25,0.5,0.5,0.25" style="fill:rgb(0,0,0);font-family:PalatinoLinotype-Bold;font-size:8.47px;stroke:none;">Oxygenated terpenoids:  85.78 </text>
   <text y="585.047" x="130.229,137.189,140.069,145.23,149.43,152.729,156.51,158.669,160.78650000000002,290.968,295.228,297.268,301.528,305.788" svgx:width="0.83,0.33,0.61,0.5,0.39,0.44,0.25,0.25,0.55,0.5,0.25,0.5,0.5,0.25" style="fill:rgb(0,0,0);font-family:PalatinoLinotype-Bold;font-size:8.47px;stroke:none;">Others:  6.70 </text>
   <text y="597.227" x="130.228,135.858,140.548,143.35,147.566,150.388,152.488,155.309,160.483,164.718,169.892,172.713,175.533,178.828,181.649,185.883,191.058,193.228,195.34550000000002,288.868,293.128,297.328,299.428,303.688,307.888" svgx:width="0.67,0.56,0.33,0.5,0.33,0.25,0.33,0.61,0.5,0.61,0.33,0.33,0.39,0.33,0.5,0.61,0.25,0.25,0.55,0.5,0.5,0.25,0.5,0.5,0.25" style="fill:rgb(0,0,0);font-family:PalatinoLinotype-Bold;font-size:8.47px;stroke:none;">Total identified:  97.67 </text>
  </g>
  <g begin="text">
   <text y="610.967" x="117.628,120.868,123.028,128.21,132.825,135.577,139.837,142.288,144.388,149.427,153.507,157.767,162.507,164.607,168.806,172.226,176.248,180.508,182.608,189.628,193.888,197.488,199.587,203.195,207.269,210.028,212.128,214.887,219.508,221.608,225.868,230.128,234.328,241.409,243.568,245.668,248.967,252.268,254.368,260.017,264.067,266.82,270.869,275.791,278.544,281.064,285.745,290.608,292.708,295.464,297.984,305.457,309.508,311.608,313.708,317.007,320.306,323.608,325.768,331.828,336.509,341.309,345.569,348.328,351.929,354.029,357.385,361.453,364.225,368.293,373.233,375.932,378.408,383.043,387.928,390.028,392.548,397.468,402.57,406.649,411.029,413.129,415.588,420.509,422.609,428.309,433.469,436.289,440.489,442.589,446.417,451.038,453.57,458.61,466.111,470.971,473.128" svgx:width="0.39,0.25,0.61,0.55,0.33,0.5,0.29,0.25,0.6,0.48,0.5,0.56,0.25,0.5,0.4,0.48,0.5,0.25,0.83,0.5,0.42,0.25,0.42,0.48,0.33,0.25,0.33,0.55,0.25,0.5,0.5,0.5,0.84,0.25,0.25,0.39,0.39,0.25,0.67,0.48,0.33,0.48,0.58,0.33,0.29,0.55,0.58,0.25,0.33,0.29,0.88,0.48,0.25,0.25,0.39,0.39,0.39,0.25,0.73,0.55,0.56,0.5,0.33,0.42,0.25,0.4,0.48,0.33,0.48,0.58,0.33,0.29,0.55,0.58,0.25,0.29,0.58,0.61,0.48,0.52,0.25,0.29,0.58,0.25,0.67,0.61,0.33,0.5,0.25,0.44,0.55,0.29,0.6,0.88,0.58,0.25,0.25" style="fill:rgb(0,0,0);font-family:PalatinoLinotype-Roman;font-size:8.47px;stroke:none;">* Total peak area was set to 100%; ** Retention time; *** Kovats retention index in ZB‐5 column. </text>
   <text y="728.807" x="409.888" svgx:width="0.25" style="fill:rgb(0,0,0);font-family:PalatinoLinotype-Roman;font-size:11.29px;stroke:none;"> </text>
  </g>
  <rect style="stroke:blue;stroke-width:0.3;" x="182.248" y="586.177" height="100.74" width="227.64" title="4"/>
  <text y="586.177" class="image" id="image.4.1" width="227" height="100" x="182.248">image.4.1.182_410.586_687</text>
  <g begin="text">
   <text y="741.902" x="138.787,144.265,148.247,153.725,158.208,166.179,170.66400000000002,172.904,177.387" svgx:width="0.61,0.44,0.61,0.5,0.89,0.5,0.55,0.5,0.25" style="fill:rgb(0,0,0);font-family:URWPalladioL-Bold;font-size:8.97px;stroke:none;">Scheme 1.</text>
   <text y="741.902" x="182.408,187.115,190.038,193.508,198.915,202.896,205.819,211.226,214.606,218.901,222.66840000000002,224.945,229.84,232.80010000000001,235.068,242.985,247.468,250.077,255.2796,257.538,261.519,266.414,274.332,279.72,284.616,289.834,294.129,299.348,302.271,306.0384,308.314,313.21,316.1701,318.437,321.36,326.579,330.88460000000003,333.115,337.41,341.212,345.014,349.309,354.527,357.45,360.059,364.542,367.14329999999995,369.393,374.289,376.898" svgx:width="0.52,0.33,0.4,0.6,0.44,0.33,0.6,0.4,0.48,0.42,0.55,0.55,0.33,0.55,0.88,0.5,0.29,0.58,0.55,0.44,0.55,0.88,0.6,0.55,0.58,0.48,0.58,0.33,0.42,0.55,0.55,0.33,0.55,0.33,0.58,0.48,0.55,0.48,0.42,0.42,0.48,0.58,0.33,0.29,0.5,0.29,0.55,0.55,0.29,0.29" style="fill:rgb(0,0,0);font-family:URWPalladioL-Roma;font-size:8.97px;stroke:none;">Structures of main components of the essential oil</text>
   <text y="741.902" x="381.746,386.731,390.712,394.2,399.186,401.678,405.328,410.313,412.806,417.791,424.7876,427.008,431.492,436.477,438.97,443.453,447.434,450.76,454.248" svgx:width="0.56,0.44,0.39,0.56,0.28,0.41,0.56,0.28,0.56,0.78,0.55,0.5,0.56,0.28,0.5,0.44,0.39,0.39,0.25" style="fill:rgb(0,0,0);font-family:URWPalladioL-Ital;font-size:8.97px;stroke:none;">Foeniculum vulgare.</text>
  </g>
 </g>
</svg>
