<?xml version="1.0" encoding="UTF-8"?>
<svg height="741.3" width="548.61" xmlns="http://www.w3.org/2000/svg">
 <g>
  <text svgx:width="0.67,0.54,0.45,0.55,0.53,0.45,0.32,0.45,0.55,0.52,0.55" y="647.3" x="56.7,63.3,68.8,73.2,77.8,83.2,87.8,91.1,95.5,100.1,105.3" style="fill:rgb(19,20,19);font-family:KjvnvrAdvTT86d47313;font-size:9.8px;stroke:none;" xmlns:svgx="http://www.xml-cml.org/schema/svgx">The data on</text>
  <text svgx:width="0.73,0.22" y="647.3" x="115.3,122.6" style="fill:rgb(19,20,19);font-family:TxxhfdAdvTT8861b38f.I;font-size:9.8px;stroke:none;" xmlns:svgx="http://www.xml-cml.org/schema/svgx">O.</text>
  <text svgx:width="0.49" y="647.3" x="129.3" style="fill:rgb(19,20,19);font-family:KjvnvrAdvTT86d47313;font-size:9.8px;stroke:none;" xmlns:svgx="http://www.xml-cml.org/schema/svgx">x</text>
  <text svgx:width="0.41,0.28,0.32,0.38,0.28,0.47,0.54,0.47,0.38,0.55,0.81" y="647.3" x="138.7,142.8,145.8,149.1,153.1,156.1,160.9,166.4,171.1,175.0,180.6" style="fill:rgb(19,20,19);font-family:TxxhfdAdvTT8861b38f.I;font-size:9.8px;stroke:none;" xmlns:svgx="http://www.xml-cml.org/schema/svgx">citriodorum</text>
  <text svgx:width="0.45,0.38,0.45,0.55,0.38,0.52,0.83,0.45,0.7,0.54,0.45,0.32,0.55,0.45,0.52,0.55,0.38,0.26,0.38,0.32,0.36" y="647.3" x="193.1,197.7,201.6,206.0,210.6,214.5,219.8,228.2,232.8,239.8,245.3,249.9,253.0,257.6,262.2,267.5,273.1,277.1,279.8,283.8,286.9" style="fill:rgb(19,20,19);font-family:KjvnvrAdvTT86d47313;font-size:9.8px;stroke:none;" xmlns:svgx="http://www.xml-cml.org/schema/svgx">are somewhat consist-</text>
  <text svgx:width="0.45,0.55,0.32,0.55,0.7,0.26,0.32,0.54,0.55,0.32,0.54,0.45,0.55,0.38,0.26,0.83,0.26,0.26,0.45,0.38,0.55,0.38,0.45,0.38,0.54,0.26,0.32,0.38,0.55,0.53,0.54,0.52,0.26,0.26,0.38,0.54,0.45,0.53,0.55,0.52,0.45,0.55,0.68,0.45,0.38,0.52,0.46,0.26" y="659.3" x="56.7,61.3,66.9,70.0,76.5,83.5,86.3,89.7,94.9,101.4,104.8,110.3,114.7,121.1,125.1,127.8,136.2,139.0,141.7,146.3,150.0,156.4,160.3,164.9,168.8,174.3,177.1,180.5,184.3,190.8,196.2,201.7,207.0,209.7,212.5,216.4,221.9,226.5,231.7,238.2,243.5,247.9,254.3,261.1,265.7,269.6,274.9,279.6" style="fill:rgb(19,20,19);font-family:KjvnvrAdvTT86d47313;font-size:9.8px;stroke:none;" xmlns:svgx="http://www.xml-cml.org/schema/svgx">ent with the similar results published by Carovi</text>
  <text svgx:width="0.45" y="659.3" x="282.4" style="fill:rgb(19,20,19);font-family:BtspynAdvTT86d47313;font-size:9.8px;stroke:none;" xmlns:svgx="http://www.xml-cml.org/schema/svgx">ć</text>
  <text svgx:width="0.36" y="659.3" x="287.0" style="fill:rgb(19,20,19);font-family:KjvnvrAdvTT86d47313;font-size:9.8px;stroke:none;" xmlns:svgx="http://www.xml-cml.org/schema/svgx">-</text>
  <text svgx:width="0.51,0.32,0.45,0.55,0.5,0.52,0.55,0.45,0.32,0.55,0.45,0.26,0.22,0.55,0.32,0.5,0.5,0.32,0.55,0.52,0.55,0.55,0.45,0.38,0.38,0.45,0.55,0.32,0.26,0.45,0.26,0.55,0.52,0.26,0.26,0.55,0.53,0.26,0.38,0.32,0.26,0.26,0.26,0.45,0.53,0.55,0.29,0.38,0.52,0.83,0.55,0.32,0.54,0.45" y="671.3" x="56.7,61.9,65.2,69.8,75.4,80.5,85.6,90.8,95.4,98.5,103.7,108.3,111.1,113.2,118.4,121.7,126.8,131.9,135.1,140.3,145.6,151.0,156.2,160.7,164.7,168.7,173.3,178.9,182.3,185.0,189.6,192.1,197.3,202.6,205.3,207.9,213.0,218.4,221.2,225.2,228.5,231.3,234.0,236.8,241.4,246.5,251.7,254.8,258.7,264.0,272.1,277.3,280.6,286.1" style="fill:rgb(19,20,19);font-family:KjvnvrAdvTT86d47313;font-size:9.8px;stroke:none;" xmlns:svgx="http://www.xml-cml.org/schema/svgx">Stanko et al. [18] on essential oil distilled from the</text>
  <text svgx:width="0.53,0.26,0.45,0.55,0.32,0.55,0.52,0.29,0.55,0.32,0.54,0.45,0.55,0.38,0.45,0.83,0.45,0.55,0.38,0.53,0.45,0.45,0.26,0.45,0.38,0.22,0.55,0.45,0.49,0.45,0.45,0.53,0.32,0.55,0.29,0.52,0.38,0.55,0.32,0.54,0.45,0.55,0.29,0.45,0.45,0.32,0.55,0.32,0.54,0.45,0.32" y="683.3" x="56.7,62.1,64.9,69.5,75.1,78.2,84.1,89.4,92.2,98.1,101.4,106.9,111.4,117.1,121.1,125.7,134.0,138.5,144.3,148.3,153.7,158.4,163.0,165.8,170.4,174.6,176.7,182.5,187.1,192.0,196.6,201.2,206.6,209.8,215.6,218.7,224.0,227.7,233.5,236.9,242.4,246.8,252.7,255.7,260.3,264.9,268.0,274.0,277.3,282.8,287.4" style="fill:rgb(19,20,19);font-family:KjvnvrAdvTT86d47313;font-size:9.8px;stroke:none;" xmlns:svgx="http://www.xml-cml.org/schema/svgx">plant of the same species, except for the fact that</text>
  <text svgx:width="0.32,0.54,0.45,0.38,0.45,0.55,0.7,0.45,0.38,0.45,0.55,0.83,0.52,0.38,0.45,0.55,0.32,0.54,0.45,0.55,0.55,0.5,0.5,0.55,0.45,0.52,0.55,0.38,0.32,0.26,0.32,0.54,0.45,0.55,0.32,0.38,0.55,0.52,0.29" y="695.3" x="56.7,60.0,65.6,70.1,74.0,78.4,83.0,90.1,94.7,98.5,103.0,107.6,115.9,121.2,125.1,129.5,134.1,137.4,143.0,147.5,152.9,157.6,162.7,167.6,172.2,176.8,182.1,187.7,191.7,195.1,197.8,201.2,206.7,211.2,216.8,220.3,224.0,228.7,234.0" style="fill:rgb(19,20,19);font-family:KjvnvrAdvTT86d47313;font-size:9.8px;stroke:none;" xmlns:svgx="http://www.xml-cml.org/schema/svgx">there were more than 45 constituents of</text>
  <text svgx:width="0.73,0.22" y="695.3" x="241.4,248.8" style="fill:rgb(19,20,19);font-family:TxxhfdAdvTT8861b38f.I;font-size:9.8px;stroke:none;" xmlns:svgx="http://www.xml-cml.org/schema/svgx">O.</text>
  <text svgx:width="0.49" y="695.3" x="255.6" style="fill:rgb(19,20,19);font-family:KjvnvrAdvTT86d47313;font-size:9.8px;stroke:none;" xmlns:svgx="http://www.xml-cml.org/schema/svgx">x</text>
  <text svgx:width="0.41,0.28,0.32,0.38,0.28,0.47,0.34" y="695.3" x="265.0,269.1,272.1,275.5,279.4,282.4,287.1" style="fill:rgb(19,20,19);font-family:TxxhfdAdvTT8861b38f.I;font-size:9.8px;stroke:none;" xmlns:svgx="http://www.xml-cml.org/schema/svgx">citrio-</text>
  <text svgx:width="0.54,0.47,0.38,0.55,0.81" y="707.3" x="56.7,62.2,67.0,70.8,76.5" style="fill:rgb(19,20,19);font-family:TxxhfdAdvTT8861b38f.I;font-size:9.8px;stroke:none;" xmlns:svgx="http://www.xml-cml.org/schema/svgx">dorum</text>
  <text svgx:width="0.45,0.38,0.38,0.45,0.55,0.32,0.26,0.45,0.26,0.55,0.52,0.26,0.26,0.55,0.26,0.53,0.45,0.55,0.32,0.26,0.29,0.26,0.45,0.53,0.55,0.26,0.55,0.55,0.32,0.54,0.45,0.55,0.53,0.38,0.45,0.38,0.45,0.55,0.32,0.55,0.38,0.32,0.54,0.53,0.45,0.22,0.55,0.45,0.38" y="707.3" x="88.6,93.2,97.2,101.2,105.8,111.4,114.7,117.5,122.0,124.6,128.8,134.1,136.8,139.4,143.5,146.3,151.7,156.3,161.9,165.3,168.0,171.1,173.8,178.4,183.6,187.8,190.5,195.9,200.1,203.5,209.0,213.4,217.6,223.0,226.9,231.4,235.4,239.9,245.5,248.7,253.0,256.9,260.3,265.8,271.2,275.8,278.0,282.1,286.8" style="fill:rgb(19,20,19);font-family:KjvnvrAdvTT86d47313;font-size:9.8px;stroke:none;" xmlns:svgx="http://www.xml-cml.org/schema/svgx">essential oil identified in the present study, as</text>
  <text svgx:width="0.52,0.53,0.53,0.52,0.38,0.45,0.53,0.55,0.32,0.52,0.55,0.5,0.5,0.55,0.45,0.52,0.83,0.53,0.52,0.55,0.45,0.55,0.32,0.38,0.55,0.26,0.53,0.45,0.55,0.32,0.26,0.29,0.26,0.45,0.53,0.55,0.52,0.45,0.55,0.68,0.45,0.38,0.52,0.46,0.26" y="719.3" x="56.7,62.0,67.4,72.8,78.1,82.1,86.7,91.9,98.9,102.3,107.4,114.4,119.5,124.4,131.5,136.1,141.4,149.7,155.1,160.4,166.1,170.6,176.2,179.7,183.4,190.5,193.2,198.7,203.2,208.8,212.2,214.9,218.0,220.7,225.3,230.5,237.6,242.9,247.3,254.3,261.1,265.7,269.6,274.9,279.6" style="fill:rgb(19,20,19);font-family:KjvnvrAdvTT86d47313;font-size:9.8px;stroke:none;" xmlns:svgx="http://www.xml-cml.org/schema/svgx">opposed to 20 components identified by Carovi</text>
  <text svgx:width="0.45" y="719.3" x="282.4" style="fill:rgb(19,20,19);font-family:BtspynAdvTT86d47313;font-size:9.8px;stroke:none;" xmlns:svgx="http://www.xml-cml.org/schema/svgx">ć</text>
  <text svgx:width="0.36" y="719.3" x="287.0" style="fill:rgb(19,20,19);font-family:KjvnvrAdvTT86d47313;font-size:9.8px;stroke:none;" xmlns:svgx="http://www.xml-cml.org/schema/svgx">-</text>
  <text svgx:width="0.51,0.32,0.45,0.55,0.5,0.52,0.55,0.45,0.32,0.55,0.45,0.26,0.22,0.55,0.32,0.5,0.5,0.32,0.22" y="731.3" x="56.7,61.9,65.2,69.8,75.4,80.5,85.6,89.7,94.3,97.4,101.6,106.2,108.9,111.1,115.2,118.6,123.7,128.8,132.1" style="fill:rgb(19,20,19);font-family:KjvnvrAdvTT86d47313;font-size:9.8px;stroke:none;" xmlns:svgx="http://www.xml-cml.org/schema/svgx">Stanko et al. [18].</text>
  <text svgx:width="0.63,0.56,0.34,0.25,0.84,0.25,0.45,0.35,0.56,0.58,0.25,0.5,0.25,0.55,0.5,0.45,0.34,0.25,0.5,0.25,0.34,0.5,0.55,0.56,0.31,0.55,0.51,0.42,0.42,0.51,0.56,0.34,0.25,0.5,0.25,0.55,0.56,0.25,0.25,0.42" y="647.3" x="304.7,310.6,315.7,318.9,321.2,328.9,331.2,335.5,338.7,343.9,349.2,351.5,356.1,358.4,361.3,365.9,370.0,373.1,375.4,380.0,382.3,385.5,390.1,392.9,398.1,400.9,403.7,408.4,412.2,416.1,420.7,425.9,429.1,431.4,436.0,438.3,441.1,446.2,448.5,450.8" style="fill:rgb(19,20,19);font-family:DhmscdAdvTT99c4c969;font-size:9.2px;stroke:none;" xmlns:svgx="http://www.xml-cml.org/schema/svgx">Antimicrobial activity of essential oils</text>
  <text svgx:width="0.67,0.54,0.45,0.55,0.53,0.38,0.45,0.38,0.45,0.55,0.32,0.55,0.26,0.55,0.46,0.45,0.38,0.32,0.26,0.48,0.45,0.32,0.26,0.52,0.55,0.55,0.38,0.45,0.46,0.45,0.45,0.26,0.45,0.53,0.55,0.32,0.54,0.45,0.32,0.55,0.74,0.38,0.45,0.83,0.36,0.53,0.52,0.38,0.26,0.32,0.26,0.46,0.45" y="659.3" x="304.7,311.3,316.6,321.0,326.4,331.6,335.3,339.7,343.5,347.9,353.3,356.4,362.0,364.6,370.0,374.6,378.9,382.7,385.9,388.4,393.1,397.5,400.7,403.2,408.3,413.7,419.4,423.0,427.6,432.1,436.4,440.8,443.4,447.8,452.9,458.6,461.7,467.0,471.4,474.6,480.2,487.4,491.1,495.5,503.6,507.2,512.5,517.6,521.4,523.9,527.1,529.6,534.1" style="fill:rgb(19,20,19);font-family:KjvnvrAdvTT86d47313;font-size:9.8px;stroke:none;" xmlns:svgx="http://www.xml-cml.org/schema/svgx">The present investigation revealed that Gram-positive</text>
  <text svgx:width="0.52,0.45,0.45,0.32,0.45,0.38,0.26,0.45,0.55,0.32,0.45,0.38,0.32,0.45,0.53,0.55,0.7,0.45,0.38,0.45,0.55,0.83,0.52,0.38,0.45,0.55,0.38,0.45,0.55,0.38,0.26,0.32,0.26,0.46,0.45,0.55,0.32,0.52,0.55,0.45,0.26,0.26,0.55,0.32,0.54,0.38,0.45,0.45,0.55,0.45,0.38,0.38,0.45,0.55,0.32,0.26,0.45,0.26" y="671.3" x="304.7,309.8,314.2,318.6,321.7,326.1,329.9,332.4,336.9,340.5,343.7,348.0,351.8,355.0,359.3,364.5,368.2,375.1,379.4,383.2,387.6,391.2,399.4,404.5,408.2,412.6,416.2,420.0,424.4,429.8,433.6,436.1,439.3,441.9,446.4,450.8,454.4,457.6,462.7,466.4,470.7,473.3,475.8,479.5,482.7,488.0,491.6,496.0,500.4,504.1,508.5,512.3,516.0,520.4,525.8,529.0,531.5,536.0" style="fill:rgb(19,20,19);font-family:KjvnvrAdvTT86d47313;font-size:9.8px;stroke:none;" xmlns:svgx="http://www.xml-cml.org/schema/svgx">bacteria tested were more sensitive to all three essential</text>
  <text svgx:width="0.52,0.26,0.26,0.38,0.55,0.32,0.54,0.45,0.55,0.55,0.74,0.38,0.45,0.83,0.36,0.55,0.45,0.48,0.45,0.32,0.26,0.46,0.45,0.55,0.52,0.45,0.45,0.32,0.45,0.38,0.26,0.45,0.55,0.32,0.52,0.26,0.48,0.22,0.55,0.5,0.32,0.22,0.55,0.51,0.54,0.45,0.54,0.55,0.32,0.45,0.55,0.53,0.45,0.55,0.45,0.45" y="683.3" x="304.7,309.8,312.4,314.9,318.6,322.2,325.3,330.6,335.0,340.4,343.9,351.1,354.8,359.2,367.4,370.9,376.5,380.8,385.5,389.9,393.1,395.6,400.1,404.5,408.0,413.1,417.4,421.8,425.0,429.4,433.1,435.7,440.1,443.5,446.7,451.8,454.3,459.0,461.2,464.7,469.6,472.7,474.9,478.3,483.3,488.6,493.0,498.3,501.7,504.9,509.3,514.7,519.9,524.4,529.8,534.2" style="fill:rgb(19,20,19);font-family:KjvnvrAdvTT86d47313;font-size:9.8px;stroke:none;" xmlns:svgx="http://www.xml-cml.org/schema/svgx">oils than Gram-negative bacteria (Fig. 1). Such tendency</text>
  <text svgx:width="0.26,0.38,0.55,0.45,0.26,0.38,0.52,0.55,0.52,0.52,0.38,0.45,0.38,0.46,0.45,0.53,0.55,0.52,0.45,0.55,0.52,0.32,0.54,0.45,0.38,0.55,0.45,0.54,0.32,0.54,0.52,0.38,0.38,0.55,0.32,0.5,0.5,0.32,0.22,0.55,0.67,0.54,0.45,0.55,0.45,0.38,0.38,0.45,0.55,0.32,0.26,0.45,0.26,0.55,0.52,0.26,0.26" y="695.3" x="304.7,307.3,311.0,314.9,319.2,321.8,325.6,330.7,334.5,339.6,344.7,348.5,352.8,356.9,361.4,365.7,370.9,374.7,379.8,384.2,388.1,393.1,396.3,401.6,406.0,409.7,413.5,417.9,423.2,426.3,431.6,436.7,440.4,444.1,448.1,451.2,456.1,461.0,464.2,466.4,470.1,476.6,481.9,486.4,490.1,494.5,498.2,502.0,506.4,511.8,514.9,517.5,522.0,524.5,528.3,533.4,535.9" style="fill:rgb(19,20,19);font-family:KjvnvrAdvTT86d47313;font-size:9.8px;stroke:none;" xmlns:svgx="http://www.xml-cml.org/schema/svgx">is also observed by other authors [19]. The essential oil</text>
  <text svgx:width="0.52,0.29" y="707.3" x="304.7,309.8" style="fill:rgb(19,20,19);font-family:KjvnvrAdvTT86d47313;font-size:9.8px;stroke:none;" xmlns:svgx="http://www.xml-cml.org/schema/svgx">of</text>
  <text svgx:width="0.73,0.22" y="707.3" x="317.0,324.2" style="fill:rgb(19,20,19);font-family:TxxhfdAdvTT8861b38f.I;font-size:9.8px;stroke:none;" xmlns:svgx="http://www.xml-cml.org/schema/svgx">O.</text>
  <text svgx:width="0.49" y="707.3" x="330.7" style="fill:rgb(19,20,19);font-family:KjvnvrAdvTT86d47313;font-size:9.8px;stroke:none;" xmlns:svgx="http://www.xml-cml.org/schema/svgx">x</text>
  <text svgx:width="0.41,0.28,0.32,0.38,0.28,0.47,0.54,0.47,0.38,0.55,0.81" y="707.3" x="339.9,343.8,346.6,349.8,353.5,356.3,360.9,366.2,370.8,374.4,379.9" style="fill:rgb(19,20,19);font-family:TxxhfdAdvTT8861b38f.I;font-size:9.8px;stroke:none;" xmlns:svgx="http://www.xml-cml.org/schema/svgx">citriodorum</text>
  <text svgx:width="0.7,0.45,0.38,0.55,0.53,0.54,0.26,0.32,0.45,0.55,0.45,0.45,0.32,0.26,0.46,0.45,0.55,0.45,0.48,0.45,0.26,0.55,0.38,0.32" y="707.3" x="392.2,399.1,403.6,407.3,411.7,417.0,422.3,424.8,428.0,432.4,436.7,441.1,445.5,448.7,451.2,455.8,460.2,464.5,468.9,473.6,478.0,480.5,485.9,489.7" style="fill:rgb(19,20,19);font-family:KjvnvrAdvTT86d47313;font-size:9.8px;stroke:none;" xmlns:svgx="http://www.xml-cml.org/schema/svgx">was quite active against</text>
  <text svgx:width="0.6,0.22,0.55,0.35,0.55,0.51,0.32,0.28,0.28,0.28,0.35" y="707.3" x="497.3,503.2,505.4,509.7,513.2,518.6,523.7,526.8,529.6,532.3,535.1" style="fill:rgb(19,20,19);font-family:TxxhfdAdvTT8861b38f.I;font-size:9.8px;stroke:none;" xmlns:svgx="http://www.xml-cml.org/schema/svgx">B. subtilis</text>
  <text svgx:width="0.45,0.55,0.53" y="719.3" x="304.7,309.1,314.5" style="fill:rgb(19,20,19);font-family:KjvnvrAdvTT86d47313;font-size:9.8px;stroke:none;" xmlns:svgx="http://www.xml-cml.org/schema/svgx">and</text>
  <text svgx:width="0.49,0.32,0.22,0.55,0.53,0.55,0.38,0.42,0.55,0.35,0.22,0.55,0.68,0.28,0.32,0.53,0.55,0.32,0.53,0.42" y="719.3" x="323.0,327.8,331.0,333.1,336.5,341.7,347.1,350.8,354.8,360.2,363.8,366.0,369.3,375.9,378.7,381.8,387.0,390.4,393.5,398.7" style="fill:rgb(19,20,19);font-family:TxxhfdAdvTT8861b38f.I;font-size:9.8px;stroke:none;" xmlns:svgx="http://www.xml-cml.org/schema/svgx">St. aureus, with the</text>
  <text svgx:width="0.93,0.33,0.68,0.55,0.52,0.29,0.55,0.5,0.22,0.5,0.5,0.5" y="719.3" x="406.1,415.2,418.5,425.2,428.5,433.6,436.4,439.7,444.6,446.7,451.6,456.5" style="fill:rgb(19,20,19);font-family:KjvnvrAdvTT86d47313;font-size:9.8px;stroke:none;" xmlns:svgx="http://www.xml-cml.org/schema/svgx">MIC of 3.125</text>
  <text svgx:width="0.54" y="719.3" x="464.8" style="fill:rgb(19,20,19);font-family:WtmhvnAdvTT86d47313;font-size:9.8px;stroke:none;" xmlns:svgx="http://www.xml-cml.org/schema/svgx">μ</text>
  <text svgx:width="0.56,0.36,0.83,0.56,0.22,0.55,0.67,0.54,0.45,0.55,0.38,0.45,0.83,0.45" y="719.3" x="470.1,475.6,479.2,487.3,492.9,495.1,498.4,504.8,510.1,514.5,517.8,521.6,526.0,534.1" style="fill:rgb(19,20,19);font-family:KjvnvrAdvTT86d47313;font-size:9.8px;stroke:none;" xmlns:svgx="http://www.xml-cml.org/schema/svgx">L/mL. The same</text>
  <text svgx:width="0.93,0.33,0.68,0.55,0.7,0.45,0.38,0.55,0.38,0.45,0.45,0.52,0.38,0.53,0.45,0.53,0.55,0.29,0.52,0.38,0.55,0.32,0.54,0.45,0.55,0.45,0.38,0.38,0.45,0.55,0.32,0.26,0.45,0.26,0.55,0.52,0.26,0.26,0.55,0.52,0.29" y="731.3" x="304.7,313.8,317.1,323.7,327.9,334.7,339.2,343.0,347.2,350.9,355.4,359.8,364.9,368.6,373.8,378.1,383.3,387.6,390.5,395.6,399.3,403.4,406.6,411.9,416.3,420.5,424.9,428.6,432.4,436.8,442.2,445.4,447.9,452.3,454.8,459.1,464.2,466.7,469.3,473.5,478.6" style="fill:rgb(19,20,19);font-family:KjvnvrAdvTT86d47313;font-size:9.8px;stroke:none;" xmlns:svgx="http://www.xml-cml.org/schema/svgx">MIC was recorded for the essential oil of</text>
  <text svgx:width="0.73,0.22,0.55,0.51,0.53,0.35,0.28,0.28,0.28,0.41,0.55,0.81" y="731.3" x="485.6,492.8,494.9,499.1,504.1,509.4,512.9,515.7,518.4,521.2,525.1,530.6" style="fill:rgb(19,20,19);font-family:TxxhfdAdvTT8861b38f.I;font-size:9.8px;stroke:none;" xmlns:svgx="http://www.xml-cml.org/schema/svgx">O. basilicum</text>
  <text svgx:width="0.54,0.52,0.59,0.27,0.52,0.55,0.55" y="95.1" x="56.7,61.6,66.2,71.6,74.0,78.7,81.4" style="fill:rgb(19,20,19);font-family:SxjphvAdvTTaf7f9f4f.B;font-size:9.0px;stroke:none;" xmlns:svgx="http://www.xml-cml.org/schema/svgx">Table 1</text>
  <text svgx:width="0.56,0.53,0.48,0.81,0.21,0.44,0.45,0.21,0.55,0.44,0.53,0.81,0.54,0.53,0.36,0.21,0.3,0.21,0.53,0.53,0.55,0.53,0.26,0.55,0.48,0.36,0.36,0.48,0.53,0.3,0.21,0.45,0.21,0.55,0.53,0.21,0.21,0.36,0.55,0.53,0.26" y="95.1" x="89.1,94.1,98.9,103.2,110.5,112.4,116.3,120.4,122.2,124.9,128.9,133.7,141.0,145.8,150.6,153.9,155.8,158.5,160.4,165.1,169.9,172.6,177.3,179.7,182.4,186.7,190.0,193.2,197.6,202.3,205.0,206.9,210.9,212.8,215.5,220.3,222.2,224.1,227.3,230.1,234.8" style="fill:rgb(19,20,19);font-family:DxkbwjAdvTTb5929f4c;font-size:9.0px;stroke:none;" xmlns:svgx="http://www.xml-cml.org/schema/svgx">Chemical composition of essential oils of</text>
  <text svgx:width="0.63,0.41,0.2,0.79,0.5,0.79,0.55,0.5,0.5,0.34,0.2,0.2,0.2,0.41,0.5,0.79" y="95.1" x="239.9,245.6,249.2,251.0,258.1,262.6,269.7,272.5,277.0,281.5,284.6,286.3,288.1,289.9,293.5,298.0" style="fill:rgb(19,20,19);font-family:DwtjrcAdvTT1b53b5fb.I;font-size:9.0px;stroke:none;" xmlns:svgx="http://www.xml-cml.org/schema/svgx">Ocimum basilicum</text>
  <text svgx:width="0.45,0.45,0.29" y="95.1" x="307.8,311.9,315.9" style="fill:rgb(19,20,19);font-family:DxkbwjAdvTTb5929f4c;font-size:9.0px;stroke:none;" xmlns:svgx="http://www.xml-cml.org/schema/svgx">var</text>
  <text svgx:width="0.18,0.5,0.5,0.28,0.5,0.5,0.28,0.42,0.5,0.79" y="95.1" x="318.5,320.1,324.6,329.1,331.6,336.1,340.6,343.2,346.9,351.4" style="fill:rgb(19,20,19);font-family:DwtjrcAdvTT1b53b5fb.I;font-size:9.0px;stroke:none;" xmlns:svgx="http://www.xml-cml.org/schema/svgx">.purpureum</text>
  <text svgx:width="0.17" y="95.1" x="358.5" style="fill:rgb(19,20,19);font-family:DxkbwjAdvTTb5929f4c;font-size:9.0px;stroke:none;" xmlns:svgx="http://www.xml-cml.org/schema/svgx">,</text>
  <text svgx:width="0.63,0.41,0.2,0.5,0.79,0.55,0.5,0.5,0.34,0.2,0.2,0.2,0.41,0.5,0.79" y="95.1" x="362.7,368.4,372.1,373.9,378.4,385.5,388.2,392.7,397.2,400.3,402.0,403.8,405.6,409.2,413.7" style="fill:rgb(19,20,19);font-family:DwtjrcAdvTT1b53b5fb.I;font-size:9.0px;stroke:none;" xmlns:svgx="http://www.xml-cml.org/schema/svgx">Ocium basilicum</text>
  <text svgx:width="0.45,0.45,0.29" y="95.1" x="423.6,427.6,431.6" style="fill:rgb(19,20,19);font-family:DxkbwjAdvTTb5929f4c;font-size:9.0px;stroke:none;" xmlns:svgx="http://www.xml-cml.org/schema/svgx">var</text>
  <text svgx:width="0.18,0.55,0.29,0.51,0.4,0.28,0.34,0.2,0.25,0.2,0.5,0.28,0.5" y="95.1" x="434.2,435.8,438.5,441.1,445.7,449.3,451.8,454.9,456.7,458.9,460.7,465.2,467.7" style="fill:rgb(19,20,19);font-family:DwtjrcAdvTT1b53b5fb.I;font-size:9.0px;stroke:none;" xmlns:svgx="http://www.xml-cml.org/schema/svgx">. thyrsiflora</text>
  <text svgx:width="0.17" y="95.1" x="472.1" style="fill:rgb(19,20,19);font-family:DxkbwjAdvTTb5929f4c;font-size:9.0px;stroke:none;" xmlns:svgx="http://www.xml-cml.org/schema/svgx">,</text>
  <text svgx:width="0.63,0.41,0.2,0.79,0.5,0.79" y="95.1" x="476.3,482.0,485.7,487.5,494.6,499.1" style="fill:rgb(19,20,19);font-family:DwtjrcAdvTT1b53b5fb.I;font-size:9.0px;stroke:none;" xmlns:svgx="http://www.xml-cml.org/schema/svgx">Ocimum</text>
  <text svgx:width="0.41,0.2,0.29,0.28,0.2,0.5,0.5,0.5,0.28,0.5,0.79" y="106.1" x="56.7,60.3,62.1,64.7,67.3,69.0,73.5,78.0,82.5,85.1,89.6" style="fill:rgb(19,20,19);font-family:DwtjrcAdvTT1b53b5fb.I;font-size:9.0px;stroke:none;" xmlns:svgx="http://www.xml-cml.org/schema/svgx">citriodorum</text>
  <text svgx:width="0.56,0.53,0.48,0.81,0.21,0.44,0.45,0.21,0.55,0.44,0.53,0.81,0.54,0.53,0.53,0.48,0.53,0.3,0.36,0.55,0.5,0.48,0.21,0.45,0.3,0.21,0.45,0.48,0.55,0.5,0.48,0.3,0.48,0.53,0.3,0.21,0.53,0.53,0.55,0.21,0.53,0.54,0.48,0.43" y="119.2" x="56.7,61.2,65.4,69.3,75.8,77.4,80.9,84.5,86.2,88.5,92.0,96.2,102.7,107.1,111.3,115.6,119.4,123.5,126.0,128.8,148.0,152.0,155.8,157.5,161.0,163.5,165.1,168.7,172.5,174.9,178.9,182.7,185.1,189.0,193.2,195.6,197.3,201.6,205.8,208.1,209.8,214.0,218.4,222.2" style="fill:rgb(0,0,0);font-family:DxkbwjAdvTTb5929f4c;font-size:8.0px;stroke:none;" xmlns:svgx="http://www.xml-cml.org/schema/svgx">Chemical components Relative Retention Index</text>
  <text svgx:width="0.45" y="115.7" x="225.5" style="fill:rgb(0,0,0);font-family:DxkbwjAdvTTb5929f4c;font-size:5.3px;stroke:none;" xmlns:svgx="http://www.xml-cml.org/schema/svgx">a</text>
  <text svgx:width="0.63,0.18,0.55,0.5,0.5,0.34,0.2,0.2,0.2,0.41,0.5,0.79" y="119.2" x="247.4,252.4,253.9,256.2,260.2,264.2,266.9,268.5,270.1,271.7,274.9,278.9" style="fill:rgb(0,0,0);font-family:DwtjrcAdvTT1b53b5fb.I;font-size:8.0px;stroke:none;" xmlns:svgx="http://www.xml-cml.org/schema/svgx">O. basilicum</text>
  <text svgx:width="0.45,0.45,0.29,0.17" y="119.2" x="287.6,291.2,294.8,297.1" style="fill:rgb(0,0,0);font-family:DxkbwjAdvTTb5929f4c;font-size:8.0px;stroke:none;" xmlns:svgx="http://www.xml-cml.org/schema/svgx">var.</text>
  <text svgx:width="0.5,0.5,0.28,0.5,0.5,0.28,0.42,0.5,0.79,0.18" y="119.2" x="300.8,304.8,308.8,311.1,315.1,319.1,321.3,324.6,328.6,335.0" style="fill:rgb(0,0,0);font-family:DwtjrcAdvTT1b53b5fb.I;font-size:8.0px;stroke:none;" xmlns:svgx="http://www.xml-cml.org/schema/svgx">purpureum,</text>
  <text svgx:width="0.73" y="119.2" x="338.7" style="fill:rgb(0,0,0);font-family:DxkbwjAdvTTb5929f4c;font-size:8.0px;stroke:none;" xmlns:svgx="http://www.xml-cml.org/schema/svgx">%</text>
  <text svgx:width="0.54" y="115.7" x="344.5" style="fill:rgb(0,0,0);font-family:DxkbwjAdvTTb5929f4c;font-size:5.3px;stroke:none;" xmlns:svgx="http://www.xml-cml.org/schema/svgx">b</text>
  <text svgx:width="0.63,0.18,0.55,0.5,0.5,0.34,0.2,0.2,0.2,0.41,0.5,0.79" y="119.2" x="366.9,371.9,373.4,375.8,379.8,383.8,386.5,388.1,389.7,391.2,394.5,398.5" style="fill:rgb(0,0,0);font-family:DwtjrcAdvTT1b53b5fb.I;font-size:8.0px;stroke:none;" xmlns:svgx="http://www.xml-cml.org/schema/svgx">O. basilicum</text>
  <text svgx:width="0.45,0.45,0.29,0.17" y="119.2" x="407.1,410.7,414.3,416.6" style="fill:rgb(0,0,0);font-family:DxkbwjAdvTTb5929f4c;font-size:8.0px;stroke:none;" xmlns:svgx="http://www.xml-cml.org/schema/svgx">var.</text>
  <text svgx:width="0.29,0.51,0.4,0.28,0.34,0.2,0.25,0.2,0.5,0.28,0.5,0.18" y="119.2" x="420.3,422.7,426.7,429.9,432.1,434.9,436.5,438.5,440.0,444.0,446.2,450.2" style="fill:rgb(0,0,0);font-family:DwtjrcAdvTT1b53b5fb.I;font-size:8.0px;stroke:none;" xmlns:svgx="http://www.xml-cml.org/schema/svgx">thyrsiflora,</text>
  <text svgx:width="0.73" y="119.2" x="453.9" style="fill:rgb(0,0,0);font-family:DxkbwjAdvTTb5929f4c;font-size:8.0px;stroke:none;" xmlns:svgx="http://www.xml-cml.org/schema/svgx">%</text>
  <text svgx:width="0.63" y="119.2" x="478.9" style="fill:rgb(0,0,0);font-family:DwtjrcAdvTT1b53b5fb.I;font-size:8.0px;stroke:none;" xmlns:svgx="http://www.xml-cml.org/schema/svgx">O</text>
  <text svgx:width="0.17,0.55,0.43" y="119.2" x="483.9,485.3,487.7" style="fill:rgb(0,0,0);font-family:DxkbwjAdvTTb5929f4c;font-size:8.0px;stroke:none;" xmlns:svgx="http://www.xml-cml.org/schema/svgx">. x</text>
  <text svgx:width="0.41,0.2,0.29,0.28,0.2,0.5,0.5,0.5,0.28,0.5,0.79,0.18" y="119.2" x="493.5,496.8,498.3,500.7,502.9,504.5,508.5,512.5,516.5,518.6,522.6,529.0" style="fill:rgb(0,0,0);font-family:DwtjrcAdvTT1b53b5fb.I;font-size:8.0px;stroke:none;" xmlns:svgx="http://www.xml-cml.org/schema/svgx">citriodorum,</text>
  <text svgx:width="0.73" y="119.2" x="532.7" style="fill:rgb(0,0,0);font-family:DxkbwjAdvTTb5929f4c;font-size:8.0px;stroke:none;" xmlns:svgx="http://www.xml-cml.org/schema/svgx">%</text>
  <text svgx:width="0.48,0.29,0.53,0.44,0.3,0.48,0.53,0.29,0.48,0.29,0.53,0.21,0.55,0.48,0.48,0.48,0.55,0.48,0.17,0.48,0.55,0.29,0.55,0.48,0.17,0.48" y="132.4" x="56.7,60.5,62.9,67.1,70.6,73.0,76.8,81.1,83.4,87.3,89.6,93.8,95.5,148.0,151.8,155.6,159.5,247.4,251.2,252.5,256.4,366.9,369.2,478.9,482.7,484.1" style="fill:rgb(0,0,0);font-family:DxkbwjAdvTTb5929f4c;font-size:8.0px;stroke:none;" xmlns:svgx="http://www.xml-cml.org/schema/svgx">1-octen-3-ol 979 0,2 - 0,1</text>
  <text svgx:width="0.48,0.29,0.48,0.29,0.55,0.56,0.21,0.53,0.48,0.53,0.21,0.48,0.55,0.48,0.48,0.48,0.48,0.55,0.48,0.17,0.48,0.48,0.55,0.48,0.17,0.48,0.48,0.55,0.29" y="146.4" x="56.7,60.5,62.9,66.7,69.0,71.4,75.9,77.5,81.8,85.6,89.9,91.5,95.4,148.0,151.8,155.6,159.5,163.3,247.3,251.2,252.5,256.3,260.2,366.9,370.7,372.0,375.9,379.7,478.9" style="fill:rgb(0,0,0);font-family:DxkbwjAdvTTb5929f4c;font-size:8.0px;stroke:none;" xmlns:svgx="http://www.xml-cml.org/schema/svgx">1-8- Cineole 1035 1.40 3.50 -</text>
  <text svgx:width="0.26,0.53,0.26,0.55,0.29" y="160.4" x="56.7,58.8,63.0,65.1,67.5" style="fill:rgb(0,0,0);font-family:DxkbwjAdvTTb5929f4c;font-size:8.0px;stroke:none;" xmlns:svgx="http://www.xml-cml.org/schema/svgx">(Z) -</text>
  <text svgx:width="0.54" y="160.4" x="69.8" style="fill:rgb(0,0,0);font-family:JlbqqvAdvTTb5929f4c;font-size:8.0px;stroke:none;" xmlns:svgx="http://www.xml-cml.org/schema/svgx">β</text>
  <text svgx:width="0.29,0.67,0.44,0.21,0.81,0.48,0.53,0.48,0.55,0.48,0.48,0.48,0.48,0.55,0.29,0.55,0.29,0.55,0.48,0.17,0.48,0.48" y="160.4" x="74.2,76.5,81.8,85.3,87.0,93.4,97.2,101.5,105.3,148.0,151.8,155.6,159.5,163.3,247.3,249.7,366.9,369.2,478.9,482.7,484.0,487.9" style="fill:rgb(0,0,0);font-family:DxkbwjAdvTTb5929f4c;font-size:8.0px;stroke:none;" xmlns:svgx="http://www.xml-cml.org/schema/svgx">-Ocimene 1058 - - 0.24</text>
  <text svgx:width="0.43" y="174.4" x="56.7" style="fill:rgb(0,0,0);font-family:JlbqqvAdvTTb5929f4c;font-size:8.0px;stroke:none;" xmlns:svgx="http://www.xml-cml.org/schema/svgx">γ</text>
  <text svgx:width="0.29,0.46,0.48,0.29,0.54,0.21,0.53,0.48,0.53,0.48,0.55,0.48,0.48,0.48,0.48,0.55,0.29,0.55,0.29,0.55,0.48,0.17,0.48,0.48" y="174.4" x="60.1,62.4,66.1,69.9,72.2,76.6,78.2,82.5,86.3,90.6,94.4,148.0,151.8,155.6,159.5,163.3,247.3,249.7,366.9,369.2,478.9,482.7,484.0,487.9" style="fill:rgb(0,0,0);font-family:DxkbwjAdvTTb5929f4c;font-size:8.0px;stroke:none;" xmlns:svgx="http://www.xml-cml.org/schema/svgx">-Terpinene 1078 - - 0.22</text>
  <text svgx:width="0.46,0.48,0.53,0.53,0.53,0.53,0.48,0.55,0.48,0.48,0.48,0.48,0.55,0.29,0.55,0.29,0.55,0.48,0.17,0.48,0.48" y="188.4" x="56.7,60.4,64.2,68.4,72.7,76.9,81.2,85.0,148.0,151.8,155.6,159.5,163.3,247.4,249.7,366.9,369.2,478.9,482.7,484.1,487.9" style="fill:rgb(0,0,0);font-family:DxkbwjAdvTTb5929f4c;font-size:8.0px;stroke:none;" xmlns:svgx="http://www.xml-cml.org/schema/svgx">Fenhone 1089 - - 0.32</text>
  <text svgx:width="0.45,0.21,0.53,0.45,0.21,0.53,0.53,0.21,0.55,0.48,0.48,0.48,0.48,0.55,0.48,0.48,0.17,0.48,0.48,0.55,0.48,0.48,0.17,0.48,0.48,0.55,0.48,0.17,0.48,0.48" y="202.4" x="56.7,60.3,61.9,66.2,69.8,71.4,75.7,79.9,81.6,148.0,151.8,155.6,159.5,163.3,247.4,251.2,255.0,256.3,260.2,264.0,366.9,370.7,374.5,375.9,379.7,383.5,478.9,482.7,484.1,487.9" style="fill:rgb(0,0,0);font-family:DxkbwjAdvTTb5929f4c;font-size:8.0px;stroke:none;" xmlns:svgx="http://www.xml-cml.org/schema/svgx">Linalool 1100 18.00 68.00 9.42</text>
  <text svgx:width="0.56,0.45,0.81,0.54,0.53,0.53,0.29,0.55,0.48,0.48,0.48,0.48,0.55,0.48,0.17,0.48,0.48,0.55,0.48,0.17,0.48,0.48,0.55,0.29" y="216.4" x="56.7,61.2,64.8,71.3,75.6,79.8,84.1,86.4,148.0,151.8,155.6,159.5,163.3,247.4,251.2,252.5,256.3,260.2,366.9,370.7,372.0,375.9,379.7,478.9" style="fill:rgb(0,0,0);font-family:DxkbwjAdvTTb5929f4c;font-size:8.0px;stroke:none;" xmlns:svgx="http://www.xml-cml.org/schema/svgx">Camphor 1146 1.30 1.35 -</text>
  <text svgx:width="0.53" y="230.4" x="56.7" style="fill:rgb(0,0,0);font-family:JlbqqvAdvTTb5929f4c;font-size:8.0px;stroke:none;" xmlns:svgx="http://www.xml-cml.org/schema/svgx">α</text>
  <text svgx:width="0.29,0.55,0.46,0.48,0.29,0.54,0.21,0.53,0.48,0.53,0.21,0.55,0.48,0.48,0.48,0.48,0.55,0.29,0.55,0.29,0.55,0.48,0.17,0.48,0.48" y="230.4" x="63.3,65.6,68.0,71.7,75.5,77.9,82.2,83.8,88.1,91.9,96.2,97.9,148.0,151.8,155.6,159.5,163.3,247.3,249.7,366.9,369.2,478.9,482.7,484.0,487.9" style="fill:rgb(0,0,0);font-family:DxkbwjAdvTTb5929f4c;font-size:8.0px;stroke:none;" xmlns:svgx="http://www.xml-cml.org/schema/svgx">- Terpineol 1181 - - 0.62</text>
  <text svgx:width="0.77,0.48,0.3,0.53,0.44,0.21,0.55,0.44,0.53,0.45,0.45,0.21,0.44,0.53,0.21,0.55,0.48,0.48,0.48,0.48,0.55,0.48,0.48,0.17,0.48,0.55,0.48,0.48,0.17,0.48,0.48,0.55,0.48,0.17,0.48,0.48" y="244.4" x="56.7,62.9,66.7,69.1,73.4,76.8,78.5,80.8,84.3,88.6,92.2,95.7,97.4,100.9,105.2,106.8,148.0,151.8,155.6,159.5,163.3,247.4,251.2,255.0,256.3,260.2,366.9,370.7,374.5,375.9,379.7,383.5,478.9,482.7,484.1,487.9" style="fill:rgb(0,0,0);font-family:DxkbwjAdvTTb5929f4c;font-size:8.0px;stroke:none;" xmlns:svgx="http://www.xml-cml.org/schema/svgx">Methyl chavicol 1203 57.3 20.00 9.45</text>
  <text svgx:width="0.63,0.48,0.29,0.53,0.21,0.55,0.48,0.48,0.48,0.48,0.55,0.29,0.55,0.29,0.55,0.48,0.48,0.17,0.48,0.48" y="258.4" x="56.7,61.8,65.6,67.9,72.2,73.9,148.0,151.8,155.6,159.5,163.3,247.4,249.7,366.9,369.2,478.9,482.7,486.6,487.9,491.7" style="fill:rgb(0,0,0);font-family:DxkbwjAdvTTb5929f4c;font-size:8.0px;stroke:none;" xmlns:svgx="http://www.xml-cml.org/schema/svgx">Nerol 1231 - - 23.00</text>
  <text svgx:width="0.63,0.48,0.29,0.45,0.21,0.55,0.48,0.48,0.48,0.48,0.55,0.29,0.55,0.29,0.55,0.48,0.17,0.48,0.48" y="272.4" x="56.7,61.8,65.6,67.9,71.5,73.2,148.0,151.8,155.6,159.5,163.3,247.4,249.7,366.9,369.2,478.9,482.7,484.1,487.9" style="fill:rgb(0,0,0);font-family:DxkbwjAdvTTb5929f4c;font-size:8.0px;stroke:none;" xmlns:svgx="http://www.xml-cml.org/schema/svgx">Neral 1244 - - 4.93</text>
  <text svgx:width="0.61,0.48,0.29,0.45,0.53,0.21,0.53,0.21,0.55,0.48,0.48,0.48,0.48,0.55,0.48,0.17,0.48,0.48" y="286.3" x="56.7,61.6,65.4,67.8,71.3,75.6,77.3,81.5,83.2,148.0,151.8,155.6,159.5,163.3,478.9,482.7,484.0,487.9" style="fill:rgb(0,0,0);font-family:DxkbwjAdvTTb5929f4c;font-size:8.0px;stroke:none;" xmlns:svgx="http://www.xml-cml.org/schema/svgx">Geraniol 1259 5.20</text>
  <text svgx:width="0.61,0.48,0.29,0.45,0.53,0.21,0.45,0.21,0.55,0.48,0.48,0.48,0.48,0.55,0.29,0.55,0.29,0.55,0.48,0.48,0.17,0.48,0.48" y="300.3" x="56.7,61.6,65.4,67.8,71.3,75.6,77.3,80.8,82.5,148.0,151.8,155.6,159.5,163.3,247.4,249.7,366.9,369.2,478.9,482.7,486.6,487.9,491.7" style="fill:rgb(0,0,0);font-family:DxkbwjAdvTTb5929f4c;font-size:8.0px;stroke:none;" xmlns:svgx="http://www.xml-cml.org/schema/svgx">Geranial 1274 - - 15.77</text>
  <text svgx:width="0.5,0.53,0.29,0.53,0.44,0.21,0.55,0.45,0.44,0.48,0.3,0.45,0.3,0.48,0.55,0.48,0.48,0.48,0.48,0.55,0.48,0.17,0.48,0.48,0.55,0.29,0.55,0.29" y="314.3" x="56.7,60.7,64.9,67.3,71.5,75.0,76.7,79.0,82.6,86.1,89.9,92.4,95.9,98.3,102.2,148.0,151.8,155.6,159.5,163.3,247.3,251.2,252.5,256.3,260.2,366.9,369.2,478.9" style="fill:rgb(0,0,0);font-family:DxkbwjAdvTTb5929f4c;font-size:8.0px;stroke:none;" xmlns:svgx="http://www.xml-cml.org/schema/svgx">Bornyl acetate 1291 0.13 - -</text>
  <text svgx:width="0.63,0.48,0.29,0.44,0.21,0.55,0.45,0.44,0.48,0.3,0.45,0.3,0.48,0.55,0.48,0.48,0.48,0.48,0.55,0.29,0.55,0.29,0.55,0.48,0.17,0.48,0.48" y="328.3" x="56.7,61.8,65.6,67.9,71.4,73.1,75.5,79.0,82.5,86.4,88.8,92.4,94.8,98.6,148.0,151.8,155.6,159.5,163.3,247.4,249.7,366.9,369.2,478.9,482.7,484.1,487.9" style="fill:rgb(0,0,0);font-family:DxkbwjAdvTTb5929f4c;font-size:8.0px;stroke:none;" xmlns:svgx="http://www.xml-cml.org/schema/svgx">Neryl acetate 1321 - - 0.65</text>
  <text svgx:width="0.77,0.48,0.3,0.53,0.44,0.21,0.55,0.44,0.21,0.53,0.53,0.45,0.81,0.45,0.3,0.48,0.55,0.48,0.48,0.48,0.48,0.55,0.29,0.55,0.29,0.55,0.48,0.17,0.48,0.48" y="342.3" x="56.7,62.9,66.7,69.1,73.4,76.8,78.5,80.8,84.3,86.0,90.3,94.5,98.1,104.6,108.2,110.6,114.4,148.0,151.8,155.6,159.5,163.3,247.4,249.7,366.9,369.2,478.9,482.7,484.1,487.9" style="fill:rgb(0,0,0);font-family:DxkbwjAdvTTb5929f4c;font-size:8.0px;stroke:none;" xmlns:svgx="http://www.xml-cml.org/schema/svgx">Methyl cinnamate 1338 - - 0.49</text>
  <text svgx:width="0.54" y="356.3" x="56.7" style="fill:rgb(0,0,0);font-family:JlbqqvAdvTTb5929f4c;font-size:8.0px;stroke:none;" xmlns:svgx="http://www.xml-cml.org/schema/svgx">β</text>
  <text svgx:width="0.29,0.46,0.21,0.48,0.81,0.48,0.53,0.48,0.55,0.48,0.48,0.48,0.48,0.55,0.48,0.17,0.48,0.48,0.55,0.48,0.17,0.48,0.48,0.55,0.48,0.17,0.48,0.48" y="356.3" x="61.0,63.3,67.0,68.7,72.5,79.0,82.8,87.1,90.9,148.0,151.8,155.6,159.5,163.3,247.4,251.2,252.5,256.3,260.2,366.9,370.7,372.0,375.9,379.7,478.9,482.7,484.1,487.9" style="fill:rgb(0,0,0);font-family:DxkbwjAdvTTb5929f4c;font-size:8.0px;stroke:none;" xmlns:svgx="http://www.xml-cml.org/schema/svgx">-Elemene 1387 3.62 0.67 0.53</text>
  <text svgx:width="0.54" y="370.3" x="56.7" style="fill:rgb(0,0,0);font-family:JlbqqvAdvTTb5929f4c;font-size:8.0px;stroke:none;" xmlns:svgx="http://www.xml-cml.org/schema/svgx">β</text>
  <text svgx:width="0.29,0.56,0.45,0.29,0.44,0.53,0.54,0.53,0.44,0.21,0.21,0.48,0.53,0.48,0.55,0.48,0.48,0.48,0.48,0.55,0.48,0.17,0.48,0.48,0.55,0.29,0.55,0.48,0.17,0.48,0.48" y="370.3" x="63.4,65.8,70.3,73.8,76.2,79.7,83.9,88.2,92.4,95.9,97.6,99.2,103.1,107.3,111.2,148.0,151.8,155.6,159.5,163.3,247.3,251.2,252.5,256.3,260.2,366.9,369.2,478.9,482.7,484.0,487.9" style="fill:rgb(0,0,0);font-family:DxkbwjAdvTTb5929f4c;font-size:8.0px;stroke:none;" xmlns:svgx="http://www.xml-cml.org/schema/svgx">-Caryophyllene 1419 1.72 - 7.80</text>
  <text svgx:width="0.54" y="384.3" x="56.7" style="fill:rgb(0,0,0);font-family:JlbqqvAdvTTb5929f4c;font-size:8.0px;stroke:none;" xmlns:svgx="http://www.xml-cml.org/schema/svgx">β</text>
  <text svgx:width="0.5" y="384.3" x="63.4" style="fill:rgb(0,0,0);font-family:DlrtkjAdvTTb5929f4c;font-size:8.0px;stroke:none;" xmlns:svgx="http://www.xml-cml.org/schema/svgx">–</text>
  <text svgx:width="0.56,0.53,0.54,0.45,0.48,0.53,0.48,0.55,0.48,0.48,0.48,0.48,0.55,0.48,0.17,0.48,0.48,0.55,0.29,0.55,0.48,0.17,0.48,0.48" y="384.3" x="67.4,71.9,76.2,80.5,84.1,87.9,92.1,96.0,148.0,151.8,155.6,159.5,163.3,247.3,251.2,252.5,256.3,260.2,366.9,369.2,478.9,482.7,484.0,487.9" style="fill:rgb(0,0,0);font-family:DxkbwjAdvTTb5929f4c;font-size:8.0px;stroke:none;" xmlns:svgx="http://www.xml-cml.org/schema/svgx">Copaene 1428 0.28 - 0.56</text>
  <text svgx:width="0.3,0.29,0.45,0.53,0.36,0.29" y="398.3" x="56.7,59.1,61.4,65.0,69.3,72.2" style="fill:rgb(0,0,0);font-family:DxkbwjAdvTTb5929f4c;font-size:8.0px;stroke:none;" xmlns:svgx="http://www.xml-cml.org/schema/svgx">trans-</text>
  <text svgx:width="0.53" y="398.3" x="74.5" style="fill:rgb(0,0,0);font-family:JlbqqvAdvTTb5929f4c;font-size:8.0px;stroke:none;" xmlns:svgx="http://www.xml-cml.org/schema/svgx">α</text>
  <text svgx:width="0.29,0.5,0.48,0.29,0.54,0.45,0.81,0.53,0.3,0.48,0.53,0.48,0.55,0.48,0.48,0.48,0.48,0.55,0.48,0.17,0.48,0.48,0.55,0.48,0.17,0.48,0.48,0.55,0.48,0.17,0.48,0.48" y="398.3" x="78.7,81.0,85.0,88.8,91.2,95.5,99.1,105.6,109.8,112.2,116.1,120.3,124.2,148.0,151.8,155.6,159.5,163.3,247.3,251.2,252.5,256.3,260.2,366.9,370.7,372.0,375.9,379.7,478.9,482.7,484.0,487.9" style="fill:rgb(0,0,0);font-family:DxkbwjAdvTTb5929f4c;font-size:8.0px;stroke:none;" xmlns:svgx="http://www.xml-cml.org/schema/svgx">-Bergamotene 1433 4.34 1.34 3.52</text>
  <text svgx:width="0.53" y="412.3" x="56.7" style="fill:rgb(0,0,0);font-family:JlbqqvAdvTTb5929f4c;font-size:8.0px;stroke:none;" xmlns:svgx="http://www.xml-cml.org/schema/svgx">α</text>
  <text svgx:width="0.29,0.63,0.52,0.81,0.52,0.21,0.48,0.53,0.48,0.55,0.48,0.48,0.48,0.48,0.55,0.48,0.17,0.48,0.48,0.55,0.48,0.17,0.48,0.48,0.55,0.48,0.17,0.48,0.48" y="412.3" x="60.9,63.3,68.3,72.4,78.9,83.1,84.7,88.5,92.7,96.6,148.0,151.8,155.6,159.5,163.3,247.3,251.2,252.5,256.3,260.2,366.9,370.7,372.0,375.8,379.7,478.9,482.7,484.0,487.9" style="fill:rgb(0,0,0);font-family:DxkbwjAdvTTb5929f4c;font-size:8.0px;stroke:none;" xmlns:svgx="http://www.xml-cml.org/schema/svgx">-Humulene 1455 0.55 0.28 1.52</text>
  <text svgx:width="0.44,0.21,0.36,0.29" y="426.3" x="56.7,60.2,61.8,64.8" style="fill:rgb(0,0,0);font-family:DxkbwjAdvTTb5929f4c;font-size:8.0px;stroke:none;" xmlns:svgx="http://www.xml-cml.org/schema/svgx">cis-</text>
  <text svgx:width="0.54" y="426.3" x="69.4" style="fill:rgb(0,0,0);font-family:JlbqqvAdvTTb5929f4c;font-size:8.0px;stroke:none;" xmlns:svgx="http://www.xml-cml.org/schema/svgx">β</text>
  <text svgx:width="0.29,0.46,0.45,0.29,0.53,0.48,0.36,0.48,0.53,0.48,0.55,0.48,0.48,0.48,0.48,0.55,0.48,0.17,0.48,0.48,0.55,0.29,0.55,0.48,0.17,0.48,0.48" y="426.3" x="73.8,76.1,79.8,83.4,85.7,90.0,93.8,96.7,100.5,104.8,108.6,148.0,151.8,155.6,159.5,163.3,247.3,251.2,252.5,256.3,260.2,366.9,369.2,478.9,482.7,484.0,487.9" style="fill:rgb(0,0,0);font-family:DxkbwjAdvTTb5929f4c;font-size:8.0px;stroke:none;" xmlns:svgx="http://www.xml-cml.org/schema/svgx">-Farnesene 1472 0.31 - 0.48</text>
  <text svgx:width="0.61,0.48,0.29,0.81,0.45,0.44,0.29,0.48,0.53,0.48,0.55,0.54,0.55,0.48,0.48,0.48,0.48,0.55,0.48,0.17,0.48,0.48,0.55,0.48,0.17,0.48,0.48,0.55,0.29" y="440.3" x="56.7,61.6,65.4,67.8,74.2,77.8,81.3,83.6,87.5,91.7,95.6,97.9,102.2,148.0,151.8,155.6,159.5,163.3,247.3,251.2,252.5,256.3,260.2,366.9,370.7,372.0,375.8,379.7,478.9" style="fill:rgb(0,0,0);font-family:DxkbwjAdvTTb5929f4c;font-size:8.0px;stroke:none;" xmlns:svgx="http://www.xml-cml.org/schema/svgx">Germacrene d 1482 0.68 0.17 -</text>
  <text svgx:width="0.54" y="454.3" x="56.7" style="fill:rgb(0,0,0);font-family:JlbqqvAdvTTb5929f4c;font-size:8.0px;stroke:none;" xmlns:svgx="http://www.xml-cml.org/schema/svgx">β</text>
  <text svgx:width="0.29,0.56,0.52,0.54,0.48,0.54,0.48,0.53,0.48,0.55,0.48,0.48,0.48,0.48,0.55,0.29,0.55,0.48,0.17,0.48,0.48,0.55,0.48,0.17,0.48,0.48" y="454.3" x="61.0,63.3,67.8,72.0,76.3,80.1,84.5,88.3,92.6,96.4,148.0,151.8,155.6,159.5,163.3,247.3,249.7,366.9,370.7,372.0,375.9,379.7,478.9,482.7,484.0,487.9" style="fill:rgb(0,0,0);font-family:DxkbwjAdvTTb5929f4c;font-size:8.0px;stroke:none;" xmlns:svgx="http://www.xml-cml.org/schema/svgx">-Cubebene 1497 - 0.75 2.26</text>
  <text svgx:width="0.53" y="468.3" x="56.7" style="fill:rgb(0,0,0);font-family:JlbqqvAdvTTb5929f4c;font-size:8.0px;stroke:none;" xmlns:svgx="http://www.xml-cml.org/schema/svgx">α</text>
  <text svgx:width="0.29,0.5,0.52,0.21,0.53,0.48,0.36,0.48,0.53,0.48,0.55,0.48,0.48,0.48,0.48,0.55,0.48,0.17,0.48,0.48,0.55,0.48,0.17,0.48,0.48,0.55,0.48,0.17,0.48,0.48" y="468.3" x="60.9,63.3,67.3,71.4,73.1,77.3,81.2,84.1,87.8,92.1,95.9,148.0,151.8,155.6,159.5,163.3,247.3,251.2,252.5,256.3,260.2,366.9,370.7,372.0,375.9,379.7,478.9,482.7,484.0,487.9" style="fill:rgb(0,0,0);font-family:DxkbwjAdvTTb5929f4c;font-size:8.0px;stroke:none;" xmlns:svgx="http://www.xml-cml.org/schema/svgx">-Bulnesene 1502 1.39 0.68 0.47</text>
  <text svgx:width="0.53" y="482.3" x="56.7" style="fill:rgb(0,0,0);font-family:JlbqqvAdvTTb5929f4c;font-size:8.0px;stroke:none;" xmlns:svgx="http://www.xml-cml.org/schema/svgx">α</text>
  <text svgx:width="0.29,0.58,0.81,0.53,0.29,0.54,0.53,0.48,0.53,0.55,0.48,0.48,0.48,0.48,0.55,0.48,0.17,0.48,0.48,0.55,0.48,0.17,0.48,0.48,0.55,0.29" y="482.3" x="60.9,63.3,67.9,74.4,78.7,81.0,85.3,89.6,93.3,97.5,148.0,151.8,155.6,159.5,163.3,247.3,251.2,252.5,256.3,260.2,366.9,370.7,372.0,375.9,379.7,478.9" style="fill:rgb(0,0,0);font-family:DxkbwjAdvTTb5929f4c;font-size:8.0px;stroke:none;" xmlns:svgx="http://www.xml-cml.org/schema/svgx">-Amorphen 1510 1.54 0.69 -</text>
  <text svgx:width="0.52" y="496.3" x="56.7" style="fill:rgb(0,0,0);font-family:JlbqqvAdvTTb5929f4c;font-size:8.0px;stroke:none;" xmlns:svgx="http://www.xml-cml.org/schema/svgx">δ</text>
  <text svgx:width="0.29,0.56,0.45,0.54,0.21,0.53,0.48,0.53,0.48,0.55,0.48,0.48,0.48,0.48,0.55,0.29,0.55,0.29,0.55,0.48,0.17,0.48,0.48" y="496.3" x="60.8,63.2,67.6,71.2,75.6,77.2,81.5,85.3,89.5,93.4,148.0,151.8,155.6,159.5,163.3,247.3,249.7,366.9,369.2,478.9,482.7,484.0,487.9" style="fill:rgb(0,0,0);font-family:DxkbwjAdvTTb5929f4c;font-size:8.0px;stroke:none;" xmlns:svgx="http://www.xml-cml.org/schema/svgx">-Cadinene 1518 - - 0.38</text>
  <text svgx:width="0.58,0.29,0.53,0.81,0.45,0.54,0.48,0.53,0.54,0.29,0.48,0.53,0.48,0.55,0.48,0.48,0.48,0.48,0.55,0.48,0.17,0.48,0.48,0.55,0.48,0.17,0.48,0.48,0.55,0.29" y="510.3" x="56.7,61.4,63.7,67.9,74.4,78.0,82.3,86.2,90.3,94.6,97.0,100.8,105.0,108.9,148.0,151.8,155.6,159.5,163.3,247.3,251.2,252.5,256.3,260.2,366.9,370.7,372.0,375.9,379.7,478.9" style="fill:rgb(0,0,0);font-family:DxkbwjAdvTTb5929f4c;font-size:8.0px;stroke:none;" xmlns:svgx="http://www.xml-cml.org/schema/svgx">Aromadendrene 1529 1.67 0.28 -</text>
  <text svgx:width="0.46,0.54,0.45,0.3,0.53,0.52,0.21,0.48,0.53,0.53,0.21,0.55,0.48,0.48,0.48,0.48,0.55,0.48,0.17,0.48,0.48,0.55,0.29,0.55,0.29" y="524.3" x="56.7,60.4,64.7,68.3,70.7,74.9,79.1,80.7,84.6,88.8,93.0,94.6,148.0,151.8,155.6,159.5,163.3,247.3,251.2,252.5,256.3,260.2,366.9,369.2,478.9" style="fill:rgb(0,0,0);font-family:DxkbwjAdvTTb5929f4c;font-size:8.0px;stroke:none;" xmlns:svgx="http://www.xml-cml.org/schema/svgx">Spathulenol 1544 0.68 - -</text>
  <text svgx:width="0.56,0.45,0.29,0.44,0.53,0.54,0.53,0.44,0.21,0.21,0.48,0.53,0.48,0.55,0.53,0.43,0.21,0.54,0.48,0.55,0.48,0.48,0.48,0.48,0.55,0.48,0.17,0.48,0.48,0.55,0.29,0.55,0.29" y="538.3" x="56.7,61.2,64.8,67.1,70.6,74.8,79.2,83.4,86.9,88.6,90.2,94.1,98.3,102.2,104.4,108.7,112.1,113.8,118.1,121.9,148.0,151.8,155.6,159.5,163.3,247.3,251.2,252.5,256.3,260.2,366.9,369.2,478.9" style="fill:rgb(0,0,0);font-family:DxkbwjAdvTTb5929f4c;font-size:8.0px;stroke:none;" xmlns:svgx="http://www.xml-cml.org/schema/svgx">Caryophyllene oxide 1550 0.57 - -</text>
  <text svgx:width="0.53" y="552.3" x="56.7" style="fill:rgb(0,0,0);font-family:JlbqqvAdvTTb5929f4c;font-size:8.0px;stroke:none;" xmlns:svgx="http://www.xml-cml.org/schema/svgx">α</text>
  <text svgx:width="0.5" y="552.3" x="63.3" style="fill:rgb(0,0,0);font-family:DlrtkjAdvTTb5929f4c;font-size:8.0px;stroke:none;" xmlns:svgx="http://www.xml-cml.org/schema/svgx">–</text>
  <text svgx:width="0.5,0.21,0.36,0.45,0.54,0.53,0.21,0.48,0.53,0.48,0.55,0.48,0.48,0.48,0.48,0.55,0.29,0.55,0.29,0.55,0.48,0.17,0.48,0.48" y="552.3" x="67.3,71.3,73.0,75.9,79.4,83.8,88.0,89.7,93.5,97.8,101.6,148.0,151.8,155.6,159.5,163.3,247.3,249.7,366.9,369.2,478.9,482.7,484.0,487.9" style="fill:rgb(0,0,0);font-family:DxkbwjAdvTTb5929f4c;font-size:8.0px;stroke:none;" xmlns:svgx="http://www.xml-cml.org/schema/svgx">Bisabolene 1561 - - 2.29</text>
  <text svgx:width="0.54" y="566.3" x="56.7" style="fill:rgb(0,0,0);font-family:JlbqqvAdvTTb5929f4c;font-size:8.0px;stroke:none;" xmlns:svgx="http://www.xml-cml.org/schema/svgx">β</text>
  <text svgx:width="0.29,0.55,0.5,0.21,0.36,0.45,0.54,0.53,0.21,0.48,0.53,0.48,0.53,0.48,0.55,0.48,0.48,0.48,0.48,0.55,0.29,0.55,0.29,0.55,0.48,0.17,0.48,0.48" y="566.3" x="63.4,65.7,68.1,72.1,73.8,76.7,80.3,84.6,88.9,90.5,94.3,98.5,102.3,106.6,110.4,148.0,151.8,155.6,159.4,163.3,247.3,249.7,366.8,369.2,478.9,482.7,484.0,487.9" style="fill:rgb(0,0,0);font-family:DxkbwjAdvTTb5929f4c;font-size:8.0px;stroke:none;" xmlns:svgx="http://www.xml-cml.org/schema/svgx">- Bisabolenene 1572 - - 8.31</text>
  <text svgx:width="0.53" y="580.3" x="56.7" style="fill:rgb(0,0,0);font-family:JlbqqvAdvTTb5929f4c;font-size:8.0px;stroke:none;" xmlns:svgx="http://www.xml-cml.org/schema/svgx">α</text>
  <text svgx:width="0.29,0.5,0.21,0.36,0.45,0.54,0.53,0.21,0.53,0.21,0.55,0.48,0.48,0.48,0.48,0.55,0.29,0.55,0.29,0.55,0.48,0.17,0.48,0.48" y="580.3" x="60.9,63.2,67.2,68.9,71.8,75.4,79.7,84.0,85.6,89.9,91.6,148.0,151.8,155.6,159.4,163.3,247.3,249.7,366.8,369.2,478.9,482.7,484.0,487.9" style="fill:rgb(0,0,0);font-family:DxkbwjAdvTTb5929f4c;font-size:8.0px;stroke:none;" xmlns:svgx="http://www.xml-cml.org/schema/svgx">-Bisabolol 1642 - - 0.29</text>
  <text svgx:width="0.48" y="590.4" x="56.7" style="fill:rgb(0,0,0);font-family:PxkjvdAdvTTe45e47d2;font-size:4.7px;stroke:none;" xmlns:svgx="http://www.xml-cml.org/schema/svgx">a</text>
  <text svgx:width="0.29,0.54,0.32,0.55,0.64,0.53,0.3,0.51,0.55,0.45,0.48,0.56,0.23,0.23,0.23,0.48,0.32,0.47,0.55,0.45,0.54,0.23,0.54,0.83,0.55" y="593.5" x="59.2,61.2,65.0,67.3,69.4,73.9,77.6,79.7,83.3,85.4,88.6,91.9,95.9,97.5,99.1,100.7,104.1,106.3,109.6,111.7,114.9,118.7,120.3,124.0,129.9" style="fill:rgb(0,0,0);font-family:PxkjvdAdvTTe45e47d2;font-size:7.0px;stroke:none;" xmlns:svgx="http://www.xml-cml.org/schema/svgx">for HP-5 capillary column</text>
  <text svgx:width="0.56" y="598.9" x="56.7" style="fill:rgb(0,0,0);font-family:PxkjvdAdvTTe45e47d2;font-size:4.7px;stroke:none;" xmlns:svgx="http://www.xml-cml.org/schema/svgx">b</text>
  <text svgx:width="0.79,0.2,0.55,0.57,0.48,0.23,0.45,0.54,0.23,0.48,0.32,0.5,0.56,0.55,0.29,0.32,0.54,0.83,0.55,0.8,0.23,0.57,0.55,0.56,0.48,0.32,0.48" y="602.0" x="59.6,65.2,66.6,68.7,72.7,76.0,77.6,80.7,84.5,86.1,89.6,91.8,95.3,99.3,101.4,103.4,105.7,109.5,115.3,117.4,123.0,124.6,128.6,130.8,134.7,138.1,140.3" style="fill:rgb(0,0,0);font-family:PxkjvdAdvTTe45e47d2;font-size:7.0px;stroke:none;" xmlns:svgx="http://www.xml-cml.org/schema/svgx">%: Calculated from MIC data</text>
  <text svgx:width="0.6,0.48,0.5,0.32,0.23,0.4,0.47,0.48,0.55" y="39.0" x="56.7,61.5,65.4,69.4,71.9,73.8,76.9,80.7,84.5" style="fill:rgb(19,20,19);font-family:PxkjvdAdvTTe45e47d2;font-size:8.0px;stroke:none;" xmlns:svgx="http://www.xml-cml.org/schema/svgx">Avetisyan</text>
  <text svgx:width="0.45,0.31,0.55,0.52,0.22,0.21,0.55,0.51,0.77,0.55,0.55,0.55,0.52,0.8,0.52,0.22,0.45,0.8,0.45,0.53,0.31,0.52,0.31,0.44,0.55,0.52,0.53,0.52,0.55,0.56,0.22,0.31,0.45,0.31,0.53,0.52,0.31,0.22,0.45,0.45,0.55,0.77,0.45,0.52,0.22,0.42,0.22,0.53,0.45" y="39.0" x="91.2,94.8,97.3,99.7,103.9,105.6,107.3,109.6,113.7,119.9,124.3,126.7,131.1,135.3,141.7,145.9,147.6,151.1,157.5,161.1,165.3,167.8,172.0,174.5,178.0,180.3,184.5,188.7,192.9,195.3,199.8,201.5,204.0,207.6,210.1,214.4,218.4,220.9,222.7,226.3,229.9,232.2,238.4,241.9,246.1,247.9,251.2,252.9,257.2" style="fill:rgb(19,20,19);font-family:QvpjfcAdvTT7329fd89.I;font-size:8.0px;stroke:none;" xmlns:svgx="http://www.xml-cml.org/schema/svgx">et al. BMC Complementary and Alternative Medicine</text>
  <text svgx:width="0.21,0.28,0.51,0.51,0.51,0.51,0.28,0.21,0.51,0.51,0.21,0.51,0.51,0.21" y="39.0" x="263.1,264.8,267.1,271.2,275.3,279.4,283.5,285.8,287.5,291.6,295.7,297.3,301.4,305.5" style="fill:rgb(19,20,19);font-family:MyriadPro-Regular;font-size:8.0px;stroke:none;" xmlns:svgx="http://www.xml-cml.org/schema/svgx"> (2017) 17:60 </text>
  <text svgx:width="0.53,0.48,0.55,0.5,0.55,0.51,0.55,0.54,0.29,0.55,0.51" y="39.0" x="500.1,504.4,508.2,512.6,516.6,519.0,523.1,525.5,529.8,532.1,534.5" style="fill:rgb(19,20,19);font-family:PxkjvdAdvTTe45e47d2;font-size:8.0px;stroke:none;" xmlns:svgx="http://www.xml-cml.org/schema/svgx">Page 4 of 8</text>
 </g>
</svg>
