<?xml version="1.0" encoding="UTF-8"?>
<svg height="774.013" width="530.035" xmlns="http://www.w3.org/2000/svg">
 <g id="page" xmlns:svgx="http://www.xml-cml.org/schema/svgx">
  <g begin="text">
   <text y="62.979" x="76.535,79.189,83.62,86.274,88.26650000000001,90.738,93.392,95.3845,97.377,104.901,108.439,110.655,112.64750000000001,115.118,119.55,122.793,125.009" svgx:width="0.33,0.56,0.33,0.25,0.55,0.33,0.25,0.55,0.94,0.44,0.28,0.25,0.55,0.56,0.41,0.28,0.25" style="fill:rgb(0,0,0);font-family:URWPalladioL-Ital;font-size:7.97px;stroke:none;">Int. J. Mol. Sci.</text>
   <text y="62.979" x="129.472,133.457,137.442,141.427" svgx:width="0.5,0.5,0.5,0.5" style="fill:rgb(0,0,0);font-family:URWPalladioL-Bold;font-size:7.97px;stroke:none;">2017</text>
   <text y="62.979" x="145.412" svgx:width="0.25" style="fill:rgb(0,0,0);font-family:URWPalladioL-Roma;font-size:7.97px;stroke:none;">,</text>
   <text y="62.979" x="149.398,153.383" svgx:width="0.5,0.5" style="fill:rgb(0,0,0);font-family:URWPalladioL-Ital;font-size:7.97px;stroke:none;">18</text>
   <text y="62.979" x="157.368,159.3605,161.353,165.338,169.323,173.308,177.293,495.794,499.779,501.772,506.123,508.7531,510.77,514.755" svgx:width="0.25,0.55,0.5,0.5,0.5,0.5,0.55,0.5,0.55,0.55,0.33,0.55,0.5,0.5" style="fill:rgb(0,0,0);font-family:URWPalladioL-Roma;font-size:7.97px;stroke:none;">, 1383 6 of 41</text>
   <text y="97.848" x="76.535,81.516,84.006,87.095,95.394,99.27,104.251,107.5378,110.059,116.146,120.022,125.003,129.426,134.408,140.495,143.812,148.794,152.111,155.429,160.968,167.055" svgx:width="0.5,0.25,0.55,0.83,0.39,0.5,0.33,0.55,0.61,0.39,0.5,0.44,0.5,0.61,0.33,0.5,0.33,0.33,0.56,0.61,0.44" style="fill:rgb(0,0,0);font-family:URWPalladioL-Bold;font-size:9.96px;stroke:none;">3. Oral Presentations</text>
   <text y="109.106" x="76.535,83.18,89.267,94.249,103.105,108.087,110.577,113.666,120.859,126.946,131.927,140.784,144.101,148.525,153.506,156.7928,159.314,165.401,168.719,172.594,178.682,183.105,186.423,192.51,196.385,201.366,205.79,208.28,210.771,216.858,220.734,226.273,232.36,237.341,241.217,244.534,247.852,252.833,257.2154,259.747,264.729,270.816,276.8916,279.393,287.144,293.232,299.319,302.636,305.954,309.271,314.811,320.898,325.879,329.16580000000005,331.687,338.332,343.314,346.631,352.718,357.69800000000004,360.19,365.729,369.6134,372.096,379.846,383.722,389.261,394.242,400.33" svgx:width="0.67,0.61,0.5,0.89,0.5,0.25,0.55,0.72,0.61,0.5,0.89,0.33,0.44,0.5,0.33,0.55,0.61,0.33,0.39,0.61,0.44,0.33,0.61,0.39,0.5,0.44,0.25,0.55,0.61,0.39,0.56,0.61,0.5,0.39,0.33,0.33,0.5,0.44,0.55,0.5,0.61,0.61,0.55,0.78,0.61,0.61,0.33,0.33,0.33,0.56,0.61,0.5,0.33,0.55,0.78,0.5,0.33,0.61,0.5,0.55,0.56,0.39,0.55,0.78,0.39,0.56,0.5,0.61,0.25" style="fill:rgb(0,0,0);font-family:URWPalladioL-Bold;font-size:9.96px;stroke:none;">Theme: Chemical Structures, Properties and Additional Value of Argan.</text>
   <text y="132.319" x="76.535,83.18,87.603,95.354,100.336,104.759,108.634,111.404,115.28,119.703,125.2806,127.733,132.156,134.94480000000001,137.416,140.734,145.715,149.5994,152.081,158.726,163.15,168.689,172.007,175.882,181.421,184.739,188.6234,191.105,195.528,198.3168,200.789,204.106,209.087,212.9714,215.454,224.858,229.282,232.051,237.62859999999998,240.081,246.168,248.938,253.361,257.416,262.397,266.273,274.024,276.793,280.848,285.271,288.0598,290.532,297.177,301.6,309.351,314.332,318.756,324.295,329.834,334.815,338.6994,341.182,345.605,351.144,356.124,358.616,361.934,366.915,370.79940000000005,373.281,380.474,386.013,389.331,392.1,396.524,401.505,404.275,409.256,413.679,419.219,422.5058,425.027,432.22,436.275,439.592,442.362,447.343,450.113,453.43,458.41,460.902,465.326,468.1148,470.586,477.779,481.475,486.456,490.88,496.4576,498.909,506.66,509.43,512.2" svgx:width="0.67,0.44,0.78,0.5,0.44,0.39,0.28,0.39,0.44,0.56,0.55,0.44,0.28,0.55,0.33,0.5,0.39,0.55,0.67,0.44,0.56,0.33,0.39,0.56,0.33,0.39,0.55,0.44,0.28,0.55,0.33,0.5,0.39,0.55,0.94,0.44,0.28,0.56,0.55,0.61,0.28,0.44,0.41,0.5,0.39,0.78,0.28,0.41,0.44,0.28,0.55,0.67,0.44,0.78,0.5,0.44,0.56,0.56,0.5,0.39,0.55,0.44,0.56,0.5,0.55,0.33,0.5,0.39,0.55,0.72,0.56,0.33,0.28,0.44,0.5,0.28,0.5,0.44,0.56,0.33,0.55,0.72,0.41,0.33,0.28,0.5,0.28,0.33,0.5,0.55,0.44,0.28,0.55,0.72,0.39,0.5,0.44,0.56,0.55,0.78,0.28,0.28,0.25" style="fill:rgb(0,0,0);font-family:URWPalladioL-Ital;font-size:9.96px;stroke:none;">Comparison of the Contents of the Main Biochemical Compounds and the Antioxidant Activity of Argan Oil,</text>
   <text y="143.577" x="76.147,83.898,86.668,89.437,94.418,98.3024,100.785,108.535,111.305,114.075,116.565,119.056,124.595,127.365,130.134,135.116,139.728,145.267,153.0358,155.509,164.914,169.337,173.213,175.982,180.406,185.945,191.484,199.2528,201.726,207.265,211.14,215.016,219.99599999999998,222.488,230.238,233.008,235.778,238.268,240.759,248.51,251.28,256.261,260.136,262.906,265.675,270.05740000000003,272.59,278.129,282.004,285.88,290.86,293.352,301.103,303.872,306.6608,309.132,313.556,319.095,324.07500000000005,326.567,333.212,337.635,340.405,344.828,349.2104,351.742,359.493,362.263" svgx:width="0.78,0.28,0.28,0.5,0.39,0.55,0.78,0.28,0.28,0.25,0.55,0.56,0.28,0.28,0.5,0.46,0.56,0.78,0.55,0.94,0.44,0.39,0.28,0.44,0.56,0.56,0.78,0.55,0.56,0.39,0.39,0.5,0.55,0.78,0.28,0.28,0.25,0.55,0.78,0.28,0.5,0.39,0.28,0.28,0.44,0.55,0.56,0.39,0.39,0.5,0.55,0.78,0.28,0.28,0.55,0.44,0.56,0.5,0.55,0.67,0.44,0.28,0.44,0.44,0.55,0.78,0.28,0.28" style="fill:rgb(0,0,0);font-family:URWPalladioL-Ital;font-size:9.96px;stroke:none;">Olive Oil, Silybum Marianum Seed Oil, Nigella Seed Oil and Colza Oil</text>
   <text y="163.064" x="76.147,83.743,86.23299999999999,88.683,95.195,100.077,103.933,107.605,112.935,118.823" svgx:width="0.78,0.25,0.55,0.67,0.5,0.4,0.4,0.55,0.6,0.56" style="fill:rgb(0,0,0);font-family:URWPalladioL-Roma;font-size:9.96px;stroke:none;">A. Zarrouk</text>
   <text y="159.448" x="126.749,131.035,133.427,137.705,140.098" svgx:width="0.5,0.25,0.5,0.25,0.5" style="fill:rgb(0,0,0);font-family:URWPalladioL-Roma;font-size:7.57px;stroke:none;">1,2,3</text>
   <text y="163.064" x="144.383,146.87300000000002,149.323,155.289,157.779,160.219,169.455,174.337,178.193,181.376,184.217,189.9" svgx:width="0.25,0.55,0.61,0.25,0.55,0.95,0.5,0.4,0.33,0.29,0.58,0.48" style="fill:rgb(0,0,0);font-family:URWPalladioL-Roma;font-size:9.96px;stroke:none;">, L. Martine</text>
   <text y="159.448" x="197.077" svgx:width="0.5" style="fill:rgb(0,0,0);font-family:URWPalladioL-Roma;font-size:7.57px;stroke:none;">4</text>
   <text y="163.064" x="201.361,203.851,206.301,211.427,213.917,216.358,223.807" svgx:width="0.25,0.55,0.52,0.25,0.55,0.76,0.4" style="fill:rgb(0,0,0);font-family:URWPalladioL-Roma;font-size:9.96px;stroke:none;">, S. Gr</text>
   <text y="163.064" x="227.668" svgx:width="0.48" style="fill:rgb(0,0,0);font-family:VnURWPalladioL;font-size:9.96px;stroke:none;">é</text>
   <text y="163.064" x="232.344,237.772,243.103,245.944,249.625" svgx:width="0.56,0.55,0.29,0.4,0.48" style="fill:rgb(0,0,0);font-family:URWPalladioL-Roma;font-size:9.96px;stroke:none;">goire</text>
   <text y="159.448" x="256.794" svgx:width="0.5" style="fill:rgb(0,0,0);font-family:URWPalladioL-Roma;font-size:7.57px;stroke:none;">4</text>
   <text y="163.064" x="261.078,263.568,266.018,271.984,274.474,276.914,283.836,288.718,297.339,303.226" svgx:width="0.25,0.55,0.61,0.25,0.55,0.71,0.5,0.88,0.6,0.42" style="fill:rgb(0,0,0);font-family:URWPalladioL-Roma;font-size:9.96px;stroke:none;">, E. Camus</text>
   <text y="159.448" x="309.867" svgx:width="0.5" style="fill:rgb(0,0,0);font-family:URWPalladioL-Roma;font-size:7.57px;stroke:none;">5</text>
   <text y="163.064" x="314.151,316.641,319.091,327.937,330.427,332.877,342.113,346.79,352.755,358.721,363.397" svgx:width="0.25,0.55,1.0,0.25,0.55,0.95,0.48,0.61,0.61,0.48,0.55" style="fill:rgb(0,0,0);font-family:URWPalladioL-Roma;font-size:9.96px;stroke:none;">, W. Meddeb</text>
   <text y="159.448" x="371.288" svgx:width="0.5" style="fill:rgb(0,0,0);font-family:URWPalladioL-Roma;font-size:7.57px;stroke:none;">6</text>
   <text y="163.064" x="375.572,378.062,380.512,386.478,388.918,392.17,401.406,403.896,406.336,413.424,418.306,422.163,427.591" svgx:width="0.25,0.55,0.61,0.25,0.33,0.95,0.25,0.55,0.73,0.5,0.4,0.56,0.88" style="fill:rgb(0,0,0);font-family:URWPalladioL-Roma;font-size:9.96px;stroke:none;">, E.-M. Karym</text>
   <text y="159.448" x="438.713" svgx:width="0.5" style="fill:rgb(0,0,0);font-family:URWPalladioL-Roma;font-size:7.57px;stroke:none;">7</text>
   <text y="163.064" x="442.997,445.487,447.937,455.533,458.023,460.464,466.429,471.311,477.276,480.957,485.634,491.599,497.564,500.405,506.088" svgx:width="0.25,0.55,0.78,0.25,0.55,0.61,0.5,0.61,0.4,0.48,0.61,0.61,0.29,0.58,0.48" style="fill:rgb(0,0,0);font-family:URWPalladioL-Roma;font-size:9.96px;stroke:none;">, A. Badreddine</text>
   <text y="159.448" x="513.261" svgx:width="0.5" style="fill:rgb(0,0,0);font-family:URWPalladioL-Roma;font-size:7.57px;stroke:none;">7</text>
   <text y="163.064" x="517.545" svgx:width="0.25" style="fill:rgb(0,0,0);font-family:URWPalladioL-Roma;font-size:9.96px;stroke:none;">,</text>
   <text y="176.573" x="76.147,83.743,86.23299999999999,88.517,96.64,101.522,105.378,110.26,115.142,117.983,120.824,125.706" svgx:width="0.78,0.25,0.55,0.83,0.5,0.4,0.5,0.5,0.29,0.29,0.5,0.58" style="fill:rgb(0,0,0);font-family:URWPalladioL-Roma;font-size:9.96px;stroke:none;">A. Harzallah</text>
   <text y="172.957" x="133.728" svgx:width="0.5" style="fill:rgb(0,0,0);font-family:URWPalladioL-Roma;font-size:7.57px;stroke:none;">1</text>
   <text y="176.573" x="138.012,140.502,142.816,147.941,150.431,152.725,160.848,165.73,171.696,173.9868,176.314,183.91,189.592,198.213,202.889" svgx:width="0.25,0.55,0.52,0.25,0.55,0.83,0.5,0.61,0.23,0.55,0.78,0.58,0.88,0.48,0.61" style="fill:rgb(0,0,0);font-family:URWPalladioL-Roma;font-size:9.96px;stroke:none;">, S. Hadj Ahmed</text>
   <text y="172.957" x="211.194" svgx:width="0.5" style="fill:rgb(0,0,0);font-family:URWPalladioL-Roma;font-size:7.57px;stroke:none;">1</text>
   <text y="176.573" x="215.478,217.96800000000002,220.282,224.9,227.39000000000001,229.674,237.231,243.118,246.975,251.856,257.539" svgx:width="0.25,0.55,0.6,0.25,0.55,0.77,0.6,0.4,0.5,0.58,0.61" style="fill:rgb(0,0,0);font-family:URWPalladioL-Roma;font-size:9.96px;stroke:none;">, P. Durand</text>
   <text y="172.957" x="265.843" svgx:width="0.5" style="fill:rgb(0,0,0);font-family:URWPalladioL-Roma;font-size:7.57px;stroke:none;">5</text>
   <text y="176.573" x="270.127,272.617,274.931,284.167,286.657,288.951,294.848,298.519,303.85,307.989" svgx:width="0.25,0.55,0.95,0.25,0.55,0.6,0.4,0.55,0.42,0.33" style="fill:rgb(0,0,0);font-family:URWPalladioL-Roma;font-size:9.96px;stroke:none;">, M. Prost</text>
   <text y="172.957" x="313.513" svgx:width="0.5" style="fill:rgb(0,0,0);font-family:URWPalladioL-Roma;font-size:7.57px;stroke:none;">5</text>
   <text y="176.573" x="317.797,320.28700000000003,322.61,331.846,334.336,336.621,345.857,350.533,352.818,356.675" svgx:width="0.25,0.55,0.95,0.25,0.55,0.95,0.48,0.23,0.4,0.29" style="fill:rgb(0,0,0);font-family:URWPalladioL-Roma;font-size:9.96px;stroke:none;">, M. Mejri</text>
   <text y="172.957" x="361.851" svgx:width="0.5" style="fill:rgb(0,0,0);font-family:URWPalladioL-Roma;font-size:7.57px;stroke:none;">6</text>
   <text y="176.573" x="366.135,368.625,370.948,380.184,382.67400000000004,384.959,391.881,397.563,402.24,406.096,411.525,416.406,421.737,427.625,430.466,433.717,442.953,447.835,450.676,456.104" svgx:width="0.25,0.55,0.95,0.25,0.55,0.71,0.58,0.48,0.4,0.56,0.5,0.55,0.6,0.29,0.33,0.95,0.5,0.29,0.56,0.29" style="fill:rgb(0,0,0);font-family:URWPalladioL-Roma;font-size:9.96px;stroke:none;">, M. Cherkaoui-Malki</text>
   <text y="172.957" x="461.281" svgx:width="0.5" style="fill:rgb(0,0,0);font-family:URWPalladioL-Roma;font-size:7.57px;stroke:none;">2</text>
   <text y="176.573" x="465.565,468.055,470.369,476.334,478.824,481.118,489.231,494.113,498.253,502.392,507.069" svgx:width="0.25,0.55,0.61,0.25,0.55,0.83,0.5,0.42,0.42,0.48,0.4" style="fill:rgb(0,0,0);font-family:URWPalladioL-Roma;font-size:9.96px;stroke:none;">, B. Nasser</text>
   <text y="172.957" x="513.261" svgx:width="0.5" style="fill:rgb(0,0,0);font-family:URWPalladioL-Roma;font-size:7.57px;stroke:none;">7</text>
   <text y="176.573" x="517.545" svgx:width="0.25" style="fill:rgb(0,0,0);font-family:URWPalladioL-Roma;font-size:9.96px;stroke:none;">,</text>
   <text y="190.083" x="76.535,85.96,88.44999999999999,90.941,99.23,104.211,113.008,121.805,126.786,135.583" svgx:width="0.95,0.25,0.55,0.83,0.5,0.88,0.88,0.5,0.88,0.29" style="fill:rgb(0,0,0);font-family:URWPalladioL-Roma;font-size:9.96px;stroke:none;">M. Hammami</text>
   <text y="186.466" x="140.973" svgx:width="0.5" style="fill:rgb(0,0,0);font-family:URWPalladioL-Roma;font-size:7.57px;stroke:none;">1</text>
   <text y="190.083" x="145.257,147.747,150.238,156.325,158.815,161.307,167.394,171.15,175.922,179.17,182.069,184.968,187.867,193.307" svgx:width="0.25,0.55,0.61,0.25,0.55,0.61,0.4,0.48,0.33,0.29,0.29,0.29,0.55,0.58" style="fill:rgb(0,0,0);font-family:URWPalladioL-Roma;font-size:9.96px;stroke:none;">, L. Bretillon</text>
   <text y="186.466" x="201.595" svgx:width="0.5" style="fill:rgb(0,0,0);font-family:URWPalladioL-Roma;font-size:7.57px;stroke:none;">4</text>
   <text y="190.083" x="208.37,213.351,219.15,225.22560000000001,227.727,235.329,237.81900000000002,240.31,246.397,249.296,254.278,259.259,263.015" svgx:width="0.5,0.58,0.61,0.55,0.76,0.25,0.55,0.61,0.29,0.5,0.5,0.4,0.61" style="fill:rgb(0,0,0);font-family:URWPalladioL-Roma;font-size:9.96px;stroke:none;">and G. Lizard</text>
   <text y="186.466" x="271.593" svgx:width="0.5" style="fill:rgb(0,0,0);font-family:URWPalladioL-Roma;font-size:7.57px;stroke:none;">2</text>
   <text y="209.174" x="82.698" svgx:width="0.5" style="fill:rgb(0,0,0);font-family:URWPalladioL-Roma;font-size:6.97px;stroke:none;">1</text>
   <text y="212.429" x="94.468,100.056,104.629,109.686,114.68,118.293,122.865,125.847,130.841,133.502,136.95,141.2556,145.108,147.65,155.251,160.765,163.747,167.359,170.021,173.002,175.664,180.657,185.98,188.2225,192.428,199.543,202.205,204.866,212.942,217.323,222.645,225.627,229.39440000000002,233.273,238.358,243.351,248.674,252.735,255.716,258.378,263.371,268.694,274.017,278.398,281.059,284.82640000000004,288.714,293.095,296.05510000000004,299.854,304.655,309.228,314.551" svgx:width="0.61,0.5,0.55,0.55,0.4,0.5,0.33,0.55,0.29,0.4,0.48,0.55,0.28,0.83,0.6,0.33,0.4,0.29,0.33,0.29,0.55,0.58,0.25,0.55,0.78,0.29,0.29,0.88,0.48,0.58,0.33,0.42,0.55,0.56,0.55,0.58,0.44,0.33,0.29,0.55,0.58,0.58,0.48,0.29,0.42,0.55,0.48,0.33,0.55,0.52,0.5,0.58,0.33" style="fill:rgb(0,0,0);font-family:URWPalladioL-Roma;font-size:8.97px;stroke:none;">Laboratoire ‘Nutrition, Aliments Fonctionnels et Sant</text>
   <text y="212.429" x="317.53" svgx:width="0.48" style="fill:rgb(0,0,0);font-family:VnURWPalladioL;font-size:8.97px;stroke:none;">é</text>
   <text y="212.429" x="325.685,331.465,336.038,339.916,343.976,349.491,352.153,356.726,359.387,362.835,367.216,369.758,372.0005,376.206,383.321,389.431,394.004,398.576,404.165,408.966,413.539,418.024,421.889,429.004,434.327,436.979,442.147,446.528,450.14,454.018,456.679" svgx:width="0.72,0.5,0.42,0.44,0.6,0.29,0.5,0.29,0.4,0.48,0.28,0.25,0.55,0.78,0.67,0.5,0.5,0.61,0.52,0.5,0.5,0.55,0.78,0.58,0.29,0.56,0.48,0.4,0.42,0.29,0.33" style="fill:rgb(0,0,0);font-family:URWPalladioL-Roma;font-size:8.97px;stroke:none;">Vasculaire’, UR12ES05 Universit</text>
   <text y="212.429" x="459.665" svgx:width="0.48" style="fill:rgb(0,0,0);font-family:VnURWPalladioL;font-size:8.97px;stroke:none;">é</text>
   <text y="212.429" x="467.821,473.409,477.7146,481.567,490.219,495.212,500.535,505.108,508.986,511.967,514.629,517.574" svgx:width="0.61,0.48,0.55,0.95,0.55,0.58,0.5,0.42,0.33,0.29,0.4,0.25" style="fill:rgb(0,0,0);font-family:URWPalladioL-Roma;font-size:8.97px;stroke:none;">de Monastir,</text>
   <text y="224.813" x="94.468,102.95,107.846,113.064,117.548,121.349,124.272,126.882,129.76,132.0025,134.243,138.932,144.339,149.558,152.167,155.969,158.578" svgx:width="0.95,0.55,0.58,0.5,0.42,0.33,0.29,0.4,0.25,0.55,0.61,0.6,0.58,0.29,0.42,0.29,0.5" style="fill:rgb(0,0,0);font-family:URWPalladioL-Roma;font-size:8.97px;stroke:none;">Monastir, Tunisia</text>
   <text y="234.938" x="83.047" svgx:width="0.5" style="fill:rgb(0,0,0);font-family:URWPalladioL-Roma;font-size:6.97px;stroke:none;">2</text>
   <text y="238.193" x="94.468,100.056,105.178,110.693,113.354,118.851,123.1566,127.576,130.118,135.706,138.368,143.361,147.422,152.745,155.406,163.482,166.143,170.4486,174.859,180.447,185.829,190.306,195.83,200.211,203.659,208.652,213.372,218.457,222.334,227.328,235.404,239.784,242.0265,246.936,250.019,255.341,260.902,265.475,273.551,281.626,286.199,289.181,291.842,296.836,302.03860000000003,306.503,310.883,313.8431,318.2" svgx:width="0.61,0.56,0.6,0.29,0.6,0.48,0.55,0.28,0.61,0.29,0.55,0.44,0.58,0.29,0.88,0.29,0.48,0.55,0.61,0.6,0.55,0.6,0.48,0.4,0.55,0.52,0.56,0.42,0.55,0.88,0.48,0.25,0.55,0.34,0.58,0.61,0.5,0.88,0.88,0.5,0.33,0.29,0.55,0.58,0.55,0.48,0.33,0.55,0.95" style="fill:rgb(0,0,0);font-family:URWPalladioL-Roma;font-size:8.97px;stroke:none;">Equipe ‘Biochimie du Peroxysome, Inﬂammation et M</text>
   <text y="238.193" x="326.854" svgx:width="0.48" style="fill:rgb(0,0,0);font-family:VnURWPalladioL;font-size:8.97px;stroke:none;">é</text>
   <text y="238.193" x="331.235,334.216,338.789,343.847,348.841,351.502,354.163,358.041,366.117,370.42260000000005,374.842,380.43,383.082,388.579,391.24,396.828,399.49,404.611,410.126,414.507,417.0186,421.394,426.982,433.97860000000003,438.432,443.005,447.578,452.151,456.724,462.266,469.381,474.704,477.365,482.533,486.914,490.526,494.404,497.065" svgx:width="0.33,0.5,0.55,0.55,0.29,0.29,0.42,0.88,0.48,0.55,0.61,0.29,0.6,0.29,0.61,0.29,0.56,0.6,0.48,0.28,0.55,0.61,0.78,0.55,0.5,0.5,0.5,0.5,0.61,0.78,0.58,0.29,0.56,0.48,0.4,0.42,0.29,0.33" style="fill:rgb(0,0,0);font-family:URWPalladioL-Roma;font-size:8.97px;stroke:none;">tabolisme Lipidique’ EA 7270/Universit</text>
   <text y="238.193" x="500.05" svgx:width="0.48" style="fill:rgb(0,0,0);font-family:VnURWPalladioL;font-size:8.97px;stroke:none;">é</text>
   <text y="238.193" x="508.772,514.36" svgx:width="0.61,0.48" style="fill:rgb(0,0,0);font-family:URWPalladioL-Roma;font-size:8.97px;stroke:none;">de</text>
   <text y="250.576" x="94.468,99.946,104.842,110.249,113.629,118.615,123.51,128.495,133.714,138.0196,140.25,145.236,148.777,153.261,158.479,162.46,167.679,171.974,174.959,181.317,186.212,194.13" svgx:width="0.61,0.55,0.6,0.4,0.56,0.55,0.56,0.58,0.48,0.55,0.56,0.4,0.5,0.58,0.44,0.58,0.48,0.33,0.71,0.55,0.88,0.33" style="fill:rgb(0,0,0);font-family:URWPalladioL-Roma;font-size:8.97px;stroke:none;">Bourgogne Franche-Comt</text>
   <text y="250.576" x="197.051" svgx:width="0.48" style="fill:rgb(0,0,0);font-family:VnURWPalladioL;font-size:8.97px;stroke:none;">é</text>
   <text y="250.576" x="201.346,206.78,209.801,215.02,218.822,223.116,226.658,234.575,236.8175,239.059,245.999,248.608,250.706,255.602,260.82,263.0625,265.303,270.289,273.83,278.314,283.532,287.513" svgx:width="0.61,0.34,0.58,0.42,0.48,0.4,0.88,0.25,0.55,0.77,0.29,0.23,0.55,0.58,0.25,0.55,0.56,0.4,0.5,0.58,0.44,0.48" style="fill:rgb(0,0,0);font-family:URWPalladioL-Roma;font-size:8.97px;stroke:none;">/Inserm, Dijon, France</text>
   <text y="260.701" x="83.047" svgx:width="0.5" style="fill:rgb(0,0,0);font-family:URWPalladioL-Roma;font-size:6.97px;stroke:none;">3</text>
   <text y="263.956" x="94.468,99.946,104.43,109.388,114.284,117.825,122.309,125.232,130.127,132.737,136.117,140.4226,142.653,148.132,152.4376,154.668,160.147,162.756,167.652,171.633,176.851,179.461,187.378,189.987,194.282,196.52450000000002,198.765,203.751,208.234,212.215,217.622,220.231" svgx:width="0.61,0.5,0.55,0.55,0.4,0.5,0.33,0.55,0.29,0.4,0.48,0.55,0.61,0.48,0.55,0.61,0.29,0.55,0.44,0.58,0.29,0.88,0.29,0.48,0.25,0.55,0.56,0.5,0.44,0.6,0.29,0.33" style="fill:rgb(0,0,0);font-family:URWPalladioL-Roma;font-size:8.97px;stroke:none;">Laboratoire de Biochimie, Facult</text>
   <text y="263.956" x="223.152" svgx:width="0.48" style="fill:rgb(0,0,0);font-family:VnURWPalladioL;font-size:8.97px;stroke:none;">é</text>
   <text y="263.956" x="229.688,235.166,239.4716,241.703" svgx:width="0.61,0.48,0.55,0.95" style="fill:rgb(0,0,0);font-family:URWPalladioL-Roma;font-size:8.97px;stroke:none;">de M</text>
   <text y="263.956" x="250.185" svgx:width="0.48" style="fill:rgb(0,0,0);font-family:VnURWPalladioL;font-size:8.97px;stroke:none;">é</text>
   <text y="263.956" x="254.48,259.958,264.253,268.234,270.844,276.062,280.357,282.59950000000003,284.84,289.548,294.443,299.85,303.652,307.453,311.748,313.9905,316.232,320.921,326.328,331.546,334.155,337.957,340.566" svgx:width="0.61,0.48,0.44,0.29,0.58,0.48,0.25,0.55,0.52,0.55,0.6,0.42,0.42,0.48,0.25,0.55,0.61,0.6,0.58,0.29,0.42,0.29,0.5" style="fill:rgb(0,0,0);font-family:URWPalladioL-Roma;font-size:8.97px;stroke:none;">decine, Sousse, Tunisia</text>
   <text y="274.081" x="83.047" svgx:width="0.5" style="fill:rgb(0,0,0);font-family:URWPalladioL-Roma;font-size:6.97px;stroke:none;">4</text>
   <text y="277.336" x="94.468,100.056,105.141,109.4466,112.229,116.802,122.125,127.5967,130.411,138.011,143.526,146.507,150.12,152.781,155.763,158.424,163.418,168.6206,171.448,177.557,181.938,185.816,190.187,194.76,198.217,202.278,207.48059999999998,210.299,217.277,220.734,225.727,231.242,236.739,238.9815,241.842,248.327,252.707,258.03,261.012,264.46,268.7656,271.548,277.136,281.516,285.28340000000003,288.092,292.894,296.954,299.616,303.997,309.319,313.38,317.761,321.52840000000003,324.346,329.934,335.31600000000003,338.147,345.125,350.118,355.633,358.5931,361.322,365.703,368.6631,371.382,376.97,381.27560000000005,384.058,386.72,389.262,396.378,399.039,401.7,409.776,414.157,419.48,422.461,427.034,430.016,432.677,437.67,442.993,445.2355,448.097,455.212,463.864,469.8739,472.671,477.244,481.817,486.39,490.875,493.67,496.752,504.352,510.461,517.577" svgx:width="0.61,0.56,0.48,0.55,0.5,0.58,0.61,0.55,0.83,0.6,0.33,0.4,0.29,0.33,0.29,0.55,0.58,0.55,0.67,0.48,0.42,0.48,0.5,0.4,0.44,0.58,0.55,0.76,0.4,0.55,0.6,0.6,0.25,0.55,0.71,0.48,0.58,0.33,0.4,0.48,0.55,0.61,0.48,0.42,0.55,0.52,0.44,0.29,0.48,0.58,0.44,0.48,0.42,0.55,0.61,0.6,0.55,0.76,0.55,0.6,0.33,0.55,0.48,0.33,0.55,0.61,0.48,0.55,0.29,0.28,0.78,0.29,0.29,0.88,0.48,0.58,0.33,0.5,0.33,0.29,0.55,0.58,0.25,0.55,0.78,0.95,0.67,0.55,0.5,0.5,0.5,0.5,0.55,0.34,0.83,0.67,0.78,0.25" style="fill:rgb(0,0,0);font-family:URWPalladioL-Roma;font-size:8.97px;stroke:none;">Eye and Nutrition Research Group, Centre des Sciences du Goût et de l’Alimentation, UMR 1324 INRA,</text>
   <text y="289.72" x="94.468,98.951,103.434,107.918,112.403,114.642,121.0,128.451,134.44,139.148,141.3905,143.631,150.607,155.825,158.434,163.5,167.795,171.337,175.139,177.748,180.671,185.6942,187.898,192.794,195.75410000000002,198.021,203.499,208.395,213.802,217.182,222.168,227.063,232.049,237.267,241.5726,243.803,248.789,252.331,256.814,262.032,266.013,271.232,275.527,278.512,284.87,289.765,297.683" svgx:width="0.5,0.5,0.5,0.5,0.55,0.71,0.83,0.67,0.52,0.25,0.55,0.78,0.58,0.29,0.56,0.48,0.4,0.42,0.29,0.33,0.56,0.55,0.55,0.33,0.55,0.61,0.55,0.6,0.4,0.56,0.55,0.56,0.58,0.48,0.55,0.56,0.4,0.5,0.58,0.44,0.58,0.48,0.33,0.71,0.55,0.88,0.33" style="fill:rgb(0,0,0);font-family:URWPalladioL-Roma;font-size:8.97px;stroke:none;">6265 CNRS, University of Bourgogne Franche-Comt</text>
   <text y="289.72" x="300.603" svgx:width="0.48" style="fill:rgb(0,0,0);font-family:VnURWPalladioL;font-size:8.97px;stroke:none;">é</text>
   <text y="289.72" x="304.898,307.14050000000003,309.381,316.321,318.93,321.029,325.924,331.143,333.3855,335.626,340.611,344.153,348.636,353.855,357.836" svgx:width="0.25,0.55,0.77,0.29,0.23,0.55,0.58,0.25,0.55,0.56,0.4,0.5,0.58,0.44,0.48" style="fill:rgb(0,0,0);font-family:URWPalladioL-Roma;font-size:8.97px;stroke:none;">, Dijon, France</text>
   <text y="299.845" x="83.047" svgx:width="0.5" style="fill:rgb(0,0,0);font-family:URWPalladioL-Roma;font-size:6.97px;stroke:none;">5</text>
   <text y="303.099" x="94.468,99.946,104.43,109.388,114.284,117.825,122.309,125.232,130.127,132.737,136.117,140.4226,142.653,148.132,155.108,161.097,168.073,171.059,175.766,181.182,184.204,190.193,197.169,202.648,204.8905,207.131,213.488,218.384,223.79,226.713,231.008,234.55,239.769,244.664,249.883,252.12550000000002,254.366,259.351,262.893,267.376,272.595,276.576" svgx:width="0.61,0.5,0.55,0.55,0.4,0.5,0.33,0.55,0.29,0.4,0.48,0.55,0.61,0.78,0.67,0.78,0.33,0.52,0.6,0.34,0.67,0.78,0.61,0.25,0.55,0.71,0.55,0.6,0.33,0.48,0.4,0.58,0.55,0.58,0.25,0.55,0.56,0.4,0.5,0.58,0.44,0.48" style="fill:rgb(0,0,0);font-family:URWPalladioL-Roma;font-size:8.97px;stroke:none;">Laboratoire LARA-SPIRAL, Couternon, France</text>
   <text y="313.225" x="83.047" svgx:width="0.5" style="fill:rgb(0,0,0);font-family:URWPalladioL-Roma;font-size:6.97px;stroke:none;">6</text>
   <text y="316.479" x="94.468,97.49,102.708,106.51,109.433,112.042,114.965,120.372,123.3321,125.537,130.244,135.651" svgx:width="0.34,0.58,0.42,0.33,0.29,0.33,0.6,0.33,0.55,0.52,0.6,0.6" style="fill:rgb(0,0,0);font-family:URWPalladioL-Roma;font-size:8.97px;stroke:none;">Institut Sup</text>
   <text y="316.479" x="141.039" svgx:width="0.48" style="fill:rgb(0,0,0);font-family:VnURWPalladioL;font-size:8.97px;stroke:none;">é</text>
   <text y="316.479" x="145.334,148.876,151.485,155.78,161.187,164.775,166.97,172.448,176.7536,178.985,184.463,187.073,191.968,194.891,199.186,203.167,208.386,213.604,218.5,221.109,226.005,230.99,233.599,237.894,240.1365,242.377" svgx:width="0.4,0.29,0.48,0.6,0.4,0.55,0.61,0.48,0.55,0.61,0.29,0.55,0.33,0.48,0.44,0.58,0.58,0.55,0.29,0.55,0.56,0.29,0.48,0.25,0.55,0.61" style="fill:rgb(0,0,0);font-family:URWPalladioL-Roma;font-size:8.97px;stroke:none;">rieur de Biotechnologie, B</text>
   <text y="316.479" x="247.854" svgx:width="0.48" style="fill:rgb(0,0,0);font-family:VnURWPalladioL;font-size:8.97px;stroke:none;">é</text>
   <text y="316.479" x="252.149,254.247,258.73,260.9725,263.214,267.903,273.31,278.528,281.137,284.939,287.548" svgx:width="0.23,0.5,0.25,0.55,0.61,0.6,0.58,0.29,0.42,0.29,0.5" style="fill:rgb(0,0,0);font-family:URWPalladioL-Roma;font-size:8.97px;stroke:none;">ja, Tunisia</text>
   <text y="326.604" x="83.047" svgx:width="0.5" style="fill:rgb(0,0,0);font-family:URWPalladioL-Roma;font-size:6.97px;stroke:none;">7</text>
   <text y="329.859" x="94.468,99.946,104.43,109.388,114.284,117.825,122.309,125.232,130.127,133.669,138.6922,140.896,145.792,148.7521,151.019,153.512,158.99,161.599,166.495,170.476,175.695,179.99,187.907,190.516,194.318,197.241,200.783,205.8062,208.01,212.905,215.8651,218.133,225.584,229.879,235.285,238.666,243.561,247.363,251.344,253.953,258.248,263.467,267.448,271.743,274.235,276.4775,278.719,285.694,290.913,293.522,298.588,302.883,306.425,310.227,312.836,315.759,320.7822,322.986,330.446,334.929,338.731,342.532,347.016,352.21860000000004,354.476,357.497,359.7395,361.981,366.688,370.983,373.906,376.829,381.312,384.235,386.4775,388.718,397.201,402.096,405.477,410.372,414.353,418.334" svgx:width="0.61,0.5,0.55,0.55,0.4,0.5,0.33,0.55,0.4,0.56,0.55,0.55,0.33,0.55,0.28,0.61,0.29,0.55,0.44,0.58,0.48,0.88,0.29,0.42,0.33,0.4,0.56,0.55,0.55,0.33,0.55,0.83,0.48,0.6,0.4,0.55,0.42,0.44,0.29,0.48,0.58,0.44,0.48,0.28,0.25,0.55,0.78,0.58,0.29,0.56,0.48,0.4,0.42,0.29,0.33,0.56,0.55,0.83,0.5,0.42,0.42,0.5,0.58,0.55,0.34,0.25,0.55,0.52,0.48,0.33,0.33,0.5,0.33,0.25,0.55,0.95,0.55,0.4,0.55,0.44,0.44,0.55" style="fill:rgb(0,0,0);font-family:URWPalladioL-Roma;font-size:8.97px;stroke:none;">Laboratory of ‘Biochemistry of Neuroscience’, University Hassan I, Settat, Morocco</text>
   <text y="353.331" x="97.795,104.024,109.938,114.7188,117.479,123.098,127.966,133.88,138.747,144.895,149.407,152.364,157.445,160.33339999999998,163.065,168.145,172.657,175.97,178.927,184.669,187.626,190.938,193.896,198.763,202.9462,205.744,211.293,214.5798,217.339,223.08,227.948,233.598,238.465,241.778,246.859,252.479,255.436,260.21680000000003,262.976,268.524,271.481,274.438,278.6212,281.42,285.251,290.118,294.427,300.554,303.511,306.824,311.0072,313.805,317.189,321.02,326.569,335.3338,338.214,341.527,347.441,352.309,355.266,359.25,361.942,366.454,372.002,380.975,387.083,392.631,398.545,403.413,409.327,412.64,416.948,419.438,423.116,429.346,435.26,441.387,445.696,448.18600000000004,450.95,459.425,464.2058,466.955,469.912,475.826,479.139,484.006,489.92,496.129,500.997,507.0726,509.878,513.191" svgx:width="0.61,0.58,0.48,0.55,0.55,0.48,0.58,0.48,0.61,0.44,0.29,0.5,0.29,0.55,0.5,0.44,0.33,0.29,0.56,0.29,0.33,0.29,0.48,0.42,0.55,0.55,0.33,0.55,0.56,0.48,0.56,0.48,0.33,0.5,0.55,0.29,0.48,0.55,0.55,0.29,0.29,0.42,0.55,0.4,0.48,0.42,0.6,0.29,0.33,0.42,0.55,0.33,0.4,0.55,0.88,0.55,0.33,0.58,0.48,0.29,0.4,0.55,0.44,0.55,0.88,0.6,0.55,0.58,0.48,0.58,0.33,0.42,0.25,0.55,0.61,0.58,0.6,0.42,0.25,0.55,0.83,0.48,0.55,0.29,0.58,0.33,0.48,0.58,0.61,0.48,0.61,0.55,0.33,0.55" style="fill:rgb(0,0,0);font-family:URWPalladioL-Roma;font-size:9.96px;stroke:none;">The beneﬁcial activities of vegetable oils results from their components. Thus, we intended to</text>
   <text y="366.841" x="76.535,80.87,86.201,94.822,100.69,105.571,109.252,114.0328,116.174,122.042,127.724,133.153,136.336,141.666,145.806,148.989,153.665,157.346,162.677,165.518,169.658,172.148,174.393,177.644,182.526,185.709,188.892,194.46959999999999,196.566,201.447,205.782,208.623,214.589,218.728,221.21800000000002,223.473,226.656,231.987,236.322,241.653,247.521,253.203,257.879,261.551,266.881,269.722,273.862,276.35200000000003,278.607,283.489,289.171,295.2466,297.382,303.25,308.581,311.422,316.85,322.718,328.4,333.077,338.759,344.09,346.931,351.1142,353.326,357.661,362.992,368.674,371.857,376.533,382.216,385.399,389.5822,391.784,397.115,400.40180000000004,402.611,408.577,411.418,416.094,419.277,424.159,428.016,433.59360000000004,435.699,440.581,446.263,452.3386,454.474,458.809,464.14,468.28,476.901,481.577,484.76,487.601,491.9834,494.192,499.073,502.744,508.173,513.054" svgx:width="0.44,0.55,0.88,0.6,0.5,0.4,0.48,0.55,0.6,0.58,0.56,0.33,0.55,0.42,0.33,0.48,0.4,0.55,0.29,0.42,0.25,0.55,0.33,0.5,0.33,0.33,0.56,0.55,0.5,0.44,0.29,0.61,0.42,0.25,0.55,0.33,0.55,0.44,0.55,0.6,0.58,0.48,0.4,0.55,0.29,0.42,0.25,0.55,0.5,0.58,0.61,0.55,0.6,0.55,0.29,0.56,0.6,0.58,0.48,0.58,0.55,0.29,0.42,0.55,0.44,0.55,0.58,0.33,0.48,0.58,0.33,0.42,0.55,0.55,0.33,0.55,0.61,0.29,0.48,0.33,0.5,0.4,0.56,0.55,0.5,0.58,0.61,0.55,0.44,0.55,0.42,0.88,0.48,0.33,0.29,0.44,0.55,0.5,0.4,0.56,0.5,0.58" style="fill:rgb(0,0,0);font-family:URWPalladioL-Roma;font-size:9.96px;stroke:none;">compare phytosterols, fatty acids, tocopherols, and polyphenols contents of dietary and cosmetic argan</text>
   <text y="380.35" x="76.535,81.904,84.765,87.6534,90.114,93.389,101.039,108.768,112.042,114.532,116.978,122.347,125.209,128.07,133.626,138.4068,140.814,146.183,149.044,151.9324,154.393,157.668,165.397,173.125,175.615,178.062,183.195,189.124,194.847,197.708,201.877,204.739,209.655,212.145,214.601,223.904,229.272,232.979,238.348,242.714,247.08,252.55800000000002,254.927,259.843,265.566,271.6416,274.062,279.224,285.134,290.051,292.912,298.635,301.909,304.399,306.846,311.015,313.876,316.738,322.205,327.643,333.572,344.742,353.425,358.341,362.225,365.087,370.003,375.726,381.656,392.816,396.985,401.695,406.406,412.4816,414.901,420.27,423.132,425.993,430.1762,432.64,435.915,441.077,450.379,455.541,463.27,465.76,468.216,474.775,479.691,485.159,490.882,496.25,502.18,507.096,512.819,517.529" svgx:width="0.55,0.29,0.29,0.55,0.33,0.78,0.79,0.33,0.25,0.55,0.55,0.29,0.29,0.56,0.48,0.55,0.55,0.29,0.29,0.55,0.33,0.79,0.79,0.25,0.55,0.61,0.6,0.58,0.29,0.42,0.29,0.5,0.25,0.55,0.95,0.55,0.4,0.55,0.44,0.44,0.55,0.55,0.5,0.58,0.61,0.55,0.52,0.6,0.5,0.29,0.58,0.33,0.25,0.55,0.42,0.29,0.29,0.56,0.55,0.6,0.88,0.88,0.5,0.4,0.29,0.5,0.58,0.6,0.88,0.42,0.48,0.48,0.61,0.55,0.55,0.29,0.29,0.42,0.55,0.33,0.52,0.95,0.52,0.79,0.25,0.55,0.67,0.5,0.56,0.58,0.55,0.6,0.5,0.58,0.48,0.25" style="fill:rgb(0,0,0);font-family:URWPalladioL-Roma;font-size:9.96px;stroke:none;">oil (AO), olive oil (OO; Tunisia, Morocco and Spain), silybummarianumseed oils (SMSO; Zaghouane,</text>
   <text y="393.859" x="76.535,82.604,85.494,90.461,95.218,99.142,102.38,107.138,109.628,112.124,117.339,122.762,128.751,132.963,137.174,141.932,145.24,147.73000000000002,150.226,156.007,158.897,164.42,169.177,172.068,174.958,179.938,182.428,186.639,191.397,196.155,202.2306,204.727,210.15,213.04,215.92839999999998,218.434,221.741,229.995,235.21,243.017,246.3038,248.828,253.794,259.575,265.6506,268.147,272.557,277.98,280.871,285.837,290.817,293.306,298.73,301.62,304.5084,307.014,310.321,317.363,325.171,328.478,330.968,333.464,339.454,343.665,346.556,352.336,357.91360000000003,360.362,365.328,371.109,376.076,378.966,384.489,387.727,390.617,395.027,399.994,402.8824,405.387,414.158,418.915,422.154,427.934,433.358,439.427,443.638,446.128,449.24,455.329,461.11,465.8908,468.37,473.337,479.118,482.356,485.246,490.669,495.795,498.685,504.754,509.72,515.501" svgx:width="0.61,0.29,0.5,0.48,0.4,0.33,0.48,0.25,0.55,0.52,0.55,0.6,0.42,0.42,0.48,0.33,0.25,0.55,0.58,0.29,0.56,0.48,0.29,0.29,0.5,0.55,0.42,0.48,0.48,0.61,0.55,0.55,0.29,0.29,0.55,0.33,0.83,0.52,0.79,0.33,0.55,0.5,0.58,0.61,0.55,0.44,0.55,0.29,0.5,0.5,0.55,0.55,0.29,0.29,0.55,0.33,0.71,0.79,0.33,0.25,0.55,0.6,0.42,0.29,0.58,0.56,0.55,0.5,0.58,0.5,0.29,0.56,0.33,0.29,0.44,0.5,0.29,0.55,0.88,0.48,0.33,0.58,0.55,0.61,0.42,0.25,0.55,0.61,0.58,0.48,0.55,0.5,0.58,0.33,0.29,0.55,0.52,0.29,0.61,0.5,0.58,0.33" style="fill:rgb(0,0,0);font-family:URWPalladioL-Roma;font-size:9.96px;stroke:none;">Bizerte, Sousse), nigella seed oil (NSO) and colza oil (CO), using analytical methods. The antioxidant</text>
   <text y="407.369" x="76.236,82.164,87.549,90.764,95.489,101.229,104.444,107.314,112.246,115.1344,117.601,122.987,126.2738,128.766,131.982,137.722,142.5028,144.932,150.317,153.187,156.057,160.2402,162.734,170.96,175.892,180.0752,182.559,187.283,192.856,197.787,200.657,206.605,211.536,214.752,219.476,225.5516,227.988,236.213,239.084,242.299,248.07580000000002,250.535,257.695,264.284,270.3596,272.795,276.011,280.735,284.917,288.132,290.622,293.685,301.437,304.307,307.178,311.3612,313.855,319.595,324.527,330.6026,333.038,338.779,341.649,347.133,352.90979999999996,355.368,362.361,367.292,372.224,374.69,379.67,382.107,386.486,391.871,397.611,400.827,405.551,411.291,414.507,418.688,421.178,423.64,431.865,434.735,437.951,443.7278,446.186,451.927,454.797,460.281,466.021,470.745,474.927,478.21380000000005,480.628,485.559,494.268,499.654,505.601,511.341,514.557" svgx:width="0.6,0.55,0.33,0.48,0.58,0.33,0.29,0.5,0.29,0.55,0.55,0.33,0.55,0.33,0.58,0.48,0.55,0.55,0.29,0.29,0.42,0.55,0.83,0.5,0.42,0.55,0.48,0.56,0.5,0.29,0.6,0.5,0.33,0.48,0.61,0.55,0.83,0.29,0.33,0.58,0.55,0.73,0.67,0.61,0.55,0.33,0.48,0.42,0.33,0.25,0.55,0.79,0.29,0.29,0.42,0.55,0.58,0.5,0.61,0.55,0.58,0.29,0.56,0.58,0.55,0.71,0.5,0.5,0.25,0.5,0.55,0.44,0.55,0.58,0.33,0.48,0.58,0.33,0.42,0.25,0.55,0.83,0.29,0.33,0.58,0.55,0.58,0.29,0.56,0.58,0.48,0.42,0.33,0.55,0.5,0.88,0.55,0.6,0.58,0.33,0.42" style="fill:rgb(0,0,0);font-family:URWPalladioL-Roma;font-size:9.96px;stroke:none;">potential of the oils was evaluated with KRL test. Oils had high C18:2 contents, with highest amounts</text>
   <text y="420.878" x="76.535,79.376,85.1528,87.548,92.674,101.91,107.036,117.199,122.081,127.763,133.8386,136.218,144.332,149.457,157.131,159.621,162.062,168.984,179.148,184.83,189.712,195.7876,198.167,201.35,207.032,211.8128,214.198,219.88,222.722,228.15,233.832,238.509,242.649,245.9358,248.321,253.203,261.824,267.155,273.042,278.724,282.0108,284.397,289.727,293.0138,295.468,302.391,307.272,312.154,314.595,319.476,321.966,325.002,328.293,331.476,335.6592,338.105,340.946,345.623,351.139,355.816,358.70439999999996,361.146,369.289,374.171,378.3542,380.8,385.477,388.318,393.746,399.428,402.7148,405.101,408.284,413.762,416.104,419.287,423.964,429.7408,432.136,435.387,440.718,443.559,449.524,453.7072,456.153,461.836,464.677,470.105,475.788,480.464,484.448,486.81,489.652,495.42879999999997,497.823,505.937,511.063" svgx:width="0.29,0.58,0.55,0.52,0.95,0.52,0.79,0.5,0.58,0.61,0.55,0.83,0.52,0.79,0.25,0.55,0.71,0.79,0.58,0.5,0.61,0.55,0.33,0.58,0.48,0.55,0.58,0.29,0.56,0.58,0.48,0.42,0.33,0.55,0.5,0.88,0.55,0.6,0.58,0.33,0.55,0.55,0.33,0.55,0.71,0.5,0.5,0.25,0.5,0.25,0.55,0.34,0.33,0.42,0.55,0.29,0.48,0.56,0.48,0.29,0.55,0.83,0.5,0.42,0.55,0.48,0.29,0.56,0.58,0.33,0.55,0.33,0.55,0.55,0.33,0.48,0.58,0.55,0.33,0.55,0.29,0.61,0.42,0.55,0.58,0.29,0.56,0.58,0.48,0.4,0.55,0.29,0.58,0.55,0.83,0.52,0.79" style="fill:rgb(0,0,0);font-family:URWPalladioL-Roma;font-size:9.96px;stroke:none;">in SMSOand NSO. COhad the highest amount of C18:3. Its level was eight to ten folds higher in NSO</text>
   <text y="434.388" x="76.535,80.932,86.339,95.083,101.035,105.986,109.719,114.463,120.53859999999999,122.999,126.227,131.705,134.12,137.348,143.112,147.8928,150.331,158.035,165.9034,168.304,173.256,179.019,185.0946,187.556,192.755,202.123,207.322,215.105,217.595,220.067,227.85,235.7184,238.119,243.071,248.834,254.9096,257.37,265.075,272.9434,275.334,281.098,286.049,292.1246,294.585,297.814,303.577,308.3578,310.806,316.57,319.451,324.957,330.721,335.464,339.663,342.94980000000004,345.377,348.259,353.002,358.597,363.341,366.2294,368.708,374.115,377.40180000000004,379.898,386.919,391.871,396.822,399.298,404.249,406.73900000000003,409.805,417.588,425.45640000000003,427.857,433.621,438.572,444.6476,447.109,450.337,456.1,460.8808,463.329,469.093,471.975,477.481,483.244,487.987,492.186,495.4728,497.89,500.772,505.515,511.111,515.854" svgx:width="0.44,0.55,0.88,0.6,0.5,0.4,0.48,0.61,0.55,0.33,0.55,0.55,0.33,0.58,0.48,0.55,0.78,0.79,0.55,0.5,0.58,0.61,0.55,0.52,0.95,0.52,0.79,0.25,0.55,0.79,0.79,0.55,0.5,0.58,0.61,0.55,0.78,0.79,0.55,0.58,0.5,0.61,0.55,0.33,0.58,0.48,0.55,0.58,0.29,0.56,0.58,0.48,0.42,0.33,0.55,0.29,0.48,0.56,0.48,0.29,0.55,0.55,0.33,0.55,0.71,0.5,0.5,0.25,0.5,0.25,0.55,0.79,0.79,0.55,0.58,0.5,0.61,0.55,0.33,0.58,0.48,0.55,0.58,0.29,0.56,0.58,0.48,0.42,0.33,0.55,0.29,0.48,0.56,0.48,0.29" style="fill:rgb(0,0,0);font-family:URWPalladioL-Roma;font-size:9.96px;stroke:none;">compared to the AO and SMSO. OO and AO had the highest level of C18:1. OO had the highest level</text>
   <text y="447.897" x="76.535,81.877,85.1638,87.629,94.566,99.457,104.349,106.795,111.686,114.176,117.224,124.16,129.052,133.943,136.389,141.369,143.766,148.657,154.351,160.4266,162.823,169.76,174.651,179.543,181.989,186.969,189.375,197.535,202.221,205.899,210.6798,213.08,216.338,221.68,227.579,233.273,239.3486,241.745,249.904,252.751,255.941,261.7178,264.119,268.806,271.653,276.339,281.866,286.758,289.947,294.634,300.7096,303.106,307.997,316.636,321.978,327.877,333.571,336.76,340.9432,343.403,346.25,352.0268,354.429,359.565,368.82,373.956,381.646,384.136,386.587,393.523,403.707,408.599,414.293,420.3686,422.755,428.733,433.419,437.283,442.723,447.615,453.308,458.0888,460.489,468.101,478.285,486.444,491.131,494.809,499.5898,501.99,505.854,508.701,513.045" svgx:width="0.55,0.33,0.55,0.71,0.5,0.5,0.25,0.5,0.25,0.55,0.71,0.5,0.5,0.25,0.5,0.55,0.5,0.58,0.61,0.55,0.71,0.5,0.5,0.25,0.5,0.55,0.83,0.48,0.4,0.48,0.55,0.33,0.55,0.6,0.58,0.61,0.55,0.83,0.29,0.33,0.58,0.55,0.48,0.29,0.48,0.56,0.5,0.33,0.48,0.61,0.55,0.5,0.88,0.55,0.6,0.58,0.33,0.42,0.55,0.29,0.58,0.55,0.52,0.95,0.52,0.79,0.25,0.55,0.71,0.79,0.5,0.58,0.61,0.55,0.61,0.48,0.4,0.56,0.5,0.58,0.48,0.55,0.78,0.79,0.83,0.48,0.4,0.48,0.55,0.4,0.29,0.44,0.58" style="fill:rgb(0,0,0);font-family:URWPalladioL-Roma;font-size:9.96px;stroke:none;">of C16:0. C22:0 and C24:0 were found with elevated amounts in SMSO. COand Berkane AOwere rich</text>
   <text y="461.406" x="76.535,79.457" svgx:width="0.29,0.58" style="fill:rgb(0,0,0);font-family:URWPalladioL-Roma;font-size:9.96px;stroke:none;">in</text>
   <text y="461.406" x="87.802" svgx:width="0.61" style="fill:rgb(0,0,0);font-family:EURM10;font-size:9.96px;stroke:none;">γ</text>
   <text y="461.406" x="93.864,97.208,100.482,105.965,110.424,115.907,121.942,127.787,132.597,136.383,141.866,144.788,147.27800000000002,150.412,158.225,163.809,168.83,174.966,177.888,181.872,184.355,192.168,200.03640000000001,202.562,207.021,212.504,218.348,221.622,226.643,229.566,235.41,240.22,246.2956,248.857,252.131,257.975,262.7558,265.286,271.131,274.053,279.636,285.481,290.291,294.549,297.8358,300.324,305.345,314.212,319.695,325.751,331.595,334.88180000000006,337.37,342.853" svgx:width="0.33,0.33,0.55,0.44,0.55,0.6,0.58,0.48,0.4,0.55,0.29,0.25,0.55,0.78,0.56,0.5,0.61,0.29,0.4,0.55,0.78,0.79,0.55,0.44,0.55,0.58,0.33,0.5,0.29,0.58,0.48,0.61,0.55,0.33,0.58,0.48,0.55,0.58,0.29,0.56,0.58,0.48,0.42,0.33,0.55,0.5,0.88,0.55,0.6,0.58,0.33,0.55,0.55,0.33" style="fill:rgb(0,0,0);font-family:URWPalladioL-Roma;font-size:9.96px;stroke:none;">-tocopherol. Agadir AO contained the highest amount of</text>
   <text y="461.406" x="348.692" svgx:width="0.66" style="fill:rgb(0,0,0);font-family:EURM10;font-size:9.96px;stroke:none;">α</text>
   <text y="461.406" x="355.252,358.596,361.87,367.353,371.812,377.295,383.33,389.175,393.985,397.771,403.254,406.177,408.66700000000003,411.188,419.563,425.408,428.33,432.789,438.56579999999997,441.134,449.509,454.53,458.7132,461.289,467.324,471.11,475.92,480.178,484.988,490.833,494.11980000000005,496.607,499.53,505.30679999999995,507.875,512.896" svgx:width="0.33,0.33,0.55,0.44,0.55,0.6,0.58,0.48,0.4,0.55,0.29,0.25,0.55,0.83,0.58,0.29,0.44,0.58,0.55,0.83,0.5,0.42,0.55,0.6,0.4,0.48,0.42,0.48,0.58,0.33,0.55,0.29,0.58,0.55,0.5,0.58" style="fill:rgb(0,0,0);font-family:URWPalladioL-Roma;font-size:9.96px;stroke:none;">-tocopherol, which was present in an</text>
   <text y="474.916" x="76.535,81.521,87.515,93.508,97.268,102.045,106.473,109.375,114.361,119.876,122.778,127.5588,130.048,132.95,137.727,143.361,148.138,151.0264,153.543,156.445,162.2218,164.742,169.978,179.412,184.647,192.5154,194.979,201.631,206.617,212.162,217.966,223.411,229.424,234.411,240.1878,242.718,247.704,253.508,259.5836,262.094,267.31,273.324,279.128,282.03,286.258,289.16,294.146,299.9228,302.453,310.292,318.13,320.62,323.117,329.14,334.944,340.489,343.74,349.185,353.413,356.664,361.441,365.201,370.646,373.548,377.7312,380.269,386.263,390.022,395.467,401.501,404.403,409.1838,411.683,415.911,421.715,427.16,435.477,440.254,446.3296,448.84,452.092,457.896,462.882" svgx:width="0.5,0.6,0.6,0.4,0.48,0.44,0.29,0.5,0.55,0.29,0.48,0.55,0.29,0.48,0.56,0.48,0.29,0.55,0.29,0.58,0.55,0.52,0.95,0.52,0.79,0.55,0.67,0.5,0.56,0.58,0.55,0.6,0.5,0.58,0.55,0.5,0.58,0.61,0.55,0.61,0.6,0.58,0.29,0.42,0.29,0.5,0.58,0.55,0.79,0.79,0.25,0.55,0.6,0.58,0.56,0.33,0.55,0.42,0.33,0.48,0.4,0.55,0.29,0.42,0.55,0.6,0.4,0.55,0.61,0.29,0.48,0.55,0.42,0.58,0.55,0.83,0.48,0.61,0.55,0.33,0.58,0.5,0.33" style="fill:rgb(0,0,0);font-family:URWPalladioL-Roma;font-size:9.96px;stroke:none;">appreciable level in SMSO Zaghouan and Tunisian OO. Phytosterols proﬁle showed that</text>
   <text y="474.916" x="468.63" svgx:width="0.66" style="fill:rgb(0,0,0);font-family:EURM10;font-size:9.96px;stroke:none;">β</text>
   <text y="474.916" x="475.23,478.551,482.779,485.681,488.932,494.377,498.606,501.857,506.634,510.393,515.838" svgx:width="0.33,0.42,0.29,0.33,0.55,0.42,0.33,0.48,0.4,0.55,0.29" style="fill:rgb(0,0,0);font-family:URWPalladioL-Roma;font-size:9.96px;stroke:none;">-sitosterol</text>
   <text y="488.425" x="76.117,84.26,89.141,93.3242,95.761,98.944,104.626,109.4068,111.792,120.413,125.295,127.58,132.91,136.894,139.247,143.386,146.569,151.246,154.927,160.258,163.1464,165.579,168.42,174.1968,176.582,181.464,184.305,187.1934,189.635,192.818,198.501,203.2818,205.657,210.988,213.829,216.67,220.8532,223.29,226.131,231.9078,234.303,237.486,243.168,247.9488,250.324,255.001,260.039,264.374,269.051,274.918,278.101,280.942,286.273,292.0498,294.435,299.766,303.05280000000005,305.507,313.103,320.777,323.267,325.697,330.823,336.691,339.532,345.214,350.096,354.236,357.419,362.095,365.776,371.107,373.9954,376.428,381.309,386.992,393.0676,395.437,399.577,403.912,409.594,414.925,418.108,422.784,428.466,433.797,436.6854,439.128,447.271,451.947,455.618,460.3988,462.785,468.652,472.323,477.0,481.14,485.816,491.499,494.78580000000005,497.171,500.012,505.7888,508.174,513.056" svgx:width="0.83,0.5,0.42,0.55,0.33,0.58,0.48,0.55,0.88,0.5,0.23,0.55,0.4,0.55,0.42,0.33,0.48,0.4,0.55,0.29,0.55,0.29,0.58,0.55,0.5,0.29,0.29,0.55,0.33,0.58,0.48,0.55,0.55,0.29,0.29,0.42,0.55,0.29,0.58,0.55,0.33,0.58,0.48,0.55,0.48,0.52,0.44,0.48,0.6,0.33,0.29,0.55,0.58,0.55,0.55,0.33,0.55,0.78,0.79,0.25,0.55,0.52,0.6,0.29,0.58,0.5,0.42,0.33,0.48,0.4,0.55,0.29,0.55,0.5,0.58,0.61,0.55,0.42,0.44,0.58,0.55,0.33,0.48,0.58,0.55,0.29,0.55,0.83,0.48,0.4,0.48,0.55,0.6,0.4,0.48,0.42,0.48,0.58,0.33,0.55,0.29,0.58,0.55,0.5,0.58" style="fill:rgb(0,0,0);font-family:URWPalladioL-Roma;font-size:9.96px;stroke:none;">was the major sterol in all the oils in the exception of AO. Spinasterol and schotenol were present in an</text>
   <text y="501.935" x="76.535,79.437,88.243,94.236,99.681,103.62,106.872,111.858,117.662,120.9488,123.416,128.402,137.208,142.653,148.667,154.471,157.722,161.9052,164.453,167.355,173.1318,175.662,183.421,191.259,193.749,196.256,201.491,205.919,211.723,217.168,220.419,225.196,231.0,236.445,239.33339999999998,241.85,250.167,255.154,259.3372,261.885,266.871,269.773,274.002,279.48,281.95,288.043,292.82,296.071,300.848,305.276,308.527,313.304,319.3796,321.9,330.217,333.119,336.37,342.1468,344.677,350.481,353.383,358.928,364.732,369.509,373.737,377.02380000000005,379.491,382.393,387.17,392.805,397.582,400.4704,402.987,405.889,411.6658,414.196,419.432,428.866,434.101,441.94,444.43,446.936,452.171,455.423,458.325,463.869,472.675,477.661,481.89,485.141,489.918,493.677,499.122,502.024" svgx:width="0.29,0.88,0.6,0.55,0.4,0.33,0.5,0.58,0.33,0.55,0.5,0.88,0.55,0.6,0.58,0.33,0.42,0.55,0.29,0.58,0.55,0.78,0.79,0.25,0.55,0.52,0.44,0.58,0.55,0.33,0.48,0.58,0.55,0.29,0.55,0.83,0.5,0.42,0.55,0.5,0.29,0.42,0.55,0.55,0.61,0.48,0.33,0.48,0.44,0.33,0.48,0.61,0.55,0.83,0.29,0.33,0.58,0.55,0.58,0.29,0.56,0.58,0.48,0.42,0.33,0.55,0.29,0.48,0.56,0.48,0.29,0.55,0.29,0.58,0.55,0.52,0.95,0.52,0.79,0.25,0.55,0.52,0.33,0.29,0.56,0.88,0.5,0.42,0.33,0.48,0.4,0.55,0.29,0.25" style="fill:rgb(0,0,0);font-family:URWPalladioL-Roma;font-size:9.96px;stroke:none;">important amounts in AO. Schotenol was also detected with highest level in SMSO. Stigmasterol,</text>
   <text y="501.935" x="507.144" svgx:width="0.68" style="fill:rgb(0,0,0);font-family:PazoMath;font-size:9.96px;stroke:none;">∆</text>
   <text y="501.935" x="514.003" svgx:width="0.5" style="fill:rgb(0,0,0);font-family:URWPalladioL-Roma;font-size:9.96px;stroke:none;">7</text>
   <text y="515.444" x="76.535,81.003,86.034,94.919,100.966,105.786,110.052,113.333,118.152,121.946,127.44,130.368" svgx:width="0.44,0.5,0.88,0.6,0.48,0.42,0.33,0.48,0.4,0.55,0.29,0.25" style="fill:rgb(0,0,0);font-family:URWPalladioL-Roma;font-size:9.96px;stroke:none;">campesterol,</text>
   <text y="515.444" x="135.38" svgx:width="0.66" style="fill:rgb(0,0,0);font-family:EURM10;font-size:9.96px;stroke:none;">β</text>
   <text y="515.444" x="144.475,149.506,158.391,163.986,167.96,170.888,176.745,181.5258,184.06,192.452,197.272,201.065,205.8458,208.38,214.528,219.348,222.628,227.448,231.916,235.196,240.016,246.0916,248.659,253.479,257.746,263.793,268.613,273.08,276.008,281.04,283.968,286.896,291.384,293.874,296.395,299.323,305.09979999999996,307.674,312.957,322.476,327.758,335.667,338.157,340.668,346.746,352.24,355.168,360.763,366.81,372.666,377.486,383.342,388.836,391.7244,394.26,400.307,404.1,409.594,415.682,418.61,423.3908,425.925,430.192,436.048,441.542,449.934,454.754,460.8296,463.397,466.677,472.534,477.3148,479.849,485.896,489.69,494.509,498.776,503.596,509.452,513.919" svgx:width="0.5,0.88,0.56,0.4,0.29,0.58,0.48,0.55,0.83,0.48,0.4,0.48,0.55,0.61,0.48,0.33,0.48,0.44,0.33,0.48,0.61,0.55,0.48,0.42,0.6,0.48,0.44,0.29,0.5,0.29,0.29,0.56,0.25,0.55,0.29,0.58,0.55,0.52,0.95,0.52,0.79,0.25,0.55,0.6,0.55,0.29,0.56,0.6,0.58,0.48,0.58,0.55,0.29,0.55,0.6,0.4,0.55,0.61,0.29,0.48,0.55,0.42,0.58,0.55,0.83,0.48,0.61,0.55,0.33,0.58,0.48,0.55,0.6,0.4,0.48,0.42,0.48,0.58,0.44,0.48" style="fill:rgb(0,0,0);font-family:URWPalladioL-Roma;font-size:9.96px;stroke:none;">amyrine were detected especially, in SMSO. Polyphenol proﬁle showed the presence</text>
   <text y="528.953" x="76.535,82.045,85.3318,87.889,93.762,99.273,108.184,113.694,119.396,124.442,130.316,133.253,136.189,139.126,142.063,146.44539999999998,149.027,154.073,158.554,161.49,167.657,170.14700000000002,172.662,178.364,183.41,189.284,192.221,195.158,198.094,201.031,206.905,209.395,211.921,217.986,221.347,228.502,234.012,240.098,249.009,254.055,258.042,260.978,265.3604,267.942,272.988,277.469,280.406,286.572,289.062,291.578,297.229,303.315,308.149,311.954,316.435,321.269,324.559,327.496,333.369,338.203,341.564" svgx:width="0.55,0.33,0.55,0.58,0.55,0.88,0.55,0.56,0.5,0.58,0.29,0.29,0.29,0.29,0.44,0.55,0.5,0.44,0.29,0.61,0.25,0.55,0.56,0.5,0.58,0.29,0.29,0.29,0.29,0.58,0.25,0.55,0.6,0.33,0.71,0.55,0.6,0.88,0.5,0.4,0.29,0.44,0.55,0.5,0.44,0.29,0.61,0.25,0.55,0.56,0.6,0.48,0.4,0.44,0.48,0.33,0.29,0.58,0.48,0.33,0.5" style="fill:rgb(0,0,0);font-family:URWPalladioL-Roma;font-size:9.96px;stroke:none;">of homovanillic acid, vanillin, p-Coumaric acid, quercetine-3</text>
   <text y="528.953" x="346.612" svgx:width="0.66" style="fill:rgb(0,0,0);font-family:EURM10;font-size:9.96px;stroke:none;">β</text>
   <text y="528.953" x="353.212,356.573,362.184,365.121,371.206,375.687,381.197,385.476,388.413,394.58,399.414,401.904,404.419,410.071,416.157,420.991,424.795,429.276,434.11,437.4,440.337,446.11379999999997,448.704,453.75,459.623,465.6986,468.272,473.318,479.384,482.32,487.932,492.766,498.639,501.576,507.3528,509.932,512.869" svgx:width="0.33,0.56,0.29,0.6,0.44,0.55,0.42,0.29,0.61,0.48,0.25,0.55,0.56,0.6,0.48,0.4,0.44,0.48,0.33,0.29,0.58,0.55,0.5,0.58,0.61,0.55,0.5,0.6,0.29,0.56,0.48,0.58,0.29,0.58,0.55,0.29,0.58" style="fill:rgb(0,0,0);font-family:URWPalladioL-Roma;font-size:9.96px;stroke:none;">-glucoside, quercetin and apigenin in</text>
   <text y="542.463" x="76.535,81.671,90.926,96.062,103.752,106.24199999999999,108.683,111.98,117.7568,120.149,127.76,135.45,137.94,140.371,145.713,151.406,154.253,159.83059999999998,162.178,168.058,171.746,177.087,180.277,185.618,189.962,194.854,198.043,202.729,207.073,212.767,215.604,219.9864,222.433,227.325,231.668,234.515,240.5906,242.968,247.86,253.554,259.6296,262.016,265.205,270.645,274.333,279.675,283.823,289.165,292.0534,294.487,302.646,307.332,311.021,315.8018,318.182,321.029,327.006,331.693,337.386,340.576,343.423,349.342,354.028,360.005,362.495,365.533,368.83,374.60679999999996,377.009,385.139,390.275,397.965,400.455,402.885,407.777,410.223,415.115,418.372,424.35,427.197,432.891,438.33,444.308,447.996,453.338,458.386,463.826,469.236,473.922,479.616,484.507,489.849,492.657,497.0394,499.476,504.367,508.711,511.558,517.536" svgx:width="0.52,0.95,0.52,0.79,0.25,0.55,0.34,0.58,0.55,0.78,0.79,0.25,0.55,0.55,0.58,0.29,0.56,0.55,0.6,0.4,0.55,0.33,0.55,0.44,0.5,0.33,0.48,0.44,0.58,0.29,0.44,0.55,0.5,0.44,0.29,0.61,0.55,0.5,0.58,0.61,0.55,0.33,0.56,0.4,0.55,0.42,0.55,0.29,0.55,0.83,0.48,0.4,0.48,0.55,0.29,0.61,0.48,0.58,0.33,0.29,0.61,0.48,0.61,0.25,0.55,0.34,0.58,0.55,0.83,0.52,0.79,0.25,0.55,0.5,0.25,0.5,0.33,0.61,0.29,0.58,0.56,0.61,0.4,0.55,0.52,0.56,0.55,0.48,0.58,0.5,0.55,0.29,0.44,0.55,0.5,0.44,0.29,0.61,0.25" style="fill:rgb(0,0,0);font-family:URWPalladioL-Roma;font-size:9.96px;stroke:none;">SMSO. In AO, only protocatechic acid and tyrosol were identiﬁed. In NSO, 2.6-dihydroxybenzoïc acid,</text>
   <text y="555.972" x="76.535,79.819,85.681,91.281,100.174,105.674,111.314,117.388,120.319,126.181,131.68,137.542,142.3228,144.875,150.737,156.236,165.13,170.629,176.32,181.356,187.218,190.149,193.08,196.011,198.942,203.3244,205.912,210.948,215.42,218.351,224.505,226.995,229.532,235.222,240.258,246.12,249.051,251.982,254.913,257.844,263.6208,266.214,274.615,279.439,283.236,288.0168,290.559,296.713,301.538,304.821,309.646,314.118,317.401,322.226,328.38,330.87,334.03,340.205,346.067,350.8478,353.399,358.435,364.297,367.581,370.512,376.011,381.209,384.14,390.294,395.33,401.192,404.47880000000004,406.973,412.009,417.579,420.51,423.441,426.372,429.656,435.2336,437.764,443.263,446.5498,449.115,452.399,458.261,463.0418,465.593,471.093,474.024,476.955,481.1382,483.733,488.004,493.866,499.365,507.766,512.59" svgx:width="0.33,0.58,0.56,0.88,0.55,0.56,0.6,0.29,0.58,0.55,0.58,0.48,0.55,0.58,0.55,0.88,0.55,0.56,0.5,0.58,0.29,0.29,0.29,0.29,0.44,0.55,0.5,0.44,0.29,0.61,0.25,0.55,0.56,0.5,0.58,0.29,0.29,0.29,0.29,0.58,0.55,0.83,0.48,0.4,0.48,0.55,0.61,0.48,0.33,0.48,0.44,0.33,0.48,0.61,0.25,0.55,0.61,0.58,0.48,0.55,0.5,0.58,0.33,0.29,0.55,0.52,0.29,0.61,0.5,0.58,0.33,0.55,0.5,0.55,0.29,0.29,0.29,0.33,0.56,0.55,0.55,0.33,0.55,0.33,0.58,0.48,0.55,0.55,0.29,0.29,0.42,0.55,0.42,0.58,0.55,0.83,0.48,0.61" style="fill:rgb(0,0,0);font-family:URWPalladioL-Roma;font-size:9.96px;stroke:none;">thymoquinone homovanillic acid, vanillin were detected. The antioxidant ability of the oils showed</text>
   <text y="569.482" x="76.535,79.757,85.509,90.45,93.7368,96.153,103.16,110.927,113.417,115.879,121.067,126.463,132.423,136.613,140.803,145.5838,148.018,153.207,162.556,167.744,175.6124,177.993,182.934,188.686,194.76160000000002,197.205,203.244,206.12,210.853,214.075,219.017,222.921,228.49859999999998,230.896,238.585,244.08,249.021,255.06,257.936,261.91999999999996,264.32,272.009,279.8774,282.257,288.009,292.951,299.02660000000003,301.47,304.692,310.444,315.2248,317.658,323.41,326.286,331.781,337.533,342.267,346.457,349.7438,352.159,358.761,363.495,369.5706,372.014,377.479,380.355,385.751,391.147,397.2226,399.666,404.054,408.788,411.664,414.54,418.7232,421.211,426.963,431.904,434.78,438.071,441.362,447.114,451.848,460.575,465.971,468.847,474.342,478.532,481.408,485.5912,488.069,491.291,494.167,502.893,507.67379999999997,510.108,512.984" svgx:width="0.33,0.58,0.5,0.33,0.55,0.71,0.79,0.25,0.55,0.52,0.55,0.6,0.42,0.42,0.48,0.55,0.52,0.95,0.52,0.79,0.55,0.5,0.58,0.61,0.55,0.61,0.29,0.48,0.33,0.5,0.4,0.56,0.55,0.78,0.56,0.5,0.61,0.29,0.4,0.55,0.78,0.79,0.55,0.58,0.5,0.61,0.55,0.33,0.58,0.48,0.55,0.58,0.29,0.56,0.58,0.48,0.42,0.33,0.55,0.67,0.48,0.61,0.55,0.55,0.29,0.55,0.55,0.61,0.55,0.44,0.48,0.29,0.29,0.42,0.55,0.58,0.5,0.29,0.33,0.33,0.58,0.48,0.88,0.55,0.29,0.56,0.42,0.29,0.42,0.55,0.33,0.29,0.88,0.48,0.55,0.29,0.58" style="fill:rgb(0,0,0);font-family:URWPalladioL-Roma;font-size:9.96px;stroke:none;">that CO, Sousse SMSO and dietary Agadir AO had the highest Red blood cells half-hemolysis time in</text>
   <text y="582.991" x="76.535,85.367,88.278,94.099,96.589,99.091,107.433,113.254,116.165,120.606,126.38279999999999,128.918,132.689,137.48,143.561,148.353,152.794,156.0808,158.545,161.806,167.627,172.418,175.329,179.31300000000002,181.771,186.772,192.303,195.214,198.125,201.035,204.296,209.87359999999998,212.348,215.609,221.08700000000002,223.561,226.472,232.293,236.734,240.505,245.296,250.298,254.539,259.3198,261.82,265.591,270.382,274.623,277.534,281.775,285.036,290.037,295.859,300.3,305.0808,307.582,313.043,316.32980000000003,318.874,322.135,327.956,332.7368,335.238,339.679,344.471,347.381,350.292,354.4752,357.024,360.284,365.762,368.236,374.058,378.849,387.681,393.142,396.053,401.614,405.855,408.766,413.007,415.497,418.589,424.72,430.541,435.3218,437.833,442.834,448.656,451.917,454.827,460.289,465.45,468.351,474.462,479.463,485.285,488.57180000000005,491.046,496.047,501.579,504.49,507.4,510.301,513.562" svgx:width="0.88,0.29,0.58,0.25,0.55,0.83,0.58,0.29,0.44,0.58,0.55,0.4,0.48,0.61,0.48,0.44,0.33,0.55,0.33,0.58,0.48,0.29,0.4,0.55,0.5,0.55,0.29,0.29,0.29,0.33,0.56,0.55,0.33,0.55,0.55,0.29,0.58,0.44,0.4,0.48,0.5,0.42,0.48,0.55,0.4,0.48,0.42,0.29,0.42,0.33,0.5,0.58,0.44,0.48,0.55,0.55,0.33,0.55,0.33,0.58,0.48,0.55,0.44,0.48,0.29,0.29,0.42,0.55,0.33,0.55,0.55,0.58,0.48,0.88,0.55,0.29,0.56,0.42,0.29,0.42,0.25,0.55,0.61,0.58,0.48,0.55,0.5,0.58,0.33,0.29,0.55,0.52,0.29,0.61,0.5,0.58,0.33,0.55,0.5,0.55,0.29,0.29,0.29,0.33,0.56" style="fill:rgb(0,0,0);font-family:URWPalladioL-Roma;font-size:9.96px;stroke:none;">min, which reﬂect their ability to increase resistance of the cells to hemolysis. The antioxidant ability</text>
   <text y="596.5" x="76.535,82.078,85.3648,87.946,94.149,97.103,101.965,105.275,110.351,114.361,119.93860000000001,122.493,127.569,133.477,139.5526,142.157,146.664,152.207,156.512,165.476,170.338,173.648,176.602,180.9844,183.597,189.8,194.662,198.672,204.317,209.393,215.301,220.0818,222.651,230.549,238.41740000000001,241.016,249.483,254.559,258.7422,261.35,267.451,272.994,277.299,280.253,283.563,286.517,292.253,297.115,300.069,305.64660000000003,308.191,312.698,318.241,322.251,326.089,330.952,333.906,338.982,342.291,347.154,353.2296,355.834,359.143,364.621,367.173,373.275,377.112,382.655,387.163,392.239,395.548,400.411,404.918,410.827,413.781,418.1634,420.765,425.841,430.349,433.303,439.3786,441.993,447.069,452.977,459.0526,461.667,466.175,471.718,480.682,486.783,491.646,495.95,499.26,504.336,510.244,515.787" svgx:width="0.55,0.33,0.55,0.61,0.29,0.48,0.33,0.5,0.4,0.56,0.55,0.5,0.58,0.61,0.55,0.44,0.55,0.42,0.88,0.48,0.33,0.29,0.44,0.55,0.61,0.48,0.4,0.56,0.5,0.58,0.48,0.55,0.78,0.79,0.55,0.83,0.5,0.42,0.55,0.6,0.55,0.42,0.29,0.33,0.29,0.56,0.48,0.29,0.56,0.55,0.44,0.55,0.4,0.4,0.48,0.29,0.5,0.33,0.48,0.61,0.55,0.33,0.55,0.55,0.6,0.4,0.55,0.44,0.5,0.33,0.48,0.44,0.58,0.29,0.44,0.55,0.5,0.44,0.29,0.61,0.55,0.5,0.58,0.61,0.55,0.44,0.55,0.88,0.6,0.48,0.42,0.33,0.5,0.58,0.55,0.29" style="fill:rgb(0,0,0);font-family:URWPalladioL-Roma;font-size:9.96px;stroke:none;">of dietary and cosmetic Berkane AO was positively correlated to procatechic acid and compestanol</text>
   <text y="610.01" x="76.535,79.434,84.206,89.835,94.607,97.506,101.73,104.22,107.309,113.417,119.215,123.9958,126.478,131.459,136.968,142.408,148.037,152.809,156.126,164.923,169.695,175.494,178.741,181.64,187.08,192.878,197.65,203.72560000000001,206.228,215.025,220.006,225.546,230.318,234.5012,237.032,244.783,252.6514,255.105,260.086,265.884,271.9596,274.462,279.692,289.117,294.347,302.2154,304.669,310.656,314.412,319.184,322.502,327.274,331.209,336.19,341.7,344.599,349.3798,351.861,356.285,362.083,367.523,370.422,374.845,379.6258,382.108,385.426,390.865,394.849,397.291,403.378,406.277,410.501,415.273,420.255,424.479,429.251,433.4342,435.966,441.953,445.709,450.481,456.11,460.882,466.681,469.928,472.828,478.626,484.2036,486.656,492.743,495.642,500.414,503.662,507.886" svgx:width="0.29,0.48,0.56,0.48,0.29,0.42,0.25,0.55,0.61,0.58,0.48,0.55,0.5,0.55,0.55,0.56,0.48,0.33,0.88,0.48,0.58,0.33,0.29,0.55,0.58,0.48,0.61,0.55,0.88,0.5,0.56,0.48,0.42,0.55,0.78,0.79,0.55,0.5,0.58,0.61,0.55,0.52,0.95,0.52,0.79,0.55,0.6,0.4,0.48,0.33,0.48,0.4,0.5,0.55,0.29,0.48,0.55,0.44,0.58,0.55,0.29,0.44,0.48,0.55,0.33,0.55,0.4,0.55,0.61,0.29,0.42,0.48,0.5,0.42,0.48,0.42,0.55,0.6,0.4,0.48,0.56,0.48,0.58,0.33,0.29,0.58,0.56,0.55,0.61,0.29,0.48,0.33,0.42,0.25" style="fill:rgb(0,0,0);font-family:URWPalladioL-Roma;font-size:9.96px;stroke:none;">levels. The above-mentioned makes AO and SMSO preferable choice for diseases preventing diets.</text>
   <text y="635.474" x="76.535,84.286,89.267,94.806,103.105,108.644,112.52,118.607,123.03" svgx:width="0.78,0.5,0.56,0.83,0.56,0.39,0.61,0.44,0.25" style="fill:rgb(0,0,0);font-family:URWPalladioL-Bold;font-size:9.96px;stroke:none;">Keywords:</text>
   <text y="635.474" x="128.61,134.627,140.426,145.965,149.213,154.652,158.876,162.124,166.896,170.652,176.092,178.991,183.215,185.705,188.196,191.514,196.495,199.743,202.991,208.5686,211.021,216.002,220.425,223.324,229.412,233.636,236.126,238.617,241.865,247.304,251.728,257.167,263.155,268.953,273.725,277.481,282.921,285.82,290.044,292.534,295.025,301.013,306.452,309.351,314.891,320.878,326.676,331.448,337.247,342.686,345.585,349.81,352.3,354.791,359.772,365.57,368.818,371.717,377.157,382.298,385.197,391.284,396.265,402.063,405.3498,407.802,412.783,417.207,420.454,423.353,428.982,431.881,435.129" svgx:width="0.6,0.58,0.56,0.33,0.55,0.42,0.33,0.48,0.4,0.55,0.29,0.42,0.25,0.55,0.33,0.5,0.33,0.33,0.56,0.55,0.5,0.44,0.29,0.61,0.42,0.25,0.55,0.33,0.55,0.44,0.55,0.6,0.58,0.48,0.4,0.55,0.29,0.42,0.25,0.55,0.6,0.55,0.29,0.56,0.6,0.58,0.48,0.58,0.55,0.29,0.42,0.25,0.55,0.5,0.58,0.33,0.29,0.55,0.52,0.29,0.61,0.5,0.58,0.33,0.55,0.5,0.44,0.33,0.29,0.56,0.29,0.33,0.56" style="fill:rgb(0,0,0);font-family:URWPalladioL-Roma;font-size:9.96px;stroke:none;">Phytosterols; fatty acids; tocopherols; polyphenols; antioxidant activity</text>
  </g>
  <path style="fill:none;stroke:rgb(0,0,0);stroke-width:1.0;" d="M76.540 652.170 L518.740 652.170 "/>
  <g begin="text">
   <text y="684.162" x="76.535,82.622,87.603,91.4874,93.97,101.163,106.702,110.019,112.789,117.212,122.194,124.963,129.944,134.368,139.907,143.1938,145.715,151.802,155.499,159.922,164.903,168.779,172.654,175.972,178.741,182.617,186.5014,188.983,193.406,196.19480000000001,198.667,204.754,209.735,213.61,219.15,223.573,226.343,229.112,233.19559999999998,235.658,242.303,246.726,254.477,259.458,263.882,269.421,274.96,279.941,283.8254,286.308,291.847,296.27,301.809,307.349,312.329,314.821,317.59,323.1676,325.62,332.813,336.509,341.49,345.914,351.4916,353.944,361.695,364.464,367.234,369.724,372.813,380.564,386.103,392.19,395.139,402.89,408.429,415.622,422.2952,424.758,431.403,435.279,439.154,444.693,447.463,450.78,454.6644,457.146,461.57,467.109" svgx:width="0.61,0.5,0.39,0.55,0.72,0.56,0.33,0.28,0.44,0.5,0.28,0.5,0.44,0.56,0.33,0.55,0.61,0.39,0.44,0.5,0.39,0.39,0.33,0.28,0.39,0.39,0.55,0.44,0.28,0.55,0.61,0.5,0.39,0.56,0.44,0.28,0.28,0.41,0.55,0.67,0.44,0.78,0.5,0.44,0.56,0.56,0.5,0.39,0.55,0.56,0.44,0.56,0.56,0.5,0.55,0.28,0.56,0.55,0.72,0.39,0.5,0.44,0.56,0.55,0.78,0.28,0.28,0.25,0.55,0.78,0.56,0.61,0.3,0.78,0.56,0.72,0.67,0.55,0.67,0.39,0.39,0.56,0.28,0.33,0.39,0.55,0.44,0.56,0.5" style="fill:rgb(0,0,0);font-family:URWPalladioL-Ital;font-size:9.96px;stroke:none;">The Antioxidant Properties of Phenolic Compounds Found in Argan Oil. DFT/QSAR Results and</text>
   <text y="695.42" x="76.535,85.94,90.363,93.133,97.008,101.063,106.602,109.372,113.795,117.6794,120.161,127.912,132.336,136.39,140.814,143.583,149.122" svgx:width="0.94,0.44,0.28,0.39,0.41,0.56,0.28,0.44,0.39,0.55,0.78,0.44,0.41,0.44,0.28,0.56,0.5" style="fill:rgb(0,0,0);font-family:URWPalladioL-Ital;font-size:9.96px;stroke:none;">Molecular Docking</text>
   <text y="714.907" x="76.535,84.824,87.314,89.805,96.45,101.432,106.971" svgx:width="0.83,0.25,0.55,0.67,0.5,0.56,0.29" style="fill:rgb(0,0,0);font-family:URWPalladioL-Roma;font-size:9.96px;stroke:none;">H. Zaki</text>
   <text y="711.29" x="112.361,116.647,119.039,123.317" svgx:width="0.5,0.25,0.5,0.25" style="fill:rgb(0,0,0);font-family:URWPalladioL-Roma;font-size:7.57px;stroke:none;">1,2,</text>
   <text y="714.907" x="125.711,129.586,132.07600000000002,134.568,140.107,142.597,145.088,150.627,153.527,156.426,161.407,164.306,167.1944,169.696,176.341,181.113,186.652,191.633,197.073,203.08,206.328" svgx:width="0.39,0.25,0.55,0.67,0.25,0.55,0.56,0.29,0.29,0.5,0.29,0.29,0.55,0.67,0.48,0.56,0.5,0.55,0.6,0.33,0.29" style="fill:rgb(0,0,0);font-family:URWPalladioL-Roma;font-size:9.96px;stroke:none;">*, Y. Filali Zegzouti</text>
   <text y="711.29" x="211.717" svgx:width="0.5" style="fill:rgb(0,0,0);font-family:URWPalladioL-Roma;font-size:7.57px;stroke:none;">1</text>
   <text y="714.907" x="216.001,218.491,220.982,230.407,232.89700000000002,235.388,241.475,246.247,252.046,254.945,260.484,265.465,269.689" svgx:width="0.25,0.55,0.95,0.25,0.55,0.61,0.48,0.58,0.29,0.56,0.5,0.42,0.42" style="fill:rgb(0,0,0);font-family:URWPalladioL-Roma;font-size:9.96px;stroke:none;">, M. Benlyass</text>
   <text y="711.29" x="276.404" svgx:width="0.5" style="fill:rgb(0,0,0);font-family:URWPalladioL-Roma;font-size:7.57px;stroke:none;">1</text>
   <text y="714.907" x="283.178,288.159,293.958,300.03360000000004,302.535,311.96,314.45,316.941,323.028,328.468,334.475,339.457,343.88,349.678,353.614,356.513,362.311" svgx:width="0.5,0.58,0.61,0.55,0.95,0.25,0.55,0.61,0.55,0.6,0.5,0.44,0.58,0.4,0.29,0.58,0.48" style="fill:rgb(0,0,0);font-family:URWPalladioL-Roma;font-size:9.96px;stroke:none;">and M. Bouachrine</text>
   <text y="711.29" x="369.574,373.859" svgx:width="0.5,0.25" style="fill:rgb(0,0,0);font-family:URWPalladioL-Roma;font-size:7.57px;stroke:none;">2,</text>
   <text y="714.907" x="376.249" svgx:width="0.39" style="fill:rgb(0,0,0);font-family:URWPalladioL-Roma;font-size:9.96px;stroke:none;">*</text>
   <text y="733.998" x="82.698" svgx:width="0.5" style="fill:rgb(0,0,0);font-family:URWPalladioL-Roma;font-size:6.97px;stroke:none;">1</text>
   <text y="737.253" x="94.468,100.458,104.752,108.554,112.849,117.332,120.713,124.694,129.8966,132.154,136.825,141.12,145.603,155.762,161.241,163.85,168.746,171.355,176.251,181.236,185.226,187.4685,189.709,195.188,200.406,205.472,208.081,211.462,216.357,221.576,229.493,233.788,239.006,241.9661,244.171,251.1676,253.388,260.849,265.143,269.627,272.236,275.159,280.377,282.6195,284.861,289.846,294.553,300.05,305.528,307.7705,310.011,318.493,323.389,328.796,331.405,335.888,340.91119999999995,343.115,346.137,349.939,357.856,362.339,364.948,367.54929999999996,369.799,376.775,381.994,384.603,389.669,393.964,397.505,401.307,403.916,406.839,410.829,413.0715,415.313,423.795,428.09,433.075,438.294,442.588,446.39,448.6325,450.873,459.356,464.251,467.632,472.527,476.508,480.489" svgx:width="0.67,0.48,0.42,0.48,0.5,0.4,0.44,0.58,0.55,0.61,0.48,0.5,0.88,0.61,0.29,0.55,0.29,0.55,0.56,0.56,0.25,0.55,0.61,0.58,0.56,0.29,0.4,0.55,0.58,0.88,0.48,0.58,0.33,0.55,0.78,0.55,0.83,0.48,0.5,0.29,0.33,0.58,0.25,0.55,0.56,0.52,0.61,0.61,0.25,0.55,0.95,0.55,0.6,0.29,0.5,0.56,0.55,0.34,0.42,0.88,0.5,0.29,0.29,0.55,0.78,0.58,0.29,0.56,0.48,0.4,0.42,0.29,0.33,0.56,0.25,0.55,0.95,0.48,0.56,0.58,0.48,0.42,0.25,0.55,0.95,0.55,0.4,0.55,0.44,0.44,0.55" style="fill:rgb(0,0,0);font-family:URWPalladioL-Roma;font-size:8.97px;stroke:none;">Research TeamBiology, Environment &amp; Health, FSTE, Moulay Ismail University, Meknes, Morocco</text>
   <text y="747.378" x="83.047" svgx:width="0.5" style="fill:rgb(0,0,0);font-family:URWPalladioL-Roma;font-size:6.97px;stroke:none;">2</text>
   <text y="750.633" x="94.468,100.458,104.752,108.554,112.849,117.332,120.713,124.694,129.8966,132.154,136.825,141.12,145.603,155.762,164.244,168.728,171.651,175.946,179.487,182.097,186.58,189.189,192.991,195.23350000000002,197.474,202.952,208.171,213.237,215.846,219.226,224.122,229.341,237.258,241.553,246.771,249.7311,251.936,258.9326,261.153,269.636,274.531,280.01,284.305,286.914,289.523,294.741,299.727,301.9695,304.748,310.226,314.934,320.43,328.912,331.1545,333.396,341.878,346.774,352.18,354.789,359.273,364.2962,366.5,369.521,373.323,381.24,385.724,388.333,390.9343,393.184,400.159,405.378,407.987,413.053,417.348,420.89,424.692,427.301,430.224,434.214,436.4565,438.697,447.179,451.474,456.459,461.678,465.973,469.775,472.0175,474.258,482.74,487.636,491.016,495.912,499.893,503.874" svgx:width="0.67,0.48,0.42,0.48,0.5,0.4,0.44,0.58,0.55,0.61,0.48,0.5,0.88,0.95,0.5,0.33,0.48,0.4,0.29,0.5,0.29,0.42,0.25,0.55,0.61,0.58,0.56,0.29,0.4,0.55,0.58,0.88,0.48,0.58,0.33,0.55,0.78,0.55,0.95,0.55,0.61,0.48,0.29,0.29,0.58,0.56,0.25,0.55,0.61,0.52,0.61,0.95,0.25,0.55,0.95,0.55,0.6,0.29,0.5,0.56,0.55,0.34,0.42,0.88,0.5,0.29,0.29,0.55,0.78,0.58,0.29,0.56,0.48,0.4,0.42,0.29,0.33,0.56,0.25,0.55,0.95,0.48,0.56,0.58,0.48,0.42,0.25,0.55,0.95,0.55,0.4,0.55,0.44,0.44,0.55" style="fill:rgb(0,0,0);font-family:URWPalladioL-Roma;font-size:8.97px;stroke:none;">Research TeamMaterials, Environment &amp; Modeling. ESTM, Moulay Ismail University, Meknes, Morocco</text>
   <text y="764.013" x="82.347,85.8453,94.47,100.827,105.722,109.264,112.644,116.939,120.741,126.13,131.026,136.244,141.722,146.017,151.236,155.217,159.512" svgx:width="0.39,0.55,0.71,0.55,0.4,0.4,0.48,0.42,0.6,0.55,0.58,0.61,0.48,0.58,0.44,0.48,0.25" style="fill:rgb(0,0,0);font-family:URWPalladioL-Roma;font-size:8.97px;stroke:none;">* Correspondence:</text>
  </g>
 </g>
</svg>
