<?xml version="1.0" encoding="UTF-8"?>
<svg height="767.33" width="529.8195" xmlns="http://www.w3.org/2000/svg">
 <g id="page" xmlns:svgx="http://www.xml-cml.org/schema/svgx">
  <g begin="text">
   <text y="62.979" x="76.535,79.189,83.62,86.274,88.26650000000001,90.738,93.392,95.3845,97.377,104.901,108.439,110.655,112.64750000000001,115.118,119.55,122.793,125.009" svgx:width="0.33,0.56,0.33,0.25,0.55,0.33,0.25,0.55,0.94,0.44,0.28,0.25,0.55,0.56,0.41,0.28,0.25" style="fill:rgb(0,0,0);font-family:URWPalladioL-Ital;font-size:7.97px;stroke:none;">Int. J. Mol. Sci.</text>
   <text y="62.979" x="129.472,133.457,137.442,141.427" svgx:width="0.5,0.5,0.5,0.5" style="fill:rgb(0,0,0);font-family:URWPalladioL-Bold;font-size:7.97px;stroke:none;">2017</text>
   <text y="62.979" x="145.412" svgx:width="0.25" style="fill:rgb(0,0,0);font-family:URWPalladioL-Roma;font-size:7.97px;stroke:none;">,</text>
   <text y="62.979" x="149.398,153.383" svgx:width="0.5,0.5" style="fill:rgb(0,0,0);font-family:URWPalladioL-Ital;font-size:7.97px;stroke:none;">18</text>
   <text y="62.979" x="157.368,159.3605,161.353,165.338,169.323,173.308,177.293,491.809,495.794,499.779,501.772,506.123,508.7531,510.77,514.755" svgx:width="0.25,0.55,0.5,0.5,0.5,0.5,0.55,0.5,0.5,0.55,0.55,0.33,0.55,0.5,0.5" style="fill:rgb(0,0,0);font-family:URWPalladioL-Roma;font-size:7.97px;stroke:none;">, 1383 16 of 41</text>
   <text y="97.848" x="76.535,81.047,86.595,92.509,97.021,101.889,107.803,111.116,115.13,120.211,123.523,126.481,132.029,137.8058,140.91,146.459,149.7458,152.81,157.891,160.431" svgx:width="0.44,0.55,0.58,0.44,0.48,0.58,0.33,0.4,0.5,0.33,0.29,0.55,0.58,0.55,0.55,0.33,0.55,0.5,0.25,0.5" style="fill:rgb(0,0,0);font-family:URWPalladioL-Roma;font-size:9.96px;stroke:none;">concentration of 0.8</text>
   <text y="97.848" x="168.61" svgx:width="0.78" style="fill:rgb(0,0,0);font-family:CMSY10;font-size:10.38px;stroke:none;">×</text>
   <text y="97.848" x="179.773,184.854" svgx:width="0.5,0.5" style="fill:rgb(0,0,0);font-family:URWPalladioL-Roma;font-size:9.96px;stroke:none;">10</text>
   <text y="94.232" x="189.935" svgx:width="0.5" style="fill:rgb(0,0,0);font-family:URWPalladioL-Roma;font-size:7.57px;stroke:none;">9</text>
   <text y="97.848" x="197.188,201.497,207.604,212.471,216.485,225.458,231.616,240.589,246.6646,249.765,254.846,260.761,266.83660000000003,269.937,274.245,277.558,283.106,286.948,291.815,297.8906,300.991,306.072,309.35880000000003,312.352" svgx:width="0.42,0.6,0.48,0.4,0.88,0.61,0.88,0.61,0.55,0.5,0.58,0.61,0.55,0.42,0.33,0.55,0.4,0.48,0.61,0.55,0.5,0.33,0.55,0.5" style="fill:rgb(0,0,0);font-family:URWPalladioL-Roma;font-size:9.96px;stroke:none;">sperm/mL and stored at 5</text>
   <text y="94.232" x="320.497" svgx:width="0.5" style="fill:rgb(0,0,0);font-family:CMSY10;font-size:7.89px;stroke:none;">◦</text>
   <text y="97.848" x="325.035,332.1066,335.207,340.755,344.739,347.737,352.817" svgx:width="0.71,0.55,0.55,0.4,0.55,0.5,0.5" style="fill:rgb(0,0,0);font-family:URWPalladioL-Roma;font-size:9.96px;stroke:none;">C or 15</text>
   <text y="94.232" x="360.965" svgx:width="0.5" style="fill:rgb(0,0,0);font-family:CMSY10;font-size:7.89px;stroke:none;">◦</text>
   <text y="97.848" x="365.503,372.708,375.19800000000004,378.215,384.445,390.359,395.1398,398.194,402.502,408.61,413.477,417.491,426.25579999999997,429.441,435.132,441.26,446.34,449.298,452.255,455.557,461.13460000000003,464.185,469.266,473.574,477.883,482.75,487.059,491.368,500.341,505.208,511.122,514.435" svgx:width="0.71,0.25,0.55,0.61,0.58,0.48,0.55,0.42,0.6,0.48,0.4,0.88,0.55,0.56,0.6,0.5,0.29,0.29,0.33,0.56,0.55,0.5,0.42,0.42,0.48,0.42,0.42,0.88,0.48,0.58,0.33,0.42" style="fill:rgb(0,0,0);font-family:URWPalladioL-Roma;font-size:9.96px;stroke:none;">C. The sperm quality assessments</text>
   <text y="111.358" x="76.117,84.592,89.46,93.291,98.0718,100.668,106.775,111.643,115.657,119.041,124.589,128.603,137.576,142.443,148.51860000000002,151.162,156.243,159.5298,162.066,168.275,171.232,174.433,177.817,182.684,186.515,191.383,197.297,200.5838,203.12,206.077,211.991,215.304,220.171,224.185,229.927,235.008,237.965,242.1482,244.773,250.982,257.11,261.124,264.081,269.995,275.5726,278.155,282.464,285.776,291.325,295.339,300.42,306.07,310.8508,313.447,316.831,321.912,324.402,326.962,332.043,334.533,337.094,342.175,347.15500000000003,349.766,354.846,360.761,366.83660000000003,369.48,374.56,379.54,382.151,388.066,391.449,393.939,397.12,402.455,408.562,413.43,417.443,426.20779999999996,428.926,435.034,438.875,444.423,450.073,453.904,458.772,463.08,467.389,470.346,476.087,480.8678,483.465,492.438,497.986,501.299,504.256,507.213,510.17,513.483" svgx:width="0.83,0.48,0.4,0.48,0.55,0.6,0.48,0.4,0.33,0.55,0.4,0.88,0.48,0.61,0.55,0.5,0.33,0.55,0.61,0.29,0.33,0.33,0.48,0.4,0.48,0.58,0.33,0.55,0.29,0.58,0.33,0.48,0.4,0.56,0.5,0.29,0.42,0.55,0.61,0.6,0.4,0.29,0.58,0.56,0.55,0.42,0.33,0.55,0.4,0.5,0.56,0.48,0.55,0.33,0.5,0.25,0.55,0.5,0.25,0.55,0.5,0.5,0.55,0.5,0.58,0.61,0.55,0.5,0.5,0.55,0.58,0.33,0.25,0.55,0.52,0.6,0.48,0.4,0.88,0.55,0.6,0.4,0.55,0.56,0.4,0.48,0.42,0.42,0.29,0.56,0.48,0.55,0.88,0.55,0.33,0.29,0.29,0.29,0.33,0.56" style="fill:rgb(0,0,0);font-family:URWPalladioL-Roma;font-size:9.96px;stroke:none;">were performed at different intervals during storage (0, 8, 24 and 48 h). Sperm progressive motility</text>
   <text y="124.867" x="76.535,80.844,84.156,89.237,93.251,96.564,101.432,107.5076,110.74,114.053,119.53099999999999,122.7,128.909,133.777,138.289,142.12,146.987,152.068,156.377,161.1578,164.344,169.424,172.808,176.121,180.989,184.973,188.102,193.082,196.282,202.05880000000002,205.296,210.844,214.1308,217.327,221.636,224.949,230.497,234.511,239.592,245.242,250.0228,253.209,256.166,261.9428,265.18,270.261,273.218,276.1064,279.274,282.587,287.454,296.427,302.535,307.402,311.416,316.497,319.81,325.937,329.768,334.636,338.944,349.106,353.974,359.217,362.53,367.398,373.312,379.521,384.388,388.402,392.5852,395.81,400.322,405.87,414.843,420.463,423.42,429.334,434.415,437.728,440.685,446.233,452.147,456.3302,459.555,464.636,470.551,476.6266,479.859,486.068,489.899,495.447,501.554,507.662,512.529" svgx:width="0.42,0.33,0.5,0.4,0.33,0.48,0.61,0.55,0.33,0.55,0.55,0.61,0.48,0.44,0.4,0.48,0.5,0.42,0.48,0.55,0.5,0.33,0.33,0.48,0.4,0.55,0.5,0.55,0.58,0.55,0.55,0.33,0.55,0.42,0.33,0.55,0.4,0.5,0.56,0.48,0.55,0.29,0.58,0.55,0.5,0.29,0.29,0.55,0.33,0.48,0.88,0.6,0.48,0.4,0.5,0.33,0.6,0.4,0.48,0.42,1.0,0.48,0.52,0.33,0.48,0.58,0.61,0.48,0.4,0.42,0.55,0.44,0.55,0.88,0.55,0.29,0.58,0.5,0.33,0.29,0.55,0.58,0.42,0.55,0.5,0.58,0.61,0.55,0.61,0.4,0.55,0.6,0.6,0.48,0.61" style="fill:rgb(0,0,0);font-family:URWPalladioL-Roma;font-size:9.96px;stroke:none;">started to decrease after 8 h of storage in all temperatures—extenders combinations and dropped</text>
   <text y="138.377" x="76.535,80.844,84.156,89.024,94.105,100.314,103.271,106.228,111.8056,114.632,120.841,126.968,130.982,133.939,139.854,145.4316,148.268,151.58,157.494,162.2748,165.116,170.197,175.278,180.359,185.339,188.204,193.98080000000002,196.872,199.829,205.743,209.056,213.923,217.937,223.679,228.76,231.717,234.20700000000002,238.149,246.604,252.152,260.627,265.495,271.236,276.104,279.376,281.866,284.741,289.05,295.157,300.025,304.039,312.80379999999997,315.765,321.507,324.464,329.545,335.164,338.121,341.078,344.036,347.348,351.891,354.38100000000003,357.256,363.363,367.205,372.753,378.403,382.234,387.101,391.41,395.719,398.676,404.417,409.1978,412.039,421.012,426.56,429.873,432.83,435.787,438.744,442.057,447.63460000000003,450.471,455.552,461.466,467.5416,470.429,479.402,484.269,493.242,498.862,502.875,507.956,513.871" svgx:width="0.42,0.33,0.48,0.5,0.61,0.29,0.29,0.56,0.55,0.61,0.6,0.4,0.29,0.58,0.56,0.55,0.33,0.58,0.48,0.55,0.5,0.5,0.5,0.5,0.55,0.58,0.55,0.29,0.58,0.33,0.48,0.4,0.56,0.5,0.29,0.25,0.55,0.83,0.55,0.83,0.48,0.56,0.48,0.4,0.25,0.55,0.42,0.6,0.48,0.4,0.88,0.55,0.56,0.29,0.5,0.55,0.29,0.29,0.29,0.33,0.56,0.25,0.55,0.6,0.4,0.55,0.56,0.4,0.48,0.42,0.42,0.29,0.56,0.48,0.55,0.88,0.55,0.33,0.29,0.29,0.29,0.33,0.56,0.55,0.5,0.58,0.61,0.55,0.88,0.48,0.88,0.55,0.4,0.5,0.58,0.48" style="fill:rgb(0,0,0);font-family:URWPalladioL-Roma;font-size:9.96px;stroke:none;">steadily during the 8–48 h interval. However, sperm viability, progressive motility and membrane</text>
   <text y="151.886" x="76.535,79.492,85.406,88.719,93.587,99.237,103.251,106.208,109.52,115.0976,117.721,126.196,131.063,134.895,139.6758,142.303,151.275,156.356,160.37,166.02,170.888,177.097,180.054,185.6316,188.254,194.169,197.126,202.776,208.69,213.557,217.541,220.122,223.079,228.85580000000002,231.534,239.44,246.228,254.09640000000002,256.766,262.416,266.247,271.795,277.923,284.03,288.2132,290.889,294.273,299.141,303.449,309.556,314.424,318.936,321.893,326.974,329.931,332.888,338.4656,341.078,344.036,349.8128,352.5,357.581,365.9474,368.658,371.615,377.3918,380.08,385.415,389.429,392.386,396.5692,399.235,404.316,410.23,416.3056,418.989,424.07,432.4364,435.147,438.104,443.88079999999997,446.569,450.877,456.527,459.484,468.24879999999996,471.008,479.981,482.938,485.895,491.545,494.83180000000004,497.469,503.597,509.511,512.824,515.781" svgx:width="0.29,0.58,0.33,0.48,0.56,0.4,0.29,0.33,0.56,0.55,0.83,0.48,0.4,0.48,0.55,0.88,0.5,0.4,0.56,0.48,0.61,0.29,0.56,0.55,0.58,0.29,0.56,0.58,0.48,0.4,0.55,0.29,0.58,0.55,0.78,0.67,0.79,0.55,0.56,0.4,0.55,0.6,0.6,0.42,0.55,0.33,0.48,0.42,0.6,0.48,0.44,0.29,0.5,0.29,0.29,0.56,0.55,0.29,0.58,0.55,0.5,0.84,0.55,0.29,0.58,0.55,0.61,0.4,0.29,0.42,0.55,0.5,0.58,0.61,0.55,0.5,0.84,0.55,0.29,0.58,0.55,0.42,0.56,0.29,0.88,0.55,0.88,0.29,0.29,0.56,0.33,0.55,0.6,0.58,0.33,0.29,0.29" style="fill:rgb(0,0,0);font-family:URWPalladioL-Roma;font-size:9.96px;stroke:none;">integrity were markedly higher in ARO groups (especially in 1% in Tris and 5% in skim milk) until</text>
   <text y="165.395" x="76.535,81.616,86.596,89.471,95.2478,98.159,103.24,109.155,115.2306,118.148,123.229,128.209,131.084,136.8608,139.772,144.081,147.394,152.942,156.956,162.037,167.687,172.4678,175.329,180.409,183.6958,186.496,192.116,197.664,200.977,206.7538,209.665,212.978,217.846,226.819,232.926,237.793,241.807,246.888,250.201,256.329,260.17,265.037,269.2202,272.12,276.632,282.18,291.153,297.261,302.342,306.173,311.04,317.11560000000003,320.023,323.336,328.814,331.659,336.17,341.719,347.633,350.946,354.787,360.335,363.292,367.601,370.091,374.084,380.313,386.228,391.0088,393.869,398.95,402.781,408.431,413.512,419.2888,422.201,427.749,430.706,433.5944,436.448,441.528,444.486,448.794,454.272,457.117,463.326,468.193,472.705,476.536,481.404,486.484,490.793,495.661,501.7366,504.644,507.956,513.871" svgx:width="0.5,0.5,0.55,0.58,0.55,0.5,0.58,0.61,0.55,0.5,0.5,0.55,0.58,0.55,0.42,0.33,0.55,0.4,0.5,0.56,0.48,0.55,0.5,0.33,0.55,0.55,0.55,0.33,0.58,0.55,0.33,0.48,0.88,0.6,0.48,0.4,0.5,0.33,0.6,0.4,0.48,0.42,0.55,0.44,0.55,0.88,0.6,0.5,0.4,0.48,0.61,0.55,0.33,0.55,0.55,0.44,0.55,0.58,0.33,0.4,0.55,0.29,0.42,0.25,0.55,0.61,0.58,0.48,0.55,0.5,0.4,0.56,0.5,0.58,0.55,0.55,0.29,0.29,0.55,0.5,0.29,0.42,0.55,0.55,0.61,0.48,0.44,0.4,0.48,0.5,0.42,0.48,0.61,0.55,0.33,0.58,0.48" style="fill:rgb(0,0,0);font-family:URWPalladioL-Roma;font-size:9.96px;stroke:none;">24 h and 48 h storage at both temperatures compared to controls. The argan oil also decreased the</text>
   <text y="178.905" x="76.535,79.425,84.183,89.795,94.553,97.4414,99.927,105.35,108.6368,111.131,115.342,121.312,126.735,132.516,135.754,140.72,146.501,151.259,156.682,162.671,166.8542,169.366,174.333,180.113,186.1886,188.655,191.546,197.327,203.396,209.385,213.795,218.553,224.6286,227.105,235.876,240.842,243.732,249.156,254.936,261.005,263.896,268.862,271.753,277.821,282.579,288.36,293.883,299.952,304.7328,307.192,310.5,319.896,327.584,335.312,338.59880000000004,341.093,346.059,351.84,357.9156,360.392,363.63,369.411,374.1918,376.642,380.853,386.823,391.581,395.504,406.758,414.446,422.7,430.4688,432.911,436.219,440.142,445.108,450.631,459.401,464.159,469.94,473.178,478.145,481.383,484.263,489.686,495.46279999999996,497.95,503.94,509.721,512.959,515.849" svgx:width="0.29,0.48,0.56,0.48,0.29,0.55,0.55,0.33,0.55,0.42,0.6,0.55,0.58,0.33,0.5,0.58,0.48,0.55,0.6,0.42,0.55,0.5,0.58,0.61,0.55,0.29,0.58,0.61,0.6,0.44,0.48,0.61,0.55,0.88,0.5,0.29,0.55,0.58,0.61,0.29,0.5,0.29,0.61,0.48,0.58,0.56,0.61,0.48,0.55,0.33,0.95,0.77,0.78,0.33,0.55,0.5,0.58,0.61,0.55,0.33,0.58,0.48,0.55,0.42,0.6,0.48,0.4,0.88,0.77,0.83,0.78,0.55,0.33,0.4,0.5,0.56,0.88,0.48,0.58,0.33,0.5,0.33,0.29,0.55,0.58,0.55,0.6,0.58,0.33,0.29,0.29" style="fill:rgb(0,0,0);font-family:URWPalladioL-Roma;font-size:9.96px;stroke:none;">level of spontaneous and induced malondialdehyde (MDA) and the spermDNA fragmentation until</text>
   <text y="192.414" x="76.535,81.616,86.596,89.918,95.6948,99.054,104.602,107.8888,111.197,115.506,118.818,124.367,128.381,133.462,139.112,143.979,146.46900000000002,151.794,155.218,160.9948,164.354,168.866,174.414,180.328,184.84,187.797,193.925,198.233,201.19,206.739,212.653,215.143,218.598,223.679,227.51,233.16,238.241,244.01780000000002,247.376,252.924,255.882,258.7704,262.06,265.017,269.2002,272.537,277.618,283.237,286.194,290.9748,294.283,297.596,303.074,306.366,315.339,320.419,323.377,329.291,332.604,337.684,340.642,346.4188,349.777,354.757,358.069,363.689,368.556,371.869,375.182,380.049,384.03299999999996,387.284,392.975,399.103,404.184,407.141,410.098,413.411,418.9886,422.282,427.83,431.1168,434.436,438.449,443.53,452.29479999999995,455.714,460.023,464.891,473.864,478.731,484.5078,487.867,494.075,500.203,504.217,507.174,513.088" svgx:width="0.5,0.5,0.55,0.58,0.55,0.55,0.33,0.55,0.42,0.33,0.55,0.4,0.5,0.56,0.48,0.25,0.55,0.34,0.58,0.55,0.44,0.55,0.58,0.44,0.29,0.6,0.42,0.29,0.55,0.58,0.25,0.55,0.5,0.4,0.56,0.5,0.58,0.55,0.55,0.29,0.29,0.55,0.29,0.42,0.55,0.5,0.55,0.29,0.48,0.55,0.33,0.55,0.55,0.88,0.5,0.29,0.58,0.33,0.5,0.29,0.58,0.55,0.5,0.55,0.55,0.48,0.33,0.33,0.48,0.4,0.55,0.56,0.6,0.5,0.29,0.29,0.33,0.56,0.55,0.55,0.33,0.55,0.4,0.5,0.88,0.55,0.42,0.48,0.88,0.48,0.58,0.55,0.61,0.6,0.4,0.29,0.58,0.56" style="fill:rgb(0,0,0);font-family:URWPalladioL-Roma;font-size:9.96px;stroke:none;">48 h of storage. In conclusion, argan oil is able to maintain a better quality of ram semen during</text>
   <text y="205.924" x="76.535,79.492,82.449,88.14,94.267,97.225,103.30059999999999,106.035,110.343,113.656,119.205,123.219,128.299,133.949,138.817,141.30700000000002,144.792,154.405,159.954,163.795,168.662,174.211,179.952,184.82,188.092,190.58200000000002,193.264,199.473,204.341,210.448,215.315,221.23,227.438,230.396,236.31,241.8876,244.571,250.12,255.8968,258.635,261.948,267.862,272.6428,275.341,280.209,285.453,288.765,293.633,299.547,305.756,310.623,314.60699999999997,317.239,322.32,328.234,334.3096,337.044,341.353,344.666,350.214,354.228,359.309,364.959,369.7398,372.438,375.751,380.618,389.591,395.698,400.566,404.58,409.661,412.974,419.101,422.932,427.7128,430.411,433.724,439.638,444.4188,447.107,453.235,457.543,462.624,468.274,473.0548,475.743,481.292,484.5788,487.287,493.395,497.226,502.093,506.605,509.562,513.871" svgx:width="0.29,0.29,0.56,0.6,0.29,0.61,0.55,0.42,0.33,0.55,0.4,0.5,0.56,0.48,0.25,0.55,0.95,0.55,0.4,0.48,0.55,0.56,0.48,0.4,0.25,0.55,0.61,0.48,0.6,0.48,0.58,0.61,0.29,0.58,0.56,0.55,0.55,0.58,0.55,0.33,0.58,0.48,0.55,0.48,0.52,0.33,0.48,0.58,0.61,0.48,0.4,0.55,0.5,0.58,0.61,0.55,0.42,0.33,0.55,0.4,0.5,0.56,0.48,0.55,0.33,0.48,0.88,0.6,0.48,0.4,0.5,0.33,0.6,0.4,0.48,0.55,0.33,0.58,0.48,0.55,0.6,0.42,0.5,0.56,0.48,0.55,0.55,0.33,0.55,0.6,0.4,0.48,0.44,0.29,0.42,0.48" style="fill:rgb(0,0,0);font-family:URWPalladioL-Roma;font-size:9.96px;stroke:none;">liquid storage. Moreover, depending on the extender and storage temperature the usage of precise</text>
   <text y="219.433" x="76.535,81.047,86.595,92.509,97.021,101.889,107.803,111.116,115.13,120.211,123.523,126.481,132.029,137.943,142.1262,145.148,150.696,153.9828,156.976,162.057,165.888,171.538,176.619,182.3958,185.429,190.978,193.935,196.8234,199.788,208.761,213.842,219.4196,222.388,225.345,230.426,234.735,238.0218,240.944,245.252,248.565,254.113,258.127,263.208,268.858,273.6388,276.612,282.719,287.587,291.6,294.558,300.106,306.315,308.805,313.164,318.814,324.941,328.254,334.382,338.213,342.9938,345.977,350.285,353.598,359.726,365.934,368.892,373.759,377.9422,380.964,385.272,391.187,396.735,402.863,405.82,411.8956,414.925,420.006,422.963,431.7278,434.822,439.902,443.1888,446.111,452.32,457.188,460.501,465.368,469.382,478.355,481.312,487.226,490.183,496.097,501.6746,504.644,507.956,513.871" svgx:width="0.44,0.55,0.58,0.44,0.48,0.58,0.33,0.4,0.5,0.33,0.29,0.55,0.58,0.42,0.55,0.55,0.33,0.55,0.5,0.4,0.56,0.5,0.58,0.55,0.55,0.29,0.29,0.55,0.88,0.5,0.56,0.55,0.29,0.5,0.42,0.33,0.55,0.42,0.33,0.55,0.4,0.5,0.56,0.48,0.55,0.6,0.48,0.4,0.29,0.55,0.61,0.25,0.55,0.56,0.6,0.33,0.6,0.4,0.48,0.55,0.42,0.33,0.6,0.61,0.29,0.48,0.42,0.55,0.42,0.58,0.55,0.6,0.29,0.61,0.55,0.5,0.29,0.88,0.55,0.5,0.33,0.55,0.61,0.48,0.33,0.48,0.4,0.88,0.29,0.58,0.29,0.58,0.56,0.55,0.33,0.58,0.48" style="fill:rgb(0,0,0);font-family:URWPalladioL-Roma;font-size:9.96px;stroke:none;">concentrations of argan oil may last storage period. Future studies should aim at determining the</text>
   <text y="232.942" x="76.535,81.307,86.448,91.429,95.852,99.1388,101.591,106.014,111.454,120.251,126.238,131.678,137.476,142.248,148.047,151.3338,153.785,159.225,162.5118,165.033,170.014,173.77,179.309,184.29,190.0668,192.579,198.019,200.918,203.8064,206.308,214.617,220.415,223.314,227.737,233.5138,236.026,238.925,243.1082,245.64,249.396,254.168,258.392,264.38,269.819,275.618,279.842,282.741,288.25,291.149,295.9298,298.412,303.852,307.1388,309.66,314.641,317.54,320.4284,322.93,325.829,334.626,340.614,344.369,349.809,355.438,360.21,369.007,373.779,379.577,382.825,387.0082,389.54,393.296,398.068,402.491,407.931,411.687,417.774,422.546,428.6216,431.124,434.023,439.7998,442.312,445.56,451.358,454.257,458.4402,460.972,465.196,468.444,474.451,480.538,484.972" svgx:width="0.48,0.52,0.5,0.44,0.33,0.55,0.44,0.55,0.88,0.6,0.55,0.58,0.48,0.58,0.33,0.55,0.55,0.33,0.55,0.5,0.4,0.56,0.5,0.58,0.55,0.55,0.29,0.29,0.55,0.83,0.58,0.29,0.44,0.58,0.55,0.29,0.42,0.55,0.4,0.48,0.42,0.6,0.55,0.58,0.42,0.29,0.55,0.29,0.48,0.55,0.55,0.33,0.55,0.5,0.29,0.29,0.55,0.29,0.88,0.6,0.4,0.55,0.56,0.48,0.88,0.48,0.58,0.33,0.42,0.55,0.4,0.48,0.44,0.55,0.4,0.61,0.48,0.61,0.55,0.29,0.58,0.55,0.33,0.58,0.29,0.42,0.55,0.42,0.33,0.6,0.61,0.56,0.25" style="fill:rgb(0,0,0);font-family:URWPalladioL-Roma;font-size:9.96px;stroke:none;">exact component of argan oil which is responsible of all improvements recorded in this study.</text>
   <text y="258.407" x="76.535,84.286,89.267,94.806,103.105,108.644,112.52,118.607,123.03" svgx:width="0.78,0.5,0.56,0.83,0.56,0.39,0.61,0.44,0.25" style="fill:rgb(0,0,0);font-family:URWPalladioL-Bold;font-size:9.96px;stroke:none;">Keywords:</text>
   <text y="258.407" x="128.61,134.697,140.137,146.144,148.475" svgx:width="0.61,0.55,0.6,0.23,0.5" style="fill:rgb(0,0,0);font-family:URWPalladioL-Roma;font-size:9.96px;stroke:none;">Bouja</text>
   <text y="258.407" x="153.456" svgx:width="0.5" style="fill:rgb(0,0,0);font-family:VnURWPalladioL;font-size:9.96px;stroke:none;">â</text>
   <text y="258.407" x="158.437,164.51260000000002,167.015,170.95,175.931,184.728,188.952,191.442,193.934,198.915,202.671,208.21,213.191,218.9678,221.48,226.92,229.819,232.718,235.208,237.699,240.598,243.498,249.077,255.084,257.983,264.0586,266.561,270.785,274.033,279.473,283.408,288.389,293.928,298.7,301.19,303.682,307.906,313.893,318.665,322.601,333.888,339.876,344.857,348.792,353.774,362.571,367.343,370.591,375.363" svgx:width="0.61,0.55,0.4,0.5,0.88,0.42,0.25,0.55,0.5,0.4,0.56,0.5,0.58,0.55,0.55,0.29,0.29,0.25,0.55,0.29,0.29,0.56,0.6,0.29,0.61,0.55,0.42,0.33,0.55,0.4,0.5,0.56,0.48,0.25,0.55,0.42,0.6,0.48,0.4,0.88,0.6,0.5,0.4,0.5,0.88,0.48,0.33,0.48,0.4" style="fill:rgb(0,0,0);font-family:URWPalladioL-Roma;font-size:9.96px;stroke:none;">d rams; argan oil; liquid storage; spermparameter</text>
  </g>
  <path style="fill:none;stroke:rgb(0,0,0);stroke-width:1.0;" d="M76.540 274.110 L518.740 274.110 "/>
  <g begin="text">
   <text y="306.098" x="76.535,83.18,89.267,94.247,96.739,100.615,106.154,109.471,112.789,118.328,126.627,129.944,136.032,141.6096,144.061,149.043,155.13,159.553,162.871,166.746,171.728,176.151,179.469,183.85139999999998,186.383,194.681,199.663,203.538,208.518,211.01,215.434,221.521,227.608,236.465,239.782,243.1,246.417,251.399,257.4746,259.976,263.294,269.3696,271.872,277.411,281.286,286.268,292.355,296.778,302.85360000000003,305.356,310.337,316.424,322.4996,325.002,330.542,336.629,339.946,345.52360000000004,347.976,354.063,357.381,361.804,367.891,371.209,376.19,381.729,386.711,392.7866,395.289,401.376,406.9536,409.406,415.503,418.82,422.138,425.455,430.437,432.927,435.418,443.169,449.256,452.573,458.661,464.2,468.075" svgx:width="0.67,0.61,0.5,0.55,0.39,0.56,0.33,0.33,0.56,0.83,0.33,0.61,0.56,0.55,0.5,0.61,0.44,0.33,0.39,0.5,0.44,0.33,0.44,0.55,0.83,0.5,0.39,0.5,0.55,0.44,0.61,0.61,0.89,0.33,0.33,0.33,0.5,0.61,0.55,0.33,0.61,0.55,0.56,0.39,0.5,0.61,0.44,0.61,0.55,0.5,0.61,0.61,0.55,0.56,0.61,0.33,0.56,0.55,0.61,0.33,0.44,0.61,0.33,0.5,0.56,0.5,0.61,0.55,0.61,0.56,0.55,0.67,0.33,0.33,0.33,0.5,0.25,0.55,0.78,0.61,0.33,0.61,0.56,0.39,0.44" style="fill:rgb(0,0,0);font-family:URWPalladioL-Bold;font-size:9.96px;stroke:none;">The following abstracts were submitted in French and only displayed by Title, Authors</text>
   <text y="317.356" x="76.535,81.516,87.603,93.67859999999999,96.181,103.932,107.628,113.715,117.033,120.351,125.332,128.649,131.967,137.506,143.593,148.017" svgx:width="0.5,0.61,0.61,0.55,0.78,0.39,0.61,0.33,0.33,0.5,0.33,0.33,0.56,0.61,0.44,0.25" style="fill:rgb(0,0,0);font-family:URWPalladioL-Bold;font-size:9.96px;stroke:none;">and Afﬁliations.</text>
   <text y="340.569" x="76.535,82.622,85.392,88.161,92.037,96.092,99.3788,101.9,106.323,109.11179999999999,111.583,118.776,122.473,127.454,131.877,137.4546,139.907,147.658,150.428,153.2168,155.688,160.111,165.68859999999998,168.141,171.459,176.44,180.3244,182.806,188.893,193.874,198.856,202.731,205.501,209.556,213.979,218.034,223.015,226.891,234.641,237.411,241.466,245.889,248.67780000000002,251.149,255.573,261.112,266.09200000000004,268.584,277.989,280.758,284.813,288.509,292.933,297.545,300.315,304.738,307.508,311.931,316.913,319.682,323.737,328.16,330.9488,333.421,341.172,346.711,351.134,353.904,356.673,359.991,364.971,367.463,371.886,374.6748,377.146,386.551,389.321,392.09,396.4724,399.004,405.649,410.073,417.824,421.699,424.469,427.238" svgx:width="0.61,0.28,0.28,0.39,0.41,0.33,0.55,0.44,0.28,0.55,0.72,0.39,0.5,0.44,0.56,0.55,0.78,0.28,0.28,0.55,0.44,0.56,0.55,0.33,0.5,0.39,0.55,0.61,0.5,0.5,0.39,0.28,0.41,0.44,0.41,0.5,0.39,0.78,0.28,0.41,0.44,0.28,0.55,0.44,0.56,0.5,0.55,0.94,0.28,0.41,0.39,0.44,0.46,0.28,0.44,0.28,0.44,0.5,0.28,0.41,0.44,0.28,0.55,0.78,0.56,0.44,0.28,0.28,0.33,0.5,0.55,0.44,0.28,0.55,0.94,0.28,0.28,0.44,0.55,0.67,0.44,0.78,0.39,0.28,0.28,0.56" style="fill:rgb(0,0,0);font-family:URWPalladioL-Ital;font-size:9.96px;stroke:none;">Effect of Argan Oil on the Physicochemical and Microbiological Quality of Milk Camelin</text>
   <text y="360.056" x="76.535,79.892,82.38199999999999,84.874,94.298,99.07,102.826,107.25,113.048" svgx:width="0.34,0.25,0.55,0.95,0.48,0.4,0.44,0.58,0.5" style="fill:rgb(0,0,0);font-family:URWPalladioL-Roma;font-size:9.96px;stroke:none;">I. Mercha</text>
   <text y="356.439" x="120.52,124.806,127.198,131.476" svgx:width="0.5,0.25,0.5,0.25" style="fill:rgb(0,0,0);font-family:URWPalladioL-Roma;font-size:7.57px;stroke:none;">1,2,</text>
   <text y="360.056" x="133.87,137.745,140.235,142.727,151.006,153.496,155.987,162.074,167.055,172.595,176.53,181.511" svgx:width="0.39,0.25,0.55,0.83,0.25,0.55,0.61,0.5,0.56,0.4,0.5,0.88" style="fill:rgb(0,0,0);font-family:URWPalladioL-Roma;font-size:9.96px;stroke:none;">*, N. Lakram</text>
   <text y="356.439" x="192.799" svgx:width="0.5" style="fill:rgb(0,0,0);font-family:URWPalladioL-Roma;font-size:7.57px;stroke:none;">2</text>
   <text y="360.056" x="197.083,199.573,202.064,206.687,209.17700000000002,211.668,218.313,223.852,229.651,232.55,236.485" svgx:width="0.25,0.55,0.56,0.25,0.55,0.67,0.56,0.58,0.29,0.4,0.29" style="fill:rgb(0,0,0);font-family:URWPalladioL-Roma;font-size:9.96px;stroke:none;">, F. Zkhiri</text>
   <text y="356.439" x="241.874" svgx:width="0.5" style="fill:rgb(0,0,0);font-family:URWPalladioL-Roma;font-size:7.57px;stroke:none;">1</text>
   <text y="360.056" x="246.158,248.648,251.139,257.226,259.716,262.208,270.497,272.987,275.478,281.565,284.4534,286.955,296.38,301.361,306.342,312.429,317.869,323.876,329.963" svgx:width="0.25,0.55,0.61,0.25,0.55,0.83,0.25,0.55,0.61,0.29,0.55,0.95,0.5,0.5,0.61,0.55,0.6,0.61,0.29" style="fill:rgb(0,0,0);font-family:URWPalladioL-Roma;font-size:9.96px;stroke:none;">, E. H. El Maadoudi</text>
   <text y="356.439" x="335.353" svgx:width="0.5" style="fill:rgb(0,0,0);font-family:URWPalladioL-Roma;font-size:7.57px;stroke:none;">2</text>
   <text y="360.056" x="339.637,342.127,344.618,352.369,354.85900000000004,357.351,363.438,368.21,374.008,378.989,381.888" svgx:width="0.25,0.55,0.78,0.25,0.55,0.61,0.48,0.58,0.5,0.29,0.29" style="fill:rgb(0,0,0);font-family:URWPalladioL-Roma;font-size:9.96px;stroke:none;">, A. Benali</text>
   <text y="356.439" x="387.278" svgx:width="0.5" style="fill:rgb(0,0,0);font-family:URWPalladioL-Roma;font-size:7.57px;stroke:none;">2</text>
   <text y="360.056" x="394.053,399.034,404.833,410.90860000000004,413.41,420.065,422.555,425.047,432.28,437.261,442.77,448.279,453.719,459.726" svgx:width="0.5,0.58,0.61,0.55,0.67,0.25,0.55,0.73,0.5,0.55,0.55,0.55,0.6,0.4" style="fill:rgb(0,0,0);font-family:URWPalladioL-Roma;font-size:9.96px;stroke:none;">and R. Kabbour</text>
   <text y="356.439" x="466.151" svgx:width="0.5" style="fill:rgb(0,0,0);font-family:URWPalladioL-Roma;font-size:7.57px;stroke:none;">2</text>
   <text y="377.128" x="82.698" svgx:width="0.5" style="fill:rgb(0,0,0);font-family:URWPalladioL-Roma;font-size:6.97px;stroke:none;">1</text>
   <text y="380.383" x="94.468,100.056,104.629,109.686,114.68,118.293,122.865,125.847,130.841,133.502,136.95,141.2556,144.303,149.891,154.1966,157.244,163.354,166.015,169.463,174.457,177.118,182.111,187.197,189.858,194.239,196.4815,199.68,208.332,210.994,215.054,218.502,223.496,228.553,231.215,236.208,238.87,243.863,248.948,251.61,255.9156,258.963,265.9596,269.051,276.239,281.754,286.327,288.988,291.65" svgx:width="0.61,0.5,0.55,0.55,0.4,0.5,0.33,0.55,0.29,0.4,0.48,0.55,0.61,0.48,0.55,0.72,0.29,0.4,0.55,0.29,0.55,0.56,0.29,0.48,0.25,0.55,0.95,0.29,0.44,0.4,0.55,0.55,0.29,0.55,0.29,0.55,0.56,0.29,0.48,0.55,0.78,0.55,0.79,0.6,0.5,0.29,0.29,0.33" style="fill:rgb(0,0,0);font-family:URWPalladioL-Roma;font-size:8.97px;stroke:none;">Laboratoire de Virologie, Microbiologie &amp; Qualit</text>
   <text y="380.383" x="294.627" svgx:width="0.48" style="fill:rgb(0,0,0);font-family:VnURWPalladioL;font-size:8.97px;stroke:none;">é</text>
   <text y="380.383" x="299.007,304.549,310.137,314.198,319.192,322.237,325.219,330.212,334.931,337.593,341.654,346.647,349.308,354.302,359.387,362.048,366.35360000000003,369.402,376.3986,379.48,385.068,387.73,392.723,398.311,400.973,406.14,410.521,414.133,418.011,420.673" svgx:width="0.61,0.61,0.44,0.55,0.33,0.33,0.55,0.52,0.29,0.44,0.55,0.29,0.55,0.56,0.29,0.48,0.55,0.78,0.55,0.61,0.29,0.55,0.61,0.29,0.56,0.48,0.4,0.42,0.29,0.33" style="fill:rgb(0,0,0);font-family:URWPalladioL-Roma;font-size:8.97px;stroke:none;">/Eco-toxicologie &amp; Biodiversit</text>
   <text y="380.383" x="423.657" svgx:width="0.48" style="fill:rgb(0,0,0);font-family:VnURWPalladioL;font-size:8.97px;stroke:none;">é</text>
   <text y="380.383" x="428.038,430.2805,433.48,440.595,445.918,448.579,453.747,458.127,461.74,465.618,468.279" svgx:width="0.25,0.55,0.78,0.58,0.29,0.56,0.48,0.4,0.42,0.29,0.33" style="fill:rgb(0,0,0);font-family:URWPalladioL-Roma;font-size:8.97px;stroke:none;">, Universit</text>
   <text y="380.383" x="471.257" svgx:width="0.48" style="fill:rgb(0,0,0);font-family:VnURWPalladioL;font-size:8.97px;stroke:none;">é</text>
   <text y="380.383" x="478.607,486.216,490.789,494.667,498.545,503.118,508.3206,511.413,514.495,517.577" svgx:width="0.83,0.5,0.42,0.42,0.5,0.58,0.55,0.34,0.34,0.25" style="fill:rgb(0,0,0);font-family:URWPalladioL-Roma;font-size:8.97px;stroke:none;">Hassan II,</text>
   <text y="392.767" x="94.468,99.453,103.937,107.918,113.324,115.934" svgx:width="0.56,0.5,0.44,0.6,0.29,0.33" style="fill:rgb(0,0,0);font-family:URWPalladioL-Roma;font-size:8.97px;stroke:none;">Facult</text>
   <text y="392.767" x="118.856" svgx:width="0.48" style="fill:rgb(0,0,0);font-family:VnURWPalladioL;font-size:8.97px;stroke:none;">é</text>
   <text y="392.767" x="125.393,130.871,135.166,138.9334,141.21,145.012,148.993,151.602,155.897,161.115,165.096,169.391,173.1584,175.435,179.729,182.68910000000002,184.894,187.817,192.112,196.093,201.312,206.53,209.139,214.16,219.567,223.862,227.6294,229.905,235.384,239.68959999999998,241.92,250.403,255.298,260.517,265.0,272.917,280.835,285.129,290.608,293.217,297.7,299.9425,302.184,307.662,313.044,315.319,319.803,324.286,328.771,331.011,339.493,344.388,349.607,354.09,362.007,369.925,374.408,379.886,382.496,386.981,389.22,393.704,398.187,402.67,407.153,411.63800000000003,413.878,422.36,426.844,430.224,435.12" svgx:width="0.61,0.48,0.42,0.55,0.42,0.44,0.29,0.48,0.58,0.44,0.48,0.42,0.55,0.48,0.33,0.55,0.33,0.48,0.44,0.58,0.58,0.29,0.56,0.6,0.48,0.42,0.55,0.61,0.48,0.55,0.95,0.55,0.58,0.5,0.88,0.88,0.48,0.61,0.29,0.5,0.25,0.55,0.61,0.6,0.55,0.5,0.5,0.5,0.55,0.95,0.55,0.58,0.5,0.88,0.88,0.5,0.61,0.29,0.5,0.55,0.5,0.5,0.5,0.5,0.5,0.55,0.95,0.5,0.4,0.55,0.44" style="fill:rgb(0,0,0);font-family:URWPalladioL-Roma;font-size:8.97px;stroke:none;">des sciences et techniques de Mohammedia, BP 146 Mohammadia 20650 Maroc</text>
   <text y="402.892" x="83.047" svgx:width="0.5" style="fill:rgb(0,0,0);font-family:URWPalladioL-Roma;font-size:6.97px;stroke:none;">2</text>
   <text y="406.146" x="94.468,97.49,104.941,110.93,117.906,120.14850000000001,122.389,128.747,134.736,140.726,147.702,150.687,156.677,161.16,166.119,170.602,173.525,175.7675,178.008,182.267,184.509,191.556,193.79850000000002,196.039,201.518,206.414,211.0784,213.282,217.765,222.248,226.731,231.215,233.4575,235.698,238.72,243.938,247.74,250.663,253.272,256.195,261.602,264.5621,266.766,272.756,277.239,282.198,286.681,289.604,291.8465,294.087,298.57,303.053,307.537,312.02,316.503,318.7455,320.986,326.976,331.459,336.418,340.901,343.8611,346.065,354.548,359.031,362.411,367.307" svgx:width="0.34,0.83,0.67,0.78,0.25,0.55,0.71,0.67,0.67,0.78,0.33,0.67,0.5,0.55,0.5,0.33,0.25,0.55,0.6,0.25,0.79,0.25,0.55,0.61,0.55,0.52,0.55,0.5,0.5,0.5,0.5,0.25,0.55,0.34,0.58,0.42,0.33,0.29,0.33,0.6,0.33,0.55,0.67,0.5,0.55,0.5,0.33,0.25,0.55,0.5,0.5,0.5,0.5,0.5,0.25,0.55,0.67,0.5,0.55,0.5,0.33,0.55,0.95,0.5,0.4,0.55,0.44" style="fill:rgb(0,0,0);font-family:URWPalladioL-Roma;font-size:8.97px;stroke:none;">INRA, CRRA-Rabat, P.O. Box 6570, Institut Rabat, 10101, Rabat Maroc</text>
   <text y="419.526" x="82.347,85.8453,94.47,100.827,105.722,109.264,112.644,116.939,120.741,126.13,131.026,136.244,141.723,146.017,151.236,155.217,159.512,161.7545,164.533,167.142,172.128,175.669,180.153,188.07,190.311,198.229,202.524,205.904,209.885,215.104,219.587,226.285,231.27,239.187,243.67,246.28,248.889,251.131,255.112,260.007" svgx:width="0.39,0.55,0.71,0.55,0.4,0.4,0.48,0.42,0.6,0.55,0.58,0.61,0.48,0.58,0.44,0.48,0.25,0.55,0.29,0.56,0.4,0.5,0.88,0.25,0.88,0.48,0.4,0.44,0.58,0.5,0.75,0.56,0.88,0.5,0.29,0.29,0.25,0.44,0.55,0.88" style="fill:rgb(0,0,0);font-family:URWPalladioL-Roma;font-size:8.97px;stroke:none;">* Correspondence: ikram.mercha@gmail.com</text>
   <text y="444.073" x="76.535,82.074,85.392,90.931,95.912,100.89200000000001,103.384,107.808,110.5968,113.068,116.385,121.367,125.2514,127.733,134.926,140.465,143.783,146.552,151.533,154.303,158.726,163.339,167.215,170.532,173.302,177.38559999999998,179.847,185.934,188.704,191.474,195.349,199.404,202.6908,205.212,209.635,212.4238,214.896,222.089,225.785,230.766,235.189,240.76659999999998,243.219,250.97,253.74,256.5288,259.0,263.613,268.593,271.085,280.489,284.913,287.682,291.558,295.613,301.152,303.921,308.345,312.22940000000006,314.711,318.028,323.568,326.885,330.761,334.636,339.06,343.114,346.432,349.201,353.625" svgx:width="0.56,0.33,0.56,0.5,0.5,0.55,0.44,0.28,0.55,0.33,0.5,0.39,0.55,0.72,0.56,0.33,0.28,0.5,0.28,0.44,0.46,0.39,0.33,0.28,0.41,0.55,0.61,0.28,0.28,0.39,0.41,0.33,0.55,0.44,0.28,0.55,0.72,0.39,0.5,0.44,0.56,0.55,0.78,0.28,0.28,0.55,0.46,0.5,0.55,0.94,0.44,0.28,0.39,0.41,0.56,0.28,0.44,0.39,0.55,0.33,0.56,0.33,0.39,0.39,0.44,0.41,0.33,0.28,0.44,0.56" style="fill:rgb(0,0,0);font-family:URWPalladioL-Ital;font-size:9.96px;stroke:none;">Study of the Antidiabetic Effect of Argan Oil by Molecular Interaction</text>
   <text y="463.56" x="76.535,81.765,86.747,89.646,92.545,103.833,109.92,115.359,121.367,125.79,131.588,136.36,142.159,145.406,150.846,156.853" svgx:width="0.52,0.5,0.29,0.29,0.88,0.61,0.55,0.6,0.44,0.58,0.48,0.58,0.33,0.55,0.6,0.33" style="fill:rgb(0,0,0);font-family:URWPalladioL-Roma;font-size:9.96px;stroke:none;">SalimBouchentouf</text>
   <text y="483.887" x="86.498,92.086,96.659,101.716,106.71,110.323,114.895,117.877,122.871,125.532,128.98,133.2856,145.525,151.113,155.493,159.2604,171.535,176.336,181.851,186.909,190.787,193.768,198.341,203.664,207.725,212.105,215.8724,228.147,235.747,240.32,243.301,248.816,252.273,256.654,259.316,261.977,266.358,270.1254,282.399,286.78,289.7401,301.926,307.514,310.175,315.169,319.741,323.802,326.784,329.445,334.612,338.993,342.871,345.1135,359.8,366.915,372.238,374.899,380.067,384.447,388.06,391.938,394.599" svgx:width="0.61,0.5,0.55,0.55,0.4,0.5,0.33,0.55,0.29,0.4,0.48,0.55,0.61,0.48,0.42,0.55,0.52,0.6,0.55,0.42,0.33,0.5,0.58,0.44,0.48,0.42,0.55,0.83,0.5,0.33,0.6,0.4,0.48,0.29,0.29,0.48,0.42,0.55,0.48,0.33,0.55,0.61,0.29,0.55,0.5,0.44,0.33,0.29,0.56,0.48,0.42,0.25,0.55,0.78,0.58,0.29,0.56,0.48,0.4,0.42,0.29,0.33" style="fill:rgb(0,0,0);font-family:URWPalladioL-Roma;font-size:8.97px;stroke:none;">Laboratoire des Substances Naturelles et Bioactives, Universit</text>
   <text y="483.887" x="397.58" svgx:width="0.48" style="fill:rgb(0,0,0);font-family:VnURWPalladioL;font-size:8.97px;stroke:none;">é</text>
   <text y="483.887" x="414.125,419.713,424.01860000000005,436.258,441.864,444.525,448.906,456.982,461.043,465.423,470.746,472.9885,487.675,494.79,497.452" svgx:width="0.61,0.48,0.55,0.61,0.29,0.48,0.88,0.44,0.48,0.58,0.25,0.55,0.78,0.29,0.56" style="fill:rgb(0,0,0);font-family:URWPalladioL-Roma;font-size:8.97px;stroke:none;">de Tlemcen, Alg</text>
   <text y="483.887" x="502.539" svgx:width="0.48" style="fill:rgb(0,0,0);font-family:VnURWPalladioL;font-size:8.97px;stroke:none;">é</text>
   <text y="483.887" x="506.92,510.533,513.194,517.575" svgx:width="0.4,0.29,0.48,0.25" style="fill:rgb(0,0,0);font-family:URWPalladioL-Roma;font-size:8.97px;stroke:none;">rie;</text>
   <text y="496.271" x="86.498,91.456,96.352,101.759,105.74,110.958,115.253,120.472,123.395,128.29,133.697,136.683,138.925,142.726,147.209,149.819,152.428,160.345,167.043,172.028,176.512,181.73,186.626,191.521,193.763,196.749" svgx:width="0.55,0.55,0.6,0.44,0.58,0.48,0.58,0.33,0.55,0.6,0.33,0.25,0.42,0.5,0.29,0.29,0.88,0.75,0.56,0.5,0.58,0.55,0.55,0.25,0.33,0.4" style="fill:rgb(0,0,0);font-family:URWPalladioL-Roma;font-size:8.97px;stroke:none;">bouchentouf.salim@yahoo.fr</text>
  </g>
  <path style="fill:none;stroke:rgb(0,0,0);stroke-width:0.4;" d="M76.540 506.940 L518.740 506.940 "/>
  <g begin="text">
   <text y="538.932" x="76.535,82.622,85.392,88.161,92.037,96.092,99.409,103.2934,105.775,110.199,112.9878,115.459,122.652,126.348,131.329,135.753,141.33059999999998,143.783,151.533,154.303,157.0918,159.563,163.987,169.56459999999998,172.017,178.104,180.873,185.297,189.72,194.7,197.192,203.279,206.975,210.851,214.726,218.602,224.141,227.837,231.7214,234.203,238.627,244.166,249.146,251.638,259.389,264.37,267.139,272.121,276.544,279.862,282.631,287.613,291.4974,293.979,299.518,302.835,306.532,310.407,314.282,318.1664,320.649,323.418,328.9956,331.448,338.093,343.074,346.771,351.194,356.733,359.503,363.558,367.981,370.751,373.52,378.5,380.992,388.185,390.955,396.494,400.549,404.972,408.848,412.723,416.04,421.58,425.455,430.435,432.927,439.572,443.996,447.313" svgx:width="0.61,0.28,0.28,0.39,0.41,0.33,0.39,0.55,0.44,0.28,0.55,0.72,0.39,0.5,0.44,0.56,0.55,0.78,0.28,0.28,0.55,0.44,0.56,0.55,0.61,0.28,0.44,0.44,0.5,0.55,0.61,0.39,0.39,0.39,0.39,0.56,0.39,0.39,0.55,0.44,0.56,0.5,0.55,0.78,0.5,0.28,0.5,0.44,0.33,0.28,0.5,0.39,0.55,0.56,0.33,0.39,0.39,0.39,0.39,0.55,0.28,0.56,0.55,0.67,0.5,0.39,0.44,0.56,0.28,0.41,0.44,0.28,0.28,0.5,0.55,0.72,0.28,0.56,0.41,0.44,0.39,0.39,0.33,0.56,0.39,0.5,0.55,0.67,0.44,0.33,0.39" style="fill:rgb(0,0,0);font-family:URWPalladioL-Ital;font-size:9.96px;stroke:none;">Effects of Argan Oil on Blood Pressure and Oxidative Stress in Chronically Glucose-Fed Rats</text>
   <text y="558.419" x="76.147,83.898,86.38799999999999,88.879,94.966,97.8544,100.356,109.781,112.68,118.767,123.748,129.188,135.195" svgx:width="0.78,0.25,0.55,0.61,0.29,0.55,0.95,0.29,0.61,0.5,0.55,0.6,0.29" style="fill:rgb(0,0,0);font-family:URWPalladioL-Roma;font-size:9.96px;stroke:none;">A. El Midaoui</text>
   <text y="554.802" x="140.584,144.87,147.262" svgx:width="0.5,0.25,0.5" style="fill:rgb(0,0,0);font-family:URWPalladioL-Roma;font-size:7.57px;stroke:none;">1,2</text>
   <text y="558.419" x="151.543,154.03300000000002,156.524,162.063,164.553,167.045,172.584,175.483,178.382,183.363,186.263,189.162,192.479,199.124,203.896,209.436,213.191,218.631,224.639,227.886" svgx:width="0.25,0.55,0.67,0.25,0.55,0.56,0.29,0.29,0.5,0.29,0.29,0.33,0.67,0.48,0.56,0.4,0.55,0.6,0.33,0.29" style="fill:rgb(0,0,0);font-family:URWPalladioL-Roma;font-size:9.96px;stroke:none;">, Y. Filali-Zegrouti</text>
   <text y="554.802" x="233.276" svgx:width="0.5" style="fill:rgb(0,0,0);font-family:URWPalladioL-Roma;font-size:7.57px;stroke:none;">1</text>
   <text y="558.419" x="237.56,240.05,242.541,250.292,252.782,255.273,261.361,264.2494,266.75,275.039,280.021,282.92,289.007,293.988,299.786" svgx:width="0.25,0.55,0.78,0.25,0.55,0.61,0.29,0.55,0.83,0.5,0.29,0.61,0.5,0.58,0.29" style="fill:rgb(0,0,0);font-family:URWPalladioL-Roma;font-size:9.96px;stroke:none;">, A. El Haidani</text>
   <text y="554.802" x="305.176" svgx:width="0.5" style="fill:rgb(0,0,0);font-family:URWPalladioL-Roma;font-size:7.57px;stroke:none;">1</text>
   <text y="558.419" x="311.95,316.931,322.729,328.8046,331.307,337.962,340.452,342.944,350.007,355.447,361.454,364.702,370.709,374.465" svgx:width="0.5,0.58,0.61,0.55,0.67,0.25,0.55,0.71,0.55,0.6,0.33,0.6,0.4,0.48" style="fill:rgb(0,0,0);font-family:URWPalladioL-Roma;font-size:9.96px;stroke:none;">and R. Couture</text>
   <text y="554.802" x="381.728" svgx:width="0.5" style="fill:rgb(0,0,0);font-family:URWPalladioL-Roma;font-size:7.57px;stroke:none;">2</text>
   <text y="575.491" x="82.698" svgx:width="0.5" style="fill:rgb(0,0,0);font-family:URWPalladioL-Roma;font-size:6.97px;stroke:none;">1</text>
   <text y="578.746" x="94.468" svgx:width="0.61" style="fill:rgb(0,0,0);font-family:VnURWPalladioL;font-size:8.97px;stroke:none;">É</text>
   <text y="578.746" x="100.056,105.178,110.692,113.354,118.85,123.15559999999999,126.222,131.81,136.1156,139.181,145.291,149.672,153.732,159.055,163.436,166.893,170.954,176.276,180.657,182.89950000000002,187.224,191.797,197.385,200.046,205.04,207.701,212.695,217.78,220.441,224.822,227.0645,230.282,235.87,241.193,246.36,249.022,252.479,257.472,262.795,268.118,272.499,280.574,284.955,290.278,293.23810000000003,296.25,303.2466,306.356,311.158,315.731,321.053" svgx:width="0.56,0.6,0.29,0.6,0.48,0.55,0.61,0.48,0.55,0.67,0.48,0.44,0.58,0.48,0.4,0.44,0.58,0.48,0.25,0.55,0.5,0.61,0.29,0.55,0.29,0.55,0.56,0.29,0.48,0.25,0.55,0.61,0.58,0.56,0.29,0.4,0.55,0.58,0.58,0.48,0.88,0.48,0.58,0.33,0.55,0.78,0.55,0.52,0.5,0.58,0.33" style="fill:rgb(0,0,0);font-family:URWPalladioL-Roma;font-size:8.97px;stroke:none;">quipe de Recherche: “Biologie, Environnement &amp; Sant</text>
   <text y="578.746" x="324.036" svgx:width="0.48" style="fill:rgb(0,0,0);font-family:VnURWPalladioL;font-size:8.97px;stroke:none;">é</text>
   <text y="578.746" x="328.416,332.989,335.2315,338.458" svgx:width="0.5,0.25,0.55,0.77" style="fill:rgb(0,0,0);font-family:URWPalladioL-Roma;font-size:8.97px;stroke:none;">”, D</text>
   <text y="578.746" x="345.535" svgx:width="0.48" style="fill:rgb(0,0,0);font-family:VnURWPalladioL;font-size:8.97px;stroke:none;">é</text>
   <text y="578.746" x="349.916,355.413,359.985,363.598,366.579,370.96,379.036,383.417,388.74,391.7001,394.712,400.3,404.60560000000004,407.671,413.259,415.921,420.914,423.576,428.569,433.654,436.316,440.696,442.93850000000003,446.349,451.434,456.235,461.841,467.429,476.575,483.691,489.013,491.675,496.842,501.223,504.835,508.713,511.375" svgx:width="0.6,0.5,0.4,0.33,0.48,0.88,0.48,0.58,0.33,0.55,0.61,0.48,0.55,0.61,0.29,0.55,0.29,0.55,0.56,0.29,0.48,0.25,0.55,0.56,0.52,0.61,0.61,1.0,0.78,0.58,0.29,0.56,0.48,0.4,0.42,0.29,0.33" style="fill:rgb(0,0,0);font-family:URWPalladioL-Roma;font-size:8.97px;stroke:none;">partement de Biologie; FSTE—Universit</text>
   <text y="578.746" x="514.359" svgx:width="0.48" style="fill:rgb(0,0,0);font-family:VnURWPalladioL;font-size:8.97px;stroke:none;">é</text>
   <text y="591.129" x="94.468,102.95,107.846,113.253,115.862,120.345,125.3682,127.572,130.594,134.395,142.313,146.796,149.369,151.979,154.22150000000002,156.462,161.94,165.482,169.024,173.507,177.488,182.706,185.316,190.794,193.403,197.886,206.853,215.335,219.818,223.199,228.094" svgx:width="0.95,0.55,0.6,0.29,0.5,0.56,0.55,0.34,0.42,0.88,0.5,0.29,0.29,0.25,0.55,0.61,0.4,0.4,0.5,0.44,0.58,0.29,0.61,0.29,0.5,1.0,0.95,0.5,0.4,0.55,0.44" style="fill:rgb(0,0,0);font-family:URWPalladioL-Roma;font-size:8.97px;stroke:none;">Moulay Ismaïl; Errachidia—Maroc</text>
   <text y="601.255" x="83.047" svgx:width="0.5" style="fill:rgb(0,0,0);font-family:URWPalladioL-Roma;font-size:6.97px;stroke:none;">2</text>
   <text y="604.509" x="94.468" svgx:width="0.77" style="fill:rgb(0,0,0);font-family:URWPalladioL-Roma;font-size:8.97px;stroke:none;">D</text>
   <text y="604.509" x="101.547" svgx:width="0.48" style="fill:rgb(0,0,0);font-family:VnURWPalladioL;font-size:8.97px;stroke:none;">é</text>
   <text y="604.509" x="105.928,111.425,115.997,119.61,122.592,126.972,135.048,139.429,144.752,147.71210000000002,151.355,156.943,161.2486,164.945,170.469,175.792,180.877,184.755,187.416,192.41,195.071,200.065,205.15,207.811,212.1166,215.805,224.457,229.45" svgx:width="0.6,0.5,0.4,0.33,0.48,0.88,0.48,0.58,0.33,0.55,0.61,0.48,0.55,0.6,0.58,0.56,0.42,0.29,0.55,0.29,0.55,0.56,0.29,0.48,0.55,0.95,0.55,0.29" style="fill:rgb(0,0,0);font-family:URWPalladioL-Roma;font-size:8.97px;stroke:none;">partement de Physiologie Mol</text>
   <text y="604.509" x="232.115" svgx:width="0.48" style="fill:rgb(0,0,0);font-family:VnURWPalladioL;font-size:8.97px;stroke:none;">é</text>
   <text y="604.509" x="236.496,240.557,246.072,248.733,253.306,255.967,259.415,263.72060000000005,267.418,271.798,274.7581,278.402,281.484,286.807" svgx:width="0.44,0.6,0.29,0.5,0.29,0.4,0.48,0.55,0.48,0.33,0.55,0.34,0.58,0.33" style="fill:rgb(0,0,0);font-family:URWPalladioL-Roma;font-size:8.97px;stroke:none;">culaire et Int</text>
   <text y="604.509" x="289.788" svgx:width="0.48" style="fill:rgb(0,0,0);font-family:VnURWPalladioL;font-size:8.97px;stroke:none;">é</text>
   <text y="604.509" x="294.169,299.254,302.867,307.439,310.421,313.082,318.25,322.63,324.8725,328.886,333.971,338.544,342.596,348.11,350.772" svgx:width="0.56,0.4,0.5,0.33,0.29,0.56,0.48,0.25,0.55,0.56,0.5,0.44,0.6,0.29,0.33" style="fill:rgb(0,0,0);font-family:URWPalladioL-Roma;font-size:8.97px;stroke:none;">grative, Facult</text>
   <text y="604.509" x="353.758" svgx:width="0.48" style="fill:rgb(0,0,0);font-family:VnURWPalladioL;font-size:8.97px;stroke:none;">é</text>
   <text y="604.509" x="361.759,367.347,371.6526,375.35" svgx:width="0.61,0.48,0.55,0.95" style="fill:rgb(0,0,0);font-family:URWPalladioL-Roma;font-size:8.97px;stroke:none;">de M</text>
   <text y="604.509" x="384.0" svgx:width="0.48" style="fill:rgb(0,0,0);font-family:VnURWPalladioL;font-size:8.97px;stroke:none;">é</text>
   <text y="604.509" x="388.381,393.969,398.35,402.411,405.072,410.395,414.776,417.0185,421.031,428.147,433.46,436.122,441.289,445.67,449.282,453.16,455.822" svgx:width="0.61,0.48,0.44,0.29,0.58,0.48,0.25,0.55,0.78,0.58,0.29,0.56,0.48,0.4,0.42,0.29,0.33" style="fill:rgb(0,0,0);font-family:URWPalladioL-Roma;font-size:8.97px;stroke:none;">decine, Universit</text>
   <text y="604.509" x="458.807" svgx:width="0.48" style="fill:rgb(0,0,0);font-family:VnURWPalladioL;font-size:8.97px;stroke:none;">é</text>
   <text y="604.509" x="466.808,472.396,476.70160000000004,480.399,489.05,494.044,499.367,502.348" svgx:width="0.61,0.48,0.55,0.95,0.55,0.58,0.33,0.4" style="fill:rgb(0,0,0);font-family:URWPalladioL-Roma;font-size:8.97px;stroke:none;">de Montr</text>
   <text y="604.509" x="505.96" svgx:width="0.48" style="fill:rgb(0,0,0);font-family:VnURWPalladioL;font-size:8.97px;stroke:none;">é</text>
   <text y="604.509" x="510.34,514.913,517.574" svgx:width="0.5,0.29,0.25" style="fill:rgb(0,0,0);font-family:URWPalladioL-Roma;font-size:8.97px;stroke:none;">al,</text>
   <text y="616.893" x="94.468,102.95,107.846,113.064,115.987" svgx:width="0.95,0.55,0.58,0.33,0.4" style="fill:rgb(0,0,0);font-family:URWPalladioL-Roma;font-size:8.97px;stroke:none;">Montr</text>
   <text y="616.893" x="119.529" svgx:width="0.48" style="fill:rgb(0,0,0);font-family:VnURWPalladioL;font-size:8.97px;stroke:none;">é</text>
   <text y="616.893" x="123.824,128.307,130.916,133.1585,135.4,141.757,146.24,151.458,155.942,161.42" svgx:width="0.5,0.29,0.25,0.55,0.71,0.5,0.58,0.5,0.61,0.5" style="fill:rgb(0,0,0);font-family:URWPalladioL-Roma;font-size:8.97px;stroke:none;">al, Canada</text>
  </g>
  <path style="fill:none;stroke:rgb(0,0,0);stroke-width:0.4;" d="M76.540 626.510 L518.740 626.510 "/>
  <g begin="text">
   <text y="658.496" x="76.535,82.604,85.365,88.126,91.99,96.033,99.34,103.2244,105.688,110.098,112.8868,115.352,122.523,126.208,131.175,135.585,141.1626,143.591,151.318,154.08,156.86880000000002,159.334,163.744,169.3216,171.75,179.478,184.444,189.41,193.274,196.959,201.926,204.687,209.653,213.696,217.56,225.287,228.049,232.459,234.949,237.435,245.163,250.129,255.095,258.959,262.823,265.584,271.107,274.961,280.483,283.245,286.006,291.529,295.392,303.12,305.881,310.291,312.781,315.268,318.575,324.098,327.962,333.484,336.246,339.007,344.5846,347.013,353.638,357.502,361.365,364.127,367.991,371.298,375.708,381.231,385.273,389.137,391.627,394.114,398.524,404.046,409.026,411.496,419.224,426.395,434.123,440.191,447.9598,450.412,458.14,463.106,465.868,470.834,475.244,479.108,482.99240000000003,485.455,492.626,496.669,499.977,502.738,507.704,510.465,513.773" svgx:width="0.61,0.28,0.28,0.39,0.41,0.33,0.39,0.55,0.44,0.28,0.55,0.72,0.39,0.5,0.44,0.56,0.55,0.78,0.28,0.28,0.55,0.44,0.56,0.55,0.78,0.5,0.5,0.39,0.39,0.5,0.28,0.5,0.41,0.39,0.78,0.28,0.44,0.25,0.55,0.78,0.5,0.5,0.39,0.39,0.28,0.56,0.39,0.56,0.28,0.28,0.56,0.39,0.78,0.28,0.44,0.25,0.55,0.33,0.56,0.39,0.56,0.28,0.28,0.56,0.55,0.67,0.39,0.39,0.28,0.39,0.33,0.44,0.56,0.41,0.39,0.25,0.55,0.44,0.56,0.5,0.55,0.78,0.72,0.78,0.61,0.78,0.55,0.78,0.5,0.28,0.5,0.44,0.39,0.39,0.55,0.72,0.41,0.33,0.28,0.5,0.28,0.33,0.5" style="fill:rgb(0,0,0);font-family:URWPalladioL-Ital;font-size:9.96px;stroke:none;">Effects of Argan Oil on Hyperglycemia, Hyperinsulinemia, Insulin Resistance, and NADPH Oxidase Activity</text>
   <text y="669.754" x="76.535,79.305,84.88260000000001,87.334,93.98,98.961,102.657,107.08,112.62,115.389,119.444,123.867,126.637,129.407,134.387,136.878,144.071,146.841,152.38,156.435,160.858,164.734,168.609,171.927,176.908,180.604,184.48,188.903,192.221,196.096,201.076,203.568,210.213,214.637,217.954" svgx:width="0.28,0.56,0.55,0.67,0.5,0.39,0.44,0.56,0.28,0.41,0.44,0.28,0.28,0.5,0.55,0.72,0.28,0.56,0.41,0.44,0.39,0.39,0.33,0.61,0.39,0.39,0.44,0.33,0.39,0.5,0.55,0.67,0.44,0.33,0.39" style="fill:rgb(0,0,0);font-family:URWPalladioL-Ital;font-size:9.96px;stroke:none;">in Chronically Glucose-Treated Rats</text>
   <text y="689.241" x="76.147,83.898,86.38799999999999,88.879,94.966,97.8544,100.356,109.781,112.68,118.767,123.748,129.188,135.195" svgx:width="0.78,0.25,0.55,0.61,0.29,0.55,0.95,0.29,0.61,0.5,0.55,0.6,0.29" style="fill:rgb(0,0,0);font-family:URWPalladioL-Roma;font-size:9.96px;stroke:none;">A. El Midaoui</text>
   <text y="685.624" x="140.584,144.87,147.262" svgx:width="0.5,0.25,0.5" style="fill:rgb(0,0,0);font-family:URWPalladioL-Roma;font-size:7.57px;stroke:none;">1,2</text>
   <text y="689.241" x="151.543,154.03300000000002,156.524,162.063,164.553,167.045,172.584,175.483,178.382,183.363,186.263,189.162,192.479,199.124,203.896,209.436,213.191,218.631,224.639,227.886" svgx:width="0.25,0.55,0.67,0.25,0.55,0.56,0.29,0.29,0.5,0.29,0.29,0.33,0.67,0.48,0.56,0.4,0.55,0.6,0.33,0.29" style="fill:rgb(0,0,0);font-family:URWPalladioL-Roma;font-size:9.96px;stroke:none;">, Y. Filali-Zegrouti</text>
   <text y="685.624" x="233.276" svgx:width="0.5" style="fill:rgb(0,0,0);font-family:URWPalladioL-Roma;font-size:7.57px;stroke:none;">1</text>
   <text y="689.241" x="237.56,240.05,242.541,250.292,252.782,255.273,261.361,264.2494,266.75,275.039,280.021,282.92,289.007,293.988,299.786" svgx:width="0.25,0.55,0.78,0.25,0.55,0.61,0.29,0.55,0.83,0.5,0.29,0.61,0.5,0.58,0.29" style="fill:rgb(0,0,0);font-family:URWPalladioL-Roma;font-size:9.96px;stroke:none;">, A. El Haidani</text>
   <text y="685.624" x="305.176" svgx:width="0.5" style="fill:rgb(0,0,0);font-family:URWPalladioL-Roma;font-size:7.57px;stroke:none;">1</text>
   <text y="689.241" x="311.95,316.931,322.729,328.8046,331.307,337.962,340.452,342.944,350.007,355.447,361.454,364.702,370.709,374.465" svgx:width="0.5,0.58,0.61,0.55,0.67,0.25,0.55,0.71,0.55,0.6,0.33,0.6,0.4,0.48" style="fill:rgb(0,0,0);font-family:URWPalladioL-Roma;font-size:9.96px;stroke:none;">and R. Couture</text>
   <text y="685.624" x="381.728" svgx:width="0.5" style="fill:rgb(0,0,0);font-family:URWPalladioL-Roma;font-size:7.57px;stroke:none;">2</text>
   <text y="706.313" x="82.698" svgx:width="0.5" style="fill:rgb(0,0,0);font-family:URWPalladioL-Roma;font-size:6.97px;stroke:none;">1</text>
   <text y="709.568" x="94.468" svgx:width="0.61" style="fill:rgb(0,0,0);font-family:VnURWPalladioL;font-size:8.97px;stroke:none;">É</text>
   <text y="709.568" x="100.056,105.178,110.692,113.354,118.85,123.15559999999999,126.222,131.81,136.1156,139.181,145.291,149.672,153.732,159.055,163.436,166.893,170.954,176.276,180.657,182.89950000000002,187.224,191.797,197.385,200.046,205.04,207.701,212.695,217.78,220.441,224.822,227.0645,230.282,235.87,241.193,246.36,249.022,252.479,257.472,262.795,268.118,272.499,280.574,284.955,290.278,293.23810000000003,296.25,303.2466,306.356,311.158,315.731,321.053" svgx:width="0.56,0.6,0.29,0.6,0.48,0.55,0.61,0.48,0.55,0.67,0.48,0.44,0.58,0.48,0.4,0.44,0.58,0.48,0.25,0.55,0.5,0.61,0.29,0.55,0.29,0.55,0.56,0.29,0.48,0.25,0.55,0.61,0.58,0.56,0.29,0.4,0.55,0.58,0.58,0.48,0.88,0.48,0.58,0.33,0.55,0.78,0.55,0.52,0.5,0.58,0.33" style="fill:rgb(0,0,0);font-family:URWPalladioL-Roma;font-size:8.97px;stroke:none;">quipe de Recherche: “Biologie, Environnement &amp; Sant</text>
   <text y="709.568" x="324.036" svgx:width="0.48" style="fill:rgb(0,0,0);font-family:VnURWPalladioL;font-size:8.97px;stroke:none;">é</text>
   <text y="709.568" x="328.416,332.989,335.2315,338.458" svgx:width="0.5,0.25,0.55,0.77" style="fill:rgb(0,0,0);font-family:URWPalladioL-Roma;font-size:8.97px;stroke:none;">”, D</text>
   <text y="709.568" x="345.535" svgx:width="0.48" style="fill:rgb(0,0,0);font-family:VnURWPalladioL;font-size:8.97px;stroke:none;">é</text>
   <text y="709.568" x="349.916,355.413,359.985,363.598,366.579,370.96,379.036,383.417,388.74,391.7001,394.712,400.3,404.60560000000004,407.671,413.259,415.921,420.914,423.576,428.569,433.654,436.316,440.696,442.93850000000003,446.349,451.434,456.235,461.841,467.429,476.575,483.691,489.013,491.675,496.842,501.223,504.835,508.713,511.375" svgx:width="0.6,0.5,0.4,0.33,0.48,0.88,0.48,0.58,0.33,0.55,0.61,0.48,0.55,0.61,0.29,0.55,0.29,0.55,0.56,0.29,0.48,0.25,0.55,0.56,0.52,0.61,0.61,1.0,0.78,0.58,0.29,0.56,0.48,0.4,0.42,0.29,0.33" style="fill:rgb(0,0,0);font-family:URWPalladioL-Roma;font-size:8.97px;stroke:none;">partement de Biologie; FSTE—Universit</text>
   <text y="709.568" x="514.359" svgx:width="0.48" style="fill:rgb(0,0,0);font-family:VnURWPalladioL;font-size:8.97px;stroke:none;">é</text>
   <text y="721.951" x="94.468,102.95,107.846,113.253,115.862,120.345,125.3682,127.572,130.594,134.395,142.313,146.796,149.369,151.979,154.22150000000002,156.462,161.94,165.482,169.024,173.507,177.488,182.706,185.316,190.794,193.403,197.886,206.853,215.335,219.818,223.199,228.094" svgx:width="0.95,0.55,0.6,0.29,0.5,0.56,0.55,0.34,0.42,0.88,0.5,0.29,0.29,0.25,0.55,0.61,0.4,0.4,0.5,0.44,0.58,0.29,0.61,0.29,0.5,1.0,0.95,0.5,0.4,0.55,0.44" style="fill:rgb(0,0,0);font-family:URWPalladioL-Roma;font-size:8.97px;stroke:none;">Moulay Ismaïl; Errachidia—Maroc</text>
   <text y="732.077" x="83.047" svgx:width="0.5" style="fill:rgb(0,0,0);font-family:URWPalladioL-Roma;font-size:6.97px;stroke:none;">2</text>
   <text y="735.331" x="94.468" svgx:width="0.77" style="fill:rgb(0,0,0);font-family:URWPalladioL-Roma;font-size:8.97px;stroke:none;">D</text>
   <text y="735.331" x="101.547" svgx:width="0.48" style="fill:rgb(0,0,0);font-family:VnURWPalladioL;font-size:8.97px;stroke:none;">é</text>
   <text y="735.331" x="105.928,111.425,115.997,119.61,122.592,126.972,135.048,139.429,144.752,147.71210000000002,151.355,156.943,161.2486,164.945,170.469,175.792,180.877,184.755,187.416,192.41,195.071,200.065,205.15,207.811,212.1166,215.805,224.457,229.45" svgx:width="0.6,0.5,0.4,0.33,0.48,0.88,0.48,0.58,0.33,0.55,0.61,0.48,0.55,0.6,0.58,0.56,0.42,0.29,0.55,0.29,0.55,0.56,0.29,0.48,0.55,0.95,0.55,0.29" style="fill:rgb(0,0,0);font-family:URWPalladioL-Roma;font-size:8.97px;stroke:none;">partement de Physiologie Mol</text>
   <text y="735.331" x="232.115" svgx:width="0.48" style="fill:rgb(0,0,0);font-family:VnURWPalladioL;font-size:8.97px;stroke:none;">é</text>
   <text y="735.331" x="236.496,240.557,246.072,248.733,253.306,255.967,259.415,263.72060000000005,267.418,271.798,274.7581,278.402,281.484,286.807" svgx:width="0.44,0.6,0.29,0.5,0.29,0.4,0.48,0.55,0.48,0.33,0.55,0.34,0.58,0.33" style="fill:rgb(0,0,0);font-family:URWPalladioL-Roma;font-size:8.97px;stroke:none;">culaire et Int</text>
   <text y="735.331" x="289.788" svgx:width="0.48" style="fill:rgb(0,0,0);font-family:VnURWPalladioL;font-size:8.97px;stroke:none;">é</text>
   <text y="735.331" x="294.169,299.254,302.867,307.439,310.421,313.082,318.25,322.63,324.8725,328.886,333.971,338.544,342.596,348.11,350.772" svgx:width="0.56,0.4,0.5,0.33,0.29,0.56,0.48,0.25,0.55,0.56,0.5,0.44,0.6,0.29,0.33" style="fill:rgb(0,0,0);font-family:URWPalladioL-Roma;font-size:8.97px;stroke:none;">grative, Facult</text>
   <text y="735.331" x="353.758" svgx:width="0.48" style="fill:rgb(0,0,0);font-family:VnURWPalladioL;font-size:8.97px;stroke:none;">é</text>
   <text y="735.331" x="361.759,367.347,371.6526,375.35" svgx:width="0.61,0.48,0.55,0.95" style="fill:rgb(0,0,0);font-family:URWPalladioL-Roma;font-size:8.97px;stroke:none;">de M</text>
   <text y="735.331" x="384.0" svgx:width="0.48" style="fill:rgb(0,0,0);font-family:VnURWPalladioL;font-size:8.97px;stroke:none;">é</text>
   <text y="735.331" x="388.381,393.969,398.35,402.411,405.072,410.395,414.776,417.0185,421.031,428.147,433.46,436.122,441.289,445.67,449.282,453.16,455.822" svgx:width="0.61,0.48,0.44,0.29,0.58,0.48,0.25,0.55,0.78,0.58,0.29,0.56,0.48,0.4,0.42,0.29,0.33" style="fill:rgb(0,0,0);font-family:URWPalladioL-Roma;font-size:8.97px;stroke:none;">decine, Universit</text>
   <text y="735.331" x="458.807" svgx:width="0.48" style="fill:rgb(0,0,0);font-family:VnURWPalladioL;font-size:8.97px;stroke:none;">é</text>
   <text y="735.331" x="466.808,472.396,476.70160000000004,480.399,489.05,494.044,499.367,502.348" svgx:width="0.61,0.48,0.55,0.95,0.55,0.58,0.33,0.4" style="fill:rgb(0,0,0);font-family:URWPalladioL-Roma;font-size:8.97px;stroke:none;">de Montr</text>
   <text y="735.331" x="505.96" svgx:width="0.48" style="fill:rgb(0,0,0);font-family:VnURWPalladioL;font-size:8.97px;stroke:none;">é</text>
   <text y="735.331" x="510.34,514.913,517.574" svgx:width="0.5,0.29,0.25" style="fill:rgb(0,0,0);font-family:URWPalladioL-Roma;font-size:8.97px;stroke:none;">al,</text>
   <text y="747.715" x="94.468,102.95,107.846,113.064,115.987" svgx:width="0.95,0.55,0.58,0.33,0.4" style="fill:rgb(0,0,0);font-family:URWPalladioL-Roma;font-size:8.97px;stroke:none;">Montr</text>
   <text y="747.715" x="119.529" svgx:width="0.48" style="fill:rgb(0,0,0);font-family:VnURWPalladioL;font-size:8.97px;stroke:none;">é</text>
   <text y="747.715" x="123.824,128.307,130.916,133.1585,135.4,141.757,146.24,151.458,155.942,161.42" svgx:width="0.5,0.29,0.25,0.55,0.71,0.5,0.58,0.5,0.61,0.5" style="fill:rgb(0,0,0);font-family:URWPalladioL-Roma;font-size:8.97px;stroke:none;">al, Canada</text>
  </g>
  <path style="fill:none;stroke:rgb(0,0,0);stroke-width:0.4;" d="M76.540 757.330 L518.740 757.330 "/>
 </g>
</svg>
