<?xml version="1.0" encoding="UTF-8"?>
<svg height="731.77" width="529.973" xmlns="http://www.w3.org/2000/svg">
 <g id="page" xmlns:svgx="http://www.xml-cml.org/schema/svgx">
  <g begin="text">
   <text y="62.979" x="76.535,79.189,83.62,86.274,88.26650000000001,90.738,93.392,95.3845,97.377,104.901,108.439,110.655,112.64750000000001,115.118,119.55,122.793,125.009" svgx:width="0.33,0.56,0.33,0.25,0.55,0.33,0.25,0.55,0.94,0.44,0.28,0.25,0.55,0.56,0.41,0.28,0.25" style="fill:rgb(0,0,0);font-family:URWPalladioL-Ital;font-size:7.97px;stroke:none;">Int. J. Mol. Sci.</text>
   <text y="62.979" x="129.472,133.457,137.442,141.427" svgx:width="0.5,0.5,0.5,0.5" style="fill:rgb(0,0,0);font-family:URWPalladioL-Bold;font-size:7.97px;stroke:none;">2017</text>
   <text y="62.979" x="145.412" svgx:width="0.25" style="fill:rgb(0,0,0);font-family:URWPalladioL-Roma;font-size:7.97px;stroke:none;">,</text>
   <text y="62.979" x="149.398,153.383" svgx:width="0.5,0.5" style="fill:rgb(0,0,0);font-family:URWPalladioL-Ital;font-size:7.97px;stroke:none;">18</text>
   <text y="62.979" x="157.368,159.3605,161.353,165.338,169.323,173.308,177.293,491.809,495.794,499.779,501.772,506.123,508.7531,510.77,514.755" svgx:width="0.25,0.55,0.5,0.5,0.5,0.5,0.55,0.5,0.5,0.55,0.55,0.33,0.55,0.5,0.5" style="fill:rgb(0,0,0);font-family:URWPalladioL-Roma;font-size:7.97px;stroke:none;">, 1383 23 of 41</text>
   <text y="97.848" x="76.535,81.403,85.711,90.02,94.887,100.801,104.114,107.071,112.152,115.0404,117.863,121.694,127.243,130.2,135.067,139.2502,142.13,145.087,150.8638,153.745,159.364,163.378,168.459,171.416,177.1928,180.084,183.468,189.596,195.51,200.022,203.335,206.292,211.84,217.754,222.063,224.553,227.418,230.375,236.289,240.801,243.758,249.886,256.095,259.052,264.966,270.5436,273.36,278.979,282.993,288.074,291.031,296.8078,299.699,305.807,308.764,313.845,318.153,321.466,324.423,328.935,331.892,335.205,340.7826,343.599,348.68,354.594,360.6696,363.556,372.529,377.397,386.37,391.918,395.932,401.50960000000003,404.336,410.443,414.274,419.823,424.335,429.202,433.511,437.819,442.687,446.996,449.486,453.408,456.832,462.6088,465.49,468.803,474.717,477.674,481.8572,484.737,489.249,494.797,500.711,504.024,508.891,514.135,517.448" svgx:width="0.48,0.42,0.42,0.48,0.58,0.33,0.29,0.5,0.29,0.55,0.4,0.55,0.29,0.48,0.42,0.55,0.29,0.58,0.55,0.55,0.4,0.5,0.29,0.58,0.55,0.33,0.6,0.58,0.44,0.33,0.29,0.55,0.58,0.42,0.25,0.55,0.29,0.58,0.44,0.29,0.6,0.61,0.29,0.58,0.56,0.55,0.55,0.4,0.5,0.29,0.58,0.55,0.6,0.29,0.5,0.42,0.33,0.29,0.44,0.29,0.33,0.56,0.55,0.5,0.58,0.61,0.55,0.88,0.48,0.88,0.55,0.4,0.56,0.55,0.6,0.4,0.55,0.44,0.48,0.42,0.42,0.48,0.42,0.25,0.55,0.34,0.58,0.55,0.33,0.58,0.29,0.42,0.55,0.44,0.55,0.58,0.33,0.48,0.52,0.33,0.25" style="fill:rgb(0,0,0);font-family:URWPalladioL-Roma;font-size:9.96px;stroke:none;">essential roles in brain functions, including brain plasticity and memory processes. In this context,</text>
   <text y="111.358" x="76.535,79.848,85.762,90.5428,93.343,99.45,105.578,109.592,115.699,121.247,125.556,130.3368,133.147,138.695,141.9818,144.792,148.105,154.019,156.976,161.1592,164.008,172.483,178.032,182.045,187.62259999999998,190.409,198.884,203.965,208.1482,210.986,214.299,219.77700000000002,222.571,226.88,230.192,236.32,242.529,248.1066,250.892,254.205,260.119,264.8998,267.71,272.577,275.778,279.162,284.03,288.542,291.8288,294.568,300.116,303.4028,306.213,312.351,320.257,325.175,332.9438,335.794,340.103,346.231,352.338,358.445,361.402,366.27,375.243,380.11,386.024,389.337,394.418,397.731,400.688,406.236,412.01279999999997,414.874,420.422,426.1988,429.05,433.358,439.272,444.821,448.835,452.1218,454.861,459.942,465.856,471.9316,474.788,477.745,483.294,489.208,494.78560000000004,497.571,500.884,505.751,509.765" svgx:width="0.33,0.58,0.48,0.55,0.6,0.6,0.4,0.6,0.55,0.42,0.48,0.55,0.55,0.33,0.55,0.33,0.58,0.29,0.42,0.55,0.83,0.55,0.4,0.56,0.55,0.83,0.5,0.42,0.55,0.33,0.55,0.55,0.42,0.33,0.6,0.61,0.56,0.55,0.33,0.58,0.48,0.55,0.48,0.33,0.33,0.48,0.44,0.33,0.55,0.55,0.33,0.55,0.6,0.78,0.56,0.78,0.55,0.42,0.6,0.6,0.6,0.29,0.48,0.88,0.48,0.58,0.33,0.5,0.33,0.29,0.55,0.58,0.55,0.55,0.58,0.55,0.42,0.58,0.55,0.4,0.33,0.55,0.5,0.58,0.61,0.55,0.29,0.55,0.58,0.56,0.55,0.33,0.48,0.4,0.88" style="fill:rgb(0,0,0);font-family:URWPalladioL-Roma;font-size:9.96px;stroke:none;">the purpose of this work was to study the effect of PUFA supplementation on short and long term</text>
   <text y="124.867" x="76.535,85.262,89.996,98.722,104.118,108.022,113.59960000000001,116.017,121.957,125.683,131.079,135.467,140.201,144.391,148.581,153.315,157.506,159.996,163.099,169.158,174.909,179.6898,182.144,189.833,194.221,200.18,203.402,208.1828,210.636,216.032,219.936,224.877,227.7654,230.254,233.475,238.871,243.971,246.847,251.235,254.111,257.333,262.91060000000004,265.328,269.518,272.74,278.7,284.738,287.614,292.348,296.5312,299.039,307.281,312.015,315.741,320.5218,322.975,327.363,332.304,336.208,340.112,342.988,347.722,353.7976,356.26,361.657,367.616,370.9028,373.338,378.28,382.668,387.056,392.452,396.177,402.216,405.092,410.844,416.4216,418.839,422.061,427.539,429.957,433.179,438.931,443.7118,446.165,453.933,457.659,463.154,468.095,473.847,476.723,481.665,486.606,489.828,492.704,498.1,503.8768,506.352,509.643,515.039" svgx:width="0.88,0.48,0.88,0.55,0.4,0.56,0.55,0.6,0.4,0.55,0.44,0.48,0.42,0.42,0.48,0.42,0.25,0.55,0.61,0.58,0.48,0.55,0.78,0.44,0.6,0.33,0.48,0.55,0.55,0.4,0.5,0.29,0.55,0.33,0.55,0.52,0.29,0.44,0.29,0.33,0.56,0.55,0.42,0.33,0.6,0.61,0.29,0.48,0.42,0.55,0.83,0.48,0.4,0.48,0.55,0.44,0.5,0.4,0.4,0.29,0.48,0.61,0.55,0.55,0.6,0.33,0.55,0.5,0.44,0.44,0.55,0.4,0.61,0.29,0.58,0.56,0.55,0.33,0.55,0.55,0.33,0.58,0.48,0.55,0.79,0.4,0.56,0.5,0.58,0.29,0.5,0.5,0.33,0.29,0.55,0.58,0.55,0.33,0.55,0.4" style="fill:rgb(0,0,0);font-family:URWPalladioL-Roma;font-size:9.96px;stroke:none;">memory processes. The Acute oral toxicity studies were carried out according to the Organization for</text>
   <text y="138.377" x="76.535,82.738,87.245,92.788,98.697,104.24,113.204,116.158,120.5404,123.152,130.35,135.893,139.274,144.817,150.918,155.781,159.791,164.867,168.176,171.13,176.673,182.4498,185.059,190.135,196.043,202.11860000000001,204.733,212.591,217.453,223.189,228.052,231.006,236.549,242.65,251.615,256.477,262.386,265.67280000000005,268.182,271.563,279.542,285.745,292.943,300.8,304.08680000000004,306.658,312.303,318.424,321.378,327.581,332.444,335.398,338.352,344.261,349.0418,351.611,360.047,365.59,368.08,371.214,379.112,387.091,392.766,396.147,401.223,406.299,411.279,413.862,418.938,424.846,430.9216,433.536,436.846,442.754,447.5348,450.094,455.739,461.282,466.824,472.8996,475.515,480.59,486.499,492.57460000000003,495.189,503.046,506.975,513.097" svgx:width="0.61,0.44,0.55,0.58,0.55,0.88,0.29,0.44,0.55,0.71,0.55,0.33,0.55,0.6,0.48,0.4,0.5,0.33,0.29,0.55,0.58,0.55,0.5,0.58,0.61,0.55,0.77,0.48,0.56,0.48,0.29,0.55,0.6,0.88,0.48,0.58,0.33,0.55,0.33,0.79,0.61,0.71,0.77,0.33,0.55,0.56,0.6,0.29,0.61,0.48,0.29,0.29,0.58,0.48,0.55,0.83,0.55,0.25,0.55,0.78,0.79,0.61,0.33,0.5,0.5,0.5,0.55,0.5,0.58,0.61,0.55,0.33,0.58,0.48,0.55,0.56,0.55,0.55,0.61,0.55,0.5,0.58,0.61,0.55,0.77,0.4,0.6,0.56" style="fill:rgb(0,0,0);font-family:URWPalladioL-Roma;font-size:9.96px;stroke:none;">Economic Co-operation and Development (OECD) guideline No. AOT-425 and the Food and Drug</text>
   <text y="151.886" x="76.147,84.053,90.262,99.235,102.192,108.106,111.063,115.372,118.685,122.698,127.779,131.092,134.049,139.598,145.37480000000002,148.591,151.975,157.625,165.49,173.396,176.6828,179.849,183.161,188.639,191.789,196.656,202.398,207.479,210.436,216.563,221.644,224.957,229.7378,232.904,236.216,241.765,247.008,249.965,254.477,257.434,260.747,266.32460000000003,269.476,274.557,280.471,286.5466,289.749,293.062,298.54,301.689,307.898,312.766,316.078,320.946,324.96,333.933,336.89,342.804,347.5848,350.751,354.063,359.978,364.7588,367.924,376.897,379.854,385.768,388.726,397.698,403.826,412.5908,415.868,418.825,423.692,427.005,432.919,438.0,440.8884,444.036,450.245,455.794,460.102,464.8828,468.049,473.597,476.8838,480.06,483.373,489.287,494.0678,497.224,503.351,507.66,512.527" svgx:width="0.78,0.61,0.88,0.29,0.58,0.29,0.42,0.33,0.4,0.5,0.33,0.29,0.55,0.58,0.55,0.33,0.56,0.77,0.78,0.33,0.55,0.33,0.55,0.55,0.48,0.56,0.5,0.29,0.6,0.5,0.33,0.48,0.55,0.33,0.55,0.52,0.29,0.44,0.29,0.33,0.56,0.55,0.5,0.58,0.61,0.55,0.33,0.55,0.55,0.61,0.48,0.33,0.48,0.4,0.88,0.29,0.58,0.48,0.55,0.33,0.58,0.48,0.55,0.88,0.29,0.58,0.29,0.88,0.6,0.88,0.55,0.29,0.48,0.33,0.58,0.5,0.29,0.55,0.61,0.55,0.42,0.48,0.55,0.55,0.33,0.55,0.33,0.58,0.48,0.55,0.6,0.42,0.48,0.61" style="fill:rgb(0,0,0);font-family:URWPalladioL-Roma;font-size:9.96px;stroke:none;">Administration (FDA) to evaluate toxicity and to determine the minimum lethal dose of the used</text>
   <text y="165.395" x="76.535,82.083,85.04,87.998,92.306,94.79599999999999,99.247,107.0158,110.079,113.392,118.94,122.253,127.334,130.2224,133.218,138.766,142.0528,145.077,150.158,155.13799999999998,158.165,163.246,169.455,175.583,178.54,181.8268,184.779,193.752,198.833,201.79,206.5708,209.584,213.598,218.679,221.992,226.3,228.79000000000002,231.879,240.354,245.222,248.179,253.829,259.743,264.611,270.6866,273.746,277.13,282.211,287.292" svgx:width="0.55,0.29,0.29,0.42,0.25,0.55,0.78,0.55,0.33,0.55,0.33,0.5,0.29,0.55,0.55,0.33,0.55,0.5,0.5,0.55,0.5,0.61,0.6,0.29,0.33,0.55,0.88,0.5,0.29,0.48,0.55,0.4,0.5,0.33,0.42,0.25,0.55,0.83,0.48,0.29,0.56,0.58,0.48,0.61,0.55,0.33,0.5,0.5,0.5" style="fill:rgb(0,0,0);font-family:URWPalladioL-Roma;font-size:9.96px;stroke:none;">oils. A total of 20 adult male rats, weighed (170</text>
   <text y="165.395" x="295.424" svgx:width="0.78" style="fill:rgb(0,0,0);font-family:CMSY10;font-size:10.38px;stroke:none;">±</text>
   <text y="165.395" x="306.545,311.626,314.9128,317.936,323.586,326.076,329.165,337.64,342.508,346.339,351.1198,354.133,358.147,363.228,369.142,375.351,380.899,389.872,392.829,398.4066,401.406,407.615,410.572,416.313,419.27,425.479,430.347,436.4226,439.482,442.439,448.354,451.666,457.144,460.141,463.454,469.368,473.209,478.077,482.8578,485.871,491.521,495.352,500.9,507.028,513.135,517.444" svgx:width="0.5,0.33,0.55,0.56,0.25,0.55,0.83,0.48,0.4,0.48,0.55,0.4,0.5,0.58,0.61,0.55,0.88,0.29,0.56,0.55,0.61,0.29,0.56,0.29,0.61,0.48,0.61,0.55,0.29,0.58,0.33,0.55,0.55,0.33,0.58,0.4,0.48,0.48,0.55,0.56,0.4,0.55,0.6,0.6,0.42,0.25" style="fill:rgb(0,0,0);font-family:URWPalladioL-Roma;font-size:9.96px;stroke:none;">6) g, were randomly divided into three groups:</text>
   <text y="178.905" x="76.207,79.591,84.672,87.9588,91.409,97.09,99.58,102.973,107.485,113.034,118.948,122.261,126.102,131.65,134.5384,137.95,143.6,147.431,152.98,159.107,165.215,169.523,172.013,175.631,179.014,184.095,187.3818,190.833,200.446,205.994,210.974,214.418,219.499,224.58,229.661,232.151,237.008,242.658,246.489,252.038,258.165,264.272,268.4552,271.934,275.766,280.633,285.145,290.012,292.97,298.711,303.578,309.6536,313.141,322.754,328.302,333.383,339.003,341.8914,345.303,350.851,353.809,356.6974,360.119,365.2,368.4868,371.866,376.947,382.028,387.00800000000004,390.452,399.425,405.075,411.233,416.883,422.533,425.023,428.641,432.024,437.105,440.39180000000005,443.833,451.738,455.58,461.1576,464.573,469.654,474.735,479.816,482.306,487.163,492.813,496.644,502.192,508.32,514.427" svgx:width="0.33,0.5,0.33,0.55,0.61,0.25,0.55,0.44,0.55,0.58,0.33,0.4,0.55,0.29,0.55,0.56,0.4,0.55,0.6,0.6,0.42,0.25,0.55,0.33,0.5,0.33,0.55,0.95,0.55,0.5,0.55,0.5,0.5,0.5,0.25,0.55,0.56,0.4,0.55,0.6,0.6,0.42,0.55,0.4,0.48,0.44,0.48,0.29,0.56,0.48,0.61,0.55,0.95,0.55,0.5,0.55,0.29,0.55,0.55,0.29,0.29,0.55,0.5,0.33,0.55,0.5,0.5,0.5,0.55,0.88,0.56,0.61,0.56,0.56,0.25,0.55,0.33,0.5,0.33,0.55,0.78,0.4,0.56,0.55,0.5,0.5,0.5,0.25,0.55,0.56,0.4,0.55,0.6,0.6,0.42" style="fill:rgb(0,0,0);font-family:URWPalladioL-Roma;font-size:9.96px;stroke:none;">(1) T: control groups, (2) Moa 750: groups received Moabi oil at 750 mg/kg, (3) Arg 750: groups</text>
   <text y="192.414" x="76.535,80.366,85.234,89.745,94.613,97.57,103.311,108.179,114.2546,117.386,125.292,129.123,134.773,139.854,145.63080000000002,148.765,154.314,157.271,160.15939999999998,163.216,168.297,171.5838,174.607,179.688,184.769,189.749,192.837,201.81,207.46,213.618,219.268,224.918,227.40800000000002,232.052,238.281,244.195,248.9758,252.061,257.142,263.056,266.013,274.986,280.067,283.024,287.2072,290.32,298.795,303.663,307.494,312.2748,315.359,321.009,325.876,331.984,335.2708,338.284,344.412,350.326,356.535,361.402,365.38599999999997,368.414,371.727,375.558,380.425,385.506,388.819,397.792,402.659,408.574,411.86080000000004,414.884,418.268,423.816,427.79999999999995,430.818,435.798,438.897,447.869,453.418,459.332,462.645,468.559,471.04900000000004,475.693,483.599,489.37579999999997,492.5,498.049,503.668,506.046,510.914,515.425" svgx:width="0.4,0.48,0.44,0.48,0.29,0.56,0.48,0.61,0.55,0.78,0.4,0.56,0.5,0.58,0.55,0.55,0.29,0.29,0.55,0.5,0.33,0.55,0.5,0.5,0.5,0.55,0.88,0.56,0.61,0.56,0.56,0.25,0.55,0.61,0.58,0.48,0.55,0.5,0.58,0.29,0.88,0.5,0.29,0.42,0.55,0.83,0.48,0.4,0.48,0.55,0.56,0.48,0.6,0.33,0.55,0.6,0.58,0.61,0.48,0.4,0.55,0.33,0.4,0.48,0.5,0.33,0.88,0.48,0.58,0.33,0.55,0.33,0.55,0.4,0.55,0.5,0.55,0.88,0.55,0.58,0.33,0.58,0.25,0.55,0.78,0.58,0.55,0.55,0.55,0.23,0.48,0.44,0.33" style="fill:rgb(0,0,0);font-family:URWPalladioL-Roma;font-size:9.96px;stroke:none;">received Argan oil at 750 mg/kg. The animals were kept under treatment for 1 month. An object</text>
   <text y="205.924" x="76.535,80.366,85.234,89.745,95.294,100.944,106.858,109.815,113.128,116.085,121.633,127.40979999999999,130.413,133.726,138.807,143.115,148.6926,151.621,160.096,165.177,169.3602,172.341,178.469,182.777,187.645,193.72060000000002,196.719,200.032,205.51000000000002,208.436,213.303,219.045,224.126,227.083,233.21,238.291,241.604,246.3848,249.327,252.64,258.554,263.3348,266.277,270.586,276.5,282.048,286.062,289.34880000000004,292.241,297.322,303.236,309.3116,312.3,315.257,320.806,326.72,332.29760000000005,335.225,338.538,343.405,347.419,356.18379999999996,359.258,368.231,373.098,382.071,387.62,391.634,396.176,398.666,402.903,409.132,415.047,419.8278,422.78,428.46,431.417,440.39,445.1708,448.113,452.422,458.529,463.397,469.311,472.5978,475.479,480.347,485.59,491.697,494.654,500.203,504.217,507.174,513.088" svgx:width="0.4,0.48,0.44,0.55,0.56,0.58,0.29,0.33,0.29,0.55,0.58,0.55,0.33,0.5,0.42,0.56,0.55,0.83,0.5,0.42,0.55,0.6,0.42,0.48,0.61,0.55,0.33,0.55,0.55,0.48,0.56,0.5,0.29,0.6,0.5,0.33,0.48,0.55,0.33,0.58,0.48,0.55,0.42,0.58,0.55,0.4,0.33,0.55,0.5,0.58,0.61,0.55,0.29,0.55,0.58,0.56,0.55,0.33,0.48,0.4,0.88,0.55,0.88,0.48,0.88,0.55,0.4,0.56,0.25,0.55,0.61,0.58,0.48,0.55,0.61,0.29,0.88,0.48,0.55,0.42,0.6,0.48,0.58,0.33,0.55,0.48,0.52,0.6,0.29,0.55,0.4,0.29,0.58,0.56" style="fill:rgb(0,0,0);font-family:URWPalladioL-Roma;font-size:9.96px;stroke:none;">recognition task was used to evaluate the short and long term memory. The Time spent exploring</text>
   <text y="219.433" x="76.535,81.283,86.24,90.641,96.4178,98.898,104.311,109.792,112.112,116.86,121.261,124.5478,126.981,135.248,140.205,144.3882,146.896,150.633,155.381,159.783,165.195,168.932,174.989,179.737,185.794,188.28400000000002,191.365,194.705,200.475,203.706,208.663,213.064,216.3508,218.783,227.536,232.285,241.038,246.45,250.366,255.9436,258.365,261.666,267.079,271.063,273.482,276.714,282.483,287.2638,289.719,293.02,297.977,306.73,309.614,312.499,315.384,320.34,324.32399999999996,326.744,332.156,337.638,339.957,344.706,349.107,352.39380000000006,354.827,363.094,368.05,372.2332,374.741,380.798,385.546,394.299,399.712,405.481,409.684,412.916,416.831,421.787,425.019,429.767,435.8426,438.312,441.197,444.48380000000003,446.986,450.217,455.987,460.7678,463.223,467.138,472.095,475.38180000000006,477.824,482.573,487.688,493.457,496.342,501.823,504.708,507.939,512.688" svgx:width="0.48,0.5,0.44,0.58,0.55,0.55,0.55,0.23,0.48,0.44,0.33,0.55,0.83,0.5,0.42,0.55,0.4,0.48,0.44,0.55,0.4,0.61,0.48,0.61,0.25,0.55,0.34,0.58,0.33,0.5,0.44,0.33,0.55,0.88,0.48,0.88,0.55,0.4,0.56,0.55,0.33,0.55,0.4,0.55,0.33,0.58,0.48,0.55,0.33,0.5,0.88,0.29,0.29,0.29,0.5,0.4,0.55,0.55,0.55,0.23,0.48,0.44,0.33,0.55,0.83,0.5,0.42,0.55,0.61,0.48,0.88,0.55,0.58,0.42,0.33,0.4,0.5,0.33,0.48,0.61,0.55,0.29,0.33,0.55,0.33,0.58,0.48,0.55,0.4,0.5,0.33,0.55,0.48,0.52,0.58,0.29,0.55,0.29,0.33,0.48,0.61" style="fill:rgb(0,0,0);font-family:URWPalladioL-Roma;font-size:9.96px;stroke:none;">each object was recorded. Intact memory for the familiar object was demonstrated if the rat exhibited</text>
   <text y="232.942" x="76.535,81.515,84.441,89.522,95.629,99.46,104.328,107.712,112.579,116.42,121.288,127.202,131.714,136.581,141.56099999999998,144.487,147.871,153.42,157.404,160.258,163.571,169.485,174.2658,177.178,183.092,188.641,194.382,199.25,202.1384,205.032,210.58,216.199,218.577,223.445,227.957,231.2438,234.094,237.052,242.8288,245.791,249.104,255.018,259.7988,262.71,267.222,273.136,278.685,281.642,286.154,290.9348,293.846,299.953,305.868,310.949,315.257,320.125,322.615,326.76,334.5288,337.491,343.599,347.43,352.297,355.681,360.548,364.39,369.257,375.171,379.683,384.4638,387.376,395.851,400.932,405.1152,408.065,411.022,416.936,423.145,426.102,430.614,435.695,439.008,443.876,449.9516,452.909,455.867,459.15380000000005,462.075,465.388,471.302,476.0828,478.995,483.009,488.09,491.3768,494.228,498.536,504.643,509.511,515.425" svgx:width="0.5,0.55,0.5,0.6,0.4,0.48,0.33,0.48,0.4,0.48,0.58,0.44,0.48,0.5,0.55,0.33,0.55,0.4,0.55,0.33,0.58,0.48,0.55,0.58,0.55,0.56,0.48,0.29,0.55,0.55,0.55,0.23,0.48,0.44,0.33,0.55,0.29,0.58,0.55,0.33,0.58,0.48,0.55,0.44,0.58,0.55,0.29,0.44,0.48,0.55,0.6,0.58,0.5,0.42,0.48,0.25,0.55,0.78,0.55,0.6,0.4,0.48,0.33,0.48,0.4,0.48,0.58,0.44,0.48,0.55,0.83,0.5,0.42,0.55,0.29,0.58,0.61,0.29,0.44,0.5,0.33,0.48,0.61,0.55,0.29,0.33,0.55,0.33,0.58,0.48,0.55,0.4,0.5,0.33,0.55,0.42,0.6,0.48,0.58,0.33" style="fill:rgb(0,0,0);font-family:URWPalladioL-Roma;font-size:9.96px;stroke:none;">a “preference” for the novel object in the choice phase. A preference was indicated if the rat spent</text>
   <text y="246.452" x="76.535,85.358,90.814,94.581,99.3618,101.856,105.114,108.021,116.845,121.6258,124.119,127.377,133.192,138.189,143.9658,146.492,150.929,156.745,161.741,167.557,171.993,176.7738,179.268,187.602,190.509,193.767,199.5438,202.071,205.328,211.144,215.9248,218.428,224.244,229.69,235.336,240.122,243.0104,245.528,250.984,256.51,258.848,263.634,268.071,271.329,273.819,276.914,283.04,288.855,293.6358,296.13,299.897,304.684,308.92,314.946,317.854,321.111,325.2942,327.836,332.073,337.889,343.344,351.678,356.465,362.5406,365.058,368.316,374.131,379.128,382.385,384.875,387.371,392.368,395.6548,398.113,403.093,405.598,411.703,417.159,421.396,426.1768,428.67,431.578,436.364,442.01,446.797,449.6854,452.193,457.648,460.93480000000005,463.464,468.46,473.457,478.453,483.433,485.937,494.761,500.316,506.372,511.928,517.483" svgx:width="0.88,0.55,0.4,0.48,0.55,0.33,0.29,0.88,0.48,0.55,0.33,0.58,0.5,0.58,0.55,0.44,0.58,0.5,0.58,0.44,0.48,0.55,0.83,0.29,0.33,0.58,0.55,0.33,0.58,0.48,0.55,0.58,0.55,0.56,0.48,0.29,0.55,0.55,0.55,0.23,0.48,0.44,0.33,0.25,0.55,0.61,0.58,0.48,0.55,0.4,0.48,0.42,0.6,0.29,0.33,0.42,0.55,0.42,0.58,0.55,0.83,0.48,0.61,0.55,0.33,0.58,0.5,0.33,0.25,0.55,0.5,0.33,0.55,0.5,0.55,0.61,0.55,0.42,0.48,0.55,0.29,0.48,0.56,0.48,0.29,0.55,0.55,0.33,0.55,0.5,0.5,0.5,0.5,0.55,0.88,0.56,0.61,0.56,0.56,0.25" style="fill:rgb(0,0,0);font-family:URWPalladioL-Roma;font-size:9.96px;stroke:none;">more time than chance with the novel object. The results showed that, at a dose level of 2000 mg/kg,</text>
   <text y="259.961" x="76.535,82.351,87.137,90.045,93.302,99.118,103.904,107.88799999999999,110.33,119.153,124.609,128.556,131.813,136.81,139.717,142.625,145.883,151.4606,153.927,159.742,165.198,169.18200000000002,171.624,176.62,182.435,188.0126,190.469,194.906,197.814,200.722,206.537,209.445,213.882,218.878,221.76639999999998,224.274,228.511,231.419,236.974,242.79,246.9732,249.505,254.961,258.24780000000004,260.766,264.024,269.48,274.636,277.544,281.981,284.888,288.146,293.72360000000003,296.19,304.524,309.31,313.077,317.8578,320.342,325.798,331.323,335.56,340.347,344.294,349.939,354.726,360.831,363.321,366.417,372.542,378.358,383.1388,385.623,395.075,400.531,405.528,410.524,415.52,420.5,423.004,431.338,436.334,440.5172,443.049,448.046,452.283,456.519,461.975,466.412,469.32,474.316,477.573,482.36,488.4356,490.943,499.277,502.185,505.443,511.21979999999996,513.746" svgx:width="0.58,0.48,0.29,0.33,0.58,0.48,0.4,0.55,0.88,0.55,0.4,0.33,0.5,0.29,0.29,0.33,0.56,0.55,0.58,0.55,0.4,0.55,0.5,0.58,0.56,0.55,0.44,0.29,0.29,0.58,0.29,0.44,0.5,0.29,0.55,0.42,0.29,0.56,0.58,0.42,0.55,0.55,0.33,0.55,0.33,0.55,0.52,0.29,0.44,0.29,0.33,0.56,0.55,0.83,0.48,0.4,0.48,0.55,0.55,0.55,0.42,0.48,0.4,0.56,0.48,0.61,0.25,0.55,0.61,0.58,0.48,0.55,0.95,0.55,0.5,0.5,0.5,0.5,0.55,0.83,0.5,0.42,0.55,0.5,0.42,0.42,0.55,0.44,0.29,0.5,0.33,0.48,0.61,0.55,0.83,0.29,0.33,0.58,0.55,0.5" style="fill:rgb(0,0,0);font-family:URWPalladioL-Roma;font-size:9.96px;stroke:none;">neither mortality nor any clinical signs of toxicity were observed. The Moa750 was associated with a</text>
   <text y="273.471" x="76.535,80.746,83.637,89.159,94.94,97.831,103.84,108.25,113.217,118.997,122.2838,124.709,129.675,132.565,135.803,140.561,144.485,149.451,152.689,155.58,161.003,166.7798,169.267,172.157,177.93380000000002,180.411,184.623,190.404,195.827,199.75,203.0368,205.472,210.438,216.219,222.2946,224.761,227.651,233.075,238.855,244.43259999999998,246.861,250.099,254.857,258.78,270.024,278.795,283.553,292.323,297.746,301.67,307.24760000000003,309.676,312.914,317.672,321.883,325.121,329.879,335.9546,338.421,341.311,347.08779999999996,349.575,358.346,363.104,371.874,377.298,381.221,386.7986,389.217,392.455,397.421,401.633,407.155,411.3382,413.85,418.26,423.683,432.454,438.424,443.39,447.135,451.892,457.9676,460.434,463.673,469.151,471.579,474.817,480.598,485.3788,487.829,492.239,497.662,503.443,506.681,510.426,515.849" svgx:width="0.42,0.29,0.56,0.58,0.29,0.61,0.44,0.5,0.58,0.33,0.55,0.5,0.29,0.33,0.48,0.4,0.5,0.33,0.29,0.55,0.58,0.55,0.29,0.58,0.55,0.42,0.58,0.55,0.4,0.33,0.55,0.5,0.58,0.61,0.55,0.29,0.55,0.58,0.56,0.55,0.33,0.48,0.4,0.88,0.88,0.48,0.88,0.55,0.4,0.56,0.55,0.33,0.48,0.42,0.33,0.48,0.61,0.55,0.29,0.58,0.55,0.88,0.48,0.88,0.55,0.4,0.56,0.55,0.33,0.5,0.42,0.56,0.42,0.55,0.44,0.55,0.88,0.6,0.5,0.4,0.48,0.61,0.55,0.33,0.55,0.55,0.33,0.58,0.48,0.55,0.44,0.55,0.58,0.33,0.4,0.55,0.29" style="fill:rgb(0,0,0);font-family:URWPalladioL-Roma;font-size:9.96px;stroke:none;">signiﬁcant alteration in short and long termmemory tested in memory tasks compared to the control</text>
   <text y="286.98" x="76.535,80.47,85.452,88.699,91.189,93.681,96.58,102.35679999999999,104.869,109.292,114.732,120.53,123.778,127.713,132.694,136.918,140.2048,142.657,145.905,151.703,156.4838,158.966,163.947,170.034,178.831,181.73,187.528,190.427,194.652,197.899,201.835,206.816,210.064,212.963,218.402,224.1788,226.691,232.131,235.4178,237.939,245.69,249.446,254.985,259.966,265.7428,268.255,273.695,276.594,279.4824,281.984,284.883,290.681,293.929,299.407,301.859,305.794,310.776,314.023,318.2062,320.738,323.637,332.434,338.422,342.178,347.617,353.246,358.018,364.0936,366.596,369.844,375.642,380.414,383.313,387.29699999999997,389.739,398.536,403.308,412.105,417.545,421.48,427.05760000000004,429.51,432.409,441.206,447.194,452.175,455.074,459.009,467.806,472.578,478.376,481.624" svgx:width="0.4,0.5,0.33,0.25,0.55,0.29,0.58,0.55,0.44,0.55,0.58,0.33,0.4,0.5,0.42,0.33,0.55,0.33,0.58,0.48,0.55,0.5,0.61,0.88,0.29,0.58,0.29,0.42,0.33,0.4,0.5,0.33,0.29,0.55,0.58,0.55,0.55,0.33,0.55,0.78,0.4,0.56,0.5,0.58,0.55,0.55,0.29,0.29,0.55,0.29,0.58,0.33,0.55,0.55,0.4,0.5,0.33,0.42,0.55,0.29,0.88,0.6,0.4,0.55,0.56,0.48,0.61,0.55,0.33,0.58,0.48,0.29,0.4,0.55,0.88,0.48,0.88,0.55,0.4,0.56,0.55,0.29,0.88,0.6,0.5,0.29,0.4,0.88,0.48,0.58,0.33,0.25" style="fill:rgb(0,0,0);font-family:URWPalladioL-Roma;font-size:9.96px;stroke:none;">rat, in contrast the administration of Argan oil into rats improved their memory impairment.</text>
   <text y="312.445" x="76.535,84.286,89.267,94.806,103.105,108.644,112.52,118.607,123.03" svgx:width="0.78,0.5,0.56,0.83,0.56,0.39,0.61,0.44,0.25" style="fill:rgb(0,0,0);font-family:URWPalladioL-Bold;font-size:9.96px;stroke:none;">Keywords:</text>
   <text y="312.445" x="128.61,136.361,140.117,145.656,150.637,156.4138,158.926,164.366,167.265,170.164,172.654,175.145,183.942,188.714,197.511,202.951,206.886,212.46359999999999,214.916,217.815,226.612,232.6,237.581,240.48,244.415,253.212,257.984,263.783,267.03,269.52,272.012,277.451,282.961,285.292,290.064,294.487,297.77380000000005,300.226,303.982,308.754,313.177,318.617,324.156,329.954,332.853,336.101,339.0,344.44,350.2168,352.729,355.976,360.958,365.182,370.721,373.211,375.702,385.127,390.567,395.548,401.057,403.9454,406.447,411.887,414.786,417.685,420.175,422.666,430.975,433.874,438.098,441.346,446.327,450.311,452.753,456.688,461.67" svgx:width="0.78,0.4,0.56,0.5,0.58,0.55,0.55,0.29,0.29,0.25,0.55,0.88,0.48,0.88,0.55,0.4,0.56,0.55,0.29,0.88,0.6,0.5,0.29,0.4,0.88,0.48,0.58,0.33,0.25,0.55,0.55,0.55,0.23,0.48,0.44,0.33,0.55,0.4,0.48,0.44,0.55,0.56,0.58,0.29,0.33,0.29,0.55,0.58,0.55,0.33,0.5,0.42,0.56,0.25,0.55,0.95,0.55,0.5,0.55,0.29,0.55,0.55,0.29,0.29,0.25,0.55,0.83,0.29,0.42,0.33,0.5,0.4,0.55,0.4,0.5,0.33" style="fill:rgb(0,0,0);font-family:URWPalladioL-Roma;font-size:9.96px;stroke:none;">Argan oil; memory impairment; object recognition task; Moabi oil; wistar rat</text>
  </g>
  <path style="fill:none;stroke:rgb(0,0,0);stroke-width:1.0;" d="M76.540 328.150 L518.740 328.150 "/>
  <g begin="text">
   <text y="360.136" x="76.535,83.18,88.161,92.037,99.788,102.557,106.612,111.035,113.82379999999999,116.296,122.941,127.922,132.345,136.221,140.644,144.699,148.017,151.892,155.768,158.537,162.961,167.384,170.702,173.471,177.895,183.4726,185.924,190.348,195.887,200.867,203.359,206.676,212.25359999999998,214.706,221.162,223.932,227.249,230.945,235.32739999999998,237.859,245.052,250.592,253.909,256.679,264.43,268.484,272.181,276.604,281.217,283.986,288.41,291.1988,293.67,300.863,304.918,308.235,311.005,315.986,318.756,322.073,327.053,329.545,333.969,336.7578,339.229,345.874,350.297,354.173,359.712,367.4808,369.954,376.599,381.022,384.897,389.879,392.6678,395.139,401.226,405.102,408.977,412.853,418.392,421.709,424.479,428.902,431.69079999999997,434.163,441.913,444.683" svgx:width="0.67,0.5,0.39,0.78,0.28,0.41,0.44,0.28,0.55,0.67,0.5,0.44,0.39,0.44,0.41,0.33,0.39,0.39,0.28,0.44,0.44,0.33,0.28,0.44,0.56,0.55,0.44,0.56,0.5,0.55,0.33,0.56,0.55,0.72,0.28,0.33,0.39,0.44,0.55,0.72,0.56,0.33,0.28,0.78,0.41,0.39,0.44,0.46,0.28,0.44,0.28,0.55,0.72,0.41,0.33,0.28,0.5,0.28,0.33,0.5,0.55,0.44,0.28,0.55,0.67,0.44,0.39,0.56,0.78,0.55,0.67,0.44,0.39,0.5,0.28,0.55,0.61,0.39,0.39,0.39,0.56,0.33,0.28,0.44,0.28,0.55,0.78,0.28,0.28" style="fill:rgb(0,0,0);font-family:URWPalladioL-Ital;font-size:9.96px;stroke:none;">Chemical Characterization and In Vitro Antimcrobial Activity of Carum Carvi Essential Oil</text>
   <text y="379.623" x="76.207,82.07,87.151,91.46,100.433,103.39,109.304,114.0848,116.763,124.516,130.431,135.979,142.107,147.188,150.5" svgx:width="0.67,0.5,0.42,0.88,0.29,0.58,0.48,0.55,0.76,0.58,0.55,0.6,0.5,0.33,0.29" style="fill:rgb(0,0,0);font-family:URWPalladioL-Roma;font-size:9.96px;stroke:none;">Yasmine Ghouati</text>
   <text y="376.006" x="156.046" svgx:width="0.5" style="fill:rgb(0,0,0);font-family:URWPalladioL-Roma;font-size:7.57px;stroke:none;">1</text>
   <text y="379.623" x="160.33,162.82000000000002,165.492,170.797,176.345,182.473,186.487,189.444,195.094,200.07399999999998,202.766,208.975,213.842,216.799,221.88,224.837,229.349,235.263" svgx:width="0.25,0.55,0.61,0.55,0.6,0.4,0.29,0.56,0.5,0.55,0.61,0.48,0.29,0.5,0.29,0.44,0.58,0.48" style="fill:rgb(0,0,0);font-family:URWPalladioL-Roma;font-size:9.96px;stroke:none;">, Touriya Belaiche</text>
   <text y="376.006" x="242.726" svgx:width="0.5" style="fill:rgb(0,0,0);font-family:URWPalladioL-Roma;font-size:7.57px;stroke:none;">1</text>
   <text y="379.623" x="247.01,249.5,252.172,260.078,263.035,265.9234,268.584,276.49,285.462,290.33,294.842,300.756,304.587,310.135,316.263" svgx:width="0.25,0.55,0.78,0.29,0.29,0.55,0.78,0.88,0.48,0.44,0.58,0.4,0.55,0.6,0.56" style="fill:rgb(0,0,0);font-family:URWPalladioL-Roma;font-size:9.96px;stroke:none;">, Ali Amechrouq</text>
   <text y="376.006" x="324.544" svgx:width="0.5" style="fill:rgb(0,0,0);font-family:URWPalladioL-Roma;font-size:7.57px;stroke:none;">2</text>
   <text y="379.623" x="328.828,331.318,333.99,339.325,344.406,349.487,355.696,358.653,363.63300000000004,366.325,372.534,377.402,380.359,389.332,394.413,397.37,403.284" svgx:width="0.25,0.55,0.52,0.5,0.5,0.61,0.29,0.5,0.55,0.61,0.48,0.29,0.88,0.5,0.29,0.58,0.5" style="fill:rgb(0,0,0);font-family:URWPalladioL-Roma;font-size:9.96px;stroke:none;">, Saadia Belmalha</text>
   <text y="376.006" x="410.952" svgx:width="0.5" style="fill:rgb(0,0,0);font-family:URWPalladioL-Roma;font-size:7.57px;stroke:none;">3</text>
   <text y="379.623" x="415.236,417.726,420.398,430.011,435.56,441.474,446.555,455.528,464.501,469.368,475.4436,478.168,484.377,489.926,496.053,501.703,504.66,507.617" svgx:width="0.25,0.55,0.95,0.55,0.58,0.5,0.88,0.88,0.48,0.61,0.55,0.61,0.55,0.6,0.56,0.29,0.29,0.29" style="fill:rgb(0,0,0);font-family:URWPalladioL-Roma;font-size:9.96px;stroke:none;">, Mohammed Boukili</text>
   <text y="376.006" x="513.161" svgx:width="0.5" style="fill:rgb(0,0,0);font-family:URWPalladioL-Roma;font-size:7.57px;stroke:none;">4</text>
   <text y="379.623" x="517.445" svgx:width="0.25" style="fill:rgb(0,0,0);font-family:URWPalladioL-Roma;font-size:9.96px;stroke:none;">,</text>
   <text y="393.132" x="76.535,83.18,88.62,94.627,100.136,103.036,109.123,114.10300000000001,116.595,124.883,129.865,132.764,138.203,144.211" svgx:width="0.67,0.55,0.6,0.55,0.29,0.61,0.5,0.55,0.83,0.5,0.29,0.55,0.6,0.29" style="fill:rgb(0,0,0);font-family:URWPalladioL-Roma;font-size:9.96px;stroke:none;">Zoubida Haloui</text>
   <text y="389.516" x="149.6" svgx:width="0.5" style="fill:rgb(0,0,0);font-family:URWPalladioL-Roma;font-size:7.57px;stroke:none;">4</text>
   <text y="393.132" x="156.375,161.356,167.155,173.2306,175.732,180.963,185.944,188.843,194.9186,197.421,204.484,210.283,215.264,220.803,223.702" svgx:width="0.5,0.58,0.61,0.55,0.52,0.5,0.29,0.61,0.55,0.71,0.58,0.5,0.56,0.29,0.4" style="fill:rgb(0,0,0);font-family:URWPalladioL-Roma;font-size:9.96px;stroke:none;">and Said Chakir</text>
   <text y="389.516" x="230.128" svgx:width="0.5" style="fill:rgb(0,0,0);font-family:URWPalladioL-Roma;font-size:7.57px;stroke:none;">4</text>
   <text y="412.224" x="82.698" svgx:width="0.5" style="fill:rgb(0,0,0);font-family:URWPalladioL-Roma;font-size:6.97px;stroke:none;">1</text>
   <text y="415.478" x="94.468,99.946,103.928,108.823,111.432,115.7376,117.969,125.42,129.903,132.826,135.435,140.331,145.55,150.033,152.642,156.9476,159.179,164.657,167.15,174.126,179.111,182.653,185.262,189.243,194.65,197.259,200.182,205.589,208.969,213.264,215.50650000000002,217.747,224.723,229.941,232.551" svgx:width="0.61,0.44,0.55,0.29,0.48,0.55,0.83,0.5,0.33,0.29,0.55,0.58,0.5,0.29,0.48,0.55,0.61,0.28,0.78,0.56,0.4,0.29,0.44,0.6,0.29,0.33,0.6,0.4,0.48,0.25,0.55,0.78,0.58,0.29,0.33" style="fill:rgb(0,0,0);font-family:URWPalladioL-Roma;font-size:8.97px;stroke:none;">Ecole Nationale d’Agriculture, Unit</text>
   <text y="415.478" x="235.471" svgx:width="0.48" style="fill:rgb(0,0,0);font-family:VnURWPalladioL;font-size:8.97px;stroke:none;">é</text>
   <text y="415.478" x="242.008,247.486,251.7916,254.023,258.694,262.989,266.97,272.189,277.407,282.303,284.912,289.808,294.793,297.402,301.7076,303.939,310.915,313.524,316.133,324.051,328.345,333.564,336.487,340.97,343.579,346.96,351.2656,353.496,357.791,360.7511,362.956,368.434,372.73960000000005,374.971,380.449,383.058,387.954,391.935,397.154,399.763,407.68,410.289,414.5946,416.826,422.304,427.686,429.962,434.669,440.103,444.586,449.071,451.311,459.793,464.088,469.073" svgx:width="0.61,0.48,0.55,0.61,0.48,0.44,0.58,0.58,0.55,0.29,0.55,0.56,0.29,0.48,0.55,0.78,0.29,0.29,0.88,0.48,0.58,0.33,0.5,0.29,0.4,0.48,0.55,0.48,0.33,0.55,0.61,0.48,0.55,0.61,0.29,0.55,0.44,0.58,0.29,0.88,0.29,0.48,0.55,0.61,0.6,0.55,0.52,0.61,0.5,0.5,0.55,0.95,0.48,0.56,0.58" style="fill:rgb(0,0,0);font-family:URWPalladioL-Roma;font-size:8.97px;stroke:none;">de Technologie Alimentaire et de Biochimie BP S/40 Mekn</text>
   <text y="415.478" x="474.288" svgx:width="0.48" style="fill:rgb(0,0,0);font-family:VnURWPalladioL;font-size:8.97px;stroke:none;">è</text>
   <text y="415.478" x="478.583,482.385,484.6275,486.868,495.35,499.833,503.214,508.109" svgx:width="0.42,0.25,0.55,0.95,0.5,0.4,0.55,0.44" style="fill:rgb(0,0,0);font-family:URWPalladioL-Roma;font-size:8.97px;stroke:none;">s, Maroc</text>
   <text y="425.603" x="83.047" svgx:width="0.5" style="fill:rgb(0,0,0);font-family:URWPalladioL-Roma;font-size:6.97px;stroke:none;">2</text>
   <text y="428.858" x="94.468,99.453,103.937,107.918,113.324,115.934" svgx:width="0.56,0.5,0.44,0.6,0.29,0.33" style="fill:rgb(0,0,0);font-family:URWPalladioL-Roma;font-size:8.97px;stroke:none;">Facult</text>
   <text y="428.858" x="118.856" svgx:width="0.48" style="fill:rgb(0,0,0);font-family:VnURWPalladioL;font-size:8.97px;stroke:none;">é</text>
   <text y="428.858" x="125.393,130.872,135.166,138.9334,141.21,145.917,149.898,152.507,156.802,162.021,166.002,170.297,174.0644,176.34,181.819,186.1246,188.355,196.837,201.132,206.118" svgx:width="0.61,0.48,0.42,0.55,0.52,0.44,0.29,0.48,0.58,0.44,0.48,0.42,0.55,0.61,0.48,0.55,0.95,0.48,0.56,0.58" style="fill:rgb(0,0,0);font-family:URWPalladioL-Roma;font-size:8.97px;stroke:none;">des Sciences de Mekn</text>
   <text y="428.858" x="211.335" svgx:width="0.48" style="fill:rgb(0,0,0);font-family:VnURWPalladioL;font-size:8.97px;stroke:none;">è</text>
   <text y="428.858" x="215.629,219.431,221.67350000000002,223.914" svgx:width="0.42,0.25,0.55,0.77" style="fill:rgb(0,0,0);font-family:URWPalladioL-Roma;font-size:8.97px;stroke:none;">s, D</text>
   <text y="428.858" x="230.854" svgx:width="0.48" style="fill:rgb(0,0,0);font-family:VnURWPalladioL;font-size:8.97px;stroke:none;">é</text>
   <text y="428.858" x="235.149,240.538,245.021,248.563,251.486,255.781,263.698,267.993,273.211,276.1711,278.376,283.855,288.16060000000004,290.391,296.748,301.967,304.576,312.493,315.102,319.397,321.6395,323.881,329.359,334.775,337.0175,339.258,343.741,348.224,352.708,357.191,361.674,363.9165,366.157,372.138,374.747,377.67,382.566,387.972,393.191,397.486,399.7285,401.969,410.451,414.746,419.731" svgx:width="0.6,0.5,0.4,0.33,0.48,0.88,0.48,0.58,0.33,0.55,0.61,0.48,0.55,0.71,0.58,0.29,0.88,0.29,0.48,0.25,0.55,0.61,0.6,0.25,0.55,0.5,0.5,0.5,0.5,0.5,0.25,0.55,0.67,0.29,0.33,0.55,0.6,0.58,0.48,0.25,0.55,0.95,0.48,0.56,0.58" style="fill:rgb(0,0,0);font-family:URWPalladioL-Roma;font-size:8.97px;stroke:none;">partement de Chimie, BP: 11021, Zitoune, Mekn</text>
   <text y="428.858" x="424.948" svgx:width="0.48" style="fill:rgb(0,0,0);font-family:VnURWPalladioL;font-size:8.97px;stroke:none;">è</text>
   <text y="428.858" x="429.242,433.044,435.2865,437.527,446.009,450.492,453.873,458.768" svgx:width="0.42,0.25,0.55,0.95,0.5,0.4,0.55,0.44" style="fill:rgb(0,0,0);font-family:URWPalladioL-Roma;font-size:8.97px;stroke:none;">s, Maroc</text>
   <text y="438.983" x="83.047" svgx:width="0.5" style="fill:rgb(0,0,0);font-family:URWPalladioL-Roma;font-size:6.97px;stroke:none;">3</text>
   <text y="442.238" x="94.468,99.837,103.738,108.536,111.093,115.3986,117.227,124.52,128.913,131.778,134.335,139.133,144.247,148.64,151.197,155.5026,157.331,162.7,165.142,171.979,176.864,180.335,182.892,186.794,192.092,194.649,197.514,202.813,206.117,210.326,212.5685,214.508" svgx:width="0.61,0.44,0.55,0.29,0.48,0.55,0.83,0.5,0.33,0.29,0.55,0.58,0.5,0.29,0.48,0.55,0.61,0.28,0.78,0.56,0.4,0.29,0.44,0.6,0.29,0.33,0.6,0.4,0.48,0.25,0.55,0.77" style="fill:rgb(0,0,0);font-family:URWPalladioL-Roma;font-size:8.97px;stroke:none;">Ecole Nationale d’Agriculture, D</text>
   <text y="442.238" x="221.312" svgx:width="0.48" style="fill:rgb(0,0,0);font-family:VnURWPalladioL;font-size:8.97px;stroke:none;">é</text>
   <text y="442.238" x="225.521,230.802,235.196,238.666,241.531,245.74,253.499,257.708,262.822,265.7821,267.602,272.971,277.27660000000003,279.105,284.412,287.725,292.522,295.387,299.596,303.498,306.362,308.919,313.717,318.9196,320.747,326.115,330.324,334.0914,335.975,341.282,343.839,348.233,353.347,356.202,360.411,364.1784,366.061,370.271,373.2311,375.059,380.42,384.72560000000004,386.553,389.11,391.553,396.922,402.036,407.0,409.558,412.87,417.668,422.782,427.896,432.105,439.864,444.073,449.187,452.1471,453.967,459.336,464.718,466.568,471.181,476.506,480.9,485.385,487.209,495.521,499.73,504.616" svgx:width="0.6,0.5,0.4,0.33,0.48,0.88,0.48,0.58,0.33,0.55,0.61,0.48,0.55,0.6,0.4,0.55,0.33,0.48,0.44,0.33,0.29,0.55,0.58,0.55,0.61,0.48,0.42,0.55,0.6,0.29,0.5,0.58,0.33,0.48,0.42,0.55,0.48,0.33,0.55,0.61,0.48,0.55,0.29,0.28,0.61,0.58,0.56,0.29,0.4,0.55,0.58,0.58,0.48,0.88,0.48,0.58,0.33,0.55,0.61,0.6,0.55,0.52,0.61,0.5,0.5,0.55,0.95,0.48,0.56,0.58" style="fill:rgb(0,0,0);font-family:URWPalladioL-Roma;font-size:8.97px;stroke:none;">partement de Protection des Plantes et de l’Environnement BP S/40 Mekn</text>
   <text y="442.238" x="509.73" svgx:width="0.48" style="fill:rgb(0,0,0);font-family:VnURWPalladioL;font-size:8.97px;stroke:none;">è</text>
   <text y="442.238" x="513.939,517.665" svgx:width="0.42,0.25" style="fill:rgb(0,0,0);font-family:URWPalladioL-Roma;font-size:8.97px;stroke:none;">s,</text>
   <text y="454.622" x="94.468,102.95,107.433,110.814,115.709" svgx:width="0.95,0.5,0.4,0.55,0.44" style="fill:rgb(0,0,0);font-family:URWPalladioL-Roma;font-size:8.97px;stroke:none;">Maroc</text>
   <text y="464.747" x="83.047" svgx:width="0.5" style="fill:rgb(0,0,0);font-family:URWPalladioL-Roma;font-size:6.97px;stroke:none;">4</text>
   <text y="468.002" x="94.468,99.453,103.937,107.918,113.324,115.934" svgx:width="0.56,0.5,0.44,0.6,0.29,0.33" style="fill:rgb(0,0,0);font-family:URWPalladioL-Roma;font-size:8.97px;stroke:none;">Facult</text>
   <text y="468.002" x="118.856" svgx:width="0.48" style="fill:rgb(0,0,0);font-family:VnURWPalladioL;font-size:8.97px;stroke:none;">é</text>
   <text y="468.002" x="125.393,130.871,135.166,138.9334,141.21,145.917,149.898,152.507,156.802,162.021,166.002,170.297,174.0644,176.34,181.819,186.1246,188.355,196.837,201.132,206.118" svgx:width="0.61,0.48,0.42,0.55,0.52,0.44,0.29,0.48,0.58,0.44,0.48,0.42,0.55,0.61,0.48,0.55,0.95,0.48,0.56,0.58" style="fill:rgb(0,0,0);font-family:URWPalladioL-Roma;font-size:8.97px;stroke:none;">des Sciences de Mekn</text>
   <text y="468.002" x="211.335" svgx:width="0.48" style="fill:rgb(0,0,0);font-family:VnURWPalladioL;font-size:8.97px;stroke:none;">è</text>
   <text y="468.002" x="215.629,219.431,221.67350000000002,223.914" svgx:width="0.42,0.25,0.55,0.77" style="fill:rgb(0,0,0);font-family:URWPalladioL-Roma;font-size:8.97px;stroke:none;">s, D</text>
   <text y="468.002" x="230.854" svgx:width="0.48" style="fill:rgb(0,0,0);font-family:VnURWPalladioL;font-size:8.97px;stroke:none;">é</text>
   <text y="468.002" x="235.149,240.538,245.021,248.563,251.486,255.781,263.698,267.993,273.211,276.1711,278.376,283.855,288.16060000000004,290.391,295.87,298.479,303.374,305.984,310.879,315.865,318.474,322.769,325.0115,327.252,332.73,338.146,340.3885,342.629,347.113,351.596,356.079,360.562,365.045,367.2875,369.529,375.509,378.118,381.041,385.937,391.344,396.562,400.857,403.09950000000003,405.34,413.823,418.118,423.103" svgx:width="0.6,0.5,0.4,0.33,0.48,0.88,0.48,0.58,0.33,0.55,0.61,0.48,0.55,0.61,0.29,0.55,0.29,0.55,0.56,0.29,0.48,0.25,0.55,0.61,0.6,0.25,0.55,0.5,0.5,0.5,0.5,0.5,0.25,0.55,0.67,0.29,0.33,0.55,0.6,0.58,0.48,0.25,0.55,0.95,0.48,0.56,0.58" style="fill:rgb(0,0,0);font-family:URWPalladioL-Roma;font-size:8.97px;stroke:none;">partement de Biologie, BP: 11021, Zitoune, Mekn</text>
   <text y="468.002" x="428.319" svgx:width="0.48" style="fill:rgb(0,0,0);font-family:VnURWPalladioL;font-size:8.97px;stroke:none;">è</text>
   <text y="468.002" x="432.614,436.416,438.6585,440.899,449.381,453.864,457.245,462.14" svgx:width="0.42,0.25,0.55,0.95,0.5,0.4,0.55,0.44" style="fill:rgb(0,0,0);font-family:URWPalladioL-Roma;font-size:8.97px;stroke:none;">s, Maroc</text>
   <text y="491.474" x="97.795,104.583,109.451,113.963,118.83,124.744,128.057,131.014,135.556,138.04600000000002,142.009,150.982,156.063,161.977,167.5546,171.255,176.336,182.25,185.563,188.52,194.14,197.097,202.645,205.958,208.915,213.427,217.6102,221.363,227.277,232.358,238.1,242.8808,246.595,252.214,257.082,261.95,267.72679999999997,271.491,274.449,280.363,285.23,288.441,291.815,296.683,301.195,304.507,307.464,313.206,317.9868,321.701,327.91,334.038,338.8188,342.533,345.846,351.324,355.032,358.345,364.259,369.0398,372.754,376.768,381.849,387.956,390.914,396.9896,400.75,406.959,411.827,417.568,422.436,425.393,430.941,437.048,446.021,450.889,456.803,460.0898,463.743,469.292,472.5788,476.304,485.276,488.234,492.745,496.576,502.125,507.744,510.701,515.782" svgx:width="0.67,0.48,0.44,0.48,0.58,0.33,0.29,0.56,0.25,0.55,0.88,0.5,0.58,0.56,0.55,0.5,0.58,0.33,0.29,0.55,0.29,0.55,0.33,0.29,0.44,0.42,0.55,0.58,0.5,0.56,0.48,0.55,0.55,0.48,0.48,0.58,0.55,0.29,0.58,0.48,0.33,0.33,0.48,0.44,0.33,0.29,0.56,0.48,0.55,0.61,0.6,0.48,0.55,0.33,0.55,0.55,0.33,0.58,0.48,0.55,0.4,0.5,0.6,0.29,0.61,0.55,0.61,0.48,0.56,0.48,0.29,0.55,0.6,0.88,0.48,0.58,0.33,0.55,0.55,0.33,0.55,0.88,0.29,0.44,0.4,0.55,0.55,0.29,0.5,0.29" style="fill:rgb(0,0,0);font-family:URWPalladioL-Roma;font-size:9.96px;stroke:none;">Recently, many antibiotics have been ineffective due to the rapid development of microbial</text>
   <text y="504.983" x="76.535,80.216,84.892,89.032,91.873,96.013,99.196,104.077,109.76,114.095,118.8758,121.232,129.374,132.215,136.55,142.32680000000002,144.693,147.534,152.211,158.28660000000002,160.636,163.819,169.297,171.61,174.793,180.476,185.2568,187.613,192.289,200.91,204.591,210.019,214.696,220.378,224.713,230.29059999999998,232.602,237.933,241.2198,243.644,249.327,254.003,264.606,267.447,273.13,276.381,281.058,285.393,288.575,291.417,296.747,302.5238,304.89,310.855,313.696,317.836,322.513,327.394,331.534,336.211,340.35,342.84000000000003,345.876,351.861,357.544,362.22,365.891,370.568,373.819,379.15,382.831,387.507,389.997,392.418,395.601,401.079,403.392,408.723,414.239,418.916,422.587,426.922,432.253,440.874,445.6548,448.02,451.194,456.876,459.717,463.9002,466.327,472.194,475.866,481.196,486.595,489.437,494.113,505.195,508.377,514.06" svgx:width="0.4,0.48,0.42,0.29,0.42,0.33,0.5,0.58,0.44,0.48,0.55,0.83,0.29,0.44,0.58,0.55,0.29,0.48,0.61,0.55,0.33,0.55,0.55,0.33,0.58,0.48,0.55,0.48,0.88,0.4,0.56,0.48,0.58,0.44,0.56,0.55,0.55,0.33,0.55,0.58,0.48,0.83,0.29,0.58,0.33,0.48,0.44,0.33,0.29,0.55,0.58,0.55,0.61,0.29,0.42,0.48,0.5,0.42,0.48,0.42,0.25,0.55,0.61,0.58,0.48,0.4,0.48,0.33,0.55,0.4,0.48,0.25,0.55,0.33,0.55,0.55,0.55,0.56,0.48,0.4,0.44,0.55,0.88,0.48,0.55,0.33,0.58,0.29,0.42,0.55,0.6,0.4,0.55,0.55,0.29,0.48,0.88,0.33,0.58,0.48" style="fill:rgb(0,0,0);font-family:URWPalladioL-Roma;font-size:9.96px;stroke:none;">resistance wich led to the emrgency of newinfection diseases. Therefore, to overcome this problemthe</text>
   <text y="518.492" x="76.535,82.542,86.767,91.5478,94.029,99.469,102.7558,105.277,110.049,114.273,118.497,123.27,129.068,132.316,135.215,140.196,143.0844,145.586,151.025,153.924,156.8124,159.314,162.213,166.3962,168.928,174.368,180.166,184.9468,187.429,192.868,196.1548,198.676,201.924,207.722,212.5028,214.985,220.973,224.729,230.168,238.965,241.864,246.088,248.988,254.786,260.3636,262.816,267.04,270.288,274.223,279.204,282.452,287.224,292.763,295.662,300.434,304.659" svgx:width="0.6,0.42,0.48,0.55,0.55,0.33,0.55,0.48,0.42,0.42,0.48,0.58,0.33,0.29,0.5,0.29,0.55,0.55,0.29,0.29,0.55,0.29,0.42,0.55,0.55,0.58,0.48,0.55,0.55,0.33,0.55,0.33,0.58,0.48,0.55,0.6,0.4,0.55,0.88,0.29,0.42,0.29,0.58,0.56,0.55,0.42,0.33,0.4,0.5,0.33,0.48,0.56,0.29,0.48,0.42,0.25" style="fill:rgb(0,0,0);font-family:URWPalladioL-Roma;font-size:9.96px;stroke:none;">use of essential oil is one of the promising strategies.</text>
   <text y="532.002" x="97.795,103.926,109.748,114.5288,117.04,123.051,126.822,131.613,135.854,140.645,146.467,149.7538,152.218,156.459,159.72,165.752,171.863,177.4406,179.925,188.267,193.268,197.4512,200.01,206.062,210.012,214.254,217.514,220.425,226.0026,228.477,234.508,240.33,246.441,251.233,255.184,258.444,263.446,269.007,273.798,279.5748,282.12,285.381,290.859,293.333,299.444,304.236,307.496,312.288,316.238,325.071,327.981,333.803,338.5838,341.095,344.355,350.177,354.9578,357.469,361.91,367.731,372.522,381.354,384.265,388.706,393.707,396.5954,399.109,403.55,409.011,417.843,423.855,429.316,433.557,436.468,439.729,442.639,448.101,453.8778,456.423,461.884" svgx:width="0.61,0.58,0.48,0.55,0.6,0.4,0.48,0.42,0.48,0.58,0.33,0.55,0.42,0.33,0.6,0.61,0.56,0.55,0.83,0.5,0.42,0.55,0.61,0.4,0.42,0.33,0.29,0.56,0.55,0.6,0.58,0.61,0.48,0.4,0.33,0.5,0.56,0.48,0.58,0.55,0.33,0.55,0.55,0.61,0.48,0.33,0.48,0.4,0.88,0.29,0.58,0.48,0.55,0.33,0.58,0.48,0.55,0.44,0.58,0.48,0.88,0.29,0.44,0.5,0.29,0.55,0.44,0.55,0.88,0.6,0.55,0.42,0.29,0.33,0.29,0.55,0.58,0.55,0.55,0.33" style="fill:rgb(0,0,0);font-family:URWPalladioL-Roma;font-size:9.96px;stroke:none;">The present study was ﬁrstly undertaken to determine the chemical composition of</text>
   <text y="532.002" x="467.712,474.384,478.825,482.716,488.277,496.0458,498.56,502.631,507.072,510.963,515.964" svgx:width="0.67,0.44,0.39,0.56,0.78,0.55,0.41,0.44,0.39,0.5,0.28" style="fill:rgb(0,0,0);font-family:URWPalladioL-Ital;font-size:9.96px;stroke:none;">Carum carvi</text>
   <text y="545.511" x="76.535,81.403,85.711,90.02,94.887,100.801,104.114,107.071,112.152,115.0404,118.849,124.397,127.354,130.2424,134.041,139.589,145.209,148.522,153.602,156.56,162.474,167.341,173.41660000000002,177.29,182.909,188.48659999999998,192.289,198.203,203.853,210.062,213.903,219.451,225.66,228.617,232.926,236.239,239.196,242.153,245.11,250.191,253.504,256.461,262.009,267.7858,271.653,276.734,282.648,288.72360000000003,292.596,295.909,301.387,305.187,310.054,315.796,320.877,323.834,329.961,335.042,338.355,343.1358,346.962,349.919,353.232,357.4152,361.27,366.351,372.265,375.578,378.535,387.508,390.465,394.977,398.818,404.367,409.986,412.943,418.024,420.9124,424.711,429.578,432.789,436.163,441.03,445.542,448.855,451.345,458.224,464.454,470.368,475.1488,478.965,483.477,489.391,494.258,503.231,506.188,510.7,515.781" svgx:width="0.48,0.42,0.42,0.48,0.58,0.33,0.29,0.5,0.29,0.55,0.55,0.29,0.29,0.55,0.55,0.55,0.33,0.5,0.29,0.58,0.48,0.61,0.55,0.55,0.56,0.55,0.58,0.56,0.61,0.4,0.55,0.61,0.29,0.42,0.33,0.29,0.29,0.29,0.5,0.33,0.29,0.55,0.58,0.55,0.5,0.58,0.61,0.55,0.33,0.55,0.55,0.48,0.56,0.5,0.29,0.6,0.5,0.33,0.48,0.55,0.29,0.33,0.42,0.55,0.5,0.58,0.33,0.29,0.88,0.29,0.44,0.4,0.55,0.55,0.29,0.5,0.29,0.55,0.48,0.33,0.33,0.48,0.44,0.33,0.25,0.55,0.61,0.58,0.48,0.55,0.44,0.58,0.48,0.88,0.29,0.44,0.5,0.29" style="fill:rgb(0,0,0);font-family:URWPalladioL-Roma;font-size:9.96px;stroke:none;">essential oil obtained by hydrodistillation and to evaluate its antimicrobial effect. The chemical</text>
   <text y="559.021" x="76.535,80.87,86.201,94.822,100.69,106.02,110.16,113.001,116.184,119.025,124.356,130.1328,132.391,140.534,145.415,149.5982,151.908,156.79,162.472,167.354,170.195,175.623,180.505,185.182,191.2576,193.5,198.899,204.4766,206.68,211.66,213.925,221.374,228.296,234.213,243.449,248.62820000000002,250.928,255.068,260.496,264.636,267.819,272.495,283.469,288.351,294.033,300.1086,302.352,307.332,309.586,312.769,318.1,321.283,326.164,329.0524,331.358,336.689,339.97580000000005,342.293,346.628,351.959,357.641,361.781,364.964,367.805,370.988,376.875,381.552,387.234,390.417,394.6002,396.91,405.052,409.729,413.41,418.1908,420.439,423.28,429.246,433.922,439.605,442.788,445.629,451.535,456.212,462.2876,464.53,468.211,472.888,478.756,482.427,487.103,491.243,495.92,501.602,504.785,507.626,513.308" svgx:width="0.44,0.55,0.88,0.6,0.55,0.42,0.29,0.33,0.29,0.55,0.58,0.55,0.83,0.5,0.42,0.55,0.5,0.58,0.5,0.29,0.56,0.5,0.48,0.61,0.55,0.55,0.56,0.55,0.5,0.55,0.76,0.71,0.61,0.95,0.52,0.55,0.42,0.56,0.42,0.33,0.48,0.88,0.5,0.58,0.61,0.55,0.5,0.55,0.33,0.55,0.33,0.5,0.29,0.55,0.55,0.33,0.55,0.44,0.55,0.58,0.42,0.33,0.29,0.33,0.6,0.48,0.58,0.33,0.42,0.55,0.83,0.48,0.4,0.48,0.55,0.29,0.61,0.48,0.58,0.33,0.29,0.61,0.48,0.61,0.55,0.4,0.48,0.6,0.4,0.48,0.42,0.48,0.58,0.33,0.29,0.58,0.56" style="fill:rgb(0,0,0);font-family:URWPalladioL-Roma;font-size:9.96px;stroke:none;">composition was analyzed by a GC/MS systemand a total of constituents were identiﬁed representing</text>
   <text y="572.53" x="76.535,81.616,87.235,92.784,98.911,102.1978,105.547,110.628,115.709,118.249,123.33,128.411,136.7774,140.26,145.808,149.0948,152.515,155.828,161.376,164.689,169.77,172.6584,176.04,181.588,184.545,187.502,189.99200000000002,195.622,201.851,207.765,212.54579999999999,215.945,221.026,226.941,230.253,233.21,242.183,245.14,249.652,253.483,259.032,264.651,267.608,272.689,275.5774,278.969,284.05,288.562,291.875,294.832,300.573,303.53,306.843,312.42060000000004,315.816,321.365" svgx:width="0.5,0.55,0.55,0.6,0.33,0.55,0.5,0.5,0.25,0.5,0.5,0.84,0.55,0.55,0.33,0.55,0.33,0.55,0.33,0.5,0.29,0.55,0.55,0.29,0.29,0.25,0.55,0.61,0.58,0.48,0.55,0.5,0.58,0.33,0.29,0.88,0.29,0.44,0.4,0.55,0.55,0.29,0.5,0.29,0.55,0.5,0.44,0.33,0.29,0.56,0.29,0.33,0.56,0.55,0.55,0.33" style="fill:rgb(0,0,0);font-family:URWPalladioL-Roma;font-size:9.96px;stroke:none;">about 86.80% of total oil. The antimicrobial activity of</text>
   <text y="572.53" x="328.063,334.841,339.353,343.306,348.956,356.7248,360.185,364.32,368.832,372.775,377.856" svgx:width="0.67,0.44,0.39,0.56,0.78,0.55,0.41,0.44,0.39,0.5,0.28" style="fill:rgb(0,0,0);font-family:URWPalladioL-Ital;font-size:9.96px;stroke:none;">Carum carvi</text>
   <text y="572.53" x="384.005,388.873,393.181,397.49,402.357,408.271,411.584,414.541,419.622,422.5104,425.902,431.451,434.398,437.2864,440.678,445.759,451.409,456.49,459.447,465.361,469.669,472.9558,476.305,485.278,488.235,492.747,496.578,502.126,507.746,510.703,515.784" svgx:width="0.48,0.42,0.42,0.48,0.58,0.33,0.29,0.5,0.29,0.55,0.55,0.29,0.29,0.55,0.5,0.56,0.5,0.29,0.58,0.42,0.33,0.55,0.88,0.29,0.44,0.4,0.55,0.55,0.29,0.5,0.29" style="fill:rgb(0,0,0);font-family:URWPalladioL-Roma;font-size:9.96px;stroke:none;">essential oil against microbial</text>
   <text y="586.039" x="76.535,80.675,83.858,87.714,92.596,95.437,101.119,105.3022,107.661,115.803,120.685,124.8682,127.226,132.694,138.581,143.463,146.304,149.145,152.328,157.21,160.392,163.234,168.75,173.426,176.268,181.8456,184.098,188.979,194.662,200.73760000000001,203.039,208.506,214.393,219.275,224.957,228.14,230.981,234.164,239.046,242.229,245.07,250.586,255.253,258.094,263.6716,265.934,270.816,274.956,279.095,283.772,287.911,292.051,296.728,302.8036,305.095,310.494,316.07160000000005,318.324,321.507,327.189,331.9698,334.268,340.136,343.816,348.493,352.633,357.309,362.992,367.327,372.1078,374.405,379.736,383.71999999999997,385.994,390.876,396.275,400.415,405.091,410.773,415.108,419.8888,422.187,427.518,430.8048,433.171,436.012,441.694,447.376,450.217,455.617,458.458,461.641,464.482,469.812,475.495,477.985,480.357,485.239,490.921,496.9966,499.288,508.524,511.814" svgx:width="0.42,0.33,0.4,0.5,0.29,0.58,0.42,0.55,0.83,0.5,0.42,0.55,0.56,0.6,0.5,0.29,0.29,0.33,0.5,0.33,0.29,0.56,0.48,0.29,0.56,0.55,0.5,0.58,0.61,0.55,0.56,0.6,0.5,0.58,0.33,0.29,0.33,0.5,0.33,0.29,0.56,0.48,0.29,0.56,0.55,0.5,0.42,0.42,0.48,0.42,0.42,0.48,0.61,0.55,0.55,0.56,0.55,0.33,0.58,0.48,0.55,0.6,0.4,0.48,0.42,0.48,0.58,0.44,0.48,0.55,0.55,0.4,0.55,0.5,0.55,0.42,0.48,0.58,0.44,0.48,0.55,0.55,0.33,0.55,0.29,0.58,0.58,0.29,0.55,0.29,0.33,0.29,0.55,0.58,0.25,0.55,0.5,0.58,0.61,0.55,0.95,0.34,0.71" style="fill:rgb(0,0,0);font-family:URWPalladioL-Roma;font-size:9.96px;stroke:none;">strains was qualitatively and quantitatively assessed by the presence or absence of inhibition, and MIC</text>
   <text y="599.549" x="76.256,81.784,86.675,89.522,95.421,100.108,104.256,106.746,109.783,115.78,121.474,126.2548,128.645,132.794,135.983,141.882,147.86,150.707,155.393,161.4686,163.855,168.542,172.69,176.838,181.524,187.218,190.407,193.254,198.146,201.03439999999998,203.478,208.819,211.666,214.5544,216.998,221.684,226.733,232.426,235.273,240.684,243.53,246.72,251.406,257.4816,259.859,264.75,270.5268,272.929,275.776,281.47,287.164,290.011,295.421,298.268,301.457,304.304,309.646,315.4228,317.825,322.716,328.156,333.047,335.894,341.588,345.736,349.0228,351.411,354.6,360.294,365.0748,367.465,376.104,380.995,383.285,388.626,392.491,395.338,398.527,404.1046,406.442,411.783,415.06980000000004,417.526,420.715,425.402,429.55,432.739,437.425,443.5006,445.888,451.298,456.19,460.533,463.723,468.409,472.273,475.12,480.1,482.497,487.388,493.082,499.1576,501.545,509.704,514.596" svgx:width="0.56,0.5,0.29,0.6,0.48,0.42,0.25,0.55,0.61,0.58,0.48,0.55,0.42,0.33,0.6,0.61,0.29,0.48,0.61,0.55,0.48,0.42,0.42,0.48,0.58,0.33,0.29,0.5,0.29,0.55,0.55,0.29,0.29,0.55,0.48,0.52,0.58,0.29,0.55,0.29,0.33,0.48,0.61,0.55,0.5,0.58,0.55,0.29,0.58,0.58,0.29,0.55,0.29,0.33,0.29,0.55,0.58,0.55,0.5,0.56,0.5,0.29,0.58,0.42,0.33,0.55,0.33,0.58,0.48,0.55,0.88,0.5,0.23,0.55,0.4,0.29,0.33,0.56,0.55,0.55,0.33,0.55,0.33,0.48,0.42,0.33,0.48,0.61,0.55,0.55,0.5,0.44,0.33,0.48,0.4,0.29,0.5,0.55,0.5,0.58,0.61,0.55,0.83,0.5,0.42" style="fill:rgb(0,0,0);font-family:URWPalladioL-Roma;font-size:9.96px;stroke:none;">values. The studied essential oil exhibited an inhibition against the majority of tested bacteria and was</text>
   <text y="613.058" x="76.535,79.823,85.213,91.167,96.913,102.98859999999999,105.453,108.671,114.149,116.56,122.02,126.8008,129.256,137.974,143.365,147.087,151.8678,154.314,159.25,163.634,166.853,169.726,175.304,180.0848,182.541,187.477,192.967,197.903,200.776,206.522,210.708,213.9948,216.425,223.958,227.858,232.794,241.512,244.799,250.733,256.124,260.31,263.183,266.401,269.274,274.853,279.6338,282.09,287.549,292.486,296.869,300.088,304.817,308.717,311.59,316.57,319.024" svgx:width="0.33,0.55,0.6,0.58,0.61,0.55,0.33,0.55,0.55,0.55,0.48,0.55,0.88,0.55,0.4,0.48,0.55,0.5,0.44,0.33,0.29,0.56,0.48,0.55,0.5,0.56,0.5,0.29,0.58,0.42,0.33,0.55,0.76,0.4,0.5,0.88,0.33,0.6,0.55,0.42,0.29,0.33,0.29,0.56,0.48,0.55,0.55,0.5,0.44,0.33,0.48,0.4,0.29,0.5,0.55,0.33" style="fill:rgb(0,0,0);font-family:URWPalladioL-Roma;font-size:9.96px;stroke:none;">found to be more active against Gram-positive bacteria (</text>
   <text y="613.058" x="322.314,328.346,332.73,336.748,339.493,342.238,344.982,350.472,354.3564,356.82,360.838,364.679,368.332,372.172,377.662" svgx:width="0.61,0.44,0.41,0.28,0.28,0.28,0.56,0.39,0.55,0.41,0.39,0.39,0.39,0.56,0.39" style="fill:rgb(0,0,0);font-family:URWPalladioL-Ital;font-size:9.96px;stroke:none;">Bacillus cereus</text>
   <text y="613.058" x="384.01,388.946,394.693" svgx:width="0.5,0.58,0.61" style="fill:rgb(0,0,0);font-family:URWPalladioL-Roma;font-size:9.96px;stroke:none;">and</text>
   <text y="613.058" x="403.228,408.717,412.005,416.389,421.325,426.262,431.198,433.943,438.326,442.345,446.728,450.746,454.765,460.254,464.13840000000005,466.602,470.986,476.475,480.128,483.969,489.458" svgx:width="0.56,0.33,0.44,0.5,0.5,0.5,0.28,0.44,0.41,0.44,0.41,0.41,0.56,0.39,0.55,0.44,0.56,0.39,0.39,0.56,0.39" style="fill:rgb(0,0,0);font-family:URWPalladioL-Ital;font-size:9.96px;stroke:none;">Staphylococcus aureus</text>
   <text y="613.058" x="493.302,496.58880000000005,499.097,502.316,508.062,512.999" svgx:width="0.33,0.55,0.33,0.58,0.5,0.58" style="fill:rgb(0,0,0);font-family:URWPalladioL-Roma;font-size:9.96px;stroke:none;">) than</text>
   <text y="626.568" x="76.535,84.136,88.072,93.053,101.85,105.168,110.966,115.738,121.277,126.258,129.506,132.405,138.034,142.8148,145.297,150.736,156.535,161.307,165.4902,168.022" svgx:width="0.76,0.4,0.5,0.88,0.33,0.58,0.48,0.56,0.5,0.33,0.29,0.56,0.48,0.55,0.55,0.58,0.48,0.42,0.55,0.33" style="fill:rgb(0,0,0);font-family:URWPalladioL-Roma;font-size:9.96px;stroke:none;">Gram-negative ones (</text>
   <text y="626.568" x="171.339,177.426,181.302,185.356,190.338,194.213,198.089,200.858,204.913,209.894,212.664,217.04639999999998,219.578,223.633,228.056,230.826" svgx:width="0.61,0.39,0.41,0.5,0.39,0.39,0.28,0.41,0.5,0.28,0.44,0.55,0.41,0.44,0.28,0.28" style="fill:rgb(0,0,0);font-family:URWPalladioL-Ital;font-size:9.96px;stroke:none;">Escherichia coli</text>
   <text y="626.568" x="236.085,241.066,246.865" svgx:width="0.5,0.58,0.61" style="fill:rgb(0,0,0);font-family:URWPalladioL-Roma;font-size:9.96px;stroke:none;">and</text>
   <text y="626.568" x="255.442,260.981,265.405,268.174,275.925,280.349,285.888,289.763,292.533,295.302,299.68440000000004,302.216,307.387,312.368,317.35,322.331" svgx:width="0.56,0.44,0.28,0.78,0.44,0.56,0.39,0.28,0.28,0.44,0.55,0.61,0.5,0.5,0.5,0.28" style="fill:rgb(0,0,0);font-family:URWPalladioL-Ital;font-size:9.96px;stroke:none;">Salmonella Typhi</text>
   <text y="626.568" x="325.1,328.418" svgx:width="0.33,0.25" style="fill:rgb(0,0,0);font-family:URWPalladioL-Roma;font-size:9.96px;stroke:none;">).</text>
   <text y="640.077" x="97.795,103.798,109.498,114.2788,116.696,120.378,125.069,129.221,135.127,137.977,141.169,145.3522,147.829,153.812,158.503,167.151,172.498,178.197,182.35,185.542,189.411,194.307,197.5,202.2808,204.698,207.891,213.59,218.487" svgx:width="0.61,0.58,0.48,0.55,0.4,0.48,0.42,0.6,0.29,0.33,0.42,0.55,0.61,0.48,0.88,0.55,0.58,0.42,0.33,0.4,0.5,0.33,0.48,0.55,0.33,0.58,0.5,0.33" style="fill:rgb(0,0,0);font-family:URWPalladioL-Roma;font-size:9.96px;stroke:none;">The results demonstrate that</text>
   <text y="640.077" x="224.181,230.713,235.061,238.871,244.316,252.0848,254.442,258.428,262.776,266.586,271.482" svgx:width="0.67,0.44,0.39,0.56,0.78,0.55,0.41,0.44,0.39,0.5,0.28" style="fill:rgb(0,0,0);font-family:URWPalladioL-Ital;font-size:9.96px;stroke:none;">Carum carvi</text>
   <text y="640.077" x="276.706,281.397,285.549,289.702,294.393,300.092,303.285,306.135,311.031,313.9194,316.388,321.735,324.585,327.47339999999997,329.932,335.632,340.529,346.062,350.8428,353.26,358.156,363.9328,366.363,371.26,376.959,380.152,383.002,391.649,394.499,398.847,402.539,407.886,413.302,416.142,421.039,423.9274,426.396,431.087,434.171,437.433,442.123,446.472,449.664,452.154,455.246,461.25,466.949,471.64,475.793,480.5738,482.981,488.906,494.605,500.589,503.439,509.139,514.584" svgx:width="0.48,0.42,0.42,0.48,0.58,0.33,0.29,0.5,0.29,0.55,0.55,0.29,0.29,0.55,0.58,0.5,0.56,0.48,0.55,0.5,0.58,0.55,0.5,0.58,0.33,0.29,0.88,0.29,0.44,0.4,0.55,0.55,0.29,0.5,0.29,0.55,0.48,0.33,0.33,0.48,0.44,0.33,0.25,0.55,0.61,0.58,0.48,0.42,0.48,0.55,0.61,0.58,0.61,0.29,0.58,0.56,0.42" style="fill:rgb(0,0,0);font-family:URWPalladioL-Roma;font-size:9.96px;stroke:none;">essential oil have an antimicrobial effect. These ﬁndings</text>
   <text y="653.586" x="76.535,81.531,85.298,90.0788,92.583,98.229,103.015,106.962,112.53960000000001,115.006,121.012,124.779,130.235,139.058,141.966,146.203,149.11,154.926,160.50359999999998,162.98,167.976,173.792,179.8676,182.395,186.632,192.658,198.214,203.769,208.556,212.793,216.0798,218.538,221.796,227.611,232.608,235.8948,238.363,243.15,247.387,251.623,256.41,262.225,265.483,268.391,273.387,276.2754,278.793,284.249,287.157,290.0454,292.553,295.46,299.697,305.153,308.061,313.057,316.315,321.101,327.1766,329.705,333.032,336.799,342.255" svgx:width="0.5,0.4,0.48,0.55,0.56,0.48,0.4,0.56,0.55,0.6,0.4,0.55,0.88,0.29,0.42,0.29,0.58,0.56,0.55,0.5,0.58,0.61,0.55,0.42,0.6,0.56,0.56,0.48,0.42,0.33,0.55,0.33,0.58,0.5,0.33,0.55,0.48,0.42,0.42,0.48,0.58,0.33,0.29,0.5,0.29,0.55,0.55,0.29,0.29,0.55,0.29,0.42,0.55,0.29,0.5,0.33,0.48,0.61,0.55,0.33,0.4,0.55,0.88" style="fill:rgb(0,0,0);font-family:URWPalladioL-Roma;font-size:9.96px;stroke:none;">are very promising and suggest that essential oil isolated from</text>
   <text y="653.586" x="353.574,360.239,364.676,368.563,374.119,381.8878,384.391,388.458,392.894,396.782,401.778" svgx:width="0.67,0.44,0.39,0.56,0.78,0.55,0.41,0.44,0.39,0.5,0.28" style="fill:rgb(0,0,0);font-family:URWPalladioL-Ital;font-size:9.96px;stroke:none;">Carum carvi</text>
   <text y="653.586" x="407.046,411.483,416.479,422.25579999999997,424.793,430.319,435.0998,437.593,442.03,447.486,453.301,457.538,460.446,466.551,471.338,475.105,479.891,485.9666,488.495,493.491,497.6742,500.226,506.042,510.828" svgx:width="0.44,0.5,0.58,0.55,0.55,0.48,0.55,0.44,0.55,0.58,0.42,0.29,0.61,0.48,0.4,0.48,0.61,0.55,0.5,0.42,0.55,0.58,0.48,0.83" style="fill:rgb(0,0,0);font-family:URWPalladioL-Roma;font-size:9.96px;stroke:none;">can be considered as new</text>
   <text y="667.096" x="76.535,81.516,87.315,93.39059999999999,95.892,101.88,107.319,110.567,115.339,121.138,124.385,127.285,132.266,135.15439999999998,137.656,141.88,147.319,153.327,157.083,161.506,166.2868,168.769,174.208,177.4948,180.017,185.815,190.796,194.044,200.051,203.987,208.968,211.85639999999998,214.358,219.339,225.137,228.385,231.284,240.081,242.98,247.404,251.159,256.599,262.108,265.007,269.989,272.87739999999997,275.379,280.36,285.899,290.671,296.469,299.717,303.941" svgx:width="0.5,0.58,0.61,0.55,0.6,0.55,0.33,0.48,0.58,0.33,0.29,0.5,0.29,0.55,0.42,0.55,0.6,0.4,0.44,0.48,0.55,0.55,0.33,0.55,0.58,0.5,0.33,0.6,0.4,0.5,0.29,0.55,0.5,0.58,0.33,0.29,0.88,0.29,0.44,0.4,0.55,0.55,0.29,0.5,0.29,0.55,0.5,0.56,0.48,0.58,0.33,0.42,0.25" style="fill:rgb(0,0,0);font-family:URWPalladioL-Roma;font-size:9.96px;stroke:none;">and potential source of natural antimicrobial agents.</text>
   <text y="692.56" x="76.535,84.286,89.267,94.806,103.105,108.644,112.52,118.607,123.03" svgx:width="0.78,0.5,0.56,0.83,0.56,0.39,0.61,0.44,0.25" style="fill:rgb(0,0,0);font-family:URWPalladioL-Bold;font-size:9.96px;stroke:none;">Keywords:</text>
   <text y="692.56" x="129.058,133.57,139.484,144.352,153.324,156.282,160.793,165.874,168.76239999999999,171.545,176.057,181.605,190.578,196.685,202.233,206.542,209.499,212.812,215.769,221.317,227.232,229.722,232.597,237.465,241.773,246.082,250.949,256.864,260.176,263.133,268.214,271.1024,273.885,279.433,282.39,285.347,287.837,290.723,297.928,303.009,306.941,313.069,321.8338,324.755,329.267,334.348,338.362,344.103,347.06,349.55,352.426,357.507,363.421,366.734,369.691,378.664,381.621,386.132,389.964,395.512,401.131,404.088,409.169,412.0574,414.84,419.921,424.433,427.745,430.702,436.444,439.401,442.714,448.364,450.854,453.739,461.493,465.507,470.588,479.561,482.944,489.052,494.6,498.909,501.866,505.179,508.136,513.877" svgx:width="0.44,0.58,0.48,0.88,0.29,0.44,0.5,0.29,0.55,0.44,0.55,0.88,0.6,0.55,0.42,0.29,0.33,0.29,0.55,0.58,0.25,0.55,0.48,0.42,0.42,0.48,0.58,0.33,0.29,0.5,0.29,0.55,0.55,0.29,0.29,0.25,0.55,0.71,0.5,0.4,0.6,0.88,0.55,0.44,0.5,0.4,0.56,0.29,0.25,0.55,0.5,0.58,0.33,0.29,0.88,0.29,0.44,0.4,0.55,0.55,0.29,0.5,0.29,0.55,0.5,0.44,0.33,0.29,0.56,0.29,0.33,0.56,0.25,0.55,0.76,0.4,0.5,0.88,0.33,0.6,0.55,0.42,0.29,0.33,0.29,0.56,0.48" style="fill:rgb(0,0,0);font-family:URWPalladioL-Roma;font-size:9.96px;stroke:none;">chemical composition; essential oil; Carum carvi; antimicrobial activity; Gram-positive</text>
   <text y="706.07" x="76.535,82.044,87.026,91.449,94.697,99.469,103.404,106.303,111.285,113.77499999999999,116.266,123.867,127.803,132.784,141.581,144.898,150.697,155.469,161.008,165.989,169.237,172.136,177.765,182.54579999999999,185.028,190.537,195.518,199.942,203.189,207.962,211.897,214.796" svgx:width="0.55,0.5,0.44,0.33,0.48,0.4,0.29,0.5,0.25,0.55,0.76,0.4,0.5,0.88,0.33,0.58,0.48,0.56,0.5,0.33,0.29,0.56,0.48,0.55,0.55,0.5,0.44,0.33,0.48,0.4,0.29,0.5" style="fill:rgb(0,0,0);font-family:URWPalladioL-Roma;font-size:9.96px;stroke:none;">bacteria; Gram-negative bacteria</text>
  </g>
  <path style="fill:none;stroke:rgb(0,0,0);stroke-width:0.4;" d="M76.540 721.770 L518.740 721.770 "/>
 </g>
</svg>
