<?xml version="1.0" encoding="UTF-8"?>
<svg height="748.965" width="532.924" xmlns="http://www.w3.org/2000/svg">
 <g id="page" xmlns:svgx="http://www.xml-cml.org/schema/svgx">
  <g begin="text">
   <text y="62.979" x="76.535,79.189,83.62,86.721,89.821,93.065,95.719" svgx:width="0.33,0.56,0.39,0.39,0.41,0.33,0.39" style="fill:rgb(0,0,0);font-family:URWPalladioL-Ital;font-size:7.97px;stroke:none;">Insects</text>
   <text y="62.979" x="102.804,106.789,110.774,114.759" svgx:width="0.5,0.5,0.5,0.5" style="fill:rgb(0,0,0);font-family:URWPalladioL-Bold;font-size:7.97px;stroke:none;">2018</text>
   <text y="62.979" x="118.745" svgx:width="0.25" style="fill:rgb(0,0,0);font-family:URWPalladioL-Roma;font-size:7.97px;stroke:none;">,</text>
   <text y="62.979" x="122.73" svgx:width="0.5" style="fill:rgb(0,0,0);font-family:URWPalladioL-Ital;font-size:7.97px;stroke:none;">9</text>
   <text y="62.979" x="126.715,128.7075,130.7,134.685,138.67000000000002,495.794,499.779,501.772,506.123,508.7531,510.77,514.755" svgx:width="0.25,0.55,0.5,0.5,0.55,0.5,0.55,0.55,0.33,0.55,0.5,0.5" style="fill:rgb(0,0,0);font-family:URWPalladioL-Roma;font-size:7.97px;stroke:none;">, 20 6 of 12</text>
   <text y="97.848" x="76.535,79.718,85.4,90.1808,92.391,95.232,100.563,104.898,110.785,114.924,118.107,122.2902,124.571,132.713,137.39,141.061,145.8418,148.061,152.396,157.727,163.409,167.549,170.732,175.613,181.296,184.479,187.32,192.89759999999998,195.062,199.944,204.279,207.461,210.303,215.819,220.5998,222.819,228.785,234.662,239.4428,241.663,244.845,250.323,252.49,257.47,259.695,264.03,269.361,275.043,279.183,282.366,287.248,292.93,296.21680000000003,298.427,303.308,307.165,310.348,313.189,319.096,323.431,326.272,331.153,334.0414,336.308,339.15,341.991,347.419,353.101,356.3878,358.608,362.748,368.078,373.966,377.637,381.972,386.648,389.13800000000003,391.442,396.324,402.006,408.0816,410.295,418.438,423.114,426.785,431.5658,433.786,439.751,445.082,453.703,458.38,462.519,465.702,468.543,472.878,477.76,480.601,483.442,489.0196,491.184,494.865,499.542,504.423,508.094,512.771" svgx:width="0.33,0.58,0.48,0.55,0.29,0.55,0.44,0.6,0.42,0.33,0.42,0.55,0.83,0.48,0.4,0.48,0.55,0.44,0.55,0.58,0.42,0.33,0.5,0.58,0.33,0.29,0.56,0.55,0.5,0.44,0.33,0.29,0.56,0.48,0.55,0.61,0.6,0.48,0.55,0.33,0.55,0.55,0.5,0.55,0.44,0.55,0.58,0.42,0.33,0.5,0.58,0.33,0.55,0.5,0.4,0.33,0.29,0.61,0.44,0.29,0.5,0.29,0.55,0.29,0.29,0.56,0.58,0.33,0.55,0.42,0.55,0.6,0.4,0.44,0.48,0.25,0.55,0.5,0.58,0.61,0.55,0.83,0.48,0.4,0.48,0.55,0.61,0.55,0.88,0.48,0.42,0.33,0.29,0.44,0.5,0.29,0.29,0.56,0.55,0.4,0.48,0.5,0.4,0.48,0.61" style="fill:rgb(0,0,0);font-family:URWPalladioL-Roma;font-size:9.96px;stroke:none;">the locusts were constantly active due to a constant artiﬁcial light source, and were domestically reared</text>
   <text y="111.358" x="76.535,79.492,85.2688,88.678,91.636,97.55,102.062,108.189,113.809,118.89,122.202,127.07,133.1456,136.551,142.658,145.615,150.696,155.005,158.318,161.275,165.6574,169.059,174.678,180.227,185.47,190.338,194.646,197.136,202.633,208.863,214.777,217.734,221.9172,225.315,229.826,235.375,241.502,244.46,250.53560000000002,253.941,259.021,261.979,265.291,270.159,274.143,277.445,280.758,286.672,291.4528,294.812,298.195,303.276,306.56280000000004,309.861,314.373,319.922,325.836,329.148,334.016,339.93,343.21680000000003,346.525,349.482,355.691,360.559,366.473,369.786,372.743,378.891,383.758,389.967,392.457,395.973,400.485,406.033,415.006,421.113,426.194,430.025,434.893,440.9686,444.384,447.697,453.175,456.517,459.474,462.431,465.744,470.612,474.626,479.706,483.019,489.147,492.978,497.7588,501.117,504.43,510.344,515.425" svgx:width="0.29,0.58,0.55,0.29,0.58,0.44,0.6,0.55,0.5,0.33,0.48,0.61,0.55,0.6,0.29,0.5,0.42,0.33,0.29,0.44,0.55,0.55,0.55,0.52,0.48,0.42,0.25,0.55,0.61,0.58,0.29,0.42,0.55,0.44,0.55,0.6,0.29,0.61,0.55,0.5,0.29,0.33,0.48,0.4,0.55,0.33,0.58,0.48,0.55,0.33,0.5,0.33,0.55,0.44,0.55,0.58,0.33,0.48,0.58,0.33,0.55,0.29,0.61,0.48,0.58,0.33,0.29,0.61,0.48,0.61,0.25,0.55,0.44,0.55,0.88,0.6,0.5,0.4,0.48,0.61,0.55,0.33,0.55,0.55,0.29,0.29,0.33,0.48,0.4,0.5,0.33,0.6,0.4,0.48,0.55,0.33,0.58,0.5,0.33" style="fill:rgb(0,0,0);font-family:URWPalladioL-Roma;font-size:9.96px;stroke:none;">in incubated plastic boxes. This could alter the fat content identiﬁed, compared to literature that</text>
   <text y="124.867" x="76.535,80.759,86.199,92.206,95.962,100.385,105.158,111.2336,113.735,116.634,122.433,126.657,131.429,135.852,139.1,143.2832,145.815,149.132,152.888,158.328,169.616,172.863,178.662,183.4428,185.924,194.233,197.132,200.031,206.10660000000001,208.609" svgx:width="0.42,0.55,0.6,0.4,0.44,0.48,0.61,0.55,0.29,0.58,0.42,0.48,0.44,0.33,0.42,0.55,0.33,0.4,0.55,0.88,0.33,0.58,0.48,0.55,0.83,0.29,0.29,0.61,0.55,0.33" style="fill:rgb(0,0,0);font-family:URWPalladioL-Roma;font-size:9.96px;stroke:none;">sourced insects fromthe wild [</text>
   <text y="124.867" x="211.927" svgx:width="0.5" style="fill:rgb(8,117,183);font-family:URWPalladioL-Roma;font-size:9.96px;stroke:none;">5</text>
   <text y="124.867" x="216.908,220.226" svgx:width="0.33,0.25" style="fill:rgb(0,0,0);font-family:URWPalladioL-Roma;font-size:9.96px;stroke:none;">].</text>
   <text y="138.377" x="97.795,104.024,109.938,114.7188,119.104,124.185,128.494,134.2708,138.717,143.229,148.777,154.691,158.004,162.871,168.786,172.0728,176.397,184.872,189.953,194.1362,198.57,201.527,207.076,215.551,220.418,224.40200000000002,228.73,232.043,237.957,243.038,248.81480000000002,253.261,257.092,261.96,268.067,273.615,277.629,280.942,285.81,291.8856,296.317,300.829,306.377,312.291,315.604,320.472,326.386,329.699,333.8822,338.316,341.7,347.248" svgx:width="0.61,0.58,0.48,0.55,0.5,0.42,0.58,0.55,0.44,0.55,0.58,0.33,0.48,0.58,0.33,0.55,0.83,0.5,0.42,0.55,0.29,0.55,0.83,0.48,0.4,0.55,0.33,0.58,0.5,0.58,0.55,0.4,0.48,0.6,0.55,0.4,0.33,0.48,0.61,0.55,0.44,0.55,0.58,0.33,0.48,0.58,0.33,0.42,0.55,0.33,0.55,0.4" style="fill:rgb(0,0,0);font-family:URWPalladioL-Roma;font-size:9.96px;stroke:none;">The ash content was lower than reported contents for</text>
   <text y="138.377" x="355.561,361.211,363.701,368.05,375.956,378.781,383.862,387.815,392.327,395.711,400.222,404.175,407.0" svgx:width="0.56,0.25,0.55,0.78,0.28,0.5,0.39,0.44,0.33,0.44,0.39,0.28,0.44" style="fill:rgb(0,0,0);font-family:URWPalladioL-Ital;font-size:9.96px;stroke:none;">L. migratoria</text>
   <text y="138.377" x="411.516,414.00600000000003,418.812,422.826,427.907,433.821,439.471,442.428,448.342,453.9196,458.291,461.675,465.516,471.064,479.8288,484.336,489.417,491.957,497.038,505.4044,509.883,513.195" svgx:width="0.25,0.55,0.4,0.5,0.58,0.56,0.29,0.58,0.56,0.55,0.33,0.4,0.55,0.88,0.55,0.5,0.25,0.5,0.84,0.55,0.33,0.55" style="fill:rgb(0,0,0);font-family:URWPalladioL-Roma;font-size:9.96px;stroke:none;">, ranging from 3.3% to</text>
   <text y="151.886" x="76.535,81.516,84.007,88.988,93.97,104.829" svgx:width="0.5,0.25,0.5,0.5,0.84,0.33" style="fill:rgb(0,0,0);font-family:URWPalladioL-Roma;font-size:9.96px;stroke:none;">5.72%[</text>
   <text y="151.886" x="108.146" svgx:width="0.5" style="fill:rgb(8,117,183);font-family:URWPalladioL-Roma;font-size:9.96px;stroke:none;">6</text>
   <text y="151.886" x="113.128" svgx:width="0.5" style="fill:rgb(0,0,0);font-family:URWPalladioL-Roma;font-size:9.96px;stroke:none;">–</text>
   <text y="151.886" x="118.109" svgx:width="0.5" style="fill:rgb(8,117,183);font-family:URWPalladioL-Roma;font-size:9.96px;stroke:none;">8</text>
   <text y="151.886" x="123.09" svgx:width="0.25" style="fill:rgb(0,0,0);font-family:URWPalladioL-Roma;font-size:9.96px;stroke:none;">,</text>
   <text y="151.886" x="125.581,130.562" svgx:width="0.5,0.5" style="fill:rgb(8,117,183);font-family:URWPalladioL-Roma;font-size:9.96px;stroke:none;">18</text>
   <text y="151.886" x="135.543" svgx:width="0.25" style="fill:rgb(0,0,0);font-family:URWPalladioL-Roma;font-size:9.96px;stroke:none;">,</text>
   <text y="151.886" x="138.034,143.015" svgx:width="0.5,0.5" style="fill:rgb(8,117,183);font-family:URWPalladioL-Roma;font-size:9.96px;stroke:none;">19</text>
   <text y="151.886" x="147.997,151.314,153.804,156.308,162.433,168.249,173.0298,175.534,184.357,187.265,193.08,197.867,201.814,206.81,209.6984,212.226,216.663,222.119,227.934,231.192,235.978,241.794,245.0808,247.549,253.195,258.191,262.138,265.046,269.833,274.0162,276.578,282.683,287.469,293.475,298.261,304.077,310.182,313.09,318.906,324.4836,326.96,332.416,338.1928,340.739,344.976,350.982,355.768,360.205,363.103,367.889,372.0722,374.634,379.63,385.446,391.52160000000003,394.049,399.505,402.763,408.578,413.365,417.349,419.82,423.147,428.144,432.58,435.838,441.294,445.241,449.4242,451.976,456.213,462.238,466.675,472.4518,474.998,479.995,484.1782,486.73,492.545,497.541,503.067,505.975,509.233,514.229,517.486" svgx:width="0.33,0.25,0.55,0.61,0.58,0.48,0.55,0.88,0.29,0.58,0.48,0.4,0.5,0.29,0.55,0.44,0.55,0.58,0.33,0.48,0.58,0.33,0.55,0.56,0.5,0.4,0.29,0.48,0.42,0.55,0.61,0.48,0.6,0.48,0.58,0.61,0.29,0.58,0.56,0.55,0.55,0.58,0.55,0.42,0.6,0.48,0.44,0.29,0.48,0.42,0.55,0.5,0.58,0.61,0.55,0.55,0.33,0.58,0.48,0.4,0.55,0.33,0.5,0.44,0.33,0.55,0.4,0.42,0.55,0.42,0.6,0.44,0.58,0.55,0.5,0.42,0.55,0.58,0.5,0.55,0.29,0.33,0.5,0.33,0.25" style="fill:rgb(0,0,0);font-family:URWPalladioL-Roma;font-size:9.96px;stroke:none;">]. The mineral content varies depending on species and other factors such as habitat,</text>
   <text y="165.395" x="76.535,82.744,85.701,90.569,93.881,96.371,101.838,106.919,112.833,118.90859999999999,123.879,128.188,133.055,138.136,142.445,147.993,153.907,156.39700000000002,161.285,170.898,176.446,182.361,187.441,196.414,201.282,207.35760000000002,212.328" svgx:width="0.61,0.29,0.48,0.33,0.25,0.55,0.5,0.58,0.61,0.55,0.42,0.48,0.5,0.42,0.55,0.58,0.25,0.55,0.95,0.55,0.58,0.5,0.88,0.48,0.61,0.55,0.33" style="fill:rgb(0,0,0);font-family:URWPalladioL-Roma;font-size:9.96px;stroke:none;">diet, and season. Mohamed [</text>
   <text y="165.395" x="215.71" svgx:width="0.5" style="fill:rgb(8,117,183);font-family:URWPalladioL-Roma;font-size:9.96px;stroke:none;">6</text>
   <text y="165.395" x="220.692,223.9788,228.913,232.297,237.845,243.973,249.887,255.9626,260.933,266.847,269.804,275.454,281.2308,286.195,291.276,300.249,305.797,311.925,317.839,321.152,325.3352,330.298,335.846,339.13280000000003,344.067,350.174,356.088,361.637,365.945,372.053,377.967,383.515,387.346,392.895,399.022,403.2052,408.168,413.787,419.915,423.20180000000005,428.065,431.022,436.57,444.8368,449.882,454.963,463.936,469.484,475.612,481.526,484.839,489.0222,493.975,499.523,502.80980000000005,507.744,512.825,515.782" svgx:width="0.33,0.55,0.33,0.55,0.6,0.58,0.61,0.55,0.58,0.29,0.56,0.58,0.55,0.5,0.88,0.55,0.6,0.58,0.33,0.42,0.55,0.55,0.33,0.55,0.6,0.58,0.55,0.42,0.6,0.58,0.55,0.4,0.55,0.6,0.42,0.55,0.55,0.6,0.33,0.55,0.29,0.55,0.83,0.55,0.5,0.88,0.55,0.6,0.58,0.33,0.42,0.55,0.55,0.33,0.55,0.5,0.29,0.29" style="fill:rgb(0,0,0);font-family:URWPalladioL-Roma;font-size:9.96px;stroke:none;">] found high amounts of phosphorous but low amounts of all</text>
   <text y="178.905" x="76.535,81.866,85.049,90.731,95.408,101.207,106.889,112.777,115.959,119.816,122.657,127.334,133.016,136.199,140.338,144.732,154.495,160.178,164.854,168.535,173.202,178.093,182.223,186.724,193.812,199.143,205.343,205.03,208.887,211.728,220.349,224.489" svgx:width="0.55,0.33,0.58,0.48,0.4,0.58,0.6,0.33,0.4,0.29,0.48,0.58,0.33,0.42,0.25,1.0,0.58,0.48,0.4,0.48,0.5,0.42,0.25,0.73,0.55,0.6,0.33,0.4,0.29,0.88,0.42,0.56" style="fill:rgb(0,0,0);font-family:URWPalladioL-Roma;font-size:9.96px;stroke:none;">othernutrients.Whereas,Kouˇrimsk</text>
   <text y="178.905" x="229.918" svgx:width="0.5" style="fill:rgb(0,0,0);font-family:VnURWPalladioL;font-size:9.96px;stroke:none;">á</text>
   <text y="178.905" x="236.747,241.424,244.7108,246.549,251.431,254.272,256.762,258.666" svgx:width="0.48,0.33,0.55,0.5,0.29,0.25,0.55,0.33" style="fill:rgb(0,0,0);font-family:URWPalladioL-Roma;font-size:9.96px;stroke:none;">et al. [</text>
   <text y="178.905" x="261.916,266.897" svgx:width="0.5,0.5" style="fill:rgb(8,117,183);font-family:URWPalladioL-Roma;font-size:9.96px;stroke:none;">29</text>
   <text y="178.905" x="271.879,275.16580000000005,277.073,279.914,285.88,290.556,296.239,299.421,302.263,308.169,312.846,318.9216,320.764,326.446,329.287,334.716,340.4928,342.341,347.223,355.844,361.175,367.062,372.744,375.927,380.1102,382.019,387.35,390.63680000000005,392.544,395.385,399.066,404.397,410.17379999999997,412.022,415.273,420.155,425.037,429.918,434.898,436.753,445.374,450.802,454.08880000000005,455.996,458.837" svgx:width="0.33,0.55,0.29,0.61,0.48,0.58,0.33,0.29,0.61,0.48,0.61,0.55,0.58,0.29,0.56,0.58,0.55,0.5,0.88,0.55,0.6,0.58,0.33,0.42,0.55,0.55,0.33,0.55,0.29,0.4,0.55,0.58,0.55,0.33,0.5,0.5,0.5,0.5,0.55,0.88,0.56,0.33,0.55,0.29,0.58" style="fill:rgb(0,0,0);font-family:URWPalladioL-Roma;font-size:9.96px;stroke:none;">] identiﬁed high amounts of iron (8–20 mg) in</text>
   <text y="178.905" x="466.469,471.897,474.387,476.281,483.877,486.591,491.473,495.271,499.606,502.857,507.192,510.99,513.704" svgx:width="0.56,0.25,0.55,0.78,0.28,0.5,0.39,0.44,0.33,0.44,0.39,0.28,0.44" style="fill:rgb(0,0,0);font-family:URWPalladioL-Ital;font-size:9.96px;stroke:none;">L. migratoria</text>
   <text y="178.905" x="518.043" svgx:width="0.25" style="fill:rgb(0,0,0);font-family:URWPalladioL-Roma;font-size:9.96px;stroke:none;">.</text>
   <text y="192.414" x="76.535,82.185,88.313,92.327,95.639,101.553,106.421,110.405,113.29,117.121,121.989,126.298,131.165,136.246,140.087,144.599,150.3758,153.369,157.881,163.429,169.343,173.855,178.723,182.737,188.651,191.608,197.522,203.09959999999998,206.027,209.34,215.254,220.0348,222.977,231.95,234.907,240.822,245.689,249.703,254.784,257.6724,260.597,265.108,270.657,276.571,279.884,284.751,290.666,293.9528,296.834,301.915,307.829,313.9046,316.893,322.513,325.47,331.018,336.099,341.841,346.922,349.879,352.836,357.917,363.536,366.493,369.45,372.407,375.72,381.29760000000005,384.226,392.701,398.249,404.377,407.334,413.4096,416.398,422.505,426.347,431.895,437.636,440.593,446.802,451.5828,454.525,463.498,469.047,472.878,477.6588,480.601,483.558,489.3348,492.327,498.536,503.404,509.511,512.824" svgx:width="0.56,0.6,0.4,0.33,0.58,0.48,0.4,0.55,0.4,0.48,0.42,0.48,0.5,0.4,0.44,0.58,0.55,0.44,0.55,0.58,0.44,0.48,0.4,0.58,0.29,0.58,0.56,0.55,0.33,0.58,0.48,0.55,0.88,0.29,0.58,0.48,0.4,0.5,0.29,0.55,0.44,0.55,0.58,0.33,0.48,0.58,0.33,0.55,0.5,0.58,0.61,0.55,0.55,0.29,0.55,0.5,0.56,0.5,0.29,0.29,0.5,0.55,0.29,0.29,0.29,0.33,0.56,0.55,0.83,0.55,0.6,0.29,0.61,0.55,0.6,0.4,0.55,0.56,0.29,0.61,0.48,0.55,0.88,0.55,0.4,0.48,0.55,0.29,0.58,0.55,0.61,0.48,0.6,0.33,0.58" style="fill:rgb(0,0,0);font-family:URWPalladioL-Roma;font-size:9.96px;stroke:none;">Further research concerning the mineral content and bioavailability would provide more in depth</text>
   <text y="205.924" x="76.535,79.434,85.232,88.55,93.989,97.925,106.722,111.703,114.951,117.85,123.289,129.0658,131.578,136.56,142.069,147.509,153.516,156.8028,159.254,162.154,167.593,172.017,178.024,182.248,185.496,189.72,192.5088,194.98,200.779,205.551,210.532,213.431,216.679,222.4558,224.968,230.477,235.249,241.047,245.819,251.847,255.095,259.319" svgx:width="0.29,0.58,0.33,0.55,0.4,0.88,0.5,0.33,0.29,0.55,0.58,0.55,0.5,0.55,0.55,0.6,0.33,0.55,0.29,0.55,0.44,0.6,0.42,0.33,0.42,0.28,0.55,0.58,0.48,0.5,0.29,0.33,0.58,0.55,0.55,0.48,0.58,0.48,0.61,0.33,0.42,0.25" style="fill:rgb(0,0,0);font-family:URWPalladioL-Roma;font-size:9.96px;stroke:none;">information about locusts’ health beneﬁts.</text>
   <text y="219.433" x="97.795,101.115,106.89179999999999,109.343,114.821,119.541,125.275,129.995,133.887,138.813,141.68,144.17000000000002,146.627,149.839,155.573,160.3538,162.785,167.16,172.087,175.979,181.427,186.807,192.542,198.02,204.04,207.932,212.858,216.071,220.8518,223.283,226.564,233.55,241.747,249.492,252.7788,255.256,259.631,265.01,270.745,273.957,278.677,284.411,287.69780000000003,290.116,295.496,298.7828,301.269,306.649,310.541,313.753,319.488,324.867,330.789,334.001,338.721,342.613,347.539,353.31579999999997,355.757,359.934,365.856,370.576,374.95,377.817,382.537,386.7202,389.208,392.075,396.2582,398.735,401.603,406.982,414.283,416.773,419.841,429.161,434.541,440.276,445.202,453.902,458.622,464.6976,467.125" svgx:width="0.34,0.58,0.55,0.56,0.48,0.58,0.48,0.4,0.5,0.29,0.25,0.55,0.33,0.58,0.48,0.55,0.44,0.5,0.4,0.55,0.55,0.58,0.56,0.61,0.4,0.5,0.33,0.48,0.55,0.33,0.71,0.83,0.79,0.33,0.55,0.44,0.55,0.58,0.33,0.48,0.58,0.33,0.55,0.55,0.33,0.55,0.55,0.4,0.33,0.58,0.55,0.6,0.33,0.48,0.4,0.5,0.58,0.55,0.42,0.6,0.48,0.44,0.29,0.48,0.42,0.55,0.29,0.42,0.55,0.29,0.55,0.83,0.25,0.55,0.95,0.55,0.58,0.5,0.88,0.48,0.61,0.55,0.33" style="fill:rgb(0,0,0);font-family:URWPalladioL-Roma;font-size:9.96px;stroke:none;">In general, the carbohydrate (CHO) content of orthopteran species is low. Mohamed [</text>
   <text y="219.433" x="470.411" svgx:width="0.5" style="fill:rgb(8,117,183);font-family:URWPalladioL-Roma;font-size:9.96px;stroke:none;">6</text>
   <text y="219.433" x="475.393,478.6798,481.167,484.872,489.591,495.513,500.893,504.785,507.997,512.716" svgx:width="0.33,0.55,0.4,0.48,0.6,0.55,0.4,0.33,0.48,0.61" style="fill:rgb(0,0,0);font-family:URWPalladioL-Roma;font-size:9.96px;stroke:none;">] reported</text>
   <text y="232.942" x="76.54,81.372,92.042,98.956,107.095,117.237,122.069,127.718,133.7936,136.106,140.938,145.77,156.44,159.608,162.358,167.718,172.34,176.324,178.577,181.327,187.1038,189.426,198.074,200.823,206.213,209.999,214.831,217.929,223.219,227.005,232.58259999999999,234.856,237.605,242.895,247.169,253.027,257.102,260.2,264.3832,266.726,269.894,273.5,278.791,289.889,294.97,300.828,306.766,311.597,317.246,319.736,322.038,329.64,332.389,335.488,341.137,346.427,352.285,357.674,363.45079999999996,365.784,368.882,374.531,379.3118,381.605,387.443,391.049,395.672,399.747,404.369,410.018,413.3048,415.567,419.642,422.74,428.598,434.536,440.1136,442.376,448.314,451.064,457.13960000000003,459.462,465.111,470.401,473.68780000000004,475.95,480.025,484.648,490.486,495.318,499.103,503.935,507.034,511.656,514.406" svgx:width="0.5,0.84,0.71,0.83,0.79,0.5,0.58,0.61,0.55,0.5,0.5,0.84,0.33,0.29,0.55,0.48,0.4,0.55,0.29,0.58,0.55,0.88,0.29,0.56,0.4,0.5,0.33,0.55,0.4,0.56,0.55,0.29,0.55,0.44,0.6,0.42,0.33,0.42,0.55,0.33,0.4,0.55,0.88,0.52,0.6,0.61,0.5,0.58,0.25,0.55,0.78,0.29,0.33,0.58,0.55,0.6,0.56,0.58,0.55,0.33,0.58,0.48,0.55,0.6,0.4,0.48,0.42,0.48,0.58,0.33,0.55,0.42,0.33,0.6,0.61,0.56,0.55,0.61,0.29,0.61,0.55,0.58,0.55,0.33,0.55,0.42,0.48,0.6,0.5,0.4,0.5,0.33,0.48,0.29,0.56" style="fill:rgb(0,0,0);font-family:URWPalladioL-Roma;font-size:9.96px;stroke:none;">4%CHOand 14%fiber in migratory locusts fromSudan. Although the present study did not separately</text>
   <text y="246.452" x="76.54,85.108,89.651,94.403,98.398,104.176,107.703,112.4838,114.677,117.695,123.265,128.0458,130.238,133.327,135.997,141.277,145.82,149.804,151.967,156.161,161.372,166.941,169.959,174.502,180.071,183.09,185.58,187.782,191.309,195.852,201.61,206.821,210.527,213.546,217.7292,219.971,222.641,228.211,234.069,236.739,240.933,245.685,248.704,253.4848,255.677,260.657,262.87,265.54,270.293,273.819,279.129,283.9098,286.103,291.862,297.072,300.778,303.797,306.467,311.677,317.4538,319.677,324.888,328.1748,330.407,333.426,338.995,341.665,345.8482,348.101,350.771,354.9542,357.196,361.191,366.402,372.18,375.707,379.901,384.444,390.5196,392.733,395.822,399.348,404.559,415.557,418.576,424.145,428.9258,431.129,436.887,442.098,444.768,450.078,454.073,458.825,463.019,467.214,472.783,477.535,481.241,483.911,489.769,494.5498,496.743,500.937,506.506,509.176,512.195,514.865,520.434" svgx:width="0.88,0.48,0.5,0.42,0.6,0.4,0.48,0.55,0.33,0.58,0.48,0.55,0.33,0.29,0.55,0.48,0.4,0.55,0.44,0.55,0.58,0.33,0.48,0.58,0.33,0.25,0.55,0.4,0.48,0.6,0.55,0.4,0.33,0.42,0.55,0.29,0.58,0.61,0.29,0.44,0.5,0.33,0.48,0.55,0.5,0.55,0.29,0.5,0.4,0.56,0.48,0.55,0.6,0.55,0.4,0.33,0.29,0.55,0.58,0.55,0.55,0.33,0.55,0.33,0.58,0.29,0.42,0.55,0.29,0.42,0.55,0.42,0.55,0.6,0.4,0.44,0.48,0.61,0.55,0.33,0.4,0.55,0.88,0.33,0.58,0.48,0.55,0.6,0.55,0.29,0.56,0.42,0.5,0.44,0.44,0.58,0.5,0.4,0.29,0.61,0.48,0.55,0.44,0.58,0.29,0.33,0.29,0.58,0.25" style="fill:rgb(0,0,0);font-family:URWPalladioL-Roma;font-size:9.96px;stroke:none;">measure the fiber content, reports indicate a large portion of this is sourced fromthe polysaccharide chitin,</text>
   <text y="259.961" x="76.535,79.919,85.467,91.595,97.509,103.5846,106.309,109.266,115.0428,117.772,121.085,126.999,131.7798,134.458,139.325,144.569,150.117,154.426,160.076,164.943,167.9,172.768,176.07,181.619,187.3958,190.124,195.673,198.9598,201.648,204.605,210.519,214.828,219.695,224.207,227.52,231.7032,234.42" svgx:width="0.33,0.55,0.6,0.58,0.61,0.55,0.29,0.58,0.55,0.33,0.58,0.48,0.55,0.48,0.52,0.55,0.42,0.56,0.48,0.29,0.48,0.33,0.55,0.58,0.55,0.55,0.33,0.55,0.29,0.58,0.42,0.48,0.44,0.33,0.42,0.55,0.33" style="fill:rgb(0,0,0);font-family:URWPalladioL-Roma;font-size:9.96px;stroke:none;">found in the exoskeleton of insects [</text>
   <text y="259.961" x="237.804" svgx:width="0.5" style="fill:rgb(8,117,183);font-family:URWPalladioL-Roma;font-size:9.96px;stroke:none;">6</text>
   <text y="259.961" x="242.785,246.169,248.65900000000002,251.301,258.505,264.42,267.377,270.689,273.647,279.42379999999997,282.152,285.109,289.2922,292.009,297.09,302.86679999999996,305.585,308.542,314.457,317.769,322.637,326.478,331.346,335.654,338.967,341.924,347.838,353.41560000000004,356.079,362.227,367.837,372.704,375.987,378.47700000000003,381.139,389.614,392.571,395.883,401.65979999999996,404.389,408.22,413.087,417.599,422.467,428.381,431.6678,434.285,438.594,441.906,448.034,454.243,457.2,462.068,466.2512,468.967,471.925,478.133,483.001,488.915,492.228,495.185,498.569,504.219,507.176,513.09" svgx:width="0.33,0.25,0.55,0.71,0.58,0.29,0.33,0.29,0.58,0.55,0.29,0.42,0.55,0.5,0.58,0.55,0.29,0.58,0.33,0.48,0.4,0.48,0.42,0.33,0.29,0.58,0.56,0.55,0.61,0.55,0.48,0.4,0.25,0.55,0.83,0.29,0.33,0.58,0.55,0.4,0.48,0.44,0.48,0.58,0.33,0.55,0.42,0.33,0.6,0.61,0.29,0.48,0.42,0.55,0.29,0.61,0.48,0.58,0.33,0.29,0.33,0.56,0.29,0.58,0.56" style="fill:rgb(0,0,0);font-family:URWPalladioL-Roma;font-size:9.96px;stroke:none;">]. Chitin is an interesting ﬁber, with recent studies identifying</text>
   <text y="273.471" x="76.236,82.343,87.892,93.999,100.127,103.084,108.165,111.477,114.434,119.983,125.897,130.08020000000002,133.874,137.187,143.101,148.182,151.4688,155.153,159.665,165.213,174.186,183.159,188.707,194.622,197.579,203.1566,206.897,211.409,216.957,222.872,227.18,233.308,242.281,247.0618,250.806,253.764,259.678,263.986,268.854,273.366,276.678,280.8612,284.656,289.736,295.651,301.7266,305.518,311.066,314.379,320.293,325.161,329.145,332.843,337.355,343.269,346.226,349.539,352.496,358.41,363.959,370.086,374.2692,378.053,381.437,386.985,392.534,398.743,403.051,405.541,409.555,414.067,419.148,424.9248,428.72,433.232,438.78,444.695,448.007,453.088,456.045,461.8218,465.628,468.941,474.855,479.6358,483.391,488.258,494.173,499.254,504.904,513.876" svgx:width="0.6,0.55,0.6,0.6,0.29,0.5,0.33,0.29,0.55,0.58,0.42,0.55,0.33,0.58,0.5,0.33,0.55,0.44,0.55,0.88,0.88,0.55,0.58,0.29,0.56,0.55,0.44,0.55,0.58,0.42,0.6,0.88,0.48,0.55,0.29,0.58,0.42,0.48,0.44,0.33,0.42,0.55,0.5,0.58,0.61,0.55,0.55,0.33,0.58,0.48,0.4,0.55,0.44,0.58,0.29,0.33,0.29,0.58,0.55,0.6,0.42,0.55,0.33,0.55,0.55,0.61,0.42,0.25,0.55,0.44,0.5,0.58,0.55,0.44,0.55,0.58,0.33,0.5,0.29,0.58,0.55,0.33,0.58,0.48,0.55,0.48,0.58,0.5,0.56,0.88,0.48" style="fill:rgb(0,0,0);font-family:URWPalladioL-Roma;font-size:9.96px;stroke:none;">populations that commonly consume insects and other chitinous foods, can contain the enzyme</text>
   <text y="286.98" x="76.535,80.981,86.808,89.721,92.985,95.899,101.726,106.732,110.978,115.774,118.264,120.77,123.683,129.511,135.628,138.542,142.987,147.994,151.258,154.171,159.998,165.57559999999998,168.058,170.972,174.2588,176.729,185.57,190.576,196.15359999999998,198.636,204.173,208.9538,211.462,217.58,220.493,226.06,230.856,235.102,238.366,241.279,246.816,249.72,254.5008,257.009,260.343,265.81,269.794,272.258,276.703,281.499,285.454,288.718,293.724,296.638,302.41479999999996,304.958,309.404,314.87,320.698,324.943,330.98,339.821,344.617,348.572,352.7552,355.311" svgx:width="0.44,0.58,0.29,0.33,0.29,0.58,0.5,0.42,0.48,0.25,0.55,0.29,0.58,0.61,0.29,0.44,0.5,0.33,0.29,0.58,0.56,0.55,0.29,0.33,0.55,0.88,0.5,0.56,0.55,0.55,0.48,0.55,0.61,0.29,0.56,0.48,0.42,0.33,0.29,0.55,0.29,0.48,0.55,0.33,0.55,0.4,0.55,0.44,0.48,0.4,0.33,0.5,0.29,0.58,0.55,0.44,0.55,0.58,0.42,0.6,0.88,0.48,0.4,0.42,0.55,0.33" style="fill:rgb(0,0,0);font-family:URWPalladioL-Roma;font-size:9.96px;stroke:none;">chitinase, indicating it may be digestible for certain consumers [</text>
   <text y="286.98" x="358.646,363.627" svgx:width="0.5,0.5" style="fill:rgb(8,117,183);font-family:URWPalladioL-Roma;font-size:9.96px;stroke:none;">30</text>
   <text y="286.98" x="368.609,371.943,374.433,377.54,383.107,389.144,393.099,396.363,402.191,406.987,410.971,413.435,416.348,422.175,427.832,432.628,436.874,440.138,443.051,448.618,453.624,456.888,459.802,465.269,471.0458,473.589,476.503,482.33,485.594,491.072,493.554,497.999,503.827,506.74,510.004,512.918" svgx:width="0.33,0.25,0.55,0.56,0.6,0.4,0.33,0.58,0.48,0.4,0.55,0.29,0.58,0.56,0.48,0.42,0.33,0.29,0.56,0.5,0.33,0.29,0.55,0.58,0.55,0.29,0.58,0.33,0.55,0.55,0.44,0.58,0.29,0.33,0.29,0.58" style="fill:rgb(0,0,0);font-family:URWPalladioL-Roma;font-size:9.96px;stroke:none;">]. Further investigation into chitin</text>
   <text y="300.489" x="76.535,81.616,87.53,93.6056,96.493,99.45,102.763,106.9462,109.825,116.034,118.991,124.641,129.509,133.817,137.13,140.087,145.707,148.664,151.621,154.578,157.881,163.4586,166.284,171.365,177.28,183.3556,186.242,192.157,198.284,201.597,205.611,208.568,211.881,214.838,220.386,226.3,231.381,234.2694,237.092,242.712,247.579,253.493,258.361,264.509,267.822,272.0052,274.884,279.965,283.796,288.5768,291.418,297.332,302.199,307.067,313.276,318.143,324.2186,327.096,335.571,338.528,341.841,347.6178,350.509,356.423,361.901,364.725,370.934,376.015,379.328,384.308,387.163,391.674,397.223,403.137,407.649,412.516,416.53,422.444,425.402,431.316,436.8936,439.709,448.682,451.639,457.289,461.303,466.384,469.697,475.245,479.259,484.83660000000003,487.663,490.62,496.169,500.681,506.808,511.117,514.43" svgx:width="0.5,0.58,0.61,0.55,0.29,0.33,0.42,0.55,0.61,0.29,0.56,0.48,0.42,0.33,0.29,0.55,0.29,0.29,0.29,0.33,0.56,0.55,0.5,0.58,0.61,0.55,0.58,0.6,0.33,0.4,0.29,0.33,0.29,0.55,0.58,0.5,0.29,0.55,0.55,0.48,0.58,0.48,0.61,0.33,0.42,0.55,0.5,0.4,0.48,0.55,0.58,0.48,0.48,0.61,0.48,0.61,0.55,0.83,0.29,0.33,0.58,0.55,0.58,0.55,0.55,0.61,0.5,0.33,0.5,0.55,0.44,0.55,0.58,0.44,0.48,0.4,0.58,0.29,0.58,0.56,0.55,0.88,0.29,0.56,0.4,0.5,0.33,0.55,0.4,0.56,0.55,0.29,0.55,0.44,0.6,0.42,0.33,0.42" style="fill:rgb(0,0,0);font-family:URWPalladioL-Roma;font-size:9.96px;stroke:none;">and its digestibility and nutritional beneﬁts are needed with no data concerning migratory locusts</text>
   <text y="313.999" x="76.535,80.919,86.872,90.772,94.494,99.223,104.969,108.188,111.061,116.63860000000001,119.038,123.974,129.553,134.489,137.362,140.235,145.172,150.631,153.504,158.234,160.72400000000002,163.802,171.562,177.14,181.869,185.769,190.706,193.579,196.452,198.942,201.418,204.636,210.382,215.1628,217.6,223.346,226.219,231.708,237.4848,239.952,245.886,249.608,254.998,258.217,262.946,265.819,271.565,274.055,276.521,279.809,284.745,287.964,290.454,292.93,297.866,303.613,309.6886,312.143,318.116,323.576,328.305,332.289,334.693,339.076,344.467,350.213,353.431,358.161,363.907,367.1938,369.623,372.911,378.301,384.255,390.001,396.0766,398.521,401.394,407.1708,409.638,412.857,418.603,423.3838,425.83,431.763,435.476,440.205,444.391,449.12,454.866,458.1528,460.582,464.769,467.987,473.94,479.973,485.55060000000003,487.96,493.351,499.304,502.523,505.396,508.269,514.015" svgx:width="0.44,0.6,0.4,0.4,0.48,0.58,0.33,0.29,0.56,0.55,0.5,0.56,0.5,0.29,0.29,0.5,0.55,0.29,0.48,0.25,0.55,0.79,0.56,0.48,0.4,0.5,0.29,0.29,0.25,0.55,0.33,0.58,0.48,0.55,0.58,0.29,0.56,0.58,0.55,0.6,0.4,0.55,0.33,0.48,0.29,0.58,0.25,0.55,0.33,0.5,0.33,0.25,0.55,0.5,0.58,0.61,0.55,0.61,0.55,0.48,0.4,0.55,0.44,0.55,0.58,0.33,0.48,0.58,0.33,0.55,0.33,0.55,0.6,0.58,0.61,0.55,0.29,0.58,0.55,0.33,0.58,0.48,0.55,0.6,0.4,0.48,0.42,0.48,0.58,0.33,0.55,0.42,0.33,0.6,0.61,0.56,0.55,0.55,0.6,0.33,0.29,0.29,0.58,0.48" style="fill:rgb(0,0,0);font-family:URWPalladioL-Roma;font-size:9.96px;stroke:none;">currently available. Overall, the high protein, fat, and ﬁber content found in the present study outline</text>
   <text y="327.508" x="76.535,79.783,85.581,90.3618,92.844,98.642,104.649,107.897,111.832,114.732,117.979,120.879,126.318,132.116,137.098,139.9864,142.487,147.997,152.769,158.567,163.339,169.367,172.614,176.7972,179.329,184.769,188.0558,190.577,195.558,201.645,207.732,210.632,216.43,222.0076,224.46,227.359,232.798,237.222,243.229,247.453,250.701,254.8842,257.416,260.664,266.142,268.594,274.133,279.573,285.58,289.56399999999996,292.006,298.093,300.992,305.764,309.012" svgx:width="0.33,0.58,0.48,0.55,0.58,0.6,0.33,0.4,0.29,0.33,0.29,0.55,0.58,0.5,0.29,0.55,0.55,0.48,0.58,0.48,0.61,0.33,0.42,0.55,0.55,0.33,0.55,0.5,0.61,0.61,0.29,0.58,0.56,0.55,0.29,0.55,0.44,0.6,0.42,0.33,0.42,0.55,0.33,0.55,0.55,0.56,0.55,0.6,0.4,0.55,0.61,0.29,0.48,0.33,0.25" style="fill:rgb(0,0,0);font-family:URWPalladioL-Roma;font-size:9.96px;stroke:none;">the nutritional beneﬁts of adding locusts to your diet.</text>
   <text y="350.721" x="76.535,81.516,84.007,88.988,91.478,94.567,100.107,104.53,107.847,111.165,116.14500000000001,118.637,125.83,129.885,132.654,137.634,140.126,146.771,151.195,158.946,163.927,168.35,172.226,174.995,178.313,181.083,185.506" svgx:width="0.5,0.25,0.5,0.25,0.55,0.56,0.44,0.33,0.33,0.5,0.55,0.72,0.41,0.28,0.5,0.55,0.67,0.44,0.78,0.5,0.44,0.39,0.28,0.33,0.28,0.44,0.56" style="fill:rgb(0,0,0);font-family:URWPalladioL-Ital;font-size:9.96px;stroke:none;">3.2. Fatty Acid Composition</text>
   <text y="370.208" x="97.795,107.957,113.871,118.739,124.5158,127.529,130.486,136.4,142.141,147.009,151.317,154.63,157.587,163.237,168.318,171.631,174.588,180.502,186.0796,189.018,194.932,201.06,204.372,208.386,211.344,214.656,217.613,223.162,229.076,234.157,237.0454,239.99,245.609,250.477,256.391,261.259,267.406,270.719,275.028,277.51800000000003,280.536,283.493,289.041,293.553,299.68,303.989,307.302,311.4852,314.486,319.567,322.524,326.833,332.31100000000004,335.247,339.759,345.307,351.221,354.534,359.615,362.572,368.3488,371.362,376.443,382.55,388.658,392.489,397.356,401.868,404.825,409.906,415.526,418.483,423.2638,426.226,431.307,440.28,445.828,451.956,457.87,461.183,465.3662,468.357,473.905,477.1918,480.165,485.033,489.341,493.65,498.517,504.432,507.744,510.701,515.782" svgx:width="1.0,0.58,0.48,0.58,0.55,0.29,0.58,0.56,0.48,0.42,0.33,0.29,0.56,0.5,0.33,0.29,0.58,0.56,0.55,0.58,0.6,0.33,0.4,0.29,0.33,0.29,0.55,0.58,0.5,0.29,0.55,0.55,0.48,0.58,0.48,0.61,0.33,0.42,0.25,0.55,0.29,0.55,0.44,0.6,0.42,0.33,0.42,0.55,0.5,0.29,0.42,0.55,0.55,0.44,0.55,0.58,0.33,0.5,0.29,0.58,0.55,0.5,0.6,0.6,0.4,0.48,0.44,0.29,0.5,0.55,0.29,0.48,0.55,0.5,0.88,0.55,0.6,0.58,0.33,0.42,0.55,0.55,0.33,0.55,0.48,0.42,0.42,0.48,0.58,0.33,0.29,0.5,0.29" style="fill:rgb(0,0,0);font-family:URWPalladioL-Roma;font-size:9.96px;stroke:none;">When investigating nutritional beneﬁts, locusts also contain appreciable amounts of essential</text>
   <text y="383.718" x="76.535,79.879,84.9,88.174,91.448,97.0256,99.512,104.533,108.992,111.914,118.05,122.2332,124.798,130.382,136.226,141.71,150.085,155.86180000000002,158.41,161.754,167.237,171.221,173.684,176.958,182.803,187.613,190.535,194.519,196.982,202.827,207.637,212.658,215.581,218.854,224.63080000000002,227.19,232.743,237.553,243.398,248.208,254.284,257.557,261.815,264.305,267.409,273.565,279.41,284.1908,286.7,291.551,299.3198,301.844,306.303,311.786,320.653,326.689,332.172,336.43,339.352,342.626,345.548,351.031,356.8078,359.356,364.839,368.1258,370.674,375.133,379.019,385.075,391.21,395.9908,398.501,401.423,406.906,411.365,417.421,421.679,424.9658,427.433,432.916,435.838,438.7264,441.251,444.595,448.381,453.864" svgx:width="0.33,0.5,0.33,0.33,0.56,0.55,0.5,0.44,0.29,0.61,0.42,0.55,0.56,0.58,0.55,0.83,0.58,0.55,0.33,0.55,0.4,0.55,0.33,0.58,0.48,0.29,0.4,0.55,0.58,0.48,0.5,0.29,0.33,0.58,0.55,0.55,0.48,0.58,0.48,0.61,0.33,0.42,0.25,0.55,0.61,0.58,0.48,0.55,0.56,0.78,0.55,0.44,0.55,0.88,0.6,0.55,0.42,0.29,0.33,0.29,0.55,0.58,0.55,0.55,0.33,0.55,0.44,0.4,0.6,0.61,0.48,0.55,0.29,0.55,0.44,0.6,0.42,0.33,0.55,0.55,0.29,0.29,0.55,0.33,0.4,0.55,0.88" style="fill:rgb(0,0,0);font-family:URWPalladioL-Roma;font-size:9.96px;stroke:none;">fatty acids known for their health beneﬁts. The FA composition of crude locust oil from</text>
   <text y="383.718" x="465.212,470.796,473.286,475.787,483.599,486.391,491.412,495.319,499.778,503.122,507.58,511.487,514.279" svgx:width="0.56,0.25,0.55,0.78,0.28,0.5,0.39,0.44,0.33,0.44,0.39,0.28,0.44" style="fill:rgb(0,0,0);font-family:URWPalladioL-Ital;font-size:9.96px;stroke:none;">L. migratoria</text>
   <text y="397.227" x="76.535,79.492,83.6752,87.154,91.463,97.377,102.925,111.4,117.1768,120.658,123.615,129.3918,132.882,138.187,143.268,148.887,151.844" svgx:width="0.29,0.42,0.55,0.42,0.58,0.55,0.83,0.58,0.55,0.29,0.58,0.55,0.61,0.5,0.55,0.29,0.48" style="fill:rgb(0,0,0);font-family:URWPalladioL-Roma;font-size:9.96px;stroke:none;">is shown in Table</text>
   <text y="397.227" x="160.065" svgx:width="0.5" style="fill:rgb(8,117,183);font-family:URWPalladioL-Roma;font-size:9.96px;stroke:none;">2</text>
   <text y="397.227" x="165.146,167.636,173.347,179.576,185.49,190.2708,193.711,198.223,204.137,209.218,212.175,217.95180000000002,221.433,224.39,229.257,235.172,240.822,244.134,250.049,254.2322,257.711,261.725,266.806,272.72,278.37,283.237,289.31260000000003,292.789,296.173,300.014,305.563,314.32779999999997,317.879,322.96,327.94,331.394,334.707,340.185,343.599,348.68,353.66,357.114,361.626,366.707,370.721,376.34,381.889,387.803,392.111,394.601,397.995,403.31,408.788,412.212,415.524,421.439,426.2198,429.649,434.73,440.858,444.171,450.085,455.633,459.647,463.8302,467.309,472.959,478.873,484.422,492.897,495.854,500.721,506.93,512.58,517.448" svgx:width="0.25,0.55,0.61,0.58,0.48,0.55,0.44,0.58,0.5,0.29,0.58,0.55,0.29,0.48,0.58,0.56,0.33,0.58,0.42,0.55,0.4,0.5,0.58,0.56,0.48,0.61,0.55,0.33,0.4,0.55,0.88,0.55,0.5,0.5,0.55,0.33,0.55,0.55,0.5,0.5,0.55,0.44,0.5,0.4,0.55,0.55,0.58,0.42,0.25,0.55,0.61,0.55,0.55,0.33,0.58,0.48,0.55,0.5,0.6,0.33,0.58,0.55,0.4,0.42,0.55,0.56,0.58,0.55,0.83,0.29,0.48,0.61,0.56,0.48,0.25" style="fill:rgb(0,0,0);font-family:URWPalladioL-Roma;font-size:9.96px;stroke:none;">. The chain lengths ranged from 14 to 18 carbons. To the authors knowledge,</text>
   <text y="410.736" x="76.535,81.866,87.548,90.389,95.9666,98.102,107.338,112.669,118.351,123.233,131.854,136.531,142.60660000000001,144.791" svgx:width="0.55,0.58,0.29,0.56,0.55,0.95,0.55,0.58,0.5,0.88,0.48,0.61,0.55,0.33" style="fill:rgb(0,0,0);font-family:URWPalladioL-Roma;font-size:9.96px;stroke:none;">only Mohamed [</text>
   <text y="410.736" x="148.039,153.02" svgx:width="0.5,0.5" style="fill:rgb(8,117,183);font-family:URWPalladioL-Roma;font-size:9.96px;stroke:none;">31</text>
   <text y="410.736" x="158.002,161.253,163.743,166.027,173.701,177.841,180.682,189.303,194.185,199.867,202.75539999999998,204.993,209.67,212.9568,215.137,220.019,222.86,225.35000000000002,227.595" svgx:width="0.33,0.25,0.55,0.79,0.42,0.29,0.88,0.5,0.58,0.29,0.55,0.48,0.33,0.55,0.5,0.29,0.25,0.55,0.33" style="fill:rgb(0,0,0);font-family:URWPalladioL-Roma;font-size:9.96px;stroke:none;">], Osimani et al. [</text>
   <text y="410.736" x="230.843" svgx:width="0.5" style="fill:rgb(8,117,183);font-family:URWPalladioL-Roma;font-size:9.96px;stroke:none;">8</text>
   <text y="410.736" x="235.824,239.1108,241.36,246.241,251.924,257.9996,260.184,266.705,271.587,280.208,285.539,289.679,292.93,298.895,304.782,309.459,315.141,320.619,322.757,327.433,330.7198,332.901,337.783,340.624,343.11400000000003,345.359" svgx:width="0.33,0.55,0.5,0.58,0.61,0.55,0.67,0.5,0.88,0.55,0.42,0.33,0.61,0.6,0.48,0.58,0.55,0.55,0.48,0.33,0.55,0.5,0.29,0.25,0.55,0.33" style="fill:rgb(0,0,0);font-family:URWPalladioL-Roma;font-size:9.96px;stroke:none;">] and Ramos-Bueno et al. [</text>
   <text y="410.736" x="348.608,353.589" svgx:width="0.5,0.5" style="fill:rgb(8,117,183);font-family:URWPalladioL-Roma;font-size:9.96px;stroke:none;">32</text>
   <text y="410.736" x="358.571,361.85780000000005,364.107,369.789,374.671,380.187,384.9678,387.158,389.999,395.682,401.198,405.874,410.014,413.197,416.038,421.467,426.348,429.531,434.208" svgx:width="0.33,0.55,0.58,0.5,0.56,0.48,0.55,0.29,0.58,0.56,0.48,0.42,0.33,0.29,0.56,0.5,0.33,0.48,0.61" style="fill:rgb(0,0,0);font-family:URWPalladioL-Roma;font-size:9.96px;stroke:none;">] have investigated</text>
   <text y="410.736" x="442.458,447.886,450.37600000000003,452.612,460.208,462.922,467.804,471.602,475.937,479.188,483.523,487.321,490.035" svgx:width="0.56,0.25,0.55,0.78,0.28,0.5,0.39,0.44,0.33,0.44,0.39,0.28,0.44" style="fill:rgb(0,0,0);font-family:URWPalladioL-Ital;font-size:9.96px;stroke:none;">L. migratoria</text>
   <text y="410.736" x="494.373,496.863,499.831,507.427,511.6102,513.861" svgx:width="0.25,0.55,0.78,0.42,0.55,0.5" style="fill:rgb(0,0,0);font-family:URWPalladioL-Roma;font-size:9.96px;stroke:none;">. As a</text>
   <text y="424.246" x="76.535,81.963,86.64,92.322,96.999,100.855,105.737,108.6254,110.58,113.763,117.434,122.11,127.793,133.758,136.24800000000002,138.298,144.263,149.145,152.328,157.308,159.201,167.344,172.226,176.4092,178.367,182.702,188.032,193.715,197.854,200.696,204.835,208.018,212.695,218.377,221.6638,223.552,231.694,234.535,237.718,243.4948,245.402,251.309,256.991,262.956,265.798,271.48,276.908,281.048,283.538,285.578,293.721,296.562,299.745,305.5218,307.428,311.568,316.899,325.52,330.3008,332.188,338.154,340.995,344.07,347.321,351.998,355.679,360.355,366.038,370.373,375.049,379.2322,381.181,384.022,389.79879999999997,391.706,395.845,400.727,403.91,409.797,413.654,418.535,421.718,426.395,432.4706,434.352,437.603,442.485,445.668,448.851,454.4286,456.28,461.162,465.497,468.338,474.41360000000003,476.295,479.547,484.672,489.368,496.964,500.2508,502.207,507.089,512.771" svgx:width="0.56,0.48,0.58,0.48,0.4,0.5,0.29,0.55,0.33,0.4,0.48,0.58,0.61,0.25,0.55,0.61,0.5,0.33,0.5,0.55,0.83,0.5,0.42,0.55,0.44,0.55,0.58,0.42,0.29,0.42,0.33,0.48,0.58,0.33,0.55,0.83,0.29,0.33,0.58,0.55,0.61,0.58,0.61,0.29,0.58,0.56,0.42,0.25,0.55,0.83,0.29,0.33,0.58,0.55,0.42,0.55,0.88,0.48,0.55,0.61,0.29,0.33,0.33,0.48,0.4,0.48,0.58,0.44,0.48,0.42,0.55,0.29,0.58,0.55,0.42,0.5,0.33,0.6,0.4,0.5,0.33,0.48,0.61,0.55,0.33,0.5,0.33,0.33,0.56,0.55,0.5,0.44,0.29,0.61,0.55,0.33,0.52,0.56,0.78,0.33,0.55,0.5,0.58,0.61" style="fill:rgb(0,0,0);font-family:URWPalladioL-Roma;font-size:9.96px;stroke:none;">general trend, data was consistent with ﬁndings, with some differences in saturated fatty acid (SFA) and</text>
   <text y="437.755" x="76.236,82.104,87.435,90.276,95.704,101.591,107.274,111.413,116.295,119.478,125.365,129.222,134.103,137.286,141.963,148.0386,150.164,153.415,158.297,161.48,164.663,170.2406,172.327,177.209,181.543,184.385,190.4606,192.586,195.837,201.734,209.33,214.016,221.612,224.8988,227.099,231.434,236.765,242.447,245.63,250.307,255.989,259.172,263.3552,265.547,268.388,274.354,279.03,284.713,287.896,290.737,296.644,301.32,307.286,309.776,312.734,320.408,323.249,327.925,330.766,335.14840000000004,337.337,342.219,346.554,349.395,355.4706,357.596,360.437,364.6202,366.813,369.996,375.678,380.4588,382.59,391.211,396.542,400.682,403.96880000000004,406.1,410.982,416.381,422.268,427.951,433.916,438.798,444.48,447.76680000000005,449.899,454.585,464.417,470.382,475.713,480.048,485.935,494.556,499.233,504.915,508.098,512.775" svgx:width="0.6,0.55,0.29,0.56,0.6,0.58,0.42,0.5,0.33,0.6,0.4,0.5,0.33,0.48,0.61,0.55,0.33,0.5,0.33,0.33,0.56,0.55,0.5,0.44,0.29,0.61,0.55,0.33,0.6,0.78,0.56,0.78,0.33,0.55,0.44,0.55,0.58,0.33,0.48,0.58,0.33,0.42,0.55,0.29,0.61,0.48,0.58,0.33,0.29,0.61,0.48,0.61,0.25,0.55,0.79,0.29,0.48,0.29,0.44,0.55,0.5,0.44,0.29,0.61,0.55,0.29,0.42,0.55,0.33,0.58,0.48,0.55,0.88,0.55,0.42,0.33,0.55,0.5,0.55,0.6,0.58,0.61,0.5,0.58,0.33,0.55,0.56,0.78,0.61,0.55,0.44,0.6,0.88,0.48,0.58,0.33,0.48,0.61" style="fill:rgb(0,0,0);font-family:URWPalladioL-Roma;font-size:9.96px;stroke:none;">polyunsaturated fatty acid (PUFA) contents identiﬁed. Oleic acid is the most abundant FAdocumented</text>
   <text y="451.264" x="76.535,79.492,85.2688,89.583,98.556,101.513,107.163,111.177,116.258,119.57,125.119,129.133,134.7106,138.959,143.268,149.375,154.243,158.755,161.712,166.579,170.888,173.37800000000001,178.032,181.415,186.964,189.921,192.878,198.426,206.901,211.769,217.8446,222.154,227.774,233.3516,237.61,243.708,248.789,251.746,260.719,263.676,266.988,269.945,274.3274,278.644,283.725,288.237,291.194,297.403,299.89300000000003,304.536,307.494,312.361,317.442,323.651,326.608,332.522,338.0996,342.359,345.672,351.15000000000003,355.396,359.227,364.095,369.176,373.485,379.033,384.947,390.028,395.648,398.605,404.18260000000004,408.431,412.74,415.697,424.67,427.627,430.584,435.665,439.649,443.866,449.414,455.155,460.023,464.027,469.108,472.065,474.9534,479.208,484.543,489.452,497.2208,501.534,506.615,512.529" svgx:width="0.29,0.58,0.55,0.88,0.29,0.56,0.4,0.5,0.33,0.55,0.4,0.56,0.55,0.42,0.6,0.48,0.44,0.29,0.48,0.42,0.25,0.55,0.33,0.55,0.29,0.29,0.55,0.83,0.48,0.61,0.55,0.55,0.56,0.55,0.6,0.5,0.29,0.88,0.29,0.33,0.29,0.44,0.55,0.5,0.44,0.29,0.61,0.25,0.55,0.29,0.48,0.5,0.61,0.29,0.58,0.56,0.55,0.33,0.55,0.55,0.4,0.48,0.5,0.42,0.55,0.58,0.5,0.55,0.29,0.56,0.55,0.42,0.29,0.88,0.29,0.29,0.5,0.4,0.55,0.55,0.56,0.48,0.4,0.5,0.29,0.29,0.55,0.52,0.56,0.78,0.55,0.5,0.58,0.61" style="fill:rgb(0,0,0);font-family:URWPalladioL-Roma;font-size:9.96px;stroke:none;">in migratory species, followed by palmitic acid, leading to reasonably similar overall SFA and</text>
   <text y="464.774" x="76.535,85.875,93.556,98.305,106.0738,108.484,112.867,118.258,124.004,127.223,131.952,137.698,140.916,145.103" svgx:width="0.95,0.78,0.56,0.78,0.55,0.44,0.55,0.58,0.33,0.48,0.58,0.33,0.42,0.25" style="fill:rgb(0,0,0);font-family:URWPalladioL-Roma;font-size:9.96px;stroke:none;">MUFA contents.</text>
   <text y="464.774" x="150.655" svgx:width="0.66" style="fill:rgb(0,0,0);font-family:EURM10;font-size:9.96px;stroke:none;">α</text>
   <text y="464.774" x="157.215,160.503,163.376,166.249,171.995,177.385,180.258,184.988,190.734,193.607,197.9894,200.478,205.415,209.798,212.671,218.7466,221.192,224.479,229.87,238.588,243.317,248.806,253.743,257.03,261.967,265.2538,267.752,272.136,277.527,283.273,286.491,291.22,296.966,300.25280000000004,302.673,305.961,310.897,315.834,318.302,323.238,331.532,334.8188,337.307,340.18,345.9568,348.414,351.633,357.379,362.1598,364.606,370.54,374.262,378.991,383.177,387.906,393.652,396.9388,399.359,403.545,406.763,412.717,418.749,424.32660000000004,426.726,434.96,439.897,444.0802,446.571,454.805,457.678,460.897,466.643,469.516,475.2928,477.76,480.978,486.724,491.5048,493.941,497.841,502.778,508.524,514.013" svgx:width="0.33,0.29,0.29,0.58,0.55,0.29,0.48,0.58,0.29,0.44,0.55,0.5,0.44,0.29,0.61,0.55,0.33,0.55,0.88,0.48,0.56,0.5,0.33,0.5,0.33,0.55,0.44,0.55,0.58,0.33,0.48,0.58,0.33,0.55,0.33,0.5,0.5,0.25,0.5,0.84,0.33,0.55,0.29,0.58,0.55,0.33,0.58,0.48,0.55,0.6,0.4,0.48,0.42,0.48,0.58,0.33,0.55,0.42,0.33,0.6,0.61,0.56,0.55,0.83,0.5,0.42,0.55,0.83,0.29,0.33,0.58,0.29,0.58,0.55,0.33,0.58,0.48,0.55,0.4,0.5,0.58,0.56,0.48" style="fill:rgb(0,0,0);font-family:URWPalladioL-Roma;font-size:9.96px;stroke:none;">-linolenic acid (omega-3) content (15.7%) in the present study was within the range</text>
   <text y="478.283" x="76.535,79.408,85.44,90.17,95.916,99.134,102.007,107.98,112.709,118.7846,121.22,124.093,129.8698,132.317,135.19,138.063,141.282,146.011,149.911,154.847,158.066,164.019,167.741,172.5218,174.948,178.236,183.173,188.109,190.577,195.514,206.285,209.504,214.982,217.372,222.309,227.245,229.714,234.65,242.943,246.231,248.721,251.78,259.994,265.384,273.619,278.348,283.926,288.655,291.814,294.30400000000003,296.761,304.521,308.707,311.58,320.298,325.234,330.98,333.8684,336.331,341.061,344.3478,346.757,351.694,354.567,357.057,359.513" svgx:width="0.29,0.61,0.48,0.58,0.33,0.29,0.61,0.48,0.61,0.55,0.29,0.58,0.55,0.29,0.29,0.33,0.48,0.4,0.5,0.33,0.6,0.4,0.48,0.55,0.33,0.5,0.5,0.25,0.5,0.84,0.33,0.55,0.55,0.5,0.5,0.25,0.5,0.84,0.33,0.25,0.55,0.83,0.55,0.83,0.48,0.56,0.48,0.4,0.25,0.55,0.79,0.42,0.29,0.88,0.5,0.58,0.29,0.55,0.48,0.33,0.55,0.5,0.29,0.25,0.55,0.33" style="fill:rgb(0,0,0);font-family:URWPalladioL-Roma;font-size:9.96px;stroke:none;">identiﬁed in literature (13.9%to 16.2%). However, Osimani et al. [</text>
   <text y="478.283" x="362.804" svgx:width="0.5" style="fill:rgb(8,117,183);font-family:URWPalladioL-Roma;font-size:9.96px;stroke:none;">8</text>
   <text y="478.283" x="367.786,371.07280000000003,373.552,376.84,382.23,388.184,393.93,400.0056,402.44,406.626,409.499,414.989,420.735,423.608,429.581,433.964,438.901,444.647,447.865,450.738,456.3156,458.706,461.579,466.97,475.204,479.933,483.917,486.311,490.694,496.085,501.831,505.049,509.779,515.525" svgx:width="0.33,0.55,0.33,0.55,0.6,0.58,0.61,0.55,0.42,0.29,0.56,0.58,0.29,0.61,0.44,0.5,0.58,0.33,0.29,0.56,0.55,0.29,0.55,0.83,0.48,0.4,0.55,0.44,0.55,0.58,0.33,0.48,0.58,0.33" style="fill:rgb(0,0,0);font-family:URWPalladioL-Roma;font-size:9.96px;stroke:none;">] found signiﬁcantly lower content</text>
   <text y="491.793" x="76.207,79.525,84.506,92.874,96.1608,98.693,101.592,107.3688,109.881,118.189,123.988,129.427,132.326,137.1068,139.599,145.686,149.621,152.521,157.293,163.36860000000001,165.88,168.779,174.219,178.642,184.65,188.874,192.122,196.3052,198.837,203.061,208.5,214.508,218.264,222.687,227.459,233.5346,236.047,239.364,243.12,248.56,259.858,268.136,272.909,276.156,281.955,286.727,290.662,293.561,298.542,304.341,310.428,314.652,317.142,319.633,327.942,333.74,336.639,341.063,346.83979999999997,349.362,353.785,359.225,365.023,369.247,374.019,379.598,385.606,390.378,396.176,399.424,402.323,407.9006,410.363,413.262,418.034,423.015,429.102,433.2852,435.817,439.065,444.543,447.005,451.985,454.487,457.386,462.367,466.123,471.662,476.4428,478.935,484.564,489.545,493.481,496.37,501.351,504.599,507.498,512.938" svgx:width="0.33,0.5,0.84,0.33,0.55,0.29,0.58,0.55,0.83,0.58,0.55,0.29,0.48,0.55,0.61,0.4,0.29,0.48,0.61,0.55,0.29,0.55,0.44,0.6,0.42,0.33,0.42,0.55,0.42,0.55,0.6,0.4,0.44,0.48,0.61,0.55,0.33,0.4,0.55,0.88,0.83,0.48,0.33,0.58,0.48,0.4,0.29,0.5,0.58,0.61,0.42,0.25,0.55,0.83,0.58,0.29,0.44,0.58,0.55,0.44,0.55,0.58,0.42,0.48,0.56,0.6,0.48,0.58,0.33,0.29,0.56,0.55,0.29,0.48,0.5,0.61,0.42,0.55,0.33,0.55,0.55,0.5,0.55,0.29,0.5,0.4,0.56,0.48,0.55,0.56,0.5,0.4,0.29,0.5,0.33,0.29,0.55,0.58" style="fill:rgb(0,0,0);font-family:URWPalladioL-Roma;font-size:9.96px;stroke:none;">(3%) in whole dried locusts sourced fromNetherlands, which consequently leads to a large variation</text>
   <text y="505.302" x="76.535,79.492,85.2688,89.522,95.07,100.812,105.679,109.693,114.774,117.731,120.6194,124.804,130.942,138.847,143.766,151.5348,155.787,160.299,165.848,171.762,175.074,179.942,185.856,189.1428,193.285,198.833" svgx:width="0.29,0.58,0.55,0.55,0.56,0.48,0.4,0.5,0.29,0.29,0.55,0.6,0.78,0.56,0.78,0.55,0.44,0.55,0.58,0.33,0.48,0.58,0.33,0.55,0.55,0.33" style="fill:rgb(0,0,0);font-family:URWPalladioL-Roma;font-size:9.96px;stroke:none;">in overall PUFA content of</text>
   <text y="505.302" x="206.332,211.982,214.472,218.638,226.544,229.369,234.45,238.403,242.915,246.299,250.81,254.763,257.588" svgx:width="0.56,0.25,0.55,0.78,0.28,0.5,0.39,0.44,0.33,0.44,0.39,0.28,0.44" style="fill:rgb(0,0,0);font-family:URWPalladioL-Ital;font-size:9.96px;stroke:none;">L. migratoria</text>
   <text y="505.302" x="266.219,271.869,276.737,282.651,287.518,291.532,296.613,299.57,302.527,308.1046,312.294,315.612,321.051,327.059,332.857,338.93260000000004,341.435,344.334,350.1108,352.623,355.522,358.421,361.669,366.441,370.376,375.357,378.605,384.613,388.368,393.1488,395.631,398.949,403.93,408.911,411.402,416.383,427.243,430.49,435.968,438.421,443.402,448.383,450.874,455.855,464.224,467.541,470.031,474.148,483.761,489.309,493.141,498.008,503.556,509.298,514.165,517.448" svgx:width="0.56,0.48,0.58,0.48,0.4,0.5,0.29,0.29,0.56,0.55,0.33,0.55,0.6,0.58,0.61,0.55,0.29,0.58,0.55,0.29,0.29,0.33,0.48,0.4,0.5,0.33,0.6,0.4,0.48,0.55,0.33,0.5,0.5,0.25,0.5,0.84,0.33,0.55,0.55,0.5,0.5,0.25,0.5,0.84,0.33,0.25,0.55,0.95,0.55,0.4,0.48,0.55,0.56,0.48,0.4,0.25" style="fill:rgb(0,0,0);font-family:URWPalladioL-Roma;font-size:9.96px;stroke:none;">generally found in literature (12.5%to 32.3%). Moreover,</text>
   <text y="518.811" x="76.535,79.434,82.333,88.131,93.571,96.47,101.242,104.141,108.52340000000001,111.055,116.037,120.46,123.359,129.4346,131.937,135.255,140.694,149.491,154.263,159.802,164.784,168.101,173.083,176.3698,178.891,181.79,187.5668,190.079,193.327,199.125,203.9058,206.387,212.375,216.131,220.903,225.127,229.899,235.697,238.9838,241.436,245.66,248.908,254.915,261.002,266.5796,269.032,277.341,282.322,286.5052,289.037,294.019,296.918,301.142,306.62,309.072,317.381,320.28,323.528,329.326,332.225,338.0018,340.514,343.762,349.56,354.3408,356.823,360.758,365.739,371.538,377.077,381.8578,384.34,389.779,393.0658,395.587,400.569,403.059,408.041,418.9,422.148,427.62600000000003,430.078,435.059,440.04,442.531,447.512,458.372" svgx:width="0.29,0.29,0.58,0.55,0.29,0.48,0.29,0.44,0.55,0.5,0.44,0.29,0.61,0.55,0.33,0.55,0.88,0.48,0.56,0.5,0.33,0.5,0.33,0.55,0.29,0.58,0.55,0.33,0.58,0.48,0.55,0.6,0.4,0.48,0.42,0.48,0.58,0.33,0.55,0.42,0.33,0.6,0.61,0.56,0.55,0.83,0.5,0.42,0.55,0.5,0.29,0.42,0.55,0.55,0.83,0.29,0.33,0.58,0.29,0.58,0.55,0.33,0.58,0.48,0.55,0.4,0.5,0.58,0.56,0.48,0.55,0.55,0.33,0.55,0.5,0.25,0.5,0.84,0.33,0.55,0.55,0.5,0.5,0.25,0.5,0.84,0.33" style="fill:rgb(0,0,0);font-family:URWPalladioL-Roma;font-size:9.96px;stroke:none;">linoleic acid (omega-6) in the present study was also within the range of 5.2%to 18.3%[</text>
   <text y="518.811" x="461.689" svgx:width="0.5" style="fill:rgb(8,117,183);font-family:URWPalladioL-Roma;font-size:9.96px;stroke:none;">8</text>
   <text y="518.811" x="466.67" svgx:width="0.25" style="fill:rgb(0,0,0);font-family:URWPalladioL-Roma;font-size:9.96px;stroke:none;">,</text>
   <text y="518.811" x="469.161,474.142" svgx:width="0.5,0.5" style="fill:rgb(8,117,183);font-family:URWPalladioL-Roma;font-size:9.96px;stroke:none;">31</text>
   <text y="518.811" x="479.124" svgx:width="0.25" style="fill:rgb(0,0,0);font-family:URWPalladioL-Roma;font-size:9.96px;stroke:none;">,</text>
   <text y="518.811" x="481.614,486.596" svgx:width="0.5,0.5" style="fill:rgb(8,117,183);font-family:URWPalladioL-Roma;font-size:9.96px;stroke:none;">32</text>
   <text y="518.811" x="491.577,494.894" svgx:width="0.33,0.25" style="fill:rgb(0,0,0);font-family:URWPalladioL-Roma;font-size:9.96px;stroke:none;">].</text>
   <text y="543.548" x="203.963,208.948,213.432,218.91,221.896,226.381,228.621,233.104" svgx:width="0.67,0.5,0.61,0.33,0.5,0.55,0.5,0.25" style="fill:rgb(0,0,0);font-family:URWPalladioL-Bold;font-size:8.97px;stroke:none;">Table 2.</text>
   <text y="543.548" x="238.124,243.109,247.593,250.516,253.439,258.4622,260.666,265.149,269.13,271.739,277.2107,279.459,283.44,288.336,296.253,301.642,306.538,310.339,312.949,315.872,318.481,323.377,328.5796,330.837,335.732" svgx:width="0.56,0.5,0.33,0.33,0.56,0.55,0.5,0.44,0.29,0.61,0.55,0.44,0.55,0.88,0.6,0.55,0.42,0.29,0.33,0.29,0.55,0.58,0.55,0.55,0.33" style="fill:rgb(0,0,0);font-family:URWPalladioL-Roma;font-size:8.97px;stroke:none;">Fatty acid composition of</text>
   <text y="543.548" x="340.958,345.943,348.1855,350.427,357.402,359.895,364.378,367.866,371.847,374.833,378.814,382.302,384.795,388.776" svgx:width="0.56,0.25,0.55,0.78,0.28,0.5,0.39,0.44,0.33,0.44,0.39,0.28,0.44,0.25" style="fill:rgb(0,0,0);font-family:URWPalladioL-Ital;font-size:8.97px;stroke:none;">L. migratoria.</text>
  </g>
  <path style="fill:none;stroke:rgb(0,0,0);stroke-width:1.0;" d="M177.340 557.760 L417.940 557.760 "/>
  <g begin="text">
   <text y="568.612" x="216.442,221.427,225.911,228.896,231.882,236.9052,239.109,246.085,250.066,253.052,258.5237,324.989,333.956,338.439,342.922" svgx:width="0.56,0.5,0.33,0.33,0.56,0.55,0.78,0.44,0.33,0.61,0.55,1.0,0.5,0.5,0.61" style="fill:rgb(0,0,0);font-family:URWPalladioL-Bold;font-size:8.97px;stroke:none;">Fatty Acid Mean</text>
   <text y="568.612" x="350.751" svgx:width="0.89" style="fill:rgb(0,0,0);font-family:CMBSY10;font-size:9.34px;stroke:none;">±</text>
   <text y="568.612" x="361.461,366.939,374.38410000000005,376.65,379.636,387.607" svgx:width="0.61,0.83,0.55,0.33,0.89,0.33" style="fill:rgb(0,0,0);font-family:URWPalladioL-Bold;font-size:8.97px;stroke:none;">SD (%)</text>
  </g>
  <path style="fill:none;stroke:rgb(0,0,0);stroke-width:0.8;" d="M177.340 573.820 L417.940 573.820 "/>
  <g begin="text">
   <text y="584.423" x="205.889,214.371,219.357,222.898,225.507,229.309,232.232,234.842,238.7888,241.064,244.05,250.407,254.89,259.374,261.615,266.098,269.0581,336.117,340.6,342.842,347.325" svgx:width="0.95,0.56,0.4,0.29,0.42,0.33,0.29,0.44,0.55,0.33,0.71,0.5,0.5,0.25,0.5,0.33,0.55,0.5,0.25,0.5,0.5" style="fill:rgb(0,0,0);font-family:URWPalladioL-Roma;font-size:8.97px;stroke:none;">Myristic (C14:0) 2.69</text>
   <text y="584.423" x="354.158" svgx:width="0.78" style="fill:rgb(0,0,0);font-family:CMSY10;font-size:9.34px;stroke:none;">±</text>
   <text y="584.423" x="363.774,368.257,370.499,374.982" svgx:width="0.5,0.25,0.5,0.5" style="fill:rgb(0,0,0);font-family:URWPalladioL-Roma;font-size:8.97px;stroke:none;">0.90</text>
   <text y="595.431" x="206.082,211.498,215.981,218.59,226.507,229.117,232.04,234.649,238.5958,240.872,243.857,250.215,254.698,259.181,261.423,265.906,268.8661,333.871,338.354,342.838,345.079,349.562" svgx:width="0.6,0.5,0.29,0.88,0.29,0.33,0.29,0.44,0.55,0.33,0.71,0.5,0.5,0.25,0.5,0.33,0.55,0.5,0.5,0.25,0.5,0.5" style="fill:rgb(0,0,0);font-family:URWPalladioL-Roma;font-size:8.97px;stroke:none;">Palmitic (C16:0) 27.30</text>
   <text y="595.431" x="356.4" svgx:width="0.78" style="fill:rgb(0,0,0);font-family:CMSY10;font-size:9.34px;stroke:none;">±</text>
   <text y="595.431" x="366.016,370.499,372.741,377.224" svgx:width="0.5,0.25,0.5,0.5" style="fill:rgb(0,0,0);font-family:URWPalladioL-Roma;font-size:8.97px;stroke:none;">1.53</text>
   <text y="606.44" x="200.182,205.598,210.081,212.69,220.607,223.217,226.14,231.035,233.645,237.94,240.549,244.4958,246.771,249.757,256.114,260.598,265.081,267.322,271.806,274.7661,336.113,340.596,342.837,347.321" svgx:width="0.6,0.5,0.29,0.88,0.29,0.33,0.55,0.29,0.48,0.29,0.44,0.55,0.33,0.71,0.5,0.5,0.25,0.5,0.33,0.55,0.5,0.25,0.5,0.5" style="fill:rgb(0,0,0);font-family:URWPalladioL-Roma;font-size:8.97px;stroke:none;">Palmitoleic (C16:1) 1.17</text>
   <text y="606.44" x="354.158" svgx:width="0.78" style="fill:rgb(0,0,0);font-family:CMSY10;font-size:9.34px;stroke:none;">±</text>
   <text y="606.44" x="363.774,368.257,370.499,374.982" svgx:width="0.5,0.25,0.5,0.5" style="fill:rgb(0,0,0);font-family:URWPalladioL-Roma;font-size:8.97px;stroke:none;">0.14</text>
   <text y="617.449" x="209.086,213.793,216.716,221.011,225.495,229.036,231.645,235.5918,237.868,240.854,247.211,251.694,256.178,258.419,262.902,265.8621,336.113,340.596,342.838,347.321" svgx:width="0.52,0.33,0.48,0.5,0.4,0.29,0.44,0.55,0.33,0.71,0.5,0.5,0.25,0.5,0.33,0.55,0.5,0.25,0.5,0.5" style="fill:rgb(0,0,0);font-family:URWPalladioL-Roma;font-size:8.97px;stroke:none;">Stearic (C18:0) 7.23</text>
   <text y="617.449" x="354.158" svgx:width="0.78" style="fill:rgb(0,0,0);font-family:CMSY10;font-size:9.34px;stroke:none;">±</text>
   <text y="617.449" x="363.774,368.257,370.499,374.982" svgx:width="0.5,0.25,0.5,0.5" style="fill:rgb(0,0,0);font-family:URWPalladioL-Roma;font-size:8.97px;stroke:none;">0.99</text>
   <text y="628.458" x="205.244,212.292,214.901,219.196,221.805,225.7518,228.028,231.013,237.371,241.854,246.337,248.579,253.062,258.28,262.763,266.745,269.7051,333.876,338.359,342.842,345.084,349.567" svgx:width="0.79,0.29,0.48,0.29,0.44,0.55,0.33,0.71,0.5,0.5,0.25,0.5,0.58,0.5,0.44,0.33,0.55,0.5,0.5,0.25,0.5,0.5" style="fill:rgb(0,0,0);font-family:URWPalladioL-Roma;font-size:8.97px;stroke:none;">Oleic (C18:1n9c) 37.02</text>
   <text y="628.458" x="356.4" svgx:width="0.78" style="fill:rgb(0,0,0);font-family:CMSY10;font-size:9.34px;stroke:none;">±</text>
   <text y="628.458" x="366.016,370.499,372.741,377.224" svgx:width="0.5,0.25,0.5,0.5" style="fill:rgb(0,0,0);font-family:URWPalladioL-Roma;font-size:8.97px;stroke:none;">0.67</text>
   <text y="639.466" x="199.667,205.145,207.755,212.973,217.869,220.478,224.773,227.382,231.3288,233.605,236.591,242.948,247.431,251.914,254.156,258.639,263.857,268.341,272.322,275.2821,336.118,340.601,342.842,347.326" svgx:width="0.61,0.29,0.58,0.55,0.29,0.48,0.29,0.44,0.55,0.33,0.71,0.5,0.5,0.25,0.5,0.58,0.5,0.44,0.33,0.55,0.5,0.25,0.5,0.5" style="fill:rgb(0,0,0);font-family:URWPalladioL-Roma;font-size:8.97px;stroke:none;">Linoleic (C18:2n6c) 8.94</text>
   <text y="639.466" x="354.158" svgx:width="0.78" style="fill:rgb(0,0,0);font-family:CMSY10;font-size:9.34px;stroke:none;">±</text>
   <text y="639.466" x="363.774,368.257,370.499,374.982" svgx:width="0.5,0.25,0.5,0.5" style="fill:rgb(0,0,0);font-family:URWPalladioL-Roma;font-size:8.97px;stroke:none;">0.59</text>
   <text y="650.475" x="192.613" svgx:width="0.66" style="fill:rgb(0,0,0);font-family:EURM10;font-size:8.97px;stroke:none;">α</text>
   <text y="650.475" x="198.516,201.502,206.98,209.59,214.808,219.704,222.313,226.608,231.826,234.435,238.3818,240.658,243.644,250.001,254.484,258.967,261.209,265.692,270.911,275.394,279.375,282.3351,333.873,338.356,342.839,345.081,349.564" svgx:width="0.33,0.61,0.29,0.58,0.55,0.29,0.48,0.58,0.29,0.44,0.55,0.33,0.71,0.5,0.5,0.25,0.5,0.58,0.5,0.44,0.33,0.55,0.5,0.5,0.25,0.5,0.5" style="fill:rgb(0,0,0);font-family:URWPalladioL-Roma;font-size:8.97px;stroke:none;">-Linolenic (C18:3n3c) 15.64</text>
   <text y="650.475" x="356.4" svgx:width="0.78" style="fill:rgb(0,0,0);font-family:CMSY10;font-size:9.34px;stroke:none;">±</text>
   <text y="650.475" x="366.016,370.499,372.741,377.224" svgx:width="0.5,0.25,0.5,0.5" style="fill:rgb(0,0,0);font-family:URWPalladioL-Roma;font-size:8.97px;stroke:none;">2.68</text>
   <text y="661.484" x="218.572,223.244,228.139,231.062,235.545,238.1463,240.396,245.104,249.425,256.4216,347.706,352.189,356.673,358.914,363.397" svgx:width="0.61,0.55,0.33,0.5,0.29,0.55,0.52,0.56,0.78,0.55,0.5,0.5,0.25,0.5,0.5" style="fill:rgb(0,0,0);font-family:URWPalladioL-Roma;font-size:8.97px;stroke:none;">Total SFA 37.22</text>
   <text y="672.493" x="213.197,217.869,222.764,225.687,230.17,232.7713,235.021,243.503,250.479,254.801,261.7976,333.876,338.359,342.842,345.084,349.567" svgx:width="0.61,0.55,0.33,0.5,0.29,0.55,0.95,0.78,0.56,0.78,0.55,0.5,0.5,0.25,0.5,0.5" style="fill:rgb(0,0,0);font-family:URWPalladioL-Roma;font-size:8.97px;stroke:none;">Total MUFA 38.49</text>
   <text y="672.493" x="356.4" svgx:width="0.78" style="fill:rgb(0,0,0);font-family:CMSY10;font-size:9.34px;stroke:none;">±</text>
   <text y="672.493" x="366.016,370.499,372.741,377.224" svgx:width="0.5,0.25,0.5,0.5" style="fill:rgb(0,0,0);font-family:URWPalladioL-Roma;font-size:8.97px;stroke:none;">1.09</text>
   <text y="683.501" x="214.73,219.402,224.297,227.22,231.703,234.3043,236.554,241.97,248.946,253.268,260.2646,333.876,338.359,342.842,345.084,349.567" svgx:width="0.61,0.55,0.33,0.5,0.29,0.55,0.6,0.78,0.56,0.78,0.55,0.5,0.5,0.25,0.5,0.5" style="fill:rgb(0,0,0);font-family:URWPalladioL-Roma;font-size:8.97px;stroke:none;">Total PUFA 24.57</text>
   <text y="683.501" x="356.4" svgx:width="0.78" style="fill:rgb(0,0,0);font-family:CMSY10;font-size:9.34px;stroke:none;">±</text>
   <text y="683.501" x="366.016,370.499,372.741,377.224" svgx:width="0.5,0.25,0.5,0.5" style="fill:rgb(0,0,0);font-family:URWPalladioL-Roma;font-size:8.97px;stroke:none;">3.27</text>
   <text y="694.51" x="217.631,222.338,226.66,233.636,239.07,246.046,250.367,257.3636,349.948,354.431,356.673,361.156" svgx:width="0.52,0.56,0.78,0.61,0.78,0.56,0.78,0.55,0.5,0.25,0.5,0.5" style="fill:rgb(0,0,0);font-family:URWPalladioL-Roma;font-size:8.97px;stroke:none;">SFA/UFA 0.58</text>
   <text y="705.519" x="216.465" svgx:width="0.83" style="fill:rgb(0,0,0);font-family:URWPalladioL-Roma;font-size:8.97px;stroke:none;">N</text>
   <text y="705.519" x="224.028" svgx:width="0.78" style="fill:rgb(0,0,0);font-family:CMSY10;font-size:9.34px;stroke:none;">−</text>
   <text y="705.519" x="231.403,235.886,241.32" svgx:width="0.5,0.61,0.58" style="fill:rgb(0,0,0);font-family:URWPalladioL-Roma;font-size:8.97px;stroke:none;">6/n</text>
   <text y="705.519" x="246.65" svgx:width="0.78" style="fill:rgb(0,0,0);font-family:CMSY10;font-size:9.34px;stroke:none;">−</text>
   <text y="705.519" x="254.025,258.51,349.948,354.431,356.672,361.156" svgx:width="0.5,0.55,0.5,0.25,0.5,0.5" style="fill:rgb(0,0,0);font-family:URWPalladioL-Roma;font-size:8.97px;stroke:none;">3 0.55</text>
  </g>
  <path style="fill:none;stroke:rgb(0,0,0);stroke-width:0.3;" d="M177.340 710.970 L417.940 710.970 "/>
  <g begin="text">
   <text y="720.036" x="97.795,101.896,105.653,113.245,115.846,119.157,123.063,125.609,130.319,133.404,137.309,139.856,143.597,149.892,152.493,156.399,158.945,161.491,165.95420000000001,167.357,171.262,174.73,177.003,181.776,184.377,186.36950000000002,188.563,194.101,198.006,201.912,203.864,207.77,215.58,222.969,227.312,230.397,232.67,235.982,238.528,240.801,244.3078,245.792,249.697,253.165,255.438,260.211,262.2035,263.843,269.38,273.286,277.191,279.144,283.049,290.86,295.554,299.459,301.732,308.629,310.902,313.448,315.721,319.2278,320.704,324.61,328.078,330.351,335.123,337.1155,338.755,344.293,348.198,352.103,354.056,357.961,365.772,369.084,371.63,375.372,379.277,382.362,384.635,388.1418,389.626,393.531,396.999,399.272,404.045,406.0375,408.309,415.698,421.775,425.532,433.132,435.733,442.629,446.894,451.44,455.705,460.414,464.96,468.272,472.177,474.716,479.426,482.511,486.416,488.962,492.704" svgx:width="0.52,0.56,0.78,0.33,0.42,0.5,0.33,0.6,0.4,0.5,0.33,0.48,0.61,0.33,0.5,0.33,0.33,0.56,0.55,0.5,0.44,0.29,0.61,0.33,0.25,0.55,0.71,0.5,0.5,0.25,0.5,1.0,0.95,0.56,0.4,0.29,0.42,0.33,0.29,0.44,0.55,0.5,0.44,0.29,0.61,0.25,0.55,0.71,0.5,0.5,0.25,0.5,1.0,0.6,0.5,0.29,0.88,0.29,0.33,0.29,0.44,0.55,0.5,0.44,0.29,0.61,0.25,0.55,0.71,0.5,0.5,0.25,0.5,1.0,0.42,0.33,0.48,0.5,0.4,0.29,0.44,0.55,0.5,0.44,0.29,0.61,0.25,0.55,0.95,0.78,0.56,0.78,0.33,0.88,0.55,0.58,0.55,0.6,0.58,0.42,0.5,0.33,0.6,0.4,0.5,0.33,0.48,0.61" style="fill:rgb(0,0,0);font-family:URWPalladioL-Roma;font-size:7.97px;stroke:none;">SFA(saturatedfatty acid): C14:0—Myristic acid; C16:0—palmitic acid; C18:0—stearic acid. MUFA(monounsaturated</text>
   <text y="729.501" x="97.795,100.433,104.394,106.977,109.56,114.0232,115.849,119.691,123.09,125.277,129.998,132.517,134.5095,136.811,142.309,146.152,149.994,151.856,155.698,163.501,168.144,170.331,174.173,181.049,183.236,185.7,189.906,192.093,195.769,197.955,201.4618,203.295,207.137,210.536,212.723,217.444,219.4365,221.255,226.753,230.595,234.438,236.299,240.142,244.634,248.476,251.874,259.678,263.885,266.071,269.747,271.934,275.4408,277.281,281.124,284.522,286.709,291.43,293.4225,295.724,300.391,306.435,310.135,318.121,320.64,325.282,329.489,331.676,335.962,340.62,345.112,348.352,352.194,354.658,359.316,362.327,366.169,368.633,372.309,377.1707,378.972,381.491,385.333,387.797,390.261,394.7242,396.496,400.338,403.737,405.923,410.645,413.164,415.1565,417.458,422.956,426.798,430.641,432.503,436.345,440.837,444.679,448.078,455.881,458.068,460.254,464.746,468.953,471.139,474.815,477.002,480.5088,482.342,486.184,489.583,491.769,496.491" svgx:width="0.33,0.5,0.33,0.33,0.56,0.55,0.5,0.44,0.29,0.61,0.33,0.25,0.55,0.71,0.5,0.5,0.25,0.5,1.0,0.6,0.29,0.5,0.88,0.29,0.33,0.55,0.29,0.48,0.29,0.44,0.55,0.5,0.44,0.29,0.61,0.25,0.55,0.71,0.5,0.5,0.25,0.5,0.58,0.5,0.44,1.0,0.55,0.29,0.48,0.29,0.44,0.55,0.5,0.44,0.29,0.61,0.25,0.55,0.6,0.78,0.56,0.78,0.33,0.6,0.55,0.29,0.56,0.6,0.58,0.42,0.5,0.33,0.6,0.4,0.5,0.33,0.48,0.61,0.55,0.33,0.5,0.33,0.33,0.56,0.55,0.5,0.44,0.29,0.61,0.33,0.25,0.55,0.71,0.5,0.5,0.25,0.5,0.58,0.5,0.44,1.0,0.29,0.29,0.58,0.55,0.29,0.48,0.29,0.44,0.55,0.5,0.44,0.29,0.61,0.25" style="fill:rgb(0,0,0);font-family:URWPalladioL-Roma;font-size:7.97px;stroke:none;">fatty acid): C16:1—plamitoleic acid; C18:1n9c—oleic acid. PUFA(polyunsaturated fatty acid): C18:2n6c—linoleic acid;</text>
   <text y="738.965" x="97.795,103.446,107.431,111.416,113.408,117.393,122.032,126.017" svgx:width="0.71,0.5,0.5,0.25,0.5,0.58,0.5,1.0" style="fill:rgb(0,0,0);font-family:URWPalladioL-Roma;font-size:7.97px;stroke:none;">C18:2n3—</text>
   <text y="738.965" x="133.987" svgx:width="0.66" style="fill:rgb(0,0,0);font-family:EURM10;font-size:7.97px;stroke:none;">α</text>
   <text y="738.965" x="139.235,141.889,144.208,146.528,151.166,155.518,157.837,161.655,166.293,168.613,172.1198,174.144,178.129,181.668,183.987,188.857,190.8495,193.32,199.521,203.362,209.5786,211.556,214.21,219.016,223.654,227.034,231.019,233.617,238.423,241.571,245.556,248.154,251.972,256.8337,258.834,261.488,265.473,268.072,270.67,275.1332,277.094,281.079,284.618,286.937,291.807,295.186,297.84,299.8325,302.303,309.843,316.044,319.885,326.10159999999996,328.079,332.9407,334.901,339.715,345.916,349.757,355.958" svgx:width="0.33,0.29,0.29,0.58,0.55,0.29,0.48,0.58,0.29,0.44,0.55,0.5,0.44,0.29,0.61,0.25,0.55,0.78,0.56,0.78,0.55,0.33,0.6,0.58,0.42,0.5,0.33,0.6,0.4,0.5,0.33,0.48,0.61,0.55,0.33,0.5,0.33,0.33,0.56,0.55,0.5,0.44,0.29,0.61,0.42,0.33,0.25,0.55,0.95,0.78,0.56,0.78,0.55,0.61,0.55,0.6,0.78,0.56,0.78,0.25" style="fill:rgb(0,0,0);font-family:URWPalladioL-Roma;font-size:7.97px;stroke:none;">-linolenic acid. UFA (unsaturated fatty acids): MUFA + PUFA.</text>
  </g>
 </g>
</svg>
