<?xml version="1.0" encoding="UTF-8"?>
<svg height="809.37" width="4486.363" xmlns="http://www.w3.org/2000/svg">
 <g id="page" xmlns:svgx="http://www.xml-cml.org/schema/svgx">
  <g begin="text">
   <text y="72.748" x="115.239,122.244,136.254,146.056,157.244,168.432,175.436" svgx:width="0.28,0.56,0.39,0.44,0.44,0.28,0.39" style="fill:rgb(55,89,43);font-family:TimesNewRomanPS-BoldItalicMT;font-size:25.2px;stroke:none;">insects</text>
  </g>
  <path style="fill:rgb(124,167,106);stroke:none;stroke-width:1.0;" d="M85.620 55.590 C85.310 55.790 84.510 56.170 84.200 56.430 C84.020 56.600 83.830 56.770 83.660 56.950 C83.290 57.340 82.960 57.770 82.710 58.230 C82.400 58.840 82.220 59.510 82.300 60.220 C82.380 61.040 82.910 61.750 83.530 62.310 C84.380 63.090 84.820 62.930 84.820 64.240 C84.840 67.160 84.370 69.510 85.660 72.170 C86.340 73.570 87.240 76.270 89.050 76.680 C91.420 77.230 91.260 71.950 91.260 70.370 C91.280 71.110 91.950 71.620 92.640 71.860 C93.070 72.010 93.520 71.870 93.880 72.070 C94.080 72.180 94.350 72.770 94.640 72.950 C95.230 73.300 95.920 73.250 96.600 73.010 C96.880 72.910 97.160 72.770 97.420 72.610 C97.660 72.470 98.160 72.200 98.370 72.030 C98.720 71.760 98.740 71.570 98.960 71.300 C99.050 71.180 99.130 71.070 99.190 70.970 "/>
  <path style="fill:rgb(124,167,106);stroke:none;stroke-width:1.0;" d="M82.800 58.280 C83.650 57.500 84.010 56.090 85.370 55.590 C85.760 55.450 86.340 55.220 86.740 55.150 C86.950 55.120 87.160 55.110 87.380 55.140 C88.220 55.220 88.940 55.760 89.520 56.370 C90.310 57.220 90.150 57.660 91.480 57.670 C94.460 57.680 96.870 57.210 99.570 58.500 C101.000 59.180 103.760 60.080 104.180 61.890 C104.740 64.270 99.350 64.100 97.730 64.100 C98.490 64.130 99.010 64.790 99.260 65.480 C99.410 65.910 99.270 66.360 99.480 66.720 C99.580 66.920 100.190 67.190 100.370 67.490 C100.760 68.130 100.530 69.160 99.830 70.260 C99.470 70.840 98.970 71.450 98.370 72.030 "/>
  <path style="fill:rgb(55,89,43);stroke:none;stroke-width:1.0;" d="M99.940 66.100 L93.460 72.420 L93.020 71.970 L99.500 65.650 L99.940 66.100 "/>
  <path style="fill:rgb(55,89,43);stroke:none;stroke-width:1.0;" d="M97.510 65.520 L92.780 70.070 L92.350 69.620 L97.080 65.060 L97.510 65.520 "/>
  <path style="fill:rgb(55,89,43);stroke:none;stroke-width:1.0;" d="M95.090 65.050 L92.370 67.710 L91.930 67.260 L94.650 64.600 L95.090 65.050 "/>
  <rect style="stroke:blue;stroke-width:0.3;" x="476.363" y="13.209" height="27.476" width="41.6" title="1"/>
  <text y="13.209" class="image" id="image.1.1" width="41" height="27" x="476.363">image.1.1.476_518.13_41</text>
  <rect style="stroke:blue;stroke-width:0.3;" x="476.363" y="13.209" height="27.476" width="41.6" title="1"/>
  <text y="13.209" class="image" id="image.1.2" width="41" height="27" x="476.363">image.1.2.476_518.13_41</text>
  <rect style="stroke:blue;stroke-width:0.3;" x="476.363" y="13.209" height="27.476" width="41.6" title="1"/>
  <text y="13.209" class="image" id="image.1.3" width="41" height="27" x="476.363">image.1.3.476_518.13_41</text>
  <rect style="stroke:blue;stroke-width:0.3;" x="476.363" y="13.209" height="27.476" width="41.6" title="1"/>
  <text y="13.209" class="image" id="image.1.4" width="41" height="27" x="476.363">image.1.4.476_518.13_41</text>
  <g begin="text">
   <text y="108.46" x="76.177,83.37,87.245,90.563,93.333,97.387,100.157" svgx:width="0.72,0.39,0.33,0.28,0.41,0.28,0.39" style="fill:rgb(0,0,0);font-family:URWPalladioL-Ital;font-size:9.96px;stroke:none;">Article</text>
   <text y="127.727" x="76.535,87.492,97.463,103.434,112.401,123.358,129.329,135.301,144.267,150.1839,154.722,164.693,171.68570000000003,176.152,187.109,196.075,202.047,209.023,217.989,225.951,231.923,240.889" svgx:width="0.61,0.56,0.33,0.5,0.61,0.33,0.33,0.5,0.33,0.55,0.56,0.39,0.55,0.61,0.5,0.33,0.39,0.5,0.44,0.33,0.5,0.61" style="fill:rgb(0,0,0);font-family:URWPalladioL-Bold;font-size:17.93px;stroke:none;">Potential of Extracted</text>
   <text y="127.727" x="256.328,267.285,277.256,285.218,295.188,303.151,310.126,320.16679999999997,324.58,341.509,347.48,356.447,363.423,373.393,380.369,390.34,397.316,403.287" svgx:width="0.61,0.56,0.44,0.56,0.44,0.39,0.56,0.55,0.94,0.33,0.5,0.39,0.56,0.39,0.56,0.39,0.33,0.56" style="fill:rgb(0,0,0);font-family:URWPalladioL-BoldItal;font-size:17.93px;stroke:none;">Locusta Migratoria</text>
   <text y="127.727" x="417.739,428.696,435.672,445.642,451.614,460.58,466.552" svgx:width="0.61,0.39,0.56,0.33,0.5,0.33,0.61" style="fill:rgb(0,0,0);font-family:URWPalladioL-Bold;font-size:17.93px;stroke:none;">Protein</text>
   <text y="147.991" x="76.535,86.506,93.481,102.448,110.41,116.382,122.353,132.324,143.281,151.1702,155.726,164.693,172.5822,177.138,189.099,198.066,204.037,214.994,223.961,229.932,243.884,254.841,265.798,274.764,285.7013,290.204,297.18,308.137,318.108,325.084,334.05,345.007,350.979,359.945,370.902,376.874" svgx:width="0.56,0.39,0.5,0.44,0.33,0.33,0.56,0.61,0.44,0.55,0.5,0.44,0.55,0.78,0.5,0.33,0.61,0.5,0.33,0.78,0.61,0.61,0.5,0.61,0.55,0.39,0.61,0.56,0.39,0.5,0.61,0.33,0.5,0.61,0.33,0.44" style="fill:rgb(0,0,0);font-family:URWPalladioL-Bold;font-size:17.93px;stroke:none;">Fractions as Value-Added Ingredients</text>
   <text y="178.877" x="76.535,83.728,87.046,92.027,98.114,104.201,107.519,112.49900000000001,114.991,122.184,125.501,130.482,134.358,140.445,144.868,150.408" svgx:width="0.72,0.33,0.5,0.61,0.61,0.33,0.5,0.55,0.72,0.33,0.5,0.39,0.61,0.44,0.56,0.61" style="fill:rgb(0,0,0);font-family:URWPalladioL-Bold;font-size:9.96px;stroke:none;">Claudia Clarkson</text>
  </g>
  <path style="fill:rgb(166,206,57);stroke:none;stroke-width:1.0;" d="M488.210 73.600 L488.210 67.020 L486.500 73.600 L484.720 73.600 L482.960 67.020 L482.960 73.600 L480.840 73.600 L480.840 64.400 L484.520 64.400 L485.850 69.290 L487.120 64.400 L490.820 64.400 L490.820 73.600 L488.210 73.600 M499.310 72.310 C498.490 73.170 497.420 73.600 496.110 73.600 L492.400 73.600 L492.400 64.400 L495.940 64.400 C497.480 64.400 498.630 64.860 499.390 65.780 C500.160 66.700 500.540 67.750 500.540 68.960 C500.540 70.330 500.130 71.450 499.310 72.310 M497.180 67.220 C496.890 66.730 496.480 66.490 495.950 66.490 L495.210 66.490 L495.210 71.480 L495.950 71.480 C496.410 71.480 496.800 71.250 497.120 70.800 C497.440 70.350 497.600 69.730 497.600 68.950 C497.600 68.280 497.460 67.700 497.180 67.220 M508.610 69.450 C508.000 69.980 507.190 70.250 506.170 70.250 L504.580 70.250 L504.580 73.600 L501.730 73.600 L501.730 64.400 L505.650 64.400 C506.620 64.400 507.360 64.520 507.870 64.740 C508.380 64.970 508.780 65.310 509.080 65.770 C509.380 66.230 509.530 66.750 509.530 67.330 C509.530 68.200 509.220 68.910 508.610 69.450 M505.580 66.490 L504.550 66.490 L504.550 68.290 L505.490 68.290 C506.310 68.290 506.730 67.980 506.730 67.360 C506.730 66.780 506.350 66.490 505.580 66.490 M510.570 73.600 L510.570 64.400 L513.380 64.400 L513.380 73.600 L510.570 73.600 M476.380 82.540 L517.930 82.540 L517.930 55.150 L476.380 55.150 ZM517.090 75.980 L517.090 62.890 L517.780 62.410 L517.780 76.450 L517.090 75.980 M507.150 82.560 L507.160 81.750 L517.110 75.980 L517.780 76.440 L507.150 82.560 M496.570 76.420 L497.230 75.950 L507.170 81.750 L507.170 82.560 L496.570 76.420 M515.980 75.580 L507.450 80.510 L507.460 79.700 L515.980 74.790 L515.980 75.580 M476.380 82.540 L517.930 82.540 L517.930 55.150 L476.380 55.150 ZM477.260 75.030 L476.560 75.500 L476.560 61.460 L477.260 61.930 L477.260 75.030 M487.180 56.150 L477.230 61.920 L476.560 61.460 L487.190 55.340 L487.180 56.150 M497.110 61.950 L487.170 56.150 L487.170 55.340 L497.770 61.490 L497.110 61.950 M486.880 58.200 L478.360 63.120 L478.370 62.330 L486.890 57.390 L486.880 58.200 M476.380 82.540 L517.930 82.540 L517.930 55.150 L476.380 55.150 ZM162.260 173.700 M166.790 173.700 C166.790 171.200 164.760 169.160 162.260 169.160 C159.750 169.160 157.720 171.200 157.720 173.700 C157.720 176.200 159.750 178.240 162.260 178.240 C164.760 178.240 166.790 176.200 166.790 173.700 ZM162.260 173.700 "/>
  <g begin="text">
   <text y="175.556" x="159.816,161.211" svgx:width="0.28,0.7" style="fill:rgb(255,255,255);font-family:TeXGyreAdventor-Bold;font-size:4.98px;stroke:none;">ID</text>
  </g>
  <path style="fill:rgb(255,255,255);stroke:none;stroke-width:0.4;" d="M160.480 171.010 M160.680 171.010 C160.680 170.900 160.590 170.810 160.480 170.810 C160.370 170.810 160.290 170.900 160.290 171.010 C160.290 171.120 160.370 171.210 160.480 171.210 C160.590 171.210 160.680 171.120 160.680 171.010 ZM160.480 171.010 "/>
  <g begin="text">
   <text y="178.877" x="167.33,169.82000000000002,172.311,182.274,185.591,189.467,194.448,200.535,206.622,211.602,214.094,224.057,227.375,231.25,236.789,241.213" svgx:width="0.25,0.55,1.0,0.33,0.39,0.5,0.61,0.61,0.5,0.55,1.0,0.33,0.39,0.56,0.44,0.5" style="fill:rgb(0,0,0);font-family:URWPalladioL-Bold;font-size:9.96px;stroke:none;">, Miranda Mirosa</text>
  </g>
  <path style="fill:rgb(166,206,57);stroke:none;stroke-width:0.4;" d="M251.960 173.700 M256.490 173.700 C256.490 171.200 254.460 169.160 251.960 169.160 C249.450 169.160 247.420 171.200 247.420 173.700 C247.420 176.200 249.450 178.240 251.960 178.240 C254.460 178.240 256.490 176.200 256.490 173.700 ZM251.960 173.700 "/>
  <g begin="text">
   <text y="175.556" x="249.514,250.909" svgx:width="0.28,0.7" style="fill:rgb(255,255,255);font-family:TeXGyreAdventor-Bold;font-size:4.98px;stroke:none;">ID</text>
  </g>
  <path style="fill:rgb(255,255,255);stroke:none;stroke-width:0.4;" d="M250.180 171.010 M250.380 171.010 C250.380 170.900 250.290 170.810 250.180 170.810 C250.070 170.810 249.980 170.900 249.980 171.010 C249.980 171.120 250.070 171.210 250.180 171.210 C250.290 171.210 250.380 171.120 250.380 171.010 ZM250.180 171.010 "/>
  <g begin="text">
   <text y="178.877" x="259.519,264.5,270.587,276.6626,279.165,283.041,288.58,294.667,300.7426,303.245,309.89,313.208,317.083,321.506,327.5816,330.084" svgx:width="0.5,0.61,0.61,0.55,0.39,0.56,0.61,0.61,0.55,0.67,0.33,0.39,0.44,0.61,0.55,0.44" style="fill:rgb(0,0,0);font-family:URWPalladioL-Bold;font-size:9.96px;stroke:none;">and John Birch *</text>
   <text y="196.959" x="82.205,87.19,92.086,96.982,102.4537,104.702,109.409,113.39,115.999,120.294,125.513,129.494,133.7996,136.03,142.97,147.265,152.654,157.137,160.679,163.602,171.519,175.814,181.033,183.956,186.1985,188.439,195.415,200.633,203.242,208.308,212.603,216.145,219.947,222.556,225.479,230.50220000000002,232.706,237.602,240.56210000000002,242.829,249.877,252.8,257.283,262.268,267.164,269.4065,271.647,277.063,284.1493,286.352,291.831,296.726,301.3904,303.594,308.078,312.561,314.8035,317.044,323.984,329.391,334.609,338.904,344.383,346.992,352.19460000000004,354.452,358.935,363.418,367.902,372.385,374.6275,376.868,384.319,388.614,396.0591,398.334,404.314,408.609,413.092,415.701,420.185,425.403,430.882" svgx:width="0.56,0.55,0.55,0.61,0.55,0.52,0.44,0.29,0.48,0.58,0.44,0.48,0.55,0.77,0.48,0.6,0.5,0.4,0.33,0.88,0.48,0.58,0.33,0.25,0.55,0.78,0.58,0.29,0.56,0.48,0.4,0.42,0.29,0.33,0.56,0.55,0.55,0.33,0.55,0.79,0.33,0.5,0.56,0.55,0.25,0.55,0.6,0.79,0.55,0.61,0.55,0.52,0.55,0.5,0.5,0.25,0.55,0.77,0.6,0.58,0.48,0.61,0.29,0.58,0.55,0.5,0.5,0.5,0.5,0.25,0.55,0.83,0.48,0.83,0.55,0.67,0.48,0.5,0.29,0.5,0.58,0.61,0.25" style="fill:rgb(0,0,0);font-family:URWPalladioL-Roma;font-size:8.97px;stroke:none;">Food Science Department, University of Otago, PO Box 56, Dunedin 9054, New Zealand;</text>
   <text y="209.064" x="82.205,86.186,90.167,92.776,97.26,100.801,105.787,109.588,114.484,119.702,121.944,127.163,131.646,138.344,143.329,151.246,155.729,158.339,160.948,163.19,167.171,172.066,182.225,185.211,191.568,193.81,200.167,202.409,205.394,207.6365,209.878,217.795,220.404,223.946,228.429,233.648,239.126,243.609,245.851,253.768,256.377,259.758,264.653,268.455,272.938,279.636,284.532,287.455,291.938,296.923,301.819,304.061,308.544,312.525,314.767,319.985,324.47,326.71,329.696,338.178,340.419,348.902,351.143" svgx:width="0.44,0.44,0.29,0.5,0.4,0.56,0.42,0.55,0.58,0.25,0.58,0.5,0.75,0.56,0.88,0.5,0.29,0.29,0.25,0.44,0.55,0.88,0.33,0.71,0.25,0.71,0.25,0.33,0.25,0.55,0.88,0.29,0.4,0.5,0.58,0.61,0.5,0.25,0.88,0.29,0.4,0.55,0.42,0.5,0.75,0.55,0.33,0.5,0.56,0.55,0.25,0.5,0.44,0.25,0.58,0.5,0.55,0.33,0.95,0.25,0.95,0.25,0.33" style="fill:rgb(0,0,0);font-family:URWPalladioL-Roma;font-size:8.97px;stroke:none;">cclarkson.nz@gmail.com(C.C.); miranda.mirosa@otago.ac.nz (M.M.)</text>
   <text y="221.169" x="81.407" svgx:width="0.44" style="fill:rgb(0,0,0);font-family:URWPalladioL-Bold;font-size:8.97px;stroke:none;">*</text>
   <text y="221.169" x="90.723,97.08,101.976,105.518,108.898,113.193,116.995,122.383,127.279,132.497,137.976,142.271,147.489,151.47,155.765,158.0075,160.786,162.885,167.78,172.999,178.217,180.459,185.417,188.026,191.407,195.388,200.606,207.304,212.2,215.123,219.606,224.591,229.487,231.729,236.212,240.193,242.435,247.653,252.136,254.3785,256.619,261.291,265.586,268.195,270.437,272.6795,274.92,280.353,284.837,289.32,292.306,296.789,301.272,305.755,310.238,313.224,317.707,322.191,326.674" svgx:width="0.71,0.55,0.4,0.4,0.48,0.42,0.6,0.55,0.58,0.61,0.48,0.58,0.44,0.48,0.25,0.55,0.23,0.55,0.58,0.58,0.25,0.55,0.29,0.4,0.44,0.58,0.75,0.55,0.33,0.5,0.56,0.55,0.25,0.5,0.44,0.25,0.58,0.5,0.25,0.55,0.61,0.48,0.29,0.25,0.25,0.55,0.61,0.5,0.5,0.33,0.5,0.5,0.5,0.5,0.33,0.5,0.5,0.5,0.5" style="fill:rgb(0,0,0);font-family:URWPalladioL-Roma;font-size:8.97px;stroke:none;">Correspondence: john.birch@otago.ac.nz; Tel.: +64-3479-7566</text>
   <text y="239.251" x="82.205,88.195,92.489,96.471,100.765,103.375,108.441,112.736,118.214,120.4565,123.235,127.72,129.96,136.9,141.195,145.176,149.471,157.388,162.347,166.642,170.23,172.425,176.908,181.391,185.875,190.358,192.6005,194.841,201.817,205.798,209.779,214.074,219.463,222.386,226.681,232.159,234.4015,237.18,241.66500000000002,243.905,248.89,253.185,258.144,261.614,267.021,271.504,275.045,280.0682,282.272,286.756,291.239,295.722,300.205,302.4475,304.688,310.104,315.511,320.469,323.078,325.688,329.489,334.708,339.003,344.481,346.7235,349.502,353.987,356.227,361.213,365.507,370.466,373.936,379.343,383.826,387.368,392.39119999999997,394.594,399.078,403.561,408.044" svgx:width="0.67,0.48,0.44,0.48,0.29,0.56,0.48,0.61,0.25,0.55,0.5,0.55,0.77,0.48,0.44,0.48,0.88,0.55,0.48,0.4,0.55,0.5,0.5,0.5,0.5,0.25,0.55,0.78,0.44,0.44,0.48,0.6,0.33,0.48,0.61,0.25,0.55,0.5,0.55,0.56,0.48,0.55,0.4,0.6,0.5,0.4,0.56,0.55,0.5,0.5,0.5,0.5,0.25,0.55,0.6,0.6,0.55,0.29,0.29,0.42,0.58,0.48,0.61,0.25,0.55,0.5,0.55,0.56,0.48,0.55,0.4,0.6,0.5,0.4,0.56,0.55,0.5,0.5,0.5,0.5" style="fill:rgb(0,0,0);font-family:URWPalladioL-Roma;font-size:8.97px;stroke:none;">Received: 6 December 2017; Accepted: 6 February 2018; Published: 9 February 2018</text>
   <text y="262.872" x="81.816,89.567,95.654,100.077,103.395,107.27,112.252,116.675,119.993" svgx:width="0.78,0.61,0.44,0.33,0.39,0.5,0.44,0.33,0.25" style="fill:rgb(0,0,0);font-family:URWPalladioL-Bold;font-size:9.96px;stroke:none;">Abstract:</text>
   <text y="262.872" x="125.579,133.307,136.197,139.435,145.216,150.639,156.629,162.151,167.92780000000002,170.425,173.316,178.739,183.149,189.138,193.35,196.588,200.7712,203.293,207.703,212.669,218.44580000000002,220.943,226.436,231.2168,233.687,237.898,243.888,248.099,251.337,256.303,259.194,264.975,269.941,275.434,278.324,283.90160000000003,286.35,292.319,296.054,301.477,307.546,313.536,317.946,322.704,328.7796,331.276,336.242,342.023,348.09860000000003,350.585,355.551,359.296,364.0768,366.547,372.327,378.317,381.555,385.478,388.369,393.127,398.907,402.1938,404.639,408.562,411.452,415.863,421.643,424.133,426.62,429.858,435.639,440.4198,442.889,446.128,451.908,457.332,463.321,468.844,474.624,477.91080000000005,480.356,485.779,489.0658,491.579,496.337,501.304,504.542,507.432,513.213" svgx:width="0.78,0.29,0.33,0.58,0.55,0.6,0.56,0.58,0.55,0.29,0.55,0.44,0.6,0.42,0.33,0.42,0.55,0.44,0.5,0.58,0.55,0.55,0.48,0.55,0.42,0.6,0.42,0.33,0.5,0.29,0.58,0.5,0.55,0.29,0.56,0.55,0.6,0.4,0.55,0.61,0.6,0.44,0.48,0.61,0.55,0.5,0.58,0.61,0.55,0.5,0.4,0.48,0.55,0.58,0.6,0.33,0.4,0.29,0.48,0.58,0.33,0.55,0.4,0.29,0.44,0.58,0.25,0.55,0.33,0.58,0.48,0.55,0.33,0.58,0.55,0.6,0.56,0.58,0.33,0.55,0.55,0.33,0.55,0.48,0.5,0.33,0.29,0.58,0.56" style="fill:rgb(0,0,0);font-family:URWPalladioL-Roma;font-size:9.96px;stroke:none;">Although locusts can be sustainably produced and are nutrient rich, the thought of eating</text>
   <text y="276.382" x="82.205,85.518,91.432,96.299,105.06380000000001,108.067,112.579,117.66,123.43679999999999,126.368,131.988,136.7688,139.66,145.574,150.655,154.486,160.5616,163.49,166.802,172.28,175.155,179.464,187.939,193.02,195.977,198.934,204.483,212.7498,215.752,219.136,224.684,228.668,231.493,240.466,245.547,251.461,257.03860000000003,259.905,264.417,269.966,275.88,280.188,286.316,295.289,300.156,304.17,308.479,310.969,315.033,321.263,327.177,330.134,334.3172,337.237,343.344,348.425,354.532,359.4,363.38399999999996,366.208,371.289,374.246,383.219,387.4022,390.333,393.645,399.123,401.988,404.945,410.86,416.601,421.469,425.777,429.09,432.047,437.697,442.778,446.091,450.8718,453.753,457.066,462.98,467.7608,470.642,476.556,482.684,485.996,490.01,492.967,496.28,499.237,504.786,510.7,515.781" svgx:width="0.33,0.58,0.48,0.88,0.55,0.44,0.5,0.58,0.55,0.55,0.48,0.55,0.58,0.5,0.4,0.61,0.55,0.33,0.55,0.55,0.42,0.83,0.5,0.29,0.29,0.55,0.83,0.55,0.33,0.55,0.4,0.55,0.88,0.5,0.58,0.56,0.55,0.44,0.55,0.58,0.42,0.6,0.88,0.48,0.4,0.42,0.25,0.55,0.61,0.58,0.29,0.42,0.55,0.6,0.5,0.6,0.48,0.4,0.55,0.5,0.29,0.88,0.42,0.55,0.33,0.55,0.55,0.29,0.58,0.56,0.48,0.42,0.33,0.29,0.56,0.5,0.33,0.48,0.55,0.33,0.58,0.48,0.55,0.58,0.6,0.33,0.4,0.29,0.33,0.29,0.55,0.58,0.5,0.29" style="fill:rgb(0,0,0);font-family:URWPalladioL-Roma;font-size:9.96px;stroke:none;">them can be hard to swallow for many consumers. This paper aims to investigate the nutritional</text>
   <text y="289.891" x="82.205,86.549,91.89,100.529,106.409,111.75,115.899,118.746,121.935,124.782,130.123,135.8998,138.293,143.634" svgx:width="0.44,0.55,0.88,0.6,0.55,0.42,0.29,0.33,0.29,0.55,0.58,0.55,0.55,0.33" style="fill:rgb(0,0,0);font-family:URWPalladioL-Roma;font-size:9.96px;stroke:none;">composition of</text>
   <text y="289.891" x="149.375,154.814,159.158,163.14,168.58,172.385,175.643,180.0254,182.462,190.073,192.793,197.685,201.49,205.834,209.092,213.436,217.242,219.961" svgx:width="0.56,0.44,0.41,0.56,0.39,0.33,0.44,0.55,0.78,0.28,0.5,0.39,0.44,0.33,0.44,0.39,0.28,0.44" style="fill:rgb(0,0,0);font-family:URWPalladioL-Ital;font-size:9.96px;stroke:none;">Locusta migratoria</text>
   <text y="289.891" x="224.308,226.798,229.239,232.086,237.78,242.123,244.97,250.87,256.847,259.694,265.388,270.9656,273.303,276.492,282.186,286.9668,289.357,295.237,298.915,304.257,310.137,314.823,318.687,321.877,324.724,329.41,333.5932,336.043,341.384,344.67080000000004,347.117,351.804,356.852,360.041,363.906,368.797,373.141,376.33,381.017,387.0926,389.469,392.316,397.658,402.002,407.901,412.049,415.3358,417.723,423.603,427.282,432.623,435.813,440.499,443.346,449.04,451.53000000000003,453.97,458.314,463.656,469.35,472.539,476.404,479.25,484.661,490.56,493.749,496.596,502.29,507.86760000000004,510.205,513.394" svgx:width="0.25,0.55,0.29,0.58,0.44,0.29,0.6,0.61,0.29,0.58,0.56,0.55,0.33,0.58,0.48,0.55,0.6,0.4,0.55,0.6,0.48,0.4,0.33,0.29,0.48,0.42,0.55,0.55,0.33,0.55,0.48,0.52,0.33,0.4,0.5,0.44,0.33,0.48,0.61,0.55,0.29,0.55,0.44,0.6,0.42,0.33,0.55,0.6,0.4,0.55,0.33,0.48,0.29,0.58,0.25,0.55,0.44,0.55,0.58,0.33,0.4,0.29,0.55,0.6,0.33,0.29,0.58,0.56,0.55,0.33,0.55" style="fill:rgb(0,0,0);font-family:URWPalladioL-Roma;font-size:9.96px;stroke:none;">, including the properties of extracted locust protein, contributing to</text>
   <text y="303.4" x="82.205,85.162,88.119,97.092,100.049,103.362,108.23,114.3056,120.932,123.889,126.846,130.159,135.026,139.04,144.121,147.434,153.562,157.393,162.1738,168.764,173.845,179.759,185.8346,192.461,198.568,202.399,207.948,214.157,220.284,224.796,228.0828,234.602,240.811,245.679,251.42,256.288,259.245,264.793,270.9,279.873,284.741,290.655,293.9418,300.461,306.01,312.117,318.224,323.773,327.786,331.099,337.227,343.141,346.098,349.411,352.368,357.235,361.4182,368.038,371.421,376.97,380.954,387.487,390.434,396.348,402.557,408.685,412.993,416.306,420.32,424.873,427.363,442.514,448.723,454.271,458.783,464.91,469.219,472.532,476.7152,483.334,487.642,493.191,499.318,503.149,507.661,512.529" svgx:width="0.29,0.29,0.88,0.29,0.33,0.48,0.61,0.55,0.29,0.29,0.33,0.48,0.4,0.5,0.33,0.6,0.4,0.48,0.55,0.5,0.58,0.61,0.55,0.6,0.4,0.55,0.61,0.6,0.44,0.33,0.55,0.61,0.48,0.56,0.48,0.29,0.55,0.6,0.88,0.48,0.58,0.33,0.55,0.55,0.6,0.6,0.55,0.4,0.33,0.6,0.58,0.29,0.33,0.29,0.48,0.42,0.55,0.33,0.55,0.4,0.55,0.29,0.58,0.61,0.6,0.42,0.33,0.4,0.56,0.25,0.55,0.61,0.55,0.44,0.6,0.42,0.33,0.42,0.55,0.42,0.55,0.6,0.4,0.44,0.48,0.61" style="fill:rgb(0,0,0);font-family:URWPalladioL-Roma;font-size:9.96px;stroke:none;">limited literature and product development opportunities for industry. Locusts sourced</text>
   <text y="316.91" x="82.205,85.589,89.42,94.968,103.7328,108.666,116.532,122.659,128.574,133.441,139.65,142.607,148.521,151.011,156.346,164.79,169.658,177.92479999999998,182.848,189.626,194.493,199.574,202.531,207.612,213.527,219.736,222.226,227.56,232.072,237.62,243.535,246.847,251.928,254.885,260.8,265.667,271.7426,276.591,281.571,286.397,292.311,295.268,300.918,306.6948,311.558,316.639,325.612,331.16,337.288,343.202,346.4888,351.23,356.778,360.06480000000005,364.887,370.995,374.836,380.384,383.697,388.564,391.511,397.2878,402.151,405.535,410.616,415.697,418.237,423.318,428.399,436.7654,441.66,447.869,451.883,457.4606,462.258,470.733,475.601,478.558,484.208,490.122,493.435,496.72180000000003,501.534,506.615,512.529" svgx:width="0.33,0.4,0.55,0.88,0.55,0.77,0.6,0.58,0.48,0.61,0.29,0.58,0.25,0.55,0.83,0.48,0.83,0.55,0.67,0.48,0.5,0.29,0.5,0.58,0.61,0.25,0.55,0.44,0.55,0.58,0.33,0.5,0.29,0.58,0.48,0.61,0.55,0.5,0.55,0.58,0.29,0.56,0.58,0.55,0.5,0.88,0.55,0.6,0.58,0.33,0.55,0.55,0.33,0.55,0.6,0.4,0.55,0.33,0.48,0.29,0.58,0.55,0.33,0.5,0.5,0.25,0.5,0.5,0.84,0.55,0.61,0.4,0.56,0.55,0.83,0.48,0.29,0.56,0.58,0.33,0.33,0.55,0.5,0.58,0.61" style="fill:rgb(0,0,0);font-family:URWPalladioL-Roma;font-size:9.96px;stroke:none;">from Dunedin, New Zealand, contained a high amount of protein (50.79% dry weight) and</text>
   <text y="330.419" x="82.205,85.589,90.67,93.9568,99.246,102.63,107.711,112.792,115.333,120.414,125.494,134.03,137.414,139.904,145.92,154.395,160.309,163.266,167.778,173.5548,178.956,183.468,189.016,194.93,198.243,203.324,206.281,212.195,217.063,223.1386,228.546,234.46,237.417,243.067,248.84380000000002,254.245,259.326,268.299,273.847,279.975,285.889,289.202,293.3852,298.774,304.323,307.6098,312.981,318.529,327.502,332.369,338.019,343.1,346.484,351.464,356.829,360.213,365.294,370.375,372.915,377.996,383.077,391.613,394.997,397.487,403.503,408.014,411.845,416.713,421.794,425.107,428.064,433.978,439.5556,444.902,449.882,455.247,461.456,466.323,470.632,473.589,477.603,482.684,488.303,491.26,496.8376,502.174,505.131,510.68" svgx:width="0.33,0.5,0.33,0.55,0.33,0.5,0.5,0.25,0.5,0.5,0.84,0.33,0.25,0.55,0.83,0.58,0.29,0.44,0.58,0.55,0.44,0.55,0.58,0.33,0.5,0.29,0.58,0.48,0.61,0.55,0.58,0.29,0.56,0.58,0.55,0.5,0.88,0.55,0.6,0.58,0.33,0.42,0.55,0.55,0.33,0.55,0.55,0.88,0.48,0.56,0.5,0.33,0.5,0.55,0.33,0.5,0.5,0.25,0.5,0.5,0.84,0.33,0.25,0.55,0.44,0.4,0.48,0.5,0.33,0.29,0.58,0.56,0.55,0.5,0.55,0.61,0.48,0.42,0.29,0.4,0.5,0.55,0.29,0.56,0.55,0.29,0.55,0.83" style="fill:rgb(0,0,0);font-family:URWPalladioL-Roma;font-size:9.96px;stroke:none;">fat (34.93%), which contained high amounts of omega-3 (15.64%), creating a desirably low</text>
   <text y="343.929" x="82.205,87.753,96.726,101.594,107.244,112.325,115.709,120.79,126.948,132.496,141.469,146.336,151.986,157.067,160.451,165.43099999999998,170.461,174.475,179.556,182.868,185.825,191.303,196.302,201.851,205.1378,210.163,215.244,217.784,222.865,227.946,230.436,240.882,247.112,253.026,256.867,261.734,266.5148,271.53,277.638,281.469,287.017,290.33,295.197,298.155,303.93179999999995,308.997,312.381,316.395,321.476,325.988,329.301,332.258,337.806,343.72,347.9032,352.957,355.914,361.829,366.341,369.298,375.425,381.634,384.591,390.505,396.155,398.645,404.844,407.801,413.715,418.024,423.572,426.529,432.657,438.276,441.233,446.0138,451.029,453.986,459.535,464.047,470.174,474.483,477.76980000000003,482.724,486.108,490.122,495.203,499.715,503.028,505.985,511.533,517.447" svgx:width="0.55,0.88,0.48,0.56,0.5,0.33,0.5,0.61,0.55,0.88,0.48,0.56,0.5,0.33,0.5,0.55,0.4,0.5,0.33,0.29,0.55,0.55,0.55,0.33,0.55,0.5,0.25,0.5,0.5,0.25,0.55,0.61,0.58,0.4,0.48,0.48,0.55,0.6,0.4,0.55,0.33,0.48,0.29,0.58,0.55,0.33,0.4,0.5,0.44,0.33,0.29,0.55,0.58,0.42,0.55,0.29,0.58,0.44,0.29,0.6,0.61,0.29,0.58,0.56,0.25,0.55,0.29,0.58,0.42,0.55,0.29,0.6,0.55,0.29,0.48,0.55,0.29,0.55,0.44,0.6,0.42,0.33,0.55,0.33,0.4,0.5,0.44,0.33,0.29,0.55,0.58,0.25" style="fill:rgb(0,0,0);font-family:URWPalladioL-Roma;font-size:9.96px;stroke:none;">omega-3/omega-6 ratio of 0.57. Three protein fractions including; insoluble locust fraction,</text>
   <text y="357.438" x="82.205,86.514,92.062,95.019,101.147,106.766,109.723,114.5038,119.072,122.029,127.578,132.09,138.217,142.526,145.8128,150.33,153.714,157.728,162.809,167.321,170.633,173.59,179.139,185.053,187.543,192.583,197.664,203.578,209.6536,214.268,219.248,223.841,228.149,234.277,240.384,245.252,249.266,255.18,260.261,263.574,268.655,274.569,277.85580000000004,282.363,285.747,289.761,294.842,299.354,302.666,305.623,311.172,316.9488,321.578,330.053,334.92,338.751,343.5318,348.11,351.941,356.809,361.321,366.869,372.61,377.478,381.319,386.187,392.2626,396.877,400.261,405.809,408.766,411.723,417.272,425.747,428.704,434.618,440.1956,444.759,449.84,452.798,458.448,463.528,466.486,469.3744,473.924,476.881,481.19,486.738,491.606,494.563,499.43,503.942,507.255,511.269,514.226" svgx:width="0.42,0.55,0.29,0.6,0.55,0.29,0.48,0.55,0.29,0.55,0.44,0.6,0.42,0.33,0.55,0.33,0.4,0.5,0.44,0.33,0.29,0.55,0.58,0.25,0.55,0.5,0.58,0.61,0.55,0.5,0.55,0.42,0.6,0.6,0.48,0.4,0.58,0.5,0.33,0.5,0.58,0.33,0.55,0.33,0.4,0.5,0.44,0.33,0.29,0.55,0.58,0.55,0.83,0.48,0.4,0.48,0.55,0.4,0.48,0.44,0.55,0.56,0.48,0.4,0.48,0.61,0.55,0.33,0.55,0.29,0.29,0.55,0.83,0.29,0.58,0.56,0.55,0.5,0.29,0.56,0.5,0.29,0.29,0.55,0.29,0.42,0.55,0.48,0.29,0.48,0.44,0.33,0.4,0.29,0.44" style="fill:rgb(0,0,0);font-family:URWPalladioL-Roma;font-size:9.96px;stroke:none;">soluble locust fraction, and a supernatant fraction were recovered following alkali isoelectric</text>
   <text y="370.947" x="81.906,88.013,91.844,96.712,101.224,104.181,110.288,113.245,116.558,121.639,124.952,127.909,133.457,139.2338,142.745,151.718,156.585,159.898,165.812,171.361,177.57,183.118,186.075,191.624,197.274,201.816,204.306,210.077,213.502,219.416,222.373,225.686,228.643,233.724,236.681,239.638,244.181,246.67100000000002,250.085,256.192,260.033,265.581,268.894,273.762,276.719,282.633,286.8162,290.305,298.78,303.648,307.479,312.2598,315.72,320.029,325.577,328.534,334.662,340.281,343.238,346.195,349.152,353.461,358.329,364.4046,367.901,372.982,376.26880000000006,379.658,385.766,394.0328,397.594,402.675,407.65500000000003,411.12,414.432,420.346,425.214,430.9908,434.502,440.609,444.44,449.308,453.82,456.777,462.884,465.841,469.154,474.235,477.548,482.415,488.49060000000003,491.988,497.536,503.664,506.9508,510.35,515.431" svgx:width="0.6,0.4,0.48,0.44,0.29,0.6,0.29,0.33,0.5,0.33,0.29,0.55,0.58,0.55,0.88,0.48,0.33,0.58,0.55,0.61,0.55,0.29,0.55,0.56,0.56,0.25,0.55,0.34,0.58,0.29,0.33,0.29,0.5,0.29,0.29,0.56,0.25,0.55,0.6,0.4,0.55,0.33,0.48,0.29,0.58,0.42,0.55,0.83,0.48,0.4,0.48,0.55,0.42,0.55,0.29,0.6,0.55,0.29,0.29,0.29,0.42,0.48,0.61,0.55,0.5,0.33,0.55,0.6,0.83,0.55,0.5,0.5,0.55,0.33,0.58,0.48,0.58,0.55,0.6,0.4,0.48,0.44,0.29,0.6,0.29,0.33,0.5,0.33,0.48,0.61,0.55,0.55,0.6,0.33,0.55,0.5,0.33" style="fill:rgb(0,0,0);font-family:URWPalladioL-Roma;font-size:9.96px;stroke:none;">precipitation methodology. Initially, proteins were solubilised at pH 10 then precipitated out at</text>
   <text y="384.457" x="82.205,85.518,91.432,96.2128,98.86,101.817,106.126,111.674,116.542,119.499,124.367,128.878,132.191,136.205,139.162,143.5444,146.245,152.352,157.901,160.858,166.772,170.0588,172.645,176.029,182.137,190.4038,193.152,198.233,201.617,204.107,207.47,215.376,218.333,221.2214,223.851,227.235,231.249,236.33,240.842,244.154,247.111,252.66,258.574,262.7572,265.454,271.368,276.449,282.5246,285.218,289.527,292.484,298.134,304.048,307.005,313.153,317.665,322.746,328.66,331.973,334.93,340.5076,343.141,349.055,352.012,357.662,363.576,368.444,372.428,375.029,381.136,384.967,390.515,393.828,398.696,401.653,407.4298,410.128,414.64,420.188,426.102,429.415,434.283,440.197,443.51,447.6932,450.389,454.901,460.449,469.422,475.53,480.61,484.441,489.309,495.38460000000003,498.079,506.554,509.511,512.823" svgx:width="0.33,0.58,0.48,0.55,0.29,0.42,0.55,0.48,0.29,0.48,0.44,0.33,0.4,0.29,0.44,0.55,0.6,0.55,0.29,0.58,0.33,0.55,0.33,0.6,0.83,0.55,0.5,0.33,0.25,0.55,0.78,0.29,0.29,0.55,0.33,0.4,0.5,0.44,0.33,0.29,0.55,0.58,0.42,0.55,0.58,0.5,0.61,0.55,0.42,0.29,0.56,0.58,0.29,0.61,0.44,0.5,0.58,0.33,0.29,0.56,0.55,0.58,0.29,0.56,0.58,0.48,0.4,0.55,0.6,0.4,0.55,0.33,0.48,0.29,0.58,0.55,0.44,0.55,0.58,0.33,0.48,0.58,0.33,0.42,0.55,0.44,0.55,0.88,0.6,0.5,0.4,0.48,0.61,0.55,0.83,0.29,0.33,0.58" style="fill:rgb(0,0,0);font-family:URWPalladioL-Roma;font-size:9.96px;stroke:none;">the isoelectric point (pH 4). All fractions had signiﬁcantly higher protein contents compared with</text>
   <text y="397.966" x="82.205,85.518,91.432,96.2128,99.318,107.793,113.707,119.255,122.212,126.9928,130.098,133.055,138.603,143.115,149.243,153.551,156.864,159.354,164.069,170.298,176.212,180.9928,184.098,187.055,192.969,197.278,202.826,205.783,211.911,217.53,220.487,225.2678,228.373,234.48,238.321,243.87,247.183,252.05,255.007,260.7838,263.939,267.323,271.337,276.418,280.93,284.243,287.2,292.748,298.52479999999997,301.67,305.512,310.379,316.486,320.317,325.185,329.494,334.361,340.275,343.588,348.456,354.5316,357.683,362.763,367.844,370.385,375.466,380.547,388.9134,392.101,397.649,400.93580000000003,404.051,407.364,413.278,418.0588,421.164,427.373,431.386,436.96360000000004,440.055,448.53,453.397,456.354,462.004,467.918,471.20480000000003,474.249,479.798,483.08480000000003,486.199,492.307,496.138,501.686,504.999,509.866,512.824" svgx:width="0.33,0.58,0.48,0.55,0.83,0.58,0.55,0.29,0.48,0.55,0.29,0.55,0.44,0.6,0.42,0.33,0.25,0.55,0.61,0.58,0.48,0.55,0.29,0.58,0.42,0.55,0.29,0.6,0.55,0.29,0.48,0.55,0.6,0.4,0.55,0.33,0.48,0.29,0.58,0.55,0.33,0.4,0.5,0.44,0.33,0.29,0.55,0.58,0.55,0.4,0.48,0.6,0.4,0.48,0.42,0.48,0.58,0.33,0.48,0.61,0.55,0.5,0.5,0.25,0.5,0.5,0.84,0.55,0.55,0.33,0.55,0.33,0.58,0.48,0.55,0.61,0.4,0.56,0.55,0.83,0.48,0.29,0.56,0.58,0.33,0.55,0.55,0.33,0.55,0.6,0.4,0.55,0.33,0.48,0.29,0.58" style="fill:rgb(0,0,0);font-family:URWPalladioL-Roma;font-size:9.96px;stroke:none;">the whole locust. The insoluble protein fraction represented 37.76% of the dry weight of protein</text>
   <text y="411.476" x="82.205,86.013,90.852,95.338,100.853,106.561,111.4,115.208,120.047,126.12259999999999,128.715,133.766,139.645,145.72060000000002,148.303,156.728,161.779,165.9622,168.547,177.468,183.559,188.044,193.82080000000002,196.409,199.349,202.288,207.905,213.785,217.078,221.917,225.901,228.392,231.332,237.1088,239.696,244.182,249.697,252.637,258.153,264.244,268.228,270.72,275.771,281.65,287.7256,290.308,295.924,299.743,304.582,309.421,315.3,320.139,324.123,326.615,331.1,336.616,345.536,351.607,356.658,360.467,365.306,371.3816,373.963,377.256,382.734,385.257,390.773,394.066,399.946,404.784,408.768,411.26,414.624,418.614,423.665,428.151,431.444,434.384,439.899,445.779,450.062,452.552,455.679,459.083,462.36980000000005,464.862,469.913,472.852,477.136,482.61400000000003,485.136,491.016,496.067,502.1426,504.724,508.018,513.897" svgx:width="0.4,0.48,0.44,0.55,0.56,0.48,0.4,0.48,0.61,0.55,0.5,0.58,0.61,0.55,0.83,0.5,0.42,0.55,0.88,0.6,0.44,0.58,0.55,0.29,0.29,0.56,0.58,0.33,0.48,0.4,0.55,0.29,0.58,0.55,0.44,0.55,0.29,0.55,0.6,0.4,0.55,0.5,0.58,0.61,0.55,0.56,0.4,0.48,0.48,0.58,0.48,0.4,0.55,0.44,0.55,0.88,0.6,0.5,0.4,0.48,0.61,0.55,0.33,0.55,0.55,0.55,0.33,0.58,0.48,0.4,0.55,0.33,0.4,0.5,0.44,0.33,0.29,0.55,0.58,0.42,0.25,0.55,0.34,0.33,0.55,0.5,0.29,0.42,0.55,0.55,0.58,0.5,0.61,0.55,0.33,0.58,0.48" style="fill:rgb(0,0,0);font-family:URWPalladioL-Roma;font-size:9.96px;stroke:none;">recovered and was much lighter in colour and greener compared to other fractions. It also had the</text>
   <text y="424.985" x="82.205,88.044,90.963,96.541,102.38,107.186,111.439,114.72579999999999,117.208,125.575,130.591,133.862,138.667,142.651,145.128,150.144,155.983,162.0586,164.611,170.088,173.008,175.8964,178.435,184.274,189.752,192.671,198.801,201.72,207.559,213.1366,215.635,220.089,225.106,231.135,236.151,240.606,243.525,246.796,252.37359999999998,254.872,260.349,263.6358,266.188,271.204,273.712,278.728,283.708,286.243,295.101,301.231,307.311,312.8886,315.387,320.403,326.242,332.3176,334.879,339.896,342.404,347.42,352.40000000000003,354.934,363.793,369.922,376.002,381.58,384.07,386.586,392.616,398.093,402.347,406.601,409.52,415.068,417.987,423.56460000000004,426.063,432.193,438.243,443.0238,445.546,448.817,454.295,456.802,459.722,464.738,468.52,474.098,478.904,482.888,485.364,491.394,496.41,500.373,503.643,506.563,511.017,513.937" svgx:width="0.58,0.29,0.56,0.58,0.48,0.42,0.33,0.55,0.83,0.5,0.33,0.48,0.4,0.55,0.5,0.58,0.61,0.55,0.55,0.29,0.29,0.55,0.58,0.55,0.29,0.61,0.29,0.58,0.56,0.55,0.44,0.5,0.6,0.5,0.44,0.29,0.33,0.56,0.55,0.55,0.33,0.55,0.5,0.25,0.5,0.5,0.55,0.88,0.61,0.61,0.56,0.55,0.5,0.58,0.61,0.55,0.5,0.25,0.5,0.5,0.55,0.88,0.61,0.61,0.56,0.25,0.55,0.6,0.55,0.42,0.42,0.29,0.55,0.29,0.56,0.55,0.61,0.6,0.48,0.55,0.33,0.55,0.55,0.29,0.5,0.4,0.56,0.48,0.4,0.55,0.6,0.5,0.4,0.33,0.29,0.44,0.29,0.48" style="fill:rgb(0,0,0);font-family:URWPalladioL-Roma;font-size:9.96px;stroke:none;">highest water and oil holding capacity of 5.17 mL/g and 7.31 mL/g, possibly due to larger particle</text>
   <text y="438.494" x="82.205,86.378,89.243,94.164,98.879,101.369,104.44,110.474,116.203,120.9838,123.418,129.147,132.011,137.484,143.26080000000002,145.703,149.876,155.811,161.727,166.442,170.33,176.058,180.98,184.189,189.11,194.839,198.1258,200.548,206.021,208.885,213.6,216.464,222.5396,224.969,228.246,233.168,238.089,240.55,245.472,250.393,258.661,261.94780000000003,264.439,269.361,275.089,281.1646,283.594,286.458,291.832,302.542,306.715,312.089,314.954,320.889,326.332,329.197,333.9778,336.402,342.317,346.028,351.402,354.611,359.326,362.19,367.9668,370.419,375.892,378.756,383.471,386.335,392.4106,394.84,398.118,403.039,405.5,410.421,415.343,423.611,426.8978,429.389,437.598,442.52,446.7032,449.183,455.119,460.847,465.562,470.641,476.557,481.272,485.642,488.851,493.566,499.6416,502.08,507.001,512.73" svgx:width="0.42,0.29,0.5,0.48,0.25,0.55,0.61,0.58,0.48,0.55,0.58,0.29,0.56,0.58,0.55,0.42,0.6,0.6,0.48,0.4,0.58,0.5,0.33,0.5,0.58,0.33,0.55,0.56,0.29,0.48,0.29,0.61,0.55,0.33,0.5,0.5,0.25,0.5,0.5,0.84,0.33,0.55,0.5,0.58,0.61,0.55,0.29,0.55,0.83,0.42,0.55,0.29,0.6,0.55,0.29,0.48,0.55,0.6,0.4,0.55,0.33,0.48,0.29,0.58,0.55,0.56,0.29,0.48,0.29,0.61,0.55,0.33,0.5,0.25,0.5,0.5,0.84,0.33,0.55,0.83,0.5,0.42,0.55,0.6,0.58,0.48,0.52,0.6,0.48,0.44,0.33,0.48,0.61,0.55,0.5,0.58,0.61" style="fill:rgb(0,0,0);font-family:URWPalladioL-Roma;font-size:9.96px;stroke:none;">size. The high supernatant yield (56.60%) and lowsoluble protein yield (9.83%) was unexpected and</text>
   <text y="452.004" x="82.205,86.628,92.068,98.075,100.975,107.05059999999999,109.552,115.062,119.8428,122.324,127.304,129.796,133.552,138.324,142.548,148.556,151.455,154.7418,157.193,162.633,165.9198,168.441,173.213,178.354,184.342,189.114,193.049,195.948,204.745,209.517,215.315,218.563,223.544,226.4324,228.934,234.922,243.1888,245.701,250.125,255.564,261.362,267.45,270.349,273.596,276.496,281.935,287.733,291.9162,294.448,298.872,304.67,310.109,314.334,319.106,324.904" svgx:width="0.44,0.55,0.6,0.29,0.61,0.55,0.55,0.48,0.55,0.5,0.55,0.4,0.48,0.42,0.6,0.29,0.33,0.55,0.55,0.33,0.55,0.48,0.52,0.6,0.48,0.4,0.29,0.88,0.48,0.58,0.33,0.5,0.29,0.55,0.6,0.83,0.55,0.44,0.55,0.58,0.61,0.29,0.33,0.29,0.55,0.58,0.42,0.55,0.44,0.58,0.55,0.42,0.48,0.58,0.25" style="fill:rgb(0,0,0);font-family:URWPalladioL-Roma;font-size:9.96px;stroke:none;">could be a result of experimental pH conditions chosen.</text>
   <text y="477.468" x="82.205,89.956,94.937,100.476,108.775,114.314,118.19,124.277,128.7" svgx:width="0.78,0.5,0.56,0.83,0.56,0.39,0.61,0.44,0.25" style="fill:rgb(0,0,0);font-family:URWPalladioL-Bold;font-size:9.96px;stroke:none;">Keywords:</text>
   <text y="477.468" x="138.144,143.012,148.926,152.238,157.787,166.76,172.308,178.415,184.33,189.411,195.061,200.711" svgx:width="0.48,0.58,0.33,0.55,0.88,0.55,0.6,0.58,0.5,0.56,0.56,0.25" style="fill:rgb(0,0,0);font-family:URWPalladioL-Roma;font-size:9.96px;stroke:none;">entomophagy;</text>
   <text y="477.468" x="208.641,214.291,218.803,222.939,228.589,232.542,235.926,240.30839999999998,244.858,252.764,255.589,260.67,264.623,269.135,272.518,277.03,280.983,283.808" svgx:width="0.56,0.44,0.41,0.56,0.39,0.33,0.44,0.55,0.78,0.28,0.5,0.39,0.44,0.33,0.44,0.39,0.28,0.44" style="fill:rgb(0,0,0);font-family:URWPalladioL-Ital;font-size:9.96px;stroke:none;">Locusta migratoria</text>
   <text y="477.468" x="288.322,290.812,296.248,299.205,305.12,309.428,314.296,318.808,322.0948,326.551,332.658,336.489,342.038,345.35,350.218,353.175,359.089,363.398,365.88800000000003,371.324,374.708,379.789,383.102,386.414,391.9916,396.495,401.576,406.088,409.045,415.254,417.744,423.18,426.564,432.691,438.606,443.117,446.43,449.387,454.936,460.85,465.931,468.888,471.845,475.158,480.808,483.298,488.734,493.246,498.794,501.751,507.3,513.427,517.441" svgx:width="0.25,0.55,0.29,0.58,0.42,0.48,0.44,0.33,0.55,0.6,0.4,0.55,0.33,0.48,0.29,0.58,0.42,0.25,0.55,0.33,0.5,0.33,0.33,0.56,0.55,0.5,0.44,0.29,0.61,0.25,0.55,0.33,0.6,0.58,0.44,0.33,0.29,0.55,0.58,0.5,0.29,0.29,0.33,0.56,0.25,0.55,0.44,0.55,0.29,0.55,0.6,0.4,0.25" style="fill:rgb(0,0,0);font-family:URWPalladioL-Roma;font-size:9.96px;stroke:none;">; insect proteins; fatty acid; functionality; colour;</text>
   <text y="490.978" x="81.906,87.894,91.649,97.089,102.23,105.129,113.926,118.907,122.155,126.9358,129.418,133.841,139.281,148.078,154.065,159.505,163.729,166.628,169.876,172.775,178.214,184.013,186.50300000000001,188.994,192.312,197.751,203.191" svgx:width="0.6,0.4,0.55,0.52,0.29,0.88,0.5,0.33,0.48,0.55,0.44,0.55,0.88,0.6,0.55,0.42,0.29,0.33,0.29,0.55,0.58,0.25,0.55,0.33,0.55,0.55,0.61" style="fill:rgb(0,0,0);font-family:URWPalladioL-Roma;font-size:9.96px;stroke:none;">proximate composition; food</text>
  </g>
  <path style="fill:none;stroke:rgb(0,0,0);stroke-width:0.4;" d="M76.540 509.930 L518.740 509.930 "/>
  <g begin="text">
   <text y="541.917" x="76.535,81.516,84.006,87.095,90.971,97.058,100.376,104.251,109.79,115.877,121.964,126.388,129.705,133.023,138.562" svgx:width="0.5,0.25,0.55,0.39,0.61,0.33,0.39,0.56,0.61,0.61,0.44,0.33,0.33,0.56,0.61" style="fill:rgb(0,0,0);font-family:URWPalladioL-Bold;font-size:9.96px;stroke:none;">1. Introduction</text>
   <text y="561.404" x="97.795,101.22,106.9968,111.727,115.558,120.425,124.937,129.805,135.719,139.0058,143.625,149.275,154.142,159.223,163.237,167.546,170.036,175.208,178.521,184.435,189.302,193.133,197.9138,202.594,208.508,213.589,217.7722,222.491,228.111,232.978,237.846,243.6228,248.343,253.32299999999998,258.017,263.667,267.508,273.056,281.531,284.489,290.403,295.98060000000004,300.636,303.593,309.507,312.82,317.687,321.528,326.396,330.705,333.9918,338.611,341.568,347.482,350.795,356.273,360.926,364.239,370.153,374.9338,379.614,385.233,390.101,396.015,400.882,407.03,410.343,414.5262,419.245,424.793,428.07980000000003,432.77,437.282,442.831,448.745,453.053,459.181,468.154,471.111,477.025,482.6026,487.268,490.225,496.14,500.448,505.316,509.828,513.14,517.449" svgx:width="0.34,0.58,0.55,0.4,0.48,0.44,0.48,0.58,0.33,0.55,0.56,0.48,0.5,0.4,0.42,0.25,0.55,0.33,0.58,0.48,0.4,0.48,0.55,0.58,0.5,0.42,0.55,0.55,0.48,0.48,0.58,0.55,0.5,0.55,0.56,0.4,0.55,0.83,0.29,0.58,0.56,0.55,0.29,0.58,0.33,0.48,0.4,0.48,0.42,0.33,0.55,0.29,0.58,0.33,0.55,0.55,0.33,0.58,0.48,0.55,0.55,0.48,0.58,0.48,0.61,0.33,0.42,0.55,0.55,0.33,0.55,0.44,0.55,0.58,0.42,0.6,0.88,0.29,0.58,0.56,0.55,0.29,0.58,0.42,0.48,0.44,0.33,0.42,0.25" style="fill:rgb(0,0,0);font-family:URWPalladioL-Roma;font-size:9.96px;stroke:none;">In recent years, there has been a growing interest into the beneﬁts of consuming insects,</text>
   <text y="574.913" x="76.535,81.616,84.573,88.882,94.36,97.763,103.413,109.327,114.876,123.351,129.1278,132.608,137.689,141.8722,145.331,150.198,156.112,159.425,164.974,173.947,179.495,185.602,191.516,196.597,202.247,206.79,209.28,214.96,218.384,224.299,228.607,231.92,236.787,241.868,247.9436,251.41,256.959,260.24580000000003,263.676,269.417,272.374,277.242,285.717,288.674,294.588,300.16560000000004,303.571,306.528,312.442,316.751,321.619,326.13,329.443,333.752,336.242,339.839,344.147,350.275,354.787,360.56379999999996,364.044,369.125,373.3082,376.767,379.724,385.272,389.784,395.912,400.221,403.533,407.842,410.332,413.929,419.01,423.1932,426.652,432.759,437.626,441.935,445.248,449.4312,452.9,456.212,462.127,467.207,470.4938,473.853,478.162,484.076,489.625,495.752,498.709,504.7846,508.251,513.871" svgx:width="0.5,0.29,0.42,0.55,0.55,0.56,0.58,0.55,0.83,0.58,0.55,0.5,0.42,0.55,0.48,0.58,0.33,0.55,0.88,0.55,0.6,0.58,0.5,0.56,0.56,0.25,0.55,0.34,0.58,0.42,0.33,0.48,0.5,0.61,0.55,0.55,0.33,0.55,0.56,0.29,0.48,0.83,0.29,0.58,0.56,0.55,0.29,0.58,0.42,0.48,0.44,0.33,0.42,0.25,0.55,0.42,0.6,0.44,0.58,0.55,0.5,0.42,0.55,0.29,0.55,0.44,0.6,0.42,0.33,0.42,0.25,0.55,0.5,0.42,0.55,0.6,0.48,0.42,0.33,0.42,0.55,0.33,0.58,0.5,0.33,0.55,0.42,0.58,0.55,0.6,0.29,0.61,0.55,0.55,0.48" style="fill:rgb(0,0,0);font-family:URWPalladioL-Roma;font-size:9.96px;stroke:none;">also known as entomophagy. Instead of viewing insects, such as locusts, as pests that should be</text>
   <text y="588.423" x="76.535,82.185,87.053,93.16,96.4468,99.613,104.693,113.168,118.249,123.8266,127.05,130.433,134.264,139.813,148.5778,151.926,155.239,161.153,165.9338,169.16,174.81,177.767,181.08,185.592,191.506,196.374,202.288,204.77800000000002,208.141,212.653,217.521,221.534,224.847,229.928,232.885,238.6618,241.939,246.451,252.0,257.914,262.223,268.35,277.323,282.191,286.204,290.3872,293.653,298.734,304.648,310.72360000000003,313.997,317.381,322.929,328.478,334.5536,337.837,342.349,347.897,356.87,362.977,368.058,373.972,376.929,381.797,385.9802,389.246,394.327,398.158,402.9388,406.175,412.283,418.41,422.424,428.531,434.08,438.388,443.256,446.213,451.79060000000004,455.003,460.084,465.998,472.0736,475.347,479.859,483.69,488.557,493.638,496.951,499.908,505.65,510.517,513.474" svgx:width="0.56,0.48,0.6,0.33,0.55,0.5,0.83,0.5,0.56,0.55,0.33,0.4,0.55,0.88,0.55,0.33,0.58,0.48,0.55,0.56,0.29,0.33,0.44,0.58,0.48,0.58,0.25,0.55,0.44,0.48,0.4,0.33,0.5,0.29,0.58,0.55,0.44,0.55,0.58,0.42,0.6,0.88,0.48,0.4,0.42,0.55,0.5,0.58,0.61,0.55,0.33,0.55,0.55,0.61,0.55,0.44,0.55,0.88,0.6,0.5,0.58,0.29,0.48,0.42,0.55,0.5,0.4,0.48,0.55,0.6,0.6,0.4,0.6,0.55,0.42,0.48,0.29,0.56,0.55,0.5,0.58,0.61,0.55,0.44,0.4,0.48,0.5,0.33,0.29,0.56,0.48,0.29,0.56" style="fill:rgb(0,0,0);font-family:URWPalladioL-Roma;font-size:9.96px;stroke:none;">kept away from the kitchen, certain consumers and food companies are purposely and creatively</text>
   <text y="601.932" x="76.535,79.492,85.406,89.918,95.467,99.48,105.588,111.136,115.15,120.231,123.544,126.501,132.415,137.99259999999998,140.9,144.213,150.127,154.995,163.7598,166.793,169.75,175.664,178.977,184.455,187.36,190.744,196.292,201.841,207.91660000000002,210.885,216.992,220.823,226.372,232.58,238.708,243.22,246.533,250.7162,253.676,258.757,264.672,270.74760000000003,273.716,282.688,287.556,292.637,295.594,299.903,302.39300000000003,306.559,316.172,319.129,324.779,328.793,333.874,337.186,342.725,346.739,352.3166,355.224,358.181,363.729,368.241,374.369,378.677,381.99,386.1732,389.134" svgx:width="0.29,0.58,0.44,0.55,0.4,0.6,0.55,0.4,0.5,0.33,0.29,0.58,0.56,0.55,0.33,0.58,0.48,0.88,0.55,0.29,0.58,0.33,0.55,0.55,0.33,0.55,0.55,0.61,0.55,0.6,0.4,0.55,0.61,0.6,0.44,0.33,0.42,0.55,0.5,0.58,0.61,0.55,0.88,0.48,0.5,0.29,0.42,0.25,0.55,0.95,0.29,0.56,0.4,0.5,0.33,0.55,0.4,0.56,0.55,0.29,0.55,0.44,0.6,0.42,0.33,0.42,0.55,0.33" style="fill:rgb(0,0,0);font-family:URWPalladioL-Roma;font-size:9.96px;stroke:none;">incorporating them into food products and meals. Migratory locusts (</text>
   <text y="601.932" x="392.517,398.167,402.679,406.815,412.465,416.418,419.802,424.18440000000004,427.149,435.055,437.88,442.96,446.913,451.425,454.809,459.321,463.274,466.099" svgx:width="0.56,0.44,0.41,0.56,0.39,0.33,0.44,0.55,0.78,0.28,0.5,0.39,0.44,0.33,0.44,0.39,0.28,0.44" style="fill:rgb(0,0,0);font-family:URWPalladioL-Ital;font-size:9.96px;stroke:none;">Locusta migratoria</text>
   <text y="601.932" x="470.608,473.098,476.065,482.274,485.231,491.145,497.059,502.14,507.008,513.135,517.444" svgx:width="0.25,0.55,0.61,0.29,0.58,0.58,0.5,0.48,0.6,0.42,0.25" style="fill:rgb(0,0,0);font-family:URWPalladioL-Roma;font-size:9.96px;stroke:none;">, Linnaeus,</text>
   <text y="615.441" x="76.037,81.118,86.199,91.28,96.26,99.206,102.59,110.577,114.591,117.904,123.818,129.366,135.474,138.786,143.654,147.668,152.749,155.239,159.1,167.006,171.518,175.532,178.489,184.698,187.655,193.864,198.945,203.812,207.196,210.4828,213.425,218.506,222.347,227.1278,230.06,236.167,239.998,244.866,250.607,255.688,258.645,263.513,269.427,272.71380000000005,275.595,278.553,284.3298,287.312,295.218,298.602,302.616,305.573,310.085,315.166,320.9428,323.925,329.006,334.92,340.9956,343.985,351.891,355.904,360.985,366.605,369.562,374.643,380.41979999999995,383.402,389.611,392.568,397.436,400.749,405.057,407.547,410.535,416.154,422.282,425.5688,428.45,433.531,437.362,442.1428,445.075,450.156,453.113,457.421,462.899,465.825,474.3,477.257,483.466,488.334,492.642,498.75,502.581,507.448,512.529" svgx:width="0.5,0.5,0.5,0.5,0.55,0.33,0.79,0.4,0.33,0.58,0.55,0.6,0.33,0.48,0.4,0.5,0.25,0.55,0.78,0.44,0.4,0.29,0.61,0.29,0.61,0.5,0.48,0.33,0.33,0.55,0.5,0.4,0.48,0.55,0.6,0.4,0.48,0.56,0.5,0.29,0.48,0.58,0.33,0.55,0.29,0.58,0.55,0.78,0.33,0.4,0.29,0.44,0.5,0.58,0.55,0.5,0.58,0.61,0.55,0.78,0.4,0.5,0.55,0.29,0.5,0.58,0.55,0.61,0.29,0.48,0.33,0.42,0.25,0.55,0.55,0.6,0.33,0.55,0.5,0.4,0.48,0.55,0.5,0.29,0.42,0.55,0.55,0.83,0.29,0.61,0.48,0.42,0.6,0.4,0.48,0.5,0.61" style="fill:rgb(0,0,0);font-family:URWPalladioL-Roma;font-size:9.96px;stroke:none;">1758 (Orthoptera: Acrididae)) are prevalent in African and Arabian diets, but are also widespread</text>
   <text y="628.951" x="76.535,81.616,86.128,89.959,95.507,99.816,103.9992,107.661,110.974,116.888,121.6688,125.292,133.767,139.315,143.329,146.286,152.3616,156.031" svgx:width="0.5,0.44,0.4,0.55,0.42,0.42,0.55,0.33,0.58,0.48,0.55,0.83,0.55,0.4,0.29,0.61,0.55,0.33" style="fill:rgb(0,0,0);font-family:URWPalladioL-Roma;font-size:9.96px;stroke:none;">across the world [</text>
   <text y="628.951" x="159.411" svgx:width="0.5" style="fill:rgb(8,117,183);font-family:URWPalladioL-Roma;font-size:9.96px;stroke:none;">1</text>
   <text y="628.951" x="164.392,167.776,170.26600000000002,176.535,182.673,188.222,194.329,200.456,203.413,208.494,212.478,216.045,222.152,225.983,230.851,236.958,242.039,246.053,251.134,254.446,257.403,262.952,268.866,273.0492,276.711,279.668,285.582,290.094,293.051,299.179,305.388,310.1688,313.781,317.165,321.179,324.136,329.004,335.213,337.70300000000003,341.554,345.385,350.933,356.014,360.323,363.635,368.503,374.712,377.202,381.053,386.601,390.585,394.141,399.761,405.309,408.266,411.223,416.091,422.3,424.79,431.059,439.514,445.062,453.537,458.405,464.146,469.014,472.296,474.786,478.627,481.94,487.854,492.721,496.552,501.3328,504.956,510.037,513.868" svgx:width="0.33,0.25,0.55,0.6,0.55,0.6,0.6,0.29,0.5,0.4,0.55,0.6,0.4,0.48,0.6,0.5,0.4,0.5,0.33,0.29,0.55,0.58,0.42,0.55,0.29,0.58,0.44,0.29,0.6,0.61,0.48,0.55,0.33,0.4,0.29,0.48,0.61,0.25,0.55,0.4,0.55,0.5,0.42,0.33,0.48,0.61,0.25,0.55,0.55,0.4,0.55,0.55,0.55,0.29,0.29,0.48,0.61,0.25,0.55,0.83,0.55,0.83,0.48,0.56,0.48,0.4,0.25,0.55,0.33,0.58,0.48,0.4,0.48,0.55,0.5,0.4,0.48" style="fill:rgb(0,0,0);font-family:URWPalladioL-Roma;font-size:9.96px;stroke:none;">]. Popular preparations include fried, roasted, or boiled. However, there are</text>
   <text y="642.46" x="76.535,82.083,87.825,92.692,96.67599999999999,99.48,104.561,109.642,114.723,119.703,122.568,127.436,133.645,136.602,142.221,145.178,149.9588,152.82,155.777,161.691,166.0,170.867,175.379,178.6658,181.456,185.765,191.872,196.74,201.251,204.208,209.076,213.2592,216.159,219.472,225.386,230.467,233.7538,236.543,241.055,246.136,251.9128,254.825,260.444,265.2248,268.086,272.953,278.034,281.347,286.215,291.99179999999996,294.893,299.974,303.2608,306.061,310.928,316.578,322.228,324.718,327.604,330.561,335.642,339.656,345.397,350.478,353.435,355.925,358.821,364.928,371.056,377.163,382.244,385.201,387.69100000000003,390.577,396.125,400.109,402.913,407.994,414.203,420.331,423.288,426.57480000000004,429.365,433.673,436.986,442.067,447.717,452.585,456.893,459.383,462.279,467.146,470.104,473.416,479.331,484.198,488.18199999999996,490.976,499.451,505.365,510.914,513.871" svgx:width="0.55,0.56,0.48,0.4,0.55,0.5,0.5,0.5,0.5,0.55,0.48,0.61,0.29,0.55,0.29,0.48,0.55,0.29,0.58,0.42,0.48,0.44,0.33,0.55,0.42,0.6,0.48,0.44,0.29,0.48,0.42,0.55,0.33,0.58,0.5,0.33,0.55,0.44,0.5,0.58,0.55,0.55,0.48,0.55,0.48,0.5,0.33,0.48,0.58,0.55,0.5,0.33,0.55,0.48,0.56,0.56,0.25,0.55,0.29,0.5,0.4,0.56,0.5,0.29,0.25,0.55,0.6,0.6,0.6,0.5,0.29,0.25,0.55,0.55,0.4,0.55,0.5,0.61,0.6,0.29,0.33,0.55,0.42,0.33,0.5,0.56,0.48,0.42,0.25,0.55,0.48,0.29,0.33,0.58,0.48,0.4,0.55,0.83,0.58,0.55,0.29,0.48" style="fill:rgb(0,0,0);font-family:URWPalladioL-Roma;font-size:9.96px;stroke:none;">over 2000 edible insect species that can be eaten at egg, larval, pupal, or adult stages, either whole</text>
   <text y="655.97" x="76.535,82.083,86.067,89.857,95.507,99.338,104.887,111.014,116.928,123.00359999999999,126.907,133.035,139.011,142.902,145.859,151.773,155.086,160.56400000000002,164.394,173.367,178.235,183.316,186.273,190.4562,194.341,199.89,203.874,207.664,211.972,217.886,222.967,227.479,233.0566,236.889,242.996,246.827,252.376,258.585,264.712,269.224,272.537,276.7202,280.605" svgx:width="0.55,0.4,0.55,0.56,0.4,0.55,0.6,0.58,0.61,0.55,0.6,0.6,0.55,0.29,0.58,0.33,0.55,0.55,0.88,0.48,0.5,0.29,0.42,0.55,0.55,0.4,0.55,0.42,0.58,0.5,0.44,0.56,0.55,0.6,0.4,0.55,0.61,0.6,0.44,0.33,0.42,0.55,0.33" style="fill:rgb(0,0,0);font-family:URWPalladioL-Roma;font-size:9.96px;stroke:none;">or ground up into meals or snack products [</text>
   <text y="655.97" x="283.993" svgx:width="0.5" style="fill:rgb(8,117,183);font-family:URWPalladioL-Roma;font-size:9.96px;stroke:none;">2</text>
   <text y="655.97" x="288.974,292.358,294.848,301.798,308.007,313.556,318.067,324.195,328.504,331.816,335.9992,339.885,344.966,348.797,353.5778,357.424,363.338,366.296,370.604,373.917,379.465,383.479,386.436,390.948,396.029,398.986,401.943,407.5206,411.353,416.434,420.743,425.051,430.6,435.112,438.069,443.15,446.462,451.33,457.4056,461.309,466.39,470.5732,474.458,480.566,485.433,489.742,493.055,497.2382,501.123,504.436,510.35,515.431" svgx:width="0.33,0.25,0.55,0.61,0.55,0.44,0.6,0.42,0.33,0.42,0.55,0.5,0.4,0.48,0.55,0.58,0.29,0.42,0.33,0.55,0.4,0.29,0.44,0.5,0.29,0.29,0.56,0.55,0.5,0.42,0.42,0.55,0.44,0.29,0.5,0.33,0.48,0.61,0.55,0.5,0.42,0.55,0.6,0.48,0.42,0.33,0.42,0.55,0.33,0.58,0.5,0.33" style="fill:rgb(0,0,0);font-family:URWPalladioL-Roma;font-size:9.96px;stroke:none;">]. Locusts are historically associated as pests that</text>
   <text y="669.479" x="76.535,82.744,87.611,91.92,95.233,99.064,104.612,110.1896,114.124,118.636,122.467,128.015,134.122,138.431,140.92100000000002,145.178,153.653,159.567,162.525,167.036,172.8128,176.802,182.716,187.797,191.9802,195.967,198.924,204.839,211.017,217.145,222.012,227.926,232.438,237.306,243.38160000000002,247.366,251.207,256.075,260.383,265.251,270.332,274.163,278.675,284.4518,288.45,293.531,299.445,305.5206,309.506,314.018,319.566,325.48,329.789,335.916,344.889,349.757,353.741,357.632,363.181,369.288,372.245,378.159,381.116,386.665,392.579,396.887,399.377,406.612,410.037,415.81379999999996,419.813,423.643,428.511,433.023,437.89,443.805,447.09180000000003,450.979,456.629,461.496,466.577,470.591,474.7742,478.751,484.665,490.214,498.689,503.556,509.298,514.165,517.448" svgx:width="0.61,0.48,0.42,0.33,0.4,0.55,0.56,0.55,0.44,0.4,0.55,0.6,0.42,0.25,0.55,0.83,0.58,0.29,0.44,0.58,0.55,0.58,0.5,0.42,0.55,0.29,0.58,0.61,0.6,0.48,0.58,0.44,0.48,0.61,0.55,0.4,0.48,0.42,0.48,0.5,0.4,0.44,0.58,0.55,0.5,0.58,0.61,0.55,0.44,0.55,0.58,0.42,0.6,0.88,0.48,0.4,0.55,0.55,0.6,0.29,0.58,0.29,0.55,0.58,0.42,0.25,0.55,0.34,0.58,0.55,0.4,0.48,0.44,0.48,0.58,0.33,0.55,0.56,0.48,0.5,0.4,0.42,0.55,0.58,0.55,0.83,0.48,0.56,0.48,0.4,0.25" style="fill:rgb(0,0,0);font-family:URWPalladioL-Roma;font-size:9.96px;stroke:none;">destroy crops, which has inﬂuenced research and consumer opinions. In recent years however,</text>
   <text y="682.988" x="76.535,79.718,85.4,89.081,94.412,100.299,105.727,111.5038,113.831,119.259,122.94,128.271,136.414,139.255,144.937,150.5146,152.797,155.638,161.32,164.503,169.179,172.85,177.527,181.667,184.9538,187.281,191.616,196.946,202.629,206.964,211.64,215.497,221.179,224.02,229.702,235.2796,237.562,242.239,247.921,251.104,256.434,265.055,270.386,276.244,281.927,286.808,292.237,296.562,299.052,301.443,304.285,309.615,313.95,319.838,323.977,327.16,331.3432,333.731,339.413,344.295,349.811,354.5918,356.919,360.59,365.266,369.601,374.278,377.119,382.635,387.312,393.3876,395.709,400.59,403.773,406.956,411.633,417.315,420.498,423.339,428.67,434.4468,436.773,440.024,445.355,449.339,451.643,454.826,460.508,465.185,468.026,472.01,474.313,480.181,483.852,489.183,497.804,500.645,504.785,507.626,513.308" svgx:width="0.33,0.58,0.4,0.55,0.6,0.56,0.58,0.55,0.56,0.4,0.55,0.83,0.29,0.58,0.56,0.55,0.29,0.58,0.33,0.48,0.4,0.48,0.42,0.33,0.55,0.44,0.55,0.58,0.44,0.48,0.4,0.58,0.29,0.58,0.56,0.55,0.48,0.58,0.33,0.55,0.88,0.55,0.6,0.58,0.5,0.56,0.56,0.25,0.55,0.29,0.55,0.44,0.6,0.42,0.33,0.42,0.55,0.58,0.5,0.56,0.48,0.55,0.4,0.48,0.44,0.48,0.29,0.56,0.48,0.61,0.55,0.5,0.33,0.33,0.48,0.58,0.33,0.29,0.55,0.58,0.55,0.33,0.55,0.4,0.55,0.33,0.58,0.48,0.29,0.4,0.55,0.6,0.4,0.55,0.88,0.29,0.42,0.29,0.58,0.56" style="fill:rgb(0,0,0);font-family:URWPalladioL-Roma;font-size:9.96px;stroke:none;">through growing interest concerning entomophagy, locusts have received attention for their promising</text>
   <text y="696.498" x="76.535,80.844,85.711,91.625,95.934,101.482,105.496,111.0736,113.941,120.048,123.889,129.438,135.545,140.412,144.426,147.739,150.696,155.564,159.872,162.36200000000002,165.278,171.193,177.32,180.633,184.647,187.604,190.917,193.874,199.422,205.336,210.417,213.374,216.332,221.90959999999998,224.786,228.8,231.757,236.269,242.0458,244.978,249.49,255.038,264.011,270.118,275.667,279.975,282.932,286.245,289.202,294.751,300.665,303.15500000000003,306.081,311.162,317.076,323.15160000000003,326.079,330.388,336.516,340.824,344.137,349.218,352.175,358.089,363.17,368.79,371.747,376.5278,379.409,385.516,389.357,394.906,401.115,407.242,411.754,415.067,418.024,423.572,429.3488,432.281,438.388,442.219,447.768,452.076,458.184,463.051,467.563,470.876,475.0592,477.989,483.07,487.2532,490.173,495.153,498.048,501.432,506.981,512.529" svgx:width="0.42,0.48,0.58,0.42,0.55,0.4,0.56,0.55,0.6,0.4,0.55,0.6,0.48,0.4,0.33,0.29,0.48,0.42,0.25,0.55,0.58,0.6,0.33,0.4,0.29,0.33,0.29,0.55,0.58,0.5,0.29,0.29,0.56,0.55,0.4,0.29,0.44,0.58,0.55,0.44,0.55,0.88,0.6,0.55,0.42,0.29,0.33,0.29,0.55,0.58,0.25,0.55,0.5,0.58,0.61,0.55,0.42,0.6,0.42,0.33,0.5,0.29,0.58,0.5,0.55,0.29,0.48,0.55,0.6,0.4,0.55,0.61,0.6,0.44,0.33,0.29,0.55,0.58,0.55,0.6,0.4,0.55,0.42,0.6,0.48,0.44,0.33,0.42,0.55,0.5,0.42,0.55,0.5,0.55,0.33,0.55,0.55,0.61" style="fill:rgb(0,0,0);font-family:URWPalladioL-Roma;font-size:9.96px;stroke:none;">sensory properties, nutritionally rich composition, and sustainable production prospects as a food</text>
   <text y="710.007" x="76.535,79.434,85.232,90.772,94.527,99.3,105.387,108.286,113.058,118.856,122.1428,124.595" svgx:width="0.29,0.58,0.56,0.4,0.48,0.61,0.29,0.48,0.58,0.33,0.55,0.33" style="fill:rgb(0,0,0);font-family:URWPalladioL-Roma;font-size:9.96px;stroke:none;">ingredient [</text>
   <text y="710.007" x="127.912" svgx:width="0.5" style="fill:rgb(8,117,183);font-family:URWPalladioL-Roma;font-size:9.96px;stroke:none;">1</text>
   <text y="710.007" x="132.893" svgx:width="0.25" style="fill:rgb(0,0,0);font-family:URWPalladioL-Roma;font-size:9.96px;stroke:none;">,</text>
   <text y="710.007" x="135.384" svgx:width="0.5" style="fill:rgb(8,117,183);font-family:URWPalladioL-Roma;font-size:9.96px;stroke:none;">2</text>
   <text y="710.007" x="140.365,143.683" svgx:width="0.33,0.25" style="fill:rgb(0,0,0);font-family:URWPalladioL-Roma;font-size:9.96px;stroke:none;">].</text>
   <text y="723.517" x="97.795,104.317,108.994,113.875,117.732,120.573,126.255,131.83259999999999,134.066,136.907,142.238,146.573,152.46,156.6,159.783,163.9662,166.314,171.196,176.878,182.9536,185.226,190.557,193.739,199.422,204.098,208.08200000000002,210.347,215.024,220.989,223.83,229.229,232.07,236.8508,239.129,241.97,247.653,251.792,256.469,260.804,263.987,268.1702,270.518,274.189,278.866,284.334,290.221,293.062,296.743,301.419,305.6022,307.941,312.081,314.922,320.351,326.033,328.874,334.781,339.116,343.997,349.68,352.863,355.704,361.2816,363.524,366.365,371.042,375.182,379.3652,381.703,384.955,389.631,394.308,400.273,402.76300000000003,405.126,407.967,412.848,418.531,424.496,426.986,429.339,434.22,439.903,445.97860000000003,448.26,456.403,461.284,464.467,469.144,473.128,475.383,479.718,485.048,493.67,499.537,504.419,508.1,512.776" svgx:width="0.67,0.48,0.5,0.4,0.29,0.58,0.56,0.55,0.29,0.55,0.44,0.6,0.42,0.33,0.42,0.55,0.5,0.58,0.61,0.55,0.55,0.33,0.58,0.48,0.4,0.55,0.48,0.61,0.29,0.55,0.29,0.48,0.55,0.29,0.58,0.42,0.48,0.44,0.33,0.42,0.55,0.4,0.48,0.56,0.6,0.29,0.4,0.48,0.42,0.55,0.42,0.29,0.56,0.58,0.29,0.61,0.44,0.5,0.58,0.33,0.29,0.56,0.55,0.29,0.48,0.42,0.42,0.55,0.33,0.48,0.48,0.61,0.25,0.55,0.29,0.5,0.58,0.61,0.25,0.55,0.5,0.58,0.61,0.55,0.83,0.5,0.33,0.48,0.4,0.55,0.44,0.55,0.88,0.6,0.5,0.4,0.48,0.61" style="fill:rgb(0,0,0);font-family:URWPalladioL-Roma;font-size:9.96px;stroke:none;">Rearing locusts and other edible insects requires signiﬁcantly less feed, land, and water compared</text>
   <text y="737.026" x="76.535,79.848,85.326,88.932,91.89,94.847,100.588,105.456,109.764,113.077,118.625,123.137,128.7146,132.324,138.421,142.262,147.81,154.019,160.147,164.659,167.971,170.928,176.477,182.391,184.881,188.722,197.197,203.111,206.068,210.58,216.35680000000002,220.031,222.988,227.1712,230.833,236.483,242.397,247.945,256.42,262.1968,265.871,269.173,274.651,278.258,284.172,289.253,294.995,299.7758,303.398,308.37800000000004,312.016,316.324,319.281,324.931,330.845,333.803,339.951,344.462,349.543,355.457,358.7438,362.307,365.264,374.237,380.334,385.415,389.926,393.2128,396.776,402.324,408.1008,411.774,415.087,421.001,425.7818,429.405,434.273,440.187,445.928,448.885,452.716,458.265,464.179,473.152,478.02,483.934,487.22080000000005,490.783,499.258,505.172,510.039,513.87" svgx:width="0.33,0.55,0.55,0.29,0.29,0.56,0.48,0.42,0.33,0.55,0.44,0.56,0.55,0.6,0.4,0.55,0.61,0.6,0.44,0.33,0.29,0.55,0.58,0.25,0.55,0.83,0.58,0.29,0.44,0.58,0.55,0.29,0.42,0.55,0.56,0.58,0.55,0.83,0.58,0.55,0.33,0.55,0.55,0.58,0.5,0.56,0.48,0.55,0.5,0.55,0.42,0.29,0.56,0.58,0.29,0.61,0.44,0.5,0.58,0.33,0.55,0.29,0.88,0.6,0.5,0.44,0.33,0.55,0.55,0.58,0.55,0.33,0.58,0.48,0.55,0.48,0.58,0.56,0.29,0.4,0.55,0.58,0.88,0.48,0.58,0.33,0.55,0.83,0.58,0.48,0.4,0.48" style="fill:rgb(0,0,0);font-family:URWPalladioL-Roma;font-size:9.96px;stroke:none;">to livestock production, which is known to have a signiﬁcant impact on the environment where</text>
   <text y="750.535" x="76.535,82.168,85.988,90.841,95.695,101.591,107.488,113.02,119.13,123.426,128.20680000000002,130.761,136.395,141.461,145.6442,148.229,153.082,162.029,164.977,169.273,173.569,176.517,182.049,187.946,192.1292,194.724,199.79,203.61,208.3908,210.946,219.892,222.841,228.737,231.686,240.632,245.698,248.5864,251.119,259.569,262.517,265.82,271.5968,274.199,279.731,285.628,288.577,294.1546,296.692,301.191,306.723,311.222,316.855,320.675,326.207,331.273,335.771,341.668,346.521,350.817,353.307,355.833,359.136,363.989,367.991,376.938,379.886,383.189,388.042,392.2252,394.81,399.876,405.773,411.84860000000003,414.446,418.742,423.241,428.307,432.309,437.375,442.853,445.45,451.053,455.906,460.759,464.062,467.011,471.864,476.0472,478.642,481.945,487.842,492.908,496.19480000000004,498.693,503.546,512.493,515.441" svgx:width="0.56,0.4,0.48,0.48,0.58,0.58,0.55,0.6,0.42,0.48,0.55,0.56,0.5,0.42,0.55,0.48,0.88,0.29,0.42,0.42,0.29,0.55,0.58,0.42,0.55,0.5,0.4,0.48,0.55,0.88,0.29,0.58,0.29,0.88,0.5,0.29,0.55,0.83,0.29,0.33,0.58,0.55,0.55,0.58,0.29,0.56,0.55,0.44,0.55,0.44,0.56,0.4,0.55,0.5,0.44,0.58,0.48,0.42,0.25,0.55,0.33,0.48,0.4,0.88,0.29,0.33,0.48,0.42,0.55,0.5,0.58,0.61,0.55,0.42,0.44,0.5,0.4,0.5,0.55,0.55,0.55,0.48,0.48,0.33,0.29,0.48,0.42,0.55,0.33,0.58,0.5,0.33,0.55,0.48,0.88,0.29,0.33" style="fill:rgb(0,0,0);font-family:URWPalladioL-Roma;font-size:9.96px;stroke:none;">greenhouse gas emissions are minimal with only cockroaches, termites and scarab beetles that emit</text>
   <text y="764.045" x="76.535,85.499,90.362,93.671,99.58,104.656,110.564,115.34479999999999,117.914,123.559,128.635,132.8182,135.436" svgx:width="0.88,0.48,0.33,0.58,0.5,0.58,0.48,0.55,0.56,0.5,0.42,0.55,0.33" style="fill:rgb(0,0,0);font-family:URWPalladioL-Roma;font-size:9.96px;stroke:none;">methane gas [</text>
   <text y="764.045" x="138.814" svgx:width="0.5" style="fill:rgb(8,117,183);font-family:URWPalladioL-Roma;font-size:9.96px;stroke:none;">2</text>
   <text y="764.045" x="143.796" svgx:width="0.25" style="fill:rgb(0,0,0);font-family:URWPalladioL-Roma;font-size:9.96px;stroke:none;">,</text>
   <text y="764.045" x="146.334" svgx:width="0.5" style="fill:rgb(8,117,183);font-family:URWPalladioL-Roma;font-size:9.96px;stroke:none;">3</text>
   <text y="764.045" x="151.315,154.696,157.186,160.32,166.523,172.065,176.573,182.695,186.999,190.308,194.4912,197.11,203.019,208.095,213.83,218.6108,221.18,225.485,231.393,236.936,240.946,244.2328,246.743,249.697,252.651,256.032,260.8128,263.392,267.899,273.544,278.051,281.005,285.868,290.0512,292.66,295.614,301.39079999999996,304.02,312.486,318.395,321.349,325.856,331.6328,334.252,339.328,345.531,351.652,354.607,357.916,363.824,369.367,374.91,380.98560000000003,383.6,388.108,393.184,398.9608,401.59,407.204,411.9848,414.554,418.381,423.244,428.32,432.827,438.735,443.598,449.6736,452.298,457.374,460.66080000000005,463.171,466.552,472.095,478.216,482.2,484.713,488.023,493.50100000000003,496.063,500.926,503.88,509.525,515.433" svgx:width="0.33,0.25,0.55,0.61,0.55,0.44,0.6,0.42,0.33,0.42,0.55,0.58,0.5,0.56,0.48,0.55,0.42,0.58,0.55,0.4,0.33,0.55,0.29,0.29,0.33,0.48,0.55,0.44,0.56,0.44,0.29,0.48,0.42,0.55,0.29,0.58,0.55,0.83,0.58,0.29,0.44,0.58,0.55,0.5,0.61,0.6,0.29,0.33,0.58,0.55,0.55,0.61,0.55,0.44,0.5,0.58,0.55,0.55,0.48,0.55,0.4,0.48,0.5,0.44,0.58,0.48,0.61,0.55,0.5,0.33,0.55,0.33,0.55,0.6,0.4,0.55,0.33,0.55,0.55,0.48,0.29,0.56,0.58,0.33" style="fill:rgb(0,0,0);font-family:URWPalladioL-Roma;font-size:9.96px;stroke:none;">]. Locusts have short life cycles in which adulthood can be reached at four to eight</text>
   <text y="799.37" x="76.535,79.189,83.62,86.721,89.821,93.065,95.719" svgx:width="0.33,0.56,0.39,0.39,0.41,0.33,0.39" style="fill:rgb(0,0,0);font-family:URWPalladioL-Ital;font-size:7.97px;stroke:none;">Insects</text>
   <text y="799.37" x="102.804,106.789,110.774,114.759" svgx:width="0.5,0.5,0.5,0.5" style="fill:rgb(0,0,0);font-family:URWPalladioL-Bold;font-size:7.97px;stroke:none;">2018</text>
   <text y="799.37" x="118.745" svgx:width="0.25" style="fill:rgb(0,0,0);font-family:URWPalladioL-Roma;font-size:7.97px;stroke:none;">,</text>
   <text y="799.37" x="122.73" svgx:width="0.5" style="fill:rgb(0,0,0);font-family:URWPalladioL-Ital;font-size:7.97px;stroke:none;">9</text>
   <text y="799.37" x="126.715,128.7075,130.7,134.685,138.67,140.6625,142.655,147.525,151.877,154.196,156.188,160.173,164.159,166.151,170.136,174.121,178.106,182.091,186.921,189.24,193.879,197.258,201.076,204.615,207.213,210.592,214.577,218.562,222.547,226.532,230.518,234.503,238.488,403.158,409.805,416.452,422.366,424.358,431.396,436.266,441.056,443.375,445.367,448.906,453.258,460.296,465.125,466.99,471.342,476.148,479.296,483.935,487.92,490.239,495.069,497.388,502.027,505.406,509.224,512.763,515.361" svgx:width="0.25,0.55,0.5,0.5,0.25,0.55,0.61,0.55,0.29,0.25,0.5,0.5,0.25,0.5,0.5,0.5,0.5,0.61,0.29,0.58,0.42,0.48,0.44,0.33,0.42,0.5,0.5,0.5,0.5,0.5,0.5,0.5,0.55,0.83,0.83,0.83,0.25,0.88,0.61,0.6,0.29,0.25,0.44,0.55,0.88,0.61,0.23,0.55,0.6,0.4,0.58,0.5,0.29,0.61,0.29,0.58,0.42,0.48,0.44,0.33,0.42" style="fill:rgb(0,0,0);font-family:URWPalladioL-Roma;font-size:7.97px;stroke:none;">, 20; doi:10.3390/insects9010020 www.mdpi.com/journal/insects</text>
  </g>
 </g>
</svg>
