<?xml version="1.0" encoding="UTF-8"?>
<svg height="643.1" width="4063.1" xmlns="http://www.w3.org/2000/svg">
 <g>
  <text svgx:width="0.61,0.5,0.5,0.25,0.67,0.5,0.33,0.33,0.25,0.67,0.5,0.44,0.78,0.25,0.33,0.61,0.33,0.25,0.33,0.5,0.5,0.5,0.5,0.33,0.25,0.5,0.5,0.5,0.28,0.5" y="39.1" x="282.0,286.6,290.6,294.6,296.6,301.9,305.9,308.8,311.5,313.5,318.8,322.8,326.3,332.6,334.6,337.2,342.1,344.8,346.8,349.5,353.5,357.5,361.5,365.5,368.1,370.1,374.1,378.1,382.1,384.3" style="fill:rgb(0,0,0);font-family:STIX-Regular;font-size:8.0px;stroke:none;" xmlns:svgx="http://www.xml-cml.org/schema/svgx">Top Curr Chem (Z) (2018) 376:3</text>
  <text svgx:width="0.47,0.28,1.97" y="633.1" x="52.5,59.6,63.5" style="fill:rgb(0,0,0);font-family:Springnew-Regular;font-size:15.0px;stroke:none;" xmlns:svgx="http://www.xml-cml.org/schema/svgx">1 3</text>
  <text svgx:width="0.5" y="39.1" x="51.0" style="fill:rgb(0,0,0);font-family:STIX-Bold;font-size:8.0px;stroke:none;" xmlns:svgx="http://www.xml-cml.org/schema/svgx">3</text>
  <text svgx:width="0.25,0.55,0.56,0.44,0.5,0.44,0.25,0.5,0.25,0.5,0.33,0.25,0.5,0.5" y="39.1" x="55.0,57.0,63.0,67.4,71.0,74.8,78.4,80.4,84.4,86.4,90.4,93.0,95.0,99.0" style="fill:rgb(0,0,0);font-family:STIX-Regular;font-size:8.0px;stroke:none;" xmlns:svgx="http://www.xml-cml.org/schema/svgx"> Page 8 of 54</text>
  <text svgx:width="0.44,0.5,0.5,0.28,0.44,0.78,0.5,0.5,0.33,0.44,0.33,0.5,0.25,0.55,0.39,0.44,0.44,0.28,0.5,0.33,0.39,0.25,0.25,0.55,0.5,0.33,0.5,0.78,0.5,0.28,0.28,0.5,0.5,0.25,0.55,0.5,0.5,0.78,0.44,0.5,0.25,0.55,0.44,0.5,0.5,0.25,0.55,0.44,0.5,0.5,0.28,0.33,0.5,0.5,0.78,0.44,0.5,0.28,0.44,0.28,0.25,0.55,0.5,0.44,0.44,0.28,0.28,0.5,0.25,0.55,0.28,0.5,0.39,0.28,0.44,0.44,0.5,0.25,0.55,0.5,0.33,0.25,0.55,0.5,0.44,0.5,0.33" y="328.0" x="51.0,55.5,60.5,65.5,68.2,72.7,80.4,85.4,90.4,93.7,98.2,101.7,106.7,109.2,110.3,114.2,118.6,123.0,125.8,130.8,134.1,138.0,140.5,143.0,144.1,149.1,152.3,157.3,165.1,170.0,172.8,175.6,180.6,185.6,188.1,189.2,194.2,199.2,206.9,211.4,216.4,218.9,219.9,224.4,229.4,234.4,236.9,237.9,242.4,247.0,252.0,254.8,258.1,263.1,268.1,275.9,280.3,285.3,288.2,292.6,295.4,297.9,299.0,304.0,308.4,312.8,315.6,318.5,323.5,326.0,327.0,329.8,334.8,338.6,341.4,345.8,350.3,355.3,357.8,358.8,363.8,367.2,369.7,370.7,375.6,380.0,385.0" style="fill:rgb(0,0,0);font-family:STIX-Regular;font-size:10.0px;stroke:none;" xmlns:svgx="http://www.xml-cml.org/schema/svgx">contemporary sectors, promoting human and environmental health instead of gen-</text>
  <text svgx:width="0.44,0.33,0.44,0.28,0.25,0.44,0.5,0.5,0.25,0.5,0.28,0.5,0.33,0.33,0.44,0.39,0.5,0.28,0.5,0.5,0.44,0.5,0.25,0.33,0.44,0.78,0.44,0.5,0.28,0.44,0.28,0.28,0.5,0.5,0.25,0.33" y="340.0" x="51.0,55.5,58.8,63.2,66.0,69.1,73.5,78.5,83.5,86.6,91.6,94.4,99.4,102.7,105.8,110.2,114.1,119.1,121.9,126.9,131.9,136.3,141.3,144.4,147.7,152.1,159.9,164.3,169.3,172.1,176.6,179.3,182.1,187.1,192.1,195.2" style="fill:rgb(0,0,0);font-family:STIX-Regular;font-size:10.0px;stroke:none;" xmlns:svgx="http://www.xml-cml.org/schema/svgx">eral and old-fashioned remediation [</text>
  <text svgx:width="0.5,0.5" y="340.0" x="198.5,203.5" style="fill:rgb(0,0,255);font-family:STIX-Regular;font-size:10.0px;stroke:none;" xmlns:svgx="http://www.xml-cml.org/schema/svgx">19</text>
  <text svgx:width="0.25,0.25" y="340.0" x="208.5,211.0" style="fill:rgb(0,0,0);font-family:STIX-Regular;font-size:10.0px;stroke:none;" xmlns:svgx="http://www.xml-cml.org/schema/svgx">, </text>
  <text svgx:width="0.5,0.5" y="340.0" x="214.1,219.1" style="fill:rgb(0,0,255);font-family:STIX-Regular;font-size:10.0px;stroke:none;" xmlns:svgx="http://www.xml-cml.org/schema/svgx">38</text>
  <text svgx:width="0.33,0.25,0.25,0.72,0.39,0.25,0.44,0.25,0.33,0.44,0.39,0.5,0.28,0.28,0.25,0.25,0.5,0.44,0.72,0.25,0.44,0.5,0.5,0.28,0.28,0.44,0.44,0.28,0.28,0.5,0.5,0.39,0.25,0.33,0.5,0.33,0.25,0.33,0.5,0.5,0.5,0.25,0.25" y="340.0" x="224.1,227.4,229.9,233.0,240.2,244.1,247.2,251.6,254.7,258.0,262.4,266.3,271.3,274.1,276.9,279.4,282.5,287.5,291.7,298.9,302.0,306.4,311.4,316.4,319.2,322.0,326.4,330.9,333.7,336.4,341.4,346.4,350.3,353.4,356.4,361.4,364.7,367.8,370.8,375.8,380.8,385.8,388.3" style="fill:rgb(0,0,0);font-family:STIX-Regular;font-size:10.0px;stroke:none;" xmlns:svgx="http://www.xml-cml.org/schema/svgx">]. As a result, new applications for food, </text>
  <text svgx:width="0.5,0.5,0.28,0.33,0.44,0.44,0.44,0.5,0.28,0.28,0.44,0.44,0.28,0.25,0.25,0.55,0.44,0.5,0.5,0.25,0.55,0.44,0.5,0.33,0.28,0.44,0.5,0.28,0.28,0.5,0.33,0.44,0.28,0.25,0.55,0.39,0.44,0.44,0.28,0.5,0.33,0.39,0.25,0.55,0.5,0.44,0.5,0.44,0.25,0.55,0.5,0.44,0.44,0.5,0.25,0.55,0.33,0.5,0.33,0.28,0.5,0.44,0.33,0.25,0.55,0.44,0.5,0.5,0.28,0.5,0.33,0.44,0.5,0.25,0.25,0.55,0.5,0.44,0.39,0.44,0.5,0.25,0.55,0.5,0.5,0.25,0.55,0.28,0.5,0.44,0.28,0.33,0.25" y="352.0" x="51.0,56.0,61.0,63.8,67.1,71.6,76.0,80.4,85.4,88.2,91.0,95.4,99.9,102.7,105.2,107.7,109.3,113.7,118.7,123.7,126.2,127.9,132.3,137.4,141.0,143.7,148.2,153.2,156.0,158.7,163.7,167.0,171.5,174.3,176.8,178.4,182.3,186.7,191.2,193.9,198.9,202.3,206.2,208.7,210.3,215.3,219.4,224.2,228.6,231.1,232.8,237.8,242.2,246.7,251.7,254.2,255.8,259.1,264.1,267.7,270.6,275.6,280.0,283.3,285.8,287.5,291.7,296.7,301.7,304.5,309.5,312.8,317.2,322.2,324.7,327.2,328.9,333.9,338.3,342.2,346.7,351.7,354.2,355.8,360.8,365.8,368.3,370.0,372.8,377.8,382.3,385.0,388.4" style="fill:rgb(0,0,0);font-family:STIX-Regular;font-size:10.0px;stroke:none;" xmlns:svgx="http://www.xml-cml.org/schema/svgx">nutraceutical, and agricultural sectors have been further explored, based on their </text>
  <text svgx:width="0.44,0.5,0.5,0.44,0.5,0.28,0.44,0.5,0.44,0.5,0.5,0.39,0.25,0.5,0.33,0.5,0.5,0.44,0.33,0.28,0.28,0.44,0.39,0.25,0.44,0.39,0.25,0.5,0.44,0.28,0.5,0.33,0.44,0.28,0.25,0.44,0.5,0.28,0.5,0.33,0.44,0.5,0.28,0.39,0.25,0.25,0.56,0.44,0.5,0.5,0.33,0.39,0.25,0.25,0.44,0.33,0.5,0.78,0.44,0.39,0.25,0.25,0.44,0.5,0.28,0.28,0.5,0.5,0.28,0.5,0.44,0.5,0.28,0.39,0.25,0.25,0.44,0.5,0.28,0.28,0.33,0.5,0.5,0.33" y="364.0" x="51.0,55.5,60.5,65.3,69.7,74.7,77.6,82.0,86.9,91.3,96.3,101.3,105.2,108.3,113.3,116.5,121.5,126.5,131.0,134.5,137.3,140.1,144.5,148.4,151.5,155.9,159.8,162.9,167.9,172.3,175.1,180.1,183.4,187.8,190.6,193.7,198.1,203.1,205.9,210.9,214.2,218.7,223.7,226.4,230.3,232.8,235.9,241.4,245.6,250.3,255.3,258.6,262.5,265.0,268.1,272.5,275.8,280.8,288.6,293.0,296.9,299.4,302.5,306.9,311.9,314.7,317.5,322.2,327.2,330.0,335.0,339.5,344.5,347.2,351.1,353.6,356.7,361.1,366.1,368.9,371.7,375.0,380.0,385.0" style="fill:rgb(0,0,0);font-family:STIX-Regular;font-size:10.0px;stroke:none;" xmlns:svgx="http://www.xml-cml.org/schema/svgx">advantageous properties as natural colorants, flavors, aromas, antioxidants, antifun-</text>
  <text svgx:width="0.5,0.44,0.28,0.39,0.25,0.25,0.55,0.5,0.28,0.5,0.33,0.5,0.33,0.78,0.5,0.28,0.44,0.28,0.28,0.5,0.5,0.39,0.25,0.55,0.33,0.5,0.28,0.5,0.33,0.5,0.44,0.39,0.28,0.28,0.44,0.28,0.5,0.44,0.39,0.33,0.25,0.55,0.5,0.33,0.25,0.55,0.39,0.28,0.78,0.5,0.28,0.5,0.25,0.55,0.28,0.5,0.44,0.28,0.33,0.25,0.55,0.5,0.39,0.44,0.25,0.55,0.44,0.39,0.25,0.55,0.5,0.33,0.44,0.44,0.5,0.33,0.39,0.5,0.33,0.39,0.25,0.55,0.28,0.5,0.25,0.55,0.5,0.44,0.5,0.44,0.33,0.44,0.28,0.44,0.25" y="376.0" x="51.0,55.9,60.4,63.1,67.0,69.5,72.0,73.0,78.0,80.7,85.7,88.8,93.8,97.3,105.1,110.1,112.8,117.3,120.1,122.8,127.8,132.8,136.7,139.2,140.2,143.5,148.5,151.3,156.3,159.6,164.6,169.1,172.9,175.7,178.4,182.9,185.7,190.7,195.1,199.0,202.3,204.8,205.8,210.8,214.1,216.6,217.5,221.4,224.2,232.0,237.0,239.5,244.5,247.0,248.0,250.8,255.8,260.3,263.0,266.4,268.9,269.8,274.8,278.7,283.2,285.7,286.6,291.0,294.9,297.4,298.4,303.4,306.7,311.1,315.6,320.6,323.9,327.8,332.8,336.1,340.0,342.5,343.4,346.2,351.2,353.7,354.6,359.5,363.9,368.9,373.4,376.7,381.1,383.9,388.3" style="fill:rgb(0,0,0);font-family:STIX-Regular;font-size:10.0px;stroke:none;" xmlns:svgx="http://www.xml-cml.org/schema/svgx">gals, bioformulations (bio-pesticides) or simply their use as precursors to generate </text>
  <text svgx:width="0.5,0.28,0.5,0.44,0.33,0.25,0.55,0.44,0.5,0.78,0.5,0.5,0.5,0.5,0.5,0.39,0.25,0.55,0.33,0.5,0.33,0.25,0.55,0.39,0.28,0.78,0.28,0.28,0.44,0.33,0.25,0.55,0.5,0.39,0.44,0.39,0.25,0.25,0.55,0.56,0.5,0.78,0.44,0.25,0.55,0.5,0.44,0.28,0.44,0.28,0.28,0.39,0.25,0.55,0.33,0.44,0.28,0.44,0.28,0.44,0.5,0.25,0.55,0.28,0.5,0.25,0.55,0.5,0.44,0.28,0.44,0.5,0.28,0.39,0.25,0.25,0.55,0.33,0.5,0.5,0.5,0.33,0.33,0.25,0.55,0.44,0.28,0.28,0.5,0.28,0.44,0.44,0.28,0.25" y="388.0" x="51.0,55.9,58.8,63.8,68.2,71.6,74.1,75.5,79.9,84.9,92.7,97.7,102.7,107.7,112.7,117.7,121.5,124.0,125.4,128.4,133.4,136.8,139.3,140.7,144.5,147.3,155.1,157.9,160.7,165.1,168.4,170.9,172.3,177.3,181.2,185.7,189.5,192.0,194.5,195.9,201.5,206.5,214.3,218.7,221.2,222.6,227.6,232.0,234.8,239.3,242.1,244.8,248.7,251.2,252.6,255.9,260.4,263.1,267.6,270.4,274.8,279.8,282.3,283.7,286.4,291.4,293.9,295.3,300.3,304.8,307.6,312.0,317.0,319.8,323.7,326.2,328.7,330.1,333.4,338.4,343.4,348.4,351.7,355.0,357.5,358.9,363.4,366.2,368.9,373.9,376.7,381.2,385.6,388.4" style="fill:rgb(0,0,0);font-family:STIX-Regular;font-size:10.0px;stroke:none;" xmlns:svgx="http://www.xml-cml.org/schema/svgx">other compounds for similar uses. Some details related to patents, (non-) clinical </text>
  <text svgx:width="0.28,0.33,0.28,0.44,0.28,0.39,0.25,0.25,0.55,0.39,0.5,0.39,0.28,0.44,0.28,0.5,0.44,0.5,0.28,0.44,0.25,0.55,0.28,0.5,0.5,0.28,0.44,0.44,0.28,0.5,0.33,0.39,0.25,0.25,0.55,0.39,0.44,0.44,0.28,0.28,0.5,0.5,0.33,0.5,0.5,0.25,0.25,0.55,0.33,0.44,0.5,0.5,0.28,0.44,0.28,0.5,0.33,0.5,0.25,0.25,0.55,0.44,0.5,0.33,0.5,0.33,0.28,0.5,0.5,0.5,0.39,0.28,0.33,0.28,0.44,0.28,0.25,0.55,0.5,0.44,0.33,0.28,0.44,0.5,0.28,0.28,0.28,0.28,0.5,0.25,0.55,0.44,0.5,0.5,0.25" y="400.0" x="51.0,53.8,57.3,60.1,64.5,67.3,71.2,73.7,76.2,77.5,81.4,86.4,90.2,93.0,97.5,100.3,105.3,109.7,114.7,117.5,121.9,124.4,125.7,128.5,133.5,138.5,141.2,145.7,150.1,152.9,157.9,161.2,165.1,167.6,170.1,171.3,175.2,179.7,184.1,186.9,189.7,194.7,199.7,203.0,208.0,213.0,215.5,218.0,219.3,222.6,227.0,232.0,237.0,239.8,244.2,247.0,252.0,255.5,260.0,262.5,265.0,266.2,270.7,275.8,279.1,284.1,287.4,290.2,295.2,300.2,305.2,309.0,311.8,315.3,318.1,322.5,325.3,327.8,329.0,333.8,338.3,341.8,344.6,349.0,354.0,356.8,359.6,362.3,365.1,370.1,372.6,373.9,378.3,383.3,388.3" style="fill:rgb(0,0,0);font-family:STIX-Regular;font-size:10.0px;stroke:none;" xmlns:svgx="http://www.xml-cml.org/schema/svgx">trials, sustainable indicators, scaling-up, regulatory, agro-industrial variability and </text>
  <text svgx:width="0.44,0.5,0.44,0.28,0.28,0.44,0.5,0.28,0.28,0.28,0.28,0.5,0.25,0.25,0.55,0.28,0.33,0.44,0.44,0.44,0.44,0.5,0.28,0.28,0.28,0.28,0.5,0.25,0.25,0.55,0.39,0.44,0.44,0.39,0.5,0.5,0.44,0.28,0.28,0.28,0.5,0.25,0.25,0.55,0.5,0.5,0.5,0.5,0.25,0.55,0.28,0.44,0.5,0.5,0.33,0.44,0.28,0.5,0.33,0.5,0.25,0.55,0.44,0.5,0.5,0.25,0.55,0.78,0.44,0.5,0.5,0.33,0.44,0.44,0.28,0.5,0.33,0.28,0.5,0.5,0.25,0.55,0.5,0.33,0.44,0.44,0.28,0.28,0.44,0.44,0.39,0.25,0.25" y="412.0" x="51.0,55.1,59.9,64.4,67.2,69.9,74.4,79.4,82.2,84.9,87.7,90.5,95.0,97.5,100.0,101.1,103.9,107.2,111.7,116.1,120.5,125.0,130.0,132.8,135.5,138.3,141.1,145.6,148.1,150.6,151.7,155.6,160.0,164.5,168.4,173.4,178.4,182.8,185.6,188.4,191.2,195.6,198.1,200.6,201.8,206.8,211.8,216.8,221.8,224.3,225.4,228.2,232.6,237.6,242.6,246.0,250.4,253.2,258.2,261.7,266.7,269.2,270.3,274.8,279.8,284.8,287.3,288.4,296.2,300.7,305.7,310.7,313.7,318.2,322.6,325.4,330.4,333.9,336.7,341.7,346.7,349.2,350.3,355.3,358.6,363.1,367.5,370.3,373.1,377.5,382.0,385.9,388.4" style="fill:rgb(0,0,0);font-family:STIX-Regular;font-size:10.0px;stroke:none;" xmlns:svgx="http://www.xml-cml.org/schema/svgx">availability, traceability, seasonality, good laboratory and manufacturing practices, </text>
  <text svgx:width="0.44,0.5,0.5,0.28,0.28,0.28,0.5,0.5,0.44,0.28,0.25,0.44,0.44,0.5,0.5,0.5,0.78,0.28,0.44,0.44,0.28,0.25,0.44,0.5,0.5,0.25,0.78,0.44,0.33,0.5,0.44,0.28,0.28,0.5,0.5,0.25,0.28,0.39,0.39,0.5,0.44,0.39,0.25,0.5,0.44,0.5,0.44,0.25,0.44,0.28,0.39,0.5,0.25,0.5,0.44,0.44,0.5,0.25,0.5,0.28,0.39,0.44,0.5,0.39,0.39,0.44,0.5,0.25" y="424.0" x="51.0,55.5,60.5,65.5,68.2,71.0,73.8,78.8,83.8,88.2,91.0,93.5,98.0,102.4,107.4,112.4,117.4,125.2,128.0,132.4,136.8,139.6,142.1,146.6,151.6,156.6,159.1,166.8,171.3,174.5,179.4,183.8,186.5,189.3,194.3,199.3,201.8,204.6,208.5,212.4,217.4,221.8,225.7,228.2,233.2,237.3,242.1,246.5,249.0,253.5,256.3,260.1,265.1,267.6,272.6,277.1,281.5,286.5,289.0,294.0,296.8,300.7,305.1,310.1,314.0,317.9,322.4,327.4" style="fill:rgb(0,0,0);font-family:STIX-Regular;font-size:10.0px;stroke:none;" xmlns:svgx="http://www.xml-cml.org/schema/svgx">additional economical and marketing issues have also been discussed.</text>
  <text svgx:width="0.61,0.44,0.5,0.28,0.44,0.25" y="436.0" x="62.4,68.1,72.5,77.5,80.3,84.8" style="fill:rgb(0,0,0);font-family:STIX-Regular;font-size:10.0px;stroke:none;" xmlns:svgx="http://www.xml-cml.org/schema/svgx">Table </text>
  <text svgx:width="0.5" y="436.0" x="88.5" style="fill:rgb(0,0,255);font-family:STIX-Regular;font-size:10.0px;stroke:none;" xmlns:svgx="http://www.xml-cml.org/schema/svgx">1</text>
  <text svgx:width="0.25,0.55,0.5,0.33,0.44,0.39,0.44,0.5,0.28,0.39,0.25,0.55,0.28,0.5,0.44,0.25,0.55,0.33,0.44,0.39,0.44,0.44,0.33,0.44,0.5,0.25,0.55,0.5,0.44,0.5,0.44,0.33,0.39,0.25,0.55,0.44,0.5,0.5,0.25,0.55,0.33,0.44,0.5,0.28,0.44,0.72,0.39,0.25,0.55,0.5,0.5,0.5,0.28,0.28,0.39,0.5,0.44,0.5,0.25,0.55,0.5,0.5,0.33,0.28,0.5,0.5,0.25,0.55,0.28,0.5,0.28,0.39,0.25,0.55,0.5,0.44,0.33,0.28,0.5,0.5,0.25,0.25" y="436.0" x="93.5,96.0,97.3,102.3,105.6,110.0,113.9,118.4,123.4,126.2,130.0,132.5,133.8,136.7,141.7,146.1,148.6,149.9,153.2,157.6,161.5,166.0,170.4,173.7,178.0,183.0,185.5,186.8,191.8,196.2,201.2,205.6,209.0,212.9,215.4,216.6,221.1,226.1,231.1,233.6,234.8,238.2,242.4,247.4,250.2,254.4,261.4,265.3,267.8,269.1,274.1,279.1,284.1,286.9,289.6,293.5,298.5,303.0,308.0,310.5,311.7,316.7,321.7,325.3,328.0,333.0,338.0,340.5,341.8,344.7,349.7,352.5,356.3,358.8,360.1,365.1,369.6,373.1,375.9,380.9,385.9,388.4" style="fill:rgb(0,0,0);font-family:STIX-Regular;font-size:10.0px;stroke:none;" xmlns:svgx="http://www.xml-cml.org/schema/svgx"> presents the research papers and reviews published during this period, </text>
  <text svgx:width="0.5,0.28,0.5,0.5,0.28,0.28,0.5,0.5,0.28,0.28,0.5,0.5,0.25,0.55,0.28,0.5,0.44,0.28,0.33,0.25,0.55,0.78,0.44,0.28,0.5,0.25,0.55,0.33,0.5,0.44,0.5,0.39,0.25,0.25,0.55,0.28,0.5,0.44,0.25,0.55,0.5,0.33,0.44,0.44,0.5,0.25,0.55,0.5,0.33,0.25,0.55,0.39,0.5,0.39,0.28,0.44,0.28,0.5,0.44,0.5,0.28,0.44,0.25,0.55,0.28,0.44,0.44,0.5,0.5,0.28,0.5,0.5,0.44,0.39,0.28,0.44,0.5,0.5,0.33,0.5,0.44,0.44,0.5,0.44,0.39,0.25" y="448.0" x="51.0,56.0,58.8,63.8,68.8,71.6,74.4,79.4,84.4,87.1,89.9,94.9,99.9,102.4,106.0,108.9,113.9,118.3,121.1,124.4,126.9,130.5,138.3,142.8,145.5,150.5,153.0,156.6,159.6,164.6,169.1,174.1,178.0,180.5,183.0,186.6,189.4,194.4,198.9,201.4,205.0,210.1,213.4,217.8,222.3,227.3,229.8,233.4,238.4,241.7,244.2,247.8,251.7,256.7,260.5,263.4,267.8,270.6,275.6,280.0,285.0,287.8,292.3,294.8,298.4,301.1,305.6,309.9,314.9,319.9,322.6,327.5,332.5,336.9,340.8,343.6,348.1,353.1,358.1,361.3,366.3,370.8,375.0,380.0,384.5,388.4" style="fill:rgb(0,0,0);font-family:STIX-Regular;font-size:10.0px;stroke:none;" xmlns:svgx="http://www.xml-cml.org/schema/svgx">highlighting their main focus, the green or sustainable techniques/approaches </text>
  <text svgx:width="0.44,0.5,0.5,0.5,0.28,0.44,0.5,0.25,0.25,0.55,0.33,0.44,0.72,0.25,0.55,0.78,0.44,0.28,0.44,0.33,0.28,0.44,0.28,0.39,0.25,0.55,0.33,0.78,0.5,0.39,0.28,0.28,0.5,0.25,0.55,0.44,0.5,0.33,0.5,0.33,0.28,0.5,0.5,0.5,0.39,0.28,0.33,0.28,0.44,0.28,0.25,0.55,0.72,0.44,0.39,0.28,0.44,0.33,0.25,0.55,0.44,0.5,0.5,0.25,0.55,0.28,0.44,0.33,0.5,0.44,0.28,0.25,0.55,0.44,0.5,0.78,0.5,0.5,0.5,0.5,0.5,0.39,0.25,0.55,0.39,0.28,0.5,0.5,0.33" y="460.0" x="51.0,55.5,60.5,65.5,70.5,73.2,77.7,82.7,85.2,87.7,88.9,92.2,96.3,103.6,106.1,107.3,115.1,119.5,122.3,126.8,130.3,133.1,137.5,140.3,144.2,146.7,147.9,151.2,159.0,164.0,167.8,170.6,173.2,178.2,180.7,181.9,186.4,191.5,194.7,199.7,203.1,205.9,210.9,215.9,220.9,224.7,227.4,231.0,233.7,238.2,241.0,243.5,244.7,251.7,256.1,259.9,262.7,267.1,270.5,273.0,274.2,278.6,283.6,288.6,291.1,292.4,295.3,299.7,302.9,307.7,312.1,314.9,317.4,318.6,323.1,328.1,335.8,340.8,345.8,350.8,355.8,360.8,364.7,367.2,368.4,372.3,375.0,380.0,385.0" style="fill:rgb(0,0,0);font-family:STIX-Regular;font-size:10.0px;stroke:none;" xmlns:svgx="http://www.xml-cml.org/schema/svgx">adopted, raw materials (mostly agro-industrial waste) and target compounds stud-</text>
  <text svgx:width="0.28,0.44,0.5,0.25,0.25,0.61,0.5,0.44,0.25,0.78,0.5,0.39,0.28,0.25,0.44,0.5,0.78,0.78,0.5,0.5,0.25,0.33,0.44,0.72,0.25,0.78,0.44,0.28,0.44,0.33,0.28,0.44,0.28,0.39,0.25,0.5,0.44,0.39,0.44,0.33,0.28,0.5,0.44,0.5,0.25,0.44,0.39,0.25,0.44,0.5,0.44,0.78,0.28,0.44,0.44,0.28,0.25,0.33,0.44,0.44,0.5,0.39,0.28,0.5,0.44,0.5,0.39,0.25,0.72,0.44,0.33,0.44,0.25,0.72,0.44,0.39,0.28,0.44,0.25" y="472.0" x="51.0,53.8,58.2,63.2,65.7,68.9,75.1,80.1,84.5,87.7,95.5,100.5,104.3,107.1,110.3,114.7,119.7,127.5,135.3,140.3,145.3,148.5,151.8,155.9,163.1,166.3,174.1,178.5,181.3,185.7,189.3,192.0,196.5,199.3,203.2,206.4,211.4,215.8,219.7,224.1,227.6,230.4,235.4,239.9,244.9,248.1,252.5,256.4,259.6,263.9,268.9,273.3,281.1,283.9,288.3,292.8,295.5,298.7,301.7,306.2,310.6,315.6,319.4,322.2,327.2,331.4,336.4,340.3,343.5,350.6,355.0,358.3,362.8,366.0,372.9,377.3,381.2,383.9,388.4" style="fill:rgb(0,0,0);font-family:STIX-Regular;font-size:10.0px;stroke:none;" xmlns:svgx="http://www.xml-cml.org/schema/svgx">ied. The most common raw materials described as chemical feedstocks were waste </text>
  <text svgx:width="0.5,0.44,0.33,0.28,0.5,0.44,0.5,0.25,0.33,0.33,0.5,0.78,0.25,0.5,0.28,0.44,0.5,0.28,0.39,0.25,0.25,0.33,0.5,0.33,0.25,0.28,0.5,0.39,0.28,0.44,0.5,0.44,0.44,0.25,0.25,0.33,0.5,0.5,0.5,0.25,0.25,0.78,0.44,0.28,0.5,0.28,0.5,0.25,0.33,0.33,0.5,0.28,0.28,0.39,0.25,0.33,0.44,0.28,0.28,0.33,0.5,0.39,0.25,0.25,0.78,0.44,0.5,0.5,0.5,0.25,0.25,0.5,0.44,0.5,0.44,0.5,0.44,0.25,0.25,0.5,0.33,0.44,0.5,0.44,0.25,0.25" y="484.0" x="51.0,56.0,60.5,64.0,66.8,71.5,76.0,81.0,83.9,87.2,90.5,95.5,103.3,106.2,111.2,114.0,118.4,123.4,126.2,130.1,132.6,135.6,138.6,143.6,146.9,149.8,152.6,157.6,161.4,164.3,168.7,173.7,178.2,182.6,185.1,188.1,191.1,196.1,201.1,206.1,208.6,211.5,219.3,223.7,226.5,231.5,234.1,239.1,242.0,245.4,248.9,253.9,256.7,259.5,263.4,266.3,269.6,274.1,276.9,279.6,283.2,288.2,292.1,294.6,297.5,305.3,309.8,314.8,319.8,324.8,327.3,330.2,335.2,339.6,344.6,348.8,353.7,358.1,360.6,363.5,368.6,372.0,376.4,381.4,385.8,388.3" style="fill:rgb(0,0,0);font-family:STIX-Regular;font-size:10.0px;stroke:none;" xmlns:svgx="http://www.xml-cml.org/schema/svgx">derived from plants, for instance, food, mainly fruits (citrus, mango, papaya, grape, </text>
  <text svgx:width="0.5,0.44,0.39,0.39,0.28,0.56,0.5,0.33,0.44,0.25,0.25,0.55,0.5,0.44,0.5,0.44,0.5,0.44,0.25,0.25,0.55,0.28,0.5,0.78,0.44,0.28,0.5,0.25,0.25,0.55,0.5,0.28,0.28,0.5,0.44,0.33,0.25,0.25,0.55,0.5,0.33,0.44,0.28,0.5,0.39,0.25,0.55,0.33,0.44,0.5,0.33,0.5,0.25,0.25,0.55,0.39,0.5,0.5,0.5,0.44,0.44,0.5,0.25,0.25,0.55,0.39,0.5,0.5,0.56,0.5,0.72,0.44,0.33,0.25,0.25,0.55,0.44,0.5,0.61,0.44,0.44,0.33,0.25,0.55,0.44,0.5,0.5,0.25" y="496.0" x="51.0,56.0,60.5,64.4,68.2,71.0,76.6,81.6,84.9,89.3,91.8,94.3,96.6,101.6,106.1,111.1,115.5,120.5,124.9,127.4,129.9,132.2,135.0,140.0,147.8,152.2,155.0,160.0,162.5,165.0,167.2,172.2,175.0,177.8,182.6,187.0,190.3,192.8,195.3,197.6,202.7,206.0,210.5,213.3,218.3,222.1,224.6,226.9,230.3,234.7,239.7,243.2,248.2,250.7,253.2,255.5,259.4,264.2,269.2,274.2,278.6,283.1,288.1,290.6,293.1,295.4,299.2,304.2,309.2,314.8,319.6,326.6,331.1,334.1,336.6,339.1,341.4,345.9,350.9,356.9,361.4,365.8,369.1,371.6,373.9,378.3,383.3,388.3" style="fill:rgb(0,0,0);font-family:STIX-Regular;font-size:10.0px;stroke:none;" xmlns:svgx="http://www.xml-cml.org/schema/svgx">passiflora, banana, tomato, olive), grains (corn, soybean, sunflower , coffe e) and </text>
  <text svgx:width="0.5,0.28,0.5,0.44,0.33,0.25,0.44,0.5,0.5,0.5,0.5,0.44,0.5,0.28,0.25,0.78,0.44,0.28,0.44,0.33,0.28,0.44,0.28,0.39,0.25,0.33,0.39,0.5,0.5,0.44,0.33,0.44,0.44,0.5,0.44,0.25,0.5,0.44,0.5,0.44,0.39,0.39,0.44,0.25,0.25,0.28,0.44,0.44,0.25,0.25,0.72,0.5,0.5,0.5,0.25,0.5,0.44,0.33,0.5,0.25,0.25,0.33,0.28,0.44,0.44,0.25,0.44,0.5,0.5,0.25,0.72,0.5,0.44,0.44,0.28,0.25,0.39,0.28,0.33,0.44,0.72,0.33,0.25,0.25" y="508.0" x="51.0,55.9,58.8,63.8,68.2,71.6,74.3,78.7,83.7,88.7,93.7,98.7,103.2,108.2,110.9,113.6,121.4,125.9,128.6,133.1,136.6,139.4,143.8,146.6,150.5,153.2,156.5,160.4,165.4,170.3,174.7,178.0,182.5,186.9,191.9,196.4,199.1,204.1,208.5,213.4,217.8,221.7,225.6,230.1,232.6,235.3,238.0,242.5,246.9,249.4,252.1,259.1,264.1,269.1,274.1,276.8,281.8,286.2,289.5,294.5,297.0,299.7,303.2,306.0,310.5,314.9,317.6,322.0,327.0,332.0,334.7,342.0,347.0,351.4,355.8,358.6,361.3,365.1,367.9,371.2,375.3,382.6,385.9,388.4" style="fill:rgb(0,0,0);font-family:STIX-Regular;font-size:10.0px;stroke:none;" xmlns:svgx="http://www.xml-cml.org/schema/svgx">other abundant materials (sugarcane bagasse, tea, wood bark, rice and wheat straw). </text>
  <text svgx:width="0.72,0.5,0.5,0.28,0.28,0.28,0.5,0.5,0.44,0.28,0.25,0.55,0.28,0.39,0.39,0.5,0.44,0.39,0.25,0.55,0.28,0.5,0.44,0.28,0.25,0.55,0.44,0.61,0.44,0.44,0.28,0.25,0.55,0.28,0.5,0.44,0.25,0.55,0.5,0.5,0.44,0.28,0.28,0.28,0.5,0.25,0.55,0.5,0.33,0.25,0.55,0.28,0.5,0.44,0.25,0.55,0.56,0.5,0.44,0.28,0.25,0.55,0.5,0.33,0.5,0.5,0.5,0.44,0.28,0.39,0.25,0.55,0.72,0.44,0.33,0.44,0.25,0.55,0.44,0.28,0.39,0.5,0.25,0.55,0.5,0.28,0.39,0.44,0.5,0.39,0.39,0.44,0.5,0.25,0.25" y="520.0" x="51.0,58.1,63.1,68.1,70.9,73.6,76.4,81.4,86.4,90.9,93.6,96.1,97.4,100.1,104.0,107.9,112.9,117.4,121.2,123.7,125.0,127.8,132.8,137.3,140.0,142.5,143.8,148.2,154.3,158.7,163.1,165.9,168.4,169.6,172.5,177.5,181.9,184.4,185.7,190.5,195.5,200.0,202.7,205.5,208.3,213.3,215.8,217.0,222.0,225.4,227.9,229.1,231.9,236.9,241.4,243.9,245.1,250.7,255.7,260.1,262.9,265.4,266.6,271.6,274.9,279.9,284.9,289.9,294.3,297.1,301.0,303.5,304.7,311.8,316.2,319.5,323.9,326.4,327.7,332.1,334.9,338.8,343.8,346.3,347.5,352.5,355.3,359.2,363.6,368.6,372.5,376.4,380.8,385.8,388.3" style="fill:rgb(0,0,0);font-family:STIX-Regular;font-size:10.0px;stroke:none;" xmlns:svgx="http://www.xml-cml.org/schema/svgx">Additional issues that affect the quality of the fina l product s wer e als o discussed, </text>
  <text svgx:width="0.5,0.44,0.78,0.44,0.28,0.5,0.25,0.55,0.28,0.5,0.44,0.25,0.55,0.5,0.33,0.5,0.44,0.44,0.5,0.5,0.33,0.44,0.25,0.55,0.5,0.39,0.44,0.5,0.25,0.55,0.33,0.5,0.33,0.25,0.55,0.72,0.44,0.39,0.28,0.44,0.25,0.55,0.44,0.5,0.28,0.28,0.44,0.44,0.28,0.28,0.5,0.5,0.25,0.25,0.55,0.39,0.44,0.28,0.44,0.44,0.28,0.28,0.5,0.5,0.25,0.25,0.55,0.39,0.28,0.5,0.33,0.44,0.5,0.44,0.25,0.25,0.55,0.5,0.33,0.5,0.28,0.5,0.5,0.25,0.25,0.55,0.78,0.44,0.28,0.33,0.28,0.5,0.25" y="532.0" x="51.0,56.0,60.5,68.2,72.7,75.3,80.3,82.8,84.0,86.9,91.9,96.3,98.8,100.1,105.1,108.3,113.3,117.8,122.2,127.2,132.2,135.5,140.0,142.5,143.7,148.7,152.6,157.1,162.1,164.6,165.8,168.8,173.8,177.2,179.7,180.9,187.9,192.3,196.1,198.9,203.3,205.8,207.1,211.5,216.5,219.3,222.1,226.5,231.0,233.8,236.5,241.5,246.5,249.0,251.5,252.8,256.7,261.1,263.9,268.3,272.8,275.6,278.3,283.3,288.3,290.8,293.3,294.6,298.4,301.2,306.2,309.5,313.9,318.8,323.2,325.7,328.2,329.5,334.5,338.0,343.0,345.8,350.8,355.8,358.3,360.8,362.1,369.8,374.3,377.1,380.6,383.4,388.4" style="fill:rgb(0,0,0);font-family:STIX-Regular;font-size:10.0px;stroke:none;" xmlns:svgx="http://www.xml-cml.org/schema/svgx">namely the procedure used for waste collection, selection, storage, drying, matrix </text>
  <text svgx:width="0.44,0.5,0.44,0.33,0.44,0.44,0.28,0.44,0.33,0.28,0.39,0.28,0.28,0.44,0.39,0.25,0.55,0.33,0.5,0.44,0.33,0.28,0.28,0.44,0.28,0.44,0.25,0.55,0.39,0.28,0.44,0.44,0.25,0.25,0.55,0.39,0.5,0.44,0.5,0.44,0.25,0.25,0.55,0.39,0.5,0.44,0.44,0.28,0.56,0.44,0.25,0.55,0.39,0.5,0.33,0.33,0.44,0.44,0.44,0.25,0.55,0.44,0.33,0.44,0.44,0.25,0.55,0.44,0.5,0.5,0.25,0.55,0.5,0.5,0.33,0.5,0.39,0.28,0.28,0.5,0.33,0.25,0.25,0.55,0.61,0.5,0.44,0.25,0.55,0.28,0.44,0.28,0.33" y="544.0" x="51.0,55.3,60.3,64.7,68.1,72.5,76.9,79.7,84.2,87.7,90.5,94.3,97.0,99.8,104.3,108.2,110.7,112.7,116.0,121.0,125.5,129.0,131.8,134.6,139.0,141.8,146.3,148.8,150.8,154.7,157.5,161.9,166.4,168.9,171.4,173.4,177.3,182.3,186.7,191.7,196.2,198.7,201.2,203.2,207.1,212.1,216.5,221.0,223.8,229.3,233.8,236.3,238.3,242.2,247.2,250.7,253.8,258.3,262.7,267.1,269.6,271.7,276.1,279.4,283.9,288.3,290.8,292.9,297.3,302.3,307.3,309.8,311.8,316.8,321.8,325.1,330.1,334.0,336.8,339.6,344.6,347.9,350.4,352.9,354.9,361.0,366.0,370.5,373.0,375.0,377.8,382.3,385.0" style="fill:rgb(0,0,0);font-family:STIX-Regular;font-size:10.0px;stroke:none;" xmlns:svgx="http://www.xml-cml.org/schema/svgx">characteristics (particle size, shape, specific surface area and porosity). The lat-</text>
  <text svgx:width="0.28,0.44,0.33,0.25,0.44,0.39,0.5,0.44,0.44,0.28,0.39,0.25,0.5,0.28,0.44,0.5,0.25,0.44,0.5,0.25,0.28,0.78,0.5,0.5,0.33,0.28,0.44,0.5,0.28,0.25,0.33,0.5,0.28,0.44,0.25,0.28,0.5,0.25,0.44,0.5,0.28,0.33,0.44,0.44,0.28,0.28,0.5,0.5,0.25,0.44,0.83,0.44,0.28,0.44,0.5,0.44,0.5,0.25,0.5,0.5,0.44,0.25,0.28,0.5,0.25,0.28,0.5,0.44,0.25,0.78,0.44,0.39,0.39,0.25,0.44,0.5,0.5,0.25,0.5,0.44,0.44,0.28,0.25" y="556.0" x="51.0,53.8,58.2,61.6,64.8,69.2,73.1,78.1,82.5,87.0,89.8,93.7,96.9,101.9,104.6,108.8,113.8,117.0,121.4,126.4,129.6,132.4,140.2,145.2,150.2,153.7,156.6,161.1,166.1,168.8,172.0,175.3,180.3,183.1,187.5,190.7,193.5,198.5,201.7,205.9,210.9,213.7,217.0,221.5,225.9,228.7,231.5,236.5,241.5,244.7,249.1,257.4,261.9,264.6,269.1,274.1,278.5,283.5,286.7,291.7,296.7,301.2,304.4,307.1,312.1,315.3,318.2,323.2,327.6,330.8,338.6,343.0,346.9,350.8,354.0,358.5,363.5,368.5,371.7,376.7,381.1,385.5,388.3" style="fill:rgb(0,0,0);font-family:STIX-Regular;font-size:10.0px;stroke:none;" xmlns:svgx="http://www.xml-cml.org/schema/svgx">ter aspects play an important role in extraction efficiency due to the mass and heat </text>
  <text svgx:width="0.28,0.33,0.44,0.5,0.39,0.33,0.44,0.33,0.25,0.5,0.33,0.5,0.44,0.44,0.39,0.39,0.44,0.39,0.25,0.25,0.72,0.5,0.5,0.44,0.33,0.39,0.28,0.44,0.5,0.5,0.28,0.5,0.5,0.25,0.28,0.5,0.44,0.25,0.5,0.44,0.28,0.5,0.33,0.44,0.25,0.5,0.33,0.25,0.33,0.44,0.72,0.25,0.78,0.44,0.28,0.44,0.33,0.28,0.44,0.28,0.25,0.28,0.39,0.25,0.44,0.33,0.5,0.44,0.28,0.44,0.28,0.25,0.28,0.5,0.25,0.44,0.5,0.5,0.28,0.5,0.25,0.5,0.44,0.5,0.44,0.33" y="568.0" x="51.0,53.8,57.1,61.6,66.6,70.4,73.4,77.9,81.2,83.6,88.6,91.9,96.9,101.3,105.8,109.7,113.5,118.0,121.9,124.4,126.8,133.8,138.8,143.8,148.2,151.6,155.4,158.3,162.7,167.7,172.7,175.5,180.5,185.5,187.9,190.8,195.8,200.2,202.6,207.6,212.0,214.8,219.8,223.1,227.6,230.0,235.0,238.3,240.7,244.0,248.1,255.4,257.8,265.6,270.0,272.8,277.2,280.7,283.5,288.0,290.7,293.1,295.9,299.8,302.2,306.7,310.2,315.2,319.7,322.5,326.9,329.7,332.1,334.8,339.8,342.3,346.4,351.1,356.1,358.9,363.9,366.3,371.3,375.7,380.6,385.1" style="fill:rgb(0,0,0);font-family:STIX-Regular;font-size:10.0px;stroke:none;" xmlns:svgx="http://www.xml-cml.org/schema/svgx">transfer processes. Understanding the nature of raw material is crucial to avoid nega-</text>
  <text svgx:width="0.28,0.28,0.5,0.44,0.25,0.28,0.5,0.56,0.5,0.44,0.5,0.44,0.44,0.39,0.25,0.28,0.78,0.5,0.44,0.44,0.28,0.28,0.5,0.5,0.25,0.28,0.5,0.44,0.25,0.5,0.5,0.44,0.28,0.28,0.28,0.5,0.25,0.44,0.5,0.5,0.25,0.5,0.28,0.44,0.28,0.5,0.25,0.5,0.5,0.33,0.28,0.5,0.5,0.25,0.28,0.5,0.44,0.25,0.33,0.44,0.78,0.5,0.5,0.44,0.28,0.25,0.5,0.33,0.25,0.28,0.5,0.44,0.25,0.28,0.44,0.33,0.5,0.44,0.28,0.25,0.44,0.5,0.78,0.33" y="580.0" x="51.0,53.8,56.6,61.3,65.8,68.3,71.1,76.1,81.7,86.7,91.1,96.1,100.5,105.0,108.9,111.4,114.2,121.9,126.9,131.4,135.8,138.6,141.4,146.4,151.4,153.9,156.8,161.8,166.2,168.8,173.6,178.6,183.1,185.9,188.6,191.4,196.4,199.0,203.4,208.4,213.4,215.9,220.9,223.7,228.2,230.9,235.9,238.5,243.5,248.5,252.0,254.8,259.8,264.8,267.3,270.2,275.2,279.6,282.2,285.5,289.9,297.7,302.5,307.3,311.7,314.5,317.0,322.0,325.4,327.9,330.8,335.8,340.2,342.7,345.6,350.1,353.2,358.1,362.4,365.2,367.7,372.2,377.2,385.0" style="fill:rgb(0,0,0);font-family:STIX-Regular;font-size:10.0px;stroke:none;" xmlns:svgx="http://www.xml-cml.org/schema/svgx">tive influences impacting the quality and yield during the removal of the target com-</text>
  <text svgx:width="0.5,0.5,0.5,0.5,0.5,0.39,0.25,0.25,0.55,0.44,0.25,0.5,0.25,0.25,0.25,0.55,0.44,0.44,0.5,0.39,0.44,0.5,0.25,0.55,0.5,0.5,0.25,0.55,0.44,0.5,0.33,0.44,0.5,0.28,0.33,0.44,0.44,0.28,0.44,0.5,0.25,0.55,0.44,0.5,0.5,0.28,0.44,0.78,0.28,0.5,0.44,0.5,0.28,0.39,0.25,0.55,0.5,0.33,0.25,0.55,0.5,0.5,0.44,0.25,0.55,0.28,0.5,0.25,0.55,0.28,0.5,0.44,0.25,0.55,0.5,0.33,0.44,0.39,0.44,0.5,0.44,0.44,0.25,0.55,0.5,0.33,0.25,0.55,0.39,0.5,0.78,0.44,0.25" y="592.0" x="51.0,56.0,61.0,66.0,71.0,76.0,79.9,82.4,84.9,85.9,90.4,92.9,97.9,100.4,102.9,105.4,106.4,110.8,115.3,120.3,124.1,128.6,133.6,136.1,137.1,141.9,146.9,149.4,150.4,154.8,159.8,163.2,167.4,172.4,175.2,178.5,182.9,187.4,190.2,194.6,199.6,202.1,203.1,207.5,212.5,217.5,220.4,224.9,232.6,235.4,240.4,244.9,249.9,252.6,256.5,259.0,260.0,265.0,268.4,270.9,271.9,276.9,281.9,286.3,288.8,289.8,292.6,297.6,300.1,301.1,304.0,309.0,313.4,315.9,316.9,321.9,325.2,329.7,333.6,338.0,343.0,347.4,351.9,354.4,355.4,360.4,363.7,366.2,367.2,371.1,376.1,383.9,388.3" style="fill:rgb(0,0,0);font-family:STIX-Regular;font-size:10.0px;stroke:none;" xmlns:svgx="http://www.xml-cml.org/schema/svgx">pounds, e.g., caused by co-extracted contaminants or due to the presence of some </text>
  <text class="image" id="image.8.1" width="333" height="192" y="192.0" x="53.1" style="font-size:8.0px;">image.8.1.53_386.192_385</text>
  <text svgx:width="0.61,0.28,0.5,0.25,0.25,0.5,0.25,0.55,0.25" y="268.4" x="51.0,55.9,58.1,62.1,64.1,66.1,70.1,72.1,74.1" style="fill:rgb(0,0,0);font-family:STIX-Bold;font-size:8.0px;stroke:none;" xmlns:svgx="http://www.xml-cml.org/schema/svgx">Fig. 4 </text>
  <text svgx:width="0.72,0.5,0.78,0.5,0.44,0.33,0.25,0.55,0.5,0.33,0.25,0.55,0.5,0.5,0.5,0.28,0.28,0.44,0.44,0.28,0.28,0.5,0.5,0.39,0.25,0.55,0.5,0.44,0.33,0.25,0.55,0.5,0.44,0.44,0.33,0.25,0.55,0.33,0.5,0.44,0.5,0.39,0.28,0.5,0.5,0.25,0.55,0.5,0.5,0.25,0.55,0.5,0.33,0.44,0.44,0.5,0.25,0.55,0.44,0.5,0.5,0.25,0.55,0.39,0.5,0.39,0.28,0.44,0.28,0.5,0.44,0.5,0.28,0.44,0.25,0.55,0.39,0.44,0.5,0.44,0.33,0.44,0.28,0.28,0.5,0.5,0.25,0.55,0.33,0.44,0.5,0.28,0.33,0.44,0.44,0.28,0.28,0.5,0.5,0.25,0.25,0.55,0.33,0.33,0.44,0.44,0.33" y="268.4" x="75.1,80.8,84.8,91.0,95.0,98.6,101.2,103.2,104.0,108.0,110.6,112.6,113.4,117.4,121.4,125.4,127.6,129.8,133.4,136.9,139.2,141.4,145.4,149.4,152.5,154.5,155.2,159.2,162.8,165.4,167.4,168.2,172.0,175.5,179.1,181.8,183.8,184.5,186.9,190.9,194.5,198.5,201.6,203.8,207.8,211.8,213.8,214.5,218.5,222.5,224.5,225.3,229.3,232.0,235.5,239.1,243.1,245.1,245.8,249.4,253.4,257.4,259.4,260.1,263.2,267.2,270.3,272.6,276.1,278.4,282.4,285.9,289.9,292.1,295.7,297.7,298.4,301.5,305.1,309.1,312.6,315.3,318.8,321.1,323.3,327.3,331.3,333.3,334.0,336.7,340.1,344.1,346.3,348.9,352.5,356.0,358.3,360.5,364.5,368.5,370.5,372.5,373.2,375.9,378.5,382.1,385.6" style="fill:rgb(0,0,0);font-family:STIX-Regular;font-size:8.0px;stroke:none;" xmlns:svgx="http://www.xml-cml.org/schema/svgx">Number of publications per year focusing on green and sustainable separation (extraction, frac-</text>
  <text svgx:width="0.28,0.28,0.5,0.5,0.44,0.28,0.28,0.5,0.5,0.25,0.55,0.44,0.5,0.5,0.25,0.55,0.5,0.5,0.33,0.28,0.56,0.44,0.44,0.28,0.28,0.5,0.5,0.33,0.25,0.55,0.5,0.33,0.25,0.55,0.5,0.44,0.28,0.5,0.33,0.44,0.28,0.25,0.55,0.5,0.33,0.5,0.5,0.5,0.44,0.28,0.39,0.25,0.55,0.33,0.33,0.5,0.78,0.25,0.55,0.72,0.44,0.39,0.28,0.44,0.25,0.55,0.33,0.33,0.56,0.33,0.56,0.25,0.55,0.94,0.44,0.5,0.25,0.55,0.5,0.33,0.25,0.55,0.72,0.5,0.5,0.72,0.28,0.44,0.5,0.5,0.44,0.25,0.25,0.55,0.37,0.44,0.5,0.5,0.44,0.33,0.5,0.25,0.55,0.5,0.5,0.5,0.5,0.25,0.55,0.28,0.5,0.25" y="277.9" x="51.0,53.2,55.5,59.5,63.5,67.0,69.2,71.5,75.5,79.5,81.5,82.6,86.2,90.2,94.2,96.2,97.3,101.3,105.3,108.2,110.4,114.8,118.4,121.9,124.2,126.4,130.4,134.4,137.1,139.1,140.2,144.2,146.9,148.9,150.0,154.0,157.6,159.8,163.8,166.5,170.0,172.2,174.2,175.4,179.4,182.0,186.0,190.0,194.0,197.6,199.8,202.9,204.9,206.1,208.7,211.3,215.3,221.6,223.6,224.7,230.3,233.8,236.9,239.1,242.6,244.6,245.8,248.5,251.1,255.6,258.2,262.7,264.7,265.9,272.9,276.5,280.5,282.5,283.6,287.6,290.3,292.3,293.5,299.2,303.2,307.1,312.6,314.8,318.3,322.3,326.2,329.8,331.8,333.8,334.9,337.9,341.5,345.5,349.5,353.0,355.8,359.8,361.8,363.0,367.0,371.0,375.0,379.0,381.0,382.2,384.4,388.4" style="fill:rgb(0,0,0);font-family:STIX-Regular;font-size:8.0px;stroke:none;" xmlns:svgx="http://www.xml-cml.org/schema/svgx">tionation and purification) of natural products from waste (ISIS Web of Knowledge, January 2006 to </text>
  <text svgx:width="0.72,0.44,0.44,0.44,0.78,0.5,0.44,0.33,0.25,0.5,0.5,0.5,0.5,0.33" y="287.4" x="51.0,56.8,60.4,63.9,67.5,73.7,77.7,81.2,83.9,85.9,89.9,93.9,97.9,101.9" style="fill:rgb(0,0,0);font-family:STIX-Regular;font-size:8.0px;stroke:none;" xmlns:svgx="http://www.xml-cml.org/schema/svgx">December 2017)</text>
 </g>
</svg>
