<?xml version="1.0" encoding="UTF-8"?>
<svg height="86.39" width="550.37" xmlns="http://www.w3.org/2000/svg">
 <g>
  <polygon style="fill:rgb(255,255,255);stroke:none;stroke-width:0.5;" signature="MLLLLLLLZ" points="538.88 73.69 539.21 73.69 540.37 76.39 539.94 76.39 539.67 75.72 538.38 75.72 538.11 76.39 537.69 76.39" id="polygon1"/>
  <polygon style="fill:rgb(149,193,20);stroke:none;stroke-width:0.5;" signature="MLLLLLLLLLZ" points="451.32 65.36 454.43 65.36 454.43 65.99 451.99 65.99 451.99 67.54 454.26 67.54 454.26 68.17 451.99 68.17 451.99 70.31 451.32 70.31" id="polygon2"/>
  <polygon style="fill:rgb(149,193,20);stroke:none;stroke-width:0.5;" signature="MLLLLLLLLLLLZ" points="499.37 65.36 500.25 65.36 502.97 69.42 502.99 69.42 502.99 65.36 503.66 65.36 503.66 70.31 502.8 70.31 500.05 66.24 500.04 66.24 500.04 70.31 499.37 70.31" id="polygon3"/>
 </g>
</svg>
