<?xml version="1.0" encoding="UTF-8"?>
<svg height="774.244" width="4165.638" xmlns="http://www.w3.org/2000/svg">
 <g id="page" xmlns:svgx="http://www.xml-cml.org/schema/svgx">
  <g begin="text">
   <text y="22.46" x="40.638,48.208,55.778,63.055,66.145,71.865,77.215,81.135,86.765,90.565,95.995,99.085,103.915,109.695,118.435,121.635,126.125,130.955,133.725,139.15,144.87,148.79,151.56,155.19,157.96,162.79,166.59,172.02,177.78,183.56,187.36,191.28,195.77" svgx:width="0.71,0.71,0.71,0.26,0.53,0.49,0.35,0.52,0.34,0.5,0.26,0.44,0.53,0.83,0.28,0.4,0.44,0.23,0.5,0.53,0.35,0.23,0.32,0.23,0.44,0.34,0.5,0.53,0.53,0.34,0.35,0.4,0.28" style="fill:rgb(255,255,255);font-family:Corbel2;font-size:10.0px;stroke:none;">www.nature.com/scientificreports/</text>
  </g>
  <g begin="text">
   <text y="764.23" x="549.53" svgx:width="0.51" style="fill:rgb(131,144,151);font-family:Corbel2;font-size:10.0px;stroke:none;">2</text>
  </g>
  <g begin="text">
   <text y="764.244" x="40.794,45.642,50.786,53.186,58.026,64.026,68.898,71.298,75.762,78.162" svgx:width="0.55,0.59,0.25,0.55,0.7,0.56,0.25,0.5,0.25,0.59" style="fill:rgb(131,144,151);font-family:Corbel2;font-size:8.0px;stroke:none;">Scientific</text>
   <text y="764.244" x="83.162" svgx:width="0.2" style="fill:rgb(0,0,0);font-family:Corbel2;font-size:8.0px;stroke:none;"> </text>
   <text y="764.244" x="84.762,90.218,95.194,100.434,106.738,112.194,117.186" svgx:width="0.63,0.57,0.6,0.73,0.63,0.57,0.58" style="fill:rgb(131,144,151);font-family:Corbel-Bold2;font-size:8.0px;stroke:none;">REPORtS</text>
   <text y="764.244" x="122.082,123.522,125.338" svgx:width="0.2,0.23,0.2" style="fill:rgb(0,0,0);font-family:Corbel2;font-size:8.0px;stroke:none;"> | </text>
   <text y="764.244" x="126.778,128.234,130.506,134.442,138.378,142.314,146.25,148.522,149.978,153.914,155.602,159.538,163.474,167.41,171.346" svgx:width="0.18,0.28,0.49,0.49,0.49,0.49,0.28,0.18,0.49,0.21,0.49,0.49,0.49,0.49,0.18" style="fill:rgb(0,0,0);font-family:MyriadPro-It;font-size:8.0px;stroke:none;"> (2018) 8:2235 </text>
   <text y="764.244" x="172.802,174.244,176.06,177.501,182.869,188.709,190.677,192.789,196.893,200.997,203.109,207.213,211.317,215.421,219.525,221.725,224.957,229.061,233.165,237.269,241.373,245.477,248.141,252.245,256.349,260.453,263.117,267.221,271.326,275.43,279.534,283.638,285.974" svgx:width="0.2,0.23,0.2,0.67,0.73,0.25,0.26,0.51,0.51,0.26,0.51,0.51,0.51,0.51,0.28,0.4,0.51,0.51,0.51,0.51,0.51,0.33,0.51,0.51,0.51,0.33,0.51,0.51,0.51,0.51,0.51,0.33,0.44" style="fill:rgb(0,0,0);font-family:Corbel;font-size:8.0px;stroke:none;"> | DOI:10.1038/s41598-017-18141-z</text>
  </g>
  <path style="fill:none;stroke:rgb(0,0,0);stroke-width:1.0;" d="M40.640 752.550 L554.640 752.550 "/>
  <g begin="text">
   <text y="277.0" x="155.638,160.611,164.52,167.351,170.738,172.876,175.009,182.879,187.447,189.943,193.251,197.827,202.691,207.024" svgx:width="0.55,0.43,0.31,0.37,0.23,0.23,0.89,0.51,0.27,0.37,0.51,0.53,0.47,0.23" style="fill:rgb(0,0,0);font-family:MinionPro-Regular;font-size:9.0px;stroke:none;">nets. Moiroux </text>
   <text y="277.0" x="209.157,212.78,215.629,217.785,222.186" svgx:width="0.4,0.31,0.23,0.49,0.25" style="fill:rgb(0,0,0);font-family:MinionPro-It;font-size:9.0px;stroke:none;">et al</text>
   <text y="277.0" x="224.515" svgx:width="0.23" style="fill:rgb(0,0,0);font-family:MinionPro-Regular;font-size:9.0px;stroke:none;">.</text>
   <text y="273.94" x="226.652,229.516" svgx:width="0.48,0.48" style="fill:rgb(0,0,255);font-family:MinionPro-Regular;font-size:5.85px;stroke:none;">15</text>
   <text y="277.0" x="232.379,234.512,239.349,243.259,250.679,255.247,260.182,263.526,266.4,269.825,273.69,276.466,280.421,285.258,287.391,290.275,295.139,299.005,301.834,303.967,311.388,316.062,319.523,324.117,328.981,331.37,334.146,338.822,342.21,344.343,349.208,353.081,357.262,361.172,363.305,367.341,372.205,376.071,380.772,383.549,387.503,392.341,394.474,397.25,401.925,404.058,406.555,411.491,414.951,418.906,422.861,425.736,428.233,432.125,434.623,439.46,443.37,445.503,448.378,451.685,455.649,459.514,462.291,466.245,471.083,473.216,478.188,482.098,484.929,488.316,490.449,494.962,499.178,501.311,505.15,510.013,513.969,518.905,523.247,525.744,530.681,534.978,537.111,539.995,544.851,548.76,551.258,554.597" svgx:width="0.23,0.53,0.43,0.82,0.51,0.55,0.37,0.31,0.37,0.44,0.31,0.43,0.53,0.23,0.31,0.53,0.44,0.31,0.23,0.82,0.51,0.37,0.51,0.53,0.27,0.31,0.51,0.37,0.23,0.53,0.44,0.46,0.43,0.23,0.44,0.53,0.44,0.52,0.31,0.43,0.53,0.23,0.31,0.51,0.23,0.27,0.55,0.37,0.43,0.42,0.31,0.27,0.42,0.27,0.53,0.43,0.23,0.31,0.37,0.43,0.44,0.31,0.43,0.53,0.23,0.55,0.43,0.31,0.37,0.23,0.51,0.46,0.23,0.42,0.53,0.44,0.55,0.47,0.27,0.55,0.47,0.23,0.31,0.53,0.43,0.27,0.37,0.23" style="fill:rgb(0,0,0);font-family:MinionPro-Regular;font-size:9.0px;stroke:none;"> demonstrated that mosquitos have adapted to insecticide treated nets by changing their </text>
   <text y="286.999" x="155.636,160.073,162.35,165.113,167.498,172.322,176.507,178.217,182.97,186.822,191.259,193.537,196.255,199.531,201.556,203.266,208.225,211.42,215.885,220.655,225.11,228.512,231.276,233.661,238.116,243.012,244.722,249.177,251.814,253.524,257.989,262.633,265.297,270.022,274.666,279.121,282.433,284.143,288.58,290.858,293.621,296.006,300.83,305.015,306.725,309.11,313.97,317.75,320.945,324.798,328.695,332.043,335.886,340.611,342.321,345.048,348.244,352.699,360.043,361.753,366.046,370.339,377.116,378.826,381.491,386.054,387.764,392.057,396.35" svgx:width="0.51,0.27,0.31,0.27,0.55,0.47,0.23,0.53,0.44,0.51,0.27,0.31,0.37,0.23,0.23,0.56,0.37,0.51,0.52,0.51,0.37,0.31,0.27,0.51,0.55,0.23,0.51,0.3,0.23,0.51,0.53,0.31,0.53,0.51,0.51,0.37,0.23,0.51,0.27,0.31,0.27,0.55,0.47,0.23,0.27,0.55,0.42,0.37,0.43,0.44,0.37,0.43,0.53,0.23,0.3,0.37,0.51,0.82,0.23,0.48,0.48,0.76,0.23,0.31,0.51,0.23,0.48,0.48,0.76" style="fill:rgb(0,0,0);font-family:MinionPro-Regular;font-size:9.0px;stroke:none;">biting habits. Proportion of outdoor biting increased from 45% to 68%</text>
   <text y="283.94" x="403.128,405.918" svgx:width="0.48,0.48" style="fill:rgb(0,0,255);font-family:MinionPro-Regular;font-size:5.85px;stroke:none;">16</text>
   <text y="287.0" x="408.709,410.734,412.444,421.885,426.611,429.887,431.912,433.622,438.482,442.28,444.998,448.274,449.984,456.15,458.58,460.875,463.125,464.835,469.461,473.259,474.969,477.219,481.017,484.249,487.525,489.235,493.033,497.974,501.817,505.66,508.423,510.746,514.813,518.611,520.321,522.878,527.333,530.645,532.355,536.387,540.851,545.603,550.427,554.639" svgx:width="0.23,0.23,1.07,0.53,0.37,0.23,0.23,0.55,0.43,0.31,0.37,0.23,0.69,0.27,0.25,0.25,0.23,0.51,0.43,0.23,0.25,0.43,0.37,0.37,0.23,0.43,0.56,0.43,0.42,0.31,0.27,0.46,0.43,0.23,0.3,0.51,0.37,0.23,0.46,0.51,0.53,0.55,0.47,0.23" style="fill:rgb(0,0,0);font-family:MinionPro-Regular;font-size:9.0px;stroke:none;">. Thus, nets will be less effective for young </text>
   <text y="296.999" x="155.638,159.391,164.197,166.654,168.931,173.683,176.905,180.73,185.653,187.489,191.359,196.246,200.998,202.834,207.442,210.664,214.489,218.746,223.642,227.512,232.264,235.009,236.845,242.938,247.42,254.755,258.58,263.503,265.555,267.391,273.619,278.389,282.979,284.815,288.685,291.907,295.732,297.568,300.367,305.137,308.962,310.798,318.133,322.723,325.981,328.726,330.562,334.729,339.553,341.83,346.717,350.542,353.881,357.759,362.269,364.546,368.371,370.207,372.898,377.488,379.324,382.123,386.893,390.718,392.554,397.306,399.691,403.065,406.944,410.868,414.243,418.014" svgx:width="0.42,0.53,0.27,0.25,0.53,0.37,0.43,0.55,0.23,0.44,0.55,0.53,0.23,0.52,0.37,0.43,0.47,0.55,0.44,0.55,0.31,0.23,0.69,0.51,0.82,0.43,0.55,0.23,0.23,0.69,0.53,0.51,0.23,0.44,0.37,0.43,0.23,0.31,0.53,0.43,0.23,0.82,0.51,0.37,0.31,0.23,0.46,0.53,0.25,0.55,0.43,0.37,0.44,0.51,0.25,0.43,0.23,0.31,0.51,0.23,0.31,0.53,0.43,0.23,0.53,0.27,0.37,0.43,0.44,0.37,0.43,0.23" style="fill:rgb(0,0,0);font-family:MinionPro-Regular;font-size:9.0px;stroke:none;">children and pregnant women, who are the most vulnerable to the disease.</text>
   <text y="306.998" x="167.635,173.891,178.967,182.172,186.448,191.74,196.016,200.912,206.069,209.777,211.84699999999998,213.035,220.776,225.771,229.552,234.467,239.651,242.361,245.457,250.452,252.522,253.71,257.338,261.568,266.77,270.965,273.692,276.374,280.604,285.762,288.912,292.62,294.69,295.878,299.397,307.821,313.815,317.334,319.404,320.592,324.868,328.496,332.726,334.796,335.984,340.871,346.163,350.393,352.46299999999997,353.651,361.392,365.676,369.952,375.209,378.917,380.98699999999997,382.175,385.271,390.266,392.336,393.524,397.152,401.427,406.477,411.661,415.873,420.103,422.173,423.361,426.566,431.742,435.972,438.042,439.23,442.39,446.018,450.293,455.208,460.392,464.622,469.914,474.27,478.806,480.876,482.064,486.952,490.021,492.091,493.279,501.019,506.014,509.794,514.709,519.893,522.602,525.699,530.694,532.764,533.952,538.822,541.531,544.628,548.858,552.566,554.618" svgx:width="0.67,0.53,0.31,0.44,0.55,0.43,0.51,0.53,0.37,0.23,0.55,0.82,0.51,0.37,0.51,0.53,0.27,0.31,0.51,0.23,0.55,0.37,0.43,0.52,0.43,0.25,0.25,0.43,0.55,0.31,0.37,0.23,0.55,0.35,0.89,0.62,0.35,0.23,0.55,0.44,0.37,0.43,0.23,0.55,0.51,0.55,0.43,0.23,0.55,0.82,0.43,0.44,0.55,0.37,0.23,0.55,0.31,0.51,0.23,0.55,0.37,0.43,0.53,0.53,0.42,0.43,0.23,0.55,0.31,0.53,0.43,0.23,0.55,0.3,0.37,0.43,0.51,0.53,0.43,0.55,0.42,0.46,0.23,0.55,0.51,0.3,0.23,0.55,0.82,0.51,0.37,0.51,0.53,0.27,0.31,0.51,0.23,0.55,0.51,0.27,0.31,0.43,0.37,0.23,0.23" style="fill:rgb(0,0,0);font-family:MinionPro-Regular;font-size:9.0px;stroke:none;">Cutaneous mosquito repellents (MR) are one means to reduce the frequency of mosquito bites. </text>
   <text y="316.997" x="155.638,162.478,164.683,171.523,174.88,179.785,182.35,186.328,189.281,194.034,198.382,200.812,204.169,211.657,215.635,218.588,222.692,226.049,228.894,233.575,235.898,240.858,244.882,252.406,254.971,259.876,263.854,266.23,269.497,276.185,281.45,286.68,292.386,295.653,298.029,300.568,304.024,306.4,310.423,315.499,317.875,321.853,326.975,330.999,335.023,337.967,340.469,344.718,348.696,351.072,358.561,363.304,366.833,371.496,376.428,378.885,381.73,386.473,388.849,392.225,396.203,401.153,405.096,407.571,410.029,414.053,418.959" svgx:width="0.74,0.23,0.74,0.36,0.53,0.27,0.43,0.31,0.53,0.46,0.25,0.36,0.82,0.43,0.31,0.44,0.36,0.31,0.51,0.25,0.53,0.44,0.82,0.27,0.53,0.43,0.23,0.35,0.74,0.57,0.57,0.62,0.35,0.23,0.27,0.37,0.23,0.44,0.55,0.23,0.43,0.56,0.43,0.42,0.31,0.27,0.46,0.43,0.23,0.82,0.51,0.37,0.51,0.53,0.27,0.31,0.51,0.23,0.37,0.43,0.52,0.43,0.25,0.25,0.44,0.55,0.31" style="fill:rgb(0,0,0);font-family:MinionPro-Regular;font-size:9.0px;stroke:none;">N,N-diethyl-meta-toluamide (DEET) is an effective mosquito repellant</text>
   <text y="313.94" x="421.883,424.791" svgx:width="0.48,0.48" style="fill:rgb(0,0,255);font-family:MinionPro-Regular;font-size:5.85px;stroke:none;">17</text>
   <text y="313.94" x="427.698" svgx:width="0.52" style="fill:rgb(0,0,0);font-family:MinionPro-Regular;font-size:5.85px;stroke:none;">–</text>
   <text y="313.94" x="430.84,433.747" svgx:width="0.48,0.48" style="fill:rgb(0,0,255);font-family:MinionPro-Regular;font-size:5.85px;stroke:none;">20</text>
   <text y="317.0" x="436.657,439.033,443.66,448.485,451.383,453.759,456.298,459.754,462.13,466.09,470.833,474.244,477.142,479.518,484.28,487.656,492.336,497.296,499.825,504.443,506.901,509.845,512.348,516.596,520.574,522.95,525.687,530.323,533.815,536.191,539.774,544.706,548.198,552.347,554.624" svgx:width="0.23,0.51,0.53,0.31,0.23,0.27,0.37,0.23,0.42,0.51,0.37,0.31,0.23,0.52,0.37,0.51,0.53,0.27,0.51,0.27,0.31,0.27,0.46,0.43,0.23,0.3,0.51,0.37,0.23,0.37,0.53,0.37,0.44,0.25,0.23" style="fill:rgb(0,0,0);font-family:MinionPro-Regular;font-size:9.0px;stroke:none;"> but is cost prohibitive for rural </text>
   <text y="326.999" x="155.641,159.012,163.868,168.552,171.873,176.256,180.365,185.257,189.24,192.696,196.678,201.718,203.95,208.86,213.464,218.194,223.131,225.548,229.441,232.343,234.868,239.463,244.427,247.847,250.011,252.243,257.081,261.064,264.444,268.697,272.635,275.537,278.066,283.03,287.359,289.591,292.12,297.119,301.988,304.513,308.766,312.704,317.703,322.307,327.173,330.588,332.82,337.587,340.003,343.987,348.851,351.713,355.129,357.361,361.397,364.817,367.049,371.113,373.345,376.832,381.437,386.328,389.664,393.583,397.525,399.757,404.352,407.133,409.365,416.813,421.516,425.003,429.625,434.517,436.934,439.738,444.445,446.677,450.012,453.95,458.859,462.762,465.196,467.59,471.528,476.393,479.251,482.671,484.903,491.207,493.777,496.212,498.602,500.833,504.204,507.107,509.632,516.945,521.882,524.298,528.192,530.995,534.937,537.169,539.559,544.343,548.29,552.398,554.675" svgx:width="0.37,0.53,0.51,0.36,0.47,0.44,0.53,0.44,0.37,0.44,0.55,0.23,0.52,0.51,0.52,0.53,0.25,0.44,0.31,0.27,0.51,0.55,0.37,0.23,0.23,0.62,0.44,0.37,0.47,0.43,0.31,0.27,0.55,0.47,0.23,0.27,0.55,0.53,0.27,0.47,0.43,0.55,0.51,0.53,0.37,0.23,0.52,0.25,0.44,0.55,0.31,0.37,0.23,0.44,0.37,0.23,0.44,0.23,0.37,0.51,0.53,0.37,0.42,0.43,0.23,0.51,0.3,0.23,0.82,0.51,0.37,0.51,0.53,0.27,0.31,0.51,0.23,0.37,0.43,0.52,0.43,0.25,0.25,0.43,0.55,0.31,0.37,0.23,0.69,0.27,0.25,0.25,0.23,0.37,0.31,0.27,0.82,0.53,0.25,0.44,0.31,0.43,0.23,0.25,0.51,0.42,0.44,0.25,0.23" style="fill:rgb(0,0,0);font-family:MinionPro-Regular;font-size:9.0px;stroke:none;">sub-Saharan populations. Targeting indigenous plants as a source of mosquito repellents will stimulate local </text>
   <text y="336.998" x="155.641,159.511,163.318,167.8,172.687,177.169,184.54,186.952,190.777,194.08,195.988,199.858,204.745,209.497,211.405,215.185,217.93,219.838,222.637,227.407,231.232,233.14,236.497,240.367,247.702,251.527,253.435,256.224,258.636,265.971,269.796,271.704,276.312,279.534,284.025,286.716,290.586,294.456,297.201,299.109,301.908,306.678,310.503,312.411,317.208,321.699,326.316,331.14,333.444,337.224,340.014,342.426,346.908,351.831,353.883,355.791,362.568,367.346,371.342,373.619,378.209" svgx:width="0.43,0.42,0.51,0.55,0.51,0.82,0.27,0.43,0.37,0.23,0.44,0.55,0.53,0.23,0.44,0.31,0.23,0.31,0.53,0.43,0.23,0.37,0.44,0.82,0.43,0.23,0.31,0.27,0.82,0.43,0.23,0.52,0.37,0.51,0.31,0.43,0.42,0.31,0.23,0.31,0.53,0.43,0.23,0.52,0.51,0.52,0.53,0.25,0.44,0.31,0.27,0.51,0.55,0.23,0.23,0.75,0.53,0.44,0.25,0.51,0.23" style="fill:rgb(0,0,0);font-family:MinionPro-Regular;font-size:9.0px;stroke:none;">economies and at the same time protect the population. Odalo </text>
   <text y="336.998" x="380.117,383.655,386.418,388.344,392.655" svgx:width="0.4,0.31,0.23,0.49,0.25" style="fill:rgb(0,0,0);font-family:MinionPro-It;font-size:9.0px;stroke:none;">et al</text>
   <text y="336.998" x="394.879" svgx:width="0.23" style="fill:rgb(0,0,0);font-family:MinionPro-Regular;font-size:9.0px;stroke:none;">.</text>
   <text y="333.94" x="396.925,399.733" svgx:width="0.48,0.48" style="fill:rgb(0,0,255);font-family:MinionPro-Regular;font-size:5.85px;stroke:none;">21</text>
   <text y="337.0" x="402.541,404.449,408.274,412.522,415.312,418.651,422.602,426.471,429.163,433.032,437.784,439.692,443.562,448.449,453.201,455.109,457.8,461.625,464.883,467.574,471.444,476.196,478.104,480.903,485.673,489.498,491.406,494.097,498.588,503.196,505.608,509.442,513.438,515.715,517.623,520.845,524.67,529.467,533.256,535.577,537.854,541.679,546.566,550.517,554.648" svgx:width="0.23,0.43,0.47,0.31,0.37,0.44,0.42,0.31,0.43,0.53,0.23,0.44,0.55,0.53,0.23,0.31,0.43,0.37,0.31,0.43,0.53,0.23,0.31,0.53,0.43,0.23,0.31,0.51,0.52,0.27,0.42,0.44,0.25,0.23,0.37,0.43,0.52,0.43,0.25,0.25,0.43,0.55,0.42,0.46,0.23" style="fill:rgb(0,0,0);font-family:MinionPro-Regular;font-size:9.0px;stroke:none;"> extracted and tested the topical repellency </text>
   <text y="346.999" x="155.635,160.171,162.889,164.914,168.793,172.104,175.533,179.412,184.218,187.062,189.554,193.604,195.935,197.96,202.496,205.006,207.31,210.667,212.692,215.158,220.098,224.904,227.37,231.563,235.442,240.383,244.927,249.733,253.09,255.115,257.86,262.504,264.529,270.424,274.303,279.072,283.257,287.262,289.287,292.095,295.371,299.907,307.332" svgx:width="0.51,0.3,0.23,0.43,0.37,0.37,0.43,0.55,0.31,0.27,0.44,0.25,0.23,0.51,0.27,0.25,0.37,0.23,0.27,0.55,0.53,0.27,0.47,0.43,0.55,0.51,0.53,0.37,0.23,0.31,0.51,0.23,0.67,0.43,0.55,0.46,0.44,0.23,0.3,0.37,0.51,0.82,0.23" style="fill:rgb(0,0,0);font-family:MinionPro-Regular;font-size:9.0px;stroke:none;">of essential oils indigenous to Kenya from </text>
   <text y="346.999" x="309.357,315.153,319.347,323.964,327.996,331.839,336.303,338.346,343.125,346.816,353.017,355.411,357.922,359.965,363.061,368.857,373.051,380.044,384.436,388.666,391.663,394.048,396.775,401.176,404.83" svgx:width="0.63,0.47,0.53,0.44,0.42,0.49,0.23,0.53,0.4,0.67,0.27,0.27,0.23,0.34,0.63,0.47,0.79,0.49,0.47,0.34,0.27,0.31,0.49,0.4,0.33" style="fill:rgb(0,0,0);font-family:MinionPro-It;font-size:9.0px;stroke:none;">Conyza newii (Compositae)</text>
   <text y="346.999" x="407.881,409.987" svgx:width="0.23,0.23" style="fill:rgb(0,0,0);font-family:MinionPro-Regular;font-size:9.0px;stroke:none;">, </text>
   <text y="346.999" x="412.027,417.022,419.281,422.881,426.409,429.146,432.323,436.643,441.287,444.024,448.524,453.411,456.498,458.541,465.616,469.936,473.365,476.794,481.519,485.857,488.332,492.526,495.001,499.591,503.173,506.26,508.303,511.4,516.268,520.589,527.573,530.047,534.449,537.878,541.478,545.879,549.533" svgx:width="0.55,0.25,0.4,0.38,0.31,0.37,0.49,0.53,0.31,0.51,0.53,0.34,0.23,0.79,0.49,0.37,0.37,0.53,0.49,0.27,0.47,0.27,0.51,0.4,0.34,0.23,0.34,0.53,0.49,0.79,0.27,0.49,0.38,0.4,0.49,0.4,0.33" style="fill:rgb(0,0,0);font-family:MinionPro-It;font-size:9.0px;stroke:none;">Plectranthus marrubioides (Lamiaceae)</text>
   <text y="346.999" x="552.589,554.641" svgx:width="0.23,0.23" style="fill:rgb(0,0,0);font-family:MinionPro-Regular;font-size:9.0px;stroke:none;">, </text>
   <text y="356.998" x="155.644,160.191,162.516,166.767,171.009,173.387,177.752,179.462,181.811,185.972,189.917,194.14,198.733,201.112,204.445,208.81,210.52,213.474,218.67,222.225,225.396,229.691,233.246,237.929,242.234,245.566,249.07,253.375,256.93" svgx:width="0.53,0.27,0.49,0.49,0.27,0.49,0.23,0.27,0.49,0.45,0.49,0.53,0.27,0.38,0.49,0.23,0.34,0.68,0.4,0.37,0.49,0.4,0.53,0.49,0.38,0.4,0.49,0.4,0.33" style="fill:rgb(0,0,0);font-family:MinionPro-It;font-size:9.0px;stroke:none;">Lippia javanica (Verbenaceae)</text>
   <text y="356.998" x="259.882,261.889" svgx:width="0.23,0.23" style="fill:rgb(0,0,0);font-family:MinionPro-Regular;font-size:9.0px;stroke:none;">, </text>
   <text y="356.998" x="263.59,268.102,271.594,274.233,277.314,281.616,286.109,289.666,294.259,296.638,301.006,302.716,306.047,308.372,312.668,316.891,320.224,322.603,326.97,328.68,331.679,336.452,340.676,347.563,349.942,354.244,357.574,361.078,365.38,368.937" svgx:width="0.6,0.4,0.31,0.37,0.49,0.51,0.4,0.53,0.27,0.49,0.23,0.37,0.27,0.49,0.49,0.37,0.27,0.49,0.23,0.34,0.53,0.49,0.79,0.27,0.49,0.38,0.4,0.49,0.4,0.33" style="fill:rgb(0,0,0);font-family:MinionPro-It;font-size:9.0px;stroke:none;">Tetradenia riparia (Lamiaceae)</text>
   <text y="356.998" x="371.896,373.903,375.595,379.477,382.734,384.426,390.478,394.225,396.504,398.736,400.428,404.311,407.569" svgx:width="0.23,0.23,0.44,0.37,0.23,0.69,0.43,0.25,0.25,0.23,0.44,0.37,0.23" style="fill:rgb(0,0,0);font-family:MinionPro-Regular;font-size:9.0px;stroke:none;">, as well as </text>
   <text y="356.998" x="409.261,413.773,417.996,421.076,424.364,428.855,432.953,437.633,441.856,446.403,449.043,453.447,458.237,461.228,462.938,466.268,470.492,477.387,481.629,486.12,490.218,493.299,497.468,500.107,504.898,507.888,509.598,512.598,518.442,521.343,523.973,527.53,530.611,534.913,538.243,541.747,546.049,549.605" svgx:width="0.6,0.49,0.37,0.38,0.51,0.47,0.53,0.49,0.53,0.31,0.51,0.53,0.34,0.23,0.38,0.49,0.79,0.49,0.51,0.47,0.37,0.49,0.31,0.53,0.34,0.23,0.34,0.66,0.34,0.31,0.4,0.37,0.49,0.38,0.4,0.49,0.4,0.33" style="fill:rgb(0,0,0);font-family:MinionPro-It;font-size:9.0px;stroke:none;">Tarchonanthus camphoratus (Asteraceae)</text>
   <text y="356.998" x="552.589,554.641" svgx:width="0.23,0.23" style="fill:rgb(0,0,0);font-family:MinionPro-Regular;font-size:9.0px;stroke:none;">. </text>
   <text y="366.997" x="155.644,165.247,169.072,170.908,175.39,177.847,180.097,183.4,185.452,187.288,192.067,196.954,201.706,205.531,208.87,210.706,213.505,218.275,222.1,224.512,227.851,229.687,233.512,237.76,242.557,246.382,249.774,252.186,259.521,263.346,268.098,270.897,274.893,277.17,279.006,282.813,287.295,292.182,296.934,299.238,302.028,304.44,308.922,313.772,317.075,318.911,322.025,326.345,327.481,334.852,337.264,342.187,344.239,346.075,348.658,353.14,356.362,360.241,364.111,367.504,374.875,376.711,380.536,384.784,389.581,394.171,397.428,402.207,405.429,409.254,412.368,414.42,416.256,419.478,423.303,428.1,431.889,434.211,436.488,440.357,445.109,446.945,454.28,458.87,462.244,466.753,471.532,473.836,476.527,481.198,485.023,488.326,490.162,494.815,498.64,501.295,503.986,507.811,511.15,512.986,515.785,520.564,524.434,529.357,531.193,537.727,542.839,547.915,552.577,554.629" svgx:width="1.07,0.43,0.23,0.51,0.27,0.25,0.37,0.23,0.23,0.53,0.55,0.53,0.43,0.37,0.23,0.31,0.53,0.43,0.27,0.37,0.23,0.43,0.47,0.52,0.43,0.37,0.27,0.82,0.43,0.55,0.31,0.44,0.25,0.23,0.42,0.51,0.55,0.53,0.27,0.31,0.27,0.51,0.55,0.37,0.23,0.35,0.48,0.23,0.82,0.27,0.55,0.23,0.23,0.3,0.51,0.37,0.43,0.44,0.37,0.82,0.23,0.43,0.47,0.52,0.51,0.37,0.53,0.37,0.43,0.35,0.23,0.23,0.37,0.43,0.52,0.43,0.25,0.25,0.43,0.53,0.23,0.82,0.51,0.37,0.51,0.53,0.27,0.31,0.51,0.43,0.37,0.23,0.51,0.43,0.31,0.31,0.43,0.37,0.23,0.31,0.53,0.44,0.55,0.23,0.74,0.57,0.57,0.62,0.23,0.23" style="fill:rgb(0,0,0);font-family:MinionPro-Regular;font-size:9.0px;stroke:none;">The oils, under their experimental conditions (3 min, forearm exposure), repelled mosquitoes better than DEET. </text>
   <text y="376.996" x="155.644,162.079,164.284,166.444,169.905,174.204,176.964,181.317,184.779,187.287" svgx:width="0.7,0.23,0.23,0.38,0.49,0.31,0.49,0.37,0.27,0.49" style="fill:rgb(0,0,0);font-family:MinionPro-It;font-size:9.0px;stroke:none;">N. cataria</text>
   <text y="376.996" x="191.787,193.924,196.066,199.963,204.531,211.992,219.413,223.981,229.035,231.336,235.557,237.699,242.285,247.258,251.791,258.068,263.081,265.223,269.234,272.622,274.764,278.684,282.55,285.426,290.439,292.829,297.635,299.777,304.344,307.773,309.915,313.836,317.701,320.578,328.034,330.536,335.375,338.205,340.347,342.489,344.961,348.349,350.491,354.532,356.674,360.018,364.901,368.856,372.753,375.255,379.166,382.559,384.701,389.269,392.019,394.161,397.046,401.902,405.817,407.959,413.022,416.979,424.435,426.961,430.997,434.894,438.859,442.896,446.811,448.953,451.703,455.659,463.12,465.662,467.963,471.523,473.665,475.807,478.612,481.447,483.589,486.06,489.449,491.591,496.573,500.438,503.315,505.75,509.932,513.842,515.984,518.762,523.437,525.579,528.356,532.271,539.557,544.44,548.351,551.437" svgx:width="0.23,0.23,0.42,0.51,0.82,0.82,0.51,0.55,0.25,0.46,0.23,0.5,0.55,0.51,0.69,0.55,0.23,0.44,0.37,0.23,0.42,0.44,0.31,0.55,0.27,0.52,0.23,0.51,0.37,0.23,0.42,0.44,0.31,0.82,0.27,0.55,0.31,0.23,0.23,0.27,0.37,0.23,0.44,0.23,0.37,0.52,0.43,0.42,0.27,0.43,0.37,0.23,0.51,0.3,0.23,0.31,0.53,0.43,0.23,0.54,0.44,0.82,0.27,0.44,0.42,0.43,0.44,0.43,0.23,0.3,0.44,0.82,0.27,0.25,0.46,0.23,0.23,0.34,0.31,0.23,0.27,0.37,0.23,0.55,0.44,0.31,0.27,0.46,0.43,0.23,0.31,0.51,0.23,0.31,0.43,0.82,0.52,0.43,0.37,0.36" style="fill:rgb(0,0,0);font-family:MinionPro-Regular;font-size:9.0px;stroke:none;">, commonly known as catnip or catmint, is a species of the Lamiaceae family. It is native to temper-</text>
   <text y="386.995" x="155.644,159.54,162.348,166.29,168.535,172.521,177.525,182.394,184.64,187.546,190.885,195.492,200.216,202.745,206.695,210.807,213.201,215.447,219.344,223.942,228.946,232.888,236.308,238.554,241.083,246.123,248.368,254.559,257.979,260.534,264.602,266.848,270.834,275.838,280.707,282.952,285.481,290.521,292.767,297.797,302.693,306.031,310.638,315.551,319.493,321.743,325.729,330.732,335.601,337.847,340.348,343.768,346.018,352.326,354.855,359.724,363.629,365.96,370.208,372.454,376.44,381.38,383.666,386.572,389.037,393.321,397.217,400.025,404.011" svgx:width="0.44,0.31,0.43,0.23,0.44,0.55,0.53,0.23,0.31,0.37,0.51,0.52,0.27,0.42,0.44,0.25,0.23,0.42,0.51,0.55,0.43,0.37,0.23,0.27,0.55,0.23,0.69,0.37,0.27,0.44,0.23,0.44,0.55,0.53,0.23,0.27,0.55,0.23,0.57,0.53,0.37,0.51,0.52,0.43,0.23,0.44,0.55,0.53,0.23,0.27,0.37,0.23,0.69,0.27,0.53,0.43,0.25,0.46,0.23,0.42,0.53,0.25,0.31,0.27,0.46,0.44,0.31,0.43,0.53" style="fill:rgb(0,0,0);font-family:MinionPro-Regular;font-size:9.0px;stroke:none;">ate and tropical zones in Asia and in Europe and is widely cultivated</text>
   <text y="383.94" x="408.852,411.736" svgx:width="0.48,0.48" style="fill:rgb(0,0,255);font-family:MinionPro-Regular;font-size:5.85px;stroke:none;">22</text>
   <text y="387.0" x="414.619,416.788" svgx:width="0.23,0.23" style="fill:rgb(0,0,0);font-family:MinionPro-Regular;font-size:9.0px;stroke:none;">. </text>
   <text y="387.0" x="419.029,425.23,428.911,433.366,437.02,439.811,444.338,446.606,450.099,454.428,457.218,461.602,465.094,467.632" svgx:width="0.7,0.4,0.49,0.4,0.31,0.49,0.23,0.38,0.49,0.31,0.49,0.37,0.27,0.49" style="fill:rgb(0,0,0);font-family:MinionPro-It;font-size:9.0px;stroke:none;">Nepeta cataria</text>
   <text y="387.0" x="472.156,474.406" svgx:width="0.23,0.35" style="fill:rgb(0,0,0);font-family:MinionPro-Regular;font-size:9.0px;stroke:none;"> (</text>
   <text y="387.0" x="477.628,484.09,486.322,488.59,492.082,496.412,499.202,503.585,507.078,509.616" svgx:width="0.7,0.23,0.23,0.38,0.49,0.31,0.49,0.37,0.27,0.49" style="fill:rgb(0,0,0);font-family:MinionPro-It;font-size:9.0px;stroke:none;">N. cataria</text>
   <text y="387.0" x="514.143,517.374,519.619,524.515,528.556,531.975,534.221,541.682,545.668,550.5,554.631" svgx:width="0.35,0.23,0.53,0.44,0.37,0.23,0.82,0.44,0.55,0.46,0.23" style="fill:rgb(0,0,0);font-family:MinionPro-Regular;font-size:9.0px;stroke:none;">) has many </text>
   <text y="396.999" x="155.626,160.4,163.799,167.646,170.972,172.934,175.368,180.314,182.276,185.088,188.454,192.428,197.202,199.53,202.342,204.777,209.282,214.201,218.219,220.523,222.485,229.843,233.736,238.51,240.949,244.779,247.213,252.123,255.975,257.937,260.376,265.285,269.061,271.253,276.055,280.829,283.268,288.142,292.376,294.338,297.151,300.396,304.298,308.1,310.913,318.271,322.119,326.893,329.665,331.627,336.133,338.819,340.781,344.557,349.385,351.865,354.21,356.483,359.808,361.887,363.849,367.679,372.228,374.528,379.276,382.601,384.676,386.638,390.468,394.973,399.846,403.128,405.94,408.267,413.05,416.854,419.666,422.101,426.606,431.552,433.626,435.588,440.381,444.283,448.257,453.058,457.036,460.812,465.604,469.456,472.782,474.856,476.818,479.253,484.203,486.808,490.701,494.593,497.406,499.845,504.349,509.223,512.553,514.627,516.589,519.024,523.974,528.82,532.713,540.106,547.474,551.419" svgx:width="0.53,0.37,0.43,0.37,0.23,0.27,0.55,0.23,0.31,0.37,0.44,0.53,0.27,0.31,0.27,0.51,0.55,0.44,0.25,0.23,0.82,0.43,0.53,0.27,0.42,0.27,0.55,0.43,0.23,0.27,0.55,0.42,0.25,0.53,0.53,0.27,0.55,0.47,0.23,0.31,0.37,0.43,0.44,0.31,0.82,0.43,0.55,0.31,0.23,0.51,0.3,0.23,0.42,0.53,0.27,0.25,0.25,0.37,0.23,0.23,0.42,0.51,0.25,0.53,0.37,0.23,0.23,0.42,0.51,0.55,0.37,0.31,0.27,0.52,0.44,0.31,0.27,0.51,0.55,0.23,0.23,0.53,0.43,0.44,0.53,0.44,0.42,0.53,0.43,0.37,0.23,0.23,0.27,0.55,0.3,0.43,0.42,0.31,0.27,0.51,0.55,0.37,0.23,0.23,0.27,0.55,0.53,0.44,0.82,0.82,0.44,0.36" style="fill:rgb(0,0,0);font-family:MinionPro-Regular;font-size:9.0px;stroke:none;">uses in traditional medicine including treatment of chills, colds, constipation, headaches, infections, inflamma-</text>
   <text y="406.998" x="155.626,158.503,161.005,165.574,170.513,173.906,176.048,178.19,181.58,186.437,190.352,195.221,202.652,206.519,209.396,211.868,215.261,222.722,224.864,227.006,230.467,235.036,238.346,242.261,244.403,247.289,252.185,255.494,260.216,264.083,266.918,270.311,272.453,274.595,277.94,282.788,286.799,290.192,297.578,300.971,303.113,305.255,309.213,314.186,319.028,321.17,324.515,327.294,331.862,339.293,343.334,347.174,352.07,354.212,358.253,362.092,366.949,370.864" svgx:width="0.31,0.27,0.51,0.55,0.37,0.23,0.23,0.37,0.53,0.43,0.53,0.82,0.44,0.31,0.27,0.37,0.82,0.23,0.23,0.37,0.51,0.37,0.43,0.23,0.31,0.53,0.37,0.51,0.44,0.31,0.37,0.23,0.23,0.37,0.52,0.44,0.37,0.82,0.37,0.23,0.23,0.44,0.55,0.53,0.23,0.37,0.31,0.51,0.82,0.44,0.42,0.53,0.23,0.44,0.42,0.53,0.43,0.37" style="fill:rgb(0,0,0);font-family:MinionPro-Regular;font-size:9.0px;stroke:none;">tions, rheumatism, sore throats, spasms, and stomach aches</text>
   <text y="403.94" x="374.208,377.075" svgx:width="0.48,0.48" style="fill:rgb(0,0,255);font-family:MinionPro-Regular;font-size:5.85px;stroke:none;">23</text>
   <text y="407.0" x="379.937,382.079" svgx:width="0.23,0.23" style="fill:rgb(0,0,0);font-family:MinionPro-Regular;font-size:9.0px;stroke:none;">. </text>
   <text y="407.0" x="384.221,390.656,392.861,395.021,398.484,402.784,405.545,409.898,413.361,415.87" svgx:width="0.7,0.23,0.23,0.38,0.49,0.31,0.49,0.37,0.27,0.49" style="fill:rgb(0,0,0);font-family:MinionPro-It;font-size:9.0px;stroke:none;">N. cataria</text>
   <text y="407.0" x="420.37,421.609,425.002,427.144,431.059,434.404,437.866,441.781,446.62,449.496,452.023,456.105,458.472,460.614,465.183,467.727,470.094,472.236,477.12,481.8,485.145,488.608,492.523,495.868,499.33,503.245,506.638,508.78,512.738,517.577,520.453,522.917,527.62,531.661,535.618,538.396,542.311,545.79,548.317,552.4,554.677" svgx:width="0.22,0.37,0.23,0.43,0.37,0.37,0.43,0.55,0.31,0.27,0.44,0.25,0.23,0.51,0.27,0.25,0.23,0.52,0.51,0.37,0.37,0.43,0.37,0.37,0.43,0.37,0.23,0.44,0.55,0.31,0.27,0.51,0.44,0.42,0.31,0.43,0.37,0.27,0.44,0.25,0.23" style="fill:rgb(0,0,0);font-family:MinionPro-Regular;font-size:9.0px;stroke:none;">’s essential oil possesses antibacterial </text>
   <text y="416.999" x="155.639,159.532,164.441,169.216,171.178,175.07,179.845,182.657,185.091,192.484,194.919,198.748,201.993,206.56,211.047,213.508,217.527,219.826,221.788,226.42,229.664,234.178,238.996,242.844,246.295,249.108,251.542,255.39" svgx:width="0.44,0.55,0.53,0.23,0.44,0.55,0.31,0.27,0.82,0.27,0.42,0.37,0.51,0.51,0.27,0.44,0.25,0.23,0.52,0.37,0.51,0.52,0.43,0.37,0.31,0.27,0.43,0.37" style="fill:rgb(0,0,0);font-family:MinionPro-Regular;font-size:9.0px;stroke:none;">and antimicrobial properties</text>
   <text y="413.94" x="258.718,261.541" svgx:width="0.48,0.48" style="fill:rgb(0,0,255);font-family:MinionPro-Regular;font-size:5.85px;stroke:none;">24</text>
   <text y="413.94" x="264.364" svgx:width="0.23" style="fill:rgb(0,0,0);font-family:MinionPro-Regular;font-size:5.85px;stroke:none;">,</text>
   <text y="413.94" x="265.715,268.538" svgx:width="0.48,0.48" style="fill:rgb(0,0,255);font-family:MinionPro-Regular;font-size:5.85px;stroke:none;">25</text>
   <text y="417.0" x="271.357,273.432,275.394,281.879,285.726,290.545,294.393,297.214,301.233,303.559,307.533,311.425,314.139,318.643,323.553,327.4,329.362,332.499,339.208,344.253,349.117,352.254,354.216,356.623,359.949,361.911,364.732,369.525,373.372,375.335,382.701,386.504,388.875,393.38,396.741,398.703,402.533,407.037,411.911,415.191,418.004,420.33,423.008,427.809,431.657,436.431,439.199,441.161,445.665,448.352,450.314,453.135,457.964,460.371,463.697,465.659,470.163,472.643" svgx:width="0.23,0.23,0.74,0.43,0.52,0.43,0.31,0.44,0.25,0.44,0.42,0.31,0.51,0.55,0.43,0.23,0.35,0.74,0.56,0.54,0.35,0.23,0.27,0.37,0.23,0.31,0.53,0.43,0.23,0.82,0.44,0.26,0.51,0.37,0.23,0.42,0.51,0.55,0.37,0.31,0.27,0.31,0.53,0.43,0.55,0.31,0.23,0.51,0.3,0.23,0.31,0.53,0.27,0.37,0.23,0.51,0.27,0.25" style="fill:rgb(0,0,0);font-family:MinionPro-Regular;font-size:9.0px;stroke:none;">. Nepetalactone (NPL) is the major constituent of this oil</text>
   <text y="413.94" x="474.955,477.778" svgx:width="0.48,0.48" style="fill:rgb(0,0,255);font-family:MinionPro-Regular;font-size:5.85px;stroke:none;">26</text>
   <text y="413.94" x="480.601" svgx:width="0.52" style="fill:rgb(0,0,0);font-family:MinionPro-Regular;font-size:5.85px;stroke:none;">–</text>
   <text y="413.94" x="483.654,486.477" svgx:width="0.48,0.48" style="fill:rgb(0,0,255);font-family:MinionPro-Regular;font-size:5.85px;stroke:none;">29</text>
   <text y="417.0" x="489.302,491.377,493.339,499.896,505.03,510.129,514.813,516.888,518.849,522.652,527.292,531.967,534.266,536.701,540.593,545.372,547.334,550.047,554.637" svgx:width="0.23,0.23,0.74,0.57,0.57,0.62,0.23,0.23,0.44,0.52,0.52,0.25,0.27,0.43,0.53,0.23,0.31,0.51,0.23" style="fill:rgb(0,0,0);font-family:MinionPro-Regular;font-size:9.0px;stroke:none;">. DEET, applied to </text>
   <text y="426.999" x="155.636,158.483,163.302,167.172,169.179,171.81,176.34,179.611,183.537,187.455,190.897,198.313,200.41,202.417,205.687,209.557,214.402,218.24,220.609,222.931,226.85,231.647" svgx:width="0.31,0.53,0.43,0.23,0.3,0.51,0.37,0.43,0.44,0.37,0.82,0.23,0.23,0.37,0.43,0.52,0.43,0.25,0.25,0.43,0.53,0.23" style="fill:rgb(0,0,0);font-family:MinionPro-Regular;font-size:9.0px;stroke:none;">the forearm, repelled </text>
   <text y="426.999" x="233.654,239.408,243.003,247.588,251.164,254.246,256.271,260.666,264.23,268.248,272.392,276.706,279.433" svgx:width="0.66,0.4,0.51,0.4,0.34,0.23,0.49,0.4,0.42,0.44,0.49,0.31,0.27" style="fill:rgb(0,0,0);font-family:MinionPro-It;font-size:9.0px;stroke:none;">Aedes aegypti</text>
   <text y="426.999" x="281.96,284.057" svgx:width="0.23,0.23" style="fill:rgb(0,0,0);font-family:MinionPro-Regular;font-size:9.0px;stroke:none;">, </text>
   <text y="426.999" x="286.064,291.819,296.589,300.787,305.119,309.7,313.205,315.458,319.034,322.116,324.141,328.41,333.22,337.612,342.116,345.539,347.928,354.993,359.385,362.87,367.671,369.925,374.185,376.916,381.797" svgx:width="0.66,0.53,0.47,0.49,0.51,0.4,0.25,0.4,0.34,0.23,0.48,0.53,0.49,0.51,0.37,0.27,0.79,0.49,0.38,0.53,0.25,0.49,0.31,0.53,0.34" style="fill:rgb(0,0,0);font-family:MinionPro-It;font-size:9.0px;stroke:none;">Anopheles quadrimaculatus</text>
   <text y="426.999" x="384.893,386.99,388.997,392.916,397.851,402.648" svgx:width="0.23,0.23,0.44,0.55,0.53,0.23" style="fill:rgb(0,0,0);font-family:MinionPro-Regular;font-size:9.0px;stroke:none;">, and </text>
   <text y="426.999" x="404.655,410.409,415.179,419.377,423.71,428.291,431.795,434.049,437.624,440.706,442.731,447.091,449.254,453.587,455.975,463.04,467.355,472.039,476.92" svgx:width="0.66,0.53,0.47,0.49,0.51,0.4,0.25,0.4,0.34,0.23,0.49,0.25,0.49,0.27,0.79,0.49,0.53,0.53,0.34" style="fill:rgb(0,0,0);font-family:MinionPro-It;font-size:9.0px;stroke:none;">Anopheles albimanus</text>
   <text y="426.999" x="480.023,482.03,484.662,489.192,492.576,494.583,498.948,503.313,507.678,508.859,516.276,518.732,523.701,525.797,527.805,532.169,536.534,537.722,545.138,547.595,552.563,554.615" svgx:width="0.23,0.3,0.51,0.37,0.23,0.48,0.48,0.48,0.23,0.82,0.27,0.55,0.23,0.23,0.48,0.48,0.23,0.82,0.27,0.55,0.23,0.23" style="fill:rgb(0,0,0);font-family:MinionPro-Regular;font-size:9.0px;stroke:none;"> for 426 min, 96 min, </text>
   <text y="436.998" x="155.627,159.498,164.386,169.138,171.082,175.402,179.722,180.845,188.216,190.628,195.551,197.603,199.547,202.77,206.595,209.854,214.652,218.523,222.393,225.184,227.535,231.631,235.421,237.635" svgx:width="0.44,0.55,0.53,0.23,0.48,0.48,0.23,0.82,0.27,0.55,0.23,0.23,0.37,0.43,0.37,0.52,0.43,0.42,0.31,0.27,0.46,0.43,0.25,0.46" style="fill:rgb(0,0,0);font-family:MinionPro-Regular;font-size:9.0px;stroke:none;">and 87 min, respectively</text>
   <text y="433.94" x="241.784,244.592" svgx:width="0.48,0.48" style="fill:rgb(0,0,255);font-family:MinionPro-Regular;font-size:5.85px;stroke:none;">29</text>
   <text y="437.0" x="247.402,249.454,251.398,257.617,259.561,263.881,268.201,275.005,276.949,281.044,285.572,287.742,292.521,299.857,303.682,305.626,308.381,311.72,315.671,319.542,322.333,324.745,329.228,334.151,336.095,340.579,343.243,345.187,351.721,356.833,361.91,367.463,369.407,371.819,376.742,378.686,382.511,385.311,390.092,393.963,398.851,403.379,405.656,407.6,410.823,414.648,419.446,423.236,425.558,427.835,431.706,436.458" svgx:width="0.23,0.23,0.69,0.23,0.48,0.48,0.76,0.23,0.46,0.51,0.25,0.53,0.82,0.43,0.23,0.3,0.37,0.44,0.42,0.31,0.27,0.51,0.55,0.23,0.51,0.3,0.23,0.74,0.57,0.57,0.62,0.23,0.27,0.55,0.23,0.43,0.31,0.53,0.44,0.55,0.51,0.25,0.23,0.37,0.43,0.52,0.43,0.25,0.25,0.43,0.53,0.23" style="fill:rgb(0,0,0);font-family:MinionPro-Regular;font-size:9.0px;stroke:none;">. A 25% volume fraction of DEET in ethanol repelled </text>
   <text y="437.0" x="438.402,444.109,447.656,452.193,455.723,458.757,460.719,465.067,468.586,472.556,476.652,480.918,483.6" svgx:width="0.66,0.4,0.51,0.4,0.34,0.23,0.49,0.4,0.42,0.44,0.49,0.31,0.27" style="fill:rgb(0,0,0);font-family:MinionPro-It;font-size:9.0px;stroke:none;">Aedes aegypti</text>
   <text y="437.0" x="486.055,487.999,490.583,495.066,498.405,500.349,504.669,506.613" svgx:width="0.23,0.3,0.51,0.37,0.23,0.48,0.23,0.53" style="fill:rgb(0,0,0);font-family:MinionPro-Regular;font-size:9.0px;stroke:none;"> for 8 h</text>
   <text y="433.94" x="511.413,514.221" svgx:width="0.48,0.48" style="fill:rgb(0,0,255);font-family:MinionPro-Regular;font-size:5.85px;stroke:none;">30</text>
   <text y="437.0" x="517.031,519.083,521.027,529.658,534.429,538.254,541.477,545.357,549.282,552.585,554.637" svgx:width="0.23,0.23,0.97,0.53,0.43,0.37,0.43,0.44,0.37,0.23,0.23" style="fill:rgb(0,0,0);font-family:MinionPro-Regular;font-size:9.0px;stroke:none;">. Whereas, </text>
   <text y="446.999" x="155.636,161.108,164.933,168.326,173.249,175.661,179.486,182.825,184.67,187.253,191.744,196.523,201.41,206.162,208.007,210.805,215.584,219.364,222.109,223.954,227.905,229.75,234.502,239.092,242.467,246.292,248.137,252.619,255.283,257.128,261.448,263.5,267.82,268.955,276.254,280.466,281.591,285.398" svgx:width="0.59,0.43,0.37,0.55,0.27,0.43,0.37,0.23,0.3,0.51,0.53,0.55,0.53,0.23,0.31,0.53,0.44,0.31,0.23,0.44,0.23,0.53,0.51,0.37,0.43,0.23,0.51,0.3,0.23,0.48,0.23,0.48,0.23,0.82,0.47,0.23,0.42,0.82" style="fill:rgb(0,0,0);font-family:MinionPro-Regular;font-size:9.0px;stroke:none;">Bernier found that a dose of 0.5 mg cm</text>
   <text y="443.94" x="292.772" svgx:width="0.78" style="fill:rgb(0,0,0);font-family:EuclidSymbol;font-size:5.85px;stroke:none;">−</text>
   <text y="443.94" x="297.323" svgx:width="0.48" style="fill:rgb(0,0,0);font-family:MinionPro-Regular;font-size:5.85px;stroke:none;">2</text>
   <text y="447.0" x="300.131,301.976,306.458,309.122,310.967,317.501,322.613,327.689,333.242,335.087,338.867,343.484,348.137,350.414,352.826,356.696,361.448,363.293,365.984,370.574,372.419,376.37,378.215,385.415,390.167,393.434,395.711,398.123,403.046,404.891,408.643,410.92,415.412,418.21,423.016,424.861,429.621,433.401,436.092,439.845,444.651,446.496,452.661,456.585,459.888,461.733,465.684,469.554,472.344,474.693,478.788,482.613,484.458,487.041,491.523,494.862,496.707,501.027,505.347,506.492,511.298,513.35,515.195,521.261,525.041,527.831,532.754,535.058,539.117,540.269,543.572,545.417,549.899,552.355,554.632" svgx:width="0.23,0.51,0.3,0.23,0.74,0.57,0.57,0.62,0.23,0.44,0.52,0.52,0.25,0.27,0.43,0.53,0.23,0.31,0.51,0.23,0.44,0.23,0.82,0.53,0.37,0.25,0.27,0.55,0.23,0.42,0.25,0.51,0.31,0.53,0.23,0.52,0.44,0.31,0.42,0.53,0.23,0.69,0.44,0.37,0.23,0.44,0.42,0.31,0.27,0.46,0.43,0.23,0.3,0.51,0.37,0.23,0.48,0.48,0.23,0.53,0.23,0.23,0.67,0.44,0.31,0.55,0.27,0.52,0.22,0.37,0.23,0.51,0.27,0.25,0.23" style="fill:rgb(0,0,0);font-family:MinionPro-Regular;font-size:9.0px;stroke:none;"> of DEET applied to a muslin cloth patch was active for 24 h. Catnip’s oil </text>
   <text y="456.999" x="155.636,158.021,161.324,163.16,167.111,168.947,173.599,177.424,180.079,182.77,186.595,189.934,191.77,195.028,199.789,203.568,206.358,208.797,212.793,215.07,216.906,220.128,223.953,228.749,232.538,234.86,237.137,240.962,245.714,248.459,250.295,253.094,257.873,261.743,266.666,268.502,275.035,280.147,285.223,290.776,292.612,296.482,301.369,306.121,307.957,312.709,316.534,323.869,328.351,333.202,336.46,339.25,342.589,346.369,349.06,352.929,357.681,359.517,363.342,368.31,372.18,376.05,378.839,381.188,385.283,389.108,390.944,393.635,398.126,402.734,405.146,408.98,412.976,415.253,417.089,420.311,424.136,428.933,432.722,435.044,437.322,441.147,446.034,449.984,454.115,455.951,460.559,463.781,468.272,473.069,476.894,480.323,483.113,485.525,489.35" svgx:width="0.27,0.37,0.23,0.44,0.23,0.51,0.43,0.31,0.31,0.43,0.37,0.23,0.37,0.52,0.44,0.31,0.27,0.44,0.25,0.23,0.37,0.43,0.52,0.43,0.25,0.25,0.43,0.55,0.31,0.23,0.31,0.53,0.44,0.55,0.23,0.74,0.57,0.57,0.62,0.23,0.44,0.55,0.53,0.23,0.53,0.43,0.82,0.51,0.55,0.37,0.31,0.37,0.44,0.31,0.43,0.53,0.23,0.43,0.56,0.43,0.42,0.31,0.27,0.46,0.43,0.23,0.31,0.51,0.52,0.27,0.42,0.44,0.25,0.23,0.37,0.43,0.52,0.43,0.25,0.25,0.43,0.55,0.42,0.46,0.23,0.52,0.37,0.51,0.52,0.43,0.37,0.31,0.27,0.43,0.37" style="fill:rgb(0,0,0);font-family:MinionPro-Regular;font-size:9.0px;stroke:none;">is a better spatial repellent than DEET and demonstrated effective topical repellency properties</text>
   <text y="453.94" x="492.686,495.494" svgx:width="0.48,0.48" style="fill:rgb(0,0,255);font-family:MinionPro-Regular;font-size:5.85px;stroke:none;">31</text>
   <text y="457.0" x="498.302" svgx:width="0.23" style="fill:rgb(0,0,0);font-family:MinionPro-Regular;font-size:9.0px;stroke:none;">.</text>
   <text y="466.999" x="167.642,174.473,179.641,184.627,186.976,189.507,192.954,195.303,199.372,202.819,205.168,209.263,213.279,216.215,218.71,222.951,226.92,229.269,233.338,236.785,239.134,245.814,251.07,256.292,261.989,264.338,268.354,273.387,278.283,280.632,283.081,285.97,289.417,291.766,296.511,300.716,305.612,308.98,313.714,318.0,321.969,327.01,330.936,333.773,337.789,342.685,345.034,347.763,352.39,355.929,363.444,365.793,370.617,372.966,377.862,380.465,385.21,389.415,394.311,397.678,402.307,407.34,411.309,416.252,420.221,423.165,427.307,429.757,433.852,437.868,440.705,445.333,450.365,454.334,456.683,461.507,463.856,466.387,469.834,472.183,475.101,481.34,486.074,488.423,491.359,493.915,501.395,505.364,508.811,511.16,518.641,523.27,526.638,530.607,532.956,537.051,541.066,544.001,546.497,550.738,554.563" svgx:width="0.74,0.56,0.54,0.23,0.27,0.37,0.23,0.44,0.37,0.23,0.44,0.42,0.31,0.27,0.46,0.43,0.23,0.44,0.37,0.23,0.74,0.57,0.57,0.62,0.23,0.44,0.55,0.53,0.23,0.27,0.31,0.37,0.23,0.53,0.46,0.53,0.37,0.51,0.47,0.43,0.55,0.44,0.31,0.43,0.53,0.23,0.3,0.51,0.37,0.82,0.23,0.52,0.23,0.53,0.27,0.53,0.46,0.53,0.37,0.51,0.55,0.43,0.52,0.43,0.31,0.44,0.25,0.44,0.42,0.31,0.51,0.55,0.43,0.23,0.52,0.23,0.27,0.37,0.23,0.31,0.69,0.51,0.23,0.31,0.27,0.82,0.43,0.37,0.23,0.82,0.51,0.37,0.43,0.23,0.44,0.42,0.31,0.27,0.46,0.43,0.23" style="fill:rgb(0,0,0);font-family:MinionPro-Regular;font-size:9.0px;stroke:none;">NPL is as active as DEET and its hydrogenated form – dihydronepetalactone – is two times more active </text>
   <text y="476.998" x="155.645,158.558,163.453,167.438,172.478,174.719,181.368,186.597,191.787,197.457,199.698,206.041,210.926,214.868,219.908,222.149,224.846,229.443,232.951,240.266,245.204,247.622,251.518,254.323,258.307,263.176,265.417,271.724,274.143,277.056,281.979,284.22,286.719,290.209,294.815,299.538,302.874,307.48,312.167,316.476,318.87,321.111,325.222,327.616,331.54,336.182,341.067,345.709,348.103,350.344,353.575,358.012,364.933,367.174,373.456,376.552,380.836" svgx:width="0.31,0.53,0.44,0.55,0.23,0.74,0.57,0.57,0.62,0.23,0.69,0.53,0.43,0.55,0.23,0.3,0.51,0.37,0.82,0.53,0.25,0.44,0.31,0.43,0.53,0.23,0.69,0.27,0.31,0.53,0.23,0.27,0.37,0.51,0.52,0.37,0.51,0.52,0.46,0.25,0.23,0.44,0.25,0.42,0.51,0.53,0.51,0.25,0.23,0.35,0.48,0.76,0.23,0.69,0.33,0.46,0.35" style="fill:rgb(0,0,0);font-family:MinionPro-Regular;font-size:9.0px;stroke:none;">than DEET when formulated with isopropyl alcohol (1% w/v)</text>
   <text y="473.94" x="384.012,386.896" svgx:width="0.48,0.48" style="fill:rgb(0,0,255);font-family:MinionPro-Regular;font-size:5.85px;stroke:none;">32</text>
   <text y="477.0" x="389.777,391.946,394.187,400.493,407.942,412.54,417.506,421.835,424.076,428.513,432.95,435.191,440.06,442.589,447.672,451.614,454.95,458.892,463.759,466.621,468.862,472.803,476.177,479.666,483.608,488.474,491.379,493.933,498.043,500.437,502.678,507.275,509.847,512.212,515.632,517.873,521.768,526.499,531.268,533.661,536.19,540.175,545.044,547.285,550.091,554.681" svgx:width="0.23,0.23,0.69,0.82,0.51,0.55,0.47,0.23,0.48,0.48,0.23,0.53,0.27,0.56,0.43,0.37,0.43,0.55,0.31,0.23,0.43,0.37,0.37,0.43,0.55,0.31,0.27,0.44,0.25,0.23,0.51,0.27,0.25,0.37,0.23,0.44,0.52,0.52,0.25,0.27,0.43,0.53,0.23,0.31,0.51,0.23" style="fill:rgb(0,0,0);font-family:MinionPro-Regular;font-size:9.0px;stroke:none;">. Among 41 different essential oils applied to </text>
   <text y="486.999" x="155.642,158.913,163.418,165.834,170.762,172.818,174.762,180.832,184.617,187.411,192.343,194.651,198.715,199.871,203.179,205.123,209.609,214.583,218.412,221.639,225.513,230.27,232.214,236.826,240.053,244.549,247.245,251.119,254.993,257.787,260.204,264.69,269.622,271.566,274.154,278.64,281.984,283.928,288.252,292.577,296.901,298.845,306.221,308.637" svgx:width="0.37,0.5,0.27,0.55,0.23,0.23,0.67,0.44,0.31,0.55,0.27,0.52,0.22,0.37,0.23,0.51,0.56,0.43,0.37,0.43,0.53,0.23,0.52,0.37,0.51,0.31,0.43,0.42,0.31,0.27,0.51,0.55,0.23,0.3,0.51,0.37,0.23,0.48,0.48,0.48,0.23,0.82,0.27,0.55" style="fill:rgb(0,0,0);font-family:MinionPro-Regular;font-size:9.0px;stroke:none;">skin, Catnip’s offered protection for 480 min</text>
   <text y="483.94" x="313.565,316.376" svgx:width="0.48,0.48" style="fill:rgb(0,0,255);font-family:MinionPro-Regular;font-size:5.85px;stroke:none;">33</text>
   <text y="487.0" x="319.187,321.243,323.187,330.977,335.463,338.69,342.564,347.015,351.114,354.944,357.72,359.777" svgx:width="0.23,0.23,0.89,0.51,0.37,0.43,0.51,0.46,0.43,0.37,0.23,0.23" style="fill:rgb(0,0,0);font-family:MinionPro-Regular;font-size:9.0px;stroke:none;">. Moreover, </text>
   <text y="487.0" x="361.721,368.07,370.19,372.152,375.531,379.749,382.426,386.697,390.076,392.502" svgx:width="0.7,0.23,0.23,0.38,0.49,0.31,0.49,0.37,0.27,0.49" style="fill:rgb(0,0,0);font-family:MinionPro-It;font-size:9.0px;stroke:none;">N. cataria</text>
   <text y="487.0" x="396.92,398.864,402.693,406.946,411.761,414.14,418.61,420.918,423.668,426.975,428.919,432.875,434.819,442.158,446.645,449.871,453.701,455.645,458.313,462.108,466.207,470.694,474.037,477.921,482.434,484.716,488.545,490.489,493.851,497.725,500.313,504.142,506.919,511.054,512.998,517.611,520.838,525.325,530.189,532.471,536.3,538.244,541.048,545.831,549.706,554.629" svgx:width="0.23,0.43,0.47,0.53,0.27,0.51,0.27,0.31,0.37,0.23,0.44,0.23,0.82,0.51,0.37,0.43,0.23,0.3,0.44,0.46,0.51,0.37,0.44,0.51,0.25,0.43,0.23,0.37,0.44,0.3,0.43,0.31,0.46,0.23,0.52,0.37,0.51,0.54,0.25,0.43,0.23,0.31,0.53,0.44,0.55,0.23" style="fill:rgb(0,0,0);font-family:MinionPro-Regular;font-size:9.0px;stroke:none;"> exhibits a more favorable safety profile than </text>
   <text y="496.999" x="155.639,162.308,167.554,172.763" svgx:width="0.74,0.57,0.57,0.62" style="fill:rgb(0,0,0);font-family:MinionPro-Regular;font-size:9.0px;stroke:none;">DEET</text>
   <text y="493.94" x="178.448,181.344" svgx:width="0.48,0.48" style="fill:rgb(0,0,255);font-family:MinionPro-Regular;font-size:5.85px;stroke:none;">34</text>
   <text y="497.0" x="184.238,186.425,188.729,193.786,198.591,202.559,206.689,209.101,211.405,215.347,219.963,227.469,234.802,239.716,244.774,247.211,250.135,252.682,256.642,260.08,262.384,268.71,271.257,276.144,280.068,282.416,286.682,288.986,293.072,297.014,300.956,304.916,309.666,312.546,314.85,318.81,322.202,325.71,329.67,334.556,337.48,340.052,344.182,346.594,348.898,353.515,356.105,358.517,360.821,365.572,369.63,373.138,377.142,382.029,384.333,392.487,398.335,400.522,402.826,405.886,410.944,413.248,419.79,424.703,428.707,433.737,437.823,440.01,442.314,446.769,451.224,458.163,460.467,465.083,467.882,470.186,473.119,478.022,481.982,484.286,487.678,490.467,495.382,500.268,502.815,506.82,511.707,514.011,518.941,523.566,528.317,533.274,535.712,539.626,542.55,545.097,549.713,554.636" svgx:width="0.23,0.23,0.54,0.51,0.42,0.44,0.25,0.23,0.42,0.51,0.82,0.82,0.53,0.55,0.27,0.31,0.27,0.43,0.37,0.23,0.69,0.27,0.53,0.43,0.25,0.46,0.23,0.44,0.42,0.42,0.43,0.52,0.31,0.23,0.43,0.37,0.37,0.43,0.55,0.31,0.27,0.44,0.25,0.23,0.51,0.27,0.25,0.23,0.51,0.44,0.37,0.43,0.53,0.23,0.89,0.62,0.23,0.23,0.34,0.55,0.23,0.71,0.53,0.44,0.55,0.44,0.23,0.23,0.48,0.48,0.76,0.23,0.51,0.3,0.23,0.31,0.53,0.43,0.23,0.37,0.31,0.53,0.53,0.27,0.43,0.53,0.23,0.52,0.51,0.52,0.53,0.25,0.44,0.31,0.27,0.51,0.55,0.23" style="fill:rgb(0,0,0);font-family:MinionPro-Regular;font-size:9.0px;stroke:none;">. Local communities widely accept essential oil based MR. In Ghana, 97% of the studied population </text>
   <text y="506.999" x="155.636,160.451,164.339,167.705,170.18,173.464,177.396,182.211,184.263,187.016,191.669,193.721,197.591,202.135,206.948,209.799,212.274,217.087,221.929,225.817,227.869,231.711,236.389,241.103,243.379,247.598,250.073,254.985,259.26,261.313,264.173,269.004,272.892,274.944,283.026,288.678,290.73,294.662,299.907,303.795,307.197,309.249,312.109,316.941,320.829,322.881,327.264,330.531,337.927,342.47,347.283,350.143,355.012,357.064,359.916,363.37,365.87,369.927" svgx:width="0.53,0.43,0.37,0.27,0.37,0.43,0.53,0.23,0.31,0.51,0.23,0.42,0.51,0.55,0.31,0.27,0.55,0.53,0.43,0.23,0.44,0.52,0.52,0.25,0.46,0.27,0.55,0.47,0.23,0.31,0.53,0.43,0.23,0.89,0.62,0.23,0.44,0.58,0.43,0.37,0.23,0.31,0.53,0.43,0.23,0.48,0.36,0.82,0.51,0.55,0.31,0.53,0.23,0.31,0.37,0.27,0.44,0.25" style="fill:rgb(0,0,0);font-family:MinionPro-Regular;font-size:9.0px;stroke:none;">desired to continue applying the MR after the 3-month trial</text>
   <text y="503.94" x="372.245,375.094" svgx:width="0.48,0.48" style="fill:rgb(0,0,255);font-family:MinionPro-Regular;font-size:5.85px;stroke:none;">35</text>
   <text y="507.0" x="377.941,380.054,382.106,390.123,395.036,399.138,399.966,404.509,409.421,413.523,414.351,419.003" svgx:width="0.23,0.23,0.89,0.55,0.47,0.22,0.51,0.55,0.47,0.22,0.51,0.23" style="fill:rgb(0,0,0);font-family:MinionPro-Regular;font-size:9.0px;stroke:none;">. Mng’ong’o </text>
   <text y="507.0" x="421.055,424.654,427.479,429.549,433.923" svgx:width="0.4,0.31,0.23,0.49,0.25" style="fill:rgb(0,0,0);font-family:MinionPro-It;font-size:9.0px;stroke:none;">et al</text>
   <text y="507.0" x="436.225" svgx:width="0.23" style="fill:rgb(0,0,0);font-family:MinionPro-Regular;font-size:9.0px;stroke:none;">.</text>
   <text y="503.94" x="438.341,441.19" svgx:width="0.48,0.48" style="fill:rgb(0,0,255);font-family:MinionPro-Regular;font-size:5.85px;stroke:none;">36</text>
   <text y="507.0" x="444.036,446.089,448.733,453.285,458.127,463.075,467.89,469.942,472.802,477.643,481.485,484.293,486.345,489.711,492.186,496.497,498.549,501.833,505.721,510.578,514.429,516.812,519.152,523.04,527.854,530.662,532.714,537.428,539.793,543.724,548.537,551.345,554.648" svgx:width="0.23,0.3,0.51,0.53,0.55,0.53,0.23,0.31,0.53,0.44,0.31,0.23,0.37,0.27,0.47,0.23,0.37,0.43,0.52,0.43,0.25,0.25,0.43,0.55,0.31,0.23,0.52,0.25,0.44,0.55,0.31,0.37,0.23" style="fill:rgb(0,0,0);font-family:MinionPro-Regular;font-size:9.0px;stroke:none;"> found that six repellent plants </text>
   <text y="516.999" x="155.641,159.465,162.723,166.098,169.923,174.675,177.465,179.904,183.9,186.177,188.013,192.495,194.952,197.229,199.065,205.158,208.983,212.205,216.03,217.866,224.058,226.47,231.222,235.011,237.225,241.356,243.192,247.143,250.95,254.757,258.582,263.198,265.889,269.759,274.511,276.347,280.775,284.906,286.742,289.541,294.311,298.136,299.972,304.769,309.26,313.877,318.701,321.005,324.785,327.575,329.987,334.469,339.392,341.228,344.486,347.141,351.92,356.672,359.084,362.954,367.706,369.542,374.186,378.965,382.79,384.626,387.317,391.907,393.743,396.542,401.312,405.137,407.549,410.888,412.724,416.549,423.731,427.565,431.516,435.467,438.941" svgx:width="0.43,0.37,0.37,0.43,0.55,0.31,0.27,0.44,0.25,0.23,0.51,0.27,0.25,0.23,0.69,0.43,0.37,0.43,0.23,0.69,0.27,0.53,0.43,0.25,0.46,0.23,0.44,0.42,0.42,0.43,0.52,0.31,0.43,0.53,0.23,0.51,0.46,0.23,0.31,0.53,0.43,0.23,0.52,0.51,0.52,0.53,0.25,0.44,0.31,0.27,0.51,0.55,0.23,0.37,0.31,0.53,0.53,0.27,0.43,0.53,0.23,0.53,0.53,0.43,0.23,0.31,0.51,0.23,0.31,0.53,0.43,0.27,0.37,0.23,0.43,0.8,0.42,0.44,0.42,0.46,0.23" style="fill:rgb(0,0,0);font-family:MinionPro-Regular;font-size:9.0px;stroke:none;">essential oil were widely accepted by the population studied due to their efficacy.</text>
   <text y="526.998" x="167.637,170.641,175.471,178.339,181.639,186.388,191.11,195.97,199.858,202.351,207.28,211.573,213.688,218.419,220.801,224.75,229.58,232.406,234.521,239.216,243.219,246.671,250.619,255.452,257.567,264.981,269.652,273.105,277.692,282.552,284.934,287.704,292.375,294.49,297.79,301.696,306.57,310.438,312.838,315.196,319.102,323.932,326.758,330.142,332.257,335.027,339.698,341.813,346.061,350.963,353.321,358.286,362.192,365.612,369.569,374.157,376.515,380.421,382.536,387.411,391.98,396.675,401.577,403.959,407.818,410.686,413.179,417.739,422.669,426.053,428.168,430.913,434.945,438.833,442.739,446.123,448.238,452.186,456.074,460.634,465.599,470.16,477.612,480.105,483.993,486.108,489.939,494.796,498.871,501.27,503.628,507.534,512.463,516.682,520.588,523.972,526.087,530.638,535.386,538.212,540.327,544.401,546.729,550.182,554.772" svgx:width="0.34,0.55,0.31,0.37,0.51,0.53,0.53,0.42,0.27,0.55,0.47,0.23,0.52,0.25,0.44,0.55,0.31,0.23,0.51,0.44,0.37,0.43,0.53,0.23,0.82,0.51,0.37,0.51,0.53,0.27,0.31,0.51,0.23,0.37,0.43,0.52,0.43,0.25,0.25,0.43,0.55,0.31,0.37,0.23,0.31,0.51,0.23,0.46,0.53,0.25,0.55,0.43,0.37,0.44,0.51,0.25,0.43,0.23,0.52,0.51,0.52,0.53,0.25,0.44,0.31,0.27,0.51,0.55,0.37,0.23,0.3,0.44,0.42,0.43,0.37,0.23,0.43,0.42,0.51,0.55,0.51,0.82,0.27,0.42,0.23,0.42,0.53,0.44,0.25,0.25,0.43,0.55,0.47,0.43,0.37,0.23,0.51,0.53,0.31,0.23,0.44,0.25,0.37,0.51,0.23" style="fill:rgb(0,0,0);font-family:MinionPro-Regular;font-size:9.0px;stroke:none;">Introducing plant based mosquito repellents to vulnerable populations faces economic challenges but also </text>
   <text y="536.997" x="155.641,159.016,163.686,167.493,169.906,173.73,176.529,180.525,182.802,184.746,188.617,193.504,198.256,200.2,204.34,208.787,212.882,216.707,220.1,225.023,232.358,236.183,240.935,243.735,247.731,250.008,251.952,256.587,261.366,264.588,269.386,271.663,275.488,278.791,280.843,282.787,287.369,292.148,295.577,298.376,303.147,306.972,310.365,317.7,322.183,325.405,329.176,331.228,333.172,335.971,340.742,344.639,348.77,350.714,357.914,362.666,365.925,368.67,370.614,375.267,379.092,381.036,385.923,390.405,395.157,397.848,402.294,406.542,408.954,412.761,414.705,420.897,423.201,426.0,430.806,432.75,435.973,439.798,443.056,447.853,451.723,455.593,458.338,460.282,462.973,467.563,469.507,474.259,478.084,481.477,488.822,492.818,495.095,497.039,500.909,505.796,510.548,512.492,516.389,520.448,524.273,526.217,530.024,534.507,539.259,542.058,546.009,549.879,552.624,554.676" svgx:width="0.37,0.51,0.42,0.27,0.43,0.31,0.44,0.25,0.23,0.44,0.55,0.53,0.23,0.47,0.51,0.46,0.43,0.37,0.55,0.82,0.43,0.55,0.31,0.44,0.25,0.23,0.53,0.53,0.37,0.53,0.25,0.43,0.37,0.23,0.23,0.53,0.53,0.37,0.31,0.53,0.43,0.37,0.82,0.51,0.37,0.43,0.23,0.23,0.31,0.53,0.43,0.46,0.23,0.82,0.53,0.37,0.31,0.23,0.51,0.43,0.23,0.55,0.51,0.55,0.31,0.51,0.47,0.27,0.42,0.23,0.69,0.27,0.31,0.53,0.23,0.37,0.43,0.37,0.52,0.43,0.42,0.31,0.23,0.31,0.51,0.23,0.53,0.43,0.37,0.82,0.44,0.25,0.23,0.44,0.55,0.53,0.23,0.43,0.46,0.43,0.23,0.42,0.51,0.55,0.31,0.44,0.42,0.31,0.23,0.23" style="fill:rgb(0,0,0);font-family:MinionPro-Regular;font-size:9.0px;stroke:none;">societal and governmental hurdles. Furthermore, they must be nontoxic with respect to dermal and eye contact, </text>
   <text y="546.996" x="155.641,158.062,162.925,167.078,170.912,174.182,176.985,179.406,183.9,188.833,190.894,192.847,196.729,201.629,206.39,208.343,210.764,215.744,220.536,224.545,226.86,230.653,233.455,235.876,240.371,245.303,247.364,249.317,255.567,260.547,262.833,265.302,269.698,273.532,275.485,278.797,282.968,287.733,290.544,295.327,299.161,301.963,304.384,308.2,310.153,313.387,317.221,322.031,325.832,328.166,330.452,334.286,339.051,341.805,345.117,347.178,349.131,351.942,356.725,360.559,362.512,366.278,371.06,374.894,382.274,384.695,388.541,392.55,394.836,396.789,400.605,405.099,412.311,417.12,421.719,425.031,427.348,430.151,432.572,437.066,441.998,443.951,448.446,451.119,453.072,456.906,460.176,463.564,467.398,472.163,474.964,477.416,481.425,483.711,485.664,490.158,492.627,494.89,498.202,500.263,502.216,504.502,506.972,511.368,515.202" svgx:width="0.27,0.55,0.47,0.43,0.37,0.31,0.27,0.51,0.55,0.23,0.23,0.44,0.55,0.53,0.23,0.27,0.55,0.53,0.44,0.25,0.44,0.31,0.27,0.51,0.55,0.23,0.23,0.74,0.55,0.25,0.27,0.5,0.43,0.23,0.37,0.46,0.55,0.31,0.53,0.43,0.31,0.27,0.42,0.23,0.37,0.43,0.52,0.43,0.25,0.25,0.43,0.55,0.31,0.37,0.23,0.23,0.31,0.53,0.43,0.23,0.42,0.53,0.43,0.82,0.27,0.42,0.44,0.25,0.23,0.42,0.51,0.82,0.52,0.51,0.37,0.27,0.31,0.27,0.51,0.55,0.23,0.51,0.3,0.23,0.43,0.37,0.37,0.43,0.55,0.31,0.27,0.44,0.25,0.23,0.51,0.27,0.25,0.37,0.23,0.23,0.25,0.27,0.5,0.43,0.23" style="fill:rgb(0,0,0);font-family:MinionPro-Regular;font-size:9.0px;stroke:none;">ingestion, and inhalation. Unlike synthetic repellents, the chemical composition of essential oils, like </text>
   <text y="546.996" x="517.155,523.509,525.633,527.604,530.991,535.216,537.901,542.18,545.568,548.001" svgx:width="0.7,0.23,0.23,0.38,0.49,0.31,0.49,0.37,0.27,0.49" style="fill:rgb(0,0,0);font-family:MinionPro-It;font-size:9.0px;stroke:none;">N. cataria</text>
   <text y="546.996" x="552.42,554.472" svgx:width="0.23,0.23" style="fill:rgb(0,0,0);font-family:MinionPro-Regular;font-size:9.0px;stroke:none;">, </text>
   <text y="556.995" x="155.641,159.501,164.036,168.839,171.689,175.611,178.077,183.055,185.071,189.877,194.464,198.298,202.177,207.079,210.436,212.452,216.986,219.704,221.72,225.581,230.115,237.366,242.214,246.757,251.59,256.529,261.305,264.662,266.678,269.846,274.038,278.76,283.429,288.134,290.465,294.344,301.73,305.609,310.413,313.264,317.311,319.642,321.658,324.124,329.101,331.736,336.27,339.714,347.109,350.941,353.783,356.249,360.782,365.759,367.775,372.095,376.469,379.637,381.743,383.759,393.413,397.292,399.308,403.313,407.235,410.076,412.476,416.623,420.502,422.518,424.984,429.888,434.196,437.469,441.39,446.196,448.662,452.541,457.345,460.144,462.16,469.411,474.215,477.525,480.324,482.34,487.146,491.025,498.411,502.944,507.847,511.157,513.998,517.391,521.223,523.965,527.844,529.86,532.216,535.015,538.372,540.388,544.267,551.503" svgx:width="0.42,0.51,0.55,0.31,0.44,0.27,0.55,0.23,0.53,0.51,0.42,0.43,0.55,0.37,0.23,0.51,0.3,0.23,0.42,0.51,0.82,0.52,0.51,0.53,0.55,0.53,0.37,0.23,0.35,0.47,0.53,0.52,0.52,0.25,0.43,0.82,0.43,0.55,0.31,0.44,0.25,0.23,0.27,0.55,0.3,0.51,0.37,0.82,0.44,0.31,0.27,0.51,0.55,0.23,0.47,0.48,0.35,0.23,0.23,1.07,0.43,0.23,0.44,0.42,0.31,0.27,0.46,0.43,0.23,0.27,0.55,0.47,0.37,0.43,0.53,0.27,0.43,0.55,0.31,0.23,0.82,0.53,0.37,0.31,0.23,0.53,0.43,0.82,0.51,0.55,0.37,0.31,0.37,0.44,0.31,0.43,0.23,0.27,0.31,0.37,0.23,0.43,0.8,0.36" style="fill:rgb(0,0,0);font-family:MinionPro-Regular;font-size:9.0px;stroke:none;">contain dozens of compounds (Supplemental information S1). The active ingredient must demonstrate its effi-</text>
   <text y="566.994" x="155.641,159.543,163.566,167.585,171.788,173.867,178.031,181.928,185.281,188.608,193.43,196.805,198.884,202.948,205.186,207.947,211.844,215.305,220.27,224.12,226.978,229.396,233.56,237.457,240.832,242.911,247.453,252.192,255.009,257.088,259.956,264.795,268.761,272.964,275.043,282.311,287.132,290.459,293.276,295.355,299.419,301.738,305.182,309.844,311.923,316.644,320.541,322.62,325.947,328.815,332.763,337.341,339.69,343.587,345.667,351.928,354.301,357.169,362.047,364.126,367.417,371.314,374.64,379.506,383.445,387.383,390.2,392.279,395.039,399.701,401.78,408.476,414.875,416.954,420.851,425.171,430.037,434.699,438.026,442.877,446.169,450.008,452.132,454.211,458.725,463.045,465.529,470.378,474.227,477.085,479.569,484.121,489.116,491.195,495.134,500.09,504.914,506.993,511.871,514.355,518.699,523.577,525.656,528.415,532.312,539.58,544.447,548.344,551.433" svgx:width="0.42,0.44,0.42,0.46,0.23,0.46,0.43,0.37,0.37,0.53,0.37,0.23,0.44,0.25,0.31,0.43,0.37,0.55,0.44,0.31,0.27,0.46,0.43,0.37,0.23,0.51,0.53,0.31,0.23,0.31,0.53,0.43,0.46,0.23,0.82,0.53,0.37,0.31,0.23,0.44,0.25,0.37,0.51,0.23,0.51,0.43,0.23,0.37,0.31,0.44,0.51,0.25,0.43,0.23,0.69,0.27,0.31,0.53,0.23,0.37,0.43,0.37,0.52,0.43,0.42,0.31,0.23,0.31,0.51,0.23,0.74,0.7,0.23,0.43,0.47,0.52,0.51,0.37,0.53,0.37,0.43,0.23,0.23,0.51,0.47,0.27,0.53,0.44,0.31,0.27,0.51,0.55,0.23,0.44,0.55,0.53,0.23,0.53,0.27,0.47,0.53,0.23,0.31,0.43,0.82,0.52,0.43,0.37,0.36" style="fill:rgb(0,0,0);font-family:MinionPro-Regular;font-size:9.0px;stroke:none;">cacy versus alternatives but they must also be stable with respect to UV exposure, oxidation and high temper-</text>
   <text y="576.993" x="155.64,159.47,162.174,167.002,170.274,174.147,176.154" svgx:width="0.44,0.31,0.53,0.37,0.43,0.23,0.35" style="fill:rgb(0,0,0);font-family:MinionPro-Regular;font-size:9.0px;stroke:none;">ature (</text>
   <text y="576.993" x="179.319" svgx:width="0.78" style="fill:rgb(0,0,0);font-family:EuclidSymbol;font-size:9.0px;stroke:none;">&gt;</text>
   <text y="576.993" x="186.375,190.745,195.114,196.284,199.421,205.455,208.618,210.719,212.726,220.559,225.091,228.362,232.281,236.776,240.921,244.794,247.616,249.717,251.724,254.463,259.103,261.11,265.11,268.912,273.767,276.229,280.174,284.319,288.192,290.199,293.047,297.867,301.74,303.747,306.101,310.02,313.336,317.525,321.4,324.706,327.501,329.508,334.353,338.993,342.3,345.652,348.078,352.636,354.962,358.836,360.843,365.645,368.078,371.386,374.225,377.667,380.092,384.615,389.335,392.174,394.635,399.166,404.139,406.146,409.974,412.769,414.776,417.624,422.443,426.317,428.324,430.651,435.146,441.288,445.162,448.469,451.264,453.271,457.127,461.766,465.073,467.868,469.968,471.975,474.301,479.021,482.904,486.949,489.275,491.282,496.129,500.669,505.335,510.208,512.561,516.39,519.229,521.69,526.222,531.122,534.474,536.481,543.731,548.531,551.839,554.584" svgx:width="0.48,0.48,0.23,0.34,0.67,0.35,0.23,0.23,0.89,0.51,0.37,0.43,0.51,0.46,0.43,0.37,0.23,0.23,0.31,0.51,0.23,0.44,0.42,0.53,0.27,0.43,0.46,0.43,0.23,0.31,0.53,0.43,0.23,0.25,0.44,0.37,0.47,0.43,0.37,0.31,0.23,0.52,0.51,0.37,0.37,0.27,0.51,0.25,0.43,0.23,0.53,0.27,0.37,0.31,0.37,0.27,0.51,0.53,0.31,0.27,0.51,0.55,0.23,0.44,0.31,0.23,0.31,0.53,0.43,0.23,0.25,0.51,0.69,0.43,0.37,0.31,0.23,0.42,0.51,0.37,0.31,0.23,0.23,0.25,0.51,0.42,0.44,0.25,0.23,0.52,0.51,0.52,0.53,0.25,0.44,0.31,0.27,0.51,0.55,0.37,0.23,0.82,0.53,0.37,0.31,0.23" style="fill:rgb(0,0,0);font-family:MinionPro-Regular;font-size:9.0px;stroke:none;">40 °C). Moreover, to achieve the largest possible distribution at the lowest cost, local populations must </text>
   <text y="586.992" x="155.631,159.892,163.118,167.567,173.079,175.131,177.075,181.857,185.731,189.335,193.433,197.258,200.52,203.265,205.209,209.082,213.973,218.725,220.669,224.494,228.742,231.536,234.875,238.826,242.699,245.444,247.388,250.191,254.964,258.789,260.733,264.684,268.558,271.352,273.704,277.803,281.628,283.572,285.984,290.839,295.099,298.325,302.198,306.95,309.362,313.187,317.943,320.688,323.991,326.043,327.987,333.211,335.623,338.929,343.316,347.141,349.799,352.544,354.488,358.362,363.253,368.005,369.949,374.938,377.35,381.107,385.493,389.318,391.977,394.722,396.666,401.418,403.807,407.185,410.992,415.442,419.54,423.365,426.591,430.465,435.217,437.161,439.963,444.737,448.562,450.506,454.331,461.513,465.35,469.301,473.256,477.387,479.331,483.817,486.481,488.425,493.315,497.14,501.941,505.766,508.46,512.991,515.299,519.25,523.123,525.818,530.303,535.194,539.019,540.963,544.837,549.727,554.479" svgx:width="0.47,0.37,0.51,0.69,0.23,0.23,0.53,0.44,0.37,0.46,0.43,0.37,0.31,0.23,0.44,0.55,0.53,0.23,0.43,0.47,0.31,0.37,0.44,0.42,0.31,0.23,0.31,0.53,0.43,0.23,0.44,0.42,0.31,0.27,0.46,0.43,0.23,0.27,0.55,0.47,0.37,0.43,0.53,0.27,0.43,0.55,0.31,0.37,0.23,0.23,0.59,0.27,0.37,0.5,0.43,0.31,0.31,0.23,0.44,0.55,0.53,0.23,0.56,0.27,0.42,0.5,0.43,0.31,0.31,0.23,0.53,0.27,0.37,0.42,0.51,0.46,0.43,0.37,0.43,0.53,0.23,0.31,0.53,0.43,0.23,0.43,0.8,0.42,0.44,0.42,0.46,0.23,0.51,0.3,0.23,0.55,0.43,0.52,0.43,0.31,0.51,0.25,0.44,0.42,0.31,0.51,0.55,0.43,0.23,0.44,0.55,0.53,0.23" style="fill:rgb(0,0,0);font-family:MinionPro-Regular;font-size:9.0px;stroke:none;">grow, harvest and extract the active ingredients. Birkett and Pickett discovered the efficacy of nepetolactone and </text>
   <text y="596.991" x="155.631,160.567,164.437,169.283,173.153,175.893,180.469,182.821,186.817,190.736,193.476,198.052,200.374,202.381,204.838,209.806,211.813,215.084,218.954,223.799,227.637,230.007,232.329,234.786,239.687,243.944,245.951,249.78,254.481,259.332,261.789,266.564,269.912,272.009,274.016,283.667,287.613,291.789,293.796,298.593,301.027,304.334,307.173,309.678,312.049,314.371,318.289,323.086,325.093,327.941,332.76,336.63,338.637,342.519,346.349,349.187,354.155,356.508,361.269,363.276,369.516,371.869,374.717,379.568,381.577,384.884,387.624,391.552,395.471,402.887,404.894,408.812,413.748,418.545,420.552,424.551,428.659,432.461,434.783,439.358,444.178,448.048,452.341,456.259,461.195,465.065,467.072,471.284,475.113,479.959,484.49,487.823,491.171,493.178,496.026,500.844,504.714,509.682,511.689,514.961,518.879,523.572,528.396,532.248,536.167,540.964,542.971,545.818,550.638,554.463" svgx:width="0.55,0.43,0.52,0.43,0.31,0.51,0.25,0.44,0.42,0.31,0.51,0.25,0.23,0.27,0.55,0.23,0.37,0.43,0.52,0.43,0.25,0.25,0.27,0.55,0.47,0.23,0.44,0.52,0.53,0.27,0.53,0.37,0.23,0.23,1.07,0.43,0.46,0.23,0.53,0.27,0.37,0.31,0.27,0.25,0.25,0.43,0.53,0.23,0.31,0.53,0.43,0.23,0.42,0.44,0.31,0.55,0.27,0.52,0.23,0.69,0.27,0.31,0.53,0.23,0.37,0.31,0.43,0.44,0.82,0.23,0.44,0.55,0.53,0.23,0.42,0.46,0.42,0.25,0.51,0.53,0.43,0.47,0.44,0.55,0.43,0.23,0.46,0.44,0.52,0.51,0.37,0.37,0.23,0.31,0.53,0.43,0.55,0.23,0.37,0.43,0.53,0.53,0.42,0.43,0.53,0.23,0.31,0.53,0.43,0.23" style="fill:rgb(0,0,0);font-family:MinionPro-Regular;font-size:9.0px;stroke:none;">nepetolactol in repelling aphids. They distilled the catnip with steam and cyclohexane vapors then reduced the </text>
   <text y="606.99" x="155.631,160.185,162.712,165.061,167.149,173.411,175.785,178.655,183.533,185.621,192.144,196.167,201.494" svgx:width="0.51,0.27,0.25,0.23,0.69,0.27,0.31,0.53,0.23,0.74,0.44,0.59,0.77" style="fill:rgb(0,0,0);font-family:MinionPro-Regular;font-size:9.0px;stroke:none;">oil with NaBH</text>
   <text y="608.8" x="208.456" svgx:width="0.48" style="fill:rgb(0,0,0);font-family:MinionPro-Regular;font-size:5.85px;stroke:none;">4</text>
   <text y="607.0" x="211.31,213.434,215.522,218.518,223.513,225.601,228.471,233.312,237.209,239.693,243.104,245.192,249.071,253.624,258.581,262.405,264.644,269.495,274.319,276.803,281.725,286.009,288.097,291.39,295.287,302.701,306.642,310.015,314.551,317.926,320.05,322.138,325.007,329.848,333.816,338.019,340.107,344.004,351.275,355.998,360.848,364.842,368.217,370.701,374.553,378.45,380.538,383.408,388.248,392.145,394.233,399.101,403.663,406.424,410.321,415.143,418.003,420.513,424.58,426.929,429.017,433.569,436.305,438.393,443.117,445.491,449.432,454.254,457.071,460.446,462.534,466.53,469.905,471.993,475.438,480.0,484.851,488.144,492.023,495.92,498.008,502.561,505.297,507.385,511.264,515.816,523.259,530.665,534.562,537.855,541.734,544.243,548.31,550.594,554.725" svgx:width="0.23,0.23,0.34,0.55,0.23,0.31,0.53,0.43,0.27,0.37,0.23,0.42,0.51,0.55,0.42,0.25,0.53,0.53,0.27,0.55,0.47,0.23,0.37,0.43,0.82,0.44,0.37,0.5,0.37,0.23,0.23,0.31,0.53,0.43,0.46,0.23,0.43,0.82,0.52,0.53,0.44,0.37,0.27,0.42,0.43,0.23,0.31,0.53,0.43,0.23,0.52,0.51,0.31,0.43,0.55,0.31,0.27,0.44,0.25,0.23,0.51,0.3,0.23,0.52,0.25,0.44,0.55,0.31,0.37,0.23,0.44,0.37,0.23,0.37,0.51,0.53,0.37,0.42,0.43,0.23,0.51,0.3,0.23,0.42,0.51,0.82,0.82,0.43,0.37,0.42,0.27,0.44,0.25,0.46,0.23" style="fill:rgb(0,0,0);font-family:MinionPro-Regular;font-size:9.0px;stroke:none;">. In their concluding remarks, they emphasize the potential of plants as source of commercialy </text>
   <text y="616.999" x="155.636,159.812,163.69,166.155,168.466,172.352,176.869,179.155,182.989,184.938,189.553,192.783,197.461,202.112,206.9,210.777,213.531" svgx:width="0.46,0.44,0.27,0.25,0.44,0.51,0.25,0.43,0.23,0.52,0.37,0.51,0.53,0.53,0.42,0.31,0.37" style="fill:rgb(0,0,0);font-family:MinionPro-Regular;font-size:9.0px;stroke:none;">vailable products</text>
   <text y="613.94" x="216.837,219.651" svgx:width="0.48,0.48" style="fill:rgb(0,0,255);font-family:MinionPro-Regular;font-size:5.85px;stroke:none;">37</text>
   <text y="617.0" x="222.462,224.523,226.472,233.148,236.982,240.211,244.045,245.994,252.094,255.928,257.876,261.836,266.597,271.358,274.588,278.422,281.687,284.999,286.947,289.754,294.532,298.366,300.314,304.074,308.862,312.865,315.194,317.48,321.314,326.172,330.319,334.153,337.465,339.413,343.903,346.576,348.525,352.402,357.233,359.409,362.207,364.564,368.74,372.528,375.325,377.746,382.604,386.825" svgx:width="0.23,0.23,0.77,0.43,0.37,0.43,0.23,0.69,0.43,0.23,0.44,0.53,0.53,0.37,0.43,0.37,0.37,0.23,0.31,0.53,0.43,0.23,0.42,0.53,0.44,0.25,0.25,0.43,0.55,0.47,0.43,0.37,0.23,0.51,0.3,0.23,0.42,0.53,0.25,0.31,0.27,0.46,0.44,0.31,0.27,0.55,0.47,0.23" style="fill:rgb(0,0,0);font-family:MinionPro-Regular;font-size:9.0px;stroke:none;">. Here we address the challenges of cultivating </text>
   <text y="617.0" x="388.746,395.1,397.224,399.186,402.569,406.789,409.47,413.743,417.125,419.554" svgx:width="0.7,0.23,0.23,0.38,0.49,0.31,0.49,0.37,0.27,0.49" style="fill:rgb(0,0,0);font-family:MinionPro-It;font-size:9.0px;stroke:none;">N. cataria</text>
   <text y="617.0" x="423.973,425.922,428.343,433.275,435.223,440.46,445.248,448.685,453.473,458.368,463.129,465.55,467.498,471.376,476.27,481.031,482.98,487.741,491.645,495.748,499.544,501.83,506.33,510.945,513.366,518.225,522.446,524.394,528.354,530.303,533.001,537.499,542.115,544.536,548.378,552.381,554.658" svgx:width="0.23,0.27,0.55,0.23,0.59,0.53,0.37,0.53,0.55,0.53,0.27,0.23,0.44,0.55,0.53,0.23,0.53,0.43,0.46,0.43,0.25,0.51,0.52,0.27,0.55,0.47,0.23,0.44,0.23,0.31,0.51,0.52,0.27,0.42,0.44,0.25,0.23" style="fill:rgb(0,0,0);font-family:MinionPro-Regular;font-size:9.0px;stroke:none;"> in Burundi and developing a topical </text>
   <text y="626.999" x="155.637,162.945,167.508,170.857,175.339,180.091,182.368,185.033,189.596,191.306,194.502,198.3,203.071,206.833,209.128,211.378,215.176,219.902,222.62,224.645,226.355,234.195,237.993,239.703,243.483,247.938,255.112,259.846,263.69,266.885,270.683,272.393,275.165,279.909,283.707,285.417,289.197,293.651,300.825,305.595,310.158,313.434,315.712,318.475,320.86,325.315,330.211,331.921,336.377,339.014,340.724,343.496,348.24,352.038,353.748,357.546,360.778,364.126,367.924,372.65,375.414,377.826,381.795,384.045,385.755,390.21,392.641,394.891,396.601,400.67,404.468,407.726,410.958,415.683,418.959,420.669,423.441,428.185,432.748,436.097,439.895,441.605,445.449,450.246,452.389,455.152,457.475,461.615,465.369,468.033,471.877,476.602,478.312,481.085,485.864,489.059,493.523,498.275,502.523,507.267,511.732,516.376,519.094,520.804,523.576,528.32,532.118,533.828,539.895,544.35,547.627,549.877,554.629" svgx:width="0.82,0.51,0.37,0.51,0.53,0.27,0.31,0.51,0.23,0.37,0.43,0.52,0.43,0.25,0.25,0.43,0.55,0.31,0.23,0.23,0.97,0.43,0.23,0.42,0.51,0.82,0.52,0.44,0.37,0.43,0.23,0.31,0.53,0.43,0.23,0.42,0.51,0.82,0.52,0.51,0.37,0.27,0.31,0.27,0.51,0.55,0.23,0.51,0.3,0.23,0.31,0.53,0.43,0.23,0.43,0.37,0.37,0.43,0.55,0.31,0.27,0.44,0.25,0.23,0.51,0.27,0.25,0.23,0.46,0.43,0.37,0.37,0.53,0.37,0.23,0.31,0.53,0.51,0.37,0.43,0.23,0.42,0.53,0.25,0.31,0.27,0.46,0.44,0.31,0.43,0.53,0.23,0.31,0.53,0.37,0.51,0.53,0.47,0.53,0.51,0.53,0.31,0.23,0.31,0.53,0.43,0.23,0.69,0.51,0.37,0.25,0.53,0.23" style="fill:rgb(0,0,0);font-family:MinionPro-Regular;font-size:9.0px;stroke:none;">mosquito repellent. We compare the composition of the essential oil versus those cultivated throughout the world </text>
   <text y="636.998" x="155.637,159.506,164.39,169.142,170.879,178.212,182.088,186.01,189.266,194.045,197.265,201.09,202.827,205.623,210.392,214.217,215.954,218.75,223.518,227.343,230.733,238.076,242.069,244.346,246.083,249.338,252.135,256.012,260.474,262.928,265.205,267.507,270.277,274.408,276.145,280.013,284.897,289.649,291.386,293.688,296.432,299.736,301.473,304.729,307.525,311.402,315.863,318.318,320.595,322.896,325.665,329.796,331.533,335.626,339.451,342.733,345.988,350.738,354.041,355.778,362.402,367.432,369.484,371.221,375.982,378.394,383.287,387.281,389.6,391.812,395.284,397.336,399.073,405.163,408.988,410.725,415.477,419.302,426.635,431.115,435.963,439.219,442.007,445.346,449.123,451.811,455.636,457.373,460.169,464.946,468.724,471.469,473.206,476.002,480.77,484.595,486.332,491.127,495.616,500.23,505.052,507.354,511.131,513.918,516.33,520.81,525.733,527.47,529.853,533.156,534.893,538.112,541.989,545.94,550.627,554.758" svgx:width="0.44,0.55,0.53,0.23,0.82,0.43,0.44,0.37,0.53,0.37,0.43,0.23,0.31,0.53,0.43,0.23,0.31,0.53,0.43,0.37,0.82,0.44,0.25,0.23,0.37,0.31,0.44,0.51,0.27,0.25,0.27,0.31,0.46,0.23,0.44,0.55,0.53,0.23,0.27,0.31,0.37,0.23,0.37,0.31,0.44,0.51,0.27,0.25,0.27,0.31,0.46,0.23,0.46,0.43,0.37,0.37,0.53,0.37,0.23,0.74,0.7,0.23,0.23,0.53,0.27,0.55,0.44,0.25,0.25,0.46,0.23,0.23,0.69,0.43,0.23,0.53,0.43,0.82,0.51,0.55,0.37,0.31,0.37,0.44,0.31,0.43,0.23,0.31,0.53,0.44,0.31,0.23,0.31,0.53,0.43,0.23,0.52,0.51,0.52,0.53,0.25,0.44,0.31,0.27,0.51,0.55,0.23,0.27,0.37,0.23,0.37,0.43,0.44,0.53,0.46,0.23" style="fill:rgb(0,0,0);font-family:MinionPro-Regular;font-size:9.0px;stroke:none;">and measure the thermal stability and its stability versus UV. Finally, we demonstrate that the population is ready </text>
   <text y="646.997" x="155.637,158.328,162.918,164.844,167.535,171.36,174.618,177.363,179.289,182.088,186.858,190.683,192.609,199.944,204.534,207.909,212.418,217.197,219.5,222.191,226.781,228.707,231.929,235.754,240.551,244.34,246.662,248.939,252.764,257.516,260.261,263.564,265.49,268.074,272.556,275.948,283.148,287.972,290.276,294.056,296.747,300.617,305.37,307.296,313.488,315.792,318.59,323.396,325.322,329.417,333.242,337.381,341.206,344.005,347.884,352.393,354.67,358.495,360.421,364.903,367.36,369.637,371.563,376.045,379.384,381.31,385.234,388.537,390.463,395.449,397.861,401.614,405.997,409.822,413.215,415.627,420.478,424.69,426.616,430.441,437.641,442.464,444.714,448.017,450.429,454.911,459.762,463.065,464.991,469.608,473.532,476.907,480.777,485.529,487.455,491.937,496.86,498.786,502.656,507.579,509.505,513.456,517.263,521.07,524.895,529.512,532.311,536.19,540.654,543.111,545.388,547.691,550.463,554.594" svgx:width="0.31,0.51,0.23,0.31,0.43,0.37,0.31,0.23,0.31,0.53,0.43,0.23,0.82,0.51,0.37,0.51,0.53,0.27,0.31,0.51,0.23,0.37,0.43,0.52,0.43,0.25,0.25,0.43,0.55,0.31,0.37,0.23,0.3,0.51,0.37,0.82,0.53,0.25,0.44,0.31,0.43,0.53,0.23,0.69,0.27,0.31,0.53,0.23,0.46,0.43,0.47,0.43,0.31,0.44,0.51,0.25,0.43,0.23,0.51,0.27,0.25,0.23,0.51,0.37,0.23,0.44,0.37,0.23,0.56,0.27,0.42,0.5,0.43,0.37,0.27,0.55,0.47,0.23,0.43,0.82,0.53,0.25,0.37,0.27,0.51,0.55,0.37,0.23,0.51,0.44,0.37,0.43,0.53,0.23,0.51,0.55,0.23,0.44,0.55,0.23,0.44,0.42,0.42,0.43,0.52,0.31,0.44,0.51,0.27,0.25,0.27,0.31,0.46,0.23" style="fill:rgb(0,0,0);font-family:MinionPro-Regular;font-size:9.0px;stroke:none;">to test the mosquito repellents formulated with vegetable oil or as Pickering emulsions based on an acceptability </text>
   <text y="656.996" x="155.637,158.895,161.55,166.329,171.018,175.149,176.985,183.078,186.903,188.739,192.546,197.028,201.914,206.558,211.337,215.208,217.898,221.768,226.52,228.356,230.768,235.691,237.527,241.479,243.314,246.743,251.523,254.862,258.858,261.135,262.971,266.841,271.728,276.48,278.316,283.095,286.434,291.051,294.921,299.844,301.68,304.901,308.727,312.984,315.396,319.878,324.801,326.637,331.118,333.783,335.618,338.417,343.187,347.012,348.848,352.655,357.146,361.925,366.677,369.467,373.067,376.541" svgx:width="0.37,0.31,0.53,0.53,0.46,0.23,0.69,0.43,0.23,0.42,0.51,0.55,0.53,0.53,0.42,0.31,0.43,0.53,0.23,0.27,0.55,0.23,0.44,0.23,0.37,0.53,0.37,0.44,0.25,0.23,0.44,0.55,0.53,0.23,0.53,0.37,0.51,0.44,0.55,0.23,0.37,0.43,0.47,0.27,0.51,0.55,0.23,0.51,0.3,0.23,0.31,0.53,0.43,0.23,0.42,0.51,0.53,0.55,0.31,0.37,0.46,0.23" style="fill:rgb(0,0,0);font-family:MinionPro-Regular;font-size:9.0px;stroke:none;">study we conducted in a rural and urban region of the country.</text>
   <text y="676.662" x="155.638,162.331,167.974,172.638,178.633,181.405,185.574" svgx:width="0.63,0.51,0.42,0.55,0.25,0.38,0.42" style="fill:rgb(0,0,0);font-family:Corbel-Bold2;font-size:11.0px;stroke:none;">Results</text>
   <text y="686.662" x="155.638,162.548,167.378,172.488,177.318,181.041,186.411,188.151,192.491,197.861,201.584,206.954,210.524,212.964" svgx:width="0.69,0.48,0.51,0.48,0.37,0.54,0.21,0.44,0.54,0.37,0.54,0.36,0.25,0.54" style="fill:rgb(0,0,0);font-family:Corbel-BoldItalic;font-size:10.0px;stroke:none;">Nepeta cataria</text>
   <text y="686.662" x="218.334,220.074,225.564,229.048,234.573,240.138,245.578,249.978,253.758,256.231,261.761,267.296,270.206" svgx:width="0.21,0.55,0.35,0.55,0.56,0.55,0.44,0.38,0.25,0.55,0.56,0.29,0.21" style="fill:rgb(0,0,0);font-family:Corbel-Bold2;font-size:10.0px;stroke:none;"> production. </text>
   <text y="686.662" x="280.175,286.511,288.617,290.354,293.717,297.917,300.578,304.832,308.195,310.604" svgx:width="0.7,0.23,0.23,0.38,0.49,0.31,0.49,0.37,0.27,0.49" style="fill:rgb(0,0,0);font-family:MinionPro-It;font-size:9.0px;stroke:none;">N. cataria</text>
   <text y="686.662" x="315.005,316.733,319.838,324.444,329.214,332.424,336.165,340.933,344.845,348.207,352.066,356.809,358.537,361.279,364.488,368.959,376.321" svgx:width="0.23,0.35,0.52,0.53,0.37,0.42,0.53,0.44,0.37,0.43,0.53,0.23,0.3,0.37,0.51,0.82,0.23" style="fill:rgb(0,0,0);font-family:MinionPro-Regular;font-size:9.0px;stroke:none;"> (purchased from </text>
   <text y="686.662" x="378.049,382.672,385.315,387.958,392.665,394.708,397.678,400.648,407.972,411.713,416.083,419.899,424.813,428.584,430.987,434.803,438.167,442.024,445.883,450.596,453.89,455.933,459.731,464.201" svgx:width="0.53,0.31,0.31,0.52,0.23,0.33,0.33,0.82,0.42,0.5,0.43,0.55,0.42,0.27,0.43,0.37,0.43,0.43,0.53,0.37,0.23,0.42,0.51,0.82" style="fill:rgb(0,0,255);font-family:MinionPro-Regular;font-size:9.0px;stroke:none;">http://mckenzieseeds.com</text>
   <text y="686.662" x="471.563,474.668,476.396,478.77,482.064,483.792,487.733,489.461,492.672,497.205,501.666,506.407,509.652,512.388,514.116,518.874,522.69,526.02,530.625,534.567,538.365,542.223,546.702,551.442,554.745" svgx:width="0.35,0.23,0.27,0.37,0.23,0.44,0.23,0.37,0.51,0.51,0.53,0.37,0.31,0.23,0.53,0.43,0.37,0.51,0.44,0.42,0.43,0.51,0.53,0.37,0.23" style="fill:rgb(0,0,0);font-family:MinionPro-Regular;font-size:9.0px;stroke:none;">) is a robust herbaceous </text>
   <text y="696.661" x="155.642,159.023,163.908,168.504,172.049,174.911,177.152,179.546,182.009,186.219,190.203,195.072,197.313,202.225,206.167,209.503,213.445,218.485,223.525,226.079,230.189,232.583,234.824,239.592,242.011,245.995,250.862,253.724,255.965,260.338,263.674,268.235,274.541,279.581,281.822,285.807,289.144,293.75,298.646,303.648,308.517,310.758,313.673,318.557,322.499,324.74,329.129,331.523,336.183,340.951,344.837,347.006,349.247,352.08,354.942,358.362,360.603,364.545,367.918,371.408,375.35,380.216,383.121,385.674,389.785,392.179,394.42,399.016,401.588,403.982,406.223,408.723,412.143,414.384,418.326,423.328,427.277,431.171,436.004,439.376,444.315,446.734,450.628,453.434,457.419,462.288,464.529,467.058,472.098,474.339,478.728,481.146,485.132,490.134,494.892,499.83,502.25,506.234,509.69,511.931,514.835,518.342,520.871,524.739,529.624,534.22,541.67,545.612" svgx:width="0.37,0.53,0.51,0.37,0.31,0.23,0.25,0.27,0.46,0.43,0.53,0.23,0.52,0.43,0.37,0.43,0.55,0.55,0.27,0.44,0.25,0.23,0.52,0.25,0.44,0.55,0.31,0.23,0.47,0.37,0.51,0.69,0.55,0.23,0.44,0.37,0.51,0.53,0.55,0.53,0.23,0.31,0.53,0.43,0.23,0.47,0.25,0.51,0.51,0.43,0.23,0.23,0.34,0.31,0.37,0.23,0.43,0.37,0.37,0.43,0.55,0.31,0.27,0.44,0.25,0.23,0.51,0.27,0.25,0.23,0.27,0.37,0.23,0.43,0.55,0.42,0.44,0.52,0.37,0.53,0.25,0.44,0.31,0.43,0.53,0.23,0.27,0.55,0.23,0.47,0.25,0.44,0.55,0.53,0.53,0.25,0.44,0.37,0.23,0.31,0.37,0.27,0.42,0.53,0.51,0.82,0.43,0.37" style="fill:rgb(0,0,0);font-family:MinionPro-Regular;font-size:9.0px;stroke:none;">short lived perennial plant grown around the globe. Its essential oil is encapsulated in glandular trichomes</text>
   <text y="693.602" x="548.947,551.831" svgx:width="0.48,0.48" style="fill:rgb(0,0,255);font-family:MinionPro-Regular;font-size:5.85px;stroke:none;">38</text>
   <text y="696.662" x="554.638" svgx:width="0.23" style="fill:rgb(0,0,0);font-family:MinionPro-Regular;font-size:9.0px;stroke:none;"> </text>
   <text y="706.661" x="155.641,162.973,166.849,170.77,174.025,178.804,182.195,184.607,189.454,193.666,195.403,199.723,204.043" svgx:width="0.82,0.43,0.44,0.37,0.53,0.37,0.27,0.55,0.47,0.23,0.48,0.48,0.23" style="fill:rgb(0,0,0);font-family:MinionPro-Regular;font-size:9.0px;stroke:none;">measuring 50 </text>
   <text y="706.661" x="205.15" svgx:width="0.5" style="fill:rgb(0,0,0);font-family:STIXGeneral-Regular;font-size:9.0px;stroke:none;">µ</text>
   <text y="706.661" x="209.65,217.021,218.758,221.17,226.093,227.83,232.582,235.018,238.886,246.217,250.042,252.73,256.555,259.894,261.631,264.745,269.506,271.918,276.155,278.207" svgx:width="0.82,0.23,0.27,0.55,0.23,0.53,0.27,0.44,0.82,0.43,0.31,0.43,0.37,0.23,0.35,0.53,0.27,0.47,0.23,0.23" style="fill:rgb(0,0,0);font-family:MinionPro-Regular;font-size:9.0px;stroke:none;">m in diameter (Fig. </text>
   <text y="706.661" x="279.895" svgx:width="0.48" style="fill:rgb(0,0,255);font-family:MinionPro-Regular;font-size:9.0px;stroke:none;">1</text>
   <text y="706.661" x="284.215,287.329,289.381,291.118,300.718,304.543,306.28,310.93,313.231,317.098,321.847,324.592,326.329,328.711,332.014,333.751,337.618,342.439,344.605,347.392,349.738,353.905,357.682,360.37,364.237,368.989,370.726,374.502,377.247,378.984,381.261,385.137,389.058,392.313,395.058,396.795,399.591,404.397,407.616,411.482,415.307,417.044,419.831,422.243,429.575,433.4,436.703,438.44,442.391,444.128,448.184,452.06,455.927,459.266,461.003,463.415,468.338,470.075,475.301,480.08,483.506,488.285,493.169,497.921,500.333,502.07,505.937,510.822,515.574,517.311,521.204,525.296,529.121,534.044,535.781,538.55,544.739,547.151,550.958,554.783" svgx:width="0.35,0.23,0.23,1.07,0.43,0.23,0.52,0.25,0.44,0.55,0.31,0.23,0.27,0.37,0.23,0.42,0.53,0.25,0.31,0.27,0.46,0.44,0.31,0.43,0.53,0.23,0.44,0.31,0.23,0.25,0.43,0.44,0.37,0.31,0.23,0.31,0.53,0.37,0.43,0.43,0.23,0.31,0.27,0.82,0.43,0.37,0.23,0.44,0.23,0.46,0.43,0.44,0.37,0.23,0.27,0.55,0.23,0.59,0.53,0.37,0.53,0.55,0.53,0.27,0.23,0.44,0.55,0.53,0.23,0.43,0.46,0.43,0.55,0.23,0.31,0.69,0.27,0.42,0.43,0.23" style="fill:rgb(0,0,0);font-family:MinionPro-Regular;font-size:9.0px;stroke:none;">). The plant is cultivated at least three times a year in Burundi and even twice </text>
   <text y="716.66" x="155.65,159.655,161.698,165.816,169.752,173.681,177.074,179.117,181.583,186.56,188.603,195.123,199.078,205.297,207.34,210.169,214.048,217.391,220.824,224.779,228.964,231.007,237.293,242.121,246.0,249.281,253.16,255.203,260.13,264.058,267.419,271.937" svgx:width="0.44,0.23,0.46,0.43,0.44,0.37,0.23,0.27,0.55,0.23,0.74,0.43,0.69,0.23,0.33,0.43,0.37,0.37,0.43,0.46,0.23,0.69,0.53,0.43,0.37,0.43,0.23,0.56,0.44,0.37,0.5,0.23" style="fill:rgb(0,0,0);font-family:MinionPro-Regular;font-size:9.0px;stroke:none;">a year in New Jersey where Park </text>
   <text y="716.66" x="273.98,277.576,280.397,282.458,286.828" svgx:width="0.4,0.31,0.23,0.49,0.25" style="fill:rgb(0,0,0);font-family:MinionPro-It;font-size:9.0px;stroke:none;">et al</text>
   <text y="716.66" x="289.156,291.262,293.305,296.586,300.465,305.319,309.86,313.346,316.096,320.023,324.829,326.872,330.855,334.212,336.255,343.513,348.346,352.157,357.017,359.06,363.042,366.399,368.442,372.816,374.922,379.296,381.339,384.138,387.171,392.008,396.013,398.056,401.224,406.03,409.689,413.874,415.916,420.626,422.989,426.916,431.727,434.526,436.569,443.971,447.809,450.522,453.271,457.15,460.543,462.586,466.803,469.269,473.116,475.447,480.253,483.421,485.464,489.393,494.337,499.143,501.186,505.115,510.092,512.135,516.014,519.329,522.763,526.642,531.451,534.3,536.796,540.851,543.182,545.225,549.765,552.28,554.557" svgx:width="0.23,0.23,0.37,0.43,0.52,0.51,0.37,0.31,0.43,0.53,0.23,0.44,0.37,0.23,0.82,0.53,0.42,0.53,0.23,0.44,0.37,0.23,0.48,0.23,0.48,0.23,0.31,0.33,0.53,0.44,0.23,0.35,0.53,0.37,0.46,0.23,0.52,0.25,0.44,0.55,0.31,0.23,0.82,0.44,0.31,0.31,0.43,0.37,0.23,0.46,0.27,0.43,0.25,0.53,0.35,0.23,0.44,0.55,0.53,0.23,0.44,0.55,0.23,0.43,0.37,0.37,0.43,0.55,0.31,0.27,0.44,0.25,0.23,0.51,0.27,0.25,0.23" style="fill:rgb(0,0,0);font-family:MinionPro-Regular;font-size:9.0px;stroke:none;">. reported as much as 7.7 t/ha (dry plant matter yield) and an essential oil </text>
   <text y="726.659" x="155.65,159.769,162.145,165.893,168.134,172.85,174.547,178.989,181.617,183.313,187.597,191.881,193.897,198.181,199.237,203.665,207.841,210.78,215.519" svgx:width="0.46,0.27,0.43,0.25,0.53,0.23,0.51,0.3,0.23,0.48,0.48,0.23,0.48,0.23,0.5,0.47,0.33,0.53,0.44" style="fill:rgb(0,0,0);font-family:MinionPro-Regular;font-size:9.0px;stroke:none;">yield of 12.5 kg/ha</text>
   <text y="723.602" x="219.412,222.197" svgx:width="0.48,0.48" style="fill:rgb(0,0,255);font-family:MinionPro-Regular;font-size:5.85px;stroke:none;">39</text>
   <text y="726.662" x="224.977,226.993,228.689,231.575,236.462,238.158,243.347,248.09,251.48,256.218,261.066,265.782,268.1,270.116,271.813,275.602,278.82,282.154,285.943,290.656,293.406,295.806,299.761,302.002,303.699,308.141,310.559,312.8,314.496,318.614,320.99,324.739,326.98,331.696,333.392,336.575,340.414,344.329,348.043,352.773,356.558,359.825,361.521,365.805,366.835,371.263,375.439,378.377,381.086,382.787,385.861,390.577,394.137,398.232,399.929,404.542,406.806,410.637,415.349,418.054,419.755,427.058,430.799,433.414,436.065,439.854,443.157,446.231,448.247,449.943,456.132,460.902,463.278,466.991,471.761,473.458,475.803,479.066,480.767,485.483,489.934,494.637,499.106,501.347,505.136,506.832,509.592,514.322,518.111,519.808,524.092,526.108,530.32,531.409,535.837,540.013,542.951,545.66,547.361,549.732,554.656" svgx:width="0.23,0.23,0.34,0.55,0.23,0.59,0.53,0.37,0.53,0.55,0.53,0.27,0.23,0.23,0.43,0.37,0.37,0.43,0.55,0.31,0.27,0.44,0.25,0.23,0.51,0.27,0.25,0.23,0.46,0.27,0.43,0.25,0.53,0.23,0.37,0.43,0.44,0.42,0.53,0.43,0.37,0.23,0.48,0.23,0.5,0.47,0.33,0.31,0.23,0.35,0.53,0.37,0.46,0.23,0.52,0.25,0.44,0.55,0.31,0.23,0.82,0.44,0.31,0.31,0.43,0.37,0.35,0.23,0.23,0.69,0.53,0.27,0.42,0.53,0.23,0.27,0.37,0.23,0.53,0.51,0.53,0.51,0.25,0.43,0.23,0.31,0.53,0.43,0.23,0.48,0.23,0.48,0.23,0.5,0.47,0.33,0.31,0.23,0.27,0.55,0.23" style="fill:rgb(0,0,0);font-family:MinionPro-Regular;font-size:9.0px;stroke:none;">. In Burundi, essential oil yield reaches 3 kg/t (dry plant matter), which is double the 1.6 kg/t in </text>
   <text y="736.661" x="155.641,162.103,166.0,172.165,174.001,176.773,180.598,183.882,187.257,191.154,194.628,196.68,198.516,208.119,211.944,213.78,218.532,223.311,230.591,235.244,239.069,242.408,244.244,248.726,251.39,253.226,256.015,259.408,261.82,265.573,270.343,274.825,282.16,285.985,289.288,291.124,293.536,298.423,302.23,305.452,309.33,313.254,316.629,320.454,323.757,325.593,330.372,335.124,337.914,340.37,342.647,344.483,347.282,352.052,355.877,357.713,360.431,365.254,367.576,369.853,371.689,376.486,380.932,387.025,390.85,394.243,396.655,401.506,405.718,407.554,410.812,413.611,417.517,421.657" svgx:width="0.74,0.43,0.69,0.23,0.33,0.43,0.37,0.37,0.43,0.46,0.23,0.23,1.07,0.43,0.23,0.55,0.53,0.82,0.51,0.43,0.37,0.23,0.51,0.3,0.23,0.31,0.37,0.27,0.42,0.53,0.51,0.82,0.43,0.37,0.23,0.27,0.55,0.42,0.37,0.43,0.44,0.37,0.43,0.37,0.23,0.53,0.55,0.31,0.27,0.25,0.23,0.31,0.53,0.43,0.23,0.3,0.53,0.25,0.25,0.23,0.53,0.51,0.69,0.43,0.37,0.27,0.55,0.47,0.23,0.37,0.31,0.44,0.47,0.43" style="fill:rgb(0,0,0);font-family:MinionPro-Regular;font-size:9.0px;stroke:none;">New Jersey. The number of trichomes increases until the full flowering stage</text>
   <text y="733.602" x="425.509,428.317" svgx:width="0.48,0.48" style="fill:rgb(0,0,255);font-family:MinionPro-Regular;font-size:5.85px;stroke:none;">40</text>
   <text y="736.662" x="431.125,433.177,435.013,441.241,446.047,448.503,450.78,454.605,456.441,459.24,464.01,467.835,470.247,473.586,475.422,478.725,481.137,484.917,488.742,490.578,493.8,497.625,504.969,508.839,511.251,516.102,519.405,521.241,525.048,529.53,534.381,537.64,540.438,544.308,549.06,551.805" svgx:width="0.23,0.23,0.69,0.53,0.27,0.25,0.43,0.23,0.31,0.53,0.43,0.27,0.37,0.23,0.37,0.27,0.42,0.43,0.23,0.37,0.43,0.82,0.44,0.27,0.55,0.37,0.23,0.42,0.51,0.55,0.37,0.31,0.44,0.55,0.31,0.23" style="fill:rgb(0,0,0);font-family:MinionPro-Regular;font-size:9.0px;stroke:none;">, while their size remains constant.</text>
  </g>
  <rect style="stroke:blue;stroke-width:0.3;" x="155.638" y="64.138" height="150.48" width="396.0" title="2"/>
  <text y="64.138" class="image" id="image.2.1" width="396" height="150" x="155.638">image.2.1.156_552.64_215</text>
  <path style="fill:none;stroke:rgb(131,144,151);stroke-width:0.3;" d="M159.130 245.520 L552.640 245.520 "/>
  <path style="fill:none;stroke:rgb(131,144,151);stroke-width:1.0;" d="M156.140 245.520 L156.140 245.520 M554.140 245.520 L554.140 245.520 "/>
  <g begin="text">
   <text y="215.523" x="155.638,160.552,163.207,167.662,172.657,176.221,180.154,181.909,186.409" svgx:width="0.55,0.29,0.49,0.56,0.4,0.44,0.22,0.5,0.25" style="fill:rgb(0,0,0);font-family:MinionPro-Bold;font-size:9.0px;stroke:none;">Figure 1.</text>
   <text y="215.523" x="188.695" svgx:width="0.23" style="fill:rgb(0,0,0);font-family:MinionPro-Regular;font-size:9.0px;stroke:none;"> </text>
   <text y="215.523" x="193.195" svgx:width="0.7" style="fill:rgb(0,0,0);font-family:MinionPro-It;font-size:9.0px;stroke:none;">N</text>
   <text y="215.523" x="199.54,201.592" svgx:width="0.23,0.23" style="fill:rgb(0,0,0);font-family:MinionPro-Regular;font-size:9.0px;stroke:none;">. </text>
   <text y="215.523" x="203.428,206.803,211.015,213.688,217.954,221.329,223.75" svgx:width="0.38,0.49,0.31,0.49,0.37,0.27,0.49" style="fill:rgb(0,0,0);font-family:MinionPro-It;font-size:9.0px;stroke:none;">cataria</text>
   <text y="215.523" x="228.16,229.996,232.579,237.061,240.454,247.753,251.056,252.892,257.167,259.471,263.341,268.228,272.872,277.696,280.0,283.87,287.209,289.045,291.835,295.228,297.64,301.393,306.163,310.645,317.98,321.805,325.108,326.944,331.264,335.584" svgx:width="0.23,0.3,0.51,0.37,0.82,0.37,0.23,0.47,0.25,0.44,0.55,0.53,0.53,0.25,0.44,0.37,0.23,0.31,0.37,0.27,0.42,0.53,0.51,0.82,0.43,0.37,0.23,0.48,0.48,0.23" style="fill:rgb(0,0,0);font-family:MinionPro-Regular;font-size:9.0px;stroke:none;"> forms glandular trichomes 50 </text>
   <text y="215.523" x="336.718" svgx:width="0.5" style="fill:rgb(0,0,0);font-family:STIXGeneral-Regular;font-size:9.0px;stroke:none;">µ</text>
   <text y="215.523" x="341.218,348.589,350.425,352.837,357.76,359.596,364.348,366.787,370.657,377.992,381.817,384.508,388.333,391.105,393.157,394.993,399.916,403.794,407.583,411.678,415.503,418.806,420.642,423.999,427.869,435.069,439.722,441.999,445.869,450.621,452.457,456.237,458.982,460.818,465.138,469.458,471.294,475.101,482.472,484.308,487.061,490.283,494.765,502.136,503.972,507.923,509.759,514.079,518.399,519.553,523.36,530.731,532.567,535.365,539.361,541.683,543.96" svgx:width="0.82,0.23,0.27,0.55,0.23,0.53,0.27,0.44,0.82,0.43,0.31,0.43,0.37,0.23,0.23,0.54,0.43,0.44,0.46,0.43,0.37,0.23,0.37,0.44,0.82,0.52,0.25,0.43,0.53,0.23,0.44,0.31,0.23,0.48,0.48,0.23,0.42,0.82,0.23,0.3,0.37,0.51,0.82,0.23,0.44,0.23,0.48,0.48,0.23,0.42,0.82,0.23,0.31,0.44,0.25,0.25,0.23" style="fill:rgb(0,0,0);font-family:MinionPro-Regular;font-size:9.0px;stroke:none;">m in diameter. Leaves sampled at 20 cm from a 40 cm tall </text>
   <text y="225.522" x="155.638,160.291,162.595,166.465,171.217,173.962,175.801,180.58,184.531,189.283,191.119,195.439,199.759,204.079,205.915,208.705,212.098,214.51,218.263,223.033,227.515,234.85,238.675,241.978,243.814,248.611,252.436,255.775,257.611,261.418" svgx:width="0.52,0.25,0.44,0.55,0.31,0.23,0.53,0.44,0.53,0.23,0.48,0.48,0.48,0.23,0.31,0.37,0.27,0.42,0.53,0.51,0.82,0.43,0.37,0.23,0.52,0.43,0.37,0.23,0.42,0.82" style="fill:rgb(0,0,0);font-family:MinionPro-Regular;font-size:9.0px;stroke:none;">plant had 100 trichomes per cm</text>
   <text y="222.463" x="268.797" svgx:width="0.48" style="fill:rgb(0,0,0);font-family:MinionPro-Regular;font-size:5.85px;stroke:none;">2</text>
   <text y="225.523" x="271.605,273.441,276.555,280.875,285.195,287.031,291.522,296.139,298.929,301.341,305.174,309.17,311.447,313.283,315.695,323.039,326.945,331.085,334.91,338.213,340.049,342.803,346.025,350.507,357.878,359.714,364.034,368.354,372.674,374.51,381.881" svgx:width="0.23,0.35,0.48,0.48,0.23,0.51,0.52,0.31,0.27,0.42,0.44,0.25,0.23,0.27,0.82,0.44,0.47,0.43,0.37,0.23,0.3,0.37,0.51,0.82,0.23,0.48,0.48,0.48,0.23,0.82,0.82" style="fill:rgb(0,0,0);font-family:MinionPro-Regular;font-size:9.0px;stroke:none;"> (10 optical images from 100 mm</text>
   <text y="222.463" x="389.267" svgx:width="0.48" style="fill:rgb(0,0,0);font-family:MinionPro-Regular;font-size:5.85px;stroke:none;">2</text>
   <text y="225.523" x="392.075,393.911,397.268,401.138,408.338,412.991,415.268,419.093,422.396,425.51,427.562,429.398,434.321,438.146,443.384,445.22,448.442,452.312,457.064,458.9,466.244,470.114,473.417,477.8,481.625,485.18,487.232,489.068,493.388,497.708,502.028" svgx:width="0.23,0.37,0.44,0.82,0.52,0.25,0.43,0.37,0.35,0.23,0.23,0.54,0.43,0.58,0.23,0.37,0.43,0.53,0.23,0.82,0.44,0.37,0.5,0.43,0.37,0.23,0.23,0.48,0.48,0.48,0.23" style="fill:rgb(0,0,0);font-family:MinionPro-Regular;font-size:9.0px;stroke:none;"> samples). Left red marker: 300 </text>
   <text y="225.523" x="503.162" svgx:width="0.5" style="fill:rgb(0,0,0);font-family:STIXGeneral-Regular;font-size:9.0px;stroke:none;">µ</text>
   <text y="225.523" x="507.662,515.033,517.085,518.921,522.313,524.725,529.0,533.635,536.38,538.216,541.438,545.308,550.06" svgx:width="0.82,0.23,0.23,0.37,0.27,0.47,0.53,0.31,0.23,0.37,0.43,0.53,0.23" style="fill:rgb(0,0,0);font-family:MinionPro-Regular;font-size:9.0px;stroke:none;">m; right red </text>
   <text y="235.522" x="155.636,162.98,166.85,170.153,174.536,178.361,181.7,183.536,187.856,192.176" svgx:width="0.82,0.44,0.37,0.5,0.43,0.37,0.23,0.48,0.48,0.23" style="fill:rgb(0,0,0);font-family:MinionPro-Regular;font-size:9.0px;stroke:none;">marker 10 </text>
   <text y="235.522" x="193.301" svgx:width="0.5" style="fill:rgb(0,0,0);font-family:STIXGeneral-Regular;font-size:9.0px;stroke:none;">µ</text>
   <text y="235.522" x="197.801,205.172" svgx:width="0.82,0.23" style="fill:rgb(0,0,0);font-family:MinionPro-Regular;font-size:9.0px;stroke:none;">m.</text>
  </g>
 </g>
</svg>
