<?xml version="1.0" encoding="UTF-8"?>
<svg height="767.08" width="4210.013" xmlns="http://www.w3.org/2000/svg">
 <g id="page" xmlns:svgx="http://www.xml-cml.org/schema/svgx">
  <path style="fill:rgb(58,90,166);stroke:none;stroke-width:1.0;" d="M451.390 358.240 L460.910 358.240 Z"/>
  <path style="fill:rgb(58,90,166);stroke:none;stroke-width:1.0;" d="M520.210 358.240 L546.630 358.240 Z"/>
  <path style="fill:rgb(58,90,166);stroke:none;stroke-width:1.0;" d="M281.250 397.250 L337.550 397.250 Z"/>
  <path style="fill:rgb(58,90,166);stroke:none;stroke-width:1.0;" d="M528.830 423.270 L548.390 423.270 Z"/>
  <path style="fill:rgb(58,90,166);stroke:none;stroke-width:1.0;" d="M352.910 436.250 L372.470 436.250 Z"/>
  <g begin="text">
   <text y="344.183" x="211.975,215.365,220.865,223.086,227.48600000000002,229.606,234.766,238.476,242.706,245.166,247.826,256.006,258.666,264.146,268.476,272.186,276.786,279.042,283.372,286.972,290.572,294.802,298.402,302.002,310.182,314.412,319.892,322.872,325.172,327.401,334.231,338.531,340.667,344.897,349.957,358.137,363.297,367.627,371.337,375.567,380.867,383.129,386.109,391.379,395.67900000000003,397.813,400.473,405.953,411.223,413.883,418.943,421.603,424.583,429.643,433.353,437.95300000000003,440.162,444.392,448.722,453.882,458.212,462.442,465.102,468.082,472.682,474.915,479.975,482.875,485.063,488.043,493.313,497.613,499.746,503.976,507.576,511.176,515.406,520.886,523.866,526.526,530.856,533.356,535.576,540.636,543.296,545.756,549.356,551.563,558.393,561.053,564.033" svgx:width="0.34,0.55,0.55,0.44,0.55,0.52,0.38,0.43,0.25,0.27,0.82,0.27,0.55,0.44,0.38,0.46,0.55,0.44,0.36,0.36,0.43,0.36,0.36,0.82,0.43,0.55,0.3,0.23,0.55,0.69,0.43,0.55,0.43,0.51,0.82,0.52,0.44,0.38,0.43,0.53,0.55,0.3,0.53,0.43,0.55,0.27,0.55,0.53,0.27,0.51,0.27,0.3,0.51,0.38,0.46,0.55,0.43,0.44,0.52,0.44,0.43,0.27,0.3,0.46,0.55,0.51,0.29,0.55,0.3,0.53,0.43,0.55,0.43,0.36,0.36,0.43,0.55,0.3,0.27,0.44,0.25,0.55,0.51,0.27,0.25,0.36,0.55,0.69,0.27,0.3,0.53" style="fill:rgb(0,0,0);font-family:MinionPro-Regular;font-size:10.0px;stroke:none;">In a preliminary assessment, we compared the inhibitory capacity of the essential oils with</text>
   <text y="357.165" x="200.013,202.993,208.263,212.593,215.593,217.757,222.817,225.717,227.905,230.885,236.155,240.455,242.645,247.705,251.415,256.475,260.805,266.075,269.575,273.285,277.615,283.095,287.735,292.035,294.235,298.775,301.435,305.145,309.475,311.975,314.134,317.844,322.074,327.234,329.694,332.354,336.584,340.914,343.894,346.554,351.614,357.114,359.375,362.035,367.515,372.785,375.445,380.505,383.165,386.145,391.205,395.005,397.189,401.419,406.689,409.149,414.209,417.919,422.979,428.039,433.309,435.969,441.449,445.749,447.986" svgx:width="0.3,0.53,0.44,0.3,0.55,0.51,0.29,0.55,0.3,0.53,0.43,0.55,0.51,0.38,0.51,0.44,0.53,0.35,0.38,0.44,0.55,0.47,0.43,0.55,0.46,0.27,0.38,0.44,0.25,0.55,0.38,0.43,0.52,0.25,0.27,0.43,0.44,0.3,0.27,0.51,0.55,0.55,0.27,0.55,0.53,0.27,0.51,0.27,0.3,0.51,0.38,0.55,0.43,0.53,0.25,0.51,0.38,0.51,0.51,0.53,0.27,0.55,0.43,0.55,0.34" style="fill:rgb(0,0,0);font-family:MinionPro-Regular;font-size:10.0px;stroke:none;">that of the broad-range viral replication inhibitor chloroquine [</text>
   <text y="357.165" x="451.376,456.126" svgx:width="0.48,0.48" style="fill:rgb(58,90,166);font-family:MinionPro-Regular;font-size:10.0px;stroke:none;">36</text>
   <text y="357.165" x="460.876,464.266,466.56600000000003,468.735,475.565,479.165,481.378,484.978,490.248,495.308,502.138,507.638,509.894,512.554" svgx:width="0.34,0.23,0.55,0.69,0.36,0.55,0.36,0.53,0.51,0.69,0.55,0.55,0.27,0.55" style="fill:rgb(0,0,0);font-family:MinionPro-Regular;font-size:10.0px;stroke:none;">]. As shown in</text>
   <text y="357.165" x="520.212,525.482,528.142,532.8420000000001,535.009,539.759" svgx:width="0.53,0.27,0.47,0.55,0.48,0.69" style="fill:rgb(58,90,166);font-family:MinionPro-Regular;font-size:10.0px;stroke:none;">Fig 4A</text>
   <text y="357.165" x="546.589,548.889,551.109,555.439,558.439,560.634,563.614,568.884" svgx:width="0.23,0.55,0.44,0.3,0.55,0.3,0.53,0.43" style="fill:rgb(0,0,0);font-family:MinionPro-Regular;font-size:10.0px;stroke:none;">, at the</text>
   <text y="370.204" x="200.013,205.493,210.553,216.033,219.533,222.513,227.573,232.213,234.873,239.173,241.341,245.571,250.631,256.111,260.341,264.571,270.051,273.031,276.741,281.071,284.051,286.711,291.771,297.271,299.564,304.314,310.074,316.694" svgx:width="0.55,0.51,0.55,0.35,0.3,0.51,0.47,0.27,0.43,0.55,0.43,0.51,0.55,0.43,0.43,0.55,0.3,0.38,0.44,0.3,0.27,0.51,0.55,0.55,0.48,0.58,0.67,0.67" style="fill:rgb(0,0,0);font-family:MinionPro-Regular;font-size:10.0px;stroke:none;">non-toxic concentration 1×CC</text>
  </g>
  <g begin="text">
   <text y="371.849" x="323.263,326.816" svgx:width="0.48,0.48" style="fill:rgb(0,0,0);font-family:MinionPro-Regular;font-size:6.67px;stroke:none;">10</text>
  </g>
  <g begin="text">
   <text y="370.205" x="332.561,335.431,340.491,344.291,346.45,349.43,354.7,359.0,361.134,365.364,368.964,372.564,376.794,382.274,385.254,387.914,392.244,394.744,396.963,402.023,404.683,407.143,410.743,413.007,417.337,422.817,428.117,430.298,433.168,438.228,442.028,444.131,448.361,453.631,456.091,461.151,464.861,469.921,474.981,480.251,482.911,488.391,492.621,494.921,497.139,501.369,505.599,508.059,510.559,512.786,517.326,519.986,524.316,529.376,532.036,534.496,537.156,540.136,544.736,546.915,553.745,558.075" svgx:width="0.29,0.51,0.38,0.55,0.3,0.53,0.43,0.55,0.43,0.36,0.36,0.43,0.55,0.3,0.27,0.44,0.25,0.55,0.51,0.27,0.25,0.36,0.55,0.44,0.55,0.53,0.55,0.29,0.51,0.38,0.55,0.43,0.53,0.25,0.51,0.38,0.51,0.51,0.53,0.27,0.55,0.43,0.23,0.55,0.43,0.43,0.25,0.25,0.55,0.46,0.27,0.44,0.51,0.27,0.25,0.27,0.3,0.46,0.55,0.69,0.44,0.36" style="fill:rgb(0,0,0);font-family:MinionPro-Regular;font-size:10.0px;stroke:none;">for the essential oils and for chloroquine, cell viability was</text>
   <text y="383.187" x="200.014,205.494,210.554,213.554,215.718,220.048,222.918,225.788,230.018,234.248,237.228,241.458,246.728,249.02800000000002,251.264,260.174,264.504,269.144,271.804,279.984,284.314,286.814,289.022,292.732,296.962,302.232,307.502,311.732,314.712,317.372,322.432,327.932,330.18,335.24,338.14,340.327,342.787,348.057,352.287,354.947,357.817,362.047,365.757,370.087,373.687,377.987,380.182,384.512,388.742,391.722,394.382,398.922,401.582,404.562,409.16200000000003,411.363,415.693,421.173,426.473,428.654,432.364,436.594,440.194,442.854,448.124,453.394,457.724,460.224,462.443,465.103,470.583,473.453,477.683,481.913,484.893,487.553,492.093,494.753,497.733,502.333,504.566,511.396,515.726,519.326,521.573,526.633,531.693,535.293,539.523,543.233,547.773,552.003,557.303,559.501,562.371,567.431" svgx:width="0.55,0.51,0.3,0.55,0.44,0.29,0.29,0.43,0.43,0.3,0.43,0.53,0.23,0.55,0.89,0.44,0.47,0.27,0.82,0.44,0.25,0.55,0.38,0.43,0.53,0.53,0.43,0.3,0.27,0.51,0.55,0.55,0.51,0.29,0.55,0.25,0.53,0.43,0.27,0.29,0.43,0.38,0.44,0.36,0.43,0.55,0.44,0.43,0.3,0.27,0.46,0.27,0.3,0.46,0.55,0.44,0.55,0.53,0.55,0.38,0.43,0.36,0.27,0.53,0.53,0.44,0.25,0.55,0.27,0.55,0.29,0.43,0.43,0.3,0.27,0.46,0.27,0.3,0.46,0.55,0.69,0.44,0.36,0.55,0.51,0.51,0.36,0.43,0.38,0.46,0.43,0.53,0.55,0.29,0.51,0.38" style="fill:rgb(0,0,0);font-family:MinionPro-Regular;font-size:10.0px;stroke:none;">not affected. Maximal reduction of luciferase activity and residual infectivity was observed for</text>
   <text y="396.17" x="200.014,202.994,208.264,212.56400000000002,214.698,220.278,227.47799999999998,229.665,233.895,237.495,241.095,245.325,250.805,253.785,256.445,260.775,263.275,265.494,270.554,273.214,275.714,277.853" svgx:width="0.3,0.53,0.43,0.55,0.56,0.72,0.55,0.43,0.36,0.36,0.43,0.55,0.3,0.27,0.44,0.25,0.55,0.51,0.27,0.25,0.55,0.34" style="fill:rgb(0,0,0);font-family:MinionPro-Regular;font-size:10.0px;stroke:none;">the PG essential oil (</text>
   <text y="396.17" x="281.243,286.513,289.173,293.873,296.051,300.801,306.601,308.807,313.137,318.617,323.91700000000003,326.155,330.905" svgx:width="0.53,0.27,0.47,0.55,0.48,0.58,0.55,0.44,0.55,0.53,0.55,0.48,0.67" style="fill:rgb(58,90,166);font-family:MinionPro-Regular;font-size:10.0px;stroke:none;">Fig 4B and 4C</text>
   <text y="396.17" x="337.525,340.915" svgx:width="0.34,0.23" style="fill:rgb(0,0,0);font-family:MinionPro-Regular;font-size:10.0px;stroke:none;">).</text>
   <text y="409.209" x="211.976,218.076,223.176,225.356,229.686,233.286,236.886,241.116,244.716,248.316,250.584,253.244,256.144,258.351,261.331,266.601,270.901,273.034,275.694,281.174,286.444,289.104,294.164,296.824,299.804,304.864,308.574,313.17400000000004,315.384,319.614,322.484,325.354,329.584,333.814,336.794,340.394,342.652,347.712,350.61199999999997,352.8,355.78,361.05,365.35,367.483,371.713,375.313,378.913,383.143,388.623,391.603,394.263,398.593,401.093,403.313,408.373,411.033,413.493,417.093,419.357,422.017,425.617,427.804,431.514,435.744,438.204,442.534,445.514,449.744,455.04400000000004,457.284,460.264,465.36400000000003,467.545,470.525,475.795,480.095,482.229,486.769,489.429,493.139,497.469,499.969,502.128,506.458,511.518,515.118,520.178,523.888,529.048,532.028,534.688,539.748,545.248,547.539,552.599" svgx:width="0.61,0.51,0.55,0.44,0.36,0.36,0.43,0.36,0.36,0.55,0.27,0.29,0.55,0.3,0.53,0.43,0.55,0.27,0.55,0.53,0.27,0.51,0.27,0.3,0.51,0.38,0.46,0.55,0.43,0.29,0.29,0.43,0.43,0.3,0.36,0.55,0.51,0.29,0.55,0.3,0.53,0.43,0.55,0.43,0.36,0.36,0.43,0.55,0.3,0.27,0.44,0.25,0.55,0.51,0.27,0.25,0.36,0.55,0.27,0.36,0.55,0.38,0.43,0.25,0.44,0.3,0.43,0.53,0.55,0.3,0.51,0.55,0.3,0.53,0.43,0.55,0.46,0.27,0.38,0.44,0.25,0.55,0.44,0.51,0.36,0.51,0.38,0.52,0.3,0.27,0.51,0.55,0.55,0.51,0.38" style="fill:rgb(0,0,0);font-family:MinionPro-Regular;font-size:10.0px;stroke:none;">To assess if the inhibitory effects of the essential oils is related to the viral absorption or</text>
   <text y="422.192" x="200.014,204.244,209.724,212.704,216.414,221.01399999999998,223.145,229.975,234.275,236.468,240.798,243.258,246.238,250.468,254.178,258.408,263.708,265.891,268.871,272.581,276.811,281.141,284.121,292.301,296.531,302.011,305.011,307.22,310.2,312.86,321.04,323.7,329.18,333.88,336.132,339.522,344.682,348.392,352.622,356.122,359.102,362.812,367.042,371.372,374.352,382.532,386.762,392.242,395.222,397.522,399.741,403.971,409.031,412.531,415.511,419.221,423.451,427.781,430.761,438.941,443.171,448.651,451.651,453.883,458.943,462.743,464.881,470.041,475.101,478.701,481.681,485.181,488.161,491.871,496.101,500.431,503.411,511.591,515.821,521.301,524.281" svgx:width="0.43,0.55,0.3,0.38,0.46,0.55,0.69,0.43,0.55,0.44,0.25,0.3,0.43,0.38,0.43,0.53,0.55,0.3,0.38,0.43,0.44,0.3,0.82,0.43,0.55,0.3,0.55,0.3,0.27,0.82,0.27,0.55,0.47,0.55,0.34,0.52,0.38,0.43,0.35,0.3,0.38,0.43,0.44,0.3,0.82,0.43,0.55,0.3,0.23,0.55,0.43,0.51,0.35,0.3,0.38,0.43,0.44,0.3,0.82,0.43,0.55,0.3,0.55,0.51,0.38,0.55,0.52,0.51,0.36,0.3,0.35,0.3,0.38,0.43,0.44,0.3,0.82,0.43,0.55,0.3,0.23" style="fill:rgb(0,0,0);font-family:MinionPro-Regular;font-size:10.0px;stroke:none;">entry we altered treatment timing (pre-treatment, co-treatment or post-treatment,</text>
   <text y="422.192" x="528.83,534.1,536.76,541.46,543.627" svgx:width="0.53,0.27,0.47,0.55,0.48" style="fill:rgb(58,90,166);font-family:MinionPro-Regular;font-size:10.0px;stroke:none;">Fig 5</text>
   <text y="422.192" x="548.377,551.767" svgx:width="0.34,0.23" style="fill:rgb(0,0,0);font-family:MinionPro-Regular;font-size:10.0px;stroke:none;">).</text>
   <text y="435.174" x="211.976,218.076,223.346,227.64600000000002,229.835,234.895,239.435,243.665,247.375,251.705,254.165,256.66499999999996,258.861,262.571,266.801,270.401,275.671,278.131,281.111,284.711,286.924,291.254,294.964,299.264,301.437,306.597,310.307,314.537,318.137,322.367,327.847,330.827,335.057,340.357,342.595,345.255" svgx:width="0.61,0.53,0.43,0.55,0.51,0.46,0.43,0.38,0.44,0.25,0.25,0.55,0.38,0.43,0.36,0.53,0.25,0.3,0.36,0.55,0.44,0.38,0.43,0.55,0.52,0.38,0.43,0.36,0.43,0.55,0.3,0.43,0.53,0.55,0.27,0.55" style="fill:rgb(0,0,0);font-family:MinionPro-Regular;font-size:10.0px;stroke:none;">The overall results are presented in</text>
   <text y="435.174" x="352.913,358.183,360.843,365.543,367.71" svgx:width="0.53,0.27,0.47,0.55,0.48" style="fill:rgb(58,90,166);font-family:MinionPro-Regular;font-size:10.0px;stroke:none;">Fig 6</text>
   <text y="435.174" x="372.46,374.76,376.951,384.301,387.901,390.561,396.041,400.741,402.916,405.896,411.166,415.466,417.599,424.219,430.919,433.076,437.306,440.906,444.506,448.736,454.216,457.196,459.856,464.186,466.686,468.906,473.966,476.626,479.086,481.386,483.589,488.649,494.129,496.589,501.189,503.318,508.478,512.188,516.418,519.398,523.108,527.338,531.668,534.648,542.828,547.058,552.538,555.538,557.8,562.13,567.61" svgx:width="0.23,0.55,0.74,0.36,0.27,0.55,0.47,0.55,0.3,0.53,0.43,0.55,0.67,0.67,0.55,0.43,0.36,0.36,0.43,0.55,0.3,0.27,0.44,0.25,0.55,0.51,0.27,0.25,0.23,0.55,0.51,0.55,0.25,0.46,0.55,0.52,0.38,0.43,0.3,0.38,0.43,0.44,0.3,0.82,0.43,0.55,0.3,0.55,0.44,0.55,0.53" style="fill:rgb(0,0,0);font-family:MinionPro-Regular;font-size:10.0px;stroke:none;">. Using the CC essential oil, only pretreatment and</text>
   <text y="448.213" x="200.014,204.244,209.304,212.804,215.784,219.494,223.724,228.054,231.034,239.214,243.444,248.924,251.924,254.156,257.756,260.416,265.056,270.536,273.196,276.066,278.726,282.956,287.286,292.766,295.746,298.206,302.80600000000004,305.066,310.336,314.566,318.796,322.506,326.736,331.066,334.666,338.966,341.121,346.181,351.241,354.221,359.521,361.757,364.217,369.487,373.717,376.377,379.247,383.477,387.187,391.517,395.117,399.41700000000003,401.612,405.942,410.172,413.152,415.812,420.352,423.012,425.992,430.59200000000004,432.793,437.123,442.603,447.903,450.084,453.794,458.024,461.624,464.284,469.554,474.824,479.154,481.654,483.873,486.533,492.013,494.883,499.113,503.343,506.323,508.983,513.523,516.183,519.163,523.763,525.996,528.976,531.636,534.616,538.846,542.556,544.856,547.028,553.128,558.398" svgx:width="0.43,0.51,0.35,0.3,0.38,0.43,0.44,0.3,0.82,0.43,0.55,0.3,0.55,0.36,0.27,0.47,0.55,0.27,0.29,0.27,0.43,0.44,0.55,0.3,0.25,0.46,0.55,0.53,0.43,0.43,0.38,0.43,0.44,0.36,0.43,0.55,0.51,0.51,0.3,0.53,0.55,0.25,0.53,0.43,0.27,0.29,0.43,0.38,0.44,0.36,0.43,0.55,0.44,0.43,0.3,0.27,0.46,0.27,0.3,0.46,0.55,0.44,0.55,0.53,0.55,0.38,0.43,0.36,0.27,0.53,0.53,0.44,0.25,0.55,0.27,0.55,0.29,0.43,0.43,0.3,0.27,0.46,0.27,0.3,0.46,0.55,0.3,0.27,0.3,0.43,0.38,0.23,0.55,0.61,0.53,0.43" style="fill:rgb(0,0,0);font-family:MinionPro-Regular;font-size:10.0px;stroke:none;">co-treatment significantly decrease both luciferase activity and residual infectivity titer. The</text>
   <text y="461.196" x="200.014,208.194,212.524,217.164,219.824,228.004,233.274,243.724,246.384,251.864,257.134,259.794,264.854,267.514,270.494,275.554,279.264,283.86400000000003,286.074,290.304,293.174,296.044,300.274,304.504,307.504,309.714,316.544,320.874,324.47400000000005,326.722,331.782,336.842,340.442,344.672,348.382,352.922,357.152,362.452,364.705,367.575,372.635,376.435,378.538,382.768,387.828,391.328,394.308,398.018,402.248,406.578,409.558,417.738,421.968,427.448,430.428,432.728,434.947,441.777,444.437,447.417,452.717,454.96,460.02,465.08,468.06,473.36,475.539,479.93899999999996,482.059,484.519,489.789,494.019,496.679,499.549,503.779,507.489,511.819,515.419,519.7189999999999,521.914,526.244,530.474,533.454,536.114,540.654,543.314,546.294,550.894,553.095,555.555,559.785,564.325,568.555" svgx:width="0.82,0.44,0.47,0.27,0.82,0.53,0.82,0.27,0.55,0.53,0.27,0.51,0.27,0.3,0.51,0.38,0.46,0.55,0.43,0.29,0.29,0.43,0.43,0.3,0.55,0.69,0.44,0.36,0.55,0.51,0.51,0.36,0.43,0.38,0.46,0.43,0.53,0.55,0.29,0.51,0.38,0.55,0.43,0.51,0.35,0.3,0.38,0.43,0.44,0.3,0.82,0.43,0.55,0.3,0.23,0.55,0.69,0.27,0.3,0.53,0.55,0.51,0.51,0.3,0.53,0.55,0.44,0.55,0.25,0.53,0.43,0.27,0.29,0.43,0.38,0.44,0.36,0.43,0.55,0.44,0.43,0.3,0.27,0.46,0.27,0.3,0.46,0.55,0.25,0.43,0.46,0.43,0.25" style="fill:rgb(0,0,0);font-family:MinionPro-Regular;font-size:10.0px;stroke:none;">maximuminhibitory effect was observed for co-treatment, with both a luciferase activity level</text>
   <text y="474.179" x="200.014,204.344,209.824,215.12400000000002,217.306,221.70600000000002,223.825,228.365,231.025,234.735,240.005,243.605,245.879,249.589,253.819,257.419,260.079,265.349,270.619,274.949,277.449,279.667,282.327,287.807,290.677,294.907,299.137,302.117,304.777,309.317,311.977,314.957,319.557,321.733,324.713,327.373,330.353,334.583,338.38300000000004,340.554,345.824,350.884,357.714,363.214,365.442,369.672,372.132,377.192,380.792,385.092,387.212,390.192,395.29200000000003,397.473,402.223,406.973,416.749,421.809,424.709,426.897,429.877,435.147,439.447,441.637,447.117,452.177,457.657,461.157,464.137,467.847,472.077,476.407,479.387,483.617,488.91700000000003,491.13,494.52" svgx:width="0.44,0.55,0.53,0.55,0.44,0.55,0.46,0.27,0.38,0.53,0.36,0.55,0.38,0.43,0.36,0.27,0.53,0.53,0.44,0.25,0.55,0.27,0.55,0.29,0.43,0.43,0.3,0.27,0.46,0.27,0.3,0.46,0.55,0.3,0.27,0.3,0.43,0.38,0.55,0.53,0.51,0.69,0.55,0.55,0.43,0.25,0.51,0.36,0.43,0.55,0.3,0.51,0.55,0.48,0.48,0.76,0.51,0.29,0.55,0.3,0.53,0.43,0.55,0.55,0.51,0.55,0.35,0.3,0.38,0.43,0.44,0.3,0.43,0.53,0.55,0.34,0.52" style="fill:rgb(0,0,0);font-family:MinionPro-Regular;font-size:10.0px;stroke:none;">and a virus residual infectivity titer down close to 50%of the non-treated (p</text>
   <text y="474.179" code="20" x="501.901" svgx:width="0.77" style="fill:rgb(0,0,0);font-family:TeX_CM_Maths_Symbols;font-size:10.0px;stroke:none;">?</text>
   <text y="474.179" x="511.822,516.572,518.822,523.572,528.372,530.531,534.861,540.341,545.641,547.822" svgx:width="0.48,0.23,0.48,0.48,0.55,0.44,0.55,0.53,0.55,0.52" style="fill:rgb(0,0,0);font-family:MinionPro-Regular;font-size:10.0px;stroke:none;">0.01 and p</text>
   <text y="474.179" code="20" x="552.982" svgx:width="0.77" style="fill:rgb(0,0,0);font-family:TeX_CM_Maths_Symbols;font-size:10.0px;stroke:none;">?</text>
   <text y="487.161" x="200.014,204.764,207.014,211.764,216.56400000000002,218.723,222.433,226.663,230.263,235.423,239.653,243.883,246.863,249.523,254.063,258.293,260.753,265.293,268.683,270.983,273.204,278.474,283.534,287.334,289.475,292.455,297.725,302.02500000000003,304.159,309.739,316.93899999999996,319.125,323.355,326.955,330.555,334.785,340.265,343.245,345.905,350.235,352.735,354.954,360.014,362.674,365.134,367.434,369.637,373.967,376.427,378.927,381.089,384.069,387.779,392.009,396.339,399.319,407.499,411.729,417.209,420.189,423.78900000000004,426.047,428.707,434.187,439.457,444.727,448.957,453.187,458.487,460.686,465.08599999999996,467.262,470.862,473.522,478.162,483.642,486.302,489.172,491.832,496.062,500.392,505.872,508.872,511.142,516.412,520.642,524.872,528.582,532.812,537.142,540.742,545.0419999999999,547.199,552.259,555.159,557.346,560.326,565.596" svgx:width="0.48,0.23,0.48,0.48,0.55,0.38,0.43,0.36,0.52,0.43,0.43,0.3,0.27,0.46,0.43,0.25,0.46,0.34,0.23,0.55,0.53,0.51,0.38,0.55,0.3,0.53,0.43,0.55,0.56,0.72,0.55,0.43,0.36,0.36,0.43,0.55,0.3,0.27,0.44,0.25,0.55,0.51,0.27,0.25,0.23,0.55,0.44,0.25,0.25,0.55,0.3,0.38,0.43,0.44,0.3,0.82,0.43,0.55,0.3,0.36,0.55,0.27,0.55,0.53,0.53,0.43,0.43,0.53,0.55,0.44,0.55,0.36,0.27,0.47,0.55,0.27,0.29,0.27,0.43,0.44,0.55,0.3,0.55,0.53,0.43,0.43,0.38,0.43,0.44,0.36,0.43,0.55,0.51,0.29,0.55,0.3,0.53,0.43" style="fill:rgb(0,0,0);font-family:MinionPro-Regular;font-size:10.0px;stroke:none;">0.05 respectively). For the PG essential oil, all treatments induced a significant decrease of the</text>
   <text y="500.201" x="200.014,204.554,207.214,210.924,216.194,219.79399999999998,222.011,226.341,230.571,233.551,236.211,240.751,243.411,246.391,250.99099999999999,253.192,260.022,262.682,265.662,270.962,273.148,276.128,281.398,285.69800000000004,287.888,290.348,295.408,302.238,306.468,310.068,313.068,315.27,317.73,321.96,326.5,330.73,333.23,335.395,340.455,343.35499999999996,345.543,348.003,353.273,357.503,360.163,363.033,367.263,370.973,375.303,378.903,383.20300000000003,385.398,389.728,393.958,396.938,399.598,404.138,406.798,409.778,414.37800000000004,416.579,421.639,426.699,430.299,434.529,438.239,442.779,447.009,452.309,454.563,457.433,462.493,466.293,468.396,473.556,477.266,481.496,484.996,487.976,491.686,495.916,500.246,503.226,511.406,515.636,521.116,524.116,526.392,529.782,534.532,539.282,546.842,550.242,552.471,557.531,562.801" svgx:width="0.46,0.27,0.38,0.53,0.36,0.55,0.44,0.43,0.3,0.27,0.46,0.27,0.3,0.46,0.55,0.69,0.27,0.3,0.53,0.55,0.3,0.53,0.43,0.55,0.25,0.51,0.69,0.43,0.36,0.3,0.55,0.25,0.43,0.46,0.43,0.25,0.55,0.51,0.29,0.55,0.25,0.53,0.43,0.27,0.29,0.43,0.38,0.44,0.36,0.43,0.55,0.44,0.43,0.3,0.27,0.46,0.27,0.3,0.46,0.55,0.51,0.51,0.36,0.43,0.38,0.46,0.43,0.53,0.55,0.29,0.51,0.38,0.55,0.52,0.38,0.43,0.35,0.3,0.38,0.43,0.44,0.3,0.82,0.43,0.55,0.3,0.55,0.34,0.48,0.48,0.76,0.34,0.55,0.51,0.53,0.3" style="fill:rgb(0,0,0);font-family:MinionPro-Regular;font-size:10.0px;stroke:none;">virus activity with the lowest level of luciferase activity observed for pre-treatment (34%) but</text>
   <text y="513.183" x="200.014,202.474,206.804,209.784,214.014,217.81400000000002,219.913,226.743,231.073,234.673,236.921,239.901,245.171,249.471,251.605,254.585,258.295,262.525,266.855,269.835,278.015,282.245,287.725,290.705,293.005,295.258,303.438,308.498,312.208,316.50800000000004,318.672,321.332,326.812,331.042,334.752,338.982,343.312,346.912,351.142,356.442,358.639,361.619,366.889,371.189,373.322,375.782,381.052,385.282,387.942,390.812,395.042,398.752,403.082,406.682,410.982,413.177,417.507,421.737,424.717,427.377,431.917,434.577,437.557,442.15700000000004,444.358,447.338,452.43800000000005,454.62,458.33,462.56,466.89,471.12,476.42,478.657,483.05699999999996,485.177,490.447,493.107,497.747,503.047,505.246,507.706,511.936,516.476,520.706,523.206,525.372,528.762,533.512,538.262,545.822,549.222,551.45,554.32,559.38" svgx:width="0.25,0.44,0.3,0.43,0.38,0.55,0.69,0.44,0.36,0.55,0.3,0.53,0.43,0.55,0.3,0.38,0.43,0.44,0.3,0.82,0.43,0.55,0.3,0.23,0.55,0.82,0.51,0.38,0.43,0.55,0.27,0.55,0.43,0.38,0.43,0.44,0.36,0.43,0.53,0.55,0.3,0.53,0.43,0.55,0.25,0.53,0.43,0.27,0.29,0.43,0.38,0.44,0.36,0.43,0.55,0.44,0.43,0.3,0.27,0.46,0.27,0.3,0.46,0.55,0.3,0.51,0.55,0.38,0.43,0.44,0.43,0.53,0.55,0.44,0.55,0.53,0.27,0.47,0.53,0.55,0.25,0.43,0.46,0.43,0.25,0.55,0.34,0.48,0.48,0.76,0.34,0.55,0.29,0.51,0.38" style="fill:rgb(0,0,0);font-family:MinionPro-Regular;font-size:10.0px;stroke:none;">later was the treatment, more increased the luciferase activity to reach a high level (67%) for</text>
   <text y="526.166" x="200.014,205.174,210.234,213.834,216.814,220.314,223.294,227.004,231.234,235.564,238.544,246.724,250.954,256.434,259.434,261.696,266.026,269.026,271.22,276.02000000000004,278.193,283.493,285.677,290.837,295.897,299.497,302.477,305.977,308.637,314.117,316.987,321.217,325.447,328.427,331.087,336.147,341.647,343.899,347.289,354.119,361.469,368.929,375.859,382.75899999999996,384.944,390.004,395.484,399.714,403.214,410.044,414.374,418.97400000000005,421.171,424.151,428.381,431.981,434.981,437.215,440.085,445.145,448.945,451.048,454.028,457.738,461.968,467.448,472.748,474.972,478.572,481.032,486.092,491.252,495.552,497.706,503.50600000000003,505.7,510.45,515.2,517.45,522.2,524.5,526.676" svgx:width="0.52,0.51,0.36,0.3,0.35,0.3,0.38,0.43,0.44,0.3,0.82,0.43,0.55,0.3,0.55,0.44,0.3,0.55,0.48,0.55,0.53,0.55,0.52,0.51,0.36,0.3,0.35,0.27,0.55,0.29,0.43,0.43,0.3,0.27,0.51,0.55,0.55,0.34,0.69,0.74,0.75,0.7,0.69,0.55,0.51,0.55,0.43,0.35,0.69,0.44,0.46,0.55,0.3,0.43,0.36,0.3,0.55,0.29,0.51,0.38,0.55,0.3,0.38,0.43,0.55,0.53,0.55,0.36,0.25,0.51,0.52,0.43,0.55,0.58,0.55,0.48,0.48,0.23,0.48,0.23,0.55,0.52" style="fill:rgb(0,0,0);font-family:MinionPro-Regular;font-size:10.0px;stroke:none;">post-treatment at 6 h post-infection (ANOVA one-way test for trend slope = 13.2, p</text>
   <text y="526.166" x="531.836" svgx:width="0.77" style="fill:rgb(0,0,0);font-family:TeX_CM_Maths_Italic;font-size:10.0px;stroke:none;">&lt;</text>
   <text y="526.166" x="539.536,544.286,546.536,551.286,556.036,560.786,564.176" svgx:width="0.48,0.23,0.48,0.48,0.48,0.34,0.23" style="fill:rgb(0,0,0);font-family:MinionPro-Regular;font-size:10.0px;stroke:none;">0.001).</text>
   <text y="539.205" x="200.014,207.674,212.734,219.564,223.794,228.334,232.564,236.274,238.574,240.776,243.756,249.026,253.32600000000002,255.46,259.17,263.4,268.67,273.94,278.17,281.15,283.81,288.87,294.37,296.618,299.278,304.778,306.993,311.533,314.193,317.903,323.173,326.773,328.99,332.7,336.93,340.53,343.19,348.46,353.73,358.06,360.56,362.778,365.438,370.918,373.788,378.018,382.248,385.228,387.888,392.428,395.088,398.068,402.668,404.9,407.88,410.54,413.52,417.75,421.55,423.665,426.325,429.925,432.169,436.499,438.959,445.789,450.119,454.659,458.259,460.516,464.116,466.776,471.416,476.896,479.556,482.426,485.086,489.316,493.646,499.126,502.126,504.396,507.786" svgx:width="0.77,0.51,0.69,0.43,0.46,0.43,0.38,0.23,0.55,0.3,0.53,0.43,0.55,0.38,0.43,0.53,0.53,0.43,0.3,0.27,0.51,0.55,0.55,0.27,0.55,0.55,0.46,0.27,0.38,0.53,0.36,0.55,0.38,0.43,0.36,0.27,0.53,0.53,0.44,0.25,0.55,0.27,0.55,0.29,0.43,0.43,0.3,0.27,0.46,0.27,0.3,0.46,0.55,0.3,0.27,0.3,0.43,0.38,0.55,0.27,0.36,0.55,0.44,0.25,0.69,0.44,0.46,0.36,0.55,0.36,0.27,0.47,0.55,0.27,0.29,0.27,0.43,0.44,0.55,0.3,0.55,0.34,0.52" style="fill:rgb(0,0,0);font-family:MinionPro-Regular;font-size:10.0px;stroke:none;">However, the reduction in virus residual infectivity titer is always significant (p</text>
   <text y="539.205" x="512.946" svgx:width="0.77" style="fill:rgb(0,0,0);font-family:TeX_CM_Maths_Italic;font-size:10.0px;stroke:none;">&lt;</text>
   <text y="539.205" x="520.646,525.396,527.646,532.396,537.1959999999999,539.375,542.355,547.455,549.636,554.386,556.636,561.386,566.136" svgx:width="0.48,0.23,0.48,0.48,0.55,0.3,0.51,0.55,0.48,0.23,0.48,0.48,0.34" style="fill:rgb(0,0,0);font-family:MinionPro-Regular;font-size:10.0px;stroke:none;">0.05 to 0.01)</text>
   <text y="552.188" x="200.014,204.244,209.304,217.484,222.644,226.974,230.684,234.914,240.214,242.42,245.4,250.5,252.682,258.162,263.222,268.702,272.202,275.182,278.892,283.122,287.452,290.432,294.662,299.962,302.231,306.461,311.521,317.001,319.981,323.691,328.751,331.211,333.511,335.679,338.339,341.339,343.559,348.099,352.429,356.139,358.799,363.029,368.329,370.545,373.205,378.705,380.863,385.263,387.439,392.919,397.979,403.459,406.959,410.669,414.899,419.539,424.809,427.269,431.599,435.399,437.555,445.735,450.065,455.545,461.025,465.255,469.055,471.23,476.71,481.77,484.77,486.934,490.534,493.194,497.834,503.314,505.974,508.844,511.504,515.734,520.064,525.544,528.524,530.984,535.5840000000001,537.844,543.114,545.774,548.644,551.514,555.744,559.454,563.684,569.164" svgx:width="0.43,0.51,0.82,0.52,0.44,0.38,0.43,0.53,0.55,0.3,0.51,0.55,0.55,0.51,0.55,0.35,0.3,0.38,0.43,0.44,0.3,0.43,0.53,0.55,0.43,0.51,0.55,0.3,0.38,0.51,0.25,0.23,0.55,0.27,0.3,0.55,0.46,0.44,0.38,0.27,0.43,0.53,0.55,0.27,0.55,0.55,0.44,0.55,0.55,0.51,0.55,0.35,0.38,0.43,0.47,0.53,0.25,0.44,0.38,0.55,0.82,0.44,0.55,0.55,0.43,0.38,0.55,0.55,0.51,0.3,0.55,0.36,0.27,0.47,0.55,0.27,0.29,0.27,0.43,0.44,0.55,0.3,0.25,0.46,0.55,0.53,0.27,0.29,0.29,0.43,0.38,0.43,0.55,0.3" style="fill:rgb(0,0,0);font-family:MinionPro-Regular;font-size:10.0px;stroke:none;">compared to non-treated control, it varied in a non-regular manner not significantly different</text>
  </g>
  <path style="fill:rgb(155,154,156);stroke:none;stroke-width:1.0;" d="M576.000 310.840 L40.320 310.840 L40.320 310.340 L576.000 310.340 "/>
  <path style="fill:rgb(58,90,166);stroke:none;stroke-width:1.0;" d="M40.310 323.940 L192.810 323.940 Z"/>
  <rect style="stroke:blue;stroke-width:0.3;" x="40.309" y="86.009" height="177.733" width="535.578" title="8"/>
  <text y="86.009" class="image" id="image.8.1" width="535" height="177" x="40.309">image.8.1.40_576.86_264</text>
  <g begin="text">
   <text y="269.348" x="40.309,44.685,46.973,50.893,52.611,56.571,58.571,61.171,66.547,70.667,77.371,81.746,85.45,88.554,92.258,94.962,97.249,100.953,104.473,106.185,109.641,112.265,114.889,118.345,121.721,124.441,126.141,130.261,132.90099999999998,134.645,137.349,141.725,145.245,146.89,150.346,153.386,156.426,159.882,164.338,167.042,169.33,173.034,175.274,176.937,181.057,183.345,185.553,188.593,190.374,194.494,198.974,200.691,206.899,211.523,217.059,221.019,224.979,228.811,233.931,235.728,239.432,243.304,247.008,249.296,253.751,256.704,259.42400000000004,261.183,266.391,271.598,277.222" svgx:width="0.55,0.29,0.49,0.55,0.5,0.25,0.55,0.68,0.52,0.84,0.55,0.47,0.41,0.47,0.34,0.29,0.47,0.44,0.55,0.44,0.33,0.33,0.44,0.43,0.34,0.55,0.52,0.33,0.55,0.34,0.55,0.44,0.55,0.44,0.38,0.38,0.44,0.56,0.34,0.29,0.47,0.28,0.55,0.52,0.29,0.28,0.38,0.55,0.52,0.56,0.55,0.78,0.58,0.7,0.5,0.5,0.5,0.64,0.55,0.47,0.49,0.47,0.29,0.56,0.38,0.34,0.55,0.66,0.66,0.71,0.25" style="fill:rgb(0,0,0);font-family:MinionPro-Bold;font-size:8.0px;stroke:none;">Fig 4. Comparative effect of the essential oils on HEK293T against RRV.</text>
   <text y="269.348" x="280.912,286.448,288.568,292.024,296.064,298.184,300.144,302.264,304.64,308.32,309.939,313.979,316.299,318.045,324.165,328.701,334.077,337.869,341.661,345.453,350.33299999999997,352.005,355.381,358.757,360.717,362.677,365.557,367.255,369.375,373.751,376.039,379.415,382.791,385.167,388.543,392.783,394.467,399.923,402.043,404.419,408.659,410.341,415.301,420.261,425.797,428.589,433.46,437.252,441.092,442.712,445.416,452.536,458.496,461.216,462.952,466.744,469.46400000000006,471.172,475.38,479.5,483.54,487.94,489.654,492.03,494.99,498.366,501.822,504.198,510.734,514.11,518.486,520.886,522.536,527.992,530.112,532.488" svgx:width="0.7,0.27,0.44,0.51,0.27,0.25,0.27,0.3,0.46,0.55,0.51,0.29,0.55,0.77,0.57,0.68,0.48,0.48,0.48,0.61,0.55,0.43,0.43,0.25,0.25,0.36,0.55,0.27,0.55,0.29,0.43,0.43,0.3,0.43,0.53,0.55,0.69,0.27,0.3,0.53,0.55,0.63,0.63,0.7,0.35,0.61,0.48,0.48,0.55,0.34,0.89,0.75,0.34,0.55,0.48,0.34,0.55,0.53,0.52,0.51,0.55,0.55,0.3,0.38,0.43,0.44,0.3,0.82,0.43,0.55,0.3,0.55,0.69,0.27,0.3,0.53" style="fill:rgb(0,0,0);font-family:MinionPro-Regular;font-size:8.0px;stroke:none;">Viability of HEK293T cells infected with RRV-T48 (MOI 2) upon treatment with</text>
   <text y="278.815" x="40.309,43.685,47.892,49.852,53.892,56.852,60.892,64.932,69.14,71.26,75.636,79.076,80.674,84.13,86.53,88.27,90.646,94.854,98.294,99.949,103.325,107.365,111.74,115.116,118.492,122.868,125.244,128.204,131.66,134.036,136.156,140.087,144.487,146.21,150.002,153.842,155.565,159.621,163.325,165.117,171.653" svgx:width="0.43,0.53,0.25,0.51,0.38,0.51,0.51,0.53,0.27,0.55,0.43,0.55,0.44,0.3,0.55,0.3,0.53,0.43,0.55,0.43,0.51,0.55,0.43,0.43,0.55,0.3,0.38,0.44,0.3,0.27,0.51,0.55,0.55,0.48,0.48,0.55,0.51,0.47,0.23,0.82,0.54" style="fill:rgb(0,0,0);font-family:MinionPro-Regular;font-size:8.0px;stroke:none;">chloroquine at the concentration 20 μg.mL</text>
  </g>
  <g begin="text">
   <text y="275.301" x="175.861,177.945" svgx:width="0.35,0.48" style="fill:rgb(0,0,0);font-family:MinionPro-Regular;font-size:5.33px;stroke:none;">-1</text>
  </g>
  <g begin="text">
   <text y="278.816" x="180.794,184.25,188.626,192.866,194.513,197.889,200.761,203.633,207.009,211.385,213.76,215.88,219.336,221.336,223.029,227.069,229.189,231.189,232.894,236.35,238.75,240.491,242.867,247.074,250.514,252.17,255.546,259.586,263.961,267.337,270.713,275.089,277.465,280.425,283.881,286.128,288.248,292.288,296.688,298.431,302.223,306.863,308.465,313.753" svgx:width="0.44,0.55,0.53,0.55,0.43,0.36,0.36,0.43,0.55,0.3,0.27,0.44,0.25,0.55,0.51,0.27,0.25,0.55,0.44,0.3,0.55,0.3,0.53,0.43,0.55,0.43,0.51,0.55,0.43,0.43,0.55,0.3,0.38,0.44,0.3,0.27,0.51,0.55,0.55,0.48,0.58,0.55,0.67,0.67" style="fill:rgb(0,0,0);font-family:MinionPro-Regular;font-size:8.0px;stroke:none;">and essential oil at the concentration 1× CC</text>
  </g>
  <g begin="text">
   <text y="280.176" x="319.068,321.901" svgx:width="0.48,0.48" style="fill:rgb(0,0,0);font-family:MinionPro-Regular;font-size:5.33px;stroke:none;">10</text>
  </g>
  <g begin="text">
   <text y="278.816" x="326.494,329.95,332.34999999999997,334.034,337.826,341.666,343.389,347.629,349.341,353.461,357.501,360.373,362.749,365.541,367.661,372.037,374.229,377.605,380.981,383.357,385.477,389.517,393.917,395.602" svgx:width="0.44,0.3,0.55,0.48,0.48,0.55,0.53,0.55,0.52,0.51,0.36,0.3,0.35,0.27,0.55,0.29,0.43,0.43,0.3,0.27,0.51,0.55,0.55,0.34" style="fill:rgb(0,0,0);font-family:MinionPro-Regular;font-size:8.0px;stroke:none;">at 24 h post-infection (</text>
   <text y="278.816" x="398.306" svgx:width="0.71" style="fill:rgb(0,0,0);font-family:MinionPro-Bold;font-size:8.0px;stroke:none;">A</text>
   <text y="278.816" x="403.93,406.634,408.474,410.173,412.876,417.252,421.46,423.58,427.62,429.74,432.116,434.236,438.276,442.676,444.358,448.398,450.718,452.465,457.425,462.385,467.921" svgx:width="0.34,0.23,0.55,0.34,0.55,0.53,0.27,0.51,0.27,0.3,0.27,0.51,0.55,0.55,0.51,0.29,0.55,0.63,0.63,0.7,0.35" style="fill:rgb(0,0,0);font-family:MinionPro-Regular;font-size:8.0px;stroke:none;">); Inhibition of RRV-</text>
   <text y="278.816" x="470.713,473.441,476.585" svgx:width="0.37,0.4,0.53" style="fill:rgb(0,0,0);font-family:MinionPro-It;font-size:8.0px;stroke:none;">ren</text>
   <text y="278.816" x="480.812,485.1,489.308,492.748,494.418,497.378,500.754,504.874,506.834,508.954,512.33,515.786,518.162,520.282,524.322,528.722,530.361,533.817,536.217,537.957,545.077,551.037,553.7570000000001,555.476" svgx:width="0.54,0.53,0.43,0.55,0.38,0.43,0.52,0.25,0.27,0.43,0.44,0.3,0.27,0.51,0.55,0.55,0.44,0.3,0.55,0.89,0.75,0.34,0.55,0.48" style="fill:rgb(0,0,0);font-family:MinionPro-Regular;font-size:8.0px;stroke:none;">Luc replication at MOI 2</text>
   <text y="288.34" x="40.31,44.518,47.39,49.51,53.886,57.646,59.303,62.678,66.718,69.51,71.886,74.846,78.222,81.678,84.054,90.59,93.966,98.342,100.742,102.388,106.428,108.74799999999999,110.439,113.815,118.023,119.983,124.023,126.983,131.023,135.063,139.271,141.391,145.767,149.207,150.805,154.261,156.661,158.401,160.777,164.985,168.425,170.08,173.456,177.495,181.871,185.247,188.623,192.999,195.375,198.335,201.791,204.167,206.287,210.218,214.618,216.341,220.133,223.973,225.696,229.752,233.456,235.248,241.783" svgx:width="0.53,0.36,0.27,0.55,0.47,0.55,0.43,0.51,0.35,0.3,0.38,0.43,0.44,0.3,0.82,0.43,0.55,0.3,0.55,0.51,0.29,0.55,0.43,0.53,0.25,0.51,0.38,0.51,0.51,0.53,0.27,0.55,0.43,0.55,0.44,0.3,0.55,0.3,0.53,0.43,0.55,0.43,0.51,0.55,0.43,0.43,0.55,0.3,0.38,0.44,0.3,0.27,0.51,0.55,0.55,0.48,0.48,0.55,0.51,0.47,0.23,0.82,0.54" style="fill:rgb(0,0,0);font-family:MinionPro-Regular;font-size:8.0px;stroke:none;">using co-treatment of chloroquine at the concentration 20 μg.mL</text>
  </g>
  <g begin="text">
   <text y="284.769" x="245.99,248.074" svgx:width="0.35,0.48" style="fill:rgb(0,0,0);font-family:MinionPro-Regular;font-size:5.33px;stroke:none;">-1</text>
  </g>
  <g begin="text">
   <text y="288.34" x="250.923,254.379,258.755,262.995,264.699,268.075,270.947,273.819,277.194,281.57,283.946,286.066,289.522,291.522,293.158,297.198,299.318,301.318,303.023,306.479,308.87899999999996,310.62,312.996,317.204,320.644,322.299,325.675,329.715,334.091,337.467,340.842,345.218,347.594,350.554,354.01,356.386,358.506,362.437,366.837,368.56,372.352,376.99199999999996,378.651,383.939" svgx:width="0.44,0.55,0.53,0.55,0.43,0.36,0.36,0.43,0.55,0.3,0.27,0.44,0.25,0.55,0.51,0.27,0.25,0.55,0.44,0.3,0.55,0.3,0.53,0.43,0.55,0.43,0.51,0.55,0.43,0.43,0.55,0.3,0.38,0.44,0.3,0.27,0.51,0.55,0.55,0.48,0.58,0.55,0.67,0.67" style="fill:rgb(0,0,0);font-family:MinionPro-Regular;font-size:8.0px;stroke:none;">and essential oil at the concentration 1× CC</text>
  </g>
  <g begin="text">
   <text y="289.701" x="389.197,392.031" svgx:width="0.48,0.48" style="fill:rgb(0,0,0);font-family:MinionPro-Regular;font-size:5.33px;stroke:none;">10</text>
  </g>
  <g begin="text">
   <text y="288.34" x="396.624" svgx:width="0.34" style="fill:rgb(0,0,0);font-family:MinionPro-Regular;font-size:8.0px;stroke:none;">(</text>
   <text y="288.34" x="399.328" svgx:width="0.63" style="fill:rgb(0,0,0);font-family:MinionPro-Bold;font-size:8.0px;stroke:none;">B</text>
   <text y="288.34" x="404.367,407.071,408.911,410.57,416.106,418.226,421.186,424.642,426.642,428.371,432.075,435.035,439.075,444.531,446.907,451.147,452.805,456.845,460.52500000000003,462.216,466.336,468.296,471.752,475.792,480.0,483.44,485.064,488.52,491.392,494.264,497.72,501.40000000000003,503.092,507.132,511.532,513.24,518.776,522.152,525.112,529.192,530.872,534.247,537.623,539.583,541.543,544.423,546.122" svgx:width="0.34,0.23,0.55,0.7,0.27,0.38,0.44,0.25,0.55,0.47,0.38,0.51,0.69,0.3,0.53,0.55,0.51,0.46,0.55,0.52,0.25,0.44,0.51,0.53,0.43,0.55,0.44,0.36,0.36,0.44,0.46,0.55,0.51,0.55,0.55,0.7,0.43,0.38,0.51,0.55,0.43,0.43,0.25,0.25,0.36,0.55,0.34" style="fill:rgb(0,0,0);font-family:MinionPro-Regular;font-size:8.0px;stroke:none;">); Viral growth by plaque assay on Vero cells (</text>
   <text y="288.34" x="548.826" svgx:width="0.68" style="fill:rgb(0,0,0);font-family:MinionPro-Bold;font-size:8.0px;stroke:none;">C</text>
   <text y="288.34" x="554.202,556.906" svgx:width="0.34,0.23" style="fill:rgb(0,0,0);font-family:MinionPro-Regular;font-size:8.0px;stroke:none;">).</text>
   <text y="297.864" x="40.31,45.598,49.638,54.014,56.39,59.35,63.39,65.35,68.22999999999999,69.904,73.36,76.32,79.75999999999999,81.47,86.43,91.39,96.926,99.718,101.838,106.214,108.398,111.774,115.15,117.526,120.902,125.142,126.824,130.2,133.576,135.536,137.496,140.376,142.131,147.587,149.707,152.083,156.291,160.331,164.538,166.93800000000002,168.606,170.982,173.942,177.318,180.774,183.15,189.686,193.062,197.438,199.838,201.488,205.528,209.208,210.899,214.275,218.483,220.443,224.483,227.443,231.482,235.522,239.73,241.74,246.116,249.556,251.264,254.72,259.096,263.336,264.984,267.36,271.568,275.008,276.719,280.095,282.967,285.839,289.215,293.59,295.966,298.086,301.542,303.542,305.179,309.219,311.339,313.299,316.171,318.01099999999997,319.692,325.228,328.684,330.644,334.852,338.228,341.108,342.823,346.279,349.239,352.679,354.331,357.707,361.411,365.531,368.491,371.867,374.739,377.611,380.987,385.22700000000003,386.873,390.328,393.20799999999997,394.98,401.516,404.891,408.347,412.74699999999996,414.425,419.065,420.718,424.51,429.046,437.895,440.599,444.99899999999997,446.74,451.38,453.089,456.881,459.585,461.42499999999995,463.124" svgx:width="0.67,0.51,0.55,0.3,0.38,0.51,0.25,0.36,0.55,0.44,0.38,0.43,0.55,0.63,0.63,0.7,0.35,0.27,0.55,0.29,0.43,0.43,0.3,0.43,0.53,0.55,0.43,0.43,0.25,0.25,0.36,0.55,0.69,0.27,0.3,0.53,0.51,0.53,0.3,0.55,0.3,0.38,0.43,0.44,0.3,0.82,0.43,0.55,0.3,0.55,0.51,0.46,0.55,0.43,0.53,0.25,0.51,0.38,0.51,0.51,0.53,0.27,0.55,0.43,0.55,0.44,0.55,0.53,0.55,0.3,0.53,0.43,0.55,0.43,0.36,0.36,0.43,0.55,0.3,0.27,0.44,0.25,0.55,0.51,0.27,0.25,0.36,0.23,0.55,0.7,0.44,0.25,0.53,0.43,0.36,0.55,0.44,0.38,0.43,0.55,0.43,0.47,0.52,0.38,0.43,0.36,0.36,0.43,0.53,0.55,0.44,0.36,0.55,0.82,0.43,0.44,0.55,0.55,0.58,0.55,0.48,0.57,0.89,0.34,0.55,0.55,0.58,0.55,0.48,0.34,0.23,0.55,0.34" style="fill:rgb(0,0,0);font-family:MinionPro-Regular;font-size:8.0px;stroke:none;">Controls are RRV-infected cells without treatment by chloroquine and the essential oils. Values are expressed as mean ± SEM(n = 5). (</text>
  </g>
  <g begin="text">
   <text y="294.917" code="3" x="465.846" svgx:width="0.5" style="fill:rgb(0,0,0);font-family:TeX_CM_Maths_Symbols;font-size:5.6px;stroke:none;">?</text>
  </g>
  <g begin="text">
   <text y="297.865" x="469.134" svgx:width="0.49" style="fill:rgb(0,0,0);font-family:MinionPro-It;font-size:8.0px;stroke:none;">p</text>
   <text y="297.865" x="474.633" svgx:width="0.77" style="fill:rgb(0,0,0);font-family:TeX_CM_Maths_Italic;font-size:8.0px;stroke:none;">&lt;</text>
   <text y="297.865" x="482.57,486.362,488.154,491.945,495.737" svgx:width="0.48,0.23,0.48,0.48,0.23" style="fill:rgb(0,0,0);font-family:MinionPro-Regular;font-size:8.0px;stroke:none;">0.05,</text>
  </g>
  <g begin="text">
   <text y="294.917" code="3" x="499.238,502.525" svgx:width="0.5,0.5" style="fill:rgb(0,0,0);font-family:TeX_CM_Maths_Symbols;font-size:5.6px;stroke:none;">??</text>
  </g>
  <g begin="text">
   <text y="297.865" x="505.814" svgx:width="0.49" style="fill:rgb(0,0,0);font-family:MinionPro-It;font-size:8.0px;stroke:none;">p</text>
   <text y="297.865" x="511.369" svgx:width="0.77" style="fill:rgb(0,0,0);font-family:TeX_CM_Maths_Italic;font-size:8.0px;stroke:none;">&lt;</text>
   <text y="297.865" x="519.25,523.042,524.834,528.626,532.418" svgx:width="0.48,0.23,0.48,0.48,0.23" style="fill:rgb(0,0,0);font-family:MinionPro-Regular;font-size:8.0px;stroke:none;">0.01,</text>
  </g>
  <g begin="text">
   <text y="304.441" code="3" x="40.309,43.596,46.884" svgx:width="0.5,0.5,0.5" style="fill:rgb(0,0,0);font-family:TeX_CM_Maths_Symbols;font-size:5.6px;stroke:none;">???</text>
  </g>
  <g begin="text">
   <text y="307.332" x="50.173" svgx:width="0.49" style="fill:rgb(0,0,0);font-family:MinionPro-It;font-size:8.0px;stroke:none;">p</text>
   <text y="307.332" x="55.728" svgx:width="0.77" style="fill:rgb(0,0,0);font-family:TeX_CM_Maths_Italic;font-size:8.0px;stroke:none;">&lt;</text>
   <text y="307.332" x="63.609,67.401,69.193,72.985,76.777,80.569,83.273" svgx:width="0.48,0.23,0.48,0.48,0.48,0.34,0.23" style="fill:rgb(0,0,0);font-family:MinionPro-Regular;font-size:8.0px;stroke:none;">0.005).</text>
   <text y="322.866" x="40.309,44.109,46.157,48.205,52.005,55.381,57.181,59.229,61.277,65.077,68.877,70.421,72.221,75.911,78.375,82.175,84.223,88.023,91.823,93.623,97.423,101.223,105.023,108.823,110.871,112.308,116.108,119.908,122.372,126.171,129.547,131.091,132.891,136.691,140.491,144.291,147.57,149.37,153.17,156.97,160.77,164.57,168.37,172.17,175.97,177.77,181.57,185.37,189.17" svgx:width="0.5,0.28,0.28,0.5,0.45,0.25,0.28,0.28,0.5,0.5,0.22,0.25,0.5,0.33,0.5,0.28,0.5,0.5,0.25,0.5,0.5,0.5,0.5,0.28,0.22,0.5,0.5,0.33,0.5,0.45,0.22,0.25,0.5,0.5,0.5,0.45,0.25,0.5,0.5,0.5,0.5,0.5,0.5,0.5,0.25,0.5,0.5,0.5,0.5" style="fill:rgb(58,90,166);font-family:Helvetica-Condensed;font-size:8.0px;stroke:none;">https://doi.org/10.1371/journal.pone.0196757.g004</text>
  </g>
  <path style="fill:rgb(155,154,156);stroke:none;stroke-width:1.0;" d="M576.000 700.250 L200.000 700.250 L200.000 699.750 L576.000 699.750 "/>
  <path style="fill:rgb(58,90,166);stroke:none;stroke-width:1.0;" d="M200.010 713.310 L352.520 713.310 Z"/>
  <rect style="stroke:blue;stroke-width:0.3;" x="200.013" y="590.293" height="91.332" width="295.143" title="8"/>
  <text y="590.293" class="image" id="image.8.2" width="295" height="91" x="200.013">image.8.2.200_495.590_682</text>
  <g begin="text">
   <text y="687.232" x="200.012,204.388,206.676,210.59599999999998,212.258,216.218,218.218,220.819,225.939,228.227,234.93,238.45000000000002,240.15,244.526,248.646,250.934,255.39,258.094,261.134,262.828,266.948,269.58799999999997,271.332,274.788,277.828,280.867,284.323,288.779,291.483,293.771,297.475,299.683,302.723,304.44,308.56,310.848,313.056,316.096,317.82,321.524,325.9,330.276,332.564,335.268,337.556,341.676,346.156,347.81,351.514,355.97,360.37,362.096,365.552,370.008,374.40799999999996,376.099,380.475,384.595,386.883,391.339,394.059,395.772,399.892,402.532,404.276,407.979,412.435,416.139,418.347,422.051,425.091,427.379,430.41900000000004,432.112,436.488,439.528,441.816,446.272,450.192,451.897,457.105,462.313,467.937" svgx:width="0.55,0.29,0.49,0.55,0.5,0.25,0.55,0.64,0.29,0.84,0.44,0.55,0.55,0.52,0.29,0.56,0.34,0.38,0.55,0.52,0.33,0.55,0.44,0.38,0.38,0.44,0.56,0.34,0.29,0.47,0.28,0.38,0.55,0.52,0.29,0.28,0.38,0.55,0.47,0.55,0.55,0.29,0.34,0.29,0.52,0.56,0.55,0.47,0.56,0.55,0.55,0.44,0.56,0.55,0.55,0.55,0.52,0.29,0.56,0.34,0.55,0.52,0.33,0.55,0.47,0.56,0.47,0.28,0.47,0.38,0.29,0.38,0.55,0.55,0.38,0.29,0.56,0.49,0.55,0.66,0.66,0.71,0.34" style="fill:rgb(0,0,0);font-family:MinionPro-Bold;font-size:8.0px;stroke:none;">Fig 5. Time points of essentials oils addition and end point of analysis using RRV-</text>
   <text y="687.232" x="470.641,473.657,477.017" svgx:width="0.39,0.42,0.55" style="fill:rgb(0,0,0);font-family:MinionPro-BoldIt;font-size:8.0px;stroke:none;">ren</text>
   <text y="687.232" x="481.151,485.527,489.902,493.342,495.041,497.329,501.785,504.409,507.865,511.241,513.945,516.233,520.268,524.748,526.505,530.209,532.929,534.669,541.709,547.829,550.8689999999999,552.47,556.47,558.196,562.316" svgx:width="0.55,0.55,0.43,0.55,0.29,0.56,0.33,0.44,0.43,0.34,0.29,0.52,0.56,0.55,0.47,0.34,0.55,0.88,0.77,0.38,0.55,0.5,0.55,0.52,0.56" style="fill:rgb(0,0,0);font-family:MinionPro-Bold;font-size:8.0px;stroke:none;">Luc infection at MOI 2 on</text>
   <text y="696.755" x="200.012,206.22,210.844,216.38,220.34,224.3,228.26,233.38,235.048,238.424,241.88,244.088,246.296,249.336" svgx:width="0.78,0.58,0.7,0.5,0.5,0.5,0.64,0.55,0.43,0.44,0.28,0.28,0.38,0.25" style="fill:rgb(0,0,0);font-family:MinionPro-Bold;font-size:8.0px;stroke:none;">HEK293T cells.</text>
   <text y="712.233" x="200.012,203.812,205.86,207.908,211.708,215.084,216.884,218.932,220.98,224.674,228.474,230.018,231.818,235.618,238.082,241.882,243.93,247.729,251.529,253.329,257.129,260.929,264.729,268.529,270.577,272.012,275.812,279.612,282.075,285.875,289.251,290.795,292.595,296.395,300.195,303.873,307.249,309.049,312.849,316.649,320.449,324.249,328.049,331.848,335.648,337.448,341.248,344.919,348.719" svgx:width="0.5,0.28,0.28,0.5,0.45,0.25,0.28,0.28,0.5,0.5,0.22,0.25,0.5,0.33,0.5,0.28,0.5,0.5,0.25,0.5,0.5,0.5,0.5,0.28,0.22,0.5,0.5,0.33,0.5,0.45,0.22,0.25,0.5,0.5,0.5,0.45,0.25,0.5,0.5,0.5,0.5,0.5,0.5,0.5,0.25,0.5,0.5,0.5,0.5" style="fill:rgb(58,90,166);font-family:Helvetica-Condensed;font-size:8.0px;stroke:none;">https://doi.org/10.1371/journal.pone.0196757.g005</text>
  </g>
  <path style="fill:rgb(0,0,0);stroke:none;stroke-width:1.0;" d="M576.000 54.900 L36.000 54.900 L36.000 54.400 L576.000 54.400 "/>
  <rect style="stroke:blue;stroke-width:0.3;" x="36.0" y="35.043" height="23.64" width="107.093" title="8"/>
  <text y="35.043" class="image" id="image.8.3" width="107" height="23" x="36.0">image.8.3.36_143.35_59</text>
  <g begin="text">
   <text y="46.205" x="385.795,391.083,395.043,399.003,403.379,407.755,409.963,411.667,416.043,417.803,419.47,423.846,425.55,427.254,431.254,432.907,435.531,439.907,444.282,448.658,450.362,452.066,456.442,460.818,463.026,467.026,468.68,475.304,479.68,484.056,488.432,490.135,494.511,496.719,501.11899999999997,502.752,507.128,508.832,513.208,517.584,521.96,525.92,527.624,530.248,534.624,538.624,540.282,542.906,547.282,551.658,553.362,555.066,559.026,563.299,565.507,567.211,571.587" svgx:width="0.67,0.5,0.5,0.55,0.55,0.28,0.22,0.55,0.22,0.55,0.55,0.22,0.22,0.5,0.55,0.33,0.55,0.55,0.55,0.22,0.22,0.55,0.55,0.28,0.5,0.55,0.83,0.55,0.55,0.55,0.22,0.55,0.28,0.55,0.55,0.55,0.22,0.55,0.55,0.55,0.5,0.22,0.33,0.55,0.5,0.55,0.33,0.55,0.55,0.22,0.22,0.5,0.55,0.28,0.22,0.55,0.55" style="fill:rgb(0,0,0);font-family:Helvetica;font-size:8.0px;stroke:none;">Essential oils repellents modulate alphavirus replication</text>
  </g>
  <path style="fill:rgb(0,0,0);stroke:none;stroke-width:1.0;" d="M36.000 744.000 L576.000 744.000 L576.000 744.500 L36.000 744.500 "/>
  <path style="fill:rgb(58,90,166);stroke:none;stroke-width:1.0;" d="M81.580 757.080 L237.880 757.080 Z"/>
  <g begin="text">
   <text y="756.0" x="36.0,41.288,45.664,51.872,57.232,58.847,65.055,70.759,76.119,77.782" svgx:width="0.67,0.55,0.78,0.67,0.55,0.78,0.72,0.67,0.55,0.26" style="fill:rgb(0,0,0);font-family:Helvetica;font-size:8.0px;stroke:none;">PLOS ONE |</text>
   <text y="756.0" x="81.58,85.956,88.164,90.372,94.748,98.708,100.916,103.124,105.332,109.708,114.084,115.788,117.996,122.372,124.893,129.269,131.477,135.853,140.229,142.437,146.813,151.189,155.451,159.827,162.035,163.739,168.115,172.491,175.115,179.491,183.867,185.571,187.779,192.155,196.44,200.816,205.191,207.399,211.775,216.151,220.527,224.903,229.151,233.527" svgx:width="0.55,0.28,0.28,0.55,0.5,0.28,0.28,0.28,0.55,0.55,0.22,0.28,0.55,0.33,0.55,0.28,0.55,0.55,0.28,0.55,0.55,0.55,0.55,0.28,0.22,0.55,0.55,0.33,0.55,0.55,0.22,0.28,0.55,0.55,0.55,0.55,0.28,0.55,0.55,0.55,0.55,0.55,0.55,0.55" style="fill:rgb(58,90,166);font-family:Helvetica;font-size:8.0px;stroke:none;">https://doi.org/10.1371/journal.pone.0196757</text>
   <text y="756.0" x="245.876,252.5,256.876,260.876,262.6,266.976,271.352,273.592,275.243,279.619,283.995,288.37,292.77,557.118,561.518,563.241" svgx:width="0.83,0.55,0.5,0.55,0.55,0.55,0.28,0.55,0.55,0.55,0.55,0.55,0.55,0.55,0.55,0.28" style="fill:rgb(0,0,0);font-family:Helvetica;font-size:8.0px;stroke:none;">May 17, 2018 8 /</text>
  </g>
  <g begin="text">
   <text y="756.0" x="567.209,571.585" svgx:width="0.55,0.55" style="fill:rgb(0,0,0);font-family:Helvetica;font-size:8.0px;stroke:none;">14</text>
  </g>
 </g>
</svg>
