<?xml version="1.0" encoding="UTF-8"?>
<svg height="792.627" width="528.687" xmlns="http://www.w3.org/2000/svg">
 <g id="page" xmlns:svgx="http://www.xml-cml.org/schema/svgx">
  <g begin="text">
   <text y="108.692" x="70.866,75.75,81.25,86.75,89.5,92.558,98.058,103.558,109.058,113.337,116.395,120.058,123.116,128.0,131.058,133.808,139.308,142.971,148.471,153.971,159.471,164.355,167.413,171.692,174.442,178.105,183.605,189.105,192.768" svgx:width="0.44,0.5,0.5,0.25,0.28,0.5,0.5,0.5,0.39,0.28,0.33,0.28,0.44,0.28,0.25,0.5,0.33,0.5,0.5,0.5,0.44,0.28,0.39,0.25,0.33,0.5,0.5,0.33,0.25" style="fill:rgb(23,22,21);font-family:TimesNewRomanPSMT;font-size:11.0px;stroke:none;">and industrial products (14).</text>
  </g>
  <g begin="text">
   <text y="121.692" x="85.039,91.76,94.818,100.318,105.202,108.26,113.76,119.26,122.318,125.637,128.695,132.974,136.302,144.86,150.36,155.86,161.36,164.418,169.302,172.965,178.465,183.349,188.849,193.733,197.051,201.935,207.435,215.993,221.493,226.993,232.493,237.993,243.493,246.821,250.484,255.368,260.868,266.368,270.031,273.089,277.973,283.473" svgx:width="0.61,0.28,0.5,0.44,0.28,0.5,0.5,0.28,0.25,0.28,0.39,0.25,0.78,0.5,0.5,0.5,0.28,0.44,0.33,0.5,0.44,0.5,0.44,0.25,0.44,0.5,0.78,0.5,0.5,0.5,0.5,0.5,0.25,0.33,0.44,0.5,0.5,0.33,0.28,0.44,0.5,0.25" style="fill:rgb(23,22,21);font-family:TimesNewRomanPSMT;font-size:11.0px;stroke:none;">Linalool is monoterpene compound reported </text>
  </g>
  <g begin="text">
   <text y="134.691" x="70.866,73.924,79.424,82.475,87.975,92.859,95.912,104.47,109.354,112.412,117.912,121.575,124.624,130.124,135.624,138.682,143.566,146.624,149.682,152.74,157.624,160.667,165.551,171.051,179.609,185.109,190.609,196.109,200.987,206.487,209.545,213.824,216.882,222.382,226.045,229.103,232.161,237.661,242.545,245.596,250.48,254.759,259.038,263.922,269.422,272.48,275.538,280.422,283.48" svgx:width="0.28,0.5,0.25,0.5,0.44,0.25,0.78,0.44,0.28,0.5,0.33,0.25,0.5,0.5,0.28,0.44,0.28,0.28,0.28,0.44,0.25,0.44,0.5,0.78,0.5,0.5,0.5,0.44,0.5,0.28,0.39,0.25,0.5,0.33,0.25,0.28,0.5,0.44,0.25,0.44,0.39,0.39,0.44,0.5,0.28,0.28,0.44,0.28,0.25" style="fill:rgb(23,22,21);font-family:TimesNewRomanPSMT;font-size:11.0px;stroke:none;">to be major volatile components of the essential </text>
  </g>
  <g begin="text">
   <text y="147.691" x="70.866,76.366,79.424,82.482,86.761,89.511,95.99,101.49,105.153,107.903,114.382,118.661,123.545,129.045,133.929,137.592,142.476,145.534,148.284,154.755,159.639,163.302,168.802,177.36,182.244,185.302,188.36,193.244,195.994,202.46,206.739,212.239,217.123,222.007,225.065,229.949,234.228,236.978,239.728,246.201,252.922,255.98,261.48,266.364,269.422,274.922,280.422,283.48" svgx:width="0.5,0.28,0.28,0.39,0.25,0.55,0.5,0.33,0.25,0.55,0.39,0.44,0.5,0.44,0.33,0.44,0.28,0.25,0.55,0.44,0.33,0.5,0.78,0.44,0.28,0.28,0.44,0.25,0.55,0.39,0.5,0.44,0.44,0.28,0.44,0.39,0.25,0.25,0.55,0.61,0.28,0.5,0.44,0.28,0.5,0.5,0.28,0.25" style="fill:rgb(23,22,21);font-family:TimesNewRomanPSMT;font-size:11.0px;stroke:none;">oils of several aromatic species. Linalool </text>
  </g>
  <g begin="text">
   <text y="160.691" x="70.866,74.529,80.029,82.779,88.279,91.942,97.442,100.5,109.058,113.942,117.0,122.5,128.0,131.058,134.721,140.221,142.971,148.471,152.134,157.634,162.518,165.576,170.46,175.96,179.018,183.902,189.402,193.065,198.565,202.228,207.728,210.786,214.449,217.199,220.233,223.291,227.57,230.32,233.378,238.878,244.378,249.262,252.012,255.064,260.564,264.227,266.977,270.035,273.093,278.593,283.477" svgx:width="0.33,0.5,0.25,0.5,0.33,0.5,0.28,0.78,0.44,0.28,0.5,0.5,0.28,0.33,0.5,0.25,0.5,0.33,0.5,0.44,0.28,0.44,0.5,0.28,0.44,0.5,0.33,0.5,0.33,0.5,0.28,0.33,0.25,0.55,0.28,0.39,0.25,0.55,0.5,0.5,0.44,0.25,0.55,0.5,0.33,0.25,0.55,0.28,0.5,0.44,0.25" style="fill:rgb(23,22,21);font-family:TimesNewRomanPSMT;font-size:11.0px;stroke:none;">(3,7-dimethyl-1,6-octadien-3-ol) is one of the </text>
  </g>
  <g begin="text">
   <text y="173.69" x="70.866,75.75,81.25,89.808,98.366,103.866,109.366,112.424,117.924,121.091,126.591,130.87,135.754,141.254,144.433,149.317,154.817,159.701,168.259,171.317,176.201,181.085,184.143,188.422,191.586,194.644,200.144,203.323,208.207,213.707,217.986,226.544,231.428,234.486,237.544,242.428,245.593,251.093,254.756,260.256,265.756,271.256,276.14,279.198,283.477" svgx:width="0.44,0.5,0.78,0.78,0.5,0.5,0.28,0.5,0.25,0.5,0.39,0.44,0.5,0.25,0.44,0.5,0.44,0.78,0.28,0.44,0.44,0.28,0.39,0.25,0.28,0.5,0.25,0.44,0.5,0.39,0.78,0.44,0.28,0.28,0.44,0.25,0.5,0.33,0.5,0.5,0.5,0.44,0.28,0.39,0.25" style="fill:rgb(23,22,21);font-family:TimesNewRomanPSMT;font-size:11.0px;stroke:none;">commonly used chemicals in cosmetic products </text>
  </g>
  <g begin="text">
   <text y="186.69" x="70.866,75.75,81.25,86.75,89.5,90.589,93.647,99.147,104.031,106.781,107.87,111.533,115.196,120.08,125.58,129.243,134.127,139.627,144.511,149.395,152.145,153.229,158.113,163.613,169.113,171.863,172.952,178.452,183.336,186.999,190.662,196.162,204.72,209.604,212.354,213.443,216.501,222.001,227.501,233.001,237.28,240.338,244.001,248.785,251.535,254.285,255.374,261.49,266.374,270.037,274.921,277.979,283.479" svgx:width="0.44,0.5,0.5,0.25,0.55,0.28,0.5,0.44,0.25,0.55,0.33,0.33,0.44,0.5,0.33,0.44,0.5,0.44,0.44,0.25,0.55,0.44,0.5,0.5,0.25,0.55,0.5,0.44,0.33,0.33,0.5,0.78,0.44,0.25,0.55,0.28,0.5,0.5,0.5,0.39,0.28,0.33,0.5,0.25,0.25,0.55,0.56,0.44,0.33,0.44,0.28,0.5,0.25" style="fill:rgb(23,22,21);font-family:TimesNewRomanPSMT;font-size:11.0px;stroke:none;">and the fragrance and perfume industry. Safety </text>
  </g>
  <g begin="text">
   <text y="199.69" x="70.866,75.75,81.25,86.134,89.192,94.692,99.576,102.634,105.692,111.192,116.692,119.442,121.263,125.542,128.6,134.1,139.6,142.658,147.542,151.821,154.571,156.397,160.06,164.944,170.444,175.328,180.212,183.27,188.154,193.654,196.404,198.23,201.288,206.788,211.672,214.73,217.48,219.306,222.364,225.422,230.922,235.806,238.864,244.364,249.864,252.922,255.672,257.498,260.556,264.835,267.585,269.411,274.911,280.411,283.469" svgx:width="0.44,0.5,0.44,0.28,0.5,0.44,0.28,0.28,0.5,0.5,0.25,0.55,0.39,0.28,0.5,0.5,0.28,0.44,0.39,0.25,0.55,0.33,0.44,0.5,0.44,0.44,0.28,0.44,0.5,0.25,0.55,0.28,0.5,0.44,0.28,0.25,0.55,0.28,0.28,0.5,0.44,0.28,0.5,0.5,0.28,0.25,0.55,0.28,0.39,0.25,0.55,0.5,0.5,0.28,0.25" style="fill:rgb(23,22,21);font-family:TimesNewRomanPSMT;font-size:11.0px;stroke:none;">evaluation studies revealed that linalool is not </text>
  </g>
  <g begin="text">
   <text y="212.689" x="70.866,73.924,77.587,81.25,84.308,87.366,92.25,95.308,98.366,103.866,109.366,112.116,114.676,120.176,125.676,131.176,134.234,139.734,142.792,148.292,153.792,156.85,161.734,164.299,169.799,173.462,176.036,180.315,185.199,190.699,194.978,198.036,201.094,204.152,209.036,212.094,217.594,223.094,225.659,231.159,236.659,239.717,242.291,247.791,252.675,256.954,259.528,264.412,266.986,270.044,275.544,283.486" svgx:width="0.28,0.33,0.33,0.28,0.28,0.44,0.28,0.28,0.5,0.5,0.25,0.25,0.5,0.5,0.5,0.28,0.5,0.28,0.5,0.5,0.28,0.44,0.25,0.5,0.33,0.25,0.39,0.44,0.5,0.39,0.28,0.28,0.28,0.44,0.28,0.5,0.5,0.25,0.5,0.5,0.28,0.25,0.5,0.44,0.39,0.25,0.44,0.25,0.28,0.5,0.72,0.25" style="fill:rgb(23,22,21);font-family:TimesNewRomanPSMT;font-size:11.0px;stroke:none;">irritating, phototoxic or sensitizing but has a low </text>
  </g>
  <g begin="text">
   <text y="225.689" x="70.866,76.366,80.029,85.529,90.413,94.076,96.826,102.326,105.989,108.739,113.623,118.507,124.007,127.065,131.949,134.699,137.757,143.257,148.757,151.815,156.699,159.757,162.815,168.315,171.065,174.728,180.228,185.728,189.391" svgx:width="0.5,0.33,0.5,0.44,0.33,0.25,0.5,0.33,0.25,0.44,0.44,0.5,0.28,0.44,0.25,0.28,0.5,0.5,0.28,0.44,0.28,0.28,0.5,0.25,0.33,0.5,0.5,0.33,0.25" style="fill:rgb(23,22,21);font-family:TimesNewRomanPSMT;font-size:11.0px;stroke:none;">order of acute toxicity (15).</text>
  </g>
  <g begin="text">
   <text y="238.689" x="85.039,92.981,97.865,103.365,108.249,111.307,116.807,125.365,130.249,133.484,141.426,146.926,150.171,155.055,159.939,162.997,166.055,170.335,173.571,177.234,185.176,190.06,195.56,198.805,206.747,212.247,215.91,219.155,224.039,227.702,232.586,235.824,240.708,246.208,251.708,255.987,259.045,264.545,269.429,273.092,277.976,283.476" svgx:width="0.72,0.44,0.5,0.44,0.28,0.5,0.78,0.44,0.25,0.72,0.5,0.25,0.44,0.44,0.28,0.28,0.39,0.25,0.33,0.72,0.44,0.5,0.25,0.72,0.5,0.33,0.25,0.44,0.33,0.44,0.25,0.44,0.5,0.5,0.39,0.28,0.5,0.44,0.33,0.44,0.5,0.25" style="fill:rgb(23,22,21);font-family:TimesNewRomanPSMT;font-size:11.0px;stroke:none;">Hepatoma G2 cells (Hep G2) are considered </text>
  </g>
  <g begin="text">
   <text y="251.688" x="70.866,75.75,78.5,82.958,88.458,93.958,99.458,104.958,107.708,112.169,120.727,126.227,131.727,136.611,139.669,142.419,146.874,149.932,155.432,158.182,162.64,166.919,169.977,175.477,180.977,186.477" svgx:width="0.44,0.25,0.55,0.5,0.5,0.5,0.5,0.25,0.55,0.78,0.5,0.5,0.44,0.28,0.25,0.55,0.28,0.5,0.25,0.55,0.39,0.28,0.5,0.5,0.5,0.25" style="fill:rgb(23,22,21);font-family:TimesNewRomanPSMT;font-size:11.0px;stroke:none;">a good model to study </text>
  </g>
  <g begin="text">
   <text y="251.688" x="193.688,196.745,202.245,204.995,209.456,214.34,217.398,220.456,224.324" svgx:width="0.28,0.5,0.25,0.55,0.44,0.28,0.28,0.39,0.5" style="fill:rgb(23,22,21);font-family:TimesNewRomanPS-ItalicMT;font-size:11.0px;stroke:none;">in vitro</text>
  </g>
  <g begin="text">
   <text y="251.688" x="229.821,232.571,237.032,242.532,247.416,252.916,258.416,263.916,266.974,272.474,275.532,278.59,283.474" svgx:width="0.25,0.55,0.5,0.44,0.5,0.5,0.5,0.28,0.5,0.28,0.28,0.44,0.25" style="fill:rgb(23,22,21);font-family:TimesNewRomanPSMT;font-size:11.0px;stroke:none;"> xenobiotic </text>
  </g>
  <g begin="text">
   <text y="264.688" x="70.866,79.424,84.308,87.366,92.25,97.75,103.25,106.308,109.366,113.645,122.203,124.953,125.875,130.759,136.259,141.759,144.509,145.444,148.502,154.002,159.502,162.56,167.444,170.502,173.56,179.06,181.81,182.734,185.792,191.292,194.042,194.977,198.035,203.535,208.419,211.169,212.104,215.162,218.22,223.72,228.604,231.821,234.571,237.321,238.256,242.535,245.593,251.093,255.977,260.861,263.611,264.541,267.599,273.099,277.983,283.483" svgx:width="0.78,0.44,0.28,0.44,0.5,0.5,0.28,0.28,0.39,0.78,0.25,0.55,0.44,0.5,0.5,0.25,0.55,0.28,0.5,0.5,0.28,0.44,0.28,0.28,0.5,0.25,0.55,0.28,0.5,0.25,0.55,0.28,0.5,0.44,0.25,0.55,0.28,0.28,0.5,0.44,0.33,0.25,0.25,0.55,0.39,0.28,0.5,0.44,0.44,0.25,0.55,0.28,0.5,0.44,0.5,0.25" style="fill:rgb(23,22,21);font-family:TimesNewRomanPSMT;font-size:11.0px;stroke:none;">metabolism and toxicity to the liver, since they </text>
  </g>
  <g begin="text">
   <text y="277.688" x="70.866,74.529,79.413,82.471,87.355,90.413,95.913,98.663,99.879,108.437,113.321,118.821,124.321,127.071,128.292,133.792,137.455,140.205,141.426,144.484,149.984,154.868,157.618,158.839,163.118,168.618,173.502,178.386,181.444,186.328,189.386,192.444,197.328,202.199,207.699,210.449,211.67,215.333,220.833,226.333,231.217,234.275,237.333,242.833,248.333,252.612,255.362,256.583,264.525,270.025,273.083,277.967,283.467" svgx:width="0.33,0.44,0.28,0.44,0.28,0.5,0.25,0.55,0.78,0.44,0.5,0.5,0.25,0.55,0.5,0.33,0.25,0.55,0.28,0.5,0.44,0.25,0.55,0.39,0.5,0.44,0.44,0.28,0.44,0.28,0.28,0.44,0.44,0.5,0.25,0.55,0.33,0.5,0.5,0.44,0.28,0.28,0.5,0.5,0.39,0.25,0.55,0.72,0.5,0.28,0.44,0.5,0.25" style="fill:rgb(23,22,21);font-family:TimesNewRomanPSMT;font-size:11.0px;stroke:none;">retain many of the specialized functions which </text>
  </g>
  <g begin="text">
   <text y="290.688" x="70.866,75.75,81.25,86.134,89.797,94.681,99.565,102.623,107.507,111.17,114.228,119.112,123.996,126.746,130.328,135.828,141.328,144.991,153.549,158.433,161.491,164.241,167.838,173.338,178.838,187.396,192.28,197.78,200.53,204.127,209.627,214.511,220.011,224.895,227.953,233.453,238.337,243.837,246.895,251.779,256.058,258.808,262.396,266.059,271.559,277.059,280.722" svgx:width="0.44,0.5,0.44,0.33,0.44,0.44,0.28,0.44,0.33,0.28,0.44,0.44,0.25,0.55,0.5,0.5,0.33,0.78,0.44,0.28,0.25,0.55,0.5,0.5,0.78,0.44,0.5,0.25,0.55,0.5,0.44,0.5,0.44,0.28,0.5,0.44,0.5,0.28,0.44,0.39,0.25,0.55,0.33,0.5,0.5,0.33,0.25" style="fill:rgb(23,22,21);font-family:TimesNewRomanPSMT;font-size:11.0px;stroke:none;">characterize normal human hepatocytes (16).</text>
  </g>
  <g begin="text">
   <text y="287.024" x="283.465" svgx:width="0.25" style="fill:rgb(23,22,21);font-family:TimesNewRomanPSMT;font-size:6.41px;stroke:none;"> </text>
  </g>
  <g begin="text">
   <text y="303.687" x="70.866,78.808,81.866,86.145,91.645,94.395,97.145,98.278,106.22,111.104,116.604,121.488,124.546,130.046,138.596,143.48,146.23,147.363,155.305,160.805,163.555,164.688,169.572,174.456,177.514,180.572,184.851,187.601,188.734,193.618,197.281,202.165,204.915,206.048,210.932,213.682,214.815,220.315,225.199,228.257,233.757,238.641,244.141,247.199,252.083,254.833,255.96,264.518,270.018,275.518,280.402,283.46" svgx:width="0.72,0.28,0.39,0.5,0.25,0.25,0.55,0.72,0.44,0.5,0.44,0.28,0.5,0.78,0.44,0.25,0.55,0.72,0.5,0.25,0.55,0.44,0.44,0.28,0.28,0.39,0.25,0.55,0.44,0.33,0.44,0.25,0.55,0.44,0.25,0.55,0.5,0.44,0.28,0.5,0.44,0.5,0.28,0.44,0.25,0.55,0.78,0.5,0.5,0.44,0.28,0.25" style="fill:rgb(23,22,21);font-family:TimesNewRomanPSMT;font-size:11.0px;stroke:none;">Also, Hepatoma G2 cells are a valuable model </text>
  </g>
  <g begin="text">
   <text y="316.687" x="70.866,73.924,79.424,82.812,87.091,90.149,95.649,101.149,106.649,110.037,115.537,120.421,125.921,130.805,133.863,139.363,144.247,149.131,152.189,155.247,160.747,163.805,168.689,172.352,175.721,180.605,185.489,189.152,194.036,197.094,202.594,208.094,216.652,221.536,224.912,229.796,235.296,240.796,244.184,247.242,252.742,257.626,261.009,264.067,267.125,272.625,277.509,280.725,283.475" svgx:width="0.28,0.5,0.25,0.39,0.28,0.5,0.5,0.5,0.25,0.5,0.44,0.5,0.44,0.28,0.5,0.44,0.44,0.28,0.28,0.5,0.28,0.44,0.33,0.25,0.44,0.44,0.33,0.44,0.28,0.5,0.5,0.78,0.44,0.25,0.44,0.5,0.5,0.25,0.28,0.5,0.44,0.25,0.28,0.28,0.5,0.44,0.33,0.25,0.25" style="fill:rgb(23,22,21);font-family:TimesNewRomanPSMT;font-size:11.0px;stroke:none;">to study hepatocellular carcinoma and the liver, </text>
  </g>
  <g begin="text">
   <text y="329.686" x="70.866,78.808,84.308,89.192,92.855,97.739,100.489,105.989,109.652,115.152,120.652,124.931,127.681,132.565,136.228,141.112,143.862,152.42,157.304,160.362,165.246,170.746,176.246,179.304,182.362,187.246,192.13,197.63,200.38,204.043,209.543,215.043,218.706" svgx:width="0.72,0.5,0.44,0.33,0.44,0.25,0.5,0.33,0.5,0.5,0.39,0.25,0.44,0.33,0.44,0.25,0.78,0.44,0.28,0.44,0.5,0.5,0.28,0.28,0.44,0.44,0.5,0.25,0.33,0.5,0.5,0.33,0.25" style="fill:rgb(23,22,21);font-family:TimesNewRomanPSMT;font-size:11.0px;stroke:none;">where drugs are metabolized (17).</text>
  </g>
  <g begin="text">
   <text y="342.686" x="85.039,88.702,94.202,96.952,98.514,103.398,108.898,114.398,117.456,122.956,127.84,131.503,134.253,135.815,140.699,146.199,151.699,156.583,160.246,163.304,171.862,176.746,182.246,185.304,188.054,190.804,192.359,200.301,205.185,207.935,209.497,213.776,216.834,222.334,227.834,230.892,235.776,241.276,244.026,245.588,251.088,256.588,261.472,266.972,272.472,275.53,278.588,283.472" svgx:width="0.33,0.5,0.25,0.55,0.44,0.5,0.5,0.28,0.5,0.44,0.33,0.25,0.55,0.44,0.5,0.5,0.44,0.33,0.28,0.78,0.44,0.5,0.28,0.25,0.25,0.55,0.72,0.44,0.25,0.55,0.39,0.28,0.5,0.5,0.28,0.44,0.5,0.25,0.55,0.5,0.5,0.44,0.5,0.5,0.28,0.28,0.44,0.25" style="fill:rgb(23,22,21);font-family:TimesNewRomanPSMT;font-size:11.0px;stroke:none;">In another experiment, we studied phenolic </text>
  </g>
  <g begin="text">
   <text y="355.686" x="70.866,73.924,78.808,82.471,87.971,92.855,98.355,103.855,106.913,112.413,115.163,128.497,133.381,138.265,141.928,147.428,152.312,157.196,160.859,166.359,169.417,172.465,176.744,179.494,192.837,196.5,205.058,209.942,213.0,218.5,221.25,234.587,239.471,244.971,253.529,259.029,264.529,270.029,274.913,280.413,283.471" svgx:width="0.28,0.44,0.33,0.5,0.44,0.5,0.5,0.28,0.5,0.25,0.55,0.44,0.44,0.33,0.5,0.44,0.44,0.33,0.5,0.28,0.33,0.39,0.25,0.55,0.33,0.78,0.44,0.28,0.5,0.25,0.55,0.44,0.5,0.78,0.5,0.5,0.5,0.44,0.5,0.28,0.25" style="fill:rgb(23,22,21);font-family:TimesNewRomanPSMT;font-size:11.0px;stroke:none;">terpenoid carvacrol’s (main component </text>
  </g>
  <g begin="text">
   <text y="368.686" x="70.866,76.366,80.029" svgx:width="0.5,0.33,0.25" style="fill:rgb(23,22,21);font-family:TimesNewRomanPSMT;font-size:11.0px;stroke:none;">of </text>
  </g>
  <g begin="text">
   <text y="368.686" x="88.475,96.417,99.167,101.917,107.615,115.557,121.057,124.115,129.615,133.894,139.394,144.894,150.394" svgx:width="0.72,0.25,0.25,0.55,0.72,0.5,0.28,0.5,0.39,0.5,0.5,0.5,0.25" style="fill:rgb(23,22,21);font-family:TimesNewRomanPS-ItalicMT;font-size:11.0px;stroke:none;">O. majorana </text>
  </g>
  <g begin="text">
   <text y="368.686" x="158.84,163.724,168.003,172.282,177.166,182.666,185.724,188.782,193.666,196.724,199.474,205.162,210.662,213.72,216.778,220.441,223.191,228.884,233.768,239.268,242.326,247.826,250.884,256.384,261.884,264.942,269.826,272.884,275.942,280.715,283.465" svgx:width="0.44,0.39,0.39,0.44,0.5,0.28,0.28,0.44,0.28,0.25,0.55,0.5,0.28,0.28,0.33,0.25,0.55,0.44,0.5,0.28,0.5,0.28,0.5,0.5,0.28,0.44,0.28,0.28,0.5,0.25,0.25" style="fill:rgb(23,22,21);font-family:TimesNewRomanPSMT;font-size:11.0px;stroke:none;">essential oil) cytotoxicity, </text>
  </g>
  <g begin="text">
   <text y="381.685" x="70.866,75.75,81.25,84.308,89.808,95.308,98.971,104.471,107.529,112.413,117.297,120.355,123.413,128.913,133.797,137.355,142.239,147.739,153.239,156.814,165.372,170.256,178.814,184.314,187.977,192.861,198.361,203.245,206.807,212.307,215.97,221.47,224.528,229.412,234.296,237.354,240.412,245.912,250.796,254.358,259.242,262.704,266.367,271.251,276.135,279.193,283.472" svgx:width="0.44,0.5,0.28,0.5,0.5,0.33,0.5,0.28,0.44,0.44,0.28,0.28,0.5,0.44,0.25,0.44,0.5,0.5,0.25,0.78,0.44,0.78,0.5,0.33,0.44,0.5,0.44,0.25,0.5,0.33,0.5,0.28,0.44,0.44,0.28,0.28,0.5,0.44,0.25,0.44,0.33,0.33,0.44,0.44,0.28,0.39,0.25" style="fill:rgb(23,22,21);font-family:TimesNewRomanPSMT;font-size:11.0px;stroke:none;">cytoprotective and membrane protective effects </text>
  </g>
  <g begin="text">
   <text y="394.685" x="70.866,76.366,81.866,83.879,91.821,96.705,102.205,104.218,112.16,117.66,119.673,124.557,129.441,132.499,135.549,139.828,141.841,145.504,151.004,156.504,160.167,162.917,164.731,171.452,176.952,181.836,185.499,190.383,194.046,199.546,203.209,208.093,210.843,212.847,220.789,225.673,227.686,233.186,237.465,242.349,247.849,249.862,252.92,255.978,261.478,266.362,269.421,274.921,280.421,283.479" svgx:width="0.5,0.5,0.25,0.72,0.44,0.5,0.25,0.72,0.5,0.25,0.44,0.44,0.28,0.28,0.39,0.25,0.33,0.5,0.5,0.33,0.25,0.25,0.61,0.5,0.44,0.33,0.44,0.33,0.5,0.33,0.44,0.25,0.25,0.72,0.44,0.25,0.5,0.39,0.44,0.5,0.25,0.28,0.28,0.5,0.44,0.28,0.5,0.5,0.28,0.25" style="fill:rgb(23,22,21);font-family:TimesNewRomanPSMT;font-size:11.0px;stroke:none;">on Hep G2 cells (18). Therefore, we used linalool </text>
  </g>
  <g begin="text">
   <text y="407.685" x="70.866,74.529,78.808,83.692,88.576,94.076,99.576,105.076,107.826,114.052,122.61,127.494,130.552,136.052,138.802,145.023,149.907,155.407,163.965,169.465,174.965,180.465,185.349,190.849,193.907,196.657,202.876,208.376,212.039" svgx:width="0.33,0.39,0.44,0.44,0.5,0.5,0.5,0.25,0.55,0.78,0.44,0.28,0.5,0.25,0.55,0.44,0.5,0.78,0.5,0.5,0.5,0.44,0.5,0.28,0.25,0.55,0.5,0.33,0.25" style="fill:rgb(23,22,21);font-family:TimesNewRomanPSMT;font-size:11.0px;stroke:none;">(second main component of </text>
  </g>
  <g begin="text">
   <text y="407.685" x="221.014,228.956,231.706,234.456,240.682,248.624,254.124,257.182,262.682,266.961,272.461,277.961" svgx:width="0.72,0.25,0.25,0.55,0.72,0.5,0.28,0.5,0.39,0.5,0.5,0.5" style="fill:rgb(23,22,21);font-family:TimesNewRomanPS-ItalicMT;font-size:11.0px;stroke:none;">O. majorana</text>
  </g>
  <g begin="text">
   <text y="407.685" x="283.465" svgx:width="0.25" style="fill:rgb(23,22,21);font-family:TimesNewRomanPSMT;font-size:11.0px;stroke:none;"> </text>
  </g>
  <g begin="text">
   <text y="420.684" x="70.866,75.75,80.029,84.308,89.192,94.692,97.75,100.808,105.692,108.75,111.5,117.0,120.058,123.116,126.779,129.529,133.192,138.692,142.355,145.105,148.163,153.663,156.721,161.0,163.75,168.634,174.134,179.634,184.518,188.181,191.239,199.797,204.681,210.181,213.239" svgx:width="0.44,0.39,0.39,0.44,0.5,0.28,0.28,0.44,0.28,0.25,0.5,0.28,0.28,0.33,0.25,0.33,0.5,0.33,0.25,0.28,0.5,0.28,0.39,0.25,0.44,0.5,0.5,0.44,0.33,0.28,0.78,0.44,0.5,0.28,0.25" style="fill:rgb(23,22,21);font-family:TimesNewRomanPSMT;font-size:11.0px;stroke:none;">essential oil) for this experiment.</text>
  </g>
  <g begin="text">
   <text y="433.684" x="85.039,91.76,97.26,102.144,103.882,108.766,111.824,120.382,122.12,127.62,131.283,133.021,138.521,144.021,147.684,149.422,157.364,162.864,166.527,172.027,173.765,181.707,186.591,190.87,192.615,195.673,201.173,202.911,207.795,213.295,221.853,227.353,232.237,235.9,240.784,242.522,247.406,252.906,255.964,261.464,264.522,270.022,275.522,278.58,283.464" svgx:width="0.61,0.5,0.44,0.25,0.44,0.28,0.78,0.25,0.5,0.33,0.25,0.5,0.5,0.33,0.25,0.72,0.5,0.33,0.5,0.25,0.72,0.44,0.39,0.25,0.28,0.5,0.25,0.44,0.5,0.78,0.5,0.44,0.33,0.44,0.25,0.44,0.5,0.28,0.5,0.28,0.5,0.5,0.28,0.44,0.25" style="fill:rgb(23,22,21);font-family:TimesNewRomanPSMT;font-size:11.0px;stroke:none;">The aim of our work was to compare cytotoxic </text>
  </g>
  <g begin="text">
   <text y="446.684" x="70.866,75.75,81.25,86.75,89.049,97.607,102.491,111.049,116.549,120.212,125.096,130.596,135.48,139.143,144.643,149.527,158.085,162.969,168.469,171.527,177.027,182.527,184.813,189.697,193.16,196.823,201.707,206.591,209.649,213.928,216.227,221.727" svgx:width="0.44,0.5,0.5,0.25,0.78,0.44,0.78,0.5,0.33,0.44,0.5,0.44,0.33,0.5,0.44,0.78,0.44,0.5,0.28,0.5,0.5,0.25,0.44,0.33,0.33,0.44,0.44,0.28,0.39,0.25,0.5,0.33" style="fill:rgb(23,22,21);font-family:TimesNewRomanPSMT;font-size:11.0px;stroke:none;">and membrane-damaging effects of</text>
  </g>
  <g begin="text">
   <text y="446.684" x="225.388,227.687,235.629,238.379,240.678,248.62,254.12,257.178,262.678,266.957,272.457,277.957" svgx:width="0.25,0.72,0.25,0.25,0.72,0.5,0.28,0.5,0.39,0.5,0.5,0.5" style="fill:rgb(23,22,21);font-family:TimesNewRomanPS-ItalicMT;font-size:11.0px;stroke:none;"> O. majorana</text>
  </g>
  <g begin="text">
   <text y="446.684" x="283.465" svgx:width="0.25" style="fill:rgb(23,22,21);font-family:TimesNewRomanPSMT;font-size:11.0px;stroke:none;"> </text>
  </g>
  <g begin="text">
   <text y="459.683" x="70.866,75.75,80.029,84.308,89.192,94.692,97.75,100.808,105.692,108.75,111.5,114.484,119.984,123.042,126.1,128.85,131.842,136.726,142.226,147.726,150.476,153.468,156.526,159.584,163.863,166.613,169.605,175.105,180.605,186.105,191.605,196.489,201.989,206.873,209.931,214.815,220.315,223.065,226.05,234.608,240.108,245.608,251.108,254.166,259.05,262.713,268.213,273.097,278.597,283.481" svgx:width="0.44,0.39,0.39,0.44,0.5,0.28,0.28,0.44,0.28,0.25,0.55,0.5,0.28,0.28,0.25,0.55,0.44,0.5,0.5,0.25,0.55,0.28,0.28,0.39,0.25,0.55,0.5,0.5,0.5,0.5,0.44,0.5,0.44,0.28,0.44,0.5,0.25,0.55,0.78,0.5,0.5,0.5,0.28,0.44,0.33,0.5,0.44,0.5,0.44,0.25" style="fill:rgb(23,22,21);font-family:TimesNewRomanPSMT;font-size:11.0px;stroke:none;">essential oil and its oxygenated monoterpene </text>
  </g>
  <g begin="text">
   <text y="472.683" x="70.866,75.75,81.25,89.808,95.308,100.808,106.308,111.192,116.692,119.75,122.434,125.492,128.55,134.05,138.934,141.992,147.492,152.992,156.05,158.729,164.229,169.729,172.413,175.471,180.971,185.855,188.539,194.039,199.539,208.097,212.981,218.481,221.165,226.665,231.549,237.049,241.933,244.991,250.491,255.375,260.259,263.317,266.375,271.875,274.933,279.817,283.48" svgx:width="0.44,0.5,0.78,0.5,0.5,0.5,0.44,0.5,0.28,0.25,0.28,0.28,0.5,0.44,0.28,0.5,0.5,0.28,0.25,0.5,0.5,0.25,0.28,0.5,0.44,0.25,0.5,0.5,0.78,0.44,0.5,0.25,0.5,0.44,0.5,0.44,0.28,0.5,0.44,0.44,0.28,0.28,0.5,0.28,0.44,0.33,0.25" style="fill:rgb(23,22,21);font-family:TimesNewRomanPSMT;font-size:11.0px;stroke:none;">component linalool on the human hepatocellular </text>
  </g>
  <g begin="text">
   <text y="485.683" x="70.866,75.75,80.634,84.297,89.181,92.239,97.739,103.239,111.797,116.681,119.431,121.037,125.921,130.805,133.863,136.913,139.663,141.28,144.338,147.396,152.896,157.78,160.53,162.141,170.083,174.967,180.467,183.217,184.834,192.776,198.276,201.026,202.643,207.527,213.027,218.527,221.277,222.894,225.952,231.452,234.202,235.819,238.877,244.377,249.877,254.761,259.04,262.098,265.156,270.656,275.54,278.598,283.482" svgx:width="0.44,0.44,0.33,0.44,0.28,0.5,0.5,0.78,0.44,0.25,0.55,0.44,0.44,0.28,0.28,0.25,0.55,0.28,0.28,0.5,0.44,0.25,0.55,0.72,0.44,0.5,0.25,0.55,0.72,0.5,0.25,0.55,0.44,0.5,0.5,0.25,0.55,0.28,0.5,0.25,0.55,0.28,0.5,0.5,0.44,0.39,0.28,0.28,0.5,0.44,0.28,0.44,0.25" style="fill:rgb(23,22,21);font-family:TimesNewRomanPSMT;font-size:11.0px;stroke:none;">carcinoma cell line Hep G2 and to investigate </text>
  </g>
  <g begin="text">
   <text y="498.682" x="70.866,73.924,79.424,84.308,87.366,91.029,93.779,97.643,103.143,108.643,112.922,117.201,120.259,125.759,128.817,133.701,136.451,140.323,145.823,149.486,154.986,158.044,162.928,167.812,170.87,173.928,179.428,184.312,187.062,190.922,194.585,199.469,204.969,208.027,211.085,216.585,222.085,225.143,230.643,235.527,241.027,244.085,247.748,250.498,254.359,259.243,262.706,266.369,271.253,276.137,279.195,283.474" svgx:width="0.28,0.5,0.44,0.28,0.33,0.25,0.55,0.5,0.5,0.39,0.39,0.28,0.5,0.28,0.44,0.25,0.55,0.5,0.33,0.5,0.28,0.44,0.44,0.28,0.28,0.5,0.44,0.25,0.55,0.33,0.44,0.5,0.28,0.28,0.5,0.5,0.28,0.5,0.44,0.5,0.28,0.33,0.25,0.55,0.44,0.33,0.33,0.44,0.44,0.28,0.39,0.25" style="fill:rgb(23,22,21);font-family:TimesNewRomanPSMT;font-size:11.0px;stroke:none;">their possible protective (antioxidant) effects </text>
  </g>
  <g begin="text">
   <text y="511.682" x="70.866,75.75,81.25,86.134,89.192,94.692,98.971,102.029,104.779" svgx:width="0.44,0.5,0.44,0.28,0.5,0.39,0.28,0.25,0.72" style="fill:rgb(23,22,21);font-family:TimesNewRomanPSMT;font-size:11.0px;stroke:none;">against H</text>
  </g>
  <g begin="text">
   <text y="515.345" x="112.718" svgx:width="0.5" style="fill:rgb(23,22,21);font-family:TimesNewRomanPSMT;font-size:6.41px;stroke:none;">2</text>
  </g>
  <g begin="text">
   <text y="511.682" x="115.924" svgx:width="0.72" style="fill:rgb(23,22,21);font-family:TimesNewRomanPSMT;font-size:11.0px;stroke:none;">O</text>
  </g>
  <g begin="text">
   <text y="515.345" x="123.868" svgx:width="0.5" style="fill:rgb(23,22,21);font-family:TimesNewRomanPSMT;font-size:6.41px;stroke:none;">2</text>
  </g>
  <g begin="text">
   <text y="511.682" x="127.075,129.825,132.883,138.383,143.883,149.383,154.267,159.151,164.651,167.401,175.959,180.843,189.401,194.901,198.564,203.436,208.936,213.82,216.57,222.07,226.954,235.512,240.396,245.896,250.78" svgx:width="0.25,0.28,0.5,0.5,0.5,0.44,0.44,0.5,0.25,0.78,0.44,0.78,0.5,0.33,0.44,0.5,0.44,0.25,0.5,0.44,0.78,0.44,0.5,0.44,0.25" style="fill:rgb(23,22,21);font-family:TimesNewRomanPSMT;font-size:11.0px;stroke:none;"> induced membrane damage.</text>
  </g>
  <g begin="text">
   <text y="537.682" x="145.087,152.424,157.924,164.04,168.924,173.808,176.866,186.029,190.913,197.029,200.691,206.191,209.249" svgx:width="0.67,0.5,0.56,0.44,0.44,0.28,0.83,0.44,0.56,0.33,0.5,0.28,0.25" style="fill:rgb(23,22,21);font-family:TimesNewRomanPS-BoldMT;font-size:11.0px;stroke:none;">Experimental </text>
  </g>
  <g begin="text">
   <text y="563.681" x="85.039,92.376,97.876,100.934,103.992,108.876,113.76,116.818,119.876,125.376,130.876,133.626,139.126,142.184,144.934,150.434,153.492,158.992,164.492,167.55,170.3,178.242,183.742,186.8,191.684,195.963,199.021,204.521" svgx:width="0.67,0.5,0.28,0.28,0.44,0.44,0.28,0.28,0.5,0.5,0.25,0.5,0.28,0.25,0.5,0.28,0.5,0.5,0.28,0.25,0.72,0.5,0.28,0.44,0.39,0.28,0.5,0.28" style="fill:rgb(23,22,21);font-family:TimesNewRomanPS-ItalicMT;font-size:11.0px;stroke:none;">Collection of plant material</text>
  </g>
  <g begin="text">
   <text y="576.68" x="85.039,92.981,95.731,96.985,104.927,110.427,113.485,118.985,123.264,128.764,134.264,139.764" svgx:width="0.72,0.25,0.25,0.72,0.5,0.28,0.5,0.39,0.5,0.5,0.5,0.25" style="fill:rgb(23,22,21);font-family:TimesNewRomanPS-ItalicMT;font-size:11.0px;stroke:none;">O. majorana </text>
  </g>
  <g begin="text">
   <text y="576.68" x="141.022,148.964,153.848,158.127,159.381,164.265,169.765,172.823,175.881,180.765,185.649,188.707,193.591,199.091,200.331,203.994,207.657,213.157,221.715,222.969,232.748,237.632,243.132,251.69,257.19,260.248,264.527,269.411,274.911,280.411,283.469" svgx:width="0.72,0.44,0.39,0.25,0.44,0.5,0.28,0.28,0.44,0.44,0.28,0.44,0.5,0.25,0.33,0.33,0.5,0.78,0.25,0.89,0.44,0.5,0.78,0.5,0.28,0.39,0.44,0.5,0.5,0.28,0.25" style="fill:rgb(23,22,21);font-family:TimesNewRomanPSMT;font-size:11.0px;stroke:none;">was collected from Mahmutseydi </text>
  </g>
  <g begin="text">
   <text y="589.68" x="70.866,78.149,81.207,84.265,87.323,92.207,97.707,102.591,105.341,108.091,110.516,118.458,121.516,126.4,131.9,137.4,142.284,145.034,148.07,151.733,157.233,162.733,168.233,170.983,174.019,182.577,186.24,188.99,192.026,195.084,200.584,203.334,206.173,212.505,218.005,221.668,227.168,232.052,237.552,240.302,243.338,247.001,253.527,259.027,264.527,269.411,274.911,279.795,283.458" svgx:width="0.72,0.28,0.28,0.28,0.44,0.5,0.44,0.25,0.25,0.55,0.72,0.28,0.44,0.5,0.5,0.44,0.25,0.55,0.33,0.5,0.5,0.5,0.25,0.55,0.78,0.33,0.25,0.55,0.28,0.5,0.25,0.55,0.61,0.5,0.33,0.5,0.44,0.5,0.25,0.55,0.33,0.72,0.5,0.5,0.44,0.5,0.44,0.33,0.25" style="fill:rgb(23,22,21);font-family:TimesNewRomanPSMT;font-size:11.0px;stroke:none;">Village, Alanya (730 m) in Turkey (Voucher </text>
  </g>
  <g begin="text">
   <text y="602.68" x="70.866,76.366,81.866,84.924,87.674,89.113,95.834,103.171,105.921,107.56,113.06,118.56,124.06,126.81,127.842,135.784,142.505,146.168,148.918,151.668,153.109,159.83,165.33,170.214,172.964,174.599,177.657,182.541,188.041,193.541,199.041,204.541,213.099,216.157,221.041,223.791,225.425,228.483,233.983,238.867,244.367,247.425,250.483,256.599,261.483,266.367,269.425,272.483,277.983,283.483" svgx:width="0.5,0.5,0.28,0.25,0.55,0.61,0.67,0.25,0.55,0.5,0.5,0.5,0.25,0.55,0.72,0.61,0.33,0.25,0.25,0.55,0.61,0.5,0.44,0.25,0.55,0.28,0.44,0.5,0.5,0.5,0.5,0.78,0.28,0.44,0.25,0.55,0.28,0.5,0.44,0.5,0.28,0.28,0.56,0.44,0.44,0.28,0.28,0.5,0.5,0.25" style="fill:rgb(23,22,21);font-family:TimesNewRomanPSMT;font-size:11.0px;stroke:none;">no: TR 102 AL). The taxonomic identification </text>
  </g>
  <g begin="text">
   <text y="615.68" x="70.866,76.366,80.029,82.779,85.354,90.854,93.912,98.796,104.296,107.354,110.104,112.677,121.235,126.119,129.177,134.061,137.718,140.776,145.66,148.718,152.997,155.747,158.317,166.259,171.143,174.806,179.69,182.44,185.014,189.898,195.398,200.898,207.014,210.677,219.235,224.119,229.619,232.369,234.942,240.442,245.942,248.692,251.267,256.151,258.901,261.474,266.974,270.032,274.916,280.416,283.474" svgx:width="0.5,0.33,0.25,0.55,0.5,0.28,0.44,0.5,0.28,0.25,0.55,0.78,0.44,0.28,0.44,0.33,0.28,0.44,0.28,0.39,0.25,0.55,0.72,0.44,0.33,0.44,0.25,0.55,0.44,0.5,0.5,0.56,0.33,0.78,0.44,0.5,0.25,0.55,0.5,0.5,0.25,0.55,0.44,0.25,0.55,0.5,0.28,0.44,0.5,0.28,0.25" style="fill:rgb(23,22,21);font-family:TimesNewRomanPSMT;font-size:11.0px;stroke:none;">of plant materials were confirmed by a plant </text>
  </g>
  <g begin="text">
   <text y="628.679" x="70.866,73.924,78.808,84.308,89.808,95.308,100.808,109.366,112.424,116.703,119.761,122.511,125.261,126.415,132.531,136.194,141.694,145.357,148.107,150.857,152.023,159.965,163.023,165.773,168.523,169.684,177.021,179.771,182.521,183.687,189.803,195.303,198.361,203.245,208.745,217.303,222.187,227.687,230.437,231.594,239.536,245.036,250.536,253.594,259.094,262.757,268.257,271.007,273.757,274.923,277.981,283.481" svgx:width="0.28,0.44,0.5,0.5,0.5,0.5,0.78,0.28,0.39,0.28,0.25,0.25,0.55,0.56,0.33,0.5,0.33,0.25,0.25,0.55,0.72,0.33,0.25,0.25,0.55,0.67,0.25,0.25,0.55,0.56,0.5,0.28,0.44,0.5,0.78,0.44,0.5,0.25,0.55,0.72,0.5,0.5,0.28,0.5,0.33,0.5,0.25,0.25,0.55,0.28,0.5,0.25" style="fill:rgb(23,22,21);font-family:TimesNewRomanPSMT;font-size:11.0px;stroke:none;">taxonomist, Prof. Dr. R. Süleyman Göktürk, in </text>
  </g>
  <g begin="text">
   <text y="641.679" x="70.866,78.808,83.692,89.192,94.076,97.739,100.797,109.355,114.239,119.739,122.797,125.547,130.012,135.512,139.175,141.925,146.402,153.739,156.797,162.297,165.355,170.855,176.355,181.137,183.887,186.637,190.504,198.446,203.946,209.446,214.33,219.83,222.888,227.772,230.522,234.992,242.934,248.434,251.492,256.992,261.876,265.539,269.818,272.876,275.934,280.715,283.465" svgx:width="0.72,0.44,0.5,0.44,0.33,0.28,0.78,0.44,0.5,0.28,0.25,0.55,0.5,0.33,0.25,0.55,0.67,0.28,0.5,0.28,0.5,0.5,0.5,0.25,0.25,0.55,0.72,0.5,0.5,0.44,0.5,0.28,0.44,0.25,0.55,0.72,0.5,0.28,0.5,0.44,0.33,0.39,0.28,0.28,0.5,0.25,0.25" style="fill:rgb(23,22,21);font-family:TimesNewRomanPSMT;font-size:11.0px;stroke:none;">Department of Biology, Akdeniz University, </text>
  </g>
  <g begin="text">
   <text y="654.679" x="70.866,78.808,84.308,87.366,92.25,95.308,100.808,105.692,108.442,110.989,117.32,122.82,126.483,131.983,136.867,141.652" svgx:width="0.72,0.5,0.28,0.44,0.28,0.5,0.44,0.25,0.25,0.61,0.5,0.33,0.5,0.44,0.5,0.25" style="fill:rgb(23,22,21);font-family:TimesNewRomanPSMT;font-size:11.0px;stroke:none;">Antalya, Turkey.</text>
  </g>
  <g begin="text">
   <text y="680.678" x="85.039,88.702,92.981,98.481,101.539,107.039,110.097,113.155,118.655,124.155,126.905,132.405,135.463,138.213,141.271,146.771,151.655,154.405,159.289,163.568,167.847,172.731,178.231,181.289,184.347,189.847,192.905,195.655,201.155,204.213" svgx:width="0.33,0.39,0.5,0.28,0.5,0.28,0.28,0.5,0.5,0.25,0.5,0.28,0.25,0.28,0.5,0.44,0.25,0.44,0.39,0.39,0.44,0.5,0.28,0.28,0.5,0.28,0.25,0.5,0.28,0.28" style="fill:rgb(23,22,21);font-family:TimesNewRomanPS-ItalicMT;font-size:11.0px;stroke:none;">Isolation of the essential oil</text>
  </g>
  <g begin="text">
   <text y="693.678" x="85.039,91.76,97.26,102.144,103.607,108.491,111.549,114.988,118.651,124.151,127.814,130.872,135.756,141.256,142.719,147.603,152.487,156.15,159.208,164.092,167.15,168.613,174.113,178.997,182.66,185.718,189.997,191.46,196.96,200.623,202.086,207.586,210.644,215.528,221.028,224.086,228.365,229.828,233.491,238.991,244.491,249.991,251.454,256.954,260.617,262.08,270.022,274.906,278.569,283.453" svgx:width="0.61,0.5,0.44,0.25,0.44,0.28,0.33,0.33,0.5,0.33,0.28,0.44,0.5,0.25,0.44,0.44,0.33,0.28,0.44,0.28,0.25,0.5,0.44,0.33,0.28,0.39,0.25,0.5,0.33,0.25,0.5,0.28,0.44,0.5,0.28,0.39,0.25,0.33,0.5,0.5,0.5,0.25,0.5,0.33,0.25,0.72,0.44,0.33,0.44,0.25" style="fill:rgb(23,22,21);font-family:TimesNewRomanPSMT;font-size:11.0px;stroke:none;">The air-dried aerial parts of plants (100 g) were </text>
  </g>
  <g begin="text">
   <text y="706.677" x="70.866,76.366,81.866,89.808,95.308,100.192,103.855,108.739,114.239,117.781,122.665,128.165,133.665,137.207,141.486,146.986,152.486,155.544,160.428,165.312,168.37,173.254,178.754,182.289,185.347,190.847,194.389,199.889,205.389,210.889,214.552,220.052,225.552,228.61,232.889,235.947,239.005,242.063,245.121,250.005,253.063,256.121,261.621,267.121,270.648,274.311,279.811,283.474" svgx:width="0.5,0.5,0.72,0.5,0.44,0.33,0.44,0.5,0.25,0.44,0.5,0.5,0.25,0.39,0.5,0.5,0.28,0.44,0.44,0.28,0.44,0.5,0.25,0.28,0.5,0.25,0.5,0.5,0.5,0.33,0.5,0.5,0.28,0.39,0.28,0.28,0.28,0.28,0.44,0.28,0.28,0.5,0.5,0.25,0.33,0.5,0.33,0.25" style="fill:rgb(23,22,21);font-family:TimesNewRomanPSMT;font-size:11.0px;stroke:none;">powdered and subjected to hydrodistillation for </text>
  </g>
  <g begin="text">
   <text y="719.677" x="70.866,76.366,78.841,84.341,86.816,92.316,96.595,99.653,105.153,110.653,113.128,116.186,121.686,126.57,129.045,136.382,139.44,144.324,149.824,154.708,160.208,165.708,170.592,174.029,177.692,180.75,186.25,191.75,196.634,199.109,203.993,209.493,214.993,219.877,223.54,228.424,231.482,236.982,241.261,243.736,247.399,251.062,257.783,265.725,273.667,283.446" svgx:width="0.5,0.25,0.5,0.25,0.5,0.39,0.28,0.5,0.5,0.25,0.28,0.5,0.44,0.25,0.67,0.28,0.44,0.5,0.44,0.5,0.5,0.44,0.33,0.33,0.28,0.5,0.5,0.44,0.25,0.44,0.5,0.5,0.44,0.33,0.44,0.28,0.5,0.39,0.25,0.33,0.33,0.61,0.72,0.72,0.89,0.25" style="fill:rgb(23,22,21);font-family:TimesNewRomanPSMT;font-size:11.0px;stroke:none;">3 h using the Clevenger-type apparatus (ILDAM </text>
  </g>
  <g begin="text">
   <text y="732.677" x="70.866,77.587,80.645,86.145,88.895,91.645,94.395,97.81,105.752,111.252,116.752,121.636,125.299,130.183,132.933,135.683,139.507,145.84,151.34,155.003,160.503,165.387,170.887,174.55,177.3,181.326,186.21,189.268,192.018,196.044,205.823,211.323,214.381,219.265,224.149,229.649,232.707,237.591,241.254,244.004,248.022,255.359,258.417,263.917,266.975,272.475,277.975,283.475" svgx:width="0.61,0.28,0.5,0.25,0.25,0.25,0.55,0.72,0.5,0.5,0.44,0.33,0.44,0.25,0.25,0.55,0.61,0.5,0.33,0.5,0.44,0.5,0.33,0.25,0.55,0.44,0.28,0.25,0.55,0.89,0.5,0.28,0.44,0.44,0.5,0.28,0.44,0.33,0.25,0.55,0.67,0.28,0.5,0.28,0.5,0.5,0.5,0.25" style="fill:rgb(23,22,21);font-family:TimesNewRomanPSMT;font-size:11.0px;stroke:none;">Ltd., Ankara, Turkey) at Molecular Biology </text>
  </g>
  <g begin="text">
   <text y="745.677" x="70.866,78.808,83.692,89.192,94.076,97.739,100.797,109.355,114.239,119.739,122.797,125.547,127.385,130.443,135.943,138.693,140.541,147.878,150.936,156.436,159.494,164.994,170.494,175.994,178.744,180.587,183.645,189.145,191.895,193.132,201.074,206.574,212.074,216.958,222.458,225.516,230.4,233.15,234.998,242.94,248.44,251.498,256.998,261.882,265.545,269.824,272.882,275.94,280.722,283.472" svgx:width="0.72,0.44,0.5,0.44,0.33,0.28,0.78,0.44,0.5,0.28,0.25,0.55,0.28,0.5,0.25,0.55,0.67,0.28,0.5,0.28,0.5,0.5,0.5,0.25,0.55,0.28,0.5,0.25,0.55,0.72,0.5,0.5,0.44,0.5,0.28,0.44,0.25,0.55,0.72,0.5,0.28,0.5,0.44,0.33,0.39,0.28,0.28,0.5,0.25,0.25" style="fill:rgb(23,22,21);font-family:TimesNewRomanPSMT;font-size:11.0px;stroke:none;">Department in Biology in Akdeniz University. </text>
  </g>
  <g begin="text">
   <text y="108.692" x="303.307,310.028,315.528,320.412,323.162,328.554,334.054,339.554,342.612,347.496,350.554,356.054,360.938,366.438,369.188,374.578,379.462,383.741,388.02,392.904,398.404,401.462,404.52,409.404,412.462,415.212,420.601,426.101,429.159,432.217,434.967,440.363,448.305,453.189,457.468,460.218,465.619,471.119,474.782,477.84,482.724,488.224,490.974,496.367,501.867,507.367,512.251,515.914" svgx:width="0.61,0.5,0.44,0.25,0.55,0.5,0.5,0.28,0.44,0.28,0.5,0.44,0.5,0.25,0.55,0.44,0.39,0.39,0.44,0.5,0.28,0.28,0.44,0.28,0.25,0.55,0.5,0.28,0.28,0.25,0.55,0.72,0.44,0.39,0.25,0.55,0.5,0.33,0.28,0.44,0.5,0.25,0.55,0.5,0.5,0.44,0.33,0.25" style="fill:rgb(23,22,21);font-family:TimesNewRomanPSMT;font-size:11.0px;stroke:none;">The obtained essential oil was dried over </text>
  </g>
  <g begin="text">
   <text y="121.692" x="303.307,308.191,313.691,319.191,324.691,330.191,333.854,339.354,344.854,349.133,351.883,353.344,357.623,363.123,368.623,371.681,377.181,385.739,388.489,389.946,394.225,399.725,402.783,408.283,413.783,418.667,421.725,426.609,429.359,430.815,435.699,441.199,446.699,449.449,450.909,455.793,459.456,462.514,467.398,471.061,473.811,475.268,481.384,484.442,487.5,491.163,496.047,499.105,502.163,507.663,513.163,515.913" svgx:width="0.44,0.5,0.5,0.5,0.5,0.33,0.5,0.5,0.39,0.25,0.55,0.39,0.5,0.5,0.28,0.5,0.78,0.25,0.55,0.39,0.5,0.28,0.5,0.5,0.44,0.28,0.44,0.25,0.55,0.44,0.5,0.5,0.25,0.55,0.44,0.33,0.28,0.44,0.33,0.25,0.55,0.56,0.28,0.28,0.33,0.44,0.28,0.28,0.5,0.5,0.25,0.25" style="fill:rgb(23,22,21);font-family:TimesNewRomanPSMT;font-size:11.0px;stroke:none;">anhydrous sodium sulphate and after filtration, </text>
  </g>
  <g begin="text">
   <text y="134.691" x="303.307,307.586,310.644,316.144,319.807,324.691,330.191,332.204,337.088,340.146,342.159,348.363,353.863,358.263,365.6,367.613,373.113,378.613,381.671,384.729,387.787,389.8,392.858,397.742,402.021,405.079,409.963,415.463,417.476,422.36,427.86,433.36,435.373,440.257,445.757,450.641,453.699,459.199,463.478,468.362,473.862,476.612,478.625,485.346,488.404,493.904,498.788,501.846,507.346,512.846,515.904" svgx:width="0.39,0.28,0.5,0.33,0.44,0.5,0.25,0.44,0.28,0.25,0.56,0.5,0.4,0.67,0.25,0.5,0.5,0.28,0.28,0.28,0.25,0.28,0.44,0.39,0.28,0.44,0.5,0.25,0.44,0.5,0.5,0.25,0.44,0.5,0.44,0.28,0.5,0.39,0.44,0.5,0.25,0.25,0.61,0.28,0.5,0.44,0.28,0.5,0.5,0.28,0.25" style="fill:rgb(23,22,21);font-family:TimesNewRomanPSMT;font-size:11.0px;stroke:none;">stored at +4°C until tested and analysed. Linalool </text>
  </g>
  <g begin="text">
   <text y="147.691" x="303.307,306.97,312.47,317.97,321.633,324.691,327.749,333.249,335.999,341.499,346.999,356.162,359.825,362.575,370.517,375.401,379.68,382.43,387.93,393.43,397.093,401.977,407.477,412.361,416.64,421.524,427.024,429.774,433.437,437.1,442.6,451.158,453.294,461.236,464.294,469.794,473.457,476.515,481.399,486.899" svgx:width="0.33,0.5,0.5,0.33,0.28,0.28,0.5,0.25,0.5,0.5,0.83,0.33,0.25,0.72,0.44,0.39,0.25,0.5,0.5,0.33,0.44,0.5,0.44,0.39,0.44,0.5,0.25,0.33,0.33,0.5,0.78,0.25,0.72,0.28,0.5,0.33,0.28,0.44,0.5,0.25" style="fill:rgb(23,22,21);font-family:TimesNewRomanPSMT;font-size:11.0px;stroke:none;">(purity 97%) was purchased from Aldrich.</text>
  </g>
  <g begin="text">
   <text y="173.69" x="317.48,325.422,330.922,335.201,337.951,344.793,349.677,355.177,359.048,364.548,372.49,377.99,381.048,386.548,392.048,396.327,401.827,407.327,412.827,417.711,420.461,427.297,435.239,440.739,445.018,449.297,452.047,458.889,463.168,468.668,473.552,478.436,481.494,485.362,490.862,498.804,503.688,506.746,511.025,515.909" svgx:width="0.72,0.5,0.39,0.25,0.55,0.44,0.5,0.39,0.5,0.72,0.5,0.28,0.5,0.5,0.39,0.5,0.5,0.5,0.44,0.25,0.55,0.72,0.5,0.39,0.39,0.25,0.55,0.39,0.5,0.44,0.44,0.28,0.39,0.5,0.72,0.44,0.28,0.39,0.44,0.25" style="fill:rgb(23,22,21);font-family:TimesNewRomanPS-ItalicMT;font-size:11.0px;stroke:none;">Gas chromatography mass spectrometry </text>
  </g>
  <g begin="text">
   <text y="186.69" x="303.307,306.97,314.912,322.249,327.749,336.912,342.412" svgx:width="0.33,0.72,0.67,0.5,0.83,0.5,0.33" style="fill:rgb(23,22,21);font-family:TimesNewRomanPS-ItalicMT;font-size:11.0px;stroke:none;">(GC–MS)</text>
  </g>
  <g begin="text">
   <text y="199.69" x="317.48,324.201,329.701,334.585,337.335,338.341,343.225,348.725,357.283,362.783,368.283,372.562,375.62,378.678,381.728,387.228,392.728,395.478,396.49,401.99,405.653,408.403,409.415,412.473,417.973,422.857,425.607,426.612,432.112,437.612,440.67,445.554,448.612,451.671,454.729,459.613,462.363,463.36,468.244,473.744,479.244,483.523,486.581,489.639,492.697,498.197,503.081,508.581,511.639,515.918" svgx:width="0.61,0.5,0.44,0.25,0.55,0.44,0.5,0.78,0.5,0.5,0.39,0.28,0.28,0.28,0.5,0.5,0.25,0.55,0.5,0.33,0.25,0.55,0.28,0.5,0.44,0.25,0.55,0.5,0.5,0.28,0.44,0.28,0.28,0.28,0.44,0.25,0.55,0.44,0.5,0.5,0.39,0.28,0.28,0.28,0.5,0.44,0.5,0.28,0.39,0.25" style="fill:rgb(23,22,21);font-family:TimesNewRomanPSMT;font-size:11.0px;stroke:none;">The composition of the volatile constituents </text>
  </g>
  <g begin="text">
   <text y="212.689" x="303.307,311.249,316.133,320.412,323.162,324.988,329.872,334.151,337.209,342.093,347.593,350.651,353.709,357.988,363.488,368.372,373.872,376.622,378.443,383.943,389.443,392.193,394.019,401.961,409.298,412.961,422.74,428.856,431.914,437.414,442.914,447.798,453.298,456.961,462.461,467.961,471.019,475.903,478.653,480.479,485.979,490.863,493.921,498.805,503.689,506.747,512.247,515.91" svgx:width="0.72,0.44,0.39,0.25,0.55,0.44,0.39,0.28,0.44,0.5,0.28,0.28,0.39,0.5,0.44,0.5,0.25,0.55,0.5,0.5,0.25,0.55,0.72,0.67,0.33,0.89,0.56,0.28,0.5,0.5,0.44,0.5,0.33,0.5,0.5,0.28,0.44,0.25,0.55,0.5,0.44,0.28,0.44,0.44,0.28,0.5,0.33,0.25" style="fill:rgb(23,22,21);font-family:TimesNewRomanPSMT;font-size:11.0px;stroke:none;">was established by GC-MS/quadruple detector </text>
  </g>
  <g begin="text">
   <text y="225.689" x="303.307,308.191,313.691,318.575,321.633,327.133,331.412,336.296,340.575,343.325,346.185,351.685,355.964,359.022,364.522,370.022,372.772,375.632,380.516,383.266,386.126,392.242,397.742,400.8,409.358,414.242,419.742,424.626,430.126,432.876,435.731,443.673,449.384,452.134,454.994,460.494,465.994,471.494,476.994,479.744,482.604,486.883,492.383,496.662,499.72,504.604,513.162,515.912" svgx:width="0.44,0.5,0.44,0.28,0.5,0.39,0.44,0.39,0.25,0.55,0.5,0.39,0.28,0.5,0.5,0.25,0.55,0.44,0.25,0.55,0.56,0.5,0.28,0.78,0.44,0.5,0.44,0.5,0.25,0.55,0.72,0.56,0.25,0.55,0.5,0.5,0.5,0.5,0.25,0.55,0.39,0.5,0.39,0.28,0.44,0.78,0.25,0.25" style="fill:rgb(23,22,21);font-family:TimesNewRomanPSMT;font-size:11.0px;stroke:none;">analyses using a Shimadzu QP 5050 system, </text>
  </g>
  <g begin="text">
   <text y="238.689" x="303.307,308.191,313.691,319.191,322.249,327.749,333.249,338.133,343.633,346.988,354.93,357.988,361.046,366.546,369.906,374.79,378.148,383.032,388.532,393.416,401.974,405.032,409.916,414.8,417.858,420.916,426.416,429.762,435.262,440.762,446.262,451.762,456.646,462.146,465.506,469.169,474.669,478.948,483.832,489.332,492.692,496.971,500.029,503.087,506.145,511.029,515.913" svgx:width="0.44,0.5,0.5,0.28,0.5,0.5,0.44,0.5,0.25,0.72,0.28,0.28,0.5,0.25,0.44,0.25,0.44,0.5,0.44,0.78,0.28,0.44,0.44,0.28,0.28,0.5,0.25,0.5,0.5,0.5,0.5,0.44,0.5,0.25,0.33,0.5,0.39,0.44,0.5,0.25,0.39,0.28,0.28,0.28,0.44,0.44,0.25" style="fill:rgb(23,22,21);font-family:TimesNewRomanPSMT;font-size:11.0px;stroke:none;">equipped with a chemically bonded fused silica </text>
  </g>
  <g begin="text">
   <text y="251.689" x="303.307,308.191,313.691,316.749,322.249,330.807,336.307,339.057,341.908,349.245,354.745,357.495,360.153,369.316,377.258,385.2,387.95,390.81,396.31,401.81,404.56,407.42,414.757,422.094,424.844,427.704,431.367,436.867,442.367,445.117,447.977,456.535,459.285,462.139,468.343,471.093,473.953,479.453,482.203,487.703,493.203,495.953,498.813,507.371,515.929" svgx:width="0.44,0.5,0.28,0.5,0.78,0.5,0.25,0.55,0.67,0.5,0.25,0.55,0.94,0.72,0.72,0.25,0.55,0.5,0.5,0.25,0.55,0.67,0.67,0.25,0.55,0.33,0.5,0.5,0.25,0.55,0.78,0.25,0.55,0.56,0.25,0.55,0.5,0.25,0.5,0.5,0.25,0.55,0.78,0.78,0.25" style="fill:rgb(23,22,21);font-family:TimesNewRomanPSMT;font-size:11.0px;stroke:none;">column Cp WAX 52 CB (50 m × 0.32 mm </text>
  </g>
  <g begin="text">
   <text y="264.688" x="303.307,306.365,311.865,314.923,319.807,323.47,328.97,333.854,336.912,339.662,341.771,347.271,350.329,355.213,363.771,368.655,371.713,376.597,379.809,382.559,385.309,387.427,392.927,395.677,401.177,403.927,406.045,412.381,420.939,423.689,425.808,431.924,434.982,443.54,446.29,448.405,451.463,456.963,460.021,464.905,470.405,475.905,480.789,485.068,489.347,493.01,495.76,498.51,500.625,508.567,515.904" svgx:width="0.28,0.5,0.28,0.44,0.33,0.5,0.44,0.28,0.25,0.55,0.5,0.28,0.44,0.78,0.44,0.28,0.44,0.33,0.25,0.25,0.55,0.5,0.25,0.5,0.25,0.55,0.58,0.78,0.25,0.55,0.56,0.28,0.78,0.25,0.55,0.28,0.5,0.28,0.44,0.5,0.5,0.44,0.39,0.39,0.33,0.25,0.25,0.55,0.72,0.67,0.25" style="fill:rgb(23,22,21);font-family:TimesNewRomanPSMT;font-size:11.0px;stroke:none;">internal diameter, 1.2 µm film thickness). GC </text>
  </g>
  <g begin="text">
   <text y="277.688" x="303.307,308.191,313.691,318.575,321.633,327.133,331.412,334.47,338.749,341.499,345.833,353.775,358.659,362.938,365.688,370.022,374.906,383.464,388.964,392.022,397.522,403.022,407.906,413.406,416.156,420.482,425.982,431.482,436.982,441.866,445.529,448.279,452.613,455.672,461.172,466.056,468.806,473.14,476.803,482.303,485.361,488.419,493.919,501.861,504.919,510.419,515.919" svgx:width="0.44,0.5,0.44,0.28,0.5,0.39,0.28,0.39,0.25,0.55,0.72,0.44,0.39,0.25,0.55,0.44,0.78,0.5,0.28,0.5,0.5,0.44,0.5,0.25,0.55,0.5,0.5,0.5,0.44,0.33,0.25,0.55,0.28,0.5,0.44,0.25,0.55,0.33,0.5,0.28,0.28,0.5,0.72,0.28,0.5,0.5,0.25" style="fill:rgb(23,22,21);font-family:TimesNewRomanPSMT;font-size:11.0px;stroke:none;">analysis was employed under the following </text>
  </g>
  <g begin="text">
   <text y="290.688" x="303.307,308.191,313.691,319.191,324.691,327.749,330.807,333.865,339.365,344.865,349.144,352.202,354.952,359.417,363.08,368.58,371.638,376.522,381.406,384.464,389.964,393.627,396.377,400.843,403.901,408.785,417.343,422.843,427.727,431.39,436.274,439.332,444.832,448.495,453.379,456.129,460.591,468.533,473.417,477.696,480.446,484.923,490.423,495.923,501.423,505.823,513.16,515.91" svgx:width="0.44,0.5,0.5,0.5,0.28,0.28,0.28,0.5,0.5,0.39,0.28,0.25,0.55,0.33,0.5,0.28,0.44,0.44,0.28,0.5,0.33,0.25,0.55,0.28,0.44,0.78,0.5,0.44,0.33,0.44,0.28,0.5,0.33,0.44,0.25,0.55,0.72,0.44,0.39,0.25,0.55,0.5,0.5,0.5,0.4,0.67,0.25,0.25" style="fill:rgb(23,22,21);font-family:TimesNewRomanPSMT;font-size:11.0px;stroke:none;">conditions: Injector temperature was 240°C. </text>
  </g>
  <g begin="text">
   <text y="303.687" x="303.307,311.249,316.133,319.191,324.075,328.959,332.017,337.517,341.18,343.93,352.62,355.678,360.562,369.12,374.62,379.504,383.167,388.051,391.109,396.609,400.272,405.156,407.906,416.587,424.529,429.413,433.692,436.442,445.132,450.632,456.132,461.632,464.382,473.072,477.472,484.809,487.559,490.309,498.802,505.523,511.023,515.907" svgx:width="0.72,0.44,0.28,0.44,0.44,0.28,0.5,0.33,0.25,0.55,0.28,0.44,0.78,0.5,0.44,0.33,0.44,0.28,0.5,0.33,0.44,0.25,0.55,0.72,0.44,0.39,0.25,0.55,0.5,0.5,0.5,0.25,0.55,0.4,0.67,0.25,0.25,0.55,0.61,0.5,0.44,0.25" style="fill:rgb(23,22,21);font-family:TimesNewRomanPSMT;font-size:11.0px;stroke:none;">Detector temperature was 250 °C. The </text>
  </g>
  <g begin="text">
   <text y="316.687" x="303.307,306.365,311.249,319.807,325.307,330.191,333.854,338.738,341.796,347.296,350.959,355.843,358.593,360.571,366.071,369.734,375.234,380.734,384.397,389.281,397.839,400.589,402.58,406.243,411.743,415.406,418.156,420.147,423.205,428.705,433.589,436.339,438.33,445.667,451.167,453.917,455.708,464.871,472.813,480.755,483.505,485.496,490.996,496.496,499.246,501.237,508.574,515.911" svgx:width="0.28,0.44,0.78,0.5,0.44,0.33,0.44,0.28,0.5,0.33,0.44,0.25,0.55,0.5,0.33,0.5,0.5,0.33,0.44,0.78,0.25,0.55,0.33,0.5,0.33,0.25,0.55,0.28,0.5,0.44,0.25,0.55,0.67,0.5,0.25,0.55,0.94,0.72,0.72,0.25,0.55,0.5,0.5,0.25,0.55,0.67,0.67,0.25" style="fill:rgb(23,22,21);font-family:TimesNewRomanPSMT;font-size:11.0px;stroke:none;">temperature program for the Cp WAX 52 CB </text>
  </g>
  <g begin="text">
   <text y="329.687" x="303.307,308.191,313.691,316.749,322.249,330.807,336.307,339.057,340.223,348.165,353.049,357.328,360.078,361.244,364.907,368.57,374.07,382.628,385.378,386.544,392.044,397.544,400.294,401.46,405.86,413.197,415.947,417.113,420.171,425.671,428.421,429.587,435.087,440.587,446.087,448.837,450.003,454.403,461.74,464.49,465.656,470.54,473.598,476.348,477.514,482.398,485.148,486.314,489.977,494.861,497.919,502.803,505.553,506.719,512.219,515.882" svgx:width="0.44,0.5,0.28,0.5,0.78,0.5,0.25,0.55,0.72,0.44,0.39,0.25,0.55,0.33,0.33,0.5,0.78,0.25,0.55,0.5,0.5,0.25,0.55,0.4,0.67,0.25,0.55,0.28,0.5,0.25,0.55,0.5,0.5,0.5,0.25,0.55,0.4,0.67,0.25,0.55,0.44,0.28,0.25,0.55,0.44,0.25,0.55,0.33,0.44,0.28,0.44,0.25,0.55,0.5,0.33,0.25" style="fill:rgb(23,22,21);font-family:TimesNewRomanPSMT;font-size:11.0px;stroke:none;">column was from 60 °C to 220 °C at a rate of </text>
  </g>
  <g begin="text">
   <text y="342.686" x="303.307,308.807,311.557,312.965,317.365,324.702,327.76,336.318,339.376,344.876,347.626,349.034,353.918,359.418,364.918,367.668,369.076,372.134,377.634,382.518,388.018,390.768,392.176,397.676,402.56,405.618,411.118,413.868,415.276,420.16,423.218,425.968,427.376,432.876,438.376,443.876,446.626,448.034,452.434,459.771,462.521,463.929,467.592,473.092,476.755,479.505,480.913,486.413,491.913,494.663,496.071,504.629,507.687,513.187,515.937" svgx:width="0.5,0.25,0.55,0.4,0.67,0.28,0.78,0.28,0.5,0.25,0.55,0.44,0.5,0.5,0.25,0.55,0.28,0.5,0.44,0.5,0.25,0.55,0.5,0.44,0.28,0.5,0.25,0.55,0.44,0.28,0.25,0.55,0.5,0.5,0.5,0.25,0.55,0.4,0.67,0.25,0.55,0.33,0.5,0.33,0.25,0.55,0.5,0.5,0.25,0.55,0.78,0.28,0.5,0.25,0.25" style="fill:rgb(23,22,21);font-family:TimesNewRomanPSMT;font-size:11.0px;stroke:none;">2 °C/min and than held at 220 °C for 20 min. </text>
  </g>
  <g begin="text">
   <text y="355.686" x="303.307,311.249,316.133,319.191,322.249,327.749,336.307,339.057,340.456,348.398,353.282,357.561,360.311,361.719,367.219,371.498,376.382,381.882,384.632,386.037,390.921,395.2,397.95,399.355,404.239,406.989,408.392,413.276,418.16,421.823,425.486,428.544,433.428,437.091,439.841,441.239,446.739,451.623,455.902,458.652,460.058,464.942,468.0,470.75,472.152,477.036,479.786,481.189,487.305,492.805,500.747,503.497,504.905,510.405,515.905" svgx:width="0.72,0.44,0.28,0.28,0.5,0.78,0.25,0.55,0.72,0.44,0.39,0.25,0.55,0.5,0.39,0.44,0.5,0.25,0.55,0.44,0.39,0.25,0.55,0.44,0.25,0.55,0.44,0.44,0.33,0.33,0.28,0.44,0.33,0.25,0.55,0.5,0.44,0.39,0.25,0.55,0.44,0.28,0.25,0.55,0.44,0.25,0.55,0.56,0.5,0.72,0.25,0.55,0.5,0.5,0.25" style="fill:rgb(23,22,21);font-family:TimesNewRomanPSMT;font-size:11.0px;stroke:none;">Helium was used as a carrier gas at a flow 10 </text>
  </g>
  <g begin="text">
   <text y="368.686" x="303.307,308.807,313.086,316.144,318.894,321.116,326.0,331.5,337.0,339.75,341.972,345.03,350.53,353.588,358.472,363.356,366.414,369.472,374.972,380.472,383.222,385.435,390.935,396.435,399.493,404.993,413.551,418.435,421.185,423.407,428.907,432.57,435.32,437.542,442.426,447.31,452.194,457.694,460.444,462.666,466.945,471.829,480.387,485.887,488.945,493.829,496.579,498.801,506.743,511.627,515.906" svgx:width="0.5,0.39,0.28,0.25,0.55,0.44,0.5,0.5,0.25,0.55,0.28,0.5,0.28,0.44,0.44,0.28,0.28,0.5,0.5,0.25,0.55,0.5,0.5,0.28,0.5,0.78,0.44,0.25,0.55,0.5,0.33,0.25,0.55,0.44,0.44,0.44,0.5,0.25,0.55,0.39,0.44,0.78,0.5,0.28,0.44,0.25,0.55,0.72,0.44,0.39,0.25" style="fill:rgb(23,22,21);font-family:TimesNewRomanPSMT;font-size:11.0px;stroke:none;">psi and injection volume of each sample was </text>
  </g>
  <g begin="text">
   <text y="381.685" x="303.307,308.807,311.557,314.769,323.327,330.048,332.798,335.548,338.751,343.03,348.53,351.588,354.646,357.704,360.454,363.658,367.321,372.205,375.263,378.321,383.821,386.571,389.773,393.436,398.936,401.994,407.494,412.994,416.657,419.407,422.157,425.163,431.884,437.384,442.268,445.018,448.223,458.002,464.118,466.868,470.08,474.964,480.464,485.964,491.464,494.522,497.581,500.639,506.139,511.639,515.918" svgx:width="0.5,0.25,0.55,0.78,0.61,0.25,0.25,0.55,0.39,0.5,0.28,0.28,0.28,0.25,0.55,0.33,0.44,0.28,0.28,0.5,0.25,0.55,0.33,0.5,0.28,0.5,0.5,0.33,0.25,0.25,0.55,0.61,0.5,0.44,0.25,0.55,0.89,0.56,0.25,0.55,0.44,0.5,0.5,0.5,0.28,0.28,0.28,0.5,0.5,0.39,0.25" style="fill:rgb(23,22,21);font-family:TimesNewRomanPSMT;font-size:11.0px;stroke:none;">1 mL, split ratio (1:20). The MS conditions </text>
  </g>
  <g begin="text">
   <text y="394.685" x="303.307,311.249,316.133,319.796,324.68,327.738,330.488,333.931,336.989,342.489,347.989,351.047,355.931,360.815,363.873,366.931,372.422,377.922,380.672,384.115,388.999,394.499,399.383,402.844,408.344,413.13,415.88,418.63,422.073,427.573,433.073,435.823,439.266,444.15,451.276,454.334,457.084,460.527,469.085,473.969,478.248,482.527,485.277,488.72,492.383,497.267,502.767,508.267,513.151,515.901" svgx:width="0.72,0.44,0.33,0.44,0.28,0.25,0.55,0.28,0.5,0.5,0.28,0.44,0.44,0.28,0.28,0.5,0.5,0.25,0.55,0.44,0.5,0.44,0.33,0.5,0.5,0.25,0.25,0.55,0.5,0.5,0.25,0.55,0.44,0.72,0.28,0.25,0.55,0.78,0.44,0.39,0.39,0.25,0.55,0.33,0.44,0.5,0.5,0.44,0.25,0.25" style="fill:rgb(23,22,21);font-family:TimesNewRomanPSMT;font-size:11.0px;stroke:none;">were: ionization energy, 70 eV; mass range, </text>
  </g>
  <g begin="text">
   <text y="407.685" x="303.307,308.807,314.307,319.807,325.307,330.807,336.307,339.057,341.84,346.724,355.282,360.782,363.84,366.59,369.373,373.652,378.536,383.42,388.92,391.67,394.453,403.011,408.511,414.011,418.895,421.645,424.395,427.178,433.899,437.562,440.312,443.062,445.645,452.366,457.866,462.75,465.5,468.283,473.783,478.667,482.33,487.214,492.098,497.598,500.656,505.54,511.04,515.924" svgx:width="0.5,0.5,0.5,0.5,0.5,0.5,0.25,0.55,0.44,0.78,0.5,0.28,0.25,0.55,0.39,0.44,0.44,0.5,0.25,0.55,0.78,0.5,0.5,0.44,0.25,0.25,0.55,0.61,0.33,0.25,0.25,0.55,0.61,0.5,0.44,0.25,0.55,0.5,0.44,0.33,0.44,0.44,0.5,0.28,0.44,0.5,0.44,0.25" style="fill:rgb(23,22,21);font-family:TimesNewRomanPSMT;font-size:11.0px;stroke:none;">40–400 amu; scan mode, EI. The percentage </text>
  </g>
  <g begin="text">
   <text y="420.684" x="303.307,308.191,313.691,322.249,327.749,333.249,337.528,340.586,343.644,346.702,352.202,357.702,360.452,362.171,370.113,374.997,379.276,382.026,383.753,388.637,394.137,402.695,408.195,413.695,416.753,421.637,427.137,429.887,431.607,435.27,438.933,444.433,452.991,455.741,457.468,460.526,466.026,470.91,473.66,475.387,483.329,490.666,493.416,495.143,500.643,505.527,510.411,515.911" svgx:width="0.44,0.5,0.78,0.5,0.5,0.39,0.28,0.28,0.28,0.5,0.5,0.25,0.55,0.72,0.44,0.39,0.25,0.55,0.44,0.5,0.78,0.5,0.5,0.28,0.44,0.5,0.25,0.55,0.33,0.33,0.5,0.78,0.25,0.55,0.28,0.5,0.44,0.25,0.55,0.72,0.67,0.25,0.55,0.5,0.44,0.44,0.5,0.25" style="fill:rgb(23,22,21);font-family:TimesNewRomanPSMT;font-size:11.0px;stroke:none;">composition was computed from the GC peak </text>
  </g>
  <g begin="text">
   <text y="433.684" x="303.307,308.191,311.854,316.738,321.622,325.901,328.651,331.294,336.178,341.062,345.946,351.446,355.109,360.609,363.667,369.167,374.667,377.417,380.063,383.121,388.621,391.371,394.015,397.073,402.573,407.457,410.207,412.85,418.35,423.85,429.35,438.513,441.263,443.914,452.472,457.356,460.414,465.914,471.414,476.914,479.664,482.305,490.247,493.305,496.363,501.863,507.363,512.863,515.921" svgx:width="0.44,0.33,0.44,0.44,0.39,0.25,0.55,0.44,0.44,0.44,0.5,0.33,0.5,0.28,0.5,0.5,0.25,0.55,0.28,0.5,0.25,0.55,0.28,0.5,0.44,0.25,0.55,0.5,0.5,0.5,0.83,0.25,0.55,0.78,0.44,0.28,0.5,0.5,0.5,0.25,0.55,0.72,0.28,0.28,0.5,0.5,0.5,0.28,0.25" style="fill:rgb(23,22,21);font-family:TimesNewRomanPSMT;font-size:11.0px;stroke:none;">areas according to the 100% method without </text>
  </g>
  <g begin="text">
   <text y="446.684" x="303.307,308.807,313.086,316.144,321.644,327.144,329.894,331.278,336.162,341.662,347.162,349.912,351.296,356.18,361.68,365.343,369.006,373.89,378.774,381.832,384.89,390.39,395.89,398.64,400.016,403.679,408.563,413.447,416.505,422.005,425.668,429.947,432.697,435.447,436.628,443.349,448.849,453.733,456.483,457.864,460.922,466.422,471.306,476.806,479.864,482.922,489.038,493.922,498.806,501.864,504.922,510.422,515.922" svgx:width="0.5,0.39,0.28,0.5,0.5,0.25,0.55,0.44,0.5,0.5,0.25,0.55,0.44,0.5,0.33,0.33,0.44,0.44,0.28,0.28,0.5,0.5,0.25,0.55,0.33,0.44,0.44,0.28,0.5,0.33,0.39,0.25,0.25,0.55,0.61,0.5,0.44,0.25,0.55,0.28,0.5,0.44,0.5,0.28,0.28,0.56,0.44,0.44,0.28,0.28,0.5,0.5,0.25" style="fill:rgb(23,22,21);font-family:TimesNewRomanPSMT;font-size:11.0px;stroke:none;">using any correction factors. The identification </text>
  </g>
  <g begin="text">
   <text y="459.683" x="303.307,308.807,312.47,315.176,318.234,323.734,328.618,331.319,336.203,341.703,350.261,355.761,361.261,366.761,371.639,377.139,380.197,384.476,387.182,395.124,400.008,404.287,406.993,412.493,417.377,421.656,426.54,432.04,434.746,440.246,445.746,448.452,451.51,457.01,461.894,464.595,469.479,474.979,483.537,489.037,493.921,497.584,500.642,504.921,510.421,515.921" svgx:width="0.5,0.33,0.25,0.28,0.5,0.44,0.25,0.44,0.5,0.78,0.5,0.5,0.5,0.44,0.5,0.28,0.39,0.25,0.72,0.44,0.39,0.25,0.5,0.44,0.39,0.44,0.5,0.25,0.5,0.5,0.25,0.28,0.5,0.44,0.25,0.44,0.5,0.78,0.5,0.44,0.33,0.28,0.39,0.5,0.5,0.25" style="fill:rgb(23,22,21);font-family:TimesNewRomanPSMT;font-size:11.0px;stroke:none;">of the components was based on the comparison </text>
  </g>
  <g begin="text">
   <text y="472.683" x="303.307,308.807,313.691,316.749,324.691,329.575,334.459,339.959,342.709,343.974,347.032,352.532,357.416,360.474,364.137,366.887,368.153,376.711,381.595,385.874,390.153,392.903,394.174,398.453,403.953,408.837,413.721,416.779,420.442,425.326,428.076,429.342,434.226,439.726,445.226,447.976,449.246,452.304,457.804,463.304,467.583,472.467,475.217,476.487,481.987,485.65,488.4,489.471,499.413,502.471,505.529,510.413,515.913" svgx:width="0.5,0.44,0.28,0.72,0.44,0.44,0.5,0.25,0.55,0.28,0.5,0.44,0.28,0.33,0.25,0.55,0.78,0.44,0.39,0.39,0.25,0.55,0.39,0.5,0.44,0.44,0.28,0.33,0.44,0.25,0.55,0.44,0.5,0.5,0.25,0.55,0.28,0.5,0.5,0.39,0.44,0.25,0.55,0.5,0.33,0.25,0.55,0.94,0.28,0.28,0.44,0.5,0.25" style="fill:rgb(23,22,21);font-family:TimesNewRomanPSMT;font-size:11.0px;stroke:none;">between their mass spectra and those of Wiley </text>
  </g>
  <g begin="text">
   <text y="485.683" x="303.307,308.191,313.691,319.191,321.941,329.883,332.941,337.22,340.278,343.028,345.578,351.911,357.411,360.469,365.969,369.632,374.516,377.266,383.987,387.045,392.545,396.208,401.092,404.755,407.813,412.697,416.976,419.726" svgx:width="0.44,0.5,0.5,0.25,0.72,0.28,0.39,0.28,0.25,0.25,0.61,0.5,0.28,0.5,0.33,0.44,0.25,0.61,0.28,0.5,0.33,0.44,0.33,0.28,0.44,0.39,0.25,0.25" style="fill:rgb(23,22,21);font-family:TimesNewRomanPSMT;font-size:11.0px;stroke:none;">and Nist, Tutore Libraries. </text>
  </g>
  <g begin="text">
   <text y="498.682" x="317.48,324.201,329.701,334.585,337.209,342.093,347.593,356.151,361.651,367.151,372.651,377.535,383.035,386.093,390.372,392.999,400.941,405.825,409.488,414.372,416.996,420.054,425.554,430.438,435.938,438.996,442.054,448.17,453.054,458.554,461.173,466.673,471.557,475.836,480.72,486.22,488.846,494.346,499.846,502.473,505.531,511.031,515.915" svgx:width="0.61,0.5,0.44,0.25,0.44,0.5,0.78,0.5,0.5,0.5,0.44,0.5,0.28,0.39,0.25,0.72,0.44,0.33,0.44,0.25,0.28,0.5,0.44,0.5,0.28,0.28,0.56,0.44,0.5,0.25,0.5,0.44,0.39,0.44,0.5,0.25,0.5,0.5,0.25,0.28,0.5,0.44,0.25" style="fill:rgb(23,22,21);font-family:TimesNewRomanPSMT;font-size:11.0px;stroke:none;">The components were identified based on the </text>
  </g>
  <g begin="text">
   <text y="511.682" x="303.307,308.191,313.691,322.249,327.749,332.633,336.296,339.354,343.633,349.133,354.633,357.197,362.697,367.581,370.639,378.581,383.465,388.349,393.849,396.414,399.472,404.972,409.856,412.914,416.577,419.142,422.805,427.689,430.747,435.631,438.689,441.747,447.247,452.131,454.689,458.352,463.236,466.294,471.178,476.678,479.736,482.794,488.294,493.794,496.355,499.413,502.471,511.029,515.913" svgx:width="0.44,0.5,0.78,0.5,0.44,0.33,0.28,0.39,0.5,0.5,0.25,0.5,0.44,0.28,0.72,0.44,0.44,0.5,0.25,0.28,0.5,0.44,0.28,0.33,0.25,0.33,0.44,0.28,0.44,0.28,0.28,0.5,0.44,0.25,0.33,0.44,0.28,0.44,0.5,0.28,0.28,0.5,0.5,0.25,0.28,0.28,0.78,0.44,0.25" style="fill:rgb(23,22,21);font-family:TimesNewRomanPSMT;font-size:11.0px;stroke:none;">comparison between their relative retention time </text>
  </g>
  <g begin="text">
   <text y="524.682" x="303.307,308.191,312.47,315.979,323.921,328.805,331.863,334.921,339.2,342.709,347.593,351.872,355.381,363.939,368.823,373.102,377.381,380.898,385.177,390.677,395.561,400.445,403.503,407.166,412.05,415.559,420.443,425.943,431.443,434.952,438.01,443.51,449.01,453.289,458.173,461.682,467.182,470.845,474.354,478.633,481.691,486.575,492.075,497.575,502.459,506.122,511.622,515.901" svgx:width="0.44,0.39,0.25,0.72,0.44,0.28,0.28,0.39,0.25,0.44,0.39,0.25,0.78,0.44,0.39,0.39,0.25,0.39,0.5,0.44,0.44,0.28,0.33,0.44,0.25,0.44,0.5,0.5,0.25,0.28,0.5,0.5,0.39,0.44,0.25,0.5,0.33,0.25,0.39,0.28,0.44,0.5,0.5,0.44,0.33,0.5,0.39,0.25" style="fill:rgb(23,22,21);font-family:TimesNewRomanPSMT;font-size:11.0px;stroke:none;">as wells as mass spectra and those of standards </text>
  </g>
  <g begin="text">
   <text y="537.682" x="303.307,308.191,313.691,319.191,321.941,324.762,327.82,330.878,333.936,338.812,342.475,347.359,350.417,355.917,359.58,364.464,367.214,370.031,375.531,380.415,383.473,388.357,391.107,393.923,397.586,403.086,408.586,411.336,414.086,416.909,422.409,427.909,431.572" svgx:width="0.44,0.5,0.5,0.25,0.55,0.28,0.28,0.28,0.44,0.33,0.44,0.28,0.5,0.33,0.44,0.25,0.55,0.5,0.44,0.28,0.44,0.25,0.55,0.33,0.5,0.5,0.25,0.25,0.55,0.5,0.5,0.33,0.25" style="fill:rgb(23,22,21);font-family:TimesNewRomanPSMT;font-size:11.0px;stroke:none;">and literature data (19, 20).</text>
  </g>
  <g begin="text">
   <text y="534.019" x="434.321" svgx:width="0.25" style="fill:rgb(23,22,21);font-family:TimesNewRomanPSMT;font-size:6.41px;stroke:none;"> </text>
  </g>
  <g begin="text">
   <text y="537.682" x="437.57,444.291,449.791,454.675,457.425,460.245,463.908,468.792,473.071,478.571,481.629,484.687,488.966,491.716,494.536,502.478,507.362,511.025,515.909" svgx:width="0.61,0.5,0.44,0.25,0.55,0.33,0.44,0.39,0.5,0.28,0.28,0.39,0.25,0.55,0.72,0.44,0.33,0.44,0.25" style="fill:rgb(23,22,21);font-family:TimesNewRomanPSMT;font-size:11.0px;stroke:none;">The results were </text>
  </g>
  <g begin="text">
   <text y="550.681" x="303.307,308.191,311.249,315.528,321.028,323.778,328.6,333.484,338.984,344.484,350.6,354.263,362.822,367.706,373.206,375.956,380.78,386.28,391.78,394.53,399.354,402.412,407.912,412.796,415.546,420.367,425.251,430.751,439.309,444.809,449.693,453.356,456.414,460.693,466.193,471.693,474.443,479.262,484.762,489.646,492.704,500.646,505.53,510.414,515.914" svgx:width="0.44,0.28,0.39,0.5,0.25,0.55,0.44,0.5,0.5,0.56,0.33,0.78,0.44,0.5,0.25,0.55,0.5,0.5,0.25,0.55,0.28,0.5,0.44,0.25,0.55,0.44,0.5,0.78,0.5,0.44,0.33,0.28,0.39,0.5,0.5,0.25,0.55,0.5,0.44,0.28,0.72,0.44,0.44,0.5,0.25" style="fill:rgb(23,22,21);font-family:TimesNewRomanPSMT;font-size:11.0px;stroke:none;">also confirmed by the comparison between </text>
  </g>
  <g begin="text">
   <text y="563.681" x="303.307,306.365,311.865,316.749,319.499,321.023,325.907,331.407,339.965,345.465,350.965,356.465,361.965,367.465,371.744,374.494,376.023,380.907,383.965,389.465,392.523,395.581,401.081,406.581,409.331,410.85,416.35,420.013,425.513,430.397,434.06,436.81,438.339,443.223,448.723,454.223,456.973,458.502,461.56,467.06,471.944,475.002,478.665,481.415,482.936,486.599,491.483,494.541,499.425,502.483,505.541,511.041,515.925" svgx:width="0.28,0.5,0.44,0.25,0.55,0.44,0.5,0.78,0.5,0.5,0.5,0.5,0.5,0.39,0.25,0.55,0.44,0.28,0.5,0.28,0.28,0.5,0.5,0.25,0.55,0.5,0.33,0.5,0.44,0.33,0.25,0.55,0.44,0.5,0.5,0.25,0.55,0.28,0.5,0.44,0.28,0.33,0.25,0.55,0.33,0.44,0.28,0.44,0.28,0.28,0.5,0.44,0.25" style="fill:rgb(23,22,21);font-family:TimesNewRomanPSMT;font-size:11.0px;stroke:none;">the compounds elution order and their relative </text>
  </g>
  <g begin="text">
   <text y="576.681" x="303.307,306.97,311.854,314.912,319.796,325.296,328.354,331.412,336.912,342.412,345.162,346.924,349.982,355.482,360.982,364.04,368.919,373.803,378.082,380.832,382.603,388.103,393.603,396.353,398.124,403.624,409.124,414.624,418.287,423.787,429.287,432.345,437.229,440.892,443.642,445.413,450.913,456.413,461.297,465.576,470.46,474.739,477.489,479.26,482.923,487.807,493.307,498.807,502.47,505.528,510.412,515.912" svgx:width="0.33,0.44,0.28,0.44,0.5,0.28,0.28,0.5,0.5,0.25,0.55,0.28,0.5,0.5,0.28,0.44,0.44,0.39,0.25,0.55,0.5,0.5,0.25,0.55,0.5,0.5,0.5,0.33,0.5,0.5,0.28,0.44,0.33,0.25,0.55,0.5,0.5,0.44,0.39,0.44,0.39,0.25,0.55,0.33,0.44,0.5,0.5,0.33,0.28,0.44,0.5,0.25" style="fill:rgb(23,22,21);font-family:TimesNewRomanPSMT;font-size:11.0px;stroke:none;">retention indices on non-polar phases reported </text>
  </g>
  <g begin="text">
   <text y="589.68" x="303.307,306.365,311.865,314.615,315.792,318.85,324.35,329.234,331.984,333.159,336.217,339.275,342.333,347.217,350.88,355.764,358.822,364.322,367.974,372.858,375.608,376.785,380.448,385.948,391.448,394.198,396.948,398.127,403.627,409.127,412.79,415.54,418.861,426.803,429.861,432.919,435.669,436.846,441.73,447.23,452.73,457.614,461.277,464.335,472.893,477.777,483.277,486.335,490.614,493.364,494.535,502.477,507.361,511.024,515.908" svgx:width="0.28,0.5,0.25,0.55,0.28,0.5,0.44,0.25,0.55,0.28,0.28,0.28,0.44,0.33,0.44,0.28,0.5,0.33,0.44,0.25,0.55,0.33,0.5,0.5,0.25,0.25,0.55,0.5,0.5,0.33,0.25,0.25,0.72,0.28,0.28,0.25,0.55,0.44,0.5,0.5,0.44,0.33,0.28,0.78,0.44,0.5,0.28,0.39,0.25,0.55,0.72,0.44,0.33,0.44,0.25" style="fill:rgb(23,22,21);font-family:TimesNewRomanPSMT;font-size:11.0px;stroke:none;">in the literature (19, 20). All experiments were </text>
  </g>
  <g begin="text">
   <text y="602.68" x="303.307,308.191,313.075,316.738,320.401,323.459,328.343,333.843,337.054,342.554,348.054,351.112,354.328,359.212,362.27,365.485,368.543,373.427,378.311,382.59,385.648,388.862,391.92,397.42,400.636,403.694,407.357,410.415,415.915,418.973,422.031,426.915,431.788,434.846,439.73,442.48,445.497,452.218,457.718,462.602,466.265,471.149,475.428,480.928,483.986,487.044,491.323,494.536,502.478,507.362,511.025,515.909" svgx:width="0.44,0.44,0.33,0.33,0.28,0.44,0.5,0.25,0.5,0.5,0.28,0.25,0.44,0.28,0.25,0.28,0.44,0.44,0.39,0.28,0.25,0.28,0.5,0.25,0.28,0.33,0.28,0.5,0.28,0.28,0.44,0.44,0.28,0.44,0.25,0.25,0.61,0.5,0.44,0.33,0.44,0.39,0.5,0.28,0.28,0.39,0.25,0.72,0.44,0.33,0.44,0.25" style="fill:rgb(23,22,21);font-family:TimesNewRomanPSMT;font-size:11.0px;stroke:none;">carried out at least in triplicate. Theresults were </text>
  </g>
  <g begin="text">
   <text y="615.68" x="303.307,306.97,311.854,317.354,322.854,326.517,329.575,334.459,339.959,342.709,347.593,351.872,354.622,363.18,368.064,372.948,378.448,381.198,386.698,391.582,394.64,400.14,405.024,409.303" svgx:width="0.33,0.44,0.5,0.5,0.33,0.28,0.44,0.5,0.25,0.44,0.39,0.25,0.78,0.44,0.44,0.5,0.25,0.5,0.44,0.28,0.5,0.44,0.39,0.25" style="fill:rgb(23,22,21);font-family:TimesNewRomanPSMT;font-size:11.0px;stroke:none;">reported as mean values.</text>
  </g>
  <g begin="text">
   <text y="641.679" x="317.48,324.201,329.701,332.759,335.817,341.317,346.201,349.259,354.759,360.259,365.759,368.817,371.358,378.079,382.963,386.021,389.079,393.963,397.021,400.079" svgx:width="0.61,0.5,0.28,0.28,0.5,0.44,0.28,0.5,0.5,0.5,0.28,0.25,0.61,0.44,0.28,0.28,0.44,0.28,0.28,0.44" style="fill:rgb(23,22,21);font-family:TimesNewRomanPS-ItalicMT;font-size:11.0px;stroke:none;">Antioxidant Activity</text>
  </g>
  <g begin="text">
   <text y="654.679" x="317.48,325.422,332.143,338.864,346.806,349.556,355.056,359.335,363.614,369.114" svgx:width="0.72,0.61,0.61,0.72,0.25,0.5,0.39,0.39,0.5,0.44" style="fill:rgb(23,22,21);font-family:TimesNewRomanPS-ItalicMT;font-size:11.0px;stroke:none;">DPPH assay</text>
  </g>
  <g begin="text">
   <text y="667.678" x="317.48,324.201,329.701,334.585,337.335,339.81,345.31,350.81,356.31,359.973,365.473,370.973,375.857,381.357,384.107,386.582,391.466,394.524,400.024,408.582,412.861,415.611,418.086,423.586,427.249,429.999,432.474,437.358,440.416,445.3,450.178,453.236,456.899,462.399,467.899,472.178,474.928,477.403,482.903,488.403,493.903,498.787,501.845,504.903,510.403,515.903" svgx:width="0.61,0.5,0.44,0.25,0.55,0.5,0.5,0.5,0.33,0.5,0.5,0.44,0.5,0.25,0.55,0.44,0.28,0.5,0.78,0.39,0.25,0.55,0.5,0.33,0.25,0.55,0.44,0.28,0.44,0.44,0.28,0.33,0.5,0.5,0.39,0.25,0.55,0.5,0.5,0.5,0.44,0.28,0.28,0.5,0.5,0.25" style="fill:rgb(23,22,21);font-family:TimesNewRomanPSMT;font-size:11.0px;stroke:none;">The hydrogen atoms or electrons donation </text>
  </g>
  <g begin="text">
   <text y="680.678" x="303.307,308.191,313.691,316.749,319.807,322.865,325.923,331.423,334.173,338.743,344.243,347.906,350.656,355.232,358.29,363.79,368.674,371.424,376.0,380.884,386.384,390.047,393.71,398.594,402.873,408.373,413.873,419.373,424.873,427.931,433.431,438.931,441.681,446.257,451.757,454.815,457.873,462.152,464.902,469.478,474.362,479.862,485.362,488.112,492.688,496.967,502.467,511.025,515.909" svgx:width="0.44,0.5,0.28,0.28,0.28,0.28,0.5,0.25,0.55,0.5,0.33,0.25,0.55,0.28,0.5,0.44,0.25,0.55,0.44,0.5,0.33,0.33,0.44,0.39,0.5,0.5,0.5,0.5,0.28,0.5,0.5,0.25,0.55,0.5,0.28,0.28,0.39,0.25,0.55,0.44,0.5,0.5,0.25,0.55,0.39,0.5,0.78,0.44,0.25" style="fill:rgb(23,22,21);font-family:TimesNewRomanPSMT;font-size:11.0px;stroke:none;">ability of the corresponding oils and some </text>
  </g>
  <g begin="text">
   <text y="693.678" x="303.307,308.807,314.307,317.97,322.854,325.604,331.654,336.538,342.038,350.596,356.096,361.596,367.096,372.596,378.096,382.375,385.125,391.175,399.117,404.001,407.664,412.548,415.298,421.348,429.906,434.79,439.674,443.953,449.453,453.116,458.0,463.5,466.25,472.295,475.958,479.621,485.121,493.679,496.429,502.479,505.537,511.037,515.921" svgx:width="0.5,0.5,0.33,0.44,0.25,0.55,0.44,0.5,0.78,0.5,0.5,0.5,0.5,0.5,0.39,0.25,0.55,0.72,0.44,0.33,0.44,0.25,0.55,0.78,0.44,0.44,0.39,0.5,0.33,0.44,0.5,0.25,0.55,0.33,0.33,0.5,0.78,0.25,0.55,0.28,0.5,0.44,0.25" style="fill:rgb(23,22,21);font-family:TimesNewRomanPSMT;font-size:11.0px;stroke:none;">pure compounds were measured from the </text>
  </g>
  <g begin="text">
   <text y="706.677" x="303.307,308.807,311.865,316.749,321.633,326.517,332.017,335.075,340.575,346.075,349.608,355.108,358.771,362.313,367.813,373.313,376.976,382.476,385.534,390.418,393.96,398.844,404.344,407.402,412.902,418.402,422.065,426.949,432.449,435.986,444.544,449.428,452.486,457.986,462.87,468.37,473.87,476.928,480.46,484.739,490.239,493.297,498.797,501.855,504.913,510.413,515.913" svgx:width="0.5,0.28,0.44,0.44,0.44,0.5,0.28,0.5,0.5,0.25,0.5,0.33,0.25,0.5,0.5,0.33,0.5,0.28,0.44,0.25,0.44,0.5,0.28,0.5,0.5,0.33,0.44,0.5,0.25,0.78,0.44,0.28,0.5,0.44,0.5,0.5,0.28,0.25,0.39,0.5,0.28,0.5,0.28,0.28,0.5,0.5,0.25" style="fill:rgb(23,22,21);font-family:TimesNewRomanPSMT;font-size:11.0px;stroke:none;">bleaching of purple coloured methanol solution </text>
  </g>
  <g begin="text">
   <text y="719.677" x="303.307,308.807,312.47,315.22,328.651,334.151,336.901,342.401,346.064,351.564,354.622,360.122,365.622,370.506,376.006,381.506,384.564,388.227,393.727,397.39,402.89,405.948,410.832,414.495,419.995,423.053,428.553,434.053,439.553,443.216,448.1,452.984,458.484,461.542,464.292,477.708,481.371,489.313,495.429,501.545,509.487,513.15,515.9" svgx:width="0.5,0.33,0.25,0.55,0.5,0.25,0.5,0.33,0.5,0.28,0.5,0.5,0.44,0.5,0.5,0.28,0.33,0.5,0.33,0.5,0.28,0.44,0.33,0.5,0.28,0.5,0.5,0.5,0.33,0.44,0.44,0.5,0.28,0.25,0.55,0.33,0.72,0.56,0.56,0.72,0.33,0.25,0.25" style="fill:rgb(23,22,21);font-family:TimesNewRomanPSMT;font-size:11.0px;stroke:none;">of 2,2-diphenyl-1-picrylhydrazyl (DPPH). </text>
  </g>
  <g begin="text">
   <text y="732.677" x="303.307,310.028,315.528,318.586,322.865,325.615,332.787,337.066,342.566,347.45,352.334,355.392,359.055,364.555,370.055,375.555,381.055,384.113,389.613,398.171,403.055,406.113,409.776,412.834,417.718,420.468,427.632,432.516,436.795,441.074,445.958,451.458,454.208,461.38,466.88,471.159,476.043,480.322,483.072,490.244,494.523,497.581,502.465,507.965,511.023,515.907" svgx:width="0.61,0.5,0.28,0.39,0.25,0.55,0.39,0.5,0.44,0.44,0.28,0.33,0.5,0.5,0.5,0.5,0.28,0.5,0.78,0.44,0.28,0.33,0.28,0.44,0.25,0.55,0.44,0.39,0.39,0.44,0.5,0.25,0.55,0.5,0.39,0.44,0.39,0.25,0.55,0.39,0.28,0.44,0.5,0.28,0.44,0.25" style="fill:rgb(23,22,21);font-family:TimesNewRomanPSMT;font-size:11.0px;stroke:none;">This spectrophotometric assay uses stable </text>
  </g>
  <g begin="text">
   <text y="745.677" x="303.307,306.97,311.854,317.354,320.412,325.296,330.18,333.238,335.988,339.266,347.208,353.324,359.44" svgx:width="0.33,0.44,0.5,0.28,0.44,0.44,0.28,0.25,0.55,0.72,0.56,0.56,0.72" style="fill:rgb(23,22,21);font-family:TimesNewRomanPSMT;font-size:11.0px;stroke:none;">radical DPPH</text>
  </g>
  <g begin="text">
   <text y="745.677" x="367.384" svgx:width="0.25" style="fill:rgb(23,22,21);font-family:TimesNewRomanPS-BoldItalicMT;font-size:11.0px;stroke:none;"> </text>
  </g>
  <g begin="text">
   <text y="745.677" x="373.416,378.3,382.579,385.329,388.607,393.491,396.241,399.519,403.182,408.066,412.95,418.45,423.334,428.834,431.885,434.635,437.913,441.576,447.076,452.576,455.326,458.076,461.354,466.854,472.354,476.017" svgx:width="0.44,0.39,0.25,0.55,0.44,0.25,0.55,0.33,0.44,0.44,0.5,0.44,0.5,0.28,0.25,0.55,0.33,0.5,0.5,0.25,0.25,0.55,0.5,0.5,0.33,0.25" style="fill:rgb(23,22,21);font-family:TimesNewRomanPSMT;font-size:11.0px;stroke:none;">as a reagent (21, 22).</text>
  </g>
  <g begin="text">
   <text y="742.014" x="478.782" svgx:width="0.25" style="fill:rgb(23,22,21);font-family:TimesNewRomanPSMT;font-size:6.41px;stroke:none;"> </text>
  </g>
  <g begin="text">
   <text y="745.677" x="482.299,489.023,493.907,497.57,500.628,506.128,511.628,515.907" svgx:width="0.72,0.44,0.33,0.28,0.5,0.5,0.39,0.25" style="fill:rgb(23,22,21);font-family:TimesNewRomanPSMT;font-size:11.0px;stroke:none;">Various </text>
  </g>
  <g begin="text">
   <text y="68.357" x="344.221,348.89,351.998,353.944,357.444,359.39,362.89,365.998,367.944,371.052,372.998,374.944,378.052,379.802,383.302,385.248,386.998,392.052,394.775,396.721,400.221,403.721,407.221,410.721,415.775,417.525,422.579,426.079,428.025,431.525,434.248,437.748,441.248,444.748,446.498,449.606,452.329,455.052,458.16,461.66,463.606,465.552,469.052,470.998,472.748,476.248,478.194,480.14,481.89,485.39,488.89,492.39,494.14,496.086,498.032,501.532,505.032,506.978,510.478,513.978" svgx:width="0.67,0.44,0.28,0.5,0.28,0.5,0.44,0.28,0.44,0.28,0.28,0.44,0.25,0.5,0.28,0.25,0.72,0.39,0.28,0.5,0.5,0.5,0.5,0.72,0.25,0.72,0.5,0.28,0.5,0.39,0.5,0.5,0.5,0.25,0.44,0.39,0.39,0.44,0.5,0.28,0.28,0.5,0.28,0.25,0.5,0.28,0.28,0.25,0.5,0.5,0.5,0.25,0.28,0.28,0.5,0.5,0.28,0.5,0.5,0.28" style="fill:rgb(23,22,21);font-family:TimesNewRomanPS-ItalicMT;font-size:7.0px;stroke:none;">Cytotoxicity of Origanum majorana essential oil and linalool</text>
  </g>
  <g begin="text">
   <text y="782.627" x="288.386,293.386" svgx:width="0.5,0.5" style="fill:rgb(23,22,21);font-family:TimesNewRomanPSMT;font-size:10.0px;stroke:none;">25</text>
  </g>
 </g>
</svg>
