<?xml version="1.0" encoding="UTF-8"?>
<svg height="792.209" width="551.357" xmlns="http://www.w3.org/2000/svg">
 <g id="page" xmlns:svgx="http://www.xml-cml.org/schema/svgx">
  <g begin="text">
   <text y="68.64" x="93.543,95.293,99.57,101.901,105.401,108.901,112.401,115.509,119.009,120.371,125.04" svgx:width="0.25,0.61,0.33,0.5,0.5,0.5,0.44,0.5,0.25,0.72,0.25" style="fill:rgb(23,22,21);font-family:TimesNewRomanPSMT;font-size:7.0px;stroke:none;"> Erdogan A </text>
  </g>
  <g begin="text">
   <text y="68.64" x="126.79,130.29,133.79" svgx:width="0.5,0.5,0.5" style="fill:rgb(23,22,21);font-family:TimesNewRomanPS-ItalicMT;font-size:7.0px;stroke:none;">and</text>
  </g>
  <g begin="text">
   <text y="68.64" x="137.29" svgx:width="0.25" style="fill:rgb(23,22,21);font-family:TimesNewRomanPS-ItalicMT;font-size:7.0px;stroke:none;"> </text>
  </g>
  <g begin="text">
   <text y="68.64" x="139.04,144.094,147.202,150.702,153.81,157.31,158.675" svgx:width="0.72,0.44,0.5,0.44,0.5,0.25,0.72" style="fill:rgb(23,22,21);font-family:TimesNewRomanPSMT;font-size:7.0px;stroke:none;">Ozkan A</text>
  </g>
  <g begin="text">
   <text y="68.64" x="163.728" svgx:width="0.25" style="fill:rgb(23,22,21);font-family:TimesNewRomanPS-ItalicMT;font-size:7.0px;stroke:none;"> </text>
  </g>
  <g begin="text">
   <text y="68.64" x="165.478,167.424,169.174,171.505,174.228,178.12,182.789" svgx:width="0.28,0.25,0.33,0.39,0.56,0.67,0.25" style="fill:rgb(23,22,21);font-family:TimesNewRomanPSMT;font-size:7.0px;stroke:none;">/ IJPR </text>
  </g>
  <g begin="text">
   <text y="68.64" x="184.54,186.871,190.371,193.871,197.371,200.871,203.202,204.952,206.702,210.202,213.702,215.452" svgx:width="0.33,0.5,0.5,0.5,0.5,0.33,0.25,0.25,0.5,0.5,0.25,0.33" style="fill:rgb(23,22,21);font-family:TimesNewRomanPSMT;font-size:7.0px;stroke:none;">(2017), 16 (</text>
  </g>
  <g begin="text">
   <text y="68.64" x="217.783,221.675,225.175,228.283,231.391,233.337,236.445,238.391,240.141,242.472,245.195,247.918,251.418" svgx:width="0.56,0.5,0.44,0.44,0.28,0.44,0.28,0.25,0.33,0.39,0.39,0.5,0.44" style="fill:rgb(23,22,21);font-family:TimesNewRomanPSMT;font-size:7.0px;stroke:none;">Special Issue</text>
  </g>
  <g begin="text">
   <text y="68.64" x="254.523,256.854,258.8,260.55,264.05,267.55,269.881,273.381" svgx:width="0.33,0.28,0.25,0.5,0.5,0.33,0.5,0.5" style="fill:rgb(23,22,21);font-family:TimesNewRomanPSMT;font-size:7.0px;stroke:none;">): 24-34</text>
  </g>
  <g begin="text">
   <text y="782.209" x="311.361,316.361" svgx:width="0.5,0.5" style="fill:rgb(23,22,21);font-family:TimesNewRomanPSMT;font-size:10.0px;stroke:none;">26</text>
  </g>
  <g begin="text">
   <text y="108.692" x="93.543,98.427,103.927,109.427,114.311,119.195,124.695,127.753,131.416,136.3,139.358,142.416,147.916,153.416,157.695,160.445,165.182,168.845,174.345,179.845,182.595,187.347,193.683,200.404,204.067,206.817,211.563,217.063,220.726,223.476,228.228,231.286,236.786,241.67,244.42,249.164,254.048,258.327,262.606,267.49,272.99,276.048,279.106,283.99,287.048,289.798,294.538,300.038,303.096,306.154" svgx:width="0.44,0.5,0.5,0.44,0.44,0.5,0.28,0.33,0.44,0.28,0.28,0.5,0.5,0.39,0.25,0.55,0.33,0.5,0.5,0.25,0.55,0.58,0.61,0.33,0.25,0.55,0.5,0.33,0.25,0.55,0.28,0.5,0.44,0.25,0.55,0.44,0.39,0.39,0.44,0.5,0.28,0.28,0.44,0.28,0.25,0.55,0.5,0.28,0.28,0.25" style="fill:rgb(23,22,21);font-family:TimesNewRomanPSMT;font-size:11.0px;stroke:none;">concentrations (50 µL) of the essential oil </text>
  </g>
  <g begin="text">
   <text y="121.692" x="93.543,96.601,102.101,104.851,106.391,114.949,119.833,122.891,128.391,133.275,138.775,144.275,147.333,150.083,151.612,159.554,164.438,168.101,172.985,175.735,177.275,182.159,187.659,193.159,198.043,203.543,206.293,207.828,210.886,216.386,219.136,220.676,226.176,228.926,230.466,239.024,245.332,248.082,249.622,255.122,258.785,261.535,263.075,267.959,270.709,272.249,277.749,280.499,285.999,291.499,296.999,306.162" svgx:width="0.28,0.5,0.25,0.55,0.78,0.44,0.28,0.5,0.44,0.5,0.5,0.28,0.25,0.55,0.72,0.44,0.33,0.44,0.25,0.55,0.44,0.5,0.5,0.44,0.5,0.25,0.55,0.28,0.5,0.25,0.55,0.5,0.25,0.55,0.78,0.61,0.25,0.55,0.5,0.33,0.25,0.55,0.44,0.25,0.55,0.5,0.25,0.5,0.5,0.5,0.83,0.25" style="fill:rgb(23,22,21);font-family:TimesNewRomanPSMT;font-size:11.0px;stroke:none;">in methanol were added to 5 mL of a 0.004% </text>
  </g>
  <g begin="text">
   <text y="134.691" x="93.543,97.206,105.148,108.206,113.706,117.369,120.119,122.209,130.767,135.651,138.709,144.209,149.093,154.593,160.086,163.144,165.894,167.984,172.263,177.763,180.821,186.321,189.379,192.437,197.937,203.437,206.187,208.277,213.777,217.44,220.19,222.28,230.222,236.338,242.454,250.396,253.146,255.896,257.385,265.327,268.99,272.048,276.932,280.595,283.345,285.435,290.319,293.069,295.159,300.659,306.159" svgx:width="0.33,0.72,0.28,0.5,0.33,0.25,0.55,0.78,0.44,0.28,0.5,0.44,0.5,0.5,0.28,0.25,0.55,0.39,0.5,0.28,0.5,0.28,0.28,0.5,0.5,0.25,0.55,0.5,0.33,0.25,0.55,0.72,0.56,0.56,0.72,0.25,0.25,0.55,0.72,0.33,0.28,0.44,0.33,0.25,0.55,0.44,0.25,0.55,0.5,0.5,0.25" style="fill:rgb(23,22,21);font-family:TimesNewRomanPSMT;font-size:11.0px;stroke:none;">(w/v) methanol solution of DPPH. After a 30 </text>
  </g>
  <g begin="text">
   <text y="147.691" x="93.543,102.101,105.159,110.659,113.409,114.63,117.688,123.188,128.072,133.572,139.072,143.956,147.014,150.072,155.572,161.072,163.822,165.043,170.543,175.427,179.09,182.148,187.648,193.148,195.898,197.119,202.003,205.061,207.811,209.032,212.695,218.195,223.695,232.253,235.003,236.224,239.282,244.166,252.724,258.224,263.108,266.771,271.655,274.713,280.213,283.876,288.76,291.51,292.72,295.778,301.278,306.162" svgx:width="0.78,0.28,0.5,0.25,0.55,0.28,0.5,0.44,0.5,0.5,0.44,0.28,0.28,0.5,0.5,0.25,0.55,0.5,0.44,0.33,0.28,0.5,0.5,0.25,0.55,0.44,0.28,0.25,0.55,0.33,0.5,0.5,0.78,0.25,0.55,0.28,0.44,0.78,0.5,0.44,0.33,0.44,0.28,0.5,0.33,0.44,0.25,0.55,0.28,0.5,0.44,0.25" style="fill:rgb(23,22,21);font-family:TimesNewRomanPSMT;font-size:11.0px;stroke:none;">min incubation period at room temperature the </text>
  </g>
  <g begin="text">
   <text y="160.691" x="93.543,98.427,103.927,108.206,113.706,117.369,122.869,127.753,133.253,138.137,143.021,146.189,154.131,159.015,163.294,166.462,170.125,175.009,179.893,185.393,188.561,193.445,198.945,203.829,206.887,212.387,216.666,219.724,222.892,227.776,230.944,236.444,239.502,244.386,249.886,255.386,258.554,263.438,266.496,269.664,275.164,280.664,286.164,289.332,294.832,303.39,306.14" svgx:width="0.44,0.5,0.39,0.5,0.33,0.5,0.44,0.5,0.44,0.44,0.25,0.72,0.44,0.39,0.25,0.33,0.44,0.44,0.5,0.25,0.44,0.5,0.44,0.28,0.5,0.39,0.28,0.25,0.44,0.25,0.5,0.28,0.44,0.5,0.5,0.25,0.44,0.28,0.25,0.5,0.5,0.5,0.25,0.5,0.78,0.25,0.25" style="fill:rgb(23,22,21);font-family:TimesNewRomanPSMT;font-size:11.0px;stroke:none;">absorbance was read against a blank at 517 nm. </text>
  </g>
  <g begin="text">
   <text y="173.69" x="93.543,97.206,102.706,108.206,111.264,116.764,119.822,122.88,125.938,131.438,136.938,139.204,142.867,146.53,151.414,156.298,158.564,162.227,167.111,172.611,175.669,180.553,185.437,188.495,190.761,198.703,204.819,210.935,218.877,221.154,224.212,229.712,231.978,237.478,242.362,246.025,250.909,255.793,261.293,264.351,266.617,270.28,273.943,283.106,286.769,289.035,296.977,301.861,306.14" svgx:width="0.33,0.5,0.5,0.28,0.5,0.28,0.28,0.28,0.5,0.5,0.25,0.33,0.33,0.44,0.44,0.25,0.33,0.44,0.5,0.28,0.44,0.44,0.28,0.25,0.72,0.56,0.56,0.72,0.25,0.28,0.5,0.25,0.5,0.44,0.33,0.44,0.44,0.5,0.28,0.25,0.33,0.33,0.83,0.33,0.25,0.72,0.44,0.39,0.25" style="fill:rgb(23,22,21);font-family:TimesNewRomanPSMT;font-size:11.0px;stroke:none;">Inhibition free radical DPPH in percent (I%) was </text>
  </g>
  <g begin="text">
   <text y="186.69" x="93.543,98.427,103.311,106.369,111.253,116.753,119.811,124.695,127.753,132.637,138.137,140.887,143.945,149.445,152.195,155.858,161.358,164.416,167.474,172.974,180.916,183.974,189.474,194.974,197.724,205.666,210.55,216.05,219.108" svgx:width="0.44,0.44,0.28,0.44,0.5,0.28,0.44,0.28,0.44,0.5,0.25,0.28,0.5,0.25,0.33,0.5,0.28,0.28,0.5,0.72,0.28,0.5,0.5,0.25,0.72,0.44,0.5,0.28,0.25" style="fill:rgb(23,22,21);font-family:TimesNewRomanPSMT;font-size:11.0px;stroke:none;">calculated in following way: </text>
  </g>
  <g begin="text">
   <text y="199.69" x="107.716,111.38,114.13,123.293,126.043,132.247,134.997,138.66,145.997" svgx:width="0.33,0.25,0.83,0.25,0.56,0.25,0.33,0.72,0.25" style="fill:rgb(23,22,21);font-family:TimesNewRomanPSMT;font-size:11.0px;stroke:none;">I % = (A </text>
  </g>
  <g begin="text">
   <text y="203.353" x="148.746,151.594,154.8,158.007,159.789,161.925,165.132" svgx:width="0.44,0.5,0.5,0.28,0.33,0.5,0.28" style="fill:rgb(23,22,21);font-family:TimesNewRomanPSMT;font-size:6.41px;stroke:none;">control</text>
  </g>
  <g begin="text">
   <text y="199.69" x="166.911,169.661,173.324,175.469" svgx:width="0.25,0.33,0.25,0.72" style="fill:rgb(23,22,21);font-family:TimesNewRomanPSMT;font-size:11.0px;stroke:none;"> - A</text>
  </g>
  <g begin="text">
   <text y="203.353" x="183.411,185.014,187.509,190.356,195.346,198.552,200.335" svgx:width="0.25,0.39,0.44,0.78,0.5,0.28,0.44" style="fill:rgb(23,22,21);font-family:TimesNewRomanPSMT;font-size:6.41px;stroke:none;"> sample</text>
  </g>
  <g begin="text">
   <text y="199.69" x="203.179,206.237" svgx:width="0.28,0.72" style="fill:rgb(23,22,21);font-family:TimesNewRomanPSMT;font-size:11.0px;stroke:none;">/A</text>
  </g>
  <g begin="text">
   <text y="203.353" x="214.179,217.027,220.233,223.44,225.223,227.358,230.565" svgx:width="0.44,0.5,0.5,0.28,0.33,0.5,0.28" style="fill:rgb(23,22,21);font-family:TimesNewRomanPSMT;font-size:6.41px;stroke:none;">control</text>
  </g>
  <g begin="text">
   <text y="199.69" x="232.344,236.007,238.757,244.257,249.757,255.257" svgx:width="0.33,0.25,0.5,0.5,0.5,0.5" style="fill:rgb(23,22,21);font-family:TimesNewRomanPSMT;font-size:11.0px;stroke:none;">) x100</text>
  </g>
  <g begin="text">
   <text y="212.689" x="107.716,118.101,123.601,128.484,132.147,137.031,139.781" svgx:width="0.94,0.5,0.44,0.33,0.44,0.25,0.72" style="fill:rgb(23,22,21);font-family:TimesNewRomanPSMT;font-size:11.0px;stroke:none;">Where A</text>
  </g>
  <g begin="text">
   <text y="216.352" x="147.724,150.93,152.713,155.561,158.767" svgx:width="0.5,0.28,0.44,0.5,0.5" style="fill:rgb(23,22,21);font-family:TimesNewRomanPSMT;font-size:6.41px;stroke:none;">blank</text>
  </g>
  <g begin="text">
   <text y="212.689" x="161.971,165.332,168.39,172.669,176.03,179.088,184.588,189.472,192.828,197.712,203.212,207.491,212.991,216.654,222.154,227.038,232.538,237.422,242.306,245.662,251.162,254.825,258.185,261.243,266.743,271.627,274.984,279.868,285.368,290.868,293.926,297.589,303.089,306.147" svgx:width="0.25,0.28,0.39,0.25,0.28,0.5,0.44,0.25,0.44,0.5,0.39,0.5,0.33,0.5,0.44,0.5,0.44,0.44,0.25,0.5,0.33,0.25,0.28,0.5,0.44,0.25,0.44,0.5,0.5,0.28,0.33,0.5,0.28,0.25" style="fill:rgb(23,22,21);font-family:TimesNewRomanPSMT;font-size:11.0px;stroke:none;"> is the absorbance of the control </text>
  </g>
  <g begin="text">
   <text y="225.689" x="93.543,97.206,102.09,106.974,111.858,114.916,117.974,123.474,128.974,131.724,132.636,136.299,141.183,146.683,152.183,155.241,160.125,163.183,168.683,171.741,177.241,182.741,185.491,186.402,191.286,194.344,197.402,200.152,201.067,204.73,209.614,214.498,219.998,224.882,230.382,233.44,237.719,240.469,241.384,246.268,251.768,256.652,261.536,267.036,270.094,272.844,273.757,276.815,282.315,287.199,289.949,290.867,293.925,298.809,303.088,306.146" svgx:width="0.33,0.44,0.44,0.44,0.28,0.28,0.5,0.5,0.25,0.55,0.33,0.44,0.5,0.5,0.28,0.44,0.28,0.5,0.28,0.5,0.5,0.25,0.55,0.44,0.28,0.28,0.25,0.55,0.33,0.44,0.44,0.5,0.44,0.5,0.28,0.39,0.25,0.55,0.44,0.5,0.44,0.44,0.5,0.28,0.25,0.55,0.28,0.5,0.44,0.25,0.55,0.28,0.44,0.39,0.28,0.25" style="fill:rgb(23,22,21);font-family:TimesNewRomanPSMT;font-size:11.0px;stroke:none;">reaction (containing all reagents except the test </text>
  </g>
  <g begin="text">
   <text y="238.689" x="93.543,98.427,103.927,112.485,117.985,123.485,128.985,134.485,139.985,143.648,146.398,149.148,152.887,157.771,163.271,168.771,171.521,174.656" svgx:width="0.44,0.5,0.78,0.5,0.5,0.5,0.5,0.5,0.33,0.25,0.25,0.55,0.44,0.5,0.5,0.25,0.55,0.72" style="fill:rgb(23,22,21);font-family:TimesNewRomanPSMT;font-size:11.0px;stroke:none;">compound), and A</text>
  </g>
  <g begin="text">
   <text y="242.352" x="182.598,185.092,187.94,192.929,196.136,197.918" svgx:width="0.39,0.44,0.78,0.5,0.28,0.44" style="fill:rgb(23,22,21);font-family:TimesNewRomanPSMT;font-size:6.41px;stroke:none;">sample</text>
  </g>
  <g begin="text">
   <text y="238.689" x="200.763,203.513,207.253,210.311,214.59,217.34,221.08,224.138,229.638,234.522,237.272,241.012,245.896,251.396,255.675,261.175,264.838,270.338,275.222,280.722,285.606,290.49,293.24,296.98,302.48,306.143" svgx:width="0.25,0.55,0.28,0.39,0.25,0.55,0.28,0.5,0.44,0.25,0.55,0.44,0.5,0.39,0.5,0.33,0.5,0.44,0.5,0.44,0.44,0.25,0.55,0.5,0.33,0.25" style="fill:rgb(23,22,21);font-family:TimesNewRomanPSMT;font-size:11.0px;stroke:none;"> is the absorbance of </text>
  </g>
  <g begin="text">
   <text y="251.689" x="93.543,96.601,102.101,106.985,109.735,112.425,115.483,120.367,124.646,127.704,130.454,133.142,138.026,143.526,152.084,157.584,163.084,168.584,174.084,179.584,182.334,185.084,187.774,194.495,198.774,203.053,207.937,213.437,216.495,219.553,224.437,227.495,230.245,232.931,238.431,241.489,244.547,247.297,249.985,254.869,260.369,265.869,268.619,271.314,276.814,282.314,286.593,289.651,292.709,295.767,301.267,306.151" svgx:width="0.28,0.5,0.44,0.25,0.55,0.28,0.44,0.39,0.28,0.25,0.55,0.44,0.5,0.78,0.5,0.5,0.5,0.5,0.5,0.25,0.25,0.55,0.61,0.39,0.39,0.44,0.5,0.28,0.28,0.44,0.28,0.25,0.55,0.5,0.28,0.28,0.25,0.55,0.44,0.5,0.5,0.25,0.55,0.5,0.5,0.39,0.28,0.28,0.28,0.5,0.44,0.25" style="fill:rgb(23,22,21);font-family:TimesNewRomanPSMT;font-size:11.0px;stroke:none;">the test compound. Essential oil and positive </text>
  </g>
  <g begin="text">
   <text y="264.688" x="93.543,98.427,103.927,109.427,112.485,116.148,121.648,124.706,128.985,130.811,135.695,141.195,146.695,151.579,156.463,161.963,165.021,168.684,173.568,176.626,179.684,185.184,190.684,194.963,196.777,202.277,205.94,211.44,216.94,219.998,225.498,228.556,234.056,239.556,241.382,246.882,252.382,261.545,263.371,266.429,271.929,277.429,280.487,285.987,289.045,292.103,295.161,300.661,306.161" svgx:width="0.44,0.5,0.5,0.28,0.33,0.5,0.28,0.39,0.25,0.44,0.5,0.5,0.44,0.44,0.5,0.28,0.33,0.44,0.28,0.28,0.5,0.5,0.39,0.25,0.5,0.33,0.5,0.5,0.28,0.5,0.28,0.5,0.5,0.25,0.5,0.5,0.83,0.25,0.28,0.5,0.5,0.28,0.5,0.28,0.28,0.28,0.5,0.5,0.25" style="fill:rgb(23,22,21);font-family:TimesNewRomanPSMT;font-size:11.0px;stroke:none;">controls concentrations providing 50% inhibition </text>
  </g>
  <g begin="text">
   <text y="277.688" x="93.543,97.206,103.927" svgx:width="0.33,0.61,0.67" style="fill:rgb(23,22,21);font-family:TimesNewRomanPSMT;font-size:11.0px;stroke:none;">(EC</text>
  </g>
  <g begin="text">
   <text y="281.351" x="111.262,114.469" svgx:width="0.5,0.5" style="fill:rgb(23,22,21);font-family:TimesNewRomanPSMT;font-size:6.41px;stroke:none;">50</text>
  </g>
  <g begin="text">
   <text y="277.688" x="117.675,121.339,124.66,132.602,137.486,141.149,146.033,149.35,154.234,159.118,162.176,167.06,172.56,175.618,180.502,183.56,188.444,193.944,197.253,200.916,206.416,210.079,218.637,221.959,225.017,230.517,235.401,238.723,244.223,247.886,252.77,258.27,263.77,268.049,270.799,274.121,280.237,285.737,289.4,292.722,295.78,301.28,306.164" svgx:width="0.33,0.25,0.72,0.44,0.33,0.44,0.25,0.44,0.44,0.28,0.44,0.5,0.28,0.44,0.28,0.44,0.5,0.25,0.33,0.5,0.33,0.78,0.25,0.28,0.5,0.44,0.25,0.5,0.33,0.44,0.5,0.5,0.39,0.25,0.25,0.56,0.5,0.33,0.25,0.28,0.5,0.44,0.25" style="fill:rgb(23,22,21);font-family:TimesNewRomanPSMT;font-size:11.0px;stroke:none;">) were calculated form the graphs. For the </text>
  </g>
  <g begin="text">
   <text y="290.688" x="93.543,98.427,103.311,106.369,111.253,116.753,119.811,124.695,127.753,130.811,136.311,141.811,144.561,148.459,153.959,157.622,160.372,164.282,167.34,172.84,177.724,182.003,186.887,189.637,193.545,199.045,203.929,206.987,212.487,217.371,221.65,224.4,227.15,231.058,240.837,243.895,248.779,252.442,257.942,262.221,267.721,271.384,274.442,277.192,281.101,287.822,293.322,298.206,303.09,306.148" svgx:width="0.44,0.44,0.28,0.44,0.5,0.28,0.44,0.28,0.28,0.5,0.5,0.25,0.55,0.5,0.33,0.25,0.55,0.28,0.5,0.44,0.39,0.44,0.25,0.55,0.5,0.44,0.28,0.5,0.44,0.39,0.25,0.25,0.55,0.89,0.28,0.44,0.33,0.5,0.39,0.5,0.33,0.28,0.25,0.55,0.61,0.5,0.44,0.44,0.28,0.25" style="fill:rgb(23,22,21);font-family:TimesNewRomanPSMT;font-size:11.0px;stroke:none;">calculation of these values, Microsoft Excel </text>
  </g>
  <g begin="text">
   <text y="303.687" x="93.543,97.822,103.322,106.985,110.043,117.985,122.869,126.532,131.416,134.166,136.839,144.781,149.665,153.944,156.694,159.367,164.867,169.146,174.03,179.53,182.28,185.03,187.502,193.453,198.337,202.616,205.674,209.953,212.703,215.376,223.318,228.202,231.865,236.749,239.499,242.172,247.056,251.94,255.603,259.266,262.324,267.208,272.708,275.458,278.121,283.621,289.121,292.179,294.929,297.602,300.66,306.16" svgx:width="0.39,0.5,0.33,0.28,0.72,0.44,0.33,0.44,0.25,0.55,0.72,0.44,0.39,0.25,0.55,0.5,0.39,0.44,0.5,0.25,0.25,0.55,0.61,0.44,0.39,0.28,0.39,0.25,0.55,0.72,0.44,0.33,0.44,0.25,0.55,0.44,0.44,0.33,0.33,0.28,0.44,0.5,0.25,0.55,0.5,0.5,0.28,0.25,0.55,0.28,0.5,0.25" style="fill:rgb(23,22,21);font-family:TimesNewRomanPSMT;font-size:11.0px;stroke:none;">software was used. Tests were carried out in </text>
  </g>
  <g begin="text">
   <text y="316.687" x="93.543,96.601,100.264,103.322,108.822,111.88,114.938,119.822,124.706,127.764,132.648" svgx:width="0.28,0.33,0.28,0.5,0.28,0.28,0.44,0.44,0.28,0.44,0.25" style="fill:rgb(23,22,21);font-family:TimesNewRomanPSMT;font-size:11.0px;stroke:none;">triplicate.</text>
  </g>
  <g begin="text">
   <text y="342.686" x="107.716,113.194,116.857,121.742,127.242,131.112,136.612,139.67,144.554,150.054,154.938,160.438,163.496,166.554,172.054,177.554,180.612,185.496,188.554,193.438,196.188,201.688,206.572,209.63,215.13,217.88,223.38,227.659,231.938,237.438" svgx:width="0.5,0.33,0.44,0.5,0.39,0.5,0.28,0.44,0.5,0.44,0.5,0.28,0.28,0.5,0.5,0.28,0.44,0.28,0.44,0.25,0.5,0.44,0.28,0.5,0.25,0.5,0.39,0.39,0.5,0.44" style="fill:rgb(23,22,21);font-family:TimesNewRomanPS-ItalicMT;font-size:11.0px;stroke:none;">β-carotene–linoleic acid assay</text>
  </g>
  <g begin="text">
   <text y="355.686" x="107.716,111.38,116.88,119.63,128.1,131.158,136.658,139.715,143.995,146.745,155.209,160.093,164.372,168.651,173.535,179.035,181.785,190.255,195.139,200.639,203.697,206.755,212.255,217.755,220.813,226.313,231.197,236.697,239.755,242.505,250.959,255.843,260.727,266.227,271.111,275.995,279.053,282.111,287.611,290.361,298.815,301.873,306.152" svgx:width="0.33,0.5,0.25,0.55,0.28,0.5,0.28,0.39,0.25,0.55,0.44,0.39,0.39,0.44,0.5,0.25,0.55,0.44,0.5,0.28,0.28,0.5,0.5,0.28,0.5,0.44,0.5,0.28,0.25,0.55,0.44,0.44,0.5,0.44,0.44,0.28,0.28,0.5,0.25,0.55,0.28,0.39,0.25" style="fill:rgb(23,22,21);font-family:TimesNewRomanPSMT;font-size:11.0px;stroke:none;">In this assay antioxidant capacity is </text>
  </g>
  <g begin="text">
   <text y="368.686" x="93.543,99.043,103.927,106.985,111.869,115.532,124.09,127.148,132.648,137.532,143.032,145.782,147.602,153.102,158.602,161.352,163.178,171.736,176.62,181.504,185.783,191.283,194.946,198.004,203.504,209.004,211.754,213.58,216.638,222.138,227.022,229.772,231.598,234.656,240.156,245.656,248.714,254.214,257.272,260.33,263.388,268.888,274.388,277.138,278.958,284.458,288.121,290.871,292.697,295.755,301.255,306.139" svgx:width="0.5,0.44,0.28,0.44,0.33,0.78,0.28,0.5,0.44,0.5,0.25,0.55,0.5,0.5,0.25,0.55,0.78,0.44,0.44,0.39,0.5,0.33,0.28,0.5,0.5,0.25,0.55,0.28,0.5,0.44,0.25,0.55,0.28,0.5,0.5,0.28,0.5,0.28,0.28,0.28,0.5,0.5,0.25,0.55,0.5,0.33,0.25,0.55,0.28,0.5,0.44,0.25" style="fill:rgb(23,22,21);font-family:TimesNewRomanPSMT;font-size:11.0px;stroke:none;">determined by measuring the inhibition of the </text>
  </g>
  <g begin="text">
   <text y="381.685" x="93.543,99.043,104.543,107.601,112.485,115.543,118.601,121.659,126.543,129.293,130.237,135.737,139.202,144.702,149.586,155.086,158.144,163.028,165.778,166.735,171.619,177.119,185.677,191.177,196.677,202.177,207.677,213.177,217.456,220.206,221.163,226.047,231.547,237.047,239.797,240.754,243.812,249.312,254.196,256.946,257.898,262.782,268.282,273.782,276.84,282.34,287.84,292.724,295.782,300.666,306.166" svgx:width="0.5,0.5,0.28,0.44,0.28,0.28,0.28,0.44,0.25,0.55,0.5,0.33,0.5,0.44,0.5,0.28,0.44,0.25,0.55,0.44,0.5,0.78,0.5,0.5,0.5,0.5,0.5,0.39,0.25,0.55,0.44,0.5,0.5,0.25,0.55,0.28,0.5,0.44,0.25,0.55,0.44,0.5,0.5,0.28,0.5,0.5,0.44,0.28,0.44,0.5,0.25" style="fill:rgb(23,22,21);font-family:TimesNewRomanPSMT;font-size:11.0px;stroke:none;">volatile organic compounds and the conjugated </text>
  </g>
  <g begin="text">
   <text y="394.685" x="93.543,99.043,102.101,106.985,112.485,117.369,120.911,126.411,131.911,137.411,141.074,146.574,152.074,156.958,160.621,166.121,171.621,174.679,180.179,185.063,189.342,192.884,197.768,201.431,204.489,208.768,211.826,217.326,222.826,226.368,230.031,233.694,239.194,247.752,251.294,254.352,257.41,262.91,268.41,271.468,276.352,279.41,284.294,287.828,292.712,297.596,300.654,306.154" svgx:width="0.5,0.28,0.44,0.5,0.44,0.25,0.5,0.5,0.5,0.33,0.5,0.5,0.44,0.33,0.5,0.5,0.28,0.5,0.44,0.39,0.25,0.44,0.33,0.28,0.39,0.28,0.5,0.5,0.25,0.33,0.33,0.5,0.78,0.25,0.28,0.28,0.5,0.5,0.28,0.44,0.28,0.44,0.25,0.44,0.44,0.28,0.5,0.25" style="fill:rgb(23,22,21);font-family:TimesNewRomanPSMT;font-size:11.0px;stroke:none;">diene hydroperoxides arising from linoleic acid </text>
  </g>
  <g begin="text">
   <text y="407.685" x="93.543,99.043,104.543,107.601,113.101,117.985,121.043,124.101,129.601,135.101,137.851,138.994,142.657,148.157,153.657,157.32,160.07,163.364,170.701,173.451,174.601,178.88,181.938,187.438,192.322,197.822,200.572,201.721,206.0,211.5,214.558,220.058,223.116,226.174,231.674,237.174,239.924,241.072,246.572,250.235,252.985,254.136,259.735,263.398,268.282,273.166,276.829,282.329,285.387,290.271,295.771,300.655" svgx:width="0.5,0.5,0.28,0.5,0.44,0.28,0.28,0.5,0.5,0.25,0.55,0.33,0.5,0.5,0.33,0.25,0.25,0.72,0.25,0.55,0.39,0.28,0.5,0.44,0.5,0.25,0.55,0.39,0.5,0.28,0.5,0.28,0.28,0.5,0.5,0.25,0.55,0.5,0.33,0.25,0.55,0.51,0.33,0.44,0.44,0.33,0.5,0.28,0.44,0.5,0.44,0.5" style="fill:rgb(23,22,21);font-family:TimesNewRomanPSMT;font-size:11.0px;stroke:none;">oxidation (23). A stock solution of β-carotene–</text>
  </g>
  <g begin="text">
   <text y="420.684" x="93.543,96.601,99.659,105.159,110.659,113.717,118.601,121.659,126.543,129.282,134.166,139.05,142.108,147.608,150.353,158.911,161.969,167.469,170.527,176.027,179.69,184.574,187.318,195.26,200.144,204.423,207.173,212.673,216.336,221.22,226.72,231.604,235.267,240.151,245.651,248.401,253.285,257.564,260.314,263.977,269.477,272.535,275.593,281.093,289.035,292.093,297.593,303.093,306.151" svgx:width="0.28,0.28,0.5,0.5,0.28,0.44,0.28,0.44,0.25,0.44,0.44,0.28,0.5,0.25,0.78,0.28,0.5,0.28,0.5,0.33,0.44,0.25,0.72,0.44,0.39,0.25,0.5,0.33,0.44,0.5,0.44,0.33,0.44,0.5,0.25,0.44,0.39,0.25,0.33,0.5,0.28,0.28,0.5,0.72,0.28,0.5,0.5,0.28,0.25" style="fill:rgb(23,22,21);font-family:TimesNewRomanPSMT;font-size:11.0px;stroke:none;">linoleic acid mixture was prepared as following: </text>
  </g>
  <g begin="text">
   <text y="433.684" x="93.543,99.043,101.793,107.293,110.043,112.485,121.043,126.543,129.293,131.733,137.332,140.995,145.879,150.763,154.426,159.926,162.984,167.868,173.368,178.252,181.002,183.433,191.375,196.259,200.538,203.288,205.732,211.232,214.29,218.569,222.848,228.348,231.406,236.906,241.79,247.29,250.04,252.48,255.538,261.038,263.788,266.228,271.728,274.478,276.92,285.478,291.786,294.536,296.978,302.478,306.141" svgx:width="0.5,0.25,0.5,0.25,0.55,0.78,0.5,0.25,0.55,0.51,0.33,0.44,0.44,0.33,0.5,0.28,0.44,0.5,0.44,0.25,0.55,0.72,0.44,0.39,0.25,0.55,0.5,0.28,0.39,0.39,0.5,0.28,0.5,0.44,0.5,0.25,0.55,0.28,0.5,0.25,0.55,0.5,0.25,0.55,0.78,0.61,0.25,0.55,0.5,0.33,0.25" style="fill:rgb(23,22,21);font-family:TimesNewRomanPSMT;font-size:11.0px;stroke:none;">0.5 mg β-carotene was dissolved in 1 mL of </text>
  </g>
  <g begin="text">
   <text y="446.684" x="93.543,98.427,103.927,106.985,112.485,116.148,121.648,125.311,130.811,134.474,143.032,145.782,147.356,151.019,158.961,165.077,171.798,179.135,181.885,183.464,188.964,192.627,197.511,203.011,207.895,211.558,214.308,217.058,218.634,224.134,229.634,232.384,233.963,239.859,246.172,248.922,250.5,253.558,256.616,262.116,267.616,270.674,275.558,278.616,283.5,286.25,287.819,292.703,297.587,300.645,306.145" svgx:width="0.44,0.5,0.28,0.5,0.33,0.5,0.33,0.5,0.33,0.78,0.25,0.55,0.33,0.72,0.56,0.61,0.67,0.25,0.55,0.5,0.33,0.44,0.5,0.44,0.33,0.25,0.25,0.55,0.5,0.5,0.25,0.55,0.54,0.61,0.25,0.55,0.28,0.28,0.5,0.5,0.28,0.44,0.28,0.44,0.25,0.55,0.44,0.44,0.28,0.5,0.25" style="fill:rgb(23,22,21);font-family:TimesNewRomanPSMT;font-size:11.0px;stroke:none;">chloroform (HPLC grade), 25 μL linoleic acid </text>
  </g>
  <g begin="text">
   <text y="459.683" x="93.543,98.427,103.927,109.427,112.177,113.442,118.942,124.442,129.942,132.692,133.957,142.515,148.015,150.765,151.834,157.785,165.727,170.611,175.495,180.995,183.745,185.01,190.51,196.01,198.76,200.025,207.967,212.851,217.13,219.88,221.152,226.036,231.536,237.036,241.92,247.42,250.17,252.92,254.185,261.522,267.022,270.08,275.58,279.243,284.743,288.406,293.906,297.569,306.127" svgx:width="0.44,0.5,0.5,0.25,0.55,0.5,0.5,0.5,0.25,0.55,0.78,0.5,0.25,0.55,0.61,0.72,0.44,0.44,0.5,0.25,0.55,0.5,0.5,0.25,0.55,0.72,0.44,0.39,0.25,0.55,0.44,0.5,0.5,0.44,0.5,0.25,0.25,0.55,0.67,0.5,0.28,0.5,0.33,0.5,0.33,0.5,0.33,0.78,0.25" style="fill:rgb(23,22,21);font-family:TimesNewRomanPSMT;font-size:11.0px;stroke:none;">and 200 mg Tween 40 was added. Chloroform </text>
  </g>
  <g begin="text">
   <text y="472.683" x="93.543,101.485,106.369,110.648,113.398,117.611,122.495,127.995,136.553,142.053,145.111,149.995,153.053,157.937,160.995,166.495,169.245,173.449,178.333,183.833,188.717,194.217,199.717,203.38,208.264,211.322,216.206,221.706,224.456,228.664,234.164,238.443,241.501,247.001,252.501,255.251,259.464,264.348,267.098,271.311,276.811,281.695,286.579,292.079,297.579,306.137" svgx:width="0.72,0.44,0.39,0.25,0.55,0.44,0.5,0.78,0.5,0.28,0.44,0.28,0.44,0.28,0.5,0.25,0.55,0.44,0.5,0.44,0.5,0.5,0.33,0.44,0.28,0.44,0.5,0.25,0.55,0.5,0.39,0.28,0.5,0.5,0.25,0.55,0.44,0.25,0.55,0.5,0.44,0.44,0.5,0.5,0.78,0.25" style="fill:rgb(23,22,21);font-family:TimesNewRomanPSMT;font-size:11.0px;stroke:none;">was completely evaporated using a vacuum </text>
  </g>
  <g begin="text">
   <text y="485.683" x="93.543,98.427,103.927,108.811,114.311,119.811,123.474,128.358,131.416,136.916,139.965,142.715,145.465,152.474,159.195,164.695,169.579,175.079,177.829,185.034,190.534,196.034,201.534,204.284,211.489,220.047,226.356,229.106,236.311,241.811,244.869,249.148,252.206,255.264,258.322,261.38,266.264,271.764,274.514,281.712,289.654,294.538,297.596,302.48,306.143" svgx:width="0.44,0.5,0.44,0.5,0.5,0.33,0.44,0.28,0.5,0.33,0.25,0.25,0.55,0.61,0.5,0.44,0.5,0.25,0.55,0.5,0.5,0.5,0.25,0.55,0.78,0.61,0.25,0.55,0.5,0.28,0.39,0.28,0.28,0.28,0.28,0.44,0.5,0.25,0.55,0.72,0.44,0.28,0.44,0.33,0.25" style="fill:rgb(23,22,21);font-family:TimesNewRomanPSMT;font-size:11.0px;stroke:none;">evaporator. Then 100 mL distilled water </text>
  </g>
  <g begin="text">
   <text y="498.682" x="93.543,97.822,102.706,105.764,111.264,114.927,119.811,122.869,127.753,133.253,136.003,138.384,146.326,149.384,152.442,157.942,160.692,163.079,168.579,174.079,179.579,185.079,189.963,195.463,198.213,200.6,204.263,209.763,215.263,218.013,220.4,228.958,232.016,237.516,240.266,243.016,245.403,250.903,256.403,261.903,264.653,267.04,275.598,282.319,285.377,293.935,296.993,302.493,306.156" svgx:width="0.39,0.44,0.28,0.5,0.33,0.44,0.28,0.44,0.5,0.25,0.55,0.72,0.28,0.28,0.5,0.25,0.55,0.5,0.5,0.5,0.5,0.44,0.5,0.25,0.55,0.33,0.5,0.5,0.25,0.55,0.78,0.28,0.5,0.25,0.25,0.55,0.5,0.5,0.5,0.25,0.55,0.78,0.61,0.28,0.78,0.28,0.5,0.33,0.25" style="fill:rgb(23,22,21);font-family:TimesNewRomanPSMT;font-size:11.0px;stroke:none;">saturated with oxygen (30 min, 100 mL/min) </text>
  </g>
  <g begin="text">
   <text y="511.682" x="93.543,101.485,106.369,110.648,113.398,118.282,123.782,129.282,134.166,139.666,142.416,150.358,153.416,156.474,161.974,164.724,169.608,172.358,177.858,180.916,186.416,191.916,195.579,201.079,206.579,210.858,213.608,217.887,223.387,228.271,233.771,236.829,242.329,247.829" svgx:width="0.72,0.44,0.39,0.25,0.44,0.5,0.5,0.44,0.5,0.25,0.72,0.28,0.28,0.5,0.25,0.44,0.25,0.5,0.28,0.5,0.5,0.33,0.5,0.5,0.39,0.25,0.39,0.5,0.44,0.5,0.28,0.5,0.5,0.25" style="fill:rgb(23,22,21);font-family:TimesNewRomanPSMT;font-size:11.0px;stroke:none;">was added with a vigorous shaking.</text>
  </g>
  <g begin="text">
   <text y="524.682" x="107.716,114.438,119.938,122.995,127.274,130.024,137.309,140.972,145.856,150.74,155.624,158.682,161.74,167.24,172.731,175.481,182.767,191.325,194.383,199.883,202.941,208.441,212.104,216.988,219.738,227.017,230.68,236.18,241.68,247.18,252.68,255.43,262.716,268.612,275.333,278.996,281.746,289.033,296.975,301.859,306.138" svgx:width="0.61,0.5,0.28,0.39,0.25,0.55,0.33,0.44,0.44,0.44,0.28,0.28,0.5,0.5,0.25,0.55,0.78,0.28,0.5,0.28,0.5,0.33,0.44,0.25,0.55,0.33,0.5,0.5,0.5,0.5,0.25,0.55,0.54,0.61,0.33,0.25,0.55,0.72,0.44,0.39,0.25" style="fill:rgb(23,22,21);font-family:TimesNewRomanPSMT;font-size:11.0px;stroke:none;">This reaction mixture (2500 μL) was </text>
  </g>
  <g begin="text">
   <text y="537.682" x="93.543,99.043,102.101,106.38,111.88,116.764,120.427,124.706,129.59,135.09,137.84,139.363,142.421,147.921,150.671,152.193,155.251,160.135,164.414,167.472,170.222,171.742,174.8,180.3,185.8,190.684,194.963,197.713,199.236,204.12,209.62,215.12,217.87,219.392,224.892,230.392,235.892,238.642,240.166,246.062,252.375,255.125,256.648,262.148,267.648,271.311,274.369,277.427,282.927,288.427,292.706,295.456,296.978,302.478,306.141" svgx:width="0.5,0.28,0.39,0.5,0.44,0.33,0.39,0.44,0.5,0.25,0.55,0.28,0.5,0.25,0.55,0.28,0.44,0.39,0.28,0.25,0.55,0.28,0.5,0.5,0.44,0.39,0.25,0.55,0.44,0.5,0.5,0.25,0.55,0.5,0.5,0.5,0.25,0.55,0.54,0.61,0.25,0.55,0.5,0.5,0.33,0.28,0.28,0.5,0.5,0.39,0.25,0.55,0.5,0.33,0.25" style="fill:rgb(23,22,21);font-family:TimesNewRomanPSMT;font-size:11.0px;stroke:none;">dispersed to test tubes and 350 μL portions of </text>
  </g>
  <g begin="text">
   <text y="550.681" x="93.543,96.601,102.101,106.985,109.66,114.545,118.824,123.103,127.987,133.487,136.545,139.603,144.487,147.545,150.216,155.716,158.774,161.832,164.509,170.009,173.672,178.556,184.056,188.94,192.603,197.487,202.987,205.661,210.545,213.603,216.278,221.778,224.457,229.957,233.015,239.323,242.002,246.886,252.386,257.886,262.77,267.654,273.154,276.212,279.875,284.759,287.817,290.875,296.375,301.875,306.154" svgx:width="0.28,0.5,0.44,0.25,0.44,0.39,0.39,0.44,0.5,0.28,0.28,0.44,0.28,0.25,0.5,0.28,0.28,0.25,0.5,0.33,0.44,0.5,0.44,0.33,0.44,0.5,0.25,0.44,0.28,0.25,0.5,0.25,0.5,0.28,0.61,0.25,0.44,0.5,0.5,0.44,0.44,0.5,0.28,0.33,0.44,0.28,0.28,0.5,0.5,0.39,0.25" style="fill:rgb(23,22,21);font-family:TimesNewRomanPSMT;font-size:11.0px;stroke:none;">the essential oil prepared at 2 g/L concentrations </text>
  </g>
  <g begin="text">
   <text y="563.681" x="93.543,98.427,103.927,109.427,114.311,119.811,122.561,128.358,133.242,138.742,144.242,146.992,152.789,157.673,160.731,165.01,170.51,173.26,179.057,182.115,187.615,192.499,195.249,201.046,205.93,214.488,219.988,223.046,227.325,230.383,235.883,241.383,244.133,249.93,254.209,259.709,263.988,267.046,271.93,280.488,283.238,289.035,296.977,301.861,306.14" svgx:width="0.44,0.5,0.5,0.44,0.5,0.25,0.55,0.44,0.5,0.5,0.25,0.55,0.44,0.28,0.39,0.5,0.25,0.55,0.28,0.5,0.44,0.25,0.55,0.44,0.78,0.5,0.28,0.39,0.28,0.5,0.5,0.25,0.55,0.39,0.5,0.39,0.28,0.44,0.78,0.25,0.55,0.72,0.44,0.39,0.25" style="fill:rgb(23,22,21);font-family:TimesNewRomanPSMT;font-size:11.0px;stroke:none;">added and also the emulsion system was </text>
  </g>
  <g begin="text">
   <text y="576.681" x="93.543,96.601,102.101,106.985,112.485,117.985,122.869,125.927,130.811,136.311,139.061,140.108,145.608,151.108,153.858,154.914,157.972,163.472,166.222,167.278,172.778,178.278,181.028,182.084,187.584,190.334,191.39,196.274,199.332,202.082,203.138,206.801,212.301,217.801,226.359,229.109,230.165,233.223,238.107,246.665,252.165,257.049,260.712,265.596,268.654,274.154,277.817,282.701,285.451,288.201,289.046,295.767,301.267,306.151" svgx:width="0.28,0.5,0.44,0.5,0.5,0.44,0.28,0.44,0.5,0.25,0.55,0.5,0.5,0.25,0.55,0.28,0.5,0.25,0.55,0.5,0.5,0.25,0.55,0.5,0.25,0.55,0.44,0.28,0.25,0.55,0.33,0.5,0.5,0.78,0.25,0.55,0.28,0.44,0.78,0.5,0.44,0.33,0.44,0.28,0.5,0.33,0.44,0.25,0.25,0.55,0.61,0.5,0.44,0.25" style="fill:rgb(23,22,21);font-family:TimesNewRomanPSMT;font-size:11.0px;stroke:none;">incubated up to 24 h at room temperature. The </text>
  </g>
  <g begin="text">
   <text y="589.68" x="93.543,97.822,102.706,111.264,116.148,118.898,122.627,128.127,131.79,137.29,142.174,147.058,152.558,158.058,161.721,166.605,169.355,173.084,181.026,185.91,190.189,192.939,196.668,200.331,205.215,210.715,215.599,220.483,223.541,228.425,233.925,236.675,240.397,248.339,251.397,254.455,259.955,262.705,266.434,270.713,276.213,281.713,284.771,290.271,295.155,298.213,301.271,306.155" svgx:width="0.39,0.44,0.78,0.44,0.25,0.55,0.5,0.33,0.5,0.44,0.44,0.5,0.5,0.33,0.44,0.25,0.55,0.72,0.44,0.39,0.25,0.55,0.33,0.44,0.5,0.44,0.44,0.28,0.44,0.5,0.25,0.55,0.72,0.28,0.28,0.5,0.25,0.55,0.39,0.5,0.5,0.28,0.5,0.44,0.28,0.28,0.44,0.25" style="fill:rgb(23,22,21);font-family:TimesNewRomanPSMT;font-size:11.0px;stroke:none;">same procedure was repeated with synthetic </text>
  </g>
  <g begin="text">
   <text y="602.68" x="93.543,98.427,103.927,106.985,110.043,115.543,121.043,124.101,129.601,134.485,139.985,143.043,145.793,148.543,151.886,157.386,162.886,165.944,171.444,174.502,179.386,182.444,187.328,192.828,195.578,198.922,204.422,209.922,215.422,219.085,224.585,230.085,235.585,238.643,244.143,247.201,252.701,257.585,263.085,267.969,270.719,274.065,277.728,285.065,293.007,299.728,303.391,306.141" svgx:width="0.44,0.5,0.28,0.28,0.5,0.5,0.28,0.5,0.44,0.5,0.28,0.25,0.25,0.55,0.5,0.5,0.28,0.5,0.28,0.44,0.28,0.44,0.5,0.25,0.55,0.5,0.5,0.5,0.33,0.5,0.5,0.5,0.28,0.5,0.28,0.5,0.44,0.5,0.44,0.25,0.55,0.33,0.67,0.72,0.61,0.33,0.25,0.25" style="fill:rgb(23,22,21);font-family:TimesNewRomanPSMT;font-size:11.0px;stroke:none;">antioxidant, butylated hydroxytoluene (BHT), </text>
  </g>
  <g begin="text">
   <text y="615.68" x="93.543,98.427,102.706,107.59,113.09,116.753,122.253,125.311,130.195,132.945,138.447,143.331,148.215,151.273,156.773,159.523,165.026,169.91,175.41,180.91,183.66,189.166,194.93,198.593,201.651,207.151,212.035,217.535,223.035,228.535,233.419,237.082,242.582,245.64,248.39,253.889,258.773,263.052,265.802,271.31,276.81,282.31,286.589,289.647,292.705,295.763,301.263,306.147" svgx:width="0.44,0.39,0.44,0.5,0.33,0.5,0.28,0.44,0.25,0.55,0.44,0.44,0.28,0.5,0.25,0.55,0.44,0.5,0.5,0.25,0.55,0.52,0.33,0.28,0.5,0.44,0.5,0.5,0.5,0.44,0.33,0.5,0.28,0.25,0.55,0.44,0.39,0.25,0.55,0.5,0.5,0.39,0.28,0.28,0.28,0.5,0.44,0.25" style="fill:rgb(23,22,21);font-family:TimesNewRomanPSMT;font-size:11.0px;stroke:none;">ascorbic acid and α-tocopherol as positive </text>
  </g>
  <g begin="text">
   <text y="628.679" x="93.543,98.427,103.927,109.427,112.485,116.148,121.648,124.706,128.985,131.735,134.485,138.654,143.538,149.038,154.538,157.288,161.457,166.341,169.091,173.26,178.76,181.818,186.702,192.202,197.702,200.452,203.202,206.763,214.705,218.368,221.426,226.31,229.973,232.723,236.892,239.95,245.45,248.508,252.787,255.537,259.706,262.764,268.264,273.148,278.648,284.148,289.032,292.09,295.148,300.648,306.148" svgx:width="0.44,0.5,0.5,0.28,0.33,0.5,0.28,0.39,0.25,0.25,0.55,0.44,0.5,0.5,0.25,0.55,0.44,0.25,0.55,0.5,0.28,0.44,0.5,0.5,0.25,0.25,0.55,0.72,0.33,0.28,0.44,0.33,0.25,0.55,0.28,0.5,0.28,0.39,0.25,0.55,0.28,0.5,0.44,0.5,0.5,0.44,0.28,0.28,0.5,0.5,0.25" style="fill:rgb(23,22,21);font-family:TimesNewRomanPSMT;font-size:11.0px;stroke:none;">controls, and a blank. After this incubation </text>
  </g>
  <g begin="text">
   <text y="641.679" x="93.543,99.043,103.927,107.59,110.648,116.148,121.648,124.398,127.148,130.2,133.258,138.758,143.642,146.392,149.443,152.193,155.251,160.135,165.635,169.914,175.414,179.077,184.577,189.461,194.961,199.845,204.729,207.479,210.53,216.03,219.693,222.443,225.501,228.559,234.059,238.943,241.693,244.744,253.302,256.36,261.86,264.918,270.418,274.081,278.965,283.244,285.994,289.043,296.985,301.869,306.148" svgx:width="0.5,0.44,0.33,0.28,0.5,0.5,0.25,0.25,0.55,0.28,0.5,0.44,0.25,0.55,0.25,0.55,0.44,0.5,0.39,0.5,0.33,0.5,0.44,0.5,0.44,0.44,0.25,0.55,0.5,0.33,0.25,0.55,0.28,0.5,0.44,0.25,0.55,0.78,0.28,0.5,0.28,0.5,0.33,0.44,0.39,0.25,0.55,0.72,0.44,0.39,0.25" style="fill:rgb(23,22,21);font-family:TimesNewRomanPSMT;font-size:11.0px;stroke:none;">period, the absorbance of the mixtures was </text>
  </g>
  <g begin="text">
   <text y="654.679" x="93.543,102.101,106.985,111.869,116.148,121.648,125.311,130.195,135.695,138.445,139.61,144.494,147.552,150.302,151.468,156.968,162.468,167.968,170.718,171.889,177.389,185.947,188.697,192.008,199.95,205.45,208.508,211.566,217.066,222.566,225.624,231.124,236.008,239.066,242.124,247.624,252.508,255.258,256.417,261.301,266.185,271.685,276.569,281.453,284.511,287.569,293.069,295.819,296.978,302.478,306.141" svgx:width="0.78,0.44,0.44,0.39,0.5,0.33,0.44,0.5,0.25,0.55,0.44,0.28,0.25,0.55,0.5,0.5,0.5,0.25,0.55,0.5,0.78,0.25,0.25,0.72,0.5,0.28,0.28,0.5,0.5,0.28,0.5,0.44,0.28,0.28,0.5,0.44,0.25,0.55,0.44,0.44,0.5,0.44,0.44,0.28,0.28,0.5,0.25,0.55,0.5,0.33,0.25" style="fill:rgb(23,22,21);font-family:TimesNewRomanPSMT;font-size:11.0px;stroke:none;">measured at 490 nm. Antioxidative capacity of </text>
  </g>
  <g begin="text">
   <text y="667.678" x="93.543,96.601,102.101,106.985,110.197,115.081,119.36,123.639,128.523,134.023,137.081,140.139,145.023,148.081,151.287,156.787,159.845,162.903,166.115,174.057,178.941,183.22,186.432,191.316,196.816,205.374,210.874,215.758,219.421,224.305,229.805,233.01,240.952,244.01,247.068,252.568,255.78,258.838,264.338,269.838,274.117,279.001,282.213,289.55,297.492,303.397,306.147" svgx:width="0.28,0.5,0.44,0.25,0.44,0.39,0.39,0.44,0.5,0.28,0.28,0.44,0.28,0.25,0.5,0.28,0.28,0.25,0.72,0.44,0.39,0.25,0.44,0.5,0.78,0.5,0.44,0.33,0.44,0.5,0.25,0.72,0.28,0.28,0.5,0.25,0.28,0.5,0.5,0.39,0.44,0.25,0.67,0.72,0.61,0.25,0.25" style="fill:rgb(23,22,21);font-family:TimesNewRomanPSMT;font-size:11.0px;stroke:none;">the essential oil was compared with those BHT, </text>
  </g>
  <g begin="text">
   <text y="680.678" x="93.543,98.427,102.706,107.59,113.09,116.753,122.253,125.311,130.195,133.104,137.988,142.872,145.93,151.43,154.18,157.088,160.751,163.809,169.309,174.193,179.693,185.193,190.693,195.577,199.24,204.74,207.798,210.704,215.588,221.088,226.588,229.503,235.003,238.061,242.945,248.445,253.945,256.695,259.407,265.358,270.242,274.521,277.579,281.858,284.773,292.715,297.599,301.262,306.146" svgx:width="0.44,0.39,0.44,0.5,0.33,0.5,0.28,0.44,0.25,0.44,0.44,0.28,0.5,0.25,0.25,0.33,0.28,0.5,0.44,0.5,0.5,0.5,0.44,0.33,0.5,0.28,0.25,0.44,0.5,0.5,0.25,0.5,0.28,0.44,0.5,0.5,0.25,0.25,0.61,0.44,0.39,0.28,0.39,0.25,0.72,0.44,0.33,0.44,0.25" style="fill:rgb(23,22,21);font-family:TimesNewRomanPSMT;font-size:11.0px;stroke:none;">ascorbic acid, -tocopherol and blank. Tests were </text>
  </g>
  <g begin="text">
   <text y="693.678" x="93.543,98.427,103.311,106.974,110.637,113.695,118.579,124.079,126.829,132.329,137.829,140.887,143.637,146.695,152.195,154.945,158.003,161.666,164.724,170.224,173.282,176.34,181.224,186.108,189.166,194.05" svgx:width="0.44,0.44,0.33,0.33,0.28,0.44,0.5,0.25,0.5,0.5,0.28,0.25,0.28,0.5,0.25,0.28,0.33,0.28,0.5,0.28,0.28,0.44,0.44,0.28,0.44,0.25" style="fill:rgb(23,22,21);font-family:TimesNewRomanPSMT;font-size:11.0px;stroke:none;">carried out in triplicate.</text>
  </g>
  <g begin="text">
   <text y="719.677" x="107.716,115.053,119.938,122.995,126.053,128.803,131.861,134.919,140.419,145.303,149.583,152.333,157.833,163.333,168.833,171.583,176.467,181.351,184.409,187.467,190.217,195.101,200.601,203.659,206.717,212.217,216.068" svgx:width="0.67,0.44,0.28,0.28,0.25,0.28,0.28,0.5,0.44,0.39,0.25,0.5,0.5,0.5,0.25,0.44,0.44,0.28,0.28,0.25,0.44,0.5,0.28,0.28,0.5,0.39,0.44" style="fill:rgb(23,22,21);font-family:TimesNewRomanPS-ItalicMT;font-size:11.0px;stroke:none;">Cell lines and cell culture</text>
  </g>
  <g begin="text">
   <text y="732.677" x="107.716,114.438,119.938,124.822,127.572,133.049,138.549,143.434,148.934,153.818,156.876,162.376,170.934,175.811,178.561,184.039,191.981,197.481,200.231,205.709,210.593,215.477,218.535,221.593,225.872,228.622,234.1,237.763,245.705,250.589,256.089,258.839,264.317,272.259,277.759,281.422,284.172,289.65,292.708,295.766,301.266,306.15" svgx:width="0.61,0.5,0.44,0.25,0.55,0.5,0.44,0.5,0.44,0.28,0.5,0.78,0.44,0.25,0.55,0.72,0.5,0.25,0.55,0.44,0.44,0.28,0.28,0.39,0.25,0.55,0.33,0.72,0.44,0.5,0.25,0.55,0.72,0.5,0.33,0.25,0.55,0.28,0.28,0.5,0.44,0.25" style="fill:rgb(23,22,21);font-family:TimesNewRomanPSMT;font-size:11.0px;stroke:none;">The hepatoma G2 cells (Hep G2) line </text>
  </g>
  <g begin="text">
   <text y="745.677" x="93.543,97.206,102.706,108.206,111.869,116.753,122.253,127.137,131.416,136.3,141.8,144.55,153.191,156.854,160.517,166.017,174.575,177.325,185.359,193.301,201.859,206.743,210.406,213.464,218.348,223.232,228.732,231.482,239.92,245.871,251.371,256.871,261.755,264.505,273.151,280.488,285.988,289.046,292.104,297.604,301.267,306.151" svgx:width="0.33,0.5,0.5,0.33,0.44,0.5,0.44,0.39,0.44,0.5,0.25,0.55,0.33,0.33,0.5,0.78,0.25,0.55,0.72,0.78,0.44,0.33,0.28,0.44,0.44,0.5,0.25,0.55,0.61,0.5,0.5,0.44,0.25,0.55,0.67,0.5,0.28,0.28,0.5,0.33,0.44,0.25" style="fill:rgb(23,22,21);font-family:TimesNewRomanPSMT;font-size:11.0px;stroke:none;">(purchased from American Type Culture </text>
  </g>
  <g begin="text">
   <text y="108.692" x="325.984,333.321,338.821,341.879,344.937,349.821,354.705,357.763,360.821,366.321,371.821,375.484,378.234,379.978,387.92,392.804,397.083,399.833,401.593,407.093,411.372,416.256,421.756,424.506,426.266,429.324,434.824,437.574,439.326,442.384,447.884,450.942,455.221,457.971,459.726,464.005,467.063,472.563,478.063,482.848,485.598,488.348,490.102,497.439,502.323,505.381,508.439,512.718,515.468,517.219,525.161,530.045,533.708,538.592" svgx:width="0.67,0.5,0.28,0.28,0.44,0.44,0.28,0.28,0.5,0.5,0.33,0.25,0.55,0.72,0.44,0.39,0.25,0.55,0.5,0.39,0.44,0.5,0.25,0.55,0.28,0.5,0.25,0.55,0.28,0.5,0.28,0.39,0.25,0.55,0.39,0.28,0.5,0.5,0.5,0.25,0.25,0.55,0.67,0.44,0.28,0.28,0.39,0.25,0.55,0.72,0.44,0.33,0.44,0.25" style="fill:rgb(23,22,21);font-family:TimesNewRomanPSMT;font-size:11.0px;stroke:none;">Collection) was used in this study. Cells were </text>
  </g>
  <g begin="text">
   <text y="121.692" x="325.984,331.484,335.147,340.647,348.589,354.089,356.839,358.357,361.415,366.915,369.665,371.183,380.962,384.02,389.52,392.578,401.136,406.636,415.194,417.944,419.456,426.177,430.456,434.735,439.619,445.119,448.177,451.235,456.119,459.177,461.927,463.436,473.215,478.099,483.599,486.657,492.157,500.715,503.465,504.977,508.64,518.419,525.14,534.919,538.582" svgx:width="0.5,0.33,0.5,0.72,0.5,0.25,0.55,0.28,0.5,0.25,0.55,0.89,0.28,0.5,0.28,0.78,0.5,0.78,0.25,0.55,0.61,0.39,0.39,0.44,0.5,0.28,0.28,0.44,0.28,0.25,0.55,0.89,0.44,0.5,0.28,0.5,0.78,0.25,0.55,0.33,0.89,0.61,0.89,0.33,0.25" style="fill:rgb(23,22,21);font-family:TimesNewRomanPSMT;font-size:11.0px;stroke:none;">grown in Minimum Essential Medium (MEM) </text>
  </g>
  <g begin="text">
   <text y="134.691" x="325.984,330.263,335.763,341.263,346.763,349.821,354.705,363.263,368.147,373.647,376.705,381.589,387.089,389.839,395.264,403.206,406.264,409.322,414.822,417.572,423.006,428.506,434.006,443.169,445.919,451.353,455.016,460.516,463.574,469.074,472.737,475.487,480.921,484.584,489.468,492.526,497.41,500.468,503.218,508.646,514.146,519.646,525.146,528.204,533.704,538.588" svgx:width="0.39,0.5,0.5,0.5,0.28,0.44,0.78,0.44,0.5,0.28,0.44,0.5,0.25,0.55,0.72,0.28,0.28,0.5,0.25,0.55,0.5,0.5,0.83,0.25,0.55,0.33,0.5,0.28,0.5,0.33,0.25,0.55,0.33,0.44,0.28,0.44,0.28,0.25,0.55,0.5,0.5,0.5,0.28,0.5,0.44,0.25" style="fill:rgb(23,22,21);font-family:TimesNewRomanPSMT;font-size:11.0px;stroke:none;">supplemented with 10% (v/v) fetal bovine </text>
  </g>
  <g begin="text">
   <text y="147.691" x="325.984,330.263,335.147,338.81,344.31,352.868,355.618,358.368,359.204,364.704,373.867,376.617,377.453,381.116,386.616,389.674,395.174,398.837,401.587,402.423,407.307,412.807,415.865,418.923,424.423,427.481,432.981,436.039,439.097,443.981,447.644,452.528,458.014,461.072,464.13,472.688,478.188,483.072,488.572,491.63,494.688,499.572,503.143,507.422,512.922,515.98,521.48,524.538,527.596,533.096,538.596" svgx:width="0.39,0.44,0.33,0.5,0.78,0.25,0.25,0.55,0.5,0.83,0.25,0.55,0.33,0.5,0.28,0.5,0.33,0.25,0.55,0.44,0.5,0.28,0.28,0.5,0.28,0.5,0.28,0.28,0.44,0.33,0.44,0.5,0.28,0.28,0.78,0.5,0.44,0.5,0.28,0.28,0.44,0.25,0.39,0.5,0.28,0.5,0.28,0.28,0.5,0.5,0.25" style="fill:rgb(23,22,21);font-family:TimesNewRomanPSMT;font-size:11.0px;stroke:none;">serum, 1% (v/v) antibiotic-antimycotic solution </text>
  </g>
  <g begin="text">
   <text y="160.691" x="325.984,329.042,334.542,338.074,342.958,346.493,351.993,357.493,366.051,369.109,374.609,377.667,383.783,388.667,394.167,397.701,402.585,405.643,414.201,419.701,423.98,429.48,434.98,439.864,443.527,448.411,451.939,456.823,462.323,467.823,470.881,475.765,478.823,484.323,487.381,492.881,498.381,501.908,507.408,516.571,520.106,527.443" svgx:width="0.28,0.5,0.25,0.44,0.25,0.5,0.5,0.78,0.28,0.5,0.28,0.56,0.44,0.5,0.25,0.44,0.28,0.78,0.5,0.39,0.5,0.5,0.44,0.33,0.44,0.25,0.44,0.5,0.5,0.28,0.44,0.28,0.5,0.28,0.5,0.5,0.25,0.5,0.83,0.25,0.67,0.72" style="fill:rgb(23,22,21);font-family:TimesNewRomanPSMT;font-size:11.0px;stroke:none;">in a humidified atmosphere containing 5% CO</text>
  </g>
  <g begin="text">
   <text y="164.354" x="535.376" svgx:width="0.5" style="fill:rgb(23,22,21);font-family:TimesNewRomanPSMT;font-size:6.41px;stroke:none;">2</text>
  </g>
  <g begin="text">
   <text y="160.691" x="538.583" svgx:width="0.25" style="fill:rgb(23,22,21);font-family:TimesNewRomanPSMT;font-size:11.0px;stroke:none;"> </text>
  </g>
  <g begin="text">
   <text y="173.69" x="325.984,330.868,333.926,336.676,337.668,343.168,348.668,353.068,360.405,363.155,365.905,366.9,373.016,378.516,382.179,384.929,385.93,390.209,395.709,401.209,406.093,411.593,414.651,417.709,423.209,426.872,429.93,435.43,440.93,443.68,446.43,447.42,452.304,457.188,460.246,463.304,467.583,470.333,471.323,479.265,484.149,487.812,492.696,495.446,496.44,501.94,506.824,510.487,515.987,520.871,525.15,528.208,533.092,538.592" svgx:width="0.44,0.28,0.25,0.55,0.5,0.5,0.4,0.67,0.25,0.25,0.55,0.56,0.5,0.33,0.25,0.55,0.39,0.5,0.5,0.44,0.5,0.28,0.28,0.5,0.33,0.28,0.5,0.5,0.25,0.25,0.55,0.44,0.44,0.28,0.28,0.39,0.25,0.55,0.72,0.44,0.33,0.44,0.25,0.55,0.5,0.44,0.33,0.5,0.44,0.39,0.28,0.44,0.5,0.25" style="fill:rgb(23,22,21);font-family:TimesNewRomanPSMT;font-size:11.0px;stroke:none;">at 37°C. For subculturing, cells were harvested </text>
  </g>
  <g begin="text">
   <text y="186.69" x="325.984,330.868,334.531,337.589,342.473,346.136,348.886,357.455,360.513,364.176,369.676,375.176,379.455,382.513,388.013,391.071,395.955,399.013,404.513,410.013,413.071,417.955,423.455,428.339,433.839,436.897,441.781,450.339,453.397,458.897,463.781,466.839,471.723,474.781,478.444,483.328,488.212,493.096,497.98,501.038,504.096,508.98,511.73,520.264,525.148,530.032,533.09,538.59" svgx:width="0.44,0.33,0.28,0.44,0.33,0.25,0.55,0.28,0.33,0.5,0.5,0.39,0.28,0.5,0.28,0.44,0.28,0.5,0.5,0.28,0.44,0.5,0.44,0.5,0.28,0.44,0.78,0.28,0.5,0.44,0.28,0.44,0.28,0.33,0.44,0.44,0.44,0.44,0.28,0.28,0.44,0.25,0.55,0.44,0.44,0.28,0.5,0.25" style="fill:rgb(23,22,21);font-family:TimesNewRomanPSMT;font-size:11.0px;stroke:none;">after trypsin/ethylenediaminetetraacetic acid </text>
  </g>
  <g begin="text">
   <text y="199.69" x="325.984,329.042,332.705,337.589,342.473,345.531,354.089,358.973,364.473,367.531,370.281,375.797,380.681,383.739,386.489,392.013,397.513,403.013,407.413,414.75,417.5,420.25,425.776,433.113,437.997,441.055,444.113,448.392,451.142,456.666,464.608,469.492,473.155,478.039,480.789,486.316,491.816,496.095,500.979,506.479,509.229,514.756,522.698,528.198,533.082,538.582" svgx:width="0.28,0.33,0.44,0.44,0.28,0.78,0.44,0.5,0.28,0.25,0.55,0.44,0.28,0.25,0.55,0.5,0.5,0.4,0.67,0.25,0.25,0.55,0.67,0.44,0.28,0.28,0.39,0.25,0.55,0.72,0.44,0.33,0.44,0.25,0.55,0.5,0.39,0.44,0.5,0.25,0.55,0.72,0.5,0.44,0.5,0.25" style="fill:rgb(23,22,21);font-family:TimesNewRomanPSMT;font-size:11.0px;stroke:none;">treatment at 37°C. Cells were used when </text>
  </g>
  <g begin="text">
   <text y="212.689" x="325.984,334.542,340.042,345.542,351.042,354.1,358.984,364.484,369.368,373.031,375.781,380.665,386.165,391.665,397.781,403.281,408.165,413.665,418.549,423.433,426.183,431.683,436.567,442.067,444.817,448.48,453.364,458.248,463.132,468.632,473.516,479.016,481.766,487.266,492.766,501.929" svgx:width="0.78,0.5,0.5,0.5,0.28,0.44,0.5,0.44,0.33,0.25,0.44,0.5,0.5,0.56,0.5,0.44,0.5,0.44,0.44,0.25,0.5,0.44,0.5,0.25,0.33,0.44,0.44,0.44,0.5,0.44,0.5,0.25,0.5,0.5,0.83,0.25" style="fill:rgb(23,22,21);font-family:TimesNewRomanPSMT;font-size:11.0px;stroke:none;">monolayer confluence had reached 75%.</text>
  </g>
  <g begin="text">
   <text y="238.689" x="340.157,347.494,352.378,355.436,360.936,363.994,369.494,374.378,377.436,382.32,385.378,388.436,393.32,396.07,401.57,405.849,410.128,415.628" svgx:width="0.67,0.44,0.28,0.5,0.28,0.5,0.44,0.28,0.44,0.28,0.28,0.44,0.25,0.5,0.39,0.39,0.5,0.44" style="fill:rgb(23,22,21);font-family:TimesNewRomanPS-ItalicMT;font-size:11.0px;stroke:none;">Cytotoxicity assay</text>
  </g>
  <g begin="text">
   <text y="251.689" x="340.157,346.878,352.378,357.262,358.565,363.449,368.333,371.391,374.442,378.721,380.029,387.971,392.855,396.518,401.402,402.707,406.986,411.87,416.754,422.254,427.138,432.638,433.941,436.999,442.499,445.557,451.057,452.36,457.86,463.36,467.023,474.965,479.849,482.907,485.965,487.265,495.823,498.881,503.765,507.428,512.928,518.428,521.486,526.37,529.428,534.312,538.591" svgx:width="0.61,0.5,0.44,0.25,0.44,0.44,0.28,0.28,0.39,0.25,0.72,0.44,0.33,0.44,0.25,0.39,0.44,0.44,0.5,0.44,0.5,0.25,0.28,0.5,0.28,0.5,0.25,0.5,0.5,0.33,0.72,0.44,0.28,0.28,0.25,0.78,0.28,0.44,0.33,0.5,0.5,0.28,0.44,0.28,0.44,0.39,0.25" style="fill:rgb(23,22,21);font-family:TimesNewRomanPSMT;font-size:11.0px;stroke:none;">The cells were seeded into 96-well microplates </text>
  </g>
  <g begin="text">
   <text y="264.688" x="325.984,329.647,335.147,341.351,346.851" svgx:width="0.33,0.5,0.56,0.5,0.5" style="fill:rgb(23,22,21);font-family:TimesNewRomanPSMT;font-size:11.0px;stroke:none;">(1×10</text>
  </g>
  <g begin="text">
   <text y="261.025" x="352.351" svgx:width="0.5" style="fill:rgb(23,22,21);font-family:TimesNewRomanPSMT;font-size:6.41px;stroke:none;">4</text>
  </g>
  <g begin="text">
   <text y="264.688" x="355.557,358.307,360.474,365.358,370.242,373.3,376.358,380.637,383.387,385.554,393.496,398.38,401.438" svgx:width="0.25,0.55,0.44,0.44,0.28,0.28,0.39,0.25,0.55,0.72,0.44,0.28,0.28" style="fill:rgb(23,22,21);font-family:TimesNewRomanPSMT;font-size:11.0px;stroke:none;"> cells well</text>
  </g>
  <g begin="text">
   <text y="261.025" x="404.497,408.114" svgx:width="0.56,0.5" style="fill:rgb(23,22,21);font-family:TimesNewRomanPSMT;font-size:6.41px;stroke:none;">−1</text>
  </g>
  <g begin="text">
   <text y="264.688" x="411.32,414.983,417.733,419.9,423.563,429.063,432.726,435.476,437.643,443.143,448.643,451.393,453.56,459.06,461.81,463.977,468.861,474.361,479.861,482.611,484.778,487.836,493.336,498.22,503.72,506.47,508.637,511.695,515.358,520.242,525.126,528.184,533.068,538.568" svgx:width="0.33,0.25,0.55,0.33,0.5,0.33,0.25,0.55,0.5,0.5,0.25,0.55,0.5,0.25,0.55,0.44,0.5,0.5,0.25,0.55,0.28,0.5,0.44,0.5,0.25,0.55,0.28,0.33,0.44,0.44,0.28,0.44,0.5,0.25" style="fill:rgb(23,22,21);font-family:TimesNewRomanPSMT;font-size:11.0px;stroke:none;">) for 24 h and then treated </text>
  </g>
  <g begin="text">
   <text y="277.688" x="325.984,333.926,336.984,340.042,345.542,348.732,354.232,357.29,360.752,364.415,369.299,372.962,377.846,383.346,386.404,389.594,394.478,399.978,405.478,410.362,415.246,420.746,423.804,427.467,432.351,435.409,438.467,443.967,449.467,453.746,456.927,462.427,466.09,469.28,472.338,477.838,482.722,485.912,490.796,495.075,499.354,504.238,509.738,512.796,515.854,520.738,523.796,526.98,532.48,535.538,538.596" svgx:width="0.72,0.28,0.28,0.5,0.25,0.5,0.28,0.33,0.33,0.44,0.33,0.44,0.5,0.28,0.25,0.44,0.5,0.5,0.44,0.44,0.5,0.28,0.33,0.44,0.28,0.28,0.5,0.5,0.39,0.25,0.5,0.33,0.25,0.28,0.5,0.44,0.25,0.44,0.39,0.39,0.44,0.5,0.28,0.28,0.44,0.28,0.25,0.5,0.28,0.28,0.25" style="fill:rgb(23,22,21);font-family:TimesNewRomanPSMT;font-size:11.0px;stroke:none;">with different concentrations of the essential oil </text>
  </g>
  <g begin="text">
   <text y="290.688" x="325.984,330.868,336.368,341.868,344.618,346.358,349.416,352.474,357.974,362.858,365.916,371.416,376.916,379.974,382.724,384.457,388.12,393.62,397.283,402.783,408.283,413.783,416.533,418.274,424.17,429.67,432.728,441.286,448.007,451.67,454.42,456.158,459.821,465.321,468.984,471.734,473.476,478.976,484.476,487.226,489.976,491.717,497.217,502.717,505.467,507.209,512.093,517.593,523.093,525.843,527.582,533.082,538.582" svgx:width="0.44,0.5,0.5,0.25,0.55,0.28,0.28,0.5,0.44,0.28,0.5,0.5,0.28,0.25,0.55,0.33,0.5,0.33,0.5,0.5,0.5,0.25,0.55,0.54,0.5,0.28,0.78,0.61,0.33,0.25,0.55,0.33,0.5,0.33,0.25,0.55,0.5,0.5,0.25,0.25,0.55,0.5,0.5,0.25,0.55,0.44,0.5,0.5,0.25,0.55,0.5,0.5,0.25" style="fill:rgb(23,22,21);font-family:TimesNewRomanPSMT;font-size:11.0px;stroke:none;">and linalool (5-500 μg/mL) for 24, 48 and 72 </text>
  </g>
  <g begin="text">
   <text y="303.687" x="325.984,331.484,334.234,336.984,338.205,345.542,351.042,354.1,359.6,362.658,368.158,373.658,376.716,381.6,384.658,387.716,393.206,395.956,397.177,402.677,406.34,409.09,410.311,413.369,418.869,423.753,426.503,427.717,432.601,436.88,441.159,446.043,451.543,454.601,457.659,462.543,465.601,468.351,469.562,475.062,478.12,481.178,483.928,485.141,490.025,495.525,501.025,503.775,504.991,508.049,511.107,516.607,521.491,524.549,530.049,535.549,538.607" svgx:width="0.5,0.25,0.25,0.55,0.67,0.5,0.28,0.5,0.28,0.5,0.5,0.28,0.44,0.28,0.28,0.5,0.25,0.55,0.5,0.33,0.25,0.55,0.28,0.5,0.44,0.25,0.55,0.44,0.39,0.39,0.44,0.5,0.28,0.28,0.44,0.28,0.25,0.55,0.5,0.28,0.28,0.25,0.55,0.44,0.5,0.5,0.25,0.55,0.28,0.28,0.5,0.44,0.28,0.5,0.5,0.28,0.25" style="fill:rgb(23,22,21);font-family:TimesNewRomanPSMT;font-size:11.0px;stroke:none;">h. Cytotoxicity of the essential oil and linalool </text>
  </g>
  <g begin="text">
   <text y="316.687" x="325.984,333.926,338.81,343.089,345.839,347.456,352.34,356.619,360.898,365.782,371.282,376.166,381.666,384.416,386.025,391.525,397.025,399.775,401.387,408.724,413.608,416.666,419.724,426.051,429.109,432.167,437.051,440.489,444.152,451.489,454.547,460.047,464.931,473.291,476.041,477.648,484.985,489.869,492.927,495.985,498.735,500.142,507.425,510.483,515.367,520.867,523.925,526.983,530.041,533.099,538.599" svgx:width="0.72,0.44,0.39,0.25,0.55,0.44,0.39,0.39,0.44,0.5,0.44,0.5,0.25,0.55,0.5,0.5,0.25,0.55,0.67,0.44,0.28,0.28,0.61,0.28,0.28,0.44,0.33,0.33,0.67,0.28,0.5,0.44,0.76,0.25,0.55,0.67,0.44,0.28,0.28,0.25,0.55,0.72,0.28,0.44,0.5,0.28,0.28,0.28,0.28,0.5,0.25" style="fill:rgb(23,22,21);font-family:TimesNewRomanPSMT;font-size:11.0px;stroke:none;">was assayed by CellTiter-Blue® Cell Viability </text>
  </g>
  <g begin="text">
   <text y="329.687" x="325.984,333.926,338.205,342.484,347.368,352.158,354.908,357.286,364.007,369.507,374.391,376.965,381.849,386.128,390.407,395.291,400.791,403.365,406.423,410.702,413.276,418.776,423.66,427.939,432.823,438.323,440.897,446.397,451.897,454.471,457.529,463.029,467.913,470.487,475.371,480.871,483.929,486.987,490.045,493.103,498.603,501.17,506.67,510.333,512.907,515.965,519.023,524.523,527.581,533.081,538.581" svgx:width="0.72,0.39,0.39,0.44,0.5,0.25,0.25,0.61,0.5,0.44,0.25,0.44,0.39,0.39,0.44,0.5,0.25,0.28,0.39,0.25,0.5,0.44,0.39,0.44,0.5,0.25,0.5,0.5,0.25,0.28,0.5,0.44,0.25,0.44,0.5,0.28,0.28,0.28,0.28,0.5,0.25,0.5,0.33,0.25,0.28,0.28,0.5,0.28,0.5,0.5,0.25" style="fill:rgb(23,22,21);font-family:TimesNewRomanPSMT;font-size:11.0px;stroke:none;">Assay. The assay is based on the ability of living </text>
  </g>
  <g begin="text">
   <text y="342.686" x="325.984,330.868,335.752,338.81,341.868,346.147,348.897,350.575,353.633,359.133,361.883,363.566,368.45,373.95,379.45,384.95,389.834,393.497,396.555,399.305,400.982,405.866,408.616,410.299,413.962,418.846,424.346,429.846,435.346,438.096,439.779,445.279,450.779,455.663,458.413,460.096,463.759,467.422,472.306,476.585,481.469,486.353,491.853,495.516,498.574,504.074,507.737,510.487,512.165,515.223,520.723,523.781,529.281,532.031,533.714,538.598" svgx:width="0.44,0.44,0.28,0.28,0.39,0.25,0.55,0.28,0.5,0.25,0.55,0.44,0.5,0.5,0.5,0.44,0.33,0.28,0.25,0.55,0.44,0.25,0.55,0.33,0.44,0.5,0.5,0.5,0.25,0.55,0.5,0.5,0.44,0.25,0.55,0.33,0.33,0.44,0.39,0.44,0.44,0.5,0.33,0.28,0.5,0.33,0.25,0.55,0.28,0.5,0.28,0.5,0.25,0.55,0.44,0.25" style="fill:rgb(23,22,21);font-family:TimesNewRomanPSMT;font-size:11.0px;stroke:none;">cells to convert a redox dye (resazurin) into a </text>
  </g>
  <g begin="text">
   <text y="355.686" x="325.984,332.1,337.6,343.1,346.763,351.647,355.926,360.81,365.694,371.194,374.252,377.002,379.06,383.944,389.444,394.944,397.694,399.754,405.254,408.917,414.417,419.917,425.417,430.301,433.359,436.109,438.166,441.829,445.492,450.376,454.655,460.155,463.818,469.318,472.98,476.039,481.539,485.202,487.952,490.702,492.761,500.703,506.203,511.703,517.203,520.261,525.145,530.645,533.703,538.587" svgx:width="0.56,0.5,0.5,0.33,0.44,0.39,0.44,0.44,0.5,0.28,0.25,0.55,0.44,0.5,0.5,0.25,0.55,0.5,0.33,0.5,0.5,0.5,0.44,0.28,0.25,0.55,0.33,0.33,0.44,0.39,0.5,0.33,0.5,0.33,0.28,0.5,0.33,0.25,0.25,0.55,0.72,0.5,0.5,0.5,0.28,0.44,0.5,0.28,0.44,0.25" style="fill:rgb(23,22,21);font-family:TimesNewRomanPSMT;font-size:11.0px;stroke:none;">fluorescent end product (resofurin). Nonviable </text>
  </g>
  <g begin="text">
   <text y="368.686" x="325.984,330.868,335.752,338.81,341.868,346.147,348.765,352.428,357.312,362.812,365.87,371.37,374.428,379.928,382.546,385.604,391.104,395.383,400.267,402.885,411.443,416.327,419.385,424.269,429.769,435.269,438.327,441.385,446.269,448.875,453.759,458.643,464.143,469.027,473.911,476.969,480.027,485.527,488.139,493.023,498.523,504.023,506.641,509.699,515.199,520.699,524.978,527.596,533.096,538.596" svgx:width="0.44,0.44,0.28,0.28,0.39,0.25,0.33,0.44,0.5,0.28,0.5,0.28,0.5,0.25,0.28,0.5,0.39,0.44,0.25,0.78,0.44,0.28,0.44,0.5,0.5,0.28,0.28,0.44,0.25,0.44,0.44,0.5,0.44,0.44,0.28,0.28,0.5,0.25,0.44,0.5,0.5,0.25,0.28,0.5,0.5,0.39,0.25,0.5,0.5,0.25" style="fill:rgb(23,22,21);font-family:TimesNewRomanPSMT;font-size:11.0px;stroke:none;">cells rapidly lose metabolic capacity and thus do </text>
  </g>
  <g begin="text">
   <text y="381.685" x="325.984,331.484,336.984,340.042,342.635,348.135,353.019,358.519,363.403,367.066,371.95,375.008,379.892,382.479,387.363,389.956,396.072,401.572,407.072,410.735,415.619,419.898,424.782,429.666,435.166,438.224,440.814,445.093,448.151,453.651,459.151,464.035,467.093,469.685,473.348,478.848,484.348,488.011,490.761,493.355,499.471,504.971,508.029,511.087,516.587,524.529,527.587,533.087,538.587" svgx:width="0.5,0.5,0.28,0.25,0.5,0.44,0.5,0.44,0.33,0.44,0.28,0.44,0.25,0.44,0.25,0.56,0.5,0.5,0.33,0.44,0.39,0.44,0.44,0.5,0.28,0.25,0.39,0.28,0.5,0.5,0.44,0.28,0.25,0.33,0.5,0.5,0.33,0.25,0.25,0.56,0.5,0.28,0.28,0.5,0.72,0.28,0.5,0.5,0.25" style="fill:rgb(23,22,21);font-family:TimesNewRomanPSMT;font-size:11.0px;stroke:none;">not generate a fluorescent signal (24). Following </text>
  </g>
  <g begin="text">
   <text y="394.685" x="325.984,330.868,335.752,338.81,341.868,347.368,350.426,355.31,358.973,361.723,364.284,367.947,372.831,378.331,383.831,388.715,391.773,394.831,400.331,405.831,408.581,411.331,413.901,420.017,425.517,431.017,434.68,439.564,443.843,448.727,453.611,459.111,463.995,468.879,471.629,474.196,477.254,481.533,484.283,486.855,490.518,495.402,500.286,505.786,509.449,514.949,519.833,525.333,528.083,530.65,535.534,538.592" svgx:width="0.44,0.44,0.28,0.28,0.5,0.28,0.44,0.33,0.25,0.55,0.33,0.44,0.5,0.5,0.44,0.28,0.28,0.5,0.5,0.25,0.25,0.55,0.56,0.5,0.5,0.33,0.44,0.39,0.44,0.44,0.5,0.44,0.44,0.25,0.55,0.28,0.39,0.25,0.55,0.33,0.44,0.44,0.5,0.33,0.5,0.44,0.5,0.25,0.55,0.44,0.28,0.25" style="fill:rgb(23,22,21);font-family:TimesNewRomanPSMT;font-size:11.0px;stroke:none;">cellular reduction, fluorescence is recorded at </text>
  </g>
  <g begin="text">
   <text y="407.685" x="325.984,331.484,336.984,342.484,345.234,346.433,351.933,360.491,363.241,364.44,369.324,374.824,379.708,382.766,385.824,390.699,393.757,396.815,402.315,407.815,410.874,416.374,421.874,427.374,430.124,431.316,436.816,445.374,448.124,449.321,454.205,462.763,465.821,470.1,474.379,477.437,482.937,488.437,492.716,495.466,498.216,499.215,505.936,511.436,516.32,519.07,520.265,525.765,530.649,533.707,538.591" svgx:width="0.5,0.5,0.5,0.25,0.55,0.5,0.78,0.25,0.55,0.44,0.5,0.44,0.28,0.28,0.44,0.28,0.28,0.5,0.5,0.28,0.5,0.5,0.5,0.25,0.55,0.5,0.78,0.25,0.55,0.44,0.78,0.28,0.39,0.39,0.28,0.5,0.5,0.39,0.25,0.25,0.55,0.61,0.5,0.44,0.25,0.55,0.5,0.44,0.28,0.44,0.25" style="fill:rgb(23,22,21);font-family:TimesNewRomanPSMT;font-size:11.0px;stroke:none;">560 nm excitation/590 nm emissions. The data </text>
  </g>
  <g begin="text">
   <text y="420.684" x="325.984,333.926,338.81,342.473,347.357,350.217,355.101,360.601,366.101,369.764,374.648,378.927,383.206,388.09,393.59,396.445,401.329,405.608,408.468,413.352,418.852,423.736,427.399,432.283,437.783,442.667,445.517,451.017,455.901,458.959,464.459,469.343,473.622,476.475,481.975,487.475,490.533,495.417,498.475,503.975,508.859,514.359,517.208,520.871,524.534,530.034,538.592" svgx:width="0.72,0.44,0.33,0.44,0.25,0.44,0.5,0.5,0.33,0.44,0.39,0.39,0.44,0.5,0.25,0.44,0.39,0.25,0.44,0.5,0.44,0.33,0.44,0.5,0.44,0.25,0.5,0.44,0.28,0.5,0.44,0.39,0.25,0.5,0.5,0.28,0.44,0.28,0.5,0.44,0.5,0.25,0.33,0.33,0.5,0.78,0.25" style="fill:rgb(23,22,21);font-family:TimesNewRomanPSMT;font-size:11.0px;stroke:none;">were expressed as average values obtained from </text>
  </g>
  <g begin="text">
   <text y="433.684" x="325.984,330.868,333.926,339.426,344.926,347.984,350.054,357.996,362.88,365.938,368.996,373.275,375.347,379.01,384.51,388.173,390.252,395.136,400.02,404.904,410.404,412.474,417.358,422.858,428.358,433.242,438.126,443.626,446.684,450.347,455.222,458.28,461.338,466.838,472.338,475.088,476.962,483.683,489.183,494.067,496.139,499.802" svgx:width="0.44,0.28,0.5,0.5,0.28,0.25,0.72,0.44,0.28,0.28,0.39,0.25,0.33,0.5,0.33,0.25,0.44,0.44,0.44,0.5,0.25,0.44,0.5,0.5,0.44,0.44,0.5,0.28,0.33,0.44,0.28,0.28,0.5,0.5,0.25,0.25,0.61,0.5,0.44,0.25,0.33,0.67" style="fill:rgb(23,22,21);font-family:TimesNewRomanPSMT;font-size:11.0px;stroke:none;">eight wells for each concentration. The IC</text>
  </g>
  <g begin="text">
   <text y="437.347" x="507.139,510.345,513.552" svgx:width="0.5,0.5,0.25" style="fill:rgb(23,22,21);font-family:TimesNewRomanPSMT;font-size:6.41px;stroke:none;">50 </text>
  </g>
  <g begin="text">
   <text y="433.684" x="514.762,520.262,525.146,528.204,533.704,538.588" svgx:width="0.5,0.44,0.28,0.5,0.44,0.25" style="fill:rgb(23,22,21);font-family:TimesNewRomanPSMT;font-size:11.0px;stroke:none;">value </text>
  </g>
  <g begin="text">
   <text y="446.684" x="325.984,333.926,338.81,343.089,345.839,348.49,353.374,358.258,361.316,366.2,371.7,374.758,379.642,382.7,387.584,393.073,395.823,398.474,402.137,405.8,411.3,419.858,422.608,425.259,430.143,435.643,441.143,446.027,449.085,452.143,457.643,463.143,465.893,468.534,474.034,477.697,480.447,483.098,488.598,492.261,497.145,502.645,508.145,510.895,513.645,516.296" svgx:width="0.72,0.44,0.39,0.25,0.55,0.44,0.44,0.28,0.44,0.5,0.28,0.44,0.28,0.44,0.5,0.25,0.55,0.33,0.33,0.5,0.78,0.25,0.55,0.44,0.5,0.5,0.44,0.28,0.28,0.5,0.5,0.25,0.55,0.5,0.33,0.25,0.55,0.5,0.33,0.44,0.5,0.5,0.25,0.25,0.55,0.72" style="fill:rgb(23,22,21);font-family:TimesNewRomanPSMT;font-size:11.0px;stroke:none;">was calculated from equation of graph. H</text>
  </g>
  <g begin="text">
   <text y="450.347" x="524.226" svgx:width="0.5" style="fill:rgb(23,22,21);font-family:TimesNewRomanPSMT;font-size:6.41px;stroke:none;">2</text>
  </g>
  <g begin="text">
   <text y="446.684" x="527.432" svgx:width="0.72" style="fill:rgb(23,22,21);font-family:TimesNewRomanPSMT;font-size:11.0px;stroke:none;">O</text>
  </g>
  <g begin="text">
   <text y="450.347" x="535.376" svgx:width="0.5" style="fill:rgb(23,22,21);font-family:TimesNewRomanPSMT;font-size:6.41px;stroke:none;">2</text>
  </g>
  <g begin="text">
   <text y="446.684" x="538.583" svgx:width="0.25" style="fill:rgb(23,22,21);font-family:TimesNewRomanPSMT;font-size:11.0px;stroke:none;"> </text>
  </g>
  <g begin="text">
   <text y="459.683" x="325.984,330.868,336.368,339.426,344.926,347.984,353.484,358.984,362.042,366.926,369.984,373.042,378.542,381.237,386.737,392.237,394.943,399.827,404.711,410.211,415.095,419.979,423.642,426.343,431.227,436.111,439.169,442.227,446.506,449.212,457.154,462.038,466.317,469.023,477.581,482.465,487.349,491.628,497.128,500.791,505.675,511.175,513.881,516.939,522.439,525.145,528.203,533.703,538.587" svgx:width="0.44,0.5,0.28,0.5,0.28,0.5,0.5,0.28,0.44,0.28,0.28,0.5,0.25,0.5,0.5,0.25,0.44,0.44,0.5,0.44,0.44,0.33,0.25,0.44,0.44,0.28,0.28,0.39,0.25,0.72,0.44,0.39,0.25,0.78,0.44,0.44,0.39,0.5,0.33,0.44,0.5,0.25,0.28,0.5,0.25,0.28,0.5,0.44,0.25" style="fill:rgb(23,22,21);font-family:TimesNewRomanPSMT;font-size:11.0px;stroke:none;">cytotoxicity on cancer cells was measured in the </text>
  </g>
  <g begin="text">
   <text y="472.683" x="325.984,330.263,335.147,343.705,348.589,351.339,352.76,360.702,365.586,370.372,373.122,375.872,377.302,383.418,388.918,392.581,395.331,396.761,405.319,410.203,415.087,419.366,424.866,428.529,431.587,437.087,442.587,445.337,446.757,451.641,457.141,460.199,463.257,468.757,474.257,477.315,482.815,487.699,493.199,496.257,499.007,500.421,505.305,508.768,512.431,517.315,522.199,525.257,528.007,529.427,534.927,538.59" svgx:width="0.39,0.44,0.78,0.44,0.25,0.55,0.72,0.44,0.5,0.25,0.25,0.55,0.56,0.5,0.33,0.25,0.55,0.78,0.44,0.44,0.39,0.5,0.33,0.28,0.5,0.5,0.25,0.55,0.44,0.5,0.28,0.28,0.5,0.5,0.28,0.5,0.44,0.5,0.28,0.25,0.55,0.44,0.33,0.33,0.44,0.44,0.28,0.25,0.55,0.5,0.33,0.25" style="fill:rgb(23,22,21);font-family:TimesNewRomanPSMT;font-size:11.0px;stroke:none;">same way. For measuring antioxidant effect of </text>
  </g>
  <g begin="text">
   <text y="485.683" x="325.984,329.042,334.542,339.426,341.967,346.851,351.13,355.409,360.293,365.793,368.851,371.909,376.793,379.851,382.392,387.892,390.95,394.008,396.549,401.433,406.933,412.433,414.974,418.032,421.09,425.369,427.91,433.41,438.91,444.41,449.91,454.794,460.294,465.178,468.236,473.12,478.62,481.161,489.719,495.219,500.719,506.219,509.277,514.161,517.824,523.324,528.208,533.708,538.592" svgx:width="0.28,0.5,0.44,0.25,0.44,0.39,0.39,0.44,0.5,0.28,0.28,0.44,0.28,0.25,0.5,0.28,0.28,0.25,0.44,0.5,0.5,0.25,0.28,0.28,0.39,0.25,0.5,0.5,0.5,0.5,0.44,0.5,0.44,0.28,0.44,0.5,0.25,0.78,0.5,0.5,0.5,0.28,0.44,0.33,0.5,0.44,0.5,0.44,0.25" style="fill:rgb(23,22,21);font-family:TimesNewRomanPSMT;font-size:11.0px;stroke:none;">the essential oil and its oxygenated monoterpene </text>
  </g>
  <g begin="text">
   <text y="498.682" x="325.984,330.868,336.368,344.926,350.426,355.926,361.426,366.31,371.81,374.868,377.618,380.38,383.438,386.496,391.996,396.88,399.938,405.438,410.938,413.996,416.746,419.506,424.39,429.89,434.774,437.832,443.332,447.611,450.669,453.419,456.183" svgx:width="0.44,0.5,0.78,0.5,0.5,0.5,0.44,0.5,0.28,0.25,0.55,0.28,0.28,0.5,0.44,0.28,0.5,0.5,0.28,0.25,0.55,0.44,0.5,0.44,0.28,0.5,0.39,0.28,0.25,0.55,0.72" style="fill:rgb(23,22,21);font-family:TimesNewRomanPSMT;font-size:11.0px;stroke:none;">component linalool against H</text>
  </g>
  <g begin="text">
   <text y="502.345" x="464.126" svgx:width="0.5" style="fill:rgb(23,22,21);font-family:TimesNewRomanPSMT;font-size:6.41px;stroke:none;">2</text>
  </g>
  <g begin="text">
   <text y="498.682" x="467.332" svgx:width="0.72" style="fill:rgb(23,22,21);font-family:TimesNewRomanPSMT;font-size:11.0px;stroke:none;">O</text>
  </g>
  <g begin="text">
   <text y="502.345" x="475.276" svgx:width="0.5" style="fill:rgb(23,22,21);font-family:TimesNewRomanPSMT;font-size:6.41px;stroke:none;">2</text>
  </g>
  <g begin="text">
   <text y="498.682" x="478.483,481.233,484.005,488.889,494.389,497.447,502.947,506.005,511.505,517.005,520.063,524.947,528.005,531.063,535.836,538.586" svgx:width="0.25,0.55,0.44,0.5,0.28,0.5,0.28,0.5,0.5,0.28,0.44,0.28,0.28,0.5,0.25,0.25" style="fill:rgb(23,22,21);font-family:TimesNewRomanPSMT;font-size:11.0px;stroke:none;"> cytotoxicity, </text>
  </g>
  <g begin="text">
   <text y="511.682" x="325.984,331.484,334.542,338.005,341.668,346.552,350.215,355.099,360.599,363.657,366.407,372.985,377.869,383.369,388.869,393.753,398.637,404.137,407.195,410.858,415.742,418.8,421.858,427.358,432.858,437.137,439.887,446.465,451.965,455.628,458.378,464.956,468.014,473.514,478.398,481.148,487.726,492.61,497.494,500.552,503.61,507.889,510.639,517.217,525.159,530.043,533.706,538.59" svgx:width="0.5,0.28,0.33,0.33,0.44,0.33,0.44,0.5,0.28,0.25,0.55,0.44,0.5,0.5,0.44,0.44,0.5,0.28,0.33,0.44,0.28,0.28,0.5,0.5,0.39,0.25,0.55,0.5,0.33,0.25,0.55,0.28,0.5,0.44,0.25,0.55,0.44,0.44,0.28,0.28,0.39,0.25,0.55,0.72,0.44,0.33,0.44,0.25" style="fill:rgb(23,22,21);font-family:TimesNewRomanPSMT;font-size:11.0px;stroke:none;">different concentrations of the cells were </text>
  </g>
  <g begin="text">
   <text y="524.682" x="325.984,331.484,335.147,340.031,343.089,348.589,353.473,358.973,364.473,369.357,372.415,377.299,382.799,385.655,389.318,392.981" svgx:width="0.5,0.33,0.44,0.28,0.5,0.44,0.5,0.5,0.44,0.28,0.44,0.5,0.25,0.33,0.33,0.67" style="fill:rgb(23,22,21);font-family:TimesNewRomanPSMT;font-size:11.0px;stroke:none;">preincubated (IC</text>
  </g>
  <g begin="text">
   <text y="528.345" x="400.318,403.525" svgx:width="0.5,0.5" style="fill:rgb(23,22,21);font-family:TimesNewRomanPSMT;font-size:6.41px;stroke:none;">10</text>
  </g>
  <g begin="text">
   <text y="524.682" x="406.731,409.481,412.352,416.015" svgx:width="0.25,0.25,0.33,0.67" style="fill:rgb(23,22,21);font-family:TimesNewRomanPSMT;font-size:11.0px;stroke:none;">, IC</text>
  </g>
  <g begin="text">
   <text y="528.345" x="423.347,426.554" svgx:width="0.5,0.5" style="fill:rgb(23,22,21);font-family:TimesNewRomanPSMT;font-size:6.41px;stroke:none;">20</text>
  </g>
  <g begin="text">
   <text y="524.682" x="429.76,432.631,437.515,443.015,448.515,451.38,455.043" svgx:width="0.25,0.44,0.5,0.5,0.25,0.33,0.67" style="fill:rgb(23,22,21);font-family:TimesNewRomanPSMT;font-size:11.0px;stroke:none;"> and IC</text>
  </g>
  <g begin="text">
   <text y="528.345" x="462.375,465.581" svgx:width="0.5,0.5" style="fill:rgb(23,22,21);font-family:TimesNewRomanPSMT;font-size:6.41px;stroke:none;">30</text>
  </g>
  <g begin="text">
   <text y="524.682" x="468.788,472.451,475.322,478.985,484.485,488.148,491.013,496.513,499.384,504.884,507.634,510.5,516.0,520.884,524.547,530.047,533.71,538.594" svgx:width="0.33,0.25,0.33,0.5,0.33,0.25,0.5,0.25,0.5,0.25,0.25,0.5,0.44,0.33,0.5,0.33,0.44,0.25" style="fill:rgb(23,22,21);font-family:TimesNewRomanPSMT;font-size:11.0px;stroke:none;">) for 1 h, before </text>
  </g>
  <g begin="text">
   <text y="537.682" x="325.984" svgx:width="0.72" style="fill:rgb(23,22,21);font-family:TimesNewRomanPSMT;font-size:11.0px;stroke:none;">H</text>
  </g>
  <g begin="text">
   <text y="541.345" x="333.928" svgx:width="0.5" style="fill:rgb(23,22,21);font-family:TimesNewRomanPSMT;font-size:6.41px;stroke:none;">2</text>
  </g>
  <g begin="text">
   <text y="537.682" x="337.135" svgx:width="0.72" style="fill:rgb(23,22,21);font-family:TimesNewRomanPSMT;font-size:11.0px;stroke:none;">O</text>
  </g>
  <g begin="text">
   <text y="541.345" x="345.078,348.285" svgx:width="0.5,0.25" style="fill:rgb(23,22,21);font-family:TimesNewRomanPSMT;font-size:6.41px;stroke:none;">2 </text>
  </g>
  <g begin="text">
   <text y="537.682" x="350.163,353.221,356.884,361.768,366.652,369.71,378.268,383.152,388.652,391.71,394.924,398.587,402.25" svgx:width="0.28,0.33,0.44,0.44,0.28,0.78,0.44,0.5,0.28,0.25,0.33,0.33,0.67" style="fill:rgb(23,22,21);font-family:TimesNewRomanPSMT;font-size:11.0px;stroke:none;">treatment (IC</text>
  </g>
  <g begin="text">
   <text y="541.345" x="409.583,412.79" svgx:width="0.5,0.5" style="fill:rgb(23,22,21);font-family:TimesNewRomanPSMT;font-size:6.41px;stroke:none;">10</text>
  </g>
  <g begin="text">
   <text y="537.682" x="415.996,418.746,421.969,425.632" svgx:width="0.25,0.25,0.33,0.67" style="fill:rgb(23,22,21);font-family:TimesNewRomanPSMT;font-size:11.0px;stroke:none;">, IC</text>
  </g>
  <g begin="text">
   <text y="541.345" x="432.968,436.175" svgx:width="0.5,0.5" style="fill:rgb(23,22,21);font-family:TimesNewRomanPSMT;font-size:6.41px;stroke:none;">50</text>
  </g>
  <g begin="text">
   <text y="537.682" x="439.381,442.604,447.488,452.988,458.488,461.711,465.374" svgx:width="0.25,0.44,0.5,0.5,0.25,0.33,0.67" style="fill:rgb(23,22,21);font-family:TimesNewRomanPSMT;font-size:11.0px;stroke:none;"> and IC</text>
  </g>
  <g begin="text">
   <text y="541.345" x="472.708,475.914" svgx:width="0.5,0.5" style="fill:rgb(23,22,21);font-family:TimesNewRomanPSMT;font-size:6.41px;stroke:none;">70</text>
  </g>
  <g begin="text">
   <text y="537.682" x="479.121,482.784,486.007,489.67,495.17,498.833,502.056,507.556,513.056,516.279,521.779,527.279,532.779,535.835,538.585" svgx:width="0.33,0.25,0.33,0.5,0.33,0.25,0.5,0.5,0.25,0.5,0.5,0.5,0.33,0.25,0.25" style="fill:rgb(23,22,21);font-family:TimesNewRomanPSMT;font-size:11.0px;stroke:none;">) for 24 hour. </text>
  </g>
  <g begin="text">
   <text y="550.681" x="325.984,332.705,336.984,341.263,346.147,351.647,354.705,357.763,362.647,365.705,368.455,371.072,376.572,379.63,382.688,385.438,388.059,392.943,398.443,403.943,406.693,409.322,412.38,415.439,419.717,422.467,425.09,430.59,436.09,441.59,447.09,451.974,457.474,462.358,465.416,470.3,475.8,478.55,481.169,489.727,495.227,500.727,506.227,509.285,514.169,517.832,523.332,528.216,533.716,538.6" svgx:width="0.61,0.39,0.39,0.44,0.5,0.28,0.28,0.44,0.28,0.25,0.55,0.5,0.28,0.28,0.25,0.55,0.44,0.5,0.5,0.25,0.55,0.28,0.28,0.39,0.25,0.55,0.5,0.5,0.5,0.5,0.44,0.5,0.44,0.28,0.44,0.5,0.25,0.55,0.78,0.5,0.5,0.5,0.28,0.44,0.33,0.5,0.44,0.5,0.44,0.25" style="fill:rgb(23,22,21);font-family:TimesNewRomanPSMT;font-size:11.0px;stroke:none;">Essential oil and its oxygenated monoterpene </text>
  </g>
  <g begin="text">
   <text y="563.681" x="325.984,330.868,336.368,344.926,350.426,355.926,361.426,366.31,371.81,374.868,377.255,380.313,383.371,388.871,393.755,396.813,402.313,407.813,410.871,413.252,421.194,426.078,429.741,434.625,437.012,442.512,445.57,449.849,454.128,459.628,462.686,468.186,473.07,478.57,480.957,484.015,489.515,491.902,497.402,500.152,505.652,514.815,517.202,520.865,526.365,529.423,534.923,538.586" svgx:width="0.44,0.5,0.78,0.5,0.5,0.5,0.44,0.5,0.28,0.25,0.28,0.28,0.5,0.44,0.28,0.5,0.5,0.28,0.25,0.72,0.44,0.33,0.44,0.25,0.5,0.28,0.39,0.39,0.5,0.28,0.5,0.44,0.5,0.25,0.28,0.5,0.25,0.5,0.25,0.5,0.83,0.25,0.33,0.5,0.28,0.5,0.33,0.25" style="fill:rgb(23,22,21);font-family:TimesNewRomanPSMT;font-size:11.0px;stroke:none;">component linalool were dissolved in 0.5% (v/v) </text>
  </g>
  <g begin="text">
   <text y="576.681" x="325.984,331.484,334.542,343.1,347.984,351.042,356.542,362.042,365.1,367.85,372.129,377.629,380.687,386.187,391.687,397.187,402.687,405.745,411.245,416.129,418.879,422.542,430.484,440.263,446.379,454.321,457.984" svgx:width="0.5,0.28,0.78,0.44,0.28,0.5,0.5,0.28,0.25,0.39,0.5,0.28,0.5,0.5,0.5,0.5,0.28,0.5,0.44,0.25,0.33,0.72,0.89,0.56,0.72,0.33,0.25" style="fill:rgb(23,22,21);font-family:TimesNewRomanPSMT;font-size:11.0px;stroke:none;">dimethyl sulphoxide (DMSO).</text>
  </g>
  <g begin="text">
   <text y="602.68" x="340.157,348.099,352.983,356.041,360.925,365.204,373.146,376.204,381.704,387.204,390.262,393.32,398.82,404.32,407.07,412.57,415.628,418.378,426.32,431.82,434.878,440.378,445.878,451.378,454.436,459.936,462.994,468.494,473.378,478.878,483.762,489.262,494.146,496.896,499.954,504.839,509.723,514.607" svgx:width="0.72,0.44,0.28,0.44,0.39,0.72,0.28,0.5,0.5,0.28,0.28,0.5,0.5,0.25,0.5,0.28,0.25,0.72,0.5,0.28,0.5,0.5,0.5,0.28,0.5,0.28,0.5,0.44,0.5,0.44,0.5,0.44,0.25,0.28,0.44,0.44,0.44,0.28" style="fill:rgb(23,22,21);font-family:TimesNewRomanPS-ItalicMT;font-size:11.0px;stroke:none;">Determination of malondialdehyde level</text>
  </g>
  <g begin="text">
   <text y="615.68" x="340.157,349.936,354.82,357.878,363.378,368.878,374.378,377.436,382.32,385.378,390.878,395.762,401.262,406.762,412.262,417.146,419.896,430.944,434.607,444.386,452.328,460.27,463.933,466.683,477.745,480.803,485.687,491.187,496.071,499.129,503.408,506.158,517.213,525.155,530.039,533.702,538.586" svgx:width="0.89,0.44,0.28,0.5,0.5,0.5,0.28,0.44,0.28,0.5,0.44,0.5,0.5,0.5,0.44,0.25,0.55,0.33,0.89,0.72,0.72,0.33,0.25,0.55,0.28,0.44,0.5,0.44,0.28,0.39,0.25,0.55,0.72,0.44,0.33,0.44,0.25" style="fill:rgb(23,22,21);font-family:TimesNewRomanPSMT;font-size:11.0px;stroke:none;">Malondialdehyde (MDA) levels were </text>
  </g>
  <g begin="text">
   <text y="628.679" x="325.984,331.484,336.368,339.426,344.31,347.973,356.531,359.589,365.089,369.973,375.473,379.045,383.929,387.592,390.65,395.534,399.197,401.947,402.777,410.719,415.603,421.103,423.853,424.689,432.631,438.131,440.881,441.717,446.601,451.485,454.543,457.601,461.88,464.63,465.457,473.399,478.283,481.946,486.83,489.58,490.41,495.294,500.794,506.294,511.794,516.073,520.957,526.457,529.207,530.038,533.096,538.596" svgx:width="0.5,0.44,0.28,0.44,0.33,0.78,0.28,0.5,0.44,0.5,0.25,0.44,0.33,0.28,0.44,0.33,0.25,0.55,0.72,0.44,0.5,0.25,0.55,0.72,0.5,0.25,0.55,0.44,0.44,0.28,0.28,0.39,0.25,0.55,0.72,0.44,0.33,0.44,0.25,0.55,0.44,0.5,0.5,0.5,0.39,0.44,0.5,0.25,0.55,0.28,0.5,0.25" style="fill:rgb(23,22,21);font-family:TimesNewRomanPSMT;font-size:11.0px;stroke:none;">determined after Hep G2 cells were exposed to </text>
  </g>
  <g begin="text">
   <text y="641.679" x="325.984,331.484,334.542,338.005,341.668,346.552,350.215,355.099,360.599,363.657,366.407,368.675,373.559,379.059,384.559,389.443,394.327,399.827,402.885,406.548,411.432,414.49,417.548,423.048,428.548,431.298,433.56,439.06,442.723,445.473,447.75,452.634,456.913,461.192,466.076,471.576,474.634,477.692,482.576,485.634,488.384,490.651,496.151,499.209,502.267,505.017,507.287,512.171,517.671,523.171,525.921,528.193,531.251,534.309,538.588" svgx:width="0.5,0.28,0.33,0.33,0.44,0.33,0.44,0.5,0.28,0.25,0.55,0.44,0.5,0.5,0.44,0.44,0.5,0.28,0.33,0.44,0.28,0.28,0.5,0.5,0.25,0.55,0.5,0.33,0.25,0.55,0.44,0.39,0.39,0.44,0.5,0.28,0.28,0.44,0.28,0.25,0.55,0.5,0.28,0.28,0.25,0.55,0.44,0.5,0.5,0.25,0.55,0.28,0.28,0.39,0.25" style="fill:rgb(23,22,21);font-family:TimesNewRomanPSMT;font-size:11.0px;stroke:none;">different concentration of essential oil and its </text>
  </g>
  <g begin="text">
   <text y="654.679" x="325.984,331.484,336.984,342.484,347.984,352.868,358.368,363.252,366.31,371.194,376.694,379.444,384.02,392.578,398.078,403.578,409.078,412.136,417.02,420.683,426.183,431.067,436.567,441.451,444.201,448.777,453.661,459.161,467.719,473.219,478.719,484.219,489.103,494.603,497.661,500.411,504.987,508.045,511.103,516.603,521.487,524.545,530.045,535.545,538.603" svgx:width="0.5,0.5,0.5,0.5,0.44,0.5,0.44,0.28,0.44,0.5,0.25,0.55,0.78,0.5,0.5,0.5,0.28,0.44,0.33,0.5,0.44,0.5,0.44,0.25,0.55,0.44,0.5,0.78,0.5,0.5,0.5,0.44,0.5,0.28,0.25,0.55,0.28,0.28,0.5,0.44,0.28,0.5,0.5,0.28,0.25" style="fill:rgb(23,22,21);font-family:TimesNewRomanPSMT;font-size:11.0px;stroke:none;">oxygenated monoterpene component linalool </text>
  </g>
  <g begin="text">
   <text y="667.678" x="325.984,329.647,335.147,338.81,341.56,343.958,349.458,354.958,357.708,360.106,365.606,368.356,370.754,374.417,378.08" svgx:width="0.33,0.5,0.33,0.25,0.55,0.5,0.5,0.25,0.55,0.5,0.25,0.55,0.33,0.33,0.67" style="fill:rgb(23,22,21);font-family:TimesNewRomanPSMT;font-size:11.0px;stroke:none;">for 24 h (IC</text>
  </g>
  <g begin="text">
   <text y="671.341" x="385.432,388.639" svgx:width="0.5,0.5" style="fill:rgb(23,22,21);font-family:TimesNewRomanPSMT;font-size:6.41px;stroke:none;">10</text>
  </g>
  <g begin="text">
   <text y="667.678" x="391.845,394.595,397.345,399.743,403.406" svgx:width="0.25,0.25,0.55,0.33,0.67" style="fill:rgb(23,22,21);font-family:TimesNewRomanPSMT;font-size:11.0px;stroke:none;">, IC</text>
  </g>
  <g begin="text">
   <text y="671.341" x="410.748,413.954" svgx:width="0.5,0.5" style="fill:rgb(23,22,21);font-family:TimesNewRomanPSMT;font-size:6.41px;stroke:none;">50</text>
  </g>
  <g begin="text">
   <text y="667.678" x="417.161,419.911,422.309,427.193,432.693,438.193,440.943,443.341,447.004" svgx:width="0.25,0.55,0.44,0.5,0.5,0.25,0.55,0.33,0.67" style="fill:rgb(23,22,21);font-family:TimesNewRomanPSMT;font-size:11.0px;stroke:none;"> and IC</text>
  </g>
  <g begin="text">
   <text y="671.341" x="454.349,457.556" svgx:width="0.5,0.5" style="fill:rgb(23,22,21);font-family:TimesNewRomanPSMT;font-size:6.41px;stroke:none;">70</text>
  </g>
  <g begin="text">
   <text y="667.678" x="460.762,464.425,467.175,469.925,472.323,478.439,483.939,487.602,490.352,492.757,501.315,506.199,511.083,515.362,520.862,524.525,527.583,533.083,538.583" svgx:width="0.33,0.25,0.25,0.55,0.56,0.5,0.33,0.25,0.55,0.78,0.44,0.44,0.39,0.5,0.33,0.28,0.5,0.5,0.25" style="fill:rgb(23,22,21);font-family:TimesNewRomanPSMT;font-size:11.0px;stroke:none;">). For measuring </text>
  </g>
  <g begin="text">
   <text y="680.678" x="325.984,334.542,339.426,347.984,353.484,357.147,362.031,367.531,372.415,375.165,378.928,384.428,388.091,393.591,396.649,401.533,406.417,409.475,412.533,418.033,422.917,425.667,429.428,434.312,437.775,441.438,446.322,451.206,454.264,458.543,461.293,465.061,470.561,474.224,476.974,480.747,483.805,489.305,494.189,496.939,500.712,505.596,509.875,514.154,519.038,524.538,527.596,530.654,535.538,538.596" svgx:width="0.78,0.44,0.78,0.5,0.33,0.44,0.5,0.44,0.25,0.55,0.5,0.33,0.5,0.28,0.44,0.44,0.28,0.28,0.5,0.44,0.25,0.55,0.44,0.33,0.33,0.44,0.44,0.28,0.39,0.25,0.55,0.5,0.33,0.25,0.55,0.28,0.5,0.44,0.25,0.55,0.44,0.39,0.39,0.44,0.5,0.28,0.28,0.44,0.28,0.25" style="fill:rgb(23,22,21);font-family:TimesNewRomanPSMT;font-size:11.0px;stroke:none;">membrane protective effects of the essential </text>
  </g>
  <g begin="text">
   <text y="693.678" x="325.984,331.484,334.542,337.6,340.35,343.357,348.241,353.741,359.241,361.991,364.999,368.057,371.115,376.615,381.499,384.557,390.057,395.557,398.615,401.365,404.366,409.25,414.75,419.634,422.692,428.192,432.471,435.529,438.279,441.284" svgx:width="0.5,0.28,0.28,0.25,0.55,0.44,0.5,0.5,0.25,0.55,0.28,0.28,0.5,0.44,0.28,0.5,0.5,0.28,0.25,0.55,0.44,0.5,0.44,0.28,0.5,0.39,0.28,0.25,0.55,0.72" style="fill:rgb(23,22,21);font-family:TimesNewRomanPSMT;font-size:11.0px;stroke:none;">oil and linalool against H</text>
  </g>
  <g begin="text">
   <text y="697.341" x="449.228" svgx:width="0.5" style="fill:rgb(23,22,21);font-family:TimesNewRomanPSMT;font-size:6.41px;stroke:none;">2</text>
  </g>
  <g begin="text">
   <text y="693.678" x="452.434" svgx:width="0.72" style="fill:rgb(23,22,21);font-family:TimesNewRomanPSMT;font-size:11.0px;stroke:none;">O</text>
  </g>
  <g begin="text">
   <text y="697.341" x="460.378" svgx:width="0.5" style="fill:rgb(23,22,21);font-family:TimesNewRomanPSMT;font-size:6.41px;stroke:none;">2</text>
  </g>
  <g begin="text">
   <text y="693.678" x="463.585,466.335,469.085,472.099,475.157,480.657,485.541,488.291,491.298,496.182,501.066,504.124,507.182,511.461,514.211,517.215,525.157,530.041,533.704,538.588" svgx:width="0.25,0.25,0.55,0.28,0.5,0.44,0.25,0.55,0.44,0.44,0.28,0.28,0.39,0.25,0.55,0.72,0.44,0.33,0.44,0.25" style="fill:rgb(23,22,21);font-family:TimesNewRomanPSMT;font-size:11.0px;stroke:none;">, the cells were </text>
  </g>
  <g begin="text">
   <text y="706.677" x="325.984,331.484,335.147,340.031,343.089,348.589,353.473,358.973,364.473,369.357,372.415,377.299,382.799,385.439,393.381,396.439,399.497,404.997,407.648,413.148,416.206,419.669,423.332,428.216,431.879,436.763,442.263,445.321,447.967,452.851,458.351,463.851,468.735,473.619,479.119,482.177,485.84,490.724,493.782,496.84,502.34,507.84,512.119,514.759,518.422,522.085" svgx:width="0.5,0.33,0.44,0.28,0.5,0.44,0.5,0.5,0.44,0.28,0.44,0.5,0.25,0.72,0.28,0.28,0.5,0.25,0.5,0.28,0.33,0.33,0.44,0.33,0.44,0.5,0.28,0.25,0.44,0.5,0.5,0.44,0.44,0.5,0.28,0.33,0.44,0.28,0.28,0.5,0.5,0.39,0.25,0.33,0.33,0.67" style="fill:rgb(23,22,21);font-family:TimesNewRomanPSMT;font-size:11.0px;stroke:none;">preincubated with different concentrations (IC</text>
  </g>
  <g begin="text">
   <text y="710.34" x="529.42,532.626" svgx:width="0.5,0.5" style="fill:rgb(23,22,21);font-family:TimesNewRomanPSMT;font-size:6.41px;stroke:none;">10</text>
  </g>
  <g begin="text">
   <text y="706.677" x="535.833,538.583" svgx:width="0.25,0.25" style="fill:rgb(23,22,21);font-family:TimesNewRomanPSMT;font-size:11.0px;stroke:none;">, </text>
  </g>
  <g begin="text">
   <text y="719.677" x="325.984,329.647" svgx:width="0.33,0.67" style="fill:rgb(23,22,21);font-family:TimesNewRomanPSMT;font-size:11.0px;stroke:none;">IC</text>
  </g>
  <g begin="text">
   <text y="723.34" x="336.984,340.191" svgx:width="0.5,0.5" style="fill:rgb(23,22,21);font-family:TimesNewRomanPSMT;font-size:6.41px;stroke:none;">20</text>
  </g>
  <g begin="text">
   <text y="719.677" x="343.397,346.675,351.559,357.059,362.559,365.837,369.5" svgx:width="0.25,0.44,0.5,0.5,0.25,0.33,0.67" style="fill:rgb(23,22,21);font-family:TimesNewRomanPSMT;font-size:11.0px;stroke:none;"> and IC</text>
  </g>
  <g begin="text">
   <text y="723.34" x="376.844,380.051" svgx:width="0.5,0.5" style="fill:rgb(23,22,21);font-family:TimesNewRomanPSMT;font-size:6.41px;stroke:none;">30</text>
  </g>
  <g begin="text">
   <text y="719.677" x="383.257,386.92,390.198,395.698,399.361,402.639,407.523,411.802,416.081,420.965,426.465,429.523,432.581,437.465,440.523,443.801,449.301,452.359,455.417,458.695,463.579,469.079,474.579,477.858,480.916,483.974,489.474,494.358,497.416,502.916,508.416,511.474,514.752,518.415,522.078" svgx:width="0.33,0.25,0.5,0.33,0.25,0.44,0.39,0.39,0.44,0.5,0.28,0.28,0.44,0.28,0.25,0.5,0.28,0.28,0.25,0.44,0.5,0.5,0.25,0.28,0.28,0.5,0.44,0.28,0.5,0.5,0.28,0.25,0.33,0.33,0.67" style="fill:rgb(23,22,21);font-family:TimesNewRomanPSMT;font-size:11.0px;stroke:none;">) of essential oil and linalool (IC</text>
  </g>
  <g begin="text">
   <text y="723.34" x="529.42,532.626" svgx:width="0.5,0.5" style="fill:rgb(23,22,21);font-family:TimesNewRomanPSMT;font-size:6.41px;stroke:none;">10</text>
  </g>
  <g begin="text">
   <text y="719.677" x="535.833,538.583" svgx:width="0.25,0.25" style="fill:rgb(23,22,21);font-family:TimesNewRomanPSMT;font-size:11.0px;stroke:none;">, </text>
  </g>
  <g begin="text">
   <text y="732.677" x="325.984,329.647" svgx:width="0.33,0.67" style="fill:rgb(23,22,21);font-family:TimesNewRomanPSMT;font-size:11.0px;stroke:none;">IC</text>
  </g>
  <g begin="text">
   <text y="736.34" x="336.984,340.191" svgx:width="0.5,0.5" style="fill:rgb(23,22,21);font-family:TimesNewRomanPSMT;font-size:6.41px;stroke:none;">20</text>
  </g>
  <g begin="text">
   <text y="732.677" x="343.397,346.147,348.358,353.242,358.742,364.242,366.992,369.203,372.866" svgx:width="0.25,0.55,0.44,0.5,0.5,0.25,0.55,0.33,0.67" style="fill:rgb(23,22,21);font-family:TimesNewRomanPSMT;font-size:11.0px;stroke:none;"> and IC</text>
  </g>
  <g begin="text">
   <text y="736.34" x="380.211,383.417" svgx:width="0.5,0.5" style="fill:rgb(23,22,21);font-family:TimesNewRomanPSMT;font-size:6.41px;stroke:none;">30</text>
  </g>
  <g begin="text">
   <text y="732.677" x="386.624,390.287,393.037,395.248,398.911,404.411,408.074,410.824,413.035,418.535,421.285,423.496,428.996,431.746,434.496,436.707,442.207,447.091,450.754,456.254,459.917,464.801,467.551,469.762" svgx:width="0.33,0.25,0.55,0.33,0.5,0.33,0.25,0.55,0.5,0.25,0.55,0.5,0.25,0.25,0.55,0.5,0.44,0.33,0.5,0.33,0.44,0.25,0.55,0.72" style="fill:rgb(23,22,21);font-family:TimesNewRomanPSMT;font-size:11.0px;stroke:none;">) for 1 h, before H</text>
  </g>
  <g begin="text">
   <text y="736.34" x="477.726" svgx:width="0.5" style="fill:rgb(23,22,21);font-family:TimesNewRomanPSMT;font-size:6.41px;stroke:none;">2</text>
  </g>
  <g begin="text">
   <text y="732.677" x="480.932" svgx:width="0.72" style="fill:rgb(23,22,21);font-family:TimesNewRomanPSMT;font-size:11.0px;stroke:none;">O</text>
  </g>
  <g begin="text">
   <text y="736.34" x="488.876" svgx:width="0.5" style="fill:rgb(23,22,21);font-family:TimesNewRomanPSMT;font-size:6.41px;stroke:none;">2</text>
  </g>
  <g begin="text">
   <text y="732.677" x="492.082,494.832,497.043,500.101,503.764,508.648,513.532,516.59,525.148,530.032,535.532,538.59" svgx:width="0.25,0.55,0.28,0.33,0.44,0.44,0.28,0.78,0.44,0.5,0.28,0.25" style="fill:rgb(23,22,21);font-family:TimesNewRomanPSMT;font-size:11.0px;stroke:none;"> treatment </text>
  </g>
  <g begin="text">
   <text y="745.677" x="325.984,329.647,333.31" svgx:width="0.33,0.33,0.67" style="fill:rgb(23,22,21);font-family:TimesNewRomanPSMT;font-size:11.0px;stroke:none;">(IC</text>
  </g>
  <g begin="text">
   <text y="749.34" x="340.647,343.854" svgx:width="0.5,0.5" style="fill:rgb(23,22,21);font-family:TimesNewRomanPSMT;font-size:6.41px;stroke:none;">10</text>
  </g>
  <g begin="text">
   <text y="745.677" x="347.06" svgx:width="0.25" style="fill:rgb(23,22,21);font-family:TimesNewRomanPSMT;font-size:11.0px;stroke:none;">,</text>
  </g>
  <g begin="text">
   <text y="749.34" x="349.81" svgx:width="0.25" style="fill:rgb(23,22,21);font-family:TimesNewRomanPSMT;font-size:6.41px;stroke:none;"> </text>
  </g>
  <g begin="text">
   <text y="745.677" x="352.196,355.859" svgx:width="0.33,0.67" style="fill:rgb(23,22,21);font-family:TimesNewRomanPSMT;font-size:11.0px;stroke:none;">IC</text>
  </g>
  <g begin="text">
   <text y="749.34" x="363.196,366.402" svgx:width="0.5,0.5" style="fill:rgb(23,22,21);font-family:TimesNewRomanPSMT;font-size:6.41px;stroke:none;">50</text>
  </g>
  <g begin="text">
   <text y="745.677" x="369.609,372.359,373.701,378.585,384.085,389.585,392.335,393.677,397.34" svgx:width="0.25,0.55,0.44,0.5,0.5,0.25,0.55,0.33,0.67" style="fill:rgb(23,22,21);font-family:TimesNewRomanPSMT;font-size:11.0px;stroke:none;"> and IC</text>
  </g>
  <g begin="text">
   <text y="749.34" x="404.674,407.88" svgx:width="0.5,0.5" style="fill:rgb(23,22,21);font-family:TimesNewRomanPSMT;font-size:6.41px;stroke:none;">70</text>
  </g>
  <g begin="text">
   <text y="745.677" x="411.087,414.75,417.5,418.842,422.505,428.005,431.668,434.418,435.76,441.26,446.76,449.51,450.852,456.352,459.102,461.852,463.194,469.915,474.194,478.473,483.357,488.857,491.915,494.973,499.857,502.915,505.665,506.999,512.499,515.557,518.615,521.365,522.707,527.591,533.091,538.591" svgx:width="0.33,0.25,0.55,0.33,0.5,0.33,0.25,0.55,0.5,0.5,0.25,0.55,0.5,0.25,0.25,0.55,0.61,0.39,0.39,0.44,0.5,0.28,0.28,0.44,0.28,0.25,0.55,0.5,0.28,0.28,0.25,0.55,0.44,0.5,0.5,0.25" style="fill:rgb(23,22,21);font-family:TimesNewRomanPSMT;font-size:11.0px;stroke:none;">) for 24 h. Essential oil and </text>
  </g>
 </g>
</svg>
