<?xml version="1.0" encoding="UTF-8"?>
<svg height="751.897" width="559.0175" xmlns="http://www.w3.org/2000/svg">
 <g id="page" xmlns:svgx="http://www.xml-cml.org/schema/svgx">
  <g begin="text">
   <text y="150.209" x="50.58,61.272,68.301,74.395,81.46,90.027,96.246,102.876,112.0203,116.16,127.528,134.43,139.715,144.539,151.169,155.56" svgx:width="0.6,0.4,0.34,0.4,0.49,0.37,0.38,0.51,0.55,0.66,0.37,0.31,0.27,0.38,0.25,0.4" style="fill:rgb(23,22,21);font-family:MinionPro-It;font-size:17.93px;stroke:none;">Research Article</text>
   <text y="174.113" x="50.58,60.768,66.687,72.607,80.696,88.409,94.5052,98.939,108.464,114.3809,118.868,128.697,137.307,145.809,153.898,164.211,174.058,182.148" svgx:width="0.57,0.33,0.33,0.45,0.43,0.34,0.55,0.53,0.33,0.55,0.55,0.48,0.47,0.45,0.57,0.55,0.45,0.41" style="fill:rgb(23,22,21);font-family:Minion-Black;font-size:17.93px;stroke:none;">Effect of Lavender</text>
   <text y="174.113" x="193.971,200.572,210.957,220.839,229.79,239.672,250.38,260.55,270.899,276.101,285.9625,290.456,300.339,311.047,319.674,330.023,336.947,343.261,348.84,354.706,364.105,369.307,374.886,384.769" svgx:width="0.37,0.58,0.55,0.5,0.55,0.6,0.57,0.58,0.29,0.55,0.55,0.55,0.6,0.48,0.58,0.39,0.35,0.31,0.33,0.52,0.29,0.31,0.55,0.35" style="fill:rgb(23,22,21);font-family:minionblackit;font-size:17.93px;stroke:none;">(Lavandula angustifolia)</text>
   <text y="174.113" x="395.446,405.632,412.679,419.727,427.814,438.126,444.187,449.567,458.175,463.3747,467.858,481.039,486.419,491.6187,496.094,505.616" svgx:width="0.57,0.39,0.39,0.45,0.57,0.34,0.3,0.48,0.29,0.55,0.74,0.3,0.29,0.55,0.53,0.57" style="fill:rgb(23,22,21);font-family:Minion-Black;font-size:17.93px;stroke:none;">Essential Oil on</text>
   <text y="194.037" x="50.58,62.218,69.929,80.115,86.177,94.2455,98.749,105.671,115.983,121.901,127.101,135.709,150.862,166.015,174.623,180.684,190.207,197.559,205.9861,210.376,222.175,230.263,237.311,247.21,256.732,267.043,274.091" svgx:width="0.65,0.43,0.57,0.34,0.45,0.55,0.39,0.57,0.33,0.29,0.48,0.85,0.85,0.48,0.34,0.53,0.41,0.47,0.55,0.66,0.45,0.39,0.55,0.53,0.57,0.39,0.45" style="fill:rgb(23,22,21);font-family:Minion-Black;font-size:17.93px;stroke:none;">Acute Inflammatory Response</text>
   <text y="242.468" x="86.697,95.091,100.83,107.359,112.262,115.85,121.242,124.7104,127.183,133.664,139.057,143.96,150.835,156.575,163.45,170.014,176.3528,178.853,185.645,190.344,194.386,199.779,205.447,210.84,215.5044,218.021,225.769,231.509,236.412,242.976,246.564,252.304" svgx:width="0.7,0.48,0.55,0.41,0.3,0.45,0.29,0.55,0.54,0.45,0.41,0.57,0.48,0.57,0.55,0.53,0.55,0.57,0.39,0.34,0.45,0.47,0.45,0.39,0.55,0.65,0.48,0.41,0.55,0.3,0.48,0.25" style="fill:rgb(23,22,21);font-family:Minion-Black;font-size:11.96px;stroke:none;">Gabriel Fernando Esteves Cardia,</text>
   <text y="237.212" x="255.24" svgx:width="0.5" style="fill:rgb(23,22,21);font-family:Minion-Black;font-size:7.97px;stroke:none;">1</text>
   <text y="242.468" x="262.197,268.271,274.011,280.803,284.271,290.6098,293.109,299.901,306.693,311.835,315.303,318.89,325.455,330.848,335.5124,338.029,344.104,347.691,351.16,356.828,362.567,366.645,373.126,376.714,380.182,387.045" svgx:width="0.51,0.48,0.57,0.29,0.53,0.55,0.57,0.57,0.43,0.29,0.3,0.55,0.45,0.39,0.55,0.51,0.3,0.29,0.47,0.48,0.34,0.54,0.3,0.29,0.57,0.53" style="fill:rgb(23,22,21);font-family:Minion-Black;font-size:11.96px;stroke:none;">Saulo Euclides Silva-Filho</text>
  </g>
  <path style="fill:rgb(165,200,52);stroke:none;stroke-width:1.0;" d="M404.790 239.310 C404.790 242.110 402.520 244.390 399.720 244.390 C396.910 244.390 394.640 242.110 394.640 239.310 C394.640 236.510 396.910 234.230 399.720 234.230 C402.520 234.230 404.790 236.510 404.790 239.310 "/>
  <path style="fill:rgb(255,255,255);stroke:none;stroke-width:1.0;" d="M399.570 241.070 L400.540 241.070 C401.930 241.070 402.240 240.020 402.240 239.490 C402.240 238.640 401.700 237.920 400.510 237.920 L399.570 237.920 L399.570 241.070 ZM398.960 237.370 L400.610 237.370 C402.180 237.370 402.870 238.490 402.870 239.490 C402.870 240.590 402.020 241.620 400.620 241.620 L398.960 241.620 L398.960 237.370 "/>
  <path style="fill:rgb(255,255,255);stroke:none;stroke-width:1.0;" d="M398.160 236.480 C398.160 236.700 397.980 236.890 397.760 236.890 C397.540 236.890 397.360 236.700 397.360 236.480 C397.360 236.260 397.540 236.080 397.760 236.080 C397.980 236.080 398.160 236.270 398.160 236.480 "/>
  <g begin="text">
   <text y="242.468" x="405.333" svgx:width="0.25" style="fill:rgb(23,22,21);font-family:Minion-Black;font-size:11.96px;stroke:none;">,</text>
   <text y="237.212" x="408.258" svgx:width="0.5" style="fill:rgb(23,22,21);font-family:Minion-Black;font-size:7.97px;stroke:none;">2</text>
   <text y="242.468" x="415.242,422.034,427.917,434.517,439.91,446.475,450.062,454.104,460.4428,462.933,469.486,474.879,478.467,482.509,487.891,490.383,496.458,500.046,503.514,509.182" svgx:width="0.57,0.49,0.55,0.45,0.55,0.3,0.34,0.53,0.55,0.55,0.45,0.3,0.34,0.45,0.55,0.51,0.3,0.29,0.47,0.48" style="fill:rgb(23,22,21);font-family:Minion-Black;font-size:11.96px;stroke:none;">Expedito Leite Silva</text>
  </g>
  <path style="fill:rgb(165,200,52);stroke:none;stroke-width:1.0;" d="M526.330 239.310 C526.330 242.110 524.060 244.390 521.250 244.390 C518.450 244.390 516.170 242.110 516.170 239.310 C516.170 236.510 518.450 234.230 521.250 234.230 C524.060 234.230 526.330 236.510 526.330 239.310 "/>
  <path style="fill:rgb(255,255,255);stroke:none;stroke-width:1.0;" d="M521.110 241.070 L522.080 241.070 C523.460 241.070 523.780 240.020 523.780 239.490 C523.780 238.640 523.240 237.920 522.050 237.920 L521.110 237.920 L521.110 241.070 ZM520.490 237.370 L522.150 237.370 C523.720 237.370 524.410 238.490 524.410 239.490 C524.410 240.590 523.550 241.620 522.150 241.620 L520.490 241.620 L520.490 237.370 "/>
  <path style="fill:rgb(255,255,255);stroke:none;stroke-width:1.0;" d="M519.690 236.480 C519.690 236.700 519.510 236.890 519.290 236.890 C519.070 236.890 518.890 236.700 518.890 236.480 C518.890 236.260 519.070 236.080 519.290 236.080 C519.510 236.080 519.690 236.270 519.690 236.480 "/>
  <g begin="text">
   <text y="242.468" x="526.869" svgx:width="0.25" style="fill:rgb(23,22,21);font-family:Minion-Black;font-size:11.96px;stroke:none;">,</text>
   <text y="237.212" x="529.794" svgx:width="0.5" style="fill:rgb(23,22,21);font-family:Minion-Black;font-size:7.97px;stroke:none;">3</text>
   <text y="256.418" x="86.697,95.378,101.117,107.993,113.135,118.7562,121.18,127.255,132.994,138.555,145.346,150.249,153.837,156.315,164.888,170.03,176.893,180.481,187.046" svgx:width="0.73,0.48,0.57,0.43,0.47,0.55,0.51,0.48,0.47,0.57,0.41,0.3,0.55,0.72,0.43,0.57,0.3,0.55,0.48" style="fill:rgb(23,22,21);font-family:Minion-Black;font-size:11.96px;stroke:none;">Nancy Sayuri Uchida</text>
  </g>
  <path style="fill:rgb(165,200,52);stroke:none;stroke-width:1.0;" d="M204.180 253.250 C204.180 256.050 201.910 258.330 199.110 258.330 C196.300 258.330 194.030 256.050 194.030 253.250 C194.030 250.450 196.300 248.170 199.110 248.170 C201.910 248.170 204.180 250.450 204.180 253.250 "/>
  <path style="fill:rgb(255,255,255);stroke:none;stroke-width:1.0;" d="M198.960 255.010 L199.930 255.010 C201.320 255.010 201.630 253.960 201.630 253.440 C201.630 252.580 201.090 251.860 199.900 251.860 L198.960 251.860 L198.960 255.010 ZM198.350 251.310 L200.000 251.310 C201.570 251.310 202.260 252.430 202.260 253.440 C202.260 254.530 201.410 255.560 200.010 255.560 L198.350 255.560 L198.350 251.310 "/>
  <path style="fill:rgb(255,255,255);stroke:none;stroke-width:1.0;" d="M197.550 250.430 C197.550 250.640 197.370 250.830 197.150 250.830 C196.930 250.830 196.750 250.640 196.750 250.430 C196.750 250.200 196.930 250.030 197.150 250.030 C197.370 250.030 197.550 250.210 197.550 250.430 "/>
  <g begin="text">
   <text y="256.418" x="204.732" svgx:width="0.25" style="fill:rgb(23,22,21);font-family:Minion-Black;font-size:11.96px;stroke:none;">,</text>
   <text y="251.153" x="207.657" svgx:width="0.5" style="fill:rgb(23,22,21);font-family:Minion-Black;font-size:7.97px;stroke:none;">1</text>
   <text y="256.418" x="214.641,223.764,229.157,232.745,236.787,243.136,248.0396,250.525,258.285,265.077,270.912,277.704,282.404,286.446,292.7848,295.275,304.063,308.105,313.844,319.512,323.1,328.84,335.715,342.05379999999997,344.544,352.292,358.032,363.7,369.439,372.908,378.049,383.789,390.664,394.706,400.099" svgx:width="0.76,0.45,0.3,0.34,0.53,0.41,0.55,0.65,0.57,0.49,0.57,0.39,0.34,0.53,0.55,0.74,0.34,0.48,0.47,0.3,0.48,0.57,0.53,0.55,0.65,0.48,0.47,0.48,0.29,0.43,0.48,0.57,0.34,0.45,0.25" style="fill:rgb(23,22,21);font-family:Minion-Black;font-size:11.96px;stroke:none;">Heitor Augusto Otaviano Cavalcante,</text>
   <text y="251.153" x="403.029" svgx:width="0.5" style="fill:rgb(23,22,21);font-family:Minion-Black;font-size:7.97px;stroke:none;">1</text>
   <text y="256.418" x="409.986,416.539,422.278,427.181,430.769,435.468,440.168,445.9088,448.394,454.947,460.686,464.274,467.742,473.4828,475.959,483.707,489.447,494.146,498.846,504.586,509.488,515.838,519.88,523.922,527.509" svgx:width="0.55,0.48,0.41,0.3,0.39,0.39,0.48,0.55,0.55,0.48,0.3,0.29,0.48,0.55,0.65,0.48,0.39,0.39,0.48,0.41,0.53,0.34,0.34,0.3,0.25" style="fill:rgb(23,22,21);font-family:Minion-Black;font-size:11.96px;stroke:none;">Larissa Laila Cassarotti,</text>
   <text y="251.153" x="530.442" svgx:width="0.5" style="fill:rgb(23,22,21);font-family:Minion-Black;font-size:7.97px;stroke:none;">1</text>
   <text y="270.368" x="86.697,94.826,100.565,104.032,108.073,113.464,118.3676,120.854,127.644,134.208,140.998,146.737,151.638,158.202,164.5408,167.031,174.777,181.126,186.266,191.407,197.7458,200.254,206.327,212.065,215.532,221.199,226.938,233.501,238.893,244.727,251.075" svgx:width="0.68,0.48,0.29,0.34,0.45,0.41,0.55,0.57,0.55,0.57,0.48,0.41,0.55,0.53,0.55,0.65,0.53,0.43,0.43,0.53,0.55,0.51,0.48,0.29,0.47,0.48,0.55,0.45,0.49,0.53,0.25" style="fill:rgb(23,22,21);font-family:Minion-Black;font-size:11.96px;stroke:none;">Valter Eduardo Cocco Salvadego,</text>
   <text y="265.103" x="254.007" svgx:width="0.5" style="fill:rgb(23,22,21);font-family:Minion-Black;font-size:7.97px;stroke:none;">1</text>
   <text y="270.368" x="260.982,268.848,272.435,277.576,283.314,288.216,294.779,301.1178,303.608,311.367,314.834,320.225,326.107,331.846,338.72,345.283,350.185,355.567,358.06,364.133,370.732,374.319,379.22,385.568,392.443,397.834,401.301,404.768,411.116" svgx:width="0.66,0.3,0.43,0.48,0.41,0.55,0.53,0.55,0.65,0.29,0.45,0.49,0.48,0.57,0.55,0.41,0.45,0.55,0.51,0.55,0.3,0.41,0.53,0.57,0.45,0.29,0.29,0.53,0.25" style="fill:rgb(23,22,21);font-family:Minion-Black;font-size:11.96px;stroke:none;">Ricardo Alexandre Spironello,</text>
   <text y="265.103" x="414.054" svgx:width="0.5" style="fill:rgb(23,22,21);font-family:Minion-Black;font-size:7.97px;stroke:none;">1</text>
   <text y="284.309" x="86.697,94.444,98.03,104.379,114.481,120.219,125.12259999999999,127.609,135.367,141.967,147.705,152.607,157.998,163.139,166.726,173.289,179.0298,181.515,189.25,194.642,199.544,204.242,209.98,216.855,220.441,224.518,232.277,242.379,248.117,254.681,261.029" svgx:width="0.65,0.3,0.53,0.85,0.48,0.41,0.55,0.65,0.55,0.48,0.41,0.45,0.43,0.3,0.55,0.48,0.55,0.65,0.45,0.41,0.39,0.48,0.57,0.3,0.34,0.65,0.85,0.48,0.55,0.53,0.25" style="fill:rgb(23,22,21);font-family:Minion-Black;font-size:11.96px;stroke:none;">Ciomar Aparecida Bersani-Amado,</text>
   <text y="279.053" x="263.961" svgx:width="0.5" style="fill:rgb(23,22,21);font-family:Minion-Black;font-size:7.97px;stroke:none;">1</text>
   <text y="284.309" x="270.936,276.676,283.551,290.12899999999996,292.596,300.464,306.813,313.342,318.735,323.638,327.68,334.0188,336.526,344.992,350.385,357.26,360.812,364.40000000000003,366.886,375.567,381.307,387.692,393.432,403.535,410.327,415.229,420.96979999999996,423.456,431.204,437.995,448.099,453.838" svgx:width="0.48,0.57,0.55,0.55,0.66,0.53,0.55,0.45,0.41,0.34,0.53,0.55,0.71,0.45,0.57,0.3,0.3,0.55,0.73,0.48,0.53,0.48,0.85,0.57,0.41,0.48,0.55,0.65,0.57,0.85,0.48,0.57" style="fill:rgb(23,22,21);font-family:Minion-Black;font-size:11.96px;stroke:none;">and Roberto Kenji Nakamura Cuman</text>
  </g>
  <path style="fill:rgb(165,200,52);stroke:none;stroke-width:1.0;" d="M472.110 281.150 C472.110 283.950 469.830 286.230 467.030 286.230 C464.220 286.230 461.950 283.950 461.950 281.150 C461.950 278.350 464.220 276.070 467.030 276.070 C469.830 276.070 472.110 278.350 472.110 281.150 "/>
  <path style="fill:rgb(255,255,255);stroke:none;stroke-width:1.0;" d="M466.880 282.910 L467.850 282.910 C469.240 282.910 469.560 281.860 469.560 281.340 C469.560 280.480 469.010 279.760 467.820 279.760 L466.880 279.760 L466.880 282.910 ZM466.270 279.210 L467.920 279.210 C469.490 279.210 470.180 280.330 470.180 281.340 C470.180 282.430 469.330 283.460 467.930 283.460 L466.270 283.460 L466.270 279.210 "/>
  <path style="fill:rgb(255,255,255);stroke:none;stroke-width:1.0;" d="M465.470 278.330 C465.470 278.540 465.290 278.730 465.070 278.730 C464.850 278.730 464.670 278.540 464.670 278.330 C464.670 278.100 464.850 277.920 465.070 277.920 C465.290 277.920 465.470 278.110 465.470 278.330 "/>
  <g begin="text">
   <text y="279.053" x="472.644" svgx:width="0.5" style="fill:rgb(23,22,21);font-family:Minion-Black;font-size:7.97px;stroke:none;">1</text>
   <text y="300.419" x="86.697" svgx:width="0.34" style="fill:rgb(23,22,21);font-family:MinionPro-It;font-size:5.98px;stroke:none;">1</text>
   <text y="304.361" x="89.487,95.895,99.45,103.8,108.048,111.504,114.177,121.17,124.761,129.333,132.1137,134.13,138.243,140.6649,142.734,147.657,152.175,156.423,159.789,166.782,171.111,174.477,178.599,180.823,185.029,188.98,192.9268,195.001,199.249,203.957,208.5317,210.562,219.76,223.338,226.452,230.745,235.065,238.644,243.297,245.97,248.381,251.799,254.812,256.87510000000003,258.961,263.056,265.72,269.913,272.577,276.165,278.22,284.214,288.831,291.144,295.113,298.691,301.965,304.898,307.221,309.965,313.91179999999997,315.977,320.09,322.51189999999997,324.582,332.168,336.416,339.782,342.114,346.766" svgx:width="0.71,0.4,0.49,0.49,0.37,0.31,0.79,0.4,0.53,0.31,0.55,0.47,0.27,0.55,0.55,0.51,0.49,0.37,0.79,0.49,0.38,0.47,0.25,0.47,0.42,0.44,0.55,0.49,0.53,0.51,0.55,1.03,0.4,0.37,0.49,0.49,0.4,0.53,0.31,0.27,0.38,0.34,0.23,0.55,0.47,0.31,0.49,0.31,0.4,0.55,0.71,0.53,0.27,0.45,0.4,0.37,0.34,0.27,0.31,0.44,0.55,0.47,0.27,0.55,0.88,0.49,0.37,0.27,0.53,0.42" style="fill:rgb(23,22,21);font-family:MinionPro-It;font-size:8.97px;stroke:none;">Department of Pharmacology and Therapeutics ,Stat eUniversit yo fMaring</text>
   <text y="304.209" x="350.965" svgx:width="0.4" style="fill:rgb(23,22,21);font-family:MinionPro-It;font-size:8.97px;stroke:none;">´</text>
   <text y="304.361" x="350.526,354.918,356.9811,359.084,366.671,370.919,374.285,376.616,381.269" svgx:width="0.49,0.23,0.55,0.88,0.49,0.37,0.27,0.53,0.42" style="fill:rgb(23,22,21);font-family:MinionPro-It;font-size:8.97px;stroke:none;">a, Maring</text>
   <text y="304.209" x="385.477" svgx:width="0.4" style="fill:rgb(23,22,21);font-family:MinionPro-It;font-size:8.97px;stroke:none;">´</text>
   <text y="304.361" x="385.037,389.418,391.4811,393.575,398.426,403.889,405.95210000000003,408.047,413.096,416.21,420.602,424.336,426.771" svgx:width="0.49,0.23,0.55,0.55,0.6,0.23,0.55,0.58,0.37,0.49,0.42,0.27,0.25" style="fill:rgb(23,22,21);font-family:MinionPro-It;font-size:8.97px;stroke:none;">a, PR, Brazil</text>
   <text y="311.624" x="86.697" svgx:width="0.47" style="fill:rgb(23,22,21);font-family:MinionPro-It;font-size:5.98px;stroke:none;">2</text>
   <text y="315.575" x="89.487,95.211,99.333,101.52,103.716,107.226,110.988,114.576,116.631,120.744,123.1659,125.226,131.598,135.135,139.428,141.512,144.185,148.7597,150.818,155.066,158.495,160.907,164.498,169.205,172.571,176.091,179.115,181.1781,183.264,187.7,191.238,195.756,199.347,202.48,206.773,209.0155,211.048,217.042,221.663,223.962,227.931,231.522,234.77,237.704,240.003,242.757,246.7038,248.769,252.882,255.3039,257.373,263.358,266.491,270.736,275.443,279.961,283.54900000000004,285.604,292.012,296.134,300.795,303.928,308.257,312.775,316.933,319.957,322.0201,324.123,330.532,334.653,339.315,342.429,346.758,351.276,355.434,358.457,360.5201,362.624,370.481,374.675,376.73810000000003,378.833,383.875,387.008,391.4,395.144,397.547" svgx:width="0.63,0.47,0.25,0.25,0.4,0.42,0.4,0.55,0.47,0.27,0.55,0.74,0.4,0.49,0.25,0.31,0.51,0.55,0.47,0.38,0.27,0.4,0.53,0.38,0.4,0.34,0.23,0.55,0.53,0.4,0.51,0.4,0.37,0.49,0.25,0.55,0.71,0.53,0.27,0.45,0.4,0.37,0.34,0.27,0.31,0.44,0.55,0.47,0.27,0.55,0.68,0.37,0.49,0.53,0.51,0.4,0.55,0.71,0.47,0.53,0.37,0.49,0.51,0.47,0.34,0.23,0.55,0.71,0.47,0.53,0.37,0.49,0.51,0.47,0.34,0.23,0.55,0.88,0.47,0.23,0.55,0.58,0.37,0.49,0.42,0.27,0.25" style="fill:rgb(23,22,21);font-family:MinionPro-It;font-size:8.97px;stroke:none;">College of Health Sciences, Federal University of Grande Dourados, Dourados, MS, Brazil</text>
   <text y="322.838" x="86.697" svgx:width="0.46" style="fill:rgb(23,22,21);font-family:MinionPro-It;font-size:5.98px;stroke:none;">3</text>
   <text y="326.78" x="89.487,95.895,99.45,103.77,108.019,111.474,114.147,121.1,124.691,129.263,132.0437,134.06,138.17,140.59189999999998,142.661,148.359,152.877,156.468,163.371,165.855,168.789,171.437,174.902,178.304,180.3671,182.452,186.545,189.193,193.387,196.051,199.63899999999998,201.693,207.687,212.304,214.618,218.586,222.177,225.426,228.359,230.703,233.457,237.4038,239.469,243.579,246.0009,248.07,255.657,259.946,263.312,265.656,270.322" svgx:width="0.71,0.4,0.49,0.49,0.37,0.31,0.79,0.4,0.53,0.31,0.55,0.47,0.27,0.55,0.63,0.51,0.4,0.79,0.27,0.34,0.31,0.37,0.44,0.23,0.55,0.47,0.31,0.49,0.31,0.4,0.55,0.71,0.53,0.27,0.45,0.4,0.37,0.34,0.27,0.31,0.44,0.55,0.47,0.27,0.55,0.88,0.49,0.37,0.27,0.53,0.42" style="fill:rgb(23,22,21);font-family:MinionPro-It;font-size:8.97px;stroke:none;">Department of Chemistry, State University of Maring</text>
   <text y="326.627" x="274.527" svgx:width="0.4" style="fill:rgb(23,22,21);font-family:MinionPro-It;font-size:8.97px;stroke:none;">´</text>
   <text y="326.78" x="274.087,278.479,280.5421,282.637,290.223,294.471,297.837,300.169,304.821" svgx:width="0.49,0.23,0.55,0.88,0.49,0.37,0.27,0.53,0.42" style="fill:rgb(23,22,21);font-family:MinionPro-It;font-size:8.97px;stroke:none;">a, Maring</text>
   <text y="326.627" x="309.029" svgx:width="0.4" style="fill:rgb(23,22,21);font-family:MinionPro-It;font-size:8.97px;stroke:none;">´</text>
   <text y="326.78" x="308.59,312.97,315.03310000000005,317.137,321.988,327.451,329.51410000000004,331.608,336.657,339.771,344.163,347.898,350.332" svgx:width="0.49,0.23,0.55,0.55,0.6,0.23,0.55,0.58,0.37,0.49,0.42,0.27,0.25" style="fill:rgb(23,22,21);font-family:MinionPro-It;font-size:8.97px;stroke:none;">a, PR, Brazil</text>
   <text y="345.842" x="86.707,92.809,97.273,100.657,103.87,107.673,110.955,115.734,120.199,125.095,129.821,133.624,138.521,142.305,146.1621,148.146,151.429,156.209,160.682,165.488,167.748,172.50209999999998,174.516,179.151,183.0081,185.001,188.929,193.655,198.381,201.594,205.397,208.679,212.045,215.897,220.65109999999999,222.665,225.347,229.92170000000002,231.952,236.201,239.963,244.769,247.029,251.6037,253.644,258.539,263.301,267.035,269.303,271.698,276.424,280.227,283.54589999999996,285.563,289.757,292.205,294.41,298.553,302.481,305.665,310.4,312.848,315.161,319.914,324.478,326.54110000000003,328.564,331.912,335.675,340.481,342.748,347.059,349.102,352.904,356.187,358.833,365.577,369.816,377.133,380.985,383.432,385.646,387.689,391.473,395.938" svgx:width="0.67,0.51,0.37,0.37,0.43,0.37,0.52,0.51,0.55,0.53,0.43,0.55,0.42,0.43,0.55,0.37,0.53,0.51,0.53,0.25,0.53,0.55,0.51,0.43,0.55,0.44,0.53,0.53,0.37,0.43,0.37,0.37,0.43,0.53,0.55,0.31,0.51,0.55,0.47,0.44,0.53,0.25,0.51,0.55,0.57,0.53,0.42,0.25,0.27,0.53,0.43,0.37,0.55,0.47,0.27,0.25,0.46,0.44,0.36,0.53,0.27,0.25,0.53,0.51,0.23,0.55,0.37,0.44,0.53,0.25,0.51,0.23,0.43,0.37,0.3,0.75,0.47,0.82,0.44,0.27,0.25,0.23,0.42,0.51,0.82" style="fill:rgb(23,22,21);font-family:MinionPro-Regular2;font-size:8.97px;stroke:none;">Correspondence should be addressed to Saulo Euclides Silva-Filho; saulo.esf@gmail.com</text>
   <text y="365.775" x="86.707,92.276,96.086,99.879,103.69,106.093,110.244,114.055,118.789,120.825,125.128,129.432,131.468,138.13,142.703,146.854,150.665,158.008,162.563,166.374,169.7,171.736,176.04,180.344,184.647,188.951,190.996,193.031,198.599,202.41,206.561,208.964,212.255,216.066,220.8,222.835,227.139,231.443,233.478,236.428,240.365,245.269,250.03,253.967,257.293,261.409,263.444,267.748,272.052,276.356,280.66,282.704,284.739,290.935,294.728,298.521,302.331,307.03,309.764,313.575,318.309,320.345,324.649,326.684,331.427,335.238,339.793,343.119,347.881,351.817,355.143,359.259,361.294,365.598,369.902,374.206,378.51,380.554,382.59,387.638,392.399,396.954,399.222,401.625,404.916,409.704,413.515,418.249,420.284,424.588,428.892,430.927,438.916,442.853,446.179,449.972,454.76,456.795,461.099,465.403,469.707" svgx:width="0.62,0.43,0.42,0.43,0.27,0.46,0.43,0.53,0.23,0.48,0.48,0.23,0.74,0.51,0.46,0.43,0.82,0.51,0.43,0.37,0.23,0.48,0.48,0.48,0.48,0.23,0.23,0.62,0.43,0.46,0.27,0.37,0.43,0.53,0.23,0.48,0.48,0.23,0.33,0.44,0.55,0.53,0.44,0.37,0.46,0.23,0.48,0.48,0.48,0.48,0.23,0.23,0.69,0.42,0.42,0.43,0.52,0.31,0.43,0.53,0.23,0.48,0.23,0.53,0.43,0.51,0.37,0.53,0.44,0.37,0.46,0.23,0.48,0.48,0.48,0.48,0.23,0.23,0.56,0.53,0.51,0.25,0.27,0.37,0.53,0.43,0.53,0.23,0.48,0.48,0.23,0.89,0.44,0.37,0.42,0.53,0.23,0.48,0.48,0.48,0.48" style="fill:rgb(23,22,21);font-family:MinionPro-Regular;font-size:8.97px;stroke:none;">Received 14 November 2017; Revised 31 January 2018; Accepted 6 February 2018; Published 18 March 2018</text>
   <text y="385.115" x="86.707" svgx:width="0.69" style="fill:rgb(23,22,21);font-family:MinionPro-Regular2;font-size:8.97px;stroke:none;">A</text>
   <text y="385.117" x="92.65,96.466,100.402,105.135,108.945,116.288,118.69,122.45739999999999,124.53,129.669,134.402,136.698,139.38,143.844,147.39,149.45309999999998,151.467,154.131,158.892,163.626,165.92,168.34189999999998,170.357,175.901" svgx:width="0.42,0.44,0.53,0.43,0.82,0.27,0.42,0.55,0.57,0.53,0.27,0.31,0.51,0.37,0.23,0.55,0.33,0.53,0.55,0.26,0.27,0.55,0.65,0.53" style="fill:rgb(23,22,21);font-family:MinionPro-Regular2;font-size:8.97px;stroke:none;">cademic Editor: Junji Xu</text>
   <text y="404.458" x="86.697,92.798,97.272,101.826,105.965,109.349,111.752,116.01,120.626,123.4067,125.604,131.883,134.135,138.347,142.73,145.747,149.96290000000002,152.245,158.642,162.503,166.949,170.333,172.722,176.519,178.7615,181.227,185.799,189.596,192.98,197.871,201.723,206.614,211.335,215.90970000000002,218.337,223.467,226.744,229.426,233.305,237.382,241.179,244.49790000000002,246.903,252.951,256.803,260.015,264.75,267.139,271.0858,273.493,277.29,280.07070000000004,282.456,286.378,288.633,290.6961,293.107,302.71,305.099,308.4179,310.815,313.204,316.5229,318.919,322.771,327.7045,330.106,334.579,339.358,343.155,348.08849999999995,350.49,354.413,358.192,361.971,365.769,369.046,372.3649,374.779,378.631,382.051,384.831,387.221,390.955,393.21,397.0671,399.447,404.168,406.558,409.835,412.615,415.999,418.366,422.821,427.474,430.156,434.007,438.7611,441.163,445.924,450.815,455.536,459.333,462.6519,465.093,467.883,472.636,476.4931,478.864,484.831,488.043,491.904,495.667,498.448,500.788,504.865,508.7221,511.102,517.204,521.668,529.012,536.342,540.806,545.639" svgx:width="0.67,0.51,0.52,0.46,0.37,0.27,0.47,0.53,0.31,0.55,0.7,0.55,0.47,0.49,0.34,0.47,0.55,0.71,0.44,0.51,0.37,0.27,0.43,0.25,0.55,0.53,0.43,0.37,0.55,0.44,0.55,0.53,0.51,0.55,0.57,0.37,0.31,0.43,0.46,0.43,0.37,0.55,0.67,0.44,0.37,0.53,0.27,0.44,0.55,0.43,0.31,0.55,0.44,0.25,0.23,0.55,1.07,0.27,0.37,0.55,0.27,0.37,0.55,0.44,0.55,0.55,0.51,0.52,0.43,0.55,0.55,0.44,0.42,0.42,0.43,0.37,0.37,0.55,0.44,0.37,0.31,0.27,0.42,0.25,0.43,0.55,0.53,0.27,0.37,0.31,0.37,0.27,0.51,0.53,0.31,0.43,0.53,0.55,0.53,0.55,0.53,0.43,0.37,0.55,0.31,0.53,0.43,0.55,0.67,0.37,0.43,0.44,0.31,0.27,0.46,0.43,0.55,0.67,0.51,0.82,0.82,0.51,0.55,0.37" style="fill:rgb(23,22,21);font-family:MinionPro-Regular2;font-size:8.97px;stroke:none;">Copyright © 2018 Gabriel Fernando Esteves Cardia et al. Thi si sa nope nacces sarticl edistribute dunde rth eCreativ eCommons</text>
   <text y="414.912" x="86.697,92.519,95.165,97.947,101.331,103.725,108.179,112.832,115.613,118.007,122.472,127.40549999999999,129.411,134.289,136.683,140.466,144.268,149.101,152.467,156.274,158.3371,160.351,166.552,171.331,173.726,177.46,182.2141,184.291,189.07,192.871,196.255,203.59,205.885,208.611,211.9299,213.93,218.682,223.578,226.79,230.592,233.874,236.655,240.039,242.433,246.285,248.967,252.819,257.5731,259.587,264.321,267.687,271.44,273.5031,275.517,280.252,282.646,285.927,288.709,292.093,294.487,298.941,303.594,306.375,308.769,313.206,318.11,320.17310000000003,322.187,326.039,330.907,335.6611,337.675,340.888,344.698,349.288,352.5,357.153,361.779,366.539,370.391,373.172,375.574,380.039,384.97249999999997,386.978,389.38,394.3135,396.319,400.171,404.868,408.9942,411.016,418.358,422.168,426.902,429.196,433.956,441.299,443.3621,445.367,449.957,453.17,457.597,461.748,464.15,468.883,472.693,477.4471,479.47,482.26,487.047,490.9041,492.888,497.352,500.736,503.138,507.334,509.736,514.64,518.575,520.8175,522.877,528.943,533.407,536.733,541.218,543.213,545.615" svgx:width="0.69,0.31,0.31,0.37,0.27,0.51,0.53,0.31,0.27,0.51,0.55,0.55,0.54,0.27,0.42,0.43,0.55,0.37,0.43,0.23,0.55,0.69,0.53,0.27,0.42,0.53,0.55,0.52,0.43,0.37,0.82,0.27,0.31,0.37,0.55,0.53,0.55,0.37,0.43,0.37,0.31,0.37,0.27,0.42,0.31,0.43,0.53,0.55,0.53,0.37,0.43,0.23,0.55,0.53,0.27,0.37,0.31,0.37,0.27,0.51,0.53,0.31,0.27,0.51,0.55,0.23,0.55,0.44,0.55,0.53,0.55,0.37,0.43,0.52,0.37,0.51,0.53,0.53,0.42,0.31,0.27,0.51,0.55,0.55,0.27,0.55,0.55,0.44,0.55,0.46,0.55,0.82,0.43,0.53,0.27,0.53,0.82,0.23,0.55,0.52,0.37,0.51,0.46,0.27,0.53,0.43,0.53,0.55,0.31,0.53,0.43,0.55,0.51,0.37,0.27,0.47,0.27,0.55,0.44,0.25,0.55,0.69,0.51,0.37,0.5,0.55,0.27,0.37" style="fill:rgb(23,22,21);font-family:MinionPro-Regular2;font-size:8.97px;stroke:none;">Attribution License, which permits unrestricted use, distribution, and reproduction in any medium, provided the original work is</text>
   <text y="425.367" x="86.697,91.287,94.499,98.973,103.752,107.558,110.88,113.085,117.21119999999999,119.232,123.02,125.316,127.998,131.85,136.579" svgx:width="0.52,0.37,0.51,0.52,0.43,0.37,0.25,0.46,0.55,0.42,0.27,0.31,0.43,0.53,0.23" style="fill:rgb(23,22,21);font-family:MinionPro-Regular2;font-size:8.97px;stroke:none;">properly cited.</text>
   <text y="445.99" x="86.697,91.494,95.678,99.647,103.895,108.602,113.039,117.773,119.969,124.3643,128.636,132.884,137.55,141.366,146.181,149.114,151.762,154.105,156.43,160.539,162.667,165.079" svgx:width="0.53,0.49,0.45,0.49,0.53,0.51,0.53,0.25,0.49,0.55,0.49,0.53,0.42,0.53,0.34,0.31,0.27,0.27,0.47,0.25,0.27,0.49" style="fill:rgb(23,22,21);font-family:MinionPro-It;font-size:8.97px;stroke:none;">Lavandula angustifolia</text>
   <text y="445.99" x="173.734,176.137,179.4559,183.661,187.6078,191.824,196.459,198.728,202.58,207.314,210.0947,214.289,218.754,221.445,225.639,230.598,234.45,241.795,244.199,248.136,251.929,255.79,259.728,263.5851,267.782,270.437,274.289,281.633,284.081,286.286,289.742,291.80510000000004,296.024,302.189,304.483,307.274,312.0281,316.301,323.618,327.47,332.167,336.29319999999996,340.51,343.301,348.09,351.901,355.229,358.991,363.77,367.577,372.23,375.011,377.415,381.18240000000003,385.452,390.042,393.254,397.728,402.507,406.318,409.738,412.52,414.923,418.735,422.0539,426.25,430.102,434.97,439.7241,443.943,448.389,450.793,455.302,457.571,462.145,466.384,468.788,472.582,476.56,478.8025,483.067,487.004,490.856,493.638,495.978,500.13,502.425,505.206,507.61,511.422,514.713,516.7760999999999,521.004,524.253,529.015,532.749,537.5031,541.768,545.673" svgx:width="0.27,0.37,0.55,0.44,0.55,0.52,0.25,0.44,0.55,0.31,0.55,0.51,0.3,0.55,0.54,0.44,0.82,0.27,0.44,0.42,0.43,0.44,0.43,0.55,0.3,0.44,0.82,0.27,0.25,0.46,0.23,0.55,0.69,0.27,0.31,0.53,0.55,0.82,0.44,0.55,0.46,0.55,0.31,0.53,0.43,0.37,0.44,0.52,0.43,0.53,0.31,0.27,0.42,0.55,0.52,0.37,0.51,0.52,0.43,0.37,0.31,0.27,0.43,0.37,0.55,0.44,0.55,0.53,0.55,0.51,0.27,0.51,0.25,0.51,0.47,0.27,0.42,0.44,0.25,0.55,0.44,0.42,0.31,0.27,0.46,0.27,0.31,0.27,0.43,0.37,0.23,0.55,0.37,0.53,0.42,0.53,0.55,0.44,0.37" style="fill:rgb(23,22,21);font-family:MinionPro-Regular2;font-size:8.97px;stroke:none;">is a plant of Lamiaceae family, with many therapeutic properties and biological activities, such as</text>
   <text y="456.454" x="86.697,90.549,95.283,98.064,100.467,104.26,108.724,113.422,117.573,122.335,124.603,127.951,131.803,136.537,139.272,141.33509999999998,144.744,148.596,153.501,157.733,160.136,164.645,166.85,170.966,173.747,176.15,179.943,182.0061,185.415,189.267,194.001,196.783,199.186,203.613,207.845,210.248,214.983,218.835,223.569,226.304,228.3671,231.776,235.628,240.362,243.143,245.546,248.738,251.141,256.046,260.825,264.677,272.021,279.364,283.126,285.808,290.273,293.864,297.319,299.38210000000004,302.791,306.643,311.548,316.3021,319.702,323.554,328.288,331.069,333.472,340.815,343.218,347.011,350.224,354.751,359.196,361.626,365.563,367.8055,371.26,375.196,379.048,381.829,384.17,388.321,390.615,393.396,395.799,399.61,402.9,404.9631,408.382,417.949,421.8061,425.176,429.028,431.431,438.78639999999996,442.195,446.659,449.34999999999997,452.734,455.524,460.312,462.715,466.03389999999996,469.42,472.711,475.357,480.118,484.789,488.91519999999997,492.321,498.459,502.395,505.71389999999997,509.109,511.791,516.3657,519.783,523.662,527.813,531.749,533.909,538.67,542.433,545.115" svgx:width="0.44,0.55,0.31,0.27,0.42,0.51,0.55,0.46,0.53,0.25,0.37,0.44,0.55,0.31,0.23,0.55,0.44,0.55,0.47,0.27,0.51,0.25,0.46,0.31,0.27,0.42,0.23,0.55,0.44,0.55,0.31,0.27,0.51,0.47,0.27,0.53,0.44,0.55,0.31,0.23,0.55,0.44,0.55,0.31,0.27,0.36,0.27,0.55,0.53,0.44,0.82,0.82,0.44,0.31,0.51,0.37,0.46,0.23,0.55,0.44,0.55,0.53,0.55,0.44,0.55,0.31,0.27,0.82,0.27,0.42,0.37,0.51,0.51,0.27,0.44,0.25,0.55,0.44,0.42,0.31,0.27,0.46,0.27,0.31,0.27,0.43,0.37,0.23,0.55,1.07,0.43,0.55,0.44,0.27,0.82,0.55,0.51,0.3,0.55,0.31,0.53,0.27,0.37,0.55,0.37,0.31,0.53,0.53,0.46,0.55,0.69,0.44,0.37,0.55,0.31,0.51,0.55,0.43,0.46,0.44,0.25,0.53,0.44,0.31,0.43" style="fill:rgb(23,22,21);font-family:MinionPro-Regular2;font-size:8.97px;stroke:none;">anticonvulsant, anxiolytic, antioxidant, anti-inflammatory ,an dantimicrobia lactivities .T hea im ofth isstu dyw as toevaluate</text>
   <text y="466.909" x="86.697,89.489,94.241,98.0981,101.774,105.581,110.531,114.383,118.233,121.0137,124.704,129.169" svgx:width="0.31,0.53,0.43,0.55,0.43,0.56,0.43,0.42,0.31,0.55,0.51,0.3" style="fill:rgb(23,22,21);font-family:MinionPro-Regular2;font-size:8.97px;stroke:none;">the effec tof</text>
   <text y="466.909" x="135.581,140.379,144.563,148.532,152.78,157.487,161.924,166.658,168.854,173.2493,177.008,181.256,185.922,189.738,194.553,197.486,200.134,202.477,204.802,208.911,211.039,213.451" svgx:width="0.53,0.49,0.45,0.49,0.53,0.51,0.53,0.25,0.49,0.55,0.49,0.53,0.42,0.53,0.34,0.31,0.27,0.27,0.47,0.25,0.27,0.49" style="fill:rgb(23,22,21);font-family:MinionPro-It;font-size:8.97px;stroke:none;">Lavandula angustifolia</text>
   <text y="466.909" x="221.605,229.534,231.982,234.295,236.509,238.57209999999998,242.287,246.094,249.343,252.709,256.516,261.25,264.031,266.461,270.44,272.6825,276.443,280.922,283.37,285.6125,289.364,292.469,297.293,302.387,309.083,312.2225,315.905,320.384,325.3175,329.015,332.948,336.8,341.468,344.15,348.0071,351.691,354.094,358.999,363.805,367.648,374.992,382.308,386.07,388.752,393.217,396.808,400.9342,404.647,407.88,411.687,414.936,419.715,424.195,429.006,432.372,436.125,438.1881,441.912,446.736,451.83,458.5575,462.243,468.38,472.286,475.6049,479.315,483.167,488.044,492.022,494.197,498.31,502.072,505.924,510.6781,514.402,519.136,522.431,524.834,529.645,533.8609,537.556,541.75,545.655" svgx:width="0.89,0.27,0.25,0.25,0.23,0.55,0.43,0.37,0.37,0.43,0.55,0.31,0.27,0.44,0.25,0.55,0.51,0.27,0.25,0.55,0.35,0.54,0.57,0.75,0.35,0.55,0.51,0.55,0.55,0.44,0.42,0.53,0.31,0.43,0.55,0.27,0.55,0.53,0.44,0.82,0.82,0.44,0.31,0.51,0.37,0.46,0.55,0.37,0.43,0.37,0.52,0.51,0.55,0.37,0.43,0.23,0.55,0.54,0.57,0.75,0.55,0.69,0.44,0.37,0.55,0.44,0.55,0.44,0.25,0.46,0.42,0.43,0.53,0.55,0.53,0.37,0.27,0.55,0.47,0.55,0.47,0.44,0.37" style="fill:rgb(23,22,21);font-family:MinionPro-Regular2;font-size:8.97px;stroke:none;">Mill. essential oil (LEO) on acute inflammator yresponse .LE Owa sanalyze dusin ggas</text>
   <text y="477.363" x="86.697,90.431,95.217,98.429,102.894,110.234,113.997,116.679,121.249,125.442,128.766,132.528,137.163,141.744,145.857,149.046,156.387,160.321,163.609,166.92790000000002,171.114,174.363,179.142,182.994,186.846,189.627,192.84,197.304,204.645,208.453,211.185,214.776,218.90220000000002,223.093,226.198,232.606,238.566,241.755,249.742,253.989,257.12850000000003,261.288,265.14,270.042,274.79609999999997,278.978,283.713,288.471,292.206,294.471,298.332,302.184,305.5029,309.735,317.051,320.939,325.179,330.081,333.889,336.621,339.021,342.7884,347.022,350.234,354.042,357.408,361.873,366.75,370.602,375.471,379.261,383.1181,387.28,390.568,395.347,399.155,403.007,405.739,408.952,413.522,416.888,420.678,425.151,429.705,433.83119999999997,438.031,441.13,447.79,455.776,461.341,464.4805,468.64,475.981,479.789,482.579,487.331,491.984,496.691,500.00989999999996,504.188,508.04,512.942,517.6961,521.888,525.176,529.961,534.389,540.455,544.263" svgx:width="0.42,0.53,0.37,0.51,0.82,0.44,0.31,0.51,0.47,0.37,0.44,0.52,0.53,0.46,0.36,0.82,0.44,0.37,0.37,0.55,0.37,0.52,0.43,0.42,0.31,0.37,0.51,0.82,0.43,0.31,0.37,0.46,0.55,0.35,0.71,0.67,0.36,0.89,0.47,0.35,0.55,0.44,0.55,0.53,0.55,0.55,0.53,0.42,0.25,0.43,0.44,0.37,0.55,0.82,0.44,0.47,0.55,0.43,0.31,0.27,0.42,0.55,0.37,0.43,0.37,0.51,0.55,0.44,0.55,0.42,0.43,0.55,0.37,0.52,0.43,0.42,0.31,0.37,0.51,0.37,0.42,0.51,0.52,0.46,0.55,0.35,0.74,0.89,0.62,0.35,0.55,0.82,0.43,0.31,0.53,0.51,0.53,0.37,0.55,0.44,0.55,0.53,0.55,0.37,0.53,0.51,0.69,0.43,0.53" style="fill:rgb(23,22,21);font-family:MinionPro-Regular2;font-size:8.97px;stroke:none;">chromatography-mass spectrometry (GC-MS) and nuclear magnetic resonance spectroscopy (NMR) methods and showed</text>
   <text y="487.827" x="86.697,91.287,94.499,98.31,103.044,107.508,114.851,117.254,122.159,126.011,130.88,134.672,138.5291,140.09,144.554,147.245,148.82,151.851,153.895,158.154,161.346,165.139,167.542,172.447,176.258,180.767,183.035,186.8921,188.453,191.555,195.533,199.529,201.573,205.74,209.793,216.571,219.674,221.7371,223.337,227.971,232.435,235.819,240.687,244.498,249.007,251.2495,252.877,255.98,260.149,264.318,266.363,270.719,274.771,281.55,284.652,286.7151,288.306,292.158,297.027,301.7811,303.371,307.188,311.04,318.213,322.847,327.6,332.064,335.3829,337.005,340.108,344.277,348.447,350.491,353.521,357.691,364.469,367.572,369.6351,371.226,376.05,381.142,389.44,393.202,395.9827,397.549,401.342,405.806,410.711,414.504,418.315,423.049,425.83,429.157,432.919,435.7,438.103,442.568,447.401,450.7199,452.305,456.77,459.46099999999996,461.027,465.447,467.492,471.562,473.62510000000003,475.216,478.247,480.31010000000003,481.901,485.954,488.0171,489.598,493.45,498.355,503.1091,504.7,507.73" svgx:width="0.52,0.37,0.43,0.53,0.51,0.82,0.27,0.55,0.44,0.55,0.42,0.43,0.55,0.51,0.3,0.55,0.34,0.23,0.47,0.36,0.42,0.27,0.55,0.43,0.51,0.25,0.43,0.55,0.35,0.45,0.49,0.23,0.47,0.45,0.76,0.35,0.23,0.55,0.51,0.51,0.37,0.55,0.43,0.51,0.25,0.55,0.35,0.47,0.47,0.23,0.5,0.45,0.76,0.35,0.23,0.55,0.44,0.55,0.53,0.55,0.42,0.44,0.82,0.52,0.53,0.51,0.37,0.55,0.35,0.47,0.47,0.23,0.34,0.47,0.76,0.35,0.23,0.55,0.54,0.57,0.75,0.44,0.31,0.55,0.42,0.51,0.55,0.42,0.43,0.55,0.31,0.37,0.44,0.31,0.27,0.51,0.55,0.37,0.55,0.51,0.3,0.55,0.49,0.23,0.45,0.23,0.55,0.34,0.23,0.55,0.45,0.23,0.55,0.44,0.55,0.53,0.55,0.34,0.49" style="fill:rgb(23,22,21);font-family:MinionPro-Regular2;font-size:8.97px;stroke:none;">predominance of 1,8-cineole (39.83%), borneol (22.63%), and camphor (22.12%). LEOat concentrations of 0.5, 1, 3, and 10</text>
   <text y="487.827" x="513.677" svgx:width="0.56" style="fill:rgb(23,22,21);font-family:MinionMath-Regular;font-size:8.97px;stroke:none;">𝜇</text>
   <text y="487.827" x="518.653,522.849,525.817,533.206,535.4485,537.085,541.82,544.223" svgx:width="0.47,0.33,0.82,0.25,0.55,0.53,0.27,0.53" style="fill:rgb(23,22,21);font-family:MinionPro-Regular2;font-size:8.97px;stroke:none;">g/ml did</text>
   <text y="498.282" x="86.697,91.565,96.039,98.8197,100.503,105.093,108.306,112.113,115.479,119.286,124.02" svgx:width="0.55,0.51,0.31,0.55,0.52,0.37,0.43,0.37,0.43,0.55,0.31" style="fill:rgb(23,22,21);font-family:MinionPro-Regular2;font-size:8.97px;stroke:none;">not present</text>
   <text y="498.282" x="128.498,130.847,135.6011,137.363,141.485,143.807,146.461,149.575" svgx:width="0.27,0.53,0.55,0.45,0.27,0.31,0.37,0.47" style="fill:rgb(23,22,21);font-family:MinionPro-It;font-size:8.97px;stroke:none;">in vitro</text>
   <text y="498.282" x="155.514,159.446,163.559,166.242,170.715,173.398,177.826,182.056,184.459,188.248,190.544,193.306,196.762,198.8251,200.551,206.509,211.244,215.978,218.272,221.054,223.457,227.921,232.799,236.777,239.09,241.307,244.763,246.8261,248.552,253.376,258.469,266.893,271.628,274.031,278.7851,280.493,285.345,289.819,292.59970000000004,294.283,297.532,300.313,302.716,309.889,314.695,316.99,320.753,323.436,327.2931,328.97,331.761,336.513,340.3701,342.057,344.325,348.132,352.938,357.333,361.986,365.918,370.031,372.714,376.5711,378.258,381.999,386.735,390.542,397.85,402.323,405.113,409.046,413.276,415.627" svgx:width="0.42,0.46,0.31,0.51,0.31,0.51,0.47,0.27,0.42,0.27,0.31,0.46,0.23,0.55,0.69,0.53,0.53,0.27,0.31,0.27,0.51,0.55,0.44,0.25,0.25,0.46,0.23,0.55,0.54,0.57,0.75,0.53,0.27,0.53,0.55,0.55,0.51,0.31,0.55,0.37,0.31,0.27,0.82,0.53,0.25,0.44,0.31,0.43,0.55,0.31,0.53,0.43,0.55,0.25,0.43,0.53,0.5,0.51,0.42,0.46,0.31,0.43,0.55,0.42,0.53,0.43,0.82,0.51,0.31,0.44,0.47,0.27,0.37" style="fill:rgb(23,22,21);font-family:MinionPro-Regular2;font-size:8.97px;stroke:none;">cytotoxicity. Additionally, LEOdid not stimulate the leukocyte chemotaxis</text>
   <text y="498.282" x="420.677,423.026,427.7801,429.542,433.664,435.986,438.64,441.754" svgx:width="0.27,0.53,0.55,0.45,0.27,0.31,0.37,0.47" style="fill:rgb(23,22,21);font-family:MinionPro-It;font-size:8.97px;stroke:none;">in vitro</text>
   <text y="498.282" x="445.971,448.0341,449.752,459.319,463.1761,464.854,469.678,474.787,483.211,485.892,490.366,494.956,497.359,501.168,505.12,507.3625,509.125,512.888,517.487,522.121,524.406,526.825,530.634,534.396,537.147,539.566,544.031" svgx:width="0.23,0.55,1.07,0.43,0.55,0.54,0.57,0.75,0.31,0.51,0.52,0.27,0.42,0.44,0.25,0.55,0.44,0.52,0.52,0.25,0.27,0.42,0.44,0.31,0.27,0.51,0.55" style="fill:rgb(23,22,21);font-family:MinionPro-Regular2;font-size:8.97px;stroke:none;">. Th eLEOtopica lapplication</text>
   <text y="508.737" x="86.697,90.459,93.2397,96.066,99.858,104.322,109.227,113.019,116.83,121.564,124.346,127.672,131.434,134.216,136.619,141.083,145.916,149.2349,152.09,156.555,159.246,162.081,166.501,168.546,172.803,176.874,178.9371,181.796,186.217,188.261,192.332,194.39509999999999,197.254,201.106,206.011,210.7651,213.616,216.66580000000002,218.143,225.415,229.611,232.579,236.44,240.292,243.61090000000002,246.502,249.715,253.525,258.151,262.912,266.705,270.516,275.2701,278.13,281.941,286.675,290.486,297.829,301.7758,304.642,307.216,311.681,315.065,322.408,326.17,328.952,331.355,335.819,340.724,342.7871,345.637,352.775,356.816,360.587,362.855,367.329,372.108,375.919,379.131,383.559,387.791,390.194,394.928,398.865,402.231,406.0881,408.927,412.029,420.018,425.066,431.764,434.9035,437.731,441.668,445.52,448.3,450.64,454.792,457.086,459.821,463.277,465.3401,468.208,472.06,476.965,481.71909999999997,484.57,489.475,491.769,494.549,497.933,500.336,504.1034,506.997,511.424,515.656,518.059,522.794,526.6510999999999,529.481,532.583,539.18,545.878" svgx:width="0.44,0.31,0.55,0.42,0.51,0.55,0.42,0.43,0.55,0.31,0.37,0.44,0.31,0.27,0.51,0.55,0.37,0.55,0.51,0.3,0.55,0.49,0.23,0.47,0.45,0.23,0.55,0.49,0.23,0.45,0.23,0.55,0.44,0.55,0.53,0.55,0.34,0.55,0.82,0.47,0.33,0.43,0.44,0.37,0.55,0.37,0.43,0.53,0.53,0.42,0.43,0.53,0.55,0.43,0.53,0.43,0.82,0.44,0.55,0.3,0.51,0.37,0.82,0.44,0.31,0.27,0.51,0.55,0.23,0.55,0.82,0.46,0.43,0.25,0.51,0.52,0.43,0.37,0.51,0.47,0.27,0.53,0.44,0.37,0.43,0.55,0.35,0.89,0.56,0.75,0.35,0.55,0.44,0.42,0.31,0.27,0.46,0.27,0.31,0.46,0.23,0.55,0.44,0.55,0.53,0.55,0.55,0.27,0.31,0.37,0.27,0.42,0.55,0.51,0.47,0.27,0.53,0.43,0.55,0.35,0.74,0.75,0.35" style="fill:rgb(23,22,21);font-family:MinionPro-Regular2;font-size:8.97px;stroke:none;">at concentrations of 0.25, 0.5, and 1 mg/ear reduced edema formation, myeloperoxidase (MPO) activity, and nitric oxide (NO)</text>
   <text y="519.201" x="86.697,91.287,94.499,99.152,103.778,108.534,112.386,115.168,117.566,122.031,126.9645,129.779,132.178,137.1115,139.927,143.715,146.928,151.401,154.083,158.547,163.4805,166.296,170.76,173.208,175.472,178.66,181.058,185.958,190.584,195.341,199.129,202.935,207.6891,210.523,214.384,218.236,221.5549,224.419,228.225,232.955,236.761,244.1,248.0468,250.886,258.193,262.846,267.576,271.382,273.596,275.6591,278.492,281.408,286.3415,289.156,292.972,296.824,300.208,303.53,307.418,311.54,315.392,319.198,324.098,327.95,332.85,336.038,338.436,343.337,347.962,352.719,356.507,360.314,365.0681,367.919,372.613,376.384,382.5733,385.375,389.227,393.956,397.763,405.102,409.04879999999997,411.887,419.226,423.879,428.609,432.415,434.629,436.69210000000004,439.525,444.344,449.432,456.15950000000004,458.973,461.753,464.966,468.827,472.589,475.37,482.709,486.516,491.25,494.0307,496.839,500.601,503.3817,506.181,510.911,515.479,518.845,522.651,525.9698999999999,528.789,533.253,535.9440000000001,538.752,542.811,546.877" svgx:width="0.52,0.37,0.51,0.53,0.53,0.42,0.31,0.27,0.51,0.55,0.55,0.27,0.55,0.55,0.42,0.37,0.51,0.31,0.51,0.55,0.55,0.51,0.27,0.25,0.36,0.27,0.55,0.53,0.53,0.42,0.43,0.53,0.55,0.43,0.44,0.37,0.55,0.43,0.53,0.43,0.82,0.44,0.55,0.82,0.51,0.53,0.43,0.25,0.23,0.55,0.34,0.55,0.55,0.42,0.44,0.37,0.37,0.44,0.47,0.43,0.43,0.55,0.44,0.55,0.36,0.27,0.55,0.53,0.53,0.42,0.43,0.53,0.55,0.52,0.44,0.69,0.55,0.43,0.53,0.43,0.82,0.44,0.55,0.82,0.51,0.53,0.43,0.25,0.23,0.55,0.54,0.57,0.75,0.55,0.31,0.37,0.43,0.44,0.31,0.82,0.43,0.55,0.31,0.55,0.44,0.31,0.55,0.53,0.51,0.37,0.43,0.37,0.55,0.51,0.3,0.55,0.46,0.45,0.23" style="fill:rgb(23,22,21);font-family:MinionPro-Regular2;font-size:8.97px;stroke:none;">production in croton oil-induced ear edema model. In carrageenan-induced paw edema model, LEO treatment at doses of 75,</text>
   <text y="529.656" x="86.697,89.727,94.228,98.648,100.7111,102.806,106.658,111.526,116.28009999999999,118.375,122.632,126.808,131.2033,133.342,140.613,144.81,147.778,152.225,156.4409,158.543,161.755,165.566,170.192,174.953,178.746,182.556,187.3101,189.405,193.216,197.95,201.761,209.104,213.0508,215.161,217.735,222.2,225.583,232.927,236.689,239.471,241.874,246.338,251.243,253.3061,255.4,263.389,268.437,275.16450000000003,277.249,281.185,285.037,287.817,290.158,294.309,296.604,299.339,302.795,304.85810000000004,306.962,310.814,315.718,320.4721,322.567,329.163,335.89050000000003,337.984,342.573,345.786,350.439,355.065,359.826,363.678,366.458,368.861,373.326,378.23,380.29310000000004,382.388,385.304,390.23749999999995,392.315,397.049,400.86,405.092,407.873,411.2,415.052,419.956,423.148,425.551,430.456,435.082,439.843,443.636,447.446,452.2001,454.305,459.003,462.774,468.9633,471.036,474.888,479.622,483.433,490.776,494.7228,496.833,504.177,508.829,513.564,517.374,519.588,521.6510999999999,523.755,528.579,533.672,540.3995,542.474,546.236" svgx:width="0.34,0.49,0.49,0.23,0.55,0.44,0.55,0.53,0.55,0.47,0.45,0.49,0.55,0.82,0.47,0.33,0.5,0.47,0.55,0.37,0.43,0.53,0.53,0.42,0.43,0.53,0.55,0.43,0.53,0.43,0.82,0.44,0.55,0.3,0.51,0.37,0.82,0.44,0.31,0.27,0.51,0.55,0.23,0.55,0.89,0.56,0.75,0.55,0.44,0.42,0.31,0.27,0.46,0.27,0.31,0.46,0.23,0.55,0.44,0.55,0.53,0.55,0.74,0.75,0.55,0.52,0.37,0.51,0.53,0.53,0.42,0.31,0.27,0.51,0.55,0.23,0.55,0.34,0.55,0.55,0.53,0.43,0.47,0.31,0.37,0.44,0.55,0.36,0.27,0.55,0.53,0.53,0.42,0.43,0.53,0.55,0.52,0.44,0.69,0.55,0.43,0.53,0.43,0.82,0.44,0.55,0.82,0.51,0.53,0.43,0.25,0.23,0.55,0.54,0.57,0.75,0.55,0.44,0.31" style="fill:rgb(23,22,21);font-family:MinionPro-Regular2;font-size:8.97px;stroke:none;">100, and 250 mg/kg reduced edema formation, MPO activity, and NO production. In dextran-induced paw edema model, LEO at</text>
   <text y="540.11" x="86.697,91.426,95.993,99.359,103.164,106.4829,108.915,113.38,116.071,118.5,122.56,126.5965,129.102,132.954,137.854,142.6081,145.054,148.079,152.579,156.9743,158.492,165.764,169.955,172.918,177.36,181.57590000000002,184.02,187.232,191.084,195.71,200.471,204.259,208.064,212.8181,215.273,220.016,223.788,229.9773,232.401,236.206,240.935,244.74,252.078,256.0248,258.487,262.339,267.238,271.9921,274.438,282.422,287.464,294.1915,296.626,300.557,304.409,307.19,309.531,313.706,316.002,318.764,322.22,324.28310000000005,326.738,329.654,334.5875,337.025,340.813,345.277,350.176,353.911,356.071,360.805,364.09,366.488,370.952,375.857,377.92010000000005,380.375,385.199,390.286,397.0135,399.439,404.029,407.242,411.047,414.413,418.219,422.953,425.635,429.487,434.2411,436.696,440.548,445.282,448.063,450.461,453.647,456.045,460.944,465.718,469.57,476.913,484.252,488.014,490.696,495.16,498.751,502.87719999999996,505.33,509.261,513.113,515.893,518.233,522.379,524.675,527.404,530.86,532.9231,535.378,539.23,544.129" svgx:width="0.53,0.51,0.37,0.43,0.37,0.55,0.51,0.3,0.55,0.46,0.45,0.55,0.44,0.55,0.53,0.55,0.34,0.49,0.49,0.55,0.82,0.47,0.33,0.5,0.47,0.55,0.37,0.43,0.53,0.53,0.42,0.43,0.53,0.55,0.52,0.44,0.69,0.55,0.43,0.53,0.43,0.82,0.44,0.55,0.44,0.55,0.53,0.55,0.89,0.56,0.75,0.55,0.44,0.42,0.31,0.27,0.46,0.27,0.31,0.46,0.23,0.55,0.34,0.55,0.55,0.42,0.51,0.55,0.42,0.25,0.53,0.37,0.27,0.51,0.55,0.23,0.55,0.54,0.57,0.75,0.55,0.52,0.37,0.43,0.37,0.43,0.55,0.31,0.43,0.53,0.55,0.44,0.55,0.31,0.27,0.36,0.27,0.55,0.53,0.44,0.82,0.82,0.44,0.31,0.51,0.37,0.46,0.55,0.44,0.42,0.31,0.27,0.46,0.27,0.31,0.46,0.23,0.55,0.44,0.55,0.53" style="fill:rgb(23,22,21);font-family:MinionPro-Regular2;font-size:8.97px;stroke:none;">doses of 75 and 100 mg/kg reduced paw edema and MPO activity. In conclusion, LEO presented anti-inflammator yactivity ,and</text>
   <text y="550.574" x="86.697,89.487,94.239,98.0961,100.683,107.991,111.802,115.536,120.324,124.176,129.081,131.484,134.774,142.1294,144.755,149.345,152.558,157.031,161.81,166.383,169.749,173.56,178.3141,180.931,185.394,188.085,190.677,195.501,200.594,207.3215,209.927,213.293,217.104,220.915,228.186,231.50490000000002,234.109,236.791,241.3657,244.0,248.634,252.388,254.4511,257.067,260.829,263.60970000000003,266.202,268.471,272.332,276.237,279.528,282.30870000000004,284.901,287.304,292.23749999999995,294.845,299.544,303.396,306.815,309.55,311.61310000000003,314.221,316.624,321.321,325.398,329.908,332.112,336.288,338.691,343.524,347.7399,350.363,353.154,357.942,361.7991,364.386,369.084,372.936,376.356,379.137,381.54,385.332,387.628,392.371,396.133,398.915,401.318,405.782,410.71549999999996,413.324,417.788,420.479,423.08,427.67,430.883,435.456,438.746,441.537,445.388,450.257,454.722,457.125,461.859,465.15,467.2131,469.82,476.417,482.752,484.81510000000003,487.432,492.022,495.235,499.699,502.102,507.007,511.786,515.638,522.981,530.325,534.087,536.769,541.232,544.823" svgx:width="0.31,0.53,0.43,0.55,0.82,0.43,0.42,0.53,0.44,0.55,0.27,0.37,0.82,0.55,0.52,0.37,0.51,0.52,0.51,0.37,0.43,0.53,0.55,0.51,0.3,0.55,0.54,0.57,0.75,0.55,0.37,0.43,0.43,0.82,0.37,0.55,0.31,0.51,0.55,0.51,0.43,0.23,0.55,0.44,0.31,0.55,0.25,0.43,0.44,0.37,0.31,0.55,0.27,0.55,0.55,0.52,0.44,0.37,0.31,0.23,0.55,0.27,0.55,0.46,0.51,0.25,0.46,0.27,0.55,0.47,0.55,0.31,0.53,0.43,0.55,0.52,0.44,0.37,0.31,0.27,0.42,0.27,0.52,0.44,0.31,0.27,0.51,0.55,0.55,0.51,0.3,0.55,0.52,0.37,0.51,0.37,0.31,0.44,0.55,0.51,0.27,0.53,0.37,0.23,0.55,0.74,0.75,0.23,0.55,0.52,0.37,0.51,0.27,0.55,0.53,0.44,0.82,0.82,0.44,0.31,0.51,0.37,0.46" style="fill:rgb(23,22,21);font-family:MinionPro-Regular2;font-size:8.97px;stroke:none;">the mechanism proposed of LEO seems to be, at least in part, involving the participation of prostanoids, NO, proinflammatory</text>
   <text y="561.029" x="86.697,90.629,94.742,97.424,101.933,106.372,108.766,113.661,117.463,120.745,122.80810000000001,124.831,128.683,133.551,138.30509999999998,140.319,145.107,147.501,150.783,153.573,157.425,164.76,167.154,172.05,175.803" svgx:width="0.42,0.46,0.31,0.51,0.5,0.27,0.55,0.43,0.37,0.23,0.55,0.44,0.55,0.53,0.55,0.53,0.27,0.37,0.31,0.44,0.82,0.27,0.55,0.43,0.23" style="fill:rgb(23,22,21);font-family:MinionPro-Regular2;font-size:8.97px;stroke:none;">cytokines, and histamine.</text>
   <text y="594.107" x="50.58,56.558,59.548,62.479,67.094,73.968,78.009,82.91,89.258,95.822,102.612,107.753,111.794,115.38,121.728" svgx:width="0.5,0.25,0.55,0.39,0.57,0.34,0.41,0.53,0.55,0.57,0.43,0.34,0.3,0.53,0.57" style="fill:rgb(23,22,21);font-family:Minion-Black;font-size:11.96px;stroke:none;">1. Introduction</text>
   <text y="613.997" x="50.58,61.218,65.5008,67.683,73.2,77.484,85.647,88.347,92.721,96.933,101.226,105.599,109.8818,112.064,115.016,119.3,127.463,130.19,132.638,137.2196,139.441,144.41,147.398,149.589,154.737,157.284,161.568,166.834,169.875,173.5602,175.762,178.408,182.0932,184.295,188.67739999999998,190.899,199.036,203.221,205.822,210.791,214.4762,216.717,220.452,225.43,230.722,234.294,238.507,242.7898,244.971,249.94,252.928,255.119,260.429,265.442,267.89,272.462,277.61,282.893,287.123" svgx:width="1.07,0.43,0.55,0.54,0.44,0.82,0.27,0.44,0.42,0.43,0.44,0.43,0.55,0.3,0.44,0.82,0.27,0.25,0.46,0.55,0.51,0.3,0.55,0.52,0.25,0.44,0.55,0.31,0.37,0.55,0.27,0.37,0.55,0.44,0.55,0.82,0.44,0.26,0.51,0.37,0.55,0.37,0.51,0.53,0.37,0.42,0.43,0.55,0.51,0.3,0.55,0.52,0.51,0.25,0.46,0.52,0.53,0.43,0.36" style="fill:rgb(23,22,21);font-family:MinionPro-Regular2;font-size:9.96px;stroke:none;">Th eLamiacea efamil yo fplant si s amajo rsourc eo fpolyphe-</text>
   <text y="625.663" x="50.58,56.022,61.035,63.547,67.23219999999999,69.821,74.105,79.522,84.80080000000001,87.407,92.554,97.866,102.15,105.912,114.049,118.414,122.621,127.634,130.153,135.226,139.942,142.604,146.811,151.239,153.729,156.369,161.472,165.044,170.022,175.332,179.558,183.356,186.452,189.125,193.351,197.0362,199.615,204.868,209.094,212.829,217.035,220.797,223.459,228.607,232.891,238.16979999999998,240.784,243.446,248.924,251.528,254.633,259.916,264.1988,266.765,269.286,271.842,274.821,279.047,282.735,287.101" svgx:width="0.55,0.51,0.25,0.37,0.55,0.44,0.55,0.53,0.55,0.52,0.53,0.44,0.37,0.82,0.44,0.42,0.51,0.25,0.51,0.47,0.27,0.42,0.44,0.25,0.55,0.52,0.37,0.51,0.52,0.43,0.37,0.31,0.27,0.43,0.37,0.55,0.53,0.43,0.37,0.42,0.37,0.27,0.51,0.43,0.53,0.55,0.27,0.55,0.55,0.31,0.53,0.43,0.55,0.25,0.27,0.31,0.43,0.37,0.44,0.36" style="fill:rgb(23,22,21);font-family:MinionPro-Regular2;font-size:9.96px;stroke:none;">nols and pharmacological properties described in the litera-</text>
   <text y="637.339" x="50.58,53.523,58.813,62.386,66.553,68.8438,71.422,77.479,81.713,84.234,89.202,94.575,99.291,101.961,107.334,112.01520000000001,114.57,117.549,122.6286,125.226,128.331,133.614,137.8968,140.437,145.954,150.238,158.397,161.067,165.441,169.655,173.948,178.321,182.6038,185.144,188.093,192.377,200.536,203.263,205.711,209.553" svgx:width="0.31,0.53,0.37,0.43,0.23,0.55,0.59,0.43,0.25,0.51,0.55,0.47,0.27,0.55,0.47,0.55,0.31,0.51,0.55,0.31,0.53,0.43,0.55,0.54,0.44,0.82,0.27,0.44,0.42,0.43,0.44,0.43,0.55,0.3,0.44,0.82,0.27,0.25,0.46,0.23" style="fill:rgb(23,22,21);font-family:MinionPro-Regular2;font-size:9.96px;stroke:none;">ture. Belonging to the Lamiaceae family,</text>
   <text y="637.339" x="214.435,219.767,224.42,228.84,233.556,238.785,243.718,248.974,251.422,256.3024,258.928,263.644,268.819,273.067,278.409,281.667,284.636,287.354" svgx:width="0.53,0.49,0.45,0.49,0.53,0.51,0.53,0.25,0.49,0.55,0.49,0.53,0.42,0.53,0.34,0.31,0.27,0.33" style="fill:rgb(23,22,21);font-family:MinionPro-It;font-size:9.96px;stroke:none;">Lavandula angusti-</text>
   <text y="648.906" x="50.58,53.168,57.739,60.108,62.79" svgx:width="0.27,0.47,0.25,0.27,0.49" style="fill:rgb(23,22,21);font-family:MinionPro-It;font-size:9.96px;stroke:none;">folia</text>
   <text y="648.906" x="69.27,71.913,75.59819999999999,77.16,79.803,85.226,90.459,93.102,97.738,101.945,107.368,112.345,117.608,121.2932,122.856,125.867,130.94660000000002,132.545,135.651,140.934,145.2168,146.757,154.884,159.862,165.154,170.419,173.524,177.808,180.481,185.904,190.881,196.145,199.83020000000002,201.392,204.964,209.195,213.911,216.584,221.552,226.925,230.61020000000002,232.172,237.141,240.129,241.686,244.791,250.084,254.3668,255.907,264.52,268.804,274.037,276.594,279.605,283.812,287.268" svgx:width="0.27,0.37,0.55,0.27,0.55,0.53,0.27,0.47,0.43,0.55,0.51,0.53,0.37,0.55,0.31,0.51,0.55,0.31,0.53,0.43,0.55,0.82,0.51,0.53,0.55,0.31,0.44,0.27,0.55,0.51,0.53,0.37,0.55,0.37,0.43,0.47,0.27,0.51,0.55,0.37,0.55,0.51,0.3,0.55,0.31,0.53,0.43,0.55,0.89,0.43,0.53,0.27,0.31,0.43,0.37,0.36" style="fill:rgb(23,22,21);font-family:MinionPro-Regular2;font-size:9.96px;stroke:none;">is indigenous to the mountainous regions of the Mediter-</text>
   <text y="660.273" x="50.58,54.274,58.558,64.006,68.298,72.582,78.037,80.32780000000001,85.435,92.284,94.841,97.946,103.2248,108.395,116.531,120.815,126.045,130.6266,135.737,138.843,144.161,148.393,152.087,156.272,161.582,165.814,170.989,174.085,176.753,180.93619999999999,186.086,191.189,194.762,199.739,205.049,209.281,213.079,216.175,218.843,223.075,226.7602,231.851,236.134,241.552,246.83079999999998,251.938,256.88,259.548,264.561,267.079,272.158,276.875,279.543,283.755,288.183" svgx:width="0.37,0.44,0.55,0.43,0.44,0.55,0.23,0.55,0.69,0.27,0.31,0.53,0.55,0.82,0.44,0.55,0.46,0.55,0.31,0.53,0.43,0.37,0.44,0.52,0.43,0.53,0.31,0.27,0.42,0.55,0.52,0.37,0.51,0.52,0.43,0.37,0.31,0.27,0.43,0.37,0.55,0.44,0.55,0.53,0.55,0.51,0.27,0.51,0.25,0.51,0.47,0.27,0.42,0.44,0.25" style="fill:rgb(23,22,21);font-family:MinionPro-Regular2;font-size:9.96px;stroke:none;">ranean, with many therapeutic properties and biological</text>
   <text y="671.641" x="50.58,54.954,59.237,62.325,64.926,69.588,72.144,75.231,77.904,82.135,85.8202,88.029,91.467,94.833,98.271" svgx:width="0.44,0.42,0.31,0.27,0.46,0.27,0.31,0.27,0.43,0.37,0.55,0.34,0.34,0.34,0.23" style="fill:rgb(23,22,21);font-family:MinionPro-Regular2;font-size:9.96px;stroke:none;">activities [1].</text>
   <text y="685.0" x="65.524,71.077,76.171,80.745,83.724,88.898,93.048,98.369,102.604,110.764,113.435,117.65,122.079,124.56899999999999,128.433,132.033,134.976,140.267,145.529,148.2,152.435,156.1202,159.932,163.504,167.815,172.351,176.644,181.072,183.594,187.878,193.15679999999998,196.959,200.064,205.356,209.541,212.6286,216.409,219.514,224.797,229.0798,232.852,240.988,245.174,247.775,252.743,256.4282,260.258,264.473,269.441,274.892,278.492,281.589,284.145,287.185" svgx:width="0.56,0.53,0.46,0.31,0.51,0.42,0.53,0.43,0.82,0.27,0.42,0.44,0.25,0.55,0.37,0.31,0.53,0.53,0.27,0.43,0.37,0.55,0.37,0.43,0.46,0.43,0.44,0.25,0.43,0.53,0.55,0.31,0.53,0.44,0.31,0.55,0.31,0.53,0.43,0.55,0.82,0.44,0.26,0.51,0.37,0.55,0.42,0.51,0.55,0.37,0.31,0.27,0.31,0.36" style="fill:rgb(23,22,21);font-family:MinionPro-Regular2;font-size:9.96px;stroke:none;">Phytochemical studies revealed that the major constit-</text>
   <text y="696.368" x="50.58,55.869,60.102,65.367,68.405,72.0902,75.56,80.529" svgx:width="0.53,0.43,0.55,0.31,0.37,0.55,0.51,0.3" style="fill:rgb(23,22,21);font-family:MinionPro-Regular2;font-size:9.96px;stroke:none;">uents of</text>
   <text y="696.368" x="87.003,92.335,96.989,101.408,106.124,111.354,116.286,121.543,123.99,128.8704,132.406,137.122,142.297,146.545,151.887,155.144,158.114,160.716,163.317,167.898,170.256,172.938" svgx:width="0.53,0.49,0.45,0.49,0.53,0.51,0.53,0.25,0.49,0.55,0.49,0.53,0.42,0.53,0.34,0.31,0.27,0.27,0.47,0.25,0.27,0.49" style="fill:rgb(23,22,21);font-family:MinionPro-It;font-size:9.96px;stroke:none;">Lavandula angustifolia</text>
   <text y="696.368" x="181.319,185.549,189.15,192.885,197.115,202.38,205.477,208.176,212.605,215.095,218.626,223.594,226.321,228.811,232.325,235.772,241.136,246.796,254.239,257.725,261.187,265.471,269.044,273.3268,276.766,280.132,282.401,287.135" svgx:width="0.43,0.37,0.37,0.43,0.55,0.31,0.27,0.44,0.25,0.55,0.51,0.27,0.25,0.55,0.35,0.54,0.57,0.75,0.35,0.55,0.44,0.37,0.43,0.55,0.34,0.23,0.47,0.36" style="fill:rgb(23,22,21);font-family:MinionPro-Regular2;font-size:9.96px;stroke:none;">essential oil (LEO) are 1,8-</text>
   <text y="707.735" x="50.58,54.765,57.406,62.827,67.111,72.163,74.655,78.86,81.1508,83.414,87.653,91.937,99.911,105.058,110.35,115.318,118.387,120.6778,122.941,127.225,132.646,137.92479999999998,140.188,144.418,149.838,155.07,160.122,163.64,168.787,173.756,177.517,182.938,187.222,192.235,194.727,197.0178,199.263,206.76,209.865,215.156,219.361,223.0462,225.337,229.549,234.518,242.492,247.802,252.77,258.191,262.396,267.661,270.703,274.3882,276.624,280.864,285.147" svgx:width="0.42,0.27,0.55,0.43,0.51,0.25,0.43,0.23,0.55,0.42,0.44,0.82,0.52,0.53,0.51,0.37,0.23,0.55,0.44,0.55,0.53,0.55,0.43,0.55,0.53,0.51,0.36,0.51,0.51,0.37,0.55,0.43,0.51,0.25,0.23,0.55,0.75,0.31,0.53,0.43,0.37,0.55,0.42,0.51,0.82,0.52,0.51,0.55,0.43,0.55,0.31,0.37,0.55,0.42,0.44,0.55" style="fill:rgb(23,22,21);font-family:MinionPro-Regular2;font-size:9.96px;stroke:none;">cineole, camphor, and endo-borneol. Other components can</text>
   <text y="719.112" x="50.58,55.02,57.513,61.236,66.3156,68.202,73.33,77.6128,79.459,82.321,87.298,92.59,98.008,103.2868,105.136,107.809,113.28699999999999,115.154,123.317,125.99,131.408,136.376,140.0612,141.938,146.933,152.252,156.536,161.801,164.907,167.463,170.569,173.242,177.472,181.126,183.4168,185.266,188.867,194.159,198.308,203.58679999999998,205.526,209.873" svgx:width="0.44,0.25,0.37,0.51,0.55,0.51,0.43,0.55,0.3,0.51,0.53,0.55,0.53,0.55,0.27,0.55,0.55,0.82,0.27,0.55,0.51,0.37,0.55,0.51,0.53,0.44,0.55,0.31,0.27,0.31,0.27,0.43,0.37,0.23,0.55,0.37,0.53,0.42,0.53,0.55,0.44,0.37" style="fill:rgb(23,22,21);font-family:MinionPro-Regular2;font-size:9.96px;stroke:none;">also be found in minor quantities, such as</text>
   <text y="719.112" x="215.411" svgx:width="0.57" style="fill:rgb(23,22,21);font-family:MinionMath-Regular;font-size:9.96px;stroke:none;">𝛼</text>
   <text y="719.112" x="221.07,224.613,229.715,232.381,237.827,242.057,247.503,251.67,253.96079999999998,255.819,260.03,264.314,272.469,277.617,282.933,287.163" svgx:width="0.36,0.52,0.27,0.55,0.43,0.55,0.43,0.23,0.55,0.42,0.44,0.82,0.52,0.53,0.43,0.36" style="fill:rgb(23,22,21);font-family:MinionPro-Regular2;font-size:9.96px;stroke:none;">-pinene, camphe-</text>
   <text y="730.48" x="50.58,55.98,60.164" svgx:width="0.55,0.43,0.23" style="fill:rgb(23,22,21);font-family:MinionPro-Regular2;font-size:9.96px;stroke:none;">ne,</text>
   <text y="730.48" x="65.165" svgx:width="0.57" style="fill:rgb(23,22,21);font-family:MinionMath-Regular;font-size:9.96px;stroke:none;">𝛼</text>
   <text y="730.48" x="70.824,74.36,79.463,82.122,87.56,91.783,97.222,101.389" svgx:width="0.36,0.52,0.27,0.55,0.43,0.55,0.43,0.23" style="fill:rgb(23,22,21);font-family:MinionPro-Regular2;font-size:9.96px;stroke:none;">-pinene,</text>
   <text y="730.48" x="106.381" svgx:width="0.58" style="fill:rgb(23,22,21);font-family:MinionMath-Regular;font-size:9.96px;stroke:none;">𝛽</text>
   <text y="730.48" x="112.169,115.705,120.807,123.466,128.905,133.128,138.567,142.734,145.0248,147.738,152.948,156.483,160.857,165.456,173.604,177.827,183.266,187.433,189.72379999999998,192.437,194.957,197.616,205.764,210.733,216.15,220.374,225.812,229.979,232.2698,234.966,237.945,242.175,245.972,251.075,253.734,259.173,263.396,268.835,272.48,277.42,280.956,285.969,288.426" svgx:width="0.36,0.52,0.27,0.55,0.43,0.55,0.43,0.23,0.55,0.52,0.36,0.42,0.46,0.82,0.43,0.55,0.43,0.23,0.55,0.25,0.27,0.82,0.51,0.55,0.43,0.55,0.43,0.23,0.55,0.31,0.43,0.37,0.52,0.27,0.55,0.43,0.55,0.36,0.5,0.36,0.51,0.25,0.23" style="fill:rgb(23,22,21);font-family:MinionPro-Regular2;font-size:9.96px;stroke:none;">-pinene, p-cymene, limonene, terpinen-4-ol,</text>
   <text y="741.847" x="50.58,54.844,60.262,65.5408,69.73,73.942,77.929,82.501,87.612,90.591,95.562,100.98,105.2628,109.422,112.859,117.494,119.7848,123.982,128.483,131.921,134.21179999999998,138.427,145.807,150.779,157.494,161.804,166.34,170.571,173.64,175.93079999999998,180.138,183.243,188.526,192.80880000000002,196.977,202.341,208.002,215.472,219.657,223.869,228.841,236.815,242.125,247.21,250.864,253.424,256.521,259.194,264.165,269.64300000000003,273.795,281.931,286.126" svgx:width="0.44,0.55,0.53,0.55,0.42,0.37,0.46,0.52,0.31,0.51,0.55,0.43,0.55,0.34,0.47,0.23,0.55,0.45,0.34,0.23,0.55,0.77,0.51,0.69,0.43,0.46,0.43,0.37,0.23,0.55,0.31,0.53,0.43,0.55,0.54,0.57,0.75,0.55,0.42,0.51,0.82,0.52,0.51,0.37,0.27,0.31,0.27,0.51,0.55,0.55,0.82,0.44,0.46" style="fill:rgb(23,22,21);font-family:MinionPro-Regular2;font-size:9.96px;stroke:none;">and cryptone [2, 3]. However, the LEO composition may</text>
   <text y="594.121" x="308.611,313.22,317.504,321.491,326.07259999999997,331.229,336.486,340.716,346.026,350.256,355.702,360.958,363.624,368.997,373.6782,378.825,383.793,389.271,394.395,397.501,402.784,407.0668,412.171,416.751,421.035,426.12,430.837,434.536,438.721,443.869,449.185,451.851,456.061,460.489,462.979,468.166,473.135,476.897,479.57,484.286,486.959,492.437,497.552,502.52,505.508,510.629,513.734,519.05,523.3327999999999,528.437,533.585,536.132,540.416,545.681" svgx:width="0.46,0.44,0.37,0.46,0.55,0.53,0.43,0.52,0.43,0.55,0.53,0.27,0.55,0.47,0.55,0.51,0.55,0.55,0.31,0.53,0.43,0.55,0.47,0.43,0.51,0.47,0.37,0.44,0.52,0.53,0.27,0.42,0.44,0.25,0.55,0.51,0.37,0.27,0.47,0.27,0.55,0.55,0.51,0.3,0.55,0.31,0.53,0.43,0.55,0.52,0.25,0.44,0.55,0.31" style="fill:rgb(23,22,21);font-family:MinionPro-Regular2;font-size:9.96px;stroke:none;">vary depending on the geographical origin of the plant</text>
   <text y="605.489" x="308.611,316.766,320.951,323.93,328.159,331.921,334.621,339.049,341.539,346.132,350.416,355.834,361.1128,365.671,369.9,375.13,379.773,382.438,386.011,390.979,396.434,404.588,408.817,414.082,417.188,421.616,424.106,428.663,431.607,435.975,440.259,443.238,448.206,451.843,455.494,457.7848,462.343,465.944,471.236,475.385,480.6638,485.285,489.654,493.3392,497.889,502.469,506.753,511.829,516.546,520.237,524.422,529.57,534.885,537.55,541.759,546.187" svgx:width="0.82,0.44,0.31,0.43,0.37,0.27,0.44,0.25,0.55,0.44,0.55,0.53,0.55,0.43,0.55,0.46,0.27,0.37,0.51,0.55,0.82,0.43,0.55,0.31,0.44,0.25,0.55,0.3,0.44,0.42,0.31,0.51,0.37,0.37,0.23,0.55,0.37,0.53,0.42,0.53,0.55,0.44,0.37,0.55,0.47,0.43,0.51,0.47,0.37,0.44,0.52,0.53,0.27,0.42,0.44,0.25" style="fill:rgb(23,22,21);font-family:MinionPro-Regular2;font-size:9.96px;stroke:none;">material and environmental factors, such as geographical</text>
   <text y="616.856" x="308.611,312.824,317.792,323.21,328.466,331.054,334.15,336.823,341.792,347.16,350.814,353.1048,355.745,359.895,362.414,365.087,373.224,377.409,380.366,384.6488,387.296,391.588,397.006,402.28479999999996,404.953,408.688,412.981,417.327,421.062,426.031,431.457,435.886,438.37600000000003,441.079,445.696,449.988,453.75,456.449,460.635,463.731,466.404,471.403,476.771,480.426,482.7168,485.358,489.65,495.068,500.3468,503.015,506.12,511.403,515.6858,518.324,521.899,525.004,529.296,533.877,538.1597999999999,540.807,545.775" svgx:width="0.42,0.51,0.55,0.53,0.27,0.31,0.27,0.51,0.55,0.37,0.23,0.55,0.42,0.25,0.27,0.82,0.44,0.31,0.43,0.55,0.44,0.55,0.53,0.55,0.37,0.43,0.44,0.37,0.51,0.55,0.44,0.25,0.55,0.46,0.44,0.37,0.27,0.44,0.31,0.27,0.51,0.55,0.37,0.23,0.55,0.44,0.55,0.53,0.55,0.31,0.53,0.43,0.55,0.37,0.31,0.44,0.47,0.43,0.55,0.51,0.3" style="fill:rgb(23,22,21);font-family:MinionPro-Regular2;font-size:9.96px;stroke:none;">conditions, climate and seasonal variations, and the stage of</text>
   <text y="628.223" x="308.611,311.713,316.996,321.2788,323.899,329.047,331.63,335.914,341.179,344.2666,346.894,351.619,355.191,360.115,366.937,370.039,375.358,377.6488,380.299,384.583,390.001,395.27979999999997,397.93,401.031,406.314,410.59680000000003,413.217,417.448,422.146,425.242,428.941,433.315,437.592,440.693,443.366,448.335,453.813,456.443,460.727,466.145,471.42379999999997,474.074,479.33,483.56,486.539,490.836,495.113,498.214,500.887,505.856,511.334,513.973,522.101,526.331,529.432,534.715,539.859,545.088" svgx:width="0.31,0.53,0.43,0.55,0.52,0.25,0.44,0.55,0.31,0.55,0.47,0.37,0.51,0.69,0.31,0.53,0.23,0.55,0.44,0.55,0.53,0.55,0.31,0.53,0.43,0.55,0.43,0.47,0.31,0.37,0.44,0.42,0.31,0.27,0.51,0.55,0.55,0.44,0.55,0.53,0.55,0.53,0.43,0.31,0.43,0.42,0.31,0.27,0.51,0.55,0.55,0.82,0.43,0.31,0.53,0.51,0.53,0.37" style="fill:rgb(23,22,21);font-family:MinionPro-Regular2;font-size:9.96px;stroke:none;">the plant growth, and the extraction and detection methods</text>
   <text y="639.591" x="308.611,313.04,315.532,319.267,324.3466,326.603,329.272,334.72,339.914,345.203,349.436,354.885,359.098,363.3808,365.586,368.692,373.975,378.25780000000003,380.455,385.814,391.471,401.173,405.386,410.354,418.329,423.639,428.719,432.374,434.93,438.027,440.696,445.664,451.142,453.341,456.777,461.728,465.164" svgx:width="0.44,0.25,0.37,0.51,0.55,0.27,0.55,0.53,0.53,0.43,0.55,0.42,0.43,0.55,0.31,0.53,0.43,0.55,0.54,0.57,0.75,0.42,0.51,0.82,0.52,0.51,0.37,0.27,0.31,0.27,0.51,0.55,0.55,0.34,0.5,0.34,0.23" style="fill:rgb(23,22,21);font-family:MinionPro-Regular2;font-size:9.96px;stroke:none;">also influenc eth eLEOcompositio n[4].</text>
   <text y="650.958" x="323.555,334.21,338.4928,343.912,348.131,352.818,355.915,359.596,363.955,368.238,371.28,374.9652,380.415,384.699,390.133" svgx:width="1.07,0.43,0.55,0.43,0.47,0.31,0.37,0.44,0.42,0.31,0.37,0.55,0.44,0.55,0.53" style="fill:rgb(23,22,21);font-family:MinionPro-Regular2;font-size:9.96px;stroke:none;">Th eextract sand</text>
   <text y="650.958" x="400.935,406.267,410.919,415.339,420.055,425.284,430.217,435.473,437.921,442.8014,448.334,453.05,458.225,462.473,467.815,471.072,474.042,476.644,479.245,483.826,486.184,488.866" svgx:width="0.53,0.49,0.45,0.49,0.53,0.51,0.53,0.25,0.49,0.55,0.49,0.53,0.42,0.53,0.34,0.31,0.27,0.27,0.47,0.25,0.27,0.49" style="fill:rgb(23,22,21);font-family:MinionPro-It;font-size:9.96px;stroke:none;">Lavandula angustifolia</text>
   <text y="650.958" x="499.226,503.473,507.073,510.808,515.038,520.304,523.4,526.083,530.511,533.001,538.512,543.481,546.207" svgx:width="0.43,0.37,0.37,0.43,0.55,0.31,0.27,0.44,0.25,0.55,0.51,0.27,0.25" style="fill:rgb(23,22,21);font-family:MinionPro-Regular2;font-size:9.96px;stroke:none;">essential oil</text>
   <text y="662.325" x="308.601,313.916,318.111,322.647,326.9298,329.469,334.077,338.361,342.122,344.795,349.773,355.038,358.7232,361.257,366.404,371.719,376.003,379.765,387.902,392.27,396.479,401.493,404.008,409.084,413.8,416.465,420.675,425.103,427.593,430.188,434.417,439.916,444.2,448.484,451.518,455.2032,457.754,463.01,467.239,470.974,475.183,478.945,481.61,486.758,491.041,496.3198,498.889,501.554,507.032,509.591,512.696,517.979,522.2618,524.784,527.299,529.856,532.835,537.064,540.755,545.123" svgx:width="0.53,0.44,0.46,0.43,0.55,0.46,0.44,0.37,0.27,0.51,0.53,0.37,0.55,0.52,0.53,0.44,0.37,0.82,0.44,0.42,0.51,0.25,0.51,0.47,0.27,0.42,0.44,0.25,0.55,0.43,0.56,0.43,0.42,0.31,0.37,0.55,0.53,0.43,0.37,0.42,0.37,0.27,0.51,0.43,0.53,0.55,0.27,0.55,0.55,0.31,0.53,0.43,0.55,0.25,0.27,0.31,0.43,0.37,0.44,0.36" style="fill:rgb(23,22,21);font-family:MinionPro-Regular2;font-size:9.96px;stroke:none;">have various pharmacological effect sdescribe di nth elitera-</text>
   <text y="673.693" x="308.601,311.544,316.834,320.407,324.574,326.8648,330.047,333.647,338.938,343.087,348.3658,351.628,355.975,359.66020000000003,362.833,367.117,372.382,375.478,378.148,382.363,387.331,392.56,397.173,402.519,405.039,408.756,413.04,418.306,421.3936,424.506,427.944,432.467,435.904,438.1948,441.385,445.669,451.119,455.821,458.491,463.504,465.952,470.525,473.621,476.291,480.4742,483.698,487.135,492.067,495.504,497.7948,500.976,505.26,510.526,513.622,516.292,521.216,525.918,528.588,533.848,538.132,543.397,546.436" svgx:width="0.31,0.53,0.37,0.43,0.23,0.55,0.37,0.53,0.42,0.53,0.55,0.44,0.37,0.55,0.44,0.55,0.31,0.27,0.42,0.51,0.55,0.46,0.53,0.25,0.37,0.44,0.55,0.31,0.55,0.34,0.45,0.34,0.23,0.55,0.44,0.55,0.47,0.27,0.51,0.25,0.46,0.31,0.27,0.42,0.55,0.34,0.5,0.34,0.23,0.55,0.44,0.55,0.31,0.27,0.51,0.47,0.27,0.53,0.44,0.55,0.31,0.23" style="fill:rgb(23,22,21);font-family:MinionPro-Regular2;font-size:9.96px;stroke:none;">ture, such as anticonvulsant [5], anxiolytic [6], antioxidant,</text>
   <text y="685.06" x="308.601,312.897,318.162,321.259,323.932,328.068,333.351,338.355,340.875,343.548,348.966,353.196,356.796,359.757,363.987,367.686,372.033,375.768,380.0508,384.129,387.566,392.191,394.48179999999996,398.599,403.334,406.772,409.0628,413.18,417.475,422.741,425.837,428.51,436.673,439.346,443.559,447.131,452.134,457.118,459.817,464.246,466.736,470.879,474.316,479.176,482.614,484.90479999999997,489.031,493.315,498.732,504.0108,508.119,512.415,517.68,520.777,523.45,526.464,531.756,537.128,541.791,546.219" svgx:width="0.44,0.55,0.31,0.27,0.42,0.53,0.51,0.25,0.27,0.55,0.43,0.37,0.31,0.43,0.37,0.44,0.37,0.43,0.55,0.34,0.46,0.23,0.55,0.47,0.34,0.23,0.55,0.44,0.55,0.31,0.27,0.82,0.27,0.42,0.37,0.51,0.51,0.27,0.44,0.25,0.55,0.34,0.49,0.34,0.23,0.55,0.44,0.55,0.53,0.55,0.44,0.55,0.31,0.27,0.3,0.53,0.55,0.47,0.44,0.25" style="fill:rgb(23,22,21);font-family:MinionPro-Regular2;font-size:9.96px;stroke:none;">anticholinesterase [7, 8], antimicrobial [9], and antifungal</text>
   <text y="696.427" x="308.601,312.975,317.259,320.352,322.954,327.621,330.177,333.271,335.944,340.174,343.8592,347.779,351.216,354.528,359.442,362.88,365.1708,369.125,375.749,381.006,386.262,388.818,391.912,394.585,399.553,404.98,409.408,411.983,414.431,418.274,420.5648,424.492,429.109,433.393,437.155,439.828,444.805,450.07,453.7552,457.676,461.888,466.856,472.229,475.829,478.923,481.479,484.422,489.714,493.944,499.21,502.251,505.9362,509.848,512.521,517.9989999999999,521.934,525.028,530.311,534.5938,538.51,543.478,546.203" svgx:width="0.44,0.42,0.31,0.27,0.46,0.27,0.31,0.27,0.43,0.37,0.55,0.34,0.34,0.49,0.34,0.23,0.55,0.69,0.53,0.53,0.27,0.31,0.27,0.51,0.55,0.44,0.25,0.25,0.46,0.23,0.55,0.46,0.44,0.37,0.27,0.51,0.53,0.37,0.55,0.42,0.51,0.55,0.37,0.31,0.27,0.31,0.53,0.43,0.55,0.31,0.37,0.55,0.27,0.55,0.55,0.31,0.53,0.43,0.55,0.51,0.27,0.25" style="fill:rgb(23,22,21);font-family:MinionPro-Regular2;font-size:9.96px;stroke:none;">activities [10]. Additionally, various constituents in the oil</text>
   <text y="707.795" x="308.601,313.03,315.522,319.257,324.33660000000003,327.024,332.34,336.535,341.07,345.3528,347.992,352.6,357.029,359.432,364.751,369.043,374.03,376.546,380.8288,383.458,388.606,393.898,398.182,401.944,410.099,414.469,418.679,423.692,426.209,431.286,436.002,438.675,442.885,447.314,449.80400000000003,452.507,457.61,461.183,466.16,471.47,475.7,479.498,482.594,485.26,489.49,493.143,495.43379999999996,498.084,501.684,506.977,511.126,516.4048,519.145,523.515,527.2002,529.86,534.144,539.409,542.505,545.178" svgx:width="0.44,0.25,0.37,0.51,0.55,0.53,0.44,0.46,0.43,0.55,0.46,0.44,0.25,0.53,0.44,0.51,0.25,0.43,0.55,0.52,0.53,0.44,0.37,0.82,0.44,0.42,0.51,0.25,0.51,0.47,0.27,0.42,0.44,0.25,0.55,0.52,0.37,0.51,0.52,0.43,0.37,0.31,0.27,0.43,0.37,0.23,0.55,0.37,0.53,0.42,0.53,0.55,0.44,0.37,0.55,0.44,0.55,0.31,0.27,0.36" style="fill:rgb(23,22,21);font-family:MinionPro-Regular2;font-size:9.96px;stroke:none;">also have valuable pharmacological properties, such as anti-</text>
   <text y="719.162" x="308.601,311.275,316.729,322.043,326.327,334.49,342.654,346.839,349.818,354.786,358.773,362.616,364.9068,367.134,371.417,376.683,379.779,382.453,387.377,392.075,394.749,400.013,404.297,409.562,412.605,414.8958,417.114,421.398,426.815,432.0938,434.33,438.614,443.879,446.976,449.65,457.813,460.487,464.705,468.278,473.309,478.25,480.95,485.379,487.869,490.131,493.572,496.943,500.314,505.499,508.703,513.658,517.099" svgx:width="0.27,0.55,0.53,0.44,0.82,0.82,0.44,0.31,0.51,0.37,0.46,0.23,0.55,0.44,0.55,0.31,0.27,0.51,0.47,0.27,0.53,0.44,0.55,0.31,0.23,0.55,0.44,0.55,0.53,0.55,0.44,0.55,0.31,0.27,0.82,0.27,0.42,0.37,0.51,0.51,0.27,0.44,0.25,0.55,0.34,0.34,0.34,0.52,0.34,0.5,0.34,0.23" style="fill:rgb(23,22,21);font-family:MinionPro-Regular2;font-size:9.96px;stroke:none;">inflammatory ,antioxidant ,an dantimicrobia l[11–14].</text>
   <text y="730.529" x="323.545,326.776,332.231,337.546,341.83,349.994,358.158,362.344,365.44,368.115,373.083,378.56100000000004,383.407,386.053,389.7382,394.603,398.9854,403.873,408.092,413.06,421.034,426.182,428.707,432.947,437.6282,442.549,447.491,450.166,455.179,457.705,462.79,467.507,470.182,474.401,478.829,481.319,486.228,491.33,494.903,500.078,504.297,508.536,512.136,515.8212,520.695,523.37,528.599,533.135,538.149,540.596,545.214" svgx:width="0.34,0.55,0.53,0.44,0.82,0.82,0.44,0.31,0.27,0.51,0.55,0.55,0.27,0.37,0.55,0.44,0.55,0.42,0.51,0.82,0.52,0.25,0.43,0.47,0.55,0.51,0.27,0.51,0.25,0.51,0.47,0.27,0.42,0.44,0.25,0.55,0.52,0.37,0.51,0.42,0.43,0.37,0.37,0.55,0.27,0.55,0.46,0.51,0.25,0.46,0.36" style="fill:rgb(23,22,21);font-family:MinionPro-Regular2;font-size:9.96px;stroke:none;">Inflammatio ni s acomple xbiologica lproces sinvolv-</text>
   <text y="741.897" x="308.601,311.267,316.64,321.3212,325.308,329.924,334.294,338.029,342.313,347.659,350.175,354.459,357.529,359.8198,363.802,368.012,372.242,374.817,377.22,382.566,385.113,389.397,393.0822,397.092,401.302,406.271,414.245,419.555,424.523,429.941,434.171,439.436,442.471,446.1562,450.103,454.387,459.805,465.0838,469.066,473.4484,477.446,482.054,486.338,490.1,492.773,497.003,500.038,504.6196,508.615,513.583,516.571,520.531,524.266,529.279,531.682,536.968,541.954,544.471" svgx:width="0.27,0.55,0.47,0.55,0.46,0.44,0.37,0.42,0.53,0.25,0.44,0.37,0.23,0.55,0.42,0.43,0.25,0.25,0.53,0.25,0.44,0.37,0.55,0.42,0.51,0.82,0.52,0.51,0.55,0.43,0.55,0.31,0.37,0.55,0.44,0.55,0.53,0.55,0.44,0.55,0.46,0.44,0.37,0.27,0.43,0.31,0.46,0.55,0.51,0.3,0.55,0.37,0.51,0.25,0.53,0.51,0.25,0.43" style="fill:rgb(23,22,21);font-family:MinionPro-Regular2;font-size:9.96px;stroke:none;">ing vascular, cellular components and a variety of soluble</text>
  </g>
  <g begin="text">
   <text y="55.75" x="50.59,56.695,58.831,63.191,67.415,70.913,76.373" svgx:width="0.77,0.27,0.55,0.53,0.44,0.69,0.27" style="fill:rgb(23,22,21);font-family:MinionPro-Regular;font-size:7.97px;stroke:none;">Hindawi</text>
  </g>
  <g begin="text">
   <text y="65.21" x="50.57,54.906,58.556,60.652,64.82,68.167,72.487,75.818,79.165,81.962,86.665,90.115,93.0,96.348,100.516,102.285,107.545,111.57,118.057,122.194,124.17,127.517,134.005,137.352,141.671,144.11,147.569,150.486,154.104,155.873,159.332,163.652,167.82,169.302,174.769,176.746,179.137,182.484,185.401,189.72,193.179,195.57,197.666,201.316,204.663,206.433,213.494,216.841,221.009,223.105,226.437,228.532,232.852" svgx:width="0.57,0.46,0.27,0.53,0.43,0.55,0.42,0.43,0.36,0.59,0.44,0.37,0.43,0.53,0.23,0.67,0.51,0.82,0.52,0.25,0.43,0.82,0.43,0.55,0.31,0.44,0.37,0.46,0.23,0.44,0.55,0.53,0.23,0.69,0.25,0.31,0.43,0.37,0.55,0.44,0.31,0.27,0.46,0.43,0.23,0.89,0.43,0.53,0.27,0.42,0.27,0.55,0.43" style="fill:rgb(23,22,21);font-family:MinionPro-Regular;font-size:7.97px;stroke:none;">Evidence-Based Complementary and Alternative Medicine</text>
  </g>
  <g begin="text">
   <text y="74.67" x="50.57,55.366,59.421,61.427,65.649,72.167,75.544,77.343,81.159,84.974,88.79,92.605,93.99,95.502,101.0,103.947,106.367,108.493,111.855,113.861,117.238,119.037,121.745,127.593,129.392,133.208,137.024,140.839,144.655,148.47,152.286,156.102,157.909,159.678,163.464,167.249,169.018,173.155,176.566,180.256,183.587" svgx:width="0.7,0.51,0.25,0.53,0.82,0.43,0.23,0.48,0.48,0.48,0.48,0.23,0.23,0.69,0.37,0.31,0.27,0.42,0.25,0.43,0.23,0.34,0.74,0.23,0.48,0.48,0.48,0.48,0.48,0.48,0.48,0.23,0.23,0.48,0.48,0.23,0.52,0.44,0.47,0.43,0.37" style="fill:rgb(23,22,21);font-family:MinionPro-Regular;font-size:7.97px;stroke:none;">Volume 2018, Article ID 1413940, 10 pages</text>
  </g>
  <g begin="text">
   <text y="84.13" x="50.59,54.766,57.117,59.468,63.564,66.409,68.146,70.704,73.262,77.39,81.375,83.431,85.168,89.153,92.03,95.68,98.238,101.983,105.729,107.466,111.212,114.957,118.703,122.449,125.007,128.752,132.498,136.243,139.989,142.547,146.293,150.038,153.784,157.53,161.275,165.021" svgx:width="0.53,0.31,0.31,0.52,0.37,0.23,0.33,0.33,0.53,0.51,0.27,0.23,0.51,0.37,0.47,0.33,0.48,0.48,0.23,0.48,0.48,0.48,0.48,0.33,0.48,0.48,0.48,0.48,0.33,0.48,0.48,0.48,0.48,0.48,0.48,0.48" style="fill:rgb(23,22,21);font-family:MinionPro-Regular;font-size:7.97px;stroke:none;">https://doi.org/10.1155/2018/1413940</text>
  </g>
 </g>
</svg>
