<?xml version="1.0" encoding="UTF-8"?>
<svg height="749.828" width="558.7906" xmlns="http://www.w3.org/2000/svg">
 <g id="page" xmlns:svgx="http://www.xml-cml.org/schema/svgx">
  <g begin="text">
   <text y="51.641" x="50.58,56.043,60.687,63.356,68.615,72.848,78.297,82.51,86.743,90.289,96.238,100.61,104.345,108.578,113.8568,116.093,122.871,127.839,135.813,140.961,143.48,147.713,155.872,160.105,165.37,168.475,172.759,176.746,181.32760000000002,183.56,187.844,193.292,198.5708,200.807,207.69,210.093,213.072,217.305,221.067,226.494,230.679,233.775,236.377,240.913,245.19580000000002,247.383,255.996,260.229,265.488,268.157,272.37,275.039,280.488,284.7708,544.107" svgx:width="0.57,0.46,0.27,0.53,0.43,0.55,0.42,0.43,0.36,0.59,0.44,0.37,0.43,0.53,0.55,0.67,0.51,0.82,0.52,0.25,0.43,0.82,0.43,0.55,0.31,0.44,0.37,0.46,0.55,0.44,0.55,0.53,0.55,0.69,0.25,0.31,0.43,0.37,0.55,0.44,0.31,0.27,0.46,0.43,0.55,0.89,0.43,0.53,0.27,0.42,0.27,0.55,0.43,0.55,0.46" style="fill:rgb(23,22,21);font-family:MinionPro-Regular2;font-size:9.96px;stroke:none;">Evidence-Based Complementary and Alternative Medicine 7</text>
  </g>
  <path style="fill:none;stroke:rgb(23,22,21);stroke-width:1.0;" d="M226.390 207.880 L414.160 207.880 "/>
  <path style="fill:none;stroke:rgb(23,22,21);stroke-width:0.5;" d="M226.390 207.880 L226.390 210.230 "/>
  <path style="fill:none;stroke:rgb(23,22,21);stroke-width:0.5;" d="M245.140 207.880 L245.140 210.230 "/>
  <path style="fill:none;stroke:rgb(23,22,21);stroke-width:0.5;" d="M263.890 207.880 L263.890 210.230 "/>
  <path style="fill:none;stroke:rgb(23,22,21);stroke-width:0.5;" d="M301.460 207.880 L301.460 210.230 "/>
  <path style="fill:none;stroke:rgb(23,22,21);stroke-width:0.5;" d="M376.590 207.880 L376.590 210.230 "/>
  <path style="fill:none;stroke:rgb(23,22,21);stroke-width:0.5;" d="M218.090 199.600 L218.090 77.420 "/>
  <path style="fill:none;stroke:rgb(23,22,21);stroke-width:0.5;" d="M218.090 199.600 L215.740 199.600 "/>
  <g begin="text">
   <text y="201.276" x="208.215" svgx:width="0.48" style="fill:rgb(23,22,21);font-family:MinionPro-Regular3;font-size:8.0px;stroke:none;">0</text>
  </g>
  <path style="fill:none;stroke:rgb(23,22,21);stroke-width:0.5;" d="M218.090 158.920 L215.740 158.920 "/>
  <g begin="text">
   <text y="160.536" x="208.215" svgx:width="0.48" style="fill:rgb(23,22,21);font-family:MinionPro-Regular3;font-size:8.0px;stroke:none;">2</text>
  </g>
  <path style="fill:none;stroke:rgb(23,22,21);stroke-width:0.5;" d="M218.090 118.170 L215.740 118.170 "/>
  <g begin="text">
   <text y="119.796" x="208.215" svgx:width="0.48" style="fill:rgb(23,22,21);font-family:MinionPro-Regular3;font-size:8.0px;stroke:none;">4</text>
  </g>
  <path style="fill:none;stroke:rgb(23,22,21);stroke-width:0.5;" d="M218.090 77.420 L215.740 77.420 "/>
  <g begin="text">
   <text y="79.056" x="208.215" svgx:width="0.48" style="fill:rgb(23,22,21);font-family:MinionPro-Regular3;font-size:8.0px;stroke:none;">6</text>
  </g>
  <path style="fill:none;stroke:rgb(228,10,22);stroke-width:0.5;" d="M226.390 199.590 L245.140 126.320 L263.890 97.800 L301.460 120.240 L376.590 162.990 "/>
  <path style="fill:rgb(228,10,22);stroke:none;stroke-width:0.5;" d="M224.730 199.590 C224.730 198.670 225.470 197.940 226.390 197.940 C227.310 197.940 228.050 198.670 228.050 199.590 C228.050 200.510 227.310 201.250 226.390 201.250 C225.470 201.250 224.730 200.510 224.730 199.590 "/>
  <path style="fill:none;stroke:rgb(228,10,22);stroke-width:0.5;" d="M224.730 199.590 C224.730 198.670 225.470 197.940 226.390 197.940 C227.310 197.940 228.050 198.670 228.050 199.590 C228.050 200.510 227.310 201.250 226.390 201.250 C225.470 201.250 224.730 200.510 224.730 199.590 Z"/>
  <path style="fill:rgb(228,10,22);stroke:none;stroke-width:0.5;" d="M243.480 126.320 C243.480 125.400 244.220 124.660 245.140 124.660 C246.060 124.660 246.800 125.400 246.800 126.320 C246.800 127.240 246.060 127.980 245.140 127.980 C244.220 127.980 243.480 127.240 243.480 126.320 "/>
  <path style="fill:none;stroke:rgb(228,10,22);stroke-width:0.5;" d="M243.480 126.320 C243.480 125.400 244.220 124.660 245.140 124.660 C246.060 124.660 246.800 125.400 246.800 126.320 C246.800 127.240 246.060 127.980 245.140 127.980 C244.220 127.980 243.480 127.240 243.480 126.320 Z"/>
  <path style="fill:rgb(228,10,22);stroke:none;stroke-width:0.5;" d="M262.230 97.800 C262.230 96.880 262.970 96.140 263.890 96.140 C264.810 96.140 265.550 96.880 265.550 97.800 C265.550 98.720 264.810 99.450 263.890 99.450 C262.970 99.450 262.230 98.720 262.230 97.800 "/>
  <path style="fill:none;stroke:rgb(228,10,22);stroke-width:0.5;" d="M262.230 97.800 C262.230 96.880 262.970 96.140 263.890 96.140 C264.810 96.140 265.550 96.880 265.550 97.800 C265.550 98.720 264.810 99.450 263.890 99.450 C262.970 99.450 262.230 98.720 262.230 97.800 Z"/>
  <path style="fill:rgb(228,10,22);stroke:none;stroke-width:0.5;" d="M299.800 120.240 C299.800 119.320 300.540 118.590 301.460 118.590 C302.380 118.590 303.120 119.320 303.120 120.240 C303.120 121.160 302.380 121.900 301.460 121.900 C300.540 121.900 299.800 121.160 299.800 120.240 "/>
  <path style="fill:none;stroke:rgb(228,10,22);stroke-width:0.5;" d="M299.800 120.240 C299.800 119.320 300.540 118.590 301.460 118.590 C302.380 118.590 303.120 119.320 303.120 120.240 C303.120 121.160 302.380 121.900 301.460 121.900 C300.540 121.900 299.800 121.160 299.800 120.240 Z"/>
  <path style="fill:rgb(228,10,22);stroke:none;stroke-width:0.5;" d="M374.930 162.990 C374.930 162.070 375.670 161.340 376.590 161.340 C377.520 161.340 378.260 162.070 378.260 162.990 C378.260 163.910 377.520 164.650 376.590 164.650 C375.670 164.650 374.930 163.910 374.930 162.990 "/>
  <path style="fill:none;stroke:rgb(228,10,22);stroke-width:0.5;" d="M374.930 162.990 C374.930 162.070 375.670 161.340 376.590 161.340 C377.520 161.340 378.260 162.070 378.260 162.990 C378.260 163.910 377.520 164.650 376.590 164.650 C375.670 164.650 374.930 163.910 374.930 162.990 Z"/>
  <path style="fill:none;stroke:rgb(50,169,47);stroke-width:0.5;" d="M226.390 199.590 L245.140 147.590 L263.890 118.170 L301.460 140.820 L376.590 165.680 "/>
  <path style="fill:none;stroke:rgb(57,66,149);stroke-width:0.5;" d="M226.390 199.590 L245.140 155.530 L263.890 148.700 L301.460 158.920 L376.590 175.840 "/>
  <path style="fill:rgb(57,66,149);stroke:none;stroke-width:0.5;" d="M224.730 201.250 L228.050 201.250 L226.390 197.940 L224.730 201.250 "/>
  <path style="fill:none;stroke:rgb(57,66,149);stroke-width:0.5;" d="M224.730 201.250 L228.050 201.250 L226.390 197.940 L224.730 201.250 Z"/>
  <path style="fill:rgb(57,66,149);stroke:none;stroke-width:0.5;" d="M243.480 157.190 L246.800 157.190 L245.140 153.880 L243.480 157.190 "/>
  <path style="fill:none;stroke:rgb(57,66,149);stroke-width:0.5;" d="M243.480 157.190 L246.800 157.190 L245.140 153.880 L243.480 157.190 Z"/>
  <path style="fill:rgb(57,66,149);stroke:none;stroke-width:0.5;" d="M262.230 150.350 L265.550 150.350 L263.890 147.040 L262.230 150.350 "/>
  <path style="fill:none;stroke:rgb(57,66,149);stroke-width:0.5;" d="M262.230 150.350 L265.550 150.350 L263.890 147.040 L262.230 150.350 Z"/>
  <path style="fill:rgb(57,66,149);stroke:none;stroke-width:0.5;" d="M299.800 160.580 L303.120 160.580 L301.460 157.260 L299.800 160.580 "/>
  <path style="fill:none;stroke:rgb(57,66,149);stroke-width:0.5;" d="M299.800 160.580 L303.120 160.580 L301.460 157.260 L299.800 160.580 Z"/>
  <path style="fill:rgb(57,66,149);stroke:none;stroke-width:0.5;" d="M374.930 177.490 L378.260 177.490 L376.590 174.180 L374.930 177.490 "/>
  <path style="fill:none;stroke:rgb(57,66,149);stroke-width:0.5;" d="M374.930 177.490 L378.260 177.490 L376.590 174.180 L374.930 177.490 Z"/>
  <path style="fill:none;stroke:rgb(226,24,113);stroke-width:0.5;" d="M226.390 199.590 L245.140 165.680 L263.890 148.700 L301.460 155.530 L376.590 182.670 "/>
  <path style="fill:rgb(226,24,113);stroke:none;stroke-width:0.5;" d="M226.390 201.250 L228.050 197.940 L224.730 197.940 L226.390 201.250 "/>
  <path style="fill:none;stroke:rgb(226,24,113);stroke-width:0.5;" d="M226.390 201.250 L228.050 197.940 L224.730 197.940 L226.390 201.250 Z"/>
  <path style="fill:rgb(226,24,113);stroke:none;stroke-width:0.5;" d="M245.140 167.340 L246.800 164.030 L243.480 164.030 L245.140 167.340 "/>
  <path style="fill:none;stroke:rgb(226,24,113);stroke-width:0.5;" d="M245.140 167.340 L246.800 164.030 L243.480 164.030 L245.140 167.340 Z"/>
  <path style="fill:rgb(226,24,113);stroke:none;stroke-width:0.5;" d="M263.890 150.350 L265.550 147.040 L262.230 147.040 L263.890 150.350 "/>
  <path style="fill:none;stroke:rgb(226,24,113);stroke-width:0.5;" d="M263.890 150.350 L265.550 147.040 L262.230 147.040 L263.890 150.350 Z"/>
  <path style="fill:rgb(226,24,113);stroke:none;stroke-width:0.5;" d="M301.460 157.190 L303.120 153.880 L299.800 153.880 L301.460 157.190 "/>
  <path style="fill:none;stroke:rgb(226,24,113);stroke-width:0.5;" d="M301.460 157.190 L303.120 153.880 L299.800 153.880 L301.460 157.190 Z"/>
  <path style="fill:rgb(226,24,113);stroke:none;stroke-width:0.5;" d="M376.590 184.330 L378.260 181.020 L374.930 181.020 L376.590 184.330 "/>
  <path style="fill:none;stroke:rgb(226,24,113);stroke-width:0.5;" d="M376.590 184.330 L378.260 181.020 L374.930 181.020 L376.590 184.330 Z"/>
  <path style="fill:none;stroke:rgb(23,22,21);stroke-width:0.5;" d="M226.390 199.590 L245.140 134.050 L263.890 118.170 L301.460 138.540 L376.590 163.410 "/>
  <path style="fill:rgb(23,22,21);stroke:none;stroke-width:0.5;" d="M224.320 199.590 L226.390 201.670 L228.470 199.590 L226.390 197.520 L224.320 199.590 "/>
  <path style="fill:none;stroke:rgb(23,22,21);stroke-width:0.5;" d="M224.320 199.590 L226.390 201.670 L228.470 199.590 L226.390 197.520 L224.320 199.590 Z"/>
  <path style="fill:rgb(23,22,21);stroke:none;stroke-width:0.5;" d="M243.070 134.050 L245.140 136.130 L247.220 134.050 L245.140 131.980 L243.070 134.050 "/>
  <path style="fill:none;stroke:rgb(23,22,21);stroke-width:0.5;" d="M243.070 134.050 L245.140 136.130 L247.220 134.050 L245.140 131.980 L243.070 134.050 Z"/>
  <path style="fill:rgb(23,22,21);stroke:none;stroke-width:0.5;" d="M261.820 118.170 L263.890 120.240 L265.970 118.170 L263.890 116.100 L261.820 118.170 "/>
  <path style="fill:none;stroke:rgb(23,22,21);stroke-width:0.5;" d="M261.820 118.170 L263.890 120.240 L265.970 118.170 L263.890 116.100 L261.820 118.170 Z"/>
  <path style="fill:rgb(23,22,21);stroke:none;stroke-width:0.5;" d="M299.380 138.540 L301.460 140.620 L303.530 138.540 L301.460 136.470 L299.380 138.540 "/>
  <path style="fill:none;stroke:rgb(23,22,21);stroke-width:0.5;" d="M299.380 138.540 L301.460 140.620 L303.530 138.540 L301.460 136.470 L299.380 138.540 Z"/>
  <path style="fill:rgb(23,22,21);stroke:none;stroke-width:0.5;" d="M374.520 163.410 L376.590 165.480 L378.670 163.410 L376.590 161.330 L374.520 163.410 "/>
  <path style="fill:none;stroke:rgb(23,22,21);stroke-width:0.5;" d="M374.520 163.410 L376.590 165.480 L378.670 163.410 L376.590 161.330 L374.520 163.410 Z"/>
  <path style="fill:none;stroke:rgb(170,172,176);stroke-width:0.5;" d="M376.590 184.330 L375.070 184.130 L373.410 183.850 L370.990 183.570 L369.330 183.300 L366.840 183.020 L365.180 182.740 L362.760 182.400 L361.100 182.190 L358.610 181.850 L357.010 181.640 L354.520 181.290 L352.860 181.090 L350.370 180.740 L348.780 180.530 L346.290 180.190 L344.630 179.980 L342.210 179.640 L340.550 179.430 L338.060 179.080 L336.400 178.880 L333.980 178.530 L332.320 178.320 L329.820 177.980 L328.160 177.770 L325.740 177.430 L324.080 177.220 L321.590 176.870 L319.930 176.670 L317.510 176.320 L315.850 176.110 L313.360 175.770 L311.770 175.560 L309.280 175.220 L307.620 175.010 L305.130 174.660 L303.530 174.460 L301.460 174.180 L301.040 173.970 L299.520 173.350 L297.240 172.450 L295.720 171.830 L293.360 170.860 L291.840 170.240 L289.560 169.350 L287.970 168.650 L285.680 167.760 L284.160 167.130 L281.810 166.170 L280.290 165.550 L278.000 164.650 L276.480 164.030 L274.130 163.060 L272.610 162.440 L270.320 161.470 L268.730 160.850 L266.450 159.950 L264.930 159.330 L263.890 158.920 L262.510 158.920 L260.850 158.920 L258.350 158.920 L256.700 158.920 L254.200 158.920 L252.540 158.920 L250.050 158.920 L248.390 158.920 L245.900 158.920 L244.730 159.680 L243.690 161.890 L243.000 163.410 L241.960 165.680 L241.270 167.200 L240.230 169.410 L239.540 170.930 L238.500 173.210 L237.810 174.730 L236.770 176.940 L236.080 178.460 L235.040 180.740 L234.350 182.260 L233.310 184.470 L232.620 185.990 L231.580 188.270 L230.890 189.790 L229.850 192.000 L229.160 193.520 L228.120 195.800 L227.430 197.320 L226.390 199.590 "/>
  <path style="fill:none;stroke:rgb(170,172,176);stroke-width:0.5;" d="M224.730 199.590 C224.730 198.670 225.470 197.940 226.390 197.940 C227.310 197.940 228.050 198.670 228.050 199.590 C228.050 200.510 227.310 201.250 226.390 201.250 C225.470 201.250 224.730 200.510 224.730 199.590 Z"/>
  <path style="fill:none;stroke:rgb(170,172,176);stroke-width:0.5;" d="M243.480 158.920 C243.480 158.000 244.220 157.260 245.140 157.260 C246.060 157.260 246.800 158.000 246.800 158.920 C246.800 159.840 246.060 160.570 245.140 160.570 C244.220 160.570 243.480 159.840 243.480 158.920 Z"/>
  <path style="fill:none;stroke:rgb(170,172,176);stroke-width:0.5;" d="M262.230 158.920 C262.230 158.000 262.970 157.260 263.890 157.260 C264.810 157.260 265.550 158.000 265.550 158.920 C265.550 159.840 264.810 160.570 263.890 160.570 C262.970 160.570 262.230 159.840 262.230 158.920 Z"/>
  <path style="fill:none;stroke:rgb(170,172,176);stroke-width:0.5;" d="M299.800 174.180 C299.800 173.260 300.540 172.520 301.460 172.520 C302.380 172.520 303.120 173.260 303.120 174.180 C303.120 175.100 302.380 175.840 301.460 175.840 C300.540 175.840 299.800 175.100 299.800 174.180 Z"/>
  <path style="fill:none;stroke:rgb(170,172,176);stroke-width:0.5;" d="M374.930 184.330 C374.930 183.410 375.670 182.670 376.590 182.670 C377.520 182.670 378.250 183.410 378.250 184.330 C378.250 185.250 377.520 185.990 376.590 185.990 C375.670 185.990 374.930 185.250 374.930 184.330 Z"/>
  <g begin="text">
   <text y="220.178" x="224.62,228.46,241.176,245.016,248.856,259.988,263.828,267.66799999999995,295.742,299.582,303.422,307.262,370.796,374.636,378.476" svgx:width="0.48,0.55,0.48,0.48,0.55,0.48,0.48,0.55,0.48,0.48,0.48,0.55,0.48,0.48,0.48" style="fill:rgb(23,22,21);font-family:MinionPro-Regular3;font-size:8.0px;stroke:none;">0 30 60 120 240</text>
   <text y="232.234" x="301.628,306.436,308.58,315.127,318.522,320.337,323.1,329.648,331.787,336.158" svgx:width="0.62,0.27,0.82,0.43,0.23,0.35,0.82,0.27,0.55,0.35" style="fill:rgb(23,22,21);font-family:MinionPro-Regular3;font-size:8.0px;stroke:none;">Time (min)</text>
   <text y="246.218" x="236.028,241.956,245.364,249.148,251.596,254.572,258.012" svgx:width="0.74,0.43,0.47,0.31,0.37,0.44,0.55" style="fill:rgb(23,22,21);font-family:MinionPro-Regular3;font-size:8.0px;stroke:none;">Dextran</text>
  </g>
  <path style="fill:none;stroke:rgb(228,10,22);stroke-width:0.5;" d="M218.000 244.410 L231.090 244.410 "/>
  <path style="fill:none;stroke:rgb(57,66,149);stroke-width:0.5;" d="M218.000 264.370 L231.090 264.370 "/>
  <path style="fill:none;stroke:rgb(226,24,113);stroke-width:0.5;" d="M318.580 244.330 L331.670 244.330 "/>
  <path style="fill:none;stroke:rgb(23,22,21);stroke-width:0.5;" d="M318.580 254.270 L331.670 254.270 "/>
  <path style="fill:none;stroke:rgb(50,169,47);stroke-width:0.5;" d="M218.000 254.390 L231.090 254.390 "/>
  <path style="fill:none;stroke:rgb(170,172,176);stroke-width:0.5;" d="M331.670 264.320 L329.490 264.320 L328.030 264.320 L325.850 264.320 L324.400 264.320 L322.210 264.320 L320.760 264.320 L318.570 264.320 "/>
  <g begin="text">
   <text y="173.961" transform="matrix(0.0,-1.0,1.0,0.0,15.877,363.799)" rotateDegrees="-90" matrix="[0.0,8.0,-8.0,0.0,189.8379,626.0391]" x="189.838,194.166,197.53400000000002,203.007,204.823,208.463,212.487,214.41500000000002,218.663,225.208,228.6,230.416,232.553,236.92200000000003,240.299,243.163,246.61,250.098,253.098,256.53700000000003" svgx:width="0.56,0.44,0.69,0.23,0.46,0.51,0.25,0.53,0.82,0.43,0.23,0.27,0.55,0.42,0.37,0.43,0.44,0.37,0.43,0.53" style="fill:rgb(23,22,21);font-family:MinionPro-Regular3;font-size:8.0px;stroke:none;">Paw volume increased</text>
   <text y="153.857" transform="matrix(0.0,-1.0,1.0,0.0,45.517,353.231)" rotateDegrees="-90" matrix="[0.0,8.0,-8.0,0.0,199.3739,646.1431]" x="199.374,202.142,206.75,211.07,212.93699999999998,217.65699999999998,219.62699999999998,223.46699999999998,227.307" svgx:width="0.35,0.56,0.54,0.55,0.59,0.55,0.48,0.48,0.35" style="fill:rgb(23,22,21);font-family:MinionMath-Regular-Graphic;font-size:8.0px;stroke:none;">(î‹®ï¼Œ Ã— 10)</text>
   <text y="164.724" x="302.216" svgx:width="0.59" style="fill:rgb(23,22,21);font-family:MinionMath-Regular-Graphic;font-size:8.0px;stroke:none;">âˆ—</text>
   <text y="173.284" x="302.216" svgx:width="0.59" style="fill:rgb(23,22,21);font-family:MinionMath-Regular-Graphic;font-size:8.0px;stroke:none;">âˆ—</text>
   <text y="156.412" x="303.408" svgx:width="0.59" style="fill:rgb(23,22,21);font-family:MinionMath-Regular-Graphic;font-size:8.0px;stroke:none;">âˆ—</text>
   <text y="148.916" x="265.344" svgx:width="0.59" style="fill:rgb(23,22,21);font-family:MinionMath-Regular-Graphic;font-size:8.0px;stroke:none;">âˆ—</text>
   <text y="154.668" x="265.344" svgx:width="0.59" style="fill:rgb(23,22,21);font-family:MinionMath-Regular-Graphic;font-size:8.0px;stroke:none;">âˆ—</text>
   <text y="164.916" x="263.848" svgx:width="0.59" style="fill:rgb(23,22,21);font-family:MinionMath-Regular-Graphic;font-size:8.0px;stroke:none;">âˆ—</text>
   <text y="158.54" x="246.536" svgx:width="0.59" style="fill:rgb(23,22,21);font-family:MinionMath-Regular-Graphic;font-size:8.0px;stroke:none;">âˆ—</text>
   <text y="163.036" x="246.04" svgx:width="0.59" style="fill:rgb(23,22,21);font-family:MinionMath-Regular-Graphic;font-size:8.0px;stroke:none;">âˆ—</text>
   <text y="168.852" x="246.04" svgx:width="0.59" style="fill:rgb(23,22,21);font-family:MinionMath-Regular-Graphic;font-size:8.0px;stroke:none;">âˆ—</text>
   <text y="256.244" x="236.04,240.344,244.888,250.864,252.68,256.52,260.35999999999996,261.602,268.09,271.834,274.482,279.866" svgx:width="0.54,0.57,0.75,0.23,0.48,0.48,0.55,0.82,0.47,0.33,0.67,0.47" style="fill:rgb(23,22,21);font-family:MinionPro-Regular3;font-size:8.0px;stroke:none;">LEO 50 mg/Kg</text>
   <text y="256.316" x="336.632,340.936,345.48,351.456,353.272,357.112,360.952,364.792,365.993,372.482,376.226,378.874,384.258" svgx:width="0.54,0.57,0.75,0.23,0.48,0.48,0.48,0.55,0.82,0.47,0.33,0.67,0.47" style="fill:rgb(23,22,21);font-family:MinionPro-Regular3;font-size:8.0px;stroke:none;">LEO 250 mg/Kg</text>
   <text y="246.292" x="336.632,340.936,345.48,351.456,353.272,357.112,360.952,365.94,372.427,376.171,378.819,384.203" svgx:width="0.54,0.57,0.75,0.23,0.48,0.48,0.48,0.82,0.47,0.33,0.67,0.47" style="fill:rgb(23,22,21);font-family:MinionPro-Regular3;font-size:8.0px;stroke:none;">LEO 100mg/Kg</text>
   <text y="266.268" x="236.04,240.344,244.888,250.864,252.68,256.52,260.35999999999996,261.753,268.241,271.985,274.633,280.017" svgx:width="0.54,0.57,0.75,0.23,0.48,0.48,0.55,0.82,0.47,0.33,0.67,0.47" style="fill:rgb(23,22,21);font-family:MinionPro-Regular3;font-size:8.0px;stroke:none;">LEO 75 mg/Kg</text>
  </g>
  <path style="fill:rgb(228,10,22);stroke:none;stroke-width:0.5;" d="M223.070 244.540 C223.070 243.620 223.810 242.890 224.730 242.890 C225.650 242.890 226.390 243.620 226.390 244.540 C226.390 245.460 225.650 246.200 224.730 246.200 C223.810 246.200 223.070 245.460 223.070 244.540 "/>
  <path style="fill:none;stroke:rgb(228,10,22);stroke-width:0.5;" d="M223.070 244.540 C223.070 243.620 223.810 242.890 224.730 242.890 C225.650 242.890 226.390 243.620 226.390 244.540 C226.390 245.460 225.650 246.200 224.730 246.200 C223.810 246.200 223.070 245.460 223.070 244.540 Z"/>
  <path style="fill:rgb(57,66,149);stroke:none;stroke-width:0.5;" d="M222.440 265.920 L225.760 265.920 L224.100 262.600 L222.440 265.920 "/>
  <path style="fill:none;stroke:rgb(57,66,149);stroke-width:0.5;" d="M222.440 265.920 L225.760 265.920 L224.100 262.600 L222.440 265.920 Z"/>
  <path style="fill:rgb(226,24,113);stroke:none;stroke-width:0.5;" d="M324.900 246.300 L326.560 242.980 L323.240 242.980 L324.900 246.300 "/>
  <path style="fill:none;stroke:rgb(226,24,113);stroke-width:0.5;" d="M324.900 246.300 L326.560 242.980 L323.240 242.980 L324.900 246.300 Z"/>
  <path style="fill:rgb(23,22,21);stroke:none;stroke-width:0.5;" d="M322.870 254.290 L324.950 256.360 L327.020 254.290 L324.950 252.220 L322.870 254.290 "/>
  <path style="fill:none;stroke:rgb(23,22,21);stroke-width:0.5;" d="M322.870 254.290 L324.950 256.360 L327.020 254.290 L324.950 252.220 L322.870 254.290 Z"/>
  <path style="fill:none;stroke:rgb(170,172,176);stroke-width:0.5;" d="M323.540 264.260 C323.540 263.340 324.270 262.600 325.200 262.600 C326.120 262.600 326.860 263.340 326.860 264.260 C326.860 265.180 326.120 265.920 325.200 265.920 C324.270 265.920 323.540 265.180 323.540 264.260 Z"/>
  <g begin="text">
   <text y="266.427" x="336.58,341.012,343.876,347.86,354.379,357.774,360.262,364.53,368.037,371.392,373.531,377.902,381.298,383.114,386.949,391.874,398.362,402.106,404.75,410.129" svgx:width="0.56,0.37,0.51,0.82,0.43,0.31,0.53,0.44,0.42,0.27,0.55,0.43,0.23,0.48,0.48,0.82,0.47,0.33,0.67,0.47" style="fill:rgb(23,22,21);font-family:MinionPro-Regular3;font-size:8.0px;stroke:none;">Promethazine 10mg/Kg</text>
  </g>
  <g begin="text">
   <text y="281.438" x="293.499,296.256,299.754" svgx:width="0.35,0.44,0.35" style="fill:rgb(23,22,21);font-family:MinionPro-Regular2;font-size:7.97px;stroke:none;">(a)</text>
  </g>
  <path style="fill:none;stroke:rgb(23,22,21);stroke-width:0.5;" d="M131.170 419.140 L131.170 337.780 L148.930 337.780 L148.930 419.140 L131.170 419.140 "/>
  <path style="fill:none;stroke:rgb(23,22,21);stroke-width:0.5;" d="M135.660 331.480 L144.510 331.480 L135.660 331.480 "/>
  <path style="fill:none;stroke:rgb(23,22,21);stroke-width:0.5;" d="M140.090 331.480 L140.090 337.780 "/>
  <path style="fill:none;stroke:rgb(23,22,21);stroke-width:0.5;" d="M157.990 419.140 L157.990 390.960 L175.760 390.960 L175.760 419.140 L157.990 419.140 "/>
  <path style="fill:none;stroke:rgb(23,22,21);stroke-width:0.5;" d="M162.490 388.860 L171.330 388.860 L162.490 388.860 "/>
  <path style="fill:none;stroke:rgb(23,22,21);stroke-width:0.5;" d="M166.910 388.860 L166.910 390.960 "/>
  <path style="fill:none;stroke:rgb(23,22,21);stroke-width:0.5;" d="M184.820 419.140 L184.820 353.500 L202.580 353.500 L202.580 419.140 L184.820 419.140 "/>
  <path style="fill:none;stroke:rgb(23,22,21);stroke-width:0.5;" d="M189.310 350.460 L198.160 350.460 L189.310 350.460 "/>
  <path style="fill:none;stroke:rgb(23,22,21);stroke-width:0.5;" d="M193.740 350.460 L193.740 353.500 "/>
  <path style="fill:none;stroke:rgb(23,22,21);stroke-width:0.5;" d="M211.640 419.140 L211.640 384.290 L229.400 384.290 L229.400 419.140 L211.640 419.140 "/>
  <path style="fill:none;stroke:rgb(23,22,21);stroke-width:0.5;" d="M216.140 381.690 L224.980 381.690 L216.140 381.690 "/>
  <path style="fill:none;stroke:rgb(23,22,21);stroke-width:0.5;" d="M220.560 381.690 L220.560 384.290 "/>
  <path style="fill:none;stroke:rgb(23,22,21);stroke-width:0.5;" d="M238.470 419.140 L238.470 387.920 L256.230 387.920 L256.230 419.140 L238.470 419.140 "/>
  <path style="fill:none;stroke:rgb(23,22,21);stroke-width:0.5;" d="M242.960 384.580 L251.810 384.580 L242.960 384.580 "/>
  <path style="fill:none;stroke:rgb(23,22,21);stroke-width:0.5;" d="M247.390 384.580 L247.390 387.920 "/>
  <path style="fill:none;stroke:rgb(23,22,21);stroke-width:0.5;" d="M265.290 419.140 L265.290 345.680 L283.050 345.680 L283.050 419.140 L265.290 419.140 "/>
  <path style="fill:none;stroke:rgb(23,22,21);stroke-width:0.5;" d="M269.790 339.810 L278.630 339.810 L269.790 339.810 "/>
  <path style="fill:none;stroke:rgb(23,22,21);stroke-width:0.5;" d="M274.210 339.810 L274.210 345.680 "/>
  <path style="fill:none;stroke:rgb(23,22,21);stroke-width:0.5;" d="M126.670 428.130 L287.620 428.130 "/>
  <path style="fill:none;stroke:rgb(23,22,21);stroke-width:0.5;" d="M140.090 428.130 L140.090 430.590 "/>
  <path style="fill:none;stroke:rgb(23,22,21);stroke-width:0.5;" d="M166.910 428.130 L166.910 430.590 "/>
  <g begin="text">
   <text y="440.637" x="159.811,164.243,167.259" svgx:width="0.56,0.37,0.82" style="fill:rgb(23,22,21);font-family:MinionPro-Regular3;font-size:8.0px;stroke:none;">Prm</text>
  </g>
  <path style="fill:none;stroke:rgb(23,22,21);stroke-width:0.5;" d="M193.740 428.130 L193.740 430.590 "/>
  <g begin="text">
   <text y="440.637" x="189.856,193.696" svgx:width="0.48,0.48" style="fill:rgb(23,22,21);font-family:MinionPro-Regular3;font-size:8.0px;stroke:none;">50</text>
  </g>
  <path style="fill:none;stroke:rgb(23,22,21);stroke-width:0.5;" d="M220.560 428.130 L220.560 430.590 "/>
  <g begin="text">
   <text y="440.637" x="216.741,220.581" svgx:width="0.48,0.48" style="fill:rgb(23,22,21);font-family:MinionPro-Regular3;font-size:8.0px;stroke:none;">75</text>
  </g>
  <path style="fill:none;stroke:rgb(23,22,21);stroke-width:0.5;" d="M247.380 428.130 L247.380 430.590 "/>
  <g begin="text">
   <text y="440.637" x="241.706,245.546,249.386" svgx:width="0.48,0.48,0.48" style="fill:rgb(23,22,21);font-family:MinionPro-Regular3;font-size:8.0px;stroke:none;">100</text>
  </g>
  <path style="fill:none;stroke:rgb(23,22,21);stroke-width:0.5;" d="M274.210 428.130 L274.210 430.590 "/>
  <g begin="text">
   <text y="440.637" x="268.592,272.432,276.272" svgx:width="0.48,0.48,0.48" style="fill:rgb(23,22,21);font-family:MinionPro-Regular3;font-size:8.0px;stroke:none;">250</text>
  </g>
  <path style="fill:none;stroke:rgb(23,22,21);stroke-width:0.5;" d="M117.970 419.430 L117.970 324.450 "/>
  <path style="fill:none;stroke:rgb(23,22,21);stroke-width:0.5;" d="M117.970 419.430 L115.510 419.430 "/>
  <g begin="text">
   <text y="421.294" x="98.665,102.505,104.329,108.169" svgx:width="0.48,0.23,0.48,0.48" style="fill:rgb(23,22,21);font-family:MinionPro-Regular3;font-size:8.0px;stroke:none;">0.00</text>
  </g>
  <path style="fill:none;stroke:rgb(23,22,21);stroke-width:0.5;" d="M117.970 387.770 L115.510 387.770 "/>
  <g begin="text">
   <text y="389.691" x="98.665,102.505,104.329,108.169" svgx:width="0.48,0.23,0.48,0.48" style="fill:rgb(23,22,21);font-family:MinionPro-Regular3;font-size:8.0px;stroke:none;">0.05</text>
  </g>
  <path style="fill:none;stroke:rgb(23,22,21);stroke-width:0.5;" d="M117.970 356.110 L115.510 356.110 "/>
  <g begin="text">
   <text y="358.089" x="98.665,102.505,104.329,108.169" svgx:width="0.48,0.23,0.48,0.48" style="fill:rgb(23,22,21);font-family:MinionPro-Regular3;font-size:8.0px;stroke:none;">0.10</text>
  </g>
  <path style="fill:none;stroke:rgb(23,22,21);stroke-width:0.5;" d="M117.970 324.450 L115.510 324.450 "/>
  <g begin="text">
   <text y="326.486" x="98.665,102.505,104.329,108.169" svgx:width="0.48,0.23,0.48,0.48" style="fill:rgb(23,22,21);font-family:MinionPro-Regular3;font-size:8.0px;stroke:none;">0.15</text>
  </g>
  <path style="fill:none;stroke:rgb(23,22,21);stroke-width:0.5;" d="M180.180 444.090 L289.360 444.090 "/>
  <path style="fill:none;stroke:rgb(23,22,21);stroke-width:0.5;" d="M180.180 442.570 L180.180 445.610 L180.180 442.570 "/>
  <path style="fill:none;stroke:rgb(23,22,21);stroke-width:0.5;" d="M289.360 442.570 L289.360 445.610 L289.360 442.570 "/>
  <g begin="text">
   <text y="452.764" x="212.678,216.982,221.526,227.502,229.318,232.086,238.574,242.318,244.966,250.35,254.094" svgx:width="0.54,0.57,0.75,0.23,0.35,0.82,0.47,0.33,0.67,0.47,0.35" style="fill:rgb(23,22,21);font-family:MinionPro-Regular3;font-size:8.0px;stroke:none;">LEO (mg/Kg)</text>
  </g>
  <path style="fill:none;stroke:rgb(23,22,21);stroke-width:0.5;" d="M131.460 456.870 L289.360 456.870 "/>
  <path style="fill:none;stroke:rgb(23,22,21);stroke-width:0.5;" d="M131.460 455.350 L131.460 458.390 L131.460 455.350 "/>
  <path style="fill:none;stroke:rgb(23,22,21);stroke-width:0.5;" d="M289.360 455.350 L289.360 458.390 L289.360 455.350 "/>
  <g begin="text">
   <text y="412.744" transform="matrix(0.0,-1.0,1.0,0.0,-331.392,494.096)" rotateDegrees="-90" matrix="[0.0,8.0,-8.0,0.0,81.3523,387.256]" x="81.352,88.22400000000002,91.83200000000002,95.23800000000003,97.26900000000003,101.26100000000005,105.525,108.93100000000001,111.79500000000004,115.74700000000004,119.53000000000006,121.68000000000004,125.91000000000005,129.42900000000006,132.42800000000003,135.83400000000003,137.65,141.16800000000003,144.60800000000003,147.05400000000006,149.14200000000002,152.85300000000004,154.90100000000004,157.347" svgx:width="0.89,0.46,0.43,0.25,0.51,0.52,0.43,0.37,0.51,0.47,0.27,0.53,0.44,0.37,0.43,0.23,0.44,0.42,0.31,0.27,0.46,0.27,0.31,0.46" style="fill:rgb(23,22,21);font-family:MinionPro-Regular3;font-size:8.0px;stroke:none;">Myeloperoxidase activity</text>
   <text y="393.52" transform="matrix(0.0,-1.0,1.0,0.0,-302.28,484.76)" rotateDegrees="-90" matrix="[0.0,8.0,-8.0,0.0,91.2403,406.48]" x="91.24,97.264,103.24,105.05499999999999,107.82299999999996,111.663,115.50299999999997,119.34299999999998,120.69699999999999,125.07299999999996,131.625" svgx:width="0.74,0.75,0.23,0.35,0.48,0.48,0.48,0.55,0.55,0.82,0.35" style="fill:rgb(23,22,21);font-family:MinionPro-Regular3;font-size:8.0px;stroke:none;">DO (450 nm)</text>
   <text y="388.138" x="164.49" svgx:width="0.59" style="fill:rgb(23,22,21);font-family:MinionMath-Regular-Graphic;font-size:8.0px;stroke:none;">âˆ—</text>
   <text y="381.058" x="217.986" svgx:width="0.59" style="fill:rgb(23,22,21);font-family:MinionMath-Regular-Graphic;font-size:8.0px;stroke:none;">âˆ—</text>
   <text y="383.89" x="244.65" svgx:width="0.59" style="fill:rgb(23,22,21);font-family:MinionMath-Regular-Graphic;font-size:8.0px;stroke:none;">âˆ—</text>
   <text y="464.162" x="175.082,181.01,184.413,188.192,190.635,193.606,197.046,201.426,203.242,206.014,209.857,213.7" svgx:width="0.74,0.43,0.47,0.31,0.37,0.44,0.55,0.23,0.35,0.48,0.48,0.48" style="fill:rgb(23,22,21);font-family:MinionPro-Regular3;font-size:8.0px;stroke:none;">Dextran (500</text>
   <text y="464.162" x="218.97" svgx:width="0.56" style="fill:rgb(23,22,21);font-family:MinionMath-Regular-Graphic;font-size:8.0px;stroke:none;">î‹®</text>
   <text y="464.162" x="223.482,227.239,229.901,234.106,237.474,242.968" svgx:width="0.47,0.33,0.52,0.44,0.69,0.35" style="fill:rgb(23,22,21);font-family:MinionPro-Regular3;font-size:8.0px;stroke:none;">g/paw)</text>
  </g>
  <g begin="text">
   <text y="479.204" x="176.238,178.994,183.041" svgx:width="0.35,0.51,0.35" style="fill:rgb(23,22,21);font-family:MinionPro-Regular2;font-size:7.97px;stroke:none;">(b)</text>
  </g>
  <path style="fill:none;stroke:rgb(23,22,21);stroke-width:0.5;" d="M343.120 416.300 L343.120 327.420 L363.530 327.420 L363.530 416.300 L343.120 416.300 "/>
  <path style="fill:none;stroke:rgb(23,22,21);stroke-width:0.5;" d="M348.240 321.350 L358.500 321.350 L348.240 321.350 "/>
  <path style="fill:none;stroke:rgb(23,22,21);stroke-width:0.5;" d="M353.370 321.350 L353.370 327.420 "/>
  <path style="fill:none;stroke:rgb(23,22,21);stroke-width:0.5;" d="M373.960 416.300 L373.960 345.630 L394.380 345.630 L394.380 416.300 L373.960 416.300 "/>
  <path style="fill:none;stroke:rgb(23,22,21);stroke-width:0.5;" d="M379.080 337.220 L389.340 337.220 L379.080 337.220 "/>
  <path style="fill:none;stroke:rgb(23,22,21);stroke-width:0.5;" d="M384.210 337.220 L384.210 345.630 "/>
  <path style="fill:none;stroke:rgb(23,22,21);stroke-width:0.5;" d="M404.800 416.300 L404.800 332.620 L425.220 332.620 L425.220 416.300 L404.800 416.300 "/>
  <path style="fill:none;stroke:rgb(23,22,21);stroke-width:0.5;" d="M409.930 324.380 L420.180 324.380 L409.930 324.380 "/>
  <path style="fill:none;stroke:rgb(23,22,21);stroke-width:0.5;" d="M415.050 324.380 L415.050 332.620 "/>
  <path style="fill:none;stroke:rgb(23,22,21);stroke-width:0.5;" d="M435.640 416.300 L435.640 345.720 L456.060 345.720 L456.060 416.300 L435.640 416.300 "/>
  <path style="fill:none;stroke:rgb(23,22,21);stroke-width:0.5;" d="M440.770 336.960 L451.020 336.960 L440.770 336.960 "/>
  <path style="fill:none;stroke:rgb(23,22,21);stroke-width:0.5;" d="M445.890 336.960 L445.890 345.720 "/>
  <path style="fill:none;stroke:rgb(23,22,21);stroke-width:0.5;" d="M466.480 416.300 L466.480 333.490 L486.900 333.490 L486.900 416.300 L466.480 416.300 "/>
  <path style="fill:none;stroke:rgb(23,22,21);stroke-width:0.5;" d="M471.610 328.890 L481.860 328.890 L471.610 328.890 "/>
  <path style="fill:none;stroke:rgb(23,22,21);stroke-width:0.5;" d="M476.730 328.890 L476.730 333.490 "/>
  <path style="fill:none;stroke:rgb(23,22,21);stroke-width:0.5;" d="M497.320 416.300 L497.320 326.030 L517.740 326.030 L517.740 416.300 L497.320 416.300 "/>
  <path style="fill:none;stroke:rgb(23,22,21);stroke-width:0.5;" d="M502.450 318.400 L512.700 318.400 L502.450 318.400 "/>
  <path style="fill:none;stroke:rgb(23,22,21);stroke-width:0.5;" d="M507.580 318.400 L507.580 326.030 "/>
  <path style="fill:none;stroke:rgb(23,22,21);stroke-width:0.5;" d="M337.990 427.060 L523.040 427.060 "/>
  <path style="fill:none;stroke:rgb(23,22,21);stroke-width:0.5;" d="M353.370 427.060 L353.370 430.010 "/>
  <path style="fill:none;stroke:rgb(23,22,21);stroke-width:0.5;" d="M384.210 427.060 L384.210 430.010 "/>
  <g begin="text">
   <text y="440.05" x="377.308,381.74,384.756" svgx:width="0.56,0.37,0.82" style="fill:rgb(23,22,21);font-family:MinionPro-Regular3;font-size:8.0px;stroke:none;">Prm</text>
  </g>
  <path style="fill:none;stroke:rgb(23,22,21);stroke-width:0.5;" d="M415.050 427.060 L415.050 430.010 "/>
  <g begin="text">
   <text y="440.05" x="411.282,415.122" svgx:width="0.48,0.48" style="fill:rgb(23,22,21);font-family:MinionPro-Regular3;font-size:8.0px;stroke:none;">50</text>
  </g>
  <path style="fill:none;stroke:rgb(23,22,21);stroke-width:0.5;" d="M445.890 427.060 L445.890 430.010 "/>
  <g begin="text">
   <text y="440.05" x="442.095,445.935" svgx:width="0.48,0.48" style="fill:rgb(23,22,21);font-family:MinionPro-Regular3;font-size:8.0px;stroke:none;">75</text>
  </g>
  <path style="fill:none;stroke:rgb(23,22,21);stroke-width:0.5;" d="M476.730 427.060 L476.730 430.010 "/>
  <g begin="text">
   <text y="440.05" x="470.989,474.829,478.669" svgx:width="0.48,0.48,0.48" style="fill:rgb(23,22,21);font-family:MinionPro-Regular3;font-size:8.0px;stroke:none;">100</text>
  </g>
  <path style="fill:none;stroke:rgb(23,22,21);stroke-width:0.5;" d="M507.580 427.060 L507.580 430.010 "/>
  <g begin="text">
   <text y="440.05" x="501.804,505.644,509.484" svgx:width="0.48,0.48,0.48" style="fill:rgb(23,22,21);font-family:MinionPro-Regular3;font-size:8.0px;stroke:none;">250</text>
  </g>
  <path style="fill:none;stroke:rgb(23,22,21);stroke-width:0.5;" d="M327.570 416.650 L327.570 293.080 "/>
  <path style="fill:none;stroke:rgb(23,22,21);stroke-width:0.5;" d="M327.570 416.650 L324.610 416.650 "/>
  <g begin="text">
   <text y="418.224" x="316.962" svgx:width="0.48" style="fill:rgb(23,22,21);font-family:MinionPro-Regular3;font-size:8.0px;stroke:none;">0</text>
  </g>
  <path style="fill:none;stroke:rgb(23,22,21);stroke-width:0.5;" d="M327.570 391.940 L324.610 391.940 "/>
  <g begin="text">
   <text y="393.535" x="316.962" svgx:width="0.48" style="fill:rgb(23,22,21);font-family:MinionPro-Regular3;font-size:8.0px;stroke:none;">2</text>
  </g>
  <path style="fill:none;stroke:rgb(23,22,21);stroke-width:0.5;" d="M327.570 367.220 L324.610 367.220 "/>
  <g begin="text">
   <text y="368.848" x="316.962" svgx:width="0.48" style="fill:rgb(23,22,21);font-family:MinionPro-Regular3;font-size:8.0px;stroke:none;">4</text>
  </g>
  <path style="fill:none;stroke:rgb(23,22,21);stroke-width:0.5;" d="M327.570 342.510 L324.610 342.510 "/>
  <g begin="text">
   <text y="344.159" x="316.962" svgx:width="0.48" style="fill:rgb(23,22,21);font-family:MinionPro-Regular3;font-size:8.0px;stroke:none;">6</text>
  </g>
  <path style="fill:none;stroke:rgb(23,22,21);stroke-width:0.5;" d="M327.570 317.790 L324.610 317.790 "/>
  <g begin="text">
   <text y="319.472" x="316.962" svgx:width="0.48" style="fill:rgb(23,22,21);font-family:MinionPro-Regular3;font-size:8.0px;stroke:none;">8</text>
  </g>
  <path style="fill:none;stroke:rgb(23,22,21);stroke-width:0.5;" d="M327.570 293.080 L324.610 293.080 "/>
  <g begin="text">
   <text y="294.784" x="313.122,316.962" svgx:width="0.48,0.48" style="fill:rgb(23,22,21);font-family:MinionPro-Regular3;font-size:8.0px;stroke:none;">10</text>
   <text y="452.024" x="439.698,444.002,448.546,454.522,456.338,459.106,465.594,469.338,471.986,477.37,481.114" svgx:width="0.54,0.57,0.75,0.23,0.35,0.82,0.47,0.33,0.67,0.47,0.35" style="fill:rgb(23,22,21);font-family:MinionPro-Regular3;font-size:8.0px;stroke:none;">LEO (mg/Kg)</text>
  </g>
  <path style="fill:none;stroke:rgb(23,22,21);stroke-width:0.5;" d="M405.230 443.970 L518.350 443.970 "/>
  <path style="fill:none;stroke:rgb(23,22,21);stroke-width:0.5;" d="M405.230 442.150 L405.230 445.790 L405.230 442.150 "/>
  <path style="fill:none;stroke:rgb(23,22,21);stroke-width:0.5;" d="M518.350 442.150 L518.350 445.790 L518.350 442.150 "/>
  <path style="fill:none;stroke:rgb(23,22,21);stroke-width:0.5;" d="M340.600 456.680 L518.350 456.680 "/>
  <path style="fill:none;stroke:rgb(23,22,21);stroke-width:0.5;" d="M340.600 454.850 L340.600 458.500 L340.600 454.850 "/>
  <path style="fill:none;stroke:rgb(23,22,21);stroke-width:0.5;" d="M518.350 454.850 L518.350 458.500 L518.350 454.850 "/>
  <g begin="text">
   <text y="464.16" x="394.153,400.081,403.485,407.265,409.709,412.681,416.122,420.502,422.318,425.09,428.934,432.778" svgx:width="0.74,0.43,0.47,0.31,0.37,0.44,0.55,0.23,0.35,0.48,0.48,0.48" style="fill:rgb(23,22,21);font-family:MinionPro-Regular3;font-size:8.0px;stroke:none;">Dextran (500</text>
   <text y="464.16" x="438.041" svgx:width="0.56" style="fill:rgb(23,22,21);font-family:MinionMath-Regular-Graphic;font-size:8.0px;stroke:none;">î‹®</text>
   <text y="464.16" x="442.553,446.311,448.972,453.178,456.546,462.026" svgx:width="0.47,0.33,0.52,0.44,0.69,0.35" style="fill:rgb(23,22,21);font-family:MinionPro-Regular3;font-size:8.0px;stroke:none;">g/paw)</text>
   <text y="398.117" transform="matrix(0.0,-1.0,1.0,0.0,-92.807,703.427)" rotateDegrees="-90" matrix="[0.0,8.0,-8.0,0.0,305.3098,401.883]" x="305.31,311.086,313.134,315.58000000000004,318.596,320.644,323.036,326.44100000000003,328.257,331.64700000000005,335.63100000000003,340.012,343.40200000000004,346.808,351.03200000000004,353.47700000000003,356.451,359.81100000000004,362.291,364.44,368.42400000000004,372.80600000000004,374.622" svgx:width="0.74,0.27,0.31,0.37,0.27,0.31,0.43,0.23,0.42,0.51,0.55,0.42,0.43,0.55,0.31,0.37,0.44,0.31,0.27,0.51,0.55,0.23,0.35" style="fill:rgb(23,22,21);font-family:MinionPro-Regular3;font-size:8.0px;stroke:none;">Nitrite concentration (</text>
   <text y="326.021" transform="matrix(0.0,-1.0,1.0,0.0,-20.711,631.331)" rotateDegrees="-90" matrix="[0.0,8.0,-8.0,0.0,305.3098,473.979]" x="305.31" svgx:width="0.56" style="fill:rgb(23,22,21);font-family:MinionMath-Regular-Graphic;font-size:8.0px;stroke:none;">î‹®</text>
   <text y="321.509" transform="matrix(0.0,-1.0,1.0,0.0,-16.199,626.819)" rotateDegrees="-90" matrix="[0.0,8.0,-8.0,0.0,305.3098,478.491]" x="305.31,312.43800000000005" svgx:width="0.89,0.35" style="fill:rgb(23,22,21);font-family:MinionPro-Regular3;font-size:8.0px;stroke:none;">M)</text>
  </g>
  <g begin="text">
   <text y="479.204" x="405.54,408.298,411.669" svgx:width="0.35,0.42,0.35" style="fill:rgb(23,22,21);font-family:MinionPro-Regular2;font-size:7.97px;stroke:none;">(c)</text>
   <text y="497.852" x="50.58,55.26,58.005,63.073,68.293,72.919,77.2246,81.091,85.549,87.61210000000001,91.453,96.548,101.498,105.311,109.163,111.94369999999999,115.75,120.215,122.906,126.722,129.512,134.302,138.1591,141.961,144.742,147.955,151.816,155.578,158.36,165.667,169.48,174.214,176.9947,180.802,186.967,189.262,192.053,196.8071,200.702,205.527,210.622,217.3495,221.161,225.625,230.5585,234.381,239.117,242.93,247.164,249.945,253.274,257.126,262.032,265.226,267.631,272.537,277.163,281.926,285.72,289.533,294.2871,298.128,302.871,306.642,312.8313,316.642,320.454,325.19,329.003,336.348,340.2948,344.142,346.546,351.4795,355.303,362.648,365.053,368.848,372.7051,376.516,379.62,383.558,386.662,388.7251,392.566,400.27,404.312,408.083,410.353,414.826,419.606,423.413,426.625,431.053,435.287,437.692,442.428,446.366,449.732,453.58910000000003,457.4,461.338,465.19,467.97,470.311,474.464,476.758,479.495,483.6212,487.469,490.573,495.129,498.234,500.2971,504.138,510.609,512.904,515.684,519.068,521.473,525.2403999999999,529.114,533.542,537.775,540.18,544.916" svgx:width="0.53,0.31,0.56,0.58,0.53,0.48,0.55,0.5,0.23,0.55,0.57,0.56,0.43,0.42,0.31,0.55,0.51,0.3,0.55,0.31,0.53,0.43,0.55,0.31,0.37,0.43,0.44,0.31,0.82,0.43,0.55,0.31,0.55,0.69,0.27,0.31,0.53,0.55,0.54,0.57,0.75,0.55,0.51,0.55,0.55,0.53,0.43,0.47,0.31,0.37,0.44,0.55,0.36,0.27,0.55,0.53,0.53,0.42,0.43,0.53,0.55,0.52,0.44,0.69,0.55,0.43,0.53,0.43,0.82,0.44,0.55,0.27,0.55,0.55,0.82,0.27,0.42,0.43,0.55,0.35,0.44,0.35,0.23,0.55,0.89,0.46,0.43,0.25,0.51,0.52,0.43,0.37,0.51,0.47,0.27,0.53,0.44,0.37,0.43,0.55,0.44,0.42,0.31,0.27,0.46,0.27,0.31,0.46,0.55,0.35,0.51,0.35,0.23,0.55,0.74,0.27,0.31,0.37,0.27,0.42,0.55,0.51,0.47,0.27,0.53,0.43" style="fill:rgb(23,22,21);font-family:MinionPro-Regular2;font-size:8.97px;stroke:none;">Figure 4: Effec to fth etreatmen twit hLE Oo ndextran-induce dpa wedem ai nmic e(a) .Myeloperoxidas eactivit y(b) .Nitri coxide</text>
   <text y="508.307" x="50.58,54.37,58.834,63.736,67.526,71.334,76.068,78.849,82.179,85.942,88.723,91.123,95.587,100.5205,102.201,105.306,109.097,112.196,114.2591,115.95,121.358,125.292,127.452,132.21,136.018,139.3369,141.022,144.235,148.043,152.633,155.846,159.654,163.02,166.828,171.562,174.3427,175.998,183.339,187.2,191.052,195.9855,197.667,201.815,205.794,207.954,212.712,216.52" svgx:width="0.42,0.51,0.55,0.42,0.43,0.55,0.31,0.37,0.44,0.31,0.27,0.51,0.55,0.55,0.35,0.42,0.35,0.23,0.55,0.7,0.44,0.25,0.53,0.43,0.37,0.55,0.37,0.43,0.52,0.37,0.43,0.37,0.43,0.55,0.31,0.55,0.82,0.43,0.44,0.55,0.55,0.46,0.44,0.25,0.53,0.43,0.37" style="fill:rgb(23,22,21);font-family:MinionPro-Regular2;font-size:8.97px;stroke:none;">concentration (c). Values represent mean values</text>
   <text y="508.307" x="221.506" svgx:width="0.59" style="fill:rgb(23,22,21);font-family:MinionMath-Regular;font-size:8.97px;stroke:none;">Â±</text>
   <text y="508.307" x="228.464,231.749,234.539,238.391,243.26,247.988,251.84,255.053,259.8071,261.488,265.292,268.676,271.889,276.353,279.6719,281.384,285.848,288.539,290.203,292.994,297.776,301.6331,303.284,310.621,314.482,318.334,323.2675,324.948,327.522,331.987,335.3059,337.018,340.879,344.809,348.543,353.2971,355.041,359.281,362.493,366.967,371.619,376.056,378.1191,379.809,387.702,390.987,393.383,397.573,402.472,404.868,409.659,413.446,417.298,422.032,424.8127,426.477,431.205,433.602,438.552,442.357,445.57,449.374,454.272,458.059,461.91610000000003,463.576,467.338" svgx:width="0.37,0.31,0.44,0.55,0.53,0.44,0.37,0.53,0.55,0.43,0.37,0.37,0.51,0.37,0.55,0.51,0.3,0.55,0.31,0.53,0.43,0.55,0.82,0.43,0.44,0.55,0.55,0.3,0.51,0.37,0.55,0.43,0.44,0.42,0.53,0.55,0.47,0.37,0.51,0.53,0.52,0.23,0.55,0.69,0.37,0.27,0.47,0.55,0.27,0.54,0.42,0.44,0.55,0.31,0.55,0.53,0.27,0.56,0.43,0.37,0.43,0.55,0.42,0.43,0.55,0.44,0.31" style="fill:rgb(23,22,21);font-family:MinionPro-Regular2;font-size:8.97px;stroke:none;">standard error of the mean for each group. Asignifican tdifferen ceat</text>
   <text y="504.368" x="471.825" svgx:width="0.61" style="fill:rgb(23,22,21);font-family:MinionMath-Capt;font-size:5.98px;stroke:none;">âˆ—</text>
   <text y="507.176" x="475.974" svgx:width="0.59" style="fill:rgb(23,22,21);font-family:MinionMath-Regular;font-size:8.97px;stroke:none;">ğ‘</text>
   <text y="508.315" x="483.793" svgx:width="0.59" style="fill:rgb(23,22,21);font-family:MinionMath-Regular;font-size:8.97px;stroke:none;">&lt;</text>
   <text y="508.315" x="490.751,495.163,497.199,501.699,506.112,509.134,511.19710000000003,512.888,516.672,521.137,528.31,533.053,536.905,540.118,543.97" svgx:width="0.49,0.23,0.49,0.49,0.34,0.23,0.55,0.42,0.51,0.82,0.52,0.44,0.37,0.43,0.53" style="fill:rgb(23,22,21);font-family:MinionPro-Regular2;font-size:8.97px;stroke:none;">0.001, compared</text>
   <text y="518.779" x="50.581,56.771,59.067,61.85,66.6041,68.672,71.455,76.207,80.0641,82.057,85.873,89.725,93.109,96.439,100.327,104.448,108.3,112.108,116.985,120.837,125.7705,127.794,130.899,136.867,141.06,144.1995,146.19,150.434,153.647,158.12,162.773,167.4374,169.505,172.61,177.075,181.943,185.75,188.945,195.083,198.854,202.98020000000002,205.019,211.211,217.808,224.351,229.544,235.736,237.79909999999998,239.831,244.493,249.302,253.667,257.526,261.6522,263.683,266.365,270.172,273.42,276.156,279.261" svgx:width="0.69,0.27,0.31,0.53,0.55,0.31,0.53,0.43,0.55,0.42,0.44,0.37,0.37,0.44,0.47,0.43,0.43,0.55,0.44,0.55,0.55,0.35,0.67,0.47,0.35,0.55,0.47,0.37,0.51,0.53,0.52,0.55,0.35,0.51,0.55,0.43,0.36,0.69,0.44,0.46,0.55,0.69,0.74,0.75,0.7,0.69,0.23,0.55,0.62,0.53,0.5,0.43,0.46,0.55,0.31,0.43,0.37,0.31,0.35,0.23" style="fill:rgb(23,22,21);font-family:MinionPro-Regular2;font-size:8.97px;stroke:none;">with the carrageenan (Cg) group (one-way ANOVA, Tukey test).</text>
   <text y="557.945" x="50.58,54.786,59.755,65.196,69.402,73.628,78.894,81.99,85.689,89.874,92.971,95.633,100.601,105.974,109.6592,112.976,116.415,121.039,123.303,127.785,129.495,137.576,142.239,145.529,149.821,154.105,157.804,161.29,164.636,167.741,173.053,175.715,179.4002,182.753,186.979,192.478,196.762,201.046,204.1336,207.481,210.143,213.8282,217.181,222.622,227.599,230.6866,234.016,239.048,244.101,247.835,252.062,256.049,260.585,264.869,270.062,272.3528,275.732,280.016,285.433" svgx:width="0.42,0.51,0.55,0.42,0.43,0.55,0.31,0.37,0.44,0.31,0.27,0.51,0.55,0.37,0.55,0.35,0.47,0.23,0.45,0.55,0.82,0.47,0.33,0.43,0.44,0.37,0.35,0.55,0.31,0.53,0.27,0.37,0.55,0.43,0.56,0.43,0.42,0.31,0.55,0.27,0.37,0.55,0.55,0.51,0.31,0.55,0.51,0.51,0.37,0.43,0.37,0.46,0.43,0.53,0.23,0.55,0.44,0.55,0.53" style="fill:rgb(23,22,21);font-family:MinionPro-Regular2;font-size:9.96px;stroke:none;">concentrations (2.5 mg/ear) this effec ti sno tobserved ,and</text>
   <text y="569.312" x="50.58,55.944,61.605,69.075,72.286,77.542,80.215,85.49380000000001,88.72,94.137,99.115,102.20259999999999,105.392,108.965,113.249,118.387,123.68,127.892,132.1748,135.365,139.649,144.905,149.135,157.271,161.65339999999998,164.884,167.746,172.715,176.476,184.613,188.798,191.895,194.567,199.536,205.014,208.194,213.145,218.319,221.4066,224.597,228.296,232.481,235.586,240.87,245.1,248.7852,252.035,257.138,260.71,264.94,268.675,272.905,278.171,281.149,285.433" svgx:width="0.54,0.57,0.75,0.55,0.53,0.27,0.53,0.55,0.55,0.51,0.31,0.55,0.37,0.43,0.53,0.53,0.42,0.43,0.55,0.43,0.53,0.43,0.82,0.44,0.55,0.3,0.51,0.37,0.82,0.44,0.31,0.27,0.51,0.55,0.55,0.51,0.53,0.31,0.55,0.37,0.44,0.31,0.53,0.43,0.37,0.55,0.52,0.37,0.43,0.37,0.43,0.55,0.31,0.43,0.53" style="fill:rgb(23,22,21);font-family:MinionPro-Regular2;font-size:9.96px;stroke:none;">LEO did not reduce edema formation but rather presented</text>
   <text y="580.68" x="50.58,54.851,60.329,63.113,65.786,69.548,73.31,75.866,78.971,83.157,86.253,88.854,93.364,97.6468,100.366,103.96,108.19,111.79,117.1,122.079,127.426,131.16,135.328,137.6188,140.413,143.086,148.503,152.716,156.309,160.602,164.949,168.603,171.276,176.649,181.3302,184.101,188.385,193.641,197.871,206.007,210.3894,213.19,218.085,222.66660000000002,225.474,228.786,233.718,235.987,240.514,248.08360000000002,250.855,255.067,260.036,268.01,273.284,277.555,281.148,285.432" svgx:width="0.44,0.55,0.55,0.27,0.37,0.37,0.27,0.31,0.44,0.31,0.27,0.46,0.43,0.55,0.37,0.43,0.37,0.52,0.51,0.55,0.37,0.43,0.23,0.55,0.27,0.55,0.42,0.37,0.43,0.44,0.37,0.27,0.55,0.47,0.55,0.43,0.53,0.43,0.82,0.44,0.55,0.51,0.46,0.55,0.34,0.5,0.23,0.45,0.76,0.55,0.42,0.51,0.82,0.52,0.44,0.37,0.43,0.53" style="fill:rgb(23,22,21);font-family:MinionPro-Regular2;font-size:9.96px;stroke:none;">an irritative response, increasing edema by 16.5% compared</text>
   <text y="592.047" x="50.58,53.559,58.6386,61.118,65.326,68.898,73.876,76.854,81.823,87.30099999999999,89.743,94.711,97.438,99.895,102.1858,104.638,109.498,113.809,118.345,122.572,126.261,130.689,133.179,135.693,139.294,142.237,147.529,152.782,155.445,159.672,163.3572,165.819,171.073,175.3,183.452,188.421,193.793,197.394,200.49,204.179,208.365,211.344,215.627,220.9058,223.358,226.464,231.777,235.962,239.0496,241.47,244.576,249.889,254.17180000000002,256.603,259.116,263.31,267.846,272.074,277.516,282.769,286.996" svgx:width="0.31,0.51,0.55,0.42,0.37,0.51,0.31,0.51,0.55,0.55,0.51,0.27,0.25,0.23,0.55,0.47,0.43,0.46,0.43,0.37,0.44,0.25,0.55,0.37,0.31,0.53,0.53,0.27,0.43,0.37,0.55,0.53,0.43,0.82,0.51,0.55,0.37,0.31,0.37,0.44,0.31,0.43,0.53,0.55,0.31,0.53,0.44,0.31,0.55,0.31,0.53,0.43,0.55,0.25,0.44,0.46,0.43,0.55,0.53,0.43,0.37" style="fill:rgb(23,22,21);font-family:MinionPro-Regular2;font-size:9.96px;stroke:none;">to croton oil. Several studies demonstrated that the lavender</text>
   <text y="603.414" x="50.58,55.893,60.26,63.9452,67.397,71.681,77.15899999999999,80.627,83.3,87.062,90.824,93.38,96.486,100.671,103.767,106.44,111.813,116.4942,119.922,124.149,129.648,133.932,138.216,141.30360000000002,144.75,149.034,154.768,158.995,162.6802,166.186,169.291,174.604,178.831,181.495,185.1802,188.677,192.904,197.599,202.909,207.983,211.584,216.867,220.439,224.7218,228.161,231.14,236.21959999999999,239.717,242.822,248.135,252.4178,255.848,259.498,264.432,267.095,272.57300000000004,276.033,279.463,283.8,288.426" svgx:width="0.53,0.44,0.37,0.55,0.44,0.55,0.55,0.27,0.37,0.37,0.27,0.31,0.44,0.31,0.27,0.55,0.47,0.55,0.43,0.56,0.43,0.42,0.31,0.55,0.44,0.58,0.43,0.37,0.55,0.31,0.53,0.43,0.27,0.37,0.55,0.43,0.47,0.52,0.51,0.37,0.53,0.37,0.43,0.55,0.31,0.51,0.55,0.31,0.53,0.43,0.55,0.37,0.5,0.27,0.55,0.55,0.34,0.45,0.47,0.23" style="fill:rgb(23,22,21);font-family:MinionPro-Regular2;font-size:9.96px;stroke:none;">has an irritating effec taft erthe irexposu re tot hesk in[32,</text>
   <text y="614.782" x="50.58,54.927,59.436,62.869,65.1598,68.089,78.755,83.03779999999999,85.928,90.139,95.107,100.48,104.08,107.177,109.733,112.676,117.968,122.198,127.463,130.498,134.1832,137.077,142.18,145.753,149.983,153.718,157.948,163.213,166.3006,169.198,171.871,177.34900000000002,180.268,183.373,188.69,192.9728,195.863,200.093,203.693,207.428,211.658,216.923,220.02,222.686,227.114,229.604,232.578,237.546,240.273,242.763,245.726,250.695,253.683,256.59,259.106,263.3,267.836,272.066,277.512,282.768,286.998" svgx:width="0.45,0.45,0.34,0.23,0.55,1.07,0.43,0.55,0.42,0.51,0.55,0.37,0.31,0.27,0.31,0.53,0.43,0.55,0.31,0.37,0.55,0.52,0.37,0.43,0.37,0.43,0.55,0.31,0.55,0.27,0.55,0.55,0.31,0.53,0.43,0.55,0.43,0.37,0.37,0.43,0.55,0.31,0.27,0.44,0.25,0.55,0.51,0.27,0.25,0.55,0.51,0.3,0.55,0.25,0.44,0.46,0.43,0.55,0.53,0.43,0.37" style="fill:rgb(23,22,21);font-family:MinionPro-Regular2;font-size:9.96px;stroke:none;">33]. Th econstituent spresen ti nth eessentia loi lo flavender</text>
   <text y="626.149" x="50.58,55.504,60.202,62.874,68.136,70.808,74.994,79.2768,83.094,89.988,95.31,99.546,105.024,108.861,113.097,117.802,123.112,128.195,131.93,136.166,141.4448,145.3,148.279,153.3586,157.226,161.51,164.182,167.8672,171.741,176.025,181.477,186.7558,190.593,194.81,199.093,204.571,208.408,212.648,216.833,222.098,225.833,230.1158,233.933,237.591,242.534,245.206,250.684,254.521,257.193,260.955,264.717,267.273,270.379,274.564,277.66,280.332,285.301" svgx:width="0.51,0.47,0.27,0.53,0.27,0.42,0.43,0.55,0.69,0.53,0.43,0.55,0.55,0.43,0.47,0.52,0.51,0.37,0.43,0.53,0.55,0.31,0.51,0.55,0.44,0.27,0.37,0.55,0.44,0.55,0.53,0.55,0.42,0.44,0.55,0.55,0.42,0.44,0.53,0.37,0.43,0.55,0.37,0.5,0.27,0.55,0.55,0.27,0.37,0.37,0.27,0.31,0.44,0.31,0.27,0.51,0.55" style="fill:rgb(23,22,21);font-family:MinionPro-Regular2;font-size:9.96px;stroke:none;">oxidize when exposed to air and can cause skin irritation</text>
   <text y="637.516" x="50.58,54.014,58.631,63.579,67.013,69.30380000000001,72.638,79.541,84.988,90.245,94.476,98.1612,101.532,105.132,110.419,114.569,119.8478,123.254,127.465,132.434,137.88,143.138,145.694,148.79,151.457,156.426,161.798,165.452,167.7428,171.05,174.155,179.472,183.75480000000002,187.05,190.028,195.006,200.109,202.782,206.993,211.421,213.911,217.28,222.545,226.28,230.5628,233.867,238.835,241.823,245.136,247.653,251.847,256.383,260.615,266.061,271.318,275.549,279.2342,282.605,285.272" svgx:width="0.34,0.45,0.5,0.34,0.23,0.55,0.74,0.55,0.53,0.43,0.37,0.55,0.37,0.53,0.42,0.53,0.55,0.42,0.51,0.55,0.53,0.27,0.31,0.27,0.51,0.55,0.37,0.23,0.55,0.31,0.53,0.43,0.55,0.31,0.51,0.52,0.27,0.42,0.44,0.25,0.55,0.53,0.37,0.43,0.55,0.51,0.3,0.55,0.25,0.44,0.46,0.43,0.55,0.53,0.43,0.37,0.55,0.27,0.55" style="fill:rgb(23,22,21);font-family:MinionPro-Regular2;font-size:9.96px;stroke:none;">[34]. Under such conditions, the topical use of lavender in</text>
   <text y="648.884" x="50.58,55.89,60.116,63.878,66.893,72.185,80.336,84.562,88.211,90.5018,93.206,97.412,102.485,106.133,114.285,118.511,121.607,124.269,128.476,132.124,134.41479999999999,137.128,141.412,146.83,152.1088,154.822,158.971,161.484,165.777,170.06,175.515,178.177,183.55,188.2312,190.948,196.051,199.623,204.798,209.937,215.229,219.513,222.554,226.2392,228.926,232.545,237.857,242.834,248.18,250.7,255.97879999999998,258.683,263.83,268.1128,270.805,276.058,281.026,286.444" svgx:width="0.52,0.43,0.37,0.3,0.53,0.82,0.43,0.37,0.23,0.55,0.42,0.51,0.37,0.82,0.43,0.31,0.27,0.42,0.37,0.23,0.55,0.44,0.55,0.53,0.55,0.42,0.25,0.43,0.44,0.55,0.27,0.55,0.47,0.55,0.52,0.37,0.51,0.53,0.53,0.42,0.31,0.37,0.55,0.37,0.53,0.51,0.53,0.25,0.53,0.55,0.51,0.43,0.55,0.53,0.51,0.55,0.43" style="fill:rgb(23,22,21);font-family:MinionPro-Regular2;font-size:9.96px;stroke:none;">perfumes, cosmetics, and cleaning products should be done</text>
   <text y="660.251" x="50.58,57.429,59.986,63.049,68.3278,70.627,74.866,79.051,84.226,87.322,90.017,94.985,100.46" svgx:width="0.69,0.27,0.31,0.53,0.55,0.42,0.44,0.53,0.31,0.27,0.51,0.55,0.23" style="fill:rgb(23,22,21);font-family:MinionPro-Regular2;font-size:9.96px;stroke:none;">with caution.</text>
   <text y="671.618" x="65.524,76.162,80.4448,85.594,89.806,93.378,98.361,101.339,106.322,111.8,116.96,121.942,124.669,127.15899999999999,132.373,135.019,138.70420000000001,143.875,148.2574,153.451,158.573,163.945,166.465,171.55,176.266,178.912,182.513,185.609,188.282,192.4652,197.687,202.007,206.587,210.818,216.083,219.1706,224.327,227.432,232.724,236.91,239.9976,245.145,247.818,253.235,258.374,263.666,267.878,272.108,275.7932,280.955,285.23" svgx:width="1.07,0.43,0.55,0.42,0.37,0.51,0.31,0.51,0.55,0.55,0.51,0.27,0.25,0.55,0.27,0.37,0.55,0.44,0.55,0.52,0.53,0.25,0.51,0.47,0.27,0.37,0.31,0.27,0.42,0.55,0.44,0.47,0.43,0.55,0.31,0.55,0.31,0.53,0.44,0.31,0.55,0.27,0.55,0.53,0.53,0.42,0.43,0.37,0.55,0.44,0.55" style="fill:rgb(23,22,21);font-family:MinionPro-Regular2;font-size:9.96px;stroke:none;">Th ecroto noi li s aphlogisti cagen ttha tinduce san</text>
   <text y="682.986" x="50.58,53.253,58.707,64.044,68.328,76.492,84.628,88.813,91.792,96.761,100.748,105.3296,108.461,112.033,116.263,119.864,125.174,130.142,135.515,139.25,143.5328,146.648,151.544,156.12560000000002,159.293,163.666,167.95,171.047,173.648,178.265,182.45,185.546,188.219,193.592,198.2732,201.395,206.543,211.826,216.911,220.511,225.659,230.942,235.955,238.475,241.031,246.305,250.652,254.387,258.6698,261.785" svgx:width="0.27,0.55,0.53,0.44,0.82,0.82,0.44,0.31,0.51,0.37,0.46,0.55,0.37,0.43,0.37,0.52,0.51,0.55,0.37,0.43,0.55,0.51,0.46,0.55,0.44,0.42,0.31,0.27,0.46,0.44,0.31,0.27,0.55,0.47,0.55,0.52,0.53,0.51,0.37,0.52,0.53,0.51,0.25,0.27,0.52,0.44,0.37,0.43,0.55,0.69" style="fill:rgb(23,22,21);font-family:MinionPro-Regular2;font-size:9.96px;stroke:none;">inflammator yrespons eb yactivatin gphospholipas eA</text>
   <text y="685.376" x="268.668" svgx:width="0.49" style="fill:rgb(23,22,21);font-family:MinionMath-Capt;font-size:6.97px;stroke:none;">2</text>
   <text y="682.982" x="275.724,280.008,285.426" svgx:width="0.44,0.55,0.53" style="fill:rgb(23,22,21);font-family:MinionPro-Regular2;font-size:9.96px;stroke:none;">and</text>
   <text y="694.349" x="50.579,53.248,58.697,61.253,64.349,67.018,71.204,74.3,76.969,82.342,87.0232,88.561,92.845,96.54,100.912,105.062,110.381,113.05,118.309,123.277,128.726,131.395,135.5782,137.164,141.537,145.75,148.419,155.232,163.36,167.593,170.698,174.991,180.139,185.152,187.672,190.228,193.207,197.44,201.1252,202.651,205.32,210.55,215.086,220.099,222.547,227.083,231.367,238.18,240.849,247.86,252.144,257.403,261.636,269.794,274.1764,275.725,280.009,285.458" svgx:width="0.27,0.55,0.27,0.31,0.27,0.44,0.31,0.27,0.55,0.47,0.55,0.44,0.37,0.44,0.42,0.53,0.27,0.53,0.51,0.55,0.27,0.42,0.55,0.44,0.42,0.27,0.53,0.82,0.43,0.31,0.44,0.51,0.51,0.25,0.27,0.31,0.43,0.37,0.55,0.27,0.55,0.46,0.51,0.25,0.46,0.43,0.53,0.27,0.55,0.43,0.53,0.43,0.82,0.44,0.55,0.44,0.55,0.53" style="fill:rgb(23,22,21);font-family:MinionPro-Regular2;font-size:9.96px;stroke:none;">initiating arachidonic acidmetabolites involvedinedema and</text>
   <text y="705.717" x="50.579,53.102,57.338,62.684,67.535,72.709,77.083,81.658,84.636,88.91879999999999,90.81,98.972,101.644,106.36,110.058,114.243,117.34,120.012,124.98,130.458,132.342,135.014,138.69920000000002,140.612,144.988,148.588,152.323,157.498,161.714,164.386,168.571,171.55,175.786,181.0648,182.995,189.821,192.378,195.483,200.7618,202.737,207.165,209.568,212.547,216.777,220.475,224.661,227.757,230.429,235.397,240.77,244.45520000000002,246.35,249.022,254.5,256.411,260.785,265.36,268.339,273.352,278.329,281.001,286.453" svgx:width="0.25,0.43,0.53,0.5,0.51,0.42,0.46,0.31,0.43,0.55,0.82,0.27,0.47,0.37,0.44,0.31,0.27,0.51,0.55,0.55,0.27,0.37,0.55,0.44,0.37,0.37,0.51,0.42,0.27,0.44,0.31,0.43,0.53,0.55,0.69,0.27,0.31,0.53,0.55,0.44,0.25,0.31,0.43,0.37,0.44,0.31,0.27,0.51,0.55,0.37,0.55,0.27,0.55,0.55,0.42,0.46,0.31,0.51,0.5,0.27,0.55,0.43" style="fill:rgb(23,22,21);font-family:MinionPro-Regular2;font-size:9.96px;stroke:none;">leukocyte migration is associated with alterations in cytokine</text>
   <text y="717.084" x="50.579,55.693,59.283,64.457,69.596,74.888,79.172,82.268,84.941,89.916,95.39399999999999,98.061,102.328,107.746,113.0248,115.72,118.393,123.81,128.022,131.612,135.905,140.252,143.987,148.27,153.5488,156.245,161.358,164.948,170.122,175.261,180.553,184.837,187.934,190.607,195.581,201.059,203.717,208.692,211.68,214.361,219.475,223.065,228.15,231.75,234.855,239.175,243.909,246.457,250.724,256.141,261.398,264.071,269.414,273.0992,275.777,280.044,285.461" svgx:width="0.52,0.37,0.51,0.53,0.53,0.42,0.31,0.27,0.51,0.55,0.55,0.44,0.55,0.53,0.55,0.27,0.55,0.42,0.37,0.43,0.44,0.37,0.43,0.53,0.55,0.52,0.37,0.51,0.53,0.53,0.42,0.31,0.27,0.51,0.55,0.55,0.51,0.3,0.55,0.52,0.37,0.51,0.37,0.31,0.44,0.47,0.25,0.44,0.55,0.53,0.27,0.55,0.37,0.55,0.44,0.55,0.53" style="fill:rgb(23,22,21);font-family:MinionPro-Regular2;font-size:9.96px;stroke:none;">production and increased production of prostaglandins and</text>
   <text y="728.451" x="50.579,53.098,57.33,62.676,67.527,72.504,75.6,79.362,82.03,86.262,91.71,95.942,99.62719999999999,103.519,106.955,111.401,115.922,119.357,121.6478,125.576,130.165,133.108,138.397,143.655,146.323,150.555,154.24020000000002,158.142,163.401,167.633,175.79,180.758,186.131,189.732,192.828,196.522,200.708,203.686,207.97,213.2488,217.16,221.444,226.709,229.805,232.473,236.018,238.686,244.134,249.442,253.726,261.883,270.04,274.226,277.204,282.173,286.16" svgx:width="0.25,0.43,0.53,0.5,0.51,0.31,0.37,0.27,0.43,0.55,0.43,0.37,0.55,0.34,0.45,0.45,0.34,0.23,0.55,0.47,0.31,0.53,0.53,0.27,0.43,0.37,0.55,0.53,0.43,0.82,0.51,0.55,0.37,0.31,0.37,0.44,0.31,0.43,0.53,0.55,0.44,0.55,0.31,0.27,0.36,0.27,0.55,0.53,0.44,0.82,0.82,0.44,0.31,0.51,0.37,0.46" style="fill:rgb(23,22,21);font-family:MinionPro-Regular2;font-size:9.96px;stroke:none;">leukotrienes [35]. Studies demonstrated anti-inflammatory</text>
   <text y="739.819" x="50.579,54.953,59.237,62.333,64.934,69.578,72.134,75.204,79.78559999999999,84.996,89.978,92.966,98.16,101.526,103.794,108.529,112.074,116.287,118.96,124.377,128.661,133.643,136.163,140.44580000000002,145.622,149.069,153.416,157.1012,162.308,170.444,174.63,177.231,182.199,185.88420000000002,191.119,195.331,200.313,205.664,209.265,212.361,214.932,217.872,223.164,227.394,232.66,235.7476,240.913,245.895,248.883,254.067,259.431,265.092,272.535,276.021,281.211,286.107" svgx:width="0.44,0.42,0.31,0.27,0.46,0.27,0.31,0.46,0.55,0.51,0.3,0.55,0.34,0.23,0.47,0.36,0.42,0.27,0.55,0.43,0.51,0.25,0.43,0.55,0.35,0.44,0.37,0.55,0.82,0.44,0.26,0.51,0.37,0.55,0.42,0.51,0.55,0.37,0.31,0.27,0.31,0.53,0.43,0.55,0.31,0.55,0.51,0.3,0.55,0.54,0.57,0.75,0.35,0.55,0.51,0.46" style="fill:rgb(23,22,21);font-family:MinionPro-Regular2;font-size:9.96px;stroke:none;">activity of 1,8-cineole (as major constituent of LEO) by</text>
   <text y="557.951" x="308.611,311.284,316.792,322.111,324.748,329.694,332.25,335.346,338.019,342.986,348.464,352.129,357.096,360.084,363.773,368.147,372.719,375.698,380.711,385.688,388.361,393.779,398.0618,401.735,406.841,410.422,415.597,420.736,426.028,430.312,433.408,436.081,441.047,446.52500000000003,450.2,453.647,457.248,462.54,466.689,471.9678,475.743,480.09,483.7752,487.479,490.422,495.714,503.842,508.808,512.4932,516.215,521.633,525.917,530.129,533.701,538.786,542.441,545.087" svgx:width="0.27,0.55,0.53,0.27,0.51,0.27,0.31,0.27,0.51,0.55,0.55,0.51,0.3,0.55,0.42,0.46,0.31,0.51,0.5,0.27,0.55,0.43,0.55,0.52,0.37,0.51,0.53,0.53,0.42,0.31,0.27,0.51,0.55,0.55,0.35,0.37,0.53,0.42,0.53,0.55,0.44,0.37,0.55,0.31,0.53,0.82,0.51,0.37,0.55,0.55,0.43,0.42,0.37,0.51,0.37,0.27,0.37" style="fill:rgb(23,22,21);font-family:MinionPro-Regular2;font-size:9.96px;stroke:none;">inhibition of cytokine production (such as tumor necrosis</text>
   <text y="569.319" x="308.611,311.557,315.929,320.213,323.192,328.16,331.84520000000003,334.155,337.6,343.745,351.145,356.413,359.899,362.155,366.439,371.857,377.1358,379.417,382.085,387.35,390.329,394.561,398.255,400.773,405.006,410.352,415.329,417.997,423.444,427.0296,429.276,432.722,436.117,441.391,444.936,448.42199999999997,450.687" svgx:width="0.3,0.44,0.42,0.31,0.51,0.37,0.55,0.35,0.62,0.74,0.53,0.35,0.55,0.44,0.55,0.53,0.55,0.27,0.55,0.31,0.43,0.37,0.25,0.43,0.53,0.5,0.27,0.55,0.36,0.55,0.35,0.34,0.54,0.36,0.35,0.55,0.34" style="fill:rgb(23,22,21);font-family:MinionPro-Regular2;font-size:9.96px;stroke:none;">factor (TNF) and interleukin- (IL-) 1</text>
   <text y="569.319" x="454.055" svgx:width="0.58" style="fill:rgb(23,22,21);font-family:MinionMath-Regular;font-size:9.96px;stroke:none;">ğ›½</text>
   <text y="569.319" x="459.843,463.329,465.594,469.878,475.323,480.60179999999997,482.873,487.157,490.856,495.225,499.374,504.689,507.354,512.61,517.578,523.023,525.688,529.8712,532.194,536.563,540.772,543.437" svgx:width="0.35,0.55,0.44,0.55,0.53,0.55,0.44,0.37,0.44,0.42,0.53,0.27,0.53,0.51,0.55,0.27,0.42,0.55,0.44,0.42,0.27,0.53" style="fill:rgb(23,22,21);font-family:MinionPro-Regular2;font-size:9.96px;stroke:none;">) and arachidonic acid</text>
   <text y="580.686" x="308.611,316.765,320.994,324.099,328.392,333.54,338.553,341.069,343.734,347.385,357.771,361.203,365.802,370.728,374.1144,376.398,380.682,386.1,391.3788,393.588,398.843,403.072,407.281,410.854,415.147,419.515,423.25,427.5328,429.721,434.689,437.677,439.864,446.006,453.403,458.6818,460.909,465.193,470.61,475.8888,478.098,481.491,486.765,490.306" svgx:width="0.82,0.43,0.31,0.44,0.51,0.51,0.25,0.27,0.37,0.82,0.34,0.45,0.5,0.34,0.55,0.44,0.55,0.53,0.55,0.53,0.43,0.42,0.37,0.43,0.44,0.37,0.43,0.55,0.51,0.3,0.55,0.62,0.74,0.53,0.55,0.44,0.55,0.53,0.55,0.34,0.54,0.36,0.34" style="fill:rgb(23,22,21);font-family:MinionPro-Regular2;font-size:9.96px;stroke:none;">metabolism[36] and decrease of TNF and IL-1</text>
   <text y="580.686" x="493.696" svgx:width="0.58" style="fill:rgb(23,22,21);font-family:MinionMath-Regular;font-size:9.96px;stroke:none;">ğ›½</text>
   <text y="580.686" x="501.726,506.829,510.409,515.584,520.722,526.014,530.298,533.395,536.068,541.032,546.485" svgx:width="0.52,0.37,0.51,0.53,0.53,0.42,0.31,0.27,0.51,0.55,0.23" style="fill:rgb(23,22,21);font-family:MinionPro-Regular2;font-size:9.96px;stroke:none;">production,</text>
   <text y="592.053" x="308.611,313.876,319.164,323.313,325.832,330.125,334.409,338.0942,342.815,345.762,350.134,354.418,357.396,362.365,366.0502,370.753,375.693,379.878,384.99,390.264,394.6464,399.327,405.2034,409.893,413.338,420.738,425.814" svgx:width="0.55,0.53,0.42,0.25,0.43,0.44,0.37,0.55,0.3,0.44,0.42,0.31,0.51,0.37,0.55,0.5,0.44,0.52,0.52,0.44,0.55,0.59,0.55,0.35,0.74,0.53,0.36" style="fill:rgb(23,22,21);font-family:MinionPro-Regular2;font-size:9.96px;stroke:none;">nuclear factor kappa B (NF-</text>
   <text y="592.053" x="429.359" svgx:width="0.51" style="fill:rgb(23,22,21);font-family:MinionMath-Regular;font-size:9.96px;stroke:none;">ğœ…</text>
   <text y="592.053" x="434.41,440.269,443.716,446.0068,450.691,454.975,460.373,465.6518,470.326,473.313,478.342,480.917,483.436,486.982,489.502,492.229,497.08,501.3628,506.008,509.581,513.865,518.077,522.307,527.419,530.406,535.374,539.0592,543.763" svgx:width="0.59,0.35,0.23,0.55,0.44,0.55,0.53,0.55,0.31,0.51,0.25,0.25,0.36,0.25,0.27,0.5,0.43,0.55,0.37,0.43,0.42,0.43,0.52,0.31,0.51,0.37,0.55,0.5" style="fill:rgb(23,22,21);font-family:MinionPro-Regular2;font-size:9.96px;stroke:none;">B), and toll-like receptor 4</text>
   <text y="603.421" x="308.611,312.063,318.214,323.579,329.771,334.727,338.21299999999997,340.883,345.122,349.83,354.933,358.505,362.735,366.336,369.99,372.665,377.633,383.088,385.3788,388.074,392.358,397.776,403.0548,405.732,414.606,420.22,427.69000000000005,430.38,434.759,439.043,442.139,444.74,449.358,451.915,454.958,459.5396,462.221,464.896,470.374,473.05,475.453,480.748,486.121,490.80219999999997,493.484,496.58,499.226,502.826,506.427,511.722,516.0047999999999,518.661,521.336,526.814,529.499,534.864,540.478,545.205" svgx:width="0.35,0.62,0.54,0.62,0.5,0.35,0.55,0.43,0.47,0.52,0.37,0.43,0.37,0.37,0.27,0.51,0.55,0.23,0.55,0.44,0.55,0.53,0.55,0.89,0.56,0.75,0.55,0.44,0.42,0.31,0.27,0.46,0.27,0.31,0.46,0.55,0.27,0.55,0.55,0.25,0.53,0.55,0.47,0.55,0.31,0.27,0.37,0.37,0.53,0.43,0.55,0.27,0.55,0.55,0.54,0.56,0.47,0.36" style="fill:rgb(23,22,21);font-family:MinionPro-Regular2;font-size:9.96px;stroke:none;">(TLR4) expression, and MPO activity in lung tissue in LPS-</text>
   <text y="614.788" x="308.611,311.28,316.728,321.867,327.156,331.369,335.602,340.88079999999997,346.06,350.433,354.716,359.891,362.87,367.1528,372.31,377.422,382.768,385.288,393.446,398.414,403.841,408.125,412.112,416.6936,421.859,424.528,429.977,435.286,439.57,447.728,455.887,460.072,463.168,465.837,470.806,476.284,481.426,484.095,489.57300000000004,494.751,502.909,505.578,509.792,514.0748,519.223,522.659,527.07,531.691,535.127,537.4177999999999,542.624,545.63" svgx:width="0.27,0.55,0.53,0.53,0.42,0.43,0.53,0.55,0.44,0.42,0.53,0.31,0.43,0.55,0.52,0.53,0.25,0.82,0.51,0.55,0.44,0.37,0.46,0.55,0.27,0.55,0.53,0.44,0.82,0.82,0.44,0.31,0.27,0.51,0.55,0.55,0.27,0.55,0.55,0.82,0.27,0.42,0.43,0.55,0.34,0.45,0.46,0.34,0.23,0.55,0.34,0.31" style="fill:rgb(23,22,21);font-family:MinionPro-Regular2;font-size:9.96px;stroke:none;">induced acute pulmonary inflammatio ni nmic e[37] .It</text>
   <text y="626.155" x="308.611,313.91,318.262,321.9472,324.778,329.206,331.706,335.441,340.5206,343.37,348.518,352.802,357.032,362.51,365.348,370.587,374.8,382.939,387.907,393.28,396.915,400.011,403.687,407.872,410.89,415.174,420.45279999999997,423.273,426.378,431.678,435.863,438.9506,441.749,445.403,449.955,453.59,456.608,460.821,468.96,471.609,475.7922,478.692,483.066,488.305,496.443,499.092,504.521,507.17,510.805,513.902,517.601,521.786,524.883,527.532,532.5,537.978,540.771,545.739" svgx:width="0.53,0.44,0.37,0.55,0.44,0.25,0.37,0.51,0.55,0.51,0.43,0.43,0.55,0.55,0.53,0.43,0.82,0.51,0.55,0.37,0.31,0.37,0.44,0.31,0.43,0.53,0.55,0.31,0.53,0.44,0.31,0.55,0.37,0.46,0.37,0.31,0.43,0.82,0.27,0.42,0.55,0.44,0.53,0.82,0.27,0.55,0.27,0.37,0.31,0.37,0.44,0.31,0.27,0.51,0.55,0.55,0.51,0.3" style="fill:rgb(23,22,21);font-family:MinionPro-Regular2;font-size:9.96px;stroke:none;">has also been demonstrated that systemic administration of</text>
   <text y="637.523" x="308.611,312.85,317.134,325.108,330.255,335.538,340.507,344.1922,346.379,349.826,354.794,360.212,364.4948,366.622,371.59,374.578,376.715,379.82,385.103,389.3858,391.52,399.657,403.842,406.443,411.411,415.0962,417.283,421.496,426.464,431.837,435.437,438.534,441.09,444.033,449.325,453.555,458.82,461.862,465.54720000000003,467.694,472.662,475.65,477.787,483.151,488.812,496.255,499.741,501.878,505.45,509.734,514.873,520.165,524.377,528.661,533.9398,536.104,539.21,544.493" svgx:width="0.42,0.44,0.82,0.52,0.53,0.51,0.37,0.55,0.35,0.51,0.55,0.43,0.55,0.51,0.3,0.55,0.31,0.53,0.43,0.55,0.82,0.44,0.26,0.51,0.37,0.55,0.42,0.51,0.55,0.37,0.31,0.27,0.31,0.53,0.43,0.55,0.31,0.37,0.55,0.51,0.3,0.55,0.54,0.57,0.75,0.35,0.55,0.37,0.43,0.53,0.53,0.42,0.43,0.53,0.55,0.31,0.53,0.43" style="fill:rgb(23,22,21);font-family:MinionPro-Regular2;font-size:9.96px;stroke:none;">camphor (one of the major constituents of LEO) reduced the</text>
   <text y="648.89" x="308.611,312.894,318.151,322.381,330.517,334.8994,336.791,339.653,344.627,348.389,356.526,360.711,363.807,366.48,371.455,376.933,378.753,383.02,388.438,393.7168,395.584,404.458,410.065,419.407,423.78,428.064,431.16,433.762,438.406,440.963,444.032,448.61359999999996,450.476,453.149,458.627,460.493,464.706,468.278,473.252,476.231,481.206,486.684,488.532,493.506,496.233,498.754,502.299,504.972,510.39,515.544,520.836,525.048,529.332,534.6108,536.46,540.753,545.02" svgx:width="0.43,0.53,0.43,0.82,0.44,0.55,0.3,0.51,0.37,0.82,0.44,0.31,0.27,0.51,0.55,0.55,0.44,0.55,0.53,0.55,0.89,0.56,0.75,0.44,0.42,0.31,0.27,0.46,0.27,0.31,0.46,0.55,0.27,0.55,0.55,0.42,0.37,0.51,0.31,0.51,0.55,0.55,0.51,0.27,0.25,0.36,0.27,0.55,0.53,0.53,0.42,0.43,0.53,0.55,0.43,0.44,0.37" style="fill:rgb(23,22,21);font-family:MinionPro-Regular2;font-size:9.96px;stroke:none;">edema formation and MPOactivity in croton oil-induced ear</text>
   <text y="660.257" x="308.611,312.894,318.146,322.371,330.521,334.90340000000003,336.875,345.003,350.177,355.429,359.654,362.144,364.145,367.573,370.931,375.555,378.983,381.2738,383.231,393.716,398.997,402.644,404.9348,406.893,409.998,415.309,419.59180000000003,421.51,425.794,431.059,434.155,436.828,440.366,443.027,448.467,453.769,458.052,466.216,474.366,478.552,481.53,486.499,490.486,495.06759999999997,496.992,501.217,506.717,511.001,515.285,518.3725999999999,520.307,525.275,528.263,530.199,535.562,541.212" svgx:width="0.43,0.53,0.43,0.82,0.44,0.55,0.82,0.51,0.53,0.43,0.25,0.55,0.34,0.34,0.47,0.34,0.23,0.55,1.07,0.53,0.37,0.23,0.55,0.31,0.53,0.43,0.55,0.44,0.55,0.31,0.27,0.36,0.27,0.55,0.53,0.44,0.82,0.82,0.44,0.31,0.51,0.37,0.46,0.55,0.43,0.56,0.43,0.42,0.31,0.55,0.51,0.3,0.55,0.54,0.57,0.75" style="fill:rgb(23,22,21);font-family:MinionPro-Regular2;font-size:9.96px;stroke:none;">edema model [12]. Thus ,th eanti-inflammato ryeff ec tofLEO</text>
   <text y="671.625" x="308.611,316.761,320.955,325.53659999999996,327.543,332.691,336.9738,338.947,343.132,346.075,349.171,352.933,355.57,360.521,365.695,368.801,373.094,378.08,380.6,384.88280000000003,386.828,389.807,394.88660000000004,396.908,401.29040000000003,403.298,406.945,409.606,414.979,419.714,422.225,426.50780000000003,428.472,433.44,437.1252,439.146,442.793,447.357,452.797,457.022,460.641,465.357,468.018,471.619,474.715,477.388,481.5712,483.607,487.832,493.331,497.615,501.899,504.9866,506.966,511.934,514.922,516.894,519.45,522.492,526.1772,528.161,536.298,540.582,543.255" svgx:width="0.82,0.44,0.46,0.55,0.51,0.43,0.55,0.44,0.31,0.31,0.37,0.27,0.51,0.53,0.31,0.44,0.51,0.25,0.43,0.55,0.31,0.51,0.55,0.44,0.55,0.37,0.27,0.55,0.47,0.25,0.43,0.55,0.51,0.37,0.55,0.37,0.46,0.55,0.43,0.37,0.47,0.27,0.37,0.31,0.27,0.42,0.55,0.43,0.56,0.43,0.42,0.31,0.55,0.51,0.3,0.55,0.27,0.31,0.37,0.55,0.82,0.44,0.27,0.55" style="fill:rgb(23,22,21);font-family:MinionPro-Regular2;font-size:9.96px;stroke:none;">may be attributable to a single or synergistic effec to fit smain</text>
   <text y="682.992" x="308.611,312.823,317.791,325.765,331.075,336.044,341.461,345.693,350.959,353.995,357.649" svgx:width="0.42,0.51,0.82,0.52,0.51,0.55,0.43,0.55,0.31,0.37,0.23" style="fill:rgb(23,22,21);font-family:MinionPro-Regular2;font-size:9.96px;stroke:none;">components.</text>
   <text y="694.359" x="323.554,332.438,338.054,347.756,350.402,354.0872,356.314,360.598,366.076,368.302,370.979,376.436,381.703,384.38,387.953,392.194,396.478,399.5656,401.761,409.897,414.181,417.844,422.695,426.925,430.6102,432.874,437.842,440.83,443.045,448.462,452.704,457.879,460.975,464.548,469.525,474.673,480.0,482.727,485.217,487.47,490.147,495.603,500.94,503.343,506.44,510.143,514.328,517.424,520.101,525.07,530.548,532.738,535.415,540.68,543.659" svgx:width="0.89,0.56,0.75,0.27,0.37,0.55,0.44,0.55,0.55,0.27,0.55,0.53,0.27,0.37,0.43,0.42,0.31,0.55,0.82,0.44,0.37,0.5,0.43,0.37,0.55,0.51,0.3,0.55,0.55,0.43,0.53,0.31,0.37,0.51,0.52,0.53,0.27,0.25,0.55,0.27,0.55,0.54,0.25,0.31,0.37,0.44,0.31,0.27,0.51,0.55,0.55,0.27,0.55,0.31,0.51" style="fill:rgb(23,22,21);font-family:MinionPro-Regular2;font-size:9.96px;stroke:none;">MPOis an indirect marker of neutrophil infiltratio ninto</text>
   <text y="705.727" x="308.611,311.707,314.353,317.953,321.554,326.849,331.016,333.3068,337.766,345.155,349.439,353.658,357.231,361.524,365.871,369.606,373.836,377.5212,381.944,384.619,390.09700000000004,394.528,403.402,409.016,416.48600000000005,420.923,425.301,429.585,432.682,435.283,439.901,442.457,445.501,450.08259999999996,454.519,458.119,463.414,468.14,472.72,476.96,480.56,483.6476,488.066,490.586,494.826,498.426,502.1112,506.562,511.98,516.219,521.395,524.491,528.064,533.041,538.189,543.514,546.241" svgx:width="0.31,0.27,0.37,0.37,0.53,0.43,0.23,0.55,0.74,0.43,0.42,0.37,0.43,0.44,0.37,0.43,0.37,0.55,0.27,0.55,0.55,0.89,0.56,0.75,0.55,0.44,0.42,0.31,0.27,0.46,0.27,0.31,0.46,0.55,0.37,0.53,0.47,0.47,0.43,0.37,0.31,0.55,0.25,0.43,0.37,0.37,0.55,0.55,0.43,0.53,0.31,0.37,0.51,0.52,0.53,0.27,0.25" style="fill:rgb(23,22,21);font-family:MinionPro-Regular2;font-size:9.96px;stroke:none;">tissue. Decreases in MPO activity suggest less neutrophil</text>
   <text y="717.094" x="308.611,311.281,316.732,322.063,324.466,327.562,331.259,335.445,338.541,341.212,346.18,351.658,355.361,358.799,363.407,368.14,371.578,373.86879999999996,377.626,382.216,385.159,390.45,395.711,398.382,402.618,406.3032,410.043,416.892,419.448,422.554,427.83279999999996,431.635,435.865,439.465,443.2,447.435,452.7,455.797,458.497,462.925,465.415,469.216,474.185,476.911,479.433,483.09,485.38079999999997,489.112,497.239,502.208,507.625,512.602,515.581,519.816,523.614,528.924,533.154,538.605,542.84,546.497" svgx:width="0.27,0.55,0.54,0.25,0.31,0.37,0.44,0.31,0.27,0.51,0.55,0.55,0.34,0.45,0.47,0.34,0.23,0.55,0.47,0.31,0.53,0.53,0.27,0.43,0.37,0.55,0.69,0.27,0.31,0.53,0.55,0.43,0.37,0.37,0.43,0.55,0.31,0.27,0.44,0.25,0.55,0.51,0.27,0.25,0.37,0.23,0.55,0.82,0.51,0.55,0.51,0.31,0.43,0.37,0.52,0.43,0.55,0.43,0.37,0.23" style="fill:rgb(23,22,21);font-family:MinionPro-Regular2;font-size:9.96px;stroke:none;">infiltratio n[38] .Studie swit hessentia loils ,monoterpenes,</text>
   <text y="728.461" x="308.611,312.894,318.312,323.5908,327.717,331.452,335.68,339.415,344.41,349.702,352.259,355.237,359.466,363.263,368.573,372.802,378.245,382.473,386.1582,390.267,395.559,399.753,404.289,408.5718,412.668,417.922,422.15,430.304,435.272,440.645,444.245,447.342,451.032,455.217,458.196,462.48,467.7588,471.876,475.448,479.732,484.871,490.155,494.439,497.535,500.208,505.177,510.65500000000003,514.753,519.721,522.7090000000001,526.813,535.684,541.287" svgx:width="0.44,0.55,0.53,0.55,0.37,0.43,0.37,0.51,0.53,0.27,0.31,0.43,0.37,0.52,0.43,0.55,0.43,0.37,0.55,0.53,0.44,0.46,0.43,0.55,0.53,0.43,0.82,0.51,0.55,0.37,0.31,0.37,0.44,0.31,0.43,0.53,0.55,0.37,0.43,0.53,0.53,0.42,0.31,0.27,0.51,0.55,0.55,0.51,0.3,0.55,0.89,0.56,0.75" style="fill:rgb(23,22,21);font-family:MinionPro-Regular2;font-size:9.96px;stroke:none;">and sesquiterpenes have demonstrated reduction of MPO</text>
   <text y="739.828" x="308.611,312.994,317.278,320.374,322.976,327.598,330.155,333.203,337.78459999999995,342.248,345.695,349.073,353.715,356.00579999999997,360.474,364.893,369.765,372.0558,376.524,381.582,386.503,389.95,392.2408,396.718,399.949,405.427,409.893,414.871,420.171,423.8562,428.343,431.943,434.886,440.187,445.371,449.215,451.50579999999997,455.991,459.097,464.38,468.6628,473.092,476.071,481.048,486.151,488.831,493.055,497.483,499.973,504.476,508.661,513.773,518.921,521.442,524.121,528.346,532.531,535.627,538.307,543.276" svgx:width="0.44,0.42,0.31,0.27,0.46,0.27,0.31,0.46,0.55,0.34,0.34,0.47,0.23,0.55,0.45,0.49,0.23,0.55,0.5,0.49,0.34,0.23,0.55,0.34,0.55,0.55,0.51,0.53,0.37,0.55,0.37,0.31,0.53,0.53,0.46,0.23,0.55,0.31,0.53,0.43,0.55,0.31,0.51,0.52,0.27,0.42,0.44,0.25,0.55,0.44,0.52,0.52,0.25,0.27,0.42,0.44,0.31,0.27,0.51,0.55" style="fill:rgb(23,22,21);font-family:MinionPro-Regular2;font-size:9.96px;stroke:none;">activity [12, 39, 40]. In our study, the topical application</text>
  </g>
 </g>
</svg>
