<?xml version="1.0" encoding="UTF-8"?>
<svg height="516.73" width="775.355" xmlns="http://www.w3.org/2000/svg">
 <g id="page" xmlns:svgx="http://www.xml-cml.org/schema/svgx">
  <g begin="text">
   <text y="62.979" x="76.535,79.189,83.62,86.274,88.26650000000001,90.738,93.392,95.3845,97.377,102.247,106.678,110.663,112.879,115.836,119.374,123.806,125.7985,128.269,133.585,136.685,139.786,141.7785,144.249,149.119,153.55,157.24,159.456,161.672,164.9397,166.908,173.109,176.209,179.748,181.964,184.618" svgx:width="0.33,0.56,0.33,0.25,0.55,0.33,0.25,0.55,0.61,0.56,0.5,0.28,0.39,0.44,0.56,0.25,0.55,0.67,0.39,0.39,0.25,0.55,0.61,0.56,0.46,0.28,0.28,0.41,0.55,0.78,0.39,0.44,0.28,0.33,0.5" style="fill:rgb(0,0,0);font-family:URWPalladioL-Ital;font-size:7.97px;stroke:none;">Int. J. Environ. Res. Public Health</text>
   <text y="62.979" x="190.594,194.579,198.564,202.549" svgx:width="0.5,0.5,0.5,0.5" style="fill:rgb(0,0,0);font-family:URWPalladioL-Bold;font-size:7.97px;stroke:none;">2017</text>
   <text y="62.979" x="206.534" svgx:width="0.25" style="fill:rgb(0,0,0);font-family:URWPalladioL-Roma;font-size:7.97px;stroke:none;">,</text>
   <text y="62.979" x="210.52,214.505" svgx:width="0.5,0.5" style="fill:rgb(0,0,0);font-family:URWPalladioL-Ital;font-size:7.97px;stroke:none;">14</text>
   <text y="62.979" x="218.49,220.48250000000002,222.475,226.46,230.445,234.43,742.409,746.394,748.387,752.738,755.3681,757.385,761.37" svgx:width="0.25,0.55,0.5,0.5,0.5,0.55,0.5,0.55,0.55,0.33,0.55,0.5,0.5" style="fill:rgb(0,0,0);font-family:URWPalladioL-Roma;font-size:7.97px;stroke:none;">, 737 6 of 16</text>
   <text y="96.861" x="97.499,102.484,106.968,112.446,115.432,119.917,122.246,126.729" svgx:width="0.67,0.5,0.61,0.33,0.5,0.55,0.5,0.25" style="fill:rgb(0,0,0);font-family:URWPalladioL-Bold;font-size:8.97px;stroke:none;">Table 1.</text>
   <text y="96.861" x="132.002,138.486,143.809,148.19,156.266,158.927,162.988,167.561,170.16230000000002,172.545,176.606,181.599,189.675,195.172,200.165,204.043,206.704,209.686,212.347,217.341,222.5436,224.996,229.989,232.94910000000002,235.358,238.339,243.662,247.9676,250.366,254.747,258.625,262.502,266.883,272.206,275.187,277.849,282.422,285.0233,287.415,292.409,295.07,297.732,301.49940000000004,303.932,306.978,310.435,315.429" svgx:width="0.71,0.58,0.48,0.88,0.29,0.44,0.5,0.29,0.55,0.44,0.55,0.88,0.6,0.55,0.42,0.29,0.33,0.29,0.55,0.58,0.55,0.55,0.33,0.55,0.33,0.58,0.48,0.55,0.48,0.42,0.42,0.48,0.58,0.33,0.29,0.5,0.29,0.55,0.55,0.29,0.29,0.42,0.55,0.33,0.4,0.55,0.88" style="fill:rgb(0,0,0);font-family:URWPalladioL-Roma;font-size:8.97px;stroke:none;">Chemical composition of the essential oils from</text>
   <text y="96.861" x="325.827,332.43,336.491,340.552,345.124,347.667,351.225,355.285,359.008,363.581,366.626,370.5728,373.01,375.552,380.637,385.21,387.753,391.475" svgx:width="0.72,0.44,0.44,0.5,0.28,0.39,0.44,0.41,0.5,0.33,0.44,0.55,0.28,0.56,0.5,0.28,0.41,0.44" style="fill:rgb(0,0,0);font-family:URWPalladioL-Ital;font-size:8.97px;stroke:none;">Azadirachta indica</text>
   <text y="96.861" x="395.538" svgx:width="0.25" style="fill:rgb(0,0,0);font-family:URWPalladioL-Roma;font-size:8.97px;stroke:none;">,</text>
   <text y="96.861" x="400.172,406.775,409.318,412.875,416.936,424.051,428.112,435.228,440.313,447.3096,449.751,456.866,460.424,462.967,466.524,471.097,476.182,479.74,482.785" svgx:width="0.72,0.28,0.39,0.44,0.78,0.44,0.78,0.56,0.78,0.55,0.78,0.39,0.28,0.39,0.5,0.56,0.39,0.33,0.44" style="fill:rgb(0,0,0);font-family:URWPalladioL-Ital;font-size:8.97px;stroke:none;">Aframomum melegueta</text>
   <text y="96.861" x="486.849" svgx:width="0.25" style="fill:rgb(0,0,0);font-family:URWPalladioL-Roma;font-size:8.97px;stroke:none;">,</text>
   <text y="96.861" x="491.483,498.086,500.629,504.186,508.247,515.362,519.423,526.539,531.624,538.6206,541.062,545.635,549.696,554.781,557.323,560.881,563.423,565.966" svgx:width="0.72,0.28,0.39,0.44,0.78,0.44,0.78,0.56,0.78,0.55,0.5,0.44,0.56,0.28,0.39,0.28,0.28,0.28" style="fill:rgb(0,0,0);font-family:URWPalladioL-Ital;font-size:8.97px;stroke:none;">Aframomum danielli</text>
   <text y="96.861" x="568.511,571.172" svgx:width="0.29,0.25" style="fill:rgb(0,0,0);font-family:URWPalladioL-Roma;font-size:8.97px;stroke:none;">i,</text>
   <text y="96.861" x="575.807,581.907,584.45,588.51,593.596,597.153,600.711,605.796,609.7428000000001,612.18,616.24,621.325,623.868,627.426,631.486,634.532" svgx:width="0.67,0.28,0.44,0.56,0.39,0.39,0.56,0.44,0.55,0.44,0.56,0.28,0.39,0.44,0.33,0.44" style="fill:rgb(0,0,0);font-family:URWPalladioL-Ital;font-size:8.97px;stroke:none;">Clausena anisata</text>
   <text y="96.861" x="638.595" svgx:width="0.25" style="fill:rgb(0,0,0);font-family:URWPalladioL-Roma;font-size:8.97px;stroke:none;">,</text>
   <text y="96.861" x="643.229,650.344,652.887,656.609,661.182,664.575,668.636,672.194,675.239,679.3,683.022,687.595,692.168,695.6663,698.058,701.78,704.323,709.408,712.965,716.358,719.916" svgx:width="0.78,0.28,0.41,0.5,0.39,0.44,0.39,0.33,0.44,0.41,0.5,0.5,0.39,0.55,0.41,0.28,0.56,0.39,0.39,0.39,0.44" style="fill:rgb(0,0,0);font-family:URWPalladioL-Ital;font-size:8.97px;stroke:none;">Dichrostachys cinerea</text>
   <text y="96.861" x="723.977,726.2194999999999,728.614,733.187,738.51" svgx:width="0.25,0.55,0.5,0.58,0.61" style="fill:rgb(0,0,0);font-family:URWPalladioL-Roma;font-size:8.97px;stroke:none;">, and</text>
   <text y="109.683" x="97.517,102.995,106.645,111.128,113.621,118.606,122.587,127.07,130.5683,132.8,137.283,139.776,144.259,148.24,153.225,156.211,159.699,164.684" svgx:width="0.61,0.41,0.5,0.28,0.56,0.44,0.5,0.39,0.55,0.5,0.28,0.5,0.44,0.56,0.33,0.39,0.56,0.39" style="fill:rgb(0,0,0);font-family:URWPalladioL-Ital;font-size:8.97px;stroke:none;">Echinops giganteus</text>
   <text y="109.683" x="168.171" svgx:width="0.25" style="fill:rgb(0,0,0);font-family:URWPalladioL-Roma;font-size:8.97px;stroke:none;">.</text>
  </g>
  <path style="fill:none;stroke:rgb(0,0,0);stroke-width:1.0;" d="M83.910 123.860 L757.990 123.860 "/>
  <g begin="text">
   <text y="147.929" x="100.225,107.171,111.807" svgx:width="0.83,0.56,0.25" style="fill:rgb(0,0,0);font-family:URWPalladioL-Bold;font-size:8.34px;stroke:none;">No.</text>
   <text y="147.201" x="165.986,172.007,176.643,184.056,189.151,193.787,198.882,203.052,208.147" svgx:width="0.72,0.56,0.89,0.61,0.56,0.61,0.5,0.61,0.33" style="fill:rgb(0,0,0);font-family:URWPalladioL-Bold;font-size:8.34px;stroke:none;">Component</text>
   <text y="144.174" x="213.008" svgx:width="0.5" style="fill:rgb(0,0,0);font-family:URWPalladioL-Bold;font-size:6.49px;stroke:none;">a</text>
   <text y="148.989" x="265.668,271.689,274.9416,277.017,280.719,284.889,287.666,291.368" svgx:width="0.72,0.39,0.55,0.44,0.5,0.33,0.44,0.25" style="fill:rgb(0,0,0);font-family:URWPalladioL-Bold;font-size:8.34px;stroke:none;">RI calc.</text>
   <text y="145.963" x="296.038" svgx:width="0.61" style="fill:rgb(0,0,0);font-family:URWPalladioL-Bold;font-size:6.49px;stroke:none;">b</text>
   <text y="148.221" x="324.108,330.129,333.3816,335.457,338.234,341.011,343.788" svgx:width="0.72,0.39,0.55,0.33,0.33,0.33,0.25" style="fill:rgb(0,0,0);font-family:URWPalladioL-Bold;font-size:8.34px;stroke:none;">RI lit.</text>
   <text y="145.193" x="348.458" svgx:width="0.44" style="fill:rgb(0,0,0);font-family:URWPalladioL-Bold;font-size:6.49px;stroke:none;">c</text>
   <text y="134.537" x="531.472" svgx:width="0.89" style="fill:rgb(0,0,0);font-family:URWPalladioL-Bold;font-size:8.34px;stroke:none;">%</text>
   <text y="131.51" x="540.97" svgx:width="0.61" style="fill:rgb(0,0,0);font-family:URWPalladioL-Bold;font-size:6.49px;stroke:none;">d</text>
   <text y="148.989" x="727.936,731.18" svgx:width="0.39,0.83" style="fill:rgb(0,0,0);font-family:URWPalladioL-Bold;font-size:8.34px;stroke:none;">ID</text>
   <text y="145.963" x="740.21" svgx:width="0.39" style="fill:rgb(0,0,0);font-family:URWPalladioL-Bold;font-size:6.49px;stroke:none;">f</text>
  </g>
  <path style="fill:none;stroke:rgb(0,0,0);stroke-width:0.74;" d="M363.720 139.330 L713.140 139.330 "/>
  <g begin="text">
   <text y="149.194" x="369.674,375.694,379.864,384.5,389.136,391.913,395.157,399.793,403.496,408.132,411.376" svgx:width="0.72,0.5,0.56,0.56,0.33,0.39,0.56,0.44,0.56,0.39,0.56" style="fill:rgb(0,0,0);font-family:URWPalladioL-BoldItal;font-size:8.34px;stroke:none;">Azadirachta</text>
   <text y="159.386" x="381.261,384.037,388.674,393.31,396.087,399.789" svgx:width="0.33,0.56,0.56,0.33,0.44,0.56" style="fill:rgb(0,0,0);font-family:URWPalladioL-BoldItal;font-size:8.34px;stroke:none;">indica</text>
   <text y="149.194" x="427.685,433.706,436.483,439.726,444.363,451.309,455.945,462.891,467.528" svgx:width="0.72,0.33,0.39,0.56,0.83,0.56,0.83,0.56,0.83" style="fill:rgb(0,0,0);font-family:URWPalladioL-BoldItal;font-size:8.34px;stroke:none;">Aframomum</text>
   <text y="159.386" x="432.321,439.267,442.97,445.747,449.449,453.618,458.255,461.957,465.201" svgx:width="0.83,0.44,0.33,0.44,0.5,0.56,0.44,0.39,0.56" style="fill:rgb(0,0,0);font-family:URWPalladioL-BoldItal;font-size:8.34px;stroke:none;">melegueta</text>
   <text y="149.194" x="485.922,491.942,494.719,497.963,502.599,509.546,514.182,521.128,525.764" svgx:width="0.72,0.33,0.39,0.56,0.83,0.56,0.83,0.56,0.83" style="fill:rgb(0,0,0);font-family:URWPalladioL-BoldItal;font-size:8.34px;stroke:none;">Aframomum</text>
   <text y="159.386" x="490.673,495.31,499.946,504.582,507.359,511.061,513.838,516.615,519.392" svgx:width="0.56,0.56,0.56,0.33,0.44,0.33,0.33,0.33,0.33" style="fill:rgb(0,0,0);font-family:URWPalladioL-BoldItal;font-size:8.34px;stroke:none;">daniellii</text>
   <text y="156.359" x="524.253" svgx:width="0.5" style="fill:rgb(0,0,0);font-family:URWPalladioL-Bold;font-size:6.49px;stroke:none;">e</text>
   <text y="149.194" x="550.333,556.045,558.822,563.458,568.094,571.797,575.499,580.135" svgx:width="0.69,0.33,0.56,0.56,0.44,0.44,0.56,0.56" style="fill:rgb(0,0,0);font-family:URWPalladioL-BoldItal;font-size:8.34px;stroke:none;">Clausena</text>
   <text y="159.386" x="553.418,558.055,562.691,565.468,569.17,573.807,577.05" svgx:width="0.56,0.56,0.33,0.44,0.56,0.39,0.56" style="fill:rgb(0,0,0);font-family:URWPalladioL-BoldItal;font-size:8.34px;stroke:none;">anisata</text>
   <text y="149.194" x="602.229,608.717,611.494,615.196,619.833,622.926,627.563,631.265,634.509,639.145,642.847,647.484,652.12" svgx:width="0.78,0.33,0.44,0.56,0.39,0.56,0.44,0.39,0.56,0.44,0.56,0.56,0.44" style="fill:rgb(0,0,0);font-family:URWPalladioL-BoldItal;font-size:8.34px;stroke:none;">Dichrostachys</text>
   <text y="159.386" x="609.769,613.471,616.248,620.885,624.587,627.681,631.383" svgx:width="0.44,0.33,0.56,0.44,0.39,0.44,0.56" style="fill:rgb(0,0,0);font-family:URWPalladioL-BoldItal;font-size:8.34px;stroke:none;">cinerea</text>
   <text y="156.359" x="638.103" svgx:width="0.5" style="fill:rgb(0,0,0);font-family:URWPalladioL-Bold;font-size:6.49px;stroke:none;">e</text>
   <text y="149.194" x="667.115,672.21,675.912,680.548,683.325,687.961,692.598,697.234" svgx:width="0.61,0.44,0.56,0.33,0.56,0.56,0.56,0.44" style="fill:rgb(0,0,0);font-family:URWPalladioL-BoldItal;font-size:8.34px;stroke:none;">Echinops</text>
   <text y="159.386" x="663.293,667.463,670.24,674.409,679.045,683.682,686.925,690.628,695.264" svgx:width="0.5,0.33,0.5,0.56,0.56,0.39,0.44,0.56,0.44" style="fill:rgb(0,0,0);font-family:URWPalladioL-BoldItal;font-size:8.34px;stroke:none;">giganteus</text>
   <text y="156.359" x="701.051" svgx:width="0.5" style="fill:rgb(0,0,0);font-family:URWPalladioL-Bold;font-size:6.49px;stroke:none;">e</text>
  </g>
  <path style="fill:none;stroke:rgb(0,0,0);stroke-width:0.28;" d="M83.910 164.180 L757.990 164.180 "/>
  <g begin="text">
   <text y="174.043" x="104.244,108.414,134.314,136.74,140.276,144.829,149.841,153.835,158.688,161.406,166.043,168.4616,170.554,174.723,178.426,182.42,185.139,189.308,192.026,196.0292,276.815,280.984,285.154,289.324,331.7,335.87,340.039,344.209,444.999,447.717" svgx:width="0.5,0.55,0.29,0.42,0.55,0.6,0.48,0.58,0.33,0.56,0.29,0.55,0.5,0.44,0.48,0.33,0.5,0.33,0.48,0.55,0.5,0.5,0.5,0.55,0.5,0.5,0.5,0.55,0.33,0.4" style="fill:rgb(0,0,0);font-family:URWPalladioL-Roma;font-size:8.34px;stroke:none;">1 isopentyl acetate 873 869 tr</text>
   <text y="171.017" x="453.093" svgx:width="0.56" style="fill:rgb(0,0,0);font-family:URWPalladioL-Roma;font-size:6.49px;stroke:none;">g</text>
   <text y="174.043" x="724.201,729.771,732.581,734.666,742.554" svgx:width="0.67,0.34,0.25,0.95,0.52" style="fill:rgb(0,0,0);font-family:URWPalladioL-Roma;font-size:8.34px;stroke:none;">RI,MS</text>
   <text y="184.281" x="104.244,108.414,134.314,138.483,141.26,148.623,152.617,155.336,160.189,164.825,167.2436,169.337,173.948,178.976,181.695,186.331,188.7496,190.842,195.012,198.714,202.708,205.418,209.588,212.306,216.3092,276.815,280.984,285.154,289.324,331.701,335.87,340.039,344.209,448.076,450.795,454.13100000000003,724.197,729.767,732.578,734.662,742.551" svgx:width="0.5,0.55,0.5,0.33,0.88,0.48,0.33,0.58,0.56,0.29,0.55,0.55,0.6,0.33,0.56,0.29,0.55,0.5,0.44,0.48,0.33,0.5,0.33,0.48,0.55,0.5,0.5,0.5,0.55,0.5,0.5,0.5,0.55,0.33,0.4,0.55,0.67,0.34,0.25,0.95,0.52" style="fill:rgb(0,0,0);font-family:URWPalladioL-Roma;font-size:8.34px;stroke:none;">2 2-methyl butyl acetate 876 875 tr RI,MS</text>
   <text y="194.52" x="104.244,108.414,134.314,138.483,141.26,146.113,150.107,155.119,157.837,162.007,166.86,171.413,176.266,180.26919999999998,276.815,280.984,285.154,289.324,331.7,335.87,340.039,344.209,448.076,450.794,454.13,724.197,729.767,732.578,734.662,742.551" svgx:width="0.5,0.55,0.5,0.33,0.58,0.48,0.6,0.33,0.5,0.58,0.55,0.58,0.48,0.55,0.5,0.5,0.5,0.55,0.5,0.5,0.5,0.55,0.33,0.4,0.55,0.67,0.34,0.25,0.95,0.52" style="fill:rgb(0,0,0);font-family:URWPalladioL-Roma;font-size:8.34px;stroke:none;">3 2-heptanone 891 892 tr RI,MS</text>
   <text y="204.758" x="104.244,108.414,134.314,138.483,141.26,146.113,150.107,155.119,157.837,162.007,166.86,171.413,173.8316,276.815,280.984,285.154,289.324,331.7,335.87,340.039,344.209,445.866,450.036,452.12,456.29,724.197,729.767,732.578,734.662,742.551" svgx:width="0.5,0.55,0.5,0.33,0.58,0.48,0.6,0.33,0.5,0.58,0.55,0.29,0.55,0.5,0.5,0.5,0.55,0.5,0.5,0.5,0.55,0.5,0.25,0.5,0.55,0.67,0.34,0.25,0.95,0.52" style="fill:rgb(0,0,0);font-family:URWPalladioL-Roma;font-size:8.34px;stroke:none;">4 2-heptanol 901 894 0.2 RI,MS</text>
   <text y="214.996" x="104.244" svgx:width="0.5" style="fill:rgb(0,0,0);font-family:URWPalladioL-Roma;font-size:8.34px;stroke:none;">5</text>
   <text y="214.996" x="134.31" svgx:width="0.66" style="fill:rgb(0,0,0);font-family:EURM10;font-size:8.34px;stroke:none;">α</text>
   <text y="214.996" x="139.801,142.578,145.296,150.149,155.178,157.129,161.123,165.976,169.9792,276.815,280.984,285.154,289.324,331.701,335.87,340.039,344.209,448.076,450.795,454.13100000000003,504.104,508.274,510.358,514.528,562.342,566.512,568.596,572.766,724.197,729.768,732.578,734.663,742.551" svgx:width="0.33,0.33,0.58,0.6,0.23,0.48,0.58,0.48,0.55,0.5,0.5,0.5,0.55,0.5,0.5,0.5,0.55,0.33,0.4,0.55,0.5,0.25,0.5,0.55,0.5,0.25,0.5,0.55,0.67,0.34,0.25,0.95,0.52" style="fill:rgb(0,0,0);font-family:URWPalladioL-Roma;font-size:8.34px;stroke:none;">-thujene 916 924 tr 1.0 0.1 RI,MS</text>
   <text y="225.234" x="104.244" svgx:width="0.5" style="fill:rgb(0,0,0);font-family:URWPalladioL-Roma;font-size:8.34px;stroke:none;">6</text>
   <text y="225.234" x="134.31" svgx:width="0.66" style="fill:rgb(0,0,0);font-family:EURM10;font-size:8.34px;stroke:none;">α</text>
   <text y="225.234" x="139.801,142.578,147.589,150.016,154.869,158.863,163.716,167.7192,276.815,280.984,285.154,289.324,331.701,335.87,340.039,344.209,445.867,450.036,452.121,456.291,504.104,508.274,510.358,514.528,562.342,566.512,568.596,572.766,681.019,683.738,687.0740000000001,729.468,733.845,736.564" svgx:width="0.33,0.6,0.29,0.58,0.48,0.58,0.48,0.55,0.5,0.5,0.5,0.55,0.5,0.5,0.5,0.55,0.5,0.25,0.5,0.55,0.5,0.25,0.5,0.55,0.5,0.25,0.5,0.55,0.33,0.4,0.55,0.52,0.33,0.61" style="fill:rgb(0,0,0);font-family:URWPalladioL-Roma;font-size:8.34px;stroke:none;">-pinene 921 932 2.0 2.4 0.2 tr Std</text>
   <text y="235.472" x="104.244" svgx:width="0.5" style="fill:rgb(0,0,0);font-family:URWPalladioL-Roma;font-size:8.34px;stroke:none;">7</text>
   <text y="235.472" x="134.31" svgx:width="0.66" style="fill:rgb(0,0,0);font-family:EURM10;font-size:8.34px;stroke:none;">α</text>
   <text y="235.472" x="139.801,142.578,145.355,149.349,154.202,157.904,162.758,166.752,171.605,175.60819999999998,276.815,280.984,285.154,289.324,331.701,335.87,340.039,344.209,445.867,450.036,452.121,456.291,724.197,729.768,732.578,734.662,742.551" svgx:width="0.33,0.33,0.48,0.58,0.44,0.58,0.48,0.58,0.48,0.55,0.5,0.5,0.5,0.55,0.5,0.5,0.5,0.55,0.5,0.25,0.5,0.55,0.67,0.34,0.25,0.95,0.52" style="fill:rgb(0,0,0);font-family:URWPalladioL-Roma;font-size:8.34px;stroke:none;">-fenchene 938 945 0.1 RI,MS</text>
   <text y="245.711" x="104.244,108.414,134.314,138.016,142.186,149.549,154.56,159.413,163.408,168.261,172.2642,276.815,280.984,285.154,289.324,331.7,335.87,340.039,344.209,445.866,450.036,452.12,456.29,506.314,509.032,512.3679999999999,724.197,729.767,732.578,734.662,742.551" svgx:width="0.5,0.55,0.44,0.5,0.88,0.6,0.58,0.48,0.58,0.48,0.55,0.5,0.5,0.5,0.55,0.5,0.5,0.5,0.55,0.5,0.25,0.5,0.55,0.33,0.4,0.55,0.67,0.34,0.25,0.95,0.52" style="fill:rgb(0,0,0);font-family:URWPalladioL-Roma;font-size:8.34px;stroke:none;">8 camphene 939 946 0.3 tr RI,MS</text>
   <text y="255.948" x="104.244,108.414,134.314,137.849,142.019,146.63,149.057,153.91,157.904,162.757,166.7602,276.815,280.984,285.154,289.324,331.7,335.87,340.039,344.209,448.076,450.794,454.13,502.019,506.189,510.358,512.443,516.6129999999999,562.342,566.511,568.596,572.766,724.197,729.767,732.578,734.662,742.551" svgx:width="0.5,0.55,0.42,0.5,0.55,0.29,0.58,0.48,0.58,0.48,0.55,0.5,0.5,0.5,0.55,0.5,0.5,0.5,0.55,0.33,0.4,0.55,0.5,0.5,0.25,0.5,0.55,0.5,0.25,0.5,0.55,0.67,0.34,0.25,0.95,0.52" style="fill:rgb(0,0,0);font-family:URWPalladioL-Roma;font-size:8.34px;stroke:none;">9 sabinene 959 969 tr 43.9 0.6 RI,MS</text>
   <text y="266.186" x="102.16,106.33" svgx:width="0.5,0.5" style="fill:rgb(0,0,0);font-family:URWPalladioL-Roma;font-size:8.34px;stroke:none;">10</text>
   <text y="266.186" x="134.31" svgx:width="0.66" style="fill:rgb(0,0,0);font-family:EURM10;font-size:8.34px;stroke:none;">β</text>
   <text y="266.186" x="139.835,142.612,147.624,150.05,154.903,158.898,163.751,167.7542,276.816,280.985,285.155,289.325,331.702,335.871,340.04,344.21000000000004,445.868,450.037,452.122,456.29200000000003,504.105,508.275,510.359,514.529,562.343,566.513,568.597,572.7669999999999,620.581,624.75,626.835,631.005,729.469,733.846,736.565" svgx:width="0.33,0.6,0.29,0.58,0.48,0.58,0.48,0.55,0.5,0.5,0.5,0.55,0.5,0.5,0.5,0.55,0.5,0.25,0.5,0.55,0.5,0.25,0.5,0.55,0.5,0.25,0.5,0.55,0.5,0.25,0.5,0.55,0.52,0.33,0.61" style="fill:rgb(0,0,0);font-family:URWPalladioL-Roma;font-size:8.34px;stroke:none;">-pinene 963 974 7.1 5.8 0.3 0.1 Std</text>
   <text y="276.425" x="102.16,106.33,110.5,134.314,139.409,143.404,148.257,152.893,157.988,161.132,165.685,168.462,172.631,174.716,178.885,181.662,185.364,187.782,192.636,196.63,201.183,203.609,207.6122,276.815,280.985,285.154,289.324,331.701,335.87,340.04,344.21000000000004,445.867,450.036,452.121,456.291,724.198,729.768,732.578,734.663,742.551" svgx:width="0.5,0.5,0.55,0.61,0.48,0.58,0.56,0.61,0.4,0.55,0.33,0.5,0.25,0.5,0.33,0.44,0.29,0.58,0.48,0.55,0.29,0.48,0.55,0.5,0.5,0.5,0.55,0.5,0.5,0.5,0.55,0.5,0.25,0.5,0.55,0.67,0.34,0.25,0.95,0.52" style="fill:rgb(0,0,0);font-family:URWPalladioL-Roma;font-size:8.34px;stroke:none;">11 dehydro-1,8-cineole 979 988 0.1 RI,MS</text>
   <text y="286.663" x="102.16,106.33,110.5,134.314,141.677,146.314,149.458,153.16,157.154,162.007,166.0102,276.815,280.985,285.154,289.324,331.701,335.87,340.04,344.21000000000004,445.867,450.036,452.121,456.291,504.105,508.274,510.359,514.529,562.343,566.512,568.597,572.7669999999999,620.58,624.75,626.834,631.0039999999999,681.02,683.738,687.0740000000001,729.468,733.846,736.564" svgx:width="0.5,0.5,0.55,0.88,0.56,0.4,0.44,0.48,0.58,0.48,0.55,0.5,0.5,0.5,0.55,0.5,0.5,0.5,0.55,0.5,0.25,0.5,0.55,0.5,0.25,0.5,0.55,0.5,0.25,0.5,0.55,0.5,0.25,0.5,0.55,0.33,0.4,0.55,0.52,0.33,0.61" style="fill:rgb(0,0,0);font-family:URWPalladioL-Roma;font-size:8.34px;stroke:none;">12 myrcene 982 988 0.2 1.5 2.0 0.3 tr Std</text>
   <text y="296.901" x="102.16,106.33" svgx:width="0.5,0.5" style="fill:rgb(0,0,0);font-family:URWPalladioL-Roma;font-size:8.34px;stroke:none;">13</text>
   <text y="296.901" x="134.31" svgx:width="0.66" style="fill:rgb(0,0,0);font-family:EURM10;font-size:8.34px;stroke:none;">α</text>
   <text y="296.901" x="139.801,142.578,147.589,152.443,156.437,158.863,161.29,165.459,170.312,175.407,178.551,182.545,187.399,191.4022,276.815,280.984,285.154,289.324,329.616,333.785,337.955,342.124,346.29400000000004,445.867,450.036,452.121,456.291,506.314,509.033,512.369,729.468,733.845,736.564" svgx:width="0.33,0.6,0.58,0.48,0.29,0.29,0.5,0.58,0.61,0.4,0.48,0.58,0.48,0.55,0.5,0.5,0.5,0.55,0.5,0.5,0.5,0.5,0.55,0.5,0.25,0.5,0.55,0.33,0.4,0.55,0.52,0.33,0.61" style="fill:rgb(0,0,0);font-family:URWPalladioL-Roma;font-size:8.34px;stroke:none;">-phellandrene 996 1004 0.3 tr Std</text>
   <text y="307.139" x="102.159,106.329" svgx:width="0.5,0.5" style="fill:rgb(0,0,0);font-family:URWPalladioL-Roma;font-size:8.34px;stroke:none;">14</text>
   <text y="307.139" x="134.31" svgx:width="0.5" style="fill:rgb(0,0,0);font-family:EURM10;font-size:8.34px;stroke:none;">δ</text>
   <text y="307.139" x="138.488,141.265,145.434,148.211,151.913,156.083,159.226,163.221,168.074,172.0772,274.726,278.896,283.065,287.234,291.404,329.612,333.781,337.951,342.12,346.29,681.019,683.737,687.073,729.467,733.845,736.563" svgx:width="0.33,0.5,0.33,0.44,0.5,0.4,0.48,0.58,0.48,0.55,0.5,0.5,0.5,0.5,0.55,0.5,0.5,0.5,0.5,0.55,0.33,0.4,0.55,0.52,0.33,0.61" style="fill:rgb(0,0,0);font-family:URWPalladioL-Roma;font-size:8.34px;stroke:none;">-3-carene 1003 1008 tr Std</text>
   <text y="317.377" x="102.159,106.329" svgx:width="0.5,0.5" style="fill:rgb(0,0,0);font-family:URWPalladioL-Roma;font-size:8.34px;stroke:none;">15</text>
   <text y="317.377" x="134.31" svgx:width="0.66" style="fill:rgb(0,0,0);font-family:EURM10;font-size:8.34px;stroke:none;">α</text>
   <text y="317.377" x="139.801,142.578,145.296,149.29,152.584,157.596,160.022,164.876,168.87,173.723,177.7262,274.73,278.9,283.069,287.238,291.408,329.616,333.785,337.955,342.124,346.29400000000004,445.867,450.036,452.121,456.291,504.104,508.274,510.358,514.528,564.544,567.262,570.598,724.197,729.768,732.578,734.663,742.551" svgx:width="0.33,0.33,0.48,0.4,0.6,0.29,0.58,0.48,0.58,0.48,0.55,0.5,0.5,0.5,0.5,0.55,0.5,0.5,0.5,0.5,0.55,0.5,0.25,0.5,0.55,0.5,0.25,0.5,0.55,0.33,0.4,0.55,0.67,0.34,0.25,0.95,0.52" style="fill:rgb(0,0,0);font-family:URWPalladioL-Roma;font-size:8.34px;stroke:none;">-terpinene 1009 1014 0.3 0.9 tr RI,MS</text>
   <text y="327.616" x="102.159,106.329" svgx:width="0.5,0.5" style="fill:rgb(0,0,0);font-family:URWPalladioL-Roma;font-size:8.34px;stroke:none;">16</text>
   <text y="327.616" x="134.31" svgx:width="0.5" style="fill:rgb(0,0,0);font-family:URWPalladioL-Ital;font-size:8.34px;stroke:none;">p</text>
   <text y="327.616" x="138.479,141.256,144.959,149.595,156.958,160.952,165.806,169.8092,274.726,278.896,283.065,287.234,291.404,329.612,333.781,337.951,342.12,346.29,445.871,450.04,452.125,456.295,504.1,508.27,510.354,514.524,562.338,566.508,568.592,572.762,620.576,624.745,626.83,631.0,729.472,733.85,736.568" svgx:width="0.33,0.44,0.56,0.88,0.48,0.58,0.48,0.55,0.5,0.5,0.5,0.5,0.55,0.5,0.5,0.5,0.5,0.55,0.5,0.25,0.5,0.55,0.5,0.25,0.5,0.55,0.5,0.25,0.5,0.55,0.5,0.25,0.5,0.55,0.52,0.33,0.61" style="fill:rgb(0,0,0);font-family:URWPalladioL-Roma;font-size:8.34px;stroke:none;">-cymene 1016 1020 1.1 1.0 2.9 0.1 Std</text>
   <text y="337.853" x="102.159,106.329,110.499,134.313,136.74,139.167,146.53,151.083,155.936,159.93,164.783,168.78619999999998,274.73,278.899,283.068,287.238,291.408,329.615,333.785,337.954,342.124,346.29400000000004,445.866,450.035,452.12,456.29,504.104,508.273,510.358,514.528,562.342,566.511,568.596,572.766,622.781,625.499,628.835,681.019,683.737,687.073,729.475,733.853,736.571" svgx:width="0.5,0.5,0.55,0.29,0.29,0.88,0.55,0.58,0.48,0.58,0.48,0.55,0.5,0.5,0.5,0.5,0.55,0.5,0.5,0.5,0.5,0.55,0.5,0.25,0.5,0.55,0.5,0.25,0.5,0.55,0.5,0.25,0.5,0.55,0.33,0.4,0.55,0.33,0.4,0.55,0.52,0.33,0.61" style="fill:rgb(0,0,0);font-family:URWPalladioL-Roma;font-size:8.34px;stroke:none;">17 limonene 1020 1024 1.5 0.7 0.4 tr tr Std</text>
   <text y="348.092" x="102.159,106.329,110.499,134.313,138.483,140.568,144.737,147.514,151.216,153.643,158.496,162.49,167.043,169.47,173.4732,274.73,278.899,283.068,287.238,291.408,329.615,333.785,337.954,342.124,346.29400000000004,443.781,447.951,452.12,454.205,458.375,504.104,508.273,510.358,514.528,562.342,566.511,568.596,572.766,620.58,624.749,626.834,631.0039999999999,729.475,733.853,736.572" svgx:width="0.5,0.5,0.55,0.5,0.25,0.5,0.33,0.44,0.29,0.58,0.48,0.55,0.29,0.48,0.55,0.5,0.5,0.5,0.5,0.55,0.5,0.5,0.5,0.5,0.55,0.5,0.5,0.25,0.5,0.55,0.5,0.25,0.5,0.55,0.5,0.25,0.5,0.55,0.5,0.25,0.5,0.55,0.52,0.33,0.61" style="fill:rgb(0,0,0);font-family:URWPalladioL-Roma;font-size:8.34px;stroke:none;">18 1,8-cineole 1021 1026 58.5 0.5 0.2 2.3 Std</text>
   <text y="358.33" x="102.159,106.329,110.499,134.313,138.308,141.026,145.879,150.516,152.942,157.795,161.79,166.092,170.262,175.115,179.668,182.0866,274.73,278.899,283.068,287.238,291.408,329.615,333.785,337.954,342.124,346.29400000000004,620.577,624.747,626.832,631.002,724.203,729.773,732.584,734.668,742.557" svgx:width="0.5,0.5,0.55,0.48,0.33,0.58,0.56,0.29,0.58,0.48,0.52,0.5,0.58,0.55,0.29,0.55,0.5,0.5,0.5,0.5,0.55,0.5,0.5,0.5,0.5,0.55,0.5,0.25,0.5,0.55,0.67,0.34,0.25,0.95,0.52" style="fill:rgb(0,0,0);font-family:URWPalladioL-Roma;font-size:8.34px;stroke:none;">19 ethylhexanol 1031 1030 0.2 RI,MS</text>
   <text y="368.568" x="102.159,106.329,110.499,134.313" svgx:width="0.5,0.5,0.55,0.33" style="fill:rgb(0,0,0);font-family:URWPalladioL-Roma;font-size:8.34px;stroke:none;">20 (</text>
   <text y="368.568" x="137.087" svgx:width="0.67" style="fill:rgb(0,0,0);font-family:URWPalladioL-Ital;font-size:8.34px;stroke:none;">Z</text>
   <text y="368.568" x="142.65,145.426" svgx:width="0.33,0.33" style="fill:rgb(0,0,0);font-family:URWPalladioL-Roma;font-size:8.34px;stroke:none;">)-</text>
   <text y="368.568" x="148.203" svgx:width="0.66" style="fill:rgb(0,0,0);font-family:EURM10;font-size:8.34px;stroke:none;">β</text>
   <text y="368.568" x="153.727,156.504,161.057,164.759,167.186,174.549,178.543,183.396,187.39919999999998,274.73,278.9,283.069,287.239,291.409,329.616,333.786,337.955,342.124,346.29400000000004,562.342,566.512,568.596,572.766,729.468,733.846,736.564" svgx:width="0.33,0.55,0.44,0.29,0.88,0.48,0.58,0.48,0.55,0.5,0.5,0.5,0.5,0.55,0.5,0.5,0.5,0.5,0.55,0.5,0.25,0.5,0.55,0.52,0.33,0.61" style="fill:rgb(0,0,0);font-family:URWPalladioL-Roma;font-size:8.34px;stroke:none;">-ocimene 1037 1032 0.4 Std</text>
   <text y="378.806" x="102.159,106.329,110.499,134.313" svgx:width="0.5,0.5,0.55,0.33" style="fill:rgb(0,0,0);font-family:URWPalladioL-Roma;font-size:8.34px;stroke:none;">21 (</text>
   <text y="378.806" x="137.087" svgx:width="0.61" style="fill:rgb(0,0,0);font-family:URWPalladioL-Ital;font-size:8.34px;stroke:none;">E</text>
   <text y="378.806" x="142.182,144.959" svgx:width="0.33,0.33" style="fill:rgb(0,0,0);font-family:URWPalladioL-Roma;font-size:8.34px;stroke:none;">)-</text>
   <text y="378.806" x="147.736" svgx:width="0.66" style="fill:rgb(0,0,0);font-family:EURM10;font-size:8.34px;stroke:none;">β</text>
   <text y="378.806" x="153.26,156.037,160.59,164.292,166.719,174.082,178.076,182.929,186.9322,274.731,278.9,283.069,287.239,291.409,329.616,333.786,337.955,342.124,346.29400000000004,445.867,450.036,452.121,456.291,504.105,508.274,510.359,514.529,562.342,566.512,568.597,572.7669999999999,724.198,729.768,732.578,734.663,742.551" svgx:width="0.33,0.55,0.44,0.29,0.88,0.48,0.58,0.48,0.55,0.5,0.5,0.5,0.5,0.55,0.5,0.5,0.5,0.5,0.55,0.5,0.25,0.5,0.55,0.5,0.25,0.5,0.55,0.5,0.25,0.5,0.55,0.67,0.34,0.25,0.95,0.52" style="fill:rgb(0,0,0);font-family:URWPalladioL-Roma;font-size:8.34px;stroke:none;">-ocimene 1041 1044 0.1 0.3 0.3 RI,MS</text>
   <text y="389.044" x="102.159,106.329" svgx:width="0.5,0.5" style="fill:rgb(0,0,0);font-family:URWPalladioL-Roma;font-size:8.34px;stroke:none;">22</text>
   <text y="389.044" x="134.31" svgx:width="0.61" style="fill:rgb(0,0,0);font-family:EURM10;font-size:8.34px;stroke:none;">γ</text>
   <text y="389.044" x="139.384,142.161,144.88,148.874,152.168,157.179,159.606,164.459,168.453,173.306,177.3092,274.731,278.9,283.069,287.239,291.409,329.616,333.786,337.955,342.125,346.295,445.867,450.036,452.121,456.291,504.105,508.274,510.359,514.529,562.343,566.512,568.597,572.7669999999999,729.468,733.846,736.564" svgx:width="0.33,0.33,0.48,0.4,0.6,0.29,0.58,0.48,0.58,0.48,0.55,0.5,0.5,0.5,0.5,0.55,0.5,0.5,0.5,0.5,0.55,0.5,0.25,0.5,0.55,0.5,0.25,0.5,0.55,0.5,0.25,0.5,0.55,0.52,0.33,0.61" style="fill:rgb(0,0,0);font-family:URWPalladioL-Roma;font-size:8.34px;stroke:none;">-terpinene 1050 1054 0.9 1.9 2.4 Std</text>
   <text y="399.282" x="102.159,106.329" svgx:width="0.5,0.5" style="fill:rgb(0,0,0);font-family:URWPalladioL-Roma;font-size:8.34px;stroke:none;">23</text>
   <text y="399.282" x="134.31,137.704,140.022" svgx:width="0.41,0.28,0.39" style="fill:rgb(0,0,0);font-family:URWPalladioL-Ital;font-size:8.34px;stroke:none;">cis</text>
   <text y="399.282" x="143.266,146.043,149.579,153.748,158.359,160.786,165.639,169.633,174.486,178.48919999999998,180.565,185.419,190.055,195.15,198.444,202.613,205.331,209.33419999999998,274.727,278.896,283.065,287.235,291.40500000000003,329.612,333.782,337.951,342.12,346.29,504.101,508.27,510.355,514.525,724.202,729.772,732.583,734.667,742.556" svgx:width="0.33,0.42,0.5,0.55,0.29,0.58,0.48,0.58,0.48,0.55,0.58,0.56,0.61,0.4,0.5,0.33,0.48,0.55,0.5,0.5,0.5,0.5,0.55,0.5,0.5,0.5,0.5,0.55,0.5,0.25,0.5,0.55,0.67,0.34,0.25,0.95,0.52" style="fill:rgb(0,0,0);font-family:URWPalladioL-Roma;font-size:8.34px;stroke:none;">-sabinene hydrate 1057 1065 1.1 RI,MS</text>
   <text y="409.521" x="102.159,106.329" svgx:width="0.5,0.5" style="fill:rgb(0,0,0);font-family:URWPalladioL-Roma;font-size:8.34px;stroke:none;">24</text>
   <text y="409.521" x="134.31,137.704,140.022" svgx:width="0.41,0.28,0.39" style="fill:rgb(0,0,0);font-family:URWPalladioL-Ital;font-size:8.34px;stroke:none;">cis</text>
   <text y="409.521" x="143.266,146.043,148.47,150.896,155.749,159.919,162.345,166.898,171.451,173.8696,175.962,180.515,184.818,187.245,192.34,196.3432,274.727,278.896,283.065,287.235,291.40500000000003,329.612,333.782,337.951,342.12,346.29,564.548,567.267,570.6030000000001,620.576,624.746,626.831,631.001,724.202,729.772,732.583,734.667,742.556" svgx:width="0.33,0.29,0.29,0.58,0.5,0.29,0.55,0.55,0.29,0.55,0.55,0.52,0.29,0.61,0.48,0.55,0.5,0.5,0.5,0.5,0.55,0.5,0.5,0.5,0.5,0.55,0.33,0.4,0.55,0.5,0.25,0.5,0.55,0.67,0.34,0.25,0.95,0.52" style="fill:rgb(0,0,0);font-family:URWPalladioL-Roma;font-size:8.34px;stroke:none;">-linalool oxide 1071 1067 tr 0.1 RI,MS</text>
   <text y="419.758" x="102.159,106.329,110.499,134.313,137.032,141.026,144.32,149.332,151.758,156.611,161.164,163.591,167.585,172.438,176.44119999999998,274.73,278.899,283.068,287.238,291.408,329.615,333.785,337.954,342.124,346.29400000000004,445.866,450.035,452.12,456.29,504.104,508.273,510.358,514.528,562.342,566.511,568.596,572.766,681.019,683.737,687.073,729.475,733.853,736.563" svgx:width="0.5,0.5,0.55,0.33,0.48,0.4,0.6,0.29,0.58,0.55,0.29,0.48,0.58,0.48,0.55,0.5,0.5,0.5,0.5,0.55,0.5,0.5,0.5,0.5,0.55,0.5,0.25,0.5,0.55,0.5,0.25,0.5,0.55,0.5,0.25,0.5,0.55,0.33,0.4,0.55,0.52,0.33,0.61" style="fill:rgb(0,0,0);font-family:URWPalladioL-Roma;font-size:8.34px;stroke:none;">25 terpinolene 1079 1086 0.8 0.4 0.1 tr Std</text>
   <text y="429.997" x="102.159,106.329" svgx:width="0.5,0.5" style="fill:rgb(0,0,0);font-family:URWPalladioL-Roma;font-size:8.34px;stroke:none;">26</text>
   <text y="429.997" x="134.31" svgx:width="0.5" style="fill:rgb(0,0,0);font-family:URWPalladioL-Ital;font-size:8.34px;stroke:none;">p</text>
   <text y="429.997" x="138.479,141.256,144.959,149.595,156.958,160.952,165.806,169.8,174.653,178.65619999999998,274.726,278.896,283.065,287.234,291.404,329.612,333.781,337.951,342.12,346.29,445.871,450.04,452.125,456.295,724.202,729.772,732.582,734.667,742.555" svgx:width="0.33,0.44,0.56,0.88,0.48,0.58,0.48,0.58,0.48,0.55,0.5,0.5,0.5,0.5,0.55,0.5,0.5,0.5,0.5,0.55,0.5,0.25,0.5,0.55,0.67,0.34,0.25,0.95,0.52" style="fill:rgb(0,0,0);font-family:URWPalladioL-Roma;font-size:8.34px;stroke:none;">-cymenene 1086 1089 0.2 RI,MS</text>
   <text y="440.235" x="102.159,106.329,110.499,134.313,136.74,139.167,143.803,148.831,152.367,155.085,158.379,162.548,166.718,169.144,173.9812,274.73,278.899,283.068,287.238,291.408,329.615,333.785,337.954,342.124,346.29400000000004,620.577,624.746,626.831,631.001,724.202,729.773,732.583,734.667,742.556" svgx:width="0.5,0.5,0.55,0.29,0.29,0.56,0.6,0.42,0.33,0.4,0.5,0.5,0.29,0.58,0.55,0.5,0.5,0.5,0.5,0.55,0.5,0.5,0.5,0.5,0.55,0.5,0.25,0.5,0.55,0.67,0.34,0.25,0.95,0.52" style="fill:rgb(0,0,0);font-family:URWPalladioL-Roma;font-size:8.34px;stroke:none;">27 ligustrazin 1081 1083 5.1 RI,MS</text>
   <text y="450.473" x="102.159,106.329" svgx:width="0.5,0.5" style="fill:rgb(0,0,0);font-family:URWPalladioL-Roma;font-size:8.34px;stroke:none;">28</text>
   <text y="450.473" x="134.31,137.087,140.331,144.033,148.67" svgx:width="0.33,0.39,0.44,0.56,0.39" style="fill:rgb(0,0,0);font-family:URWPalladioL-Ital;font-size:8.34px;stroke:none;">trans</text>
   <text y="450.473" x="151.913,154.69,158.226,162.395,167.006,169.433,174.286,178.28,183.134,187.13719999999998,189.213,194.066,198.702,203.797,207.091,211.26,213.979,217.9822,274.726,278.896,283.065,287.235,291.40500000000003,329.612,333.782,337.951,342.12,346.29,504.101,508.27,510.355,514.525,724.202,729.772,732.582,734.667,742.556" svgx:width="0.33,0.42,0.5,0.55,0.29,0.58,0.48,0.58,0.48,0.55,0.58,0.56,0.61,0.4,0.5,0.33,0.48,0.55,0.5,0.5,0.5,0.5,0.55,0.5,0.5,0.5,0.5,0.55,0.5,0.25,0.5,0.55,0.67,0.34,0.25,0.95,0.52" style="fill:rgb(0,0,0);font-family:URWPalladioL-Roma;font-size:8.34px;stroke:none;">-sabinene hydrate 1089 1098 0.9 RI,MS</text>
   <text y="460.711" x="102.159,106.329,110.499,134.313,138.483,141.26,146.113,150.666,155.519,159.688,164.541,169.094,173.948,177.9512,274.73,278.899,283.068,287.238,291.408,329.615,333.785,337.954,342.124,346.29400000000004,448.076,450.794,454.13,724.205,729.767,732.577,734.662,742.55" svgx:width="0.5,0.5,0.55,0.5,0.33,0.58,0.55,0.58,0.5,0.58,0.55,0.58,0.48,0.55,0.5,0.5,0.5,0.5,0.55,0.5,0.5,0.5,0.5,0.55,0.33,0.4,0.55,0.67,0.34,0.25,0.95,0.52" style="fill:rgb(0,0,0);font-family:URWPalladioL-Roma;font-size:8.34px;stroke:none;">29 2-nonanone 1094 1094 tr RI,MS</text>
   <text y="470.949" x="102.159,106.329,110.499,134.313,136.74,139.167,144.02,148.189,150.616,155.169,159.722,162.1406,274.73,278.899,283.068,287.238,291.408,329.615,333.785,337.954,342.124,346.29400000000004,448.076,450.794,454.13,504.104,508.273,510.358,514.528,564.543,567.261,570.597,620.579,624.749,626.833,631.0029999999999,729.475,733.853,736.563" svgx:width="0.5,0.5,0.55,0.29,0.29,0.58,0.5,0.29,0.55,0.55,0.29,0.55,0.5,0.5,0.5,0.5,0.55,0.5,0.5,0.5,0.5,0.55,0.33,0.4,0.55,0.5,0.25,0.5,0.55,0.33,0.4,0.55,0.5,0.25,0.5,0.55,0.52,0.33,0.61" style="fill:rgb(0,0,0);font-family:URWPalladioL-Roma;font-size:8.34px;stroke:none;">30 linalool 1096 1095 tr 1.8 tr 4.0 Std</text>
   <text y="481.188" x="102.159,106.329" svgx:width="0.5,0.5" style="fill:rgb(0,0,0);font-family:URWPalladioL-Roma;font-size:8.34px;stroke:none;">31</text>
   <text y="481.188" x="134.31" svgx:width="0.56" style="fill:rgb(0,0,0);font-family:URWPalladioL-Ital;font-size:8.34px;stroke:none;">n</text>
   <text y="481.188" x="138.946,141.723,146.576,151.129,155.982,160.152,165.005,169.174,171.5926,274.726,278.896,283.065,287.234,291.404,329.612,333.781,337.951,342.12,346.29,448.072,450.791,454.127,724.202,729.772,732.582,734.667,742.555" svgx:width="0.33,0.58,0.55,0.58,0.5,0.58,0.5,0.29,0.55,0.5,0.5,0.5,0.5,0.55,0.5,0.5,0.5,0.5,0.55,0.33,0.4,0.55,0.67,0.34,0.25,0.95,0.52" style="fill:rgb(0,0,0);font-family:URWPalladioL-Roma;font-size:8.34px;stroke:none;">-nonanal 1105 1100 tr RI,MS</text>
   <text y="491.426" x="102.159,106.329" svgx:width="0.5,0.5" style="fill:rgb(0,0,0);font-family:URWPalladioL-Roma;font-size:8.34px;stroke:none;">32</text>
   <text y="491.426" x="134.31,137.554,142.19,146.36" svgx:width="0.39,0.56,0.5,0.44" style="fill:rgb(0,0,0);font-family:URWPalladioL-Ital;font-size:8.34px;stroke:none;">endo</text>
   <text y="491.426" x="150.062,152.838,155.615,159.609,164.463,168.165,173.018,177.571,179.9896,274.726,278.895,283.065,287.234,291.404,329.612,333.781,337.951,342.12,346.29,445.871,450.04,452.125,456.295,724.201,729.772,732.582,734.667,742.555" svgx:width="0.33,0.33,0.48,0.58,0.44,0.58,0.55,0.29,0.55,0.5,0.5,0.5,0.5,0.55,0.5,0.5,0.5,0.5,0.55,0.5,0.25,0.5,0.55,0.67,0.34,0.25,0.95,0.52" style="fill:rgb(0,0,0);font-family:URWPalladioL-Roma;font-size:8.34px;stroke:none;">-fenchol 1108 1114 0.3 RI,MS</text>
   <text y="501.663" x="102.159,106.329" svgx:width="0.5,0.5" style="fill:rgb(0,0,0);font-family:URWPalladioL-Roma;font-size:8.34px;stroke:none;">33</text>
   <text y="501.663" x="134.31,137.704,140.022" svgx:width="0.41,0.28,0.39" style="fill:rgb(0,0,0);font-family:URWPalladioL-Ital;font-size:8.34px;stroke:none;">cis</text>
   <text y="501.663" x="143.266" svgx:width="0.33" style="fill:rgb(0,0,0);font-family:URWPalladioL-Roma;font-size:8.34px;stroke:none;">-</text>
   <text y="501.663" x="146.042" svgx:width="0.5" style="fill:rgb(0,0,0);font-family:URWPalladioL-Ital;font-size:8.34px;stroke:none;">p</text>
   <text y="501.663" x="150.212,152.989,160.352,164.346,169.2,171.918,176.771,179.548,183.717,186.494,190.488,195.342,198.118,202.288,205.065,209.618,212.0366,274.727,278.896,283.065,287.235,291.40500000000003,329.612,333.782,337.951,342.12,346.29,504.101,508.27,510.355,514.525,620.576,624.746,626.83,631.0,724.202,729.772,732.582,734.667,742.556" svgx:width="0.33,0.88,0.48,0.58,0.33,0.58,0.33,0.5,0.33,0.48,0.58,0.33,0.5,0.33,0.55,0.29,0.55,0.5,0.5,0.5,0.5,0.55,0.5,0.5,0.5,0.5,0.55,0.5,0.25,0.5,0.55,0.5,0.25,0.5,0.55,0.67,0.34,0.25,0.95,0.52" style="fill:rgb(0,0,0);font-family:URWPalladioL-Roma;font-size:8.34px;stroke:none;">-menth-2-en-1-ol 1113 1118 0.2 0.3 RI,MS</text>
  </g>
  <path style="fill:none;stroke:rgb(0,0,0);stroke-width:0.28;" d="M83.910 506.730 L757.990 506.730 "/>
 </g>
</svg>
