<?xml version="1.0" encoding="UTF-8"?>
<svg height="634.5" width="4138.6" xmlns="http://www.w3.org/2000/svg">
 <g>
  <text svgx:width="0.6,0.6,0.3,0.37,0.6,0.41,0.53,0.55,0.56,0.58,0.58,0.55,0.62,0.52,0.45,0.56,0.45,0.55,0.52,0.37,0.55,0.41,0.57,0.57,0.93,0.37,0.53,0.93,0.6,0.53,0.41,0.52,0.37,0.6,0.41,0.53,0.55,0.57,0.61,0.55,0.52,0.55,0.48,0.3,0.53,0.52,0.61,0.55,0.3,0.52,0.58,0.55,0.58,0.53,0.61,0.48,0.61,0.23,0.55,0.31,0.61,0.55,0.58,0.58,0.55,0.61,0.23,0.55,0.6,0.53,0.3,0.3,0.53,0.37,0.55,0.37,0.61,0.53,0.55,0.48,0.53,0.3,0.3,0.55,0.45,0.6,0.45,0.6,0.53,0.61,0.45,0.3,0.57,0.61,0.45,0.55,0.52,0.37" y="70.1" x="57.3,62.3,67.3,69.8,72.9,77.8,81.2,85.5,87.5,92.1,96.9,101.5,103.7,108.9,113.1,116.8,121.4,125.0,127.2,131.5,134.4,136.6,140.0,144.7,149.4,158.9,162.0,166.4,174.0,179.0,183.4,186.6,190.9,194.0,199.0,202.3,206.5,208.6,213.3,218.2,220.4,224.5,226.6,230.6,233.0,237.4,241.7,246.6,248.7,251.2,255.5,260.1,262.3,267.1,271.4,276.4,280.4,285.4,287.3,289.4,291.9,296.8,298.9,303.7,308.4,309.8,314.8,316.7,318.8,323.7,328.1,330.6,333.1,337.4,340.4,342.5,345.6,350.6,354.8,356.9,360.9,365.3,367.7,370.1,372.2,375.9,380.9,384.6,389.6,393.9,399.0,402.7,405.1,409.8,414.9,418.4,420.5,424.8" style="fill:rgb(0,0,0);font-family:AdvOT863180fb;font-size:8.0px;stroke:none;" xmlns:svgx="http://www.xml-cml.org/schema/svgx">Culture T25 ﬂasks at roomtemperature on a clean lab bench. In 24 h, pellet the cell suspensions at</text>
  <text svgx:width="0.58,0.58,0.58,0.58,0.55,0.41,0.6,0.93,0.55,0.33,0.57,0.41,0.55,0.58,0.55,0.93,0.3,0.61,0.23,0.55,0.56,0.61,0.53,0.55,0.45,0.6,0.6,0.53,0.41,0.61,0.52,0.37,0.52,0.61,0.37,0.55,0.37,0.48,0.57,0.61,0.37,0.52,0.3,0.61,0.3,0.61,0.54,0.55,0.48,0.6,0.3,0.37,0.6,0.41,0.53,0.55,0.93,0.53,0.6,0.3,0.52,0.55,0.52,0.61,0.6,0.55,0.48,0.53,0.3,0.3,0.6,0.3,0.52,0.41,0.55,0.6,0.41,0.57,0.6,0.6,0.48,0.37,0.45,0.37,0.55,0.45,0.61,0.57,0.6,0.3,0.6" y="80.5" x="45.4,50.2,55.2,60.3,64.9,66.4,69.8,74.7,82.2,87.1,89.8,94.5,97.8,102.6,107.2,108.8,116.5,119.0,124.0,125.8,130.6,135.2,140.3,144.5,149.3,153.0,157.9,162.9,167.3,170.7,175.7,180.0,183.1,187.4,192.4,195.3,200.2,203.2,207.2,211.9,216.9,220.0,224.3,226.8,231.8,234.3,239.3,243.6,248.5,252.4,257.4,259.9,263.0,268.0,271.4,275.6,280.3,288.0,292.3,297.3,299.7,303.9,308.7,313.0,318.1,322.8,327.6,331.6,335.9,338.4,340.9,345.9,348.4,352.7,355.9,360.7,365.7,369.1,373.8,378.7,383.7,387.7,390.8,394.5,397.4,402.1,405.8,410.8,415.5,420.5,423.0" style="fill:rgb(0,0,0);font-family:AdvOT863180fb;font-size:8.0px;stroke:none;" xmlns:svgx="http://www.xml-cml.org/schema/svgx">5000 rpm for 5 min. The supernatant (containing culture media and cellular products) should</text>
  <text svgx:width="0.3,0.93,0.93,0.53,0.6,0.3,0.52,0.37,0.53,0.3,0.55,0.55,0.58,0.53,0.55,0.45,0.37,0.57,0.41,0.53,0.6,0.55,0.52,0.37" y="91.0" x="45.4,47.8,55.5,63.2,67.6,72.5,75.0,79.3,82.4,86.7,89.1,93.4,96.2,100.9,105.2,107.9,111.6,114.7,119.4,122.6,127.0,131.8,134.5,138.8" style="fill:rgb(0,0,0);font-family:AdvOT863180fb;font-size:8.0px;stroke:none;" xmlns:svgx="http://www.xml-cml.org/schema/svgx">immediately be stored at</text>
  <text code="4" svgx:width="0.77" y="91.0" x="144.5" style="fill:rgb(0,0,0);font-family:AdvP4C4E74;font-size:8.0px;stroke:none;" xmlns:svgx="http://www.xml-cml.org/schema/svgx">?</text>
  <text svgx:width="0.58,0.58,0.6,0.55,0.3,0.61,0.55,0.52,0.55,0.58,0.58,0.23,0.58,0.55,0.93,0.5,0.55,0.6,0.57,0.3,0.55,0.6,0.41,0.57,0.6,0.55,0.3,0.53,0.61,0.53,0.55,0.48,0.57,0.61,0.3,0.48,0.52,0.3,0.55,0.54,0.3,0.52,0.3,0.55,0.33,0.57,0.41,0.55,0.6,0.45,0.53,0.55,0.3,0.61,0.55,0.58,0.53,0.61,0.52,0.54,0.3,0.57,0.41,0.52,0.3,0.55,0.52,0.45,0.45,0.52,0.55,0.45,0.23" y="91.0" x="150.9,155.7,160.5,165.3,168.0,170.5,175.4,178.2,182.3,185.0,189.4,194.2,196.1,200.7,202.3,210.0,213.9,216.7,221.6,226.3,228.7,233.2,238.2,241.6,246.3,251.0,255.5,257.9,262.3,267.3,271.5,274.3,278.2,282.9,288.0,290.5,294.4,298.7,301.1,303.7,308.2,310.7,315.0,317.4,320.1,322.8,327.5,330.8,333.5,338.5,342.2,346.4,349.2,351.7,356.5,359.3,364.1,368.4,373.4,377.6,382.1,384.5,389.2,392.6,396.9,399.3,401.9,406.2,409.9,413.6,417.9,422.3,426.0" style="fill:rgb(0,0,0);font-family:AdvOT863180fb;font-size:8.0px;stroke:none;" xmlns:svgx="http://www.xml-cml.org/schema/svgx">20C in a 15.0 mL polypropylene conical vial for use in behavioral assays.</text>
  <text svgx:width="0.66,0.6,0.6,0.55,0.58,0.58,0.23,0.58,0.55,0.93,0.5,0.55,0.57,0.33,0.55,0.45,0.6,0.6,0.6,0.3,0.53,0.93,0.53,0.61,0.37,0.53,0.6,0.55,0.56,0.6,0.53,0.55,0.37,0.57,0.55,0.37,0.61,0.53,0.55,0.6,0.53,0.3,0.3,0.53,0.37,0.55,0.52,0.61,0.6,0.55,0.54,0.57,0.41,0.37,0.53,0.56,0.55,0.33,0.57,0.41,0.55,0.58,0.58,0.55,0.45,0.55,0.52,0.37,0.55,0.93,0.52,0.56,0.55,0.45,0.6,0.53,0.53,0.6,0.55,0.37,0.57,0.55,0.41,0.53,0.45,0.6,0.45,0.6,0.53,0.61,0.6,0.23" y="101.4" x="57.3,62.8,67.7,72.5,75.7,79.9,84.7,86.7,91.3,92.9,100.5,104.5,107.8,112.5,115.1,118.3,122.0,127.0,132.0,136.9,139.4,143.7,151.4,155.8,160.8,163.9,168.3,173.0,176.2,180.9,185.9,190.1,193.2,196.3,200.8,203.9,207.0,212.0,216.3,219.5,224.4,228.8,231.3,233.7,238.1,241.0,244.3,248.6,253.6,258.4,261.6,266.1,270.8,274.2,277.2,281.4,285.8,289.1,291.8,296.5,299.8,303.0,307.3,311.9,313.4,317.0,320.3,324.5,327.5,330.7,338.4,342.7,347.2,350.4,354.1,359.1,363.4,367.8,372.6,375.8,378.9,383.4,386.6,390.0,394.4,398.1,403.1,406.8,411.7,416.1,421.1,426.0" style="fill:rgb(0,0,0);font-family:AdvOT863180fb;font-size:8.0px;stroke:none;" xmlns:svgx="http://www.xml-cml.org/schema/svgx">Add 10.0 mL of supplemented PBS to the pellet and vortex for 10 s at max speed to resuspend.</text>
  <text svgx:width="0.6,0.53,0.61,0.37,0.41,0.3,0.33,0.6,0.54,0.53,0.55,0.37,0.61,0.53,0.55,0.48,0.53,0.3,0.3,0.45,0.55,0.58,0.58,0.58,0.58,0.55,0.41,0.6,0.93,0.55,0.33,0.57,0.41,0.55,0.58,0.55,0.93,0.3,0.61,0.23,0.55,0.62,0.53,0.93,0.57,0.54,0.53,0.55,0.37,0.61,0.53,0.55,0.45,0.6,0.6,0.53,0.41,0.61,0.52,0.37,0.52,0.61,0.37,0.55,0.52,0.61,0.6,0.55,0.6,0.3,0.45,0.48,0.52,0.41,0.6,0.23,0.55,0.66,0.6,0.6,0.55,0.58,0.58,0.23,0.58,0.55,0.93,0.5,0.55,0.33,0.41,0.53,0.45,0.61" y="111.9" x="45.4,50.3,54.7,59.7,62.8,66.2,68.7,71.5,76.4,80.9,85.2,88.7,91.8,96.8,101.1,104.7,108.7,113.0,115.5,118.0,121.6,125.2,130.0,135.0,140.1,144.7,146.3,149.7,154.6,162.0,165.8,168.6,173.3,176.6,180.2,184.8,186.3,194.0,196.5,201.5,203.4,207.0,212.0,216.3,224.0,228.7,233.1,237.3,240.9,244.0,249.1,253.3,256.9,260.6,265.6,270.6,274.9,278.3,283.3,287.6,290.7,295.0,300.0,303.0,306.6,310.9,316.0,320.7,324.4,329.3,331.8,335.5,339.5,343.8,347.2,352.1,353.9,357.5,363.0,367.9,372.7,376.3,380.5,385.3,387.2,391.9,393.4,401.1,405.1,408.7,411.5,414.9,419.3,423.0" style="fill:rgb(0,0,0);font-family:AdvOT863180fb;font-size:8.0px;stroke:none;" xmlns:svgx="http://www.xml-cml.org/schema/svgx">Centrifuge the cells 5000 rpm for 5 min. Remove the supernatant and discard. Add 10.0 mL fresh</text>
  <text svgx:width="0.45,0.6,0.6,0.6,0.3,0.53,0.93,0.53,0.61,0.37,0.53,0.6,0.55,0.56,0.6,0.53,0.23,0.55,0.62,0.53,0.6,0.53,0.52,0.37,0.55,0.37,0.61,0.53,0.55,0.54,0.57,0.41,0.37,0.53,0.56,0.35,0.86,0.52,0.45,0.61,0.55,0.58,0.67,0.23,0.55,0.66,0.33,0.37,0.53,0.41,0.55,0.37,0.61,0.53,0.55,0.62,0.61,0.52,0.3,0.55,0.86,0.52,0.45,0.61,0.23,0.55,0.41,0.53,0.93,0.57,0.54,0.53,0.55,0.52,0.45,0.55,0.93,0.6,0.48,0.61,0.55,0.56,0.6,0.53,0.55,0.52,0.45,0.55,0.6,0.57,0.45,0.45,0.3,0.58,0.3,0.53" y="122.3" x="45.4,49.1,54.0,59.0,63.9,66.4,70.8,78.5,82.8,87.9,90.9,95.3,100.1,102.3,106.9,112.0,116.3,118.1,120.4,125.3,129.7,134.7,139.0,143.3,146.3,148.5,151.6,156.6,160.9,163.1,167.6,172.3,175.7,178.6,182.8,187.4,190.3,197.3,201.6,205.3,210.1,212.4,217.2,222.8,224.6,226.8,232.3,235.1,238.1,242.5,245.8,248.0,251.1,256.1,260.4,262.6,267.8,272.8,277.1,279.5,281.7,288.6,292.9,296.6,301.6,303.5,305.7,309.1,313.5,321.1,325.8,330.1,334.3,336.6,340.9,344.5,346.7,354.4,359.3,363.3,368.2,370.5,375.2,380.2,384.4,386.6,390.9,394.5,396.7,401.7,406.4,410.1,413.8,416.3,421.1,423.5" style="fill:rgb(0,0,0);font-family:AdvOT863180fb;font-size:8.0px;stroke:none;" xmlns:svgx="http://www.xml-cml.org/schema/svgx">supplemented PBS. Repeat the vortex/wash 2X. After the ﬁnal wash, remove as much PBS as possible</text>
  <text svgx:width="0.86,0.3,0.37,0.61,0.57,0.6,0.37,0.55,0.6,0.3,0.45,0.41,0.6,0.6,0.37,0.3,0.61,0.54,0.55,0.37,0.61,0.53,0.55,0.6,0.53,0.3,0.3,0.53,0.37,0.55,0.57,0.33,0.55,0.48,0.53,0.3,0.3,0.45,0.55,0.3,0.61,0.55,0.37,0.61,0.53,0.55,0.58,0.57,0.37,0.37,0.57,0.93,0.57,0.33,0.55,0.37,0.61,0.53,0.55,0.37,0.6,0.58,0.53,0.23,0.55,0.66,0.33,0.37,0.53,0.41,0.55,0.37,0.61,0.53,0.55,0.37,0.61,0.3,0.41,0.6,0.55,0.86,0.52,0.45,0.61,0.23,0.55,0.41,0.53,0.45,0.6,0.45,0.6,0.53,0.61,0.6,0.55,0.48,0.53,0.3,0.3,0.45,0.55,0.3,0.61" y="132.8" x="45.4,52.5,55.0,58.1,63.1,67.8,72.8,75.7,77.6,82.5,85.0,88.7,92.1,97.1,102.0,105.1,107.6,112.6,116.9,118.7,121.8,126.8,131.1,132.9,137.9,142.3,144.7,147.2,151.6,154.5,156.3,161.0,163.6,165.4,169.4,173.8,176.2,178.7,182.3,184.1,186.6,191.5,193.4,196.5,201.5,205.7,207.5,212.3,217.0,220.1,223.1,227.8,237.1,241.8,244.5,246.4,249.5,254.6,258.8,260.6,263.7,268.7,273.5,277.8,279.7,281.5,287.0,289.8,292.9,297.2,300.5,302.3,305.4,310.5,314.7,316.5,319.6,324.6,327.1,330.5,335.3,337.0,344.0,348.3,352.0,357.0,358.9,360.7,364.1,368.4,372.1,377.1,380.8,385.8,390.1,395.1,399.9,401.7,405.7,410.0,412.5,415.0,418.6,420.4,422.9" style="fill:rgb(0,0,0);font-family:AdvOT863180fb;font-size:8.0px;stroke:none;" xmlns:svgx="http://www.xml-cml.org/schema/svgx">without disrupting the pellet of cells in the bottomof the tube. After the third wash, resuspend cells in</text>
  <text svgx:width="0.58,0.23,0.58,0.55,0.93,0.5,0.55,0.45,0.6,0.6,0.6,0.3,0.53,0.93,0.53,0.61,0.37,0.53,0.6,0.55,0.5,0.53,0.3,0.58,0.57,0.54,0.3,0.37,0.5" y="143.3" x="45.4,50.2,52.1,56.7,58.3,66.0,69.9,72.9,76.5,81.5,86.5,91.4,93.9,98.3,106.0,110.3,115.3,118.4,122.7,127.5,130.4,134.5,138.9,141.4,146.2,150.9,155.4,157.9,160.9" style="fill:rgb(0,0,0);font-family:AdvOT863180fb;font-size:8.0px;stroke:none;" xmlns:svgx="http://www.xml-cml.org/schema/svgx">6.0 mL supplemented Leibovitz</text>
  <text svgx:width="0.0,0.0,0.0,0.0,0.0,0.0,0.0,0.0,0.0,0.0,0.0,0.0" y="143.3" x="165.0,165.0,165.0,165.0,165.0,165.0,165.0,165.0,165.0,165.0,165.0,165.0" style="fill:rgb(0,0,0);font-family:AdvP48722B;font-size:8.0px;stroke:none;" xmlns:svgx="http://www.xml-cml.org/schema/svgx">[11_TD$DIFF]</text>
  <text svgx:width="0.23,0.45,0.23" y="143.3" x="165.0,167.0,170.7" style="fill:rgb(0,0,0);font-family:AdvOT863180fb;font-size:8.0px;stroke:none;" xmlns:svgx="http://www.xml-cml.org/schema/svgx">'s.</text>
  <text svgx:width="0.93,0.52,0.3,0.61,0.37,0.52,0.3,0.61,0.55,0.6,0.41,0.3,0.93,0.52,0.41,0.55,0.55,0.48,0.53,0.3,0.3,0.55,0.48,0.6,0.3,0.37,0.6,0.41,0.53,0.55,0.52,0.61,0.6,0.55,0.61,0.52,0.41,0.54,0.53,0.45,0.37,0.55,0.93,0.53,0.6,0.3,0.52,0.55,0.53,0.54,0.53,0.41,0.55,0.55,0.58,0.58,0.55,0.61,0.55,0.33,0.57,0.41,0.55,0.52,0.55,0.93,0.52,0.56,0.3,0.93,0.6,0.93,0.55,0.57,0.33,0.55,0.58,0.55,0.6,0.52,0.55,0.45,0.23" y="153.8" x="57.3,65.1,69.4,71.8,76.9,80.0,84.2,86.7,91.6,94.3,99.3,102.7,105.2,112.9,117.2,120.6,124.9,127.7,131.6,136.0,138.5,140.9,143.7,147.7,152.7,155.1,158.2,163.2,166.6,170.8,173.6,177.9,183.0,187.7,190.7,195.7,200.0,203.4,207.9,212.1,215.8,218.8,221.7,229.4,233.8,238.7,241.2,245.3,248.3,252.6,257.0,261.3,264.7,269.1,272.1,276.9,281.5,282.9,287.8,290.7,293.5,298.2,301.4,304.3,308.4,311.3,319.0,323.3,327.9,330.4,338.1,343.1,350.5,353.5,358.2,360.9,363.7,368.4,369.9,374.8,379.1,383.5,387.2" style="fill:rgb(0,0,0);font-family:AdvOT863180fb;font-size:8.0px;stroke:none;" xmlns:svgx="http://www.xml-cml.org/schema/svgx">Maintain primary cell culture and harvest media every 24 h for a maximum of 5 days.</text>
  <text svgx:width="0.51,0.57,0.41,0.55,0.6,0.45,0.53,0.55,0.3,0.61,0.55,0.58,0.53,0.61,0.52,0.54,0.3,0.57,0.41,0.52,0.3,0.55,0.52,0.45,0.45,0.52,0.55,0.45,0.23,0.55,0.37,0.61,0.52,0.86,0.55,0.33,0.41,0.57,0.5,0.53,0.61,0.55,0.93,0.53,0.6,0.3,0.52,0.55,0.3,0.61,0.55,0.48,0.57,0.61,0.3,0.48,0.52,0.3,0.55,0.54,0.3,0.52,0.3,0.45,0.55,0.57,0.61,0.55,0.3,0.48,0.53,0.23,0.55,1.04,0.52,0.41,0.93,0.55,0.37,0.61,0.53,0.55,0.54,0.3,0.52,0.3,0.55,0.37,0.57,0.55,0.41,0.57,0.57,0.93" y="164.2" x="57.3,61.5,66.2,69.5,72.6,77.6,81.3,85.5,88.7,91.2,96.1,99.3,104.1,108.4,113.5,117.6,122.1,124.6,129.3,132.7,137.0,139.3,142.4,146.7,150.4,154.1,158.4,162.8,166.5,168.3,171.4,174.5,179.6,183.7,190.5,193.9,196.6,200.0,204.7,208.9,213.2,218.1,221.2,228.9,233.3,238.2,240.7,244.8,248.1,250.6,255.4,258.6,262.6,267.3,272.3,274.8,278.8,283.1,285.5,288.5,293.0,295.5,299.8,302.3,305.8,309.0,313.7,318.6,321.8,324.3,328.3,332.7,334.5,337.7,345.9,350.2,353.6,361.0,364.4,367.5,372.5,376.8,379.9,384.4,386.9,391.2,393.6,396.7,399.8,404.4,407.5,410.9,415.6,420.3" style="fill:rgb(0,0,0);font-family:AdvOT863180fb;font-size:8.0px;stroke:none;" xmlns:svgx="http://www.xml-cml.org/schema/svgx">For use in behavioral assays, thaw frozen media in conical vials on ice. Warm the vial to room</text>
  <text svgx:width="0.37,0.53,0.93,0.6,0.53,0.41,0.52,0.37,0.6,0.41,0.53,0.55,0.86,0.3,0.37,0.61,0.55,0.61,0.52,0.61,0.6,0.45,0.55,0.31,0.6,0.45,0.37,0.55,0.6,0.41,0.3,0.57,0.41,0.55,0.37,0.57,0.55,0.6,0.45,0.53,0.23" y="174.7" x="45.4,48.4,52.8,60.5,65.4,69.8,73.0,77.3,80.4,85.4,88.8,93.0,95.8,102.9,105.4,108.4,113.3,116.2,121.2,125.5,130.6,135.5,139.1,142.0,144.5,149.5,153.2,156.1,159.0,164.0,167.4,169.9,174.6,177.8,180.7,183.8,188.4,191.2,196.2,199.9,204.3" style="fill:rgb(0,0,0);font-family:AdvOT863180fb;font-size:8.0px;stroke:none;" xmlns:svgx="http://www.xml-cml.org/schema/svgx">temperature with hands just prior to use.</text>
  <text svgx:width="0.57,0.48,0.56,0.53,0.52,0.29,0.53,0.4,0.53,0.27,0.55,0.53,0.41,0.41,0.53,0.52" y="195.6" x="45.4,50.1,54.1,58.8,63.2,67.5,69.8,74.3,77.3,81.7,83.8,86.7,91.2,94.5,97.9,102.3" style="fill:rgb(0,0,0);font-family:AdvOTf2586c63.I;font-size:8.0px;stroke:none;" xmlns:svgx="http://www.xml-cml.org/schema/svgx">Behavioral assay</text>
  <text svgx:width="0.51,0.57,0.41,0.55,0.58,0.53,0.61,0.52,0.54,0.3,0.57,0.41,0.52,0.3,0.55,0.52,0.45,0.45,0.52,0.55,0.45,0.23,0.55,0.45,0.53,0.56,0.6,0.52,0.3,0.3,0.55,0.55,0.3,0.93,0.93,0.52,0.37,0.6,0.41,0.53,0.55,0.48,0.41,0.53,0.53,0.56,0.55,0.48,0.61,0.6,0.58,0.55,0.86,0.53,0.41,0.53,0.55,0.37,0.41,0.52,0.61,0.45,0.33,0.53,0.41,0.41,0.53,0.6,0.55,0.37,0.57,0.55,0.52,0.55,0.41,0.57,0.57,0.93,0.86,0.3,0.37,0.61,0.55,0.3,0.57,0.86,0.55,0.3,0.53,0.54,0.53,0.3,0.45,0.55,0.57,0.33" y="216.5" x="57.3,61.5,66.2,69.5,71.5,76.3,80.6,85.7,89.8,94.3,96.8,101.5,104.9,109.2,111.6,113.5,117.8,121.5,125.2,129.5,133.8,137.5,139.4,141.4,145.1,149.3,153.9,158.9,163.2,165.7,168.2,172.5,174.6,177.0,184.7,192.4,196.7,199.8,204.8,208.2,212.4,214.4,218.4,221.8,226.1,230.5,235.0,237.0,240.9,246.0,250.9,255.6,257.5,264.6,269.0,272.2,276.5,278.5,281.6,285.0,289.3,294.3,297.9,300.7,305.0,308.4,311.8,316.2,321.0,323.0,326.1,330.7,332.7,336.8,338.9,342.3,347.0,351.7,361.0,368.1,370.6,373.7,378.5,380.6,383.1,387.8,394.7,396.7,399.2,403.6,408.1,412.4,414.9,418.5,420.5,425.2" style="fill:rgb(0,0,0);font-family:AdvOT863180fb;font-size:8.0px;stroke:none;" xmlns:svgx="http://www.xml-cml.org/schema/svgx">For behavioral assays, sexually immature creek chub were transferred to a roomwith low levels of</text>
  <text svgx:width="0.3,0.3,0.54,0.61,0.37,0.82,0.86,0.3,0.61,0.6,0.57,0.86,0.45,0.55,0.52,0.61,0.6,0.55,0.86,0.61,0.3,0.37,0.53,0.55,0.62,0.57,0.57,0.41,0.45,0.55,0.86,0.53,0.41,0.53,0.55,0.48,0.57,0.54,0.53,0.41,0.53,0.6,0.55,0.86,0.3,0.37,0.61,0.55,0.58,0.3,0.52,0.48,0.56,0.55,0.48,0.3,0.57,0.37,0.61,0.55,0.37,0.57,0.55,0.93,0.3,0.61,0.3,0.93,0.3,0.5,0.53,0.55,0.37,0.41,0.52,0.61,0.45,0.93,0.3,0.45,0.45,0.3,0.57,0.61,0.55,0.52,0.61,0.6" y="226.9" x="45.4,47.8,50.3,54.8,59.8,62.8,69.6,76.7,79.2,84.2,89.1,93.8,100.7,104.3,108.8,113.1,118.1,122.9,127.4,134.5,139.5,142.0,145.1,149.3,153.8,158.9,163.6,168.3,171.7,175.2,179.7,186.8,191.2,194.4,198.6,203.1,207.1,211.8,216.1,220.5,223.9,228.2,233.0,237.4,244.5,247.0,250.1,255.0,259.5,264.3,266.8,271.1,274.9,279.4,283.9,287.8,290.3,295.0,298.1,303.0,307.4,310.5,315.0,319.5,327.1,329.6,334.7,337.1,344.8,347.3,351.4,355.7,360.1,363.2,366.6,370.9,375.9,379.6,387.3,389.8,393.5,397.2,399.7,404.4,409.2,413.7,418.0,423.0" style="fill:rgb(0,0,0);font-family:AdvOT863180fb;font-size:8.0px;stroke:none;" xmlns:svgx="http://www.xml-cml.org/schema/svgx">light—windows and white ﬂoors were covered with black cloth to minimize transmission and</text>
  <text svgx:width="0.41,0.53,0.62,0.53,0.48,0.37,0.3,0.57,0.61,0.55,0.57,0.33,0.55,0.3,0.3,0.54,0.61,0.37,0.23,0.55,0.41,0.53,0.45,0.6,0.53,0.48,0.37,0.3,0.54,0.53,0.3,0.55,0.23,0.55,0.51,0.3,0.45,0.61,0.55,0.86,0.53,0.41,0.53,0.55,0.93,0.52,0.37,0.48,0.61,0.53,0.6,0.55,0.33,0.57,0.41,0.55,0.52,0.54,0.53,0.55,0.58,0.55,0.55,0.45,0.3,0.5,0.53,0.55,0.52,0.61,0.6,0.55,0.58,0.55,0.62,0.45,0.61,0.55,0.86,0.53,0.41,0.53,0.55,0.6,0.3,0.52,0.48,0.53,0.6,0.55,0.3,0.61,0.55,0.52,0.61,0.55,0.52,0.53,0.41,0.52,0.37,0.53,0.6" y="237.4" x="45.4,48.8,53.0,58.2,62.5,66.5,69.6,72.1,76.8,81.6,83.7,88.4,91.0,93.0,95.5,98.0,102.5,107.5,110.6,112.4,114.4,117.8,122.2,125.7,130.7,135.1,139.0,142.1,144.6,148.9,153.3,155.8,159.9,161.7,163.7,167.9,170.4,174.1,179.0,181.0,188.1,192.5,195.8,200.0,202.0,209.7,214.0,217.1,221.0,226.1,230.4,235.2,237.2,240.0,244.7,247.9,249.8,254.1,258.6,262.9,264.8,269.6,274.0,275.8,279.5,282.0,286.1,290.3,292.4,296.7,301.7,306.5,308.5,313.1,315.2,320.4,324.1,328.9,331.0,338.1,342.5,345.7,349.9,351.9,356.8,359.3,363.6,367.6,372.0,376.7,378.8,381.3,386.1,388.2,392.5,397.3,399.3,403.6,408.0,411.4,415.7,418.6,423.0" style="fill:rgb(0,0,0);font-family:AdvOT863180fb;font-size:8.0px;stroke:none;" xmlns:svgx="http://www.xml-cml.org/schema/svgx">reﬂection of light, respectively. Fish were matched for age by size and 3 ﬁsh were placed in an aerated</text>
  <text svgx:width="0.54,0.3,0.52,0.45,0.45,0.55,0.52,0.59,0.6,0.52,0.41,0.3,0.6,0.93,0.23,0.55,0.56,0.61,0.53,0.3,0.41,0.55,0.52,0.48,0.37,0.3,0.54,0.3,0.37,0.55,0.55,0.86,0.52,0.45,0.55,0.6,0.3,0.54,0.3,0.37,0.52,0.3,0.3,0.55,0.55,0.41,0.53,0.48,0.57,0.41,0.6,0.53,0.6,0.55,0.86,0.3,0.37,0.61,0.55,0.52,0.55,0.53,0.57,0.61,0.55,0.55,0.75,0.72,0.62,0.41,0.6,0.67,0.58,0.58,0.58,0.55,0.48,0.52,0.93,0.48,0.57,0.41,0.6,0.53,0.41,0.55,0.37" y="247.9" x="45.4,49.8,52.3,56.6,60.3,63.9,66.8,71.1,75.7,80.7,85.0,88.4,90.9,95.9,103.6,105.4,108.3,112.9,117.9,122.3,124.8,128.0,130.8,135.1,139.1,142.2,144.7,149.2,151.7,154.8,159.1,162.0,168.9,173.2,176.8,179.7,184.6,187.1,191.6,194.1,197.2,201.5,204.0,206.5,210.8,213.7,217.1,221.4,225.4,230.1,233.3,238.2,242.6,247.4,250.3,257.4,259.9,263.0,267.9,270.8,274.9,277.8,282.2,286.9,291.6,296.0,298.9,305.1,311.1,315.9,319.3,324.3,329.9,334.3,338.6,343.2,346.2,350.1,354.4,362.1,366.1,370.8,374.2,379.1,383.3,386.6,389.5" style="fill:rgb(0,0,0);font-family:AdvOT863180fb;font-size:8.0px;stroke:none;" xmlns:svgx="http://www.xml-cml.org/schema/svgx">glass aquarium. Their activity was digitally recorded with a Sony HDR-CX210 camcorder (</text>
  <text svgx:width="0.51,0.3,0.54,0.23" y="247.9" x="392.6,396.8,399.3,403.8" style="fill:rgb(0,99,155);font-family:AdvOT863180fb;font-size:8.0px;stroke:none;" xmlns:svgx="http://www.xml-cml.org/schema/svgx">Fig.</text>
  <text svgx:width="0.0,0.0,0.0,0.0,0.0,0.0,0.0,0.0,0.0,0.0,0.0,0.0" y="247.9" x="408.5,408.5,408.5,408.5,408.5,408.5,408.5,408.5,408.5,408.5,408.5,408.5" style="fill:rgb(0,99,155);font-family:AdvP48722B;font-size:8.0px;stroke:none;" xmlns:svgx="http://www.xml-cml.org/schema/svgx">[12_TD$DIFF]</text>
  <text svgx:width="0.58" y="247.9" x="408.5" style="fill:rgb(0,99,155);font-family:AdvOT863180fb;font-size:8.0px;stroke:none;" xmlns:svgx="http://www.xml-cml.org/schema/svgx">2</text>
  <text svgx:width="0.37,0.23" y="247.9" x="413.6,416.6" style="fill:rgb(0,0,0);font-family:AdvOT863180fb;font-size:8.0px;stroke:none;" xmlns:svgx="http://www.xml-cml.org/schema/svgx">).</text>
  <text svgx:width="0.0,0.0,0.0,0.0,0.0,0.0,0.0,0.0,0.0,0.0,0.0,0.0,0.0,0.0,0.0,0.0" y="264.3" x="45.4,45.4,45.4,45.4,45.4,45.4,45.4,45.4,45.4,45.4,45.4,45.4,45.4,45.4,45.4,45.4" style="fill:rgb(0,0,0);font-family:AdvP48722B;font-size:12.0px;stroke:none;" xmlns:svgx="http://www.xml-cml.org/schema/svgx">[(Fig._2)TD$FIG]</text>
  <text class="image" id="image.4.1" width="215" height="319" y="392.9" x="128.6" style="font-size:8.0px;">image.4.1.129_345.393_713</text>
  <text svgx:width="0.55,0.33,0.57,0.26,0.55,0.58,0.26" y="607.4" x="45.4,49.0,51.2,54.9,56.6,58.7,62.6" style="fill:rgb(0,0,0);font-family:AdvOT18499c10.B;font-size:6.4px;stroke:none;" xmlns:svgx="http://www.xml-cml.org/schema/svgx">Fig. 2.</text>
  <text svgx:width="0.56,0.56,0.6,0.53,0.41,0.3,0.93,0.53,0.61,0.37,0.52,0.3,0.55,0.45,0.53,0.37,0.41,0.6,0.6,0.55,0.52,0.61,0.6,0.55,0.58,0.53,0.61,0.52,0.54,0.3,0.57,0.41,0.52,0.3,0.55,0.52,0.45,0.45,0.52,0.55,0.45,0.23,0.55,0.6,0.53,0.61,0.52,0.54,0.3,0.57,0.41,0.52,0.3,0.55,0.37,0.41,0.3,0.52,0.3,0.45,0.55,0.37,0.57,0.57,0.56,0.55,0.6,0.3,0.52,0.48,0.53,0.55,0.6,0.61,0.6,0.53,0.41,0.55,0.3,0.57,0.86,0.55,0.3,0.3,0.54,0.61,0.37,0.55,0.48,0.57,0.61,0.6,0.3,0.37,0.3,0.57,0.61,0.45,0.82,0.6,0.52,0.41,0.56,0.55,0.48,0.3,0.57,0.37,0.61,0.45,0.55,0.86,0.53,0.41,0.53" y="607.4" x="67.6,71.4,75.1,79.0,82.5,85.2,87.2,93.4,96.9,100.9,103.3,106.8,108.7,110.8,113.8,117.3,119.8,122.5,126.5,130.3,132.5,136.0,140.0,143.8,146.1,149.9,153.4,157.4,160.7,164.3,166.3,170.1,172.8,176.2,178.1,180.3,183.7,186.7,189.6,193.1,196.5,199.5,201.0,203.2,207.2,210.7,214.7,218.0,221.6,223.6,227.3,230.0,233.5,235.4,237.5,240.0,242.7,244.7,248.2,250.1,253.0,255.2,257.6,261.4,265.2,268.7,270.9,274.9,276.9,280.3,283.5,286.9,289.1,293.1,297.1,301.0,304.5,307.1,309.3,311.3,315.0,320.5,322.7,324.7,326.7,330.3,334.3,336.6,338.9,342.1,345.8,349.9,353.8,355.8,358.3,360.3,364.0,368.0,371.0,376.4,380.4,383.8,386.4,390.0,392.3,395.4,397.4,401.2,403.6,407.7,410.5,412.7,418.4,421.8,424.6" style="fill:rgb(0,0,0);font-family:AdvOT863180fb;font-size:6.4px;stroke:none;" xmlns:svgx="http://www.xml-cml.org/schema/svgx">Experimental set-up and behavioral assays. Behavioral trials took place under low light conditions—dark cloths were</text>
  <text svgx:width="0.6,0.45,0.53,0.6,0.55,0.37,0.57,0.55,0.93,0.3,0.61,0.3,0.93,0.3,0.5,0.53,0.55,0.37,0.61,0.53,0.55,0.37,0.41,0.52,0.61,0.45,0.93,0.3,0.45,0.45,0.3,0.57,0.61,0.55,0.52,0.61,0.6,0.55,0.41,0.53,0.62,0.53,0.48,0.37,0.3,0.57,0.61,0.55,0.57,0.33,0.55,0.3,0.3,0.54,0.61,0.37,0.55,0.37,0.58,0.66,0.37,0.23,0.55,0.6,0.53,0.61,0.52,0.54,0.3,0.57,0.41,0.52,0.3,0.55,0.53,0.56,0.6,0.53,0.41,0.3,0.93,0.53,0.61,0.37,0.45,0.55,0.37,0.57,0.57,0.56,0.55,0.6,0.3,0.52,0.48,0.53,0.55,0.3,0.61,0.55,0.52,0.53,0.41,0.52,0.37,0.53,0.6,0.55,0.37,0.52,0.61,0.56,0.45,0.35,0.55,0.58,0.55,0.62,0.45,0.61,0.55,0.86,0.53,0.41,0.53" y="615.9" x="45.4,49.3,52.3,55.8,59.6,61.3,63.8,67.5,69.1,75.2,77.2,81.2,83.2,89.3,91.3,94.6,98.0,99.7,102.2,106.2,109.6,111.3,113.8,116.5,119.9,123.9,126.9,133.0,135.0,138.0,140.9,142.9,146.7,150.6,152.2,155.7,159.7,163.5,165.3,168.0,171.4,175.5,179.0,182.1,184.6,186.6,190.4,194.2,196.0,199.7,201.9,203.5,205.5,207.5,211.1,215.1,217.5,219.2,221.6,225.5,229.8,232.3,233.8,235.4,239.4,242.9,247.0,250.2,253.8,255.8,259.6,262.3,265.7,267.7,269.2,272.6,276.3,280.2,283.7,286.4,288.4,294.6,298.1,302.1,304.5,307.4,309.1,311.6,315.3,319.1,322.6,324.3,328.2,330.2,333.7,336.8,340.2,342.0,344.0,347.8,349.6,353.0,356.5,359.1,362.5,365.0,368.5,372.3,373.9,376.4,379.8,383.9,387.7,390.6,392.8,394.5,398.2,400.0,404.1,407.1,411.0,412.7,418.4,421.9,424.6" style="fill:rgb(0,0,0);font-family:AdvOT863180fb;font-size:6.4px;stroke:none;" xmlns:svgx="http://www.xml-cml.org/schema/svgx">used to minimize the transmission and reﬂection of light (2A). Behavioral experiments took place in aerated tanks; 3 ﬁsh were</text>
  <text svgx:width="0.37,0.53,0.45,0.37,0.53,0.6,0.55,0.6,0.53,0.41,0.55,0.37,0.41,0.3,0.52,0.3,0.55,0.37,0.58,0.6,0.37,0.23" y="624.5" x="45.4,47.8,51.3,54.3,56.6,60.1,63.9,66.3,70.2,73.7,76.3,78.6,81.1,83.8,85.8,89.2,91.2,93.4,95.9,99.7,103.7,106.2" style="fill:rgb(0,0,0);font-family:AdvOT863180fb;font-size:6.4px;stroke:none;" xmlns:svgx="http://www.xml-cml.org/schema/svgx">tested per trial (2B).</text>
  <text svgx:width="0.71,0.23,0.61,0.23,0.55,0.71,0.29,0.58,0.35,0.45,0.55,0.48,0.35,0.55,0.53,0.27,0.23,0.55,0.31,0.55,0.89,0.48,0.35,0.56,0.53,0.56,0.41,0.61,0.55,0.55,0.55,0.37,0.55,0.55,0.55,0.55,0.38,0.55,0.55,0.55,0.55,0.58,0.55,0.55,0.55" y="50.1" x="168.7,173.5,175.0,179.1,180.6,182.8,187.6,189.5,193.3,195.7,198.5,200.9,204.0,206.3,208.6,212.1,213.9,215.4,216.6,218.5,219.7,225.6,228.8,231.2,234.9,238.4,242.1,244.8,248.7,251.0,254.5,256.9,259.4,263.1,266.5,269.6,273.2,275.7,278.0,281.6,285.3,289.0,292.8,296.5,300.2" style="fill:rgb(0,0,0);font-family:AdvOTf2586c63.I;font-size:6.4px;stroke:none;" xmlns:svgx="http://www.xml-cml.org/schema/svgx">H.A. Hintz et al. / MethodsX 4 (2017) 480–485</text>
  <text svgx:width="0.58,0.58,0.58" y="50.1" x="416.4,420.3,424.1" style="fill:rgb(0,0,0);font-family:AdvOT863180fb;font-size:6.4px;stroke:none;" xmlns:svgx="http://www.xml-cml.org/schema/svgx">483</text>
 </g>
</svg>
