<?xml version="1.0" encoding="UTF-8"?>
<svg height="637.4" width="4378.1" xmlns="http://www.w3.org/2000/svg">
 <g>
  <text svgx:width="0.93,0.53,0.37,0.61,0.57,0.6,0.55,0.66,0.41,0.37,0.3,0.48,0.3,0.53" y="163.3" x="39.7,49.0,54.2,57.9,63.9,69.6,75.3,78.8,85.4,89.4,93.2,96.1,100.9,103.9" style="fill:rgb(0,0,0);font-family:AdvOT863180fb;font-size:9.6px;stroke:none;" xmlns:svgx="http://www.xml-cml.org/schema/svgx">Method Article</text>
  <text class="image" id="image.1.1" width="21" height="21" y="295.6" x="368.1" style="font-size:8.0px;">image.1.1.368_390.296_317</text>
  <text svgx:width="0.6,0.6,0.3,0.37,0.6,0.41,0.53,0.6,0.55,0.62,0.45,0.61,0.55,0.53,0.6,0.3,0.37,0.61,0.53,0.3,0.3,0.52,0.3,0.55,0.48,0.53,0.3,0.3,0.45,0.55,0.52,0.41,0.53,0.55,0.52,0.55,0.45,0.57,0.6,0.41,0.48,0.53,0.55,0.57,0.33,0.55,0.52,0.3,0.52,0.41,0.93" y="185.4" x="39.7,48.1,56.5,60.7,65.9,74.3,79.9,87.2,95.3,98.7,107.4,113.7,121.9,125.2,132.6,141.0,145.2,150.4,158.8,166.2,170.4,174.6,181.8,185.9,189.1,195.8,203.2,207.4,211.6,217.6,220.9,228.1,233.7,240.8,244.2,251.2,254.6,260.8,268.7,277.1,282.7,289.4,296.5,299.8,307.8,312.2,315.6,322.8,327.0,334.2,340.0" style="fill:rgb(0,0,0);font-family:AdvOT863180fb;font-size:13.5px;stroke:none;" xmlns:svgx="http://www.xml-cml.org/schema/svgx">Cultured ﬁsh epithelial cells are a source of alarm</text>
  <text svgx:width="0.45,0.6,0.58,0.45,0.37,0.52,0.61,0.48,0.53" y="202.6" x="39.7,45.9,54.3,62.4,68.7,73.9,81.1,89.6,96.3" style="fill:rgb(0,0,0);font-family:AdvOT863180fb;font-size:13.5px;stroke:none;" xmlns:svgx="http://www.xml-cml.org/schema/svgx">substance</text>
  <text svgx:width="0.75,0.53,0.52,0.37,0.61,0.53,0.41,0.55,0.66,0.23,0.55,0.75,0.3,0.61,0.37,0.5,0.23,0.55,0.6,0.57,0.6,0.41,0.37,0.61,0.53,0.55,0.55,1.04,0.53,0.3,0.61,0.3,0.61,0.54,0.23,0.55,0.62,0.52,0.48,0.61,0.53,0.3,0.55,0.6,0.52,0.55,0.53,0.41,0.23" y="225.5" x="39.7,47.9,53.7,59.3,63.4,70.1,75.9,80.2,84.0,91.4,93.8,97.5,105.6,108.9,115.6,119.7,125.2,127.6,130.6,137.2,143.5,150.1,154.6,158.7,165.3,171.1,176.9,180.5,191.5,197.3,200.6,207.2,210.5,217.2,223.1,225.6,228.6,235.4,241.1,246.3,253.0,258.8,261.9,265.6,272.2,277.7,283.5,289.3,293.2" style="fill:rgb(0,0,0);font-family:AdvOT863180fb;font-size:10.6px;stroke:none;" xmlns:svgx="http://www.xml-cml.org/schema/svgx">Heather A. Hintz, Courtney Weihing, Rachel Bayer,</text>
  <text svgx:width="0.72,0.52,0.54,0.3,0.6,0.55,0.5,0.57,0.61,0.5,0.52,0.41,0.3,0.48,0.61,0.23,0.55,1.04,0.3,0.61,0.61,0.3,0.33,0.41,0.53,0.6,0.55,0.6,0.41,0.55,0.52,0.61,0.37" y="238.5" x="39.7,47.6,53.0,59.0,62.3,68.6,72.3,77.8,84.0,90.6,96.1,101.8,106.3,109.6,114.9,121.5,124.0,127.0,138.4,141.7,148.4,155.0,158.3,162.0,166.5,172.3,178.6,182.2,188.8,193.4,199.1,204.8,211.5" style="fill:rgb(0,0,0);font-family:AdvOT863180fb;font-size:10.6px;stroke:none;" xmlns:svgx="http://www.xml-cml.org/schema/svgx">David Lonzarich, Winnifred Bryant</text>
  <text svgx:width="0.42" y="238.0" x="215.5" style="fill:rgb(0,99,155);font-family:AdvOT863180fb;font-size:10.6px;stroke:none;" xmlns:svgx="http://www.xml-cml.org/schema/svgx">*</text>
  <text svgx:width="0.69,0.58,0.29,0.52,0.48,0.4,0.41,0.29,0.35,0.52,0.55,0.53,0.3,0.55,0.98,0.29,0.41,0.45,0.53,0.58,0.41,0.29,0.58,0.55,0.54,0.53,0.58,0.55,0.58,0.27,0.53,0.29,0.4,0.48,0.23,0.55,0.69,0.58,0.29,0.35,0.48,0.56,0.55,0.49,0.35,0.53,0.35,0.48,0.41" y="253.5" x="39.7,44.1,47.8,49.6,52.7,55.8,58.3,60.9,62.7,65.0,68.3,70.4,73.8,75.7,77.8,84.1,85.9,88.5,91.4,94.8,98.5,101.1,102.9,106.6,108.7,112.2,115.6,119.3,121.4,125.1,126.8,130.2,132.0,134.6,137.6,139.1,141.1,145.5,149.2,151.0,153.3,156.3,159.9,162.0,165.1,167.4,170.8,173.0,176.1" style="fill:rgb(0,0,0);font-family:AdvOTf2586c63.I;font-size:6.4px;stroke:none;" xmlns:svgx="http://www.xml-cml.org/schema/svgx">University of Wisconsin Eau Claire, United States</text>
  <text svgx:width="0.7,0.55,0.62,0.55,0.66,0.55,0.56,0.55,0.75,0.55,0.31,0.55,0.6,0.55,0.66,0.55,0.5,0.55,0.66,0.55,0.6,0.55,0.53,0.55,0.56,0.55,0.62,0.55,0.66,0.55,0.6,0.55,0.56" y="274.9" x="39.7,44.1,47.3,51.2,54.3,58.5,61.6,65.1,68.3,73.0,76.1,78.1,81.1,84.9,88.1,92.2,95.4,98.5,104.7,108.9,112.0,115.8,118.9,122.3,125.3,128.8,131.9,135.8,139.0,143.1,146.1,149.9,153.0" style="fill:rgb(0,0,0);font-family:AdvOT863180fb;font-size:6.3px;stroke:none;" xmlns:svgx="http://www.xml-cml.org/schema/svgx">G R A P H I C A L A B S T R A C T</text>
  <text class="image" id="image.1.2" width="151" height="96" y="405.1" x="39.7" style="font-size:8.0px;">image.1.2.40_191.405_501</text>
  <text svgx:width="0.66,0.55,0.6,0.55,0.53,0.55,0.56,0.55,0.62,0.55,0.66,0.55,0.6,0.55,0.56" y="398.8" x="39.7,43.8,47.0,50.8,53.9,57.2,60.3,63.8,66.9,70.8,73.9,78.1,81.1,84.8,88.0" style="fill:rgb(0,0,0);font-family:AdvOT863180fb;font-size:6.3px;stroke:none;" xmlns:svgx="http://www.xml-cml.org/schema/svgx">A B S T R A C T</text>
  <text svgx:width="0.31,0.61,0.55,0.54,0.52,0.41,0.3,0.57,0.6,0.45,0.55,0.45,0.6,0.53,0.48,0.3,0.53,0.45,0.55,0.57,0.33,0.55,0.62,0.45,0.61,0.53,0.45,0.23,0.55,0.37,0.61,0.53,0.55,0.3,0.93,0.6,0.57,0.41,0.37,0.52,0.61,0.48,0.53,0.55,0.57,0.33,0.55,0.54,0.3,0.45,0.6,0.52,0.3,0.55,0.48,0.6,0.53,0.45,0.55,0.3,0.61,0.55,0.37,0.61,0.53,0.55,0.6,0.53,0.37,0.53,0.41,0.93,0.3,0.61,0.52,0.37,0.3,0.57,0.61,0.55,0.57,0.33,0.55,0.53,0.61,0.54,0.3,0.41,0.57,0.61,0.93,0.53,0.61,0.37,0.52,0.3,0.55,0.37,0.61,0.41,0.53,0.52,0.37,0.55,0.52,0.61,0.6" y="414.3" x="39.7,42.0,46.4,49.3,53.2,57.1,60.2,62.4,66.6,71.1,74.3,77.3,80.7,85.1,89.0,92.6,94.9,98.8,102.0,105.0,109.2,111.6,114.6,119.3,122.6,127.1,131.1,134.4,136.0,139.0,141.8,146.3,150.1,153.1,155.4,162.3,166.7,171.0,174.0,176.8,180.7,185.2,188.8,192.6,195.6,199.8,202.2,205.2,209.3,211.5,214.8,219.3,223.2,225.3,228.3,231.9,236.4,240.3,243.5,246.5,248.7,253.1,256.1,258.9,263.4,267.2,270.3,274.8,278.7,281.5,285.4,288.4,295.4,297.5,302.0,305.9,308.6,310.9,315.1,319.5,322.5,326.8,329.1,332.2,336.1,340.6,344.7,346.9,349.8,354.0,358.5,365.5,369.4,373.9,376.7,380.6,382.7,385.7,388.5,393.0,396.0,400.0,403.8,406.5,409.4,413.3,417.8" style="fill:rgb(0,0,0);font-family:AdvOT863180fb;font-size:7.2px;stroke:none;" xmlns:svgx="http://www.xml-cml.org/schema/svgx">In various species of ﬁshes, the importance of visual cues in the determination of environmental threat and</text>
  <text svgx:width="0.45,0.6,0.58,0.45,0.53,0.59,0.6,0.53,0.61,0.37,0.55,0.6,0.41,0.53,0.6,0.52,0.37,0.57,0.41,0.55,0.52,0.54,0.57,0.3,0.6,0.52,0.61,0.48,0.53,0.55,0.3,0.45,0.55,0.48,0.3,0.53,0.52,0.41,0.23,0.55,0.6,0.61,0.53,0.93,0.3,0.48,0.52,0.3,0.55,0.48,0.6,0.53,0.45,0.55,0.52,0.3,0.45,0.57,0.55,0.6,0.3,0.52,0.55,0.55,0.52,0.61,0.55,0.53,0.45,0.45,0.53,0.61,0.37,0.3,0.52,0.3,0.55,0.41,0.57,0.3,0.53,0.55,0.33,0.52,0.48,0.3,0.3,0.3,0.37,0.52,0.37,0.3,0.61,0.54,0.55,0.6,0.41,0.53,0.6,0.52,0.37,0.57,0.41,0.55,0.52,0.54,0.57,0.3,0.6,0.52,0.61,0.48,0.53,0.23" y="423.8" x="39.7,43.0,47.5,51.8,55.1,59.1,63.3,67.8,71.7,76.2,78.8,80.8,85.3,88.4,92.3,96.7,100.6,103.2,107.5,110.4,112.3,116.0,120.0,124.3,126.5,130.9,134.8,139.3,142.9,146.7,148.6,150.8,154.1,156.0,159.6,161.8,165.7,169.6,172.3,173.9,175.9,180.4,184.9,188.9,195.8,198.0,201.6,205.4,207.6,209.5,213.1,217.5,221.5,224.7,226.7,230.5,232.8,236.1,240.2,242.2,246.7,248.9,252.6,256.6,258.4,262.3,266.6,268.7,272.6,275.9,279.2,283.2,287.7,290.5,292.7,296.6,298.7,300.6,303.7,307.9,310.2,314.0,315.9,318.4,322.2,325.8,328.1,330.3,332.5,335.3,339.2,342.0,344.2,348.7,352.6,354.6,359.1,362.1,366.1,370.4,374.2,377.0,381.3,384.2,386.0,389.8,393.8,398.0,400.3,404.7,408.6,413.1,416.7,420.6" style="fill:rgb(0,0,0);font-family:AdvOT863180fb;font-size:7.2px;stroke:none;" xmlns:svgx="http://www.xml-cml.org/schema/svgx">subsequent predator avoidance is clear. Chemical cues also play an essential role facilitating predator avoidance.</text>
  <text svgx:width="0.66,0.93,0.57,0.61,0.54,0.55,0.62,0.45,0.61,0.55,0.3,0.61,0.55,0.37,0.61,0.53,0.55,0.45,0.6,0.6,0.53,0.41,0.57,0.41,0.6,0.53,0.41" y="433.4" x="39.7,44.6,51.5,55.8,60.3,64.1,65.7,70.4,73.7,78.1,79.7,81.9,86.3,87.8,90.6,95.1,98.9,100.5,103.8,108.3,112.7,116.7,119.7,123.9,126.9,131.3,135.2" style="fill:rgb(0,0,0);font-family:AdvOT863180fb;font-size:7.2px;stroke:none;" xmlns:svgx="http://www.xml-cml.org/schema/svgx">Among ﬁsh in the superorder</text>
  <text svgx:width="0.0,0.0,0.0,0.0,0.0,0.0,0.0,0.0,0.0,0.0,0.0" y="433.4" x="139.7,139.7,139.7,139.7,139.7,139.7,139.7,139.7,139.7,139.7,139.7" style="fill:rgb(0,0,0);font-family:AdvP48722B;font-size:7.2px;stroke:none;" xmlns:svgx="http://www.xml-cml.org/schema/svgx">[6_TD$DIFF]</text>
  <text svgx:width="0.72,0.45,0.37,0.52,0.41,0.3,0.57,0.6,0.61,0.55,0.45,0.3,0.23,0.55,0.48,0.3,0.6,0.58,0.55,0.48,0.53,0.3,0.3,0.45,0.55,0.3,0.61,0.55,0.37,0.61,0.53,0.55,0.53,0.6,0.3,0.6,0.53,0.41,0.93,0.3,0.45,0.55,0.6,0.41,0.57,0.6,0.6,0.48,0.53" y="433.4" x="139.7,145.0,148.4,151.1,155.0,158.1,160.3,164.5,169.0,173.3,177.3,180.6,182.8,184.5,186.0,189.6,191.8,196.3,200.5,202.1,205.6,209.6,211.8,214.0,217.2,218.7,221.0,225.3,226.9,229.7,234.2,238.0,239.6,243.5,248.0,250.2,254.6,258.6,261.6,268.5,270.8,274.0,275.5,280.0,283.0,287.2,291.6,296.1,299.6" style="fill:rgb(0,0,0);font-family:AdvOT863180fb;font-size:7.2px;stroke:none;" xmlns:svgx="http://www.xml-cml.org/schema/svgx">Ostariophysi, club cells in the epidermis produce</text>
  <text svgx:width="0.0,0.0,0.0,0.0,0.0,0.0,0.0,0.0,0.0,0.0,0.0" y="433.4" x="305.0,305.0,305.0,305.0,305.0,305.0,305.0,305.0,305.0,305.0,305.0" style="fill:rgb(0,0,0);font-family:AdvP48722B;font-size:7.2px;stroke:none;" xmlns:svgx="http://www.xml-cml.org/schema/svgx">[7_TD$DIFF]</text>
  <text svgx:width="0.52,0.61,0.55,0.52,0.3,0.52,0.41,0.93,0.45,0.6,0.58,0.45,0.37,0.52,0.61,0.48,0.53,0.23,0.55,0.72,0.52,0.93,0.52,0.54,0.53,0.55,0.37,0.57,0.55,0.37,0.61,0.53" y="433.4" x="305.0,308.9,313.2,314.8,318.7,320.9,324.8,327.8,336.2,339.5,344.0,348.3,351.6,354.4,358.3,362.8,366.4,370.3,372.0,373.4,378.8,382.6,389.6,393.4,397.5,401.3,402.7,405.5,409.6,411.0,413.8,418.3" style="fill:rgb(0,0,0);font-family:AdvOT863180fb;font-size:7.2px;stroke:none;" xmlns:svgx="http://www.xml-cml.org/schema/svgx">an alarmsubstance. Damage to the</text>
  <text svgx:width="0.45,0.56,0.3,0.61,0.55,0.6,0.6,0.41,0.3,0.61,0.54,0.55,0.52,0.55,0.6,0.41,0.53,0.6,0.52,0.37,0.3,0.57,0.61,0.55,0.53,0.54,0.53,0.61,0.37,0.55,0.41,0.53,0.3,0.53,0.52,0.45,0.53,0.45,0.55,0.52,0.61,0.55,0.52,0.3,0.52,0.41,0.93,0.55,0.45,0.6,0.58,0.45,0.37,0.52,0.61,0.48,0.53,0.55,0.37,0.66,0.53,0.37,0.23,0.55,0.86,0.61,0.3,0.48,0.61,0.55,0.6,0.3,0.33,0.33,0.6,0.45,0.53,0.45,0.55,0.37,0.61,0.41,0.57,0.6,0.54,0.61,0.55,0.37,0.61,0.53,0.55,0.86,0.52,0.37,0.53,0.41,0.55,0.48,0.57,0.3,0.6,0.93,0.61,0.55,0.52,0.61,0.6" y="442.9" x="39.7,43.0,47.2,49.4,53.8,56.3,60.7,65.2,68.3,70.5,75.0,78.9,81.4,85.1,87.6,92.1,95.2,99.1,103.5,107.4,110.2,112.4,116.6,121.0,123.5,127.4,131.4,135.4,139.9,142.5,145.0,148.0,151.9,154.2,158.1,162.0,165.3,169.2,172.4,174.8,178.7,183.1,185.6,189.5,191.7,195.6,198.6,205.3,207.9,211.2,215.7,220.0,223.4,226.1,230.0,234.5,238.1,241.9,244.4,247.2,252.1,256.0,258.8,260.4,262.9,269.3,273.8,276.1,279.6,284.0,286.5,290.9,293.1,295.6,298.1,302.6,305.9,309.9,313.1,315.6,318.3,322.9,325.9,330.1,334.6,338.7,343.0,345.5,348.3,352.8,356.6,359.0,365.3,369.1,371.9,375.8,378.8,381.1,384.7,388.9,391.1,395.6,402.5,406.9,409.4,413.3,417.8" style="fill:rgb(0,0,0);font-family:AdvOT863180fb;font-size:7.2px;stroke:none;" xmlns:svgx="http://www.xml-cml.org/schema/svgx">skin during a predation event releases an alarm substance (AS), which diffuses through the water column and</text>
  <text svgx:width="0.58,0.3,0.61,0.6,0.45,0.55,0.37,0.57,0.55,0.57,0.3,0.33,0.52,0.48,0.37,0.57,0.41,0.55,0.55,0.41,0.53,0.48,0.53,0.6,0.37,0.57,0.41,0.45,0.55,0.57,0.33,0.55,0.48,0.57,0.61,0.45,0.6,0.53,0.48,0.3,0.62,0.48,0.45,0.23,0.55,0.51,0.3,0.45,0.61,0.55,0.37,0.61,0.53,0.61,0.55,0.53,0.61,0.54,0.52,0.54,0.53,0.55,0.3,0.61,0.55,0.52,0.55,0.61,0.6,0.93,0.58,0.53,0.41,0.55,0.57,0.33,0.55,0.52,0.61,0.37,0.3,0.41,0.6,0.41,0.53,0.6,0.52,0.37,0.57,0.41,0.55,0.58,0.53,0.61,0.52,0.54,0.3,0.57,0.41,0.45,0.55,0.37,0.61,0.52,0.37,0.55,0.93,0.52,0.55" y="452.5" x="39.7,44.0,46.2,50.8,55.2,58.4,60.9,63.7,67.8,70.2,74.4,76.6,79.1,83.0,86.6,89.4,93.6,96.6,100.6,103.0,106.1,110.0,113.6,117.5,121.8,124.6,128.8,131.8,135.1,137.5,141.7,144.1,146.6,150.1,154.4,158.9,162.2,166.7,170.6,174.2,176.4,181.0,184.6,187.9,189.6,192.1,195.9,198.1,201.4,205.8,208.3,211.1,215.6,219.5,223.9,226.4,230.4,234.9,238.9,242.8,246.8,250.6,253.0,255.3,259.6,262.1,265.9,268.3,272.8,277.3,284.2,288.6,292.5,295.4,297.9,302.1,304.5,306.9,310.8,315.3,318.1,320.3,323.4,327.9,330.9,334.9,339.3,343.2,345.8,350.0,352.9,355.4,359.7,363.7,368.2,371.9,376.0,378.2,382.4,385.5,388.7,391.2,394.0,398.5,402.4,405.0,407.5,414.4,418.2" style="fill:rgb(0,0,0);font-family:AdvOT863180fb;font-size:7.2px;stroke:none;" xmlns:svgx="http://www.xml-cml.org/schema/svgx">binds to olfactory receptors of conspeciﬁcs. Fish then engage in a number of anti-predator behaviors that may</text>
  <text svgx:width="0.3,0.61,0.48,0.3,0.6,0.6,0.53,0.55,0.6,0.52,0.41,0.37,0.3,0.61,0.54,0.23,0.55,0.45,0.48,0.61,0.57,0.57,0.3,0.3,0.61,0.54,0.23,0.55,0.57,0.41,0.55,0.61,0.3,0.6,0.3,0.61,0.54,0.23" y="462.0" x="39.7,41.9,46.4,50.0,52.2,56.7,61.2,65.0,67.6,72.0,75.9,78.9,81.7,84.0,88.5,92.5,94.2,96.8,100.1,103.7,108.2,112.4,116.7,118.9,121.1,125.6,129.7,131.3,133.9,138.1,141.1,143.6,148.1,150.4,154.8,157.0,161.6,165.6" style="fill:rgb(0,0,0);font-family:AdvOT863180fb;font-size:7.2px;stroke:none;" xmlns:svgx="http://www.xml-cml.org/schema/svgx">include darting, schooling, or hiding.</text>
  <text svgx:width="0.6,0.53,0.61,0.52,0.54,0.3,0.57,0.41,0.52,0.3,0.55,0.41,0.53,0.45,0.6,0.57,0.61,0.45,0.53,0.45,0.55,0.37,0.57,0.55,0.66,0.53,0.55,0.52,0.61,0.6,0.55,0.6,0.61,0.55,0.45,0.3,0.57,0.3,0.57,0.54,0.3,0.48,0.52,0.3,0.55,0.93,0.53,0.48,0.61,0.52,0.61,0.3,0.45,0.93,0.45,0.55,0.37,0.61,0.52,0.37,0.55,0.6,0.61,0.6,0.53,0.41,0.3,0.3,0.53,0.55,0.37,0.61,0.57,0.45,0.53,0.55,0.41,0.53,0.45,0.6,0.57,0.61,0.45,0.53,0.45,0.55,0.3,0.45,0.55,0.52,0.61,0.55,0.52,0.48,0.37,0.3,0.54,0.53,0.55,0.52,0.41,0.53,0.52,0.55,0.57,0.33" y="471.6" x="46.9,51.4,55.3,59.8,63.5,67.5,69.8,74.0,77.1,80.9,83.1,85.6,88.7,92.6,95.9,100.4,104.6,109.1,112.5,116.4,119.6,122.1,124.9,129.0,131.5,136.5,140.3,142.9,146.7,151.3,155.6,158.2,162.6,167.0,170.9,174.3,176.5,180.7,183.0,187.2,191.2,193.5,197.0,200.9,203.1,205.6,212.5,216.5,220.0,224.6,228.4,232.9,235.2,238.5,245.4,248.7,251.3,254.1,258.6,262.4,265.1,267.7,272.2,276.7,281.2,285.1,288.1,290.4,292.6,296.4,298.9,301.7,306.3,310.5,313.8,317.6,320.2,323.3,327.2,330.5,335.0,339.2,343.7,347.1,351.0,354.2,356.7,359.0,362.2,364.8,368.6,373.0,375.7,379.5,383.1,385.9,388.1,392.0,395.8,398.4,402.3,405.3,409.2,413.0,415.6,419.8" style="fill:rgb(0,0,0);font-family:AdvOT863180fb;font-size:7.2px;stroke:none;" xmlns:svgx="http://www.xml-cml.org/schema/svgx">Behavioral responses to AS and physiological mechanisms that underlie those responses is an active area of</text>
  <text svgx:width="0.45,0.37,0.6,0.6,0.55,0.23,0.55,0.75,0.57,0.86,0.53,0.54,0.53,0.41,0.23,0.55,0.58,0.53,0.48,0.52,0.6,0.45,0.53,0.55,0.37,0.61,0.53,0.55,0.6,0.41,0.53,0.48,0.3,0.45,0.53,0.55,0.48,0.61,0.53,0.93,0.3,0.48,0.52,0.3,0.55,0.48,0.57,0.93,0.6,0.57,0.45,0.3,0.37,0.3,0.57,0.61,0.55,0.57,0.33,0.55,0.37,0.61,0.53,0.55,0.52,0.3,0.52,0.41,0.93,0.55,0.45,0.6,0.58,0.45,0.37,0.52,0.61,0.48,0.53,0.55,0.3,0.45,0.55,0.6,0.61,0.56,0.61,0.57,0.86,0.61,0.23,0.55,0.66,0.53,0.55,0.3,0.45,0.55,0.61,0.57,0.37" y="481.2" x="39.7,43.0,45.8,50.3,54.7,58.5,60.2,63.9,69.5,73.7,80.1,83.9,88.0,91.9,94.5,96.1,99.9,104.2,108.1,111.7,115.6,120.1,123.4,127.2,131.0,133.7,138.3,142.1,145.9,150.3,153.4,157.3,160.9,163.1,166.3,170.1,173.9,177.5,182.0,186.0,192.9,195.1,198.7,202.5,204.7,208.5,212.0,216.3,223.2,227.6,231.9,235.2,237.4,240.2,242.5,246.7,251.1,254.9,259.1,261.5,265.3,268.1,272.6,276.4,280.2,284.1,286.3,290.2,293.3,299.9,303.8,307.1,311.6,316.0,319.3,322.1,325.9,330.4,334.0,337.8,341.6,343.9,347.1,350.9,355.4,359.9,364.0,368.6,372.8,379.2,383.7,385.4,389.0,394.0,397.8,401.6,403.8,407.0,410.8,415.3,419.6" style="fill:rgb(0,0,0);font-family:AdvOT863180fb;font-size:7.2px;stroke:none;" xmlns:svgx="http://www.xml-cml.org/schema/svgx">study. However, because the precise chemical composition of the alarm substance is unknown, AS is not</text>
  <text svgx:width="0.48,0.57,0.93,0.93,0.53,0.41,0.48,0.3,0.52,0.3,0.3,0.55,0.55,0.52,0.54,0.52,0.3,0.3,0.52,0.58,0.3,0.53,0.23,0.55,0.56,0.61,0.6,0.45,0.23,0.55,0.86,0.61,0.53,0.61,0.55,0.62,0.45,0.61,0.55,0.52,0.41,0.53,0.55,0.48,0.61,0.52,0.3,0.3,0.53,0.61,0.54,0.53,0.6,0.55,0.52,0.3,0.52,0.41,0.93,0.55,0.45,0.6,0.58,0.45,0.37,0.52,0.61,0.48,0.53,0.55,0.3,0.61,0.55,0.54,0.52,0.41,0.3,0.57,0.6,0.45,0.55,0.53,0.56,0.6,0.53,0.41,0.3,0.93,0.53,0.61,0.37,0.45,0.55,0.52,0.61,0.6,0.55,0.52,0.45,0.45,0.52,0.55,0.45,0.55,0.3,0.37,0.55,0.3,0.45" y="490.7" x="39.7,43.3,47.5,54.4,61.3,65.2,68.3,71.9,74.1,78.0,80.2,82.3,86.2,88.3,92.1,95.9,99.8,102.0,104.3,108.1,112.4,114.7,118.6,120.2,122.5,126.7,131.2,135.7,139.0,140.7,142.9,149.3,153.8,157.7,162.1,164.4,169.1,172.4,176.8,179.0,182.9,185.8,189.6,191.9,195.5,200.0,203.9,206.1,208.3,212.2,216.8,220.8,224.7,229.0,231.3,235.1,237.3,241.2,244.3,250.9,253.3,256.6,261.1,265.4,268.8,271.5,275.4,279.9,283.5,287.3,289.6,291.8,296.2,298.4,302.3,306.2,309.2,311.5,315.7,320.2,323.4,325.6,329.4,333.5,338.0,341.9,345.0,347.2,354.1,358.1,362.6,365.4,368.6,370.8,374.6,379.2,383.5,385.7,389.6,392.9,396.3,400.1,404.1,407.3,409.6,411.8,414.4,416.7,418.9" style="fill:rgb(0,0,0);font-family:AdvOT863180fb;font-size:7.2px;stroke:none;" xmlns:svgx="http://www.xml-cml.org/schema/svgx">commercially available. Thus, when ﬁsh are challenged alarm substance in various experiments and assays it is</text>
  <text svgx:width="0.57,0.58,0.37,0.52,0.3,0.61,0.53,0.6,0.55,0.33,0.41,0.57,0.93,0.55,0.45,0.56,0.3,0.61,0.55,0.53,0.56,0.37,0.41,0.52,0.48,0.37,0.45,0.55,0.57,0.41,0.55,0.54,0.3,0.52,0.55,0.6,0.53,0.41,0.33,0.6,0.45,0.3,0.57,0.61,0.55,0.57,0.33,0.55,0.45,0.61,0.52,0.3,0.3,0.57,0.86,0.55,0.48,0.6,0.37,0.45,0.55,0.3,0.61,0.55,0.37,0.61,0.53,0.55,0.53,0.6,0.3,0.6,0.53,0.41,0.93,0.3,0.45,0.23,0.55,0.6,0.57,0.37,0.61,0.55,0.6,0.41,0.57,0.48,0.53,0.6,0.6,0.41,0.53,0.45,0.55,0.52,0.41,0.53,0.55,0.53,0.33,0.33,0.53,0.48,0.37,0.3,0.54,0.53,0.55,0.58,0.6,0.37" y="500.3" x="39.7,43.9,48.2,51.0,54.9,57.1,61.6,65.6,69.9,72.2,74.7,77.7,81.9,88.6,90.9,94.2,98.4,100.6,105.0,107.3,111.1,115.2,118.0,120.9,124.8,128.4,131.1,134.4,136.6,140.9,143.8,146.1,150.1,152.4,156.1,158.3,162.8,166.7,169.8,172.3,176.8,180.1,182.3,186.6,190.9,193.2,197.4,199.8,202.1,205.4,210.0,213.8,216.1,218.3,222.5,228.7,230.8,234.4,238.9,241.6,244.9,247.1,249.4,253.7,256.0,258.8,263.3,267.1,269.4,273.3,277.8,280.0,284.5,288.4,291.5,298.4,300.6,303.9,305.6,307.8,312.4,316.5,319.2,323.6,325.9,330.4,333.5,337.7,341.3,345.2,349.6,354.1,357.0,360.9,364.2,366.4,370.3,373.2,377.0,379.3,383.2,385.7,388.2,392.1,395.7,398.5,400.7,404.7,408.5,410.7,415.0,419.5" style="fill:rgb(0,0,0);font-family:AdvOT863180fb;font-size:7.2px;stroke:none;" xmlns:svgx="http://www.xml-cml.org/schema/svgx">obtained from skin extracts or via perfusion of shallow cuts in the epidermis. Both procedures are effective but</text>
  <text svgx:width="0.41,0.53,0.59,0.6,0.3,0.41,0.53,0.55,0.37,0.61,0.53,0.55,0.52,0.61,0.3,0.93,0.52,0.3,0.55,0.37,0.57,0.55,0.58,0.53,0.55,0.45,0.52,0.48,0.41,0.3,0.62,0.48,0.53,0.6,0.23" y="509.9" x="39.7,42.7,46.7,50.8,55.3,57.5,60.6,64.4,66.9,69.7,74.2,78.0,80.6,84.5,89.0,91.2,98.2,102.0,104.2,106.8,109.5,113.6,116.2,120.5,124.3,126.9,130.2,134.1,137.6,140.7,143.0,147.6,151.2,155.1,159.6" style="fill:rgb(0,0,0);font-family:AdvOT863180fb;font-size:7.2px;stroke:none;" xmlns:svgx="http://www.xml-cml.org/schema/svgx">require the animal to be sacriﬁced.</text>
  <text svgx:width="0.31,0.61,0.55,0.37,0.61,0.3,0.45,0.55,0.93,0.52,0.61,0.6,0.45,0.48,0.41,0.3,0.6,0.37,0.23,0.55,0.86,0.53,0.55,0.41,0.53,0.6,0.57,0.41,0.37,0.35" y="519.4" x="46.9,49.2,53.6,56.2,59.0,63.5,65.7,69.0,71.5,78.5,82.3,86.8,91.3,94.7,98.2,101.3,103.5,108.0,110.8,112.4,114.9,121.3,125.1,127.7,130.7,134.5,139.0,143.2,146.3,149.1" style="fill:rgb(0,0,0);font-family:AdvOT863180fb;font-size:7.2px;stroke:none;" xmlns:svgx="http://www.xml-cml.org/schema/svgx">In this manuscript, we report:</text>
  <text code="1" svgx:width="0.5" y="528.2" x="39.7" style="fill:rgb(0,0,0);font-family:AdvP4C4E74;font-size:7.2px;stroke:none;" xmlns:svgx="http://www.xml-cml.org/schema/svgx">?</text>
  <text svgx:width="0.66,0.55,0.61,0.57,0.61,0.41,0.3,0.61,0.54,0.52,0.45,0.3,0.54,0.53,0.55,0.6,0.41,0.3,0.93,0.52,0.41,0.55,0.55,0.48,0.53,0.3,0.3,0.55,0.48,0.6,0.3,0.37,0.6,0.41,0.53,0.55,0.6,0.41,0.57,0.37,0.57,0.48,0.57,0.3,0.55,0.37,0.57,0.55,0.57,0.58,0.37,0.52,0.3,0.61,0.55,0.52,0.3,0.52,0.41,0.93,0.55,0.45,0.6,0.58,0.45,0.37,0.52,0.61,0.48,0.53,0.55,0.52,0.61,0.6,0.55,0.6,0.57,0.53,0.45,0.55,0.61,0.57,0.37,0.55,0.41,0.53,0.59,0.6,0.3,0.41,0.53,0.55,0.37,0.61,0.53,0.55,0.93,0.57,0.6,0.53,0.3" y="529.0" x="46.9,51.6,55.4,59.9,64.1,68.7,71.7,74.0,78.5,82.3,86.1,89.5,91.7,95.6,99.4,103.0,107.5,110.5,112.8,119.7,123.6,126.6,130.6,134.1,137.7,141.6,143.8,146.0,149.6,153.1,157.6,159.8,162.6,167.1,170.2,174.0,177.6,182.0,185.1,189.2,191.9,196.1,199.7,203.9,206.0,209.7,212.4,216.5,220.1,224.4,228.7,231.5,235.3,237.6,241.9,245.6,249.5,251.7,255.6,258.6,265.3,269.1,272.4,276.9,281.2,284.5,287.3,291.2,295.7,299.3,303.1,306.7,310.6,315.1,319.4,323.0,327.5,331.7,335.6,338.9,342.5,347.0,351.2,353.9,357.5,360.6,364.4,368.6,373.1,375.3,378.4,382.2,385.7,388.5,393.0,396.8,400.5,407.5,411.7,416.1,420.0" style="fill:rgb(0,0,0);font-family:AdvOT863180fb;font-size:7.2px;stroke:none;" xmlns:svgx="http://www.xml-cml.org/schema/svgx">A non-invasive primary cell culture protocol to obtain alarm substance and does not require the model</text>
  <text svgx:width="0.57,0.41,0.54,0.52,0.61,0.3,0.45,0.93,0.55,0.37,0.57,0.55,0.58,0.53,0.55,0.56,0.3,0.3,0.3,0.53,0.6,0.23" y="538.6" x="46.9,51.1,54.2,58.2,62.1,66.6,68.8,72.2,78.8,81.6,84.4,88.5,91.0,95.3,99.1,101.8,105.9,108.2,110.4,112.6,116.5,121.0" style="fill:rgb(0,0,0);font-family:AdvOT863180fb;font-size:7.2px;stroke:none;" xmlns:svgx="http://www.xml-cml.org/schema/svgx">organism to be killed.</text>
  <text svgx:width="0.42,0.55,0.6,0.57,0.41,0.41,0.53,0.45,0.6,0.57,0.61,0.6,0.3,0.61,0.54,0.55,0.52,0.6,0.37,0.61,0.57,0.41,0.23" y="583.1" x="45.4,48.0,51.6,55.6,59.4,62.1,64.8,68.3,71.3,75.2,79.0,83.0,87.0,89.0,93.0,96.4,98.7,102.1,106.1,108.6,112.6,116.4,118.8" style="fill:rgb(0,0,0);font-family:AdvOT863180fb;font-size:6.4px;stroke:none;" xmlns:svgx="http://www.xml-cml.org/schema/svgx">* Corresponding author.</text>
  <text svgx:width="0.54,0.41,0.86,0.53,0.29,0.27,0.55,0.53,0.56,0.56,0.4,0.48,0.41,0.41,0.32" y="591.7" x="51.6,55.2,57.9,63.7,67.2,69.1,70.8,72.9,76.4,80.1,83.8,86.4,89.6,92.3,95.0" style="fill:rgb(0,0,0);font-family:AdvOTf2586c63.I;font-size:6.4px;stroke:none;" xmlns:svgx="http://www.xml-cml.org/schema/svgx">E-mail address:</text>
  <text svgx:width="0.58,0.41,0.55,0.52,0.61,0.37,0.86,0.93,0.78,0.6,0.86,0.53,0.48,0.23,0.53,0.6,0.6" y="591.7" x="99.0,102.9,105.6,109.1,112.5,116.5,119.0,124.7,130.8,136.0,140.0,145.7,149.2,152.4,153.9,157.4,161.4" style="fill:rgb(0,99,155);font-family:AdvOT863180fb;font-size:6.4px;stroke:none;" xmlns:svgx="http://www.xml-cml.org/schema/svgx">bryantwm@uwec.edu</text>
  <text svgx:width="0.37,1.04,0.23,0.55,0.6,0.41,0.55,0.52,0.61,0.37,0.37,0.23" y="591.7" x="167.3,169.8,176.3,177.8,179.9,183.9,186.6,190.1,193.5,197.5,200.0,202.5" style="fill:rgb(0,0,0);font-family:AdvOT863180fb;font-size:6.4px;stroke:none;" xmlns:svgx="http://www.xml-cml.org/schema/svgx">(W. Bryant).</text>
  <text svgx:width="0.61,0.37,0.37,0.6,0.45,0.35,0.35,0.35,0.6,0.57,0.3,0.23,0.57,0.41,0.54,0.35,0.58,0.58,0.23,0.58,0.58,0.58,0.58,0.35,0.31,0.23,0.93,0.53,0.56,0.23,0.58,0.58,0.58,0.58,0.23,0.58,0.58,0.23,0.58,0.58,0.58" y="610.2" x="39.7,43.7,46.2,48.6,52.6,55.6,57.9,60.2,62.6,66.5,70.3,72.3,73.8,77.6,80.3,83.9,86.2,89.6,93.5,94.6,98.0,101.6,105.0,108.9,111.2,113.3,114.8,121.0,124.3,127.9,129.5,133.3,137.0,140.2,143.5,144.6,147.7,151.0,152.5,156.6,160.4" style="fill:rgb(0,99,155);font-family:AdvOT863180fb;font-size:6.4px;stroke:none;" xmlns:svgx="http://www.xml-cml.org/schema/svgx">https://doi.org/10.1016/j.mex.2017.11.003</text>
  <text svgx:width="0.58,0.58,0.58,0.58,0.41,0.58,0.58,0.58,0.58,0.35,0.79,0.55,0.58,0.58,0.58,0.58,0.55,0.56,0.61,0.53,0.55,0.66,0.6,0.37,0.61,0.57,0.41,0.45,0.23,0.55,0.56,0.6,0.58,0.3,0.3,0.45,0.61,0.53,0.6,0.55,0.58,0.55,0.55,0.56,0.3,0.45,0.53,0.54,0.3,0.53,0.41,0.55,0.6,0.23,0.66,0.23,0.55,0.56,0.61,0.3,0.45,0.55,0.3,0.45,0.55,0.52,0.61,0.55,0.57,0.6,0.53,0.61,0.55,0.52,0.48,0.48,0.53,0.45,0.45,0.55,0.52,0.41,0.37,0.3,0.48,0.3,0.53,0.55,0.6,0.61,0.6,0.53,0.41,0.55,0.37,0.61,0.53,0.55,0.6,0.6,0.55,0.6,0.62,0.55,0.3,0.3,0.48,0.53,0.61,0.45,0.53,0.55,0.37" y="618.9" x="39.7,43.5,47.1,50.5,54.4,57.1,60.7,64.1,67.7,71.6,73.9,79.0,81.9,85.8,89.4,92.6,96.3,99.2,102.9,106.9,110.3,113.2,117.4,121.4,123.9,127.9,131.6,134.4,137.3,138.8,141.7,145.4,149.4,153.2,155.2,157.2,160.2,164.2,167.7,171.5,174.3,178.2,181.7,184.5,188.3,190.3,193.2,196.7,200.3,202.3,205.8,208.4,211.2,215.2,216.8,221.2,222.7,225.5,229.2,233.2,235.2,238.1,240.9,242.9,245.8,248.6,252.1,256.0,258.9,262.6,266.6,270.1,274.0,276.9,280.3,283.5,286.7,290.2,293.1,296.0,298.8,302.3,305.0,307.4,309.4,312.6,314.6,318.0,320.9,324.9,328.9,332.8,336.3,338.9,341.8,344.3,348.3,351.7,354.5,358.5,362.3,365.3,369.1,373.1,376.0,378.0,379.9,383.1,386.6,390.6,393.6,397.0,399.8" style="fill:rgb(0,0,0);font-family:AdvOT863180fb;font-size:6.4px;stroke:none;" xmlns:svgx="http://www.xml-cml.org/schema/svgx">2215-0161/© 2017 The Authors. Published by Elsevier B.V. This is an open access article under the CC BY license (</text>
  <text svgx:width="0.61,0.37,0.37,0.6,0.35,0.35,0.35" y="618.9" x="402.3,406.3,408.8,411.3,415.2,417.6,419.9" style="fill:rgb(0,99,155);font-family:AdvOT863180fb;font-size:6.4px;stroke:none;" xmlns:svgx="http://www.xml-cml.org/schema/svgx">http://</text>
  <text svgx:width="0.48,0.41,0.53,0.52,0.37,0.3,0.54,0.53,0.48,0.57,0.93,0.93,0.57,0.61,0.45,0.23,0.57,0.41,0.54,0.35,0.3,0.3,0.48,0.53,0.61,0.45,0.53,0.45,0.35,0.58,0.55,0.35,0.58,0.23,0.58,0.35" y="627.4" x="39.7,42.9,45.6,49.1,52.5,55.0,56.8,60.4,63.9,67.1,70.8,77.0,83.1,86.9,90.9,93.9,95.4,99.2,101.9,105.5,107.8,109.8,111.8,115.0,118.5,122.5,125.4,128.9,131.9,134.2,138.0,141.6,143.9,147.7,149.3,153.1" style="fill:rgb(0,99,155);font-family:AdvOT863180fb;font-size:6.4px;stroke:none;" xmlns:svgx="http://www.xml-cml.org/schema/svgx">creativecommons.org/licenses/by/4.0/</text>
  <text svgx:width="0.37,0.23" y="627.4" x="155.5,157.9" style="fill:rgb(0,0,0);font-family:AdvOT863180fb;font-size:6.4px;stroke:none;" xmlns:svgx="http://www.xml-cml.org/schema/svgx">).</text>
  <text svgx:width="0.93,0.53,0.37,0.61,0.57,0.6,0.45,0.67,0.55,0.58,0.55,0.37,0.58,0.58,0.58,0.58,0.37,0.55,0.58,0.58,0.58,0.58,0.58,0.58,0.58" y="50.5" x="187.0,193.2,196.7,199.1,203.1,206.9,210.9,213.8,218.1,220.4,224.1,226.5,228.9,232.8,236.4,239.6,243.4,245.8,248.1,252.0,255.8,259.7,263.5,267.4,271.3" style="fill:rgb(0,99,155);font-family:AdvOT863180fb;font-size:6.4px;stroke:none;" xmlns:svgx="http://www.xml-cml.org/schema/svgx">MethodsX 4 (2017) 480–485</text>
  <text svgx:width="0.67,0.61,0.61,0.33,0.55,0.61,0.33,0.5,0.55,0.28,0.28,0.5,0.33,0.5,0.55,0.55,0.55,0.55,0.28,0.28,0.55,0.61,0.28,0.55,0.55,0.55,0.33" y="77.7" x="153.8,159.3,164.4,169.5,172.3,176.8,181.9,184.7,188.7,191.6,193.9,196.2,200.4,203.1,207.1,210.0,214.6,219.2,223.8,226.1,228.4,233.0,238.1,240.4,244.8,247.7,252.3" style="fill:rgb(0,0,0);font-family:AdvPAC3D;font-size:8.0px;stroke:none;" xmlns:svgx="http://www.xml-cml.org/schema/svgx">Contents lists available at</text>
  <text svgx:width="0.67,0.5,0.28,0.55,0.61,0.5,0.55,0.72,0.28,0.38,0.55,0.5,0.33" y="77.7" x="257.8,263.3,267.4,269.8,274.4,279.4,283.6,288.2,294.1,296.4,299.6,304.2,308.4" style="fill:rgb(0,99,155);font-family:AdvPAC3D;font-size:8.0px;stroke:none;" xmlns:svgx="http://www.xml-cml.org/schema/svgx">ScienceDirect</text>
  <text svgx:width="0.93,0.53,0.37,0.61,0.57,0.6,0.45,0.67" y="106.7" x="198.3,211.8,219.4,224.8,233.6,241.9,250.5,257.0" style="fill:rgb(0,0,0);font-family:AdvOT863180fb;font-size:14.0px;stroke:none;" xmlns:svgx="http://www.xml-cml.org/schema/svgx">MethodsX</text>
  <text svgx:width="0.28,0.55,0.61,0.61,0.38,0.61,0.55,0.28,0.55,0.61,0.61,0.95,0.55,0.61,0.55,0.61,0.55,0.28" y="133.4" x="121.3,123.5,124.2,130.0,135.7,139.5,145.2,150.4,152.7,156.2,162.0,167.7,176.2,181.4,187.2,192.4,198.1,203.3" style="fill:rgb(0,0,0);font-family:AdvPAC3D;font-size:8.0px;stroke:none;" xmlns:svgx="http://www.xml-cml.org/schema/svgx">j ournal homepage:</text>
  <text svgx:width="0.83,0.83,0.83,0.28,0.55,0.55,0.28,0.55,0.5,0.55,0.55,0.28,0.55,0.55,0.38,0.28,0.55,0.5,0.61,0.95,0.28,0.55,0.28,0.55,0.61,0.5,0.55,0.33,0.55,0.55,0.28,0.55,0.95,0.55,0.55" y="133.4" x="209.0,216.6,224.1,231.7,233.9,234.6,239.9,242.1,242.8,247.6,252.8,258.1,260.3,261.0,266.2,270.1,272.3,273.0,277.8,283.6,292.1,294.3,295.0,297.3,298.0,303.7,308.5,313.7,316.4,317.2,322.4,324.6,325.4,333.9,339.1" style="fill:rgb(0,99,155);font-family:AdvPAC3D;font-size:8.0px;stroke:none;" xmlns:svgx="http://www.xml-cml.org/schema/svgx">www. el sevi er. com/ l ocat e/ mex</text>
  <text class="image" id="image.1.3" width="59" height="65" y="190.4" x="39.7" style="font-size:8.0px;">image.1.3.40_99.190_256</text>
  <text class="image" id="image.1.4" width="56" height="71" y="184.0" x="365.7" style="font-size:8.0px;">image.1.4.366_422.184_256</text>
 </g>
</svg>
