<?xml version="1.0" encoding="UTF-8"?>
<svg height="766.0" width="4046.0" xmlns="http://www.w3.org/2000/svg">
 <g id="page" xmlns:svgx="http://www.xml-cml.org/schema/svgx">
  <path style="fill:rgb(58,90,166);stroke:none;stroke-width:1.0;" d="M281.200 358.870 L290.720 358.870 Z"/>
  <path style="fill:rgb(58,90,166);stroke:none;stroke-width:1.0;" d="M389.250 684.060 L398.780 684.060 Z"/>
  <g begin="text">
   <text y="84.586" x="211.975,218.075,223.345,227.645,229.833,238.013,242.243,245.223,249.553,255.033,259.363,264.633,269.793,272.253,274.913,280.183,283.783,286.072,292.902,297.132,300.842,305.142,307.275,310.875,315.105,317.565,321.795,326.025,329.005,333.235,338.535,340.78,345.11,350.59,355.89,358.071,363.341,366.001,370.541,373.201,378.471,382.701,388.00100000000003,390.216,392.876,398.356,401.336,406.43600000000004,408.641,413.44100000000003,415.614,420.254,423.964,429.024,434.294,439.454,443.05400000000003,445.264,450.324,453.224,455.412,460.162,464.962,467.148,470.748,476.018,481.078,483.638,487.868,492.098,495.078,498.678,500.936,503.596,509.096,511.311,515.541,519.871,524.101,529.401,531.607,534.587,538.817,542.417,545.417,547.594,550.574,555.844,560.904,565.134" svgx:width="0.61,0.53,0.43,0.55,0.82,0.43,0.3,0.44,0.55,0.44,0.53,0.52,0.25,0.27,0.53,0.36,0.55,0.69,0.43,0.38,0.43,0.55,0.36,0.43,0.25,0.43,0.43,0.3,0.43,0.53,0.55,0.44,0.55,0.53,0.55,0.53,0.27,0.46,0.27,0.53,0.43,0.53,0.55,0.27,0.55,0.3,0.51,0.55,0.48,0.55,0.47,0.38,0.51,0.53,0.52,0.36,0.55,0.51,0.29,0.55,0.48,0.48,0.55,0.36,0.53,0.51,0.26,0.43,0.43,0.3,0.36,0.55,0.27,0.55,0.55,0.43,0.44,0.43,0.53,0.55,0.3,0.43,0.36,0.3,0.55,0.3,0.53,0.51,0.43,0.23" style="fill:rgb(0,0,0);font-family:MinionPro-Regular;font-size:10.0px;stroke:none;">The metanauplius were selected and divided into 7 groups of 10 subjects in each test tube,</text>
   <text y="97.625" x="200.013,205.283,209.513,211.973,217.27300000000002,219.458,222.118,227.618,229.833,232.813,236.523,239.183,244.343,246.803,249.463,253.693,258.023,261.003,265.233,267.533,269.744,275.424,279.754,283.984,289.284,291.457,296.097,299.807,304.867,310.137,315.337,317.536,321.246,325.476,329.706,333.936,336.596,341.136,345.366,350.666,352.912,357.242,359.702,362.362,367.422,372.692,377.752,380.732,384.33200000000005,386.588,391.648,394.548,396.736,399.716,404.986,409.286,411.419,415.019,417.999,423.059,427.289,432.289,434.493,438.093,443.153,445.613,450.883,453.863,456.523,461.583,467.083,469.302,472.692,477.442,482.192,486.942,491.692,493.992,496.231,500.981,505.731,510.481,515.231,517.531,519.702,524.452,529.202,533.952,536.252,538.41,543.16,547.91,552.66,554.9599999999999,557.119,561.869" svgx:width="0.53,0.43,0.25,0.53,0.55,0.27,0.55,0.55,0.3,0.38,0.27,0.52,0.25,0.27,0.43,0.44,0.3,0.43,0.23,0.55,0.57,0.44,0.43,0.53,0.55,0.47,0.38,0.51,0.53,0.52,0.55,0.38,0.43,0.43,0.43,0.27,0.46,0.43,0.53,0.55,0.44,0.25,0.27,0.51,0.53,0.51,0.3,0.36,0.55,0.51,0.29,0.55,0.3,0.53,0.43,0.55,0.36,0.3,0.51,0.43,0.5,0.55,0.36,0.51,0.25,0.53,0.3,0.27,0.51,0.55,0.55,0.34,0.48,0.48,0.48,0.48,0.23,0.55,0.48,0.48,0.48,0.48,0.23,0.55,0.48,0.48,0.48,0.23,0.55,0.48,0.48,0.48,0.23,0.55,0.48,0.48" style="fill:rgb(0,0,0);font-family:MinionPro-Regular;font-size:10.0px;stroke:none;">held in triplicate. Each group received aliquots of the stock solution (2500, 1250, 625, 250, 25</text>
   <text y="110.607" x="200.013,204.343,209.823,215.12300000000002,217.304,222.054,224.304,229.104,231.25,236.52,241.89,245.28,247.58,249.788,256.618,261.888,264.548,268.778,274.07800000000003,276.264,283.094,287.324,291.034,295.334,297.524,300.504,305.774,310.004,315.504,317.706,321.936,326.996,335.176,340.336,342.796,347.026,350.006,354.236,359.536,361.756,364.736,369.836,372.018,376.818,378.991,387.171,392.57099999999997,394.751,399.291,404.351,406.811,412.081,420.261,424.56100000000004,426.726,433.556,436.216,439.196,444.49600000000004,446.682,451.082,453.258,456.858,461.398,466.878,469.858,475.128,479.358,482.338,484.998,489.298,491.469,495.069,499.299,503.69899999999996,505.869,509.469,513.799,516.259,519.259,521.459,525.059,530.119,532.579,537.849,540.829,543.489,548.549,554.049,556.268,559.248" svgx:width="0.44,0.55,0.53,0.55,0.48,0.23,0.48,0.55,0.53,0.54,0.34,0.23,0.55,0.69,0.53,0.27,0.43,0.53,0.55,0.69,0.43,0.38,0.43,0.55,0.3,0.53,0.43,0.55,0.55,0.43,0.51,0.82,0.52,0.25,0.43,0.3,0.43,0.53,0.55,0.3,0.51,0.55,0.48,0.55,0.82,0.54,0.55,0.46,0.51,0.25,0.53,0.82,0.43,0.55,0.69,0.27,0.3,0.53,0.55,0.44,0.55,0.36,0.46,0.55,0.3,0.53,0.43,0.3,0.27,0.43,0.55,0.36,0.43,0.44,0.55,0.36,0.44,0.25,0.3,0.55,0.36,0.51,0.25,0.53,0.3,0.27,0.51,0.55,0.55,0.3,0.51" style="fill:rgb(0,0,0);font-family:MinionPro-Regular;font-size:10.0px;stroke:none;">and 2.5 uL), which were then completed to 5 mL volume with a synthetic sea salt solution to</text>
   <text y="123.59" x="200.013,204.553,207.213,211.443,213.903,219.203,221.385,224.255,226.915,232.395,236.725,239.225,241.455,245.055,250.115,252.575,257.845,260.825,263.485,268.545,274.025,277.625,279.892,286.722,289.382,292.362,297.66200000000003,299.848,302.828,308.098,312.398,314.531,317.401,322.461,324.921,327.381,332.441,339.271,341.931,347.411,352.111,354.33,358.56,363.62,369.1,373.33,377.56,383.04,386.02,389.73,394.06,397.04,399.7,404.76,410.24,413.84000000000003,416.124,420.874,425.624,430.374,435.124,437.42400000000004,439.595,444.345,449.095,453.845,456.14500000000004,458.36,463.11,467.86,472.61,474.91,477.069,481.819,486.569,491.319,493.619,495.777,500.527,505.327,507.513,511.843,517.323,522.6229999999999,524.804,529.6039999999999,531.721,536.801,541.441,543.691,551.871" svgx:width="0.46,0.27,0.43,0.25,0.53,0.55,0.29,0.27,0.55,0.44,0.25,0.55,0.36,0.51,0.25,0.53,0.3,0.27,0.51,0.55,0.36,0.55,0.69,0.27,0.3,0.53,0.55,0.3,0.53,0.43,0.55,0.29,0.51,0.25,0.25,0.51,0.69,0.27,0.55,0.47,0.55,0.43,0.51,0.55,0.43,0.43,0.55,0.3,0.38,0.44,0.3,0.27,0.51,0.55,0.36,0.55,0.48,0.48,0.48,0.48,0.23,0.55,0.48,0.48,0.48,0.23,0.55,0.48,0.48,0.48,0.23,0.55,0.48,0.48,0.48,0.23,0.55,0.48,0.48,0.55,0.44,0.55,0.53,0.55,0.48,0.55,0.51,0.47,0.23,0.82,0.54" style="fill:rgb(0,0,0);font-family:MinionPro-Regular;font-size:10.0px;stroke:none;">yield final solutions with the following concentrations 1000, 500, 250, 100, 10 and 1 μg.mL</text>
  </g>
  <g begin="text">
   <text y="119.169" x="557.291,559.907" svgx:width="0.35,0.48" style="fill:rgb(0,0,0);font-family:MinionPro-Regular;font-size:6.67px;stroke:none;">-1</text>
  </g>
  <g begin="text">
   <text y="123.591" x="563.471" svgx:width="0.23" style="fill:rgb(0,0,0);font-family:MinionPro-Regular;font-size:10.0px;stroke:none;">.</text>
   <text y="136.573" x="200.016,206.116,210.346,213.946,216.926,220.52599999999998,222.749,229.579,233.809,237.519,241.81900000000002,243.952,249.112,253.342,257.052,259.922,264.982,268.692,276.872,281.102,286.402,288.683,291.343,296.843,299.001,301.981,305.691,308.351,313.511,315.971,318.631,322.861,327.191,330.171,334.401,338.001,340.301,342.541,348.641,353.74100000000004,355.92,358.9,364.17,368.47,370.66,373.64,377.87,381.47,384.47,386.647,390.877,395.937,401.417,404.397,408.107,413.167,415.627,417.927,420.096,422.756,425.756,427.976,434.806,439.136,442.73600000000005,444.984,450.254,453.854,458.084,463.384,465.563,469.96299999999997,472.083,475.683,480.013,482.473,485.133,490.613,494.913,497.085,500.685,505.745,508.205,513.475,516.455,519.115,524.175,529.655,531.9549999999999,534.161,540.991,543.861,546.841,551.071,554.871,557.065,561.815" svgx:width="0.61,0.43,0.36,0.3,0.36,0.55,0.69,0.43,0.38,0.43,0.55,0.52,0.43,0.38,0.29,0.51,0.38,0.82,0.43,0.53,0.55,0.27,0.55,0.55,0.3,0.38,0.27,0.52,0.25,0.27,0.43,0.44,0.3,0.43,0.36,0.23,0.55,0.61,0.51,0.55,0.3,0.53,0.43,0.55,0.3,0.43,0.36,0.3,0.55,0.43,0.51,0.55,0.3,0.38,0.51,0.25,0.23,0.55,0.27,0.3,0.55,0.69,0.44,0.36,0.55,0.53,0.36,0.43,0.53,0.55,0.44,0.55,0.36,0.44,0.25,0.27,0.55,0.43,0.55,0.36,0.51,0.25,0.53,0.3,0.27,0.51,0.55,0.23,0.55,0.69,0.29,0.3,0.43,0.38,0.55,0.48,0.48" style="fill:rgb(0,0,0);font-family:MinionPro-Regular;font-size:10.0px;stroke:none;">Tests were performed in triplicates. To the test control, it was used a saline solution. After 24</text>
   <text y="149.612" x="200.016,205.286,210.346,215.616,219.326,222.926,225.13,227.79,230.79,233.011,239.841,244.171,247.771,250.018,254.248,259.308,264.578,270.058,273.038,277.268,282.568,284.771,287.751,293.021,297.321,299.454,304.934,310.204,318.384,323.444,327.674,331.474,333.64,338.7,341.59999999999997,343.788,349.058,353.288,357.618,362.888,365.188,367.372,373.472,378.742,383.04200000000003,385.173,387.633,391.863,394.843,400.113,404.443,406.943,409.154,413.384,418.444,423.924,428.154,432.384,437.864,440.844,444.554,448.884,451.864,454.524,459.584,465.084,467.321,470.301,475.571,479.901,482.901,485.122,489.352,493.682,498.952,502.552,506.782,510.382,512.618,517.368,522.118,531.894,540.074,545.134,548.844,551.824,556.154,558.614,561.274,564.254" svgx:width="0.53,0.51,0.53,0.38,0.36,0.55,0.27,0.3,0.55,0.69,0.44,0.36,0.55,0.43,0.51,0.53,0.55,0.3,0.43,0.53,0.55,0.3,0.53,0.43,0.55,0.55,0.53,0.82,0.51,0.43,0.38,0.55,0.51,0.29,0.55,0.53,0.43,0.44,0.53,0.23,0.55,0.61,0.53,0.43,0.55,0.25,0.43,0.3,0.53,0.44,0.25,0.55,0.43,0.51,0.55,0.43,0.43,0.55,0.3,0.38,0.44,0.3,0.27,0.51,0.55,0.55,0.3,0.53,0.44,0.3,0.55,0.43,0.44,0.53,0.36,0.43,0.36,0.55,0.48,0.48,0.76,0.82,0.51,0.38,0.3,0.44,0.25,0.27,0.3,0.46" style="fill:rgb(0,0,0);font-family:MinionPro-Regular;font-size:10.0px;stroke:none;">hours it was counted the number of dead. The lethal concentration that causes 50%mortality</text>
   <text y="162.595" x="200.016,202.676,208.176,210.334,213.314,218.584,222.88400000000001,225.074,230.234,235.294,240.454,245.724,248.184,252.514,255.494,258.154,263.214,268.714,270.938,274.328,279.698" svgx:width="0.27,0.55,0.55,0.3,0.53,0.43,0.55,0.52,0.51,0.52,0.53,0.25,0.44,0.3,0.27,0.51,0.55,0.55,0.34,0.54,0.67" style="fill:rgb(0,0,0);font-family:MinionPro-Regular;font-size:10.0px;stroke:none;">in the population (LC</text>
  </g>
  <g begin="text">
   <text y="164.239" x="286.356,289.909" svgx:width="0.48,0.48" style="fill:rgb(0,0,0);font-family:MinionPro-Regular;font-size:6.67px;stroke:none;">50</text>
  </g>
  <g begin="text">
   <text y="162.595" x="293.499,296.899,299.111,305.941,310.271,313.87100000000004,316.062,321.332,325.562,328.542,332.772,336.482,344.662,347.322,352.802,357.032,362.332,364.591,369.651,374.25100000000003,376.383,381.543,385.253,390.313,395.373,398.033,401.033,403.312,407.642,413.122,417.452,419.912,424.452,428.052,430.712,434.312,436.534,441.804,445.404,448.064,453.544,458.24399999999997,460.458,463.438,468.708,473.00800000000004,475.141,478.741,483.801,486.671,489.651,496.481,500.811,504.521,508.821,511.028,515.778,521.358,526.108,530.9079999999999,533.081,536.471,541.011,545.241,548.951,552.551,555.211,560.271" svgx:width="0.34,0.55,0.69,0.44,0.36,0.55,0.53,0.43,0.3,0.43,0.38,0.82,0.27,0.55,0.43,0.53,0.55,0.51,0.46,0.55,0.52,0.38,0.51,0.51,0.27,0.3,0.55,0.44,0.55,0.44,0.25,0.46,0.36,0.27,0.36,0.55,0.53,0.36,0.27,0.55,0.47,0.55,0.3,0.53,0.43,0.55,0.36,0.51,0.29,0.3,0.69,0.44,0.38,0.43,0.55,0.48,0.56,0.48,0.48,0.55,0.34,0.46,0.43,0.38,0.36,0.27,0.51,0.55" style="fill:rgb(0,0,0);font-family:MinionPro-Regular;font-size:10.0px;stroke:none;">) was determined by probit analysis using the software SPSS [version</text>
   <text y="175.577" x="200.013,204.763,209.513,211.763,216.513,218.81300000000002,220.99,225.74,231.32,236.07,240.87,243.043,246.433,251.913,256.143,258.393,260.693,262.886,269.506,274.776,277.436,281.666,285.996,290.636,295.696,297.99600000000004,300.188,303.578,308.948,311.248,313.454,320.804,325.554,332.384,335.774" svgx:width="0.48,0.48,0.23,0.48,0.23,0.55,0.48,0.56,0.48,0.48,0.55,0.34,0.55,0.43,0.23,0.23,0.55,0.67,0.53,0.27,0.43,0.44,0.47,0.51,0.23,0.55,0.34,0.54,0.23,0.55,0.74,0.48,0.69,0.34,0.23" style="fill:rgb(0,0,0);font-family:MinionPro-Regular;font-size:10.0px;stroke:none;">20.0; SPSS Inc., Chicago, IL, USA].</text>
  </g>
  <g begin="text">
   <text y="223.824" x="200.012,207.965,214.549,217.882,220.458,230.414,232.991,238.951,242.907,249.492,256.076,258.652,265.237,267.877,270.424,277.009,282.969,286.301,288.878,294.838,297.414,300.747" svgx:width="0.67,0.55,0.28,0.22,0.83,0.22,0.5,0.33,0.55,0.55,0.22,0.55,0.22,0.55,0.55,0.5,0.28,0.22,0.5,0.22,0.28,0.5" style="fill:rgb(0,0,0);font-family:Helvetica;font-size:12.0px;stroke:none;">Antimicrobial activity</text>
  </g>
  <g begin="text">
   <text y="240.775" x="211.975,220.785,223.655,227.885,231.905,237.065,242.225,246.245,251.095,255.735,261.315,264.185,267.995,276.385,280.195" svgx:width="0.88,0.29,0.43,0.41,0.52,0.52,0.41,0.49,0.47,0.56,0.29,0.38,0.84,0.38,0.25" style="fill:rgb(0,0,0);font-family:MinionPro-Bold;font-size:10.0px;stroke:none;">Microorganisms.</text>
   <text y="240.775" x="290.834,296.934,302.204,306.504,308.635,312.865,317.405,321.735,324.195,329.465,333.795,336.775,339.435,344.495,349.995,352.232,357.292,360.19199999999995,362.38,365.36,370.63,374.93,377.12,381.45,386.93,389.91,392.57,400.75,403.41,407.64,411.35,416.41,421.47,424.13,428.46,430.96,433.189,437.519,441.749,444.729,447.389,451.929,454.589,457.569,462.16900000000004,464.37,469.43,472.33,474.518,478.748,482.348,485.948,490.178,495.658,498.638,501.298,505.628,508.128,510.347,515.407,518.067,520.567,522.763,527.823,532.883,535.863,540.193,542.853,548.333,552.563" svgx:width="0.61,0.53,0.43,0.55,0.43,0.46,0.44,0.25,0.53,0.44,0.3,0.27,0.51,0.55,0.55,0.51,0.29,0.55,0.3,0.53,0.43,0.55,0.44,0.55,0.3,0.27,0.82,0.27,0.43,0.38,0.51,0.51,0.27,0.44,0.25,0.55,0.44,0.43,0.3,0.27,0.46,0.27,0.3,0.46,0.55,0.51,0.29,0.55,0.43,0.36,0.36,0.43,0.55,0.3,0.27,0.44,0.25,0.55,0.51,0.27,0.25,0.55,0.51,0.51,0.3,0.44,0.27,0.55,0.43,0.53" style="fill:rgb(0,0,0);font-family:MinionPro-Regular;font-size:10.0px;stroke:none;">The evaluation of the antimicrobial activity of essential oil obtained</text>
   <text y="253.814" x="200.013,202.883,206.593,211.653,222.066,225.046,230.316,234.616,236.749,239.209,243.439,247.769,252.309,256.539,260.139,262.374,267.434" svgx:width="0.29,0.38,0.51,0.82,0.3,0.53,0.43,0.55,0.25,0.43,0.44,0.46,0.43,0.36,0.55,0.51,0.29" style="fill:rgb(0,0,0);font-family:MinionPro-Regular;font-size:10.0px;stroke:none;">fromthe leaves of</text>
   <text y="253.814" x="272.522" svgx:width="0.66" style="fill:rgb(0,0,0);font-family:MinionPro-It;font-size:10.0px;stroke:none;">A</text>
   <text y="253.814" x="279.122" svgx:width="0.23" style="fill:rgb(0,0,0);font-family:MinionPro-Regular;font-size:10.0px;stroke:none;">.</text>
   <text y="253.814" x="283.521,286.751,292.001,296.641,301.041,304.931,309.491,311.901,315.841,321.121" svgx:width="0.34,0.53,0.49,0.45,0.4,0.47,0.25,0.4,0.53,0.34" style="fill:rgb(0,0,0);font-family:MinionPro-It;font-size:10.0px;stroke:none;">suaveolens</text>
   <text y="253.814" x="326.89,333.72,338.05,341.65000000000003,343.898,346.878,351.108,354.708,357.688,361.918,367.218,369.41,373.74,378.38,382.71,385.37,390.85,394.45,397.45,399.684,402.664,409.494,414.59400000000005,416.805,421.445,425.155,429.485,437.665,441.165,446.645,450.875,455.515,459.845,462.825,465.485,470.025,474.325,476.559,481.619,485.949,490.179,493.159,497.389,501.099,503.759,508.159,510.347" svgx:width="0.69,0.44,0.36,0.55,0.3,0.43,0.36,0.3,0.43,0.53,0.55,0.44,0.47,0.44,0.27,0.55,0.36,0.3,0.55,0.3,0.69,0.51,0.55,0.47,0.38,0.44,0.82,0.35,0.55,0.43,0.47,0.44,0.3,0.27,0.46,0.43,0.55,0.51,0.44,0.43,0.3,0.43,0.38,0.27,0.44,0.55,0.34" style="fill:rgb(0,0,0);font-family:MinionPro-Regular;font-size:10.0px;stroke:none;">was tested against two gram-negative bacteria (</text>
   <text y="253.814" x="513.737,519.327,522.687,526.337,531.347,535.287,538.997,541.647,545.297,550.187,552.837,557.737,560.01,563.72,568.28,570.61" svgx:width="0.56,0.34,0.38,0.51,0.4,0.37,0.27,0.38,0.51,0.27,0.49,0.55,0.38,0.47,0.25,0.27" style="fill:rgb(0,0,0);font-family:MinionPro-It;font-size:10.0px;stroke:none;">Escherichia coli</text>
   <text y="266.796" x="200.013,206.843,212.943,219.563,226.183,230.933,235.683,240.433,245.183,249.933" svgx:width="0.69,0.61,0.67,0.67,0.48,0.48,0.48,0.48,0.48,0.23" style="fill:rgb(0,0,0);font-family:MinionPro-Regular;font-size:10.0px;stroke:none;">ATCC25922,</text>
   <text y="266.796" x="254.437,259.137,263.887,266.217,273.987,278.537,283.757,287.567,289.977,292.387,297.287,299.621,302.851" svgx:width="0.47,0.49,0.25,0.79,0.47,0.53,0.4,0.25,0.25,0.49,0.55,0.34,0.49" style="fill:rgb(0,0,0);font-family:MinionPro-It;font-size:10.0px;stroke:none;">Salmonella sp</text>
   <text y="266.796" x="307.671,309.971,312.15,318.98,325.08,331.7,338.32,343.07,347.82,352.57,357.32,362.07,365.46999999999997,367.709,372.039,377.519,382.819,385.057,388.037,394.867,399.96700000000004,402.121,406.761,410.471,414.801,422.981,426.481,431.641,436.701,440.301,442.961,445.941,448.601,453.141,457.44100000000003,459.721,464.781,469.111,473.341,476.321,480.551,484.261,486.921,491.32099999999997,493.51" svgx:width="0.23,0.55,0.69,0.61,0.67,0.67,0.48,0.48,0.48,0.48,0.48,0.34,0.55,0.44,0.55,0.53,0.55,0.3,0.69,0.51,0.55,0.47,0.38,0.44,0.82,0.35,0.52,0.51,0.36,0.27,0.3,0.27,0.46,0.43,0.55,0.51,0.44,0.43,0.3,0.43,0.38,0.27,0.44,0.55,0.34" style="fill:rgb(0,0,0);font-family:MinionPro-Regular;font-size:10.0px;stroke:none;">. ATCC14028) and two gram-positive bacteria (</text>
   <text y="266.796" x="496.9,501.44,504.36,509.1,513.82,518.65,523.0,525.41,530.03,533.74,538.36,542.07,545.84,551.17" svgx:width="0.47,0.31,0.49,0.49,0.51,0.44,0.25,0.47,0.38,0.47,0.38,0.38,0.53,0.34" style="fill:rgb(0,0,0);font-family:MinionPro-It;font-size:10.0px;stroke:none;">Staphylococcus</text>
   <text y="279.779" x="200.013,204.713,209.883,213.303,217.243,222.573" svgx:width="0.49,0.53,0.37,0.4,0.53,0.34" style="fill:rgb(0,0,0);font-family:MinionPro-It;font-size:10.0px;stroke:none;">aureus</text>
   <text y="279.779" x="228.415,235.245,241.345,247.965,254.585,259.335,264.085,268.835,273.585,276.975,279.27500000000003,281.536,290.446,293.106,297.336,301.046,306.106,311.166,314.876,319.516,323.846,329.326,331.986,335.586,343.766,347.36600000000004,349.681,356.511,360.741,364.451,368.75100000000003,370.94,376.1,379.81,384.87,389.41,392.07,397.34,401.57,406.87,409.095,414.155,418.755,420.887,423.867,429.137,433.437,435.627,443.087,446.687,453.517,457.847,460.307,465.577,470.677,472.874,479.494,483.204,488.474,492.674,494.814,500.084,505.144,510.414,515.894,521.164,525.494,528.474,531.134,536.194,541.694,543.966,547.356,552.626,556.016,563.476" svgx:width="0.69,0.61,0.67,0.67,0.48,0.48,0.48,0.48,0.34,0.23,0.55,0.89,0.27,0.43,0.38,0.51,0.51,0.38,0.47,0.44,0.55,0.27,0.36,0.82,0.36,0.55,0.69,0.43,0.38,0.43,0.55,0.52,0.38,0.51,0.46,0.27,0.53,0.43,0.53,0.55,0.51,0.46,0.55,0.3,0.53,0.43,0.55,0.75,0.36,0.69,0.44,0.25,0.53,0.51,0.55,0.67,0.38,0.53,0.42,0.55,0.53,0.51,0.53,0.55,0.53,0.44,0.3,0.27,0.51,0.55,0.55,0.34,0.53,0.34,0.75,0.35" style="fill:rgb(0,0,0);font-family:MinionPro-Regular;font-size:10.0px;stroke:none;">ATCC6538). Microorganisms were provided by the Oswaldo Cruz Foundation (FIO-</text>
   <text y="292.818" x="200.013,206.633,212.843,220.193,226.193,229.583,231.883,234.085,240.185,245.455,249.75500000000002,251.886,256.946,261.276,265.506,268.486,272.716,276.426,279.086,283.486,285.675,292.505,296.735,300.445,304.745,306.935,309.595,315.075,317.735,320.715,323.375,327.705,330.165,332.625,337.225,339.419,343.129,347.359,351.689,355.919,358.899,361.559,366.099,370.429,373.409,377.639,382.939,385.17,388.04,391.75,396.81,407.224,410.824,413.804,418.864,423.094,428.094,430.298,434.528,439.798,442.258,445.238,450.508,454.218,458.448,462.048,464.348,466.524,474.704,479.034,481.694,487.174,490.154,494.484,497.144,502.624,506.854,512.154,514.429,519.489,524.989,527.185,536.095,541.365,545.595,548.055,550.515,554.745,558.455" svgx:width="0.67,0.63,0.74,0.6,0.34,0.23,0.55,0.61,0.53,0.43,0.55,0.51,0.44,0.43,0.3,0.43,0.38,0.27,0.44,0.55,0.69,0.43,0.38,0.43,0.55,0.27,0.55,0.27,0.3,0.27,0.44,0.25,0.25,0.46,0.55,0.38,0.43,0.44,0.43,0.3,0.27,0.46,0.44,0.3,0.43,0.53,0.55,0.29,0.38,0.51,0.82,0.36,0.3,0.51,0.43,0.5,0.55,0.43,0.53,0.25,0.3,0.53,0.38,0.43,0.36,0.23,0.55,0.82,0.44,0.27,0.55,0.3,0.44,0.27,0.55,0.43,0.53,0.55,0.51,0.55,0.55,0.89,0.53,0.43,0.25,0.25,0.43,0.38,0.35" style="fill:rgb(0,0,0);font-family:MinionPro-Regular;font-size:10.0px;stroke:none;">CRUZ). The bacteria were initially reactivated fromstock cultures, maintained on Mueller-</text>
   <text y="305.801" x="200.013,207.673,210.333,215.813,218.793,223.853,229.353,231.59,236.65,240.36,245.42,248.4,253.70000000000002,255.911,259.301,268.211,275.871,282.491,285.89099999999996,288.113,290.983,296.043,299.843,302.002,306.752,311.552,313.681,318.981,321.164,325.494,328.494,330.689,335.439,340.189,344.099,350.719" svgx:width="0.77,0.27,0.55,0.3,0.51,0.55,0.55,0.51,0.38,0.51,0.3,0.53,0.55,0.34,0.89,0.77,0.67,0.34,0.55,0.29,0.51,0.38,0.55,0.48,0.48,0.55,0.53,0.55,0.44,0.3,0.55,0.48,0.48,0.4,0.67,0.23" style="fill:rgb(0,0,0);font-family:MinionPro-Regular;font-size:10.0px;stroke:none;">Hinton broth (MHC) for 18 h at 37˚C.</text>
   <text y="318.783" x="211.975,219.535,223.865,227.255,231.585,235.605,243.995,246.865,252.445,257.085,260.475,263.345,268.505,274.105,276.434,281.594,284.894,287.092,290.482,295.962,300.36199999999997,302.569,310.959,313.829,319.409,322.279,330.669,336.149,346.789,349.659,355.239,360.719,363.589,368.859,371.729,375.119,380.279,384.299,388.99899999999997,391.236,395.466,400.626,406.206,410.436,414.766,420.346,423.736,427.756,432.396,435.786,438.656,443.816,449.416,451.727,455.227,463.617,466.487,470.717,474.217,476.445,481.085,486.665,492.165,494.36,502.75,505.62,511.2,514.07,522.46,527.94,538.637,543.907,548.547,552.777,556.167,560.497,564.517,567.387" svgx:width="0.76,0.44,0.34,0.44,0.41,0.84,0.29,0.56,0.47,0.34,0.29,0.52,0.56,0.55,0.52,0.33,0.55,0.34,0.55,0.44,0.55,0.84,0.29,0.56,0.29,0.84,0.55,0.84,0.29,0.56,0.55,0.29,0.53,0.29,0.34,0.52,0.41,0.47,0.55,0.43,0.52,0.56,0.43,0.44,0.56,0.34,0.41,0.47,0.34,0.29,0.52,0.56,0.55,0.35,0.84,0.29,0.43,0.35,0.55,0.47,0.56,0.55,0.55,0.84,0.29,0.56,0.29,0.84,0.55,0.84,0.53,0.47,0.43,0.34,0.44,0.41,0.29,0.34" style="fill:rgb(0,0,0);font-family:MinionPro-Bold;font-size:10.0px;stroke:none;">Determination of the minimuminhibitory concentration (mic) and minimumbacteri-</text>
   <text y="331.823" x="200.013,204.243,207.113,212.593,217.233,220.03300000000002,222.236,226.466,231.626,237.206,241.436,245.766,251.346,254.736,258.756,263.396,266.786,269.656,274.816,280.416,282.727,286.227,294.617,299.887,304.117,307.617" svgx:width="0.43,0.29,0.55,0.47,0.28,0.55,0.43,0.52,0.56,0.43,0.44,0.56,0.34,0.41,0.47,0.34,0.29,0.52,0.56,0.55,0.35,0.84,0.53,0.43,0.35,0.25" style="fill:rgb(0,0,0);font-family:MinionPro-Bold;font-size:10.0px;stroke:none;">cidal concentration (mbc).</text>
   <text y="331.823" x="318.103,324.203,329.473,333.773,335.904,344.814,348.204,354.904,357.107,362.377,366.607,369.587,373.817,377.527,385.707,388.367,393.847,398.177,401.157,403.817,408.877,414.377,416.635,423.465,427.795,431.39500000000004,433.642,438.802,443.032,446.742,449.612,454.672,458.382,466.562,470.792,476.092,478.316,483.376,487.976,490.108,495.378,498.038,500.498,505.768,508.748,511.408,516.888,521.5880000000001,523.84,526.82,531.05,535.28,540.55,546.03,548.69,552.92,557.25" svgx:width="0.61,0.53,0.43,0.55,0.89,0.34,0.67,0.55,0.53,0.43,0.3,0.43,0.38,0.82,0.27,0.55,0.44,0.3,0.27,0.51,0.55,0.55,0.69,0.44,0.36,0.55,0.52,0.43,0.38,0.29,0.51,0.38,0.82,0.43,0.53,0.55,0.51,0.46,0.55,0.53,0.27,0.25,0.53,0.3,0.27,0.55,0.47,0.55,0.3,0.43,0.43,0.53,0.55,0.27,0.43,0.44,0.25" style="fill:rgb(0,0,0);font-family:MinionPro-Regular;font-size:10.0px;stroke:none;">The MIC determination was performed by diluting technical</text>
   <text y="344.805" x="200.013,208.193,210.853,215.083,218.793,223.853,229.013,231.473,235.803,238.783,243.083,245.253,248.643,253.393,258.193,260.39,267.22,271.45,273.91,276.37,279.97,283.37,285.618,289.948,294.178,298.408,303.468,307.178,312.448,315.108,320.588,325.288,327.457,330.437,335.53700000000003,337.719,340.699,345.969,350.269,352.402,357.562,361.272,366.332,369.312,374.372,378.602,383.662,386.162,388.402,392.632,396.232,399.212,403.542,408.602,411.062,413.722,417.322,422.592,426.822,432.122,434.379,439.439,444.03900000000004,446.171,449.151,454.421,458.721,460.912,467.532,469.992,472.652,478.132,480.792,485.022,489.352,491.852,494.02,498.35,503.83,509.13,511.368,516.738,521.068,526.128,531.188,534.898,539.228,542.208,547.268,550.978" svgx:width="0.82,0.27,0.43,0.38,0.51,0.52,0.25,0.44,0.3,0.43,0.55,0.34,0.48,0.48,0.55,0.69,0.43,0.25,0.25,0.36,0.34,0.55,0.44,0.43,0.43,0.51,0.38,0.53,0.27,0.55,0.47,0.55,0.3,0.51,0.55,0.3,0.53,0.43,0.55,0.52,0.38,0.51,0.3,0.51,0.43,0.51,0.25,0.55,0.43,0.36,0.3,0.44,0.51,0.25,0.27,0.36,0.53,0.43,0.53,0.55,0.51,0.46,0.55,0.3,0.53,0.43,0.55,0.67,0.25,0.27,0.55,0.27,0.43,0.44,0.25,0.55,0.44,0.55,0.53,0.55,0.54,0.44,0.51,0.51,0.38,0.44,0.3,0.51,0.38,0.46" style="fill:rgb(0,0,0);font-family:MinionPro-Regular;font-size:10.0px;stroke:none;">microplate (96 wells) according to the protocol established by the Clinical and Laboratory</text>
   <text y="357.788" x="200.013,204.763,207.743,212.073,217.553,222.823,227.153,230.863,236.133,239.733,241.965,245.355,250.835,254.435,257.415,260.075,263.055,268.325,271.305,275.605,277.795" svgx:width="0.48,0.3,0.44,0.55,0.53,0.44,0.38,0.53,0.36,0.55,0.34,0.55,0.36,0.3,0.27,0.3,0.53,0.3,0.43,0.55,0.34" style="fill:rgb(0,0,0);font-family:MinionPro-Regular;font-size:10.0px;stroke:none;">Standards Institute [</text>
   <text y="357.788" x="281.185,285.935" svgx:width="0.48,0.48" style="fill:rgb(58,90,166);font-family:MinionPro-Regular;font-size:10.0px;stroke:none;">16</text>
   <text y="357.788" x="290.685,294.075,296.375,298.601,305.431,308.091,311.071,316.37100000000004,318.557,322.157,327.217,335.397,339.697,341.857,346.187,351.457,354.017,359.287,362.887,365.867,374.047,378.277,383.757,386.737,390.337" svgx:width="0.34,0.23,0.55,0.69,0.27,0.3,0.53,0.55,0.36,0.51,0.82,0.43,0.55,0.44,0.53,0.26,0.53,0.36,0.3,0.82,0.43,0.55,0.3,0.36,0.23" style="fill:rgb(0,0,0);font-family:MinionPro-Regular;font-size:10.0px;stroke:none;">], with some adjustments.</text>
   <text y="370.827" x="211.975,218.075,223.345,227.645,229.833,234.893,239.223,243.453,246.433,250.663,254.373,257.033,261.433,263.621,270.451,274.681,278.391,282.69100000000003,284.824,287.484,292.964,295.624,298.604,301.264,305.594,308.054,310.514,315.11400000000003,317.309,320.289,324.619,329.579,333.809,339.309,341.517,344.387,348.097,353.157,363.57,366.55,371.82,376.12,378.31,381.91,384.89,389.95,394.18,399.18,401.328,405.558,410.828,413.288,416.268,421.538,425.248,429.478,433.07800000000003,435.343,443.523,447.853,450.513,455.993,458.973,463.303,465.963,471.443,475.673,480.973,483.248,488.308,493.808,496.004,504.914,510.184,514.414,516.874,519.334,523.564,527.274,530.774,538.434,541.094,546.574,549.554,554.614" svgx:width="0.61,0.53,0.43,0.55,0.51,0.44,0.43,0.3,0.43,0.38,0.27,0.44,0.55,0.69,0.43,0.38,0.43,0.55,0.27,0.55,0.27,0.3,0.27,0.44,0.25,0.25,0.46,0.55,0.3,0.44,0.5,0.43,0.55,0.55,0.29,0.38,0.51,0.82,0.3,0.53,0.43,0.55,0.36,0.3,0.51,0.43,0.5,0.55,0.43,0.53,0.25,0.3,0.53,0.38,0.43,0.36,0.55,0.82,0.44,0.27,0.55,0.3,0.44,0.27,0.55,0.43,0.53,0.55,0.51,0.55,0.55,0.89,0.53,0.43,0.25,0.25,0.43,0.38,0.35,0.77,0.27,0.55,0.3,0.51,0.55" style="fill:rgb(0,0,0);font-family:MinionPro-Regular;font-size:10.0px;stroke:none;">The bacteria were initially taken fromthe stock cultures maintained on Mueller-Hinton</text>
   <text y="383.81" x="200.013,205.073,208.783,213.843,216.823,222.12300000000002,224.333,227.723,236.633,244.293,250.913,254.31300000000002,256.535,259.405,264.465,268.265,270.425,275.175,279.975,282.103,287.403,289.587,293.917,296.917,299.111,303.861,308.611,312.521,319.141,321.44100000000003,323.659,330.489,333.359,336.339,340.569,344.369,346.506,351.566,355.896,360.126,363.106,367.336,371.046,373.706,378.036,380.536,382.732,387.372,391.082,396.142,402.972,405.952,411.222,413.522,415.728,420.058,425.558,427.746,430.406,435.886,440.946,445.176,450.446,452.906,458.176,468.622,471.282,476.782,478.996,483.746,485.996,490.746,500.54,504.14,508.47,510.93,513.59,519.07,523.37,525.541,529.141,534.201,536.661,541.931,544.911,547.571,552.631,558.131,560.35,567.18,571.51" svgx:width="0.51,0.38,0.51,0.3,0.53,0.55,0.34,0.89,0.77,0.67,0.34,0.55,0.29,0.51,0.38,0.55,0.48,0.48,0.55,0.53,0.55,0.44,0.3,0.55,0.48,0.48,0.4,0.67,0.23,0.55,0.69,0.29,0.3,0.43,0.38,0.55,0.51,0.44,0.43,0.3,0.43,0.38,0.27,0.44,0.25,0.55,0.47,0.38,0.51,0.69,0.3,0.53,0.23,0.55,0.44,0.55,0.55,0.27,0.55,0.51,0.43,0.53,0.25,0.53,0.82,0.27,0.55,0.55,0.48,0.23,0.48,0.76,0.36,0.44,0.25,0.27,0.55,0.43,0.55,0.36,0.51,0.25,0.53,0.3,0.27,0.51,0.55,0.55,0.69,0.44,0.36" style="fill:rgb(0,0,0);font-family:MinionPro-Regular;font-size:10.0px;stroke:none;">broth (MHC) for 18 h at 37˚C. After bacterial growth, an inoculumin 0.9%saline solution was</text>
   <text y="396.792" x="200.013,205.173,208.883,213.113,218.273,222.603,226.313,230.543,235.84300000000002,238.053,240.923,245.983,249.78300000000002,251.943,256.173,260.503,264.733,270.033,272.182,276.412,281.472,283.932,288.992,294.472,299.012,301.312,303.533,307.863,313.133,315.693,320.963,324.563,327.543,331.773,337.07300000000004,339.306,342.286,347.386,349.567,354.317,356.567,361.367,363.514,372.424,376.654,381.924,386.254,389.964,392.424,396.754,402.234,407.534,409.775,413.375,417.605,421.935,424.395,428.625,430.925,433.132,436.002,441.272,444.982,447.962,453.232,457.462,461.262,463.406,468.676,471.336,473.796,479.066,482.046,486.276,491.576,493.793,496.453,501.953,504.111,513.021,520.681,527.3810000000001,529.566,533.896,539.376,544.6759999999999,546.857,549.837,554.067,557.667,560.647,564.877" svgx:width="0.52,0.38,0.43,0.52,0.44,0.38,0.43,0.53,0.55,0.29,0.51,0.38,0.55,0.43,0.44,0.43,0.53,0.55,0.43,0.51,0.25,0.51,0.55,0.46,0.23,0.55,0.44,0.53,0.26,0.53,0.36,0.3,0.43,0.53,0.55,0.3,0.51,0.55,0.48,0.23,0.48,0.55,0.89,0.43,0.53,0.44,0.38,0.25,0.44,0.55,0.53,0.55,0.36,0.43,0.44,0.25,0.43,0.23,0.55,0.29,0.53,0.38,0.3,0.53,0.43,0.38,0.55,0.53,0.27,0.25,0.53,0.3,0.43,0.53,0.55,0.27,0.55,0.55,0.89,0.77,0.67,0.55,0.44,0.55,0.53,0.55,0.3,0.43,0.36,0.3,0.43,0.53" style="fill:rgb(0,0,0);font-family:MinionPro-Regular;font-size:10.0px;stroke:none;">prepared for each colony, adjusted to 0.5 McFarland scale, further diluted in MHC and tested</text>
   <text y="409.775" x="200.013,202.673,208.173,210.331,214.561,219.621,225.101,229.331,233.561,239.041,242.021,245.731,250.061,253.041,255.701,260.761,266.261,268.554,273.304,275.554,280.354,282.5,287.14,291.89" svgx:width="0.27,0.55,0.55,0.43,0.51,0.55,0.43,0.43,0.55,0.3,0.38,0.44,0.3,0.27,0.51,0.55,0.55,0.48,0.23,0.48,0.55,0.47,0.48,0.48" style="fill:rgb(0,0,0);font-family:MinionPro-Regular;font-size:10.0px;stroke:none;">in concentration 1,5 x10</text>
  </g>
  <g begin="text">
   <text y="405.354" x="296.674" svgx:width="0.48" style="fill:rgb(0,0,0);font-family:MinionPro-Regular;font-size:6.67px;stroke:none;">7</text>
  </g>
  <g begin="text">
   <text y="409.776" x="302.457,309.077,314.137,316.597,321.657,327.137,331.737,333.921,336.791,341.851,345.561,353.741,356.401,361.881,366.58099999999996,368.787,374.057,379.537,382.197,385.197,387.382,390.772,397.392,402.662,410.012,413.302,421.482,426.852,430.242" svgx:width="0.67,0.51,0.25,0.51,0.55,0.46,0.55,0.29,0.51,0.38,0.82,0.27,0.55,0.47,0.55,0.53,0.55,0.27,0.3,0.55,0.34,0.67,0.53,0.74,0.33,0.82,0.54,0.34,0.23" style="fill:rgb(0,0,0);font-family:MinionPro-Regular;font-size:10.0px;stroke:none;">Colony forming unit (CFU/mL).</text>
   <text y="422.815" x="211.976,218.186,223.286,225.582,230.962,235.302,238.392,242.732,246.552,254.842,257.612,263.202,267.502,269.803,272.893,278.273,282.57300000000004,284.826,293.846,297.346,304.076,306.37600000000003,308.693,311.783,317.163,321.463,323.716,329.506,337.006,339.307,346.247,350.687,354.28700000000003,356.655,362.035,364.805,367.375,372.755,375.845,380.185,385.485,387.779,390.549,396.049,398.38,403.76,406.53,414.82,419.16,422.25,427.63,432.28,434.85,438.56,443.94,446.51,449.49,454.66,459.41,462.18,467.56,471.86,474.235,477.735,482.595,490.19500000000005,492.49,499.95,508.97,513.83,521.4,524.9,527.1999999999999,529.51,535.72,541.1,545.4,547.652,552.822,556.642,559.412" svgx:width="0.61,0.51,0.55,0.53,0.43,0.3,0.43,0.38,0.82,0.27,0.55,0.43,0.55,0.3,0.53,0.43,0.55,0.89,0.34,0.67,0.23,0.55,0.3,0.53,0.43,0.55,0.57,0.75,0.55,0.69,0.44,0.36,0.55,0.53,0.27,0.25,0.53,0.3,0.43,0.53,0.55,0.27,0.55,0.55,0.53,0.27,0.82,0.43,0.3,0.53,0.46,0.25,0.36,0.53,0.25,0.29,0.51,0.47,0.27,0.53,0.43,0.55,0.34,0.48,0.76,0.55,0.74,0.89,0.48,0.75,0.34,0.23,0.55,0.61,0.53,0.43,0.55,0.51,0.38,0.27,0.35" style="fill:rgb(0,0,0);font-family:MinionPro-Regular;font-size:10.0px;stroke:none;">To determine the MIC, the EO was diluted in dimethylsulfoxide (4% DMSO). The ori-</text>
   <text y="435.797" x="200.014,202.994,205.764,210.104,214.444,218.04399999999998,220.367,225.537,228.437,230.741,233.831,239.211,243.51100000000002,245.765,254.055,256.825,261.165,264.985,270.155,275.425,277.995,282.435,285.525,289.825,292.139,299.079,303.419,307.239,311.539,313.795,316.775,319.545,322.115,324.685,329.025,334.325,336.642,343.582,346.352,349.442,354.742,357.051,361.911,366.711,369.014,374.204,379.604,381.883,389.343,393.783,400.513,403.013,405.297,409.737,415.327,420.627,422.928,427.788,432.588,434.89,440.08,445.47999999999996,447.76,452.93,455.83,458.134,461.844,467.014,469.584,474.964,478.054,480.824,485.994,491.494,493.851,501.421" svgx:width="0.29,0.27,0.43,0.43,0.36,0.55,0.51,0.29,0.55,0.3,0.53,0.43,0.55,0.82,0.27,0.43,0.38,0.51,0.52,0.25,0.44,0.3,0.43,0.55,0.69,0.43,0.38,0.43,0.55,0.29,0.27,0.25,0.25,0.43,0.53,0.55,0.69,0.27,0.3,0.53,0.55,0.48,0.48,0.55,0.51,0.54,0.55,0.74,0.44,0.67,0.25,0.55,0.44,0.55,0.53,0.55,0.48,0.48,0.55,0.51,0.54,0.55,0.51,0.29,0.55,0.36,0.51,0.25,0.53,0.3,0.27,0.51,0.55,0.55,0.75,0.57" style="fill:rgb(0,0,0);font-family:MinionPro-Regular;font-size:10.0px;stroke:none;">fices of the microplate were filled with 50 μL NaCl and 50 μL of solution OE</text>
   <text y="435.797" x="509.384" svgx:width="0.66" style="fill:rgb(0,0,0);font-family:MinionPro-It;font-size:10.0px;stroke:none;">A</text>
   <text y="435.797" x="516.094" svgx:width="0.23" style="fill:rgb(0,0,0);font-family:MinionPro-Regular;font-size:10.0px;stroke:none;">.</text>
   <text y="435.797" x="520.609,523.949,529.309,534.059,538.569,542.569,547.239,549.759,553.809,559.199" svgx:width="0.34,0.53,0.49,0.45,0.4,0.47,0.25,0.4,0.53,0.34" style="fill:rgb(0,0,0);font-family:MinionPro-It;font-size:10.0px;stroke:none;">suaveolens</text>
   <text y="435.797" x="562.639" svgx:width="0.23" style="fill:rgb(0,0,0);font-family:MinionPro-Regular;font-size:10.0px;stroke:none;">.</text>
   <text y="448.78" x="200.014,206.224,211.604,215.944,221.444,223.768,227.478,231.818,235.638,238.408,242.848,245.348,247.636,253.016,255.786,258.356,263.736,266.826,269.596,274.766,280.356,283.956,286.357,293.297,297.637,301.457,305.757,308.012,316.302,320.742,326.122,330.422,332.674,335.654,339.474,344.644,355.181,360.041,364.901,369.701,371.962,375.052,380.15200000000004,382.45,387.31,389.67,394.53,399.39,404.19,406.487,411.677,416.427,418.787,427.077" svgx:width="0.61,0.53,0.43,0.55,0.55,0.36,0.43,0.38,0.27,0.44,0.25,0.55,0.53,0.27,0.25,0.53,0.3,0.27,0.51,0.55,0.36,0.55,0.69,0.43,0.38,0.43,0.55,0.82,0.44,0.53,0.43,0.55,0.29,0.38,0.51,0.82,0.48,0.48,0.48,0.55,0.3,0.51,0.55,0.48,0.23,0.48,0.48,0.48,0.55,0.51,0.47,0.23,0.82,0.54" style="fill:rgb(0,0,0);font-family:MinionPro-Regular;font-size:10.0px;stroke:none;">Then serial dilutions were made from100 to 0.048 μg.mL</text>
  </g>
  <g begin="text">
   <text y="444.359" x="432.567,435.292" svgx:width="0.35,0.48" style="fill:rgb(0,0,0);font-family:MinionPro-Regular;font-size:6.67px;stroke:none;">-1</text>
  </g>
  <g begin="text">
   <text y="448.781" x="438.973,441.273,443.565,450.505,455.885,461.265,464.035,467.125,469.895,475.065,480.655,485.095,487.665,490.235,494.885,497.185,499.52,504.38,509.18,511.482,516.672,522.072,524.351,531.291,535.731,539.331,541.643,547.023,549.793,553.503,556.593,560.413,563.183,568.353" svgx:width="0.23,0.55,0.69,0.53,0.53,0.27,0.3,0.27,0.51,0.55,0.44,0.25,0.25,0.46,0.23,0.55,0.48,0.48,0.55,0.51,0.54,0.55,0.69,0.44,0.36,0.55,0.53,0.27,0.36,0.3,0.38,0.27,0.51,0.35" style="fill:rgb(0,0,0);font-family:MinionPro-Regular;font-size:10.0px;stroke:none;">. Additionally, 50 μL was distrib-</text>
   <text y="461.82" x="200.014,205.394,208.484,212.824,218.12400000000002,220.424,224.134,229.514,233.224,238.494,242.834,248.424,252.134,254.904,260.074,265.664,269.264,271.674,276.844,279.74399999999997,282.049,290.339,293.109,297.449,301.269,306.439,311.609,315.429,320.179,324.619,330.209,332.979,336.689,344.979,348.579,350.987,353.757,359.257,361.588,365.928,370.368,374.708,380.00800000000004,382.281,389.221,393.561,396.131,398.631,400.933,406.103,409.003,411.308,414.398,419.778,424.07800000000003,426.331,434.621,437.391,441.731,445.551,450.721,455.991,458.561,463.001,466.091,470.431,472.731,475.086,482.026,485.62600000000003,487.955,492.35499999999996,494.588,499.858,505.028,508.738,511.508,514.598,517.368,522.018,526.318,528.66,533.0,538.17,543.76,546.85,550.67,555.84,558.41,560.7099999999999,563.016,565.786" svgx:width="0.53,0.3,0.43,0.53,0.55,0.36,0.53,0.36,0.52,0.43,0.55,0.36,0.27,0.51,0.55,0.36,0.55,0.51,0.29,0.55,0.82,0.27,0.43,0.38,0.51,0.51,0.38,0.47,0.44,0.55,0.27,0.36,0.82,0.36,0.55,0.27,0.55,0.55,0.43,0.44,0.43,0.53,0.55,0.69,0.43,0.25,0.25,0.55,0.51,0.29,0.55,0.3,0.53,0.43,0.55,0.82,0.27,0.43,0.38,0.51,0.52,0.25,0.44,0.3,0.43,0.23,0.55,0.69,0.36,0.55,0.44,0.55,0.52,0.51,0.36,0.27,0.3,0.27,0.46,0.43,0.55,0.43,0.51,0.55,0.3,0.38,0.51,0.25,0.23,0.55,0.27,0.3" style="fill:rgb(0,0,0);font-family:MinionPro-Regular;font-size:10.0px;stroke:none;">uted suspensions of microorganisms in each well of the microplate. As a positive control, it</text>
   <text y="474.802" x="200.014,206.954,211.394,214.994,217.306,222.686,226.396,230.736,236.036,238.339,242.779,251.069,256.239,260.989,263.759,268.099,270.869,273.439,276.009,278.779,284.279,286.697,290.197,295.057,299.857,302.118,307.308,312.788,315.148,323.438" svgx:width="0.69,0.44,0.36,0.55,0.53,0.36,0.43,0.53,0.55,0.44,0.82,0.51,0.47,0.27,0.43,0.27,0.25,0.25,0.27,0.55,0.55,0.34,0.48,0.48,0.55,0.51,0.54,0.23,0.82,0.54" style="fill:rgb(0,0,0);font-family:MinionPro-Regular;font-size:10.0px;stroke:none;">was used amoxicillin (50 μL.mL</text>
  </g>
  <g begin="text">
   <text y="470.381" x="328.989,331.714" svgx:width="0.35,0.48" style="fill:rgb(0,0,0);font-family:MinionPro-Regular;font-size:6.67px;stroke:none;">-1</text>
  </g>
  <g begin="text">
   <text y="474.803" x="335.339,338.839,341.139,343.445,349.655,355.035,359.375,363.195,367.495,369.75,376.69,381.031,384.85,389.15000000000003,391.406,396.677,401.017,404.836,407.816,412.987,416.807,425.096,429.437,434.737,437.102,440.191,445.572,449.872,452.125,456.465,461.635,467.224,470.315,474.135,479.305,481.805,484.099,489.27,492.16999999999996,494.475,497.565,502.945,507.245,509.497,513.838,519.218,521.787,524.878,530.258,534.078" svgx:width="0.34,0.23,0.55,0.61,0.53,0.43,0.38,0.43,0.55,0.69,0.43,0.38,0.43,0.55,0.52,0.43,0.38,0.29,0.51,0.38,0.82,0.43,0.53,0.55,0.3,0.53,0.43,0.55,0.43,0.51,0.55,0.3,0.38,0.51,0.25,0.55,0.51,0.29,0.55,0.3,0.53,0.43,0.55,0.43,0.53,0.25,0.3,0.53,0.38,0.43" style="fill:rgb(0,0,0);font-family:MinionPro-Regular;font-size:10.0px;stroke:none;">). There were performed the control of the culture</text>
   <text y="487.785" x="200.014,208.304,212.644,218.024,220.794,226.174,234.464,236.764,239.076,244.866,252.366,254.666,259.005,264.176,269.766,272.856,276.676,281.846,284.346,286.641,291.081,296.671,301.971,304.272,307.362,312.742,317.04200000000003,319.296,324.886,329.226,333.976,338.416,341.506,344.276,348.926,353.226,355.521,359.861,365.031,370.621,373.711,377.531,382.701,385.201,387.552,391.052,395.911,403.511,405.807,413.267,422.286,427.147,434.717,438.217,440.517,442.828,449.038,454.418,458.718,460.969,469.259,472.029,476.369,480.189,485.359,490.629,493.199,497.639,500.729,505.069,508.66900000000004,511.085,518.025,522.365,526.185,530.4849999999999,532.742,535.512,541.102,545.442,550.822,555.992,560.432,563.522,567.862" svgx:width="0.82,0.43,0.53,0.27,0.53,0.82,0.23,0.55,0.57,0.75,0.55,0.43,0.51,0.55,0.3,0.38,0.51,0.25,0.55,0.44,0.55,0.53,0.55,0.3,0.53,0.43,0.55,0.55,0.43,0.47,0.44,0.3,0.27,0.46,0.43,0.55,0.43,0.51,0.55,0.3,0.38,0.51,0.25,0.55,0.34,0.48,0.76,0.55,0.74,0.89,0.48,0.75,0.34,0.23,0.55,0.61,0.53,0.43,0.55,0.82,0.27,0.43,0.38,0.51,0.52,0.25,0.44,0.3,0.43,0.36,0.55,0.69,0.43,0.38,0.43,0.55,0.27,0.55,0.43,0.53,0.51,0.44,0.3,0.43,0.53" style="fill:rgb(0,0,0);font-family:MinionPro-Regular;font-size:10.0px;stroke:none;">medium, EO control and the negative control (4% DMSO). The microplates were incubated</text>
   <text y="500.824" x="200.014,204.454,207.454,209.765,214.625,219.485,223.505,230.20499999999998,232.443,235.423,240.593,244.393,246.616,251.476,256.336,261.716,264.016,266.345,272.555,277.935,282.235,284.486,288.826,293.576,298.846,303.186,307.006,309.776,318.066,322.406,327.996,331.086,334.68600000000004,337.096,344.036,348.376,352.196,356.49600000000004,358.753,364.023,368.363,372.183,375.163,380.333,384.153,392.443,396.783,402.083,404.447,407.217,412.717,414.992,418.082,421.902,424.672,429.942,432.512,435.282,439.622,444.062,447.152,451.492,453.79200000000003,456.15,462.36,467.74,472.04,474.292,483.312,486.812,493.512,495.778,502.718,507.158,510.75800000000004,513.126,517.466,522.636,528.226,531.936,534.706,540.086,544.426,548.246,552.586,557.886,560.181,563.271,568.651" svgx:width="0.44,0.3,0.55,0.48,0.48,0.4,0.67,0.55,0.29,0.51,0.38,0.55,0.48,0.48,0.53,0.23,0.55,0.61,0.53,0.43,0.55,0.43,0.47,0.52,0.43,0.38,0.27,0.82,0.43,0.55,0.3,0.36,0.55,0.69,0.43,0.38,0.43,0.55,0.52,0.43,0.38,0.29,0.51,0.38,0.82,0.43,0.53,0.55,0.27,0.55,0.55,0.3,0.38,0.27,0.52,0.25,0.27,0.43,0.44,0.3,0.43,0.23,0.55,0.61,0.53,0.43,0.55,0.89,0.34,0.67,0.55,0.69,0.44,0.36,0.55,0.43,0.51,0.55,0.36,0.27,0.53,0.43,0.38,0.43,0.53,0.55,0.3,0.53,0.43" style="fill:rgb(0,0,0);font-family:MinionPro-Regular;font-size:10.0px;stroke:none;">at 37˚C for 24h. The experiments were performed in triplicate. The MIC was considered the</text>
   <text y="513.807" x="200.014,202.584,207.754,214.694,219.034,222.744,225.744,228.077,232.417,237.587,243.177,247.517,251.857,257.447,260.537,264.357,268.797,271.887,274.657,279.827,285.327,287.661,292.831,295.731,298.036,303.826,311.326,313.626,320.566,325.946,328.716,333.056,338.356,340.668,347.608,352.048,355.648,358.016,363.606,368.776,371.776,374.06,379.44,382.21,385.92,391.19,393.76,398.2,402.85,407.19,412.49,414.878,423.168,425.938,430.278,434.098,439.268,444.438,447.208,451.648,454.148,456.49,461.24,465.06,470.23,477.17,480.26,485.64,487.94,490.223,496.433,501.813,506.113,508.364,513.634,517.454,521.794,525.504,529.844,535.434,539.774,544.074,546.405,551.575,554.475,556.78,559.87,565.25,569.07" svgx:width="0.25,0.51,0.69,0.43,0.36,0.3,0.55,0.43,0.51,0.55,0.43,0.43,0.55,0.3,0.38,0.44,0.3,0.27,0.51,0.55,0.55,0.51,0.29,0.55,0.57,0.75,0.55,0.69,0.53,0.27,0.43,0.53,0.55,0.69,0.44,0.36,0.55,0.55,0.51,0.3,0.55,0.53,0.27,0.36,0.52,0.25,0.44,0.46,0.43,0.53,0.55,0.82,0.27,0.43,0.38,0.51,0.51,0.27,0.44,0.25,0.55,0.47,0.38,0.51,0.69,0.3,0.53,0.23,0.55,0.61,0.53,0.43,0.55,0.52,0.38,0.43,0.36,0.43,0.55,0.43,0.43,0.55,0.51,0.29,0.55,0.3,0.53,0.38,0.35" style="fill:rgb(0,0,0);font-family:MinionPro-Regular;font-size:10.0px;stroke:none;">lowest concentration of EO which was not displayed microbial growth. The presence of tur-</text>
   <text y="526.79" x="200.014,205.184,207.954,213.334,216.104,219.194,223.79399999999998,226.093,228.863,234.363,236.638,239.728,245.108,249.40800000000002,251.661,258.601,262.941,265.511,268.081,271.68100000000004,274.055,276.825,282.415,287.795,290.565,294.905,299.345,302.435,306.775,312.075,314.42,322.71,325.48,329.82,333.64,338.81,343.98,346.75,351.19,353.69,356.031,360.781,364.601,369.771,376.711,379.801,385.101,387.439,391.879,397.469,402.769,405.07,408.16,413.54,417.88,421.7,426.04,429.02,434.19,438.01,442.31,444.585,447.675,453.055,457.395,461.215,465.515,467.772,474.712,479.152,482.752,485.12,490.71,495.81,498.103,502.543,508.133,511.223,513.993,522.283,525.053,529.393,533.213,538.383,543.553,546.323,550.763" svgx:width="0.51,0.27,0.53,0.27,0.3,0.46,0.55,0.27,0.55,0.55,0.3,0.53,0.43,0.55,0.69,0.43,0.25,0.25,0.36,0.55,0.27,0.55,0.53,0.27,0.43,0.44,0.3,0.43,0.53,0.55,0.82,0.27,0.43,0.38,0.51,0.51,0.27,0.44,0.25,0.55,0.47,0.38,0.51,0.69,0.3,0.53,0.55,0.44,0.55,0.53,0.55,0.3,0.53,0.43,0.38,0.43,0.29,0.51,0.38,0.43,0.55,0.3,0.53,0.43,0.38,0.43,0.55,0.69,0.44,0.36,0.55,0.55,0.51,0.55,0.44,0.55,0.3,0.27,0.82,0.27,0.43,0.38,0.51,0.51,0.27,0.44,0.25" style="fill:rgb(0,0,0);font-family:MinionPro-Regular;font-size:10.0px;stroke:none;">bidity in the wells indicated microbial growth and therefore there was no antimicrobial</text>
   <text y="539.772" x="200.014,204.454,208.794,211.884,214.654,219.304,222.074,225.164,229.814" svgx:width="0.44,0.43,0.3,0.27,0.46,0.27,0.3,0.46,0.23" style="fill:rgb(0,0,0);font-family:MinionPro-Regular;font-size:10.0px;stroke:none;">activity.</text>
   <text y="552.811" x="211.976,219.326,223.556,226.536,230.766,234.476,242.656,245.316,250.796,255.126,258.106,260.766,265.826,271.326,273.658,282.568,288.358,295.058,297.185,304.015,308.345,311.94500000000005,314.193,319.353,323.583,327.293,330.163,335.223,338.933,347.113,351.343,356.64300000000003,358.866,363.926,368.256,371.856,376.086,381.386,383.584,388.644,394.144,396.34,399.32,404.59,408.89,411.08,414.79,419.02,422.62,427.89,430.35,433.33,436.93,439.143,444.203,449.263,452.243,456.573,459.233,464.713,468.943,474.243,476.503,479.163,484.663,486.821,489.801,494.031,497.631,500.611,503.271,508.751,513.451,515.678,518.658,523.928,528.228,530.361,539.271,542.661,549.281,551.5809999999999,553.775,559.875,565.145" svgx:width="0.74,0.43,0.3,0.43,0.38,0.82,0.27,0.55,0.44,0.3,0.27,0.51,0.55,0.55,0.89,0.58,0.67,0.55,0.69,0.44,0.36,0.55,0.52,0.43,0.38,0.29,0.51,0.38,0.82,0.43,0.53,0.55,0.51,0.44,0.36,0.43,0.53,0.55,0.51,0.55,0.55,0.3,0.53,0.43,0.55,0.38,0.43,0.36,0.53,0.25,0.3,0.36,0.55,0.51,0.51,0.3,0.44,0.27,0.55,0.43,0.53,0.55,0.27,0.55,0.55,0.3,0.43,0.36,0.3,0.27,0.55,0.47,0.55,0.3,0.53,0.43,0.55,0.89,0.34,0.67,0.23,0.55,0.61,0.53,0.43" style="fill:rgb(0,0,0);font-family:MinionPro-Regular;font-size:10.0px;stroke:none;">Determination MBC was performed based on the results obtained in testing the MIC. The</text>
   <text y="565.794" x="200.014,206.844,211.074,213.534,215.994,219.594,221.784,226.844,229.744,231.932,240.112,242.772,247.002,250.712,255.772,260.932,263.392,267.722,270.702,274.932,278.53200000000004,280.858,285.918,288.818,291.006,299.186,301.846,306.076,309.786,314.846,319.906,322.566,326.896,329.396,331.598,336.238,339.948,345.008,351.838,354.818,360.118,362.381,369.211,373.441,377.151,381.451,383.584,387.294,391.524,396.684,399.144,401.804,406.034,410.364,413.344,417.574,422.874,425.083,427.743,433.243,435.458,444.368,449.638,452.098,454.558,458.788,462.498,465.998,473.658,476.318,481.798,484.778,489.838,495.338,497.593,501.923,506.563,510.893,514.693,516.868,521.198,526.678,531.978,534.159,536.819,542.299,546.529,551.799,556.859,561.189,564.169,568.399" svgx:width="0.69,0.43,0.25,0.25,0.36,0.55,0.51,0.29,0.55,0.82,0.27,0.43,0.38,0.51,0.52,0.25,0.44,0.3,0.43,0.36,0.55,0.51,0.29,0.55,0.82,0.27,0.43,0.38,0.51,0.51,0.27,0.44,0.25,0.55,0.47,0.38,0.51,0.69,0.3,0.53,0.55,0.69,0.43,0.38,0.43,0.55,0.38,0.43,0.52,0.25,0.27,0.43,0.44,0.3,0.43,0.53,0.55,0.27,0.55,0.55,0.89,0.53,0.25,0.25,0.43,0.38,0.35,0.77,0.27,0.55,0.3,0.51,0.55,0.55,0.44,0.47,0.44,0.38,0.55,0.44,0.55,0.53,0.55,0.27,0.55,0.43,0.53,0.51,0.44,0.3,0.43,0.53" style="fill:rgb(0,0,0);font-family:MinionPro-Regular;font-size:10.0px;stroke:none;">wells of microplates of microbial growth were replicated in Muller-Hinton agar and incubated</text>
   <text y="578.777" x="200.014,204.344,207.344,209.539,214.289,219.039,222.949,229.649,231.819,234.689,239.749,243.549,245.652,250.402,255.152,260.422,262.72200000000004,264.871,270.971,276.241,280.541,282.729,291.639,297.429,304.12899999999996,306.256,313.086,317.416,321.016,323.264,327.494,332.554,338.034,341.634,344.294,349.564,353.794,357.504,361.734,367.034,369.297,373.627,377.22700000000003,379.445,382.425,387.695,391.995,394.129,396.589,401.649,408.479,412.709,416.309,419.309,421.511,425.741,430.801,436.281,440.511,444.741,450.221,453.201,456.911,461.241,464.221,466.881,471.941,477.441,479.734,484.794,487.69399999999996,489.882,494.112,497.712,501.312,505.542,511.022,514.002,516.662,520.992,523.492,525.712,530.772,533.432,535.932,538.071,540.731,546.231,548.446,555.276,560.546,563.206,567.436,572.706" svgx:width="0.44,0.3,0.55,0.48,0.48,0.4,0.67,0.55,0.29,0.51,0.38,0.55,0.48,0.48,0.53,0.23,0.55,0.61,0.53,0.43,0.55,0.89,0.58,0.67,0.55,0.69,0.44,0.36,0.55,0.43,0.51,0.55,0.36,0.27,0.53,0.43,0.38,0.43,0.53,0.55,0.44,0.36,0.55,0.3,0.53,0.43,0.55,0.25,0.51,0.69,0.43,0.36,0.3,0.55,0.43,0.51,0.55,0.43,0.43,0.55,0.3,0.38,0.44,0.3,0.27,0.51,0.55,0.55,0.51,0.29,0.55,0.43,0.36,0.36,0.43,0.55,0.3,0.27,0.44,0.25,0.55,0.51,0.27,0.25,0.55,0.27,0.55,0.55,0.69,0.53,0.27,0.43,0.53,0.23" style="fill:rgb(0,0,0);font-family:MinionPro-Regular;font-size:10.0px;stroke:none;">at 37˚C for 24h. The MBC was considered as the lowest concentration of essential oil in which,</text>
   <text y="591.816" x="200.014,202.994,208.264,212.494,216.204,220.50400000000002,222.635,229.465,233.795,237.39499999999998,239.642,245.122,250.222,252.398,257.038,260.748,265.808,272.638,275.618,280.918,283.126,288.186,291.08599999999996,293.274,301.454,304.114,308.344,312.054,317.114,322.174,325.884,330.524,334.854,340.334,342.994,346.594,354.774,358.374,360.68,363.34,368.84,371.055,374.035,379.305,383.605,385.738,391.318,395.548,398.528,402.238,404.938,407.168,412.438,415.098,418.698,423.968,428.198,431.798,434.098,436.308,440.638,446.118,451.418,453.599,456.579,461.849,466.079,469.789,474.089,476.22,483.05,487.38,490.98,493.227,497.557,503.057,505.246,509.476,511.936,514.596,522.776,525.436,530.916,535.246,538.226,540.886,545.946,551.446,553.718,558.778" svgx:width="0.3,0.53,0.43,0.38,0.43,0.55,0.69,0.44,0.36,0.55,0.55,0.51,0.55,0.47,0.38,0.51,0.69,0.3,0.53,0.55,0.51,0.29,0.55,0.82,0.27,0.43,0.38,0.51,0.51,0.38,0.47,0.44,0.55,0.27,0.36,0.82,0.36,0.55,0.27,0.55,0.55,0.3,0.53,0.43,0.55,0.56,0.43,0.3,0.38,0.27,0.55,0.53,0.27,0.36,0.53,0.43,0.36,0.23,0.55,0.44,0.55,0.53,0.55,0.3,0.53,0.43,0.38,0.43,0.55,0.69,0.44,0.36,0.55,0.44,0.55,0.55,0.43,0.25,0.27,0.82,0.27,0.55,0.44,0.3,0.27,0.51,0.55,0.55,0.51,0.29" style="fill:rgb(0,0,0);font-family:MinionPro-Regular;font-size:10.0px;stroke:none;">there was no growth of microorganisms in the Petri dishes, and there was an elimination of</text>
   <text y="604.799" x="200.014,208.194,210.854,215.084,218.794,223.854,228.914,232.624,237.264,241.594,247.074,249.734,253.334,261.514,265.114" svgx:width="0.82,0.27,0.43,0.38,0.51,0.51,0.38,0.47,0.44,0.55,0.27,0.36,0.82,0.36,0.23" style="fill:rgb(0,0,0);font-family:MinionPro-Regular;font-size:10.0px;stroke:none;">microorganisms.</text>
  </g>
  <g begin="text">
   <text y="652.989" x="200.012,207.965,211.297,217.882,221.214,223.79,229.751,233.083,235.659,241.62,248.204,250.844,253.417,260.001,266.586,273.17,275.746,281.707,287.667,290.243" svgx:width="0.67,0.28,0.55,0.28,0.22,0.5,0.28,0.22,0.5,0.55,0.22,0.55,0.55,0.55,0.55,0.22,0.5,0.5,0.22,0.5" style="fill:rgb(0,0,0);font-family:Helvetica;font-size:12.0px;stroke:none;">Statistical analysis</text>
  </g>
  <g begin="text">
   <text y="669.997" x="200.012,206.113,211.382,215.68200000000002,217.813,223.083,227.413,230.393,234.793,236.975,241.305,246.785,251.115,253.576,258.115,261.715,264.375,267.975,270.254,277.085,281.414,285.014,287.206,292.365,296.596,300.306,303.176,308.236,311.945,320.125,324.355,329.65500000000003,331.935,336.995,341.595,343.728,348.057,353.538,357.867,360.328,364.867,368.468,371.128,374.728,377.007,382.067,384.967,387.155,391.695,396.025,399.734,402.395,406.725,412.205,416.435,420.735,422.927,426.318,433.148,440.497,447.958,454.888,461.718,465.118,467.375,471.705,477.185,482.485,484.665,490.766,496.036,500.995,505.226,509.826,511.992,514.971,519.201,522.802,525.802,528.036,531.016,536.116,538.297,540.956,546.227,550.456,555.937,558.917,561.576,564.446" svgx:width="0.61,0.53,0.43,0.55,0.53,0.44,0.3,0.44,0.55,0.44,0.55,0.44,0.25,0.46,0.36,0.27,0.36,0.55,0.69,0.44,0.36,0.55,0.52,0.43,0.38,0.29,0.51,0.38,0.82,0.43,0.53,0.55,0.51,0.46,0.55,0.44,0.55,0.44,0.25,0.46,0.36,0.27,0.36,0.55,0.51,0.29,0.55,0.46,0.44,0.38,0.27,0.44,0.55,0.43,0.43,0.55,0.34,0.69,0.74,0.75,0.7,0.69,0.34,0.55,0.44,0.55,0.53,0.55,0.61,0.53,0.5,0.43,0.46,0.55,0.3,0.43,0.36,0.3,0.55,0.3,0.51,0.55,0.27,0.53,0.43,0.55,0.3,0.27,0.29,0.46" style="fill:rgb(0,0,0);font-family:MinionPro-Regular;font-size:10.0px;stroke:none;">The data analysis was performed by analysis of variance (ANOVA) and Tukey test to identify</text>
   <text y="682.979" x="200.012,203.613,206.272,210.912,216.393,219.052,221.923,224.582,228.813,233.143,238.622,241.622,243.893,249.163,251.822,254.693,257.563,261.792,265.503,269.732,275.212,279.443,283.672,287.27200000000005,289.529,294.799,298.4,301.06,306.539,311.239,313.453,319.243,321.904,326.964,332.643,336.243,339.223,343.553,346.553,348.773,353.934,357.643,362.703,367.344,371.054,375.384,385.851" svgx:width="0.36,0.27,0.47,0.55,0.27,0.29,0.27,0.43,0.44,0.55,0.3,0.55,0.53,0.27,0.29,0.29,0.43,0.38,0.43,0.55,0.43,0.43,0.36,0.55,0.53,0.36,0.27,0.55,0.47,0.55,0.58,0.27,0.51,0.57,0.36,0.3,0.44,0.3,0.55,0.52,0.38,0.51,0.47,0.38,0.44,0.82,0.34" style="fill:rgb(0,0,0);font-family:MinionPro-Regular;font-size:10.0px;stroke:none;">significant differences using BioEstat program[</text>
   <text y="682.979" x="389.241,393.991" svgx:width="0.48,0.48" style="fill:rgb(58,90,166);font-family:MinionPro-Regular;font-size:10.0px;stroke:none;">17</text>
   <text y="682.979" x="398.741,402.131,404.431,406.599,412.7,417.97,422.27000000000004,424.458,429.727,432.388,435.258,438.128,442.358,446.068,450.298,455.778,460.008,464.238,467.838,470.096,473.076,478.346,482.676,485.676,487.896,491.497,496.767,501.827,508.657,512.887,518.1869999999999,520.381,522.841,527.901,534.731,538.961,542.761,544.93,547.389,551.62,556.159,560.389,562.849" svgx:width="0.34,0.23,0.55,0.61,0.53,0.43,0.55,0.53,0.27,0.29,0.29,0.43,0.38,0.43,0.55,0.43,0.43,0.36,0.55,0.3,0.53,0.44,0.3,0.55,0.36,0.53,0.51,0.69,0.43,0.53,0.55,0.25,0.51,0.69,0.43,0.38,0.55,0.25,0.43,0.46,0.43,0.25,0.36" style="fill:rgb(0,0,0);font-family:MinionPro-Regular;font-size:10.0px;stroke:none;">]. The differences that showed lower levels</text>
   <text y="696.018" x="200.012,205.072,207.972,210.16,215.319,219.029,224.089,229.15,233.479,238.539,241.199,243.66,246.319,249.299,253.899,256.137,260.467,265.948,271.248,273.428,277.659,282.719,287.988,292.318,294.818,297.013,299.992,305.09200000000004,307.275,312.025,321.787,325.177,330.377,332.56,338.36,340.552,345.302,347.552,352.302,357.052,360.452,362.662,369.492,373.723,377.432,381.732,383.922,388.152,393.212,398.693,402.292,404.953,410.223,414.453,418.163,422.393,427.693,429.9,433.5,436.48,440.81,443.79,446.451,450.051,453.031,455.691,459.921,464.251,466.711,469.171,473.771,475.991,479.591,482.252,486.891,492.372,495.031,497.902,500.562,504.792,509.122,514.602,517.582,519.882,522.14,528.24,533.51,537.81,539.997,543.708,547.938,551.537,556.807,559.268,562.247" svgx:width="0.51,0.29,0.55,0.52,0.38,0.51,0.51,0.44,0.51,0.27,0.25,0.27,0.3,0.46,0.55,0.44,0.55,0.53,0.55,0.43,0.51,0.53,0.44,0.25,0.55,0.3,0.51,0.55,0.48,0.76,0.34,0.52,0.55,0.58,0.55,0.48,0.23,0.48,0.48,0.34,0.55,0.69,0.43,0.38,0.43,0.55,0.43,0.51,0.55,0.36,0.27,0.53,0.43,0.38,0.43,0.53,0.55,0.36,0.3,0.44,0.3,0.27,0.36,0.3,0.27,0.43,0.44,0.25,0.25,0.46,0.55,0.36,0.27,0.47,0.55,0.27,0.29,0.27,0.43,0.44,0.55,0.3,0.23,0.55,0.61,0.53,0.43,0.55,0.38,0.43,0.36,0.53,0.25,0.3,0.36" style="fill:rgb(0,0,0);font-family:MinionPro-Regular;font-size:10.0px;stroke:none;">of probability and equal to 5%(p = 0.05) were considered statistically significant. The results</text>
   <text y="709.001" x="200.012,206.842,211.072,214.783,219.083,221.215,225.445,230.085,235.245,238.956,243.186,246.785,250.385,254.616,259.916,262.147,266.478,270.07800000000003,272.296,280.475,284.706,289.035,294.535,296.786,302.586,304.667,308.267,311.247,315.577,321.057,326.327,330.656,334.367,339.66700000000003,341.914,347.184,351.414,355.953,358.614,362.943,365.924,368.583,373.643,379.143,381.372,384.762,389.512,396.862,400.252" svgx:width="0.69,0.43,0.38,0.43,0.55,0.43,0.47,0.52,0.38,0.43,0.36,0.36,0.43,0.53,0.55,0.44,0.36,0.55,0.82,0.43,0.44,0.55,0.55,0.58,0.55,0.36,0.3,0.44,0.55,0.53,0.44,0.38,0.53,0.55,0.53,0.43,0.46,0.27,0.44,0.3,0.27,0.51,0.55,0.55,0.34,0.48,0.74,0.34,0.23" style="fill:rgb(0,0,0);font-family:MinionPro-Regular;font-size:10.0px;stroke:none;">were expressed as mean ± standard deviation (SD).</text>
  </g>
  <path style="fill:rgb(0,0,0);stroke:none;stroke-width:1.0;" d="M576.000 54.900 L36.000 54.900 L36.000 54.400 L576.000 54.400 "/>
  <rect style="stroke:blue;stroke-width:0.3;" x="36.0" y="35.043" height="23.64" width="107.093" title="4"/>
  <text y="35.043" class="image" id="image.4.1" width="107" height="23" x="36.0">image.4.1.36_143.35_59</text>
  <g begin="text">
   <text y="46.205" x="373.833,379.537,383.913,388.289,394.913,396.617,400.577,404.953,406.71299999999997,408.358,412.734,417.11,421.51,423.212,428.5,430.203,434.579,436.283,440.659,445.035,446.739,450.594,454.97,456.73,458.418,463.706,467.666,469.874,471.578,475.538,477.242,479.45,483.45,485.12,489.496" svgx:width="0.72,0.55,0.55,0.83,0.22,0.5,0.55,0.22,0.55,0.55,0.55,0.55,0.55,0.67,0.22,0.55,0.22,0.55,0.55,0.22,0.5,0.55,0.22,0.55,0.67,0.5,0.28,0.22,0.5,0.22,0.28,0.5,0.55,0.55,0.28" style="fill:rgb(0,0,0);font-family:Helvetica;font-size:8.0px;stroke:none;">Chemical and Biological Activity of</text>
   <text y="46.205" x="493.454,498.742,503.118,507.494,509.198,510.902,515.278,519.654,521.862,526.238,530.613,534.613,536.257,540.217,544.593,548.969,552.929,557.305,561.681,563.385,567.761,572.03" svgx:width="0.67,0.55,0.55,0.22,0.22,0.55,0.55,0.28,0.55,0.55,0.5,0.55,0.5,0.55,0.55,0.5,0.55,0.55,0.22,0.55,0.55,0.5" style="fill:rgb(0,0,0);font-family:Helvetica-Oblique;font-size:8.0px;stroke:none;">Aeollanthus suaveolens</text>
  </g>
  <path style="fill:rgb(0,0,0);stroke:none;stroke-width:1.0;" d="M36.000 744.000 L576.000 744.000 L576.000 744.500 L36.000 744.500 "/>
  <g begin="text">
   <text y="756.0" x="36.0,41.288,45.664,51.872,57.232,58.847,65.055,70.759,76.119,77.782,79.862,81.58,87.284,93.492,95.7,97.908,102.284,106.66,108.868,113.244,117.62,121.889,126.265,128.473,130.177,134.553,138.929,141.553,145.929,150.305,152.009,154.217,158.593,162.878,167.254,171.63,173.837,178.213,182.589,186.965,191.224,195.6,199.976,204.376,212.314,218.018,222.394,226.354,230.73,237.354,241.729,246.105,248.74499999999998,250.411,254.787,257.027,258.745,263.121,267.497,271.873,276.27299999999997,557.118,561.518,563.241" svgx:width="0.67,0.55,0.78,0.67,0.55,0.78,0.72,0.67,0.55,0.26,0.55,0.72,0.78,0.28,0.28,0.55,0.55,0.28,0.55,0.55,0.55,0.55,0.28,0.22,0.55,0.55,0.33,0.55,0.55,0.22,0.28,0.55,0.55,0.55,0.55,0.28,0.55,0.55,0.55,0.55,0.55,0.55,0.55,0.55,0.72,0.55,0.5,0.55,0.83,0.55,0.55,0.33,0.55,0.55,0.28,0.55,0.55,0.55,0.55,0.55,0.55,0.55,0.55,0.28" style="fill:rgb(0,0,0);font-family:Helvetica;font-size:8.0px;stroke:none;">PLOS ONE | DOI:10.1371/journal.pone.0166684 December 1, 2016 4 /</text>
  </g>
  <g begin="text">
   <text y="756.0" x="567.209,571.585" svgx:width="0.55,0.55" style="fill:rgb(0,0,0);font-family:Helvetica;font-size:8.0px;stroke:none;">10</text>
  </g>
 </g>
</svg>
