<?xml version="1.0" encoding="UTF-8"?>
<svg height="766.0" width="4046.0" xmlns="http://www.w3.org/2000/svg">
 <g id="page" xmlns:svgx="http://www.xml-cml.org/schema/svgx">
  <path style="fill:rgb(58,90,166);stroke:none;stroke-width:1.0;" d="M249.340 352.800 L258.860 352.800 Z"/>
  <path style="fill:rgb(58,90,166);stroke:none;stroke-width:1.0;" d="M337.720 352.800 L347.240 352.800 Z"/>
  <path style="fill:rgb(58,90,166);stroke:none;stroke-width:1.0;" d="M431.600 352.800 L441.070 352.800 Z"/>
  <path style="fill:rgb(58,90,166);stroke:none;stroke-width:1.0;" d="M203.410 469.810 L212.940 469.810 Z"/>
  <path style="fill:rgb(58,90,166);stroke:none;stroke-width:1.0;" d="M556.840 632.070 L566.360 632.070 Z"/>
  <path style="fill:rgb(58,90,166);stroke:none;stroke-width:1.0;" d="M264.190 645.050 L273.660 645.050 Z"/>
  <g begin="text">
   <text y="84.586" x="200.012,205.173,207.832,212.992,217.223,220.202,223.182,227.412,229.71200000000002,231.93,236.259,241.74,247.04000000000002,249.221,252.201,257.471,261.701,267.201,269.404,274.563,278.893,283.124,288.083,292.414,297.053,301.284,306.584,308.805,311.466,316.966,319.18,322.159,327.43,331.73,333.863,338.193,346.373,351.433,355.664,359.464,361.643,366.703,371.763,374.742,377.723,380.182,384.482,386.643,393.474,397.184,401.513,406.674,411.833,416.064,421.36400000000003,423.55,426.211,431.711,433.925,438.255,440.716,445.986,454.166,456.826,462.306,467.576,478.032,480.903,485.963,488.622,491.122,493.339,497.669,503.15,508.45,510.63,515.591,519.82,524.98,527.98,530.19,535.46,540.94,546.21,550.44" svgx:width="0.52,0.27,0.52,0.43,0.3,0.3,0.43,0.23,0.55,0.44,0.55,0.53,0.55,0.3,0.53,0.43,0.55,0.55,0.52,0.44,0.43,0.5,0.44,0.47,0.43,0.53,0.55,0.27,0.55,0.55,0.3,0.53,0.43,0.55,0.44,0.82,0.51,0.43,0.38,0.55,0.51,0.51,0.3,0.3,0.25,0.43,0.55,0.69,0.38,0.44,0.52,0.52,0.43,0.53,0.55,0.27,0.55,0.55,0.44,0.25,0.53,0.82,0.27,0.55,0.53,0.82,0.29,0.51,0.27,0.25,0.55,0.44,0.55,0.53,0.55,0.5,0.43,0.52,0.3,0.55,0.53,0.55,0.53,0.43,0.38" style="fill:rgb(0,0,0);font-family:MinionPro-Regular;font-size:10.0px;stroke:none;">pipette, and then packaged in the amber bottle wrapped in aluminumfoil and kept under</text>
   <text y="97.625" x="200.012,203.723,207.952,210.822,214.533,217.193,221.832,226.063,229.772,234.102,237.083,239.742,244.802,250.302,252.565,255.956,260.706,264.615,271.236,274.63599999999997,276.888,279.758,284.818,288.618,290.72,293.18,297.51,300.49,304.721,308.521,310.675,315.005,320.485,324.815,327.275,331.815,335.415,338.076,341.675" svgx:width="0.38,0.43,0.29,0.38,0.27,0.47,0.43,0.38,0.44,0.3,0.27,0.51,0.55,0.55,0.34,0.48,0.4,0.67,0.34,0.55,0.29,0.51,0.38,0.55,0.25,0.44,0.3,0.43,0.38,0.55,0.44,0.55,0.44,0.25,0.46,0.36,0.27,0.36,0.23" style="fill:rgb(0,0,0);font-family:MinionPro-Regular;font-size:10.0px;stroke:none;">refrigeration (4˚C) for later analysis.</text>
  </g>
  <g begin="text">
   <text y="129.657" x="200.012,207.965,213.925,219.886,226.47,233.054,236.387,238.963,245.547,248.18699999999998,250.752,257.336,259.912,262.55199999999996,265.095,271.056,277.64,284.224,290.185,293.517,296.093,299.426,306.01,312.594,319.179,322.511,328.511,331.086,337.671,341.031,343.672,346.248,352.832,359.417,366.001,369.333,371.91,375.242,377.819,383.779,390.363,393.696,396.272,402.856" svgx:width="0.67,0.5,0.5,0.55,0.55,0.28,0.22,0.55,0.22,0.55,0.55,0.22,0.22,0.55,0.5,0.55,0.55,0.5,0.28,0.22,0.28,0.55,0.55,0.55,0.28,0.5,0.55,0.55,0.28,0.55,0.22,0.55,0.55,0.55,0.28,0.22,0.28,0.22,0.5,0.55,0.28,0.22,0.55,0.55" style="fill:rgb(0,0,0);font-family:Helvetica;font-size:12.0px;stroke:none;">Essential oil constituents of identification</text>
  </g>
  <g begin="text">
   <text y="146.665" x="200.012,206.113,211.382,215.68200000000002,217.813,220.473,225.743,229.973,235.453,238.434,241.093,243.964,246.623,250.853,255.183,258.163,260.823,265.883,271.383,273.655,278.715,281.61499999999995,283.803,288.034,291.633,295.233,299.464,304.943,307.923,310.583,314.914,317.414,319.633,324.693,327.353,329.853,332.048,336.279,341.339,349.518,354.678,359.738,365.219,369.448,374.928,377.909,381.509,383.81,390.639,394.969,398.569,400.818,405.977,410.208,413.918,416.788,421.848,425.558,433.738,437.968,443.26800000000003,445.49,450.551,455.151,457.282,461.922,466.253,469.853,472.079,476.31,481.58,485.289,490.349,498.53,502.859,505.84,510.9,515.54,519.25,523.58,528.74,534.01,538.61,540.904,545.135,550.195,555.464,560.625,563.084,567.314" svgx:width="0.61,0.53,0.43,0.55,0.27,0.53,0.43,0.55,0.3,0.27,0.29,0.27,0.43,0.44,0.3,0.27,0.51,0.55,0.55,0.51,0.29,0.55,0.43,0.36,0.36,0.43,0.55,0.3,0.27,0.44,0.25,0.55,0.51,0.27,0.25,0.55,0.43,0.51,0.82,0.52,0.51,0.55,0.43,0.55,0.3,0.36,0.55,0.69,0.44,0.36,0.55,0.52,0.43,0.38,0.29,0.51,0.38,0.82,0.43,0.53,0.55,0.51,0.46,0.55,0.47,0.44,0.36,0.55,0.43,0.53,0.38,0.51,0.82,0.44,0.3,0.51,0.47,0.38,0.44,0.52,0.53,0.46,0.55,0.43,0.51,0.53,0.52,0.25,0.43,0.53" style="fill:rgb(0,0,0);font-family:MinionPro-Regular;font-size:10.0px;stroke:none;">The identification of essential oil components was performed by gas chromatography coupled</text>
   <text y="159.647" x="200.012,202.992,208.09199999999998,210.273,218.453,222.783,226.383,229.983,232.214,235.813,240.973,245.203,249.434,252.413,256.123,261.184,269.363,273.594,276.573,280.283,284.88300000000004,287.091,290.482,297.621,304.241,307.741,316.651,321.401,324.801,327.06,332.331,335.93,338.591,344.07,348.77,350.984,355.734,361.004,363.664,371.844,376.174,381.445,385.565,390.865,393.107,397.336,402.396,407.667,410.327,415.487,423.667,427.897,433.377,436.357,438.65700000000004,440.898,449.808,455.488,462.628,469.249,472.84900000000005,475.084,482.544,488.125,491.625,496.375,501.125,505.875,510.675,512.898,518.479,520.938,526.208,529.808,532.003,540.184,545.244,550.514,554.744,557.203" svgx:width="0.3,0.51,0.55,0.82,0.44,0.36,0.36,0.55,0.36,0.52,0.43,0.43,0.3,0.38,0.51,0.82,0.43,0.3,0.38,0.46,0.55,0.34,0.72,0.67,0.35,0.89,0.48,0.34,0.55,0.53,0.36,0.27,0.55,0.47,0.55,0.48,0.53,0.27,0.82,0.44,0.53,0.42,0.53,0.55,0.43,0.51,0.53,0.27,0.52,0.82,0.43,0.55,0.3,0.23,0.55,0.89,0.57,0.72,0.67,0.36,0.55,0.75,0.56,0.35,0.48,0.48,0.48,0.48,0.55,0.56,0.25,0.53,0.36,0.55,0.82,0.51,0.53,0.43,0.25,0.23" style="fill:rgb(0,0,0);font-family:MinionPro-Regular;font-size:10.0px;stroke:none;">to mass spectrometry (GC-MS) using Shimadzu equipment, MEGCs QP-2010 Plus model.</text>
   <text y="172.63" x="200.012,206.632,211.693,214.152,219.423,227.602,233.102,235.331,242.681,248.471,251.971,256.771,258.973,266.633,272.732,275.03200000000004,277.171,286.081,290.41,294.12,299.12,301.321,304.62100000000004,306.82,313.92,316.061,327.91,332.66,336.891,339.55,343.781,349.26,352.241,354.901,357.771,360.431,364.661,366.961,369.24,373.99,378.79,380.917,391.349,393.81,398.87,404.349,408.99,411.29,413.459,418.21,420.46,425.21,430.01,432.168,440.349,450.763,456.034,458.693,463.023,471.204,475.434,478.414,482.644,486.354,488.654,490.844,495.594,497.844,502.595,507.39500000000004,509.611,517.791,520.451,524.68,528.391,533.451,538.951,541.188,544.578,550.057,555.328,557.987" svgx:width="0.67,0.51,0.25,0.53,0.82,0.55,0.55,0.74,0.58,0.35,0.48,0.55,0.77,0.61,0.23,0.55,0.89,0.44,0.38,0.5,0.55,0.33,0.55,0.71,0.55,0.97,0.48,0.43,0.27,0.43,0.55,0.3,0.27,0.29,0.27,0.43,0.23,0.55,0.48,0.48,0.55,0.82,0.25,0.51,0.55,0.47,0.23,0.55,0.48,0.23,0.48,0.48,0.55,0.82,0.82,0.53,0.27,0.44,0.82,0.43,0.3,0.43,0.38,0.23,0.55,0.48,0.23,0.48,0.48,0.55,0.82,0.27,0.43,0.38,0.51,0.55,0.55,0.34,0.55,0.53,0.27,0.35" style="fill:rgb(0,0,0);font-family:MinionPro-Regular;font-size:10.0px;stroke:none;">Column DB-5 HT, Mark J &amp; WScientific, 30 mlong, 0.32 mmdiameter, 0.10 micron Indi-</text>
   <text y="185.669" x="200.012,204.242,208.572,211.552,215.783,221.083,223.255,226.125,228.785,231.245,241.682,244.661,249.931,252.591,256.822,261.781,267.261,271.491,275.091,278.691,280.991,283.18,287.509,292.99,298.29,300.527,306.008,308.668,311.648,315.358,320.418,325.057,329.288,334.788,336.982,341.311,344.911,347.13,351.359,355.69,359.4,363.109,365.77,370.0,373.8,375.986,380.626,384.956,388.556,390.856,393.051,399.151,404.421,408.721,410.852,415.492,419.822,423.422,425.648,429.879,435.149,438.859,443.919,452.099,456.429,459.409,464.469,469.109,472.819,477.149,482.309,487.60900000000004,489.882,494.942,500.102,504.332,508.042,512.372,515.352,518.012,523.492,528.192,530.417,534.647,539.707,545.187,550.457,553.117,556.096,558.757,563.817,569.297" svgx:width="0.43,0.44,0.3,0.43,0.53,0.55,0.29,0.27,0.25,0.82,0.3,0.53,0.27,0.43,0.5,0.55,0.43,0.36,0.36,0.23,0.55,0.44,0.55,0.53,0.55,0.55,0.27,0.3,0.38,0.51,0.47,0.43,0.55,0.55,0.44,0.36,0.55,0.43,0.44,0.38,0.38,0.27,0.43,0.38,0.55,0.47,0.44,0.36,0.23,0.55,0.61,0.53,0.43,0.55,0.47,0.44,0.36,0.55,0.43,0.53,0.38,0.51,0.82,0.44,0.3,0.51,0.47,0.38,0.44,0.52,0.53,0.55,0.51,0.52,0.43,0.38,0.44,0.3,0.27,0.55,0.47,0.55,0.43,0.51,0.55,0.53,0.27,0.3,0.27,0.51,0.55,0.36" style="fill:rgb(0,0,0);font-family:MinionPro-Regular;font-size:10.0px;stroke:none;">cated filmthickness, and nitrogen as carrier gas. The gas chromatograph operating conditions</text>
   <text y="198.652" x="200.012,206.842,211.072,214.783,219.012,221.312,223.482,227.813,233.313,235.501,238.891,244.371,247.352,251.581,255.291,260.771,265.102,267.602,269.8,274.961,278.671,282.9,286.5,290.1,295.37,299.081,303.38100000000003,305.573,310.633,313.53299999999996,315.721,320.471,325.221,327.471,332.271,334.43,339.391,344.971,349.371,351.552,355.781,360.841,363.302,368.572,376.752,382.232,384.53200000000004,386.701,390.301,395.461,397.921,400.581,403.581,405.805,409.516,413.846,416.826,419.486,424.586,426.783,431.533,433.783,438.533,443.283,445.583,447.758,450.739,456.009,460.309,462.498,466.729,471.789,474.249,479.518,487.699,493.199,495.38,500.021,504.351,507.951,510.177,513.047,515.507,520.567,527.467,529.622,534.682,537.582,539.771,544.521,546.77" svgx:width="0.69,0.43,0.38,0.43,0.23,0.55,0.44,0.55,0.55,0.34,0.55,0.3,0.43,0.38,0.55,0.44,0.25,0.55,0.52,0.38,0.43,0.36,0.36,0.53,0.38,0.43,0.55,0.51,0.29,0.55,0.48,0.48,0.23,0.48,0.55,0.5,0.56,0.44,0.55,0.43,0.51,0.25,0.53,0.82,0.55,0.23,0.55,0.36,0.52,0.25,0.27,0.3,0.55,0.38,0.44,0.3,0.27,0.51,0.55,0.48,0.23,0.48,0.48,0.23,0.55,0.3,0.53,0.43,0.55,0.43,0.51,0.25,0.53,0.82,0.55,0.55,0.47,0.44,0.36,0.55,0.29,0.25,0.51,0.69,0.55,0.51,0.29,0.55,0.48,0.23,0.48" style="fill:rgb(0,0,0);font-family:MinionPro-Regular;font-size:10.0px;stroke:none;">were: an Internal pressure of 56.7 kPa column, split ratio 1:20, the column gas flow of 1.0</text>
   <text y="211.634" x="200.012,208.193,213.59300000000002,215.772,219.072,221.271,229.451,232.111,237.591,239.89100000000002,242.077,245.467,250.217,254.967,259.717,263.628,270.247,273.637,275.937,278.134,280.794,286.275,288.835,293.065,297.294,300.275,305.335,309.135,311.299,314.28,318.51,326.69,331.849,336.08,339.789,344.12,347.099,352.37,356.08,360.38,362.607,367.357,372.107,376.857,380.767,387.387,389.687,391.859,394.839,400.109,404.409,406.599,409.579,413.81,421.99,427.15,431.38,435.09,439.42,442.4,447.67,451.38,455.68,457.849,463.12,467.349,470.33,474.56,478.789,481.77,486.83,490.63,492.772,497.833,501.63300000000004,503.771,506.75,512.021,516.3209999999999,518.455,521.115,526.594,529.575,533.805,537.514,540.384,544.714,548.944" svgx:width="0.82,0.54,0.55,0.33,0.55,0.82,0.27,0.55,0.23,0.55,0.34,0.48,0.48,0.48,0.4,0.67,0.34,0.23,0.55,0.27,0.55,0.26,0.43,0.43,0.3,0.51,0.38,0.55,0.3,0.43,0.82,0.52,0.43,0.38,0.44,0.3,0.53,0.38,0.43,0.55,0.48,0.48,0.48,0.4,0.67,0.23,0.55,0.3,0.53,0.43,0.55,0.3,0.43,0.82,0.52,0.43,0.38,0.44,0.3,0.53,0.38,0.43,0.55,0.53,0.43,0.3,0.43,0.43,0.3,0.51,0.38,0.55,0.51,0.38,0.55,0.3,0.53,0.43,0.55,0.27,0.55,0.3,0.43,0.38,0.29,0.44,0.43,0.43" style="fill:rgb(0,0,0);font-family:MinionPro-Regular;font-size:10.0px;stroke:none;">mL / min. (210˚C), injector temperature 220˚C, the temperature detector or the interface</text>
   <text y="224.673" x="200.012,203.402,210.542,217.162,220.662,229.572,234.322,237.722,239.98,244.73,249.48,254.23,258.141,264.76,267.06,269.233,275.333,280.604,284.904,287.091,289.751,295.232,297.891,300.871,303.531,307.862,310.362,312.547,316.776,321.836,324.297,329.566,337.747,343.247,345.486,348.466,352.695,360.876,366.036,370.266,373.976,378.306,381.286,386.556,390.266,394.56600000000003,396.792,403.622,407.952,411.552,413.742,418.492,423.242,427.153,433.773,436.07300000000004,438.291,441.161,446.221,448.681,451.141,456.201,463.031,467.261,472.56100000000004,474.801,479.861,484.461,486.593,490.922,496.422,498.612,501.272,506.752,510.982,514.692,518.922,523.252,526.852,531.1519999999999,533.365,538.424" svgx:width="0.34,0.72,0.67,0.35,0.89,0.48,0.34,0.55,0.48,0.48,0.48,0.4,0.67,0.23,0.55,0.61,0.53,0.43,0.55,0.27,0.55,0.27,0.3,0.27,0.44,0.25,0.55,0.43,0.51,0.25,0.53,0.82,0.55,0.55,0.3,0.43,0.82,0.52,0.43,0.38,0.44,0.3,0.53,0.38,0.43,0.55,0.69,0.44,0.36,0.55,0.48,0.48,0.4,0.67,0.23,0.55,0.29,0.51,0.25,0.25,0.51,0.69,0.43,0.53,0.55,0.51,0.46,0.55,0.44,0.55,0.55,0.27,0.55,0.43,0.38,0.43,0.44,0.36,0.43,0.55,0.51,0.29" style="fill:rgb(0,0,0);font-family:MinionPro-Regular;font-size:10.0px;stroke:none;">(GC-MS) 240˚C. The initial column temperature was 60˚C, followed by an increase of</text>
   <text y="237.656" x="200.012,204.762,208.673,215.292,218.582,226.762,229.423,234.902,237.202,239.413,244.684,249.884,252.055,255.035,260.135,262.318,267.068,271.818,276.568,280.478,287.178,289.359,293.689,299.169,304.469,306.651,314.831,319.16,321.82,327.3,330.281,334.61,337.271,342.75,346.98,352.28000000000003,354.555,358.786,363.846,369.326,372.926,375.906,380.236,385.716,388.716,390.896,393.766,398.826,402.62600000000003,404.786,409.536,414.336,416.521,424.701,427.361,432.841,435.141,437.328,443.427,448.698,452.998,455.128,463.309,467.638,471.239,474.839,477.068,480.669,485.828,490.059,494.289,497.269,500.979,506.039,514.219,518.449,521.429,525.659,529.459,531.664,538.493,542.823,546.423,548.672,553.831,557.541,562.601" svgx:width="0.48,0.4,0.67,0.33,0.82,0.27,0.55,0.23,0.55,0.53,0.52,0.55,0.3,0.51,0.55,0.48,0.48,0.48,0.4,0.67,0.55,0.44,0.55,0.53,0.55,0.82,0.44,0.27,0.55,0.3,0.44,0.27,0.55,0.43,0.53,0.55,0.43,0.51,0.55,0.36,0.3,0.44,0.55,0.3,0.55,0.29,0.51,0.38,0.55,0.48,0.48,0.55,0.82,0.27,0.55,0.23,0.55,0.61,0.53,0.43,0.55,0.82,0.44,0.36,0.36,0.55,0.36,0.52,0.43,0.43,0.3,0.38,0.51,0.82,0.43,0.3,0.43,0.38,0.55,0.69,0.44,0.36,0.55,0.52,0.38,0.51,0.35" style="fill:rgb(0,0,0);font-family:MinionPro-Regular;font-size:10.0px;stroke:none;">3˚C/min. up to 240˚C and maintained constant for 30 min. The mass spectrometer was pro-</text>
   <text y="250.639" x="200.012,204.652,208.363,212.693,220.872,229.052,233.283,238.583,240.831,243.81,248.91,251.035,256.195,260.425,264.135,267.005,272.065,275.775,286.242,289.952,294.182,298.512,303.781,306.441,311.922,316.561,320.161,322.411,325.072,330.572,332.786,337.186,339.306,343.016,347.346,352.826,357.466,361.766,363.966,369.026,371.926,374.115,378.865,383.615,388.775,393.525,398.275,403.075,405.24,412.589,416.989,419.128,423.878,426.129,430.879,434.479,436.779,438.971,441.632,447.112,450.092,454.322,458.032,462.572,466.902,469.362,472.96200000000005,475.255,482.085,484.745,487.725,493.02500000000003,495.211,497.87,502.931,508.411,511.07,515.191,519.521,522.501,525.161,530.221,535.721,537.956,542.187,547.667,551.896,555.607,560.247,564.847,567.039,572.099" svgx:width="0.47,0.38,0.44,0.82,0.82,0.43,0.53,0.55,0.3,0.51,0.55,0.52,0.43,0.38,0.29,0.51,0.38,0.82,0.38,0.43,0.44,0.53,0.27,0.55,0.47,0.36,0.55,0.27,0.55,0.55,0.44,0.55,0.38,0.44,0.55,0.47,0.43,0.55,0.51,0.29,0.55,0.48,0.48,0.52,0.48,0.48,0.48,0.55,0.74,0.44,0.55,0.48,0.23,0.48,0.36,0.23,0.55,0.27,0.55,0.3,0.43,0.38,0.46,0.44,0.25,0.36,0.55,0.69,0.27,0.3,0.53,0.55,0.27,0.51,0.55,0.27,0.42,0.44,0.3,0.27,0.51,0.55,0.55,0.43,0.55,0.43,0.38,0.47,0.46,0.55,0.51,0.29" style="fill:rgb(0,0,0);font-family:MinionPro-Regular;font-size:10.0px;stroke:none;">grammed to performreadings in a range of 29–400 Da 0.5s, intervals with ionization energy of</text>
   <text y="263.678" x="200.012,204.762,209.562,211.69,215.92,222.85,225.15,227.337,230.727,233.727,235.955,242.785,247.115,250.715,252.906,255.566,261.046,263.606,267.836,272.066,275.046,279.276,284.576,286.808,291.558,296.638,302.03799999999995,304.212,309.272,312.17199999999997,314.36,318.59,322.92,327.15,332.45,334.656,338.256,342.586,350.766,355.926,358.386,362.68600000000004,364.873,369.203,372.203,374.398,378.798,380.917,385.147,390.207,395.687,399.917,404.147,409.627,412.607,416.317,420.647,423.627,426.287,431.347,436.847,439.141,444.201,447.101,449.289,454.039,458.789,461.039,465.789,470.539,475.339,477.522,482.682,487.842,498.271,503.541,506.201,509.801,513.401,518.461,520.921,525.461,529.691,534.991,537.219,539.879,545.379,547.537,552.807,557.037,561.677" svgx:width="0.48,0.48,0.55,0.43,0.7,0.23,0.55,0.34,0.3,0.55,0.69,0.44,0.36,0.55,0.27,0.55,0.26,0.43,0.43,0.3,0.43,0.53,0.55,0.48,0.51,0.54,0.55,0.51,0.29,0.55,0.43,0.44,0.43,0.53,0.55,0.36,0.44,0.82,0.52,0.25,0.43,0.55,0.44,0.3,0.55,0.44,0.55,0.43,0.51,0.55,0.43,0.43,0.55,0.3,0.38,0.44,0.3,0.27,0.51,0.55,0.55,0.51,0.29,0.55,0.48,0.48,0.23,0.48,0.48,0.48,0.55,0.52,0.52,0.82,0.53,0.27,0.36,0.36,0.51,0.25,0.46,0.43,0.53,0.55,0.27,0.55,0.55,0.53,0.43,0.47,0.35" style="fill:rgb(0,0,0);font-family:MinionPro-Regular;font-size:10.0px;stroke:none;">70 eV. It was injected 1μL of each sample at a concentration of 10,000 ppmdissolved in hex-</text>
   <text y="276.661" x="200.012,204.342,209.822,214.052,216.352,218.493,224.593,229.863,234.163,236.351,239.011,244.281,248.511,253.991,256.971,259.631,262.501,265.161,269.391,273.721,276.701,279.361,284.421,289.921,292.194,297.254,300.154,302.342,305.322,310.592,314.892,317.025,321.255,326.315,334.495,339.655,344.715,350.195,354.425,359.905,362.885,366.485,368.785,375.615,379.945,383.545,385.793,390.853,395.183,398.783,403.013,408.313,410.511,415.571,421.071,423.267,426.247,431.517,435.817,437.95,442.18,447.24,455.42,460.58,464.91,468.62,471.28,474.88,479.94,485.44,487.726,492.786,495.686,497.874,500.854,506.124,510.354,513.014,516.814,518.964,525.694,530.754,535.294,539.624,542.604,546.2040000000001,548.444,551.104,556.584,561.854,566.084" svgx:width="0.44,0.55,0.43,0.23,0.55,0.61,0.53,0.43,0.55,0.27,0.53,0.43,0.55,0.3,0.27,0.29,0.27,0.43,0.44,0.3,0.27,0.51,0.55,0.55,0.51,0.29,0.55,0.3,0.53,0.43,0.55,0.43,0.51,0.82,0.52,0.51,0.55,0.43,0.55,0.3,0.36,0.55,0.69,0.44,0.36,0.55,0.51,0.44,0.36,0.43,0.53,0.55,0.51,0.55,0.55,0.3,0.53,0.43,0.55,0.43,0.51,0.82,0.52,0.44,0.38,0.27,0.36,0.51,0.55,0.55,0.51,0.29,0.55,0.3,0.53,0.43,0.27,0.38,0.55,0.68,0.51,0.46,0.44,0.3,0.36,0.55,0.27,0.55,0.53,0.43,0.47" style="fill:rgb(0,0,0);font-family:MinionPro-Regular;font-size:10.0px;stroke:none;">ane. The identification of the components was based on the comparison of their Kovats index</text>
   <text y="289.643" x="200.012,203.402,210.132,213.522,216.922,219.117,223.447,228.927,234.227,236.465,244.645,248.975,252.575,256.175,258.405,262.005,267.165,271.395,275.625,278.605,282.315,286.715,288.905,293.965,296.86499999999995,299.053,303.283,307.613,311.843,317.14300000000003,319.293,322.893,328.163,333.223,336.823,339.803,344.133,349.613,353.843,358.14300000000003,360.338,367.168,369.828,372.808,378.108,380.351,383.331,388.601,392.901,395.034,397.494,400.154,403.134,407.364,411.074,415.404,418.384,423.654,427.364,431.664,433.868,439.138,443.468,446.448,450.778" svgx:width="0.34,0.68,0.34,0.34,0.55,0.44,0.55,0.53,0.55,0.82,0.44,0.36,0.36,0.55,0.36,0.52,0.43,0.43,0.3,0.38,0.44,0.55,0.51,0.29,0.55,0.43,0.44,0.43,0.53,0.55,0.36,0.53,0.51,0.36,0.3,0.44,0.55,0.43,0.43,0.55,0.69,0.27,0.3,0.53,0.55,0.3,0.53,0.43,0.55,0.25,0.27,0.3,0.43,0.38,0.44,0.3,0.53,0.38,0.43,0.55,0.53,0.44,0.3,0.44,0.23" style="fill:rgb(0,0,0);font-family:MinionPro-Regular;font-size:10.0px;stroke:none;">(KI) and mass spectra of each substance with the literature data.</text>
  </g>
  <g begin="text">
   <text y="321.732" x="200.012,207.965,214.549,217.882,220.458,227.042,233.003,235.579,242.163,248.748,255.332,258.692,261.297,267.882,273.842,277.174,279.751,285.711,288.287,291.62" svgx:width="0.67,0.55,0.28,0.22,0.55,0.5,0.22,0.55,0.55,0.55,0.28,0.55,0.55,0.5,0.28,0.22,0.5,0.22,0.28,0.5" style="fill:rgb(0,0,0);font-family:Helvetica;font-size:12.0px;stroke:none;">Antioxidant activity</text>
  </g>
  <g begin="text">
   <text y="338.74" x="200.012,206.113,211.382,215.68200000000002,217.813,222.874,228.143,232.473,237.953,240.934,243.593,246.573,250.903,253.883,256.543,261.083,265.38300000000004,267.589,271.819,276.359,280.689,283.149,288.419,292.75,295.729,298.389,303.449,308.949,311.242,316.302,319.202,321.391,325.72,331.201,334.18,336.841,341.901,346.54,349.201,354.47,358.8,364.281,367.281,369.523,373.853,378.083,381.063,383.723,388.263,390.923,393.903,398.50300000000004,400.703,407.534,411.864,415.464,417.711,422.771,427.102,430.702,434.932,440.232,442.43,447.49,452.99,455.185,458.166,463.435,467.735,469.868,478.049,482.279,485.258,490.529,495.589,500.859,505.919,508.379,513.439,518.079,522.679,524.918,530.078,533.787,538.847,544.008,549.068,552.667,556.898,562.198,564.432,569.492" svgx:width="0.61,0.53,0.43,0.55,0.51,0.53,0.44,0.55,0.3,0.27,0.3,0.44,0.3,0.27,0.46,0.43,0.55,0.43,0.46,0.44,0.25,0.53,0.44,0.3,0.27,0.51,0.55,0.55,0.51,0.29,0.55,0.44,0.55,0.3,0.27,0.51,0.47,0.27,0.53,0.44,0.55,0.3,0.55,0.44,0.43,0.3,0.27,0.46,0.27,0.3,0.46,0.55,0.69,0.44,0.36,0.55,0.51,0.44,0.36,0.43,0.53,0.55,0.51,0.55,0.55,0.3,0.53,0.43,0.55,0.82,0.43,0.3,0.53,0.51,0.53,0.51,0.25,0.51,0.47,0.46,0.55,0.52,0.38,0.51,0.52,0.51,0.36,0.43,0.53,0.55,0.51,0.46" style="fill:rgb(0,0,0);font-family:MinionPro-Regular;font-size:10.0px;stroke:none;">The quantitative evaluation of antioxidant activity was based on the methodology proposed by</text>
   <text y="351.722" x="200.013,204.763,209.823,215.093,218.693,223.09300000000002,225.241,229.471,232.471,234.652,238.982,241.442,243.74200000000002,245.933" svgx:width="0.48,0.51,0.53,0.36,0.44,0.55,0.43,0.3,0.55,0.44,0.25,0.23,0.55,0.34" style="fill:rgb(0,0,0);font-family:MinionPro-Regular;font-size:10.0px;stroke:none;">Sousa et al. [</text>
   <text y="351.722" x="249.323,254.073" svgx:width="0.48,0.48" style="fill:rgb(58,90,166);font-family:MinionPro-Regular;font-size:10.0px;stroke:none;">10</text>
   <text y="351.722" x="258.823,262.213,264.51300000000003,266.683,272.053,277.113,282.273,286.503,290.103,293.603,298.973,304.243,307.223,311.423,313.624,317.854,320.854,323.035,327.365,329.825,332.125,334.317" svgx:width="0.34,0.23,0.55,0.54,0.51,0.52,0.43,0.36,0.35,0.54,0.53,0.3,0.42,0.55,0.43,0.3,0.55,0.44,0.25,0.23,0.55,0.34" style="fill:rgb(0,0,0);font-family:MinionPro-Regular;font-size:10.0px;stroke:none;">], Lopes-Lutz et al. [</text>
   <text y="351.722" x="337.707,342.457" svgx:width="0.48,0.48" style="fill:rgb(58,90,166);font-family:MinionPro-Regular;font-size:10.0px;stroke:none;">11</text>
   <text y="351.722" x="347.207,350.60699999999997,352.856,357.186,362.666,367.966,370.147,376.977,382.457,387.727,391.437,395.767,401.037,405.337,407.507,411.737,414.737,416.918,421.248,423.708,426.00800000000004,428.2" svgx:width="0.34,0.55,0.44,0.55,0.53,0.55,0.69,0.55,0.53,0.38,0.44,0.53,0.43,0.55,0.43,0.3,0.55,0.44,0.25,0.23,0.55,0.34" style="fill:rgb(0,0,0);font-family:MinionPro-Regular;font-size:10.0px;stroke:none;">] and Andrade et al. [</text>
   <text y="351.722" x="431.59,436.34" svgx:width="0.48,0.48" style="fill:rgb(58,90,166);font-family:MinionPro-Regular;font-size:10.0px;stroke:none;">12</text>
   <text y="351.722" x="441.09,444.48999999999995,446.682,451.742,455.972,458.842,463.902,467.612,471.91200000000003,474.064,477.044,482.314,486.61400000000003,488.804,494.073,497.674,501.974,504.111,509.171,512.071,514.258,519.008,521.258,526.008,529.508,534.778,537.438,542.598,547.868,552.098,557.578,562.118,564.578" svgx:width="0.34,0.55,0.51,0.43,0.29,0.51,0.38,0.43,0.55,0.3,0.53,0.43,0.55,0.53,0.36,0.43,0.55,0.51,0.29,0.55,0.48,0.23,0.48,0.35,0.53,0.27,0.52,0.53,0.43,0.55,0.46,0.25,0.35" style="fill:rgb(0,0,0);font-family:MinionPro-Regular;font-size:10.0px;stroke:none;">] before the use of 2,2-diphenyl-</text>
   <text y="364.705" x="200.012,204.762,208.262,213.423,216.082,220.313,224.022,228.563,231.022,234.522,239.792,242.452,247.723,251.432,255.762,259.883,262.542,265.003,269.40299999999996,271.672,275.061,282.411,287.991,293.571,301.231,304.631,306.878,313.707,316.367,319.348,324.648,326.833,330.434,335.493,343.673,347.973,350.133,354.464,359.734,362.294,367.563,371.164,374.143,382.324,386.554,392.034,395.014,398.61400000000003,400.93,403.911,409.011,411.192,413.651,417.982,423.042,428.102,431.812,436.142,439.122,444.182,447.892,452.492,454.674,458.905,463.965,469.445,474.715,477.375,480.355,483.015,488.075,493.555,497.155" svgx:width="0.48,0.35,0.52,0.27,0.43,0.38,0.46,0.25,0.35,0.53,0.27,0.53,0.38,0.44,0.42,0.27,0.25,0.44,0.55,0.34,0.74,0.56,0.56,0.77,0.34,0.55,0.69,0.27,0.3,0.53,0.55,0.36,0.51,0.82,0.43,0.55,0.44,0.53,0.26,0.53,0.36,0.3,0.82,0.43,0.55,0.3,0.36,0.55,0.3,0.51,0.55,0.25,0.44,0.51,0.51,0.38,0.44,0.3,0.51,0.38,0.46,0.55,0.43,0.51,0.55,0.53,0.27,0.3,0.27,0.51,0.55,0.36,0.23" style="fill:rgb(0,0,0);font-family:MinionPro-Regular;font-size:10.0px;stroke:none;">1-picryl-hidrazila (DPPH) with some adjustments to laboratory conditions.</text>
   <text y="377.687" x="211.975,218.875,221.045,229.225,233.455,236.435,241.705,246.035,251.515,256.575,259.035,261.695,265.995,268.214,271.814,276.874,279.333,284.604,287.584,290.244,295.304,300.804,303.023,308.083,310.983,313.171,320.521,326.101,331.68,341.573,348.404,352.734,356.334,358.582,363.742,367.452,371.682,376.842,381.172,384.882,389.112,394.41200000000003,396.622,400.012,403.612,406.591,411.652,415.882,420.882,423.098,426.698,431.758,434.218,439.488,442.468,445.128,450.188,455.668,459.068,461.307,465.638,468.638,470.833,475.233,477.409,481.638,486.699,492.179,496.409,500.639,506.119,509.099,512.809,517.139,520.119,522.779,527.839,533.339,535.576,540.635" svgx:width="0.69,0.55,0.82,0.43,0.3,0.53,0.44,0.55,0.51,0.25,0.27,0.43,0.55,0.36,0.51,0.25,0.53,0.3,0.27,0.51,0.55,0.55,0.51,0.29,0.55,0.74,0.56,0.56,0.77,0.69,0.44,0.36,0.55,0.52,0.38,0.43,0.52,0.44,0.38,0.43,0.53,0.55,0.34,0.36,0.3,0.51,0.43,0.5,0.55,0.36,0.51,0.25,0.53,0.3,0.27,0.51,0.55,0.34,0.55,0.44,0.3,0.55,0.44,0.55,0.43,0.51,0.55,0.43,0.43,0.55,0.3,0.38,0.44,0.3,0.27,0.51,0.55,0.55,0.51,0.29" style="fill:rgb(0,0,0);font-family:MinionPro-Regular;font-size:10.0px;stroke:none;">A methanolic solution of DPPHwas prepared (stock solution) at a concentration of</text>
   <text y="390.727" x="200.012,204.762,209.562,211.69,216.77,221.41,223.66,231.84" svgx:width="0.48,0.48,0.55,0.51,0.47,0.23,0.82,0.54" style="fill:rgb(0,0,0);font-family:MinionPro-Regular;font-size:10.0px;stroke:none;">40 μg.mL</text>
  </g>
  <g begin="text">
   <text y="386.249" x="237.26,239.875" svgx:width="0.35,0.48" style="fill:rgb(0,0,0);font-family:MinionPro-Regular;font-size:6.67px;stroke:none;">-1</text>
  </g>
  <g begin="text">
   <text y="390.728" x="243.439,245.739,247.917,254.747,260.017,262.677,266.907,272.207,274.393,281.223,285.553,289.153,291.4,296.36,300.59,305.75,308.75,310.959,316.229,321.709,326.979,331.209,335.009,337.151,340.131,345.401,349.701,351.835,354.295,356.955,361.595,366.865,369.845,372.14500000000004,374.342,380.442,385.712,390.012,392.143,396.373,399.973,403.573,407.803,413.283,416.263,418.923,423.253,425.753,427.973,433.033,435.693,438.153,441.75300000000004,444.017,450.847,455.077,458.787,463.087,465.22,470.49,473.15,475.61,480.88,483.86,488.09,493.39,495.607,498.267,503.767,505.982,514.162,518.392,521.372,526.642,530.972,536.452,541.512,544.012,546.233,550.563,553.563,555.758,559.988,565.048,570.528" svgx:width="0.23,0.55,0.69,0.53,0.27,0.43,0.53,0.55,0.69,0.44,0.36,0.55,0.5,0.43,0.52,0.3,0.55,0.53,0.55,0.53,0.43,0.38,0.55,0.3,0.53,0.43,0.55,0.25,0.27,0.47,0.53,0.3,0.23,0.55,0.61,0.53,0.43,0.55,0.43,0.36,0.36,0.43,0.55,0.3,0.27,0.44,0.25,0.55,0.51,0.27,0.25,0.36,0.55,0.69,0.43,0.38,0.43,0.55,0.53,0.27,0.25,0.53,0.3,0.43,0.53,0.55,0.27,0.55,0.55,0.82,0.43,0.3,0.53,0.44,0.55,0.51,0.25,0.55,0.44,0.3,0.55,0.43,0.51,0.55,0.35" style="fill:rgb(0,0,0);font-family:MinionPro-Regular;font-size:10.0px;stroke:none;">, which was kept under the light. The essential oils were diluted in methanol at con-</text>
   <text y="403.71" x="200.013,204.243,208.473,213.953,216.933,220.643,224.973,227.953,230.613,235.673,241.153,244.753,247.01,252.07,254.97,257.158,261.908,264.208,266.342,271.092,273.342,278.092,280.392,282.613,287.363,289.663,291.797,296.547,298.797,303.547,308.297,310.59700000000004,312.773,317.523,319.773,324.523,329.32300000000004,331.482,335.812,341.292,346.592,348.773,353.523,355.773,360.523,365.32300000000004,367.539,375.719,380.359,382.609,390.789" svgx:width="0.43,0.43,0.55,0.3,0.38,0.44,0.3,0.27,0.51,0.55,0.36,0.55,0.51,0.29,0.55,0.48,0.23,0.55,0.48,0.23,0.48,0.23,0.55,0.48,0.23,0.55,0.48,0.23,0.48,0.48,0.23,0.55,0.48,0.23,0.48,0.48,0.55,0.44,0.55,0.53,0.55,0.48,0.23,0.48,0.48,0.55,0.82,0.47,0.23,0.82,0.54" style="fill:rgb(0,0,0);font-family:MinionPro-Regular;font-size:10.0px;stroke:none;">centrations of 5, 2.5, 1, 0.75, 0.50 and 0.25 mg.mL</text>
  </g>
  <g begin="text">
   <text y="399.288" x="396.227,398.842" svgx:width="0.35,0.48" style="fill:rgb(0,0,0);font-family:MinionPro-Regular;font-size:6.67px;stroke:none;">-1</text>
  </g>
  <g begin="text">
   <text y="403.71" x="402.406,404.706,406.828,412.098,417.158,420.958,423.098,426.078,431.348,435.648,437.782,442.012,446.552,450.882,453.342,458.612,462.942,465.922,468.582,473.642,479.122,481.422,483.646,486.626,491.896,496.126,499.836,504.136,506.323,513.153,517.383,521.093,525.3929999999999,527.526,531.856,537.126,542.396,546.626,551.9259999999999,554.115,556.775,562.255,565.235" svgx:width="0.23,0.55,0.53,0.51,0.38,0.55,0.3,0.53,0.43,0.55,0.43,0.46,0.44,0.25,0.53,0.44,0.3,0.27,0.51,0.55,0.23,0.55,0.3,0.53,0.43,0.38,0.43,0.55,0.69,0.43,0.38,0.43,0.55,0.44,0.53,0.53,0.43,0.53,0.55,0.27,0.55,0.3,0.51" style="fill:rgb(0,0,0);font-family:MinionPro-Regular;font-size:10.0px;stroke:none;">. For the evaluation, there were added into</text>
   <text y="416.692" x="200.014,204.41400000000002,206.534,209.514,213.744,217.344,220.344,222.578,225.558,230.828,235.888,240.18800000000002,242.307,247.057,249.307,254.107,256.31,264.49,269.89,272.07,277.13,280.03,282.218,285.198,290.468,294.76800000000003,296.902,300.502,303.482,308.542,312.772,317.772,319.976,323.576,328.636,331.096,336.366,339.346,342.006,347.066,352.566,354.785,359.845,362.745,364.933,372.283,377.863,383.443,391.103,393.403,395.603,398.473,403.533,405.993,408.453,413.513,420.343,424.573,429.873,432.112,437.172,441.77200000000005,443.904,448.234,453.504,458.774,461.434,464.414,467.074,472.134,477.634,479.904,484.964,487.864,490.052,494.802,497.052,501.85200000000003,503.999,512.179,517.579,519.816,524.876,527.776,529.964,532.944,538.214,542.514,544.647,548.877,552.477,556.077,560.307,565.787" svgx:width="0.44,0.55,0.3,0.43,0.36,0.3,0.55,0.3,0.53,0.51,0.43,0.55,0.48,0.23,0.48,0.55,0.82,0.54,0.55,0.51,0.29,0.55,0.3,0.53,0.43,0.55,0.36,0.3,0.51,0.43,0.5,0.55,0.36,0.51,0.25,0.53,0.3,0.27,0.51,0.55,0.55,0.51,0.29,0.55,0.74,0.56,0.56,0.77,0.23,0.55,0.29,0.51,0.25,0.25,0.51,0.69,0.43,0.53,0.55,0.51,0.46,0.55,0.44,0.53,0.53,0.27,0.3,0.27,0.51,0.55,0.55,0.51,0.29,0.55,0.48,0.23,0.48,0.55,0.82,0.54,0.55,0.51,0.29,0.55,0.3,0.53,0.43,0.55,0.43,0.36,0.36,0.43,0.55,0.35" style="fill:rgb(0,0,0);font-family:MinionPro-Regular;font-size:10.0px;stroke:none;">a test tube 2.7 mL of the stock solution of DPPH, followed by addition of 0.3 mL of the essen-</text>
   <text y="429.731" x="200.014,202.994,205.654,209.984,212.484,214.641,219.701,222.361,224.861,227.056,230.656,235.716,238.176,243.446,246.426,249.086,254.146,259.626,261.926,264.133,270.233,275.503,279.803,281.992,288.822,294.092,296.752,299.732,304.03200000000004,306.199,311.259,314.159,316.347,319.327,324.597,328.897,331.031,334.631,339.691,342.151,347.421,350.401,353.061,358.121,363.621,365.84,372.67,377.0,380.6,382.848,388.008,391.718,395.948,401.108,405.438,409.148,413.378,418.648,420.94800000000004,423.155,426.135,431.405,434.065,437.665,439.879,444.939,449.169,451.829,457.309,462.009,464.2,468.59999999999997,470.72,478.9,481.56,486.2,489.18,494.45,498.16,502.46000000000004,504.679,509.739,512.639,514.827,519.577,521.827,526.627,528.773,536.953,542.353,544.59,552.77,557.0,559.98,565.25,569.58" svgx:width="0.3,0.27,0.44,0.25,0.55,0.51,0.27,0.25,0.55,0.36,0.51,0.25,0.53,0.3,0.27,0.51,0.55,0.23,0.55,0.61,0.53,0.43,0.55,0.69,0.53,0.27,0.3,0.43,0.55,0.51,0.29,0.55,0.3,0.53,0.43,0.55,0.36,0.51,0.25,0.53,0.3,0.27,0.51,0.55,0.55,0.69,0.44,0.36,0.55,0.52,0.38,0.43,0.52,0.44,0.38,0.43,0.53,0.23,0.55,0.3,0.53,0.27,0.36,0.55,0.51,0.43,0.27,0.55,0.47,0.55,0.44,0.55,0.82,0.27,0.47,0.3,0.53,0.38,0.43,0.55,0.51,0.29,0.55,0.48,0.23,0.48,0.55,0.82,0.54,0.55,0.82,0.43,0.3,0.53,0.44,0.35" style="fill:rgb(0,0,0);font-family:MinionPro-Regular;font-size:10.0px;stroke:none;">tial oil solution. The white of the solution was prepared, this being a mixture of 2.7 mL metha-</text>
   <text y="442.714" x="200.014,205.494,210.554,213.054,215.208,219.538,225.018,230.318,232.499,237.249,239.499,244.299,246.502,254.682,260.082,262.263,267.323,270.22299999999996,272.41,276.81,278.93,287.11,291.34,294.32,299.59,303.92,309.4,314.46,316.92,319.58,323.88,326.098,329.698,334.758,337.218,342.488,345.468,348.128,353.188,358.688,360.964,366.024,368.924,371.112,375.342,379.672,383.902,389.202,391.351,397.031,406.714,410.944,416.004,421.484,425.714,429.944,435.424,438.404,442.114,446.444,449.424,452.084,457.144,462.644,464.937,469.167,473.707,478.037,480.497,485.767,490.097,493.077,497.307,502.577,504.877,507.06,513.89,516.76,519.74,523.97,527.77,529.907,534.657,539.457,541.642,549.822,552.482,557.962,560.262,562.449,567.509" svgx:width="0.55,0.51,0.25,0.55,0.44,0.55,0.53,0.55,0.48,0.23,0.48,0.55,0.82,0.54,0.55,0.51,0.29,0.55,0.44,0.55,0.82,0.43,0.3,0.53,0.44,0.55,0.51,0.25,0.27,0.43,0.55,0.36,0.51,0.25,0.53,0.3,0.27,0.51,0.55,0.55,0.51,0.29,0.55,0.43,0.44,0.43,0.53,0.55,0.57,0.75,0.43,0.51,0.55,0.43,0.43,0.55,0.3,0.38,0.44,0.3,0.27,0.51,0.55,0.55,0.43,0.46,0.44,0.25,0.53,0.44,0.3,0.43,0.53,0.23,0.55,0.69,0.29,0.3,0.43,0.38,0.55,0.48,0.48,0.55,0.82,0.27,0.55,0.23,0.55,0.51,0.55" style="fill:rgb(0,0,0);font-family:MinionPro-Regular;font-size:10.0px;stroke:none;">nol and 0.3 mL of a methanolic solution of each EOconcentration evaluated. After 30 min. on</text>
   <text y="455.697" x="200.014,204.41400000000002,206.534,210.134,215.294,219.524,223.754,226.734,230.444,235.504,240.664,245.934,250.994,253.974,259.034,267.214,271.444,274.424,278.654,282.454,284.713,288.103,293.893,296.553,301.613,305.213,310.373,314.603,318.833,321.813,325.523,330.62300000000005,332.845,337.595,343.175,346.675,351.425,356.175,359.565,361.865,364.082,367.792,372.022,376.352,381.622,384.282,389.762,394.402,398.002,400.252,407.082,411.312,415.022,419.322,421.454,426.614,430.844,434.554,437.424,442.484,446.194,454.374,458.604,463.904,466.185,470.515,473.515,475.709,480.109,482.229,489.059,493.389,497.929,502.159,504.619,508.849,514.329,518.969,521.949,527.2489999999999,529.51,534.57,537.47,539.658,544.408,549.158,553.958,556.099,561.579" svgx:width="0.44,0.55,0.36,0.52,0.43,0.43,0.3,0.38,0.51,0.52,0.53,0.51,0.3,0.51,0.82,0.43,0.3,0.43,0.38,0.55,0.34,0.58,0.27,0.51,0.36,0.52,0.43,0.43,0.3,0.38,0.51,0.55,0.48,0.56,0.35,0.48,0.48,0.34,0.23,0.55,0.38,0.43,0.44,0.53,0.27,0.55,0.47,0.36,0.55,0.69,0.43,0.38,0.43,0.55,0.52,0.43,0.38,0.29,0.51,0.38,0.82,0.43,0.53,0.55,0.44,0.3,0.55,0.44,0.55,0.69,0.44,0.46,0.43,0.25,0.43,0.55,0.47,0.3,0.53,0.55,0.51,0.29,0.55,0.48,0.48,0.48,0.55,0.55,0.82" style="fill:rgb(0,0,0);font-family:MinionPro-Regular;font-size:10.0px;stroke:none;">a spectrophotometer (Biospectro SP-22), readings were performed at a wavelength of 517 nm</text>
   <text y="468.736" x="200.014" svgx:width="0.34" style="fill:rgb(0,0,0);font-family:MinionPro-Regular;font-size:10.0px;stroke:none;">[</text>
   <text y="468.736" x="203.404,208.154" svgx:width="0.48,0.48" style="fill:rgb(58,90,166);font-family:MinionPro-Regular;font-size:10.0px;stroke:none;">13</text>
   <text y="468.736" x="212.904,216.294,218.59400000000002,220.764,226.864,232.134,236.434,238.565,242.895,246.495,250.095,254.425,259.02500000000003,261.242,268.072,272.402,276.002,278.25,283.41,287.64,291.35,294.22,299.28,302.99,311.17,315.4,320.7,322.924,325.584,331.084,333.298,336.278,339.988,342.648,347.808,350.268,352.928,357.158,361.488,364.468,368.76800000000003,370.942,375.272,380.752,386.052,388.233,391.213,396.483,400.783,402.916,407.146,411.476,413.936,418.166,423.436,425.896,430.226,433.206,435.866,440.926,446.426,448.723,453.783,456.683,458.871,464.031,468.261,471.971,476.201,480.431,485.911,488.891,493.221,497.861,502.161,504.339,509.399,512.299,514.487,518.817,524.297,527.277,529.937,534.997,539.637,542.297,547.567,551.897,557.377" svgx:width="0.34,0.23,0.55,0.61,0.53,0.43,0.55,0.44,0.36,0.36,0.44,0.46,0.55,0.69,0.44,0.36,0.55,0.52,0.43,0.38,0.29,0.51,0.38,0.82,0.43,0.53,0.55,0.27,0.55,0.55,0.3,0.38,0.27,0.52,0.25,0.27,0.43,0.44,0.3,0.43,0.55,0.44,0.55,0.53,0.55,0.3,0.53,0.43,0.55,0.43,0.44,0.25,0.43,0.53,0.25,0.44,0.3,0.27,0.51,0.55,0.55,0.51,0.29,0.55,0.52,0.43,0.38,0.43,0.43,0.55,0.3,0.44,0.47,0.43,0.55,0.51,0.29,0.55,0.44,0.55,0.3,0.27,0.51,0.47,0.27,0.53,0.44,0.55,0.3" style="fill:rgb(0,0,0);font-family:MinionPro-Regular;font-size:10.0px;stroke:none;">]. The assay was performed in triplicate and the calculation of percentage of antioxidant</text>
   <text y="481.718" x="200.014,204.344,208.574,211.554,214.214,218.754,221.414,224.394,228.994,231.195,234.585,244.348,251.178,258.008,261.40799999999996,263.623,270.453,274.783,278.38300000000004,280.631,284.861,289.191,291.651,295.881,301.151,303.611,307.941,310.921,315.151,320.451,322.697,329.527,332.187,335.167,340.467,342.653,345.633,350.903,355.20300000000003,357.336,360.206,365.266,367.726,370.186,375.246,382.076,384.736,390.216,394.916,397.134,401.364,406.424,411.694,416.024,419.004,421.664,426.724,432.204" svgx:width="0.44,0.43,0.3,0.27,0.46,0.27,0.3,0.46,0.55,0.34,0.76,0.69,0.69,0.34,0.55,0.69,0.44,0.36,0.55,0.43,0.44,0.25,0.43,0.53,0.25,0.44,0.3,0.43,0.53,0.55,0.69,0.27,0.3,0.53,0.55,0.3,0.53,0.43,0.55,0.29,0.51,0.25,0.25,0.51,0.69,0.27,0.55,0.47,0.55,0.43,0.51,0.53,0.44,0.3,0.27,0.51,0.55,0.23" style="fill:rgb(0,0,0);font-family:MinionPro-Regular;font-size:10.0px;stroke:none;">activity (%AA) was calculated with the following equation:</text>
   <text y="510.518" x="288.738" svgx:width="0.38" style="fill:rgb(0,0,0);font-family:TeX_CM_Maths_Symbols;font-size:10.0px;stroke:none;">ð</text>
   <text y="510.518" x="292.588" svgx:width="0.76" style="fill:rgb(0,0,0);font-family:MinionPro-Regular;font-size:10.0px;stroke:none;">%</text>
   <text y="510.518" x="300.188,306.828" svgx:width="0.66,0.66" style="fill:rgb(0,0,0);font-family:MinionPro-It;font-size:10.0px;stroke:none;">AA</text>
   <text y="510.518" x="313.468,317.26800000000003,319.919" svgx:width="0.38,0.55,0.77" style="fill:rgb(0,0,0);font-family:TeX_CM_Maths_Symbols;font-size:10.0px;stroke:none;">Þ ¼</text>
   <text y="510.518" x="330.407,335.407,340.407" svgx:width="0.5,0.5,0.5" style="fill:rgb(0,0,0);font-family:TeX_CM_Roman;font-size:10.0px;stroke:none;">100</text>
   <text y="510.518" code="0" x="347.528" svgx:width="0.25" style="fill:rgb(0,0,0);font-family:TeX_CM_Maths_Symbols;font-size:10.0px;stroke:none;">?</text>
  </g>
  <path style="fill:rgb(0,0,0);stroke:none;stroke-width:1.0;" d="M365.500 507.800 L479.230 507.800 L479.230 508.200 L365.500 508.200 "/>
  <g begin="text">
   <text y="502.639" x="365.499,368.199" svgx:width="0.27,0.38" style="fill:rgb(0,0,0);font-family:TeX_CM_Maths_Symbols;font-size:10.0px;stroke:none;">½ð</text>
  </g>
  <g begin="text">
   <text y="502.639" x="372.076,380.728,387.434" svgx:width="0.66,0.49,0.34" style="fill:rgb(0,0,0);font-family:MinionPro-It;font-size:14.0px;stroke:none;">Abs</text>
  </g>
  <g begin="text">
   <text y="505.134" x="392.542,394.582,397.426,402.057,404.901,406.371" svgx:width="0.34,0.49,0.79,0.49,0.25,0.4" style="fill:rgb(0,0,0);font-family:MinionPro-It;font-size:6.0px;stroke:none;">sample</text>
  </g>
  <g begin="text">
   <text y="502.639" code="0" x="411.42" svgx:width="0.25" style="fill:rgb(0,0,0);font-family:TeX_CM_Maths_Symbols;font-size:10.0px;stroke:none;">?</text>
  </g>
  <g begin="text">
   <text y="502.639" x="421.342,429.994,436.7" svgx:width="0.66,0.49,0.34" style="fill:rgb(0,0,0);font-family:MinionPro-It;font-size:14.0px;stroke:none;">Abs</text>
  </g>
  <g begin="text">
   <text y="505.134" x="441.808,445.81,448.768,450.368,452.144" svgx:width="0.67,0.51,0.27,0.31,0.4" style="fill:rgb(0,0,0);font-family:MinionPro-It;font-size:6.0px;stroke:none;">white</text>
  </g>
  <g begin="text">
   <text y="502.639" x="455.017" svgx:width="0.38" style="fill:rgb(0,0,0);font-family:TeX_CM_Maths_Symbols;font-size:10.0px;stroke:none;">Þ</text>
   <text y="502.639" x="458.867" svgx:width="0.27" style="fill:rgb(0,0,0);font-family:TeX_CM_Maths_Italic;font-size:10.0px;stroke:none;">:</text>
   <text y="502.639" x="461.567,466.567,471.567" svgx:width="0.5,0.5,0.5" style="fill:rgb(0,0,0);font-family:TeX_CM_Roman;font-size:10.0px;stroke:none;">100</text>
   <text y="502.639" code="138" x="476.567" svgx:width="0.27" style="fill:rgb(0,0,0);font-family:TeX_CM_Maths_Symbols;font-size:10.0px;stroke:none;">?</text>
  </g>
  <g begin="text">
   <text y="519.307" x="403.71,412.362,419.068" svgx:width="0.66,0.49,0.34" style="fill:rgb(0,0,0);font-family:MinionPro-It;font-size:14.0px;stroke:none;">Abs</text>
  </g>
  <g begin="text">
   <text y="521.802" x="424.176,426.426,429.18,432.283,434.083,436.159,438.973" svgx:width="0.38,0.47,0.53,0.31,0.37,0.47,0.25" style="fill:rgb(0,0,0);font-family:MinionPro-It;font-size:6.0px;stroke:none;">control</text>
  </g>
  <g begin="text">
   <text y="493.398" x="357.505,365.505,479.223" svgx:width="0.8,0.55,0.8" style="fill:rgb(0,0,0);font-family:TeX_CM_Maths_Extension;font-size:10.0px;stroke:none;">( )</text>
   <text y="542.948" x="211.976,219.536,226.366,233.196,242.426,247.586,251.816,255.526,259.756,263.986,269.466,272.446,276.776,281.416,285.716,288.0,293.06,295.96,298.148,302.478,307.958,310.938,313.598,318.658,323.298,325.958,331.228,335.558,341.038,344.038,346.28,350.61,354.84,357.82,360.48,365.02,367.68,370.66" svgx:width="0.76,0.69,0.69,0.93,0.52,0.43,0.38,0.43,0.43,0.55,0.3,0.44,0.47,0.43,0.55,0.51,0.29,0.55,0.44,0.55,0.3,0.27,0.51,0.47,0.27,0.53,0.44,0.55,0.3,0.55,0.44,0.43,0.3,0.27,0.46,0.27,0.3,0.46" style="fill:rgb(0,0,0);font-family:MinionPro-Regular;font-size:10.0px;stroke:none;">%AA—percentage of antioxidant activity</text>
   <text y="555.93" x="211.976,218.806,223.866" svgx:width="0.69,0.51,0.36" style="fill:rgb(0,0,0);font-family:MinionPro-Regular;font-size:10.0px;stroke:none;">Abs</text>
  </g>
  <g begin="text">
   <text y="557.631" x="227.509,230.199,233.437,239.562,243.422,245.257" svgx:width="0.36,0.44,0.82,0.52,0.25,0.43" style="fill:rgb(0,0,0);font-family:MinionPro-Regular;font-size:6.67px;stroke:none;">sample</text>
  </g>
  <g begin="text">
   <text y="555.931" x="248.485,257.715,264.545,269.605,273.205,278.265,281.975,287.035,291.365,296.845,301.075,305.375,307.558,311.158,315.488,323.668,328.828,331.288" svgx:width="0.93,0.69,0.51,0.36,0.51,0.38,0.51,0.44,0.55,0.43,0.43,0.55,0.36,0.44,0.82,0.52,0.25,0.43" style="fill:rgb(0,0,0);font-family:MinionPro-Regular;font-size:10.0px;stroke:none;">—Absorbance sample</text>
   <text y="568.97" x="211.975,218.805,223.865" svgx:width="0.69,0.51,0.36" style="fill:rgb(0,0,0);font-family:MinionPro-Regular;font-size:10.0px;stroke:none;">Abs</text>
  </g>
  <g begin="text">
   <text y="570.614" x="227.509,232.621,236.564,238.549,240.774" svgx:width="0.69,0.53,0.27,0.3,0.43" style="fill:rgb(0,0,0);font-family:MinionPro-Regular;font-size:6.67px;stroke:none;">white</text>
  </g>
  <g begin="text">
   <text y="568.97" x="243.95,253.18,262.82,268.09,270.75,273.73,278.03000000000003,280.233,287.063,292.123,295.723,300.783,304.493,309.553,313.883,319.363,323.593" svgx:width="0.93,0.97,0.53,0.27,0.3,0.43,0.55,0.69,0.51,0.36,0.51,0.38,0.51,0.44,0.55,0.43,0.43" style="fill:rgb(0,0,0);font-family:MinionPro-Regular;font-size:10.0px;stroke:none;">—White Absorbance</text>
   <text y="581.952" x="211.976,218.806,223.866" svgx:width="0.69,0.51,0.36" style="fill:rgb(0,0,0);font-family:MinionPro-Regular;font-size:10.0px;stroke:none;">Abs</text>
  </g>
  <g begin="text">
   <text y="583.597" x="227.509,230.671,234.457,238.557,240.782,243.555,247.34" svgx:width="0.43,0.51,0.55,0.3,0.38,0.51,0.25" style="fill:rgb(0,0,0);font-family:MinionPro-Regular;font-size:6.67px;stroke:none;">control</text>
  </g>
  <g begin="text">
   <text y="581.953" x="249.222,258.452,265.072,270.132,275.612,278.592,282.302,287.362,289.862,292.081,298.911,303.971,307.571,312.631,316.341,321.401,325.731,331.211,335.441" svgx:width="0.93,0.67,0.51,0.55,0.3,0.38,0.51,0.25,0.55,0.69,0.51,0.36,0.51,0.38,0.51,0.44,0.55,0.43,0.43" style="fill:rgb(0,0,0);font-family:MinionPro-Regular;font-size:10.0px;stroke:none;">—Control Absorbance</text>
  </g>
  <g begin="text">
   <text y="613.984" x="200.012,208.589,214.549,217.882,224.466,227.798,234.383,240.343,242.919,248.919,251.488,258.073,264.033,267.366,269.942,275.902,278.479,281.811,287.811,290.38,298.956,301.533,304.865" svgx:width="0.72,0.5,0.28,0.55,0.28,0.55,0.5,0.22,0.5,0.55,0.55,0.5,0.28,0.22,0.5,0.22,0.28,0.5,0.55,0.72,0.22,0.28,0.55" style="fill:rgb(0,0,0);font-family:Helvetica;font-size:12.0px;stroke:none;">Cytotoxic activity with</text>
   <text y="613.984" x="314.135,322.087,326.044,329.376,335.961,345.917,348.493,355.093,357.674,363.635,370.219,372.795,375.372,381.956" svgx:width="0.67,0.33,0.28,0.55,0.83,0.22,0.55,0.55,0.5,0.55,0.22,0.22,0.55,0.55" style="fill:rgb(0,0,0);font-family:Helvetica-Oblique;font-size:12.0px;stroke:none;">Artemia salina</text>
   <text y="613.984" x="391.18,393.757,400.341,406.926,412.886,419.47" svgx:width="0.22,0.55,0.55,0.5,0.55,0.55" style="fill:rgb(0,0,0);font-family:Helvetica;font-size:12.0px;stroke:none;">leachg</text>
  </g>
  <g begin="text">
   <text y="630.992" x="200.012,206.113,211.382,215.68200000000002,217.813,222.044,226.583,229.563,234.624,237.604,242.663,247.303,249.964,254.193,256.853,259.833,264.43300000000005,266.682,271.013,274.612,278.212,282.542,287.142,289.302,293.633,298.272,302.602,305.262,310.742,314.342" svgx:width="0.61,0.53,0.43,0.55,0.43,0.46,0.3,0.51,0.3,0.51,0.47,0.27,0.43,0.27,0.3,0.46,0.55,0.44,0.36,0.36,0.44,0.46,0.55,0.44,0.47,0.44,0.27,0.55,0.36,0.3" style="fill:rgb(0,0,0);font-family:MinionPro-Regular;font-size:10.0px;stroke:none;">The cytotoxicity assay against</text>
   <text y="630.992" x="319.576" svgx:width="0.66" style="fill:rgb(0,0,0);font-family:MinionPro-It;font-size:10.0px;stroke:none;">A</text>
   <text y="630.992" x="326.177" svgx:width="0.23" style="fill:rgb(0,0,0);font-family:MinionPro-Regular;font-size:10.0px;stroke:none;">.</text>
   <text y="630.992" x="330.574,333.935,338.685,341.015,343.585,348.805" svgx:width="0.34,0.49,0.25,0.27,0.53,0.49" style="fill:rgb(0,0,0);font-family:MinionPro-It;font-size:10.0px;stroke:none;">salina</text>
   <text y="630.992" x="356.086,361.456,365.686,370.016,374.247,379.547,381.768,388.599,392.929,396.529,398.776,403.836,408.167,411.767,415.997,421.297,423.495,428.555,434.055,436.25,439.229,444.5,448.8,450.933,453.913,458.143,462.373,467.643,473.123,475.784,480.844,486.114,490.414,492.602,497.662,500.56199999999995,502.75,509.581,513.29,517.62,522.891,525.451,530.551,532.74,536.97,539.97,542.208,546.538,548.998,551.298,553.433" svgx:width="0.54,0.43,0.44,0.43,0.53,0.55,0.69,0.44,0.36,0.55,0.51,0.44,0.36,0.43,0.53,0.55,0.51,0.55,0.55,0.3,0.53,0.43,0.55,0.3,0.43,0.43,0.53,0.55,0.27,0.51,0.53,0.43,0.55,0.51,0.29,0.55,0.69,0.38,0.44,0.53,0.26,0.51,0.55,0.43,0.3,0.55,0.44,0.25,0.23,0.55,0.34" style="fill:rgb(0,0,0);font-family:MinionPro-Regular;font-size:10.0px;stroke:none;">Leach was based on the technique of Araujo et al. [</text>
   <text y="630.992" x="556.823,561.573" svgx:width="0.48,0.48" style="fill:rgb(58,90,166);font-family:MinionPro-Regular;font-size:10.0px;stroke:none;">14</text>
   <text y="630.992" x="566.323" svgx:width="0.34" style="fill:rgb(0,0,0);font-family:MinionPro-Regular;font-size:10.0px;stroke:none;">]</text>
   <text y="643.974" x="200.012,204.342,209.822,215.122,217.303,222.673,227.733,232.793,237.893,240.094,244.323,247.323,249.505,253.835,256.294,258.594,260.786" svgx:width="0.44,0.55,0.53,0.55,0.54,0.51,0.51,0.51,0.55,0.43,0.3,0.55,0.44,0.25,0.23,0.55,0.34" style="fill:rgb(0,0,0);font-family:MinionPro-Regular;font-size:10.0px;stroke:none;">and Lobo et al. [</text>
   <text y="643.974" x="264.177,268.927" svgx:width="0.48,0.48" style="fill:rgb(58,90,166);font-family:MinionPro-Regular;font-size:10.0px;stroke:none;">15</text>
   <text y="643.974" x="273.677,277.066,279.366,281.535,288.365,291.025,294.005,299.305,301.491,305.821,311.091,315.422,320.581,323.561,327.891,330.871,333.531,338.591,344.071,347.671,349.971,352.232,356.561,362.061,364.25,368.581,373.641,378.911,383.141,388.201,393.471,397.071,399.344,402.943,408.004,410.464,415.734,418.714,421.374,426.434,431.934,434.152,439.212,442.11199999999997,444.3,447.901,452.44,457.92,460.901,466.171,470.401,473.38,476.041,480.341,482.511,486.112,490.341,494.741,496.91,500.51,504.841,507.3,510.3,512.501,519.331,523.661,527.261,529.51,534.669,538.379,542.609,547.769,552.099,555.809,560.039" svgx:width="0.34,0.23,0.55,0.69,0.27,0.3,0.53,0.55,0.44,0.53,0.44,0.52,0.3,0.44,0.3,0.27,0.51,0.55,0.36,0.23,0.55,0.44,0.55,0.55,0.44,0.51,0.53,0.43,0.51,0.53,0.36,0.55,0.36,0.51,0.25,0.53,0.3,0.27,0.51,0.55,0.55,0.51,0.29,0.55,0.36,0.46,0.55,0.3,0.53,0.43,0.3,0.27,0.43,0.55,0.36,0.43,0.44,0.55,0.36,0.44,0.25,0.3,0.55,0.69,0.44,0.36,0.55,0.52,0.38,0.43,0.52,0.44,0.38,0.43,0.53" style="fill:rgb(0,0,0);font-family:MinionPro-Regular;font-size:10.0px;stroke:none;">], with adaptations. an aqueous solution of synthetic sea salt was prepared</text>
   <text y="657.013" x="200.012,203.402,208.152,212.902,215.152,219.952,222.122,226.762" svgx:width="0.34,0.48,0.48,0.23,0.48,0.55,0.47,0.54" style="fill:rgb(0,0,0);font-family:MinionPro-Regular;font-size:10.0px;stroke:none;">(35.5 gL</text>
  </g>
  <g begin="text">
   <text y="652.536" x="232.157,234.773" svgx:width="0.35,0.48" style="fill:rgb(0,0,0);font-family:MinionPro-Regular;font-size:6.67px;stroke:none;">-1</text>
  </g>
  <g begin="text">
   <text y="657.014" x="238.337,241.737,243.949,246.819,251.879,255.679,257.782,260.762,266.032,270.332,272.465,275.125,280.605,284.835,290.105,295.165,299.495,302.475,305.135,310.195,315.695,317.99,323.05,325.95,328.138,332.888,337.688,339.816,347.996,352.69599999999997,354.896,359.956" svgx:width="0.34,0.55,0.29,0.51,0.38,0.55,0.3,0.53,0.43,0.55,0.27,0.55,0.43,0.53,0.51,0.44,0.3,0.27,0.51,0.55,0.55,0.51,0.29,0.55,0.48,0.48,0.55,0.82,0.47,0.55,0.51,0.29" style="fill:rgb(0,0,0);font-family:MinionPro-Regular;font-size:10.0px;stroke:none;">) for the incubation of 25 mg of</text>
   <text y="657.014" x="365.044" svgx:width="0.66" style="fill:rgb(0,0,0);font-family:MinionPro-It;font-size:10.0px;stroke:none;">A</text>
   <text y="657.014" x="371.644" svgx:width="0.23" style="fill:rgb(0,0,0);font-family:MinionPro-Regular;font-size:10.0px;stroke:none;">.</text>
   <text y="657.014" x="376.043,379.403,384.153,386.483,389.053,394.273" svgx:width="0.34,0.49,0.25,0.27,0.53,0.49" style="fill:rgb(0,0,0);font-family:MinionPro-It;font-size:10.0px;stroke:none;">salina</text>
   <text y="657.014" x="401.554,405.784,410.424,415.064,418.664,420.964,423.154,429.984,435.254,437.914,442.144,447.444,449.63,456.46,460.69,464.4,468.7,470.889,476.049,478.509,482.839,487.069,491.299,496.599,498.782,501.442,506.942,509.157,512.137,517.407,521.707,523.84,529.11,533.44,537.15,542.15,544.363,547.233,552.293,556.093,558.196,562.946,567.746,569.931" svgx:width="0.43,0.47,0.47,0.36,0.23,0.55,0.69,0.53,0.27,0.43,0.53,0.55,0.69,0.43,0.38,0.43,0.55,0.52,0.25,0.44,0.43,0.43,0.53,0.55,0.27,0.55,0.55,0.3,0.53,0.43,0.55,0.53,0.44,0.38,0.5,0.55,0.29,0.51,0.38,0.55,0.48,0.48,0.55,0.53" style="fill:rgb(0,0,0);font-family:MinionPro-Regular;font-size:10.0px;stroke:none;">eggs, which were placed in the dark for 24 h</text>
   <text y="669.996" x="200.013,202.993,208.093,210.275,212.735,217.065,220.775,225.315,229.645,233.94500000000002,236.07,241.34,245.67,248.65,252.88,258.15,260.81,266.29,270.99,273.202,276.592,282.072,286.402,291.672,296.832,299.292,301.952,307.222,310.822,314.212,316.512,318.783,321.763,327.033,331.263,336.763,338.966,341.946,347.216,351.516,353.649,359.129,363.459,368.729,373.889,376.349,379.009,384.279,387.879,390.159,396.989,401.219,404.929,409.229,411.362,415.592,420.232,425.392,430.452,434.052,438.282,443.582,445.831,448.811,453.911,456.093,460.423,464.133,467.113,469.773,472.643,475.303,479.533,482.193,486.523,489.023,491.242,493.702,496.362,501.002,506.272,509.272,511.481,514.141,519.641,521.856,526.606,531.406,533.535,538.805,543.865,549.135" svgx:width="0.3,0.51,0.55,0.25,0.44,0.38,0.46,0.44,0.43,0.55,0.53,0.44,0.3,0.43,0.53,0.27,0.55,0.47,0.55,0.34,0.55,0.44,0.53,0.52,0.25,0.27,0.53,0.36,0.34,0.23,0.55,0.3,0.53,0.43,0.55,0.55,0.3,0.53,0.43,0.55,0.55,0.44,0.53,0.52,0.25,0.27,0.53,0.36,0.55,0.69,0.43,0.38,0.43,0.55,0.43,0.47,0.52,0.51,0.36,0.43,0.53,0.55,0.3,0.51,0.55,0.44,0.38,0.3,0.27,0.29,0.27,0.43,0.27,0.44,0.25,0.55,0.25,0.27,0.47,0.53,0.3,0.55,0.27,0.55,0.55,0.48,0.48,0.55,0.53,0.51,0.53,0.38" style="fill:rgb(0,0,0);font-family:MinionPro-Regular;font-size:10.0px;stroke:none;">to larvae hatching (nauplius), then the nauplius were exposed to artificial light in 24 hour</text>
   <text y="682.979" x="200.013,205.173,209.403,213.113,215.773,220.833,226.133,228.36,231.34,236.44,238.563,242.273,246.503,250.833,255.063,260.363,262.601,270.781,275.011,277.991,282.321,287.801,292.131,297.401,302.561,305.021,307.681,312.951,316.55100000000004,318.84,322.44,325.42,329.75,334.39,338.62,340.92,343.104,349.204,354.474,358.774,360.962,369.142,374.202,377.182,382.452,386.682,390.482,392.597,396.197,401.257,403.717,408.987,411.967,414.627,419.687,425.187,427.463,434.293,438.623,442.223,444.414,449.574,453.284,457.514,462.674,467.004,470.714,474.944,480.244,482.511,485.491,490.591,492.773,497.003,502.063,507.543,510.523,514.853,517.513,523.013,525.201,529.951,534.751,536.936,545.116,549.816,551.96,557.02" svgx:width="0.52,0.43,0.38,0.27,0.51,0.53,0.55,0.3,0.51,0.55,0.38,0.43,0.44,0.43,0.53,0.55,0.82,0.43,0.3,0.44,0.55,0.44,0.53,0.52,0.25,0.27,0.53,0.36,0.55,0.36,0.3,0.44,0.47,0.43,0.23,0.55,0.61,0.53,0.43,0.55,0.82,0.51,0.3,0.53,0.43,0.38,0.55,0.36,0.51,0.25,0.53,0.3,0.27,0.51,0.55,0.55,0.69,0.44,0.36,0.55,0.52,0.38,0.43,0.52,0.44,0.38,0.43,0.53,0.55,0.3,0.51,0.55,0.43,0.51,0.55,0.3,0.44,0.27,0.55,0.55,0.48,0.48,0.55,0.82,0.47,0.55,0.51,0.29" style="fill:rgb(0,0,0);font-family:MinionPro-Regular;font-size:10.0px;stroke:none;">period to reach metanauplius stage. The mother solution was prepared to contain 54 mg of</text>
   <text y="696.018" x="200.013,204.243,207.843,211.443,215.673,221.153,224.133,226.793,231.123,233.623,235.843,240.903,243.563,246.063,248.258,252.588,257.858,263.128,267.358,272.658,274.847,279.597,284.347,286.597,291.397,293.555,301.735,307.135,309.316,314.376,317.27599999999995,319.464,323.064,327.604,333.084,336.064,341.334,345.564,348.544,351.204,355.504,357.731,361.331,365.561,369.96099999999996,372.074,375.674,380.004,382.464,385.464,387.721,391.321,396.381,398.841,404.111,407.091,409.751,414.811,420.311,422.531,426.861,432.341,437.641,439.822,444.572,446.822,451.622,453.768,461.948,467.34799999999996,469.585,474.645,477.54499999999996,479.733,484.483,494.247,499.517,502.177,510.357,514.587,517.567,522.837,527.377,529.837,533.437,538.707,541.167,544.037,549.097,553.737,556.397,561.667" svgx:width="0.43,0.36,0.36,0.43,0.55,0.3,0.27,0.44,0.25,0.55,0.51,0.27,0.25,0.55,0.44,0.53,0.53,0.43,0.53,0.55,0.48,0.48,0.23,0.48,0.55,0.82,0.54,0.55,0.51,0.29,0.55,0.36,0.46,0.55,0.3,0.53,0.43,0.3,0.27,0.43,0.55,0.36,0.43,0.44,0.55,0.36,0.44,0.25,0.3,0.55,0.36,0.51,0.25,0.53,0.3,0.27,0.51,0.55,0.55,0.44,0.55,0.53,0.55,0.48,0.23,0.48,0.55,0.82,0.54,0.55,0.51,0.29,0.55,0.48,0.76,0.53,0.27,0.82,0.43,0.3,0.53,0.46,0.25,0.36,0.53,0.25,0.29,0.51,0.47,0.27,0.53,0.43" style="fill:rgb(0,0,0);font-family:MinionPro-Regular;font-size:10.0px;stroke:none;">essential oil added 22.5 mL of synthetic sea salt solution and 4.5 mL of 5%dimethylsulfoxide</text>
   <text y="709.001" x="200.013,203.403,210.753,219.663,224.413,231.873,235.273,237.487,240.467,245.567,247.747,250.617,254.947,259.177,261.837,264.297,266.957,269.937,274.267,277.247,281.547,283.747,287.347,292.407,294.867,300.137,305.197,307.857,310.317,312.977,317.097,321.427,324.407,327.067,332.127,337.627,339.93,344.99,347.89,350.078,352.738,355.718" svgx:width="0.34,0.74,0.89,0.48,0.75,0.34,0.55,0.3,0.51,0.55,0.29,0.44,0.43,0.27,0.25,0.27,0.3,0.44,0.3,0.43,0.55,0.36,0.51,0.25,0.53,0.51,0.27,0.25,0.27,0.42,0.44,0.3,0.27,0.51,0.55,0.55,0.51,0.29,0.55,0.27,0.3,0.23" style="fill:rgb(0,0,0);font-family:MinionPro-Regular;font-size:10.0px;stroke:none;">(DMSO) to facilitate solubilization of it.</text>
  </g>
  <path style="fill:rgb(0,0,0);stroke:none;stroke-width:1.0;" d="M576.000 54.900 L36.000 54.900 L36.000 54.400 L576.000 54.400 "/>
  <rect style="stroke:blue;stroke-width:0.3;" x="36.0" y="35.043" height="23.64" width="107.093" title="3"/>
  <text y="35.043" class="image" id="image.3.1" width="107" height="23" x="36.0">image.3.1.36_143.35_59</text>
  <g begin="text">
   <text y="46.205" x="373.833,379.537,383.913,388.289,394.913,396.617,400.577,404.953,406.71299999999997,408.358,412.734,417.11,421.51,423.212,428.5,430.203,434.579,436.283,440.659,445.035,446.739,450.594,454.97,456.73,458.418,463.706,467.666,469.874,471.578,475.538,477.242,479.45,483.45,485.12,489.496" svgx:width="0.72,0.55,0.55,0.83,0.22,0.5,0.55,0.22,0.55,0.55,0.55,0.55,0.55,0.67,0.22,0.55,0.22,0.55,0.55,0.22,0.5,0.55,0.22,0.55,0.67,0.5,0.28,0.22,0.5,0.22,0.28,0.5,0.55,0.55,0.28" style="fill:rgb(0,0,0);font-family:Helvetica;font-size:8.0px;stroke:none;">Chemical and Biological Activity of</text>
   <text y="46.205" x="493.454,498.742,503.118,507.494,509.198,510.902,515.278,519.654,521.862,526.238,530.613,534.613,536.257,540.217,544.593,548.969,552.929,557.305,561.681,563.385,567.761,572.03" svgx:width="0.67,0.55,0.55,0.22,0.22,0.55,0.55,0.28,0.55,0.55,0.5,0.55,0.5,0.55,0.55,0.5,0.55,0.55,0.22,0.55,0.55,0.5" style="fill:rgb(0,0,0);font-family:Helvetica-Oblique;font-size:8.0px;stroke:none;">Aeollanthus suaveolens</text>
  </g>
  <path style="fill:rgb(0,0,0);stroke:none;stroke-width:1.0;" d="M36.000 744.000 L576.000 744.000 L576.000 744.500 L36.000 744.500 "/>
  <g begin="text">
   <text y="756.0" x="36.0,41.288,45.664,51.872,57.232,58.847,65.055,70.759,76.119,77.782,79.862,81.58,87.284,93.492,95.7,97.908,102.284,106.66,108.868,113.244,117.62,121.889,126.265,128.473,130.177,134.553,138.929,141.553,145.929,150.305,152.009,154.217,158.593,162.878,167.254,171.63,173.837,178.213,182.589,186.965,191.224,195.6,199.976,204.376,212.314,218.018,222.394,226.354,230.73,237.354,241.729,246.105,248.74499999999998,250.411,254.787,257.027,258.745,263.121,267.497,271.873,276.27299999999997,557.118,561.518,563.241" svgx:width="0.67,0.55,0.78,0.67,0.55,0.78,0.72,0.67,0.55,0.26,0.55,0.72,0.78,0.28,0.28,0.55,0.55,0.28,0.55,0.55,0.55,0.55,0.28,0.22,0.55,0.55,0.33,0.55,0.55,0.22,0.28,0.55,0.55,0.55,0.55,0.28,0.55,0.55,0.55,0.55,0.55,0.55,0.55,0.55,0.72,0.55,0.5,0.55,0.83,0.55,0.55,0.33,0.55,0.55,0.28,0.55,0.55,0.55,0.55,0.55,0.55,0.55,0.55,0.28" style="fill:rgb(0,0,0);font-family:Helvetica;font-size:8.0px;stroke:none;">PLOS ONE | DOI:10.1371/journal.pone.0166684 December 1, 2016 3 /</text>
  </g>
  <g begin="text">
   <text y="756.0" x="567.209,571.585" svgx:width="0.55,0.55" style="fill:rgb(0,0,0);font-family:Helvetica;font-size:8.0px;stroke:none;">10</text>
  </g>
 </g>
</svg>
