<?xml version="1.0" encoding="UTF-8"?>
<svg height="746.5" width="548.58" xmlns="http://www.w3.org/2000/svg">
 <g>
  <text svgx:width="0.48,0.48,0.17,0.55,0.46,0.81,0.21,0.3,0.53,0.29,0.5,0.45,0.21,0.81,0.48,0.29,0.55,0.58,0.17,0.55,0.46,0.3,0.48,0.72,0.45,0.29,0.3,0.55,0.34,0.17,0.55,0.46,0.44,0.26,0.48,0.55,0.45,0.17,0.55,0.46,0.53,0.48,0.55,0.54,0.53,0.3,0.48,0.53,0.3,0.21,0.45,0.21,0.55,0.45,0.54,0.54,0.21,0.21,0.44,0.45,0.3,0.21,0.53,0.53,0.55,0.53,0.26,0.55,0.54,0.21,0.45,0.53,0.3" y="95.4" x="56.7,60.1,63.5,64.8,71.7,75.0,80.8,82.3,84.4,88.2,90.3,93.8,97.0,98.5,104.3,107.7,109.9,111.9,116.1,117.3,119.4,122.7,124.8,128.2,133.3,136.5,138.6,140.8,142.9,145.3,146.6,148.6,151.9,155.0,156.9,160.5,162.4,165.6,166.9,168.9,172.2,176.0,179.6,181.5,185.4,189.2,191.3,194.7,198.5,200.7,202.1,205.3,206.9,209.0,212.1,216.0,219.9,221.3,222.8,225.9,229.1,231.3,232.7,236.5,240.5,242.5,246.2,248.2,250.3,254.1,255.6,258.8,262.6" style="fill:rgb(19,20,19);font-family:CgyggcAdvTTb5929f4c;font-size:7.5px;stroke:none;" xmlns:svgx="http://www.xml-cml.org/schema/svgx">33. Smith-Palmer A, Stewart J, Fyfe L. The potential application of plant</text>
  <text svgx:width="0.48,0.36,0.36,0.48,0.53,0.3,0.21,0.45,0.21,0.55,0.53,0.21,0.21,0.36,0.55,0.45,0.36,0.55,0.53,0.45,0.3,0.52,0.29,0.45,0.21,0.55,0.26,0.53,0.53,0.54,0.55,0.54,0.29,0.48,0.36,0.48,0.29,0.45,0.45,0.3,0.21,0.45,0.48,0.36,0.55,0.21,0.53,0.55,0.36,0.53,0.26,0.3,0.55,0.44,0.53,0.48,0.48,0.36,0.48,0.17,0.55,0.46,0.53,0.53,0.54,0.55,0.77,0.21,0.44,0.29,0.53,0.54,0.21,0.53,0.21,0.17" y="104.3" x="71.7,75.1,77.7,80.3,83.7,87.5,89.7,91.1,94.3,95.9,98.0,101.8,103.2,104.7,107.4,109.4,112.6,115.3,117.4,121.1,124.3,126.5,130.2,132.3,135.4,137.0,139.1,140.9,144.7,148.5,152.5,154.5,158.3,160.4,163.8,166.4,169.8,171.9,175.1,178.3,180.4,181.9,185.1,188.5,191.2,193.3,194.7,198.7,200.7,203.3,207.1,208.9,211.2,213.2,216.3,220.1,223.5,226.9,229.5,232.9,234.2,236.2,239.5,243.3,247.0,251.1,253.1,258.5,260.0,263.1,265.2,269.0,272.8,274.3,278.1,279.6" style="fill:rgb(19,20,19);font-family:CgyggcAdvTTb5929f4c;font-size:7.5px;stroke:none;" xmlns:svgx="http://www.xml-cml.org/schema/svgx">essential oils as natural food preservatives in soft cheese. Food Microbiol.</text>
  <text svgx:width="0.48,0.48,0.48,0.48,0.17,0.48,0.48,0.17,0.48,0.48,0.48" y="113.3" x="71.7,75.1,78.5,82.0,85.4,86.6,90.0,93.4,94.6,98.0,101.4" style="fill:rgb(19,20,19);font-family:CgyggcAdvTTb5929f4c;font-size:7.5px;stroke:none;" xmlns:svgx="http://www.xml-cml.org/schema/svgx">2001;18:463</text>
  <text svgx:width="0.5" y="113.3" x="104.8" style="fill:rgb(19,20,19);font-family:PlwbpvAdvTTb5929f4c;font-size:7.5px;stroke:none;" xmlns:svgx="http://www.xml-cml.org/schema/svgx">–</text>
  <text svgx:width="0.48,0.48,0.17" y="113.3" x="108.3,111.8,115.2" style="fill:rgb(19,20,19);font-family:CgyggcAdvTTb5929f4c;font-size:7.5px;stroke:none;" xmlns:svgx="http://www.xml-cml.org/schema/svgx">70.</text>
  <text svgx:width="0.48,0.48,0.17,0.55,0.61,0.52,0.3,0.21,0.48,0.29,0.29,0.48,0.4,0.55,0.34,0.17,0.55,0.5,0.45,0.29,0.29,0.44,0.29,0.5,0.44,0.45,0.53,0.55,0.56,0.17,0.55,0.5,0.53,0.52,0.29,0.42,0.48,0.55,0.5,0.17,0.55,0.58,0.53,0.3,0.21,0.81,0.21,0.44,0.29,0.53,0.54,0.21,0.45,0.21,0.55,0.45,0.44,0.3,0.21,0.45,0.21,0.3,0.44,0.55,0.53,0.26,0.55,0.54,0.21,0.45,0.53,0.3,0.55,0.48,0.36,0.36,0.48,0.53,0.3,0.21,0.45,0.21" y="122.3" x="56.7,60.1,63.5,64.8,71.7,76.1,79.8,82.0,83.4,86.8,88.9,91.0,94.4,97.4,99.3,101.8,103.0,105.1,108.7,111.9,113.9,116.0,119.1,121.2,124.8,127.9,131.1,135.0,137.0,141.0,142.3,144.3,147.9,151.7,155.4,157.5,160.4,164.0,166.0,169.6,170.8,172.9,177.0,180.8,182.9,184.4,190.2,191.7,194.8,196.9,200.7,204.5,206.0,209.2,210.8,212.8,216.0,219.1,221.3,222.8,225.9,227.4,229.6,232.9,234.9,238.7,240.6,242.6,246.5,248.0,251.2,255.0,257.2,259.3,262.7,265.3,267.9,271.3,275.1,277.2,278.7,281.9" style="fill:rgb(19,20,19);font-family:CgyggcAdvTTb5929f4c;font-size:7.5px;stroke:none;" xmlns:svgx="http://www.xml-cml.org/schema/svgx">34. Gutierrez J, Barry-Ryan C, Bourke P. Antimicrobial activity of plant essential</text>
  <text svgx:width="0.53,0.21,0.21,0.36,0.55,0.52,0.36,0.21,0.53,0.54,0.55,0.26,0.53,0.53,0.54,0.55,0.81,0.53,0.54,0.48,0.21,0.55,0.81,0.48,0.54,0.21,0.45,0.17,0.55,0.48,0.26,0.26,0.21,0.44,0.45,0.44,0.44,0.17,0.55,0.36,0.44,0.53,0.48,0.29,0.54,0.21,0.36,0.3,0.21,0.44,0.55,0.54,0.53,0.3,0.48,0.53,0.3,0.21,0.45,0.21,0.55,0.45,0.53,0.54,0.55,0.21,0.53,0.3,0.48,0.29,0.45,0.44,0.3,0.21,0.53,0.53,0.36" y="131.4" x="71.7,75.5,77.0,78.5,81.2,83.2,86.9,89.5,90.9,94.7,98.8,100.7,102.6,106.4,110.2,114.2,116.2,122.0,125.7,129.6,133.0,134.6,136.6,142.4,145.8,149.7,151.2,154.3,155.6,157.7,161.1,162.9,164.8,166.3,169.4,172.6,175.7,178.8,180.1,182.1,184.7,187.9,191.6,195.1,197.1,201.0,202.5,205.1,207.2,208.7,212.0,214.0,217.8,221.6,223.7,227.2,230.9,233.1,234.6,237.8,239.3,241.4,244.6,248.4,252.4,254.4,255.9,259.6,261.8,265.2,267.3,270.5,273.6,275.7,277.2,281.0,284.8" style="fill:rgb(19,20,19);font-family:CgyggcAdvTTb5929f4c;font-size:7.5px;stroke:none;" xmlns:svgx="http://www.xml-cml.org/schema/svgx">oils using food model media: efficacy, synergistic potential and interactions</text>
  <text svgx:width="0.72,0.21,0.3,0.53,0.55,0.26,0.53,0.53,0.54,0.55,0.44,0.53,0.81,0.54,0.53,0.53,0.48,0.53,0.3,0.36,0.17,0.55,0.46,0.53,0.53,0.54,0.55,0.77,0.21,0.44,0.29,0.53,0.54,0.21,0.53,0.21,0.17,0.55,0.48,0.48,0.48,0.48,0.17,0.48,0.48,0.17,0.48,0.48,0.48" y="140.3" x="71.7,76.8,78.3,80.5,84.4,86.3,88.2,92.0,95.8,99.8,101.8,104.9,108.7,114.4,118.3,122.1,125.9,129.3,133.1,135.2,137.8,139.1,141.2,144.4,148.2,152.0,156.0,158.0,163.5,165.0,168.1,170.2,173.9,177.8,179.3,183.1,184.5,185.8,187.9,191.3,194.7,198.1,201.5,202.7,206.1,209.5,210.7,214.1,217.5" style="fill:rgb(19,20,19);font-family:CgyggcAdvTTb5929f4c;font-size:7.5px;stroke:none;" xmlns:svgx="http://www.xml-cml.org/schema/svgx">with food components. Food Microbiol. 2009;26:142</text>
  <text svgx:width="0.5" y="140.3" x="221.0" style="fill:rgb(19,20,19);font-family:PlwbpvAdvTTb5929f4c;font-size:7.5px;stroke:none;" xmlns:svgx="http://www.xml-cml.org/schema/svgx">–</text>
  <text svgx:width="0.48,0.48,0.17" y="140.3" x="224.5,227.9,231.3" style="fill:rgb(19,20,19);font-family:CgyggcAdvTTb5929f4c;font-size:7.5px;stroke:none;" xmlns:svgx="http://www.xml-cml.org/schema/svgx">50.</text>
  <text svgx:width="0.48,0.48,0.17,0.55,0.63,0.44,0.21,0.54,0.54,0.45,0.45,0.29,0.54,0.55,0.77,0.17,0.55,0.77,0.44,0.54,0.21,0.53,0.54,0.55,0.46,0.17,0.55,0.77,0.48,0.44,0.48,0.29,0.55,0.5,0.45,0.17,0.55,0.46,0.36,0.36,0.48,0.53,0.3,0.21,0.45,0.21,0.55,0.53,0.21,0.21,0.36,0.55,0.21,0.53,0.55,0.26,0.53,0.53,0.54,0.55,0.54,0.29,0.48,0.36,0.48,0.29,0.45,0.45,0.3,0.21,0.53,0.53,0.17,0.55,0.81,0.53,0.54,0.48" y="149.3" x="56.7,60.1,63.5,64.8,71.7,76.2,79.3,80.8,84.6,88.5,91.7,94.8,96.9,101.0,102.9,108.4,109.7,111.7,117.2,120.3,124.2,125.7,129.5,133.5,135.4,138.7,140.0,142.0,147.5,150.9,154.0,157.4,159.6,161.7,165.2,168.4,169.7,171.8,175.0,177.6,180.2,183.6,187.4,189.6,191.1,194.2,195.8,197.9,201.6,203.1,204.6,207.3,209.4,210.8,214.8,216.7,218.6,222.4,226.1,230.2,232.1,236.0,238.1,241.5,244.1,247.5,249.6,252.7,255.9,258.1,259.6,263.4,267.1,268.4,270.5,276.3,280.0,283.9" style="fill:rgb(19,20,19);font-family:CgyggcAdvTTb5929f4c;font-size:7.5px;stroke:none;" xmlns:svgx="http://www.xml-cml.org/schema/svgx">35. Hyldgaard M, Mygind T, Meyer RL. Essential oils in food preservation: mode</text>
  <text svgx:width="0.53,0.26,0.55,0.45,0.44,0.3,0.21,0.53,0.53,0.17,0.55,0.36,0.44,0.53,0.48,0.29,0.54,0.21,0.48,0.36,0.17,0.55,0.45,0.53,0.54,0.55,0.21,0.53,0.3,0.48,0.29,0.45,0.44,0.3,0.21,0.53,0.53,0.36,0.55,0.72,0.21,0.3,0.53,0.55,0.26,0.53,0.53,0.54,0.55,0.81,0.45,0.3,0.29,0.21,0.43,0.55,0.44,0.53,0.81,0.54,0.53,0.53,0.48,0.53,0.3,0.36,0.17,0.55,0.46,0.29,0.53,0.53,0.3" y="158.3" x="71.7,75.5,77.5,79.5,82.7,85.8,87.9,89.4,93.2,97.0,98.3,100.3,102.9,106.0,109.8,113.2,115.3,119.1,120.6,124.0,126.6,127.9,129.9,133.1,136.9,141.0,142.9,144.4,148.2,150.3,153.7,155.8,159.0,162.1,164.3,165.8,169.5,173.3,176.0,178.1,183.2,184.7,186.8,190.8,192.8,194.6,198.4,202.2,206.2,208.2,214.0,217.1,219.3,221.4,222.8,226.1,228.0,231.1,234.9,240.7,244.5,248.3,252.1,255.5,259.3,261.5,264.1,265.3,267.4,270.7,272.7,276.5,280.3" style="fill:rgb(19,20,19);font-family:CgyggcAdvTTb5929f4c;font-size:7.5px;stroke:none;" xmlns:svgx="http://www.xml-cml.org/schema/svgx">of action, synergies, and interactions with food matrix components. Front</text>
  <text svgx:width="0.77,0.21,0.44,0.29,0.53,0.54,0.21,0.53,0.21,0.17,0.55,0.48,0.48,0.48,0.48,0.17,0.48,0.17,0.48,0.48,0.17" y="167.4" x="71.7,77.2,78.7,81.8,83.9,87.7,91.5,93.0,96.8,98.3,99.5,101.6,105.0,108.4,111.8,115.2,116.4,119.8,121.0,124.4,127.8" style="fill:rgb(19,20,19);font-family:CgyggcAdvTTb5929f4c;font-size:7.5px;stroke:none;" xmlns:svgx="http://www.xml-cml.org/schema/svgx">Microbiol. 2012;3:12.</text>
  <text svgx:width="0.48,0.48,0.17,0.55,0.5,0.45,0.21,0.54,0.45,0.21,0.55,0.5,0.49,0.17,0.55,0.5,0.45,0.48,0.42,0.55,0.49,0.63,0.17,0.55,0.49,0.45,0.53,0.54,0.55,0.46,0.56,0.17,0.55,0.56,0.53,0.53,0.3,0.29,0.53,0.21,0.55,0.53,0.26,0.55,0.46,0.45,0.21,0.81,0.53,0.53,0.48,0.21,0.21,0.45,0.55,0.21,0.53,0.55,0.26,0.53,0.53,0.54,0.36,0.55,0.54,0.44,0.55,0.52,0.36,0.21,0.53,0.54" y="176.3" x="56.7,60.1,63.5,64.8,71.7,75.3,78.5,79.9,83.8,87.0,88.6,90.6,94.2,97.6,98.9,101.0,104.5,107.7,111.1,114.3,116.2,119.7,124.2,125.4,127.5,131.0,134.2,138.0,142.0,143.9,147.2,151.2,152.5,154.5,158.5,162.3,166.1,168.3,170.3,174.1,175.7,177.7,181.5,183.5,185.5,188.8,192.0,193.5,199.3,203.0,206.8,210.2,211.7,213.2,216.6,218.5,220.0,224.0,225.9,227.8,231.5,235.3,239.2,241.9,243.9,247.8,251.1,253.1,256.8,259.4,260.8,264.6" style="fill:rgb(19,20,19);font-family:CgyggcAdvTTb5929f4c;font-size:7.5px;stroke:none;" xmlns:svgx="http://www.xml-cml.org/schema/svgx">36. Bajpai VK, Baek KH, Kang SC. Control of Salmonella in foods by using</text>
  <text svgx:width="0.48,0.36,0.36,0.48,0.53,0.3,0.21,0.45,0.21,0.55,0.53,0.21,0.21,0.36,0.17,0.55,0.45,0.55,0.29,0.48,0.45,0.21,0.48,0.72,0.17,0.55,0.46,0.53,0.53,0.54,0.55,0.5,0.48,0.36,0.55,0.21,0.53,0.3,0.17,0.55,0.48,0.48,0.48,0.48,0.17,0.48,0.48,0.17,0.48,0.48,0.48" y="185.3" x="71.7,75.1,77.7,80.3,83.7,87.5,89.7,91.1,94.3,95.9,98.0,101.8,103.2,104.7,107.3,108.6,110.6,114.0,115.9,118.0,121.4,124.6,126.1,129.5,134.6,135.9,137.9,141.2,145.0,148.8,152.8,154.8,158.3,161.7,164.4,166.5,168.0,171.8,173.9,175.2,177.2,180.6,184.0,187.5,190.9,192.1,195.5,198.9,200.1,203.5,206.9" style="fill:rgb(19,20,19);font-family:CgyggcAdvTTb5929f4c;font-size:7.5px;stroke:none;" xmlns:svgx="http://www.xml-cml.org/schema/svgx">essential oils: a review. Food Res Int. 2012;45:722</text>
  <text svgx:width="0.5" y="185.3" x="210.3" style="fill:rgb(19,20,19);font-family:PlwbpvAdvTTb5929f4c;font-size:7.5px;stroke:none;" xmlns:svgx="http://www.xml-cml.org/schema/svgx">–</text>
  <text svgx:width="0.48,0.48,0.17" y="185.3" x="213.9,217.3,220.7" style="fill:rgb(19,20,19);font-family:CgyggcAdvTTb5929f4c;font-size:7.5px;stroke:none;" xmlns:svgx="http://www.xml-cml.org/schema/svgx">34.</text>
  <text svgx:width="0.48,0.48,0.17,0.55,0.56,0.45,0.42,0.21,0.29,0.55,0.58,0.17,0.55,0.49,0.53,0.29,0.54,0.45,0.21,0.21,0.55,0.46,0.17,0.55,0.53,0.48,0.53,0.54,0.21,0.53,0.55,0.63,0.17,0.55,0.21,0.4,0.52,0.81,0.21,0.55,0.46,0.17,0.55,0.63,0.21,0.29,0.45,0.3,0.45,0.55,0.46,0.17,0.55,0.56,0.53,0.81,0.54,0.53,0.36,0.21,0.3,0.21,0.53,0.53,0.55,0.45,0.53,0.54,0.55,0.45,0.53,0.3,0.21,0.26,0.52,0.53,0.54,0.45,0.21" y="194.3" x="56.7,60.1,63.5,64.8,71.7,75.7,78.9,81.9,83.4,85.5,87.5,91.7,93.0,95.0,98.5,102.3,104.4,108.2,111.4,112.9,114.5,116.6,119.8,121.1,123.1,126.9,130.3,134.1,138.0,139.5,143.4,145.4,149.8,151.1,153.1,154.6,157.4,161.1,166.9,168.5,170.6,173.9,175.1,177.2,181.6,183.1,185.2,188.4,190.5,193.9,195.8,199.1,200.4,202.4,206.4,210.2,216.0,219.8,223.6,226.2,227.7,229.8,231.3,235.1,239.1,241.1,244.2,248.0,252.1,254.0,257.2,261.0,263.2,264.6,266.5,270.2,274.0,277.8,281.0" style="fill:rgb(19,20,19);font-family:CgyggcAdvTTb5929f4c;font-size:7.5px;stroke:none;" xmlns:svgx="http://www.xml-cml.org/schema/svgx">37. Cakir A, Kordali S, Zengin H, Izumi S, Hirata T. Composition and antifungal</text>
  <text svgx:width="0.45,0.44,0.3,0.21,0.45,0.21,0.3,0.44,0.55,0.53,0.26,0.55,0.48,0.36,0.36,0.48,0.53,0.3,0.21,0.45,0.21,0.55,0.53,0.21,0.21,0.36,0.55,0.21,0.36,0.53,0.21,0.45,0.3,0.48,0.54,0.55,0.26,0.29,0.53,0.81,0.55,0.63,0.44,0.54,0.48,0.29,0.21,0.44,0.52,0.81,0.55,0.53,0.44,0.36,0.36,0.53,0.54,0.21,0.26,0.53,0.21,0.21,0.52,0.81,0.55,0.45,0.53,0.54" y="203.4" x="71.7,74.9,78.0,80.2,81.7,84.8,86.3,88.5,91.8,93.7,97.5,99.4,101.5,104.9,107.5,110.1,113.5,117.3,119.4,120.9,124.1,125.7,127.7,131.5,133.0,134.5,137.2,139.2,140.7,143.3,147.1,148.6,151.8,153.9,157.3,161.4,163.3,165.2,167.3,171.0,177.1,179.0,183.4,186.5,190.4,193.8,195.9,197.4,200.5,204.2,210.3,212.1,215.9,219.0,221.6,224.2,228.0,231.8,233.3,235.1,238.9,240.4,241.9,245.6,251.7,253.6,256.8,260.6" style="fill:rgb(19,20,19);font-family:CgyggcAdvTTb5929f4c;font-size:7.5px;stroke:none;" xmlns:svgx="http://www.xml-cml.org/schema/svgx">activity of essential oils isolated from Hypericum hyssopifolium and</text>
  <text svgx:width="0.63,0.44,0.54,0.48,0.29,0.21,0.44,0.52,0.81,0.55,0.53,0.48,0.3,0.48,0.29,0.53,0.54,0.53,0.44,0.21,0.21,0.52,0.81,0.17,0.55,0.46,0.21,0.45,0.45,0.55,0.46,0.29,0.45,0.54,0.55,0.34,0.17,0.55,0.48,0.48,0.48,0.48,0.17,0.48,0.48,0.17,0.48,0.48" y="212.3" x="71.7,76.2,79.3,83.1,86.6,88.6,90.1,93.2,96.9,103.0,104.8,108.6,112.0,114.2,117.6,119.7,123.4,127.3,131.1,134.2,135.7,137.2,140.9,146.7,147.9,150.0,153.3,154.8,157.9,161.3,163.3,166.5,168.6,171.8,175.9,177.8,180.2,181.5,183.6,187.0,190.4,193.8,197.2,198.4,201.8,205.2,206.4,209.8" style="fill:rgb(19,20,19);font-family:CgyggcAdvTTb5929f4c;font-size:7.5px;stroke:none;" xmlns:svgx="http://www.xml-cml.org/schema/svgx">Hypericum heterophyllum. Flav Frag J. 2004;19:62</text>
  <text svgx:width="0.5" y="212.3" x="213.2" style="fill:rgb(19,20,19);font-family:PlwbpvAdvTTb5929f4c;font-size:7.5px;stroke:none;" xmlns:svgx="http://www.xml-cml.org/schema/svgx">–</text>
  <text svgx:width="0.48,0.17" y="212.3" x="216.8,220.2" style="fill:rgb(19,20,19);font-family:CgyggcAdvTTb5929f4c;font-size:7.5px;stroke:none;" xmlns:svgx="http://www.xml-cml.org/schema/svgx">8.</text>
  <text svgx:width="0.48,0.48,0.17,0.55,0.46,0.21,0.21,0.21,0.54,0.53,0.72,0.21,0.44,0.4,0.55,0.63,0.17,0.55,0.49,0.45,0.81,0.21,0.53,0.36,0.42,0.21,0.55,0.77,0.17,0.55,0.49,0.52,0.29,0.21,0.48,0.53,0.54,0.45,0.55,0.34,0.17,0.55,0.58,0.36,0.4,0.3,0.48,0.81,0.54,0.53,0.29,0.36,0.42,0.45,0.55,0.77,0.17,0.55,0.58,0.53,0.3,0.21,0.54,0.45,0.44,0.3,0.48,0.29,0.21,0.45,0.21,0.55,0.45,0.53,0.54" y="221.3" x="56.7,60.1,63.5,64.8,71.7,75.0,76.5,77.9,79.4,83.3,87.1,92.2,93.7,96.8,99.8,101.7,106.2,107.5,109.6,113.1,116.3,122.0,123.5,127.3,129.9,132.9,134.4,136.5,142.0,143.3,145.3,148.8,152.5,154.6,156.0,159.5,163.2,167.1,170.5,172.5,174.9,176.2,178.2,182.4,185.0,187.8,190.0,193.4,199.1,203.0,206.8,208.9,211.5,214.4,217.8,219.7,225.2,226.5,228.6,232.7,236.5,238.7,240.1,244.0,247.2,250.3,252.5,255.9,257.9,259.4,262.6,264.2,266.2,269.4,273.2" style="fill:rgb(19,20,19);font-family:CgyggcAdvTTb5929f4c;font-size:7.5px;stroke:none;" xmlns:svgx="http://www.xml-cml.org/schema/svgx">38. Filipowicz N, Kaminski M, Kurlenda J, Asztemborska M. Antibacterial and</text>
  <text svgx:width="0.45,0.53,0.3,0.21,0.26,0.52,0.53,0.54,0.45,0.21,0.55,0.45,0.44,0.3,0.21,0.45,0.21,0.3,0.44,0.55,0.53,0.26,0.55,0.21,0.52,0.53,0.21,0.54,0.48,0.29,0.55,0.54,0.48,0.29,0.29,0.44,0.55,0.53,0.21,0.21,0.55,0.45,0.53,0.54,0.55,0.21,0.3,0.36,0.55,0.36,0.48,0.21,0.48,0.44,0.3,0.48,0.54,0.55,0.44,0.53,0.81,0.54,0.53,0.53,0.48,0.53,0.3,0.36,0.17" y="230.3" x="71.7,74.9,78.7,80.8,82.3,84.2,87.9,91.7,95.5,98.7,100.3,102.3,105.5,108.6,110.8,112.3,115.5,116.9,119.1,122.4,124.3,128.1,130.1,132.1,133.6,137.3,141.1,142.5,146.4,149.8,152.0,154.0,157.9,161.3,163.4,165.4,168.7,170.8,174.5,176.0,177.6,179.6,182.8,186.6,190.6,192.6,194.1,196.2,198.9,201.0,203.6,207.0,208.5,211.9,215.0,217.1,220.6,224.6,226.5,229.7,233.4,239.2,243.1,246.9,250.6,254.1,257.8,260.0,262.6" style="fill:rgb(19,20,19);font-family:CgyggcAdvTTb5929f4c;font-size:7.5px;stroke:none;" xmlns:svgx="http://www.xml-cml.org/schema/svgx">antifungal activity of juniper berry oil and its selected components.</text>
  <text svgx:width="0.5,0.53,0.44,0.3,0.53,0.3,0.53,0.48,0.29,0.55,0.5,0.48,0.36,0.17,0.55,0.48,0.48,0.48,0.48,0.17,0.48,0.48,0.17,0.48,0.48,0.48" y="239.4" x="71.7,75.3,79.1,82.2,84.3,88.1,90.3,94.0,97.5,99.6,101.7,105.2,108.6,111.2,112.5,114.5,117.9,121.3,124.8,128.2,129.4,132.8,136.2,137.4,140.8,144.2" style="fill:rgb(19,20,19);font-family:CgyggcAdvTTb5929f4c;font-size:7.5px;stroke:none;" xmlns:svgx="http://www.xml-cml.org/schema/svgx">Phytother Res. 2003;17:227</text>
  <text svgx:width="0.5" y="239.4" x="147.6" style="fill:rgb(19,20,19);font-family:PlwbpvAdvTTb5929f4c;font-size:7.5px;stroke:none;" xmlns:svgx="http://www.xml-cml.org/schema/svgx">–</text>
  <text svgx:width="0.48,0.48,0.17" y="239.4" x="151.2,154.6,158.0" style="fill:rgb(19,20,19);font-family:CgyggcAdvTTb5929f4c;font-size:7.5px;stroke:none;" xmlns:svgx="http://www.xml-cml.org/schema/svgx">31.</text>
  <text svgx:width="0.48,0.48,0.17,0.55,0.56,0.53,0.72,0.45,0.53,0.55,0.77,0.77,0.17,0.55,0.5,0.21,0.45,0.53,0.3,0.55,0.54,0.29,0.53,0.54,0.52,0.44,0.3,0.36,0.55,0.45,0.36,0.55,0.45,0.53,0.3,0.21,0.81,0.21,0.44,0.29,0.53,0.54,0.21,0.45,0.21,0.55,0.45,0.54,0.48,0.53,0.3,0.36,0.17,0.55,0.56,0.21,0.21,0.53,0.55,0.77,0.21,0.44,0.29,0.53,0.54,0.21,0.53,0.21,0.55,0.5,0.48,0.45,0.17" y="248.3" x="56.7,60.1,63.5,64.8,71.7,75.7,79.5,84.6,87.8,91.8,93.7,99.2,104.7,106.0,108.0,111.6,113.1,116.2,120.0,122.3,124.3,128.2,130.3,134.0,137.9,141.6,144.7,146.9,149.6,151.6,154.8,157.5,159.5,162.7,166.5,168.7,170.1,175.9,177.4,180.5,182.6,186.4,190.2,191.7,194.9,196.5,198.5,201.7,205.6,209.0,212.8,214.9,217.5,218.8,220.9,224.9,226.4,227.8,231.8,233.7,239.2,240.7,243.8,245.9,249.7,253.5,255.0,258.8,260.4,262.4,266.0,269.4,272.6" style="fill:rgb(19,20,19);font-family:CgyggcAdvTTb5929f4c;font-size:7.5px;stroke:none;" xmlns:svgx="http://www.xml-cml.org/schema/svgx">39. Cowan MM. Plant products as antimicrobial agents. Clin Microbiol Rev.</text>
  <text svgx:width="0.48,0.48,0.48,0.48,0.17,0.48,0.48,0.17,0.48,0.48,0.48" y="257.3" x="71.7,75.1,78.6,82.0,85.4,86.6,90.0,93.4,94.6,98.0,101.4" style="fill:rgb(19,20,19);font-family:CgyggcAdvTTb5929f4c;font-size:7.5px;stroke:none;" xmlns:svgx="http://www.xml-cml.org/schema/svgx">1999;12:564</text>
  <text svgx:width="0.5" y="257.3" x="104.8" style="fill:rgb(19,20,19);font-family:PlwbpvAdvTTb5929f4c;font-size:7.5px;stroke:none;" xmlns:svgx="http://www.xml-cml.org/schema/svgx">–</text>
  <text svgx:width="0.48,0.48,0.17" y="257.3" x="108.3,111.8,115.2" style="fill:rgb(19,20,19);font-family:CgyggcAdvTTb5929f4c;font-size:7.5px;stroke:none;" xmlns:svgx="http://www.xml-cml.org/schema/svgx">82.</text>
  <text svgx:width="0.48,0.48,0.17,0.55,0.64,0.53,0.29,0.81,0.45,0.53,0.55,0.63,0.34,0.64,0.17,0.55,0.64,0.48,0.45,0.53,0.36,0.55,0.46,0.61,0.17,0.55,0.58,0.53,0.3,0.21,0.81,0.21,0.44,0.29,0.53,0.54,0.21,0.45,0.21,0.55,0.45,0.54,0.48,0.53,0.3,0.36,0.55,0.26,0.29,0.53,0.81,0.55,0.54,0.21,0.45,0.53,0.3,0.36,0.17,0.55,0.45,0.53,0.3,0.21,0.54,0.45,0.44,0.3,0.48,0.29,0.21,0.45,0.21" y="266.3" x="56.7,60.1,63.5,64.8,71.7,76.3,80.1,82.2,88.0,91.1,95.1,97.1,101.5,104.0,108.6,109.8,111.9,116.5,119.9,123.1,126.8,129.5,131.6,134.9,139.2,140.5,142.6,146.8,150.5,152.7,154.2,160.0,161.4,164.6,166.6,170.4,174.3,175.7,178.9,180.5,182.6,185.8,189.6,193.0,196.8,199.0,201.7,203.7,205.5,207.6,211.4,217.4,219.3,223.2,224.6,227.8,231.6,233.8,236.4,237.6,239.7,242.9,246.7,248.8,250.3,254.2,257.4,260.5,262.6,266.0,268.1,269.6,272.8" style="fill:rgb(19,20,19);font-family:CgyggcAdvTTb5929f4c;font-size:7.5px;stroke:none;" xmlns:svgx="http://www.xml-cml.org/schema/svgx">40. Dorman HJD, Deans SG. Antimicrobial agents from plants: antibacterial</text>
  <text svgx:width="0.45,0.44,0.3,0.21,0.45,0.21,0.3,0.44,0.55,0.53,0.26,0.55,0.54,0.21,0.45,0.53,0.3,0.55,0.45,0.53,0.21,0.45,0.3,0.21,0.21,0.48,0.55,0.53,0.21,0.21,0.36,0.17,0.55,0.34,0.55,0.58,0.54,0.54,0.55,0.77,0.21,0.44,0.29,0.53,0.54,0.21,0.53,0.21,0.17,0.55,0.48,0.48,0.48,0.48,0.17,0.48,0.48,0.17,0.48,0.48,0.48" y="275.4" x="71.7,74.9,78.0,80.2,81.7,84.8,86.3,88.5,91.8,93.7,97.5,99.5,101.5,105.3,106.8,110.0,113.8,116.0,118.1,121.3,125.1,126.5,129.7,131.9,133.4,134.8,138.4,140.4,144.2,145.7,147.2,149.8,151.0,153.1,155.6,157.7,161.8,165.7,169.7,171.7,177.1,178.6,181.7,183.8,187.6,191.5,192.9,196.7,198.2,199.5,201.5,204.9,208.4,211.8,215.2,216.4,219.8,223.2,224.4,227.8,231.2" style="fill:rgb(19,20,19);font-family:CgyggcAdvTTb5929f4c;font-size:7.5px;stroke:none;" xmlns:svgx="http://www.xml-cml.org/schema/svgx">activity of plant volatile oils. J App Microbiol. 2000;88:308</text>
  <text svgx:width="0.5" y="275.4" x="234.7" style="fill:rgb(19,20,19);font-family:PlwbpvAdvTTb5929f4c;font-size:7.5px;stroke:none;" xmlns:svgx="http://www.xml-cml.org/schema/svgx">–</text>
  <text svgx:width="0.48,0.48,0.17" y="275.4" x="238.2,241.6,245.1" style="fill:rgb(19,20,19);font-family:CgyggcAdvTTb5929f4c;font-size:7.5px;stroke:none;" xmlns:svgx="http://www.xml-cml.org/schema/svgx">16.</text>
  <text svgx:width="0.48,0.48,0.17,0.55,0.5,0.45,0.3,0.3,0.53,0.45,0.21,0.42,0.55,0.46,0.17,0.55,0.46,0.52,0.54,0.29,0.45,0.81,0.45,0.53,0.44,0.45,0.81,0.55,0.5,0.5,0.17,0.55,0.5,0.45,0.54,0.45,0.21,0.21,0.55,0.77,0.17,0.55,0.49,0.53,0.21,0.48,0.55,0.56,0.5,0.17,0.55,0.58,0.53,0.3,0.21,0.54,0.45,0.44,0.3,0.48,0.29,0.21,0.45,0.21,0.55,0.45,0.53,0.54,0.55,0.45,0.53,0.3,0.21,0.26,0.52,0.53,0.54,0.45,0.21" y="284.3" x="56.7,60.1,63.5,64.8,71.7,75.3,78.5,80.6,82.8,86.6,89.7,91.2,94.4,96.3,99.6,100.9,102.9,106.2,109.9,113.7,115.8,119.0,124.8,128.0,131.7,134.9,138.0,144.1,146.0,149.6,153.1,154.4,156.4,160.0,163.2,167.0,170.2,171.7,173.3,175.4,180.8,182.1,184.1,187.6,191.4,192.9,196.5,198.5,202.5,206.1,207.3,209.4,213.5,217.3,219.5,220.9,224.8,228.0,231.1,233.2,236.7,238.7,240.2,243.4,245.0,247.0,250.2,254.0,258.0,260.0,263.2,267.0,269.1,270.6,272.4,276.2,279.9,283.8,287.0" style="fill:rgb(19,20,19);font-family:CgyggcAdvTTb5929f4c;font-size:7.5px;stroke:none;" xmlns:svgx="http://www.xml-cml.org/schema/svgx">41. Pattnaik S, Subramanyam VR, Bapaji M, Kole CR. Antibacterial and antifungal</text>
  <text svgx:width="0.45,0.44,0.3,0.21,0.45,0.21,0.3,0.44,0.55,0.53,0.26,0.55,0.45,0.29,0.53,0.81,0.45,0.3,0.21,0.44,0.55,0.44,0.53,0.53,0.36,0.3,0.21,0.3,0.52,0.48,0.53,0.3,0.36,0.55,0.53,0.26,0.55,0.48,0.36,0.36,0.48,0.53,0.3,0.21,0.45,0.21,0.55,0.53,0.21,0.21,0.36,0.17,0.55,0.77,0.21,0.44,0.29,0.53,0.54,0.21,0.53,0.36,0.17,0.55,0.48,0.48,0.48,0.48,0.17,0.48,0.48,0.17,0.48,0.48" y="293.3" x="71.7,74.9,78.0,80.2,81.7,84.8,86.3,88.5,91.8,93.7,97.5,99.5,101.5,104.7,106.7,110.5,116.3,119.5,121.7,123.1,126.4,128.4,131.5,135.3,139.1,141.7,143.8,145.3,147.5,151.2,154.6,158.4,160.5,163.2,165.3,169.0,171.0,173.0,176.4,179.0,181.6,185.0,188.8,191.0,192.5,195.6,197.2,199.3,203.1,204.5,206.0,208.6,209.9,212.0,217.5,218.9,222.1,224.1,227.9,231.8,233.2,237.0,239.6,240.9,242.9,246.3,249.7,253.2,256.6,257.8,261.2,264.6,265.8,269.2" style="fill:rgb(19,20,19);font-family:CgyggcAdvTTb5929f4c;font-size:7.5px;stroke:none;" xmlns:svgx="http://www.xml-cml.org/schema/svgx">activity of aromatic constituents of essential oils. Microbios. 1997;89:39</text>
  <text svgx:width="0.5" y="293.3" x="272.6" style="fill:rgb(19,20,19);font-family:PlwbpvAdvTTb5929f4c;font-size:7.5px;stroke:none;" xmlns:svgx="http://www.xml-cml.org/schema/svgx">–</text>
  <text svgx:width="0.48,0.48,0.17" y="293.3" x="276.2,279.6,283.0" style="fill:rgb(19,20,19);font-family:CgyggcAdvTTb5929f4c;font-size:7.5px;stroke:none;" xmlns:svgx="http://www.xml-cml.org/schema/svgx">46.</text>
  <text svgx:width="0.48,0.48,0.17,0.55,0.77,0.45,0.54,0.21,0.45,0.3,0.21,0.36,0.55,0.5,0.17,0.55,0.77,0.48,0.21,0.21,0.21,0.53,0.52,0.55,0.46,0.17,0.55,0.46,0.42,0.45,0.21,0.3,0.36,0.53,0.52,0.53,0.36,0.55,0.58,0.17,0.55,0.56,0.53,0.21,0.53,0.53,0.52,0.55,0.21,0.5,0.17,0.55,0.77,0.21,0.3,0.45,0.42,0.52,0.55,0.46,0.17,0.55,0.56,0.53,0.48,0.81,0.21,0.44,0.45,0.21" y="302.3" x="56.7,60.1,63.5,64.8,71.7,77.2,80.4,84.3,85.7,88.9,91.1,92.6,95.3,97.3,100.9,102.1,104.2,109.6,113.1,114.5,116.0,117.5,121.3,125.2,127.2,130.4,131.7,133.7,137.0,140.0,143.2,144.6,146.8,149.4,153.2,156.9,160.7,163.4,165.4,169.5,170.8,172.9,176.9,180.6,182.1,185.9,189.7,193.6,195.6,197.1,200.6,201.9,203.9,209.4,210.9,213.0,216.2,219.2,223.1,225.1,228.3,229.6,231.7,235.7,239.4,242.9,248.6,250.1,253.2,256.4" style="fill:rgb(19,20,19);font-family:CgyggcAdvTTb5929f4c;font-size:7.5px;stroke:none;" xmlns:svgx="http://www.xml-cml.org/schema/svgx">42. Magiatis P, Melliou E, Skaltsouns A, Chinou IB, Mitaku S. Chemical</text>
  <text svgx:width="0.44,0.53,0.81,0.54,0.53,0.36,0.21,0.3,0.21,0.53,0.53,0.55,0.45,0.53,0.54,0.55,0.45,0.53,0.3,0.21,0.81,0.21,0.44,0.29,0.53,0.54,0.21,0.45,0.21,0.55,0.45,0.44,0.3,0.21,0.45,0.21,0.3,0.44,0.55,0.53,0.26,0.55,0.3,0.53,0.48,0.55,0.48,0.36,0.36,0.48,0.53,0.3,0.21,0.45,0.21,0.55,0.53,0.21,0.21,0.36,0.55,0.53,0.26" y="311.4" x="71.7,74.8,78.6,84.4,88.3,92.0,94.6,96.1,98.3,99.8,103.5,107.5,109.4,112.6,116.4,120.4,122.4,125.6,129.4,131.5,133.0,138.8,140.3,143.4,145.5,149.2,153.1,154.6,157.8,159.3,161.4,164.6,167.7,169.9,171.3,174.5,176.0,178.2,181.5,183.5,187.2,189.2,191.2,193.4,197.2,200.8,202.7,206.1,208.7,211.3,214.7,218.5,220.6,222.1,225.3,226.9,228.9,232.7,234.2,235.7,238.4,240.4,244.2" style="fill:rgb(19,20,19);font-family:CgyggcAdvTTb5929f4c;font-size:7.5px;stroke:none;" xmlns:svgx="http://www.xml-cml.org/schema/svgx">composition and antimicrobial activity of the essential oils of</text>
  <text svgx:width="0.47,0.2,0.34,0.29,0.5,0.41,0.2,0.5" y="311.4" x="248.2,251.5,252.9,255.4,257.5,261.0,263.9,265.3" style="fill:rgb(19,20,19);font-family:NckncwAdvTT1b53b5fb.I;font-size:7.5px;stroke:none;" xmlns:svgx="http://www.xml-cml.org/schema/svgx">Pistacia</text>
  <text svgx:width="0.2,0.42,0.51,0.29,0.2,0.34,0.41,0.5,0.34" y="320.3" x="71.7,73.1,76.1,79.7,81.8,83.2,85.6,88.5,92.1" style="fill:rgb(19,20,19);font-family:NckncwAdvTT1b53b5fb.I;font-size:7.5px;stroke:none;" xmlns:svgx="http://www.xml-cml.org/schema/svgx">lentiscus</text>
  <text svgx:width="0.45,0.45,0.29,0.17,0.55,0.44,0.53,0.21,0.45,0.17,0.55,0.5,0.21,0.45,0.53,0.3,0.45,0.55,0.77,0.48,0.54,0.17,0.55,0.48,0.48,0.48,0.48,0.17,0.48,0.48,0.17,0.48,0.48,0.48" y="320.3" x="96.7,99.9,103.0,105.1,106.4,108.5,111.6,115.4,116.8,120.0,121.3,123.4,126.9,128.4,131.6,135.4,137.5,140.9,142.9,148.4,151.8,155.6,156.9,159.0,162.4,165.8,169.2,172.6,173.8,177.2,180.6,181.8,185.2,188.6" style="fill:rgb(19,20,19);font-family:CgyggcAdvTTb5929f4c;font-size:7.5px;stroke:none;" xmlns:svgx="http://www.xml-cml.org/schema/svgx">var. chia. Planta Med. 1999;65:749</text>
  <text svgx:width="0.5" y="320.3" x="192.0" style="fill:rgb(19,20,19);font-family:PlwbpvAdvTTb5929f4c;font-size:7.5px;stroke:none;" xmlns:svgx="http://www.xml-cml.org/schema/svgx">–</text>
  <text svgx:width="0.48,0.48,0.17" y="320.3" x="195.6,199.0,202.4" style="fill:rgb(19,20,19);font-family:CgyggcAdvTTb5929f4c;font-size:7.5px;stroke:none;" xmlns:svgx="http://www.xml-cml.org/schema/svgx">52.</text>
  <text svgx:width="0.48,0.48,0.17,0.55,0.49,0.53,0.53,0.54,0.21,0.53,0.44,0.53,0.55,0.49,0.17,0.55,0.5,0.45,0.52,0.21,0.21,0.55,0.58,0.17,0.55,0.21,0.54,0.48,0.29,0.21,0.55,0.5,0.17,0.55,0.81,0.48,0.21,0.54,0.45,0.53,0.54,0.55,0.63,0.17,0.55,0.81,0.48,0.21,0.36,0.55,0.63,0.17,0.55,0.58,0.53,0.3,0.21,0.54,0.45,0.44,0.3,0.48,0.29,0.21,0.45,0.21,0.55,0.45,0.53,0.54,0.55,0.45,0.53,0.3,0.21,0.26,0.52,0.53,0.54,0.45,0.21" y="329.3" x="56.7,60.1,63.5,64.8,71.7,75.2,79.0,82.8,86.6,88.1,91.9,95.0,99.0,100.9,104.4,105.7,107.7,111.3,114.5,118.2,119.7,121.2,123.3,127.5,128.7,130.8,132.3,136.1,139.5,141.6,143.2,145.2,148.8,150.0,152.1,157.9,161.3,162.8,166.7,169.8,173.6,177.7,179.6,184.1,185.3,187.4,193.2,196.6,198.1,200.8,202.8,207.3,208.6,210.7,214.8,218.6,220.8,222.2,226.1,229.3,232.4,234.6,238.0,240.0,241.5,244.7,246.3,248.3,251.5,255.3,259.3,261.3,264.5,268.3,270.4,271.9,273.8,277.5,281.2,285.1,288.3" style="fill:rgb(19,20,19);font-family:CgyggcAdvTTb5929f4c;font-size:7.5px;stroke:none;" xmlns:svgx="http://www.xml-cml.org/schema/svgx">43. Knobloch K, Pauli A, Iberl B, Weigand H, Weis N. Antibacterial and antifungal</text>
  <text svgx:width="0.54,0.29,0.53,0.54,0.48,0.29,0.3,0.21,0.48,0.36,0.55,0.53,0.26,0.55,0.48,0.36,0.36,0.48,0.53,0.3,0.21,0.45,0.21,0.55,0.53,0.21,0.21,0.55,0.44,0.53,0.81,0.54,0.53,0.53,0.48,0.53,0.3,0.36,0.17,0.55,0.34,0.55,0.46,0.36,0.36,0.48,0.53,0.55,0.67,0.21,0.21,0.55,0.5,0.48,0.36,0.17,0.55,0.48,0.48,0.48,0.48,0.17,0.48,0.17,0.48,0.48,0.48" y="338.3" x="71.7,75.6,77.7,81.4,85.3,88.7,90.8,92.9,94.4,97.8,100.5,102.6,106.3,108.3,110.3,113.7,116.3,118.9,122.3,126.1,128.3,129.8,132.9,134.5,136.6,140.4,141.8,143.4,145.5,148.6,152.4,158.2,162.0,165.8,169.6,173.0,176.8,178.9,181.5,182.8,184.8,187.4,189.4,192.7,195.3,197.9,201.3,205.2,207.2,212.0,213.4,215.0,217.1,220.6,224.0,226.6,227.9,229.9,233.3,236.8,240.2,243.6,244.8,248.2,249.4,252.8,256.2" style="fill:rgb(19,20,19);font-family:CgyggcAdvTTb5929f4c;font-size:7.5px;stroke:none;" xmlns:svgx="http://www.xml-cml.org/schema/svgx">properties of essential oil components. J Essen Oil Res. 1989;1:119</text>
  <text svgx:width="0.5" y="338.3" x="259.7" style="fill:rgb(19,20,19);font-family:PlwbpvAdvTTb5929f4c;font-size:7.5px;stroke:none;" xmlns:svgx="http://www.xml-cml.org/schema/svgx">–</text>
  <text svgx:width="0.48,0.48,0.17" y="338.3" x="263.2,266.6,270.0" style="fill:rgb(19,20,19);font-family:CgyggcAdvTTb5929f4c;font-size:7.5px;stroke:none;" xmlns:svgx="http://www.xml-cml.org/schema/svgx">28.</text>
  <text svgx:width="0.48,0.48,0.17,0.55,0.49,0.45,0.29,0.45,0.54,0.45,0.54,0.21,0.45,0.36,0.55,0.21,0.17,0.55,0.5,0.45,0.54,0.48,0.42,0.45,0.55,0.58,0.17,0.55,0.49,0.53,0.53,0.3,0.53,0.81,0.21,0.53,0.45,0.36,0.55,0.77,0.61,0.17,0.55,0.46,0.53,0.48,0.21,0.26,0.55,0.21,0.21,0.26,0.48,0.55,0.48,0.43,0.3,0.48,0.53,0.36,0.21,0.53,0.53,0.55,0.53,0.26,0.55,0.21,0.45,0.81,0.54,0.55,0.81,0.48,0.45,0.3" y="347.4" x="56.7,60.1,63.5,64.8,71.7,75.2,78.4,80.5,83.7,87.5,90.7,94.5,96.0,99.2,101.9,104.0,105.5,106.7,108.7,112.3,115.5,119.3,122.8,125.7,129.1,131.1,135.2,136.5,138.6,142.0,145.8,149.6,151.8,155.5,161.3,162.8,166.6,169.8,172.5,174.5,180.0,184.4,185.6,187.7,191.0,194.8,198.2,199.7,201.6,203.6,205.1,206.6,208.5,212.1,214.0,217.4,220.5,222.6,226.0,229.8,232.4,233.9,237.7,241.7,243.6,247.4,249.3,251.4,252.9,256.0,261.8,265.9,267.8,273.6,277.0,280.2" style="fill:rgb(19,20,19);font-family:CgyggcAdvTTb5929f4c;font-size:7.5px;stroke:none;" xmlns:svgx="http://www.xml-cml.org/schema/svgx">44. Karabagias I, Badeka A, Kontominas MG. Shelf life extension of lamb meat</text>
  <text svgx:width="0.52,0.36,0.21,0.53,0.54,0.55,0.3,0.53,0.44,0.81,0.48,0.55,0.53,0.29,0.55,0.53,0.29,0.48,0.54,0.45,0.53,0.53,0.55,0.48,0.36,0.36,0.48,0.53,0.3,0.21,0.45,0.21,0.55,0.53,0.21,0.21,0.36,0.55,0.45,0.53,0.54,0.55,0.81,0.53,0.54,0.21,0.26,0.21,0.48,0.54,0.55,0.45,0.3,0.81,0.53,0.36,0.54,0.53,0.48,0.29,0.48,0.55,0.54,0.45,0.44,0.42,0.45,0.54,0.21,0.53,0.54,0.17" y="356.3" x="71.7,75.4,78.0,79.5,83.3,87.3,89.2,91.4,95.2,98.3,104.1,107.7,109.7,113.4,115.6,117.6,121.4,123.5,126.9,130.8,134.0,137.7,141.7,143.7,147.1,149.7,152.3,155.7,159.5,161.6,163.1,166.3,167.9,169.9,173.7,175.2,176.7,179.4,181.4,184.6,188.4,192.4,194.4,200.2,204.0,207.8,209.3,211.2,212.6,216.1,220.1,222.0,225.2,227.3,233.1,236.9,239.5,243.4,247.1,250.6,252.6,256.2,258.2,262.1,265.3,268.4,271.4,274.5,278.4,279.9,283.7,287.5" style="fill:rgb(19,20,19);font-family:CgyggcAdvTTb5929f4c;font-size:7.5px;stroke:none;" xmlns:svgx="http://www.xml-cml.org/schema/svgx">using thyme or oregano essential oils and modified atmosphere packaging.</text>
  <text svgx:width="0.77,0.48,0.45,0.3,0.55,0.46,0.44,0.21,0.17,0.55,0.48,0.48,0.48,0.48,0.17,0.48,0.48,0.17,0.48,0.48,0.48" y="365.3" x="71.7,77.2,80.6,83.8,86.1,88.1,91.4,94.5,96.0,97.2,99.3,102.7,106.1,109.5,112.9,114.1,117.5,120.9,122.1,125.5,128.9" style="fill:rgb(19,20,19);font-family:CgyggcAdvTTb5929f4c;font-size:7.5px;stroke:none;" xmlns:svgx="http://www.xml-cml.org/schema/svgx">Meat Sci. 2011;88:109</text>
  <text svgx:width="0.5" y="365.3" x="132.4" style="fill:rgb(19,20,19);font-family:PlwbpvAdvTTb5929f4c;font-size:7.5px;stroke:none;" xmlns:svgx="http://www.xml-cml.org/schema/svgx">–</text>
  <text svgx:width="0.48,0.48,0.17" y="365.3" x="135.9,139.3,142.7" style="fill:rgb(19,20,19);font-family:CgyggcAdvTTb5929f4c;font-size:7.5px;stroke:none;" xmlns:svgx="http://www.xml-cml.org/schema/svgx">16.</text>
  <text svgx:width="0.48,0.48,0.17,0.55,0.46,0.45,0.26,0.45,0.55,0.63,0.17,0.55,0.61,0.45,0.3,0.48,0.21,0.21,0.21,0.48,0.29,0.55,0.5,0.17,0.55,0.45,0.48,0.54,0.48,0.29,0.3,0.55,0.58,0.17,0.55,0.5,0.21,0.44,0.54,0.21,0.29,0.45,0.29,0.54,0.55,0.45,0.17,0.55,0.77,0.21,0.29,0.45,0.54,0.48,0.55,0.5,0.46,0.17,0.55,0.46,0.26,0.26,0.48,0.44,0.3,0.55,0.53,0.26,0.55,0.44,0.53,0.81,0.54,0.21,0.53,0.48,0.54,0.55,0.36,0.45,0.21,0.3" y="374.3" x="56.7,60.1,63.5,64.8,71.7,75.0,78.2,80.0,83.4,85.3,89.8,91.1,93.1,97.5,100.7,102.8,106.2,107.7,109.2,110.7,114.1,116.3,118.3,121.9,123.2,125.2,128.4,131.8,135.6,139.1,141.1,143.4,145.4,149.6,150.9,152.9,156.5,158.0,161.1,164.9,166.4,168.5,171.7,173.7,177.8,179.8,183.0,184.2,186.3,191.8,193.3,195.3,198.5,202.4,206.0,208.0,211.5,214.8,216.1,218.1,221.4,223.2,225.1,228.5,231.6,233.8,235.8,239.6,241.6,243.7,246.8,250.6,256.3,260.2,261.7,265.5,268.9,272.9,274.8,277.4,280.6,282.1" style="fill:rgb(19,20,19);font-family:CgyggcAdvTTb5929f4c;font-size:7.5px;stroke:none;" xmlns:svgx="http://www.xml-cml.org/schema/svgx">45. Safa H, Gatellier P, Lebert A, Picgirard L, Mirade PS. Effect of combined salt</text>
  <text svgx:width="0.45,0.53,0.54,0.55,0.45,0.53,0.21,0.81,0.45,0.21,0.55,0.26,0.45,0.3,0.55,0.29,0.48,0.54,0.52,0.44,0.3,0.21,0.53,0.53,0.36,0.55,0.53,0.53,0.55,0.54,0.53,0.44,0.36,0.21,0.44,0.53,0.44,0.53,0.48,0.81,0.21,0.44,0.45,0.21,0.55,0.45,0.53,0.54,0.55,0.54,0.21,0.53,0.44,0.53,0.48,0.81,0.21,0.44,0.45,0.21,0.55,0.44,0.53,0.45,0.53,0.54,0.48,0.36" y="383.4" x="71.7,74.9,78.7,82.7,84.7,87.8,91.6,93.1,98.9,102.1,103.6,105.7,107.6,110.8,113.0,115.0,117.1,120.5,124.4,128.1,131.2,133.4,134.8,138.6,142.4,145.1,147.2,151.0,154.9,156.9,160.7,164.5,167.6,170.2,171.7,174.8,178.6,181.7,185.5,188.9,194.7,196.2,199.3,202.5,204.0,206.1,209.3,213.1,217.2,219.1,222.9,224.4,228.2,231.3,235.1,238.5,244.3,245.8,248.9,252.1,253.6,255.7,258.9,262.6,265.8,269.6,273.5,276.9" style="fill:rgb(19,20,19);font-family:CgyggcAdvTTb5929f4c;font-size:7.5px;stroke:none;" xmlns:svgx="http://www.xml-cml.org/schema/svgx">and animal fat reductions on physicochemical and biochemical changes</text>
  <text svgx:width="0.54,0.52,0.29,0.21,0.53,0.54,0.55,0.3,0.53,0.48,0.55,0.81,0.45,0.53,0.52,0.26,0.45,0.44,0.3,0.52,0.29,0.48,0.55,0.53,0.26,0.55,0.54,0.29,0.44,0.29,0.26,0.48,0.29,0.81,0.48,0.53,0.3,0.48,0.54,0.55,0.36,0.45,0.52,0.36,0.45,0.54,0.48,0.36,0.17,0.55,0.46,0.53,0.53,0.54,0.55,0.5,0.21,0.53,0.54,0.29,0.53,0.44,0.48,0.36,0.36" y="392.3" x="71.7,75.6,79.3,81.4,82.8,86.6,90.7,92.6,94.7,98.5,102.1,104.1,109.9,113.1,116.8,120.6,122.4,125.6,128.7,130.9,134.6,136.6,140.2,142.2,146.0,147.9,150.0,153.8,155.9,159.0,161.1,162.9,166.3,168.4,174.2,177.6,181.4,183.5,187.0,191.0,193.0,195.6,198.8,202.5,205.1,208.2,212.1,215.5,218.1,219.4,221.4,224.7,228.5,232.3,236.3,238.3,241.8,243.3,247.1,251.0,253.0,256.8,259.9,263.3,265.9" style="fill:rgb(19,20,19);font-family:CgyggcAdvTTb5929f4c;font-size:7.5px;stroke:none;" xmlns:svgx="http://www.xml-cml.org/schema/svgx">during the manufacture of dry-fermented sausages. Food Bioprocess</text>
  <text svgx:width="0.46,0.48,0.44,0.53,0.53,0.53,0.21,0.17,0.55,0.48,0.48,0.48,0.48,0.17,0.48,0.17,0.48,0.48,0.48,0.48" y="401.3" x="71.7,75.0,78.4,81.5,85.3,89.1,92.9,94.3,95.6,97.6,101.0,104.5,107.9,111.3,112.5,115.9,117.1,120.5,123.9,127.3" style="fill:rgb(19,20,19);font-family:CgyggcAdvTTb5929f4c;font-size:7.5px;stroke:none;" xmlns:svgx="http://www.xml-cml.org/schema/svgx">Technol. 2015;8:2109</text>
  <text svgx:width="0.5" y="401.3" x="130.7" style="fill:rgb(19,20,19);font-family:PlwbpvAdvTTb5929f4c;font-size:7.5px;stroke:none;" xmlns:svgx="http://www.xml-cml.org/schema/svgx">–</text>
  <text svgx:width="0.48,0.48,0.17" y="401.3" x="134.3,137.7,141.1" style="fill:rgb(19,20,19);font-family:CgyggcAdvTTb5929f4c;font-size:7.5px;stroke:none;" xmlns:svgx="http://www.xml-cml.org/schema/svgx">22.</text>
  <text svgx:width="0.48,0.48,0.17,0.55,0.56,0.45,0.81,0.54,0.53,0.55,0.77,0.77,0.17,0.55,0.63,0.52,0.3,0.48,0.55,0.61,0.5,0.17,0.55,0.63,0.52,0.54,0.53,0.48,0.36,0.55,0.46,0.21,0.17,0.55,0.46,0.53,0.36,0.48,0.29,0.55,0.77,0.17,0.55,0.81,0.53,0.53,0.54,0.55,0.34,0.64,0.17,0.55,0.5,0.21,0.44,0.53,0.45,0.29,0.54,0.36,0.53,0.53,0.55,0.5,0.21,0.17,0.55,0.46,0.21,0.45,0.45,0.53,0.52,0.29" y="410.3" x="56.7,60.1,63.5,64.8,71.7,75.7,78.9,84.7,88.6,92.5,94.5,99.9,105.4,106.7,108.7,113.3,117.0,119.1,122.7,124.7,129.1,132.6,133.9,136.0,140.4,144.1,148.0,151.8,155.2,157.9,159.9,163.2,164.7,166.0,168.0,171.3,175.0,177.6,181.0,183.2,185.3,190.8,192.0,194.1,199.9,203.6,207.4,211.5,213.4,215.8,220.4,221.7,223.8,227.3,228.8,231.9,235.7,238.9,241.0,244.8,247.4,251.2,255.2,257.2,260.7,262.2,263.5,265.6,268.8,270.3,273.5,276.7,280.5,284.2" style="fill:rgb(19,20,19);font-family:CgyggcAdvTTb5929f4c;font-size:7.5px;stroke:none;" xmlns:svgx="http://www.xml-cml.org/schema/svgx">46. Campo MM, Nute GR, Hughes SI, Enser M, Wood JD, Richardson RI. Flavour</text>
  <text svgx:width="0.54,0.48,0.29,0.44,0.48,0.54,0.3,0.21,0.53,0.53,0.55,0.53,0.26,0.55,0.53,0.43,0.21,0.54,0.45,0.3,0.21,0.53,0.53,0.55,0.21,0.53,0.55,0.54,0.48,0.48,0.26,0.17,0.55,0.77,0.48,0.45,0.3,0.55,0.46,0.44,0.21,0.17,0.55,0.48,0.48,0.48,0.48,0.17,0.48,0.48,0.17,0.48,0.48,0.48" y="419.4" x="71.7,75.6,79.0,81.1,84.2,87.6,91.4,93.6,95.1,98.9,102.8,104.8,108.6,110.5,112.5,116.3,119.4,120.9,124.7,127.9,130.0,131.5,135.3,139.3,141.2,142.7,146.7,148.7,152.5,155.9,159.3,161.2,162.5,164.5,170.0,173.4,176.6,178.9,180.9,184.2,187.3,188.8,190.0,192.1,195.5,198.9,202.3,205.7,206.9,210.3,213.7,214.9,218.3,221.7" style="fill:rgb(19,20,19);font-family:CgyggcAdvTTb5929f4c;font-size:7.5px;stroke:none;" xmlns:svgx="http://www.xml-cml.org/schema/svgx">perception of oxidation in beef. Meat Sci. 2006;72:303</text>
  <text svgx:width="0.5" y="419.4" x="225.2" style="fill:rgb(19,20,19);font-family:PlwbpvAdvTTb5929f4c;font-size:7.5px;stroke:none;" xmlns:svgx="http://www.xml-cml.org/schema/svgx">–</text>
  <text svgx:width="0.48,0.48,0.17" y="419.4" x="228.7,232.1,235.5" style="fill:rgb(19,20,19);font-family:CgyggcAdvTTb5929f4c;font-size:7.5px;stroke:none;" xmlns:svgx="http://www.xml-cml.org/schema/svgx">11.</text>
  <text svgx:width="0.39" y="639.7" x="323.7" style="fill:rgb(19,20,19);font-family:RmpjjyOpenSans-Extrabold;font-size:7.0px;stroke:none;" xmlns:svgx="http://www.xml-cml.org/schema/svgx">•</text>
  <text svgx:width="0.89,0.55,0.26,0.53,0.47,0.47,0.55,0.6,0.34,0.26,0.6,0.39,0.55,0.32,0.47,0.59,0.6,0.88,0.23,0.47,0.47,0.23,0.59,0.59,0.26,0.23,0.59,0.6,0.59,0.23,0.39,0.23,0.55,0.47" y="639.7" x="330.1,336.3,340.2,342.0,345.7,349.0,352.3,356.2,360.4,362.7,364.5,368.7,371.4,375.3,377.5,380.8,384.9,389.1,395.2,396.8,400.1,403.3,404.9,409.0,413.2,415.0,416.6,420.7,424.9,429.0,430.6,433.3,434.9,438.7" style="fill:rgb(41,40,41);font-family:KqmhmdOpenSans-Light;font-size:7.0px;stroke:none;" xmlns:svgx="http://www.xml-cml.org/schema/svgx">We accept pre-submission inquiries</text>
  <text svgx:width="0.39" y="651.7" x="323.7" style="fill:rgb(19,20,19);font-family:RmpjjyOpenSans-Extrabold;font-size:7.0px;stroke:none;" xmlns:svgx="http://www.xml-cml.org/schema/svgx">•</text>
  <text svgx:width="0.76,0.59,0.39,0.26,0.47,0.55,0.23,0.55,0.47,0.34,0.59,0.39,0.26,0.34,0.59,0.59,0.23,0.26,0.59,0.55,0.23,0.6,0.47,0.26,0.46,0.59,0.59,0.26,0.34,0.59,0.26,0.53,0.59,0.6,0.26,0.34,0.59,0.55,0.26,0.88,0.59,0.47,0.34,0.26,0.39,0.55,0.23,0.55,0.46,0.53,0.59,0.34,0.26,0.23,0.59,0.59,0.39,0.59,0.53,0.23" y="651.7" x="330.1,335.4,339.6,342.3,344.1,347.4,351.2,352.8,356.6,360.0,362.3,366.4,369.1,370.9,373.3,377.4,381.5,383.1,384.9,389.0,392.9,394.5,398.6,401.9,403.7,406.9,411.0,415.1,417.0,419.3,423.4,425.2,428.9,433.0,437.2,439.0,441.4,445.5,449.3,451.2,457.3,461.4,464.7,467.1,468.9,471.6,475.4,477.0,480.9,484.1,487.8,491.9,494.3,496.1,497.7,501.8,505.9,508.6,512.8,516.5" style="fill:rgb(41,40,41);font-family:KqmhmdOpenSans-Light;font-size:7.0px;stroke:none;" xmlns:svgx="http://www.xml-cml.org/schema/svgx">Our selector tool helps you to ﬁnd the most relevant journal</text>
  <text svgx:width="0.39,0.26,0.26" y="663.7" x="323.7,326.4,328.3" style="fill:rgb(19,20,19);font-family:RmpjjyOpenSans-Extrabold;font-size:7.0px;stroke:none;" xmlns:svgx="http://www.xml-cml.org/schema/svgx">• </text>
  <text svgx:width="0.89,0.55,0.26,0.6,0.39,0.59,0.46,0.23,0.6,0.55,0.26,0.39,0.59,0.59,0.59,0.6,0.26,0.34,0.59,0.55,0.26,0.47,0.23,0.59,0.47,0.48,0.26,0.47,0.59,0.47,0.34,0.59,0.88,0.55,0.39,0.26,0.47,0.59,0.6,0.6,0.59,0.39,0.34,0.26" y="663.7" x="330.1,336.3,340.2,342.0,346.2,348.9,353.0,356.2,357.8,361.9,365.8,367.6,370.3,374.4,378.6,382.7,386.9,388.7,391.0,395.1,399.0,400.8,404.1,405.7,409.8,413.1,416.5,418.4,421.7,425.8,429.1,431.4,435.5,441.7,445.5,448.3,450.1,453.3,457.5,461.6,465.8,469.9,472.6,475.0" style="fill:rgb(41,40,41);font-family:KqmhmdOpenSans-Light;font-size:7.0px;stroke:none;" xmlns:svgx="http://www.xml-cml.org/schema/svgx">We provide round the clock customer support </text>
  <text svgx:width="0.39,0.26,0.26" y="675.7" x="323.7,326.4,328.3" style="fill:rgb(19,20,19);font-family:RmpjjyOpenSans-Extrabold;font-size:7.0px;stroke:none;" xmlns:svgx="http://www.xml-cml.org/schema/svgx">• </text>
  <text svgx:width="0.62,0.59,0.59,0.46,0.55,0.59,0.23,0.55,0.59,0.34,0.26,0.59,0.59,0.23,0.23,0.59,0.55,0.26,0.47,0.59,0.6,0.88,0.23,0.47,0.47,0.23,0.59,0.59" y="675.7" x="330.1,334.4,338.5,342.7,345.9,349.7,353.8,355.4,359.3,363.4,365.7,367.6,371.7,375.8,377.4,379.0,383.1,386.9,388.8,392.0,396.1,400.3,406.5,408.1,411.3,414.6,416.2,420.3" style="fill:rgb(41,40,41);font-family:KqmhmdOpenSans-Light;font-size:7.0px;stroke:none;" xmlns:svgx="http://www.xml-cml.org/schema/svgx">Convenient online submission</text>
  <text svgx:width="0.39" y="687.7" x="323.7" style="fill:rgb(19,20,19);font-family:RmpjjyOpenSans-Extrabold;font-size:7.0px;stroke:none;" xmlns:svgx="http://www.xml-cml.org/schema/svgx">•</text>
  <text svgx:width="0.52,0.59,0.59,0.39,0.59,0.59,0.52,0.59,0.26,0.6,0.55,0.55,0.39,0.26,0.39,0.55,0.46,0.23,0.55,0.72" y="687.7" x="330.1,333.7,337.9,342.0,344.7,348.8,352.9,356.6,360.7,362.5,366.7,370.6,374.4,377.1,378.9,381.7,385.5,388.7,390.3,394.1" style="fill:rgb(41,40,41);font-family:KqmhmdOpenSans-Light;font-size:7.0px;stroke:none;" xmlns:svgx="http://www.xml-cml.org/schema/svgx">Thorough peer review</text>
  <text svgx:width="0.39,0.26,0.26" y="699.7" x="323.7,326.4,328.3" style="fill:rgb(19,20,19);font-family:RmpjjyOpenSans-Extrabold;font-size:7.0px;stroke:none;" xmlns:svgx="http://www.xml-cml.org/schema/svgx">• </text>
  <text svgx:width="0.25,0.59,0.47,0.23,0.59,0.47,0.23,0.59,0.59,0.26,0.23,0.59,0.26,0.58,0.59,0.6,0.86,0.55,0.6,0.26,0.53,0.59,0.6,0.26,0.53,0.23,0.23,0.26,0.88,0.53,0.23,0.59,0.39,0.26,0.23,0.59,0.6,0.55,0.5,0.23,0.59,0.52,0.26,0.47,0.55,0.39,0.46,0.23,0.47,0.55,0.47,0.26" y="699.7" x="330.1,331.8,336.0,339.3,340.9,345.0,348.3,349.9,354.0,358.1,359.9,361.5,365.6,367.4,371.5,375.7,379.8,385.9,389.7,393.9,395.7,399.4,403.5,407.7,409.5,413.2,414.8,416.4,418.2,424.4,428.1,429.7,433.8,436.5,438.3,439.9,444.1,448.2,452.1,455.5,457.1,461.3,464.9,466.7,470.0,473.8,476.6,479.8,481.4,484.7,488.5,491.8" style="fill:rgb(41,40,41);font-family:KqmhmdOpenSans-Light;font-size:7.0px;stroke:none;" xmlns:svgx="http://www.xml-cml.org/schema/svgx">Inclusion in PubMed and all major indexing services </text>
  <text svgx:width="0.39" y="711.7" x="323.7" style="fill:rgb(19,20,19);font-family:RmpjjyOpenSans-Extrabold;font-size:7.0px;stroke:none;" xmlns:svgx="http://www.xml-cml.org/schema/svgx">•</text>
  <text svgx:width="0.86,0.53,0.5,0.23,0.88,0.59,0.88,0.26,0.46,0.23,0.47,0.23,0.6,0.23,0.23,0.23,0.34,0.46,0.26,0.3,0.59,0.39,0.26,0.46,0.59,0.59,0.39,0.26,0.39,0.55,0.47,0.55,0.53,0.39,0.47,0.59" y="711.7" x="330.1,336.1,339.8,343.3,344.9,351.1,355.2,361.4,363.2,366.4,368.0,371.3,372.9,377.0,378.6,380.2,381.8,384.1,387.3,389.1,391.2,395.3,398.1,399.9,403.1,407.2,411.3,414.1,415.9,418.6,422.4,425.7,429.5,433.3,436.0,439.3" style="fill:rgb(41,40,41);font-family:KqmhmdOpenSans-Light;font-size:7.0px;stroke:none;" xmlns:svgx="http://www.xml-cml.org/schema/svgx">Maximum visibility for your research</text>
  <text svgx:width="0.55,0.59,0.6,0.88,0.23,0.34,0.26,0.46,0.59,0.59,0.39,0.26,0.88,0.53,0.59,0.59,0.47,0.47,0.39,0.23,0.6,0.34,0.26,0.53,0.34" y="728.5" x="323.7,327.5,331.6,335.8,342.0,343.6,345.9,347.7,351.0,355.1,359.2,361.9,363.7,369.9,373.6,377.7,381.9,385.1,388.5,391.2,392.8,396.9,399.3,401.1,404.8" style="fill:rgb(41,40,41);font-family:KqmhmdOpenSans-Light;font-size:7.0px;stroke:none;" xmlns:svgx="http://www.xml-cml.org/schema/svgx">Submit your manuscript at</text>
  <text svgx:width="0.72,0.72,0.72,0.24,0.6,0.23,0.59,0.88,0.55,0.6,0.47,0.55,0.59,0.34,0.39,0.53,0.23,0.24,0.47,0.59,0.88,0.34,0.47,0.59,0.6,0.88,0.23,0.34" y="736.5" x="323.7,328.8,333.8,338.9,340.5,344.7,346.3,350.4,356.6,360.4,364.6,367.9,371.8,375.9,378.2,381.0,384.7,386.2,387.9,391.2,395.3,401.5,403.9,407.2,411.3,415.5,421.6,423.2" style="fill:rgb(41,40,41);font-family:KqmhmdOpenSans-Light;font-size:7.0px;stroke:none;" xmlns:svgx="http://www.xml-cml.org/schema/svgx">www.biomedcentral.com/submit</text>
  <text svgx:width="0.47,0.49,0.51,0.78,0.16,0.28,0.28,0.49,0.55,0.49,0.29,0.28,0.48,0.5,0.52,0.28,0.28,0.78,0.48,0.48,0.49,0.37,0.48,0.29,0.16,0.51,0.28,0.28,0.28,0.55,0.28,0.52,0.16,0.55,0.86,0.5,0.51,0.28,0.65,0.5,0.48,0.28,0.29,0.48,0.17,0.28" y="611.7" x="318.4,323.6,328.9,334.5,343.0,344.7,347.9,350.9,356.3,362.3,367.6,370.8,373.9,379.2,384.7,390.4,393.5,396.5,405.1,410.3,415.6,421.0,425.0,430.4,433.6,435.3,440.9,444.0,447.1,450.2,456.2,459.3,465.0,466.7,472.7,482.2,487.7,493.3,496.3,503.5,509.0,514.3,517.4,520.6,525.9,527.7" style="fill:rgb(19,20,19);font-family:DyjgtbOregonLDOBook;font-size:11.0px;stroke:none;" xmlns:svgx="http://www.xml-cml.org/schema/svgx">Submit your next manuscript to BioMed Central </text>
  <text svgx:width="0.48,0.48,0.51,0.28,0.79,0.5,0.28,0.79,0.16,0.17,0.17,0.28,0.46,0.5,0.17,0.51,0.28,0.49,0.55,0.49,0.28,0.48,0.28,0.28,0.5,0.49,0.5,0.29,0.49,0.28,0.37,0.28,0.5,0.51,0.19" y="624.9" x="318.4,323.6,329.0,334.5,337.6,346.3,351.8,354.8,363.6,365.3,367.1,369.0,372.0,377.1,382.5,384.4,390.0,393.0,398.4,404.4,409.8,412.8,418.0,421.2,424.2,429.7,435.1,440.5,443.7,449.1,452.1,456.2,459.3,464.8,470.4" style="fill:rgb(19,20,19);font-family:DyjgtbOregonLDOBook;font-size:11.0px;stroke:none;" xmlns:svgx="http://www.xml-cml.org/schema/svgx">and we will help you at every step:</text>
  <text svgx:width="0.54,0.5,0.55,0.55,0.64,0.4,0.54,0.54,0.55,0.48" y="39.0" x="56.7,61.0,65.0,69.4,71.8,77.0,80.1,84.5,88.8,93.2" style="fill:rgb(19,20,19);font-family:MsfslpAdvTTe45e47d2;font-size:8.0px;stroke:none;" xmlns:svgx="http://www.xml-cml.org/schema/svgx">Ben Hsouna</text>
  <text svgx:width="0.45,0.31,0.55,0.52,0.22,0.21,0.55,0.44,0.22,0.52,0.22,0.52,0.36,0.55,0.22,0.53,0.55,0.63,0.45,0.52,0.22,0.31,0.53,0.55,0.52,0.53,0.52,0.55,0.64,0.22,0.36,0.45,0.52,0.36,0.45" y="39.0" x="99.4,103.0,105.4,107.8,112.0,113.7,115.4,117.8,121.3,123.0,127.2,128.9,133.1,136.0,138.4,140.1,144.4,146.8,151.8,155.3,159.5,161.3,163.7,168.0,170.4,174.5,178.8,182.9,185.3,190.4,192.2,195.1,198.7,202.8,205.7" style="fill:rgb(19,20,19);font-family:MwhnvnAdvTT7329fd89.I;font-size:8.0px;stroke:none;" xmlns:svgx="http://www.xml-cml.org/schema/svgx">et al. Lipids in Health and Disease</text>
  <text svgx:width="0.21,0.28,0.51,0.51,0.51,0.51,0.28,0.21,0.51,0.51,0.21,0.51,0.51,0.51,0.21" y="39.0" x="211.7,213.4,215.7,219.8,223.9,228.0,232.1,234.3,236.0,240.1,244.3,245.9,250.0,254.1,258.2" style="fill:rgb(19,20,19);font-family:MyriadPro-Regular;font-size:8.0px;stroke:none;" xmlns:svgx="http://www.xml-cml.org/schema/svgx"> (2017) 16:146 </text>
  <text svgx:width="0.53,0.48,0.55,0.5,0.55,0.51,0.51,0.55,0.54,0.29,0.55,0.51,0.51" y="39.0" x="492.0,496.2,500.1,504.5,508.5,510.9,514.9,519.0,521.4,525.7,528.0,530.4,534.5" style="fill:rgb(19,20,19);font-family:MsfslpAdvTTe45e47d2;font-size:8.0px;stroke:none;" xmlns:svgx="http://www.xml-cml.org/schema/svgx">Page 11 of 11</text>
 </g>
</svg>
