<?xml version="1.0" encoding="UTF-8"?>
<svg height="742.251" width="530.625" xmlns="http://www.w3.org/2000/svg">
 <g id="page" xmlns:svgx="http://www.xml-cml.org/schema/svgx">
  <g begin="text">
   <text y="62.979" x="76.535,84.059,87.159,91.144,93.36,96.604,98.819,103.251,106.351" svgx:width="0.94,0.39,0.5,0.28,0.41,0.28,0.56,0.39,0.39" style="fill:rgb(0,0,0);font-family:URWPalladioL-Ital;font-size:7.97px;stroke:none;">Medicines</text>
   <text y="62.979" x="111.444,115.429,119.414,123.399" svgx:width="0.5,0.5,0.5,0.5" style="fill:rgb(0,0,0);font-family:URWPalladioL-Bold;font-size:7.97px;stroke:none;">2017</text>
   <text y="62.979" x="127.384" svgx:width="0.25" style="fill:rgb(0,0,0);font-family:URWPalladioL-Roma;font-size:7.97px;stroke:none;">,</text>
   <text y="62.979" x="131.369" svgx:width="0.5" style="fill:rgb(0,0,0);font-family:URWPalladioL-Ital;font-size:7.97px;stroke:none;">4</text>
   <text y="62.979" x="135.354,137.34650000000002,139.339,143.324,147.30900000000003,499.779,503.764,505.757,510.108,512.7381,514.755" svgx:width="0.25,0.55,0.5,0.5,0.55,0.5,0.55,0.55,0.33,0.55,0.5" style="fill:rgb(0,0,0);font-family:URWPalladioL-Roma;font-size:7.97px;stroke:none;">, 30 8 of 9</text>
   <text y="97.848" x="76.186,83.162,87.143,92.621,98.1,103.085,110.554,113.54,118.023,123.502,128.487,136.458,140.941,146.42,149.406,153.387" svgx:width="0.78,0.44,0.61,0.61,0.56,0.83,0.33,0.5,0.61,0.56,0.89,0.5,0.61,0.33,0.44,0.25" style="fill:rgb(0,0,0);font-family:URWPalladioL-Bold;font-size:8.97px;stroke:none;">Acknowledgments:</text>
   <text y="97.848" x="158.155,163.541,168.656,171.213,174.9804,176.678,180.404,183.268,188.567,193.936,198.9592,200.561,207.89,212.283,216.0504,217.749,223.03,227.239,230.71,233.636,238.434,241.905,249.664,253.873,260.981,263.538,268.74060000000003,270.392,273.257,278.371,282.6766,284.311,287.237,290.708,295.102,302.861,307.07,314.398,319.196,322.667,327.69019999999995,329.292,334.09,337.0501,338.756,343.615,346.172,348.729,353.123,355.987,360.196,363.667,368.061,370.66229999999996,372.357,377.243,380.556,384.765,389.879,393.78,398.894,401.82,407.189,409.746,412.611,417.725,423.024,427.417,432.531,435.088,439.482,444.68460000000005,446.336,451.617,454.921,459.718,464.604,468.075,472.468,481.967,486.361,493.065,495.622,498.179,500.736,505.596,509.805,513.276,516.14" svgx:width="0.61,0.58,0.29,0.42,0.55,0.42,0.33,0.6,0.61,0.56,0.55,0.83,0.5,0.42,0.55,0.6,0.48,0.4,0.33,0.55,0.4,0.88,0.48,0.61,0.29,0.58,0.55,0.33,0.58,0.48,0.55,0.33,0.4,0.5,0.88,0.48,0.83,0.55,0.4,0.56,0.55,0.55,0.33,0.55,0.55,0.29,0.29,0.5,0.33,0.48,0.4,0.5,0.29,0.55,0.56,0.4,0.48,0.58,0.44,0.58,0.33,0.61,0.29,0.33,0.58,0.6,0.5,0.58,0.29,0.5,0.58,0.55,0.6,0.4,0.55,0.56,0.4,0.5,0.88,0.5,0.76,0.29,0.29,0.29,0.55,0.48,0.4,0.33,0.5" style="fill:rgb(0,0,0);font-family:URWPalladioL-Roma;font-size:8.97px;stroke:none;">This study was performedin the framework of bilateral French-Lithuanian program“Gilibert”</text>
   <text y="107.98" x="76.239,79.285,84.37,87.982,92.555,97.878,100.8381,104.426" svgx:width="0.33,0.56,0.4,0.5,0.58,0.33,0.55,0.58" style="fill:rgb(0,0,0);font-family:URWPalladioL-Roma;font-size:8.97px;stroke:none;">(grant n</text>
   <text y="104.726" x="109.838" svgx:width="0.5" style="fill:rgb(0,0,0);font-family:CMSY10;font-size:7.27px;stroke:none;">◦</text>
   <text y="107.98" x="114.056,118.629,123.202,127.775,132.347,136.92,146.066,153.044,158.587,163.159,167.732,172.305,176.878,182.42,186.993,191.566,196.139,200.712,203.757,205.9995,209.94,213.818,219.332,224.829,230.326,235.319,238.932,241.913,246.294,251.7657,255.458,260.516,265.5392,269.168,275.277,279.658,283.535,287.916,292.489,295.937,299.998,305.2006,308.887,315.372,320.365,325.88,331.203,335.264,337.925,340.5263,344.153,349.147,352.1071,355.759,361.347,364.009,366.99,372.313,377.828,382.401,387.724,390.385,394.87,398.534,401.579,406.664,410.277,414.85,420.173,423.1331,426.721,432.044,437.037,439.2795,446.082,451.021,458.137,463.661,466.706,471.279,475.852,481.394,485.967,490.54,495.113,499.598,503.252,507.825,513.148" svgx:width="0.5,0.5,0.5,0.5,0.5,1.0,0.76,0.61,0.5,0.5,0.5,0.5,0.61,0.5,0.5,0.5,0.5,0.33,0.25,0.55,0.42,0.6,0.6,0.6,0.55,0.4,0.33,0.48,0.61,0.55,0.55,0.56,0.55,0.67,0.48,0.42,0.48,0.5,0.4,0.44,0.58,0.55,0.71,0.55,0.6,0.58,0.44,0.29,0.29,0.55,0.55,0.33,0.55,0.61,0.29,0.33,0.58,0.6,0.5,0.58,0.29,0.5,0.55,0.33,0.56,0.4,0.5,0.58,0.33,0.55,0.58,0.55,0.25,0.55,0.61,0.78,0.6,0.33,0.5,0.5,0.61,0.5,0.5,0.5,0.5,0.55,0.5,0.58,0.61" style="fill:rgb(0,0,0);font-family:URWPalladioL-Roma;font-size:8.97px;stroke:none;">19981WG/2009/2010), supported by Research Council of Lithuania (grant no. TAP-47/2010 and</text>
   <text y="118.112" x="76.257,81.09,88.066,93.481,96.467,100.95,105.434,110.867,115.351,119.834,124.317,128.8,131.76010000000002,134.028,138.511,143.729,149.2007,151.449,154.372,159.591,163.8966,166.127,171.113,174.493,178.788,184.006,187.987,193.18959999999998,195.447,201.437,205.732,209.534,213.829,218.312,221.692,225.673,230.8756,233.133,241.615,244.225,249.443,252.052,255.854,258.777,263.072,265.95" svgx:width="0.61,0.78,0.6,0.33,0.5,0.5,0.61,0.5,0.5,0.5,0.5,0.33,0.55,0.5,0.58,0.61,0.55,0.33,0.58,0.48,0.55,0.56,0.4,0.48,0.58,0.44,0.58,0.55,0.67,0.48,0.42,0.48,0.5,0.4,0.44,0.58,0.55,0.95,0.29,0.58,0.29,0.42,0.33,0.48,0.4,0.25" style="fill:rgb(0,0,0);font-family:URWPalladioL-Roma;font-size:8.97px;stroke:none;">TAP-11/2010) and the French Research Minister.</text>
   <text y="134.222" x="76.186,83.162,88.64,91.626,97.105,102.09,105.5883,107.819,114.293,119.279,124.757,127.743,131.231,134.217,139.695,145.173,148.159,151.145,156.13,161.609,165.59" svgx:width="0.78,0.61,0.33,0.61,0.56,0.39,0.55,0.72,0.56,0.61,0.33,0.39,0.33,0.61,0.61,0.33,0.33,0.56,0.61,0.44,0.25" style="fill:rgb(0,0,0);font-family:URWPalladioL-Bold;font-size:8.97px;stroke:none;">Author Contributions:</text>
   <text y="134.222" x="170.624,176.924,179.145,185.081,187.3235,189.551,193.993,199.165,204.6367,206.842,211.623,213.844,218.625,220.8675,223.094,227.039,231.891,237.062,241.008,245.264,247.85,252.87,257.126,262.5977,264.803,267.7,272.872,277.17760000000004,279.367,283.135,286.031,291.39,296.819,300.764,303.0065,305.233,311.533,313.755,319.184,321.405,324.364,330.815,333.037,335.2795,337.506,341.718,343.94,349.875,352.097,357.357,359.578,361.8205,364.048,370.348,372.569,378.505,380.7475,382.975,387.417,392.589,398.0607,400.257,405.047,407.268,412.049,414.2915,416.518,421.947,426.203,429.971,432.557,437.497,442.669,446.925,452.3967,454.602,457.499,462.67,466.97560000000004,469.166,473.422,478.007,483.347,487.604,491.114,493.699,501.545,505.802,510.973,513.87,517.637" svgx:width="0.71,0.25,0.67,0.25,0.55,0.5,0.58,0.61,0.55,0.61,0.25,0.61,0.25,0.55,0.44,0.55,0.58,0.44,0.48,0.29,0.56,0.48,0.61,0.55,0.33,0.58,0.48,0.55,0.42,0.33,0.6,0.61,0.56,0.25,0.55,0.71,0.25,0.61,0.25,0.33,0.73,0.25,0.25,0.55,0.6,0.25,0.67,0.25,0.72,0.25,0.25,0.55,0.71,0.25,0.67,0.25,0.55,0.5,0.58,0.61,0.55,0.61,0.25,0.61,0.25,0.55,0.61,0.48,0.42,0.29,0.56,0.58,0.48,0.61,0.55,0.33,0.58,0.48,0.55,0.48,0.52,0.6,0.48,0.4,0.29,0.88,0.48,0.58,0.33,0.42,0.25" style="fill:rgb(0,0,0);font-family:URWPalladioL-Roma;font-size:8.97px;stroke:none;">C.R. and T.T. conceived the study, C.E.-K., P.R.V., C.R. and T.T. designed the experiments,</text>
   <text y="144.354" x="76.535,82.046,84.301,90.318,92.573,94.8155,97.065,104.155,106.41,114.943,117.1855,119.444,123.954,129.204,134.6757,136.952,143.348,145.603,151.114,153.369,156.373,162.921,165.1635,167.414,171.418,176.344,181.593,187.105,192.544,196.549,199.489,203.81,209.2817,211.558,214.499,219.749,224.0546,226.315,230.636,235.291,240.712,245.032,248.595,251.22,259.185,263.506,268.755,271.696,275.521,277.7635,280.013,286.408,288.663,294.688,296.944,299.1865,301.436,305.729,307.984,314.01,316.265,321.623,323.878,326.1205,328.37,334.765,337.02,342.532,344.787,347.79,354.339,356.594,358.8365,361.095,366.606,368.861,374.878,377.133,379.3755,381.625,388.715,390.97,399.503,401.7455,403.995,408.505,413.755,419.2267,421.503,426.374,428.629,433.491,435.7335,437.992,442.502,447.752,452.262,454.887,459.902,464.412,468.733,474.2047,476.481,479.422,484.672,488.97760000000005,491.229,494.63,498.951,502.775,508.214,510.839,513.78,517.604" svgx:width="0.61,0.25,0.67,0.25,0.25,0.55,0.79,0.25,0.95,0.25,0.55,0.5,0.58,0.61,0.55,0.71,0.25,0.61,0.25,0.33,0.73,0.25,0.55,0.44,0.55,0.58,0.61,0.6,0.44,0.33,0.48,0.61,0.55,0.33,0.58,0.48,0.55,0.48,0.52,0.6,0.48,0.4,0.29,0.88,0.48,0.58,0.33,0.42,0.25,0.55,0.71,0.25,0.67,0.25,0.25,0.55,0.6,0.25,0.67,0.25,0.72,0.25,0.25,0.55,0.71,0.25,0.61,0.25,0.33,0.73,0.25,0.25,0.55,0.61,0.25,0.67,0.25,0.25,0.55,0.79,0.25,0.95,0.25,0.55,0.5,0.58,0.61,0.55,0.61,0.25,0.61,0.25,0.55,0.5,0.58,0.5,0.29,0.56,0.5,0.48,0.61,0.55,0.33,0.58,0.48,0.55,0.4,0.48,0.42,0.6,0.29,0.33,0.42,0.25" style="fill:rgb(0,0,0);font-family:URWPalladioL-Roma;font-size:8.97px;stroke:none;">B.Z., O.M. and C.E.-K. conducted the experiments, C.R., P.R.V., C.E.-K., B.Z., O.M. and T.T. analyzed the results,</text>
   <text y="154.486" x="76.535,82.013,84.255,90.236,92.47850000000001,94.719,99.202,104.421,109.8927,112.141,118.498,120.739,126.218,128.459,131.445,137.955,140.19750000000002,142.438,149.916,153.296,158.192,161.115,165.4206,167.652,170.575,175.793,180.0986,182.33,190.247,194.73,199.949,205.355,209.157,213.138,216.68,219.289,224.678,227.601,229.8435,232.084,236.343,238.585,244.574,246.816,252.133,254.37550000000002,256.616,261.099,266.318,271.7897,274.038,278.871,281.113,285.945,288.1875,290.429,294.912,298.893,303.914,309.321,311.93,315.31,319.605,325.0767,327.325,330.248,335.467,339.7726,342.003,344.989,350.396,355.614,361.093,363.702,368.92,373.906" svgx:width="0.61,0.25,0.67,0.25,0.55,0.5,0.58,0.61,0.55,0.71,0.25,0.61,0.25,0.33,0.73,0.25,0.55,0.83,0.4,0.55,0.33,0.48,0.55,0.33,0.58,0.48,0.55,0.88,0.5,0.58,0.6,0.42,0.44,0.4,0.29,0.6,0.33,0.25,0.55,0.6,0.25,0.67,0.25,0.72,0.25,0.55,0.5,0.58,0.61,0.55,0.61,0.25,0.61,0.25,0.55,0.5,0.44,0.56,0.6,0.29,0.4,0.48,0.61,0.55,0.33,0.58,0.48,0.55,0.33,0.6,0.58,0.61,0.29,0.58,0.56,0.25" style="fill:rgb(0,0,0);font-family:URWPalladioL-Roma;font-size:8.97px;stroke:none;">B.Z. and C.E.-K. wrote the manuscript, P.R.V. and T.T. acquired the funding.</text>
   <text y="170.596" x="76.535,83.009,87.994,93.473,98.951,101.937,105.918,108.904,112.85079999999999,115.126,120.112,123.6103,125.841,129.329,134.808,137.793,142.277,145.765,150.248,154.229,157.215" svgx:width="0.72,0.56,0.61,0.61,0.33,0.44,0.33,0.44,0.55,0.56,0.39,0.55,0.39,0.61,0.33,0.5,0.39,0.5,0.44,0.33,0.25" style="fill:rgb(0,0,0);font-family:URWPalladioL-Bold;font-size:8.97px;stroke:none;">Conﬂicts of Interest:</text>
   <text y="170.596" x="162.235,167.731,172.95,177.2556,179.486,183.97,189.376,192.299,197.518,202.413,205.955,209.72240000000002,211.999,217.477,221.772,225.753,228.362,232.845,236.226,240.5316,242.762,247.981,252.9145,255.118,259.099,263.995,269.213,274.665,277.274,281.255,284.2151,286.42,291.315,294.2751,296.543,299.152,304.37,307.293,311.588,314.969,319.264,323.065,325.988" svgx:width="0.61,0.58,0.48,0.55,0.5,0.6,0.33,0.58,0.55,0.4,0.42,0.55,0.61,0.48,0.44,0.29,0.5,0.4,0.48,0.55,0.58,0.55,0.55,0.44,0.55,0.58,0.61,0.29,0.44,0.33,0.55,0.55,0.33,0.55,0.29,0.58,0.33,0.48,0.4,0.48,0.42,0.33,0.25" style="fill:rgb(0,0,0);font-family:URWPalladioL-Roma;font-size:8.97px;stroke:none;">The authors declare no conﬂict of interest.</text>
   <text y="196.897" x="76.535,83.728,88.709,92.585,97.566,101.441,106.423,112.51,116.933,121.915" svgx:width="0.72,0.5,0.39,0.5,0.39,0.5,0.61,0.44,0.5,0.44" style="fill:rgb(0,0,0);font-family:URWPalladioL-Bold;font-size:9.96px;stroke:none;">References</text>
   <text y="215.786" x="76.535,81.018,83.26050000000001,98.05,103.638,108.211,110.351,115.848,120.42,123.082,125.3245,128.661,134.112,136.398,143.038,145.324,147.56650000000002,151.434,157.543,162.116,167.439,175.514,180.087,185.41,187.6525,190.989,198.104,200.391,202.6335,206.5,213.14,217.713,223.036,228.121,230.36350000000002,233.699,238.501,240.787,247.272,249.5145,252.86,259.344,264.667,269.048,277.123,279.785,283.846,288.418,291.0193,294.372,298.433,303.427,311.502,316.999,321.992,325.87,328.532,331.513,334.174,339.168,344.3706,347.783,352.356,357.679,363.1507,366.569,369.23,374.544,379.866,382.528,387.585,390.247,393.228,398.222,401.835,406.85819999999995,410.221,415.718,420.291,423.903,428.476,436.552,440.932,443.914,448.295,451.907,455.6744,459.078,464.071,467.03110000000004,470.409,474.79,478.668,482.545,486.926,492.249,495.231,497.892,502.465,505.06629999999996,508.428,513.421,516.083" svgx:width="0.5,0.25,0.55,0.61,0.5,0.23,0.6,0.5,0.29,0.25,0.55,0.72,0.25,0.73,0.25,0.25,0.55,0.67,0.5,0.58,0.88,0.5,0.58,0.25,0.55,0.78,0.25,0.25,0.55,0.73,0.5,0.58,0.56,0.25,0.55,0.52,0.25,0.71,0.25,0.55,0.71,0.58,0.48,0.88,0.29,0.44,0.5,0.29,0.55,0.44,0.55,0.88,0.6,0.55,0.42,0.29,0.33,0.29,0.55,0.58,0.55,0.5,0.58,0.61,0.55,0.29,0.58,0.58,0.29,0.55,0.29,0.33,0.55,0.4,0.56,0.55,0.6,0.5,0.4,0.5,0.88,0.48,0.33,0.48,0.4,0.42,0.55,0.55,0.33,0.55,0.48,0.42,0.42,0.48,0.58,0.33,0.29,0.5,0.29,0.55,0.55,0.29,0.29" style="fill:rgb(0,0,0);font-family:URWPalladioL-Roma;font-size:8.97px;stroke:none;">1. Bajpai, V.K.; Rahman, A.; Kang, S.C. Chemical composition and inhibitory parameters of essential oil</text>
   <text y="228.698" x="98.05,102.623,107.946,113.4177,116.003,120.384,125.103,128.085,131.697,136.27,140.331,143.312,147.07940000000002,149.659,154.653,157.6131,160.159,165.481,170.054,175.377,180.965,183.627,188.949,193.43400000000003,195.992,201.58,206.573,214.649,219.03,222.907,225.889,228.55,232.611,237.096,239.653,242.635,247.958,253.473,258.795,263.853,266.0955,269.596,272.578,277.51149999999996,280.041,284.102,289.095,294.418,297.399,300.847,305.841,308.4423,310.972,314.017,319.011,324.004,329.592,332.638,337.696,342.689,346.302,351.624,355.92960000000005,358.475,363.971,368.544,371.526,376.848,381.842,386.927,391.308,396.631,399.292,403.23879999999997,405.813,410.386,415.709,421.1807,423.766,427.644,433.14,438.134,440.795,443.457,448.03,453.115,457.42060000000004,459.965,465.022,469.595,473.656,476.637,481.018,484.631,487.292,491.865" svgx:width="0.5,0.58,0.61,0.55,0.48,0.52,0.33,0.4,0.5,0.44,0.33,0.42,0.55,0.55,0.33,0.55,0.58,0.5,0.58,0.61,0.29,0.58,0.5,0.55,0.61,0.55,0.88,0.48,0.42,0.33,0.29,0.44,0.5,0.55,0.33,0.58,0.6,0.58,0.55,0.25,0.55,0.33,0.55,0.55,0.44,0.55,0.58,0.33,0.4,0.55,0.29,0.55,0.33,0.55,0.55,0.61,0.33,0.55,0.55,0.4,0.58,0.48,0.55,0.6,0.5,0.33,0.58,0.55,0.56,0.48,0.58,0.29,0.44,0.55,0.5,0.58,0.61,0.55,0.42,0.6,0.55,0.29,0.29,0.5,0.56,0.48,0.55,0.55,0.5,0.44,0.33,0.48,0.4,0.29,0.5,0.25" style="fill:rgb(0,0,0);font-family:URWPalladioL-Roma;font-size:8.97px;stroke:none;">and extracts of nandina domestica thunb. to control food-borne pathogenic and spoilage bacteria.</text>
   <text y="228.698" x="497.609,500.655,505.74,508.785,511.02750000000003,514.529,517.574" svgx:width="0.33,0.56,0.33,0.25,0.55,0.33,0.25" style="fill:rgb(0,0,0);font-family:URWPalladioL-Ital;font-size:8.97px;stroke:none;">Int. J.</text>
   <text y="241.61" x="97.799,102.784,106.765,110.746,115.231,117.471,125.936,128.428,132.078,135.404,139.385,143.537,146.029,150.01,152.503" svgx:width="0.56,0.44,0.44,0.5,0.55,0.94,0.28,0.41,0.39,0.44,0.46,0.28,0.44,0.28,0.25" style="fill:rgb(0,0,0);font-family:URWPalladioL-Ital;font-size:8.97px;stroke:none;">Food Microbiol.</text>
   <text y="241.61" x="157.524,162.007,166.49,170.974" svgx:width="0.5,0.5,0.5,0.5" style="fill:rgb(0,0,0);font-family:URWPalladioL-Bold;font-size:8.97px;stroke:none;">2008</text>
   <text y="241.61" x="175.456" svgx:width="0.25" style="fill:rgb(0,0,0);font-family:URWPalladioL-Roma;font-size:8.97px;stroke:none;">,</text>
   <text y="241.61" x="179.94,184.423,188.906" svgx:width="0.5,0.5,0.5" style="fill:rgb(0,0,0);font-family:URWPalladioL-Ital;font-size:8.97px;stroke:none;">125</text>
   <text y="241.61" x="193.389,195.63150000000002,197.872,202.355,206.839,211.322,215.805,220.288,224.771,229.255,231.4975,234.276" svgx:width="0.25,0.55,0.5,0.5,0.5,0.5,0.5,0.5,0.5,0.25,0.55,0.33" style="fill:rgb(0,0,0);font-family:URWPalladioL-Roma;font-size:8.97px;stroke:none;">, 117–122. [</text>
   <text y="241.61" x="237.262,243.619,246.999,251.895,255.697,259.498,265.488,269.783" svgx:width="0.71,0.4,0.55,0.42,0.42,0.67,0.48,0.33" style="fill:rgb(0,0,255);font-family:URWPalladioL-Roma;font-size:8.97px;stroke:none;">CrossRef</text>
   <text y="241.61" x="272.769,275.7291,277.996" svgx:width="0.33,0.55,0.33" style="fill:rgb(0,0,0);font-family:URWPalladioL-Roma;font-size:8.97px;stroke:none;">] [</text>
   <text y="241.61" x="280.982,286.397,291.804,296.763,305.245,309.54" svgx:width="0.6,0.6,0.55,0.95,0.48,0.61" style="fill:rgb(0,0,255);font-family:URWPalladioL-Roma;font-size:8.97px;stroke:none;">PubMed</text>
   <text y="241.61" x="315.018" svgx:width="0.33" style="fill:rgb(0,0,0);font-family:URWPalladioL-Roma;font-size:8.97px;stroke:none;">]</text>
   <text y="254.521" x="76.535,81.018,83.26050000000001,98.05,103.638,108.211,113.296,118.381,122.954,125.615,128.277,130.5195,135.227,139.489,141.776,144.01850000000002,149.943,156.235,161.402,165.783,169.396,174.453,178.834,182.895,187.98,190.2225,194.931,199.732,202.019,204.2615,210.186,216.469,221.636,226.017,229.63,234.687,239.068,243.129,248.214,250.4565,255.174,262.252,264.539,266.7815,272.697,275.779,281.367,285.94,290.933,299.009,303.582,306.536,308.7785,313.487,322.139,324.3815,329.089,334.677,337.339,342.332,344.994,349.987,355.072,357.734,361.795,366.367,368.9683,373.702,378.074,380.964,384.0,388.381,392.442,395.423,399.1904,403.975,408.968,411.92810000000003,416.678,421.059,424.937,428.814,433.195,438.518,441.499,444.161,448.734,451.33529999999996,456.059,461.053,463.714,466.376,470.254,479.399,486.3956,491.179,494.627,499.008,504.175,506.836,511.217,518.022" svgx:width="0.5,0.25,0.55,0.61,0.5,0.56,0.56,0.5,0.29,0.29,0.25,0.55,0.56,0.25,0.25,0.55,0.78,0.56,0.48,0.4,0.55,0.48,0.44,0.56,0.25,0.55,0.52,0.25,0.25,0.55,0.78,0.56,0.48,0.4,0.55,0.48,0.44,0.56,0.25,0.55,0.77,0.25,0.25,0.55,0.34,0.61,0.5,0.55,0.88,0.5,0.4,0.25,0.55,0.95,0.25,0.55,0.61,0.29,0.55,0.29,0.55,0.56,0.29,0.44,0.5,0.29,0.55,0.48,0.33,0.33,0.48,0.44,0.33,0.42,0.55,0.55,0.33,0.55,0.48,0.42,0.42,0.48,0.58,0.33,0.29,0.5,0.29,0.55,0.55,0.29,0.29,0.42,1.0,0.78,0.55,0.4,0.48,0.56,0.29,0.48,0.83,0.25" style="fill:rgb(0,0,0);font-family:URWPalladioL-Roma;font-size:8.97px;stroke:none;">2. Bakkali, F.; Averbeck, S.; Averbeck, D.; Idaomar, M. Biological effects of essential oils—A review.</text>
   <text y="267.433" x="97.799,102.784,106.765,110.746,115.231,117.471,123.452,127.935,131.423,138.399,140.6415,142.882,147.365,151.346,155.83,158.322,161.972,165.953,168.445" svgx:width="0.56,0.44,0.44,0.5,0.55,0.67,0.5,0.39,0.78,0.25,0.55,0.61,0.44,0.5,0.28,0.41,0.44,0.28,0.25" style="fill:rgb(0,0,0);font-family:URWPalladioL-Ital;font-size:8.97px;stroke:none;">Food Chem. Toxicol.</text>
   <text y="267.433" x="173.466,177.949,182.432,186.916" svgx:width="0.5,0.5,0.5,0.5" style="fill:rgb(0,0,0);font-family:URWPalladioL-Bold;font-size:8.97px;stroke:none;">2008</text>
   <text y="267.433" x="191.399" svgx:width="0.25" style="fill:rgb(0,0,0);font-family:URWPalladioL-Roma;font-size:8.97px;stroke:none;">,</text>
   <text y="267.433" x="195.882,200.365" svgx:width="0.5,0.5" style="fill:rgb(0,0,0);font-family:URWPalladioL-Ital;font-size:8.97px;stroke:none;">46</text>
   <text y="267.433" x="204.848,207.09050000000002,209.331,213.814,218.298,222.781,227.264,231.747,236.23,240.714,242.9565,245.735" svgx:width="0.25,0.55,0.5,0.5,0.5,0.5,0.5,0.5,0.5,0.25,0.55,0.33" style="fill:rgb(0,0,0);font-family:URWPalladioL-Roma;font-size:8.97px;stroke:none;">, 446–475. [</text>
   <text y="267.433" x="248.721,255.078,258.458,263.354,267.156,270.957,276.947,281.242" svgx:width="0.71,0.4,0.55,0.42,0.42,0.67,0.48,0.33" style="fill:rgb(0,0,255);font-family:URWPalladioL-Roma;font-size:8.97px;stroke:none;">CrossRef</text>
   <text y="267.433" x="284.228,287.1881,289.455" svgx:width="0.33,0.55,0.33" style="fill:rgb(0,0,0);font-family:URWPalladioL-Roma;font-size:8.97px;stroke:none;">] [</text>
   <text y="267.433" x="292.441,297.856,303.263,308.222,316.704,320.999" svgx:width="0.6,0.6,0.55,0.95,0.48,0.61" style="fill:rgb(0,0,255);font-family:URWPalladioL-Roma;font-size:8.97px;stroke:none;">PubMed</text>
   <text y="267.433" x="326.477" svgx:width="0.33" style="fill:rgb(0,0,0);font-family:URWPalladioL-Roma;font-size:8.97px;stroke:none;">]</text>
   <text y="280.344" x="76.535,81.018,83.26050000000001,98.05,104.534,109.107,114.43,120.018,124.591,129.914,132.1565,134.944,139.206,141.492,143.7345,146.778,153.894,159.217,161.878,167.393,169.6355,172.432,181.084,183.371,185.61350000000002,188.657,193.44,197.821,203.317,207.698,209.94050000000001,212.728,218.316,220.603,222.84550000000002,225.889,232.968,237.541,240.586,244.967,248.424,252.805,256.417,260.99,263.2325,266.02,273.099,275.386,277.62850000000003,280.672,286.196,291.19,293.851,296.512,300.39,304.268,306.929,311.923,317.438,319.6805,322.477,331.129,333.415,335.6575,338.702,343.503,348.497,353.582,361.657,366.038,371.361,373.6035,376.391,383.506,385.793,388.0355,391.079,398.195,403.28,408.776,414.291,416.952,421.525,424.507,426.7495,429.546,437.155,439.442,446.557,448.7995,451.587,458.703,464.026,467.007,469.668,474.662,479.381,482.043,487.631,492.204,497.526,500.4861,503.261,507.834,513.156" svgx:width="0.5,0.25,0.55,0.71,0.5,0.58,0.61,0.5,0.58,0.25,0.55,0.56,0.25,0.25,0.55,0.78,0.58,0.29,0.6,0.25,0.55,0.95,0.25,0.25,0.55,0.61,0.48,0.6,0.48,0.25,0.55,0.61,0.25,0.25,0.55,0.77,0.5,0.33,0.48,0.4,0.48,0.4,0.5,0.25,0.55,0.77,0.25,0.25,0.55,0.6,0.55,0.29,0.29,0.42,0.42,0.29,0.55,0.6,0.25,0.55,0.95,0.25,0.25,0.55,0.52,0.55,0.56,0.88,0.48,0.58,0.25,0.55,0.78,0.25,0.25,0.55,0.78,0.56,0.6,0.6,0.29,0.5,0.33,0.25,0.55,0.83,0.25,0.78,0.25,0.55,0.78,0.58,0.33,0.29,0.55,0.52,0.29,0.61,0.5,0.58,0.33,0.55,0.5,0.58,0.61" style="fill:rgb(0,0,0);font-family:URWPalladioL-Roma;font-size:8.97px;stroke:none;">3. Candan, F.; Unlu, M.; Tepe, B.; Daferera, D.; Polissiou, M.; Sökmen, A.; Akpulat, H.A. Antioxidant and</text>
   <text y="293.256" x="98.05,102.583,107.858,110.814,113.451,121.456,124.094,128.119,131.536,136.486,141.499,144.137,148.669,151.27030000000002,153.555,158.088,162.113,165.068,167.706,172.827,175.465,178.421,183.4442,185.7,190.649,193.6091,195.907,198.862,204.138,208.4436,210.728,215.07,218.914,222.758,227.1,232.376,235.331,237.969,242.501,245.1023,247.378,252.328,254.966,257.5673,259.852,264.384,269.66,275.1317,277.438,285.442,289.784,292.74,298.016,302.548,307.824,312.773,315.3743,317.65,321.992,326.67,329.625,333.206,337.738,341.763,344.719,348.4864,350.81,355.76,358.7201,361.017,365.55,369.575,374.851,377.489,380.126,382.764,387.107,391.59200000000004,393.887,401.892,404.53,407.167,409.805,414.147,417.166,422.116,424.754,427.391,432.858,443.101,446.945,452.411,457.424,461.267,466.716,468.9585,471.765,479.769,482.407,485.045,487.683,492.025,495.044,499.993,502.631,505.269,510.735" svgx:width="0.5,0.58,0.33,0.29,0.88,0.29,0.44,0.4,0.55,0.55,0.29,0.5,0.29,0.55,0.5,0.44,0.33,0.29,0.56,0.29,0.33,0.56,0.55,0.55,0.33,0.55,0.33,0.58,0.48,0.55,0.48,0.42,0.42,0.48,0.58,0.33,0.29,0.5,0.29,0.55,0.55,0.29,0.29,0.55,0.5,0.58,0.61,0.55,0.88,0.48,0.33,0.58,0.5,0.58,0.55,0.29,0.55,0.48,0.52,0.33,0.4,0.5,0.44,0.33,0.42,0.55,0.55,0.33,0.55,0.5,0.44,0.58,0.29,0.29,0.29,0.48,0.5,0.55,0.88,0.29,0.29,0.29,0.48,0.33,0.55,0.29,0.29,0.6,0.88,0.42,0.6,0.55,0.42,0.6,0.25,0.55,0.88,0.29,0.29,0.29,0.48,0.33,0.55,0.29,0.29,0.6,0.88" style="fill:rgb(0,0,0);font-family:URWPalladioL-Roma;font-size:8.97px;stroke:none;">antimicrobial activity of the essential oil and methanol extracts of achillea millefoliumsubsp. millefolium</text>
   <text y="306.168" x="98.05,102.533,105.519,110.002,115.221,117.46350000000001,120.242,123.228,127.711,131.513,134.436,138.731,142.272,146.755,150.737,155.031,159.515,163.81,166.795" svgx:width="0.5,0.33,0.5,0.58,0.25,0.55,0.33,0.5,0.42,0.33,0.48,0.4,0.5,0.44,0.48,0.5,0.48,0.33,0.25" style="fill:rgb(0,0,0);font-family:URWPalladioL-Roma;font-size:8.97px;stroke:none;">afan. (asteraceae).</text>
   <text y="306.168" x="171.816,174.802,177.0445,179.285,184.764,187.749,192.233,197.218,201.199,205.682,210.165,214.146,217.634,224.61,228.591,232.241,236.222,238.714" svgx:width="0.33,0.25,0.55,0.61,0.33,0.5,0.56,0.44,0.5,0.5,0.44,0.39,0.78,0.44,0.41,0.44,0.28,0.25" style="fill:rgb(0,0,0);font-family:URWPalladioL-Ital;font-size:8.97px;stroke:none;">J. Ethnopharmacol.</text>
   <text y="306.168" x="243.735,248.218,252.701,257.185" svgx:width="0.5,0.5,0.5,0.5" style="fill:rgb(0,0,0);font-family:URWPalladioL-Bold;font-size:8.97px;stroke:none;">2003</text>
   <text y="306.168" x="261.668" svgx:width="0.25" style="fill:rgb(0,0,0);font-family:URWPalladioL-Roma;font-size:8.97px;stroke:none;">,</text>
   <text y="306.168" x="266.151,270.634" svgx:width="0.5,0.5" style="fill:rgb(0,0,0);font-family:URWPalladioL-Ital;font-size:8.97px;stroke:none;">87</text>
   <text y="306.168" x="275.117,277.3595,279.6,284.083,288.567,293.05,297.533,302.016,306.5,310.983,313.2255,316.004" svgx:width="0.25,0.55,0.5,0.5,0.5,0.5,0.5,0.5,0.5,0.25,0.55,0.33" style="fill:rgb(0,0,0);font-family:URWPalladioL-Roma;font-size:8.97px;stroke:none;">, 215–220. [</text>
   <text y="306.168" x="318.99,325.347,328.727,333.623,337.425,341.226,347.216,351.511" svgx:width="0.71,0.4,0.55,0.42,0.42,0.67,0.48,0.33" style="fill:rgb(0,0,255);font-family:URWPalladioL-Roma;font-size:8.97px;stroke:none;">CrossRef</text>
   <text y="306.168" x="354.497" svgx:width="0.33" style="fill:rgb(0,0,0);font-family:URWPalladioL-Roma;font-size:8.97px;stroke:none;">]</text>
   <text y="319.079" x="76.535,81.018,98.05,102.791,107.333,112.882,116.025,115.526,119.558,124.073,129.477,131.748,136.262,143.329,146.916,150.768,153.91,153.411,157.443,161.958,165.019,167.289,171.804,177.862,182.994,187.345,191.886,197.436,201.977,207.264,212.223,217.355,220.497,219.998,224.031,228.545,231.57,233.84,238.355,244.413,249.89,254.931,258.083,257.574,261.607,266.121,273.188,275.458,279.973,286.413,291.544,295.895,298.856,303.906,308.866,313.997,317.149,316.641,320.673,325.188,332.218,334.489,339.003,344.489,349.031,354.162,359.213,364.172,368.314,372.828,377.596,382.102,387.669,392.956,399.55,403.901,407.752,410.713,413.356,421.376,425.918,428.879,431.522,436.481,444.011,448.97,454.238,457.2,462.486,469.08,472.041,475.629,480.17,485.72,488.363,491.324,493.967,498.927,504.213,508.754,511.398,514.041" svgx:width="0.5,0.25,0.61,0.5,0.61,0.29,0.33,0.44,0.25,0.72,0.25,0.25,0.78,0.4,0.42,0.29,0.33,0.44,0.25,0.34,0.25,0.25,0.67,0.56,0.48,0.5,0.61,0.5,0.58,0.55,0.56,0.29,0.33,0.44,0.25,0.33,0.25,0.25,0.67,0.6,0.56,0.29,0.33,0.44,0.25,0.78,0.25,0.25,0.71,0.56,0.48,0.33,0.56,0.55,0.56,0.29,0.33,0.44,0.25,0.77,0.25,0.25,0.6,0.5,0.56,0.56,0.55,0.56,0.25,0.52,0.25,0.61,0.58,0.48,0.48,0.42,0.33,0.29,0.88,0.5,0.33,0.29,0.55,0.58,0.55,0.33,0.33,0.58,0.48,0.33,0.4,0.5,0.61,0.29,0.33,0.29,0.55,0.58,0.5,0.29,0.29,0.56" style="fill:rgb(0,0,0);font-family:URWPalladioL-Roma;font-size:8.97px;stroke:none;">4.Tadi´c,V.;Arsi´c,I.;Zvezdanovi´c,J.;Zugi´c,A.;Cvetkovi´c,D.;Pavkov,S.Theestimationofthetraditionally</text>
   <text y="331.991" x="98.05,103.565,107.443,111.823,117.29469999999999,121.097,126.182,130.755,134.359,137.816,142.809,150.2541,154.113" svgx:width="0.6,0.42,0.48,0.61,0.55,0.56,0.5,0.4,0.4,0.55,0.83,0.55,0.33" style="fill:rgb(0,0,0);font-family:URWPalladioL-Roma;font-size:8.97px;stroke:none;">used yarrow (</text>
   <text y="331.991" x="157.162,163.765,167.488,172.06,174.603,177.145,179.688,183.246,187.1928,190.983,198.098,200.641,203.183,205.726,209.283,211.826,215.887,218.429,220.972,226.057" svgx:width="0.72,0.41,0.5,0.28,0.28,0.28,0.39,0.44,0.55,0.78,0.28,0.28,0.28,0.39,0.28,0.44,0.28,0.28,0.56,0.78" style="fill:rgb(0,0,0);font-family:URWPalladioL-Ital;font-size:8.97px;stroke:none;">Achillea millefolium</text>
   <text y="331.991" x="236.856,242.444,244.6865,248.407,255.522,259.4,262.382,266.763,270.375,274.948,279.009,283.389,287.962,292.343,295.30310000000003,299.074,304.068,306.729,309.33029999999997,313.067,317.448,322.167,325.149,328.761,333.334,337.395,340.376,344.1434,347.94,355.568,358.229,361.21,366.4126,370.21,374.783,380.106,383.087,385.748,388.794,391.455,396.778,402.339,406.912,414.987,419.56,422.542,427.535,431.148,436.1712,439.919,445.415,450.409,453.39,457.771,463.094,466.075,468.737,473.31,475.9113,479.648,482.309,487.51160000000004,491.308,494.29,499.284,504.78,507.441,511.502,516.075" svgx:width="0.61,0.25,0.55,0.78,0.42,0.33,0.48,0.4,0.5,0.44,0.48,0.5,0.48,0.33,0.55,0.55,0.29,0.29,0.55,0.48,0.52,0.33,0.4,0.5,0.44,0.33,0.42,0.55,0.83,0.29,0.33,0.58,0.55,0.5,0.58,0.33,0.29,0.33,0.29,0.58,0.61,0.5,0.88,0.5,0.33,0.55,0.4,0.56,0.55,0.6,0.55,0.33,0.48,0.58,0.33,0.29,0.5,0.29,0.55,0.29,0.58,0.55,0.33,0.55,0.6,0.29,0.44,0.5,0.29" style="fill:rgb(0,0,0);font-family:URWPalladioL-Roma;font-size:8.97px;stroke:none;">L. Asteraceae) oil extracts with anti-inﬂamatory potential in topical</text>
   <text y="344.902" x="98.05,102.533,107.922,113.311,115.92,118.529,122.51,126.994,129.917,132.526,137.421,142.64" svgx:width="0.5,0.6,0.6,0.29,0.29,0.44,0.5,0.33,0.29,0.55,0.58,0.25" style="fill:rgb(0,0,0);font-family:URWPalladioL-Roma;font-size:8.97px;stroke:none;">application.</text>
   <text y="344.902" x="147.661,150.647,152.8895,155.13,160.609,163.594,168.078,173.063,177.044,181.527,186.01,189.991,193.479,200.455,204.436,208.086,212.067,214.559" svgx:width="0.33,0.25,0.55,0.61,0.33,0.5,0.56,0.44,0.5,0.5,0.44,0.39,0.78,0.44,0.41,0.44,0.28,0.25" style="fill:rgb(0,0,0);font-family:URWPalladioL-Ital;font-size:8.97px;stroke:none;">J. Ethnopharmacol.</text>
   <text y="344.902" x="219.579,224.062,228.545,233.029" svgx:width="0.5,0.5,0.5,0.5" style="fill:rgb(0,0,0);font-family:URWPalladioL-Bold;font-size:8.97px;stroke:none;">2017</text>
   <text y="344.902" x="237.512" svgx:width="0.25" style="fill:rgb(0,0,0);font-family:URWPalladioL-Roma;font-size:8.97px;stroke:none;">,</text>
   <text y="344.902" x="241.995,246.478,250.961" svgx:width="0.5,0.5,0.5" style="fill:rgb(0,0,0);font-family:URWPalladioL-Ital;font-size:8.97px;stroke:none;">199</text>
   <text y="344.902" x="255.445,257.6875,259.928,264.411,268.895,273.378,277.861,282.344,286.828,291.311,293.5535,296.332" svgx:width="0.25,0.55,0.5,0.5,0.5,0.5,0.5,0.5,0.5,0.25,0.55,0.33" style="fill:rgb(0,0,0);font-family:URWPalladioL-Roma;font-size:8.97px;stroke:none;">, 138–148. [</text>
   <text y="344.902" x="299.318,305.675,309.055,313.951,317.753,321.554,327.544,331.839" svgx:width="0.71,0.4,0.55,0.42,0.42,0.67,0.48,0.33" style="fill:rgb(0,0,255);font-family:URWPalladioL-Roma;font-size:8.97px;stroke:none;">CrossRef</text>
   <text y="344.902" x="334.825,337.7851,340.052" svgx:width="0.33,0.55,0.33" style="fill:rgb(0,0,0);font-family:URWPalladioL-Roma;font-size:8.97px;stroke:none;">] [</text>
   <text y="344.902" x="343.038,348.454,353.86,358.819,367.301,371.596" svgx:width="0.6,0.6,0.55,0.95,0.48,0.61" style="fill:rgb(0,0,255);font-family:URWPalladioL-Roma;font-size:8.97px;stroke:none;">PubMed</text>
   <text y="344.902" x="377.074" svgx:width="0.33" style="fill:rgb(0,0,0);font-family:URWPalladioL-Roma;font-size:8.97px;stroke:none;">]</text>
   <text y="357.814" x="76.535,81.018,83.26050000000001,98.05,106.363,111.16,116.274,120.668,128.427,136.186,140.579,145.948,151.062,155.86,159.586,163.312,167.521,170.078,175.192,177.749,179.9915,181.914,190.226,192.423,194.6655,196.676,201.289,205.683,209.154,214.039,218.248,221.051,223.2935,225.217,229.83,232.027,238.828,241.024,243.2665,245.277,252.114,256.999,261.859,266.252,269.723,274.117,278.51,283.879,288.088,293.202,295.4445,297.367,304.203,306.4455,308.369,314.59,319.704,323.913,331.672,334.229,338.13,342.524,345.1253,347.049,350.951,355.748,363.507,368.788,373.586,377.312,379.869,382.733,385.29,390.088,395.29060000000004,397.171,401.968,404.92810000000003,406.854,409.719,414.833,419.13860000000005,421.01,425.219,428.945,432.67,436.879,441.993,444.858,447.415,451.809,454.4103,456.334,461.132,463.689,466.246,470.0134,471.931,476.324,481.439,486.9107,488.776,492.985,497.519,500.383,503.854,508.248,512.149,515.014" svgx:width="0.5,0.25,0.55,0.95,0.55,0.58,0.5,0.88,0.88,0.5,0.61,0.58,0.55,0.42,0.42,0.48,0.29,0.58,0.29,0.25,0.55,0.95,0.25,0.25,0.55,0.52,0.5,0.4,0.56,0.48,0.4,0.25,0.55,0.52,0.25,0.77,0.25,0.25,0.55,0.78,0.56,0.55,0.5,0.4,0.5,0.5,0.61,0.48,0.58,0.25,0.55,0.78,0.25,0.55,0.71,0.58,0.48,0.88,0.29,0.44,0.5,0.29,0.55,0.44,0.55,0.88,0.6,0.55,0.42,0.29,0.33,0.29,0.55,0.58,0.55,0.55,0.33,0.55,0.33,0.58,0.48,0.55,0.48,0.42,0.42,0.48,0.58,0.33,0.29,0.5,0.29,0.55,0.55,0.29,0.29,0.42,0.55,0.5,0.58,0.61,0.55,0.48,0.52,0.33,0.4,0.5,0.44,0.33,0.42" style="fill:rgb(0,0,0);font-family:URWPalladioL-Roma;font-size:8.97px;stroke:none;">5. Mohammadhosseini, M.; Sarker, S.D.; Akbarzadeh, A. Chemical composition of the essential oils and extracts</text>
   <text y="370.726" x="98.05,102.911,105.8711,108.12,112.572,116.525,121.707,124.298,126.889,129.48,133.745,138.23000000000002,140.449,144.224,149.575,153.84,157.793,160.384,164.649,168.4164,170.668,175.12,180.302,185.7737,187.986,190.888,196.07,200.335,202.926,206.51399999999998,208.687,213.61,216.201,221.063,223.654,228.515,233.465,236.056,240.01,244.461,247.06230000000002,249.305,253.757,257.701,260.604,263.195,268.225,270.816,273.719,276.31,280.575,284.35,286.59250000000003,289.371,296.3676,298.542,301.899,306.164,311.194,313.785,318.05,324.648" svgx:width="0.55,0.33,0.55,0.5,0.44,0.58,0.29,0.29,0.29,0.48,0.5,0.55,0.42,0.6,0.48,0.44,0.29,0.48,0.42,0.55,0.5,0.58,0.61,0.55,0.33,0.58,0.48,0.29,0.4,0.55,0.55,0.29,0.55,0.29,0.55,0.56,0.29,0.44,0.5,0.29,0.55,0.5,0.44,0.33,0.29,0.56,0.29,0.33,0.29,0.48,0.42,0.25,0.55,0.78,0.55,0.4,0.48,0.56,0.29,0.48,0.83,0.25" style="fill:rgb(0,0,0);font-family:URWPalladioL-Roma;font-size:8.97px;stroke:none;">of achillea species and their biological activities: A review.</text>
   <text y="370.726" x="329.668,332.633,334.8755,337.103,342.543,345.508,349.959,354.91,358.863,363.315,367.767,371.72,375.183,382.11,386.064,389.687,393.641,396.116" svgx:width="0.33,0.25,0.55,0.61,0.33,0.5,0.56,0.44,0.5,0.5,0.44,0.39,0.78,0.44,0.41,0.44,0.28,0.25" style="fill:rgb(0,0,0);font-family:URWPalladioL-Ital;font-size:8.97px;stroke:none;">J. Ethnopharmacol.</text>
   <text y="370.726" x="401.137,405.62,410.103,414.587" svgx:width="0.5,0.5,0.5,0.5" style="fill:rgb(0,0,0);font-family:URWPalladioL-Bold;font-size:8.97px;stroke:none;">2017</text>
   <text y="370.726" x="419.069" svgx:width="0.25" style="fill:rgb(0,0,0);font-family:URWPalladioL-Roma;font-size:8.97px;stroke:none;">,</text>
   <text y="370.726" x="423.543,427.995,432.447" svgx:width="0.5,0.5,0.5" style="fill:rgb(0,0,0);font-family:URWPalladioL-Ital;font-size:8.97px;stroke:none;">199</text>
   <text y="370.726" x="436.898,439.14050000000003,441.368,445.819,450.271,454.723,459.175,463.627,468.079,472.53,474.7725,477.552" svgx:width="0.25,0.55,0.5,0.5,0.5,0.5,0.5,0.5,0.5,0.25,0.55,0.33" style="fill:rgb(0,0,0);font-family:URWPalladioL-Roma;font-size:8.97px;stroke:none;">, 257–315. [</text>
   <text y="370.726" x="480.517,486.83,490.186,495.048,498.823,502.598,508.546,512.81" svgx:width="0.71,0.4,0.55,0.42,0.42,0.67,0.48,0.33" style="fill:rgb(0,0,255);font-family:URWPalladioL-Roma;font-size:8.97px;stroke:none;">CrossRef</text>
   <text y="370.726" x="515.775" svgx:width="0.33" style="fill:rgb(0,0,0);font-family:URWPalladioL-Roma;font-size:8.97px;stroke:none;">]</text>
   <text y="383.637" x="98.05" svgx:width="0.33" style="fill:rgb(0,0,0);font-family:URWPalladioL-Roma;font-size:8.97px;stroke:none;">[</text>
   <text y="383.637" x="101.036,106.452,111.858,116.817,125.299,129.594" svgx:width="0.6,0.6,0.55,0.95,0.48,0.61" style="fill:rgb(0,0,255);font-family:URWPalladioL-Roma;font-size:8.97px;stroke:none;">PubMed</text>
   <text y="383.637" x="135.072" svgx:width="0.33" style="fill:rgb(0,0,0);font-family:URWPalladioL-Roma;font-size:8.97px;stroke:none;">]</text>
   <text y="396.549" x="76.535,81.018,83.26050000000001,98.05,105.421,109.85,113.783,118.939,123.182,127.116,129.3585,131.563,134.513,136.728,139.678,148.058,150.273,152.5155,154.729,161.01,165.846,168.424,171.002,173.58,178.736,180.9785,183.183,189.942,192.157,195.107,198.057,200.272,202.5145,204.728,211.487,215.916,220.842,225.998,230.835,235.99,238.23250000000002,240.446,248.827,251.042,253.992,256.942,259.156,261.3985,263.603,268.254,270.832,278.654,283.084,286.424,291.836,294.0785,296.292,300.943,303.158,305.4005,307.605,314.462,319.804,322.754,327.591,332.932,335.767,338.0095,340.223,344.874,347.089,349.3315,351.545,354.495,358.738,363.167,368.323,370.5655,372.77,376.872,379.087,382.037,385.022,387.237,389.47950000000003,391.693,397.088,401.331,404.83,409.986,412.564,417.72,419.96250000000003,422.176,428.935,431.15,433.3925,435.597,440.523,444.022,448.451,451.029,454.785,458.541,462.785,465.02750000000003,467.241,474.097,476.3395,478.545,483.957,488.528,491.416,494.916,499.345,503.278,506.166,508.744,513.581" svgx:width="0.5,0.25,0.55,0.83,0.5,0.44,0.58,0.48,0.56,0.25,0.55,0.33,0.25,0.33,0.95,0.25,0.25,0.55,0.71,0.55,0.29,0.29,0.29,0.58,0.25,0.55,0.76,0.25,0.33,0.33,0.25,0.25,0.55,0.76,0.5,0.56,0.58,0.55,0.58,0.25,0.55,0.95,0.25,0.33,0.33,0.25,0.25,0.55,0.52,0.29,0.88,0.5,0.4,0.61,0.25,0.55,0.52,0.25,0.25,0.55,0.77,0.6,0.33,0.55,0.6,0.4,0.25,0.55,0.52,0.25,0.25,0.55,0.33,0.48,0.5,0.58,0.25,0.55,0.56,0.25,0.33,0.34,0.25,0.25,0.55,0.72,0.48,0.4,0.58,0.29,0.58,0.25,0.55,0.76,0.25,0.25,0.55,0.56,0.4,0.5,0.29,0.42,0.42,0.48,0.25,0.55,0.77,0.25,0.55,0.61,0.52,0.33,0.4,0.5,0.44,0.33,0.29,0.55,0.58" style="fill:rgb(0,0,0);font-family:URWPalladioL-Roma;font-size:8.97px;stroke:none;">6. Hachey, J.-M.; Collin, G.-J.; Gagnon, M.-J.; Simard, S.; Dufour, S.; Jean, F.-I.; Vernin, G.; Fraisse, D. Extraction</text>
   <text y="409.46" x="98.05,102.444,107.558,113.0297,115.132,120.018,123.919,129.244,137.003,140.7704,142.934,147.328,152.442,156.836,159.393,164.278,168.004,170.561,174.32840000000002,176.483,181.281,184.24110000000002,186.413,189.277,194.391,198.6966,200.806,205.015,208.741,212.466,216.676,221.79,224.654,227.211,231.605,234.2063,236.367,241.165,243.713,246.3143,248.476,253.274" svgx:width="0.5,0.58,0.61,0.55,0.56,0.44,0.61,0.88,0.42,0.55,0.5,0.58,0.5,0.29,0.56,0.42,0.29,0.42,0.55,0.55,0.33,0.55,0.33,0.58,0.48,0.55,0.48,0.42,0.42,0.48,0.58,0.33,0.29,0.5,0.29,0.55,0.55,0.29,0.29,0.55,0.55,0.33" style="fill:rgb(0,0,0);font-family:URWPalladioL-Roma;font-size:8.97px;stroke:none;">and gc/ms analysis of the essential oil of</text>
   <text y="409.46" x="258.405,264.749,268.326,272.719,275.162,277.605,280.048,283.466,287.4128,289.573,296.409,298.852,301.295,303.738,307.156,309.599,313.5,315.943,318.386,323.271" svgx:width="0.72,0.41,0.5,0.28,0.28,0.28,0.39,0.44,0.55,0.78,0.28,0.28,0.28,0.39,0.28,0.44,0.28,0.28,0.56,0.78" style="fill:rgb(0,0,0);font-family:URWPalladioL-Ital;font-size:8.97px;stroke:none;">Achillea millefolium</text>
   <text y="409.46" x="332.308,337.677,339.9195,342.079,345.981,350.778,358.537,363.818,366.375,370.585,375.2494,377.315,380.241,384.143,388.941,396.7,401.981,406.778,410.504,413.061,415.926,420.319,424.528,427.454" svgx:width="0.61,0.25,0.55,0.44,0.55,0.88,0.6,0.29,0.48,0.52,0.55,0.33,0.44,0.55,0.88,0.6,0.55,0.42,0.29,0.33,0.5,0.48,0.33,0.25" style="fill:rgb(0,0,0);font-family:URWPalladioL-Roma;font-size:8.97px;stroke:none;">L. complex (compositae).</text>
   <text y="409.46" x="432.421,435.347,437.5895,439.749,445.118,448.536,451.955,455.373,460.258,463.185,465.4275,468.149,474.986,477.428,479.9396,482.068,487.929,491.347,494.765" svgx:width="0.33,0.25,0.55,0.61,0.39,0.39,0.39,0.56,0.33,0.25,0.55,0.78,0.28,0.28,0.55,0.67,0.39,0.39,0.25" style="fill:rgb(0,0,0);font-family:URWPalladioL-Ital;font-size:8.97px;stroke:none;">J. Essent. Oil Res.</text>
   <text y="409.46" x="499.732,504.215,508.698,513.182" svgx:width="0.5,0.5,0.5,0.5" style="fill:rgb(0,0,0);font-family:URWPalladioL-Bold;font-size:8.97px;stroke:none;">1990</text>
   <text y="409.46" x="517.664" svgx:width="0.25" style="fill:rgb(0,0,0);font-family:URWPalladioL-Roma;font-size:8.97px;stroke:none;">,</text>
   <text y="422.372" x="97.826" svgx:width="0.5" style="fill:rgb(0,0,0);font-family:URWPalladioL-Ital;font-size:8.97px;stroke:none;">2</text>
   <text y="422.372" x="102.31,104.55250000000001,106.793,111.276,115.76,120.243,124.726,129.209,133.692,138.176,140.4185,143.197" svgx:width="0.25,0.55,0.5,0.5,0.5,0.5,0.5,0.5,0.5,0.25,0.55,0.33" style="fill:rgb(0,0,0);font-family:URWPalladioL-Roma;font-size:8.97px;stroke:none;">, 317–326. [</text>
   <text y="422.372" x="146.183,152.54,155.92,160.816,164.618,168.419,174.409,178.704" svgx:width="0.71,0.4,0.55,0.42,0.42,0.67,0.48,0.33" style="fill:rgb(0,0,255);font-family:URWPalladioL-Roma;font-size:8.97px;stroke:none;">CrossRef</text>
   <text y="422.372" x="181.69" svgx:width="0.33" style="fill:rgb(0,0,0);font-family:URWPalladioL-Roma;font-size:8.97px;stroke:none;">]</text>
   <text y="435.284" x="76.535,81.018,83.26050000000001,98.05,102.852,108.174,112.747,120.375,123.036,125.27850000000001,128.661,135.776,138.063,142.864,145.151,147.39350000000002,151.315,156.116,159.729,162.39,167.558,172.13,176.008,178.99,183.563,188.73,193.303,195.5455,198.927,203.729,206.015,212.655,214.942,217.1845,221.106,225.907,230.992,235.565,243.641,248.214,252.092,257.606,262.929,268.517,273.09,276.044,278.2865,281.669,288.309,290.595,296.037,298.323,300.5655,304.497,309.289,312.902,315.563,321.06,325.632,328.614,333.937,336.598,338.8405,342.223,347.024,349.311,351.5535,355.484,361.593,366.166,368.828,374.151,378.723,380.9655,384.339,389.79,392.076,398.716,400.9585,404.341,409.929,413.806,417.684,422.065,427.388,430.369,433.031,437.604,440.20529999999997,443.594,448.588,451.249,453.8503,457.249,461.309,466.303,474.379,479.875,484.869,488.746,491.408,494.389,497.051,502.044,507.2466,510.705,515.699" svgx:width="0.5,0.25,0.55,0.52,0.58,0.5,0.83,0.29,0.25,0.55,0.78,0.25,0.52,0.25,0.25,0.55,0.52,0.4,0.29,0.56,0.5,0.42,0.33,0.5,0.56,0.5,0.25,0.55,0.52,0.25,0.73,0.25,0.25,0.55,0.52,0.56,0.5,0.88,0.5,0.42,0.6,0.58,0.61,0.5,0.4,0.25,0.55,0.73,0.25,0.72,0.25,0.25,0.55,0.61,0.4,0.29,0.6,0.5,0.33,0.58,0.29,0.25,0.55,0.52,0.25,0.25,0.55,0.67,0.5,0.29,0.58,0.5,0.25,0.55,0.72,0.25,0.73,0.25,0.55,0.61,0.42,0.42,0.48,0.58,0.33,0.29,0.5,0.29,0.55,0.55,0.29,0.29,0.55,0.44,0.55,0.88,0.6,0.55,0.42,0.29,0.33,0.29,0.55,0.58,0.55,0.55,0.33" style="fill:rgb(0,0,0);font-family:URWPalladioL-Roma;font-size:8.97px;stroke:none;">7. Shawl, A.S.; Srivastava, S.K.; Syamasundar, K.V.; Tripathi, S.; Raina, V.K. Essential oil composition of</text>
   <text y="448.195" x="97.728,104.202,107.851,112.334,114.827,117.32,119.812,123.3,127.2468,129.523,136.499,138.991,141.484,143.977,147.465,149.957,153.938,156.431,158.924,163.909" svgx:width="0.72,0.41,0.5,0.28,0.28,0.28,0.39,0.44,0.55,0.78,0.28,0.28,0.28,0.39,0.28,0.44,0.28,0.28,0.56,0.78" style="fill:rgb(0,0,0);font-family:URWPalladioL-Ital;font-size:8.97px;stroke:none;">Achillea millefolium</text>
   <text y="448.195" x="173.124,178.602,180.8445,183.086,188.071,191.451,196.347,203.825,206.434,211.653,216.6762,218.88,226.358,228.967,231.576,237.0477,239.296,241.905,247.1076,249.365,254.351,258.834,262.636,267.854,275.771,278.381,281.259,283.5015,285.742,288.764,293.982,299.461,302.07,306.553" svgx:width="0.61,0.25,0.55,0.56,0.4,0.55,0.83,0.29,0.58,0.56,0.55,0.83,0.29,0.29,0.61,0.55,0.29,0.58,0.55,0.56,0.5,0.42,0.58,0.88,0.29,0.4,0.25,0.55,0.34,0.58,0.61,0.29,0.5,0.25" style="fill:rgb(0,0,0);font-family:URWPalladioL-Roma;font-size:8.97px;stroke:none;">L. growing wild in kashmir, India.</text>
   <text y="448.195" x="311.573,316.558,319.051,323.032,327.515,331.496,336.482,339.98030000000006,342.211,347.197,350.684,354.665,359.149,361.973,364.2155,366.994,369.98" svgx:width="0.56,0.28,0.44,0.5,0.44,0.56,0.39,0.55,0.56,0.39,0.44,0.5,0.39,0.25,0.55,0.33,0.25" style="fill:rgb(0,0,0);font-family:URWPalladioL-Ital;font-size:8.97px;stroke:none;">Flavour Fragr. J.</text>
   <text y="448.195" x="374.462,378.945,383.428,387.912" svgx:width="0.5,0.5,0.5,0.5" style="fill:rgb(0,0,0);font-family:URWPalladioL-Bold;font-size:8.97px;stroke:none;">2002</text>
   <text y="448.195" x="392.395" svgx:width="0.25" style="fill:rgb(0,0,0);font-family:URWPalladioL-Roma;font-size:8.97px;stroke:none;">,</text>
   <text y="448.195" x="396.878,401.361" svgx:width="0.5,0.5" style="fill:rgb(0,0,0);font-family:URWPalladioL-Ital;font-size:8.97px;stroke:none;">17</text>
   <text y="448.195" x="405.845,408.08750000000003,410.328,414.811,419.295,423.778,428.261,432.744,437.228,441.711,443.9535,446.732" svgx:width="0.25,0.55,0.5,0.5,0.5,0.5,0.5,0.5,0.5,0.25,0.55,0.33" style="fill:rgb(0,0,0);font-family:URWPalladioL-Roma;font-size:8.97px;stroke:none;">, 165–168. [</text>
   <text y="448.195" x="449.718,456.075,459.455,464.351,468.153,471.954,477.944,482.239" svgx:width="0.71,0.4,0.55,0.42,0.42,0.67,0.48,0.33" style="fill:rgb(0,0,255);font-family:URWPalladioL-Roma;font-size:8.97px;stroke:none;">CrossRef</text>
   <text y="448.195" x="485.225" svgx:width="0.33" style="fill:rgb(0,0,0);font-family:URWPalladioL-Roma;font-size:8.97px;stroke:none;">]</text>
   <text y="461.107" x="76.535,81.018,83.26050000000001,98.05,101.096,105.668,108.33,116.405,120.978,126.301,131.889,134.13150000000002,138.602,145.242,147.528,149.7705,155.33,161.439,165.82,170.393,174.966,179.346,183.727,185.9695,190.431,199.083,201.369,206.957,209.244,211.4865,217.045,225.697,230.691,235.263,239.836,242.726,245.763,250.336,253.948,256.609,261.182,266.505,268.7475,273.218,278.66,280.90250000000003,285.373,291.857,297.18,301.561,309.636,312.298,316.359,320.931,323.53229999999996,328.019,332.08,337.074,342.396,346.274,349.256,351.917,354.899,360.414,364.794,370.117,373.099,376.8664,381.394,386.387,389.3471,393.859,396.841,402.164,406.4696,410.971,413.633,418.013,422.586,425.5461,430.049,434.622,439.945,445.4167,449.959,455.52,460.514,468.141,472.522,476.11,480.561,485.555,488.216,490.877,494.6444,499.173,502.218,505.675,510.669" svgx:width="0.5,0.25,0.55,0.33,0.5,0.29,0.88,0.5,0.58,0.61,0.25,0.55,0.73,0.25,0.25,0.55,0.67,0.48,0.5,0.5,0.48,0.48,0.25,0.55,0.95,0.25,0.61,0.25,0.25,0.55,0.95,0.55,0.5,0.5,0.33,0.33,0.5,0.4,0.29,0.5,0.58,0.25,0.55,0.72,0.25,0.55,0.71,0.58,0.48,0.88,0.29,0.44,0.5,0.29,0.55,0.44,0.55,0.58,0.42,0.33,0.29,0.33,0.6,0.48,0.58,0.33,0.42,0.55,0.55,0.33,0.55,0.33,0.58,0.48,0.55,0.29,0.48,0.5,0.33,0.55,0.5,0.58,0.61,0.55,0.61,0.55,0.83,0.48,0.4,0.55,0.55,0.29,0.29,0.42,0.55,0.33,0.4,0.55,0.88" style="fill:rgb(0,0,0);font-family:URWPalladioL-Roma;font-size:8.97px;stroke:none;">8. Jaimand, K.; Rezaee, M.B.; Mozaffarian, V. Chemical constituents of the leaf and ﬂower oils from</text>
   <text y="474.018" x="97.728,104.331,108.054,112.626,115.169,117.711,120.254,123.812,127.7588,130.826,137.942,140.484,143.027,145.569,149.127,151.669,155.73,158.273,160.815,165.9" svgx:width="0.72,0.41,0.5,0.28,0.28,0.28,0.39,0.44,0.55,0.78,0.28,0.28,0.28,0.39,0.28,0.44,0.28,0.28,0.56,0.78" style="fill:rgb(0,0,0);font-family:URWPalladioL-Ital;font-size:8.97px;stroke:none;">Achillea millefolium</text>
   <text y="474.018" x="175.972,179.85,183.728,189.224,191.4665,196.431,202.019,204.68,209.738,215.253,218.865,222.743,227.124,232.447,236.325,238.986,242.7534,245.827,251.15,256.665,261.722,264.009,267.054,275.13,280.124,283.068,285.3105,290.275,295.36,298.817,303.811,311.70459999999997,314.841,317.502,321.115,325.688,330.8906,333.964,337.577,340.238,344.299,349.5016,352.585,355.237,360.43960000000004,363.523,367.584,372.907,377.48,385.556,390.128,394.701,400.216,402.878,407.258,412.581,416.962" svgx:width="0.42,0.42,0.6,0.25,0.55,0.61,0.29,0.55,0.6,0.4,0.42,0.48,0.58,0.42,0.29,0.42,0.55,0.58,0.6,0.55,0.25,0.33,0.88,0.55,0.4,0.25,0.55,0.56,0.4,0.55,0.88,0.55,0.29,0.4,0.5,0.58,0.55,0.4,0.29,0.44,0.58,0.55,0.29,0.58,0.55,0.44,0.58,0.5,0.88,0.5,0.5,0.6,0.29,0.48,0.58,0.48,0.25" style="fill:rgb(0,0,0);font-family:URWPalladioL-Roma;font-size:8.97px;stroke:none;">ssp. Elbursensis hub.-mor. From iran rich in chamazulene.</text>
   <text y="474.018" x="424.169,427.215,429.4575,432.455,438.043,441.601,445.158,448.716,453.801,456.847,459.0895,464.063,471.178,473.721,476.2326,479.217,485.317,488.875,492.433" svgx:width="0.33,0.25,0.55,0.61,0.39,0.39,0.39,0.56,0.33,0.25,0.55,0.78,0.28,0.28,0.55,0.67,0.39,0.39,0.25" style="fill:rgb(0,0,0);font-family:URWPalladioL-Ital;font-size:8.97px;stroke:none;">J. Essent. Oil Res.</text>
   <text y="474.018" x="499.642,504.125,508.608,513.092" svgx:width="0.5,0.5,0.5,0.5" style="fill:rgb(0,0,0);font-family:URWPalladioL-Bold;font-size:8.97px;stroke:none;">2006</text>
   <text y="474.018" x="517.575" svgx:width="0.25" style="fill:rgb(0,0,0);font-family:URWPalladioL-Roma;font-size:8.97px;stroke:none;">,</text>
   <text y="486.93" x="97.602,102.085" svgx:width="0.5,0.5" style="fill:rgb(0,0,0);font-family:URWPalladioL-Ital;font-size:8.97px;stroke:none;">18</text>
   <text y="486.93" x="106.569,108.81150000000001,111.052,115.535,120.019,124.502,128.985,133.468,137.951,142.435,144.6775,147.456" svgx:width="0.25,0.55,0.5,0.5,0.5,0.5,0.5,0.5,0.5,0.25,0.55,0.33" style="fill:rgb(0,0,0);font-family:URWPalladioL-Roma;font-size:8.97px;stroke:none;">, 293–295. [</text>
   <text y="486.93" x="150.442,156.799,160.179,165.075,168.877,172.678,178.668,182.963" svgx:width="0.71,0.4,0.55,0.42,0.42,0.67,0.48,0.33" style="fill:rgb(0,0,255);font-family:URWPalladioL-Roma;font-size:8.97px;stroke:none;">CrossRef</text>
   <text y="486.93" x="185.949" svgx:width="0.33" style="fill:rgb(0,0,0);font-family:URWPalladioL-Roma;font-size:8.97px;stroke:none;">]</text>
   <text y="499.842" x="76.535,81.018,83.26050000000001,98.05,103.545,108.455,112.448,116.756,121.837,125.65,130.651,135.147,137.3895,139.644,148.152,150.4,152.6425,154.897,159.618,164.528,169.61,174.52" svgx:width="0.5,0.25,0.55,0.61,0.55,0.44,0.48,0.56,0.42,0.56,0.5,0.25,0.55,0.95,0.25,0.25,0.55,0.52,0.55,0.56,0.55,0.56" style="fill:rgb(0,0,0);font-family:URWPalladioL-Roma;font-size:8.97px;stroke:none;">9. Bocevska, M.; Sovov</text>
   <text y="499.842" x="179.603" svgx:width="0.5" style="fill:rgb(0,0,0);font-family:VnURWPalladioL;font-size:8.97px;stroke:none;">á</text>
   <text y="499.842" x="184.099,186.3415,188.596,196.078,198.3205,200.575,205.296,210.719,216.124,220.432,223.822,227.815,231.368,233.985,236.917,239.534,243.527,248.023,250.6243,252.889,259.265" svgx:width="0.25,0.55,0.83,0.25,0.55,0.52,0.6,0.6,0.48,0.4,0.44,0.4,0.29,0.33,0.29,0.44,0.5,0.29,0.55,0.71,0.79" style="fill:rgb(0,0,0);font-family:URWPalladioL-Roma;font-size:8.97px;stroke:none;">, H. Supercritical CO</text>
   <text y="501.59" x="266.332" svgx:width="0.5" style="fill:rgb(0,0,0);font-family:URWPalladioL-Roma;font-size:6.97px;stroke:none;">2</text>
   <text y="499.842" x="272.565,276.873,281.513,284.445,287.998,292.494,296.487,299.419,302.036,306.946,312.14860000000004,314.429,319.339,322.2991,324.582,328.89,332.703,336.516,340.824,346.058,348.99,351.607,356.104,358.70529999999997,360.969,365.88,368.497,371.0983,373.362,376.357,379.747,384.658,394.838,399.838,404.335,407.887,411.287,416.197,422.87" svgx:width="0.48,0.52,0.33,0.4,0.5,0.44,0.33,0.29,0.55,0.58,0.55,0.55,0.33,0.55,0.48,0.42,0.42,0.48,0.58,0.33,0.29,0.5,0.29,0.55,0.55,0.29,0.29,0.55,0.33,0.4,0.55,0.88,0.56,0.5,0.4,0.4,0.55,0.83,0.25" style="fill:rgb(0,0,0);font-family:URWPalladioL-Roma;font-size:8.97px;stroke:none;">extraction of essential oil fromyarrow.</text>
   <text y="499.842" x="427.914,430.909,433.1515,435.405,440.406,445.406,449.903,453.401,456.738,460.398,463.896,466.396,469.391,471.6335,474.436,479.437,481.937,486.937,489.437,493.934" svgx:width="0.33,0.25,0.55,0.56,0.56,0.5,0.39,0.39,0.41,0.39,0.28,0.33,0.25,0.55,0.56,0.28,0.56,0.28,0.5,0.39" style="fill:rgb(0,0,0);font-family:URWPalladioL-Ital;font-size:8.97px;stroke:none;">J. Supercrit. Fluids</text>
   <text y="499.842" x="499.68,504.163,508.646,513.13" svgx:width="0.5,0.5,0.5,0.5" style="fill:rgb(0,0,0);font-family:URWPalladioL-Bold;font-size:8.97px;stroke:none;">2007</text>
   <text y="499.842" x="517.613" svgx:width="0.25" style="fill:rgb(0,0,0);font-family:URWPalladioL-Roma;font-size:8.97px;stroke:none;">,</text>
   <text y="512.753" x="97.826,102.309" svgx:width="0.5,0.5" style="fill:rgb(0,0,0);font-family:URWPalladioL-Ital;font-size:8.97px;stroke:none;">40</text>
   <text y="512.753" x="106.793,109.03550000000001,111.276,115.759,120.243,124.726,129.209,133.692,138.175,142.659,144.9015,147.68" svgx:width="0.25,0.55,0.5,0.5,0.5,0.5,0.5,0.5,0.5,0.25,0.55,0.33" style="fill:rgb(0,0,0);font-family:URWPalladioL-Roma;font-size:8.97px;stroke:none;">, 360–367. [</text>
   <text y="512.753" x="150.666,157.023,160.403,165.299,169.101,172.902,178.892,183.187" svgx:width="0.71,0.4,0.55,0.42,0.42,0.67,0.48,0.33" style="fill:rgb(0,0,255);font-family:URWPalladioL-Roma;font-size:8.97px;stroke:none;">CrossRef</text>
   <text y="512.753" x="186.173" svgx:width="0.33" style="fill:rgb(0,0,0);font-family:URWPalladioL-Roma;font-size:8.97px;stroke:none;">]</text>
   <text y="525.665" x="76.535,81.018,85.501,87.74350000000001,98.05,103.135,107.708,110.369,114.43,119.424,124.746,127.408,131.789,135.401,138.063,140.3055,145.498,152.577,154.863,157.1055,163.753,169.277,171.938,175.551,180.124,184.002,186.24450000000002,191.437,198.552,200.839,203.0815,209.729,215.253,220.246,223.694,227.755,232.136,237.724,243.312,247.884,250.1265,255.32,260.121,262.408,264.6505,271.298,279.949,284.522,287.979,292.973,298.296,303.381,306.042,311.557,313.7995,318.992,324.581,326.867,329.1095,335.757,342.735,347.728,353.051,357.112,361.685,364.346,369.513,373.894,377.772,380.0145,385.208,393.859,396.146,399.191,401.478,403.7205,410.367,416.852,421.425,426.482,430.095,434.668,437.329,439.5715,444.765,451.249,453.535,455.77750000000003,462.425,468.909,473.482,478.649,483.222,485.884,490.265,492.926,496.374,501.367,503.6095,508.803,515.287,517.574" svgx:width="0.5,0.5,0.25,0.55,0.56,0.5,0.29,0.44,0.55,0.58,0.29,0.48,0.4,0.29,0.25,0.55,0.77,0.25,0.25,0.55,0.6,0.29,0.4,0.5,0.42,0.25,0.55,0.78,0.25,0.25,0.55,0.6,0.55,0.4,0.44,0.48,0.61,0.61,0.5,0.25,0.55,0.52,0.25,0.25,0.55,0.95,0.5,0.4,0.55,0.58,0.56,0.29,0.6,0.25,0.55,0.61,0.25,0.25,0.55,0.76,0.55,0.58,0.44,0.5,0.29,0.56,0.48,0.42,0.25,0.55,0.95,0.25,0.33,0.25,0.25,0.55,0.71,0.5,0.55,0.4,0.5,0.29,0.25,0.55,0.71,0.25,0.25,0.55,0.71,0.5,0.56,0.5,0.29,0.48,0.29,0.4,0.55,0.25,0.55,0.71,0.25,0.25" style="fill:rgb(0,0,0);font-family:URWPalladioL-Roma;font-size:8.97px;stroke:none;">10. Falconieri, D.; Piras, A.; Porcedda, S.; Marongiu, B.; Goncalves, M.J.; Cabral, C.; Cavaleiro, C.;</text>
   <text y="538.576" x="98.05,102.852,107.424,110.086,115.171,120.686,125.066,127.728,131.176,136.169,138.41150000000002,140.761,146.349,148.5915,150.949,157.433,162.756,167.137,175.213,177.874,181.935,186.507,189.1083,191.474,195.534,200.528,208.604,214.1,219.094,222.971,225.633,228.614,231.276,236.269,241.4716,243.897,248.47,253.793,259.2647,261.685,266.743,269.404,274.398,277.059,282.053,287.138,289.799,293.86,298.433,301.0343,303.399,307.972,312.033,315.014,317.675,322.843,325.504,328.486,333.50919999999996,335.875,340.869,343.82910000000004,346.219,349.201,354.524,358.8296,361.209,366.376,371.37,374.031,378.604,381.586,384.247,386.909,391.2146,393.594,397.975,402.694,405.676,409.288,413.861,417.922,420.903,424.67040000000003,427.086,432.079,435.0391,437.43,442.002,446.063,451.386,454.047,456.709,459.37,463.751,468.236,470.629,478.704,481.366,484.027,486.688,491.069,494.115,499.108,501.77,504.431,509.946,518.022" svgx:width="0.52,0.5,0.29,0.56,0.6,0.48,0.29,0.4,0.55,0.25,0.55,0.61,0.25,0.55,0.71,0.58,0.48,0.88,0.29,0.44,0.5,0.29,0.55,0.44,0.55,0.88,0.6,0.55,0.42,0.29,0.33,0.29,0.55,0.58,0.55,0.5,0.58,0.61,0.55,0.55,0.29,0.55,0.29,0.55,0.56,0.29,0.44,0.5,0.29,0.55,0.5,0.44,0.33,0.29,0.56,0.29,0.33,0.56,0.55,0.55,0.33,0.55,0.33,0.58,0.48,0.55,0.56,0.55,0.29,0.5,0.33,0.29,0.29,0.48,0.55,0.48,0.52,0.33,0.4,0.5,0.44,0.33,0.42,0.55,0.55,0.33,0.55,0.5,0.44,0.58,0.29,0.29,0.29,0.48,0.5,0.55,0.88,0.29,0.29,0.29,0.48,0.33,0.55,0.29,0.29,0.6,0.88,0.25" style="fill:rgb(0,0,0);font-family:URWPalladioL-Roma;font-size:8.97px;stroke:none;">Salgueiro, L. Chemical composition and biological activity of the volatile extracts of achillea millefolium.</text>
   <text y="551.488" x="98.05,105.026,109.007,111.993,114.2355,116.476,121.954,125.281,129.262,133.745,138.731,142.38,145.3401,147.607,153.588,157.569,164.545,171.521,176.506,181.491" svgx:width="0.78,0.44,0.33,0.25,0.55,0.61,0.39,0.44,0.5,0.56,0.41,0.33,0.55,0.67,0.44,0.78,0.78,0.56,0.56,0.25" style="fill:rgb(0,0,0);font-family:URWPalladioL-Ital;font-size:8.97px;stroke:none;">Nat. Product Commun.</text>
   <text y="551.488" x="186.512,190.995,195.478,199.962" svgx:width="0.5,0.5,0.5,0.5" style="fill:rgb(0,0,0);font-family:URWPalladioL-Bold;font-size:8.97px;stroke:none;">2011</text>
   <text y="551.488" x="204.445" svgx:width="0.25" style="fill:rgb(0,0,0);font-family:URWPalladioL-Roma;font-size:8.97px;stroke:none;">,</text>
   <text y="551.488" x="208.928" svgx:width="0.5" style="fill:rgb(0,0,0);font-family:URWPalladioL-Ital;font-size:8.97px;stroke:none;">6</text>
   <text y="551.488" x="213.411,215.6535,217.894,222.377,226.861,231.344,235.827,240.31,244.793,249.277,253.76,258.243" svgx:width="0.25,0.55,0.5,0.5,0.5,0.5,0.5,0.5,0.5,0.5,0.5,0.25" style="fill:rgb(0,0,0);font-family:URWPalladioL-Roma;font-size:8.97px;stroke:none;">, 1527–1530.</text>
   <text y="564.4" x="76.535,81.018,85.501,87.74350000000001,98.05,106.702,111.695,115.756,120.841,126.356,129.338,133.718,135.9605,140.34,147.419,149.705,151.94750000000002,157.369,160.415,165.93,171.518,176.091,180.471,185.794,188.776,191.437,195.818,201.141,205.521,207.7635,212.143,219.258,221.50050000000002,225.88,231.66,236.233,239.845,242.507,247.08,252.137,254.799,257.46,260.121,263.103,268.1262,272.514,277.507,280.4671,284.888,287.87,293.192,297.49760000000003,301.908,306.289,310.167,314.045,318.425,323.748,326.73,329.391,333.964,336.5653,340.961,345.954,348.615,351.277,355.0444,359.49,363.55,368.544,376.62,382.116,387.11,390.988,393.649,396.631,399.292,404.285,409.48760000000004,413.943,418.937" svgx:width="0.5,0.5,0.25,0.55,0.95,0.55,0.44,0.56,0.6,0.33,0.48,0.25,0.55,0.77,0.25,0.25,0.55,0.33,0.6,0.61,0.5,0.48,0.58,0.33,0.29,0.48,0.58,0.48,0.25,0.55,0.78,0.25,0.55,0.72,0.5,0.4,0.29,0.5,0.55,0.29,0.29,0.29,0.33,0.56,0.55,0.55,0.33,0.55,0.33,0.58,0.48,0.55,0.48,0.42,0.42,0.48,0.58,0.33,0.29,0.5,0.29,0.55,0.55,0.29,0.29,0.42,0.55,0.44,0.55,0.88,0.6,0.55,0.42,0.29,0.33,0.29,0.55,0.58,0.55,0.55,0.33" style="fill:rgb(0,0,0);font-family:URWPalladioL-Roma;font-size:8.97px;stroke:none;">11. Mockute, D.; Judzentiene, A. Variability of the essential oils composition of</text>
   <text y="564.4" x="426.313,430.374,434.096,438.669,441.211,443.754,446.296,449.854,453.8008,458.25,465.365,467.908,470.45,472.993,476.55,479.093,483.154,485.696,488.239,493.324" svgx:width="0.44,0.41,0.5,0.28,0.28,0.28,0.39,0.44,0.55,0.78,0.28,0.28,0.28,0.39,0.28,0.44,0.28,0.28,0.56,0.78" style="fill:rgb(0,0,0);font-family:URWPalladioL-Ital;font-size:8.97px;stroke:none;">achillea millefolium</text>
   <text y="564.4" x="504.771,508.649,512.527,518.023" svgx:width="0.42,0.42,0.6,0.25" style="fill:rgb(0,0,0);font-family:URWPalladioL-Roma;font-size:8.97px;stroke:none;">ssp.</text>
   <text y="577.311" x="98.05,105.967,108.577,111.186,113.795,118.09,121.076,125.971,128.581,131.19,136.597,146.755,151.741,155.121,160.017,167.495,170.104,175.322,180.3452,182.549,190.027,192.637,195.246,200.7177,202.966,205.575,210.77759999999998,213.035,215.644,218.254,221.177,226.395,231.802,236.285,241.503,244.113,248.596" svgx:width="0.88,0.29,0.29,0.29,0.48,0.33,0.55,0.29,0.29,0.6,0.88,0.56,0.4,0.55,0.83,0.29,0.58,0.56,0.55,0.83,0.29,0.29,0.61,0.55,0.29,0.58,0.55,0.29,0.29,0.33,0.58,0.6,0.5,0.58,0.29,0.5,0.25" style="fill:rgb(0,0,0);font-family:URWPalladioL-Roma;font-size:8.97px;stroke:none;">millefoliumgrowing wild in lithuania.</text>
   <text y="577.311" x="253.615,259.093,261.586,265.567,269.217,273.7,277.188,284.163,286.4055,289.185,294.17,298.653,302.141,305.127,307.3695,310.148,315.627,319.276,323.257,325.75" svgx:width="0.61,0.28,0.44,0.41,0.5,0.39,0.78,0.25,0.55,0.56,0.5,0.39,0.33,0.25,0.55,0.61,0.41,0.44,0.28,0.25" style="fill:rgb(0,0,0);font-family:URWPalladioL-Ital;font-size:8.97px;stroke:none;">Biochem. Syst. Ecol.</text>
   <text y="577.311" x="330.77,335.253,339.736,344.22" svgx:width="0.5,0.5,0.5,0.5" style="fill:rgb(0,0,0);font-family:URWPalladioL-Bold;font-size:8.97px;stroke:none;">2003</text>
   <text y="577.311" x="348.703" svgx:width="0.25" style="fill:rgb(0,0,0);font-family:URWPalladioL-Roma;font-size:8.97px;stroke:none;">,</text>
   <text y="577.311" x="353.186,357.669" svgx:width="0.5,0.5" style="fill:rgb(0,0,0);font-family:URWPalladioL-Ital;font-size:8.97px;stroke:none;">31</text>
   <text y="577.311" x="362.152,364.3945,366.635,371.118,375.602,380.085,384.568,389.051,393.535,398.018,402.501,406.984,409.2265,412.005" svgx:width="0.25,0.55,0.5,0.5,0.5,0.5,0.5,0.5,0.5,0.5,0.5,0.25,0.55,0.33" style="fill:rgb(0,0,0);font-family:URWPalladioL-Roma;font-size:8.97px;stroke:none;">, 1033–1045. [</text>
   <text y="577.311" x="414.991,421.348,424.729,429.624,433.426,437.228,443.217,447.512" svgx:width="0.71,0.4,0.55,0.42,0.42,0.67,0.48,0.33" style="fill:rgb(0,0,255);font-family:URWPalladioL-Roma;font-size:8.97px;stroke:none;">CrossRef</text>
   <text y="577.311" x="450.498" svgx:width="0.33" style="fill:rgb(0,0,0);font-family:URWPalladioL-Roma;font-size:8.97px;stroke:none;">]</text>
   <text y="590.223" x="76.535,81.018,85.501,87.74350000000001,98.05,105.027,108.533,112.972,116.993,119.2355,121.449,128.355,130.574,132.81650000000002,135.03,141.937,145.443,149.881,154.817,157.0595,159.273,164.697,166.916,169.1585,171.372,177.301,181.74,186.178,188.761,191.0035,193.217,200.124,202.3665,204.58,209.941,215.107,220.043,222.937,227.783,231.725,236.891,241.143,248.981,251.564,255.506,259.944,262.5453,264.764,269.202,274.369,278.807,281.39,286.326,290.089,292.672,296.43940000000003,298.673,303.52,306.4801,308.713,311.606,316.773,321.07860000000005,323.253,327.505,331.268,335.032,339.284,344.45,347.344,349.927,354.366,356.96729999999997,359.186,364.032,366.616,369.21729999999997,371.436,376.282" svgx:width="0.5,0.5,0.25,0.55,0.79,0.4,0.5,0.56,0.25,0.55,0.78,0.25,0.25,0.55,0.78,0.4,0.5,0.56,0.25,0.55,0.61,0.25,0.25,0.55,0.67,0.5,0.5,0.29,0.25,0.55,0.78,0.25,0.55,0.6,0.58,0.56,0.33,0.55,0.44,0.58,0.48,0.88,0.29,0.44,0.5,0.29,0.55,0.5,0.58,0.5,0.29,0.56,0.42,0.29,0.42,0.55,0.55,0.33,0.55,0.33,0.58,0.48,0.55,0.48,0.42,0.42,0.48,0.58,0.33,0.29,0.5,0.29,0.55,0.55,0.29,0.29,0.55,0.55,0.33" style="fill:rgb(0,0,0);font-family:URWPalladioL-Roma;font-size:8.97px;stroke:none;">12. Orav, A.; Arak, E.; Raal, A. Phytochemical analysis of the essential oil of</text>
   <text y="590.223" x="381.477,387.886,391.499,395.937,398.405,400.873,403.34,406.793,410.7398,412.972,419.878,422.346,424.813,427.281,430.734,433.202,437.143,439.611,442.079,447.014" svgx:width="0.72,0.41,0.5,0.28,0.28,0.28,0.39,0.44,0.55,0.78,0.28,0.28,0.28,0.39,0.28,0.44,0.28,0.28,0.56,0.78" style="fill:rgb(0,0,0);font-family:URWPalladioL-Ital;font-size:8.97px;stroke:none;">Achillea millefolium</text>
   <text y="590.223" x="456.154,461.578,463.8205,466.034,470.969,474.316,479.162,489.238,494.253,498.691,502.198,504.781,509.627,514.98" svgx:width="0.61,0.25,0.55,0.56,0.4,0.55,0.88,0.56,0.5,0.4,0.29,0.55,0.6,0.42" style="fill:rgb(0,0,0);font-family:URWPalladioL-Roma;font-size:8.97px;stroke:none;">L. Fromvarious</text>
   <text y="603.134" x="98.05,102.345,107.752,111.132,116.028,121.416,125.711,130.195,135.39759999999998,137.655,141.636,146.531,151.938,157.157,160.08,163.621,166.231,170.525,174.327" svgx:width="0.48,0.6,0.4,0.55,0.6,0.48,0.5,0.58,0.55,0.44,0.55,0.6,0.58,0.33,0.4,0.29,0.48,0.42,0.25" style="fill:rgb(0,0,0);font-family:URWPalladioL-Roma;font-size:8.97px;stroke:none;">european countries.</text>
   <text y="603.134" x="179.348,186.324,190.305,193.291,195.5335,198.312,203.79,207.117,211.098,215.581,220.567,224.216,227.17610000000002,229.443,235.424,238.912,242.4" svgx:width="0.78,0.44,0.33,0.25,0.55,0.61,0.39,0.44,0.5,0.56,0.41,0.33,0.55,0.67,0.39,0.39,0.25" style="fill:rgb(0,0,0);font-family:URWPalladioL-Ital;font-size:8.97px;stroke:none;">Nat. Product Res.</text>
   <text y="603.134" x="247.42,251.903,256.386,260.87" svgx:width="0.5,0.5,0.5,0.5" style="fill:rgb(0,0,0);font-family:URWPalladioL-Bold;font-size:8.97px;stroke:none;">2006</text>
   <text y="603.134" x="265.352" svgx:width="0.25" style="fill:rgb(0,0,0);font-family:URWPalladioL-Roma;font-size:8.97px;stroke:none;">,</text>
   <text y="603.134" x="269.835,274.318" svgx:width="0.5,0.5" style="fill:rgb(0,0,0);font-family:URWPalladioL-Ital;font-size:8.97px;stroke:none;">20</text>
   <text y="603.134" x="278.802,281.0445,283.285,287.768,292.252,296.735,301.218,305.701,310.185,314.668,319.151,323.634,325.8765,328.655" svgx:width="0.25,0.55,0.5,0.5,0.5,0.5,0.5,0.5,0.5,0.5,0.5,0.25,0.55,0.33" style="fill:rgb(0,0,0);font-family:URWPalladioL-Roma;font-size:8.97px;stroke:none;">, 1082–1088. [</text>
   <text y="603.134" x="331.641,337.998,341.379,346.274,350.076,353.878,359.867,364.162" svgx:width="0.71,0.4,0.55,0.42,0.42,0.67,0.48,0.33" style="fill:rgb(0,0,255);font-family:URWPalladioL-Roma;font-size:8.97px;stroke:none;">CrossRef</text>
   <text y="603.134" x="367.148,370.10810000000004,372.375" svgx:width="0.33,0.55,0.33" style="fill:rgb(0,0,0);font-family:URWPalladioL-Roma;font-size:8.97px;stroke:none;">] [</text>
   <text y="603.134" x="375.361,380.777,386.184,391.142,399.624,403.919" svgx:width="0.6,0.6,0.55,0.95,0.48,0.61" style="fill:rgb(0,0,255);font-family:URWPalladioL-Roma;font-size:8.97px;stroke:none;">PubMed</text>
   <text y="603.134" x="409.398" svgx:width="0.33" style="fill:rgb(0,0,0);font-family:URWPalladioL-Roma;font-size:8.97px;stroke:none;">]</text>
   <text y="616.046" x="76.535,81.018,85.501,87.74350000000001,98.05,105.239,108.851,113.424,117.594,119.8365,122.972,130.087,132.374,134.6165,138.172,144.812,149.385,152.046,154.708,159.281,163.158,165.4005,168.527,173.466,175.752,177.99450000000002,181.551,184.633,189.8,194.373,198.251,203.336,205.57850000000002,208.713,215.353,217.59550000000002,220.722,227.206,232.2,240.275,245.772,250.765,254.643,257.305,260.286,262.948,267.941,273.1436,276.355,281.349,284.3091,287.476,290.458,295.781,300.08660000000003,303.253,307.634,311.511,315.389,319.77,325.093,328.074,330.736,335.308,337.9093,341.052,346.046,348.707,351.3083,354.46,357.505,360.953,365.947" svgx:width="0.5,0.5,0.25,0.55,0.79,0.4,0.5,0.56,0.25,0.55,0.78,0.25,0.25,0.55,0.73,0.5,0.29,0.29,0.5,0.42,0.25,0.55,0.61,0.25,0.25,0.55,0.34,0.56,0.5,0.42,0.56,0.25,0.55,0.73,0.25,0.55,0.71,0.55,0.88,0.6,0.55,0.42,0.29,0.33,0.29,0.55,0.58,0.55,0.55,0.33,0.55,0.33,0.58,0.48,0.55,0.48,0.42,0.42,0.48,0.58,0.33,0.29,0.5,0.29,0.55,0.55,0.29,0.29,0.55,0.33,0.4,0.55,0.88" style="fill:rgb(0,0,0);font-family:URWPalladioL-Roma;font-size:8.97px;stroke:none;">13. Orav, A.; Kailas, T.; Ivask, K. Composition of the essential oil from</text>
   <text y="616.046" x="377.112,383.715,387.438,392.01,394.553,397.095,399.638,403.196,407.1428,410.338,417.454,419.996,422.539,425.081,428.639,431.182,435.242,437.785,440.327,445.412" svgx:width="0.72,0.41,0.5,0.28,0.28,0.28,0.39,0.44,0.55,0.78,0.28,0.28,0.28,0.39,0.28,0.44,0.28,0.28,0.56,0.78" style="fill:rgb(0,0,0);font-family:URWPalladioL-Ital;font-size:8.97px;stroke:none;">Achillea millefolium</text>
   <text y="616.046" x="455.618,461.206,463.4485,466.584,469.629,473.077,478.071,485.9646,489.229,493.609,497.487,500.469,505.462,510.785,513.446,518.019" svgx:width="0.61,0.25,0.55,0.33,0.4,0.55,0.88,0.55,0.48,0.42,0.33,0.55,0.58,0.29,0.5,0.25" style="fill:rgb(0,0,0);font-family:URWPalladioL-Roma;font-size:8.97px;stroke:none;">L. from estonia.</text>
   <text y="628.958" x="98.05,101.036,103.27850000000001,105.519,110.997,114.485,117.973,121.461,126.447,129.432,131.6745,134.454,141.429,143.922,146.43359999999998,148.656,154.637,158.125,161.613" svgx:width="0.33,0.25,0.55,0.61,0.39,0.39,0.39,0.56,0.33,0.25,0.55,0.78,0.28,0.28,0.55,0.67,0.39,0.39,0.25" style="fill:rgb(0,0,0);font-family:URWPalladioL-Ital;font-size:8.97px;stroke:none;">J. Essent. Oil Res.</text>
   <text y="628.958" x="166.633,171.116,175.599,180.083" svgx:width="0.5,0.5,0.5,0.5" style="fill:rgb(0,0,0);font-family:URWPalladioL-Bold;font-size:8.97px;stroke:none;">2001</text>
   <text y="628.958" x="184.566" svgx:width="0.25" style="fill:rgb(0,0,0);font-family:URWPalladioL-Roma;font-size:8.97px;stroke:none;">,</text>
   <text y="628.958" x="189.049,193.532" svgx:width="0.5,0.5" style="fill:rgb(0,0,0);font-family:URWPalladioL-Ital;font-size:8.97px;stroke:none;">13</text>
   <text y="628.958" x="198.016,200.2585,202.499,206.982,211.466,215.949,220.432,224.915,229.398,233.882,236.1245,238.903" svgx:width="0.25,0.55,0.5,0.5,0.5,0.5,0.5,0.5,0.5,0.25,0.55,0.33" style="fill:rgb(0,0,0);font-family:URWPalladioL-Roma;font-size:8.97px;stroke:none;">, 290–294. [</text>
   <text y="628.958" x="241.889,248.246,251.626,256.522,260.324,264.125,270.115,274.41" svgx:width="0.71,0.4,0.55,0.42,0.42,0.67,0.48,0.33" style="fill:rgb(0,0,255);font-family:URWPalladioL-Roma;font-size:8.97px;stroke:none;">CrossRef</text>
   <text y="628.958" x="277.396" svgx:width="0.33" style="fill:rgb(0,0,0);font-family:URWPalladioL-Roma;font-size:8.97px;stroke:none;">]</text>
   <text y="641.869" x="76.535,81.018,85.501,87.74350000000001,98.05,102.833,107.827,113.415,118.408,121.856,126.85,132.017,136.59,138.8325,141.657,150.309,152.595,154.8375,157.936,164.576,169.57,174.892,179.465,184.55,188.611,193.934,196.595,200.976,205.146,207.3885,210.213,217.329,219.615,221.85750000000002,224.956,229.749,233.626,238.199,243.522,248.607,253.601,258.768,263.341,265.5835,268.417,274.005,276.2475,279.071,285.556,290.879,295.259,303.335,305.996,310.057,314.63,317.2313,320.072,324.132,329.126,337.202,342.698,347.692,351.57,354.231,357.213,359.874,364.868,370.0706,372.971,377.964,380.9241,383.79,386.772,392.094,396.3996,399.255,403.636,407.514,411.392,415.773,421.095,424.077,426.738,431.311,433.91229999999996,436.753,441.746,444.408,447.069,450.8364,453.727,458.721,461.6811,464.547,467.528,472.851,476.308,480.689,484.99460000000005,487.85,492.423,496.484,501.806,504.468,507.129,509.791,514.172" svgx:width="0.5,0.5,0.25,0.55,0.61,0.55,0.61,0.55,0.4,0.55,0.56,0.5,0.25,0.55,0.95,0.25,0.25,0.55,0.73,0.55,0.58,0.5,0.56,0.44,0.58,0.29,0.48,0.56,0.25,0.55,0.78,0.25,0.25,0.55,0.61,0.42,0.5,0.58,0.56,0.55,0.56,0.5,0.25,0.55,0.61,0.25,0.55,0.71,0.58,0.48,0.88,0.29,0.44,0.5,0.29,0.55,0.44,0.55,0.88,0.6,0.55,0.42,0.29,0.33,0.29,0.55,0.58,0.55,0.55,0.33,0.55,0.33,0.58,0.48,0.55,0.48,0.42,0.42,0.48,0.58,0.33,0.29,0.5,0.29,0.55,0.55,0.29,0.29,0.42,0.55,0.55,0.33,0.55,0.33,0.58,0.4,0.48,0.48,0.55,0.5,0.44,0.58,0.29,0.29,0.29,0.48,0.5" style="fill:rgb(0,0,0);font-family:URWPalladioL-Roma;font-size:8.97px;stroke:none;">14. Todorova, M.; Konakchiev, A.; Tsankova, E. Chemical composition of the essential oils of three achillea</text>
   <text y="654.781" x="98.05,101.852,107.241,111.535,115.517,118.126,122.421,126.1884,128.464,133.449,136.83,141.725,149.203,151.813,157.031,162.0542,164.258,166.867,172.06959999999998,174.327,179.286,184.692,187.302,192.287,196.77,200.312,202.921,207.404" svgx:width="0.42,0.6,0.48,0.44,0.29,0.48,0.42,0.55,0.56,0.4,0.55,0.83,0.29,0.58,0.56,0.55,0.29,0.58,0.55,0.55,0.6,0.29,0.56,0.5,0.4,0.29,0.5,0.25" style="fill:rgb(0,0,0);font-family:URWPalladioL-Roma;font-size:8.97px;stroke:none;">species growing in bulgaria.</text>
   <text y="654.781" x="212.424,219.4,223.381,227.362,229.855,232.0975,234.876,240.354,245.34,247.832,252.316,256.297,258.53950000000003,261.318,267.792,271.773,275.754,280.237,282.47950000000003,285.258,292.234,296.215,301.2,305.181,307.674,310.66" svgx:width="0.78,0.44,0.44,0.28,0.25,0.55,0.61,0.56,0.28,0.5,0.44,0.25,0.55,0.72,0.44,0.44,0.5,0.25,0.55,0.78,0.44,0.56,0.44,0.28,0.33,0.39" style="fill:rgb(0,0,0);font-family:URWPalladioL-Ital;font-size:8.97px;stroke:none;">Dokl. Bulga. Akad. Naukite</text>
   <text y="654.781" x="316.388,320.871,325.354,329.838" svgx:width="0.5,0.5,0.5,0.5" style="fill:rgb(0,0,0);font-family:URWPalladioL-Bold;font-size:8.97px;stroke:none;">2001</text>
   <text y="654.781" x="334.321" svgx:width="0.25" style="fill:rgb(0,0,0);font-family:URWPalladioL-Roma;font-size:8.97px;stroke:none;">,</text>
   <text y="654.781" x="338.804,343.287" svgx:width="0.5,0.5" style="fill:rgb(0,0,0);font-family:URWPalladioL-Ital;font-size:8.97px;stroke:none;">54</text>
   <text y="654.781" x="347.77,350.0125,352.253,356.736,361.22,365.703,370.186,374.669" svgx:width="0.25,0.55,0.5,0.5,0.5,0.5,0.5,0.25" style="fill:rgb(0,0,0);font-family:URWPalladioL-Roma;font-size:8.97px;stroke:none;">, 25–28.</text>
   <text y="667.693" x="76.535,81.018,85.501,87.74350000000001,98.05,105.165,110.753,115.326,123.402,127.28,129.5225,131.853,137.962,140.248,144.62" svgx:width="0.5,0.5,0.25,0.55,0.78,0.61,0.5,0.88,0.42,0.25,0.55,0.67,0.25,0.6,0.25" style="fill:rgb(0,0,0);font-family:URWPalladioL-Roma;font-size:8.97px;stroke:none;">15. Adams, R.P.</text>
   <text y="667.693" x="149.195,152.241,156.813,160.371,165.456,168.502,171.044,175.873,179.595,183.656,186.702,189.244,193.305,198.3282,200.676,204.737,207.24859999999998,209.566,215.154,218.712,222.269,225.827,230.912,233.958,236.5,240.561,243.0726,245.399,252.514,255.057,257.5686,259.886,265.986,270.047,277.162,281.735,285.796,290.881,294.438,299.523,302.569,306.06730000000005,308.413,312.647,317.132,319.516,326.119,330.18,333.67830000000004,336.024,342.124,346.697,350.09,354.151,361.266,365.327,368.372,372.433,377.006,380.564,384.624,389.197,393.77,398.343,401.05,408.165,413.25,417.311,421.884,425.442,430.527,435.1,439.16,441.703,445.20129999999995,447.547,456.181,460.241,463.799,467.29729999999995,469.652,474.737,479.31,482.868,486.59,489.636,493.029,497.089,500.647,504.369,508.43,513.003" svgx:width="0.33,0.5,0.39,0.56,0.33,0.28,0.53,0.41,0.44,0.33,0.28,0.44,0.56,0.55,0.44,0.28,0.55,0.61,0.39,0.39,0.39,0.56,0.33,0.28,0.44,0.28,0.55,0.78,0.28,0.28,0.55,0.67,0.44,0.78,0.5,0.44,0.56,0.39,0.56,0.33,0.39,0.55,0.46,0.5,0.55,0.72,0.44,0.39,0.55,0.67,0.5,0.39,0.44,0.78,0.44,0.33,0.44,0.5,0.39,0.44,0.5,0.5,0.5,0.3,0.78,0.56,0.44,0.5,0.39,0.56,0.5,0.44,0.28,0.39,0.55,0.94,0.44,0.39,0.39,0.55,0.56,0.5,0.39,0.41,0.33,0.39,0.44,0.39,0.41,0.44,0.5,0.5" style="fill:rgb(0,0,0);font-family:URWPalladioL-Ital;font-size:8.97px;stroke:none;">Identiﬁcation of Essential Oil Components by Gas Chromatography/Quadrupole Mass Spectroscopy</text>
   <text y="667.693" x="517.575" svgx:width="0.25" style="fill:rgb(0,0,0);font-family:URWPalladioL-Roma;font-size:8.97px;stroke:none;">,</text>
   <text y="680.604" x="98.05,102.533,105.914,111.3857,113.634,117.929,123.407,125.649,127.89150000000001,130.132,137.108,139.717,142.326,147.733,151.113,155.408,160.87969999999999,163.128,168.544,173.951,178.909,181.518,184.127,187.929,193.148,195.757,200.975,205.9982,208.202,214.559,219.455,222.997,228.386,233.281,236.823,241.306,244.229,246.838,251.734,256.953,259.1955,261.974,268.331,272.814,276.194,281.09,283.69129999999996,285.941,290.648,293.571,296.952,301.247,305.73,313.647,315.8895,318.13,321.152,326.63,328.8725,331.114,338.09,342.797,349.773,352.01550000000003,354.256,358.739,363.222,367.706,372.189" svgx:width="0.5,0.4,0.61,0.55,0.48,0.61,0.25,0.25,0.55,0.78,0.29,0.29,0.6,0.4,0.48,0.61,0.55,0.6,0.6,0.55,0.29,0.29,0.42,0.58,0.29,0.58,0.56,0.55,0.71,0.55,0.4,0.6,0.55,0.4,0.5,0.33,0.29,0.55,0.58,0.25,0.55,0.71,0.5,0.4,0.55,0.29,0.55,0.52,0.33,0.4,0.48,0.5,0.88,0.25,0.55,0.34,0.61,0.25,0.55,0.78,0.52,0.78,0.25,0.55,0.5,0.5,0.5,0.5,0.25" style="fill:rgb(0,0,0);font-family:URWPalladioL-Roma;font-size:8.97px;stroke:none;">3rd ed.; Allured Publishing Corporation: Carol Stream, IL, USA, 2001.</text>
   <text y="693.516" x="76.535,81.018,85.501,87.74350000000001,98.05,104.69,109.683,115.006,120.594,122.734,127.728,132.813,137.386,142.709,144.9515,148.745,156.345,158.631,160.8735,165.436,171.015,175.395,178.853,183.938,189.526,194.098,199.183,204.698,209.079,211.32150000000001,215.115,218.161,220.447,223.493,229.081" svgx:width="0.5,0.5,0.25,0.55,0.73,0.55,0.58,0.61,0.23,0.55,0.56,0.5,0.58,0.25,0.55,0.83,0.25,0.25,0.55,0.61,0.48,0.4,0.56,0.61,0.5,0.56,0.6,0.48,0.25,0.55,0.33,0.25,0.33,0.61,0.25" style="fill:rgb(0,0,0);font-family:URWPalladioL-Roma;font-size:8.97px;stroke:none;">16. Kondjoyan, N.; Bergdague, J.-L.</text>
   <text y="693.516" x="235.123,241.5814,245.476,251.576,255.637,262.752,267.325,269.868,272.41,276.471,279.516,282.059,286.12,291.1432,294.964,299.024,301.5356,305.316,311.417,314.974,317.517,321.578,324.623,327.166,331.738,335.2363,339.046,345.146,348.704,351.749,355.307,360.392,363.438,365.98,370.041,375.06419999999997,378.885,381.93,387.015,391.588,394.131,397.853,401.411,404.90930000000003,408.718,411.261,415.321,418.8193,422.629,425.674,430.247,433.74530000000004,437.564,444.167,449.252,453.313,455.855,460.428,463.986,466.528,470.0263,473.836,477.896,480.4076,484.198,490.801,494.194,498.255,505.37,509.431,512.476,515.019" svgx:width="0.72,0.55,0.67,0.44,0.78,0.5,0.28,0.28,0.44,0.33,0.28,0.44,0.56,0.55,0.44,0.28,0.55,0.67,0.39,0.28,0.44,0.33,0.28,0.5,0.39,0.55,0.67,0.39,0.33,0.39,0.56,0.33,0.28,0.44,0.56,0.55,0.33,0.56,0.5,0.28,0.41,0.39,0.39,0.55,0.28,0.44,0.39,0.55,0.33,0.5,0.39,0.55,0.72,0.56,0.44,0.28,0.5,0.39,0.28,0.39,0.55,0.44,0.28,0.55,0.72,0.39,0.44,0.78,0.44,0.33,0.28,0.41" style="fill:rgb(0,0,0);font-family:URWPalladioL-Ital;font-size:8.97px;stroke:none;">A Compilation of Relative Retention Indices for the Analysis of Aromatic</text>
   <text y="706.427" x="97.755,103.736,107.717,114.693,119.176,123.157,128.142,133.127,137.611" svgx:width="0.67,0.44,0.78,0.5,0.44,0.56,0.56,0.5,0.39" style="fill:rgb(0,0,0);font-family:URWPalladioL-Ital;font-size:8.97px;stroke:none;">Compounds</text>
   <text y="706.427" x="141.098,143.34050000000002,145.581,151.06,155.543,160.501,165.397,168.939,173.422,176.345,181.241,183.85,187.23,191.5356,193.767,198.752,201.361,205.844,210.91,215.205,220.612,224.154,226.3965,229.175,235.532,238.141,242.436,245.978,253.895,258.791,264.009,266.932,269.918,274.904,279.198,282.74,286.282,290.765,295.984,301.462,303.7045,305.945,310.931,314.472,318.956,324.174,328.155,332.45,334.6925,336.933,341.416,345.9,350.383,354.866" svgx:width="0.25,0.55,0.61,0.5,0.55,0.55,0.4,0.5,0.33,0.55,0.29,0.4,0.48,0.55,0.56,0.29,0.5,0.56,0.48,0.6,0.4,0.25,0.55,0.71,0.29,0.48,0.4,0.88,0.55,0.58,0.33,0.33,0.56,0.48,0.4,0.4,0.5,0.58,0.61,0.25,0.55,0.56,0.4,0.5,0.58,0.44,0.48,0.25,0.55,0.5,0.5,0.5,0.5,0.25" style="fill:rgb(0,0,0);font-family:URWPalladioL-Roma;font-size:8.97px;stroke:none;">; Laboratoire Flaveur: Clermont-Ferrand, France, 1996.</text>
   <text y="719.339" x="76.535,81.018,85.501,87.74350000000001,98.05,105.165,110.488,116.076,119.524,123.905,131.533,135.41,137.6525,141.373,149.696,151.9385,155.659,164.311,168.884,174.206,179.721,184.294,186.89530000000002,190.623,195.617,198.5771,202.339,205.384,210.378,215.371,220.8427,224.636,229.758,235.273,239.845,242.507,245.168,248.15,253.1732,256.902,260.963,265.956,271.279,274.261,277.718,282.711,285.373,287.6155,294.729,299.302,301.5445,308.667,314.776,319.157,323.328,325.5705,332.693,337.266,339.5085,346.622,355.274,357.935,361.996,365.453,370.446,375.504,378.165,383.159,385.82,390.814,395.899,398.56,402.621,407.194,409.7953,413.523,418.096,423.418,427.991,430.653,435.738,439.616,442.277,446.155,448.3975,455.52,460.605,465.599,470.592,476.0637,479.857,484.43,489.752,495.2237,499.008,504.596,508.144,513.659" svgx:width="0.5,0.5,0.25,0.55,0.78,0.58,0.61,0.4,0.48,0.83,0.42,0.25,0.55,1.0,0.25,0.55,0.95,0.5,0.58,0.6,0.5,0.29,0.55,0.55,0.33,0.55,0.33,0.55,0.55,0.61,0.55,0.56,0.6,0.5,0.29,0.29,0.33,0.56,0.55,0.44,0.55,0.58,0.33,0.4,0.55,0.29,0.25,0.55,0.5,0.25,0.55,0.67,0.48,0.56,0.25,0.55,0.5,0.25,0.55,0.95,0.29,0.44,0.4,0.55,0.55,0.29,0.55,0.29,0.55,0.56,0.29,0.44,0.5,0.29,0.55,0.5,0.58,0.5,0.29,0.56,0.42,0.29,0.42,0.25,0.55,0.56,0.55,0.55,0.61,0.55,0.5,0.58,0.61,0.55,0.61,0.4,0.6,0.56" style="fill:rgb(0,0,0);font-family:URWPalladioL-Roma;font-size:8.97px;stroke:none;">17. Andrews, W. Manual of food quality control. 4. Rev. 1. Microbiological analysis. Food and drug</text>
   <text y="732.251" x="98.05,102.533,108.012,115.929,118.538,123.757,126.366,130.168,133.091,136.632,141.116,144.039,146.648,151.544,156.762" svgx:width="0.5,0.61,0.88,0.29,0.58,0.29,0.42,0.33,0.4,0.5,0.33,0.29,0.55,0.58,0.25" style="fill:rgb(0,0,0);font-family:URWPalladioL-Roma;font-size:8.97px;stroke:none;">administration.</text>
   <text y="732.251" x="161.783,165.773,172.247,179.24360000000001,181.464,186.45,190.431,194.412,198.89700000000002,201.137,208.112,213.098,216.084,218.908,221.1505,223.929,229.408,233.389,237.872" svgx:width="0.56,0.72,0.78,0.55,0.56,0.44,0.44,0.5,0.55,0.78,0.56,0.33,0.39,0.25,0.55,0.61,0.44,0.5,0.25" style="fill:rgb(0,0,0);font-family:URWPalladioL-Ital;font-size:8.97px;stroke:none;">FAO Food Nutr. Pap.</text>
   <text y="732.251" x="242.892,247.375,251.858,256.342" svgx:width="0.5,0.5,0.5,0.5" style="fill:rgb(0,0,0);font-family:URWPalladioL-Bold;font-size:8.97px;stroke:none;">1992</text>
   <text y="732.251" x="260.825" svgx:width="0.25" style="fill:rgb(0,0,0);font-family:URWPalladioL-Roma;font-size:8.97px;stroke:none;">,</text>
   <text y="732.251" x="265.308,269.791" svgx:width="0.5,0.5" style="fill:rgb(0,0,0);font-family:URWPalladioL-Ital;font-size:8.97px;stroke:none;">14</text>
   <text y="732.251" x="274.274,276.5165,278.757,283.24,287.724,292.207,296.69,301.173,303.4155,306.194" svgx:width="0.25,0.55,0.5,0.5,0.5,0.5,0.5,0.25,0.55,0.33" style="fill:rgb(0,0,0);font-family:URWPalladioL-Roma;font-size:8.97px;stroke:none;">, 1–338. [</text>
   <text y="732.251" x="309.18,314.596,320.003,324.961,333.443,337.738" svgx:width="0.6,0.6,0.55,0.95,0.48,0.61" style="fill:rgb(0,0,255);font-family:URWPalladioL-Roma;font-size:8.97px;stroke:none;">PubMed</text>
   <text y="732.251" x="343.217" svgx:width="0.33" style="fill:rgb(0,0,0);font-family:URWPalladioL-Roma;font-size:8.97px;stroke:none;">]</text>
  </g>
 </g>
</svg>
