<?xml version="1.0" encoding="UTF-8"?>
<svg height="766.34" width="530.3155" xmlns="http://www.w3.org/2000/svg">
 <g id="page" xmlns:svgx="http://www.xml-cml.org/schema/svgx">
  <g begin="text">
   <text y="62.979" x="76.535,79.189,83.62,86.274,88.26650000000001,90.738,93.392,95.3845,97.377,102.247,106.678,110.663,112.879,115.836,119.374,123.806,125.7985,128.269,133.585,136.685,139.786,141.7785,144.249,149.119,153.55,157.24,159.456,161.672,164.9397,166.908,173.109,176.209,179.748,181.964,184.618" svgx:width="0.33,0.56,0.33,0.25,0.55,0.33,0.25,0.55,0.61,0.56,0.5,0.28,0.39,0.44,0.56,0.25,0.55,0.67,0.39,0.39,0.25,0.55,0.61,0.56,0.46,0.28,0.28,0.41,0.55,0.78,0.39,0.44,0.28,0.33,0.5" style="fill:rgb(0,0,0);font-family:URWPalladioL-Ital;font-size:7.97px;stroke:none;">Int. J. Environ. Res. Public Health</text>
   <text y="62.979" x="192.587,196.572,200.557,204.542" svgx:width="0.5,0.5,0.5,0.5" style="fill:rgb(0,0,0);font-family:URWPalladioL-Bold;font-size:7.97px;stroke:none;">2018</text>
   <text y="62.979" x="208.527" svgx:width="0.25" style="fill:rgb(0,0,0);font-family:URWPalladioL-Roma;font-size:7.97px;stroke:none;">,</text>
   <text y="62.979" x="212.512,216.497" svgx:width="0.5,0.5" style="fill:rgb(0,0,0);font-family:URWPalladioL-Ital;font-size:7.97px;stroke:none;">15</text>
   <text y="62.979" x="220.482,222.4745,224.467,228.452,232.437,236.42200000000003,495.793,499.778,501.771,506.122,508.75210000000004,510.769,514.754" svgx:width="0.25,0.55,0.5,0.5,0.5,0.55,0.5,0.55,0.55,0.33,0.55,0.5,0.5" style="fill:rgb(0,0,0);font-family:URWPalladioL-Roma;font-size:7.97px;stroke:none;">, 388 9 of 10</text>
   <text y="97.848" x="76.535,81.018,85.501,87.74350000000001,98.05,104.956,112.794,117.046,119.887,122.12950000000001,124.343,131.249,133.468,135.7105,137.915,146.313,150.565,155.731,158.314,163.48,168.327,171.833,177.0,179.2425,181.456,188.841,191.08350000000002,193.288,198.712,203.151,206.657,211.672,214.255,218.197,220.78,226.203,230.642,233.2433,235.453,239.705,242.501,245.457,249.709,253.65,256.544,260.3114,262.545,267.391,270.35110000000003,272.576,277.591,282.029,285.536,288.119,292.965,298.318,302.0854,304.319,308.571,312.334,316.098,320.35,325.516,328.41,330.993,335.432,338.0333,340.243,345.09,347.673,350.256,354.0234,356.248,360.686,365.621,370.06,372.643,377.809,381.573" svgx:width="0.5,0.5,0.25,0.55,0.78,0.88,0.48,0.4,0.25,0.55,0.78,0.25,0.25,0.55,0.95,0.48,0.58,0.29,0.58,0.55,0.4,0.58,0.25,0.55,0.83,0.25,0.55,0.61,0.5,0.4,0.56,0.29,0.44,0.29,0.61,0.5,0.29,0.55,0.48,0.33,0.33,0.48,0.44,0.33,0.42,0.55,0.55,0.33,0.55,0.56,0.5,0.4,0.29,0.55,0.6,0.42,0.55,0.48,0.42,0.42,0.48,0.58,0.33,0.29,0.5,0.29,0.55,0.55,0.29,0.29,0.42,0.55,0.5,0.56,0.5,0.29,0.58,0.42,0.33" style="fill:rgb(0,0,0);font-family:URWPalladioL-Roma;font-size:8.97px;stroke:none;">26. Amer, A.; Mehlhorn, H. Larvicidal effects of various essential oils against</text>
   <text y="97.848" x="386.7,393.109,396.562,401.0,404.453,407.907,410.1495,412.363,418.772,423.707,427.648,432.087,436.525,439.978,442.446,445.899" svgx:width="0.72,0.39,0.5,0.39,0.39,0.25,0.55,0.72,0.56,0.44,0.5,0.5,0.39,0.28,0.39,0.39" style="fill:rgb(0,0,0);font-family:URWPalladioL-Ital;font-size:8.97px;stroke:none;">Aedes, Anopheles</text>
   <text y="97.848" x="449.348,451.5905,453.804,458.242,463.409" svgx:width="0.25,0.55,0.5,0.58,0.61" style="fill:rgb(0,0,0);font-family:URWPalladioL-Roma;font-size:8.97px;stroke:none;">, and</text>
   <text y="97.848" x="471.061,476.982,481.917,484.385,487.838" svgx:width="0.67,0.56,0.28,0.39,0.5" style="fill:rgb(0,0,0);font-family:URWPalladioL-Ital;font-size:8.97px;stroke:none;">Culex</text>
   <text y="97.848" x="494.507,497.09,501.528,505.035,510.05,514.489" svgx:width="0.29,0.5,0.4,0.56,0.5,0.48" style="fill:rgb(0,0,0);font-family:URWPalladioL-Roma;font-size:8.97px;stroke:none;">larvae</text>
   <text y="110.76" x="97.755,100.741,107.681,110.29,115.679,118.602,122.897,126.439,130.922,133.1645,135.943,142.3,147.707,150.316,152.925,156.906,159.516,164.994,169.477,173.772,176.758" svgx:width="0.33,0.77,0.29,0.6,0.33,0.48,0.4,0.5,0.25,0.55,0.71,0.6,0.29,0.29,0.44,0.29,0.61,0.5,0.48,0.33,0.25" style="fill:rgb(0,0,0);font-family:URWPalladioL-Roma;font-size:8.97px;stroke:none;">(Diptera: Culicidae).</text>
   <text y="110.76" x="181.777,187.255,191.237,194.724,198.706,202.193,204.686,207.672,211.653,214.16459999999998,216.387,222.368,225.856,229.344" svgx:width="0.61,0.44,0.39,0.44,0.39,0.28,0.33,0.44,0.28,0.55,0.67,0.39,0.39,0.25" style="fill:rgb(0,0,0);font-family:URWPalladioL-Ital;font-size:8.97px;stroke:none;">Parasitol Res.</text>
   <text y="110.76" x="234.364,238.847,243.33,247.814" svgx:width="0.5,0.5,0.5,0.5" style="fill:rgb(0,0,0);font-family:URWPalladioL-Bold;font-size:8.97px;stroke:none;">2006</text>
   <text y="110.76" x="252.297" svgx:width="0.25" style="fill:rgb(0,0,0);font-family:URWPalladioL-Roma;font-size:8.97px;stroke:none;">,</text>
   <text y="110.76" x="256.78,261.263" svgx:width="0.5,0.5" style="fill:rgb(0,0,0);font-family:URWPalladioL-Ital;font-size:8.97px;stroke:none;">99</text>
   <text y="110.76" x="265.747,267.9895,270.23,274.713,279.197,283.68,288.163,292.646,297.13,301.613,303.8555,306.634" svgx:width="0.25,0.55,0.5,0.5,0.5,0.5,0.5,0.5,0.5,0.25,0.55,0.33" style="fill:rgb(0,0,0);font-family:URWPalladioL-Roma;font-size:8.97px;stroke:none;">, 466–472. [</text>
   <text y="110.76" x="309.62,315.977,319.357,324.253,328.055,331.856,337.846,342.141" svgx:width="0.71,0.4,0.55,0.42,0.42,0.67,0.48,0.33" style="fill:rgb(8,117,183);font-family:URWPalladioL-Roma;font-size:8.97px;stroke:none;">CrossRef</text>
   <text y="110.76" x="345.127,348.0871,350.354" svgx:width="0.33,0.55,0.33" style="fill:rgb(0,0,0);font-family:URWPalladioL-Roma;font-size:8.97px;stroke:none;">] [</text>
   <text y="110.76" x="353.34,358.756,364.162,369.121,377.603,381.898" svgx:width="0.6,0.6,0.55,0.95,0.48,0.61" style="fill:rgb(8,117,183);font-family:URWPalladioL-Roma;font-size:8.97px;stroke:none;">PubMed</text>
   <text y="110.76" x="387.376" svgx:width="0.33" style="fill:rgb(0,0,0);font-family:URWPalladioL-Roma;font-size:8.97px;stroke:none;">]</text>
   <text y="123.672" x="76.535,81.018,85.501,87.74350000000001,98.05,104.429,109.227,112.953,117.162,119.40450000000001,121.608,126.476,128.673,134.042,136.239,138.4815,140.685,143.646,147.372,151.273,155.667,160.781,163.0235,165.227,171.932,174.128,176.3705,178.583,185.385,189.594,197.353,199.91,203.214,207.115,209.672,211.9145,214.118,219.487,221.7295,223.934,230.77,235.884,238.749,241.306,249.065,251.622,255.523,258.836,263.634,268.493,271.05,275.443,278.04429999999996,280.25,287.086,290.988,293.852,296.409,301.374,303.931,306.796,311.81919999999997,313.931,318.728,321.6881,323.904,326.769,331.883,336.1886,338.341,343.71,347.436,351.161,355.371,360.485,363.349,365.906,370.3,372.9013,375.106,382.013,384.57,387.127,390.8944,393.102,400.009,404.868,407.733,412.126,414.683,419.797,424.006,429.47769999999997,431.625,434.551,437.855,442.652,452.661,457.547,460.104,464.901,472.23,476.439,479.91,482.467,487.581,492.6042,494.716,501.552,505.761,509.232,511.789,516.183" svgx:width="0.5,0.5,0.25,0.55,0.73,0.55,0.42,0.48,0.25,0.55,0.67,0.25,0.61,0.25,0.25,0.55,0.34,0.42,0.44,0.5,0.58,0.25,0.55,0.76,0.25,0.25,0.55,0.77,0.48,0.88,0.29,0.4,0.44,0.29,0.25,0.55,0.61,0.25,0.55,0.78,0.58,0.33,0.29,0.88,0.29,0.44,0.4,0.55,0.55,0.29,0.5,0.29,0.55,0.78,0.44,0.33,0.29,0.56,0.29,0.33,0.56,0.55,0.55,0.33,0.55,0.33,0.58,0.48,0.55,0.61,0.42,0.42,0.48,0.58,0.33,0.29,0.5,0.29,0.55,0.79,0.29,0.29,0.42,0.55,0.79,0.55,0.33,0.5,0.29,0.58,0.48,0.61,0.55,0.33,0.4,0.55,0.88,0.56,0.29,0.55,0.83,0.48,0.4,0.29,0.58,0.56,0.55,0.78,0.48,0.4,0.29,0.5,0.29" style="fill:rgb(0,0,0);font-family:URWPalladioL-Roma;font-size:8.97px;stroke:none;">27. Köse, Y.B.; Iscan, G.; Demirci, B. Antimicrobial Activity of the Essential Oils Obtained fromFlowering Aerial</text>
   <text y="136.583" x="98.05,103.509,108.028,111.598,114.545,118.3124,120.627,125.562,128.5221,130.822,137.23,141.56,146.82,149.766,154.285,159.735,163.143,167.472,171.95700000000002,174.241,176.872,181.897,185.91,190.844,196.276,198.907,201.916,206.851,209.481,212.111,216.596,218.872,224.394,229.329,231.959,235.791,239.623,241.8655,244.694,249.023,251.9831,254.211,260.772,265.707,268.654,272.486,276.499,281.759,286.7822,289.035,293.554,298.814,304.2857,306.587,312.995,317.324,322.584,325.531,330.05,335.5,338.907,343.236,347.721,350.006,354.019,359.279,363.608,366.238,369.646,374.581,377.211,382.146,387.577,392.838,397.32300000000004,399.607,402.617,407.642,411.971,417.232,421.751,424.381,427.3411,429.641,437.848,442.367,447.392,451.721,456.981,459.611,462.558,467.043,469.327,472.337,475.744,480.679,490.91,495.646,501.096,504.667,509.692,514.021,518.052" svgx:width="0.6,0.5,0.4,0.33,0.42,0.55,0.55,0.33,0.55,0.71,0.48,0.58,0.33,0.5,0.6,0.4,0.48,0.5,0.55,0.29,0.56,0.44,0.55,0.6,0.29,0.33,0.55,0.29,0.29,0.5,0.55,0.61,0.55,0.29,0.42,0.42,0.25,0.55,0.48,0.33,0.55,0.73,0.55,0.33,0.42,0.44,0.58,0.56,0.55,0.5,0.58,0.61,0.55,0.71,0.48,0.58,0.33,0.5,0.6,0.4,0.48,0.5,0.55,0.44,0.58,0.48,0.29,0.4,0.55,0.29,0.55,0.6,0.58,0.5,0.55,0.33,0.56,0.48,0.58,0.5,0.29,0.33,0.55,1.0,0.5,0.56,0.48,0.58,0.29,0.33,0.5,0.55,0.33,0.4,0.55,0.88,0.61,0.6,0.4,0.56,0.48,0.56,0.25" style="fill:rgb(0,0,0);font-family:URWPalladioL-Roma;font-size:8.97px;stroke:none;">Parts of Centaurea lycopifolia Boiss. et Kotschy and Centaurea cheirolopha (Fenzl) Wagenitz fromTurkey.</text>
   <text y="149.495" x="98.05,101.036,103.27850000000001,105.519,110.997,114.485,117.973,121.461,126.447,128.6895,131.468,138.444,140.936,143.429,145.6715,148.45,153.929,157.417,161.398,164.222,166.46450000000002,169.243,174.722,177.214,181.195,186.181,189.167,192.655" svgx:width="0.33,0.25,0.55,0.61,0.39,0.39,0.39,0.56,0.25,0.55,0.78,0.28,0.28,0.25,0.55,0.61,0.39,0.44,0.39,0.25,0.55,0.61,0.28,0.44,0.56,0.33,0.39,0.25" style="fill:rgb(0,0,0);font-family:URWPalladioL-Ital;font-size:8.97px;stroke:none;">J. Essen. Oil. Bear. Plants.</text>
   <text y="149.495" x="197.674,202.157,206.64,211.124" svgx:width="0.5,0.5,0.5,0.5" style="fill:rgb(0,0,0);font-family:URWPalladioL-Bold;font-size:8.97px;stroke:none;">2016</text>
   <text y="149.495" x="215.607,217.8495,220.628" svgx:width="0.25,0.55,0.33" style="fill:rgb(0,0,0);font-family:URWPalladioL-Roma;font-size:8.97px;stroke:none;">. [</text>
   <text y="149.495" x="223.614,229.971,233.352,238.247,242.049,245.851,251.84,256.135" svgx:width="0.71,0.4,0.55,0.42,0.42,0.67,0.48,0.33" style="fill:rgb(8,117,183);font-family:URWPalladioL-Roma;font-size:8.97px;stroke:none;">CrossRef</text>
   <text y="149.495" x="259.121" svgx:width="0.33" style="fill:rgb(0,0,0);font-family:URWPalladioL-Roma;font-size:8.97px;stroke:none;">]</text>
   <text y="162.406" x="76.535,81.018,85.501,87.74350000000001,98.05,104.401,109.614,114.093,119.494,124.448,128.926,131.533,133.7755,136.03,142.013,144.252,146.49450000000002,148.749,154.159,158.638,166.109,170.587,173.463,175.7055,177.959,182.214,184.453,189.756,191.996,194.23850000000002,196.501,203.954,208.244,213.198,218.151,222.63,225.237,230.217,234.696,237.571,239.8135,242.059,248.893,251.133,258.066,260.305,262.5475,264.811,269.495,274.897,280.11,285.09,287.697,292.677,297.156,300.022,302.2645,304.519,309.831,312.07,317.543,319.782,322.0245,324.279,329.689,335.091,338.629,343.107,348.321,350.927,355.908,358.1505,360.404,365.716,367.955,374.79,377.029,379.2715,381.526,388.459,392.75,396.547,401.761,407.144,411.623,416.836,422.309,426.6,428.84250000000003,431.096,436.408,438.647,446.1,448.339,450.5815,452.836,459.769,464.06,467.858,473.071,478.454,482.933,488.146,493.619,497.91,500.15250000000003,502.406,509.85,512.089,518.073" svgx:width="0.5,0.5,0.25,0.55,0.71,0.58,0.5,0.6,0.55,0.5,0.29,0.25,0.55,0.67,0.25,0.25,0.55,0.6,0.5,0.83,0.5,0.4,0.25,0.55,0.6,0.25,0.72,0.25,0.25,0.55,0.83,0.48,0.55,0.55,0.5,0.29,0.56,0.5,0.4,0.25,0.55,0.76,0.25,0.77,0.25,0.25,0.55,0.61,0.6,0.58,0.56,0.29,0.56,0.5,0.4,0.25,0.55,0.72,0.25,0.61,0.25,0.25,0.55,0.6,0.6,0.4,0.5,0.58,0.29,0.56,0.25,0.55,0.72,0.25,0.76,0.25,0.25,0.55,0.77,0.48,0.42,0.58,0.6,0.5,0.58,0.61,0.48,0.25,0.55,0.72,0.25,0.83,0.25,0.25,0.55,0.77,0.48,0.42,0.58,0.6,0.5,0.58,0.61,0.48,0.25,0.55,0.83,0.25,0.67,0.25" style="fill:rgb(0,0,0);font-family:URWPalladioL-Roma;font-size:8.97px;stroke:none;">28. Chaubal, R.; Pawar, P.V.; Hebbalkar, G.D.; Tungikar, V.B.; Puranik, V.G.; Deshpande, V.H.; Deshpande, N.R.</text>
   <text y="175.318" x="98.05,103.638,108.211,111.823,116.991,119.652,123.713,126.374,131.962,136.535,139.1363,143.952,148.525,152.586,155.567,158.229,163.396,166.058,169.039,174.0622,178.871,183.864" svgx:width="0.61,0.5,0.4,0.56,0.29,0.44,0.29,0.61,0.5,0.29,0.55,0.5,0.44,0.33,0.29,0.56,0.29,0.33,0.56,0.55,0.55,0.33" style="fill:rgb(0,0,0);font-family:URWPalladioL-Roma;font-size:8.97px;stroke:none;">Larvicidal activity of</text>
   <text y="175.318" x="191.667,198.27,201.993,206.053,209.776,212.318,216.2648,221.135,226.22,228.762,231.305,235.365,238.411,240.953,244.676" svgx:width="0.72,0.41,0.44,0.41,0.28,0.44,0.55,0.56,0.28,0.28,0.44,0.33,0.28,0.41,0.44" style="fill:rgb(0,0,0);font-family:URWPalladioL-Ital;font-size:8.97px;stroke:none;">Acacia nilotica</text>
   <text y="175.318" x="253.486,257.867,262.586,265.568,269.18,273.753,277.814,280.795,284.5624,289.429,294.002,299.324,304.7957,309.659,312.32,316.198,321.192,323.853,328.426,331.408,334.069,339.063,344.2656,349.141,354.135,357.0951,361.936,369.015,372.06,377.557,380.218,385.541,388.203,391.184,396.178,398.839,407.985,411.03,418.0266,422.892,427.95,430.611,435.605,440.178,444.238,447.22,449.881,455.049,459.3546,464.185,468.246,472.819,476.431,481.489,486.483,491.805,496.89,502.478,506.091,510.664,513.645,518.026" svgx:width="0.48,0.52,0.33,0.4,0.5,0.44,0.33,0.42,0.55,0.5,0.58,0.61,0.55,0.29,0.42,0.55,0.29,0.5,0.33,0.29,0.55,0.58,0.55,0.55,0.33,0.55,0.77,0.33,0.6,0.29,0.58,0.29,0.33,0.55,0.29,1.0,0.33,0.78,0.55,0.55,0.29,0.55,0.5,0.44,0.33,0.29,0.56,0.48,0.55,0.44,0.5,0.4,0.55,0.55,0.58,0.56,0.61,0.4,0.5,0.33,0.48,0.25" style="fill:rgb(0,0,0);font-family:URWPalladioL-Roma;font-size:8.97px;stroke:none;">extracts and isolation of D-pinitol—-A bioactive carbohydrate.</text>
   <text y="188.23" x="97.755,103.736,108.219,111.707,118.683,120.92550000000001,123.166,128.644,131.137,135.118,139.601,142.094,146.577,150.065,153.553,157.041" svgx:width="0.67,0.5,0.39,0.78,0.25,0.55,0.61,0.28,0.44,0.5,0.28,0.5,0.39,0.39,0.39,0.25" style="fill:rgb(0,0,0);font-family:URWPalladioL-Ital;font-size:8.97px;stroke:none;">Chem. Biodivers.</text>
   <text y="188.23" x="162.061,166.544,171.027,175.511" svgx:width="0.5,0.5,0.5,0.5" style="fill:rgb(0,0,0);font-family:URWPalladioL-Bold;font-size:8.97px;stroke:none;">2005</text>
   <text y="188.23" x="179.993" svgx:width="0.25" style="fill:rgb(0,0,0);font-family:URWPalladioL-Roma;font-size:8.97px;stroke:none;">,</text>
   <text y="188.23" x="184.477" svgx:width="0.5" style="fill:rgb(0,0,0);font-family:URWPalladioL-Ital;font-size:8.97px;stroke:none;">2</text>
   <text y="188.23" x="188.96,191.20250000000001,193.443,197.926,202.41,206.893,211.376,215.859,220.342,224.826,227.0685,229.847" svgx:width="0.25,0.55,0.5,0.5,0.5,0.5,0.5,0.5,0.5,0.25,0.55,0.33" style="fill:rgb(0,0,0);font-family:URWPalladioL-Roma;font-size:8.97px;stroke:none;">, 684–688. [</text>
   <text y="188.23" x="232.833,239.19,242.57,247.466,251.268,255.069,261.059,265.354" svgx:width="0.71,0.4,0.55,0.42,0.42,0.67,0.48,0.33" style="fill:rgb(8,117,183);font-family:URWPalladioL-Roma;font-size:8.97px;stroke:none;">CrossRef</text>
   <text y="188.23" x="268.34,271.3001,273.567" svgx:width="0.33,0.55,0.33" style="fill:rgb(0,0,0);font-family:URWPalladioL-Roma;font-size:8.97px;stroke:none;">] [</text>
   <text y="188.23" x="276.553,281.968,287.375,292.334,300.816,305.111" svgx:width="0.6,0.6,0.55,0.95,0.48,0.61" style="fill:rgb(8,117,183);font-family:URWPalladioL-Roma;font-size:8.97px;stroke:none;">PubMed</text>
   <text y="188.23" x="310.589" svgx:width="0.33" style="fill:rgb(0,0,0);font-family:URWPalladioL-Roma;font-size:8.97px;stroke:none;">]</text>
   <text y="201.141" x="76.535,81.018,85.501,87.74350000000001,98.05,104.15,108.723,111.384,114.366,119.36,124.874,130.197,132.4395,135.044,142.16,144.446,151.562,153.848,156.09050000000002,158.86,167.512,172.085,177.673,182.758,187.751,193.266,196.211,198.45350000000002,201.058,209.71,211.997,219.606,221.892,224.1345,226.904,231.706,237.029,241.601,249.677,253.765,256.0075,258.612,267.264,269.551,274.654,276.8965,279.501,285.089,287.97,291.016,295.397,299.457,302.4171,305.0,309.993,312.9531,315.599,318.581,323.904,327.352,331.733,336.03860000000003,338.674,344.171,346.832,351.405,356.728,359.709,363.4764,366.157,370.529,375.248,378.229,381.842,386.415,390.475,393.457,397.2244,399.905,404.889,410.0916,412.782,416.66,421.653,429.729,434.0346,436.671,441.728,446.301,450.362,453.343,457.724,461.337,463.998,468.571,471.1723,473.793,477.671,480.652,484.265,488.838,491.499,496.822,500.5894,503.26,507.833,513.156" svgx:width="0.5,0.5,0.25,0.55,0.67,0.5,0.29,0.33,0.55,0.6,0.58,0.25,0.55,0.78,0.25,0.78,0.25,0.25,0.55,0.95,0.5,0.61,0.56,0.55,0.6,0.4,0.25,0.55,0.95,0.25,0.83,0.25,0.25,0.55,0.52,0.58,0.5,0.88,0.56,0.25,0.55,0.95,0.25,0.67,0.25,0.55,0.61,0.33,0.33,0.48,0.44,0.33,0.55,0.55,0.33,0.55,0.33,0.58,0.4,0.48,0.48,0.55,0.6,0.29,0.5,0.58,0.33,0.42,0.55,0.48,0.52,0.33,0.4,0.5,0.44,0.33,0.42,0.55,0.55,0.58,0.55,0.42,0.55,0.88,0.48,0.55,0.55,0.5,0.44,0.33,0.48,0.4,0.29,0.5,0.29,0.55,0.42,0.33,0.4,0.5,0.29,0.58,0.42,0.55,0.5,0.58,0.61" style="fill:rgb(0,0,0);font-family:URWPalladioL-Roma;font-size:8.97px;stroke:none;">29. Zaitoun, A.A.; Madkour, M.H.; Shamy, M.Y. Effect of three plants extracts on some bacterial strains and</text>
   <text y="214.053" x="97.755,103.736,108.721,111.214,114.701,119.18599999999999,121.426,125.91,128.402,132.885,135.378,138.866,143.851,146.344" svgx:width="0.67,0.56,0.28,0.39,0.5,0.55,0.5,0.28,0.5,0.28,0.39,0.56,0.28,0.39" style="fill:rgb(0,0,0);font-family:URWPalladioL-Ital;font-size:8.97px;stroke:none;">Culex pipienis</text>
   <text y="214.053" x="152.072,157.55,159.79250000000002,162.034,165.835,168.758,173.242,178.227,182.522,186.324" svgx:width="0.61,0.25,0.55,0.42,0.33,0.5,0.56,0.48,0.42,0.25" style="fill:rgb(0,0,0);font-family:URWPalladioL-Roma;font-size:8.97px;stroke:none;">L. stages.</text>
   <text y="214.053" x="191.344,194.33,196.57250000000002,198.813,204.291,209.277,213.76,216.0025,218.781,223.767,227.416,229.909,232.1515,234.93,239.413,242.901,246.55,251.033,256.019,260.0,262.492" svgx:width="0.33,0.25,0.55,0.61,0.56,0.5,0.25,0.55,0.56,0.41,0.28,0.25,0.55,0.61,0.39,0.41,0.5,0.56,0.44,0.28,0.25" style="fill:rgb(0,0,0);font-family:URWPalladioL-Ital;font-size:8.97px;stroke:none;">J. Eng. Sci. Technol.</text>
   <text y="214.053" x="267.513,271.996,276.479,280.963" svgx:width="0.5,0.5,0.5,0.5" style="fill:rgb(0,0,0);font-family:URWPalladioL-Bold;font-size:8.97px;stroke:none;">2012</text>
   <text y="214.053" x="285.446" svgx:width="0.25" style="fill:rgb(0,0,0);font-family:URWPalladioL-Roma;font-size:8.97px;stroke:none;">,</text>
   <text y="214.053" x="289.929" svgx:width="0.5" style="fill:rgb(0,0,0);font-family:URWPalladioL-Ital;font-size:8.97px;stroke:none;">5</text>
   <text y="214.053" x="294.412,296.6545,298.895,303.378,307.862,312.345,316.828,321.311" svgx:width="0.25,0.55,0.5,0.5,0.5,0.5,0.5,0.25" style="fill:rgb(0,0,0);font-family:URWPalladioL-Roma;font-size:8.97px;stroke:none;">, 54–63.</text>
   <text y="226.964" x="76.535,81.018,85.501,87.74350000000001,98.05,102.762,107.061,112.285,115.211,120.435,123.046,125.658,128.647,136.106,140.593,143.519,148.743,153.231,158.454,160.69650000000001,162.933,167.645,169.88750000000002,172.124,177.626,182.849,187.1546,189.383,194.795,198.601,202.9066,205.135,210.036" svgx:width="0.5,0.5,0.25,0.55,0.52,0.48,0.58,0.33,0.58,0.29,0.29,0.33,0.83,0.5,0.33,0.58,0.5,0.58,0.25,0.55,0.52,0.25,0.55,0.61,0.58,0.48,0.55,0.6,0.42,0.48,0.55,0.55,0.33" style="fill:rgb(0,0,0);font-family:URWPalladioL-Roma;font-size:8.97px;stroke:none;">30. Senthil-Nathan, S. The use of</text>
   <text y="226.964" x="215.261,220.745,225.735,229.388,233.373,235.868,240.356,244.844,247.833,252.823,256.3213,258.549,261.538,265.029,268.359,271.851,274.84,277.335,280.988,284.973,288.464,293.454,295.95" svgx:width="0.61,0.56,0.41,0.44,0.28,0.5,0.5,0.33,0.56,0.39,0.55,0.33,0.39,0.39,0.39,0.33,0.28,0.41,0.44,0.39,0.56,0.28,0.39" style="fill:rgb(0,0,0);font-family:URWPalladioL-Ital;font-size:8.97px;stroke:none;">Eucalyptus tereticornis</text>
   <text y="226.964" x="301.675,306.387,314.312,316.5545,319.33,322.318,330.809,335.799,339.345,342.271,346.758,350.743,355.042,359.53,363.829,366.7891,369.053,373.954,376.565,379.1663,381.421,384.401,387.013,391.312,395.8,398.7601,401.032,405.331,409.963,412.889,416.425,420.913,424.898,427.824,430.7841,433.056,437.544,441.3114,443.584,448.069,450.307,455.531,460.018,462.944,468.356,471.902,476.389,478.9903,481.236,483.848,488.335,491.881,496.952,499.564,503.549,506.161,511.644,516.132" svgx:width="0.52,0.88,0.25,0.55,0.33,0.95,0.56,0.4,0.33,0.5,0.44,0.48,0.5,0.48,0.33,0.55,0.55,0.29,0.29,0.55,0.33,0.29,0.48,0.5,0.33,0.55,0.48,0.52,0.33,0.4,0.5,0.44,0.33,0.33,0.55,0.5,0.42,0.55,0.5,0.55,0.58,0.5,0.33,0.6,0.4,0.5,0.29,0.55,0.29,0.5,0.4,0.56,0.29,0.44,0.29,0.61,0.5,0.29" style="fill:rgb(0,0,0);font-family:URWPalladioL-Roma;font-size:8.97px;stroke:none;">Sm. (Myrtaceae) oil (leaf extract) as a natural larvicidal</text>
   <text y="239.876" x="98.05,102.547,107.547,111.855,117.089,120.0491,122.269,126.766,131.766,136.263,138.88,144.114,147.927,150.8871,153.107,156.039,161.273,165.5786,167.829,175.77,180.267,182.884,187.38,190.933,193.55,198.03500000000003,200.295,205.376,209.684,213.677,216.609,221.51" svgx:width="0.5,0.56,0.48,0.58,0.33,0.55,0.5,0.56,0.5,0.29,0.58,0.42,0.33,0.55,0.33,0.58,0.48,0.55,0.88,0.5,0.29,0.5,0.4,0.29,0.5,0.55,0.56,0.48,0.44,0.33,0.55,0.4" style="fill:rgb(0,0,0);font-family:URWPalladioL-Roma;font-size:8.97px;stroke:none;">agent against the malaria vector</text>
   <text y="239.876" x="227.314,233.807,238.807,242.8,247.297,251.794,255.292,257.792,261.291,264.7893,267.037,270.536,273.531,277.029,281.526,286.022,289.521,294.521,298.019" svgx:width="0.72,0.56,0.44,0.5,0.5,0.39,0.28,0.39,0.39,0.55,0.39,0.33,0.39,0.5,0.5,0.39,0.56,0.39,0.28" style="fill:rgb(0,0,0);font-family:URWPalladioL-Ital;font-size:8.97px;stroke:none;">Anopheles stephensi</text>
   <text y="239.876" x="302.765,308.26,310.877,314.69,317.622,322.532,327.7346,330.015,333.009,339.97,342.587,347.992,350.924,355.232,358.784,363.281,365.5235,368.317,374.693,380.116,382.733,385.351,389.344,391.961,397.455,401.952,406.26,409.255" svgx:width="0.61,0.29,0.42,0.33,0.55,0.58,0.55,0.33,0.77,0.29,0.6,0.33,0.48,0.4,0.5,0.25,0.55,0.71,0.6,0.29,0.29,0.44,0.29,0.61,0.5,0.48,0.33,0.25" style="fill:rgb(0,0,0);font-family:URWPalladioL-Roma;font-size:8.97px;stroke:none;">Liston (Diptera: Culicidae).</text>
   <text y="239.876" x="414.301,419.796,422.296,426.289,429.626,433.124,436.622,440.615,445.616,448.448,450.6905,453.494,457.999,461.498,465.158,469.655,474.655,478.648,481.148" svgx:width="0.61,0.28,0.44,0.39,0.39,0.39,0.44,0.56,0.39,0.25,0.55,0.61,0.39,0.41,0.5,0.56,0.44,0.28,0.25" style="fill:rgb(0,0,0);font-family:URWPalladioL-Ital;font-size:8.97px;stroke:none;">Bioresour. Technol.</text>
   <text y="239.876" x="486.189,490.672,495.155,499.639" svgx:width="0.5,0.5,0.5,0.5" style="fill:rgb(0,0,0);font-family:URWPalladioL-Bold;font-size:8.97px;stroke:none;">2007</text>
   <text y="239.876" x="504.122" svgx:width="0.25" style="fill:rgb(0,0,0);font-family:URWPalladioL-Roma;font-size:8.97px;stroke:none;">,</text>
   <text y="239.876" x="508.619,513.116" svgx:width="0.5,0.5" style="fill:rgb(0,0,0);font-family:URWPalladioL-Ital;font-size:8.97px;stroke:none;">98</text>
   <text y="239.876" x="517.613" svgx:width="0.25" style="fill:rgb(0,0,0);font-family:URWPalladioL-Roma;font-size:8.97px;stroke:none;">,</text>
   <text y="252.788" x="97.602,102.085,106.568,111.052,115.535,120.018,124.501,128.984,133.468,137.951,140.1935,142.972" svgx:width="0.5,0.5,0.5,0.5,0.5,0.5,0.5,0.5,0.5,0.25,0.55,0.33" style="fill:rgb(0,0,0);font-family:URWPalladioL-Roma;font-size:8.97px;stroke:none;">1856–1860. [</text>
   <text y="252.788" x="145.958,152.315,155.695,160.591,164.393,168.195,174.184,178.479" svgx:width="0.71,0.4,0.55,0.42,0.42,0.67,0.48,0.33" style="fill:rgb(8,117,183);font-family:URWPalladioL-Roma;font-size:8.97px;stroke:none;">CrossRef</text>
   <text y="252.788" x="181.465,184.42510000000001,186.692" svgx:width="0.33,0.55,0.33" style="fill:rgb(0,0,0);font-family:URWPalladioL-Roma;font-size:8.97px;stroke:none;">] [</text>
   <text y="252.788" x="189.678,195.094,200.5,205.459,213.941,218.236" svgx:width="0.6,0.6,0.55,0.95,0.48,0.61" style="fill:rgb(8,117,183);font-family:URWPalladioL-Roma;font-size:8.97px;stroke:none;">PubMed</text>
   <text y="252.788" x="223.714" svgx:width="0.33" style="fill:rgb(0,0,0);font-family:URWPalladioL-Roma;font-size:8.97px;stroke:none;">]</text>
   <text y="265.699" x="76.535,81.018,85.501,87.74350000000001,98.05,104.498,109.583,114.576,120.091,125.149,127.39150000000001,130.005,134.807,137.093,145.745,148.031,155.641,157.927,160.1695,162.939,168.216,172.789,178.112,183.197,188.19,192.361,194.6035,197.217,202.805,205.092,211.731,213.9735,216.588,221.673,224.334,228.715,231.376,236.8477,239.525,242.507,246.119,248.781,253.354,256.015,259.7824,262.463,265.508,270.502,274.09000000000003,276.675,279.657,284.98,289.28560000000004,291.93,296.311,301.478,306.051,308.713,314.228,318.8,321.782,324.443,329.437,334.63960000000003,337.33,342.323,345.2831,347.93,350.911,356.234,360.5396,363.185,371.26,376.254,378.915,381.577,387.092,390.969,395.03,397.691,401.752,404.414,410.002,414.574,417.1753,419.797,424.37,428.43,431.412,434.073,439.24,441.902,444.883,449.90619999999996,452.538,457.532" svgx:width="0.5,0.5,0.25,0.55,0.78,0.56,0.55,0.6,0.55,0.25,0.55,0.52,0.25,0.95,0.25,0.83,0.25,0.25,0.55,0.67,0.5,0.58,0.56,0.55,0.56,0.25,0.55,0.61,0.25,0.73,0.25,0.55,0.56,0.29,0.48,0.29,0.61,0.55,0.33,0.4,0.29,0.5,0.29,0.42,0.55,0.33,0.55,0.4,0.55,0.33,0.58,0.48,0.55,0.48,0.56,0.5,0.29,0.6,0.5,0.33,0.29,0.55,0.58,0.55,0.55,0.33,0.55,0.33,0.58,0.48,0.55,0.88,0.55,0.29,0.29,0.6,0.42,0.44,0.29,0.44,0.29,0.61,0.5,0.29,0.55,0.5,0.44,0.33,0.29,0.56,0.29,0.33,0.56,0.55,0.55,0.33" style="fill:rgb(0,0,0);font-family:URWPalladioL-Roma;font-size:8.97px;stroke:none;">31. Ayoub, S.M.H.; Yankov, L.K. Field trials for the evaluation of the molluscicidal activity of</text>
   <text y="265.699" x="463.144,469.747,473.47,477.53,481.253,483.795,487.7418,490.426,495.511,498.053,500.596,504.656,507.702,510.245,513.967" svgx:width="0.72,0.41,0.44,0.41,0.28,0.44,0.55,0.56,0.28,0.28,0.44,0.33,0.28,0.41,0.44" style="fill:rgb(0,0,0);font-family:URWPalladioL-Ital;font-size:8.97px;stroke:none;">Acacia nilotica</text>
   <text y="265.699" x="518.023" svgx:width="0.25" style="fill:rgb(0,0,0);font-family:URWPalladioL-Roma;font-size:8.97px;stroke:none;">.</text>
   <text y="278.611" x="97.799,102.784,105.277,108.263,112.244,115.23,118.718,122.206,126.187,130.67,133.162" svgx:width="0.56,0.28,0.33,0.44,0.33,0.39,0.39,0.44,0.5,0.28,0.44" style="fill:rgb(0,0,0);font-family:URWPalladioL-Ital;font-size:8.97px;stroke:none;">Fitoterapia</text>
   <text y="278.611" x="139.385,143.868,148.351,152.835" svgx:width="0.5,0.5,0.5,0.5" style="fill:rgb(0,0,0);font-family:URWPalladioL-Bold;font-size:8.97px;stroke:none;">1984</text>
   <text y="278.611" x="157.318" svgx:width="0.25" style="fill:rgb(0,0,0);font-family:URWPalladioL-Roma;font-size:8.97px;stroke:none;">,</text>
   <text y="278.611" x="161.801,166.284" svgx:width="0.5,0.5" style="fill:rgb(0,0,0);font-family:URWPalladioL-Ital;font-size:8.97px;stroke:none;">55</text>
   <text y="278.611" x="170.767,173.0095,175.25,179.733,184.217,188.7,193.183,197.666,202.149,206.633" svgx:width="0.25,0.55,0.5,0.5,0.5,0.5,0.5,0.5,0.5,0.25" style="fill:rgb(0,0,0);font-family:URWPalladioL-Roma;font-size:8.97px;stroke:none;">, 305–307.</text>
   <text y="291.522" x="76.535,81.018,85.501,87.74350000000001,98.05,105.129,110.644,115.217,117.4595,120.292,125.734,128.021,134.66,136.947,139.1895,142.297,147.821,152.394,157.717,163.305,167.686,171.774,174.0165,176.85,183.965,186.251,192.736,195.022,197.2645,200.363,207.442,212.015,215.893,221.216,223.45850000000002,226.291,233.407,235.693,240.065,242.3075,245.132,252.247,257.835,263.35,266.011,268.993,271.654,275.715,278.376,283.964,288.537,291.13829999999996,293.988,298.561,302.622,305.603,308.265,313.432,316.093,319.075,324.09819999999996,326.949,331.943,334.9031,337.769,342.15,346.027,349.905,354.286,359.609,362.59,365.252,369.824,372.4253,375.275,380.269,382.93,385.5313,388.381,393.375" svgx:width="0.5,0.5,0.25,0.55,0.77,0.6,0.5,0.25,0.55,0.72,0.25,0.73,0.25,0.25,0.55,0.6,0.5,0.58,0.61,0.48,0.56,0.25,0.55,0.78,0.25,0.71,0.25,0.25,0.55,0.77,0.5,0.42,0.58,0.25,0.55,0.78,0.25,0.6,0.25,0.55,0.78,0.61,0.6,0.29,0.33,0.29,0.44,0.29,0.61,0.5,0.29,0.55,0.5,0.44,0.33,0.29,0.56,0.29,0.33,0.56,0.55,0.55,0.33,0.55,0.48,0.42,0.42,0.48,0.58,0.33,0.29,0.5,0.29,0.55,0.55,0.29,0.29,0.55,0.55,0.33" style="fill:rgb(0,0,0);font-family:URWPalladioL-Roma;font-size:8.97px;stroke:none;">32. Dua, V.K.; Pandey, A.C.; Dash, A.P. Adulticidal activity of essential oil of</text>
   <text y="291.522" x="399.205,404.29,408.351,413.436,416.481,420.542,425.627,429.5738,432.477,436.199,440.26,447.376,451.436,454.994" svgx:width="0.56,0.44,0.56,0.33,0.44,0.56,0.44,0.55,0.41,0.44,0.78,0.44,0.39,0.44" style="fill:rgb(0,0,0);font-family:URWPalladioL-Ital;font-size:8.97px;stroke:none;">Lantana camara</text>
   <text y="291.522" x="461.839,464.5,468.881,473.454,478.621,483.002,486.7694,489.669,494.242,499.327,503.9,506.562,511.884,515.762" svgx:width="0.29,0.48,0.5,0.56,0.48,0.42,0.55,0.5,0.56,0.5,0.29,0.58,0.42,0.33" style="fill:rgb(0,0,0);font-family:URWPalladioL-Roma;font-size:8.97px;stroke:none;">leaves against</text>
   <text y="304.434" x="98.05,106.532,111.428,115.23,120.251,125.658,128.267,131.19,136.085,140.38,144.182" svgx:width="0.95,0.55,0.42,0.56,0.6,0.29,0.33,0.55,0.48,0.42,0.25" style="fill:rgb(0,0,0);font-family:URWPalladioL-Roma;font-size:8.97px;stroke:none;">Mosquitoes.</text>
   <text y="304.434" x="149.203,152.189,157.174,161.657,164.15,168.131,173.1542,175.358,178.344,180.5865,182.827,191.291,194.779,199.262,201.5045,204.284,210.264,213.752,217.24" svgx:width="0.33,0.56,0.5,0.28,0.44,0.56,0.55,0.33,0.25,0.55,0.94,0.39,0.5,0.25,0.55,0.67,0.39,0.39,0.25" style="fill:rgb(0,0,0);font-family:URWPalladioL-Ital;font-size:8.97px;stroke:none;">Indian J. Med. Res.</text>
   <text y="304.434" x="222.26,226.743,231.226,235.71" svgx:width="0.5,0.5,0.5,0.5" style="fill:rgb(0,0,0);font-family:URWPalladioL-Bold;font-size:8.97px;stroke:none;">2010</text>
   <text y="304.434" x="240.193" svgx:width="0.25" style="fill:rgb(0,0,0);font-family:URWPalladioL-Roma;font-size:8.97px;stroke:none;">,</text>
   <text y="304.434" x="244.676,249.159,253.642" svgx:width="0.5,0.5,0.5" style="fill:rgb(0,0,0);font-family:URWPalladioL-Ital;font-size:8.97px;stroke:none;">131</text>
   <text y="304.434" x="258.126,260.3685,262.609,267.092,271.576,276.059,280.542,285.025,289.508,293.992,296.2345,299.013" svgx:width="0.25,0.55,0.5,0.5,0.5,0.5,0.5,0.5,0.5,0.25,0.55,0.33" style="fill:rgb(0,0,0);font-family:URWPalladioL-Roma;font-size:8.97px;stroke:none;">, 434–439. [</text>
   <text y="304.434" x="301.999,307.414,312.821,317.78,326.262,330.557" svgx:width="0.6,0.6,0.55,0.95,0.48,0.61" style="fill:rgb(8,117,183);font-family:URWPalladioL-Roma;font-size:8.97px;stroke:none;">PubMed</text>
   <text y="304.434" x="336.035" svgx:width="0.33" style="fill:rgb(0,0,0);font-family:URWPalladioL-Roma;font-size:8.97px;stroke:none;">]</text>
   <text y="317.346" x="76.535,81.018,85.501,87.74350000000001,98.05,106.323,111.292,114.887,117.535,123.0067,125.344,132.916,137.275,141.825,144.474,147.441,152.6436,154.985,162.139,165.579,170.639,175.189,180.486,183.134,187.685,192.235,195.202,197.85,202.82,208.116" svgx:width="0.5,0.5,0.25,0.55,1.0,0.55,0.4,0.29,0.61,0.55,0.83,0.48,0.5,0.29,0.33,0.58,0.55,0.79,0.4,0.56,0.5,0.58,0.29,0.5,0.5,0.33,0.29,0.55,0.58,0.25" style="fill:rgb(0,0,0);font-family:URWPalladioL-Roma;font-size:8.97px;stroke:none;">33. World Health Organization.</text>
   <text y="317.346" x="213.187,219.758,224.818,227.348,231.898,235.439,237.969,240.499,245.559,249.099,252.5973,254.887,257.417,261.458,264.95630000000006,267.246,272.306,276.347,280.561,284.602,288.142,292.183,295.213,299.254,302.794,307.279,309.593,313.634,318.694,323.17900000000003,325.492,330.552,333.082,336.622,339.153,343.63800000000003,345.951,350.52,354.06,357.6,360.631,363.161,368.221,372.706,375.019,379.06,381.5716,383.838,392.429,396.47,400.01,404.224,409.284,411.814,414.845,418.7918,421.133,426.194,430.234,433.775,438.325,440.855,444.559,447.089,451.64,455.18,458.711,460.9535,463.789,469.86,473.901,480.981,488.062,493.122,498.182,500.712,504.416,508.457,512.67,515.2" svgx:width="0.72,0.56,0.28,0.5,0.39,0.28,0.28,0.56,0.39,0.39,0.55,0.28,0.44,0.39,0.55,0.56,0.44,0.46,0.44,0.39,0.44,0.33,0.44,0.39,0.5,0.55,0.44,0.56,0.5,0.55,0.56,0.28,0.39,0.28,0.5,0.55,0.61,0.39,0.39,0.33,0.28,0.56,0.5,0.55,0.44,0.28,0.55,0.94,0.44,0.39,0.46,0.56,0.28,0.33,0.44,0.55,0.56,0.44,0.39,0.5,0.28,0.41,0.28,0.5,0.39,0.39,0.25,0.55,0.67,0.44,0.78,0.78,0.56,0.56,0.28,0.41,0.44,0.46,0.28,0.39" style="fill:rgb(0,0,0);font-family:URWPalladioL-Ital;font-size:8.97px;stroke:none;">Guidelines for Laboratory and Field Testing of Mosquito Larvicides. Communicable</text>
   <text y="330.257" x="97.701,104.635,107.113,110.58,114.047,118.004,121.471,124.9693,127.175,133.12,137.077,142.032,145.0,148.307,152.264,154.742,156.9845,159.207,164.652,167.959,171.426,175.882,179.349,184.305,187.273,189.75,193.708,198.7312,200.9,204.857,209.813,214.298,216.506,221.952,225.419,229.376,233.832,236.31,239.937,243.894,246.862,249.34,253.297" svgx:width="0.78,0.28,0.39,0.39,0.44,0.39,0.39,0.55,0.67,0.44,0.56,0.33,0.39,0.44,0.28,0.25,0.55,0.61,0.39,0.39,0.5,0.39,0.56,0.33,0.28,0.44,0.56,0.55,0.44,0.56,0.5,0.55,0.61,0.39,0.44,0.5,0.28,0.41,0.44,0.33,0.28,0.44,0.56" style="fill:rgb(0,0,0);font-family:URWPalladioL-Ital;font-size:8.97px;stroke:none;">Disease Control, Prevention and Eradication</text>
   <text y="330.257" x="258.255,260.4975,262.72,271.633,279.048,286.053,288.2955,290.528,295.911,300.18,303.959,306.864,309.458,313.406,316.0,321.445,325.7506,327.96,333.406,338.442,342.898,345.491,350.866,355.322,358.228,360.821,365.687,370.88960000000003,373.112,377.791,381.748,386.935,391.204,399.074,403.343,405.5855,407.808,416.721,424.136,431.142,433.3845,435.607,442.407,446.676,451.863,456.133,461.168,465.624,467.86650000000003,470.09,474.769,482.202,484.795,487.701,492.157,496.426,499.947,502.54,506.997,512.184,517.629" svgx:width="0.25,0.55,1.0,0.83,0.79,0.25,0.55,0.6,0.48,0.42,0.33,0.29,0.44,0.29,0.61,0.48,0.55,0.61,0.56,0.5,0.29,0.6,0.5,0.33,0.29,0.55,0.58,0.55,0.52,0.44,0.58,0.48,0.88,0.48,0.25,0.55,1.0,0.83,0.79,0.25,0.55,0.76,0.48,0.58,0.48,0.56,0.5,0.25,0.55,0.52,0.83,0.29,0.33,0.5,0.48,0.4,0.29,0.5,0.58,0.61,0.25" style="fill:rgb(0,0,0);font-family:URWPalladioL-Roma;font-size:8.97px;stroke:none;">; WHO, Pesticide Evaluation Scheme; WHO: Geneva, Switzerland,</text>
   <text y="343.169" x="98.05,102.533,107.016,111.5,115.983,118.22550000000001,120.466,125.855,131.244,133.4865,136.265,140.748,145.231,149.714,154.198,158.681" svgx:width="0.5,0.5,0.5,0.5,0.25,0.55,0.6,0.6,0.25,0.55,0.5,0.5,0.5,0.5,0.5,0.25" style="fill:rgb(0,0,0);font-family:URWPalladioL-Roma;font-size:8.97px;stroke:none;">2005; pp. 1–219.</text>
   <text y="356.08" x="76.535,81.018,85.501,87.74350000000001,98.05,105.131,110.163,115.196,120.165,123.132,126.099,128.3415,130.622,138.895,141.17,145.948,148.19050000000001,150.471,157.4676,159.79,167.827,172.186,175.153,180.449,185.419,190.8907,193.227,198.196,201.1561,203.475,207.516,212.485,220.521,225.99,231.478,234.445,237.093,242.39,247.4132,249.689,252.656,257.953,262.2586,264.56,268.919,271.786,274.817,279.176,283.217,286.184,288.832,293.974,298.333,303.63,307.989,311.848,315.6154,317.946,322.915,325.87510000000003,328.193,332.744,337.94660000000005,340.288,342.937,348.234,352.092,356.452,360.492,363.459,366.108,370.148,372.797,378.357,382.717" svgx:width="0.5,0.5,0.25,0.55,0.78,0.55,0.55,0.55,0.33,0.33,0.25,0.55,1.0,0.25,0.52,0.25,0.55,0.78,0.55,0.88,0.48,0.33,0.58,0.55,0.61,0.55,0.55,0.33,0.55,0.44,0.55,0.88,0.6,0.6,0.33,0.29,0.58,0.56,0.55,0.33,0.58,0.48,0.55,0.48,0.33,0.33,0.48,0.44,0.33,0.29,0.56,0.48,0.58,0.48,0.42,0.42,0.55,0.55,0.33,0.55,0.5,0.58,0.55,0.29,0.58,0.42,0.48,0.44,0.33,0.29,0.44,0.29,0.61,0.48,0.25" style="fill:rgb(0,0,0);font-family:URWPalladioL-Roma;font-size:8.97px;stroke:none;">34. Abbott, W.S. A method of computing the effectiveness of an insecticide.</text>
   <text y="356.08" x="387.778,390.809,393.05150000000003,395.332,400.892,404.596,408.637,410.8795,413.697,419.258,424.318,427.349,431.39,438.47,442.511,445.041" svgx:width="0.33,0.25,0.55,0.61,0.41,0.44,0.25,0.55,0.61,0.56,0.33,0.44,0.78,0.44,0.28,0.25" style="fill:rgb(0,0,0);font-family:URWPalladioL-Ital;font-size:8.97px;stroke:none;">J. Eco. Entomol.</text>
   <text y="356.08" x="450.106,454.589,459.072,463.556" svgx:width="0.5,0.5,0.5,0.5" style="fill:rgb(0,0,0);font-family:URWPalladioL-Bold;font-size:8.97px;stroke:none;">1925</text>
   <text y="356.08" x="468.038" svgx:width="0.25" style="fill:rgb(0,0,0);font-family:URWPalladioL-Roma;font-size:8.97px;stroke:none;">,</text>
   <text y="356.08" x="472.559,477.109" svgx:width="0.5,0.5" style="fill:rgb(0,0,0);font-family:URWPalladioL-Ital;font-size:8.97px;stroke:none;">18</text>
   <text y="356.08" x="481.66,483.90250000000003,486.183,490.734,495.284,499.835,504.385,508.935,513.486,518.036" svgx:width="0.25,0.55,0.5,0.5,0.5,0.5,0.5,0.5,0.5,0.25" style="fill:rgb(0,0,0);font-family:URWPalladioL-Roma;font-size:8.97px;stroke:none;">, 265–266.</text>
   <text y="368.992" x="98.05" svgx:width="0.33" style="fill:rgb(0,0,0);font-family:URWPalladioL-Roma;font-size:8.97px;stroke:none;">[</text>
   <text y="368.992" x="101.036,107.393,110.773,115.669,119.471,123.272,129.262,133.557" svgx:width="0.71,0.4,0.55,0.42,0.42,0.67,0.48,0.33" style="fill:rgb(8,117,183);font-family:URWPalladioL-Roma;font-size:8.97px;stroke:none;">CrossRef</text>
   <text y="368.992" x="136.543" svgx:width="0.33" style="fill:rgb(0,0,0);font-family:URWPalladioL-Roma;font-size:8.97px;stroke:none;">]</text>
   <text y="381.904" x="76.535,81.018,85.501,87.74350000000001,98.05,104.052,108.544,116.477,121.472,126.89,134.823,139.315,142.199,144.44150000000002,146.7,153.555,155.801,158.0435,160.302,166.825,171.317,174.866,177.795,183.024,185.638,187.8805,190.13,194.847,197.093,199.3355,201.594,210.094,215.511,218.44,223.669,229.086,232.896,237.388,245.321,249.319,251.5615,253.82,259.822,262.068,264.3105,266.569,274.035,278.527,281.456,285.948,289.497,293.989,296.092,300.584,305.813,308.0555,310.305,317.259,319.505,321.7475,324.006,328.723,333.952,336.566,341.642,346.134,351.13,356.547,364.48,368.973,371.857,374.09950000000003,376.358,384.857,387.103,391.82,394.0625,396.312,403.302,408.791,414.209,416.823,419.752,422.366,426.355,428.97,434.459,438.952,441.5533,443.821,448.313,453.542,459.0137,461.278,465.087,473.02,477.926,482.921,487.2266,489.479,492.408,497.314,501.95,504.564,508.553,511.168,514.097" svgx:width="0.5,0.5,0.25,0.55,0.67,0.5,0.88,0.56,0.6,0.88,0.5,0.4,0.25,0.55,0.76,0.25,0.25,0.55,0.73,0.5,0.4,0.33,0.58,0.29,0.25,0.55,0.52,0.25,0.25,0.55,0.95,0.6,0.33,0.58,0.6,0.42,0.5,0.88,0.56,0.25,0.55,0.67,0.25,0.25,0.55,0.83,0.5,0.33,0.5,0.4,0.5,0.23,0.5,0.58,0.25,0.55,0.77,0.25,0.25,0.55,0.52,0.58,0.29,0.56,0.5,0.56,0.6,0.88,0.5,0.4,0.25,0.55,0.95,0.25,0.52,0.25,0.55,0.78,0.61,0.6,0.29,0.33,0.29,0.44,0.29,0.61,0.5,0.29,0.55,0.5,0.58,0.61,0.55,0.42,0.88,0.55,0.56,0.48,0.55,0.33,0.55,0.52,0.29,0.44,0.29,0.33,0.56" style="fill:rgb(0,0,0);font-family:URWPalladioL-Roma;font-size:8.97px;stroke:none;">35. Ramkumar, G.; Karthi, S.; Muthusamy, R.; Natarajan, D.; Shivakumar, M.S. Adulticidal and smoke toxicity</text>
   <text y="394.815" x="98.05,102.96" svgx:width="0.55,0.33" style="fill:rgb(0,0,0);font-family:URWPalladioL-Roma;font-size:8.97px;stroke:none;">of</text>
   <text y="394.815" x="108.201,115.198,118.858,121.358,128.355,133.355,140.3516,142.6,146.261,150.254,155.254,160.254" svgx:width="0.78,0.41,0.28,0.78,0.56,0.78,0.55,0.41,0.44,0.56,0.56,0.78" style="fill:rgb(0,0,0);font-family:URWPalladioL-Ital;font-size:8.97px;stroke:none;">Ocimum canum</text>
   <text y="394.815" x="169.493,172.488,178.495,183.406,186.337,191.572,194.5321,196.815,202.22,204.837,209.333,214.567,217.52710000000002,219.739,224.046,228.687,231.619,235.171,239.668,243.661,246.592,250.35940000000002,252.654,257.151,262.151,266.648,269.265,274.499,278.312" svgx:width="0.33,0.67,0.55,0.33,0.58,0.33,0.55,0.6,0.29,0.5,0.58,0.33,0.55,0.48,0.52,0.33,0.4,0.5,0.44,0.33,0.42,0.55,0.5,0.56,0.5,0.29,0.58,0.42,0.33" style="fill:rgb(0,0,0);font-family:URWPalladioL-Roma;font-size:8.97px;stroke:none;">(Roth) plant extracts against</text>
   <text y="394.815" x="283.489,289.982,294.982,298.975,303.472,307.969,311.467,313.967,317.466,320.9643,323.212,326.711,329.706,333.204,337.701,342.197,345.696,350.696,354.194" svgx:width="0.72,0.56,0.44,0.5,0.5,0.39,0.28,0.39,0.39,0.55,0.39,0.33,0.39,0.5,0.5,0.39,0.56,0.39,0.28" style="fill:rgb(0,0,0);font-family:URWPalladioL-Ital;font-size:8.97px;stroke:none;">Anopheles stephensi</text>
   <text y="394.815" x="356.69" svgx:width="0.25" style="fill:rgb(0,0,0);font-family:URWPalladioL-Roma;font-size:8.97px;stroke:none;">,</text>
   <text y="394.815" x="361.185,367.678,371.177,375.673,379.172,382.6703,384.918,388.911,392.41,396.906,401.403,405.9,408.894" svgx:width="0.72,0.39,0.5,0.39,0.39,0.55,0.44,0.39,0.5,0.5,0.5,0.33,0.28" style="fill:rgb(0,0,0);font-family:URWPalladioL-Ital;font-size:8.97px;stroke:none;">Aedes aegypti</text>
   <text y="394.815" x="411.391,413.6335,415.888,420.384,425.618" svgx:width="0.25,0.55,0.5,0.58,0.61" style="fill:rgb(0,0,0);font-family:URWPalladioL-Roma;font-size:8.97px;stroke:none;">, and</text>
   <text y="394.815" x="433.358,439.357,444.357,446.857,450.355,454.84000000000003,457.1,461.264,466.264,468.765,473.765,477.929,482.929,486.427,488.928,492.921,496.419,500.079,502.579,506.563,509.558,514.558" svgx:width="0.67,0.56,0.28,0.39,0.5,0.55,0.46,0.56,0.28,0.56,0.46,0.56,0.39,0.28,0.44,0.39,0.41,0.28,0.44,0.33,0.56,0.39" style="fill:rgb(0,0,0);font-family:URWPalladioL-Ital;font-size:8.97px;stroke:none;">Culex quinquefasciatus</text>
   <text y="394.815" x="518.061" svgx:width="0.25" style="fill:rgb(0,0,0);font-family:URWPalladioL-Roma;font-size:8.97px;stroke:none;">.</text>
   <text y="407.727" x="97.773,103.251,107.233,110.72,114.702,118.189,120.682,123.668,127.649,130.142,132.3845,135.163,141.143,144.631,148.119" svgx:width="0.61,0.44,0.39,0.44,0.39,0.28,0.33,0.44,0.28,0.25,0.55,0.67,0.39,0.39,0.25" style="fill:rgb(0,0,0);font-family:URWPalladioL-Ital;font-size:8.97px;stroke:none;">Parasitol. Res.</text>
   <text y="407.727" x="153.139,157.622,162.105,166.589" svgx:width="0.5,0.5,0.5,0.5" style="fill:rgb(0,0,0);font-family:URWPalladioL-Bold;font-size:8.97px;stroke:none;">2015</text>
   <text y="407.727" x="171.072" svgx:width="0.25" style="fill:rgb(0,0,0);font-family:URWPalladioL-Roma;font-size:8.97px;stroke:none;">,</text>
   <text y="407.727" x="175.555,180.038,184.521" svgx:width="0.5,0.5,0.5" style="fill:rgb(0,0,0);font-family:URWPalladioL-Ital;font-size:8.97px;stroke:none;">114</text>
   <text y="407.727" x="189.005,191.2475,193.488,197.971,202.455,206.938,211.421,215.904,220.387,224.871,227.11350000000002,229.892" svgx:width="0.25,0.55,0.5,0.5,0.5,0.5,0.5,0.5,0.5,0.25,0.55,0.33" style="fill:rgb(0,0,0);font-family:URWPalladioL-Roma;font-size:8.97px;stroke:none;">, 167–173. [</text>
   <text y="407.727" x="232.878,239.235,242.615,247.511,251.313,255.114,261.104,265.399" svgx:width="0.71,0.4,0.55,0.42,0.42,0.67,0.48,0.33" style="fill:rgb(8,117,183);font-family:URWPalladioL-Roma;font-size:8.97px;stroke:none;">CrossRef</text>
   <text y="407.727" x="268.385,271.3451,273.612" svgx:width="0.33,0.55,0.33" style="fill:rgb(0,0,0);font-family:URWPalladioL-Roma;font-size:8.97px;stroke:none;">] [</text>
   <text y="407.727" x="276.598,282.013,287.42,292.379,300.861,305.156" svgx:width="0.6,0.6,0.55,0.95,0.48,0.61" style="fill:rgb(8,117,183);font-family:URWPalladioL-Roma;font-size:8.97px;stroke:none;">PubMed</text>
   <text y="407.727" x="310.634" svgx:width="0.33" style="fill:rgb(0,0,0);font-family:URWPalladioL-Roma;font-size:8.97px;stroke:none;">]</text>
   <text y="420.638" x="76.535,81.018,85.501,87.74350000000001,98.05,102.852,107.232,112.555,115.537,120.859,123.521,126.182,129.228,136.828,141.401,144.382,149.705,154.278,159.601,161.8435,165.198,169.999,172.286,174.5285,178.423,186.032,188.693,192.571,197.894,202.467,210.543,212.7855,216.149,223.264,225.551,227.7935,231.687,234.733,239.306,244.391,248.964,254.049,259.564,267.639,272.212,275.157,277.3995,280.754,287.732,289.97450000000003,293.339,298.927,303.5,307.112,312.28,314.941,319.002,321.663,327.251,331.824,334.4253,337.796,342.369,347.692,353.1637,356.591,361.676,365.133,370.126,377.754,380.735,385.93760000000003,389.369,392.03,397.353,402.676,405.337,410.395,413.056,416.038,418.699,423.693,428.8956,432.326,437.32,440.2801,443.685,446.667,451.99,456.29560000000004,459.681,467.757,472.33,474.991,479.564,483.177,485.838,490.32300000000004,493.722,498.889,503.27,507.331,510.312,515.306" svgx:width="0.5,0.5,0.25,0.55,0.52,0.48,0.58,0.33,0.58,0.29,0.29,0.33,0.83,0.5,0.33,0.58,0.5,0.58,0.25,0.55,0.52,0.25,0.25,0.55,0.83,0.29,0.42,0.58,0.5,0.88,0.25,0.55,0.78,0.25,0.25,0.55,0.33,0.5,0.56,0.5,0.56,0.6,0.88,0.5,0.4,0.25,0.55,0.76,0.25,0.55,0.61,0.5,0.4,0.56,0.29,0.44,0.29,0.61,0.5,0.29,0.55,0.5,0.58,0.61,0.55,0.56,0.4,0.55,0.83,0.33,0.58,0.55,0.29,0.58,0.58,0.29,0.55,0.29,0.33,0.29,0.55,0.58,0.55,0.55,0.33,0.55,0.33,0.58,0.48,0.55,0.88,0.5,0.29,0.5,0.4,0.29,0.5,0.55,0.56,0.48,0.44,0.33,0.55,0.4" style="fill:rgb(0,0,0);font-family:URWPalladioL-Roma;font-size:8.97px;stroke:none;">36. Senthil-Nathan, S.; Hisham, A.; Jayakumar, G. Larvicidal and growth inhibition of the malaria vector</text>
   <text y="433.55" x="97.728,104.176,109.141,113.106,117.572,122.037,125.511,127.994,131.468,134.9663,137.183,140.657,143.631,147.105,151.57,156.035,159.509,164.475,167.949" svgx:width="0.72,0.56,0.44,0.5,0.5,0.39,0.28,0.39,0.39,0.55,0.39,0.33,0.39,0.5,0.5,0.39,0.56,0.39,0.28" style="fill:rgb(0,0,0);font-family:URWPalladioL-Ital;font-size:8.97px;stroke:none;">Anopheles stephensi</text>
   <text y="433.55" x="172.667,177.606,182.6292,184.813,187.724,191.251,193.85,196.762,201.039,204.567,209.934,214.212,219.409,223.687,227.45440000000002,229.706,232.68,236.047,240.923" svgx:width="0.55,0.56,0.55,0.33,0.4,0.29,0.33,0.48,0.4,0.6,0.48,0.58,0.48,0.42,0.55,0.33,0.4,0.55,0.88" style="fill:rgb(0,0,0);font-family:URWPalladioL-Roma;font-size:8.97px;stroke:none;">by triterpenes from</text>
   <text y="433.55" x="251.05,257.998,262.463,265.937,269.902,274.368,278.833,281.316,286.281,293.2776,295.47,302.418,306.384,308.866,312.831,316.966,320.931,324.405,326.888,330.523,335.488" svgx:width="0.78,0.5,0.39,0.44,0.5,0.5,0.28,0.56,0.78,0.55,0.78,0.44,0.28,0.44,0.46,0.44,0.39,0.28,0.41,0.56,0.78" style="fill:rgb(0,0,0);font-family:URWPalladioL-Ital;font-size:8.97px;stroke:none;">Dysoxylum malabaricum</text>
   <text y="433.55" x="344.671,349.136,354.334" svgx:width="0.5,0.58,0.61" style="fill:rgb(0,0,0);font-family:URWPalladioL-Roma;font-size:8.97px;stroke:none;">and</text>
   <text y="433.55" x="362.03,368.978,373.443,376.917,380.882,385.348,389.813,392.296,397.261,404.2576,406.451,410.585,414.059,418.525,422.99,426.955,433.903,437.377" svgx:width="0.78,0.5,0.39,0.44,0.5,0.5,0.28,0.56,0.78,0.55,0.46,0.39,0.5,0.5,0.44,0.78,0.39,0.28" style="fill:rgb(0,0,0);font-family:URWPalladioL-Ital;font-size:8.97px;stroke:none;">Dysoxylum beddomei</text>
   <text y="433.55" x="439.856" svgx:width="0.25" style="fill:rgb(0,0,0);font-family:URWPalladioL-Roma;font-size:8.97px;stroke:none;">.</text>
   <text y="433.55" x="444.867,449.832,452.315,455.289,459.254,462.228,465.702,469.176,473.141,477.606,480.089" svgx:width="0.56,0.28,0.33,0.44,0.33,0.39,0.39,0.44,0.5,0.28,0.44" style="fill:rgb(0,0,0);font-family:URWPalladioL-Ital;font-size:8.97px;stroke:none;">Fitoterapia</text>
   <text y="433.55" x="486.293,490.776,495.259,499.743" svgx:width="0.5,0.5,0.5,0.5" style="fill:rgb(0,0,0);font-family:URWPalladioL-Bold;font-size:8.97px;stroke:none;">2008</text>
   <text y="433.55" x="504.226" svgx:width="0.25" style="fill:rgb(0,0,0);font-family:URWPalladioL-Roma;font-size:8.97px;stroke:none;">,</text>
   <text y="433.55" x="508.698,513.163" svgx:width="0.5,0.5" style="fill:rgb(0,0,0);font-family:URWPalladioL-Ital;font-size:8.97px;stroke:none;">79</text>
   <text y="433.55" x="517.628" svgx:width="0.25" style="fill:rgb(0,0,0);font-family:URWPalladioL-Roma;font-size:8.97px;stroke:none;">,</text>
   <text y="446.462" x="97.602,102.085,106.568,111.052,115.535,120.018,124.501,128.984,131.22650000000002,134.006" svgx:width="0.5,0.5,0.5,0.5,0.5,0.5,0.5,0.25,0.55,0.33" style="fill:rgb(0,0,0);font-family:URWPalladioL-Roma;font-size:8.97px;stroke:none;">106–111. [</text>
   <text y="446.462" x="136.991,143.349,146.729,151.625,155.426,159.228,165.218,169.513" svgx:width="0.71,0.4,0.55,0.42,0.42,0.67,0.48,0.33" style="fill:rgb(8,117,183);font-family:URWPalladioL-Roma;font-size:8.97px;stroke:none;">CrossRef</text>
   <text y="446.462" x="172.498,175.4581,177.726" svgx:width="0.33,0.55,0.33" style="fill:rgb(0,0,0);font-family:URWPalladioL-Roma;font-size:8.97px;stroke:none;">] [</text>
   <text y="446.462" x="180.712,186.127,191.534,196.492,204.975,209.27" svgx:width="0.6,0.6,0.55,0.95,0.48,0.61" style="fill:rgb(8,117,183);font-family:URWPalladioL-Roma;font-size:8.97px;stroke:none;">PubMed</text>
   <text y="446.462" x="214.748" svgx:width="0.33" style="fill:rgb(0,0,0);font-family:URWPalladioL-Roma;font-size:8.97px;stroke:none;">]</text>
   <text y="459.373" x="76.535,81.018,85.501,87.74350000000001,98.05,103.638,108.019,113.342,117.722,120.384,123.045,125.707,127.9495,130.554,137.532,139.819,142.0615,144.83,153.482,157.863,163.186,165.847,171.161,176.155,179.767,185.09,187.3325,189.946,197.556,199.79850000000002,202.403,209.482,213.862,217.923,220.585,223.246,228.569,231.221,236.544,241.5672,244.199,252.274,256.847,259.509,264.082,267.685,270.346,274.919,277.1615,279.849,283.461,286.123,290.001,292.662,297.985,303.0082,305.631,311.219,315.599,320.922,326.007,331.522,335.8276,338.464,343.037,348.359,353.8307,356.508,362.608,365.27,370.355,374.84000000000003,377.489,382.656,385.317,388.857,394.372,398.249,400.49150000000003,403.956,407.038,412.361,416.239,418.9,423.985,429.308,432.29,436.05740000000003,438.728,441.774,446.767,450.355,452.941,461.016,466.01,469.888,475.009,480.524,483.186,486.167,491.10049999999995,493.721,498.889,503.27,507.33,510.312,515.305" svgx:width="0.5,0.5,0.25,0.55,0.61,0.48,0.58,0.48,0.29,0.29,0.29,0.25,0.55,0.76,0.25,0.25,0.55,0.95,0.48,0.58,0.29,0.58,0.55,0.4,0.58,0.25,0.55,0.83,0.25,0.55,0.77,0.48,0.44,0.29,0.29,0.58,0.29,0.58,0.56,0.55,0.88,0.5,0.29,0.5,0.4,0.29,0.5,0.25,0.55,0.4,0.29,0.42,0.29,0.58,0.56,0.55,0.61,0.48,0.58,0.56,0.6,0.48,0.55,0.5,0.58,0.61,0.55,0.67,0.29,0.56,0.5,0.55,0.56,0.29,0.4,0.6,0.42,0.25,0.55,0.34,0.58,0.42,0.29,0.56,0.58,0.33,0.42,0.55,0.33,0.55,0.4,0.55,0.88,0.55,0.42,0.56,0.6,0.29,0.33,0.55,0.55,0.56,0.48,0.44,0.33,0.55,0.4" style="fill:rgb(0,0,0);font-family:URWPalladioL-Roma;font-size:8.97px;stroke:none;">37. Benelli, G.; Mehlhorn, H. Declining malaria, rising dengue and Zika virus: Insights for mosquito vector</text>
   <text y="472.285" x="98.05,102.031,106.927,112.145,115.068,118.449,123.344,125.953" svgx:width="0.44,0.55,0.58,0.33,0.4,0.55,0.29,0.25" style="fill:rgb(0,0,0);font-family:URWPalladioL-Roma;font-size:8.97px;stroke:none;">control.</text>
   <text y="472.285" x="130.975,136.453,140.435,143.922,147.904,151.391,153.884,156.87,160.851,163.344,165.5865,168.365,174.345,177.833,181.321" svgx:width="0.61,0.44,0.39,0.44,0.39,0.28,0.33,0.44,0.28,0.25,0.55,0.67,0.39,0.39,0.25" style="fill:rgb(0,0,0);font-family:URWPalladioL-Ital;font-size:8.97px;stroke:none;">Parasitol. Res.</text>
   <text y="472.285" x="186.341,190.824,195.307,199.791" svgx:width="0.5,0.5,0.5,0.5" style="fill:rgb(0,0,0);font-family:URWPalladioL-Bold;font-size:8.97px;stroke:none;">2016</text>
   <text y="472.285" x="204.274" svgx:width="0.25" style="fill:rgb(0,0,0);font-family:URWPalladioL-Roma;font-size:8.97px;stroke:none;">,</text>
   <text y="472.285" x="208.757,213.24,217.723" svgx:width="0.5,0.5,0.5" style="fill:rgb(0,0,0);font-family:URWPalladioL-Ital;font-size:8.97px;stroke:none;">115</text>
   <text y="472.285" x="222.207,224.4495,226.69,231.173,235.657,240.14,244.623,249.106,253.589,258.073,262.556,267.039,269.2815,272.06" svgx:width="0.25,0.55,0.5,0.5,0.5,0.5,0.5,0.5,0.5,0.5,0.5,0.25,0.55,0.33" style="fill:rgb(0,0,0);font-family:URWPalladioL-Roma;font-size:8.97px;stroke:none;">, 1747–1754. [</text>
   <text y="472.285" x="275.046,281.403,284.784,289.679,293.481,297.283,303.272,307.567" svgx:width="0.71,0.4,0.55,0.42,0.42,0.67,0.48,0.33" style="fill:rgb(8,117,183);font-family:URWPalladioL-Roma;font-size:8.97px;stroke:none;">CrossRef</text>
   <text y="472.285" x="310.553,313.5131,315.78" svgx:width="0.33,0.55,0.33" style="fill:rgb(0,0,0);font-family:URWPalladioL-Roma;font-size:8.97px;stroke:none;">] [</text>
   <text y="472.285" x="318.766,324.182,329.589,334.547,343.029,347.324" svgx:width="0.6,0.6,0.55,0.95,0.48,0.61" style="fill:rgb(8,117,183);font-family:URWPalladioL-Roma;font-size:8.97px;stroke:none;">PubMed</text>
   <text y="472.285" x="352.803" svgx:width="0.33" style="fill:rgb(0,0,0);font-family:URWPalladioL-Roma;font-size:8.97px;stroke:none;">]</text>
   <text y="485.196" x="76.535,81.018,85.501,87.74350000000001,98.05,104.69,109.263,111.924,116.497,119.158,124.326,128.899,134.221,136.883,139.12550000000002,144.263,150.903,153.19,155.4325,162.006,166.808,171.188,176.511,179.493,184.816,187.477,190.138,193.184,200.784,205.357,208.338,213.661,218.234,223.557,225.7995,230.937,235.739,238.025,240.2675,246.833,255.485,260.999,264.548,270.063,275.148,279.529,283.406,287.979,293.302,295.5445,300.683,307.798,310.085,317.063,319.3055,324.443,330.031,332.693,337.686,340.348,345.341,350.426,353.088,357.148,361.721,364.3223,369.477,374.05,378.111,381.092,383.753,388.921,391.582,394.564,399.5872,404.752,409.746,412.7061,417.885,421.763,426.144,428.805,433.186,437.247,440.228,444.609,450.0807,455.291,460.879,465.452,473.528,476.189,480.762,484.823,489.204,493.777,498.0826,503.261,507.834,513.156" svgx:width="0.5,0.5,0.25,0.55,0.73,0.5,0.29,0.5,0.29,0.56,0.5,0.58,0.29,0.25,0.55,0.73,0.25,0.25,0.55,0.52,0.48,0.58,0.33,0.58,0.29,0.29,0.33,0.83,0.5,0.33,0.58,0.5,0.58,0.25,0.55,0.52,0.25,0.25,0.55,0.95,0.6,0.4,0.6,0.56,0.48,0.42,0.5,0.58,0.25,0.55,0.78,0.25,0.76,0.25,0.55,0.61,0.29,0.55,0.29,0.55,0.56,0.29,0.44,0.5,0.29,0.55,0.5,0.44,0.33,0.29,0.56,0.29,0.33,0.56,0.55,0.55,0.33,0.55,0.42,0.48,0.29,0.48,0.44,0.33,0.48,0.61,0.55,0.61,0.5,0.88,0.29,0.5,0.44,0.48,0.5,0.48,0.55,0.5,0.58,0.61" style="fill:rgb(0,0,0);font-family:URWPalladioL-Roma;font-size:8.97px;stroke:none;">38. Kalaivani, K.; Senthil-Nathan, S.; Murugesan, A.G. Biological activity of selected Lamiaceae and</text>
   <text y="498.108" x="98.05,103.911,106.468,111.582,116.468,119.025,123.884,128.093,131.564,135.957,139.859,144.068,148.461,152.7666,154.445,159.727,162.284,166.677,171.791,174.7511,176.422,180.631,184.357,188.082,192.291,197.405,200.27,202.827,207.221,209.8223,211.553,216.35,218.907,221.464,225.2314,226.965,231.359,236.244,240.638,243.195,248.309,252.035,254.9951,256.674,259.539,264.653,268.95860000000005,270.628,275.997,280.206,285.32,290.206,295.504,299.80960000000005,301.488,306.453,310.662,314.564,317.428,322.226" svgx:width="0.67,0.29,0.58,0.56,0.29,0.55,0.48,0.4,0.5,0.44,0.48,0.5,0.48,0.55,0.6,0.29,0.5,0.58,0.33,0.55,0.48,0.42,0.42,0.48,0.58,0.33,0.29,0.5,0.29,0.55,0.55,0.29,0.29,0.42,0.55,0.5,0.56,0.5,0.29,0.58,0.42,0.33,0.55,0.33,0.58,0.48,0.55,0.61,0.48,0.58,0.56,0.6,0.48,0.55,0.56,0.48,0.44,0.33,0.55,0.4" style="fill:rgb(0,0,0);font-family:URWPalladioL-Roma;font-size:8.97px;stroke:none;">Zingiberaceae plant essential oils against the dengue vector</text>
   <text y="498.108" x="327.469,333.813,337.231,341.625,345.043,348.5413,350.236,354.138,357.556,361.949,366.343,370.737,373.663" svgx:width="0.72,0.39,0.5,0.39,0.39,0.55,0.44,0.39,0.5,0.5,0.5,0.33,0.28" style="fill:rgb(0,0,0);font-family:URWPalladioL-Ital;font-size:8.97px;stroke:none;">Aedes aegypti</text>
   <text y="498.108" x="377.876,383.245,385.4875,387.217,390.143,396.944,399.501,404.782,407.647,411.856,415.327,419.72,421.96250000000003,424.456,430.686,435.985,438.542,441.099,445.0,447.558,452.926,457.32,461.529,464.455" svgx:width="0.61,0.25,0.55,0.33,0.77,0.29,0.6,0.33,0.48,0.4,0.5,0.25,0.55,0.71,0.6,0.29,0.29,0.44,0.29,0.61,0.5,0.48,0.33,0.25" style="fill:rgb(0,0,0);font-family:URWPalladioL-Roma;font-size:8.97px;stroke:none;">L. (Diptera: Culicidae).</text>
   <text y="498.108" x="469.277,474.646,478.547,481.966,485.867,489.285,491.728,494.654,498.556,500.998,503.2405,504.97,510.831,514.249,517.667" svgx:width="0.61,0.44,0.39,0.44,0.39,0.28,0.33,0.44,0.28,0.25,0.55,0.67,0.39,0.39,0.25" style="fill:rgb(0,0,0);font-family:URWPalladioL-Ital;font-size:8.97px;stroke:none;">Parasitol. Res.</text>
   <text y="511.02" x="98.05,102.533,107.016,111.5" svgx:width="0.5,0.5,0.5,0.5" style="fill:rgb(0,0,0);font-family:URWPalladioL-Bold;font-size:8.97px;stroke:none;">2012</text>
   <text y="511.02" x="115.983" svgx:width="0.25" style="fill:rgb(0,0,0);font-family:URWPalladioL-Roma;font-size:8.97px;stroke:none;">,</text>
   <text y="511.02" x="120.466,124.949,129.432" svgx:width="0.5,0.5,0.5" style="fill:rgb(0,0,0);font-family:URWPalladioL-Ital;font-size:8.97px;stroke:none;">110</text>
   <text y="511.02" x="133.916,136.1585,138.399,142.882,147.366,151.849,156.332,160.815,165.298,169.782,174.265,178.748,180.9905,183.769" svgx:width="0.25,0.55,0.5,0.5,0.5,0.5,0.5,0.5,0.5,0.5,0.5,0.25,0.55,0.33" style="fill:rgb(0,0,0);font-family:URWPalladioL-Roma;font-size:8.97px;stroke:none;">, 1261–1268. [</text>
   <text y="511.02" x="186.755,193.112,196.493,201.388,205.19,208.992,214.981,219.276" svgx:width="0.71,0.4,0.55,0.42,0.42,0.67,0.48,0.33" style="fill:rgb(8,117,183);font-family:URWPalladioL-Roma;font-size:8.97px;stroke:none;">CrossRef</text>
   <text y="511.02" x="222.262,225.2221,227.489" svgx:width="0.33,0.55,0.33" style="fill:rgb(0,0,0);font-family:URWPalladioL-Roma;font-size:8.97px;stroke:none;">] [</text>
   <text y="511.02" x="230.475,235.891,241.298,246.256,254.738,259.033" svgx:width="0.6,0.6,0.55,0.95,0.48,0.61" style="fill:rgb(8,117,183);font-family:URWPalladioL-Roma;font-size:8.97px;stroke:none;">PubMed</text>
   <text y="511.02" x="264.512" svgx:width="0.33" style="fill:rgb(0,0,0);font-family:URWPalladioL-Roma;font-size:8.97px;stroke:none;">]</text>
   <text y="523.931" x="76.535,81.018,85.501,87.74350000000001,98.05,103.656,108.979,113.552,118.719,123.292,126.905,131.478,133.72050000000002,139.279,146.394,148.681,150.92350000000002,158.128,162.912,167.484,175.112,179.685,182.666,186.544,189.205,194.528,196.7705,202.33,209.445,211.731,213.9735,221.17,226.758,232.081,236.654,241.739,247.327,251.707,256.088,261.411,266.926,271.499,276.822,279.0645,284.632,288.995,291.281,293.5235,300.729,309.042,314.036,319.358,324.443,328.321,330.983,336.305,341.39,346.384,351.707,356.792,364.867,369.44,374.763,377.0055,382.574,386.936,389.223,391.4655,398.67,404.258,409.252,414.245,419.568,423.107,428.622,433.195,438.783,441.0255,446.585,451.523,453.81,456.0525,463.257,468.845,473.418,478.741,482.619,485.28,490.868,496.456,501.779,504.44,506.6825,512.242,515.287,517.574" svgx:width="0.5,0.5,0.25,0.55,0.61,0.58,0.5,0.56,0.5,0.4,0.5,0.25,0.55,0.78,0.25,0.25,0.55,0.61,0.5,0.83,0.5,0.33,0.42,0.29,0.58,0.25,0.55,0.78,0.25,0.25,0.55,0.61,0.58,0.5,0.56,0.61,0.48,0.48,0.58,0.6,0.5,0.58,0.25,0.55,0.6,0.25,0.25,0.55,1.0,0.55,0.58,0.56,0.42,0.29,0.58,0.56,0.55,0.58,0.56,0.88,0.5,0.58,0.25,0.55,0.6,0.25,0.25,0.55,0.61,0.55,0.55,0.58,0.4,0.6,0.5,0.61,0.25,0.55,0.61,0.25,0.25,0.55,0.61,0.5,0.58,0.42,0.29,0.61,0.61,0.58,0.29,0.25,0.55,0.33,0.25,0.25" style="fill:rgb(0,0,0);font-family:URWPalladioL-Roma;font-size:8.97px;stroke:none;">39. Thavara, U.; Tawatsin, A.; Bhakdeenuan, P.; Wongsinkongman, P.; Boonruad, T.; Bansiddhi, J.;</text>
   <text y="536.843" x="98.05,104.534,109.857,114.43,119.597,124.17,126.832,129.493,132.475,135.456,140.971,149.047,152.495,157.488,162.811,167.896,170.1385,173.585,177.956,180.243,182.4855,186.507,193.147,198.141,206.217,210.789,213.451,218.024,226.099,228.761,232.639,236.251,240.824,243.06650000000002,246.513,254.113,256.399,258.6415,262.664,267.465,270.127,273.739,276.401,281.486,286.059,289.937,294.509,297.491,300.152,304.533,309.856,312.0985,315.545,319.907,322.194,324.4365,328.468,337.119,342.634,345.296,347.957,352.53,354.7725,358.209,366.861,369.148,373.949,376.1915,379.638,385.747,390.128,395.625,400.005,402.667,405.328,409.709,415.032,417.9921,421.416,425.988,430.049,433.031,435.692,440.859,443.521,446.502,451.5252,454.99,459.983,462.9431,466.431,470.812,474.689,478.567,482.948,488.271,491.252,493.914,498.487,501.0883,504.55,509.544,512.205,514.867" svgx:width="0.71,0.58,0.5,0.56,0.5,0.29,0.29,0.33,0.33,0.6,0.88,0.4,0.55,0.58,0.56,0.25,0.55,0.6,0.25,0.25,0.55,0.73,0.55,0.88,0.5,0.29,0.5,0.88,0.29,0.42,0.4,0.5,0.25,0.55,0.83,0.25,0.25,0.55,0.52,0.29,0.4,0.29,0.56,0.5,0.42,0.5,0.33,0.29,0.48,0.58,0.25,0.55,0.6,0.25,0.25,0.55,0.95,0.6,0.29,0.29,0.5,0.25,0.55,0.95,0.25,0.52,0.25,0.55,0.67,0.48,0.6,0.48,0.29,0.29,0.48,0.58,0.33,0.55,0.5,0.44,0.33,0.29,0.56,0.29,0.33,0.56,0.55,0.55,0.33,0.55,0.48,0.42,0.42,0.48,0.58,0.33,0.29,0.5,0.29,0.55,0.55,0.29,0.29,0.42" style="fill:rgb(0,0,0);font-family:URWPalladioL-Roma;font-size:8.97px;stroke:none;">Chavalittumrong, P.; Komalamisra, N.; Siriyasatien, P.; Mulla, M.S. Repellent activity of essential oils</text>
   <text y="549.754" x="98.05,102.623,107.708,112.281,114.942,120.265,124.143,127.1031,129.383,133.444,138.438,142.498,147.583,151.031,156.025,160.598,164.658,169.981,174.362,178.1294,180.508,183.553,190.632,193.294,197.354,200.336,205.421,210.414,215.911,218.892,223.273,226.886,231.459,233.7015,236.562,242.15,244.811,249.384,252.366,255.347,258.009,263.597,268.17,272.55,274.7925,277.096,282.684,285.345,289.918,292.9,295.881,300.262,302.923,305.585,308.246,313.834,318.407,322.788,325.0305,327.343,331.915,337.238,342.7097,345.085,350.673,353.335,357.908,362.965,367.346,370.959,373.62,379.208,383.781,388.162,391.1221,393.466,396.128,401.3306,403.709,409.316,414.639,419.211,421.873,424.534,429.107,434.43,440.018" svgx:width="0.5,0.56,0.5,0.29,0.58,0.42,0.33,0.55,0.44,0.55,0.44,0.56,0.4,0.55,0.5,0.44,0.58,0.48,0.42,0.55,0.33,0.77,0.29,0.44,0.33,0.56,0.55,0.6,0.33,0.48,0.4,0.5,0.25,0.55,0.61,0.29,0.5,0.33,0.33,0.29,0.61,0.5,0.48,0.25,0.55,0.61,0.29,0.5,0.33,0.33,0.48,0.29,0.29,0.29,0.61,0.5,0.48,0.25,0.55,0.5,0.58,0.61,0.55,0.61,0.29,0.5,0.55,0.48,0.4,0.29,0.61,0.5,0.48,0.33,0.55,0.29,0.58,0.55,0.61,0.58,0.5,0.29,0.29,0.5,0.58,0.61,0.25" style="fill:rgb(0,0,0);font-family:URWPalladioL-Roma;font-size:8.97px;stroke:none;">against cockroaches (Dictyoptera: Blattidae, Blattellidae, and Blaberidae) in Thailand.</text>
   <text y="549.754" x="445.141,450.226,454.287,459.372,462.417,466.902,469.249,475.852,479.41,481.953,486.013,491.03619999999995,493.357,496.403,498.6455,500.948,505.549,508.942,513.002,517.575" svgx:width="0.56,0.44,0.56,0.33,0.5,0.55,0.72,0.39,0.28,0.44,0.56,0.55,0.33,0.25,0.55,0.61,0.39,0.44,0.5,0.25" style="fill:rgb(0,0,0);font-family:URWPalladioL-Ital;font-size:8.97px;stroke:none;">South Asian J. Trop.</text>
   <text y="562.666" x="98.05,106.514,110.002,114.485,116.7275,119.507,124.985,129.97,134.122,136.36450000000002,139.143,146.119,149.607,153.588,156.081,159.066" svgx:width="0.94,0.39,0.5,0.25,0.55,0.61,0.56,0.46,0.25,0.55,0.78,0.39,0.44,0.28,0.33,0.5" style="fill:rgb(0,0,0);font-family:URWPalladioL-Ital;font-size:8.97px;stroke:none;">Med. Pub. Health</text>
   <text y="562.666" x="165.791,170.274,174.757,179.241" svgx:width="0.5,0.5,0.5,0.5" style="fill:rgb(0,0,0);font-family:URWPalladioL-Bold;font-size:8.97px;stroke:none;">2007</text>
   <text y="562.666" x="183.723" svgx:width="0.25" style="fill:rgb(0,0,0);font-family:URWPalladioL-Roma;font-size:8.97px;stroke:none;">,</text>
   <text y="562.666" x="188.207,192.69" svgx:width="0.5,0.5" style="fill:rgb(0,0,0);font-family:URWPalladioL-Ital;font-size:8.97px;stroke:none;">38</text>
   <text y="562.666" x="197.173,199.4155,201.656,206.139,210.623,215.106,219.589,224.072,228.555,233.039" svgx:width="0.25,0.55,0.5,0.5,0.5,0.5,0.5,0.5,0.5,0.25" style="fill:rgb(0,0,0);font-family:URWPalladioL-Roma;font-size:8.97px;stroke:none;">, 663–673.</text>
   <text y="575.578" x="76.535,81.018,85.501,87.74350000000001,98.054,103.533,107.828,111.208,115.503,120.721,125.68,130.163,135.57,143.487,145.7295,147.97,156.453,158.694,164.684,166.9265,169.167,176.134,178.743,182.724,187.943,192.237,200.155,202.764,206.745,211.228,213.82930000000002,216.079,218.688,223.907,226.83,231.125,234.666,239.15,243.131,246.054,248.663,253.559,258.777,262.5444,264.82,269.304,277.221,282.117,287.335,292.35819999999995,294.562,297.171,302.3736,304.631,310.02,312.629,317.112,322.331,325.254,329.056" svgx:width="0.5,0.5,0.25,0.55,0.61,0.48,0.4,0.48,0.58,0.55,0.5,0.6,0.88,0.25,0.55,0.95,0.25,0.67,0.25,0.55,0.78,0.29,0.44,0.58,0.48,0.88,0.29,0.44,0.5,0.29,0.55,0.29,0.58,0.33,0.48,0.4,0.5,0.44,0.33,0.29,0.55,0.58,0.42,0.55,0.5,0.88,0.55,0.58,0.56,0.55,0.29,0.58,0.55,0.6,0.29,0.5,0.58,0.33,0.42,0.25" style="fill:rgb(0,0,0);font-family:URWPalladioL-Roma;font-size:8.97px;stroke:none;">40. Berenbaum, M.R. Alchemical interactions among in plants.</text>
   <text y="575.578" x="334.079,340.06,343.547,347.197,350.685,355.67,358.656,360.8985,363.677,370.151,374.634,376.8765,379.655,385.134,389.617,394.1,397.086,401.067,404.716,409.199,412.687,419.663" svgx:width="0.67,0.39,0.41,0.39,0.56,0.33,0.25,0.55,0.72,0.5,0.25,0.55,0.61,0.5,0.5,0.33,0.44,0.41,0.5,0.39,0.78,0.25" style="fill:rgb(0,0,0);font-family:URWPalladioL-Ital;font-size:8.97px;stroke:none;">Recent. Ad. Phytochem.</text>
   <text y="575.578" x="424.683,429.166,433.649,438.133" svgx:width="0.5,0.5,0.5,0.5" style="fill:rgb(0,0,0);font-family:URWPalladioL-Bold;font-size:8.97px;stroke:none;">1985</text>
   <text y="575.578" x="442.616" svgx:width="0.25" style="fill:rgb(0,0,0);font-family:URWPalladioL-Roma;font-size:8.97px;stroke:none;">,</text>
   <text y="575.578" x="447.099,451.582" svgx:width="0.5,0.5" style="fill:rgb(0,0,0);font-family:URWPalladioL-Ital;font-size:8.97px;stroke:none;">19</text>
   <text y="575.578" x="456.065,458.3075,460.548,465.031,469.515,473.998,478.481,482.964,487.448,491.931" svgx:width="0.25,0.55,0.5,0.5,0.5,0.5,0.5,0.5,0.5,0.25" style="fill:rgb(0,0,0);font-family:URWPalladioL-Roma;font-size:8.97px;stroke:none;">, 139–169.</text>
   <text y="588.489" x="76.535,81.018,85.501,87.74350000000001,98.05,103.563,108.127,113.284,117.657,120.313,124.877,127.1195,129.386,135.483,137.7255,140.001,145.578,149.449,153.319,157.691,163.003,165.979,168.635,173.199,175.80030000000002,178.083,183.066,185.722,188.379,192.1464,194.476,197.516,202.499,206.087,208.341,211.317,216.629,220.9346,223.229,228.806,233.178,238.335,242.707,245.364,250.347,255.833,263.893,268.265,273.578,276.5381,278.78,283.764,286.7241,289.04,293.412,297.465,302.449,305.488,308.528,312.133,314.789,319.162,324.474,330.051,332.707,337.73019999999997,340.01,348.069,353.053,356.923,362.035,367.539,370.195,373.171,378.1045,380.382,383.038,387.602,391.207,396.365,399.021,403.073,405.73,411.307,415.679,419.549,421.7915,424.606,430.703,435.076,440.233,442.889,447.261,454.052" svgx:width="0.5,0.5,0.25,0.55,0.6,0.5,0.56,0.48,0.29,0.5,0.25,0.55,0.67,0.25,0.55,0.61,0.42,0.42,0.48,0.58,0.33,0.29,0.5,0.29,0.55,0.55,0.29,0.29,0.42,0.55,0.33,0.55,0.4,0.55,0.33,0.58,0.48,0.55,0.61,0.48,0.56,0.48,0.29,0.55,0.6,0.88,0.48,0.58,0.33,0.55,0.55,0.33,0.55,0.48,0.44,0.55,0.33,0.33,0.4,0.29,0.48,0.58,0.61,0.29,0.56,0.55,0.88,0.55,0.42,0.56,0.6,0.29,0.33,0.55,0.55,0.29,0.5,0.4,0.56,0.29,0.44,0.29,0.61,0.48,0.42,0.25,0.55,0.67,0.48,0.56,0.29,0.48,0.83,0.25" style="fill:rgb(0,0,0);font-family:URWPalladioL-Roma;font-size:8.97px;stroke:none;">41. Pavela, R. Essential oils for the development of eco-friendly mosquito larvicides: Review.</text>
   <text y="588.489" x="459.108,462.148,467.223,471.786,474.0285,476.843,482.932,486.318,490.371,494.935,497.1775,500.0,505.578,508.964,513.017,517.581" svgx:width="0.33,0.56,0.5,0.25,0.55,0.67,0.39,0.44,0.5,0.25,0.55,0.61,0.39,0.44,0.5,0.25" style="fill:rgb(0,0,0);font-family:URWPalladioL-Ital;font-size:8.97px;stroke:none;">Ind. Crop. Prod.</text>
   <text y="601.401" x="98.05,102.533,107.016,111.5" svgx:width="0.5,0.5,0.5,0.5" style="fill:rgb(0,0,0);font-family:URWPalladioL-Bold;font-size:8.97px;stroke:none;">2015</text>
   <text y="601.401" x="115.983" svgx:width="0.25" style="fill:rgb(0,0,0);font-family:URWPalladioL-Roma;font-size:8.97px;stroke:none;">,</text>
   <text y="601.401" x="120.466,124.949" svgx:width="0.5,0.5" style="fill:rgb(0,0,0);font-family:URWPalladioL-Ital;font-size:8.97px;stroke:none;">76</text>
   <text y="601.401" x="129.433,131.6755,133.916,138.399,142.883,147.366,151.849,156.332,160.815,165.299,167.5415,170.32" svgx:width="0.25,0.55,0.5,0.5,0.5,0.5,0.5,0.5,0.5,0.25,0.55,0.33" style="fill:rgb(0,0,0);font-family:URWPalladioL-Roma;font-size:8.97px;stroke:none;">, 174–187. [</text>
   <text y="601.401" x="173.306,179.663,183.043,187.939,191.741,195.542,201.532,205.827" svgx:width="0.71,0.4,0.55,0.42,0.42,0.67,0.48,0.33" style="fill:rgb(8,117,183);font-family:URWPalladioL-Roma;font-size:8.97px;stroke:none;">CrossRef</text>
   <text y="601.401" x="208.813" svgx:width="0.33" style="fill:rgb(0,0,0);font-family:URWPalladioL-Roma;font-size:8.97px;stroke:none;">]</text>
   <text y="614.312" x="76.535,81.018,85.501,87.74350000000001,98.05,105.005,107.097,111.567,115.849,120.819,125.762,131.153,133.3955,135.614,141.076,143.311,148.773,151.008,153.25050000000002,155.477,162.397,166.866,172.069,177.039,181.509,183.7515,185.97,190.663,192.898,197.144,199.379,204.35,206.585,208.82750000000001,211.045,217.383,222.586,225.188,227.279,232.16,237.131,241.413,243.65550000000002,245.883,248.895,251.13,258.085,260.32,262.5625,264.79,271.816,276.786,281.667,286.638,290.92,293.1625,295.381,299.529,301.763,307.225,309.46,315.798,318.0405,320.259,328.716,333.597,337.387,342.393,347.784,350.385,353.3,358.2335,360.406,364.876,370.338,375.729,378.33,381.244,383.846,387.815,390.416,395.878,400.348,402.9493,405.176,409.645,413.614,416.529,419.13,424.181,426.782,429.697,434.7202,436.902,441.783,444.7431,446.986,449.9,455.103,459.40860000000004,461.611,464.212,468.494,472.964,475.9241,478.176,482.458,487.07,489.976,493.507,497.977,501.946,504.86,508.6274,510.885,515.766" svgx:width="0.5,0.5,0.25,0.55,0.78,0.23,0.5,0.48,0.56,0.55,0.6,0.25,0.55,0.61,0.25,0.61,0.25,0.25,0.55,0.77,0.5,0.58,0.56,0.5,0.25,0.55,0.52,0.25,0.6,0.25,0.67,0.25,0.25,0.55,0.71,0.58,0.29,0.23,0.55,0.56,0.48,0.25,0.55,0.34,0.25,0.78,0.25,0.25,0.55,0.79,0.56,0.55,0.56,0.48,0.25,0.55,0.56,0.25,0.61,0.25,0.71,0.25,0.55,0.95,0.55,0.42,0.56,0.6,0.29,0.33,0.55,0.55,0.5,0.61,0.6,0.29,0.33,0.29,0.44,0.29,0.61,0.5,0.29,0.55,0.5,0.44,0.33,0.29,0.56,0.29,0.33,0.56,0.55,0.55,0.33,0.55,0.33,0.58,0.48,0.55,0.29,0.48,0.5,0.33,0.55,0.48,0.52,0.33,0.4,0.5,0.44,0.33,0.42,0.55,0.55,0.33" style="fill:rgb(0,0,0);font-family:URWPalladioL-Roma;font-size:8.97px;stroke:none;">42. Ajaegbu, E.E.; Danga, S.P.Y.; Chijoke, I.U.; Okoye, F.B.C. Mosquito adulticidal activity of the leaf extracts of</text>
   <text y="627.224" x="97.799,102.854,107.4,111.437,116.492,121.038,123.566,127.602,131.1003,133.385,140.458,144.495,151.569,155.778,158.306" svgx:width="0.56,0.5,0.44,0.56,0.5,0.28,0.44,0.39,0.55,0.78,0.44,0.78,0.46,0.28,0.56" style="fill:rgb(0,0,0);font-family:URWPalladioL-Ital;font-size:8.97px;stroke:none;">Spondias mombin</text>
   <text y="627.224" x="165.607,171.162,173.4045,175.681,180.227,185.282,189.828,192.474,197.765,201.62" svgx:width="0.61,0.25,0.55,0.5,0.56,0.5,0.29,0.58,0.42,0.33" style="fill:rgb(0,0,0);font-family:URWPalladioL-Roma;font-size:8.97px;stroke:none;">L. against</text>
   <text y="627.224" x="206.831,213.395,216.932,221.478,225.015,228.5133,230.797,234.834,238.371,242.917,247.463,252.009,255.036" svgx:width="0.72,0.39,0.5,0.39,0.39,0.55,0.44,0.39,0.5,0.5,0.5,0.33,0.28" style="fill:rgb(0,0,0);font-family:URWPalladioL-Ital;font-size:8.97px;stroke:none;">Aedes aegypti</text>
   <text y="627.224" x="259.811,265.366,267.6085,269.885,274.431,279.722,285.1937,287.523,290.169,294.024,298.988,301.634,306.18,309.144,311.79,316.754,321.95660000000004,324.291,329.255,332.2151,334.528,339.074,343.111,346.075,348.721,353.858,358.16360000000003,360.459,365.923,369.514,372.16,377.451,381.488,384.134,389.598,392.244,396.599,400.454" svgx:width="0.61,0.25,0.55,0.5,0.58,0.61,0.55,0.29,0.42,0.55,0.29,0.5,0.33,0.29,0.55,0.58,0.55,0.55,0.33,0.55,0.5,0.44,0.33,0.29,0.56,0.48,0.55,0.6,0.4,0.29,0.58,0.44,0.29,0.6,0.29,0.48,0.42,0.25" style="fill:rgb(0,0,0);font-family:URWPalladioL-Roma;font-size:8.97px;stroke:none;">L. and isolation of active principles.</text>
   <text y="627.224" x="405.523,408.551,410.7935,413.069,418.806,422.343,426.043,429.071,433.108,435.981,438.2235,441.054,446.609,450.646,454.183,459.238,462.775,465.0175,467.839,474.913,477.44,480.977" svgx:width="0.33,0.25,0.55,0.72,0.39,0.41,0.33,0.44,0.39,0.25,0.55,0.61,0.44,0.39,0.56,0.39,0.25,0.55,0.78,0.28,0.39,0.25" style="fill:rgb(0,0,0);font-family:URWPalladioL-Ital;font-size:8.97px;stroke:none;">J. Vector. Borne. Dis.</text>
   <text y="627.224" x="486.043,490.526,495.009,499.493" svgx:width="0.5,0.5,0.5,0.5" style="fill:rgb(0,0,0);font-family:URWPalladioL-Bold;font-size:8.97px;stroke:none;">2016</text>
   <text y="627.224" x="503.976" svgx:width="0.25" style="fill:rgb(0,0,0);font-family:URWPalladioL-Roma;font-size:8.97px;stroke:none;">,</text>
   <text y="627.224" x="508.496,513.042" svgx:width="0.5,0.5" style="fill:rgb(0,0,0);font-family:URWPalladioL-Ital;font-size:8.97px;stroke:none;">53</text>
   <text y="627.224" x="517.588" svgx:width="0.25" style="fill:rgb(0,0,0);font-family:URWPalladioL-Roma;font-size:8.97px;stroke:none;">,</text>
   <text y="640.136" x="97.602,102.085,106.568,111.052,115.535,120.018,122.26050000000001,125.039" svgx:width="0.5,0.5,0.5,0.5,0.5,0.25,0.55,0.33" style="fill:rgb(0,0,0);font-family:URWPalladioL-Roma;font-size:8.97px;stroke:none;">17–22. [</text>
   <text y="640.136" x="128.025,133.441,138.847,143.806,152.288,156.583" svgx:width="0.6,0.6,0.55,0.95,0.48,0.61" style="fill:rgb(8,117,183);font-family:URWPalladioL-Roma;font-size:8.97px;stroke:none;">PubMed</text>
   <text y="640.136" x="162.061" svgx:width="0.33" style="fill:rgb(0,0,0);font-family:URWPalladioL-Roma;font-size:8.97px;stroke:none;">]</text>
   <text y="653.047" x="76.535,81.018,85.501,87.74350000000001,98.05,106.702,111.275,116.598,120.475,125.469,130.984,133.929,136.1715,139.352,144.154,146.44,153.555,155.842,158.08450000000002,161.704,170.356,174.737,178.615,182.493,186.873,192.196,196.769,199.0115,202.192,206.994,209.28,214.082,216.368,218.6105,222.231,227.819,230.48,233.526,240.504,244.885,250.208,255.293,259.865,262.527,267.85,270.511,272.75350000000003,275.934,280.736,283.022,288.61,290.8525,294.025,299.613,304.606,307.588,312.161,317.484,320.145,324.206,328.779,331.3803,334.577,339.635,342.296,347.289,351.35,354.012,359.6,363.98,367.7474,370.986,374.032,379.025,382.613,385.775,393.85,398.844,402.722,407.843,413.358,416.02,419.001,423.995,428.055,430.717,436.305,440.878,443.47929999999997,446.676,451.249,455.31,458.291,460.953,466.111,468.772,471.754,476.7772,479.976,484.969,487.9291,491.152,495.212,499.593,503.206,506.187,510.76,513.422" svgx:width="0.5,0.5,0.25,0.55,0.95,0.5,0.58,0.42,0.55,0.6,0.4,0.25,0.55,0.52,0.25,0.78,0.25,0.25,0.55,0.95,0.48,0.42,0.42,0.48,0.58,0.5,0.25,0.55,0.52,0.25,0.52,0.25,0.25,0.55,0.61,0.29,0.33,0.76,0.48,0.58,0.56,0.5,0.29,0.58,0.29,0.25,0.55,0.52,0.25,0.61,0.25,0.55,0.61,0.55,0.33,0.5,0.58,0.29,0.44,0.5,0.29,0.55,0.55,0.29,0.55,0.44,0.29,0.61,0.48,0.42,0.55,0.33,0.55,0.4,0.55,0.88,0.55,0.42,0.56,0.6,0.29,0.33,0.55,0.44,0.29,0.61,0.5,0.29,0.55,0.5,0.44,0.33,0.29,0.56,0.29,0.33,0.56,0.55,0.55,0.33,0.55,0.44,0.48,0.4,0.33,0.5,0.29,0.58" style="fill:rgb(0,0,0);font-family:URWPalladioL-Roma;font-size:8.97px;stroke:none;">43. Mansour, S.A.; Messeha, S.S.; El-Gengaihi, S.E. Botanical biocides for mosquitocidal activity of certain</text>
   <text y="665.959" x="97.504,102.982,107.466,111.949,118.925,123.91,127.4083,129.64,133.289,137.27,141.753,144.246,147.232,151.213,154.199,159.184" svgx:width="0.61,0.5,0.5,0.78,0.56,0.39,0.55,0.41,0.44,0.5,0.28,0.33,0.44,0.33,0.56,0.39" style="fill:rgb(0,0,0);font-family:URWPalladioL-Ital;font-size:8.97px;stroke:none;">Thymus capitatus</text>
   <text y="665.959" x="164.912,168.893,173.789,179.007,182.809,185.732,188.341,191.264,196.671,200.966,206.184,209.107,212.909" svgx:width="0.44,0.55,0.58,0.42,0.33,0.29,0.33,0.6,0.48,0.58,0.33,0.42,0.25" style="fill:rgb(0,0,0);font-family:URWPalladioL-Roma;font-size:8.97px;stroke:none;">constituents.</text>
   <text y="665.959" x="217.929,220.915,223.1575,225.398,232.374,236.355,239.341,241.58350000000002,244.362,248.845,252.826,257.309,259.802,264.787,268.275" svgx:width="0.33,0.25,0.55,0.78,0.44,0.33,0.25,0.55,0.61,0.44,0.5,0.28,0.56,0.39,0.25" style="fill:rgb(0,0,0);font-family:URWPalladioL-Ital;font-size:8.97px;stroke:none;">J. Nat. Toxins.</text>
   <text y="665.959" x="273.296,277.779,282.262,286.746" svgx:width="0.5,0.5,0.5,0.5" style="fill:rgb(0,0,0);font-family:URWPalladioL-Bold;font-size:8.97px;stroke:none;">2000</text>
   <text y="665.959" x="291.229" svgx:width="0.25" style="fill:rgb(0,0,0);font-family:URWPalladioL-Roma;font-size:8.97px;stroke:none;">,</text>
   <text y="665.959" x="295.712" svgx:width="0.5" style="fill:rgb(0,0,0);font-family:URWPalladioL-Ital;font-size:8.97px;stroke:none;">9</text>
   <text y="665.959" x="300.195,302.4375,304.678,309.161,313.645,318.128,322.611,327.094,329.3365,332.115" svgx:width="0.25,0.55,0.5,0.5,0.5,0.5,0.5,0.25,0.55,0.33" style="fill:rgb(0,0,0);font-family:URWPalladioL-Roma;font-size:8.97px;stroke:none;">, 49–62. [</text>
   <text y="665.959" x="335.101,340.517,345.924,350.882,359.364,363.659" svgx:width="0.6,0.6,0.55,0.95,0.48,0.61" style="fill:rgb(8,117,183);font-family:URWPalladioL-Roma;font-size:8.97px;stroke:none;">PubMed</text>
   <text y="665.959" x="369.138" svgx:width="0.33" style="fill:rgb(0,0,0);font-family:URWPalladioL-Roma;font-size:8.97px;stroke:none;">]</text>
   <text y="678.871" x="76.535,81.018,85.501,87.74350000000001,98.05,106.363,111.661,115.062,120.36,125.246,129.64,134.754,136.9965,139.103,145.483,147.679,149.9215,152.055,157.424,161.818,166.677,171.976,174.2185,176.316,182.186,184.383,186.62550000000002,188.768,191.694,195.903,200.788,205.182,210.041,214.435,216.992,221.385,226.499,228.7415,230.84,237.641,239.838,242.0805,244.223,248.836,253.045,258.159,261.024,266.138,268.695,271.2963,273.396,279.775,285.074,292.833,297.227,300.038,302.2805,304.379,311.681,313.878,316.1205,318.263,322.876,325.433,330.398,334.791,338.262,342.656,350.415,354.808,359.694,363.165,365.722,369.447,374.562,379.676,384.069,389.183,391.4255,393.524,398.137,400.3795,402.487,409.323,414.437,417.302,419.859,425.14,430.439,435.72,440.113,442.978,445.535,450.332,455.447,459.84,462.44129999999996,464.55,468.759,471.518,474.453,478.662,482.563,485.5231,487.572,492.37,495.3301,497.449,502.563,506.772,510.981" svgx:width="0.5,0.5,0.25,0.55,0.95,0.6,0.4,0.6,0.56,0.5,0.58,0.25,0.55,0.73,0.25,0.25,0.55,0.61,0.5,0.55,0.6,0.25,0.55,0.67,0.25,0.25,0.55,0.33,0.48,0.56,0.5,0.55,0.5,0.29,0.5,0.58,0.25,0.55,0.77,0.25,0.25,0.55,0.52,0.48,0.58,0.33,0.58,0.29,0.29,0.55,0.73,0.6,0.88,0.5,0.4,0.25,0.55,0.83,0.25,0.25,0.55,0.52,0.29,0.56,0.5,0.4,0.5,0.88,0.5,0.56,0.4,0.29,0.42,0.58,0.58,0.5,0.58,0.25,0.55,0.52,0.25,0.55,0.78,0.58,0.33,0.29,0.6,0.6,0.6,0.5,0.33,0.29,0.55,0.58,0.5,0.29,0.55,0.48,0.33,0.33,0.48,0.44,0.33,0.55,0.55,0.33,0.55,0.58,0.48,0.48,0.88" style="fill:rgb(0,0,0);font-family:URWPalladioL-Roma;font-size:8.97px;stroke:none;">44. Murugan, K.; Babu, R.; Jeyabalan, D.; Senthil Kumar, N.; Sivaramakrishnan, S. Antipupational effect of neem</text>
   <text y="691.782" x="98.055,102.647,104.992,107.5933,109.522,113.709,118.618,124.0897,125.969,130.878,134.88,138.881,148.63,152.146,156.148,160.149,165.6207,167.5,172.18,176.182,179.443,184.353,188.354,190.95530000000002,192.884,196.886,201.214,203.867,207.128,211.314,215.008,217.96810000000002,219.846,224.033,228.713,232.9,235.244,240.154,243.671,246.6311,248.509,256.072,260.664,264.181,268.896,273.991,276.335,278.988,283.9215,285.757,288.102,292.289,295.55,300.309,304.496,308.8016,310.683,315.275" svgx:width="0.55,0.29,0.29,0.55,0.5,0.58,0.61,0.55,0.58,0.48,0.48,0.88,0.42,0.48,0.48,0.61,0.55,0.56,0.48,0.4,0.58,0.48,0.29,0.55,0.48,0.52,0.33,0.4,0.5,0.44,0.33,0.55,0.5,0.56,0.5,0.29,0.58,0.42,0.33,0.55,0.88,0.55,0.42,0.56,0.6,0.29,0.33,0.55,0.55,0.29,0.5,0.4,0.56,0.5,0.48,0.55,0.55,0.33" style="fill:rgb(0,0,0);font-family:URWPalladioL-Roma;font-size:8.97px;stroke:none;">oil and neemseed kernel extract against mosquito larvae of</text>
   <text y="691.782" x="320.179,326.322,331.003,334.696,338.882,343.069,346.277,348.507,351.715,355.2133,357.11,360.318,363.033,366.241,370.428,374.614,377.823,382.503,385.711" svgx:width="0.72,0.56,0.44,0.5,0.5,0.39,0.28,0.39,0.39,0.55,0.39,0.33,0.39,0.5,0.5,0.39,0.56,0.39,0.28" style="fill:rgb(0,0,0);font-family:URWPalladioL-Ital;font-size:8.97px;stroke:none;">Anopheles stephensi</text>
   <text y="691.782" x="390.125,392.84,398.005,400.349,403.866,406.519,411.111,416.021,418.735" svgx:width="0.33,0.61,0.29,0.42,0.33,0.55,0.58,0.33,0.25" style="fill:rgb(0,0,0);font-family:URWPalladioL-Roma;font-size:8.97px;stroke:none;">(Liston).</text>
   <text y="691.782" x="422.903,425.618,427.8605,429.787,434.952,439.632,442.347,444.5895,447.053,452.712,455.92,459.129" svgx:width="0.33,0.25,0.55,0.61,0.56,0.33,0.25,0.55,0.67,0.39,0.39,0.25" style="fill:rgb(0,0,0);font-family:URWPalladioL-Ital;font-size:8.97px;stroke:none;">J. Ent. Res.</text>
   <text y="691.782" x="463.297,467.556,471.815,476.074" svgx:width="0.5,0.5,0.5,0.5" style="fill:rgb(0,0,0);font-family:URWPalladioL-Bold;font-size:8.97px;stroke:none;">1996</text>
   <text y="691.782" x="480.333" svgx:width="0.25" style="fill:rgb(0,0,0);font-family:URWPalladioL-Roma;font-size:8.97px;stroke:none;">,</text>
   <text y="691.782" x="484.502,488.689" svgx:width="0.5,0.5" style="fill:rgb(0,0,0);font-family:URWPalladioL-Ital;font-size:8.97px;stroke:none;">20</text>
   <text y="691.782" x="492.875,495.1175,497.044,501.231,505.417,509.604,513.791,517.977" svgx:width="0.25,0.55,0.5,0.5,0.5,0.5,0.5,0.25" style="fill:rgb(0,0,0);font-family:URWPalladioL-Roma;font-size:8.97px;stroke:none;">, 37–39.</text>
   <text y="704.694" x="76.535,81.018,85.501,87.74350000000001,98.05,102.852,107.232,112.555,115.537,120.859,123.521,126.1223,128.423,136.023,140.596,143.577,148.9,153.473,158.796,161.0385,163.314,168.115,170.402,172.6445,174.929,181.569,186.142,188.803,193.376,196.037,201.205,205.778,211.1,213.762,216.0045,218.28,224.92,227.206,229.4485,231.733,240.385,245.9,249.439,254.954,260.039,264.612,269.935,272.1775,274.462,281.102,283.388,285.6305,287.915,294.4,299.723,305.237,310.56,315.645,317.8875,320.163,324.535,326.821,333.799,336.0415,338.317,343.924,349.247,353.55260000000004,355.868,358.85,363.843,368.562,371.224,375.284,377.946,380.927,385.9502,388.244,392.817,398.14,403.6117,405.968,411.465,416.788,421.873,425.751,428.412,433.406,436.067,441.061,446.146,448.807,452.868,457.441,460.04229999999995,462.334,466.714,469.604,472.641,477.022,481.082,484.0421,486.304,491.298,494.2581,496.584,501.907,506.288,510.669" svgx:width="0.5,0.5,0.25,0.55,0.52,0.48,0.58,0.33,0.58,0.29,0.29,0.55,0.83,0.5,0.33,0.58,0.5,0.58,0.25,0.55,0.52,0.25,0.25,0.55,0.73,0.5,0.29,0.5,0.29,0.56,0.5,0.58,0.29,0.25,0.55,0.73,0.25,0.25,0.55,0.95,0.6,0.4,0.6,0.56,0.5,0.58,0.25,0.55,0.73,0.25,0.25,0.55,0.71,0.58,0.6,0.58,0.56,0.25,0.55,0.6,0.25,0.76,0.25,0.55,0.61,0.58,0.48,0.55,0.33,0.55,0.52,0.29,0.44,0.29,0.33,0.56,0.55,0.5,0.58,0.61,0.55,0.6,0.58,0.56,0.42,0.29,0.55,0.29,0.55,0.56,0.29,0.44,0.5,0.29,0.55,0.48,0.33,0.33,0.48,0.44,0.33,0.55,0.55,0.33,0.55,0.58,0.48,0.48,0.88" style="fill:rgb(0,0,0);font-family:URWPalladioL-Roma;font-size:8.97px;stroke:none;">45. Senthil Nathan, S.; Kalaivani, K.; Murugan, K.; Chung, P.G. The toxicity and physiological effect of neem</text>
   <text y="717.605" x="98.05,100.711,103.373,111.448,116.442,121.765,126.758,129.42,135.008,138.77540000000002,141.483,146.477,151.6796,154.397,160.881,166.204,170.777,176.273,181.596,186.169,188.83,193.824,197.885,201.333,206.326,210.387,213.048,216.8154,219.524,227.599,231.98,237.568,240.229,245.552,250.125,252.787,255.448,259.2154,261.923,264.969,271.947,277.462,281.842,287.165,291.543,294.529,298.91,301.955,304.1975,306.931,309.912,315.235,319.54060000000004,322.204,325.816,328.478,332.539,336.8446,339.517,342.178,346.559,351.132,354.0921,356.775,359.82,364.814,367.475,373.063,377.444,380.398" svgx:width="0.29,0.29,0.88,0.55,0.58,0.55,0.29,0.61,0.42,0.55,0.55,0.58,0.55,0.71,0.58,0.5,0.6,0.58,0.5,0.29,0.55,0.44,0.4,0.55,0.44,0.29,0.42,0.55,0.88,0.48,0.61,0.29,0.58,0.5,0.29,0.29,0.42,0.55,0.33,0.76,0.6,0.48,0.58,0.48,0.33,0.48,0.33,0.25,0.55,0.33,0.58,0.48,0.55,0.4,0.29,0.44,0.48,0.55,0.29,0.48,0.5,0.33,0.55,0.33,0.55,0.29,0.61,0.48,0.4,0.25" style="fill:rgb(0,0,0);font-family:URWPalladioL-Roma;font-size:8.97px;stroke:none;">limonoids on Cnaphalocrocis medinalis (Guene´e), the rice leaf folder.</text>
   <text y="717.605" x="386.525,392.113,395.671,399.228,402.274,404.816,408.539,410.7815,414.666,420.254,422.797,426.858,430.58,435.153,438.711,445.826,448.06850000000003,451.954,457.542,462.115,466.687,470.245,472.788,476.848,479.391" svgx:width="0.61,0.39,0.39,0.33,0.28,0.41,0.25,0.55,0.61,0.28,0.44,0.41,0.5,0.39,0.78,0.25,0.55,0.61,0.5,0.5,0.39,0.28,0.44,0.28,0.25" style="fill:rgb(0,0,0);font-family:URWPalladioL-Ital;font-size:8.97px;stroke:none;">Pestic. Biochem. Physiol.</text>
   <text y="717.605" x="485.525,490.008,494.491,498.975" svgx:width="0.5,0.5,0.5,0.5" style="fill:rgb(0,0,0);font-family:URWPalladioL-Bold;font-size:8.97px;stroke:none;">2005</text>
   <text y="717.605" x="503.457" svgx:width="0.25" style="fill:rgb(0,0,0);font-family:URWPalladioL-Roma;font-size:8.97px;stroke:none;">,</text>
   <text y="717.605" x="508.429,513.002" svgx:width="0.5,0.5" style="fill:rgb(0,0,0);font-family:URWPalladioL-Ital;font-size:8.97px;stroke:none;">81</text>
   <text y="717.605" x="517.575" svgx:width="0.25" style="fill:rgb(0,0,0);font-family:URWPalladioL-Roma;font-size:8.97px;stroke:none;">,</text>
   <text y="730.517" x="97.602,102.085,106.568,111.052,115.535,120.018,124.501,128.984,131.22650000000002,134.006" svgx:width="0.5,0.5,0.5,0.5,0.5,0.5,0.5,0.25,0.55,0.33" style="fill:rgb(0,0,0);font-family:URWPalladioL-Roma;font-size:8.97px;stroke:none;">113–122. [</text>
   <text y="730.517" x="136.991,143.349,146.729,151.625,155.426,159.228,165.218,169.513" svgx:width="0.71,0.4,0.55,0.42,0.42,0.67,0.48,0.33" style="fill:rgb(8,117,183);font-family:URWPalladioL-Roma;font-size:8.97px;stroke:none;">CrossRef</text>
   <text y="730.517" x="172.498" svgx:width="0.33" style="fill:rgb(0,0,0);font-family:URWPalladioL-Roma;font-size:8.97px;stroke:none;">]</text>
   <text y="743.429" x="76.535,81.018,85.501,87.74350000000001,98.05,102.8,107.133,112.399,115.348,120.613,123.246,125.84729999999999,128.123,135.641,140.164,143.114,148.379,152.903,158.168,160.4105,162.673,167.423,169.685,171.9275,174.199,180.614,185.879,191.335,196.6,201.63,203.8725,206.136,210.442,212.704,219.607,221.869,224.1115,226.374,234.933,240.388,243.889,249.345,254.375,258.898,264.164,266.4065,268.678,275.247,277.4895,279.752,285.28,288.13,291.142,295.476,299.493,302.4531,304.686,309.626,312.5861,314.882,319.885,324.825,327.774,332.298,337.563,340.196,344.213,348.736,351.369,355.13640000000004,357.448,361.972,367.237,372.7087,375.009,380.012,384.536,388.552,391.502,395.835,399.409,402.042,406.565,409.1663,411.442,414.391,419.331,423.999,426.632,431.8346,434.141,439.08,444.2826,446.599,449.548,454.813,459.1186,461.391,466.421,471.876,474.8361,477.069,481.403,486.668,491.192,496.222,504.21,508.5156,510.788,515.727" svgx:width="0.5,0.5,0.25,0.55,0.52,0.48,0.58,0.33,0.58,0.29,0.29,0.55,0.83,0.5,0.33,0.58,0.5,0.58,0.25,0.55,0.52,0.25,0.25,0.55,0.71,0.58,0.6,0.58,0.56,0.25,0.55,0.6,0.25,0.76,0.25,0.25,0.55,0.95,0.6,0.4,0.6,0.56,0.5,0.58,0.25,0.55,0.73,0.25,0.55,0.61,0.33,0.33,0.48,0.44,0.33,0.55,0.55,0.33,0.55,0.55,0.55,0.33,0.5,0.58,0.29,0.44,0.5,0.29,0.42,0.55,0.5,0.58,0.61,0.55,0.55,0.5,0.44,0.33,0.48,0.4,0.29,0.5,0.29,0.55,0.33,0.55,0.52,0.29,0.58,0.55,0.55,0.58,0.55,0.33,0.58,0.48,0.55,0.56,0.6,0.33,0.55,0.48,0.58,0.5,0.56,0.88,0.48,0.55,0.55,0.33" style="fill:rgb(0,0,0);font-family:URWPalladioL-Roma;font-size:8.97px;stroke:none;">46. Senthil Nathan, S.; Chung, P.G.; Murugan, K. Effect of botanicals and bacterial toxin on the gut enzyme of</text>
   <text y="756.34" x="98.05,104.407,109.626,114.109,119.498,124.716,129.199,131.809,136.704,140.685,144.066,148.961,152.942,155.552,159.3194,161.595,169.512,173.807,179.286,181.895,187.113,191.596,194.206,196.815,200.617" svgx:width="0.71,0.58,0.5,0.6,0.58,0.5,0.29,0.55,0.44,0.4,0.55,0.44,0.29,0.42,0.55,0.88,0.48,0.61,0.29,0.58,0.5,0.29,0.29,0.42,0.25" style="fill:rgb(0,0,0);font-family:URWPalladioL-Roma;font-size:8.97px;stroke:none;">Cnaphalocrocis medinalis.</text>
   <text y="756.34" x="205.637,211.115,215.599,220.082,223.068,227.049,231.532,235.513,239.001,242.982,246.47,248.963,252.612,256.593" svgx:width="0.61,0.5,0.5,0.33,0.44,0.5,0.44,0.39,0.44,0.39,0.28,0.41,0.44,0.25" style="fill:rgb(0,0,0);font-family:URWPalladioL-Ital;font-size:8.97px;stroke:none;">Phytoparasica.</text>
   <text y="756.34" x="261.613,266.096,270.579,275.063" svgx:width="0.5,0.5,0.5,0.5" style="fill:rgb(0,0,0);font-family:URWPalladioL-Bold;font-size:8.97px;stroke:none;">2004</text>
   <text y="756.34" x="279.546" svgx:width="0.25" style="fill:rgb(0,0,0);font-family:URWPalladioL-Roma;font-size:8.97px;stroke:none;">,</text>
   <text y="756.34" x="284.029,288.512" svgx:width="0.5,0.5" style="fill:rgb(0,0,0);font-family:URWPalladioL-Ital;font-size:8.97px;stroke:none;">32</text>
   <text y="756.34" x="292.996,295.2385,297.479,301.962,306.446,310.929,315.412,319.895,324.379,328.862,333.345,337.828" svgx:width="0.25,0.55,0.5,0.5,0.5,0.5,0.5,0.5,0.5,0.5,0.5,0.25" style="fill:rgb(0,0,0);font-family:URWPalladioL-Roma;font-size:8.97px;stroke:none;">, 4334–4343.</text>
  </g>
 </g>
</svg>
