<?xml version="1.0" encoding="UTF-8"?>
<svg height="367.72" width="775.355" xmlns="http://www.w3.org/2000/svg">
 <g id="page" xmlns:svgx="http://www.xml-cml.org/schema/svgx">
  <g begin="text">
   <text y="62.979" x="76.312,80.743,84.282,87.821,91.806" svgx:width="0.56,0.44,0.44,0.5,0.39" style="fill:rgb(0,0,0);font-family:URWPalladioL-Ital;font-size:7.97px;stroke:none;">Foods</text>
   <text y="62.979" x="96.899,100.884,104.869,108.854" svgx:width="0.5,0.5,0.5,0.5" style="fill:rgb(0,0,0);font-family:URWPalladioL-Bold;font-size:7.97px;stroke:none;">2018</text>
   <text y="62.979" x="112.839" svgx:width="0.25" style="fill:rgb(0,0,0);font-family:URWPalladioL-Roma;font-size:7.97px;stroke:none;">,</text>
   <text y="62.979" x="116.824" svgx:width="0.5" style="fill:rgb(0,0,0);font-family:URWPalladioL-Ital;font-size:7.97px;stroke:none;">7</text>
   <text y="62.979" x="120.809,122.8015,124.794,128.779,132.764,742.409,746.394,748.387,752.738,755.3681,757.385,761.37" svgx:width="0.25,0.55,0.5,0.5,0.55,0.5,0.55,0.55,0.33,0.55,0.5,0.5" style="fill:rgb(0,0,0);font-family:URWPalladioL-Roma;font-size:7.97px;stroke:none;">, 60 7 of 11</text>
   <text y="96.861" x="226.843,231.828,236.312,241.79,244.776,249.26100000000002,251.501,255.984" svgx:width="0.67,0.5,0.61,0.33,0.5,0.55,0.5,0.25" style="fill:rgb(0,0,0);font-family:URWPalladioL-Bold;font-size:8.97px;stroke:none;">Table 3.</text>
   <text y="96.861" x="261.005,269.487,273.97,276.069,280.964,284.552,286.748,291.231,296.449,301.9207,304.169,307.092,310.634,315.117,319.098,323.40360000000004,325.635,329.93,332.539,336.834,344.751,349.046,354.264,357.187,360.9544,363.231,367.212,372.108,380.025,385.414,390.309,394.111,396.72,399.643,402.253,407.148,412.35060000000004,414.608,419.504" svgx:width="0.95,0.5,0.23,0.55,0.4,0.55,0.5,0.58,0.61,0.55,0.33,0.4,0.5,0.44,0.48,0.55,0.48,0.29,0.48,0.88,0.48,0.58,0.33,0.42,0.55,0.44,0.55,0.88,0.6,0.55,0.42,0.29,0.33,0.29,0.55,0.58,0.55,0.55,0.33" style="fill:rgb(0,0,0);font-family:URWPalladioL-Roma;font-size:8.97px;stroke:none;">Major and trace elements composition of</text>
   <text y="96.861" x="424.729,429.212,432.7,436.188,443.164,445.657,450.642,454.623,457.116,459.608,463.5548,465.831,468.324,471.811,475.299,479.783,482.275,487.261,491.242,496.227,500.71,503.203,507.184,512.169" svgx:width="0.61,0.39,0.39,0.78,0.28,0.56,0.44,0.28,0.28,0.44,0.55,0.28,0.39,0.39,0.5,0.28,0.56,0.44,0.56,0.5,0.28,0.44,0.56,0.44" style="fill:rgb(0,0,0);font-family:URWPalladioL-Ital;font-size:8.97px;stroke:none;">Terminalia ferdinandiana</text>
   <text y="96.861" x="518.39,523.375,527.67,531.212,536.43,540.725,543.335,547.1024,549.378,552.364,560.281,565.266,570.7,575.183,579.667,584.152,586.391,591.4141999999999,593.618,600.558,609.525,612.51" svgx:width="0.56,0.48,0.4,0.58,0.48,0.29,0.42,0.55,0.33,0.88,0.56,0.61,0.5,0.5,0.5,0.55,0.56,0.55,0.77,1.0,0.33,0.25" style="fill:rgb(0,0,0);font-family:URWPalladioL-Roma;font-size:8.97px;stroke:none;">kernels (mg/100 g DW).</text>
  </g>
  <path style="fill:none;stroke:rgb(0,0,0);stroke-width:1.0;" d="M79.060 110.950 L762.830 110.950 "/>
  <g begin="text">
   <text y="118.549" x="390.004,396.28,398.37,402.205,405.344,407.785,410.923,412.9954,414.583,419.114,422.604,428.184,432.019,435.508,438.295,440.385,442.475,444.565,448.055" svgx:width="1.0,0.33,0.61,0.5,0.39,0.5,0.33,0.55,0.72,0.56,0.89,0.61,0.56,0.44,0.33,0.33,0.33,0.56,0.61" style="fill:rgb(0,0,0);font-family:URWPalladioL-Bold;font-size:6.28px;stroke:none;">Mineral Composition</text>
  </g>
  <path style="fill:none;stroke:rgb(0,0,0);stroke-width:0.56;" d="M79.060 122.190 L762.830 122.190 "/>
  <g begin="text">
   <text y="129.617" x="202.159,208.435,211.574,213.664,217.153,219.60219999999998,221.164,224.999,227.089,230.227,235.807,238.945,242.78,244.87,247.63320000000002,535.794,542.071,544.161,546.948,549.389,552.879,554.737,558.226,560.668,563.806,566.593,569.733,571.3,575.135,577.225,580.363,585.943,589.082,592.916,595.007" svgx:width="1.0,0.5,0.33,0.56,0.39,0.55,0.61,0.33,0.5,0.89,0.5,0.61,0.33,0.44,0.55,1.0,0.33,0.44,0.39,0.56,0.3,0.67,0.39,0.5,0.44,0.5,0.55,0.61,0.33,0.5,0.89,0.5,0.61,0.33,0.44" style="fill:rgb(0,0,0);font-family:URWPalladioL-Bold;font-size:6.28px;stroke:none;">Major Elements Micro/Trace Elements</text>
  </g>
  <path style="fill:none;stroke:rgb(0,0,0);stroke-width:0.25;" d="M79.060 133.260 L762.830 133.260 "/>
  <g begin="text">
   <text y="140.684" x="175.87,180.401,183.541,220.075,226.351,229.8678,266.031,271.26,274.4,307.989,312.88739999999996,348.73,352.56080000000003,387.55,391.04,394.18,427.067,431.253,435.0838,466.238,472.515,476.3458,507.324,511.856,515.6868,547.713,552.245,555.7618,588.285,593.513,595.5854,627.274,633.55,637.0668,668.887,672.722,675.862,709.452,713.287,715.7362,745.674" svgx:width="0.72,0.5,0.55,1.0,0.56,0.55,0.83,0.5,0.55,0.78,0.55,0.61,0.55,0.56,0.5,0.55,0.67,0.61,0.55,1.0,0.61,0.55,0.72,0.61,0.55,0.72,0.56,0.55,0.83,0.33,0.55,1.0,0.56,0.55,0.61,0.5,0.55,0.61,0.39,0.55,0.67" style="fill:rgb(0,0,0);font-family:URWPalladioL-Bold;font-size:6.28px;stroke:none;">Ca Mg Na K P Fe Zn Mn Cu Co Ni Mo Se Sr B</text>
  </g>
  <path style="fill:none;stroke:rgb(0,0,0);stroke-width:0.25;" d="M79.060 144.320 L762.830 144.320 "/>
  <g begin="text">
   <text y="151.751" x="85.854,90.411,93.417,95.896,99.549,102.556,104.382,107.01960000000001,108.612,110.702,116.245,119.734,123.538,126.676,129.814,132.95399999999998,134.522,138.03879999999998,139.58,144.438,150.715,152.7874,172.645,175.783,178.921,182.06,183.629,186.76899999999998,217.898,221.037,224.175,227.313,228.882,232.022,263.158,266.296,269.435,272.573,274.142,277.282,303.371,306.51,309.648,312.786,314.355,317.495,343.585,346.723,349.861,353.0,354.569,357.709,386.943,390.081,391.65,394.78999999999996,427.156,430.295,431.864,435.00399999999996,467.37,470.508,472.077,475.217,507.589,510.728,512.297,515.437,546.234,549.372,550.941,554.079,557.2189999999999,586.447,589.585,591.155,594.293,597.433,624.765,628.569,631.707,633.276,636.414,639.554,666.88,670.019,671.588,674.726,677.866,708.669,711.807,713.376,716.516,742.273,745.412,746.981,750.119" svgx:width="0.73,0.48,0.4,0.58,0.48,0.29,0.42,0.55,0.33,0.88,0.56,0.61,0.5,0.5,0.5,0.55,0.56,0.55,0.77,1.0,0.33,0.55,0.5,0.5,0.5,0.25,0.5,0.55,0.5,0.5,0.5,0.25,0.5,0.55,0.5,0.5,0.5,0.25,0.5,0.55,0.5,0.5,0.5,0.25,0.5,0.55,0.5,0.5,0.5,0.25,0.5,0.55,0.5,0.25,0.5,0.55,0.5,0.25,0.5,0.55,0.5,0.25,0.5,0.55,0.5,0.25,0.5,0.55,0.5,0.25,0.5,0.5,0.55,0.5,0.25,0.5,0.5,0.55,0.61,0.5,0.25,0.5,0.5,0.55,0.5,0.25,0.5,0.5,0.55,0.5,0.25,0.5,0.55,0.5,0.25,0.5,0.5" style="fill:rgb(0,0,0);font-family:URWPalladioL-Roma;font-size:6.28px;stroke:none;">Kernels (mg/100 g DW) 538.5 421.1 120.3 669.3 872.8 6.1 6.0 9.1 2.5 0.02 0.17 &lt;0.01 0.02 5.0 0.83</text>
   <text y="159.457" x="113.746,118.604,122.797,124.9322,166.964,170.103,173.241,176.379,179.51899999999998,181.086,185.969" svgx:width="0.77,0.67,0.34,0.55,0.5,0.5,0.5,0.5,0.55,0.78,0.34" style="fill:rgb(0,0,0);font-family:URWPalladioL-Roma;font-size:6.28px;stroke:none;">DRI 1200 AI</text>
   <text y="157.178" x="189.655" svgx:width="0.5" style="fill:rgb(0,0,0);font-family:URWPalladioL-Roma;font-size:4.88px;stroke:none;">a</text>
   <text y="159.457" x="210.834,213.972,217.11,220.25,221.818,225.653,230.536" svgx:width="0.5,0.5,0.5,0.55,0.61,0.78,0.67" style="fill:rgb(0,0,0);font-family:URWPalladioL-Roma;font-size:6.28px;stroke:none;">350 EAR</text>
   <text y="157.178" x="236.297" svgx:width="0.5" style="fill:rgb(0,0,0);font-family:URWPalladioL-Roma;font-size:4.88px;stroke:none;">a</text>
   <text y="159.457" x="259.83,262.969,264.538,267.678,269.245,274.128" svgx:width="0.5,0.25,0.5,0.55,0.78,0.34" style="fill:rgb(0,0,0);font-family:URWPalladioL-Roma;font-size:6.28px;stroke:none;">1.3 AI</text>
   <text y="157.178" x="277.812" svgx:width="0.5" style="fill:rgb(0,0,0);font-family:URWPalladioL-Roma;font-size:4.88px;stroke:none;">a</text>
   <text y="159.457" x="300.045,303.184,304.753,307.893,309.46,314.343" svgx:width="0.5,0.25,0.5,0.55,0.78,0.34" style="fill:rgb(0,0,0);font-family:URWPalladioL-Roma;font-size:6.28px;stroke:none;">4.7 AI</text>
   <text y="157.178" x="318.028" svgx:width="0.5" style="fill:rgb(0,0,0);font-family:URWPalladioL-Roma;font-size:4.88px;stroke:none;">a</text>
   <text y="159.457" x="336.009,339.147,342.286,345.426,346.993,351.186,356.044" svgx:width="0.5,0.5,0.5,0.55,0.67,0.77,0.78" style="fill:rgb(0,0,0);font-family:URWPalladioL-Roma;font-size:6.28px;stroke:none;">700 RDA</text>
   <text y="157.178" x="362.496" svgx:width="0.5" style="fill:rgb(0,0,0);font-family:URWPalladioL-Roma;font-size:4.88px;stroke:none;">a</text>
   <text y="159.457" x="379.363,382.503,384.07,388.263,393.121" svgx:width="0.5,0.55,0.67,0.77,0.78" style="fill:rgb(0,0,0);font-family:URWPalladioL-Roma;font-size:6.28px;stroke:none;">8 RDA</text>
   <text y="157.178" x="399.573" svgx:width="0.5" style="fill:rgb(0,0,0);font-family:URWPalladioL-Roma;font-size:4.88px;stroke:none;">a</text>
   <text y="159.457" x="418.009,421.148,424.288,425.855,430.048,434.906" svgx:width="0.5,0.5,0.55,0.67,0.77,0.78" style="fill:rgb(0,0,0);font-family:URWPalladioL-Roma;font-size:6.28px;stroke:none;">11 RDA</text>
   <text y="157.178" x="441.358" svgx:width="0.5" style="fill:rgb(0,0,0);font-family:URWPalladioL-Roma;font-size:4.88px;stroke:none;">a</text>
   <text y="159.457" x="460.908,464.046,465.616,468.756,470.323,475.206" svgx:width="0.5,0.25,0.5,0.55,0.78,0.34" style="fill:rgb(0,0,0);font-family:URWPalladioL-Roma;font-size:6.28px;stroke:none;">2.3 AI</text>
   <text y="157.178" x="478.891" svgx:width="0.5" style="fill:rgb(0,0,0);font-family:URWPalladioL-Roma;font-size:4.88px;stroke:none;">a</text>
   <text y="159.457" x="496.872,500.01,503.149,506.289,507.856,512.049,516.907" svgx:width="0.5,0.5,0.5,0.55,0.67,0.77,0.78" style="fill:rgb(0,0,0);font-family:URWPalladioL-Roma;font-size:6.28px;stroke:none;">700 RDA</text>
   <text y="157.178" x="523.359" svgx:width="0.5" style="fill:rgb(0,0,0);font-family:URWPalladioL-Roma;font-size:4.88px;stroke:none;">a</text>
   <text y="159.457" x="540.555,543.693,545.262,548.401,551.539,556.422" svgx:width="0.5,0.25,0.5,0.5,0.78,0.34" style="fill:rgb(0,0,0);font-family:URWPalladioL-Roma;font-size:6.28px;stroke:none;">0.12AI</text>
   <text y="157.178" x="560.107" svgx:width="0.5" style="fill:rgb(0,0,0);font-family:URWPalladioL-Roma;font-size:4.88px;stroke:none;">a</text>
   <text y="159.457" x="580.696,583.834,585.403,588.543,590.11,594.994" svgx:width="0.5,0.25,0.5,0.55,0.78,0.61" style="fill:rgb(0,0,0);font-family:URWPalladioL-Roma;font-size:6.28px;stroke:none;">1.0 UL</text>
   <text y="157.178" x="600.397" svgx:width="0.5" style="fill:rgb(0,0,0);font-family:URWPalladioL-Roma;font-size:4.88px;stroke:none;">a</text>
   <text y="159.457" x="619.6,622.738,625.878,627.445,631.28,636.163" svgx:width="0.5,0.5,0.55,0.61,0.78,0.67" style="fill:rgb(0,0,0);font-family:URWPalladioL-Roma;font-size:6.28px;stroke:none;">34 EAR</text>
   <text y="157.178" x="641.925" svgx:width="0.5" style="fill:rgb(0,0,0);font-family:URWPalladioL-Roma;font-size:4.88px;stroke:none;">a</text>
   <text y="159.457" x="659.815,662.954,666.0939999999999,667.661,671.496,676.379" svgx:width="0.5,0.5,0.55,0.61,0.78,0.67" style="fill:rgb(0,0,0);font-family:URWPalladioL-Roma;font-size:6.28px;stroke:none;">45 EAR</text>
   <text y="157.178" x="682.141" svgx:width="0.5" style="fill:rgb(0,0,0);font-family:URWPalladioL-Roma;font-size:4.88px;stroke:none;">a</text>
   <text y="159.457" x="697.95,701.088,704.227,707.367,708.934,713.127,717.985" svgx:width="0.5,0.5,0.5,0.55,0.67,0.77,0.78" style="fill:rgb(0,0,0);font-family:URWPalladioL-Roma;font-size:6.28px;stroke:none;">1–5 RDA</text>
   <text y="157.178" x="724.437" svgx:width="0.5" style="fill:rgb(0,0,0);font-family:URWPalladioL-Roma;font-size:4.88px;stroke:none;">a</text>
   <text y="159.457" x="737.303,740.442,743.582,745.149,750.032" svgx:width="0.5,0.5,0.55,0.78,0.61" style="fill:rgb(0,0,0);font-family:URWPalladioL-Roma;font-size:6.28px;stroke:none;">20 UL</text>
   <text y="157.178" x="755.435" svgx:width="0.5" style="fill:rgb(0,0,0);font-family:URWPalladioL-Roma;font-size:4.88px;stroke:none;">a</text>
   <text y="167.163" x="111.794,116.678,120.33,122.157,124.203,126.84060000000001,175.187,180.729,184.2458,220.447,225.989,229.5058,268.474,271.9908,308.688,312.2048,346.133,351.675,355.1918,386.346,391.889,395.4058,426.566,432.108,435.6248,466.78,472.322" svgx:width="0.78,0.58,0.29,0.33,0.42,0.55,0.88,0.56,0.55,0.88,0.56,0.55,0.56,0.55,0.56,0.55,0.88,0.56,0.55,0.88,0.56,0.55,0.88,0.56,0.55,0.88,0.56" style="fill:rgb(0,0,0);font-family:URWPalladioL-Roma;font-size:6.28px;stroke:none;">Units mg mg g g mg mg mg mg</text>
   <text y="167.163" x="507.826" svgx:width="0.62" style="fill:rgb(0,0,0);font-family:EURM10;font-size:6.28px;stroke:none;">µ</text>
   <text y="167.163" x="511.704" svgx:width="0.56" style="fill:rgb(0,0,0);font-family:URWPalladioL-Roma;font-size:6.28px;stroke:none;">g</text>
   <text y="167.163" x="548.042" svgx:width="0.62" style="fill:rgb(0,0,0);font-family:EURM10;font-size:6.28px;stroke:none;">µ</text>
   <text y="167.163" x="551.919,555.4358,587.425,592.968" svgx:width="0.56,0.55,0.88,0.56" style="fill:rgb(0,0,0);font-family:URWPalladioL-Roma;font-size:6.28px;stroke:none;">g mg</text>
   <text y="167.163" x="628.474" svgx:width="0.62" style="fill:rgb(0,0,0);font-family:EURM10;font-size:6.28px;stroke:none;">µ</text>
   <text y="167.163" x="632.35" svgx:width="0.56" style="fill:rgb(0,0,0);font-family:URWPalladioL-Roma;font-size:6.28px;stroke:none;">g</text>
   <text y="167.163" x="668.689" svgx:width="0.62" style="fill:rgb(0,0,0);font-family:EURM10;font-size:6.28px;stroke:none;">µ</text>
   <text y="167.163" x="672.566,676.0828,708.072,713.614,717.1308,743.245,748.787" svgx:width="0.56,0.55,0.88,0.56,0.55,0.88,0.56" style="fill:rgb(0,0,0);font-family:URWPalladioL-Roma;font-size:6.28px;stroke:none;">g mg mg</text>
  </g>
  <path style="fill:none;stroke:rgb(0,0,0);stroke-width:0.25;" d="M79.060 170.980 L762.830 170.980 "/>
  <g begin="text">
   <text y="179.925" x="97.795,103.194,107.065,110.491,115.365,117.716,120.351,123.69839999999999,125.75,129.79,132.845,136.6706,138.688,142.559,146.73,151.587,154.633,158.505,161.931,165.358,169.229,174.09070000000003,176.147,180.188,183.53539999999998,185.586,188.221,192.924,196.74960000000002,198.776,205.912,209.783,213.824,218.44660000000002,220.499,224.912,227.5421,229.583,234.521,239.386,244.243,246.595,248.947,252.535,256.576,259.21,263.0356,265.062,268.933,273.103,277.96,281.831,285.023,287.375,294.511,298.382,303.086,305.72,309.147,311.1395,313.632,319.031,325.286,331.574,339.655,342.702,346.573,350.162,354.574,361.71,368.846,372.718,377.421,382.359,386.23,391.0917,393.14,398.078,400.43,404.301,406.935,410.976,414.169,418.6322,420.642,424.683,427.035,429.386,433.799,440.539,444.58,449.283,452.872,456.743,458.7355,460.743,467.031,469.754,477.836,481.877,486.815,490.686,495.212,500.085,504.126,506.76,510.5856,512.603,515.327,520.03,522.665,526.706,531.199,535.07,537.0625,539.071,545.359,550.296,558.378,561.013,565.425,567.777,571.648,574.841,578.881,583.351,585.702,589.5276,591.545,596.419,601.276,606.133,610.004,613.192,615.176,617.528,622.232,624.866,628.907,633.4,637.2256,639.244,641.595,645.466,650.033,653.904,656.255,658.2475,660.256,666.511,671.91,674.633,682.715,688.97,691.322,695.193,697.828,701.869,705.061,709.5242000000001,711.526,714.581,718.452,721.143,725.015,728.061,731.933,736.636,740.224" svgx:width="0.67,0.48,0.42,0.6,0.29,0.33,0.42,0.55,0.5,0.4,0.48,0.55,0.48,0.52,0.6,0.4,0.48,0.42,0.42,0.48,0.61,0.55,0.5,0.42,0.55,0.33,0.58,0.48,0.55,0.88,0.48,0.5,0.58,0.55,0.55,0.33,0.55,0.61,0.6,0.6,0.29,0.29,0.44,0.5,0.33,0.48,0.55,0.48,0.52,0.6,0.48,0.4,0.29,0.88,0.48,0.58,0.33,0.42,0.25,0.55,0.67,0.77,0.78,1.0,0.4,0.48,0.44,0.55,0.88,0.88,0.48,0.58,0.61,0.48,0.61,0.55,0.61,0.29,0.48,0.33,0.5,0.4,0.56,0.55,0.5,0.29,0.29,0.55,0.83,0.5,0.58,0.44,0.48,0.25,0.55,0.78,0.34,1.0,0.5,0.61,0.48,0.56,0.6,0.5,0.33,0.48,0.55,0.34,0.58,0.33,0.5,0.56,0.48,0.25,0.55,0.78,0.61,1.0,0.33,0.55,0.29,0.48,0.4,0.5,0.55,0.29,0.48,0.55,0.6,0.6,0.6,0.48,0.4,0.55,0.29,0.58,0.33,0.5,0.56,0.48,0.55,0.29,0.48,0.56,0.48,0.29,0.25,0.55,0.77,0.67,0.34,1.0,0.77,0.29,0.48,0.33,0.5,0.4,0.56,0.55,0.4,0.48,0.33,0.48,0.4,0.48,0.58,0.44,0.48" style="fill:rgb(0,0,0);font-family:URWPalladioL-Roma;font-size:7.97px;stroke:none;">Results are expressed as the mean of duplicate experiments. RDA—recommended dietary allowance, AI—adequate Intake, UL—tolerable upper intake level, DRI—Dietary reference</text>
   <text y="189.39" x="97.795,100.082,104.655,107.217,111.147,115.516,119.28,122.612,124.6045,126.581,131.382,137.496,142.746,150.604,155.406,158.738,161.3,163.587,170.526,174.455,177.017,180.781,185.64270000000002,187.579,191.508,195.948,199.712,202.816,206.746,211.115,214.94060000000002,216.883,219.846,223.61,228.011,232.749,235.036,237.991,241.755,248.694,252.459,257.032,259.594" svgx:width="0.29,0.58,0.33,0.5,0.56,0.48,0.42,0.25,0.55,0.61,0.78,0.67,1.0,0.61,0.42,0.33,0.29,0.88,0.5,0.33,0.48,0.61,0.55,0.5,0.56,0.48,0.4,0.5,0.56,0.48,0.55,0.4,0.48,0.56,0.6,0.29,0.4,0.48,0.88,0.48,0.58,0.33,0.25" style="fill:rgb(0,0,0);font-family:URWPalladioL-Roma;font-size:7.97px;stroke:none;">intakes; EAR—Estimated average requirement.</text>
   <text y="186.497" x="264.054" svgx:width="0.5" style="fill:rgb(0,0,0);font-family:URWPalladioL-Roma;font-size:5.98px;stroke:none;">a</text>
   <text y="189.39" x="269.541,272.189,276.763,280.095,282.657,284.944,287.506,292.244,294.806,298.6316,300.566,304.857,307.48710000000005,309.478,316.912,320.676,325.478,327.765,331.254,333.541,338.114,341.879,343.8715,346.334,350.264,354.193,358.122,362.052" svgx:width="0.34,0.58,0.42,0.33,0.29,0.33,0.6,0.33,0.48,0.55,0.55,0.33,0.55,0.95,0.48,0.61,0.29,0.44,0.29,0.58,0.48,0.25,0.55,0.5,0.5,0.5,0.5,0.25" style="fill:rgb(0,0,0);font-family:URWPalladioL-Roma;font-size:7.97px;stroke:none;">Institute of Medicine. 2006.</text>
   <text y="189.39" x="366.51,372.624,374.809,377.866,380.482,383.972,387.029,391.014,392.954,398.196,401.253,403.437,406.494,409.41,412.467,416.836,420.034,423.1423,425.095,427.712,432.082,434.698,438.188,441.677,444.734" svgx:width="0.78,0.28,0.39,0.33,0.44,0.39,0.5,0.55,0.67,0.39,0.28,0.39,0.39,0.39,0.56,0.41,0.39,0.55,0.33,0.56,0.33,0.44,0.44,0.39,0.39" style="fill:rgb(0,0,0);font-family:URWPalladioL-Ital;font-size:7.97px;stroke:none;">Dietary Reference Intakes</text>
   <text y="189.39" x="447.787" svgx:width="0.25" style="fill:rgb(0,0,0);font-family:URWPalladioL-Roma;font-size:7.97px;stroke:none;">:</text>
   <text y="189.39" x="452.237,457.039,460.968,464.0763,466.029,470.83,473.879,476.936,479.993,484.363,486.98,489.164,492.653,494.88460000000003,496.842,502.516,506.885,509.07,512.999,516.1073,518.052,520.669,524.1758,526.162,532.276,536.645,539.262,542.319,544.504,547.561,551.93,554.5600999999999,556.543,561.785,564.842,568.48,572.85,575.034,577.95,581.007,587.121,590.178,594.547,597.164" svgx:width="0.61,0.5,0.39,0.55,0.61,0.39,0.39,0.39,0.56,0.33,0.28,0.44,0.28,0.55,0.72,0.56,0.28,0.5,0.39,0.55,0.33,0.44,0.55,0.78,0.56,0.33,0.39,0.28,0.39,0.56,0.33,0.55,0.67,0.39,0.46,0.56,0.28,0.39,0.39,0.78,0.39,0.56,0.33,0.39" style="fill:rgb(0,0,0);font-family:URWPalladioL-Ital;font-size:7.97px;stroke:none;">The Essential Guide to Nutrient Requirements</text>
   <text y="189.39" x="600.221,602.2135,604.677,611.804,615.734,619.066,623.639,625.926,630.5,634.869,637.431,641.722,646.296,648.2885,650.264,656.347,661.918,663.9105,665.879,670.696,675.27,679.0956,681.038,685.612,689.541,692.103,694.39,698.68,703.254,707.183,709.4943,711.466,715.396,718.885,722.814,727.616,731.38,738.319,740.606" svgx:width="0.25,0.55,1.0,0.5,0.42,0.58,0.29,0.58,0.56,0.33,0.55,0.58,0.25,0.55,0.77,0.71,0.25,0.55,0.61,0.58,0.48,0.55,0.58,0.5,0.33,0.29,0.55,0.58,0.5,0.29,0.55,0.5,0.44,0.5,0.61,0.48,0.88,0.29,0.44" style="fill:rgb(0,0,0);font-family:URWPalladioL-Roma;font-size:7.97px;stroke:none;">. Washington, DC: The national academic</text>
   <text y="198.854" x="97.556,102.346,105.351,109.168,112.548,115.927,117.91950000000001,120.39,123.076,127.261,132.13,138.753,140.7455,142.738,146.724,150.709,154.694,157.348,161.333,163.987,167.972,171.957,175.942,178.596,182.581,186.566,190.551,194.536,198.521,201.175,205.16,207.1525,209.624,214.493,218.845,221.164,223.157,227.142,231.127,233.119,237.104,241.089,245.074,249.06,253.045,257.874,261.86,265.845,269.83,273.815,277.8,279.7925,282.263,288.464,293.788" svgx:width="0.6,0.4,0.48,0.42,0.42,0.25,0.55,0.34,0.52,0.61,0.83,0.25,0.55,0.5,0.5,0.5,0.33,0.5,0.33,0.5,0.5,0.5,0.33,0.5,0.5,0.5,0.5,0.5,0.33,0.5,0.25,0.55,0.61,0.55,0.29,0.25,0.5,0.5,0.25,0.5,0.5,0.5,0.5,0.5,0.61,0.5,0.5,0.5,0.5,0.5,0.25,0.55,0.78,0.67,0.61" style="fill:rgb(0,0,0);font-family:URWPalladioL-Roma;font-size:7.97px;stroke:none;">press. ISBN: 978-0-309-15742-1. doi:10.17226/11537. URL</text>
   <text y="198.854" x="300.65,305.289,307.887,310.485,315.275,318.655,320.647,325.477,330.307,336.954,343.601,349.515,351.507,356.146,360.131,364.921,366.914,370.731,375.601,380.407,385.237,388.242,392.059,396.044,400.914,405.744,409.729,413.714,417.699,421.684,425.669,430.499,434.038,438.676,442.661,447.451,450.05,453.867,457.016,461.845" svgx:width="0.58,0.33,0.33,0.6,0.42,0.25,0.61,0.61,0.83,0.83,0.83,0.25,0.58,0.5,0.6,0.25,0.48,0.61,0.6,0.61,0.4,0.48,0.5,0.61,0.61,0.5,0.5,0.5,0.5,0.5,0.61,0.44,0.58,0.5,0.6,0.33,0.48,0.4,0.61,0.5" style="fill:rgb(8,117,183);font-family:URWPalladioL-Roma;font-size:7.97px;stroke:none;">https://www.nap.edu/read/11537/chapter/1</text>
   <text y="198.854" x="465.831,467.8235,470.294,476.495,480.033,483.572,487.39,490.769,494.148,497.966,502.8277,504.828,509.18,513.8026,515.811,519.796,523.7810000000001,525.774,530.205,534.023,538.43,541.515,546.321,550.306,553.454,557.9172,559.878,563.863,567.848,571.833,575.818" svgx:width="0.25,0.55,0.78,0.44,0.44,0.48,0.42,0.42,0.48,0.61,0.55,0.55,0.58,0.55,0.5,0.5,0.55,0.56,0.48,0.55,0.4,0.6,0.5,0.4,0.56,0.55,0.5,0.5,0.5,0.5,0.25" style="fill:rgb(0,0,0);font-family:URWPalladioL-Roma;font-size:7.97px;stroke:none;">. Accessed on 17 February 2017.</text>
   <text y="224.069" x="194.753,199.738,204.222,209.7,212.686,217.17100000000002,219.411,223.894" svgx:width="0.67,0.5,0.61,0.33,0.5,0.55,0.5,0.25" style="fill:rgb(0,0,0);font-family:URWPalladioL-Bold;font-size:8.97px;stroke:none;">Table 4.</text>
   <text y="224.069" x="228.914,236.365,241.261,246.479,249.465,253.76,257.562,261.363,265.658,270.877,273.8,276.409,280.892,283.4933,285.743,290.038,292.647,296.942,304.859,309.154,314.373,317.296,321.0634,323.339,327.822,333.041,338.5127,340.761,345.979,350.274,354.757,359.823,364.84619999999995,367.05,374.968,379.263,382.186,386.669,389.27029999999996,391.52,395.501,400.396,408.314,413.702,418.598,422.4,425.009,427.932,430.541,435.437,440.655,444.4224,446.699,451.594" svgx:width="0.83,0.55,0.58,0.33,0.48,0.42,0.42,0.48,0.58,0.33,0.29,0.5,0.29,0.55,0.48,0.29,0.48,0.88,0.48,0.58,0.33,0.42,0.55,0.5,0.58,0.61,0.55,0.58,0.48,0.5,0.56,0.56,0.55,0.88,0.48,0.33,0.5,0.29,0.55,0.44,0.55,0.88,0.6,0.55,0.42,0.29,0.33,0.29,0.55,0.58,0.42,0.55,0.55,0.33" style="fill:rgb(0,0,0);font-family:URWPalladioL-Roma;font-size:8.97px;stroke:none;">Non-essential elements and heavy metal compositions of</text>
   <text y="224.069" x="456.819,461.302,464.79,468.278,475.254,477.747,482.732,486.713,489.206,491.698,495.6448,497.921,500.414,503.901,507.389,511.873,514.365,519.351,523.332,528.317,532.8,535.293,539.274,544.259" svgx:width="0.61,0.39,0.39,0.78,0.28,0.56,0.44,0.28,0.28,0.44,0.55,0.28,0.39,0.39,0.5,0.28,0.56,0.44,0.56,0.5,0.28,0.44,0.56,0.44" style="fill:rgb(0,0,0);font-family:URWPalladioL-Ital;font-size:8.97px;stroke:none;">Terminalia ferdinandiana</text>
   <text y="224.069" x="550.48,555.465,559.76,563.302,568.52,572.815,575.425,579.1923999999999,581.468,584.454,592.371,597.356,602.79,607.273,611.756,616.241,618.481,623.5042,625.708,632.648,641.615,644.6" svgx:width="0.56,0.48,0.4,0.58,0.48,0.29,0.42,0.55,0.33,0.88,0.56,0.61,0.5,0.5,0.5,0.55,0.56,0.55,0.77,1.0,0.33,0.25" style="fill:rgb(0,0,0);font-family:URWPalladioL-Roma;font-size:8.97px;stroke:none;">kernels (mg/100 g DW).</text>
  </g>
  <path style="fill:none;stroke:rgb(0,0,0);stroke-width:0.56;" d="M105.330 238.280 L736.550 238.280 "/>
  <g begin="text">
   <text y="249.133" x="228.615,236.084,241.069,246.548,249.534,255.012,258.993,262.974,267.457,272.936,275.922,278.908,283.391,286.35110000000003,288.618,294.097,297.082,301.566,309.537,314.02,319.499,322.484,326.4308,507.479,514.948,519.431,523.914,528.9,533.9232,536.127,545.093,549.576,552.562,557.045,560.031" svgx:width="0.83,0.56,0.61,0.33,0.61,0.44,0.44,0.5,0.61,0.33,0.33,0.5,0.33,0.55,0.61,0.33,0.5,0.89,0.5,0.61,0.33,0.44,0.55,0.83,0.5,0.5,0.56,0.56,0.55,1.0,0.5,0.33,0.5,0.33,0.44" style="fill:rgb(0,0,0);font-family:URWPalladioL-Bold;font-size:8.97px;stroke:none;">Non-Essential Elements Heavy Metals</text>
  </g>
  <path style="fill:none;stroke:rgb(0,0,0);stroke-width:0.8;" d="M220.140 254.340 L736.550 254.340 "/>
  <g begin="text">
   <text y="264.944" x="272.308,278.289,282.774,379.663,386.639,390.5858,479.315,486.784,491.80719999999997,580.474,585.953,591.4247,680.378,686.852" svgx:width="0.67,0.5,0.55,0.78,0.44,0.55,0.83,0.56,0.55,0.61,0.61,0.55,0.72,0.61" style="fill:rgb(0,0,0);font-family:URWPalladioL-Bold;font-size:8.97px;stroke:none;">Ba As Hg Pb Cd</text>
  </g>
  <path style="fill:none;stroke:rgb(0,0,0);stroke-width:0.3;" d="M105.330 270.150 L736.550 270.150 "/>
  <g begin="text">
   <text y="280.754" x="114.915,121.425,125.72,129.261,134.48,138.775,141.384,145.1514,147.427,150.413,158.33,163.316,168.749,173.232,177.716,182.20100000000002,184.44,189.4632,191.667,198.607,207.574,210.53410000000002,269.693,274.176,276.418,280.901,285.386,374.582,380.016,384.499,386.74,391.224,395.709,474.988,480.421,484.905,487.146,491.629,496.11400000000003,575.86,580.343,582.585,587.068,591.551,596.0360000000001,675.79,681.224,685.707,687.949,692.432" svgx:width="0.73,0.48,0.4,0.58,0.48,0.29,0.42,0.55,0.33,0.88,0.56,0.61,0.5,0.5,0.5,0.55,0.56,0.55,0.77,1.0,0.33,0.55,0.5,0.25,0.5,0.5,0.55,0.61,0.5,0.25,0.5,0.5,0.55,0.61,0.5,0.25,0.5,0.5,0.55,0.5,0.25,0.5,0.5,0.5,0.55,0.61,0.5,0.25,0.5,0.5" style="fill:rgb(0,0,0);font-family:URWPalladioL-Roma;font-size:8.97px;stroke:none;">Kernels (mg/100 g DW) 0.31 &lt;0.01 &lt;0.01 0.013 &lt;0.01</text>
   <text y="292.077" x="154.761,161.701,167.691,170.7408,259.229,263.712,265.953,270.437,274.922,277.161,284.137" svgx:width="0.77,0.67,0.34,0.55,0.5,0.25,0.5,0.5,0.55,0.78,0.61" style="fill:rgb(0,0,0);font-family:URWPalladioL-Roma;font-size:8.97px;stroke:none;">DRI 0.02 UL</text>
   <text y="288.822" x="291.861" svgx:width="0.5" style="fill:rgb(0,0,0);font-family:URWPalladioL-Roma;font-size:6.97px;stroke:none;">a</text>
   <text y="292.392" x="359.927,364.41,368.893,371.135,375.618,380.101,384.585,389.07,391.309,398.285" svgx:width="0.5,0.5,0.25,0.5,0.5,0.5,0.5,0.55,0.78,0.61" style="fill:rgb(0,0,0);font-family:URWPalladioL-Roma;font-size:8.97px;stroke:none;">12.5–25 UL</text>
   <text y="289.137" x="406.005" svgx:width="0.55" style="fill:rgb(0,0,0);font-family:URWPalladioL-Roma;font-size:6.97px;stroke:none;">b</text>
   <text y="292.077" x="473.039,477.524,479.764,486.74" svgx:width="0.5,0.55,0.78,0.61" style="fill:rgb(0,0,0);font-family:URWPalladioL-Roma;font-size:8.97px;stroke:none;">5 UL</text>
   <text y="288.822" x="494.459" svgx:width="0.44" style="fill:rgb(0,0,0);font-family:URWPalladioL-Roma;font-size:6.97px;stroke:none;">c</text>
   <text y="292.077" x="571.201,575.684,580.169,582.409,589.385" svgx:width="0.5,0.5,0.55,0.78,0.61" style="fill:rgb(0,0,0);font-family:URWPalladioL-Roma;font-size:8.97px;stroke:none;">25 UL</text>
   <text y="288.822" x="597.104" svgx:width="0.44" style="fill:rgb(0,0,0);font-family:URWPalladioL-Roma;font-size:6.97px;stroke:none;">c</text>
   <text y="292.392" x="669.901,674.384,676.626,681.111,683.351,690.326" svgx:width="0.5,0.25,0.5,0.55,0.78,0.61" style="fill:rgb(0,0,0);font-family:URWPalladioL-Roma;font-size:8.97px;stroke:none;">2.5 UL</text>
   <text y="289.137" x="698.046" svgx:width="0.61" style="fill:rgb(0,0,0);font-family:URWPalladioL-Roma;font-size:6.97px;stroke:none;">d</text>
   <text y="303.351" x="151.973,158.949,164.167,166.777,169.7,173.4674,255.042,262.959,267.945,273.378,278.363,283.3862,285.59,291.069" svgx:width="0.78,0.58,0.29,0.33,0.42,0.55,0.88,0.56,0.61,0.56,0.56,0.55,0.61,1.0" style="fill:rgb(0,0,0);font-family:URWPalladioL-Roma;font-size:8.97px;stroke:none;">Units mg/kg BW</text>
   <text y="303.351" x="350.593" svgx:width="0.62" style="fill:rgb(0,0,0);font-family:EURM10;font-size:8.97px;stroke:none;">µ</text>
   <text y="303.351" x="356.131,361.116,366.55,371.535,376.5582,378.762,384.241,393.207,398.641,406.119,410.414,414.709" svgx:width="0.56,0.61,0.56,0.56,0.55,0.61,1.0,0.61,0.83,0.48,0.48,0.56" style="fill:rgb(0,0,0);font-family:URWPalladioL-Roma;font-size:8.97px;stroke:none;">g/kg BW/week</text>
   <text y="303.351" x="450.996" svgx:width="0.62" style="fill:rgb(0,0,0);font-family:EURM10;font-size:8.97px;stroke:none;">µ</text>
   <text y="303.351" x="456.535,461.52,466.954,471.939,476.9622,479.166,484.645,493.611,499.045,506.523,510.818,515.113" svgx:width="0.56,0.61,0.56,0.56,0.55,0.61,1.0,0.61,0.83,0.48,0.48,0.56" style="fill:rgb(0,0,0);font-family:URWPalladioL-Roma;font-size:8.97px;stroke:none;">g/kg BW/week</text>
   <text y="303.351" x="551.4" svgx:width="0.62" style="fill:rgb(0,0,0);font-family:EURM10;font-size:8.97px;stroke:none;">µ</text>
   <text y="303.351" x="556.938,561.923,567.357,572.342,577.3652,579.569,585.048,594.014,599.448,606.926,611.221,615.516" svgx:width="0.56,0.61,0.56,0.56,0.55,0.61,1.0,0.61,0.83,0.48,0.48,0.56" style="fill:rgb(0,0,0);font-family:URWPalladioL-Roma;font-size:8.97px;stroke:none;">g/kg BW/week</text>
   <text y="303.351" x="651.803" svgx:width="0.62" style="fill:rgb(0,0,0);font-family:EURM10;font-size:8.97px;stroke:none;">µ</text>
   <text y="303.351" x="657.341,662.326,667.76,672.745,677.7682,679.972,685.451,694.417,699.851,707.329,711.624,715.919" svgx:width="0.56,0.61,0.56,0.56,0.55,0.61,1.0,0.61,0.83,0.48,0.48,0.56" style="fill:rgb(0,0,0);font-family:URWPalladioL-Roma;font-size:8.97px;stroke:none;">g/kg BW/week</text>
  </g>
  <path style="fill:none;stroke:rgb(0,0,0);stroke-width:0.3;" d="M105.330 308.800 L736.550 308.800 "/>
  <g begin="text">
   <text y="317.868" x="97.795,103.114,106.928,110.304,115.105,117.422,120.017,123.36439999999999,125.4,129.381,132.382,136.2076,138.195,142.009,146.117,150.902,153.904,157.718,161.094,164.47,168.284,173.1457,175.155,179.136,182.4834,184.518,187.114,191.748,195.5736,197.56,204.591,208.405,212.386,217.0086,219.026,223.374,226.0041,228.031,232.896,237.698,242.483,244.8,247.117,250.652,254.633,257.229,261.0546,263.049,266.863,270.971,275.757,279.57,282.715,285.032,292.063,295.877,300.511,303.107,306.482,308.47450000000003,310.973,317.168,322.033,329.995,332.59,336.938,339.255,343.068,346.214,350.195,354.598,356.915,360.74060000000003,362.735,367.536,372.321,377.107,380.921,384.109,386.072,388.389,393.023,395.619,399.6,404.027,407.8526,409.839,412.156,415.97,420.469,424.282,426.599,428.5915,430.596,436.759,442.078,444.761,452.723,458.886,461.203,465.017,467.612,471.593,474.738,479.2012,481.172,484.174,487.987,490.639,494.453,497.454,501.268,505.902,509.438,513.2636,515.258,517.575,522.209,524.804,528.785,533.212,537.026,540.402,542.3945,544.399,549.264,556.788,564.75,569.154,573.501,578.366,582.8292,584.799,591.44,595.253,597.57,601.997,606.631,609.227" svgx:width="0.67,0.48,0.42,0.6,0.29,0.33,0.42,0.55,0.5,0.4,0.48,0.55,0.48,0.52,0.6,0.4,0.48,0.42,0.42,0.48,0.61,0.55,0.5,0.42,0.55,0.33,0.58,0.48,0.55,0.88,0.48,0.5,0.58,0.55,0.55,0.33,0.55,0.61,0.6,0.6,0.29,0.29,0.44,0.5,0.33,0.48,0.55,0.48,0.52,0.6,0.48,0.4,0.29,0.88,0.48,0.58,0.33,0.42,0.25,0.55,0.78,0.61,1.0,0.33,0.55,0.29,0.48,0.4,0.5,0.55,0.29,0.48,0.55,0.6,0.6,0.6,0.48,0.4,0.55,0.29,0.58,0.33,0.5,0.56,0.48,0.55,0.29,0.48,0.56,0.48,0.29,0.25,0.55,0.77,0.67,0.34,1.0,0.77,0.29,0.48,0.33,0.5,0.4,0.56,0.55,0.4,0.48,0.33,0.48,0.4,0.48,0.58,0.44,0.48,0.55,0.29,0.58,0.33,0.5,0.56,0.48,0.42,0.25,0.55,0.61,1.0,1.0,0.55,0.55,0.61,0.56,0.55,0.83,0.48,0.29,0.56,0.58,0.33,0.25" style="fill:rgb(0,0,0);font-family:URWPalladioL-Roma;font-size:7.97px;stroke:none;">Results are expressed as the mean of duplicate experiments. UL—tolerable upper intake level, DRI—Dietary reference intakes; BW—body weight;</text>
   <text y="314.975" x="613.226" svgx:width="0.5" style="fill:rgb(0,0,0);font-family:URWPalladioL-Roma;font-size:5.98px;stroke:none;">a</text>
   <text y="317.868" x="618.717,622.897,626.432,628.749,632.563,637.197,639.793,642.11,646.927,650.4338,652.468,658.113,662.461,669.491,676.522,678.839,681.435,684.03,687.844,691.6696000000001,693.656,698.004,702.6266,704.644,711.269,715.083,719.064,721.381,723.976,728.5986,730.617,734.598,739.232" svgx:width="0.52,0.44,0.29,0.48,0.58,0.33,0.29,0.61,0.44,0.55,0.71,0.55,0.88,0.88,0.29,0.33,0.33,0.48,0.48,0.55,0.55,0.58,0.55,0.83,0.48,0.5,0.29,0.33,0.58,0.55,0.5,0.58,0.61" style="fill:rgb(0,0,0);font-family:URWPalladioL-Roma;font-size:7.97px;stroke:none;">Scientiﬁc Committee on Health and</text>
   <text y="327.332" x="97.795,102.694,107.36,111.891,114.224,117.246,121.624,126.291,133.37,137.211,141.878,144.491,148.5,150.8113,152.822,158.178,160.511,163.911,168.369,171.7164,173.765,176.435,180.444,184.453,188.462,192.471,195.141,197.1335,199.615,205.853,209.252,212.652,216.492,219.892,223.291,230.371,234.212,238.878,241.50809999999998,243.481,247.858,250.4881,252.517,255.131,259.797,263.62260000000003,265.634,268.248,272.626,274.959,278.8,281.967,285.976,290.409,292.743,296.5686,298.572,303.471,307.48,309.813,312.146,316.6092,318.592,320.926,325.592,328.206,332.215,336.673,340.4986,342.51,346.888,349.5181,351.546,355.98,359.989,363.156,365.489,370.324,377.404,379.3965,381.878,386.777,391.612,394.635,399.012,403.831,407.672,411.681,416.30359999999996,418.335,421.895,426.273,433.353,440.433,442.766,446.166,449.565,451.899,456.276,460.943,462.9355,465.425,471.663,477.019" svgx:width="0.61,0.58,0.56,0.29,0.4,0.55,0.58,0.88,0.48,0.58,0.33,0.5,0.29,0.55,0.67,0.29,0.42,0.56,0.42,0.55,0.33,0.5,0.5,0.5,0.5,0.33,0.25,0.55,0.78,0.42,0.42,0.48,0.42,0.42,0.88,0.48,0.58,0.33,0.55,0.55,0.33,0.55,0.33,0.58,0.48,0.55,0.33,0.55,0.29,0.48,0.4,0.5,0.55,0.29,0.48,0.55,0.61,0.5,0.29,0.29,0.56,0.55,0.29,0.58,0.33,0.5,0.56,0.48,0.55,0.55,0.33,0.55,0.55,0.5,0.4,0.29,0.6,0.88,0.25,0.55,0.61,0.6,0.4,0.55,0.6,0.48,0.5,0.58,0.55,0.44,0.55,0.88,0.88,0.29,0.42,0.42,0.29,0.55,0.58,0.25,0.55,0.78,0.67,0.61" style="fill:rgb(0,0,0);font-family:URWPalladioL-Roma;font-size:7.97px;stroke:none;">Environmental Risks (2012). Assessment of the tolerable daily intake of barium. European commission. URL</text>
   <text y="327.332" x="483.906,488.573,491.186,493.8,498.619,500.623,505.482,510.341,514.182,517.742,519.746,523.587,528.421,531.444,535.822,540.641,544.65,546.654,550.495,555.33,560.188,564.855,568.695,572.704,575.038,577.651,582.318,587.177,590.576,594.136,596.469,600.31,604.977,607.59,609.924,614.774,618.334,622.343,625.903,630.281,637.361,644.441,646.774,649.388,652.002,655.842,659.683,663.082,667.941,671.782,676.448,680.978,683.312,686.334,690.712,695.378,702.458,706.299,710.965,713.579,717.588,719.921,723.93,727.097,729.431,732.83,737.288,740.688" svgx:width="0.58,0.33,0.33,0.6,0.25,0.61,0.61,0.48,0.44,0.25,0.48,0.6,0.4,0.55,0.6,0.5,0.25,0.48,0.6,0.61,0.58,0.48,0.5,0.29,0.33,0.58,0.61,0.42,0.44,0.29,0.48,0.58,0.33,0.29,0.61,0.44,0.5,0.44,0.55,0.88,0.88,0.29,0.33,0.33,0.48,0.48,0.42,0.61,0.48,0.58,0.56,0.29,0.4,0.55,0.58,0.88,0.48,0.58,0.33,0.5,0.29,0.5,0.4,0.29,0.42,0.56,0.42,0.61" style="fill:rgb(8,117,183);font-family:URWPalladioL-Roma;font-size:7.97px;stroke:none;">http://ec.europa.eu/health/scientiﬁc_committees/environmental_risks/</text>
   <text y="337.794" x="97.795,102.645,106.98,110.504,113.87,118.68,122.046,125.571,130.191,133.993,137.129,141.098,145.432,149.401,153.37,157.34,161.309,163.293,168.064,172.914" svgx:width="0.61,0.55,0.44,0.42,0.61,0.42,0.44,0.58,0.48,0.4,0.5,0.55,0.5,0.5,0.5,0.5,0.25,0.6,0.61,0.33" style="fill:rgb(8,117,183);font-family:URWPalladioL-Roma;font-size:7.97px;stroke:none;">docs/scher_o_161.pdf</text>
   <text y="337.794" x="175.558,177.5505,180.011,186.187,189.712,193.236,197.039,200.404,203.77,207.573,212.43470000000002,214.423,218.392,222.377,224.354,228.768,232.57,236.96,240.032,244.819,248.788,251.924,256.3872,258.33,262.299,266.268,270.237,274.206" svgx:width="0.25,0.55,0.78,0.44,0.44,0.48,0.42,0.42,0.48,0.61,0.55,0.5,0.5,0.55,0.56,0.48,0.55,0.4,0.6,0.5,0.4,0.56,0.55,0.5,0.5,0.5,0.5,0.25" style="fill:rgb(0,0,0);font-family:URWPalladioL-Roma;font-size:7.97px;stroke:none;">. Accessed 17 February 2017;</text>
   <text y="334.901" x="278.182" svgx:width="0.55" style="fill:rgb(0,0,0);font-family:URWPalladioL-Roma;font-size:5.98px;stroke:none;">b</text>
   <text y="337.794" x="283.979,288.393,292.727,297.061,301.92269999999996,303.904,308.071,312.041,314.684,318.486,321.074,325.5372,327.48,331.45,336.236,338.824,343.444,347.778,350.914,353.224,355.812,360.27520000000004,362.218,366.552,369.18210000000005,371.188,373.863,376.856,380.659,382.969,386.938,391.558,396.4197,398.4,401.044,405.013,408.982,412.951,416.92,419.564,421.5565,424.025,431.535,435.337,438.33,441.854,446.641,449.777,453.301,455.2935,457.278,462.128,465.931,469.9,474.75,476.7425,478.735,484.363,488.333,493.183,500.192,502.494,507.281,514.291,516.2835,518.276,522.697,525.007,529.627,531.6194999999999,533.604,537.573,542.193,547.0547,549.044,555.22,558.356,561.721,565.524,570.144,572.454,575.9608,577.971,580.281,584.9036,586.894,591.307,595.642,599.976,604.826,606.8185,609.279,613.415,617.75,621.846,624.156,627.68,632.015,634.325,638.659,643.073,647.5362,649.479,652.122,656.091,659.616,662.204,665.569,670.189,673.992,677.794,680.4241,682.375,685.74,689.543,692.678,694.988,698.791,702.157,704.1495,706.134,708.809,712.175,715.54,720.327,724.1526,726.122,730.742,735.076,737.0685,739.538,743.507" svgx:width="0.56,0.55,0.55,0.61,0.55,0.52,0.5,0.33,0.48,0.33,0.56,0.55,0.5,0.6,0.33,0.58,0.55,0.4,0.29,0.33,0.56,0.55,0.55,0.33,0.55,0.34,0.4,0.48,0.29,0.5,0.58,0.61,0.55,0.33,0.5,0.5,0.5,0.5,0.33,0.25,0.55,0.95,0.48,0.4,0.44,0.6,0.4,0.56,0.25,0.55,0.61,0.48,0.5,0.61,0.25,0.55,0.71,0.5,0.61,0.88,0.29,0.6,0.88,0.25,0.55,0.61,0.29,0.58,0.25,0.55,0.5,0.58,0.61,0.55,0.78,0.4,0.42,0.48,0.58,0.29,0.44,0.55,0.29,0.58,0.55,0.56,0.55,0.55,0.61,0.25,0.55,0.61,0.55,0.52,0.29,0.44,0.55,0.29,0.55,0.56,0.56,0.55,0.33,0.5,0.44,0.33,0.42,0.58,0.48,0.48,0.33,0.55,0.42,0.48,0.4,0.29,0.48,0.42,0.25,0.55,0.34,0.42,0.42,0.6,0.48,0.55,0.58,0.55,0.25,0.55,0.5,0.25" style="fill:rgb(0,0,0);font-family:URWPalladioL-Roma;font-size:7.97px;stroke:none;">Food Safety authority of Ireland (2009). Mercury, Lead, Cadmium, Tin, and Arsenic in Food. Toxicology factsheet series, Issue no. 1.</text>
   <text y="348.256" x="97.795,104.008,109.343" svgx:width="0.78,0.67,0.61" style="fill:rgb(0,0,0);font-family:URWPalladioL-Roma;font-size:7.97px;stroke:none;">URL</text>
   <text y="348.256" x="116.219,122.879,129.54,135.465,137.462,140.121,143.507,147.5,149.824,151.821,154.145,157.97,162.809,170.061,174.421,177.576,182.016,188.229,191.24,195.065,199.058,203.898,210.079,214.439,221.099,225.747,228.071,232.432,236.425,241.304,247.517,250.903,254.289,258.115,260.718,262.715,266.708,270.094,274.893,279.014,282.56,284.884,289.763,294.603,298.596,302.589,306.582" svgx:width="0.83,0.83,0.83,0.25,0.33,0.42,0.5,0.29,0.25,0.29,0.48,0.61,1.0,0.55,0.4,0.56,0.78,0.4,0.48,0.5,0.61,0.77,0.55,0.83,0.58,0.29,0.55,0.5,0.61,0.78,0.42,0.42,0.48,0.33,0.25,0.5,0.42,0.6,0.52,0.44,0.29,0.61,0.61,0.5,0.5,0.5,0.5" style="fill:rgb(8,117,183);font-family:URWPalladioL-Roma;font-size:7.97px;stroke:none;">www.fsai.ie/WorkArea/DownloadAsset.aspx?id=8412</text>
   <text y="348.256" x="310.575,312.5675,315.055,321.268,324.814,328.36,332.185,335.571,338.957,342.783,347.6447,349.659,353.652,357.637,359.641,364.082,367.907,372.323,375.414,380.229,384.222,387.377,391.8402,393.814,397.807,401.8,405.793,409.786" svgx:width="0.25,0.55,0.78,0.44,0.44,0.48,0.42,0.42,0.48,0.61,0.55,0.5,0.5,0.55,0.56,0.48,0.55,0.4,0.6,0.5,0.4,0.56,0.55,0.5,0.5,0.5,0.5,0.25" style="fill:rgb(0,0,0);font-family:URWPalladioL-Roma;font-size:7.97px;stroke:none;">. Accessed 17 February 2017;</text>
   <text y="345.363" x="413.779" svgx:width="0.44" style="fill:rgb(0,0,0);font-family:URWPalladioL-Roma;font-size:5.98px;stroke:none;">c</text>
   <text y="348.256" x="418.928" svgx:width="0.33" style="fill:rgb(0,0,0);font-family:URWPalladioL-Roma;font-size:7.97px;stroke:none;">[</text>
   <text y="348.256" x="421.587,425.572" svgx:width="0.5,0.5" style="fill:rgb(8,117,183);font-family:URWPalladioL-Roma;font-size:7.97px;stroke:none;">27</text>
   <text y="348.256" x="429.557,432.216" svgx:width="0.33,0.25" style="fill:rgb(0,0,0);font-family:URWPalladioL-Roma;font-size:7.97px;stroke:none;">];</text>
   <text y="345.363" x="436.211" svgx:width="0.61" style="fill:rgb(0,0,0);font-family:URWPalladioL-Roma;font-size:5.98px;stroke:none;">d</text>
   <text y="348.256" x="442.358,446.551,449.154,453.147,455.751,459.576,466.628,470.453,475.101,477.704,481.0514,483.087,487.447,492.0696,494.092,496.695,501.343,505.1686,507.165,509.768,514.129,516.453,520.278,523.432,527.425,531.842,534.166,537.9916000000001,539.987,546.648,550.473,554.298,558.739,561.063,565.5262,567.499,569.823,574.471,577.075,581.068,585.508,589.3336,591.33,593.989,598.349,601.537,603.492,607.038,611.031,615.911,622.962,625.286,630.102,637.154,639.1465,641.634,646.457,650.45,655.098,658.923,661.2343,663.244,667.604,672.2266000000001,674.249,677.794,682.155,686.803,689.406,693.399,700.451,702.775,707.423,711.416,716.064,718.667,722.0144,724.05,726.374,730.9966000000001,733.018,735.621,740.269" svgx:width="0.52,0.33,0.5,0.33,0.48,0.88,0.48,0.58,0.33,0.42,0.55,0.55,0.58,0.55,0.33,0.58,0.48,0.55,0.33,0.55,0.29,0.48,0.4,0.5,0.55,0.29,0.48,0.55,0.83,0.48,0.48,0.56,0.29,0.56,0.55,0.29,0.58,0.33,0.5,0.56,0.48,0.55,0.33,0.55,0.4,0.55,0.44,0.5,0.61,0.88,0.29,0.6,0.88,0.25,0.55,0.6,0.5,0.58,0.48,0.29,0.55,0.55,0.58,0.55,0.44,0.55,0.58,0.33,0.5,0.88,0.29,0.58,0.5,0.58,0.33,0.42,0.55,0.29,0.58,0.55,0.33,0.58,0.48" style="fill:rgb(0,0,0);font-family:URWPalladioL-Roma;font-size:7.97px;stroke:none;">Statements on the tolerable weekly intake for cadmium. Panel on contaminants in the</text>
   <text y="357.72" x="97.795,100.449,104.801,109.152,114.0137,116.015,119.553,124.192,128.177,130.496,135.135,137.1275,139.598,144.468,148.899,153.084,159.284,161.2765,163.269,167.254,171.239,175.225,179.21,181.20250000000001,183.195,187.18,189.834,193.819,196.473,198.46550000000002,200.936,207.137,212.461" svgx:width="0.33,0.55,0.55,0.61,0.55,0.44,0.58,0.5,0.29,0.58,0.25,0.55,0.61,0.56,0.52,0.78,0.25,0.55,0.5,0.5,0.5,0.5,0.25,0.55,0.5,0.33,0.5,0.33,0.25,0.55,0.78,0.67,0.61" style="fill:rgb(0,0,0);font-family:URWPalladioL-Roma;font-size:7.97px;stroke:none;">food chain. EFSA, 2011, 9(2). URL</text>
   <text y="357.72" x="219.323,223.962,226.56,229.158,233.948,237.327,239.32,244.15,248.98,255.627,262.274,268.188,270.18,273.998,276.652,280.031,284.016,286.009,289.827,294.633,297.637,301.989,306.779,310.764,312.757,316.574,321.38,326.21,330.028,334.666,339.496,343.314,345.968,349.347,353.332,355.197,359.549,364.355,367.503,372.142,376.127,378.446,383.276,388.066,392.872,397.28,402.109,406.095,410.08,414.065" svgx:width="0.58,0.33,0.33,0.6,0.42,0.25,0.61,0.61,0.83,0.83,0.83,0.25,0.48,0.33,0.42,0.5,0.25,0.48,0.6,0.4,0.55,0.6,0.5,0.25,0.48,0.6,0.61,0.48,0.58,0.61,0.48,0.33,0.42,0.5,0.23,0.55,0.6,0.4,0.58,0.5,0.29,0.61,0.6,0.6,0.55,0.61,0.5,0.5,0.5,0.5" style="fill:rgb(8,117,183);font-family:URWPalladioL-Roma;font-size:7.97px;stroke:none;">https://www.efsa.europa.eu/en/efsajournal/pub/1975</text>
   <text y="357.72" x="418.05,420.0425,422.513,428.714,432.252,435.791,439.609,442.988,446.367,450.185,455.0467,457.047,461.399,466.0216,468.03,472.015,476.0,477.993,482.424,486.242,490.649,493.734,498.54,502.525,505.673,510.13620000000003,512.097,516.082,520.067,524.052,528.037" svgx:width="0.25,0.55,0.78,0.44,0.44,0.48,0.42,0.42,0.48,0.61,0.55,0.55,0.58,0.55,0.5,0.5,0.55,0.56,0.48,0.55,0.4,0.6,0.5,0.4,0.56,0.55,0.5,0.5,0.5,0.5,0.25" style="fill:rgb(0,0,0);font-family:URWPalladioL-Roma;font-size:7.97px;stroke:none;">. Accessed on 17 February 2017.</text>
  </g>
 </g>
</svg>
